<svg width="32" height="32" viewBox="0 0 32 32" fill="none" xmlns="http://www.w3.org/2000/svg">
<g clip-path="url(#clip0_2707_377268)">
<path d="M15.9998 31.9822C24.8265 31.9822 31.982 24.8267 31.982 16C31.982 7.17325 24.8265 0.0177612 15.9998 0.0177612C7.17306 0.0177612 0.0175781 7.17325 0.0175781 16C0.0175781 24.8267 7.17306 31.9822 15.9998 31.9822Z" fill="white"/>
<path d="M2.95996 15.5377C2.98359 15.5155 3.00184 15.4881 3.01329 15.4577C3.09849 15.2014 3.25045 14.9724 3.45356 14.7943C3.65667 14.6161 3.90357 14.4954 4.16885 14.4444C4.23076 14.4355 4.29361 14.4355 4.35552 14.4444H6.28441C6.36714 14.4356 6.45056 14.4356 6.53329 14.4444V17.8222H5.75996L5.66218 17.6177C5.22095 17.8525 4.71131 17.9248 4.22218 17.8222C3.94199 17.7949 3.67658 17.6835 3.46083 17.5027C3.24509 17.3218 3.08908 17.08 3.01329 16.8088C3.00184 16.7785 2.98359 16.7511 2.95996 16.7288V15.5377ZM5.70663 15.2711H4.44441C4.30865 15.2688 4.17606 15.3122 4.06802 15.3945C3.95998 15.4767 3.88278 15.5929 3.84885 15.7244C3.79153 15.961 3.79153 16.2078 3.84885 16.4444C3.85545 16.5279 3.87883 16.6092 3.9176 16.6834C3.95636 16.7576 4.00971 16.8233 4.07445 16.8764C4.13919 16.9295 4.21399 16.969 4.29436 16.9925C4.37473 17.0161 4.45902 17.0231 4.54218 17.0133C4.6635 17.0044 4.78531 17.0044 4.90663 17.0133C5.09541 17.0225 5.28145 16.9653 5.43246 16.8516C5.58346 16.738 5.6899 16.575 5.73329 16.3911C5.78757 16.0204 5.80543 15.6452 5.78663 15.2711H5.70663Z" fill="#838487"/>
<path d="M10.8618 17.8489H10.0974L9.99069 17.6444C9.48316 17.8869 8.90425 17.9343 8.36402 17.7778C8.14542 17.7278 7.94257 17.6246 7.77353 17.4772C7.60449 17.3299 7.4745 17.1431 7.39513 16.9333C7.31268 16.7428 7.27323 16.5364 7.27958 16.3289C7.25678 15.9992 7.2929 15.6681 7.38624 15.3511C7.46852 15.1196 7.61196 14.9147 7.80134 14.7582C7.99071 14.6017 8.21895 14.4994 8.4618 14.4622C8.64847 14.4622 8.82624 14.4622 9.01291 14.4178H10.0262V13.5289C10.2995 13.4527 10.5885 13.4527 10.8618 13.5289V17.8489ZM10.0262 15.2711C9.59069 15.2711 9.13735 15.2711 8.74624 15.2711C8.66378 15.2711 8.58213 15.2875 8.50606 15.3193C8.42998 15.3511 8.36099 15.3978 8.30309 15.4565C8.2452 15.5152 8.19955 15.5849 8.16881 15.6614C8.13807 15.7379 8.12284 15.8198 8.12402 15.9022C8.12402 16.0889 8.12402 16.2667 8.12402 16.4533C8.12395 16.5988 8.1805 16.7386 8.28171 16.8432C8.38291 16.9477 8.52082 17.0087 8.66624 17.0133H9.27069C9.44726 16.9878 9.61205 16.9097 9.74363 16.7892C9.87521 16.6687 9.96749 16.5114 10.0085 16.3378C10.0264 15.9825 10.0264 15.6264 10.0085 15.2711H10.0262Z" fill="#838487"/>
<path d="M15.182 14.4355C15.2065 14.5199 15.2243 14.6061 15.2353 14.6933V17.7777C15.2353 17.7777 15.2353 17.8222 15.2353 17.84C14.9719 17.858 14.7076 17.858 14.4442 17.84C14.4166 17.7793 14.3929 17.7169 14.3731 17.6533C14.3731 17.6533 14.3287 17.6533 14.3198 17.6533C14.044 17.7905 13.7387 17.8576 13.4309 17.8488C13.1305 17.8689 12.8291 17.8328 12.542 17.7422C12.3161 17.6559 12.116 17.5136 11.9605 17.3285C11.8049 17.1434 11.6991 16.9217 11.6531 16.6844C11.5596 16.3019 11.5596 15.9025 11.6531 15.52C11.7058 15.3028 11.8089 15.1011 11.954 14.9312C12.0992 14.7613 12.2824 14.6281 12.4887 14.5422C12.6789 14.4589 12.8855 14.4194 13.0931 14.4266C13.7864 14.4444 14.462 14.4355 15.182 14.4355ZM14.2931 15.2711C13.8753 15.2711 13.4664 15.2711 13.0575 15.2711C12.9728 15.2686 12.8885 15.2835 12.8097 15.3148C12.731 15.3461 12.6594 15.3931 12.5995 15.4531C12.5396 15.513 12.4925 15.5845 12.4613 15.6633C12.43 15.742 12.4151 15.8264 12.4175 15.9111C12.4264 16.068 12.4264 16.2253 12.4175 16.3822C12.4139 16.4649 12.4271 16.5476 12.4563 16.6251C12.4856 16.7026 12.5302 16.7734 12.5875 16.8332C12.6448 16.893 12.7136 16.9406 12.7898 16.9731C12.866 17.0056 12.948 17.0223 13.0309 17.0222C13.1998 17.0222 13.3687 17.0222 13.5375 17.0222C13.6915 17.0218 13.8418 16.9749 13.9687 16.8877C14.0956 16.8004 14.1931 16.6769 14.2487 16.5333C14.3865 16.1485 14.4142 15.7329 14.3287 15.3333L14.2931 15.2711Z" fill="#838487"/>
<path d="M20.9596 14.4089C21.1907 14.4089 21.4307 14.4089 21.6529 14.4889C21.953 14.568 22.22 14.7409 22.4151 14.9823C22.6101 15.2237 22.723 15.5211 22.7374 15.8311C22.7374 16.0356 22.7374 16.2489 22.7374 16.4622C22.7126 16.7608 22.5997 17.0452 22.4129 17.2795C22.2262 17.5137 21.974 17.6872 21.6885 17.7778C21.4128 17.8265 21.1325 17.8443 20.8529 17.8311C20.5999 17.8522 20.3453 17.8189 20.1063 17.7333C19.8765 17.6455 19.6737 17.4993 19.5178 17.3091C19.3619 17.1189 19.2584 16.8914 19.2174 16.6489C19.1192 16.2342 19.1377 15.8004 19.2707 15.3956C19.3632 15.108 19.5449 14.8573 19.7894 14.6799C20.0339 14.5025 20.3286 14.4076 20.6307 14.4089H20.9774H20.9596ZM20.9596 17.0133H21.3329C21.4719 17.015 21.6069 16.9665 21.713 16.8767C21.8191 16.7869 21.8893 16.6618 21.9107 16.5244C21.9729 16.2704 21.9729 16.0051 21.9107 15.7511C21.8827 15.6177 21.8103 15.4976 21.7054 15.4105C21.6005 15.3233 21.4692 15.2742 21.3329 15.2711C21.1018 15.2711 20.8618 15.2711 20.6307 15.2711C20.4687 15.271 20.3131 15.3342 20.1969 15.447C20.0807 15.5599 20.0131 15.7136 20.0085 15.8756C20.0085 16.0622 20.0085 16.2489 20.0085 16.4267C20.0129 16.5808 20.0762 16.7275 20.1853 16.8365C20.2943 16.9456 20.441 17.0089 20.5951 17.0133H20.9596Z" fill="#838487"/>
<path d="M18.7732 14.4267V15.2267C18.7042 15.2502 18.6325 15.2651 18.5599 15.2711C18.2932 15.2711 18.0354 15.2711 17.7687 15.2711C17.533 15.2711 17.3069 15.3647 17.1402 15.5314C16.9735 15.6981 16.8799 15.9242 16.8799 16.16V17.8311H16.1065C16.0256 16.704 16.0108 15.5732 16.0621 14.4444H16.8087L16.9243 14.64C17.4932 14.3022 18.1243 14.48 18.7732 14.4267Z" fill="#838487"/>
<path d="M27.6886 10.7644L27.7419 10.8088C27.7419 11.1288 27.7419 11.4488 27.7863 11.7688L27.8574 13.2266C27.8531 13.262 27.8531 13.2979 27.8574 13.3333L27.9374 14.5511C27.8531 14.4756 27.7729 14.3955 27.6974 14.3111L26.7374 13.0488L26.5241 12.7822H26.453C26.4212 12.8234 26.3944 12.8681 26.373 12.9155C26.2663 13.36 26.1508 13.8044 26.0441 14.2577C25.9546 14.2507 25.8656 14.2388 25.7774 14.2222L24.5508 13.7955L25.8841 12.8533C26.1097 12.7227 26.3111 12.5543 26.4797 12.3555L27.6886 10.7644Z" fill="#1A9C4C"/>
<path d="M24.5777 13.76C24.6221 13.8755 24.6577 13.9911 24.6932 14.1066L25.2799 15.7422C25.2632 15.8086 25.2424 15.8739 25.2177 15.9377L24.5243 17.5733C24.4982 17.6451 24.4803 17.7197 24.471 17.7955H24.3021C24.1866 17.4933 24.071 17.1822 23.9643 16.9066C23.9507 16.8392 23.9507 16.7697 23.9643 16.7022C23.9643 15.8133 23.9643 14.9244 24.0355 14.0355C24.0183 13.6429 24.0881 13.2513 24.2399 12.8889C24.2688 12.9587 24.3015 13.0269 24.3377 13.0933C24.3999 13.3333 24.4888 13.5377 24.5777 13.76Z" fill="#1C694F"/>
<path d="M24.5777 13.76C24.4888 13.5377 24.3999 13.3244 24.3199 13.1022C24.2838 13.0358 24.2511 12.9676 24.2222 12.8977C24.3523 12.6492 24.5534 12.445 24.7999 12.3111C25.3333 11.9289 25.8844 11.5555 26.4355 11.1822C26.5952 11.0769 26.7615 10.9819 26.9333 10.8977C27.1618 10.7665 27.4291 10.7193 27.6888 10.7644C27.2977 11.2889 26.9066 11.8044 26.5066 12.32C26.3357 12.5163 26.1346 12.6843 25.9111 12.8177L24.5777 13.76Z" fill="#DAE046"/>
<path d="M28.053 16.5955C27.7775 16.7289 27.5108 16.8711 27.2352 16.9955L25.4575 17.7689C25.3421 17.8284 25.2139 17.8589 25.0841 17.8578H24.5063L24.6841 17.6711L26.0263 16.4267L27.253 15.2533L27.3863 15.1644L27.6619 15.7867L28.053 16.5955Z" fill="#DAE046"/>
<path d="M27.9466 14.5511L27.8577 13.3333V13.2267L27.7866 11.7689C27.7866 11.4489 27.7866 11.1289 27.7422 10.8089C27.8392 10.8187 27.9331 10.8492 28.0174 10.8983C28.1017 10.9473 28.1746 11.0138 28.2311 11.0933C28.6601 11.6702 28.9933 12.3126 29.2177 12.9956C29.2622 13.1111 29.2889 13.2267 29.3244 13.3333L29.2177 13.4045L28.1866 14.3822C28.1137 14.4521 28.0365 14.5174 27.9555 14.5778L27.9466 14.5511Z" fill="#AFE1F5"/>
<path d="M28.0529 16.5955L27.6885 15.7689L27.4129 15.1466L27.2885 15.2355L26.0529 16.4089L24.7107 17.6533L24.5329 17.84H24.4707C24.48 17.7641 24.4979 17.6896 24.524 17.6178L25.2174 16C25.2421 15.9361 25.2629 15.8708 25.2796 15.8044L26.2663 15.2266L27.1551 14.7022C27.2707 14.7022 27.2707 14.8178 27.3063 14.8889L27.3951 15.1022L27.9285 14.6489C27.9285 14.8355 27.9285 15.0133 27.9818 15.1911C27.9818 15.6622 27.9818 16.1333 28.0351 16.5955H28.0529Z" fill="#1A9C4C"/>
<path d="M9.56442 20.5866C9.44887 20.8 9.3422 21.0222 9.22664 21.2444H8.93331L8.59553 20.5866C8.53679 20.6921 8.5149 20.8141 8.53331 20.9333C8.53331 21.0489 8.53331 21.1733 8.53331 21.2978V21.6711H8.08887V19.5555C8.22936 19.5241 8.37505 19.5241 8.51553 19.5555L9.07553 20.6933C9.29776 20.3111 9.44887 19.92 9.63553 19.5555H10.0622V21.7422H9.64442C9.64442 21.3778 9.64442 21.0133 9.64442 20.6578L9.56442 20.5866Z" fill="#238845"/>
<path d="M28.053 16.5778C28.053 16.1155 28.053 15.6889 27.9996 15.1733C27.9996 14.9955 27.9996 14.8178 27.9463 14.6311V14.5778C28.0263 14.5066 28.1063 14.4533 28.1774 14.3822L29.2085 13.4044C29.2441 13.3716 29.2866 13.3473 29.333 13.3333C29.333 13.8044 29.333 14.2666 29.333 14.7289C29.3317 15.1999 29.1541 15.6534 28.8352 16C28.627 16.2551 28.358 16.4538 28.053 16.5778Z" fill="#1C694F"/>
<path d="M12.773 20.7288V19.4933H13.2174V21.68H12.8174L11.973 20.3822V21.68H11.5552V19.5022H11.9552L12.7552 20.7288H12.773Z" fill="#2F8848"/>
<path d="M15.5732 21.68V19.5555C15.6322 19.5469 15.6921 19.5469 15.751 19.5555C15.991 19.5555 16.2399 19.5555 16.4888 19.5555C16.6379 19.5489 16.7848 19.5939 16.9046 19.683C17.0245 19.7721 17.1099 19.8997 17.1466 20.0444C17.1926 20.181 17.1883 20.3294 17.1345 20.463C17.0807 20.5967 16.981 20.7067 16.8532 20.7733C16.8282 20.7893 16.807 20.8105 16.791 20.8355C16.9421 21.1289 17.1021 21.4311 17.2621 21.7244H16.7466L16.3199 20.8355H16.0444V21.68C15.8889 21.7111 15.7287 21.7111 15.5732 21.68ZM15.9999 20.4444C16.1479 20.4535 16.2963 20.4535 16.4444 20.4444C16.4794 20.4422 16.5137 20.433 16.5452 20.4175C16.5766 20.402 16.6048 20.3804 16.6279 20.3539C16.651 20.3275 16.6687 20.2968 16.6799 20.2635C16.6911 20.2302 16.6957 20.195 16.6932 20.16C16.6932 20.094 16.667 20.0307 16.6203 19.984C16.5737 19.9373 16.5104 19.9111 16.4444 19.9111H15.9999V20.4444Z" fill="#2F8848"/>
<path d="M15.1821 19.5022V19.8844H14.2221C14.2044 20.0469 14.2044 20.2108 14.2221 20.3733H15.111V20.7822H14.2221V21.2711H15.111C15.1428 21.4055 15.1428 21.5455 15.111 21.68H13.751C13.7074 20.9547 13.7074 20.2275 13.751 19.5022H15.1821Z" fill="#2F8848"/>
<path d="M18.1599 19.4844H18.5154C18.7732 20.2044 19.0399 20.9333 19.3154 21.68H18.8532L18.711 21.3244H17.9643L17.8132 21.68H17.3599L18.1599 19.4844ZM18.3643 20.2222H18.3199C18.2399 20.4355 18.1688 20.6489 18.0888 20.88H18.5954L18.3643 20.2222Z" fill="#2F8848"/>
<path d="M21.1641 21.4133L21.4396 21.1378C21.5564 21.2348 21.7005 21.2929 21.8519 21.3041C22.0033 21.3152 22.1544 21.2789 22.2841 21.2C22.373 20.9156 22.2841 20.8267 22.0441 20.7911L21.733 20.7378C21.5968 20.721 21.4711 20.6563 21.3783 20.5554C21.2855 20.4544 21.2316 20.3237 21.2263 20.1867C21.2174 20.056 21.2473 19.9256 21.3121 19.8118C21.3769 19.698 21.4738 19.6057 21.5907 19.5467C21.7752 19.4605 21.9812 19.4314 22.1823 19.4631C22.3835 19.4947 22.5706 19.5858 22.7196 19.7244L22.4707 19.9644C22.3138 19.9162 22.1533 19.8806 21.9907 19.8578C21.915 19.8564 21.8405 19.8781 21.7774 19.92C21.7397 19.9424 21.7094 19.9754 21.6904 20.015C21.6714 20.0545 21.6646 20.0988 21.6707 20.1422C21.6727 20.1873 21.6908 20.2301 21.7219 20.2627C21.7529 20.2954 21.7947 20.3158 21.8396 20.32C21.9593 20.3501 22.0812 20.3709 22.2041 20.3822C22.3049 20.3904 22.4023 20.4226 22.4881 20.4763C22.5739 20.5299 22.6455 20.6035 22.6969 20.6906C22.7483 20.7777 22.778 20.876 22.7835 20.977C22.789 21.078 22.7702 21.1789 22.7285 21.2711C22.6662 21.4165 22.5522 21.5337 22.4085 21.6C22.2039 21.6861 21.9796 21.7143 21.7601 21.6814C21.5406 21.6484 21.3344 21.5557 21.1641 21.4133Z" fill="#2B8947"/>
<path d="M20.0174 21.28H21.0041V21.6711H19.5552V19.4933H19.9907L20.0174 21.28Z" fill="#2B8947"/>
<path d="M11.0043 19.4933H10.5776V21.68H11.0043V19.4933Z" fill="#2F8848"/>
<path d="M26.2665 15.2089L25.2799 15.7867L24.6932 14.1511C24.6932 14.0356 24.6221 13.92 24.5776 13.8044L25.7776 14.2222C25.8604 14.2307 25.9438 14.2307 26.0265 14.2222V14.2667C26.0227 14.317 26.0227 14.3675 26.0265 14.4178C26.1332 14.7111 26.2043 14.96 26.2665 15.2089Z" fill="#AFE1F5"/>
<path d="M27.9553 14.5777V14.64L27.422 15.0844L27.3331 14.88C27.3331 14.8 27.3331 14.7022 27.182 14.6844C27.0309 14.6666 27.182 14.6133 27.182 14.5955C27.0576 14.2933 26.9242 14 26.7998 13.7066L26.4531 12.8177H26.5242L26.7376 13.0755L27.6976 14.3377C27.7731 14.4221 27.8532 14.5023 27.9376 14.5777H27.9553Z" fill="#DAE046"/>
<path d="M26.4621 12.8089L26.8088 13.6978L26.0532 14.32V14.2756C26.1599 13.8311 26.2666 13.3867 26.3821 12.9333C26.4056 12.8899 26.4323 12.8483 26.4621 12.8089Z" fill="#1C694F"/>
</g>
<defs>
<clipPath id="clip0_2707_377268">
<rect width="32" height="32" fill="white"/>
</clipPath>
</defs>
</svg>
