<svg width="32" height="32" viewBox="0 0 32 32" fill="none" xmlns="http://www.w3.org/2000/svg">
<g clip-path="url(#clip0_2707_376763)">
<path d="M15.9998 31.9823C24.8265 31.9823 31.982 24.8268 31.982 16C31.982 7.17331 24.8265 0.0178223 15.9998 0.0178223C7.17306 0.0178223 0.0175781 7.17331 0.0175781 16C0.0175781 24.8268 7.17306 31.9823 15.9998 31.9823Z" fill="white"/>
<path d="M3.2801 16.7468L3.9201 16.0001C3.93389 15.9828 3.95152 15.969 3.97157 15.9598C3.99163 15.9505 4.01357 15.9461 4.03565 15.9468H6.75565C6.77851 15.9378 6.8039 15.9378 6.82676 15.9468C6.85403 16.004 6.8937 16.0544 6.94291 16.0944C6.99211 16.1344 7.0496 16.1629 7.11121 16.1779C7.20502 16.2126 7.30523 16.2266 7.40496 16.2189C7.50469 16.2112 7.60158 16.1821 7.68898 16.1334C7.75121 16.1334 7.78676 16.0445 7.8401 15.9912C7.8635 15.9859 7.8878 15.9859 7.91121 15.9912H8.69343C8.73787 15.9912 8.74676 15.9912 8.74676 16.0445V16.8801C8.74676 16.8801 8.74676 16.9423 8.69343 16.9423H7.9201C7.89723 16.9334 7.87185 16.9334 7.84898 16.9423C7.76018 17.0481 7.63783 17.1202 7.50232 17.1468C7.39271 17.1719 7.2786 17.1696 7.17008 17.1402C7.06155 17.1107 6.96196 17.055 6.8801 16.9779C6.8466 16.9552 6.81914 16.9247 6.8001 16.889H6.7201H3.39565H3.20898L3.2801 16.7468Z" fill="#01154C"/>
<path d="M16.8089 15.1734L17.0578 14.7645L17.44 14.1601C17.4489 14.1423 17.4631 14.1277 17.4805 14.1181C17.498 14.1086 17.518 14.1046 17.5378 14.1068H18.1955L18.1244 14.2134C18.1158 14.2485 18.1158 14.2851 18.1244 14.3201V16.489C18.1165 16.5181 18.1165 16.5488 18.1244 16.5779V16.6401H18.0622H17.4578H17.3955C17.3926 16.6195 17.3926 16.5985 17.3955 16.5779C17.4139 16.5634 17.4278 16.544 17.4356 16.522C17.4435 16.5 17.445 16.4762 17.44 16.4534V15.1112C17.4454 15.0969 17.4454 15.0811 17.44 15.0668L16.7289 16.1334L16.0266 15.0756C16.0235 15.0963 16.0235 15.1172 16.0266 15.1379V16.5245C16.0151 16.5561 16.0151 16.5907 16.0266 16.6223C16.0327 16.6396 16.0327 16.6584 16.0266 16.6756H15.9822H15.36H15.3066C15.3066 16.6756 15.3066 16.6756 15.3066 16.6223C15.328 16.604 15.3442 16.5804 15.3536 16.5539C15.363 16.5274 15.3652 16.4989 15.36 16.4712V14.2845C15.36 14.2845 15.36 14.2134 15.3066 14.1779V14.1245H15.36H15.9555C15.9751 14.1236 15.9945 14.1293 16.0106 14.1405C16.0266 14.1518 16.0386 14.168 16.0444 14.1868C16.24 14.4979 16.4355 14.809 16.6222 15.0756L16.8089 15.1734Z" fill="#444445"/>
<path d="M5.89359 14.7912H6.78248C6.80267 14.7844 6.82451 14.7844 6.8447 14.7912C6.90969 14.8996 7.00797 14.9842 7.12489 15.0322C7.24182 15.0803 7.37114 15.0893 7.49359 15.0579C7.56855 15.0519 7.64093 15.0277 7.70444 14.9875C7.76795 14.9472 7.82067 14.892 7.85803 14.8268H7.91137H8.72026H8.7647V15.7157C8.7647 15.7601 8.7647 15.769 8.71137 15.769H7.85803C7.8416 15.7658 7.82457 15.7685 7.80993 15.7766C7.7953 15.7848 7.784 15.7978 7.77803 15.8134C7.75942 15.853 7.7322 15.8879 7.69837 15.9156C7.66453 15.9433 7.62494 15.963 7.58248 15.9734C7.49948 16.0084 7.41032 16.0264 7.32026 16.0264C7.23019 16.0264 7.14104 16.0084 7.05803 15.9734C6.99649 15.9325 6.94237 15.8814 6.89803 15.8223C6.89122 15.8067 6.88005 15.7934 6.86587 15.7839C6.85168 15.7745 6.83508 15.7693 6.81803 15.769H4.15137V15.7245L4.93359 14.8357C4.94434 14.8179 4.96047 14.804 4.97965 14.796C4.99883 14.788 5.02006 14.7863 5.04026 14.7912H5.89359Z" fill="#02154D"/>
<path d="M26.0884 15.3779C26.0972 15.6508 26.0235 15.92 25.8771 16.1505C25.7307 16.381 25.5182 16.5621 25.2675 16.6702C25.0167 16.7783 24.7392 16.8084 24.4711 16.7566C24.203 16.7048 23.9567 16.5734 23.7642 16.3797C23.5718 16.1859 23.4421 15.9387 23.3921 15.6703C23.3421 15.4018 23.3741 15.1245 23.4839 14.8745C23.5937 14.6245 23.7762 14.4133 24.0077 14.2684C24.2392 14.1235 24.5089 14.0517 24.7818 14.0623C25.1291 14.0646 25.4615 14.2043 25.7063 14.4507C25.9511 14.6972 26.0885 15.0305 26.0884 15.3779ZM24.7284 16.169C24.8307 16.1702 24.9321 16.1507 25.0266 16.1116C25.1211 16.0726 25.2067 16.0147 25.2782 15.9416C25.3496 15.8684 25.4055 15.7815 25.4424 15.6862C25.4793 15.5908 25.4965 15.4889 25.4929 15.3867C25.4965 15.2834 25.4791 15.1804 25.4418 15.0839C25.4044 14.9875 25.3479 14.8996 25.2756 14.8257C25.2033 14.7517 25.1167 14.6932 25.0211 14.6536C24.9256 14.6141 24.823 14.5944 24.7196 14.5956C24.6177 14.5943 24.5166 14.6138 24.4226 14.653C24.3286 14.6922 24.2435 14.7502 24.1728 14.8235C24.102 14.8968 24.047 14.9838 24.0111 15.0791C23.9752 15.1744 23.9591 15.2761 23.964 15.3779C23.9591 15.4808 23.9754 15.5836 24.0117 15.68C24.0481 15.7764 24.1038 15.8644 24.1754 15.9385C24.247 16.0126 24.333 16.0713 24.4281 16.1109C24.5232 16.1505 24.6254 16.1703 24.7284 16.169Z" fill="#444445"/>
<path d="M26.5065 14.1156H27.7865C28.0244 14.1042 28.2583 14.1801 28.4442 14.329C28.5299 14.4024 28.5982 14.4939 28.6443 14.5968C28.6904 14.6998 28.7132 14.8117 28.7109 14.9245C28.728 15.0998 28.6867 15.2759 28.5935 15.4254C28.5003 15.5748 28.3603 15.6894 28.1953 15.7512L28.8087 16.6401H28.1242C28.1242 16.6401 28.0442 16.6401 28.0798 16.5778C28.1153 16.5156 28.0798 16.5778 28.0798 16.5334C27.9287 16.3112 27.7865 16.089 27.6353 15.8756C27.6266 15.8622 27.6148 15.8512 27.6009 15.8435C27.5869 15.8357 27.5713 15.8315 27.5553 15.8312H27.1998C27.1998 15.8312 27.1465 15.8312 27.1465 15.8756V16.489C27.1465 16.489 27.1465 16.5423 27.1998 16.569C27.2531 16.5956 27.1998 16.569 27.1998 16.6223H27.1553H26.5509H26.5065C26.5114 16.5929 26.5114 16.5628 26.5065 16.5334V14.3201C26.5065 14.2667 26.5065 14.2045 26.4531 14.169C26.4749 14.1557 26.4932 14.1374 26.5065 14.1156ZM27.1553 15.3334H27.5553H27.8665C27.9299 15.3258 27.9897 15.2999 28.0386 15.2588C28.0876 15.2178 28.1235 15.1634 28.142 15.1023C28.142 14.9156 28.142 14.809 28.0176 14.7112C27.919 14.6588 27.8092 14.6314 27.6976 14.6312H27.2265C27.1731 14.6312 27.1642 14.6312 27.1642 14.6934V15.2801C27.1642 15.2801 27.1553 15.3156 27.1553 15.3334Z" fill="#434344"/>
<path d="M20.124 15.5822L19.8128 14.8089L19.724 15.0044C19.5373 15.4755 19.3417 15.9467 19.1462 16.4178L19.0928 16.5422C19.0825 16.577 19.0825 16.6141 19.0928 16.6489H18.444H18.3906L18.4884 16.5067C18.7728 15.8489 19.0573 15.1911 19.3328 14.5333C19.3708 14.4587 19.4035 14.3815 19.4306 14.3022C19.437 14.2883 19.4403 14.2731 19.4403 14.2578C19.4403 14.2424 19.437 14.2273 19.4306 14.2133C19.4306 14.16 19.4306 14.1422 19.4751 14.1422H19.9995C20.0131 14.1461 20.0257 14.1528 20.0365 14.162C20.0472 14.1713 20.0558 14.1827 20.0617 14.1955C20.3017 14.7378 20.5328 15.2711 20.764 15.8133L21.0573 16.5244C21.0742 16.5761 21.1088 16.6202 21.1551 16.6489H21.1106H20.4973C20.4973 16.6489 20.4351 16.6489 20.4973 16.5955C20.502 16.5859 20.5045 16.5752 20.5045 16.5644C20.5045 16.5537 20.502 16.543 20.4973 16.5333L20.3373 16.1333C20.3331 16.116 20.3225 16.101 20.3077 16.0911C20.2929 16.0812 20.2749 16.0773 20.2573 16.08H19.4306C19.3595 16.08 19.3595 16.08 19.3862 16.0089C19.4128 15.9378 19.484 15.7511 19.5284 15.6178C19.5728 15.4844 19.5728 15.6178 19.6084 15.6178H20.1062L20.124 15.5822Z" fill="#444445"/>
<path d="M13.333 16.0889C13.333 16.0267 13.3774 15.9733 13.3952 15.92C13.413 15.8667 13.4752 15.7333 13.5107 15.6267C13.5463 15.52 13.5107 15.6267 13.573 15.6267H14.0796L13.7596 14.8622L13.5374 15.4044C13.3952 15.7333 13.2619 16.0711 13.1285 16.4L13.0485 16.5867C13.0442 16.6102 13.0442 16.6343 13.0485 16.6578V16.7111H12.4441C12.4441 16.7111 12.4441 16.7111 12.3996 16.7111C12.3552 16.7111 12.3996 16.7111 12.3996 16.7111C12.4285 16.6933 12.4535 16.6701 12.4733 16.6426C12.4932 16.6152 12.5074 16.5841 12.5152 16.5511L13.1641 15.04L13.4574 14.3467C13.4638 14.3327 13.4671 14.3176 13.4671 14.3022C13.4671 14.2869 13.4638 14.2717 13.4574 14.2578C13.4574 14.2044 13.4574 14.1956 13.4574 14.1956H13.9819C13.9963 14.1972 14.0101 14.2021 14.0224 14.2098C14.0347 14.2175 14.0452 14.2278 14.053 14.24L14.4974 15.2889L14.9685 16.3822C14.9989 16.4428 15.0256 16.5051 15.0485 16.5689C15.0677 16.6218 15.1016 16.6681 15.1463 16.7022H15.1019H14.4974C14.453 16.7022 14.4174 16.7022 14.4974 16.64C14.5021 16.6319 14.5046 16.6227 14.5046 16.6133C14.5046 16.604 14.5021 16.5948 14.4974 16.5867L14.3374 16.1778C14.3253 16.1708 14.3115 16.1671 14.2974 16.1671C14.2834 16.1671 14.2696 16.1708 14.2574 16.1778H13.333V16.0889Z" fill="#444445"/>
<path d="M12.1777 14.3645L11.8311 14.8623C11.7359 14.7475 11.604 14.6691 11.4577 14.6401C11.3389 14.6043 11.2121 14.6043 11.0933 14.6401C11.0398 14.6446 10.99 14.669 10.9538 14.7085C10.9176 14.7481 10.8975 14.7998 10.8977 14.8534C10.8982 14.8854 10.9088 14.9163 10.9279 14.9419C10.9471 14.9674 10.9739 14.9863 11.0044 14.9957C11.1195 15.0464 11.2384 15.088 11.36 15.1201C11.58 15.1671 11.7904 15.2513 11.9822 15.369C12.0872 15.4455 12.1675 15.5511 12.2133 15.6727C12.2591 15.7943 12.2684 15.9266 12.24 16.0534C12.2096 16.2296 12.1199 16.3901 11.9857 16.5082C11.8514 16.6262 11.6808 16.6948 11.5022 16.7023C11.0856 16.7539 10.6652 16.6424 10.3288 16.3912H10.2577H10.1777L10.5866 15.8934C10.644 15.9792 10.7187 16.0521 10.806 16.1072C10.8933 16.1623 10.9911 16.1985 11.0933 16.2134C11.2396 16.2671 11.4003 16.2671 11.5466 16.2134C11.583 16.1989 11.6147 16.1746 11.6383 16.1433C11.6618 16.1119 11.6762 16.0747 11.68 16.0357C11.6849 15.9949 11.6762 15.9536 11.6553 15.9183C11.6345 15.8829 11.6025 15.8554 11.5644 15.8401L11.0844 15.6801C10.8972 15.6395 10.7193 15.5641 10.56 15.4579C10.498 15.4095 10.4464 15.3491 10.4082 15.2804C10.3701 15.2117 10.3461 15.136 10.3377 15.0579C10.3015 14.882 10.3299 14.699 10.4177 14.5423C10.4874 14.4267 10.5849 14.3303 10.7013 14.262C10.8178 14.1937 10.9495 14.1556 11.0844 14.1512C11.4312 14.1135 11.7803 14.1984 12.0711 14.3912L12.1777 14.3645Z" fill="#444445"/>
<path d="M5.08398 14.6578L5.33287 14.3645L5.81287 13.8134C5.82739 13.8038 5.84438 13.7987 5.86176 13.7987C5.87914 13.7987 5.89614 13.8038 5.91065 13.8134H6.7551C6.77796 13.8044 6.80334 13.8044 6.82621 13.8134C6.873 13.8845 6.93615 13.9434 7.01038 13.9852C7.08461 14.027 7.16776 14.0503 7.25287 14.0534C7.43602 14.083 7.62358 14.0417 7.77732 13.9378L7.83065 13.8845C7.83065 13.8134 7.92843 13.8134 7.99954 13.8134H8.68398C8.72843 13.8134 8.74621 13.8134 8.74621 13.8667V14.6489C8.74621 14.6934 8.74621 14.7111 8.68398 14.7111H7.84843C7.83585 14.7055 7.82222 14.7026 7.80843 14.7026C7.79464 14.7026 7.78101 14.7055 7.76843 14.7111C7.73387 14.7728 7.68358 14.8242 7.62268 14.8601C7.56178 14.896 7.49246 14.9152 7.42176 14.9156C7.34654 14.9298 7.26906 14.9268 7.19516 14.9068C7.12126 14.8868 7.05286 14.8503 6.9951 14.8C6.96289 14.769 6.93588 14.733 6.9151 14.6934C6.90588 14.6763 6.89133 14.6627 6.87368 14.6547C6.85603 14.6467 6.83623 14.6446 6.81732 14.6489H5.08398V14.6578Z" fill="#02154C"/>
<path d="M21.8223 14.64H21.1112C21.0578 14.64 21.04 14.64 21.04 14.5689C21.049 14.4802 21.049 14.3909 21.04 14.3022C21.0494 14.2553 21.0494 14.207 21.04 14.16V14.1067H23.1823C23.2534 14.1067 23.2623 14.1067 23.2356 14.1778C23.2313 14.2281 23.2313 14.2786 23.2356 14.3289V14.64H22.4V16.4178C22.3949 16.4455 22.3971 16.474 22.4064 16.5005C22.4158 16.527 22.432 16.5506 22.4534 16.5689C22.4572 16.5865 22.4572 16.6047 22.4534 16.6222H22.4089H21.7956H21.7423V16.5689C21.7473 16.5365 21.7473 16.5035 21.7423 16.4711V14.64H21.8223Z" fill="#444445"/>
<path d="M13.8664 19.0312C13.7598 19.0312 13.662 19.0312 13.5553 19.0312C13.4487 19.0312 13.4753 19.0312 13.4753 18.9423C13.4753 18.8534 13.4753 18.8534 13.5553 18.8534H13.9998C14.0709 18.8534 14.0975 18.8534 14.0975 18.9512V19.4401C14.1002 19.4506 14.1006 19.4615 14.0989 19.4722C14.0971 19.4829 14.0932 19.4932 14.0874 19.5023C14.0816 19.5115 14.074 19.5193 14.065 19.5254C14.0561 19.5315 14.046 19.5358 14.0353 19.5379C13.903 19.5992 13.7589 19.6309 13.6131 19.6309C13.4673 19.6309 13.3232 19.5992 13.1909 19.5379C13.0685 19.477 12.9689 19.3786 12.9065 19.2571C12.8442 19.1355 12.8223 18.9972 12.8442 18.8623C12.8568 18.6952 12.9294 18.5384 13.0487 18.4207C13.168 18.3031 13.3259 18.2326 13.4931 18.2223C13.6767 18.1986 13.8632 18.2327 14.0264 18.3201C14.0409 18.324 14.0544 18.331 14.066 18.3405C14.0776 18.35 14.0871 18.3619 14.0938 18.3753C14.1005 18.3887 14.1043 18.4034 14.1049 18.4184C14.1056 18.4334 14.1031 18.4484 14.0975 18.4623C14.0975 18.5334 14.0975 18.5423 13.9998 18.4623C13.867 18.3877 13.7164 18.3508 13.5642 18.3556C13.4561 18.3604 13.3525 18.4003 13.2691 18.4693C13.1857 18.5383 13.127 18.6326 13.102 18.7379C13.0711 18.8488 13.0769 18.9667 13.1185 19.0741C13.1602 19.1814 13.2354 19.2724 13.3331 19.3334C13.4113 19.3688 13.4962 19.387 13.582 19.387C13.6678 19.387 13.7527 19.3688 13.8309 19.3334C13.8363 19.3191 13.8363 19.3033 13.8309 19.289L13.8664 19.0312Z" fill="#030303"/>
<path d="M6.87946 19.2623H6.62169C6.60661 19.2621 6.592 19.2674 6.58056 19.2772C6.56911 19.287 6.56162 19.3007 6.55946 19.3156C6.55946 19.3956 6.49724 19.4667 6.47058 19.5467C6.46453 19.5702 6.45067 19.5909 6.43128 19.6054C6.41189 19.62 6.38813 19.6275 6.36391 19.6267C6.2128 19.6267 6.20391 19.6267 6.25724 19.4756L6.72835 18.3289C6.72935 18.3164 6.73301 18.3041 6.7391 18.2931C6.74518 18.282 6.75354 18.2724 6.76363 18.2648C6.77372 18.2573 6.7853 18.2519 6.79761 18.2492C6.80992 18.2465 6.82267 18.2464 6.83502 18.2489H6.88835C7.0128 18.2489 7.02169 18.2489 7.06613 18.3645L7.52835 19.5556C7.52835 19.6445 7.52835 19.6623 7.45724 19.6623H7.38613C7.36621 19.665 7.346 19.66 7.32953 19.6485C7.31306 19.637 7.30153 19.6197 7.29724 19.6C7.27005 19.5151 7.23738 19.4319 7.19947 19.3511C7.19335 19.331 7.18184 19.3129 7.16617 19.2988C7.15051 19.2847 7.13128 19.2751 7.11058 19.2711L6.87946 19.2623ZM6.87946 18.48C6.79946 18.6934 6.71946 18.8889 6.63946 19.0934H7.11058L6.87946 18.48Z" fill="#030303"/>
<path d="M19.5993 18.6667V18.1956C19.5993 18.1423 19.5993 18.1156 19.6704 18.1156H19.7238C19.8126 18.1156 19.8215 18.1156 19.8215 18.2223V19.5556C19.8215 19.6445 19.8215 19.6534 19.7415 19.6623C19.6615 19.6712 19.626 19.6623 19.6171 19.5556H19.5549C19.4509 19.6348 19.32 19.6699 19.1904 19.6534C19.1135 19.6492 19.0397 19.6214 18.9792 19.5736C18.9188 19.5259 18.8745 19.4606 18.8526 19.3867C18.7991 19.2342 18.7991 19.0681 18.8526 18.9156C18.8812 18.8249 18.938 18.7458 19.0148 18.6898C19.0916 18.6338 19.1843 18.6039 19.2793 18.6045C19.3758 18.5883 19.4747 18.6107 19.5549 18.6667C19.5697 18.6657 19.5845 18.6657 19.5993 18.6667ZM19.5993 19.0756V18.9245C19.5553 18.8758 19.5044 18.8339 19.4482 18.8C19.4101 18.7924 19.3708 18.7924 19.3326 18.8C19.2823 18.8001 19.2333 18.8167 19.1932 18.8472C19.153 18.8776 19.124 18.9204 19.1104 18.9689C19.0657 19.0955 19.0657 19.2335 19.1104 19.36C19.1249 19.4079 19.1564 19.4488 19.199 19.475C19.2416 19.5012 19.2923 19.5109 19.3415 19.5023C19.3906 19.4971 19.4381 19.4818 19.4809 19.4574C19.5238 19.4329 19.5611 19.3997 19.5904 19.36C19.5904 19.36 19.5904 19.2623 19.5904 19.2089L19.5993 19.0756Z" fill="#030303"/>
<path d="M26.3999 19.5022C26.3999 19.6178 26.3377 19.6533 26.231 19.6178C26.1243 19.5822 26.231 19.5645 26.231 19.5467C26.231 19.1645 26.231 18.7911 26.231 18.4089V18.2133C26.231 18.2133 26.231 18.1511 26.2754 18.1511C26.4177 18.1511 26.4266 18.1511 26.4266 18.2845V18.7111L26.5066 18.6578C26.5661 18.614 26.6359 18.5864 26.7093 18.5777C26.7827 18.5689 26.857 18.5794 26.9251 18.6081C26.9932 18.6368 27.0527 18.6827 27.0978 18.7412C27.1428 18.7998 27.1719 18.8691 27.1821 18.9422C27.2176 19.0732 27.2176 19.2113 27.1821 19.3422C27.1525 19.4298 27.0964 19.506 27.0215 19.5601C26.9467 19.6143 26.8568 19.6438 26.7643 19.6445C26.6794 19.6428 26.5965 19.6183 26.5243 19.5733L26.3999 19.5022ZM26.3999 19.1111V19.2533C26.3953 19.2738 26.3953 19.2951 26.3999 19.3156C26.434 19.3556 26.4728 19.3914 26.5154 19.4222C26.5463 19.4455 26.5824 19.4606 26.6206 19.4663C26.6587 19.4719 26.6977 19.468 26.7339 19.4547C26.7702 19.4414 26.8025 19.4193 26.828 19.3904C26.8535 19.3614 26.8713 19.3265 26.8799 19.2889C26.9289 19.1662 26.9289 19.0294 26.8799 18.9067C26.8697 18.8716 26.8503 18.84 26.8237 18.815C26.7971 18.79 26.7644 18.7725 26.7288 18.7645C26.6812 18.7592 26.6331 18.7635 26.5873 18.7773C26.5415 18.791 26.4989 18.8139 26.4621 18.8445C26.4273 18.8644 26.3998 18.8951 26.3838 18.932C26.3678 18.9688 26.3641 19.0098 26.3732 19.0489V19.1111H26.3999Z" fill="#020202"/>
<path d="M3.68892 19.1023V19.5556C3.68892 19.6179 3.68892 19.6356 3.61781 19.6356C3.47559 19.6356 3.47559 19.6356 3.47559 19.5112V18.3556C3.47559 18.2756 3.47559 18.249 3.59114 18.249C3.74805 18.2399 3.90535 18.2399 4.06225 18.249C4.15622 18.2507 4.24623 18.2871 4.3151 18.351C4.38397 18.415 4.42686 18.5021 4.43559 18.5956C4.44597 18.6946 4.42144 18.794 4.36626 18.8768C4.31107 18.9596 4.22869 19.0205 4.13336 19.049C4.04769 19.0582 3.96126 19.0582 3.87559 19.049C3.81511 19.0724 3.75263 19.0902 3.68892 19.1023ZM3.68892 18.9423H3.95559C3.98804 18.9391 4.01949 18.9292 4.04802 18.9134C4.07655 18.8976 4.10156 18.8762 4.12152 18.8504C4.14149 18.8246 4.15599 18.795 4.16413 18.7635C4.17228 18.7319 4.17391 18.699 4.16892 18.6667C4.17413 18.6105 4.15773 18.5544 4.12306 18.5098C4.08838 18.4652 4.03804 18.4355 3.98225 18.4267H3.68892V18.9423Z" fill="#040404"/>
<path d="M10.4087 18.9956L10.6309 18.7823C10.6708 18.7513 10.7067 18.7155 10.7376 18.6756C10.7652 18.6427 10.8016 18.6185 10.8426 18.6059C10.8837 18.5933 10.9274 18.5928 10.9687 18.6045H11.0309C11.0399 18.6274 11.0399 18.6528 11.0309 18.6756L10.8532 18.8356L10.6576 19.0134L11.0398 19.449C11.064 19.4856 11.0848 19.5242 11.1021 19.5645C11.0607 19.5687 11.019 19.5687 10.9776 19.5645C10.9479 19.5685 10.9176 19.5649 10.8896 19.554C10.8616 19.5431 10.8369 19.5253 10.8176 19.5023C10.7021 19.3512 10.5687 19.209 10.4443 19.049C10.4443 19.049 10.4443 19.0934 10.4443 19.1112V19.5556V19.609C10.3883 19.6178 10.3313 19.6178 10.2754 19.609C10.2754 19.609 10.2754 19.609 10.2754 19.5556V18.2134C10.3313 18.2046 10.3883 18.2046 10.4443 18.2134C10.4443 18.2134 10.4443 18.2134 10.4443 18.2756L10.4087 18.9956Z" fill="#020202"/>
<path d="M27.6972 19.0044L28.0261 18.6578C28.0564 18.6262 28.0954 18.6044 28.1381 18.5949C28.1808 18.5854 28.2253 18.5887 28.2661 18.6044C28.3195 18.6044 28.3106 18.6578 28.2661 18.6844C28.2318 18.7217 28.193 18.7545 28.1506 18.7822L27.875 19.0311L28.2661 19.4844C28.2888 19.5141 28.3068 19.5471 28.3195 19.5822H28.2128C28.1786 19.5876 28.1435 19.583 28.112 19.5688C28.0804 19.5545 28.0536 19.5314 28.035 19.5022L27.6617 19.0667C27.6632 19.0844 27.6632 19.1022 27.6617 19.12V19.5555C27.6617 19.6089 27.6617 19.6267 27.5995 19.6267C27.5372 19.6267 27.4395 19.6267 27.4395 19.4844V18.2222C27.4395 18.16 27.4395 18.1422 27.5283 18.1422C27.6172 18.1422 27.6617 18.1422 27.6617 18.2844V18.9867L27.6972 19.0044Z" fill="#040404"/>
<path d="M9.16404 19.1556C9.15904 19.1939 9.16216 19.2328 9.17319 19.2698C9.18422 19.3069 9.20291 19.3412 9.22806 19.3705C9.25321 19.3999 9.28425 19.4236 9.31916 19.4401C9.35407 19.4567 9.39207 19.4657 9.4307 19.4667C9.54879 19.475 9.66726 19.4568 9.77737 19.4133C9.77737 19.4133 9.84848 19.4133 9.87515 19.4133C9.90182 19.4133 9.87515 19.5378 9.87515 19.5467C9.76817 19.5973 9.65128 19.6236 9.53293 19.6236C9.41457 19.6236 9.29769 19.5973 9.1907 19.5467C9.14631 19.5217 9.10709 19.4885 9.07515 19.4489C8.99817 19.3352 8.96158 19.1989 8.97125 19.0619C8.98092 18.9249 9.03629 18.7951 9.12848 18.6933C9.22151 18.6244 9.33312 18.585 9.44883 18.5802C9.56453 18.5754 9.679 18.6056 9.77737 18.6667C9.82841 18.717 9.86703 18.7786 9.89018 18.8465C9.91332 18.9144 9.92035 18.9867 9.9107 19.0578C9.9107 19.12 9.85737 19.1289 9.80404 19.1289H9.15515L9.16404 19.1556ZM9.69737 18.9956C9.70025 18.9614 9.69549 18.927 9.68342 18.8948C9.67135 18.8627 9.65229 18.8337 9.62761 18.8099C9.60292 18.786 9.57325 18.768 9.54073 18.7571C9.50821 18.7461 9.47366 18.7426 9.43959 18.7467C9.37184 18.7465 9.30658 18.7722 9.25705 18.8184C9.20752 18.8646 9.17744 18.928 9.17293 18.9956H9.69737Z" fill="#040404"/>
<path d="M15.031 19.5556C14.9633 19.6032 14.8856 19.6344 14.8038 19.6467C14.722 19.659 14.6385 19.6522 14.5599 19.6267C14.5033 19.6132 14.4527 19.5816 14.4158 19.5366C14.3789 19.4917 14.3577 19.4359 14.3554 19.3778C14.3462 19.317 14.3591 19.2549 14.3917 19.2027C14.4243 19.1506 14.4745 19.1118 14.5332 19.0934C14.6439 19.0633 14.7569 19.0425 14.871 19.0312H15.0132C15.0132 18.8178 14.9243 18.729 14.7021 18.7734L14.5154 18.8445C14.5154 18.8445 14.4443 18.889 14.4088 18.8445C14.3929 18.8242 14.3843 18.7992 14.3843 18.7734C14.3843 18.7476 14.3929 18.7226 14.4088 18.7023C14.5939 18.6117 14.806 18.5927 15.0043 18.6489C15.0654 18.6635 15.1193 18.6991 15.1567 18.7495C15.1941 18.7999 15.2126 18.8619 15.2088 18.9245V19.5556C15.2144 19.576 15.2144 19.5975 15.2088 19.6178H15.111C15.111 19.6178 15.0488 19.5556 15.031 19.5556ZM15.031 19.1734H14.7021C14.6857 19.1745 14.6698 19.1789 14.6551 19.1862C14.6404 19.1935 14.6273 19.2037 14.6166 19.216C14.6059 19.2284 14.5977 19.2428 14.5925 19.2584C14.5874 19.2739 14.5853 19.2904 14.5865 19.3067C14.5909 19.3413 14.6078 19.373 14.634 19.396C14.6602 19.4189 14.6939 19.4314 14.7288 19.4312C14.7812 19.4368 14.8343 19.4301 14.8837 19.4116C14.933 19.3931 14.9774 19.3633 15.0132 19.3245C15.0171 19.3069 15.0171 19.2887 15.0132 19.2712V19.1201L15.031 19.1734Z" fill="#030303"/>
<path d="M11.8395 19.5556C11.7776 19.601 11.7063 19.6318 11.6309 19.6457C11.5554 19.6595 11.4778 19.6561 11.4039 19.6356C11.3398 19.6261 11.2806 19.5957 11.2355 19.5491C11.1905 19.5025 11.1622 19.4422 11.155 19.3778C11.1504 19.3129 11.1682 19.2484 11.2054 19.195C11.2426 19.1416 11.297 19.1026 11.3595 19.0845C11.4614 19.0575 11.5655 19.0396 11.6706 19.0311H11.8306C11.8306 18.7733 11.6972 18.7467 11.5017 18.7822C11.4428 18.795 11.3859 18.816 11.3328 18.8445C11.3328 18.8445 11.2528 18.8889 11.2261 18.8445C11.2164 18.8353 11.2087 18.8243 11.2034 18.8121C11.1982 18.7998 11.1955 18.7867 11.1955 18.7733C11.1955 18.76 11.1982 18.7469 11.2034 18.7346C11.2087 18.7224 11.2164 18.7114 11.2261 18.7022C11.3124 18.6675 11.4016 18.6407 11.4928 18.6222C11.5957 18.6039 11.701 18.6039 11.8039 18.6222C11.8675 18.6331 11.9247 18.6675 11.9642 18.7185C12.0037 18.7695 12.0226 18.8335 12.0172 18.8978C12.0172 19.12 12.0172 19.3511 12.0172 19.5733C12.0212 19.5817 12.0232 19.5908 12.0232 19.6C12.0232 19.6092 12.0212 19.6183 12.0172 19.6267H11.9106C11.9106 19.6267 11.8572 19.5556 11.8395 19.5556ZM11.8395 19.1822H11.6617C11.5977 19.1886 11.5349 19.2035 11.475 19.2267C11.4478 19.2382 11.4252 19.2584 11.4107 19.2841C11.3962 19.3099 11.3907 19.3397 11.395 19.3689C11.4001 19.3977 11.4139 19.4243 11.4345 19.4449C11.4552 19.4656 11.4818 19.4794 11.5106 19.4845C11.5694 19.4952 11.63 19.4902 11.6862 19.4699C11.7424 19.4496 11.7922 19.4148 11.8306 19.3689L11.8395 19.1822Z" fill="#040404"/>
<path d="M17.849 18.729C17.9 18.6785 17.9614 18.6396 18.029 18.615C18.0965 18.5905 18.1685 18.5808 18.2401 18.5868C18.3235 18.5843 18.4045 18.6145 18.466 18.671C18.5274 18.7275 18.5644 18.8057 18.569 18.889C18.569 19.1201 18.569 19.3423 18.569 19.5645C18.5245 19.6179 18.4623 19.5645 18.4001 19.5645C18.3379 19.5645 18.3468 19.5645 18.3556 19.4934V19.0223C18.3635 18.9753 18.3566 18.927 18.3359 18.884C18.3152 18.841 18.2818 18.8055 18.2401 18.7823C18.1939 18.7636 18.1433 18.7587 18.0944 18.7682C18.0455 18.7777 18.0004 18.8011 17.9645 18.8356C17.9307 18.8571 17.9035 18.8877 17.8863 18.9238C17.869 18.96 17.8622 19.0003 17.8668 19.0401C17.8668 19.209 17.8668 19.3779 17.8668 19.5379C17.8668 19.6979 17.8668 19.6179 17.7868 19.6179C17.7068 19.6179 17.6445 19.6179 17.6445 19.4845V18.6668V18.5868C17.694 18.5731 17.7462 18.5731 17.7956 18.5868C17.7956 18.5868 17.8401 18.6668 17.849 18.729Z" fill="#080808"/>
<path d="M7.94673 18.7201L8.06229 18.6667C8.1186 18.6312 8.18218 18.6087 8.24834 18.601C8.3145 18.5933 8.38154 18.6006 8.44451 18.6223C8.50939 18.6416 8.56619 18.6816 8.60629 18.7362C8.6464 18.7907 8.66762 18.8568 8.66673 18.9245C8.66673 19.1379 8.66673 19.3601 8.66673 19.5734C8.66673 19.5876 8.66111 19.6011 8.65111 19.6111C8.64111 19.6211 8.62754 19.6267 8.6134 19.6267C8.46229 19.6267 8.4534 19.6267 8.4534 19.4845V19.0134C8.4534 18.9156 8.4534 18.8267 8.33784 18.7912C8.29542 18.7717 8.24808 18.7655 8.20206 18.7734C8.15605 18.7814 8.11351 18.8031 8.08007 18.8356C8.04148 18.8577 8.01007 18.8903 7.98957 18.9297C7.96908 18.9691 7.96038 19.0136 7.96451 19.0579C7.96451 19.2179 7.96451 19.3867 7.96451 19.5467C7.96451 19.7067 7.96451 19.6267 7.88451 19.6267C7.80451 19.6267 7.7334 19.6267 7.7334 19.4934V18.6667C7.7334 18.5779 7.7334 18.569 7.83118 18.569C7.92895 18.569 7.94673 18.569 7.93784 18.6667L7.94673 18.7201Z" fill="#080808"/>
<path d="M20.8714 19.4934C20.775 19.584 20.648 19.6348 20.5158 19.6357C20.4688 19.6381 20.4218 19.6309 20.3777 19.6146C20.3335 19.5982 20.2932 19.5731 20.2591 19.5406C20.225 19.5082 20.1979 19.4692 20.1793 19.4259C20.1608 19.3826 20.1513 19.3361 20.1514 19.289C20.1514 19.0757 20.1514 18.8712 20.1514 18.6579C20.1514 18.6579 20.1514 18.6045 20.1958 18.6045H20.338C20.338 18.6045 20.3825 18.6045 20.3825 18.6757V19.1912C20.3825 19.289 20.3825 19.3957 20.4891 19.4401C20.5371 19.4609 20.5904 19.4661 20.6414 19.4549C20.6925 19.4438 20.7387 19.4168 20.7736 19.3779C20.8042 19.3554 20.829 19.3259 20.846 19.2919C20.863 19.2579 20.8717 19.2203 20.8714 19.1823C20.8714 19.0134 20.8714 18.8534 20.8714 18.6845C20.8714 18.5157 20.8714 18.5957 20.9514 18.6045H21.0047C21.0936 18.6045 21.0936 18.6045 21.0936 18.7023V19.5557C21.0936 19.6445 21.0936 19.6534 21.0047 19.6534C20.9158 19.6534 20.8891 19.6534 20.8891 19.5557L20.8714 19.4934Z" fill="#010101"/>
<path d="M4.96027 18.4267H4.58694C4.51582 18.4267 4.49805 18.4267 4.49805 18.3378C4.49805 18.2489 4.49805 18.2489 4.58694 18.2489H5.56471C5.64471 18.2489 5.6536 18.2489 5.6536 18.3378C5.6536 18.4267 5.6536 18.4267 5.56471 18.4267H5.19138V19.5556C5.19138 19.6178 5.19138 19.6356 5.11138 19.6356C4.99582 19.6356 4.99582 19.6356 4.99582 19.5289V18.4267H4.96027Z" fill="#040404"/>
<path d="M25.3333 18.4267H24.96C24.8889 18.4267 24.8711 18.4267 24.8711 18.3378C24.8711 18.2489 24.8711 18.2489 24.9511 18.2489H25.9467C26.0178 18.2489 26.0267 18.2489 26.0267 18.3378C26.0267 18.4267 26.0267 18.4267 25.9467 18.4267H25.5644V19.5556C25.5644 19.6356 25.5644 19.6445 25.4844 19.6445C25.4044 19.6445 25.3333 19.6445 25.3333 19.5111V18.4267Z" fill="#040404"/>
<path d="M7.22691 13.8134C7.29765 13.7118 7.33493 13.5906 7.33358 13.4668C7.31674 13.3687 7.28047 13.275 7.22691 13.1912C7.18314 13.1017 7.14455 13.0097 7.11136 12.9157C7.09743 12.8267 7.10832 12.7357 7.14282 12.6526C7.17733 12.5695 7.23411 12.4975 7.30691 12.4445L7.41358 12.3823L7.35136 12.5868C7.33231 12.6496 7.32802 12.716 7.33881 12.7807C7.3496 12.8455 7.37519 12.9069 7.41358 12.9601C7.50247 13.1201 7.58247 13.2712 7.65358 13.4312C7.67936 13.503 7.67936 13.5816 7.65358 13.6534C7.63672 13.709 7.60271 13.7579 7.55642 13.793C7.51012 13.8282 7.4539 13.8477 7.3958 13.849C7.33828 13.844 7.28158 13.832 7.22691 13.8134Z" fill="#C51D23"/>
<path d="M15.8223 19.6445L15.5556 19.5556C15.5339 19.5442 15.5153 19.5278 15.5014 19.5077C15.4874 19.4875 15.4786 19.4643 15.4756 19.44C15.4704 19.4196 15.4704 19.3982 15.4756 19.3778C15.4756 19.3778 15.529 19.3778 15.5645 19.3778C15.6488 19.4323 15.7489 19.4574 15.849 19.4489H15.929C15.9515 19.4426 15.9717 19.4301 15.9875 19.4128C16.0032 19.3955 16.0137 19.3741 16.0179 19.3511C16.0179 19.3283 16.0111 19.306 15.9984 19.287C15.9858 19.268 15.9678 19.2532 15.9467 19.2445L15.769 19.1733L15.6001 19.0845C15.5633 19.0623 15.5328 19.0311 15.5116 18.9937C15.4905 18.9563 15.4794 18.9141 15.4794 18.8711C15.4794 18.8282 15.4905 18.7859 15.5116 18.7486C15.5328 18.7112 15.5633 18.6799 15.6001 18.6578C15.6798 18.6118 15.7702 18.5875 15.8623 18.5875C15.9544 18.5875 16.0448 18.6118 16.1245 18.6578C16.1345 18.6677 16.1424 18.6795 16.1477 18.6924C16.1531 18.7054 16.1559 18.7193 16.1559 18.7333C16.1559 18.7474 16.1531 18.7613 16.1477 18.7742C16.1424 18.7872 16.1345 18.799 16.1245 18.8089C16.1045 18.8164 16.0824 18.8164 16.0623 18.8089L16.0001 18.7467H15.8934C15.8312 18.7467 15.7779 18.7467 15.769 18.8533C15.7601 18.96 15.769 18.9511 15.8579 18.9778L16.1512 19.0933C16.1951 19.1144 16.2323 19.1471 16.259 19.1878C16.2856 19.2286 16.3006 19.2758 16.3023 19.3245C16.3023 19.3594 16.2952 19.3939 16.2815 19.426C16.2677 19.4581 16.2476 19.487 16.2223 19.5111C16.1655 19.5603 16.0988 19.5966 16.0267 19.6178C15.9767 19.6264 15.9256 19.6264 15.8756 19.6178L15.8223 19.6445Z" fill="#040404"/>
<path d="M21.6617 19.6534C21.5728 19.6534 21.475 19.609 21.3861 19.5734C21.3714 19.5659 21.3584 19.5556 21.3478 19.543C21.3371 19.5304 21.3291 19.5158 21.3241 19.5001C21.3192 19.4844 21.3174 19.4679 21.3189 19.4515C21.3203 19.4351 21.3251 19.4191 21.3328 19.4045C21.3328 19.4045 21.3861 19.4045 21.4217 19.4045C21.5027 19.4591 21.5999 19.4842 21.6972 19.4756H21.7505C21.8128 19.4756 21.8661 19.4756 21.875 19.369C21.8839 19.2623 21.8305 19.2623 21.7772 19.2445L21.5283 19.1468C21.4926 19.1351 21.4597 19.1161 21.4318 19.0908C21.404 19.0656 21.3818 19.0348 21.3667 19.0004C21.3516 18.966 21.3439 18.9288 21.3442 18.8912C21.3445 18.8536 21.3527 18.8165 21.3683 18.7823C21.3947 18.7312 21.434 18.6878 21.4824 18.6566C21.5307 18.6254 21.5864 18.6075 21.6439 18.6045C21.7555 18.5879 21.8696 18.6033 21.9728 18.649C22.0017 18.6626 22.0243 18.6867 22.0359 18.7165C22.0475 18.7463 22.0471 18.7794 22.035 18.809C22.035 18.809 21.9817 18.809 21.955 18.809C21.87 18.7656 21.7745 18.7471 21.6794 18.7556C21.6172 18.7556 21.5728 18.7556 21.5639 18.8623C21.5609 18.888 21.5674 18.9139 21.5822 18.9351C21.5969 18.9564 21.6188 18.9716 21.6439 18.9779C21.7074 19.0084 21.7727 19.0351 21.8394 19.0579L21.9461 19.1023C21.99 19.1234 22.0273 19.156 22.0539 19.1968C22.0805 19.2375 22.0955 19.2848 22.0972 19.3334C22.0968 19.3836 22.0835 19.4328 22.0586 19.4764C22.0337 19.52 21.998 19.5565 21.955 19.5823C21.8626 19.6244 21.7631 19.6485 21.6617 19.6534Z" fill="#040404"/>
<path d="M22.3556 18.7734C22.1778 18.7734 22.1689 18.7734 22.1689 18.6845C22.1689 18.5956 22.1689 18.6134 22.3556 18.5956C22.3601 18.5364 22.3601 18.477 22.3556 18.4178C22.3556 18.4178 22.3556 18.3556 22.4178 18.3556C22.5334 18.3556 22.5423 18.3556 22.5423 18.4711V18.6134H22.7734C22.8356 18.6134 22.8534 18.6134 22.8534 18.6934C22.8534 18.7734 22.8534 18.7823 22.7734 18.7823H22.5778V19.2978C22.5778 19.4489 22.6489 19.4934 22.7912 19.4578C22.9334 19.4223 22.8623 19.4134 22.8801 19.4578C22.8975 19.4774 22.9072 19.5027 22.9072 19.5289C22.9072 19.5552 22.8975 19.5805 22.8801 19.6C22.8339 19.6347 22.7778 19.6534 22.7201 19.6534C22.6343 19.6534 22.552 19.62 22.4906 19.5602C22.4292 19.5004 22.3935 19.419 22.3912 19.3334V18.7734H22.3556Z" fill="#020202"/>
<path d="M17.2886 18.9333V19.5555C17.2886 19.6089 17.2886 19.6267 17.2175 19.6267C17.0753 19.6267 17.0664 19.6267 17.0664 19.4844V18.3467C17.0664 18.2578 17.0664 18.2489 17.1642 18.24H17.2264C17.2797 18.24 17.2975 18.24 17.2975 18.3289L17.2886 18.9333Z" fill="#080808"/>
<path d="M23.3245 18.7379C23.3615 18.6757 23.419 18.6284 23.4871 18.604C23.5553 18.5797 23.6298 18.5799 23.6978 18.6045C23.7105 18.6043 23.7229 18.6087 23.7327 18.6169C23.7425 18.625 23.749 18.6364 23.7511 18.649C23.7645 18.6954 23.7645 18.7447 23.7511 18.7912H23.6178C23.5832 18.7912 23.5489 18.7981 23.5171 18.8116C23.4852 18.8251 23.4564 18.8449 23.4323 18.8698C23.4082 18.8947 23.3894 18.9242 23.377 18.9565C23.3646 18.9888 23.3588 19.0233 23.36 19.0579V19.5556C23.36 19.6179 23.36 19.6356 23.28 19.6356C23.2 19.6356 23.1289 19.6356 23.1289 19.5023V18.6667C23.1289 18.5779 23.1289 18.569 23.2267 18.569C23.3245 18.569 23.3334 18.569 23.3334 18.6667C23.3229 18.6889 23.3198 18.7138 23.3245 18.7379Z" fill="#080808"/>
<path d="M24.1686 19.1112C24.1686 19.2534 24.1686 19.4045 24.1686 19.5468C24.1686 19.689 24.1686 19.6179 24.0886 19.6179C24.0086 19.6179 23.9375 19.6179 23.9375 19.4845V18.6668C23.9375 18.569 23.9375 18.5601 24.0442 18.5601H24.0886C24.0995 18.5586 24.1105 18.5597 24.1209 18.5632C24.1313 18.5667 24.1407 18.5725 24.1484 18.5803C24.1562 18.588 24.162 18.5974 24.1655 18.6078C24.169 18.6182 24.1701 18.6292 24.1686 18.6401V19.1112Z" fill="#0A0A0A"/>
<path d="M7.11074 13.7868L6.8974 13.449C6.85772 13.3768 6.83691 13.2958 6.83691 13.2134C6.83691 13.1311 6.85772 13.05 6.8974 12.9779L6.9774 12.8179C6.96887 12.8738 6.96887 12.9308 6.9774 12.9868C7.00592 13.0839 7.0478 13.1767 7.10185 13.2623C7.15663 13.3337 7.18632 13.4212 7.18632 13.5112C7.18632 13.6012 7.15663 13.6887 7.10185 13.7601L7.11074 13.7868Z" fill="#C62026"/>
<path d="M7.46686 12.4889C7.51212 12.6356 7.59129 12.7696 7.69797 12.88C7.74163 12.9392 7.7708 13.0079 7.78315 13.0804C7.7955 13.153 7.79068 13.2274 7.76908 13.2978C7.77274 13.3184 7.77274 13.3394 7.76908 13.36L7.50241 12.9244C7.46311 12.8596 7.43943 12.7865 7.43326 12.7109C7.42709 12.6353 7.43859 12.5593 7.46686 12.4889Z" fill="#C62228"/>
<path d="M3.20904 16.8267H3.39571H6.72016H6.80016H3.2446C3.17349 16.8889 3.18238 16.8889 3.20904 16.8267Z" fill="#35426E"/>
<path d="M28.6754 19.6267C28.5688 19.6267 28.5332 19.6267 28.5332 19.4933C28.5332 19.36 28.5332 19.36 28.6754 19.36C28.8176 19.36 28.8176 19.36 28.8176 19.4844C28.8176 19.6089 28.7821 19.6267 28.6754 19.6267Z" fill="#080808"/>
<path d="M24.0533 18.4445C23.9555 18.4445 23.9199 18.4445 23.9199 18.3289C23.9199 18.2134 23.9199 18.2134 24.0533 18.2134C24.1866 18.2134 24.1866 18.2134 24.1866 18.3289C24.1866 18.4445 24.1599 18.4445 24.0533 18.4445Z" fill="#080808"/>
<path d="M3.2799 16.7467L3.22656 16.8L3.2799 16.7467Z" fill="#35426E"/>
</g>
<defs>
<clipPath id="clip0_2707_376763">
<rect width="32" height="32" fill="white"/>
</clipPath>
</defs>
</svg>
