<svg width="32" height="32" viewBox="0 0 32 32" fill="none" xmlns="http://www.w3.org/2000/svg">
<g clip-path="url(#clip0_2707_376713)">
<path d="M15.9998 31.9823C24.8265 31.9823 31.982 24.8268 31.982 16C31.982 7.17331 24.8265 0.0178223 15.9998 0.0178223C7.17306 0.0178223 0.0175781 7.17331 0.0175781 16C0.0175781 24.8268 7.17306 31.9823 15.9998 31.9823Z" fill="white"/>
<path d="M13.8221 16.6579H12.5421C12.5421 16.5245 12.5421 16.4179 12.5421 16.2668C12.0817 16.5381 11.5662 16.7021 11.0337 16.7468C10.5013 16.7914 9.96559 16.7154 9.46652 16.5245C8.83974 16.2677 8.31496 15.8116 7.97318 15.2268C7.61335 14.6458 7.45974 13.9606 7.53715 13.2816C7.61456 12.6027 7.91848 11.9696 8.39985 11.4845C8.9204 10.9169 9.6301 10.5586 10.3959 10.4768C11.1618 10.395 11.9311 10.5952 12.5599 11.0401C12.5599 10.8623 12.5599 10.6845 12.5599 10.4979H13.831L13.8221 16.6579ZM12.5332 13.6534C12.5525 13.4013 12.5178 13.148 12.4315 12.9104C12.3451 12.6728 12.209 12.4563 12.0324 12.2754C11.8557 12.0945 11.6425 11.9534 11.407 11.8615C11.1714 11.7696 10.919 11.7289 10.6665 11.7423C10.4076 11.7245 10.1477 11.7602 9.90314 11.8471C9.65856 11.934 9.43444 12.0702 9.24473 12.2473C9.05501 12.4245 8.90375 12.6387 8.80032 12.8768C8.6969 13.1149 8.64353 13.3716 8.64353 13.6312C8.64353 13.8908 8.6969 14.1476 8.80032 14.3856C8.90375 14.6237 9.05501 14.8379 9.24473 15.0151C9.43444 15.1922 9.65856 15.3285 9.90314 15.4153C10.1477 15.5022 10.4076 15.5379 10.6665 15.5201C10.9112 15.5213 11.1536 15.4737 11.3796 15.3801C11.6056 15.2865 11.8107 15.1488 11.9829 14.975C12.155 14.8011 12.2908 14.5947 12.3823 14.3678C12.4737 14.1409 12.519 13.898 12.5154 13.6534H12.5332Z" fill="#F07029"/>
<path d="M26.8796 16.6489C26.8796 16.5333 26.8796 16.4267 26.8796 16.2755L26.2841 16.5155C25.8333 16.7115 25.343 16.7995 24.8522 16.7725C24.3614 16.7455 23.8837 16.6041 23.4572 16.3598C23.0307 16.1155 22.6671 15.7749 22.3956 15.3652C22.124 14.9555 21.9519 14.488 21.8929 14C21.8037 13.454 21.8706 12.8938 22.0861 12.3842C22.3016 11.8746 22.6568 11.4363 23.1107 11.12C23.5577 10.767 24.0955 10.548 24.6619 10.4882C25.2282 10.4284 25.7999 10.5304 26.3107 10.7822C26.4796 10.8533 26.6396 10.9422 26.8352 11.0311C26.8352 10.8444 26.8352 10.6844 26.8352 10.4978H28.1152V16.6489H26.8796ZM26.8796 13.6444C26.8986 13.3947 26.8646 13.1437 26.7798 12.908C26.695 12.6723 26.5613 12.4572 26.3876 12.2768C26.2139 12.0964 26.004 11.9547 25.7717 11.861C25.5394 11.7673 25.2899 11.7238 25.0396 11.7333C24.5375 11.7333 24.0559 11.9328 23.7008 12.2879C23.3458 12.6429 23.1463 13.1245 23.1463 13.6267C23.1463 14.1288 23.3458 14.6104 23.7008 14.9654C24.0559 15.3205 24.5375 15.52 25.0396 15.52C25.2831 15.5189 25.5239 15.4692 25.748 15.3739C25.9721 15.2786 26.1749 15.1395 26.3446 14.9649C26.5143 14.7902 26.6474 14.5835 26.7362 14.3568C26.825 14.13 26.8677 13.8879 26.8618 13.6444H26.8796Z" fill="#F07029"/>
<path d="M13.7774 16.9867C14.547 17.983 15.5422 18.7822 16.6812 19.3184C17.8202 19.8547 19.0703 20.1127 20.3285 20.0711C21.5811 20.1092 22.8249 19.8494 23.9575 19.3132C25.0902 18.777 26.0795 17.9796 26.844 16.9867L27.8129 17.6711C26.914 18.8477 25.7411 19.7867 24.3964 20.4064C23.0517 21.0261 21.5758 21.3077 20.0974 21.2267C18.69 21.2468 17.2977 20.9355 16.033 20.3178C14.7683 19.7001 13.6667 18.7934 12.8174 17.6711L13.7774 16.9867Z" fill="#F07029"/>
<path d="M14.8263 10.4978H16.1419V10.9778C16.1261 11.2208 16.1603 11.4645 16.2426 11.6937C16.3248 11.9229 16.4532 12.1327 16.6199 12.3103C16.7866 12.4878 16.988 12.6292 17.2116 12.7257C17.4351 12.8221 17.6762 12.8717 17.9197 12.8711C18.1625 12.87 18.4027 12.821 18.6265 12.727C18.8504 12.633 19.0536 12.4958 19.2244 12.3233C19.3953 12.1508 19.5305 11.9463 19.6223 11.7216C19.7142 11.4968 19.7608 11.2562 19.7597 11.0134C19.7597 10.8445 19.7597 10.6756 19.7597 10.4978H21.0486C21.1707 11.2286 21.0272 11.9791 20.6441 12.6133C20.2609 13.2475 19.6634 13.7237 18.9597 13.9556C18.9035 13.9641 18.8497 13.9839 18.8015 14.0139C18.7533 14.0438 18.7117 14.0833 18.6793 14.1299C18.6468 14.1765 18.6242 14.2292 18.6128 14.2848C18.6014 14.3404 18.6015 14.3978 18.613 14.4534C18.613 15.2 18.613 15.9467 18.613 16.72H17.253V15.6089C17.253 15.1822 17.253 14.72 17.253 14.32C17.253 14.1245 17.1819 14.0534 17.0041 13.9911C16.28 13.7708 15.6603 13.2954 15.2598 12.653C14.8594 12.0107 14.7054 11.245 14.8263 10.4978Z" fill="#09559B"/>
<path d="M2.94167 16.729C2.94167 15.5734 2.88834 14.4445 2.94167 13.3245C2.99812 12.5472 3.34839 11.8206 3.92131 11.2923C4.49422 10.7639 5.2468 10.4735 6.02612 10.4801H6.91501V11.7512H6.02612C5.55462 11.7512 5.10244 11.9385 4.76904 12.2719C4.43564 12.6053 4.24834 13.0575 4.24834 13.529C4.24834 14.4179 4.24834 15.3956 4.24834 16.329V16.7112L2.94167 16.729Z" fill="#09559B"/>
</g>
<defs>
<clipPath id="clip0_2707_376713">
<rect width="32" height="32" fill="white"/>
</clipPath>
</defs>
</svg>
