<svg width="32" height="32" viewBox="0 0 32 32" fill="none" xmlns="http://www.w3.org/2000/svg">
<g clip-path="url(#clip0_2707_376323)">
<path d="M15.9998 31.9823C24.8265 31.9823 31.982 24.8268 31.982 16C31.982 7.17331 24.8265 0.0178223 15.9998 0.0178223C7.17306 0.0178223 0.0175781 7.17331 0.0175781 16C0.0175781 24.8268 7.17306 31.9823 15.9998 31.9823Z" fill="white"/>
<path d="M4.79943 17.2978H2.74609L3.7772 14.6311C4.11498 15.5378 4.44387 16.4089 4.79943 17.2978Z" fill="#FF006A"/>
<path d="M5.62612 15.92V17.2978H5.43945V15.4667H5.75945C5.83056 15.8756 5.89279 16.2845 5.9639 16.6933C5.9639 16.5511 6.01723 16.4 6.03501 16.2578C6.05279 16.1156 6.11501 15.7689 6.15056 15.5289C6.15056 15.5289 6.15056 15.4667 6.21279 15.4667H6.48834V17.1556C6.48834 17.3245 6.48834 17.3245 6.30168 17.2978V15.9289L6.22168 16.2311C6.16834 16.56 6.11501 16.8978 6.07056 17.2267C6.07056 17.3245 5.99945 17.3067 5.93723 17.3156C5.87501 17.3245 5.84834 17.3156 5.83945 17.2267L5.67056 16C5.67442 15.9794 5.67442 15.9583 5.67056 15.9378L5.62612 15.92Z" fill="#FE0167"/>
<path d="M6.87983 16.6845C6.87983 16.7468 6.87983 16.809 6.94205 16.8712C6.95004 16.898 6.96344 16.9228 6.98141 16.9442C6.99938 16.9656 7.02154 16.9831 7.04653 16.9956C7.07152 17.0081 7.0988 17.0153 7.1267 17.0169C7.15459 17.0184 7.18251 17.0142 7.20872 17.0045C7.2627 16.9863 7.30844 16.9495 7.33775 16.9006C7.36707 16.8518 7.37804 16.7941 7.36872 16.7379C7.36848 16.6979 7.3554 16.659 7.33139 16.627C7.30738 16.595 7.27373 16.5715 7.23539 16.5601L6.9865 16.4445C6.91304 16.4086 6.85093 16.353 6.80702 16.284C6.76311 16.215 6.73909 16.1352 6.73761 16.0534C6.71152 15.913 6.73676 15.7679 6.80872 15.6445C6.84065 15.5851 6.88809 15.5354 6.94601 15.5008C7.00392 15.4662 7.07013 15.4479 7.13761 15.4479C7.20509 15.4479 7.2713 15.4662 7.32921 15.5008C7.38712 15.5354 7.43457 15.5851 7.4665 15.6445C7.51084 15.7473 7.54363 15.8546 7.56428 15.9645H7.43983C7.36872 15.9645 7.33316 15.9645 7.31539 15.8757C7.30129 15.8342 7.2731 15.7991 7.23573 15.7764C7.19837 15.7536 7.1542 15.7447 7.11094 15.7512H7.02205C6.99074 15.7672 6.9643 15.7913 6.94553 15.821C6.92676 15.8507 6.91635 15.885 6.91539 15.9201C6.9164 15.9485 6.92419 15.9762 6.93811 16.0009C6.95202 16.0257 6.97167 16.0467 6.99539 16.0623C7.06077 16.1083 7.13268 16.1443 7.20872 16.169C7.31648 16.2009 7.41027 16.2683 7.47483 16.3603C7.53938 16.4523 7.57091 16.5635 7.56428 16.6757C7.58186 16.7697 7.58186 16.8661 7.56428 16.9601C7.55104 17.0551 7.50256 17.1417 7.42846 17.2026C7.35436 17.2635 7.26006 17.2944 7.16428 17.289C7.07001 17.2896 6.97832 17.2583 6.90408 17.2002C6.82985 17.1421 6.77745 17.0606 6.75539 16.969V16.8623C6.68428 16.6757 6.6665 16.7112 6.87983 16.6845Z" fill="#FE0167"/>
<path d="M17.3952 17.3244H17.2529V16.3733C17.3208 16.3645 17.3895 16.3645 17.4574 16.3733C17.4574 16.3733 17.5018 16.4267 17.5107 16.4533C17.5552 16.64 17.5907 16.8178 17.644 17.0044L17.7774 16.3733H18.0174V17.3244H17.884V16.6044C17.8307 16.8444 17.7774 17.0756 17.724 17.3244H17.5818C17.5285 17.0933 17.484 16.8622 17.4396 16.6222L17.3952 17.3244Z" fill="#017634"/>
<path d="M20.4446 16.6134L20.3646 16.9956C20.3604 17.0696 20.3604 17.1438 20.3646 17.2178C20.3646 17.3156 20.3023 17.3512 20.1868 17.3156L20.0446 16.6134V17.3245H19.9023V16.3734H20.1423L20.2757 17.0045C20.3236 16.8289 20.3622 16.6509 20.3912 16.4712C20.3912 16.3912 20.4357 16.3556 20.5246 16.3645C20.5686 16.3734 20.6139 16.3734 20.6579 16.3645V17.3245H20.4446V16.6134Z" fill="#017634"/>
<path d="M24.6313 16.6312V17.3245H24.5068V16.3734H24.7379L24.8713 17.0045C24.9157 16.8268 24.9602 16.649 24.9868 16.4712C25.0135 16.2934 25.0313 16.3556 25.1113 16.3645C25.1523 16.3734 25.1947 16.3734 25.2357 16.3645V17.3245H25.1024V16.6134C25.1024 16.8356 25.0046 17.049 24.9691 17.2623C24.9647 17.2843 24.9523 17.3039 24.9341 17.317C24.916 17.3302 24.8935 17.3361 24.8713 17.3334C24.8179 17.3334 24.8002 17.3334 24.7824 17.2534C24.7824 17.049 24.7024 16.8356 24.6579 16.6312H24.6313Z" fill="#017634"/>
<path d="M11.3154 16.3645H11.7154C11.7595 16.3606 11.8037 16.3704 11.8419 16.3927C11.8802 16.415 11.9105 16.4486 11.9288 16.4889C11.9506 16.5284 11.962 16.5727 11.962 16.6178C11.962 16.6629 11.9506 16.7073 11.9288 16.7467C11.9288 16.7467 11.9288 16.7912 11.8843 16.8089C11.9444 16.852 11.9866 16.9156 12.003 16.9876C12.0194 17.0597 12.0088 17.1353 11.9732 17.2001C11.9574 17.2391 11.9304 17.2726 11.8956 17.2963C11.8608 17.3201 11.8198 17.3329 11.7777 17.3334H11.3421L11.3154 16.3645ZM11.4754 16.8889V17.1912H11.7154C11.7954 17.1912 11.8132 17.1467 11.8221 17.0756C11.8281 17.0462 11.8234 17.0157 11.8087 16.9896C11.794 16.9634 11.7703 16.9435 11.7421 16.9334H11.4754V16.8889ZM11.4754 16.7467C11.5524 16.7512 11.6296 16.7512 11.7065 16.7467C11.7325 16.7467 11.7573 16.7364 11.7757 16.7181C11.794 16.6997 11.8043 16.6749 11.8043 16.6489C11.8043 16.6489 11.8043 16.5601 11.7421 16.5601C11.6534 16.5513 11.5641 16.5513 11.4754 16.5601V16.7467Z" fill="#017634"/>
<path d="M21.7419 16.9334V17.3245H21.5908V16.3734C21.7508 16.3734 21.9108 16.3734 22.0708 16.3734C22.1156 16.3799 22.1565 16.4024 22.1859 16.4367C22.2153 16.471 22.2313 16.5149 22.2308 16.5601C22.2498 16.6151 22.2495 16.6749 22.2302 16.7298C22.2108 16.7847 22.1734 16.8314 22.1242 16.8623H22.0619L22.3019 17.2801C22.1153 17.2801 22.1153 17.2801 22.0353 17.1645L21.9464 16.9956C21.9366 16.9636 21.9164 16.9358 21.889 16.9165C21.8617 16.8972 21.8287 16.8875 21.7953 16.889L21.7419 16.9334ZM21.7419 16.7645C21.8189 16.769 21.8961 16.769 21.973 16.7645C22.0353 16.7645 22.0797 16.7645 22.0708 16.6667C22.0619 16.569 22.0708 16.5423 22.0175 16.5334C21.9259 16.5242 21.8336 16.5242 21.7419 16.5334V16.7645Z" fill="#017634"/>
<path d="M5.19946 15.4667H5.00391V17.2978H5.19946V15.4667Z" fill="#FE0167"/>
<path d="M15.04 17.3156C15.0204 17.3257 14.9989 17.3314 14.9769 17.3323C14.9549 17.3332 14.933 17.3293 14.9127 17.3208C14.8923 17.3123 14.8741 17.2995 14.8593 17.2833C14.8444 17.267 14.8333 17.2477 14.8267 17.2267C14.7545 17.0557 14.6713 16.8894 14.5778 16.729V17.3245H14.4355V16.3823C14.5689 16.3823 14.5867 16.3823 14.6489 16.4712L14.8622 16.9067C14.8782 16.9318 14.8994 16.953 14.9244 16.969V16.3734H15.0578L15.04 17.3156Z" fill="#017634"/>
<path d="M13.1022 16.9334V17.3245H12.96V16.3734C13.12 16.3734 13.28 16.3734 13.4311 16.3734C13.4614 16.382 13.4897 16.3966 13.5141 16.4165C13.5386 16.4364 13.5587 16.461 13.5733 16.489C13.6355 16.6579 13.6266 16.8179 13.4222 16.8979L13.6622 17.3156C13.4844 17.3156 13.4844 17.3156 13.4133 17.209L13.3155 17.0312C13.3034 17.0006 13.2827 16.9743 13.2559 16.9553C13.229 16.9364 13.1972 16.9257 13.1644 16.9245L13.1022 16.9334ZM13.1022 16.7645C13.1821 16.769 13.2622 16.769 13.3422 16.7645C13.3689 16.7623 13.3938 16.7501 13.4119 16.7303C13.43 16.7105 13.4401 16.6847 13.44 16.6579C13.436 16.6291 13.4239 16.602 13.405 16.5799C13.386 16.5578 13.3612 16.5417 13.3333 16.5334C13.2628 16.5202 13.1905 16.5202 13.12 16.5334C13.12 16.5334 13.0755 16.5334 13.0666 16.5779C13.0577 16.6457 13.0577 16.7144 13.0666 16.7823L13.1022 16.7645Z" fill="#017634"/>
<path d="M16.7994 16.8889C16.7809 16.985 16.7572 17.0799 16.7283 17.1734C16.7002 17.2359 16.6547 17.2891 16.5971 17.3263C16.5395 17.3636 16.4724 17.3835 16.4038 17.3835C16.3353 17.3835 16.2681 17.3636 16.2106 17.3263C16.153 17.2891 16.1075 17.2359 16.0794 17.1734C16.0311 17.0799 16.0059 16.9763 16.0059 16.8711C16.0059 16.766 16.0311 16.6623 16.0794 16.5689C16.111 16.4934 16.169 16.4319 16.2426 16.3959C16.3162 16.3599 16.4004 16.3519 16.4794 16.3734C16.5486 16.3896 16.6118 16.4249 16.6621 16.4751C16.7123 16.5254 16.7476 16.5886 16.7638 16.6578V16.8622L16.7994 16.8889ZM16.6305 16.8889C16.6347 16.8238 16.6347 16.7585 16.6305 16.6934C16.6156 16.6512 16.5879 16.6148 16.5512 16.5893C16.5145 16.5638 16.4707 16.5504 16.4261 16.5511C16.3826 16.552 16.3406 16.5673 16.3068 16.5947C16.273 16.622 16.2493 16.6599 16.2394 16.7022C16.2305 16.8236 16.2305 16.9454 16.2394 17.0667C16.2509 17.1099 16.2746 17.1488 16.3077 17.1788C16.3408 17.2087 16.382 17.2285 16.4261 17.2356C16.4707 17.2363 16.5145 17.2229 16.5512 17.1974C16.5879 17.1719 16.6156 17.1355 16.6305 17.0934C16.6348 17.0253 16.6348 16.957 16.6305 16.8889Z" fill="#017634"/>
<path d="M15.2354 16.3734C15.3626 16.3645 15.4903 16.3645 15.6176 16.3734C15.6871 16.3822 15.7507 16.4171 15.7954 16.4711C15.8669 16.5809 15.905 16.709 15.905 16.84C15.905 16.971 15.8669 17.0992 15.7954 17.2089C15.752 17.2676 15.6888 17.3087 15.6176 17.3245C15.4903 17.3334 15.3626 17.3334 15.2354 17.3245V16.3734ZM15.3776 16.8445V17.1111C15.3734 17.121 15.3713 17.1316 15.3713 17.1422C15.3713 17.1529 15.3734 17.1635 15.3776 17.1734C15.4088 17.1874 15.4428 17.1943 15.477 17.1935C15.5112 17.1928 15.5449 17.1845 15.5755 17.1692C15.6061 17.1539 15.6329 17.132 15.6541 17.105C15.6752 17.0781 15.69 17.0468 15.6976 17.0134V16.7645C15.6976 16.5156 15.5909 16.5334 15.4309 16.5067C15.2709 16.48 15.342 16.5067 15.342 16.5867C15.36 16.6866 15.3719 16.7875 15.3776 16.8889V16.8445Z" fill="#017634"/>
<path d="M23.3244 16.6311C23.2356 16.6311 23.1822 16.6311 23.1378 16.5689C23.0933 16.5067 22.9333 16.4889 22.88 16.5689C22.8761 16.5865 22.8761 16.6047 22.88 16.6222C22.8798 16.635 22.8842 16.6473 22.8924 16.6571C22.9005 16.6669 22.9119 16.6734 22.9244 16.6756C22.9932 16.7105 23.0645 16.7402 23.1378 16.7645C23.2019 16.785 23.2579 16.8253 23.2978 16.8796C23.3377 16.9338 23.3595 16.9993 23.36 17.0667C23.3681 17.1137 23.3681 17.1618 23.36 17.2089C23.332 17.2648 23.2863 17.3099 23.23 17.3372C23.1738 17.3645 23.1101 17.3725 23.0489 17.36C22.9897 17.3653 22.9305 17.3507 22.8806 17.3185C22.8306 17.2863 22.7929 17.2383 22.7733 17.1822C22.7683 17.1379 22.7683 17.0932 22.7733 17.0489H22.9156C22.9309 17.0929 22.9518 17.1347 22.9778 17.1733C23.0085 17.2002 23.048 17.215 23.0889 17.215C23.1297 17.215 23.1692 17.2002 23.2 17.1733C23.2379 17.1418 23.2632 17.0976 23.2711 17.0489C23.2711 17.0489 23.2711 16.9689 23.1911 16.9511L22.9422 16.8622C22.8906 16.8305 22.85 16.7836 22.8262 16.7278C22.8023 16.6721 22.7962 16.6104 22.8089 16.5511C22.8248 16.4956 22.8588 16.4471 22.9055 16.4133C22.9523 16.3794 23.009 16.3622 23.0667 16.3644C23.2622 16.3644 23.3511 16.4089 23.3956 16.5511C23.44 16.6933 23.3156 16.5956 23.3244 16.6311Z" fill="#017634"/>
<path d="M10.6666 17.3245H10.5244V16.3734H10.6666V16.7823L10.72 16.7378C10.7822 16.6578 10.8533 16.5778 10.9155 16.489C10.927 16.4631 10.9436 16.4399 10.9642 16.4205C10.9847 16.4011 11.009 16.3861 11.0354 16.3761C11.0619 16.3662 11.0901 16.3616 11.1183 16.3627C11.1466 16.3638 11.1743 16.3704 11.2 16.3823C11.1308 16.478 11.0566 16.57 10.9777 16.6578C10.9678 16.6678 10.9599 16.6795 10.9545 16.6925C10.9491 16.7055 10.9464 16.7194 10.9464 16.7334C10.9464 16.7474 10.9491 16.7613 10.9545 16.7743C10.9599 16.7873 10.9678 16.799 10.9777 16.809L11.2444 17.3334H11.1022C11.0659 17.3244 11.0342 17.3022 11.0133 17.2712L10.8355 16.8978C10.6666 16.9867 10.6666 17.1556 10.6666 17.3245Z" fill="#017634"/>
<path d="M12.8533 17.3155C12.6933 17.3155 12.6844 17.3155 12.6489 17.2C12.6133 17.0844 12.5955 17.0933 12.5155 17.1111C12.3378 17.1111 12.3378 17.1111 12.2755 17.28C12.2672 17.2839 12.2581 17.286 12.2489 17.286C12.2396 17.286 12.2305 17.2839 12.2222 17.28H12.0889C12.1866 16.9689 12.2755 16.6667 12.3733 16.3911C12.3809 16.3761 12.3923 16.3633 12.4063 16.3539C12.4203 16.3446 12.4365 16.339 12.4533 16.3378C12.4533 16.3378 12.5866 16.3378 12.5955 16.3378L12.8533 17.3155ZM12.5689 16.9511L12.4444 16.6133L12.3378 16.9422L12.5689 16.9511Z" fill="#017634"/>
<path d="M18.1152 17.3334C18.213 17.0223 18.3019 16.7289 18.3997 16.4445C18.3997 16.4445 18.3997 16.3645 18.4797 16.3734C18.5597 16.3823 18.6041 16.3734 18.6308 16.4267L18.8975 17.3156C18.7463 17.3156 18.7463 17.3156 18.7108 17.2089C18.6752 17.1023 18.6575 17.0934 18.5775 17.1111C18.3997 17.1111 18.3997 17.1111 18.3375 17.28C18.3278 17.2848 18.3171 17.2872 18.3063 17.2872C18.2956 17.2872 18.2849 17.2848 18.2752 17.28L18.1152 17.3334ZM18.5241 16.6223L18.4175 16.9511H18.6663L18.5241 16.6223Z" fill="#017634"/>
<path d="M19.4136 16.7289L19.7247 17.3245H19.5558L19.3425 16.8801C19.1469 16.9867 19.1914 17.1645 19.1914 17.3245H19.0225V16.3734H19.1647V16.7645L19.3869 16.4712C19.4136 16.4199 19.4586 16.3806 19.5128 16.3608C19.5671 16.3411 19.6269 16.3424 19.6802 16.3645L19.4136 16.7289Z" fill="#017634"/>
<path d="M10.3995 17.3245C10.2395 17.3245 10.2395 17.3245 10.1684 17.1112C10.0706 17.1112 9.97284 17.1112 9.87506 17.1112C9.77729 17.1112 9.82173 17.1645 9.81284 17.1912C9.80395 17.2178 9.81284 17.3423 9.6084 17.3245L9.8484 16.569V16.4623C9.84921 16.4465 9.85353 16.431 9.86104 16.4171C9.86856 16.4032 9.87908 16.3911 9.89185 16.3817C9.90461 16.3724 9.9193 16.366 9.93485 16.363C9.95039 16.36 9.96641 16.3605 9.98173 16.3645C10.0262 16.3645 10.0706 16.3645 10.0884 16.4267C10.2128 16.7201 10.3017 17.0223 10.3995 17.3245ZM9.89284 16.9423H10.1151L9.99951 16.5778L9.89284 16.9423Z" fill="#017634"/>
<path d="M20.764 16.3734H20.9151V16.889C20.9107 16.9511 20.9107 17.0135 20.9151 17.0756C20.9235 17.1132 20.9452 17.1465 20.9763 17.1694C21.0073 17.1923 21.0455 17.2032 21.084 17.2001C21.1201 17.1978 21.154 17.1818 21.1788 17.1554C21.2036 17.129 21.2174 17.0941 21.2173 17.0579V16.3823H21.3773V17.0401C21.3773 17.3245 21.1817 17.3779 20.9862 17.3512C20.7906 17.3245 20.764 17.1912 20.7462 17.0401C20.7284 16.889 20.7462 16.9956 20.7462 16.9779C20.764 16.7734 20.764 16.5779 20.764 16.3734Z" fill="#017634"/>
<path d="M26.0438 17.1823V17.3245H25.4482V16.3734H26.0171V16.5067H25.6882C25.6082 16.5067 25.5727 16.5067 25.5905 16.6134C25.5905 16.6934 25.5905 16.729 25.6882 16.7201C25.786 16.7112 25.8838 16.7201 25.9905 16.7201V16.889H25.6882C25.6171 16.889 25.5816 16.889 25.5816 16.9867C25.5816 17.0845 25.5816 17.1823 25.786 17.1823H26.0438Z" fill="#017634"/>
<path d="M8 16.3734C8.14222 16.3734 8.27556 16.3734 8.41778 16.3734C8.56 16.3734 8.58667 16.4801 8.60444 16.6134C8.62222 16.7467 8.51556 16.9601 8.28444 16.9601H8.12444V17.3245H8V16.3734ZM8.15111 16.809C8.24889 16.809 8.36444 16.809 8.41778 16.7379C8.431 16.7133 8.43793 16.6858 8.43793 16.6579C8.43793 16.6299 8.431 16.6024 8.41778 16.5779C8.35556 16.489 8.24889 16.5156 8.15111 16.5156V16.809Z" fill="#017634"/>
<path d="M26.8709 16.6312H26.7198C26.7198 16.5334 26.6309 16.4623 26.5154 16.4712C26.4667 16.4794 26.4223 16.5043 26.3899 16.5415C26.3575 16.5788 26.339 16.6262 26.3376 16.6756C26.3243 16.7848 26.3243 16.8953 26.3376 17.0045C26.342 17.0461 26.3617 17.0847 26.3929 17.1126C26.4242 17.1405 26.4646 17.1558 26.5065 17.1556C26.5454 17.1549 26.5829 17.1415 26.6134 17.1174C26.6439 17.0933 26.6657 17.0599 26.6754 17.0223C26.6722 16.9987 26.6722 16.9748 26.6754 16.9512L26.8087 16.9956C26.8087 17.1556 26.7021 17.2889 26.5154 17.3067C26.4355 17.3203 26.3535 17.303 26.2859 17.2585C26.2183 17.2139 26.17 17.1454 26.1509 17.0667C26.1094 16.9761 26.0879 16.8775 26.0879 16.7778C26.0879 16.6781 26.1094 16.5796 26.1509 16.4889C26.1803 16.423 26.2322 16.3697 26.2975 16.3387C26.3627 16.3077 26.4368 16.3011 26.5065 16.3201C26.5638 16.325 26.6182 16.3472 26.6627 16.3837C26.7071 16.4202 26.7394 16.4693 26.7554 16.5245L26.8709 16.6312Z" fill="#017634"/>
<path d="M28.0354 16.3734H28.1776V16.6934L28.3109 16.6223C28.3603 16.6108 28.4123 16.618 28.4566 16.6427C28.501 16.6673 28.5346 16.7076 28.5509 16.7556C28.5909 16.8738 28.5909 17.0019 28.5509 17.1201C28.4976 17.3601 28.3287 17.4045 28.1331 17.2445V17.3245H28.0176L28.0354 16.3734ZM28.4531 16.9867C28.4615 16.9337 28.4615 16.8798 28.4531 16.8267C28.4531 16.8267 28.382 16.7467 28.3465 16.7556C28.3222 16.7586 28.299 16.7674 28.2788 16.7814C28.2587 16.7953 28.2423 16.8139 28.2309 16.8356C28.222 16.9302 28.222 17.0255 28.2309 17.1201C28.2442 17.1428 28.2622 17.1625 28.2836 17.1779C28.3051 17.1932 28.3295 17.2038 28.3554 17.209C28.3554 17.209 28.4354 17.1556 28.462 17.1201C28.4646 17.0749 28.4586 17.0297 28.4442 16.9867H28.4531Z" fill="#017634"/>
<path d="M28.7286 16.3734H28.8619V16.8356C28.8965 16.7979 28.9264 16.7561 28.9508 16.7112C28.9753 16.667 29.0146 16.633 29.0618 16.6151C29.109 16.5972 29.161 16.5966 29.2086 16.6134L29.0753 16.8001C29.0614 16.8343 29.0614 16.8725 29.0753 16.9067C29.1286 17.0401 29.1908 17.1645 29.2442 17.2979C29.1019 17.2979 29.1019 17.2979 29.0486 17.209L28.9508 17.0045C28.8886 17.049 28.8886 17.049 28.8442 17.3067H28.7197L28.7286 16.3734Z" fill="#017634"/>
<path d="M9.28824 16.3734V16.5067H9.05713V17.3245H8.88824V16.5156H8.66602V16.3734H9.28824Z" fill="#017634"/>
<path d="M23.4307 16.5067V16.3734H24.044V16.5067H23.884C23.8307 16.5067 23.8129 16.5067 23.8129 16.5867V17.2712C23.8165 17.2888 23.8165 17.3069 23.8129 17.3245H23.6796V17.2179C23.6796 17.0223 23.6796 16.8179 23.6796 16.6223C23.6796 16.4267 23.6796 16.4979 23.564 16.5067H23.4307Z" fill="#017634"/>
<path d="M27.662 17.3245H27.5553V16.6934C27.5553 16.5157 27.5553 16.5157 27.3776 16.5157H27.3242V16.3823H27.9376V16.5245H27.7953C27.7153 16.5245 27.6976 16.5245 27.6976 16.6134C27.6976 16.8268 27.6976 17.0312 27.6976 17.2357L27.662 17.3245Z" fill="#017634"/>
<path d="M14.2487 16.3734H14.1064V17.3245H14.2487V16.3734Z" fill="#017634"/>
<path d="M24.3286 16.3734H24.1953V17.3245H24.3286V16.3734Z" fill="#017634"/>
</g>
<defs>
<clipPath id="clip0_2707_376323">
<rect width="32" height="32" fill="white"/>
</clipPath>
</defs>
</svg>
