<svg width="32" height="32" viewBox="0 0 32 32" fill="none" xmlns="http://www.w3.org/2000/svg">
<g clip-path="url(#clip0_2707_375543)">
<path d="M15.9998 31.9822C24.8265 31.9822 31.982 24.8267 31.982 16C31.982 7.17325 24.8265 0.0177612 15.9998 0.0177612C7.17306 0.0177612 0.0175781 7.17325 0.0175781 16C0.0175781 24.8267 7.17306 31.9822 15.9998 31.9822Z" fill="white"/>
<path d="M6.69336 16.96L7.47558 16.0711H24.6134L25.4134 16.96H6.69336Z" fill="#0D74BA"/>
<path d="M8.31934 15.1111L9.09267 14.2222H23.0038L23.7771 15.1111H8.31934Z" fill="#0D74BA"/>
<path d="M9.92871 13.3333L10.7109 12.4445C14.1776 12.4445 17.6176 12.4445 21.0665 12.4445C21.4398 12.4445 21.8043 12.9067 22.1776 13.1467L22.0976 13.2978L9.92871 13.3333Z" fill="#0D74BA"/>
<path d="M19.7779 10.6666L20.5601 11.5555H11.5557L12.3379 10.6666H19.7779Z" fill="#0D74BA"/>
<path d="M15.7599 19.1911L15.3421 20.4444H14.9688V18.0356H15.4399V19.0578L16.3288 18.0267H17.0488L16.2132 18.9778L17.1021 20.3289C17.4132 19.52 17.6976 18.8 17.991 18.0444H18.5065C18.8265 18.8356 19.1465 19.6178 19.4843 20.4622L18.9954 20.5244L18.7465 19.9733H17.7776L17.5465 20.4889H16.5243L15.7599 19.1911ZM18.2221 18.5422L17.9021 19.6356L18.551 19.4756L18.2221 18.5422Z" fill="#0D74BA"/>
<path d="M18.9508 9.77778H13.1553L13.9997 8.79111C15.2797 8.79111 16.5864 8.72889 17.8753 8.83556C18.2219 8.88889 18.5331 9.37778 18.9508 9.77778Z" fill="#0D74BA"/>
<path d="M13.333 18.0267H13.8574L14.8352 20.4444H14.3285C14.2396 20.2756 14.1596 20.1156 14.0707 19.9289H13.1818C12.5774 20.9867 11.5641 20.2222 10.7285 20.5511V18.08H11.2174V20.1067H12.5063C12.773 19.4489 13.0485 18.7645 13.333 18.0267ZM13.9196 19.5556L13.5818 18.5422C13.4663 18.9689 13.3863 19.2445 13.2885 19.5911L13.9196 19.5556Z" fill="#0D74BA"/>
<path d="M20.0267 18.7111C20.2059 18.8076 20.3933 18.8879 20.5867 18.9511C21.0578 19.0489 21.4756 19.2178 21.4756 19.7956C21.4756 20.3733 21.1023 20.4711 20.6578 20.4889C20.5207 20.5186 20.3787 20.5184 20.2417 20.4883C20.1046 20.4583 19.9756 20.3991 19.8635 20.3147C19.7513 20.2304 19.6586 20.1229 19.5917 19.9996C19.5248 19.8763 19.4852 19.74 19.4756 19.6L20.4534 20.0889L21.0045 19.9022V19.6889C20.7993 19.6269 20.6023 19.5403 20.4178 19.4311C20.0865 19.2306 19.7944 18.9716 19.5556 18.6667C19.5023 18.5956 19.7956 18.16 20.0089 18.0533C20.2099 17.9531 20.4394 17.9257 20.6583 17.976C20.8772 18.0263 21.0718 18.151 21.2089 18.3289C21.28 18.4089 21.3156 18.5067 21.2978 18.7556L20.4089 18.4178L20.0356 18.5067L20.0267 18.7111Z" fill="#0D74BA"/>
<path d="M8.88827 19.9377L8.64827 20.4444H8.1416C8.4616 19.5555 8.76382 18.8089 9.07494 18.0089H9.61716L10.5949 20.4444H10.0794C9.99938 20.2666 9.91938 20.1066 9.83049 19.9289L8.88827 19.9377ZM9.0216 19.5911H9.67049L9.35049 18.5955C9.21716 18.9955 9.13716 19.2622 9.0216 19.6266V19.5911Z" fill="#0D74BA"/>
<path d="M22.2222 19.9288L21.9999 20.4533H21.4844L22.4266 18.0089H22.9422C23.2622 18.8177 23.591 19.6089 23.9288 20.4533H23.4133C23.3333 20.2755 23.2533 20.1155 23.1644 19.9377L22.2222 19.9288ZM22.3644 19.5911L23.0044 19.4311C22.9066 19.1822 22.8266 18.9422 22.6844 18.5422C22.5333 18.9866 22.4533 19.2622 22.3466 19.5555L22.3644 19.5911Z" fill="#0D74BA"/>
<path d="M6.14225 20.5689H3.47559L4.23114 19.68H6.89781L6.14225 20.5689Z" fill="#0D74BA"/>
<path d="M25.9285 20.5511L25.1641 19.6622H27.8307L28.6041 20.5511H25.9285Z" fill="#0D74BA"/>
<path d="M8.45345 17.9911L7.78678 18.7555H5.12012L5.80456 17.9911H8.45345Z" fill="#0D74BA"/>
<path d="M26.3998 18.0267L26.8887 18.7467H24.3376L23.6709 18.0267H26.3998Z" fill="#0D74BA"/>
<path d="M14.8887 7.79556L16.0531 6.51556L17.1909 7.79556H14.8887Z" fill="#0D74BA"/>
<path d="M18.2224 18.5422L18.5424 19.4756L17.8936 19.6356L18.2224 18.5422Z" fill="#FBFCFD"/>
<path d="M13.9197 19.5555H13.333C13.4308 19.2089 13.5108 18.9333 13.6263 18.5067L13.9197 19.5555Z" fill="#FBFCFD"/>
<path d="M9.02246 19.5555L9.34246 18.5244C9.47579 18.9155 9.56468 19.1822 9.67135 19.52L9.02246 19.5555Z" fill="#FBFCFD"/>
<path d="M22.3467 19.5555C22.4533 19.2267 22.5333 18.9511 22.6667 18.5333C22.8089 18.9067 22.8889 19.1467 22.9867 19.4222L22.3467 19.5555Z" fill="#FBFCFD"/>
</g>
<defs>
<clipPath id="clip0_2707_375543">
<rect width="32" height="32" fill="white"/>
</clipPath>
</defs>
</svg>
