<svg width="32" height="32" viewBox="0 0 32 32" fill="none" xmlns="http://www.w3.org/2000/svg">
<g clip-path="url(#clip0_2707_375028)">
<path d="M15.9998 31.9822C24.8265 31.9822 31.982 24.8267 31.982 16C31.982 7.17325 24.8265 0.0177612 15.9998 0.0177612C7.17306 0.0177612 0.0175781 7.17325 0.0175781 16C0.0175781 24.8267 7.17306 31.9822 15.9998 31.9822Z" fill="white"/>
<path d="M16.0535 15.4666C16.0535 16.2044 16.0535 17.9555 16.0535 18.4355H15.1113V14.0889C15.3072 13.9702 15.5413 13.9316 15.7649 13.9813C15.9884 14.031 16.1842 14.165 16.3113 14.3555C16.6758 14.7911 17.0758 15.1911 17.5113 15.6622C17.9024 15.2355 18.2847 14.8533 18.6224 14.4266C18.7486 14.2305 18.9401 14.0855 19.163 14.0171C19.3859 13.9488 19.6258 13.9616 19.8402 14.0533V18.4977H18.9513V15.4044L18.0624 16.4177C17.5558 16.9689 17.538 16.96 17.0224 16.4177L16.0535 15.4666Z" fill="black"/>
<path d="M23.3779 16.0622C23.6215 16.1965 23.8248 16.3933 23.967 16.6324C24.1092 16.8714 24.185 17.1441 24.1868 17.4222C24.1334 17.7071 23.9828 17.9647 23.7607 18.1511C23.5387 18.3375 23.2589 18.4412 22.969 18.4444C22.2223 18.4978 21.4668 18.4444 20.6846 18.4444V14C21.3446 13.9554 22.0068 13.9554 22.6668 14C23.7868 14.2222 24.1068 15.1555 23.3779 16.0622ZM21.6001 17.7422H22.2223H22.6312C22.9423 17.6978 23.2179 17.5822 23.2535 17.2178C23.289 16.8533 23.0401 16.72 22.5868 16.6755C22.2759 16.6577 21.9643 16.6577 21.6535 16.6755L21.6001 17.7422ZM21.6001 15.8578C21.8988 15.8903 22.2009 15.8631 22.489 15.7778C22.587 15.7235 22.6664 15.6412 22.7171 15.5414C22.7678 15.4416 22.7875 15.3288 22.7735 15.2178C22.7702 15.1235 22.7376 15.0326 22.6803 14.9577C22.6229 14.8828 22.5436 14.8277 22.4535 14.8C22.1761 14.741 21.8916 14.723 21.609 14.7466L21.6001 15.8578Z" fill="black"/>
<path d="M29.3331 18.4711H28.2931C28.2931 18.4711 27.7775 17.4844 27.6442 17.2444H25.7775C25.582 17.6444 25.3864 18.0533 25.182 18.4533H24.1953L25.502 15.7156C25.742 15.2267 25.9731 14.7289 26.2309 14.2489C26.4886 13.7689 26.9153 13.7956 27.1198 14.1956C27.8309 15.5644 29.3331 18.4711 29.3331 18.4711ZM27.2442 16.4444L26.6664 15.3333L26.1598 16.4444H27.2442Z" fill="black"/>
<path fill-rule="evenodd" clip-rule="evenodd" d="M12.3822 14.5689L10.7377 16.2044L9.04883 14.5067L10.6133 12.7822L12.3822 14.5689Z" fill="url(#paint0_linear_2707_375028)"/>
<path fill-rule="evenodd" clip-rule="evenodd" d="M9.29767 20.5689L7.66211 18.9244L11.5554 15.0489C11.6885 14.8794 11.7695 14.6749 11.7884 14.4603C11.8073 14.2456 11.7635 14.0301 11.6621 13.84C12.1885 14.2431 12.5968 14.7804 12.8443 15.3955C12.9765 15.708 13.0223 16.0502 12.977 16.3864C12.9316 16.7226 12.7968 17.0404 12.5866 17.3066L9.29767 20.5689Z" fill="url(#paint1_linear_2707_375028)"/>
<path fill-rule="evenodd" clip-rule="evenodd" d="M3.3418 17.4311L4.98624 15.7955L8.88846 19.6889C9.05792 19.8219 9.26242 19.9029 9.47706 19.9218C9.69169 19.9408 9.90721 19.8969 10.0974 19.7955C9.69525 20.3209 9.15742 20.7266 8.5418 20.9689C8.23053 21.1042 7.88839 21.1525 7.55183 21.1087C7.21527 21.0648 6.89691 20.9305 6.63069 20.72L3.3418 17.4311Z" fill="url(#paint2_linear_2707_375028)"/>
<path fill-rule="evenodd" clip-rule="evenodd" d="M6.42648 11.4311L8.06204 13.0755L4.17759 16.9511C4.04451 17.1206 3.96357 17.3251 3.94464 17.5397C3.9257 17.7543 3.96958 17.9698 4.07093 18.16C3.83556 17.9732 3.62099 17.7616 3.43093 17.5289C3.19784 17.2679 3.01412 16.9667 2.8887 16.64C2.75461 16.3279 2.70776 15.9853 2.75316 15.6488C2.79856 15.3122 2.9345 14.9942 3.14648 14.7289L6.42648 11.4311Z" fill="url(#paint3_linear_2707_375028)"/>
<path fill-rule="evenodd" clip-rule="evenodd" d="M10.6668 12.8444L9.06675 14.5333L6.85342 12.3111C6.68396 12.178 6.47946 12.0971 6.26482 12.0781C6.05019 12.0592 5.83468 12.1031 5.64453 12.2044C6.04663 11.6791 6.58447 11.2734 7.20009 11.0311C7.51155 10.8967 7.8535 10.8489 8.18987 10.8927C8.52623 10.9365 8.84454 11.0703 9.1112 11.28L10.6668 12.8444Z" fill="url(#paint4_linear_2707_375028)"/>
</g>
<defs>
<linearGradient id="paint0_linear_2707_375028" x1="8.43647" y1="11.2769" x2="11.6276" y2="14.2547" gradientUnits="userSpaceOnUse">
<stop stop-color="#FEE31A"/>
<stop offset="1" stop-color="#C7971D"/>
</linearGradient>
<linearGradient id="paint1_linear_2707_375028" x1="10.8021" y1="17.6457" x2="7.63767" y2="20.9613" gradientUnits="userSpaceOnUse">
<stop stop-color="#FEE31A"/>
<stop offset="1" stop-color="#C7971D"/>
</linearGradient>
<linearGradient id="paint2_linear_2707_375028" x1="6.94989" y1="21.3386" x2="3.20766" y2="17.8274" gradientUnits="userSpaceOnUse">
<stop stop-color="#FEE31A"/>
<stop offset="1" stop-color="#C7971D"/>
</linearGradient>
<linearGradient id="paint3_linear_2707_375028" x1="3.19733" y1="15.5397" x2="7.11733" y2="11.9397" gradientUnits="userSpaceOnUse">
<stop stop-color="#FEE31A"/>
<stop offset="1" stop-color="#C7971D"/>
</linearGradient>
<linearGradient id="paint4_linear_2707_375028" x1="8.25795" y1="11.4683" x2="11.4491" y2="14.4461" gradientUnits="userSpaceOnUse">
<stop stop-color="#FEE31A"/>
<stop offset="1" stop-color="#C7971D"/>
</linearGradient>
<clipPath id="clip0_2707_375028">
<rect width="32" height="32" fill="white"/>
</clipPath>
</defs>
</svg>
