<svg width="32" height="32" viewBox="0 0 32 32" fill="none" xmlns="http://www.w3.org/2000/svg">
<g clip-path="url(#clip0_2707_373763)">
<path d="M15.9998 31.9823C24.8265 31.9823 31.982 24.8268 31.982 16C31.982 7.17331 24.8265 0.0178223 15.9998 0.0178223C7.17306 0.0178223 0.0175781 7.17331 0.0175781 16C0.0175781 24.8268 7.17306 31.9823 15.9998 31.9823Z" fill="white"/>
<path d="M7.8306 12.9956C7.81046 13.0318 7.7955 13.0707 7.78615 13.1111C7.37726 14.2223 6.97726 15.28 6.57726 16.3734C6.06171 17.7778 5.53726 19.2089 5.01282 20.6223C5.01655 20.6637 5.01655 20.7053 5.01282 20.7467C4.98466 20.7954 4.94029 20.8327 4.88746 20.852C4.83462 20.8713 4.77667 20.8715 4.72374 20.8524C4.67081 20.8334 4.62625 20.7963 4.59785 20.7477C4.56946 20.6992 4.55902 20.6422 4.56837 20.5867C4.63948 20.3556 4.72837 20.1334 4.80837 19.9023L5.88393 16.9867L7.00393 13.9467C7.19059 13.4311 7.36837 12.9156 7.57282 12.4089C7.60279 12.3385 7.61443 12.2616 7.60666 12.1854C7.59889 12.1093 7.57196 12.0363 7.52837 11.9734C7.52837 12.0267 7.47504 12.0534 7.46615 12.08C7.00393 13.3156 6.57726 14.5511 6.08837 15.7867C5.59948 17.0223 5.11948 18.4 4.63059 19.6978C4.51504 20.0267 4.39059 20.3467 4.27504 20.6756C4.20393 20.8445 4.08837 20.9245 3.95504 20.8889C3.82171 20.8534 3.75059 20.7023 3.81282 20.5245C4.25726 19.3156 4.70171 18.1067 5.16393 16.8978C5.62615 15.6889 6.05282 14.4267 6.54171 13.1911C6.76393 12.6134 6.96837 12.0356 7.19059 11.4578C7.19059 11.3867 7.26171 11.3156 7.29726 11.2445C7.33282 11.1734 8.67504 15.1111 8.62171 15.0045C8.62171 15.0489 8.57726 15.0845 8.55948 15.1378C8.28393 15.8934 8.01726 16.6489 7.74171 17.4134L6.53282 20.6756C6.47948 20.8445 6.35504 20.9245 6.23948 20.8889C6.20215 20.8768 6.16795 20.8565 6.13934 20.8297C6.11073 20.8028 6.08841 20.7699 6.07397 20.7334C6.05954 20.6969 6.05334 20.6576 6.05583 20.6184C6.05832 20.5792 6.06943 20.5411 6.08837 20.5067C6.31948 19.8756 6.54171 19.2356 6.77282 18.6045L7.99948 15.1111C8.08837 14.8445 8.19504 14.5867 8.29282 14.32C8.29282 14.1956 8.29282 14.1067 8.20393 13.9734C8.17608 14.0109 8.15502 14.053 8.14171 14.0978L7.11059 16.8889L5.93726 20.2134L5.75059 20.7111C5.73243 20.7682 5.69501 20.8171 5.64473 20.8495C5.59446 20.8819 5.53446 20.8959 5.47504 20.8889C5.44175 20.8785 5.41113 20.8609 5.38531 20.8375C5.3595 20.814 5.33911 20.7852 5.32557 20.753C5.31203 20.7209 5.30567 20.6862 5.30692 20.6513C5.30817 20.6164 5.31701 20.5823 5.33282 20.5512C5.50171 20.0711 5.67059 19.5911 5.84837 19.12L7.28837 15.1111C7.49282 14.5334 7.69726 13.9645 7.91948 13.3956C7.98171 13.2356 7.91948 13.1378 7.86615 13.0134L7.8306 12.9956Z" fill="black"/>
<path d="M10.7375 20.6934C10.6486 20.4712 7.18192 11.3157 7.25303 11.2445C7.27246 11.1963 7.3076 11.156 7.35276 11.1302C7.39793 11.1044 7.45048 11.0946 7.50192 11.1023C7.61748 11.1023 7.64414 11.2001 7.6797 11.2712C7.83081 11.6801 7.98192 12.089 8.12414 12.489L8.68414 14.0001L11.1019 20.4979C11.1234 20.5704 11.1234 20.6476 11.1019 20.7201C11.0898 20.7615 11.0636 20.7974 11.028 20.8217C10.9923 20.846 10.9494 20.8572 10.9064 20.8534C10.8662 20.845 10.8291 20.8255 10.7993 20.7973C10.7695 20.7691 10.7481 20.7331 10.7375 20.6934Z" fill="url(#paint0_linear_2707_373763)"/>
<path d="M9.89358 11.1112C9.99136 11.1112 10.0358 11.1645 10.0714 11.2623C10.2225 11.6534 10.3647 12.0445 10.5069 12.4445L11.458 15.0045C11.7691 15.8312 12.0891 16.649 12.3469 17.4668C12.6047 18.2845 12.9869 19.2445 13.3069 20.0623L13.4847 20.5334C13.4993 20.5605 13.5079 20.5903 13.5099 20.621C13.5119 20.6516 13.5073 20.6824 13.4963 20.7111C13.4853 20.7398 13.4683 20.7658 13.4463 20.7873C13.4244 20.8088 13.3981 20.8253 13.3691 20.8357C13.2625 20.8357 13.1469 20.8357 13.0936 20.6757L12.7202 19.5557C12.4891 18.9245 12.2491 18.2934 12.018 17.6712L11.1291 15.1112C10.9069 14.5157 10.6847 13.929 10.4714 13.3334C10.258 12.7379 9.97358 12.0268 9.73358 11.3779C9.6358 11.2179 9.7158 11.1112 9.89358 11.1112Z" fill="url(#paint1_linear_2707_373763)"/>
<path d="M8.27527 11.1111C8.38194 11.1111 8.43527 11.1645 8.47083 11.2534L8.77305 12.08C9.10194 12.9689 9.42194 13.8578 9.74194 14.6934C9.99083 15.36 10.2308 16.0267 10.4797 16.6845C10.7286 17.3422 11.0219 18.1156 11.2886 18.8356C11.5108 19.4134 11.7153 19.9822 11.9286 20.56C11.9475 20.6134 11.9462 20.6718 11.9249 20.7242C11.9036 20.7766 11.8638 20.8194 11.813 20.8445C11.76 20.8615 11.7024 20.857 11.6526 20.8321C11.6027 20.8072 11.5646 20.7638 11.5464 20.7111C11.4753 20.5422 11.413 20.3734 11.3508 20.2045C11.173 19.7067 10.9864 19.2178 10.8086 18.72L9.77749 15.8311L8.97749 13.6889L8.0886 11.3778C8.07688 11.3478 8.07275 11.3154 8.07658 11.2834C8.08041 11.2514 8.09208 11.2209 8.11055 11.1945C8.12902 11.1681 8.15372 11.1467 8.18245 11.1322C8.21119 11.1176 8.24307 11.1104 8.27527 11.1111Z" fill="url(#paint2_linear_2707_373763)"/>
<path d="M9.08423 11.1111C9.1041 11.1073 9.12454 11.1075 9.14434 11.1117C9.16413 11.1159 9.18288 11.1241 9.19946 11.1357C9.21604 11.1473 9.23012 11.1621 9.24087 11.1793C9.25161 11.1964 9.2588 11.2156 9.26201 11.2356L9.77756 12.5156L10.1242 13.4045C10.3376 13.9911 10.542 14.5689 10.7642 15.1822L11.3776 16.8089L12.3109 19.2978L12.7731 20.5511C12.785 20.5768 12.7917 20.6045 12.7927 20.6328C12.7938 20.661 12.7892 20.6892 12.7793 20.7157C12.7693 20.7421 12.7543 20.7663 12.7349 20.7869C12.7155 20.8075 12.6923 20.8241 12.6664 20.8356C12.6427 20.8471 12.6169 20.8534 12.5905 20.8542C12.5642 20.855 12.538 20.8502 12.5136 20.8401C12.4893 20.83 12.4673 20.8149 12.4492 20.7957C12.4311 20.7766 12.4173 20.7538 12.4087 20.7289C12.3376 20.5778 12.2842 20.4178 12.222 20.2578L11.7064 18.8622C11.5198 18.3645 11.342 17.8667 11.1642 17.3689L10.4976 15.5911C10.1242 14.5956 9.75978 13.5911 9.38645 12.5956L8.88867 11.4667C8.88867 11.4667 8.88867 11.4045 8.88867 11.3689C8.88867 11.3333 8.88867 11.1022 9.08423 11.1111Z" fill="url(#paint3_linear_2707_373763)"/>
<path d="M13.582 15.4933C13.9554 14.8178 14.2931 14.1778 14.6487 13.5467C14.7287 13.3955 15.0487 13.3511 15.1287 13.4933C15.4931 14.1422 15.8487 14.8 16.2398 15.5111C16.0952 15.5297 15.9488 15.5297 15.8043 15.5111C15.7609 15.4971 15.721 15.474 15.6873 15.4433C15.6535 15.4127 15.6268 15.3752 15.6087 15.3333C15.581 15.2569 15.528 15.1923 15.4584 15.1503C15.3889 15.1082 15.307 15.0913 15.2265 15.1022C14.9837 15.1155 14.7404 15.1155 14.4976 15.1022C14.3909 15.1022 14.3109 15.1022 14.2665 15.2355C14.142 15.5911 13.8843 15.52 13.582 15.4933ZM15.2709 14.7289L14.8976 14.0444C14.7731 14.2933 14.6665 14.4889 14.542 14.7289H15.2709Z" fill="black"/>
<path d="M17.6973 17.1111V16.4445H18.1506V18.5511H18.0973C17.8217 18.5511 17.5462 18.5956 17.2795 18.5511C17.1133 18.5564 16.9498 18.5081 16.8133 18.4131C16.6768 18.3182 16.5745 18.1818 16.5216 18.0241C16.4687 17.8665 16.4681 17.696 16.5197 17.5379C16.5714 17.3799 16.6726 17.2427 16.8084 17.1467C16.9404 17.0632 17.092 17.0159 17.2481 17.0097C17.4041 17.0035 17.5591 17.0384 17.6973 17.1111ZM17.6973 17.8311C17.6973 17.7067 17.6973 17.5289 17.5995 17.4578C17.5351 17.4146 17.4593 17.3916 17.3817 17.3916C17.3042 17.3916 17.2284 17.4146 17.164 17.4578H17.1195C17.0337 17.511 16.969 17.5925 16.9366 17.6881C16.9041 17.7838 16.906 17.8878 16.9417 17.9822C16.9797 18.0833 17.0525 18.1674 17.1471 18.2196C17.2416 18.2717 17.3516 18.2884 17.4573 18.2667C17.6529 18.2667 17.6706 18.2045 17.6706 17.8845L17.6973 17.8311Z" fill="black"/>
<path d="M19.9823 14.0178C20.1348 13.9867 20.2893 13.9659 20.4446 13.9556C20.889 13.9556 21.1112 14.2045 21.1112 14.6845V15.4934H20.649V14.72C20.649 14.5778 20.649 14.4267 20.5157 14.3556C20.4481 14.312 20.3694 14.2887 20.289 14.2887C20.2086 14.2887 20.1299 14.312 20.0623 14.3556C20.0111 14.4149 19.9827 14.4905 19.9823 14.5689C19.9823 14.8623 19.9823 15.1645 19.9823 15.4578H19.5557V13.3778H19.9912L19.9823 14.0178Z" fill="black"/>
<path d="M24.2305 18.0001H22.8971C23.0838 18.3201 23.3149 18.3645 23.786 18.169L24.0705 18.409C23.899 18.53 23.6991 18.6042 23.4902 18.6245C23.2814 18.6448 23.0709 18.6103 22.8794 18.5245C22.7428 18.4696 22.6258 18.3751 22.5434 18.2531C22.461 18.1311 22.417 17.9873 22.417 17.8401C22.417 17.6929 22.461 17.5491 22.5434 17.4271C22.6258 17.3051 22.7428 17.2106 22.8794 17.1557C23.055 17.0584 23.256 17.0166 23.4559 17.0356C23.6557 17.0546 23.8452 17.1337 23.9994 17.2623C24.1077 17.3477 24.1878 17.4638 24.2291 17.5955C24.2703 17.7271 24.2708 17.8682 24.2305 18.0001ZM23.7327 17.6534C23.6985 17.5733 23.6416 17.5049 23.5689 17.4568C23.4962 17.4088 23.4109 17.3832 23.3238 17.3832C23.2367 17.3832 23.1514 17.4088 23.0787 17.4568C23.006 17.5049 22.9491 17.5733 22.9149 17.6534H23.7327Z" fill="black"/>
<path d="M19.3867 18.6667C19.2501 18.6795 19.1124 18.6604 18.9844 18.6111C18.8564 18.5617 18.7416 18.4834 18.6489 18.3823C18.582 18.3169 18.5288 18.2388 18.4925 18.1525C18.4562 18.0663 18.4375 17.9736 18.4375 17.8801C18.4375 17.7865 18.4562 17.6939 18.4925 17.6076C18.5288 17.5214 18.582 17.4432 18.6489 17.3778C18.8375 17.1973 19.0862 17.093 19.3471 17.0848C19.608 17.0765 19.8627 17.1651 20.0623 17.3334C20.1396 17.401 20.2016 17.4843 20.2441 17.5778C20.2866 17.6714 20.3085 17.7729 20.3085 17.8756C20.3085 17.9783 20.2866 18.0799 20.2441 18.1734C20.2016 18.2669 20.1396 18.3503 20.0623 18.4178C19.8784 18.5861 19.6358 18.6755 19.3867 18.6667ZM19.3867 18.3112C19.4453 18.316 19.5044 18.3089 19.5602 18.2903C19.616 18.2717 19.6675 18.242 19.7115 18.203C19.7556 18.1639 19.7912 18.1164 19.8164 18.0632C19.8415 18.0099 19.8556 17.9522 19.8578 17.8934C19.8567 17.8315 19.8433 17.7705 19.8186 17.7138C19.7938 17.6571 19.7581 17.6058 19.7136 17.5628C19.669 17.5199 19.6164 17.4862 19.5588 17.4636C19.5012 17.441 19.4397 17.43 19.3778 17.4312C19.3183 17.4312 19.2593 17.4429 19.2043 17.4657C19.1493 17.4885 19.0993 17.5219 19.0573 17.5639C19.0152 17.606 18.9818 17.656 18.959 17.711C18.9362 17.766 18.9245 17.825 18.9245 17.8845C18.9396 17.9913 18.993 18.089 19.0747 18.1593C19.1565 18.2296 19.2611 18.2678 19.3689 18.2667L19.3867 18.3112Z" fill="black"/>
<path d="M27.8305 17.6623C27.8155 17.5823 27.7723 17.5104 27.7086 17.4597C27.6449 17.4091 27.5651 17.3832 27.4838 17.3867C27.4158 17.3834 27.3481 17.3988 27.2882 17.4312C27.0927 17.5556 26.9593 17.4312 26.826 17.2712C26.9812 17.1494 27.1664 17.072 27.362 17.0469C27.5576 17.0219 27.7563 17.0502 27.9371 17.1289C28.0422 17.1696 28.1306 17.2441 28.1886 17.3407C28.2465 17.4373 28.2707 17.5504 28.2571 17.6623C28.2571 17.9556 28.2571 18.2578 28.2571 18.5512H28.2038L27.3771 18.6667H27.1727C27.0717 18.6523 26.9781 18.6056 26.906 18.5334C26.8338 18.4613 26.7871 18.3677 26.7727 18.2667C26.7624 18.1631 26.7888 18.0593 26.8473 17.9732C26.9058 17.8871 26.9926 17.8242 27.0927 17.7956C27.229 17.7553 27.3689 17.7285 27.5105 17.7156C27.6154 17.6888 27.7225 17.671 27.8305 17.6623ZM27.8305 17.9467C27.7475 17.9423 27.6645 17.9423 27.5816 17.9467C27.466 17.9467 27.3149 17.9467 27.2882 18.1334C27.2616 18.32 27.4305 18.3112 27.626 18.2845C27.8216 18.2578 27.8749 18.2045 27.8305 17.9467Z" fill="black"/>
<path d="M21.6972 18.5689C21.6972 18.2934 21.6972 18.0445 21.6972 17.7956C21.7077 17.7228 21.6964 17.6485 21.6648 17.5821C21.6331 17.5156 21.5826 17.4601 21.5195 17.4223C21.4475 17.3839 21.3655 17.3684 21.2844 17.3779C21.2034 17.3874 21.1272 17.4215 21.0661 17.4756C21.0192 17.5397 20.9971 17.6187 21.0039 17.6978C21.0039 17.9823 21.0039 18.2667 21.0039 18.5867H20.5684V17.1289C20.8617 17.1289 21.1461 17.1289 21.4572 17.1289C21.875 17.0845 22.1684 17.36 22.1506 17.8667C22.1506 18.1156 22.1506 18.3645 22.1506 18.64L21.6972 18.5689Z" fill="black"/>
<path d="M15.1112 18.5689H14.6846V17.12C14.969 17.12 15.2446 17.12 15.5201 17.0756C15.9912 17.0756 16.249 17.3511 16.2223 17.8311C16.2223 18.08 16.2223 18.3289 16.2223 18.5956H15.7601C15.7601 18.3289 15.7601 18.08 15.7601 17.8222C15.7601 17.5645 15.7601 17.52 15.5912 17.4489C15.5186 17.4129 15.4371 17.3987 15.3566 17.4082C15.2761 17.4176 15.2002 17.4503 15.1379 17.5022C15.1379 17.5022 15.0846 17.6267 15.0757 17.6978L15.1112 18.5689Z" fill="black"/>
<path d="M24.889 17.5378L25.1824 17.6623C25.3277 17.7099 25.4677 17.7724 25.6002 17.8489C25.6555 17.8809 25.7015 17.9269 25.7335 17.9823C25.7654 18.0377 25.7823 18.1005 25.7823 18.1645C25.7823 18.2284 25.7654 18.2913 25.7335 18.3466C25.7015 18.402 25.6555 18.448 25.6002 18.48C25.42 18.5942 25.2063 18.6432 24.9944 18.6189C24.7825 18.5947 24.5854 18.4986 24.4357 18.3467L24.6935 18.1245C24.8979 18.2489 25.0935 18.3911 25.3602 18.1689C25.2681 18.1162 25.1731 18.0687 25.0757 18.0267C24.9424 17.9645 24.8002 17.9378 24.6668 17.8667C24.5951 17.8393 24.5336 17.7905 24.4907 17.7268C24.4477 17.6632 24.4254 17.5879 24.4268 17.5111C24.4269 17.4301 24.4516 17.3511 24.4977 17.2844C24.5437 17.2177 24.6089 17.1666 24.6846 17.1378C24.8601 17.0393 25.0637 17.0033 25.2623 17.0356C25.4609 17.0679 25.6427 17.1666 25.7779 17.3156L25.5113 17.5467C25.3246 17.4045 25.129 17.2978 24.889 17.5378Z" fill="black"/>
<path d="M19.3425 15.2445C19.2427 15.3458 19.1225 15.4248 18.9899 15.4762C18.8573 15.5276 18.7153 15.5503 18.5733 15.5428C18.4313 15.5352 18.2925 15.4976 18.1662 15.4323C18.0398 15.3671 17.9287 15.2758 17.8402 15.1645C17.752 15.0293 17.7111 14.8688 17.724 14.7079C17.7369 14.547 17.8028 14.395 17.9113 14.2756C18.1005 14.0915 18.3541 13.9885 18.618 13.9885C18.882 13.9885 19.1355 14.0915 19.3247 14.2756L19.0669 14.4978C18.9389 14.4388 18.8047 14.3941 18.6669 14.3645C18.5714 14.3529 18.4747 14.3726 18.3913 14.4207C18.308 14.4688 18.2425 14.5426 18.2047 14.6311C18.1675 14.6896 18.1478 14.7574 18.1478 14.8267C18.1478 14.896 18.1675 14.9638 18.2047 15.0223C18.2572 15.1024 18.3332 15.1643 18.4224 15.1993C18.5116 15.2344 18.6095 15.2408 18.7025 15.2178C18.8201 15.1758 18.9332 15.1222 19.0402 15.0578L19.3425 15.2445Z" fill="black"/>
<path d="M14.2758 16.5156H13.8047V18.5601H14.2758V16.5156Z" fill="black"/>
<path d="M16.3994 13.9645L16.8439 14.0356C16.8842 14.0491 16.9279 14.0491 16.9683 14.0356C17.0819 13.9797 17.211 13.9634 17.3349 13.9892C17.4589 14.0149 17.5708 14.0813 17.6527 14.1778L17.4305 14.4711H17.3683C17.0127 14.2578 16.8527 14.3645 16.8439 14.8089V15.5023H16.3994V13.9645Z" fill="black"/>
<path d="M21.8749 14H21.4482V15.4933H21.8749V14Z" fill="black"/>
<path d="M26.4885 17.0934H26.0352V18.5778H26.4885V17.0934Z" fill="black"/>
<path d="M26.4885 16.4445H26.0352V16.8267H26.4885V16.4445Z" fill="black"/>
<path d="M21.8838 13.3689H21.4482V13.7422H21.8838V13.3689Z" fill="black"/>
</g>
<defs>
<linearGradient id="paint0_linear_2707_373763" x1="4.25721" y1="7.71468" x2="6.97721" y2="15.0125" gradientUnits="userSpaceOnUse">
<stop stop-color="#D2AE54"/>
<stop offset="0.55" stop-color="#FEF2B9"/>
<stop offset="1" stop-color="#D1B254"/>
</linearGradient>
<linearGradient id="paint1_linear_2707_373763" x1="6.37411" y1="6.92587" x2="9.09411" y2="14.2237" gradientUnits="userSpaceOnUse">
<stop stop-color="#D2AE54"/>
<stop offset="0.55" stop-color="#FEF2B9"/>
<stop offset="1" stop-color="#D1B254"/>
</linearGradient>
<linearGradient id="paint2_linear_2707_373763" x1="4.91403" y1="7.4698" x2="7.63403" y2="14.7676" gradientUnits="userSpaceOnUse">
<stop stop-color="#D2AE54"/>
<stop offset="0.55" stop-color="#FEF2B9"/>
<stop offset="1" stop-color="#D1B254"/>
</linearGradient>
<linearGradient id="paint3_linear_2707_373763" x1="5.64387" y1="7.19779" x2="8.36387" y2="14.4956" gradientUnits="userSpaceOnUse">
<stop stop-color="#D2AE54"/>
<stop offset="0.55" stop-color="#FEF2B9"/>
<stop offset="1" stop-color="#D1B254"/>
</linearGradient>
<clipPath id="clip0_2707_373763">
<rect width="32" height="32" fill="white"/>
</clipPath>
</defs>
</svg>
