<svg width="32" height="32" viewBox="0 0 32 32" fill="none" xmlns="http://www.w3.org/2000/svg">
<g clip-path="url(#clip0_2707_373558)">
<path d="M15.9998 31.9823C24.8265 31.9823 31.982 24.8268 31.982 16C31.982 7.17331 24.8265 0.0178223 15.9998 0.0178223C7.17306 0.0178223 0.0175781 7.17331 0.0175781 16C0.0175781 24.8268 7.17306 31.9823 15.9998 31.9823Z" fill="white"/>
<path fill-rule="evenodd" clip-rule="evenodd" d="M9.58203 17.1112V13.7779C9.58555 13.1225 9.78321 12.4829 10.1501 11.9398C10.5169 11.3967 11.0365 10.9745 11.6431 10.7266C12.2498 10.4786 12.9163 10.416 13.5585 10.5467C14.2007 10.6773 14.7898 10.9954 15.2514 11.4606C15.7129 11.9259 16.0263 12.5175 16.1517 13.1608C16.2772 13.804 16.2093 14.4701 15.9565 15.0747C15.7036 15.6793 15.2773 16.1955 14.7313 16.558C14.1853 16.9204 13.5441 17.113 12.8887 17.1112H9.58203Z" fill="url(#paint0_linear_2707_373558)"/>
<path fill-rule="evenodd" clip-rule="evenodd" d="M9.58203 17.1112V13.7779C9.58555 13.1225 9.78321 12.4829 10.1501 11.9398C10.5169 11.3967 11.0365 10.9745 11.6431 10.7266C12.2498 10.4786 12.9163 10.416 13.5585 10.5467C14.2007 10.6773 14.7898 10.9954 15.2514 11.4606C15.7129 11.9259 16.0263 12.5175 16.1517 13.1608C16.2772 13.804 16.2093 14.4701 15.9565 15.0747C15.7036 15.6793 15.2773 16.1955 14.7313 16.558C14.1853 16.9204 13.5441 17.113 12.8887 17.1112H9.58203ZM9.73314 16.9601V13.7779C9.73666 13.1524 9.92546 12.542 10.2757 12.0238C10.6259 11.5055 11.1219 11.1027 11.7009 10.8662C12.28 10.6297 12.9161 10.57 13.529 10.6949C14.1419 10.8197 14.7041 11.1234 15.1445 11.5675C15.585 12.0116 15.8839 12.5763 16.0035 13.1903C16.1232 13.8042 16.0582 14.4398 15.8168 15.0169C15.5755 15.5939 15.1685 16.0865 14.6473 16.4323C14.1262 16.7782 13.5142 16.9618 12.8887 16.9601H9.73314Z" fill="#9D9A18"/>
<path fill-rule="evenodd" clip-rule="evenodd" d="M9.63575 14.6844V18.0089C9.63224 18.6621 9.43532 19.2997 9.06985 19.8411C8.70438 20.3825 8.18673 20.8036 7.58222 21.0511C6.9777 21.2987 6.31341 21.3617 5.67315 21.2321C5.0329 21.1025 4.44537 20.7862 3.9847 20.323C3.52403 19.8599 3.21087 19.2706 3.08471 18.6297C2.95856 17.9888 3.02507 17.3248 3.27586 16.7216C3.52664 16.1185 3.95047 15.6031 4.49386 15.2405C5.03724 14.8779 5.67584 14.6845 6.32908 14.6844H9.63575Z" fill="url(#paint1_linear_2707_373558)"/>
<path fill-rule="evenodd" clip-rule="evenodd" d="M9.63575 14.6844V18.0089C9.63224 18.6621 9.43532 19.2997 9.06985 19.8411C8.70438 20.3825 8.18673 20.8036 7.58222 21.0511C6.9777 21.2987 6.31341 21.3617 5.67315 21.2321C5.0329 21.1025 4.44537 20.7862 3.9847 20.323C3.52403 19.8599 3.21087 19.2706 3.08471 18.6297C2.95856 17.9888 3.02507 17.3248 3.27586 16.7216C3.52664 16.1185 3.95047 15.6031 4.49386 15.2405C5.03724 14.8779 5.67584 14.6845 6.32908 14.6844H9.63575ZM9.49353 14.8267V18.0089C9.49001 18.634 9.30144 19.244 8.9516 19.7621C8.60176 20.2801 8.10632 20.683 7.52779 20.9198C6.94927 21.1565 6.31357 21.2167 5.7009 21.0926C5.08824 20.9685 4.52605 20.6657 4.08527 20.2224C3.64449 19.7792 3.34487 19.2153 3.2242 18.602C3.10354 17.9886 3.16723 17.3533 3.40726 16.7761C3.64728 16.1989 4.05287 15.7057 4.57287 15.3588C5.09287 15.0118 5.70397 14.8267 6.32908 14.8267H9.49353Z" fill="#9D9A18"/>
<path fill-rule="evenodd" clip-rule="evenodd" d="M9.97266 16.72V13.7867C9.97617 13.2108 10.1501 12.6489 10.4726 12.1718C10.7951 11.6947 11.2517 11.3237 11.7847 11.1058C12.3178 10.8878 12.9034 10.8326 13.4678 10.9471C14.0322 11.0616 14.5501 11.3407 14.956 11.7491C15.362 12.1576 15.6379 12.6771 15.749 13.2422C15.86 13.8073 15.8013 14.3926 15.5801 14.9243C15.3589 15.456 14.9852 15.9103 14.5061 16.2299C14.0271 16.5495 13.4641 16.72 12.8882 16.72H9.97266Z" fill="url(#paint2_linear_2707_373558)"/>
<path fill-rule="evenodd" clip-rule="evenodd" d="M9.97266 16.72V13.7867C9.97617 13.2108 10.1501 12.6489 10.4726 12.1718C10.7951 11.6947 11.2517 11.3237 11.7847 11.1058C12.3178 10.8878 12.9034 10.8326 13.4678 10.9471C14.0322 11.0616 14.5501 11.3407 14.956 11.7491C15.362 12.1576 15.6379 12.6771 15.749 13.2422C15.86 13.8073 15.8013 14.3926 15.5801 14.9243C15.3589 15.456 14.9852 15.9103 14.5061 16.2299C14.0271 16.5495 13.4641 16.72 12.8882 16.72H9.97266ZM10.1238 16.5689V13.7867C10.1255 13.2382 10.2899 12.7025 10.5961 12.2474C10.9023 11.7923 11.3366 11.4383 11.844 11.23C12.3514 11.0217 12.9092 10.9686 13.4469 11.0773C13.9845 11.186 14.4778 11.4518 14.8644 11.8408C15.251 12.2299 15.5136 12.725 15.6188 13.2633C15.7241 13.8016 15.6674 14.359 15.4559 14.8651C15.2444 15.3712 14.8875 15.8032 14.4305 16.1065C13.9734 16.4097 13.4367 16.5707 12.8882 16.5689H10.1238Z" fill="#9D9A18"/>
<path fill-rule="evenodd" clip-rule="evenodd" d="M9.24414 15.1112V18.0445C9.24063 18.6204 9.06666 19.1823 8.74417 19.6595C8.42167 20.1366 7.96511 20.5075 7.43206 20.7255C6.89901 20.9434 6.31336 20.9986 5.74897 20.8841C5.18459 20.7696 4.66675 20.4905 4.26078 20.0821C3.85481 19.6736 3.57889 19.1541 3.46782 18.5891C3.35676 18.024 3.41552 17.4387 3.63671 16.907C3.85789 16.3752 4.23159 15.9209 4.71066 15.6014C5.18972 15.2818 5.75271 15.1112 6.32859 15.1112H9.24414Z" fill="url(#paint3_linear_2707_373558)"/>
<path fill-rule="evenodd" clip-rule="evenodd" d="M9.24414 15.1112V18.0445C9.24063 18.6204 9.06666 19.1823 8.74417 19.6595C8.42167 20.1366 7.96511 20.5075 7.43206 20.7255C6.89901 20.9434 6.31336 20.9986 5.74897 20.8841C5.18459 20.7696 4.66675 20.4905 4.26078 20.0821C3.85481 19.6736 3.57889 19.1541 3.46782 18.5891C3.35676 18.024 3.41552 17.4387 3.63671 16.907C3.85789 16.3752 4.23159 15.9209 4.71066 15.6014C5.18972 15.2818 5.75271 15.1112 6.32859 15.1112H9.24414ZM9.10192 15.2623V18.0445C9.10017 18.5927 8.93602 19.128 8.63022 19.5829C8.32441 20.0378 7.89067 20.3919 7.38375 20.6004C6.87684 20.809 6.3195 20.8626 5.78211 20.7546C5.24472 20.6466 4.75139 20.3818 4.36443 19.9936C3.97746 19.6053 3.7142 19.1112 3.60791 18.5734C3.50162 18.0357 3.55706 17.4785 3.76722 16.9723C3.97739 16.4661 4.33286 16.0334 4.78874 15.7291C5.24461 15.4248 5.78045 15.2623 6.32859 15.2623H9.10192Z" fill="#9D9A18"/>
<path fill-rule="evenodd" clip-rule="evenodd" d="M10.4082 16.2845V13.7867C10.41 13.2945 10.5577 12.8138 10.8326 12.4055C11.1075 11.9972 11.4974 11.6796 11.9528 11.4928C12.4083 11.3061 12.9089 11.2586 13.3914 11.3563C13.8738 11.4541 14.3164 11.6927 14.6633 12.042C15.0101 12.3914 15.2456 12.8357 15.3399 13.3188C15.4342 13.8019 15.3831 14.3022 15.1931 14.7563C15.0031 15.2104 14.6827 15.598 14.2724 15.87C13.8622 16.142 13.3805 16.2863 12.8882 16.2845H10.4082Z" fill="url(#paint4_linear_2707_373558)"/>
<path fill-rule="evenodd" clip-rule="evenodd" d="M10.4082 16.2845V13.7867C10.41 13.2945 10.5577 12.8138 10.8326 12.4055C11.1075 11.9972 11.4974 11.6796 11.9528 11.4928C12.4083 11.3061 12.9089 11.2586 13.3914 11.3563C13.8738 11.4541 14.3164 11.6927 14.6633 12.042C15.0101 12.3914 15.2456 12.8357 15.3399 13.3188C15.4342 13.8019 15.3831 14.3022 15.1931 14.7563C15.0031 15.2104 14.6827 15.598 14.2724 15.87C13.8622 16.142 13.3805 16.2863 12.8882 16.2845H10.4082ZM10.5593 16.1423V13.7867C10.5628 13.3248 10.7031 12.8742 10.9625 12.4919C11.2219 12.1096 11.5888 11.8128 12.0168 11.6388C12.4448 11.4649 12.9147 11.4216 13.3672 11.5145C13.8198 11.6075 14.2347 11.8324 14.5595 12.1609C14.8843 12.4894 15.1045 12.9068 15.1922 13.3604C15.28 13.814 15.2314 14.2834 15.0526 14.7094C14.8738 15.1354 14.5728 15.4988 14.1875 15.7538C13.8023 16.0089 13.3502 16.144 12.8882 16.1423H10.5593Z" fill="#9D9A18"/>
<path fill-rule="evenodd" clip-rule="evenodd" d="M8.81761 15.5111V18.0089C8.81585 18.5008 8.66839 18.9811 8.39384 19.3892C8.11929 19.7973 7.72997 20.115 7.27503 20.302C6.82009 20.489 6.31994 20.537 5.83773 20.44C5.35552 20.3429 4.91288 20.1052 4.56569 19.7568C4.2185 19.4083 3.98234 18.9648 3.88702 18.4823C3.79171 17.9997 3.84151 17.4998 4.03015 17.0455C4.21878 16.5912 4.53779 16.203 4.94689 15.93C5.35599 15.6569 5.83684 15.5111 6.32872 15.5111H8.81761Z" fill="url(#paint5_linear_2707_373558)"/>
<path fill-rule="evenodd" clip-rule="evenodd" d="M8.81761 15.5111V18.0089C8.81585 18.5008 8.66839 18.9811 8.39384 19.3892C8.11929 19.7973 7.72997 20.115 7.27503 20.302C6.82009 20.489 6.31994 20.537 5.83773 20.44C5.35552 20.3429 4.91288 20.1052 4.56569 19.7568C4.2185 19.4083 3.98234 18.9648 3.88702 18.4823C3.79171 17.9997 3.84151 17.4998 4.03015 17.0455C4.21878 16.5912 4.53779 16.203 4.94689 15.93C5.35599 15.6569 5.83684 15.5111 6.32872 15.5111H8.81761ZM8.6665 15.6533V18.0089C8.66299 18.4705 8.5229 18.9207 8.2639 19.3028C8.00489 19.6849 7.63857 19.9818 7.2111 20.156C6.78363 20.3302 6.31415 20.374 5.86184 20.2818C5.40953 20.1896 4.99465 19.9655 4.66948 19.6379C4.34431 19.3103 4.12342 18.8937 4.03464 18.4407C3.94587 17.9877 3.99319 17.5186 4.17065 17.0924C4.3481 16.6663 4.64773 16.3022 5.03178 16.0461C5.41584 15.79 5.86711 15.6533 6.32872 15.6533H8.6665Z" fill="#9D9A18"/>
<path fill-rule="evenodd" clip-rule="evenodd" d="M10.8711 15.8223V13.7867C10.8746 13.3884 10.9959 13.0001 11.2198 12.6706C11.4436 12.3411 11.7599 12.0853 12.1289 11.9353C12.4979 11.7853 12.9031 11.7479 13.2933 11.8277C13.6835 11.9076 14.0414 12.1011 14.3218 12.384C14.6022 12.6669 14.7927 13.0264 14.8691 13.4174C14.9455 13.8083 14.9045 14.2131 14.7513 14.5807C14.5981 14.9484 14.3394 15.2625 14.008 15.4834C13.6766 15.7044 13.2872 15.8223 12.8889 15.8223H10.8711Z" fill="url(#paint6_linear_2707_373558)"/>
<path fill-rule="evenodd" clip-rule="evenodd" d="M10.8711 13.9379V13.7867C10.8746 13.3884 10.9959 13.0001 11.2198 12.6706C11.4436 12.3411 11.7599 12.0853 12.1289 11.9353C12.4979 11.7853 12.9031 11.7479 13.2933 11.8277C13.6835 11.9076 14.0414 12.1011 14.3218 12.384C14.6022 12.6669 14.7927 13.0264 14.8691 13.4174C14.9455 13.8083 14.9045 14.2131 14.7513 14.5807C14.5981 14.9484 14.3394 15.2625 14.008 15.4834C13.6766 15.7044 13.2872 15.8223 12.8889 15.8223H10.8711V13.9379ZM11.0222 15.6712V13.8045C11.0222 13.824 11.0183 13.8432 11.0106 13.8611C11.0029 13.8789 10.9916 13.895 10.9775 13.9084C10.9633 13.9217 10.9465 13.932 10.9283 13.9386C10.91 13.9452 10.8905 13.948 10.8711 13.9467L11.0222 13.7867C11.024 13.4158 11.1357 13.0537 11.3432 12.7463C11.5508 12.4388 11.8448 12.1998 12.1882 12.0595C12.5316 11.9192 12.9089 11.8838 13.2724 11.9579C13.6358 12.032 13.9692 12.2122 14.2302 12.4757C14.4913 12.7393 14.6683 13.0743 14.739 13.4385C14.8096 13.8026 14.7707 14.1796 14.6271 14.5216C14.4835 14.8636 14.2418 15.1554 13.9324 15.36C13.6229 15.5647 13.2598 15.6729 12.8889 15.6712H11.0222Z" fill="#9D9A18"/>
<path fill-rule="evenodd" clip-rule="evenodd" d="M8.3461 16V18.0178C8.3461 18.4169 8.22776 18.807 8.00605 19.1388C7.78433 19.4706 7.4692 19.7292 7.1005 19.882C6.73179 20.0347 6.32609 20.0746 5.93468 19.9968C5.54327 19.9189 5.18373 19.7268 4.90154 19.4446C4.61935 19.1624 4.42718 18.8028 4.34932 18.4114C4.27146 18.02 4.31142 17.6143 4.46414 17.2456C4.61686 16.8769 4.87549 16.5618 5.20731 16.3401C5.53913 16.1183 5.92925 16 6.32833 16H8.3461Z" fill="url(#paint7_linear_2707_373558)"/>
<path fill-rule="evenodd" clip-rule="evenodd" d="M8.3461 16V18.0178C8.3461 18.4169 8.22776 18.807 8.00605 19.1388C7.78433 19.4706 7.4692 19.7292 7.1005 19.882C6.73179 20.0347 6.32609 20.0746 5.93468 19.9968C5.54327 19.9189 5.18373 19.7268 4.90154 19.4446C4.61935 19.1624 4.42718 18.8028 4.34932 18.4114C4.27146 18.02 4.31142 17.6143 4.46414 17.2456C4.61686 16.8769 4.87549 16.5618 5.20731 16.3401C5.53913 16.1183 5.92925 16 6.32833 16H8.3461ZM8.20388 18.0178C8.20388 18.3887 8.09388 18.7513 7.88779 19.0598C7.6817 19.3682 7.38878 19.6086 7.04607 19.7506C6.70336 19.8925 6.32624 19.9297 5.96242 19.8573C5.5986 19.7849 5.26441 19.6063 5.00211 19.344C4.73981 19.0817 4.56118 18.7475 4.48881 18.3837C4.41644 18.0199 4.45358 17.6427 4.59554 17.3C4.73749 16.9573 4.97789 16.6644 5.28632 16.4583C5.59476 16.2522 5.95738 16.1422 6.32833 16.1422H8.20388V18.0178Z" fill="#9D9A18"/>
<path fill-rule="evenodd" clip-rule="evenodd" d="M11.3418 15.3511V13.8044C11.3418 13.4964 11.4333 13.1953 11.6046 12.9393C11.7759 12.6833 12.0194 12.4839 12.3041 12.3665C12.5889 12.249 12.9021 12.2187 13.2041 12.2794C13.5061 12.3402 13.7833 12.4892 14.0004 12.7077C14.2176 12.9261 14.3651 13.2041 14.4241 13.5064C14.4831 13.8088 14.451 14.1218 14.3319 14.4059C14.2128 14.69 14.0121 14.9323 13.7551 15.1022C13.4981 15.272 13.1965 15.3617 12.8885 15.36L11.3418 15.3511Z" fill="url(#paint8_linear_2707_373558)"/>
<path fill-rule="evenodd" clip-rule="evenodd" d="M11.3418 13.9378V13.8044C11.3418 13.4964 11.4333 13.1953 11.6046 12.9393C11.7759 12.6833 12.0194 12.4839 12.3041 12.3665C12.5889 12.249 12.9021 12.2187 13.2041 12.2794C13.5061 12.3402 13.7833 12.4892 14.0004 12.7077C14.2176 12.9261 14.3651 13.2041 14.4241 13.5064C14.4831 13.8088 14.451 14.1218 14.3319 14.4059C14.2128 14.69 14.0121 14.9323 13.7551 15.1022C13.4981 15.272 13.1965 15.3617 12.8885 15.36H11.3418V13.9378ZM11.4929 15.2V13.8044C11.4906 13.8429 11.4737 13.8791 11.4456 13.9056C11.4175 13.932 11.3804 13.9467 11.3418 13.9467L11.4929 13.7955C11.4929 13.5174 11.5755 13.2455 11.7302 13.0144C11.8849 12.7832 12.1048 12.6032 12.362 12.4972C12.6191 12.3911 12.902 12.3639 13.1746 12.4188C13.4473 12.4737 13.6975 12.6083 13.8936 12.8056C14.0896 13.0029 14.2227 13.254 14.2759 13.527C14.3291 13.8001 14.3 14.0827 14.1923 14.3392C14.0847 14.5957 13.9033 14.8144 13.6711 14.9676C13.439 15.1209 13.1666 15.2017 12.8885 15.2H11.4929Z" fill="#9D9A18"/>
<path fill-rule="evenodd" clip-rule="evenodd" d="M7.87556 16.4445V17.9911C7.87556 18.297 7.78485 18.5961 7.6149 18.8504C7.44495 19.1048 7.20339 19.303 6.92078 19.4201C6.63816 19.5371 6.32718 19.5678 6.02715 19.5081C5.72713 19.4484 5.45154 19.3011 5.23524 19.0848C5.01893 18.8685 4.87162 18.5929 4.81195 18.2929C4.75227 17.9928 4.7829 17.6819 4.89996 17.3992C5.01702 17.1166 5.21526 16.8751 5.46961 16.7051C5.72396 16.5352 6.02299 16.4445 6.32889 16.4445H7.87556Z" fill="url(#paint9_linear_2707_373558)"/>
<path fill-rule="evenodd" clip-rule="evenodd" d="M7.87556 16.4445V17.9911C7.87556 18.297 7.78485 18.5961 7.6149 18.8504C7.44495 19.1048 7.20339 19.303 6.92078 19.4201C6.63816 19.5371 6.32718 19.5678 6.02715 19.5081C5.72713 19.4484 5.45154 19.3011 5.23524 19.0848C5.01893 18.8685 4.87162 18.5929 4.81195 18.2929C4.75227 17.9928 4.7829 17.6819 4.89996 17.3992C5.01702 17.1166 5.21526 16.8751 5.46961 16.7051C5.72396 16.5352 6.02299 16.4445 6.32889 16.4445H7.87556ZM7.73334 17.9911C7.74875 18.1844 7.72399 18.3787 7.66062 18.5619C7.59726 18.7451 7.49665 18.9132 7.36515 19.0556C7.23364 19.198 7.07408 19.3116 6.8965 19.3894C6.71893 19.4671 6.52718 19.5072 6.33334 19.5072C6.1395 19.5072 5.94775 19.4671 5.77018 19.3894C5.5926 19.3116 5.43304 19.198 5.30153 19.0556C5.17002 18.9132 5.06942 18.7451 5.00605 18.5619C4.94269 18.3787 4.91793 18.1844 4.93334 17.9911C4.93334 17.621 5.08037 17.266 5.34209 17.0043C5.6038 16.7426 5.95877 16.5956 6.32889 16.5956H7.73334V17.9911Z" fill="#9D9A18"/>
<path fill-rule="evenodd" clip-rule="evenodd" d="M11.7861 14.9067V13.8044C11.7861 13.5843 11.8515 13.3691 11.974 13.1862C12.0965 13.0033 12.2706 12.8609 12.4741 12.7771C12.6777 12.6933 12.9015 12.6718 13.1173 12.7154C13.3331 12.759 13.531 12.8657 13.6861 13.022C13.8411 13.1782 13.9462 13.3771 13.9881 13.5932C14.0299 13.8093 14.0067 14.033 13.9212 14.2358C13.8357 14.4387 13.6919 14.6116 13.5081 14.7326C13.3242 14.8536 13.1085 14.9173 12.8884 14.9155L11.7861 14.9067Z" fill="white"/>
<path fill-rule="evenodd" clip-rule="evenodd" d="M11.7861 13.9467V13.8044C11.7861 13.5843 11.8515 13.3691 11.974 13.1862C12.0965 13.0033 12.2706 12.8609 12.4741 12.7771C12.6777 12.6933 12.9015 12.6718 13.1173 12.7154C13.3331 12.759 13.531 12.8657 13.6861 13.022C13.8411 13.1782 13.9462 13.3771 13.9881 13.5932C14.0299 13.8093 14.0067 14.033 13.9212 14.2358C13.8357 14.4387 13.6919 14.6116 13.5081 14.7326C13.3242 14.8536 13.1085 14.9173 12.8884 14.9155H11.7861V13.9467ZM11.9372 14.7555V13.8044C11.935 13.843 11.9181 13.8791 11.89 13.9056C11.8619 13.932 11.8247 13.9467 11.7861 13.9467L11.9372 13.7955C11.9373 13.6053 11.9938 13.4193 12.0997 13.2613C12.2056 13.1032 12.356 12.9802 12.532 12.9078C12.7079 12.8354 12.9014 12.8169 13.0878 12.8547C13.2743 12.8925 13.4453 12.9848 13.5792 13.1199C13.7131 13.2551 13.8038 13.427 13.8399 13.6138C13.8759 13.8006 13.8556 13.9939 13.7816 14.1691C13.7076 14.3444 13.5831 14.4937 13.4241 14.5981C13.2651 14.7025 13.0786 14.7573 12.8884 14.7555H11.9372Z" fill="#9D9A18"/>
<path fill-rule="evenodd" clip-rule="evenodd" d="M7.43996 16.8889V17.9911C7.44172 18.2113 7.37806 18.427 7.25704 18.6108C7.13603 18.7947 6.96312 18.9385 6.76025 19.024C6.55738 19.1094 6.3337 19.1327 6.11758 19.0909C5.90147 19.049 5.70265 18.9439 5.54637 18.7889C5.39009 18.6338 5.28338 18.4359 5.23978 18.2201C5.19619 18.0043 5.21766 17.7804 5.30149 17.5769C5.38532 17.3734 5.52773 17.1993 5.71064 17.0768C5.89354 16.9543 6.10872 16.8889 6.32885 16.8889H7.43996Z" fill="white"/>
<path fill-rule="evenodd" clip-rule="evenodd" d="M7.43996 16.8889V17.9911C7.44172 18.2113 7.37806 18.427 7.25704 18.6108C7.13603 18.7947 6.96312 18.9385 6.76025 19.024C6.55738 19.1094 6.3337 19.1327 6.11758 19.0909C5.90147 19.049 5.70265 18.9439 5.54637 18.7889C5.39009 18.6338 5.28338 18.4359 5.23978 18.2201C5.19619 18.0043 5.21766 17.7804 5.30149 17.5769C5.38532 17.3734 5.52773 17.1993 5.71064 17.0768C5.89354 16.9543 6.10872 16.8889 6.32885 16.8889H7.43996ZM7.28885 17.9911C7.28709 18.1806 7.2293 18.3653 7.12276 18.522C7.01621 18.6787 6.86567 18.8004 6.69011 18.8717C6.51454 18.943 6.32181 18.9607 6.13617 18.9227C5.95054 18.8847 5.78032 18.7925 5.64695 18.6579C5.51358 18.5233 5.42302 18.3523 5.3867 18.1663C5.35037 17.9803 5.36989 17.7877 5.44281 17.6128C5.51572 17.4379 5.63876 17.2885 5.79644 17.1834C5.95411 17.0783 6.13936 17.0223 6.32885 17.0222H7.28885V17.9911Z" fill="#9D9A18"/>
<path d="M11.7865 14.8534H9.58203V21.4489H11.7865V14.8534Z" fill="#9D9A18"/>
<path fill-rule="evenodd" clip-rule="evenodd" d="M9.58246 16.9779V13.8579C9.58246 12.988 9.23689 12.1537 8.62177 11.5386C8.00665 10.9235 7.17237 10.5779 6.30246 10.5779C5.43255 10.5779 4.59827 10.9235 3.98315 11.5386C3.36803 12.1537 3.02246 12.988 3.02246 13.8579H5.24468C5.24701 13.5781 5.35919 13.3104 5.55707 13.1125C5.75494 12.9146 6.02264 12.8024 6.30246 12.8001C6.583 12.8001 6.85205 12.9115 7.05042 13.1099C7.24879 13.3083 7.36024 13.5773 7.36024 13.8579V16.9779H9.58246Z" fill="#9D9A18"/>
<path d="M18.2132 21.3778H17.3243L17.0843 20.96H16.3288L16.1155 21.3867H15.2266C15.2266 21.3867 15.8043 19.3955 16.1155 18.4355H17.2888L18.2132 21.3778ZM16.4355 20.0533H16.8888L16.7021 19.4578L16.4355 20.0533Z" fill="#02682A"/>
<path d="M20.4441 18.5245H21.3952V21.3956H20.5063L19.5019 20.16V21.3867H18.5508V18.5067H19.3952L20.4441 19.84V18.5245Z" fill="#02682A"/>
<path d="M23.84 16.2311H25.2889C25.374 16.5715 25.3304 16.9313 25.1663 17.2414C25.0022 17.5515 24.7293 17.7901 24.4 17.9111C24.0346 18.0562 23.6295 18.0671 23.2568 17.9418C22.8842 17.8164 22.568 17.5631 22.3644 17.2267C22.2023 16.8911 22.1624 16.5094 22.2516 16.1475C22.3409 15.7856 22.5537 15.4662 22.8533 15.2445C23.229 15.0165 23.6758 14.9358 24.1075 15.0179C24.5392 15.0999 24.9253 15.339 25.1911 15.6889C24.9244 15.8134 24.3822 16.0089 24.3822 16.0089C24.3822 16.0089 23.6622 15.5556 23.3333 16.1422C23.2625 16.2738 23.2324 16.4234 23.2466 16.5721C23.2609 16.7209 23.3189 16.862 23.4133 16.9778C23.4728 17.0603 23.5527 17.1258 23.6452 17.1681C23.7377 17.2104 23.8395 17.2279 23.9408 17.2189C24.0421 17.21 24.1393 17.1748 24.2229 17.117C24.3065 17.0591 24.3737 16.9805 24.4178 16.8889H23.8133C23.8311 16.6222 23.8222 16.4622 23.84 16.2311Z" fill="#02682A"/>
<path d="M28.9685 16.4978C28.9768 16.7058 28.9408 16.9131 28.8628 17.1061C28.7848 17.2991 28.6666 17.4732 28.5161 17.617C28.3656 17.7608 28.1863 17.8709 27.9899 17.94C27.7936 18.0091 27.5848 18.0356 27.3774 18.0178C27.1718 18.0325 26.9653 18.0045 26.771 17.9355C26.5767 17.8665 26.3988 17.7581 26.2485 17.617C26.0982 17.4758 25.9788 17.3051 25.8977 17.1156C25.8166 16.926 25.7756 16.7217 25.7774 16.5156C25.7796 16.3078 25.8236 16.1027 25.9068 15.9123C25.99 15.7219 26.1107 15.5503 26.2616 15.4076C26.4126 15.2649 26.5908 15.1541 26.7856 15.0818C26.9803 15.0095 27.1876 14.9771 27.3952 14.9867C27.5991 14.977 27.8029 15.009 27.994 15.0807C28.1852 15.1524 28.3597 15.2623 28.5069 15.4038C28.6542 15.5452 28.771 15.7151 28.8504 15.9032C28.9298 16.0913 28.9699 16.2936 28.9685 16.4978ZM27.3596 17.12C27.4362 17.1212 27.5123 17.1071 27.5835 17.0786C27.6546 17.0501 27.7193 17.0077 27.7739 16.954C27.8285 16.9002 27.8719 16.8361 27.9015 16.7654C27.9311 16.6947 27.9463 16.6189 27.9463 16.5422C27.9421 16.3839 27.8785 16.233 27.7682 16.1194C27.6579 16.0057 27.5088 15.9378 27.3507 15.9289C27.2716 15.9321 27.194 15.9515 27.1226 15.986C27.0513 16.0204 26.9878 16.0692 26.9362 16.1292C26.8845 16.1892 26.8457 16.2592 26.8222 16.3349C26.7987 16.4105 26.791 16.4902 26.7996 16.5689C26.7957 16.6431 26.8075 16.7172 26.8344 16.7865C26.8612 16.8558 26.9025 16.9185 26.9555 16.9706C27.0084 17.0227 27.0718 17.063 27.1415 17.0887C27.2112 17.1145 27.2855 17.1251 27.3596 17.12Z" fill="#02682A"/>
<path d="M20.3377 16.9601L20.2844 17.9379H19.3955V15.1112C19.9377 15.1112 20.4711 15.1112 20.9866 15.1112C21.1728 15.1187 21.3519 15.1845 21.4987 15.2994C21.6454 15.4142 21.7524 15.5723 21.8044 15.7512C21.855 15.9618 21.8414 16.1827 21.7654 16.3855C21.6893 16.5883 21.5543 16.7636 21.3777 16.889L21.9822 17.9645H21.0933L20.3377 16.9601ZM20.3377 15.849V16.2668C20.3377 16.2668 20.8088 16.3201 20.7911 16.0712C20.7733 15.8223 20.3377 15.849 20.3377 15.849Z" fill="#02682A"/>
<path d="M19.0489 18.0179H18.16L17.92 17.6001H17.1644L16.96 18.0268H16C16 18.0268 16.5778 16.0001 16.8889 15.1112H18.0444L19.0489 18.0179ZM17.2711 16.6934H17.6711L17.4844 16.0979L17.2711 16.6934Z" fill="#02682A"/>
<path d="M13.7062 21.3957H12.7373V18.5423C13.401 18.4716 14.0714 18.4956 14.7284 18.6134C14.9417 18.7413 15.1064 18.9364 15.1965 19.1682C15.2866 19.3999 15.2971 19.6551 15.2262 19.8934C15.1639 20.0813 15.0451 20.2454 14.886 20.3632C14.7268 20.4809 14.5352 20.5466 14.3373 20.5512H13.7595L13.7062 21.3957ZM13.7862 19.2534V19.7957C13.7862 19.7957 14.1773 19.8579 14.204 19.5734C14.2306 19.289 13.7862 19.2534 13.7862 19.2534Z" fill="#02682A"/>
<path d="M26.2487 20.6667V21.3867H24.3287C24.2576 20.4978 24.3287 19.52 24.2754 18.5333H26.2043V19.3244H25.3154V19.5555H26.0621V20.3644H25.3332V20.6222L26.2487 20.6667Z" fill="#02682A"/>
<path d="M28.8712 18.7645L28.6401 19.3689C28.3778 19.3093 28.1091 19.2824 27.8401 19.2889C27.7246 19.44 28.0979 19.5556 28.2401 19.6089C28.8446 19.7956 29.0579 20.1156 28.9512 20.7022C28.918 20.856 28.8479 20.9994 28.7468 21.12C28.4582 21.3632 28.093 21.4966 27.7157 21.4966C27.3383 21.4966 26.9731 21.3632 26.6846 21.12L26.9157 20.5689C27.2801 20.5689 27.8579 20.72 27.9201 20.5245C27.9823 20.3289 27.5823 20.3645 27.4401 20.3111C27.0579 20.1867 26.7112 20 26.7201 19.5556C26.7375 19.3649 26.805 19.1822 26.9159 19.0261C27.0267 18.8699 27.1769 18.7459 27.3512 18.6667C27.5908 18.5478 27.8575 18.4943 28.1244 18.5114C28.3912 18.5286 28.6489 18.6159 28.8712 18.7645Z" fill="#02682A"/>
<path d="M21.7773 19.3601V18.4712H23.9996V19.2979H23.4129V21.3067H22.3551V19.369L21.7773 19.3601Z" fill="#02682A"/>
</g>
<defs>
<linearGradient id="paint0_linear_2707_373558" x1="18.5739" y1="14.0796" x2="14.4672" y2="17.9373" gradientUnits="userSpaceOnUse">
<stop stop-color="white"/>
<stop offset="0.51" stop-color="#F3F2D6"/>
<stop offset="1" stop-color="#CFC957"/>
</linearGradient>
<linearGradient id="paint1_linear_2707_373558" x1="1.64997" y1="18.3093" x2="5.75664" y2="14.4516" gradientUnits="userSpaceOnUse">
<stop stop-color="white"/>
<stop offset="0.51" stop-color="#F3F2D6"/>
<stop offset="1" stop-color="#CFC957"/>
</linearGradient>
<linearGradient id="paint2_linear_2707_373558" x1="14.9817" y1="8.26767" x2="10.9106" y2="12.0988" gradientUnits="userSpaceOnUse">
<stop stop-color="white"/>
<stop offset="0.51" stop-color="#F3F2D6"/>
<stop offset="1" stop-color="#CFC957"/>
</linearGradient>
<linearGradient id="paint3_linear_2707_373558" x1="4.26148" y1="22.5854" x2="8.33259" y2="18.7543" gradientUnits="userSpaceOnUse">
<stop stop-color="white"/>
<stop offset="0.51" stop-color="#F3F2D6"/>
<stop offset="1" stop-color="#CFC957"/>
</linearGradient>
<linearGradient id="paint4_linear_2707_373558" x1="18.5734" y1="14.0795" x2="14.4667" y2="17.9373" gradientUnits="userSpaceOnUse">
<stop stop-color="white"/>
<stop offset="0.51" stop-color="#F3F2D6"/>
<stop offset="1" stop-color="#CFC957"/>
</linearGradient>
<linearGradient id="paint5_linear_2707_373558" x1="1.64961" y1="18.3093" x2="5.75627" y2="14.4516" gradientUnits="userSpaceOnUse">
<stop stop-color="white"/>
<stop offset="0.51" stop-color="#F3F2D6"/>
<stop offset="1" stop-color="#CFC957"/>
</linearGradient>
<linearGradient id="paint6_linear_2707_373558" x1="15.5418" y1="10.3099" x2="11.5062" y2="14.1054" gradientUnits="userSpaceOnUse">
<stop stop-color="white"/>
<stop offset="0.51" stop-color="#F3F2D6"/>
<stop offset="1" stop-color="#CFC957"/>
</linearGradient>
<linearGradient id="paint7_linear_2707_373558" x1="3.84175" y1="21.0531" x2="7.8773" y2="17.2575" gradientUnits="userSpaceOnUse">
<stop stop-color="white"/>
<stop offset="0.51" stop-color="#F3F2D6"/>
<stop offset="1" stop-color="#CFC957"/>
</linearGradient>
<linearGradient id="paint8_linear_2707_373558" x1="18.5736" y1="14.0795" x2="14.467" y2="17.9372" gradientUnits="userSpaceOnUse">
<stop stop-color="white"/>
<stop offset="0.51" stop-color="#F3F2D6"/>
<stop offset="1" stop-color="#CFC957"/>
</linearGradient>
<linearGradient id="paint9_linear_2707_373558" x1="1.64978" y1="18.3093" x2="5.75645" y2="14.4516" gradientUnits="userSpaceOnUse">
<stop stop-color="white"/>
<stop offset="0.51" stop-color="#F3F2D6"/>
<stop offset="1" stop-color="#CFC957"/>
</linearGradient>
<clipPath id="clip0_2707_373558">
<rect width="32" height="32" fill="white"/>
</clipPath>
</defs>
</svg>
