<svg width="32" height="32" viewBox="0 0 32 32" fill="none" xmlns="http://www.w3.org/2000/svg">
<g clip-path="url(#clip0_2707_372808)">
<path d="M15.9998 31.9822C24.8265 31.9822 31.982 24.8267 31.982 16C31.982 7.17325 24.8265 0.0177612 15.9998 0.0177612C7.17306 0.0177612 0.0175781 7.17325 0.0175781 16C0.0175781 24.8267 7.17306 31.9822 15.9998 31.9822Z" fill="#FDAF27"/>
<path d="M21.1549 6.27555C20.6617 6.18049 20.151 6.24258 19.695 6.45308C19.2389 6.66358 18.8603 7.01187 18.6127 7.44888C18.4896 7.66316 18.3968 7.89351 18.3371 8.13333C18.2309 7.68008 17.9996 7.26572 17.6696 6.93732C17.3397 6.60892 16.9242 6.37965 16.4705 6.27555C15.976 6.18122 15.4644 6.24358 15.0071 6.45391C14.5498 6.66425 14.1695 7.01208 13.9193 7.44888C13.8031 7.66542 13.7136 7.89524 13.6527 8.13333C13.5464 7.68008 13.3152 7.26572 12.9852 6.93732C12.6552 6.60892 12.2398 6.37965 11.786 6.27555C11.2916 6.18122 10.78 6.24358 10.3227 6.45391C9.86534 6.66425 9.48507 7.01208 9.2349 7.44888C8.98333 7.90099 8.86871 8.41651 8.90501 8.93261C8.94131 9.44872 9.12696 9.94312 9.43934 10.3556C9.74806 10.746 10.1709 11.0303 10.6489 11.1689C11.127 11.3076 11.6363 11.2936 12.106 11.1289C12.4844 10.9778 12.8204 10.7371 13.0852 10.4274C13.35 10.1177 13.5356 9.74837 13.626 9.35111C13.7151 9.70833 13.8753 10.0439 14.0971 10.3378C14.4058 10.7282 14.8287 11.0125 15.3067 11.1511C15.7847 11.2898 16.2941 11.2758 16.7638 11.1111C17.1422 10.96 17.4782 10.7193 17.743 10.4096C18.0077 10.1 18.1933 9.7306 18.2838 9.33333C18.3722 9.69248 18.5358 10.0288 18.7638 10.32C19.0708 10.7126 19.4936 10.9985 19.9722 11.1373C20.4509 11.2761 20.9611 11.2607 21.4305 11.0933C21.93 10.8893 22.3523 10.5326 22.637 10.0742C22.9217 9.61587 23.0543 9.07926 23.0159 8.54104C22.9774 8.00281 22.7699 7.4905 22.4229 7.07725C22.0759 6.66401 21.6072 6.37098 21.0838 6.24L21.1549 6.27555Z" fill="white"/>
<path d="M13.4218 18.5333C13.5013 19.0792 13.7265 19.5936 14.0738 20.0222C14.4211 20.4509 14.8776 20.7779 15.3952 20.9688C15.9183 21.1075 16.4727 21.0674 16.9704 20.8548C17.4681 20.6422 17.8804 20.2694 18.1418 19.7955C18.3935 19.1919 18.4883 18.5345 18.4174 17.8844C18.4174 17.44 18.4174 16.9955 18.4174 16.56C18.4174 16.1244 18.4174 15.5911 18.4174 15.1111C18.3508 14.507 18.4364 13.8959 18.6663 13.3333C18.8627 12.9566 19.161 12.6427 19.5272 12.4274C19.8934 12.2121 20.3128 12.104 20.7374 12.1155C21.1697 12.1404 21.5861 12.2872 21.9385 12.5389C22.2908 12.7906 22.5648 13.1369 22.7285 13.5377C22.9067 14.094 22.9702 14.6807 22.9152 15.2622C22.9152 15.7422 22.9152 16.2222 22.9152 16.7022C22.9688 17.75 22.9242 18.8005 22.7818 19.84C22.5683 20.9951 22.084 22.0831 21.3686 23.0148C20.6532 23.9466 19.7271 24.6954 18.6663 25.2C17.6042 25.6647 16.4404 25.8483 15.2869 25.7331C14.1333 25.6179 13.0288 25.2078 12.0796 24.5422C11.1177 23.8589 10.3466 22.9409 9.83963 21.8755C9.28545 20.7778 9.06893 19.5406 9.2174 18.32C9.28539 17.893 9.47893 17.4959 9.77336 17.1793C10.0678 16.8627 10.4498 16.6409 10.8707 16.5422C11.3039 16.4547 11.7537 16.5075 12.1549 16.6929C12.556 16.8783 12.8877 17.1867 13.1018 17.5733C13.2623 17.8728 13.3706 18.1974 13.4218 18.5333Z" fill="white"/>
</g>
<defs>
<clipPath id="clip0_2707_372808">
<rect width="32" height="32" fill="white"/>
</clipPath>
</defs>
</svg>
