<svg width="32" height="32" viewBox="0 0 32 32" fill="none" xmlns="http://www.w3.org/2000/svg">
<g clip-path="url(#clip0_2707_372513)">
<path d="M15.9998 31.9822C24.8265 31.9822 31.982 24.8268 31.982 16C31.982 7.17328 24.8265 0.0177917 15.9998 0.0177917C7.17306 0.0177917 0.0175781 7.17328 0.0175781 16C0.0175781 24.8268 7.17306 31.9822 15.9998 31.9822Z" fill="white"/>
<path d="M17.3416 16.64H17.1816V17.9289H17.3416V16.64Z" fill="#5EB747"/>
<path d="M18.8172 16.64H18.6572V17.9289H18.8172V16.64Z" fill="#5EB747"/>
<path fill-rule="evenodd" clip-rule="evenodd" d="M19.4668 16.2045V14.0889H20.0801L20.5068 15.5556L20.9246 14.0889H21.5112V16.2045H21.2001V14.5956L20.7024 16.2045H20.3557L19.8757 14.56V16.2045H19.4668Z" fill="#015196"/>
<path fill-rule="evenodd" clip-rule="evenodd" d="M16.5684 16.2045V14.0889H16.9684L17.8572 15.5111V14.0889H18.2128V16.2045H17.8484L16.8884 14.8089V16.2045H16.5684Z" fill="#015196"/>
<path fill-rule="evenodd" clip-rule="evenodd" d="M13.5645 14.0889H14.0267L14.5778 14.9778L15.0756 14.0889H15.4933L14.7645 15.28V16.1689H14.3289V15.28L13.5645 14.0889Z" fill="#015196"/>
<path d="M16.1777 14.0889H15.7422V16.2133H16.1777V14.0889Z" fill="#015196"/>
<path d="M22.3994 14.0889H21.9639V16.2133H22.3994V14.0889Z" fill="#015196"/>
<path fill-rule="evenodd" clip-rule="evenodd" d="M22.6396 14.0889V14.3911H23.2619V16.1689H23.6708V14.3822H24.3196V14.0889H22.6396Z" fill="#015196"/>
<path d="M8.89798 12.9067H2.76465V19.0933H8.89798V12.9067Z" fill="#015196"/>
<path d="M5.65269 15.8845H5.90158V18.1956C5.90158 18.6756 5.77714 18.8 5.29714 18.8C4.62158 18.8 4.53269 18.7111 4.54158 18.0445C4.54158 17.5111 4.71047 17.3511 5.25269 17.3511H5.65269V15.8845ZM5.65269 18.0978C5.65269 17.7245 5.5638 17.6445 5.21714 17.6445C4.87047 17.6445 4.79047 17.6978 4.79047 18.1422C4.79047 18.5867 4.79047 18.5689 5.21714 18.5689C5.6438 18.5689 5.65269 18.5156 5.6438 18.0978H5.65269Z" fill="#FCFDFD"/>
<path d="M7.35122 17.5467C7.48753 17.4534 7.64427 17.3941 7.80824 17.374C7.97221 17.3539 8.13862 17.3735 8.29344 17.4311C8.36189 17.4581 8.42275 17.5013 8.47076 17.5571C8.51876 17.6128 8.55248 17.6794 8.569 17.7511C8.58676 18.0827 8.58676 18.4151 8.569 18.7467C8.569 18.7467 8.38233 18.7911 8.38233 18.7467C8.38233 18.7022 8.38233 18.24 8.38233 18.0445C8.38233 17.7156 8.22233 17.6356 7.80455 17.6534C7.529 17.6534 7.47566 17.7334 7.46677 18.0711V18.6667C7.46677 18.8178 7.39566 18.8534 7.23566 18.7911V18.0711C7.23566 17.7778 7.13789 17.6889 6.86233 17.6711C6.58677 17.6534 6.35566 17.7334 6.329 18.0356C6.32011 18.1688 6.32011 18.3024 6.329 18.4356V18.8089C6.19566 18.8089 6.09789 18.8534 6.09789 18.6756C6.08456 18.4328 6.08456 18.1895 6.09789 17.9467C6.09735 17.8734 6.11244 17.8009 6.14215 17.7339C6.17186 17.6669 6.2155 17.607 6.27018 17.5582C6.32485 17.5095 6.3893 17.4729 6.45922 17.451C6.52914 17.429 6.60293 17.4223 6.67566 17.4311C6.91566 17.3956 7.16455 17.3334 7.35122 17.5467Z" fill="#5EB747"/>
<path d="M5.65314 18.0978C5.65314 18.5156 5.60869 18.5778 5.22647 18.5689C4.84425 18.56 4.7998 18.5689 4.7998 18.1422C4.7998 17.7156 4.7998 17.6445 5.22647 17.6445C5.65314 17.6445 5.65314 17.7245 5.65314 18.0978Z" fill="#015196"/>
<path d="M5.95529 13.9556C6.55628 13.953 7.14051 14.1535 7.61325 14.5246C8.08599 14.8957 8.41951 15.4156 8.55974 16C8.3687 15.8744 8.15018 15.7967 7.92272 15.7735C7.69526 15.7503 7.46555 15.7822 7.25307 15.8667H7.19085C7.17167 15.4675 7.04728 15.0805 6.8303 14.7448C6.61331 14.4092 6.31144 14.1369 5.95529 13.9556ZM5.61752 13.9556C5.25781 14.139 4.95266 14.4137 4.73268 14.7523C4.51269 15.0908 4.38561 15.4813 4.36418 15.8845H4.31085C4.10779 15.8037 3.88789 15.7744 3.67075 15.7992C3.45362 15.824 3.246 15.9022 3.06641 16.0267C3.19678 15.4795 3.49307 14.9859 3.91474 14.6136C4.3364 14.2413 4.86282 14.0083 5.42196 13.9467L5.61752 13.9556ZM5.73307 13.9556C5.9049 14.6052 5.9049 15.2882 5.73307 15.9378H5.6353C5.47772 15.8596 5.30607 15.8138 5.13049 15.8031C4.95491 15.7925 4.77897 15.8171 4.61307 15.8756L4.44418 15.8667C4.47065 15.4568 4.6067 15.0616 4.83812 14.7223C5.06954 14.383 5.38783 14.1121 5.75974 13.9378L5.73307 13.9556ZM5.83085 13.9556C6.19531 14.131 6.5062 14.4007 6.73128 14.7367C6.95635 15.0728 7.08741 15.4629 7.11085 15.8667C7.02958 15.8512 6.94941 15.8304 6.87085 15.8045C6.5383 15.7073 6.18195 15.7326 5.86641 15.8756L5.76863 15.92C5.94475 15.274 5.94475 14.5927 5.76863 13.9467L5.83085 13.9556Z" fill="#5EB747"/>
<path fill-rule="evenodd" clip-rule="evenodd" d="M2.90694 17.6711H3.0936C3.0936 17.6711 3.0936 17.4756 3.24472 17.4489C3.4341 17.4352 3.62422 17.4352 3.8136 17.4489C3.87541 17.4691 3.9301 17.5066 3.97109 17.5571C4.01209 17.6075 4.03765 17.6687 4.04472 17.7334H3.22694C3.22694 17.7334 2.87138 17.7867 2.8536 18.0711C2.83583 18.3556 2.8536 18.5422 2.8536 18.5422C2.87944 18.6179 2.92689 18.6843 2.99008 18.7333C3.05328 18.7823 3.12944 18.8117 3.20916 18.8178H4.03583C4.03583 18.8178 4.32027 18.8178 4.31138 18.3911C4.30249 17.9645 4.31138 17.5734 4.31138 17.5734C4.29841 17.485 4.26061 17.4022 4.20238 17.3345C4.14415 17.2669 4.0679 17.2171 3.98249 17.1911H3.16472C3.07553 17.2324 3.00217 17.3015 2.95567 17.3881C2.90918 17.4747 2.89208 17.574 2.90694 17.6711ZM4.06249 18.0622C4.06249 18.0457 4.05594 18.0299 4.04427 18.0182C4.0326 18.0066 4.01677 18 4.00027 18H3.11138C3.09717 18.0025 3.08388 18.0087 3.07292 18.0181C3.06197 18.0275 3.05376 18.0397 3.04916 18.0534C3.04916 18.1511 3.04916 18.4267 3.12916 18.4711C3.37446 18.4959 3.62164 18.4959 3.86694 18.4711C3.93301 18.4296 3.98312 18.3669 4.00916 18.2934C4.03784 18.2192 4.0558 18.1414 4.06249 18.0622Z" fill="#5DB94A"/>
<path fill-rule="evenodd" clip-rule="evenodd" d="M9.70605 16.2045V14.0889H10.7549C10.7549 14.0889 11.4483 13.9734 11.4483 15.1467C11.4483 16.32 10.8705 16.1867 10.8705 16.1867L9.70605 16.2045ZM10.0883 15.8934V14.4H10.5949C10.5949 14.4 11.0838 14.32 11.0838 15.1467C11.0838 15.9734 10.6749 15.8756 10.6749 15.8756L10.0883 15.8934Z" fill="#015196"/>
<path fill-rule="evenodd" clip-rule="evenodd" d="M11.6445 16.2045L12.5334 14.0889H12.9068L13.7956 16.2045H13.3334L13.1112 15.7067H12.2668L12.0268 16.2045H11.6445ZM12.3645 15.3778H13.0223L12.7023 14.5689L12.3645 15.3778Z" fill="#015196"/>
<path fill-rule="evenodd" clip-rule="evenodd" d="M26.5596 16.2045L27.4485 14.0889H27.8307L28.7196 16.2045H28.3285L28.0973 15.7067H27.2618L27.0218 16.2045H26.5596ZM27.2707 15.3778H27.9285L27.6173 14.5689L27.2707 15.3778Z" fill="#015196"/>
<path fill-rule="evenodd" clip-rule="evenodd" d="M24.6221 14.0889V16.2045H25.0132V15.3156C25.0132 15.3156 25.3154 15.2534 25.4398 15.4045L26.0265 16.2045H26.4887C26.2884 15.8588 26.0499 15.5368 25.7776 15.2445C25.9285 15.2311 26.0689 15.1616 26.171 15.0496C26.273 14.9377 26.3293 14.7915 26.3287 14.64C26.33 14.5666 26.3163 14.4936 26.2885 14.4256C26.2606 14.3576 26.2193 14.2959 26.1669 14.2444C26.1145 14.1928 26.0522 14.1525 25.9838 14.1258C25.9153 14.099 25.8422 14.0865 25.7687 14.0889H24.6221ZM25.0132 14.3556V14.9956H25.6176C25.6176 14.9956 25.9643 14.9956 25.9643 14.7023C25.9643 14.4089 25.6443 14.3556 25.6443 14.3556H25.0132Z" fill="#015196"/>
<path fill-rule="evenodd" clip-rule="evenodd" d="M24.6403 17.28C24.5302 17.2955 24.4226 17.3254 24.3203 17.3689C24.2575 17.389 24.2025 17.4279 24.1628 17.4804C24.123 17.5329 24.1004 17.5964 24.098 17.6622C24.0951 17.7049 24.1015 17.7477 24.1169 17.7876C24.1323 17.8276 24.1562 17.8636 24.1869 17.8934C24.2149 17.9173 24.2475 17.9351 24.2826 17.9458C24.3178 17.9566 24.3548 17.9599 24.3914 17.9556C24.4928 17.9409 24.5898 17.9045 24.6758 17.8489C24.6854 17.8685 24.6991 17.8858 24.7159 17.8996C24.7328 17.9134 24.7525 17.9234 24.7736 17.9289C24.7736 17.9289 24.8625 17.9289 24.9336 17.8578L24.9958 17.8045L24.8891 17.6889L24.8269 17.7511V17.2089C24.8225 17.1463 24.7975 17.0869 24.7558 17.04C24.7261 17.0093 24.69 16.9854 24.6501 16.97C24.6102 16.9546 24.5674 16.9482 24.5247 16.9511C24.4535 16.9446 24.3819 16.9578 24.3176 16.9891C24.2534 17.0204 24.199 17.0688 24.1603 17.1289L24.1158 17.1911L24.2492 17.28V17.2089C24.2767 17.1749 24.3122 17.1482 24.3525 17.1311C24.3928 17.1141 24.4367 17.1072 24.4803 17.1111C24.5177 17.0983 24.5584 17.0983 24.5958 17.1111C24.6011 17.1315 24.6011 17.153 24.5958 17.1734L24.6403 17.28ZM16.4536 17.28C16.3429 17.2865 16.2343 17.3136 16.1336 17.36C16.0709 17.3801 16.0159 17.4191 15.9761 17.4716C15.9363 17.524 15.9137 17.5875 15.9114 17.6534C15.9078 17.6961 15.914 17.7391 15.9293 17.7791C15.9447 17.8191 15.969 17.8551 16.0003 17.8845C16.0303 17.9075 16.0647 17.9242 16.1014 17.9333C16.1381 17.9425 16.1763 17.944 16.2136 17.9378C16.3102 17.9323 16.403 17.8983 16.4803 17.84C16.5037 17.8684 16.5345 17.8899 16.5691 17.9022C16.5691 17.9022 16.658 17.9022 16.7292 17.8311L16.8003 17.7778L16.6847 17.6622L16.6225 17.7778V17.2445C16.6227 17.1825 16.6006 17.1226 16.5603 17.0756C16.5305 17.0448 16.4945 17.0209 16.4545 17.0056C16.4146 16.9902 16.3718 16.9838 16.3292 16.9867C16.2568 16.9814 16.1844 16.995 16.1189 17.0262C16.0535 17.0573 15.9973 17.105 15.9558 17.1645V17.2267L16.0892 17.3156L16.1336 17.2445C16.1611 17.2105 16.1966 17.1837 16.2369 17.1667C16.2772 17.1496 16.3211 17.1428 16.3647 17.1467C16.4023 17.1351 16.4426 17.1351 16.4803 17.1467C16.4855 17.1671 16.4855 17.1885 16.4803 17.2089L16.4536 17.28ZM21.3336 17.12C21.2905 17.0702 21.2373 17.0302 21.1776 17.0026C21.1178 16.975 21.0528 16.9605 20.9869 16.96C20.738 16.96 20.578 17.1289 20.6403 17.3156C20.6493 17.3459 20.6652 17.3738 20.6868 17.3969C20.7084 17.42 20.7351 17.4378 20.7647 17.4489C20.847 17.4842 20.9337 17.5081 21.0225 17.52H21.1647C21.1647 17.52 21.2358 17.5645 21.2358 17.6178C21.2355 17.6337 21.2313 17.6494 21.2235 17.6633C21.2158 17.6773 21.2047 17.6891 21.1914 17.6978C21.139 17.7122 21.0837 17.7122 21.0314 17.6978C20.9856 17.7157 20.9349 17.7157 20.8892 17.6978C20.885 17.688 20.8829 17.6774 20.8829 17.6667C20.8829 17.656 20.885 17.6454 20.8892 17.6356V17.5556H20.7292V17.6356C20.7319 17.7055 20.7604 17.772 20.8092 17.8222C20.8439 17.8537 20.8846 17.8778 20.9289 17.8931C20.9732 17.9084 21.0202 17.9145 21.0669 17.9111C21.2714 17.9111 21.4403 17.8134 21.4314 17.6267C21.431 17.5834 21.4193 17.5409 21.3975 17.5035C21.3757 17.4661 21.3444 17.435 21.3069 17.4134C21.2366 17.3792 21.1618 17.3552 21.0847 17.3422L20.898 17.2978C20.8825 17.2959 20.8678 17.29 20.8553 17.2807C20.8429 17.2713 20.8331 17.2588 20.8269 17.2445C20.8191 17.231 20.815 17.2156 20.815 17.2C20.815 17.1844 20.8191 17.1691 20.8269 17.1556C20.8764 17.1208 20.9354 17.1022 20.9958 17.1022C21.0376 17.1023 21.0789 17.111 21.1172 17.1278C21.1554 17.1447 21.1898 17.1692 21.218 17.2L21.2625 17.2622L21.3958 17.1645L21.3336 17.12ZM27.3603 17.2089C27.3502 17.1423 27.3152 17.0819 27.2625 17.04C27.1912 16.9856 27.1033 16.9574 27.0136 16.96C26.9061 16.9589 26.8019 16.9968 26.7203 17.0667C26.6313 17.1734 26.5868 17.3103 26.5958 17.4489C26.5856 17.5627 26.6196 17.6761 26.6908 17.7655C26.762 17.8548 26.8648 17.9134 26.978 17.9289C27.0366 17.9344 27.0956 17.9268 27.1509 17.9069C27.2062 17.8869 27.2565 17.855 27.298 17.8134C27.3268 17.784 27.3495 17.7493 27.3647 17.7111C27.38 17.673 27.3875 17.6322 27.3869 17.5911V17.5111H27.2269V17.5911C27.2238 17.6305 27.2082 17.6678 27.1825 17.6978C27.1543 17.7213 27.1216 17.7389 27.0865 17.7495C27.0514 17.7602 27.0145 17.7638 26.978 17.76C26.9158 17.76 26.7647 17.6711 26.7558 17.44C26.7505 17.3925 26.7549 17.3444 26.7686 17.2985C26.7824 17.2527 26.8052 17.2101 26.8358 17.1734C26.8851 17.1309 26.9486 17.1087 27.0136 17.1111C27.0625 17.0942 27.1158 17.0942 27.1647 17.1111C27.169 17.1317 27.169 17.1528 27.1647 17.1734V17.2534H27.3247L27.3603 17.2089ZM19.5558 17.2534C19.5913 17.2162 19.6341 17.1867 19.6815 17.1668C19.7289 17.1469 19.78 17.137 19.8314 17.1378C19.8662 17.1274 19.9032 17.1274 19.938 17.1378C19.9482 17.1696 19.9482 17.2038 19.938 17.2356C19.9611 17.4215 19.9611 17.6096 19.938 17.7956V17.8756H20.098V17.7778C20.1175 17.5798 20.1175 17.3803 20.098 17.1822C20.0875 17.1108 20.053 17.045 20.0003 16.9956C19.9409 16.9527 19.869 16.9308 19.7958 16.9334C19.6927 16.9334 19.5914 16.961 19.5025 17.0134V16.9334H19.378V17.8222H19.5558V17.2534ZM12.6936 17.04V16.96H12.5336V17.8489H12.6936V17.2178C12.7291 17.1806 12.7719 17.1511 12.8193 17.1313C12.8667 17.1114 12.9177 17.1015 12.9692 17.1022C13.0038 17.0907 13.0412 17.0907 13.0758 17.1022C13.0855 17.1341 13.0855 17.1681 13.0758 17.2C13.0942 17.3862 13.0942 17.5738 13.0758 17.76V17.84H13.2447V17.7778C13.2631 17.5797 13.2631 17.3803 13.2447 17.1822C13.2307 17.1119 13.1968 17.0471 13.1469 16.9956C13.0843 16.9526 13.0095 16.9308 12.9336 16.9334C12.8409 16.9495 12.7529 16.9859 12.6758 17.04H12.6936ZM25.5203 17.04V16.96H25.3603V17.8489H25.5203V17.2178C25.5558 17.1806 25.5986 17.1511 25.646 17.1313C25.6934 17.1114 25.7444 17.1015 25.7958 17.1022C25.8306 17.0919 25.8677 17.0919 25.9025 17.1022C25.9242 17.1312 25.9394 17.1646 25.9469 17.2C25.9608 17.3864 25.9608 17.5736 25.9469 17.76V17.84H26.1069V17.7778C26.1264 17.5798 26.1264 17.3803 26.1069 17.1822C26.1004 17.1095 26.0652 17.0424 26.0091 16.9956C25.9505 16.9514 25.8781 16.9293 25.8047 16.9334C25.6965 16.9427 25.5925 16.9794 25.5025 17.04H25.5203ZM22.5069 17.7778V17.8578H22.6758V17.6267V16.9334H22.5069V17.5822C22.4701 17.6201 22.4258 17.6499 22.3768 17.6698C22.3279 17.6897 22.2753 17.6992 22.2225 17.6978C22.2084 17.7037 22.1933 17.7067 22.178 17.7067C22.1628 17.7067 22.1477 17.7037 22.1336 17.6978C22.1258 17.6827 22.1217 17.6659 22.1217 17.6489C22.1217 17.6319 22.1258 17.6151 22.1336 17.6C22.1336 17.4756 22.1336 17.2889 22.1336 17.04V16.96H21.9736V17.04C21.9736 17.2889 21.9736 17.4845 21.9736 17.6178C21.9779 17.6874 22.0062 17.7533 22.0536 17.8045C22.0808 17.83 22.1131 17.8495 22.1483 17.8617C22.1835 17.8739 22.2209 17.8787 22.258 17.8756C22.3483 17.8659 22.4342 17.8321 22.5069 17.7778ZM23.3958 17.2267C23.4313 17.1895 23.4741 17.16 23.5215 17.1401C23.5689 17.1203 23.62 17.1104 23.6714 17.1111H23.7514V16.9511H23.6714C23.5684 16.9524 23.4674 16.9799 23.378 17.0311V16.9511H23.218V17.84H23.378L23.3958 17.2267ZM15.2003 17.2267C15.2358 17.1895 15.2786 17.16 15.326 17.1401C15.3734 17.1203 15.4244 17.1104 15.4758 17.1111H15.5647V16.9511H15.4758C15.373 16.9539 15.2724 16.9813 15.1825 17.0311V16.9511H15.0225V17.84H15.1825L15.2003 17.2267ZM11.4314 17.4845H12.0447V17.4134C12.0447 17.4134 12.0447 16.9334 11.6269 16.9334C11.5422 16.9417 11.4625 16.9774 11.3999 17.0352C11.3373 17.093 11.2953 17.1696 11.2803 17.2534C11.2573 17.3266 11.2494 17.4037 11.257 17.4801C11.2647 17.5565 11.2877 17.6306 11.3247 17.6978C11.3679 17.7521 11.4236 17.795 11.4871 17.8229C11.5506 17.8508 11.62 17.8628 11.6892 17.8578C11.7497 17.8648 11.8109 17.8521 11.8637 17.8217C11.9165 17.7913 11.9581 17.7448 11.9825 17.6889V17.6089L11.8225 17.5556V17.6356C11.8225 17.6356 11.8225 17.6978 11.6892 17.6978C11.6443 17.701 11.5994 17.6938 11.5578 17.6769C11.5162 17.6599 11.479 17.6336 11.4492 17.6V17.5111L11.4314 17.4845ZM10.6136 17.5822C10.5654 17.6248 10.5089 17.6569 10.4478 17.6768C10.3866 17.6967 10.3221 17.7038 10.258 17.6978C10.2087 17.699 10.1596 17.6902 10.1138 17.6718C10.0679 17.6535 10.0263 17.6261 9.99137 17.5911C9.91827 17.5009 9.88038 17.3872 9.88471 17.2711C9.87778 17.2043 9.88445 17.1368 9.90431 17.0727C9.92417 17.0085 9.95681 16.949 10.0003 16.8978C10.0386 16.8631 10.0836 16.8366 10.1325 16.8198C10.1814 16.803 10.2331 16.7962 10.2847 16.8C10.5514 16.8 10.6047 16.9511 10.6047 16.9511V17.0311H10.7647V16.9511C10.7398 16.8746 10.6897 16.8088 10.6225 16.7645C10.5243 16.695 10.4043 16.6634 10.2847 16.6756C10.2118 16.6706 10.1388 16.6807 10.0699 16.7052C10.0011 16.7296 9.93809 16.768 9.88471 16.8178C9.82567 16.8838 9.78097 16.9613 9.75343 17.0455C9.72589 17.1296 9.71611 17.2186 9.72471 17.3067C9.71745 17.4659 9.77153 17.6218 9.87582 17.7422C9.92637 17.7915 9.98618 17.8302 10.0518 17.8561C10.1174 17.882 10.1875 17.8947 10.258 17.8934C10.7025 17.8934 10.7647 17.6711 10.7647 17.6711V17.2711H10.2847V17.4311H10.6047L10.6136 17.5822ZM27.9736 17.4845H28.5869V17.4134C28.5869 17.4134 28.5869 16.9334 28.178 16.9334C28.0917 16.9398 28.01 16.9748 27.9456 17.0327C27.8813 17.0906 27.838 17.1682 27.8225 17.2534C27.7995 17.3266 27.7916 17.4037 27.7993 17.4801C27.8069 17.5565 27.8299 17.6306 27.8669 17.6978C27.9101 17.7521 27.9658 17.795 28.0294 17.8229C28.0929 17.8508 28.1622 17.8628 28.2314 17.8578C28.2919 17.8648 28.3531 17.8521 28.4059 17.8217C28.4587 17.7913 28.5004 17.7448 28.5247 17.6889V17.6089L28.3647 17.5556V17.6356C28.3647 17.6356 28.3647 17.6978 28.2314 17.6978C28.1866 17.701 28.1416 17.6938 28.1 17.6769C28.0584 17.6599 28.0212 17.6336 27.9914 17.6V17.5111L27.9736 17.4845ZM13.9558 17.4845H14.5691V17.4134C14.5691 17.4134 14.5692 16.9334 14.1514 16.9334C14.0661 16.9402 13.9856 16.9755 13.9228 17.0335C13.8599 17.0915 13.8184 17.1689 13.8047 17.2534C13.7817 17.3266 13.7738 17.4037 13.7815 17.4801C13.7891 17.5565 13.8121 17.6306 13.8492 17.6978C13.8923 17.7521 13.9481 17.795 14.0116 17.8229C14.0751 17.8508 14.1444 17.8628 14.2136 17.8578C14.2729 17.8642 14.3327 17.8512 14.384 17.8208C14.4353 17.7903 14.4753 17.7441 14.498 17.6889V17.6089L14.3469 17.5556V17.6356C14.3469 17.6356 14.3469 17.6978 14.2136 17.6978C14.1687 17.7017 14.1235 17.6948 14.0818 17.6778C14.0401 17.6608 14.003 17.6342 13.9736 17.6C13.9647 17.5711 13.9647 17.5401 13.9736 17.5111L13.9558 17.4845ZM24.6225 17.4222C24.5376 17.4344 24.4542 17.4553 24.3736 17.4845C24.3025 17.4845 24.2403 17.5645 24.2403 17.6356C24.225 17.6726 24.225 17.7141 24.2403 17.7511C24.2596 17.7606 24.2809 17.7655 24.3025 17.7655C24.324 17.7655 24.3453 17.7606 24.3647 17.7511C24.4398 17.7357 24.51 17.7021 24.5691 17.6534L24.6225 17.4222ZM16.4358 17.4222C16.3509 17.4344 16.2675 17.4553 16.1869 17.4845C16.1158 17.4845 16.0536 17.5645 16.0536 17.6356C16.0536 17.7067 16.0536 17.7245 16.0536 17.7422C16.069 17.7488 16.0857 17.7523 16.1025 17.7523C16.1193 17.7523 16.1359 17.7488 16.1514 17.7422C16.2392 17.728 16.3219 17.6913 16.3914 17.6356L16.4358 17.4222ZM13.9292 17.3245H14.3736C14.3724 17.2929 14.3651 17.262 14.352 17.2333C14.3388 17.2046 14.3202 17.1788 14.2971 17.1573C14.2739 17.1359 14.2468 17.1192 14.2173 17.1082C14.1877 17.0972 14.1562 17.0922 14.1247 17.0934C14.0269 17.0934 13.9647 17.1911 13.938 17.2978L13.9292 17.3245ZM11.4047 17.3245H11.8492C11.848 17.2929 11.8407 17.262 11.8275 17.2333C11.8144 17.2046 11.7957 17.1788 11.7726 17.1573C11.7495 17.1359 11.7224 17.1192 11.6928 17.1082C11.6632 17.0972 11.6318 17.0922 11.6003 17.0934C11.5025 17.0934 11.4403 17.1911 11.4136 17.2978L11.4047 17.3245ZM27.9469 17.3245H28.4447C28.4424 17.2624 28.4161 17.2036 28.3713 17.1605C28.3266 17.1174 28.2668 17.0933 28.2047 17.0934C28.098 17.0934 28.0358 17.1911 28.0091 17.2978L27.9469 17.3245Z" fill="#5EB747"/>
</g>
<defs>
<clipPath id="clip0_2707_372513">
<rect width="32" height="32" fill="white"/>
</clipPath>
</defs>
</svg>
