<svg width="32" height="32" viewBox="0 0 32 32" fill="none" xmlns="http://www.w3.org/2000/svg">
<g clip-path="url(#clip0_2707_372428)">
<path d="M15.9998 31.9822C24.8265 31.9822 31.982 24.8268 31.982 16C31.982 7.17328 24.8265 0.0177917 15.9998 0.0177917C7.17306 0.0177917 0.0175781 7.17328 0.0175781 16C0.0175781 24.8268 7.17306 31.9822 15.9998 31.9822Z" fill="white"/>
<path d="M2.39941 16.4089C2.44879 16.2824 2.51454 16.1628 2.59497 16.0533C2.79705 15.8817 3.04359 15.7708 3.30608 15.7333C3.47296 15.701 3.64277 15.6861 3.81275 15.6889C3.89275 15.6889 3.91941 15.6889 3.91053 15.5822C3.92397 15.3988 3.92397 15.2146 3.91053 15.0311C3.89925 14.9187 3.84473 14.8151 3.75849 14.7421C3.67225 14.6691 3.56103 14.6325 3.4483 14.64C3.3927 14.6352 3.3367 14.6415 3.28359 14.6587C3.23048 14.6758 3.18134 14.7034 3.13909 14.7399C3.09683 14.7763 3.06231 14.8209 3.03755 14.8709C3.0128 14.9209 2.99832 14.9754 2.99497 15.0311C2.99497 15.1467 2.93275 15.1645 2.82608 15.1556H2.55053C2.44386 15.1556 2.43497 15.1556 2.45275 15.04C2.48436 14.9012 2.55453 14.7742 2.65518 14.6736C2.75582 14.5729 2.88285 14.5027 3.02164 14.4711C3.28054 14.4 3.55384 14.4 3.81275 14.4711C3.97644 14.4975 4.12352 14.5863 4.22301 14.719C4.32249 14.8516 4.36661 15.0177 4.34608 15.1822C4.34608 15.8311 4.34608 16.4711 4.34608 17.1111C4.34608 17.1645 4.34608 17.1911 4.27497 17.1822C4.1683 17.1822 4.02608 17.2267 3.96386 17.1822C3.90164 17.1378 3.96386 16.9867 3.96386 16.8711C3.96386 16.7556 3.90164 16.9245 3.87497 16.9511C3.7713 17.0663 3.6408 17.1542 3.49505 17.2069C3.3493 17.2596 3.1928 17.2756 3.03941 17.2533C2.91981 17.2414 2.80633 17.1947 2.71309 17.1188C2.61986 17.0429 2.55096 16.9414 2.51497 16.8267C2.51497 16.8267 2.51497 16.7467 2.46164 16.7289L2.39941 16.4089ZM3.91053 16.1422V15.92C3.91223 15.9127 3.91203 15.905 3.90996 15.8977C3.90788 15.8905 3.90399 15.8839 3.89866 15.8786C3.89332 15.8732 3.88671 15.8693 3.87946 15.8672C3.87221 15.8652 3.86454 15.865 3.85719 15.8667C3.69549 15.8532 3.53277 15.874 3.37962 15.9276C3.22646 15.9812 3.08632 16.0664 2.9683 16.1778C2.91094 16.2599 2.88018 16.3576 2.88018 16.4578C2.88018 16.5579 2.91094 16.6557 2.9683 16.7378C3.00968 16.8152 3.07645 16.876 3.15739 16.91C3.23832 16.944 3.3285 16.9491 3.41275 16.9245C3.48581 16.9125 3.55512 16.8838 3.61526 16.8407C3.6754 16.7975 3.72474 16.741 3.75941 16.6756C3.86535 16.5184 3.91829 16.3316 3.91053 16.1422Z" fill="#722149"/>
<path d="M14.7646 16.4356C14.898 16.5334 15.0313 16.6134 15.1558 16.7111C15.3431 16.8388 15.4881 17.0196 15.5721 17.2302C15.656 17.4409 15.6751 17.6718 15.6269 17.8934C15.5894 18.1155 15.4836 18.3204 15.3244 18.4797C15.1651 18.639 14.9601 18.7448 14.738 18.7822C14.5128 18.8522 14.2733 18.8627 14.0428 18.8129C13.8123 18.763 13.5986 18.6545 13.4224 18.4978C13.3105 18.3855 13.2254 18.2494 13.1737 18.0995C13.1219 17.9497 13.1048 17.79 13.1236 17.6326C13.1425 17.4752 13.1967 17.3241 13.2823 17.1907C13.368 17.0572 13.4827 16.9449 13.618 16.8622C13.7069 16.8 13.7869 16.8622 13.8491 16.9334C13.9113 17.0045 13.8491 17.0134 13.7958 17.0489C13.6709 17.2148 13.5928 17.4111 13.5693 17.6174C13.5459 17.8237 13.578 18.0325 13.6624 18.2222C13.7214 18.4215 13.857 18.5891 14.0395 18.6883C14.2221 18.7875 14.4365 18.8101 14.6358 18.7511C14.835 18.6922 15.0026 18.5565 15.1018 18.374C15.201 18.1915 15.2236 17.977 15.1646 17.7778C15.1421 17.5851 15.0696 17.4017 14.9542 17.2457C14.8388 17.0898 14.6846 16.9668 14.5069 16.8889C14.1969 16.7316 13.8997 16.5503 13.618 16.3467C13.4317 16.2117 13.2969 16.0173 13.2358 15.7956C13.1994 15.6508 13.194 15.5 13.2201 15.353C13.2462 15.206 13.3031 15.0662 13.387 14.9428C13.471 14.8194 13.5801 14.7152 13.7073 14.6369C13.8344 14.5587 13.9766 14.5082 14.1246 14.4889C14.4244 14.4217 14.7382 14.4593 15.0135 14.5956C15.0721 14.6086 15.1328 14.6086 15.1913 14.5956C15.6171 14.6195 16.0441 14.5896 16.4624 14.5067C16.6313 14.5067 16.6313 14.5067 16.6313 14.6489C16.6313 14.7911 16.6313 14.9511 16.6313 15.1022C16.6828 14.9784 16.7452 14.8594 16.818 14.7467C16.8784 14.6628 16.9589 14.5953 17.052 14.5503C17.1451 14.5053 17.248 14.4842 17.3513 14.4889C17.3513 14.4889 17.4313 14.4889 17.4313 14.5511C17.4224 14.6695 17.4224 14.7883 17.4313 14.9067C17.4313 14.9067 17.4313 14.96 17.3691 14.96C17.2838 14.9384 17.1947 14.9365 17.1086 14.9545C17.0225 14.9725 16.9416 15.0099 16.8721 15.064C16.8027 15.118 16.7465 15.1871 16.7078 15.2662C16.6692 15.3452 16.6491 15.432 16.6491 15.52C16.64 15.6235 16.64 15.7276 16.6491 15.8311V17.1289C16.6491 17.2089 16.6491 17.2356 16.5424 17.2356C16.2046 17.2356 16.2046 17.2356 16.2046 16.9156C16.2046 16.3111 16.2046 15.7067 16.2046 15.1378C16.2077 15.0706 16.193 15.0037 16.1619 14.944C16.1308 14.8843 16.0845 14.8338 16.0277 14.7977C15.9709 14.7616 15.9055 14.7412 15.8382 14.7385C15.771 14.7358 15.7042 14.7509 15.6446 14.7822C15.6132 14.7891 15.5838 14.8033 15.5589 14.8237C15.5339 14.844 15.5142 14.87 15.5012 14.8995C15.4882 14.9289 15.4823 14.961 15.4841 14.9932C15.4858 15.0253 15.4952 15.0566 15.5113 15.0845C15.5952 15.2675 15.6145 15.4735 15.5661 15.6689C15.5176 15.8643 15.4043 16.0374 15.2446 16.16C15.0967 16.2715 14.9355 16.3641 14.7646 16.4356ZM15.1113 15.4311C15.1205 15.3455 15.1205 15.259 15.1113 15.1734C15.073 15.0186 14.9857 14.8804 14.8623 14.7794C14.7389 14.6785 14.5861 14.6202 14.4269 14.6134C14.276 14.6011 14.1255 14.6413 14.0008 14.7272C13.8762 14.813 13.7849 14.9392 13.7424 15.0845C13.6829 15.2367 13.6715 15.4035 13.7096 15.5624C13.7478 15.7213 13.8337 15.8647 13.9558 15.9734C14.115 16.1151 14.2949 16.232 14.4891 16.32C14.508 16.3352 14.5315 16.3434 14.5558 16.3434C14.58 16.3434 14.6035 16.3352 14.6224 16.32C14.7702 16.2229 14.892 16.0912 14.9772 15.9363C15.0624 15.7813 15.1085 15.6079 15.1113 15.4311Z" fill="#722149"/>
<path d="M20.8265 16.7822V18.2578C20.8265 18.3645 20.8265 18.4 20.702 18.4C20.382 18.4 20.382 18.4 20.382 18.08V15.0578C20.382 14.7822 20.2843 14.6756 20.0087 14.6489C20.0087 14.6489 19.9287 14.6489 19.9287 14.5956C19.9287 14.5422 19.9287 14.5422 19.9998 14.5334L20.7643 14.4178C20.8265 14.4178 20.8265 14.4178 20.8265 14.48V14.8089C20.9117 14.6818 21.0282 14.5787 21.1649 14.5099C21.3015 14.441 21.4537 14.4085 21.6065 14.4157C21.7594 14.4228 21.9079 14.4693 22.0375 14.5507C22.1671 14.632 22.2736 14.7455 22.3465 14.88C22.5215 15.2262 22.6013 15.6128 22.5776 16C22.5759 16.2783 22.5089 16.5523 22.382 16.8C22.3077 16.9436 22.1955 17.0642 22.0577 17.1488C21.9198 17.2334 21.7615 17.2787 21.5998 17.28C21.4633 17.2787 21.329 17.2459 21.2072 17.1842C21.0854 17.1225 20.9795 17.0337 20.8976 16.9245L20.8265 16.7822ZM20.8265 15.7511V16C20.8168 16.3261 20.9312 16.6438 21.1465 16.8889C21.1895 16.9321 21.2408 16.9662 21.2973 16.9891C21.3539 17.012 21.4144 17.0233 21.4754 17.0222C21.5405 17.0229 21.6051 17.0098 21.6649 16.9838C21.7246 16.9577 21.7782 16.9193 21.822 16.8711C21.9015 16.7852 21.9594 16.6816 21.9909 16.5689C22.1046 16.1913 22.126 15.792 22.0532 15.4045C22.0334 15.2021 21.9597 15.0087 21.8398 14.8445C21.797 14.7886 21.7418 14.7434 21.6786 14.7126C21.6153 14.6817 21.5458 14.666 21.4754 14.6667C21.3768 14.6645 21.2798 14.691 21.1961 14.7431C21.1124 14.7952 21.0457 14.8706 21.0043 14.96C20.8654 15.1993 20.8034 15.4754 20.8265 15.7511Z" fill="#722149"/>
<path d="M23.5549 15.2267C23.6527 15.0756 23.7238 14.9511 23.8038 14.8445C23.89 14.7091 24.015 14.6028 24.1624 14.5394C24.3098 14.476 24.4729 14.4584 24.6305 14.4889C24.7234 14.5001 24.8118 14.5356 24.8867 14.5917C24.9616 14.6479 25.0204 14.7228 25.0571 14.8089C25.1203 14.9735 25.1534 15.1482 25.1549 15.3245V17.1022C25.1549 17.1822 25.1549 17.2178 25.0482 17.2178C24.7016 17.2178 24.7016 17.2178 24.7016 16.8889V15.4667C24.7147 15.3426 24.7147 15.2175 24.7016 15.0934C24.7035 15.0257 24.685 14.959 24.6486 14.9019C24.6121 14.8448 24.5594 14.8001 24.4971 14.7734C24.429 14.7433 24.3532 14.7349 24.2801 14.7492C24.207 14.7635 24.1401 14.7998 24.0882 14.8534C23.9199 14.993 23.7847 15.1683 23.6925 15.3667C23.6003 15.565 23.5533 15.7813 23.5549 16V17.0845C23.5549 17.1734 23.5549 17.1911 23.4482 17.2C23.1105 17.2 23.1105 17.2 23.1105 16.8711V13.8311C23.1105 13.5556 23.0216 13.4578 22.7549 13.4222C22.7105 13.4222 22.6571 13.4222 22.666 13.3511C22.6749 13.28 22.7105 13.2978 22.746 13.2978L23.4394 13.1911C23.5282 13.1911 23.5638 13.1911 23.5638 13.2978C23.5549 13.9289 23.5549 14.56 23.5549 15.2267Z" fill="#722149"/>
<path d="M12.2398 16.8356C12.0984 17.0196 11.8972 17.1486 11.6709 17.2C11.5537 17.2324 11.4305 17.2365 11.3114 17.2117C11.1924 17.187 11.081 17.1342 10.9864 17.0578C10.9152 16.9869 10.8599 16.9016 10.8245 16.8076C10.789 16.7135 10.7741 16.613 10.7809 16.5127C10.7876 16.4124 10.8158 16.3148 10.8635 16.2263C10.9113 16.1379 10.9774 16.0607 11.0575 16C11.2953 15.8488 11.5674 15.7601 11.8486 15.7422H12.1864C12.1864 15.7422 12.2664 15.7422 12.2664 15.68C12.293 15.4556 12.293 15.2289 12.2664 15.0045C12.2399 14.9091 12.1811 14.8259 12.1 14.7692C12.0189 14.7124 11.9206 14.6856 11.822 14.6933C11.7264 14.6841 11.6308 14.7096 11.5524 14.7651C11.4741 14.8206 11.4183 14.9024 11.3953 14.9956C11.3953 15.0667 11.3953 15.1733 11.3242 15.2C11.2531 15.2267 11.1731 15.2 11.0842 15.2H11.0131C10.8086 15.2 10.7998 15.2 10.8709 15.0045C10.9106 14.8817 10.9814 14.7713 11.0764 14.6841C11.1714 14.5969 11.2874 14.5357 11.4131 14.5067C11.6736 14.4487 11.9437 14.4487 12.2042 14.5067C12.3532 14.534 12.4877 14.6133 12.5838 14.7305C12.6798 14.8477 12.7311 14.9952 12.7286 15.1467C12.7331 15.2325 12.7331 15.3186 12.7286 15.4045V17.1022C12.7286 17.2 12.7286 17.2356 12.6042 17.2267C12.4798 17.2178 12.3731 17.2267 12.302 17.2267C12.2309 17.2267 12.2842 16.9511 12.2398 16.8356ZM12.2398 16.1245V15.9289C12.2398 15.8756 12.2398 15.8667 12.1775 15.8667C11.8789 15.8556 11.587 15.9571 11.3598 16.1511C11.2912 16.2239 11.248 16.3169 11.2368 16.4163C11.2256 16.5157 11.2469 16.616 11.2975 16.7022C11.3347 16.7869 11.4006 16.8556 11.4835 16.8963C11.5665 16.937 11.6612 16.9469 11.7509 16.9245C11.8229 16.9129 11.8914 16.8853 11.9514 16.8437C12.0114 16.8022 12.0613 16.7478 12.0975 16.6845C12.2122 16.5211 12.2686 16.3238 12.2575 16.1245H12.2398Z" fill="#74244C"/>
<path d="M19.2354 16.8178L18.9865 17.04C18.8856 17.1182 18.7691 17.1737 18.6449 17.2029C18.5207 17.232 18.3916 17.2341 18.2665 17.2089C18.1489 17.1971 18.0376 17.15 17.9472 17.0739C17.8568 16.9978 17.7915 16.8961 17.7598 16.7822C17.7131 16.6589 17.7025 16.5249 17.7293 16.3958C17.756 16.2667 17.8191 16.1479 17.9109 16.0533C18.1617 15.8443 18.4737 15.7226 18.7998 15.7067H19.1465C19.1998 15.7067 19.2265 15.7067 19.2265 15.6356C19.2265 15.44 19.2265 15.2533 19.2265 15.0578C19.2196 14.9485 19.1701 14.8463 19.0887 14.7732C19.0072 14.7 18.9003 14.6618 18.7909 14.6667C18.7364 14.6566 18.6803 14.6579 18.6262 14.6707C18.5722 14.6834 18.5214 14.7073 18.4771 14.7407C18.4328 14.7741 18.3959 14.8164 18.3688 14.8649C18.3418 14.9134 18.3251 14.967 18.3198 15.0222C18.3198 15.1644 18.2398 15.1911 18.1065 15.1822H17.8754C17.7865 15.1822 17.7687 15.1822 17.7865 15.0756C17.8114 14.931 17.8788 14.7971 17.9801 14.691C18.0814 14.5849 18.2121 14.5115 18.3554 14.48C18.6149 14.4134 18.887 14.4134 19.1465 14.48C19.2941 14.5035 19.4283 14.5793 19.5245 14.6935C19.6208 14.8077 19.6728 14.9528 19.6709 15.1022C19.6709 15.2178 19.6709 15.3333 19.6709 15.4489C19.6709 15.9911 19.6709 16.5245 19.6709 17.0578C19.6709 17.1556 19.6709 17.2089 19.5465 17.1911C19.4221 17.1733 19.2976 17.2356 19.2354 17.1911C19.1732 17.1467 19.2354 16.9422 19.2354 16.8178ZM19.2354 16.0978V15.9289C19.2354 15.9289 19.2354 15.8667 19.1821 15.8667C18.8775 15.8519 18.5788 15.9536 18.3465 16.1511C18.2777 16.2274 18.2346 16.3234 18.2235 16.4255C18.2123 16.5276 18.2336 16.6307 18.2843 16.72C18.3239 16.8001 18.3892 16.8646 18.4697 16.9033C18.5503 16.9419 18.6415 16.9525 18.7287 16.9333C18.8032 16.9187 18.8739 16.8891 18.9365 16.8463C18.9991 16.8035 19.0524 16.7485 19.0932 16.6845C19.1982 16.5078 19.2448 16.3025 19.2265 16.0978H19.2354Z" fill="#722149"/>
<path d="M28.5869 16.8267C28.4352 17.0113 28.2304 17.1447 28.0003 17.2089C27.9023 17.24 27.7986 17.2486 27.6968 17.234C27.595 17.2195 27.4979 17.1823 27.4125 17.1251C27.3271 17.0679 27.2557 16.9921 27.2035 16.9036C27.1514 16.815 27.1199 16.7158 27.1114 16.6133C27.0911 16.4416 27.134 16.2684 27.2322 16.1261C27.3303 15.9837 27.477 15.882 27.6447 15.84C27.9089 15.7403 28.189 15.6891 28.4714 15.6889C28.5958 15.6889 28.6136 15.6889 28.6047 15.5467C28.5958 15.4045 28.6047 15.2533 28.6047 15.1022C28.5835 15.0035 28.5305 14.9145 28.4539 14.8488C28.3773 14.783 28.2813 14.7441 28.1805 14.7381C28.0797 14.732 27.9798 14.7591 27.8958 14.8153C27.8119 14.8714 27.7487 14.9535 27.7158 15.0489C27.7158 15.1378 27.6714 15.1733 27.5736 15.1645H27.2803C27.1914 15.1645 27.1736 15.1645 27.1914 15.0578C27.2201 14.9134 27.2899 14.7804 27.3924 14.6748C27.4949 14.5692 27.6257 14.4953 27.7691 14.4622C28.0238 14.4055 28.2878 14.4055 28.5425 14.4622C28.7075 14.4907 28.8555 14.581 28.9563 14.7148C29.0571 14.8486 29.103 15.0157 29.0847 15.1822C29.0847 15.6267 29.0847 16.0711 29.0847 16.5245V17.0933C29.0847 17.1556 29.0847 17.1911 28.9958 17.1822C28.8891 17.1822 28.7558 17.1822 28.6758 17.1822C28.5958 17.1822 28.6136 16.9511 28.5869 16.8267ZM28.5869 16.1245V15.9378C28.5869 15.8845 28.5869 15.8667 28.5247 15.8667C28.2365 15.8594 27.9544 15.9503 27.7247 16.1245C27.6391 16.2179 27.5917 16.34 27.5917 16.4667C27.5917 16.5934 27.6391 16.7155 27.7247 16.8089C27.8069 16.8851 27.9148 16.9275 28.0269 16.9275C28.139 16.9275 28.247 16.8851 28.3292 16.8089C28.4245 16.724 28.4983 16.6177 28.5447 16.4987C28.591 16.3797 28.6085 16.2515 28.5958 16.1245H28.5869Z" fill="#722149"/>
<path d="M4.95117 16.7378L5.27117 16.8978C5.49947 17.004 5.75874 17.0229 6.00006 16.9511C6.08017 16.9295 6.15224 16.885 6.20744 16.823C6.26264 16.7611 6.29857 16.6843 6.31083 16.6023C6.32309 16.5202 6.31116 16.4363 6.27649 16.3609C6.24181 16.2855 6.18591 16.2219 6.11562 16.1778C5.97852 16.0788 5.82911 15.9982 5.67117 15.9378C5.49644 15.8575 5.33225 15.756 5.18228 15.6356C5.10116 15.5646 5.03899 15.4745 5.0014 15.3735C4.96381 15.2725 4.95198 15.1637 4.96697 15.0569C4.98197 14.9502 5.02332 14.8489 5.0873 14.7621C5.15127 14.6753 5.23585 14.6059 5.33339 14.56C5.71613 14.4065 6.14035 14.3908 6.53339 14.5156C6.57784 14.5156 6.57784 14.56 6.57784 14.5956V14.88C6.41807 14.7866 6.24382 14.7205 6.06228 14.6845C5.89151 14.6418 5.71098 14.6639 5.55562 14.7467C5.50728 14.7725 5.46687 14.8109 5.43869 14.8579C5.4105 14.9048 5.39562 14.9586 5.39562 15.0133C5.39544 15.0766 5.414 15.1384 5.44895 15.1911C5.5541 15.3127 5.68455 15.4098 5.83117 15.4756C6.00006 15.5556 6.16895 15.6267 6.32895 15.7156C6.48983 15.7927 6.61825 15.9242 6.69146 16.0869C6.76467 16.2496 6.77795 16.4329 6.72895 16.6045C6.70508 16.7348 6.64483 16.8556 6.55518 16.9532C6.46553 17.0507 6.35012 17.1209 6.22228 17.1556C5.83665 17.2709 5.42569 17.2709 5.04006 17.1556C5.02278 17.1534 5.0069 17.145 4.99543 17.1318C4.98396 17.1187 4.9777 17.1019 4.97784 17.0845L4.95117 16.7378Z" fill="#722149"/>
<path d="M7.86653 13.6089V14.3911C7.86653 14.4623 7.86653 14.4978 7.9643 14.4889C8.06208 14.48 8.2843 14.4889 8.4443 14.4889C8.6043 14.4889 8.58653 14.4889 8.58653 14.5956C8.58653 14.7023 8.5243 14.6934 8.45319 14.6934H7.99986C7.93764 14.6934 7.91097 14.6934 7.91097 14.7822C7.91097 15.3956 7.91097 16.0089 7.91097 16.6223C7.90606 16.7104 7.93587 16.797 7.99402 16.8635C8.05217 16.9299 8.13404 16.971 8.22208 16.9778C8.31941 16.9911 8.41809 16.9911 8.51542 16.9778H8.61319C8.61319 16.9778 8.66653 17.1378 8.55986 17.1556C8.26196 17.2262 7.94899 17.1949 7.67097 17.0667C7.61404 17.0333 7.56583 16.9869 7.53029 16.9313C7.49475 16.8756 7.4729 16.8124 7.46653 16.7467C7.45279 16.6197 7.45279 16.4915 7.46653 16.3645V14.7645C7.46653 14.6756 7.46653 14.6311 7.35097 14.6489C7.28586 14.6445 7.22053 14.6445 7.15542 14.6489C7.03986 14.6489 7.01319 14.6489 7.02208 14.5067C7.03097 14.3645 7.02208 14.4356 7.09319 14.4445H7.11097C7.21764 14.4445 7.37764 14.4978 7.43986 14.4445C7.47175 14.3311 7.47175 14.2112 7.43986 14.0978C7.43606 14.0603 7.44228 14.0224 7.4579 13.988C7.47351 13.9537 7.49796 13.9241 7.52875 13.9023C7.62653 13.8311 7.73319 13.7245 7.86653 13.6089Z" fill="#722149"/>
<path d="M9.71506 15.1111C9.7556 14.9929 9.80926 14.8796 9.87506 14.7733C9.9338 14.6885 10.0122 14.6192 10.1035 14.5712C10.1948 14.5232 10.2964 14.498 10.3995 14.4978C10.4617 14.4978 10.4973 14.4978 10.4973 14.5956C10.4884 14.6931 10.4884 14.7913 10.4973 14.8889C10.4973 14.96 10.4973 14.9778 10.4084 14.96C10.2847 14.9298 10.1543 14.9457 10.0415 15.0045C9.92864 15.0634 9.84105 15.1613 9.79506 15.28C9.71593 15.4713 9.67953 15.6776 9.68839 15.8844V17.1378C9.68839 17.2267 9.68839 17.2533 9.57284 17.2533C9.25284 17.2533 9.25284 17.2533 9.25284 16.9333V15.1556C9.25284 14.8267 9.1995 14.7556 8.8795 14.6933C8.83506 14.6933 8.82617 14.6933 8.82617 14.64C8.82617 14.5867 8.82617 14.5867 8.88839 14.5778L9.4395 14.4889C9.68839 14.4889 9.68839 14.4889 9.68839 14.7022V15.1111H9.71506Z" fill="#74244C"/>
<path d="M26.3993 15.8489C26.3993 16.2667 26.3993 16.7378 26.3993 17.12C26.3993 17.2089 26.3993 17.2356 26.2838 17.2356C25.9549 17.2356 25.9549 17.2356 25.9549 16.9156V15.1378C25.9549 14.8267 25.9104 14.7645 25.5993 14.6845C25.5993 14.6845 25.5371 14.6845 25.5371 14.6222C25.5371 14.56 25.5371 14.5689 25.6082 14.5689L26.3193 14.4445C26.4171 14.4445 26.3993 14.4445 26.3993 14.5333V15.8489Z" fill="#722149"/>
<path d="M26.16 13.2622C26.2426 13.2622 26.3217 13.295 26.38 13.3533C26.4384 13.4117 26.4712 13.4908 26.4712 13.5733C26.4712 13.6582 26.4374 13.7396 26.3774 13.7996C26.3174 13.8596 26.236 13.8933 26.1512 13.8933C26.0631 13.891 25.9795 13.8544 25.918 13.7913C25.8566 13.7282 25.8222 13.6436 25.8223 13.5556C25.8267 13.473 25.8621 13.3951 25.9214 13.3374C25.9807 13.2798 26.0596 13.2466 26.1423 13.2444L26.16 13.2622Z" fill="#722149"/>
</g>
<defs>
<clipPath id="clip0_2707_372428">
<rect width="32" height="32" fill="white"/>
</clipPath>
</defs>
</svg>
