<svg width="32" height="32" viewBox="0 0 32 32" fill="none" xmlns="http://www.w3.org/2000/svg">
<g clip-path="url(#clip0_2737_120410)">
<mask id="mask0_2737_120410" style="mask-type:luminance" maskUnits="userSpaceOnUse" x="0" y="0" width="32" height="32">
<path d="M31.9909 0.0177917H0.0175781V31.9911H31.9909V0.0177917Z" fill="white"/>
</mask>
<g mask="url(#mask0_2737_120410)">
<path d="M15.9998 31.9822C24.8265 31.9822 31.982 24.8268 31.982 16C31.982 7.17328 24.8265 0.0177917 15.9998 0.0177917C7.17306 0.0177917 0.0175781 7.17328 0.0175781 16C0.0175781 24.8268 7.17306 31.9822 15.9998 31.9822Z" fill="white"/>
<path d="M25.9553 23.7689C25.9553 23.7689 25.8842 23.7689 25.8398 23.7689C24.6753 23.7689 23.5109 23.7689 22.3464 23.7689C20.7109 23.7689 19.0753 23.7689 17.4398 23.76C17.4131 23.76 17.3864 23.76 17.3509 23.76C17.3331 23.7245 17.3064 23.6889 17.2886 23.6534C16.0531 21.4845 14.8175 19.3067 13.582 17.1378C13.5286 17.04 13.4664 16.9423 13.4131 16.8445C13.4131 16.8356 13.4131 16.8267 13.422 16.8089C13.6975 16.3022 13.982 15.8045 14.2575 15.2978C14.4886 14.8889 14.7109 14.48 14.9331 14.0711C14.9775 13.9911 15.022 13.92 15.0664 13.84C15.0842 13.8667 15.102 13.8934 15.1198 13.92C16.0353 15.52 16.9509 17.1111 17.8575 18.7111C18.2575 19.4134 18.6575 20.1156 19.0575 20.8089C19.0664 20.8356 19.0842 20.8534 19.102 20.88H25.8575C25.8575 20.88 25.8575 20.9422 25.8575 20.9689C25.8753 21.4934 25.8842 22.0178 25.902 22.5511C25.902 22.8534 25.9109 23.1556 25.9198 23.4578C25.9198 23.4845 25.9198 23.52 25.9286 23.5467V23.7689H25.9553Z" fill="#E6222A"/>
<path d="M15.075 13.84C15.0305 13.92 14.9861 13.9911 14.9416 14.0711C14.7105 14.48 14.4883 14.8889 14.2661 15.2978C13.9905 15.8045 13.7061 16.3022 13.4305 16.8089C13.4305 16.8178 13.4305 16.8267 13.4216 16.8445C13.3861 16.9067 13.3505 16.96 13.315 17.0222C12.4261 18.6222 11.5372 20.2311 10.6483 21.8311C10.3372 22.4 10.0172 22.96 9.70607 23.5289C9.69718 23.5467 9.6794 23.5645 9.67051 23.5911C8.46162 23.6 7.25273 23.6089 6.05273 23.6267C6.07051 23.5467 16.2927 5.6178 16.4616 5.35114C17.555 5.36002 18.6483 5.36891 19.7505 5.38669C19.7327 5.42225 19.715 5.4578 19.6972 5.48447C19.0483 6.64891 18.4083 7.81336 17.7594 8.98669C16.8883 10.5689 16.0083 12.1511 15.1372 13.7334C15.1194 13.7778 15.1016 13.8134 15.075 13.8578" fill="#222222"/>
</g>
</g>
<defs>
<clipPath id="clip0_2737_120410">
<rect width="32" height="32" fill="white"/>
</clipPath>
</defs>
</svg>
