<svg width="32" height="32" viewBox="0 0 32 32" fill="none" xmlns="http://www.w3.org/2000/svg">
<g clip-path="url(#clip0_2707_372143)">
<path d="M16.284 31.9822C25.1107 31.9822 32.2662 24.8267 32.2662 16C32.2662 7.17326 25.1107 0.0177765 16.284 0.0177765C7.45724 0.0177765 0.301758 7.17326 0.301758 16C0.301758 24.8267 7.45724 31.9822 16.284 31.9822Z" fill="white"/>
<path d="M15.6884 17.2267H14.5151C14.4788 17.2176 14.4471 17.1955 14.4262 17.1644C14.2218 16.8711 14.0262 16.5778 13.8307 16.2756L13.7773 16.2222L13.2618 16.9867L12.2929 18.4267C12.2929 18.4711 12.1773 18.48 12.124 18.5067L12.9507 17.2711H10.7995C10.7107 17.2711 10.6662 17.2711 10.6484 17.1556C10.6307 17.04 10.5595 16.7911 10.5062 16.6133C10.4967 16.5946 10.4828 16.5784 10.4658 16.5661C10.4489 16.5537 10.4292 16.5455 10.4084 16.5422H9.30621C9.2351 16.5422 9.21732 16.5422 9.19954 16.6311L9.03066 17.28H7.86621C7.91954 17.1111 7.96399 16.96 8.01732 16.8C8.31954 15.8489 8.63066 14.8978 8.90621 13.9467C8.95954 13.7689 9.02177 13.6 9.0751 13.4311C9.0761 13.4185 9.07976 13.4063 9.08584 13.3953C9.09192 13.3842 9.10029 13.3746 9.11038 13.367C9.12047 13.3595 9.13205 13.3541 9.14436 13.3514C9.15667 13.3486 9.16942 13.3485 9.18177 13.3511H10.4351C10.5151 13.3511 10.524 13.3511 10.5418 13.4489L11.1373 15.1111L11.8218 17.2089C11.8468 17.1929 11.868 17.1717 11.884 17.1467L13.084 15.3689C13.1052 15.3459 13.117 15.3157 13.117 15.2844C13.117 15.2531 13.1052 15.223 13.084 15.2L11.9018 13.4222C11.9018 13.4222 11.8573 13.36 11.8307 13.3067H13.004C13.0257 13.3105 13.0464 13.3188 13.0648 13.3311C13.0831 13.3433 13.0987 13.3592 13.1107 13.3778L13.7151 14.2667L13.7595 14.3111C13.9373 14.0533 14.124 13.8133 14.2751 13.5467C14.316 13.4507 14.3887 13.3718 14.481 13.3232C14.5733 13.2746 14.6795 13.2594 14.7818 13.28C15.0097 13.2933 15.2383 13.2933 15.4662 13.28C15.4929 13.277 15.5186 13.2683 15.5416 13.2545C15.5646 13.2407 15.5844 13.2221 15.5995 13.2C15.8484 12.8444 16.0973 12.48 16.3373 12.1156C16.3581 12.077 16.3917 12.0471 16.4323 12.0308C16.4729 12.0146 16.518 12.0131 16.5595 12.0267L16.5151 12.1156L14.684 14.7822C14.604 14.8978 14.5329 15.0222 14.444 15.1378C14.3551 15.2533 14.444 15.2533 14.444 15.3156L15.6262 17.0933C15.6599 17.1305 15.6816 17.177 15.6884 17.2267ZM9.84843 14C9.7151 14.56 9.58177 15.0844 9.44843 15.6178H10.2662C10.1329 15.1111 9.99954 14.56 9.84843 14Z" fill="#099ED9"/>
<path d="M3.94613 17.2178H3.00391V13.3333H4.29279C4.37279 13.3333 4.40835 13.3333 4.43502 13.44C4.67502 14.2756 4.92391 15.1111 5.1728 15.9467C5.17056 15.9881 5.17056 16.0297 5.1728 16.0711C5.1728 15.9911 5.24391 15.9111 5.27057 15.8311C5.44835 15.2267 5.61724 14.6222 5.78613 14.0533L5.97279 13.44C5.97279 13.44 6.01724 13.36 6.04391 13.36H7.43946V17.2622H6.48835V14.48L5.98168 16.3022C5.90168 16.5778 5.82168 16.8444 5.75057 17.12C5.74844 17.1329 5.74373 17.1453 5.73672 17.1564C5.7297 17.1675 5.72053 17.177 5.70975 17.1845C5.69897 17.192 5.6868 17.1972 5.67396 17.1998C5.66112 17.2025 5.64788 17.2026 5.63502 17.2H4.78168C4.71946 17.2 4.6928 17.2 4.67502 17.12C4.56835 16.72 4.4528 16.32 4.33724 15.92C4.22168 15.52 4.04391 14.9156 3.91057 14.4267C3.91946 15.36 3.92835 16.2844 3.94613 17.2178Z" fill="#099ED9"/>
<path d="M17.5107 13.3333H18.7819C18.8796 13.3333 18.9241 13.3333 18.9507 13.4667C19.1285 14.0889 19.3152 14.7111 19.5019 15.3244L19.6885 15.9733C19.7025 16.025 19.7203 16.0755 19.7419 16.1244C19.8041 15.8933 19.8663 15.6978 19.9196 15.4933L20.5241 13.4222C20.5302 13.402 20.5417 13.3839 20.5574 13.3698C20.573 13.3557 20.5923 13.3462 20.613 13.3422H21.8841H21.9463V17.2355H21.0574C20.9774 17.2355 20.9507 17.2356 20.9507 17.1378C20.9507 16.2489 20.9507 15.36 20.9507 14.4711C20.9507 14.4711 20.9507 14.4711 20.9507 14.4178C20.9185 14.5019 20.8918 14.588 20.8707 14.6756L20.1774 17.1467C20.1764 17.1604 20.1725 17.1737 20.166 17.1859C20.1594 17.198 20.1504 17.2086 20.1395 17.217C20.1286 17.2253 20.1161 17.2313 20.1027 17.2345C20.0893 17.2377 20.0754 17.2381 20.0619 17.2355H19.173C19.093 17.2355 19.093 17.1822 19.0841 17.1378C18.9685 16.7467 18.8619 16.3555 18.7463 15.9733C18.6307 15.5911 18.4707 14.9867 18.3285 14.4978C18.3285 15.3867 18.3285 16.3289 18.3285 17.2622H17.5107V13.3333Z" fill="#099ED9"/>
<path d="M23.3506 13.3333V13.4844C23.3506 14.1956 23.3506 14.9067 23.3506 15.6178C23.337 15.7478 23.337 15.8789 23.3506 16.0089C23.394 16.1548 23.4925 16.2781 23.6252 16.3527C23.7579 16.4274 23.9144 16.4475 24.0617 16.4089C24.3817 16.3378 24.4617 16.1689 24.515 15.8667C24.5239 15.7542 24.5239 15.6413 24.515 15.5289C24.515 14.8356 24.515 14.1511 24.515 13.4578C24.515 13.36 24.515 13.3333 24.6483 13.3333H25.475C25.555 13.3333 25.5817 13.3333 25.5817 13.44C25.5817 14.2133 25.5817 14.9867 25.5817 15.76C25.5898 15.97 25.5545 16.1794 25.478 16.3752C25.4015 16.571 25.2855 16.7489 25.1372 16.8978C24.9414 17.0734 24.7019 17.1932 24.4439 17.2444C24.0254 17.3335 23.5912 17.3152 23.1817 17.1911C22.9314 17.1043 22.7129 16.9443 22.5544 16.732C22.3959 16.5196 22.3048 16.2647 22.2928 16C22.2839 15.8816 22.2839 15.7628 22.2928 15.6444V13.44C22.2928 13.3422 22.2928 13.3156 22.4172 13.3156H23.3061L23.3506 13.3333Z" fill="#099ED9"/>
<path d="M25.9816 16.1067L26.4704 16.2844C26.754 16.3906 27.0581 16.4302 27.3593 16.4C27.4213 16.396 27.4807 16.3736 27.5298 16.3355C27.5789 16.2975 27.6155 16.2457 27.6349 16.1867C27.648 16.1278 27.64 16.0662 27.6124 16.0127C27.5848 15.9591 27.5393 15.9168 27.4838 15.8933C27.2527 15.7689 27.0127 15.6622 26.7816 15.5467C26.5447 15.4412 26.3372 15.2795 26.1771 15.0756C26.0468 14.8675 25.9814 14.6253 25.9893 14.3799C25.9973 14.1345 26.0781 13.897 26.2216 13.6978C26.381 13.519 26.5923 13.3947 26.826 13.3422C27.4454 13.1892 28.0986 13.2552 28.6749 13.5289L28.3638 14.32C28.1896 14.2529 28.0115 14.1965 27.8304 14.1511C27.6634 14.1173 27.494 14.0965 27.3238 14.0889C27.2828 14.0797 27.2403 14.0797 27.1993 14.0889C27.155 14.0981 27.1148 14.1211 27.0844 14.1547C27.0541 14.1882 27.0352 14.2305 27.0304 14.2756C27.0209 14.3182 27.0252 14.3628 27.0428 14.4027C27.0604 14.4427 27.0903 14.476 27.1282 14.4978C27.2882 14.5956 27.466 14.6756 27.6349 14.7644L28.1238 15.0133C28.3259 15.1184 28.4887 15.2858 28.588 15.4908C28.6873 15.6958 28.7178 15.9274 28.6749 16.1511C28.6449 16.3487 28.5633 16.5348 28.4385 16.6909C28.3137 16.8469 28.1499 16.9673 27.9638 17.04C27.6027 17.1831 27.2119 17.235 26.826 17.1911C26.5504 17.1703 26.2801 17.1042 26.026 16.9956C25.9638 16.9956 25.9371 16.9422 25.946 16.8711C25.946 16.6133 25.946 16.3556 25.946 16.0978C25.9727 16.1511 25.9816 16.1244 25.9816 16.1067Z" fill="#099ED9"/>
<path d="M17.128 13.3333V17.2267H16.1769C16.0969 17.2267 16.0791 17.2267 16.0791 17.1289V13.4133C16.0791 13.36 16.0791 13.3156 16.1502 13.3156H17.0924L17.128 13.3333Z" fill="#099ED9"/>
<path d="M24.5332 19.8222V18.1689C24.7021 18.1067 24.791 18.1689 24.871 18.32L25.5732 19.4133L25.671 19.5289V18.16H25.8488V19.8311C25.7884 19.8526 25.7222 19.8509 25.663 19.8263C25.6038 19.8016 25.556 19.7558 25.5288 19.6978C25.2888 19.2978 25.031 18.9156 24.7732 18.5244L24.7021 18.4444V18.6667C24.7021 19.0222 24.7021 19.3778 24.7021 19.7244C24.711 19.8489 24.7021 19.8489 24.5332 19.8222Z" fill="#099ED9"/>
<path d="M18.0622 19.8222C17.8933 19.8756 17.84 19.8222 17.7689 19.7333C17.5022 19.3156 17.2356 18.9067 16.96 18.4978C16.9641 18.4772 16.9641 18.4561 16.96 18.4356V19.8222C16.8 19.8222 16.7822 19.8222 16.7822 19.7067V18.1689C16.9778 18.1244 16.9867 18.1244 17.0844 18.2756C17.3422 18.6578 17.5911 19.0489 17.84 19.4311L17.9289 19.5378V19.1022C17.9289 18.8178 17.9289 18.5244 17.9289 18.2133C17.9289 17.9022 18.0356 18.1511 18.1067 18.1244L18.0622 19.8222Z" fill="#099ED9"/>
<path d="M22.3022 19.1022L22.7467 19.8311C22.5956 19.8311 22.4978 19.8311 22.4267 19.6889C22.3556 19.5467 22.2578 19.3956 22.1778 19.2444C22.1599 19.2089 22.1316 19.1796 22.0967 19.1605C22.0617 19.1415 22.0218 19.1335 21.9822 19.1378C21.76 19.1378 21.76 19.1378 21.76 19.3689V19.8311H21.5645V18.1422C21.8352 18.12 22.1078 18.138 22.3733 18.1956C22.447 18.2222 22.5109 18.2703 22.5568 18.3337C22.6028 18.3971 22.6287 18.4729 22.6311 18.5511C22.6482 18.6376 22.6387 18.7272 22.6038 18.8082C22.5689 18.8891 22.5102 18.9575 22.4356 19.0044L22.3022 19.1022ZM21.7511 18.6667C21.7511 18.96 21.7511 18.9689 22.0445 18.9511C22.1407 18.9497 22.2351 18.9253 22.32 18.88C22.3722 18.843 22.4108 18.79 22.4301 18.729C22.4493 18.6681 22.4481 18.6025 22.4267 18.5422C22.4103 18.4799 22.375 18.4242 22.3257 18.3828C22.2763 18.3414 22.2153 18.3164 22.1511 18.3111H21.8578C21.7748 18.3111 21.7393 18.3467 21.7511 18.4178V18.6667Z" fill="#099ED9"/>
<path d="M20.9241 18.16H21.1108V18.5244C21.1108 18.8089 21.1108 19.0844 21.1108 19.3689C21.1074 19.4629 21.076 19.5539 21.0206 19.6299C20.9651 19.7059 20.8882 19.7636 20.7996 19.7956C20.6905 19.8547 20.5682 19.8856 20.4441 19.8856C20.3199 19.8856 20.1977 19.8547 20.0885 19.7956C19.9971 19.7318 19.9248 19.6443 19.8794 19.5425C19.834 19.4407 19.8172 19.3284 19.8307 19.2178V18.16H20.0263V19.2533C20.0178 19.3325 20.0337 19.4123 20.0718 19.4822C20.11 19.5521 20.1685 19.6087 20.2396 19.6444C20.3237 19.692 20.4186 19.7169 20.5152 19.7169C20.6118 19.7169 20.7067 19.692 20.7907 19.6444C20.8469 19.5953 20.8901 19.5332 20.9164 19.4634C20.9428 19.3936 20.9515 19.3184 20.9419 19.2444V18.16H20.9241Z" fill="#099ED9"/>
<path d="M28.7463 19.6622V19.84H27.8574V18.16H28.7463V18.3289H28.133C28.0352 18.3289 27.9996 18.3289 28.0085 18.4622V18.7644C28.0085 18.8533 28.0085 18.8889 28.133 18.8889H28.7019V19.0667H28.1419C28.0352 19.0667 27.9996 19.0667 28.0085 19.2V19.5556C28.0085 19.6356 28.0085 19.6711 28.1241 19.6711L28.7463 19.6622Z" fill="#099ED9"/>
<path d="M24.2839 19.8311C24.0972 19.8311 24.0972 19.8311 24.035 19.6978C23.9728 19.5644 23.9461 19.4844 23.9105 19.3778C23.9084 19.3648 23.9037 19.3525 23.8967 19.3414C23.8897 19.3303 23.8805 19.3207 23.8697 19.3133C23.8589 19.3058 23.8468 19.3006 23.8339 19.2979C23.8211 19.2953 23.8078 19.2952 23.795 19.2978H23.3061C23.2723 19.2946 23.2385 19.3036 23.2108 19.3232C23.1831 19.3427 23.1633 19.3716 23.155 19.4044C23.155 19.5111 23.0661 19.6089 23.0394 19.7156C23.0128 19.8222 22.9328 19.8578 22.8172 19.8311C22.8122 19.8017 22.8122 19.7716 22.8172 19.7422C23.0128 19.2444 23.2172 18.7378 23.4128 18.2311C23.4192 18.2019 23.4367 18.1764 23.4615 18.1598C23.4864 18.1432 23.5167 18.1369 23.5461 18.1422C23.6083 18.1422 23.635 18.1867 23.6528 18.24L24.2483 19.7689C24.2615 19.7889 24.2733 19.8096 24.2839 19.8311ZM23.2794 19.12H23.8217L23.5461 18.3733L23.2794 19.12Z" fill="#099ED9"/>
<path d="M18.4355 19.6089L18.6666 19.6711C18.8229 19.7197 18.9903 19.7197 19.1466 19.6711C19.1902 19.6481 19.2265 19.6136 19.2516 19.5712C19.2767 19.5288 19.2896 19.4803 19.2888 19.4311C19.289 19.3832 19.2757 19.3361 19.2506 19.2953C19.2255 19.2545 19.1895 19.2215 19.1466 19.2L18.7466 19.0222C18.6421 18.9857 18.5546 18.9122 18.5006 18.8156C18.4465 18.719 18.4297 18.6059 18.4533 18.4978C18.4533 18.2756 18.6666 18.1689 18.9333 18.1511C19.0562 18.1488 19.1789 18.1638 19.2977 18.1956C19.4488 18.1956 19.4577 18.2578 19.3688 18.4L19.1288 18.3378C19.0404 18.3244 18.9505 18.3244 18.8622 18.3378C18.8085 18.3376 18.7568 18.3576 18.7173 18.3938C18.6777 18.4301 18.6533 18.4799 18.6488 18.5333C18.635 18.5888 18.6407 18.6474 18.6649 18.6992C18.6892 18.7511 18.7306 18.7929 18.7822 18.8178L19.1733 18.9867C19.2838 19.0178 19.3775 19.0913 19.4341 19.1912C19.4907 19.291 19.5056 19.4092 19.4755 19.52C19.454 19.6135 19.4023 19.6972 19.3284 19.7583C19.2545 19.8194 19.1624 19.8543 19.0666 19.8578C18.8774 19.8757 18.6869 19.8757 18.4977 19.8578C18.4088 19.8044 18.3999 19.7689 18.4355 19.6089Z" fill="#099ED9"/>
<path d="M27.4929 18.2222C27.4929 18.3822 27.4484 18.3822 27.3062 18.3378C27.2097 18.289 27.102 18.2665 26.9941 18.2728C26.8861 18.279 26.7818 18.3136 26.6915 18.3732C26.6013 18.4327 26.5284 18.5151 26.4802 18.6119C26.4321 18.7087 26.4104 18.8165 26.4173 18.9244C26.397 19.1129 26.4375 19.3029 26.5329 19.4667C26.6045 19.5592 26.7012 19.6293 26.8115 19.6687C26.9217 19.7081 27.041 19.7151 27.1551 19.6889H27.404C27.4484 19.8044 27.404 19.8667 27.2884 19.8844C27.1204 19.9245 26.9443 19.9148 26.7816 19.8564C26.619 19.798 26.477 19.6934 26.3729 19.5555C26.2449 19.3479 26.197 19.1008 26.2379 18.8604C26.2787 18.6199 26.4057 18.4026 26.5951 18.2489C26.7312 18.1716 26.8842 18.1287 27.0407 18.1241C27.1971 18.1194 27.3524 18.1531 27.4929 18.2222Z" fill="#099ED9"/>
<path d="M16.2754 18.16H16.0977V19.8311H16.2754V18.16Z" fill="#099ED9"/>
</g>
<defs>
<clipPath id="clip0_2707_372143">
<rect width="32" height="32" fill="white"/>
</clipPath>
</defs>
</svg>
