<svg width="32" height="32" viewBox="0 0 32 32" fill="none" xmlns="http://www.w3.org/2000/svg">
<g clip-path="url(#clip0_2707_371658)">
<path d="M15.9998 31.9823C24.8265 31.9823 31.982 24.8268 31.982 16C31.982 7.17331 24.8265 0.0178223 15.9998 0.0178223C7.17306 0.0178223 0.0175781 7.17331 0.0175781 16C0.0175781 24.8268 7.17306 31.9823 15.9998 31.9823Z" fill="white"/>
<path d="M3.91107 16.7645C3.91107 16.4534 3.98219 16.1778 4.03552 15.8756C4.04274 15.8412 4.0577 15.8089 4.07926 15.7812C4.10083 15.7535 4.12843 15.731 4.15996 15.7156C5.02166 15.4438 5.93547 15.3798 6.82663 15.5289C6.98735 15.544 7.14328 15.5918 7.28482 15.6694C7.42636 15.747 7.55051 15.8528 7.64961 15.9802C7.74872 16.1076 7.82068 16.254 7.86106 16.4103C7.90144 16.5665 7.90938 16.7294 7.88441 16.8889C7.83107 18.1245 7.74219 19.3511 7.67996 20.5778C7.67996 20.7111 7.67996 20.8445 7.67996 20.9956H6.44441C6.44441 20.1067 6.5333 19.1467 6.57774 18.24L5.3333 18.7111C5.17993 18.7642 5.03365 18.8358 4.89774 18.9245C4.76276 19.0014 4.65667 19.1203 4.59567 19.2632C4.53467 19.406 4.52213 19.5649 4.55996 19.7156C4.60259 19.8586 4.69079 19.9838 4.81115 20.0721C4.9315 20.1603 5.0774 20.2068 5.22663 20.2045C5.36871 20.2134 5.51121 20.2134 5.6533 20.2045H6.07107C6.07107 20.48 6.01774 20.72 5.98219 21.0223C5.40284 21.0301 4.82365 20.9974 4.24885 20.9245C4.02212 20.8388 3.81964 20.6993 3.65889 20.5179C3.49815 20.3365 3.38397 20.1187 3.32622 19.8833C3.26847 19.6479 3.26887 19.402 3.32741 19.1668C3.38594 18.9316 3.50084 18.7142 3.66219 18.5334C4.03516 18.1629 4.50241 17.9016 5.0133 17.7778C5.35996 17.6711 5.71552 17.5911 6.06219 17.4756C6.21448 17.4454 6.34999 17.3593 6.44209 17.2343C6.53419 17.1094 6.57624 16.9544 6.55996 16.8C6.55996 16.5245 6.32885 16.3556 5.94663 16.3111C5.38156 16.2726 4.81533 16.367 4.2933 16.5867L3.91107 16.7645Z" fill="#231E1A"/>
<path d="M17.6892 16.7468C17.7336 16.4534 17.7603 16.1779 17.8047 15.9112C17.8223 15.8407 17.867 15.78 17.9292 15.7423C18.7907 15.4691 19.7056 15.4081 20.5958 15.5645C20.7543 15.5776 20.9086 15.6228 21.0491 15.6973C21.1896 15.7718 21.3135 15.8741 21.4133 15.9979C21.513 16.1218 21.5866 16.2647 21.6294 16.4179C21.6723 16.571 21.6835 16.7313 21.6625 16.889C21.6092 18.089 21.5292 19.289 21.4581 20.489C21.4581 20.649 21.4581 20.809 21.4581 20.9868H20.2225L20.3558 18.2401C19.8847 18.4179 19.4669 18.569 18.9692 18.7645C18.7588 18.8522 18.5728 18.9894 18.4269 19.1645C18.0892 19.6001 18.4269 20.1601 19.0136 20.2045C19.2803 20.2045 19.5469 20.2045 19.8314 20.2045C19.8314 20.4801 19.8314 20.729 19.7514 21.0312C19.1569 21.0412 18.5626 21.0055 17.9736 20.9245C17.765 20.8381 17.5788 20.7051 17.4293 20.5358C17.2799 20.3665 17.171 20.1654 17.111 19.9476C17.051 19.7299 17.0414 19.5014 17.0831 19.2794C17.1248 19.0574 17.2165 18.8479 17.3514 18.6668C17.6303 18.3229 18.0093 18.0744 18.4358 17.9557C18.8803 17.8134 19.3247 17.6979 19.7781 17.5557C19.878 17.5272 19.9737 17.4853 20.0625 17.4312C20.1627 17.3731 20.2428 17.2858 20.292 17.181C20.3412 17.0761 20.3573 16.9588 20.3381 16.8445C20.3255 16.7288 20.272 16.6213 20.1873 16.5415C20.1026 16.4616 19.9921 16.4147 19.8758 16.409C19.4386 16.4032 19.0016 16.4329 18.5692 16.4979C18.2698 16.558 17.9756 16.6412 17.6892 16.7468Z" fill="#231E1A"/>
<path d="M9.77734 12.6223C10.312 12.8955 10.9013 13.0446 11.5015 13.0584C12.1018 13.0723 12.6974 12.9505 13.244 12.7023C14.2662 12.3023 15.2707 11.8134 16.284 11.3956C17.1143 11.0005 18.0342 10.8319 18.9507 10.9067C19.9547 11.0416 20.8699 11.5532 21.5107 12.3378C21.5145 12.3554 21.5145 12.3736 21.5107 12.3912C21.084 12.2934 20.6218 12.1512 20.2218 12.0889C19.3006 12.0306 18.3804 12.2177 17.5551 12.6312C16.5685 13.0489 15.6085 13.5201 14.6129 13.8934C13.6922 14.2984 12.655 14.3521 11.6973 14.0445C10.9819 13.7703 10.3506 13.3137 9.86623 12.7201C9.86623 12.7201 9.86623 12.6312 9.86623 12.5867L9.77734 12.6223Z" fill="#221E1A"/>
<path d="M17.2531 13.0222C17.8563 13.2818 18.5095 13.4045 19.1658 13.3814C19.8221 13.3583 20.4651 13.1901 21.0486 12.8889C22.0175 12.48 22.9686 12 23.9375 11.6356C24.854 11.2065 25.8919 11.1122 26.8708 11.3689C27.6762 11.6339 28.3867 12.1282 28.9153 12.7911C28.8353 12.7911 28.7908 12.7911 28.7553 12.7911C28.2689 12.5626 27.7401 12.4382 27.2028 12.426C26.6655 12.4137 26.1316 12.5139 25.6353 12.72C24.7464 13.0489 23.9197 13.4578 23.0575 13.8222C22.2233 14.2406 21.3195 14.5027 20.3908 14.5956C19.583 14.6603 18.7788 14.4332 18.1242 13.9556C17.7775 13.6978 17.4842 13.3689 17.1553 13.0667L17.2531 13.0222Z" fill="#CD9A09"/>
<path d="M17.0664 15.609V16.6668C16.5686 16.6134 16.0797 16.5334 15.5819 16.4979C15.3824 16.4882 15.1829 16.5184 14.9952 16.5868C14.5686 16.7112 14.4797 17.0668 14.7997 17.369C15.0343 17.5646 15.2807 17.7457 15.5375 17.9112C15.8488 18.1353 16.1456 18.3787 16.4264 18.6401C16.5905 18.7783 16.7156 18.9572 16.789 19.1589C16.8624 19.3605 16.8817 19.5779 16.8448 19.7893C16.8079 20.0008 16.7162 20.1988 16.5788 20.3637C16.4414 20.5286 16.2632 20.6545 16.0619 20.729C15.3699 21.0232 14.6096 21.1186 13.8664 21.0045C13.4041 20.9601 12.9775 20.889 12.4619 20.8357V19.7068C12.9952 19.8134 13.5286 19.9379 14.0619 20.009C14.2984 20.0347 14.5376 20.0105 14.7641 19.9379C15.2797 19.7868 15.3597 19.3512 14.9508 19.049C14.5419 18.7468 14.3286 18.6045 14.0619 18.3734C13.8049 18.1928 13.5613 17.9938 13.333 17.7779C13.1825 17.6353 13.0702 17.4571 13.0066 17.2598C12.943 17.0625 12.9301 16.8523 12.9691 16.6486C13.008 16.445 13.0976 16.2544 13.2296 16.0945C13.3615 15.9345 13.5316 15.8104 13.7241 15.7334C14.3063 15.5074 14.9345 15.4251 15.5552 15.4934C16.053 15.5023 16.5508 15.5645 17.0664 15.609Z" fill="#231E1A"/>
<path d="M7.89355 20.8357V19.7068C8.42689 19.8134 8.95133 19.9379 9.48467 20.009C9.75234 20.0343 10.0223 20.0009 10.2758 19.9112C10.3805 19.9055 10.4801 19.8644 10.5584 19.7946C10.6367 19.7248 10.6889 19.6305 10.7064 19.5271C10.724 19.4238 10.7059 19.3175 10.6551 19.2257C10.6043 19.134 10.5238 19.0623 10.4269 19.0223C10.0713 18.729 9.67133 18.4712 9.298 18.1868C9.10709 18.0645 8.92583 17.9278 8.75578 17.7779C8.60372 17.6407 8.48902 17.4671 8.42243 17.2734C8.35585 17.0797 8.33956 16.8723 8.3751 16.6706C8.41065 16.4689 8.49685 16.2795 8.62563 16.1203C8.75441 15.961 8.92154 15.8371 9.11133 15.7601C9.46653 15.5993 9.85045 15.5117 10.2402 15.5023C10.978 15.5023 11.7247 15.5557 12.4713 15.5912V16.7112C12.1197 16.6282 11.7636 16.5659 11.4047 16.5245C11.1077 16.5021 10.809 16.517 10.5158 16.569C10.4246 16.5941 10.3395 16.6379 10.2661 16.6976C10.1927 16.7573 10.1324 16.8315 10.0891 16.9157C10.081 17.0102 10.0953 17.1054 10.1308 17.1934C10.1663 17.2814 10.2221 17.3599 10.2936 17.4223C10.6047 17.689 10.9602 17.9023 11.2891 18.1512C11.507 18.3032 11.7121 18.4726 11.9024 18.6579C12.0618 18.7983 12.1822 18.9775 12.2521 19.1781C12.3221 19.3787 12.3391 19.5939 12.3015 19.803C12.264 20.0121 12.1732 20.208 12.0379 20.3717C11.9026 20.5355 11.7274 20.6616 11.5291 20.7379C11.0379 20.9587 10.503 21.0651 9.96467 21.049C9.6048 21.0389 9.24574 21.0093 8.88911 20.9601L7.89355 20.8357Z" fill="#231E1A"/>
<path d="M17.1998 13.0756L17.1465 12.9956H17.2532L17.1998 13.0756Z" fill="#CD9A09"/>
</g>
<defs>
<clipPath id="clip0_2707_371658">
<rect width="32" height="32" fill="white"/>
</clipPath>
</defs>
</svg>
