<svg width="32" height="32" viewBox="0 0 32 32" fill="none" xmlns="http://www.w3.org/2000/svg">
<g clip-path="url(#clip0_2707_371568)">
<path d="M15.9998 31.9823C24.8265 31.9823 31.982 24.8268 31.982 16C31.982 7.17331 24.8265 0.0178223 15.9998 0.0178223C7.17306 0.0178223 0.0175781 7.17331 0.0175781 16C0.0175781 24.8268 7.17306 31.9823 15.9998 31.9823Z" fill="white"/>
<path d="M18.0447 13.0755H26.1247C26.6917 14.3148 26.9785 15.6639 26.9646 17.0267C26.9508 18.3895 26.6367 19.7324 26.0447 20.96C25.2571 22.58 24.0721 23.9741 22.6001 25.0124C21.1282 26.0507 19.4172 26.6993 17.6269 26.8978C16.0715 27.1692 14.4756 27.0991 12.9499 26.6924C11.4242 26.2857 10.0052 25.552 8.79136 24.5422C7.5336 23.5669 6.5347 22.2976 5.88249 20.8457C5.23029 19.3939 4.94474 17.8041 5.05096 16.2161C5.15718 14.628 5.65192 13.0904 6.49167 11.7384C7.33142 10.3863 8.49047 9.26131 9.86692 8.46221C10.951 7.89835 12.0774 7.41986 13.2358 7.0311C13.4656 6.94829 13.7171 6.94829 13.9469 7.0311L13.3336 7.39554C11.8846 8.03586 10.5674 8.94013 9.44914 10.0622C8.61852 10.8756 8.01997 11.8959 7.71528 13.0178C7.41058 14.1397 7.41076 15.3226 7.7158 16.4444C8.01464 18.0533 8.78526 19.537 9.92966 20.7067C11.074 21.8764 12.5405 22.6793 14.1425 23.0133C15.2917 23.2268 16.4773 23.1247 17.573 22.7177C18.6687 22.3107 19.6335 21.6141 20.3647 20.7022C20.8445 20.0651 21.1327 19.3045 21.1957 18.5095C21.2587 17.7145 21.0937 16.918 20.7202 16.2133C20.0765 14.9789 19.1618 13.9062 18.0447 13.0755Z" fill="#CF272D"/>
<path d="M18.2931 8.79115C18.3026 7.75621 18.7227 6.76741 19.4612 6.04227C20.1997 5.31713 21.196 4.91505 22.2309 4.92448C23.2658 4.93391 24.2546 5.35408 24.9798 6.09255C25.7049 6.83103 26.107 7.82732 26.0976 8.86226C26.0881 9.89719 25.668 10.886 24.9295 11.6111C24.191 12.3363 23.1947 12.7384 22.1598 12.7289C21.1249 12.7195 20.1361 12.2993 19.4109 11.5608C18.6858 10.8224 18.2837 9.82608 18.2931 8.79115Z" fill="#FED506"/>
</g>
<defs>
<clipPath id="clip0_2707_371568">
<rect width="32" height="32" fill="white"/>
</clipPath>
</defs>
</svg>
