<svg width="32" height="32" viewBox="0 0 32 32" fill="none" xmlns="http://www.w3.org/2000/svg">
<g clip-path="url(#clip0_2810_56114)">
<mask id="mask0_2810_56114" style="mask-type:luminance" maskUnits="userSpaceOnUse" x="0" y="0" width="32" height="32">
<path d="M31.9909 0.0177917H0.0175781V31.9911H31.9909V0.0177917Z" fill="white"/>
</mask>
<g mask="url(#mask0_2810_56114)">
<path d="M15.9998 31.9822C24.8265 31.9822 31.982 24.8268 31.982 16C31.982 7.17328 24.8265 0.0177917 15.9998 0.0177917C7.17306 0.0177917 0.0175781 7.17328 0.0175781 16C0.0175781 24.8268 7.17306 31.9822 15.9998 31.9822Z" fill="white"/>
<path d="M8.39989 13.2444C7.26212 12.3911 5.70656 12.5511 4.76434 13.5289C3.831 14.4889 3.74212 16.0178 4.55989 17.0844C5.83989 15.8044 7.11989 14.5244 8.39989 13.2444ZM15.5732 15.4044C15.5821 13.9644 14.3732 12.7022 12.8888 12.6844C11.3688 12.6667 10.1599 13.92 10.1332 15.3511C10.1066 16.8089 11.3154 18.1244 12.8532 18.1244C14.3999 18.1244 15.591 16.8267 15.5821 15.4044M15.5821 13.3422C15.5821 12.5067 15.5821 11.68 15.5821 10.8444V10.7822H16.2666V13.3689C17.0666 12.4178 18.0621 11.9111 19.3154 12.0267C20.5688 12.1422 21.4577 12.8267 22.0621 13.8844C22.1777 13.7156 22.2843 13.5289 22.4177 13.36C22.9866 12.6578 23.7066 12.1867 24.6132 12.0533C25.831 11.8756 26.8799 12.2489 27.7066 13.1733C28.151 13.6711 28.4088 14.2667 28.4977 14.9333C28.5154 15.0933 28.5332 15.2533 28.5332 15.4133C28.5332 16.5244 28.5332 17.6356 28.5332 18.7467V18.8178H27.8488V18.7556C27.8488 17.6622 27.8488 16.5689 27.8488 15.4756C27.8488 14.8 27.6443 14.2044 27.2088 13.6889C26.7643 13.1644 26.2043 12.8356 25.5199 12.7289C24.3377 12.5422 23.2088 13.1911 22.7021 14.1867C22.4977 14.5867 22.3999 15.0044 22.3999 15.4489C22.3999 16.5511 22.3999 17.6533 22.3999 18.7556V18.8267H21.7154V18.7556C21.7154 17.6533 21.7154 16.56 21.7154 15.4578C21.7154 14.7911 21.5021 14.2044 21.0843 13.6978C20.631 13.1556 20.0621 12.8267 19.3599 12.7289C18.5599 12.6222 17.8488 12.8356 17.2354 13.3511C16.7288 13.7778 16.4177 14.32 16.3021 14.9689C16.2754 15.1022 16.2666 15.2444 16.2666 15.3778C16.2666 16.4978 16.2666 17.6267 16.2666 18.7467V18.8178H15.5821V17.4844C14.7821 18.4622 13.7599 18.9244 12.5154 18.8089C11.2621 18.6933 10.3643 18.0356 9.77767 16.9333C9.351 17.7778 8.69323 18.3644 7.79545 18.6756C7.111 18.9067 6.41767 18.9156 5.71545 18.7022C4.40878 18.3022 3.351 17.0578 3.30656 15.5467C3.25323 13.92 4.34656 12.6311 5.65323 12.1956C7.031 11.7422 8.44434 12.1956 9.36878 13.2711C7.92878 14.7111 6.48878 16.1511 5.03989 17.6C5.06656 17.6267 5.09323 17.6444 5.11989 17.6622C5.63545 18.0089 6.20434 18.1867 6.82656 18.16C8.10656 18.0889 8.98656 17.2711 9.32434 16.3022C9.41323 16.0444 9.45767 15.7867 9.44878 15.52C9.431 14.64 9.70656 13.8489 10.2843 13.1822C10.8088 12.5778 11.4754 12.2044 12.2666 12.08C13.3777 11.9022 14.3554 12.2044 15.1821 12.96C15.3154 13.0844 15.431 13.2356 15.5554 13.3689C15.5554 13.3689 15.5554 13.3689 15.5643 13.3689" fill="#14A99F"/>
<path fill-rule="evenodd" clip-rule="evenodd" d="M17.2084 21.2C17.1461 21.1822 17.075 21.1645 17.0128 21.1467C17.0306 21.12 17.0395 21.0933 17.0484 21.0756C17.2084 21.1467 17.3684 21.1733 17.5195 21.0756C17.6528 20.9778 17.6172 20.8356 17.6261 20.7022H17.6172C17.5017 20.9156 17.1106 20.9067 16.995 20.6222C16.9328 20.4711 16.9328 20.3111 16.995 20.16C17.1017 19.9022 17.4484 19.8578 17.6172 20.0711C17.6172 20.0711 17.6172 20.0711 17.6261 20.0711V19.9556H17.7061V20.0089C17.7061 20.2845 17.7061 20.56 17.7061 20.8356C17.7061 21.0489 17.5995 21.1733 17.3861 21.2089C17.3861 21.2089 17.3861 21.2089 17.3861 21.2178H17.2261C17.2261 21.2178 17.2261 21.2178 17.2261 21.2089L17.2084 21.2ZM17.6261 20.3822C17.6172 20.32 17.6084 20.2578 17.5906 20.1956C17.5639 20.0889 17.4928 20.0267 17.3772 20.0089C17.2617 19.9911 17.155 20.0089 17.0839 20.1067C16.9772 20.2489 16.9861 20.5156 17.0928 20.6489C17.1728 20.7467 17.2706 20.7733 17.3861 20.7467C17.4928 20.7289 17.555 20.6578 17.5817 20.5511C17.5995 20.4889 17.5995 20.4356 17.6172 20.3733L17.6261 20.3822ZM20.9061 19.7778C20.8884 19.9911 20.8706 20.2133 20.8528 20.4267C20.8439 20.56 20.835 20.6933 20.8172 20.8356H20.7372C20.7728 20.4267 20.7995 20.0178 20.835 19.6089C20.8884 19.5911 20.915 19.6089 20.9417 19.6622C21.0661 19.9467 21.1995 20.2222 21.3239 20.4978H21.3417C21.475 20.2133 21.5995 19.92 21.7328 19.6356C21.7417 19.6178 21.7861 19.6089 21.8217 19.5911C21.8572 20.0178 21.8928 20.4267 21.9195 20.8445H21.8395C21.8128 20.4889 21.7861 20.1333 21.7595 19.7689C21.7595 19.7689 21.7595 19.7689 21.7506 19.7689C21.6617 19.9556 21.5817 20.1511 21.4928 20.3378C21.4572 20.4178 21.4217 20.4978 21.3861 20.5778C21.3772 20.6045 21.3595 20.6133 21.3328 20.6045C21.3061 20.6045 21.2884 20.6045 21.2706 20.5778C21.155 20.3111 21.0306 20.0445 20.9061 19.7778C20.9061 19.7778 20.8972 19.7778 20.8884 19.7778H20.9061ZM15.3417 20.8356V19.6C15.4039 19.6 15.4661 19.6 15.5284 19.6C15.6528 19.6 15.7772 19.6 15.8928 19.6178C16.1684 19.6711 16.3372 19.8845 16.3461 20.16C16.3461 20.2933 16.3461 20.4178 16.275 20.5422C16.1772 20.7289 16.0084 20.8178 15.8039 20.8356C15.6528 20.8445 15.5017 20.8356 15.3506 20.8356H15.3417ZM15.4217 20.7645C15.5372 20.7645 15.6528 20.7645 15.7684 20.7645C15.9906 20.7645 16.1684 20.6311 16.2395 20.4356C16.275 20.3289 16.2839 20.2222 16.2661 20.1156C16.2395 19.9111 16.1239 19.7689 15.9195 19.7067C15.7595 19.6533 15.5906 19.6889 15.4217 19.68V20.7733V20.7645ZM23.8484 20.1156V19.6H23.9195V20.8356H23.8484V20.6845C23.7684 20.8178 23.6528 20.8711 23.5106 20.8622C23.3595 20.8622 23.235 20.7645 23.1817 20.6133C23.1372 20.4889 23.1372 20.3645 23.1639 20.24C23.1995 20.08 23.2972 19.9645 23.4661 19.9378C23.6261 19.9111 23.7506 19.9645 23.8484 20.1156ZM23.8572 20.4C23.8395 20.3289 23.8306 20.2489 23.8039 20.1867C23.7595 20.08 23.6795 20.0178 23.5639 20.0089C23.4306 20.0089 23.3328 20.0533 23.2795 20.1689C23.1995 20.32 23.2084 20.4711 23.2795 20.6222C23.3328 20.7289 23.4217 20.7911 23.5461 20.7822C23.6706 20.7822 23.7595 20.72 23.8039 20.6133C23.8306 20.5422 23.8395 20.4711 23.8661 20.4H23.8572ZM27.0306 19.6H27.1017V20.1156C27.155 20.0267 27.2261 19.9733 27.3061 19.9467C27.5106 19.8845 27.6972 19.9822 27.7684 20.1867C27.8128 20.3111 27.8128 20.4356 27.7772 20.5689C27.7328 20.7289 27.635 20.8267 27.475 20.8622C27.315 20.8889 27.1906 20.8356 27.1017 20.6845V20.8445H27.0306V19.6089V19.6ZM27.0928 20.3911C27.1106 20.4622 27.1195 20.5422 27.1461 20.6045C27.1906 20.7111 27.2706 20.7733 27.3861 20.7822C27.5195 20.7822 27.6172 20.7378 27.6706 20.6222C27.7506 20.4711 27.7417 20.32 27.6706 20.1689C27.6172 20.0533 27.5284 20 27.395 20.0089C27.2706 20.0089 27.1817 20.0711 27.1372 20.1778C27.1106 20.24 27.1017 20.32 27.0839 20.3911H27.0928ZM9.78613 19.6C9.94613 19.6 10.1061 19.5822 10.2661 19.6C10.4795 19.6267 10.5772 19.7867 10.5595 20.0089C10.5417 20.1867 10.3995 20.32 10.2039 20.32C10.0884 20.32 9.98169 20.32 9.85724 20.32V20.8267H9.78613V19.6ZM9.85724 20.2489C9.98169 20.2489 10.0972 20.2489 10.2128 20.2489C10.3728 20.2489 10.4706 20.1333 10.4795 19.9645C10.4795 19.8045 10.3995 19.68 10.2484 19.6711C10.115 19.6622 9.99058 19.6711 9.85724 19.6711V20.2489ZM22.9595 20.3822H22.2572C22.2395 20.5245 22.3195 20.6756 22.4439 20.7378C22.5861 20.8178 22.755 20.7911 22.8972 20.6667C22.9061 20.6845 22.9239 20.7111 22.9417 20.7289C22.7906 20.8533 22.6217 20.88 22.4439 20.8089C22.275 20.7378 22.1861 20.6045 22.1684 20.4267C22.1595 20.2845 22.1861 20.16 22.2839 20.0533C22.435 19.8756 22.7817 19.8489 22.9061 20.0978C22.9417 20.1689 22.9595 20.2578 22.9506 20.3733L22.9595 20.3822ZM22.2661 20.3111H22.8884C22.8795 20.1156 22.7639 20 22.6039 20C22.4261 20 22.275 20.1422 22.275 20.3111H22.2661ZM12.3461 19.6H13.0128V19.6711H12.4172V20.1778H12.9061V20.2489H12.4172V20.7645H13.0484V20.8356H12.3461V19.6ZM25.2172 20.8356H25.155V20.6667C25.0928 20.7645 25.0306 20.8267 24.9328 20.8533C24.8439 20.8711 24.7639 20.8622 24.6839 20.8267C24.515 20.7378 24.4972 20.5067 24.6484 20.4C24.7461 20.3289 24.8528 20.32 24.9684 20.3111C25.0306 20.3111 25.0839 20.3111 25.1461 20.3111C25.1639 20.1245 25.0839 20.0178 24.915 20.0178C24.8172 20.0178 24.7372 20.0445 24.6572 20.0978C24.6395 20.08 24.6306 20.0533 24.6128 20.0356C24.7284 19.9378 24.9506 19.9022 25.075 19.9733C25.155 20.0178 25.2084 20.0889 25.2084 20.1778C25.2084 20.4 25.2084 20.6222 25.2084 20.8445L25.2172 20.8356ZM25.155 20.3645C25.0484 20.3733 24.9417 20.3822 24.8439 20.3911C24.7995 20.3911 24.755 20.4178 24.7195 20.4356C24.6572 20.4711 24.6306 20.5333 24.6306 20.6045C24.6306 20.6756 24.675 20.7289 24.7372 20.7645C24.835 20.8178 24.9595 20.7911 25.0395 20.7111C25.1284 20.6222 25.155 20.5067 25.155 20.3645ZM18.9861 20.0889C18.9861 20.0889 18.9595 20.0445 18.9417 20.0267C18.9684 20.0089 18.995 19.9911 19.0217 19.9822C19.1106 19.9378 19.1995 19.9289 19.2972 19.9378C19.4484 19.9556 19.5461 20.0533 19.5461 20.2311C19.5461 20.4356 19.5461 20.6311 19.5461 20.8445H19.475V20.6756C19.475 20.6756 19.4395 20.7289 19.4217 20.7467C19.315 20.88 19.1284 20.9067 18.9772 20.8178C18.835 20.7289 18.8261 20.5067 18.9595 20.4089C19.0572 20.3378 19.1728 20.32 19.2884 20.3111C19.3506 20.3111 19.4039 20.3111 19.475 20.3111C19.475 20.2578 19.4661 20.2133 19.4572 20.1689C19.4306 20.0711 19.3595 20.0267 19.2617 20.0178C19.155 20.0178 19.0661 20.0356 18.9772 20.0978L18.9861 20.0889ZM19.4839 20.3645C19.3772 20.3645 19.2795 20.3733 19.1728 20.3911C19.1284 20.3911 19.075 20.4178 19.0395 20.4445C18.9239 20.5245 18.9239 20.6933 19.0484 20.7556C19.1461 20.8089 19.2795 20.7911 19.3595 20.7111C19.4484 20.6133 19.4839 20.4978 19.475 20.3645H19.4839ZM14.515 20.8356H14.4439V20.6667C14.4439 20.6667 14.4084 20.72 14.3906 20.7378C14.2839 20.8711 14.0972 20.8978 13.9461 20.8089C13.8039 20.72 13.795 20.4978 13.9284 20.4C14.0261 20.3289 14.1417 20.3111 14.2572 20.3022C14.3195 20.3022 14.3728 20.3022 14.4439 20.3022C14.4439 20.2489 14.435 20.1956 14.4172 20.1511C14.3906 20.0622 14.3195 20.0089 14.2306 20.0089C14.1239 20.0089 14.0706 20.0089 13.9461 20.0889C13.9372 20.0711 13.9195 20.0533 13.9017 20.0267C13.9728 19.9645 14.0617 19.9378 14.1506 19.9289C14.195 19.9289 14.2306 19.9289 14.275 19.9289C14.4261 19.9467 14.5061 20.0445 14.515 20.2133C14.515 20.4178 14.515 20.6222 14.515 20.8267V20.8356ZM14.4439 20.3733C14.3639 20.3733 14.2839 20.3733 14.2128 20.3733C14.1417 20.3822 14.0706 20.4 14.0084 20.4356C13.8839 20.5067 13.8928 20.6845 14.0261 20.7556C14.1417 20.8178 14.275 20.7822 14.355 20.6756C14.4261 20.5867 14.4528 20.48 14.4439 20.3733ZM28.6661 19.9556C28.5595 20.08 28.4528 20.2045 28.355 20.3378C28.4706 20.5067 28.5861 20.6667 28.7017 20.8267C28.6395 20.8445 28.6039 20.8267 28.5684 20.7733C28.4884 20.6489 28.4084 20.5333 28.3284 20.4178C28.3106 20.3822 28.2839 20.3645 28.2395 20.3733C28.2039 20.3733 28.1772 20.3733 28.1417 20.3733V20.8356H28.0706V19.6H28.1417V20.3022C28.2484 20.32 28.3284 20.3022 28.3817 20.2045C28.4261 20.1422 28.4795 20.08 28.5239 20.0178C28.5595 19.9645 28.6039 19.9378 28.675 19.9556H28.6661ZM26.3284 19.6711H25.8661C25.8661 19.6711 25.8661 19.6267 25.8661 19.6H26.8617V19.6711H26.3995V20.8356H26.3195V19.6711H26.3284ZM11.1906 20.8356H11.1106V19.6711H10.6484C10.6484 19.6711 10.6484 19.6267 10.6484 19.6H11.6439V19.6711H11.1906V20.8356ZM18.7195 20.0267H18.4972C18.4972 20.2133 18.4972 20.3911 18.4972 20.5778C18.4972 20.72 18.5861 20.7822 18.7372 20.7733V20.8356C18.5506 20.8622 18.4172 20.7467 18.4172 20.5511C18.4172 20.3911 18.4172 20.24 18.4172 20.08V20.0267H18.3017V19.9645H18.4172V19.7156H18.4884V19.9645H18.7195V20.0356V20.0267ZM13.395 20.8356H13.3239V19.9556H13.395V20.1422C13.4395 20.0889 13.475 20.0356 13.5195 19.9911C13.555 19.9645 13.6084 19.9467 13.6617 19.9378C13.7328 19.9289 13.7328 19.9378 13.7239 20.0089C13.5106 20.0356 13.4039 20.1689 13.395 20.4089C13.395 20.5422 13.395 20.6845 13.395 20.8267V20.8356ZM20.0617 20.7822V20.8445C19.9461 20.8711 19.8572 20.8 19.8572 20.6845C19.8572 20.4711 19.8572 20.2578 19.8572 20.0356V19.6H19.9284V19.6533C19.9284 19.9645 19.9284 20.2756 19.9284 20.5867C19.9284 20.6045 19.9284 20.6222 19.9284 20.64C19.9284 20.7378 19.955 20.7645 20.0617 20.7733V20.7822ZM16.6217 19.9645H16.6928V20.8445H16.6217V19.9645ZM18.0261 19.9645H18.0972V20.8445H18.0261V19.9645ZM24.3195 19.9645V20.8445H24.2484V19.9645H24.3195ZM24.2484 19.6089H24.3284V19.7333H24.2484V19.6089ZM18.1061 19.6089V19.7333H18.0261V19.6089H18.1061ZM16.6217 19.6089H16.7017V19.7333H16.6217V19.6089Z" fill="#908F8F"/>
</g>
</g>
<defs>
<clipPath id="clip0_2810_56114">
<rect width="32" height="32" fill="white"/>
</clipPath>
</defs>
</svg>
