<svg width="32" height="32" viewBox="0 0 32 32" fill="none" xmlns="http://www.w3.org/2000/svg">
<g clip-path="url(#clip0_2707_370918)">
<path d="M15.9998 31.9822C24.8265 31.9822 31.982 24.8267 31.982 16C31.982 7.17325 24.8265 0.0177612 15.9998 0.0177612C7.17306 0.0177612 0.0175781 7.17325 0.0175781 16C0.0175781 24.8267 7.17306 31.9822 15.9998 31.9822Z" fill="white"/>
<path d="M20.6216 12.6756V10.6667C20.986 10.5607 21.3622 10.5009 21.7416 10.4889V16.7111H21.5727L21.1638 16.7644C21.1392 16.7777 21.1117 16.7846 21.0838 16.7846C21.0559 16.7846 21.0284 16.7777 21.0038 16.7644C20.937 16.708 20.8553 16.6721 20.7685 16.6611C20.6818 16.6501 20.5937 16.6643 20.5149 16.7022C20.3282 16.7733 20.1593 16.8711 19.9727 16.9422C19.6148 17.1125 19.2223 17.1977 18.826 17.1911C18.4533 17.2029 18.0864 17.0971 17.7771 16.8889C17.6125 16.7484 17.474 16.5799 17.3682 16.3911C17.2081 16.0735 17.1201 15.7244 17.1104 15.3689C17.0906 15.0061 17.145 14.6432 17.2704 14.3022C17.4037 13.9136 17.633 13.565 17.9371 13.2889C18.3464 12.8914 18.8799 12.6466 19.4482 12.5956C19.6634 12.5643 19.8819 12.5643 20.0971 12.5956C20.2571 12.5956 20.4082 12.6578 20.5682 12.6844L20.6216 12.6756ZM20.5771 15.9467C20.5811 15.9112 20.5811 15.8754 20.5771 15.84V13.8311C20.5771 13.7333 20.5771 13.7244 20.4793 13.6978C20.1194 13.5732 19.7281 13.5732 19.3682 13.6978C19.1863 13.7582 19.0205 13.8592 18.8834 13.9932C18.7464 14.1272 18.6416 14.2906 18.5771 14.4711C18.4619 14.796 18.4619 15.1507 18.5771 15.4756C18.6118 15.6053 18.6754 15.7254 18.7631 15.827C18.8509 15.9286 18.9605 16.009 19.0838 16.0622C19.2599 16.1385 19.4541 16.1632 19.6438 16.1333L20.2038 16.0356L20.5771 15.9467Z" fill="#1E228C"/>
<path d="M8.53268 16H8.39935C8.09118 16.0526 7.79195 16.1484 7.51046 16.2844C7.11034 16.4794 6.72941 16.7115 6.37268 16.9777L5.38602 17.6622C5.10759 17.8657 4.80986 18.0413 4.49713 18.1866C4.27261 18.2822 4.04075 18.3595 3.80379 18.4177C3.45479 18.4816 3.10081 18.5143 2.74602 18.5155H2.66602C2.66602 18.4533 2.66602 18.4 2.66602 18.3466C2.94157 17.7689 3.21713 17.1822 3.50157 16.5689L4.30157 14.9066L4.96824 13.4933L5.34157 12.7111L5.53713 12.4444C5.53713 12.3555 5.59046 12.3555 5.68824 12.3644H5.94602L6.93268 12.5155C6.96818 12.5197 7.00186 12.5335 7.03006 12.5554C7.05827 12.5773 7.07993 12.6066 7.09268 12.64L7.5549 13.68L8.06157 14.8266C8.21268 15.1466 8.3549 15.4755 8.50601 15.8044C8.5149 15.8933 8.52379 15.92 8.53268 16ZM4.79935 16.5155L4.88824 16.4266C5.04845 16.2605 5.21759 16.1032 5.3949 15.9555C5.66856 15.7326 5.96679 15.5418 6.28379 15.3866C6.30677 15.3734 6.33282 15.3664 6.35935 15.3664C6.38587 15.3664 6.41193 15.3734 6.4349 15.3866L6.95046 15.7066H7.0749C7.07998 15.6475 7.07998 15.588 7.0749 15.5289C6.9149 15.1644 6.74602 14.8 6.57713 14.4355C6.40824 14.0711 6.3549 13.9289 6.23935 13.68L6.22157 13.6V13.6533L6.05268 14L5.73268 14.7022C5.62602 14.9155 5.52824 15.1289 5.42157 15.3333L5.14602 15.92C5.06602 16.0711 4.98602 16.2222 4.9149 16.3822C4.91108 16.4176 4.91108 16.4534 4.9149 16.4889L4.79935 16.5155Z" fill="#1E228C"/>
<path d="M16.5154 13.1288V17.4666L15.2888 17.7066C15.2265 17.5733 15.2888 17.44 15.2354 17.2977L15.1821 17.3511C14.9632 17.6102 14.6817 17.8091 14.3643 17.9288C14.1218 18.0269 13.8612 18.0723 13.5999 18.0622C13.3533 18.054 13.1117 17.9916 12.892 17.8794C12.6723 17.7673 12.48 17.6081 12.3288 17.4133C12.1068 17.1369 11.9654 16.8048 11.9199 16.4533C11.8978 16.2643 11.8978 16.0734 11.9199 15.8844C11.9197 15.3033 12.1033 14.7371 12.4443 14.2666C12.6342 14.0399 12.8667 13.8526 13.1288 13.7155C13.3608 13.5851 13.6133 13.4949 13.8754 13.4488C14.1518 13.4 14.4346 13.4 14.711 13.4488L15.1199 13.5288C15.2341 13.5606 15.355 13.5591 15.4684 13.5244C15.5818 13.4898 15.6829 13.4235 15.7599 13.3333C15.7872 13.3072 15.8209 13.2888 15.8576 13.28L16.3465 13.1555L16.5154 13.1288ZM15.271 14.4355H15.1732L14.391 14.4888C14.1584 14.4983 13.9307 14.559 13.7243 14.6666C13.4896 14.7742 13.2962 14.9551 13.1732 15.1822C13.0388 15.4323 12.9889 15.7192 13.031 16C13.0486 16.1806 13.121 16.3515 13.2386 16.4898C13.3562 16.628 13.5133 16.727 13.6888 16.7733C13.9187 16.8356 14.1611 16.8356 14.391 16.7733C14.6903 16.6964 14.9674 16.5502 15.1999 16.3466C15.2272 16.3237 15.2493 16.2952 15.2646 16.263C15.2799 16.2308 15.2882 16.1956 15.2888 16.16C15.2888 15.6177 15.2888 15.0844 15.2888 14.5422C15.2799 14.5066 15.2799 14.4711 15.271 14.4355Z" fill="#1E228C"/>
<path d="M29.1194 17.4933C28.6482 17.3511 28.2305 17.12 27.7416 17.0222V14.7644C27.7508 14.6787 27.7508 14.5923 27.7416 14.5066C27.7235 14.3896 27.6719 14.2804 27.593 14.192C27.5141 14.1037 27.4114 14.0401 27.2971 14.0089C27.0927 13.9466 26.8705 13.9022 26.6571 13.8578C26.5574 13.8349 26.4565 13.8171 26.3549 13.8044C26.3521 13.8518 26.3521 13.8993 26.3549 13.9466V16.56C26.3593 16.6013 26.3593 16.6431 26.3549 16.6844H26.3016C25.8749 16.6222 25.4127 16.6311 25.0127 16.6044V12.2844H25.2883L25.9283 12.3555C25.9525 12.3552 25.9764 12.3606 25.9981 12.3715C26.0197 12.3823 26.0385 12.3982 26.0527 12.4178C26.1127 12.4801 26.1869 12.5271 26.2688 12.555C26.3508 12.5828 26.4382 12.5906 26.5238 12.5778C26.7105 12.5778 26.906 12.5778 27.1016 12.5333C27.4958 12.534 27.8816 12.6482 28.2127 12.8622C28.5028 13.0471 28.7461 13.2966 28.9238 13.5911C29.1218 13.9177 29.2235 14.2936 29.2171 14.6755V17.3422C29.1938 17.398 29.1607 17.4492 29.1194 17.4933Z" fill="#1E228C"/>
<path d="M16.5064 21.5555H16.2753C16.0303 21.5631 15.7854 21.5393 15.5464 21.4844C15.3953 21.4844 15.2442 21.4222 15.102 21.3778C14.9337 21.3196 14.7702 21.2483 14.6131 21.1644C14.4827 21.0918 14.3606 21.0054 14.2487 20.9067C14.2113 20.8691 14.1785 20.8274 14.1509 20.7822C14.1326 20.7635 14.1198 20.7402 14.114 20.7147C14.1081 20.6892 14.1094 20.6626 14.1176 20.6378C14.1259 20.613 14.1409 20.591 14.1608 20.5741C14.1808 20.5572 14.2051 20.5462 14.2309 20.5422L14.4976 20.4978H14.9687H15.262L15.822 20.4355L16.382 20.3644L16.7464 20.3022L17.2798 20.2044C17.4487 20.2044 17.6264 20.1511 17.7864 20.1067C17.9464 20.0622 18.1242 20.0444 18.302 20.0089L18.5509 19.9644C18.6931 19.9644 18.8264 19.92 18.9687 19.9111L19.5376 19.8489H19.9376C20.1149 19.8311 20.2936 19.8311 20.4709 19.8489C20.6487 19.8489 20.8353 19.8933 21.0131 19.9378C21.313 19.9973 21.5993 20.1119 21.8576 20.2755C21.9754 20.3572 22.0855 20.4494 22.1864 20.5511C22.2842 20.6933 22.2398 20.7911 22.0798 20.8355L21.6887 20.88L21.3153 20.9244H21.022C20.7237 20.941 20.4268 20.9766 20.1331 21.0311L19.5109 21.12C19.4057 21.1322 19.3016 21.153 19.1998 21.1822L18.8798 21.2355L18.3998 21.3244L17.6887 21.4489C17.5191 21.4885 17.3467 21.5153 17.1731 21.5289H16.5331H16.4531L16.5064 21.5555Z" fill="#D9D9D9"/>
<path d="M9.89355 18.3555V12.1333L11.2002 12.0089C11.204 12.0562 11.204 12.1037 11.2002 12.1511V18.1244C11.2002 18.2666 11.2002 18.2755 11.0491 18.2933L9.99133 18.3911L9.89355 18.3555Z" fill="#1E228C"/>
<path d="M22.6932 12.3377C23.1226 12.3155 23.5528 12.3155 23.9821 12.3377C23.9923 12.3725 23.9983 12.4083 23.9999 12.4444V16.5689C24.0036 16.6013 24.0036 16.6341 23.9999 16.6666H23.8755H23.111H22.711C22.6755 16.5955 22.6666 12.4889 22.6932 12.3377Z" fill="#1E228C"/>
<path d="M8.65796 16.1866L9.54685 18.3022V18.3555H8.08908C8.01796 18.3555 7.98241 18.3555 7.95574 18.2755C7.89352 18.0711 7.81352 17.8578 7.7513 17.6444C7.67144 17.3807 7.67144 17.0993 7.7513 16.8355C7.77717 16.7388 7.82295 16.6485 7.8857 16.5704C7.94846 16.4924 8.02681 16.4283 8.11574 16.3822L8.54241 16.1955L8.65796 16.1866Z" fill="#1E228C"/>
<path d="M23.3333 11.9111C23.1445 11.9262 22.9562 11.876 22.8 11.7689C22.6903 11.6931 22.6045 11.5876 22.5526 11.4648C22.5006 11.3421 22.4847 11.207 22.5067 11.0755C22.5209 10.9014 22.5936 10.7372 22.713 10.6097C22.8325 10.4822 22.9916 10.3989 23.1644 10.3733C23.3169 10.3422 23.4742 10.3422 23.6267 10.3733C23.7762 10.4046 23.9119 10.4826 24.0141 10.596C24.1164 10.7095 24.1799 10.8525 24.1956 11.0044C24.2291 11.1814 24.1975 11.3645 24.1067 11.52C24.0385 11.6304 23.9447 11.7227 23.8333 11.7892C23.7219 11.8557 23.5962 11.8945 23.4667 11.9022L23.3333 11.9111Z" fill="#1E228C"/>
<path d="M4.79953 16.4889C4.7945 16.4505 4.7945 16.4117 4.79953 16.3733L5.03064 15.9111C5.12842 15.7244 5.2173 15.5289 5.30619 15.3333L5.6173 14.7022L5.9373 14L6.10619 13.6533V13.6C6.13482 13.6287 6.15881 13.6617 6.1773 13.6978C6.29286 13.9555 6.40842 14.2044 6.51508 14.4533C6.62175 14.7022 6.85286 15.1822 7.01286 15.5555C7.01793 15.6147 7.01793 15.6742 7.01286 15.7333H6.88842L6.37286 15.4133C6.35063 15.398 6.32428 15.3898 6.2973 15.3898C6.27032 15.3898 6.24398 15.398 6.22175 15.4133C5.90301 15.5653 5.60442 15.7564 5.33286 15.9822C5.15554 16.1299 4.9864 16.2872 4.82619 16.4533L4.7373 16.5422L4.79953 16.4889ZM4.93286 16.3111C4.96051 16.2993 4.98491 16.281 5.00397 16.2578C5.21761 16.0513 5.4464 15.8612 5.68842 15.6889C5.87864 15.5596 6.07764 15.4438 6.28397 15.3422C6.31936 15.3181 6.36117 15.3052 6.40397 15.3052C6.44677 15.3052 6.48858 15.3181 6.52397 15.3422L6.96842 15.6089H7.04842C6.80833 14.9542 6.53235 14.3132 6.22175 13.6889C5.80397 14.5778 5.38619 15.4133 4.9773 16.2755C4.92397 16.2844 4.93286 16.3022 4.93286 16.3111Z" fill="#1E228C"/>
</g>
<defs>
<clipPath id="clip0_2707_370918">
<rect width="32" height="32" fill="white"/>
</clipPath>
</defs>
</svg>
