<svg width="32" height="32" viewBox="0 0 32 32" fill="none" xmlns="http://www.w3.org/2000/svg">
<g clip-path="url(#clip0_2811_99106)">
<mask id="mask0_2811_99106" style="mask-type:luminance" maskUnits="userSpaceOnUse" x="0" y="0" width="32" height="32">
<path d="M31.9899 0.0150146H0.0195312V31.9854H31.9899V0.0150146Z" fill="white"/>
</mask>
<g mask="url(#mask0_2811_99106)">
<path d="M16.0047 31.9854C24.8331 31.9854 31.9899 24.8286 31.9899 16.0002C31.9899 7.17183 24.8331 0.0150146 16.0047 0.0150146C7.17635 0.0150146 0.0195312 7.17183 0.0195312 16.0002C0.0195312 24.8286 7.17635 31.9854 16.0047 31.9854Z" fill="white"/>
<path d="M13.8408 9.08826V10.1459H14.3948V9.08826H17.6181V10.1459H18.1721V9.08826H20.8413L20.8471 9.76236L20.8889 9.82139L21.3955 9.84359L21.3891 10.4167C20.8206 10.8876 20.2641 11.3699 19.7606 11.9107C19.7209 11.9634 19.6941 12.0203 19.6844 12.0864C19.5618 12.9233 20.0839 14.4953 20.2733 15.3726C20.5088 16.4638 20.6974 17.5641 20.9777 18.6459L21.9494 19.3876V20.4201H10.0635V19.3876C10.3292 19.1449 10.7982 18.944 11.0467 18.7089C11.0921 18.666 11.1258 18.6171 11.1486 18.5589C11.3422 17.637 11.4609 16.6996 11.6382 15.7749C11.8241 14.8053 12.1785 13.636 12.2759 12.6857C12.2897 12.5507 12.3035 12.105 12.2548 12.0089L10.6255 10.3645L10.6173 9.84359C10.7543 9.83018 10.9142 9.86315 11.0466 9.84471C11.2783 9.8125 11.1317 9.27528 11.1715 9.08826H13.8408Z" fill="#039DD8"/>
<path d="M19.9855 20.9741H17.971L17.9708 21.2765C18.0209 21.3265 18.6357 21.1893 18.7264 21.3518V22.8879H19.23V21.3518C19.3207 21.1893 19.9355 21.3265 19.9856 21.2765L19.9855 20.9741ZM17.3665 22.8878L16.4359 21.0235C16.347 20.9309 15.9921 20.9704 15.8536 20.9972L14.9716 22.7341L14.9492 22.8878L15.4548 22.8649L15.6846 22.4321L16.5796 22.441L16.8619 22.8638L17.3665 22.8878ZM11.6755 22.8879H13.262C13.3107 22.8879 13.5953 22.7145 13.6415 22.6631C13.9424 22.3293 13.7016 22.0487 13.3883 21.8555C13.6788 21.6205 13.7502 21.3573 13.4395 21.0987C13.4054 21.0704 13.283 20.9741 13.262 20.9741H11.6755V22.8879ZM7.89822 23.1398C7.89632 22.0404 7.86998 20.9336 7.95005 19.8424C7.96157 19.6849 7.93907 19.5204 7.94857 19.3625H9.50988V20.6719H22.5037V19.3625H24.1153C24.1138 20.6207 24.1175 21.8815 24.1153 23.1398H7.89822Z" fill="#E6C672"/>
<path d="M23.0582 23.5425C22.6952 23.4993 22.1069 23.5447 22.2748 24.0493C22.3445 24.2591 22.676 24.3566 22.6551 24.6002L22.202 24.55C22.2102 24.6436 22.1675 24.8253 22.2494 24.8801C22.3057 24.9178 22.7449 24.9178 22.8234 24.8945C22.9238 24.8647 23.0565 24.6832 23.0622 24.5759C23.0819 24.2057 22.675 24.1669 22.6553 23.845L23.0579 23.8951L23.0582 23.5425ZM22.1011 23.5426H21.0938L21.0435 24.9025H22.0004L22.0508 24.6004L21.4735 24.6007C21.4095 24.5928 21.4379 24.3648 21.5278 24.3543L21.947 24.3454C22.0992 23.9081 21.7611 24.0816 21.4717 24.0464C21.4286 24.0412 21.4379 23.9512 21.4466 23.9206C21.4857 23.7834 21.9237 23.8696 22.0479 23.8419L22.1011 23.5426ZM20.8421 23.5426L20.4894 23.5424L20.439 24.9027L20.7871 24.8981C20.7805 24.8518 20.8421 24.7877 20.8421 24.7766V23.5426ZM19.6333 24.2477L19.8074 24.8543L20.1874 24.9024L20.0328 24.2778C20.2817 24.167 20.3871 23.8855 20.1891 23.6668C20.1639 23.6388 20.0266 23.5426 20.011 23.5426H19.2304C19.2519 23.5953 19.18 23.6559 19.18 23.6686V24.9025L19.5328 24.9027C19.536 24.7018 19.5277 24.4988 19.5326 24.2981L19.6333 24.2477ZM18.0566 23.5524C17.5515 23.6581 17.3561 24.397 17.7429 24.7532C18.0619 25.0469 18.6228 24.967 18.8785 24.626C19.0473 24.4008 19.0637 24.1518 18.9504 23.8982C18.7985 23.558 18.3959 23.4812 18.0566 23.5524ZM17.518 23.5426H16.3597L16.3595 23.845L16.7123 23.8449V24.9025L17.0649 24.9026L17.115 23.8447L17.463 23.8403L17.518 23.5426ZM16.2591 23.5425C15.8956 23.5364 15.5354 23.4855 15.3098 23.8274C15.1482 24.0722 15.1143 24.3187 15.2401 24.5867C15.4055 24.9388 15.8758 24.9534 16.2086 24.9024L16.2087 24.6001L15.6846 24.5451C15.342 24.0765 15.7488 23.7424 16.2591 23.845V23.5425ZM14.6419 23.5482L14.1993 23.548L13.5898 24.9024L13.9873 24.8972C14.0661 24.584 14.2487 24.3758 14.5731 24.5485L14.7021 24.8981L15.1005 24.9024L14.6419 23.5482ZM12.935 24.1974L13.1409 24.8981L13.5393 24.9023L13.3347 24.2774C13.5493 24.1854 13.6799 23.927 13.5419 23.7163C13.5178 23.6795 13.3371 23.5426 13.3127 23.5426H12.532L12.4815 24.9027H12.8344C12.8399 24.6685 12.8261 24.4313 12.8342 24.1974C12.8657 24.1919 12.9092 24.2055 12.935 24.1974ZM12.3306 23.5426H11.424C11.4559 23.6098 11.3737 23.6998 11.3737 23.719V24.9025L11.7264 24.9027L11.7738 24.3708L12.23 24.3486V24.0965L11.7764 24.0968V23.8447L12.3307 23.845L12.3306 23.5426ZM11.1722 23.5426H10.2153L10.165 24.9025H11.1218L11.122 24.6002L10.5677 24.6005V24.3483L11.0717 24.3486V24.0461L10.5677 24.0462V23.8449L11.1724 23.845L11.1722 23.5426ZM9.35913 24.2477L9.53399 24.8536L9.91305 24.9024L9.76814 24.2535C10.1717 24.0974 10.0576 23.5847 9.63795 23.5408C9.52049 23.5285 8.97504 23.5202 8.92824 23.5902C8.86403 23.6862 8.92096 24.4323 8.90755 24.6271C8.90092 24.723 8.84447 24.8043 8.8556 24.9024L9.25854 24.9027C9.26183 24.7018 9.25351 24.4989 9.25839 24.2981L9.35913 24.2477ZM24.1157 23.1398C24.1146 23.8193 24.1157 24.5004 24.1168 25.1806L24.0402 25.3054H7.9741L7.89746 25.1806C7.8985 24.5004 7.89971 23.8193 7.89859 23.1398H24.1157Z" fill="#E50416"/>
<path d="M16.0069 4.25318C16.0466 4.5278 16.1376 4.79955 16.2337 5.05922C16.5361 5.87692 17.3739 7.1738 17.0391 8.03022C16.9862 8.16553 16.7581 8.5276 16.6364 8.5844C16.4761 8.65921 16.638 8.38565 16.6509 8.34708C16.9348 7.50025 16.5022 7.17232 16.1989 6.45381C16.1037 6.22824 16.07 5.96431 15.9315 5.76438L15.8161 6.20276C15.5466 6.87677 14.9454 7.45925 15.0501 8.23196C14.9294 8.26046 14.9693 8.20931 14.9385 8.16713C14.7907 7.96453 14.611 7.59492 14.5979 7.34629C14.5923 7.24141 14.6936 6.99755 14.7383 6.88778C15.0971 6.00765 15.6481 5.29731 15.9032 4.32452C15.9242 4.24451 15.8868 4.24235 16.0069 4.25318Z" fill="#E40718"/>
<path d="M15.8804 7.52747L16.2624 8.50955C16.2233 8.97078 15.4547 8.88301 15.4541 8.45955C15.454 8.34188 15.8158 7.52895 15.8804 7.52747Z" fill="#E4081A"/>
<path d="M12.2298 22.5354H13.0608C13.0756 22.5354 13.2498 22.3635 13.2401 22.3088C13.2498 22.2541 13.0756 22.0822 13.0608 22.0822H12.2298V22.5354ZM12.2298 21.7296H12.96C12.9722 21.7296 13.0681 21.6292 13.0782 21.5959C13.2134 21.1505 12.4879 21.2973 12.2296 21.2761L12.2298 21.7296ZM11.6758 22.888V20.9741H13.2622C13.2833 20.9741 13.4057 21.0704 13.4398 21.0987C13.7505 21.3573 13.6791 21.6206 13.3886 21.8555C13.7018 22.0487 13.9427 22.3293 13.6418 22.6631C13.5955 22.7144 13.3111 22.888 13.2622 22.888H11.6758Z" fill="#0A9ED5"/>
<path d="M16.4096 22.082C16.4324 22.0607 16.2378 21.6615 16.2011 21.6108C16.1585 21.5518 16.1446 21.5101 16.0574 21.5281L15.8558 22.082H16.4096ZM17.3665 22.8878L16.8619 22.8638L16.5796 22.4409L15.6845 22.4321L15.4549 22.8648L14.9492 22.8878L14.9716 22.7341L15.8536 20.9972C15.9921 20.9703 16.347 20.9309 16.4359 21.0235L17.3665 22.8878Z" fill="#099DD6"/>
<path d="M19.9854 20.9741L19.9855 21.2765C19.9354 21.3265 19.3206 21.1893 19.2299 21.3518V22.8879H18.7263V21.3518C18.6356 21.1893 18.0208 21.3265 17.9707 21.2765L17.9709 20.9741H19.9854Z" fill="#049DD8"/>
<path d="M18.2551 23.8041C17.8479 23.8497 17.7826 24.6369 18.2904 24.6411C18.7543 24.5384 18.7121 23.7529 18.2551 23.8041ZM18.0558 23.5524C18.3951 23.4813 18.7977 23.558 18.9497 23.8982C19.0629 24.1518 19.0466 24.4008 18.8777 24.626C18.6221 24.967 18.0612 25.047 17.7422 24.7532C17.3554 24.397 17.5508 23.6582 18.0558 23.5524Z" fill="#FDF3F4"/>
<path d="M9.25778 24.2981C9.2529 24.4988 9.26119 24.7018 9.2579 24.9026L8.85496 24.9023C8.84386 24.8043 8.90031 24.723 8.90694 24.6272C8.92035 24.4323 8.86342 23.6861 8.92763 23.5902C8.97443 23.5202 9.51988 23.5285 9.63731 23.5409C10.057 23.5847 10.171 24.0974 9.76753 24.2535L9.91244 24.9024L9.53338 24.8535L9.35852 24.2478L9.36382 24.154C9.54721 24.1631 9.62524 24.1039 9.66017 23.9226C9.18197 23.6073 9.26678 23.9283 9.25778 24.2981Z" fill="#FDF3F4"/>
<path d="M19.5322 24.2981C19.5274 24.4988 19.5357 24.7018 19.5324 24.9026L19.1797 24.9025V23.6686C19.1797 23.6559 19.2516 23.5953 19.23 23.5427H20.0107C20.0263 23.5427 20.1635 23.6389 20.1888 23.6668C20.3867 23.8855 20.2813 24.167 20.0325 24.2778L20.1871 24.9024L19.807 24.8543L19.633 24.2478L19.6383 24.154C19.8217 24.1631 19.8997 24.1039 19.9347 23.9226C19.4565 23.6073 19.5413 23.9283 19.5322 24.2981Z" fill="#FDF3F3"/>
<path d="M12.8342 24.1974C12.8261 24.4314 12.8399 24.6685 12.8343 24.9026H12.4814L12.532 23.5427H13.3126C13.337 23.5427 13.5178 23.6795 13.5419 23.7163C13.6798 23.927 13.5493 24.1854 13.3346 24.2774L13.5393 24.9023L13.1409 24.898L12.9349 24.1974C13.0383 24.1646 13.237 24.0979 13.2395 23.971C13.2454 23.8784 13.1781 23.8695 13.1139 23.8424C12.7661 23.6953 12.8428 23.9465 12.8342 24.1974Z" fill="#FDF3F4"/>
<path d="M14.4456 23.8952C14.3895 23.826 14.3567 23.8995 14.3348 23.9593C14.3145 24.0144 14.2233 24.2273 14.2446 24.2477H14.5466L14.4456 23.8952ZM14.642 23.5482L15.1006 24.9024L14.7022 24.8981L14.5732 24.5486C14.2488 24.3758 14.0661 24.584 13.9874 24.8972L13.5898 24.9024L14.1994 23.548L14.642 23.5482Z" fill="#FDF3F4"/>
<path d="M22.1006 23.5427L22.0473 23.8419C21.9232 23.8695 21.4852 23.7835 21.4461 23.9206C21.4374 23.9512 21.4281 24.0412 21.4712 24.0464C21.7606 24.0816 22.0987 23.9081 21.9465 24.3454L21.5272 24.3543C21.4374 24.3648 21.409 24.5928 21.473 24.6007L22.0503 24.6004L21.9999 24.9025H21.043L21.0933 23.5427H22.1006Z" fill="#FDF3F4"/>
<path d="M11.1714 23.5427L11.1715 23.845L10.5669 23.845V24.0462L11.0708 24.0461V24.3486L10.5669 24.3483V24.6005L11.1211 24.6001L11.121 24.9025H10.1641L10.2144 23.5427H11.1714Z" fill="#FDF3F4"/>
<path d="M16.2585 23.5425V23.845C15.7482 23.7424 15.3413 24.0765 15.684 24.5452L16.2081 24.6002L16.208 24.9024C15.8752 24.9535 15.4048 24.9389 15.2395 24.5867C15.1137 24.3187 15.1476 24.0723 15.3092 23.8274C15.5348 23.4855 15.895 23.5364 16.2585 23.5425Z" fill="#FDF5F5"/>
<path d="M12.33 23.5427L12.3301 23.845L11.7758 23.8447V24.0969L12.2294 24.0965V24.3486L11.7732 24.3708L11.7258 24.9026L11.373 24.9025V23.7189C11.373 23.6997 11.4553 23.6098 11.4234 23.5427H12.33Z" fill="#FDF7F7"/>
<path d="M23.0574 23.5425L23.0572 23.8951L22.6545 23.845C22.6742 24.1669 23.0811 24.2057 23.0614 24.5759C23.0557 24.6832 22.923 24.8647 22.8227 24.8945C22.7441 24.9178 22.3049 24.9178 22.2487 24.8801C22.1667 24.8253 22.2094 24.6436 22.2012 24.55L22.6543 24.6002C22.6752 24.3566 22.3437 24.2591 22.274 24.0493C22.1062 23.5447 22.6945 23.4993 23.0574 23.5425Z" fill="#FDEFF0"/>
<path d="M17.5179 23.5427L17.4629 23.8403L17.1148 23.8447L17.0648 24.9026L16.7121 24.9025V23.8449L16.3594 23.845L16.3596 23.5427H17.5179Z" fill="#FDF3F3"/>
<path d="M20.8416 23.5427V24.7766C20.8416 24.7877 20.78 24.8518 20.7866 24.8981L20.4385 24.9026L20.4888 23.5424L20.8416 23.5427Z" fill="#FDF4F5"/>
<path d="M9.2585 24.2981C9.2675 23.9283 9.18269 23.6073 9.66089 23.9227C9.62596 24.1039 9.54792 24.1631 9.36454 24.154L9.35924 24.2478L9.2585 24.2981Z" fill="#E71929"/>
<path d="M19.5319 24.2981C19.541 23.9283 19.4561 23.6073 19.9343 23.9227C19.8994 24.1039 19.8214 24.1631 19.638 24.154L19.6327 24.2478L19.5319 24.2981Z" fill="#E71929"/>
<path d="M12.9344 24.1974C12.9087 24.2056 12.8651 24.1919 12.8337 24.1974C12.8423 23.9465 12.7655 23.6953 13.1134 23.8424C13.1776 23.8695 13.245 23.8784 13.239 23.971C13.2365 24.0979 13.0379 24.1646 12.9344 24.1974Z" fill="#E71B2B"/>
<path d="M12.2295 22.5354V22.0822H13.0605C13.0753 22.0822 13.2495 22.2541 13.2398 22.3088C13.2495 22.3635 13.0753 22.5354 13.0605 22.5354H12.2295Z" fill="#E5C772"/>
<path d="M12.2296 21.7296L12.2295 21.2761C12.4878 21.2972 13.2132 21.1505 13.0781 21.5959C13.0679 21.6293 12.972 21.7296 12.9599 21.7296H12.2296Z" fill="#DFC674"/>
<path d="M16.4093 22.082H15.8555L16.0571 21.5282C16.1443 21.5101 16.1582 21.5518 16.2008 21.6108C16.2375 21.6615 16.4321 22.0607 16.4093 22.082Z" fill="#E1C673"/>
<path d="M18.2553 23.8041C18.7123 23.7529 18.7544 24.5383 18.2906 24.6411C17.7828 24.6369 17.848 23.8497 18.2553 23.8041Z" fill="#E50A1B"/>
<path d="M14.4454 23.8952L14.5464 24.2477H14.2444C14.2231 24.2273 14.3144 24.0145 14.3347 23.9593C14.3566 23.8995 14.3894 23.826 14.4454 23.8952Z" fill="#E82938"/>
</g>
</g>
<defs>
<clipPath id="clip0_2811_99106">
<rect width="32" height="32" fill="white"/>
</clipPath>
</defs>
</svg>
