<svg width="32" height="32" viewBox="0 0 32 32" fill="none" xmlns="http://www.w3.org/2000/svg">
<g clip-path="url(#clip0_2707_370358)">
<path d="M15.9998 31.9822C24.8265 31.9822 31.982 24.8267 31.982 16C31.982 7.17326 24.8265 0.0177765 15.9998 0.0177765C7.17306 0.0177765 0.0175781 7.17326 0.0175781 16C0.0175781 24.8267 7.17306 31.9822 15.9998 31.9822Z" fill="white"/>
<path d="M14.1156 14.1333C14.1156 14.7822 14.1156 15.3956 14.1689 16.0089C14.1689 16.2756 14.1689 16.5422 14.2134 16.8L14.2934 18.2578V18.3289C14.2934 18.72 14.2934 18.7378 13.8578 18.6667C13.7625 18.6499 13.6718 18.6136 13.5912 18.56C13.5148 18.5153 13.4554 18.4465 13.4223 18.3644C13.3156 18.0178 13.2356 17.6622 13.1112 17.3156C12.899 16.5995 12.7853 15.8579 12.7734 15.1111C12.7734 14.64 12.7734 14.1689 12.7201 13.6978C12.7212 13.6771 12.7212 13.6563 12.7201 13.6356L12.4178 13.7956C11.6089 14.2578 10.8089 14.7378 10.0001 15.1911C9.69589 15.3492 9.38105 15.4858 9.05784 15.6C8.95573 15.6434 8.84263 15.6539 8.73429 15.63C8.62595 15.6061 8.52776 15.549 8.45339 15.4667C8.45339 15.4667 8.40006 15.3422 8.45339 15.3244C8.50672 15.3067 8.64006 15.0844 8.7645 15.04C9.27696 14.7896 9.76499 14.492 10.2223 14.1511C10.8267 13.7422 11.4401 13.3422 12.0534 12.9422L12.1156 12.88L10.4623 11.9911C9.94521 11.744 9.45391 11.4463 8.99561 11.1022C8.93947 11.0609 8.89129 11.0097 8.85339 10.9511C8.82447 10.9153 8.80386 10.8735 8.79304 10.8288C8.78222 10.7841 8.78146 10.7375 8.79081 10.6924C8.80016 10.6474 8.8194 10.6049 8.84713 10.5682C8.87486 10.5315 8.91039 10.5013 8.95117 10.48C9.08056 10.3809 9.21724 10.2918 9.36006 10.2133C9.41768 10.174 9.48583 10.1529 9.55561 10.1529C9.62539 10.1529 9.69355 10.174 9.75117 10.2133C10.0801 10.4178 10.4089 10.6311 10.7556 10.8178C11.1023 11.0044 11.6445 11.2711 12.1334 11.5022C12.3556 11.6178 12.5601 11.7511 12.7912 11.8844C12.7912 11.6978 12.8356 11.52 12.8623 11.3422C12.9642 10.4391 13.1457 9.54677 13.4045 8.67556C13.4489 8.54223 13.5023 8.41778 13.5556 8.28445C13.6089 8.15112 13.6001 8.07112 13.7245 8.02667C13.8489 7.98223 14.1956 7.79556 14.4712 7.89334C14.5531 7.94676 14.6193 8.02102 14.6631 8.1085C14.7068 8.19598 14.7265 8.29352 14.7201 8.39112C14.6578 8.8 14.5778 9.2 14.5156 9.60889C14.4534 10.0178 14.4178 10.4 14.3645 10.8C14.3645 11.04 14.3645 11.28 14.3023 11.5467L14.9512 11.1467C15.8401 10.6133 16.7289 10.0978 17.6178 9.55556C17.8585 9.39056 18.09 9.21252 18.3112 9.02223C18.6653 8.73015 19.0871 8.5315 19.5378 8.44445H19.7245C19.9467 8.44445 20.0178 8.49778 20.0089 8.72889C20.0146 8.85293 19.9919 8.97663 19.9426 9.0906C19.8933 9.20457 19.8187 9.30582 19.7245 9.38667C19.2745 9.7652 18.7927 10.1042 18.2845 10.4C17.3956 10.9244 16.4445 11.4311 15.5289 11.9644C15.1201 12.1956 14.7289 12.4622 14.3289 12.72L14.2401 12.7911L14.5334 12.9956C15.1734 13.4489 15.8223 13.8844 16.4712 14.3644C16.6578 14.4889 16.8801 14.56 17.0667 14.6756C17.5823 14.9867 18.0801 15.3067 18.5778 15.6178L19.2356 16.0533C19.2585 16.0623 19.2839 16.0623 19.3067 16.0533C20.1474 16.1308 20.9903 15.931 21.7067 15.4844C21.928 15.3363 22.1131 15.1404 22.2485 14.9112C22.3839 14.682 22.4661 14.4253 22.4889 14.16C22.5016 14.0494 22.4781 13.9377 22.4221 13.8416C22.366 13.7455 22.2803 13.6701 22.1778 13.6267C21.9745 13.5272 21.7488 13.4823 21.5228 13.4963C21.2969 13.5103 21.0784 13.5828 20.8889 13.7067C20.4615 13.9556 20.1298 14.3405 19.9467 14.8C19.8903 14.945 19.8573 15.098 19.8489 15.2533C19.8489 15.3422 19.8489 15.3956 19.7156 15.4133C19.5823 15.4311 19.3334 15.5289 19.1378 15.5556C19.0389 15.5824 18.9346 15.5824 18.8356 15.5556C18.6578 15.5022 18.6223 15.3422 18.6223 15.1733C18.6223 14.4622 18.6223 13.7511 18.6223 13.04C18.6223 12.8089 18.7023 12.5778 18.7289 12.3467C18.7556 12.1156 18.7734 11.9556 18.7823 11.76C18.7708 11.6804 18.7889 11.5994 18.8331 11.5322C18.8774 11.4651 18.9446 11.4165 19.0223 11.3956L19.5823 11.2356C19.6889 11.2356 19.7601 11.2356 19.7956 11.3867C19.8829 11.6897 19.9041 12.008 19.8578 12.32C19.8578 12.64 19.8045 12.9689 19.7689 13.3156L19.9289 13.2356C20.6698 12.7964 21.5494 12.6535 22.3912 12.8356C22.7196 12.9178 23.0241 13.0762 23.2801 13.2978C23.4808 13.4316 23.6261 13.6338 23.6889 13.8667C23.7411 14.179 23.7167 14.4992 23.6178 14.8C23.3839 15.3282 22.9673 15.7542 22.4445 16C21.8581 16.3524 21.2038 16.5765 20.5245 16.6578H20.2756C20.1601 16.6578 20.0712 16.6578 20.0356 16.8267C19.976 16.9228 19.8895 16.9993 19.7867 17.0467C19.684 17.0941 19.5697 17.1103 19.4578 17.0933C18.6536 16.819 17.884 16.4521 17.1645 16C16.2756 15.4489 15.3867 14.8711 14.4978 14.3022L14.1156 14.1333Z" fill="#FCB018"/>
<path d="M13.9999 21.8489C14.1636 21.91 14.3014 22.0254 14.3904 22.1759C14.4793 22.3263 14.5141 22.5026 14.4888 22.6756C14.4775 22.8417 14.411 22.9993 14.2999 23.1233C14.1888 23.2473 14.0394 23.3306 13.8755 23.36C13.6911 23.3982 13.5037 23.4191 13.3155 23.4222H12.1599C12.0443 23.4222 12.0088 23.3778 12.0088 23.2622V20.5956C12.0088 20.4978 12.0088 20.4622 12.1421 20.4622C12.5777 20.4622 13.031 20.4622 13.4488 20.4622C13.6084 20.4708 13.7664 20.4976 13.9199 20.5422C14.0737 20.586 14.205 20.6866 14.2875 20.8235C14.37 20.9604 14.3975 21.1236 14.3643 21.28C14.358 21.3982 14.3211 21.5128 14.2572 21.6125C14.1933 21.7123 14.1047 21.7937 13.9999 21.8489ZM12.5599 22.0978C12.5599 22.4 12.5599 22.6667 12.5599 22.9422C12.5634 22.9584 12.571 22.9734 12.5819 22.9858C12.5927 22.9982 12.6066 23.0077 12.6221 23.0133C12.951 23.0133 13.2799 23.0133 13.6088 22.9689C13.6615 22.9623 13.7124 22.9453 13.7585 22.9189C13.8046 22.8925 13.8449 22.8571 13.8772 22.8149C13.9095 22.7727 13.933 22.7245 13.9464 22.6731C13.9599 22.6217 13.9629 22.5681 13.9555 22.5156C13.9566 22.4669 13.9481 22.4186 13.9303 22.3734C13.9125 22.3281 13.8859 22.2869 13.8519 22.2521C13.8179 22.2173 13.7774 22.1897 13.7326 22.1708C13.6878 22.1519 13.6396 22.1422 13.591 22.1422C13.2621 22.1067 12.9243 22.1067 12.5599 22.0978ZM13.1021 20.8444H12.6843C12.5866 20.8444 12.5599 20.8889 12.5599 20.9778C12.5599 21.0667 12.5599 21.36 12.5599 21.5556C12.5599 21.7511 12.5599 21.68 12.6843 21.68C12.9066 21.68 13.1288 21.68 13.351 21.68C13.472 21.6714 13.59 21.6381 13.6977 21.5822C13.8843 21.4933 13.8932 21.3156 13.8755 21.1378C13.8734 21.0716 13.8468 21.0085 13.8008 20.9609C13.7548 20.9132 13.6927 20.8844 13.6266 20.88C13.4488 20.8622 13.2799 20.8622 13.1021 20.8444Z" fill="#746A61"/>
<path d="M10.0622 21.8578C10.1948 21.8709 10.3212 21.9201 10.4278 22C10.5344 22.0799 10.617 22.1875 10.6667 22.3111C10.7078 22.417 10.7251 22.5306 10.7174 22.6439C10.7096 22.7572 10.677 22.8674 10.6219 22.9667C10.5667 23.066 10.4904 23.1519 10.3982 23.2183C10.3061 23.2848 10.2005 23.3301 10.0889 23.3511C9.92089 23.3972 9.74757 23.4211 9.57336 23.4222H8.19558C8.10669 23.4222 8.06225 23.4222 8.06225 23.2978V20.56C8.05738 20.5276 8.05738 20.4946 8.06225 20.4622H8.16891C8.67558 20.4622 9.18225 20.4622 9.68891 20.4622C9.87551 20.4719 10.059 20.514 10.2311 20.5867C10.3525 20.635 10.4542 20.7225 10.5202 20.8352C10.5863 20.9479 10.6128 21.0794 10.5956 21.2089C10.5959 21.339 10.5571 21.4662 10.4842 21.574C10.4112 21.6818 10.3076 21.7652 10.1867 21.8133L10.0622 21.8578ZM8.5778 23.04C8.96891 23.04 9.34225 23.04 9.72447 23.04C9.84114 23.0403 9.95363 22.9966 10.0394 22.9174C10.1251 22.8383 10.1777 22.7297 10.1867 22.6133C10.1867 22.32 10.0711 22.1244 9.7778 22.0978C9.48447 22.0711 8.98669 22.0533 8.5778 22.0356V23.04ZM8.5778 21.6622H9.73336C9.80387 21.6568 9.87184 21.6336 9.93092 21.5947C9.99 21.5558 10.0382 21.5026 10.0711 21.44C10.1066 21.3823 10.1266 21.3164 10.129 21.2487C10.1313 21.181 10.1161 21.1139 10.0848 21.0538C10.0534 20.9938 10.007 20.9429 9.95005 20.9062C9.89313 20.8695 9.82765 20.8482 9.76003 20.8444C9.44003 20.8444 9.12003 20.8444 8.80003 20.8444H8.5778C8.5778 20.8889 8.5778 20.9156 8.5778 20.9422V21.6978V21.6622Z" fill="#746A61"/>
<path d="M4.88877 20.4445H5.33322C5.42211 20.4445 5.41322 20.5156 5.41322 20.5689V21.7333L5.94655 21.2978L6.83544 20.5245C6.8995 20.4755 6.97711 20.4476 7.05766 20.4445C7.24433 20.4445 7.43099 20.4445 7.65322 20.4445L5.96433 21.7867L7.74211 23.3956H7.62655C7.46364 23.4162 7.29817 23.3979 7.14367 23.3423C6.98917 23.2867 6.85004 23.1953 6.73766 23.0756C6.32877 22.64 5.84877 22.2578 5.40433 21.84C5.40433 21.8933 5.40433 21.92 5.40433 21.9556V23.2445C5.40433 23.36 5.40433 23.4045 5.25322 23.3956H4.87988L4.88877 20.4445Z" fill="#746A61"/>
<path d="M21.8838 24.1689C21.8838 24.1067 21.8838 24.0622 21.8838 24.0178V21.3333C21.8838 21.2 21.8838 21.1555 22.0527 21.1644C22.2216 21.1733 22.2571 21.1644 22.3638 21.1644V21.3244C22.4834 21.2519 22.6118 21.1951 22.746 21.1555C22.851 21.1202 22.962 21.1068 23.0724 21.1162C23.1827 21.1256 23.29 21.1575 23.3875 21.21C23.485 21.2625 23.5706 21.3345 23.6392 21.4214C23.7077 21.5084 23.7577 21.6085 23.786 21.7155C23.9148 22.0808 23.9148 22.4792 23.786 22.8444C23.7396 22.978 23.662 23.0985 23.5597 23.196C23.4574 23.2936 23.3334 23.3653 23.1978 23.4053C23.0622 23.4453 22.919 23.4523 22.7802 23.4259C22.6413 23.3995 22.5108 23.3403 22.3993 23.2533H22.346C22.346 23.4578 22.346 23.6622 22.346 23.8667C22.3515 23.9018 22.3436 23.9378 22.3238 23.9674C22.3041 23.997 22.2739 24.0182 22.2393 24.0267L21.8838 24.1689ZM23.3682 22.6044C23.3807 22.3362 23.3598 22.0675 23.306 21.8044C23.2815 21.727 23.2329 21.6595 23.1674 21.6115C23.1019 21.5636 23.0228 21.5377 22.9416 21.5378C22.8479 21.5306 22.7538 21.5444 22.6661 21.5783C22.5785 21.6121 22.4995 21.6651 22.4349 21.7333C22.3965 21.778 22.3745 21.8344 22.3727 21.8933C22.3727 22.0978 22.3727 22.3022 22.3727 22.5067C22.3597 22.5932 22.3775 22.6815 22.423 22.7562C22.4685 22.831 22.5387 22.8874 22.6216 22.9155C22.6877 22.9615 22.7644 22.9901 22.8446 22.9987C22.9247 23.0072 23.0057 22.9954 23.0801 22.9644C23.1545 22.9335 23.2199 22.8842 23.2702 22.8213C23.3206 22.7584 23.3543 22.6838 23.3682 22.6044Z" fill="#746A61"/>
<path d="M18.302 22.2222L19.4754 23.4222V23.4667C19.2832 23.4845 19.0898 23.4845 18.8976 23.4667C18.7998 23.4667 18.7109 23.3244 18.6309 23.2444L17.742 22.3111V23.3067C17.742 23.44 17.742 23.4844 17.582 23.4844C17.2265 23.4844 17.2354 23.4844 17.2354 23.1289C17.2354 22.3022 17.2354 21.4667 17.2354 20.64C17.2354 20.5244 17.2354 20.4978 17.3865 20.4978C17.7509 20.4978 17.7509 20.4978 17.7509 20.8533V22.1422L18.1331 21.8044L18.7109 21.28C18.7682 21.237 18.8355 21.2095 18.9065 21.2H19.4043L18.302 22.2222Z" fill="#746A61"/>
<path d="M19.3955 22.3111C19.374 22.102 19.4118 21.8911 19.5046 21.7025C19.5973 21.5138 19.7413 21.3551 19.92 21.2445C20.0723 21.1495 20.2464 21.0952 20.4257 21.0868C20.605 21.0783 20.7835 21.1161 20.944 21.1963C21.1046 21.2766 21.2418 21.3967 21.3427 21.5452C21.4435 21.6937 21.5046 21.8656 21.52 22.0445C21.5785 22.2788 21.561 22.5257 21.4699 22.7495C21.3788 22.9732 21.2189 23.1621 21.0133 23.2889C20.8682 23.3784 20.7034 23.4312 20.5333 23.4427C20.3632 23.4543 20.1929 23.4241 20.037 23.355C19.8812 23.2858 19.7446 23.1797 19.639 23.0458C19.5334 22.9119 19.462 22.7543 19.4311 22.5867C19.4133 22.4978 19.4044 22.4 19.3955 22.3111ZM19.8933 22.2578C19.8933 22.3556 19.8933 22.4533 19.9377 22.5422C19.9575 22.6476 20.0075 22.7449 20.0817 22.8223C20.1559 22.8996 20.2511 22.9537 20.3555 22.9778C20.4619 23.0011 20.573 22.9894 20.6723 22.9446C20.7715 22.8997 20.8537 22.8241 20.9066 22.7289C20.985 22.6037 21.0309 22.4609 21.0402 22.3134C21.0495 22.166 21.0219 22.0186 20.96 21.8845C20.9182 21.7772 20.8427 21.6863 20.745 21.6254C20.6473 21.5645 20.5325 21.5369 20.4177 21.5467C20.307 21.5549 20.2017 21.598 20.117 21.6699C20.0323 21.7418 19.9727 21.8387 19.9466 21.9467C19.9216 22.037 19.9038 22.1291 19.8933 22.2222V22.2578Z" fill="#746A61"/>
<path d="M16.2933 23.2C16.1919 23.2939 16.07 23.3629 15.9373 23.4015C15.8046 23.44 15.6648 23.4472 15.5288 23.4222C15.3696 23.4022 15.2208 23.3319 15.1041 23.2217C14.9874 23.1114 14.9089 22.9668 14.88 22.8089C14.8707 22.6668 14.8707 22.5243 14.88 22.3822V21.1467H15.2622C15.3688 21.1467 15.3866 21.1467 15.3866 21.28V22.3467C15.3735 22.4708 15.3735 22.5959 15.3866 22.72C15.4021 22.7924 15.4409 22.8577 15.4971 22.9059C15.5533 22.9541 15.6238 22.9825 15.6977 22.9867C15.9022 22.9867 16.1066 22.9867 16.1955 22.7644C16.2477 22.65 16.2749 22.5258 16.2755 22.4C16.2755 22.0267 16.2755 21.6622 16.2755 21.2889V21.1467H16.6844C16.6844 21.1467 16.7644 21.2178 16.7644 21.2533C16.7644 21.5467 16.7644 21.84 16.7644 22.1422V23.2C16.7644 23.3956 16.7644 23.3956 16.56 23.3956H16.4266C16.32 23.4044 16.2577 23.36 16.2933 23.2Z" fill="#746A61"/>
<path d="M25.6793 21.1822V21.3333C25.8012 21.27 25.9293 21.2194 26.0615 21.1822C26.1838 21.1452 26.3132 21.138 26.4389 21.1612C26.5646 21.1845 26.6828 21.2375 26.7838 21.3158C26.8848 21.3942 26.9655 21.4955 27.0192 21.6115C27.073 21.7274 27.0981 21.8545 27.0927 21.9822C27.0927 22.4356 27.0927 22.8711 27.0927 23.36C27.0927 23.4311 27.0927 23.4578 26.9949 23.4578C26.5238 23.4578 26.6038 23.5378 26.5949 23.0756V22.0356C26.5978 21.9547 26.5795 21.8746 26.5417 21.803C26.504 21.7315 26.4482 21.6712 26.3798 21.628C26.3114 21.5848 26.2329 21.5603 26.1521 21.5569C26.0713 21.5536 25.991 21.5715 25.9193 21.6089C25.8514 21.6356 25.7931 21.682 25.7519 21.7423C25.7107 21.8025 25.6885 21.8737 25.6882 21.9467C25.6882 22.1422 25.6882 22.3289 25.6882 22.5244V23.3156C25.6882 23.3956 25.6882 23.4311 25.5727 23.4311C25.1904 23.4311 25.1904 23.4311 25.1904 23.0489V21.3333C25.1904 21.2089 25.1904 21.1644 25.3415 21.1822C25.4927 21.2 25.5549 21.1822 25.6793 21.1822Z" fill="#746A61"/>
<path d="M24.7284 21.1733C24.7321 21.2177 24.7321 21.2623 24.7284 21.3067C24.7284 21.9645 24.7284 22.6222 24.7284 23.28C24.7284 23.3867 24.7284 23.4311 24.5773 23.4311C24.1507 23.4311 24.2218 23.4933 24.2129 23.0667C24.2129 22.4889 24.2129 21.9022 24.2129 21.2889C24.2129 21.1733 24.2129 21.1289 24.364 21.1378L24.7284 21.1733Z" fill="#746A61"/>
<path d="M24.7376 20.4445C24.7376 20.5867 24.7376 20.7111 24.7376 20.8356C24.7376 20.96 24.6843 20.8978 24.6576 20.9156H24.5776C24.2043 20.9156 24.1776 20.9156 24.2399 20.5245C24.2399 20.5245 24.2843 20.4533 24.311 20.4445H24.7376Z" fill="#746A61"/>
</g>
<defs>
<clipPath id="clip0_2707_370358">
<rect width="32" height="32" fill="white"/>
</clipPath>
</defs>
</svg>
