<svg width="32" height="32" viewBox="0 0 32 32" fill="none" xmlns="http://www.w3.org/2000/svg">
<g clip-path="url(#clip0_2707_370228)">
<path d="M15.9998 31.9822C24.8265 31.9822 31.982 24.8267 31.982 16C31.982 7.17326 24.8265 0.0177765 15.9998 0.0177765C7.17306 0.0177765 0.0175781 7.17326 0.0175781 16C0.0175781 24.8267 7.17306 31.9822 15.9998 31.9822Z" fill="white"/>
<path d="M6.07136 15.0044L5.96469 15.1111C5.75136 15.3511 5.5558 15.6089 5.33358 15.8311C5.11136 16.0533 5.03136 16 4.86247 15.7689C4.70724 15.5419 4.61074 15.28 4.58162 15.0065C4.55249 14.7331 4.59166 14.4567 4.6956 14.2022C4.79954 13.9476 4.96502 13.7228 5.1772 13.5479C5.38938 13.373 5.64163 13.2534 5.91136 13.2C6.15363 13.1452 6.40527 13.1469 6.64677 13.205C6.88827 13.2631 7.11314 13.3761 7.30396 13.5351C7.49478 13.6941 7.64642 13.8949 7.74713 14.122C7.84784 14.3491 7.89491 14.5963 7.88469 14.8444C7.87335 15.066 7.81825 15.283 7.72258 15.4831C7.62692 15.6833 7.49257 15.8624 7.32729 16.0104C7.16201 16.1583 6.96908 16.272 6.75962 16.345C6.55016 16.418 6.32833 16.4487 6.10691 16.4355C5.96469 16.4355 5.85803 16.3467 5.86691 16.1955C5.87467 15.9827 5.90446 15.7712 5.9558 15.5644C6.00282 15.3683 6.0622 15.1753 6.13358 14.9867L6.07136 15.0044Z" fill="#1C8E46"/>
<path d="M5.8486 17.6978C5.8486 17.3956 5.7686 17.1022 5.75082 16.8089C5.73304 16.5156 5.80415 16.5244 6.02637 16.5689C6.30861 16.6109 6.56388 16.7598 6.73929 16.9849C6.91471 17.2099 6.99681 17.4938 6.9686 17.7778C6.93723 18.07 6.79567 18.3393 6.57273 18.5309C6.3498 18.7225 6.06224 18.8219 5.7686 18.8089C5.49312 18.7991 5.23075 18.6888 5.03099 18.4988C4.83122 18.3089 4.70785 18.0524 4.68415 17.7778C4.66912 17.4978 4.76492 17.2232 4.95082 17.0133C5.06637 16.8622 5.19971 16.8356 5.33304 17.0133C5.46637 17.1911 5.6086 17.3867 5.75082 17.5822C5.78637 17.5733 5.81304 17.6356 5.8486 17.6978Z" fill="#81C244"/>
<path d="M3.83068 16.4444C4.11512 16.4889 4.42623 16.5333 4.71956 16.5956C5.0129 16.6578 4.91512 16.6844 4.82623 16.8533C4.75849 17.0183 4.65291 17.165 4.51802 17.2817C4.38313 17.3984 4.2227 17.4817 4.04969 17.5249C3.87667 17.5682 3.69591 17.5702 3.52199 17.5307C3.34807 17.4913 3.18586 17.4115 3.04845 17.2978C2.88049 17.1569 2.75795 16.9695 2.69626 16.7591C2.63458 16.5487 2.6365 16.3248 2.70179 16.1156C2.76684 15.9026 2.89205 15.7129 3.06237 15.5694C3.23268 15.4259 3.44084 15.3346 3.66179 15.3067C3.86219 15.2801 4.06605 15.3092 4.25104 15.3907C4.43603 15.4722 4.59504 15.6031 4.71068 15.7689C4.8529 15.9644 4.83512 16.08 4.6129 16.1778C4.39068 16.2756 4.15956 16.3289 3.92845 16.4089L3.83068 16.4444Z" fill="#939192"/>
<path d="M9.04883 14.8444H9.14661C9.36883 14.8444 9.38661 14.8444 9.38661 15.0755V15.68C9.51028 15.6018 9.65361 15.5603 9.79994 15.5603C9.94627 15.5603 10.0896 15.6018 10.2133 15.68C10.3731 15.7879 10.4968 15.9414 10.5681 16.1206C10.6395 16.2997 10.6552 16.4962 10.6133 16.6844C10.6016 16.8276 10.5528 16.9653 10.4717 17.0839C10.3906 17.2025 10.28 17.2979 10.1508 17.3607C10.0216 17.4235 9.87821 17.4515 9.73485 17.4421C9.5915 17.4326 9.45309 17.3859 9.33327 17.3067L9.22661 17.4222C9.14661 17.4755 9.04883 17.4222 9.04883 17.3511V14.8444ZM9.39549 16.4533C9.3866 16.5954 9.3866 16.7379 9.39549 16.88C9.40022 16.9119 9.41131 16.9424 9.42811 16.9699C9.44491 16.9974 9.46707 17.0212 9.49327 17.04C9.87549 17.2 10.1777 17.04 10.2488 16.7022C10.2623 16.59 10.2623 16.4766 10.2488 16.3644C10.2494 16.2777 10.2291 16.1921 10.1896 16.1148C10.1502 16.0375 10.0928 15.9708 10.0223 15.9203C9.95175 15.8698 9.87012 15.8369 9.78425 15.8245C9.69839 15.8121 9.61079 15.8204 9.52883 15.8489C9.47767 15.8596 9.43257 15.8896 9.40281 15.9326C9.37305 15.9756 9.36089 16.0283 9.36883 16.08C9.36883 16.2044 9.36883 16.3289 9.36883 16.4533H9.39549Z" fill="#1F9048"/>
<path d="M28.0178 16.5067C27.998 16.6272 28.0209 16.7509 28.0825 16.8564C28.1442 16.9619 28.2408 17.0426 28.3556 17.0844C28.4668 17.1162 28.5838 17.1223 28.6977 17.1023C28.8117 17.0823 28.9196 17.0367 29.0133 16.9689L29.0756 17.0667C29.1644 17.1822 29.1378 17.2622 29.0044 17.2889C28.8119 17.3509 28.6112 17.3838 28.4089 17.3867C28.2134 17.3762 28.0285 17.2944 27.8893 17.1568C27.7501 17.0192 27.6661 16.8353 27.6533 16.64C27.614 16.4362 27.6411 16.2251 27.7307 16.0379C27.8203 15.8507 27.9677 15.6972 28.1511 15.6C28.2552 15.5498 28.3688 15.5222 28.4843 15.519C28.5999 15.5159 28.7148 15.5373 28.8214 15.5818C28.9281 15.6263 29.0241 15.693 29.1032 15.7773C29.1822 15.8616 29.2425 15.9618 29.28 16.0711C29.28 16.0711 29.28 16.0711 29.28 16.1155C29.3422 16.4533 29.28 16.5067 28.96 16.5067H28.0178ZM28.0178 16.24H28.9778C28.9745 16.1788 28.9588 16.1189 28.9317 16.064C28.9046 16.009 28.8667 15.9601 28.8201 15.9202C28.7736 15.8803 28.7195 15.8503 28.661 15.8319C28.6026 15.8136 28.541 15.8072 28.48 15.8133C28.3639 15.815 28.2526 15.8595 28.1673 15.9382C28.0819 16.017 28.0287 16.1244 28.0178 16.24Z" fill="#939091"/>
<path d="M13.813 17.2089C13.6442 17.3488 13.4268 17.4159 13.2085 17.3956C13.0773 17.3804 12.9561 17.3179 12.8677 17.2196C12.7793 17.1214 12.7298 16.9943 12.7285 16.8622C12.7297 16.7566 12.7639 16.6541 12.8263 16.5689C12.9197 16.4384 13.0467 16.3356 13.1938 16.2714C13.3409 16.2072 13.5026 16.1841 13.6618 16.2044H13.7863C13.8041 16.1458 13.8025 16.0829 13.7816 16.0253C13.7608 15.9676 13.7219 15.9182 13.6707 15.8845C13.561 15.8212 13.4342 15.7941 13.3082 15.8069C13.1822 15.8196 13.0634 15.8716 12.9685 15.9556C12.9152 15.8667 12.8796 15.7778 12.8352 15.7067C12.9911 15.5811 13.1833 15.5089 13.3834 15.5009C13.5835 15.4929 13.7808 15.5495 13.9463 15.6622C14.0147 15.7359 14.0674 15.8228 14.101 15.9176C14.1346 16.0124 14.1485 16.113 14.1418 16.2133C14.1418 16.5511 14.1418 16.88 14.1418 17.2178C14.1418 17.2711 14.1418 17.3689 14.0796 17.36C14.0128 17.3572 13.9481 17.3357 13.893 17.2978C13.893 17.2978 13.8396 17.2533 13.813 17.2089ZM13.813 16.48C13.7141 16.4472 13.6085 16.4398 13.506 16.4585C13.4035 16.4771 13.3073 16.5212 13.2263 16.5867C13.1647 16.6325 13.1205 16.698 13.1011 16.7724C13.0817 16.8467 13.0883 16.9254 13.1196 16.9956C13.1616 17.0523 13.2195 17.0953 13.286 17.1191C13.3525 17.1428 13.4245 17.1462 13.493 17.1289C13.5744 17.118 13.6505 17.0823 13.7109 17.0266C13.7714 16.971 13.8132 16.8981 13.8307 16.8178C13.813 16.7111 13.8041 16.5956 13.7952 16.48H13.813Z" fill="#21904A"/>
<path d="M17.6 16.2222C17.6118 16.1595 17.6046 16.0946 17.5792 16.036C17.5539 15.9774 17.5116 15.9277 17.4578 15.8933C17.3523 15.8432 17.235 15.8232 17.1188 15.8358C17.0027 15.8483 16.8923 15.8929 16.8 15.9644C16.6489 15.7067 16.6578 15.6711 16.9511 15.5911C17.0542 15.5561 17.1623 15.5381 17.2711 15.5378C17.7422 15.5378 17.9645 15.7422 17.9822 16.2133C18 16.6844 17.9822 16.9067 17.9822 17.2622C17.9822 17.3067 17.9822 17.3956 17.9289 17.3956C17.8601 17.3957 17.7925 17.3773 17.7333 17.3422C17.7101 17.3212 17.6945 17.2931 17.6889 17.2622C17.5154 17.3223 17.3369 17.3669 17.1556 17.3956C17.0433 17.4124 16.9288 17.3897 16.8315 17.3313C16.7341 17.2729 16.6602 17.1825 16.6222 17.0756C16.5791 16.9655 16.5713 16.8447 16.6 16.73C16.6287 16.6153 16.6924 16.5124 16.7822 16.4356C16.8753 16.3544 16.9842 16.2936 17.102 16.2568C17.2198 16.2201 17.344 16.2083 17.4667 16.2222H17.6ZM17.6 16.4889C17.4806 16.4435 17.3496 16.439 17.2274 16.476C17.1052 16.513 16.9986 16.5894 16.9245 16.6933C16.8811 16.7459 16.8574 16.8119 16.8574 16.88C16.8574 16.9481 16.8811 17.0141 16.9245 17.0667C16.9904 17.1058 17.0656 17.1264 17.1422 17.1264C17.2189 17.1264 17.2941 17.1058 17.36 17.0667C17.428 17.0466 17.487 17.0039 17.5274 16.9458C17.5678 16.8876 17.5872 16.8173 17.5822 16.7467C17.5822 16.6578 17.5822 16.5689 17.5822 16.4711L17.6 16.4889Z" fill="#1F8F48"/>
<path d="M22.6136 16C22.427 15.7422 22.4358 15.68 22.7292 15.6178C22.9261 15.5823 23.1278 15.5823 23.3247 15.6178C23.4465 15.6311 23.5588 15.6896 23.6395 15.7818C23.7201 15.874 23.7632 15.9931 23.7603 16.1155C23.7603 16.5333 23.7603 16.9422 23.7603 17.36C23.7603 17.36 23.7603 17.44 23.6981 17.44C23.6376 17.44 23.5786 17.4214 23.5292 17.3867C23.5037 17.3641 23.4826 17.3369 23.467 17.3067C23.2781 17.366 23.0849 17.4106 22.8892 17.44C22.7828 17.4463 22.6773 17.4163 22.5901 17.355C22.503 17.2936 22.4392 17.2045 22.4092 17.1022C22.3665 17.0049 22.3539 16.8971 22.3729 16.7926C22.3919 16.6881 22.4417 16.5916 22.5158 16.5156C22.613 16.4138 22.733 16.3365 22.8659 16.2901C22.9988 16.2438 23.1409 16.2296 23.2803 16.2489H23.4047C23.4266 16.1914 23.4279 16.1282 23.4084 16.0699C23.389 16.0116 23.35 15.9618 23.2981 15.9289C23.1891 15.8743 23.0667 15.852 22.9455 15.8646C22.8242 15.8772 22.7091 15.9242 22.6136 16ZM23.5025 16.7111C23.5025 16.64 23.4492 16.5333 23.3958 16.5067C23.2946 16.4724 23.1854 16.4693 23.0823 16.4978C22.9793 16.5263 22.8872 16.5852 22.8181 16.6667C22.7728 16.7107 22.7424 16.7678 22.7312 16.83C22.7201 16.8922 22.7287 16.9563 22.7558 17.0133C22.7843 17.0642 22.8276 17.1052 22.8801 17.1306C22.9326 17.1561 22.9916 17.1648 23.0492 17.1555C23.2981 17.1289 23.4492 16.9689 23.4847 16.6844L23.5025 16.7111Z" fill="#929191"/>
<path d="M12.0532 17.1289C11.9693 17.2337 11.8553 17.3103 11.7266 17.3484C11.5979 17.3865 11.4606 17.3844 11.3332 17.3422C11.2305 17.3183 11.1387 17.2607 11.0727 17.1785C11.0066 17.0963 10.97 16.9943 10.9688 16.8889C10.9687 16.4711 10.9688 16.0533 10.9688 15.6356C10.9688 15.4756 11.0932 15.5467 11.1643 15.5378C11.2354 15.5289 11.3065 15.5378 11.3065 15.6444C11.3065 15.9378 11.3065 16.24 11.3065 16.5333V16.6933C11.3065 16.8533 11.3599 17.0044 11.5288 17.0667C11.6081 17.0938 11.6937 17.0964 11.7746 17.0743C11.8554 17.0521 11.9277 17.0061 11.9821 16.9422C12.038 16.8852 12.0698 16.8088 12.071 16.7289C12.071 16.3822 12.071 16.0444 12.071 15.7067C12.071 15.5556 12.1243 15.5289 12.2576 15.5289C12.391 15.5289 12.4176 15.5733 12.4176 15.6978C12.4176 16.1778 12.4176 16.6578 12.4176 17.1378C12.42 17.1735 12.4149 17.2094 12.4027 17.243C12.3904 17.2767 12.3713 17.3075 12.3465 17.3333C12.3237 17.3415 12.2994 17.3445 12.2753 17.3419C12.2512 17.3393 12.228 17.3313 12.2075 17.3185C12.1869 17.3057 12.1696 17.2883 12.1567 17.2678C12.1438 17.2473 12.1358 17.2241 12.1332 17.2C12.1332 17.2 12.0621 17.1556 12.0532 17.1289Z" fill="#23914B"/>
<path d="M14.9507 15.7689C15.0212 15.6794 15.1146 15.6107 15.221 15.57C15.3274 15.5293 15.4429 15.5182 15.5551 15.5378C15.6718 15.5501 15.7804 15.6032 15.8617 15.6878C15.943 15.7724 15.9918 15.8829 15.9995 16C16.0084 16.1302 16.0084 16.2609 15.9995 16.3911V17.3333H15.8662C15.6973 17.3333 15.6618 17.3333 15.6618 17.1467C15.6618 16.8267 15.6618 16.5156 15.6618 16.1956C15.6618 16.0356 15.6618 15.8756 15.4662 15.8044C15.3861 15.7725 15.2982 15.7657 15.2141 15.7847C15.13 15.8037 15.0537 15.8478 14.9951 15.9111C14.9378 15.9709 14.906 16.0506 14.9062 16.1333C14.9062 16.48 14.9062 16.8267 14.9062 17.1644C14.9062 17.2178 14.9062 17.2622 14.9062 17.3156H14.7284C14.6129 17.3156 14.5684 17.3156 14.5684 17.1644C14.5684 16.6844 14.5684 16.1956 14.5684 15.7156C14.5676 15.6779 14.5742 15.6404 14.5879 15.6053C14.6017 15.5702 14.6222 15.5382 14.6484 15.5111C14.7551 15.4667 14.8351 15.5111 14.8618 15.6533L14.9507 15.7689Z" fill="#22914B"/>
<path d="M20.5332 15.5822C20.7199 15.5111 20.7999 15.5822 20.8532 15.76C20.922 15.6828 21.0072 15.622 21.1026 15.582C21.1979 15.542 21.301 15.5239 21.4043 15.5289C21.5373 15.5216 21.6678 15.5669 21.7676 15.6551C21.8674 15.7432 21.9285 15.8671 21.9376 16C21.9376 16.4178 21.9376 16.8356 21.9376 17.2533C21.9376 17.3689 21.8576 17.36 21.7865 17.36C21.7154 17.36 21.5999 17.36 21.5999 17.2356C21.5999 17.1111 21.5999 16.7911 21.5999 16.5689C21.6134 16.4032 21.6134 16.2368 21.5999 16.0711C21.5948 16.0285 21.5808 15.9874 21.5586 15.9507C21.5365 15.9139 21.5068 15.8823 21.4715 15.8579C21.4361 15.8335 21.396 15.8169 21.3538 15.8092C21.3116 15.8015 21.2682 15.8029 21.2265 15.8133C21.1329 15.8156 21.0438 15.8538 20.9776 15.92C20.9114 15.9862 20.8732 16.0753 20.871 16.1689C20.871 16.5156 20.871 16.8711 20.871 17.2178C20.871 17.3244 20.871 17.3689 20.7376 17.36C20.6043 17.3511 20.5332 17.36 20.5332 17.2356V15.5822Z" fill="#949192"/>
<path d="M25.6171 17.3422C25.2971 17.3422 25.306 17.3422 25.306 17.0933C25.306 16.8444 25.306 16.4444 25.306 16.1244C25.3081 16.0791 25.2999 16.0339 25.2821 15.9921C25.2643 15.9504 25.2373 15.9132 25.2031 15.8833C25.169 15.8534 25.1285 15.8316 25.0848 15.8195C25.041 15.8074 24.9951 15.8053 24.9505 15.8133C24.9003 15.8109 24.8501 15.8185 24.8028 15.8355C24.7555 15.8525 24.712 15.8787 24.6749 15.9126C24.6377 15.9464 24.6076 15.9873 24.5863 16.0328C24.5649 16.0783 24.5528 16.1276 24.5505 16.1778V17.3511C24.4796 17.3597 24.408 17.3597 24.3371 17.3511C24.3126 17.3422 24.2904 17.3281 24.2719 17.3097C24.2535 17.2912 24.2393 17.269 24.2305 17.2444V15.5822C24.4082 15.52 24.506 15.5822 24.5327 15.7778C24.6118 15.6792 24.7173 15.6051 24.8369 15.5642C24.9565 15.5232 25.0853 15.5172 25.2082 15.5467C25.3246 15.5597 25.4322 15.6147 25.5107 15.7015C25.5893 15.7883 25.6335 15.9007 25.6349 16.0178C25.6349 16.4622 25.6171 16.8889 25.6171 17.3422Z" fill="#908D8F"/>
<path d="M19.2178 14.8178H19.3422C19.4311 14.8178 19.4844 14.8178 19.4844 14.9422C19.4844 15.0667 19.4844 15.1022 19.3511 15.1111H19.0844C19.0238 15.1101 18.9642 15.1273 18.9135 15.1606C18.8627 15.1939 18.8232 15.2417 18.8 15.2978C18.7022 15.4844 18.8 15.5644 18.96 15.5644H19.1111C19.2089 15.5644 19.2711 15.5644 19.2711 15.6978C19.2711 15.8311 19.2267 15.8489 19.1111 15.8578C18.7644 15.8578 18.7644 15.8578 18.7644 16.2133V17.2178C18.7644 17.3067 18.7644 17.3778 18.6489 17.3778C18.5333 17.3778 18.4355 17.3778 18.4355 17.2356C18.4355 16.64 18.4355 16.0444 18.4355 15.4578C18.4711 14.9956 18.72 14.8178 19.2178 14.8178Z" fill="#959293"/>
<path d="M27.3242 16.96C27.3567 17.0195 27.3835 17.082 27.4042 17.1467C27.4079 17.1716 27.4049 17.1971 27.3956 17.2206C27.3862 17.244 27.3708 17.2645 27.3508 17.28C27.1658 17.3774 26.9558 17.4168 26.748 17.393C26.5403 17.3692 26.3446 17.2834 26.1864 17.1467C26.0415 16.9597 25.9629 16.7299 25.9629 16.4933C25.9629 16.2568 26.0415 16.027 26.1864 15.84C26.3355 15.6802 26.5339 15.5751 26.7497 15.5412C26.9656 15.5074 27.1867 15.5469 27.3775 15.6533C27.3775 15.6533 27.4397 15.76 27.4219 15.7778C27.4042 15.7955 27.3597 15.9644 27.2353 15.9111C27.1584 15.8737 27.078 15.844 26.9953 15.8222C26.9215 15.8042 26.8445 15.8037 26.7704 15.8207C26.6963 15.8377 26.6272 15.8717 26.5686 15.92C26.4268 16.0564 26.3424 16.2418 26.3324 16.4383C26.3225 16.6348 26.3879 16.8278 26.5153 16.9778C26.6213 17.0544 26.7489 17.0957 26.8797 17.0957C27.0106 17.0957 27.1381 17.0544 27.2442 16.9778L27.3242 16.96Z" fill="#929191"/>
<path d="M20.0441 16.4622C20.0441 16.7111 20.0441 16.9511 20.0441 17.2C20.0441 17.4489 19.9819 17.3689 19.8575 17.3689C19.733 17.3689 19.6975 17.3244 19.6975 17.2089C19.6975 16.8089 19.6975 16.4089 19.6975 16.0089C19.6975 15.9022 19.6975 15.8311 19.5464 15.84C19.3953 15.8489 19.4486 15.7422 19.4486 15.6711C19.4486 15.6 19.4486 15.5644 19.5464 15.5556C20.0353 15.5556 20.0353 15.5556 20.0353 16.0089L20.0441 16.4622Z" fill="#989596"/>
<path d="M19.8838 14.8267C19.9372 14.8267 20.0527 14.7822 20.0527 14.9422C20.0527 15.1022 19.9638 15.1111 19.8483 15.1111C19.7327 15.1111 19.6794 15.1111 19.6705 14.96C19.6616 14.8089 19.7594 14.8178 19.8838 14.8267Z" fill="#979495"/>
<path d="M9.38616 16.4533C9.38616 16.3289 9.38616 16.2044 9.38616 16.08C9.37822 16.0283 9.39038 15.9756 9.42014 15.9326C9.4499 15.8896 9.495 15.8596 9.54616 15.8489C9.62812 15.8204 9.71572 15.8121 9.80158 15.8245C9.88745 15.8369 9.96908 15.8698 10.0396 15.9203C10.1102 15.9708 10.1676 16.0375 10.207 16.1148C10.2464 16.1921 10.2667 16.2777 10.2662 16.3644C10.2795 16.4796 10.2795 16.5959 10.2662 16.7111C10.195 17.0578 9.89283 17.2089 9.5106 17.04C9.4844 17.0213 9.46224 16.9974 9.44544 16.9699C9.42864 16.9425 9.41755 16.9119 9.41283 16.88C9.39505 16.7385 9.38615 16.596 9.38616 16.4533Z" fill="#FCFDFD"/>
<path d="M28.0176 16.24C28.0285 16.1244 28.0817 16.017 28.167 15.9382C28.2523 15.8595 28.3637 15.815 28.4798 15.8133C28.5408 15.8072 28.6024 15.8136 28.6608 15.8319C28.7193 15.8503 28.7734 15.8803 28.8199 15.9202C28.8665 15.9601 28.9044 16.009 28.9315 16.064C28.9586 16.1189 28.9743 16.1788 28.9776 16.24H28.0176Z" fill="#FCFCFC"/>
<path d="M13.7952 16.48C13.7952 16.5956 13.7952 16.7111 13.7952 16.8178C13.7777 16.8981 13.7359 16.971 13.6754 17.0266C13.615 17.0823 13.5389 17.118 13.4575 17.1289C13.389 17.1462 13.317 17.1428 13.2505 17.1191C13.184 17.0953 13.1261 17.0523 13.0841 16.9956C13.0528 16.9254 13.0462 16.8467 13.0656 16.7724C13.085 16.698 13.1292 16.6325 13.1908 16.5867C13.2737 16.5182 13.373 16.4723 13.479 16.4536C13.5849 16.4349 13.6939 16.444 13.7952 16.48Z" fill="#FAFCFB"/>
<path d="M17.5997 16.4889C17.5997 16.5867 17.5997 16.6755 17.5997 16.7644C17.603 16.8348 17.583 16.9043 17.5429 16.9622C17.5027 17.02 17.4445 17.063 17.3774 17.0844C17.3115 17.1236 17.2363 17.1442 17.1597 17.1442C17.083 17.1442 17.0078 17.1236 16.9419 17.0844C16.8969 17.0327 16.8721 16.9664 16.8721 16.8978C16.8721 16.8292 16.8969 16.7629 16.9419 16.7111C17.0126 16.6078 17.115 16.5303 17.2337 16.4902C17.3523 16.4501 17.4808 16.4496 17.5997 16.4889Z" fill="#F8FBF9"/>
<path d="M23.484 16.6844C23.484 16.9689 23.2974 17.1289 23.0307 17.1289C22.9731 17.1381 22.9141 17.1294 22.8616 17.104C22.8092 17.0785 22.7658 17.0376 22.7374 16.9867C22.7102 16.9296 22.7016 16.8655 22.7128 16.8033C22.7239 16.7411 22.7543 16.684 22.7996 16.64C22.8688 16.5585 22.9608 16.4997 23.0639 16.4711C23.1669 16.4426 23.2761 16.4457 23.3774 16.48C23.4307 16.5067 23.4485 16.6133 23.484 16.6844Z" fill="#FCFCFC"/>
</g>
<defs>
<clipPath id="clip0_2707_370228">
<rect width="32" height="32" fill="white"/>
</clipPath>
</defs>
</svg>
