<svg width="32" height="32" viewBox="0 0 32 32" fill="none" xmlns="http://www.w3.org/2000/svg">
<path fill-rule="evenodd" clip-rule="evenodd" d="M16 32C12.8355 32 9.74207 31.0616 7.11088 29.3035C4.4797 27.5454 2.42894 25.0466 1.21793 22.1229C0.00693258 19.1993 -0.309921 15.9823 0.307443 12.8786C0.924806 9.77487 2.44866 6.92394 4.6863 4.6863C6.92394 2.44866 9.77487 0.924806 12.8786 0.307443C15.9823 -0.309921 19.1993 0.00693258 22.1229 1.21793C25.0466 2.42894 27.5454 4.4797 29.3035 7.11088C31.0616 9.74207 32 12.8355 32 16C32 20.2435 30.3143 24.3131 27.3137 27.3137C24.3131 30.3143 20.2435 32 16 32Z" fill="#0060AD"/>
<path fill-rule="evenodd" clip-rule="evenodd" d="M19.9201 9.13778C19.9364 9.16357 19.9513 9.19028 19.9645 9.21778C20.0445 9.35111 20.1245 9.49333 20.1956 9.63555C20.5041 10.3392 20.6177 11.1129 20.5245 11.8756C20.4823 12.3025 20.3713 12.7197 20.1956 13.1111C20.092 13.3605 19.9445 13.5893 19.7601 13.7867L17.6623 15.9289C17.6364 15.9503 17.6126 15.9741 17.5912 16L22.2668 20.7556V20.6756C22.2668 17.3037 22.2668 13.9348 22.2668 10.5689C22.276 10.4595 22.276 10.3494 22.2668 10.24C22.2109 9.96561 22.0701 9.71577 21.8643 9.52591C21.6585 9.33604 21.3981 9.2158 21.1201 9.18222C20.7468 9.18222 20.3645 9.18222 19.9823 9.13778H19.9201ZM13.1468 16L13.2001 16.0533L14.6045 17.4844C14.7965 17.663 14.9776 17.853 15.1468 18.0533C15.6886 18.7336 15.9888 19.5748 16.0001 20.4444C16.014 20.744 15.981 21.0439 15.9023 21.3333C15.7735 21.8294 15.604 22.314 15.3956 22.7822V22.8711H20.9868C21.2083 22.8749 21.4276 22.8261 21.6268 22.7289L21.7156 22.6756L21.6445 22.6044L15.289 16.1244C15.2001 16.0356 15.2001 16.0533 15.289 15.9644L18.3201 12.8711C18.6378 12.504 18.8225 12.0406 18.8445 11.5556C18.8753 11.2582 18.8441 10.9578 18.7528 10.6731C18.6615 10.3885 18.5121 10.1259 18.3141 9.90203C18.1161 9.67811 17.8738 9.49774 17.6024 9.37231C17.3311 9.24687 17.0367 9.17912 16.7379 9.17333H15.449C15.801 9.73186 16.003 10.3717 16.0356 11.0311C16.0715 11.5462 16.0174 12.0635 15.8756 12.56C15.7464 13.0435 15.5025 13.4887 15.1645 13.8578L13.2001 15.8844L13.1468 16ZM10.5779 16H10.6668L13.7601 12.8711C14.0796 12.5605 14.2928 12.157 14.3694 11.718C14.4461 11.2791 14.3821 10.8271 14.1868 10.4267C14.0319 10.05 13.7662 9.72921 13.4249 9.50696C13.0836 9.28472 12.6828 9.17146 12.2756 9.18222H11.049C10.975 9.17787 10.9008 9.17787 10.8268 9.18222C10.6082 9.21818 10.4026 9.30987 10.2297 9.44844C10.0569 9.58702 9.92271 9.76779 9.84009 9.97333C9.76265 10.1561 9.72333 10.3527 9.72454 10.5511V21.3333C9.71572 21.4547 9.71572 21.5765 9.72454 21.6978C9.7788 21.9888 9.92594 22.2544 10.1439 22.4547C10.3619 22.655 10.6389 22.7793 10.9334 22.8089C11.3235 22.849 11.7167 22.849 12.1068 22.8089C12.7208 22.7181 13.2788 22.401 13.6712 21.92C13.8614 21.6983 14.0018 21.4383 14.0831 21.1577C14.1644 20.8771 14.1846 20.5824 14.1423 20.2933C14.0769 19.8152 13.8513 19.3734 13.5023 19.04L11.1112 16.5689L10.5779 16ZM16.0001 24.1244C14.1334 24.1244 12.2668 24.1244 10.3912 24.1244C9.80125 24.1244 9.23037 23.9155 8.7797 23.5347C8.32903 23.154 8.02766 22.6261 7.92898 22.0444C7.90057 21.883 7.88571 21.7195 7.88454 21.5556V10.4533C7.87441 10.0379 7.96734 9.6265 8.15503 9.25579C8.34271 8.88507 8.6193 8.56662 8.96009 8.32889C9.2795 8.09087 9.65723 7.94347 10.0534 7.90222H10.4268H21.5734C22.1285 7.90206 22.6679 8.08612 23.1071 8.42556C23.5463 8.765 23.8603 9.2406 24.0001 9.77778C24.0533 9.98997 24.0801 10.2079 24.0801 10.4267C24.0801 14.1778 24.0801 17.923 24.0801 21.6622C24.0754 22.23 23.876 22.7789 23.5152 23.2174C23.1544 23.6558 22.6541 23.9572 22.0979 24.0711C21.925 24.1039 21.7493 24.1188 21.5734 24.1156L16.0001 24.1244Z" fill="#FEFEFE"/>
</svg>
