<svg width="33" height="32" viewBox="0 0 33 32" fill="none" xmlns="http://www.w3.org/2000/svg">
<g clip-path="url(#clip0_2707_369768)">
<path d="M16 0C19.1645 0 22.2579 0.938384 24.8891 2.69649C27.5203 4.45459 29.5711 6.95345 30.7821 9.87706C31.9931 12.8007 32.3099 16.0177 31.6926 19.1214C31.0752 22.2251 29.5513 25.0761 27.3137 27.3137C25.0761 29.5513 22.2251 31.0752 19.1214 31.6926C16.0177 32.3099 12.8007 31.9931 9.87706 30.7821C6.95345 29.5711 4.45459 27.5203 2.69649 24.8891C0.938384 22.2579 0 19.1645 0 16C0 11.7565 1.68571 7.68687 4.68629 4.68629C7.68687 1.68571 11.7565 0 16 0" fill="white"/>
<path d="M15.1106 12.7822H16.4084C16.7188 12.7554 17.0298 12.8269 17.2973 12.9866C17.3906 13.0639 17.4643 13.1621 17.5122 13.2734C17.5601 13.3847 17.5809 13.5058 17.5728 13.6266C17.5816 13.7515 17.5613 13.8767 17.5135 13.9924C17.4657 14.1081 17.3917 14.2111 17.2973 14.2933C17.0726 14.4614 16.7951 14.5434 16.5151 14.5244H15.1106V12.7822ZM15.1106 10.6666H16.3551C16.6106 10.6489 16.8653 10.711 17.084 10.8444C17.1663 10.9133 17.231 11.0009 17.2728 11.0998C17.3145 11.1988 17.332 11.3062 17.324 11.4133C17.331 11.525 17.3122 11.6369 17.269 11.7401C17.2259 11.8434 17.1595 11.9354 17.0751 12.0089C16.843 12.15 16.5726 12.2152 16.3017 12.1955H15.1106V10.6666ZM16.5506 15.1111C16.994 15.1386 17.4316 14.999 17.7773 14.72C17.9282 14.5838 18.047 14.416 18.1254 14.2285C18.2038 14.041 18.2397 13.8385 18.2306 13.6355C18.2412 13.3483 18.1534 13.0661 17.9817 12.8355C17.7921 12.6191 17.5295 12.4799 17.244 12.4444C17.4595 12.3616 17.6452 12.2161 17.7773 12.0266C17.8993 11.8294 17.9611 11.6008 17.9551 11.3689C17.9642 11.2004 17.9335 11.0322 17.8655 10.8778C17.7976 10.7233 17.6943 10.5871 17.564 10.48C17.2206 10.2516 16.8106 10.1452 16.3995 10.1778H14.3906V15.1111H16.5506Z" fill="#58595B"/>
<path d="M13.5199 12.7823H12.2221C11.9117 12.7554 11.6007 12.827 11.3332 12.9867C11.2409 13.0644 11.1686 13.163 11.1222 13.2743C11.0758 13.3857 11.0567 13.5065 11.0666 13.6267C11.058 13.7507 11.0776 13.8751 11.1238 13.9905C11.1699 14.1059 11.2415 14.2095 11.3332 14.2934C11.558 14.4615 11.8355 14.5435 12.1155 14.5245H13.4932L13.5199 12.7823ZM13.5199 10.7023H12.2755C12.02 10.6845 11.7652 10.7467 11.5466 10.88C11.4642 10.949 11.3995 11.0365 11.3578 11.1355C11.316 11.2344 11.2985 11.3419 11.3066 11.4489C11.2996 11.5606 11.3183 11.6725 11.3615 11.7758C11.4047 11.879 11.471 11.971 11.5555 12.0445C11.7876 12.1856 12.0579 12.2508 12.3288 12.2312H13.5199V10.7023ZM12.0799 15.1467C11.6312 15.1715 11.1897 15.0254 10.8444 14.7378C10.6935 14.6017 10.5746 14.4338 10.4962 14.2464C10.4179 14.0589 10.3819 13.8564 10.391 13.6534C10.3793 13.3646 10.4707 13.081 10.6488 12.8534C10.824 12.6346 11.0743 12.4889 11.351 12.4445C11.1314 12.3647 10.942 12.2187 10.8088 12.0267C10.6868 11.8294 10.625 11.6008 10.631 11.3689C10.6233 11.2007 10.6546 11.0329 10.7225 10.8787C10.7903 10.7245 10.8929 10.5881 11.0221 10.48C11.366 10.2529 11.7757 10.1466 12.1866 10.1778H14.2221V15.1112L12.0799 15.1467Z" fill="#A7A9AC"/>
<path d="M21.6357 15.1112V14.9689C21.5608 14.929 21.5037 14.8624 21.4757 14.7823C21.4353 14.6555 21.4114 14.524 21.4046 14.3912L21.3335 13.5823C21.3343 13.3543 21.2826 13.1292 21.1824 12.9245C21.079 12.789 20.931 12.6945 20.7646 12.6578C20.9778 12.5615 21.1573 12.4036 21.2801 12.2045C21.4001 11.9937 21.4586 11.7535 21.449 11.5112C21.4549 11.2617 21.4 11.0146 21.289 10.7912C21.1766 10.5898 21.0104 10.4236 20.809 10.3112C20.6859 10.2389 20.5501 10.1906 20.409 10.1689C20.1783 10.1509 19.9464 10.1509 19.7157 10.1689H18.249V10.7556H19.6179C19.925 10.7309 20.2329 10.7925 20.5068 10.9334C20.593 11.0128 20.6596 11.1111 20.7012 11.2206C20.7429 11.3302 20.7585 11.4479 20.7468 11.5645C20.7614 11.6895 20.7455 11.8162 20.7007 11.9338C20.6558 12.0515 20.5832 12.1565 20.489 12.24C20.2215 12.3998 19.9105 12.4713 19.6001 12.4445H18.249V13.0223H19.5557C19.8603 12.9893 20.168 13.0416 20.4446 13.1734C20.5212 13.2621 20.5794 13.3652 20.6161 13.4765C20.6527 13.5879 20.6669 13.7054 20.6579 13.8223V14.4712C20.6594 14.7027 20.7047 14.9319 20.7912 15.1467L21.6357 15.1112Z" fill="#231F20"/>
<path d="M23.1906 18.6667H23.7329V18.5689H23.3062V17.7778H23.1906V18.6667ZM22.3018 18.6667H22.4173L22.5151 18.4178H22.844L22.9329 18.6667H23.1106L22.7551 17.7778H22.6218L22.3018 18.6667ZM22.5506 18.32L22.684 17.9467L22.8173 18.32H22.5506ZM21.4929 18.6667H21.6084V17.9822L22.0351 18.6667H22.1684V17.7778H22.0529V18.4622L21.6351 17.7778H21.4929V18.6667ZM20.924 18.5956C20.8805 18.598 20.8371 18.5905 20.7971 18.5736C20.757 18.5566 20.7213 18.5307 20.6929 18.4978C20.6467 18.4263 20.622 18.343 20.6218 18.2578C20.6177 18.2096 20.6234 18.1612 20.6387 18.1153C20.654 18.0695 20.6785 18.0272 20.7106 17.9911C20.7673 17.9347 20.844 17.903 20.924 17.903C21.004 17.903 21.0807 17.9347 21.1373 17.9911C21.1925 18.0586 21.221 18.144 21.2173 18.2311C21.2183 18.3192 21.1936 18.4057 21.1462 18.48C21.1242 18.5186 21.0915 18.55 21.0521 18.5705C21.0127 18.591 20.9682 18.5997 20.924 18.5956ZM20.924 17.7956C20.8613 17.7916 20.7986 17.8043 20.7424 17.8324C20.6862 17.8605 20.6384 17.903 20.604 17.9556C20.5419 18.0404 20.5105 18.1439 20.5151 18.2489C20.5131 18.3632 20.5474 18.4752 20.6129 18.5689C20.6533 18.61 20.7019 18.6423 20.7554 18.6637C20.8089 18.6851 20.8663 18.6952 20.924 18.6934C20.9859 18.6983 21.048 18.687 21.1041 18.6604C21.1603 18.6339 21.2085 18.5932 21.244 18.5422C21.314 18.4543 21.3489 18.3434 21.3418 18.2311C21.3452 18.1275 21.3173 18.0253 21.2618 17.9378C21.2214 17.8883 21.1694 17.8495 21.1106 17.8247C21.0517 17.7999 20.9876 17.7899 20.924 17.7956ZM20.2306 18.6845H20.3462V17.7778H20.2306V18.6845ZM19.3418 18.4089C19.339 18.4495 19.3446 18.4902 19.3584 18.5284C19.3722 18.5667 19.3938 18.6017 19.4218 18.6311C19.492 18.6877 19.5806 18.7162 19.6706 18.7111C19.7522 18.7139 19.8327 18.6922 19.9018 18.6489C19.9342 18.6282 19.9604 18.599 19.9776 18.5646C19.9948 18.5302 20.0024 18.4917 19.9995 18.4534C20.0013 18.4195 19.9949 18.3857 19.981 18.3548C19.9671 18.3239 19.946 18.2967 19.9195 18.2756L19.7951 18.2222H19.6795L19.5551 18.0978C19.5373 18.0889 19.5227 18.0747 19.5131 18.0573C19.5036 18.0398 19.4996 18.0198 19.5018 18C19.4902 17.9685 19.4902 17.9338 19.5018 17.9022C19.5419 17.8701 19.5927 17.8542 19.644 17.8578C19.6757 17.8557 19.7075 17.861 19.7368 17.8734C19.7662 17.8857 19.7922 17.9047 19.8129 17.9289C19.8232 17.9637 19.8232 18.0008 19.8129 18.0356H19.9195C19.925 17.9966 19.9196 17.9569 19.9039 17.9208C19.8882 17.8847 19.8629 17.8537 19.8306 17.8311C19.7664 17.7837 19.6883 17.7587 19.6084 17.76C19.5692 17.7574 19.5299 17.7631 19.4931 17.7769C19.4563 17.7907 19.4229 17.8123 19.3951 17.84C19.3684 17.863 19.3474 17.8918 19.3335 17.9241C19.3196 17.9565 19.3133 17.9915 19.3151 18.0267C19.3131 18.0581 19.3194 18.0894 19.3335 18.1175C19.3476 18.1456 19.3688 18.1695 19.3951 18.1867L19.5462 18.24H19.6618C19.7107 18.2432 19.7574 18.2619 19.7951 18.2934C19.8105 18.3043 19.8227 18.3191 19.8305 18.3362C19.8383 18.3534 19.8414 18.3724 19.8395 18.3911C19.8395 18.4534 19.8395 18.4889 19.7329 18.5156H19.6262C19.5895 18.5204 19.5521 18.5155 19.5178 18.5015C19.4835 18.4875 19.4535 18.4647 19.4306 18.4356C19.4205 18.3947 19.4205 18.352 19.4306 18.3111L19.3418 18.4089ZM18.4529 18.6845H18.5684L18.6573 18.4356H18.9951L19.084 18.6845H19.2084L18.9418 17.7778H18.8173L18.4529 18.6845ZM18.6929 18.3378L18.8351 17.9645L18.9595 18.3378H18.6929ZM17.6884 18.6667H17.7773V17.9822L18.2129 18.6667H18.3373V17.7778H18.2306V18.4622L17.8218 17.7778H17.6884V18.6667ZM16.4529 18.6667H16.5684V17.9822L16.9951 18.6667H17.1284V17.7778H17.0129V18.4622L16.5951 17.7778H16.4529V18.6667ZM15.564 18.6667H15.6795L15.7684 18.4178H16.1062L16.1951 18.6667H16.3195L15.9995 17.7778H15.8751L15.564 18.6667ZM15.804 18.32L15.9373 17.9467L16.0706 18.32H15.804ZM14.7729 18.6667H14.8884V18.3022H15.1106H15.2084C15.2293 18.3129 15.2464 18.3297 15.2575 18.3503C15.2686 18.371 15.2732 18.3945 15.2706 18.4178V18.6222H15.4129C15.4068 18.605 15.4068 18.5862 15.4129 18.5689C15.4111 18.5452 15.4111 18.5215 15.4129 18.4978V18.3822C15.419 18.347 15.419 18.3109 15.4129 18.2756L15.3329 18.2222C15.3678 18.206 15.3983 18.1816 15.4218 18.1511C15.432 18.1073 15.432 18.0617 15.4218 18.0178C15.4246 17.9762 15.414 17.9348 15.3916 17.8996C15.3692 17.8644 15.3362 17.8373 15.2973 17.8222C15.2475 17.8114 15.196 17.8114 15.1462 17.8222H14.7551L14.7729 18.6667ZM14.8884 18.2045V17.92H15.164C15.1927 17.9099 15.2241 17.9099 15.2529 17.92C15.2973 17.92 15.3151 17.9822 15.3151 18.0445C15.3184 18.0659 15.3161 18.0879 15.3083 18.1082C15.3005 18.1284 15.2875 18.1463 15.2706 18.16C15.2299 18.1714 15.1869 18.1714 15.1462 18.16L14.8884 18.2045ZM13.8751 18.6667H13.9906L14.0884 18.4178H14.4173L14.5062 18.6667H14.6306L14.3284 17.7778H14.2218L13.8751 18.6667ZM14.1151 18.32L14.2573 17.9467L14.3818 18.32H14.1151ZM13.4751 18.32V18.6667H13.5906V18.3289L13.9106 17.8222H13.7773L13.5284 18.2311L13.3329 17.7778H13.1551L13.4751 18.32ZM12.444 18.6667H12.5684L12.6573 18.4178H12.9951L13.084 18.6667H13.2084L12.8706 17.7778H12.7373L12.444 18.6667ZM12.6929 18.32L12.8262 17.9467L12.9595 18.32H12.6929ZM11.804 18.6667H12.3462V18.5689H11.9195V17.7778H11.804V18.6667ZM10.9951 18.6667H11.6262V18.5689H11.1106V18.2845H11.5551V18.1778H11.0929V17.92H11.5995V17.7778H10.9773L10.9951 18.6667ZM10.7018 18.0622C10.7041 18.0845 10.7004 18.107 10.691 18.1274C10.6816 18.1477 10.6669 18.1651 10.6484 18.1778C10.6083 18.1928 10.5641 18.1928 10.524 18.1778H10.3106V17.8845H10.5329C10.5677 17.8746 10.6047 17.8746 10.6395 17.8845C10.6628 17.8954 10.6821 17.9132 10.6948 17.9354C10.7075 17.9577 10.7131 17.9834 10.7106 18.0089M10.1951 18.6134H10.3106V18.2578H10.5684C10.6042 18.2602 10.64 18.2551 10.6737 18.2429C10.7074 18.2306 10.7381 18.2115 10.764 18.1867C10.8026 18.1353 10.8243 18.0732 10.8262 18.0089C10.8277 17.9759 10.8222 17.943 10.8099 17.9123C10.7977 17.8816 10.779 17.854 10.7551 17.8311C10.7298 17.8086 10.7003 17.7915 10.6682 17.7808C10.6361 17.7701 10.6021 17.7661 10.5684 17.7689H10.1951V18.6134ZM9.03065 17.7778V17.8756H9.31509V18.6667H9.43065V17.92H9.71509V17.7778H9.03065ZM8.81731 18.0178C8.81965 18.0401 8.81592 18.0626 8.80654 18.0829C8.79715 18.1033 8.78245 18.1207 8.76398 18.1334C8.72385 18.1484 8.67966 18.1484 8.63954 18.1334H8.40842V17.84H8.63954C8.6744 17.8301 8.71133 17.8301 8.7462 17.84C8.76944 17.8509 8.78874 17.8687 8.80147 17.891C8.8142 17.9133 8.81974 17.9389 8.81731 17.9645M8.30176 18.6667H8.40842V18.3111H8.67509C8.71084 18.3135 8.74669 18.3084 8.78036 18.2962C8.81403 18.2839 8.84478 18.2648 8.87065 18.24C8.90926 18.1886 8.931 18.1265 8.93287 18.0622C8.93441 18.0293 8.92886 17.9963 8.91659 17.9656C8.90432 17.935 8.88563 17.9073 8.86176 17.8845C8.84059 17.8539 8.81284 17.8284 8.78054 17.8099C8.74823 17.7915 8.7122 17.7805 8.67509 17.7778H8.30176V18.6667Z" fill="#58595B"/>
<path d="M27.4042 19.0133H4.63086V19.0933H27.4042V19.0133Z" fill="#231F20"/>
<path d="M27.4042 21.7955H4.63086V21.8755H27.4042V21.7955Z" fill="#231F20"/>
<path d="M26.3018 21.1822V20.7911L26.4973 20.6044L26.8173 21.1822H27.0307L26.6662 20.4444L27.084 20.0444H26.844L26.3462 20.5333V19.6444H26.1596V21.1644L26.3018 21.1822ZM25.0485 21.1822V21.04C25.0905 21.0964 25.1453 21.1421 25.2085 21.1733C25.2759 21.1874 25.3455 21.1874 25.4129 21.1733C25.4786 21.1779 25.5444 21.1665 25.6047 21.1402C25.6651 21.1139 25.7182 21.0734 25.7596 21.0222C25.8548 20.8936 25.9062 20.7378 25.9062 20.5777C25.9062 20.4177 25.8548 20.2619 25.7596 20.1333C25.7182 20.0815 25.6653 20.0401 25.6051 20.0123C25.545 19.9846 25.4791 19.9712 25.4129 19.9733C25.3419 19.9688 25.2711 19.9842 25.2085 20.0177C25.1453 20.0527 25.0906 20.1013 25.0485 20.16V19.5911H24.8885V21.1111L25.0485 21.1822ZM25.1285 20.2933C25.1578 20.2562 25.1959 20.2271 25.2394 20.2084C25.2828 20.1898 25.3303 20.1823 25.3773 20.1866C25.4234 20.1869 25.4688 20.1974 25.5103 20.2174C25.5518 20.2374 25.5884 20.2663 25.6173 20.3022C25.675 20.3986 25.7029 20.5099 25.6973 20.6222C25.7065 20.7305 25.6747 20.8383 25.6084 20.9244C25.58 20.9602 25.5433 20.9885 25.5015 21.0071C25.4597 21.0257 25.4141 21.0339 25.3685 21.0311C25.3221 21.0329 25.2759 21.0233 25.2341 21.0031C25.1923 20.983 25.156 20.9529 25.1285 20.9155C25.0693 20.823 25.0413 20.714 25.0485 20.6044C25.04 20.4947 25.0681 20.3853 25.1285 20.2933ZM24.2396 21.1822V19.8488H24.7107V19.6622H23.5551V19.8488H23.9996V21.1822H24.2396ZM21.8218 21.1822L21.9818 20.7288H22.5773L22.7373 21.1822H22.9596L22.3996 19.6622H22.1685L21.6084 21.1822H21.8218ZM22.284 19.8844L22.5151 20.5511H22.044L22.284 19.8844ZM21.2173 20.56L21.7596 19.6711H21.5107L21.1107 20.3911L20.7018 19.6711H20.444L21.0129 20.56V21.1733H21.2173V20.56ZM19.4396 21.1822L19.5996 20.7288H20.1951L20.3551 21.1822H20.5773L20.0173 19.6622H19.7862L19.2262 21.1822H19.4396ZM19.9018 19.8844L20.1329 20.5511H19.6618L19.9018 19.8844ZM17.9907 21.1822H18.1951V20.5333H18.5329C18.6751 20.5333 18.764 20.5333 18.7996 20.5333C18.8464 20.5876 18.8717 20.6572 18.8707 20.7288V20.9244C18.8697 20.995 18.8849 21.065 18.9151 21.1288H19.1462C19.1408 21.1115 19.1408 21.0929 19.1462 21.0755C19.1435 21.0341 19.1435 20.9925 19.1462 20.9511V20.7022C19.1521 20.634 19.1366 20.5656 19.1018 20.5066C19.0881 20.4842 19.07 20.4648 19.0486 20.4495C19.0272 20.4342 19.003 20.4234 18.9773 20.4177C19.0434 20.3912 19.0994 20.3446 19.1373 20.2844C19.1747 20.2197 19.1932 20.1458 19.1907 20.0711C19.1918 19.9965 19.1735 19.923 19.1373 19.8577C19.1044 19.7955 19.0553 19.7433 18.9951 19.7066C18.9541 19.6977 18.9117 19.6977 18.8707 19.7066H18.6573H18.0707L17.9907 21.1822ZM18.5418 19.84C18.6369 19.8309 18.7325 19.8494 18.8173 19.8933C18.8447 19.9176 18.8662 19.9479 18.88 19.9818C18.8939 20.0157 18.8998 20.0523 18.8973 20.0888C18.9012 20.1268 18.896 20.1652 18.8821 20.2007C18.8682 20.2363 18.846 20.268 18.8173 20.2933C18.735 20.3441 18.638 20.366 18.5418 20.3555H18.1951V19.84H18.5418ZM16.1151 21.1822L16.2751 20.7288H16.8885L17.0485 21.1822H17.2707L16.7018 19.6622H16.4796L15.9107 21.1822H16.1151ZM16.5773 19.8844L16.8173 20.5511H16.3551L16.5773 19.8844ZM14.7551 21.1822V19.9466V20.0088V20.0622L15.484 21.1822H15.7062V19.6622H15.5107V20.8888V20.8355L15.4662 20.7644L14.7551 19.6622H14.5329V21.1822H14.7551ZM13.2618 21.1822L13.4218 20.7288H14.0262L14.1862 21.1822H14.4085L13.8396 19.6622H13.6173L13.0485 21.1822H13.2618ZM13.724 19.8844L13.964 20.5511H13.4929L13.724 19.8844ZM11.8929 21.0666C11.9489 21.1211 12.0161 21.1627 12.0897 21.1888C12.1633 21.2149 12.2418 21.2248 12.3196 21.2177C12.4032 21.2293 12.4884 21.2214 12.5685 21.1948C12.6486 21.1682 12.7216 21.1235 12.7817 21.0643C12.8418 21.005 12.8875 20.9327 12.9153 20.853C12.943 20.7732 12.9521 20.6882 12.9418 20.6044V19.6622H12.7373V20.6044C12.7463 20.7169 12.7112 20.8284 12.6396 20.9155C12.6013 20.9534 12.5552 20.9826 12.5046 21.001C12.4539 21.0194 12.3999 21.0266 12.3462 21.0222C12.2933 21.0262 12.2401 21.0196 12.1897 21.0028C12.1394 20.986 12.0929 20.9593 12.0529 20.9244C11.9854 20.8321 11.9538 20.7183 11.964 20.6044V19.6622H11.7507V20.6044C11.7419 20.7705 11.7923 20.9342 11.8929 21.0666ZM10.5773 20.4444H10.9685C11.0589 20.4359 11.1496 20.4578 11.2262 20.5066C11.2551 20.5282 11.2782 20.5565 11.2937 20.589C11.3092 20.6215 11.3165 20.6573 11.3151 20.6933C11.3187 20.7321 11.3125 20.7712 11.297 20.8069C11.2814 20.8427 11.2571 20.8739 11.2262 20.8977C11.1599 20.9477 11.0781 20.9729 10.9951 20.9688H10.5773V20.4444ZM10.5773 19.8133H10.9507C11.0285 19.8074 11.1062 19.826 11.1729 19.8666C11.1971 19.8873 11.2161 19.9133 11.2284 19.9427C11.2408 19.972 11.2461 20.0038 11.244 20.0355C11.2462 20.0686 11.2409 20.1017 11.2286 20.1324C11.2163 20.1632 11.1972 20.1908 11.1729 20.2133C11.1026 20.2614 11.0177 20.2835 10.9329 20.2755H10.5773V19.8133ZM11.0129 21.1555C11.1482 21.1598 11.2806 21.1156 11.3862 21.0311C11.4308 20.989 11.4657 20.9379 11.4887 20.8811C11.5117 20.8244 11.5222 20.7634 11.5196 20.7022C11.5206 20.6141 11.4958 20.5276 11.4485 20.4533C11.3926 20.3915 11.3173 20.3508 11.2351 20.3377C11.3012 20.3112 11.3572 20.2646 11.3951 20.2044C11.4325 20.1462 11.4511 20.0779 11.4485 20.0088C11.4539 19.9569 11.4461 19.9044 11.4259 19.8563C11.4057 19.8081 11.3737 19.7658 11.3329 19.7333C11.2285 19.6621 11.1034 19.6277 10.9773 19.6355H10.364V21.1555H11.0129ZM8.48845 21.1555L8.65734 20.7022H9.25289L9.4129 21.1555H9.63512L9.06623 19.6355H8.88845L8.31956 21.1555H8.48845ZM8.95956 19.8577L9.19067 20.5244H8.71956L8.95956 19.8577ZM7.11067 21.1822V19.9466V20.0088V20.0622L7.83067 21.1822H8.0529V19.6622H7.92845V20.8888V20.8355C7.91691 20.8099 7.90196 20.786 7.88401 20.7644L7.18178 19.6622H6.92401V21.1822H7.11067ZM6.58623 19.6622H6.39067V21.1822H6.59512L6.58623 19.6622ZM5.19956 20.4444H5.59067C5.68394 20.4359 5.77745 20.4577 5.85734 20.5066C5.88455 20.5291 5.906 20.5578 5.91991 20.5903C5.93382 20.6227 5.9398 20.6581 5.93734 20.6933C5.93988 20.7312 5.93402 20.7691 5.92019 20.8045C5.90636 20.8398 5.8849 20.8716 5.85734 20.8977C5.78824 20.949 5.70323 20.9742 5.61734 20.9688H5.19956V20.4444ZM5.19956 19.8133H5.5729C5.65082 19.8061 5.72893 19.8249 5.79512 19.8666C5.82119 19.8857 5.84158 19.9114 5.85411 19.9412C5.86664 19.971 5.87083 20.0036 5.86623 20.0355C5.87061 20.0688 5.86637 20.1026 5.85392 20.1337C5.84147 20.1648 5.82122 20.1922 5.79512 20.2133C5.72485 20.2614 5.63993 20.2835 5.55512 20.2755H5.19956V19.8133ZM5.63512 21.1555C5.77075 21.1622 5.90398 21.1178 6.00845 21.0311C6.05413 20.9895 6.09043 20.9386 6.11495 20.8819C6.13947 20.8252 6.15165 20.7639 6.15067 20.7022C6.15468 20.6096 6.1264 20.5185 6.07067 20.4444C6.01485 20.3826 5.93956 20.3419 5.85734 20.3288C5.92339 20.3024 5.97938 20.2557 6.01734 20.1955C6.05472 20.1373 6.07333 20.0691 6.07067 20C6.07608 19.948 6.06834 19.8955 6.04814 19.8474C6.02795 19.7992 5.99596 19.7569 5.95512 19.7244C5.85074 19.6532 5.72565 19.6188 5.59956 19.6266H4.99512V21.1466L5.63512 21.1555Z" fill="#231F20"/>
</g>
<defs>
<clipPath id="clip0_2707_369768">
<rect width="32" height="32" fill="white"/>
</clipPath>
</defs>
</svg>
