<svg width="33" height="32" viewBox="0 0 33 32" fill="none" xmlns="http://www.w3.org/2000/svg">
<g clip-path="url(#clip0_2707_369428)">
<path d="M15.9998 31.9823C24.8265 31.9823 31.982 24.8268 31.982 16C31.982 7.17331 24.8265 0.0178223 15.9998 0.0178223C7.17306 0.0178223 0.0175781 7.17331 0.0175781 16C0.0175781 24.8268 7.17306 31.9823 15.9998 31.9823Z" fill="white"/>
<path fill-rule="evenodd" clip-rule="evenodd" d="M3.2002 17.7778H4.38242V15.289C4.41474 15.3199 4.44177 15.3559 4.46242 15.3956L5.15575 17.1734C5.41353 17.8401 5.15575 17.7601 6.04464 17.7601C6.17281 17.7401 6.2956 17.6944 6.4056 17.6256C6.51559 17.5569 6.61052 17.4665 6.68464 17.3601C7.11131 16.889 7.30686 15.6445 7.74242 15.1112V17.7778H8.88908V14.0978C6.66686 14.0978 6.92464 14.0356 6.28464 15.6623L6.15131 16.0001L6.04464 16.2756C6.03181 16.308 6.0138 16.338 5.99131 16.3645L5.52908 14.9334C5.15575 13.8845 4.28464 14.089 3.2002 14.089V17.7778ZM13.8669 15.7867C13.8408 16.0437 13.871 16.3032 13.9555 16.5473C14.0399 16.7914 14.1765 17.0141 14.3558 17.2001C14.6369 17.4935 15.0044 17.6897 15.4046 17.7601C15.6802 17.8134 18.1158 17.7601 18.6046 17.7601C18.2954 17.4063 17.9628 17.0737 17.6091 16.7645C17.4846 16.7645 17.1024 16.7645 16.9513 16.7645C16.5242 16.8062 16.0934 16.7883 15.6713 16.7112C15.5186 16.6394 15.3895 16.5256 15.299 16.3832C15.2086 16.2407 15.1606 16.0755 15.1606 15.9067C15.1606 15.738 15.2086 15.5727 15.299 15.4303C15.3895 15.2878 15.5186 15.1741 15.6713 15.1023C16.0914 15.0649 16.514 15.0679 16.9335 15.1112C17.7513 15.1112 17.5913 15.1112 17.9291 14.7823C18.098 14.6134 18.4535 14.2845 18.5869 14.1156H15.3691C14.9658 14.192 14.5988 14.3986 14.3242 14.7037C14.0497 15.0088 13.8828 15.3955 13.8491 15.8045L13.8669 15.7867ZM9.1202 17.7778H10.258V15.289C10.818 15.6978 11.4135 17.7956 12.578 17.7956H13.618V14.0978H12.4446V16.6134L12.3202 16.4534L12.2046 16.2756C12.1246 16.1601 12.0713 16.0712 11.9824 15.929C11.8935 15.7867 11.6891 15.4845 11.538 15.2445C11.3869 15.0045 11.3958 15.0134 11.3158 14.8978C10.6313 13.9112 10.4802 14.0978 9.08464 14.0978L9.1202 17.7778Z" fill="url(#paint0_linear_2707_369428)"/>
<path fill-rule="evenodd" clip-rule="evenodd" d="M27.0488 13.0668L28.9777 14.9601C29.0831 15.065 29.1667 15.1896 29.2237 15.3269C29.2807 15.4642 29.3101 15.6114 29.3101 15.7601C29.3101 15.9087 29.2807 16.056 29.2237 16.1932C29.1667 16.3305 29.0831 16.4552 28.9777 16.5601L26.1777 19.4312C26.2716 19.2339 26.3015 19.0122 26.2632 18.797C26.225 18.5819 26.1205 18.3841 25.9644 18.2312L23.4844 15.8045L25.9377 13.3334C26.0779 13.1872 26.2572 13.0844 26.4542 13.0371C26.6511 12.9899 26.8575 13.0001 27.0488 13.0668Z" fill="url(#paint1_linear_2707_369428)"/>
<path fill-rule="evenodd" clip-rule="evenodd" d="M26.1958 19.4312L24.2758 21.3956C24.0613 21.6068 23.7724 21.7252 23.4714 21.7252C23.1704 21.7252 22.8815 21.6068 22.667 21.3956L19.627 18.4267C19.8316 18.5831 20.0863 18.6595 20.3432 18.6415C20.6001 18.6235 20.8417 18.5124 21.0225 18.329L23.5025 15.7867L25.9825 18.2134C26.1425 18.3676 26.2493 18.5687 26.2877 18.7875C26.326 19.0064 26.2939 19.2318 26.1958 19.4312Z" fill="url(#paint2_linear_2707_369428)"/>
<path fill-rule="evenodd" clip-rule="evenodd" d="M19.6268 18.4444L17.8491 16.7378C17.6379 16.5233 17.5195 16.2343 17.5195 15.9333C17.5195 15.6323 17.6379 15.3434 17.8491 15.1289L20.7824 12.1422C20.6906 12.3385 20.6618 12.5583 20.7 12.7716C20.7382 12.9849 20.8415 13.1811 20.9957 13.3333L23.5024 15.7778L21.0224 18.32C20.845 18.5074 20.6052 18.6235 20.3482 18.6464C20.0911 18.6693 19.8346 18.5975 19.6268 18.4444Z" fill="url(#paint3_linear_2707_369428)"/>
<path fill-rule="evenodd" clip-rule="evenodd" d="M24.1955 10.2845L27.0488 13.0667C26.8592 12.9979 26.6538 12.9848 26.4569 13.0289C26.26 13.073 26.0799 13.1725 25.9377 13.3156L23.5021 15.8045L20.9955 13.3334C20.8384 13.1771 20.7349 12.975 20.6998 12.7563C20.6647 12.5375 20.6997 12.3132 20.7999 12.1156L22.5777 10.2756C22.6841 10.1692 22.8105 10.085 22.9497 10.0278C23.0889 9.9706 23.238 9.94157 23.3884 9.9424C23.5389 9.94323 23.6877 9.97389 23.8262 10.0326C23.9648 10.0913 24.0903 10.1769 24.1955 10.2845Z" fill="url(#paint4_linear_2707_369428)"/>
<path fill-rule="evenodd" clip-rule="evenodd" d="M25.6351 13.6001C25.9324 13.8876 26.1696 14.2313 26.3329 14.6112C26.4962 14.9912 26.5823 15.3999 26.5862 15.8134C26.5949 16.4378 26.4182 17.0508 26.0784 17.5747C25.7387 18.0986 25.251 18.51 24.6774 18.7566C24.1037 19.0033 23.4697 19.0742 22.8557 18.9603C22.2417 18.8465 21.6753 18.553 21.2281 18.1171C20.781 17.6812 20.4733 17.1224 20.3439 16.5115C20.2145 15.9006 20.2693 15.265 20.5013 14.6852C20.7333 14.1055 21.1321 13.6076 21.6472 13.2546C22.1624 12.9016 22.7707 12.7094 23.3951 12.7023C23.8094 12.6957 24.2208 12.7717 24.6054 12.9258C24.99 13.08 25.34 13.3092 25.6351 13.6001ZM26.3729 15.8134C26.3589 15.0361 26.0396 14.2955 25.4841 13.7516C24.9286 13.2078 24.1814 12.9043 23.404 12.9067C22.6232 12.9174 21.8784 13.237 21.3329 13.7956C20.8326 14.3613 20.5689 15.0976 20.5964 15.8523C20.624 16.6069 20.9407 17.3221 21.4809 17.8497C22.0211 18.3774 22.7435 18.6771 23.4986 18.6869C24.2537 18.6967 24.9836 18.4158 25.5373 17.9023C26.0807 17.3436 26.3811 16.5927 26.3729 15.8134Z" fill="#FEFEFE"/>
<path fill-rule="evenodd" clip-rule="evenodd" d="M3.23535 19.5556V18.3111H3.88424V18.5867H3.55535V18.8H3.90202V19.0667H3.55535V19.5556H3.23535ZM4.05313 19.5556V18.3111H4.34646V19.5556H4.05313ZM4.57757 19.5556V18.3111H4.86202L5.26202 18.9511V19.0311C5.2903 19.0854 5.31408 19.1419 5.33313 19.2C5.329 19.1527 5.329 19.1051 5.33313 19.0578C5.32876 19.0224 5.32876 18.9866 5.33313 18.9511V18.3378H5.61757V19.5556H5.33313L4.93313 18.9156V18.8356C4.91243 18.7893 4.89462 18.7418 4.8798 18.6934C4.88393 18.7407 4.88393 18.7883 4.8798 18.8356C4.88417 18.871 4.88417 18.9068 4.8798 18.9422V19.5556H4.57757ZM6.13313 19.0934H6.41757L6.31091 18.6845C6.31091 18.6845 6.31091 18.6845 6.31091 18.6222V18.5156C6.31091 18.5156 6.31091 18.5689 6.31091 18.6045C6.31091 18.64 6.31091 18.6578 6.31091 18.6845L6.13313 19.0934ZM5.72424 19.5556L6.09757 18.3111H6.45313L6.82646 19.5556H6.53313L6.4798 19.3334H6.07091L6.01757 19.5556H5.72424ZM6.92424 19.5556V18.3111H7.20868L7.60868 18.9511V19.0311C7.62938 19.0774 7.64719 19.1249 7.66202 19.1734C7.66202 19.12 7.66202 19.0756 7.66202 19.0311C7.65765 18.9957 7.65765 18.9599 7.66202 18.9245V18.3111H7.9998V19.5556H7.68868L7.28868 18.9156V18.8356C7.26468 18.7897 7.24389 18.7421 7.22646 18.6934C7.23059 18.7407 7.23059 18.7883 7.22646 18.8356C7.23083 18.871 7.23083 18.9068 7.22646 18.9422V19.5556H6.92424ZM8.96868 18.3556V18.7289C8.94433 18.7054 8.91751 18.6845 8.88868 18.6667C8.84758 18.6588 8.80534 18.6588 8.76424 18.6667C8.72395 18.6659 8.6841 18.6752 8.64837 18.6939C8.61264 18.7125 8.58218 18.7398 8.5598 18.7734C8.50339 18.8471 8.47503 18.9384 8.4798 19.0311C8.47638 19.1209 8.5047 19.209 8.5598 19.28C8.5837 19.3113 8.6147 19.3365 8.65024 19.3535C8.68579 19.3705 8.72486 19.3788 8.76424 19.3778C8.80487 19.3897 8.84805 19.3897 8.88868 19.3778C8.93364 19.3463 8.97275 19.3072 9.00424 19.2622V19.5556L8.87091 19.6178H8.72868C8.67569 19.6263 8.62168 19.6263 8.56868 19.6178L8.3998 19.5556C8.31894 19.492 8.25486 19.4096 8.21313 19.3156C8.17284 19.2137 8.15174 19.1052 8.15091 18.9956C8.14203 18.884 8.15718 18.7719 8.19535 18.6667C8.2195 18.5887 8.25876 18.5162 8.31091 18.4534C8.35616 18.3965 8.41397 18.3508 8.4798 18.32C8.54981 18.3023 8.62312 18.3023 8.69313 18.32C8.74014 18.3113 8.78834 18.3113 8.83535 18.32C8.88154 18.3368 8.92616 18.3576 8.96868 18.3822V18.3556ZM9.14646 19.5556V18.3111H9.4398V19.5556H9.14646ZM9.95535 19.0934H10.2398L10.1331 18.6845C10.136 18.6638 10.136 18.6429 10.1331 18.6222V18.5156C10.1282 18.545 10.1282 18.575 10.1331 18.6045C10.129 18.631 10.129 18.658 10.1331 18.6845L9.95535 19.0934ZM9.54646 19.5556L9.91091 18.3111H10.2754L10.6665 19.5556H10.3731L10.3198 19.3334H9.91091L9.84868 19.5556H9.54646ZM10.7465 19.5556V18.3111H11.0398V19.2711H11.3954V19.5556H10.7465ZM12.0531 19.1556C12.0906 19.204 12.1356 19.246 12.1865 19.28C12.2032 19.2954 12.2228 19.3073 12.2442 19.3149C12.2655 19.3226 12.2882 19.3258 12.3109 19.3245C12.3423 19.3369 12.3773 19.3369 12.4087 19.3245C12.4171 19.2954 12.4171 19.2646 12.4087 19.2356C12.4165 19.2205 12.4205 19.2037 12.4205 19.1867C12.4205 19.1697 12.4165 19.1529 12.4087 19.1378C12.3676 19.1031 12.3189 19.0787 12.2665 19.0667C12.1824 19.0464 12.1055 19.0033 12.0442 18.9422C11.9942 18.8794 11.9689 18.8003 11.9731 18.72C11.9704 18.6123 12.0085 18.5075 12.0798 18.4267C12.1147 18.3918 12.1563 18.3643 12.2022 18.346C12.248 18.3276 12.2971 18.3188 12.3465 18.32C12.4024 18.3115 12.4594 18.3115 12.5154 18.32C12.5672 18.3379 12.6154 18.365 12.6576 18.4L12.5687 18.6489C12.5406 18.6171 12.5076 18.5901 12.4709 18.5689C12.4358 18.5609 12.3993 18.5609 12.3642 18.5689C12.3384 18.5594 12.3101 18.5594 12.2842 18.5689C12.2788 18.58 12.2759 18.5921 12.2759 18.6045C12.2759 18.6168 12.2788 18.629 12.2842 18.64C12.2739 18.6657 12.2739 18.6944 12.2842 18.72C12.3181 18.7466 12.3576 18.7648 12.3998 18.7734C12.4867 18.793 12.5667 18.836 12.6309 18.8978C12.6568 18.9333 12.6778 18.9722 12.6931 19.0134C12.6986 19.0606 12.6986 19.1083 12.6931 19.1556C12.6978 19.269 12.6597 19.38 12.5865 19.4667C12.5474 19.5071 12.5003 19.539 12.4483 19.5604C12.3963 19.5818 12.3405 19.5923 12.2842 19.5911C12.2138 19.5902 12.1443 19.5751 12.0798 19.5467C12.0118 19.5153 11.9534 19.4662 11.9109 19.4045L12.0531 19.1556ZM12.8709 19.5556V18.3111H13.5287V18.5867H13.1554V18.8H13.502V19.0667H13.1554V19.28H13.5287V19.5556H12.8709ZM13.7154 19.5556V18.3111H14.0265H14.2754C14.3174 18.3245 14.3566 18.3456 14.3909 18.3734C14.4331 18.408 14.464 18.4544 14.4798 18.5067C14.4931 18.5652 14.4931 18.626 14.4798 18.6845C14.4806 18.7657 14.4591 18.8457 14.4176 18.9156C14.3741 18.976 14.3114 19.0199 14.2398 19.04L14.5331 19.5378H14.222L13.9731 19.0489V19.5556H13.7154ZM13.9909 18.8978H14.0442C14.0904 18.9134 14.1403 18.9134 14.1865 18.8978C14.2016 18.8828 14.2134 18.8647 14.2211 18.8448C14.2287 18.8249 14.2321 18.8036 14.2309 18.7822C14.2338 18.7582 14.2311 18.7338 14.2232 18.711C14.2153 18.6881 14.2023 18.6673 14.1852 18.6502C14.168 18.6331 14.1473 18.6201 14.1244 18.6122C14.1015 18.6042 14.0772 18.6016 14.0531 18.6045H13.9909V18.8978ZM14.9776 19.5556L14.5331 18.3111H14.8442L15.0576 19.0045C15.0591 19.0222 15.0591 19.0401 15.0576 19.0578V19.1734C15.061 19.1409 15.061 19.1081 15.0576 19.0756C15.0597 19.0519 15.0597 19.0281 15.0576 19.0045L15.2709 18.3111H15.582L15.1998 19.5556H14.9776ZM15.742 19.5556V18.3111H15.9998V19.5556H15.742ZM17.0487 18.3556V18.7289C16.9994 18.6989 16.9453 18.6778 16.8887 18.6667C16.8477 18.6578 16.8052 18.6578 16.7642 18.6667C16.7239 18.6659 16.6841 18.6752 16.6484 18.6939C16.6126 18.7125 16.5822 18.7398 16.5598 18.7734C16.5034 18.8471 16.475 18.9384 16.4798 19.0311C16.4764 19.1209 16.5047 19.209 16.5598 19.28C16.5846 19.3103 16.6158 19.3348 16.6511 19.3517C16.6864 19.3686 16.7251 19.3775 16.7642 19.3778C16.8047 19.3907 16.8482 19.3907 16.8887 19.3778C16.9366 19.3468 16.9787 19.3077 17.0131 19.2622V19.5556L16.8709 19.6178H16.7287C16.6757 19.6263 16.6217 19.6263 16.5687 19.6178L16.4709 19.5556C16.39 19.4941 16.3283 19.4109 16.2931 19.3156C16.2479 19.2152 16.2266 19.1056 16.2309 18.9956C16.2167 18.9102 16.2167 18.8231 16.2309 18.7378C16.2551 18.6598 16.2943 18.5873 16.3465 18.5245C16.3947 18.467 16.4555 18.4213 16.5242 18.3911C16.5913 18.3738 16.6616 18.3738 16.7287 18.3911C16.7756 18.3818 16.824 18.3818 16.8709 18.3911L17.0487 18.3556ZM17.2087 19.5556V18.3111H17.8576V18.5867H17.4931V18.8H17.8398V19.0667H17.4931V19.28H17.8576V19.5556H17.2087ZM18.0976 19.1556C18.135 19.204 18.1801 19.246 18.2309 19.28C18.2651 19.3103 18.3097 19.3262 18.3554 19.3245C18.3868 19.3369 18.4217 19.3369 18.4531 19.3245C18.459 19.3104 18.462 19.2953 18.462 19.28C18.462 19.2648 18.459 19.2497 18.4531 19.2356C18.4609 19.2205 18.465 19.2037 18.465 19.1867C18.465 19.1697 18.4609 19.1529 18.4531 19.1378C18.4121 19.1031 18.3633 19.0787 18.3109 19.0667C18.2268 19.0464 18.1499 19.0033 18.0887 18.9422C18.0418 18.8781 18.0197 18.7992 18.0265 18.72C18.0203 18.6133 18.0553 18.5084 18.1242 18.4267C18.1591 18.3918 18.2008 18.3643 18.2466 18.346C18.2925 18.3276 18.3416 18.3188 18.3909 18.32C18.4468 18.3107 18.5039 18.3107 18.5598 18.32C18.6136 18.3396 18.6645 18.3665 18.7109 18.4L18.6131 18.6489C18.5872 18.615 18.5537 18.5876 18.5154 18.5689C18.4802 18.5609 18.4438 18.5609 18.4087 18.5689C18.3829 18.5594 18.3545 18.5594 18.3287 18.5689C18.3232 18.58 18.3203 18.5921 18.3203 18.6045C18.3203 18.6168 18.3232 18.629 18.3287 18.64C18.3183 18.6657 18.3183 18.6944 18.3287 18.72C18.3637 18.7446 18.4028 18.7627 18.4442 18.7734C18.5336 18.7935 18.6163 18.8364 18.6842 18.8978C18.7073 18.9337 18.7252 18.9726 18.7376 19.0134C18.7474 19.0603 18.7474 19.1087 18.7376 19.1556C18.7422 19.269 18.7042 19.38 18.6309 19.4667C18.5918 19.5071 18.5448 19.539 18.4928 19.5604C18.4408 19.5818 18.3849 19.5923 18.3287 19.5911C18.2582 19.5902 18.1887 19.5751 18.1242 19.5467C18.0577 19.5131 17.9998 19.4644 17.9554 19.4045L18.0976 19.1556Z" fill="url(#paint5_linear_2707_369428)"/>
<path fill-rule="evenodd" clip-rule="evenodd" d="M23.5105 12.8801C24.0889 12.8818 24.6538 13.0551 25.1337 13.3779C25.6137 13.7007 25.9871 14.1585 26.2068 14.6936C26.4265 15.2286 26.4827 15.8168 26.3681 16.3837C26.2535 16.9507 25.9734 17.4709 25.5632 17.8787C25.153 18.2864 24.631 18.5633 24.0634 18.6745C23.4958 18.7856 22.908 18.7259 22.3743 18.5029C21.8406 18.2799 21.385 17.9037 21.0651 17.4218C20.7452 16.9399 20.5754 16.374 20.5772 15.7956C20.5772 15.4112 20.6532 15.0307 20.8008 14.6758C20.9484 14.3209 21.1648 13.9987 21.4374 13.7277C21.71 13.4567 22.0335 13.2423 22.3893 13.0969C22.7451 12.9514 23.1261 12.8777 23.5105 12.8801Z" fill="url(#paint6_radial_2707_369428)"/>
</g>
<defs>
<linearGradient id="paint0_linear_2707_369428" x1="11.3672" y1="15.9839" x2="11.3317" y2="11.4594" gradientUnits="userSpaceOnUse">
<stop stop-color="#B08F36"/>
<stop offset="1" stop-color="#735432"/>
</linearGradient>
<linearGradient id="paint1_linear_2707_369428" x1="28.1554" y1="14.2808" x2="27.8964" y2="20.8713" gradientUnits="userSpaceOnUse">
<stop stop-color="#735B37"/>
<stop offset="0.4" stop-color="#D7B760"/>
<stop offset="0.5" stop-color="#D0B055"/>
<stop offset="0.6" stop-color="#B3933B"/>
<stop offset="1" stop-color="#836A36"/>
</linearGradient>
<linearGradient id="paint2_linear_2707_369428" x1="20.4165" y1="20.7729" x2="26.372" y2="20.7995" gradientUnits="userSpaceOnUse">
<stop stop-color="#816A3D"/>
<stop offset="0.4" stop-color="#D3B35C"/>
<stop offset="0.5" stop-color="#D9B95B"/>
<stop offset="1" stop-color="#6F5833"/>
</linearGradient>
<linearGradient id="paint3_linear_2707_369428" x1="19.4497" y1="11.0714" x2="19.2452" y2="16.7336" gradientUnits="userSpaceOnUse">
<stop stop-color="#997D36"/>
<stop offset="0.3" stop-color="#B7963C"/>
<stop offset="0.5" stop-color="#DDBC62"/>
<stop offset="1" stop-color="#6F5834"/>
</linearGradient>
<linearGradient id="paint4_linear_2707_369428" x1="18.4691" y1="12.4349" x2="24.7446" y2="12.6482" gradientUnits="userSpaceOnUse">
<stop stop-color="#7E6534"/>
<stop offset="0.3" stop-color="#B5963A"/>
<stop offset="0.5" stop-color="#E2C165"/>
<stop offset="0.8" stop-color="#B59650"/>
<stop offset="1" stop-color="#836A3C"/>
</linearGradient>
<linearGradient id="paint5_linear_2707_369428" x1="12.6286" y1="19.4627" x2="12.6288" y2="18.1916" gradientUnits="userSpaceOnUse">
<stop stop-color="#AC8B34"/>
<stop offset="1" stop-color="#826233"/>
</linearGradient>
<radialGradient id="paint6_radial_2707_369428" cx="0" cy="0" r="1" gradientUnits="userSpaceOnUse" gradientTransform="translate(23.3141 17.0978) rotate(14.6357) scale(2.88472)">
<stop stop-color="white"/>
<stop offset="1" stop-color="#B3B3B3" stop-opacity="0"/>
</radialGradient>
<clipPath id="clip0_2707_369428">
<rect width="32" height="32" fill="white"/>
</clipPath>
</defs>
</svg>
