<svg width="32" height="32" viewBox="0 0 32 32" fill="none" xmlns="http://www.w3.org/2000/svg">
<g clip-path="url(#clip0_2810_56161)">
<mask id="mask0_2810_56161" style="mask-type:luminance" maskUnits="userSpaceOnUse" x="0" y="0" width="32" height="32">
<path d="M31.9909 0.0177917H0.0175781V31.9911H31.9909V0.0177917Z" fill="white"/>
</mask>
<g mask="url(#mask0_2810_56161)">
<path d="M15.9998 31.9822C24.8265 31.9822 31.982 24.8268 31.982 16C31.982 7.17328 24.8265 0.0177917 15.9998 0.0177917C7.17306 0.0177917 0.0175781 7.17328 0.0175781 16C0.0175781 24.8268 7.17306 31.9822 15.9998 31.9822Z" fill="white"/>
<path d="M12.9775 21.3067C13.0575 21.3067 13.1286 21.2978 13.1997 21.2889C13.2086 21.0756 13.2175 20.8978 13.2264 20.7022H13.8308C13.9197 20.6133 14.0086 20.5156 14.0708 20.4533C14.0797 19.9111 13.9286 19.6978 13.5375 19.6711C13.3597 19.6533 13.173 19.6711 12.9864 19.6711V21.3156L12.9775 21.3067ZM12.7197 20.4267C12.7197 19.9289 12.5864 19.7156 12.2397 19.6711C12.0352 19.6444 11.8219 19.6356 11.6352 19.6889C11.6352 20.24 11.6352 20.7556 11.6352 21.2711C11.6352 21.28 11.653 21.2889 11.6708 21.3156C11.7241 21.3156 11.7864 21.2978 11.8486 21.2978C11.8575 21.0844 11.8664 20.9067 11.8841 20.7022H12.4975C12.5686 20.6133 12.6486 20.5244 12.7375 20.4267M19.5286 19.68V21.3156C19.6352 21.3067 19.7152 21.2889 19.8219 21.28V20.72C20.1064 20.6844 20.4352 20.7911 20.613 20.4444V19.9911C20.3286 19.6622 20.2841 19.6444 19.5286 19.68ZM21.9641 19.9733C21.6619 19.6444 21.3686 19.5822 20.8708 19.7156V21.2889H21.1641V20.7289C21.5315 20.6993 21.7952 20.6074 21.9552 20.4533V19.9733H21.9641ZM18.2308 21.3067C18.453 21.3067 18.6397 21.3156 18.8175 21.3067C19.2175 21.28 19.3775 20.9244 19.1641 20.56C19.1464 20.5244 19.1108 20.4978 19.0841 20.4533C19.2264 20.2667 19.2086 20.0622 19.1641 19.8489C18.8619 19.6178 18.5508 19.6356 18.2308 19.6978V21.3156V21.3067ZM10.3019 19.6533V21.2978H11.1019C11.173 21.2267 11.2352 21.1556 11.2975 21.1022C11.3419 20.8533 11.3597 20.6311 11.1552 20.4711C11.3241 20.3289 11.3419 20.1511 11.2886 19.9378C11.0486 19.5467 10.6664 19.68 10.3019 19.6533ZM16.3552 5.75111C17.0664 7.11111 17.7597 8.41778 18.5064 9.77778C18.5775 8.72889 18.5508 6.04445 18.4797 5.75111H16.3464H16.3552ZM13.3864 9.68889C13.3864 9.68889 13.4308 9.68889 13.4575 9.69778C14.1508 8.39111 14.8441 7.08445 15.5552 5.76889C15.1108 5.69778 13.6708 5.70667 13.3952 5.76889V9.68L13.3864 9.68889ZM12.6397 18.7644V13.1111C11.6797 14.9422 10.7375 16.7378 9.79525 18.5333C9.76858 18.5867 9.74191 18.6311 9.72414 18.6844C9.72414 18.6933 9.72414 18.7111 9.72414 18.7289C9.72414 18.7378 9.74191 18.7467 9.75969 18.7733H12.6397V18.7644ZM19.2619 13.0844V18.7467C19.973 18.8089 21.9108 18.7822 22.213 18.7022C21.2352 16.8356 20.2575 14.9867 19.2619 13.0756M19.2886 22.9956C19.2175 23.5022 19.2264 25.8311 19.2975 26.1511H25.8841C23.6441 25.0844 21.4752 24.0444 19.2886 22.9956ZM6.02636 26.1422H12.6397V22.9867C10.4264 24.0444 8.24858 25.0844 6.02636 26.1422ZM13.3864 22.5333C13.333 23.5644 13.3508 25.8044 13.413 26.1333H18.4441V22.5156C17.893 22.2133 17.3419 21.9022 16.7997 21.6V18.7644H18.5152V11.4933C17.6708 9.98222 16.8175 8.45334 15.9464 6.88889C15.7597 7.22667 15.5908 7.52 15.4308 7.81334C14.7819 8.99556 14.1419 10.1689 13.5019 11.3511C13.4308 11.4844 13.3775 11.6267 13.3775 11.7956C13.3775 14.0267 13.3775 16.2667 13.3775 18.4978C13.3775 18.5778 13.413 18.6578 13.4397 18.7644H15.0219V21.6267C14.4708 21.9289 13.9197 22.2311 13.3864 22.5333ZM19.2441 4.91556V11.1911C21.9997 16.4178 24.7552 21.6444 27.5375 26.9067C27.4575 26.9244 27.4041 26.9511 27.3419 26.9511C25.3064 26.9778 23.2708 27.0133 21.2352 27.0222C15.7686 27.04 10.293 27.04 4.82636 27.04C4.71969 27.04 4.61303 27.04 4.46191 27.04C4.55969 26.8267 4.6308 26.64 4.71969 26.4622C5.26191 25.4133 5.81303 24.3733 6.35525 23.3333C7.06636 21.9644 7.78636 20.6044 8.49747 19.2267C9.12858 18.0089 9.7508 16.7822 10.3819 15.5556C11.013 14.3378 11.6352 13.1022 12.293 11.9022C12.5597 11.4133 12.6575 10.9156 12.6486 10.3556C12.6219 8.70222 12.6397 7.04889 12.6397 5.39556C12.6397 5.23556 12.6397 5.07556 12.6486 4.91556H19.2441Z" fill="#3F4196"/>
<path d="M11.0756 21.0667C10.88 21.0933 10.7289 21.1111 10.6133 21.12C10.4711 20.9333 10.5244 20.7822 10.5244 20.6133H11.04C11.0489 20.7378 11.0578 20.8622 11.0756 21.0667Z" fill="#3F4196"/>
<path d="M10.5333 20.3378V19.9289C10.6577 19.9289 10.7822 19.9111 10.8977 19.9022C11.0755 20.0178 11.12 20.1511 10.9422 20.3289H10.5244L10.5333 20.3378Z" fill="#3F4196"/>
<path d="M19.0216 20.8534C18.8971 21.1378 18.7105 21.1467 18.4882 21.1111C18.426 20.96 18.4527 20.8 18.4616 20.6223H18.906C18.9416 20.6934 18.986 20.7911 19.0216 20.8623" fill="#3F4196"/>
<path d="M18.8885 20.3467H18.4707V19.9289H18.8085C18.9685 20.0267 18.9596 20.16 18.8885 20.3467Z" fill="#3F4196"/>
<path d="M21.1641 20.4889V19.9556C21.2796 19.8578 21.4307 19.9378 21.6085 19.9111C21.653 20.0267 21.6974 20.1511 21.733 20.2489C21.5907 20.5422 21.3952 20.5422 21.1641 20.4889Z" fill="#3F4196"/>
<path d="M19.8037 20.5511V19.9556C19.9282 19.8578 20.0704 19.9378 20.1948 19.92C20.3993 20.0178 20.3637 20.1956 20.3459 20.4178C20.1948 20.4533 20.0259 20.4978 19.8126 20.5511" fill="#3F4196"/>
<path d="M11.875 19.9289H12.3106C12.3639 20 12.435 20.0978 12.5239 20.2133C12.435 20.3289 12.3639 20.4267 12.3106 20.4978H11.875V19.9289Z" fill="#3F4196"/>
<path d="M13.2179 20.4978V19.9378H13.6712C13.7157 20.0089 13.7868 20.1067 13.8579 20.2222C13.7779 20.3289 13.7157 20.4178 13.6534 20.4978H13.209H13.2179Z" fill="#3F4196"/>
</g>
</g>
<defs>
<clipPath id="clip0_2810_56161">
<rect width="32" height="32" fill="white"/>
</clipPath>
</defs>
</svg>
