<svg width="32" height="32" viewBox="0 0 32 32" fill="none" xmlns="http://www.w3.org/2000/svg">
<g clip-path="url(#clip0_2810_56199)">
<mask id="mask0_2810_56199" style="mask-type:luminance" maskUnits="userSpaceOnUse" x="0" y="-1" width="32" height="33">
<path d="M32 -0.0800171H0V31.92H32V-0.0800171Z" fill="white"/>
</mask>
<g mask="url(#mask0_2810_56199)">
<path d="M16 31.92C24.8366 31.92 32 24.7565 32 15.92C32 7.08343 24.8366 -0.0800171 16 -0.0800171C7.16344 -0.0800171 0 7.08343 0 15.92C0 24.7565 7.16344 31.92 16 31.92Z" fill="white"/>
<mask id="mask1_2810_56199" style="mask-type:luminance" maskUnits="userSpaceOnUse" x="2" y="2" width="28" height="28">
<path d="M2.66699 15.92C2.66699 18.5571 3.44898 21.135 4.91406 23.3276C6.37915 25.5203 8.46153 27.2292 10.8979 28.2384C13.3342 29.2476 16.0151 29.5116 18.6015 28.9971C21.1879 28.4827 23.5637 27.2128 25.4284 25.3481C27.2931 23.4834 28.563 21.1076 29.0775 18.5212C29.5919 15.9348 29.3279 13.2539 28.3187 10.8176C27.3096 8.38121 25.6006 6.29883 23.4079 4.83374C21.2153 3.36866 18.6374 2.58667 16.0003 2.58667C12.4641 2.58667 9.07272 3.99143 6.57224 6.49191C4.07175 8.9924 2.66699 12.3838 2.66699 15.92Z" fill="white"/>
</mask>
<g mask="url(#mask1_2810_56199)">
<path d="M29.3337 15.92C29.3337 18.5571 28.5517 21.135 27.0866 23.3276C25.6215 25.5203 23.5391 27.2292 21.1028 28.2384C18.6664 29.2476 15.9855 29.5116 13.3991 28.9971C10.8127 28.4827 8.43694 27.2128 6.57224 25.3481C4.70754 23.4834 3.43766 21.1076 2.92319 18.5212C2.40872 15.9348 2.67277 13.2539 3.68194 10.8176C4.69111 8.38121 6.40007 6.29883 8.59273 4.83374C10.7854 3.36866 13.3632 2.58667 16.0003 2.58667C17.7513 2.58667 19.4851 2.93155 21.1028 3.60161C22.7205 4.27167 24.1903 5.2538 25.4284 6.49191C26.6665 7.73003 27.6487 9.19988 28.3187 10.8176C28.9888 12.4352 29.3337 14.169 29.3337 15.92Z" fill="white"/>
</g>
<path d="M6.26621 11.9466C6.24988 11.9118 6.22319 11.8828 6.18977 11.8637C6.15636 11.8446 6.11786 11.8363 6.07954 11.84C6.04001 11.8397 6.00179 11.8541 5.97225 11.8804C5.94271 11.9066 5.92393 11.9429 5.91954 11.9822C5.91954 11.9822 5.62621 11.84 5.70621 11.9822C5.76088 12.0887 5.82964 12.1874 5.91065 12.2755C6.05421 12.2709 6.19704 12.253 6.33732 12.2222C6.38797 12.1163 6.4296 12.0062 6.46176 11.8933C6.46176 11.7244 6.26621 11.8933 6.24843 11.8933" fill="#93BF3E"/>
<path d="M7.36882 16.5244C7.36882 16.6995 7.33433 16.8729 7.26732 17.0347C7.20031 17.1964 7.1021 17.3434 6.97829 17.4672C6.85448 17.5911 6.70749 17.6893 6.54573 17.7563C6.38396 17.8233 6.21058 17.8578 6.03548 17.8578C5.86039 17.8578 5.687 17.8233 5.52524 17.7563C5.36347 17.6893 5.21648 17.5911 5.09267 17.4672C4.96886 17.3434 4.87065 17.1964 4.80364 17.0347C4.73664 16.8729 4.70215 16.6995 4.70215 16.5244C4.70215 16.4749 4.72182 16.4274 4.75682 16.3924C4.79183 16.3574 4.83931 16.3378 4.88882 16.3378C4.93832 16.3378 4.9858 16.3574 5.02081 16.3924C5.05582 16.4274 5.07548 16.4749 5.07548 16.5244C5.07916 16.7688 5.17507 17.0028 5.34398 17.1795C5.5129 17.3561 5.74234 17.4624 5.98632 17.477C6.2303 17.4916 6.47079 17.4135 6.65959 17.2583C6.84839 17.103 6.97154 16.8822 7.00437 16.64C7.01312 16.602 7.01312 16.5625 7.00437 16.5244C7.0149 16.4767 7.04222 16.4342 7.08136 16.4049C7.12051 16.3755 7.16888 16.3612 7.2177 16.3644C7.25821 16.3699 7.29581 16.3885 7.32471 16.4174C7.35361 16.4463 7.37223 16.4839 7.3777 16.5244" fill="white"/>
<path d="M7.05756 14.2755L6.87978 12.7466C6.87006 12.7179 6.85137 12.6929 6.82645 12.6755L6.222 12.3822H6.00867L5.52867 12.7911C5.52039 12.8232 5.52039 12.8568 5.52867 12.8889L5.70645 14.3911L7.05756 14.2755Z" fill="#93BF3E"/>
<path d="M6.77368 12.3111C6.7585 12.1998 6.73472 12.0898 6.70257 11.9822L6.26702 12.24C6.24786 12.2189 6.22452 12.2021 6.1985 12.1906C6.17248 12.1792 6.14435 12.1732 6.1159 12.1732C6.08746 12.1732 6.05933 12.1792 6.03331 12.1906C6.00729 12.2021 5.98395 12.2189 5.96479 12.24L5.50257 12.0977C5.48482 12.2066 5.48482 12.3177 5.50257 12.4266C5.51123 12.5341 5.53829 12.6394 5.58257 12.7377L5.99146 12.4977C6.0093 12.5234 6.0333 12.5442 6.06125 12.5581C6.08921 12.5721 6.12023 12.5789 6.15146 12.5777C6.18545 12.5726 6.21801 12.5604 6.24708 12.5421C6.27614 12.5237 6.30109 12.4995 6.32035 12.4711L6.77368 12.6222C6.78255 12.5127 6.78255 12.4027 6.77368 12.2933" fill="#0AAF58"/>
<path d="M6.40924 14.6577L8.53369 14.5333L8.69369 13.9022C8.70052 13.8841 8.70335 13.8648 8.70199 13.8456C8.70063 13.8264 8.69511 13.8076 8.68582 13.7907C8.67652 13.7738 8.66367 13.7592 8.64815 13.7477C8.63262 13.7362 8.6148 13.7283 8.59591 13.7244L6.64036 13.2266C6.60504 13.2183 6.56789 13.2238 6.5365 13.242C6.5051 13.2602 6.48184 13.2896 6.47147 13.3244L6.14258 14.6577H6.40924Z" fill="#E20A7E"/>
<path d="M7.63579 14.5867L7.92024 13.5556L7.35135 13.4133L7.02246 14.6222H7.63579" fill="#F19021"/>
<path d="M8.51549 13.2444C8.49988 13.2142 8.47878 13.187 8.45327 13.1644C8.23105 12.9778 7.89327 13.2711 7.7866 13.3778C7.75907 13.3537 7.72507 13.3382 7.68883 13.3333C7.66927 13.3245 7.64806 13.3199 7.6266 13.3199C7.60515 13.3199 7.58394 13.3245 7.56438 13.3333C7.50216 13.1733 7.31549 12.7911 7.03994 12.8711C7.00844 12.8856 6.97863 12.9034 6.95105 12.9244C6.91863 12.943 6.89219 12.9704 6.87487 13.0035C6.85754 13.0366 6.85004 13.0739 6.85327 13.1111C6.85327 13.3067 7.33327 13.44 7.48438 13.4933C7.49019 13.5251 7.505 13.5546 7.52706 13.5782C7.54912 13.6019 7.5775 13.6187 7.60883 13.6267C7.64216 13.6356 7.67749 13.6335 7.70953 13.6206C7.74156 13.6078 7.7686 13.585 7.7866 13.5556C7.92883 13.5556 8.41771 13.6356 8.53327 13.4578C8.55039 13.4264 8.55936 13.3913 8.55936 13.3556C8.55936 13.3198 8.55039 13.2847 8.53327 13.2533M7.04883 13.1289C7.04315 13.1239 7.03861 13.1177 7.03549 13.1108C7.03238 13.1039 7.03077 13.0965 7.03077 13.0889C7.03077 13.0813 7.03238 13.0738 7.03549 13.0669C7.03861 13.06 7.04315 13.0539 7.04883 13.0489C7.0634 13.0451 7.07869 13.0451 7.09327 13.0489C7.19994 13.0489 7.31549 13.1822 7.39549 13.3333C7.27703 13.2896 7.16375 13.233 7.05771 13.1644M8.43549 13.3333C8.39105 13.3867 8.21327 13.3956 7.99105 13.3778C8.12438 13.2711 8.30216 13.1644 8.38216 13.2444C8.46216 13.3244 8.44438 13.3156 8.43549 13.3333Z" fill="#F19021"/>
<path d="M3.64463 14.8356H3.68907L6.40907 14.6667H6.47129L6.22241 13.52C6.21938 13.5014 6.21243 13.4836 6.20202 13.4678C6.1916 13.4521 6.17796 13.4387 6.16199 13.4286C6.14602 13.4185 6.1281 13.412 6.1094 13.4093C6.0907 13.4067 6.07165 13.4081 6.05352 13.4133L3.60018 13.9556C3.56378 13.964 3.53217 13.9865 3.51221 14.0181C3.49225 14.0497 3.48553 14.0879 3.49352 14.1244L3.64463 14.8356Z" fill="#F19021"/>
<path d="M5.5284 14.7111L5.27951 13.5733L4.39062 13.7777L4.61285 14.7733L5.50174 14.72" fill="#DF2127"/>
<path d="M5.52917 12.9689H5.41361C5.07584 12.9689 4.95139 13.3778 4.89806 13.5822H4.79139C4.77284 13.5852 4.7552 13.5923 4.73981 13.6031C4.72441 13.6139 4.71166 13.628 4.7025 13.6444C4.56917 13.4844 4.24028 13.1378 3.96473 13.3066L3.87584 13.3955C3.85054 13.4304 3.83691 13.4724 3.83691 13.5155C3.83691 13.5586 3.85054 13.6006 3.87584 13.6355C3.9825 13.8578 4.56028 13.8578 4.76473 13.8578C4.80749 13.8751 4.8553 13.8751 4.89806 13.8578C4.9387 13.8478 4.9738 13.8222 4.99584 13.7866C5.14695 13.7155 5.6625 13.4489 5.6625 13.2178C5.66079 13.1737 5.64649 13.131 5.62129 13.0947C5.59608 13.0585 5.56103 13.0303 5.52028 13.0133M4.00917 13.5822C4.00114 13.5704 3.99685 13.5565 3.99685 13.5422C3.99685 13.5279 4.00114 13.514 4.00917 13.5022C4.00917 13.5022 4.00917 13.5022 4.0625 13.4578C4.11584 13.4133 4.35584 13.5289 4.49806 13.68C4.33232 13.689 4.16704 13.6554 4.01806 13.5822M5.08473 13.5822C5.14695 13.3955 5.24473 13.1822 5.37806 13.2H5.43139C5.44334 13.2022 5.45451 13.2075 5.46385 13.2153C5.47319 13.223 5.48037 13.2331 5.48473 13.2444C5.48473 13.3066 5.30695 13.44 5.08473 13.5733" fill="#DF2127"/>
<path d="M8.77299 19.9467C8.43694 18.2614 8.41584 16.5285 8.71076 14.8356C8.7086 14.7891 8.68917 14.7451 8.65629 14.7122C8.62341 14.6794 8.57944 14.6599 8.53299 14.6578L3.69743 14.9422C3.65947 14.9528 3.62558 14.9745 3.6002 15.0047C3.57483 15.0348 3.55914 15.0719 3.55521 15.1111C3.79566 16.7212 3.75053 18.3611 3.42188 19.9556C3.42348 19.9969 3.43945 20.0364 3.46703 20.0672C3.49461 20.098 3.53208 20.1183 3.57299 20.1244H8.62187C8.66427 20.118 8.70291 20.0965 8.73068 20.0638C8.75844 20.0311 8.77347 19.9895 8.77299 19.9467Z" fill="#0094D9"/>
<path d="M7.18266 16C7.13551 16 7.09029 15.9812 7.05695 15.9479C7.02361 15.9145 7.00488 15.8693 7.00488 15.8222C7.00488 15.775 7.02361 15.7298 7.05695 15.6965C7.09029 15.6631 7.13551 15.6444 7.18266 15.6444C7.20705 15.6418 7.23173 15.6445 7.25496 15.6524C7.2782 15.6603 7.29944 15.6731 7.3172 15.69C7.33497 15.7069 7.34883 15.7275 7.35784 15.7504C7.36684 15.7732 7.37076 15.7977 7.36933 15.8222C7.36933 15.8467 7.3645 15.871 7.35512 15.8936C7.34574 15.9163 7.33199 15.9368 7.31465 15.9542C7.29732 15.9715 7.27674 15.9853 7.25409 15.9946C7.23145 16.004 7.20717 16.0088 7.18266 16.0088" fill="white"/>
<path d="M4.88872 16C4.84157 16 4.79635 15.9812 4.76301 15.9479C4.72967 15.9145 4.71094 15.8693 4.71094 15.8222C4.71094 15.775 4.72967 15.7298 4.76301 15.6965C4.79635 15.6631 4.84157 15.6444 4.88872 15.6444C4.91311 15.6418 4.93778 15.6445 4.96102 15.6524C4.98425 15.6603 5.00549 15.6731 5.02326 15.69C5.04102 15.7069 5.05489 15.7275 5.06389 15.7504C5.07289 15.7732 5.07681 15.7977 5.07538 15.8222C5.0731 15.8701 5.05242 15.9154 5.01766 15.9485C4.9829 15.9816 4.93672 16 4.88872 16Z" fill="white"/>
<path d="M7.36882 16.5422C7.36882 16.8958 7.22834 17.235 6.97829 17.485C6.72824 17.7351 6.3891 17.8755 6.03548 17.8755C5.68186 17.8755 5.34272 17.7351 5.09267 17.485C4.84262 17.235 4.70215 16.8958 4.70215 16.5422C4.70212 16.5181 4.70699 16.4942 4.71648 16.472C4.72596 16.4499 4.73986 16.4299 4.75732 16.4132C4.77478 16.3966 4.79544 16.3837 4.81805 16.3753C4.84066 16.3669 4.86473 16.3632 4.88882 16.3644C4.93596 16.3644 4.98118 16.3831 5.01452 16.4165C5.04786 16.4498 5.06659 16.495 5.06659 16.5422C5.04868 16.6743 5.05824 16.8087 5.09467 16.937C5.1311 17.0653 5.19361 17.1847 5.27829 17.2877C5.36298 17.3907 5.46801 17.4751 5.58682 17.5356C5.70563 17.5961 5.83566 17.6315 5.96876 17.6395C6.10187 17.6475 6.23519 17.6279 6.36037 17.582C6.48556 17.536 6.59992 17.4648 6.6963 17.3726C6.79267 17.2805 6.86899 17.1694 6.92047 17.0464C6.97195 16.9234 6.99749 16.7911 6.99548 16.6578V16.5422C6.99548 16.495 7.01421 16.4498 7.04755 16.4165C7.08089 16.3831 7.12611 16.3644 7.17326 16.3644C7.19734 16.3632 7.22142 16.3669 7.24403 16.3753C7.26663 16.3837 7.28729 16.3966 7.30475 16.4132C7.32222 16.4299 7.33611 16.4499 7.3456 16.472C7.35508 16.4942 7.35996 16.5181 7.35993 16.5422" fill="white"/>
<path d="M21.7871 15.1111C21.4536 15.3109 21.2064 15.6278 21.0938 16L21.0493 16.1689L21.2004 16.0978C21.4267 16.0439 21.6616 16.0366 21.8908 16.0763C22.1201 16.116 22.3388 16.202 22.5338 16.3289C22.7442 16.4597 22.9166 16.6435 23.0336 16.8619C23.1506 17.0803 23.2081 17.3257 23.2004 17.5733C23.2004 18.8711 22.3115 19.1378 22.0271 19.1378C21.0227 19.1378 20.8093 18 20.8093 17.6V13.3333H20.6582C20.4222 13.3326 20.1893 13.3869 19.978 13.4918C19.7666 13.5967 19.5826 13.7494 19.4404 13.9378V17.6711C19.451 18.0333 19.5352 18.3896 19.688 18.7182C19.8409 19.0468 20.0591 19.3408 20.3293 19.5822C20.7806 19.9992 21.3774 20.2226 21.9915 20.2044C22.4634 20.2019 22.9249 20.0662 23.323 19.813C23.7212 19.5598 24.0398 19.1994 24.2422 18.7732C24.4446 18.347 24.5226 17.8723 24.4673 17.4037C24.4119 16.9352 24.2255 16.4917 23.9293 16.1244C23.6723 15.8044 23.3459 15.5468 22.9748 15.3713C22.6037 15.1958 22.1976 15.1068 21.7871 15.1111Z" fill="#0094D9"/>
<path d="M27.9469 14.6045C28.0788 14.6045 28.2077 14.5654 28.3173 14.4921C28.427 14.4188 28.5124 14.3147 28.5629 14.1929C28.6133 14.0711 28.6265 13.937 28.6008 13.8077C28.5751 13.6784 28.5116 13.5596 28.4183 13.4664C28.3251 13.3731 28.2063 13.3097 28.077 13.2839C27.9477 13.2582 27.8136 13.2714 27.6918 13.3219C27.57 13.3723 27.4659 13.4578 27.3926 13.5674C27.3194 13.677 27.2803 13.8059 27.2803 13.9378C27.2826 14.1139 27.3536 14.2821 27.4781 14.4066C27.6026 14.5312 27.7708 14.6021 27.9469 14.6045Z" fill="#0094D9"/>
<path d="M27.2979 15.7689V20.16H27.3779C27.6116 20.1554 27.8414 20.0987 28.0505 19.9942C28.2596 19.8896 28.4428 19.7398 28.5867 19.5555V15.1644H28.4979C28.2653 15.1684 28.0366 15.2249 27.8288 15.3295C27.621 15.4342 27.4395 15.5844 27.2979 15.7689Z" fill="#0094D9"/>
<path d="M18.027 13.3333C17.8952 13.3333 17.7663 13.3724 17.6566 13.4457C17.547 13.5189 17.4616 13.623 17.4111 13.7449C17.3606 13.8667 17.3474 14.0007 17.3732 14.13C17.3989 14.2594 17.4624 14.3781 17.5556 14.4714C17.6488 14.5646 17.7676 14.6281 17.897 14.6538C18.0263 14.6796 18.1603 14.6664 18.2821 14.6159C18.404 14.5654 18.5081 14.48 18.5813 14.3704C18.6546 14.2607 18.6937 14.1318 18.6937 14C18.6937 13.8232 18.6234 13.6536 18.4984 13.5286C18.3734 13.4036 18.2038 13.3333 18.027 13.3333Z" fill="#0094D9"/>
<path d="M17.3779 15.7778V20.16H17.4579C17.6917 20.1554 17.9215 20.0987 18.1306 19.9942C18.3397 19.8896 18.5229 19.7398 18.6668 19.5555V15.1644H18.5779C18.3448 15.1708 18.1161 15.2291 17.9085 15.3353C17.7009 15.4414 17.5196 15.5926 17.3779 15.7778Z" fill="#0094D9"/>
<path d="M11.8755 15.1111C11.5414 15.3125 11.2918 15.6284 11.1732 16L11.1288 16.1689L11.2888 16.0978C11.5151 16.0444 11.7499 16.0374 11.9791 16.0771C12.2082 16.1168 12.427 16.2024 12.6221 16.3289C12.8314 16.461 13.0027 16.6451 13.1196 16.8632C13.2364 17.0813 13.2947 17.326 13.2888 17.5733C13.3243 17.7598 13.3208 17.9515 13.2787 18.1366C13.2366 18.3216 13.1567 18.496 13.044 18.6487C12.9314 18.8014 12.7884 18.9292 12.624 19.0241C12.4596 19.119 12.2774 19.1788 12.0888 19.2C11.0932 19.2 10.871 18.0622 10.871 17.6622V13.3333H10.791C10.555 13.3326 10.3222 13.3869 10.1108 13.4918C9.89942 13.5967 9.71538 13.7494 9.57324 13.9378V17.6444C9.58378 18.0067 9.66803 18.3629 9.82086 18.6915C9.97369 19.0201 10.1919 19.3141 10.4621 19.5555C10.9161 19.9739 11.5162 20.1974 12.1332 20.1778C12.6036 20.1719 13.0627 20.0338 13.4583 19.7793C13.8538 19.5248 14.1698 19.1642 14.3701 18.7386C14.5703 18.313 14.6468 17.8397 14.5908 17.3727C14.5348 16.9057 14.3485 16.4639 14.0532 16.0978C13.7921 15.7752 13.4592 15.518 13.0811 15.3467C12.7031 15.1754 12.2902 15.0947 11.8755 15.1111Z" fill="#0094D9"/>
<path d="M15.2979 12.4978V20.1422H15.3779C15.6149 20.1538 15.8512 20.1063 16.0653 20.0039C16.2794 19.9015 16.4647 19.7474 16.6045 19.5556V11.9111H16.5245C16.2888 11.9083 16.0555 11.9598 15.8428 12.0615C15.6301 12.1632 15.4437 12.3125 15.2979 12.4978Z" fill="#0094D9"/>
<path d="M25.2178 12.4978V20.1422H25.2978C25.5346 20.1523 25.7703 20.104 25.9842 20.0017C26.1981 19.8994 26.3836 19.7462 26.5244 19.5556V11.9111H26.4444C26.2086 11.9076 25.9751 11.9588 25.7623 12.0606C25.5495 12.1624 25.3631 12.312 25.2178 12.4978Z" fill="#0094D9"/>
</g>
</g>
<defs>
<clipPath id="clip0_2810_56199">
<rect width="32" height="32" fill="white"/>
</clipPath>
</defs>
</svg>
