<svg width="32" height="32" viewBox="0 0 32 32" fill="none" xmlns="http://www.w3.org/2000/svg">
<g clip-path="url(#clip0_2707_365708)">
<path d="M15.9998 31.9823C24.8265 31.9823 31.982 24.8268 31.982 16C31.982 7.17331 24.8265 0.0178223 15.9998 0.0178223C7.17306 0.0178223 0.0175781 7.17331 0.0175781 16C0.0175781 24.8268 7.17306 31.9823 15.9998 31.9823Z" fill="white"/>
<path d="M4.5957 18.1422V9.12H11.1379L11.9113 9.80444V13.0489L11.3601 13.6267L11.9113 14.1333V17.3867L11.1468 18.1422H4.5957ZM5.59126 10.1422V17.1555H10.9246V10.1156L5.59126 10.1422Z" fill="#0196D1"/>
<path d="M14.418 18.1067V13.0401C15.1739 12.9515 15.9376 12.9515 16.6935 13.0401C16.8213 13.049 16.9461 13.0834 17.0604 13.1413C17.1747 13.1991 17.2763 13.2793 17.3591 13.3771C17.442 13.4748 17.5044 13.5882 17.5428 13.7104C17.5811 13.8327 17.5946 13.9614 17.5824 14.0889C17.5824 14.2489 17.5824 14.4001 17.5824 14.5601C17.603 14.7689 17.5424 14.9776 17.4134 15.1431C17.2843 15.3085 17.0966 15.418 16.8891 15.4489L16.7469 15.5112L17.058 15.5734C17.1987 15.6157 17.3268 15.6922 17.4308 15.7962C17.5347 15.9001 17.6112 16.0282 17.6535 16.1689C17.7603 16.5479 17.7785 16.9463 17.7069 17.3334C17.6745 17.539 17.575 17.7282 17.4239 17.8713C17.2727 18.0144 17.0784 18.1035 16.8713 18.1245C16.6718 18.1599 16.4695 18.1777 16.2669 18.1778C15.6713 18.1423 15.058 18.1245 14.418 18.1067ZM15.0669 17.5912C15.5202 17.5912 15.9557 17.5912 16.3913 17.5912C16.4999 17.5729 16.6069 17.5462 16.7113 17.5112C16.7971 17.4884 16.875 17.4423 16.9362 17.378C16.9974 17.3136 17.0396 17.2336 17.058 17.1467C17.116 16.8892 17.116 16.622 17.058 16.3645C17.0455 16.2166 16.9834 16.0773 16.8817 15.9692C16.7801 15.861 16.6448 15.7905 16.498 15.7689C16.0129 15.7287 15.5253 15.7287 15.0402 15.7689L15.0669 17.5912ZM15.0669 15.2178H16.3113C16.4371 15.1944 16.5594 15.1556 16.6757 15.1023C16.7385 15.0742 16.7942 15.0326 16.8388 14.9803C16.8833 14.928 16.9157 14.8664 16.9335 14.8001C16.9956 14.5611 16.9956 14.3102 16.9335 14.0712C16.8446 13.7423 16.7291 13.6001 16.4002 13.5734C16.0713 13.5467 15.6269 13.5734 15.2446 13.5201H15.0402L15.0669 15.2178Z" fill="#464647"/>
<path d="M28.0712 15.9467C28.0712 15.7245 28.0712 15.5289 28.0712 15.3423C28.0675 15.2734 28.0397 15.2079 27.9925 15.1575C27.9454 15.1071 27.882 15.075 27.8135 15.0667C27.6699 15.0392 27.5241 15.0243 27.3779 15.0223H25.9912C25.9912 14.8445 25.9912 14.6845 26.0535 14.5067H26.3379C26.6668 14.5067 26.9957 14.5067 27.3246 14.5067C27.5629 14.4976 27.8014 14.5155 28.0357 14.5601C28.227 14.5944 28.3994 14.6972 28.5204 14.8494C28.6415 15.0015 28.703 15.1925 28.6935 15.3867C28.6935 16.1778 28.6935 16.9689 28.6935 17.7601V18.1601H28.2046L28.1246 17.6978L27.3957 18.0801C27.1418 18.2131 26.8535 18.2658 26.569 18.2312C26.3333 18.2312 26.1072 18.1375 25.9405 17.9708C25.7738 17.8041 25.6801 17.578 25.6801 17.3423V16.8001C25.6765 16.6904 25.6951 16.5812 25.7345 16.4789C25.774 16.3766 25.8337 16.2833 25.91 16.2045C25.9863 16.1257 26.0777 16.0631 26.1787 16.0203C26.2797 15.9776 26.3882 15.9555 26.4979 15.9556H28.0446L28.0712 15.9467ZM26.6046 16.4445C26.5262 16.4815 26.4607 16.541 26.4164 16.6154C26.3721 16.6898 26.3509 16.7758 26.3557 16.8623C26.3468 17.0014 26.3468 17.1409 26.3557 17.2801C26.3554 17.3334 26.3664 17.3862 26.3878 17.435C26.4092 17.4839 26.4405 17.5277 26.4799 17.5637C26.5192 17.5997 26.5657 17.6271 26.6162 17.6441C26.6668 17.661 26.7204 17.6672 26.7735 17.6623C27.0102 17.6625 27.2445 17.6154 27.4628 17.5238C27.6811 17.4322 27.8789 17.298 28.0446 17.1289V16.4445H26.6046Z" fill="#464647"/>
<path d="M19.1909 16.5956C19.1857 16.6814 19.1857 16.7675 19.1909 16.8533C19.2068 17.0616 19.3027 17.2556 19.4584 17.3948C19.6141 17.534 19.8177 17.6075 20.0264 17.6C20.3553 17.6 20.6842 17.6 21.022 17.6H21.4042C21.4042 17.7422 21.4486 17.8756 21.4664 17.9911C21.2134 18.1208 20.9329 18.1878 20.6486 18.1867C20.2388 18.2489 19.8203 18.2216 19.422 18.1067C19.2411 18.0563 19.0757 17.9617 18.9407 17.8313C18.8057 17.7009 18.7053 17.539 18.6486 17.36C18.4987 16.9233 18.4531 16.4575 18.5153 16C18.5303 15.8359 18.554 15.6727 18.5864 15.5111C18.6204 15.2537 18.7395 15.015 18.9247 14.833C19.1099 14.651 19.3506 14.5362 19.6086 14.5067C20.0134 14.425 20.4321 14.4464 20.8264 14.5689C21.0046 14.6182 21.1651 14.7171 21.2894 14.8539C21.4137 14.9908 21.4967 15.1601 21.5286 15.3422C21.5908 15.5933 21.5908 15.8557 21.5286 16.1067C21.4948 16.2468 21.417 16.3724 21.3066 16.4652C21.1963 16.558 21.0592 16.613 20.9153 16.6222C20.5242 16.6222 20.1331 16.6222 19.7331 16.6222L19.1909 16.5956ZM20.7464 16.0533C20.8212 15.9828 20.8768 15.8944 20.9079 15.7964C20.939 15.6984 20.9446 15.5941 20.9242 15.4933C20.9266 15.4242 20.915 15.3552 20.8902 15.2906C20.8653 15.226 20.8277 15.167 20.7796 15.1172C20.7315 15.0675 20.6739 15.0279 20.6101 15.0009C20.5464 14.9739 20.4779 14.96 20.4086 14.96C20.2164 14.9422 20.023 14.9422 19.8309 14.96C19.7482 14.9607 19.6667 14.9803 19.5928 15.0172C19.5188 15.0542 19.4543 15.1076 19.4042 15.1733C19.2231 15.4497 19.1359 15.7769 19.1553 16.1067C19.6862 16.1295 20.2182 16.1116 20.7464 16.0533Z" fill="#464647"/>
<path d="M25.2796 15.7334H23.3151V18.1422H22.6396V17.9911C22.6396 16.6667 22.6396 15.3245 22.6396 14.0178C22.6339 13.8613 22.6549 13.705 22.7018 13.5556C22.7698 13.3782 22.8927 13.2273 23.0527 13.1249C23.2126 13.0226 23.4012 12.9741 23.5907 12.9867C23.9462 12.9867 24.3107 12.9867 24.6662 12.9867H25.5996C25.5996 13.1822 25.5996 13.36 25.5996 13.5645H23.9107C23.8191 13.5554 23.7268 13.5554 23.6351 13.5645C23.4307 13.5645 23.3329 13.68 23.324 13.8934C23.324 14.3111 23.324 14.7289 23.324 15.1734H25.2796V15.7334Z" fill="#464647"/>
<path d="M15.2624 21.0489H15.1113V19.7245H15.2713L15.9647 20.7112V19.7245H16.1158V21.0578C16.018 21.0578 15.9647 21.0578 15.9113 20.9778C15.7602 20.7467 15.6002 20.5245 15.4402 20.3023C15.4054 20.2374 15.3487 20.187 15.2802 20.16L15.2624 21.0489Z" fill="#464647"/>
<path d="M22.2225 20.5422V21.0489H22.0625V19.7067C22.3558 19.7067 22.6581 19.6355 22.9514 19.7867C23.0302 19.8996 23.0639 20.038 23.0458 20.1745C23.0277 20.3111 22.9592 20.4359 22.8536 20.5244L23.0581 21.04H22.8892C22.8181 20.8622 22.7469 20.7022 22.6669 20.5155L22.2225 20.5422ZM22.2225 20.3644C22.4447 20.32 22.6758 20.4622 22.8447 20.2222C22.84 20.1304 22.84 20.0384 22.8447 19.9467C22.6542 19.8534 22.4367 19.8313 22.2314 19.8844V20.2222C22.2246 20.2693 22.2217 20.3169 22.2225 20.3644Z" fill="#464647"/>
<path d="M21.5022 23.4667V23.6267H20.6133V22.3111C20.8977 22.2667 21.1822 22.3111 21.5022 22.3111C21.5064 22.3674 21.5064 22.4238 21.5022 22.48H20.7999V22.8978H21.3866V23.0756H20.7999V23.4934L21.5022 23.4667Z" fill="#464647"/>
<path d="M14.6313 22.88H15.2091V23.04H14.6224V23.4667H15.3069V23.6178H14.418V22.3022H15.3069V22.4534H14.6313V22.88Z" fill="#464647"/>
<path d="M17.5285 20.9334C17.2478 21.0502 16.9417 21.093 16.6396 21.0578C16.6396 20.8356 16.6396 20.6223 16.6396 20.4V19.7511C16.8751 19.712 17.1153 19.712 17.3508 19.7511C17.4158 19.7568 17.4768 19.7846 17.5238 19.8299C17.5707 19.8752 17.6006 19.9353 17.6085 20C17.6451 20.3134 17.6179 20.6308 17.5285 20.9334ZM17.3419 20.8534C17.4443 20.5659 17.4443 20.2519 17.3419 19.9645C17.1649 19.8895 16.9684 19.8739 16.7819 19.92V20.8889L17.3419 20.8534Z" fill="#464647"/>
<path d="M19.6705 20.2312L20.275 20.3201C20.3321 20.3845 20.3726 20.4619 20.3927 20.5456C20.4129 20.6294 20.4121 20.7168 20.3905 20.8001C20.3837 20.874 20.3483 20.9423 20.2918 20.9905C20.2354 21.0386 20.1623 21.0628 20.0883 21.0579C19.8927 21.0579 19.7061 21.0579 19.4927 21.0579C19.4927 20.9868 19.4927 20.9334 19.4927 20.8623H20.2038V20.4979L19.555 20.4445C19.5049 20.3991 19.4666 20.3422 19.4434 20.2787C19.4202 20.2153 19.4127 20.1471 19.4216 20.0801C19.4177 20.0367 19.4232 19.9929 19.4378 19.9519C19.4523 19.9108 19.4756 19.8733 19.506 19.8421C19.5364 19.8108 19.5732 19.7865 19.6139 19.7709C19.6545 19.7552 19.6981 19.7485 19.7416 19.7512C19.9194 19.7512 20.1061 19.7512 20.3016 19.7512V19.9112H19.6527C19.622 19.9597 19.6071 20.0167 19.6103 20.0741C19.6135 20.1314 19.6345 20.1864 19.6705 20.2312Z" fill="#464647"/>
<path d="M16.5247 22.3111V22.4356H15.8403V22.7822L16.3292 22.8533C16.5514 22.8978 16.5958 22.96 16.5958 23.2C16.5958 23.44 16.5158 23.5911 16.3203 23.6089C16.1247 23.6267 15.9025 23.6089 15.6892 23.6089C15.6892 23.5378 15.6892 23.5022 15.6892 23.4489H16.4092V23.1111L15.7158 22.9867C15.6847 22.8823 15.6639 22.7751 15.6536 22.6667C15.6471 22.6215 15.6505 22.5754 15.6638 22.5317C15.677 22.4881 15.6997 22.4478 15.7303 22.4139C15.7608 22.3799 15.7984 22.3531 15.8405 22.3354C15.8825 22.3176 15.928 22.3094 15.9736 22.3111C16.0385 22.3019 16.1043 22.3019 16.1692 22.3111H16.5247Z" fill="#464647"/>
<path d="M18.8883 19.7156H18.995C18.995 19.7156 18.995 19.7156 18.995 19.7689C18.995 20.0711 18.995 20.3733 18.995 20.6578C18.995 20.9422 18.8883 21.04 18.5861 21.0578H18.5061C18.1061 21.0578 17.9905 20.9511 17.9727 20.5689C17.955 20.1867 17.9727 20.0711 17.9727 19.8222C17.9727 19.8222 17.9727 19.7511 17.9727 19.7067H18.1683V20.8C18.263 20.8438 18.3662 20.8665 18.4705 20.8665C18.5749 20.8665 18.678 20.8438 18.7727 20.8C18.8399 20.4421 18.8785 20.0795 18.8883 19.7156Z" fill="#464647"/>
<path d="M24.1244 21.0578H24C24.1689 20.6045 24.3378 20.169 24.5067 19.7334H24.7289L25.2267 21.049H25.0756L24.8889 20.7112H24.3111L24.1244 21.0578ZM24.8 20.5156C24.7289 20.3112 24.6578 20.1245 24.5689 19.8845L24.3289 20.5156H24.8Z" fill="#464647"/>
<path d="M18.4618 22.3022H18.6663C18.8263 22.7378 18.9863 23.1911 19.1641 23.6267C18.8796 23.6267 18.9507 23.3867 18.8174 23.2889H18.2841C18.1596 23.3867 18.2218 23.6267 17.9463 23.6445L18.4618 22.3022ZM18.5685 22.4711C18.4796 22.7111 18.4085 22.9067 18.3285 23.1022H18.8085L18.5685 22.4711Z" fill="#464647"/>
<path d="M21.3335 21.049H21.129V19.9023H20.7379C20.7379 19.8579 20.7379 19.8045 20.6846 19.7423H21.7068C21.7029 19.7926 21.7029 19.8431 21.7068 19.8934H21.3246L21.3335 21.049Z" fill="#464647"/>
<path d="M25.5371 21.04V19.7156H25.6971V20.88H26.3016C26.3016 20.9511 26.3016 20.9867 26.3016 21.0489L25.5371 21.04Z" fill="#464647"/>
<path d="M17.493 23.6178H17.3241V22.4712H16.8975V22.3112H17.8752C17.8752 22.3112 17.8752 22.3912 17.8752 22.4534H17.4841L17.493 23.6178Z" fill="#464647"/>
<path d="M19.8572 22.4534V23.6H19.7061V22.4445H19.2705C19.2705 22.4445 19.2705 22.3645 19.2705 22.3112H20.2661V22.4534H19.8572Z" fill="#464647"/>
<path d="M14.4355 19.7156H14.5955V21.0578H14.4355V19.7156Z" fill="#464647"/>
<path d="M23.4752 19.7156H23.6086V21.04H23.5019C23.4248 20.6025 23.4158 20.1558 23.4752 19.7156Z" fill="#464647"/>
<path d="M6.63965 14.1067V13.1467H9.8752V14.089C9.67076 14.1423 7.01298 14.1512 6.63965 14.1067Z" fill="#0196D1"/>
</g>
<defs>
<clipPath id="clip0_2707_365708">
<rect width="32" height="32" fill="white"/>
</clipPath>
</defs>
</svg>
