<svg width="32" height="32" viewBox="0 0 32 32" fill="none" xmlns="http://www.w3.org/2000/svg">
<g clip-path="url(#clip0_2707_364933)">
<path d="M15.9998 31.9822C24.8265 31.9822 31.982 24.8267 31.982 16C31.982 7.17325 24.8265 0.0177612 15.9998 0.0177612C7.17306 0.0177612 0.0175781 7.17325 0.0175781 16C0.0175781 24.8267 7.17306 31.9822 15.9998 31.9822Z" fill="white"/>
<path d="M15.1106 28.8888L14.9772 28.8266C14.6595 28.7491 14.3781 28.5645 14.1806 28.3038C13.9831 28.0432 13.8814 27.7224 13.8928 27.3955V15.6888C13.8752 15.4813 13.9032 15.2724 13.9747 15.0768C14.0462 14.8812 14.1596 14.7035 14.3069 14.5562C14.4541 14.409 14.6318 14.2956 14.8274 14.2241C15.023 14.1526 15.2319 14.1246 15.4395 14.1422H27.1995C27.535 14.1206 27.8672 14.2186 28.1374 14.4188C28.4075 14.6189 28.598 14.9083 28.675 15.2355C28.7074 15.3844 28.7223 15.5365 28.7195 15.6888V19.4666C28.7386 19.6757 28.7115 19.8864 28.6401 20.0838C28.5687 20.2812 28.4547 20.4605 28.3062 20.609C28.1578 20.7574 27.9785 20.8714 27.7811 20.9428C27.5837 21.0142 27.373 21.0413 27.1639 21.0222H21.2261V15.9377C21.2261 15.7777 21.2261 15.6177 21.0572 15.5466C20.9736 15.5137 20.8823 15.5055 20.7941 15.5228C20.7059 15.5401 20.6245 15.5823 20.5595 15.6444C20.5238 15.6634 20.4933 15.6909 20.4706 15.7244L15.395 20.7644C15.2972 20.8613 15.2188 20.9759 15.1639 21.1022C15.1427 21.1405 15.1316 21.1836 15.1317 21.2274C15.1318 21.2712 15.143 21.3143 15.1644 21.3525C15.1857 21.3908 15.2165 21.423 15.2537 21.4461C15.291 21.4691 15.3335 21.4823 15.3772 21.4844H15.6706H20.755C20.7513 21.5258 20.7513 21.5674 20.755 21.6088V27.4222C20.7573 27.7431 20.6503 28.0553 20.4516 28.3073C20.2529 28.5593 19.9743 28.7362 19.6617 28.8088C19.5227 28.8217 19.3829 28.8217 19.2439 28.8088H15.3595H15.1817L15.1106 28.8888Z" fill="#3452A1"/>
<path d="M12.9158 13.8489V19.68C12.9303 19.8845 12.9007 20.0897 12.829 20.2818C12.7573 20.4739 12.6452 20.6483 12.5002 20.7933C12.3552 20.9383 12.1808 21.0504 11.9887 21.1221C11.7966 21.1938 11.5914 21.2234 11.3869 21.2089H7.52911C7.19657 21.2261 6.86852 21.1261 6.60212 20.9263C6.33573 20.7265 6.14789 20.4396 6.07133 20.1155C6.05825 19.9885 6.05825 19.8604 6.07133 19.7333V7.99997C6.04362 7.67101 6.13267 7.3428 6.32286 7.07297C6.51304 6.80313 6.79221 6.60891 7.11133 6.52441C7.20594 6.51563 7.30117 6.51563 7.39578 6.52441H19.4491C19.632 6.52088 19.8137 6.55355 19.9839 6.62055C20.154 6.68754 20.3093 6.78753 20.4406 6.91476C20.572 7.042 20.6769 7.19396 20.7493 7.3619C20.8217 7.52984 20.8601 7.71044 20.8624 7.8933C20.8624 9.26219 20.8624 10.6311 20.8624 12C20.8445 12.3554 20.6922 12.6908 20.4365 12.9383C20.1807 13.1858 19.8405 13.327 19.4847 13.3333C17.4758 13.3333 15.4758 13.3333 13.4669 13.3333H13.3336V8.27552C13.3336 8.11552 13.3336 7.96441 13.1647 7.88441C13.0856 7.86253 13.0022 7.86168 12.9226 7.88194C12.8431 7.90221 12.7703 7.9429 12.7113 7.99997L12.5869 8.11552L7.56467 13.0755C7.46447 13.171 7.38042 13.2821 7.31578 13.4044C7.20911 13.6266 7.31578 13.7955 7.55578 13.8311H7.84022H12.9158V13.8489Z" fill="#3452A1"/>
</g>
<defs>
<clipPath id="clip0_2707_364933">
<rect width="32" height="32" fill="white"/>
</clipPath>
</defs>
</svg>
