<svg width="32" height="32" viewBox="0 0 32 32" fill="none" xmlns="http://www.w3.org/2000/svg">
<g clip-path="url(#clip0_2707_364853)">
<path d="M15.9998 31.9822C24.8265 31.9822 31.982 24.8267 31.982 16C31.982 7.17325 24.8265 0.0177612 15.9998 0.0177612C7.17306 0.0177612 0.0175781 7.17325 0.0175781 16C0.0175781 24.8267 7.17306 31.9822 15.9998 31.9822Z" fill="white"/>
<path d="M4.05277 19.7778C3.53439 19.1949 3.22206 18.4578 3.16388 17.68C3.14911 17.1571 3.34069 16.6494 3.69721 16.2667C4.21051 15.7327 4.84912 15.3355 5.55499 15.1111C6.94383 14.5957 8.42164 14.363 9.90166 14.4267C10.0436 14.4419 10.1836 14.4717 10.3194 14.5155C9.09782 14.7045 7.90381 15.0418 6.76388 15.52C5.87865 15.8811 5.12282 16.5006 4.59499 17.2978C4.18662 17.9032 4.00702 18.6342 4.08833 19.36C4.06166 19.4755 4.05277 19.6 4.05277 19.7778Z" fill="url(#paint0_linear_2707_364853)"/>
<path d="M24 18.1155V16.9866C24 16.4711 24.0889 16.4089 24.64 16.5066V21.1466C24.1867 21.2355 24.1156 21.2 24.0089 20.7733L23.84 20.9066C23.6737 21.0612 23.4719 21.1723 23.2523 21.23C23.0328 21.2878 22.8024 21.2904 22.5816 21.2376C22.3608 21.1848 22.1565 21.0783 21.9868 20.9275C21.8171 20.7767 21.6873 20.5864 21.6089 20.3733C21.4849 20.0934 21.4209 19.7906 21.4209 19.4844C21.4209 19.1783 21.4849 18.8755 21.6089 18.5955C21.7285 18.2432 21.9823 17.9522 22.3151 17.7858C22.648 17.6194 23.033 17.5909 23.3867 17.7066C23.6069 17.8176 23.8128 17.9549 24 18.1155ZM23.8578 20.2222C23.9507 19.7736 23.9507 19.3108 23.8578 18.8622C23.8059 18.691 23.6998 18.5413 23.5556 18.4355C23.4113 18.3297 23.2366 18.2736 23.0578 18.2755C22.8788 18.2703 22.7024 18.3193 22.5517 18.4161C22.401 18.5128 22.2831 18.6528 22.2133 18.8178C22.0974 19.0368 22.0367 19.281 22.0367 19.5289C22.0367 19.7768 22.0974 20.0209 22.2133 20.24C22.2879 20.3856 22.4013 20.5078 22.5408 20.5931C22.6804 20.6784 22.8408 20.7236 23.0044 20.7236C23.168 20.7236 23.3285 20.6784 23.468 20.5931C23.6076 20.5078 23.721 20.3856 23.7956 20.24L23.8578 20.2222Z" fill="#353535"/>
<path d="M7.65357 14.3822L6.69357 13.2533L5.96468 14.6667L4.24023 15.4667L6.71135 10.7289C7.32468 11.9289 7.92023 13.0755 8.48912 14.2844L7.65357 14.3822Z" fill="url(#paint1_linear_2707_364853)"/>
<path d="M7.60832 19.84H5.83054C5.67054 20.2933 5.52832 20.7289 5.36832 21.1644C5.36832 21.1644 4.79054 21.0844 4.74609 20.9955C5.19943 19.7422 5.68832 18.3289 6.14165 17.12C6.22423 16.9233 6.34509 16.745 6.4972 16.5955C6.57675 16.5163 6.68114 16.4669 6.79283 16.4556C6.90452 16.4442 7.0167 16.4717 7.11054 16.5333C7.2172 16.8266 7.34165 17.1466 7.45721 17.4222C7.83943 18.4711 8.34609 19.84 8.69276 20.8889C8.74609 21.04 8.10609 21.1555 8.10609 21.1555C7.92832 20.7289 7.76832 20.2933 7.60832 19.84ZM7.39498 19.1555C7.39498 19.1555 7.11054 18.4 7.00387 18.0355C6.8972 17.6711 6.62165 17.7333 6.51498 17.8666C6.33251 18.2941 6.18969 18.7375 6.08832 19.1911H7.39498V19.1555Z" fill="#353535"/>
<path d="M27.0039 21.2444C26.7667 21.2504 26.5307 21.2088 26.3099 21.1221C26.089 21.0354 25.8878 20.9054 25.718 20.7397C25.5481 20.5741 25.4132 20.3761 25.3211 20.1574C25.229 19.9388 25.1816 19.7039 25.1816 19.4667C25.1815 19.2279 25.2295 18.9915 25.3227 18.7717C25.4159 18.5518 25.5524 18.353 25.7241 18.1871C25.8959 18.0212 26.0993 17.8915 26.3222 17.8059C26.5451 17.7203 26.783 17.6805 27.0216 17.6889C27.4931 17.6889 27.9453 17.8762 28.2787 18.2096C28.6121 18.543 28.7994 18.9952 28.7994 19.4667C28.7994 19.9382 28.6121 20.3904 28.2787 20.7238C27.9453 21.0571 27.4931 21.2444 27.0216 21.2444H27.0039ZM26.595 20.6311C26.7558 20.6895 26.9273 20.7122 27.0978 20.6978C27.2683 20.6834 27.4336 20.6322 27.5823 20.5477C27.7311 20.4632 27.8597 20.3474 27.9593 20.2083C28.059 20.0693 28.1272 19.9102 28.1594 19.7422C28.2183 19.4669 28.1806 19.1796 28.0528 18.9287C27.9249 18.6779 27.7146 18.4786 27.4572 18.3645C27.2102 18.2601 26.9344 18.2457 26.6778 18.3236C26.4212 18.4016 26.2 18.567 26.0528 18.7911C25.9435 18.941 25.8703 19.114 25.8386 19.2967C25.8069 19.4794 25.8177 19.6669 25.8701 19.8448C25.9226 20.0227 26.0152 20.1861 26.1409 20.3225C26.2666 20.4588 26.4219 20.5644 26.595 20.6311Z" fill="#353535"/>
<path d="M21.0132 21.1466C20.5066 21.2355 20.3821 21.1466 20.3732 20.64C20.3643 20.1333 20.3732 19.5466 20.3732 19.0044C20.3732 18.32 19.9199 18.2311 19.4221 18.3644C19.2421 18.4125 19.0788 18.5093 18.9502 18.6442C18.8216 18.779 18.7327 18.9468 18.6932 19.1289C18.6471 19.3271 18.6233 19.5298 18.6221 19.7333C18.6221 20.0355 18.6221 20.3378 18.6221 20.6222C18.6221 21.1466 18.5421 21.2089 18.0088 21.1378V17.8222H18.5955C18.5955 18.0178 18.5955 18.1778 18.5955 18.3822L18.8177 18.1689C19.0026 17.9753 19.2374 17.8364 19.4961 17.7674C19.7548 17.6984 20.0275 17.702 20.2843 17.7778C20.4278 17.8056 20.5613 17.8714 20.6707 17.9684C20.7801 18.0653 20.8616 18.1898 20.9066 18.3289C20.9681 18.4695 21.0043 18.62 21.0132 18.7733C21.0221 19.5555 21.0132 20.3555 21.0132 21.1466Z" fill="#353535"/>
<path d="M9.03125 20.7466L9.28903 20.3733C9.5493 20.4877 9.81649 20.5857 10.089 20.6666C10.2471 20.7016 10.4109 20.7016 10.569 20.6666C10.6468 20.6577 10.7183 20.6199 10.7694 20.5605C10.8205 20.5012 10.8473 20.4249 10.8446 20.3466C10.8112 20.2177 10.7472 20.0988 10.6579 20C10.5778 19.9377 10.4876 19.8896 10.3912 19.8577L9.77792 19.5555C9.52741 19.455 9.31775 19.2735 9.18236 19.04C9.13106 18.9313 9.10233 18.8133 9.09793 18.6931C9.09352 18.573 9.11353 18.4533 9.15674 18.3411C9.19995 18.2289 9.26546 18.1267 9.34931 18.0405C9.43316 17.9544 9.53361 17.8862 9.64458 17.84C9.93558 17.7188 10.2536 17.6771 10.566 17.7193C10.8784 17.7615 11.1739 17.8859 11.4224 18.08L11.1913 18.4889C10.9844 18.4017 10.7703 18.3333 10.5512 18.2844C10.3652 18.2605 10.1762 18.2818 10.0001 18.3466C9.94252 18.3678 9.89199 18.4047 9.85425 18.4531C9.81652 18.5016 9.79309 18.5596 9.78661 18.6206C9.78014 18.6817 9.79088 18.7433 9.81762 18.7986C9.84436 18.8538 9.88603 18.9005 9.93792 18.9333C10.083 19.0319 10.2379 19.1153 10.4001 19.1822L11.0846 19.5111C11.2304 19.5941 11.3497 19.7167 11.4288 19.8648C11.5078 20.0128 11.5433 20.1801 11.5313 20.3475C11.5192 20.5149 11.46 20.6754 11.3605 20.8105C11.261 20.9456 11.1253 21.0498 10.969 21.1111C10.6461 21.2483 10.2898 21.287 9.94498 21.2221C9.60016 21.1573 9.28223 20.9918 9.03125 20.7466Z" fill="#353535"/>
<path d="M13.7506 20.64C13.7506 20.8355 13.7506 21.0133 13.6972 21.1911C13.5195 21.1911 13.3861 21.1911 13.2617 21.1911C12.985 21.1796 12.7237 21.0609 12.5329 20.8602C12.3422 20.6595 12.2369 20.3924 12.2395 20.1155C12.2395 19.6711 12.2395 19.2266 12.2395 18.7822V18.4177L11.7861 18.3289C11.7861 18.1955 11.7861 18.0533 11.7861 17.8933L12.2128 17.8044V16.8889H12.8528V17.84H13.635V18.3377L12.8706 18.3822C12.8706 18.96 12.8706 19.52 12.8706 20.0711C12.8773 20.2134 12.9381 20.3478 13.0405 20.4469C13.1429 20.546 13.2792 20.6023 13.4217 20.6044L13.7506 20.64Z" fill="#353535"/>
<path d="M14.8884 21.1644C14.3018 21.2089 14.2129 21.1644 14.2129 20.6311V18.1244C14.2129 18.0266 14.2129 17.9289 14.2129 17.8133H14.7996C14.7996 18.0178 14.7996 18.2133 14.8529 18.4711C15.1551 18.0355 15.4751 17.7066 16.0351 17.7689V18.32C15.8005 18.3748 15.5736 18.4584 15.3596 18.5689C15.2031 18.6783 15.0765 18.825 14.9911 18.9957C14.9057 19.1665 14.8643 19.3558 14.8707 19.5466C14.8796 20.08 14.8884 20.6133 14.8884 21.1644Z" fill="#353535"/>
<path d="M17.3067 21.1911H17.12C16.7645 21.1911 16.6934 21.12 16.6934 20.7733V17.7778L17.3067 17.8222V21.1911Z" fill="#353535"/>
<path d="M17.3156 16.8889V17.4222C16.6845 17.5644 16.5956 17.3155 16.7112 16.8089C16.889 16.7466 17.129 16.64 17.3156 16.8889Z" fill="#353535"/>
</g>
<defs>
<linearGradient id="paint0_linear_2707_364853" x1="3.21366" y1="13.2773" x2="8.43144" y2="10.9662" gradientUnits="userSpaceOnUse">
<stop stop-color="#3D5C99"/>
<stop offset="1" stop-color="#489FC8"/>
</linearGradient>
<linearGradient id="paint1_linear_2707_364853" x1="4.99143" y1="13.9592" x2="6.01366" y2="14.8303" gradientUnits="userSpaceOnUse">
<stop stop-color="#1C7E8F"/>
<stop offset="1" stop-color="#216092"/>
</linearGradient>
<clipPath id="clip0_2707_364853">
<rect width="32" height="32" fill="white"/>
</clipPath>
</defs>
</svg>
