<svg width="32" height="32" viewBox="0 0 32 32" fill="none" xmlns="http://www.w3.org/2000/svg">
<g clip-path="url(#clip0_2707_364678)">
<path d="M15.9998 31.9822C24.8265 31.9822 31.982 24.8267 31.982 16C31.982 7.17325 24.8265 0.0177612 15.9998 0.0177612C7.17306 0.0177612 0.0175781 7.17325 0.0175781 16C0.0175781 24.8267 7.17306 31.9822 15.9998 31.9822Z" fill="white"/>
<path d="M7.05767 12.4444C6.89054 12.454 6.72425 12.4748 6.55989 12.5066V14.4711C6.72455 14.4041 6.89834 14.3621 7.07545 14.3466C7.26876 14.3466 7.45416 14.4234 7.59085 14.5601C7.72754 14.6968 7.80434 14.8822 7.80434 15.0755C7.80434 15.2688 7.72754 15.4542 7.59085 15.5909C7.45416 15.7276 7.26876 15.8044 7.07545 15.8044C6.42656 15.8044 6.18656 15.4666 6.18656 15.0755V10.9866H4.44434V15.0755C4.4549 15.5877 4.61576 16.0855 4.90692 16.507C5.19808 16.9284 5.6067 17.2551 6.08198 17.4462C6.55726 17.6374 7.07824 17.6846 7.58016 17.5821C8.08207 17.4796 8.54278 17.2318 8.90502 16.8695C9.26726 16.5073 9.51504 16.0466 9.61757 15.5447C9.7201 15.0428 9.67285 14.5218 9.4817 14.0465C9.29055 13.5712 8.96393 13.1626 8.54244 12.8714C8.12094 12.5803 7.62317 12.4194 7.111 12.4089" fill="#DAB447"/>
<path d="M10.8002 10.9866L9.02246 11.8755V12.7644L10.8002 11.8755V10.9866Z" fill="#DAB447"/>
<path d="M12.1158 15.7689C11.9225 15.7689 11.7371 15.6921 11.6004 15.5554C11.4637 15.4187 11.3869 15.2333 11.3869 15.04C11.3869 14.8467 11.4637 14.6613 11.6004 14.5246C11.7371 14.3879 11.9225 14.3111 12.1158 14.3111C12.3091 14.3111 12.4945 14.3879 12.6312 14.5246C12.7679 14.6613 12.8447 14.8467 12.8447 15.04C12.8447 15.2333 12.7679 15.4187 12.6312 15.5554C12.4945 15.6921 12.3091 15.7689 12.1158 15.7689ZM12.1158 12.4089C11.6531 12.4142 11.1997 12.5398 10.8002 12.7733V12.0444L9.02246 12.9333V13.0133C9.29116 13.2904 9.50066 13.6193 9.63819 13.9799C9.77573 14.3406 9.83842 14.7255 9.82246 15.1111C9.84047 15.4718 9.77804 15.832 9.63967 16.1656C9.50131 16.4992 9.29048 16.7979 9.02246 17.04V19.2889L10.8002 18.4V17.3067C11.1997 17.5402 11.6531 17.6658 12.1158 17.6711C12.7394 17.5682 13.3062 17.2472 13.7151 16.7654C14.124 16.2835 14.3484 15.672 14.3484 15.04C14.3484 14.408 14.124 13.7965 13.7151 13.3146C13.3062 12.8327 12.7394 12.5117 12.1158 12.4089Z" fill="#DAB447"/>
<path d="M4.49805 21.0311V20.9244H4.62249V19.9555H4.49805V19.8666H4.94249C4.98791 19.8629 5.03362 19.8689 5.07654 19.8842C5.11946 19.8995 5.15862 19.9238 5.19138 19.9555C5.22402 19.9898 5.24948 20.0303 5.26627 20.0745C5.28306 20.1188 5.29084 20.166 5.28916 20.2133C5.29373 20.2683 5.28659 20.3237 5.2682 20.3758C5.24982 20.4279 5.22061 20.4755 5.18249 20.5155C5.14162 20.5523 5.09388 20.5807 5.04202 20.599C4.99015 20.6173 4.93519 20.6252 4.88027 20.6222H4.78249V20.9333H4.90694V21.04L4.49805 21.0311ZM4.78249 19.9555V20.4444H4.88027C4.91399 20.4488 4.94826 20.4453 4.98044 20.4344C5.01263 20.4234 5.04186 20.4052 5.06591 20.3812C5.08995 20.3571 5.10815 20.3279 5.11912 20.2957C5.13008 20.2635 5.13352 20.2292 5.12916 20.1955C5.13188 20.1347 5.11299 20.0749 5.07582 20.0266C5.05978 20.004 5.03841 19.9857 5.01361 19.9733C4.9888 19.9609 4.96133 19.9548 4.9336 19.9555H4.78249Z" fill="#756863"/>
<path d="M5.92027 20.9244V21.0311H5.45805V20.9244H5.60916V19.9555H5.41361V20.1333H5.28027V19.8222H6.09805V20.1333H6.00027V19.9555H5.76916V20.8889L5.92027 20.9244Z" fill="#756863"/>
<path d="M6.4082 21.0311V20.9244H6.53265V19.9555H6.4082V19.8666H6.86154C6.90285 19.8625 6.94459 19.8666 6.98428 19.8788C7.02398 19.891 7.06082 19.9111 7.09265 19.9377C7.12447 19.9667 7.14908 20.0026 7.16451 20.0427C7.17995 20.0829 7.18578 20.1261 7.18154 20.1688C7.18758 20.2306 7.17113 20.2925 7.1352 20.3431C7.09928 20.3938 7.04629 20.4297 6.98598 20.4444C7.05596 20.4579 7.11893 20.4957 7.16376 20.5511C7.20091 20.6027 7.21969 20.6653 7.21709 20.7288C7.21709 20.96 7.09265 21.0755 6.83487 21.0755L6.4082 21.0311ZM6.68376 20.4444V20.8711H6.84376C6.98598 20.8711 7.05709 20.8088 7.05709 20.6755C7.06173 20.6431 7.0585 20.61 7.04767 20.579C7.03684 20.5481 7.01873 20.5202 6.99487 20.4977C6.93777 20.458 6.8687 20.4391 6.79931 20.4444H6.68376ZM6.68376 19.9377V20.32H6.79931C6.82821 20.3224 6.8573 20.3189 6.88481 20.3098C6.91232 20.3006 6.93767 20.2859 6.95931 20.2666C6.9809 20.2501 6.99794 20.2284 7.00883 20.2036C7.01972 20.1787 7.02409 20.1514 7.02154 20.1244C7.02353 20.0733 7.00783 20.0231 6.97709 19.9822C6.94136 19.9546 6.89779 19.939 6.85265 19.9377H6.68376Z" fill="#756863"/>
<path d="M7.55495 19.6978V20.2222C7.58619 20.1838 7.62546 20.1528 7.67001 20.1313C7.71455 20.1098 7.76327 20.0984 7.81273 20.0978C7.84788 20.096 7.88297 20.1023 7.91532 20.1162C7.94767 20.13 7.97643 20.1511 7.9994 20.1778C8.04223 20.2471 8.06386 20.3274 8.06162 20.4089V20.8889L8.16828 20.9333V21.0311H7.81273V20.9333L7.91051 20.8889V20.4444C7.92677 20.3984 7.92677 20.3482 7.91051 20.3022C7.90041 20.2881 7.88704 20.2767 7.87156 20.269C7.85607 20.2612 7.83893 20.2574 7.82162 20.2578H7.72384H7.66162V20.7644L7.7594 20.8089V20.9066H7.27051V20.8089L7.40384 20.7644V19.84H7.27051V19.7422L7.55495 19.6978Z" fill="#756863"/>
<path d="M8.96912 20.1155V20.8889H9.10246V20.9867H8.88912V20.8622C8.85 20.9055 8.80129 20.9389 8.7469 20.96C8.70618 20.9842 8.66069 20.9994 8.61357 21.0044C8.57747 21.0066 8.5414 20.9997 8.50875 20.9841C8.47609 20.9686 8.44793 20.945 8.4269 20.9155C8.38739 20.8484 8.36882 20.7711 8.37357 20.6933V20.2044H8.24023V20.1155H8.52468V20.72C8.51255 20.7636 8.51255 20.8097 8.52468 20.8533C8.53662 20.8676 8.55161 20.8789 8.56853 20.8866C8.58545 20.8943 8.60387 20.8981 8.62246 20.8978C8.6599 20.9106 8.70057 20.9106 8.73801 20.8978C8.77105 20.8868 8.7993 20.8649 8.81801 20.8355V20.32H8.68468V20.2311L8.96912 20.1155Z" fill="#756863"/>
<path d="M9.43043 20.1155V20.2133H9.31487L9.43932 20.8533L9.63487 20.1066H9.78599L9.97265 20.88L10.0882 20.2489H9.98154V20.16H10.3282V20.2577H10.2393L10.0527 21.0577H9.87487L9.7771 20.4888V20.3289V20.4888L9.63487 21.0311H9.4571L9.27043 20.24H9.19043V20.1511L9.43043 20.1155Z" fill="#756863"/>
<path d="M10.3823 20.16C10.4783 20.1207 10.5808 20.0996 10.6845 20.0978C10.7581 20.0911 10.8315 20.1135 10.8889 20.16C10.9149 20.1869 10.9347 20.2191 10.947 20.2544C10.9593 20.2897 10.9637 20.3272 10.96 20.3644V20.8889H11.0845V20.9867H10.8445V20.8622C10.8165 20.9012 10.7807 20.934 10.7394 20.9585C10.6981 20.983 10.6522 20.9986 10.6045 21.0044C10.5714 21.0066 10.5383 21.0013 10.5075 20.989C10.4768 20.9767 10.4492 20.9577 10.4267 20.9333C10.3838 20.8774 10.3618 20.8082 10.3645 20.7378C10.3645 20.56 10.48 20.4711 10.7111 20.4711H10.8356V20.3378C10.8356 20.2311 10.7911 20.1778 10.6934 20.1778H10.56V20.3111H10.4623L10.3823 20.16ZM10.8089 20.6311H10.6667C10.6146 20.6147 10.5588 20.6147 10.5067 20.6311C10.5067 20.6311 10.5067 20.6844 10.5067 20.7289C10.4952 20.7635 10.4952 20.8009 10.5067 20.8355C10.5191 20.8418 10.5328 20.845 10.5467 20.845C10.5606 20.845 10.5743 20.8418 10.5867 20.8355H10.6667H10.72L10.8089 20.6311Z" fill="#756863"/>
<path d="M11.3778 20.1155V20.2311H11.44H11.52C11.5521 20.2228 11.5857 20.2228 11.6178 20.2311C11.6517 20.2286 11.6858 20.2346 11.7168 20.2485C11.7479 20.2625 11.7749 20.284 11.7956 20.3111C11.8424 20.3786 11.8644 20.4603 11.8578 20.5422V21.0222L11.9733 21.0666V21.1644H11.6089V21.0666L11.7067 21.0222V20.4444C11.7187 20.3978 11.7187 20.3488 11.7067 20.3022C11.6947 20.2879 11.6797 20.2766 11.6628 20.2689C11.6459 20.2612 11.6275 20.2574 11.6089 20.2577H11.5556H11.4933V20.7644L11.5911 20.8089V20.9066H11.2178V20.8089L11.3422 20.7644V20.1244H11.2178V20.0355L11.3778 20.1155Z" fill="#756863"/>
<path d="M12.124 20.16C12.2195 20.1189 12.3223 20.0977 12.4262 20.0978C12.4614 20.0942 12.4968 20.0979 12.5305 20.1086C12.5641 20.1193 12.5952 20.1368 12.6218 20.16C12.6751 20.16 12.6929 20.2666 12.6929 20.3644V20.8889H12.8173V20.9866H12.5862V20.8622C12.5583 20.9012 12.5225 20.934 12.4812 20.9585C12.4399 20.983 12.3939 20.9986 12.3462 21.0044C12.3134 21.0049 12.2807 20.9989 12.2502 20.9866C12.2197 20.9744 12.1919 20.9563 12.1685 20.9333C12.1287 20.8762 12.1099 20.8071 12.1151 20.7378C12.1151 20.56 12.2307 20.4711 12.4618 20.4711H12.5773V20.3378C12.5773 20.2311 12.5773 20.1778 12.4351 20.1778H12.3018V20.3111H12.204L12.124 20.16ZM12.5418 20.6311H12.444C12.3924 20.612 12.3356 20.612 12.284 20.6311C12.2662 20.64 12.2516 20.6542 12.2421 20.6716C12.2325 20.6891 12.2286 20.7091 12.2307 20.7289C12.2192 20.7635 12.2192 20.8009 12.2307 20.8355C12.2431 20.8418 12.2568 20.845 12.2707 20.845C12.2846 20.845 12.2983 20.8418 12.3107 20.8355H12.364H12.4173H12.4618L12.5418 20.6311Z" fill="#756863"/>
<path d="M13.1378 19.8666V20.1244H13.3333V20.2489H13.12V20.8089C13.12 20.8711 13.12 20.9066 13.1911 20.9066C13.232 20.9165 13.2747 20.9165 13.3156 20.9066V20.9955C13.2567 21.0487 13.1814 21.0801 13.1022 21.0844C13.0543 21.0805 13.0097 21.0582 12.9778 21.0222C12.9445 20.9626 12.9291 20.8947 12.9333 20.8266V20.2844H12.7822V20.1777H12.9333V19.9555L13.1378 19.8666Z" fill="#756863"/>
<path d="M13.4571 20.16C13.5498 20.1199 13.6495 20.0987 13.7505 20.0978C13.8241 20.0911 13.8974 20.1135 13.9549 20.16C13.9809 20.1869 14.0007 20.2191 14.013 20.2544C14.0252 20.2897 14.0297 20.3272 14.026 20.3644V20.8889H14.1505V20.9867H13.9105V20.8622C13.8825 20.9012 13.8467 20.934 13.8054 20.9585C13.7641 20.983 13.7181 20.9986 13.6705 21.0044C13.6375 21.006 13.6045 21.0004 13.5739 20.9881C13.5432 20.9759 13.5155 20.9572 13.4927 20.9333C13.4529 20.8762 13.4341 20.8071 13.4393 20.7378C13.4393 20.56 13.5549 20.4711 13.786 20.4711H13.9016V20.3378C13.9016 20.2311 13.9016 20.1778 13.7593 20.1778H13.626V20.3111H13.5193L13.4571 20.16ZM13.8749 20.6311H13.7682C13.7162 20.6147 13.6603 20.6147 13.6082 20.6311C13.5935 20.6426 13.5817 20.6575 13.574 20.6745C13.5662 20.6915 13.5627 20.7102 13.5638 20.7289C13.5523 20.7635 13.5523 20.8009 13.5638 20.8355C13.5762 20.8418 13.5899 20.845 13.6038 20.845C13.6177 20.845 13.6314 20.8418 13.6438 20.8355H13.6971H13.7505H13.7949L13.8749 20.6311Z" fill="#756863"/>
<path d="M14.4534 19.6978V20.8889L14.6045 20.9333V21.0311H14.1689V20.9333L14.3023 20.8889V19.84H14.1689V19.7422L14.4534 19.6978Z" fill="#756863"/>
<path d="M14.6667 20.16C14.7621 20.1189 14.865 20.0977 14.9689 20.0977C15.0424 20.092 15.1154 20.1143 15.1733 20.16C15.1993 20.1868 15.2191 20.2191 15.2314 20.2544C15.2437 20.2897 15.2481 20.3272 15.2444 20.3644V20.8889H15.36V20.9866H15.1111V20.8622C15.0831 20.9012 15.0474 20.934 15.006 20.9585C14.9647 20.983 14.9188 20.9986 14.8711 21.0044C14.8394 21.0058 14.8079 21.0002 14.7786 20.9879C14.7494 20.9756 14.7233 20.957 14.7022 20.9333C14.679 20.9067 14.6615 20.8756 14.6508 20.842C14.6401 20.8083 14.6364 20.7729 14.64 20.7377C14.64 20.56 14.7556 20.4711 14.9867 20.4711H15.1111V20.3377C15.1111 20.2311 15.0578 20.1777 14.96 20.1777H14.8267V20.3111H14.7289L14.6667 20.16ZM15.0933 20.6311H14.9867C14.935 20.612 14.8783 20.612 14.8267 20.6311C14.8089 20.64 14.7942 20.6542 14.7847 20.6716C14.7752 20.6891 14.7712 20.7091 14.7733 20.7289C14.7618 20.7635 14.7618 20.8009 14.7733 20.8355C14.799 20.8459 14.8277 20.8459 14.8533 20.8355H14.9067H14.96H15.0044L15.0933 20.6311Z" fill="#756863"/>
<path d="M16.1062 20.9244V21.0311H15.6973V20.9244H15.8217V19.9555H15.6973V19.8666H16.1062V19.9644H15.9817V20.8889L16.1062 20.9244Z" fill="#756863"/>
<path d="M16.4179 20.1155V20.2311H16.4624H16.5246H16.6046C16.6336 20.2227 16.6644 20.2227 16.6935 20.2311C16.7287 20.2286 16.764 20.2346 16.7965 20.2485C16.8289 20.2624 16.8576 20.2839 16.8801 20.3111C16.923 20.3804 16.9446 20.4607 16.9424 20.5422V21.0222L17.049 21.0666V21.1644H16.6935V21.0666L16.7912 21.0222V20.4444C16.8037 20.3978 16.8037 20.3488 16.7912 20.3022C16.7798 20.2874 16.7649 20.2757 16.7478 20.2679C16.7308 20.2602 16.7121 20.2567 16.6935 20.2577H16.6312H16.5779H16.5335V20.7644L16.6312 20.8089V20.9066H16.249V20.8089L16.3824 20.7644V20.1244H16.249V20.0355L16.4179 20.1155Z" fill="#756863"/>
<path d="M17.8223 19.6977V20.8889H17.9467V20.9866H17.6889V20.8889C17.6575 20.924 17.6192 20.9524 17.5764 20.9723C17.5336 20.9922 17.4872 21.0031 17.44 21.0044C17.3941 21.0054 17.3486 20.9944 17.3081 20.9726C17.2676 20.9508 17.2334 20.9189 17.2089 20.88C17.15 20.7808 17.1222 20.6662 17.1289 20.5511C17.1224 20.4211 17.16 20.2926 17.2356 20.1866C17.27 20.1423 17.3147 20.107 17.3658 20.0838C17.4169 20.0606 17.4729 20.0501 17.5289 20.0533C17.5789 20.0448 17.63 20.0448 17.68 20.0533V19.7689H17.5467V19.6711L17.8223 19.6977ZM17.6711 20.7733V20.2666C17.6185 20.2545 17.5638 20.2545 17.5111 20.2666C17.36 20.2666 17.28 20.3822 17.28 20.6133C17.264 20.6925 17.264 20.7741 17.28 20.8533C17.2938 20.8812 17.3155 20.9045 17.3423 20.9203C17.3692 20.9361 17.4 20.9437 17.4311 20.9422C17.4763 20.9409 17.5199 20.9254 17.5556 20.8977L17.6711 20.7733Z" fill="#756863"/>
<path d="M18.0357 20.16C18.1317 20.1207 18.2342 20.0996 18.3379 20.0978C18.4116 20.0911 18.4849 20.1135 18.5424 20.16C18.5683 20.1869 18.5881 20.2191 18.6004 20.2544C18.6127 20.2897 18.6172 20.3272 18.6135 20.3644V20.8889H18.729V20.9867H18.4979V20.8622C18.4692 20.9005 18.4333 20.9328 18.3921 20.9572C18.3509 20.9816 18.3053 20.9976 18.2579 21.0044C18.2249 21.0066 18.1917 21.0013 18.161 20.989C18.1302 20.9767 18.1026 20.9577 18.0801 20.9333C18.0569 20.9067 18.0394 20.8756 18.0287 20.842C18.018 20.8084 18.0144 20.7729 18.0179 20.7378C18.0179 20.56 18.1335 20.4711 18.3646 20.4711H18.489V20.3378C18.489 20.2311 18.4357 20.1778 18.3468 20.1778H18.2135V20.3111H18.0446L18.0357 20.16ZM18.4624 20.6311H18.3557C18.3041 20.612 18.2473 20.612 18.1957 20.6311C18.1957 20.6311 18.1957 20.6844 18.1957 20.7289C18.1842 20.7635 18.1842 20.8009 18.1957 20.8355C18.2081 20.8418 18.2218 20.845 18.2357 20.845C18.2496 20.845 18.2633 20.8418 18.2757 20.8355H18.329H18.3735L18.4624 20.6311Z" fill="#756863"/>
<path d="M19.0304 19.6978V20.2222C19.0628 20.1851 19.1023 20.155 19.1466 20.1336C19.1909 20.1122 19.2391 20.1 19.2882 20.0978C19.3248 20.0953 19.3614 20.1012 19.3953 20.1151C19.4292 20.1289 19.4594 20.1504 19.4838 20.1778C19.5364 20.2563 19.5614 20.3501 19.5549 20.4444V20.9244L19.6704 20.9689V21.0666H19.2882V20.9689L19.386 20.9244V20.4444C19.398 20.3978 19.398 20.3488 19.386 20.3022C19.3745 20.2874 19.3596 20.2757 19.3426 20.2679C19.3256 20.2602 19.3069 20.2567 19.2882 20.2578H19.1993H19.146H19.0927V20.7644L19.1993 20.8089V20.9066H18.7549V20.8089L18.8882 20.7644V19.84H18.7549V19.7422L19.0304 19.6978Z" fill="#756863"/>
<path d="M19.9912 21.0311V20.9244H20.1157V19.9555H19.9912V19.8666H20.4445C20.4913 19.8632 20.5382 19.8694 20.5825 19.8847C20.6268 19.8999 20.6676 19.924 20.7023 19.9555C20.765 20.0354 20.7991 20.134 20.7991 20.2355C20.7991 20.3371 20.765 20.4357 20.7023 20.5155C20.662 20.5532 20.6144 20.5821 20.5624 20.6004C20.5104 20.6188 20.4551 20.6262 20.4001 20.6222H20.3023V20.9333H20.4268V21.04L19.9912 21.0311ZM20.2757 19.9555V20.4444H20.3734C20.4072 20.4488 20.4414 20.4453 20.4736 20.4344C20.5058 20.4234 20.535 20.4052 20.5591 20.3811C20.5831 20.3571 20.6013 20.3279 20.6123 20.2957C20.6232 20.2635 20.6267 20.2292 20.6223 20.1955C20.625 20.1347 20.6062 20.0749 20.569 20.0266C20.5529 20.004 20.5316 19.9857 20.5068 19.9733C20.482 19.9609 20.4545 19.9548 20.4268 19.9555H20.2757Z" fill="#756863"/>
<path d="M21.5017 20.5955H20.9773C20.9705 20.6747 20.9926 20.7536 21.0395 20.8178C21.0548 20.8464 21.078 20.87 21.1064 20.8858C21.1348 20.9015 21.1671 20.9088 21.1995 20.9066H21.2617H21.3239H21.3773H21.4217L21.4751 20.9955C21.447 21.0273 21.414 21.0543 21.3773 21.0755H21.2795C21.2385 21.0847 21.196 21.0847 21.1551 21.0755C21.1038 21.0784 21.0526 21.0686 21.0061 21.0468C20.9596 21.0251 20.9191 20.9922 20.8884 20.9511C20.8204 20.8519 20.7861 20.7335 20.7906 20.6133C20.7807 20.5485 20.7807 20.4826 20.7906 20.4178C20.8064 20.3596 20.8336 20.3053 20.8706 20.2578C20.8999 20.2156 20.9398 20.1819 20.9862 20.16C21.0357 20.1468 21.0878 20.1468 21.1373 20.16C21.3506 20.16 21.4484 20.2933 21.4484 20.56L21.5017 20.5955ZM20.9862 20.4444H21.3328C21.3471 20.389 21.3471 20.3309 21.3328 20.2755C21.3198 20.2547 21.3013 20.2379 21.2794 20.2269C21.2574 20.2159 21.2329 20.2112 21.2084 20.2133C21.1814 20.2116 21.1545 20.2163 21.1297 20.2271C21.105 20.2379 21.0832 20.2545 21.0662 20.2755C21.0206 20.3208 20.9923 20.3805 20.9862 20.4444Z" fill="#756863"/>
<path d="M21.8133 20.1155V20.24C21.8376 20.1994 21.8712 20.1653 21.9115 20.1405C21.9517 20.1158 21.9973 20.1011 22.0445 20.0978C22.0825 20.0893 22.122 20.0893 22.16 20.0978V20.3467H22.0622V20.2133C22.0169 20.2148 21.9727 20.2278 21.9338 20.2512C21.8949 20.2745 21.8627 20.3074 21.84 20.3467V20.8622L21.9911 20.9067V21.0044H21.5645V20.9067L21.6889 20.8622V20.2222H21.5645V20.1333L21.8133 20.1155Z" fill="#756863"/>
<path d="M22.4528 20.1155V20.2311L22.5061 20.1866L22.5772 20.1422H22.6483H22.7283C22.7742 20.141 22.8194 20.154 22.8576 20.1794C22.8958 20.2049 22.9252 20.2416 22.9417 20.2844L23.0039 20.2311L23.075 20.1866H23.155H23.2172C23.3772 20.1866 23.4572 20.2844 23.4572 20.4977V20.9777L23.5639 21.0222V21.12H23.2083V21.0222L23.3061 20.9777V20.4444C23.32 20.398 23.32 20.3486 23.3061 20.3022C23.2966 20.2875 23.2834 20.2756 23.2677 20.2678C23.2521 20.26 23.2347 20.2565 23.2172 20.2577H23.1106H23.0572H23.0128V20.7644L23.1106 20.8089V20.9066H22.7639V20.8089L22.8617 20.7644V20.4444C22.8746 20.3979 22.8746 20.3487 22.8617 20.3022C22.8522 20.2875 22.8389 20.2756 22.8233 20.2678C22.8077 20.26 22.7902 20.2565 22.7728 20.2577H22.7106H22.6572H22.6039V20.7644L22.7017 20.8089V20.9066H22.2217V20.8089L22.3461 20.7644V20.1244H22.2217V20.0355L22.4528 20.1155Z" fill="#756863"/>
<path d="M23.6713 20.16C23.7673 20.1207 23.8698 20.0996 23.9735 20.0978C24.0472 20.0911 24.1205 20.1135 24.178 20.16C24.204 20.1869 24.2238 20.2191 24.236 20.2544C24.2483 20.2897 24.2528 20.3272 24.2491 20.3644V20.8889H24.3647V20.9867H24.1335V20.8622C24.1056 20.9012 24.0698 20.934 24.0285 20.9585C23.9872 20.983 23.9412 20.9986 23.8935 21.0044C23.8605 21.0066 23.8274 21.0013 23.7966 20.989C23.7658 20.9767 23.7382 20.9577 23.7158 20.9333C23.6729 20.8774 23.6508 20.8082 23.6535 20.7378C23.6535 20.56 23.7691 20.4711 24.0002 20.4711H24.1247V20.3378C24.1247 20.2311 24.0802 20.1778 23.9824 20.1778H23.8491V20.3111H23.7513L23.6713 20.16ZM24.098 20.6311H24.0002C23.9481 20.6147 23.8923 20.6147 23.8402 20.6311C23.8402 20.6311 23.8402 20.6844 23.8402 20.7289C23.8287 20.7635 23.8287 20.8009 23.8402 20.8355C23.8526 20.8418 23.8663 20.845 23.8802 20.845C23.8941 20.845 23.9078 20.8418 23.9202 20.8355H23.9735H24.0269H24.0713L24.098 20.6311Z" fill="#756863"/>
<path d="M24.6135 19.7067C24.6757 19.7067 24.7113 19.7067 24.7113 19.84C24.7176 19.8524 24.7208 19.8661 24.7208 19.88C24.7208 19.8939 24.7176 19.9076 24.7113 19.92C24.6884 19.9289 24.6631 19.9289 24.6402 19.92C24.6303 19.9242 24.6198 19.9263 24.6091 19.9263C24.5984 19.9263 24.5878 19.9242 24.578 19.92C24.5691 19.891 24.5691 19.8601 24.578 19.8311C24.5721 19.817 24.5691 19.8019 24.5691 19.7867C24.5691 19.7714 24.5721 19.7563 24.578 19.7422C24.5857 19.7269 24.5982 19.7144 24.6135 19.7067ZM24.6935 20.1156V20.8889L24.8091 20.9333V21.0311H24.418V20.9333L24.5424 20.8889V20.2489H24.418V20.16L24.6935 20.1156Z" fill="#756863"/>
<path d="M25.7776 20.9244V21.0311H25.3243V20.9244H25.4754V19.9555H25.2443V20.1333H25.1465V19.8222H25.9731V20.1333H25.8754V19.9555H25.6709V20.8889L25.7776 20.9244Z" fill="#756863"/>
<path d="M26.1507 19.6978V20.1955C26.2118 20.1337 26.2949 20.0985 26.3818 20.0978C26.4285 20.0943 26.4752 20.1031 26.5173 20.1234C26.5594 20.1437 26.5955 20.1747 26.6218 20.2133C26.6774 20.3168 26.7021 20.434 26.693 20.5511C26.7028 20.6159 26.7028 20.6818 26.693 20.7466C26.6772 20.8048 26.65 20.8592 26.613 20.9066C26.5823 20.9511 26.5389 20.9852 26.4885 21.0044C26.4334 21.0325 26.3726 21.0477 26.3107 21.0489H26.1685H26.0618V19.84H25.9463V19.7422L26.1507 19.6978ZM26.1507 20.8889C26.2038 20.8966 26.2577 20.8966 26.3107 20.8889C26.3457 20.8979 26.3824 20.8979 26.4174 20.8889C26.4454 20.8699 26.4695 20.8458 26.4885 20.8178C26.4948 20.7825 26.4948 20.7464 26.4885 20.7111C26.4934 20.6638 26.4934 20.6161 26.4885 20.5689C26.4902 20.4867 26.475 20.405 26.4441 20.3289C26.4303 20.301 26.4086 20.2777 26.3818 20.2619C26.3549 20.2461 26.3241 20.2385 26.293 20.24C26.2558 20.2256 26.2146 20.2256 26.1774 20.24C26.1464 20.262 26.1194 20.289 26.0974 20.32L26.1507 20.8889Z" fill="#756863"/>
<path d="M27.0216 19.6978V20.4444H27.155L27.2616 20.2311H27.1994V20.1422H27.555V20.24H27.4483L27.2883 20.4978L27.4839 20.8889L27.5994 20.9333V21.0311H27.395L27.1816 20.5866H27.0216V20.8889L27.1194 20.9333V21.0311H26.7461V20.9333L26.8705 20.8889V19.84H26.7461V19.7422L27.0216 19.6978Z" fill="#756863"/>
</g>
<defs>
<clipPath id="clip0_2707_364678">
<rect width="32" height="32" fill="white"/>
</clipPath>
</defs>
</svg>
