<svg width="32" height="32" viewBox="0 0 32 32" fill="none" xmlns="http://www.w3.org/2000/svg">
<g clip-path="url(#clip0_2707_364583)">
<path d="M15.9998 31.9822C24.8265 31.9822 31.982 24.8267 31.982 16C31.982 7.17325 24.8265 0.0177612 15.9998 0.0177612C7.17306 0.0177612 0.0175781 7.17325 0.0175781 16C0.0175781 24.8267 7.17306 31.9822 15.9998 31.9822Z" fill="white"/>
<path d="M13.5376 26.3911L13.662 26.4444C13.8192 26.4873 13.9565 26.5834 14.0506 26.7164C14.1446 26.8493 14.1895 27.0109 14.1776 27.1733C14.1669 27.3519 14.0946 27.5213 13.9731 27.6526C13.8515 27.7839 13.6882 27.8689 13.5109 27.8933C13.2167 27.9378 12.9196 27.9615 12.622 27.9644C12.1332 27.9644 11.6443 27.9644 11.1465 27.9644V24.9866C11.8665 24.9866 12.5954 24.9866 13.3154 24.9866C13.4678 24.99 13.6155 25.0405 13.7381 25.1312C13.8606 25.222 13.9521 25.3485 13.9998 25.4933C14.0587 25.6449 14.0584 25.8131 13.9992 25.9645C13.9399 26.116 13.8259 26.2397 13.6798 26.3111L13.5376 26.3911ZM12.1065 27.28C12.3909 27.28 12.6576 27.28 12.9154 27.28C12.9854 27.2777 13.0519 27.2489 13.1015 27.1994C13.151 27.1499 13.1798 27.0833 13.182 27.0133C13.1832 26.9794 13.1777 26.9457 13.1659 26.914C13.154 26.8822 13.136 26.8531 13.1129 26.8284C13.0898 26.8036 13.062 26.7836 13.0311 26.7696C13.0003 26.7556 12.967 26.7478 12.9332 26.7466C12.6665 26.7466 12.3909 26.7466 12.1065 26.7022V27.28ZM12.1065 26.1689C12.3465 26.1689 12.5776 26.1689 12.7998 26.1689C12.8643 26.1666 12.9253 26.1393 12.9701 26.0929C13.0149 26.0465 13.0399 25.9845 13.0398 25.92C13.0422 25.8861 13.0379 25.8521 13.0272 25.8199C13.0164 25.7877 12.9994 25.7579 12.9771 25.7323C12.9548 25.7067 12.9276 25.6858 12.8972 25.6707C12.8668 25.6556 12.8337 25.6467 12.7998 25.6444C12.5687 25.6444 12.3465 25.6444 12.1065 25.6444V26.1689Z" fill="#CF302A"/>
<path d="M16.4084 26.9866L17.2973 26.9244C17.3068 26.9733 17.3217 27.021 17.3418 27.0666C17.3588 27.1407 17.392 27.21 17.439 27.2697C17.486 27.3294 17.5456 27.3779 17.6136 27.4119C17.6815 27.4459 17.7561 27.4644 17.8321 27.4662C17.908 27.468 17.9834 27.4529 18.0529 27.4222C18.1158 27.4071 18.1723 27.3721 18.2139 27.3225C18.2555 27.2729 18.28 27.2113 18.284 27.1466C18.2881 27.0806 18.2691 27.0151 18.2301 26.9616C18.1912 26.908 18.1348 26.8697 18.0706 26.8533L17.1551 26.5777C16.9739 26.5391 16.8115 26.4395 16.695 26.2955C16.5784 26.1515 16.5149 25.9719 16.5149 25.7866C16.5149 25.6014 16.5784 25.4218 16.695 25.2778C16.8115 25.1338 16.9739 25.0341 17.1551 24.9955C17.6306 24.8532 18.1374 24.8532 18.6129 24.9955C18.7842 25.0454 18.9348 25.1494 19.0422 25.292C19.1495 25.4346 19.2079 25.6082 19.2084 25.7866H18.3195C18.3091 25.7224 18.2855 25.661 18.2502 25.6063C18.2149 25.5516 18.1687 25.5048 18.1144 25.4689C18.0601 25.433 17.999 25.4087 17.9348 25.3976C17.8707 25.3865 17.8049 25.3888 17.7418 25.4044C17.6791 25.4038 17.6184 25.426 17.571 25.4669C17.5235 25.5078 17.4926 25.5646 17.484 25.6266C17.484 25.7689 17.5818 25.8133 17.6884 25.84C17.9729 25.9111 18.2573 25.9733 18.5773 26.0533C18.7324 26.0812 18.8795 26.1426 19.0085 26.2332C19.1374 26.3237 19.2451 26.4413 19.324 26.5777C19.3848 26.7064 19.4156 26.8472 19.4142 26.9895C19.4128 27.1317 19.3792 27.2719 19.3159 27.3993C19.2526 27.5267 19.1613 27.6382 19.0487 27.7253C18.9362 27.8124 18.8054 27.8729 18.6662 27.9022C18.1354 28.0974 17.5525 28.0974 17.0218 27.9022C16.8379 27.831 16.6804 27.705 16.5706 27.5412C16.4609 27.3774 16.4043 27.1838 16.4084 26.9866Z" fill="#CD312B"/>
<path d="M15.7511 24.9778H14.7822V27.9733H15.7511V24.9778Z" fill="#CF302A"/>
<path d="M20.8799 27.9467H20.6399H19.9199V24.9778H20.8799C20.8799 24.9778 20.871 27.9022 20.8799 27.9467Z" fill="#CF302A"/>
<path d="M16.0624 22.2222C16.0213 21.2517 16.2133 20.2855 16.6224 19.4045C17.4589 17.1472 19.1247 15.2939 21.2802 14.2222C22.6193 13.5422 24.0983 13.1831 25.6002 13.1733C26.0091 13.1733 26.0446 13.1733 26.018 13.6445C25.9651 15.1234 25.5835 16.5721 24.9008 17.8852C24.2182 19.1982 23.2516 20.3427 22.0713 21.2356C21.0602 22.0558 19.8919 22.6603 18.6384 23.0119C17.3848 23.3635 16.0726 23.4547 14.7824 23.28C12.4843 23.0134 10.3567 21.9354 8.78242 20.24C7.38932 18.8012 6.46033 16.9773 6.11576 15.0045C6.0445 14.5392 5.99998 14.0703 5.98242 13.6C5.98242 13.1822 5.98242 13.1733 6.37353 13.1733C7.77817 13.1783 9.16576 13.4813 10.4446 14.0622C12.0516 14.8 13.4146 15.981 14.3735 17.4667C15.1833 18.6593 15.6981 20.0272 15.8758 21.4578C15.9208 21.7165 15.9831 21.9719 16.0624 22.2222Z" fill="#05A451"/>
<path d="M19.3241 10.9689C19.346 12.2884 19.1005 13.5987 18.6025 14.8208C18.1045 16.0429 17.3642 17.1516 16.4263 18.08C16.3641 18.1422 16.2752 18.1955 16.213 18.2577C16.0441 18.4711 15.9108 18.4444 15.7152 18.2577C14.6478 17.2209 13.8327 15.9528 13.333 14.5511C12.8661 13.2866 12.6714 11.9378 12.7618 10.5928C12.8522 9.24793 13.2255 7.93727 13.8575 6.74663C14.3499 5.817 14.9625 4.95627 15.6797 4.18663C15.9552 3.88441 16.213 3.86663 16.4886 4.18663C17.5113 5.25763 18.3012 6.52874 18.8086 7.91996C19.1553 8.89884 19.3297 9.9304 19.3241 10.9689Z" fill="#E91D26"/>
</g>
<defs>
<clipPath id="clip0_2707_364583">
<rect width="32" height="32" fill="white"/>
</clipPath>
</defs>
</svg>
