<svg width="32" height="32" viewBox="0 0 32 32" fill="none" xmlns="http://www.w3.org/2000/svg">
<g clip-path="url(#clip0_2707_364153)">
<path d="M15.9998 32.2578C24.8265 32.2578 31.982 25.1023 31.982 16.2756C31.982 7.44882 24.8265 0.293335 15.9998 0.293335C7.17306 0.293335 0.0175781 7.44882 0.0175781 16.2756C0.0175781 25.1023 7.17306 32.2578 15.9998 32.2578Z" fill="white"/>
<path d="M22.9956 12.6667C23.4532 12.2682 23.9341 11.8971 24.4356 11.5556C25.0029 11.1764 25.684 11.0055 26.363 11.072C27.042 11.1384 27.6771 11.4381 28.1601 11.92C28.5684 12.3275 28.9429 12.7675 29.2801 13.2356C29.3423 13.3067 29.2801 13.4489 29.3245 13.5645C29.2196 13.5333 29.1206 13.4853 29.0312 13.4222C28.8712 13.2711 28.7378 13.0933 28.5867 12.9422C28.1889 12.4745 27.6327 12.1698 27.0244 12.0861C26.4161 12.0025 25.7983 12.1459 25.289 12.4889C24.6375 12.9298 24.0141 13.4107 23.4223 13.9289C22.9699 14.3483 22.4951 14.743 22.0001 15.1111C21.3445 15.5853 20.5468 15.8217 19.7388 15.7813C18.9307 15.7409 18.1606 15.4261 17.5556 14.8889C17.1823 14.5956 16.8623 14.2311 16.5156 13.9022L16.8001 13.6445C17.3381 14.2785 18.0984 14.6825 18.925 14.7734C19.7516 14.8643 20.5816 14.6353 21.2445 14.1333C21.7778 13.7778 22.2401 13.3333 22.7378 12.9333L22.9956 13.0222V12.6667Z" fill="#B72227"/>
<path d="M22.9951 12.6667V12.9778L22.7373 12.8889C22.3882 12.5142 22.014 12.1638 21.6173 11.84C21.2056 11.5581 20.7148 11.4147 20.2161 11.4306C19.7174 11.4466 19.2367 11.6212 18.844 11.9289C18.1277 12.4457 17.4421 13.0037 16.7906 13.6L16.5062 13.8578C16.0998 14.1519 15.6785 14.4249 15.244 14.6756C14.6118 15.0325 13.8831 15.1808 13.1617 15.0994C12.4403 15.018 11.7629 14.711 11.2262 14.2222C10.8884 13.9556 10.604 13.6178 10.2928 13.3333C10.1417 13.1378 9.97284 12.96 9.83951 12.7556C9.74838 12.6058 9.67103 12.4482 9.6084 12.2845C9.73362 12.3214 9.85324 12.3753 9.96395 12.4445C10.1773 12.6489 10.3551 12.88 10.5506 13.0933C10.8929 13.5206 11.342 13.85 11.8523 14.0482C12.3627 14.2464 12.9163 14.3065 13.4573 14.2222C14.3627 14.0428 15.1964 13.6043 15.8573 12.96L16.0884 12.7556C16.6128 12.3111 17.1195 11.8667 17.6528 11.4222C18.227 10.9232 18.9407 10.6128 19.6973 10.5333C20.1353 10.5317 20.5688 10.6219 20.9699 10.7979C21.371 10.974 21.7308 11.2321 22.0262 11.5556C22.3728 11.9111 22.6662 12.3022 22.9951 12.6667Z" fill="#23346B"/>
<path d="M9.60822 12.3111C9.66782 12.4746 9.7422 12.6323 9.83044 12.7822C9.97267 12.9867 10.1416 13.1645 10.2927 13.36C9.93711 13.6533 9.59933 13.9733 9.23489 14.2489C8.70874 14.6627 8.10387 14.9652 7.45711 15.1378C7.01196 15.2423 6.54999 15.2536 6.10026 15.171C5.65052 15.0884 5.22273 14.9137 4.84378 14.6578C4.01963 14.171 3.31497 13.5059 2.78155 12.7111C2.71044 12.6045 2.64822 12.3467 2.69267 12.32C2.88822 12.1867 2.95933 12.4089 3.066 12.5156C3.38274 12.8708 3.71803 13.209 4.07044 13.5289C4.56459 13.9507 5.18121 14.2026 5.82937 14.2474C6.47753 14.2923 7.12295 14.1276 7.67044 13.7778C8.18177 13.4574 8.67169 13.1041 9.13711 12.72C9.29711 12.5956 9.44822 12.4445 9.60822 12.3111Z" fill="#B72227"/>
<path d="M10.578 13.0933C10.3824 12.88 10.2046 12.6489 9.9913 12.4444C9.88058 12.3752 9.76097 12.3214 9.63574 12.2844C10.1858 11.7067 10.8364 11.2338 11.5557 10.8889C12.1407 10.6002 12.8035 10.5091 13.4447 10.6293C14.0858 10.7495 14.6707 11.0746 15.1113 11.5555C15.4644 11.9405 15.7967 12.3441 16.1069 12.7644L15.8669 12.9778C15.6357 12.7289 15.4135 12.4622 15.1557 12.2311C14.8303 11.9156 14.4215 11.6995 13.9775 11.6081C13.5335 11.5168 13.0727 11.5541 12.6491 11.7155C11.8689 12.0229 11.163 12.4926 10.578 13.0933Z" fill="#B72227"/>
<path d="M5.11975 16.8V17.9644C5.11975 17.8578 5.05753 17.7422 5.02197 17.6267C4.95761 17.4085 4.81206 17.2233 4.61529 17.1092C4.41852 16.9951 4.1855 16.9608 3.96419 17.0133C3.78613 17.1002 3.64222 17.2442 3.5553 17.4222C3.51902 17.5132 3.51908 17.6147 3.55547 17.7057C3.59186 17.7967 3.66181 17.8702 3.75086 17.9111L4.87975 18.5955C5.01288 18.663 5.12914 18.7596 5.21992 18.878C5.3107 18.9965 5.37367 19.1339 5.40419 19.28C5.42423 19.4112 5.41659 19.5451 5.38177 19.6732C5.34694 19.8012 5.28569 19.9206 5.20197 20.0236C5.11825 20.1266 5.01391 20.2109 4.89565 20.2711C4.77738 20.3313 4.64783 20.3662 4.5153 20.3733C4.21558 20.3687 3.91736 20.3299 3.62642 20.2578C3.34197 20.1955 3.34197 20.1778 3.1553 20.3911V19.2355H3.19975L3.29753 19.5378C3.37519 19.781 3.54575 19.9838 3.77214 20.102C3.99852 20.2202 4.26241 20.2442 4.50642 20.1689C4.59801 20.1469 4.68198 20.1006 4.74951 20.0349C4.81704 19.9692 4.86564 19.8866 4.89019 19.7957C4.91475 19.7047 4.91436 19.6088 4.88906 19.5181C4.86376 19.4274 4.81448 19.3451 4.74642 19.28C4.5645 19.1345 4.3713 19.0037 4.16864 18.8889C3.91115 18.7394 3.6619 18.5762 3.42197 18.4C3.28421 18.303 3.18188 18.1637 3.13054 18.0033C3.0792 17.8428 3.08165 17.67 3.13753 17.5111C3.18955 17.3322 3.29649 17.1741 3.44324 17.0593C3.58999 16.9444 3.76911 16.8786 3.9553 16.8711C4.17749 16.852 4.40112 16.8579 4.62197 16.8889C4.81753 16.9511 4.9953 17.0755 5.11975 16.8Z" fill="#25366E"/>
<path d="M22.4618 19.4578C22.4249 19.6225 22.3503 19.7765 22.2439 19.9076C22.1374 20.0387 22.0021 20.1433 21.8485 20.2133C21.6186 20.3372 21.3624 20.4043 21.1013 20.4089C20.8402 20.4135 20.5817 20.3555 20.3476 20.2397C20.1135 20.124 19.9106 19.9539 19.7557 19.7436C19.6008 19.5333 19.4985 19.289 19.4574 19.0311C19.3546 18.6213 19.3966 18.1885 19.5765 17.8062C19.7563 17.4239 20.0628 17.1155 20.444 16.9333C20.6541 16.8408 20.8812 16.793 21.1107 16.793C21.3403 16.793 21.5673 16.8408 21.7774 16.9333C22.1063 17.0578 22.1063 17.0667 22.3463 16.7733C22.3463 17.1911 22.4085 17.5645 22.4352 17.9467H22.3818C22.3547 17.9042 22.3309 17.8596 22.3107 17.8133C22.2492 17.5534 22.0996 17.3229 21.8873 17.1608C21.6751 16.9987 21.4132 16.9152 21.1463 16.9245C20.8807 16.9273 20.6254 17.0275 20.4287 17.2061C20.2321 17.3847 20.1079 17.6292 20.0796 17.8933C20.0085 18.3141 20.0085 18.7437 20.0796 19.1645C20.1158 19.3871 20.2212 19.5928 20.3807 19.7523C20.5402 19.9118 20.7458 20.0171 20.9685 20.0533C21.1836 20.1296 21.416 20.1426 21.6382 20.0906C21.8604 20.0386 22.063 19.9238 22.2218 19.76L22.4618 19.4578Z" fill="#26376E"/>
<path d="M8.5332 18.1955L9.32431 17.8755V18.3644C9.48431 18.24 9.60876 18.1244 9.75098 18.0355C9.83431 17.963 9.93695 17.9163 10.0464 17.9011C10.1558 17.8859 10.2673 17.903 10.3672 17.9501C10.4671 17.9972 10.5512 18.0724 10.6091 18.1665C10.667 18.2606 10.6962 18.3696 10.6932 18.48C10.6932 18.9067 10.6932 19.3689 10.6932 19.7778C10.6932 20.0178 10.6932 20.2489 11.031 20.2844H9.93765C9.97534 20.2606 10.0178 20.2454 10.0621 20.24C10.2488 20.24 10.311 20.1155 10.311 19.9555C10.311 19.5378 10.311 19.12 10.311 18.7111C10.311 18.3022 10.151 18.24 9.92876 18.2489C9.78527 18.2497 9.6469 18.3023 9.53912 18.3971C9.43133 18.4918 9.36136 18.6222 9.34209 18.7644V19.7155C9.34209 19.9822 9.27987 20.2933 9.78654 20.24L9.71543 20.3111H8.57765C8.96876 20.2489 8.90654 19.9555 8.91542 19.6978C8.92431 19.44 8.91542 19.0222 8.91542 18.6933C8.91542 18.3644 8.88876 18.1778 8.5332 18.1955Z" fill="#283970"/>
<path d="M14.5064 18H15.2886V19.3067C15.2886 19.4222 15.2886 19.5378 15.2886 19.6622C15.2886 20.0267 15.2886 20.0267 15.7331 20.0711L14.8442 20.4178V19.9022C14.6931 20.0356 14.5864 20.1422 14.4709 20.2311C14.3911 20.3111 14.2897 20.3659 14.1792 20.3889C14.0686 20.4118 13.9538 20.4019 13.8488 20.3603C13.7438 20.3187 13.6534 20.2472 13.5886 20.1547C13.5238 20.0623 13.4875 19.9529 13.4842 19.84C13.4397 19.4578 13.4842 19.0667 13.4397 18.6756C13.3953 18.2844 13.5553 18.0356 13.0664 18H13.8664V19.5556C13.8664 19.8844 13.9909 20.0356 14.2486 20.0444C14.3937 20.0363 14.5317 19.9791 14.6399 19.8822C14.7482 19.7853 14.8202 19.6544 14.8442 19.5111V18.6667C14.8709 18.3822 14.9509 18.0622 14.5064 18Z" fill="#25366E"/>
<path d="M26.4355 18H27.4844C27.3955 18.0889 27.2622 18.1689 27.2444 18.2667C27.2517 18.3904 27.2916 18.51 27.36 18.6133L27.8844 19.6889C28.08 19.2178 28.2489 18.8 28.4178 18.3733C28.4889 18.1867 28.4178 18.0533 28.2222 18.0089H28.9067C28.7863 18.1843 28.6793 18.3685 28.5867 18.56C28.2844 19.2622 28.0178 19.9822 27.6978 20.6756C27.5714 20.9221 27.4029 21.1447 27.2 21.3333C27.0925 21.4122 26.959 21.4472 26.8267 21.4311C26.64 21.4311 26.5155 21.2978 26.56 21.1022C26.6044 20.9067 26.7555 20.8889 26.9244 20.9333C27.28 21.0311 27.3244 21.0044 27.4933 20.6667C27.5812 20.5351 27.6281 20.3804 27.6281 20.2222C27.6281 20.064 27.5812 19.9093 27.4933 19.7778C27.2978 19.44 27.1467 19.0667 26.9778 18.7111C26.8089 18.3556 26.7555 18.1511 26.4355 18Z" fill="#27376F"/>
<path d="M8.0887 18.8622H6.47981C6.45367 19.0846 6.50126 19.3094 6.61528 19.5021C6.72929 19.6948 6.90343 19.8448 7.11092 19.9289C7.58204 20.0711 7.86648 19.84 8.06204 19.4045C8.08442 19.6376 8.01388 19.8702 7.86574 20.0516C7.7176 20.233 7.50384 20.3487 7.27093 20.3733C7.05017 20.4049 6.82527 20.3594 6.63419 20.2444C6.44311 20.1294 6.29753 19.9521 6.22204 19.7422C6.10564 19.4712 6.07477 19.171 6.13354 18.8819C6.19231 18.5928 6.33793 18.3286 6.55092 18.1245C6.69549 18.0055 6.87118 17.9305 7.05712 17.9084C7.24306 17.8864 7.43142 17.9182 7.59981 18C7.75771 18.0789 7.88852 18.2031 7.97559 18.3567C8.06266 18.5102 8.10204 18.6862 8.0887 18.8622ZM7.5287 18.6667C7.5287 18.2933 7.35092 18.0622 7.0487 18.0533C6.97229 18.0553 6.89712 18.0732 6.82798 18.1058C6.75883 18.1383 6.69722 18.185 6.64706 18.2426C6.59691 18.3003 6.5593 18.3678 6.53662 18.4408C6.51395 18.5138 6.50671 18.5907 6.51537 18.6667H7.5287Z" fill="#283970"/>
<path d="M17.2618 20.2933H16.1596C16.5507 20.2133 16.5062 19.9111 16.5062 19.6356C16.5062 18.88 16.5062 18.1245 16.5062 17.36C16.5062 17.04 16.444 17.0045 16.124 16.9778L16.9151 16.6489V19.6889C16.9151 19.9467 16.8707 20.2489 17.3418 20.2222L17.2618 20.2933Z" fill="#23346B"/>
<path d="M25.538 18.1511C25.538 18.72 25.538 19.2533 25.538 19.7955C25.5413 19.8427 25.556 19.8883 25.5808 19.9285C25.6055 19.9688 25.6396 20.0024 25.6802 20.0267C25.7725 20.0378 25.866 20.0191 25.9469 19.9733C26 19.9348 26.0452 19.8866 26.0802 19.8311C26.0734 19.9687 26.0146 20.0986 25.9155 20.1944C25.8164 20.2901 25.6846 20.3446 25.5469 20.3467C25.4858 20.3456 25.4255 20.3321 25.3698 20.3072C25.314 20.2822 25.2638 20.2462 25.2223 20.2014C25.1808 20.1566 25.1488 20.1038 25.1282 20.0463C25.1076 19.9888 25.0988 19.9277 25.1024 19.8667C25.1024 19.3955 25.1024 18.9333 25.1024 18.4622V18.1422H24.7646L25.5024 17.2533V17.9911C25.6624 17.9911 25.778 17.9911 25.9024 17.9911C25.9626 18.0086 26.0197 18.0356 26.0713 18.0711C26.0168 18.1095 25.9569 18.1394 25.8935 18.16L25.538 18.1511Z" fill="#27386F"/>
<path d="M11.7869 18.16H11.458L12.1869 17.2711V18C12.3558 18 12.4891 18 12.6136 18C12.6654 18.0179 12.7136 18.045 12.7558 18.08C12.7558 18.08 12.6758 18.16 12.6313 18.1689H12.2136C12.2136 18.7378 12.2136 19.2889 12.2136 19.8489C12.2136 20.0622 12.4358 20.1422 12.6136 20C12.7913 19.8578 12.6936 19.8845 12.7469 19.84C12.7423 19.9792 12.6844 20.1113 12.5851 20.2089C12.4858 20.3066 12.3528 20.3622 12.2136 20.3645C11.9469 20.3645 11.7869 20.1778 11.778 19.8489C11.778 19.28 11.7869 18.7289 11.7869 18.16Z" fill="#25366E"/>
<path d="M24.2755 20.3022H23.1732C23.6355 20.1955 23.511 19.8311 23.5199 19.5289C23.5288 19.2267 23.5199 18.9333 23.5199 18.64C23.5199 18.3467 23.5199 18.2667 23.1377 18.2044L23.9466 17.8755V19.7689C23.9466 20.0089 23.9466 20.2667 24.3466 20.2222L24.2755 20.3022Z" fill="#2B3B73"/>
<path d="M24 17.0044C23.9023 17.0755 23.7956 17.2089 23.7156 17.1911C23.6569 17.1751 23.6036 17.1435 23.5613 17.0997C23.5191 17.0559 23.4895 17.0015 23.4756 16.9422C23.49 16.8842 23.5199 16.8311 23.5622 16.7889C23.6045 16.7466 23.6575 16.7166 23.7156 16.7022C23.7956 16.7022 23.9023 16.8178 24 16.8889V17.0044Z" fill="#27386F"/>
</g>
<defs>
<clipPath id="clip0_2707_364153">
<rect width="32" height="32" fill="white"/>
</clipPath>
</defs>
</svg>
