<svg width="32" height="32" viewBox="0 0 32 32" fill="none" xmlns="http://www.w3.org/2000/svg">
<g clip-path="url(#clip0_2707_364073)">
<path d="M15.9998 31.9822C24.8265 31.9822 31.982 24.8267 31.982 16C31.982 7.17326 24.8265 0.0177765 15.9998 0.0177765C7.17306 0.0177765 0.0175781 7.17326 0.0175781 16C0.0175781 24.8267 7.17306 31.9822 15.9998 31.9822Z" fill="white"/>
<path d="M17.0045 18.0889L17.7779 18.6667C17.2534 19.0489 16.9779 19.0222 16.3912 18.5067C15.9669 18.7107 15.5021 18.8167 15.0312 18.8167C14.5604 18.8167 14.0955 18.7107 13.6712 18.5067C13.0956 18.2368 12.6354 17.7703 12.3734 17.1911C12.0942 16.5859 12.0302 15.9034 12.1918 15.2568C12.3535 14.6102 12.7312 14.0382 13.2623 13.6356C13.8263 13.2527 14.5034 13.0724 15.1831 13.1241C15.8628 13.1757 16.5049 13.4563 17.0045 13.92C18.009 15.0133 18.0534 16.5422 17.0045 18.0889ZM16.3823 17.3422C16.6224 16.9917 16.7632 16.5827 16.7898 16.1586C16.8165 15.7345 16.7278 15.3112 16.5334 14.9333C16.4124 14.6844 16.2349 14.4671 16.0151 14.2989C15.7952 14.1306 15.5392 14.016 15.2672 13.9642C14.9953 13.9124 14.715 13.9249 14.4487 14.0005C14.1825 14.0762 13.9375 14.213 13.7334 14.4C13.519 14.6131 13.3488 14.8666 13.2326 15.1457C13.1165 15.4249 13.0567 15.7243 13.0567 16.0267C13.0567 16.329 13.1165 16.6284 13.2326 16.9076C13.3488 17.1867 13.519 17.4402 13.7334 17.6533C13.9934 17.8849 14.3198 18.0284 14.6662 18.0635C15.0126 18.0986 15.3612 18.0235 15.6623 17.8489L14.7112 16.8889C15.4579 16.4089 15.9112 16.8889 16.3734 17.3689L16.3823 17.3422Z" fill="#222B56"/>
<path d="M28.3638 15.9378C28.5698 16.0085 28.757 16.1253 28.911 16.2794C29.0651 16.4334 29.1819 16.6206 29.2526 16.8267C29.3404 17.1226 29.3248 17.4396 29.2085 17.7255C29.0922 18.0114 28.882 18.2493 28.6126 18.4C28.298 18.5739 27.9491 18.677 27.5904 18.7022C26.5415 18.7022 25.4926 18.7022 24.4082 18.7022V13.3333C24.5 13.3273 24.592 13.3273 24.6838 13.3333C25.5726 13.3333 26.4615 13.3333 27.2971 13.3333C27.6023 13.3411 27.9035 13.4044 28.186 13.52C28.3974 13.6058 28.5831 13.7447 28.725 13.9234C28.8669 14.102 28.9603 14.3143 28.9961 14.5396C29.0318 14.765 29.0088 14.9957 28.9292 15.2095C28.8495 15.4233 28.716 15.613 28.5415 15.76L28.3638 15.9378ZM25.6526 15.5733C26.1504 15.5733 26.6126 15.5733 27.0749 15.5733C27.2531 15.5786 27.4308 15.5515 27.5993 15.4933C27.7623 15.4511 27.9032 15.3489 27.9939 15.2071C28.0846 15.0653 28.1183 14.8945 28.0882 14.7289C28.0813 14.5678 28.0111 14.4159 27.893 14.3061C27.7749 14.1963 27.6183 14.1374 27.4571 14.1422C26.7549 14.1422 26.0526 14.1422 25.3326 14.1422V17.8667C26.106 17.8667 26.8704 17.8667 27.6349 17.8667C27.7816 17.851 27.9221 17.7991 28.0438 17.7155C28.1385 17.6667 28.2186 17.5936 28.276 17.5038C28.3333 17.4139 28.3659 17.3105 28.3705 17.204C28.375 17.0975 28.3512 16.9917 28.3017 16.8973C28.2521 16.803 28.1785 16.7234 28.0882 16.6667C27.8299 16.5238 27.546 16.4332 27.2526 16.4C26.9835 16.3778 26.7129 16.3778 26.4438 16.4C25.8838 16.4 25.706 16.2222 25.6526 15.5911V15.5733Z" fill="#222B56"/>
<path d="M23.458 18.6667C23.2298 18.7347 22.9857 18.7263 22.7627 18.6429C22.5397 18.5595 22.35 18.4055 22.2225 18.2045C21.3336 17.0489 20.4447 15.92 19.4758 14.7111V18.6667H18.5869V13.3333C18.8413 13.2231 19.1276 13.2112 19.3903 13.2998C19.6531 13.3885 19.8735 13.5715 20.0091 13.8133L22.1869 16.6133C22.2847 16.7378 22.3914 16.8533 22.4891 16.9689H22.578V13.3333H23.4669L23.458 18.6667Z" fill="#222B56"/>
<path d="M7.40438 13.9022L8.88882 12.3911L9.53771 12.8356C9.4696 12.9512 9.39232 13.0612 9.3066 13.1644C8.6666 13.8133 7.99993 14.4533 7.36882 15.1111C7.02216 15.44 6.76438 15.4489 6.47993 15.1111C5.75105 14.4533 5.08438 13.7778 4.44438 13.1111C4.39105 13.0578 4.35549 12.9689 4.2666 12.8444L4.80882 12.4444L6.32882 13.9556L6.45327 13.8756V11.9378H7.27993V13.8311L7.40438 13.9022Z" fill="url(#paint0_linear_2707_364073)"/>
<path fill-rule="evenodd" clip-rule="evenodd" d="M7.39543 13.76V11.8311H6.33766V13.8044L4.81766 12.2933L4.09766 12.8267L4.15099 12.9067C4.20516 13.0086 4.27077 13.104 4.34654 13.1911C5.01321 13.8578 5.67988 14.5244 6.35543 15.1822C6.49402 15.3404 6.68821 15.4391 6.89766 15.4578C7.10638 15.4302 7.29853 15.3294 7.43988 15.1733C8.09766 14.5333 8.74655 13.8844 9.38655 13.2444C9.47837 13.1355 9.56159 13.0196 9.63543 12.8978L9.70654 12.8089L8.88877 12.2489L7.39543 13.76ZM7.22654 14.2222L8.88877 12.5333L9.37766 12.8622C9.3322 12.9417 9.27857 13.0161 9.21766 13.0844C8.56877 13.7333 7.92877 14.3822 7.27099 15.0133C7.17468 15.1357 7.03429 15.2155 6.87988 15.2356C6.80381 15.2277 6.73007 15.2047 6.66293 15.1681C6.5958 15.1315 6.5366 15.0819 6.48877 15.0222C5.81321 14.3733 5.14654 13.7067 4.47988 13.04L4.37321 12.88L4.77321 12.5778L6.48877 14.1689L6.55988 12.0533H7.17321L7.22654 14.2222Z" fill="#8E9391"/>
<path d="M3.69768 18.6667L3.1999 17.9733L4.77324 16.4356H2.79102V15.6445H4.77324L3.22657 14.0533L3.6799 13.3333C3.83102 13.4667 3.93768 13.5378 4.03546 13.6356L5.87546 15.4756C6.22213 15.8311 6.24879 16.0889 5.87546 16.4356C5.20879 17.1467 4.51546 17.8311 3.83102 18.5156C3.79508 18.5728 3.75004 18.6239 3.69768 18.6667Z" fill="url(#paint1_linear_2707_364073)"/>
<path fill-rule="evenodd" clip-rule="evenodd" d="M3.05713 17.9556L3.67046 18.8C3.67046 18.8 5.33268 17.2533 5.99935 16.5511C6.07302 16.48 6.13088 16.3942 6.16917 16.2992C6.20746 16.2043 6.22531 16.1023 6.22157 16C6.18899 15.7844 6.07826 15.5882 5.91046 15.4489L4.10602 13.5911C3.99614 13.4806 3.87721 13.3795 3.75046 13.2889L3.66157 13.2089L3.08379 14.0978L4.50602 15.5467H2.66602V16.5333H4.50602L3.05713 17.9556ZM3.73268 18.5156L3.34157 17.9822L4.89713 16.3733L2.89713 16.32V15.7422H4.90602L3.36824 14.0444L3.70602 13.5289L3.9549 13.7422L5.7949 15.5911C5.92378 15.6935 6.012 15.8385 6.04379 16C6.03917 16.0772 6.01862 16.1526 5.98344 16.2214C5.94825 16.2902 5.89919 16.3511 5.83935 16.4C5.17268 17.1022 4.44379 17.7778 3.7949 18.48C3.7949 18.48 3.7949 18.48 3.73268 18.48V18.5156Z" fill="#8E9391"/>
<path d="M10.978 15.6178V16.3822H8.98691L10.5336 17.9645L10.0536 18.6578C9.89358 18.5245 9.76914 18.4356 9.67136 18.3378L7.89358 16.56C7.48469 16.1422 7.48469 15.9111 7.89358 15.5111C8.5158 14.88 9.14691 14.2578 9.76914 13.6356C9.84914 13.5556 9.94691 13.4845 10.0891 13.3689L10.5869 14.0711L9.04025 15.6178H10.978Z" fill="url(#paint2_linear_2707_364073)"/>
<path fill-rule="evenodd" clip-rule="evenodd" d="M11.0846 16.4978V15.5111H9.3068L10.729 14.0889L10.1157 13.2L10.0179 13.28L9.68902 13.5556C9.0668 14.1778 8.43569 14.8 7.81346 15.4311C7.62853 15.5686 7.50424 15.7726 7.4668 16C7.47864 16.1198 7.51469 16.2359 7.57275 16.3413C7.63081 16.4468 7.70968 16.5393 7.80457 16.6133L9.58235 18.3911L9.97346 18.72L10.0712 18.7911L10.6668 17.9022L9.24457 16.4978H11.0846ZM10.8624 15.7245V16.2756H8.76457L10.3912 17.9645L10.0357 18.4889C9.93303 18.4151 9.83506 18.3349 9.74235 18.2489L7.96458 16.4711C7.81818 16.3517 7.71767 16.1852 7.68013 16C7.68013 15.8667 7.77791 15.7333 7.95569 15.5556H8.00013L9.87569 13.6889C9.94632 13.6227 10.0205 13.5604 10.0979 13.5022L10.4712 14.0356L8.78235 15.7067L10.8624 15.7245Z" fill="#8E9391"/>
<path d="M8.81791 19.6356L7.3868 18.1156L7.29791 18.1778V20.0622H6.48013V18.1422L4.94236 19.6445L4.24902 19.2C4.29578 19.1007 4.35556 19.008 4.4268 18.9245C5.09347 18.2578 5.76013 17.5911 6.43569 16.9333C6.48434 16.86 6.55038 16.7998 6.62793 16.7582C6.70548 16.7166 6.79212 16.6948 6.88013 16.6948C6.96814 16.6948 7.05479 16.7166 7.13234 16.7582C7.20989 16.7998 7.27593 16.86 7.32458 16.9333L9.39569 18.9778C9.44884 19.0418 9.49642 19.1102 9.53791 19.1822L8.81791 19.6356Z" fill="url(#paint3_linear_2707_364073)"/>
<path fill-rule="evenodd" clip-rule="evenodd" d="M7.40412 18.2933L8.79968 19.7778L9.68857 19.2L9.62635 19.1111C9.5836 19.0349 9.53296 18.9634 9.47523 18.8978C8.7819 18.2133 8.09746 17.52 7.39523 16.8444C7.33145 16.7722 7.25365 16.7136 7.16655 16.6724C7.07945 16.6311 6.98488 16.608 6.88857 16.6044C6.7917 16.6096 6.69689 16.6344 6.60983 16.6772C6.52276 16.7199 6.44523 16.7798 6.3819 16.8533C5.70635 17.5111 4.11523 19.2355 4.11523 19.2355L5.00412 19.7867L6.42635 18.4V20.1778H7.40412V18.2933ZM8.83523 19.4933L7.20857 17.8755V19.9467H6.58635V17.9289L4.92412 19.5022L4.39079 19.1644C4.39079 19.1022 5.83968 17.6711 6.50635 17.0133C6.55011 16.96 6.60413 16.916 6.6652 16.8839C6.72627 16.8519 6.79316 16.8324 6.8619 16.8267C6.93009 16.8308 6.99674 16.8487 7.05784 16.8792C7.11894 16.9098 7.17324 16.9524 7.21746 17.0044L9.28857 19.0489C9.31645 19.0782 9.34036 19.1111 9.35968 19.1467L8.83523 19.4933Z" fill="#8E9391"/>
</g>
<defs>
<linearGradient id="paint0_linear_2707_364073" x1="4.3546" y1="13.0073" x2="2.37238" y2="14.0117" gradientUnits="userSpaceOnUse">
<stop stop-color="#34091A"/>
<stop offset="1" stop-color="#C51775"/>
</linearGradient>
<linearGradient id="paint1_linear_2707_364073" x1="2.92204" y1="18.2201" x2="5.54426" y2="17.5179" gradientUnits="userSpaceOnUse">
<stop stop-color="#0F2643"/>
<stop offset="0.46" stop-color="#154067"/>
<stop offset="1" stop-color="#2484C2"/>
</linearGradient>
<linearGradient id="paint2_linear_2707_364073" x1="9.33225" y1="14.2302" x2="9.33225" y2="17.6525" gradientUnits="userSpaceOnUse">
<stop stop-color="#0F2643"/>
<stop offset="0.57" stop-color="#237FBB"/>
<stop offset="1" stop-color="#122547"/>
</linearGradient>
<linearGradient id="paint3_linear_2707_364073" x1="4.06067" y1="19.1034" x2="7.18067" y2="18.5078" gradientUnits="userSpaceOnUse">
<stop stop-color="#0F2643"/>
<stop offset="0.6" stop-color="#2381BE"/>
<stop offset="1" stop-color="#102947"/>
</linearGradient>
<clipPath id="clip0_2707_364073">
<rect width="32" height="32" fill="white"/>
</clipPath>
</defs>
</svg>
