<svg width="32" height="32" viewBox="0 0 32 32" fill="none" xmlns="http://www.w3.org/2000/svg">
<g clip-path="url(#clip0_2737_120589)">
<mask id="mask0_2737_120589" style="mask-type:luminance" maskUnits="userSpaceOnUse" x="0" y="0" width="32" height="32">
<path d="M31.9909 0.0178223H0.0175781V31.9912H31.9909V0.0178223Z" fill="white"/>
</mask>
<g mask="url(#mask0_2737_120589)">
<path d="M15.9998 31.9823C24.8265 31.9823 31.982 24.8268 31.982 16C31.982 7.17331 24.8265 0.0178223 15.9998 0.0178223C7.17306 0.0178223 0.0175781 7.17331 0.0175781 16C0.0175781 24.8268 7.17306 31.9823 15.9998 31.9823Z" fill="white"/>
<path d="M8.72902 15.2534C8.40013 17.1201 7.53791 18.5778 5.82235 19.4934C5.82235 19.4223 5.80458 19.369 5.82235 19.3156C5.91124 18.8712 6.03569 18.4267 6.08902 17.9734C6.16013 17.289 6.17791 16.6045 6.21347 15.9112C6.21347 15.8312 6.21347 15.7512 6.21347 15.689C7.05791 15.5378 7.87569 15.3956 8.73791 15.2445" fill="#FCE707"/>
<path d="M2.80812 15.2534C3.35034 15.369 3.89256 15.4756 4.43478 15.5912C4.56812 15.609 4.70145 15.6268 4.83478 15.6356H5.16367C5.16367 15.7156 5.18145 15.7779 5.18145 15.8401C5.17256 16.969 5.32367 18.0801 5.55478 19.1734C5.55478 19.209 5.55478 19.2534 5.55478 19.2979C5.55478 19.3512 5.55478 19.3956 5.55478 19.449C4.90589 19.1468 4.37256 18.6934 3.91923 18.1423C3.31478 17.3956 2.92367 16.5423 2.76367 15.5912C2.78145 15.4756 2.79034 15.369 2.80812 15.2534Z" fill="#04387A"/>
<path d="M8.72004 15.0667C7.91115 14.7645 7.0756 14.6667 6.23115 14.6045C6.09782 13.9112 5.96449 13.2356 5.82227 12.5156C6.21338 12.6312 6.5956 12.7112 6.96004 12.8534C7.52004 13.0667 8.00004 13.4134 8.48893 13.7512C8.76449 13.9378 8.85338 14.1512 8.80893 14.4534C8.78227 14.649 8.74671 14.8534 8.71115 15.0756" fill="#FCE707"/>
<path d="M5.21723 14.3822V14.6134C4.34612 14.6489 3.51056 14.7822 2.65723 15.0667V14.8533C2.675 14.5333 2.62167 14.2045 2.76389 13.9022C3.475 13.2267 4.86167 12.5778 5.56389 12.5956C5.475 13.0222 5.37723 13.44 5.28834 13.8578C5.28834 13.8756 5.27945 13.8933 5.27056 13.9111L5.20834 14.3911L5.21723 14.3822Z" fill="#04387A"/>
<path d="M21.2528 14.9512C21.5016 14.9512 21.7328 14.969 21.9639 14.9512C22.195 14.9334 22.2839 14.809 22.2839 14.5957C22.2839 14.3823 22.195 14.2668 21.9639 14.249C21.7328 14.2312 21.4928 14.249 21.2616 14.249V14.9601L21.2528 14.9512ZM21.7594 15.449H21.2439V16.409H20.7461V13.769C21.2261 13.769 21.6883 13.7423 22.1505 13.7779C22.5328 13.8134 22.7461 14.0623 22.8083 14.4268C22.8705 14.8001 22.7283 15.1023 22.4172 15.2979C22.3905 15.3157 22.3639 15.3334 22.3194 15.3601C22.5061 15.6979 22.6839 16.0357 22.8972 16.4179C22.6928 16.4179 22.5505 16.4357 22.4172 16.4179C22.3461 16.4001 22.275 16.3201 22.2305 16.249C22.0705 15.9912 21.9283 15.7334 21.7683 15.4579" fill="#07397A"/>
<path d="M27.7327 14.9334C27.9904 14.9334 28.2393 14.9512 28.4882 14.9334C28.6927 14.9068 28.7549 14.7912 28.7549 14.5868C28.7549 14.3912 28.6838 14.2757 28.4704 14.2579C28.2216 14.2312 27.9727 14.2579 27.7149 14.2579C27.7149 14.4801 27.7149 14.6757 27.7149 14.8801C27.7149 14.9068 27.7149 14.9246 27.7238 14.9423M28.7816 15.369C28.9682 15.7068 29.146 16.0357 29.3238 16.3646C29.3149 16.3823 29.2971 16.4001 29.2882 16.4268C29.1549 16.4268 29.0127 16.4446 28.8882 16.4268C28.8171 16.409 28.7371 16.3379 28.7016 16.2668C28.5416 16.009 28.3904 15.7423 28.2304 15.4668H27.706V16.4179H27.2438C27.1727 16.249 27.1549 14.0357 27.2438 13.7512C27.3771 13.7512 27.5193 13.7512 27.6616 13.7512C27.9638 13.7512 28.266 13.7512 28.5593 13.7868C28.9949 13.849 29.2082 14.0534 29.2704 14.4357C29.3416 14.8268 29.1993 15.1201 28.8438 15.3334C28.8349 15.3334 28.8171 15.3512 28.7904 15.3868" fill="#07397A"/>
<path d="M26.151 15.0757C26.151 14.9423 26.1599 14.8179 26.151 14.6845C26.1155 14.3734 25.8932 14.1868 25.5644 14.1779C25.2266 14.1779 24.9688 14.3468 24.9421 14.6579C24.9155 14.9334 24.9155 15.209 24.9421 15.4845C24.9688 15.8045 25.2088 15.9823 25.5555 15.9734C25.8932 15.9734 26.1155 15.7779 26.151 15.4579C26.1599 15.3334 26.151 15.2001 26.151 15.0668M26.6932 15.1023C26.6932 15.2357 26.6932 15.369 26.6755 15.4934C26.6132 16.0534 26.311 16.3645 25.751 16.4623C25.2088 16.5512 24.7021 16.329 24.5155 15.8934C24.4532 15.7423 24.4177 15.5645 24.3999 15.4045C24.3821 15.2001 24.391 14.9868 24.3999 14.7734C24.4444 13.9201 25.0577 13.6179 25.751 13.7157C26.311 13.7868 26.6132 14.1157 26.6755 14.6757C26.6932 14.8179 26.6932 14.969 26.6932 15.1023Z" fill="#07397A"/>
<path d="M10.3281 15.6534C10.5592 15.6356 10.7547 15.5911 10.9236 15.8222C11.0925 16.0445 11.6881 16.0356 11.9014 15.8578C12.0614 15.7245 12.0436 15.5289 11.8481 15.4578C11.6703 15.3867 11.4925 15.36 11.3059 15.3067C11.1459 15.2622 10.977 15.2178 10.817 15.1645C10.257 14.96 10.2836 14.2489 10.6214 13.9645C11.0392 13.6089 11.8481 13.6178 12.2481 14C12.2925 14.0356 12.3281 14.08 12.3547 14.1334C12.4081 14.2489 12.5325 14.3734 12.4081 14.5067C12.337 14.5867 11.9903 14.5334 11.9192 14.4267C11.7414 14.1511 11.297 14.1422 11.0747 14.2578C10.9681 14.3111 10.8703 14.4 10.9059 14.5245C10.9325 14.6134 11.0125 14.72 11.0925 14.7467C11.2881 14.8178 11.5014 14.8534 11.7059 14.9156C11.8392 14.9511 11.9725 14.9867 12.097 15.04C12.3459 15.1467 12.5059 15.3245 12.5236 15.6089C12.5414 15.8934 12.4259 16.1156 12.1947 16.2756C11.7681 16.5689 10.977 16.5422 10.577 16.2311C10.3725 16.08 10.3103 15.9289 10.3281 15.6622" fill="#07397A"/>
<path d="M16.3017 14.9512C16.5506 14.9512 16.7817 14.969 17.0217 14.9512C17.2617 14.9334 17.3684 14.8001 17.3684 14.5956C17.3684 14.3912 17.2528 14.2578 17.0128 14.2401C16.7817 14.2223 16.5417 14.2401 16.3017 14.2401V14.9601V14.9512ZM15.804 13.769C16.284 13.769 16.7462 13.7334 17.2084 13.7778C17.6795 13.8223 17.9106 14.1423 17.9017 14.5956C17.9017 15.0312 17.6617 15.3245 17.2173 15.4134C17.084 15.4401 16.9417 15.4401 16.8084 15.449C16.6484 15.449 16.4884 15.449 16.2928 15.449V16.409H15.8306C15.7595 16.2401 15.7417 14.0267 15.8128 13.769" fill="#07397A"/>
<path d="M20.177 13.8934C20.177 13.8934 20.177 13.9201 20.177 13.9379C20.1415 14.0179 20.1148 14.089 20.0792 14.1868C19.7503 14.1868 19.4126 14.1868 19.0748 14.1868C19.0037 14.1868 18.9237 14.2223 18.8526 14.2401C18.8526 14.4357 18.8526 14.6223 18.8526 14.8179C18.9237 14.8357 19.0037 14.8712 19.0748 14.8712C19.4037 14.8712 19.7415 14.8712 20.0703 14.8712C20.0792 14.969 20.0881 15.0668 20.1059 15.1734C19.9992 15.2001 19.8837 15.2534 19.777 15.2623C19.537 15.2801 19.297 15.2623 19.057 15.2623C18.9948 15.2623 18.9237 15.2979 18.8615 15.3157V15.9379H20.2126V16.409H18.3637C18.3548 16.3557 18.3281 16.2934 18.3281 16.2312C18.3281 15.4668 18.3281 14.7112 18.3281 13.9468C18.3281 13.8934 18.3548 13.849 18.3726 13.7957C18.8881 13.7957 19.4037 13.7957 19.9103 13.7957C20.0081 13.7957 20.097 13.8579 20.1948 13.8934" fill="#04387A"/>
<path d="M14.2397 15.9823C14.5686 15.8845 14.6575 15.6356 14.6575 15.3245C14.6575 14.889 14.6575 14.4534 14.6575 14.0178V13.7334C14.8353 13.7512 14.9775 13.769 15.1197 13.7867C15.1197 14.4356 15.1197 15.0934 15.1197 15.7423C15.0219 16.169 14.7375 16.409 14.3108 16.4267C14.1508 16.4267 13.9819 16.4267 13.8219 16.4267C13.3864 16.4178 13.0041 16.1156 12.9775 15.6712C12.9419 15.0401 12.9686 14.409 12.9686 13.7601H13.4486C13.4486 13.849 13.4753 13.929 13.4753 14.0178C13.4753 14.4623 13.4753 14.9067 13.4753 15.3512C13.4753 15.6356 13.5641 15.8578 13.8486 15.9645C13.973 16.0623 14.1064 16.0445 14.2397 15.9645" fill="#04387A"/>
<path d="M14.8262 17.4489H15.0928C15.2439 17.6978 15.3951 17.9556 15.5728 18.2578C15.7062 18.0267 15.8395 17.8312 15.9373 17.6178C16.0173 17.4578 16.1239 17.4045 16.3106 17.4667V19.04H16.0173V18.1956C16.0173 18.1956 15.9817 18.1867 15.9728 18.1778C15.9106 18.2845 15.8395 18.3823 15.7773 18.4978C15.7151 18.6312 15.6173 18.6934 15.4484 18.64C15.3595 18.4889 15.2617 18.3289 15.1639 18.16C15.1551 18.16 15.1373 18.16 15.1284 18.16V19.0312H14.8351V17.4489H14.8262Z" fill="#07397A"/>
<path d="M23.8934 16.4089H23.3867V13.76H23.8934C23.9023 14.6489 23.8934 15.52 23.8934 16.4089Z" fill="#07397A"/>
<path d="M12.435 18.1601C12.595 18.1601 12.7373 18.169 12.8706 18.1601C12.995 18.1512 13.0484 18.0534 13.0395 17.9378C13.0395 17.8223 12.9684 17.7512 12.8617 17.7512C12.7195 17.7423 12.5773 17.7512 12.435 17.7512V18.169V18.1601ZM12.1328 17.4401C12.3373 17.4401 12.5239 17.4401 12.7106 17.4401C12.9684 17.4401 13.2084 17.4756 13.315 17.7512C13.4128 18.009 13.3417 18.1956 13.0661 18.4267C13.1728 18.6223 13.2706 18.8178 13.395 19.0401H13.0661C12.9595 18.8534 12.8528 18.6667 12.7373 18.4801H12.4261V19.0401C12.3284 19.0401 12.2395 19.049 12.1328 19.0578V17.449V17.4401Z" fill="#07397A"/>
<path d="M25.9111 17.9023C25.8044 17.8667 25.6889 17.8578 25.5911 17.8045C25.44 17.7245 25.2978 17.7067 25.1467 17.769C25.0933 17.7956 25.04 17.8756 25.0311 17.929C25.0311 17.9734 25.0933 18.0356 25.1467 18.0534C25.2533 18.0978 25.3689 18.1067 25.4756 18.1423C25.5556 18.1601 25.6356 18.1867 25.7067 18.2134C25.8756 18.2756 25.9822 18.3912 25.9822 18.5778C25.9822 18.7645 25.8844 18.8978 25.7067 18.969C25.4311 19.0934 25.1467 19.0845 24.88 18.9423C24.7467 18.8712 24.6311 18.7645 24.6667 18.569C24.8 18.569 24.9156 18.5334 25.0222 18.6667C25.1289 18.7912 25.44 18.7912 25.5733 18.7023C25.6178 18.6756 25.6533 18.6134 25.6533 18.569C25.6533 18.5245 25.6 18.4712 25.5556 18.4534C25.4044 18.4001 25.2444 18.3734 25.0844 18.329C24.8 18.249 24.6933 18.1334 24.7022 17.9023C24.7022 17.689 24.8356 17.5467 25.0933 17.4667C25.4667 17.3601 25.8222 17.5112 25.9022 17.9023" fill="#07397A"/>
<path d="M20.6487 17.9201C20.4976 17.8756 20.3909 17.8312 20.2842 17.8045C20.142 17.7778 19.9998 17.7601 19.8664 17.7689C19.822 17.7689 19.742 17.8667 19.742 17.9201C19.742 17.9734 19.8131 18.0445 19.8664 18.0712C20.0087 18.1245 20.1687 18.1334 20.3109 18.1867C20.4176 18.2312 20.542 18.2845 20.6131 18.3645C20.7642 18.5245 20.7109 18.7734 20.5242 18.9156C20.2753 19.1023 19.7687 19.1023 19.5376 18.9067C19.4576 18.8356 19.4042 18.7201 19.3242 18.5956C19.502 18.5601 19.6176 18.5334 19.7242 18.6578C19.8398 18.7823 20.1153 18.8089 20.2664 18.7112C20.3109 18.6845 20.3553 18.6134 20.3642 18.5689C20.3642 18.5334 20.302 18.4712 20.2664 18.4623C20.1153 18.4089 19.9553 18.3823 19.7953 18.3378C19.5198 18.2578 19.422 18.1423 19.4131 17.9289C19.4131 17.7067 19.5287 17.5645 19.7864 17.4845C20.1331 17.3778 20.5064 17.5023 20.6309 17.7778C20.6398 17.7956 20.6309 17.8223 20.6487 17.9289" fill="#07397A"/>
<path d="M28.062 18.5778C28.1954 18.5512 28.302 18.5423 28.4087 18.6578C28.5509 18.8089 28.7554 18.7823 28.9332 18.7112C28.9865 18.6934 29.0398 18.6223 29.0398 18.5689C29.0398 18.5245 28.9776 18.4623 28.9243 18.4445C28.7732 18.3912 28.6043 18.3734 28.4531 18.32C28.3465 18.2756 28.2309 18.2223 28.1509 18.1334C28.0265 17.9912 28.0709 17.7423 28.2132 17.6089C28.4532 17.3867 28.9687 17.3867 29.1998 17.6178C29.2531 17.68 29.2887 17.76 29.3332 17.8489C29.182 17.8934 29.0754 17.8756 28.9598 17.8223C28.8354 17.76 28.6843 17.76 28.542 17.7689C28.4887 17.7689 28.4176 17.8667 28.3998 17.9289C28.3998 17.9645 28.4709 18.0445 28.5331 18.0712C28.6665 18.1245 28.8176 18.1423 28.9598 18.1778C29.2354 18.2489 29.3687 18.3912 29.3598 18.5956C29.3598 18.7912 29.2087 18.9512 28.9509 19.0223C28.702 19.0845 28.462 19.0667 28.2398 18.9423C28.1154 18.8712 28.0087 18.7645 28.0354 18.5867" fill="#07397A"/>
<path d="M17.795 18.4623C17.7061 18.2401 17.635 18.0445 17.5461 17.8223C17.4572 18.0534 17.3861 18.249 17.2972 18.4623H17.795ZM17.3594 17.449H17.7328C17.9372 17.9645 18.1328 18.4801 18.3461 19.0401C18.2216 19.0401 18.1416 19.049 18.0439 19.0579C17.9905 18.9601 17.9461 18.8712 17.9016 18.7734H17.1905C17.1461 18.8623 17.1016 18.9512 17.0572 19.049H16.7461C16.9594 18.5068 17.155 17.9823 17.3594 17.4579" fill="#07397A"/>
<path d="M22.231 17.4579H22.5243C22.5243 17.8401 22.5421 18.2223 22.5243 18.5956C22.5066 18.8268 22.3466 18.9601 22.1155 19.0223C21.5999 19.1556 21.2355 18.8979 21.2266 18.3734C21.2266 18.0712 21.2266 17.7601 21.2266 17.449H21.5377C21.5377 17.5468 21.5466 17.6356 21.5466 17.7334C21.5466 17.9734 21.5466 18.2223 21.5466 18.4623C21.5555 18.6668 21.6799 18.7556 21.8843 18.7556C22.0977 18.7556 22.2132 18.6579 22.2221 18.4534C22.231 18.2134 22.2221 17.9645 22.2221 17.7245C22.2221 17.6356 22.2221 17.5468 22.2221 17.449" fill="#07397A"/>
<path d="M23.1641 17.449H23.4485V18.0445C23.6174 17.8668 23.7596 17.7334 23.8752 17.5823C23.9996 17.4223 24.1507 17.4134 24.3818 17.4756C24.1507 17.7334 23.9374 17.9556 23.7152 18.2134C23.9463 18.4712 24.1685 18.729 24.3996 18.9868C24.1863 19.0934 24.0796 19.0845 23.9463 18.9334C23.7952 18.7734 23.653 18.6045 23.4752 18.409V19.0401H23.173V17.4579L23.1641 17.449Z" fill="#07397A"/>
<path d="M27.5726 17.4934V17.689C27.386 17.689 27.1993 17.689 27.0126 17.689C26.9415 17.689 26.8615 17.7245 26.7904 17.7423V18.0712H27.5193V18.3556H26.7993V18.7467H27.5993C27.5993 18.8445 27.6082 18.9245 27.6171 19.0312H26.4971V17.4934C26.8526 17.4934 27.2171 17.4934 27.5726 17.4934Z" fill="#04387A"/>
<path d="M10.6659 18.1689C10.7903 18.1689 10.9148 18.1867 11.0303 18.1689C11.1192 18.1512 11.2259 18.1156 11.2703 18.0534C11.3414 17.9556 11.297 17.8401 11.1903 17.7601C11.0392 17.6356 10.8703 17.6801 10.7103 17.7334C10.6925 17.7512 10.6748 17.7689 10.657 17.7867C10.6214 17.7867 10.5859 17.7867 10.5414 17.7956C10.5859 17.9289 10.6303 18.0534 10.6659 18.1689ZM11.217 17.4845C11.4837 17.5378 11.5903 17.6534 11.6081 17.9201C11.6259 18.1867 11.5103 18.3823 11.2703 18.4356C11.0748 18.4712 10.8703 18.4623 10.6659 18.4712C10.6481 18.6578 10.6303 18.8534 10.6125 19.0401C10.5503 19.0401 10.4792 19.0401 10.417 19.0401V17.4845H11.2259H11.217Z" fill="#04387A"/>
<path d="M14.1418 19.0401C14.0796 19.0401 14.0085 19.0401 13.9463 19.0401C13.9463 18.5779 13.9463 18.1157 13.9463 17.6534C13.9463 17.5201 13.9818 17.449 14.1418 17.529V19.0312V19.0401Z" fill="#04387A"/>
<path d="M14.1416 19.0401V17.5379C13.9816 17.4579 13.946 17.5379 13.946 17.6624C13.946 18.1246 13.946 18.5868 13.946 19.049C13.9282 19.0135 13.8838 18.9779 13.8838 18.9424C13.8838 18.4712 13.8838 18.009 13.8838 17.5379C13.8838 17.5201 13.9016 17.4935 13.9105 17.4668H14.1771C14.1771 17.9912 14.1771 18.5068 14.1771 19.0224C14.1771 19.0224 14.1505 19.0401 14.1416 19.049" fill="#07397A"/>
<path d="M11.2178 17.4845H10.4089V19.0401C10.4089 19.0401 10.3467 18.9868 10.3467 18.9512C10.3467 18.4623 10.3467 17.9645 10.3467 17.4401C10.6489 17.4668 10.9333 17.3956 11.2178 17.4845Z" fill="#07397A"/>
<path d="M15.1201 15.7423C15.1201 15.0934 15.1201 14.4356 15.1201 13.7867C15.1379 13.8312 15.1646 13.8756 15.1646 13.9112C15.1646 14.4445 15.1646 14.9779 15.1646 15.5112C15.1646 15.5912 15.1379 15.6712 15.1201 15.7423Z" fill="#07397A"/>
<path d="M20.1777 13.8934C20.0799 13.8579 19.991 13.8046 19.8932 13.7957C19.3777 13.7868 18.8621 13.7957 18.3555 13.7957C18.4088 13.7779 18.4532 13.7512 18.5066 13.7512C19.0044 13.7512 19.5021 13.7512 19.9999 13.7512C20.1066 13.7512 20.2044 13.7512 20.1777 13.9023" fill="#07397A"/>
<path d="M18.8438 14.2312C18.9149 14.2134 18.9949 14.1778 19.066 14.1778C19.4038 14.1778 19.7326 14.1778 20.0704 14.1778C20.106 14.089 20.1415 14.009 20.1771 13.929V14.2312H18.8526H18.8438Z" fill="#07397A"/>
<path d="M18.8439 15.3068C18.9061 15.289 18.9772 15.2534 19.0394 15.2534C19.2794 15.2534 19.5194 15.2534 19.7594 15.2534C19.875 15.2534 19.9816 15.2001 20.0883 15.1646C20.0883 15.3068 19.9905 15.3068 19.8839 15.3068C19.5372 15.3068 19.1816 15.3068 18.835 15.3068" fill="#07397A"/>
<path d="M20.0703 14.8623C19.7414 14.8623 19.4037 14.8623 19.0748 14.8623C19.0037 14.8623 18.9237 14.8267 18.8525 14.809C19.1903 14.809 19.5192 14.809 19.857 14.809C19.9281 14.809 19.9992 14.8445 20.0792 14.8534" fill="#07397A"/>
<path d="M2.7641 13.8934C2.62188 14.1957 2.6841 14.5245 2.65744 14.8445C2.63966 14.5868 2.61299 14.3201 2.62188 14.0623C2.62188 14.009 2.71077 13.9468 2.7641 13.8934Z" fill="#07397A"/>
<path d="M27.5726 17.4934C27.2171 17.4934 26.8526 17.4934 26.4971 17.4934C26.5237 17.4756 26.5593 17.449 26.586 17.449C26.8793 17.449 27.1815 17.449 27.4748 17.449C27.5015 17.449 27.5371 17.4756 27.5637 17.4934" fill="#07397A"/>
<path d="M26.791 17.7423C26.8621 17.7245 26.9332 17.689 27.0132 17.689C27.1999 17.689 27.3866 17.689 27.5732 17.689C27.5021 17.7067 27.431 17.7334 27.3599 17.7334C27.1732 17.7334 26.9866 17.7334 26.7999 17.7334" fill="#07397A"/>
<path d="M2.80814 15.2535C2.79036 15.369 2.78147 15.4757 2.76369 15.5912C2.73703 15.4757 2.71036 15.3601 2.6748 15.2179C2.73703 15.2357 2.77258 15.2446 2.80814 15.2535Z" fill="#07397A"/>
<path d="M10.6133 19.0401C10.6311 18.8534 10.6488 18.6579 10.6666 18.4712C10.6666 18.6134 10.6666 18.7556 10.6666 18.8979C10.6666 18.9423 10.6311 18.9956 10.6222 19.0401" fill="#07397A"/>
<path d="M14.2397 15.9823C14.1064 16.0534 13.982 16.0712 13.8486 15.9823C13.982 15.9823 14.1064 15.9823 14.2397 15.9823Z" fill="#07397A"/>
<path d="M4.82676 15.6356C4.69342 15.6179 4.56009 15.6001 4.42676 15.5912C4.56009 15.609 4.69342 15.6267 4.82676 15.6356Z" fill="#07397A"/>
<path d="M5.55566 19.449C5.55566 19.3956 5.55566 19.3512 5.55566 19.2979C5.56455 19.3512 5.57344 19.4134 5.59122 19.4667H5.57344C5.57344 19.4667 5.56455 19.4579 5.55566 19.449Z" fill="#07397A"/>
<path d="M5.27051 13.9023C5.27051 13.9023 5.2794 13.8668 5.28829 13.849C5.28829 13.8668 5.2794 13.8846 5.27051 13.9023Z" fill="#07397A"/>
<path d="M10.6487 17.7867C10.6487 17.9201 10.6575 18.0445 10.6664 18.1779C10.622 18.0623 10.5864 17.9379 10.542 17.8045C10.5775 17.8045 10.622 17.8045 10.6575 17.7956" fill="#07397A"/>
<path d="M11.1909 17.7601C11.0309 17.7512 10.8709 17.7423 10.7109 17.7334C10.8798 17.6801 11.0398 17.6357 11.1909 17.7601Z" fill="#07397A"/>
</g>
</g>
<defs>
<clipPath id="clip0_2737_120589">
<rect width="32" height="32" fill="white"/>
</clipPath>
</defs>
</svg>
