<svg width="32" height="32" viewBox="0 0 32 32" fill="none" xmlns="http://www.w3.org/2000/svg">
<g clip-path="url(#clip0_2707_363893)">
<path d="M15.9998 31.9822C24.8265 31.9822 31.982 24.8267 31.982 16C31.982 7.17326 24.8265 0.0177765 15.9998 0.0177765C7.17306 0.0177765 0.0175781 7.17326 0.0175781 16C0.0175781 24.8267 7.17306 31.9822 15.9998 31.9822Z" fill="white"/>
<path d="M27.6709 16.48V15.5289H28.0353C28.1509 15.5289 28.2931 15.5289 28.3287 15.6711C28.3642 15.8133 28.3287 15.9289 28.2131 15.9644C28.2734 15.9848 28.3235 16.0275 28.3532 16.0837C28.383 16.1399 28.3901 16.2054 28.3731 16.2667C28.3534 16.333 28.3121 16.391 28.2557 16.4312C28.1994 16.4715 28.1312 16.4918 28.062 16.4889L27.6709 16.48ZM28.142 16.1867C28.142 16.1067 28.0176 16.0889 27.8931 16.0978V16.3022C28.0087 16.3022 28.142 16.3022 28.142 16.1867ZM27.8842 15.6978C27.8842 15.7778 27.8842 15.8311 27.8842 15.8844C27.8842 15.9378 28.1153 15.8844 28.1153 15.76C28.1153 15.6356 27.8842 15.6978 27.8842 15.6978Z" fill="#0C0C0C"/>
<path d="M6.42602 17.0489C6.28932 17.0876 6.14954 17.1143 6.00824 17.1289C5.62602 17.1289 5.25268 17.0756 4.87046 17.0489C4.72824 17.0489 4.58602 17.0489 4.40824 17.0489C4.58602 17.4933 4.74602 17.9378 4.90602 18.3289H4.44379L2.9949 14.2667C2.915 14.2419 2.8428 14.197 2.78522 14.1363C2.72763 14.0756 2.68659 14.0011 2.66602 13.92C2.6784 13.8509 2.71444 13.7883 2.76797 13.7429C2.82149 13.6974 2.88916 13.6721 2.95935 13.6711C3.13713 13.6711 3.27935 13.7689 3.37713 13.9911H3.84824C4.18926 13.9832 4.52908 14.0344 4.85268 14.1422C5.1371 14.2493 5.44789 14.2649 5.74157 14.1867H5.92824C5.62602 14.4889 5.33268 14.8089 5.03935 15.0756C4.74602 15.3422 4.45268 15.52 4.15046 15.7333C4.12143 15.6794 4.09761 15.6229 4.07935 15.5644C3.97974 15.214 3.80022 14.8915 3.5549 14.6222C3.52733 14.6012 3.49752 14.5833 3.46602 14.5689C3.46173 14.6043 3.46173 14.6401 3.46602 14.6756L3.99935 16L4.21268 16.5333L4.08824 15.7422L4.5149 15.9467C5.17379 16.2748 5.81202 16.6429 6.42602 17.0489Z" fill="#E13823"/>
<path d="M6.42625 17.0489C5.82242 16.6624 5.19613 16.3121 4.55069 16L4.12402 15.7956C4.42625 15.5733 4.73736 15.3778 5.01291 15.1378C5.28847 14.8978 5.61736 14.5333 5.9018 14.2489H5.99069C6.39958 14.4356 6.82625 14.6133 7.21736 14.8356C7.60847 15.0578 7.99958 15.3778 8.39958 15.6444C8.23435 15.6996 8.07383 15.768 7.91958 15.8489C7.42639 16.1241 6.97946 16.475 6.59513 16.8889C6.59181 16.9214 6.59181 16.9542 6.59513 16.9867H6.5418L6.42625 17.0489ZM5.86625 15.1111H5.4218V16.1867C5.60847 16.1867 5.80402 16.1867 5.92847 16.0444C5.98158 15.9843 6.0109 15.9069 6.0109 15.8267C6.0109 15.7464 5.98158 15.669 5.92847 15.6089C6.02625 15.44 6.02625 15.2978 5.86625 15.1111ZM6.98625 16.1067V15.2178L7.1818 15.1644V15.1111H6.59513V15.2178L6.79958 15.2711V16.16L6.98625 16.1067ZM6.67513 16H6.31958V15.1111H6.15958V16.1778H6.68402L6.67513 16Z" fill="#2193CF"/>
<path d="M6.55132 16.9867C6.548 16.9542 6.548 16.9214 6.55132 16.8889C6.9348 16.4474 7.38825 16.0721 7.89355 15.7778C8.0478 15.6969 8.20832 15.6285 8.37355 15.5733C8.47132 15.8222 8.5691 16.0711 8.68466 16.32C8.82575 16.6148 8.90443 16.9356 8.91577 17.2622L8.80021 17.1556C8.57156 16.9848 8.30756 16.8675 8.02762 16.8121C7.74767 16.7567 7.45888 16.7647 7.18244 16.8356L6.72021 16.96C6.66561 16.9775 6.60865 16.9865 6.55132 16.9867Z" fill="#E13823"/>
<path d="M8.40879 15.5378C8.01768 15.2622 7.64434 14.9689 7.23546 14.7289C6.82657 14.4889 6.41768 14.3289 6.00879 14.1333C6.49485 13.9296 7.03861 13.9107 7.53768 14.08C7.7288 14.1355 7.89314 14.2587 7.9999 14.4267C8.2239 14.7586 8.3642 15.1398 8.40879 15.5378Z" fill="#E13823"/>
<path d="M15.004 16.48C15.004 16.48 15.2262 15.8133 15.3329 15.5378H15.5907L15.9285 16.48H15.6973L15.6262 16.3111H15.2885L15.2173 16.48H15.004ZM14.9507 16.48H14.5685V16.3111H14.6573V15.6978H14.5596V15.5378H14.9773V15.7067H14.8796V16.3111H14.9685L14.9507 16.48ZM15.4573 15.7511L15.3418 16.0978H15.5818L15.4573 15.7511Z" fill="#0C0C0C"/>
<path d="M18.8175 16.48L18.7463 16.3111H18.4086L18.3463 16.4711H18.1152L18.453 15.5378H18.7108L19.0575 16.48V16.3022H19.253C19.3775 16.0711 19.253 15.8133 19.333 15.5556H19.5552C19.5552 15.7778 19.5552 15.9911 19.5552 16.1956C19.5551 16.2435 19.5442 16.2909 19.5233 16.3341C19.5024 16.3773 19.472 16.4152 19.4344 16.4451C19.3969 16.475 19.3531 16.496 19.3063 16.5067C19.2595 16.5173 19.2109 16.5173 19.1641 16.5067L18.8175 16.48ZM18.6663 16.1067C18.6663 15.9911 18.5508 15.7867 18.5508 15.7867C18.5508 15.7867 18.4708 16 18.4352 16.1067H18.6663Z" fill="#0C0C0C"/>
<path d="M16.6935 16.0533V15.5378H16.8891V16.4889H16.6757L16.2757 15.8933V16.4622H16.0713V15.5378H16.2846L16.6757 16.0978V16.1422C16.6757 16.1422 16.6935 16.0622 16.6935 16.0533Z" fill="#0C0C0C"/>
<path d="M22.915 16.4711V15.5378H23.1106L23.5195 16.1067V15.5378H23.7239V16.4711H23.5195L23.1106 15.9022V16.4889L22.915 16.4711Z" fill="#0C0C0C"/>
<path d="M11.4756 16.48V15.5289H11.84C11.9556 15.5289 12.0978 15.5289 12.1334 15.6711C12.1689 15.8133 12.1334 15.9289 12.0178 15.9644C12.078 15.9848 12.1282 16.0275 12.1579 16.0837C12.1877 16.1399 12.1948 16.2054 12.1778 16.2667C12.1581 16.333 12.1168 16.391 12.0604 16.4312C12.0041 16.4715 11.9359 16.4918 11.8667 16.4889L11.4756 16.48ZM11.9467 16.1867C11.9467 16.1067 11.8223 16.0889 11.6978 16.0978V16.3022C11.8134 16.3022 11.9467 16.3022 11.9467 16.1867ZM11.68 15.6978C11.68 15.7778 11.68 15.8311 11.68 15.8844C11.68 15.9378 11.9111 15.8844 11.9023 15.76C11.8934 15.6356 11.68 15.6978 11.68 15.6978Z" fill="#0C0C0C"/>
<path d="M13.0753 15.5289H13.4397C13.5006 15.5187 13.5631 15.53 13.6166 15.5608C13.6701 15.5916 13.7113 15.64 13.7331 15.6978C13.7572 15.7592 13.7568 15.8276 13.732 15.8888C13.7072 15.95 13.6599 15.9993 13.5997 16.0267L13.8753 16.4622H13.6442L13.3331 16.1067H13.262C13.262 16.1067 13.262 16.3289 13.262 16.4622H13.0664L13.0753 15.5289ZM13.2709 15.6978V15.9378C13.2709 15.9378 13.5286 15.9378 13.4931 15.7867C13.4575 15.6355 13.2709 15.6978 13.2709 15.6978Z" fill="#0C0C0C"/>
<path d="M25.6087 15.5289H25.982C26.0427 15.5204 26.1046 15.5324 26.1577 15.563C26.2108 15.5936 26.2522 15.641 26.2754 15.6978C26.2974 15.7594 26.2959 15.827 26.2714 15.8876C26.2468 15.9483 26.2007 15.9978 26.142 16.0267L26.4265 16.4622H26.1865L25.9109 16.0889H25.7776C25.7776 16.0889 25.7776 16.3111 25.7776 16.4444H25.582L25.6087 15.5289ZM25.8131 15.6978V15.9378C25.8131 15.9378 26.0709 15.9378 26.0354 15.7867C25.9998 15.6356 25.7776 15.6978 25.7776 15.6978H25.8131Z" fill="#0C0C0C"/>
<path d="M24.7646 16.48H24.498L24.1958 16.0533V16.4711H23.9824V15.5378H24.1869V15.9022L24.498 15.5378H24.738L24.418 15.9822L24.7646 16.48Z" fill="#0C0C0C"/>
<path d="M28.9775 16L29.3242 16.48H29.0664L28.7464 16V16.4356H28.542V15.5467H28.7464V15.9111C28.8353 15.7956 28.9153 15.6711 29.0042 15.5467H29.3331L28.9775 16Z" fill="#0C0C0C"/>
<path d="M22.7909 16.48H22.5597L22.4886 16.3111H22.1509L22.0709 16.48H21.8486L22.222 15.5378H22.4797L22.7909 16.48ZM22.4353 16.1156C22.4353 15.9911 22.3642 15.8933 22.3286 15.8044L22.2397 16.1067L22.4353 16.1156Z" fill="#0C0C0C"/>
<path d="M19.7688 15.5378H19.991V16.0889C19.991 16.2844 20.071 16.32 20.2932 16.2578C20.4088 16.0444 20.2932 15.7956 20.3643 15.5378H20.5421C20.5471 15.5612 20.5471 15.5855 20.5421 15.6089C20.5421 15.7778 20.5421 15.9467 20.5421 16.1156C20.5279 16.2103 20.4801 16.2967 20.4075 16.3592C20.3349 16.4217 20.2423 16.4561 20.1465 16.4561C20.0508 16.4561 19.9581 16.4217 19.8856 16.3592C19.813 16.2967 19.7652 16.2103 19.751 16.1156C19.7599 15.92 19.7688 15.7333 19.7688 15.5378Z" fill="#0C0C0C"/>
<path d="M9.43965 15.5289H9.77743C9.98187 15.5289 10.0885 15.6356 10.1063 15.8044C10.1115 15.8898 10.0842 15.974 10.0297 16.04C9.97528 16.106 9.89782 16.1489 9.81299 16.16H9.62632C9.62632 16.2578 9.62632 16.3467 9.62632 16.4533H9.42188L9.43965 15.5289ZM9.66187 15.9733C9.78632 15.9733 9.87521 15.9733 9.91076 15.84C9.94632 15.7067 9.78632 15.6978 9.66187 15.7244V15.9733Z" fill="#0C0C0C"/>
<path d="M25.4131 15.5378V15.6978H25.0931V15.8667H25.3776C25.3776 15.9289 25.3776 15.9822 25.3776 16.0444H25.0753V16.2489H25.4042C25.4086 16.3081 25.4086 16.3675 25.4042 16.4267H24.8887V15.5378H25.4131Z" fill="#0C0C0C"/>
<path d="M12.8978 16.48H12.3467V15.5378H12.8889V15.7067H12.5778V15.8933H12.8622V16.0622H12.5689V16.2933H12.9067L12.8978 16.48Z" fill="#0C0C0C"/>
<path d="M21.5375 15.7156V16.48H21.3331V15.7067H21.0664V15.5378H21.8131V15.7067L21.5375 15.7156Z" fill="#0C0C0C"/>
<path d="M27.0484 15.7156H26.7995C26.7947 15.6594 26.7947 15.6029 26.7995 15.5467H27.5551C27.5551 15.5911 27.5551 15.6444 27.5551 15.7067H27.2884V16.4533H27.0573L27.0484 15.7156Z" fill="#0C0C0C"/>
<path d="M10.6666 15.7244V16.4711H10.4444V15.6978H10.1777V15.52H10.9244C10.9211 15.5703 10.9211 15.6208 10.9244 15.6711L10.6666 15.7244Z" fill="#0C0C0C"/>
<path d="M14.5151 16.2933V16.4711H13.9551V15.5378H14.1684V16.2933H14.5151Z" fill="#0C0C0C"/>
<path d="M17.7152 16.2933H18.0619C18.0619 16.3644 18.0619 16.4178 18.0619 16.48H17.5107V15.5378H17.7152V16.2933Z" fill="#0C0C0C"/>
<path d="M5.86604 15.1111C6.02604 15.2978 6.02604 15.44 5.86604 15.5822C5.91916 15.6423 5.94847 15.7198 5.94847 15.8C5.94847 15.8802 5.91916 15.9577 5.86604 16.0178C5.7416 16.1956 5.54604 16.1511 5.35938 16.16V15.1111H5.86604ZM5.80382 15.6889H5.5816V15.8489C5.57849 15.9081 5.57849 15.9675 5.5816 16.0267L5.80382 16V15.6889ZM5.59937 15.52C5.77715 15.52 5.81271 15.52 5.81271 15.3867C5.81271 15.2533 5.81271 15.2444 5.59937 15.2356V15.52Z" fill="#FDFDFD"/>
<path d="M6.98681 16.1067H6.80015V15.2178L6.5957 15.1644V15.1111H7.17348V15.2089L6.97793 15.2622L6.98681 16.1067Z" fill="#FDFDFD"/>
<path d="M6.67581 16V16.1333H6.15137V15.1111H6.31137V16H6.67581Z" fill="#FDFDFD"/>
<path d="M5.80405 15.6889V16H5.59961C5.59961 15.9289 5.59961 15.8755 5.59961 15.8222V15.6622L5.80405 15.6889Z" fill="#2193CF"/>
<path d="M5.59961 15.52V15.2355C5.7685 15.2355 5.81294 15.28 5.81294 15.3867C5.81294 15.4933 5.77739 15.5111 5.59961 15.52Z" fill="#2193CF"/>
</g>
<defs>
<clipPath id="clip0_2707_363893">
<rect width="32" height="32" fill="white"/>
</clipPath>
</defs>
</svg>
