<svg width="32" height="32" viewBox="0 0 32 32" fill="none" xmlns="http://www.w3.org/2000/svg">
<g clip-path="url(#clip0_2707_363638)">
<mask id="mask0_2707_363638" style="mask-type:luminance" maskUnits="userSpaceOnUse" x="0" y="0" width="32" height="32">
<path d="M31.9724 0.0195389H0.00195312V31.9899H31.9724V0.0195389Z" fill="white"/>
</mask>
<g mask="url(#mask0_2707_363638)">
<path d="M15.9872 31.9899C24.8155 31.9899 31.9724 24.8331 31.9724 16.0047C31.9724 7.17636 24.8155 0.0195389 15.9872 0.0195389C7.15877 0.0195389 0.00195312 7.17636 0.00195312 16.0047C0.00195312 24.8331 7.15877 31.9899 15.9872 31.9899Z" fill="white"/>
<path d="M1.97427 14.4442H4.58756C4.66544 14.4516 4.73968 14.493 4.78509 14.557C4.82251 14.6075 4.83968 14.6708 4.83885 14.7332C4.83891 15.571 4.83879 16.4088 4.83891 17.2466C4.83962 17.2959 4.83838 17.3468 4.81878 17.393C4.78302 17.4855 4.69401 17.5544 4.59529 17.5653H1.96377C1.89242 17.5557 1.82511 17.518 1.78115 17.4609C1.74877 17.4192 1.72861 17.3682 1.72363 17.3156V14.6954C1.72946 14.6399 1.75096 14.5858 1.78689 14.5429C1.83295 14.4867 1.90199 14.4507 1.97427 14.4442ZM2.34303 14.9338C2.2433 14.9902 2.15565 15.0747 2.11234 15.1824C2.10047 15.2143 2.08786 15.2472 2.08931 15.2818C2.08961 15.4019 2.08937 15.5221 2.08943 15.6421C2.08644 15.8661 2.0886 16.0902 2.08804 16.3143C2.08508 16.4599 2.08709 16.6056 2.0865 16.7513C2.08762 16.8933 2.08431 17.0353 2.08502 17.1773C2.38933 17.1774 2.69367 17.1773 2.99798 17.1774C3.04431 17.1762 3.08827 17.1533 3.11958 17.1199C3.15798 17.0776 3.17906 17.0207 3.17947 16.9638C3.17947 16.7835 3.17941 16.6033 3.17953 16.423C3.10617 16.4985 3.01254 16.5556 2.90953 16.5792C2.78327 16.6088 2.64835 16.5875 2.5329 16.5303C2.44279 16.4873 2.3642 16.4237 2.29528 16.352C2.36073 16.2193 2.48923 16.1221 2.63254 16.088C2.78339 16.0511 2.94499 16.0761 3.08406 16.1427C3.04324 16.0684 3.01852 15.9859 3.00659 15.9023C2.98895 15.7735 3.00337 15.6379 3.06159 15.5207C3.10789 15.4265 3.18465 15.3473 3.27834 15.2998C3.33305 15.33 3.38367 15.3684 3.42407 15.4164C3.49796 15.5018 3.53849 15.6123 3.55006 15.7237C3.56462 15.8673 3.53706 16.0159 3.46845 16.1432C3.62267 16.0683 3.80665 16.0461 3.97035 16.1028C4.09403 16.1446 4.20089 16.2352 4.25983 16.3519C4.19169 16.4222 4.11428 16.4847 4.02595 16.5278C3.91159 16.5852 3.77809 16.6083 3.65219 16.5812C3.54609 16.5595 3.45057 16.501 3.37446 16.4251C3.37375 16.6025 3.37446 16.78 3.3741 16.9574C3.37168 17.0242 3.39953 17.0926 3.45074 17.1362C3.48049 17.1617 3.51919 17.177 3.5585 17.1774C3.86133 17.1773 4.16425 17.1774 4.46714 17.1774C4.46649 16.8583 4.46868 16.5392 4.46569 16.2202V15.27C4.46521 15.2474 4.45713 15.2258 4.45044 15.2045C4.41693 15.1072 4.34695 15.0258 4.2633 14.9675C4.14376 14.8843 3.99862 14.8407 3.85348 14.837C3.71494 14.8359 3.56992 14.8609 3.45465 14.9423C3.36662 15.0036 3.3059 15.0986 3.27757 15.2012C3.25285 15.1183 3.20984 15.0396 3.14572 14.9806C3.05014 14.8914 2.91927 14.8507 2.79118 14.8403C2.63701 14.8257 2.47802 14.8573 2.34303 14.9338Z" fill="#E42028"/>
<path d="M15.9478 14.7498C15.9696 14.7248 16.0109 14.7265 16.0346 14.7478C16.061 14.7725 16.0773 14.8054 16.0926 14.8376C16.3712 15.4111 16.6478 15.9856 16.926 16.5593C17.1973 15.9924 17.4666 15.4244 17.7372 14.8571C17.754 14.8208 17.7712 14.7839 17.7973 14.7532C17.8226 14.721 17.8775 14.7259 17.898 14.761C17.92 14.7929 17.9226 14.8328 17.9281 14.8701C18.023 15.5145 18.1176 16.159 18.2126 16.8035C18.2281 16.881 18.2347 16.9652 18.2825 17.0313C18.2997 17.059 18.3315 17.0728 18.362 17.0808C18.4253 17.0983 18.4922 17.1119 18.5578 17.0997C18.6254 17.0856 18.6763 17.0309 18.7057 16.9709C18.7501 16.8795 18.7887 16.7854 18.8289 16.6922C19.0291 16.2257 19.2294 15.7594 19.4295 15.2929C19.4486 15.2492 19.4662 15.2048 19.487 15.1619C19.4994 15.1371 19.5139 15.1105 19.54 15.0977C19.5723 15.0798 19.6148 15.0943 19.6352 15.1237C19.6672 15.17 19.6844 15.224 19.7087 15.2743C19.8526 15.6125 19.9957 15.9509 20.1408 16.2885C20.1947 16.409 20.2424 16.5322 20.2961 16.6527C20.3419 16.7487 20.3748 16.8509 20.4298 16.9424C20.4584 16.9927 20.4922 17.0422 20.5395 17.0768C20.5703 17.098 20.6085 17.1008 20.6446 17.1046C20.6697 17.1072 20.6962 17.104 20.7203 17.1132C20.7525 17.1245 20.7594 17.1771 20.7292 17.1944C20.7066 17.2105 20.6774 17.2074 20.6514 17.2095C20.4742 17.2108 20.2971 17.2085 20.12 17.2048C20.0917 17.2032 20.0632 17.205 20.0351 17.2011C20.0168 17.1984 19.9959 17.198 19.9825 17.1835C19.9667 17.1684 19.97 17.1421 19.9824 17.1259C19.9929 17.1101 20.0141 17.1105 20.0301 17.1039C20.0397 17.0926 20.0317 17.0783 20.028 17.0664C19.9578 16.8917 19.8894 16.7163 19.8191 16.5416C19.6017 16.5417 19.3843 16.5416 19.1669 16.5417C19.1182 16.6616 19.0674 16.7807 19.0184 16.9004C19.0074 16.9286 18.9952 16.9565 18.9898 16.9864C18.9843 17.0155 18.9727 17.0458 18.9819 17.0752C18.9912 17.101 19.0226 17.1048 19.0463 17.1063C19.0787 17.1092 19.1136 17.1006 19.1444 17.114C19.1792 17.1294 19.1775 17.1865 19.1444 17.2024C19.1154 17.2147 19.0831 17.2089 19.0527 17.2087C18.9698 17.2083 18.887 17.2036 18.8044 17.1995C18.7202 17.2054 18.6356 17.2075 18.5512 17.2088C18.4803 17.2151 18.4092 17.2064 18.3383 17.2084C18.2084 17.2043 18.0785 17.2002 17.9486 17.1959C17.8961 17.1927 17.8426 17.1935 17.7916 17.1792C17.7611 17.1716 17.7406 17.1329 17.7613 17.106C17.7719 17.0907 17.7897 17.0833 17.8052 17.0738C17.8127 17.0354 17.8087 16.9959 17.8017 16.9577C17.7427 16.5226 17.6843 16.0874 17.625 15.6523C17.4174 16.0794 17.213 16.5081 17.0065 16.9357C16.9746 17.0017 16.9448 17.0687 16.909 17.1328C16.8945 17.1614 16.8777 17.1934 16.846 17.2056C16.8201 17.2119 16.795 17.1966 16.7802 17.1764C16.757 17.1455 16.7395 17.1108 16.7204 17.0774C16.6504 16.9441 16.5807 16.8107 16.5133 16.6761C16.4529 16.5536 16.386 16.4344 16.332 16.309C16.2736 16.1863 16.2189 16.0619 16.1584 15.9403C16.1309 15.8813 16.1025 15.8228 16.0755 15.7635C16.0634 15.7378 16.0534 15.711 16.0391 15.6863C15.994 16.0291 15.9502 16.3722 15.9056 16.7151C15.893 16.8172 15.8755 16.9192 15.8755 17.0223C15.8762 17.051 15.8994 17.0733 15.925 17.0828C15.9629 17.0964 16.0031 17.102 16.0432 17.1051C16.069 17.1085 16.0964 17.1025 16.1208 17.1143C16.1592 17.1252 16.1537 17.1856 16.1196 17.1989C16.0766 17.2158 16.0293 17.209 15.9843 17.2087C15.9095 17.2092 15.8348 17.2036 15.76 17.202C15.7228 17.1971 15.6856 17.2022 15.6485 17.203C15.5677 17.2064 15.4868 17.2098 15.406 17.2099C15.3849 17.2085 15.3601 17.2068 15.3454 17.1897C15.3315 17.1756 15.3291 17.1533 15.3351 17.1352C15.343 17.1144 15.3682 17.1094 15.3879 17.1068C15.4292 17.1068 15.4716 17.1056 15.5109 17.0914C15.5439 17.0776 15.5593 17.0429 15.5721 17.0118C15.5985 16.9335 15.6061 16.8507 15.6194 16.7696C15.7172 16.124 15.8151 15.4785 15.9128 14.8329C15.9183 14.8033 15.9279 14.773 15.9478 14.7498ZM19.392 15.9699C19.342 16.096 19.2924 16.2223 19.2424 16.3484C19.4083 16.3484 19.5742 16.3486 19.7402 16.3482C19.6583 16.1362 19.5771 15.924 19.495 15.712C19.4585 15.7971 19.4266 15.8841 19.392 15.9699Z" fill="#4D4949"/>
<path d="M5.70997 14.8954C5.67416 14.8777 5.6783 14.8152 5.71865 14.806C5.78286 14.7938 5.84857 14.8018 5.9134 14.8027C6.00594 14.8019 6.09833 14.8087 6.19077 14.8087C6.39106 14.8135 6.59286 14.7831 6.79199 14.8158C6.89241 14.8311 6.99003 14.8662 7.07558 14.9211C7.12096 14.9539 7.16469 14.9912 7.19494 15.039C7.23751 15.1026 7.26492 15.1766 7.27149 15.253C7.27282 15.3099 7.27137 15.3671 7.26075 15.4232C7.23703 15.5273 7.18417 15.6238 7.11294 15.703C7.07283 15.75 7.02532 15.7897 6.9805 15.8319C7.08846 15.8751 7.19118 15.9337 7.27874 16.0105C7.36122 16.0794 7.42877 16.1668 7.47172 16.2655C7.50641 16.3416 7.52015 16.4259 7.52335 16.509C7.52441 16.6811 7.45751 16.8539 7.33608 16.9766C7.20335 17.1115 7.01907 17.1871 6.83288 17.2081C6.75887 17.2193 6.68383 17.2196 6.6092 17.2183C6.53668 17.2119 6.46377 17.2131 6.3913 17.2068C6.33633 17.2016 6.28097 17.2043 6.226 17.1997C6.17861 17.1971 6.13148 17.2042 6.08409 17.2024C6.01908 17.2042 5.95402 17.2033 5.88916 17.2083C5.84496 17.2062 5.79718 17.2188 5.75606 17.1974C5.72898 17.1851 5.72267 17.1449 5.7436 17.1245C5.75482 17.1115 5.7727 17.109 5.78881 17.1076C5.83504 17.1045 5.88309 17.1058 5.92717 17.0893C5.95541 17.0742 5.9655 17.0404 5.97275 17.0112C5.98729 16.9414 5.99424 16.87 5.9943 16.7987C5.99901 16.6648 6.00244 16.5309 6.00167 16.3969V15.4115C6.00132 15.376 6.00321 15.3406 5.99895 15.3053C5.99753 15.2406 6.00102 15.1758 5.9962 15.1112C5.99401 15.0595 5.99572 15.0025 5.9652 14.958C5.92746 14.9118 5.86219 14.9078 5.8071 14.9049C5.77495 14.8996 5.74055 14.9084 5.70997 14.8954ZM6.42454 14.9849C6.42235 15.2546 6.42389 15.5244 6.42371 15.7941C6.51089 15.8056 6.60005 15.8084 6.68703 15.7934C6.74833 15.782 6.7983 15.7386 6.8337 15.6892C6.898 15.5883 6.90602 15.4621 6.88986 15.3464C6.87417 15.2495 6.83581 15.154 6.76926 15.0807C6.7102 15.0176 6.62613 14.9744 6.53839 14.9766C6.50041 14.9781 6.4611 14.9719 6.42454 14.9849ZM6.4236 15.9781C6.42348 16.2338 6.42354 16.4894 6.42354 16.7451C6.42318 16.7927 6.42401 16.8405 6.43014 16.8877C6.43455 16.9148 6.44417 16.942 6.46228 16.963C6.48694 16.9851 6.51877 16.9962 6.54943 17.0073C6.61003 17.0299 6.67545 17.0301 6.73924 17.0326C6.83811 17.03 6.93953 16.9932 7.00676 16.9185C7.0363 16.8805 7.06061 16.8376 7.07431 16.7912C7.10039 16.6833 7.0934 16.5699 7.06928 16.4624C7.04062 16.3408 6.98201 16.2255 6.89525 16.1351C6.86277 16.1024 6.82693 16.0731 6.78939 16.0466C6.75097 16.0191 6.7055 16.0037 6.6597 15.9939C6.58182 15.9798 6.5024 15.9793 6.4236 15.9781Z" fill="#4D4949"/>
<path d="M8.5463 15.1138C8.56933 15.0869 8.61228 15.0826 8.64111 15.1025C8.66536 15.1187 8.67693 15.1467 8.6904 15.1714C8.79063 15.3956 8.88214 15.6236 8.98098 15.8485C9.03029 15.9659 9.08014 16.0832 9.12976 16.2006C9.1736 16.3025 9.21916 16.4037 9.26069 16.5066C9.30506 16.6081 9.34932 16.7096 9.39227 16.8117C9.42181 16.8809 9.45568 16.949 9.50082 17.0096C9.52844 17.0449 9.56017 17.0809 9.60461 17.0944C9.65091 17.1061 9.69901 17.1047 9.74619 17.1096C9.79705 17.103 9.84992 17.1079 9.89936 17.0923C9.93435 17.0821 9.94195 17.0421 9.94805 17.0112C9.95735 16.9447 9.95824 16.8773 9.95841 16.8102C9.96661 16.295 9.97469 15.7797 9.98278 15.2645C9.98467 15.2205 9.97896 15.1717 10.0064 15.1338C10.0202 15.1092 10.0522 15.103 10.0777 15.1101C10.1009 15.1182 10.121 15.133 10.1384 15.1501C10.1813 15.1898 10.2218 15.2321 10.2617 15.2748C10.3034 15.3157 10.3446 15.357 10.3849 15.3994C10.452 15.4622 10.5139 15.5302 10.5798 15.5942C10.7389 15.7538 10.8983 15.9131 11.06 16.0701C11.1498 16.1591 11.2394 16.2485 11.3269 16.34C11.4192 16.4314 11.5099 16.5243 11.6018 16.616C11.5937 16.2778 11.5854 15.9398 11.5777 15.6016C11.574 15.5206 11.578 15.4388 11.5646 15.3585C11.5598 15.3281 11.5476 15.2961 11.5196 15.2801C11.4714 15.2509 11.4124 15.2545 11.3583 15.2538C11.3385 15.2518 11.315 15.2493 11.3027 15.2315C11.2856 15.2125 11.2932 15.1795 11.3128 15.1652C11.3342 15.1549 11.3587 15.154 11.3821 15.1536C11.4704 15.1536 11.5587 15.1557 11.647 15.1568C11.7758 15.1655 11.9046 15.1488 12.0334 15.1546C12.0511 15.1571 12.0732 15.1589 12.0829 15.1764C12.1035 15.2037 12.0814 15.2464 12.0486 15.2498C12.0017 15.2579 11.9496 15.2497 11.9074 15.277C11.8737 15.3032 11.8691 15.3487 11.8633 15.3878C11.8571 15.4628 11.8606 15.538 11.8573 15.613C11.8494 16.0603 11.8406 16.5075 11.8326 16.9548C11.8301 17.0246 11.8321 17.0945 11.8268 17.1642C11.8232 17.1947 11.8072 17.228 11.777 17.2394C11.7427 17.2455 11.7065 17.2351 11.678 17.2159C11.6244 17.1781 11.5798 17.1297 11.5318 17.0855C11.4639 17.0173 11.3908 16.9547 11.3224 16.8872C11.1614 16.7335 11.0022 16.578 10.8403 16.4254C10.7867 16.3747 10.7356 16.3214 10.683 16.2697C10.6076 16.1995 10.5399 16.1217 10.4668 16.0493C10.3822 15.964 10.3025 15.8738 10.2179 15.7885C10.2252 16.0838 10.2344 16.3791 10.2422 16.6745C10.2448 16.7454 10.2447 16.8165 10.2508 16.8873C10.2554 16.9444 10.2592 17.0038 10.2866 17.0554C10.2956 17.0695 10.3079 17.0829 10.3244 17.0882C10.3686 17.1026 10.4154 17.1065 10.4617 17.1066C10.482 17.106 10.5024 17.1122 10.518 17.1254C10.5352 17.1381 10.533 17.1635 10.5261 17.1812C10.5138 17.2037 10.4848 17.2085 10.4616 17.2096C10.3375 17.2103 10.2134 17.2059 10.0895 17.2C10.0149 17.2045 9.94024 17.2085 9.86555 17.2085C9.8242 17.2097 9.78237 17.2128 9.74149 17.2053C9.64943 17.2137 9.55668 17.2082 9.46435 17.2099C9.39757 17.2067 9.33073 17.21 9.26406 17.2069C9.20092 17.2048 9.13766 17.2056 9.07461 17.2024C9.05341 17.1992 9.02846 17.2009 9.01194 17.185C8.99382 17.1683 8.99661 17.137 9.01419 17.121C9.02852 17.1086 9.04989 17.1111 9.06434 17.0988C9.0599 17.0745 9.04942 17.052 9.04045 17.0292C8.97565 16.8667 8.91177 16.7039 8.84655 16.5416C8.62921 16.5417 8.4119 16.5416 8.19456 16.5416C8.14374 16.6648 8.09202 16.7876 8.04173 16.911C8.02287 16.9539 8.01195 16.9999 8.00641 17.0463C8.00357 17.0663 8.01082 17.0915 8.03214 17.0983C8.07503 17.1154 8.12251 17.0991 8.16629 17.1112C8.20318 17.1228 8.20783 17.1782 8.17825 17.1995C8.14924 17.2154 8.11502 17.2091 8.08353 17.2088C8.00869 17.2086 7.93395 17.2042 7.85926 17.201C7.82386 17.1961 7.78863 17.2049 7.75322 17.204C7.66874 17.2072 7.58426 17.2095 7.49971 17.2099C7.47858 17.2096 7.45279 17.2076 7.43977 17.1884C7.43186 17.1781 7.43145 17.1645 7.43169 17.1521C7.43157 17.1266 7.45646 17.1067 7.48094 17.107C7.52825 17.1028 7.57848 17.1089 7.62241 17.0872C7.65959 17.0719 7.68763 17.0416 7.71033 17.0094C7.74692 16.9553 7.76886 16.8934 7.79523 16.8341C8.01855 16.3137 8.24193 15.7932 8.46537 15.2729C8.49032 15.219 8.50737 15.1599 8.5463 15.1138ZM8.2699 16.3485C8.43579 16.3482 8.60165 16.3487 8.76758 16.3483C8.68584 16.1357 8.60367 15.9233 8.52205 15.7107C8.4371 15.9229 8.35397 16.1359 8.2699 16.3485Z" fill="#4D4949"/>
<path d="M28.1594 15.144C28.1696 15.1233 28.1909 15.1059 28.2151 15.1076C28.2378 15.1068 28.2596 15.1169 28.2768 15.1314C28.336 15.1823 28.3889 15.2397 28.4432 15.2957C28.4974 15.3477 28.5481 15.4033 28.6019 15.4558C28.756 15.6084 28.907 15.764 29.0627 15.915C29.2283 16.0758 29.3902 16.2405 29.5531 16.4041C29.6241 16.4736 29.6907 16.5476 29.7624 16.6165C29.7538 16.2484 29.7449 15.8803 29.736 15.5121C29.7331 15.4475 29.7351 15.3807 29.7123 15.3192C29.7026 15.2926 29.6774 15.2749 29.6514 15.2666C29.6105 15.2541 29.5671 15.2534 29.5247 15.254C29.5028 15.2528 29.4767 15.2515 29.4628 15.2323C29.4465 15.2105 29.4506 15.17 29.4801 15.1619C29.5192 15.1497 29.5609 15.1525 29.6015 15.1523C29.6819 15.157 29.763 15.1543 29.8435 15.1584C29.9219 15.1629 30.0001 15.1543 30.0785 15.1544C30.1253 15.155 30.1732 15.1471 30.2191 15.1597C30.2345 15.1629 30.2443 15.1763 30.2505 15.19V15.2146C30.2396 15.2432 30.2079 15.2537 30.1798 15.2537C30.1469 15.2535 30.1135 15.2562 30.083 15.2684C30.0566 15.2808 30.0371 15.3061 30.0318 15.3347C30.0164 15.4045 30.0196 15.4766 30.0172 15.5477C30.0075 16.0766 29.998 16.6055 29.9879 17.1345C29.9871 17.1667 29.9841 17.2034 29.958 17.226C29.9403 17.2462 29.9104 17.2423 29.887 17.2373C29.8538 17.2305 29.8263 17.2098 29.8017 17.1879C29.7328 17.1254 29.6665 17.0596 29.598 16.9965C29.5108 16.9145 29.4234 16.8329 29.3378 16.7493C29.1699 16.5867 29.0002 16.4258 28.8338 16.2616C28.762 16.1918 28.695 16.1174 28.6238 16.047C28.5407 15.9608 28.4597 15.8728 28.376 15.7874C28.3871 16.1478 28.3977 16.5082 28.4084 16.8686C28.4104 16.9225 28.4179 16.9765 28.4339 17.0281C28.4418 17.0521 28.4571 17.0758 28.4806 17.0871C28.528 17.1035 28.5785 17.1064 28.6284 17.107C28.6478 17.1066 28.6666 17.1153 28.6808 17.1285C28.6988 17.1487 28.6936 17.187 28.6681 17.1984C28.6356 17.2153 28.5979 17.2086 28.563 17.2098C28.5157 17.2078 28.4685 17.209 28.4213 17.2071C28.3445 17.2066 28.2675 17.1953 28.1908 17.2035C28.1142 17.2076 28.0375 17.2088 27.9609 17.21C27.9367 17.2096 27.9113 17.2108 27.8894 17.1996C27.874 17.192 27.8646 17.1752 27.8664 17.1582C27.8638 17.1323 27.889 17.1152 27.911 17.1091C27.9393 17.1048 27.9683 17.1066 27.9969 17.1031C28.0258 17.0997 28.0594 17.1 28.0816 17.078C28.0982 17.0585 28.1031 17.0323 28.1074 17.0078C28.1222 16.8952 28.1181 16.7814 28.1214 16.6682C28.129 16.1805 28.1368 15.6929 28.1445 15.2052C28.1459 15.1842 28.1505 15.1632 28.1594 15.144Z" fill="#4D4949"/>
<path d="M21.433 15.1218C21.5208 15.111 21.6095 15.116 21.6976 15.1216C21.779 15.1285 21.8603 15.1403 21.9395 15.1603C21.9666 15.1662 21.9963 15.1859 21.9948 15.2171C21.9859 15.3311 21.9853 15.4455 21.9841 15.5598C21.9821 15.5844 21.9783 15.6113 21.9606 15.6299C21.9477 15.6444 21.9259 15.6465 21.9084 15.6412C21.8891 15.6341 21.8786 15.6136 21.8764 15.5942C21.8767 15.4724 21.7884 15.3571 21.6725 15.3218C21.5983 15.2958 21.5175 15.2925 21.4402 15.3036C21.3474 15.3182 21.2526 15.3604 21.2003 15.4418C21.1673 15.5004 21.1603 15.5723 21.1791 15.6368C21.1981 15.701 21.2469 15.7507 21.2983 15.7912C21.3831 15.8557 21.4793 15.9027 21.5715 15.9556C21.7055 16.0337 21.8391 16.1221 21.9312 16.2496C22.0005 16.3388 22.0365 16.4504 22.0461 16.5621C22.0474 16.6271 22.0473 16.693 22.0326 16.7567C22.0109 16.8608 21.9556 16.9562 21.8816 17.0318C21.8063 17.106 21.7182 17.1707 21.6163 17.2024C21.482 17.2453 21.3394 17.2466 21.1998 17.2429C21.0748 17.234 20.9461 17.2254 20.8303 17.1728C20.8059 17.1642 20.7825 17.1475 20.7739 17.1222C20.7613 17.0846 20.7643 17.0442 20.7672 17.0053C20.7674 16.8985 20.776 16.7919 20.7827 16.6854C20.784 16.6595 20.7957 16.6313 20.8204 16.6198C20.8417 16.6083 20.8692 16.6193 20.8817 16.6388C20.8888 16.6513 20.8901 16.6661 20.8911 16.6802C20.8921 16.7434 20.9103 16.805 20.9339 16.8631C20.9656 16.9232 21.017 16.9721 21.0769 17.0038C21.1791 17.0536 21.2965 17.0697 21.4087 17.0535C21.5071 17.0392 21.602 16.9833 21.6504 16.8945C21.711 16.7808 21.7011 16.6253 21.6081 16.5315C21.5417 16.4569 21.4542 16.4067 21.369 16.357C21.272 16.3001 21.1728 16.2456 21.085 16.1749C21.0062 16.1123 20.9355 16.0369 20.8882 15.9475C20.8347 15.8452 20.8168 15.7263 20.8285 15.6121C20.8419 15.4892 20.908 15.3755 21.0012 15.2956C21.1202 15.1906 21.2773 15.139 21.433 15.1218Z" fill="#4D4949"/>
<path d="M26.4307 15.1216C26.584 15.108 26.739 15.1167 26.8904 15.1446C27.0939 15.1839 27.2925 15.2719 27.4426 15.4173C27.6027 15.569 27.6931 15.7836 27.7161 16.0009C27.7294 16.1347 27.724 16.2711 27.6931 16.4023C27.6694 16.5148 27.6228 16.6215 27.5651 16.7205C27.5077 16.8186 27.431 16.9046 27.3438 16.9771C27.19 17.1084 26.9975 17.1894 26.7991 17.2229C26.6618 17.2462 26.5217 17.2486 26.3833 17.2361C26.1549 17.2157 25.9302 17.1304 25.7546 16.9814C25.6744 16.9112 25.6055 16.8284 25.5496 16.7377C25.5056 16.6612 25.4689 16.5804 25.4437 16.4957C25.3656 16.2393 25.3863 15.9528 25.507 15.7127C25.5489 15.6192 25.6112 15.5363 25.6797 15.4608C25.7505 15.3822 25.8361 15.3181 25.9282 15.2665C26.0832 15.1838 26.2559 15.1364 26.4307 15.1216ZM26.3894 15.3099C26.3146 15.3196 26.2419 15.3428 26.1755 15.3785C26.0784 15.4285 26.0022 15.5132 25.9509 15.6086C25.8945 15.7173 25.8667 15.8386 25.8561 15.9599C25.8465 16.1038 25.8506 16.2496 25.8836 16.3905C25.9064 16.4979 25.9488 16.601 26.0072 16.694C26.0595 16.7746 26.1224 16.85 26.2006 16.9067C26.2877 16.9728 26.3902 17.0181 26.4976 17.0384C26.6277 17.0623 26.7669 17.0607 26.8898 17.0069C26.9869 16.9671 27.0712 16.8962 27.1269 16.8074C27.1506 16.7726 27.1714 16.7358 27.1865 16.6965C27.2272 16.6001 27.2493 16.4965 27.2576 16.3924C27.2666 16.3016 27.27 16.2101 27.2613 16.1192C27.2464 15.92 27.1809 15.7205 27.0532 15.5648C26.9807 15.482 26.893 15.41 26.7911 15.3669C26.6662 15.3099 26.525 15.2934 26.3894 15.3099Z" fill="#4D4949"/>
<path d="M12.3894 15.174C12.4021 15.1572 12.4245 15.1549 12.4441 15.1539C12.5977 15.1523 12.7513 15.1592 12.9049 15.1596C13.0012 15.1555 13.0975 15.1554 13.1938 15.1536C13.2222 15.1537 13.2569 15.1508 13.2769 15.1754C13.2941 15.1956 13.2863 15.2271 13.2655 15.2415C13.2435 15.2603 13.2127 15.2507 13.1868 15.2561C13.151 15.2625 13.1084 15.2636 13.0857 15.2966C13.0655 15.3419 13.0662 15.3926 13.0641 15.4412C13.0638 15.6338 13.0643 15.8263 13.0639 16.0189C13.1071 15.9719 13.1543 15.9287 13.1982 15.8825C13.2642 15.8127 13.3355 15.7482 13.4008 15.6777C13.4505 15.629 13.4979 15.5781 13.5476 15.5293C13.5903 15.4874 13.6297 15.4422 13.6686 15.3967C13.6946 15.3657 13.7246 15.3358 13.7383 15.2967C13.7437 15.2837 13.7402 15.2685 13.7319 15.2576C13.7135 15.2512 13.6938 15.247 13.6788 15.2339C13.6589 15.2143 13.6635 15.1769 13.6874 15.1623C13.7177 15.1483 13.7518 15.1546 13.7841 15.1549C13.8765 15.1547 13.9688 15.1615 14.0613 15.1596C14.1577 15.1559 14.2541 15.1541 14.3507 15.1538C14.3777 15.1521 14.4092 15.1695 14.411 15.199C14.4127 15.2292 14.3848 15.2536 14.3557 15.2533C14.2391 15.2557 14.1257 15.3012 14.0341 15.3723C13.9934 15.4019 13.9544 15.4341 13.9191 15.4702C13.838 15.5443 13.7587 15.6204 13.6791 15.6961C13.5947 15.7809 13.5046 15.86 13.4227 15.9473C13.398 15.9735 13.3711 15.9975 13.3475 16.0246C13.424 16.1225 13.5149 16.2077 13.5963 16.3013C13.7509 16.4616 13.902 16.6253 14.061 16.7811C14.1358 16.8499 14.2081 16.9218 14.2895 16.983C14.341 17.0255 14.4005 17.0575 14.4627 17.0815C14.5056 17.0984 14.5515 17.1071 14.5977 17.1065C14.6205 17.1051 14.6458 17.1135 14.6573 17.1347C14.6683 17.1527 14.6651 17.1774 14.6492 17.1916C14.6303 17.2074 14.6042 17.2106 14.5804 17.2099C14.4506 17.2089 14.3207 17.2117 14.191 17.2081C14.1109 17.2037 14.0292 17.1925 13.9568 17.156C13.8595 17.1075 13.7758 17.0362 13.701 16.9581C13.5482 16.796 13.4021 16.6275 13.256 16.4593C13.1916 16.3831 13.1246 16.3088 13.0642 16.2293C13.0638 16.4071 13.0642 16.5849 13.064 16.7629C13.0675 16.8417 13.0653 16.9207 13.0714 16.9994C13.0742 17.0313 13.0877 17.0653 13.1144 17.0844C13.1665 17.1097 13.2265 17.1023 13.2826 17.1071C13.303 17.1083 13.3238 17.1172 13.3349 17.1351C13.3467 17.1498 13.3424 17.1704 13.3336 17.1855C13.3159 17.2037 13.2897 17.2108 13.2649 17.2099C13.1584 17.2098 13.052 17.2066 12.9456 17.2034C12.8967 17.2031 12.8478 17.1963 12.7991 17.2019C12.7027 17.2055 12.6062 17.2089 12.5097 17.2099C12.4831 17.2101 12.4515 17.2099 12.4333 17.1873C12.4151 17.1683 12.4197 17.1342 12.4415 17.1199C12.4697 17.0988 12.5068 17.1096 12.5393 17.1045C12.5696 17.1003 12.61 17.0976 12.6231 17.0643C12.6457 17.0125 12.645 16.9545 12.6509 16.8991C12.6576 16.7437 12.6548 16.5879 12.6555 16.4323C12.6554 16.0921 12.6555 15.7519 12.6554 15.4116C12.6529 15.3711 12.6544 15.3233 12.6218 15.2937C12.576 15.2607 12.5173 15.2527 12.4623 15.254C12.4367 15.2542 12.4059 15.2538 12.3893 15.231C12.3742 15.2157 12.3741 15.1893 12.3894 15.174Z" fill="#4D4949"/>
<path d="M22.3552 15.1571C22.4219 15.146 22.4896 15.1564 22.5567 15.1552C22.6472 15.1547 22.7377 15.1603 22.8282 15.1596C22.8933 15.161 22.9582 15.1559 23.0234 15.1567C23.0957 15.1542 23.1682 15.1556 23.2406 15.153C23.3719 15.1528 23.5053 15.1661 23.6288 15.2131C23.673 15.2339 23.718 15.2547 23.7558 15.2863C23.8177 15.3326 23.8608 15.3993 23.8918 15.4691C23.9357 15.5677 23.936 15.6801 23.9144 15.7843C23.8928 15.8919 23.8441 15.9951 23.77 16.0765C23.6731 16.1874 23.5386 16.2646 23.3941 16.2932C23.328 16.3069 23.2605 16.3142 23.1932 16.314C23.16 16.308 23.1218 16.3189 23.0935 16.2967C23.0779 16.2866 23.0736 16.2664 23.0747 16.2491C23.0797 16.2266 23.1019 16.2123 23.1233 16.2074C23.1579 16.1967 23.1947 16.2041 23.23 16.1972C23.3413 16.1737 23.4345 16.0931 23.4869 15.9938C23.5368 15.9023 23.5422 15.7936 23.5278 15.6923C23.5188 15.6291 23.4977 15.5674 23.4644 15.5128C23.4365 15.4726 23.4037 15.4353 23.3654 15.4047C23.267 15.3248 23.1297 15.3074 23.0085 15.3329C23.0013 15.3546 23.0039 15.3777 23.0037 15.4002V16.4266C23.0042 16.5033 23.0022 16.5801 23.0052 16.6568C23.0043 16.7621 23.0067 16.8676 23.0147 16.9726C23.0208 17.0047 23.0213 17.0406 23.0424 17.0674C23.0541 17.0843 23.0752 17.0903 23.0944 17.095C23.1467 17.1064 23.2005 17.1048 23.2538 17.1074C23.2823 17.1089 23.3122 17.1345 23.3059 17.1653C23.3042 17.1897 23.2791 17.2031 23.2579 17.2079C23.2053 17.2133 23.1523 17.2071 23.0996 17.2084C23.0327 17.2098 22.966 17.2032 22.8992 17.2039C22.8576 17.2034 22.8162 17.2003 22.7749 17.1994C22.6923 17.2042 22.6098 17.2069 22.5272 17.2085C22.4896 17.2096 22.4521 17.2113 22.4147 17.2087C22.3899 17.2072 22.3623 17.1911 22.3605 17.1642C22.3548 17.1432 22.369 17.1218 22.3879 17.1134C22.4017 17.106 22.4176 17.1072 22.4329 17.1064C22.4688 17.1055 22.5067 17.1051 22.5396 17.0885C22.5696 17.0694 22.5718 17.0294 22.5793 16.998C22.5881 16.926 22.5902 16.8532 22.591 16.7807C22.5958 16.7119 22.5928 16.643 22.5937 16.5741V15.5357C22.5934 15.4964 22.5945 15.4571 22.5921 15.4179C22.5901 15.3821 22.5918 15.3441 22.5742 15.3117C22.562 15.2874 22.5344 15.2787 22.5109 15.2694C22.4675 15.2521 22.4199 15.2547 22.3742 15.2533C22.3512 15.2528 22.3279 15.2411 22.3187 15.2192C22.3046 15.1928 22.3277 15.1609 22.3552 15.1571Z" fill="#4D4949"/>
<path d="M24.2593 15.1566C24.301 15.1496 24.3435 15.1543 24.3856 15.155C24.4584 15.1551 24.5311 15.1564 24.6038 15.1595C24.7317 15.161 24.8595 15.1549 24.9874 15.1536C25.018 15.1534 25.0503 15.1493 25.0796 15.1611C25.0991 15.1691 25.1124 15.1906 25.1055 15.2117C25.1038 15.2406 25.0713 15.2533 25.0465 15.2537C25.0145 15.2528 24.9831 15.2583 24.9519 15.2641C24.9316 15.2675 24.9129 15.2782 24.8995 15.2935C24.8847 15.3226 24.8808 15.3559 24.8783 15.3881C24.8697 15.5374 24.8734 15.6871 24.8726 15.8367V16.4034C24.8729 16.5646 24.8708 16.7259 24.8775 16.887C24.8812 16.9423 24.8801 16.9991 24.8988 17.0521C24.9065 17.0671 24.9183 17.0809 24.9347 17.0869C24.9915 17.1064 25.0523 17.1041 25.1117 17.1066C25.1436 17.1035 25.1832 17.1282 25.1785 17.1636C25.1765 17.1895 25.151 17.2029 25.1286 17.2077C25.1032 17.2115 25.0775 17.2093 25.0522 17.2098C24.9896 17.2068 24.9269 17.21 24.8644 17.2062C24.7953 17.2028 24.7261 17.2039 24.657 17.1993C24.549 17.2049 24.4409 17.2076 24.3328 17.2099C24.309 17.2092 24.2847 17.2119 24.2617 17.2056C24.2383 17.1996 24.2181 17.1767 24.222 17.1516C24.2249 17.1268 24.2487 17.1085 24.2731 17.1075C24.3109 17.1055 24.3496 17.107 24.3863 17.0957C24.4086 17.0913 24.4276 17.0734 24.432 17.0508C24.4485 16.9839 24.4502 16.9144 24.4536 16.8459C24.4568 16.4486 24.4543 16.0512 24.4551 15.6538C24.4548 15.5713 24.4557 15.4887 24.4547 15.4062C24.4523 15.3644 24.451 15.316 24.4183 15.2852C24.3728 15.2529 24.3145 15.2553 24.2616 15.2526C24.2319 15.25 24.2109 15.2214 24.2155 15.1926C24.2201 15.1723 24.2388 15.1584 24.2593 15.1566Z" fill="#4D4949"/>
</g>
</g>
<defs>
<clipPath id="clip0_2707_363638">
<rect width="32" height="32" fill="white"/>
</clipPath>
</defs>
</svg>
