<svg width="32" height="32" viewBox="0 0 32 32" fill="none" xmlns="http://www.w3.org/2000/svg">
<g clip-path="url(#clip0_2707_363513)">
<path d="M15.9998 31.9822C24.8265 31.9822 31.982 24.8267 31.982 16C31.982 7.17326 24.8265 0.0177765 15.9998 0.0177765C7.17306 0.0177765 0.0175781 7.17326 0.0175781 16C0.0175781 24.8267 7.17306 31.9822 15.9998 31.9822Z" fill="white"/>
<path d="M3.351 18.4444C3.16342 18.1316 3.01419 17.7974 2.90655 17.4489C2.69576 16.7865 2.6289 16.0867 2.71047 15.3964C2.79204 14.7061 3.02014 14.0411 3.37951 13.4461C3.73888 12.8511 4.22122 12.3397 4.79424 11.9462C5.36726 11.5527 6.01773 11.2862 6.70211 11.1644C7.41437 11.0273 8.14848 11.0536 8.84907 11.2414C9.54967 11.4293 10.1985 11.7738 10.7466 12.2489C10.8316 12.3221 10.8923 12.4194 10.9205 12.528C10.9488 12.6366 10.9432 12.7512 10.9045 12.8565C10.8659 12.9619 10.796 13.0529 10.7042 13.1174C10.6125 13.182 10.5032 13.217 10.391 13.2178C10.2835 13.2198 10.178 13.1888 10.0888 13.1289C9.58285 12.7979 9.01885 12.5657 8.42655 12.4444C7.46957 12.2455 6.47369 12.3676 5.59311 12.7918C4.71252 13.2161 3.99634 13.9188 3.55544 14.7911C3.26718 15.3333 3.09606 15.9299 3.05319 16.5424C3.01031 17.155 3.09663 17.7696 3.30655 18.3467V18.4444H3.351Z" fill="#1D9B39"/>
<path d="M18.8794 17.3956H17.8572V17.2533C17.8572 16.3644 17.8572 15.5378 17.8572 14.6756C17.8466 14.5263 17.8852 14.3777 17.9671 14.2525C18.0489 14.1273 18.1696 14.0324 18.3105 13.9822C18.4935 13.9191 18.6806 13.8686 18.8705 13.8311V14.2222C18.9591 14.0866 19.0786 13.974 19.2192 13.8936C19.3599 13.8132 19.5176 13.7675 19.6794 13.76C19.8386 13.7511 19.9967 13.7904 20.1331 13.8729C20.2695 13.9554 20.3778 14.0771 20.4439 14.2222C20.6039 14.1244 20.7461 14.0089 20.9061 13.9289C21.0568 13.839 21.2275 13.788 21.4028 13.7805C21.5782 13.773 21.7526 13.8092 21.9105 13.8859C22.0683 13.9626 22.2046 14.0774 22.307 14.2199C22.4094 14.3624 22.4748 14.5282 22.4972 14.7022C22.5251 14.8218 22.54 14.9439 22.5416 15.0667V17.3333C22.5455 17.3569 22.5455 17.3809 22.5416 17.4044H21.5639V15.1111C21.5623 14.9855 21.5474 14.8603 21.5194 14.7378C21.5085 14.6742 21.4742 14.617 21.4231 14.5775C21.3721 14.538 21.3081 14.5191 21.2439 14.5244C21.1442 14.5283 21.0463 14.5524 20.9561 14.5951C20.866 14.6379 20.7855 14.6985 20.7194 14.7733C20.7061 14.8198 20.7061 14.8691 20.7194 14.9156V17.36H19.7239V15.1111C19.737 14.99 19.737 14.8678 19.7239 14.7467C19.7129 14.679 19.6763 14.6182 19.6217 14.5769C19.567 14.5355 19.4986 14.5167 19.4305 14.5244C19.3366 14.5301 19.245 14.556 19.1622 14.6005C19.0793 14.645 19.0071 14.707 18.9505 14.7822C18.9374 14.8257 18.9374 14.8721 18.9505 14.9156V17.36L18.8794 17.3956Z" fill="#363637"/>
<path d="M15.1996 12.2489V14.0267C15.3539 13.9506 15.5145 13.8882 15.6796 13.84C15.955 13.7769 16.2439 13.8138 16.4947 13.944C16.7455 14.0743 16.9418 14.2895 17.0485 14.5511C17.2338 14.9083 17.3231 15.3075 17.3075 15.7095C17.2919 16.1116 17.172 16.5027 16.9596 16.8444C16.8287 17.0587 16.6443 17.2353 16.4246 17.3568C16.2049 17.4784 15.9573 17.5407 15.7063 17.5378C15.2212 17.5539 14.7403 17.4436 14.3107 17.2178C14.2811 17.2053 14.256 17.1842 14.2386 17.1573C14.2211 17.1303 14.2122 17.0988 14.2129 17.0667C14.2129 15.7067 14.2129 14.3556 14.2129 12.9956C14.2132 12.9081 14.2334 12.8219 14.2719 12.7433C14.3104 12.6648 14.3662 12.596 14.4352 12.5422C14.6433 12.3507 14.9167 12.2458 15.1996 12.2489ZM16.2663 15.5644C16.2778 15.3087 16.2322 15.0537 16.1329 14.8178C16.0989 14.7275 16.0333 14.6526 15.9484 14.6069C15.8634 14.5612 15.7648 14.5477 15.6707 14.5689C15.5307 14.6036 15.3961 14.6575 15.2707 14.7289C15.234 14.7577 15.2088 14.7987 15.1996 14.8444V16.56C15.2032 16.5784 15.2105 16.5957 15.2213 16.6111C15.232 16.6264 15.2458 16.6393 15.2618 16.6489C15.3349 16.6883 15.4153 16.7124 15.498 16.7199C15.5808 16.7273 15.6641 16.7178 15.7431 16.6921C15.8221 16.6663 15.895 16.6248 15.9574 16.57C16.0198 16.5152 16.0705 16.4483 16.1063 16.3733C16.2322 16.1233 16.2876 15.8436 16.2663 15.5644Z" fill="#363637"/>
<path d="M26.2755 17.3955H25.2978V15.1555C25.3108 15.0552 25.3108 14.9536 25.2978 14.8533C25.2945 14.8104 25.2825 14.7686 25.2627 14.7304C25.2429 14.6922 25.2155 14.6584 25.1824 14.6311C25.1492 14.6037 25.1108 14.5833 25.0695 14.5711C25.0283 14.5588 24.985 14.5551 24.9422 14.56C24.824 14.5616 24.7073 14.5869 24.5989 14.6342C24.4905 14.6815 24.3927 14.7499 24.3111 14.8355C24.2978 14.882 24.2978 14.9313 24.3111 14.9778V17.3955H23.28V13.0933C23.2702 12.9945 23.2803 12.8947 23.3095 12.7998C23.3388 12.7049 23.3867 12.6168 23.4504 12.5407C23.5142 12.4645 23.5925 12.4019 23.6807 12.3563C23.769 12.3108 23.8654 12.2833 23.9644 12.2755C24.0562 12.2708 24.1482 12.2708 24.24 12.2755V14.1067L24.3733 14.0178C24.6104 13.8589 24.8935 13.7831 25.1782 13.8024C25.4629 13.8217 25.7332 13.935 25.9467 14.1244C26.1429 14.3282 26.2568 14.5973 26.2667 14.88C26.2844 15.6978 26.2755 16.5422 26.2755 17.3955Z" fill="#363637"/>
<path d="M5.511 16.5422H4.44434C4.44434 16.3111 4.44434 16.0889 4.54211 15.8667C4.62421 15.3926 4.82558 14.9473 5.12725 14.5725C5.42893 14.1977 5.821 13.9059 6.26656 13.7244C6.86305 13.4975 7.52116 13.4919 8.12139 13.7088C8.72161 13.9258 9.22412 14.3508 9.53767 14.9067C9.83121 15.4011 9.98198 15.9673 9.97322 16.5422H8.88878C8.9154 16.1717 8.8185 15.8029 8.61322 15.4933C8.4921 15.2906 8.32784 15.117 8.1321 14.9849C7.93637 14.8528 7.71395 14.7655 7.48064 14.729C7.24733 14.6925 7.00885 14.7078 6.78213 14.7739C6.55541 14.8399 6.346 14.955 6.16878 15.1111C5.96035 15.2936 5.79429 15.5194 5.68221 15.7727C5.57013 16.026 5.51473 16.3008 5.51989 16.5778L5.511 16.5422Z" fill="#1C9B39"/>
<path d="M28.978 14.7644C28.7492 14.6372 28.4931 14.5671 28.2313 14.56C28.0713 14.56 27.9647 14.6222 27.9291 14.7289C27.9122 14.7927 27.918 14.8605 27.9456 14.9205C27.9732 14.9805 28.0208 15.029 28.0802 15.0578C28.1393 15.0985 28.2018 15.1342 28.2669 15.1644C28.4713 15.28 28.6847 15.3778 28.8802 15.5111C29.0095 15.6117 29.1141 15.7404 29.186 15.8875C29.2579 16.0346 29.2953 16.1962 29.2953 16.36C29.2953 16.5238 29.2579 16.6854 29.186 16.8325C29.1141 16.9796 29.0095 17.1083 28.8802 17.2089C28.6552 17.367 28.3946 17.4668 28.1215 17.4993C27.8485 17.5319 27.5716 17.4963 27.3158 17.3955C27.1024 17.3244 26.898 17.2089 26.6758 17.1111L27.0136 16.4178C27.2002 16.5067 27.3958 16.5867 27.5913 16.6578C27.7281 16.6906 27.8685 16.7055 28.0091 16.7022C28.0684 16.6994 28.1251 16.677 28.1702 16.6383C28.2153 16.5997 28.2462 16.5471 28.258 16.4889C28.2769 16.4334 28.2777 16.3733 28.2601 16.3173C28.2425 16.2614 28.2075 16.2125 28.1602 16.1778L27.8047 16C27.6624 15.92 27.5113 15.8578 27.378 15.7778C27.2358 15.6907 27.1171 15.5701 27.0322 15.4266C26.9474 15.2831 26.8988 15.121 26.891 14.9545C26.8831 14.788 26.916 14.622 26.987 14.4711C27.0579 14.3203 27.1647 14.189 27.298 14.0889C27.5151 13.9397 27.7649 13.8449 28.0264 13.8124C28.2878 13.7799 28.5532 13.8107 28.8002 13.9022C28.978 13.9644 29.1469 14.0355 29.3247 14.1155L28.978 14.7644Z" fill="#363637"/>
<path d="M5.51074 16.5422H6.69296V15.36H7.74185V16.5511H8.88852V17.5911H7.75074V18.7733H6.69296V17.6H5.51074V16.5422Z" fill="#1C9B39"/>
<path d="M10.4793 19.5555C10.3104 19.7155 10.1416 19.8844 9.95488 20.0355C9.26226 20.6139 8.39273 20.938 7.49055 20.9542C6.58838 20.9703 5.70779 20.6776 4.99488 20.1244C4.24754 19.5415 3.73612 18.7081 3.55488 17.7778C3.54166 17.7281 3.53857 17.6763 3.5458 17.6255C3.55304 17.5746 3.57046 17.5258 3.59701 17.4818C3.62356 17.4378 3.6587 17.3996 3.70034 17.3695C3.74197 17.3395 3.78924 17.3181 3.83933 17.3067C3.88843 17.2964 3.9391 17.2961 3.98831 17.3058C4.03753 17.3156 4.08427 17.3351 4.12576 17.3634C4.16724 17.3916 4.20261 17.4278 4.22976 17.47C4.25691 17.5122 4.27528 17.5594 4.28377 17.6089C4.42142 18.2756 4.74486 18.8898 5.21672 19.3805C5.68858 19.8713 6.28962 20.2185 6.95044 20.3822C7.54227 20.5517 8.16797 20.5646 8.7663 20.4197C9.36462 20.2748 9.91508 19.977 10.3638 19.5555L10.4349 19.4933L10.4793 19.5555Z" fill="#B6D37A"/>
<path d="M9.00445 13.2533L9.16445 13.3244C9.74256 13.5846 10.2363 14.0014 10.5898 14.5277C10.9432 15.0539 11.1423 15.6687 11.1644 16.3022C11.2165 16.9586 11.076 17.6159 10.7603 18.1937C10.4445 18.7716 9.96718 19.2448 9.38667 19.5555C9.32726 19.5946 9.25774 19.6153 9.18667 19.6153C9.1156 19.6153 9.04608 19.5946 8.98667 19.5555C8.93025 19.5286 8.8851 19.4827 8.8591 19.4258C8.8331 19.3689 8.82792 19.3047 8.84445 19.2444C8.86563 19.1447 8.92254 19.0562 9.00445 18.9955C9.49522 18.7081 9.90379 18.2992 10.1909 17.8082C10.478 17.3172 10.6339 16.7606 10.6437 16.1919C10.6536 15.6232 10.5169 15.0616 10.247 14.5609C9.97699 14.0603 9.58278 13.6376 9.10223 13.3333L8.99556 13.2711L9.00445 13.2533Z" fill="#78B72C"/>
<path d="M21.7867 19.2178H21.0223C21.0223 19.52 21.2 19.6178 21.6623 19.5289V19.68C21.5569 19.7408 21.4373 19.7729 21.3156 19.7729C21.1939 19.7729 21.0743 19.7408 20.9689 19.68C20.8745 19.6023 20.8054 19.4982 20.7705 19.381C20.7357 19.2638 20.7367 19.1389 20.7734 19.0222C20.7817 18.955 20.804 18.8903 20.8387 18.8322C20.8734 18.774 20.9198 18.7237 20.9749 18.6844C21.0301 18.6452 21.0928 18.6178 21.1591 18.604C21.2254 18.5902 21.2938 18.5904 21.36 18.6044C21.4377 18.6105 21.5117 18.6401 21.5721 18.6893C21.6324 18.7386 21.6763 18.8051 21.6978 18.88C21.7356 18.9903 21.7653 19.1032 21.7867 19.2178ZM21.5467 19.0489C21.5467 18.8533 21.44 18.7467 21.2978 18.7467C21.2247 18.7511 21.1558 18.7827 21.1048 18.8354C21.0538 18.888 21.0243 18.9578 21.0223 19.0311L21.5467 19.0489Z" fill="#3A3A3B"/>
<path d="M17.9199 19.7156V19.1556C17.9199 18.7911 17.8043 18.6933 17.431 18.7822V19.7244H17.2266V18.6667C17.436 18.6087 17.6572 18.6087 17.8666 18.6667C17.9371 18.6859 17.9995 18.7275 18.0444 18.7852C18.0892 18.8429 18.1142 18.9136 18.1155 18.9867C18.1155 19.2444 18.1155 19.5111 18.1155 19.7867L17.9199 19.7156Z" fill="#3E3E3F"/>
<path d="M25.3864 19.7511V19.5556C25.5997 19.5556 25.7953 19.5022 25.8664 19.2622H25.6797C25.5911 19.2651 25.5046 19.2348 25.4372 19.1773C25.3698 19.1197 25.3263 19.0391 25.3153 18.9511C25.3014 18.8587 25.3182 18.7643 25.3632 18.6824C25.4082 18.6005 25.4788 18.5357 25.5642 18.4978C25.652 18.4628 25.7497 18.4616 25.8383 18.4945C25.927 18.5273 26.0003 18.5918 26.0442 18.6756C26.1005 18.7983 26.1259 18.9329 26.1181 19.0677C26.1104 19.2026 26.0697 19.3334 25.9997 19.4489C25.9365 19.5521 25.8454 19.6353 25.7368 19.6888C25.6282 19.7423 25.5067 19.7639 25.3864 19.7511ZM25.9019 18.9778C25.9019 18.7763 25.8308 18.6785 25.6886 18.6844C25.6344 18.6972 25.5869 18.7299 25.5557 18.776C25.5244 18.8221 25.5116 18.8782 25.5197 18.9333C25.5197 19.0756 25.5997 19.1289 25.7597 19.12C25.9197 19.1111 25.9375 19.12 25.9019 18.9867V18.9778Z" fill="#3B3B3C"/>
<path d="M14.986 18.5778C14.986 18.6844 14.986 18.7289 14.9416 18.7733H14.6038C14.5593 18.7733 14.4705 18.8444 14.4705 18.88C14.48 18.9398 14.5117 18.9938 14.5593 19.0311C14.6446 19.0799 14.7338 19.1215 14.826 19.1556C14.8932 19.1758 14.9512 19.2189 14.9902 19.2772C15.0291 19.3356 15.0465 19.4057 15.0393 19.4756C15.0375 19.5451 15.0102 19.6115 14.9627 19.6622C14.9152 19.713 14.8508 19.7446 14.7816 19.7511C14.6006 19.7933 14.411 19.7778 14.2393 19.7067V19.5467C14.3507 19.5696 14.4636 19.5845 14.5771 19.5911C14.666 19.5911 14.7727 19.5911 14.7905 19.4756C14.8082 19.36 14.7193 19.3244 14.6393 19.2889L14.4171 19.1911C14.3457 19.1704 14.2852 19.1225 14.2486 19.0577C14.2121 18.9929 14.2023 18.9163 14.2216 18.8444C14.2298 18.7759 14.262 18.7125 14.3124 18.6654C14.3628 18.6182 14.4282 18.5904 14.4971 18.5867C14.6597 18.573 14.823 18.5701 14.986 18.5778Z" fill="#3C3C3D"/>
<path d="M28.3729 18.7644L28.3018 18.6667C28.3878 18.591 28.4983 18.5493 28.6129 18.5493C28.7274 18.5493 28.838 18.591 28.924 18.6667C28.9535 18.6956 28.977 18.7302 28.9931 18.7684C29.0091 18.8065 29.0174 18.8475 29.0174 18.8889C29.0174 18.9303 29.0091 18.9713 28.9931 19.0094C28.977 19.0476 28.9535 19.0821 28.924 19.1111C28.9817 19.1972 29.0295 19.2897 29.0662 19.3867C29.088 19.4703 29.076 19.5592 29.0327 19.6341C28.9894 19.7089 28.9185 19.7638 28.8351 19.7867C28.6635 19.8532 28.4733 19.8532 28.3018 19.7867C28.3018 19.7215 28.3018 19.6682 28.3018 19.6267C28.4262 19.6267 28.5418 19.6267 28.6573 19.6267C28.7005 19.6244 28.7413 19.6056 28.771 19.5742C28.8008 19.5427 28.8174 19.5011 28.8173 19.4578C28.8198 19.4337 28.8173 19.4094 28.81 19.3863C28.8027 19.3633 28.7908 19.3419 28.775 19.3236C28.7592 19.3053 28.7398 19.2904 28.718 19.2799C28.6963 19.2693 28.6726 19.2633 28.6484 19.2622C28.5893 19.2573 28.5298 19.2573 28.4706 19.2622V19.1378L28.7462 19.0044C28.7462 19.0044 28.7462 18.9244 28.7462 18.88C28.7462 18.8356 28.6395 18.6667 28.3729 18.7644Z" fill="#3D3D3E"/>
<path d="M19.9194 18.6667C19.9143 18.711 19.9143 18.7557 19.9194 18.8C19.7149 18.8 19.5016 18.7022 19.386 18.9422C19.338 19.0196 19.3125 19.1089 19.3125 19.2C19.3125 19.2911 19.338 19.3804 19.386 19.4578C19.5282 19.6356 19.7238 19.5822 19.9194 19.5378V19.6978C19.8059 19.7596 19.6757 19.7835 19.5477 19.7659C19.4197 19.7483 19.3008 19.6901 19.2082 19.6C19.1261 19.4811 19.082 19.3401 19.082 19.1956C19.082 19.051 19.1261 18.91 19.2082 18.7911C19.2968 18.6954 19.4143 18.6313 19.5428 18.6089C19.6713 18.5864 19.8036 18.6067 19.9194 18.6667Z" fill="#3B3B3C"/>
<path d="M27.1907 19.7511H26.9863C27.0165 19.3858 27.1388 19.0341 27.3418 18.7289H26.8174V18.5511H27.6085C27.6176 18.613 27.6176 18.6759 27.6085 18.7378C27.383 19.0332 27.2389 19.3826 27.1907 19.7511Z" fill="#414142"/>
<path d="M23.9997 18.9511L23.9375 18.7733C24.1419 18.7733 24.2219 18.5244 24.4531 18.5333V19.7422H24.2486V18.8533L23.9997 18.9511Z" fill="#474748"/>
<path d="M16.1779 18.6044H15.9912V19.7244H16.1779V18.6044Z" fill="#343435"/>
<path d="M21.5469 19.0489H21.0225C21.0245 18.9756 21.054 18.9058 21.105 18.8531C21.156 18.8005 21.2249 18.7689 21.298 18.7644C21.4402 18.7467 21.538 18.8533 21.5469 19.0489Z" fill="#F0F0F0"/>
<path d="M25.9025 18.9867C25.9025 19.1022 25.8492 19.1111 25.7603 19.12C25.6714 19.1289 25.5291 19.0755 25.5203 18.9333C25.5137 18.9047 25.5129 18.8751 25.5178 18.8462C25.5228 18.8172 25.5334 18.7896 25.5491 18.7648C25.5648 18.74 25.5853 18.7186 25.6093 18.7017C25.6334 18.6849 25.6605 18.673 25.6892 18.6667C25.778 18.6667 25.8847 18.7733 25.9025 18.9867Z" fill="#F6F6F6"/>
</g>
<defs>
<clipPath id="clip0_2707_363513">
<rect width="32" height="32" fill="white"/>
</clipPath>
</defs>
</svg>
