<svg width="32" height="32" viewBox="0 0 32 32" fill="none" xmlns="http://www.w3.org/2000/svg">
<path d="M15.9998 31.9822C24.8265 31.9822 31.982 24.8267 31.982 16C31.982 7.17325 24.8265 0.0177612 15.9998 0.0177612C7.17306 0.0177612 0.0175781 7.17325 0.0175781 16C0.0175781 24.8267 7.17306 31.9822 15.9998 31.9822Z" fill="white"/>
<path fill-rule="evenodd" clip-rule="evenodd" d="M24.8887 12.8089L25.7776 13.1467L26.8887 12.7822L24.8887 12.8089Z" fill="#D7032E"/>
<path fill-rule="evenodd" clip-rule="evenodd" d="M24.791 12.9333C25.0745 13.0537 25.3479 13.1963 25.6088 13.36L25.7599 13.1733L24.871 12.8355H24.8088L24.791 12.9333Z" fill="#AC212D"/>
<path fill-rule="evenodd" clip-rule="evenodd" d="M25.7773 13.1467L26.0085 13.3156L27.084 12.9244L26.9507 12.7556H26.8885L25.7773 13.1467Z" fill="#DC4958"/>
<path fill-rule="evenodd" clip-rule="evenodd" d="M27.7687 14.8444H28.8887L27.3242 14.1422L27.7687 14.8444Z" fill="#7EAF32"/>
<path fill-rule="evenodd" clip-rule="evenodd" d="M23.2441 14.8622L23.9819 14.9067L24.5597 14.1956L23.2441 14.8622Z" fill="#0095B6"/>
<path fill-rule="evenodd" clip-rule="evenodd" d="M27.1553 14.2222L27.5197 15.0577L27.7686 14.9066L27.3242 14.1777L27.1553 14.2222Z" fill="#5A881D"/>
<path fill-rule="evenodd" clip-rule="evenodd" d="M24.5602 14.2222L23.9824 14.9333L24.258 15.04L24.818 14.2933L24.6224 14.16L24.5602 14.2222Z" fill="#29B4E4"/>
<path fill-rule="evenodd" clip-rule="evenodd" d="M27.7686 14.8444L27.8397 15.1289L28.933 15.04V14.8444H27.7686Z" fill="#A0C24A"/>
<path fill-rule="evenodd" clip-rule="evenodd" d="M23.2266 15.0133L23.9999 15.1111V14.8711L23.2621 14.8267L23.2266 15.0133Z" fill="#00728E"/>
<path fill-rule="evenodd" clip-rule="evenodd" d="M26.0977 19.1556L26.1421 19.0489L27.5554 15.0133L27.1554 14.2222C27.111 14.2845 26.631 16.4622 26.5954 16.7111C26.5332 17.1022 26.391 17.5467 26.311 17.9556C26.186 18.3441 26.1142 18.7478 26.0977 19.1556Z" fill="#39762E"/>
<path fill-rule="evenodd" clip-rule="evenodd" d="M25.6084 13.3333L25.9906 16.1689V13.3333L25.7773 13.1733L25.6084 13.3333Z" fill="#D2062E"/>
<path fill-rule="evenodd" clip-rule="evenodd" d="M25.991 16.3022V16.1956L25.6088 13.3333C25.3479 13.1697 25.0745 13.027 24.791 12.9067L25.9288 16.2489L25.991 16.3022Z" fill="#721C18"/>
<path fill-rule="evenodd" clip-rule="evenodd" d="M25.9912 13.3333V16.2933C26.0979 16.3555 26.1423 16.0711 26.1779 15.9555C26.2134 15.84 26.2579 15.68 26.3023 15.5288C26.3823 15.2355 26.4801 14.9688 26.5601 14.64C26.6401 14.3111 26.729 14.0888 26.8179 13.7511C26.9197 13.4604 27.0028 13.1635 27.0668 12.8622L25.9912 13.3333Z" fill="#B0202F"/>
<path fill-rule="evenodd" clip-rule="evenodd" d="M24 15.1111L25.7778 17.7778L24.2756 14.9689L24 14.9244V15.1111Z" fill="#0093B4"/>
<path fill-rule="evenodd" clip-rule="evenodd" d="M6.90622 18.72V19.0044L6.68399 19.1022V19.1733H7.59066V19.0844C7.40399 19.0844 7.3151 19.0222 7.3151 18.8266V18.08C7.3151 17.8844 7.42177 17.5644 7.61733 17.5644C7.81288 17.5644 7.67066 17.7778 7.81288 17.7778H7.91955C7.96906 17.7778 8.01654 17.7581 8.05154 17.7231C8.08655 17.6881 8.10622 17.6406 8.10622 17.5911C8.10622 17.5298 8.08187 17.471 8.03852 17.4277C7.99518 17.3843 7.9364 17.36 7.8751 17.36H7.78622C7.51955 17.36 7.43066 17.5822 7.3151 17.7244V17.3333H6.64844V17.4222H6.73733C6.76149 17.4233 6.78518 17.4293 6.80694 17.4398C6.8287 17.4504 6.84808 17.4653 6.86389 17.4836C6.8797 17.5019 6.89161 17.5232 6.89889 17.5463C6.90617 17.5694 6.90866 17.5937 6.90622 17.6178V18.72Z" fill="#333333"/>
<path fill-rule="evenodd" clip-rule="evenodd" d="M25.8219 17.9911L25.7775 17.84L23.9997 15.1733L23.2441 15.04C23.5819 15.5378 24.133 16.0533 24.5241 16.5511C24.9178 17.0648 25.3517 17.5463 25.8219 17.9911Z" fill="#005370"/>
<path fill-rule="evenodd" clip-rule="evenodd" d="M24.2578 15.0311L25.7778 17.84L25.84 17.9911C25.84 17.9911 25.9023 17.9911 25.9023 17.9111C25.9023 17.8311 24.8978 14.4266 24.8356 14.2844L24.2578 15.0311Z" fill="#00728E"/>
<path fill-rule="evenodd" clip-rule="evenodd" d="M13.1904 17.4755H13.386V18.7466C13.386 19.0489 13.5104 19.2177 13.8127 19.2177C13.946 19.2177 14.2838 19.1377 14.2838 19.0489C14.2838 18.96 14.2838 19.0489 14.2838 18.96C14.2838 18.8711 14.1327 19.0666 14.0438 19.0666C13.9549 19.0666 13.8304 18.9244 13.8304 18.7911V17.4755H14.2215V17.3689H13.8127V16.8177H13.706C13.5993 16.8177 13.5993 17.3689 13.2527 17.3689H13.1904V17.4755Z" fill="#333333"/>
<path fill-rule="evenodd" clip-rule="evenodd" d="M27.5555 15.0133L26.1777 19.0489L27.84 15.1111L27.7688 14.8267L27.5555 15.0133Z" fill="#7CAC30"/>
<path fill-rule="evenodd" clip-rule="evenodd" d="M3.77752 16.7111H4.09752C4.33752 16.7111 4.52418 16.9867 4.52418 17.2444V17.4755C4.52435 17.5463 4.50994 17.6164 4.48183 17.6814C4.45373 17.7464 4.41254 17.8049 4.36084 17.8533C4.30913 17.9016 4.24802 17.9388 4.1813 17.9625C4.11459 17.9863 4.04371 17.996 3.97307 17.9911H3.77752V16.7111ZM4.97752 17.3067C4.97752 16.8355 4.63974 16.6044 4.18641 16.6044H3.09307V16.6844C3.25307 16.6844 3.36863 16.7467 3.36863 16.8978V18.8711C3.36863 19.0133 3.27085 19.0667 3.13752 19.0667H3.06641V19.1733H4.07974V19.0667H4.01752C3.83974 19.0667 3.77752 19.0044 3.77752 18.8267V18.08H4.12418C4.63974 18.08 4.97752 17.84 4.97752 17.3067Z" fill="#333333"/>
<path fill-rule="evenodd" clip-rule="evenodd" d="M10.3998 17.4755C10.6131 17.4755 10.6575 17.7066 10.6575 17.9289V18.9155C10.6575 19.0578 10.5598 19.0844 10.4175 19.0844V19.1733H11.3064V19.0844H11.2442C10.7375 19.0844 11.422 17.3066 10.622 17.3066H10.4531C10.3459 17.3069 10.241 17.337 10.1499 17.3935C10.0589 17.45 9.98534 17.5307 9.93753 17.6266H9.95531C9.93766 17.544 9.89486 17.4689 9.83278 17.4116C9.77071 17.3543 9.69241 17.3176 9.60865 17.3066H9.35087C9.11976 17.3066 8.99531 17.5466 8.87976 17.6266V17.3333H8.21309V17.4222H8.2842C8.41753 17.4222 8.47087 17.52 8.47087 17.6622V18.7733C8.47087 18.88 8.47087 19.0311 8.34642 19.0311H8.19531V19.1378H9.13753V19.0489H9.07531C8.87976 19.0489 8.87976 18.88 8.87976 18.6844V18.0622C8.87976 17.76 9.01309 17.44 9.30642 17.44C9.46642 17.44 9.5642 17.6089 9.5642 17.7689V18.88C9.5642 19.0222 9.47531 19.0489 9.33309 19.0489V19.1378H10.222V19.0311H10.1153C10.0086 19.0311 9.9642 18.96 9.9642 18.8622V17.9555C9.99976 17.7778 10.1775 17.4755 10.3998 17.4755Z" fill="#333333"/>
<path fill-rule="evenodd" clip-rule="evenodd" d="M16.889 17.84H17.4046C17.4812 17.8364 17.5577 17.8481 17.6298 17.8745C17.7018 17.9008 17.7679 17.9412 17.8242 17.9933C17.8804 18.0454 17.9257 18.1082 17.9575 18.1781C17.9892 18.2479 18.0067 18.3233 18.009 18.4V18.4889C18.0093 18.5718 17.9924 18.6538 17.9591 18.7298C17.9259 18.8058 17.8772 18.874 17.8162 18.93C17.7551 18.9861 17.683 19.0288 17.6044 19.0554C17.5259 19.082 17.4427 19.0919 17.3601 19.0844H16.889V17.84ZM16.889 16.6844H17.3246C17.6534 16.6844 17.9201 16.8444 17.9201 17.1822V17.2444C17.9201 17.6089 17.609 17.76 17.2357 17.76H16.889V16.6844ZM17.4046 16.6044H16.3379V16.6667H16.4179C16.4411 16.664 16.4646 16.6665 16.4868 16.6739C16.509 16.6813 16.5292 16.6935 16.5462 16.7096C16.5631 16.7257 16.5763 16.7453 16.5849 16.7671C16.5934 16.7889 16.5971 16.8122 16.5957 16.8355V18.96C16.5957 19.0667 16.4534 19.1111 16.3379 19.1111V19.1555H17.5379C17.9557 19.1555 18.329 18.9511 18.329 18.5333V18.4267C18.3089 18.2416 18.2161 18.0722 18.0711 17.9555C17.9261 17.8388 17.7407 17.7845 17.5557 17.8044C17.7157 17.6622 18.2401 17.8044 18.2401 17.1822V17.1111C18.249 16.7644 17.7779 16.6044 17.4134 16.6044H17.4046Z" fill="#333333"/>
<path fill-rule="evenodd" clip-rule="evenodd" d="M27.8399 15.1111L26.1421 19.0133L26.0977 19.12C26.2399 19.2 26.4443 18.7911 26.5154 18.6933L26.8621 18.16C27.1021 17.8044 27.3154 17.4755 27.5465 17.1111C28.0177 16.4089 28.4354 15.7155 28.9332 15.0222L27.8399 15.1111Z" fill="#6B8E15"/>
<path fill-rule="evenodd" clip-rule="evenodd" d="M11.8847 18.5955C11.8847 18.3377 12.1602 18.1866 12.418 18.1866H12.5513V18.6133C12.554 18.7268 12.5131 18.837 12.437 18.9213C12.361 19.0056 12.2556 19.0576 12.1425 19.0666C12.0002 19.0666 11.8847 18.88 11.8847 18.72V18.5955ZM11.8847 17.9288C12.178 17.9288 11.8847 17.3955 12.338 17.3955C12.498 17.3955 12.578 17.5377 12.578 17.6977V18.0977C12.0891 18.0977 11.458 18.2044 11.458 18.6844C11.458 18.9866 11.6447 19.12 11.9291 19.1644C12.2136 19.2088 12.418 18.9688 12.5958 18.9244C12.5958 19.0933 12.7469 19.1377 12.9158 19.1377H13.218V19.0488C12.9691 19.0488 12.9869 18.9066 12.9869 18.6666V18.0444C12.9869 17.5733 12.9869 17.2977 12.4891 17.2977H12.258C11.9647 17.2977 11.5913 17.44 11.5913 17.7244V17.7777C11.5913 17.8666 11.7069 17.9022 11.8047 17.9022L11.8847 17.9288Z" fill="#333333"/>
<path fill-rule="evenodd" clip-rule="evenodd" d="M14.844 18.5955C14.844 18.32 15.1373 18.1867 15.4217 18.1867H15.5106V18.5333C15.5106 18.8089 15.3773 19.0667 15.1017 19.0667C14.9773 19.0667 14.844 18.8889 14.844 18.7644V18.5955ZM14.844 17.9289C15.084 17.9289 14.844 17.3955 15.2795 17.3955C15.4662 17.3955 15.5195 17.5911 15.5195 17.7778V18.0978H15.3773C14.844 18.0978 14.3906 18.24 14.3906 18.7911C14.412 18.9007 14.4672 19.0009 14.5486 19.0774C14.6299 19.154 14.7332 19.2031 14.844 19.2178H14.9062C15.1332 19.2122 15.3495 19.12 15.5106 18.96C15.5106 19.12 15.6795 19.1733 15.8484 19.1733H16.1506V19.0844C15.884 19.0844 15.9106 18.9511 15.9106 18.7022V18.0978C15.9106 17.8489 15.9106 17.7067 15.8484 17.5467C15.8085 17.4811 15.7524 17.4271 15.6854 17.3897C15.6184 17.3523 15.5429 17.3329 15.4662 17.3333H15.1817C14.8973 17.3333 14.4973 17.4933 14.4973 17.76C14.4973 18.0267 14.6306 17.9289 14.7817 17.9289H14.844Z" fill="#333333"/>
<path fill-rule="evenodd" clip-rule="evenodd" d="M18.8089 18.72C18.8089 18.2755 19.2444 18.1422 19.6977 18.1422V18.4266C19.7076 18.5051 19.7015 18.5848 19.6798 18.6609C19.6581 18.7369 19.6212 18.8078 19.5714 18.8693C19.5215 18.9307 19.4598 18.9815 19.3899 19.0184C19.3199 19.0554 19.2432 19.0779 19.1644 19.0844H19.1111C19.0247 19.0714 18.9462 19.027 18.8905 18.9598C18.8348 18.8926 18.8057 18.8072 18.8089 18.72ZM23.7511 17.5111C23.8755 17.4489 23.9555 17.5111 23.9822 17.3955H23.2089V17.44C23.3066 17.44 23.44 17.44 23.44 17.5644C23.2432 17.8958 22.9975 18.1955 22.7111 18.4533V17.2444V16.5778H22.1955V16.64H22.32C22.3911 16.64 22.4266 16.72 22.4266 16.7911V18.9333C22.4293 18.9565 22.4268 18.9801 22.4194 19.0022C22.412 19.0244 22.3998 19.0447 22.3837 19.0616C22.3676 19.0785 22.3479 19.0918 22.3262 19.1003C22.3044 19.1089 22.2811 19.1125 22.2577 19.1111H22.0889C21.6 19.1111 22.3644 17.3333 21.3955 17.3333C20.8622 17.3333 20.9244 17.5822 20.7111 17.7333V17.3511H20.2222V17.4133C20.3822 17.4133 20.4533 17.4844 20.4533 17.6444V18.8889C20.4559 18.9144 20.4529 18.9403 20.4446 18.9646C20.4363 18.9889 20.4228 19.0111 20.405 19.0297C20.3873 19.0483 20.3657 19.0628 20.3418 19.0722C20.318 19.0817 20.2923 19.0858 20.2666 19.0844H20.0889C20.0537 19.0835 20.0195 19.0731 19.9898 19.0543C19.96 19.0355 19.9359 19.0091 19.92 18.9778V17.9111C19.92 17.52 19.8133 17.3333 19.4222 17.3333H19.28C18.9955 17.3333 18.6133 17.4666 18.6133 17.7155V17.7778C18.6133 17.8311 18.6133 17.84 18.6755 17.84H18.8266C18.8711 17.84 18.8711 17.84 18.9155 17.84C18.9155 17.5822 19.0044 17.4044 19.2533 17.4044C19.5022 17.4044 19.6622 17.5289 19.6622 17.8133V17.9466V18.1333H19.5555C19.1555 18.1333 18.5244 18.2844 18.5244 18.6489V18.8444C18.5385 18.936 18.5814 19.0208 18.6469 19.0863C18.7125 19.1519 18.7972 19.1948 18.8889 19.2089H19.1644C19.3689 19.2089 19.5555 18.9689 19.68 18.8889C19.68 19.1022 19.68 19.2089 19.92 19.2089H21.0133V19.1111H20.9244C20.7911 19.1111 20.7289 18.9866 20.7289 18.8533V18.1244C20.7289 17.8222 20.9333 17.44 21.2266 17.44H21.3333C21.5644 17.44 21.6533 17.7333 21.6533 17.9733V18.6666C21.6533 18.8622 21.6533 19.0933 21.4666 19.0933H21.3777V19.1555H22.9689V19.1111H22.88C22.7466 19.1111 22.6844 18.9866 22.6844 18.8533V18.5955C22.7614 18.4509 22.871 18.3262 23.0044 18.2311L23.5555 19.12H24.0177V19.1111C23.76 19.1111 23.6533 18.8089 23.5377 18.6222C23.4057 18.4352 23.2869 18.2391 23.1822 18.0355C23.1822 18.0355 23.4844 17.6978 23.52 17.6711C23.5908 17.6093 23.6683 17.5556 23.7511 17.5111Z" fill="#333333"/>
<path fill-rule="evenodd" clip-rule="evenodd" d="M5.43065 18.0356C5.43065 17.7778 5.57287 17.3956 5.81287 17.3956C6.05287 17.3956 6.15954 17.8133 6.15954 18.0978H5.43065V18.0356ZM5.87509 19.0667C5.55509 19.0667 5.40398 18.5422 5.40398 18.1778H6.5862V18.1156C6.59773 18.0142 6.58731 17.9115 6.55563 17.8145C6.52395 17.7175 6.47177 17.6284 6.40262 17.5534C6.33348 17.4783 6.24899 17.419 6.15489 17.3795C6.0608 17.34 5.95931 17.3212 5.85731 17.3244H5.79509C4.68398 17.3244 4.6662 19.1822 5.79509 19.1822H5.9462C6.20398 19.1822 6.56842 18.9244 6.56842 18.7378C6.56842 18.6933 6.56842 18.6933 6.47954 18.6933C6.44069 18.7906 6.37652 18.8757 6.29367 18.9398C6.21083 19.0039 6.11233 19.0446 6.00842 19.0578L5.87509 19.0667Z" fill="#333333"/>
</svg>
