<svg width="32" height="32" viewBox="0 0 32 32" fill="none" xmlns="http://www.w3.org/2000/svg">
<g clip-path="url(#clip0_2737_120640)">
<mask id="mask0_2737_120640" style="mask-type:luminance" maskUnits="userSpaceOnUse" x="0" y="0" width="32" height="32">
<path d="M31.9909 0.0178223H0.0175781V31.9912H31.9909V0.0178223Z" fill="white"/>
</mask>
<g mask="url(#mask0_2737_120640)">
<path d="M15.9998 31.9823C24.8265 31.9823 31.982 24.8268 31.982 16C31.982 7.17331 24.8265 0.0178223 15.9998 0.0178223C7.17306 0.0178223 0.0175781 7.17331 0.0175781 16C0.0175781 24.8268 7.17306 31.9823 15.9998 31.9823Z" fill="white"/>
<path d="M21.6528 10.3201C18.0706 6.90677 12.3195 7.30677 9.26173 11.1912C6.38173 14.8534 7.04839 20.1245 10.6928 22.9779C14.5951 26.0357 20.284 25.0223 22.9328 20.8623C25.0751 17.4934 24.5328 13.0579 21.6528 10.3112M15.8662 4.56899C15.8662 4.56899 15.5995 4.5601 15.564 4.56899C15.5373 4.56899 15.5462 4.59565 15.5284 4.60454C15.4839 4.61343 15.4217 4.59565 15.3773 4.60454C15.3773 4.60454 15.3151 4.68454 15.3062 4.69343C15.2973 4.70232 15.2617 4.69343 15.2528 4.70232C15.1639 4.77343 15.1106 4.8801 15.084 4.97788C15.084 4.97788 15.0662 5.02232 15.0484 5.07565C15.0484 5.08454 15.0217 5.08454 15.0128 5.10232C15.0128 5.12899 15.0128 5.31565 15.0128 5.34232C15.0128 5.35121 15.0395 5.35121 15.0484 5.36899C15.0573 5.42232 15.084 5.45788 15.084 5.46677C15.1195 5.61788 15.1017 5.52899 15.1817 5.62677C15.1906 5.63565 15.1817 5.67121 15.1906 5.6801C15.1906 5.68899 15.2795 5.77788 15.2884 5.77788C15.3506 5.81343 15.4395 5.8401 15.5017 5.84899C15.5106 5.84899 15.5106 5.87565 15.5284 5.88454C15.7684 5.93788 16.0884 5.80454 16.2395 5.61788C16.2484 5.60899 16.2395 5.57343 16.2484 5.56454C16.2573 5.54677 16.3017 5.52899 16.3106 5.51121C16.3106 5.48454 16.3106 5.45788 16.3106 5.4401C16.3106 5.43121 16.3373 5.43121 16.3462 5.41343C16.3551 5.37788 16.3462 5.10232 16.3462 5.05788C16.3462 5.05788 16.2928 4.94232 16.2839 4.93343C16.2662 4.8801 16.2662 4.88899 16.2395 4.85343C16.2128 4.8001 16.2395 4.75565 16.1417 4.77343C16.1506 4.67565 16.1328 4.7201 16.0884 4.71121C16.0528 4.69343 15.9817 4.62232 15.9728 4.62232C15.9284 4.60454 15.9195 4.61343 15.8751 4.58677M15.8217 3.90232C15.9551 3.93788 16.0884 3.94677 16.2217 3.99121C16.924 4.21343 17.3773 4.87121 17.324 5.60899C17.3151 5.74232 17.2528 5.87565 17.244 6.00899C18.0617 6.40899 18.924 6.7201 19.7506 7.09343C20.5595 7.44899 22.0706 8.12454 22.4351 8.96899C22.5595 9.25343 22.5062 9.43121 22.5062 9.72454C22.5062 9.98232 22.5062 10.2312 22.4795 10.489C25.1106 13.449 25.4662 17.8045 23.324 21.1557C23.1906 21.3601 23.0484 21.5823 22.8973 21.769C22.8973 21.769 22.8706 21.769 22.8617 21.7779L22.7284 21.9645C22.7284 21.9645 22.9062 21.8223 22.924 21.8045C23.0928 21.6534 23.2706 21.5201 23.4306 21.369C24.1151 20.7557 24.7551 20.1068 25.3773 19.4401V19.3601L24.9151 18.3557L29.1017 15.4579C29.1017 15.4579 29.1195 15.4579 29.1284 15.4845C29.1551 15.5823 29.1284 15.6801 29.164 15.769V16.409L29.0395 17.2001C28.4351 20.089 25.6884 22.9779 23.4217 24.7379C21.3773 26.329 18.4795 28.0179 15.8306 28.1068C15.6706 28.1068 15.4839 28.1068 15.3239 28.1068C13.3151 28.0357 10.9151 26.7112 9.29728 25.5734C6.83506 23.8312 3.65284 20.7112 2.98617 17.6801L2.86173 16.9245C2.87062 16.729 2.84395 16.5157 2.86173 16.3201C2.87062 16.1423 2.93284 15.8223 2.97728 15.6357C2.97728 15.6179 2.97728 15.5645 3.01284 15.5734L6.95951 18.3468L6.53284 19.4134C6.86173 19.7779 7.19062 20.1512 7.5284 20.5068C7.83062 20.8179 8.15951 21.1468 8.47951 21.4401C8.50617 21.4668 8.66617 21.6179 8.69284 21.6001C7.97284 20.5779 7.43951 19.4312 7.18173 18.1957C6.61284 15.4579 7.3684 12.6223 9.19951 10.5334C9.03951 10.0179 8.99506 9.49343 9.27951 9.01343C9.48395 8.66677 9.86617 8.42677 10.1951 8.20454C11.4217 7.3601 12.7551 6.6401 14.1062 6.0001C13.9017 5.2801 14.2928 4.42677 14.9506 4.08899C15.1284 4.0001 15.4128 3.91121 15.5995 3.89343H15.8306L15.8217 3.90232Z" fill="#2A186E"/>
<path d="M15.6528 4.61337C14.8528 4.64893 14.9239 5.88448 15.7417 5.81337C16.4884 5.74226 16.4261 4.57781 15.6528 4.61337ZM15.8661 4.56893C15.9106 4.59559 15.9195 4.5867 15.9639 4.60448C15.9639 4.60448 16.0439 4.68448 16.0795 4.69337C16.1239 4.71115 16.1417 4.65781 16.1328 4.75559C16.2217 4.73781 16.195 4.78226 16.2306 4.83559C16.2572 4.87115 16.2484 4.86226 16.275 4.91559C16.275 4.92448 16.3372 5.03115 16.3372 5.04004C16.3372 5.09337 16.3372 5.36004 16.3372 5.39559C16.3372 5.40448 16.3106 5.40448 16.3017 5.42226C16.3017 5.44893 16.3017 5.47559 16.3017 5.49337C16.3017 5.51115 16.2484 5.52893 16.2395 5.5467C16.2306 5.56448 16.2395 5.59115 16.2306 5.60004C16.0884 5.79559 15.7595 5.92893 15.5195 5.8667C15.5106 5.8667 15.5106 5.84004 15.4928 5.83115C15.4306 5.82226 15.3417 5.79559 15.2795 5.76004C15.2795 5.76004 15.1906 5.67115 15.1817 5.66226C15.1728 5.65337 15.1817 5.61781 15.1728 5.60893C15.1017 5.51115 15.1106 5.60004 15.075 5.44893C15.075 5.44893 15.0572 5.40448 15.0395 5.35115C15.0395 5.34226 15.0128 5.34226 15.0039 5.32448C15.0039 5.29781 15.0039 5.11115 15.0039 5.08448C15.0039 5.07559 15.0306 5.07559 15.0395 5.05781C15.0484 5.00448 15.075 4.96893 15.075 4.96004C15.1017 4.85337 15.155 4.75559 15.2439 4.68448C15.2528 4.67559 15.2884 4.68448 15.2972 4.67559C15.315 4.6667 15.3684 4.5867 15.3684 4.5867C15.4128 4.56893 15.475 4.5867 15.5195 4.5867C15.5284 4.5867 15.5195 4.56004 15.555 4.55115C15.5906 4.55115 15.8306 4.55115 15.8572 4.55115" fill="#26211F"/>
<path d="M17.289 13.44L17.0401 12.88L16.4801 12.8622C16.5068 13.5733 16.5246 14.4356 16.1779 15.0844C16.1601 15.12 16.0001 15.3689 15.9824 15.3778C15.9201 15.4133 15.7868 15.2 15.7601 15.1556C15.3779 14.5067 15.449 13.5822 15.4401 12.8533H14.9157C14.4001 14 14.0446 15.2267 13.8313 16.4711C13.7068 17.2178 13.5201 18.5956 13.8046 19.28C13.8757 19.44 13.9113 19.4578 14.0179 19.5644V19.5911C14.0268 19.5911 14.0535 19.5911 14.0713 19.5911C14.089 19.6 14.0713 19.6178 14.1068 19.6267C14.1601 19.6267 14.3379 19.6356 14.3468 19.5822L14.809 16.0089H14.8713C14.8535 16.0622 14.8979 16.0711 14.8979 16.08C14.9424 16.1778 14.9957 16.2933 15.0313 16.3733C15.0668 16.4622 15.0846 16.4978 15.1024 16.5867C15.1024 16.6044 15.1646 16.6311 15.1646 16.64C15.1913 16.7556 15.2268 16.8089 15.2713 16.9156C15.3157 17.0311 15.3868 17.1556 15.4401 17.28C15.4401 17.2978 15.4935 17.3156 15.4668 17.3867L15.5024 17.3511C15.5024 17.3511 15.4846 17.4222 15.5379 17.4133L15.9824 18.3022L16.3913 17.1556C16.4801 17.0578 16.5068 16.8711 16.5601 16.7378C16.6224 16.5778 16.7113 16.3556 16.7557 16.1867C16.7557 16.1867 16.8179 16.1422 16.7913 16.08H16.8535C16.8535 16.08 16.8535 16.3111 16.8535 16.3556C16.8535 16.3911 16.889 16.3733 16.889 16.4C16.8979 16.4889 16.8713 16.5956 16.889 16.6844C16.889 16.72 16.9246 16.7022 16.9246 16.7289C16.9424 16.9067 16.9246 17.1289 16.9513 17.3067C16.9513 17.3422 16.9868 17.3244 16.9868 17.3511C16.9957 17.44 16.969 17.5467 16.9868 17.6356C16.9868 17.6711 17.0224 17.6533 17.0224 17.68C17.049 17.8578 17.0224 18.08 17.049 18.2578C17.049 18.2933 17.0846 18.2756 17.0846 18.3022C17.0935 18.3911 17.0757 18.4978 17.0846 18.5867C17.0846 18.6222 17.1201 18.6044 17.1201 18.6311C17.129 18.7022 17.1113 18.8089 17.1201 18.88C17.1201 18.9156 17.1557 18.8978 17.1557 18.9244C17.1646 19.0133 17.1379 19.12 17.1557 19.2089C17.1557 19.2444 17.1913 19.2267 17.1913 19.2533C17.209 19.36 17.1646 19.4844 17.2268 19.5911H17.2446C17.2979 19.5911 17.3601 19.6089 17.4046 19.5911C17.4135 19.5911 17.4135 19.5644 17.4224 19.5644C17.6801 19.4578 17.7779 19.2533 17.8757 19.0311C17.8935 18.9778 17.9379 18.8711 17.9468 18.8267C18.0001 18.6044 17.9824 18.3111 18.0446 18.0889V17.1556L18.009 17.1911C17.9913 17.0578 18.0268 16.8889 18.009 16.7556C18.009 16.72 17.9735 16.7378 17.9735 16.7111C17.9557 16.5689 17.9735 16.5067 17.9379 16.3644C17.929 16.3111 17.9201 16.1778 17.9024 16.1067C17.8668 15.8489 17.8579 15.5467 17.8046 15.3067C17.7513 15.0667 17.6979 14.7911 17.6446 14.5511C17.6357 14.5067 17.6268 14.4356 17.609 14.3911C17.6001 14.3378 17.5201 14.2044 17.5113 14.1422C17.4668 13.9289 17.3957 13.7511 17.3424 13.5378L17.2801 13.4578L17.289 13.44ZM19.049 14.72C19.1201 14.7822 19.6268 14.6489 19.6179 14.4889C19.5113 13.8667 19.3335 13.3689 18.8001 13.0044C18.5601 12.8356 18.3201 12.7111 18.0357 12.8711C17.689 13.0667 17.6979 13.4489 17.7157 13.7956C17.7424 14.3022 17.8668 14.8711 18.0179 15.3511C18.0713 15.5289 18.1779 15.8844 18.2757 16.0356C18.3824 16.2222 18.5957 16.2933 18.8001 16.2222C19.0135 16.1511 19.2001 15.8756 19.3157 16.2578C19.4579 16.7022 19.4135 17.4222 19.2001 17.84C19.0846 18.0533 18.8979 18.2667 18.7379 17.9467L18.6846 17.3333L18.2135 17.3511C18.4001 18.1156 18.4713 18.9067 18.2668 19.6711C19.1024 19.2711 19.6446 18.4444 19.8935 17.5733C20.0535 16.9956 20.1868 15.8489 19.849 15.3244C19.6979 15.0933 19.4224 15.0489 19.1735 15.1556C19.0579 15.2089 18.889 15.5022 18.7379 15.3333C18.6579 15.2444 18.489 14.7022 18.4446 14.5511C18.3913 14.3556 18.2935 13.9467 18.3646 13.76C18.4179 13.6089 18.569 13.5911 18.6935 13.68C18.8179 13.7689 18.9779 14.1333 19.0135 14.2844C19.0313 14.3556 19.0579 14.6933 19.0757 14.7111M12.4535 15.8756C12.5068 16.9778 12.6846 18.2311 12.889 19.3156C12.9068 19.4133 12.9246 19.6444 13.0668 19.5467C13.129 19.3244 13.1113 19.1022 13.129 18.8711C13.3335 16.8089 13.7957 14.7733 14.489 12.8267L14.4713 12.7911H13.849C13.4224 13.4578 13.2179 14.2756 13.0668 15.04L13.0313 14.8178C13.0401 14.2933 13.0046 13.6711 13.209 13.1822C13.2357 13.12 13.4401 12.8 13.2624 12.8267C13.209 12.8267 13.0401 12.9422 12.9868 12.9778C11.2624 14.1511 11.2268 17.1111 12.089 18.8267C12.1335 18.9156 12.4713 19.5467 12.5157 19.5467C12.5513 19.5111 12.6046 19.4844 12.5868 19.4311C12.3824 18.9333 12.169 18.4267 12.0713 17.8933C11.8757 16.8444 12.0535 15.9289 12.3913 14.9422C12.4446 14.9333 12.4268 14.9689 12.4268 14.9956C12.4357 15.2889 12.4268 15.5911 12.4268 15.8844L12.4624 15.8578L12.4535 15.8756ZM19.9557 12.0622C23.3335 15.2533 21.849 20.96 17.3779 22.1244C12.7646 23.3333 8.64014 18.9067 10.2224 14.3911C11.6446 10.3289 16.809 9.08445 19.9468 12.0533" fill="#2A186E"/>
<path d="M10.0976 12.1956L10.3732 12.6045C10.3732 12.6045 10.2487 12.8 10.2309 12.8089C10.1598 12.8356 9.57316 12.4711 9.44872 12.4445C9.43094 12.4267 9.58205 12.2489 9.60872 12.2489L9.98205 12.4267L9.75094 12.0711L9.89316 11.8845L10.3109 12.0445C10.3109 12.0445 10.062 11.7511 10.0532 11.7245C10.0443 11.6711 10.1598 11.5645 10.1954 11.52L10.7287 12.1867C10.7287 12.1867 10.6043 12.3734 10.5687 12.3734L10.0976 12.1956Z" fill="#26211F"/>
<path d="M14.6131 9.36009V9.37787C14.6131 9.37787 14.622 9.36898 14.6131 9.36009ZM15.3954 9.84009C15.342 9.82232 15.2176 9.88454 15.1909 9.84009C15.1731 9.80454 15.1465 9.44898 15.1287 9.36898C15.1287 9.35121 15.1287 9.28009 15.102 9.28009L15.022 9.88454L14.8354 9.90232L14.622 9.39565L14.6754 9.9112L14.462 9.93787L14.3643 9.10232L14.7109 9.07565C14.7109 9.07565 14.8443 9.43121 14.8709 9.48454C14.8709 9.50232 14.8709 9.51121 14.9065 9.51121L14.9598 9.04009L15.3065 9.01343L15.4043 9.84898L15.3954 9.84009Z" fill="#26211F"/>
<path d="M16.4618 23.2622L16.4796 24.1511H16.2218L15.8752 23.7067L15.8929 24.1867H15.6263L15.5996 23.2978H15.8574L16.2041 23.7422C16.2041 23.6267 16.2041 23.5022 16.2041 23.3867C16.2041 23.36 16.1685 23.2622 16.2041 23.2622H16.4618Z" fill="#26211F"/>
<path d="M10.6135 21.6267L10.9335 21.3156C10.9868 21.3067 11.129 21.44 11.1201 21.4845L10.5157 22.1067C10.4623 22.08 10.3379 21.9912 10.329 21.9289C10.3023 21.8045 10.4268 21.52 10.409 21.3778L10.089 21.6889L9.90234 21.5289C9.96457 21.44 10.4623 20.9067 10.5157 20.8978C10.569 20.8978 10.6579 21.0223 10.7023 21.0578L10.6046 21.6178L10.6135 21.6267Z" fill="#26211F"/>
<path d="M12.1597 22.4711L11.9286 22.8623C12.0086 22.9689 12.1153 23.0045 12.213 22.8978C12.3553 22.7556 12.3997 22.5156 12.1597 22.4711ZM11.5997 22.9245C11.5997 22.9245 11.5997 22.8711 11.6086 22.8534C11.6708 22.7823 11.9997 22.1689 12.0353 22.16C12.053 22.16 12.0708 22.16 12.0886 22.16C12.1419 22.1778 12.4353 22.3645 12.4797 22.4089C12.7642 22.6578 12.4797 23.2178 12.1242 23.1911C12.053 23.1911 11.6175 22.96 11.5908 22.9245" fill="#26211F"/>
<path d="M13.9736 23.2267C13.8314 23.2622 13.7514 23.5911 13.8669 23.68C14.178 23.9289 14.3736 23.1289 13.9736 23.2267ZM13.858 23.0133C14.2936 22.9422 14.6047 23.2622 14.418 23.6889C14.2402 24.1156 13.5736 23.9645 13.5291 23.5556C13.5114 23.3511 13.6269 23.0489 13.8491 23.0133" fill="#26211F"/>
<path d="M9.58237 14.0978L9.05792 14.2133L9.44904 14.3822L9.36015 14.6133L8.5957 14.3111L8.6757 14.08L9.18237 13.9733L9.16459 13.9378L8.79126 13.7956L8.87126 13.5645L9.64459 13.8667C9.64459 13.8667 9.58237 14.0533 9.57348 14.0978" fill="#26211F"/>
<path d="M18.6127 9.97332L18.7638 9.56443L19.0127 9.62665L18.7194 10.4178L18.4883 10.3467L18.346 9.82221L18.2038 10.2133C18.2038 10.2133 17.9994 10.1778 17.9816 10.1511C17.946 10.0889 18.2305 9.47554 18.2394 9.35999L18.4883 9.44887L18.6216 9.96443L18.6127 9.97332Z" fill="#26211F"/>
<path d="M18.2579 22.8978L18.3023 23.0756C18.3023 23.0756 17.9468 23.1556 17.8934 23.2C17.8579 23.2356 17.8934 23.2978 17.8934 23.3423L18.3201 23.2267L18.3557 23.4045L17.9823 23.5112C17.9823 23.5112 17.9912 23.6178 18.0001 23.6623C18.0268 23.7067 18.3912 23.5645 18.4534 23.5556C18.4801 23.5556 18.5157 23.7156 18.5068 23.7423C18.4979 23.7778 17.8757 23.9467 17.7868 23.9467L17.5557 23.0934L18.2579 22.8978Z" fill="#26211F"/>
<path d="M21.9727 12.2756C21.9727 12.2756 21.8216 12.3378 21.8305 12.3823C21.8305 12.4445 21.9905 12.5956 22.0527 12.4889C22.0883 12.4089 21.9994 12.3378 21.9727 12.2756ZM21.8927 12.7023C21.8927 12.7023 21.8927 12.7645 21.8927 12.7911C21.8838 12.8445 21.7683 13.1111 21.7238 13.0934L21.5638 12.8711C21.5816 12.7823 21.7505 12.5689 21.7061 12.48C21.6972 12.4623 21.6883 12.4623 21.6616 12.48C21.6172 12.4978 21.4216 12.6578 21.4127 12.6489L21.2705 12.4445L21.955 11.9645C21.955 11.9645 22.2661 12.4089 22.2927 12.4711C22.3727 12.7023 22.0705 12.8534 21.9016 12.7023" fill="#26211F"/>
<path d="M12.4794 9.97332C12.4794 9.97332 12.355 10.0267 12.355 10.0444L12.435 10.1778C12.5861 10.1778 12.7016 9.92888 12.4883 9.96443M12.7638 10.1689C12.835 10.1333 13.155 10.3555 13.1461 10.3911C13.0927 10.4178 12.9505 10.5244 12.8972 10.5155C12.835 10.5067 12.6927 10.3644 12.6216 10.3378C12.3994 10.2489 12.6661 10.6044 12.6572 10.64C12.6127 10.6755 12.4705 10.7644 12.4261 10.7467C12.3905 10.7378 12.0972 10.1067 12.0527 10.0178C12.0527 9.9911 12.4883 9.77776 12.5416 9.76888C12.8172 9.68888 12.9594 9.98221 12.7727 10.1778" fill="#26211F"/>
<path d="M16.9063 9.39563C17.013 9.39563 17.173 9.44896 17.1374 9.28896C17.1019 9.22674 16.9774 9.23563 16.9152 9.21785L16.8974 9.39563H16.9063ZM17.1997 9.56452C17.2974 9.67118 17.3508 9.83118 17.3597 9.97341L17.0841 9.92896C17.013 9.87563 17.0219 9.53785 16.8619 9.56452L16.8086 9.87563L16.5508 9.84007L16.6841 9.00452C16.853 9.06674 17.2263 9.04007 17.3508 9.16452C17.4841 9.30674 17.3774 9.54674 17.1908 9.56452" fill="#26211F"/>
<path d="M19.6971 22.2133C19.8038 22.1955 19.9549 22.2133 19.9815 22.3289L19.7949 22.4711C19.706 22.3822 19.5193 22.4267 19.5726 22.5689C19.7682 22.5689 20.0171 22.3822 20.186 22.5867C20.4615 22.9422 19.7326 23.4044 19.5104 23.0311L19.706 22.8889C19.7593 22.88 19.8126 23.0044 19.946 22.9155C19.9904 22.8889 20.026 22.8089 19.9815 22.7733C19.8838 22.6844 19.5282 22.96 19.3682 22.7289C19.2082 22.5067 19.5015 22.2489 19.706 22.2133" fill="#26211F"/>
<path d="M22.4624 20.2667L22.1869 20.1867C22.1869 20.1867 22.3291 20.3823 22.338 20.4356C22.3736 20.4623 22.4802 20.2845 22.4713 20.2756M22.978 20.1512C22.978 20.1512 22.8358 20.3823 22.8091 20.3912C22.7647 20.409 22.7024 20.329 22.6402 20.3912C22.6313 20.4001 22.498 20.5867 22.498 20.5956C22.498 20.6667 22.578 20.6934 22.5602 20.7556C22.5602 20.7823 22.418 20.9512 22.3913 20.9512L21.8936 20.169L22.0624 19.929L22.978 20.1601V20.1512Z" fill="#26211F"/>
<path d="M11.626 10.5334C11.2616 10.569 11.6171 11.1823 11.8393 10.9423C11.9638 10.809 11.7682 10.5245 11.626 10.5334ZM11.5905 10.3201C12.0527 10.2401 12.3549 10.8801 11.8749 11.1557C11.4216 11.4134 11.0127 10.8179 11.3238 10.489C11.3771 10.4357 11.5105 10.3379 11.5905 10.329" fill="#26211F"/>
<path d="M23.5016 16.0179L23.3238 16.0534L23.2705 15.6534C23.2705 15.6534 23.1638 15.6179 23.146 15.6445C23.1194 15.689 23.1994 15.9645 23.1905 16.0445L23.0127 16.0623L22.9594 15.6712L22.8083 15.689L22.8616 16.1512L22.666 16.169L22.5771 15.4756L23.4127 15.3512L23.5105 16.0356L23.5016 16.0179Z" fill="#26211F"/>
<path d="M9.48468 12.7378C9.52024 12.7911 9.29802 13.0844 9.30691 13.1378C9.30691 13.1644 9.38691 13.1911 9.42246 13.1733C9.44913 13.1555 9.56468 12.8978 9.59135 12.8533L9.75135 12.9244C9.74246 13.0044 9.57357 13.2178 9.59135 13.28C9.60024 13.3155 9.69802 13.36 9.73357 13.3244C9.77802 13.28 9.86691 13.0044 9.92024 12.9689L10.0891 13.04L10.0714 13.12L9.76913 13.6711L9.02246 13.2978L9.33357 12.6933C9.37802 12.6311 9.44024 12.7289 9.49357 12.7378" fill="#26211F"/>
<path d="M19.4396 10.089L19.404 10.2045L19.7329 10.3823C19.7329 10.3823 19.6796 10.5423 19.644 10.5334L19.2885 10.3557L19.244 10.4979L19.5996 10.7112C19.5996 10.7112 19.5551 10.8623 19.5107 10.8623L18.9507 10.5601L18.9062 10.5068L19.3151 9.79565L19.9018 10.1245C19.8574 10.4534 19.5996 10.1068 19.4307 10.089" fill="#26211F"/>
<path d="M21.2802 12.1868C21.218 12.1868 21.1824 12.3112 21.1202 12.2757L20.6758 11.7779L21.2802 11.209L21.7513 11.6979C21.7513 11.6979 21.6536 11.8223 21.618 11.8134C21.5913 11.8134 21.4047 11.5734 21.3513 11.5379C21.3069 11.5023 21.2624 11.5734 21.2447 11.609L21.5024 11.8934C21.3513 12.1779 21.2358 11.769 21.1113 11.7334C21.0758 11.7245 20.978 11.8134 20.9958 11.849C21.0136 11.8845 21.138 11.9823 21.1736 12.0268C21.1913 12.0445 21.2891 12.1601 21.2802 12.1779" fill="#26211F"/>
<path d="M22.9593 16.2845V16.5334C22.8171 16.5245 22.7638 16.7556 22.906 16.7823C23.0038 16.7823 23.0127 16.5779 23.0482 16.4979C23.1016 16.3645 23.2171 16.2667 23.3771 16.329C23.5993 16.4267 23.5993 17.0401 23.2793 17.0134L23.2616 16.7734C23.2616 16.7734 23.4216 16.729 23.3504 16.5779C23.2793 16.4179 23.1993 16.8179 23.1904 16.8445C23.066 17.1823 22.6838 17.0579 22.6571 16.729C22.6393 16.5067 22.7016 16.2667 22.9682 16.2756" fill="#26211F"/>
<path d="M20.5062 11.3156C20.5773 11.2 20.2128 10.96 20.3551 10.7467C20.5417 10.4534 21.0928 10.8623 20.9417 11.1378C20.9328 11.1556 20.924 11.1823 20.8973 11.1734C20.8884 11.1734 20.7373 11.0489 20.7284 11.04C20.7106 11.0045 20.7728 10.8534 20.6306 10.8445C20.4706 10.8356 20.7106 11.1023 20.7373 11.1556C20.8706 11.4311 20.6217 11.6445 20.364 11.5111C20.2484 11.4578 20.0617 11.28 20.0706 11.1378C20.0706 11.1111 20.1151 10.9511 20.1595 10.96L20.3284 11.0934C20.2928 11.2356 20.3373 11.3867 20.5151 11.3245" fill="#26211F"/>
<path d="M16.0706 9.51112C16.0706 9.51112 16.0173 9.28889 15.9995 9.25334C15.9995 9.23556 15.9995 9.21778 15.964 9.20889L15.884 9.50223H16.0618L16.0706 9.51112ZM15.5284 9.82223L15.8306 8.99556L16.1151 8.97778L16.4351 9.81334H16.1684L16.124 9.68001H15.8218L15.7773 9.81334H15.5195L15.5284 9.82223Z" fill="#26211F"/>
<path d="M22.8444 15.2C22.4622 15.2711 22.2755 14.7111 22.5422 14.48C22.8622 14.2044 23.3155 14.3822 23.3066 14.8178C23.3066 14.9333 23.2355 15.0578 23.1289 15.1022L23.0311 14.9067C23.1911 14.6844 23.0311 14.5511 22.7911 14.64C22.5422 14.7289 22.5955 14.9689 22.8533 14.9689V15.2H22.8444Z" fill="#26211F"/>
<path d="M8.62226 16.7467C8.6667 16.48 8.40003 16.4889 8.44448 16.7467H8.62226ZM8.80003 16.7467H9.11115V17.0134H8.28448L8.25781 16.9867V16.56C8.25781 16.56 8.28448 16.4534 8.29337 16.4267C8.3467 16.2934 8.52448 16.2756 8.64892 16.32C8.8267 16.3734 8.80892 16.6045 8.80003 16.7467Z" fill="#26211F"/>
<path d="M10.8 11.1733C10.8 11.1733 10.6756 11.2445 10.6756 11.2622L10.8 11.4045C10.9245 11.3778 10.9511 11.1556 10.8 11.1733ZM10.8178 10.9422C10.9511 10.9156 11.0578 10.9778 11.1111 11.0933C11.2 11.28 11.0578 11.4133 10.9156 11.52C11.04 11.7245 11.2267 11.7511 10.9156 11.92L10.3467 11.3156C10.3467 11.3156 10.3556 11.2889 10.3733 11.28C10.4356 11.2089 10.5956 11.0756 10.6667 11.0133C10.7022 10.9867 10.7645 10.9422 10.8 10.9333" fill="#26211F"/>
<path d="M22.4793 12.7467C22.4793 12.8178 22.5949 12.9067 22.5771 12.9778L22.1682 13.4134L22.7549 13.2978C22.7993 13.2978 22.906 13.52 22.8971 13.5289L22.0082 13.6534L21.8838 13.3956L22.4349 12.7467H22.4882H22.4793Z" fill="#26211F"/>
<path d="M13.6795 9.29785L13.7239 9.51118L13.4928 9.59118L13.6706 10.1779L13.4217 10.2667L13.235 9.68896C13.1995 9.64452 13.0217 9.75118 12.9595 9.7423L12.915 9.55563L13.6706 9.29785H13.6795Z" fill="#26211F"/>
<path d="M8.5866 15.2978L8.55105 15.5556L9.15549 15.6445L9.17327 15.68L9.13771 15.9023L8.52438 15.8223L8.49771 15.8489L8.46216 16.08L8.2666 16.0534L8.36438 15.28L8.56882 15.2978H8.5866Z" fill="#26211F"/>
<path d="M9.81295 20L9.08406 20.4622C9.08406 20.4622 8.91517 20.2489 8.93295 20.2222L9.66184 19.76C9.66184 19.76 9.68851 19.7689 9.6974 19.7867C9.71517 19.8133 9.82184 19.9822 9.81295 20.0089" fill="#26211F"/>
<path d="M20.9327 21.2534H20.9771L21.5549 21.8668L21.3682 22.0534L20.7549 21.4223L20.9327 21.2534Z" fill="#26211F"/>
<path d="M17.9906 9.2623L17.7595 10.0623C17.7595 10.0623 17.564 10.0179 17.5195 10.0179L17.7506 9.20007L17.9995 9.27118L17.9906 9.2623Z" fill="#26211F"/>
<path d="M23.0576 14.0178L22.2932 14.3111L22.2576 14.2934L22.1865 14.0889L22.9332 13.7689C22.9865 13.7689 23.0399 13.9645 23.0576 14.0178Z" fill="#26211F"/>
<path d="M9.24441 15.1823C9.25329 15.2623 9.22663 15.3423 9.20885 15.4223L8.95996 15.3867L9.01329 15.1467L9.23552 15.1823H9.24441Z" fill="#26211F"/>
<path d="M14.0269 19.5556C13.9202 19.4489 13.8758 19.4311 13.8135 19.2711C13.5291 18.5778 13.7158 17.2089 13.8402 16.4623C14.0447 15.2178 14.4002 13.9911 14.9247 12.8445H15.4491C15.458 13.5734 15.3869 14.4978 15.7691 15.1467C15.7958 15.2 15.9291 15.4045 15.9913 15.3689C16.0091 15.3689 16.1602 15.1111 16.1869 15.0756C16.5335 14.4267 16.5158 13.5734 16.4891 12.8534L17.0491 12.8711L17.298 13.4311C17.298 13.4311 17.298 13.4667 17.298 13.4845C17.6624 14.5156 17.858 15.5911 17.9558 16.6756C17.9913 17.0667 18.0358 17.4756 18.018 17.8756C18.0002 18.3112 17.9202 19.2978 17.458 19.5023C17.4135 19.52 17.2713 19.5823 17.2447 19.5289L16.8624 15.8934C16.8624 15.8934 16.8358 15.8934 16.8269 15.9111C16.7913 15.9645 16.7824 16.0445 16.7647 16.1067C16.6491 16.4178 16.5247 16.7378 16.4091 17.0489C16.4002 17.0756 16.4091 17.1112 16.4091 17.1467L16.0002 18.2934L15.5558 17.4045L15.5202 17.2445C15.4847 17.1823 15.4224 17.0934 15.3958 17.04C15.3958 17.0311 15.3424 16.8978 15.3335 16.8623C15.218 16.6045 15.0935 16.3289 14.978 16.08C14.9513 16.0178 14.9247 15.9378 14.8891 15.8756C14.8891 15.8667 14.8535 15.84 14.8358 15.8311L14.338 19.52C14.2669 19.6178 14.1424 19.5378 14.0447 19.5289" fill="#FCF204"/>
<path d="M12.3819 14.9512C12.0441 15.9378 11.8663 16.8534 12.0619 17.9023C12.1597 18.4356 12.3819 18.9423 12.5774 19.4401C12.5952 19.4934 12.5419 19.52 12.5063 19.5556C12.4619 19.5556 12.1241 18.9156 12.0797 18.8356C11.2174 17.12 11.253 14.1689 12.9774 12.9867C13.0308 12.9512 13.1997 12.8356 13.253 12.8356C13.4308 12.8178 13.2263 13.1378 13.1997 13.1912C13.0041 13.68 13.0397 14.3023 13.0219 14.8267L13.0574 15.0489C13.2085 14.2756 13.4041 13.4578 13.8397 12.8H14.4619L14.4797 12.8356C13.7863 14.7823 13.3241 16.8178 13.1197 18.88C13.093 19.1023 13.1197 19.3334 13.0574 19.5556C12.9152 19.6534 12.8974 19.4223 12.8797 19.3245C12.6752 18.24 12.4974 16.9867 12.4441 15.8845C12.4441 15.84 12.4441 15.7867 12.4441 15.7423C12.4441 15.7245 12.4263 15.6978 12.4263 15.6978V14.8534C12.3819 14.8712 12.3908 14.9334 12.373 14.9689" fill="#FCF204"/>
<path d="M19.0486 14.7201C19.0486 14.7201 19.0042 14.3645 18.9864 14.2934C18.9509 14.1423 18.7909 13.7778 18.6664 13.6889C18.542 13.6001 18.3909 13.6178 18.3375 13.7689C18.2753 13.9556 18.3642 14.3645 18.4175 14.5601C18.4531 14.7023 18.622 15.2445 18.7109 15.3423C18.862 15.5112 19.0309 15.2089 19.1464 15.1645C19.3953 15.0578 19.6709 15.1023 19.822 15.3334C20.1597 15.8489 20.0353 16.9956 19.8664 17.5823C19.6175 18.4534 19.0753 19.2801 18.2397 19.6801C18.4531 18.9156 18.3731 18.1245 18.1864 17.3601L18.6575 17.3423L18.7109 17.9556C18.8709 18.2667 19.0575 18.0623 19.1731 17.8489C19.3864 17.4312 19.4309 16.7112 19.2886 16.2667C19.1731 15.8845 18.9775 16.1601 18.7731 16.2312C18.5686 16.2934 18.3553 16.2312 18.2486 16.0445C18.1597 15.8934 18.0531 15.5467 17.9909 15.3601C17.8397 14.8712 17.7153 14.3112 17.6886 13.8045C17.6709 13.4578 17.6709 13.0756 18.0086 12.8801C18.2931 12.7112 18.5331 12.8445 18.7731 13.0134C19.3064 13.3778 19.4842 13.8756 19.5909 14.4978C19.5909 14.6578 19.0931 14.8001 19.022 14.7289" fill="#FCF204"/>
<path d="M17.2883 13.44L17.3505 13.52C17.4039 13.7245 17.4661 13.9111 17.5194 14.1245C17.5372 14.1867 17.6083 14.3289 17.6172 14.3734C17.6261 14.4267 17.6439 14.4978 17.6527 14.5334C17.7061 14.7822 17.7594 15.0489 17.8127 15.2889C17.875 15.5378 17.875 15.8311 17.9105 16.0889C17.9194 16.16 17.9283 16.2934 17.9461 16.3467C17.9816 16.4889 17.9639 16.56 17.9816 16.6934C17.9816 16.7289 18.0172 16.7111 18.0172 16.7378C18.035 16.8711 17.9994 17.04 18.0172 17.1734L18.0527 17.1378V18.0711C17.9905 18.2934 18.0083 18.5778 17.955 18.8089C17.9461 18.8534 17.9016 18.96 17.8839 19.0134C17.795 19.2445 17.6972 19.44 17.4305 19.5467C17.4305 19.5467 17.4305 19.5734 17.4127 19.5734C17.3683 19.5822 17.2972 19.5734 17.2527 19.5734H17.235C17.1727 19.4667 17.2172 19.3422 17.1994 19.2356C17.1994 19.2 17.1639 19.2178 17.1639 19.1911C17.155 19.1022 17.1727 18.9956 17.1639 18.9067C17.1639 18.8711 17.1283 18.8889 17.1283 18.8622C17.1194 18.7911 17.1372 18.6845 17.1283 18.6134C17.1283 18.5778 17.0927 18.5956 17.0927 18.5689C17.0839 18.48 17.1105 18.3734 17.0927 18.2845C17.0927 18.2489 17.0572 18.2667 17.0572 18.24C17.0305 18.0622 17.0572 17.84 17.0305 17.6622C17.0305 17.6267 16.995 17.6445 16.995 17.6178C16.9861 17.5289 17.0127 17.4222 16.995 17.3334C16.995 17.2978 16.9594 17.3156 16.9594 17.2889C16.9416 17.1111 16.9594 16.8889 16.9327 16.7111C16.9327 16.6756 16.8972 16.6934 16.8972 16.6667C16.8883 16.5778 16.9061 16.4711 16.8972 16.3822C16.8972 16.3467 16.8616 16.3645 16.8616 16.3378C16.8616 16.2934 16.8705 16.0711 16.8616 16.0622H16.7994C16.8261 16.1334 16.7639 16.1689 16.7639 16.1689C16.7283 16.3467 16.6394 16.56 16.5683 16.72C16.515 16.8622 16.4883 17.0489 16.3994 17.1378C16.3994 17.1022 16.3994 17.0756 16.3994 17.04C16.515 16.7378 16.6394 16.4089 16.755 16.0978C16.7816 16.0356 16.7816 15.9556 16.8172 15.9022C16.8261 15.8845 16.8172 15.8756 16.8527 15.8845L17.235 19.52C17.2616 19.5734 17.4039 19.52 17.4483 19.4934C17.9016 19.2889 17.9905 18.3022 18.0083 17.8667C18.0261 17.4667 17.9727 17.0578 17.9461 16.6667C17.8483 15.5822 17.6527 14.5067 17.2883 13.4756C17.2883 13.4578 17.2883 13.44 17.2883 13.4222" fill="#26211F"/>
<path d="M14.0264 19.5556C14.1242 19.5556 14.2486 19.6445 14.3197 19.5467L14.8175 15.8578C14.8175 15.8578 14.862 15.8845 14.8709 15.9022C14.9064 15.9556 14.9331 16.0445 14.9597 16.1067C15.0753 16.3645 15.1997 16.64 15.3153 16.8889C15.3331 16.9245 15.3775 17.0578 15.3775 17.0667H15.3597C15.3597 17.0845 15.3864 17.0667 15.3775 17.0667C15.4131 17.12 15.4664 17.2089 15.502 17.2711L15.5375 17.4311C15.4931 17.44 15.502 17.4045 15.502 17.3689L15.4664 17.4045C15.4931 17.3422 15.4486 17.3156 15.4397 17.2978C15.3864 17.1733 15.3242 17.0489 15.2797 16.9333C15.2353 16.8267 15.1997 16.7645 15.1731 16.6578C15.1731 16.64 15.1109 16.6133 15.1109 16.6045C15.0931 16.5156 15.0753 16.48 15.0397 16.3911C15.0042 16.3022 14.9597 16.1956 14.9064 16.0978C14.9064 16.0889 14.862 16.08 14.8797 16.0267H14.8175L14.3553 19.6C14.3464 19.6533 14.1686 19.6533 14.1153 19.6445C14.0886 19.6445 14.0975 19.6178 14.0797 19.6089C14.0709 19.6089 14.0442 19.6089 14.0264 19.6089C14.0175 19.6089 14.0264 19.5822 14.0264 19.5822" fill="#26211F"/>
<path d="M12.4529 15.8756L12.4174 15.9023C12.4174 15.6089 12.4263 15.3067 12.4174 15.0134C12.4174 14.9778 12.4352 14.9511 12.3818 14.96C12.3907 14.9245 12.3818 14.8623 12.4352 14.8445V15.6889C12.4352 15.6889 12.4529 15.7156 12.4529 15.7334C12.4529 15.7778 12.4529 15.8311 12.4529 15.8756Z" fill="#26211F"/>
<path d="M15.3772 17.0578C15.3772 17.0578 15.3594 17.0845 15.3594 17.0578C15.3594 17.0578 15.3683 17.0489 15.3772 17.0578Z" fill="#2A186E"/>
</g>
</g>
<defs>
<clipPath id="clip0_2737_120640">
<rect width="32" height="32" fill="white"/>
</clipPath>
</defs>
</svg>
