<svg width="32" height="32" viewBox="0 0 32 32" fill="none" xmlns="http://www.w3.org/2000/svg">
<g clip-path="url(#clip0_2707_359253)">
<path d="M15.9998 31.9822C24.8265 31.9822 31.982 24.8267 31.982 16C31.982 7.17325 24.8265 0.0177612 15.9998 0.0177612C7.17306 0.0177612 0.0175781 7.17325 0.0175781 16C0.0175781 24.8267 7.17306 31.9822 15.9998 31.9822Z" fill="white"/>
<path d="M9.66211 17.84H9.77767V17.6533H9.991V17.5822H9.77767V17.4489H10.0177V17.3777H9.70655L9.66211 17.84Z" fill="#565656"/>
<path d="M10.2308 17.3777L10.0264 17.84H10.1064L10.1508 17.7333H10.3819L10.4264 17.84H10.5153L10.3108 17.3777H10.2308ZM10.1775 17.6711L10.2664 17.4666L10.3553 17.6711H10.1775Z" fill="#565656"/>
<path d="M10.6663 17.4933C10.6663 17.4933 10.6663 17.4489 10.7463 17.4489C10.7943 17.4495 10.8409 17.465 10.8797 17.4933V17.4222C10.8282 17.3928 10.77 17.3775 10.7108 17.3777C10.613 17.3777 10.5508 17.4222 10.5508 17.5022C10.5508 17.5822 10.7997 17.6089 10.7997 17.7155C10.7997 17.8222 10.7997 17.7689 10.7108 17.7689C10.6516 17.7686 10.5946 17.7464 10.5508 17.7066V17.7689C10.6014 17.8159 10.6684 17.8413 10.7374 17.84C10.8352 17.84 10.9063 17.7955 10.9063 17.7066C10.9063 17.6178 10.6663 17.6 10.6663 17.4933Z" fill="#565656"/>
<path d="M11.0576 17.4489H11.1998V17.84H11.2798V17.4489H11.4221V17.3777H11.0576V17.4489Z" fill="#565656"/>
<path d="M11.6357 17.6444H11.8579V17.5733H11.6357V17.4489H11.8846V17.3777H11.5557V17.84H11.8934V17.7777H11.6357V17.6444Z" fill="#565656"/>
<path d="M12.3816 17.7155L12.1327 17.3777H12.0527V17.84H12.1327V17.5111L12.3816 17.84H12.4438V17.3777H12.3727L12.3816 17.7155Z" fill="#565656"/>
<path d="M12.7195 17.6444H12.9507V17.5733H12.7195V17.4489H12.9773V17.3777H12.6484V17.84H12.9862V17.7777H12.7195V17.6444Z" fill="#565656"/>
<path d="M13.5198 17.5377C13.5198 17.44 13.4487 17.3777 13.3332 17.3777H13.1465V17.84H13.2176V17.7066H13.3332L13.422 17.8489H13.5109L13.4043 17.6977C13.4338 17.6853 13.459 17.6642 13.4764 17.6372C13.4939 17.6103 13.5028 17.5787 13.502 17.5466M13.3154 17.6444H13.1998V17.4577H13.3332C13.4043 17.4577 13.4398 17.4577 13.4398 17.5466C13.4398 17.6355 13.4398 17.6444 13.3332 17.6444" fill="#565656"/>
<path d="M13.7602 17.4933C13.7602 17.4933 13.7602 17.4489 13.8313 17.4489C13.8795 17.4482 13.9265 17.4639 13.9646 17.4933V17.4222C13.916 17.3939 13.8609 17.3786 13.8046 17.3777C13.698 17.3777 13.6357 17.4222 13.6357 17.5022C13.6357 17.5822 13.8846 17.6089 13.8846 17.7155C13.8846 17.8222 13.8846 17.7689 13.7957 17.7689C13.7393 17.7681 13.6853 17.7458 13.6446 17.7066V17.7689C13.6953 17.8159 13.7622 17.8413 13.8313 17.84C13.9291 17.84 14.0091 17.7955 14.0091 17.7066C14.0091 17.6177 13.7602 17.6 13.7602 17.4933Z" fill="#565656"/>
<path d="M14.7464 17.6533H14.693C14.6837 17.6827 14.6686 17.7099 14.6486 17.7333L14.5508 17.6356C14.613 17.6356 14.6664 17.5733 14.6664 17.5111C14.6664 17.4489 14.6219 17.4133 14.5508 17.4133C14.5356 17.4121 14.5204 17.4139 14.5059 17.4186C14.4914 17.4233 14.478 17.4309 14.4664 17.4408C14.4549 17.4507 14.4454 17.4628 14.4385 17.4764C14.4316 17.49 14.4275 17.5048 14.4264 17.52C14.4326 17.5585 14.4478 17.5951 14.4708 17.6267C14.4264 17.6267 14.373 17.6889 14.373 17.7511C14.3742 17.7698 14.379 17.7881 14.3872 17.8049C14.3954 17.8217 14.4069 17.8368 14.4209 17.8492C14.435 17.8615 14.4513 17.871 14.469 17.8771C14.4867 17.8831 14.5055 17.8856 14.5242 17.8844C14.5748 17.881 14.6223 17.8588 14.6575 17.8222L14.7286 17.8933L14.773 17.8489L14.693 17.7778L14.7464 17.6889M14.5508 17.4578C14.5582 17.4561 14.5658 17.4563 14.5731 17.4583C14.5803 17.4604 14.587 17.4643 14.5923 17.4696C14.5976 17.475 14.6015 17.4816 14.6036 17.4888C14.6057 17.4961 14.6059 17.5038 14.6042 17.5111C14.6042 17.5111 14.6042 17.5733 14.5242 17.6C14.5147 17.5711 14.5147 17.54 14.5242 17.5111C14.5263 17.4962 14.5338 17.4826 14.5452 17.4728C14.5567 17.4629 14.5713 17.4576 14.5864 17.4578M14.5864 17.8222C14.533 17.8222 14.4975 17.8222 14.4975 17.7422C14.4975 17.6622 14.4975 17.68 14.5686 17.6622L14.6753 17.7778C14.6643 17.7909 14.6507 17.8016 14.6355 17.8093C14.6202 17.8169 14.6035 17.8213 14.5864 17.8222Z" fill="#565656"/>
<path d="M15.218 17.6444H15.4402V17.5733H15.218V17.4489H15.4669V17.3777H15.1113V17.84H15.4491V17.7777H15.1913L15.218 17.6444Z" fill="#565656"/>
<path d="M15.9997 17.7155L15.7597 17.3777H15.6797V17.84H15.7597V17.5111L15.9997 17.84V17.3777V17.7155Z" fill="#565656"/>
<path d="M16.4354 17.4489C16.485 17.4491 16.5327 17.4682 16.5687 17.5022L16.6132 17.44C16.5618 17.4014 16.4997 17.3796 16.4354 17.3778C16.4036 17.3753 16.3716 17.3795 16.3415 17.39C16.3114 17.4005 16.2838 17.4171 16.2604 17.4388C16.237 17.4605 16.2184 17.4869 16.2057 17.5161C16.1929 17.5454 16.1864 17.577 16.1865 17.6089C16.1865 17.6725 16.2118 17.7336 16.2568 17.7786C16.3018 17.8236 16.3629 17.8489 16.4265 17.8489C16.4908 17.847 16.5529 17.8253 16.6043 17.7866V17.6178H16.5421V17.7778C16.5069 17.7855 16.4706 17.7855 16.4354 17.7778C16.4129 17.7791 16.3904 17.7756 16.3693 17.7675C16.3482 17.7595 16.3291 17.7471 16.3131 17.7312C16.2972 17.7152 16.2848 17.6961 16.2768 17.675C16.2687 17.6539 16.2652 17.6314 16.2665 17.6089C16.2665 17.5871 16.2709 17.5655 16.2795 17.5455C16.2881 17.5255 16.3007 17.5075 16.3165 17.4925C16.3323 17.4775 16.351 17.4659 16.3715 17.4584C16.3919 17.4509 16.4137 17.4477 16.4354 17.4489Z" fill="#565656"/>
<path d="M16.8622 17.3777H16.7822V17.84H16.8622V17.3777Z" fill="#565656"/>
<path d="M17.3688 17.7155L17.1288 17.3777H17.0488V17.84H17.1288V17.5111L17.3688 17.84H17.4488V17.3777H17.3688V17.7155Z" fill="#565656"/>
<path d="M17.7157 17.6444H17.938V17.5733H17.7157V17.4489H17.9646V17.3777H17.6357V17.84H17.9735V17.7777H17.7157V17.6444Z" fill="#565656"/>
<path d="M18.2128 17.6444H18.435V17.5733H18.2128V17.4489H18.4617V17.3777H18.1328V17.84H18.4706V17.7777H18.2128V17.6444Z" fill="#565656"/>
<path d="M19.0038 17.5377C19.0038 17.44 18.9416 17.3777 18.8171 17.3777H18.666V17.84H18.746V17.7066H18.8793L18.9593 17.8489H19.0482L18.9416 17.6977C18.9711 17.6853 18.9963 17.6642 19.0137 17.6372C19.0312 17.6103 19.0401 17.5787 19.0393 17.5466M18.8527 17.6444H18.746V17.4577H18.8527C18.9238 17.4577 18.9682 17.4577 18.9682 17.5466C18.9682 17.6355 18.9238 17.6444 18.8527 17.6444Z" fill="#565656"/>
<path d="M19.2529 17.6444H19.4751V17.5733H19.2529V17.4489H19.5017V17.3777H19.1729V17.84H19.5551V17.7777H19.2973L19.2529 17.6444Z" fill="#565656"/>
<path d="M19.8665 17.3777H19.6709V17.84H19.8576C19.8894 17.8424 19.9214 17.8383 19.9515 17.8277C19.9816 17.8172 20.0092 17.8006 20.0326 17.7789C20.056 17.7572 20.0746 17.7309 20.0873 17.7016C20.1 17.6723 20.1066 17.6408 20.1065 17.6088C20.1065 17.5777 20.1002 17.5469 20.0881 17.5183C20.0759 17.4897 20.0581 17.4638 20.0357 17.4422C20.0132 17.4206 19.9867 17.4038 19.9576 17.3927C19.9286 17.3816 19.8975 17.3765 19.8665 17.3777ZM19.8665 17.7688H19.7509V17.4488H19.8665C19.9089 17.4488 19.9496 17.4657 19.9796 17.4957C20.0096 17.5257 20.0265 17.5664 20.0265 17.6088C20.0278 17.6302 20.0245 17.6516 20.0169 17.6716C20.0093 17.6916 19.9976 17.7097 19.9825 17.7249C19.9674 17.74 19.9492 17.7517 19.9292 17.7593C19.9092 17.7669 19.8878 17.7701 19.8665 17.7688Z" fill="#565656"/>
<path d="M20.6933 17.7778C20.6509 17.7778 20.6102 17.7609 20.5802 17.7309C20.5502 17.7009 20.5333 17.6602 20.5333 17.6178C20.5333 17.5753 20.5502 17.5346 20.5802 17.5046C20.6102 17.4746 20.6509 17.4578 20.6933 17.4578C20.7167 17.457 20.74 17.4614 20.7615 17.4706C20.783 17.4798 20.8022 17.4937 20.8178 17.5111L20.8711 17.4578C20.8218 17.4142 20.759 17.3891 20.6933 17.3867C20.6619 17.3841 20.6303 17.3883 20.6007 17.3989C20.571 17.4094 20.5439 17.4262 20.5212 17.4481C20.4985 17.4699 20.4807 17.4964 20.469 17.5256C20.4573 17.5549 20.452 17.5863 20.4533 17.6178C20.4521 17.6496 20.4574 17.6814 20.4691 17.7111C20.4807 17.7408 20.4983 17.7677 20.5208 17.7903C20.5434 17.8128 20.5703 17.8304 20.6 17.842C20.6297 17.8537 20.6615 17.859 20.6933 17.8578C20.76 17.8521 20.8227 17.8239 20.8711 17.7778L20.8178 17.7244C20.785 17.7579 20.7402 17.7771 20.6933 17.7778Z" fill="#565656"/>
<path d="M21.2087 17.3777C21.1474 17.3777 21.0886 17.4021 21.0452 17.4454C21.0019 17.4888 20.9775 17.5476 20.9775 17.6089C20.9775 17.6702 21.0019 17.7289 21.0452 17.7723C21.0886 17.8156 21.1474 17.84 21.2087 17.84C21.2699 17.84 21.3287 17.8156 21.3721 17.7723C21.4154 17.7289 21.4398 17.6702 21.4398 17.6089C21.4398 17.5476 21.4154 17.4888 21.3721 17.4454C21.3287 17.4021 21.2699 17.3777 21.2087 17.3777ZM21.2087 17.7777C21.1646 17.7756 21.1228 17.7571 21.0916 17.7259C21.0604 17.6947 21.0419 17.653 21.0398 17.6089C21.0398 17.5641 21.0576 17.5211 21.0892 17.4894C21.1209 17.4578 21.1639 17.44 21.2087 17.44C21.2534 17.44 21.2964 17.4578 21.3281 17.4894C21.3597 17.5211 21.3775 17.5641 21.3775 17.6089C21.3754 17.653 21.3569 17.6947 21.3257 17.7259C21.2945 17.7571 21.2527 17.7756 21.2087 17.7777Z" fill="#565656"/>
<path d="M21.8485 17.6889L21.6974 17.3777H21.5996V17.84H21.6796V17.4933L21.8218 17.7955H21.8752L22.0174 17.4933V17.84H22.0885V17.3777H21.9996L21.8485 17.6889Z" fill="#565656"/>
<path d="M22.4621 17.3777H22.2754V17.84H22.3554V17.6977H22.4621C22.5776 17.6977 22.6487 17.6444 22.6487 17.5377C22.6487 17.4311 22.5776 17.3777 22.4621 17.3777ZM22.4621 17.6355H22.3554V17.4489H22.4621C22.5332 17.4489 22.5687 17.4489 22.5687 17.5377C22.5687 17.6266 22.5687 17.6355 22.4621 17.6355Z" fill="#565656"/>
<path d="M22.9958 17.3777C22.9345 17.3777 22.8757 17.4021 22.8323 17.4454C22.789 17.4888 22.7646 17.5476 22.7646 17.6089C22.7646 17.6702 22.789 17.7289 22.8323 17.7723C22.8757 17.8156 22.9345 17.84 22.9958 17.84C23.0571 17.84 23.1158 17.8156 23.1592 17.7723C23.2025 17.7289 23.2269 17.6702 23.2269 17.6089C23.2269 17.5476 23.2025 17.4888 23.1592 17.4454C23.1158 17.4021 23.0571 17.3777 22.9958 17.3777ZM22.9958 17.7777C22.9517 17.7756 22.9099 17.7571 22.8787 17.7259C22.8475 17.6947 22.829 17.653 22.8269 17.6089C22.8291 17.5656 22.8479 17.5249 22.8794 17.4951C22.9108 17.4654 22.9525 17.4488 22.9958 17.4489C23.0382 17.4489 23.0789 17.4657 23.1089 17.4957C23.1389 17.5257 23.1558 17.5664 23.1558 17.6089C23.1558 17.6522 23.1393 17.6938 23.1095 17.7252C23.0797 17.7567 23.039 17.7755 22.9958 17.7777Z" fill="#565656"/>
<path d="M23.7156 17.7155L23.4667 17.3777H23.3867V17.84H23.4667V17.5111L23.7156 17.84H23.7867V17.3777H23.7156V17.7155Z" fill="#565656"/>
<path d="M24.0533 17.6444H24.2756V17.5733H24.0533V17.4489H24.3022V17.3777H24V17.84H24.3378V17.7777H24.08L24.0533 17.6444Z" fill="#565656"/>
<path d="M24.7996 17.7155L24.5507 17.3777H24.4707V17.84H24.5507V17.5111L24.7996 17.84H24.8885V17.3777H24.7996V17.7155Z" fill="#565656"/>
<path d="M25.0039 17.4489H25.155V17.84H25.235V17.4489H25.3772V17.3777H25.0039V17.4489Z" fill="#565656"/>
<path d="M25.5825 17.4933C25.5825 17.4933 25.5825 17.4489 25.6536 17.4489C25.7018 17.4482 25.7487 17.4639 25.7869 17.4933V17.4222C25.7386 17.3932 25.6833 17.3778 25.6269 17.3777C25.5291 17.3777 25.458 17.4222 25.458 17.5022C25.458 17.5822 25.7069 17.6089 25.7069 17.7155C25.7069 17.8222 25.7069 17.7689 25.618 17.7689C25.5616 17.7681 25.5075 17.7458 25.4669 17.7066V17.7689C25.5176 17.8159 25.5845 17.8413 25.6536 17.84C25.7602 17.84 25.8313 17.7955 25.8313 17.7066C25.8313 17.6177 25.5825 17.6 25.5825 17.4933Z" fill="#565656"/>
<path d="M4.3816 16.0444H5.00382C4.95562 16.149 4.87536 16.2356 4.77468 16.2915C4.67399 16.3475 4.5581 16.3699 4.44382 16.3555C4.28107 16.3601 4.12147 16.31 3.99049 16.2133C3.93692 16.171 3.89382 16.1169 3.86453 16.0552C3.83524 15.9936 3.82055 15.926 3.8216 15.8578C3.82227 15.7845 3.84035 15.7124 3.87435 15.6475C3.90835 15.5826 3.9573 15.5267 4.01715 15.4844C4.16402 15.3879 4.33967 15.3449 4.51453 15.3627C4.68939 15.3805 4.85277 15.458 4.97715 15.5822L5.23493 15.4489C5.14243 15.3302 5.02132 15.237 4.88296 15.1779C4.74459 15.1188 4.59349 15.0958 4.44382 15.1111C4.21862 15.102 3.99675 15.1677 3.81271 15.2977C3.72617 15.3632 3.65598 15.4479 3.60766 15.545C3.55933 15.6422 3.53418 15.7492 3.53418 15.8578C3.53418 15.9663 3.55933 16.0733 3.60766 16.1705C3.65598 16.2676 3.72617 16.3523 3.81271 16.4178C3.99401 16.5466 4.21266 16.6122 4.43493 16.6044C4.67018 16.6161 4.9014 16.5401 5.08382 16.3911C5.16424 16.324 5.22841 16.2395 5.27151 16.1441C5.31462 16.0486 5.33554 15.9447 5.33271 15.84V15.7955H4.3816V16.0444Z" fill="#565656"/>
<path d="M6.04457 15.5111L5.4668 16.5689H5.73346L5.84902 16.3467H6.5068L6.62235 16.5689H6.88902L6.31124 15.5111H6.04457ZM5.97346 16.1244L6.22235 15.7511L6.4268 16.1244H5.97346Z" fill="#565656"/>
<path d="M8.24024 15.8489C8.24123 15.803 8.2331 15.7574 8.21631 15.7146C8.19953 15.6719 8.17443 15.633 8.14246 15.6C8.06493 15.537 7.96663 15.5053 7.86691 15.5111H7.02246V16.5689H7.27135V16.1956H7.73357L8.00024 16.5689H8.28468L8.00024 16.1778C8.07055 16.1576 8.13183 16.114 8.17388 16.0542C8.21593 15.9943 8.23621 15.9219 8.23135 15.8489M7.84024 16H7.27135V15.7333H7.82246C7.97357 15.7333 7.99135 15.8044 7.99135 15.8578C7.99135 15.9111 8.00024 16 7.84024 16Z" fill="#565656"/>
<path d="M9.70616 15.5111H9.46616V16.1689C9.46616 16.3022 9.34171 16.3733 9.09283 16.3733C8.84394 16.3733 8.72838 16.3022 8.72838 16.1689V15.5111H8.47949V16.2133C8.48151 16.271 8.4991 16.3271 8.5304 16.3756C8.5617 16.4241 8.60554 16.4633 8.65727 16.4889C8.78913 16.5657 8.94039 16.6027 9.09283 16.5956C9.24819 16.604 9.40265 16.5669 9.53727 16.4889C9.58796 16.4628 9.63052 16.4234 9.6603 16.3748C9.69009 16.3262 9.70595 16.2703 9.70616 16.2133V15.5111Z" fill="#565656"/>
<path d="M10.9511 16.5244C11.0108 16.5036 11.0653 16.4703 11.1111 16.4267C11.2198 16.3213 11.2835 16.1779 11.2889 16.0267C11.2913 15.9556 11.2774 15.885 11.2481 15.8203C11.2188 15.7555 11.175 15.6984 11.12 15.6533C10.9946 15.5524 10.8362 15.5018 10.6756 15.5111H10V16.5689H10.7111C10.793 16.567 10.874 16.552 10.9511 16.5244ZM10.24 15.7333H10.6667C10.754 15.7279 10.8401 15.7566 10.9067 15.8133C10.9381 15.8429 10.9631 15.8788 10.9799 15.9186C10.9967 15.9584 11.0051 16.0012 11.0044 16.0444C11.0066 16.0844 10.9997 16.1243 10.9843 16.1612C10.9689 16.1982 10.9454 16.2312 10.9156 16.2578C10.8549 16.3126 10.775 16.3414 10.6933 16.3378H10.2133L10.24 15.7333Z" fill="#565656"/>
<path d="M12.1951 15.5111H11.9196L11.3418 16.5689H11.6174L11.7329 16.3467H12.3818L12.4974 16.5689H12.7729L12.1951 15.5111ZM11.8574 16.1244L12.0618 15.7511L12.2574 16.1244H11.8574Z" fill="#565656"/>
<path d="M15.3776 16.5689V15.1555H15.1109L14.4621 15.9644L13.8132 15.1555H13.4932V16.5689H13.7687V15.4844L14.4621 16.3733L15.1465 15.4844V16.5689H15.3776Z" fill="#565656"/>
<path d="M16.0001 16.1244H16.5956V15.9022H16.0001V15.7333H16.889V15.5111H15.7334V16.5689H16.889V16.3378H16.0001V16.1244Z" fill="#565656"/>
<path d="M17.4312 16.5689H17.6801V15.7333H18.1601V15.5111H16.9512V15.7333H17.4312V16.5689Z" fill="#565656"/>
<path d="M18.7379 15.5111L18.1602 16.5689H18.4357L18.5513 16.3467H19.2002L19.3157 16.5689H19.5557L18.9779 15.5111H18.7379ZM18.6757 16.1244L18.8802 15.7511L19.0757 16.1244H18.6757Z" fill="#565656"/>
<path d="M20.7468 16.3378H19.9646V15.5111H19.7246V16.5689H20.7468V16.3378Z" fill="#565656"/>
<path d="M21.1639 15.5111H20.915V16.5689H21.1639V15.5111Z" fill="#565656"/>
<path d="M22.4447 16.3111L21.7869 15.5111H21.458V16.5689H21.7069V15.7689L22.3558 16.5689H22.6847V15.5111H22.4447V16.3111Z" fill="#565656"/>
<path d="M24.2752 16C24.2777 15.929 24.2637 15.8583 24.2344 15.7936C24.2051 15.7288 24.1613 15.6717 24.1063 15.6267C23.9814 15.525 23.8227 15.4742 23.6619 15.4844H22.9863V16.5422H23.6974C23.7794 16.5412 23.8606 16.5261 23.9374 16.4978C23.9981 16.479 24.0531 16.4454 24.0974 16.4C24.2061 16.2946 24.2698 16.1513 24.2752 16ZM23.9285 16.2311C23.8991 16.2591 23.8641 16.2807 23.8258 16.2945C23.7876 16.3082 23.7469 16.3139 23.7063 16.3111H23.2263V15.7333H23.6797C23.7694 15.7299 23.8576 15.7582 23.9285 15.8133C23.9588 15.8434 23.9824 15.8795 23.9978 15.9194C24.0131 15.9592 24.0198 16.0018 24.0174 16.0444C24.0196 16.0844 24.0127 16.1243 23.9973 16.1612C23.9819 16.1982 23.9584 16.2312 23.9285 16.2578" fill="#565656"/>
<path d="M24.6574 16.4622C24.7986 16.5505 24.9619 16.5973 25.1285 16.5973C25.2951 16.5973 25.4583 16.5505 25.5996 16.4622C25.667 16.413 25.7221 16.3488 25.7606 16.2748C25.7992 16.2008 25.8201 16.1189 25.8218 16.0355C25.8214 15.9521 25.8 15.8701 25.7596 15.7971C25.7192 15.7241 25.6611 15.6624 25.5907 15.6177C25.4579 15.5331 25.3037 15.4881 25.1463 15.4881C24.9888 15.4881 24.8346 15.5331 24.7018 15.6177C24.6314 15.6624 24.5733 15.7241 24.5329 15.7971C24.4925 15.8701 24.4711 15.9521 24.4707 16.0355C24.471 16.1192 24.4913 16.2016 24.53 16.2758C24.5687 16.3501 24.6245 16.414 24.6929 16.4622M24.844 15.7955C24.9384 15.7313 25.0499 15.697 25.164 15.697C25.2782 15.697 25.3897 15.7313 25.484 15.7955C25.5194 15.8247 25.5479 15.8614 25.5675 15.9028C25.587 15.9443 25.5972 15.9896 25.5972 16.0355C25.5972 16.0814 25.587 16.1267 25.5675 16.1682C25.5479 16.2097 25.5194 16.2463 25.484 16.2755C25.3897 16.3397 25.2782 16.374 25.164 16.374C25.0499 16.374 24.9384 16.3397 24.844 16.2755C24.8055 16.2484 24.7741 16.2125 24.7524 16.1707C24.7307 16.129 24.7194 16.0826 24.7194 16.0355C24.7194 15.9884 24.7307 15.9421 24.7524 15.9003C24.7741 15.8585 24.8055 15.8226 24.844 15.7955Z" fill="#565656"/>
<path d="M26.72 14.6666L25.3955 14.8888C26.72 14.8888 27.12 15.1644 27.2177 15.3866C27.2177 15.3866 27.6355 14.9155 26.72 14.6666Z" fill="#E2071E"/>
<path d="M27.9815 14.5155C27.6704 14.5155 27.2082 14.5955 26.7549 14.6666C27.6438 14.9155 27.2527 15.3866 27.2527 15.3866L28.1415 14.4977H27.9993" fill="#A8192D"/>
<path d="M28.4442 14.2222V14.1689C28.3558 14.1555 28.2659 14.1555 28.1775 14.1689H28.062C27.2708 14.2222 25.502 14.5422 25.502 14.5422C25.9236 14.5448 26.3438 14.5925 26.7553 14.6844C27.2086 14.6133 27.6442 14.5511 27.982 14.5333H28.1597L28.222 14.48L28.2842 14.4178L28.4442 14.2222Z" fill="#E2071E"/>
<path d="M28.3727 14.5333C28.3019 14.5233 28.2301 14.5233 28.1593 14.5333L27.2704 15.4222C27.2885 15.4848 27.2907 15.5509 27.2767 15.6146C27.2627 15.6782 27.2331 15.7374 27.1904 15.7866L28.1593 14.8977L28.2304 14.8355C28.2304 14.7911 28.3549 14.7111 28.426 14.64C28.426 14.64 28.4971 14.5689 28.426 14.64" fill="#E20521"/>
</g>
<defs>
<clipPath id="clip0_2707_359253">
<rect width="32" height="32" fill="white"/>
</clipPath>
</defs>
</svg>
