<svg width="32" height="32" viewBox="0 0 32 32" fill="none" xmlns="http://www.w3.org/2000/svg">
<g clip-path="url(#clip0_2707_358578)">
<path d="M16 32C24.8366 32 32 24.8366 32 16C32 7.16344 24.8366 0 16 0C7.16344 0 0 7.16344 0 16C0 24.8366 7.16344 32 16 32Z" fill="white"/>
<path d="M16.0003 29.3333C23.3641 29.3333 29.3337 23.3638 29.3337 16C29.3337 8.63619 23.3641 2.66666 16.0003 2.66666C8.63653 2.66666 2.66699 8.63619 2.66699 16C2.66699 23.3638 8.63653 29.3333 16.0003 29.3333Z" fill="white"/>
<path d="M11.1911 10.9955H3.19105V17.3511C3.17854 17.93 3.35478 18.4972 3.69315 18.9671C4.03151 19.4369 4.51361 19.7839 5.06661 19.9555C5.53263 20.1237 5.98697 20.3227 6.42661 20.5511C6.52439 20.5955 6.60439 20.6489 6.68439 20.6933L6.81772 20.7733L6.92439 20.8533C7.03872 20.9226 7.13594 21.0168 7.20883 21.1289L7.51105 20.8444C8.08303 20.4692 8.70161 20.1704 9.35105 19.9555C9.89741 19.7776 10.3717 19.428 10.7032 18.9587C11.0348 18.4894 11.2059 17.9255 11.1911 17.3511V10.9955Z" fill="#446DBF"/>
<path d="M7.22639 14.7822C7.22639 15.5822 6.66639 16.0178 5.75972 16.0178H3.9375V11.6444H5.6175C6.50639 11.6444 7.09306 12.0533 7.09306 12.8356C7.09705 13.0246 7.04409 13.2104 6.94104 13.369C6.838 13.5275 6.68965 13.6513 6.51528 13.7244C6.73188 13.8007 6.91808 13.9449 7.0462 14.1354C7.17432 14.326 7.23751 14.5528 7.22639 14.7822ZM5.50194 13.44C5.9375 13.44 6.16861 13.2711 6.16861 12.9244C6.16861 12.5778 5.9375 12.4444 5.50194 12.4444H4.8175V13.4667L5.50194 13.44ZM4.8175 15.2178H5.62639C6.05306 15.2178 6.28417 15.0044 6.28417 14.6667C6.28417 14.3289 6.05306 14.1156 5.62639 14.1156H4.8175V15.2178Z" fill="white"/>
<path d="M8.46213 14.4978V16H7.57324V11.6445H9.35102C9.55048 11.618 9.7533 11.6359 9.94507 11.6968C10.1368 11.7577 10.3128 11.8601 10.4605 11.9967C10.6082 12.1334 10.7239 12.3009 10.7995 12.4874C10.875 12.6738 10.9086 12.8747 10.8977 13.0756C10.9072 13.2757 10.8727 13.4756 10.7965 13.6609C10.7204 13.8463 10.6044 14.0127 10.4569 14.1483C10.3094 14.284 10.1339 14.3856 9.9428 14.446C9.75171 14.5064 9.5497 14.524 9.35102 14.4978H8.46213ZM9.11991 12.4445H8.46213V13.7511H9.11991C9.2121 13.7619 9.30554 13.753 9.39406 13.7251C9.48259 13.6972 9.5642 13.6509 9.63354 13.5892C9.70288 13.5274 9.75838 13.4518 9.79638 13.3671C9.83438 13.2824 9.85402 13.1906 9.85402 13.0978C9.85402 13.005 9.83438 12.9132 9.79638 12.8285C9.75838 12.7438 9.70288 12.6681 9.63354 12.6064C9.5642 12.5447 9.48259 12.4984 9.39406 12.4705C9.30554 12.4425 9.2121 12.4337 9.11991 12.4445Z" fill="white"/>
<path d="M4.90527 16.2655H5.24863C5.3166 16.2655 5.36719 16.2684 5.40039 16.2743C5.43398 16.2797 5.46387 16.2914 5.49004 16.3094C5.5166 16.3274 5.53867 16.3514 5.55625 16.3815C5.57383 16.4112 5.58262 16.4446 5.58262 16.4817C5.58262 16.5219 5.57168 16.5588 5.5498 16.5924C5.52832 16.626 5.49902 16.6512 5.46191 16.668C5.51426 16.6832 5.55449 16.7092 5.58262 16.7459C5.61074 16.7827 5.6248 16.8258 5.6248 16.8754C5.6248 16.9145 5.61563 16.9526 5.59727 16.9897C5.5793 17.0264 5.55449 17.0559 5.52285 17.0782C5.4916 17.1 5.45293 17.1135 5.40684 17.1186C5.37793 17.1217 5.3082 17.1237 5.19766 17.1245H4.90527V16.2655ZM5.07871 16.4084V16.6071H5.19238C5.25996 16.6071 5.30195 16.6061 5.31836 16.6041C5.34805 16.6006 5.37129 16.5905 5.38809 16.5737C5.40527 16.5565 5.41387 16.534 5.41387 16.5063C5.41387 16.4797 5.40645 16.4582 5.3916 16.4418C5.37715 16.425 5.35547 16.4149 5.32656 16.4114C5.30938 16.4094 5.25996 16.4084 5.17832 16.4084H5.07871ZM5.07871 16.75V16.9797H5.23926C5.30176 16.9797 5.34141 16.978 5.3582 16.9745C5.38398 16.9698 5.40488 16.9584 5.4209 16.9405C5.4373 16.9221 5.44551 16.8977 5.44551 16.8672C5.44551 16.8414 5.43926 16.8196 5.42676 16.8016C5.41426 16.7836 5.39609 16.7705 5.37227 16.7623C5.34883 16.7541 5.29766 16.75 5.21875 16.75H5.07871Z" fill="white"/>
<path d="M6.25742 17.1245H6.06875L5.99375 16.9293H5.65039L5.57949 17.1245H5.39551L5.73008 16.2655H5.91348L6.25742 17.1245ZM5.93809 16.7846L5.81973 16.4659L5.70371 16.7846H5.93809Z" fill="white"/>
<path d="M6.24453 17.1245V16.4108H5.98965V16.2655H6.67227V16.4108H6.41797V17.1245H6.24453Z" fill="white"/>
<path d="M7.27891 17.1245H7.09023L7.01523 16.9293H6.67188L6.60098 17.1245H6.41699L6.75156 16.2655H6.93496L7.27891 17.1245ZM6.95957 16.7846L6.84121 16.4659L6.7252 16.7846H6.95957Z" fill="white"/>
<path d="M8.87949 17.1245H8.69082L8.61582 16.9293H8.27246L8.20156 17.1245H8.01758L8.35215 16.2655H8.53555L8.87949 17.1245ZM8.56016 16.7846L8.4418 16.4659L8.32578 16.7846H8.56016Z" fill="white"/>
<path d="M3.51797 18.0934V17.2344H3.79629C3.90176 17.2344 3.97051 17.2387 4.00254 17.2473C4.05176 17.2602 4.09297 17.2883 4.12617 17.3316C4.15938 17.3746 4.17598 17.4303 4.17598 17.4986C4.17598 17.5514 4.16641 17.5957 4.14727 17.6316C4.12813 17.6676 4.10371 17.6959 4.07402 17.7166C4.04473 17.7369 4.01484 17.7504 3.98438 17.757C3.94297 17.7652 3.88301 17.7693 3.80449 17.7693H3.69141V18.0934H3.51797ZM3.69141 17.3797V17.6234H3.78633C3.85469 17.6234 3.90039 17.6189 3.92344 17.61C3.94648 17.601 3.96445 17.5869 3.97734 17.5678C3.99063 17.5486 3.99727 17.5264 3.99727 17.501C3.99727 17.4697 3.98809 17.4439 3.96973 17.4236C3.95137 17.4033 3.92813 17.3906 3.9 17.3855C3.8793 17.3816 3.8377 17.3797 3.7752 17.3797H3.69141Z" fill="white"/>
<path d="M4.07813 18.0934V17.2344H4.44316C4.53496 17.2344 4.60156 17.2422 4.64297 17.2578C4.68477 17.273 4.71816 17.3004 4.74316 17.3398C4.76816 17.3793 4.78066 17.4244 4.78066 17.4752C4.78066 17.5396 4.76172 17.593 4.72383 17.6352C4.68594 17.6769 4.6293 17.7033 4.55391 17.7143C4.59141 17.7361 4.62227 17.7602 4.64648 17.7863C4.67109 17.8125 4.7041 17.859 4.74551 17.9258L4.85039 18.0934H4.64297L4.51758 17.9064C4.47305 17.8396 4.44258 17.7977 4.42617 17.7805C4.40977 17.7629 4.39238 17.751 4.37402 17.7447C4.35566 17.7381 4.32656 17.7348 4.28672 17.7348H4.25156V18.0934H4.07813ZM4.25156 17.5977H4.37988C4.46309 17.5977 4.51504 17.5941 4.53574 17.5871C4.55645 17.5801 4.57266 17.568 4.58438 17.5508C4.59609 17.5336 4.60195 17.5121 4.60195 17.4863C4.60195 17.4574 4.59414 17.4342 4.57852 17.4166C4.56328 17.3986 4.5416 17.3873 4.51348 17.3826C4.49941 17.3807 4.45723 17.3797 4.38691 17.3797H4.25156V17.5977Z" fill="white"/>
<path d="M4.62051 17.6691C4.62051 17.5816 4.63359 17.5082 4.65977 17.4488C4.6793 17.4051 4.70586 17.3658 4.73945 17.331C4.77344 17.2963 4.81055 17.2705 4.85078 17.2537C4.9043 17.231 4.96602 17.2197 5.03594 17.2197C5.1625 17.2197 5.26367 17.259 5.33945 17.3375C5.41563 17.416 5.45371 17.5252 5.45371 17.665C5.45371 17.8037 5.41602 17.9123 5.34063 17.9908C5.26523 18.0689 5.16445 18.108 5.03828 18.108C4.91055 18.108 4.80898 18.0691 4.73359 17.9914C4.6582 17.9133 4.62051 17.8059 4.62051 17.6691ZM4.79922 17.6633C4.79922 17.7605 4.82168 17.8344 4.8666 17.8848C4.91152 17.9348 4.96855 17.9598 5.0377 17.9598C5.10684 17.9598 5.16348 17.935 5.20762 17.8853C5.25215 17.8353 5.27441 17.7605 5.27441 17.6609C5.27441 17.5625 5.25273 17.4891 5.20938 17.4406C5.16641 17.3922 5.10918 17.368 5.0377 17.368C4.96621 17.368 4.90859 17.3926 4.86484 17.4418C4.82109 17.4906 4.79922 17.5644 4.79922 17.6633ZM5.5457 17.8139L5.71445 17.7975C5.72461 17.8541 5.74512 17.8957 5.77598 17.9223C5.80723 17.9488 5.84922 17.9621 5.90195 17.9621C5.95781 17.9621 5.9998 17.9504 6.02793 17.9269C6.05645 17.9031 6.0707 17.8754 6.0707 17.8437C6.0707 17.8234 6.06465 17.8062 6.05254 17.7922C6.04082 17.7777 6.02012 17.7652 5.99043 17.7547C5.97012 17.7477 5.92383 17.7352 5.85156 17.7172C5.75859 17.6941 5.69336 17.6658 5.65586 17.6322C5.60313 17.585 5.57676 17.5273 5.57676 17.4594C5.57676 17.4156 5.58906 17.3748 5.61367 17.3369C5.63867 17.2986 5.67441 17.2695 5.7209 17.2496C5.76777 17.2297 5.82422 17.2197 5.89023 17.2197C5.99805 17.2197 6.0791 17.2434 6.1334 17.2906C6.18809 17.3379 6.2168 17.401 6.21953 17.4799L6.04609 17.4875C6.03867 17.4434 6.02266 17.4117 5.99805 17.3926C5.97383 17.373 5.9373 17.3633 5.88848 17.3633C5.83809 17.3633 5.79863 17.3736 5.77012 17.3943C5.75176 17.4076 5.74258 17.4254 5.74258 17.4477C5.74258 17.468 5.75117 17.4853 5.76836 17.4998C5.79023 17.5182 5.84336 17.5373 5.92773 17.5572C6.01211 17.5771 6.07441 17.5978 6.11465 17.6193C6.15527 17.6404 6.18691 17.6695 6.20957 17.7066C6.23262 17.7434 6.24414 17.7889 6.24414 17.8432C6.24414 17.8924 6.23047 17.9385 6.20313 17.9814C6.17578 18.0244 6.13711 18.0564 6.08711 18.0775C6.03711 18.0982 5.9748 18.1086 5.9002 18.1086C5.7916 18.1086 5.7082 18.0836 5.65 18.0336C5.5918 17.9832 5.55703 17.91 5.5457 17.8139ZM6.39004 18.0934V17.2344H6.66836C6.77383 17.2344 6.84258 17.2387 6.87461 17.2473C6.92383 17.2602 6.96504 17.2883 6.99824 17.3316C7.03145 17.3746 7.04805 17.4303 7.04805 17.4986C7.04805 17.5514 7.03848 17.5957 7.01934 17.6316C7.0002 17.6676 6.97578 17.6959 6.94609 17.7166C6.9168 17.7369 6.88691 17.7504 6.85645 17.757C6.81504 17.7652 6.75508 17.7693 6.67656 17.7693H6.56348V18.0934H6.39004ZM6.56348 17.3797V17.6234H6.6584C6.72676 17.6234 6.77246 17.6189 6.79551 17.61C6.81855 17.601 6.83652 17.5869 6.84941 17.5678C6.8627 17.5486 6.86934 17.5264 6.86934 17.501C6.86934 17.4697 6.86016 17.4439 6.8418 17.4236C6.82344 17.4033 6.8002 17.3906 6.77207 17.3855C6.75137 17.3816 6.70977 17.3797 6.64727 17.3797H6.56348ZM7.19043 18.0934V17.2344H7.82734V17.3797H7.36387V17.5701H7.79512V17.7148H7.36387V17.9486H7.84375V18.0934H7.19043ZM7.99141 18.0934V17.2344H8.35645C8.44824 17.2344 8.51484 17.2422 8.55625 17.2578C8.59805 17.273 8.63145 17.3004 8.65645 17.3398C8.68145 17.3793 8.69395 17.4244 8.69395 17.4752C8.69395 17.5396 8.675 17.593 8.63711 17.6352C8.59922 17.6769 8.54258 17.7033 8.46719 17.7143C8.50469 17.7361 8.53555 17.7602 8.55977 17.7863C8.58438 17.8125 8.61738 17.859 8.65879 17.9258L8.76367 18.0934H8.55625L8.43086 17.9064C8.38633 17.8396 8.35586 17.7977 8.33945 17.7805C8.32305 17.7629 8.30566 17.751 8.2873 17.7447C8.26895 17.7381 8.23984 17.7348 8.2 17.7348H8.16484V18.0934H7.99141ZM8.16484 17.5977H8.29316C8.37637 17.5977 8.42832 17.5941 8.44902 17.5871C8.46973 17.5801 8.48594 17.568 8.49766 17.5508C8.50938 17.5336 8.51523 17.5121 8.51523 17.4863C8.51523 17.4574 8.50742 17.4342 8.4918 17.4166C8.47656 17.3986 8.45488 17.3873 8.42676 17.3826C8.4127 17.3807 8.37051 17.3797 8.3002 17.3797H8.16484V17.5977ZM8.85273 18.0934V17.2344H9.02617V18.0934H8.85273ZM4.65742 19.0934V18.2344H4.82617L5.17773 18.808V18.2344H5.33887V19.0934H5.16484L4.81855 18.5332V19.0934H4.65742ZM5.52227 18.2344H5.83926C5.91074 18.2344 5.96523 18.2398 6.00273 18.2508C6.05313 18.2656 6.09629 18.292 6.13223 18.3299C6.16816 18.3678 6.19551 18.4143 6.21426 18.4693C6.23301 18.524 6.24238 18.5916 6.24238 18.6721C6.24238 18.7428 6.23359 18.8037 6.21602 18.8549C6.19453 18.9174 6.16387 18.968 6.12402 19.0066C6.09395 19.0359 6.05332 19.0588 6.00215 19.0752C5.96387 19.0873 5.9127 19.0934 5.84863 19.0934H5.52227V18.2344ZM5.6957 18.3797V18.9486H5.8252C5.87363 18.9486 5.90859 18.9459 5.93008 18.9404C5.9582 18.9334 5.98145 18.9215 5.9998 18.9047C6.01855 18.8879 6.03379 18.8603 6.04551 18.8221C6.05723 18.7834 6.06309 18.7309 6.06309 18.6644C6.06309 18.598 6.05723 18.5471 6.04551 18.5115C6.03379 18.476 6.01738 18.4482 5.99629 18.4283C5.9752 18.4084 5.94844 18.3949 5.91602 18.3879C5.8918 18.3824 5.84434 18.3797 5.77363 18.3797H5.6957ZM6.35488 18.6691C6.35488 18.5816 6.36797 18.5082 6.39414 18.4488C6.41367 18.4051 6.44023 18.3658 6.47383 18.331C6.50781 18.2963 6.54492 18.2705 6.58516 18.2537C6.63867 18.231 6.70039 18.2197 6.77031 18.2197C6.89688 18.2197 6.99805 18.259 7.07383 18.3375C7.15 18.416 7.18809 18.5252 7.18809 18.665C7.18809 18.8037 7.15039 18.9123 7.075 18.9908C6.99961 19.0689 6.89883 19.108 6.77266 19.108C6.64492 19.108 6.54336 19.0691 6.46797 18.9914C6.39258 18.9133 6.35488 18.8059 6.35488 18.6691ZM6.53359 18.6633C6.53359 18.7605 6.55605 18.8344 6.60098 18.8848C6.6459 18.9348 6.70293 18.9598 6.77207 18.9598C6.84121 18.9598 6.89785 18.935 6.94199 18.8853C6.98652 18.8353 7.00879 18.7605 7.00879 18.6609C7.00879 18.5625 6.98711 18.4891 6.94375 18.4406C6.90078 18.3922 6.84355 18.368 6.77207 18.368C6.70059 18.368 6.64297 18.3926 6.59922 18.4418C6.55547 18.4906 6.53359 18.5644 6.53359 18.6633Z" fill="white"/>
<path d="M13.3869 13.1822C13.3869 13.4578 13.1913 13.6089 12.8713 13.6089H12.2402V12.08H12.8269C13.138 12.08 13.3425 12.2222 13.3425 12.4978C13.347 12.5659 13.3296 12.6338 13.2928 12.6914C13.256 12.7489 13.2018 12.7932 13.138 12.8178C13.2128 12.8442 13.2773 12.8937 13.3221 12.9593C13.3668 13.0248 13.3895 13.1029 13.3869 13.1822ZM12.8002 12.7111C12.9513 12.7111 13.0313 12.6489 13.0313 12.5244C13.0313 12.4 12.9513 12.3467 12.8002 12.3467H12.5425V12.7111H12.8002ZM12.5425 13.3422H12.8447C12.9958 13.3422 13.0758 13.2711 13.0758 13.1467C13.0758 13.0222 12.9958 12.96 12.8447 12.96H12.5425V13.3422Z" fill="#231F20"/>
<path d="M14.3735 12.08L14.9601 13.6089H14.6312L14.4979 13.2444H13.9201L13.7868 13.6089H13.4668L14.0535 12.08H14.3735ZM14.0268 12.9689H14.4001L14.2224 12.4444L14.0268 12.9689Z" fill="#231F20"/>
<path d="M14.9062 12.08H16.2129V12.3555H15.7151V13.6089H15.3951V12.3555H14.9062V12.08Z" fill="#231F20"/>
<path d="M17.0579 12.08L17.6446 13.6089H17.3246L17.1824 13.2444H16.6135L16.4802 13.6089H16.1602L16.7468 12.08H17.0579ZM16.7113 12.9689H17.0846L16.889 12.4444L16.7113 12.9689Z" fill="#231F20"/>
<path d="M18.1422 13.6089L17.5645 12.08H17.9022L18.3022 13.1911L18.6667 12.08H18.9956L18.4178 13.6089H18.1422Z" fill="#231F20"/>
<path d="M19.5554 13.6089H19.2354V12.08H19.5554V13.6089Z" fill="#231F20"/>
<path d="M20.6137 12.08L21.2004 13.6089H20.8715L20.7381 13.2444H20.1693L20.027 13.6089H19.707L20.2937 12.08H20.6137ZM20.267 12.9689H20.6404L20.4448 12.4444L20.267 12.9689Z" fill="#231F20"/>
<path d="M12.5513 16.3911V16.8889H12.2402V15.3956H12.8625C12.934 15.386 13.0068 15.3919 13.0759 15.4127C13.145 15.4336 13.2089 15.469 13.2632 15.5166C13.3175 15.5641 13.361 15.6227 13.3908 15.6885C13.4207 15.7542 13.4361 15.8256 13.4361 15.8978C13.4361 15.97 13.4207 16.0413 13.3908 16.1071C13.361 16.1728 13.3175 16.2314 13.2632 16.279C13.2089 16.3265 13.145 16.3619 13.0759 16.3828C13.0068 16.4037 12.934 16.4095 12.8625 16.4L12.5513 16.3911ZM12.8447 15.6622H12.5513V16.1244H12.8447C12.875 16.1244 12.9051 16.1185 12.9331 16.1069C12.9612 16.0952 12.9866 16.0782 13.0081 16.0568C13.0296 16.0353 13.0466 16.0098 13.0582 15.9818C13.0698 15.9537 13.0758 15.9237 13.0758 15.8933C13.0758 15.863 13.0698 15.8329 13.0582 15.8049C13.0466 15.7769 13.0296 15.7514 13.0081 15.7299C12.9866 15.7085 12.9612 15.6914 12.9331 15.6798C12.9051 15.6682 12.875 15.6622 12.8447 15.6622Z" fill="#231F20"/>
<path d="M13.8668 16.3556V16.8889H13.5557V15.3956H14.2223C14.2907 15.3864 14.3603 15.3923 14.4262 15.413C14.492 15.4337 14.5525 15.4685 14.6034 15.5152C14.6543 15.5618 14.6943 15.6191 14.7206 15.6829C14.7469 15.7467 14.7589 15.8155 14.7557 15.8844C14.7621 15.9891 14.7306 16.0925 14.6669 16.1758C14.6032 16.2591 14.5117 16.3166 14.409 16.3378L14.809 16.9244H14.4534L14.0712 16.3556H13.8668ZM13.8668 16.0889H14.1601C14.3201 16.0889 14.409 16.0089 14.409 15.8844C14.4092 15.8529 14.4027 15.8216 14.3899 15.7928C14.3771 15.7639 14.3583 15.7381 14.3348 15.7171C14.3112 15.696 14.2835 15.6803 14.2534 15.6708C14.2232 15.6614 14.1914 15.6584 14.1601 15.6622H13.8668V16.0889Z" fill="#231F20"/>
<path d="M15.5467 16.9511C15.3882 16.9636 15.2296 16.9281 15.0915 16.8491C14.9535 16.7701 14.8425 16.6514 14.773 16.5083C14.7035 16.3653 14.6786 16.2047 14.7018 16.0474C14.7249 15.89 14.7949 15.7433 14.9027 15.6264C15.0104 15.5095 15.1509 15.4277 15.3058 15.3918C15.4607 15.3559 15.6228 15.3675 15.7711 15.4251C15.9193 15.4827 16.0467 15.5836 16.1367 15.7147C16.2267 15.8458 16.2751 16.001 16.2756 16.16C16.2829 16.2605 16.2695 16.3615 16.2362 16.4566C16.203 16.5518 16.1506 16.6391 16.0823 16.7133C16.014 16.7874 15.9313 16.8468 15.8391 16.8877C15.747 16.9286 15.6475 16.9502 15.5467 16.9511ZM15.5467 15.6533C15.2978 15.6533 15.1467 15.8578 15.1467 16.16C15.1467 16.4622 15.2978 16.6667 15.5467 16.6667C15.7956 16.6667 15.9467 16.4622 15.9467 16.16C15.9467 15.8578 15.7867 15.6533 15.5467 15.6533Z" fill="#231F20"/>
<path d="M16.658 16.4889C16.6781 16.5513 16.7192 16.6049 16.7742 16.6406C16.8293 16.6762 16.895 16.6917 16.9602 16.6844C17.1113 16.6844 17.218 16.6133 17.218 16.4978C17.218 16.3822 17.1647 16.3556 17.0313 16.32L16.7558 16.2578C16.6497 16.251 16.5501 16.204 16.4774 16.1264C16.4048 16.0487 16.3644 15.9463 16.3647 15.84C16.3679 15.7722 16.385 15.7057 16.4149 15.6447C16.4447 15.5837 16.4868 15.5295 16.5384 15.4854C16.59 15.4412 16.6502 15.4081 16.715 15.3881C16.7799 15.3681 16.8483 15.3615 16.9158 15.3689C17.054 15.353 17.1932 15.3899 17.3053 15.4724C17.4174 15.5548 17.4942 15.6766 17.5202 15.8133H17.2002C17.1823 15.7556 17.1452 15.7056 17.0951 15.6717C17.0451 15.6378 16.9849 15.6219 16.9247 15.6267C16.7735 15.6267 16.6758 15.6978 16.6758 15.8133C16.6758 15.9289 16.738 15.9467 16.8535 15.9822L17.1291 16.0444C17.378 16.0978 17.5291 16.24 17.5291 16.4711C17.5291 16.7022 17.2891 16.9511 16.9602 16.9511C16.8162 16.9672 16.6714 16.9287 16.5545 16.843C16.4376 16.7574 16.3572 16.631 16.3291 16.4889H16.658Z" fill="#231F20"/>
<path d="M18.0085 16.3911V16.8889H17.6885V15.3956H18.3107C18.3823 15.386 18.455 15.3919 18.5241 15.4127C18.5932 15.4336 18.6571 15.469 18.7114 15.5166C18.7657 15.5641 18.8093 15.6227 18.8391 15.6885C18.8689 15.7542 18.8843 15.8256 18.8843 15.8978C18.8843 15.97 18.8689 16.0413 18.8391 16.1071C18.8093 16.1728 18.7657 16.2314 18.7114 16.279C18.6571 16.3265 18.5932 16.3619 18.5241 16.3828C18.455 16.4037 18.3823 16.4095 18.3107 16.4L18.0085 16.3911ZM18.2929 15.6622H18.0085V16.1244H18.2929C18.3233 16.1244 18.3533 16.1185 18.3814 16.1069C18.4094 16.0952 18.4349 16.0782 18.4563 16.0568C18.4778 16.0353 18.4948 16.0098 18.5064 15.9818C18.5181 15.9537 18.524 15.9237 18.524 15.8933C18.524 15.863 18.5181 15.8329 18.5064 15.8049C18.4948 15.7769 18.4778 15.7514 18.4563 15.7299C18.4349 15.7085 18.4094 15.6914 18.3814 15.6798C18.3533 15.6682 18.3233 15.6622 18.2929 15.6622Z" fill="#231F20"/>
<path d="M20.0538 15.3956V15.6711H19.3249V16H19.9827V16.2756H19.3249V16.64H20.0538V16.8889H19.0049V15.3956H20.0538Z" fill="#231F20"/>
<path d="M20.5514 16.3556V16.8889H20.2314V15.3956H20.8626C21.1914 15.3956 21.4048 15.5645 21.4048 15.8845C21.4112 15.9891 21.3797 16.0925 21.316 16.1758C21.2524 16.2591 21.1608 16.3166 21.0581 16.3378L21.4581 16.9245H21.1026L20.7203 16.3556H20.5514ZM20.5514 16.0889H20.8448C21.0048 16.0889 21.0937 16.0089 21.0937 15.8845C21.0939 15.8529 21.0874 15.8216 21.0746 15.7928C21.0618 15.7639 21.043 15.7381 21.0195 15.7171C20.9959 15.6961 20.9681 15.6803 20.938 15.6708C20.9079 15.6614 20.8761 15.6584 20.8448 15.6622H20.5514V16.0889Z" fill="#231F20"/>
<path d="M21.902 16.8889H21.582V15.3956H21.902V16.8889Z" fill="#231F20"/>
<path d="M23.4129 16.8889H23.1551L22.4351 15.8667V16.8889H22.124V15.3956H22.4262L23.1107 16.3645V15.3956H23.4218L23.4129 16.8889Z" fill="#231F20"/>
<path d="M23.6445 15.3956H24.1868C24.3895 15.3956 24.5839 15.4761 24.7273 15.6195C24.8707 15.7628 24.9512 15.9573 24.9512 16.16C24.9512 16.3628 24.8707 16.5572 24.7273 16.7006C24.5839 16.8439 24.3895 16.9245 24.1868 16.9245H23.6445V15.3956ZM24.169 16.6489C24.2986 16.6489 24.423 16.5974 24.5147 16.5057C24.6064 16.414 24.6579 16.2897 24.6579 16.16C24.6579 16.0304 24.6064 15.906 24.5147 15.8143C24.423 15.7226 24.2986 15.6711 24.169 15.6711H24.0001V16.6489H24.169Z" fill="#231F20"/>
<path d="M25.7781 16.9511C25.6196 16.9636 25.461 16.9281 25.323 16.8491C25.185 16.7701 25.074 16.6514 25.0044 16.5083C24.9349 16.3653 24.9101 16.2047 24.9332 16.0474C24.9564 15.89 25.0264 15.7433 25.1341 15.6264C25.2419 15.5095 25.3823 15.4277 25.5372 15.3918C25.6922 15.3559 25.8543 15.3675 26.0025 15.4251C26.1507 15.4827 26.2781 15.5836 26.3681 15.7147C26.4581 15.8458 26.5065 16.001 26.507 16.16C26.5157 16.2608 26.5032 16.3623 26.4705 16.4581C26.4377 16.5538 26.3854 16.6417 26.3168 16.7161C26.2483 16.7905 26.165 16.8499 26.0722 16.8903C25.9795 16.9308 25.8793 16.9515 25.7781 16.9511ZM25.7781 15.6533C25.5381 15.6533 25.3781 15.8578 25.3781 16.16C25.3781 16.4622 25.5381 16.6667 25.7781 16.6667C26.0181 16.6667 26.187 16.4622 26.187 16.16C26.187 15.8578 26.027 15.6533 25.7781 15.6533Z" fill="#231F20"/>
<path d="M28.8085 10.8533H11.8574V11.1733H28.8085V10.8533Z" fill="#231F20"/>
<path d="M28.8085 14.2489H11.8574V14.5689H28.8085V14.2489Z" fill="#231F20"/>
<path d="M28.8085 17.44H11.8574V17.76H28.8085V17.44Z" fill="#231F20"/>
<path d="M28.8085 20.6222H11.8574V20.9422H28.8085V20.6222Z" fill="#231F20"/>
<path d="M12.5602 20.1333H12.2402V18.5867H12.5602V20.1333Z" fill="#231F20"/>
<path d="M14.0888 20.1333H13.831L13.1021 19.1022V20.1333H12.791V18.5867H13.0932L13.7777 19.5556V18.5778H14.0888V20.1333Z" fill="#231F20"/>
<path d="M14.2227 18.5867H15.5471V18.8711H15.0404V20.1333H14.7204V18.8711H14.2227V18.5867Z" fill="#231F20"/>
<path d="M16.7648 18.5867V18.8711H16.0004V19.2089H16.667V19.4844H16.0004V19.8489H16.7381V20.1333H15.707V18.5867H16.7648Z" fill="#231F20"/>
<path d="M17.2712 19.5556V20.1333H16.9512V18.5867H17.5823C17.9112 18.5867 18.1245 18.7556 18.1245 19.0756C18.1379 19.1845 18.1096 19.2945 18.0453 19.3835C17.981 19.4725 17.8855 19.534 17.7778 19.5556L18.1867 20.1511H17.8223L17.4401 19.5556H17.2712ZM17.2712 19.2889H17.5645C17.7245 19.2889 17.8045 19.2089 17.8045 19.0756C17.8045 18.9422 17.7245 18.8622 17.5645 18.8622H17.2712V19.2889Z" fill="#231F20"/>
<path d="M19.5995 20.1333H19.3418L18.6129 19.1022V20.1333H18.3018V18.5867H18.604L19.2884 19.5556V18.5778H19.5995V20.1333Z" fill="#231F20"/>
<path d="M20.6313 18.5867L21.2268 20.1333H20.9068L20.7646 19.76H20.1779L20.0446 20.1333H19.7246L20.3113 18.5867H20.6313ZM20.2846 19.4756H20.6579L20.4446 18.9689L20.2846 19.4756Z" fill="#231F20"/>
<path d="M21.5643 19.6889C21.5828 19.753 21.6231 19.8086 21.6784 19.8459C21.7336 19.8833 21.8002 19.9001 21.8666 19.8933C22.0266 19.8933 22.1332 19.8222 22.1332 19.6978C22.1332 19.5733 22.071 19.5555 21.9377 19.52L21.6621 19.4578C21.556 19.451 21.4565 19.404 21.3838 19.3264C21.3111 19.2487 21.2708 19.1463 21.271 19.04C21.2729 18.9705 21.2894 18.9023 21.3193 18.8396C21.3492 18.7769 21.3919 18.7211 21.4446 18.6759C21.4974 18.6307 21.559 18.597 21.6256 18.5771C21.6921 18.5571 21.7621 18.5513 21.831 18.56C21.9702 18.5465 22.1094 18.5855 22.2212 18.6694C22.3331 18.7532 22.4095 18.8759 22.4355 19.0133H22.1155C22.0958 18.9549 22.057 18.9047 22.0055 18.8708C21.9539 18.837 21.8925 18.8214 21.831 18.8267C21.6799 18.8267 21.5821 18.8978 21.5821 19.0044C21.5821 19.1111 21.6443 19.1467 21.7599 19.1733L22.0443 19.2444C22.1536 19.2534 22.2554 19.3032 22.3296 19.3839C22.4037 19.4647 22.4447 19.5704 22.4443 19.68C22.4412 19.7498 22.4236 19.8183 22.3928 19.881C22.3619 19.9437 22.3184 19.9994 22.2649 20.0445C22.2115 20.0895 22.1493 20.1231 22.0823 20.143C22.0152 20.1629 21.9448 20.1686 21.8755 20.16C21.7277 20.1785 21.5784 20.1401 21.458 20.0526C21.3375 19.9651 21.2547 19.8351 21.2266 19.6889H21.5643Z" fill="#231F20"/>
<path d="M22.9333 20.1333H22.6133V18.5867H22.9333V20.1333Z" fill="#231F20"/>
<path d="M23.8223 20.16C23.6618 20.1743 23.5007 20.1399 23.3602 20.0611C23.2196 19.9823 23.1061 19.863 23.0345 19.7186C22.9629 19.5743 22.9366 19.4117 22.9589 19.2521C22.9813 19.0926 23.0513 18.9435 23.1598 18.8244C23.2683 18.7053 23.4103 18.6217 23.5671 18.5846C23.7239 18.5476 23.8882 18.5587 24.0386 18.6166C24.189 18.6745 24.3183 18.7764 24.4098 18.9091C24.5013 19.0417 24.5505 19.1989 24.5512 19.36C24.5597 19.4612 24.5473 19.5632 24.5146 19.6594C24.482 19.7556 24.4298 19.844 24.3614 19.9191C24.293 19.9942 24.2097 20.0544 24.117 20.0959C24.0242 20.1373 23.9239 20.1591 23.8223 20.16ZM23.8223 18.8445C23.5734 18.8445 23.4134 19.0578 23.4134 19.36C23.4134 19.6622 23.5734 19.8756 23.8223 19.8756C24.0712 19.8756 24.2312 19.6622 24.2312 19.36C24.2312 19.0578 24.0623 18.8445 23.8223 18.8445Z" fill="#231F20"/>
<path d="M26.0087 20.1333H25.7776L25.0487 19.1022V20.1333H24.7109V18.5867H25.0132L25.6976 19.5644V18.5867H26.0087V20.1333Z" fill="#231F20"/>
<path d="M27.0493 18.5867L27.6449 20.1333H27.316L27.1738 19.76H26.596L26.4538 20.1333H26.1338L26.7293 18.5867H27.0493ZM26.6938 19.4756H27.0671L26.8805 18.96L26.6938 19.4756Z" fill="#231F20"/>
<path d="M27.7598 18.5867H28.0887V19.8489H28.8087V20.1333H27.7598V18.5867Z" fill="#231F20"/>
</g>
<defs>
<clipPath id="clip0_2707_358578">
<rect width="32" height="32" fill="white"/>
</clipPath>
</defs>
</svg>
