<svg width="32" height="32" viewBox="0 0 32 32" fill="none" xmlns="http://www.w3.org/2000/svg">
<g clip-path="url(#clip0_2707_357823)">
<path d="M15.9998 31.9822C24.8265 31.9822 31.982 24.8267 31.982 16C31.982 7.17326 24.8265 0.0177765 15.9998 0.0177765C7.17306 0.0177765 0.0175781 7.17326 0.0175781 16C0.0175781 24.8267 7.17306 31.9822 15.9998 31.9822Z" fill="white"/>
<path d="M9.95569 11.0489C10.5512 11.0085 11.1494 11.0504 11.7335 11.1733V12.0622C11.3125 11.972 10.8839 11.9214 10.4535 11.9111C10.3024 11.9111 10.1157 11.9733 10.0712 12.1333C10.0268 12.2933 10.1601 12.3289 10.249 12.3644C10.6046 12.5067 10.9957 12.5156 11.3424 12.6667C11.488 12.719 11.6185 12.8063 11.7224 12.9211C11.8263 13.0358 11.9003 13.1743 11.9379 13.3244C11.9803 13.5586 11.9552 13.7999 11.8654 14.0203C11.7757 14.2407 11.6251 14.4309 11.4312 14.5689C11.1155 14.7609 10.7518 14.8595 10.3824 14.8533C9.82546 14.8698 9.26836 14.8281 8.72013 14.7289C8.72013 14.4089 8.72013 14.08 8.72013 13.7511C9.22013 13.9821 9.78162 14.0445 10.3201 13.9289C10.4179 13.9289 10.5601 13.84 10.5601 13.7156C10.5601 13.5911 10.409 13.5378 10.3024 13.5022C9.98236 13.3867 9.64458 13.36 9.33347 13.2444C9.19409 13.1963 9.06654 13.1192 8.95926 13.018C8.85199 12.9169 8.76745 12.7941 8.71124 12.6578C8.64295 12.46 8.6292 12.2475 8.67143 12.0426C8.71367 11.8377 8.81032 11.648 8.95124 11.4933C9.21432 11.2394 9.55605 11.0826 9.92013 11.0489" fill="#1D2087"/>
<path d="M17.1112 11.5556C17.4896 11.225 17.9778 11.0475 18.4801 11.0578C18.796 11.0578 19.1102 11.1027 19.4135 11.1911C19.4135 11.4044 19.4135 11.6089 19.4135 11.8133C19.1437 11.6599 18.8338 11.5918 18.5246 11.6178C18.3456 11.6277 18.1708 11.6754 18.0116 11.7576C17.8524 11.8399 17.7124 11.9549 17.6008 12.0951C17.4891 12.2352 17.4084 12.3974 17.3639 12.571C17.3193 12.7446 17.312 12.9256 17.3423 13.1022C17.3538 13.4309 17.4796 13.7452 17.6979 13.9911C17.8171 14.1017 17.957 14.1877 18.1096 14.2442C18.2621 14.3006 18.4243 14.3264 18.5868 14.32C18.8465 14.311 19.1038 14.2662 19.3512 14.1867V14.7467C19.0092 14.8666 18.6456 14.9121 18.2846 14.88C18.0345 14.8756 17.7878 14.8214 17.5589 14.7207C17.33 14.62 17.1234 14.4747 16.9512 14.2933C16.6495 13.891 16.5128 13.3886 16.569 12.8889C16.5666 12.397 16.7472 11.9217 17.0757 11.5556" fill="#1D2087"/>
<path d="M4.85352 11.1022H7.41352C7.59278 11.1029 7.76883 11.1499 7.92458 11.2387C8.08032 11.3275 8.21047 11.455 8.3024 11.6089C8.38042 11.744 8.42149 11.8973 8.42149 12.0533C8.42149 12.2094 8.38042 12.3626 8.3024 12.4978C8.15818 12.6978 7.95196 12.8447 7.71574 12.9156C7.86026 12.95 7.9959 13.0145 8.11382 13.1049C8.23175 13.1952 8.32932 13.3094 8.40018 13.44C8.47807 13.6079 8.50526 13.7949 8.47842 13.9781C8.45157 14.1612 8.37187 14.3326 8.24907 14.4711C8.01044 14.7009 7.69149 14.8285 7.36018 14.8267H4.8624C4.8624 13.5822 4.8624 12.3467 4.8624 11.1111M6.2224 11.8222V12.5067C6.40907 12.5067 6.60463 12.5067 6.80018 12.5067C6.87132 12.4833 6.93326 12.438 6.97717 12.3774C7.02108 12.3167 7.04472 12.2438 7.04472 12.1689C7.04472 12.094 7.02108 12.021 6.97717 11.9604C6.93326 11.8997 6.87132 11.8545 6.80018 11.8311C6.60782 11.8179 6.41477 11.8179 6.2224 11.8311M6.2224 13.3333V14.0533C6.41796 14.0533 6.6224 14.0533 6.82685 14.0533C6.89904 14.0272 6.96144 13.9795 7.00554 13.9167C7.04964 13.8539 7.0733 13.779 7.0733 13.7022C7.0733 13.6255 7.04964 13.5506 7.00554 13.4877C6.96144 13.4249 6.89904 13.3772 6.82685 13.3511C6.626 13.3315 6.42406 13.3255 6.2224 13.3333Z" fill="#1D2087"/>
<path d="M12.3105 11.1022H14.7905C15.0505 11.1232 15.299 11.2181 15.5069 11.3755C15.7147 11.533 15.8733 11.7466 15.9639 11.9911C16.1183 12.3576 16.1788 12.7568 16.14 13.1526C16.1012 13.5484 15.9643 13.9282 15.7417 14.2578C15.6244 14.4199 15.4709 14.5525 15.2935 14.6451C15.1161 14.7377 14.9195 14.7877 14.7194 14.7911H12.3105V11.1022ZM13.715 13.8844C13.9042 13.9022 14.0947 13.9022 14.2839 13.8844C14.389 13.8171 14.4762 13.7254 14.5381 13.617C14.6 13.5087 14.6348 13.3869 14.6394 13.2622C14.7209 12.8826 14.6575 12.4863 14.4617 12.1511C14.2839 11.9111 13.9639 12.0267 13.715 12C13.715 12.6311 13.715 13.2711 13.715 13.9022" fill="#1D2087"/>
<path d="M19.8135 11.1022H20.5335V14.8178H19.8224C19.8224 13.5911 19.8224 12.3644 19.8224 11.1378" fill="#1D2087"/>
<path d="M20.8623 11.1022H23.6534V11.68H22.6401C22.6401 12.72 22.6401 13.7689 22.6401 14.8178H21.8845V11.68H20.8623V11.1022Z" fill="#1D2087"/>
<path d="M23.7598 11.1022H24.6487C24.9331 11.6178 25.2175 12.1333 25.5375 12.6311L26.3375 11.1022H27.1375L25.8398 13.3333C25.8215 13.3881 25.8215 13.4474 25.8398 13.5022V14.8533H25.0487V13.4311C25.0582 13.4022 25.0582 13.3711 25.0487 13.3422L23.8042 11.1378" fill="#1D2087"/>
<path d="M6.7824 19.7867C7.01264 19.7006 7.26332 19.6851 7.5024 19.7422C7.5024 19.8311 7.5024 19.9289 7.5024 20.0267C7.36188 19.9955 7.21625 19.9955 7.07573 20.0267C7.04501 20.0414 7.01778 20.0625 6.99585 20.0886C6.97391 20.1147 6.95779 20.1451 6.94854 20.1779C6.93929 20.2107 6.93713 20.2451 6.9422 20.2788C6.94727 20.3125 6.95946 20.3447 6.97796 20.3733C7.00592 20.4064 7.04175 20.4318 7.08214 20.4473C7.12253 20.4629 7.16618 20.468 7.20907 20.4622C7.20907 20.3733 7.20907 20.2756 7.20907 20.1867H7.5824C7.5824 20.3644 7.5824 20.5511 7.5824 20.7378C7.31685 20.8055 7.03662 20.7868 6.7824 20.6844C6.71088 20.6345 6.65248 20.568 6.61216 20.4906C6.57184 20.4132 6.55078 20.3273 6.55078 20.24C6.55078 20.1528 6.57184 20.0668 6.61216 19.9894C6.65248 19.912 6.71088 19.8455 6.7824 19.7956" fill="#1D2087"/>
<path d="M8.32021 19.8311C8.53204 19.7071 8.78333 19.6689 9.02243 19.7244C9.02243 19.8311 9.02243 19.9378 8.97799 20.0444C8.86589 20.0044 8.74341 20.0044 8.63132 20.0444C8.60198 20.0639 8.57792 20.0903 8.56127 20.1213C8.54462 20.1524 8.53591 20.187 8.53591 20.2222C8.53591 20.2574 8.54462 20.2921 8.56127 20.3231C8.57792 20.3541 8.60198 20.3805 8.63132 20.4C8.74169 20.4316 8.85872 20.4316 8.9691 20.4C8.9691 20.4978 8.9691 20.6044 9.01354 20.7111C8.81753 20.7775 8.60511 20.7775 8.4091 20.7111C8.33369 20.6673 8.26975 20.6063 8.22254 20.5329C8.17532 20.4596 8.14618 20.3761 8.1375 20.2894C8.12882 20.2026 8.14086 20.115 8.17262 20.0338C8.20439 19.9526 8.25497 19.8801 8.32021 19.8222" fill="#1D2087"/>
<path d="M14.3018 19.7867C14.532 19.7006 14.7827 19.6851 15.0218 19.7422C15.0218 19.84 15.0218 19.9289 15.0218 20.0267C14.8782 19.9957 14.7297 19.9957 14.5862 20.0267C14.5556 20.0429 14.5289 20.0655 14.5079 20.093C14.4869 20.1205 14.472 20.1523 14.4644 20.186C14.4568 20.2198 14.4566 20.2548 14.4638 20.2887C14.4711 20.3226 14.4855 20.3545 14.5062 20.3822C14.5595 20.4533 14.6484 20.4533 14.7284 20.4622C14.8084 20.4711 14.7284 20.2844 14.7284 20.1867C14.7284 20.0889 14.9684 20.1867 15.0929 20.1867C15.0929 20.3644 15.0929 20.5511 15.0929 20.7289C14.8217 20.8072 14.5313 20.7851 14.2751 20.6667C14.2068 20.6119 14.1528 20.5413 14.1177 20.4611C14.0826 20.3808 14.0675 20.2933 14.0736 20.2059C14.0797 20.1186 14.1069 20.034 14.1528 19.9594C14.1987 19.8849 14.262 19.8225 14.3373 19.7778" fill="#1D2087"/>
<path d="M16.1153 19.7156C16.2224 19.6885 16.3352 19.6948 16.4387 19.7336C16.5421 19.7725 16.6312 19.842 16.6941 19.9329C16.7569 20.0237 16.7905 20.1317 16.7903 20.2421C16.7901 20.3526 16.7562 20.4604 16.6931 20.5511C16.6093 20.661 16.4913 20.7399 16.3577 20.7753C16.2241 20.8107 16.0825 20.8006 15.9553 20.7467C15.8816 20.7019 15.819 20.641 15.7723 20.5685C15.7256 20.496 15.696 20.4138 15.6857 20.3282C15.6754 20.2425 15.6847 20.1557 15.713 20.0742C15.7412 19.9927 15.7876 19.9187 15.8486 19.8578C15.9246 19.7945 16.0171 19.7544 16.1153 19.7422M16.1153 20.0533C15.9908 20.1244 15.9997 20.3022 16.0353 20.4178C16.0708 20.5333 16.3464 20.5333 16.3553 20.3733C16.3642 20.2133 16.3108 19.9644 16.1153 20.0533Z" fill="#1D2087"/>
<path d="M19.3776 19.7156C19.5357 19.6894 19.6977 19.7244 19.831 19.8133C19.9359 19.9059 20.0043 20.0329 20.0239 20.1714C20.0435 20.3099 20.0129 20.4509 19.9376 20.5689C19.8529 20.675 19.7354 20.7501 19.6035 20.7822C19.4716 20.8144 19.3328 20.8019 19.2087 20.7467C19.0939 20.686 19.0042 20.5868 18.9554 20.4664C18.9066 20.3461 18.9019 20.2124 18.9421 20.0889C18.9661 19.9887 19.0211 19.8987 19.0993 19.8316C19.1776 19.7646 19.2749 19.724 19.3776 19.7156ZM19.3776 20.0267C19.2532 20.0978 19.271 20.2756 19.2976 20.3911C19.3089 20.4246 19.3305 20.4537 19.3592 20.4743C19.3879 20.4949 19.4223 20.5059 19.4576 20.5059C19.493 20.5059 19.5274 20.4949 19.5561 20.4743C19.5848 20.4537 19.6063 20.4246 19.6176 20.3911C19.671 20.2311 19.6176 19.9644 19.3776 20.0533" fill="#1D2087"/>
<path d="M4.95137 19.7333H5.54693C5.60414 19.7261 5.66224 19.7311 5.71739 19.748C5.77254 19.7648 5.8235 19.7932 5.86693 19.8311C5.89309 19.867 5.90986 19.909 5.91571 19.953C5.92155 19.9971 5.91628 20.0419 5.90038 20.0834C5.88448 20.125 5.85845 20.1618 5.82467 20.1907C5.79088 20.2196 5.75041 20.2396 5.70693 20.2489C5.92915 20.2489 5.97359 20.5689 5.84026 20.7111C5.75734 20.7694 5.65698 20.7977 5.55582 20.7911H4.93359C4.93359 20.4356 4.93359 20.0889 4.93359 19.7422M5.30693 19.9467C5.3027 20.0118 5.3027 20.0771 5.30693 20.1422C5.36584 20.1512 5.42579 20.1512 5.4847 20.1422C5.50173 20.1344 5.51615 20.1219 5.52626 20.1061C5.53637 20.0904 5.54175 20.0721 5.54175 20.0533C5.54175 20.0346 5.53637 20.0163 5.52626 20.0005C5.51615 19.9848 5.50173 19.9722 5.4847 19.9644H5.33359M5.33359 20.3733V20.5689C5.39251 20.5779 5.45246 20.5779 5.51137 20.5689C5.52839 20.5611 5.54282 20.5486 5.55293 20.5328C5.56304 20.517 5.56842 20.4987 5.56842 20.48C5.56842 20.4613 5.56304 20.4429 5.55293 20.4272C5.54282 20.4114 5.52839 20.3989 5.51137 20.3911C5.45246 20.3821 5.39251 20.3821 5.33359 20.3911" fill="#1D2087"/>
<path d="M6.03526 19.7244H6.3997C6.3997 20.0711 6.3997 20.4267 6.3997 20.7733H6.02637C6.02637 20.4267 6.02637 20.08 6.02637 19.7244" fill="#1D2087"/>
<path d="M9.12012 19.7244H9.48456C9.48456 20.08 9.48456 20.4267 9.48456 20.7733C9.36324 20.7822 9.24144 20.7822 9.12012 20.7733C9.12012 20.4178 9.12012 20.0711 9.12012 19.7156" fill="#1D2087"/>
<path d="M9.58223 19.7244H10.56C10.56 19.8311 10.56 19.9378 10.56 20.0356H10.2578C10.2578 20.2844 10.2578 20.5333 10.2578 20.7822H9.86668C9.86668 20.5333 9.86668 20.2844 9.86668 20.0356H9.56445C9.56445 19.9378 9.56445 19.8311 9.56445 19.7244" fill="#1D2087"/>
<path d="M10.5869 19.7244H10.9869C11.0314 19.8489 11.0758 19.9733 11.1114 20.0978L11.2625 19.7244H11.6358L11.3602 20.24C11.2447 20.4 11.3069 20.6044 11.2891 20.7822H10.9158C10.9247 20.6372 10.9247 20.4917 10.9158 20.3467C10.8091 20.1422 10.6936 19.9378 10.5869 19.7244Z" fill="#1D2087"/>
<path d="M12.4443 19.7244C12.6754 19.7244 12.9154 19.7244 13.1466 19.7244C13.2051 19.7193 13.2635 19.7366 13.3097 19.7729C13.356 19.8093 13.3866 19.8619 13.3954 19.92C13.4046 19.9546 13.4062 19.9908 13.4001 20.0261C13.394 20.0614 13.3804 20.0949 13.3601 20.1245C13.3399 20.154 13.3135 20.1788 13.2828 20.1972C13.252 20.2156 13.2177 20.2272 13.1821 20.2311C13.4132 20.2311 13.4577 20.5511 13.3243 20.6933C13.2375 20.7505 13.1348 20.7785 13.031 20.7733H12.4443V19.7156M12.8088 19.9378V20.1333H12.9777C12.9947 20.1255 13.0091 20.113 13.0192 20.0973C13.0293 20.0815 13.0347 20.0632 13.0347 20.0444C13.0347 20.0257 13.0293 20.0074 13.0192 19.9916C13.0091 19.9759 12.9947 19.9634 12.9777 19.9556C12.9187 19.9467 12.8588 19.9467 12.7999 19.9556M12.7999 20.3556V20.5511C12.8799 20.5511 13.0488 20.5511 13.0399 20.4444C13.031 20.3378 12.8799 20.3556 12.7999 20.3556Z" fill="#1D2087"/>
<path d="M13.5557 19.7333H13.9201C13.9201 20.0889 13.9201 20.4356 13.9201 20.7911H13.5557C13.5557 20.4356 13.5557 20.0889 13.5557 19.7422" fill="#1D2087"/>
<path d="M16.8887 19.7244C17.1048 19.7113 17.3215 19.7113 17.5376 19.7244C17.6059 19.7453 17.6665 19.7859 17.712 19.8409C17.7575 19.896 17.7858 19.9633 17.7933 20.0343C17.8009 20.1053 17.7874 20.177 17.7546 20.2404C17.7218 20.3039 17.671 20.3563 17.6087 20.3911C17.4917 20.4178 17.3701 20.4178 17.2531 20.3911C17.2531 20.5067 17.2531 20.6133 17.2531 20.7289H16.8887C16.8887 20.3733 16.8887 20.0267 16.8887 19.6711M17.2442 19.92C17.2349 19.9938 17.2349 20.0684 17.2442 20.1422C17.3242 20.1422 17.4487 20.1422 17.4398 20.0356C17.4309 19.9289 17.3242 19.9111 17.2442 19.92Z" fill="#1D2087"/>
<path d="M17.9289 19.7244C18.1511 19.7244 18.3645 19.7244 18.5778 19.7244C18.6683 19.7221 18.7565 19.7535 18.8251 19.8126C18.8937 19.8717 18.9378 19.9542 18.9489 20.0441C18.96 20.134 18.9373 20.2248 18.8851 20.2988C18.8329 20.3728 18.7551 20.4247 18.6667 20.4444C18.545 20.4909 18.4136 20.5061 18.2845 20.4889V20.8267H17.9111C17.9111 20.4711 17.9111 20.1244 17.9111 19.7689M18.2667 20.0178V20.24C18.3467 20.24 18.4711 20.24 18.4622 20.1333C18.4534 20.0267 18.3467 20 18.2667 20.0178Z" fill="#1D2087"/>
<path d="M20.1777 19.7244C20.4259 19.6976 20.6762 19.6976 20.9244 19.7244C21.1644 19.8044 21.1466 20.2311 20.9244 20.2667C21.0933 20.3556 21.1111 20.5778 21.1911 20.7378H20.8C20.7377 20.6222 20.7555 20.3822 20.5688 20.3911C20.5688 20.5067 20.5688 20.6222 20.5688 20.7378H20.2044C20.2044 20.3911 20.2044 20.0444 20.2044 19.6889M20.56 19.9378V20.1511H20.7111C20.7301 20.1428 20.7463 20.1291 20.7577 20.1118C20.769 20.0944 20.7751 20.0741 20.7751 20.0533C20.7751 20.0326 20.769 20.0123 20.7577 19.9949C20.7463 19.9775 20.7301 19.9639 20.7111 19.9556H20.5333" fill="#1D2087"/>
<path d="M21.2002 19.7244H22.2224V20.0356H21.9113C21.9113 20.2756 21.9113 20.5244 21.9113 20.7733H21.538C21.538 20.5244 21.538 20.2756 21.538 20.0267H21.2357V19.7156" fill="#1D2087"/>
<path d="M22.2931 19.7244H22.6664C22.6664 19.9378 22.6664 20.1511 22.6664 20.3644C22.6664 20.5778 22.9153 20.4889 22.9064 20.3644C22.8975 20.24 22.9064 19.9378 22.9064 19.7333H23.2709C23.2843 19.985 23.2843 20.2372 23.2709 20.4889C23.2361 20.5956 23.1637 20.6859 23.0672 20.7432C22.9707 20.8004 22.8567 20.8206 22.7464 20.8C22.6455 20.8132 22.5434 20.7874 22.4609 20.728C22.3783 20.6685 22.3215 20.5799 22.302 20.48C22.2887 20.2313 22.2887 19.982 22.302 19.7333" fill="#1D2087"/>
<path d="M23.4487 19.7244C23.5999 19.7244 23.7599 19.7244 23.911 19.7244C23.991 19.9733 24.071 20.2222 24.1687 20.4622C24.1687 20.2133 24.1687 19.9733 24.1687 19.7244H24.4976V20.7733H23.9999C23.9021 20.5333 23.831 20.2756 23.7332 20.0356V20.7733H23.4043C23.4043 20.4267 23.4043 20.08 23.4043 19.7244" fill="#1D2087"/>
<path d="M24.6221 19.7244H24.9954C24.9954 20.08 24.9954 20.4267 24.9954 20.7822H24.6221C24.6221 20.4267 24.6221 20.08 24.6221 19.7244Z" fill="#1D2087"/>
<path d="M25.084 19.7244H26.0618V20.0356H25.7773C25.7773 20.2844 25.7773 20.5333 25.7773 20.7822H25.4129C25.4129 20.5333 25.4129 20.2933 25.4129 20.0444H25.1107C25.1016 19.9409 25.1016 19.8368 25.1107 19.7333" fill="#1D2087"/>
<path d="M26.0801 19.7244H26.489C26.5334 19.8489 26.569 19.9733 26.6045 20.0978L26.7645 19.7244H27.1379L26.8534 20.2311C26.7379 20.3911 26.809 20.5956 26.7823 20.7733H26.409C26.409 20.6311 26.409 20.4889 26.409 20.3467C26.409 20.2044 26.1867 19.9378 26.0801 19.7244Z" fill="#1D2087"/>
<path d="M11.4308 20.4444H11.8219C11.7508 20.6133 11.6885 20.7822 11.6263 20.9422H11.4219C11.4219 20.7733 11.4219 20.6133 11.4219 20.4444" fill="#1D2087"/>
<path d="M2.66602 13.92C2.74157 13.9497 2.81321 13.9885 2.87935 14.0356C4.21527 14.7917 5.63537 15.3884 7.11046 15.8133C10.2115 16.6717 13.4229 17.0641 16.6393 16.9778C19.9156 16.9571 23.1668 16.4047 26.266 15.3422C27.252 14.9942 28.2041 14.5568 29.1105 14.0356C29.1766 13.9885 29.2482 13.9497 29.3238 13.92C29.2293 14.0103 29.1283 14.0934 29.0216 14.1689C26.679 15.9142 24.01 17.1716 21.1727 17.8667C17.7569 18.7066 14.1885 18.7066 10.7727 17.8667C7.95044 17.1674 5.29679 15.9101 2.96824 14.1689C2.85928 14.0964 2.75801 14.013 2.66602 13.92Z" fill="#EF8200"/>
</g>
<defs>
<clipPath id="clip0_2707_357823">
<rect width="32" height="32" fill="white"/>
</clipPath>
</defs>
</svg>
