<svg width="32" height="32" viewBox="0 0 32 32" fill="none" xmlns="http://www.w3.org/2000/svg">
<g clip-path="url(#clip0_2707_357538)">
<path d="M15.9998 31.9822C24.8265 31.9822 31.982 24.8267 31.982 16C31.982 7.17326 24.8265 0.0177765 15.9998 0.0177765C7.17306 0.0177765 0.0175781 7.17326 0.0175781 16C0.0175781 24.8267 7.17306 31.9822 15.9998 31.9822Z" fill="white"/>
<path d="M18.844 17.8222H17.9551C18.284 16.1867 18.6129 14.5778 18.9329 12.9511H19.9106C20.204 14.1511 20.5062 15.3511 20.7995 16.5956L23.1373 12.9511H24.0262C23.8263 14.5909 23.5295 16.2175 23.1373 17.8222H22.2484C22.4653 16.8307 22.6256 15.8276 22.7284 14.8178L20.9506 17.8222H20.1417L19.5551 14.5422L18.844 17.8222Z" fill="#151313"/>
<path d="M17.9997 13.1644L17.8308 13.9911C17.3687 13.8116 16.8777 13.7182 16.3819 13.7156C16.0801 13.7171 15.7803 13.7651 15.493 13.8578C15.3528 13.8975 15.2281 13.9793 15.1359 14.0922C15.0437 14.205 14.9884 14.3435 14.9775 14.4889C14.9626 14.5346 14.9582 14.5831 14.9646 14.6308C14.9711 14.6784 14.9882 14.724 15.0146 14.7641C15.0411 14.8043 15.0763 14.8379 15.1176 14.8626C15.1588 14.8873 15.2051 14.9024 15.253 14.9067C15.3718 14.941 15.4941 14.9619 15.6175 14.9689C15.9197 14.9689 16.2219 14.9689 16.5064 14.9689C16.6693 14.9734 16.8308 15.0003 16.9864 15.0489C17.1587 15.107 17.309 15.2166 17.4171 15.3628C17.5252 15.509 17.5858 15.6849 17.5908 15.8667C17.6122 16.2521 17.5076 16.6341 17.2927 16.9548C17.0778 17.2756 16.7644 17.5176 16.3997 17.6444C15.8903 17.8129 15.3521 17.8763 14.8175 17.8311C14.3946 17.828 13.9769 17.7372 13.5908 17.5644C13.5908 17.3156 13.6619 17.0489 13.7064 16.7556L14.0975 16.8533C14.6489 17.0113 15.2275 17.0507 15.7953 16.9689C15.9713 16.9593 16.1406 16.8975 16.2814 16.7915C16.4223 16.6854 16.5285 16.5399 16.5864 16.3733C16.693 16.0178 16.5864 15.7778 16.1686 15.76C15.7508 15.7422 15.5642 15.76 15.2797 15.76C14.9953 15.76 14.9508 15.7156 14.7908 15.7067C14.649 15.6989 14.5112 15.6574 14.3888 15.5854C14.2663 15.5135 14.1629 15.4133 14.0872 15.2931C14.0115 15.173 13.9657 15.0365 13.9535 14.895C13.9414 14.7536 13.9633 14.6113 14.0175 14.48C14.0687 14.0772 14.2563 13.7041 14.549 13.4228C14.8417 13.1414 15.2219 12.9687 15.6264 12.9333C16.3738 12.7744 17.15 12.8173 17.8753 13.0578L17.9997 13.1644Z" fill="#151313"/>
<path d="M27.1825 17.0133C27.1025 17.3244 27.0491 17.5733 26.9869 17.8222H24.1691C24.1559 17.7041 24.1559 17.5848 24.1691 17.4667C24.3558 16.5156 24.5514 15.5733 24.7469 14.6222C24.8625 14.08 24.9691 13.5289 25.0847 12.96C25.398 12.9287 25.7136 12.9287 26.0269 12.96L25.218 17.0133C25.5558 17.0133 25.8669 17.0133 26.178 17.0133H27.1825Z" fill="#151313"/>
<path d="M11.5557 21.4133C13.4052 20.5031 15.4645 20.1041 17.5201 20.2578C18.2255 20.3125 18.923 20.4436 19.6001 20.6489C20.2223 20.8356 20.8446 21.0044 21.4668 21.1733C21.8994 21.2897 22.3436 21.3583 22.7912 21.3778C23.0401 21.3778 23.289 21.44 23.5379 21.44C25.0976 21.4268 26.6433 21.1441 28.1068 20.6044C28.3069 20.4947 28.5228 20.4168 28.7468 20.3733C28.6908 20.433 28.6315 20.4894 28.569 20.5422C27.6891 20.9975 26.7495 21.3266 25.7779 21.52C25.1157 21.653 24.4439 21.7332 23.769 21.76C22.7238 21.8064 21.6782 21.6772 20.6757 21.3778C20.0357 21.1911 19.3868 21.0222 18.7468 20.8444C18.2156 20.7046 17.6693 20.63 17.1201 20.6222C16.5157 20.6222 15.9112 20.6222 15.3423 20.6222C14.2479 20.7044 13.1706 20.9409 12.1423 21.3244C12.056 21.3791 11.9593 21.4152 11.8583 21.4305C11.7573 21.4458 11.6543 21.4399 11.5557 21.4133Z" fill="#3250A0"/>
<path d="M27.1638 19.4844C26.4631 19.8192 25.7265 20.0727 24.9682 20.24C24.6926 20.3022 24.4171 20.3733 24.1415 20.4178C23.992 20.4458 23.8403 20.4606 23.6882 20.4622C23.1806 20.5184 22.6698 20.5392 22.1593 20.5244C21.4749 20.4711 20.7815 20.4622 20.0971 20.3467C19.4126 20.2311 18.506 20.0089 17.706 19.8578C17.674 19.8669 17.6402 19.8669 17.6082 19.8578C17.3335 19.7112 17.0302 19.6263 16.7193 19.6089C16.1349 19.4872 15.5383 19.4335 14.9415 19.4489C14.3815 19.5022 13.8126 19.5378 13.2526 19.6356C12.3399 19.8024 11.4464 20.0615 10.586 20.4089C10.527 20.4176 10.4671 20.4176 10.4082 20.4089C10.4842 20.334 10.5711 20.2711 10.666 20.2222C11.2793 19.9822 11.8926 19.7156 12.5238 19.52C13.0571 19.3724 13.6009 19.2655 14.1504 19.2C14.6457 19.1394 15.1451 19.1186 15.6438 19.1378C16.262 19.1378 16.8775 19.2185 17.4749 19.3778C18.2571 19.5822 19.0393 19.7867 19.8304 19.9467C20.2926 20.0444 20.7638 20.0356 21.226 20.1244C21.7987 20.1851 22.3749 20.2058 22.9504 20.1867C23.582 20.1986 24.2132 20.148 24.8349 20.0356C25.4313 19.914 26.0193 19.7536 26.5949 19.5556L27.1638 19.3867V19.4844Z" fill="#6992CB"/>
<path d="M10.0528 19.4222C9.61727 19.6889 9.16393 19.9644 8.72838 20.2222C8.47949 20.3733 8.21282 20.5067 7.95504 20.6578C7.85727 20.7111 7.77727 20.7378 7.69727 20.6578C7.82171 20.6578 7.78615 20.5244 7.78615 20.4444V18.4H8.3106L9.08393 18.8622L10.0528 19.4222Z" fill="#227EC2"/>
<path d="M12.3816 18.0533C12.329 18.1136 12.2693 18.1673 12.2038 18.2133L10.3549 19.2889C10.2867 19.3185 10.215 19.3394 10.1416 19.3511V16.7822H10.2127L12.3816 18.0533Z" fill="#628CC9"/>
<path d="M3.26172 15.5022V15.4222C3.50172 15.2978 3.74172 15.1733 3.97283 15.04C4.44394 14.7644 4.93283 14.4889 5.40394 14.2222C5.40394 14.2222 5.40394 14.1333 5.40394 14.0889H5.48394V14.2222C5.48394 14.8178 5.48394 15.4222 5.48394 16C5.49322 16.0788 5.5111 16.1563 5.53727 16.2311L5.4395 16.6933C5.37905 16.6838 5.31956 16.6689 5.26172 16.6489L3.26172 15.5022Z" fill="#227EC2"/>
<path d="M7.78613 10.2311C7.91551 10.2683 8.04064 10.319 8.15947 10.3822L9.98169 11.4133L10.0528 11.4933L9.83058 11.6622L8.46169 12.4889L8.24835 12.56H7.78613V10.2311Z" fill="#227EC2"/>
<path d="M5.52839 14.0711H5.44839C5.41336 14.0798 5.37675 14.0798 5.34172 14.0711L3.26172 12.8711C3.56394 12.6844 3.85727 12.4889 4.15061 12.3111L5.52839 11.5556V14.0711Z" fill="#628CC9"/>
<path d="M12.3913 15.4222V15.5022L11.218 16.16L10.1958 16.7111C10.0713 16.6667 10.1246 16.5689 10.1246 16.4889V14.6667C10.1958 14.5422 10.2758 14.4178 10.3558 14.3022C10.3908 14.2936 10.4274 14.2936 10.4624 14.3022L12.3913 15.4222Z" fill="#227EC2"/>
<path d="M3.26172 15.5022L5.33283 16.6667C5.39097 16.6856 5.45037 16.7005 5.51061 16.7111V16.8533L5.33283 16.8889L3.28839 18.0533L3.26172 15.5022Z" fill="#23489C"/>
<path d="M3.26172 12.8711L5.33283 14.0533C5.36786 14.062 5.40447 14.062 5.4395 14.0533C5.4395 14.0978 5.4395 14.1689 5.4395 14.1867L4.01727 15.0222L3.30616 15.4044C3.27061 14.5689 3.27061 13.7244 3.26172 12.8711Z" fill="#23489C"/>
<path d="M10.2041 16.7111L11.2174 16.16L12.3908 15.5022V18.0533L10.2041 16.7822C10.2041 16.7822 10.2041 16.7289 10.2041 16.7111Z" fill="#23489C"/>
<path d="M12.391 15.4222L10.4621 14.3111H10.3555L10.4888 13.9289L11.8132 13.1911L12.391 12.88V15.4222Z" fill="#23489C"/>
<path d="M7.78628 10.2311V12.5511H7.33294L7.18183 12.4889C7.18183 12.4889 7.11072 12.4444 7.11072 12.3733L5.78628 11.6444C5.72038 11.6021 5.65796 11.5545 5.59961 11.5022L7.01294 10.6667L7.78628 10.2311Z" fill="#4171B8"/>
<path d="M7.78628 18.3733V20.4444C7.78628 20.5244 7.78628 20.6222 7.69739 20.6489L7.2085 20.4L5.59961 19.4222C5.95516 19.2 6.3285 18.9867 6.67516 18.7556C6.84405 18.64 7.08405 18.64 7.18183 18.4356L7.34183 18.3644L7.78628 18.3733Z" fill="#4171B8"/>
<path d="M3.27051 18.0533L5.33273 16.8889H5.46606C5.47475 16.9865 5.47475 17.0846 5.46606 17.1822C5.35902 17.5709 5.2964 17.9705 5.2794 18.3733H5.58162V19.3511C5.2794 19.1911 4.96829 19.0489 4.69273 18.88L3.38606 18.1156C3.38606 18.1156 3.2794 18.08 3.27051 18.0533Z" fill="#628CC9"/>
<path d="M12.3908 12.8622L11.813 13.1733L10.4886 13.9111C10.4886 13.8133 10.4886 13.7067 10.4886 13.6089C10.5046 13.4517 10.4785 13.2931 10.4129 13.1493C10.3473 13.0056 10.2445 12.8819 10.1152 12.7911V11.5556C10.3197 11.6622 10.5241 11.7689 10.7197 11.8844L12.2663 12.7733C12.2663 12.7733 12.3463 12.8178 12.3908 12.8622Z" fill="#628CC9"/>
<path d="M10.1241 16.7822V19.3511L10.0352 19.4222L9.0663 18.8178L8.29297 18.3556C8.49241 18.3569 8.68652 18.2912 8.84408 18.1689H8.9063C9.11202 18.0732 9.29659 17.9374 9.44922 17.7695C9.60185 17.6016 9.71946 17.405 9.79519 17.1911C9.85741 17.0489 9.91075 16.8978 9.96408 16.7467L10.1241 16.7822Z" fill="#1958A3"/>
<path d="M5.59943 11.5022C5.65762 11.5574 5.72003 11.6079 5.7861 11.6533L7.11054 12.3733C7.11054 12.3733 7.16388 12.4533 7.19054 12.4889H6.49721C6.44388 12.4889 6.39943 12.4889 6.35499 12.56C6.32596 12.6262 6.30218 12.6945 6.28388 12.7644C6.20388 13.12 6.13276 13.4756 6.05276 13.84C5.8661 13.84 5.75054 14.1067 5.52832 14.0622V11.5556L5.59943 11.5022Z" fill="#227EC2"/>
<path d="M5.51953 19.3511V18.3733H7.18175V18.4444C7.11064 18.6667 6.84398 18.6667 6.67509 18.7556C6.32842 18.9867 5.95509 19.2 5.59953 19.4222L5.51953 19.3511Z" fill="#227EC2"/>
<path d="M10.1238 11.5556V12.8267L9.51939 12.6044C9.47495 12.6044 9.4305 12.5333 9.37717 12.5333H8.48828L9.85717 11.7067L10.0794 11.5378L10.1238 11.5556Z" fill="#1958A3"/>
<path d="M27.3867 19.3422C27.3867 19.2711 27.3867 19.1822 27.4756 19.1556C27.6889 19.0311 27.9201 18.9244 28.1512 18.8178C28.1981 18.8082 28.2465 18.8082 28.2934 18.8178C28.0491 19.0706 27.7425 19.2545 27.4045 19.3511L27.3867 19.3422Z" fill="#C8D8EF"/>
<path d="M9.44824 20.8444C9.68423 20.5965 9.99784 20.4365 10.3371 20.3911C10.3371 20.3911 10.3371 20.4889 10.3371 20.4978L9.59046 20.8356C9.54347 20.8445 9.49523 20.8445 9.44824 20.8356V20.8444Z" fill="#C8D8EF"/>
<path d="M27.1641 19.4844V19.3956C27.2085 19.2444 27.2085 19.2444 27.3863 19.3422C27.3757 19.3905 27.3463 19.4327 27.3046 19.4593C27.2629 19.486 27.2124 19.495 27.1641 19.4844Z" fill="#C8D8EF"/>
<path d="M28.4441 18.7378L28.293 18.8089L28.4441 18.7378Z" fill="#C8D8EF"/>
<path d="M28.444 18.7378V18.6667H28.3906L28.444 18.7378Z" fill="#C8D8EF"/>
<path d="M9.44824 20.8444V20.8978H9.51046L9.44824 20.8444Z" fill="#C8D8EF"/>
<path d="M9.99081 16.7111C9.99081 16.5333 9.99081 16.3644 9.99081 16.1867C9.99649 16.0452 9.96085 15.9051 9.88824 15.7836C9.81563 15.662 9.70919 15.5643 9.58192 15.5022L9.24414 15.2978C9.41285 15.2099 9.57611 15.112 9.73303 15.0044C9.87525 14.9067 9.99081 14.7822 10.1241 14.6756V16.4533C10.1241 16.5333 10.0797 16.64 10.2041 16.6756C10.3286 16.7111 10.2041 16.72 10.2041 16.7467H10.133L9.99081 16.7111Z" fill="#1E6EA1"/>
<path d="M5.97276 14.3733C5.84832 14.8978 5.72388 15.4222 5.60832 15.9467C5.60832 16.0533 5.60832 16.1511 5.60832 16.2489C5.56722 16.1713 5.54014 16.087 5.52832 16V14.2222C5.7061 14.2222 5.83054 14.3111 5.97276 14.3733Z" fill="#3250A0"/>
<path d="M5.97276 14.3733C5.83054 14.3111 5.7061 14.1867 5.52832 14.2222V14.0711C5.75054 14.1156 5.8661 13.8844 6.05276 13.8489L5.97276 14.3733Z" fill="#1E6EA1"/>
<path d="M9.52023 12.5689H8.24023L8.46246 12.4978H9.35135C9.43135 12.4978 9.47579 12.5422 9.52023 12.5689Z" fill="#23489C"/>
<path d="M7.33325 12.5511H6.35547C6.39906 12.5204 6.447 12.4965 6.49769 12.48H7.18214L7.33325 12.5511Z" fill="#1958A3"/>
<path d="M7.18164 18.3644H7.33275L7.18164 18.4356V18.3644Z" fill="#628CC9"/>
<path d="M8.9958 13.5467C9.14691 13.5022 9.1558 13.7067 9.28913 13.7156C9.31854 13.8931 9.2965 14.0753 9.22562 14.2407C9.15474 14.4061 9.03797 14.5478 8.88913 14.6489C8.57988 14.8963 8.20027 15.0394 7.80469 15.0578V13.6178H8.8358C8.89347 13.6054 8.94795 13.5812 8.9958 13.5467Z" fill="#4171B8"/>
<path d="M6.50684 17.3067C6.56017 16.9956 6.6135 16.6844 6.67572 16.4178C6.69477 16.2757 6.72751 16.1358 6.7735 16L7.66239 15.5467C7.67129 15.5937 7.67129 15.6419 7.66239 15.6889C7.66239 15.8133 7.71572 15.8578 7.82239 15.8578V17.28L6.50684 17.3067Z" fill="#1E6EA1"/>
<path d="M7.78613 17.3067V15.8844C7.90318 15.8109 8.04091 15.7771 8.17871 15.7884C8.31651 15.7996 8.44697 15.8551 8.55058 15.9467C8.66756 16.0209 8.75644 16.132 8.80314 16.2624C8.84983 16.3928 8.85167 16.5351 8.80835 16.6667C8.78654 16.8124 8.72881 16.9505 8.64036 17.0684C8.55192 17.1864 8.43553 17.2805 8.30169 17.3422C8.13056 17.3646 7.95726 17.3646 7.78613 17.3422V17.3067Z" fill="#4171B8"/>
<path d="M7.78663 13.6178C7.78663 14.0978 7.78663 14.5778 7.78663 15.0578L7.64441 15.36L6.95996 14.9778C7.04735 14.6327 7.11267 14.2823 7.15552 13.9289C7.15298 13.8375 7.18573 13.7487 7.24697 13.6808C7.30822 13.6129 7.39325 13.5713 7.48441 13.5644H7.70663L7.78663 13.6178Z" fill="#1E6EA1"/>
<path d="M6.96909 14.9778L7.65354 15.3511V15.5733L6.76465 16.0178C6.83576 15.6711 6.90687 15.3244 6.96909 14.9778Z" fill="#23489C"/>
<path d="M7.78693 13.6178L7.71582 13.5467H8.99582C8.94249 13.5467 8.88915 13.6178 8.84471 13.6178H7.78693Z" fill="#1958A3"/>
<path d="M7.78684 17.3067V17.3778H6.64017C6.64017 17.3778 6.55128 17.3244 6.50684 17.2978L7.78684 17.3067Z" fill="#1958A3"/>
</g>
<defs>
<clipPath id="clip0_2707_357538">
<rect width="32" height="32" fill="white"/>
</clipPath>
</defs>
</svg>
