<svg width="32" height="32" viewBox="0 0 32 32" fill="none" xmlns="http://www.w3.org/2000/svg">
<g clip-path="url(#clip0_2707_357483)">
<path d="M15.9998 31.9822C24.8265 31.9822 31.982 24.8267 31.982 16C31.982 7.17326 24.8265 0.0177765 15.9998 0.0177765C7.17306 0.0177765 0.0175781 7.17326 0.0175781 16C0.0175781 24.8267 7.17306 31.9822 15.9998 31.9822Z" fill="white"/>
<path fill-rule="evenodd" clip-rule="evenodd" d="M19.8483 24.8356C19.8129 24.8356 19.779 24.8496 19.754 24.8746C19.729 24.8996 19.7149 24.9335 19.7149 24.9689V27.9911C19.7091 28.0052 19.7061 28.0203 19.7061 28.0356C19.7061 28.0508 19.7091 28.0659 19.7149 28.08C19.7405 28.107 19.7756 28.123 19.8127 28.1244H20.3105C20.3278 28.1248 20.3449 28.1209 20.3604 28.1132C20.3759 28.1055 20.3893 28.0941 20.3994 28.08C20.4125 28.069 20.4232 28.0555 20.4309 28.0402C20.4385 28.0249 20.4429 28.0082 20.4438 27.9911V26.1156C20.4438 26.1156 20.8349 25.4578 21.3327 25.6C21.3669 25.6138 21.4052 25.6138 21.4394 25.6C21.4565 25.5881 21.4703 25.5721 21.4797 25.5535C21.489 25.5348 21.4935 25.5142 21.4927 25.4933C21.4927 25.3422 21.4927 25.1467 21.4927 25.0489C21.4924 25.026 21.4866 25.0036 21.4757 24.9835C21.4649 24.9634 21.4494 24.9462 21.4305 24.9333C21.2883 24.8444 20.9061 24.7378 20.3016 25.3778V24.9867C20.3016 24.9513 20.2876 24.9174 20.2626 24.8924C20.2376 24.8674 20.2036 24.8533 20.1683 24.8533L19.8483 24.8356Z" fill="#406092"/>
<path fill-rule="evenodd" clip-rule="evenodd" d="M15.8128 25.5111C15.8317 25.522 15.8531 25.5278 15.875 25.5278C15.8968 25.5278 15.9183 25.522 15.9372 25.5111C15.956 25.5003 15.9716 25.4847 15.9825 25.466C15.9934 25.4473 15.9992 25.4261 15.9994 25.4044V25.1467C15.9984 25.124 15.9923 25.1018 15.9815 25.0818C15.9707 25.0618 15.9556 25.0445 15.9372 25.0311C15.6605 24.8973 15.3554 24.8333 15.0483 24.8444C14.776 24.8284 14.5077 24.9156 14.2969 25.0886C14.086 25.2616 13.9481 25.5076 13.9105 25.7778C13.8572 26.3644 14.4616 26.6667 14.8883 26.7733C15.315 26.88 15.4128 27.1644 15.4039 27.3422C15.395 27.52 15.1905 27.9022 14.2572 27.5289C14.2376 27.5201 14.2164 27.5155 14.195 27.5155C14.1735 27.5155 14.1523 27.5201 14.1327 27.5289C14.1156 27.5408 14.1018 27.5568 14.0925 27.5754C14.0832 27.5941 14.0787 27.6147 14.0794 27.6356V27.9911C14.0788 28.0223 14.0891 28.0527 14.1086 28.0771C14.1281 28.1015 14.1555 28.1182 14.1861 28.1244C14.6705 28.2176 15.1683 28.2176 15.6528 28.1244C15.8101 28.0716 15.9474 27.9716 16.046 27.838C16.1446 27.7044 16.1997 27.5437 16.2039 27.3778C16.2272 27.1727 16.1869 26.9654 16.0883 26.7841C15.9897 26.6028 15.8376 26.4563 15.6528 26.3644C14.9594 25.9378 14.6661 26.0533 14.7105 25.6978C14.755 25.3422 15.075 25.3689 15.3239 25.3778C15.4944 25.3872 15.661 25.4326 15.8128 25.5111Z" fill="#406092"/>
<path fill-rule="evenodd" clip-rule="evenodd" d="M18.5861 25.5111C18.605 25.522 18.6265 25.5278 18.6483 25.5278C18.6702 25.5278 18.6916 25.522 18.7105 25.5111C18.7307 25.502 18.7475 25.4868 18.7586 25.4677C18.7698 25.4486 18.7747 25.4265 18.7728 25.4044C18.7728 25.3067 18.7728 25.2089 18.7728 25.1467C18.7717 25.124 18.7656 25.1018 18.7548 25.0818C18.7441 25.0618 18.7289 25.0444 18.7105 25.0311C18.4335 24.8984 18.1286 24.8343 17.8216 24.8444C17.5509 24.8307 17.2848 24.9189 17.0758 25.0917C16.8669 25.2645 16.7302 25.5092 16.6928 25.7778C16.6394 26.3644 17.2439 26.6667 17.6705 26.7733C18.0972 26.88 18.1861 27.1644 18.1861 27.3422C18.1861 27.52 17.9639 27.9022 17.0394 27.5289C17.0141 27.5194 16.9868 27.5169 16.9602 27.5216C16.9337 27.5263 16.9088 27.538 16.8883 27.5555C16.8701 27.567 16.8549 27.5827 16.8441 27.6012C16.8333 27.6198 16.8271 27.6407 16.8261 27.6622V28.0178C16.8275 28.0498 16.8397 28.0803 16.8607 28.1045C16.8817 28.1287 16.9102 28.1451 16.9416 28.1511C17.4261 28.2442 17.9239 28.2442 18.4083 28.1511C18.5657 28.0982 18.703 27.9982 18.8016 27.8647C18.9002 27.7311 18.9553 27.5704 18.9594 27.4044C18.9828 27.1994 18.9424 26.9921 18.8438 26.8108C18.7452 26.6295 18.5932 26.4829 18.4083 26.3911C17.7061 25.9644 17.4216 26.08 17.4572 25.7244C17.4928 25.3689 17.8216 25.3955 18.0794 25.4044C18.2542 25.4015 18.4273 25.438 18.5861 25.5111Z" fill="#C72A25"/>
<path d="M18.9596 8C18.9684 8.14209 18.9684 8.28458 18.9596 8.42667C18.7987 9.13401 18.8134 9.86998 19.0025 10.5703C19.1915 11.2707 19.5491 11.9141 20.044 12.4444C20.6102 13.0635 21.0483 13.7886 21.3329 14.5778C21.7691 15.9256 21.6705 17.3896 21.0573 18.6667C20.5345 19.9699 19.5188 21.0143 18.2307 21.5733C17.0775 22.0809 15.786 22.1815 14.5682 21.8584C13.3503 21.5354 12.2784 20.808 11.5284 19.7956C10.8524 18.876 10.4666 17.7754 10.4207 16.635C10.3747 15.4946 10.6707 14.3665 11.2707 13.3956C11.8218 12.5689 12.4973 11.8222 13.1018 11.0311C13.3151 10.7556 13.4929 10.7378 13.804 10.9067C14.1612 11.0605 14.4581 11.3273 14.6491 11.6661C14.8402 12.0049 14.9149 12.3969 14.8618 12.7822C14.7966 13.1278 14.6637 13.4571 14.4707 13.7511C14.124 14.3022 13.6973 14.8089 13.3684 15.3778C13.1051 15.828 12.9956 16.3518 13.0565 16.8699C13.1175 17.3879 13.3456 17.872 13.7062 18.2489C14.1376 18.7576 14.7198 19.1157 15.3684 19.2711C16.0176 19.4215 16.6991 19.3331 17.2884 19.0222C17.6358 18.859 17.947 18.6279 18.2035 18.3423C18.4599 18.0568 18.6566 17.7228 18.7818 17.36C18.9088 16.9582 18.9387 16.532 18.8692 16.1164C18.7997 15.7007 18.6326 15.3075 18.3818 14.9689C18.0001 14.38 17.5815 13.8159 17.1284 13.28C16.0796 12.1333 16.2396 9.52889 17.2707 8.69333C17.7345 8.27071 18.3326 8.0252 18.9596 8Z" fill="url(#paint0_radial_2707_357483)"/>
<path d="M15.52 11.2889C15.2475 11.0778 14.9892 10.8492 14.7466 10.6044C14.1716 10.0391 13.8173 9.28714 13.7472 8.48383C13.6771 7.68052 13.896 6.87857 14.3644 6.22222C14.5866 5.87555 14.8444 5.55555 15.0488 5.20888C15.43 4.57362 15.5837 3.82751 15.4844 3.09333C15.4754 2.96015 15.4754 2.82651 15.4844 2.69333C15.8101 2.8954 16.1247 3.11498 16.4266 3.35111C16.8167 3.63552 17.1293 4.01314 17.3358 4.44947C17.5423 4.8858 17.6362 5.36692 17.6088 5.84888C17.5162 6.6019 17.2074 7.31197 16.72 7.89333C16.208 8.49382 15.8374 9.2016 15.6355 9.96444C15.5822 10.2756 15.5733 10.6044 15.5466 10.9244C15.5111 10.9956 15.52 11.0933 15.52 11.2889Z" fill="url(#paint1_linear_2707_357483)"/>
<path fill-rule="evenodd" clip-rule="evenodd" d="M11.146 26.1333C11.1407 26.1129 11.1407 26.0915 11.146 26.0711C11.2082 25.9733 11.4749 25.6 11.7682 25.5644C11.9167 25.5267 12.0741 25.5496 12.2058 25.6279C12.3375 25.7063 12.4327 25.8337 12.4704 25.9822C12.5259 26.2998 12.5259 26.6246 12.4704 26.9422C12.4574 27.0877 12.3913 27.2234 12.2848 27.3234C12.1783 27.4233 12.0387 27.4807 11.8926 27.4844C11.7227 27.4792 11.5579 27.4253 11.4177 27.3292C11.2775 27.2331 11.1678 27.0988 11.1015 26.9422L11.146 26.1333ZM11.0749 27.9911C11.0696 28.0246 11.0539 28.0555 11.0299 28.0795C11.006 28.1035 10.975 28.1192 10.9415 28.1244H10.5415C10.5062 28.1244 10.4723 28.1104 10.4473 28.0854C10.4223 28.0604 10.4082 28.0265 10.4082 27.9911V23.5467C10.4082 23.5113 10.4223 23.4774 10.4473 23.4524C10.4723 23.4274 10.5062 23.4133 10.5415 23.4133H10.9415C10.9556 23.4075 10.9707 23.4044 10.986 23.4044C11.0012 23.4044 11.0163 23.4075 11.0304 23.4133C11.0575 23.4389 11.0734 23.474 11.0749 23.5111V25.0756C11.0749 25.28 11.0749 25.2444 11.1549 25.2C11.2881 25.0618 11.4485 24.9525 11.6259 24.8791C11.8033 24.8057 11.994 24.7697 12.186 24.7733C12.826 24.8267 13.3326 25.3156 13.3504 26.2489C13.3682 27.1822 13.1726 28.0267 12.2838 28.0267C12.0657 28.0625 11.8422 28.0458 11.6319 27.9777C11.4216 27.9097 11.2306 27.7924 11.0749 27.6356V27.9911Z" fill="#406092"/>
</g>
<defs>
<radialGradient id="paint0_radial_2707_357483" cx="0" cy="0" r="1" gradientUnits="userSpaceOnUse" gradientTransform="translate(10.6301 19.8392) rotate(0.305846) scale(4.99563 6.25788)">
<stop stop-color="#5E96CC"/>
<stop offset="1" stop-color="#425F8F"/>
</radialGradient>
<linearGradient id="paint1_linear_2707_357483" x1="12.4035" y1="-1.08543" x2="10.6257" y2="5.78568" gradientUnits="userSpaceOnUse">
<stop stop-color="#C63029"/>
<stop offset="1" stop-color="#860C07"/>
</linearGradient>
<clipPath id="clip0_2707_357483">
<rect width="32" height="32" fill="white"/>
</clipPath>
</defs>
</svg>
