<svg width="32" height="32" viewBox="0 0 32 32" fill="none" xmlns="http://www.w3.org/2000/svg">
<g clip-path="url(#clip0_2707_356413)">
<path d="M15.9998 31.9823C24.8265 31.9823 31.982 24.8268 31.982 16C31.982 7.17331 24.8265 0.0178223 15.9998 0.0178223C7.17306 0.0178223 0.0175781 7.17331 0.0175781 16C0.0175781 24.8268 7.17306 31.9823 15.9998 31.9823Z" fill="white"/>
<path d="M18.258 12.6844C17.9625 12.6743 17.6683 12.7277 17.3953 12.8412C17.1223 12.9547 16.8769 13.1256 16.6758 13.3422V12.7555H14.4002V13.2089C14.9691 13.2089 15.1735 13.28 15.2002 13.8667V20.7467C15.2002 21.3155 15.0402 21.3511 14.4535 21.3689H14.4002V21.7511H17.4846V21.3689H17.4313C16.9691 21.3689 16.7646 21.3244 16.6846 21.1111V14.8889C16.8358 13.7955 17.2802 13.1911 17.9202 13.1911C18.5602 13.1911 19.0135 14.0089 19.0135 15.7244C19.0135 17.44 18.5869 18.2933 17.7869 18.2933C17.6172 18.2888 17.4516 18.2397 17.3069 18.1511V18.6133C17.5431 18.6842 17.7892 18.7172 18.0358 18.7111C18.3844 18.7198 18.7306 18.6519 19.0501 18.5121C19.3696 18.3723 19.6545 18.1641 19.8846 17.9022C20.3577 17.2207 20.5921 16.4019 20.5513 15.5733C20.5513 13.7955 19.7335 12.72 18.258 12.72V12.6844ZM7.80464 12.6133C8.17424 12.6013 8.54214 12.6685 8.88368 12.8102C9.22523 12.952 9.53254 13.1651 9.78504 13.4353C10.0375 13.7054 10.2294 14.0264 10.3477 14.3768C10.4661 14.7271 10.5082 15.0987 10.4713 15.4667C10.4971 15.8734 10.4385 16.2811 10.299 16.664C10.1594 17.0469 9.94212 17.3968 9.6607 17.6916C9.37928 17.9864 9.03985 18.2196 8.6638 18.3768C8.28776 18.5339 7.88324 18.6114 7.47575 18.6044C6.75576 18.6044 4.80909 18.2222 4.80909 16.3911V11.7067C4.80909 10.8178 4.74687 10.6133 4.04464 10.6133H3.98242V10.24H6.27576V16.8355C6.32909 17.1111 6.34687 18.2311 7.51131 18.2311C8.23131 18.2311 8.89798 17.3955 8.89798 15.6533C8.89798 13.9111 8.25798 13.0667 7.56464 13.0667C7.4305 13.0684 7.29815 13.0976 7.17581 13.1527C7.05347 13.2078 6.94377 13.2874 6.85353 13.3867V12.8444C7.1427 12.6799 7.47223 12.5998 7.80464 12.6133ZM12.9158 15.3955C12.9158 15.3955 12.9158 15.3955 12.9158 15.3511V13.2178H13.9824V12.7555H12.9158V11.0755H12.3024V11.1289C12.2518 11.5227 12.1185 11.9013 11.9113 12.24C11.7903 12.4117 11.6289 12.551 11.4413 12.6455C11.2537 12.7401 11.0458 12.787 10.8358 12.7822H10.6135V13.2178H11.3869V15.1822C11.3869 16.9067 11.3335 17.44 11.6624 17.8489C11.898 18.1326 12.1992 18.3546 12.54 18.4956C12.8808 18.6365 13.2508 18.6922 13.618 18.6578C13.8614 18.6602 14.104 18.6273 14.338 18.56V18.0978C14.1949 18.1902 14.0283 18.2395 13.858 18.24C12.898 18.24 12.9158 17.6978 12.9158 15.3867V15.3955ZM26.738 17.1022V14.6933C26.7784 14.2229 26.6828 13.7509 26.4624 13.3333C26.3067 13.0736 26.0802 12.8638 25.8094 12.7284C25.5385 12.5929 25.2347 12.5376 24.9335 12.5689C24.565 12.5492 24.1978 12.6268 23.8686 12.7937C23.5394 12.9606 23.2599 13.2111 23.058 13.52V12.7733H20.8269V13.12H20.8891C21.5558 13.12 21.6269 13.2089 21.6269 14.1155V17.12C21.6269 18.0622 21.5646 18.1333 20.8624 18.1422V18.5244H23.9202V18.1422H23.858C23.1735 18.1422 23.1113 18.08 23.1113 17.12V14.9333C23.1205 14.5546 23.2179 14.1833 23.3958 13.8489C23.4921 13.6486 23.6418 13.4787 23.8284 13.358C24.015 13.2372 24.2313 13.1702 24.4535 13.1644C25.0669 13.1644 25.3424 13.5822 25.3424 14.7555V17.1022C25.3424 18.0355 25.2624 18.1155 24.5869 18.1244H24.5246V18.5067H27.5558V18.1244H27.4935C26.8002 18.1155 26.738 18.0444 26.738 17.1022ZM27.7069 10.4444C27.3246 10.2222 26.7558 10.5067 26.4358 11.0667C26.1158 11.6267 26.1513 12.2667 26.5246 12.4889C26.898 12.7111 27.4669 12.4267 27.7958 11.8578C28.1246 11.2889 28.0802 10.6667 27.7069 10.4444Z" fill="#F58220"/>
<path d="M19.769 8.75558C19.8196 8.66476 19.8858 8.58352 19.9646 8.51558C20.0494 8.44831 20.1458 8.3971 20.249 8.36447C20.3604 8.32513 20.4775 8.30412 20.5957 8.30225C20.7197 8.30329 20.8428 8.3243 20.9601 8.36447C21.0726 8.40917 21.1748 8.47638 21.2604 8.56198C21.346 8.64758 21.4132 8.74975 21.4579 8.86225C21.5061 8.99313 21.5302 9.13166 21.529 9.27114V10.9334C21.529 10.9499 21.5224 10.9657 21.5108 10.9774C21.4991 10.989 21.4833 10.9956 21.4668 10.9956H21.3779C21.3646 10.9916 21.353 10.9834 21.345 10.9721C21.3369 10.9608 21.3329 10.9472 21.3334 10.9334V9.28891C21.3372 9.16739 21.3161 9.04637 21.2712 8.93336C21.2369 8.84697 21.1855 8.76837 21.1201 8.70225C21.0554 8.63925 20.9759 8.59341 20.889 8.56891C20.8001 8.53968 20.7071 8.52468 20.6134 8.52447C20.4901 8.52136 20.368 8.54884 20.2579 8.60447C20.1545 8.65532 20.0635 8.72812 19.9912 8.8178C19.9252 8.91313 19.8742 9.01806 19.8401 9.12891C19.8038 9.25607 19.7858 9.38778 19.7868 9.52002V10.9334C19.7849 10.9492 19.7777 10.964 19.7664 10.9752C19.7552 10.9865 19.7404 10.9937 19.7246 10.9956H19.6268C19.6179 10.9969 19.6088 10.9962 19.6002 10.9937C19.5916 10.9911 19.5837 10.9867 19.5769 10.9808C19.5702 10.9749 19.5648 10.9676 19.5611 10.9594C19.5574 10.9512 19.5556 10.9423 19.5557 10.9334V8.42669C19.5555 8.41162 19.5608 8.397 19.5706 8.38556C19.5805 8.37412 19.5941 8.36662 19.609 8.36447H19.7068C19.7226 8.36635 19.7374 8.37351 19.7487 8.3848C19.76 8.39609 19.7671 8.41084 19.769 8.42669V8.75558Z" fill="#7C6A55"/>
<path d="M14.6128 10.5156V10.9423C14.6128 10.9423 14.6128 10.9956 14.5506 10.9956H14.4528C14.4528 10.9956 14.3906 10.9956 14.3906 10.9423V7.44894C14.3925 7.43309 14.3997 7.41834 14.411 7.40705C14.4222 7.39576 14.437 7.3886 14.4528 7.38672H14.5506C14.5665 7.3886 14.5812 7.39576 14.5925 7.40705C14.6038 7.41834 14.611 7.43309 14.6128 7.44894V8.83561C14.6723 8.71762 14.7573 8.61438 14.8617 8.53339C15.0518 8.37765 15.2916 8.29561 15.5373 8.30227C15.7041 8.30272 15.8685 8.3423 16.0173 8.41783C16.1528 8.49693 16.2707 8.60278 16.364 8.72894C16.4583 8.86032 16.5276 9.00798 16.5684 9.1645C16.6222 9.33407 16.6492 9.51102 16.6484 9.68894C16.6499 9.87273 16.6229 10.0556 16.5684 10.2312C16.5234 10.3894 16.4479 10.5374 16.3462 10.6667C16.2538 10.7867 16.1352 10.8839 15.9995 10.9512C15.8557 11.021 15.697 11.0546 15.5373 11.0489C15.2958 11.056 15.0596 10.9772 14.8706 10.8267C14.7638 10.7423 14.676 10.6363 14.6128 10.5156ZM14.6751 10.1334C14.7126 10.2643 14.7727 10.3877 14.8528 10.4978C14.9313 10.6012 15.0314 10.6862 15.1462 10.7467C15.2672 10.8084 15.4016 10.8389 15.5373 10.8356C15.6732 10.8409 15.8081 10.8102 15.9284 10.7467C16.0381 10.686 16.1324 10.6008 16.204 10.4978C16.2796 10.3863 16.3367 10.2632 16.3728 10.1334C16.4086 9.98796 16.4266 9.83871 16.4262 9.68894C16.4265 9.54796 16.4086 9.40754 16.3728 9.27116C16.3415 9.13842 16.2873 9.01211 16.2128 8.89783C16.1468 8.78567 16.0516 8.69351 15.9373 8.63116C15.8177 8.55622 15.6783 8.51905 15.5373 8.5245C15.4089 8.51892 15.2811 8.54333 15.1638 8.59579C15.0465 8.64825 14.9431 8.72732 14.8617 8.82672C14.6687 9.08056 14.5797 9.39844 14.6128 9.71561C14.6111 9.86604 14.6321 10.0159 14.6751 10.1601" fill="#7C6A55"/>
<path d="M18.7731 10.6045C18.7093 10.6888 18.6311 10.761 18.542 10.8178C18.4494 10.881 18.3474 10.929 18.2398 10.9601C18.1235 11.0044 17.9997 11.0256 17.8753 11.0223C17.6514 11.0314 17.4304 10.9691 17.2442 10.8445C17.161 10.7779 17.0949 10.6922 17.0516 10.5948C17.0083 10.4974 16.989 10.391 16.9953 10.2845C16.9892 10.1438 17.0166 10.0037 17.0753 9.87562C17.1267 9.78003 17.1997 9.69783 17.2886 9.63562C17.3781 9.57681 17.4775 9.53465 17.582 9.51118L17.8931 9.46674H18.3286C18.4254 9.46175 18.5211 9.44381 18.6131 9.4134C18.6694 9.40112 18.7196 9.3697 18.7553 9.32451C18.7882 9.27128 18.8037 9.20917 18.7998 9.14674C18.8042 9.06976 18.8042 8.9926 18.7998 8.91562C18.7832 8.84524 18.753 8.77879 18.7109 8.72007C18.6628 8.65648 18.5983 8.60728 18.5242 8.57785C18.378 8.52256 18.2203 8.50419 18.0653 8.52434C17.9102 8.5445 17.7626 8.60257 17.6353 8.6934C17.5666 8.75705 17.5114 8.83398 17.4732 8.91953C17.435 9.00509 17.4146 9.0975 17.4131 9.19118C17.4109 9.2061 17.4034 9.21973 17.392 9.22954C17.3806 9.23935 17.3659 9.24467 17.3509 9.24451H17.262C17.2455 9.24451 17.2297 9.23796 17.218 9.22629C17.2063 9.21462 17.1998 9.19879 17.1998 9.18229C17.2075 9.06317 17.2345 8.94609 17.2798 8.83562C17.3221 8.72651 17.3855 8.62683 17.4664 8.54229C17.5547 8.46181 17.6572 8.3985 17.7686 8.35562C17.9063 8.31074 18.0506 8.28969 18.1953 8.2934C18.3016 8.28029 18.409 8.28029 18.5153 8.2934C18.6182 8.30997 18.714 8.35632 18.7909 8.42674C18.8721 8.49219 18.9387 8.57395 18.9864 8.66674C19.0347 8.78246 19.0618 8.90589 19.0664 9.03118V10.889C19.0645 10.9048 19.0574 10.9196 19.0461 10.9308C19.0348 10.9421 19.0201 10.9493 19.0042 10.9512H18.9064C18.9064 10.9512 18.8531 10.9512 18.8531 10.889L18.7731 10.6045ZM18.7731 9.59118H18.6931L18.4531 9.6534H18.1598H17.8753H17.5998C17.5233 9.66812 17.4507 9.69838 17.3864 9.74229C17.3205 9.78636 17.2682 9.84792 17.2353 9.92007C17.1947 10.0123 17.1764 10.1128 17.182 10.2134C17.1739 10.2783 17.1739 10.344 17.182 10.409C17.2115 10.4683 17.2505 10.5223 17.2975 10.569C17.3519 10.6234 17.4192 10.6632 17.4931 10.6845C17.5987 10.7056 17.7075 10.7056 17.8131 10.6845C17.9497 10.6856 18.0853 10.6615 18.2131 10.6134C18.3205 10.5648 18.4172 10.4953 18.4975 10.409C18.5764 10.3245 18.637 10.2246 18.6753 10.1156C18.7209 10.0088 18.745 9.894 18.7464 9.77785L18.7731 9.59118Z" fill="#7C6A55"/>
<path d="M24.1156 10.9511L23.0045 9.36892L23.8934 8.48003C23.8934 8.48003 23.8934 8.48003 23.8934 8.4267C23.8934 8.37336 23.8934 8.4267 23.8934 8.4267H23.7156C23.6971 8.42692 23.6789 8.43099 23.6621 8.43864C23.6452 8.44629 23.6302 8.45736 23.6179 8.47114L22.3112 9.72447V7.44003C22.3112 7.44003 22.3112 7.37781 22.2579 7.37781H22.1334C22.1334 7.37781 22.0801 7.37781 22.0801 7.44003V10.9423C22.0801 10.9564 22.0857 10.97 22.0957 10.98C22.1057 10.99 22.1193 10.9956 22.1334 10.9956H22.2223C22.2364 10.9956 22.25 10.99 22.26 10.98C22.27 10.97 22.2756 10.9564 22.2756 10.9423V10.0534L22.7823 9.55559L23.7601 10.9689C23.7601 10.9689 23.7601 10.9689 23.8401 10.9689H24.0445" fill="#7C6A55"/>
</g>
<defs>
<clipPath id="clip0_2707_356413">
<rect width="32" height="32" fill="white"/>
</clipPath>
</defs>
</svg>
