<svg width="32" height="32" viewBox="0 0 32 32" fill="none" xmlns="http://www.w3.org/2000/svg">
<g clip-path="url(#clip0_2707_356028)">
<path d="M15.9998 31.9823C24.8265 31.9823 31.982 24.8268 31.982 16C31.982 7.17331 24.8265 0.0178223 15.9998 0.0178223C7.17306 0.0178223 0.0175781 7.17331 0.0175781 16C0.0175781 24.8268 7.17306 31.9823 15.9998 31.9823Z" fill="white"/>
<path d="M8.79124 14.3823L9.62679 14.6934C9.79568 14.7556 9.96457 14.7912 10.1423 14.8445C10.1423 14.8445 10.1423 14.8445 10.1423 14.8979C10.1183 15.6212 10.0139 16.3397 9.83124 17.0401C9.60471 17.9227 9.18242 18.7429 8.59568 19.4401C8.10052 20.0129 7.49616 20.4813 6.8179 20.8179L6.40901 21.0223C6.38005 21.0312 6.34909 21.0312 6.32013 21.0223C5.61661 20.7038 4.98011 20.2543 4.44457 19.6979C3.88606 19.1185 3.45596 18.4279 3.18235 17.6712C2.96887 17.0802 2.82857 16.4652 2.76457 15.8401C2.76457 15.5112 2.71124 15.1912 2.68457 14.8712L3.40457 14.6312L3.96457 14.409H4.0179L5.5379 13.6534L6.07124 13.3956C6.15124 14.7823 6.24013 16.1601 6.32013 17.5379C6.26679 17.449 6.20457 17.369 6.15124 17.2712C5.99124 16.969 5.84013 16.6667 5.68013 16.3823C5.67921 16.3731 5.67628 16.3643 5.67154 16.3564C5.6668 16.3486 5.66038 16.3418 5.65273 16.3367C5.64508 16.3316 5.63639 16.3283 5.6273 16.3269C5.6182 16.3256 5.60892 16.3263 5.60013 16.329C5.23638 16.3742 4.86721 16.3439 4.51568 16.2401C4.31579 16.1894 4.1322 16.0884 3.98235 15.9467C3.86345 15.8356 3.77736 15.6939 3.73348 15.5371C3.68959 15.3804 3.68958 15.2146 3.73346 15.0579C3.73346 14.9779 3.73346 14.9067 3.79568 14.8356H3.73346C3.52198 14.9245 3.34974 15.0868 3.24847 15.2926C3.14719 15.4984 3.12371 15.7339 3.18235 15.9556C3.26542 16.2973 3.44793 16.6066 3.70679 16.8445C3.87134 17.0029 4.06676 17.1257 4.28087 17.2053C4.49498 17.2848 4.72318 17.3193 4.95124 17.3067C5.01346 17.3067 5.03124 17.3067 5.0579 17.3779C5.51124 18.3823 5.94679 19.3779 6.42679 20.3823V20.4445C6.6579 19.9112 6.88013 19.3867 7.11124 18.8623C7.34235 18.3379 7.57346 17.8134 7.80457 17.3067H8.00013C8.34864 17.2817 8.68206 17.1546 8.95872 16.9411C9.23538 16.7277 9.44302 16.4375 9.55568 16.1067C9.63798 15.9054 9.65391 15.6831 9.60116 15.472C9.5484 15.261 9.42971 15.0723 9.26235 14.9334C9.16905 14.853 9.06417 14.787 8.95124 14.7379C8.95124 14.8267 9.01346 14.9067 9.04013 14.9867C9.10471 15.1628 9.11198 15.3547 9.06089 15.5351C9.0098 15.7155 8.90297 15.8752 8.75568 15.9912C8.61102 16.1081 8.44496 16.1956 8.26679 16.249C7.9429 16.3536 7.59959 16.384 7.26235 16.3379C7.24469 16.3342 7.2263 16.3365 7.21017 16.3446C7.19403 16.3527 7.18109 16.366 7.17346 16.3823L6.53346 17.4579C6.50946 17.4914 6.48863 17.5271 6.47124 17.5645L6.7379 13.4223L8.12457 14.1334L8.79124 14.3823Z" fill="#0C3985"/>
<path d="M12.3906 13.4934H14.9951C15.3137 13.4843 15.6263 13.5812 15.884 13.7689C15.9933 13.8575 16.083 13.968 16.1473 14.0931C16.2116 14.2183 16.2492 14.3555 16.2575 14.496C16.2659 14.6365 16.2449 14.7772 16.1959 14.9091C16.1469 15.041 16.0709 15.1613 15.9728 15.2623L16.1062 15.4489C16.2256 15.646 16.2757 15.8773 16.2483 16.1061C16.2209 16.3349 16.1177 16.5479 15.9551 16.7112C15.7881 16.8614 15.5813 16.9602 15.3595 16.9956C15.2258 17.0285 15.0883 17.0434 14.9506 17.04H12.3906V13.4934ZM13.2262 15.6089V16.3556C13.7417 16.3556 14.2662 16.3556 14.7817 16.3556C14.9666 16.3615 15.1482 16.3051 15.2973 16.1956C15.3281 16.1726 15.3536 16.1433 15.372 16.1095C15.3904 16.0757 15.4013 16.0384 15.404 16C15.4052 15.9473 15.3917 15.8952 15.365 15.8497C15.3383 15.8042 15.2995 15.767 15.2528 15.7423C15.0961 15.6444 14.9128 15.5978 14.7284 15.6089H13.2262ZM13.2262 14.9334H14.7462C14.9365 14.9385 15.1235 14.8825 15.2795 14.7734C15.3181 14.7495 15.3499 14.7161 15.372 14.6764C15.3941 14.6368 15.4057 14.5921 15.4057 14.5467C15.4057 14.5013 15.3941 14.4567 15.372 14.417C15.3499 14.3773 15.3181 14.344 15.2795 14.32C15.1289 14.2226 14.9522 14.173 14.7728 14.1778H13.2262V14.9334Z" fill="#484848"/>
<path d="M17.0225 13.5023H17.9113V13.5645C17.9113 14.169 17.9113 14.7645 17.9113 15.3423C17.9103 15.4601 17.9362 15.5766 17.987 15.6829C18.0378 15.7892 18.1123 15.8825 18.2047 15.9556C18.4743 16.1903 18.8259 16.3085 19.1825 16.2845C19.5035 16.2905 19.817 16.1871 20.0714 15.9912C20.1714 15.9158 20.2518 15.8176 20.306 15.7046C20.3601 15.5917 20.3863 15.4675 20.3825 15.3423C20.3825 14.7379 20.3825 14.1423 20.3825 13.5645V13.4934H21.2714V15.4667C21.2752 15.6634 21.2358 15.8584 21.1559 16.0382C21.076 16.2179 20.9577 16.3778 20.8091 16.5067C20.4764 16.815 20.0517 17.0055 19.6002 17.049C19.1997 17.1099 18.7908 17.0857 18.4002 16.9779C17.9897 16.8704 17.6229 16.6373 17.3514 16.3112C17.1494 16.0601 17.0452 15.7443 17.058 15.4223V13.5023H17.0225Z" fill="#484848"/>
<path d="M26 13.5111H26.8889V16.1778H29.3333V16.9867H26V13.5111Z" fill="#484848"/>
<path d="M22.0176 17.0133V13.5111H22.9065V16.1778H25.3331V16.9867L22.0176 17.0133Z" fill="#484848"/>
<path d="M6.95095 11.5556C6.78704 11.4531 6.59761 11.3988 6.40429 11.3988C6.21096 11.3988 6.02154 11.4531 5.85762 11.5556C5.85762 11.4489 5.85762 11.3334 5.85762 11.2178C5.85215 11.2035 5.85215 11.1877 5.85762 11.1734C5.9935 11.0674 6.16087 11.0099 6.33317 11.0099C6.50548 11.0099 6.67285 11.0674 6.80873 11.1734C6.81308 11.1969 6.81308 11.221 6.80873 11.2445L6.95095 11.5556Z" fill="#BC0A0A"/>
<path d="M16.9595 18.4089V17.9645H17.0306V18.5689C17.0093 18.578 16.9854 18.5784 16.9638 18.5701C16.9422 18.5618 16.9247 18.5455 16.915 18.5245C16.835 18.3823 16.7461 18.2489 16.6484 18.0978V18.5689H16.5684V17.9645C16.5852 17.9657 16.6014 17.9713 16.6154 17.9806C16.6294 17.99 16.6407 18.0028 16.6484 18.0178C16.7284 18.1511 16.8172 18.2845 16.9061 18.4178L16.9595 18.4089Z" fill="#474C4C"/>
<path d="M26.8978 18.5689C26.8867 18.5732 26.8749 18.5752 26.863 18.5748C26.8512 18.5744 26.8395 18.5716 26.8288 18.5666C26.818 18.5617 26.8083 18.5546 26.8003 18.5458C26.7923 18.5371 26.7862 18.5268 26.7822 18.5156C26.7022 18.3823 26.6133 18.2489 26.5155 18.1067V18.5689H26.4355V17.9645C26.4539 17.9642 26.4719 17.969 26.4876 17.9784C26.5034 17.9878 26.5161 18.0015 26.5244 18.0178C26.6044 18.1512 26.6933 18.2845 26.7822 18.4089V17.9645H26.8622L26.8978 18.5689Z" fill="#474C4B"/>
<path d="M14.2217 18.5601V17.9645C14.3075 17.9601 14.3936 17.9601 14.4795 17.9645C14.5155 17.9605 14.5519 17.9689 14.5826 17.9883C14.6133 18.0076 14.6365 18.0369 14.6483 18.0712C14.6483 18.1512 14.6483 18.1956 14.5772 18.249C14.6092 18.2588 14.6371 18.2789 14.6564 18.3063C14.6757 18.3336 14.6854 18.3666 14.6839 18.4001C14.6864 18.4388 14.674 18.4769 14.6492 18.5067C14.6244 18.5365 14.5891 18.5556 14.5506 18.5601C14.4706 18.569 14.3639 18.5601 14.2217 18.5601ZM14.3017 18.2845V18.4979H14.515C14.5379 18.4959 14.5594 18.4858 14.5756 18.4696C14.5919 18.4533 14.6019 18.4319 14.6039 18.409C14.6019 18.3861 14.5919 18.3646 14.5756 18.3483C14.5594 18.3321 14.5379 18.3221 14.515 18.3201H14.3017V18.2845ZM14.3017 18.2134C14.3668 18.2179 14.4321 18.2179 14.4972 18.2134C14.517 18.2135 14.5361 18.2063 14.5509 18.1932C14.5657 18.1801 14.575 18.1619 14.5772 18.1423C14.5772 18.1211 14.5688 18.1007 14.5538 18.0857C14.5388 18.0707 14.5185 18.0623 14.4972 18.0623C14.4321 18.0578 14.3668 18.0578 14.3017 18.0623V18.2134Z" fill="#464A4A"/>
<path d="M19.5557 18.1245V18.5689V17.9645C19.5725 17.9657 19.5887 17.9713 19.6027 17.9806C19.6167 17.99 19.6281 18.0028 19.6357 18.0178C19.7142 18.1578 19.8033 18.2915 19.9023 18.4178V17.9734H19.9823V18.5689C19.965 18.5699 19.9479 18.5652 19.9334 18.5556C19.919 18.546 19.9081 18.5319 19.9023 18.5156C19.8134 18.3823 19.7246 18.2489 19.6446 18.1156L19.5557 18.1245Z" fill="#444A49"/>
<path d="M22.1421 18.1334H22.0621C22.0562 18.1117 22.0458 18.0915 22.0315 18.0741C22.0172 18.0567 21.9994 18.0425 21.9793 18.0324C21.9592 18.0223 21.9371 18.0166 21.9146 18.0157C21.8921 18.0147 21.8697 18.0185 21.8488 18.0268C21.8317 18.034 21.8165 18.0449 21.8042 18.0587C21.7919 18.0726 21.7828 18.089 21.7777 18.1068C21.7824 18.1223 21.7905 18.1367 21.8012 18.149C21.8119 18.1612 21.8251 18.1711 21.8399 18.1779L22.0088 18.2312C22.1066 18.2312 22.151 18.3112 22.151 18.3912C22.1512 18.4331 22.1359 18.4736 22.108 18.5048C22.0801 18.536 22.0415 18.5557 21.9999 18.5601C21.9264 18.5736 21.8511 18.5736 21.7777 18.5601C21.745 18.5459 21.7174 18.5222 21.6984 18.4921C21.6793 18.4619 21.6698 18.4268 21.671 18.3912H21.7332C21.7495 18.4393 21.7832 18.4795 21.8275 18.5042C21.8719 18.5288 21.9238 18.5361 21.9732 18.5245C22.0266 18.5245 22.0621 18.5245 22.071 18.4268C22.0799 18.329 22.071 18.3468 21.9821 18.329L21.8043 18.2845C21.7716 18.2764 21.7425 18.2576 21.7217 18.231C21.7009 18.2044 21.6896 18.1716 21.6896 18.1379C21.6896 18.1041 21.7009 18.0714 21.7217 18.0448C21.7425 18.0182 21.7716 17.9993 21.8043 17.9912H21.9999C22.0363 17.9951 22.0703 18.0113 22.0961 18.0372C22.122 18.0631 22.1382 18.097 22.1421 18.1334Z" fill="#484D4C"/>
<path d="M24.2491 17.9645H24.3202V18.3556C24.3202 18.4623 24.3735 18.5067 24.4713 18.5067C24.4918 18.5097 24.5128 18.5078 24.5325 18.5013C24.5522 18.4948 24.5701 18.4837 24.5847 18.469C24.5994 18.4544 24.6105 18.4365 24.617 18.4168C24.6235 18.3971 24.6254 18.3761 24.6224 18.3556V17.9645H24.6935C24.6935 18.1156 24.6935 18.2667 24.6935 18.4267C24.6938 18.4592 24.6822 18.4907 24.6609 18.5152C24.6397 18.5398 24.6102 18.5557 24.578 18.56C24.5134 18.5732 24.4469 18.5732 24.3824 18.56C24.3455 18.5557 24.3115 18.5378 24.2869 18.51C24.2623 18.4821 24.2488 18.4461 24.2491 18.4089C24.2402 18.2667 24.2491 18.1156 24.2491 17.9645Z" fill="#4D5251"/>
<path d="M26.1692 18.569C26.0181 18.569 26.0803 18.4445 26.0003 18.3912H25.7781C25.7781 18.3912 25.7781 18.4712 25.7336 18.5067C25.6892 18.5423 25.6892 18.5867 25.627 18.569L25.707 18.3645C25.7514 18.2401 25.7958 18.1156 25.8492 18.0001C25.8573 17.9954 25.8665 17.9929 25.8758 17.9929C25.8852 17.9929 25.8944 17.9954 25.9025 18.0001C25.9106 17.9954 25.9198 17.9929 25.9292 17.9929C25.9385 17.9929 25.9477 17.9954 25.9558 18.0001C26.0181 18.1778 26.0981 18.3734 26.1692 18.569ZM25.9914 18.3201L25.8847 18.0356L25.787 18.3201H25.9914Z" fill="#484D4D"/>
<path d="M24 18.56C23.9378 18.56 23.9023 18.56 23.8845 18.5156C23.8751 18.4724 23.8601 18.4306 23.84 18.3911H23.5823C23.5771 18.4325 23.5771 18.4743 23.5823 18.5156C23.5809 18.5274 23.5767 18.5386 23.5699 18.5483C23.5631 18.558 23.554 18.5659 23.5434 18.5712C23.5328 18.5765 23.521 18.5791 23.5092 18.5787C23.4974 18.5783 23.4858 18.5749 23.4756 18.5689L23.6534 18.0889C23.6534 18.0889 23.6534 18.0267 23.6534 17.9911C23.6706 17.985 23.6894 17.985 23.7067 17.9911H23.76L24 18.56ZM23.7156 18.0356L23.6089 18.32H23.8134L23.7156 18.0356Z" fill="#484D4D"/>
<path d="M17.3066 18.5601C17.3778 18.3734 17.4489 18.1779 17.5289 17.9912C17.5356 17.9873 17.5433 17.9852 17.5511 17.9852C17.5589 17.9852 17.5666 17.9873 17.5733 17.9912C17.5733 17.9912 17.6266 17.9912 17.6355 17.9912C17.7155 18.1779 17.7866 18.3734 17.8666 18.5601C17.8015 18.5601 17.7659 18.5423 17.76 18.5067C17.7413 18.4698 17.7264 18.4311 17.7155 18.3912C17.6415 18.3867 17.5673 18.3867 17.4933 18.3912C17.485 18.3872 17.4759 18.3852 17.4666 18.3852C17.4574 18.3852 17.4483 18.3872 17.44 18.3912C17.4362 18.4177 17.4362 18.4447 17.44 18.4712C17.4103 18.5601 17.3659 18.5897 17.3066 18.5601ZM17.6889 18.3201L17.5822 18.0356L17.4844 18.3201H17.6889Z" fill="#484D4C"/>
<path d="M16.3024 18.56C16.2402 18.56 16.2135 18.56 16.1957 18.5067C16.1994 18.4682 16.1994 18.4296 16.1957 18.3911H15.9735C15.9668 18.3872 15.9591 18.3852 15.9513 18.3852C15.9435 18.3852 15.9358 18.3872 15.9291 18.3911C15.9241 18.4235 15.9241 18.4565 15.9291 18.4889C15.9291 18.5511 15.8757 18.5511 15.8313 18.5333C15.7868 18.5156 15.9024 18.3378 15.9468 18.24C15.9913 18.1422 16.0091 18.0533 16.0446 17.9645C16.0591 17.9603 16.0745 17.9603 16.0891 17.9645H16.1513C16.1513 18.1778 16.2313 18.3733 16.3024 18.56ZM16.1246 18.32C16.1246 18.2222 16.0535 18.1333 16.0268 18.0356L15.9202 18.32H16.1246Z" fill="#494D4D"/>
<path d="M21.3327 18.3911C21.2587 18.3867 21.1845 18.3867 21.1105 18.3911C21.1105 18.3911 21.1105 18.3911 21.0572 18.3911C21.0371 18.4367 21.0222 18.4844 21.0127 18.5333H20.9238V18.4889C20.9861 18.3111 21.0572 18.1422 21.1283 17.9644C21.1426 17.959 21.1584 17.959 21.1727 17.9644C21.1824 17.9597 21.193 17.9573 21.2038 17.9573C21.2146 17.9573 21.2252 17.9597 21.2349 17.9644C21.3149 18.1511 21.386 18.3467 21.466 18.5333C21.4127 18.5333 21.3772 18.5333 21.3594 18.4889C21.3537 18.4555 21.3448 18.4227 21.3327 18.3911ZM21.3327 18.32L21.226 18.0356L21.1194 18.32H21.3327Z" fill="#484D4D"/>
<path d="M12.4443 17.9734H12.7554C12.794 17.9779 12.8293 17.997 12.8541 18.0268C12.8789 18.0565 12.8913 18.0947 12.8888 18.1334C12.8922 18.1729 12.8816 18.2124 12.8589 18.2449C12.8361 18.2774 12.8027 18.3009 12.7643 18.3112H12.5154V18.5512H12.4443V17.9734ZM12.5154 18.2489H12.7199C12.7482 18.2489 12.7753 18.2377 12.7953 18.2177C12.8153 18.1977 12.8266 18.1706 12.8266 18.1423C12.8266 18.114 12.8153 18.0869 12.7953 18.0669C12.7753 18.0468 12.7482 18.0356 12.7199 18.0356H12.5243L12.5154 18.2489Z" fill="#474C4B"/>
<path d="M28.3193 17.9645H28.4438V18.1512C28.4708 18.1308 28.503 18.1186 28.5368 18.116C28.5705 18.1133 28.6042 18.1204 28.6341 18.1362C28.6639 18.1521 28.6887 18.1761 28.7053 18.2056C28.722 18.235 28.7299 18.2685 28.7282 18.3023C28.7418 18.3548 28.7418 18.4098 28.7282 18.4623C28.7194 18.4869 28.705 18.5092 28.6861 18.5273C28.6671 18.5454 28.6443 18.5588 28.6193 18.5666C28.5943 18.5744 28.5678 18.5762 28.542 18.572C28.5162 18.5678 28.4917 18.5576 28.4704 18.5423H28.3638V17.929L28.3193 17.9645ZM28.3904 18.3645C28.3904 18.4356 28.4438 18.4801 28.506 18.4801C28.5682 18.4801 28.6127 18.4801 28.6304 18.3645V18.3201C28.6304 18.2134 28.586 18.1512 28.5149 18.1423C28.4438 18.1334 28.3904 18.249 28.3904 18.3645Z" fill="#4F5353"/>
<path d="M15.0127 17.9645H15.1105V18.3556C15.1105 18.48 15.2083 18.5334 15.3327 18.4978C15.3562 18.4918 15.3769 18.4779 15.3914 18.4585C15.406 18.4391 15.4135 18.4154 15.4127 18.3911C15.4127 18.3111 15.4127 18.2223 15.4127 18.1423V17.9645H15.4838C15.4838 18.1156 15.4838 18.2667 15.4838 18.4178C15.4838 18.5689 15.3771 18.5867 15.2438 18.5778C15.1105 18.5689 15.0394 18.5245 15.0305 18.4089C15.0216 18.2934 15.0127 18.1156 15.0127 17.9645Z" fill="#454A4A"/>
<path d="M29.0844 18.3467C28.9955 18.4089 29.0844 18.4889 29.0311 18.5689H28.96V17.9645H29.0311V18.2845C29.1288 18.2845 29.1555 18.1067 29.2888 18.1334L29.1288 18.2845L29.3155 18.5689C29.2994 18.5694 29.2835 18.5644 29.2706 18.5547C29.2577 18.545 29.2484 18.5312 29.2444 18.5156L29.0844 18.3467Z" fill="#494E4E"/>
<path d="M27.7952 18.0356H27.5996V17.9645H28.0707C28.0669 17.988 28.0669 18.012 28.0707 18.0356H27.8663V18.5689H27.7863L27.7952 18.0356Z" fill="#4D5252"/>
<path d="M20.5422 18.0356V18.5689H20.4444V18.0356H20.2666V17.9645H20.7377V18.0356H20.5422Z" fill="#4D5252"/>
<path d="M13.1113 18.0356V17.9645H13.5913V18.0356H13.3958V18.5689H13.3336V18.0356H13.1113Z" fill="#4E5353"/>
<path d="M25.475 17.9645V18.0356H25.2795V18.5689H25.1995V18.0356H25.0039V17.9645H25.475Z" fill="#494D4D"/>
<path d="M18.5419 17.9645V18.4978H18.8441V18.5689H18.4619V17.9645H18.5419Z" fill="#4F5353"/>
<path d="M23.2268 18.4978V18.5689H22.8535V17.9645H22.9335V18.4978H23.2268Z" fill="#505454"/>
<path d="M19.1824 17.9645H19.1113V18.5689H19.1824V17.9645Z" fill="#515655"/>
</g>
<defs>
<clipPath id="clip0_2707_356028">
<rect width="32" height="32" fill="white"/>
</clipPath>
</defs>
</svg>
