<svg width="32" height="32" viewBox="0 0 32 32" fill="none" xmlns="http://www.w3.org/2000/svg">
<g clip-path="url(#clip0_2707_355463)">
<path d="M15.9998 31.9822C24.8265 31.9822 31.982 24.8267 31.982 16C31.982 7.17325 24.8265 0.0177612 15.9998 0.0177612C7.17306 0.0177612 0.0175781 7.17325 0.0175781 16C0.0175781 24.8267 7.17306 31.9822 15.9998 31.9822Z" fill="white"/>
<path d="M5.3773 19.2622H5.33286L3.95508 13.0844L16.1595 11.2266L27.9729 13.1377L26.6217 19.36L15.9995 20.8088L5.55508 19.3777L5.38619 19.2977L5.3773 19.2622Z" fill="#FDDB02"/>
<path d="M28.7283 12.7822C28.6483 13.1377 27.315 19.5644 27.2438 19.8933C26.8794 19.9466 17.075 21.3955 16.435 21.5022C16.0172 21.5733 4.99495 19.92 4.77273 19.8844C4.62162 19.1466 3.27051 12.7111 3.27051 12.7111L16.1416 10.5688L28.7283 12.7822ZM26.6661 19.3688C26.6661 19.3688 28.0172 13.2266 28.0172 13.1466L16.1594 11.2266L3.95495 13.0844L5.37717 19.3066L16.2038 20.8266L26.6661 19.3688Z" fill="#252840"/>
<path d="M15.5996 15.04C15.5996 14.9867 15.6707 14.0622 16.9863 14.0622C17.3354 14.0604 17.6726 14.1887 17.9323 14.4221C18.1919 14.6554 18.3554 14.9771 18.3907 15.3244L17.7507 15.4933H17.6352C17.5713 15.3827 17.4969 15.2785 17.4129 15.1822C17.3192 15.0926 17.2147 15.015 17.1018 14.9511H16.7818C16.7818 14.9511 16.5863 15.1911 16.7285 15.3155C17.1463 15.6978 18.0796 15.7244 18.5063 16.5155C18.5439 16.6804 18.5436 16.8517 18.5056 17.0164C18.4676 17.1812 18.3927 17.3352 18.2866 17.4669C18.1806 17.5986 18.0461 17.7046 17.8932 17.7769C17.7404 17.8492 17.5731 17.886 17.4041 17.8844C15.8041 17.8844 15.6263 16.7289 15.6263 16.7289L16.4618 16.5155H16.5596C16.5774 16.5966 16.6112 16.6732 16.659 16.741C16.7069 16.8088 16.7678 16.8663 16.8382 16.9102C16.9086 16.9541 16.987 16.9835 17.0689 16.9966C17.1509 17.0098 17.2346 17.0064 17.3152 16.9867C17.5196 16.9867 17.5552 16.7022 17.5552 16.7022C17.0725 16.5038 16.6085 16.2629 16.1685 15.9822C15.8832 15.7654 15.6922 15.4471 15.6352 15.0933L15.5996 15.04Z" fill="#252840"/>
<path d="M23.7151 17.9022H22.8262C22.8262 17.9022 22.8262 14.2311 22.8706 14.1866H24.6484C24.8082 14.2008 24.9626 14.2515 25.0997 14.3347C25.2369 14.4179 25.3531 14.5315 25.4395 14.6666C25.5301 14.7856 25.5935 14.9229 25.6252 15.069C25.6569 15.215 25.6562 15.3663 25.6232 15.512C25.5901 15.6578 25.5255 15.7946 25.4339 15.9127C25.3423 16.0308 25.2258 16.1273 25.0928 16.1955V16.3378L25.7595 17.8755H24.7284L24.1151 16.48H23.7506C23.7417 16.8889 23.7151 17.9022 23.7151 17.9022ZM24.4973 15.1111V15.0578H24.3906L23.7951 15.0133V15.6178H24.3728L24.5773 15.5289C24.5732 15.5083 24.5732 15.4872 24.5773 15.4666V15.3866V15.2533L24.4973 15.1111Z" fill="#252840"/>
<path d="M12.4442 14.2222L13.5464 17.9111H12.6575C12.5686 17.6355 12.2842 17.0222 12.2842 17.0222H11.4931L11.1197 17.9111H10.2842C10.2842 17.9111 11.3153 14.3555 11.3508 14.2133L12.4442 14.2222ZM11.9286 15.5378L11.6353 16.4267H12.1953L11.9286 15.5378Z" fill="#252840"/>
<path d="M18.9951 17.8489L20.0796 14.2222H21.1729L22.2662 17.9111H21.3329C21.2426 17.608 21.1328 17.3111 21.004 17.0222H20.204C20.204 17.0222 19.9462 17.76 19.9107 17.9111L18.9951 17.8489ZM20.9062 16.3822C20.8173 16.0711 20.7284 15.7689 20.6307 15.4489L20.3551 16.3822H20.9062Z" fill="#252840"/>
<path d="M8.51488 16L9.77711 17.8756H8.77266L7.64377 16.2845C7.64377 16.2845 7.64377 17.1289 7.64377 17.4845H6.75488C6.75488 16.5333 6.75488 14.5689 6.75488 14.5689H7.6171V15.7422L8.75488 14.2222H9.77711L8.51488 16Z" fill="#252840"/>
<path d="M15.0041 14.2222C15.0041 14.9778 15.0041 17.9378 15.0041 17.9378H14.1152C14.1152 16.7378 14.1152 14.2933 14.1152 14.2578L15.0041 14.2222Z" fill="#252840"/>
<path d="M7.8135 14.4V14.5422H6.50684V14.3822L7.8135 14.4Z" fill="#252840"/>
<path d="M7.8135 17.6533V17.5111H6.50684V17.6444L7.8135 17.6533Z" fill="#252840"/>
<path d="M7.849 14.4178V14.3645H6.47122V14.4356H6.33789V14.2222H8.00011V14.4533L7.849 14.4178Z" fill="#252840"/>
<path d="M7.849 17.6267V17.68H6.46233V17.6089H6.33789V17.8578H8.00011V17.6178L7.849 17.6267Z" fill="#252840"/>
<path d="M20.9066 16.3822H20.3555L20.631 15.4489C20.7288 15.7689 20.8177 16.0711 20.9066 16.3822Z" fill="#FBDB0C"/>
</g>
<defs>
<clipPath id="clip0_2707_355463">
<rect width="32" height="32" fill="white"/>
</clipPath>
</defs>
</svg>
