<svg width="32" height="32" viewBox="0 0 32 32" fill="none" xmlns="http://www.w3.org/2000/svg">
<g clip-path="url(#clip0_2707_355128)">
<path d="M15.9998 31.9822C24.8265 31.9822 31.982 24.8268 31.982 16C31.982 7.17328 24.8265 0.0177917 15.9998 0.0177917C7.17306 0.0177917 0.0175781 7.17328 0.0175781 16C0.0175781 24.8268 7.17306 31.9822 15.9998 31.9822Z" fill="white"/>
<path d="M2.71124 17.4134C2.76457 17.4134 2.83568 17.4134 2.87124 17.4134L4.3379 16.3734C4.3379 16.1511 4.40901 15.9378 4.45346 15.7245C4.5209 15.48 4.63987 15.2528 4.80239 15.058C4.9649 14.8633 5.16719 14.7057 5.39568 14.5956C5.85393 14.3637 6.32942 14.1675 6.8179 14.0089C6.90151 13.9879 6.97966 13.9493 7.04712 13.8957C7.11457 13.842 7.16977 13.7746 7.20901 13.6978C7.99078 12.2909 9.14379 11.1256 10.5423 10.3289C10.6828 10.2552 10.7975 10.1405 10.8712 10C11.148 9.33217 11.5764 8.7379 12.1225 8.26426C12.6687 7.79062 13.3176 7.45061 14.0179 7.27114C14.169 7.21781 14.329 7.19114 14.4801 7.13781C14.6312 7.08447 14.4801 7.04003 14.4801 6.98669H17.5023C17.3957 7.16447 17.5646 7.14669 17.6535 7.18225C18.1555 7.35461 18.648 7.5534 19.129 7.77781C20.0283 8.24143 20.7293 9.01506 21.1023 9.95558C21.1674 10.0979 21.2724 10.2184 21.4046 10.3022C22.8357 11.112 24.0142 12.3028 24.809 13.7422C24.9036 13.861 25.03 13.9504 25.1735 14C25.5468 14.1511 25.9468 14.2489 26.3023 14.4178C26.7087 14.5737 27.0559 14.8531 27.2951 15.2166C27.5343 15.5802 27.6534 16.0096 27.6357 16.4445C27.9112 16.5956 28.1868 16.72 28.4446 16.88C28.7023 17.04 28.8712 17.2178 29.0935 17.3778C29.0935 17.3778 29.2179 17.3778 29.2801 17.3778V18.4445C29.2801 18.4445 29.1912 18.4445 29.1646 18.4445C28.8712 18.6845 28.5868 18.9511 28.2757 19.1911C27.9646 19.4311 27.6535 19.6089 27.3868 19.8134C27.2599 19.8862 27.153 19.9892 27.0754 20.1132C26.9979 20.2373 26.9522 20.3785 26.9423 20.5245C26.899 20.9739 26.8096 21.4177 26.6757 21.8489C26.6413 21.9922 26.5767 22.1264 26.4861 22.2425C26.3955 22.3587 26.2811 22.4541 26.1506 22.5223C26.02 22.5905 25.8764 22.63 25.7293 22.638C25.5822 22.6461 25.4351 22.6225 25.2979 22.5689L23.7335 22.2222C23.6291 22.1847 23.5159 22.1791 23.4083 22.206C23.3007 22.2329 23.2035 22.2911 23.129 22.3734C22.3228 23.15 21.3671 23.7549 20.3201 24.1511C19.6268 24.4089 18.9068 24.5956 18.2046 24.8089C18.0979 24.8089 17.9201 24.8089 17.9912 25.0045H14.009C14.0979 24.8178 13.9379 24.8356 13.8401 24.8178C11.9861 24.4831 10.2674 23.6222 8.88901 22.3378C8.81114 22.2577 8.71042 22.2036 8.60064 22.1829C8.49086 22.1623 8.37737 22.176 8.27568 22.2222C7.75124 22.3734 7.2179 22.5067 6.68457 22.64C6.55203 22.6926 6.4099 22.7165 6.26746 22.7104C6.12502 22.7043 5.98548 22.6681 5.85796 22.6044C5.73043 22.5406 5.6178 22.4507 5.52742 22.3404C5.43704 22.2301 5.37095 22.102 5.33346 21.9645C5.21849 21.662 5.14668 21.3448 5.12013 21.0222C5.12962 20.7396 5.05863 20.46 4.91543 20.2161C4.77223 19.9722 4.5627 19.7739 4.31124 19.6445C4.19423 19.5902 4.08629 19.5183 3.99124 19.4311L2.84457 18.5422C2.84457 18.5422 2.7379 18.5422 2.68457 18.5422L2.71124 17.4134ZM24.4268 14.3911C24.2114 13.9597 23.971 13.5412 23.7068 13.1378C22.9957 12.1461 22.0608 11.336 20.9779 10.7734C20.8779 10.7257 20.7891 10.6575 20.7171 10.5733C20.6451 10.4891 20.5917 10.3907 20.5601 10.2845C20.3683 9.63998 19.9681 9.07729 19.4223 8.68447C18.4688 8.00363 17.3344 7.62153 16.1632 7.58672C14.992 7.5519 13.8369 7.86592 12.8446 8.48892C12.2168 8.86974 11.7372 9.45278 11.4846 10.1422C11.4509 10.297 11.3798 10.441 11.2775 10.5619C11.1752 10.6828 11.0449 10.7767 10.8979 10.8356C10.7923 10.8808 10.6935 10.9407 10.6046 11.0134C9.26745 11.7966 8.20789 12.9773 7.57346 14.3911L7.11124 14.5778C6.72439 14.6885 6.34446 14.822 5.97346 14.9778C5.62523 15.1031 5.33862 15.3577 5.17311 15.6887C5.0076 16.0198 4.97589 16.4018 5.08457 16.7556C5.08457 16.7556 5.08457 16.8178 5.08457 16.8534L4.69346 17.0134C4.30278 17.1792 3.92278 17.3692 3.55568 17.5822C3.18235 17.8311 3.18235 18.1067 3.55568 18.4C3.6667 18.4958 3.78565 18.5821 3.91124 18.6578C4.21346 18.8622 4.51568 19.0756 4.80013 19.2622C5.07274 19.4196 5.29868 19.6466 5.45485 19.9199C5.61103 20.1932 5.69183 20.503 5.68901 20.8178C5.71072 21.1212 5.77351 21.4202 5.87568 21.7067C5.99124 22.0622 6.14235 22.1067 6.50679 22.0178L8.70235 21.4667L8.93346 21.6445C9.53164 22.2244 10.2078 22.718 10.9423 23.1111C13.0459 24.2624 15.4815 24.6547 17.8401 24.2222C19.8221 23.9214 21.6531 22.9857 23.0579 21.5556C23.1173 21.5032 23.183 21.4584 23.2535 21.4222C23.9379 21.5911 24.6312 21.76 25.3157 21.9467C25.8401 22.08 26.0712 21.9467 26.2046 21.4134C26.2579 21.1467 26.2846 20.8711 26.3201 20.6045C26.3265 20.3518 26.3936 20.1043 26.5158 19.8831C26.638 19.6618 26.8118 19.4732 27.0223 19.3334C27.4935 19.04 27.9112 18.7378 28.3912 18.4445C28.8712 18.1511 28.8535 17.8045 28.3912 17.5111C27.929 17.2178 27.5023 17.0311 27.0312 16.7822C27.0223 16.7412 27.0223 16.6988 27.0312 16.6578C27.1251 16.3685 27.1121 16.0552 26.9947 15.7747C26.8773 15.4942 26.6632 15.2651 26.3912 15.1289C26.0572 14.9368 25.7061 14.7761 25.3423 14.6489C25.0046 14.5689 24.7112 14.4889 24.4268 14.3911Z" fill="#F5F6F8"/>
<path d="M8.74603 21.4756L6.55048 22.0267C6.18603 22.1156 6.03492 22.0267 5.91937 21.7156C5.8194 21.4285 5.75667 21.1297 5.7327 20.8267C5.73552 20.5119 5.65471 20.202 5.49854 19.9287C5.34236 19.6554 5.11642 19.4285 4.84381 19.2711C4.52381 19.0844 4.2127 18.8711 3.95492 18.6667C3.81363 18.5903 3.67972 18.5011 3.55492 18.4C3.20826 18.0978 3.20826 17.8311 3.55492 17.5733C3.88315 17.3699 4.22466 17.1888 4.57714 17.0311C4.71338 16.9752 4.8529 16.9278 4.99492 16.8889C4.99492 16.8444 4.99492 16.8178 4.99492 16.7911C4.88395 16.4374 4.91459 16.0543 5.0804 15.7227C5.2462 15.3911 5.53422 15.1368 5.88381 15.0133C6.28296 14.8421 6.69269 14.6966 7.11048 14.5778L7.59937 14.3911L8.19492 14.2933L11.8216 13.7067C12.3283 13.6267 12.8438 13.5733 13.3594 13.5022L14.7283 13.44L17.9371 13.5022C17.9371 13.5911 17.9371 13.6889 17.9371 13.7867C17.9746 14.0503 18.1006 14.2933 18.2944 14.4758C18.4883 14.6584 18.7384 14.7696 19.0038 14.7911C19.2857 14.8243 19.5699 14.7518 19.8014 14.5876C20.0329 14.4235 20.1953 14.1792 20.2571 13.9022L20.3283 13.7244C20.7105 13.7689 21.0927 13.7956 21.4749 13.8578C22.2571 13.9911 23.0394 14.1422 23.8305 14.2933L24.4171 14.4C24.7016 14.4889 24.9949 14.5689 25.306 14.6844C25.6698 14.8116 26.0209 14.9723 26.3549 15.1644C26.6262 15.2989 26.84 15.5264 26.9575 15.8055C27.075 16.0845 27.0883 16.3964 26.9949 16.6844C26.9861 16.7285 26.9861 16.7738 26.9949 16.8178C27.4571 17.0578 27.8838 17.28 28.3549 17.5467C28.826 17.8133 28.8349 18.1511 28.3549 18.48C27.8749 18.8089 27.466 19.1022 26.986 19.3689C26.7733 19.5065 26.5979 19.6946 26.4754 19.9163C26.3529 20.1381 26.2871 20.3867 26.2838 20.64C26.2838 20.9067 26.2216 21.1822 26.1683 21.4489C26.0616 21.9822 25.8394 22.1156 25.2794 21.9733L23.2171 21.4489L23.626 20.9067C24.0946 21.1033 24.6097 21.1619 25.1105 21.0756C25.1816 20.6667 25.1816 20.6578 24.9327 20.4978C24.7574 20.382 24.5696 20.2866 24.3727 20.2133C23.9371 20.0533 23.4838 19.9111 23.0483 19.7956C22.3283 19.6267 21.6083 19.4667 20.8883 19.3511C20.1683 19.2356 19.6083 19.2 18.9771 19.1378C18.346 19.0756 17.4749 18.9778 16.7194 18.9689C15.9638 18.96 15.146 19.0311 14.3549 19.04C13.3276 19.0682 12.3032 19.1632 11.2883 19.3244C10.0172 19.4952 8.76652 19.793 7.55492 20.2133C7.35937 20.2844 7.19048 20.4 7.00381 20.4889C6.81714 20.5778 6.71048 20.8356 6.84381 21.0933C7.3377 21.1574 7.83978 21.0931 8.30159 20.9067L8.74603 21.4756ZM25.6794 17.4044C25.8127 17.2711 25.9905 17.1467 25.7949 16.9244C25.8368 16.8394 25.8464 16.7421 25.8218 16.6505C25.7973 16.5589 25.7404 16.4794 25.6616 16.4267C25.5691 16.3657 25.4584 16.3386 25.3483 16.35C25.2381 16.3613 25.1353 16.4104 25.0571 16.4889C24.6127 16.0267 24.2216 15.9022 23.8038 16.1511C23.5746 16.3221 23.3632 16.5156 23.1727 16.7289L22.9594 16.9244C22.9594 16.7022 22.9594 16.4711 22.8883 16.2489C22.6483 15.6 22.3283 15.4933 21.5816 15.7689C21.1905 15.3867 21.1283 15.3778 20.6927 15.6533C20.614 15.8865 20.5487 16.1239 20.4971 16.3644C20.4349 16.8267 20.3994 17.2533 20.3549 17.76L20.1771 17.68C20.1771 17.68 20.1771 17.6 20.1771 17.5556V16.7289C20.2516 16.561 20.2901 16.3793 20.2901 16.1956C20.2901 16.0118 20.2516 15.8302 20.1771 15.6622C19.946 15.2178 19.7683 15.1911 19.386 15.5556L19.2349 16.3556L19.0749 16.2311C18.7638 15.1289 17.9994 14.9778 17.3594 15.3422C16.9505 15.0578 16.8883 15.0578 16.5327 15.3422C16.4588 15.4727 16.4049 15.6135 16.3727 15.76C16.3727 16.1867 16.3727 16.6489 16.3727 17.0578C16.3535 17.172 16.3175 17.2829 16.266 17.3867C16.2104 17.1888 16.1718 16.9866 16.1505 16.7822C16.1505 16.4978 16.1505 16.2044 16.1505 15.8933C16.1459 15.7729 16.1115 15.6554 16.0504 15.5516C15.9892 15.4477 15.9033 15.3605 15.8003 15.298C15.6972 15.2355 15.5803 15.1995 15.4599 15.1932C15.3395 15.187 15.2194 15.2107 15.1105 15.2622C14.9823 15.3383 14.8604 15.4245 14.746 15.52C14.3105 14.9778 13.8571 15.1822 13.3594 15.52C12.9327 15.2178 12.8438 15.2267 12.5683 15.5911C12.5683 15.8933 12.5683 16.1956 12.5683 16.48C12.5683 16.48 12.6394 16.5244 12.6749 16.5422V16.64C12.6571 16.9093 12.6571 17.1796 12.6749 17.4489C12.6749 17.6356 12.6749 17.7244 12.4883 17.6978L12.3283 17.1289C12.4438 16.96 12.4971 16.7911 12.2838 16.6489C12.2733 16.5799 12.2584 16.5116 12.2394 16.4444C12.346 16.2667 12.3905 16.0978 12.2394 15.9467C12.0883 15.7956 12.2394 15.4756 11.8838 15.4489C11.7793 15.4284 11.6709 15.4446 11.5769 15.4948C11.483 15.545 11.4093 15.6261 11.3683 15.7244C11.1719 15.5971 10.9355 15.5467 10.7042 15.5828C10.473 15.6189 10.2632 15.7389 10.1149 15.92C10.0177 16.0457 9.93145 16.1795 9.85714 16.32L9.66159 15.9289C9.61681 15.7394 9.51695 15.5674 9.37459 15.4345C9.23223 15.3016 9.05374 15.2138 8.86159 15.1822C8.5646 15.1433 8.26291 15.1614 7.9727 15.2356C7.59089 15.3181 7.23702 15.4982 6.94567 15.7584C6.65432 16.0186 6.43546 16.3499 6.31048 16.72C6.14246 16.9838 6.07611 17.2998 6.12381 17.6089C6.14997 18.0788 6.33336 18.5262 6.64451 18.8793C6.95567 19.2324 7.3765 19.4705 7.83937 19.5556C8.6127 19.7422 9.87492 19.1733 9.70603 18.0622L9.93714 17.8756C10.0429 17.9907 10.1704 18.0838 10.3124 18.1493C10.4544 18.2148 10.6079 18.2516 10.7642 18.2573C10.9204 18.2631 11.0762 18.2379 11.2227 18.183C11.3691 18.1282 11.5032 18.0448 11.6171 17.9378C11.7778 18.0212 11.9561 18.0647 12.1371 18.0647C12.3181 18.0647 12.4965 18.0212 12.6571 17.9378C12.6994 17.9202 12.7447 17.9111 12.7905 17.9111C12.8362 17.9111 12.8816 17.9202 12.9238 17.9378C13.0695 17.9887 13.2245 18.0071 13.3781 17.9918C13.5317 17.9764 13.68 17.9277 13.8127 17.8489L13.5283 17.4222L13.4749 17.3156C13.5752 17.0277 13.5752 16.7145 13.4749 16.4267L13.4038 16.4889L13.3327 16.1333C13.3925 16.1189 13.4495 16.0949 13.5016 16.0622C13.7327 15.9022 13.866 15.9467 13.9016 16.2222C13.9016 16.3467 13.9016 16.48 13.9016 16.6044C13.9277 16.781 13.9633 16.9561 14.0083 17.1289C14.0083 17.7511 14.4971 17.9644 15.146 17.5911L14.9505 17.4578L14.7994 16.9867C14.7994 16.7467 14.8616 16.4978 14.8794 16.2489C14.8971 16 14.9683 15.8844 15.2705 15.9644C15.2838 16.2221 15.2838 16.4802 15.2705 16.7378C15.2441 16.8785 15.2522 17.0236 15.2939 17.1605C15.3357 17.2975 15.4099 17.4224 15.5102 17.5245C15.6106 17.6266 15.7342 17.703 15.8704 17.7471C16.0066 17.7912 16.1515 17.8017 16.2927 17.7778H16.3816C16.6038 17.9822 16.4616 18.3911 16.826 18.5333C17.1905 18.6756 17.2083 18.6578 17.7149 18.4267L17.4394 18.32C17.4394 18.0267 17.4394 17.7422 17.3771 17.4311C17.516 17.5709 17.6934 17.6659 17.8867 17.7039C18.08 17.7419 18.2802 17.7212 18.4616 17.6444C18.6697 17.5507 18.8519 17.4079 18.9928 17.2283C19.1336 17.0487 19.2289 16.8377 19.2705 16.6133C19.2973 16.7752 19.2973 16.9404 19.2705 17.1022C19.1727 17.6622 19.6438 18.0356 20.266 17.8578C20.3841 17.8171 20.5124 17.8171 20.6305 17.8578C20.906 18.08 21.1905 18 21.5194 17.9467C21.2705 17.4222 21.5194 16.9333 21.5194 16.4444C21.5194 16.2844 21.6616 16.2044 21.8838 16.2844C21.8838 16.48 21.8838 16.6844 21.8838 16.8889C21.8838 17.0933 21.8038 17.3956 21.7949 17.6444C21.8064 17.7617 21.8483 17.8738 21.9166 17.9698C21.9848 18.0658 22.0769 18.1423 22.1838 18.1918C22.2907 18.2412 22.4087 18.2618 22.526 18.2515C22.6434 18.2413 22.756 18.2005 22.8527 18.1333L22.6749 17.9822C22.6749 17.92 22.6749 17.8578 22.6749 17.7867L22.7549 17.2L22.8705 16.9867L22.9683 16.8089C22.9683 16.96 22.9683 17.1022 22.9683 17.2444C22.943 17.4373 22.9673 17.6335 23.0388 17.8144C23.1103 17.9953 23.2266 18.1551 23.3769 18.2787C23.5271 18.4022 23.7063 18.4855 23.8976 18.5208C24.0889 18.556 24.2861 18.542 24.4705 18.48C24.5829 18.6372 24.7435 18.7535 24.928 18.8113C25.1124 18.869 25.3107 18.8651 25.4927 18.8L25.4038 18.5689V18.5778C25.435 18.5556 25.4604 18.5263 25.478 18.4922C25.4955 18.4582 25.5047 18.4205 25.5047 18.3822C25.5047 18.3439 25.4955 18.3062 25.478 18.2722C25.4604 18.2382 25.435 18.2089 25.4038 18.1867V18.08C25.7238 17.9289 25.6349 17.6533 25.6438 17.3956L25.6794 17.4044Z" fill="#0275BD"/>
<path d="M23.6625 20.9245L23.2536 21.4667L23.058 21.6089C21.6508 23.0407 19.8165 23.9766 17.8313 24.2756C15.4695 24.6957 13.035 24.2842 10.9425 23.1111C10.2188 22.7147 9.55696 22.2146 8.97802 21.6267C8.90539 21.5619 8.82815 21.5025 8.74691 21.4489L8.33802 20.8978C7.91135 20.7733 7.44913 21.1289 7.02246 20.8356C7.73667 20.3739 8.54989 20.0876 9.39579 20L9.60913 20.32L9.79579 20.6578C10.5213 21.6997 11.5046 22.5356 12.6497 23.084C13.7948 23.6324 15.0625 23.8745 16.3291 23.7867C16.6047 23.7867 16.8802 23.7867 17.1469 23.7156C18.2885 23.5814 19.3806 23.1725 20.3296 22.5238C21.2786 21.8751 22.0562 21.0061 22.5958 19.9911C23.4509 20.1058 24.2752 20.3866 25.0225 20.8178C24.8002 21.0578 24.578 20.9778 24.3825 20.96L23.6625 20.9245Z" fill="#184C9D"/>
<path d="M8.1688 14.2933L7.57324 14.3911C8.20767 12.9773 9.26723 11.7966 10.6044 11.0133C10.6955 10.9438 10.7939 10.8842 10.8977 10.8356C11.0447 10.7767 11.175 10.6828 11.2773 10.5619C11.3796 10.441 11.4507 10.2969 11.4844 10.1422C11.7373 9.45032 12.2207 8.86653 12.8532 8.48889C13.8438 7.86552 14.9976 7.55122 16.1675 7.58605C17.3374 7.62087 18.4704 8.00325 19.4221 8.68445C19.9613 9.08575 20.362 9.64497 20.5688 10.2844C20.5967 10.3911 20.6478 10.4902 20.7185 10.5747C20.7892 10.6592 20.8777 10.7271 20.9777 10.7733C22.0583 11.3392 22.9926 12.1487 23.7066 13.1378C23.9689 13.5424 24.2092 13.9607 24.4266 14.3911L23.8399 14.2844C23.6437 13.7697 23.3231 13.3116 22.9066 12.9511C22.72 12.6994 22.5085 12.4672 22.2755 12.2578C21.7066 11.84 21.1199 11.4489 20.4977 11.0667C20.4129 11.0243 20.3381 10.9643 20.2783 10.8907C20.2185 10.8172 20.1751 10.7317 20.151 10.64C20.0747 10.2692 19.9203 9.91882 19.6981 9.6123C19.4758 9.30577 19.1909 9.05007 18.8621 8.86223C18.0259 8.31023 17.0491 8.00935 16.0472 7.99517C15.0453 7.98099 14.0603 8.25412 13.2088 8.78223C12.9077 8.92652 12.6395 9.13117 12.4208 9.38348C12.2022 9.63578 12.0377 9.93036 11.9377 10.2489C11.8856 10.4785 11.7771 10.6914 11.6218 10.8684C11.4666 11.0453 11.2696 11.1807 11.0488 11.2622L10.9244 11.3422C10.2187 11.7405 9.59444 12.2682 9.08435 12.8978C8.66838 13.28 8.35379 13.7596 8.1688 14.2933Z" fill="#184C9D"/>
<path d="M17.9197 13.5022L14.7108 13.44C14.5267 13.3409 14.3486 13.2311 14.1774 13.1111C13.8888 12.9379 13.6457 12.6983 13.4682 12.4123C13.2908 12.1262 13.1841 11.802 13.1572 11.4664C13.1302 11.1309 13.1837 10.7938 13.3133 10.4831C13.4428 10.1724 13.6446 9.89706 13.9019 9.68001C14.1686 9.43113 14.4797 9.23557 14.7908 9.01335L15.0041 8.94224C15.7241 8.75554 16.4797 8.75554 17.1997 8.94224C18.4974 9.27113 19.5819 9.88446 19.8663 11.3333C19.8736 11.7514 19.766 12.1634 19.5552 12.5245C19.2769 12.4128 18.9666 12.4103 18.6865 12.5174C18.4064 12.6245 18.177 12.8334 18.0441 13.1022C17.9937 13.2326 17.9522 13.3663 17.9197 13.5022Z" fill="#FEF7AD"/>
<path d="M6.31073 16.7289C6.42674 16.3734 6.62855 16.052 6.89831 15.7931C7.16807 15.5342 7.49748 15.3458 7.8574 15.2444C8.15055 15.1833 8.45315 15.1833 8.74629 15.2444C8.93844 15.2761 9.11693 15.3638 9.25929 15.4967C9.40165 15.6296 9.50151 15.8016 9.54629 15.9911C9.50001 16.2184 9.43459 16.4415 9.35073 16.6578C9.25205 16.8343 9.09609 16.972 8.90862 17.0479C8.72115 17.1239 8.51338 17.1336 8.31962 17.0756C8.16097 17.0472 8.01884 16.9601 7.92162 16.8316C7.8244 16.7031 7.77924 16.5426 7.79518 16.3822C8.07962 15.9289 8.15073 15.9022 8.63962 16.0622H8.77296C9.08407 15.9733 8.96851 15.8222 8.82629 15.68C8.66864 15.5538 8.4727 15.485 8.27073 15.485C8.06877 15.485 7.87283 15.5538 7.71518 15.68C7.44646 15.8994 7.25983 16.2032 7.18559 16.5421C7.11136 16.881 7.1539 17.235 7.30629 17.5467C7.35229 17.785 7.48093 17.9995 7.66955 18.1524C7.85817 18.3052 8.09467 18.3866 8.3374 18.3822C8.59619 18.4064 8.85573 18.3446 9.07586 18.2064C9.29599 18.0682 9.46446 17.8613 9.55518 17.6178H9.65296L9.70629 18.0533C9.65296 18.1778 9.59073 18.3022 9.52851 18.4356C9.43513 18.6608 9.28254 18.8565 9.08693 19.0021C8.89131 19.1476 8.65996 19.2375 8.4174 19.2622C8.0557 19.3156 7.6863 19.2594 7.35679 19.101C7.02728 18.9426 6.75273 18.6891 6.56851 18.3733C6.27715 17.8777 6.185 17.2899 6.31073 16.7289Z" fill="#F5F6F8"/>
<path d="M8.16895 14.2934C8.35018 13.7719 8.6552 13.3022 9.05783 12.9245C9.12006 12.9245 9.21783 12.9245 9.25339 12.9245C9.84483 12.4243 10.5068 12.0139 11.2178 11.7067C11.3867 11.6267 11.5645 11.5734 11.7334 11.5111C11.9201 11.9111 11.9289 12.3378 12.3201 12.5334L12.5245 12.8623L13.3156 13.4934C12.8001 13.5556 12.2845 13.6089 11.7778 13.6889L8.16895 14.2934Z" fill="#F4B5D1"/>
<path d="M19.5557 12.5245C19.7571 12.1668 19.8584 11.7615 19.849 11.3511C19.9503 11.4009 20.0542 11.4454 20.1601 11.4845C20.9818 11.7755 21.7505 12.1988 22.4357 12.7378C22.5735 12.823 22.7194 12.8945 22.8712 12.9511C23.2877 13.3116 23.6084 13.7697 23.8046 14.2845L21.449 13.8578C21.0668 13.7956 20.6846 13.76 20.3023 13.7156C20.3065 13.4661 20.2382 13.2207 20.1057 13.0093C19.9731 12.7978 19.7821 12.6294 19.5557 12.5245Z" fill="#469DD4"/>
<path d="M13.3332 16.1422L13.3865 16.3822L13.4399 17.2178L13.4932 17.3156C13.4932 17.3956 13.4932 17.4756 13.4932 17.5467C12.8176 17.76 12.6043 17.3956 12.6043 16.9156C12.6092 16.8208 12.6092 16.7259 12.6043 16.6311V16.5333L12.5332 15.5645C12.8088 15.1911 12.8976 15.1822 13.3243 15.4933C13.7865 15.1911 14.2665 14.9778 14.7021 15.4933C14.8209 15.3996 14.9456 15.3135 15.0754 15.2356C15.1909 15.1579 15.326 15.1145 15.4651 15.1104C15.6042 15.1063 15.7416 15.1416 15.8615 15.2122C15.9814 15.2828 16.0789 15.3859 16.1427 15.5096C16.2065 15.6333 16.234 15.7725 16.2221 15.9111C16.2221 16.1956 16.2221 16.4889 16.2221 16.8C16.2499 17.0011 16.2915 17.2001 16.3465 17.3956C15.7954 17.5822 15.591 17.4933 15.4576 16.9956V15.8311C15.4576 15.6089 15.2888 15.5822 15.111 15.6178C15.0712 15.6211 15.0325 15.6323 14.9971 15.6507C14.9617 15.6691 14.9303 15.6943 14.9047 15.7249C14.8791 15.7554 14.8598 15.7908 14.8479 15.8288C14.836 15.8669 14.8318 15.907 14.8354 15.9467C14.8354 16.3022 14.8354 16.6489 14.8354 16.9956L14.9865 17.4667C14.6132 17.5289 14.2488 17.5645 14.0443 17.1467C14.0443 16.7733 14.0443 16.4 14.0443 16.0356C14.0443 15.9111 13.8932 15.7067 13.7954 15.6889C13.6976 15.6711 13.5288 15.8222 13.4221 15.92C13.3154 16.0178 13.3332 16.0622 13.3332 16.1422Z" fill="#F5F6F8"/>
<path d="M23.6625 20.9244L24.3825 20.9867C24.5869 20.9867 24.8002 21.0844 25.0225 20.8444C24.2752 20.4132 23.4509 20.1324 22.5958 20.0178C22.4269 19.9644 22.2669 19.8933 22.098 19.8578C20.5458 19.5219 18.9656 19.3314 17.378 19.2889C15.208 19.1864 13.0331 19.3116 10.8891 19.6622C10.3914 19.7511 9.89358 19.9022 9.3958 20.0267C8.54989 20.1143 7.73667 20.4006 7.02247 20.8622C7.46691 21.1556 7.91135 20.8 8.33802 20.9244C7.8727 21.1094 7.36889 21.1766 6.87135 21.12C6.74691 20.8533 6.74691 20.6489 7.03135 20.5067C7.3158 20.3644 7.3958 20.3022 7.59135 20.2311C8.80267 19.8098 10.0535 19.512 11.3247 19.3422C12.3372 19.185 13.3583 19.09 14.3825 19.0578C15.1736 19.0578 15.9647 18.9689 16.7558 18.9867C17.5469 19.0044 18.258 19.0933 19.0047 19.1644C19.7514 19.2356 20.2847 19.2711 20.9158 19.3689C21.5469 19.4667 22.3647 19.6444 23.0758 19.8133C23.5291 19.9378 23.9647 20.0711 24.4091 20.2311C24.604 20.3026 24.7891 20.3981 24.9602 20.5156C25.218 20.6756 25.2091 20.6844 25.1469 21.0933C24.6461 21.1796 24.1311 21.121 23.6625 20.9244Z" fill="#469DD4"/>
<path d="M17.3423 17.5111C17.3423 17.7956 17.3423 18.08 17.4045 18.4C16.7112 18.4 16.6134 18.3022 16.6045 17.6267V15.3689C16.96 15.0845 17.0223 15.0845 17.4312 15.3689C18.0712 14.9778 18.8356 15.1289 19.1467 16.2578C19.1467 16.3556 19.1023 16.4445 19.0845 16.5422C19.083 16.7475 19.0213 16.9479 18.9071 17.1184C18.7928 17.289 18.6311 17.4223 18.4418 17.5017C18.2525 17.5812 18.0441 17.6034 17.8423 17.5656C17.6406 17.5278 17.4543 17.4316 17.3067 17.2889L17.3423 17.5111ZM18.0978 16.8622C18.2099 16.7216 18.2766 16.5504 18.2893 16.3711C18.302 16.1917 18.26 16.0128 18.1689 15.8578C18.1244 15.7853 18.0649 15.7232 17.9943 15.6757C17.9238 15.6282 17.8439 15.5963 17.76 15.5822C17.6534 15.5822 17.5112 15.7511 17.4312 15.8756C17.3767 15.9928 17.3465 16.1198 17.3423 16.2489C17.3429 16.4349 17.3668 16.62 17.4134 16.8C17.4722 16.9375 17.5798 17.0484 17.7156 17.1111C17.9023 17.1734 18.0445 17.0667 18.0978 16.8889V16.8622Z" fill="#F5F6F8"/>
<path d="M13.3334 13.5022L12.5423 12.8711L12.3467 12.5422C12.3362 12.4674 12.3213 12.3932 12.3023 12.32C12.1584 11.9908 12.108 11.6284 12.1567 11.2724C12.2053 10.9165 12.351 10.5808 12.5778 10.3022C13.1108 9.60394 13.8954 9.14145 14.7645 9.01334C14.48 9.23556 14.1689 9.43111 13.8756 9.68C13.6179 9.89639 13.4155 10.1711 13.2853 10.4814C13.155 10.7917 13.1007 11.1286 13.1268 11.4641C13.1528 11.7996 13.2586 12.1241 13.4352 12.4105C13.6118 12.697 13.8542 12.9371 14.1423 13.1111C14.3165 13.2311 14.4976 13.3409 14.6845 13.44L13.3334 13.5022Z" fill="#FADB51"/>
<path d="M25.4047 18.5778V18.6667C25.0136 18.7645 24.7824 18.5334 24.5869 18.2489C24.4331 18.3251 24.2626 18.3613 24.0911 18.3542C23.9197 18.3472 23.7527 18.2971 23.6057 18.2085C23.4587 18.1199 23.3364 17.9958 23.25 17.8475C23.1636 17.6992 23.1159 17.5316 23.1113 17.36C23.1131 17.1536 23.1369 16.948 23.1824 16.7467C23.3729 16.5334 23.5844 16.3399 23.8136 16.1689C24.2313 15.92 24.6224 16.0445 25.0669 16.5067C25.145 16.4282 25.2478 16.3791 25.358 16.3678C25.4682 16.3564 25.5789 16.3835 25.6713 16.4445C25.7335 16.498 25.7772 16.5697 25.7963 16.6495C25.8155 16.7292 25.8091 16.813 25.778 16.8889L25.6624 17.3689L25.4313 18.0445L25.3869 18.1511L25.4047 18.5778ZM24.0002 17.1111C24.0002 17.1111 24.0002 17.1822 24.0002 17.2178V17.6978C24.2402 18.1067 24.418 18.1334 24.7113 17.8134C24.7551 17.7483 24.7937 17.6799 24.8269 17.6089C24.8713 17.3956 24.9247 17.1822 24.9513 16.96C24.9666 16.8721 24.9499 16.7817 24.9042 16.7051C24.8586 16.6284 24.787 16.5707 24.7024 16.5422C24.6108 16.5089 24.5103 16.5094 24.4191 16.5436C24.3278 16.5779 24.2518 16.6436 24.2047 16.7289C24.1275 16.8513 24.0592 16.979 24.0002 17.1111Z" fill="#F5F6F8"/>
<path d="M9.70695 16.3378C9.78545 16.1978 9.8746 16.0641 9.97362 15.9378C10.1195 15.7533 10.3296 15.6306 10.562 15.5944C10.7943 15.5581 11.0318 15.6109 11.227 15.7422C11.2692 15.6473 11.3421 15.5694 11.434 15.521C11.5259 15.4726 11.6315 15.4566 11.7336 15.4756C12.0625 15.4756 11.9825 15.7956 12.0981 15.9733V16.4711C12.0981 16.5333 12.0981 16.6044 12.1425 16.6756L12.187 17.1556L12.3381 17.7156C12.0447 17.7156 11.7247 17.8667 11.5203 17.5467C10.9781 18.0533 10.4447 18.0978 10.0003 17.6533C9.85537 17.4652 9.73026 17.2627 9.62695 17.0489V16.3733L9.70695 16.3378ZM11.3781 17.2267C11.4609 17.0513 11.4939 16.8566 11.4735 16.6638C11.4531 16.471 11.3801 16.2875 11.2625 16.1333C11.234 16.0634 11.1841 16.0044 11.1199 15.9648C11.0556 15.9252 10.9805 15.9071 10.9052 15.913C10.83 15.9189 10.7586 15.9486 10.7014 15.9978C10.6442 16.0471 10.6041 16.1132 10.587 16.1867C10.5213 16.2985 10.4867 16.4259 10.4867 16.5556C10.4867 16.6853 10.5213 16.8126 10.587 16.9244C10.6434 17.0814 10.7244 17.2285 10.827 17.36C11.0403 17.5733 11.1736 17.5289 11.3781 17.2356V17.2267Z" fill="#F5F6F8"/>
<path d="M19.5556 12.5245C19.7827 12.6309 19.9741 12.8009 20.1066 13.0139C20.2391 13.2269 20.3071 13.4737 20.3022 13.7245C20.3022 13.7778 20.2578 13.84 20.2311 13.9022C20.1693 14.1792 20.0069 14.4235 19.7754 14.5877C19.5439 14.7518 19.2597 14.8243 18.9778 14.7911C18.713 14.768 18.4636 14.6563 18.2701 14.4741C18.0766 14.2918 17.9501 14.0496 17.9111 13.7867C17.9111 13.6889 17.9111 13.5911 17.9111 13.5022C17.9111 13.4133 18.0089 13.2267 18.0711 13.1022C18.2051 12.841 18.4301 12.638 18.7037 12.5315C18.9772 12.425 19.2803 12.4225 19.5556 12.5245ZM19.1645 13.4133C19.2442 13.4218 19.3247 13.4218 19.4045 13.4133C19.5645 13.3511 19.6889 13.2533 19.6534 13.0578C19.6178 12.8622 19.44 12.7556 19.2267 12.7378C19.0134 12.72 18.6934 12.8267 18.6845 13.0133C18.6756 13.2 18.7822 13.2622 18.8534 13.3778C18.8621 13.3912 18.8739 13.4022 18.8878 13.4099C18.9018 13.4177 18.9174 13.4219 18.9334 13.4222L19.1645 13.4133Z" fill="#DF2829"/>
<path d="M22.6847 17.8933C22.6847 17.9556 22.6847 18.0267 22.6847 18.0889H22.5958C21.9381 17.9644 21.867 17.8578 21.9825 17.2C22.0358 16.9244 22.0714 16.6578 22.107 16.3822C22.1425 16.1067 22.107 16.08 21.9203 16.0444C21.8421 16.0162 21.7562 16.0179 21.6791 16.049C21.602 16.0802 21.5391 16.1387 21.5025 16.2133C21.4592 16.3182 21.4322 16.4292 21.4225 16.5422C21.3692 16.96 21.3336 17.3689 21.2892 17.7867C20.667 17.7867 20.5158 17.6533 20.5958 17.0489C20.6581 16.5867 20.7025 16.1156 20.7558 15.6533C21.1558 15.3778 21.2092 15.3867 21.6447 15.7778C22.3914 15.4933 22.7114 15.6089 22.9514 16.2489L22.8092 17.3067L22.6847 17.8933Z" fill="#F5F6F8"/>
<path d="M20.7286 15.6533C20.6841 16.1156 20.6397 16.5867 20.5775 17.0489C20.4975 17.6533 20.6486 17.8222 21.2619 17.7867C21.3152 17.3689 21.3508 16.9511 21.4041 16.5422C21.4128 16.429 21.4398 16.3179 21.4841 16.2133C21.5206 16.1407 21.582 16.0837 21.6571 16.0526C21.7322 16.0216 21.8159 16.0187 21.893 16.0445C22.0797 16.0445 22.1063 16.2311 22.0886 16.3822C22.0708 16.5333 22.0086 16.9245 21.9641 17.2C21.8486 17.8489 21.9197 17.9467 22.5686 18.0889H22.6663L22.853 18.24C22.7575 18.3042 22.6473 18.3432 22.5327 18.3535C22.4181 18.3638 22.3028 18.3451 22.1974 18.299C22.0919 18.2529 21.9998 18.181 21.9295 18.0899C21.8592 17.9988 21.813 17.8915 21.7952 17.7778C21.7952 17.52 21.8575 17.2711 21.8752 17.0133C21.893 16.7556 21.8752 16.6045 21.8752 16.4178C21.653 16.3378 21.5108 16.4178 21.5108 16.5778C21.5108 17.0667 21.253 17.5556 21.5108 18.0711C21.366 18.1246 21.2111 18.1452 21.0573 18.1313C20.9036 18.1175 20.7548 18.0696 20.6219 17.9911C20.5658 17.9666 20.5053 17.954 20.4441 17.954C20.3829 17.954 20.3224 17.9666 20.2663 17.9911C19.6441 18.16 19.173 17.7956 19.2619 17.2267C19.2884 17.0648 19.2884 16.8997 19.2619 16.7378C19.219 16.9665 19.1203 17.1811 18.9745 17.3626C18.8288 17.544 18.6405 17.6866 18.4263 17.7778C18.2434 17.8541 18.0419 17.8745 17.8474 17.8366C17.6528 17.7986 17.4739 17.7039 17.333 17.5645V17.3067C17.4821 17.4453 17.668 17.538 17.8684 17.5736C18.0688 17.6092 18.2753 17.5862 18.463 17.5074C18.6507 17.4285 18.8116 17.2972 18.9265 17.1292C19.0414 16.9611 19.1054 16.7635 19.1108 16.56C19.1108 16.4622 19.1552 16.3733 19.173 16.2756L19.333 16.4089L19.4841 15.6C19.4841 16.0622 19.4397 16.5333 19.4041 16.9956C19.3686 17.4578 19.5286 17.7156 20.0886 17.7333H20.2308L20.4175 17.8133C20.4175 17.3333 20.4975 16.88 20.5597 16.4178C20.6005 16.1598 20.6569 15.9045 20.7286 15.6533Z" fill="#184C9D"/>
<path d="M20.2134 17.68H20.0623C19.5023 17.68 19.3512 17.4845 19.3867 16.9422C19.4223 16.4 19.4401 16.0089 19.4578 15.5467C19.8401 15.1822 20.0179 15.2089 20.249 15.6533L20.1956 16.4978C20.1956 16.5689 20.1956 16.6489 20.1956 16.72C20.1956 16.9956 20.0712 17.2889 20.2667 17.5467L20.2134 17.68Z" fill="#F5F6F8"/>
<path d="M16.604 15.3689V17.6C16.604 18.2756 16.7107 18.3645 17.404 18.3733L17.6796 18.48C17.2085 18.72 17.1018 18.7022 16.7907 18.5867C16.4796 18.4711 16.5685 18.0445 16.3462 17.84C16.3171 17.8321 16.2864 17.8321 16.2573 17.84C15.4662 17.9022 15.164 17.44 15.2351 16.8C15.2351 16.5422 15.2351 16.2845 15.2351 16.0267C14.9329 15.9378 14.8618 16.08 14.844 16.3022C14.8262 16.5245 14.7907 16.8 14.764 17.0489C14.764 16.6933 14.764 16.3467 14.764 16C14.7565 15.9188 14.7812 15.838 14.8327 15.7748C14.8843 15.7116 14.9585 15.6712 15.0396 15.6622C15.2173 15.6622 15.3596 15.6622 15.3862 15.8756V17.04C15.5373 17.5378 15.7329 17.6267 16.2751 17.4489C16.3267 17.342 16.3626 17.2282 16.3818 17.1111C16.3818 16.6845 16.3818 16.2222 16.3818 15.8222C16.4307 15.66 16.5057 15.5069 16.604 15.3689Z" fill="#184C9D"/>
<path d="M9.7062 17.0134C9.80743 17.2283 9.93267 17.4311 10.0795 17.6178C10.524 18.0622 11.0573 18.0178 11.5906 17.5111C11.804 17.8311 12.124 17.6978 12.4173 17.6889C12.7106 17.68 12.6306 17.6178 12.6129 17.44C12.5951 17.2622 12.6129 16.8978 12.6129 16.6311C12.6177 16.7259 12.6177 16.8208 12.6129 16.9156C12.6129 17.4045 12.8173 17.76 13.5018 17.5467C13.5018 17.4756 13.5018 17.3956 13.5018 17.3156L13.7862 17.7511C13.6535 17.8299 13.5052 17.8787 13.3516 17.894C13.198 17.9094 13.043 17.8909 12.8973 17.84C12.8551 17.8224 12.8097 17.8134 12.764 17.8134C12.7182 17.8134 12.6729 17.8224 12.6306 17.84C12.4694 17.9213 12.2913 17.9636 12.1106 17.9636C11.93 17.9636 11.7519 17.9213 11.5906 17.84C11.4778 17.9487 11.3444 18.0337 11.1982 18.09C11.052 18.1463 10.896 18.1727 10.7394 18.1677C10.5828 18.1628 10.4288 18.1265 10.2865 18.061C10.1441 17.9956 10.0163 17.9023 9.91064 17.7867L9.67953 17.9734L9.6262 17.5289L9.51953 17.4578L9.6262 16.9422C9.64259 16.9755 9.67129 17.001 9.7062 17.0134Z" fill="#184C9D"/>
<path d="M6.31136 16.7289C6.19029 17.2843 6.2823 17.8649 6.56914 18.3556C6.75336 18.6714 7.02791 18.9248 7.35742 19.0833C7.68693 19.2417 8.05633 19.2978 8.41803 19.2445C8.66059 19.2198 8.89194 19.1299 9.08756 18.9843C9.28317 18.8388 9.43576 18.643 9.52914 18.4178C9.59136 18.2845 9.65359 18.16 9.70692 18.0356C9.87581 19.1467 8.61359 19.7156 7.84025 19.5289C7.38636 19.4449 6.97264 19.2141 6.66269 18.872C6.35274 18.5299 6.16373 18.0955 6.1247 17.6356C6.07075 17.3206 6.13739 16.9969 6.31136 16.7289Z" fill="#184C9D"/>
<path d="M23.1728 16.7289C23.1273 16.9302 23.1034 17.1358 23.1017 17.3422C23.1062 17.5138 23.1539 17.6815 23.2403 17.8297C23.3267 17.978 23.4491 18.1022 23.5961 18.1907C23.7431 18.2793 23.91 18.3294 24.0815 18.3365C24.253 18.3435 24.4235 18.3073 24.5772 18.2311C24.7728 18.5156 25.0039 18.7467 25.395 18.6489L25.4839 18.8889C25.301 18.9531 25.1021 18.9556 24.9175 18.8963C24.733 18.8369 24.5729 18.7188 24.4617 18.56C24.278 18.6241 24.0809 18.64 23.8894 18.6062C23.6978 18.5724 23.5181 18.49 23.3674 18.367C23.2167 18.244 23.1001 18.0843 23.0286 17.9034C22.9572 17.7224 22.9334 17.5261 22.9595 17.3334V16.8889L23.1728 16.7289Z" fill="#184C9D"/>
<path d="M9.70641 16.3378V16.4444L9.62641 16.9422C9.51975 16.8622 9.43086 16.8444 9.34197 16.9422C9.22356 17.0858 9.0685 17.1947 8.89322 17.2573C8.71795 17.3199 8.529 17.3339 8.34641 17.2978C8.23155 17.2983 8.11856 17.2688 8.01866 17.2121C7.91877 17.1554 7.83546 17.0735 7.77703 16.9746C7.71859 16.8758 7.68707 16.7633 7.6856 16.6484C7.68413 16.5336 7.71276 16.4204 7.76864 16.32C7.7527 16.4804 7.79785 16.6409 7.89507 16.7694C7.9923 16.8979 8.13443 16.985 8.29308 17.0133C8.48562 17.0692 8.69137 17.0583 8.87694 16.9824C9.06251 16.9066 9.21699 16.7703 9.3153 16.5956C9.40609 16.3809 9.4746 16.1575 9.51975 15.9289L9.70641 16.3378Z" fill="#184C9D"/>
<path d="M14.0088 17.1645C14.2132 17.5822 14.5777 17.5467 14.951 17.4845L15.1466 17.6267C14.4977 18 14.0088 17.7778 14.0088 17.1645Z" fill="#184C9D"/>
<path d="M13.333 16.1422C13.333 16.0622 13.333 15.9556 13.333 15.9111C13.333 15.8667 13.5908 15.6622 13.7063 15.68C13.7741 15.7116 13.8326 15.7601 13.8762 15.8208C13.9197 15.8815 13.947 15.9524 13.9552 16.0267C13.9552 16.3911 13.9552 16.7645 13.9552 17.1378C13.9552 16.96 13.8752 16.7822 13.8486 16.6045C13.8219 16.4267 13.8486 16.3556 13.8486 16.2311C13.8486 15.9556 13.6797 15.9111 13.4486 16.0711L13.333 16.1422Z" fill="#184C9D"/>
<path d="M22.7461 17.3067L22.8883 16.2489C22.8883 16.4711 22.9416 16.7022 22.9594 16.9245C22.9302 16.9855 22.8976 17.0449 22.8616 17.1022L22.7461 17.3067Z" fill="#184C9D"/>
<path d="M20.1953 16.5067L20.2486 15.6622C20.3231 15.8302 20.3616 16.0118 20.3616 16.1956C20.3616 16.3793 20.3231 16.561 20.2486 16.7289L20.1953 16.5067Z" fill="#184C9D"/>
<path d="M13.4401 17.2178L13.3867 16.3822L13.4489 16.32C13.5484 16.6115 13.5453 16.9283 13.4401 17.2178Z" fill="#184C9D"/>
<path d="M12.5239 15.5645L12.595 16.5333C12.5506 16.5333 12.4795 16.4889 12.4795 16.4622C12.4884 16.16 12.5062 15.8578 12.5239 15.5645Z" fill="#184C9D"/>
<path d="M25.4482 18.08L25.6794 17.4044C25.6794 17.6533 25.7771 17.9378 25.4482 18.08Z" fill="#184C9D"/>
<path d="M20.2217 17.5556C20.0262 17.2978 20.1684 17.0045 20.1506 16.7289H20.2306L20.2217 17.5556Z" fill="#184C9D"/>
<path d="M25.6797 17.4045L25.7775 16.8889C25.9908 17.1467 25.7775 17.2711 25.6797 17.4045Z" fill="#184C9D"/>
<path d="M22.6846 17.8933L22.7646 17.3067L22.6846 17.8933Z" fill="#184C9D"/>
<path d="M12.2661 17.1111L12.2217 16.6311C12.4439 16.7822 12.3817 16.9422 12.2661 17.1111Z" fill="#184C9D"/>
<path d="M12.1777 16.4356V15.9378C12.32 16.0889 12.2844 16.2578 12.1777 16.4356Z" fill="#184C9D"/>
<path d="M25.4043 18.5778V18.1867C25.4373 18.2075 25.4646 18.2364 25.4835 18.2705C25.5023 18.3047 25.5122 18.3432 25.5122 18.3822C25.5122 18.4213 25.5023 18.4597 25.4835 18.4939C25.4646 18.5281 25.4373 18.557 25.4043 18.5778Z" fill="#184C9D"/>
<path d="M9.39551 20.0267C9.89329 19.9022 10.3911 19.7511 10.8888 19.6622C13.0328 19.3116 15.2077 19.1864 17.3777 19.2889C18.9647 19.3329 20.5445 19.5203 22.0977 19.8489C22.2666 19.8933 22.4266 19.9556 22.5955 20.0089C22.057 21.0255 21.2799 21.8963 20.3308 22.5466C19.3818 23.1968 18.2891 23.6071 17.1466 23.7422C16.88 23.7867 16.6044 23.7956 16.3377 23.8133C16.2933 23.8133 16.2577 23.7511 16.2222 23.7422C15.1212 23.6279 14.0608 23.2643 13.1213 22.679C12.1818 22.0937 11.388 21.3022 10.8 20.3644C10.7377 20.2667 10.6044 20.1422 10.5244 20.1511C10.2246 20.199 9.92776 20.2643 9.63551 20.3467L9.39551 20.0267ZM19.2622 21.6711V20.8533C19.2622 20.6756 19.1555 20.4889 18.9777 20.5422C18.5866 20.6667 18.2222 20.4356 17.8488 20.5422C17.6355 21.3778 17.6622 21.52 18.0355 21.5733C18.08 20.88 18.08 20.88 18.2755 20.7556C18.4711 21.0044 18.1066 21.4311 18.5244 21.6444C18.7822 21.3778 18.5244 20.9778 18.8266 20.7556C19.0488 20.9333 18.9066 21.1289 18.9066 21.3067C18.9066 21.4844 18.9066 21.6889 19.2622 21.7067V21.6711ZM13.6088 20.7822C13.3422 20.4889 13.2266 20.4533 12.9688 20.5956C12.8616 20.6558 12.7804 20.7536 12.741 20.8702C12.7016 20.9867 12.7068 21.1137 12.7555 21.2267C12.8533 21.5822 13.1555 21.7067 13.5644 21.5556C13.613 21.5217 13.6686 21.4993 13.7271 21.49C13.7857 21.4808 13.8455 21.485 13.9022 21.5022C14.2755 21.6356 14.3733 21.5644 14.5955 21.12L14.0533 20.72L14.4711 20.5867C14.4173 20.5457 14.3551 20.5172 14.289 20.5034C14.2229 20.4896 14.1545 20.4907 14.0888 20.5067C13.9822 20.5511 13.8488 20.6489 13.8311 20.7467C13.8133 20.8444 13.9022 20.9689 13.9822 21.0489C14.0816 21.1252 14.1889 21.1907 14.3022 21.2444C14.1066 21.5378 13.9022 21.2444 13.7155 21.2978C13.5067 21.3321 13.2959 21.3529 13.0844 21.36C13.0844 21.36 13.0844 21.3156 13.04 21.2622C13.1911 21.0756 13.5911 21.1467 13.6088 20.7911V20.7822ZM15.7333 20.9333L16.0977 20.4711L16.0444 20.4444L15.4666 20.8089C15.4666 20.5689 15.4666 20.3467 15.4666 20.1156C15.4666 19.8844 15.3422 19.9289 15.1644 20C15.1644 20.4356 15.1644 20.8889 15.1644 21.3067C15.1644 21.5289 15.3066 21.5644 15.4755 21.5111C15.4755 21.3689 15.4755 21.2622 15.4755 21.1378C15.7066 21.2533 15.7688 21.6267 16.1244 21.4844C16 21.2711 15.8755 21.1111 15.7333 20.9422V20.9333ZM16.6222 20.7644C16.7111 20.7644 16.7644 20.7022 16.8 20.7111C16.8355 20.72 17.04 20.7911 17.04 20.6222C17.04 20.4533 16.9511 20.4444 16.8 20.4444H16.3555V21.4222H16.6577L16.6222 20.7644ZM17.4577 20.4C17.3333 20.4533 17.2177 20.48 17.2177 20.5156C17.2009 20.8116 17.2009 21.1084 17.2177 21.4044C17.2177 21.4044 17.36 21.4667 17.4755 21.5111L17.4577 20.4ZM17.3688 19.8933C17.2888 19.9911 17.1911 20.0533 17.2 20.1244C17.2088 20.1956 17.2977 20.2489 17.3511 20.32C17.4222 20.2489 17.52 20.1956 17.5466 20.1156C17.5733 20.0356 17.4577 19.9822 17.3688 19.8844V19.8933Z" fill="#F9B64E"/>
<path d="M9.6084 20.3467C9.90087 20.2652 10.1976 20.1999 10.4973 20.1511C10.5862 20.1511 10.7195 20.2667 10.7728 20.3645C11.5924 21.712 12.8464 22.7403 14.3284 23.28C14.9333 23.5265 15.5713 23.6823 16.2217 23.7422C16.2662 23.7422 16.3017 23.7956 16.3373 23.8133C15.0661 23.9077 13.7923 23.6687 12.6418 23.12C11.4913 22.5712 10.5039 21.7317 9.77729 20.6845L9.6084 20.3467Z" fill="#FADB51"/>
<path d="M14.764 9.01335C13.8949 9.14146 13.1103 9.60396 12.5773 10.3022C12.3505 10.5808 12.2048 10.9165 12.1562 11.2724C12.1075 11.6284 12.1579 11.9908 12.3018 12.32C12.3208 12.3932 12.3357 12.4674 12.3462 12.5422C11.9551 12.3467 11.9551 11.92 11.7595 11.52C11.5872 11.5759 11.4181 11.6412 11.2529 11.7156C10.5379 12.0206 9.87277 12.4311 9.27954 12.9334C9.27954 12.9334 9.1551 12.9334 9.08398 12.9334C9.59407 12.3038 10.2183 11.776 10.924 11.3778C10.962 11.3461 11.0038 11.3192 11.0484 11.2978C11.2693 11.2163 11.4662 11.0809 11.6215 10.9039C11.7767 10.727 11.8853 10.514 11.9373 10.2845C12.0396 9.96225 12.2067 9.66435 12.4284 9.40908C12.65 9.1538 12.9215 8.94654 13.2262 8.80002C14.0785 8.274 15.0631 8.0021 16.0645 8.01627C17.0659 8.03044 18.0425 8.33009 18.8795 8.88002C19.2083 9.06787 19.4932 9.32356 19.7155 9.63009C19.9377 9.93662 20.0921 10.287 20.1684 10.6578C20.1915 10.75 20.2344 10.8359 20.2943 10.9097C20.3542 10.9834 20.4296 11.0431 20.5151 11.0845C21.1195 11.4667 21.7151 11.8578 22.2929 12.2845C22.5265 12.496 22.7407 12.7281 22.9329 12.9778C22.7775 12.9229 22.6284 12.8514 22.4884 12.7645C21.8033 12.2255 21.0346 11.8021 20.2129 11.5111C20.1062 11.5111 20.0084 11.4222 19.9018 11.3778C19.7482 10.7587 19.4116 10.2003 18.9359 9.77533C18.4602 9.35038 17.8675 9.07865 17.2351 8.99558C16.5157 8.80446 15.7589 8.80446 15.0395 8.99558L14.8262 9.06669L14.764 9.01335Z" fill="#DF2829"/>
<path d="M14.7734 9.02222L14.9779 8.95111L14.7734 9.02222Z" fill="#FADB51"/>
<path d="M7.76837 16.3378C7.7152 16.4385 7.68873 16.5511 7.69146 16.665C7.69419 16.7788 7.72605 16.8901 7.78398 16.9881C7.84192 17.0862 7.92401 17.1678 8.02242 17.2251C8.12083 17.2824 8.23228 17.3135 8.34615 17.3156C8.52873 17.3517 8.71768 17.3377 8.89296 17.2751C9.06823 17.2125 9.2233 17.1036 9.3417 16.96C9.43059 16.8356 9.51948 16.8622 9.62615 16.96V17.0044L9.51948 17.52V17.6267C9.43004 17.8711 9.26186 18.0789 9.0414 18.2173C8.82094 18.3557 8.56072 18.4168 8.3017 18.3911C8.05897 18.3955 7.82247 18.3141 7.63385 18.1613C7.44523 18.0084 7.31659 17.7939 7.27059 17.5556C7.27059 17.3156 7.27059 17.0756 7.27059 16.8267C7.26846 16.6538 7.30768 16.4829 7.385 16.3283C7.46231 16.1737 7.57547 16.0398 7.71503 15.9378C7.78383 15.8697 7.86663 15.8174 7.95769 15.7845C8.04874 15.7516 8.14586 15.739 8.24229 15.7475C8.33873 15.7559 8.43216 15.7853 8.5161 15.8335C8.60004 15.8817 8.67248 15.9476 8.72837 16.0267H8.58615C8.12392 15.8667 8.04392 15.8844 7.76837 16.3378Z" fill="#0275BD"/>
<path d="M8.74668 16C8.69079 15.921 8.61836 15.8551 8.53442 15.8068C8.45048 15.7586 8.35705 15.7293 8.26061 15.7208C8.16418 15.7123 8.06706 15.725 7.97601 15.7579C7.88495 15.7907 7.80215 15.843 7.73335 15.9111C7.59378 16.0131 7.48062 16.147 7.40331 16.3017C7.326 16.4563 7.28677 16.6272 7.28891 16.8C7.28891 17.04 7.28891 17.28 7.28891 17.5289C7.13811 17.2169 7.09645 16.8634 7.17059 16.5249C7.24473 16.1864 7.43039 15.8826 7.6978 15.6622C7.85616 15.5338 8.05388 15.4637 8.2578 15.4637C8.46171 15.4637 8.65943 15.5338 8.8178 15.6622C8.93335 15.7956 9.04891 15.9467 8.74668 16Z" fill="#184C9D"/>
<path d="M9.52832 17.6089V17.5022L9.63499 17.5733L9.52832 17.6089Z" fill="#469DD4"/>
<path d="M12.3467 12.5422L12.5422 12.8711L12.3467 12.5422Z" fill="#DF2829"/>
<path d="M18.0974 16.8889C18.044 17.0933 17.9018 17.2 17.7151 17.1289C17.6463 17.1002 17.5841 17.0578 17.5321 17.0043C17.4802 16.9508 17.4396 16.8874 17.4129 16.8178C17.3669 16.6407 17.343 16.4585 17.3418 16.2756C17.3951 16.2756 17.484 16.2756 17.5018 16.2311C17.5841 16.0825 17.6554 15.928 17.7151 15.7689C17.8751 15.9644 18.044 16.0622 18.0796 16.2044C18.1124 16.4311 18.1183 16.6608 18.0974 16.8889Z" fill="#0275BD"/>
<path d="M18.0972 16.8889C18.124 16.6615 18.124 16.4318 18.0972 16.2045C18.0972 16.0622 17.8927 15.9645 17.7327 15.7778C17.6694 15.9354 17.5982 16.0896 17.5194 16.24C17.5194 16.24 17.4127 16.24 17.3594 16.24C17.3647 16.111 17.3949 15.9843 17.4483 15.8667C17.5283 15.7422 17.6705 15.5645 17.7772 15.5733C17.861 15.5874 17.9409 15.6193 18.0115 15.6668C18.082 15.7144 18.1415 15.7764 18.186 15.8489C18.2828 16.0095 18.3263 16.1965 18.3103 16.3833C18.2944 16.5701 18.2197 16.7471 18.0972 16.8889Z" fill="#184C9D"/>
<path d="M24.7905 17.6089C24.7573 17.6799 24.7187 17.7483 24.675 17.8134C24.3816 18.1334 24.2039 18.1067 23.9639 17.6978C24.0238 17.6323 24.0571 17.5466 24.0571 17.4578C24.0571 17.369 24.0238 17.2833 23.9639 17.2178C23.9639 17.2178 23.9639 17.1467 23.9639 17.1111C24.2216 17.1111 24.3283 16.6489 24.6572 16.88C24.7105 17.1289 24.7461 17.3689 24.7905 17.6089Z" fill="#0275BD"/>
<path d="M24.7913 17.6089C24.7469 17.3689 24.7113 17.1289 24.6758 16.88C24.3469 16.6489 24.2402 17.1111 23.9824 17.1111C24.0356 16.9795 24.098 16.8518 24.1691 16.7289C24.2162 16.6436 24.2922 16.5779 24.3835 16.5436C24.4748 16.5094 24.5753 16.5089 24.6669 16.5422C24.7514 16.5707 24.823 16.6284 24.8687 16.7051C24.9143 16.7817 24.931 16.8721 24.9158 16.96C24.8891 17.1822 24.8358 17.3956 24.7913 17.6089Z" fill="#184C9D"/>
<path d="M23.9463 17.2178C24.0044 17.2842 24.0365 17.3695 24.0365 17.4578C24.0365 17.5461 24.0044 17.6314 23.9463 17.6978V17.2178Z" fill="#184C9D"/>
<path d="M11.3776 17.2356C11.1731 17.5289 11.0398 17.5733 10.8353 17.3689C10.7327 17.2373 10.6517 17.0903 10.5953 16.9333C10.5914 16.8074 10.6064 16.6815 10.6398 16.56C10.702 16.4444 10.8264 16.2667 10.9064 16.2756C10.9806 16.2878 11.0508 16.3175 11.1111 16.3624C11.1714 16.4072 11.2201 16.4658 11.2531 16.5333C11.3226 16.7616 11.3644 16.9973 11.3776 17.2356Z" fill="#0275BD"/>
<path d="M11.3776 17.2356C11.3597 16.9979 11.318 16.7627 11.2531 16.5333C11.22 16.465 11.1715 16.4054 11.1113 16.3591C11.0511 16.3128 10.981 16.2812 10.9065 16.2667C10.8265 16.2667 10.702 16.4444 10.6398 16.56C10.6022 16.6807 10.5872 16.8072 10.5954 16.9333C10.5297 16.8215 10.4951 16.6941 10.4951 16.5645C10.4951 16.4348 10.5297 16.3074 10.5954 16.1956C10.6125 16.1221 10.6526 16.0559 10.7098 16.0067C10.767 15.9575 10.8384 15.9278 10.9136 15.9219C10.9889 15.9159 11.064 15.9341 11.1283 15.9737C11.1925 16.0133 11.2424 16.0723 11.2709 16.1422C11.3871 16.2972 11.4585 16.4812 11.4773 16.674C11.4961 16.8668 11.4616 17.061 11.3776 17.2356Z" fill="#184C9D"/>
<path d="M9.62695 16.9867V16.9334L9.70695 16.4356V17.0134C9.6782 17.0128 9.65031 17.0035 9.62695 16.9867Z" fill="#469DD4"/>
<path d="M19.2002 13.4311H18.9691C18.9532 13.4308 18.9376 13.4266 18.9236 13.4188C18.9097 13.4111 18.8978 13.4 18.8891 13.3867C18.818 13.2711 18.7114 13.1467 18.7202 13.0222C18.7291 12.8978 18.9869 12.72 19.2625 12.7467C19.538 12.7733 19.6447 12.8356 19.6891 13.0667C19.7336 13.2978 19.6002 13.36 19.4402 13.4222C19.3608 13.4337 19.2803 13.4366 19.2002 13.4311Z" fill="#F5F6F8"/>
<path d="M20.2314 16.72H20.1514C20.1514 16.6489 20.1514 16.5778 20.1514 16.4978L20.2314 16.72Z" fill="#469DD4"/>
<path d="M19.2622 21.6711C18.9155 21.6711 18.8978 21.4844 18.8978 21.2711C18.8978 21.0578 19.04 20.8978 18.8266 20.72C18.5155 20.96 18.7733 21.36 18.5155 21.6089C18.1066 21.4044 18.4622 20.9778 18.2755 20.72C18.0711 20.8444 18.0711 20.8444 18.0355 21.5378C17.6622 21.4844 17.6355 21.3422 17.8489 20.5067C18.2222 20.4089 18.5866 20.64 18.9778 20.5067C19.1555 20.4533 19.2533 20.64 19.2622 20.8178V21.6711Z" fill="#184C9D"/>
<path d="M13.609 20.7911C13.609 21.1467 13.1912 21.0756 13.0401 21.2711C13.0401 21.3156 13.0401 21.3689 13.0845 21.3689C13.2962 21.3584 13.5069 21.3346 13.7156 21.2978C13.9023 21.2978 14.1067 21.5467 14.3023 21.2444C14.1877 21.1969 14.0801 21.1341 13.9823 21.0578C13.8934 20.9689 13.8045 20.8356 13.8312 20.7467C13.8551 20.692 13.8905 20.643 13.935 20.6032C13.9795 20.5633 14.032 20.5334 14.089 20.5156C14.1541 20.5006 14.2217 20.4993 14.2874 20.5115C14.3532 20.5237 14.4157 20.5493 14.4712 20.5867L14.0534 20.72L14.5956 21.12C14.3645 21.5733 14.2756 21.6444 13.9023 21.5111C13.7423 21.4578 13.6712 21.5111 13.5556 21.5644C13.1556 21.7156 12.8534 21.5644 12.7467 21.2356C12.698 21.1226 12.6929 20.9956 12.7323 20.8791C12.7717 20.7625 12.8528 20.6647 12.9601 20.6044C13.2267 20.4444 13.3334 20.4978 13.609 20.7911ZM13.3512 20.8356C13.0845 20.7733 13.0845 20.7733 12.9956 21.0756L13.3512 20.8356Z" fill="#184C9D"/>
<path d="M15.7327 20.9422L16.1504 21.4578C15.7949 21.6 15.7415 21.2356 15.5015 21.1111V21.4844C15.3327 21.5378 15.1993 21.4845 15.1904 21.28C15.1904 20.8445 15.1904 20.3911 15.1904 19.9733C15.3682 19.9022 15.4838 19.92 15.4927 20.0978C15.5015 20.2756 15.4927 20.5422 15.4927 20.7822L16.0793 20.4178L16.1238 20.48L15.7327 20.9422Z" fill="#184C9D"/>
<path d="M16.6577 20.7734V21.4845H16.3555V20.5067C16.5035 20.516 16.6519 20.516 16.7999 20.5067C16.951 20.5067 17.0755 20.5067 17.0755 20.6667C17.0755 20.8267 16.9421 20.7911 16.8355 20.7556C16.7288 20.72 16.7466 20.7467 16.6577 20.7734Z" fill="#184C9D"/>
<path d="M17.4932 20.4445V21.5822C17.3777 21.5289 17.2355 21.5022 17.2355 21.4667C17.2184 21.1706 17.2184 20.8738 17.2355 20.5778C17.2355 20.5778 17.3688 20.4445 17.4932 20.4445Z" fill="#184C9D"/>
<path d="M17.4042 19.8933C17.4931 19.9911 17.5998 20.08 17.582 20.1245C17.5642 20.1689 17.4576 20.2578 17.3865 20.3289C17.3331 20.2578 17.2354 20.1956 17.2354 20.1245C17.2354 20.0533 17.3242 20 17.4042 19.8933Z" fill="#184C9D"/>
<path d="M13.3331 20.8356L12.9775 21.0756C13.0842 20.7734 13.0842 20.7734 13.3331 20.8356Z" fill="#F9B64E"/>
</g>
<defs>
<clipPath id="clip0_2707_355128">
<rect width="32" height="32" fill="white"/>
</clipPath>
</defs>
</svg>
