<svg width="32" height="32" viewBox="0 0 32 32" fill="none" xmlns="http://www.w3.org/2000/svg">
<g clip-path="url(#clip0_2737_120956)">
<mask id="mask0_2737_120956" style="mask-type:luminance" maskUnits="userSpaceOnUse" x="0" y="0" width="32" height="32">
<path d="M31.9909 0.0178223H0.0175781V31.9912H31.9909V0.0178223Z" fill="white"/>
</mask>
<g mask="url(#mask0_2737_120956)">
<path d="M15.9998 31.9823C24.8265 31.9823 31.982 24.8268 31.982 16C31.982 7.17331 24.8265 0.0178223 15.9998 0.0178223C7.17306 0.0178223 0.0175781 7.17331 0.0175781 16C0.0175781 24.8268 7.17306 31.9823 15.9998 31.9823Z" fill="white"/>
<path d="M23.3151 6.14229C23.3684 6.20451 23.4217 6.26673 23.4662 6.32896C23.4928 6.36451 23.5284 6.40896 23.5551 6.44451C25.2617 8.41785 26.444 10.6401 26.9151 13.2267C27.1106 14.3023 27.1373 15.3778 27.0128 16.4623C26.9062 17.3867 26.6662 18.2934 26.3995 19.1823L26.1862 19.7601C26.1862 19.7601 26.1595 19.7601 26.1506 19.7601C26.1506 19.6978 26.1506 19.6267 26.1506 19.5645C26.2306 18.8001 26.3106 18.0356 26.3817 17.2712C26.4617 16.4356 26.5417 15.6001 26.6217 14.7645C26.6573 14.3378 26.6929 13.9023 26.7284 13.4756C26.7284 13.4312 26.7373 13.3956 26.7462 13.3423C26.204 13.3423 25.6884 13.3423 25.164 13.3423C25.1373 13.3423 25.084 13.4045 25.0751 13.4401C25.0395 13.6356 25.0217 13.8312 24.9951 14.0267C24.8351 13.8134 24.6306 13.6445 24.3817 13.5378C24.3373 13.5201 24.2929 13.5112 24.2484 13.4934C24.2129 13.4578 24.1773 13.4223 24.1328 13.4045C23.7062 13.2356 23.2617 13.1912 22.8084 13.2001C21.7773 13.2356 20.9151 13.6178 20.2662 14.4445C19.724 15.1378 19.4751 15.9467 19.4395 16.8267C19.4129 17.4134 19.484 17.9823 19.7595 18.5156C19.9462 18.8712 20.1862 19.1823 20.5329 19.3867C20.5329 19.3867 20.5684 19.4045 20.5862 19.4134C20.5951 19.4134 20.604 19.4312 20.6129 19.4401C21.1817 19.8223 21.8217 19.929 22.4884 19.9112C23.2084 19.8934 23.8395 19.6267 24.3995 19.1734C24.4351 19.1467 24.4706 19.1201 24.5062 19.0845C24.5062 19.0845 24.5062 19.0845 24.5417 19.0667C24.5417 19.129 24.5417 19.1823 24.5329 19.2356C24.5062 19.449 24.4973 19.6623 24.4528 19.8756C24.3551 20.3645 24.1417 20.7823 23.6795 21.0312C23.3951 21.1823 23.0929 21.2623 22.7729 21.2623C22.4262 21.2623 22.0795 21.2356 21.724 21.2178C21.4484 21.0934 21.2084 20.9245 21.1284 20.6045C21.1195 20.5601 21.1017 20.5156 21.0928 20.4712C21.0928 20.4178 21.084 20.3645 21.0751 20.3023C20.9062 20.3023 20.7462 20.3023 20.5862 20.3023C20.1684 20.3023 19.7506 20.3023 19.3417 20.3023C19.3151 20.3023 19.2884 20.3023 19.2528 20.3023C19.2173 20.2756 19.164 20.249 19.1462 20.2045C18.7817 19.0934 18.5951 17.9645 18.764 16.7912C18.8884 15.8934 19.2173 15.0756 19.6706 14.3023C20.1773 13.4401 20.8084 12.6667 21.404 11.8756C21.9906 11.1023 22.5417 10.3112 22.9151 9.40451C23.3062 8.43562 23.4306 7.42229 23.2884 6.39118C23.2795 6.30229 23.2617 6.2134 23.244 6.12451H23.2973L23.3151 6.14229Z" fill="#086BCC"/>
<path d="M16.2933 20.3467C16.2933 20.3467 16.2489 20.2667 16.2577 20.2311C16.3466 19.28 16.4355 18.3289 16.5244 17.3867C16.5689 16.9511 16.6133 16.5067 16.6311 16.0711C16.6311 15.8667 16.5955 15.6622 16.5333 15.4667C16.4977 15.36 16.3911 15.2711 16.3111 15.1734C16.3111 15.1734 16.2933 15.1645 16.2844 15.1556C16.2044 15.1111 16.1333 15.0489 16.0533 15.0222C15.5022 14.8445 14.9955 14.9334 14.5244 15.2622C14.0177 15.6178 13.8133 16.1422 13.7511 16.7289C13.6355 17.8845 13.5289 19.04 13.4311 20.1956C13.4222 20.3111 13.3955 20.3467 13.2711 20.3467C12.7733 20.3467 12.2755 20.3467 11.7689 20.3467C11.7689 20.3022 11.7422 20.2578 11.7422 20.2134C11.8311 19.2889 11.92 18.3645 12 17.4311C12.08 16.6045 12.1511 15.7778 12.2311 14.9422C12.2666 14.5156 12.3111 14.08 12.3555 13.6534C12.3555 13.6178 12.4089 13.5467 12.4355 13.5467C12.9689 13.5467 13.4933 13.5467 14.0355 13.5467C14.0355 13.6 14.0444 13.6356 14.0533 13.6711C14.0266 13.8578 14 14.0534 13.9733 14.24C13.9911 14.24 14 14.2489 14.0177 14.2578C14.0889 14.1867 14.16 14.1067 14.2311 14.0356C14.5155 13.8311 14.8089 13.6267 15.1555 13.52C16.0177 13.2711 16.8533 13.2889 17.6266 13.7778C17.7333 13.84 17.8133 13.9378 17.9111 14.0178C18.32 14.5422 18.4 15.1467 18.3466 15.7867C18.32 16.08 18.2933 16.3822 18.2666 16.6756C18.1689 17.7422 18.0711 18.8178 17.9644 19.8845C17.9466 20.0267 17.9377 20.1778 17.92 20.3378H16.2933V20.3467Z" fill="#086BCC"/>
<path d="M6.42648 20.2045C5.40426 19.7512 4.85315 18.9512 4.71981 17.849C4.62203 17.0045 4.7287 16.1956 5.10203 15.4312C5.66203 14.2756 6.60426 13.6268 7.85759 13.4045C8.41759 13.3068 8.97759 13.3068 9.53759 13.4312C10.1243 13.5645 10.6398 13.8223 11.0665 14.2579C11.0931 14.3023 11.1198 14.3379 11.1376 14.3823C11.262 14.6134 11.4043 14.8356 11.502 15.0668C11.6176 15.3423 11.6531 15.6356 11.6531 15.9379C11.6087 15.9379 11.5731 15.9379 11.5376 15.9379C11.1198 15.9379 10.702 15.9379 10.2843 15.9468C10.2131 15.9468 10.142 15.9556 10.0709 15.9645C10.0354 15.9645 10.0087 15.9645 9.97315 15.9645C9.94648 15.9645 9.91092 15.9645 9.87537 15.9645C9.81314 15.529 9.61759 15.1912 9.19092 15.0312C9.09315 14.9868 8.99537 14.9156 8.89759 14.8979C8.18648 14.7823 7.55537 14.9512 7.08426 15.5023C6.53314 16.1423 6.39981 16.8979 6.53315 17.7156C6.59537 18.0712 6.74648 18.3912 7.03092 18.6312C7.03981 18.6401 7.06648 18.6312 7.08426 18.6401C7.31537 18.8712 7.61759 18.9156 7.91981 18.9245C8.14203 18.9245 8.36426 18.8979 8.57759 18.8623C8.97759 18.7912 9.27092 18.5512 9.46648 18.1956C9.54648 18.0534 9.6087 17.8934 9.67981 17.7423C9.69759 17.7068 9.74203 17.6623 9.77759 17.6623C10.3376 17.6534 10.8887 17.6445 11.4487 17.6356C11.5198 17.6356 11.5465 17.6623 11.5287 17.7334C11.4931 17.8401 11.4665 17.9379 11.4309 18.0445C11.0843 19.129 10.3909 19.8845 9.29759 20.249C8.33759 20.569 7.37759 20.5068 6.42648 20.1956" fill="#086BCC"/>
<path d="M22.1774 18.5512C22.1062 18.5156 22.0351 18.4712 21.9729 18.4356C21.5018 18.1778 21.2796 17.769 21.2174 17.2534C21.1374 16.5423 21.2796 15.8934 21.7418 15.3334C22.364 14.5867 23.5107 14.489 24.2574 15.1201C24.2929 15.1556 24.3285 15.1823 24.364 15.2178C24.364 15.2356 24.364 15.2623 24.3818 15.2801C24.5507 15.4667 24.6396 15.689 24.684 15.929C24.7818 16.4534 24.7107 16.9601 24.5062 17.449C24.2129 18.1423 23.5818 18.6578 22.7285 18.6045C22.5418 18.5956 22.3551 18.569 22.1685 18.5512" fill="#086BCC"/>
<path d="M22.284 25.6889C22.2129 25.7333 22.1863 25.6889 22.1418 25.6356C21.7952 25.1111 21.4307 24.6045 21.1107 24.0711C20.7463 23.4667 20.4174 22.8445 20.0707 22.2311C20.0618 22.2133 20.0529 22.1867 20.0352 22.1333C20.1329 22.1867 20.204 22.2222 20.2663 22.2667C20.7285 22.6045 21.2707 22.7378 21.8307 22.8178C22.4796 22.9067 23.1285 22.9067 23.7774 22.7733C24.4085 22.6489 24.9863 22.3911 25.484 21.9556C25.3952 22.1067 25.3063 22.2578 25.2263 22.4089C25.1996 22.4533 25.164 22.4978 25.1374 22.5422C24.5596 23.44 23.9018 24.2667 23.1196 24.9956C22.8529 25.2356 22.5685 25.4578 22.3018 25.6889" fill="#086BCC"/>
<path d="M26.4177 19.1822C26.6844 18.2934 26.9244 17.3867 27.031 16.4622C27.1555 15.3778 27.1288 14.2934 26.9333 13.2267C26.4622 10.6489 25.2799 8.4178 23.5733 6.44446C23.5377 6.40891 23.511 6.36446 23.4844 6.32891C23.5377 6.23113 23.5644 6.32891 23.5822 6.35557C23.7866 6.58669 23.9999 6.8178 24.1955 7.0578C25.2444 8.36446 26.071 9.79557 26.631 11.3778C26.9866 12.3734 27.2088 13.3867 27.2977 14.4445C27.3777 15.4845 27.3155 16.5156 27.1022 17.5289C26.9422 18.32 26.7288 19.0934 26.4444 19.8489C26.4266 19.8934 26.4177 19.9289 26.3822 19.9734C26.3999 19.7156 26.4177 19.4578 26.4355 19.2" fill="#EDA525"/>
<path d="M20.5683 19.3867C20.2216 19.1734 19.9727 18.8711 19.7949 18.5156C19.5194 17.9823 19.4483 17.4134 19.4749 16.8267C19.5105 15.9556 19.7594 15.1467 20.3016 14.4445C20.9416 13.6178 21.8038 13.2356 22.8438 13.2C23.2972 13.1823 23.7416 13.2356 24.1683 13.4045C24.2127 13.4223 24.2483 13.4667 24.2838 13.4934C24.0972 13.4578 23.9105 13.4045 23.7238 13.3778C21.9194 13.1378 20.506 14.0089 19.9283 15.68C19.6438 16.5245 19.5905 17.3867 19.8483 18.2489C19.9727 18.6667 20.2038 19.0223 20.5238 19.3156C20.5416 19.3334 20.5594 19.36 20.5772 19.3778" fill="#EDA525"/>
<path d="M11.7686 20.3467C12.2663 20.3467 12.7641 20.3378 13.2708 20.3467C13.3952 20.3467 13.4219 20.3111 13.4308 20.1956C13.5374 19.04 13.6441 17.8845 13.7508 16.7289C13.8041 16.1333 14.0174 15.6178 14.5241 15.2622C14.9952 14.9333 15.5019 14.8533 16.053 15.0222C16.133 15.0489 16.2041 15.1111 16.2841 15.1556C15.9197 15.0578 15.5552 15.04 15.1908 15.1556C14.4797 15.3956 14.0974 15.92 13.9908 16.64C13.893 17.2711 13.8574 17.92 13.7952 18.56C13.733 19.1733 13.6797 19.7867 13.6263 20.4C13.6263 20.4178 13.6174 20.4445 13.6086 20.48H13.2174C12.8352 20.48 12.453 20.48 12.0708 20.48C11.9819 20.48 11.9197 20.48 11.9374 20.3556H11.7686V20.3467Z" fill="#EDA525"/>
<path d="M16.293 20.3467H17.9196C17.9374 20.1867 17.9552 20.0445 17.9641 19.8934C18.0619 18.8267 18.1596 17.7512 18.2663 16.6845C18.293 16.3912 18.3196 16.089 18.3463 15.7956C18.4085 15.1556 18.3285 14.5512 17.9107 14.0267C17.9552 14.0534 18.0085 14.0623 18.0441 14.0978C18.4174 14.4623 18.5596 14.9334 18.5596 15.4312C18.5596 15.8223 18.5241 16.2223 18.4885 16.6134C18.4441 17.1556 18.3819 17.6978 18.3374 18.2401C18.2752 18.9423 18.2041 19.6445 18.1419 20.3467C18.1419 20.3823 18.133 20.4178 18.1241 20.4623H17.8574C17.4307 20.4623 17.013 20.4623 16.5863 20.4623C16.4974 20.4623 16.4352 20.4534 16.453 20.3378H16.3019L16.293 20.3467Z" fill="#EDA525"/>
<path d="M6.42676 20.2045C7.37787 20.5156 8.33787 20.5779 9.29787 20.2579C10.3912 19.8934 11.0845 19.1379 11.4312 18.0534C11.4668 17.9468 11.4934 17.849 11.529 17.7423C11.6001 17.7601 11.6623 17.7779 11.7601 17.7956C11.689 18.0179 11.6268 18.249 11.5379 18.4623C11.0756 19.609 10.2223 20.2756 9.02231 20.5156C8.25787 20.6668 7.50231 20.6134 6.76454 20.3645C6.64898 20.329 6.54231 20.249 6.42676 20.1956" fill="#EDA525"/>
<path d="M22.2843 25.6889C22.5598 25.4578 22.8443 25.2356 23.1021 24.9956C23.8843 24.2756 24.5509 23.44 25.1198 22.5422C25.1465 22.4978 25.1821 22.4533 25.2087 22.4089C25.3687 22.2933 25.5198 22.1867 25.6976 22.0533C24.8443 23.5467 23.8043 24.8445 22.4176 25.8667C22.3643 25.8045 22.3198 25.7422 22.2754 25.6889" fill="#EDA525"/>
<path d="M7.08432 18.649C7.08432 18.649 7.03988 18.649 7.03099 18.6401C6.74654 18.4001 6.59543 18.0801 6.53321 17.7245C6.39988 16.9067 6.53321 16.1512 7.08432 15.5112C7.56432 14.9601 8.19543 14.7912 8.89766 14.9067C9.00432 14.9245 9.09321 14.9956 9.19099 15.0401C9.1021 15.0401 9.00432 15.0401 8.91543 15.0401C8.3821 14.9779 7.9021 15.1112 7.48432 15.4579C7.04877 15.8223 6.83543 16.3023 6.73766 16.8534C6.65766 17.3067 6.66654 17.7601 6.82654 18.1956C6.88877 18.3645 6.99543 18.5067 7.07543 18.6667" fill="#EDA525"/>
<path d="M22.1777 18.5512C22.3644 18.569 22.5511 18.5957 22.7377 18.6046C23.5822 18.6579 24.2133 18.1423 24.5155 17.449C24.72 16.9601 24.7911 16.4535 24.6933 15.929C24.6488 15.689 24.56 15.4579 24.3911 15.2801C24.3822 15.2623 24.3822 15.2446 24.3733 15.2179C24.4266 15.2535 24.4977 15.2801 24.5422 15.3246C24.7822 15.5735 24.9066 15.8846 24.9333 16.2223C24.9866 16.8712 24.8711 17.4757 24.48 18.009C24.1066 18.5246 23.5911 18.7735 22.9511 18.7468C22.6844 18.729 22.4177 18.7023 22.1777 18.5512Z" fill="#EDA525"/>
<path d="M21.751 21.2267C22.0976 21.2445 22.4443 21.2712 22.7999 21.2712C23.1199 21.2712 23.4221 21.1912 23.7065 21.0401C24.1688 20.7912 24.3821 20.3734 24.4799 19.8845C24.5243 19.6712 24.5332 19.4579 24.5599 19.2445C24.5599 19.2712 24.5599 19.3067 24.5599 19.3601C24.6399 19.2979 24.6932 19.2534 24.7821 19.2001C24.7288 19.9023 24.7021 20.5867 24.1065 21.0667C23.8665 21.2623 23.5821 21.3512 23.2799 21.3956C22.8088 21.4579 22.3465 21.4579 21.8932 21.3245C21.8488 21.3067 21.8043 21.2712 21.7599 21.2445" fill="#EDA525"/>
<path d="M10.0625 15.9823C10.1336 15.9823 10.2047 15.9734 10.2758 15.9645C10.6936 15.9645 11.1114 15.9645 11.5292 15.9556C11.5647 15.9556 11.6003 15.9556 11.6447 15.9556C11.6447 15.6534 11.6092 15.3601 11.4936 15.0845C11.3958 14.8445 11.2536 14.6223 11.1292 14.4001C11.1025 14.3556 11.0758 14.3201 11.0581 14.2756C11.1114 14.3112 11.1736 14.3379 11.2181 14.3823C11.6625 14.8623 11.8492 15.449 11.8669 16.1067H10.0803C10.0803 16.1067 10.0714 16.0356 10.0625 15.9912" fill="#EDA525"/>
<path d="M25.0225 14.0267C25.0491 13.8312 25.0669 13.6356 25.1025 13.4401C25.1025 13.4045 25.1558 13.3423 25.1914 13.3423C25.7069 13.3423 26.2314 13.3423 26.7736 13.3423C26.7736 13.3956 26.7558 13.4401 26.7558 13.4756H25.3336C25.3069 13.7067 25.2802 13.929 25.2536 14.1512C25.1558 14.1245 25.1558 13.9645 25.0225 14.0267Z" fill="#EDA525"/>
<path d="M19.3594 20.3112C19.7772 20.3112 20.1949 20.3112 20.6038 20.3112C20.7638 20.3112 20.9149 20.3112 21.0927 20.3112C21.0927 20.3734 21.1016 20.4267 21.1105 20.48C21.066 20.48 21.0216 20.4534 20.986 20.4534C20.4972 20.4534 20.0172 20.4445 19.5283 20.4534C19.4216 20.4534 19.3683 20.4267 19.3594 20.32" fill="#EDA525"/>
<path d="M14.2314 14.0356C14.1603 14.1067 14.0892 14.1867 14.0181 14.2578C14.0003 14.2578 13.9914 14.2489 13.9736 14.24C14.0003 14.0534 14.027 13.8578 14.0536 13.6711C14.1159 13.6711 14.1781 13.6711 14.2492 13.68C14.2492 13.8045 14.2403 13.9111 14.2314 14.0267" fill="#EDA525"/>
<path d="M20.6129 19.4134C20.6129 19.4134 20.5773 19.3956 20.5596 19.3778C20.5773 19.3867 20.5951 19.3956 20.6129 19.4134Z" fill="#EDA525"/>
<path d="M16.2842 15.1467C16.2842 15.1467 16.302 15.1556 16.3108 15.1645C16.3108 15.1645 16.2931 15.1556 16.2842 15.1467Z" fill="#EDA525"/>
<path d="M20.6399 19.4312C20.6399 19.4312 20.6222 19.4134 20.6133 19.4045C20.6222 19.4045 20.6311 19.4223 20.6399 19.4312Z" fill="#EDA525"/>
</g>
</g>
<defs>
<clipPath id="clip0_2737_120956">
<rect width="32" height="32" fill="white"/>
</clipPath>
</defs>
</svg>
