<svg width="32" height="32" viewBox="0 0 32 32" fill="none" xmlns="http://www.w3.org/2000/svg">
<g clip-path="url(#clip0_2707_353143)">
<path d="M15.9998 31.9823C24.8265 31.9823 31.982 24.8268 31.982 16C31.982 7.17331 24.8265 0.0178223 15.9998 0.0178223C7.17306 0.0178223 0.0175781 7.17331 0.0175781 16C0.0175781 24.8268 7.17306 31.9823 15.9998 31.9823Z" fill="white"/>
<path d="M4.69354 17.3779H2.76465V14.6223H3.85798L3.58243 14.8001C3.41573 14.9116 3.28067 15.0644 3.19034 15.2435C3.10002 15.4226 3.05749 15.6219 3.06687 15.8223C3.06878 16.0796 3.14318 16.3312 3.28153 16.5482C3.41989 16.7651 3.61659 16.9387 3.84909 17.049C4.09798 17.1645 4.38243 17.2534 4.69354 17.3779Z" fill="#0A974B"/>
<path d="M5.39559 14.9334L4.79115 14.6223H5.68003V16.0001C5.48754 16.1125 5.27702 16.1907 5.05781 16.2312C4.91938 16.2489 4.77879 16.2265 4.65273 16.1666C4.52668 16.1067 4.42046 16.0119 4.3467 15.8934C4.29918 15.8034 4.27288 15.7038 4.26983 15.6021C4.26678 15.5004 4.28705 15.3993 4.32909 15.3066C4.37114 15.214 4.43384 15.1322 4.51238 15.0675C4.59093 15.0028 4.68325 14.9569 4.78226 14.9334C4.98596 14.958 5.19189 14.958 5.39559 14.9334Z" fill="#2077BC"/>
<path d="M12.6223 17.3422L13.1556 16.16H13.3334L13.8312 17.3511H13.6001L13.4756 17.0311H13.0134L12.8712 17.3422H12.4445L12.1245 16.8889H11.9378V17.3689H11.7334V16.1422C11.8901 16.1287 12.0478 16.1287 12.2045 16.1422C12.489 16.2222 12.5334 16.4533 12.3823 16.7022L12.3112 16.7911L12.6223 17.3422ZM11.9556 16.64C12.0534 16.64 12.1601 16.64 12.2134 16.5867C12.2307 16.5586 12.2399 16.5263 12.2399 16.4933C12.2399 16.4604 12.2307 16.4281 12.2134 16.4C12.1601 16.3022 12.0534 16.3378 11.9556 16.3467V16.64ZM13.3512 16.8267L13.2267 16.5333L13.1112 16.8267H13.3512Z" fill="black"/>
<path d="M18.4177 17.3422L18.9599 16.16H19.1199L19.6177 17.3511H19.3955L19.271 17.0311H18.8088L18.6755 17.3422H18.2044L17.9288 16.8889H17.7777V17.3689H17.5732V16.1422C17.727 16.1289 17.8817 16.1289 18.0355 16.1422C18.3199 16.2222 18.3732 16.4533 18.2132 16.7022L18.1421 16.7911L18.4177 17.3422ZM17.7777 16.64C17.8844 16.64 17.9821 16.64 18.0444 16.5867C18.0573 16.5573 18.064 16.5255 18.064 16.4933C18.064 16.4612 18.0573 16.4294 18.0444 16.4C17.9821 16.3022 17.8844 16.3378 17.7777 16.3467V16.64ZM19.1821 16.8267L19.0577 16.5333L18.9421 16.8267H19.1821Z" fill="black"/>
<path d="M21.9912 17.369L22.5334 16.1334H22.6934L23.1912 17.3779H22.969L22.8445 17.0401H22.3823L22.249 17.369C22.1631 17.3737 22.0771 17.3737 21.9912 17.369ZM22.729 16.8356L22.6045 16.5334L22.489 16.8356H22.729Z" fill="black"/>
<path d="M21.2179 17.3422H21.0046L20.729 16.8889H20.5423V17.3689H20.3379V16.1422C20.4917 16.1289 20.6463 16.1289 20.8001 16.1422C21.0846 16.2222 21.1379 16.4533 20.9868 16.7022L20.9068 16.7911L21.2179 17.3422ZM20.5512 16.64C20.6579 16.64 20.7646 16.64 20.8179 16.5867C20.8309 16.5573 20.8376 16.5255 20.8376 16.4933C20.8376 16.4612 20.8309 16.4294 20.8179 16.4C20.7557 16.3022 20.6579 16.3378 20.5512 16.3467V16.64Z" fill="black"/>
<path d="M24.5064 16.3556V17.3778H24.3108C24.3108 17.3778 24.3108 16.489 24.3108 16.3556H23.9375V16.1334H25.1642L25.4664 16.5156L25.7953 16.1245H25.9997L25.5642 16.6667V17.369H25.3775V16.6845L24.9864 16.1245V16.3378L24.5064 16.3556Z" fill="black"/>
<path d="M21.333 17.3779V16.1334H21.9819V16.3379H21.5641C21.5641 16.4356 21.5641 16.5245 21.5641 16.6401H21.9908V16.889H21.5819V17.2001H21.9641V17.4134L21.333 17.3779Z" fill="black"/>
<path d="M16.3111 16.1334C16.3111 16.1334 16.3111 16.5778 16.3111 17.0222C16.3111 17.28 15.9734 17.44 15.6 17.3422C15.4964 17.3188 15.4052 17.2575 15.3444 17.1703C15.2836 17.0832 15.2574 16.9765 15.2711 16.8711C15.2711 16.6222 15.2711 16.1067 15.2711 16.1067H15.4667V16.8889C15.4667 17.0667 15.5645 17.1556 15.7245 17.1556C15.8845 17.1556 16.0534 17.0934 16.0978 16.9156C16.1422 16.7378 16.0978 16.1156 16.0978 16.1156L16.3111 16.1334Z" fill="black"/>
<path d="M10.0441 16.4C9.90571 16.3582 9.76192 16.3372 9.6174 16.3378C9.5606 16.3348 9.50384 16.3443 9.45107 16.3655C9.39831 16.3867 9.3508 16.4192 9.31188 16.4607C9.27295 16.5021 9.24353 16.5516 9.22568 16.6056C9.20783 16.6596 9.20197 16.7168 9.20851 16.7733C9.2057 16.827 9.2145 16.8806 9.2343 16.9305C9.25411 16.9804 9.28446 17.0255 9.32327 17.0626C9.36209 17.0998 9.40846 17.1281 9.45922 17.1456C9.50998 17.1632 9.56393 17.1696 9.6174 17.1644C9.77309 17.1528 9.92763 17.129 10.0796 17.0933V17.2711C9.83866 17.341 9.5828 17.341 9.34184 17.2711C9.23958 17.2217 9.15446 17.1428 9.09743 17.0446C9.0404 16.9463 9.01407 16.8333 9.02184 16.72C9.02184 15.8933 10.0263 16.1867 10.0263 16.1867C10.0457 16.256 10.0517 16.3284 10.0441 16.4Z" fill="black"/>
<path d="M14.6224 16.8889V17.3156H14.418C14.418 17.3156 14.418 16.4267 14.418 16.1422C14.5969 16.1061 14.7813 16.1061 14.9602 16.1422C15.0307 16.1644 15.0926 16.2079 15.1372 16.2669C15.1818 16.3258 15.2069 16.3972 15.2091 16.4711C15.2054 16.5492 15.1779 16.6244 15.1302 16.6864C15.0825 16.7484 15.017 16.7942 14.9424 16.8178C14.8388 16.8535 14.7314 16.8774 14.6224 16.8889ZM14.6224 16.6667C14.6224 16.6667 14.8713 16.6667 14.9513 16.5689C14.9686 16.5458 14.978 16.5177 14.978 16.4889C14.978 16.46 14.9686 16.432 14.9513 16.4089C14.8624 16.2933 14.6313 16.3467 14.6313 16.3467V16.6667H14.6224Z" fill="black"/>
<path d="M6.8354 16.8889V17.36H6.62207V16.1333C6.80696 16.1164 6.99339 16.1314 7.17318 16.1778C7.33318 16.2311 7.37763 16.3022 7.37763 16.4889C7.37763 16.6755 7.30651 16.8089 7.14651 16.8444C7.04472 16.8704 6.94041 16.8853 6.8354 16.8889ZM6.8354 16.6755H7.04874C7.08497 16.6756 7.11986 16.6619 7.14629 16.6371C7.17272 16.6123 7.1887 16.5784 7.19096 16.5422C7.19123 16.5074 7.17871 16.4737 7.15577 16.4474C7.13284 16.4212 7.10108 16.4043 7.06651 16.4C6.99251 16.3954 6.91829 16.3954 6.84429 16.4L6.8354 16.6755Z" fill="black"/>
<path d="M27.5551 16.5423H27.6974C27.9551 16.5423 28.0707 16.6489 28.0885 16.8889C28.0987 16.9421 28.0984 16.9967 28.0873 17.0497C28.0763 17.1027 28.0549 17.153 28.0243 17.1977C27.9937 17.2423 27.9546 17.2804 27.9091 17.3098C27.8637 17.3392 27.8128 17.3593 27.7596 17.3689C27.6204 17.3761 27.481 17.3761 27.3418 17.3689V16.1156H27.5551C27.5551 16.1156 27.5551 16.4267 27.5551 16.5423ZM27.5551 16.9512V17.0312C27.5551 17.0934 27.5551 17.1645 27.6351 17.1734C27.6792 17.187 27.7264 17.1865 27.7701 17.1721C27.8139 17.1576 27.8521 17.1299 27.8795 17.0928C27.9068 17.0557 27.9219 17.011 27.9228 16.9649C27.9236 16.9189 27.91 16.8737 27.884 16.8356C27.8649 16.7921 27.8317 16.7562 27.7899 16.7336C27.748 16.7111 27.6998 16.7032 27.6529 16.7112C27.564 16.7112 27.5551 16.8178 27.5551 16.9067V16.9512Z" fill="black"/>
<path d="M10.9866 16.3289H10.6133V16.1422H11.5911V16.3289H11.1999V17.2978H10.9777L10.9866 16.3289Z" fill="black"/>
<path d="M16.7913 16.3289H16.418V16.1422H17.3869V16.3289H16.9957V17.2978H16.7824L16.7913 16.3289Z" fill="black"/>
<path d="M26.6665 16.3379H26.2754V16.1334H27.2887V16.3379H26.8976V17.3868H26.6665V16.3379Z" fill="black"/>
<path d="M8.00023 16.3379V17.3423H7.79579V16.3379H7.45801V16.1334H8.3469V16.3379H8.00023Z" fill="black"/>
<path d="M28.4442 16.8889L28.7731 16.5956H28.9864L28.6131 16.9423L29.0664 17.3778H28.8086L28.4442 17.0223V17.4045H28.2842V16.16H28.4442V16.8889Z" fill="black"/>
<path d="M23.5107 17.1734H23.9996V17.369H23.3418V16.1245H23.564L23.5107 17.1734Z" fill="black"/>
<path d="M10.471 16.16V17.3156H10.2666V16.16H10.471Z" fill="black"/>
<path d="M29.1555 17.1645C29.1744 17.1662 29.1923 17.1734 29.2072 17.1851C29.2221 17.1968 29.2332 17.2126 29.2393 17.2306C29.2453 17.2485 29.246 17.2678 29.2413 17.2862C29.2366 17.3045 29.2266 17.3211 29.2127 17.3339C29.1987 17.3467 29.1813 17.3552 29.1626 17.3583C29.144 17.3614 29.1248 17.359 29.1074 17.3514C29.0901 17.3438 29.0753 17.3314 29.0649 17.3155C29.0545 17.2997 29.0489 17.2812 29.0488 17.2622C29.0488 17.2486 29.0516 17.2351 29.057 17.2227C29.0625 17.2102 29.0705 17.199 29.0805 17.1898C29.0906 17.1806 29.1024 17.1736 29.1153 17.1692C29.1283 17.1648 29.1419 17.1632 29.1555 17.1645Z" fill="black"/>
</g>
<defs>
<clipPath id="clip0_2707_353143">
<rect width="32" height="32" fill="white"/>
</clipPath>
</defs>
</svg>
