<svg width="32" height="32" viewBox="0 0 32 32" fill="none" xmlns="http://www.w3.org/2000/svg">
<g clip-path="url(#clip0_2707_352938)">
<path d="M15.9998 31.9823C24.8265 31.9823 31.982 24.8268 31.982 16C31.982 7.17331 24.8265 0.0178223 15.9998 0.0178223C7.17306 0.0178223 0.0175781 7.17331 0.0175781 16C0.0175781 24.8268 7.17306 31.9823 15.9998 31.9823Z" fill="white"/>
<path d="M23.9994 6.89779V26.6667H17.1905L20.8171 24.1245L20.8883 24.0711L17.386 21.2711L21.2527 17.92L21.2171 17.7778L19.5549 16.4445C19.5549 16.4445 19.5549 16.4 19.5016 16.3911L17.0571 14.4H17.0127L17.0838 14.3556L22.0438 11.2889L22.2394 11.1645L18.8349 6.54224C18.8349 6.54224 18.8883 6.54224 18.906 6.54224H19.5016H20.266H20.9683H21.5994H21.8038H22.2216H22.5771L23.1194 6.60446L23.6883 6.68446L23.9994 6.89779Z" fill="#EE3C6A"/>
<path d="M23.9999 6.89782C23.8932 6.89782 19.0932 6.54226 18.8977 6.54226H18.8266L22.2221 11.1289L22.0266 11.2534L18.7554 13.2712H18.7021L18.3199 12.9423C17.6977 12.4267 14.2754 10.0712 13.1999 9.38671L10.8799 8.00004V5.33337H23.9999V6.89782Z" fill="#FBE34D"/>
<path d="M8.0001 21.4489V21.1911C8.01547 20.9964 8.07004 20.8069 8.16053 20.6338C8.25102 20.4607 8.37556 20.3078 8.52667 20.1841C8.67778 20.0603 8.85234 19.9685 9.03986 19.9139C9.22738 19.8594 9.42399 19.8433 9.61788 19.8667C9.89359 19.8994 10.1541 20.0106 10.3684 20.1871C10.5827 20.3636 10.7418 20.5979 10.8268 20.8622C10.8713 21.0151 10.8893 21.1744 10.8801 21.3333V21.3867L10.9512 21.3422C11.5201 20.9245 12.0979 20.5245 12.729 20.1511C14.4442 19.0238 16.2252 17.9998 18.0623 17.0845L19.5557 16.4445L19.8045 16.64L21.2179 17.7778L21.2801 17.8311L17.4134 21.1822L20.9157 24L20.8445 24.0533L17.2179 26.5956H10.8623V24.72V24.7645C10.7938 24.9768 10.6784 25.171 10.5245 25.3326C10.3706 25.4942 10.1822 25.619 9.97343 25.6978C9.7084 25.8108 9.41488 25.839 9.13318 25.7785C8.85148 25.718 8.5954 25.5718 8.4001 25.36C8.16486 25.1201 8.02031 24.8059 7.99121 24.4711V24.1689C8.01082 23.9626 8.07214 23.7625 8.17147 23.5807C8.27079 23.3988 8.40603 23.2391 8.56899 23.1111C8.65417 23.0446 8.74661 22.9879 8.84454 22.9422H8.88899C8.88899 22.9422 8.88899 22.9422 8.88899 22.9956V23.5289C8.90054 23.5605 8.90054 23.5951 8.88899 23.6267C8.73758 23.7697 8.63732 23.9585 8.6036 24.1641C8.56987 24.3696 8.60456 24.5805 8.70232 24.7645C8.7747 24.8584 8.86487 24.9372 8.96769 24.9963C9.07052 25.0555 9.18398 25.0937 9.3016 25.109C9.41922 25.1243 9.5387 25.1162 9.65321 25.0853C9.76772 25.0544 9.87502 25.0013 9.96899 24.9289C10.063 24.8565 10.1418 24.7664 10.2009 24.6635C10.26 24.5607 10.2983 24.4472 10.3135 24.3296C10.3288 24.212 10.3208 24.0925 10.2899 23.978C10.259 23.8635 10.2058 23.7562 10.1334 23.6622C10.1241 23.6444 10.1192 23.6246 10.1192 23.6045C10.1192 23.5843 10.1241 23.5645 10.1334 23.5467V22.9511C10.324 23.0328 10.4948 23.1544 10.6344 23.3077C10.7739 23.4611 10.8789 23.6426 10.9423 23.84V21.7511C10.9385 21.7717 10.9385 21.7928 10.9423 21.8133C10.8583 22.039 10.7178 22.2393 10.5341 22.3949C10.3504 22.5506 10.1298 22.6564 9.89343 22.7022C9.52696 22.791 9.14024 22.7316 8.81734 22.5369C8.49443 22.3421 8.26144 22.0278 8.16899 21.6622C8.10876 21.5943 8.05238 21.5231 8.0001 21.4489ZM9.46677 20.4445C9.24141 20.4439 9.02426 20.529 8.85924 20.6824C8.69422 20.8359 8.59365 21.0463 8.57788 21.2711C8.56542 21.3951 8.57916 21.5203 8.61821 21.6386C8.65727 21.757 8.72077 21.8658 8.80459 21.958C8.8884 22.0502 8.99067 22.1237 9.10475 22.1738C9.21882 22.2239 9.34216 22.2495 9.46677 22.2489C9.70251 22.2489 9.92861 22.1553 10.0953 21.9886C10.262 21.8219 10.3557 21.5958 10.3557 21.36C10.3557 21.1243 10.262 20.8982 10.0953 20.7315C9.92861 20.5648 9.70251 20.4711 9.46677 20.4711V20.4445Z" fill="#0D110F"/>
<path d="M19.5549 16.4445L18.1061 17.1467C16.2709 18.0624 14.4901 19.0834 12.7727 20.2045C12.1801 20.5838 11.5875 20.9838 10.9949 21.4045L10.9238 21.449V21.3956C10.9238 21.2356 10.9238 7.9823 10.9238 7.9823L13.2616 9.43119C14.3372 10.1067 15.4127 10.8001 16.4527 11.529C17.1105 11.9912 17.7594 12.4179 18.3816 12.9779L18.7638 13.3067L18.6661 13.3334L17.0927 14.3023L17.0216 14.3467H17.0661L19.4927 16.3379C19.4927 16.3379 19.5549 16.4267 19.5549 16.4445Z" fill="#009FDA"/>
<path d="M10.862 16.3112C10.9061 16.4702 10.9241 16.6353 10.9154 16.8C10.915 16.9205 10.8971 17.0403 10.862 17.1556L10.8087 17.2978C10.7257 17.5193 10.5887 17.7166 10.4102 17.8718C10.2317 18.027 10.0174 18.1352 9.78649 18.1867C9.42311 18.2816 9.03717 18.2335 8.70821 18.0523C8.37925 17.8711 8.13235 17.5706 8.01838 17.2127C7.90441 16.8548 7.93207 16.4669 8.09565 16.1288C8.25923 15.7908 8.54627 15.5283 8.8976 15.3956C9.08107 15.3239 9.27717 15.2901 9.47407 15.2962C9.67096 15.3024 9.86456 15.3484 10.0432 15.4315C10.2218 15.5146 10.3817 15.633 10.5133 15.7796C10.6449 15.9262 10.7454 16.098 10.8087 16.2845C10.819 16.2848 10.8291 16.2874 10.8383 16.292C10.8475 16.2966 10.8556 16.3031 10.862 16.3112ZM10.3732 16.7556C10.3732 16.5798 10.321 16.4079 10.2234 16.2618C10.1257 16.1156 9.98686 16.0016 9.82443 15.9344C9.66201 15.8671 9.48329 15.8495 9.31086 15.8838C9.13843 15.9181 8.98005 16.0027 8.85573 16.1271C8.73142 16.2514 8.64676 16.4098 8.61246 16.5822C8.57816 16.7546 8.59577 16.9333 8.66304 17.0958C8.73032 17.2582 8.84425 17.397 8.99043 17.4947C9.13661 17.5924 9.30847 17.6445 9.48427 17.6445C9.72002 17.6445 9.94611 17.5508 10.1128 17.3841C10.2795 17.2174 10.3732 16.9913 10.3732 16.7556Z" fill="#0F1311"/>
<path d="M10.8438 15.049H8.07044C8.07044 15.049 8.07044 15.0045 8.07044 14.9867V14.2223C8.06636 14.1453 8.06636 14.0682 8.07044 13.9912C8.0804 13.8886 8.11719 13.7905 8.1771 13.7067L8.33711 13.4845C8.44166 13.382 8.575 13.3137 8.71933 13.289C8.92932 13.2545 9.14476 13.2791 9.34155 13.3601C9.55383 13.4622 9.71688 13.6444 9.79488 13.8667V13.9378L10.7727 13.2445C10.7727 13.2445 10.7727 13.289 10.7727 13.3156V13.9112L9.81266 14.5423H10.8438V15.049ZM8.61266 14.4978H9.36822C9.36822 14.3734 9.36822 14.2401 9.36822 14.1156C9.36126 14.0429 9.33313 13.9738 9.28731 13.917C9.24149 13.8601 9.18 13.8179 9.11044 13.7956C9.02898 13.7733 8.94301 13.7733 8.86155 13.7956C8.8022 13.813 8.74937 13.8476 8.70979 13.8951C8.67021 13.9426 8.64568 14.0008 8.63933 14.0623C8.61259 14.2058 8.60363 14.3521 8.61266 14.4978Z" fill="#101311"/>
<path d="M10.8446 6.77344V7.33344C10.8407 7.36294 10.8407 7.39283 10.8446 7.42233C10.8206 7.4319 10.7992 7.44714 10.7824 7.46677L9.77796 8.16899L9.71573 8.22233H10.8446V8.75566H8.07129V8.22233H9.16462L8.07129 7.43122V6.77344L9.43129 7.79566H9.47573L10.7824 6.85344L10.8446 6.77344Z" fill="#0F1311"/>
<path d="M10.8446 11.4223L10.5068 11.2979L8.13351 10.409H8.07129V10.0179H8.13351L10.8002 9.01343H10.8624V9.55565H10.8091L10.2135 9.78676H10.1602V10.6223L10.738 10.8445L10.8268 10.889L10.8446 11.4223ZM8.88907 10.1779L9.5824 10.4001V9.95565L8.88907 10.1779Z" fill="#101311"/>
<path d="M10.8357 12.9156H8.07131C8.07131 12.9156 8.07131 12.9156 8.07131 12.8622C8.07131 12.5956 8.07131 12.3289 8.07131 12.0622C8.06217 11.9855 8.06217 11.9079 8.07131 11.8311C8.10822 11.6435 8.21257 11.4759 8.36464 11.36C8.54024 11.2309 8.75549 11.1674 8.97304 11.1804C9.1906 11.1934 9.39675 11.2821 9.55575 11.4311C9.68563 11.5478 9.76527 11.7103 9.77797 11.8845C9.77797 12 9.77797 12.1156 9.77797 12.24V12.3734H10.8446V12.9156H10.8357ZM9.26242 12.3645C9.26242 12.2578 9.26242 12.16 9.26242 12.0622C9.27446 12.0156 9.27446 11.9667 9.26242 11.92C9.23688 11.8538 9.18945 11.7983 9.12801 11.7627C9.06657 11.7271 8.9948 11.7136 8.92464 11.7245C8.86271 11.7307 8.80436 11.7564 8.75802 11.7979C8.71168 11.8395 8.67975 11.8947 8.66686 11.9556C8.65377 12.0916 8.65377 12.2285 8.66686 12.3645H9.26242Z" fill="#101311"/>
<path fill-rule="evenodd" clip-rule="evenodd" d="M8.23047 19.0489V19.5556H10.9505V18.4H10.4705V19.0489H8.23047Z" fill="#0D110F"/>
</g>
<defs>
<clipPath id="clip0_2707_352938">
<rect width="32" height="32" fill="white"/>
</clipPath>
</defs>
</svg>
