<svg width="32" height="32" viewBox="0 0 32 32" fill="none" xmlns="http://www.w3.org/2000/svg">
<g clip-path="url(#clip0_2810_57051)">
<mask id="mask0_2810_57051" style="mask-type:luminance" maskUnits="userSpaceOnUse" x="0" y="0" width="32" height="32">
<path d="M32 0H0V32H32V0Z" fill="white"/>
</mask>
<g mask="url(#mask0_2810_57051)">
<path d="M16 32C24.8366 32 32 24.8366 32 16C32 7.16344 24.8366 0 16 0C7.16344 0 0 7.16344 0 16C0 24.8366 7.16344 32 16 32Z" fill="white"/>
<path d="M17.334 14.1423V12.0178C17.334 12.0178 17.3695 12.0178 17.3873 12.0178C18.0095 12.0178 18.6318 12.0178 19.254 12.0178C19.2807 12.0178 19.2984 12.0178 19.3073 12.0534C19.4407 12.48 19.494 12.9156 19.4584 13.36C19.4407 13.6178 19.3873 13.8667 19.3073 14.1156C19.2984 14.1423 19.2895 14.16 19.254 14.16C18.6318 14.16 18.0007 14.16 17.3784 14.16C17.3695 14.16 17.3607 14.16 17.3429 14.16" fill="#EF3924"/>
<path d="M14.9604 12.0178V14.1423C14.9604 14.1423 14.9248 14.1423 14.907 14.1423C14.2848 14.1423 13.6626 14.1423 13.0404 14.1423C13.0137 14.1423 12.9959 14.1423 12.987 14.1067C12.8537 13.6978 12.8004 13.28 12.8359 12.8623C12.8537 12.5956 12.907 12.3378 12.9782 12.08C12.987 12.0356 13.0048 12.0178 13.0582 12.0178C13.6715 12.0178 14.2937 12.0178 14.907 12.0178C14.9248 12.0178 14.9337 12.0178 14.9604 12.0178Z" fill="#EF3924"/>
<path d="M19.1739 18.9155C19.3606 18.9155 19.5473 18.9155 19.7339 18.9155C19.7428 18.9155 19.7695 18.9422 19.7695 18.96C19.8939 19.2711 20.0184 19.5822 20.1428 19.8933C20.1962 20.0266 20.2495 20.1689 20.3117 20.3111C20.3206 20.2844 20.3295 20.2755 20.3384 20.2577C20.5073 19.8311 20.685 19.3955 20.8539 18.9689C20.8717 18.9333 20.8806 18.9244 20.925 18.9244C21.0939 18.9244 21.2717 18.9244 21.4495 18.9244V20.9333H20.9606V19.7689H20.9517C20.9073 19.8844 20.8628 20 20.8184 20.1244C20.7206 20.3822 20.6228 20.64 20.5339 20.8977C20.5162 20.9333 20.4984 20.9511 20.4628 20.9511C20.365 20.9511 20.2673 20.9511 20.1606 20.9511C20.125 20.9511 20.1073 20.9422 20.0984 20.9066C19.965 20.5422 19.8228 20.1777 19.6895 19.8133C19.6895 19.8044 19.6806 19.7866 19.6628 19.7777V20.9511H19.165V18.9422L19.1739 18.9155Z" fill="#020202"/>
<path d="M16.1428 16.3912C15.4673 15.8401 15.1117 15.1378 15.0762 14.2667H17.2095C17.174 15.1378 16.8184 15.8401 16.1428 16.3912Z" fill="#EF3924"/>
<path d="M15.0847 11.8934C15.067 11.2889 15.3603 10.3734 16.1425 9.77783C16.8092 10.3201 17.1647 11.0312 17.2092 11.8934H15.0847Z" fill="#EF3924"/>
<path d="M15.9644 9.76001C15.3244 10.3378 14.9866 11.04 14.9599 11.8933H13.0488C13.2977 11.2622 13.6888 10.7556 14.2399 10.3645C14.7555 10 15.3244 9.80445 15.9733 9.76001" fill="#EF3924"/>
<path d="M14.9608 14.2667C14.9964 15.1201 15.3253 15.8223 15.9653 16.3912C14.6319 16.3289 13.4675 15.4134 13.0586 14.2667H14.9608Z" fill="#EF3924"/>
<path d="M19.2446 11.8934H17.3334C17.3334 11.4845 17.2268 11.0934 17.0579 10.7289C16.8801 10.3645 16.649 10.0445 16.3379 9.77783C16.8712 9.8045 17.369 9.94672 17.8223 10.2223C18.489 10.6134 18.9512 11.1734 19.2446 11.9023" fill="#EF3924"/>
<path d="M17.3423 14.2667H19.2446C19.0312 14.8089 18.7112 15.2623 18.2757 15.6267C17.7157 16.0889 17.0757 16.3467 16.3379 16.3911C16.969 15.8134 17.3068 15.1111 17.3423 14.2578" fill="#EF3924"/>
<path d="M25.8493 20.9333C25.6982 20.9333 25.547 20.9333 25.3959 20.9333C25.3782 20.9333 25.3515 20.9155 25.3337 20.8889C25.0848 20.5155 24.8359 20.1333 24.587 19.76C24.5782 19.7422 24.5693 19.7244 24.5426 19.6978V20.9333H24.0537V18.9244C24.0537 18.9244 24.0804 18.9244 24.0982 18.9244C24.2226 18.9244 24.347 18.9244 24.4715 18.9244C24.5248 18.9244 24.5515 18.9422 24.5782 18.9867C24.8359 19.3778 25.0937 19.7689 25.3515 20.1778V18.9333H25.8404V20.9511L25.8493 20.9333Z" fill="#020202"/>
<path d="M4.47151 19.7245C4.60484 19.7245 4.72929 19.7245 4.85373 19.7245C4.97818 19.7245 5.0404 19.6445 5.0404 19.529C5.0404 19.4045 4.97818 19.3245 4.86262 19.3156C4.73818 19.3067 4.60484 19.3156 4.4804 19.3156V19.7245H4.47151ZM4.47151 20.089V20.5245C4.62262 20.5245 4.76484 20.5245 4.90707 20.5245C4.98707 20.5245 5.04929 20.4712 5.07595 20.3823C5.1204 20.2312 5.02262 20.0978 4.86262 20.089C4.72929 20.089 4.60484 20.089 4.46262 20.089M5.2004 19.8934C5.38707 19.9467 5.50262 20.0623 5.54707 20.2312C5.63595 20.5334 5.46707 20.8178 5.14707 20.889C5.07595 20.9067 4.99595 20.9156 4.91595 20.9156C4.60484 20.9156 4.30262 20.9156 3.99151 20.9156C3.99151 20.9156 3.97373 20.9156 3.96484 20.9156V18.9067C3.96484 18.9067 4.0004 18.9067 4.00929 18.9067C4.29373 18.9067 4.56929 18.9067 4.85373 18.9067C4.9604 18.9067 5.07595 18.9245 5.18262 18.9601C5.39595 19.0312 5.51151 19.2001 5.51151 19.4223C5.51151 19.6445 5.41373 19.7867 5.2004 19.8756H5.19151" fill="#020202"/>
<path d="M14.6226 19.3245V20.4978C14.7292 20.4978 14.8359 20.4978 14.9426 20.4978C15.1915 20.48 15.3604 20.3378 15.4137 20.1245C15.4315 20.0445 15.4404 19.9556 15.4404 19.8667C15.4315 19.5822 15.2715 19.3867 15.0048 19.3511C14.8804 19.3334 14.7559 19.3334 14.6315 19.3334M14.1426 20.9334V18.9245C14.1426 18.9245 14.1515 18.9245 14.1604 18.9245C14.4448 18.9245 14.7381 18.9156 15.0226 18.9334C15.6181 18.9689 16.0004 19.4222 15.947 20.0445C15.8937 20.5956 15.4759 20.9156 14.9692 20.9334C14.6937 20.9334 14.4181 20.9334 14.1426 20.9334Z" fill="#020202"/>
<path d="M26.7028 20.4978C26.8094 20.4978 26.9072 20.4978 27.0139 20.4978C27.2628 20.48 27.4405 20.3467 27.4939 20.1245C27.5116 20.0445 27.5205 19.9467 27.5205 19.8578C27.5116 19.6445 27.4228 19.4756 27.2272 19.3867C27.0583 19.3067 26.8805 19.3334 26.7028 19.3334V20.4978ZM26.2139 20.9245V18.9245H26.2228C26.5161 18.9245 26.8005 18.9156 27.0939 18.9245C27.6272 18.9511 28.0094 19.36 28.0183 19.8934C28.0183 20.1511 27.965 20.3823 27.7961 20.5778C27.6183 20.7911 27.3783 20.8978 27.1028 20.9156C26.8094 20.9334 26.5161 20.9156 26.2228 20.9156H26.2139" fill="#020202"/>
<path d="M22.2136 19.8934C22.2136 19.9645 22.2225 20.0178 22.2314 20.0712C22.2669 20.32 22.4536 20.4889 22.7025 20.5067C22.9603 20.5245 23.1647 20.3912 23.2447 20.16C23.2892 20.0356 23.2892 19.9112 23.2714 19.7867C23.2358 19.5378 23.058 19.36 22.818 19.3423C22.5514 19.3156 22.338 19.44 22.258 19.68C22.2314 19.76 22.2225 19.84 22.2136 19.9023M21.7158 19.9289C21.7158 19.3334 22.1603 18.8978 22.7558 18.8978C23.3425 18.8978 23.778 19.3423 23.778 19.9378C23.778 20.5245 23.3336 20.9689 22.7469 20.96C22.1603 20.96 21.7158 20.5156 21.7158 19.9289Z" fill="#020202"/>
<path d="M13.2893 20.9333C13.0849 20.9333 12.8982 20.9333 12.7115 20.9333C12.6937 20.9333 12.6671 20.9155 12.6582 20.8978C12.4449 20.6222 12.2315 20.3378 12.0182 20.0533V20.9333H11.5293V18.9244H12.0182V19.8044C12.0182 19.8044 12.0449 19.7778 12.0537 19.7689C12.2582 19.5022 12.4626 19.2355 12.6582 18.9689C12.6849 18.9422 12.7026 18.9244 12.7471 18.9244C12.916 18.9244 13.0849 18.9244 13.2715 18.9244L12.4893 19.9111L13.2982 20.9422" fill="#020202"/>
<path d="M8.35577 20.1956L8.10688 19.4578L7.85799 20.1956H8.35577ZM7.82244 18.9156C8.00022 18.9156 8.17799 18.9156 8.35577 18.9156C8.39133 18.9156 8.40022 18.9334 8.40911 18.9601C8.54244 19.3245 8.66688 19.6801 8.80022 20.0445C8.89799 20.329 9.00466 20.6134 9.10244 20.889C9.10244 20.8978 9.10244 20.9156 9.12022 20.9334H8.91577C8.82688 20.9334 8.74688 20.9334 8.65799 20.9334C8.61355 20.9334 8.59577 20.9245 8.58688 20.8801C8.56022 20.7823 8.51577 20.6756 8.48911 20.5778H8.03577C7.95577 20.5778 7.87577 20.5778 7.79577 20.5778C7.76022 20.5778 7.74244 20.5867 7.72466 20.6223C7.69799 20.7112 7.66244 20.8001 7.63577 20.889C7.63577 20.9067 7.60911 20.9245 7.60022 20.9245C7.44022 20.9245 7.28022 20.9245 7.11133 20.9245C7.35133 20.249 7.60022 19.5823 7.84022 18.9067" fill="#020202"/>
<path d="M17.6893 20.1955H18.1782L17.9293 19.4667L17.6805 20.1955M16.916 20.9333L17.6449 18.9244H18.2138C18.4538 19.5911 18.6938 20.2578 18.9427 20.9422H18.5605C18.4656 20.9422 18.4064 20.8978 18.3827 20.8089C18.3649 20.7467 18.3382 20.6755 18.3116 20.6133C18.3116 20.5955 18.2849 20.5867 18.2671 20.5867C18.036 20.5867 17.8049 20.5867 17.5827 20.5867C17.5649 20.5867 17.5471 20.6044 17.5382 20.6222C17.5027 20.7289 17.4671 20.8355 17.4316 20.9422H16.916V20.9333Z" fill="#020202"/>
<path d="M11.2271 19.6C11.0493 19.6 10.8804 19.6 10.7115 19.6C10.7026 19.6 10.6849 19.5911 10.676 19.5734C10.5782 19.3867 10.3826 19.3156 10.1693 19.3511C9.96486 19.3867 9.81375 19.5378 9.77819 19.7423C9.75152 19.8934 9.75152 20.0445 9.80486 20.1867C9.88486 20.3734 10.0271 20.48 10.2315 20.4978C10.4182 20.5067 10.5693 20.4356 10.676 20.2667C10.676 20.2578 10.7026 20.24 10.7115 20.24C10.8804 20.24 11.0493 20.24 11.2271 20.24C11.2182 20.2756 11.2093 20.3023 11.2004 20.3289C11.0582 20.6934 10.7915 20.88 10.4093 20.9334C10.2049 20.96 10.0004 20.9334 9.80486 20.8445C9.44041 20.6667 9.22708 20.2756 9.26263 19.8489C9.28041 19.6089 9.35152 19.3956 9.51152 19.2178C9.73375 18.9689 10.0271 18.8711 10.356 18.8978C10.6493 18.9156 10.8982 19.0311 11.076 19.2711C11.1471 19.3689 11.2004 19.4756 11.2271 19.6Z" fill="#020202"/>
<path d="M6.35608 20.5511H6.99608V20.9244H5.86719V18.9155H6.35608V20.5511Z" fill="#020202"/>
<path d="M16.2139 18.9155C16.2139 18.9155 16.2494 18.9155 16.2583 18.9155C16.4005 18.9155 16.5516 18.9155 16.7028 18.9155V20.9244H16.2139V18.9155Z" fill="#020202"/>
<path d="M13.7072 22.1689C13.7072 22.3378 13.796 22.4712 13.9294 22.5156C14.1694 22.5867 14.3827 22.4089 14.3738 22.1512C14.3649 21.9823 14.2849 21.8667 14.1427 21.8223C13.9116 21.7512 13.6983 21.9112 13.6983 22.1689M14.0272 22.6045C13.7872 22.6045 13.6094 22.4267 13.6094 22.1689C13.6094 21.9112 13.7872 21.7245 14.036 21.7245C14.2849 21.7245 14.4627 21.9112 14.4538 22.16C14.4538 22.4623 14.2227 22.6134 14.0272 22.5956" fill="#020202"/>
<path d="M8.58684 22.1778C8.67572 22.1778 8.75572 22.1778 8.84461 22.1601C8.91572 22.1512 8.96017 22.0801 8.96017 21.9912C8.96017 21.9112 8.92461 21.8401 8.8535 21.8312C8.76461 21.8134 8.67572 21.8134 8.58684 21.8134V22.1778ZM8.50684 21.7512C8.6135 21.7512 8.72017 21.7512 8.82684 21.7512C8.95128 21.7512 9.04017 21.849 9.04906 21.9645C9.05795 22.089 8.99572 22.1867 8.87128 22.2223H8.84461L9.05795 22.5867C8.99572 22.6045 8.95128 22.5867 8.91572 22.5245C8.87128 22.4356 8.81795 22.3556 8.7735 22.2756C8.75572 22.2401 8.72906 22.2312 8.6935 22.2312C8.65795 22.2312 8.62239 22.2312 8.58684 22.2312V22.5867H8.50684V21.7334V21.7512Z" fill="#020202"/>
<path d="M17.6005 22.1778C17.6894 22.1778 17.7694 22.1778 17.8494 22.1601C17.9205 22.1512 17.965 22.0801 17.965 22.0001C17.965 21.9112 17.9294 21.8489 17.8583 21.8312C17.7694 21.8134 17.6805 21.8134 17.5916 21.8134V22.1778H17.6005ZM17.6005 22.2489V22.6045H17.5205V21.7601C17.6361 21.7601 17.7516 21.7512 17.8672 21.7601C17.9827 21.7689 18.0627 21.8667 18.0627 21.9912C18.0627 22.1067 18.0094 22.2045 17.8938 22.2401H17.8583L18.0716 22.6045C18.0064 22.6164 17.959 22.5956 17.9294 22.5423C17.885 22.4623 17.8316 22.3823 17.7872 22.3023C17.7694 22.2667 17.7427 22.2489 17.7072 22.2578C17.6716 22.2578 17.645 22.2578 17.6005 22.2578" fill="#020202"/>
<path d="M20.0364 21.9911C19.9742 22.0089 19.9387 21.9911 19.9031 21.9378C19.8231 21.8223 19.7075 21.7956 19.5742 21.8223C19.4409 21.8489 19.3609 21.9378 19.3342 22.0623C19.3164 22.1334 19.3164 22.2134 19.3342 22.2934C19.3609 22.4267 19.4675 22.5156 19.592 22.5334C19.7431 22.56 19.8587 22.5067 19.9298 22.3823C19.9475 22.3467 19.9564 22.3467 20.0364 22.3556C19.992 22.5245 19.7964 22.6311 19.5831 22.6045C19.3787 22.5778 19.2364 22.4 19.2275 22.1778C19.2275 21.9467 19.3698 21.7689 19.5742 21.7423C19.7875 21.7156 19.9831 21.8134 20.0364 21.9911Z" fill="#020202"/>
<path d="M15.6622 21.7422H15.7422V21.8044C15.7422 21.9733 15.7422 22.1333 15.7422 22.3022C15.7422 22.4711 15.8755 22.56 16.0355 22.5155C16.1244 22.4889 16.1778 22.4266 16.1867 22.3111C16.1867 22.1422 16.1867 21.9644 16.1867 21.7955C16.1867 21.7777 16.1867 21.76 16.1867 21.7422H16.2755C16.2755 21.7422 16.2755 21.8133 16.2755 21.8489C16.2755 22.0089 16.2755 22.1689 16.2755 22.3289C16.2755 22.4977 16.1511 22.5955 15.9822 22.6044C15.7867 22.6133 15.6533 22.4889 15.6533 22.2755C15.6533 22.1155 15.6533 21.9466 15.6533 21.7866C15.6533 21.7689 15.6533 21.76 15.6533 21.7422" fill="#020202"/>
<path d="M11.8848 22.3823H11.9737C12.027 22.5156 12.0981 22.5601 12.2314 22.5334C12.3025 22.5156 12.3559 22.4623 12.3648 22.3912C12.3648 22.3201 12.3381 22.2667 12.2581 22.2401C12.1959 22.2134 12.1248 22.1956 12.0537 22.1778C11.9292 22.1334 11.8848 22.0623 11.8848 21.9556C11.8848 21.8489 11.9559 21.7689 12.0714 21.7512C12.1425 21.7423 12.2225 21.7512 12.2937 21.7689C12.3737 21.7867 12.4181 21.8578 12.4359 21.9378C12.3737 21.9645 12.3559 21.9556 12.3292 21.9023C12.2848 21.8223 12.187 21.7867 12.0892 21.8223C12.0092 21.8489 11.9737 21.9023 11.9825 21.9912C11.9825 22.0534 12.027 22.0889 12.0803 22.1067C12.1425 22.1334 12.2137 22.1512 12.2759 22.1689C12.4092 22.2134 12.4714 22.2934 12.4537 22.4178C12.4359 22.5334 12.3292 22.6223 12.2048 22.6134C12.1425 22.6134 12.0803 22.6045 12.0181 22.5778C11.9381 22.5423 11.8937 22.4801 11.8937 22.3912" fill="#020202"/>
<path d="M23.4408 21.9378H23.3519C23.3074 21.8312 23.2274 21.7867 23.1119 21.8134C23.0408 21.8312 22.9874 21.8756 22.9785 21.9467C22.9785 22.0178 23.0052 22.0712 23.0763 22.0978C23.1385 22.1245 23.2096 22.1423 23.2719 22.1601C23.4052 22.2045 23.4674 22.2845 23.4496 22.409C23.4319 22.5334 23.3341 22.6134 23.2008 22.6045C23.1385 22.6045 23.0763 22.5956 23.0141 22.569C22.9341 22.5334 22.8896 22.4712 22.8896 22.3823H22.9785C23.023 22.5156 23.103 22.5601 23.2363 22.5334C23.3074 22.5156 23.3608 22.4712 23.3696 22.4001C23.3696 22.329 23.343 22.2756 23.263 22.2401C23.2008 22.2134 23.1296 22.1956 23.0585 22.1778C22.943 22.1334 22.8896 22.0712 22.8985 21.9556C22.8985 21.849 22.9696 21.769 23.0852 21.7512C23.1474 21.7423 23.2185 21.7423 23.2808 21.7512C23.3785 21.769 23.4319 21.8401 23.4496 21.9378" fill="#020202"/>
<path d="M10.7023 22.5955H10.2578V21.7422H10.7023V21.8133H10.3467V22.1333H10.6667V22.2044H10.3467V22.5333H10.7023V22.6044V22.5955Z" fill="#020202"/>
<path d="M21.3428 22.1333H21.6628V22.2044H21.3428V22.5244H21.6984V22.5955H21.2539V21.7422H21.6984V21.8133H21.3428V22.1333Z" fill="#020202"/>
</g>
</g>
<defs>
<clipPath id="clip0_2810_57051">
<rect width="32" height="32" fill="white"/>
</clipPath>
</defs>
</svg>
