<svg width="32" height="32" viewBox="0 0 32 32" fill="none" xmlns="http://www.w3.org/2000/svg">
<g clip-path="url(#clip0_2707_351588)">
<path d="M15.9998 31.9822C24.8265 31.9822 31.982 24.8268 31.982 16C31.982 7.17328 24.8265 0.0177917 15.9998 0.0177917C7.17306 0.0177917 0.0175781 7.17328 0.0175781 16C0.0175781 24.8268 7.17306 31.9822 15.9998 31.9822Z" fill="white"/>
<path d="M22.2216 21.1378C21.9342 20.8128 21.5461 20.5937 21.1194 20.5156C20.8017 20.4671 20.4808 20.4433 20.1594 20.4444C19.6555 20.4645 19.1561 20.3412 18.7194 20.0889C18.3698 19.9218 18.0512 19.6963 17.7772 19.4222C17.7109 19.3469 17.664 19.2565 17.6408 19.1588C17.6175 19.0612 17.6186 18.9594 17.6439 18.8622C17.738 18.4765 17.9345 18.1233 18.2128 17.84C18.6903 17.2641 19.3373 16.8535 20.0616 16.6667C20.226 16.6237 20.3866 16.5672 20.5416 16.4978V16.4356C20.489 16.4237 20.4343 16.4237 20.3816 16.4356L19.6794 16.5689C19.5728 16.5689 19.475 16.64 19.3772 16.6578C19.0427 16.7533 18.7373 16.9305 18.4883 17.1733C18.1239 17.4844 17.795 17.8311 17.4128 18.1244C17.2348 18.2479 17.0312 18.3295 16.8173 18.3634C16.6034 18.3973 16.3846 18.3824 16.1772 18.32C16.0571 18.2902 15.9302 18.3053 15.8204 18.3626C15.7107 18.42 15.6258 18.5155 15.5816 18.6311C15.5372 18.7467 15.4661 18.8622 15.3328 18.8178C15.2442 18.7722 15.1749 18.6966 15.1372 18.6044C15.1256 18.5362 15.0966 18.4722 15.0529 18.4185C15.0092 18.3649 14.9523 18.3235 14.8878 18.2985C14.8233 18.2734 14.7534 18.2655 14.685 18.2755C14.6165 18.2855 14.5518 18.3131 14.4972 18.3556C14.4231 18.4322 14.3709 18.5274 14.3461 18.6311C14.3451 18.667 14.3348 18.7019 14.316 18.7325C14.2972 18.7631 14.2708 18.7882 14.2393 18.8053C14.2077 18.8224 14.1723 18.8309 14.1364 18.83C14.1006 18.8291 14.0656 18.8187 14.035 18.8C13.9827 18.7819 13.9349 18.7527 13.895 18.7143C13.8551 18.6759 13.824 18.6293 13.8039 18.5778C13.7925 18.5184 13.7674 18.4624 13.7308 18.4143C13.6941 18.3663 13.6467 18.3273 13.5925 18.3006C13.5382 18.2739 13.4785 18.2602 13.418 18.2604C13.3575 18.2607 13.2979 18.275 13.2439 18.3022C13.2056 18.3309 13.1733 18.3669 13.1489 18.4081C13.1245 18.4493 13.1084 18.4948 13.1016 18.5422C13.0614 18.7354 12.9464 18.9047 12.7816 19.0133C12.3845 19.3509 12.0479 19.7537 11.7861 20.2044C11.4974 20.6086 11.2809 21.0597 11.1461 21.5378C11.1201 21.7183 11.0289 21.8831 10.8897 22.001C10.7505 22.1189 10.5729 22.1818 10.3905 22.1778L8.99498 22.3111C8.67498 22.3111 8.35498 22.3822 8.03498 22.4178H7.94609C7.90847 22.269 7.90998 22.1131 7.95048 21.9651C7.99097 21.8172 8.06908 21.6822 8.1772 21.5733C8.31638 21.4158 8.44131 21.2463 8.55054 21.0667C8.6353 20.9592 8.74962 20.8789 8.87943 20.8356C9.0216 20.8069 9.15545 20.7465 9.27091 20.6587C9.38638 20.571 9.48046 20.4582 9.54609 20.3289C9.89276 19.5733 10.2305 18.8178 10.515 18.0444C10.5961 17.6909 10.6467 17.3311 10.6661 16.9689C10.6932 16.7411 10.7765 16.5236 10.9083 16.3359C11.0402 16.1482 11.2166 15.9961 11.4216 15.8933C11.5805 15.8325 11.7325 15.7551 11.875 15.6622C12.0452 15.5349 12.1976 15.3854 12.3283 15.2178C12.4317 15.0504 12.5931 14.927 12.7816 14.8711C13.3795 14.7007 13.8927 14.3142 14.2216 13.7867C14.3268 13.6226 14.483 13.4977 14.6661 13.4311C14.9985 13.3308 15.3028 13.1542 15.555 12.9156C15.9016 12.5867 16.2305 12.24 16.5505 11.8844C16.7283 11.6889 16.7194 11.68 16.9328 11.8133C17.6288 12.2488 18.2755 12.7585 18.8616 13.3333C19.3772 13.8489 19.8661 14.3911 20.3905 14.8889C20.6405 15.136 20.9249 15.3456 21.235 15.5111C22.0959 15.9699 22.8291 16.6359 23.3683 17.4489C23.6798 17.9042 23.8945 18.4185 23.9994 18.96C24.0528 19.2089 24.115 19.4667 24.1861 19.7156C24.2233 19.8547 24.2914 19.9837 24.3853 20.0929C24.4791 20.2022 24.5964 20.2889 24.7283 20.3467C24.8118 20.4022 24.9093 20.433 25.0095 20.4356C25.1098 20.4383 25.2087 20.4126 25.295 20.3616C25.3813 20.3105 25.4515 20.2362 25.4975 20.1471C25.5435 20.058 25.5634 19.9577 25.555 19.8578C25.5798 19.4698 25.4665 19.0856 25.235 18.7733C24.7816 18.1867 24.3461 17.6089 23.8394 16.9956C23.5399 16.6345 23.3461 16.1977 23.2794 15.7333C23.2478 15.4452 23.3273 15.1559 23.5016 14.9244C23.6431 14.7579 23.8339 14.6405 24.0464 14.5894C24.2589 14.5383 24.4821 14.556 24.6839 14.64C24.823 14.6755 24.9515 14.7442 25.0583 14.8401C25.1651 14.9361 25.2471 15.0565 25.2972 15.1911C25.4433 15.5132 25.6775 15.7875 25.9728 15.9822C26.0335 16.0371 26.09 16.0965 26.1416 16.16H25.3861C25.2041 16.1728 25.0232 16.1223 24.8742 16.017C24.7251 15.9117 24.6171 15.7581 24.5683 15.5822C24.5466 15.5017 24.5457 15.417 24.566 15.3361C24.5862 15.2552 24.6268 15.1808 24.6839 15.12C24.8083 14.9689 24.7816 14.8711 24.595 14.8178C24.486 14.7631 24.3658 14.7346 24.2439 14.7346C24.1219 14.7346 24.0017 14.7631 23.8928 14.8178C23.7669 14.9063 23.668 15.0278 23.6068 15.169C23.5456 15.3101 23.5246 15.4654 23.5461 15.6178C23.5559 15.9452 23.6783 16.2591 23.8928 16.5067C24.2068 16.8978 24.5268 17.28 24.8528 17.6533C25.2876 18.1014 25.6505 18.6142 25.9283 19.1733C26.0314 19.3773 26.0852 19.6026 26.0852 19.8311C26.0852 20.0596 26.0314 20.285 25.9283 20.4889C25.837 20.6752 25.6954 20.8323 25.5194 20.9422C25.3435 21.0522 25.1402 21.1107 24.9328 21.1111H24.4883C24.1683 21.1111 24.115 21.2 24.1328 21.52C24.1208 21.7591 24.0759 21.9954 23.9994 22.2222C23.9723 22.3594 23.8978 22.4827 23.7889 22.5705C23.68 22.6582 23.5437 22.7049 23.4039 22.7022C23.1176 22.7312 22.8289 22.6821 22.5683 22.56C21.8956 22.2698 21.1758 22.1042 20.4439 22.0711L19.4394 22C19.3954 21.9911 19.3501 21.9911 19.3061 22C19.1517 22.0472 18.9874 22.0514 18.8308 22.0122C18.6742 21.9731 18.5312 21.892 18.4172 21.7778C18.3283 21.68 18.2305 21.7244 18.1416 21.8222C17.9372 22.0622 17.8128 22.0533 17.6705 21.7778C17.5994 21.6533 17.5105 21.6889 17.4305 21.7778C17.1728 22 17.1728 22 16.995 21.7333C16.9328 21.6356 16.835 21.6533 16.7639 21.7867C16.7358 21.8511 16.6879 21.9048 16.6271 21.94C16.5663 21.9752 16.4959 21.99 16.4261 21.9822C16.2928 21.9822 16.2572 21.9111 16.275 21.7956C16.3007 21.6353 16.3698 21.4851 16.4747 21.3613C16.5797 21.2375 16.7166 21.1449 16.8705 21.0933C17.0452 21.0487 17.199 20.945 17.3061 20.8C17.4099 20.6284 17.5751 20.5026 17.7682 20.4481C17.9613 20.3937 18.1679 20.4146 18.3461 20.5067L18.8616 20.7556C19.0724 20.8644 19.3146 20.8958 19.5461 20.8444C20.2449 20.6444 20.9911 20.6883 21.6616 20.9689L22.0083 21.1289C22.0787 21.1418 22.1505 21.1448 22.2216 21.1378ZM9.43054 21.7511C9.32387 21.6711 9.26165 21.5822 9.19943 21.5822C9.1372 21.5822 8.98609 21.7156 8.99498 21.8489C9.00387 21.9822 9.09276 21.9911 9.14609 22.0711L9.43054 21.7511ZM8.39943 21.9467C8.39943 21.9467 8.48832 22.0533 8.56832 22.0711C8.64832 22.0889 8.79943 21.9289 8.77276 21.7867C8.76343 21.7483 8.74476 21.7127 8.71839 21.6833C8.69203 21.6538 8.6588 21.6313 8.62165 21.6178C8.53276 21.5911 8.42609 21.7244 8.43498 21.9467H8.39943ZM9.72387 21.9467C9.91943 21.9467 10.0261 21.8667 9.99943 21.7511C9.98771 21.7169 9.96782 21.6861 9.94149 21.6613C9.91516 21.6365 9.88317 21.6185 9.84832 21.6089C9.81945 21.6031 9.78961 21.6042 9.76125 21.6121C9.73289 21.6201 9.70681 21.6346 9.68514 21.6545C9.66347 21.6745 9.64682 21.6992 9.63656 21.7268C9.6263 21.7544 9.62271 21.7841 9.62609 21.8133C9.67054 21.8578 9.7772 21.9111 9.7772 21.9378L9.72387 21.9467Z" fill="#333398"/>
<path d="M9.0043 7.24446C8.95956 7.20582 8.92063 7.16091 8.88874 7.11113C8.79985 6.86224 8.71985 6.61335 8.64874 6.35558C8.63102 6.28256 8.63102 6.20637 8.64874 6.13335C8.69682 6.01048 8.69682 5.874 8.64874 5.75113C8.62831 5.71318 8.6189 5.67028 8.62156 5.62726C8.62423 5.58425 8.63887 5.54283 8.66383 5.5077C8.6888 5.47257 8.72309 5.44511 8.76283 5.42844C8.80257 5.41177 8.84619 5.40654 8.88874 5.41335C9.12905 5.41034 9.36462 5.34609 9.57319 5.22669C9.61429 5.21877 9.65653 5.21877 9.69763 5.22669L10.3199 5.10224C10.349 5.18559 10.4049 5.25695 10.4789 5.30518C10.5529 5.35342 10.6407 5.37583 10.7287 5.36891C10.7986 5.35972 10.8635 5.32774 10.9133 5.27791C10.9631 5.22809 10.9951 5.16321 11.0043 5.09335C11.0665 4.78224 10.7821 4.78224 10.551 4.66669C10.6225 4.63555 10.6969 4.61172 10.7732 4.59558C11.0399 4.59558 11.3154 4.59558 11.5821 4.67558C11.8487 4.75558 12.3376 4.82669 12.7199 4.8978C12.7719 4.91418 12.8278 4.91418 12.8799 4.8978L13.2532 4.66669C13.3267 4.60521 13.4196 4.57153 13.5154 4.57153C13.6113 4.57153 13.7041 4.60521 13.7776 4.66669C14.0087 4.84446 14.2576 5.00446 14.1954 5.36002C14.1699 5.47453 14.1372 5.58734 14.0976 5.6978C14.1447 5.6893 14.1928 5.6893 14.2399 5.6978C14.3465 5.75113 14.4887 5.79558 14.5421 5.88446C14.9065 6.53335 15.2799 7.16446 15.5821 7.84002C16.0148 8.84859 16.3136 9.90945 16.471 10.9956C16.5086 11.1507 16.508 11.3126 16.4693 11.4674C16.4306 11.6222 16.3549 11.7653 16.2487 11.8845C15.8694 12.3737 15.3984 12.7843 14.8621 13.0934L14.5954 13.2089C14.3643 13.2711 14.3287 13.2089 14.3643 12.9867C14.3926 12.7269 14.4075 12.4658 14.4087 12.2045C14.4076 12.1426 14.3924 12.0818 14.3643 12.0267C14.3542 11.9958 14.3355 11.9684 14.3102 11.9479C14.285 11.9274 14.2544 11.9147 14.2221 11.9111C14.2221 11.9111 14.1687 11.9111 14.1599 11.9911C14.1555 12.0533 14.1555 12.1157 14.1599 12.1778C14.1599 12.4622 14.1599 12.7378 14.1599 13.0667C14.1234 13.3399 14.0176 13.5993 13.8527 13.8202C13.6878 14.0411 13.4692 14.2162 13.2176 14.3289C13.0594 14.4274 12.8891 14.5051 12.711 14.56C12.5154 14.6134 12.4532 14.56 12.5243 14.3289C12.6218 14.0406 12.6218 13.7283 12.5243 13.44C12.4886 13.3554 12.4439 13.275 12.391 13.2H12.3199C12.3156 13.2711 12.3156 13.3423 12.3199 13.4134C12.3199 13.8311 12.3199 14.24 12.3199 14.6578C12.3054 14.8026 12.2513 14.9406 12.1635 15.0567C12.0757 15.1728 11.9575 15.2623 11.8221 15.3156C11.5143 15.4635 11.2173 15.6328 10.9332 15.8222C10.782 15.918 10.6562 16.0487 10.5665 16.2035C10.4767 16.3583 10.4257 16.5324 10.4176 16.7111C10.4123 16.7508 10.3985 16.7889 10.377 16.8226C10.3555 16.8564 10.3269 16.8851 10.2932 16.9067C10.2932 16.9067 10.151 16.9067 10.1065 16.8267C9.90842 16.6572 9.72957 16.4664 9.57319 16.2578C9.49517 16.1227 9.4541 15.9694 9.4541 15.8134C9.4541 15.6573 9.49517 15.504 9.57319 15.3689C9.75985 15.0222 9.98208 14.6934 10.1865 14.3556C10.1865 14.3022 10.1865 14.2222 10.231 14.16C10.2754 14.0978 10.0621 14.16 10.0176 14.16C9.80857 14.3511 9.61258 14.556 9.43097 14.7734C9.32461 14.9183 9.23793 15.0767 9.17319 15.2445C9.0843 15.4222 9.03097 15.44 8.89763 15.2978C8.77341 15.1964 8.6706 15.0713 8.59518 14.9298C8.51977 14.7883 8.47327 14.6332 8.45838 14.4735C8.44349 14.3139 8.46051 14.1528 8.50845 13.9998C8.55639 13.8468 8.6343 13.7049 8.73763 13.5822L9.33319 12.7822C9.33726 12.7617 9.33726 12.7406 9.33319 12.72V12.5067C9.26208 12.5067 9.17319 12.5067 9.12874 12.5067C8.93319 12.6934 8.74652 12.8978 8.56874 13.1022L8.41763 13.3334H8.35541C8.35541 13.2 8.2843 13.0756 8.26652 12.9422C8.20992 12.7288 8.19968 12.5057 8.23647 12.288C8.27327 12.0703 8.35626 11.863 8.47985 11.68C8.70208 11.4134 8.93319 11.1556 9.1643 10.8889C9.24293 10.8053 9.31154 10.7128 9.36874 10.6134C9.36874 10.6134 9.36874 10.4978 9.36874 10.4445C9.36874 10.3911 9.2443 10.4445 9.20874 10.4445L8.63097 11.04L8.55097 11.1467C8.46398 11.0192 8.40361 10.8755 8.37348 10.7242C8.34334 10.5728 8.34407 10.417 8.37561 10.2659C8.40715 10.1149 8.46885 9.97173 8.55702 9.84509C8.64519 9.71845 8.75802 9.61091 8.88874 9.52891C9.02208 9.42224 9.15541 9.30669 9.29763 9.20891C9.43985 9.11113 9.60874 9.04002 9.77763 8.94224C9.54652 8.77335 9.1643 8.76446 9.1643 8.36446C9.15058 8.14968 9.21012 7.93659 9.33319 7.76002L9.4043 7.98224C9.41065 8.02954 9.42958 8.07426 9.45911 8.11175C9.48864 8.14923 9.52769 8.17811 9.57218 8.19536C9.61668 8.21261 9.66498 8.21761 9.71206 8.20983C9.75915 8.20205 9.80328 8.18178 9.83985 8.15113C9.90208 8.10669 9.94652 8.05335 9.99985 8.00891C10.1347 7.89818 10.2773 7.79718 10.4265 7.70669C10.5421 7.64446 10.6399 7.60891 10.5687 7.43113C10.5419 7.29915 10.5419 7.16312 10.5687 7.03113C10.5687 6.92446 10.5687 6.87113 10.4354 6.88002C10.1309 6.91024 9.82391 6.85805 9.54652 6.72891C9.38652 6.64891 9.19985 6.82669 9.13763 7.07558C9.03985 7.11113 9.03097 7.16446 9.0043 7.24446ZM13.7599 5.39558C13.7817 5.3184 13.7797 5.23645 13.7544 5.16036C13.729 5.08428 13.6814 5.01757 13.6176 4.96891C13.4487 4.85335 13.3243 4.96891 13.1999 5.03113L13.7599 5.39558Z" fill="#333398"/>
<path d="M17.5105 25.9467H16.7105C16.6684 25.9401 16.6303 25.9179 16.6039 25.8845C16.5953 25.8696 16.5908 25.8527 16.5908 25.8356C16.5908 25.8184 16.5953 25.8015 16.6039 25.7867C16.8261 25.6889 16.7639 25.4933 16.7639 25.3245C16.7683 25.2415 16.7683 25.1585 16.7639 25.0756H16.2305C16.2305 25.3511 16.0883 25.68 16.4172 25.9645H15.5283C15.5283 25.92 15.5283 25.8667 15.5817 25.8489C15.6506 25.8105 15.7052 25.7507 15.7373 25.6786C15.7693 25.6064 15.7771 25.5258 15.7594 25.4489V24.3822C15.7594 24.2667 15.7594 24.1778 15.635 24.1333C15.6186 24.1242 15.6045 24.1114 15.5937 24.096C15.5829 24.0806 15.5758 24.063 15.5728 24.0445C15.5774 24.0308 15.5856 24.0186 15.5965 24.0092C15.6075 23.9998 15.6208 23.9936 15.635 23.9911H16.435C16.2829 24.2609 16.2295 24.5752 16.2839 24.88H16.6572C16.755 24.88 16.7994 24.8267 16.8083 24.7111C16.8333 24.5854 16.8252 24.4554 16.7846 24.3338C16.7441 24.2123 16.6726 24.1033 16.5772 24.0178H17.5194L17.4394 24.1956C17.3891 24.3038 17.3504 24.417 17.3239 24.5333C17.3239 24.8178 17.3239 25.0933 17.3239 25.3778C17.3239 25.6622 17.3239 25.8133 17.5461 25.9556L17.5105 25.9467Z" fill="#333398"/>
<path d="M21.8933 24C21.5644 24.3289 21.6888 24.72 21.6622 25.0756C21.6355 25.4311 21.6622 25.68 21.6622 25.9645C21.3155 26.08 21.1644 26.0178 21.0044 25.7245C20.8444 25.4311 20.6222 25.0311 20.3999 24.6933C20.3999 25.0133 20.3999 25.3333 20.3999 25.6533C20.3999 25.7156 20.4888 25.7778 20.5333 25.84C20.5399 25.8555 20.5433 25.8721 20.5433 25.8889C20.5433 25.9057 20.5399 25.9223 20.5333 25.9378C20.5249 25.9541 20.5122 25.9678 20.4965 25.9772C20.4808 25.9866 20.4627 25.9915 20.4444 25.9911H19.8311C19.8311 25.9289 19.8311 25.8845 19.8844 25.8667C19.9601 25.8041 20.0181 25.7227 20.0524 25.6306C20.0867 25.5386 20.0962 25.4391 20.0799 25.3422C20.0799 25.04 20.0799 24.7437 20.0799 24.4533C20.0799 24.32 20.0799 24.1867 19.9288 24.1156C19.7777 24.0445 19.8755 24.0445 19.8311 23.9645C20.0738 23.9508 20.3172 23.9508 20.5599 23.9645C20.6222 23.9645 20.6844 24.08 20.7199 24.16C20.9244 24.5067 21.1199 24.8622 21.3422 25.2C21.3422 24.9067 21.3422 24.6133 21.3422 24.3111C21.3422 24.3111 21.2888 24.2133 21.2622 24.1689L21.1377 24H21.8933Z" fill="#333398"/>
<path d="M10.0888 23.9022C10.3647 23.9022 10.6292 24.0118 10.8242 24.2068C11.0193 24.4019 11.1288 24.6664 11.1288 24.9422C11.1288 25.218 11.0193 25.4826 10.8242 25.6776C10.6292 25.8727 10.3647 25.9822 10.0888 25.9822C9.813 25.9822 9.54847 25.8727 9.35344 25.6776C9.1584 25.4826 9.04883 25.218 9.04883 24.9422C9.04883 24.6664 9.1584 24.4019 9.35344 24.2068C9.54847 24.0118 9.813 23.9022 10.0888 23.9022ZM10.4799 24.96C10.4895 24.8001 10.4895 24.6399 10.4799 24.48C10.4573 24.3853 10.4022 24.3015 10.3243 24.2431C10.2464 24.1846 10.1505 24.1553 10.0533 24.16C9.96413 24.1738 9.88225 24.2173 9.82093 24.2834C9.75961 24.3496 9.72246 24.4345 9.71549 24.5244C9.69621 24.8204 9.69621 25.1174 9.71549 25.4133C9.72803 25.5069 9.77328 25.5931 9.84323 25.6565C9.91319 25.72 10.0033 25.7566 10.0977 25.76C10.2755 25.76 10.4088 25.68 10.471 25.4578C10.4841 25.2922 10.4871 25.126 10.4799 24.96Z" fill="#333398"/>
<path d="M7.20845 22.16C7.18217 21.9881 7.20691 21.8123 7.27958 21.6543C7.35226 21.4963 7.4697 21.3631 7.61733 21.2711C7.84845 21.1556 7.83956 20.88 7.98178 20.7022C8.06229 20.5917 8.16926 20.503 8.29289 20.4445C8.5231 20.3574 8.72936 20.2169 8.8947 20.0345C9.06005 19.8522 9.17976 19.6332 9.244 19.3956C9.484 18.72 9.75067 18.0534 10.0084 17.3778C10.042 17.3187 10.0839 17.2648 10.1329 17.2178C10.1862 17.28 10.2662 17.3334 10.284 17.3956C10.3153 17.4939 10.3153 17.5995 10.284 17.6978C9.99067 18.48 9.68845 19.2534 9.39511 20.0267C9.34373 20.1661 9.25823 20.2904 9.14643 20.3882C9.03463 20.486 8.90009 20.5543 8.75511 20.5867C8.61912 20.6127 8.49368 20.6779 8.3942 20.7742C8.29472 20.8706 8.22553 20.9938 8.19511 21.1289C8.17387 21.2218 8.13156 21.3086 8.07146 21.3826C8.01135 21.4566 7.93505 21.5158 7.84845 21.5556C7.77314 21.5883 7.70972 21.6433 7.66679 21.7133C7.62385 21.7833 7.60348 21.8648 7.60845 21.9467C7.60845 22.1422 7.60845 22.3556 7.404 22.4889L7.29734 22.5511C7.26947 22.5104 7.24845 22.4653 7.23511 22.4178C7.21513 22.3334 7.20617 22.2467 7.20845 22.16Z" fill="#333398"/>
<path d="M13.3328 25.9822H12.6928H12.4795C12.5215 25.9271 12.5572 25.8674 12.5861 25.8044C12.6169 25.7602 12.6325 25.7072 12.6306 25.6533L12.3817 25.0133C11.9995 25.3689 11.9728 25.68 12.275 25.9022C11.9897 26.0033 11.6816 26.0218 11.3861 25.9556C11.3861 25.8933 11.3861 25.8222 11.4484 25.7956C11.4932 25.7455 11.5261 25.6858 11.5446 25.6212C11.5631 25.5565 11.5667 25.4885 11.555 25.4222V24.64C11.555 24.4089 11.555 24.1689 11.3506 24H11.395H12.2306C11.9461 24.2844 12.1061 24.6133 12.0528 24.8889H12.115L12.6573 24.1778C12.6573 24.1778 12.6573 24.0978 12.6573 24.0622L12.5506 24H13.3328C13.2617 24.0622 13.235 24.1156 13.1906 24.1333C12.9684 24.1956 12.8706 24.4 12.7461 24.56C12.7239 24.6141 12.7239 24.6748 12.7461 24.7289C12.835 24.9956 12.9328 25.2622 13.0395 25.52C13.0844 25.6081 13.138 25.6915 13.1995 25.7689L13.3417 25.9556L13.3328 25.9822Z" fill="#333398"/>
<path d="M22.1152 25.9378C22.1597 25.8756 22.1686 25.8222 22.2041 25.8044C22.3908 25.7156 22.3997 25.5556 22.3908 25.3689C22.3819 25.1822 22.3908 24.7467 22.3908 24.4356C22.407 24.3669 22.4001 24.2949 22.3712 24.2306C22.3423 24.1663 22.2929 24.1134 22.2308 24.08C22.2308 24.08 22.2308 24.0267 22.1508 23.9556C22.7375 23.9556 23.3152 23.84 23.7597 24.3022C23.8793 24.4404 23.9598 24.6081 23.9926 24.7878C24.0254 24.9676 24.0095 25.1529 23.9463 25.3244C23.9088 25.4916 23.8185 25.6422 23.6889 25.7543C23.5593 25.8663 23.3972 25.9337 23.2263 25.9467C22.9063 25.9467 22.5863 25.9467 22.2752 25.9467C22.2217 25.9485 22.1682 25.9456 22.1152 25.9378ZM22.9152 24.2133C22.9152 24.6933 22.9152 25.1556 22.9152 25.6178C22.9152 25.6622 22.9863 25.7244 23.0397 25.7333H23.1108C23.1992 25.7338 23.2847 25.7012 23.3504 25.6421C23.4162 25.5829 23.4575 25.5013 23.4663 25.4133C23.5035 25.1182 23.5035 24.8196 23.4663 24.5244C23.4219 24.24 23.2619 24.16 22.933 24.1956L22.9152 24.2133Z" fill="#333398"/>
<path d="M14.2935 25.0578C14.2935 25.3867 14.1691 25.7156 14.5513 25.9467H13.6624C13.6624 25.9467 13.6624 25.8844 13.6624 25.8756C13.8402 25.7511 13.8313 25.5644 13.8313 25.3778C13.8313 25.0222 13.8313 24.6667 13.8313 24.3111C13.8156 24.2307 13.7822 24.1548 13.7335 24.0889L13.6357 24C13.674 23.9941 13.713 23.9941 13.7513 24C14.098 24 14.4446 24 14.7824 24C14.912 23.9946 15.0389 24.0383 15.1378 24.1223C15.2367 24.2063 15.3002 24.3245 15.3157 24.4533C15.3279 24.5879 15.2953 24.7227 15.2229 24.8368C15.1506 24.9509 15.0426 25.038 14.9157 25.0844C14.8657 25.0931 14.8146 25.0931 14.7646 25.0844L14.2935 25.0578ZM14.2935 24.1689V24.7822C14.4624 24.7822 14.6491 24.8356 14.738 24.6578C14.7826 24.5435 14.7826 24.4165 14.738 24.3022C14.6757 24.1333 14.4891 24.1511 14.3113 24.1778L14.2935 24.1689Z" fill="#333398"/>
<path d="M7.88424 25.0844C7.88424 25.3867 7.75091 25.7333 8.18646 25.9111L8.12424 25.9556H7.23535C7.44868 25.7778 7.42202 25.5378 7.42202 25.2978C7.42202 25.0578 7.42202 24.6667 7.42202 24.3556C7.42202 24.2578 7.42202 24.16 7.31535 24.1156C7.30139 24.1169 7.28733 24.1142 7.27495 24.1076C7.26256 24.101 7.2524 24.0909 7.24575 24.0785C7.2391 24.0661 7.23625 24.0521 7.23756 24.0381C7.23888 24.0242 7.24429 24.0109 7.25313 24C7.25506 23.9818 7.26317 23.9648 7.27611 23.9519C7.28905 23.9389 7.30604 23.9308 7.32424 23.9289C7.718 23.9067 8.1127 23.9067 8.50646 23.9289C8.62283 23.938 8.73094 23.9925 8.80744 24.0807C8.88395 24.1688 8.92271 24.2835 8.91535 24.4C8.92019 24.5188 8.88521 24.6358 8.81596 24.7324C8.74671 24.829 8.64717 24.8997 8.53313 24.9333C8.32051 24.9984 8.10372 25.0489 7.88424 25.0844ZM7.88424 24.1956V24.8178C8.06202 24.8178 8.23091 24.8622 8.34646 24.6844C8.38685 24.6306 8.40868 24.5651 8.40868 24.4978C8.40868 24.4305 8.38685 24.365 8.34646 24.3111C8.2398 24.1333 8.08868 24.1511 7.91091 24.1778L7.88424 24.1956Z" fill="#333398"/>
<path d="M19.0222 23.9378C19.1293 24.6184 19.3081 25.2859 19.5555 25.9289H18.72C18.8889 25.7245 18.9244 25.5022 18.72 25.3422C18.6592 25.3071 18.5902 25.2887 18.52 25.2887C18.4498 25.2887 18.3808 25.3071 18.32 25.3422C18.2133 25.4934 18.0711 25.7067 18.32 25.92H17.7422C17.8133 25.7511 17.9111 25.5911 17.9644 25.4222C18.1155 24.9956 18.2577 24.5778 18.3822 24.1511C18.4355 23.9645 18.5155 23.8934 18.7022 23.92C18.8072 23.943 18.9153 23.949 19.0222 23.9378ZM18.6222 24.5067L18.4355 25.0845H18.7644L18.6222 24.5067Z" fill="#333398"/>
</g>
<defs>
<clipPath id="clip0_2707_351588">
<rect width="32" height="32" fill="white"/>
</clipPath>
</defs>
</svg>
