<svg width="32" height="32" viewBox="0 0 32 32" fill="none" xmlns="http://www.w3.org/2000/svg">
<g clip-path="url(#clip0_2707_351398)">
<path d="M15.9998 31.9822C24.8265 31.9822 31.982 24.8268 31.982 16C31.982 7.17328 24.8265 0.0177917 15.9998 0.0177917C7.17306 0.0177917 0.0175781 7.17328 0.0175781 16C0.0175781 24.8268 7.17306 31.9822 15.9998 31.9822Z" fill="white"/>
<path d="M5.55566 22.2222C5.55912 22.0756 5.59882 21.932 5.67122 21.8045C5.74305 21.6892 5.84036 21.5918 5.95566 21.52C6.08081 21.4515 6.22198 21.4178 6.36455 21.4222C6.52064 21.418 6.67474 21.4581 6.809 21.5378C6.93852 21.6238 7.03796 21.7481 7.09344 21.8933H6.78233C6.75141 21.8122 6.69114 21.7455 6.61344 21.7067C6.53783 21.6633 6.45167 21.6418 6.36455 21.6445C6.26806 21.6436 6.17304 21.6681 6.089 21.7156C6.00288 21.7601 5.93406 21.832 5.89344 21.92C5.84494 22.0133 5.8205 22.1171 5.82233 22.2222C5.82158 22.3272 5.84596 22.4308 5.89344 22.5245C5.93406 22.6125 6.00288 22.6844 6.089 22.7289C6.17304 22.7763 6.26806 22.8008 6.36455 22.8C6.45167 22.8027 6.53783 22.7812 6.61344 22.7378C6.69114 22.6989 6.75141 22.6323 6.78233 22.5511H7.11122C7.05802 22.6953 6.95783 22.8175 6.82678 22.8978C6.69499 22.9841 6.53976 23.0275 6.38233 23.0222C6.24018 23.0228 6.09996 22.9893 5.97344 22.9245C5.85533 22.8523 5.75746 22.7514 5.689 22.6311C5.60722 22.51 5.56103 22.3683 5.55566 22.2222Z" fill="url(#paint0_linear_2707_351398)"/>
<path d="M8.19527 22.6756H7.5375L7.42194 22.9956H7.15527L7.71527 21.4222H7.99972L8.55972 22.9956H8.29305L8.19527 22.6756ZM8.12416 22.4622L7.86638 21.7334L7.60861 22.4622H8.12416Z" fill="url(#paint1_linear_2707_351398)"/>
<path d="M10.0533 21.8933C10.0537 21.9706 10.0354 22.0469 9.99996 22.1156C9.95938 22.1887 9.89733 22.2477 9.82218 22.2845C9.72251 22.3328 9.61293 22.3571 9.50218 22.3556H9.21774V22.9956H8.95996V21.4222H9.50218C9.60652 21.4177 9.71036 21.439 9.80441 21.4845C9.88354 21.5186 9.94916 21.578 9.99107 21.6534C10.0342 21.7258 10.0557 21.8091 10.0533 21.8933ZM9.50218 22.1422C9.5787 22.1503 9.65532 22.1279 9.71552 22.08C9.74112 22.0566 9.76088 22.0275 9.77323 21.9951C9.78558 21.9627 9.79017 21.9279 9.78663 21.8933C9.78663 21.7156 9.69774 21.6356 9.50218 21.6356H9.21774V22.1422H9.50218Z" fill="url(#paint2_linear_2707_351398)"/>
<path d="M11.2615 22.9956L10.8971 22.3645H10.666V22.9956H10.4082V21.4222H10.9504C11.0548 21.4177 11.1586 21.439 11.2526 21.4845C11.3318 21.5186 11.3974 21.578 11.4393 21.6534C11.4884 21.7304 11.5144 21.8198 11.5144 21.9111C11.5144 22.0024 11.4884 22.0919 11.4393 22.1689C11.4077 22.2147 11.3668 22.2533 11.3194 22.2824C11.2719 22.3115 11.2189 22.3304 11.1638 22.3378L11.5549 22.9956H11.2615ZM10.666 22.16H10.9504C10.9889 22.1628 11.0276 22.1579 11.0642 22.1457C11.1008 22.1335 11.1346 22.1142 11.1638 22.0889C11.1902 22.0638 11.2109 22.0334 11.2247 21.9997C11.2385 21.966 11.245 21.9297 11.2438 21.8933C11.2465 21.8214 11.221 21.7512 11.1726 21.6978C11.1085 21.6509 11.0296 21.6288 10.9504 21.6356H10.666V22.16Z" fill="url(#paint3_linear_2707_351398)"/>
<path d="M12.2841 21.4222H12.0264V22.9956H12.2841V21.4222Z" fill="url(#paint4_linear_2707_351398)"/>
<path d="M14.7557 22.9956H14.4979L13.7246 21.8222V22.9956H13.4668V21.4222H13.7246L14.4979 22.5867V21.4222H14.7557V22.9956Z" fill="url(#paint5_linear_2707_351398)"/>
<path d="M15.4485 21.4222V22.4267C15.4461 22.4754 15.4535 22.5241 15.4703 22.5699C15.4871 22.6157 15.5129 22.6577 15.5463 22.6934C15.581 22.7248 15.6217 22.7489 15.666 22.7642C15.7103 22.7795 15.7573 22.7856 15.804 22.7822C15.8525 22.7898 15.902 22.7859 15.9486 22.7707C15.9952 22.7555 16.0376 22.7295 16.0722 22.6949C16.1069 22.6602 16.1329 22.6179 16.148 22.5713C16.1632 22.5246 16.1672 22.4751 16.1596 22.4267V21.4222H16.4174V22.4178C16.4207 22.5326 16.3931 22.6462 16.3374 22.7467C16.2836 22.8319 16.2065 22.8997 16.1151 22.9422C16.0166 22.9833 15.9108 23.0045 15.804 23.0045C15.6972 23.0045 15.5915 22.9833 15.4929 22.9422C15.4016 22.8997 15.3245 22.8319 15.2707 22.7467C15.215 22.6462 15.1874 22.5326 15.1907 22.4178V21.4222H15.4485Z" fill="url(#paint6_linear_2707_351398)"/>
<path d="M17.3774 23.0045C17.2799 23.0066 17.183 22.9885 17.0929 22.9511C17.0132 22.9186 16.943 22.8667 16.8885 22.8C16.8423 22.7285 16.8176 22.6452 16.8174 22.56H17.0929C17.1011 22.6233 17.1291 22.6825 17.1729 22.7289C17.2308 22.7746 17.3038 22.7968 17.3774 22.7911C17.451 22.7977 17.5244 22.7754 17.5818 22.7289C17.6076 22.7091 17.6283 22.6835 17.6423 22.6541C17.6562 22.6248 17.6629 22.5925 17.6618 22.56C17.6632 22.5365 17.6591 22.5131 17.6499 22.4915C17.6406 22.4699 17.6264 22.4507 17.6085 22.4356C17.5778 22.399 17.5379 22.3714 17.4929 22.3556L17.3063 22.2933L17.0574 22.2222C16.99 22.1941 16.9316 22.1479 16.8885 22.0889C16.8417 22.0214 16.8197 21.9397 16.8263 21.8578C16.8238 21.7735 16.8454 21.6903 16.8885 21.6178C16.9373 21.5492 17.0054 21.4967 17.084 21.4667C17.1711 21.4295 17.265 21.4114 17.3596 21.4133C17.4952 21.4069 17.6292 21.4443 17.7418 21.52C17.7884 21.56 17.8266 21.609 17.854 21.6639C17.8815 21.7188 17.8978 21.7787 17.9018 21.84H17.6174C17.6094 21.7818 17.5811 21.7282 17.5374 21.6889C17.4775 21.6471 17.4059 21.6254 17.3329 21.6267C17.3006 21.6245 17.2682 21.6289 17.2377 21.6396C17.2071 21.6503 17.1791 21.6671 17.1552 21.6889C17.1317 21.7082 17.113 21.7327 17.1007 21.7605C17.0884 21.7883 17.0827 21.8185 17.084 21.8489C17.0837 21.8917 17.0996 21.933 17.1285 21.9645C17.1592 22.001 17.1991 22.0286 17.244 22.0445L17.4307 22.0978L17.6796 22.1867C17.7483 22.2126 17.8073 22.2592 17.8485 22.32C17.8998 22.3891 17.925 22.4741 17.9196 22.56C17.9169 22.638 17.8956 22.7142 17.8574 22.7822C17.8096 22.856 17.7417 22.9146 17.6618 22.9511C17.573 22.9924 17.4752 23.0107 17.3774 23.0045Z" fill="url(#paint7_linear_2707_351398)"/>
<path d="M19.2705 22.6756H18.6127L18.4971 22.9956H18.2305L18.7905 21.4222H19.0927L19.6527 22.9956H19.386L19.2705 22.6756ZM19.1994 22.4622L18.9416 21.7334L18.6838 22.4622H19.1994Z" fill="url(#paint8_linear_2707_351398)"/>
<path d="M21.2088 23.0045C21.1114 23.0056 21.0147 22.9875 20.9243 22.9511C20.8471 22.9187 20.7796 22.8666 20.7288 22.8C20.6788 22.7303 20.6537 22.6457 20.6576 22.56H20.9332C20.9335 22.5923 20.9408 22.6241 20.9546 22.6533C20.9684 22.6824 20.9884 22.7082 21.0132 22.7289C21.0398 22.7521 21.0709 22.7696 21.1045 22.7803C21.1382 22.791 21.1736 22.7947 21.2088 22.7911C21.285 22.7965 21.3607 22.7745 21.4221 22.7289C21.4448 22.7071 21.4629 22.6809 21.4751 22.6518C21.4873 22.6228 21.4935 22.5915 21.4932 22.56C21.4949 22.5144 21.479 22.4698 21.4488 22.4356C21.4163 22.4011 21.3769 22.3738 21.3332 22.3556L21.1376 22.2933L20.8888 22.2222C20.8241 22.1935 20.7687 22.1473 20.7288 22.0889C20.6788 22.0225 20.6536 21.9408 20.6576 21.8578C20.6579 21.7726 20.6825 21.6893 20.7288 21.6178C20.7763 21.5516 20.8407 21.4994 20.9154 21.4667C21.0055 21.4293 21.1024 21.4112 21.1999 21.4133C21.3325 21.4082 21.4633 21.4455 21.5732 21.52C21.621 21.559 21.66 21.6077 21.6876 21.6628C21.7152 21.718 21.7307 21.7784 21.7332 21.84H21.4488C21.4484 21.8103 21.441 21.781 21.4271 21.7548C21.4132 21.7285 21.3932 21.7059 21.3688 21.6889C21.3116 21.6484 21.2433 21.6266 21.1732 21.6267C21.1053 21.6229 21.0385 21.6451 20.9865 21.6889C20.9641 21.7086 20.9468 21.7335 20.9359 21.7613C20.9251 21.7892 20.9211 21.8192 20.9243 21.8489C20.9218 21.8703 20.9246 21.892 20.9323 21.9122C20.94 21.9323 20.9526 21.9502 20.9688 21.9645C20.996 22.0007 21.033 22.0284 21.0754 22.0445L21.2621 22.0978C21.3498 22.1219 21.4359 22.1516 21.5199 22.1867C21.5845 22.2155 21.6399 22.2616 21.6799 22.32C21.7072 22.3532 21.7276 22.3915 21.7399 22.4328C21.7521 22.474 21.7559 22.5173 21.751 22.56C21.7525 22.6386 21.7309 22.7159 21.6888 22.7822C21.6423 22.8539 21.578 22.9121 21.5021 22.9511C21.4104 22.9935 21.3095 23.0118 21.2088 23.0045Z" fill="url(#paint9_linear_2707_351398)"/>
<path d="M23.1113 22.6756H22.4535L22.338 22.9956H22.0713L22.6313 21.4222H22.9246L23.4935 22.9956H23.218L23.1113 22.6756ZM23.0313 22.4622L22.7824 21.7334L22.5246 22.4622H23.0313Z" fill="url(#paint10_linear_2707_351398)"/>
<path d="M24.8887 21.4222V21.6356H24.4709V22.9956H24.1775V21.6356H23.7598V21.4222H24.8887Z" fill="url(#paint11_linear_2707_351398)"/>
<path d="M25.4662 21.4222V22.4267C25.4639 22.4754 25.4713 22.5241 25.4881 22.5699C25.5049 22.6157 25.5307 22.6577 25.564 22.6934C25.5987 22.7248 25.6395 22.7489 25.6838 22.7642C25.7281 22.7795 25.7751 22.7856 25.8218 22.7822C25.87 22.7863 25.9184 22.7806 25.9643 22.7653C26.0101 22.75 26.0524 22.7255 26.0885 22.6934C26.1218 22.6577 26.1476 22.6157 26.1644 22.5699C26.1812 22.5241 26.1886 22.4754 26.1862 22.4267V21.4222H26.444V22.4178C26.4442 22.5334 26.4135 22.6469 26.3551 22.7467C26.3014 22.8319 26.2242 22.8997 26.1329 22.9422C26.0343 22.9833 25.9286 23.0045 25.8218 23.0045C25.715 23.0045 25.6093 22.9833 25.5107 22.9422C25.4218 22.8996 25.3475 22.8316 25.2974 22.7467C25.2348 22.6487 25.2038 22.5339 25.2085 22.4178V21.4222H25.4662Z" fill="url(#paint12_linear_2707_351398)"/>
<path fill-rule="evenodd" clip-rule="evenodd" d="M15.9999 7.28C16.0433 7.24685 16.0964 7.22888 16.151 7.22888C16.2056 7.22888 16.2587 7.24685 16.3021 7.28C17.7056 8.15988 19.369 8.53022 21.0132 8.32889C21.0747 8.32368 21.1361 8.33924 21.1877 8.37309C21.2393 8.40693 21.278 8.4571 21.2977 8.51556C22.8977 13.6711 20.9155 17.9378 16.231 20.1156C16.1965 20.1328 16.1585 20.1417 16.1199 20.1417C16.0813 20.1417 16.0433 20.1328 16.0088 20.1156C8.59546 16.6667 10.5421 9.77778 10.9688 8.51556C10.9884 8.45947 11.0261 8.41151 11.076 8.37931C11.1259 8.3471 11.1852 8.33249 11.2443 8.33778C12.9009 8.48817 14.5632 8.11843 15.9999 7.28Z" fill="#252324"/>
<path fill-rule="evenodd" clip-rule="evenodd" d="M16.1064 7.23556C16.1396 7.23038 16.1734 7.23247 16.2056 7.24168C16.2379 7.25089 16.2677 7.267 16.2931 7.2889C17.6966 8.16877 19.36 8.53912 21.0042 8.33779C21.0657 8.33257 21.1271 8.34813 21.1787 8.38198C21.2303 8.41582 21.269 8.46599 21.2887 8.52445C22.8887 13.68 20.9064 17.9467 16.222 20.1245C16.184 20.1335 16.1444 20.1335 16.1064 20.1245V7.23556Z" fill="url(#paint13_linear_2707_351398)"/>
<path fill-rule="evenodd" clip-rule="evenodd" d="M19.0305 11.8845C19.1258 11.9784 19.1801 12.1062 19.1816 12.24C19.1816 12.4622 19.1816 14.1333 19.1816 14.1333C19.1816 14.1333 19.1816 14.3378 19.0127 14.3911H19.7238C19.6796 14.364 19.6416 14.3278 19.6125 14.2849C19.5834 14.242 19.5637 14.1934 19.5549 14.1422V13.1911H20.0527C20.1352 13.1782 20.2143 13.149 20.2855 13.1052C20.3566 13.0615 20.4184 13.004 20.4672 12.9362C20.516 12.8684 20.5508 12.7916 20.5697 12.7103C20.5886 12.6289 20.5911 12.5446 20.5771 12.4622C20.5771 11.8845 19.8927 11.8845 19.8927 11.8845H19.0305ZM19.5283 12.1245V12.9511C19.5283 12.9511 20.1949 13.0756 20.2038 12.5333C20.2127 11.9911 19.5549 12.1245 19.5549 12.1245H19.5283Z" fill="#B29355"/>
<path fill-rule="evenodd" clip-rule="evenodd" d="M14.5778 12.1067L14.8355 12.2934V14.2222C14.8684 14.2949 14.9248 14.3544 14.9955 14.3911H14.4355C14.4952 14.3464 14.5439 14.2887 14.5778 14.2222V12.1067Z" fill="#B29355"/>
<path fill-rule="evenodd" clip-rule="evenodd" d="M16.5242 14.2222L16.2753 14.0356V12.1422C16.2395 12.0664 16.1803 12.0041 16.1064 11.9644H16.6664C16.605 12.0109 16.5561 12.072 16.5242 12.1422V14.2222Z" fill="#B29355"/>
<path fill-rule="evenodd" clip-rule="evenodd" d="M13.9021 12.6133C13.8193 12.4645 13.6981 12.3406 13.5512 12.2546C13.4042 12.1686 13.2368 12.1237 13.0665 12.1245C12.9365 12.1295 12.809 12.1616 12.6922 12.2188C12.5753 12.276 12.4717 12.357 12.388 12.4566C12.3043 12.5562 12.2424 12.6722 12.2061 12.7972C12.1699 12.9222 12.1602 13.0533 12.1776 13.1822C12.1776 13.6356 12.311 14.0711 13.0665 14.1333C13.8221 14.1956 13.9021 13.6178 13.9021 13.6178V14.2222C13.6257 14.3567 13.3203 14.4208 13.0132 14.4089C12.6784 14.4089 12.3574 14.2759 12.1207 14.0392C11.884 13.8025 11.751 13.4814 11.751 13.1467C11.751 12.8119 11.884 12.4909 12.1207 12.2541C12.3574 12.0174 12.6784 11.8845 13.0132 11.8845C13.305 11.8575 13.5965 11.9398 13.831 12.1156L13.9021 12.6133Z" fill="#B29355"/>
<path fill-rule="evenodd" clip-rule="evenodd" d="M14.5779 12.1067C14.4984 12.0943 14.4174 12.0943 14.3379 12.1067C14.4082 12.0613 14.4874 12.0314 14.5702 12.0192C14.653 12.0069 14.7374 12.0125 14.8179 12.0356C15.1669 12.2539 15.4521 12.5606 15.6446 12.9245C15.9912 13.44 16.2846 14.2756 16.8179 14.1334C16.8029 14.1636 16.7816 14.1902 16.7556 14.2117C16.7296 14.2331 16.6993 14.2488 16.6668 14.2578C16.6668 14.2578 16.3201 14.3556 15.7779 13.8489C15.2357 13.3422 15.1112 12.24 14.5779 12.1067Z" fill="url(#paint14_linear_2707_351398)"/>
<path fill-rule="evenodd" clip-rule="evenodd" d="M14.542 12.1067C14.542 12.1067 15.0131 12.1067 15.5287 13.2356C16.0442 14.3645 16.6664 14.2222 16.6664 14.2222C16.6664 14.2222 15.9642 14.4622 15.4042 13.3334C14.8442 12.2045 14.6842 12.1867 14.542 12.1067Z" fill="url(#paint15_linear_2707_351398)"/>
<path fill-rule="evenodd" clip-rule="evenodd" d="M18.4176 12.5689V12.08C18.2212 11.954 17.9932 11.8862 17.7598 11.8845C17.6681 11.8772 17.576 11.8905 17.49 11.9231C17.404 11.9558 17.3263 12.0072 17.2626 12.0735C17.1988 12.1398 17.1506 12.2194 17.1213 12.3066C17.092 12.3938 17.0824 12.4864 17.0932 12.5778C17.1554 12.9956 17.5643 13.1556 17.8487 13.3422C18.1332 13.5289 18.2398 13.7156 18.2132 13.9289C18.1865 14.1422 17.3243 14.3645 17.1109 13.68V14.2667C17.2857 14.3449 17.475 14.3853 17.6665 14.3853C17.858 14.3853 18.0473 14.3449 18.2221 14.2667C18.8354 13.9911 18.5065 13.3778 18.2221 13.1822C17.9376 12.9867 17.1821 12.5867 17.5376 12.1956C17.7154 11.9645 18.2043 12.2133 18.4176 12.5689Z" fill="#B29355"/>
<path d="M17.5287 7.88445L17.3242 7.79556L17.5287 7.88445Z" fill="#383838"/>
<path d="M16.8882 7.60002L16.7549 7.52002L16.8882 7.60002Z" fill="#383838"/>
<path d="M17.0756 7.68891L16.9512 7.6178L17.0756 7.68891Z" fill="#383838"/>
<path d="M10.6669 24.1156C10.6687 24.1507 10.6624 24.1858 10.6485 24.2182C10.6347 24.2505 10.6136 24.2793 10.5869 24.3022C10.5235 24.3585 10.4404 24.3872 10.3558 24.3822H10.1781V24.7556H10.0625V23.8667H10.3558C10.3972 23.8625 10.4389 23.8667 10.4786 23.8789C10.5183 23.8911 10.5551 23.9111 10.5869 23.9378C10.6359 23.9843 10.6646 24.0481 10.6669 24.1156ZM10.3558 24.2845C10.4069 24.2865 10.4572 24.2708 10.4981 24.24C10.5283 24.2058 10.5442 24.1612 10.5425 24.1156C10.5425 24.0089 10.4803 23.9556 10.3558 23.9556H10.1781V24.2845H10.3558Z" fill="url(#paint16_linear_2707_351398)"/>
<path d="M12.0357 24.7556L11.8134 24.3911H11.6712V24.7556H11.5557V23.8667H11.849C11.9043 23.8516 11.9626 23.8516 12.0179 23.8667C12.0407 23.8736 12.0619 23.885 12.0803 23.9003C12.0986 23.9156 12.1136 23.9344 12.1246 23.9556C12.1379 24.002 12.1379 24.0513 12.1246 24.0978C12.1259 24.1557 12.1071 24.2123 12.0712 24.2578C12.03 24.307 11.9738 24.3414 11.9112 24.3556L12.1423 24.7289L12.0357 24.7556ZM11.6712 24.2934H11.849C11.8949 24.3104 11.9453 24.3104 11.9912 24.2934C12.0247 24.2605 12.0439 24.2158 12.0446 24.1689C12.046 24.1455 12.0419 24.122 12.0326 24.1004C12.0233 24.0788 12.0092 24.0596 11.9912 24.0445C11.9725 24.0267 11.9499 24.0134 11.9253 24.0057C11.9006 23.998 11.8745 23.9961 11.849 24H11.6712V24.2934Z" fill="url(#paint17_linear_2707_351398)"/>
<path d="M13.4663 24.7645C13.386 24.7659 13.3066 24.7476 13.2352 24.7111C13.1669 24.6711 13.1114 24.6125 13.0752 24.5422C13.0321 24.4698 13.0105 24.3865 13.0129 24.3022C13.0102 24.2207 13.0318 24.1402 13.0752 24.0711C13.1114 24.0008 13.1669 23.9422 13.2352 23.9022C13.3066 23.8658 13.386 23.8474 13.4663 23.8489C13.5464 23.8485 13.6255 23.8667 13.6974 23.9022C13.7656 23.9422 13.8211 24.0008 13.8574 24.0711C13.9018 24.1398 13.9235 24.2206 13.9196 24.3022C13.922 24.3865 13.9005 24.4698 13.8574 24.5422C13.8211 24.6125 13.7656 24.6711 13.6974 24.7111C13.6255 24.7466 13.5464 24.7649 13.4663 24.7645ZM13.4663 24.6667C13.5253 24.6658 13.5833 24.6505 13.6352 24.6222C13.6845 24.5923 13.7245 24.5492 13.7507 24.4978C13.769 24.4339 13.769 24.3661 13.7507 24.3022C13.7693 24.2414 13.7693 24.1764 13.7507 24.1156C13.7274 24.0622 13.6866 24.0184 13.6352 23.9911C13.5796 23.9779 13.5218 23.9779 13.4663 23.9911C13.4217 23.9852 13.3763 23.9882 13.3329 24C13.2812 24.0298 13.2382 24.0727 13.2085 24.1245C13.1791 24.1823 13.1638 24.2463 13.164 24.3111C13.1641 24.3788 13.1793 24.4456 13.2085 24.5067C13.2407 24.5565 13.2831 24.5989 13.3329 24.6311C13.3745 24.652 13.4198 24.6641 13.4663 24.6667Z" fill="url(#paint18_linear_2707_351398)"/>
<path d="M15.3867 24.1156C15.3878 24.1498 15.3821 24.184 15.3699 24.2161C15.3577 24.2481 15.3392 24.2774 15.3156 24.3022C15.2828 24.3307 15.2448 24.3525 15.2036 24.3662C15.1624 24.38 15.1189 24.3854 15.0756 24.3822H14.9067V24.7556H14.7822V23.8667H15.1111C15.1525 23.862 15.1943 23.8659 15.2341 23.8781C15.2739 23.8903 15.3107 23.9107 15.3422 23.9378C15.3783 23.9896 15.3941 24.0529 15.3867 24.1156ZM15.0756 24.2845C15.1269 24.2881 15.1777 24.2722 15.2178 24.24C15.2357 24.2248 15.2499 24.2057 15.2592 24.1841C15.2684 24.1625 15.2725 24.139 15.2711 24.1156C15.2711 24.0089 15.2 23.9556 15.0756 23.9556H14.9067V24.2845H15.0756Z" fill="url(#paint19_linear_2707_351398)"/>
<path d="M16.3646 23.9467V24.2489H16.6935V24.3467H16.3646V24.6578H16.729V24.7556H16.249V23.8667H16.729V23.9556L16.3646 23.9467Z" fill="url(#paint20_linear_2707_351398)"/>
<path d="M18.0978 24.7556L17.8844 24.3911H17.7778V24.7556H17.6533V23.8667H17.9467C18.005 23.8524 18.066 23.8524 18.1244 23.8667C18.1674 23.886 18.2043 23.9168 18.2311 23.9556C18.2404 24.0025 18.2404 24.0509 18.2311 24.0978C18.2325 24.1557 18.2136 24.2123 18.1778 24.2578C18.1366 24.307 18.0804 24.3414 18.0178 24.3556L18.2489 24.7289L18.0978 24.7556ZM17.7422 24.2934H17.9111C17.957 24.3104 18.0074 24.3104 18.0533 24.2934C18.0868 24.2605 18.106 24.2158 18.1067 24.1689C18.1081 24.1455 18.104 24.122 18.0947 24.1004C18.0854 24.0788 18.0713 24.0596 18.0533 24.0445C18.0346 24.0267 18.012 24.0134 17.9874 24.0057C17.9627 23.998 17.9366 23.9961 17.9111 24H17.7778L17.7422 24.2934Z" fill="url(#paint21_linear_2707_351398)"/>
<path d="M19.6797 23.8578V23.9467H19.4309V24.7556H19.3153V23.9467H19.0664V23.8578H19.6797Z" fill="url(#paint22_linear_2707_351398)"/>
<path d="M20.9154 23.8578H20.7998V24.7556H20.9154V23.8578Z" fill="url(#paint23_linear_2707_351398)"/>
</g>
<defs>
<linearGradient id="paint0_linear_2707_351398" x1="4.07024" y1="23.0735" x2="24.3725" y2="25.6246" gradientUnits="userSpaceOnUse">
<stop stop-color="#8A311A"/>
<stop offset="0.74" stop-color="#B29355"/>
<stop offset="1" stop-color="#8C361D"/>
</linearGradient>
<linearGradient id="paint1_linear_2707_351398" x1="4.09536" y1="22.8705" x2="24.3976" y2="25.4216" gradientUnits="userSpaceOnUse">
<stop stop-color="#8A311A"/>
<stop offset="0.74" stop-color="#B29355"/>
<stop offset="1" stop-color="#8C361D"/>
</linearGradient>
<linearGradient id="paint2_linear_2707_351398" x1="4.12111" y1="22.6675" x2="24.4233" y2="25.2186" gradientUnits="userSpaceOnUse">
<stop stop-color="#8A311A"/>
<stop offset="0.74" stop-color="#B29355"/>
<stop offset="1" stop-color="#8C361D"/>
</linearGradient>
<linearGradient id="paint3_linear_2707_351398" x1="4.12047" y1="22.6675" x2="24.4227" y2="25.2186" gradientUnits="userSpaceOnUse">
<stop stop-color="#8A311A"/>
<stop offset="0.74" stop-color="#B29355"/>
<stop offset="1" stop-color="#8C361D"/>
</linearGradient>
<linearGradient id="paint4_linear_2707_351398" x1="4.14637" y1="22.4645" x2="24.4486" y2="25.0156" gradientUnits="userSpaceOnUse">
<stop stop-color="#8A311A"/>
<stop offset="0.74" stop-color="#B29355"/>
<stop offset="1" stop-color="#8C361D"/>
</linearGradient>
<linearGradient id="paint5_linear_2707_351398" x1="4.19781" y1="22.0584" x2="24.5" y2="24.6095" gradientUnits="userSpaceOnUse">
<stop stop-color="#8A311A"/>
<stop offset="0.74" stop-color="#B29355"/>
<stop offset="1" stop-color="#8C361D"/>
</linearGradient>
<linearGradient id="paint6_linear_2707_351398" x1="4.22279" y1="21.8554" x2="24.525" y2="24.4065" gradientUnits="userSpaceOnUse">
<stop stop-color="#8A311A"/>
<stop offset="0.74" stop-color="#B29355"/>
<stop offset="1" stop-color="#8C361D"/>
</linearGradient>
<linearGradient id="paint7_linear_2707_351398" x1="4.24832" y1="21.6524" x2="24.5505" y2="24.2035" gradientUnits="userSpaceOnUse">
<stop stop-color="#8A311A"/>
<stop offset="0.74" stop-color="#B29355"/>
<stop offset="1" stop-color="#8C361D"/>
</linearGradient>
<linearGradient id="paint8_linear_2707_351398" x1="4.24806" y1="21.6524" x2="24.5503" y2="24.2035" gradientUnits="userSpaceOnUse">
<stop stop-color="#8A311A"/>
<stop offset="0.74" stop-color="#B29355"/>
<stop offset="1" stop-color="#8C361D"/>
</linearGradient>
<linearGradient id="paint9_linear_2707_351398" x1="4.29961" y1="21.2463" x2="24.6018" y2="23.7974" gradientUnits="userSpaceOnUse">
<stop stop-color="#8A311A"/>
<stop offset="0.74" stop-color="#B29355"/>
<stop offset="1" stop-color="#8C361D"/>
</linearGradient>
<linearGradient id="paint10_linear_2707_351398" x1="4.32542" y1="21.0433" x2="24.6276" y2="23.5944" gradientUnits="userSpaceOnUse">
<stop stop-color="#8A311A"/>
<stop offset="0.74" stop-color="#B29355"/>
<stop offset="1" stop-color="#8C361D"/>
</linearGradient>
<linearGradient id="paint11_linear_2707_351398" x1="4.35051" y1="20.8403" x2="24.6527" y2="23.3914" gradientUnits="userSpaceOnUse">
<stop stop-color="#8A311A"/>
<stop offset="0.74" stop-color="#B29355"/>
<stop offset="1" stop-color="#8C361D"/>
</linearGradient>
<linearGradient id="paint12_linear_2707_351398" x1="4.37585" y1="20.6373" x2="24.6781" y2="23.1884" gradientUnits="userSpaceOnUse">
<stop stop-color="#8A311A"/>
<stop offset="0.74" stop-color="#B29355"/>
<stop offset="1" stop-color="#8C361D"/>
</linearGradient>
<linearGradient id="paint13_linear_2707_351398" x1="21.0777" y1="9.62196" x2="17.4777" y2="15.0709" gradientUnits="userSpaceOnUse">
<stop stop-color="#585858"/>
<stop offset="1" stop-color="#252324"/>
</linearGradient>
<linearGradient id="paint14_linear_2707_351398" x1="13.5343" y1="13.8096" x2="16.0232" y2="13.8096" gradientUnits="userSpaceOnUse">
<stop stop-color="#A85A2A"/>
<stop offset="0.25" stop-color="#AB6935"/>
<stop offset="0.52" stop-color="#B29355"/>
<stop offset="0.77" stop-color="#AA6732"/>
<stop offset="1" stop-color="#A75726"/>
</linearGradient>
<linearGradient id="paint15_linear_2707_351398" x1="14.0423" y1="11.7735" x2="15.3223" y2="13.489" gradientUnits="userSpaceOnUse">
<stop stop-color="#B29355"/>
<stop offset="0.51" stop-color="#A85A29"/>
<stop offset="1" stop-color="#B29355"/>
</linearGradient>
<linearGradient id="paint16_linear_2707_351398" x1="3.86632" y1="24.6977" x2="24.1686" y2="27.2488" gradientUnits="userSpaceOnUse">
<stop stop-color="#8A311A"/>
<stop offset="0.74" stop-color="#B29355"/>
<stop offset="1" stop-color="#8C361D"/>
</linearGradient>
<linearGradient id="paint17_linear_2707_351398" x1="3.89167" y1="24.4947" x2="24.1939" y2="27.0458" gradientUnits="userSpaceOnUse">
<stop stop-color="#8A311A"/>
<stop offset="0.74" stop-color="#B29355"/>
<stop offset="1" stop-color="#8C361D"/>
</linearGradient>
<linearGradient id="paint18_linear_2707_351398" x1="3.91667" y1="24.2917" x2="24.2189" y2="26.8428" gradientUnits="userSpaceOnUse">
<stop stop-color="#8A311A"/>
<stop offset="0.74" stop-color="#B29355"/>
<stop offset="1" stop-color="#8C361D"/>
</linearGradient>
<linearGradient id="paint19_linear_2707_351398" x1="3.94258" y1="24.0886" x2="24.2448" y2="26.6397" gradientUnits="userSpaceOnUse">
<stop stop-color="#8A311A"/>
<stop offset="0.74" stop-color="#B29355"/>
<stop offset="1" stop-color="#8C361D"/>
</linearGradient>
<linearGradient id="paint20_linear_2707_351398" x1="3.96825" y1="23.8856" x2="24.2704" y2="26.4367" gradientUnits="userSpaceOnUse">
<stop stop-color="#8A311A"/>
<stop offset="0.74" stop-color="#B29355"/>
<stop offset="1" stop-color="#8C361D"/>
</linearGradient>
<linearGradient id="paint21_linear_2707_351398" x1="3.99359" y1="23.6826" x2="24.2958" y2="26.2337" gradientUnits="userSpaceOnUse">
<stop stop-color="#8A311A"/>
<stop offset="0.74" stop-color="#B29355"/>
<stop offset="1" stop-color="#8C361D"/>
</linearGradient>
<linearGradient id="paint22_linear_2707_351398" x1="4.01888" y1="23.4796" x2="24.3211" y2="26.0307" gradientUnits="userSpaceOnUse">
<stop stop-color="#8A311A"/>
<stop offset="0.74" stop-color="#B29355"/>
<stop offset="1" stop-color="#8C361D"/>
</linearGradient>
<linearGradient id="paint23_linear_2707_351398" x1="4.01878" y1="23.4796" x2="24.3212" y2="26.0307" gradientUnits="userSpaceOnUse">
<stop stop-color="#8A311A"/>
<stop offset="0.74" stop-color="#B29355"/>
<stop offset="1" stop-color="#8C361D"/>
</linearGradient>
<clipPath id="clip0_2707_351398">
<rect width="32" height="32" fill="white"/>
</clipPath>
</defs>
</svg>
