<svg width="32" height="32" viewBox="0 0 32 32" fill="none" xmlns="http://www.w3.org/2000/svg">
<g clip-path="url(#clip0_2707_350933)">
<path d="M15.9998 31.9822C24.8265 31.9822 31.982 24.8267 31.982 16C31.982 7.17326 24.8265 0.0177765 15.9998 0.0177765C7.17306 0.0177765 0.0175781 7.17326 0.0175781 16C0.0175781 24.8267 7.17306 31.9822 15.9998 31.9822Z" fill="white"/>
<path d="M5.33337 18.5689C5.84966 19.1051 6.52121 19.4657 7.25337 19.6C7.58774 19.6591 7.92843 19.6741 8.2667 19.6444C8.54295 19.6164 8.81646 19.5659 9.08448 19.4933H9.16448H9.26225H9.21781H9.13781C8.9372 19.5829 8.72896 19.6543 8.51559 19.7067C8.12363 19.8055 7.71949 19.8474 7.31559 19.8311C6.8138 19.8314 6.31637 19.738 5.84892 19.5556C5.32458 19.3601 4.84841 19.0541 4.45271 18.6584C4.05702 18.2627 3.75106 17.7866 3.55559 17.2622C3.41651 16.8736 3.33854 16.4658 3.32448 16.0533C3.30331 15.4212 3.4344 14.7931 3.7067 14.2222C3.90616 13.8003 4.18019 13.4179 4.51559 13.0933C4.68479 12.9254 4.86929 12.7736 5.0667 12.64C5.17337 12.5778 5.28003 12.5067 5.3867 12.4533L5.81337 12.24C6.0267 12.1778 6.24003 12.0978 6.45337 12.0444C6.81797 11.9645 7.19219 11.9376 7.56448 11.9644C7.97298 11.9907 8.37487 12.0807 8.75559 12.2311L8.91559 12.3022L9.04003 12.3467H8.99559H8.88003H8.80003H8.69337H8.5867C8.49869 12.3289 8.40804 12.3289 8.32003 12.3467H8.16003H7.88448C7.80454 12.3422 7.72442 12.3422 7.64448 12.3467H7.49337H7.36003H7.19114H7.03114H6.91559L6.75559 12.3911C6.66612 12.4174 6.57971 12.4532 6.49781 12.4978L6.41781 12.5511C6.19437 12.6591 5.98284 12.7902 5.7867 12.9422L5.61781 13.0667C5.44761 13.2132 5.29001 13.3738 5.1467 13.5467C5.04892 13.6711 4.95114 13.7956 4.86225 13.9289C4.58442 14.2753 4.38707 14.6791 4.28448 15.1111C4.20629 15.491 4.18532 15.8805 4.22225 16.2667C4.28776 16.9356 4.52003 17.5774 4.89781 18.1333C5.02568 18.2949 5.17184 18.441 5.33337 18.5689Z" fill="#900E0E"/>
<path d="M5.83944 14.08C5.86522 13.9739 5.91242 13.8743 5.97816 13.7871C6.04389 13.7 6.12676 13.6272 6.22166 13.5733C6.45207 13.4299 6.70424 13.3248 6.96833 13.2622C7.21856 13.2015 7.47529 13.1717 7.73277 13.1733C7.95495 13.1739 8.17504 13.2161 8.38166 13.2978C8.49028 13.3436 8.58599 13.4154 8.66038 13.5068C8.73477 13.5982 8.78558 13.7066 8.80833 13.8222C8.81273 13.8666 8.81273 13.9112 8.80833 13.9556C8.80741 14.1604 8.76508 14.363 8.68388 14.5511C8.68774 14.5687 8.68774 14.5869 8.68388 14.6044C8.595 14.7911 8.50611 14.9689 8.40833 15.1467C8.30564 15.3486 8.18673 15.5418 8.05277 15.7244L7.955 15.8756L7.81277 16.0533C7.47717 16.4706 7.08179 16.836 6.63944 17.1378C6.39208 17.3036 6.12668 17.4408 5.84833 17.5467C5.78878 17.5767 5.72016 17.5832 5.65599 17.5651C5.59182 17.547 5.53676 17.5056 5.50166 17.4489C5.39135 17.3145 5.30696 17.1608 5.25277 16.9956L5.09277 16.5067H5.16388C5.474 16.5294 5.78376 16.4582 6.05277 16.3022C6.19637 16.2158 6.33044 16.1145 6.45277 16C6.62737 15.8549 6.78537 15.691 6.92388 15.5111C7.03944 15.3778 7.13722 15.2267 7.24388 15.0756C7.28567 15.0124 7.32424 14.9471 7.35944 14.88C7.50311 14.637 7.60807 14.3731 7.67055 14.0978C7.67055 14.0444 7.67055 13.9822 7.67055 13.9289C7.67498 13.8638 7.67498 13.7984 7.67055 13.7333C7.66512 13.6772 7.6426 13.6241 7.60604 13.5812C7.56949 13.5383 7.52064 13.5076 7.46611 13.4933L7.28833 13.44C7.16489 13.4177 7.03844 13.4177 6.915 13.44C6.72017 13.473 6.5419 13.5699 6.40833 13.7156L6.33722 13.7867C6.29998 13.8403 6.25506 13.8883 6.20388 13.9289L5.98166 14.0622C5.96211 14.0784 5.93834 14.0887 5.91314 14.0918C5.88795 14.095 5.86238 14.0909 5.83944 14.08Z" fill="#910D0D"/>
<path d="M19.1641 14.2756C19.1188 14.1281 19.0431 13.9919 18.9419 13.8756L18.8886 13.8133L18.8352 13.76C18.7403 13.6669 18.6277 13.5938 18.504 13.5449C18.3804 13.4961 18.2482 13.4725 18.1152 13.4756C17.9505 13.4696 17.7874 13.5097 17.6441 13.5911C17.4925 13.6766 17.3746 13.8114 17.31 13.973C17.2453 14.1346 17.2378 14.3135 17.2886 14.48C17.3025 14.5328 17.3281 14.5817 17.3635 14.6232C17.3989 14.6648 17.4431 14.6978 17.493 14.72C17.7476 14.834 18.0125 14.9233 18.2841 14.9867C18.5526 15.0494 18.8123 15.1449 19.0575 15.2711C19.2089 15.3487 19.341 15.4592 19.4441 15.5946C19.5472 15.7299 19.6185 15.8867 19.653 16.0533C19.7488 16.444 19.7176 16.8549 19.5641 17.2267C19.5399 17.2885 19.5102 17.348 19.4752 17.4044L19.253 17.68L19.0041 17.8756C18.8541 17.9552 18.6919 18.0092 18.5241 18.0356C18.3075 18.0841 18.083 18.0862 17.8654 18.0418C17.6479 17.9973 17.4422 17.9074 17.2619 17.7778C17.1641 17.8578 17.0663 17.9378 16.9863 18.0178C16.963 18.0398 16.9344 18.0555 16.9033 18.0633C16.8721 18.0711 16.8395 18.0707 16.8086 18.0622V16.6578H16.9952C17.0429 16.8916 17.1333 17.1146 17.2619 17.3156C17.3846 17.5169 17.5639 17.6777 17.7775 17.7778L17.9997 17.8578H18.0619H18.1152C18.1472 17.8486 18.1811 17.8486 18.213 17.8578H18.3908C18.4288 17.8668 18.4684 17.8668 18.5063 17.8578L18.7641 17.7511C18.8684 17.6795 18.9613 17.5926 19.0397 17.4933C19.1345 17.3679 19.1943 17.2195 19.2131 17.0633C19.2318 16.9071 19.2088 16.7488 19.1463 16.6044C19.0808 16.456 18.9641 16.3361 18.8175 16.2667C18.5366 16.1169 18.238 16.0034 17.9286 15.9289C17.6943 15.8734 17.4717 15.7771 17.2708 15.6444C17.1463 15.563 17.0397 15.4573 16.9572 15.3335C16.8747 15.2098 16.8181 15.0706 16.7908 14.9244C16.7107 14.6074 16.7388 14.2726 16.8708 13.9733C16.9472 13.7922 17.0692 13.6339 17.225 13.5139C17.3808 13.394 17.565 13.3164 17.7597 13.2889C18.102 13.2268 18.4552 13.28 18.7641 13.44L19.013 13.5911L19.2441 13.36H19.3686V14.6578H19.1908C19.1908 14.6578 19.1908 14.6578 19.1375 14.6044C19.0841 14.5511 19.1997 14.3822 19.1641 14.2756Z" fill="#900F0F"/>
<path d="M14.1687 13.3333C14.3451 13.3418 14.5177 13.3873 14.6754 13.4667L15.0398 13.6711L15.2443 13.4489C15.2516 13.4181 15.2684 13.3904 15.2923 13.3696C15.3163 13.3489 15.3461 13.3362 15.3776 13.3333H15.4487V14.6756H15.2532C15.2532 14.6044 15.2532 14.5422 15.2087 14.48C15.1564 14.2506 15.0497 14.0372 14.8976 13.8578L14.6043 13.68C14.5168 13.6291 14.4201 13.5959 14.3198 13.5822H14.2221H13.9554L13.6621 13.6356C13.5837 13.6651 13.5091 13.7039 13.4398 13.7511L13.3065 13.8756C13.1134 14.1339 12.9992 14.4426 12.9776 14.7644C12.9776 14.8978 12.9776 15.0311 12.9776 15.1733V16.4444C12.9773 16.6353 12.9952 16.8258 13.031 17.0133C13.0595 17.1555 13.1074 17.293 13.1732 17.4222C13.2387 17.5413 13.3261 17.6468 13.431 17.7333L13.3332 17.7778C13.3354 17.7951 13.3438 17.8109 13.3569 17.8224C13.37 17.8339 13.3869 17.8401 13.4043 17.84H13.4487C13.5064 17.8725 13.5698 17.8937 13.6354 17.9022L13.7776 17.9467H13.8221C13.9198 17.9467 14.0265 17.9467 14.1243 17.9467L14.2487 17.9022L14.4798 17.8311H14.551C14.5873 17.8014 14.6259 17.7747 14.6665 17.7511C14.6665 17.7511 14.7198 17.7511 14.7287 17.7067H14.8087L14.7643 17.6533C14.9819 17.3959 15.137 17.0917 15.2176 16.7644C15.2176 16.7644 15.2176 16.72 15.2621 16.7644H15.4221V18.1689H15.3776L15.2798 18.0622L15.111 17.7067L14.9687 17.8133C14.7602 17.9426 14.5272 18.0274 14.2843 18.0622C14.0178 18.1131 13.7433 18.1045 13.4805 18.0369C13.2177 17.9692 12.9731 17.8443 12.7643 17.6711C12.384 17.3803 12.0967 16.9849 11.9376 16.5333C11.8539 16.2931 11.8089 16.041 11.8043 15.7867C11.7862 15.3798 11.8654 14.9745 12.0354 14.6044C12.2818 14.0706 12.7195 13.6487 13.2621 13.4222C13.4314 13.3506 13.6118 13.3085 13.7954 13.2978L14.1687 13.3333Z" fill="#900E0E"/>
<path d="M8.49801 16.7378C8.62941 16.5793 8.75111 16.4131 8.86246 16.24C8.99579 16.0356 9.11135 15.8222 9.2269 15.6089C9.33344 15.4024 9.4169 15.1848 9.47579 14.96C9.50169 14.8694 9.52247 14.7774 9.53801 14.6844C9.58519 14.4742 9.56974 14.2548 9.49357 14.0533L9.41357 13.9111L9.23579 13.6978L9.1469 13.6356H9.23579H9.34246H9.40468L9.58246 13.7689L9.71579 13.8667C9.85551 13.9908 9.97279 14.1382 10.0625 14.3022C10.189 14.5244 10.2563 14.7754 10.258 15.0311C10.2593 15.2108 10.2384 15.3899 10.1958 15.5644C10.1958 15.6711 10.1336 15.7778 10.1069 15.8756C10.0802 15.9733 10.1069 15.8756 10.1069 15.92C10.0032 16.1763 9.87203 16.4207 9.71579 16.6489L9.5469 16.88C9.37801 17.0844 9.20023 17.2889 9.01357 17.4756L8.83579 17.6444C8.42325 18.0287 7.97364 18.3711 7.49357 18.6667C7.43424 18.6964 7.36881 18.7119 7.30246 18.7119C7.23611 18.7119 7.17067 18.6964 7.11135 18.6667C6.88516 18.6041 6.66731 18.5145 6.46246 18.4L6.24023 18.2933C6.41271 18.2344 6.58185 18.1662 6.7469 18.0889C6.95733 17.9863 7.15942 17.8674 7.35135 17.7333C7.57957 17.5901 7.7965 17.4297 8.00023 17.2533L8.30246 16.9422L8.49801 16.7378Z" fill="#910D0D"/>
<path d="M22.4619 17.7778H23.1108C23.1108 17.7778 23.173 17.7778 23.1641 17.8311V17.92H23.0041H20.9686H20.9241V17.8311H20.9775H21.5819C21.5819 17.8311 21.5819 17.7778 21.5819 17.7511V13.5733H20.8975V13.4044H23.1108V13.5733H22.4352C22.4352 13.5733 22.4352 13.5733 22.4352 13.6267V17.7778H22.4619Z" fill="#920D0D"/>
<path d="M11.9111 19.0578V18.8622H11.9822H27.76C27.8222 18.8622 27.8311 18.8622 27.8311 18.9333C27.8311 19.0044 27.8311 18.9867 27.8311 19.0133C27.8311 19.04 27.8311 19.0578 27.7778 19.0578H27.6889H11.9467C11.9467 19.0578 11.9111 19.0311 11.9111 19.0578Z" fill="#8E0E0C"/>
<path d="M7.35123 14.8711C7.31603 14.9382 7.27746 15.0035 7.23567 15.0667C7.13789 15.2178 7.03122 15.36 6.92456 15.5022C6.78299 15.6823 6.62202 15.8463 6.44456 15.9911C6.30501 16.1107 6.15303 16.215 5.99122 16.3022C5.72142 16.4561 5.41228 16.5272 5.10234 16.5067H5.049C5.02663 16.4434 5.02663 16.3744 5.049 16.3111C5.1241 16.191 5.22049 16.0855 5.33345 16C5.56928 15.799 5.82549 15.6232 6.09789 15.4756C6.49215 15.254 6.89873 15.0552 7.31567 14.88L7.35123 14.8711Z" fill="#6F6B69"/>
<path d="M9.54659 14.6578C9.53104 14.7507 9.51027 14.8427 9.48437 14.9333C9.42548 15.1581 9.34201 15.3757 9.23548 15.5822C8.84781 15.6247 8.46429 15.6991 8.08881 15.8044L7.91992 15.8578L7.99992 15.7422C8.13198 15.5552 8.25079 15.3592 8.35548 15.1556C8.45325 14.9778 8.54214 14.8 8.63103 14.6222C8.63395 14.6016 8.63395 14.5806 8.63103 14.56H8.85326C8.96942 14.5285 9.09077 14.5209 9.20995 14.5377C9.32914 14.5546 9.44366 14.5954 9.54659 14.6578Z" fill="#6F6B69"/>
<path d="M5.84003 14.08C5.90225 14.08 5.9467 14.08 6.00003 14.08L6.22225 13.9289L6.36447 13.7867L6.4267 13.7156H6.51559L7.11114 13.4844L7.31559 13.4311L7.50225 13.4844C7.5562 13.4998 7.60439 13.5308 7.64077 13.5735C7.67715 13.6162 7.70008 13.6687 7.7067 13.7244C7.7067 13.7867 7.7067 13.8578 7.7067 13.92L7.32447 14.0089C6.94734 14.1074 6.58759 14.2633 6.25781 14.4711C6.25781 14.3289 6.15114 14.2311 6.00003 14.3022C5.91669 14.3504 5.83652 14.4038 5.76003 14.4622L5.57336 14.56C5.51114 14.56 5.48447 14.56 5.47559 14.4978L5.88447 14.1067L5.84003 14.08Z" fill="#6F6B69"/>
<path d="M5.39562 14.4889C5.39562 14.5422 5.39562 14.5689 5.48451 14.5511C5.55224 14.5239 5.61764 14.4912 5.68006 14.4533C5.75655 14.3949 5.83672 14.3415 5.92006 14.2933C6.07117 14.2133 6.16006 14.2933 6.17784 14.4622C6.19666 14.5654 6.19456 14.6712 6.17165 14.7735C6.14874 14.8758 6.10551 14.9725 6.04451 15.0578C5.89517 15.2799 5.66594 15.4359 5.4045 15.4933C5.25757 15.5386 5.1049 15.5625 4.95117 15.5644C4.95117 15.4756 4.99562 15.3956 5.01339 15.3156C5.08943 15.0687 5.19698 14.8327 5.33339 14.6133C5.35026 14.57 5.37109 14.5284 5.39562 14.4889Z" fill="#900E0E"/>
<path d="M10.5686 15.4756C10.5643 15.4991 10.5643 15.5232 10.5686 15.5467C10.5636 15.588 10.5636 15.6298 10.5686 15.6711C10.5686 15.7333 10.5686 15.7867 10.5686 15.84C10.5686 15.84 10.5686 15.8933 10.5686 15.84C10.5778 16.0534 10.5507 16.2668 10.4886 16.4711C10.366 16.9133 10.1576 17.3271 9.87531 17.6889C9.49434 18.1696 8.96691 18.5129 8.37309 18.6667H8.19531H8.43531L8.67531 18.5333C8.67531 18.5333 8.90642 18.3822 9.02198 18.2933L9.34198 18.0089L9.50198 17.8489C9.67676 17.6659 9.83723 17.4698 9.98198 17.2622C10.1594 17.0141 10.3001 16.7416 10.3998 16.4533C10.3998 16.4533 10.3998 16.4533 10.3998 16.4C10.4555 16.2098 10.4766 16.011 10.462 15.8133C10.4467 15.6572 10.4077 15.5044 10.3464 15.36V15.3156H10.3998C10.4167 15.3645 10.4375 15.4121 10.462 15.4578C10.4965 15.469 10.5324 15.475 10.5686 15.4756Z" fill="#8C1211"/>
<path d="M10.0262 17.1822C9.88597 17.3931 9.72518 17.5896 9.54623 17.7689L9.38623 17.9378C9.39086 17.8638 9.39086 17.7896 9.38623 17.7156C9.38179 17.6692 9.36018 17.6262 9.32565 17.5949C9.29111 17.5637 9.24614 17.5465 9.19956 17.5467H8.99512C9.18178 17.36 9.35956 17.1556 9.52845 16.9511L9.69734 16.72C9.69734 16.72 9.69734 16.72 9.74178 16.72L9.88401 16.8089C9.93701 16.8543 9.97779 16.9122 10.0026 16.9775C10.0275 17.0427 10.0356 17.1131 10.0262 17.1822Z" fill="#706B69"/>
<path d="M28.6753 12.4889C28.6753 12.6049 28.6409 12.7183 28.5764 12.8148C28.512 12.9113 28.4203 12.9865 28.3131 13.0309C28.2059 13.0753 28.088 13.0869 27.9742 13.0643C27.8604 13.0416 27.7558 12.9858 27.6738 12.9037C27.5917 12.8217 27.5359 12.7171 27.5132 12.6033C27.4906 12.4895 27.5022 12.3716 27.5466 12.2644C27.591 12.1572 27.6662 12.0656 27.7627 12.0011C27.8592 11.9366 27.9726 11.9022 28.0886 11.9022C28.2442 11.9022 28.3934 11.964 28.5035 12.0741C28.6135 12.1841 28.6753 12.3333 28.6753 12.4889ZM28.0886 12.96C28.1839 12.9618 28.2776 12.9351 28.3577 12.8835C28.4378 12.8318 28.5007 12.7575 28.5384 12.6699C28.5761 12.5824 28.5868 12.4856 28.5693 12.3919C28.5518 12.2982 28.5068 12.2119 28.4401 12.1439C28.3733 12.0758 28.2878 12.0292 28.1945 12.01C28.1011 11.9907 28.0042 11.9997 27.9159 12.0358C27.8277 12.0718 27.7522 12.1333 27.6991 12.2124C27.6459 12.2915 27.6175 12.3847 27.6175 12.48C27.6175 12.6058 27.6668 12.7265 27.7549 12.8163C27.843 12.9061 27.9629 12.9577 28.0886 12.96Z" fill="#881615"/>
<path d="M9.14668 13.5733L9.23557 13.6356L9.41335 13.8489L8.80001 13.7956C8.76578 13.6885 8.70695 13.5909 8.62823 13.5106C8.54951 13.4303 8.45308 13.3696 8.34668 13.3333C8.50713 13.3405 8.66575 13.3705 8.81779 13.4222H8.8889L8.96001 13.4667L9.14668 13.5733Z" fill="#726968"/>
<path d="M18.8446 19.6711V20.0178H18.7646V19.5556C18.7859 19.5465 18.8099 19.5461 18.8314 19.5543C18.853 19.5626 18.8705 19.579 18.8802 19.6L19.0935 19.8756V19.5556H19.1824V20.0444C19.1583 20.0513 19.1327 20.0508 19.1089 20.0428C19.0851 20.0349 19.0643 20.02 19.0491 20C18.978 19.8933 18.898 19.7956 18.818 19.6978L18.8446 19.6711Z" fill="#70706F"/>
<path d="M21.8664 19.5556V20.0444C21.8424 20.0527 21.8163 20.0529 21.7922 20.0448C21.7681 20.0368 21.7473 20.021 21.7331 20C21.663 19.8945 21.5826 19.7963 21.4931 19.7067V20.0444H21.4131V19.5556C21.4298 19.5433 21.4501 19.5367 21.4709 19.5367C21.4916 19.5367 21.5119 19.5433 21.5286 19.5556L21.7509 19.8489V19.5556H21.8664Z" fill="#70706F"/>
<path d="M22.0088 20.0267V19.5556C22.1004 19.5467 22.1927 19.5467 22.2843 19.5556C22.3999 19.5556 22.4532 19.6711 22.4532 19.8133C22.4515 19.864 22.4318 19.9125 22.3976 19.9499C22.3634 19.9874 22.3169 20.0115 22.2666 20.0178C22.1809 20.0256 22.0948 20.0285 22.0088 20.0267ZM22.0888 19.6V19.9378H22.2221C22.2576 19.9336 22.2904 19.9171 22.3148 19.891C22.3392 19.865 22.3536 19.8312 22.3555 19.7956C22.3555 19.6978 22.3555 19.6356 22.2488 19.6178H22.0799L22.0888 19.6Z" fill="#727271"/>
<path d="M22.5245 19.7689C22.5245 19.7005 22.5517 19.635 22.6 19.5866C22.6484 19.5383 22.7139 19.5111 22.7823 19.5111C22.8157 19.5111 22.8488 19.5178 22.8796 19.5309C22.9104 19.5439 22.9383 19.5631 22.9615 19.5871C22.9847 19.6112 23.0029 19.6397 23.0148 19.6709C23.0268 19.7021 23.0324 19.7355 23.0312 19.7689C23.0312 19.8373 23.004 19.9028 22.9557 19.9512C22.9073 19.9995 22.8418 20.0267 22.7734 20.0267C22.7065 20.0267 22.6423 20.0008 22.5942 19.9543C22.5461 19.9079 22.5179 19.8446 22.5156 19.7778L22.5245 19.7689ZM22.9601 19.7689C22.9601 19.7232 22.9426 19.6793 22.9112 19.6462C22.8797 19.6131 22.8368 19.5934 22.7912 19.5911C22.7448 19.5955 22.7018 19.6172 22.6705 19.6517C22.6393 19.6862 22.6221 19.7312 22.6223 19.7778C22.6223 19.8249 22.641 19.8701 22.6744 19.9035C22.7077 19.9368 22.7529 19.9556 22.8001 19.9556C22.8222 19.9556 22.8442 19.9512 22.8647 19.9427C22.8852 19.9342 22.9038 19.9218 22.9195 19.9061C22.9352 19.8904 22.9476 19.8718 22.9561 19.8513C22.9646 19.8308 22.969 19.8088 22.969 19.7867L22.9601 19.7689Z" fill="#70706F"/>
<path d="M20.1686 19.8133H19.9375V19.9378H20.2042V20.0178H19.8486V19.5556H20.1953V19.6267H19.9375V19.76H20.1686V19.8133Z" fill="#727271"/>
<path d="M16.5957 20.0178L16.7024 19.7867C16.7024 19.7067 16.7735 19.6267 16.8001 19.5467C16.8065 19.5413 16.8139 19.5373 16.8219 19.5348C16.8298 19.5323 16.8382 19.5315 16.8465 19.5323C16.8548 19.5331 16.8628 19.5356 16.8701 19.5396C16.8774 19.5436 16.8839 19.549 16.889 19.5556L17.0935 20.0089C17.0224 20.0089 17.0046 20.0089 16.9868 19.9644C16.9846 19.9472 16.9762 19.9313 16.9631 19.9198C16.95 19.9083 16.9331 19.9021 16.9157 19.9022H16.7468C16.7468 19.9022 16.7024 19.9022 16.6935 19.9022C16.6846 20.0267 16.6846 20.0267 16.5957 20.0178ZM16.8624 19.6267L16.7735 19.8311H16.9513L16.8624 19.6267Z" fill="#70706F"/>
<path d="M14.2217 19.5556H14.3017V19.76H14.5417V19.5556H14.6306V20.0444H14.5772V19.8844V19.84C14.5092 19.8445 14.4409 19.8445 14.3728 19.84V20.0444H14.2217V19.5556Z" fill="#6E6E6D"/>
<path d="M25.6002 19.7333V19.8044H25.3691V19.9378H25.6357V20.0178H25.2891V19.5556H25.6268V19.6267H25.3691V19.76L25.6002 19.7333Z" fill="#70706F"/>
<path d="M16.1509 20.0178C16.062 20.0178 16.062 20.0178 16.0353 19.9556C16.0334 19.9459 16.0291 19.9368 16.0229 19.929C16.0168 19.9213 16.0088 19.9152 15.9998 19.9111H15.8398H15.7865C15.7865 19.9733 15.7865 19.9733 15.6709 19.9733V19.9289L15.8576 19.5111C15.8576 19.5111 15.8576 19.5111 15.9109 19.5111C15.92 19.5046 15.9308 19.5011 15.942 19.5011C15.9532 19.5011 15.9641 19.5046 15.9731 19.5111L16.1598 19.9289L16.1509 20.0178ZM15.8842 19.6267L15.8042 19.8222H15.9998L15.8842 19.6267Z" fill="#70706F"/>
<path d="M14.7285 20.0089L14.8085 19.8222C14.853 19.7333 14.8885 19.6356 14.933 19.5467H14.9774C14.9774 19.5467 15.0307 19.5467 15.0485 19.5467C15.0663 19.5467 15.1818 19.8489 15.2441 20.0089C15.1641 20.0089 15.1641 20.0089 15.1374 19.9467C15.1332 19.9319 15.1237 19.9193 15.1107 19.9111H14.9507C14.9507 19.9111 14.9063 19.9111 14.8974 19.9111C14.8174 20.0267 14.8174 20.0267 14.7285 20.0089ZM15.0752 19.8311C15.0493 19.7614 15.0196 19.6931 14.9863 19.6267L14.8974 19.8311H15.0752Z" fill="#70706F"/>
<path d="M13.6533 20.0178L13.8133 19.6533V19.5733C13.8186 19.5584 13.8281 19.5454 13.8408 19.5359C13.8534 19.5264 13.8686 19.5209 13.8844 19.52L14.0978 19.9911C14.0178 19.9911 14.0089 19.9911 13.9822 19.9467C13.9803 19.9308 13.9732 19.9161 13.9619 19.9048C13.9506 19.8935 13.9358 19.8863 13.92 19.8844H13.7511C13.7511 19.8844 13.6978 19.8844 13.6889 19.8844C13.7422 20.0267 13.7422 20.0267 13.6533 20.0178ZM13.8222 19.8222H14L13.9111 19.6267C13.8869 19.6942 13.8572 19.7596 13.8222 19.8222Z" fill="#70706F"/>
<path d="M17.2713 19.5556V19.7867L17.4224 19.6267C17.4379 19.5948 17.4647 19.5699 17.4975 19.5567C17.5304 19.5436 17.567 19.5431 17.6002 19.5556L17.4758 19.6978C17.4135 19.7689 17.4135 19.7689 17.4758 19.84L17.618 20.0444C17.5558 20.0444 17.5113 20.0444 17.4846 20L17.3602 19.8311C17.2713 19.8311 17.2713 19.9556 17.2891 20.0444H17.2002V19.5556H17.2713Z" fill="#6E6E6D"/>
<path d="M24.7558 19.5556L24.5869 19.7333C24.5869 19.7333 24.5869 19.7333 24.5869 19.8044L24.738 20V20.0444C24.7131 20.0538 24.6857 20.0534 24.661 20.0436C24.6363 20.0337 24.6163 20.015 24.6047 19.9911C24.5712 19.9371 24.5325 19.8865 24.4891 19.84C24.4002 19.8844 24.4091 19.9644 24.4091 20.0444H24.3291V19.5556H24.4091V19.7778L24.5602 19.6267C24.658 19.5556 24.6669 19.5556 24.7558 19.5556Z" fill="#6E6E6D"/>
<path d="M26.0798 19.5556L26.0353 19.6089H25.9198H25.8664C25.8523 19.6089 25.8387 19.6145 25.8287 19.6245C25.8187 19.6345 25.8131 19.6481 25.8131 19.6622C25.8138 19.6758 25.8184 19.6888 25.8263 19.6998C25.8341 19.7108 25.845 19.7194 25.8576 19.7244H25.9464C25.9924 19.7392 26.0348 19.7634 26.0709 19.7956C26.0751 19.8221 26.0751 19.8491 26.0709 19.8756C26.0699 19.9063 26.059 19.936 26.0398 19.96C26.0206 19.9841 25.994 20.0012 25.9642 20.0089C25.9161 20.0223 25.8653 20.0228 25.8169 20.0103C25.7685 19.9978 25.7243 19.9728 25.6887 19.9378V19.8756C25.7235 19.9005 25.7627 19.9186 25.8042 19.9289C25.8197 19.9355 25.8363 19.9389 25.8531 19.9389C25.8699 19.9389 25.8865 19.9355 25.902 19.9289C25.902 19.9289 25.902 19.9289 25.902 19.8844C25.9078 19.8768 25.9109 19.8674 25.9109 19.8578C25.9109 19.8482 25.9078 19.8388 25.902 19.8311H25.8398H25.7598C25.7276 19.8227 25.6996 19.8025 25.6815 19.7745C25.6635 19.7466 25.6565 19.7128 25.662 19.68C25.6672 19.6489 25.6819 19.6201 25.7042 19.5978C25.7266 19.5755 25.7553 19.5607 25.7864 19.5556C25.8318 19.5322 25.8821 19.52 25.9331 19.52C25.9841 19.52 26.0344 19.5322 26.0798 19.5556Z" fill="#70706F"/>
<path d="M24.1238 19.5556H24.2038C24.2127 19.668 24.2127 19.7809 24.2038 19.8933C24.1907 19.9374 24.1637 19.976 24.1269 20.0034C24.09 20.0309 24.0453 20.0457 23.9994 20.0457C23.9534 20.0457 23.9087 20.0309 23.8719 20.0034C23.835 19.976 23.808 19.9374 23.7949 19.8933C23.7949 19.7778 23.7949 19.6711 23.7949 19.5644H23.8749V19.8489C23.8749 19.8819 23.888 19.9135 23.9114 19.9369C23.9347 19.9602 23.9664 19.9733 23.9994 19.9733C24.0324 19.9733 24.064 19.9602 24.0874 19.9369C24.1107 19.9135 24.1238 19.8819 24.1238 19.8489C24.1283 19.769 24.1283 19.6888 24.1238 19.6089V19.5556Z" fill="#727271"/>
<path d="M25.1284 19.6178H24.9773C24.9622 19.6176 24.9476 19.6229 24.9361 19.6328C24.9247 19.6426 24.9172 19.6562 24.915 19.6711C24.915 19.6711 24.915 19.7244 24.9773 19.7333H25.1017C25.1309 19.7398 25.1564 19.7572 25.173 19.7821C25.1896 19.807 25.1959 19.8373 25.1906 19.8667C25.1896 19.8974 25.1787 19.9271 25.1595 19.9511C25.1403 19.9752 25.1137 19.9923 25.0839 20C25.0356 20.0083 24.986 20.0063 24.9385 19.994C24.891 19.9818 24.8466 19.9596 24.8084 19.9289L24.8617 19.8578C24.9064 19.9029 24.9671 19.9285 25.0306 19.9289C25.0467 19.9294 25.0626 19.9244 25.0755 19.9147C25.0884 19.905 25.0977 19.8912 25.1017 19.8756C25.1017 19.8311 25.1017 19.8133 25.0484 19.8044L24.8884 19.7778C24.8586 19.7714 24.8322 19.7543 24.8141 19.7297C24.7961 19.7051 24.7877 19.6748 24.7906 19.6444C24.7985 19.6228 24.8115 19.6034 24.8285 19.588C24.8456 19.5725 24.8661 19.5614 24.8884 19.5556C24.9304 19.5426 24.9749 19.5398 25.0182 19.5475C25.0615 19.5553 25.1023 19.5733 25.1373 19.6L25.1284 19.6178Z" fill="#70706F"/>
<path d="M23.6796 19.5556V19.6089H23.5374C23.5374 19.6089 23.5374 19.6089 23.4929 19.6089C23.4485 19.6089 23.4929 19.6089 23.4929 19.6533C23.4871 19.661 23.484 19.6704 23.484 19.68C23.484 19.6896 23.4871 19.699 23.4929 19.7067C23.5374 19.7067 23.5996 19.7067 23.6529 19.7689C23.6755 19.7798 23.6945 19.7968 23.7078 19.8181C23.7211 19.8393 23.7281 19.8638 23.7281 19.8889C23.7281 19.9139 23.7211 19.9385 23.7078 19.9597C23.6945 19.9809 23.6755 19.998 23.6529 20.0089C23.6211 20.0246 23.5861 20.0327 23.5507 20.0327C23.5152 20.0327 23.4803 20.0246 23.4485 20.0089L23.3418 19.9556L23.3951 19.8844C23.4268 19.9091 23.4631 19.9273 23.5018 19.9378C23.5308 19.9467 23.5617 19.9467 23.5907 19.9378C23.6033 19.934 23.6147 19.9271 23.624 19.9178C23.6333 19.9085 23.6402 19.897 23.644 19.8844C23.644 19.8844 23.644 19.8311 23.644 19.8222L23.4929 19.7778C23.4687 19.77 23.4478 19.7544 23.4333 19.7336C23.4189 19.7127 23.4117 19.6876 23.4129 19.6622C23.4087 19.6447 23.4087 19.6264 23.4129 19.6089C23.4231 19.5755 23.4453 19.547 23.4751 19.5289C23.5442 19.5119 23.6172 19.5214 23.6796 19.5556Z" fill="#70706F"/>
<path d="M20.2754 19.9378L20.3287 19.8844C20.3513 19.9056 20.3779 19.922 20.4069 19.9327C20.4359 19.9434 20.4667 19.9481 20.4976 19.9467C20.4976 19.9467 20.5509 19.9467 20.5598 19.9022C20.5654 19.8981 20.5698 19.8927 20.5729 19.8865C20.576 19.8804 20.5776 19.8736 20.5776 19.8667C20.5776 19.8598 20.576 19.853 20.5729 19.8468C20.5698 19.8406 20.5654 19.8352 20.5598 19.8311H20.4265C20.396 19.8228 20.3694 19.804 20.3515 19.7779C20.3336 19.7519 20.3255 19.7203 20.3287 19.6889C20.3275 19.6725 20.3295 19.6561 20.3347 19.6405C20.3399 19.625 20.3481 19.6106 20.3588 19.5982C20.3695 19.5858 20.3826 19.5757 20.3973 19.5683C20.4119 19.561 20.4279 19.5567 20.4443 19.5556C20.4856 19.5438 20.5291 19.5424 20.571 19.5518C20.613 19.5611 20.6519 19.5807 20.6843 19.6089V19.6533L20.4443 19.5556C20.4301 19.5556 20.4166 19.5612 20.4066 19.5712C20.3966 19.5812 20.3909 19.5947 20.3909 19.6089C20.3909 19.6089 20.3909 19.6089 20.4443 19.6533H20.5687C20.584 19.6555 20.5986 19.6607 20.6119 19.6686C20.6251 19.6765 20.6366 19.687 20.6457 19.6994C20.6548 19.7118 20.6613 19.7259 20.6649 19.7409C20.6685 19.7559 20.669 19.7715 20.6665 19.7867C20.6656 19.8174 20.6546 19.8471 20.6354 19.8711C20.6162 19.8952 20.5897 19.9123 20.5598 19.92C20.519 19.9496 20.4705 19.9669 20.4202 19.9701C20.3698 19.9732 20.3196 19.962 20.2754 19.9378Z" fill="#70706F"/>
<path d="M16.5507 19.5556V19.6089C16.4974 19.6046 16.4439 19.6046 16.3907 19.6089C16.3373 19.6089 16.3107 19.6089 16.3284 19.68L16.3729 19.7244H16.5062C16.5361 19.7328 16.5618 19.752 16.5782 19.7783C16.5947 19.8046 16.6007 19.8361 16.5951 19.8667C16.5962 19.8966 16.5871 19.9261 16.5694 19.9503C16.5516 19.9745 16.5263 19.992 16.4973 20C16.4477 20.0124 16.3958 20.0125 16.3462 20.0001C16.2966 19.9876 16.2508 19.9632 16.2129 19.9289L16.2662 19.8667L16.4173 19.92H16.4707C16.4848 19.92 16.4984 19.9144 16.5084 19.9044C16.5184 19.8944 16.524 19.8808 16.524 19.8667C16.524 19.8525 16.5184 19.839 16.5084 19.829C16.4984 19.8189 16.4848 19.8133 16.4707 19.8133H16.3373C16.3212 19.8113 16.3056 19.8059 16.2917 19.7974C16.2778 19.7889 16.2658 19.7776 16.2566 19.7641C16.2473 19.7507 16.241 19.7355 16.2381 19.7194C16.2352 19.7034 16.2357 19.6869 16.2396 19.6711C16.2392 19.641 16.2499 19.6117 16.2695 19.5888C16.2891 19.566 16.3164 19.551 16.3462 19.5467C16.4136 19.5278 16.4852 19.5309 16.5507 19.5556Z" fill="#70706F"/>
<path d="M27.0839 19.9733V20.0178H27.0039V19.4933H27.0839V19.6978C27.1284 19.6533 27.1817 19.6178 27.235 19.6444C27.2791 19.6525 27.3196 19.6743 27.3506 19.7067C27.378 19.7424 27.3928 19.7861 27.3928 19.8311C27.3928 19.8761 27.378 19.9199 27.3506 19.9556C27.2795 20.0444 27.1995 20.0444 27.0839 19.9733ZM27.0839 19.8311C27.0827 19.8463 27.0845 19.8616 27.0892 19.8761C27.0939 19.8905 27.1014 19.904 27.1114 19.9155C27.1213 19.9271 27.1334 19.9366 27.147 19.9434C27.1606 19.9503 27.1754 19.9544 27.1906 19.9556C27.2215 19.9538 27.2509 19.9412 27.2736 19.9202C27.2963 19.8991 27.3109 19.8707 27.315 19.84C27.3153 19.8075 27.3037 19.776 27.2824 19.7515C27.2612 19.7269 27.2317 19.711 27.1995 19.7067C27.1835 19.7066 27.1677 19.7099 27.1531 19.7162C27.1385 19.7226 27.1253 19.7319 27.1144 19.7436C27.1036 19.7553 27.0953 19.7691 27.09 19.7842C27.0848 19.7992 27.0827 19.8152 27.0839 19.8311Z" fill="#70706F"/>
<path d="M12.0087 20.0178H11.9287V19.5556C12.0203 19.5464 12.1126 19.5464 12.2043 19.5556C12.2754 19.5556 12.3109 19.6267 12.3198 19.7067C12.3238 19.7427 12.3155 19.7791 12.2961 19.8098C12.2767 19.8405 12.2475 19.8637 12.2132 19.8756H12.1065H12.0087V20.0178ZM12.0087 19.8044H12.1598C12.1818 19.8001 12.2014 19.7876 12.2146 19.7695C12.2277 19.7514 12.2336 19.7289 12.2309 19.7067C12.2309 19.6533 12.2309 19.6178 12.1598 19.6178H12.0087V19.8044Z" fill="#6E6E6D"/>
<path d="M13.5643 19.8844L13.6177 19.9378C13.5666 19.9918 13.4964 20.0237 13.4221 20.0267C13.3579 20.0248 13.2958 20.0031 13.2443 19.9644C13.2188 19.9387 13.1986 19.9082 13.1849 19.8746C13.1711 19.8411 13.1642 19.8051 13.1643 19.7689C13.1604 19.7296 13.1656 19.6899 13.1795 19.6529C13.1934 19.6159 13.2156 19.5826 13.2443 19.5556C13.2928 19.5107 13.3561 19.4853 13.4221 19.4844C13.4595 19.4823 13.4968 19.4893 13.5309 19.5048C13.5649 19.5203 13.5947 19.5438 13.6177 19.5733L13.5732 19.6267C13.4577 19.5467 13.3599 19.5467 13.2977 19.6267C13.2683 19.658 13.252 19.6993 13.252 19.7422C13.252 19.7851 13.2683 19.8265 13.2977 19.8578C13.3332 19.9644 13.4577 19.9556 13.5643 19.8844Z" fill="#70706F"/>
<path d="M19.5556 19.8933L19.6801 19.5911C19.6801 19.52 19.6801 19.52 19.7956 19.5289C19.7423 19.6711 19.6801 19.8044 19.6267 19.9467C19.6177 19.9532 19.6068 19.9567 19.5956 19.9567C19.5845 19.9567 19.5736 19.9532 19.5645 19.9467C19.5645 19.9467 19.5112 19.9467 19.5023 19.9467L19.2979 19.5556C19.2979 19.5556 19.3867 19.5556 19.4134 19.6089L19.5556 19.8933Z" fill="#70706F"/>
<path d="M27.8222 20.0089C27.7599 20.0089 27.7155 20.0089 27.6888 19.9644C27.6734 19.9287 27.6524 19.8957 27.6266 19.8667C27.5466 19.8667 27.5644 19.9556 27.5644 20.0178H27.4844V19.4933H27.5555V19.7867L27.6355 19.6889C27.653 19.6641 27.6779 19.6455 27.7067 19.6359C27.7355 19.6264 27.7666 19.6262 27.7955 19.6356L27.6622 19.7867L27.8222 20.0089Z" fill="#70706F"/>
<path d="M18.0358 19.5556H17.9114V19.9733H17.7781V19.5556H17.6892C17.627 19.5556 17.627 19.5556 17.627 19.4844L18.0358 19.5556Z" fill="#727271"/>
<path d="M15.2178 19.5556C15.2374 19.5547 15.2567 19.5603 15.2728 19.5715C15.2889 19.5828 15.3008 19.599 15.3067 19.6178C15.3359 19.6759 15.3685 19.7323 15.4044 19.7867L15.5022 19.6178C15.506 19.6055 15.5125 19.5941 15.5211 19.5846C15.5297 19.575 15.5403 19.5674 15.5521 19.5624C15.564 19.5573 15.5767 19.5548 15.5896 19.5552C15.6025 19.5556 15.6151 19.5587 15.6267 19.5644V19.6089L15.5467 19.7333C15.486 19.8117 15.4575 19.9102 15.4667 20.0089V20.0533H15.3778V19.9022C15.3818 19.8787 15.3818 19.8546 15.3778 19.8311L15.2178 19.5556Z" fill="#70706F"/>
<path d="M21.093 19.5556H20.9685V19.9733H20.8885V19.5556H20.7997C20.7285 19.5556 20.7285 19.5556 20.7374 19.4844L21.093 19.5556Z" fill="#727271"/>
<path d="M12.3643 19.5556H12.7465V19.6267H12.6043V20.0444H12.5154V19.6267H12.3643V19.5556Z" fill="#727271"/>
<path d="M26.9245 19.5556V19.6267H26.7734V20.0444H26.6667V19.6267H26.5156V19.5556H26.9245Z" fill="#6E6E6D"/>
<path d="M18.204 19.52H18.124V20.0178H18.204V19.52Z" fill="#727271"/>
<path d="M21.2704 19.5289H21.1904V20.0178H21.2704V19.5289Z" fill="#70706F"/>
<path d="M18.622 19.52H18.542V20.0089H18.622V19.52Z" fill="#6E6E6D"/>
<path d="M26.1689 20.0978C26.18 20.0805 26.1859 20.0605 26.1859 20.04C26.1859 20.0195 26.18 19.9994 26.1689 19.9822C26.1689 19.9822 26.1689 19.9378 26.1689 19.9289C26.178 19.9224 26.1889 19.9189 26.2001 19.9189C26.2112 19.9189 26.2221 19.9224 26.2312 19.9289C26.2361 19.9463 26.2361 19.9648 26.2312 19.9822L26.1778 20.0711L26.1689 20.0978Z" fill="#727271"/>
<path d="M12.88 19.9644C12.8802 19.9772 12.8758 19.9895 12.8676 19.9993C12.8595 20.0091 12.8481 20.0157 12.8356 20.0178C12.8214 20.0178 12.8078 20.0122 12.7978 20.0022C12.7878 19.9922 12.7822 19.9786 12.7822 19.9644V19.92L12.88 19.9644Z" fill="#727271"/>
<path d="M28.2309 12.5067L28.4087 12.7644H28.2843L28.1776 12.6044C28.1636 12.5829 28.1433 12.5662 28.1194 12.5566C28.0955 12.5471 28.0693 12.5451 28.0443 12.5511V12.7911H27.9287V12.2311H28.2576C28.293 12.2311 28.3269 12.2452 28.3519 12.2702C28.3769 12.2952 28.3909 12.3291 28.3909 12.3644C28.3949 12.4005 28.3866 12.4369 28.3672 12.4676C28.3478 12.4983 28.3186 12.5215 28.2843 12.5333L28.2309 12.5067ZM28.0087 12.2933V12.4444H28.1865C28.2014 12.4423 28.215 12.4348 28.2248 12.4234C28.2347 12.4119 28.24 12.3973 28.2398 12.3822C28.2403 12.3661 28.2353 12.3502 28.2256 12.3373C28.2159 12.3244 28.2021 12.3151 28.1865 12.3111L28.0087 12.2933Z" fill="#891817"/>
</g>
<defs>
<clipPath id="clip0_2707_350933">
<rect width="32" height="32" fill="white"/>
</clipPath>
</defs>
</svg>
