<svg width="32" height="32" viewBox="0 0 32 32" fill="none" xmlns="http://www.w3.org/2000/svg">
<g clip-path="url(#clip0_2707_350623)">
<path d="M15.9998 31.9822C24.8265 31.9822 31.982 24.8267 31.982 16C31.982 7.17326 24.8265 0.0177765 15.9998 0.0177765C7.17306 0.0177765 0.0175781 7.17326 0.0175781 16C0.0175781 24.8267 7.17306 31.9822 15.9998 31.9822Z" fill="white"/>
<path d="M21.0838 25.8222C19.88 26.6093 18.5425 27.1697 17.1371 27.4756C14.04 28.2594 10.7589 27.7966 7.99936 26.1867C6.58918 25.3911 5.39057 24.2687 4.50427 22.9137C3.61796 21.5587 3.06986 20.0108 2.90603 18.4C2.68571 16.764 2.87311 15.0989 3.45154 13.5528C4.02998 12.0067 4.98153 10.6274 6.22158 9.53778C6.91819 8.93522 7.64506 8.36856 8.39936 7.84001C8.46668 7.78457 8.54831 7.74931 8.63482 7.7383C8.72133 7.72729 8.80919 7.74098 8.88825 7.77778C12.2068 9.31852 15.5253 10.8474 18.8438 12.3645L18.8971 12.4445C18.4082 12.5067 17.9282 12.56 17.466 12.6311C16.3938 12.7844 15.3544 13.1149 14.3905 13.6089C13.2638 14.1413 12.343 15.0289 11.7697 16.1353C11.1964 17.2418 11.0023 18.5058 11.2171 19.7333C11.3124 21.0541 11.7539 22.3264 12.4971 23.4222C13.0116 24.1332 13.6671 24.7305 14.4225 25.1771C15.178 25.6236 16.0173 25.9098 16.8882 26.0178C18.2357 26.2618 19.6207 26.2011 20.9416 25.84L21.0838 25.8222Z" fill="#0101C0"/>
<path d="M22.5594 23.1111C23.2705 22.6133 23.9728 22.2222 24.6039 21.6889C25.8363 20.7236 26.7919 19.45 27.3741 17.9968C27.9563 16.5437 28.1444 14.9625 27.9194 13.4133C27.6907 11.6617 27.0243 9.99588 25.9819 8.56972C24.9395 7.14356 23.5545 6.003 21.955 5.25333C20.2229 4.53057 18.3375 4.2525 16.4705 4.44444C16.4705 4.44444 16.4172 4.44444 16.3105 4.56888H16.7461C18.3174 4.57661 19.8665 4.94058 21.2768 5.63342C22.6871 6.32626 23.9219 7.32992 24.8883 8.56888C25.8065 9.63511 26.4272 10.9246 26.6878 12.3074C26.9485 13.6901 26.8398 15.1171 26.3728 16.4444C25.8246 18.1931 24.8032 19.756 23.4216 20.96C22.8439 21.4844 22.195 21.9378 21.5816 22.4178C21.4773 22.5127 21.3461 22.5731 21.206 22.5906C21.066 22.6081 20.924 22.5819 20.7994 22.5155C20.4172 22.3467 20.0172 22.2222 19.5905 22.0711C20.1061 21.7955 20.5772 21.5644 21.0305 21.2889C22.6851 20.3401 24.0261 18.928 24.8883 17.2267C25.605 15.7376 25.8512 14.0655 25.5939 12.4331C25.3367 10.8007 24.5882 9.28536 23.4483 8.08888C22.5244 7.08823 21.4102 6.28194 20.1708 5.71721C18.9314 5.15248 17.5919 4.84066 16.2305 4.79999C15.7594 4.79999 15.2883 4.79999 14.7461 4.79999C15.4302 4.52297 16.1526 4.35211 16.8883 4.29333C18.571 4.03115 20.2906 4.1373 21.9283 4.60444C24.3102 5.32472 26.3363 6.91015 27.6083 9.04888C28.8273 10.9577 29.366 13.2223 29.1372 15.4755C28.9511 17.3589 28.2567 19.1562 27.1283 20.6755C26.3812 21.7168 25.4576 22.6193 24.3994 23.3422C24.2906 23.4386 24.1554 23.5003 24.0113 23.5193C23.8672 23.5383 23.7206 23.5138 23.5905 23.4489C23.2534 23.3173 22.9091 23.2045 22.5594 23.1111ZM15.9994 4.58666V4.50666H15.555V4.58666H15.9994Z" fill="#0101C0"/>
<path d="M13.5557 5.33334C15.4233 4.96154 17.3599 5.16824 19.1069 5.92583C20.854 6.68343 22.3284 7.95588 23.3334 9.57334C23.9799 10.613 24.3496 11.8009 24.4071 13.0239C24.4647 14.2468 24.2083 15.4642 23.6623 16.56C23.1707 17.6688 22.462 18.6679 21.5781 19.4984C20.6942 20.3288 19.6529 20.9739 18.5157 21.3956C18.3952 21.4484 18.265 21.4757 18.1334 21.4757C18.0019 21.4757 17.8717 21.4484 17.7512 21.3956C17.3779 21.2444 16.9957 21.12 16.6312 20.9956C17.4579 20.6133 18.2934 20.2667 19.0934 19.8489C19.5887 19.5929 20.0615 19.2956 20.5068 18.96C21.8565 17.9327 22.7828 16.4463 23.1105 14.782C23.4381 13.1177 23.1442 11.3911 22.2846 9.92889C21.5173 8.52595 20.3836 7.35753 19.0045 6.54821C17.6254 5.73889 16.0524 5.31901 14.4534 5.33334C14.1512 5.33334 13.849 5.33334 13.5557 5.33334Z" fill="#0101C0"/>
<path d="M13.0305 5.88444C14.2822 5.76746 15.5448 5.88196 16.755 6.22222C17.7793 6.48409 18.72 7.00265 19.4883 7.72895C20.2566 8.45525 20.8271 9.36534 21.1461 10.3733C21.6551 11.7654 21.8079 13.2627 21.5905 14.7289C21.4842 15.4842 21.2291 16.2109 20.84 16.867C20.4509 17.5231 19.9356 18.0955 19.3239 18.5511C18.0787 19.5017 16.6089 20.1141 15.0572 20.3289C14.9082 20.3644 14.7529 20.3644 14.6039 20.3289L12.7461 19.5556C13.5016 19.44 14.2039 19.36 14.8883 19.2178C15.8337 19.0287 16.7371 18.6704 17.555 18.16C18.686 17.5197 19.5789 16.5299 20.0998 15.3391C20.6206 14.1483 20.7414 12.8208 20.4439 11.5556C20.2595 10.6644 19.9323 9.80894 19.475 9.02222C19.0036 8.19347 18.3419 7.48876 17.5443 6.96634C16.7468 6.44392 15.8364 6.11878 14.8883 6.01778C14.2661 5.94667 13.6705 5.93778 13.0305 5.88444Z" fill="#0101C0"/>
</g>
<defs>
<clipPath id="clip0_2707_350623">
<rect width="32" height="32" fill="white"/>
</clipPath>
</defs>
</svg>
