<svg width="32" height="32" viewBox="0 0 32 32" fill="none" xmlns="http://www.w3.org/2000/svg">
<g clip-path="url(#clip0_2707_258948)">
<path d="M15.993 31.9979C24.8214 31.9979 31.9782 24.8411 31.9782 16.0127C31.9782 7.18434 24.8214 0.0275269 15.993 0.0275269C7.16463 0.0275269 0.0078125 7.18434 0.0078125 16.0127C0.0078125 24.8411 7.16463 31.9979 15.993 31.9979Z" fill="#F4F4F4"/>
<path d="M22.2971 15.2645V13.5303C13.2103 19.6017 10.8558 17.5804 10.8558 17.5804C9.57505 16.5454 11.6812 15.2645 11.6812 15.2645C20.9767 11.5062 24.3626 12.001 24.3626 12.001C27.307 12.3502 22.2971 15.2645 22.2971 15.2645ZM25.9941 11.5679C22.7519 10.3285 12.3838 14.3154 12.3838 14.3154C15.7294 10.8032 22.0916 9.23392 22.0916 9.23392L22.1183 7.95288C12.0673 10.4861 9.64408 15.554 9.64408 15.554L3.0625 18.9688V19.0796L9.45122 16.2707C8.98404 19.5205 10.3044 20.2916 10.3044 20.2916L10.4705 20.5106L14.8211 20.3192C20.2188 18.2533 22.3664 16.7113 22.3664 16.7113C28.3696 12.7167 25.9941 11.5679 25.9941 11.5679Z" fill="#0B7A5C"/>
<path d="M22.2256 20.2916H8.59375V22.9854H22.2256V20.2916Z" fill="#1B396A"/>
</g>
<defs>
<clipPath id="clip0_2707_258948">
<rect width="32" height="32" fill="white"/>
</clipPath>
</defs>
</svg>
