<svg width="32" height="32" viewBox="0 0 32 32" fill="none" xmlns="http://www.w3.org/2000/svg">
<g clip-path="url(#clip0_2810_57009)">
<mask id="mask0_2810_57009" style="mask-type:luminance" maskUnits="userSpaceOnUse" x="0" y="0" width="32" height="32">
<path d="M31.9909 0.0177774H0.0175781V31.9911H31.9909V0.0177774Z" fill="white"/>
</mask>
<g mask="url(#mask0_2810_57009)">
<path d="M15.9998 31.9822C24.8265 31.9822 31.982 24.8267 31.982 16C31.982 7.17326 24.8265 0.0177774 15.9998 0.0177774C7.17306 0.0177774 0.0175781 7.17326 0.0175781 16C0.0175781 24.8267 7.17306 31.9822 15.9998 31.9822Z" fill="white"/>
<path d="M27.3416 20.0356H24.1149C23.3061 19.2444 22.5149 18.4267 21.7061 17.6089H26.4438C26.9772 17.0756 27.5016 16.5511 28.0261 16.0178C28.0261 15.9644 27.9905 15.9467 27.9638 15.92C27.7061 15.6622 27.4483 15.4133 27.1816 15.1644C26.9683 14.9511 26.7549 14.7378 26.5327 14.5244C26.5061 14.4978 26.4883 14.48 26.4616 14.4444H29.7327V17.6C29.7327 17.6 29.6883 17.6444 29.6616 17.6711C29.4749 17.8578 29.2972 18.0533 29.1016 18.24C28.6838 18.6667 28.2572 19.0844 27.8394 19.5022C27.6883 19.6533 27.5372 19.8133 27.3861 19.9733C27.3683 19.9911 27.3505 20.0178 27.3416 20.0267" fill="url(#paint0_linear_2810_57009)"/>
<path d="M16.2757 18.2844C16.2757 18.0889 16.2757 17.8933 16.2135 17.7067C16.169 17.5822 16.0979 17.4756 15.9823 17.4133C15.9112 17.3689 15.8312 17.3689 15.7512 17.4044C15.6179 17.4578 15.5468 17.5733 15.5023 17.6978C15.4135 17.92 15.4135 18.1511 15.4046 18.3822C15.4046 18.5244 15.4312 18.6667 15.4579 18.8C15.4757 18.9067 15.5112 19.0044 15.5735 19.0844C15.6979 19.2533 15.8757 19.28 16.0268 19.1556C16.1423 19.0667 16.2046 18.9333 16.2401 18.8C16.2846 18.6311 16.2846 18.4533 16.2846 18.2844M16.2846 17.3867C16.2935 16.8444 16.2846 16.32 16.2579 15.7867H16.9779C16.9779 15.7867 16.9779 15.8311 16.9779 15.8489C16.9779 15.9911 16.9779 16.1244 16.9779 16.2667C16.9423 17.1111 16.9601 17.9644 16.969 18.8089C16.969 18.9956 16.9779 19.1822 16.9868 19.3689C16.9868 19.3956 16.9868 19.4222 16.9957 19.4578H16.3112C16.2935 19.3422 16.3468 19.2178 16.3201 19.1022C16.2846 19.1644 16.249 19.2178 16.2046 19.2711C16.089 19.4311 15.929 19.5111 15.7335 19.5289C15.609 19.5289 15.4846 19.5378 15.369 19.5022C15.2801 19.4756 15.1912 19.44 15.1112 19.3867C14.969 19.28 14.8623 19.1467 14.8001 18.9778C14.7201 18.7733 14.6846 18.56 14.6846 18.3378C14.6846 18.16 14.6935 17.9822 14.7468 17.8133C14.8268 17.5644 14.9512 17.3422 15.1735 17.1911C15.3157 17.0933 15.4579 17.0489 15.6357 17.0489C15.8579 17.0489 16.0357 17.12 16.1868 17.28C16.2046 17.2978 16.2135 17.3156 16.2312 17.3333C16.2401 17.3511 16.2579 17.36 16.2757 17.3867" fill="#077582"/>
<path d="M3.04872 17.7511C3.18206 17.7511 3.31539 17.7511 3.43983 17.6978C3.60872 17.6178 3.71539 17.4756 3.75095 17.2978C3.77761 17.1911 3.76872 17.0667 3.77761 16.9511C3.77761 16.8444 3.75095 16.7467 3.7065 16.6489C3.67984 16.5867 3.63539 16.5244 3.57317 16.48C3.41317 16.3644 3.24428 16.3822 3.0665 16.3911C3.0665 16.8533 3.03984 17.2978 3.04872 17.7511ZM3.03984 18.0267C3.03984 18.2133 3.05761 18.3911 3.05761 18.5778C3.05761 18.6756 3.05761 18.7644 3.05761 18.8622C3.05761 19.0311 3.07539 19.1911 3.07539 19.36C3.07539 19.3956 3.07539 19.4222 3.07539 19.4667H2.28428C2.28428 19.3867 2.28428 19.3156 2.28428 19.2444C2.28428 19.2 2.29317 19.1556 2.29317 19.1111C2.31984 18.4 2.31095 17.6978 2.31095 16.9867C2.31095 16.7822 2.30206 16.5689 2.29317 16.3644C2.29317 16.2844 2.28428 16.2044 2.27539 16.1156H2.35539C2.60428 16.1156 2.84428 16.1156 3.09317 16.1156C3.23539 16.1156 3.36872 16.0978 3.51095 16.1067C3.67984 16.1067 3.83984 16.1244 3.99984 16.1778C4.2665 16.2667 4.43539 16.4356 4.52428 16.7022C4.56872 16.8444 4.56872 16.9867 4.55095 17.1378C4.54206 17.2356 4.51539 17.3333 4.47984 17.4222C4.39983 17.6267 4.25761 17.7689 4.06206 17.8667C3.91095 17.9467 3.74206 17.9911 3.57317 18.0089C3.40428 18.0267 3.23539 18.0267 3.04872 18.0356" fill="#077582"/>
<path d="M12.0529 17.1111C12.1774 17.1111 12.284 17.1289 12.3996 17.1289C12.5152 17.1289 12.6307 17.12 12.7552 17.1111C12.7552 17.2267 12.7374 17.3422 12.7285 17.4667C12.764 17.4311 12.7818 17.4133 12.7996 17.3867C12.924 17.2267 13.0752 17.1111 13.2796 17.0667C13.3685 17.0489 13.4663 17.0489 13.564 17.0489C13.7152 17.0489 13.8574 17.0933 13.9818 17.1911C14.0796 17.2711 14.1507 17.3778 14.1863 17.5022C14.2752 17.8044 14.2485 18.1067 14.2396 18.4089C14.2307 18.6489 14.2218 18.88 14.2396 19.12C14.2396 19.2267 14.2396 19.3333 14.2396 19.4489H13.5196C13.5196 19.36 13.5196 19.28 13.5374 19.1911C13.5374 19.1733 13.5374 19.1556 13.5374 19.1378C13.5552 18.7378 13.564 18.3467 13.5552 17.9467C13.5552 17.8311 13.5196 17.7244 13.4663 17.6267C13.404 17.5289 13.324 17.4844 13.2085 17.4667C12.9596 17.44 12.8529 17.5911 12.7818 17.7778C12.7463 17.8667 12.7374 17.9644 12.7374 18.0533C12.7374 18.4178 12.7374 18.7911 12.7374 19.1556C12.7374 19.2533 12.7552 19.3422 12.764 19.44H12.0352C12.0352 19.1822 12.0529 18.9244 12.0618 18.6667C12.0618 18.4089 12.0618 18.1511 12.0618 17.8933C12.0618 17.6356 12.044 17.3689 12.0352 17.1022" fill="#077582"/>
<path d="M18.1334 18.3556C18.1334 18.5867 18.1334 18.8089 18.2312 19.0311C18.2756 19.1289 18.3289 19.2178 18.4178 19.28C18.5156 19.3422 18.6312 19.3511 18.7467 19.2978C18.9067 19.2178 18.9689 19.0667 19.0045 18.9067C19.0401 18.7644 19.0578 18.6133 19.0667 18.4711C19.0845 18.2311 19.0667 18 19.0401 17.76C19.0223 17.6444 18.9867 17.5378 18.9245 17.44C18.8089 17.2711 18.5245 17.2 18.3645 17.3867C18.2667 17.4933 18.2045 17.6178 18.1778 17.7511C18.1512 17.9111 18.1156 18.0622 18.1245 18.2222C18.1245 18.2667 18.1245 18.32 18.1245 18.3644M18.6312 17.0578C18.6312 17.0578 18.7023 17.0578 18.7289 17.0578C19.0045 17.0756 19.2623 17.1556 19.4578 17.36C19.6356 17.5289 19.7423 17.7333 19.7601 17.9822C19.7689 18.08 19.7956 18.1778 19.7867 18.2756C19.7867 18.5689 19.7156 18.8533 19.5378 19.0933C19.3956 19.28 19.2178 19.4133 18.9956 19.4756C18.7823 19.5378 18.5689 19.5467 18.3556 19.52C18.1601 19.4933 17.9823 19.4311 17.8223 19.3156C17.6978 19.2267 17.6001 19.12 17.5289 18.9867C17.4312 18.8089 17.3956 18.6222 17.3867 18.4267C17.3867 18.2756 17.3867 18.1244 17.4312 17.9822C17.5023 17.7156 17.6178 17.4756 17.8401 17.2978C17.9645 17.2 18.1067 17.1378 18.2578 17.0933C18.3823 17.0578 18.5067 17.0489 18.6312 17.0578Z" fill="#077582"/>
<path d="M6.06237 18.0711C6.08904 17.8667 6.0357 17.6267 5.96459 17.4489C5.96459 17.4311 5.94681 17.4133 5.93793 17.3956C5.83126 17.2444 5.66237 17.2178 5.52904 17.3422C5.44904 17.4133 5.40459 17.52 5.37793 17.6267C5.35126 17.7511 5.34237 17.8844 5.32459 18.0089C5.32459 18.0267 5.32459 18.0533 5.32459 18.08H6.05348L6.06237 18.0711ZM6.72904 18.3022H5.33348C5.33348 18.4089 5.33348 18.5156 5.35126 18.6133C5.36904 18.7022 5.3957 18.7822 5.43126 18.8622C5.51126 19.0311 5.6357 19.1378 5.81348 19.2089C5.82237 19.2089 5.83126 19.2089 5.84015 19.2089C6.06237 19.2356 6.26681 19.2089 6.45348 19.0844C6.48904 19.0578 6.53348 19.0311 6.57793 19.0044C6.5957 19.0133 6.61348 19.0222 6.63126 19.04C6.63126 19.0489 6.63126 19.0578 6.63126 19.0667C6.60459 19.1289 6.57793 19.1822 6.56015 19.2444C6.55126 19.2889 6.52459 19.3244 6.48904 19.3511C6.32904 19.4489 6.16015 19.5111 5.97348 19.52C5.80459 19.52 5.6357 19.5289 5.4757 19.5022C5.20904 19.4489 4.97793 19.3244 4.81793 19.0933C4.66681 18.8889 4.60459 18.6489 4.5957 18.4C4.5957 18.1956 4.5957 17.9911 4.65793 17.7956C4.69348 17.6711 4.7557 17.5556 4.8357 17.4489C4.97793 17.2622 5.1557 17.1467 5.38681 17.0933C5.65348 17.0222 5.94681 17.04 6.18681 17.1289C6.40904 17.2178 6.55126 17.3778 6.64015 17.5911C6.69348 17.7333 6.72904 17.8756 6.72904 18.0267C6.72904 18.0978 6.72904 18.1689 6.73793 18.24C6.73793 18.2578 6.73793 18.2756 6.72904 18.3022Z" fill="#077582"/>
<path d="M8.47946 19.2178C8.47946 19.2889 8.47057 19.3511 8.46168 19.4222C8.3728 19.4489 8.29279 19.4844 8.20391 19.5022C8.08835 19.52 7.9728 19.5289 7.85724 19.5289C7.63502 19.5289 7.4128 19.3778 7.35057 19.1289C7.32391 19.0311 7.30613 18.9333 7.30613 18.8267C7.30613 18.6044 7.30613 18.3733 7.30613 18.1511C7.30613 17.9111 7.31502 17.6622 7.32391 17.4222C7.32391 17.4133 7.32391 17.4044 7.32391 17.3867H7.00391V17.1378C7.10168 17.1289 7.20835 17.1378 7.32391 17.1378V16.5511C7.32391 16.5511 7.41279 16.4978 7.46613 16.4889C7.58168 16.4622 7.67057 16.3911 7.77724 16.3467C7.83057 16.3289 7.87502 16.3022 7.91946 16.2756C7.95502 16.2578 7.99946 16.24 8.03502 16.2933C8.00835 16.5689 7.99057 16.8533 7.99946 17.1467H8.40835V17.3867H8.00835C8.00835 17.3867 7.99057 17.4044 7.99057 17.4133C7.99057 17.4311 7.99057 17.4489 7.99057 17.4667C7.99057 17.8667 7.9728 18.2756 7.9728 18.6756C7.9728 18.8 7.98168 18.9156 7.99946 19.04C7.99946 19.0844 8.02613 19.12 8.04391 19.1644C8.07057 19.2356 8.13279 19.2622 8.20391 19.2711C8.28391 19.2711 8.36391 19.2711 8.43502 19.2444C8.44391 19.2444 8.46168 19.2356 8.47946 19.2267" fill="#077582"/>
<path d="M9.48395 17.1111V17.6889C9.48395 17.6889 9.51062 17.6267 9.52839 17.6089C9.59062 17.4667 9.67062 17.3422 9.78617 17.2356C9.92839 17.1022 10.0973 17.0489 10.2928 17.0578C10.2928 17.0667 10.3017 17.0756 10.3017 17.0756C10.2662 17.28 10.2839 17.4844 10.2839 17.6889C10.2839 17.7244 10.2839 17.76 10.2395 17.7689C10.2128 17.7689 10.1862 17.7511 10.1595 17.7422C10.0617 17.6889 9.95506 17.6978 9.85728 17.7244C9.70617 17.76 9.61728 17.8667 9.55506 18C9.52839 18.0622 9.51062 18.1333 9.5195 18.2044C9.5195 18.3822 9.5195 18.5511 9.5195 18.7289C9.5195 18.8978 9.52839 19.0756 9.53728 19.2444C9.53728 19.3067 9.55506 19.3778 9.56395 19.4489H8.82617C8.87062 18.6756 8.87951 17.8933 8.82617 17.1022C8.94173 17.1022 9.04839 17.12 9.16395 17.12C9.27951 17.12 9.37728 17.1111 9.50173 17.1022" fill="#077582"/>
<path d="M11.475 19.4578H10.7461C10.7905 18.6756 10.7816 17.9022 10.7461 17.12C10.8705 17.12 10.9861 17.1378 11.1105 17.1378C11.2261 17.1378 11.3416 17.1289 11.4661 17.12C11.4661 17.1733 11.4661 17.2267 11.4661 17.2711C11.4661 17.4756 11.4483 17.68 11.4483 17.8933C11.4483 18.0622 11.4305 18.2222 11.4394 18.3911C11.4394 18.6667 11.4483 18.9333 11.4572 19.2089C11.4572 19.2889 11.475 19.3778 11.4839 19.4667" fill="#077582"/>
<path d="M11.1108 16.5689C10.8708 16.5778 10.7197 16.4 10.7197 16.1778C10.7197 15.9644 10.9064 15.7956 11.1019 15.7956C11.3331 15.7956 11.4931 15.9733 11.4931 16.1867C11.4931 16.3911 11.3242 16.5867 11.1108 16.5689Z" fill="#077582"/>
<path fill-rule="evenodd" clip-rule="evenodd" d="M24.1862 17.5556C24.1862 17.5556 24.1328 17.5556 24.1062 17.5556C23.3328 17.5556 22.5684 17.5556 21.795 17.5556H21.6973V14.4089C21.6973 14.4089 21.7773 14.32 21.8217 14.2756C22.0884 14.0089 22.355 13.7422 22.6217 13.4756C23.1106 12.9867 23.5906 12.5067 24.0795 12.0178C24.0884 12.0089 24.0973 11.9911 24.1062 11.9822H24.3106C24.6573 11.9822 25.0128 11.9822 25.3595 11.9822C25.5817 11.9822 25.795 11.9822 26.0173 11.9822C26.4173 11.9822 26.8173 11.9733 27.2173 11.9644C27.2528 11.9644 27.2884 11.9644 27.3239 11.9644C28.115 12.7733 28.915 13.5733 29.715 14.3911C29.6973 14.3911 29.6795 14.3911 29.6706 14.3911C29.075 14.3911 28.4884 14.4 27.8928 14.4089C26.9506 14.4089 26.0084 14.4089 25.075 14.4089H24.9595C24.7639 14.6044 24.5773 14.7911 24.3906 14.9778C24.3639 15.0044 24.3373 15.0222 24.3195 15.0489C24.0617 15.3156 23.795 15.5733 23.5373 15.84C23.4839 15.8933 23.4395 15.9378 23.3773 16C23.475 16.0889 23.5639 16.1778 23.6528 16.2667C23.8395 16.4533 24.0262 16.64 24.2217 16.8178C24.4262 17.0133 24.6306 17.2089 24.8262 17.4044C24.8706 17.4489 24.915 17.4933 24.9595 17.5467C24.8795 17.5644 24.3728 17.5733 24.195 17.5556H24.1862Z" fill="url(#paint1_linear_2810_57009)"/>
</g>
</g>
<defs>
<linearGradient id="paint0_linear_2810_57009" x1="28.9838" y1="14.2178" x2="22.9838" y2="14.2178" gradientUnits="userSpaceOnUse">
<stop stop-color="#F08821"/>
<stop offset="1" stop-color="#FAC017"/>
</linearGradient>
<linearGradient id="paint1_linear_2810_57009" x1="21.4119" y1="20.2498" x2="27.7586" y2="20.2498" gradientUnits="userSpaceOnUse">
<stop stop-color="#044C61"/>
<stop offset="1" stop-color="#72AF43"/>
</linearGradient>
<clipPath id="clip0_2810_57009">
<rect width="32" height="32" fill="white"/>
</clipPath>
</defs>
</svg>
