<svg width="32" height="32" viewBox="0 0 32 32" fill="none" xmlns="http://www.w3.org/2000/svg">
<g clip-path="url(#clip0_2737_121065)">
<mask id="mask0_2737_121065" style="mask-type:luminance" maskUnits="userSpaceOnUse" x="0" y="0" width="32" height="32">
<path d="M31.9909 0.0177765H0.0175781V31.9911H31.9909V0.0177765Z" fill="white"/>
</mask>
<g mask="url(#mask0_2737_121065)">
<path d="M15.9998 31.9822C24.8265 31.9822 31.982 24.8267 31.982 16C31.982 7.17326 24.8265 0.0177765 15.9998 0.0177765C7.17306 0.0177765 0.0175781 7.17326 0.0175781 16C0.0175781 24.8267 7.17306 31.9822 15.9998 31.9822Z" fill="white"/>
<path d="M3.98211 20.2756C4.43544 20.2578 4.92433 20.3378 5.35099 20.1689C5.81322 19.9822 6.03544 19.5289 6.0621 19.0489C6.11544 18.1244 5.72433 17.5644 4.77322 17.52C4.57766 17.5111 4.2221 17.5022 4.03544 17.52C4.00877 17.52 3.99099 17.52 3.97322 17.5467V20.2844L3.98211 20.2756ZM5.22655 21.1111C5.17322 21.1111 5.09322 21.0933 5.04877 21.1289H3.19099C3.08433 21.0756 2.98655 21.0311 2.93322 20.9244C2.90655 20.88 2.90655 20.8356 2.87988 20.8V16.9778C2.94211 16.8178 3.06655 16.6933 3.23544 16.6667C4.54211 16.7111 6.18655 16.3556 6.95099 17.7156C7.73322 19.1111 6.8621 20.9956 5.21766 21.12" fill="#017DC5"/>
<path d="M15.6175 19.2267L14.9241 17.4311L14.2841 19.2267H15.6175ZM17.5375 21.1289H16.3464L15.9464 20.1422H15.9197L13.973 20.1333L13.5997 21.1289H12.4619C12.4619 21.0756 12.4886 21.0222 12.5064 20.9689C13.0397 19.5822 13.6352 18.2133 14.1864 16.8267C14.2664 16.7289 14.373 16.6578 14.4975 16.6489C14.7997 16.6222 15.1375 16.6667 15.4397 16.6489C15.5552 16.6756 15.6441 16.7289 15.7241 16.8267L17.5197 21.0311L17.5375 21.1289Z" fill="#027DC5"/>
<path d="M10.3998 19.2267L9.68868 17.4311L9.04868 19.2267H10.3909H10.3998ZM12.3287 21.1289H11.1198L10.7109 20.1333H8.73757L8.37313 21.1289H7.23535C7.23535 21.0756 7.26202 21.0222 7.2798 20.9689C7.83091 19.6 8.39091 18.2311 8.94202 16.8622C9.00424 16.7467 9.11091 16.6844 9.23535 16.6489C9.53757 16.6667 9.87535 16.6222 10.1776 16.6489C10.3109 16.6578 10.4087 16.7289 10.4887 16.8267L12.3198 21.12L12.3287 21.1289Z" fill="#027DC5"/>
<path d="M18.1512 21.1289C17.8667 21.0133 17.8134 20.7822 17.8401 20.4889C17.8667 20.2133 18.1779 19.9911 18.3556 19.7956C18.8179 19.2978 19.289 18.8 19.7512 18.3111C20.0001 18.0533 20.2667 17.8044 20.4979 17.5289H17.9823V16.6578H21.5912C21.5912 16.6578 21.769 16.7467 21.8045 16.7822C21.9556 16.9333 21.9645 17.2978 21.9023 17.4933C21.8667 17.6 21.7423 17.7244 21.6623 17.8133C20.969 18.5689 20.2312 19.2889 19.529 20.0356C19.4667 20.1067 19.3956 20.1956 19.3245 20.2667H21.9912L22.0179 20.2933V21.1378H18.1512V21.1289Z" fill="#027DC5"/>
<path d="M5.22661 21.1111V21.1289H5.04883C5.04883 21.1289 5.16438 21.1111 5.22661 21.1111Z" fill="#4BBFED"/>
<path d="M20.3998 10.88C20.4443 10.8711 20.5065 10.88 20.5509 10.88C23.1554 12.3556 25.7598 13.8311 28.3465 15.3422C28.5065 15.4489 28.7554 15.6889 28.4621 15.8044C28.4354 15.8133 28.2843 15.8578 28.2665 15.8489C28.2487 15.8489 28.1954 15.7422 28.1332 15.7511L22.9865 14.7289C22.3198 14.5689 21.8309 14.1689 21.4932 13.5822C21.0576 12.8089 20.6843 11.9911 20.2487 11.2089C20.1776 11.1022 20.2754 10.9156 20.3909 10.8889" fill="#4BBFED"/>
<path d="M28.7644 15.6267C29.271 16.1067 29.2177 16.9511 28.6844 17.3867C28.6044 17.4489 28.5066 17.5022 28.4177 17.5556C27.351 18.1956 26.2399 18.7644 25.1732 19.4044C25.1021 19.4311 25.0488 19.3867 24.9955 19.3511C24.7021 19.1467 24.311 18.5867 24.0888 18.2844C23.9644 18.1156 23.671 17.7422 23.5999 17.5644C23.4844 17.2889 23.6355 17.0044 23.8932 16.8889L28.3732 16.0356C28.5777 15.9822 28.8355 15.8756 28.7555 15.6178" fill="#017DC5"/>
</g>
</g>
<defs>
<clipPath id="clip0_2737_121065">
<rect width="32" height="32" fill="white"/>
</clipPath>
</defs>
</svg>
