<svg width="32" height="32" viewBox="0 0 32 32" fill="none" xmlns="http://www.w3.org/2000/svg">
<g clip-path="url(#clip0_2707_350283)">
<path d="M15.9998 31.9823C24.8265 31.9823 31.982 24.8268 31.982 16C31.982 7.17331 24.8265 0.0178223 15.9998 0.0178223C7.17306 0.0178223 0.0175781 7.17331 0.0175781 16C0.0175781 24.8268 7.17306 31.9823 15.9998 31.9823Z" fill="white"/>
<path d="M11.9998 16.0001H11.342L11.182 14.6756C11.0398 15.1112 10.8976 15.5645 10.7464 15.9912H10.2042C10.062 15.5556 9.91978 15.1023 9.76867 14.6668L9.582 16.0001H8.88867C9.01312 15.1823 9.14645 14.3645 9.27089 13.5468H9.95534L10.4264 14.9512C10.5864 14.4712 10.7376 14.009 10.8976 13.5468H11.582C11.742 14.3734 11.8753 15.1912 11.9998 16.0001Z" fill="#042762"/>
<path d="M2.6665 16V13.5556H3.55539C3.73189 13.5472 3.90864 13.5652 4.07984 13.6089C4.25586 13.6496 4.41853 13.7347 4.55235 13.856C4.68617 13.9774 4.78667 14.131 4.84428 14.3023C4.95999 14.6149 4.95999 14.9585 4.84428 15.2711C4.77612 15.4593 4.65681 15.6247 4.49978 15.7488C4.34274 15.8728 4.15422 15.9506 3.95539 15.9734C3.79936 15.9974 3.64205 16.0122 3.48428 16.0178H2.6665V16ZM3.39539 15.3689C3.47237 15.3734 3.54953 15.3734 3.6265 15.3689H3.75984C3.8599 15.3573 3.95361 15.3139 4.0272 15.2451C4.10079 15.1763 4.15039 15.0858 4.16873 14.9867C4.19515 14.8637 4.19515 14.7364 4.16873 14.6134C4.15396 14.5134 4.10685 14.4211 4.03461 14.3504C3.96237 14.2798 3.86898 14.2348 3.76873 14.2223C3.66224 14.2135 3.55521 14.2135 3.44873 14.2223L3.39539 15.3689Z" fill="#042762"/>
<path d="M17.4399 13.5467H18.3288C18.5053 13.5374 18.6822 13.5554 18.8532 13.6C19.0338 13.6411 19.2007 13.7282 19.3378 13.8528C19.4748 13.9774 19.5773 14.1352 19.6355 14.3111C19.7514 14.6206 19.7514 14.9616 19.6355 15.2711C19.5696 15.4599 19.4508 15.6257 19.2931 15.7486C19.1355 15.8716 18.9457 15.9465 18.7466 15.9644C18.5875 15.988 18.4273 16.0029 18.2666 16.0089H17.4577C17.431 16 17.4221 13.6444 17.4399 13.5467ZM18.1599 15.3955C18.2897 15.4132 18.4213 15.4132 18.551 15.3955C18.6501 15.3772 18.7406 15.3276 18.8094 15.254C18.8782 15.1804 18.9216 15.0867 18.9332 14.9867C18.9584 14.8665 18.9584 14.7424 18.9332 14.6222C18.9227 14.525 18.8804 14.4341 18.8129 14.3634C18.7454 14.2926 18.6565 14.2462 18.5599 14.2311H18.2932H18.1599V15.3955Z" fill="#042762"/>
<path d="M14.8174 13.5555H15.3863C15.4031 13.5568 15.4193 13.5624 15.4333 13.5717C15.4473 13.581 15.4587 13.5938 15.4663 13.6089C15.6885 13.9644 15.9196 14.32 16.1418 14.6844L16.1952 14.7378V13.5555H16.8885C16.8885 13.6 16.8885 15.8222 16.8885 16.0089C16.6843 16.0225 16.4794 16.0225 16.2752 16.0089L15.5285 14.8355V16H14.8707L14.8174 13.5555Z" fill="#042762"/>
<path d="M14.4708 14.7556C14.4816 15.0151 14.4233 15.2727 14.3019 15.5023C14.2161 15.6655 14.0887 15.8033 13.9326 15.9016C13.7766 15.9999 13.5974 16.0553 13.413 16.0623C13.2358 16.0807 13.0566 16.0595 12.8886 16.0001C12.7602 15.9493 12.643 15.8738 12.5439 15.7777C12.4447 15.6816 12.3655 15.5668 12.3108 15.4401C12.1964 15.1899 12.1504 14.9138 12.1775 14.6401C12.1921 14.4665 12.2404 14.2974 12.3197 14.1423C12.4099 13.9399 12.5614 13.771 12.7528 13.6594C12.9442 13.5477 13.1658 13.499 13.3864 13.5201C13.6353 13.5216 13.8752 13.6132 14.0619 13.7778C14.2281 13.9316 14.3482 14.1286 14.4086 14.3467C14.4452 14.4801 14.466 14.6174 14.4708 14.7556ZM12.9153 14.7556C12.9104 14.8296 12.9104 14.9038 12.9153 14.9778C12.9246 15.0917 12.9679 15.2001 13.0397 15.2889C13.0705 15.3278 13.1097 15.3592 13.1543 15.3808C13.199 15.4024 13.2479 15.4136 13.2975 15.4136C13.3471 15.4136 13.396 15.4024 13.4406 15.3808C13.4853 15.3592 13.5245 15.3278 13.5553 15.2889C13.6078 15.2362 13.6526 15.1763 13.6886 15.1112C13.742 14.9012 13.742 14.6812 13.6886 14.4712C13.6644 14.3769 13.6152 14.291 13.5464 14.2223C13.4852 14.1672 13.4064 14.1357 13.3241 14.1334C13.2809 14.1327 13.2381 14.1411 13.1983 14.1579C13.1585 14.1748 13.1227 14.1997 13.093 14.2312C13.043 14.2888 13.0039 14.3551 12.9775 14.4267C12.9356 14.5406 12.9145 14.661 12.9153 14.7823V14.7556Z" fill="#042762"/>
<path d="M7.23527 13.5555H7.99971L8.8886 16.0089H8.07971L7.58194 14.3733C7.49305 14.6489 7.42194 14.9244 7.35082 15.2C7.27971 15.4755 7.19971 15.7422 7.11082 16H6.37305C6.66638 15.1911 6.95082 14.3733 7.23527 13.5555Z" fill="#042762"/>
<path d="M26.1777 13.5023H26.5154V16.0623H26.1599V16.009L25.271 14.3557C25.271 14.2757 25.1999 14.2045 25.1732 14.1245C25.1699 14.098 25.1699 14.0711 25.1732 14.0445C25.1732 14.7201 25.1732 15.3868 25.1732 16.0623H24.8354V13.5023H25.191V13.5557L26.0799 15.1112C26.1421 15.2268 26.1954 15.3512 26.2488 15.4668C26.245 15.4813 26.245 15.4966 26.2488 15.5112V15.449V14.8712V13.5023H26.1777Z" fill="#042762"/>
<path d="M27.2798 13.5111H28.2309C28.3356 13.5178 28.4396 13.5327 28.542 13.5556C28.7513 13.6076 28.9345 13.734 29.0576 13.9111C29.1895 14.0812 29.2725 14.284 29.2976 14.4978C29.3411 14.7586 29.3259 15.0258 29.2531 15.28C29.1929 15.4694 29.0859 15.6406 28.942 15.7778C28.8035 15.9022 28.6293 15.9799 28.4442 16C28.3109 16 28.1776 16 28.0442 16H27.3153L27.2798 13.5111ZM27.6353 15.7156C27.8483 15.7333 28.0624 15.7333 28.2753 15.7156C28.4057 15.7061 28.53 15.6564 28.6309 15.5733C28.747 15.4745 28.8333 15.3452 28.8798 15.2C28.9347 15.0156 28.9498 14.8217 28.9242 14.6311C28.9169 14.4798 28.871 14.333 28.7909 14.2044C28.739 14.1138 28.6656 14.0373 28.5773 13.9815C28.489 13.9257 28.3884 13.8924 28.2842 13.8844C28.0652 13.8709 27.8455 13.8709 27.6265 13.8844L27.6353 15.7156Z" fill="#042762"/>
<path d="M5.17334 17.1112H6.99556C6.9865 17.2309 6.96868 17.3497 6.94223 17.4668H5.55556V17.6179H6.8889L6.83556 17.9823H5.55556C5.55556 17.9823 5.55556 18.1156 5.68001 18.1156H6.94223C6.97618 18.231 6.99119 18.3511 6.98667 18.4712H5.53778C5.44252 18.4669 5.35232 18.4271 5.28489 18.3597C5.21747 18.2922 5.17768 18.202 5.17334 18.1068V17.1112Z" fill="#042762"/>
<path d="M10.4441 17.9823C10.4441 18.0356 10.4441 18.089 10.4441 18.1334H11.8219C11.8219 18.2579 11.8219 18.3734 11.8664 18.489H10.4352C10.3408 18.4868 10.2506 18.4489 10.183 18.3829C10.1154 18.317 10.0753 18.2278 10.0708 18.1334C10.0708 17.8045 10.0708 17.4756 10.0708 17.1467V17.1023C10.1152 17.1023 11.8486 17.1023 11.893 17.1023C11.9375 17.1023 11.893 17.3334 11.8486 17.4579H10.4441V17.609H11.7775C11.772 17.7314 11.7571 17.8532 11.733 17.9734L10.4441 17.9823Z" fill="#042762"/>
<path d="M24.1688 17.9823H22.8888C22.8888 17.9823 22.8888 18.1156 23.0132 18.1156H24.2843C24.3128 18.2351 24.3277 18.3573 24.3288 18.4801H22.871C22.7975 18.4824 22.7251 18.4613 22.6644 18.4197C22.6036 18.3782 22.5577 18.3184 22.5332 18.249C22.5241 18.217 22.5241 18.1832 22.5332 18.1512V17.1112H24.311C24.3088 17.231 24.2939 17.3502 24.2666 17.4668H22.8799V17.6179H24.2132C24.1954 17.7779 24.1866 17.8579 24.1688 17.9823Z" fill="#042762"/>
<path d="M20.071 17.7778V18.4889H19.7065V17.1112H20.0354C20.0538 17.1108 20.0718 17.1156 20.0875 17.1251C20.1032 17.1345 20.116 17.1482 20.1243 17.1645L20.7199 18.0534L20.7643 18.1156L20.8088 18.0534L21.3954 17.1645C21.4044 17.1467 21.4185 17.1321 21.436 17.1225C21.4535 17.113 21.4734 17.109 21.4932 17.1112H21.8221V18.4889H21.4577V17.7778C21.4614 17.7924 21.4614 17.8077 21.4577 17.8223L21.0577 18.4534C21.0472 18.4698 21.0327 18.4833 21.0156 18.4926C20.9985 18.5019 20.9793 18.5068 20.9599 18.5067H20.6488C20.6366 18.5137 20.6228 18.5174 20.6088 18.5174C20.5947 18.5174 20.5809 18.5137 20.5688 18.5067L20.1599 17.8756V17.8312L20.071 17.7778Z" fill="#042762"/>
<path d="M2.6665 18.4889V17.1112H4.15984C4.22628 17.1098 4.29157 17.1286 4.3471 17.1651C4.40264 17.2016 4.44582 17.2541 4.47095 17.3156C4.48009 17.3475 4.48009 17.3814 4.47095 17.4134V18.1956C4.47052 18.2591 4.44495 18.3198 4.39984 18.3645C4.3686 18.4085 4.32729 18.4443 4.27934 18.4691C4.2314 18.4938 4.17823 18.5067 4.12428 18.5067H2.6665V18.4889ZM4.1065 18.1334V17.4756H3.05762V18.1334H4.1065Z" fill="#042762"/>
<path d="M5.38665 13.5555H6.09776V16H5.38665C5.37776 16 5.33331 13.6444 5.38665 13.5555Z" fill="#042762"/>
<path d="M14.7109 17.1023H16.1776C16.2406 17.1017 16.3025 17.1179 16.3572 17.1491C16.4119 17.1804 16.4572 17.2256 16.4887 17.2801C16.5016 17.3175 16.5016 17.3582 16.4887 17.3956V18.1956C16.4877 18.2463 16.4723 18.2956 16.4443 18.3379C16.4084 18.3869 16.3616 18.4268 16.3076 18.4546C16.2536 18.4824 16.1939 18.4972 16.1332 18.4979H15.0576C14.9926 18.4973 14.9289 18.4798 14.8728 18.447C14.8167 18.4143 14.7701 18.3675 14.7376 18.3112C14.7294 18.2731 14.7294 18.2337 14.7376 18.1956V17.1023H14.7109ZM16.1509 17.4756H15.1109V18.0534C15.1109 18.1245 15.1109 18.1334 15.1998 18.1334H16.1865L16.1509 17.4756Z" fill="#042762"/>
<path d="M23.164 13.8757C22.9151 14.5957 22.6751 15.3245 22.4529 16.0534H22.0796C22.3818 15.209 22.684 14.3557 22.9685 13.5023H23.3507C23.6529 14.3912 23.9551 15.2001 24.2396 16.0534C24.1185 16.0669 23.9963 16.0669 23.8751 16.0534L23.1551 13.8757H23.164Z" fill="#042762"/>
<path d="M17.5818 18.1512V18.489H17.2085V17.1023H18.6663C18.7118 17.0987 18.7576 17.1041 18.8011 17.1182C18.8446 17.1323 18.8848 17.1549 18.9195 17.1847C18.9542 17.2144 18.9827 17.2507 19.0033 17.2915C19.0239 17.3323 19.0362 17.3767 19.0396 17.4223C19.0396 17.4223 19.0396 17.5201 19.0396 17.5645V17.8312C19.0396 17.9161 19.0059 17.9974 18.9459 18.0575C18.8859 18.1175 18.8045 18.1512 18.7196 18.1512C18.3729 18.1512 18.0263 18.1512 17.6796 18.1512H17.5818ZM17.5818 17.7779H18.5952C18.5952 17.7779 18.6574 17.7779 18.6574 17.7245V17.5112V17.4667H17.5818V17.7779Z" fill="#042762"/>
<path d="M25.3777 17.6V18.4889H25.0044V17.1022H25.3155C25.3469 17.0898 25.3819 17.0898 25.4133 17.1022L26.3733 17.8933L26.4622 17.9645V17.0756H26.8177V18.4889H26.5066C26.4746 18.4976 26.4409 18.4976 26.4088 18.4889L25.4755 17.7067C25.4486 17.6663 25.4156 17.6303 25.3777 17.6Z" fill="#042762"/>
<path d="M20.2222 16.0534V13.5023H20.5777V15.7245H21.9733V16.0534C21.9733 16.0534 20.3111 16.0712 20.2222 16.0534Z" fill="#042762"/>
<path d="M8.54225 18.0089C8.69336 17.7067 8.83559 17.4044 8.97781 17.12H9.43114V17.1733L8.7467 18.4622C8.74062 18.4802 8.72835 18.4955 8.71206 18.5052C8.69577 18.515 8.67654 18.5187 8.65781 18.5156H8.44448C8.42615 18.5159 8.4081 18.5111 8.39238 18.5016C8.37666 18.4922 8.36391 18.4785 8.35559 18.4622C8.20447 18.16 8.03559 17.8667 7.87559 17.5733L7.66225 17.1733C7.6575 17.1589 7.6575 17.1433 7.66225 17.1289H8.1067C8.23114 17.4044 8.38225 17.6978 8.54225 18.0089Z" fill="#042762"/>
<path d="M29.333 17.1112V17.4668H28.613C28.613 17.5823 28.613 17.6979 28.613 17.8045V18.489H28.2396V17.4668H27.5552V17.1112H29.333Z" fill="#042762"/>
<path d="M12.5776 18.4979V17.1112H12.9421V18.1334H14.071C14.0302 18.2631 13.9603 18.3817 13.8665 18.4801H13.7954H12.5776V18.4979Z" fill="#042762"/>
</g>
<defs>
<clipPath id="clip0_2707_350283">
<rect width="32" height="32" fill="white"/>
</clipPath>
</defs>
</svg>
