<svg width="32" height="32" viewBox="0 0 32 32" fill="none" xmlns="http://www.w3.org/2000/svg">
<g clip-path="url(#clip0_2737_121080)">
<mask id="mask0_2737_121080" style="mask-type:luminance" maskUnits="userSpaceOnUse" x="0" y="0" width="32" height="32">
<path d="M31.9909 0.0177765H0.0175781V31.9911H31.9909V0.0177765Z" fill="white"/>
</mask>
<g mask="url(#mask0_2737_121080)">
<path d="M15.9998 31.9822C24.8265 31.9822 31.982 24.8267 31.982 16C31.982 7.17326 24.8265 0.0177765 15.9998 0.0177765C7.17306 0.0177765 0.0175781 7.17326 0.0175781 16C0.0175781 24.8267 7.17306 31.9822 15.9998 31.9822Z" fill="white"/>
<path d="M11.1018 24.2844C11.013 24.3111 10.9685 24.2667 10.9863 24.1778C10.9863 24.1422 11.0041 24.1156 11.013 24.0889C11.093 23.9467 11.2085 23.8311 11.3507 23.7511C11.3774 23.7422 11.4041 23.7244 11.4307 23.7244C11.5285 23.7067 11.5818 23.76 11.5463 23.8578C11.5374 23.8933 11.4485 24.0267 11.3507 24.1156C11.2441 24.2133 11.1374 24.2756 11.1018 24.2844Z" fill="#0B6A2C"/>
<path d="M9.90165 25.1289C9.81276 25.1555 9.76831 25.1111 9.78609 25.0222C9.78609 24.9867 9.80387 24.96 9.81276 24.9333C9.89276 24.7911 10.0083 24.6755 10.1505 24.5955C10.1772 24.5867 10.2039 24.5689 10.2305 24.5689C10.3283 24.5511 10.3816 24.6044 10.3461 24.7022C10.3372 24.7378 10.2483 24.8711 10.1505 24.96C10.0439 25.0578 9.9372 25.12 9.90165 25.1289Z" fill="#A61B1A"/>
<path fill-rule="evenodd" clip-rule="evenodd" d="M15.0931 23.7511C15.0042 23.7511 14.1953 23.7511 14.0798 23.7511C13.662 23.7511 13.2442 23.7511 12.8175 23.7422C12.5331 23.7422 12.2487 23.7333 11.9464 23.7244C12.1242 23.4133 12.302 23.12 12.4798 22.8267C12.6575 22.5333 12.8353 22.2311 13.0042 21.9378C13.182 21.6355 13.3509 21.3333 13.5375 21.0222C13.4842 21.0222 13.4398 21.0044 13.4042 21.0044C13.2353 21.0044 13.0664 21.0044 12.8975 21.0044C12.7198 21.0044 12.5775 20.9333 12.462 20.8C11.9553 20.2044 11.4487 19.6 10.942 19.0044C10.3109 18.2667 9.67977 17.5289 9.04866 16.7911C9.00421 16.7378 8.95088 16.6755 8.91532 16.6133C8.82644 16.4622 8.83532 16.32 8.95088 16.1867C8.98644 16.1511 9.02199 16.1067 9.05755 16.0711C10.0709 15.1378 11.0753 14.1955 12.0887 13.2622C12.1598 13.2 12.2309 13.1378 12.302 13.0755C12.6931 12.7289 12.7553 12.08 12.4353 11.6622C12.3109 11.5022 12.1598 11.4222 11.9642 11.4311C11.0931 11.44 10.2131 11.4489 9.34199 11.4667C9.16421 11.4667 8.99532 11.4844 8.81755 11.4933C8.7731 11.4933 8.72866 11.5022 8.68421 11.5111C8.68421 11.5111 8.67532 11.5111 8.66644 11.5111C8.63088 11.5111 8.60421 11.52 8.56866 11.5289C8.26644 11.6 8.2931 11.5644 8.03532 11.84C7.60866 12.2933 7.3331 12.8267 7.1731 13.4222C7.02199 13.9733 6.97755 14.5333 7.00421 15.1022C7.05755 16.1511 7.35088 17.1289 7.77755 18.08C8.09755 18.8 8.50644 19.4755 8.95088 20.1244C9.11977 20.3644 9.28866 20.5955 9.45755 20.8267C9.46644 20.8444 9.47533 20.8533 9.4931 20.88C8.97755 21.1111 8.51532 21.4133 8.09755 21.7867C7.67977 22.16 7.35088 22.6044 7.04866 23.0844C7.03088 23.0667 7.00421 23.0578 6.99532 23.04C6.6131 22.5867 6.22199 22.1333 5.8931 21.6355C5.1731 20.5333 4.59532 19.36 4.23977 18.0889C4.12421 17.6711 4.0531 17.2533 3.99088 16.8267C3.91977 16.2844 3.88421 15.7511 3.90199 15.2089C3.92866 14.48 3.93755 13.7511 3.93755 13.0222C3.93755 12.0355 3.94644 11.04 3.95532 10.0533C3.95532 9.84888 3.96421 9.65333 4.01755 9.45777C4.18644 8.81777 4.75532 8.38222 5.4131 8.38222C5.99977 8.38222 6.57755 8.3911 7.16421 8.39999C7.67088 8.39999 8.18644 8.41777 8.6931 8.41777C9.51977 8.42666 10.3375 8.44444 11.1642 8.45333C11.5109 8.45333 11.8575 8.4711 12.2131 8.4711C12.9953 8.4711 13.6531 8.76444 14.1864 9.33333C14.702 9.89333 15.0753 10.5422 15.2442 11.2978C15.3953 11.9378 15.3864 12.5778 15.1553 13.2C15.0664 13.4311 14.9509 13.6444 14.8264 13.8578C14.4887 14.3911 14.0975 14.8889 13.6264 15.3244C13.3064 15.6267 12.9509 15.8844 12.5775 16.1155C12.5331 16.1422 12.4975 16.1689 12.4531 16.1955C12.4531 16.1955 12.4531 16.2044 12.4353 16.2222C12.4531 16.2489 12.4709 16.2844 12.4975 16.3111C12.7642 16.64 13.0398 16.96 13.3064 17.2889C13.5375 17.5644 13.7598 17.8311 13.982 18.1067C14.0887 18.2311 14.2131 18.2933 14.3731 18.2844C14.5953 18.2844 14.8175 18.2844 15.0398 18.2844C15.1198 18.2578 15.1642 18.2044 15.1998 18.1333C16.8798 15.1555 18.5242 12.16 20.1687 9.15555C20.2398 9.02222 20.3109 8.88888 20.3909 8.75555C20.4531 8.64888 20.5242 8.5511 20.6131 8.46222C20.782 8.29333 21.1731 8.29333 21.3242 8.48888C21.3953 8.57777 21.4575 8.65777 21.5109 8.75555C21.8398 9.34222 22.1687 9.93777 22.4975 10.5333C23.1287 11.6533 23.7598 12.7733 24.382 13.8933C24.9953 14.9867 25.5998 16.0711 26.2042 17.1644C26.7909 18.2222 27.3687 19.28 27.9464 20.3378C27.9998 20.4267 28.0353 20.5244 28.062 20.6222C28.1064 20.8089 28.0264 20.96 27.8398 21.0222C27.7331 21.0578 27.6175 21.0844 27.5109 21.0844C26.8887 21.0844 26.2664 21.0844 25.6442 21.0844C25.1198 21.0844 24.5953 21.0844 24.062 21.0755C23.6175 21.0755 23.1731 21.0755 22.7375 21.0755C21.5909 21.0755 20.4531 21.0667 19.3064 21.0578C18.5509 21.0578 17.8042 21.0578 17.0487 21.04C16.9509 21.04 16.9064 21.0755 16.862 21.1555C16.4175 21.9911 15.9642 22.8267 15.5198 23.6622C15.4753 23.7511 15.4131 23.8044 15.3064 23.7955C15.2264 23.7955 15.1464 23.7955 15.0664 23.7955L15.0931 23.7511ZM21.0042 13.5378C20.8353 13.76 18.5153 18.0711 18.4709 18.2578C18.622 18.2578 18.7731 18.2755 18.9242 18.2755C19.2887 18.2755 19.6531 18.2755 20.0175 18.2755C21.1464 18.2755 22.2753 18.2844 23.4042 18.2933C23.4664 18.2933 23.5375 18.2844 23.6175 18.2755C22.7375 16.6844 21.8842 15.1022 21.0042 13.5289V13.5378Z" fill="url(#paint0_linear_2737_121080)"/>
<path fill-rule="evenodd" clip-rule="evenodd" d="M9.69765 21.1911C9.86653 21.3778 9.46653 22.0267 8.79987 22.6489C8.1332 23.2711 7.44876 23.6178 7.27987 23.4311C7.11098 23.2444 7.51098 22.5955 8.17765 21.9733C8.84431 21.3511 9.52876 21.0044 9.69765 21.1911Z" fill="#0E3582"/>
<path fill-rule="evenodd" clip-rule="evenodd" d="M10.9157 24.1778C10.9157 24.1778 11.0579 23.6622 11.4846 23.68L9.51127 21.7067C9.51127 21.7067 8.95127 21.6622 8.94238 22.2133L10.9157 24.1778Z" fill="url(#paint1_linear_2737_121080)"/>
<path fill-rule="evenodd" clip-rule="evenodd" d="M9.71552 25.0222C9.71552 25.0222 9.85774 24.5067 10.2844 24.5244L8.31108 22.5511C8.31108 22.5511 7.75108 22.5067 7.74219 23.0578L9.71552 25.0222Z" fill="url(#paint2_linear_2737_121080)"/>
<path d="M12.2668 24.8889C12.2668 24.8889 12.329 24.96 12.3913 24.96C12.4357 24.96 12.4624 24.9956 12.4624 25.04C12.4624 25.1022 12.4179 25.1733 12.3468 25.1822C12.2846 25.1911 12.2402 25.1644 12.2224 25.0933C12.2135 25.0667 12.1957 25.0311 12.1779 25.0133C11.9113 24.7467 11.2713 24.1244 11.2535 24.1067C11.2179 24.0622 11.2179 24.0178 11.2446 23.9911C11.2713 23.9644 11.3246 23.9733 11.369 24" fill="#4C95CF"/>
<path d="M11.0754 25.7333C11.0754 25.7333 11.1376 25.8044 11.1999 25.8044C11.2443 25.8044 11.271 25.84 11.271 25.8844C11.271 25.9467 11.2265 26.0178 11.1554 26.0267C11.0932 26.0355 11.0487 26.0089 11.031 25.9378C11.0221 25.9111 11.0043 25.8755 10.9865 25.8578C10.7199 25.5911 10.0799 24.9689 10.0621 24.9511C10.0265 24.9067 10.0265 24.8622 10.0532 24.8355C10.0799 24.8089 10.1332 24.8178 10.1776 24.8444" fill="#4C95CF"/>
<path d="M8.68457 11.4844C8.72901 11.4844 8.77346 11.4755 8.8179 11.4667C8.77346 11.4667 8.72901 11.4755 8.68457 11.4844Z" fill="#135397"/>
<path d="M8.56836 11.5022C8.56836 11.5022 8.63058 11.4933 8.66614 11.4844C8.63058 11.4844 8.60391 11.4933 8.56836 11.5022Z" fill="#135397"/>
<path fill-rule="evenodd" clip-rule="evenodd" d="M9.98246 24.2578C9.98246 24.2578 10.1247 23.7422 10.5513 23.76L8.80912 21.9822C8.80912 21.9822 8.24912 21.9378 8.24023 22.4889L9.98246 24.2578Z" fill="url(#paint3_linear_2737_121080)"/>
<path d="M10.1682 24.3644C10.0794 24.3911 10.0349 24.3467 10.0527 24.2578C10.0527 24.2222 10.0705 24.1956 10.0794 24.1689C10.1594 24.0267 10.2749 23.9111 10.4171 23.8311C10.4438 23.8222 10.4705 23.8044 10.4971 23.8044C10.5949 23.7867 10.6482 23.84 10.6127 23.9378C10.6038 23.9733 10.5149 24.1067 10.4171 24.1956C10.3105 24.2933 10.2038 24.3556 10.1682 24.3644Z" fill="#03437E"/>
<path d="M11.3332 24.9689C11.3332 24.9689 11.3954 25.04 11.4577 25.04C11.5021 25.04 11.5288 25.0756 11.5288 25.12C11.5288 25.1822 11.4843 25.2533 11.4132 25.2622C11.351 25.2711 11.3066 25.2444 11.2888 25.1733C11.2799 25.1467 11.2621 25.1111 11.2443 25.0933C10.9777 24.8267 10.3377 24.2044 10.3199 24.1867C10.2843 24.1422 10.2843 24.0978 10.311 24.0711C10.3377 24.0444 10.391 24.0533 10.4354 24.08" fill="#4C95CF"/>
</g>
</g>
<defs>
<linearGradient id="paint0_linear_2737_121080" x1="13.1044" y1="7.38882" x2="29.1681" y2="9.23041" gradientUnits="userSpaceOnUse">
<stop stop-color="#0E3582"/>
<stop offset="1" stop-color="#155B9C"/>
</linearGradient>
<linearGradient id="paint1_linear_2737_121080" x1="9.25375" y1="21.6039" x2="9.74541" y2="21.0901" gradientUnits="userSpaceOnUse">
<stop stop-color="#0B6A2C"/>
<stop offset="0.54" stop-color="#1D8140"/>
<stop offset="1" stop-color="#5FD286"/>
</linearGradient>
<linearGradient id="paint2_linear_2737_121080" x1="2.43054" y1="6.31584" x2="2.92718" y2="5.84487" gradientUnits="userSpaceOnUse">
<stop stop-color="#830201"/>
<stop offset="1" stop-color="#FF5A5A"/>
</linearGradient>
<linearGradient id="paint3_linear_2737_121080" x1="8.46907" y1="21.1793" x2="8.96033" y2="20.7027" gradientUnits="userSpaceOnUse">
<stop stop-color="#03437D"/>
<stop offset="0.55" stop-color="#195C99"/>
<stop offset="1" stop-color="#67B8FF"/>
</linearGradient>
<clipPath id="clip0_2737_121080">
<rect width="32" height="32" fill="white"/>
</clipPath>
</defs>
</svg>
