<svg width="32" height="32" viewBox="0 0 32 32" fill="none" xmlns="http://www.w3.org/2000/svg">
<g clip-path="url(#clip0_2707_350058)">
<path d="M15.9998 31.9823C24.8265 31.9823 31.982 24.8268 31.982 16C31.982 7.17331 24.8265 0.0178223 15.9998 0.0178223C7.17306 0.0178223 0.0175781 7.17331 0.0175781 16C0.0175781 24.8268 7.17306 31.9823 15.9998 31.9823Z" fill="white"/>
<path fill-rule="evenodd" clip-rule="evenodd" d="M21.111 16.8889H21.6443C21.6179 16.7182 21.5262 16.5643 21.3886 16.4599C21.2509 16.3554 21.0781 16.3084 20.9066 16.3289C20.2221 16.3289 20.1154 16.7289 20.1154 16.9245C20.1154 17.12 20.3199 17.3689 21.0043 17.5111C21.2266 17.5645 21.1732 17.8845 20.8621 17.8756C20.8262 17.8791 20.7899 17.8741 20.7563 17.861C20.7226 17.848 20.6925 17.8272 20.6683 17.8005C20.6441 17.7737 20.6265 17.7416 20.617 17.7068C20.6074 17.672 20.6061 17.6354 20.6132 17.6H20.0532C20.0632 17.696 20.0921 17.789 20.1382 17.8737C20.1844 17.9584 20.2469 18.0331 20.3221 18.0934C20.3974 18.1538 20.4838 18.1986 20.5765 18.2253C20.6692 18.252 20.7663 18.26 20.8621 18.2489C21.6443 18.2489 21.751 17.7778 21.751 17.5645C21.751 17.3511 21.4932 17.1289 21.1821 17.0756C20.871 17.0222 20.6932 16.9956 20.7021 16.8178C20.711 16.64 20.8443 16.6667 20.9243 16.6667C20.9769 16.6752 21.0247 16.7023 21.059 16.7431C21.0932 16.7839 21.1117 16.8356 21.111 16.8889Z" fill="#EBB100"/>
<path fill-rule="evenodd" clip-rule="evenodd" d="M27.7687 16.8889H28.3021C28.2756 16.7182 28.1839 16.5643 28.0463 16.4599C27.9087 16.3554 27.7359 16.3084 27.5643 16.3289C26.8798 16.3289 26.7732 16.7289 26.7732 16.9245C26.7732 17.12 26.9776 17.3689 27.6621 17.5111C27.8932 17.5645 27.8309 17.8845 27.5198 17.8756C27.4846 17.8776 27.4494 17.8715 27.4169 17.8579C27.3844 17.8442 27.3554 17.8232 27.3323 17.7966C27.3091 17.77 27.2923 17.7385 27.2833 17.7044C27.2742 17.6703 27.273 17.6346 27.2798 17.6H26.6665C26.6764 17.696 26.7053 17.789 26.7515 17.8737C26.7977 17.9584 26.8602 18.0331 26.9354 18.0934C27.0107 18.1538 27.0971 18.1986 27.1898 18.2253C27.2825 18.252 27.3796 18.26 27.4754 18.2489C28.2576 18.2489 28.3643 17.7778 28.3643 17.5645C28.3643 17.3511 28.1065 17.1289 27.7954 17.0756C27.4843 17.0222 27.3065 16.9956 27.3154 16.8178C27.3243 16.64 27.4576 16.6667 27.5376 16.6667C27.5675 16.6655 27.5974 16.6704 27.6254 16.681C27.6534 16.6916 27.6789 16.7078 27.7005 16.7285C27.7221 16.7493 27.7393 16.7742 27.751 16.8018C27.7627 16.8293 27.7687 16.859 27.7687 16.8889Z" fill="#EBB100"/>
<path d="M19.7242 16.3467H19.1553V18.1867H19.7242V16.3467Z" fill="#EBB100"/>
<path d="M24.3999 16.3467H23.8311V18.1867H24.3999V16.3467Z" fill="#EBB100"/>
<path fill-rule="evenodd" clip-rule="evenodd" d="M23.6088 16.3467H21.8311V16.7911H22.3999V18.1867H22.9688V16.7911H23.6088V16.3467Z" fill="#EBB100"/>
<path fill-rule="evenodd" clip-rule="evenodd" d="M18.3021 16.889L18.7821 16.7556C18.705 16.6066 18.5873 16.4824 18.4426 16.3975C18.2978 16.3126 18.132 16.2703 17.9643 16.2756C17.8243 16.267 17.6842 16.289 17.5536 16.3403C17.4231 16.3916 17.3054 16.4709 17.2088 16.5726C17.1122 16.6743 17.0391 16.7959 16.9945 16.9289C16.95 17.0618 16.9351 17.203 16.951 17.3423C16.951 17.5781 17.0446 17.8042 17.2113 17.9709C17.378 18.1376 17.6041 18.2312 17.8399 18.2312C18.5776 18.2312 18.8088 17.9112 18.8088 17.9112V17.1556H17.9199V17.4934H18.2932V17.7068C18.2414 17.7557 18.1796 17.7929 18.1121 17.8159C18.0447 17.8389 17.973 17.8472 17.9021 17.8401C17.7819 17.8247 17.6718 17.7653 17.5929 17.6733C17.5141 17.5814 17.4722 17.4634 17.4754 17.3423C17.4754 16.9868 17.6354 16.7468 17.8754 16.729C17.9543 16.7077 18.0379 16.7117 18.1145 16.7404C18.191 16.7691 18.2566 16.8211 18.3021 16.889Z" fill="#EBB100"/>
<path fill-rule="evenodd" clip-rule="evenodd" d="M26.0086 16.889L26.4886 16.7556C26.4115 16.6066 26.2938 16.4824 26.1491 16.3975C26.0044 16.3126 25.8386 16.2703 25.6709 16.2756C25.5309 16.267 25.3907 16.289 25.2602 16.3403C25.1297 16.3916 25.012 16.4709 24.9154 16.5726C24.8188 16.6743 24.7456 16.7959 24.7011 16.9289C24.6565 17.0618 24.6417 17.203 24.6575 17.3423C24.6575 17.5781 24.7512 17.8042 24.9179 17.9709C25.0846 18.1376 25.3107 18.2312 25.5464 18.2312C26.5331 18.2312 26.5242 17.6179 26.5242 17.6179L26.0086 17.4934C25.9958 17.5885 25.9493 17.6758 25.8775 17.7395C25.8057 17.8031 25.7134 17.8388 25.6175 17.8401C25.3597 17.8401 25.2086 17.5912 25.1909 17.3423C25.1731 17.0934 25.3509 16.7468 25.5909 16.729C25.6685 16.7097 25.7502 16.7147 25.8249 16.7434C25.8996 16.772 25.9637 16.8228 26.0086 16.889Z" fill="#EBB100"/>
<path fill-rule="evenodd" clip-rule="evenodd" d="M13.1821 16.3467V18.1867H14.6399V17.7778H13.7955V16.3556L13.1821 16.3467Z" fill="#EBB100"/>
<path fill-rule="evenodd" clip-rule="evenodd" d="M15.7686 16.3022C15.9585 16.3022 16.1441 16.3585 16.3019 16.464C16.4598 16.5695 16.5829 16.7195 16.6555 16.8949C16.7282 17.0703 16.7472 17.2633 16.7101 17.4495C16.6731 17.6358 16.5817 17.8068 16.4474 17.9411C16.3132 18.0753 16.1421 18.1668 15.9559 18.2038C15.7697 18.2408 15.5766 18.2218 15.4012 18.1492C15.2258 18.0765 15.0759 17.9535 14.9704 17.7956C14.8649 17.6377 14.8086 17.4521 14.8086 17.2622C14.8086 17.1362 14.8334 17.0113 14.8817 16.8949C14.9299 16.7784 15.0006 16.6726 15.0898 16.5834C15.1789 16.4943 15.2847 16.4236 15.4012 16.3753C15.5177 16.3271 15.6425 16.3022 15.7686 16.3022ZM15.7686 16.7556C15.9908 16.7556 16.1597 16.9778 16.1597 17.2622C16.1597 17.5467 15.9997 17.7778 15.7686 17.7778C15.6499 17.7581 15.5432 17.6937 15.4705 17.5978C15.3978 17.5019 15.3645 17.3819 15.3775 17.2622C15.3647 17.1436 15.3983 17.0247 15.4712 16.9303C15.544 16.8358 15.6506 16.7732 15.7686 16.7556Z" fill="#EBB100"/>
<path d="M12.2399 14.6134H11.4399V18.4712H12.2399V14.6134Z" fill="#005E00"/>
<path fill-rule="evenodd" clip-rule="evenodd" d="M9.04004 14.6134V18.4623H9.83115V17.0579H10.8089V16.169H9.83115V15.3868H10.8623V14.5779L9.04004 14.6134Z" fill="#005E00"/>
<path fill-rule="evenodd" clip-rule="evenodd" d="M6.22198 18.4622H7.49309C7.81258 18.3676 8.09351 18.1734 8.29497 17.908C8.49642 17.6426 8.60787 17.3198 8.61309 16.9867V16C8.58535 15.6886 8.46703 15.3922 8.27273 15.1474C8.07843 14.9025 7.81666 14.72 7.51976 14.6222C7.07892 14.5885 6.63615 14.5885 6.19531 14.6222L6.22198 18.4622ZM7.0042 17.6533H7.42198C7.57125 17.5626 7.69048 17.4299 7.76479 17.2718C7.83909 17.1137 7.86516 16.9373 7.83976 16.7644V16.2133C7.83976 16.2133 7.75976 15.5111 7.43976 15.4133C7.29232 15.3928 7.14275 15.3928 6.99531 15.4133L7.0042 17.6533Z" fill="#005E00"/>
<path fill-rule="evenodd" clip-rule="evenodd" d="M11.2533 18.8978H10.2578C10.2578 18.8978 7.51999 20.6756 5.05777 20.3201C2.81777 20.0356 5.23554 17.4845 5.23554 17.4845C5.23554 17.4845 3.45777 18.8623 3.63554 20.0623C3.81332 21.2623 5.8311 21.0667 6.62221 20.9512C8.28707 20.5814 9.86147 19.8833 11.2533 18.8978Z" fill="#005E00"/>
<path fill-rule="evenodd" clip-rule="evenodd" d="M9.42188 13.68L9.67965 14.2134C9.67965 14.2134 13.9819 11.4134 16.4352 11.7245C18.6752 12.0089 16.2574 14.56 16.2574 14.56C16.2574 14.56 18.0352 13.1822 17.8663 11.9911C17.6974 10.8 15.6619 10.9778 14.8708 11.1022C12.916 11.6316 11.0709 12.5044 9.42188 13.68Z" fill="#EBB100"/>
</g>
<defs>
<clipPath id="clip0_2707_350058">
<rect width="32" height="32" fill="white"/>
</clipPath>
</defs>
</svg>
