<svg width="32" height="32" viewBox="0 0 32 32" fill="none" xmlns="http://www.w3.org/2000/svg">
<g clip-path="url(#clip0_2707_349653)">
<path d="M15.9998 31.9823C24.8265 31.9823 31.982 24.8268 31.982 16C31.982 7.17331 24.8265 0.0178223 15.9998 0.0178223C7.17306 0.0178223 0.0175781 7.17331 0.0175781 16C0.0175781 24.8268 7.17306 31.9823 15.9998 31.9823Z" fill="white"/>
<path fill-rule="evenodd" clip-rule="evenodd" d="M25.5287 12.8534C25.3758 12.8534 25.2262 12.8987 25.0991 12.9837C24.9719 13.0687 24.8728 13.1895 24.8142 13.3308C24.7557 13.4721 24.7404 13.6276 24.7702 13.7776C24.8001 13.9276 24.8737 14.0654 24.9819 14.1736C25.09 14.2817 25.2278 14.3554 25.3778 14.3852C25.5278 14.415 25.6833 14.3997 25.8246 14.3412C25.966 14.2827 26.0867 14.1835 26.1717 14.0564C26.2567 13.9292 26.302 13.7797 26.302 13.6267C26.302 13.4216 26.2206 13.2249 26.0755 13.0799C25.9305 12.9349 25.7338 12.8534 25.5287 12.8534ZM25.5287 12.9867C25.6556 12.985 25.7802 13.021 25.8867 13.0902C25.9931 13.1595 26.0765 13.2588 26.1263 13.3756C26.1761 13.4924 26.19 13.6213 26.1664 13.746C26.1427 13.8708 26.0824 13.9856 25.9933 14.076C25.9042 14.1664 25.7901 14.2283 25.6658 14.2537C25.5414 14.2791 25.4122 14.267 25.2948 14.2188C25.1773 14.1706 25.0768 14.0886 25.0061 13.9832C24.9354 13.8778 24.8976 13.7537 24.8976 13.6267C24.8976 13.4585 24.9638 13.2971 25.0819 13.1773C25.2 13.0575 25.3605 12.9891 25.5287 12.9867Z" fill="#FF0000"/>
<path fill-rule="evenodd" clip-rule="evenodd" d="M25.7774 13.7778C25.7536 13.8174 25.7195 13.8498 25.6789 13.8717C25.6382 13.8935 25.5924 13.9041 25.5463 13.9023C25.4732 13.9023 25.4031 13.8732 25.3514 13.8216C25.2998 13.7699 25.2707 13.6998 25.2707 13.6267C25.2707 13.5536 25.2998 13.4835 25.3514 13.4319C25.4031 13.3802 25.4732 13.3511 25.5463 13.3511C25.5871 13.3494 25.6276 13.3574 25.6647 13.3744C25.7018 13.3914 25.7343 13.4169 25.7596 13.4489L25.8041 13.5023L25.9107 13.4134L25.8485 13.3334C25.8099 13.2858 25.7611 13.2476 25.7057 13.2214C25.6503 13.1952 25.5898 13.1819 25.5285 13.1823C25.4562 13.182 25.3851 13.2005 25.3221 13.236C25.2592 13.2715 25.2065 13.3227 25.1692 13.3846C25.1319 13.4466 25.1114 13.5171 25.1095 13.5894C25.1077 13.6616 25.1246 13.7331 25.1587 13.7969C25.1927 13.8607 25.2427 13.9145 25.3038 13.9531C25.3649 13.9918 25.435 14.0139 25.5072 14.0173C25.5794 14.0208 25.6513 14.0054 25.7158 13.9728C25.7803 13.9402 25.8352 13.8914 25.8752 13.8311V13.7689L25.7774 13.7245V13.7778Z" fill="#FF0000"/>
<path fill-rule="evenodd" clip-rule="evenodd" d="M4.15088 15.1112H14.8175V11.5557H13.6531L17.9642 7.11121L22.3553 11.5557H20.9153V15.049H27.5553V15.8134H4.15088V15.1112Z" fill="#FFF200"/>
<path d="M27.5642 21.12H4.15088V22.5689H27.5642V21.12Z" fill="black"/>
<path d="M4.55988 21.9912H4.79988C4.79197 22.0233 4.79197 22.0568 4.79988 22.089C4.81317 22.1068 4.8307 22.121 4.85088 22.1303C4.87106 22.1396 4.89325 22.1437 4.91543 22.1423C4.94109 22.1527 4.96977 22.1527 4.99543 22.1423C5.00655 22.1361 5.01581 22.1271 5.02226 22.1162C5.02871 22.1052 5.03212 22.0928 5.03212 22.0801C5.03212 22.0674 5.02871 22.0549 5.02226 22.0439C5.01581 22.033 5.00655 22.024 4.99543 22.0178C4.95797 21.9918 4.91564 21.9737 4.87099 21.9645C4.783 21.9507 4.70022 21.9139 4.63099 21.8578C4.6061 21.8358 4.58671 21.8082 4.57437 21.7774C4.56202 21.7465 4.55706 21.7132 4.55988 21.6801C4.54775 21.6364 4.54775 21.5903 4.55988 21.5467C4.58452 21.506 4.62207 21.4747 4.66654 21.4578C4.73376 21.442 4.80376 21.442 4.87099 21.4578C4.9558 21.4499 5.04072 21.4719 5.11099 21.5201C5.14043 21.5456 5.1643 21.577 5.18112 21.6121C5.19794 21.6473 5.20735 21.6855 5.20876 21.7245H5.03988C5.0494 21.6987 5.0494 21.6703 5.03988 21.6445C5.02579 21.6386 5.01069 21.6356 4.99543 21.6356C4.98017 21.6356 4.96507 21.6386 4.95099 21.6445C4.94129 21.6398 4.93066 21.6373 4.91988 21.6373C4.9091 21.6373 4.89846 21.6398 4.88876 21.6445C4.88876 21.6445 4.88876 21.6445 4.88876 21.6889H4.97765C5.06018 21.7073 5.1406 21.7341 5.21765 21.7689C5.26165 21.7949 5.29835 21.8316 5.32432 21.8756C5.33456 21.9195 5.33456 21.9651 5.32432 22.0089C5.34014 22.0611 5.34014 22.1168 5.32432 22.169C5.2974 22.2153 5.25713 22.2525 5.20876 22.2756C5.14144 22.2906 5.07165 22.2906 5.00432 22.2756C4.95192 22.2824 4.89868 22.278 4.84811 22.2627C4.79754 22.2473 4.75081 22.2215 4.71099 22.1867C4.63885 22.1417 4.58524 22.0723 4.55988 21.9912Z" fill="white"/>
<path d="M5.97289 21.3867H6.22178V21.9289C6.22607 21.9792 6.22607 22.0298 6.22178 22.0801C6.20458 22.1342 6.17401 22.1831 6.13289 22.2223C6.10694 22.2562 6.07346 22.2835 6.03512 22.3023C5.97627 22.3122 5.91618 22.3122 5.85734 22.3023H5.72401C5.68574 22.3086 5.64671 22.3086 5.60845 22.3023C5.57276 22.2832 5.54225 22.2558 5.51956 22.2223C5.49344 22.195 5.47503 22.1612 5.46623 22.1245C5.45917 22.0744 5.45917 22.0235 5.46623 21.9734V21.4312H5.72401V21.9823C5.7087 22.0193 5.7087 22.0608 5.72401 22.0978C5.75227 22.1262 5.79063 22.1422 5.83067 22.1423C5.86782 22.1408 5.90292 22.1249 5.92845 22.0978C5.94376 22.0608 5.94376 22.0193 5.92845 21.9823L5.97289 21.3867Z" fill="white"/>
<path d="M6.3999 21.3867H6.82657C6.90143 21.3825 6.9749 21.4081 7.03101 21.4578C7.07915 21.5148 7.10448 21.5876 7.10212 21.6622C7.10538 21.7015 7.09989 21.741 7.08606 21.7779C7.07222 21.8148 7.05039 21.8481 7.02212 21.8756C6.99298 21.904 6.95805 21.9259 6.91971 21.9397C6.88137 21.9535 6.84051 21.9589 6.7999 21.9556H6.65768V22.2844H6.3999V21.3867ZM6.65768 21.7689H6.7199C6.7547 21.7793 6.79177 21.7793 6.82657 21.7689C6.83146 21.7577 6.83399 21.7456 6.83399 21.7333C6.83399 21.7211 6.83146 21.709 6.82657 21.6978C6.83549 21.6749 6.83549 21.6495 6.82657 21.6267C6.795 21.6151 6.76036 21.6151 6.72879 21.6267H6.65768V21.7689Z" fill="white"/>
<path d="M7.23535 21.3867H7.9198V21.5823H7.49313V21.7245H7.88424V21.9112H7.49313V22.0889H7.92868V22.2845H7.23535V21.3867Z" fill="white"/>
<path d="M8.0708 22.2845V21.3956H8.49747C8.5561 21.3834 8.61662 21.3834 8.67525 21.3956C8.71907 21.409 8.75683 21.4373 8.78191 21.4756C8.79525 21.5221 8.79525 21.5714 8.78191 21.6179C8.79215 21.6617 8.79215 21.7073 8.78191 21.7512C8.76287 21.7869 8.73541 21.8174 8.70191 21.8401H8.61302C8.61302 21.8401 8.66636 21.8401 8.67525 21.8401H8.71969V21.8934L8.84413 22.1512H8.59525L8.46191 21.8845V21.8134C8.44172 21.8066 8.41988 21.8066 8.39969 21.8134V22.1779L8.0708 22.2845ZM8.32858 21.7512H8.50636C8.51031 21.7429 8.51236 21.7338 8.51236 21.7245C8.51236 21.7153 8.51031 21.7062 8.50636 21.6979C8.51528 21.675 8.51528 21.6496 8.50636 21.6268C8.47712 21.6199 8.4467 21.6199 8.41747 21.6268H8.32858V21.7512Z" fill="white"/>
<path d="M8.96875 21.3867H9.29764L9.43097 21.9378L9.55542 21.3867H9.89319V22.2756H9.68875V21.6001L9.51986 22.2845H9.33319L9.17319 21.6001V22.2845H8.96875V21.3867Z" fill="white"/>
<path d="M10.5687 22.1423H10.2754L10.2309 22.2845H9.97314L10.2843 21.3956H10.5598L10.8709 22.2845H10.6043L10.5687 22.1423ZM10.5154 21.9467L10.4176 21.6267L10.3287 21.9467H10.5154Z" fill="white"/>
<path d="M10.96 22.2844V21.3955H11.3866C11.4454 21.3843 11.5057 21.3843 11.5644 21.3955C11.6082 21.4089 11.646 21.4372 11.6711 21.4755C11.6802 21.5225 11.6802 21.5708 11.6711 21.6178C11.6813 21.6616 11.6813 21.7072 11.6711 21.7511C11.6461 21.785 11.6161 21.815 11.5822 21.84C11.5763 21.8409 11.5703 21.8416 11.5644 21.8421V21.8933L11.6888 22.1511H11.4044L11.2711 21.8844C11.2604 21.8562 11.2419 21.8315 11.2177 21.8133C11.2079 21.8092 11.1973 21.807 11.1866 21.807C11.1759 21.807 11.1654 21.8092 11.1555 21.8133V22.1778L10.96 22.2844Z" fill="white"/>
<path d="M11.8574 21.3867H12.1063V21.7334L12.3819 21.3867H12.7196L12.4174 21.7334L12.7285 22.2845H12.4441L12.2663 21.9201L12.133 22.0712V22.2845H11.8841L11.8574 21.3867Z" fill="white"/>
<path d="M12.8174 21.3867H13.5018V21.5823H13.0752V21.7245H13.4663V21.9112H13.0752V22.0889H13.5107V22.2845H12.8174V21.3867Z" fill="white"/>
<path d="M13.5908 21.3867H14.3642V21.6089H14.1064V22.2845H13.8486V21.6089H13.5908V21.3867Z" fill="white"/>
<path d="M14.8711 21.3867H15.3511C15.3841 21.3852 15.417 21.3907 15.4477 21.403C15.4784 21.4153 15.506 21.434 15.5289 21.4578C15.5513 21.4776 15.5686 21.5024 15.5795 21.5303C15.5903 21.5581 15.5943 21.5881 15.5911 21.6178C15.5942 21.6664 15.5783 21.7142 15.5466 21.7512C15.5242 21.7807 15.4931 21.8024 15.4578 21.8134C15.4846 21.8158 15.5105 21.8242 15.5336 21.838C15.5567 21.8519 15.5764 21.8708 15.5911 21.8934C15.6218 21.9343 15.6375 21.9845 15.6355 22.0356C15.6485 22.0761 15.6485 22.1196 15.6355 22.1601C15.6165 22.1958 15.589 22.2263 15.5555 22.2489H15.4578H14.9067L14.8711 21.3867ZM15.1289 21.7423H15.2355C15.2496 21.7481 15.2647 21.7512 15.28 21.7512C15.2952 21.7512 15.3103 21.7481 15.3244 21.7423C15.3306 21.722 15.3306 21.7003 15.3244 21.6801C15.3297 21.6597 15.3297 21.6382 15.3244 21.6178H15.2444H15.1111L15.1289 21.7423ZM15.1289 22.0978H15.2533C15.2849 22.1094 15.3195 22.1094 15.3511 22.0978C15.36 22.075 15.36 22.0496 15.3511 22.0267C15.3553 22.0169 15.3574 22.0063 15.3574 21.9956C15.3574 21.9849 15.3553 21.9743 15.3511 21.9645C15.3195 21.9529 15.2849 21.9529 15.2533 21.9645H15.1111L15.1289 22.0978Z" fill="white"/>
<path d="M16.2574 22.1423H15.9996V22.2845H15.7329L16.044 21.3956H16.3285L16.6396 22.2845H16.364L16.2574 22.1423ZM16.204 21.9467L16.1151 21.6267L16.0174 21.9467H16.204Z" fill="white"/>
<path d="M16.6486 21.3867H16.8886V21.7067H17.1642V21.3867H17.422V22.2756H17.1642V21.9201H16.8886V22.2756H16.6309L16.6486 21.3867Z" fill="white"/>
<path d="M18.1156 22.1423H17.8222V22.2845H17.5645L17.8756 21.3956H18.1511L18.4622 22.2845H18.1956L18.1156 22.1423ZM18.0622 21.9467L17.9733 21.6267L17.8845 21.9467H18.0622Z" fill="white"/>
<path d="M18.5063 21.3867H18.7463L19.0575 21.8845V21.3867H19.2975V22.2756H19.0575L18.7463 21.7867V22.2756H18.5063V21.3867Z" fill="white"/>
<path d="M19.8574 21.3867H20.3285C20.3628 21.3856 20.397 21.3913 20.429 21.4035C20.4611 21.4157 20.4904 21.4342 20.5152 21.4579C20.5376 21.4776 20.555 21.5024 20.5658 21.5303C20.5766 21.5581 20.5806 21.5882 20.5774 21.6179C20.59 21.6614 20.59 21.7076 20.5774 21.7512C20.5531 21.7787 20.5227 21.8 20.4885 21.8134C20.5154 21.8158 20.5413 21.8242 20.5644 21.8381C20.5875 21.8519 20.6072 21.8708 20.6219 21.8934C20.6526 21.9343 20.6683 21.9845 20.6663 22.0356C20.6752 22.0766 20.6752 22.1191 20.6663 22.1601C20.6473 22.1958 20.6198 22.2263 20.5863 22.249H20.4885H19.9374L19.8574 21.3867ZM20.1152 21.7423H20.2219C20.2693 21.7423 20.2959 21.7423 20.3019 21.7423C20.3066 21.7326 20.309 21.722 20.309 21.7112C20.309 21.7004 20.3066 21.6898 20.3019 21.6801C20.306 21.6702 20.3082 21.6597 20.3082 21.649C20.3082 21.6383 20.306 21.6277 20.3019 21.6179C20.2759 21.6091 20.2478 21.6091 20.2219 21.6179H20.1152V21.7423ZM20.1152 22.0979H20.2396C20.2712 22.1094 20.3059 22.1094 20.3374 22.0979C20.3463 22.075 20.3463 22.0496 20.3374 22.0267C20.3416 22.0169 20.3437 22.0063 20.3437 21.9956C20.3437 21.9849 20.3416 21.9744 20.3374 21.9645C20.3059 21.953 20.2712 21.953 20.2396 21.9645H20.1152V22.0979Z" fill="white"/>
<path d="M21.2445 22.1423H20.9511L20.9067 22.2845H20.6489L20.96 21.3956H21.2356L21.5467 22.2845H21.28L21.2445 22.1423ZM21.1911 21.9467L21.0934 21.6267L21.0045 21.9467H21.1911Z" fill="white"/>
<path d="M21.6353 21.3867H21.8664L22.1775 21.8845V21.3867H22.4264V22.2756H22.2219L21.9197 21.7867V22.2756H21.6797L21.6353 21.3867Z" fill="white"/>
<path d="M23.0042 21.9645V21.7778H23.4042V22.16C23.3419 22.2081 23.2731 22.247 23.1998 22.2756C23.132 22.2861 23.0631 22.2861 22.9953 22.2756C22.912 22.2789 22.8293 22.2605 22.7553 22.2222C22.6926 22.1848 22.6429 22.1289 22.6131 22.0622C22.5767 21.9844 22.5585 21.8993 22.5598 21.8133C22.5575 21.7245 22.5757 21.6362 22.6131 21.5556C22.6527 21.4884 22.7103 21.4336 22.7795 21.3975C22.8486 21.3614 22.9264 21.3453 23.0042 21.3511C23.0718 21.3393 23.141 21.3393 23.2087 21.3511C23.2536 21.367 23.2935 21.3946 23.3242 21.4311C23.3549 21.4747 23.3789 21.5227 23.3953 21.5733L23.1464 21.6267C23.1362 21.6159 23.1241 21.6068 23.1109 21.6C23.0819 21.5911 23.0509 21.5911 23.022 21.6C22.995 21.5983 22.968 21.603 22.9433 21.6138C22.9186 21.6246 22.8968 21.6412 22.8798 21.6622C22.8616 21.7292 22.8616 21.7997 22.8798 21.8667C22.8731 21.939 22.892 22.0113 22.9331 22.0711C22.9482 22.092 22.9683 22.1087 22.9917 22.1196C23.015 22.1304 23.0407 22.1352 23.0664 22.1333H23.1109L23.1998 22.08V22L23.0042 21.9645Z" fill="white"/>
<path d="M24.0888 21.3867H24.3466V21.9289C24.355 21.979 24.355 22.03 24.3466 22.0801C24.335 22.1248 24.3102 22.1651 24.2755 22.1956C24.2495 22.2295 24.216 22.2569 24.1777 22.2756C24.1189 22.2856 24.0588 22.2856 23.9999 22.2756H23.8666C23.8283 22.2819 23.7893 22.2819 23.751 22.2756C23.7153 22.2566 23.6848 22.2291 23.6621 22.1956C23.636 22.1683 23.6176 22.1346 23.6088 22.0978C23.6018 22.0477 23.6018 21.9968 23.6088 21.9467V21.4045H23.8666V21.9556C23.8513 21.9926 23.8513 22.0342 23.8666 22.0712C23.8948 22.0995 23.9332 22.1155 23.9732 22.1156C24.0104 22.1141 24.0455 22.0982 24.071 22.0712C24.0863 22.0342 24.0863 21.9926 24.071 21.9556L24.0888 21.3867Z" fill="white"/>
<path d="M24.5151 21.3867H24.7551L25.0662 21.8845V21.3867H25.3062V22.2756H25.0662L24.7551 21.7867V22.2756H24.5151V21.3867Z" fill="white"/>
<path d="M25.9734 22.1423H25.6889V22.2845H25.4312L25.7423 21.3956H26.0178L26.3289 22.2845H26.0623L25.9734 22.1423ZM25.92 21.9467L25.8312 21.6267L25.7423 21.9467H25.92Z" fill="white"/>
<path d="M26.3643 21.3867H26.6043L26.9154 21.8845V21.3867H27.1554V22.2756H26.9154L26.6043 21.7867V22.2756H26.3643V21.3867Z" fill="white"/>
<path fill-rule="evenodd" clip-rule="evenodd" d="M4.15088 15.8312H16.2131V11.8934H15.0487L19.3509 7.44897L23.742 11.8401H22.302V15.7245H27.5553V16.489H4.15088V15.8312Z" fill="#FF5E00"/>
<path fill-rule="evenodd" clip-rule="evenodd" d="M16.1066 17.7067H16.7466V19.4845C16.7466 19.4845 16.7466 19.9023 17.2533 19.9023C17.7599 19.9023 17.6888 19.4667 17.6888 19.4667V17.689H18.3821V19.4667C18.3849 19.6114 18.3576 19.755 18.3022 19.8886C18.2467 20.0222 18.1642 20.1429 18.0598 20.243C17.9555 20.3432 17.8315 20.4207 17.6958 20.4707C17.56 20.5207 17.4154 20.542 17.271 20.5334C16.151 20.5334 16.1066 19.7601 16.0977 19.4579C16.0888 19.1556 16.1066 17.7067 16.1066 17.7067Z" fill="black"/>
<path fill-rule="evenodd" clip-rule="evenodd" d="M14.8174 18.5867L15.3952 18.2845C15.2741 18.064 15.0928 17.8826 14.8724 17.7614C14.6521 17.6402 14.4017 17.5842 14.1507 17.6C13.9513 17.6124 13.7564 17.6643 13.5771 17.7525C13.3979 17.8407 13.2379 17.9636 13.1065 18.1141C12.9751 18.2645 12.8748 18.4395 12.8114 18.629C12.7481 18.8184 12.7229 19.0186 12.7374 19.2178C12.739 19.4059 12.7797 19.5916 12.8568 19.7631C12.9339 19.9347 13.0457 20.0884 13.1852 20.2145C13.3247 20.3407 13.4889 20.4365 13.6673 20.496C13.8457 20.5554 14.0345 20.5773 14.2218 20.56C15.004 20.56 15.6352 20.24 15.6263 18.8889H14.2218V19.4223H14.8885C14.8749 19.5859 14.7972 19.7374 14.6723 19.844C14.5474 19.9506 14.3855 20.0034 14.2218 19.9912C13.5996 19.9912 13.4929 19.2 13.4929 19.2C13.4929 19.2 13.4485 18.3112 14.1685 18.3112C14.2907 18.3031 14.413 18.3238 14.5257 18.3717C14.6384 18.4195 14.7383 18.4932 14.8174 18.5867Z" fill="black"/>
<path fill-rule="evenodd" clip-rule="evenodd" d="M9.45752 14.5778V11.8223H10.5953C10.7175 11.822 10.8384 11.8469 10.9505 11.8954C11.0626 11.9439 11.1635 12.015 11.2469 12.1042C11.3303 12.1935 11.3944 12.2989 11.4353 12.4141C11.4761 12.5292 11.4927 12.6515 11.4842 12.7734C11.4842 13.6623 10.7464 13.7067 10.7464 13.7067H10.1331V14.5956L9.45752 14.5778ZM10.142 12.4445V13.0756C10.142 13.0756 10.7286 13.1823 10.7109 12.7467C10.6931 12.3112 10.142 12.4445 10.142 12.4445Z" fill="black"/>
<path fill-rule="evenodd" clip-rule="evenodd" d="M13.2355 11.8045C13.5043 11.8252 13.7611 11.9238 13.9747 12.0882C14.1883 12.2527 14.3493 12.4758 14.4381 12.7303C14.5269 12.9847 14.5396 13.2596 14.4747 13.5212C14.4097 13.7828 14.2699 14.0198 14.0724 14.2032C13.8749 14.3866 13.6282 14.5085 13.3625 14.5539C13.0968 14.5993 12.8237 14.5663 12.5765 14.4589C12.3292 14.3516 12.1187 14.1745 11.9705 13.9493C11.8223 13.7242 11.743 13.4607 11.7422 13.1912C11.7491 13.002 11.7932 12.8161 11.872 12.644C11.9507 12.4719 12.0627 12.317 12.2014 12.1882C12.3401 12.0595 12.5028 11.9593 12.6803 11.8934C12.8577 11.8276 13.0464 11.7974 13.2355 11.8045ZM13.2355 12.3556C13.402 12.3321 13.5716 12.3599 13.7218 12.4353C13.8721 12.5107 13.9958 12.6301 14.0764 12.7776C14.157 12.9251 14.1908 13.0937 14.1731 13.2608C14.1555 13.428 14.0874 13.5858 13.9777 13.7133C13.8681 13.8407 13.7223 13.9317 13.5596 13.9741C13.3969 14.0165 13.2252 14.0083 13.0673 13.9506C12.9095 13.8929 12.7729 13.7885 12.6759 13.6512C12.5789 13.5139 12.5261 13.3504 12.5244 13.1823C12.512 12.979 12.5794 12.779 12.7122 12.6246C12.845 12.4702 13.0327 12.3737 13.2355 12.3556Z" fill="black"/>
<path fill-rule="evenodd" clip-rule="evenodd" d="M4.31982 11.8223V14.5778H5.73316C6.02281 14.5209 6.28412 14.3662 6.47342 14.1397C6.66272 13.9132 6.76853 13.6285 6.77316 13.3334C6.77316 11.9023 5.63538 11.84 5.63538 11.84L4.31982 11.8223ZM5.09316 12.5156V13.9645C5.09316 13.9645 6.03538 14.0978 5.98205 13.2C5.92871 12.3023 5.09316 12.5156 5.09316 12.5156Z" fill="black"/>
<path fill-rule="evenodd" clip-rule="evenodd" d="M7.25293 11.8044V14.5511H8.88849V14.0356H7.9996V13.5467H8.88849V12.9067H7.9996V12.4444H8.88849V11.8222L7.25293 11.8044Z" fill="black"/>
<path fill-rule="evenodd" clip-rule="evenodd" d="M4.31982 17.7245V20.4445H5.84871C6.03079 20.413 6.19583 20.3181 6.31461 20.1766C6.43338 20.035 6.49821 19.856 6.4976 19.6712C6.50754 19.5889 6.50116 19.5055 6.47884 19.4256C6.45652 19.3458 6.41869 19.2711 6.36751 19.2059C6.31633 19.1407 6.25281 19.0862 6.18057 19.0456C6.10833 19.0049 6.02879 18.9789 5.94649 18.969C5.94649 18.969 6.34649 18.969 6.31094 18.2401C6.31094 17.7512 5.54649 17.6979 5.54649 17.6979L4.31982 17.7245ZM5.04871 19.2979V19.8934C5.04871 19.8934 5.70649 20.0357 5.75093 19.609C5.79538 19.1823 5.04871 19.2979 5.04871 19.2979ZM5.04871 18.2668V18.7912C5.04871 18.7912 5.6176 18.9068 5.65316 18.5334C5.68871 18.1601 5.04871 18.2668 5.04871 18.2668Z" fill="black"/>
<path fill-rule="evenodd" clip-rule="evenodd" d="M6.6665 20.4445L7.50206 17.689H8.39095L9.37762 20.4445H8.67539L8.52428 20.0267H7.43095L7.35984 20.4445H6.6665ZM7.61761 19.4045H8.31984L7.99984 18.2312L7.61761 19.4045Z" fill="black"/>
<path fill-rule="evenodd" clip-rule="evenodd" d="M22.0088 20.4445L22.8443 17.689H23.7332L24.7199 20.4445H23.9999L23.8577 20.0267H22.7821L22.7021 20.4445H22.0088ZM22.9599 19.4045H23.6621L23.3243 18.2134L22.9599 19.4045Z" fill="black"/>
<path fill-rule="evenodd" clip-rule="evenodd" d="M9.6709 20.4445V17.7156H10.2931L11.5998 19.4934V17.7156H12.2309V20.4445H11.6176L10.3642 18.8178V20.4445H9.6709Z" fill="black"/>
<path fill-rule="evenodd" clip-rule="evenodd" d="M19.0752 20.4445V17.7156H19.6974L21.0041 19.4934V17.7156H21.6263V20.4445H21.0219L19.7685 18.8178V20.4445H19.0752Z" fill="black"/>
<path fill-rule="evenodd" clip-rule="evenodd" d="M25.04 20.4445V17.7156H25.6623L26.9689 19.4934V17.7156H27.5556V20.4445H26.9511L25.7778 18.8356V20.4445H25.04Z" fill="black"/>
<path fill-rule="evenodd" clip-rule="evenodd" d="M15.9376 17.5378H16.5776V19.3156C16.5776 19.3156 16.5776 19.7334 17.0843 19.7334C17.591 19.7334 17.5199 19.2978 17.5199 19.2978V17.52H18.2132V19.2978C18.2159 19.4424 18.1887 19.586 18.1332 19.7196C18.0777 19.8532 17.9952 19.9739 17.8909 20.0741C17.7865 20.1743 17.6626 20.2518 17.5268 20.3017C17.3911 20.3517 17.2465 20.3731 17.1021 20.3645C15.9821 20.3645 15.9376 19.5911 15.9288 19.2889C15.9199 18.9867 15.9376 17.5378 15.9376 17.5378Z" fill="#FF0000"/>
<path fill-rule="evenodd" clip-rule="evenodd" d="M14.6489 18.4178L15.2267 18.1155C15.1057 17.8951 14.9244 17.7136 14.704 17.5924C14.4836 17.4712 14.2333 17.4153 13.9823 17.4311C13.7829 17.4435 13.5879 17.4953 13.4087 17.5835C13.2294 17.6718 13.0695 17.7947 12.9381 17.9451C12.8066 18.0956 12.7063 18.2706 12.643 18.46C12.5796 18.6495 12.5544 18.8496 12.5689 19.0489C12.5697 19.2341 12.6085 19.4172 12.6829 19.5868C12.7574 19.7564 12.8659 19.9088 13.0018 20.0347C13.1377 20.1606 13.298 20.2572 13.4728 20.3185C13.6476 20.3798 13.8331 20.4045 14.0178 20.3911C14.8 20.3911 15.4311 20.0711 15.4223 18.72H14.0267V19.2533H14.6934C14.6798 19.4169 14.6021 19.5685 14.4772 19.675C14.3523 19.7816 14.1904 19.8345 14.0267 19.8222C13.4045 19.8222 13.2978 19.0311 13.2978 19.0311C13.2978 19.0311 13.2534 18.1422 13.9734 18.1422C14.1001 18.1274 14.2285 18.1449 14.3466 18.193C14.4647 18.2412 14.5687 18.3185 14.6489 18.4178Z" fill="#FF0000"/>
<path fill-rule="evenodd" clip-rule="evenodd" d="M9.28857 14.4089V11.6533H10.4264C10.5485 11.653 10.6694 11.6779 10.7815 11.7264C10.8936 11.7749 10.9945 11.846 11.078 11.9353C11.1614 12.0245 11.2255 12.13 11.2663 12.2451C11.3071 12.3603 11.3238 12.4826 11.3152 12.6044C11.3152 13.4933 10.5775 13.5378 10.5775 13.5378H9.96413V14.4267L9.28857 14.4089ZM9.97302 12.2667V12.8978C9.97302 12.8978 10.5597 13.0044 10.5419 12.5689C10.5241 12.1333 9.97302 12.2667 9.97302 12.2667Z" fill="#FF0000"/>
<path fill-rule="evenodd" clip-rule="evenodd" d="M13.0663 11.6356C13.3339 11.6597 13.5888 11.7611 13.7999 11.9273C14.011 12.0936 14.1692 12.3176 14.2553 12.5722C14.3415 12.8267 14.3518 13.1008 14.285 13.3611C14.2183 13.6214 14.0774 13.8567 13.8794 14.0384C13.6814 14.22 13.4349 14.3403 13.1698 14.3845C12.9048 14.4286 12.6326 14.3949 12.3864 14.2872C12.1402 14.1796 11.9305 14.0027 11.783 13.7781C11.6354 13.5536 11.5563 13.291 11.5552 13.0223C11.562 12.8316 11.6067 12.6441 11.6866 12.4708C11.7665 12.2975 11.88 12.1418 12.0206 12.0128C12.1612 11.8838 12.3261 11.784 12.5056 11.7192C12.6851 11.6545 12.8757 11.626 13.0663 11.6356ZM13.0663 12.1867C13.259 12.2215 13.4333 12.323 13.5589 12.4732C13.6844 12.6235 13.7532 12.8131 13.7532 13.0089C13.7532 13.2047 13.6844 13.3943 13.5589 13.5446C13.4333 13.6949 13.259 13.7963 13.0663 13.8311C12.863 13.81 12.6747 13.7142 12.5378 13.5624C12.401 13.4105 12.3252 13.2133 12.3252 13.0089C12.3252 12.8045 12.401 12.6073 12.5378 12.4555C12.6747 12.3036 12.863 12.2079 13.0663 12.1867Z" fill="#FF0000"/>
<path d="M5.74217 8.45336H5.67106C5.2355 8.8978 5.18217 8.98669 5.16439 9.34225L5.74217 8.50669M10.4444 10.0178C10.1333 10.0711 10.0177 10.3022 9.85772 10.4978C9.69772 10.6934 9.5555 10.8711 9.38661 11.0489C9.29279 11.1121 9.19121 11.1629 9.08439 11.2C9.18428 10.9303 9.35279 10.6913 9.57328 10.5067C9.74871 10.2991 9.86262 10.0467 9.90217 9.7778L9.54661 10.0534C9.26217 10.2578 9.20884 10.24 9.0755 9.92891C8.93328 9.98225 8.78217 10.08 8.65772 10.0622C8.53328 10.0445 8.46217 9.89336 8.3555 9.79558C8.01772 9.86669 7.92884 10.2311 7.51995 10.2934C7.57328 10.0622 7.62661 9.87558 7.68883 9.62669C7.51995 9.76002 7.42217 9.84891 7.30661 9.92891C7.02217 10.1422 6.92439 10.1245 6.69328 9.80447C6.60156 9.88622 6.50348 9.96053 6.39995 10.0267L6.08884 10.1689C5.92884 10.2311 5.96439 9.8578 5.7155 10.0534C5.65328 10.1067 5.43995 10.0534 5.25328 9.99113C5.18378 10.0696 5.10957 10.1439 5.03106 10.2134C4.97772 10.2667 4.86217 10.3378 4.82661 10.32C4.75671 10.2666 4.70163 10.1963 4.66661 10.1156C4.65812 10.0686 4.65812 10.0204 4.66661 9.97336H4.44439C4.44106 9.94085 4.44106 9.90809 4.44439 9.87558C4.61994 9.73594 4.74991 9.54717 4.81772 9.33336C4.9806 9.02652 5.16166 8.7297 5.35995 8.44447C5.44247 8.35095 5.53831 8.27008 5.64439 8.20447C5.70753 8.18136 5.77681 8.18136 5.83995 8.20447C5.88439 8.2578 5.92884 8.34669 5.90217 8.40002C5.73328 8.69336 5.5555 8.98669 5.36884 9.28891C5.29772 9.39558 5.17328 9.48447 5.10217 9.59113C5.02796 9.73515 4.96266 9.88357 4.90661 10.0356H4.9955L5.25328 9.66225C5.3955 9.47558 5.44884 9.47558 5.56439 9.66225L5.68884 9.84002C6.1955 9.65336 6.46217 9.17336 7.10217 9.03113C6.85328 9.36891 6.52439 9.5378 6.26661 9.83113C6.56884 9.76891 6.69328 9.52891 6.95106 9.4578L7.11106 9.7778C7.50217 9.65336 7.59995 9.25336 7.99995 9.16447C8.21328 9.36002 7.99995 9.52891 7.99995 9.6978V9.65336C8.09772 9.59113 8.20439 9.5378 8.30217 9.46669C8.54217 9.30669 8.60439 9.31558 8.7555 9.56447L8.79995 9.7778L9.4755 9.31558C9.4755 9.5378 9.43106 9.66225 9.41328 9.84891C9.75106 9.70669 9.90217 9.40447 10.2222 9.25336C10.3911 9.47558 10.1066 9.67113 10.2222 9.86669L11.2444 9.14669C11.2966 9.09092 11.3646 9.05249 11.4393 9.0366C11.514 9.0207 11.5918 9.0281 11.6622 9.0578L10.8711 9.74225L10.9244 9.79558L11.5555 9.38669L11.6711 9.79558L12.0622 9.6178C11.8844 9.87558 11.7244 10.0267 11.6088 9.99113C11.4813 9.93262 11.3618 9.85793 11.2533 9.76891L10.8622 10.0356C10.6933 10.1422 10.5599 10.1156 10.4799 9.94669" fill="black"/>
<path d="M13.102 9.77787C13.2094 9.73714 13.3056 9.67163 13.3828 9.58667C13.46 9.50172 13.5161 9.39971 13.5464 9.28898L13.4576 9.24453L13.1109 9.78676M12.4976 9.94676C12.4976 9.94676 12.4976 9.85787 12.4976 9.8312C12.5892 9.74664 12.6872 9.66936 12.7909 9.60009C13.2087 9.25342 13.6798 8.96898 13.8753 8.44453C13.9012 8.36708 13.9468 8.29768 14.0075 8.24314C14.0683 8.1886 14.1422 8.15079 14.222 8.13342C14.2039 8.44532 14.1158 8.74913 13.9642 9.02231C13.8926 9.19478 13.8505 9.37809 13.8398 9.56453C13.8452 9.61559 13.8636 9.66442 13.8931 9.70641C13.9227 9.7484 13.9624 9.78217 14.0087 9.80453C14.0531 9.80453 14.1776 9.7512 14.2664 9.71565L14.6398 9.48453L14.8264 9.84009L14.9153 9.92898L15.3687 9.66231C15.3323 9.77945 15.268 9.88599 15.1813 9.97272C15.0946 10.0594 14.988 10.1238 14.8709 10.1601C14.7907 10.1635 14.7119 10.1383 14.6487 10.089C14.5736 10.0088 14.5052 9.92257 14.4442 9.8312C14.2576 9.9112 14.0887 10.0534 13.9109 10.0534C13.7331 10.0534 13.6264 9.87565 13.4576 9.7512C13.2442 9.88453 13.1287 10.2134 12.7376 10.249L12.6664 9.96453L12.4976 9.94676Z" fill="black"/>
<path d="M14.9242 8.57777C14.9311 8.61786 14.9287 8.65901 14.9173 8.69805C14.9058 8.7371 14.8856 8.77301 14.8582 8.80303C14.8307 8.83306 14.7968 8.85641 14.7589 8.87129C14.721 8.88617 14.6803 8.89218 14.6397 8.88888C14.6397 8.88888 14.5508 8.84444 14.5597 8.81777C14.5597 8.6311 14.7108 8.56888 14.8886 8.53333" fill="black"/>
<path fill-rule="evenodd" clip-rule="evenodd" d="M4.15088 11.6533V14.4089H5.55532C5.84442 14.3525 6.10574 14.1995 6.29635 13.975C6.48697 13.7504 6.59553 13.4677 6.60421 13.1733C6.60421 11.7422 5.46643 11.68 5.46643 11.68L4.15088 11.6533ZM4.92421 12.3467V13.7955C4.92421 13.7955 5.86643 13.9289 5.8131 13.0311C5.75977 12.1333 4.92421 12.3467 4.92421 12.3467Z" fill="#FF0000"/>
<path fill-rule="evenodd" clip-rule="evenodd" d="M7.11084 11.6356V14.3823H8.7464V13.8667H7.79528V13.3778H8.68417V12.7378H7.79528V12.249H8.73751V11.6534L7.11084 11.6356Z" fill="#FF0000"/>
<path fill-rule="evenodd" clip-rule="evenodd" d="M4.15088 17.5555V20.2933H5.67977C5.85595 20.263 6.01644 20.1733 6.1345 20.039C6.25257 19.9048 6.32109 19.7342 6.32866 19.5555C6.33859 19.4732 6.33222 19.3898 6.30989 19.31C6.28757 19.2301 6.24974 19.1555 6.19857 19.0903C6.14739 19.0251 6.08387 18.9706 6.01163 18.9299C5.93939 18.8893 5.85985 18.8632 5.77755 18.8533C5.77755 18.8533 6.17755 18.8533 6.14199 18.1244C6.14199 17.6355 5.37755 17.5822 5.37755 17.5822L4.15088 17.5555ZM4.87977 19.1289V19.7244C4.87977 19.7244 5.53755 19.8667 5.58199 19.44C5.62643 19.0133 4.87977 19.1289 4.87977 19.1289ZM4.87977 18.0978V18.6667C4.87977 18.6667 5.44866 18.7822 5.48421 18.4089C5.51977 18.0355 4.87977 18.0978 4.87977 18.0978Z" fill="#FF0000"/>
<path fill-rule="evenodd" clip-rule="evenodd" d="M6.49756 20.2934L7.33311 17.5378H8.222L9.17311 20.2934H8.50645L8.35534 19.8756H7.262L7.19089 20.2934H6.49756ZM7.44867 19.2534H8.15089L7.81311 18.0623L7.44867 19.2534Z" fill="#FF0000"/>
<path fill-rule="evenodd" clip-rule="evenodd" d="M21.8398 20.2934L22.6754 17.5378H23.5643L24.5154 20.2934H23.8132L23.671 19.8756H22.6132L22.5332 20.2934H21.8398ZM22.791 19.2534H23.4932L23.1554 18.0623L22.791 19.2534Z" fill="#FF0000"/>
<path fill-rule="evenodd" clip-rule="evenodd" d="M9.50195 20.2934V17.5468H10.1242L11.4308 19.3245V17.5468H12.062V20.3023H11.4486L10.1953 18.6668V20.2934H9.50195Z" fill="#FF0000"/>
<path fill-rule="evenodd" clip-rule="evenodd" d="M18.9062 20.2934V17.5468H19.5551L20.8618 19.3245V17.5468H21.484V20.3023H20.8796L19.5551 18.6668V20.2934H18.9062Z" fill="#FF0000"/>
<path fill-rule="evenodd" clip-rule="evenodd" d="M24.8887 20.2934V17.5468H25.5109L26.8176 19.3245V17.5468H27.4398V20.3023H26.8353L25.5642 18.6668V20.2934H24.8887Z" fill="#FF0000"/>
<path fill-rule="evenodd" clip-rule="evenodd" d="M4.15088 16.4444H17.4042V12.2933H16.2398L20.542 7.84888L24.942 12.24H23.502V16.3378H27.5553V17.1022H4.15088V16.4444Z" fill="#FF0000"/>
<path d="M20.5241 12.2933H19.2886V13.5289H20.5241V12.2933Z" fill="#FFF200"/>
<path d="M20.5241 13.7423H19.2886V14.9779H20.5241V13.7423Z" fill="#FFF200"/>
<path d="M22.0266 12.2933H20.791V13.5289H22.0266V12.2933Z" fill="#FFF200"/>
<path d="M22.0266 13.7423H20.791V14.9779H22.0266V13.7423Z" fill="#FFF200"/>
</g>
<defs>
<clipPath id="clip0_2707_349653">
<rect width="32" height="32" fill="white"/>
</clipPath>
</defs>
</svg>
