<svg width="32" height="32" viewBox="0 0 32 32" fill="none" xmlns="http://www.w3.org/2000/svg">
<g clip-path="url(#clip0_2707_349433)">
<path d="M15.9998 31.9823C24.8265 31.9823 31.982 24.8268 31.982 16C31.982 7.17331 24.8265 0.0178223 15.9998 0.0178223C7.17306 0.0178223 0.0175781 7.17331 0.0175781 16C0.0175781 24.8268 7.17306 31.9823 15.9998 31.9823Z" fill="white"/>
<path d="M3.04883 13.5734H4.44438C4.58745 13.5733 4.72923 13.6005 4.86216 13.6534C5.05089 13.7219 5.21708 13.8412 5.34252 13.998C5.46796 14.1548 5.5478 14.3431 5.57327 14.5423C5.58238 14.6903 5.58238 14.8387 5.57327 14.9867C5.57327 15.2356 5.57327 15.4845 5.57327 15.7334C5.56469 15.8988 5.53786 16.0627 5.49327 16.2223C5.43349 16.4333 5.3101 16.6208 5.1399 16.7592C4.9697 16.8976 4.76098 16.9801 4.54216 16.9956C4.39728 17.0089 4.25149 17.0089 4.10661 16.9956C3.79549 16.9956 3.49327 16.9956 3.21772 16.9956H3.04883V13.5734ZM3.72438 14.16V16.4267C3.94011 16.4489 4.15754 16.4489 4.37327 16.4267C4.50484 16.4122 4.62703 16.3516 4.71815 16.2556C4.80927 16.1596 4.86344 16.0344 4.87105 15.9023C4.90658 15.4971 4.90658 15.0896 4.87105 14.6845C4.85327 14.574 4.8033 14.4712 4.72741 14.389C4.65152 14.3068 4.55307 14.2488 4.44438 14.2223C4.207 14.178 3.96584 14.1572 3.72438 14.16Z" fill="#58585A"/>
<path d="M10.6663 17.0489H10.0352V14.5067H10.6663V14.7022C10.7544 14.6149 10.8599 14.547 10.9759 14.5029C11.0919 14.4587 11.2159 14.4394 11.3398 14.4461C11.4637 14.4528 11.5849 14.4854 11.6955 14.5417C11.806 14.5981 11.9036 14.677 11.9818 14.7733L12.044 14.7289C12.1921 14.5913 12.3782 14.5016 12.578 14.4715C12.7778 14.4414 12.982 14.4722 13.164 14.56C13.2837 14.6106 13.3882 14.6911 13.4676 14.7939C13.547 14.8967 13.5986 15.0182 13.6174 15.1467C13.6261 15.2294 13.6261 15.3128 13.6174 15.3955V17.0489H12.9952C12.9952 17.0044 12.9952 16.96 12.9952 16.9155V15.5378C12.9995 15.4727 12.9995 15.4073 12.9952 15.3422C12.9742 15.2514 12.9215 15.171 12.8465 15.1156C12.7716 15.0602 12.6793 15.0334 12.5863 15.04C12.4918 15.0344 12.3986 15.064 12.3247 15.1231C12.2508 15.1822 12.2015 15.2666 12.1863 15.36C12.177 15.4189 12.177 15.4789 12.1863 15.5378V17.0489H11.5552V15.5555C11.5595 15.4934 11.5595 15.431 11.5552 15.3689C11.5355 15.275 11.4841 15.1908 11.4096 15.1303C11.3352 15.0698 11.2422 15.0368 11.1463 15.0368C11.0504 15.0368 10.9574 15.0698 10.8829 15.1303C10.8084 15.1908 10.7571 15.275 10.7374 15.3689C10.729 15.4278 10.729 15.4877 10.7374 15.5467V17.04L10.6663 17.0489Z" fill="#58585A"/>
<path d="M26.24 14.5067H26.88L26.1155 17.0312H25.6C25.4933 16.7734 25.4222 16.5067 25.3333 16.2489C25.2444 15.9912 25.1644 15.7334 25.0667 15.4756C24.8978 15.9912 24.7289 16.5067 24.5511 17.0312C24.3794 17.04 24.2073 17.04 24.0355 17.0312L23.2622 14.5156H23.9111L24.32 16.0712C24.3458 16.0472 24.3643 16.0163 24.3733 15.9823C24.5333 15.52 24.6844 15.0934 24.8355 14.5956C24.8322 14.569 24.8322 14.5422 24.8355 14.5156H25.28C25.4489 15.0312 25.6267 15.5378 25.8044 16.0712C25.8044 16.0712 25.8044 16.0712 25.8044 16C25.9289 15.5378 26.0533 15.1112 26.1689 14.6223C26.1894 14.5819 26.2132 14.5432 26.24 14.5067Z" fill="url(#paint0_linear_2707_349433)"/>
<path d="M15.2265 15.5379C15.2576 15.4335 15.2576 15.3223 15.2265 15.2179C15.2089 15.1717 15.1803 15.1305 15.1431 15.098C15.1059 15.0654 15.0613 15.0425 15.0132 15.0312C14.8837 15.009 14.7515 15.009 14.6221 15.0312C14.5218 15.0479 14.4289 15.0944 14.3554 15.1645L14.2843 15.2268L13.9109 14.8179C14.0367 14.6596 14.2177 14.5548 14.4176 14.5245C14.6872 14.4669 14.9658 14.4669 15.2354 14.5245C15.4253 14.5549 15.5974 14.6542 15.7187 14.8034C15.84 14.9526 15.9021 15.1413 15.8932 15.3334V17.0579H15.2887C15.2887 16.9957 15.2887 16.9334 15.2887 16.8534L15.1998 16.889C15.0593 16.9954 14.8929 17.0623 14.7178 17.0826C14.5427 17.1029 14.3654 17.076 14.2043 17.0045C14.1005 16.9666 14.0083 16.9025 13.9366 16.8184C13.865 16.7343 13.8163 16.633 13.7954 16.5245C13.7342 16.3306 13.7502 16.1205 13.8398 15.9379C13.901 15.8188 13.9941 15.7192 14.1087 15.6501C14.2233 15.581 14.3549 15.5452 14.4887 15.5468H15.2265V15.5379ZM15.2265 15.9823H15.1109C14.9598 15.9823 14.8087 15.9823 14.6487 15.9823C14.5964 15.9839 14.5459 16.0019 14.5044 16.0338C14.4629 16.0657 14.4325 16.1099 14.4176 16.1601C14.4002 16.2016 14.3932 16.2467 14.3972 16.2915C14.4013 16.3363 14.4162 16.3795 14.4408 16.4172C14.4653 16.4549 14.4987 16.486 14.5381 16.5078C14.5774 16.5296 14.6215 16.5415 14.6665 16.5423C14.7575 16.5601 14.8511 16.5601 14.9421 16.5423C15.0172 16.5376 15.0886 16.508 15.145 16.4581C15.2014 16.4081 15.2394 16.3408 15.2532 16.2668C15.2532 16.1779 15.2532 16.089 15.2532 15.9823H15.2265Z" fill="#58585A"/>
<path d="M7.79538 17.0489H7.19094V16.8889H7.11094C7.01578 16.9654 6.9059 17.0214 6.78815 17.0535C6.67039 17.0856 6.54728 17.0931 6.42649 17.0756H6.2576C6.11392 17.0503 5.98209 16.9797 5.88135 16.8741C5.78061 16.7686 5.71623 16.6336 5.6976 16.4889C5.67077 16.3973 5.66267 16.3012 5.67377 16.2063C5.68488 16.1115 5.71497 16.0199 5.76226 15.9369C5.80954 15.854 5.87305 15.7814 5.94899 15.7235C6.02493 15.6656 6.11175 15.6236 6.20427 15.6C6.31054 15.5869 6.41801 15.5869 6.52427 15.6H7.11094C7.13768 15.4981 7.13768 15.3909 7.11094 15.2889C7.09532 15.2407 7.06746 15.1973 7.03007 15.163C6.99268 15.1287 6.94704 15.1047 6.8976 15.0934C6.74439 15.0444 6.57971 15.0444 6.42649 15.0934C6.3331 15.1388 6.24387 15.1923 6.15983 15.2534L5.96427 15.0756L5.76872 14.88C5.8733 14.7138 6.03421 14.5907 6.22205 14.5334C6.5713 14.4181 6.94835 14.4181 7.2976 14.5334C7.44456 14.5832 7.57233 14.6777 7.66313 14.8035C7.75393 14.9294 7.80327 15.0804 7.80427 15.2356C7.80427 15.4667 7.80427 15.6978 7.80427 15.92V17.0223L7.79538 17.0489ZM7.15538 16H6.55094C6.49826 16.0057 6.4486 16.0274 6.40872 16.0623C6.36216 16.0955 6.32752 16.1428 6.30992 16.1972C6.29231 16.2516 6.29267 16.3103 6.31094 16.3645C6.32298 16.4194 6.35325 16.4686 6.39683 16.5041C6.44041 16.5396 6.49473 16.5593 6.55094 16.56C6.65094 16.5773 6.75316 16.5773 6.85316 16.56C6.93128 16.5539 7.00465 16.5201 7.06006 16.4647C7.11546 16.4093 7.14927 16.3359 7.15538 16.2578C7.16431 16.1721 7.16431 16.0857 7.15538 16Z" fill="#58585A"/>
<path d="M27.3599 15.1912L26.9688 14.8267C27.0695 14.6928 27.2093 14.5934 27.3688 14.5423C27.6079 14.4698 27.8606 14.4545 28.1066 14.4978C28.2443 14.5092 28.3792 14.5422 28.5066 14.5956C28.6283 14.6497 28.7326 14.7365 28.808 14.8464C28.8833 14.9562 28.9267 15.0848 28.9333 15.2178C28.9333 15.3156 28.9333 15.4134 28.9333 15.5023V17.0134C28.736 17.0451 28.535 17.0451 28.3377 17.0134C28.3409 16.9512 28.3409 16.8889 28.3377 16.8267L28.2577 16.8801C28.1349 16.9951 27.9727 17.0588 27.8044 17.0578C27.6684 17.0714 27.5315 17.0714 27.3955 17.0578C27.2507 17.0238 27.1206 16.9441 27.0246 16.8304C26.9285 16.7168 26.8716 16.5752 26.8622 16.4267C26.8487 16.3324 26.8487 16.2366 26.8622 16.1423C26.8927 16.0043 26.9642 15.8786 27.0673 15.7819C27.1704 15.6852 27.3003 15.6218 27.4399 15.6001C27.6768 15.5865 27.9142 15.5865 28.1511 15.6001H28.3022C28.3333 15.4957 28.3333 15.3845 28.3022 15.2801C28.2816 15.2085 28.2337 15.1478 28.1688 15.1112C28.0653 15.0544 27.9491 15.0246 27.8311 15.0246C27.713 15.0246 27.5968 15.0544 27.4933 15.1112L27.3599 15.1912ZM28.3199 15.9734H27.8044C27.7574 15.9641 27.7091 15.9641 27.6622 15.9734C27.6003 15.9877 27.5453 16.023 27.5064 16.0732C27.4675 16.1234 27.4472 16.1855 27.4488 16.249C27.4503 16.3117 27.4718 16.3723 27.5102 16.4218C27.5485 16.4714 27.6018 16.5074 27.6622 16.5245C27.7986 16.5643 27.9435 16.5643 28.0799 16.5245C28.1426 16.5103 28.1993 16.477 28.2423 16.4293C28.2852 16.3815 28.3124 16.3216 28.3199 16.2578C28.3268 16.1721 28.3268 16.0859 28.3199 16.0001V15.9734Z" fill="url(#paint1_linear_2707_349433)"/>
<path d="M20.9776 16.0001H19.3953C19.3855 16.05 19.3855 16.1013 19.3953 16.1512C19.4148 16.2752 19.4787 16.3878 19.5753 16.468C19.6718 16.5482 19.7943 16.5904 19.9198 16.5868C20.0142 16.597 20.1096 16.5873 20.2 16.5582C20.2904 16.5291 20.3736 16.4813 20.4442 16.4179L20.5064 16.3734L20.8709 16.7201C20.755 16.8536 20.6086 16.9572 20.4442 17.0223C20.0958 17.16 19.7082 17.16 19.3598 17.0223C19.2221 16.9697 19.0996 16.8837 19.0034 16.7719C18.9072 16.6602 18.8402 16.5263 18.8087 16.3823C18.7109 16.0305 18.7109 15.6586 18.8087 15.3068C18.8536 15.1149 18.9544 14.9407 19.0984 14.8062C19.2424 14.6717 19.4231 14.583 19.6176 14.5512C19.9091 14.4911 20.2126 14.5486 20.462 14.7112C20.6435 14.8297 20.781 15.0046 20.8531 15.209C20.906 15.3419 20.9332 15.4837 20.9331 15.6268L20.9776 16.0001ZM20.3642 15.5734C20.3791 15.4806 20.3665 15.3854 20.3277 15.2997C20.289 15.214 20.226 15.1415 20.1464 15.0913C20.0669 15.0412 19.9744 15.0154 19.8804 15.0174C19.7863 15.0193 19.6949 15.0489 19.6176 15.1023C19.5439 15.1559 19.485 15.2271 19.4462 15.3094C19.4073 15.3918 19.3899 15.4826 19.3953 15.5734H20.3642Z" fill="url(#paint2_linear_2707_349433)"/>
<path d="M21.7509 14.5067C21.7509 14.5867 21.7509 14.6578 21.7509 14.7289C21.8425 14.6674 21.9375 14.611 22.0354 14.56C22.1797 14.4976 22.338 14.4745 22.4942 14.4933C22.6504 14.512 22.7988 14.5718 22.9242 14.6667C23.0161 14.7403 23.0902 14.8336 23.141 14.9398C23.1918 15.046 23.218 15.1623 23.2176 15.28C23.2176 15.8489 23.2176 16.4089 23.2176 16.9689C23.2176 16.9689 23.2176 17.0133 23.2176 17.0311H22.6665C22.6665 16.9778 22.6665 16.9333 22.6665 16.8978V15.6C22.6709 15.523 22.6709 15.4459 22.6665 15.3689C22.6515 15.2739 22.6029 15.1875 22.5294 15.1255C22.4559 15.0635 22.3626 15.03 22.2665 15.0311C22.1686 15.022 22.0707 15.0484 21.9907 15.1055C21.9107 15.1626 21.854 15.2467 21.8309 15.3422C21.8224 15.4101 21.8224 15.4788 21.8309 15.5467V17.0133C21.6333 17.0403 21.433 17.0403 21.2354 17.0133C21.2354 16.9156 21.2354 14.6222 21.2354 14.4978L21.7509 14.5067Z" fill="url(#paint3_linear_2707_349433)"/>
<path d="M17.3508 15.5645L17.493 15.4312L17.6441 15.3068L17.333 14.9957H17.8486C17.8486 14.8712 17.8486 14.7557 17.8486 14.6401V13.6001H18.5241V16.5779C18.5262 16.6372 18.5144 16.6962 18.4898 16.7502C18.4651 16.8042 18.4281 16.8517 18.3819 16.889C18.2292 17.0076 18.0419 17.0731 17.8486 17.0757C17.8486 16.9068 17.8486 16.7468 17.8486 16.5868V15.6001C17.6886 15.6001 17.5286 15.6001 17.3686 15.6001L17.3508 15.5645Z" fill="#58585A"/>
<path d="M16.7733 13.6445V14.9779C16.848 15.0043 16.9296 15.0043 17.0044 14.9779C17.0515 14.9727 17.0992 14.9798 17.1428 14.9985C17.1864 15.0172 17.2245 15.0468 17.2533 15.0845L17.4221 15.2623L17.0933 15.5645H16.791C16.7777 15.6827 16.7777 15.8019 16.791 15.9201V16.9868C16.5756 17.0144 16.3576 17.0144 16.1421 16.9868C16.1378 16.9513 16.1378 16.9155 16.1421 16.8801V14.0623C16.133 14.0124 16.133 13.9612 16.1421 13.9112C16.2105 13.8107 16.3064 13.7321 16.4184 13.6848C16.5303 13.6375 16.6536 13.6235 16.7733 13.6445Z" fill="url(#paint4_linear_2707_349433)"/>
<path d="M8.65778 17.049H8V14.5067H8.61333V14.7201C8.71589 14.619 8.84148 14.5443 8.97929 14.5025C9.1171 14.4607 9.263 14.453 9.40444 14.4801C9.57356 14.4995 9.72912 14.582 9.84 14.7112L9.36889 15.1823L9.34222 15.1112C9.269 15.0529 9.17801 15.0216 9.08444 15.0223C8.98272 15.0196 8.8838 15.0559 8.80784 15.1236C8.73187 15.1913 8.68457 15.2854 8.67556 15.3867C8.67117 15.4489 8.67117 15.5113 8.67556 15.5734V17.0312L8.65778 17.049Z" fill="#58585A"/>
<path d="M24.1596 18.3645C24.2041 18.3023 24.2396 18.3645 24.2752 18.3645C24.2939 18.3716 24.3138 18.3749 24.3337 18.3743C24.3537 18.3737 24.3733 18.3691 24.3915 18.3608C24.4097 18.3526 24.4261 18.3408 24.4397 18.3262C24.4533 18.3115 24.4638 18.2943 24.4708 18.2756C24.4708 18.2312 24.4708 18.1956 24.4708 18.1512H24.3819C24.3564 18.1625 24.3285 18.1677 24.3007 18.1663C24.2728 18.1649 24.2456 18.1569 24.2214 18.1431C24.1972 18.1292 24.1765 18.1099 24.1612 18.0866C24.1458 18.0633 24.1362 18.0367 24.133 18.0089C24.1152 17.9269 24.1152 17.842 24.133 17.76C24.133 17.6089 24.2841 17.5734 24.453 17.6445H24.5419C24.5468 17.6649 24.5468 17.6863 24.5419 17.7067V18.2134C24.5452 18.2585 24.5351 18.3037 24.513 18.3432C24.4909 18.3827 24.4577 18.4148 24.4174 18.4356C24.372 18.4466 24.3244 18.4458 24.2793 18.4334C24.2342 18.421 24.193 18.3972 24.1596 18.3645ZM24.4796 17.9023C24.4796 17.9023 24.4796 17.84 24.4796 17.8045C24.4756 17.7761 24.4619 17.75 24.4409 17.7306C24.4198 17.7112 24.3927 17.6996 24.3641 17.6978C24.3494 17.6939 24.3341 17.6931 24.3192 17.6956C24.3042 17.6981 24.2899 17.7037 24.2773 17.7121C24.2647 17.7205 24.254 17.7315 24.246 17.7444C24.238 17.7572 24.2328 17.7717 24.2308 17.7867C24.2042 17.8584 24.2042 17.9372 24.2308 18.0089C24.2308 18.0419 24.2439 18.0736 24.2672 18.0969C24.2905 18.1203 24.3222 18.1334 24.3552 18.1334C24.3882 18.1334 24.4199 18.1203 24.4432 18.0969C24.4665 18.0736 24.4796 18.0419 24.4796 18.0089C24.4836 17.9794 24.4836 17.9495 24.4796 17.92V17.9023Z" fill="#58585A"/>
<path d="M21.7953 17.6978L21.9019 17.6356H21.9819C22.007 17.6275 22.0336 17.6249 22.0597 17.6279C22.0859 17.6309 22.1112 17.6394 22.1339 17.6528C22.1565 17.6662 22.1761 17.6843 22.1913 17.7059C22.2065 17.7274 22.2169 17.7519 22.2219 17.7778C22.2219 17.8844 22.2219 17.9911 22.2219 18.1067C22.2219 18.2222 22.2219 18.1067 22.2219 18.1511H22.1686V17.92C22.173 17.8786 22.173 17.8369 22.1686 17.7956C22.1686 17.7649 22.1564 17.7355 22.1348 17.7138C22.1131 17.6922 22.0837 17.68 22.053 17.68C22.0192 17.6799 21.9865 17.6927 21.9618 17.7159C21.937 17.739 21.922 17.7706 21.9197 17.8044V18.1511H21.8486C21.8486 18.1067 21.8486 18.0622 21.8486 18.0089C21.853 17.9378 21.853 17.8666 21.8486 17.7956C21.8486 17.7602 21.8346 17.7263 21.8095 17.7013C21.7845 17.6763 21.7506 17.6622 21.7153 17.6622C21.6815 17.6645 21.6498 17.6795 21.6267 17.7043C21.6036 17.729 21.5907 17.7617 21.5908 17.7956C21.5819 17.8545 21.5819 17.9144 21.5908 17.9733C21.5951 18.0236 21.5951 18.0742 21.5908 18.1244C21.5908 18.1244 21.5908 18.1244 21.5908 18.1689C21.5583 17.9836 21.5583 17.7941 21.5908 17.6089H21.6886C21.7327 17.6264 21.7701 17.6575 21.7953 17.6978Z" fill="#58585A"/>
<path d="M18.2842 18.1423H18.1953H18.1331C18.0894 18.1406 18.0477 18.1237 18.0152 18.0945C17.9827 18.0653 17.9615 18.0255 17.9553 17.9823C17.942 17.9088 17.942 17.8335 17.9553 17.7601C17.956 17.7281 17.9649 17.6968 17.9812 17.6693C17.9975 17.6417 18.0205 17.6188 18.0482 17.6028C18.0759 17.5867 18.1072 17.578 18.1392 17.5775C18.1712 17.5771 18.2027 17.5848 18.2309 17.6001H18.2753H18.3553C18.3601 17.6145 18.3601 17.6301 18.3553 17.6445V18.1956C18.3592 18.2363 18.3489 18.2771 18.3263 18.3111C18.3036 18.3451 18.2699 18.3702 18.2309 18.3823C18.1877 18.4052 18.1382 18.4133 18.09 18.4053C18.0418 18.3972 17.9976 18.3735 17.9642 18.3378C17.9642 18.3378 17.9642 18.2934 18.0264 18.3378C18.07 18.35 18.1161 18.35 18.1598 18.3378C18.2575 18.3467 18.2931 18.2756 18.2842 18.1423ZM18.2842 17.9023C18.2842 17.9023 18.2842 17.8312 18.2842 17.7956C18.2767 17.7672 18.2599 17.742 18.2366 17.7241C18.2133 17.7062 18.1847 17.6964 18.1553 17.6964C18.1259 17.6964 18.0973 17.7062 18.074 17.7241C18.0507 17.742 18.034 17.7672 18.0264 17.7956C18.0175 17.8635 18.0175 17.9322 18.0264 18.0001C18.0309 18.0315 18.0471 18.06 18.0719 18.0799C18.0967 18.0997 18.1281 18.1093 18.1598 18.1067C18.1886 18.1074 18.2168 18.098 18.2395 18.0802C18.2622 18.0623 18.278 18.0372 18.2842 18.009C18.2842 18.009 18.2931 17.9378 18.2931 17.9023H18.2842Z" fill="#58585A"/>
<path d="M20.8443 17.6623C20.8443 17.5645 20.8443 17.4578 20.9065 17.3867C20.9287 17.6529 20.9287 17.9205 20.9065 18.1867H20.8087H20.7554C20.6132 18.1867 20.5154 18.1867 20.4976 18.0178C20.48 17.9478 20.48 17.8745 20.4976 17.8045C20.4991 17.7737 20.508 17.7438 20.5238 17.7174C20.5396 17.691 20.5617 17.6688 20.5881 17.653C20.6145 17.6372 20.6444 17.6281 20.6751 17.6266C20.7059 17.6251 20.7365 17.6313 20.7643 17.6445L20.8443 17.6623ZM20.5776 17.9023C20.582 17.9377 20.582 17.9735 20.5776 18.0089C20.5817 18.0373 20.5954 18.0634 20.6164 18.0828C20.6375 18.1023 20.6646 18.1138 20.6932 18.1156C20.7205 18.1143 20.7467 18.104 20.7675 18.0863C20.7884 18.0686 20.8029 18.0446 20.8087 18.0178C20.8176 17.9411 20.8176 17.8635 20.8087 17.7867C20.8044 17.76 20.79 17.736 20.7685 17.7195C20.7471 17.7029 20.7201 17.6952 20.6932 17.6978C20.6616 17.6953 20.6301 17.7049 20.6053 17.7247C20.5806 17.7445 20.5643 17.7731 20.5599 17.8045C20.5698 17.8362 20.5758 17.8691 20.5776 17.9023Z" fill="#58585A"/>
<path d="M19.404 18.169H19.1907H19.1107C19.0722 18.1645 19.0369 18.1454 19.0121 18.1156C18.9873 18.0858 18.9748 18.0476 18.9774 18.0089C18.9764 17.9767 18.9864 17.945 19.0057 17.9191C19.0251 17.8933 19.0527 17.8748 19.084 17.8667H19.2263H19.3063C19.3244 17.8457 19.3344 17.8189 19.3344 17.7912C19.3344 17.7634 19.3244 17.7366 19.3063 17.7156C19.2529 17.7156 19.1729 17.7156 19.0574 17.7156C19.0982 17.6707 19.1535 17.6416 19.2137 17.6334C19.2739 17.6253 19.335 17.6387 19.3863 17.6712C19.4197 17.6976 19.442 17.7357 19.4485 17.7778C19.4465 17.9093 19.4316 18.0403 19.404 18.169ZM19.3063 17.9378H19.1196C19.1014 17.9398 19.0844 17.9479 19.0715 17.9608C19.0585 17.9738 19.0504 17.9908 19.0485 18.0089C19.0557 18.0413 19.0747 18.0698 19.1018 18.089C19.1288 18.1046 19.1595 18.1128 19.1907 18.1128C19.2219 18.1128 19.2526 18.1046 19.2796 18.089C19.3329 18.0534 19.3329 18.0001 19.3063 17.9378Z" fill="#58585A"/>
<path d="M20.3732 17.9289H20.0088C20.0088 18.1156 20.1243 18.16 20.3021 18.0711C20.2675 18.1046 20.2243 18.1281 20.1774 18.1391C20.1304 18.15 20.0814 18.1481 20.0355 18.1333C19.9947 18.125 19.9581 18.1027 19.9322 18.0702C19.9062 18.0377 19.8924 17.9972 19.8932 17.9556C19.88 17.8851 19.88 17.8127 19.8932 17.7422C19.9064 17.6982 19.9333 17.6596 19.9702 17.6321C20.007 17.6047 20.0517 17.5898 20.0977 17.5898C20.1436 17.5898 20.1883 17.6047 20.2252 17.6321C20.262 17.6596 20.289 17.6982 20.3021 17.7422L20.3732 17.9289ZM20.2755 17.8578C20.2755 17.7333 20.2221 17.6889 20.1332 17.6978C20.0443 17.7067 20.0088 17.7511 20.0088 17.8578H20.2755Z" fill="#58585A"/>
<path d="M17.7774 17.9289H17.4307C17.4307 18.1067 17.5196 18.16 17.724 18.0711C17.6916 18.1079 17.6489 18.1344 17.6015 18.147C17.554 18.1597 17.5039 18.158 17.4574 18.1422C17.4164 18.1328 17.3796 18.1104 17.3524 18.0783C17.3252 18.0463 17.309 18.0064 17.3063 17.9644C17.2931 17.8999 17.2931 17.8334 17.3063 17.7689C17.3085 17.7432 17.3158 17.7181 17.3277 17.6953C17.3397 17.6724 17.3561 17.6521 17.3759 17.6355C17.3957 17.619 17.4186 17.6066 17.4433 17.599C17.468 17.5913 17.4939 17.5887 17.5196 17.5911C17.549 17.5847 17.5793 17.5845 17.6087 17.5907C17.6382 17.5968 17.6659 17.6091 17.6903 17.6267C17.7146 17.6443 17.735 17.6669 17.75 17.6929C17.765 17.719 17.7743 17.7479 17.7774 17.7778V17.9289ZM17.6885 17.8578C17.6885 17.7333 17.6352 17.6889 17.5374 17.6978C17.4396 17.7067 17.4218 17.7511 17.4218 17.8578H17.6885Z" fill="#58585A"/>
<path d="M28.3197 17.9289H27.9552C27.9552 18.1155 28.0708 18.16 28.2574 18.0622C28.2327 18.0973 28.1987 18.1248 28.1592 18.1417C28.1196 18.1585 28.0762 18.164 28.0338 18.1576C27.9913 18.1511 27.9515 18.1329 27.9188 18.1051C27.886 18.0773 27.8617 18.0409 27.8486 18C27.8129 17.9085 27.8129 17.807 27.8486 17.7155C27.8644 17.6734 27.8942 17.6381 27.9331 17.6154C27.9719 17.5927 28.0174 17.5841 28.0619 17.5911C28.1089 17.5924 28.1541 17.61 28.1897 17.6407C28.2254 17.6715 28.2493 17.7136 28.2574 17.76C28.2574 17.76 28.3108 17.8667 28.3197 17.9289ZM28.2219 17.8578C28.2219 17.7452 28.1774 17.6918 28.0886 17.6978C27.9997 17.6978 27.9641 17.7422 27.9552 17.8578H28.2219Z" fill="#58585A"/>
<path d="M25.973 17.929H25.6353C25.6353 18.1157 25.733 18.1601 25.9286 18.0712C25.9286 18.0712 25.9286 18.0712 25.9286 18.1334C25.8867 18.1706 25.8334 18.1925 25.7775 18.1957C25.7213 18.195 25.6669 18.1752 25.6234 18.1397C25.5798 18.1042 25.5495 18.055 25.5375 18.0001C25.5285 17.9471 25.5285 17.8931 25.5375 17.8401C25.5361 17.811 25.541 17.7818 25.5518 17.7547C25.5626 17.7276 25.5791 17.7031 25.6001 17.6829C25.6212 17.6627 25.6463 17.6473 25.6738 17.6376C25.7013 17.6279 25.7306 17.6242 25.7597 17.6268C25.7885 17.6267 25.817 17.6325 25.8434 17.6438C25.8699 17.6551 25.8938 17.6716 25.9138 17.6924C25.9337 17.7131 25.9492 17.7377 25.9594 17.7646C25.9696 17.7915 25.9742 17.8202 25.973 17.849C25.9773 17.8755 25.9773 17.9025 25.973 17.929ZM25.9019 17.8579C25.9019 17.7334 25.8486 17.6979 25.7597 17.6979C25.6708 17.6979 25.6353 17.7423 25.6264 17.8579H25.9019Z" fill="#58585A"/>
<path d="M23.0045 18.1689V17.9378C23.0093 17.8905 23.0093 17.8428 23.0045 17.7956C23.0002 17.7681 22.9862 17.7431 22.9649 17.7251C22.9437 17.7071 22.9167 17.6974 22.8889 17.6978C22.873 17.6977 22.8572 17.701 22.8425 17.7073C22.8279 17.7137 22.8147 17.723 22.8039 17.7347C22.793 17.7464 22.7847 17.7602 22.7795 17.7753C22.7742 17.7903 22.7721 17.8063 22.7734 17.8222V18.1689H22.6934V17.6089H22.8H22.8978H22.9422C22.9887 17.6111 23.0327 17.6305 23.0656 17.6634C23.0984 17.6962 23.1179 17.7402 23.12 17.7867C23.12 17.8933 23.12 18.0089 23.12 18.1244C23.12 18.24 23.0578 18.1867 23.0045 18.1689Z" fill="#58585A"/>
<path d="M16.8887 18.1867H16.8087V18.0178C16.8131 17.9527 16.8131 17.8874 16.8087 17.8222C16.8087 17.794 16.7974 17.7668 16.7774 17.7468C16.7574 17.7268 16.7303 17.7156 16.702 17.7156C16.6868 17.7116 16.671 17.7108 16.6555 17.7132C16.64 17.7156 16.6251 17.7211 16.6118 17.7294C16.5985 17.7378 16.587 17.7487 16.5781 17.7616C16.5691 17.7745 16.5629 17.7891 16.5598 17.8045C16.5555 17.8399 16.5555 17.8757 16.5598 17.9111V18.1778H16.4976V17.6178L16.5864 17.6622C16.782 17.5822 16.8976 17.6622 16.8976 17.8667L16.8887 18.1867Z" fill="#58585A"/>
<path d="M23.6086 18.1778H23.5464V17.6267H23.6442H23.7242H23.7775C23.8021 17.6201 23.8279 17.619 23.853 17.6233C23.8781 17.6275 23.902 17.6372 23.9231 17.6515C23.9442 17.6658 23.9619 17.6845 23.9752 17.7063C23.9884 17.7281 23.9968 17.7525 23.9997 17.7778C24.0087 17.908 24.0087 18.0387 23.9997 18.1689H23.9375V17.8756C23.9375 17.7778 23.8931 17.7245 23.8042 17.7245C23.7153 17.7245 23.6708 17.7778 23.6708 17.8756C23.6664 17.9466 23.6664 18.0179 23.6708 18.0889C23.6467 18.116 23.6259 18.1459 23.6086 18.1778Z" fill="#58585A"/>
<path d="M28.4442 18.08H28.6576C28.6804 18.089 28.7058 18.089 28.7287 18.08C28.7343 18.0675 28.7372 18.0538 28.7372 18.04C28.7372 18.0263 28.7343 18.0126 28.7287 18C28.7287 18 28.7287 17.9556 28.6753 17.9467C28.6493 17.9385 28.6214 17.9385 28.5953 17.9467H28.4976C28.4695 17.93 28.4486 17.9035 28.4388 17.8724C28.429 17.8413 28.4309 17.8076 28.4442 17.7778C28.4392 17.7496 28.4435 17.7206 28.4563 17.695C28.4691 17.6693 28.4898 17.6485 28.5153 17.6356C28.5634 17.6015 28.6209 17.5833 28.6798 17.5833C28.7387 17.5833 28.7962 17.6015 28.8442 17.6356H28.7642H28.6042C28.5821 17.6355 28.5608 17.6436 28.5443 17.6584C28.5279 17.6732 28.5176 17.6936 28.5153 17.7156C28.5175 17.7352 28.5269 17.7534 28.5417 17.7665C28.5565 17.7796 28.5756 17.7868 28.5953 17.7867H28.7198C28.7575 17.7867 28.7937 17.8017 28.8204 17.8284C28.847 17.855 28.862 17.8912 28.862 17.9289C28.8646 17.9676 28.8521 18.0058 28.8273 18.0356C28.8025 18.0654 28.7672 18.0845 28.7287 18.0889C28.6479 18.116 28.5605 18.116 28.4798 18.0889C28.4798 18.0889 28.4442 18.1156 28.4442 18.08Z" fill="#58585A"/>
<path d="M25.0843 17.8401H25.2087H25.2798C25.3687 17.8401 25.4132 17.9023 25.4132 17.9823C25.4125 18.0188 25.4001 18.0542 25.3776 18.083C25.3552 18.1119 25.324 18.1327 25.2887 18.1423C25.237 18.1567 25.1827 18.1585 25.1301 18.1477C25.0775 18.1369 25.0283 18.1137 24.9865 18.0801H25.1821H25.2532C25.2976 18.0801 25.3332 18.0356 25.3154 17.9912C25.3111 17.974 25.3022 17.9583 25.2897 17.9458C25.2772 17.9332 25.2615 17.9244 25.2443 17.9201C25.191 17.9201 25.1287 17.9201 25.0754 17.9201C25.0465 17.9121 25.0211 17.8946 25.0034 17.8704C24.9856 17.8462 24.9765 17.8167 24.9776 17.7867C24.9777 17.7467 24.9937 17.7083 25.0221 17.6801C25.0494 17.6539 25.0831 17.6355 25.1198 17.6267C25.1654 17.618 25.2123 17.6199 25.257 17.6322C25.3017 17.6446 25.343 17.667 25.3776 17.6978H25.2976H25.1643C25.0932 17.6978 25.0754 17.7156 25.0843 17.8401Z" fill="#58585A"/>
<path d="M26.5244 17.6712C26.5244 17.6267 26.5244 17.6178 26.6044 17.6712L26.7466 18.0712C26.8041 17.9835 26.8378 17.8824 26.8444 17.7778C26.8444 17.7067 26.8444 17.6178 26.9777 17.5823C26.9821 17.6088 26.9821 17.6358 26.9777 17.6623C26.9333 17.8045 26.88 17.9378 26.8266 18.0712C26.7733 18.2045 26.8266 18.1512 26.7289 18.1334C26.6997 18.0363 26.664 17.9413 26.6222 17.8489L26.5333 17.6356L26.5244 17.6712Z" fill="#58585A"/>
<path d="M27.724 17.7778C27.5818 17.7155 27.5196 17.7155 27.4662 17.7778C27.4378 17.8231 27.4228 17.8754 27.4228 17.9289C27.4228 17.9823 27.4378 18.0347 27.4662 18.08C27.5196 18.1511 27.5907 18.16 27.7329 18.08C27.6934 18.1064 27.647 18.1204 27.5996 18.1204C27.5521 18.1204 27.5057 18.1064 27.4662 18.08C27.4288 18.0605 27.3974 18.0312 27.3755 17.9951C27.3536 17.9591 27.3419 17.9177 27.3418 17.8755V17.7778C27.3426 17.7288 27.3584 17.6813 27.387 17.6416C27.4156 17.6019 27.4557 17.5718 27.5018 17.5555C27.5996 17.5555 27.6618 17.5555 27.7596 17.6267L27.724 17.7778Z" fill="#58585A"/>
<path d="M19.6085 17.7155L19.5552 17.6711L19.6085 17.6178C19.653 17.5644 19.6085 17.4844 19.6885 17.4578C19.6928 17.508 19.6928 17.5586 19.6885 17.6089L19.8307 17.6622L19.6885 17.7067V18.08L19.813 18.1422C19.7063 18.1955 19.6263 18.1422 19.6085 18.0622V17.7155Z" fill="#58585A"/>
<path d="M17.0396 17.6C17.0443 17.5587 17.0443 17.5169 17.0396 17.4756C17.084 17.4756 17.1107 17.4756 17.1107 17.4756C17.1107 17.4756 17.1107 17.5378 17.1107 17.5823H17.1729H17.244H17.1107C17.1018 17.7065 17.1018 17.8313 17.1107 17.9556L17.2262 18.0178C17.2262 18.0178 17.2262 18.0178 17.1729 18.0178C17.1391 18.0156 17.1074 18.0005 17.0843 17.9757C17.0612 17.951 17.0484 17.9184 17.0485 17.8845C17.0485 17.7778 17.0485 17.6711 17.0485 17.5645L16.9507 17.5023L17.0396 17.6Z" fill="#58585A"/>
<path d="M18.5777 17.6178L18.6666 17.6622C18.7037 17.6341 18.7489 17.6189 18.7955 17.6189C18.842 17.6189 18.8873 17.6341 18.9244 17.6622C18.9244 17.6622 18.9244 17.7156 18.8444 17.7067C18.7644 17.6978 18.6488 17.7067 18.6399 17.8667V18.1067C18.6399 18.1067 18.6399 18.1778 18.5866 18.16C18.5571 17.9807 18.5541 17.798 18.5777 17.6178Z" fill="#58585A"/>
<path d="M26.5152 17.6711V17.7245H26.4708C26.3463 17.7245 26.2752 17.7245 26.2752 17.8667C26.2708 17.9437 26.2708 18.0208 26.2752 18.0978C26.2752 18.0978 26.2752 18.1511 26.2752 18.1867H26.2041V17.6178L26.3019 17.68C26.3411 17.649 26.3897 17.6322 26.4397 17.6322C26.4897 17.6322 26.5382 17.649 26.5774 17.68L26.5152 17.6711Z" fill="#58585A"/>
<path d="M23.3243 18.1956C23.3243 18.1956 23.271 18.1956 23.271 18.1422V17.6622C23.271 17.6622 23.271 17.6622 23.3154 17.6178C23.3499 17.8086 23.3529 18.0038 23.3243 18.1956Z" fill="#58585A"/>
<path d="M16.2041 18.1778H16.1597V17.6889C16.1597 17.6889 16.1597 17.6267 16.213 17.6267C16.2379 17.8098 16.2349 17.9956 16.2041 18.1778Z" fill="#58585A"/>
<path d="M27.1643 18.1689H27.1021V17.7067C27.1021 17.7067 27.1021 17.7067 27.1465 17.6533C27.1812 17.823 27.1872 17.9972 27.1643 18.1689Z" fill="#58585A"/>
<path d="M22.3819 17.6178H22.4353C22.4486 17.7953 22.4486 17.9736 22.4353 18.1511H22.373L22.3819 17.6178Z" fill="#58585A"/>
<path d="M22.3819 17.3867C22.4442 17.3867 22.4619 17.3867 22.453 17.4578H22.373C22.373 17.4578 22.3819 17.4134 22.3819 17.3867Z" fill="#58585A"/>
<path d="M23.3421 17.3867V17.4667H23.2621C23.2532 17.4045 23.2621 17.3778 23.3421 17.3867Z" fill="#58585A"/>
<path d="M27.1729 17.3867V17.4578C27.1584 17.4616 27.1431 17.4616 27.1285 17.4578C27.1285 17.4578 27.1196 17.3778 27.1729 17.3867Z" fill="#58585A"/>
<path d="M16.2221 17.4667C16.1688 17.4667 16.1421 17.4667 16.1421 17.4667C16.1421 17.4667 16.1421 17.4134 16.2043 17.4223L16.2221 17.4667Z" fill="#58585A"/>
</g>
<defs>
<linearGradient id="paint0_linear_2707_349433" x1="26.486" y1="10.4075" x2="26.6816" y2="12.9853" gradientUnits="userSpaceOnUse">
<stop stop-color="#BBD344"/>
<stop offset="1" stop-color="#6FB94E"/>
</linearGradient>
<linearGradient id="paint1_linear_2707_349433" x1="29.2184" y1="10.2002" x2="29.414" y2="12.778" gradientUnits="userSpaceOnUse">
<stop stop-color="#BBD344"/>
<stop offset="1" stop-color="#6FB94E"/>
</linearGradient>
<linearGradient id="paint2_linear_2707_349433" x1="21.2529" y1="10.8045" x2="21.4485" y2="13.3823" gradientUnits="userSpaceOnUse">
<stop stop-color="#BBD344"/>
<stop offset="1" stop-color="#6FB94E"/>
</linearGradient>
<linearGradient id="paint3_linear_2707_349433" x1="23.5472" y1="10.6304" x2="23.7427" y2="13.2082" gradientUnits="userSpaceOnUse">
<stop stop-color="#BBD344"/>
<stop offset="1" stop-color="#6FB94E"/>
</linearGradient>
<linearGradient id="paint4_linear_2707_349433" x1="18.134" y1="11.0412" x2="18.3295" y2="13.6189" gradientUnits="userSpaceOnUse">
<stop stop-color="#BBD344"/>
<stop offset="1" stop-color="#6FB94E"/>
</linearGradient>
<clipPath id="clip0_2707_349433">
<rect width="32" height="32" fill="white"/>
</clipPath>
</defs>
</svg>
