<svg width="32" height="32" viewBox="0 0 32 32" fill="none" xmlns="http://www.w3.org/2000/svg">
<g clip-path="url(#clip0_2707_349148)">
<mask id="mask0_2707_349148" style="mask-type:luminance" maskUnits="userSpaceOnUse" x="0" y="0" width="32" height="32">
<path d="M31.9763 0.00106812H0.00585938V31.9715H31.9763V0.00106812Z" fill="white"/>
</mask>
<g mask="url(#mask0_2707_349148)">
<path d="M15.9911 31.9715C24.8194 31.9715 31.9763 24.8146 31.9763 15.9863C31.9763 7.15789 24.8194 0.00106812 15.9911 0.00106812C7.16268 0.00106812 0.00585938 7.15789 0.00585938 15.9863C0.00585938 24.8146 7.16268 31.9715 15.9911 31.9715Z" fill="white"/>
<path d="M16.9799 18.7259H9.69336V13.2371L9.7885 13.3037L10.1689 13.5891L10.6256 13.9411L11.0631 14.2645L11.4627 14.5689L11.9097 14.9114L12.3378 15.2253L12.8515 15.6152L13.251 15.9197L13.7742 16.3192L14.1452 16.6046L14.5352 16.8899L14.9062 17.1753L15.2677 17.4417L15.6481 17.7366L15.9526 17.9649L16.3711 18.2788L16.9228 18.6973" fill="#415FAB"/>
<path d="M9.69338 13.2371V18.7354H2.46387L2.55898 18.6593L3.12021 18.2312L3.48168 17.9553L3.9478 17.5938L4.34734 17.299L4.81342 16.9375L5.232 16.6237L5.63151 16.3192L6.09763 15.9863L6.67789 15.5392L7.20108 15.1397L7.62916 14.8163L8.06671 14.4833L8.49479 14.1598L8.9609 13.8079L9.45553 13.4274L9.66481 13.2657" fill="#1CA24A"/>
<path d="M16.9805 18.7259L16.4288 18.3073L16.0102 17.9934L15.7058 17.7651L15.3253 17.4703L14.9638 17.2039L14.5928 16.9185L14.2028 16.6331L13.8318 16.3478L13.3086 15.9482L12.9091 15.6438L12.3954 15.2538L11.9674 14.9399L11.5203 14.5974L11.1208 14.2931L10.6832 13.9697L10.2266 13.6177L9.84612 13.3323L9.75098 13.2657H16.9805V18.7163" fill="#FCB41E"/>
<path d="M29.0154 17.3222C29.1407 17.3225 29.2629 17.3608 29.3659 17.4322C29.423 17.4798 29.461 17.5368 29.518 17.5938L29.4324 17.6604L29.3468 17.5082C29.3168 17.464 29.2779 17.4267 29.2324 17.3986C29.187 17.3704 29.1362 17.3522 29.0833 17.345C29.0303 17.3378 28.9764 17.3418 28.9252 17.3569C28.8739 17.3719 28.8263 17.3976 28.7856 17.4322C28.735 17.4709 28.6929 17.5195 28.6617 17.5751C28.6307 17.6308 28.6113 17.6922 28.6049 17.7556C28.5881 17.829 28.5871 17.9051 28.6019 17.9788C28.6165 18.0525 28.6468 18.1224 28.6905 18.1836C28.7565 18.2701 28.8506 18.3306 28.9566 18.355C29.0626 18.3793 29.1737 18.3658 29.2707 18.3169C29.2766 18.3067 29.2797 18.2952 29.2797 18.2836C29.2797 18.2718 29.2766 18.2603 29.2707 18.2503V17.8888H29.48V18.3453C29.4842 18.3526 29.4864 18.3608 29.4864 18.3692C29.4864 18.3775 29.4842 18.3857 29.48 18.3929C29.3305 18.4589 29.1675 18.4882 29.0044 18.4786C28.8834 18.481 28.7643 18.448 28.6619 18.3834C28.5813 18.3329 28.515 18.2628 28.4689 18.1796C28.4229 18.0964 28.3987 18.0029 28.3987 17.9078C28.3987 17.8127 28.4229 17.7192 28.4689 17.636C28.515 17.5528 28.5813 17.4827 28.6619 17.4322C28.7654 17.3606 28.8881 17.3222 29.0139 17.3222H29.0154ZM17.9986 17.299H18.7691V17.3656H18.1793V17.7651H18.5694V17.8888H18.1888V18.3834H18.7691V18.45H17.9986V17.299ZM19.2637 17.2895H19.3873L20.0437 18.0124L20.1008 18.0791V17.2704H20.1864V18.4025C20.1748 18.4091 20.1617 18.4126 20.1483 18.4126C20.135 18.4126 20.1219 18.4091 20.1103 18.4025L19.3684 17.5463V18.4215H19.2637V17.2895ZM23.4874 18.4025C23.4757 18.4091 23.4627 18.4126 23.4493 18.4126C23.4359 18.4126 23.4229 18.4091 23.4112 18.4025L22.6883 17.5559V18.4025H22.6027V17.2895H22.6883L23.3351 18.0124L23.4018 18.0791V17.2704H23.4874V18.4025ZM24.8093 17.299H25.3135C25.3788 17.3104 25.4405 17.3364 25.4942 17.3751C25.5258 17.3991 25.5514 17.43 25.569 17.4654C25.5866 17.501 25.5957 17.54 25.5957 17.5796C25.5957 17.6192 25.5866 17.6583 25.569 17.6938C25.5514 17.7292 25.5258 17.7602 25.4942 17.7841C25.4406 17.8217 25.3833 17.8535 25.323 17.8793C25.4562 18.0505 25.5894 18.2217 25.7225 18.412H25.5418L25.1613 17.8888C25.1613 17.8888 25.1137 17.8412 25.0757 17.8888H24.9996V18.4025H24.8093V17.299ZM22.0033 17.299H21.8225V18.412H22.0033V17.299ZM24.2481 17.299H24.0673V18.412H24.2481V17.299ZM26.3508 17.299H26.1701V18.412H26.3508V17.299ZM26.9117 17.2895H27.0353L27.7202 18.0505V17.2419H27.8058V18.3739C27.7942 18.3806 27.7811 18.3841 27.7678 18.3841C27.7544 18.3841 27.7413 18.3806 27.7297 18.3739L26.9878 17.5178V18.3929H26.9022L26.9117 17.2895ZM20.6144 18.2978L20.681 18.2217L20.8237 18.3169C20.8611 18.3265 20.9004 18.3265 20.9378 18.3169C20.9563 18.3157 20.9742 18.3108 20.9906 18.3023C21.007 18.2939 21.0214 18.2822 21.0331 18.2678C21.0448 18.2536 21.0532 18.237 21.0581 18.2193C21.0631 18.2015 21.0642 18.1829 21.0616 18.1647V17.2704H21.2517V18.06C21.2695 18.1286 21.2695 18.2006 21.2517 18.2692C21.2302 18.3031 21.2008 18.3311 21.166 18.351C21.1311 18.3709 21.0921 18.382 21.0521 18.3834C20.9826 18.393 20.9119 18.3879 20.8447 18.3682C20.7775 18.3485 20.7153 18.3148 20.662 18.2692L20.6144 18.2978ZM24.9996 17.8316H25.2755C25.3178 17.8099 25.3518 17.7748 25.3724 17.7319C25.393 17.689 25.399 17.6405 25.3896 17.5938C25.3883 17.551 25.3726 17.5098 25.345 17.477C25.3173 17.4442 25.2795 17.4217 25.2374 17.4131C25.1582 17.4084 25.0788 17.4084 24.9996 17.4131V17.8316ZM19.8821 15.3679C20.0066 15.3681 20.1283 15.4053 20.2315 15.4747C20.3348 15.5442 20.4152 15.6427 20.4624 15.758C20.5105 15.8984 20.5039 16.0517 20.444 16.1874C20.384 16.3233 20.2751 16.4315 20.139 16.4904C19.9923 16.5559 19.8259 16.5618 19.675 16.5068C19.524 16.4517 19.4005 16.3401 19.3304 16.1956C19.2922 16.1173 19.2728 16.0312 19.2736 15.9441C19.2745 15.857 19.2956 15.7714 19.3353 15.6938C19.3749 15.6163 19.4321 15.5491 19.5022 15.4975C19.5724 15.4459 19.6536 15.4113 19.7394 15.3965C19.7869 15.392 19.8346 15.392 19.8821 15.3965V15.3679ZM18.3378 15.8493L19.0355 16.4904C18.9881 16.4857 18.9403 16.4857 18.8929 16.4904C18.8627 16.4916 18.8327 16.4863 18.8047 16.4748C18.7768 16.4633 18.7518 16.4459 18.7312 16.4239L18.2175 15.9863V16.5381H18.0368V15.3775H18.2175V15.8626L18.4648 15.6533L18.7787 15.387H18.8834L18.3378 15.8493ZM27.1116 16.4809H26.9308V15.3679H27.1116V15.8626L27.2542 15.7389L27.6729 15.387H27.8251L27.2638 15.8626L27.9677 16.5095H27.7394L27.1497 15.9863L27.1116 16.4809ZM22.0796 16.2526L22.1843 16.205C22.1983 16.2408 22.2142 16.2756 22.2318 16.3097C22.2732 16.3659 22.3322 16.4067 22.3994 16.4257C22.4666 16.4446 22.5382 16.4407 22.6028 16.4143C22.6302 16.4073 22.6551 16.3927 22.6747 16.3724C22.6943 16.3519 22.7078 16.3265 22.7138 16.2989C22.7197 16.2711 22.7177 16.2424 22.7082 16.2157C22.6988 16.1891 22.682 16.1656 22.6598 16.148C22.6158 16.1018 22.5644 16.0632 22.5077 16.0338L22.2224 15.8721C22.1916 15.8504 22.1655 15.8227 22.1455 15.7909C22.1255 15.7589 22.112 15.7233 22.1058 15.6862C22.0996 15.6491 22.1009 15.6111 22.1095 15.5745C22.118 15.5378 22.1337 15.5032 22.1557 15.4726C22.1867 15.4343 22.2258 15.4033 22.2702 15.3819C22.3146 15.3605 22.3633 15.3492 22.4125 15.3489C22.488 15.3348 22.5655 15.3348 22.6409 15.3489C22.692 15.3694 22.7374 15.4017 22.7738 15.443C22.8101 15.4842 22.8363 15.5335 22.8501 15.5868H22.755C22.7348 15.5597 22.7126 15.5342 22.6884 15.5107C22.651 15.4633 22.598 15.4306 22.5388 15.4184C22.4797 15.4064 22.4181 15.4153 22.365 15.444C22.3408 15.4558 22.3205 15.474 22.3063 15.4967C22.292 15.5194 22.2845 15.5457 22.2845 15.5724C22.2845 15.5993 22.292 15.6255 22.3063 15.6482C22.3205 15.671 22.3408 15.6892 22.365 15.7008L22.6028 15.8531L22.8216 15.9863C22.8589 16.0115 22.8894 16.0456 22.9105 16.0854C22.9316 16.1252 22.9426 16.1695 22.9426 16.2145C22.9426 16.2596 22.9316 16.304 22.9105 16.3438C22.8894 16.3835 22.8589 16.4175 22.8216 16.4429C22.747 16.4828 22.6637 16.5038 22.5791 16.5038C22.4944 16.5038 22.411 16.4828 22.3364 16.4429C22.2956 16.421 22.2594 16.3912 22.23 16.3554C22.2005 16.3194 22.1786 16.278 22.1652 16.2336L22.0796 16.2526ZM26.4932 15.3679V16.0909C26.4965 16.1786 26.47 16.2647 26.4182 16.3355C26.3664 16.4062 26.2924 16.4574 26.2078 16.4809H26.0938C25.9995 16.4996 25.9025 16.4996 25.8084 16.4809C25.723 16.4556 25.6487 16.4026 25.597 16.3302C25.5453 16.2578 25.5193 16.1702 25.5229 16.0814V15.3775H25.7132V16.1004C25.7094 16.1658 25.7255 16.2309 25.7595 16.287C25.7935 16.3431 25.8437 16.3875 25.9035 16.4143C25.9591 16.4489 26.0234 16.4672 26.0889 16.4672C26.1546 16.4672 26.2188 16.4489 26.2744 16.4143C26.3184 16.3835 26.3537 16.3421 26.3769 16.2937C26.4003 16.2455 26.4109 16.1919 26.4076 16.1385V15.4156L26.4932 15.3679ZM28.8046 15.6438C28.7905 15.5944 28.7651 15.5489 28.7304 15.511C28.6957 15.473 28.6528 15.4436 28.6049 15.4251C28.5402 15.4017 28.4696 15.4017 28.4051 15.4251C28.381 15.4367 28.3607 15.4549 28.3464 15.4776C28.3321 15.5004 28.3246 15.5266 28.3246 15.5535C28.3246 15.5802 28.3321 15.6065 28.3464 15.6293C28.3607 15.6519 28.381 15.6701 28.4051 15.6819C28.484 15.7381 28.5667 15.7889 28.6524 15.8341L28.8617 15.9672C28.8989 15.9925 28.9295 16.0265 28.9505 16.0663C28.9716 16.1061 28.9828 16.1505 28.9828 16.1956C28.9828 16.2406 28.9716 16.285 28.9505 16.3248C28.9295 16.3646 28.8989 16.3986 28.8617 16.4239C28.7851 16.468 28.6981 16.4914 28.6096 16.4914C28.5211 16.4914 28.4342 16.468 28.3576 16.4239C28.3201 16.4024 28.2874 16.3737 28.2613 16.3393C28.2351 16.3051 28.2161 16.2658 28.2053 16.2241L28.3004 16.1766C28.3218 16.2507 28.3691 16.3148 28.4337 16.3573C28.4775 16.3806 28.5266 16.3928 28.5763 16.3928C28.6261 16.3928 28.6751 16.3806 28.719 16.3573C28.7452 16.3488 28.7687 16.3339 28.7874 16.3138C28.8063 16.2937 28.8196 16.2692 28.8263 16.2426C28.8329 16.2159 28.8327 16.188 28.8255 16.1615C28.8185 16.1349 28.8047 16.1106 28.7856 16.0909C28.7381 16.0446 28.6834 16.0061 28.6239 15.9767L28.3576 15.8151C28.3032 15.7883 28.2606 15.7425 28.2378 15.6863C28.215 15.6302 28.2136 15.5677 28.2338 15.5107C28.2478 15.4542 28.2791 15.4035 28.3235 15.3659C28.3679 15.3283 28.4232 15.3057 28.4812 15.3014C28.5625 15.2823 28.6472 15.2823 28.7285 15.3014C28.7869 15.3171 28.8399 15.3485 28.8817 15.392C28.9237 15.4356 28.9529 15.4897 28.9664 15.5487H28.8712L28.8046 15.6438ZM24.8332 15.3679C24.9243 15.3682 25.013 15.3983 25.0857 15.4535C25.1171 15.4775 25.1427 15.5084 25.1604 15.544C25.1779 15.5794 25.1871 15.6185 25.1871 15.658C25.1871 15.6976 25.1779 15.7368 25.1604 15.7722C25.1427 15.8078 25.1171 15.8387 25.0857 15.8626C25.0309 15.8983 24.9736 15.9301 24.9145 15.9577L25.3139 16.4904H25.1237L24.7527 15.9863C24.7527 15.9863 24.7051 15.9388 24.6671 15.9388H24.5909V16.4524H24.4008V15.3679H24.8288C24.8299 15.3679 24.831 15.3679 24.8321 15.3679L24.8332 15.3679ZM19.4825 15.9863C19.496 16.0698 19.5152 16.1526 19.5397 16.2336C19.56 16.304 19.6024 16.3661 19.6606 16.4106C19.7188 16.4551 19.7898 16.4797 19.8631 16.4809C19.9387 16.4873 20.0144 16.4683 20.0781 16.427C20.1419 16.3857 20.19 16.3243 20.2151 16.2526C20.2529 16.1791 20.2725 16.0976 20.2721 16.0148C20.2869 15.8851 20.2672 15.754 20.2151 15.6343C20.1867 15.5779 20.1445 15.5296 20.0923 15.4941C20.0402 15.4585 19.9799 15.4369 19.917 15.4312C19.8541 15.4254 19.7908 15.4359 19.7332 15.4615C19.6755 15.4869 19.6252 15.5268 19.5872 15.5773C19.5147 15.6973 19.4816 15.837 19.4921 15.9767L19.4825 15.9863ZM23.516 15.444H23.1069V15.3775H24.0582V15.444H23.6586V16.4809H23.4685L23.516 15.444ZM29.4515 15.3679H29.2707V16.4809H29.4515V15.3679ZM20.8522 15.3679H20.9189C20.9278 15.3638 20.9375 15.3615 20.9474 15.3615C20.9573 15.3615 20.9671 15.3638 20.9759 15.3679L21.6513 16.1194V15.3014H21.7369V16.4429H21.6704L20.9284 15.5963V16.4619H20.8428L20.8522 15.3679ZM24.5909 15.9102C24.6781 15.9341 24.7702 15.9341 24.8573 15.9102C24.9004 15.8906 24.9365 15.8582 24.9603 15.8173C24.9842 15.7763 24.9947 15.729 24.9905 15.6819C24.9875 15.637 24.9703 15.5943 24.9411 15.56C24.912 15.5257 24.8726 15.5017 24.8288 15.4916C24.7496 15.4866 24.6701 15.4866 24.5909 15.4916V15.9102ZM18.3378 15.8493L18.3222 15.8626L18.3316 15.8436L18.3378 15.8493ZM18.8263 13.4465H18.8834V14.5784H18.8168L18.0749 13.7222V14.607H17.9893V13.4465C18.0174 13.4417 18.0463 13.4444 18.073 13.4545C18.0997 13.4645 18.1234 13.4814 18.1414 13.5035L18.8073 14.2455L18.8263 13.4465ZM21.6135 13.4465H21.8132V14.1693C21.8099 14.2336 21.8251 14.2973 21.8572 14.3531C21.8893 14.4087 21.9368 14.454 21.994 14.4833C22.0552 14.513 22.1238 14.5243 22.1913 14.5159C22.2588 14.5074 22.3225 14.4796 22.3745 14.4357C22.4173 14.4045 22.4514 14.3626 22.473 14.3142C22.4947 14.2659 22.5034 14.2126 22.4981 14.1598V13.4465H22.5838V14.1693C22.5879 14.2435 22.5704 14.3171 22.5332 14.3814C22.496 14.4457 22.4409 14.4976 22.3745 14.5308C22.317 14.5555 22.2561 14.5715 22.1938 14.5784C22.097 14.6022 21.9957 14.6022 21.8989 14.5784C21.8153 14.5547 21.7423 14.503 21.6921 14.4321C21.6419 14.3611 21.6175 14.2751 21.6231 14.1884V13.4654L21.6135 13.4465ZM29.0574 14.3348H28.5307L28.4336 14.5828H28.2673L28.7039 13.474H28.797L29.2319 14.5828H29.1544L29.0574 14.3348ZM25.4964 14.509C25.5164 14.5133 25.5368 14.5155 25.5573 14.5157C25.5979 14.516 25.638 14.5082 25.6753 14.4927C25.7027 14.4858 25.7277 14.4713 25.7472 14.4508C25.7668 14.4304 25.7804 14.4049 25.7863 14.3773C25.7922 14.3496 25.7904 14.3209 25.7809 14.2942C25.7713 14.2676 25.7545 14.2441 25.7325 14.2264C25.6884 14.1803 25.6369 14.1418 25.5802 14.1123L25.3044 13.9506C25.2527 13.921 25.2125 13.8749 25.19 13.8197C25.1676 13.7645 25.1643 13.7034 25.1807 13.6462C25.197 13.5909 25.2291 13.5417 25.2731 13.5046C25.317 13.4673 25.3709 13.4438 25.428 13.437C25.5217 13.4132 25.6198 13.4132 25.7134 13.437C25.7642 13.4551 25.8097 13.4855 25.8462 13.5252C25.8826 13.565 25.9089 13.6131 25.9227 13.6652H25.837L25.7514 13.5321C25.7131 13.4859 25.6609 13.4535 25.6024 13.4398C25.5441 13.4261 25.4829 13.4318 25.428 13.4559C25.4043 13.469 25.3845 13.4884 25.3707 13.5118C25.3568 13.5352 25.3496 13.5619 25.3496 13.5891C25.3496 13.6163 25.3568 13.643 25.3707 13.6664C25.3845 13.6898 25.4043 13.7091 25.428 13.7222L25.6658 13.8745L25.8846 14.0077C25.9219 14.0329 25.9524 14.067 25.9736 14.1068C25.9947 14.1466 26.0057 14.1909 26.0057 14.2359C26.0057 14.281 25.9947 14.3254 25.9736 14.3652C25.9524 14.4049 25.9219 14.4389 25.8846 14.4643C25.8091 14.5068 25.7239 14.5291 25.6373 14.5291C25.5895 14.5291 25.542 14.5223 25.4964 14.509C25.477 14.5049 25.458 14.4989 25.4397 14.4911C25.4231 14.484 25.4072 14.4754 25.3923 14.4655C25.3915 14.4651 25.3908 14.4647 25.39 14.4643C25.3512 14.4422 25.3176 14.4121 25.2914 14.376C25.2789 14.3589 25.2682 14.3407 25.2595 14.3215H25.1807L25.2377 14.255C25.2425 14.278 25.2498 14.3003 25.2595 14.3215H25.2758C25.2905 14.3593 25.3126 14.3938 25.3407 14.4228C25.3563 14.4389 25.3736 14.4533 25.3923 14.4655C25.4254 14.484 25.4603 14.4985 25.4964 14.509ZM29.0123 14.2164L28.794 13.6532L28.5757 14.2164H29.0123Z" fill="#0A0B0B"/>
</g>
</g>
<defs>
<clipPath id="clip0_2707_349148">
<rect width="32" height="32" fill="white"/>
</clipPath>
</defs>
</svg>
