<svg width="32" height="32" viewBox="0 0 32 32" fill="none" xmlns="http://www.w3.org/2000/svg">
<g clip-path="url(#clip0_2707_348818)">
<path d="M15.9998 31.9822C24.8265 31.9822 31.982 24.8267 31.982 16C31.982 7.17325 24.8265 0.0177612 15.9998 0.0177612C7.17306 0.0177612 0.0175781 7.17325 0.0175781 16C0.0175781 24.8267 7.17306 31.9822 15.9998 31.9822Z" fill="white"/>
<path fill-rule="evenodd" clip-rule="evenodd" d="M5.56457 13.84C5.62981 13.735 5.71527 13.6439 5.81598 13.5722C5.9167 13.5005 6.03065 13.4495 6.15124 13.4222C6.39439 13.3706 6.64805 13.4118 6.86235 13.5378C7.06934 13.675 7.21818 13.884 7.28013 14.1244C7.33275 14.3686 7.28811 14.6237 7.15568 14.8355L4.80013 18.5867C4.7369 18.6934 4.65204 18.7857 4.551 18.8576C4.44996 18.9296 4.33499 18.9796 4.21346 19.0044C3.98744 19.0451 3.75432 19.0041 3.55568 18.8889C3.45066 18.8236 3.35965 18.7382 3.28793 18.6375C3.21621 18.5368 3.16521 18.4228 3.13791 18.3022C3.0863 18.0591 3.12752 17.8054 3.25346 17.5911C3.84902 16.5867 4.93346 14.8444 5.56457 13.84Z" fill="#FF5A00"/>
<path fill-rule="evenodd" clip-rule="evenodd" d="M8.70208 17.1555C8.9513 17.159 9.18976 17.2576 9.36874 17.4311C9.45621 17.5187 9.52557 17.6226 9.57285 17.737C9.62013 17.8514 9.64441 17.974 9.6443 18.0977C9.64196 18.3461 9.54165 18.5835 9.3652 18.7583C9.18876 18.933 8.95044 19.0311 8.70208 19.0311H4.00874C3.75952 19.0275 3.52106 18.929 3.34208 18.7555C3.25461 18.6679 3.18525 18.564 3.13797 18.4496C3.09069 18.3352 3.06641 18.2126 3.06652 18.0889C3.06455 17.9661 3.08801 17.8443 3.13544 17.7311C3.18286 17.6179 3.25322 17.5157 3.34208 17.4311C3.42965 17.3436 3.53361 17.2743 3.648 17.227C3.76238 17.1797 3.88497 17.1554 4.00874 17.1555H8.70208Z" fill="url(#paint0_linear_2707_348818)"/>
<path fill-rule="evenodd" clip-rule="evenodd" d="M7.15507 13.84C7.08982 13.735 7.00437 13.6439 6.90365 13.5722C6.80294 13.5005 6.68898 13.4495 6.5684 13.4222C6.32525 13.3706 6.07159 13.4118 5.85729 13.5378C5.6503 13.675 5.50146 13.884 5.43951 14.1244C5.38689 14.3686 5.43153 14.6237 5.56396 14.8355L7.91062 18.5955C8.04441 18.802 8.25046 18.9509 8.4884 19.0133C8.73258 19.0669 8.98804 19.0222 9.19951 18.8889C9.30526 18.8266 9.39697 18.7431 9.46887 18.6437C9.54077 18.5443 9.5913 18.431 9.61729 18.3111C9.66978 18.068 9.62851 17.814 9.50173 17.6L7.15507 13.84Z" fill="url(#paint1_linear_2707_348818)"/>
<path d="M22.2223 18.2044L22.1334 18.3555C22.0494 18.4905 21.9364 18.6051 21.8027 18.6912C21.6689 18.7773 21.5178 18.8326 21.3601 18.8533C21.102 18.9193 20.8303 18.9092 20.5779 18.824C20.3255 18.7388 20.1032 18.5822 19.9379 18.3733C19.702 18.0836 19.5678 17.7245 19.5557 17.3511C19.5557 16.9866 19.5557 16.6311 19.5557 16.2666C19.578 15.8443 19.7665 15.4481 20.0801 15.1644C20.3335 14.9711 20.6406 14.8613 20.9591 14.8501C21.2776 14.839 21.5916 14.9271 21.8579 15.1022C21.9642 15.2045 22.0596 15.3177 22.1423 15.44L22.2312 15.52V15.1111V13.6177C22.2312 13.52 22.2312 13.4933 22.3468 13.4933H23.4668C23.5468 13.4933 23.5734 13.4933 23.5734 13.6088C23.5734 14.0622 23.5734 14.4977 23.5734 14.9688C23.5734 15.7955 23.5734 18.3022 23.6179 18.7288C23.6179 18.8355 23.6179 18.88 23.4757 18.88C23.1201 18.88 22.7646 18.88 22.409 18.88C22.3201 18.88 22.2846 18.88 22.2846 18.7644C22.2846 18.6488 22.2846 18.48 22.2846 18.3377C22.2888 18.2993 22.2888 18.2606 22.2846 18.2222L22.2223 18.2044ZM22.2223 17.0666C22.2223 16.9955 22.2223 16.8888 22.2223 16.7822C22.2223 16.6755 22.2223 16.5777 22.2223 16.4711C22.2063 16.3183 22.14 16.1752 22.0338 16.0641C21.9276 15.9531 21.7876 15.8805 21.6357 15.8577C21.4825 15.8411 21.3287 15.882 21.2039 15.9723C21.0791 16.0626 20.9922 16.196 20.9601 16.3466C20.8623 16.6985 20.8623 17.0703 20.9601 17.4222C20.9928 17.5207 21.049 17.6099 21.1238 17.6819C21.1986 17.7539 21.2899 17.8066 21.3896 17.8354C21.4893 17.8643 21.5946 17.8685 21.6963 17.8476C21.7981 17.8267 21.8932 17.7814 21.9734 17.7155C22.0564 17.6296 22.1212 17.5279 22.1639 17.4164C22.2067 17.3049 22.2266 17.186 22.2223 17.0666Z" fill="#402000"/>
<path d="M13.4489 17.4044C13.3422 17.5289 13.2356 17.6178 13.2445 17.7956C13.2445 18.1333 13.2445 18.48 13.2445 18.8267C13.2445 18.9156 13.2445 18.9511 13.1289 18.9511H12.0178C11.9111 18.9511 11.9111 18.88 11.9111 18.8089C11.9111 18.48 11.9111 18.16 11.9111 17.84C11.9111 16.7111 11.9111 15.5822 11.9111 14.4533C11.9111 14.1778 11.9111 13.9022 11.9111 13.6178C11.9111 13.5378 11.9111 13.5111 12.0178 13.5111H13.0667C13.1822 13.5111 13.2178 13.5111 13.2178 13.6533C13.2178 14.1511 13.2178 14.6489 13.2178 15.1556C13.2178 15.6622 13.2178 15.9822 13.2178 16.3911C13.2128 16.4145 13.2128 16.4388 13.2178 16.4622C13.2714 16.405 13.3191 16.3424 13.36 16.2756L14.2489 15.0044C14.2663 14.9777 14.29 14.9556 14.3179 14.9401C14.3458 14.9246 14.377 14.9162 14.4089 14.9156C14.8267 14.9156 15.2445 14.9156 15.6622 14.9156H15.7511C15.7549 14.9421 15.7549 14.969 15.7511 14.9956L15.0045 16C14.8445 16.2044 14.7022 16.4089 14.5422 16.6044C14.3822 16.8 14.48 16.72 14.5422 16.7911L15.7245 18.5689L15.8934 18.8356C15.9378 18.9067 15.8934 18.9511 15.8311 18.9511H14.5245C14.4905 18.946 14.4579 18.9338 14.4289 18.9155C14.3998 18.8971 14.3748 18.8729 14.3556 18.8444C14.1867 18.5956 14.0356 18.3378 13.8756 18.08C13.7156 17.8222 13.6 17.6444 13.4489 17.4044Z" fill="#402000"/>
<path d="M25.5551 15.4578C25.688 15.1808 25.9242 14.967 26.2129 14.8622C26.7827 14.645 27.409 14.6262 27.9907 14.8089C28.2644 14.8829 28.5034 15.0507 28.6659 15.2831C28.8284 15.5154 28.904 15.7975 28.8796 16.08C28.8796 16.9689 28.8796 17.7955 28.8796 18.6578C28.8796 18.7467 28.8796 18.7911 28.7463 18.7911H27.8574C27.7418 18.7911 27.7063 18.7911 27.7151 18.64C27.724 18.4889 27.7151 18.4267 27.7151 18.3289C27.6294 18.4379 27.5374 18.5417 27.4396 18.64C27.1875 18.837 26.8691 18.9293 26.5507 18.8978C26.2762 18.896 26.0078 18.8158 25.7774 18.6667C25.6345 18.566 25.5173 18.433 25.4354 18.2786C25.3536 18.1241 25.3093 17.9525 25.3063 17.7778C25.2981 17.5826 25.3221 17.3874 25.3774 17.2C25.4243 17.068 25.4995 16.9479 25.5978 16.8481C25.6961 16.7483 25.815 16.6712 25.9463 16.6222L26.1774 16.5333H26.2929H26.5418H27.2351C27.6529 16.5333 27.6529 16.5333 27.6618 16.1867C27.6691 16.0779 27.6397 15.9698 27.5785 15.8797C27.5173 15.7895 27.4278 15.7223 27.324 15.6889C27.2568 15.6538 27.1821 15.6355 27.1063 15.6355C27.0304 15.6355 26.9557 15.6538 26.8885 15.6889L26.7907 15.7422V15.7867C26.762 15.8565 26.7197 15.92 26.6663 15.9733C26.5951 15.9733 25.564 16.0267 25.564 16.0267C25.564 16.0267 25.5018 15.9378 25.5107 15.8933C25.5229 15.7852 25.5437 15.6781 25.5729 15.5733V15.4755L25.5551 15.4578ZM27.6529 17.4578V17.2444C27.6529 17.1555 27.6529 17.1289 27.5285 17.1289C27.404 17.1289 27.1907 17.1289 27.0218 17.1289C26.9365 17.1245 26.8517 17.1448 26.7776 17.1874C26.7035 17.2299 26.6432 17.2929 26.604 17.3689C26.5717 17.4353 26.5604 17.51 26.5715 17.583C26.5826 17.656 26.6157 17.7239 26.6663 17.7778C26.7516 17.8699 26.865 17.9311 26.9888 17.952C27.1126 17.9729 27.2399 17.9523 27.3507 17.8933C27.4465 17.8599 27.5284 17.7954 27.5832 17.71C27.638 17.6246 27.6625 17.5232 27.6529 17.4222V17.4578Z" fill="#402000"/>
<path d="M18.1063 18.4533C18.0619 18.4533 18.0441 18.4533 18.0352 18.5067C17.9438 18.6597 17.8133 18.7857 17.657 18.8716C17.5008 18.9575 17.3246 19.0003 17.1463 18.9956C16.9428 19.0322 16.7335 19.0215 16.5347 18.9645C16.3359 18.9075 16.1529 18.8056 15.9997 18.6667C15.8137 18.4847 15.7001 18.2416 15.6797 17.9822C15.6457 17.8108 15.6487 17.6341 15.6886 17.4639C15.7284 17.2937 15.8042 17.1341 15.9108 16.9956C16.0924 16.7861 16.3463 16.6528 16.6219 16.6222C17.0219 16.5778 17.4219 16.5778 17.8219 16.5689C17.9997 16.5689 18.0086 16.5689 17.9997 16.3911V16.1244C17.9993 16.0428 17.9708 15.9637 17.919 15.9006C17.8672 15.8375 17.7952 15.7941 17.7152 15.7778C17.6541 15.7501 17.5881 15.7351 17.521 15.7336C17.454 15.7321 17.3873 15.7442 17.3251 15.7691C17.2628 15.794 17.2062 15.8312 17.1587 15.8785C17.1112 15.9259 17.0737 15.9823 17.0486 16.0444C17.0279 16.072 17.001 16.0944 16.9702 16.1099C16.9393 16.1253 16.9053 16.1333 16.8708 16.1333C16.5686 16.1333 16.2752 16.1333 15.9819 16.1333C15.9819 16.1333 15.9108 16.1333 15.893 16.1333C15.8752 16.1333 15.7952 16.0711 15.8041 16.0444C15.8223 15.7462 15.9488 15.4649 16.1597 15.2533C16.5201 14.9318 16.9929 14.7657 17.4752 14.7911C17.8897 14.7586 18.3051 14.8417 18.6752 15.0311C18.8293 15.1168 18.9606 15.2382 19.058 15.3852C19.1555 15.5321 19.2162 15.7003 19.2352 15.8756C19.2781 16.3098 19.2989 16.7459 19.2974 17.1822C19.2974 17.6889 19.2974 18.1956 19.2974 18.6933C19.2974 18.88 19.2974 18.88 19.1108 18.88H18.2219C18.133 18.88 18.0886 18.88 18.0886 18.7644C18.1021 18.6613 18.1081 18.5573 18.1063 18.4533ZM18.0441 17.5644C18.0396 17.5053 18.0396 17.4458 18.0441 17.3867C18.0441 17.2711 17.9997 17.2267 17.8752 17.2356C17.7508 17.2444 17.573 17.2356 17.4219 17.2356C17.339 17.2362 17.2572 17.2544 17.1819 17.2889C17.1074 17.3211 17.0454 17.3766 17.0053 17.4472C16.9652 17.5178 16.9492 17.5995 16.9597 17.68C16.9785 17.78 17.0266 17.8722 17.0978 17.945C17.1689 18.0178 17.2601 18.0678 17.3597 18.0889C17.4405 18.1 17.5227 18.0947 17.6014 18.0732C17.6802 18.0518 17.7537 18.0146 17.8177 17.9639C17.8816 17.9132 17.9346 17.8502 17.9736 17.7784C18.0125 17.7067 18.0365 17.6279 18.0441 17.5467V17.5644Z" fill="#402000"/>
<path d="M8.77344 19.0311C8.77344 19.0311 9.0401 18.96 9.15566 18.9155C9.33156 18.8221 9.471 18.6723 9.55159 18.4902C9.63218 18.308 9.64927 18.1041 9.6001 17.9111C9.48399 17.6607 9.3534 17.4174 9.20899 17.1822L8.98677 16.8089C8.98677 16.8089 8.98677 15.5822 8.98677 15.0311C8.98677 14.9511 8.98677 14.9067 9.09344 14.9067C9.45788 14.9067 9.83122 14.9067 10.1957 14.9067C10.3023 14.9067 10.3201 14.9511 10.3112 15.04V15.4222C10.299 15.4567 10.299 15.4944 10.3112 15.5289C10.3557 15.4311 10.409 15.3422 10.4623 15.2444C10.5879 15.0824 10.7593 14.9618 10.9543 14.8984C11.1492 14.835 11.3588 14.8317 11.5557 14.8889C11.5557 14.8889 11.6445 14.96 11.6445 15.0044C11.6445 15.3067 11.6445 15.6089 11.6445 15.8933C11.6445 15.9911 11.5823 15.9733 11.5201 15.9644C11.2946 15.9156 11.0612 15.9156 10.8357 15.9644C10.7101 15.9985 10.5975 16.0691 10.5121 16.1672C10.4266 16.2653 10.3722 16.3865 10.3557 16.5155C10.3333 16.7431 10.3333 16.9724 10.3557 17.2C10.3557 17.7511 10.3557 18.2933 10.3557 18.8355C10.3557 18.9422 10.2845 18.9422 10.2134 18.9422H9.5201L8.77344 19.0311Z" fill="#402000"/>
<path d="M24.1155 18.8444C23.7777 18.8444 23.7866 18.8444 23.7866 18.5955C23.7866 18 23.7866 15.5822 23.7422 14.9689C23.7422 14.8533 23.7422 14.8267 23.8844 14.8267C24.2311 14.8267 24.5777 14.8267 24.9155 14.8267C25.0577 14.8267 25.0844 14.8267 25.0844 14.9867C25.0844 15.36 25.0844 15.7422 25.0844 16.1155C25.0844 16.8089 25.0844 17.4933 25.0844 18.1778V18.7467C25.0844 18.8089 25.0844 18.8444 24.9866 18.8444H24.1155Z" fill="#402000"/>
<path d="M25.031 13.6711C25.0169 13.7983 24.965 13.9183 24.882 14.0157C24.799 14.1131 24.6887 14.1834 24.5653 14.2175C24.442 14.2515 24.3112 14.2479 24.19 14.2069C24.0688 14.1659 23.9626 14.0896 23.8852 13.9877C23.8078 13.8858 23.7627 13.763 23.7558 13.6352C23.7489 13.5074 23.7804 13.3805 23.8464 13.2708C23.9123 13.1612 24.0096 13.0738 24.1257 13.0199C24.2418 12.9661 24.3713 12.9483 24.4977 12.9689C24.6568 13.0009 24.7988 13.0899 24.897 13.2192C24.9952 13.3485 25.0428 13.5092 25.031 13.6711Z" fill="url(#paint2_linear_2707_348818)"/>
<path d="M4.30225 21.44H3.99114V21.2622C3.94223 21.3294 3.87831 21.3842 3.80447 21.4222C3.74217 21.4576 3.67167 21.476 3.60003 21.4756C3.52838 21.4763 3.45751 21.4606 3.39281 21.4298C3.32812 21.399 3.27131 21.3538 3.22669 21.2978C3.11344 21.1609 3.05627 20.9862 3.06669 20.8089C3.05633 20.633 3.11001 20.4593 3.2178 20.32C3.26654 20.2672 3.32562 20.2249 3.39137 20.1958C3.45712 20.1668 3.52814 20.1516 3.60003 20.1511C3.67018 20.1517 3.7393 20.168 3.80236 20.1988C3.86541 20.2295 3.92079 20.274 3.96447 20.3289V19.7067H4.30225V21.44ZM3.41336 20.7822C3.40474 20.883 3.42315 20.9843 3.46669 21.0756C3.48709 21.1167 3.51887 21.1512 3.55826 21.1748C3.59765 21.1984 3.643 21.2103 3.68892 21.2089C3.7268 21.2086 3.76412 21.1996 3.79801 21.1826C3.8319 21.1657 3.86147 21.1412 3.88447 21.1111C3.94479 21.0258 3.97312 20.9219 3.96447 20.8178C3.97197 20.7093 3.94723 20.6011 3.89336 20.5067C3.86542 20.4828 3.83283 20.4649 3.79764 20.4542C3.76246 20.4435 3.72544 20.4402 3.68892 20.4444C3.65103 20.4448 3.61372 20.4538 3.57983 20.4707C3.54594 20.4877 3.51636 20.5121 3.49336 20.5422C3.44199 20.6118 3.41399 20.6958 3.41336 20.7822Z" fill="#402000"/>
<path d="M5.55566 20.0089V19.7067H5.88455V20.0089H5.55566ZM5.55566 21.44V20.1867H5.88455V21.44H5.55566Z" fill="#402000"/>
<path d="M7.11139 21.5289L7.49361 21.5733C7.49361 21.6178 7.49361 21.6445 7.53805 21.6622C7.58688 21.6799 7.64034 21.6799 7.68916 21.6622C7.75339 21.6781 7.82049 21.6781 7.88472 21.6622C7.91422 21.6398 7.93597 21.6087 7.94694 21.5733C7.95492 21.5233 7.95492 21.4723 7.94694 21.4222V21.2356C7.90598 21.2994 7.84935 21.3518 7.78244 21.3875C7.71554 21.4233 7.64058 21.4414 7.56472 21.44C7.48534 21.4418 7.40683 21.4231 7.33677 21.3858C7.26671 21.3484 7.20746 21.2936 7.16472 21.2267C7.10347 21.0965 7.08481 20.9503 7.11139 20.8089C7.10102 20.633 7.1547 20.4594 7.2625 20.32C7.31123 20.2672 7.37031 20.2249 7.43606 20.1959C7.50181 20.1668 7.57284 20.1516 7.64472 20.1511C7.72126 20.1515 7.79645 20.1713 7.86329 20.2086C7.93012 20.2459 7.98642 20.2995 8.02694 20.3645V20.1867H8.33805V21.3333C8.35596 21.4422 8.35596 21.5533 8.33805 21.6622C8.32023 21.7285 8.28669 21.7895 8.24028 21.84C8.18851 21.8847 8.12794 21.918 8.0625 21.9378C7.9683 21.9531 7.87225 21.9531 7.77805 21.9378C7.61939 21.9521 7.46035 21.9147 7.32472 21.8311C7.27009 21.8075 7.22207 21.7708 7.18489 21.7243C7.1477 21.6778 7.12246 21.6229 7.11139 21.5645V21.5289ZM7.40472 20.7911C7.39607 20.8953 7.4244 20.9991 7.48472 21.0845C7.50889 21.1142 7.53938 21.1381 7.57398 21.1546C7.60858 21.1711 7.64641 21.1796 7.68472 21.1796C7.72303 21.1796 7.76086 21.1711 7.79546 21.1546C7.83006 21.1381 7.86055 21.1142 7.88472 21.0845C7.95872 21.0083 8.00017 20.9062 8.00028 20.8C8.00892 20.6959 7.9806 20.592 7.92028 20.5067C7.89009 20.4777 7.85308 20.4568 7.81269 20.446C7.7723 20.4351 7.72981 20.4346 7.68916 20.4445C7.65128 20.4448 7.61397 20.4538 7.58008 20.4707C7.54619 20.4877 7.51661 20.5121 7.49361 20.5422C7.441 20.6145 7.41296 20.7017 7.41361 20.7911H7.40472Z" fill="#402000"/>
<path d="M9.55566 20.0089V19.7067H9.89344V20.0089H9.55566ZM9.55566 21.44V20.1867H9.89344V21.44H9.55566Z" fill="#402000"/>
<path d="M11.7336 20.1867V20.4444H11.5558V21.1289C11.5729 21.1358 11.592 21.1358 11.6091 21.1289H11.7425V21.3867C11.6615 21.4232 11.5735 21.4414 11.4847 21.44C11.4288 21.4493 11.3717 21.4493 11.3158 21.44C11.2734 21.4239 11.2364 21.3962 11.2091 21.36C11.1863 21.3219 11.1712 21.2796 11.1647 21.2356C11.1584 21.1557 11.1584 21.0754 11.1647 20.9956V20.4444H11.0225V20.1778H11.1736V19.7333H11.5558V20.1778L11.7336 20.1867Z" fill="#402000"/>
<path d="M13.1375 20.5688L12.8353 20.5155C12.8596 20.4053 12.9227 20.3076 13.0131 20.24C13.1235 20.1761 13.25 20.1452 13.3775 20.1511C13.4926 20.1446 13.6078 20.1628 13.7153 20.2044C13.7787 20.2314 13.8317 20.2782 13.8664 20.3377C13.9005 20.4347 13.9156 20.5373 13.9108 20.64V21.0311C13.9 21.1107 13.9 21.1914 13.9108 21.2711C13.9205 21.3296 13.9384 21.3865 13.9642 21.44H13.6353C13.6319 21.4075 13.6319 21.3747 13.6353 21.3422C13.5843 21.3944 13.524 21.4366 13.4575 21.4666C13.3899 21.495 13.3175 21.5101 13.2442 21.5111C13.1892 21.5141 13.1343 21.5062 13.0824 21.4879C13.0306 21.4696 12.9828 21.4412 12.9419 21.4044C12.9041 21.3714 12.874 21.3303 12.854 21.2841C12.834 21.238 12.8246 21.188 12.8264 21.1377C12.8262 21.0689 12.8447 21.0014 12.8797 20.9422C12.9135 20.8873 12.9631 20.844 13.0219 20.8177L13.2886 20.7377C13.3979 20.7232 13.5053 20.6963 13.6086 20.6577C13.625 20.6148 13.625 20.5673 13.6086 20.5244C13.5739 20.4878 13.5301 20.4612 13.4817 20.4471C13.4332 20.4331 13.382 20.4321 13.3331 20.4444C13.2869 20.4288 13.237 20.4288 13.1908 20.4444C13.16 20.479 13.1413 20.5227 13.1375 20.5688ZM13.5819 20.8355L13.3775 20.8888C13.3141 20.8948 13.253 20.9162 13.1997 20.9511C13.1796 20.9626 13.1631 20.9796 13.1521 21C13.1411 21.0204 13.1361 21.0435 13.1375 21.0666C13.1368 21.0887 13.1413 21.1106 13.1505 21.1307C13.1598 21.1508 13.1736 21.1684 13.1908 21.1822C13.2074 21.2008 13.228 21.2154 13.2512 21.2246C13.2743 21.2339 13.2993 21.2376 13.3242 21.2355C13.3844 21.2345 13.4431 21.2159 13.4931 21.1822C13.5275 21.1497 13.5548 21.1103 13.5731 21.0666C13.5793 21.0135 13.5793 20.9598 13.5731 20.9066L13.5819 20.8355Z" fill="#402000"/>
<path d="M15.5018 19.7067H15.1641V21.4489H15.5018V19.7067Z" fill="#402000"/>
<path d="M18.3379 20.1866H18.6668V20.3555C18.7141 20.294 18.7746 20.2437 18.8438 20.2083C18.913 20.173 18.9891 20.1534 19.0668 20.1511C19.1387 20.1483 19.2098 20.1669 19.2712 20.2044C19.3341 20.2405 19.3863 20.2927 19.4223 20.3555C19.4703 20.2932 19.5309 20.2418 19.6001 20.2044C19.6624 20.169 19.7329 20.1507 19.8046 20.1511C19.8857 20.1516 19.9653 20.173 20.0357 20.2133C20.0689 20.2291 20.0985 20.2515 20.123 20.2789C20.1474 20.3064 20.1661 20.3385 20.1779 20.3733C20.1961 20.4613 20.1961 20.552 20.1779 20.64V21.44H19.849V20.72C19.8697 20.6413 19.8697 20.5586 19.849 20.48C19.833 20.4574 19.8116 20.439 19.7868 20.4266C19.762 20.4142 19.7345 20.4081 19.7068 20.4089C19.6568 20.4103 19.6084 20.4274 19.5686 20.4577C19.5287 20.488 19.4994 20.53 19.4846 20.5778C19.472 20.6632 19.472 20.7501 19.4846 20.8355V21.44H19.1557V20.7555C19.1639 20.6758 19.1639 20.5953 19.1557 20.5155C19.1393 20.4954 19.119 20.4788 19.0961 20.4666C19.0733 20.4544 19.0482 20.4468 19.0223 20.4444C18.9908 20.4329 18.9561 20.4329 18.9246 20.4444C18.8739 20.4454 18.8246 20.4608 18.7823 20.4889C18.7414 20.5172 18.7104 20.5576 18.6934 20.6044C18.6807 20.6929 18.6807 20.7827 18.6934 20.8711V21.4755H18.3646L18.3379 20.1866Z" fill="#402000"/>
<path d="M22.2224 21.04L22.5513 21.1022C22.5148 21.2138 22.443 21.3105 22.3469 21.3778C22.2442 21.4453 22.1231 21.4795 22.0002 21.4755C21.9079 21.4826 21.8153 21.4658 21.7313 21.4269C21.6472 21.388 21.5746 21.3283 21.5202 21.2533C21.4305 21.1298 21.3865 20.979 21.3957 20.8266C21.3857 20.6466 21.4427 20.4693 21.5557 20.3289C21.6088 20.2713 21.6734 20.2256 21.7455 20.195C21.8175 20.1643 21.8953 20.1493 21.9735 20.1511C22.0568 20.1478 22.1397 20.1628 22.2165 20.195C22.2933 20.2273 22.3621 20.276 22.418 20.3378C22.5372 20.5021 22.5911 20.7048 22.5691 20.9066H21.6891C21.6841 20.9912 21.7129 21.0743 21.7691 21.1378C21.7937 21.1653 21.8238 21.1875 21.8575 21.2028C21.8912 21.2181 21.9277 21.2262 21.9646 21.2266C22.0127 21.2266 22.0595 21.211 22.098 21.1822C22.1549 21.1509 22.199 21.1006 22.2224 21.04ZM22.2224 20.7022C22.2251 20.663 22.2193 20.6237 22.2055 20.5869C22.1917 20.5501 22.1702 20.5167 22.1424 20.4889C22.1226 20.4631 22.097 20.4424 22.0676 20.4284C22.0383 20.4145 22.006 20.4078 21.9735 20.4089C21.9398 20.4078 21.9062 20.4145 21.8754 20.4283C21.8446 20.4422 21.8174 20.4629 21.7957 20.4889C21.77 20.5177 21.7504 20.5515 21.7382 20.5882C21.726 20.6249 21.7214 20.6637 21.7246 20.7022H22.2224Z" fill="#402000"/>
<path d="M24.8892 21.44H24.5781V21.2622C24.5291 21.3294 24.4652 21.3842 24.3914 21.4222C24.3255 21.4566 24.2524 21.4749 24.1781 21.4756C24.1079 21.4749 24.0388 21.4586 23.9757 21.4279C23.9127 21.3971 23.8573 21.3527 23.8136 21.2978C23.7004 21.1609 23.6432 20.9862 23.6536 20.8089C23.6432 20.633 23.6969 20.4593 23.8047 20.32C23.8528 20.2663 23.9117 20.2234 23.9776 20.1943C24.0435 20.1652 24.1149 20.1505 24.1869 20.1511C24.257 20.1524 24.3259 20.1689 24.3889 20.1996C24.4518 20.2303 24.5073 20.2745 24.5514 20.3289V19.7067H24.8892V21.44ZM24.0003 20.7822C23.9935 20.8839 24.015 20.9854 24.0625 21.0756C24.0829 21.1167 24.1147 21.1512 24.1541 21.1748C24.1935 21.1984 24.2388 21.2103 24.2847 21.2089C24.3226 21.2086 24.3599 21.1996 24.3938 21.1826C24.4277 21.1657 24.4573 21.1412 24.4803 21.1111C24.5406 21.0258 24.5689 20.9219 24.5603 20.8178C24.5701 20.708 24.5419 20.5981 24.4803 20.5067C24.452 20.4805 24.418 20.4612 24.3809 20.4504C24.3439 20.4396 24.3049 20.4376 24.2669 20.4444C24.2278 20.4447 24.1891 20.4536 24.1538 20.4705C24.1185 20.4874 24.0873 20.5119 24.0625 20.5422C24.0174 20.6139 23.9957 20.6977 24.0003 20.7822Z" fill="#402000"/>
<path d="M26.124 20.0089V19.7067H26.4618V20.0089H26.124ZM26.124 21.44V20.1867H26.4618V21.44H26.124Z" fill="#402000"/>
<path d="M27.9735 20.5688L27.6713 20.5155C27.699 20.4068 27.7614 20.31 27.8491 20.24C27.9623 20.1749 28.092 20.144 28.2224 20.1511C28.3346 20.1453 28.4467 20.1635 28.5513 20.2044C28.6147 20.2314 28.6677 20.2782 28.7024 20.3377C28.7411 20.4335 28.7563 20.5371 28.7469 20.64V21.0311C28.736 21.1107 28.736 21.1914 28.7469 21.2711C28.7565 21.3296 28.7744 21.3865 28.8002 21.44H28.4713C28.4583 21.4056 28.4493 21.3698 28.4446 21.3333C28.3936 21.3855 28.3333 21.4277 28.2669 21.4577C28.1996 21.4871 28.1269 21.5022 28.0535 21.5022C27.9986 21.5052 27.9436 21.4973 27.8918 21.479C27.8399 21.4607 27.7922 21.4323 27.7513 21.3955C27.7152 21.361 27.6864 21.3197 27.6665 21.2739C27.6467 21.2281 27.6362 21.1788 27.6357 21.1288C27.6356 21.0601 27.654 20.9925 27.6891 20.9333C27.7229 20.8784 27.7724 20.8351 27.8313 20.8088L28.098 20.7288C28.2178 20.7092 28.3345 20.6734 28.4446 20.6222C28.4548 20.6014 28.4601 20.5786 28.4601 20.5555C28.4601 20.5324 28.4548 20.5096 28.4446 20.4888C28.3925 20.4535 28.3295 20.4378 28.2669 20.4444C28.2207 20.4288 28.1708 20.4288 28.1246 20.4444C28.0641 20.4717 28.0119 20.5147 27.9735 20.5688ZM28.418 20.8355L28.2224 20.8888C28.156 20.8937 28.0918 20.9151 28.0357 20.9511C28.0156 20.9626 27.9992 20.9796 27.9882 21C27.9772 21.0204 27.9721 21.0435 27.9735 21.0666C27.9728 21.0887 27.9773 21.1106 27.9865 21.1307C27.9958 21.1508 28.0096 21.1684 28.0269 21.1822C28.0441 21.1999 28.0649 21.2137 28.0879 21.2229C28.1109 21.2321 28.1355 21.2364 28.1602 21.2355C28.2205 21.2345 28.2791 21.2159 28.3291 21.1822C28.3555 21.1724 28.3796 21.157 28.3995 21.1371C28.4194 21.1171 28.4348 21.0931 28.4446 21.0666C28.4509 21.0135 28.4509 20.9598 28.4446 20.9066L28.418 20.8355Z" fill="#402000"/>
</g>
<defs>
<linearGradient id="paint0_linear_2707_348818" x1="-0.122101" y1="14.5898" x2="3.68234" y2="14.5898" gradientUnits="userSpaceOnUse">
<stop stop-color="#B20000"/>
<stop offset="1" stop-color="#5B0000"/>
</linearGradient>
<linearGradient id="paint1_linear_2707_348818" x1="4.89524" y1="16.2254" x2="8.19302" y2="21.0076" gradientUnits="userSpaceOnUse">
<stop stop-color="#FE7200"/>
<stop offset="1" stop-color="#FEC200"/>
</linearGradient>
<linearGradient id="paint2_linear_2707_348818" x1="23.6257" y1="15.848" x2="24.4169" y2="16.7013" gradientUnits="userSpaceOnUse">
<stop stop-color="#FE5D00"/>
<stop offset="1" stop-color="#FEAF00"/>
</linearGradient>
<clipPath id="clip0_2707_348818">
<rect width="32" height="32" fill="white"/>
</clipPath>
</defs>
</svg>
