<svg width="32" height="32" viewBox="0 0 32 32" fill="none" xmlns="http://www.w3.org/2000/svg">
<g clip-path="url(#clip0_2707_348568)">
<path d="M15.9998 31.9822C24.8265 31.9822 31.982 24.8267 31.982 16C31.982 7.17325 24.8265 0.0177612 15.9998 0.0177612C7.17306 0.0177612 0.0175781 7.17325 0.0175781 16C0.0175781 24.8267 7.17306 31.9822 15.9998 31.9822Z" fill="white"/>
<path d="M3.00391 13.12H7.54613C8.03842 13.108 8.531 13.1228 9.02168 13.1644C9.83057 13.2533 10.3906 13.6266 10.4172 14.5422C10.4439 15.4578 10.4172 16.4622 10.4172 17.4222C10.4256 17.6007 10.3982 17.779 10.3367 17.9468C10.2752 18.1145 10.1809 18.2683 10.0592 18.3991C9.93746 18.5299 9.79087 18.6351 9.62798 18.7085C9.46509 18.782 9.28918 18.8221 9.11057 18.8266C8.89011 18.8621 8.66719 18.8799 8.44391 18.88H3.23502H3.00391V13.12ZM4.1328 18.0355H7.15502C7.60835 18.0355 8.04391 18.0355 8.50613 18.0355C9.14613 18.0355 9.34168 17.7955 9.34168 17.1466V15.1111C9.34168 14.16 9.21724 14.0266 8.25724 14.0266H4.1328V18.0355Z" fill="#1C458D"/>
<path d="M28.9951 18.8889C28.5862 18.8889 28.2307 18.8889 27.8662 18.8889C27.8032 18.8706 27.7474 18.8334 27.7062 18.7822C27.3951 18.3378 27.084 17.8933 26.8173 17.4222C26.2218 16.5333 25.644 15.5556 25.0396 14.6222C24.9685 14.5067 24.8796 14.3911 24.7907 14.2578L22.2929 18.1067C22.124 18.3645 21.9996 18.7111 21.7596 18.8445C21.5196 18.9778 21.1729 18.8889 20.8707 18.8889H20.5596L21.3862 17.6445L24.2396 13.3333C24.2842 13.2668 24.3434 13.2114 24.4128 13.1714C24.4821 13.1313 24.5597 13.1077 24.6396 13.1022C25.1996 12.96 25.3862 13.3867 25.6262 13.7156C25.8662 14.0445 26.1062 14.4889 26.364 14.8711C27.0573 15.9378 27.7596 16.9956 28.4618 18.0533L28.9951 18.8889Z" fill="#1C458D"/>
<path d="M17.7779 17.7778L19.4401 15.1822L20.649 13.3333C20.6785 13.2706 20.727 13.2188 20.7876 13.1853C20.8483 13.1517 20.918 13.1382 20.9868 13.1467H22.0001C21.8366 13.3198 21.6852 13.504 21.5468 13.6978C21.2623 14.1689 21.0134 14.6578 20.729 15.12C20.4446 15.5822 20.2312 15.8045 20.0001 16.1511C19.4401 16.9956 18.8801 17.84 18.329 18.6933C18.2822 18.7645 18.2191 18.8234 18.1448 18.8652C18.0706 18.9069 17.9874 18.9303 17.9023 18.9333C17.4401 18.9956 17.2357 18.7467 17.0134 18.3911C16.2846 17.2533 15.5112 16.1422 14.7646 15.0222C14.3646 14.4178 13.9734 13.8045 13.5557 13.1467C13.9557 13.1467 14.3379 13.1467 14.7112 13.1467C14.7823 13.1467 14.8712 13.2711 14.9246 13.36C15.8579 14.7822 16.7823 16.2133 17.7157 17.6445L17.7779 17.7778Z" fill="#1C458D"/>
<path d="M12.7638 13.1378H11.7061V18.8711H12.7638V13.1378Z" fill="#1C458D"/>
<path d="M26.2304 18.8711C26.1239 18.8775 26.017 18.8775 25.9104 18.8711H23.5904C23.4304 18.8711 23.2615 18.8711 23.3949 18.6311C23.8393 17.9289 24.2838 17.2356 24.7904 16.4889L26.2304 18.8711Z" fill="#FAD00F"/>
</g>
<defs>
<clipPath id="clip0_2707_348568">
<rect width="32" height="32" fill="white"/>
</clipPath>
</defs>
</svg>
