<svg width="32" height="32" viewBox="0 0 32 32" fill="none" xmlns="http://www.w3.org/2000/svg">
<g clip-path="url(#clip0_2707_347408)">
<path d="M15.9998 31.9822C24.8265 31.9822 31.982 24.8267 31.982 16C31.982 7.17326 24.8265 0.0177777 15.9998 0.0177777C7.17306 0.0177777 0.0175781 7.17326 0.0175781 16C0.0175781 24.8267 7.17306 31.9822 15.9998 31.9822Z" fill="white"/>
<path d="M2.66602 15.4667V14.1422C2.66602 13.8578 2.84379 13.6889 3.18157 13.6889C3.40359 13.6756 3.62622 13.6756 3.84824 13.6889C4.12678 13.7113 4.39229 13.8164 4.61081 13.9906C4.82932 14.1647 4.99091 14.4001 5.0749 14.6667C5.25742 15.1752 5.25742 15.7314 5.0749 16.24C5.00834 16.4769 4.87625 16.6901 4.69384 16.8552C4.51143 17.0204 4.2861 17.1306 4.04379 17.1733C3.69829 17.2135 3.34929 17.2135 3.00379 17.1733C2.91776 17.156 2.83916 17.1126 2.77872 17.0489C2.71827 16.9853 2.67891 16.9046 2.66602 16.8178V15.4667ZM3.17268 14.2222V16.7467C3.40379 16.7467 3.61713 16.7467 3.83046 16.7467C3.99097 16.7405 4.1468 16.691 4.28141 16.6033C4.41601 16.5157 4.52435 16.3932 4.5949 16.2489C4.67634 16.0534 4.7273 15.8465 4.74602 15.6356C4.7932 15.3576 4.75282 15.0718 4.63046 14.8178C4.3549 14.2222 3.91046 14.1067 3.16379 14.2222H3.17268Z" fill="#4C4C4C"/>
<path d="M13.9105 17.2267H13.555C13.4641 17.2368 13.3726 17.2148 13.2962 17.1645C13.2199 17.1141 13.1636 17.0386 13.1372 16.9511C13.1287 16.9011 13.1287 16.85 13.1372 16.8C13.1372 15.9556 13.1372 15.12 13.1372 14.2844C13.1355 14.1746 13.1567 14.0656 13.1994 13.9644C13.2281 13.8728 13.2888 13.7946 13.3704 13.744C13.452 13.6934 13.549 13.6738 13.6439 13.6889C13.8839 13.6889 14.1328 13.6889 14.3728 13.6889C14.5898 13.7057 14.7989 13.7784 14.9795 13.8999C15.1602 14.0214 15.3064 14.1875 15.4039 14.3822C15.5652 14.6612 15.6632 14.9722 15.6909 15.2933C15.7185 15.6144 15.6752 15.9376 15.5639 16.24C15.4884 16.466 15.3538 16.6676 15.1741 16.8239C14.9943 16.9803 14.7759 17.0856 14.5416 17.1289C14.355 17.1289 14.1594 17.1289 13.9728 17.1822L13.9105 17.2267ZM13.5816 14.1689C13.514 15.0238 13.514 15.8828 13.5816 16.7378H14.0528C14.2776 16.7742 14.5079 16.7287 14.702 16.6096C14.8962 16.4905 15.0411 16.3058 15.1105 16.0889C15.2441 15.6879 15.2441 15.2544 15.1105 14.8533C15.0656 14.6859 14.9726 14.5352 14.8431 14.4199C14.7136 14.3046 14.5532 14.2297 14.3816 14.2044C14.1162 14.173 13.8488 14.1611 13.5816 14.1689Z" fill="#4C4C4C"/>
<path d="M22.2221 20.2489C22.9162 19.9945 23.5784 19.6604 24.1954 19.2533C24.8841 19.5392 25.6073 19.7334 26.3465 19.8311C25.8363 20.2392 25.302 20.6162 24.7465 20.96C24.6327 21.0365 24.5018 21.0838 24.3654 21.0978C24.229 21.1117 24.0912 21.0919 23.9643 21.04C23.511 20.8444 22.3287 20.3644 22.1865 20.2933L22.2221 20.2489Z" fill="#36A5DD"/>
<path d="M25.9913 14.0711L24.1602 12.9867L24.6135 12.6933C25.0135 12.4622 25.4224 12.24 25.8313 12.0178C25.8892 11.9752 25.9593 11.9522 26.0313 11.9522C26.1032 11.9522 26.1733 11.9752 26.2313 12.0178C26.5602 12.2844 26.8802 12.56 27.2002 12.8356C27.2376 12.8762 27.2704 12.9209 27.2979 12.9689C26.9178 13.3974 26.4777 13.7687 25.9913 14.0711Z" fill="#97CC4F"/>
<path d="M25.991 14.5511C26.2132 14.7289 26.4177 14.8889 26.6132 15.0578L27.1554 15.5378C27.1772 15.5501 27.196 15.5671 27.2104 15.5876C27.2249 15.608 27.2346 15.6315 27.2388 15.6561C27.2431 15.6808 27.2418 15.7061 27.235 15.7302C27.2283 15.7543 27.2163 15.7767 27.1999 15.7956C26.8889 16.2223 26.5377 16.6182 26.151 16.9778L24.4443 15.9378L25.991 14.5511Z" fill="#5BB245"/>
<path d="M24.6045 19.0222L26.3112 17.5378L27.7512 18.3378C27.731 18.384 27.7072 18.4286 27.68 18.4711C27.3956 18.7911 27.12 19.1111 26.8445 19.44C26.7876 19.5138 26.7086 19.5675 26.619 19.5931C26.5294 19.6187 26.434 19.6149 26.3467 19.5822L24.7112 19.0667L24.6045 19.0222Z" fill="#36A5DD"/>
<path d="M7.7333 16.0889H5.83108C5.82625 16.2048 5.85058 16.32 5.90183 16.4241C5.95307 16.5281 6.0296 16.6176 6.12441 16.6844C6.19393 16.7489 6.27672 16.7973 6.36697 16.8263C6.45721 16.8554 6.55272 16.8642 6.64677 16.8524C6.74082 16.8405 6.83113 16.8082 6.91135 16.7577C6.99157 16.7072 7.05974 16.6397 7.11108 16.56C7.27108 16.3556 7.31552 16.3467 7.62663 16.4089C7.5844 16.629 7.47712 16.8313 7.31865 16.9898C7.16019 17.1483 6.95783 17.2555 6.73774 17.2978C6.57794 17.3148 6.41636 17.2983 6.2633 17.2493C6.11025 17.2003 5.96909 17.1199 5.84885 17.0133C5.67613 16.8597 5.54428 16.6655 5.46516 16.4483C5.38603 16.2311 5.3621 15.9976 5.39552 15.7689C5.43208 15.4143 5.58166 15.0809 5.82219 14.8178C6.02518 14.6259 6.29394 14.5189 6.5733 14.5189C6.85265 14.5189 7.12141 14.6259 7.32441 14.8178C7.52503 15.0443 7.65212 15.3263 7.68885 15.6267C7.70663 15.7689 7.72441 15.92 7.7333 16.0889ZM7.22663 15.6089C7.20661 15.429 7.11957 15.2633 6.98285 15.1447C6.84613 15.0261 6.66976 14.9633 6.48885 14.9689C6.33024 14.9907 6.18383 15.066 6.07389 15.1824C5.96396 15.2988 5.89711 15.4493 5.88441 15.6089H7.22663Z" fill="#4C4C4C"/>
<path d="M22.9779 14.8444C23.1024 14.7378 23.1824 14.5867 23.3957 14.6222V17.2089C23.1646 17.2089 23.1024 17.0489 22.969 16.9511L22.8624 17.0222C22.6593 17.1941 22.3985 17.2823 22.1328 17.2691C21.8671 17.2559 21.6163 17.1422 21.4313 16.9511C21.2654 16.7724 21.1456 16.556 21.0821 16.3206C21.0186 16.0852 21.0134 15.8379 21.0668 15.6C21.1028 15.3414 21.2106 15.0981 21.3779 14.8978C21.467 14.7903 21.5766 14.7017 21.7003 14.6372C21.824 14.5726 21.9594 14.5334 22.0985 14.5218C22.2375 14.5102 22.3775 14.5265 22.5102 14.5697C22.6429 14.6129 22.7657 14.6821 22.8713 14.7733L22.9779 14.8444ZM21.449 16C21.4471 16.1227 21.4705 16.2445 21.518 16.3577C21.5654 16.4709 21.6357 16.5731 21.7246 16.6578C21.8374 16.7764 21.9885 16.8512 22.1512 16.8691C22.3139 16.887 22.4776 16.8468 22.6135 16.7556C22.7121 16.6922 22.7964 16.6088 22.8607 16.5108C22.925 16.4128 22.968 16.3024 22.9868 16.1867C23.0526 15.9948 23.0552 15.7869 22.9945 15.5934C22.9337 15.4 22.8127 15.231 22.649 15.1111C22.5287 14.998 22.3698 14.935 22.2046 14.935C22.0394 14.935 21.8805 14.998 21.7602 15.1111C21.6396 15.2084 21.5449 15.3339 21.4844 15.4766C21.4239 15.6192 21.3996 15.7746 21.4135 15.9289L21.449 16Z" fill="#4C4C4C"/>
<path d="M11.7685 14.8533C11.8841 14.72 11.9641 14.6044 12.1508 14.6222C12.2174 15.4802 12.2174 16.342 12.1508 17.2C12.0263 17.2 12.0263 17.2 11.7508 16.96L11.4485 17.1733C11.3251 17.2392 11.1887 17.2774 11.049 17.2851C10.9093 17.2927 10.7696 17.2698 10.6397 17.2178C10.4464 17.1481 10.2744 17.0297 10.1405 16.8739C10.0065 16.7181 9.91516 16.5304 9.87521 16.3289C9.81532 16.109 9.80257 15.8789 9.83781 15.6537C9.87304 15.4285 9.95545 15.2133 10.0797 15.0222C10.1559 14.8929 10.2592 14.7817 10.3826 14.6961C10.5059 14.6106 10.6462 14.5527 10.794 14.5265C10.9418 14.5004 11.0935 14.5065 11.2387 14.5445C11.3839 14.5825 11.5192 14.6514 11.6352 14.7467L11.7685 14.8533ZM11.7685 15.9022C11.7825 15.6847 11.7161 15.4696 11.5819 15.2978C11.5141 15.1978 11.4216 15.117 11.3134 15.0632C11.2052 15.0094 11.085 14.9844 10.9643 14.9906C10.8437 14.9969 10.7267 15.0342 10.6246 15.0989C10.5226 15.1636 10.439 15.2535 10.3819 15.36C10.2856 15.5212 10.2347 15.7055 10.2347 15.8933C10.2347 16.0811 10.2856 16.2654 10.3819 16.4267C10.4384 16.5374 10.5234 16.6311 10.628 16.6983C10.7326 16.7654 10.8532 16.8036 10.9774 16.8089C11.1003 16.8165 11.223 16.7907 11.3325 16.7344C11.442 16.6781 11.5343 16.5933 11.5997 16.4889C11.7233 16.3189 11.7859 16.1122 11.7774 15.9022H11.7685Z" fill="#4C4C4C"/>
<path d="M17.3504 14.5867H17.7771V17.2C17.5638 17.2 17.5104 17.0578 17.3682 16.9956C17.226 16.9333 17.306 16.9956 17.2971 17.04C17.2116 17.1353 17.1045 17.2087 16.9848 17.254C16.8651 17.2993 16.7362 17.3152 16.6091 17.3004C16.4819 17.2856 16.3602 17.2405 16.2541 17.1689C16.148 17.0973 16.0606 17.0013 15.9993 16.8889C15.8772 16.6557 15.8132 16.3965 15.8127 16.1333C15.8127 15.6889 15.8127 15.2444 15.8127 14.8089C15.8033 14.75 15.8033 14.69 15.8127 14.6311H16.2215C16.2215 14.7644 16.2215 14.88 16.2215 14.9867C16.2215 15.4489 16.2215 15.8756 16.2215 16.3733C16.2321 16.5164 16.2918 16.6514 16.3904 16.7556C16.4428 16.8128 16.5083 16.8566 16.5813 16.883C16.6543 16.9094 16.7326 16.9177 16.8095 16.9072C16.8864 16.8967 16.9596 16.8677 17.0229 16.8228C17.0861 16.7778 17.1375 16.7181 17.1727 16.6489C17.2491 16.4969 17.2916 16.3301 17.2971 16.16C17.2971 15.7244 17.2971 15.2711 17.2971 14.8444C17.3415 14.72 17.3504 14.6578 17.3504 14.5867Z" fill="#4C4C4C"/>
<path d="M20.0265 17.2089H19.6532C19.6492 17.1378 19.6492 17.0666 19.6532 16.9956C19.6532 16.5422 19.6532 16.1067 19.6532 15.6267C19.6424 15.5001 19.6186 15.375 19.5821 15.2533C19.5455 15.1615 19.4815 15.0832 19.3988 15.0291C19.3161 14.975 19.2186 14.9478 19.1199 14.9511C19.0308 14.9451 18.942 14.9655 18.8645 15.0098C18.787 15.0541 18.7243 15.1203 18.6843 15.2C18.6169 15.3553 18.5749 15.5203 18.5599 15.6889C18.5599 16.1156 18.5599 16.5778 18.5599 16.9867C18.5636 17.0607 18.5636 17.1349 18.5599 17.2089H18.1865V14.5867C18.3999 14.5867 18.4443 14.7467 18.5954 14.8533C18.6641 14.7654 18.7449 14.6875 18.8354 14.6222C18.9928 14.5363 19.175 14.5071 19.3514 14.5394C19.5277 14.5718 19.6877 14.6638 19.8043 14.8C19.9784 15.0033 20.0759 15.2612 20.0799 15.5289C20.0799 16.0356 20.0799 16.5333 20.0799 17.04L20.0265 17.2089Z" fill="#4C4C4C"/>
<path d="M27.5552 13.1733L28.3196 14.0622L27.5285 15.3778L26.293 14.3111C26.6663 13.9111 27.1019 13.5733 27.5552 13.1733Z" fill="#5BB245"/>
<path d="M27.5554 16C27.7154 16.16 27.8843 16.3111 28.0265 16.48C28.1794 16.6645 28.3218 16.8574 28.4532 17.0578C28.4665 17.0808 28.4734 17.1068 28.4734 17.1333C28.4734 17.1599 28.4665 17.1859 28.4532 17.2089C28.2754 17.52 28.0799 17.8222 27.8754 18.16L26.5332 17.2711L27.5554 16Z" fill="#8FCCBB"/>
<path d="M28.1329 19.9022C28.0084 20.0622 27.9196 20.2044 27.804 20.3289C27.6885 20.4533 27.4218 20.7467 27.2173 20.96C27.158 21.0172 27.0843 21.0571 27.004 21.0756C26.4044 21.2505 25.7771 21.3108 25.1551 21.2533H24.9951C25.0449 21.2127 25.0984 21.1769 25.1551 21.1467C25.7147 20.8366 26.2393 20.4671 26.7196 20.0444C26.7647 19.999 26.8189 19.9636 26.8786 19.9406C26.9384 19.9177 27.0023 19.9076 27.0662 19.9111C27.3418 19.9111 27.6173 19.9111 27.8929 19.9111L28.1329 19.9022Z" fill="#36A5DD"/>
<path d="M27.4574 11.4311L27.0485 11.52L26.3197 11.6533C26.2532 11.6751 26.1816 11.6751 26.1152 11.6533C25.6087 11.3389 25.0653 11.0881 24.4974 10.9067L24.2485 10.8178L24.2041 10.7644C24.4174 10.7111 24.613 10.6489 24.8174 10.6133C25.1948 10.5278 25.5781 10.4713 25.9641 10.4444C26.5185 10.6783 27.0249 11.0128 27.4574 11.4311Z" fill="#97CC4F"/>
<path d="M21.3955 10.6667L21.52 10.5778C22.0991 10.2645 22.7181 10.0313 23.36 9.88444C23.6513 9.81729 23.9522 9.80224 24.2488 9.84C24.7517 9.89092 25.2452 10.0106 25.7155 10.1956H25.3688C24.7818 10.2203 24.2012 10.328 23.6444 10.5156C23.5684 10.533 23.4893 10.533 23.4133 10.5156C22.7483 10.4161 22.0708 10.4371 21.4133 10.5778C21.4133 10.5778 21.4311 10.6667 21.3955 10.6667Z" fill="#97CC4F"/>
<path d="M22.2217 21.84C22.922 21.7947 23.6159 21.6785 24.2928 21.4933C24.3803 21.4711 24.472 21.4711 24.5595 21.4933C25.2368 21.5505 25.9177 21.5505 26.595 21.4933C26.0397 21.7413 25.4698 21.955 24.8883 22.1333C24.1767 22.1955 23.46 22.1686 22.755 22.0533L22.2217 21.8933V21.84Z" fill="#36A5DD"/>
<path d="M22.2221 20.2489L26.3465 19.8311C25.8326 20.2342 25.2986 20.611 24.7465 20.96C24.6327 21.0365 24.5018 21.0838 24.3654 21.0978C24.229 21.1117 24.0912 21.0919 23.9643 21.04C23.511 20.8444 22.3287 20.3644 22.1865 20.2933L22.2221 20.2489Z" fill="#018297"/>
<path d="M24.6045 19.0222L27.7512 18.3378L27.68 18.4711C27.3956 18.7911 27.12 19.1111 26.8445 19.44C26.7876 19.5138 26.7086 19.5675 26.619 19.5931C26.5294 19.6187 26.434 19.6149 26.3467 19.5822L24.7112 19.0667L24.6045 19.0222Z" fill="#018297"/>
<path d="M28.1329 19.9022C28.0084 20.0622 27.9196 20.2044 27.804 20.3289C27.6885 20.4533 27.4218 20.7467 27.2173 20.96C27.158 21.0172 27.0843 21.0571 27.004 21.0756C26.4044 21.2505 25.7771 21.3108 25.1551 21.2533H24.9951C26.0783 20.895 27.1282 20.4429 28.1329 19.9022Z" fill="#018297"/>
<path d="M22.2217 21.84C22.9144 21.8812 23.609 21.8812 24.3017 21.84C25.0722 21.765 25.8379 21.6463 26.595 21.4844C26.0399 21.7354 25.47 21.9521 24.8883 22.1333C24.1767 22.1955 23.46 22.1686 22.755 22.0533L22.2217 21.8933V21.84Z" fill="#018297"/>
<path d="M28.5868 16.7556L28.4446 16.6222C28.2224 16.3378 28.018 16.0444 27.7957 15.7333C27.7611 15.6906 27.7422 15.6372 27.7422 15.5822C27.7422 15.5272 27.7611 15.4739 27.7957 15.4311C27.9913 15.0756 28.1602 14.72 28.3468 14.3556C28.3653 14.3195 28.3893 14.2865 28.418 14.2578C28.4552 14.2921 28.488 14.3309 28.5157 14.3733C28.6935 14.6756 28.8713 14.9867 29.0402 15.2622C29.0698 15.3364 29.0698 15.4192 29.0402 15.4933C28.9246 15.8489 28.7913 16.1867 28.6668 16.5333C28.6555 16.6121 28.6283 16.6877 28.5868 16.7556Z" fill="#5BB245"/>
<path d="M9.00437 15.0133H8.70215V14.64H8.98659C8.98659 14.3733 8.98659 14.0978 8.98659 13.8133C9.03826 13.8109 9.08988 13.819 9.13833 13.8372C9.18677 13.8553 9.23103 13.8831 9.26843 13.9188C9.30583 13.9545 9.33558 13.9975 9.3559 14.0451C9.37621 14.0926 9.38665 14.1438 9.38659 14.1956V14.64H9.6977V15.0311L9.38659 15.0756V17.2444C9.19104 17.2444 9.07548 17.1644 9.02215 17.0311C9.00441 16.9401 9.00441 16.8466 9.02215 16.7556C9.02215 16.2667 9.02215 15.7689 9.02215 15.28L9.00437 15.0133Z" fill="#4C4C4C"/>
<path d="M7.99939 13.7511C8.05417 13.7352 8.1127 13.7379 8.16578 13.7588C8.21886 13.7797 8.26351 13.8177 8.29272 13.8667C8.36391 13.9726 8.40675 14.095 8.41716 14.2222C8.41716 15.1111 8.41716 16.0711 8.41716 16.9956C8.42154 17.0607 8.42154 17.126 8.41716 17.1911C8.21272 17.1911 8.08828 17.1378 8.03494 16.9956C8.01055 16.9271 7.99851 16.8549 7.99939 16.7822V13.9378C7.995 13.8756 7.995 13.8133 7.99939 13.7511Z" fill="#4C4C4C"/>
<path d="M26.4619 11.8222L27.5552 11.4933C27.8299 11.7423 28.0507 12.0448 28.2041 12.3822L27.6441 12.8444L26.4619 11.8222Z" fill="#97CC4F"/>
<path d="M28.0713 18.5244L28.7024 18.8889C28.6039 19.1767 28.4599 19.4467 28.2758 19.6889C28.2615 19.7091 28.243 19.726 28.2215 19.7383C28.2 19.7506 28.176 19.758 28.1513 19.76L27.1647 19.7156L27.1113 19.6711L28.0713 18.5244Z" fill="#8FCCBB"/>
<path d="M20.3643 14.5867H20.7465V17.2C20.6949 17.2027 20.6432 17.1943 20.595 17.1755C20.5469 17.1566 20.5032 17.1278 20.4671 17.0908C20.4309 17.0538 20.4031 17.0095 20.3853 16.9609C20.3676 16.9123 20.3604 16.8605 20.3643 16.8089V14.5867Z" fill="#4C4C4C"/>
<path d="M28.1865 18.3378L28.711 17.3867C28.8257 17.5548 28.9183 17.7371 28.9865 17.9289C28.993 18.0295 28.993 18.1305 28.9865 18.2311C28.9539 18.4039 28.8907 18.5695 28.7999 18.72L28.1865 18.3378Z" fill="#8FCCBB"/>
<path d="M29.2268 16C29.449 16.3111 29.2268 17.1911 29.0579 17.6978C28.969 17.5378 28.8801 17.3778 28.8001 17.2178C28.7906 17.1889 28.7906 17.1578 28.8001 17.1289C28.9716 16.7672 29.1056 16.389 29.2001 16H29.2268Z" fill="#8FCCBB"/>
<path d="M26.5332 17.2889C26.5332 17.2889 28.471 17.1467 28.4532 17.2C28.2754 17.5111 28.0799 17.8133 27.8754 18.1511L26.5332 17.2889Z" fill="#08A7A9"/>
<path d="M27.1113 19.6711L28.7024 18.8889C28.6039 19.1767 28.4599 19.4467 28.2758 19.6889C28.2615 19.7091 28.243 19.726 28.2215 19.7383C28.2 19.7506 28.176 19.758 28.1513 19.76L27.1647 19.7156L27.1113 19.6711Z" fill="#08A7A9"/>
<path d="M28.1865 18.3378L28.9865 17.9289C28.993 18.0295 28.993 18.1305 28.9865 18.2311C28.9539 18.4039 28.8907 18.5695 28.7999 18.72L28.1865 18.3378Z" fill="#08A7A9"/>
<path d="M28.8087 17.1022L29.2887 16.7556C29.2887 16.7556 29.1376 17.4222 29.0576 17.6444C28.9687 17.4844 28.8798 17.3244 28.7998 17.1644C28.7994 17.1434 28.8024 17.1223 28.8087 17.1022Z" fill="#08A7A9"/>
<path d="M20.373 14.2222V13.7156H20.7197C20.8175 14.0089 20.6753 14.2222 20.373 14.2222Z" fill="#4C4C4C"/>
<path d="M28.7376 13.3333L28.4265 13.7956L27.751 12.9867L28.2843 12.4711C28.4687 12.7397 28.6209 13.0291 28.7376 13.3333Z" fill="#97CC4F"/>
<path d="M25.9913 14.0711L24.1602 12.9867C25.2047 12.9107 26.2534 12.9107 27.2979 12.9867C26.9166 13.4089 26.4765 13.7741 25.9913 14.0711Z" fill="#56AF3E"/>
<path d="M27.4574 11.4311L27.0485 11.52L26.3197 11.6533C26.2532 11.6751 26.1816 11.6751 26.1152 11.6533C25.6087 11.3389 25.0653 11.0881 24.4974 10.9067L24.2485 10.8178L24.2041 10.7644C24.8323 10.7857 25.4586 10.8451 26.0797 10.9422C26.5497 11.0731 27.0101 11.2364 27.4574 11.4311Z" fill="#56AF3E"/>
<path d="M21.3955 10.6667C22.8092 10.2599 24.2853 10.1152 25.7511 10.24H25.4044C24.8174 10.2647 24.2368 10.3724 23.68 10.56C23.6039 10.5775 23.5249 10.5775 23.4488 10.56C22.7838 10.4605 22.1064 10.4816 21.4488 10.6222C21.4488 10.6222 21.4311 10.6667 21.3955 10.6667Z" fill="#56AF3E"/>
<path d="M26.4619 11.8222C27.0522 11.9416 27.6296 12.1172 28.1864 12.3467L27.6264 12.8089L26.4619 11.8222Z" fill="#56AF3E"/>
<path d="M28.7376 13.3333L28.4265 13.7956L27.751 12.9867L28.7376 13.3333Z" fill="#56AF3E"/>
<path d="M28.7821 13.4489C29.0656 13.971 29.1951 14.5628 29.1555 15.1556C29.1313 15.119 29.1105 15.0803 29.0933 15.04C28.9155 14.7378 28.7555 14.4267 28.5866 14.1511C28.5625 14.1076 28.5498 14.0586 28.5498 14.0089C28.5498 13.9591 28.5625 13.9102 28.5866 13.8667L28.7821 13.4489Z" fill="#5BB245"/>
<path d="M24.4443 15.9378L27.2354 15.6533C27.2475 15.7 27.2475 15.7489 27.2354 15.7956C26.9245 16.2223 26.5732 16.6182 26.1866 16.9778L24.4443 15.9378Z" fill="#17A241"/>
<path d="M26.293 14.3111L28.2841 14.1067L27.493 15.4222L26.293 14.3111Z" fill="#17A241"/>
<path d="M28.5867 16.7556L28.4445 16.6222C28.2223 16.3378 28.0178 16.0444 27.7956 15.7333C27.7682 15.6988 27.7472 15.6597 27.7334 15.6178L29.049 15.44C29.0522 15.4695 29.0522 15.4993 29.049 15.5289C28.9334 15.8844 28.8001 16.2222 28.6756 16.5689C28.6573 16.6359 28.6272 16.6991 28.5867 16.7556Z" fill="#17A241"/>
<path d="M28.542 14.0089L29.1109 14.4267C29.1902 14.6632 29.1902 14.9191 29.1109 15.1556C29.0867 15.119 29.0659 15.0803 29.0487 15.04C28.9153 14.7378 28.542 14.0089 28.542 14.0089Z" fill="#17A241"/>
</g>
<defs>
<clipPath id="clip0_2707_347408">
<rect width="32" height="32" fill="white"/>
</clipPath>
</defs>
</svg>
