<svg width="32" height="32" viewBox="0 0 32 32" fill="none" xmlns="http://www.w3.org/2000/svg">
<g clip-path="url(#clip0_2707_346863)">
<path d="M15.9998 31.9823C24.8265 31.9823 31.982 24.8268 31.982 16C31.982 7.17331 24.8265 0.0178223 15.9998 0.0178223C7.17306 0.0178223 0.0175781 7.17331 0.0175781 16C0.0175781 24.8268 7.17306 31.9823 15.9998 31.9823Z" fill="white"/>
<path d="M18.6665 17.9645C18.5937 20.2899 17.7209 22.519 16.1954 24.2756C15.97 24.5883 15.7235 24.8853 15.4576 25.1645C15.3619 25.2636 15.2309 25.3211 15.0931 25.3245C12.9507 25.2337 10.8424 24.7548 8.87092 23.9112C6.9137 23.119 5.21715 21.795 3.97315 20.0889C3.33832 19.2385 2.91393 18.2499 2.73471 17.2039C2.55549 16.1579 2.62654 15.0844 2.94204 14.0712C3.49172 12.3843 4.55454 10.9113 5.98204 9.85783C7.20666 8.88902 8.59016 8.14012 10.0709 7.6445C10.5456 7.53789 11.0431 7.62081 11.4576 7.87561C12.7261 8.47962 13.8832 9.2941 14.8798 10.2845C15.8025 11.148 16.6012 12.1352 17.2531 13.2178C17.8924 14.2496 18.3213 15.3975 18.5154 16.5956C18.5776 17.0489 18.6665 17.5112 18.6665 17.9645ZM5.4487 18.9156H6.10648C6.35702 18.9228 6.60601 18.8739 6.83518 18.7724C7.06435 18.6708 7.26791 18.5193 7.43092 18.3289C7.70851 17.9852 7.90926 17.5861 8.01966 17.1583C8.13005 16.7305 8.14753 16.284 8.07092 15.8489C8.06203 15.5302 7.94144 15.2248 7.73022 14.9859C7.51901 14.7471 7.2306 14.5901 6.91537 14.5423C6.41265 14.4978 5.90698 14.4978 5.40426 14.5423C5.34204 14.5423 5.25315 14.6934 5.23537 14.7912C5.11981 15.3423 5.03092 15.8934 4.93315 16.4445L4.53315 18.6134C4.53315 18.8356 4.53315 18.9423 4.79092 18.9156C5.0487 18.8889 5.22648 18.9156 5.4487 18.9156ZM9.78648 19.0312C10.0007 19.0027 10.2119 18.9551 10.4176 18.8889C10.6581 18.8053 10.8696 18.6545 11.0271 18.4545C11.1846 18.2544 11.2816 18.0135 11.3065 17.7601C11.3551 17.5191 11.3263 17.269 11.2241 17.0455C11.1219 16.8219 10.9516 16.6365 10.7376 16.5156C10.4354 16.3467 10.1243 16.1956 9.8487 16.0089C9.78585 15.9676 9.7332 15.9125 9.69471 15.8478C9.65622 15.7831 9.63289 15.7106 9.62648 15.6356C9.6441 15.5577 9.67874 15.4846 9.72791 15.4215C9.77709 15.3585 9.83958 15.3072 9.91092 15.2712C10.1954 15.1912 10.5598 15.2089 10.6398 15.5378C10.7198 15.8667 11.0576 15.8667 11.342 15.8578C11.6265 15.8489 11.5731 15.7334 11.5287 15.5556C11.4981 15.3625 11.4262 15.1783 11.318 15.0156C11.2098 14.8528 11.0677 14.7152 10.9015 14.6123C10.7353 14.5094 10.5489 14.4435 10.355 14.4192C10.161 14.3948 9.96407 14.4125 9.77759 14.4712C9.51828 14.5011 9.27654 14.6172 9.09116 14.801C8.90578 14.9847 8.78753 15.2255 8.75537 15.4845C8.69174 15.7208 8.7048 15.9713 8.79266 16.1997C8.88052 16.4282 9.03865 16.6228 9.24426 16.7556C9.54648 16.9601 9.88426 17.1201 10.1954 17.3067C10.267 17.3405 10.3275 17.394 10.3699 17.4609C10.4123 17.5278 10.4348 17.6053 10.4348 17.6845C10.4348 17.7637 10.4123 17.8412 10.3699 17.9081C10.3275 17.975 10.267 18.0285 10.1954 18.0623C10.0974 18.127 9.98443 18.1654 9.86732 18.1739C9.75022 18.1823 9.6329 18.1605 9.52666 18.1105C9.42043 18.0605 9.32884 17.984 9.2607 17.8884C9.19256 17.7928 9.15017 17.6812 9.13759 17.5645C9.13759 17.4845 9.00426 17.4045 8.92426 17.3778C8.81503 17.3645 8.70459 17.3645 8.59537 17.3778C8.3287 17.3778 8.28426 17.5112 8.31092 17.7334C8.31871 17.916 8.36324 18.0952 8.44185 18.2603C8.52047 18.4253 8.63155 18.5728 8.76846 18.694C8.90536 18.8151 9.06529 18.9074 9.23868 18.9653C9.41207 19.0233 9.59536 19.0457 9.77759 19.0312H9.78648ZM13.6798 14.5067C13.342 14.5067 13.0131 14.5067 12.6754 14.5067C12.3376 14.5067 12.3287 14.5956 12.2843 14.8178C12.0887 15.9912 11.8754 17.1556 11.6798 18.3289C11.5731 18.9423 11.6798 19.0223 12.2843 18.9156C12.3249 18.906 12.3626 18.8863 12.3936 18.8584C12.4247 18.8304 12.4482 18.7951 12.462 18.7556C12.5598 18.3023 12.6487 17.8667 12.702 17.3956C12.702 17.1645 12.8176 17.0934 13.0309 17.1023C13.4487 17.1023 13.8754 17.1023 14.2931 17.1023C14.382 17.1023 14.4976 16.9689 14.5598 16.8712C14.6051 16.7638 14.6321 16.6496 14.6398 16.5334C14.6931 16.3467 14.6398 16.2667 14.4265 16.2756C13.9998 16.2756 13.5376 16.2756 13.1465 16.2756C13.0754 16.2756 12.942 16.1956 12.942 16.1689C12.9511 15.9106 13.0021 15.6554 13.0931 15.4134C13.0931 15.3334 13.4131 15.3601 13.582 15.3512C13.7509 15.3423 14.0354 15.3512 14.2576 15.3512C14.8531 15.3512 14.8531 15.3512 14.9865 14.7823C14.9865 14.6312 14.9865 14.5423 14.7998 14.5423L13.6798 14.5067ZM15.1376 18.9512C15.2798 18.8712 15.502 18.8178 15.5554 18.6934C15.638 18.4644 15.6888 18.2251 15.7065 17.9823C15.8754 17.0045 16.0265 16.0356 16.2131 15.0667C16.3287 14.4445 16.3465 14.4356 15.7154 14.4712C15.6087 14.4712 15.4309 14.5778 15.4131 14.6667C15.3065 15.1556 15.2354 15.6534 15.1465 16.1512C15.0131 16.9067 14.8976 17.6623 14.7465 18.4178C14.6487 18.9156 14.6309 18.9156 15.1109 18.9867L15.1376 18.9512Z" fill="#011BD6"/>
<path d="M16.0622 6.71116C16.8888 6.76449 17.7155 6.76449 18.5333 6.88005C19.351 6.9956 20.2133 7.22671 21.0399 7.43116C22.1456 7.70657 23.2076 8.13437 24.1955 8.70227C24.9846 9.13439 25.7289 9.64353 26.4177 10.2223C27.3607 11.0488 28.1336 12.0512 28.6933 13.1734C29.2208 14.3147 29.4414 15.574 29.3333 16.8267C29.2675 17.6101 29.0437 18.3721 28.6755 19.0667C28.391 19.6 28.0533 20.1067 27.7244 20.6223C27.7244 20.6756 27.5999 20.7112 27.5377 20.7556C27.4944 20.6931 27.4614 20.6241 27.4399 20.5512C27.2977 19.7512 27.2177 18.9334 27.0044 18.1689C26.7671 17.338 26.4516 16.5314 26.0622 15.76C25.5592 14.7497 24.8992 13.8257 24.1066 13.0223C23.1782 12.0091 22.0988 11.1456 20.9066 10.4623C19.8909 9.90132 18.8465 9.39396 17.7777 8.94227C16.6654 8.52217 15.532 8.1602 14.3822 7.85782C13.6088 7.64449 12.8088 7.51116 12.0177 7.33338L11.8755 7.24449L12.0177 7.17338C13.3428 6.85942 14.7004 6.70426 16.0622 6.71116Z" fill="#FCBD03"/>
<path d="M5.44885 18.9156C5.23551 18.9156 5.01329 18.9156 4.79107 18.9156C4.56885 18.9156 4.48885 18.8356 4.53329 18.6134C4.67551 17.8845 4.79996 17.1467 4.93329 16.4179C5.03107 15.8667 5.12885 15.3156 5.23551 14.7645C5.23551 14.6667 5.35107 14.5156 5.41329 14.5156C5.91304 14.4712 6.41576 14.4712 6.91551 14.5156C7.23074 14.5634 7.51915 14.7205 7.73037 14.9593C7.94158 15.1981 8.06217 15.5036 8.07107 15.8223C8.14812 16.256 8.13084 16.7012 8.0204 17.1276C7.90996 17.554 7.70896 17.9516 7.43107 18.2934C7.26729 18.4835 7.06381 18.6353 6.83497 18.7382C6.60613 18.8411 6.35751 18.8926 6.10662 18.889L5.44885 18.9156ZM7.22662 16.3912V16.1156C7.23821 15.98 7.21382 15.8438 7.15591 15.7207C7.09801 15.5975 7.00864 15.4919 6.89682 15.4143C6.78501 15.3368 6.65471 15.2901 6.51909 15.279C6.38347 15.2679 6.24732 15.2928 6.1244 15.3512C6.0954 15.3643 6.06986 15.3839 6.0498 15.4086C6.02974 15.4333 6.01571 15.4623 6.00885 15.4934C5.85773 16.3112 5.71551 17.129 5.57329 17.9379C5.57077 17.9718 5.57677 18.0058 5.59074 18.0369C5.60471 18.0679 5.62621 18.095 5.65329 18.1156C5.87069 18.1684 6.09855 18.1588 6.31077 18.0881C6.523 18.0173 6.71102 17.8883 6.85329 17.7156C7.11245 17.3248 7.23439 16.8589 7.19996 16.3912H7.22662Z" fill="#FDFDFD"/>
<path d="M9.7778 19.0311C9.59839 19.0469 9.41762 19.0269 9.24599 18.9723C9.07436 18.9177 8.91529 18.8295 8.77802 18.7129C8.64075 18.5963 8.528 18.4536 8.44633 18.2931C8.36465 18.1326 8.31568 17.9574 8.30225 17.7778C8.30225 17.5556 8.30225 17.4134 8.58669 17.4222C8.69336 17.4222 8.80891 17.4222 8.90669 17.4222C8.95528 17.4349 9.00043 17.4582 9.03887 17.4905C9.07731 17.5228 9.10807 17.5632 9.12891 17.6089C9.14149 17.7256 9.18388 17.8372 9.25202 17.9328C9.32016 18.0284 9.41175 18.1049 9.51799 18.1549C9.62422 18.2049 9.74154 18.2267 9.85865 18.2183C9.97576 18.2098 10.0887 18.1714 10.1867 18.1067C10.2556 18.0705 10.3133 18.0162 10.3535 17.9496C10.3938 17.883 10.415 17.8067 10.415 17.7289C10.415 17.6511 10.3938 17.5748 10.3535 17.5082C10.3133 17.4416 10.2556 17.3873 10.1867 17.3511C9.86669 17.1645 9.5378 17.0045 9.22669 16.8C9.02109 16.6672 8.86296 16.4726 8.77509 16.2441C8.68723 16.0157 8.67417 15.7653 8.7378 15.5289C8.7644 15.2604 8.88207 15.009 9.07125 14.8166C9.26044 14.6242 9.50976 14.5023 9.7778 14.4711C9.9659 14.4079 10.1655 14.3866 10.3627 14.4088C10.5599 14.4309 10.7499 14.4959 10.9193 14.5992C11.0887 14.7026 11.2334 14.8417 11.3434 15.0069C11.4533 15.1721 11.5257 15.3594 11.5556 15.5556C11.6 15.7334 11.5556 15.8489 11.3689 15.8578C11.1822 15.8667 10.7822 16 10.6578 15.5378C10.5334 15.0756 10.2134 15.1911 9.9378 15.2711C9.86443 15.3056 9.79987 15.3563 9.74904 15.4195C9.69821 15.4826 9.66245 15.5565 9.64447 15.6356C9.65088 15.7106 9.67421 15.7831 9.7127 15.8478C9.75119 15.9124 9.80384 15.9675 9.86669 16.0089C10.1511 16.1956 10.4622 16.3467 10.7556 16.5156C10.9675 16.6416 11.1336 16.832 11.2295 17.0591C11.3255 17.2862 11.3463 17.538 11.2889 17.7778C11.264 18.0312 11.1671 18.2722 11.0095 18.4722C10.852 18.6723 10.6405 18.823 10.4 18.9067C10.1967 18.9663 9.98845 19.008 9.7778 19.0311Z" fill="#FDFDFD"/>
<path d="M13.6798 14.5067H14.8087C14.9953 14.5067 15.0309 14.5867 14.9953 14.7378C14.8709 15.3067 14.8709 15.3067 14.2664 15.3067H13.5909C13.422 15.3067 13.1375 15.3067 13.102 15.3689C13.0153 15.6121 12.9644 15.8666 12.9509 16.1245C12.9509 16.1245 13.0842 16.2222 13.1553 16.2311C13.582 16.2311 14.0442 16.2311 14.4353 16.2311C14.6309 16.2311 14.702 16.3022 14.6487 16.4889C14.6367 16.6045 14.6098 16.718 14.5687 16.8267C14.5153 16.9245 14.3998 17.0489 14.302 17.0578C13.8842 17.0578 13.4575 17.0578 13.0398 17.0578C12.8264 17.0578 12.7375 17.12 12.7109 17.3511C12.6575 17.8045 12.5687 18.24 12.4709 18.7111C12.4571 18.7506 12.4335 18.7859 12.4025 18.8139C12.3714 18.8418 12.3338 18.8615 12.2931 18.8711C11.6709 18.9778 11.5909 18.8711 11.6887 18.2845C11.8842 17.1111 12.0975 15.9467 12.2931 14.7733C12.2931 14.5511 12.4353 14.4445 12.6842 14.4622C12.9331 14.48 13.3331 14.5067 13.6798 14.5067Z" fill="#FDFDFD"/>
<path d="M15.1109 18.9867C14.6042 18.9156 14.622 18.9156 14.7198 18.4534C14.8709 17.6978 14.9864 16.9334 15.1198 16.1778C15.2087 15.68 15.2798 15.1822 15.3864 14.6934C15.3864 14.6134 15.582 14.5067 15.6887 14.4978C16.3198 14.4978 16.302 14.4978 16.1864 15.0934C15.9998 16.0622 15.8487 17.04 15.6798 18.0089C15.6621 18.2517 15.6113 18.491 15.5287 18.72C15.4931 18.8534 15.2798 18.9067 15.1109 18.9867Z" fill="#FDFDFD"/>
<path d="M7.20001 16.3911C7.22757 16.8633 7.09268 17.3307 6.81778 17.7156C6.67828 17.8892 6.49192 18.0191 6.28081 18.09C6.06969 18.1609 5.84267 18.1698 5.62667 18.1156C5.60017 18.0944 5.57909 18.0673 5.56518 18.0363C5.55126 18.0054 5.54492 17.9716 5.54667 17.9378C5.68889 17.12 5.83112 16.3111 5.98223 15.4933C5.9891 15.4623 6.00312 15.4332 6.02318 15.4086C6.04324 15.3839 6.06878 15.3642 6.09778 15.3511C6.2207 15.2928 6.35685 15.2679 6.49247 15.2789C6.62809 15.29 6.75839 15.3367 6.8702 15.4142C6.98202 15.4918 7.07139 15.5975 7.1293 15.7206C7.1872 15.8437 7.21159 15.98 7.20001 16.1156V16.3911Z" fill="#011BD6"/>
</g>
<defs>
<clipPath id="clip0_2707_346863">
<rect width="32" height="32" fill="white"/>
</clipPath>
</defs>
</svg>
