<svg width="32" height="32" viewBox="0 0 32 32" fill="none" xmlns="http://www.w3.org/2000/svg">
<g clip-path="url(#clip0_2707_346463)">
<path d="M15.9998 31.9823C24.8265 31.9823 31.982 24.8268 31.982 16C31.982 7.17331 24.8265 0.0178223 15.9998 0.0178223C7.17306 0.0178223 0.0175781 7.17331 0.0175781 16C0.0175781 24.8268 7.17306 31.9823 15.9998 31.9823Z" fill="white"/>
<path fill-rule="evenodd" clip-rule="evenodd" d="M22.2666 23.1734V22.9778H22.4888V21.8578L22.4177 21.7512H22.2666V21.5823H22.6755L23.5644 22.6134V21.8045C23.5644 21.8045 23.5644 21.7156 23.351 21.7423V21.5823H23.9466V21.7423H23.8044C23.7997 21.752 23.7972 21.7626 23.7972 21.7734C23.7972 21.7842 23.7997 21.7948 23.8044 21.8045V23.1734H23.6266L22.7377 22.0801V22.9689H22.951V23.1645L22.2666 23.1734Z" fill="#003D77"/>
<path fill-rule="evenodd" clip-rule="evenodd" d="M15.3155 22.009H15.4666V21.7423C15.4321 21.6727 15.3767 21.6156 15.3082 21.5789C15.2397 21.5423 15.1615 21.5279 15.0844 21.5379C15.0161 21.5327 14.9476 21.5421 14.8833 21.5656C14.819 21.5891 14.7604 21.6261 14.7116 21.6741C14.6628 21.7221 14.6248 21.78 14.6001 21.8439C14.5755 21.9078 14.5649 21.9762 14.5689 22.0445C14.5689 22.329 15.04 22.5779 15.1822 22.649C15.218 22.6742 15.2432 22.7117 15.253 22.7543C15.2629 22.797 15.2566 22.8417 15.2355 22.8801C15.2186 22.93 15.1862 22.9733 15.1431 23.0037C15.0999 23.034 15.0483 23.0499 14.9955 23.049C14.8 23.049 14.6577 22.7379 14.6755 22.6756H14.5244V22.9245C14.5244 22.9245 14.5244 23.1734 14.9955 23.1734C15.1079 23.1893 15.2222 23.1633 15.3166 23.1003C15.411 23.0374 15.479 22.9419 15.5075 22.832C15.5361 22.7222 15.5232 22.6057 15.4714 22.5047C15.4196 22.4038 15.3325 22.3254 15.2266 22.2845C15.0666 22.2045 14.8889 22.0979 14.8622 22.0267C14.8424 21.9768 14.8414 21.9213 14.8594 21.8706C14.8774 21.82 14.9131 21.7775 14.96 21.7512C15.04 21.7067 15.2533 21.6445 15.3155 22.009Z" fill="#003D77"/>
<path fill-rule="evenodd" clip-rule="evenodd" d="M6.82666 21.7512V21.5823H7.50222V21.7601H7.37777L7.65333 22.2578L7.9111 21.7778H7.71555V21.5823H8.33777V21.7601H8.15999L7.75111 22.4356V23.0045H7.94666V23.1734H7.1911V22.9956H7.39555V22.4534L6.97777 21.7512H6.82666Z" fill="#003D77"/>
<path fill-rule="evenodd" clip-rule="evenodd" d="M4.94204 21.7956C4.93989 21.7807 4.93239 21.7671 4.92095 21.7573C4.9095 21.7474 4.89489 21.7421 4.87982 21.7423C4.8385 21.7371 4.79669 21.7371 4.75537 21.7423V21.5823H5.45759V21.7423H5.33315C5.33315 21.7423 5.27982 21.7423 5.27982 21.8045V23.0578C5.29084 23.1106 5.29084 23.1651 5.27982 23.2178C5.15991 23.3439 5.02215 23.4517 4.87093 23.5378C4.78204 23.5378 4.75537 23.4223 4.75537 23.4223C4.75537 23.4223 4.9687 23.2534 4.99537 23.1734C5.02204 23.0934 4.94204 21.7956 4.94204 21.7956Z" fill="#003D77"/>
<path fill-rule="evenodd" clip-rule="evenodd" d="M5.41309 23.1734V23.0045H5.59086L6.16864 21.5823H6.30197L6.8442 22.9867H6.97753V23.1734H6.31975V22.9956H6.48864L6.35531 22.6489H5.92864L5.82197 22.9778H5.97309V23.1645L5.41309 23.1734ZM5.99086 22.4534H6.29309L6.15086 22.0623L5.99086 22.4534Z" fill="#003D77"/>
<path fill-rule="evenodd" clip-rule="evenodd" d="M8.10645 23.1734V23.0045H8.28422L8.862 21.5823H8.99533L9.53756 22.9867H9.67089V23.1734H9.01311V22.9956H9.182L9.04867 22.6489H8.622L8.51533 22.9778H8.66645V23.1645L8.10645 23.1734ZM8.68422 22.4534H8.98645L8.88867 22.0623L8.68422 22.4534Z" fill="#003D77"/>
<path fill-rule="evenodd" clip-rule="evenodd" d="M15.6177 23.1734V23.0045H15.7955L16.3732 21.5823H16.5066L17.0488 22.9867H17.1821V23.1734H16.5243V22.9956H16.6932L16.5599 22.6489H16.1332L16.0266 22.9778H16.1777V23.1645L15.6177 23.1734ZM16.1955 22.4534H16.4977L16.3555 22.0623L16.1955 22.4534Z" fill="#003D77"/>
<path fill-rule="evenodd" clip-rule="evenodd" d="M19.2974 23.1734V23.0045H19.4751L20.0618 21.5823H20.1951L20.7285 22.9867H20.8618V23.1734H20.204V22.9956H20.3729L20.2396 22.6489H19.8129L19.7063 22.9778H19.8574V23.1645L19.2974 23.1734ZM19.884 22.4534H20.1774L20.0351 22.0623L19.884 22.4534Z" fill="#003D77"/>
<path fill-rule="evenodd" clip-rule="evenodd" d="M10.2753 21.5823V21.7512H10.462V22.9778H10.2397V23.1734H11.0397C11.0397 23.1734 11.5286 23.1734 11.5464 22.7556C11.55 22.659 11.5226 22.5637 11.4683 22.4838C11.4139 22.4038 11.3354 22.3433 11.2442 22.3112C11.3204 22.2786 11.3835 22.2216 11.4238 22.1492C11.464 22.0768 11.479 21.993 11.4664 21.9112C11.4664 21.8672 11.4576 21.8237 11.4406 21.7832C11.4235 21.7427 11.3984 21.7061 11.367 21.6754C11.3355 21.6447 11.2982 21.6207 11.2572 21.6047C11.2163 21.5887 11.1726 21.5811 11.1286 21.5823H10.2753ZM10.7909 22.4089V22.9689H11.0753C11.0753 22.9689 11.2175 22.9245 11.2175 22.7023C11.2177 22.6418 11.2013 22.5823 11.1699 22.5306C11.1385 22.4788 11.0935 22.4367 11.0397 22.4089H10.7909ZM10.7909 21.7778V22.2223H11.022C11.063 22.2025 11.0969 22.1705 11.1192 22.1308C11.1414 22.091 11.1509 22.0454 11.1464 22.0001C11.1481 21.9484 11.1347 21.8973 11.1078 21.8532C11.081 21.809 11.0419 21.7735 10.9953 21.7512L10.7909 21.7778Z" fill="#003D77"/>
<path fill-rule="evenodd" clip-rule="evenodd" d="M13.9198 11.6089V11.9289H14.1598C14.2455 11.9289 14.3278 11.9623 14.3892 12.0221C14.4507 12.0818 14.4863 12.1632 14.4886 12.2489V15.8045C14.4863 15.8901 14.4507 15.9715 14.3892 16.0313C14.3278 16.0911 14.2455 16.1245 14.1598 16.1245H13.8042V16.4533H16.2486C16.2486 16.4533 17.7242 16.4533 17.7775 15.1822C17.7865 14.8907 17.7062 14.6033 17.5474 14.3587C17.3885 14.114 17.1587 13.9237 16.8886 13.8133C16.8886 13.8133 17.5731 13.6178 17.5464 12.6045C17.5417 12.3349 17.4308 12.0781 17.2376 11.89C17.0445 11.7018 16.7849 11.5976 16.5153 11.6L13.9198 11.6089ZM15.4753 14.1245V15.84H16.3642C16.5154 15.7709 16.6403 15.6548 16.7203 15.5091C16.8004 15.3634 16.8313 15.1958 16.8086 15.0311C16.8093 14.8462 16.758 14.6648 16.6606 14.5077C16.5631 14.3505 16.4235 14.2239 16.2575 14.1422L15.4753 14.1245ZM15.4753 12.2045V13.6356H16.1864C16.3121 13.5794 16.4162 13.4842 16.4835 13.3641C16.5507 13.244 16.5775 13.1054 16.5598 12.9689C16.5613 12.8123 16.5187 12.6584 16.437 12.5248C16.3553 12.3912 16.2376 12.2833 16.0975 12.2133L15.4753 12.2045Z" fill="#003D77"/>
<path fill-rule="evenodd" clip-rule="evenodd" d="M11.724 21.7778V21.5823H12.844V22.0001H12.684C12.684 22.0001 12.684 21.8045 12.5863 21.7778C12.462 21.7686 12.3372 21.7686 12.2129 21.7778V22.2845H12.4885C12.5174 22.2657 12.5418 22.2408 12.5602 22.2117C12.5786 22.1825 12.5905 22.1498 12.5952 22.1156H12.7107V22.5956H12.5952C12.5952 22.5956 12.5952 22.4534 12.4885 22.4534H12.2129V22.9689H12.6485C12.6865 22.942 12.7187 22.9076 12.7432 22.8679C12.7676 22.8282 12.7838 22.7839 12.7907 22.7378H12.9507C12.9507 22.7378 12.9507 23.1201 12.8796 23.1734H11.644V22.9956H11.9018V21.7689L11.724 21.7778Z" fill="#003D77"/>
<path fill-rule="evenodd" clip-rule="evenodd" d="M13.04 21.7512V21.5823H13.9289C14.0227 21.6085 14.1047 21.666 14.1613 21.7452C14.2179 21.8244 14.2457 21.9206 14.24 22.0178C14.2477 22.1105 14.226 22.2032 14.1782 22.2829C14.1304 22.3627 14.0587 22.4254 13.9734 22.4623C14.121 22.6886 14.294 22.8974 14.4889 23.0845V23.1734H14.1512C14.1512 23.1734 13.8223 22.7378 13.68 22.5245H13.5823V22.9867H13.7512V23.1734H13.04V23.0134C13.04 23.0134 13.2534 23.0134 13.2534 22.9245V21.7601L13.04 21.7512ZM13.5645 21.7512V22.3112H13.7512C13.8065 22.2896 13.854 22.2516 13.8873 22.2024C13.9207 22.1532 13.9383 22.095 13.9378 22.0356C13.9371 21.9764 13.919 21.9188 13.8858 21.8698C13.8527 21.8208 13.8058 21.7827 13.7512 21.7601L13.5645 21.7512Z" fill="#003D77"/>
<path fill-rule="evenodd" clip-rule="evenodd" d="M17.2441 23.1734V22.9867H17.4664V21.7689H17.2975V21.5823H17.7775L18.2041 22.5689L18.6664 21.5823H19.1819V21.7689H19.0219V22.9956H19.2086V23.1734H18.5153V23.0045H18.6664V22.0712L18.1953 23.1734H18.0797L17.6441 22.0445V22.9867H17.813V23.1734H17.2441Z" fill="#003D77"/>
<path fill-rule="evenodd" clip-rule="evenodd" d="M21.4752 21.7512V21.5823H22.1596V21.7601H21.9908V22.9778H22.1685V23.1734H21.4663V22.9778H21.6708V21.7512H21.4752Z" fill="#003D77"/>
<path fill-rule="evenodd" clip-rule="evenodd" d="M17.902 11.8489V11.3867H20.5153V11.8934H20.2397C20.1918 11.8929 20.1442 11.902 20.0999 11.9204C20.0556 11.9387 20.0155 11.9658 19.982 12.0001C19.9165 12.0667 19.8784 12.1556 19.8753 12.2489V16.6045C19.8753 16.6519 19.8848 16.6989 19.9032 16.7426C19.9216 16.7864 19.9486 16.826 19.9826 16.8591C20.0165 16.8922 20.0568 16.9182 20.1009 16.9356C20.1451 16.9529 20.1923 16.9612 20.2397 16.9601H20.5597V17.4578H17.8931V16.9512H18.2931C18.3874 16.9512 18.4778 16.9137 18.5445 16.847C18.6112 16.7803 18.6486 16.6899 18.6486 16.5956V12.2134C18.6498 12.1671 18.6417 12.1211 18.6248 12.078C18.6079 12.0349 18.5826 11.9956 18.5503 11.9625C18.518 11.9293 18.4794 11.903 18.4367 11.885C18.3941 11.8671 18.3482 11.8578 18.302 11.8578L17.902 11.8489Z" fill="#003D77"/>
<path fill-rule="evenodd" clip-rule="evenodd" d="M15.6978 9.00449C13.3036 8.93215 10.9693 9.75995 9.15556 11.3245C8.67037 11.75 8.27852 12.2714 8.00469 12.8558C7.73085 13.4402 7.58096 14.0749 7.56445 14.72C7.58096 15.3652 7.73085 15.9999 8.00469 16.5843C8.27852 17.1687 8.67037 17.6901 9.15556 18.1156C10.9684 19.6826 13.3026 20.5135 15.6978 20.4445C18.0869 20.509 20.414 19.6784 22.2222 18.1156C22.7046 17.6882 23.0939 17.1663 23.3661 16.5822C23.6383 15.9981 23.7875 15.3642 23.8045 14.72C23.7875 14.0759 23.6383 13.442 23.3661 12.8579C23.0939 12.2738 22.7046 11.7519 22.2222 11.3245C20.4131 9.76415 18.0859 8.93663 15.6978 9.00449ZM15.6978 9.27116C18.0273 9.21172 20.2947 10.0267 22.0533 11.5556C22.5093 11.9579 22.8779 12.4494 23.1363 12.9998C23.3947 13.5502 23.5374 14.1478 23.5556 14.7556C23.5374 15.3634 23.3947 15.961 23.1363 16.5114C22.8779 17.0618 22.5093 17.5533 22.0533 17.9556C20.2917 19.4755 18.0233 20.2781 15.6978 20.2045C13.372 20.2799 11.103 19.477 9.34223 17.9556C8.88625 17.5533 8.51767 17.0618 8.25928 16.5114C8.00089 15.961 7.85819 15.3634 7.84001 14.7556C7.85819 14.1478 8.00089 13.5502 8.25928 12.9998C8.51767 12.4494 8.88625 11.9579 9.34223 11.5556C11.1 10.0252 13.368 9.20998 15.6978 9.27116Z" fill="#003D77"/>
<path fill-rule="evenodd" clip-rule="evenodd" d="M24 21.7512V21.5823H24.8889C25.0767 21.6068 25.248 21.7026 25.3671 21.8498C25.4862 21.9971 25.5442 22.1846 25.5289 22.3734C25.5297 22.5738 25.4552 22.7672 25.3203 22.9153C25.1853 23.0635 24.9996 23.1556 24.8 23.1734H24V23.0134H24.1867V21.7601L24 21.7512ZM24.5067 21.7512V22.9601C24.5928 22.9838 24.6833 22.987 24.7709 22.9693C24.8585 22.9516 24.9407 22.9135 25.0108 22.8581C25.081 22.8027 25.137 22.7315 25.1745 22.6504C25.212 22.5693 25.2299 22.4805 25.2267 22.3912C25.2267 21.7689 24.8444 21.7512 24.8444 21.7512H24.5067Z" fill="#003D77"/>
<path fill-rule="evenodd" clip-rule="evenodd" d="M26.551 21.5289C26.7165 21.52 26.8808 21.561 27.0227 21.6467C27.1645 21.7323 27.2774 21.8587 27.3466 22.0093C27.4158 22.1598 27.4381 22.3277 27.4107 22.4912C27.3832 22.6546 27.3073 22.806 27.1928 22.9258C27.0782 23.0455 26.9303 23.1281 26.7683 23.1628C26.6062 23.1974 26.4375 23.1826 26.284 23.1201C26.1305 23.0577 25.9993 22.9506 25.9074 22.8127C25.8155 22.6747 25.7672 22.5124 25.7688 22.3467C25.7664 22.2416 25.7848 22.1371 25.8228 22.0392C25.8608 21.9412 25.9178 21.8517 25.9904 21.7757C26.0631 21.6998 26.15 21.6389 26.2462 21.5966C26.3423 21.5542 26.4459 21.5312 26.551 21.5289ZM26.551 21.6889C26.7732 21.6889 26.951 21.9822 26.951 22.3467C26.951 22.7111 26.7732 23.0045 26.551 23.0045C26.3288 23.0045 26.151 22.7111 26.151 22.3467C26.151 21.9822 26.3288 21.6889 26.551 21.6889Z" fill="#003D77"/>
<path fill-rule="evenodd" clip-rule="evenodd" d="M11.1553 11.1645V10.8445H13.7509V11.1823H13.3331C13.3331 11.1823 12.9864 11.3689 12.9864 11.6V16.32C12.9864 16.32 12.622 18.2489 11.1287 18.4978L10.9331 18.1689C10.9331 18.1689 11.822 18.0356 11.9287 16.3911C12.0353 14.7467 11.9287 11.5556 11.9287 11.5556C11.9287 11.5556 11.9287 11.2445 11.6264 11.2L11.1553 11.1645Z" fill="#003D77"/>
</g>
<defs>
<clipPath id="clip0_2707_346463">
<rect width="32" height="32" fill="white"/>
</clipPath>
</defs>
</svg>
