<svg width="32" height="32" viewBox="0 0 32 32" fill="none" xmlns="http://www.w3.org/2000/svg">
<g clip-path="url(#clip0_2811_108077)">
<mask id="mask0_2811_108077" style="mask-type:luminance" maskUnits="userSpaceOnUse" x="0" y="0" width="32" height="32">
<path d="M31.9821 0.0164289H0.0117188V31.9868H31.9821V0.0164289Z" fill="white"/>
</mask>
<g mask="url(#mask0_2811_108077)">
<path d="M15.9969 31.9868C24.8253 31.9868 31.9821 24.83 31.9821 16.0016C31.9821 7.17325 24.8253 0.0164289 15.9969 0.0164289C7.16854 0.0164289 0.0117188 7.17325 0.0117188 16.0016C0.0117188 24.83 7.16854 31.9868 15.9969 31.9868Z" fill="white"/>
<path d="M18.4246 16.1898H15.9968C15.9212 16.9252 15.8421 17.5656 15.4291 18.1979C13.5213 21.1181 9.03683 19.5862 9.12807 16.1895L8.77219 16.1895C8.80286 18.7147 10.7636 20.7908 13.2996 20.9299C16.0794 21.0823 18.3323 18.9494 18.4246 16.1898ZM21.4446 16.1898H18.7799C18.6766 20.2209 14.2761 22.6672 10.8142 20.4545C9.35142 19.5197 8.49346 17.9245 8.41661 16.1904L8.12082 16.1895C8.24648 20.6016 12.4984 23.6226 16.7527 22.3639C19.4468 21.5667 21.4348 19.0134 21.4446 16.1898ZM7.46975 16.1898V17.1668C7.46975 17.4118 7.73638 18.3003 7.82403 18.589C9.18526 23.0748 14.051 25.562 18.5289 24.1994C21.9739 23.151 24.5588 19.8301 24.5238 16.1898H21.8887C21.7293 16.3349 21.8216 16.5929 21.7928 16.8044C21.2226 20.9989 17.3054 23.732 13.1538 22.7929C10.103 22.1028 7.8862 19.2969 7.76607 16.1895L7.46975 16.1898ZM13.5689 15.8345H15.9376C16.044 11.1817 22.712 11.1946 22.8658 15.8348C22.9722 15.832 23.1699 15.8749 23.2153 15.737C23.0175 12.3334 19.5434 10.177 16.3901 11.5794C14.72 12.3222 13.632 14.0109 13.5689 15.8345ZM10.5489 15.8345H13.2136C13.3165 13.6891 14.6288 11.7459 16.6768 11.0371C20.0749 9.86094 23.4168 12.3193 23.5794 15.8311L23.8726 15.8346C23.727 11.4531 19.6334 8.47352 15.3797 9.62158C12.6143 10.3681 10.5475 12.9503 10.5489 15.8345ZM24.5238 15.8345V14.8574C24.5238 13.7236 23.4213 11.5838 22.7116 10.6889C17.9972 4.74467 8.36519 7.48255 7.47709 14.9832C7.46205 15.11 7.36564 15.8345 7.49935 15.8345H10.1344C10.2281 14.4794 10.6231 13.2089 11.3889 12.0853C13.5011 8.9862 17.7841 8.10242 20.9659 10.1252C22.9158 11.3648 24.1192 13.5272 24.2283 15.8339L24.5238 15.8345ZM7.92921 6.49378L23.9042 6.47631C24.8387 6.55677 25.4522 7.17072 25.5326 8.10473L25.533 23.8607C25.4879 24.8038 24.8422 25.4671 23.9042 25.548L8.14817 25.5484C7.17343 25.4778 6.55605 24.8955 6.46094 23.9195L6.4636 8.04822C6.55368 7.23342 7.11775 6.62216 7.92921 6.49378Z" fill="#CD040D"/>
</g>
</g>
<defs>
<clipPath id="clip0_2811_108077">
<rect width="32" height="32" fill="white"/>
</clipPath>
</defs>
</svg>
