<svg width="32" height="32" viewBox="0 0 32 32" fill="none" xmlns="http://www.w3.org/2000/svg">
<g clip-path="url(#clip0_2707_345788)">
<path d="M15.9998 31.9822C24.8265 31.9822 31.982 24.8267 31.982 16C31.982 7.17325 24.8265 0.0177612 15.9998 0.0177612C7.17306 0.0177612 0.0175781 7.17325 0.0175781 16C0.0175781 24.8267 7.17306 31.9822 15.9998 31.9822Z" fill="white"/>
<path d="M2.95977 13.6088H3.11977C3.32422 13.6088 3.52866 13.6088 3.74199 13.6088C3.95533 13.6088 4.24866 13.6088 4.50644 13.6088C5.05641 13.5671 5.60655 13.6876 6.08866 13.9555C6.28949 14.0768 6.46332 14.238 6.59939 14.4291C6.73546 14.6202 6.83089 14.8372 6.87977 15.0666C6.95598 15.3796 6.96121 15.7057 6.89508 16.021C6.82894 16.3363 6.69312 16.6328 6.49755 16.8888C6.26485 17.1708 5.95646 17.3805 5.60866 17.4933C5.32416 17.5958 5.02149 17.6382 4.71977 17.6177C4.20186 17.5822 3.68213 17.5822 3.16422 17.6177C3.16422 17.6177 3.10199 17.6177 3.04866 17.5733C2.99533 17.5288 3.11088 17.5022 3.14644 17.4933C3.41311 17.3777 3.44866 17.3333 3.44866 17.0488C3.44866 16.3822 3.44866 15.7155 3.44866 15.04C3.44866 14.7644 3.44866 14.48 3.44866 14.1511C3.44866 13.8222 3.35977 13.7155 3.04866 13.6355L2.93311 13.5911L2.95977 13.6088ZM3.93755 15.5466V17.0311C3.93755 17.2088 3.93755 17.2711 4.14199 17.3244C4.27599 17.3682 4.41254 17.4039 4.55088 17.4311C4.99016 17.5286 5.4502 17.4488 5.83088 17.2088C6.11322 17.0302 6.32155 16.7555 6.41755 16.4355C6.48014 16.1888 6.50708 15.9343 6.49755 15.68C6.5088 15.2998 6.41334 14.9242 6.22199 14.5955C6.0684 14.2994 5.82164 14.062 5.51977 13.92C5.1144 13.7223 4.65541 13.663 4.21311 13.7511C4.05311 13.7511 3.96422 13.8488 3.96422 14.0711L3.93755 15.5466Z" fill="#D22A31"/>
<path d="M17.5288 17.28L17.3065 17.44C17.1945 17.5319 17.0638 17.5985 16.9236 17.6351C16.7833 17.6718 16.6368 17.6776 16.4941 17.6523C16.3514 17.627 16.2158 17.571 16.0967 17.4884C15.9777 17.4057 15.8779 17.2982 15.8043 17.1733C15.6263 16.8736 15.5677 16.5179 15.6402 16.1769C15.7126 15.8359 15.9109 15.5347 16.1954 15.3333C16.3621 15.2199 16.5551 15.1513 16.756 15.1342C16.9568 15.1171 17.1587 15.152 17.3421 15.2356L17.5554 15.3245C17.5594 15.2653 17.5594 15.2059 17.5554 15.1467V14.0622C17.5599 13.9934 17.5496 13.9245 17.525 13.8601C17.5005 13.7956 17.4623 13.7373 17.4132 13.6889V13.6445H17.1288C17.1288 13.5911 17.1288 13.5467 17.1821 13.5467C17.4399 13.5003 17.687 13.4069 17.911 13.2711C17.911 13.2711 17.911 13.2711 17.9821 13.2711C18.0532 13.2711 17.9821 13.4133 17.9821 13.4845V16.9689C17.9777 17.0459 17.9777 17.123 17.9821 17.2C17.982 17.2307 17.9883 17.2612 18.0005 17.2894C18.0128 17.3176 18.0308 17.3429 18.0533 17.3638C18.0759 17.3847 18.1025 17.4006 18.1316 17.4107C18.1606 17.4208 18.1915 17.4247 18.2221 17.4222H18.3999C18.3999 17.5378 18.2754 17.52 18.2132 17.5289L17.7154 17.6356L17.5999 17.5911V17.36C17.6042 17.3246 17.6042 17.2888 17.5999 17.2533L17.5288 17.28ZM16.1954 15.5022V15.5645C16.0533 15.7529 15.97 15.979 15.9557 16.2146C15.9415 16.4502 15.997 16.6847 16.1154 16.8889C16.1941 17.0812 16.3377 17.2398 16.5212 17.3372C16.7047 17.4346 16.9165 17.4647 17.1199 17.4222C17.2417 17.4072 17.3539 17.3484 17.4356 17.2568C17.5174 17.1653 17.5631 17.0472 17.5643 16.9245C17.5643 16.5867 17.5643 16.2489 17.5643 15.9111C17.564 15.8108 17.5364 15.7124 17.4843 15.6267C17.3749 15.4886 17.2269 15.3861 17.0592 15.3323C16.8914 15.2785 16.7114 15.2758 16.5421 15.3245C16.4308 15.3749 16.3238 15.4344 16.2221 15.5022H16.1954Z" fill="#D22A31"/>
<path d="M13.0933 15.1111V15.5378L13.3688 15.3155C13.5258 15.1915 13.7199 15.1241 13.9199 15.1241C14.1199 15.1241 14.3141 15.1915 14.471 15.3155C14.6251 15.4251 14.7353 15.5857 14.7822 15.7689C14.8189 15.9446 14.8427 16.1229 14.8533 16.3022C14.8533 16.5866 14.8533 16.8622 14.8533 17.1466C14.8533 17.4311 14.9066 17.4222 15.1022 17.4666L15.3333 17.5289C15.2968 17.5604 15.2545 17.5845 15.2088 17.6H14.2666H14.2222C14.2222 17.52 14.2222 17.5022 14.2933 17.4933C14.3644 17.4844 14.4444 17.3866 14.4444 17.2711C14.4444 16.8889 14.4444 16.4977 14.4444 16.1155C14.4492 15.9598 14.4007 15.8071 14.307 15.6826C14.2132 15.5582 14.0798 15.4695 13.9288 15.4311C13.8172 15.4009 13.6999 15.3981 13.587 15.4229C13.474 15.4476 13.3687 15.4992 13.2799 15.5733C13.2186 15.6177 13.1694 15.6768 13.1368 15.7451C13.1042 15.8134 13.0893 15.8888 13.0933 15.9644C13.0933 16.3466 13.0933 16.72 13.0933 17.1022C13.0933 17.4844 13.1644 17.4578 13.431 17.5022C13.4933 17.5022 13.5733 17.5022 13.6088 17.5822C13.6444 17.6622 13.5644 17.5822 13.5377 17.5822H12.4444H12.391L12.4977 17.5111C12.5619 17.4947 12.6183 17.4564 12.6572 17.4028C12.6961 17.3493 12.7152 17.2838 12.711 17.2178C12.711 17.1644 12.711 17.12 12.711 17.0666V15.8755C12.7154 15.8015 12.7154 15.7273 12.711 15.6533C12.711 15.5111 12.6488 15.4755 12.5066 15.4666H12.3733C12.3733 15.4666 12.3199 15.4666 12.2666 15.3866C12.4088 15.3866 12.5333 15.3155 12.6399 15.2711L12.9688 15.1289L13.0933 15.1111Z" fill="#D22A31"/>
<path d="M9.63548 15.2622L9.54659 15.3244C9.48924 15.3491 9.43846 15.3869 9.39832 15.4348C9.35819 15.4826 9.32982 15.5392 9.31548 15.6C9.14659 16.08 8.97771 16.56 8.79993 17.04C8.62215 17.52 8.48882 17.9289 8.32882 18.3466C8.32882 18.4355 8.2666 18.5333 8.23104 18.6222C8.19548 18.7111 8.23104 18.72 8.15993 18.72C8.03568 18.7601 7.90196 18.7601 7.77771 18.72L8.11548 18.2489C8.14539 18.2064 8.17212 18.1619 8.19548 18.1155C8.25696 18.0039 8.28919 17.8785 8.28919 17.7511C8.28919 17.6236 8.25696 17.4983 8.19548 17.3866C7.99993 16.8889 7.79548 16.4 7.59104 15.92C7.53771 15.8044 7.48437 15.6889 7.43993 15.5733C7.42001 15.5171 7.38828 15.4658 7.34688 15.4229C7.30549 15.3799 7.25538 15.3464 7.19993 15.3244C7.19993 15.3244 7.1466 15.3244 7.09326 15.2355C7.28524 15.2138 7.47906 15.2138 7.67104 15.2355H8.21326C8.21326 15.3333 8.15104 15.3333 8.08882 15.3511C8.0266 15.3689 7.86659 15.4578 7.91993 15.6444C7.95867 15.7761 8.00924 15.9041 8.07104 16.0266C8.21326 16.3733 8.36437 16.72 8.51548 17.0755C8.52671 17.1068 8.54163 17.1367 8.55993 17.1644L8.62215 17.04L9.00437 16C9.03635 15.9044 9.06014 15.8063 9.07548 15.7066C9.07548 15.5378 9.03104 15.4489 8.87104 15.3778C8.71104 15.3066 8.71104 15.3778 8.70215 15.2533H9.59104L9.63548 15.2622Z" fill="#D22A31"/>
<path d="M12.0086 17.4667C11.7775 17.7244 11.4931 17.6889 11.1642 17.3689C11.0904 17.4056 11.0192 17.4472 10.9509 17.4933C10.7419 17.633 10.4884 17.6901 10.2398 17.6533C10.1412 17.6441 10.0471 17.6081 9.96755 17.5492C9.88801 17.4903 9.82612 17.4107 9.78858 17.3192C9.75103 17.2276 9.73927 17.1275 9.75456 17.0297C9.76985 16.9319 9.81161 16.8402 9.87531 16.7644C9.98611 16.6193 10.1427 16.5159 10.3198 16.4711C10.5265 16.4043 10.7373 16.3508 10.9509 16.3111C11.1198 16.3111 11.1375 16.3111 11.1286 16.0978C11.1419 15.9381 11.1419 15.7775 11.1286 15.6178C11.0753 15.3244 10.5775 15.1733 10.3198 15.3422C10.2816 15.3632 10.2499 15.3941 10.228 15.4317C10.2061 15.4692 10.1948 15.5121 10.1953 15.5556C10.1909 15.6325 10.1909 15.7097 10.1953 15.7867C10.1953 15.84 10.1953 15.8933 10.1953 15.9556H10.0531C9.76865 15.9556 9.70643 15.7778 9.85754 15.5289C9.94218 15.3928 10.062 15.2821 10.2044 15.2086C10.3468 15.135 10.5065 15.1014 10.6664 15.1111C10.8594 15.0928 11.0537 15.1298 11.2264 15.2178C11.3306 15.2614 11.4188 15.3359 11.4792 15.4313C11.5397 15.5267 11.5693 15.6383 11.5642 15.7511V16.8889C11.5555 17.0132 11.5555 17.1379 11.5642 17.2622C11.5675 17.2985 11.578 17.3337 11.5951 17.3659C11.6121 17.3981 11.6353 17.4265 11.6634 17.4497C11.6915 17.4728 11.7239 17.4902 11.7588 17.5007C11.7936 17.5113 11.8302 17.5148 11.8664 17.5111L12.0086 17.4667ZM10.2309 16.7644C10.2309 16.8089 10.1864 16.8622 10.1598 16.9156C10.1197 17.0154 10.1197 17.1268 10.1598 17.2267C10.1917 17.2882 10.2363 17.3423 10.2907 17.3852C10.3451 17.4282 10.408 17.4591 10.4752 17.476C10.5425 17.4928 10.6125 17.4951 10.6807 17.4828C10.7489 17.4704 10.8138 17.4437 10.8709 17.4044C10.9598 17.3511 11.0575 17.2711 11.0575 17.1644C11.0575 17.0578 11.0575 16.6933 11.0575 16.4444C10.7925 16.4457 10.5334 16.5228 10.3109 16.6667L10.2575 16.72L10.2309 16.7644Z" fill="#D22A31"/>
<path d="M22.222 15.5911C22.1448 15.4682 22.0265 15.3766 21.8882 15.3326C21.7498 15.2887 21.6004 15.2952 21.4664 15.3511C21.4219 15.3688 21.3838 15.3995 21.3568 15.4391C21.3299 15.4787 21.3154 15.5254 21.3153 15.5733C21.3153 15.6622 21.3153 15.76 21.3153 15.8489C21.3164 15.8997 21.3223 15.9503 21.3331 16H21.2531C21.1939 16.0091 21.1334 16.0014 21.0785 15.9778C21.0235 15.9542 20.9762 15.9157 20.942 15.8666C20.8709 15.7511 20.942 15.6444 21.022 15.5466C21.1025 15.4244 21.212 15.3239 21.3407 15.2541C21.4694 15.1843 21.6133 15.1474 21.7597 15.1466C21.9287 15.139 22.0975 15.1631 22.2575 15.2178C22.3723 15.2597 22.4714 15.3359 22.5413 15.4361C22.6113 15.5363 22.6488 15.6556 22.6486 15.7778V16.8889C22.6486 16.9955 22.6486 17.1111 22.6486 17.2178C22.6486 17.3244 22.782 17.4666 22.9686 17.4489H23.1109C23.1109 17.5111 23.0664 17.5644 23.0397 17.5733C22.9378 17.6412 22.8153 17.6712 22.6936 17.6582C22.5718 17.6452 22.4584 17.59 22.3731 17.5022L22.2753 17.3778L21.9997 17.5378C21.8131 17.651 21.5948 17.7008 21.3775 17.68C21.2671 17.6772 21.1604 17.6396 21.0726 17.5725C20.9848 17.5055 20.9204 17.4124 20.8886 17.3066C20.8565 17.1878 20.8614 17.062 20.9027 16.9461C20.944 16.8301 21.0197 16.7295 21.1197 16.6578C21.3222 16.5276 21.549 16.4399 21.7864 16.4C21.8708 16.3773 21.9571 16.3624 22.0442 16.3555H22.222V15.5911ZM22.1509 16.4266H22.1064C21.9407 16.4445 21.7804 16.4959 21.6353 16.5778C21.4985 16.639 21.3904 16.7504 21.3331 16.8889C21.2936 16.9941 21.2956 17.1104 21.3384 17.2143C21.3813 17.3183 21.462 17.4021 21.5642 17.4489C21.6892 17.4909 21.825 17.4881 21.9482 17.4411C22.0714 17.3941 22.1745 17.3057 22.2397 17.1911C22.3109 17.1378 22.2397 16.6222 22.2397 16.4622C22.2397 16.3022 22.2397 16.4 22.1686 16.4178L22.1509 16.4266Z" fill="#D22A31"/>
<path d="M19.0578 15.5378L18.6934 15.4489C18.6934 15.4044 18.6934 15.3689 18.7467 15.3689C18.9816 15.3405 19.2052 15.2517 19.3956 15.1111H19.5556V15.5466C19.6267 15.6 19.6622 15.5466 19.6978 15.5466L20 15.2711C20.0512 15.2284 20.1156 15.2051 20.1822 15.2051C20.2488 15.2051 20.3133 15.2284 20.3645 15.2711C20.64 15.44 20.6311 15.5911 20.3645 15.76L20.1867 15.6622C20.1366 15.6328 20.0804 15.6153 20.0225 15.6109C19.9646 15.6064 19.9065 15.6153 19.8525 15.6367C19.7985 15.6581 19.7501 15.6916 19.711 15.7345C19.6719 15.7774 19.643 15.8287 19.6267 15.8844C19.5983 15.9582 19.5832 16.0365 19.5822 16.1155C19.5822 16.4355 19.5822 16.7555 19.5822 17.0755C19.5737 17.1315 19.5737 17.1884 19.5822 17.2444C19.5822 17.5022 19.6622 17.5378 19.92 17.5733C19.9911 17.5733 20.0622 17.5733 20.1067 17.6355C20.1511 17.6978 20.0267 17.7066 19.9645 17.6978C19.6365 17.6622 19.3057 17.6622 18.9778 17.6978C18.9427 17.7058 18.9062 17.7058 18.8711 17.6978L19.0845 17.5911C19.1645 17.5911 19.1289 17.4933 19.1289 17.44V15.7689C19.1337 15.7275 19.1337 15.6858 19.1289 15.6444C19.1102 15.6228 19.0854 15.6073 19.0578 15.6V15.5378Z" fill="#D22A31"/>
<path d="M25.44 17.44C25.28 17.6266 24.9778 17.6355 24.6222 17.44C24.3928 17.5604 24.1337 17.6129 23.8755 17.5911C23.793 17.5888 23.7118 17.5701 23.6366 17.5362C23.5614 17.5022 23.4937 17.4536 23.4374 17.3932C23.3812 17.3328 23.3375 17.2618 23.3089 17.1844C23.2804 17.107 23.2675 17.0246 23.2711 16.9422C23.2771 16.8419 23.3123 16.7456 23.3723 16.6651C23.4323 16.5846 23.5145 16.5233 23.6089 16.4889V16.32C23.589 16.2514 23.5887 16.1787 23.6081 16.1099C23.6274 16.0412 23.6656 15.9793 23.7184 15.9312C23.7711 15.8831 23.8363 15.8507 23.9065 15.8377C23.9767 15.8248 24.0491 15.8317 24.1155 15.8577L24.4622 15.92V16.3644C24.4622 16.3111 24.4089 16.2755 24.4 16.2489C24.3747 16.1784 24.3347 16.1143 24.2825 16.0606C24.2304 16.0069 24.1674 15.965 24.0978 15.9377C23.92 15.8755 23.8222 15.9377 23.8311 16.1333C23.838 16.1897 23.8562 16.244 23.8844 16.2933C24.0708 16.5747 24.2986 16.8264 24.56 17.04C24.6139 17.0772 24.6742 17.1043 24.7378 17.12C24.8978 16.8444 24.8355 16.7111 24.56 16.6222C24.6311 16.5689 24.72 16.56 25.0311 16.6222C24.9778 16.8 24.9155 16.9777 24.8533 17.1555C24.8411 17.191 24.8425 17.2298 24.8573 17.2643C24.8721 17.2988 24.8992 17.3266 24.9333 17.3422C25.003 17.3993 25.0858 17.4381 25.1743 17.4552C25.2627 17.4723 25.3541 17.467 25.44 17.44ZM24.5511 17.3866C24.2089 17.1649 23.9081 16.8852 23.6622 16.56C23.4844 16.7022 23.4578 16.8 23.5378 16.9866C23.5817 17.0875 23.6452 17.1787 23.7245 17.255C23.8039 17.3312 23.8975 17.3911 24 17.4311C24.0891 17.4666 24.1851 17.4811 24.2807 17.4734C24.3763 17.4657 24.4689 17.436 24.5511 17.3866Z" fill="#9C9D9E"/>
<path d="M27.0843 16C27.1386 16.1675 27.1386 16.348 27.0843 16.5155C27.031 16.4177 26.9598 16.3377 26.9065 16.24C26.8533 16.1371 26.7694 16.0532 26.6665 16C26.5995 15.9689 26.5264 15.953 26.4526 15.9531C26.3787 15.9533 26.3058 15.9696 26.2389 16.001C26.1719 16.0323 26.1127 16.0779 26.0653 16.1345C26.0179 16.1912 25.9834 16.2575 25.9643 16.3289C25.907 16.4742 25.8867 16.6316 25.9053 16.7868C25.9239 16.9419 25.9809 17.0901 26.071 17.2177C26.1189 17.2876 26.1811 17.3465 26.2536 17.3904C26.3261 17.4343 26.4071 17.4623 26.4912 17.4724C26.5754 17.4825 26.6607 17.4745 26.7415 17.449C26.8223 17.4235 26.8968 17.381 26.9598 17.3244L27.0932 17.2089C27.0932 17.2089 27.0932 17.2089 27.1376 17.2089C27.1414 17.2443 27.1414 17.2801 27.1376 17.3155C27.0576 17.4196 26.9555 17.5047 26.8387 17.5646C26.7219 17.6246 26.5933 17.6579 26.4621 17.6622C26.3417 17.6686 26.2214 17.6488 26.1094 17.6043C25.9974 17.5598 25.8964 17.4916 25.8132 17.4044C25.7309 17.3103 25.6693 17.2 25.6326 17.0805C25.5958 16.961 25.5847 16.8351 25.5998 16.7111C25.6189 16.6036 25.6517 16.499 25.6976 16.4C25.7472 16.2921 25.8178 16.1952 25.9054 16.1151C25.993 16.035 26.0958 15.9732 26.2076 15.9334C26.3195 15.8937 26.4381 15.8767 26.5566 15.8836C26.6752 15.8904 26.7911 15.9209 26.8976 15.9733C26.9251 15.9906 26.956 16.0019 26.9881 16.0065C27.0203 16.0111 27.0531 16.0089 27.0843 16Z" fill="#9C9D9E"/>
<path d="M27.8309 17.6178C27.7609 17.6274 27.6897 17.6211 27.6225 17.5994C27.5552 17.5777 27.4937 17.5412 27.4425 17.4926C27.3913 17.4439 27.3517 17.3844 27.3266 17.3184C27.3015 17.2523 27.2916 17.1815 27.2976 17.1111C27.2928 16.9641 27.346 16.821 27.4458 16.7129C27.5456 16.6048 27.6839 16.5403 27.8309 16.5333C27.9591 16.5051 28.0932 16.526 28.2068 16.5918C28.3203 16.6576 28.4051 16.7636 28.4443 16.8889C28.4522 16.9449 28.4522 17.0018 28.4443 17.0578C28.4446 17.1956 28.3923 17.3284 28.2982 17.4291C28.2041 17.5299 28.0751 17.591 27.9376 17.6L27.8309 17.6178ZM28.2131 17.1911C28.2081 17.0186 28.1455 16.8528 28.0354 16.72C28.0068 16.6793 27.9678 16.647 27.9224 16.6267C27.877 16.6063 27.827 16.5987 27.7776 16.6044C27.7298 16.6151 27.686 16.6391 27.6514 16.6738C27.6167 16.7084 27.5927 16.7522 27.582 16.8C27.5479 16.9127 27.5431 17.0322 27.568 17.1473C27.5929 17.2624 27.6467 17.3692 27.7243 17.4578C27.7483 17.4891 27.7793 17.5145 27.8147 17.532C27.8502 17.5495 27.8892 17.5585 27.9287 17.5585C27.9682 17.5585 28.0072 17.5495 28.0427 17.532C28.0781 17.5145 28.1091 17.4891 28.1331 17.4578C28.1677 17.3806 28.1945 17.3002 28.2131 17.2178V17.1911Z" fill="#9C9D9E"/>
<path d="M29.04 17.4578L28.8711 17.6266C28.8444 17.6467 28.8143 17.6618 28.7822 17.6711L28.5688 17.4044L28.7644 17.2089C28.9155 17.2266 28.9511 17.3422 29.04 17.4578Z" fill="#9C9D9E"/>
<path d="M17.1108 13.6356H17.3953C17.3953 13.6356 17.3953 13.6356 17.3953 13.68H17.1731L17.1108 13.6356Z" fill="#9C9D9E"/>
<path d="M13.093 15.1111H12.9419C13.013 15.04 13.0574 15.04 13.093 15.1111Z" fill="#9C9D9E"/>
<path d="M11.662 19.28C11.662 19.52 11.662 19.76 11.662 20.0178H11.5376C11.5376 19.6889 11.582 19.3778 11.6087 19.04H11.7776L12.0443 19.8044C12.1069 19.6895 12.1547 19.567 12.1865 19.44C12.2431 19.3132 12.2906 19.1824 12.3287 19.0489H12.4443L12.5243 20.0178H12.3732V19.2266C12.2843 19.2711 12.2843 19.3422 12.2576 19.4044L12.0709 19.9289C12.0693 19.9438 12.0642 19.9582 12.056 19.9708C12.0479 19.9835 12.037 19.9941 12.0241 20.0019C12.0112 20.0096 11.9966 20.0143 11.9816 20.0155C11.9667 20.0167 11.9516 20.0144 11.9376 20.0089C11.8309 19.7866 11.7865 19.52 11.6532 19.28" fill="#231F20"/>
<path d="M5.08442 19.1467C5.05197 19.4064 5.05197 19.6691 5.08442 19.9289C5.1667 19.9518 5.25396 19.9495 5.33492 19.9223C5.41587 19.895 5.48679 19.8441 5.5385 19.7761C5.59021 19.7082 5.62032 19.6262 5.62494 19.5409C5.62956 19.4556 5.60847 19.3709 5.56442 19.2978L5.43997 19.1555C5.30664 19.1555 5.19108 19.0666 5.06664 19.1555M4.91553 20.0444V19.0578C5.09844 18.9864 5.30151 18.9864 5.48442 19.0578C5.55497 19.0826 5.61642 19.1281 5.6608 19.1884C5.70518 19.2486 5.73044 19.3208 5.7333 19.3955C5.75164 19.4742 5.75155 19.5561 5.73305 19.6347C5.71455 19.7133 5.67813 19.7866 5.62664 19.8489C5.52916 19.9162 5.41706 19.9594 5.29959 19.9749C5.18212 19.9903 5.06266 19.9776 4.95108 19.9378" fill="#231F20"/>
<path d="M8.62181 19.9467L8.95959 19.9022C9.04618 19.8445 9.11169 19.7603 9.14626 19.6622C9.17769 19.592 9.1877 19.514 9.17505 19.4381C9.16241 19.3623 9.12765 19.2918 9.07515 19.2355C9.01646 19.1782 8.94278 19.1386 8.86258 19.1213C8.78237 19.104 8.69892 19.1097 8.62181 19.1378V19.9467ZM8.4707 20V19.0578C8.64522 18.9907 8.83841 18.9907 9.01293 19.0578C9.09504 19.0854 9.16653 19.1379 9.21749 19.208C9.26845 19.278 9.29637 19.3622 9.29737 19.4489C9.30654 19.5316 9.30654 19.6151 9.29737 19.6978C9.28069 19.7649 9.24759 19.8269 9.20104 19.8781C9.1545 19.9293 9.09597 19.9681 9.0307 19.9911C8.94523 20.0285 8.85291 20.0479 8.75959 20.0479C8.66627 20.0479 8.57396 20.0285 8.48848 19.9911" fill="#231F20"/>
<path d="M19.8043 20.0088H19.7154C19.6704 19.6845 19.6704 19.3554 19.7154 19.0311H19.8487L20.3376 19.8133V19.0311H20.4443V20H20.311C20.151 19.7511 19.9999 19.4933 19.8221 19.2266L19.8043 20.0088Z" fill="#231F20"/>
<path d="M17.1556 20.0178H17.0222L16.5333 19.2355V20.0089H16.4356C16.403 19.6867 16.403 19.3621 16.4356 19.04H16.4889H16.5778L17.0578 19.8044V19.0489H17.1733L17.1556 20.0178Z" fill="#231F20"/>
<path d="M23.6089 19.04H23.7422L24.24 19.8133V19.0489H24.3467C24.3599 19.2116 24.3599 19.3751 24.3467 19.5378C24.3467 19.6978 24.3467 19.8489 24.3467 20.0178H24.2133L23.7244 19.2533C23.7113 19.3774 23.7113 19.5025 23.7244 19.6266C23.7244 19.7511 23.7244 19.8755 23.7244 20H23.6089V19.04Z" fill="#231F20"/>
<path d="M23.1111 19.8844C23.2889 19.6178 23.2978 19.5111 23.1911 19.2889C23.1709 19.2434 23.1391 19.204 23.0989 19.1746C23.0587 19.1453 23.0115 19.127 22.962 19.1216C22.9125 19.1162 22.8625 19.1239 22.8169 19.1439C22.7713 19.1639 22.7317 19.1955 22.7022 19.2355C22.6763 19.2665 22.6525 19.2991 22.6311 19.3333C22.6311 19.4044 22.6311 19.4755 22.6311 19.5466C22.6157 19.6049 22.6175 19.6665 22.6364 19.7237C22.6553 19.781 22.6904 19.8315 22.7375 19.8692C22.7846 19.9069 22.8416 19.93 22.9016 19.9359C22.9616 19.9418 23.0221 19.93 23.0755 19.9022H23.12M22.48 19.3689C22.5429 19.24 22.6417 19.132 22.7644 19.0578C22.8181 19.0342 22.8759 19.0215 22.9345 19.0204C22.9931 19.0193 23.0513 19.0298 23.1058 19.0513C23.1604 19.0727 23.2101 19.1048 23.2522 19.1456C23.2943 19.1863 23.3279 19.235 23.3511 19.2889C23.3908 19.3737 23.4113 19.4663 23.4113 19.56C23.4113 19.6537 23.3908 19.7462 23.3511 19.8311C23.3062 19.9158 23.2352 19.9838 23.1485 20.0249C23.0618 20.0659 22.9642 20.0778 22.8702 20.0588C22.7762 20.0398 22.6909 19.9909 22.627 19.9195C22.563 19.848 22.524 19.7577 22.5155 19.6622C22.5155 19.5555 22.5155 19.4578 22.5155 19.3689" fill="#231F20"/>
<path d="M8.12428 19.04H8.21316C8.24823 19.3679 8.24823 19.6987 8.21316 20.0266H8.11539L7.6265 19.2622C7.58205 19.3422 7.6265 19.4222 7.6265 19.5022V20.0178H7.49316V19.04H7.64428L8.13316 19.8133C8.13316 19.5466 8.13316 19.2978 8.13316 19.04" fill="#231F20"/>
<path d="M19.0222 19.1289V19.4933C19.1466 19.4933 19.2622 19.4933 19.3422 19.3955V19.1911C19.296 19.1593 19.2437 19.1374 19.1887 19.1267C19.1336 19.116 19.077 19.1167 19.0222 19.1289ZM18.8711 19.0489C18.9636 19.0131 19.0631 18.9993 19.1618 19.0085C19.2605 19.0178 19.3558 19.0499 19.44 19.1022L19.4933 19.2711C19.4933 19.3293 19.4766 19.3862 19.445 19.4351C19.4135 19.484 19.3685 19.5227 19.3155 19.5467C19.4755 19.6622 19.4578 19.84 19.5111 20.0089H19.4133C19.2978 19.9022 19.3689 19.6978 19.2089 19.6H19.0133V20H18.8711V19.0489Z" fill="#231F20"/>
<path d="M13.5996 19.92C13.662 19.939 13.7277 19.9441 13.7922 19.9349C13.8568 19.9257 13.9185 19.9024 13.973 19.8667C14.0529 19.817 14.1127 19.7408 14.142 19.6513C14.1712 19.5619 14.1681 19.4651 14.133 19.3778C14.1161 19.3256 14.088 19.2778 14.0505 19.2377C14.0131 19.1976 13.9673 19.1663 13.9164 19.1459C13.8655 19.1256 13.8107 19.1167 13.7559 19.1199C13.7012 19.1231 13.6478 19.1383 13.5996 19.1644V19.92ZM13.4663 19.0311C13.6123 18.9957 13.7647 18.9957 13.9108 19.0311C13.9727 19.0438 14.0315 19.0686 14.0838 19.1041C14.1362 19.1396 14.1809 19.1851 14.2156 19.238C14.2503 19.2908 14.2742 19.35 14.286 19.4121C14.2977 19.4743 14.2971 19.5381 14.2841 19.6C14.2659 19.6858 14.2284 19.7664 14.1745 19.8356C14.1205 19.9048 14.0515 19.9608 13.9727 19.9993C13.8939 20.0379 13.8073 20.058 13.7196 20.0581C13.6318 20.0582 13.5452 20.0383 13.4663 20V19.0489" fill="#231F20"/>
<path d="M9.59992 19.1466V19.4844H9.84881L9.94659 19.3777C9.96893 19.3484 9.98104 19.3124 9.98104 19.2755C9.98104 19.2386 9.96893 19.2027 9.94659 19.1733C9.9013 19.1449 9.84893 19.1298 9.79548 19.1298C9.74202 19.1298 9.68965 19.1449 9.64436 19.1733M9.52881 19.0755C9.62632 19.034 9.73386 19.022 9.83812 19.041C9.94239 19.0599 10.0388 19.109 10.1155 19.1822C10.1155 19.4222 10.1155 19.4489 9.98214 19.5733C10.0824 19.7049 10.144 19.8619 10.1599 20.0266C10.1485 20.0361 10.1349 20.0425 10.1204 20.0454C10.1059 20.0482 10.0909 20.0474 10.0768 20.043C10.0626 20.0386 10.0498 20.0307 10.0395 20.0201C10.0292 20.0095 10.0217 19.9964 10.0177 19.9822C9.99878 19.9301 9.98392 19.8766 9.97325 19.8222C9.96574 19.7833 9.94994 19.7465 9.92693 19.7143C9.90393 19.6821 9.87425 19.6552 9.83992 19.6355H9.65325V20.0355H9.52881V19.0755Z" fill="#231F20"/>
<path d="M27.5552 19.3866C27.5552 19.3866 27.4841 19.3866 27.4663 19.3866C27.4026 19.4331 27.3583 19.5014 27.3419 19.5785C27.3255 19.6556 27.3381 19.7361 27.3774 19.8044C27.3939 19.8361 27.4188 19.8626 27.4494 19.8811C27.4799 19.8996 27.515 19.9094 27.5507 19.9094C27.5864 19.9094 27.6215 19.8996 27.6521 19.8811C27.6826 19.8626 27.7075 19.8361 27.7241 19.8044C27.8307 19.6178 27.7863 19.4666 27.5552 19.36M27.2263 18.9422H27.3241C27.3331 19.0783 27.3331 19.2149 27.3241 19.3511C27.3815 19.3145 27.4459 19.2901 27.5132 19.2794C27.5804 19.2687 27.6492 19.2719 27.7152 19.2889C27.7845 19.3373 27.8372 19.406 27.8658 19.4856C27.8945 19.5652 27.8978 19.6518 27.8752 19.7333C27.871 19.7881 27.8524 19.8408 27.8213 19.886C27.7901 19.9313 27.7476 19.9675 27.6979 19.991C27.6482 20.0145 27.5932 20.0244 27.5385 20.0197C27.4838 20.0151 27.4312 19.996 27.3863 19.9644H27.3329C27.3329 20.0178 27.2796 20.0622 27.2085 20.0178L27.2263 18.9422Z" fill="#231F20"/>
<path d="M6.7819 19.6H7.04857C7.02693 19.456 6.97871 19.3174 6.90635 19.1911L6.7819 19.6ZM6.50635 20.0178L6.83524 19.04H7.00413L7.3419 20.0178H7.20857L7.11079 19.7244H6.74635L6.63968 20.0178H6.50635Z" fill="#231F20"/>
<path d="M24.933 19.2C24.8623 19.3257 24.8085 19.4602 24.773 19.6C24.8673 19.6136 24.9631 19.6136 25.0575 19.6L24.933 19.2089M25.3419 20.0267H25.1997L25.1019 19.7333H24.7463L24.6397 20.0178H24.5063C24.6219 19.6889 24.7286 19.3689 24.8352 19.0489H25.0041L25.3419 20.0267Z" fill="#231F20"/>
<path d="M15.1554 19.1733L15.0043 19.6C15.1002 19.6269 15.2017 19.6269 15.2976 19.6L15.1554 19.2M15.582 20.0444H15.4398L15.3331 19.7511H14.9776L14.8976 19.9733C14.8961 19.9891 14.8904 20.0041 14.8811 20.0169C14.8718 20.0297 14.8592 20.0398 14.8447 20.0462C14.8303 20.0525 14.8143 20.0549 14.7986 20.053C14.7829 20.0511 14.768 20.0451 14.7554 20.0355C14.7922 19.8716 14.8428 19.711 14.9065 19.5555C14.9509 19.3955 15.0131 19.2355 15.0754 19.0667H15.2265C15.3776 19.3778 15.4398 19.7155 15.582 20.0533" fill="#231F20"/>
<path d="M12.7285 19.04C12.909 19.0266 13.0902 19.0266 13.2707 19.04C13.2707 19.12 13.2707 19.1466 13.1907 19.1466H12.8796C12.8796 19.2444 12.8796 19.3333 12.8796 19.44H13.253V19.5555H12.8974C12.88 19.6645 12.88 19.7755 12.8974 19.8844C13.0218 19.9377 13.1641 19.8844 13.3063 19.8844V19.9822H12.7463L12.7285 19.04Z" fill="#231F20"/>
<path d="M20.8531 19.6H21.1464L20.9953 19.1644L20.8531 19.6ZM21.422 20.0089H21.2886L21.1731 19.7067H20.8353L20.7198 19.9911H20.5864C20.702 19.6622 20.8086 19.3422 20.9242 19.0222H21.0842C21.1998 19.3422 21.3064 19.6622 21.422 19.9911" fill="#231F20"/>
<path d="M10.6666 19.1555C10.6107 19.3 10.5662 19.4486 10.5333 19.6H10.7999L10.6666 19.1555ZM10.8444 19.7244H10.4888C10.4888 19.7955 10.4888 19.8666 10.4177 19.9289C10.3466 19.9911 10.4177 20.0089 10.2666 20.0089C10.3035 19.842 10.354 19.6785 10.4177 19.52C10.471 19.36 10.5333 19.2089 10.5866 19.04H10.7466L11.0755 20.0089H10.9599L10.8444 19.7066" fill="#231F20"/>
<path d="M18.1509 19.0311H18.6664V19.1377H18.2842C18.2663 19.2347 18.2663 19.3341 18.2842 19.4311H18.6664V19.5555H18.2931V19.9022H18.6664V20.0088H18.1064L18.1509 19.0311Z" fill="#231F20"/>
<path d="M3.4488 19.5556L3.55547 19.4222V19.2356C3.51741 19.1797 3.46016 19.1398 3.39461 19.1234C3.32906 19.1071 3.25977 19.1153 3.19991 19.1467V19.5556H3.4488ZM3.19102 19.68V20.0445H3.09325C3.07569 19.882 3.07569 19.7181 3.09325 19.5556C3.09325 19.3956 3.09325 19.2445 3.09325 19.0845C3.19061 19.0262 3.30603 19.0057 3.41749 19.027C3.52896 19.0483 3.62869 19.1099 3.69769 19.2C3.69331 19.2295 3.69331 19.2594 3.69769 19.2889C3.69769 19.52 3.59991 19.6267 3.35102 19.6622H3.19102" fill="#231F20"/>
<path d="M28.4441 19.3066H28.5774C28.5823 19.3271 28.5823 19.3484 28.5774 19.3689L28.3552 19.6089L28.6396 20.0178H28.4441L28.2041 19.6978C28.0707 19.7689 28.2041 19.9111 28.1152 20H28.0352C28.0071 19.6569 28.0071 19.312 28.0352 18.9689H28.133C28.133 19.1822 28.133 19.3866 28.133 19.6089C28.2349 19.5264 28.3221 19.4272 28.3907 19.3155" fill="#231F20"/>
<path d="M21.653 19.1466H21.333V19.04C21.5908 19.04 21.8308 19.04 22.0797 19.04V19.1466H21.7863V20.0355H21.6352L21.653 19.1466Z" fill="#231F20"/>
<path d="M4.06189 19.1467H3.76855V19.0667C4.01573 19.0254 4.26804 19.0254 4.51522 19.0667V19.1555H4.22189V20.0444H4.06189V19.1467Z" fill="#231F20"/>
<path d="M5.8042 19.0489H5.91975C6.02896 19.1919 6.12142 19.347 6.19531 19.5111L6.42642 19.0578H6.57753L6.22198 19.6178V20.0178H6.1242C6.13305 19.9291 6.13305 19.8398 6.1242 19.7511C6.11081 19.6616 6.08383 19.5747 6.0442 19.4933C5.98198 19.36 5.90198 19.2267 5.81309 19.0756" fill="#231F20"/>
<path d="M25.6267 19.9111H25.9555C26.0089 19.9111 26.0533 19.9111 26.0444 20H26H25.5022C25.4934 19.8371 25.4934 19.6739 25.5022 19.5111C25.5022 19.36 25.5022 19.2 25.5022 19.0311H25.6355L25.6267 19.9111Z" fill="#231F20"/>
<path d="M26.7731 20.0178H26.6664V19.1289H26.3819L26.3286 19.0578C26.5809 19.007 26.8408 19.007 27.0931 19.0578V19.1467H26.8175C26.8175 19.44 26.8175 19.7156 26.8175 20.0356" fill="#231F20"/>
<path d="M18.0351 19.0666L17.9818 19.1466H17.7151C17.702 19.2915 17.702 19.4373 17.7151 19.5822V20.0089H17.5996V19.12H17.2974V19.0311C17.5476 18.9912 17.8026 18.9912 18.0529 19.0311" fill="#231F20"/>
<path d="M14.4621 20.0267V19.0489H14.5866C14.5953 19.2117 14.5953 19.3749 14.5866 19.5378V20.0178H14.4443" fill="#231F20"/>
<path d="M16.1689 20.0178H16.0444V19.0489H16.1689V20.0178Z" fill="#231F20"/>
<path d="M22.2222 19.04H22.3288V20.0089H22.2222V19.04Z" fill="#231F20"/>
<path d="M28.9241 19.9466L28.8263 20.0533C28.7196 19.9911 28.7107 19.9555 28.7463 19.9022C28.7819 19.8489 28.8263 19.8578 28.9241 19.9466Z" fill="#231F20"/>
</g>
<defs>
<clipPath id="clip0_2707_345788">
<rect width="32" height="32" fill="white"/>
</clipPath>
</defs>
</svg>
