<svg width="32" height="32" viewBox="0 0 32 32" fill="none" xmlns="http://www.w3.org/2000/svg">
<g clip-path="url(#clip0_2707_345473)">
<path d="M15.9998 31.9823C24.8265 31.9823 31.982 24.8268 31.982 16C31.982 7.17331 24.8265 0.0178223 15.9998 0.0178223C7.17306 0.0178223 0.0175781 7.17331 0.0175781 16C0.0175781 24.8268 7.17306 31.9823 15.9998 31.9823Z" fill="white"/>
<path d="M11.92 14.8712C11.92 14.5156 11.92 14.1956 11.92 13.8845C11.92 13.5734 12.1245 13.3334 12.4445 13.3334C12.7645 13.3334 12.9422 13.52 12.9511 13.8934C12.9511 14.8889 12.9511 15.8934 12.9511 16.8889C12.9302 17.1665 12.8504 17.4365 12.7172 17.6809C12.584 17.9253 12.4004 18.1387 12.1785 18.3068C11.9566 18.4749 11.7015 18.5939 11.4302 18.6559C11.1588 18.718 10.8774 18.7217 10.6045 18.6667C10.1142 18.5733 9.67628 18.3007 9.376 17.902C9.07571 17.5034 8.93456 17.0073 8.98004 16.5103C9.02553 16.0132 9.25439 15.551 9.62205 15.2135C9.98971 14.876 10.4698 14.6874 10.9689 14.6845C11.1551 14.6812 11.3408 14.7052 11.52 14.7556L11.92 14.8712ZM11.92 16.6934C11.9271 16.4973 11.8755 16.3035 11.7719 16.1368C11.6682 15.9702 11.5172 15.8382 11.3382 15.7578C11.1592 15.6774 10.9603 15.6522 10.7668 15.6855C10.5734 15.7187 10.3943 15.8089 10.2524 15.9444C10.1105 16.08 10.0123 16.2548 9.97023 16.4465C9.92819 16.6382 9.94427 16.8381 10.0164 17.0206C10.0886 17.2031 10.2135 17.3599 10.3753 17.4711C10.537 17.5822 10.7282 17.6426 10.9245 17.6445C11.181 17.6447 11.4277 17.546 11.6132 17.3688C11.7986 17.1916 11.9086 16.9496 11.92 16.6934Z" fill="#282425"/>
<path d="M23.3422 17.0844C23.3878 17.2184 23.4631 17.3404 23.5624 17.4413C23.6617 17.5422 23.7824 17.6194 23.9156 17.6672C24.0489 17.715 24.1912 17.7322 24.3319 17.7175C24.4727 17.7028 24.6084 17.6566 24.7288 17.5822C25.1294 17.4315 25.5657 17.4036 25.9822 17.5022C25.8085 17.9389 25.4779 18.295 25.0553 18.5006C24.6327 18.7061 24.1485 18.7464 23.6977 18.6133C23.3538 18.5204 23.0406 18.338 22.79 18.0847C22.5394 17.8314 22.3603 17.5163 22.271 17.1714C22.1817 16.8265 22.1853 16.4641 22.2814 16.121C22.3775 15.7779 22.5628 15.4664 22.8184 15.2182C23.0739 14.9699 23.3907 14.7938 23.7364 14.7076C24.0821 14.6214 24.4445 14.6284 24.7866 14.7276C25.1288 14.8269 25.4386 15.0151 25.6845 15.2729C25.9304 15.5307 26.1036 15.8491 26.1866 16.1956C26.2233 16.3346 26.2383 16.4786 26.2311 16.6222C26.2311 16.9689 26.1244 17.0756 25.7777 17.0844C25.1288 17.0844 24.4799 17.0844 23.8311 17.0844H23.3422ZM23.3422 16.1956H25.2177C25.1361 16.0082 25.0001 15.8496 24.8274 15.7402C24.6547 15.6309 24.4531 15.5759 24.2488 15.5822C24.0431 15.5639 23.8375 15.6177 23.6672 15.7345C23.4968 15.8513 23.3725 16.0237 23.3155 16.2222L23.3422 16.1956Z" fill="#E22B32"/>
<path d="M15.2886 18.6667C14.7697 18.6529 14.2762 18.4388 13.9116 18.0693C13.5471 17.6998 13.3397 17.2035 13.333 16.6844V16.6222C13.367 16.1114 13.5939 15.6325 13.9677 15.2827C14.3415 14.9329 14.8344 14.7383 15.3463 14.7383C15.8583 14.7383 16.3512 14.9329 16.725 15.2827C17.0988 15.6325 17.3257 16.1114 17.3597 16.6222V16.6667C17.3585 16.9327 17.3046 17.1959 17.2009 17.441C17.0972 17.686 16.9458 17.908 16.7556 18.0941C16.5654 18.2802 16.3401 18.4266 16.0929 18.5249C15.8456 18.6232 15.5813 18.6714 15.3152 18.6667H15.2886ZM14.3286 16.6222C14.3206 16.8724 14.408 17.1162 14.573 17.3043C14.738 17.4925 14.9684 17.6109 15.2175 17.6355H15.2708C15.5272 17.6334 15.773 17.5324 15.9568 17.3536C16.1406 17.1747 16.2483 16.9318 16.2575 16.6755C16.2417 16.4299 16.1348 16.199 15.9575 16.0281C15.7803 15.8573 15.5456 15.7589 15.2996 15.7522C15.0535 15.7455 14.8138 15.8311 14.6276 15.992C14.4414 16.153 14.322 16.3778 14.293 16.6222H14.3286Z" fill="#282425"/>
<path d="M8.56867 17.4222C8.56867 17.6445 8.56867 17.8667 8.56867 18.0889C8.56867 18.4889 8.35534 18.6845 8.02645 18.6756C7.69756 18.6667 7.55534 18.4622 7.53756 18.0889C7.51978 17.7156 7.53756 17.3956 7.53756 17.04C7.53756 16.9511 7.53756 16.8533 7.53756 16.7556C7.53563 16.4832 7.42959 16.2219 7.24118 16.0252C7.05276 15.8286 6.79625 15.7114 6.52423 15.6978C6.25234 15.7204 5.99946 15.8464 5.81759 16.0497C5.63572 16.2531 5.53869 16.5184 5.54645 16.7911C5.54645 17.2178 5.54645 17.68 5.54645 18.08C5.55923 18.2081 5.526 18.3366 5.45272 18.4425C5.37943 18.5483 5.27086 18.6247 5.14645 18.6578C5.07426 18.6846 4.99651 18.6929 4.92028 18.6821C4.84404 18.6712 4.77173 18.6414 4.70991 18.5955C4.64809 18.5496 4.59873 18.489 4.5663 18.4191C4.53387 18.3493 4.51941 18.2724 4.52423 18.1956C4.46914 17.6043 4.46914 17.0091 4.52423 16.4178C4.58606 15.9328 4.82038 15.4863 5.18435 15.1599C5.54832 14.8334 6.01762 14.6489 6.50645 14.64C6.99676 14.6501 7.46741 14.8347 7.83394 15.1605C8.20048 15.4863 8.43891 15.9321 8.50645 16.4178C8.54489 16.7483 8.56566 17.0806 8.56867 17.4133V17.4222Z" fill="#282425"/>
<path d="M17.7776 17.2268C17.7046 16.6421 17.84 16.0504 18.1598 15.5556C18.3503 15.25 18.6232 15.0044 18.9472 14.8471C19.2712 14.6899 19.633 14.6273 19.9909 14.6668C20.3613 14.7099 20.7115 14.8585 20.9998 15.0948C21.2882 15.3312 21.5026 15.6454 21.6176 16.0001C21.8365 16.7288 21.8881 17.4975 21.7687 18.249C21.7679 18.3137 21.7535 18.3775 21.7265 18.4363C21.6994 18.4951 21.6603 18.5476 21.6117 18.5903C21.5631 18.633 21.5061 18.6651 21.4443 18.6844C21.3826 18.7037 21.3174 18.7098 21.2531 18.7023C20.9687 18.7023 20.7909 18.5068 20.7731 18.1601C20.7554 17.8134 20.7731 17.4312 20.7731 17.0668C20.7728 16.8597 20.746 16.6536 20.6931 16.4534C20.6309 16.2384 20.4998 16.0498 20.3199 15.9165C20.1401 15.7832 19.9214 15.7126 19.6976 15.7156C19.4738 15.7493 19.2668 15.8537 19.1068 16.0137C18.9468 16.1737 18.8423 16.3808 18.8087 16.6045C18.8087 16.969 18.8087 17.3334 18.8087 17.6979C18.8221 17.8546 18.8221 18.0122 18.8087 18.169C18.8041 18.3065 18.7455 18.4367 18.6458 18.5315C18.546 18.6263 18.413 18.6781 18.2754 18.6756C17.9909 18.6756 17.8131 18.489 17.7865 18.1423C17.7865 18.0001 17.7865 17.8579 17.7865 17.7156L17.7776 17.2268Z" fill="#E22B32"/>
<path d="M26.8352 16.5778C26.8352 16.4001 26.8352 16.2312 26.8352 16.0534C26.8352 15.8756 26.8352 15.7067 26.5597 15.6534C26.4496 15.6298 26.3526 15.5652 26.2882 15.4728C26.2239 15.3805 26.197 15.2671 26.213 15.1556C26.204 15.0508 26.2332 14.9462 26.2953 14.8612C26.3574 14.7763 26.4482 14.7166 26.5508 14.6934C26.8264 14.6401 26.853 14.4801 26.8352 14.2578C26.8175 14.0983 26.8175 13.9374 26.8352 13.7778C26.8466 13.6505 26.9064 13.5325 27.0024 13.4481C27.0983 13.3637 27.2231 13.3194 27.3508 13.3245C27.4795 13.3193 27.6053 13.3632 27.7027 13.4475C27.8001 13.5317 27.8618 13.6498 27.8752 13.7778C27.8752 13.8401 27.8752 13.9112 27.8752 13.9734C27.8752 14.1778 27.8308 14.4178 27.9286 14.569C28.0264 14.7201 28.2752 14.6223 28.453 14.6578C28.5811 14.6691 28.7001 14.7286 28.7859 14.8243C28.8718 14.9201 28.918 15.0449 28.9152 15.1734C28.9153 15.311 28.8612 15.443 28.7648 15.5411C28.6684 15.6392 28.5372 15.6955 28.3997 15.6978C28.2486 15.6978 27.9997 15.6978 27.9552 15.7512C27.8865 15.9232 27.8591 16.1089 27.8752 16.2934C27.8752 16.5512 27.8752 16.8001 27.8752 17.0578C27.8752 17.4756 27.9819 17.5645 28.4086 17.6178H28.5952C28.7174 17.6434 28.8267 17.711 28.9041 17.8089C28.9816 17.9067 29.0222 18.0287 29.0191 18.1534C29.0159 18.2782 28.9691 18.3978 28.8868 18.4916C28.8044 18.5854 28.6919 18.6474 28.5686 18.6667C28.1776 18.723 27.7803 18.623 27.4625 18.3884C27.1448 18.1538 26.9322 17.8036 26.8708 17.4134C26.8264 17.1378 26.8708 16.8445 26.8175 16.569L26.8352 16.5778Z" fill="#E22B32"/>
<path d="M4.04419 16.6756C4.04419 17.1378 4.04419 17.5645 4.04419 18.0534C4.04419 18.5423 3.88419 18.6667 3.55531 18.6667C3.22642 18.6667 3.02197 18.4534 3.02197 18.0267C3.02197 17.1141 3.02197 16.1986 3.02197 15.28C3.02197 14.8889 3.26197 14.6312 3.57308 14.6489C3.88419 14.6667 4.04419 14.8889 4.04419 15.2978C4.04419 15.7067 4.04419 16.2223 4.04419 16.6756Z" fill="#282425"/>
<path d="M3.55537 14.4623C3.40366 14.4623 3.25803 14.4026 3.14993 14.2962C3.04182 14.1897 2.97992 14.0451 2.97759 13.8934C2.96738 13.8109 2.97481 13.7271 2.9994 13.6477C3.02399 13.5683 3.06518 13.4951 3.12023 13.4328C3.17528 13.3705 3.24294 13.3206 3.31872 13.2864C3.39451 13.2523 3.47668 13.2346 3.55981 13.2346C3.64294 13.2346 3.72512 13.2523 3.8009 13.2864C3.87668 13.3206 3.94434 13.3705 3.99939 13.4328C4.05444 13.4951 4.09563 13.5683 4.12022 13.6477C4.14481 13.7271 4.15225 13.8109 4.14203 13.8934C4.13741 14.0459 4.07357 14.1905 3.96404 14.2968C3.85452 14.403 3.70793 14.4623 3.55537 14.4623Z" fill="#282425"/>
</g>
<defs>
<clipPath id="clip0_2707_345473">
<rect width="32" height="32" fill="white"/>
</clipPath>
</defs>
</svg>
