<svg width="32" height="32" viewBox="0 0 32 32" fill="none" xmlns="http://www.w3.org/2000/svg">
<g clip-path="url(#clip0_2810_57295)">
<mask id="mask0_2810_57295" style="mask-type:luminance" maskUnits="userSpaceOnUse" x="0" y="0" width="32" height="32">
<path d="M31.9909 0.0177917H0.0175781V31.9911H31.9909V0.0177917Z" fill="white"/>
</mask>
<g mask="url(#mask0_2810_57295)">
<path d="M15.9998 31.9822C24.8265 31.9822 31.982 24.8268 31.982 16C31.982 7.17328 24.8265 0.0177917 15.9998 0.0177917C7.17306 0.0177917 0.0175781 7.17328 0.0175781 16C0.0175781 24.8268 7.17306 31.9822 15.9998 31.9822Z" fill="white"/>
<path d="M26.5597 20.4711C26.5597 20.3911 26.5508 20.3022 26.5419 20.2222C26.5419 19.9911 26.5419 19.76 26.533 19.52C26.533 19.5111 26.533 19.5022 26.533 19.4845C27.013 19.4845 27.5019 19.4845 27.9819 19.4845C28.0085 19.4845 28.0352 19.4756 28.0619 19.4667C28.2485 19.4222 28.3463 19.2978 28.3908 19.12C28.4174 18.9778 28.4352 18.8356 28.4085 18.6845C28.3108 18.7022 28.2041 18.72 28.1063 18.7378C27.813 18.7378 27.5197 18.7378 27.2263 18.7378C26.9419 18.7022 26.7108 18.5778 26.533 18.3467C26.3908 18.1511 26.3108 17.9289 26.2574 17.6889C26.2219 17.5022 26.2041 17.3156 26.2041 17.1289C26.2041 16.16 26.2041 15.2 26.2041 14.2311C26.2041 14.2222 26.2041 14.2134 26.2041 14.1956L26.2219 14.1778C26.5952 14.1778 26.9685 14.1778 27.3419 14.1778C27.3419 14.1778 27.3508 14.1778 27.3597 14.1778C27.3597 14.2134 27.3597 14.2489 27.3597 14.2756C27.3597 15.2 27.3597 16.1245 27.3597 17.0489C27.3597 17.1378 27.3597 17.2178 27.3952 17.2978C27.4574 17.4667 27.573 17.5734 27.7508 17.6089C27.8397 17.6356 27.9197 17.6356 28.0085 17.6089C28.2308 17.5645 28.3641 17.4134 28.3908 17.1734C28.3997 17.1022 28.4085 17.0222 28.4085 16.9422C28.4085 16.0534 28.4085 15.1645 28.4085 14.2756C28.4085 14.24 28.4085 14.2045 28.4085 14.1778C28.7908 14.1778 29.1641 14.1778 29.5463 14.1778C29.5463 14.2045 29.5463 14.2311 29.5463 14.2578C29.5463 15.76 29.5463 17.2534 29.5463 18.7556C29.5463 19.0134 29.5108 19.2622 29.4219 19.5022C29.2974 19.8311 29.0663 20.08 28.7463 20.24C28.5508 20.3378 28.3463 20.3911 28.1419 20.4267C28.0974 20.4267 28.0619 20.4356 28.0174 20.4445C27.9641 20.4445 27.9108 20.4534 27.8663 20.4622C27.8485 20.4622 27.8219 20.4622 27.8041 20.4622C27.7952 20.4622 27.7863 20.4622 27.7685 20.4622C27.3597 20.4622 26.9508 20.4622 26.5508 20.4622" fill="#5B5C5E"/>
<path d="M20.0536 16C20.0536 16 20.0536 15.9911 20.0536 15.9822C20.0536 15.9022 20.0536 15.8222 20.0359 15.7422C19.9825 15.4667 19.8403 15.2445 19.5914 15.0934C19.4492 15.0045 19.2892 14.96 19.1292 14.9334C19.0759 14.9334 19.0136 14.9245 18.9603 14.9156C18.8181 14.9156 18.6848 14.9156 18.5425 14.96C18.0003 15.1111 17.787 15.5645 17.7248 15.9822C17.7248 15.9822 17.7248 15.9911 17.7248 16C17.7514 16 17.7692 16.0178 17.7959 16.0178C18.5248 16.0178 19.2625 16.0178 19.9914 16.0178C20.0181 16.0178 20.0359 16.0089 20.0625 16M19.3159 14.0711C19.4936 14.0889 19.6625 14.1245 19.8314 14.1778C20.3736 14.3734 20.747 14.7378 20.9781 15.2622C21.067 15.4578 21.1203 15.6622 21.1648 15.8756C21.2181 16.1956 21.2359 16.5245 21.2181 16.8445C21.1825 16.8445 21.1381 16.8445 21.1025 16.8445H17.8492C17.8492 16.8445 17.7959 16.8445 17.7692 16.8445C17.7603 16.8445 17.7514 16.8534 17.7336 16.8622C17.7159 16.9245 17.7514 16.9778 17.7692 17.0311C17.8848 17.52 18.2848 17.8667 18.7825 17.92C18.907 17.9467 19.0314 17.9467 19.1559 17.92C19.5648 17.8756 19.8848 17.6711 20.1425 17.3689C20.1514 17.36 20.1692 17.3422 20.1781 17.3334C20.1781 17.3334 20.187 17.3334 20.1959 17.3245C20.4625 17.5289 20.7292 17.7334 21.0048 17.9378C20.9959 17.9556 20.987 17.9734 20.9692 17.9911C20.6314 18.3822 20.2225 18.6578 19.7248 18.7822C19.6003 18.8089 19.4848 18.8445 19.3514 18.8445C19.2003 18.8445 19.0492 18.8445 18.8981 18.8445C18.8892 18.8445 18.8714 18.8534 18.8625 18.8622C18.8003 18.8622 18.7381 18.8622 18.6759 18.8445C18.4714 18.8 18.2581 18.7556 18.0625 18.6756C17.9114 18.6134 17.7781 18.5422 17.6448 18.4534C17.2803 18.2134 17.0048 17.9022 16.8181 17.5022C16.7292 17.3156 16.6759 17.1111 16.6314 16.9067C16.5781 16.6489 16.5781 16.3822 16.6136 16.1245C16.7648 15.1022 17.3514 14.4534 18.3292 14.16C18.4536 14.1245 18.5781 14.1067 18.7114 14.0889C18.747 14.0889 18.7914 14.08 18.827 14.0711H19.3336" fill="#5D5C5E"/>
<path d="M14.7648 18.8622C14.7026 18.8622 14.6492 18.8622 14.5959 18.8445C14.4715 18.8178 14.3559 18.8 14.2403 18.7556C14.0181 18.6756 13.8403 18.5422 13.7248 18.3467C13.6359 18.1956 13.5826 18.0356 13.5559 17.8667C13.5559 17.8311 13.547 17.7956 13.5381 17.7689C13.5381 17.76 13.5381 17.7422 13.5381 17.7333C13.5292 17.5556 13.5115 17.3867 13.5115 17.2089C13.5115 16.56 13.5115 15.9022 13.5115 15.2533C13.5115 15.2267 13.5115 15.1911 13.5115 15.1645C13.4848 15.1645 13.4581 15.1467 13.4315 15.1467C13.147 15.1467 12.8626 15.1467 12.5781 15.1467C12.5781 15.0489 12.5781 14.9511 12.5781 14.8533C12.5781 14.6311 12.5781 14.4178 12.5781 14.1867C12.8892 14.1867 13.1915 14.1867 13.4937 14.1867C13.4937 14.1867 13.5026 14.1778 13.5115 14.1689C13.5115 14.1067 13.5115 14.0445 13.5115 13.9822C13.5115 13.6089 13.5115 13.2356 13.5115 12.8711C13.5737 12.8711 13.627 12.8711 13.6892 12.8711C14.0092 12.8711 14.3292 12.8711 14.6403 12.8711L14.6581 12.8889C14.6581 13.0756 14.6581 13.2622 14.6581 13.4489C14.6581 13.6978 14.6581 13.9467 14.6581 14.1956C14.6848 14.2311 14.7203 14.2133 14.747 14.2133C15.1292 14.2133 15.5203 14.2133 15.9026 14.2133C15.9026 14.4089 15.9026 14.5956 15.9026 14.7911C15.9026 14.9156 15.9026 15.04 15.9026 15.1645C15.5115 15.1645 15.1292 15.1645 14.7381 15.1645C14.7115 15.1645 14.6848 15.1733 14.6492 15.1822C14.6492 15.1822 14.6492 15.1911 14.6492 15.2C14.6492 15.2267 14.6492 15.2533 14.6492 15.28C14.6492 15.92 14.6492 16.56 14.6492 17.2089C14.6492 17.3067 14.6581 17.4133 14.6848 17.5111C14.7381 17.7422 14.8892 17.8933 15.1737 17.92C15.2537 17.9467 15.3426 17.9467 15.4315 17.92C15.5915 17.9022 15.7515 17.8756 15.9026 17.7867V18.7467C15.707 18.8178 15.5115 18.8711 15.2981 18.88C15.1381 18.88 14.9692 18.88 14.8092 18.88C14.8003 18.88 14.7826 18.88 14.7737 18.8978" fill="#5B5C5E"/>
<path d="M4.58666 14.9156C4.4711 14.9333 4.36444 14.9511 4.25777 15.0044C3.83999 15.2 3.64444 15.5467 3.5911 15.9911C3.61777 15.9911 3.63555 16.0089 3.66221 16.0089C4.3911 16.0089 5.1111 16.0089 5.83999 16.0089C5.86666 16.0089 5.88444 16 5.9111 15.9911C5.9111 15.9289 5.89332 15.8667 5.89332 15.8044C5.89332 15.6711 5.83999 15.5556 5.77777 15.44C5.5911 15.12 5.29777 14.9689 4.94221 14.9244C4.82666 14.8978 4.70221 14.8978 4.58666 14.9244M2.45332 16.1956C2.4711 15.9733 2.52444 15.76 2.60444 15.5556C2.87999 14.8622 3.38666 14.4178 4.08888 14.1867C4.24888 14.1333 4.41777 14.0978 4.58666 14.08C4.6311 14.08 4.67555 14.0711 4.72888 14.0622C4.73777 14.0622 4.74666 14.0622 4.76444 14.0622C4.8711 14.0622 4.96888 14.0622 5.07555 14.0622C5.27999 14.0711 5.48444 14.1156 5.67999 14.1778C6.14221 14.3378 6.48888 14.6311 6.72888 15.0578C6.86221 15.2889 6.94221 15.5378 6.99555 15.8044C7.06666 16.1511 7.07555 16.4978 7.06666 16.8444C7.03999 16.8444 7.02221 16.8444 6.99555 16.8444H2.4711C2.4711 16.8444 2.45332 16.8178 2.45332 16.8089C2.45332 16.6133 2.44444 16.4178 2.43555 16.2222C2.43555 16.2222 2.43555 16.2044 2.44444 16.2044" fill="#5D5C5E"/>
<path d="M8.16016 18.7467C8.16016 18.7467 8.16016 18.6845 8.16016 18.6578C8.16016 16.32 8.16016 13.9822 8.16016 11.6445C8.16016 11.6089 8.16016 11.5822 8.16016 11.5556H9.29793C9.29793 11.5556 9.29793 11.6178 9.29793 11.6533V18.6667C9.29793 18.6667 9.29793 18.7289 9.29793 18.7556C8.91571 18.7556 8.54238 18.7556 8.16016 18.7556" fill="#5B5C5E"/>
<path d="M23.44 14.88C23.6445 14.4711 23.9734 14.2045 24.4178 14.0978C24.4711 14.08 24.5334 14.08 24.5867 14.0711H24.9423C24.9423 14.0711 24.9778 14.08 24.9956 14.0889C25.0578 14.1067 25.12 14.1156 25.1823 14.1245C25.1823 14.1245 25.1823 14.1334 25.1911 14.1422C25.1911 14.4 25.1911 14.6667 25.1911 14.9245V15.2267C25.0489 15.2 24.9067 15.1822 24.7734 15.1556C24.6756 15.1289 24.5778 15.1289 24.48 15.1556C24.0711 15.1911 23.76 15.3689 23.5556 15.7334C23.4578 15.9022 23.4045 16.0889 23.4045 16.2845C23.4045 17.0934 23.4045 17.9111 23.4045 18.72C23.4045 18.72 23.4045 18.7289 23.4045 18.7378C23.3778 18.7378 23.3511 18.7378 23.3245 18.7378C22.9778 18.7378 22.6223 18.7378 22.2756 18.7378C22.2756 18.7378 22.2667 18.7289 22.2578 18.72C22.2578 18.6934 22.2578 18.6667 22.2578 18.6311V14.2667C22.2578 14.2667 22.2578 14.2134 22.2578 14.1778H22.2756C22.6489 14.1778 23.0223 14.1778 23.3956 14.1778C23.3956 14.1778 23.3956 14.1778 23.4045 14.1778C23.4045 14.3822 23.4045 14.5778 23.4045 14.7822C23.4045 14.8089 23.4045 14.8445 23.4045 14.8711C23.4045 14.8711 23.4134 14.8711 23.4223 14.8711" fill="#5B5C5E"/>
<path d="M10.6311 18.7378C10.6311 18.7378 10.6311 18.6844 10.6311 18.6489V14.7111C10.6311 14.7111 10.6311 14.6489 10.6311 14.6222H11.7599C11.7599 14.6222 11.7599 14.6222 11.7688 14.6222C11.7688 14.6578 11.7688 14.6933 11.7688 14.7289V18.6222C11.7688 18.6222 11.7688 18.6933 11.7688 18.72C11.7511 18.72 11.7333 18.72 11.7155 18.72C11.3511 18.72 10.9866 18.72 10.6133 18.72" fill="#5B5C5E"/>
<path d="M4.43582 18.96C4.2136 18.9422 3.99138 18.8889 3.78694 18.8089C3.28916 18.6134 2.90694 18.2934 2.66694 17.8134C2.58694 17.6445 2.52471 17.4756 2.49805 17.2889C2.58694 17.2889 2.67582 17.2889 2.75582 17.2889C3.03138 17.2889 3.31582 17.2889 3.59138 17.2889C3.63582 17.7334 3.90249 18.0445 4.34694 18.1511C4.40916 18.1689 4.48027 18.1778 4.54249 18.1867C4.68471 18.2134 4.82694 18.2134 4.96916 18.1867C5.20027 18.1689 5.42249 18.1067 5.60916 17.9645C5.71582 17.8845 5.78694 17.7867 5.84916 17.6711H6.95138C6.88916 17.8845 6.7736 18.0622 6.63138 18.2311C6.35582 18.56 6.00027 18.7556 5.59138 18.8711C5.44027 18.9156 5.28027 18.9511 5.12027 18.96C5.04916 18.96 4.97805 18.9689 4.89805 18.9778H4.62249C4.56027 18.9778 4.49805 18.9689 4.43582 18.96Z" fill="#3DB251"/>
<path d="M11.244 12.8445C11.4129 12.8622 11.5729 12.9067 11.6974 13.0222C11.8751 13.1733 11.9551 13.3689 11.9285 13.5911C11.8929 13.92 11.6707 14.1511 11.3418 14.2045C11.244 14.2045 11.1462 14.2045 11.0485 14.2045C10.7196 14.1511 10.4796 13.8933 10.4618 13.5645C10.444 13.2089 10.7018 12.9333 11.004 12.8711C11.0396 12.8622 11.084 12.8533 11.1196 12.8533C11.164 12.8533 11.1996 12.8533 11.244 12.8533" fill="#5D5D5F"/>
<path d="M2.4708 16.8267H6.98636C6.98636 16.8267 7.0308 16.8267 7.05747 16.8267C7.05747 16.8267 7.03969 16.8445 7.0308 16.8445C7.01303 16.8445 6.98636 16.8445 6.95969 16.8445C5.49303 16.8445 4.02636 16.8445 2.55969 16.8445C2.52414 16.8445 2.49747 16.8356 2.46191 16.8267" fill="#799899"/>
<path d="M17.7158 16.8711C17.7158 16.8711 17.7336 16.8533 17.7514 16.8533C17.778 16.8533 17.8047 16.8533 17.8314 16.8533H21.0847C21.0847 16.8533 21.1647 16.8533 21.2003 16.8533C21.2003 16.8533 21.1825 16.8711 21.1736 16.8711C21.1469 16.8711 21.1203 16.8711 21.0847 16.8711H17.8225C17.8225 16.8711 17.7514 16.8711 17.7158 16.8711Z" fill="#799899"/>
<path d="M28.0621 19.4667C28.0621 19.4667 28.0088 19.4845 27.9821 19.4845C27.5021 19.4845 27.0132 19.4845 26.5332 19.4845C26.5599 19.4845 26.5865 19.4667 26.6221 19.4667C27.0576 19.4667 27.4932 19.4667 27.9288 19.4667H28.0621Z" fill="#855C5E"/>
<path d="M26.5596 20.4711C26.9685 20.4711 27.3773 20.4711 27.7773 20.4711C27.7862 20.4711 27.7951 20.4711 27.8129 20.4711C27.7862 20.4711 27.7507 20.4889 27.724 20.4889C27.3596 20.4889 26.9951 20.4889 26.6307 20.4889C26.604 20.4889 26.5862 20.48 26.5596 20.4711Z" fill="#B0D7D7"/>
<path d="M15.9026 14.1867C15.5204 14.1867 15.1293 14.1867 14.7471 14.1867C14.7115 14.1867 14.676 14.2044 14.6582 14.1689C15.0493 14.1689 15.4404 14.1689 15.8226 14.1689C15.8493 14.1689 15.876 14.1778 15.9026 14.1867Z" fill="#795C5D"/>
<path d="M14.6484 15.1556C14.6484 15.1556 14.7018 15.1378 14.7373 15.1378C15.1284 15.1378 15.5107 15.1378 15.9018 15.1378C15.8751 15.1378 15.8484 15.1556 15.8129 15.1556C15.4662 15.1556 15.1107 15.1556 14.764 15.1556C14.7284 15.1556 14.6929 15.1556 14.6662 15.1556C14.6662 15.1556 14.6573 15.1556 14.6484 15.1556Z" fill="#98C1C2"/>
<path d="M22.2844 18.7378C22.631 18.7378 22.9866 18.7378 23.3333 18.7378C23.3599 18.7378 23.3866 18.7378 23.4133 18.7378C23.3955 18.7378 23.3777 18.7556 23.3599 18.7645C23.0133 18.7645 22.6666 18.7645 22.3199 18.7645C22.3022 18.7645 22.2844 18.7556 22.2666 18.7467L22.2844 18.7378Z" fill="#DCF1F6"/>
<path d="M10.6309 18.7378C10.9953 18.7378 11.3597 18.7378 11.7331 18.7378C11.7509 18.7378 11.7686 18.7378 11.7864 18.7378C11.7686 18.7378 11.7509 18.7556 11.7331 18.7556C11.3864 18.7556 11.0397 18.7556 10.6931 18.7556C10.6753 18.7556 10.6575 18.7467 10.6397 18.7378" fill="#DCF1F6"/>
<path d="M14.6308 12.8533C14.3108 12.8533 13.9908 12.8533 13.6797 12.8533C13.6175 12.8533 13.5642 12.8533 13.502 12.8533C13.5197 12.8533 13.5375 12.8356 13.5553 12.8356C13.9108 12.8356 14.2575 12.8356 14.6131 12.8356C14.6308 12.8356 14.6397 12.8445 14.6575 12.8533C14.6575 12.8533 14.6486 12.8533 14.6397 12.8533" fill="#DFC1C1"/>
<path d="M27.3507 14.1867H26.2307C26.2307 14.1867 26.2218 14.1867 26.2129 14.1867C26.2218 14.1867 26.2396 14.1689 26.2484 14.1689C26.6129 14.1689 26.9862 14.1689 27.3507 14.1689C27.3507 14.1689 27.3507 14.1778 27.3507 14.1867Z" fill="#795C5D"/>
<path d="M9.29793 11.5467C8.91571 11.5467 8.54238 11.5467 8.16016 11.5467C8.18682 11.5467 8.2046 11.5289 8.23127 11.5289C8.56016 11.5289 8.89793 11.5289 9.22682 11.5289C9.25349 11.5289 9.27127 11.5378 9.29793 11.5467Z" fill="#D6AEAE"/>
<path d="M29.5557 14.1867H28.418C28.418 14.1867 28.4535 14.1689 28.4624 14.1689C28.8091 14.1689 29.1557 14.1689 29.5024 14.1689C29.5202 14.1689 29.538 14.1778 29.5557 14.1867Z" fill="#795C5D"/>
<path d="M11.7685 14.6311C11.3952 14.6311 11.013 14.6311 10.6396 14.6311C10.6485 14.6311 10.6574 14.6133 10.6752 14.6133C11.0396 14.6133 11.4041 14.6133 11.7774 14.6133C11.7774 14.6133 11.7774 14.6222 11.7774 14.6311" fill="#795C5D"/>
<path d="M8.16016 18.7467C8.54238 18.7467 8.91571 18.7467 9.29793 18.7467C9.27127 18.7467 9.25349 18.7645 9.22682 18.7645C8.89793 18.7645 8.56016 18.7645 8.23127 18.7645C8.2046 18.7645 8.18682 18.7556 8.16016 18.7467Z" fill="#DCF1F6"/>
<path d="M23.4042 14.1867C23.0308 14.1867 22.6575 14.1867 22.2842 14.1867V14.1689C22.4442 14.1689 22.6042 14.1689 22.7553 14.1689C22.9686 14.1689 23.182 14.1689 23.3953 14.1689C23.3953 14.1689 23.3953 14.1778 23.3953 14.1867" fill="#795C5D"/>
<path d="M6.93328 17.68H5.83105C5.83105 17.68 5.85772 17.6622 5.86661 17.6622C6.21328 17.6622 6.55994 17.6622 6.89772 17.6622C6.90661 17.6622 6.9155 17.6711 6.93328 17.68Z" fill="#5EB351"/>
<path d="M3.58259 17.2889C3.30704 17.2889 3.02259 17.2889 2.74704 17.2889C2.65815 17.2889 2.56926 17.2889 2.48926 17.2889C2.50704 17.2889 2.52481 17.2711 2.55148 17.2711C2.88037 17.2711 3.20037 17.2711 3.52926 17.2711C3.54704 17.2711 3.56481 17.28 3.59148 17.2889" fill="#CDD9A8"/>
<path d="M12.5596 15.1378C12.844 15.1378 13.1285 15.1378 13.4129 15.1378C13.4396 15.1378 13.4662 15.1467 13.4929 15.1556C13.2085 15.1556 12.9329 15.1556 12.6485 15.1556C12.6218 15.1556 12.5862 15.1467 12.5596 15.1378Z" fill="#98C1C2"/>
<path d="M27.2354 18.7467C27.5287 18.7467 27.822 18.7467 28.1154 18.7467C28.0887 18.7467 28.0709 18.7645 28.0442 18.7645C27.7954 18.7645 27.5554 18.7645 27.3065 18.7645C27.2798 18.7645 27.262 18.7556 27.2354 18.7467Z" fill="#DCF1F6"/>
<path d="M14.7646 18.8622C14.7646 18.8622 14.7913 18.8445 14.8002 18.8445C14.9602 18.8445 15.1291 18.8445 15.2891 18.8445C15.2446 18.8445 15.2002 18.8622 15.1558 18.8622C15.0224 18.8622 14.898 18.8622 14.7646 18.8622Z" fill="#799899"/>
<path d="M19.3065 14.0711H18.7998C18.7998 14.0711 18.8442 14.0622 18.862 14.0533C18.9865 14.0533 19.1109 14.0533 19.2442 14.0533C19.262 14.0533 19.2887 14.0533 19.3065 14.0711Z" fill="#99999A"/>
<path d="M18.8448 18.8622C18.8448 18.8622 18.8715 18.8445 18.8804 18.8445C19.0315 18.8445 19.1826 18.8445 19.3337 18.8445C19.2804 18.8445 19.2359 18.8622 19.1826 18.8622C19.067 18.8622 18.9515 18.8622 18.8359 18.8622" fill="#799899"/>
<path d="M4.95987 18.1867C4.81765 18.2133 4.67543 18.2133 4.5332 18.1867C4.67543 18.1867 4.81765 18.1867 4.95987 18.1867Z" fill="#CDD9A8"/>
<path d="M19.138 17.9289C19.0135 17.9556 18.8891 17.9556 18.7646 17.9289C18.8891 17.9289 19.0135 17.9289 19.138 17.9289Z" fill="#D6AEAE"/>
<path d="M24.9513 14.0711H24.5957C24.7113 14.0445 24.8357 14.0445 24.9513 14.0711Z" fill="#99999A"/>
<path d="M5.05818 14.0444C4.95151 14.0444 4.85374 14.0444 4.74707 14.0444C4.84485 14.0178 4.95151 14.0178 5.05818 14.0444Z" fill="#DFC1C1"/>
<path d="M24.4893 15.1467C24.587 15.12 24.6848 15.12 24.7826 15.1467H24.4893Z" fill="#98C1C2"/>
<path d="M11.0576 14.2045C11.1554 14.2045 11.2532 14.2045 11.351 14.2045C11.2532 14.2311 11.1554 14.2311 11.0576 14.2045Z" fill="#799899"/>
<path d="M15.4306 17.8845C15.3417 17.9111 15.2617 17.9111 15.1729 17.8845H15.4306Z" fill="#858486"/>
<path d="M28.0175 17.6267C27.9287 17.6533 27.8487 17.6533 27.7598 17.6267C27.8487 17.6267 27.9287 17.6267 28.0175 17.6267Z" fill="#D6AEAE"/>
<path d="M4.88867 18.9778C4.95978 18.9778 5.03089 18.9689 5.11089 18.96C5.03978 18.96 4.96867 18.9689 4.88867 18.9778Z" fill="#98C1C2"/>
<path d="M4.43555 18.96C4.49777 18.96 4.55999 18.9689 4.62221 18.9778C4.55999 18.9778 4.49777 18.9689 4.43555 18.96Z" fill="#98C1C2"/>
<path d="M27.876 20.4711C27.9293 20.4711 27.9826 20.4622 28.0271 20.4533C27.9738 20.4533 27.9204 20.4622 27.876 20.4711Z" fill="#799899"/>
<path d="M4.72035 14.0533C4.6759 14.0533 4.63146 14.0622 4.57812 14.0711C4.62257 14.0711 4.66701 14.0622 4.72035 14.0533Z" fill="#D6AEAE"/>
<path d="M11.2446 12.8444C11.2446 12.8444 11.1646 12.8444 11.1201 12.8444C11.1646 12.8267 11.2001 12.8267 11.2446 12.8444Z" fill="#DFC1C1"/>
<path d="M25.0045 14.08C25.0045 14.08 24.9689 14.0711 24.9512 14.0622C24.9689 14.0622 24.9867 14.0711 25.0045 14.08Z" fill="#99999A"/>
<path d="M25.2003 14.1333C25.2003 14.1333 25.2003 14.1245 25.1914 14.1156C25.1914 14.1156 25.1914 14.1245 25.2003 14.1333Z" fill="#717172"/>
<path d="M13.4934 14.1511C13.4934 14.1511 13.4845 14.16 13.4756 14.1689C13.4756 14.1689 13.4845 14.16 13.4934 14.1511Z" fill="#F3E9E9"/>
<path d="M14.6309 12.8533C14.6309 12.8533 14.6397 12.8533 14.6486 12.8533C14.6486 12.8533 14.6486 12.8622 14.6486 12.8711L14.6309 12.8533Z" fill="#717172"/>
<path d="M2.44444 16.1778C2.44444 16.1778 2.44444 16.1956 2.43555 16.1956C2.43555 16.1956 2.43555 16.1778 2.44444 16.1778Z" fill="#858486"/>
<path d="M22.2842 18.7378C22.2842 18.7378 22.2842 18.7289 22.2842 18.72C22.2842 18.72 22.2931 18.7289 22.302 18.7378" fill="#717172"/>
<path d="M11.7686 14.6311C11.7686 14.6311 11.7686 14.6222 11.7686 14.6133C11.7686 14.6133 11.7686 14.6222 11.7774 14.6311C11.7774 14.6311 11.7774 14.6311 11.7686 14.6311Z" fill="#99999A"/>
<path d="M22.2844 14.1689V14.1867H22.2666C22.2666 14.1867 22.2755 14.1778 22.2844 14.1689Z" fill="#717172"/>
<path d="M26.2227 14.1867C26.2227 14.1867 26.2315 14.1867 26.2404 14.1867C26.2404 14.1867 26.2315 14.1956 26.2227 14.2045V14.1867Z" fill="#858486"/>
<path d="M14.6484 15.1556C14.6484 15.1556 14.6573 15.1556 14.6662 15.1556L14.6484 15.1734C14.6484 15.1734 14.6484 15.1645 14.6484 15.1556Z" fill="#EBEBEB"/>
<path d="M27.3516 14.1867C27.3516 14.1867 27.3516 14.1778 27.3516 14.1689C27.3516 14.1689 27.3516 14.1778 27.3605 14.1867C27.3605 14.1867 27.3605 14.1867 27.3516 14.1867Z" fill="#858486"/>
<path d="M23.4043 14.1867C23.4043 14.1867 23.4043 14.1778 23.4043 14.1689C23.4043 14.1689 23.4043 14.1778 23.4132 14.1867C23.4132 14.1867 23.4132 14.1867 23.4043 14.1867Z" fill="#99999A"/>
<path d="M17.7335 16C17.7335 16 17.7691 16 17.7957 16C18.5246 16 19.2535 16 19.9824 16C20.0002 16 20.0179 16 20.0446 16C20.0446 16 20.0535 16 20.0624 16C20.0357 16 20.0179 16.0178 19.9913 16.0178C19.2624 16.0178 18.5246 16.0178 17.7957 16.0178C17.7691 16.0178 17.7513 16.0089 17.7246 16" fill="#795C5D"/>
<path d="M19.1201 14.9333C19.0667 14.9333 19.0045 14.9244 18.9512 14.9156C19.0045 14.9156 19.0667 14.9244 19.1201 14.9333Z" fill="#98C1C2"/>
<path d="M20.0529 16C20.0529 16 20.044 16 20.0352 16C20.0352 16 20.044 15.9911 20.0529 15.9822C20.0529 15.9822 20.0529 15.9911 20.0529 16Z" fill="#F3E9E9"/>
<path d="M17.7334 16C17.7334 16 17.7334 15.9911 17.7334 15.9822C17.7334 15.9822 17.7423 15.9911 17.7512 16" fill="#F3E9E9"/>
<path d="M3.58203 15.9822H5.90203C5.90203 15.9822 5.85759 16 5.83092 16C5.10203 16 4.38203 16 3.65314 16C3.62648 16 3.6087 15.9911 3.58203 15.9822Z" fill="#855C5E"/>
<path d="M4.94247 14.9156H4.58691C4.70247 14.8889 4.82691 14.8889 4.94247 14.9156Z" fill="#98C1C2"/>
</g>
</g>
<defs>
<clipPath id="clip0_2810_57295">
<rect width="32" height="32" fill="white"/>
</clipPath>
</defs>
</svg>
