<svg xmlns="http://www.w3.org/2000/svg" width="32" height="32" fill="none" viewBox="0 0 32 32"><g clip-path="url(#clip0_2707_258918)"><path fill="#E36F25" d="M15.9852 31.9704C24.8136 31.9704 31.9704 24.8136 31.9704 15.9852C31.9704 7.15682 24.8136 0 15.9852 0C7.15682 0 0 7.15682 0 15.9852C0 24.8136 7.15682 31.9704 15.9852 31.9704Z"/><path fill="#F4F4F4" d="M18.8268 16.8291H14.6301V20.1624H19.5554V22.2222H12.4443V9.77777H19.5409V11.8547H14.6301V14.8205H18.8268V16.8291Z"/><circle cx="5.703" cy="11.254" r="2.723" fill="#14477D" transform="rotate(32.1338 5.70319 11.254)"/><circle cx="10.875" cy="5.761" r="2.151" fill="#14477D" transform="rotate(32.1338 10.8746 5.7614)"/><circle cx="17.151" cy="3.824" r="1.613" fill="#14477D" transform="rotate(32.1338 17.1515 3.82384)"/><ellipse cx="22.669" cy="4.592" fill="#14477D" rx="1.075" ry="1.075" transform="rotate(32.1338 22.6687 4.59209)"/></g><defs><clipPath id="clip0_2707_258918"><rect width="32" height="32" fill="#fff"/></clipPath></defs></svg>