<svg width="32" height="32" viewBox="0 0 32 32" fill="none" xmlns="http://www.w3.org/2000/svg">
<g clip-path="url(#clip0_2707_344798)">
<path d="M15.9998 31.9823C24.8265 31.9823 31.982 24.8268 31.982 16C31.982 7.17331 24.8265 0.0178223 15.9998 0.0178223C7.17306 0.0178223 0.0175781 7.17331 0.0175781 16C0.0175781 24.8268 7.17306 31.9823 15.9998 31.9823Z" fill="white"/>
<path d="M8.311 13.3779C8.28143 13.3654 8.25629 13.3443 8.23885 13.3174C8.22141 13.2904 8.21248 13.2589 8.21322 13.2268C8.21322 13.2058 8.21736 13.1849 8.2254 13.1655C8.23344 13.1461 8.24523 13.1285 8.26009 13.1136C8.27494 13.0988 8.29258 13.087 8.312 13.0789C8.33141 13.0709 8.35221 13.0668 8.37322 13.0668C8.39424 13.0668 8.41504 13.0709 8.43445 13.0789C8.45387 13.087 8.4715 13.0988 8.48636 13.1136C8.50122 13.1285 8.513 13.1461 8.52104 13.1655C8.52909 13.1849 8.53322 13.2058 8.53322 13.2268C8.53396 13.2589 8.52504 13.2904 8.5076 13.3174C8.49016 13.3443 8.46502 13.3654 8.43545 13.3779H8.88878C8.86051 13.3637 8.83654 13.3422 8.81936 13.3156C8.80217 13.289 8.79238 13.2584 8.791 13.2268C8.7898 13.2046 8.79299 13.1824 8.80039 13.1614C8.80779 13.1405 8.81925 13.1212 8.83411 13.1047C8.84897 13.0882 8.86695 13.0747 8.88701 13.0652C8.90707 13.0556 8.92881 13.0501 8.951 13.049C8.99659 13.0513 9.03956 13.071 9.071 13.1041C9.10244 13.1372 9.11995 13.1811 9.11989 13.2268C9.11874 13.2596 9.10803 13.2914 9.08908 13.3182C9.07014 13.3451 9.04378 13.3658 9.01322 13.3779H9.46656C9.43829 13.3637 9.41432 13.3422 9.39713 13.3156C9.37994 13.289 9.37016 13.2584 9.36878 13.2268C9.36758 13.2046 9.37077 13.1824 9.37817 13.1614C9.38557 13.1405 9.39703 13.1212 9.41189 13.1047C9.42675 13.0882 9.44473 13.0747 9.46479 13.0652C9.48484 13.0556 9.50659 13.0501 9.52878 13.049C9.57437 13.0513 9.61734 13.071 9.64878 13.1041C9.68022 13.1372 9.69773 13.1811 9.69767 13.2268C9.69651 13.2596 9.68581 13.2914 9.66686 13.3182C9.64792 13.3451 9.62155 13.3658 9.591 13.3779H10.0443C10.0161 13.3637 9.9921 13.3422 9.97491 13.3156C9.95772 13.289 9.94793 13.2584 9.94656 13.2268C9.94076 13.202 9.94063 13.1762 9.94619 13.1514C9.95175 13.1265 9.96286 13.1033 9.97867 13.0833C9.99448 13.0634 10.0146 13.0473 10.0375 13.0362C10.0604 13.0251 10.0856 13.0194 10.111 13.0194C10.1365 13.0194 10.1616 13.0251 10.1845 13.0362C10.2074 13.0473 10.2275 13.0634 10.2433 13.0833C10.2591 13.1033 10.2702 13.1265 10.2758 13.1514C10.2814 13.1762 10.2812 13.202 10.2754 13.2268C10.2743 13.2596 10.2636 13.2914 10.2446 13.3182C10.2257 13.3451 10.1993 13.3658 10.1688 13.3779H10.6666C10.636 13.3658 10.6096 13.3451 10.5907 13.3182C10.5718 13.2914 10.561 13.2596 10.5599 13.2268C10.5541 13.202 10.554 13.1762 10.5595 13.1514C10.5651 13.1265 10.5762 13.1033 10.592 13.0833C10.6078 13.0634 10.6279 13.0473 10.6508 13.0362C10.6738 13.0251 10.6989 13.0194 10.7243 13.0194C10.7498 13.0194 10.7749 13.0251 10.7978 13.0362C10.8207 13.0473 10.8409 13.0634 10.8567 13.0833C10.8725 13.1033 10.8836 13.1265 10.8891 13.1514C10.8947 13.1762 10.8946 13.202 10.8888 13.2268C10.8874 13.2584 10.8776 13.289 10.8604 13.3156C10.8432 13.3422 10.8193 13.3637 10.791 13.3779H11.2443C11.2138 13.3658 11.1874 13.3451 11.1685 13.3182C11.1495 13.2914 11.1388 13.2596 11.1377 13.2268C11.1376 13.1811 11.1551 13.1372 11.1866 13.1041C11.218 13.071 11.261 13.0513 11.3066 13.049C11.3287 13.0501 11.3505 13.0556 11.3706 13.0652C11.3906 13.0747 11.4086 13.0882 11.4234 13.1047C11.4383 13.1212 11.4498 13.1405 11.4572 13.1614C11.4646 13.1824 11.4678 13.2046 11.4666 13.2268C11.4652 13.2584 11.4554 13.289 11.4382 13.3156C11.421 13.3422 11.397 13.3637 11.3688 13.3779H11.7688C11.746 13.3599 11.7277 13.3369 11.7154 13.3107C11.703 13.2845 11.697 13.2557 11.6977 13.2268C11.6965 13.2015 11.7004 13.1763 11.7092 13.1526C11.7181 13.1289 11.7316 13.1073 11.7491 13.089C11.7666 13.0707 11.7875 13.0561 11.8108 13.0462C11.834 13.0363 11.8591 13.0312 11.8843 13.0312C11.9096 13.0312 11.9346 13.0363 11.9579 13.0462C11.9811 13.0561 12.0021 13.0707 12.0196 13.089C12.037 13.1073 12.0506 13.1289 12.0594 13.1526C12.0683 13.1763 12.0722 13.2015 12.071 13.2268C12.07 13.2564 12.0623 13.2853 12.0484 13.3115C12.0345 13.3377 12.0149 13.3604 11.991 13.3779H12.311C12.2726 13.3368 12.2504 13.283 12.2488 13.2268C12.2476 13.1987 12.2519 13.1708 12.2616 13.1444C12.2712 13.1181 12.2859 13.0939 12.3049 13.0733C12.3239 13.0526 12.3468 13.0359 12.3722 13.0241C12.3977 13.0123 12.4252 13.0057 12.4532 13.0045C12.5106 13.0068 12.5649 13.0313 12.6046 13.0727C12.6444 13.1141 12.6666 13.1693 12.6666 13.2268C12.6649 13.283 12.6428 13.3368 12.6043 13.3779H12.8621C12.825 13.3359 12.803 13.2827 12.7999 13.2268C12.7983 13.1874 12.8064 13.1483 12.8234 13.1128C12.8405 13.0773 12.866 13.0466 12.8978 13.0233C12.9296 13 12.9666 12.9849 13.0056 12.9793C13.0445 12.9737 13.0843 12.9778 13.1213 12.9912C13.1583 13.0046 13.1915 13.0269 13.2179 13.0561C13.2443 13.0854 13.263 13.1206 13.2726 13.1588C13.2821 13.1971 13.2821 13.237 13.2725 13.2752C13.2629 13.3134 13.2441 13.3487 13.2177 13.3779H13.3332C13.2987 13.3351 13.2798 13.2818 13.2799 13.2268C13.2792 13.1694 13.2969 13.1134 13.3306 13.067C13.3642 13.0205 13.4119 12.9862 13.4666 12.969L13.3954 12.8357C13.367 12.8164 13.3428 12.7914 13.3244 12.7624C13.3061 12.7333 13.2939 12.7008 13.2888 12.6668C13.1999 12.5245 13.1021 12.3912 13.0043 12.2579C12.9399 12.2556 12.8788 12.2283 12.8341 12.1819C12.7893 12.1355 12.7643 12.0735 12.7643 12.009C12.7602 11.9825 12.7602 11.9555 12.7643 11.929C12.6824 11.8251 12.5933 11.7271 12.4977 11.6357H12.4088C12.3451 11.6357 12.2841 11.6104 12.2391 11.5654C12.1941 11.5203 12.1688 11.4593 12.1688 11.3957C12.1646 11.3691 12.1646 11.3422 12.1688 11.3157L11.8488 11.049C11.789 11.0478 11.7315 11.0259 11.6861 10.987C11.6407 10.9481 11.6102 10.8946 11.5999 10.8357L11.5554 10.8179C11.5566 10.8525 11.5509 10.8869 11.5384 10.9193C11.526 10.9516 11.5072 10.981 11.4832 11.0059C11.4591 11.0308 11.4303 11.0506 11.3984 11.0641C11.3665 11.0776 11.3323 11.0846 11.2977 11.0845C11.2285 11.0822 11.1629 11.0531 11.1148 11.0034C11.0667 10.9536 11.0399 10.8871 11.0399 10.8179C11.0398 10.772 11.0511 10.7269 11.0728 10.6865C11.0946 10.6462 11.126 10.6119 11.1643 10.5868L10.8888 10.4445C10.8501 10.475 10.804 10.4945 10.7553 10.5011C10.7066 10.5077 10.6569 10.5012 10.6116 10.4821C10.5662 10.4631 10.5268 10.4322 10.4974 10.3928C10.468 10.3534 10.4497 10.3068 10.4443 10.2579C10.4326 10.3236 10.3981 10.3831 10.3469 10.4259C10.2957 10.4688 10.2311 10.4922 10.1643 10.4922C10.0976 10.4922 10.033 10.4688 9.98177 10.4259C9.93058 10.3831 9.89609 10.3236 9.88434 10.2579C9.87124 10.2144 9.87124 10.168 9.88434 10.1245H9.78656C9.80051 10.177 9.80051 10.2321 9.78656 10.2845C9.79388 10.3255 9.79214 10.3675 9.78145 10.4077C9.77076 10.4479 9.75138 10.4853 9.72468 10.5172C9.69798 10.5491 9.66462 10.5747 9.62693 10.5923C9.58924 10.6099 9.54815 10.6191 9.50656 10.6191C9.46496 10.6191 9.42387 10.6099 9.38619 10.5923C9.3485 10.5747 9.31513 10.5491 9.28843 10.5172C9.26174 10.4853 9.24236 10.4479 9.23167 10.4077C9.22098 10.3675 9.21923 10.3255 9.22656 10.2845C9.22576 10.2374 9.23672 10.1907 9.25845 10.1488C9.28017 10.1069 9.31198 10.0711 9.351 10.0445C9.03106 9.98809 8.70698 9.95836 8.38211 9.95565C7.25123 9.9629 6.14646 10.2964 5.20042 10.916C4.25439 11.5357 3.50728 12.4152 3.04878 13.449L8.311 13.3779ZM13.0043 12.3823C13.0518 12.3823 13.0982 12.3964 13.1377 12.4228C13.1771 12.4491 13.2079 12.4866 13.2261 12.5305C13.2442 12.5743 13.249 12.6226 13.2397 12.6691C13.2305 12.7157 13.2076 12.7585 13.174 12.792C13.1405 12.8256 13.0977 12.8484 13.0512 12.8577C13.0046 12.867 12.9563 12.8622 12.9125 12.844C12.8686 12.8259 12.8312 12.7951 12.8048 12.7557C12.7784 12.7162 12.7643 12.6698 12.7643 12.6223C12.7643 12.5908 12.7705 12.5596 12.7826 12.5305C12.7947 12.5014 12.8123 12.4749 12.8346 12.4526C12.8569 12.4303 12.8834 12.4126 12.9125 12.4006C12.9416 12.3885 12.9728 12.3823 13.0043 12.3823ZM12.4177 12.8357C12.3901 12.8357 12.3627 12.8301 12.3373 12.8193C12.3119 12.8085 12.289 12.7926 12.2699 12.7727C12.2508 12.7527 12.2359 12.7291 12.2262 12.7033C12.2164 12.6774 12.212 12.6499 12.2132 12.6223C12.222 12.5689 12.2508 12.5208 12.2937 12.4878C12.3366 12.4548 12.3904 12.4393 12.4443 12.4445C12.4946 12.4547 12.5397 12.482 12.5722 12.5217C12.6046 12.5614 12.6223 12.6111 12.6223 12.6623C12.6223 12.7136 12.6046 12.7633 12.5722 12.803C12.5397 12.8426 12.4946 12.8699 12.4443 12.8801L12.4177 12.8357ZM12.4177 11.8045C12.4679 11.8147 12.5131 11.842 12.5455 11.8817C12.5779 11.9214 12.5957 11.9711 12.5957 12.0223C12.5957 12.0736 12.5779 12.1233 12.5455 12.163C12.5131 12.2026 12.4679 12.2299 12.4177 12.2401C12.3896 12.239 12.3621 12.2323 12.3367 12.2205C12.3112 12.2087 12.2884 12.192 12.2694 12.1714C12.2504 12.1507 12.2356 12.1266 12.226 12.1002C12.2164 12.0739 12.212 12.0459 12.2132 12.0179C12.2117 11.9879 12.2167 11.9579 12.228 11.9301C12.2394 11.9023 12.2567 11.8773 12.2787 11.857C12.3008 11.8366 12.3271 11.8214 12.3557 11.8123C12.3843 11.8032 12.4146 11.8006 12.4443 11.8045H12.4177ZM11.271 12.8179C11.2191 12.8179 11.1694 12.7973 11.1327 12.7606C11.0961 12.7239 11.0754 12.6742 11.0754 12.6223C11.0754 12.5705 11.0961 12.5207 11.1327 12.484C11.1694 12.4474 11.2191 12.4268 11.271 12.4268C11.3229 12.4268 11.3726 12.4474 11.4093 12.484C11.446 12.5207 11.4666 12.5705 11.4666 12.6223C11.4666 12.6742 11.446 12.7239 11.4093 12.7606C11.3726 12.7973 11.3229 12.8179 11.271 12.8179ZM11.271 12.2401C11.243 12.239 11.2155 12.2323 11.19 12.2205C11.1646 12.2087 11.1417 12.192 11.1227 12.1714C11.1037 12.1507 11.089 12.1266 11.0793 12.1002C11.0697 12.0739 11.0654 12.0459 11.0666 12.0179C11.0654 11.9903 11.0698 11.9627 11.0795 11.9369C11.0892 11.9111 11.1041 11.8875 11.1232 11.8675C11.1423 11.8476 11.1653 11.8317 11.1907 11.8209C11.2161 11.8101 11.2434 11.8045 11.271 11.8045C11.3212 11.8147 11.3664 11.842 11.3988 11.8817C11.4313 11.9214 11.449 11.9711 11.449 12.0223C11.449 12.0736 11.4313 12.1233 11.3988 12.163C11.3664 12.2026 11.3212 12.2299 11.271 12.2401ZM11.8577 12.8179C11.8058 12.8179 11.7561 12.7973 11.7194 12.7606C11.6827 12.7239 11.6621 12.6742 11.6621 12.6223C11.6621 12.5705 11.6827 12.5207 11.7194 12.484C11.7561 12.4474 11.8058 12.4268 11.8577 12.4268C11.9095 12.4268 11.9593 12.4474 11.9959 12.484C12.0326 12.5207 12.0532 12.5705 12.0532 12.6223C12.0532 12.6742 12.0326 12.7239 11.9959 12.7606C11.9593 12.7973 11.9095 12.8179 11.8577 12.8179ZM11.8577 12.2401C11.8296 12.239 11.8021 12.2323 11.7767 12.2205C11.7512 12.2087 11.7284 12.192 11.7094 12.1714C11.6904 12.1507 11.6756 12.1266 11.666 12.1002C11.6564 12.0739 11.652 12.0459 11.6532 12.0179C11.652 11.9903 11.6564 11.9627 11.6662 11.9369C11.6759 11.9111 11.6908 11.8875 11.7099 11.8675C11.729 11.8476 11.7519 11.8317 11.7773 11.8209C11.8027 11.8101 11.8301 11.8045 11.8577 11.8045C11.9079 11.8147 11.9531 11.842 11.9855 11.8817C12.0179 11.9214 12.0357 11.9711 12.0357 12.0223C12.0357 12.0736 12.0179 12.1233 11.9855 12.163C11.9531 12.2026 11.9079 12.2299 11.8577 12.2401ZM11.8577 11.1734C11.9072 11.1717 11.9562 11.1847 11.9983 11.211C12.0404 11.2372 12.0736 11.2755 12.0939 11.3208C12.1141 11.366 12.1203 11.4163 12.1117 11.4652C12.1031 11.514 12.0801 11.5592 12.0457 11.5949C12.0113 11.6306 11.967 11.6552 11.9185 11.6656C11.87 11.6759 11.8195 11.6715 11.7735 11.653C11.7275 11.6344 11.6881 11.6026 11.6603 11.5615C11.6325 11.5204 11.6177 11.4719 11.6177 11.4223C11.6165 11.3908 11.6215 11.3593 11.6325 11.3298C11.6435 11.3002 11.6602 11.2731 11.6816 11.25C11.7031 11.2268 11.7289 11.2082 11.7576 11.1951C11.7863 11.1819 11.8173 11.1746 11.8488 11.1734H11.8577ZM11.2799 11.1734C11.3295 11.1717 11.3784 11.1847 11.4205 11.211C11.4626 11.2372 11.4959 11.2755 11.5161 11.3208C11.5363 11.366 11.5425 11.4163 11.5339 11.4652C11.5253 11.514 11.5024 11.5592 11.4679 11.5949C11.4335 11.6306 11.3892 11.6552 11.3407 11.6656C11.2922 11.6759 11.2417 11.6715 11.1957 11.653C11.1497 11.6344 11.1103 11.6026 11.0825 11.5615C11.0548 11.5204 11.0399 11.4719 11.0399 11.4223C11.0387 11.3908 11.0437 11.3593 11.0547 11.3298C11.0657 11.3002 11.0824 11.2731 11.1039 11.25C11.1253 11.2268 11.1511 11.2082 11.1798 11.1951C11.2085 11.1819 11.2395 11.1746 11.271 11.1734H11.2799ZM9.30656 11.4223C9.30659 11.3745 9.32092 11.3277 9.3477 11.2881C9.37449 11.2485 9.41251 11.2177 9.45689 11.1999C9.50126 11.182 9.54996 11.1778 9.59675 11.1878C9.64353 11.1978 9.68625 11.2215 9.71943 11.256C9.75262 11.2905 9.77475 11.3341 9.78298 11.3812C9.79121 11.4283 9.78517 11.4768 9.76563 11.5205C9.7461 11.5642 9.71396 11.601 9.67334 11.6263C9.63272 11.6515 9.58547 11.6641 9.53767 11.6623C9.47402 11.6623 9.41297 11.637 9.36796 11.592C9.32295 11.547 9.29767 11.486 9.29767 11.4223H9.30656ZM9.53767 11.8045C9.58233 11.8028 9.62648 11.8145 9.66436 11.8383C9.70223 11.862 9.73207 11.8966 9.74999 11.9375C9.7679 11.9785 9.77304 12.0239 9.76475 12.0678C9.75646 12.1117 9.73513 12.1521 9.70352 12.1837C9.67192 12.2153 9.63152 12.2367 9.5876 12.245C9.54368 12.2532 9.49828 12.2481 9.45733 12.2302C9.41639 12.2123 9.38179 12.1824 9.35806 12.1446C9.33434 12.1067 9.32258 12.0625 9.32434 12.0179C9.32429 11.9628 9.34554 11.9098 9.38364 11.8701C9.42175 11.8303 9.47376 11.8068 9.52878 11.8045H9.53767ZM9.53767 12.4268C9.58953 12.4268 9.63927 12.4474 9.67595 12.484C9.71262 12.5207 9.73322 12.5705 9.73322 12.6223C9.73322 12.6742 9.71262 12.7239 9.67595 12.7606C9.63927 12.7973 9.58953 12.8179 9.53767 12.8179C9.4858 12.8179 9.43606 12.7973 9.39939 12.7606C9.36272 12.7239 9.34211 12.6742 9.34211 12.6223C9.34211 12.5705 9.36272 12.5207 9.39939 12.484C9.43606 12.4474 9.4858 12.4268 9.53767 12.4268ZM10.1154 12.8179C10.0636 12.8179 10.0138 12.7973 9.97717 12.7606C9.94049 12.7239 9.91989 12.6742 9.91989 12.6223C9.91989 12.5705 9.94049 12.5207 9.97717 12.484C10.0138 12.4474 10.0636 12.4268 10.1154 12.4268C10.1673 12.4268 10.2171 12.4474 10.2537 12.484C10.2904 12.5207 10.311 12.5705 10.311 12.6223C10.311 12.6742 10.2904 12.7239 10.2537 12.7606C10.2171 12.7973 10.1673 12.8179 10.1154 12.8179ZM10.1154 12.2401C10.0712 12.2419 10.0274 12.2304 9.98966 12.207C9.95197 12.1837 9.9221 12.1497 9.90391 12.1093C9.88572 12.0688 9.88003 12.0239 9.88758 11.9802C9.89512 11.9366 9.91556 11.8961 9.94625 11.8642C9.97694 11.8322 10.0165 11.8101 10.0598 11.8008C10.1032 11.7915 10.1483 11.7953 10.1894 11.8119C10.2305 11.8284 10.2658 11.8568 10.2906 11.8935C10.3155 11.9303 10.3287 11.9736 10.3288 12.0179C10.3288 12.0471 10.323 12.076 10.3119 12.1029C10.3007 12.1299 10.2843 12.1544 10.2637 12.175C10.2431 12.1956 10.2186 12.212 10.1916 12.2232C10.1646 12.2343 10.1357 12.2401 10.1066 12.2401H10.1154ZM10.1154 11.6623C10.0586 11.6514 10.0073 11.6211 9.97044 11.5764C9.93356 11.5318 9.91338 11.4758 9.91338 11.4179C9.91338 11.36 9.93356 11.3039 9.97044 11.2593C10.0073 11.2147 10.0586 11.1843 10.1154 11.1734C10.1723 11.1843 10.2236 11.2147 10.2605 11.2593C10.2973 11.3039 10.3175 11.36 10.3175 11.4179C10.3175 11.4758 10.2973 11.5318 10.2605 11.5764C10.2236 11.6211 10.1723 11.6514 10.1154 11.6623ZM10.6932 12.8179C10.6523 12.8086 10.6155 12.7864 10.5881 12.7546C10.5608 12.7227 10.5444 12.6829 10.5414 12.6411C10.5384 12.5992 10.549 12.5575 10.5715 12.5221C10.5941 12.4868 10.6274 12.4595 10.6666 12.4445C10.7184 12.4445 10.7682 12.4651 10.8048 12.5018C10.8415 12.5385 10.8621 12.5882 10.8621 12.6401C10.8621 12.692 10.8415 12.7417 10.8048 12.7784C10.7682 12.815 10.7184 12.8357 10.6666 12.8357L10.6932 12.8179ZM10.6932 12.2401C10.6489 12.2419 10.6051 12.2304 10.5674 12.207C10.5297 12.1837 10.4999 12.1497 10.4817 12.1093C10.4635 12.0688 10.4578 12.0239 10.4654 11.9802C10.4729 11.9366 10.4933 11.8961 10.524 11.8642C10.5547 11.8322 10.5943 11.8101 10.6376 11.8008C10.6809 11.7915 10.7261 11.7953 10.7672 11.8119C10.8083 11.8284 10.8436 11.8568 10.8684 11.8935C10.8932 11.9303 10.9065 11.9736 10.9066 12.0179C10.9067 12.0486 10.9004 12.079 10.8881 12.1072C10.8758 12.1354 10.8579 12.1608 10.8353 12.1816C10.8128 12.2025 10.7861 12.2185 10.7571 12.2286C10.728 12.2386 10.6972 12.2426 10.6666 12.2401H10.6932ZM10.6932 11.6623C10.6364 11.6514 10.5851 11.6211 10.5482 11.5764C10.5113 11.5318 10.4912 11.4758 10.4912 11.4179C10.4912 11.36 10.5113 11.3039 10.5482 11.2593C10.5851 11.2147 10.6364 11.1843 10.6932 11.1734C10.7501 11.1843 10.8014 11.2147 10.8382 11.2593C10.8751 11.3039 10.8953 11.36 10.8953 11.4179C10.8953 11.4758 10.8751 11.5318 10.8382 11.5764C10.8014 11.6211 10.7501 11.6514 10.6932 11.6623ZM10.6932 10.5512C10.7278 10.5512 10.7621 10.5581 10.794 10.5716C10.8258 10.5851 10.8547 10.6049 10.8787 10.6298C10.9028 10.6547 10.9216 10.6842 10.934 10.7165C10.9464 10.7488 10.9522 10.7833 10.951 10.8179C10.951 10.8862 10.9238 10.9518 10.8755 11.0001C10.8272 11.0485 10.7616 11.0757 10.6932 11.0757C10.6249 11.0757 10.5593 11.0485 10.5109 11.0001C10.4626 10.9518 10.4354 10.8862 10.4354 10.8179C10.4328 10.7524 10.4553 10.6883 10.4982 10.6388C10.5412 10.5893 10.6013 10.5579 10.6666 10.5512H10.6932ZM10.1154 10.5512C10.1501 10.5512 10.1843 10.5581 10.2162 10.5716C10.2481 10.5851 10.2769 10.6049 10.3009 10.6298C10.325 10.6547 10.3438 10.6842 10.3562 10.7165C10.3686 10.7488 10.3744 10.7833 10.3732 10.8179C10.3732 10.8862 10.3461 10.9518 10.2977 11.0001C10.2494 11.0485 10.1838 11.0757 10.1154 11.0757C10.0471 11.0757 9.98151 11.0485 9.93317 11.0001C9.88483 10.9518 9.85767 10.8862 9.85767 10.8179C9.85648 10.784 9.86198 10.7503 9.87385 10.7185C9.88572 10.6868 9.90372 10.6577 9.92684 10.633C9.94995 10.6082 9.97772 10.5882 10.0086 10.5742C10.0394 10.5602 10.0727 10.5524 10.1066 10.5512H10.1154ZM9.53767 10.5512C9.57228 10.5512 9.60654 10.5581 9.63841 10.5716C9.67028 10.5851 9.6991 10.6049 9.72316 10.6298C9.74722 10.6547 9.76602 10.6842 9.77844 10.7165C9.79085 10.7488 9.79664 10.7833 9.79545 10.8179C9.79545 10.8862 9.76829 10.9518 9.71994 11.0001C9.6716 11.0485 9.60604 11.0757 9.53767 11.0757C9.4693 11.0757 9.40373 11.0485 9.35539 11.0001C9.30705 10.9518 9.27989 10.8862 9.27989 10.8179C9.2787 10.784 9.2842 10.7503 9.29607 10.7185C9.30794 10.6868 9.32595 10.6577 9.34906 10.633C9.37218 10.6082 9.39995 10.5882 9.43078 10.5742C9.46162 10.5602 9.49492 10.5524 9.52878 10.5512H9.53767ZM8.38211 12.8179C8.34311 12.8196 8.30446 12.8097 8.27115 12.7893C8.23785 12.7689 8.21141 12.7391 8.19523 12.7035C8.17906 12.668 8.1739 12.6284 8.18041 12.5899C8.18692 12.5514 8.20481 12.5157 8.23177 12.4875C8.25873 12.4592 8.29353 12.4397 8.33169 12.4314C8.36984 12.4231 8.40961 12.4265 8.44586 12.441C8.48212 12.4555 8.5132 12.4805 8.5351 12.5128C8.55701 12.5451 8.56874 12.5833 8.56878 12.6223C8.57005 12.6483 8.56586 12.6743 8.55649 12.6986C8.54711 12.7229 8.53275 12.745 8.51433 12.7634C8.49591 12.7818 8.47384 12.7962 8.44954 12.8056C8.42524 12.815 8.39924 12.8191 8.37322 12.8179H8.38211ZM8.38211 12.2401C8.33783 12.2419 8.29402 12.2304 8.25633 12.207C8.21863 12.1837 8.18877 12.1497 8.17058 12.1093C8.15239 12.0688 8.1467 12.0239 8.15424 11.9802C8.16179 11.9366 8.18222 11.8961 8.21292 11.8642C8.24361 11.8322 8.28317 11.8101 8.3265 11.8008C8.36983 11.7915 8.41496 11.7953 8.45608 11.8119C8.49721 11.8284 8.53245 11.8568 8.55729 11.8935C8.58212 11.9303 8.59541 11.9736 8.59545 12.0179C8.59545 12.0768 8.57203 12.1333 8.53036 12.175C8.48868 12.2167 8.43216 12.2401 8.37322 12.2401H8.38211ZM8.38211 11.6623C8.32526 11.6514 8.27398 11.6211 8.2371 11.5764C8.20023 11.5318 8.18005 11.4758 8.18005 11.4179C8.18005 11.36 8.20023 11.3039 8.2371 11.2593C8.27398 11.2147 8.32526 11.1843 8.38211 11.1734C8.41402 11.1733 8.4456 11.1798 8.47486 11.1926C8.50413 11.2053 8.53044 11.2239 8.55216 11.2473C8.57387 11.2707 8.5905 11.2983 8.60101 11.3284C8.61152 11.3585 8.61568 11.3905 8.61322 11.4223C8.61447 11.4542 8.60912 11.4859 8.5975 11.5156C8.58589 11.5453 8.56825 11.5723 8.54571 11.5948C8.52317 11.6173 8.49621 11.635 8.46653 11.6466C8.43684 11.6582 8.40508 11.6636 8.37322 11.6623H8.38211ZM8.38211 11.0845C8.31294 11.0822 8.24738 11.0531 8.19927 11.0034C8.15117 10.9536 8.1243 10.8871 8.12434 10.8179C8.12434 10.7495 8.15149 10.6839 8.19984 10.6356C8.24818 10.5873 8.31375 10.5601 8.38211 10.5601C8.45048 10.5601 8.51605 10.5873 8.56439 10.6356C8.61273 10.6839 8.63989 10.7495 8.63989 10.8179C8.63989 10.8529 8.63299 10.8876 8.61959 10.9199C8.60619 10.9523 8.58655 10.9817 8.56179 11.0064C8.53702 11.0312 8.50763 11.0508 8.47527 11.0642C8.44292 11.0776 8.40824 11.0845 8.37322 11.0845H8.38211ZM8.95989 12.8179C8.90803 12.8179 8.85829 12.7973 8.82161 12.7606C8.78494 12.7239 8.76434 12.6742 8.76434 12.6223C8.76434 12.5705 8.78494 12.5207 8.82161 12.484C8.85829 12.4474 8.90803 12.4268 8.95989 12.4268C9.01176 12.4268 9.0615 12.4474 9.09817 12.484C9.13484 12.5207 9.15545 12.5705 9.15545 12.6223C9.15545 12.6742 9.13484 12.7239 9.09817 12.7606C9.0615 12.7973 9.01176 12.8179 8.95989 12.8179ZM8.95989 12.2401C8.9156 12.2419 8.8718 12.2304 8.8341 12.207C8.79641 12.1837 8.76655 12.1497 8.74836 12.1093C8.73017 12.0688 8.72448 12.0239 8.73202 11.9802C8.73957 11.9366 8.76 11.8961 8.79069 11.8642C8.82139 11.8322 8.86094 11.8101 8.90428 11.8008C8.94761 11.7915 8.99274 11.7953 9.03386 11.8119C9.07499 11.8284 9.11023 11.8568 9.13507 11.8935C9.1599 11.9303 9.17319 11.9736 9.17322 12.0179C9.17322 12.0471 9.16748 12.076 9.15631 12.1029C9.14514 12.1299 9.12877 12.1544 9.10814 12.175C9.0875 12.1956 9.063 12.212 9.03604 12.2232C9.00908 12.2343 8.98018 12.2401 8.951 12.2401H8.95989ZM8.95989 11.6623C8.90304 11.6514 8.85176 11.6211 8.81488 11.5764C8.778 11.5318 8.75783 11.4758 8.75783 11.4179C8.75783 11.36 8.778 11.3039 8.81488 11.2593C8.85176 11.2147 8.90304 11.1843 8.95989 11.1734C8.9918 11.1733 9.02338 11.1798 9.05264 11.1926C9.08191 11.2053 9.10822 11.2239 9.12993 11.2473C9.15164 11.2707 9.16828 11.2983 9.17879 11.3284C9.1893 11.3585 9.19346 11.3905 9.191 11.4223C9.19225 11.4542 9.1869 11.4859 9.17528 11.5156C9.16366 11.5453 9.14603 11.5723 9.12349 11.5948C9.10095 11.6173 9.07399 11.635 9.04431 11.6466C9.01462 11.6582 8.98285 11.6636 8.951 11.6623H8.95989ZM8.95989 11.0845C8.89072 11.0822 8.82515 11.0531 8.77705 11.0034C8.72895 10.9536 8.70208 10.8871 8.70211 10.8179C8.70211 10.7495 8.72927 10.6839 8.77761 10.6356C8.82596 10.5873 8.89152 10.5601 8.95989 10.5601C9.02826 10.5601 9.09382 10.5873 9.14217 10.6356C9.19051 10.6839 9.21767 10.7495 9.21767 10.8179C9.21767 10.8529 9.21077 10.8876 9.19737 10.9199C9.18397 10.9523 9.16433 10.9817 9.13956 11.0064C9.1148 11.0312 9.0854 11.0508 9.05305 11.0642C9.0207 11.0776 8.98602 11.0845 8.951 11.0845H8.95989ZM8.95989 9.92009C9.01853 9.91653 9.07689 9.93067 9.12741 9.96066C9.17793 9.99065 9.21828 10.0351 9.24323 10.0883C9.26818 10.1415 9.27659 10.201 9.26736 10.259C9.25813 10.317 9.23169 10.3709 9.19146 10.4137C9.15124 10.4565 9.09908 10.4863 9.04175 10.4991C8.98442 10.512 8.92455 10.5073 8.86991 10.4857C8.81527 10.4641 8.76837 10.4266 8.73528 10.3781C8.70219 10.3295 8.68444 10.2722 8.68434 10.2134C8.68188 10.1394 8.70836 10.0674 8.75815 10.0127C8.80794 9.95788 8.87712 9.92468 8.951 9.92009H8.95989ZM8.38211 9.92009C8.44048 9.91833 8.49804 9.93401 8.54743 9.96515C8.59682 9.99629 8.6358 10.0415 8.65937 10.0949C8.68294 10.1483 8.69003 10.2075 8.67974 10.265C8.66945 10.3225 8.64223 10.3756 8.60159 10.4175C8.56094 10.4594 8.50871 10.4882 8.45158 10.5003C8.39445 10.5124 8.33502 10.5071 8.2809 10.4852C8.22678 10.4633 8.18043 10.4257 8.14779 10.3773C8.11515 10.3289 8.0977 10.2718 8.09767 10.2134C8.09763 10.1371 8.12732 10.0639 8.18042 10.0091C8.23352 9.95433 8.30587 9.92241 8.38211 9.92009ZM3.111 13.3779C2.85183 13.9409 2.68093 14.5406 2.60434 15.1556H10.0443C10.0285 15.1446 10.0154 15.13 10.0061 15.1131C9.99686 15.0961 9.99169 15.0772 9.991 15.0579C9.991 15.0272 10.0032 14.9978 10.0248 14.9762C10.0465 14.9545 10.0759 14.9423 10.1066 14.9423C10.1372 14.9423 10.1666 14.9545 10.1883 14.9762C10.2099 14.9978 10.2221 15.0272 10.2221 15.0579C10.2206 15.095 10.2047 15.1301 10.1777 15.1556H10.5866C10.5595 15.1301 10.5436 15.095 10.5421 15.0579C10.5421 15.0202 10.5571 14.984 10.5838 14.9573C10.6104 14.9306 10.6466 14.9157 10.6843 14.9157C10.7221 14.9157 10.7582 14.9306 10.7849 14.9573C10.8116 14.984 10.8266 15.0202 10.8266 15.0579C10.8381 15.0894 10.8381 15.1241 10.8266 15.1556H11.1821C11.1697 15.1242 11.1697 15.0893 11.1821 15.0579C11.1763 15.0331 11.1762 15.0073 11.1817 14.9825C11.1873 14.9576 11.1984 14.9344 11.2142 14.9144C11.23 14.8945 11.2502 14.8784 11.2731 14.8673C11.296 14.8562 11.3211 14.8505 11.3466 14.8505C11.372 14.8505 11.3971 14.8562 11.42 14.8673C11.443 14.8784 11.4631 14.8945 11.4789 14.9144C11.4947 14.9344 11.5058 14.9576 11.5114 14.9825C11.5169 15.0073 11.5168 15.0331 11.511 15.0579C11.5234 15.0893 11.5234 15.1242 11.511 15.1556H11.7954C11.7913 15.1232 11.7913 15.0903 11.7954 15.0579C11.7894 15.0306 11.7895 15.0023 11.7959 14.9751C11.8022 14.9478 11.8146 14.9224 11.8321 14.9006C11.8496 14.8788 11.8717 14.8612 11.8969 14.8491C11.9221 14.837 11.9497 14.8307 11.9777 14.8307C12.0056 14.8307 12.0332 14.837 12.0584 14.8491C12.0836 14.8612 12.1058 14.8788 12.1233 14.9006C12.1408 14.9224 12.1531 14.9478 12.1595 14.9751C12.1658 15.0023 12.166 15.0306 12.1599 15.0579C12.1641 15.0903 12.1641 15.1232 12.1599 15.1556H12.3821C12.3779 15.1232 12.3779 15.0903 12.3821 15.0579C12.3757 15.0268 12.3762 14.9948 12.3837 14.964C12.3913 14.9332 12.4055 14.9045 12.4255 14.8799C12.4455 14.8553 12.4708 14.8355 12.4994 14.8219C12.528 14.8083 12.5593 14.8012 12.591 14.8012C12.6227 14.8012 12.654 14.8083 12.6826 14.8219C12.7112 14.8355 12.7365 14.8553 12.7565 14.8799C12.7765 14.9045 12.7907 14.9332 12.7983 14.964C12.8058 14.9948 12.8063 15.0268 12.7999 15.0579C12.8041 15.0903 12.8041 15.1232 12.7999 15.1556H12.9777C12.9707 15.1234 12.9707 15.0901 12.9777 15.0579C12.9709 15.0231 12.9719 14.9873 12.9806 14.953C12.9893 14.9186 13.0055 14.8866 13.028 14.8593C13.0505 14.832 13.0788 14.81 13.1108 14.7948C13.1428 14.7797 13.1778 14.7719 13.2132 14.7719C13.2486 14.7719 13.2836 14.7797 13.3156 14.7948C13.3477 14.81 13.376 14.832 13.3985 14.8593C13.421 14.8866 13.4372 14.9186 13.4459 14.953C13.4546 14.9873 13.4556 15.0231 13.4488 15.0579C13.4522 15.0904 13.4522 15.1231 13.4488 15.1556H13.3332C13.3253 15.1235 13.3253 15.09 13.3332 15.0579C13.332 15.0228 13.3378 14.9879 13.3501 14.9551C13.3624 14.9223 13.3811 14.8923 13.405 14.8667C13.4289 14.8411 13.4577 14.8205 13.4896 14.806C13.5215 14.7915 13.556 14.7835 13.591 14.7823C13.6256 14.7834 13.6597 14.7915 13.6912 14.8061C13.7226 14.8207 13.7508 14.8415 13.774 14.8672C13.7973 14.8929 13.8151 14.923 13.8264 14.9558C13.8377 14.9886 13.8423 15.0233 13.8399 15.0579C13.8478 15.09 13.8478 15.1235 13.8399 15.1556H13.9199C13.9164 15.1231 13.9164 15.0904 13.9199 15.0579C13.9187 15.0205 13.9249 14.9833 13.9381 14.9483C13.9513 14.9134 13.9713 14.8813 13.9969 14.8541C14.0225 14.8269 14.0532 14.8049 14.0872 14.7896C14.1213 14.7742 14.1581 14.7657 14.1954 14.7645C14.1224 14.7579 14.0544 14.724 14.0051 14.6697C13.9557 14.6154 13.9285 14.5446 13.9288 14.4712C13.9283 14.4219 13.9402 14.3732 13.9635 14.3297C13.9868 14.2862 14.0207 14.2492 14.0621 14.2223C14.0583 14.175 14.0583 14.1274 14.0621 14.0801C14.0062 14.023 13.9744 13.9466 13.9732 13.8668C13.9732 13.7512 13.8843 13.6268 13.831 13.5023C13.7863 13.5407 13.7299 13.5627 13.671 13.5645C13.63 13.5636 13.59 13.5525 13.5543 13.5324C13.5186 13.5122 13.4885 13.4836 13.4666 13.449H13.2799C13.2587 13.4761 13.2318 13.4981 13.201 13.5135C13.1703 13.5289 13.1365 13.5372 13.1021 13.5379C13.0676 13.5379 13.0336 13.5298 13.0027 13.5144C12.9719 13.499 12.945 13.4766 12.9243 13.449H12.6666C12.6467 13.4688 12.6231 13.4845 12.5972 13.4951C12.5713 13.5058 12.5435 13.5113 12.5154 13.5112C12.4619 13.5091 12.4111 13.4868 12.3732 13.449H12.0532C12.0189 13.462 11.9809 13.462 11.9466 13.449C11.9091 13.4619 11.8684 13.4619 11.831 13.449H11.431H11.3688H11.3066H10.7554H10.6932H10.631H10.1688H10.1066H10.0443H9.591H9.52878H9.46656H9.01322H8.951H8.88878H8.43545H8.37322H8.311L3.111 13.3779ZM13.5732 14.6934C13.5201 14.6952 13.4677 14.6811 13.4227 14.6529C13.3777 14.6247 13.3422 14.5837 13.3206 14.5351C13.2991 14.4866 13.2925 14.4327 13.3018 14.3804C13.311 14.3281 13.3357 14.2798 13.3726 14.2416C13.4095 14.2034 13.457 14.1771 13.509 14.1661C13.5609 14.155 13.615 14.1598 13.6642 14.1797C13.7135 14.1996 13.7557 14.2337 13.7854 14.2777C13.8151 14.3218 13.831 14.3736 13.831 14.4268C13.8322 14.4614 13.8264 14.4958 13.814 14.5281C13.8016 14.5604 13.7828 14.5899 13.7587 14.6148C13.7347 14.6397 13.7058 14.6595 13.674 14.673C13.6421 14.6865 13.6078 14.6934 13.5732 14.6934ZM13.5732 13.5557C13.6424 13.558 13.708 13.5871 13.7561 13.6368C13.8042 13.6866 13.831 13.7531 13.831 13.8223C13.831 13.8907 13.8038 13.9563 13.7555 14.0046C13.7072 14.0529 13.6416 14.0801 13.5732 14.0801C13.5049 14.0801 13.4393 14.0529 13.3909 14.0046C13.3426 13.9563 13.3154 13.8907 13.3154 13.8223C13.3154 13.7531 13.3423 13.6866 13.3904 13.6368C13.4385 13.5871 13.5041 13.558 13.5732 13.5557ZM13.0043 13.5557C13.0518 13.5557 13.0982 13.5697 13.1377 13.5961C13.1771 13.6225 13.2079 13.66 13.2261 13.7038C13.2442 13.7477 13.249 13.7959 13.2397 13.8425C13.2305 13.889 13.2076 13.9318 13.174 13.9654C13.1405 13.9989 13.0977 14.0218 13.0512 14.031C13.0046 14.0403 12.9563 14.0355 12.9125 14.0174C12.8686 13.9992 12.8312 13.9685 12.8048 13.929C12.7784 13.8895 12.7643 13.8431 12.7643 13.7957C12.7709 13.7367 12.7991 13.6823 12.8434 13.6429C12.8877 13.6035 12.945 13.5819 13.0043 13.5823V13.5557ZM13.0043 14.1512C13.0672 14.1557 13.126 14.1839 13.1689 14.2301C13.2118 14.2763 13.2356 14.3371 13.2354 14.4001C13.2422 14.4349 13.2412 14.4707 13.2325 14.505C13.2238 14.5393 13.2077 14.5713 13.1851 14.5987C13.1626 14.626 13.1343 14.648 13.1023 14.6631C13.0703 14.6782 13.0353 14.6861 12.9999 14.6861C12.9645 14.6861 12.9295 14.6782 12.8975 14.6631C12.8654 14.648 12.8372 14.626 12.8146 14.5987C12.7921 14.5713 12.7759 14.5393 12.7672 14.505C12.7585 14.4707 12.7576 14.4349 12.7643 14.4001C12.7797 14.3485 12.8114 14.3033 12.8547 14.2712C12.898 14.2391 12.9505 14.222 13.0043 14.2223V14.1512ZM12.4177 14.6134C12.3901 14.6135 12.3627 14.6079 12.3373 14.5971C12.3119 14.5862 12.289 14.5704 12.2699 14.5504C12.2508 14.5305 12.2359 14.5069 12.2262 14.4811C12.2164 14.4552 12.212 14.4277 12.2132 14.4001C12.2133 14.3575 12.226 14.316 12.2499 14.2807C12.2737 14.2455 12.3076 14.2181 12.3471 14.2023C12.3866 14.1864 12.4299 14.1828 12.4716 14.1917C12.5132 14.2007 12.5511 14.2219 12.5806 14.2527C12.61 14.2834 12.6296 14.3222 12.6368 14.3642C12.644 14.4061 12.6385 14.4493 12.621 14.4881C12.6035 14.5269 12.5747 14.5595 12.5385 14.5819C12.5023 14.6042 12.4602 14.6152 12.4177 14.6134ZM12.4177 14.0179C12.3896 14.0167 12.3621 14.0101 12.3367 13.9983C12.3112 13.9865 12.2884 13.9698 12.2694 13.9492C12.2504 13.9285 12.2356 13.9043 12.226 13.878C12.2164 13.8517 12.212 13.8237 12.2132 13.7957C12.212 13.7681 12.2164 13.7405 12.2262 13.7147C12.2359 13.6888 12.2508 13.6652 12.2699 13.6453C12.289 13.6254 12.3119 13.6095 12.3373 13.5987C12.3627 13.5879 12.3901 13.5823 12.4177 13.5823C12.4679 13.5925 12.5131 13.6198 12.5455 13.6595C12.5779 13.6992 12.5957 13.7488 12.5957 13.8001C12.5957 13.8514 12.5779 13.901 12.5455 13.9407C12.5131 13.9804 12.4679 14.0077 12.4177 14.0179ZM11.271 14.569C11.2262 14.569 11.1833 14.5512 11.1516 14.5195C11.1199 14.4878 11.1021 14.4449 11.1021 14.4001C11.1008 14.3776 11.1043 14.355 11.1123 14.334C11.1204 14.3129 11.1328 14.2938 11.1487 14.2778C11.1647 14.2619 11.1838 14.2495 11.2049 14.2414C11.226 14.2334 11.2485 14.2299 11.271 14.2312C11.2928 14.2312 11.3143 14.2356 11.3344 14.2442C11.3544 14.2528 11.3724 14.2654 11.3874 14.2812C11.4024 14.297 11.414 14.3157 11.4215 14.3361C11.429 14.3566 11.4322 14.3783 11.431 14.4001C11.4348 14.4237 11.4335 14.4478 11.4273 14.4708C11.4211 14.4939 11.4101 14.5154 11.395 14.5338C11.3798 14.5523 11.361 14.5674 11.3396 14.578C11.3182 14.5887 11.2949 14.5947 11.271 14.5957V14.569ZM11.271 13.9645C11.2485 13.9658 11.226 13.9623 11.2049 13.9543C11.1838 13.9463 11.1647 13.9339 11.1487 13.9179C11.1328 13.902 11.1204 13.8829 11.1123 13.8618C11.1043 13.8407 11.1008 13.8182 11.1021 13.7957C11.0963 13.7709 11.0962 13.7451 11.1017 13.7203C11.1073 13.6954 11.1184 13.6722 11.1342 13.6522C11.15 13.6323 11.1702 13.6162 11.1931 13.6051C11.216 13.594 11.2411 13.5883 11.2666 13.5883C11.292 13.5883 11.3171 13.594 11.34 13.6051C11.363 13.6162 11.3831 13.6323 11.3989 13.6522C11.4147 13.6722 11.4258 13.6954 11.4314 13.7203C11.4369 13.7451 11.4368 13.7709 11.431 13.7957C11.4364 13.8194 11.4363 13.8441 11.4308 13.8678C11.4252 13.8916 11.4143 13.9137 11.3988 13.9326C11.3834 13.9514 11.3639 13.9665 11.3417 13.9767C11.3196 13.9869 11.2954 13.9918 11.271 13.9912V13.9645ZM11.8488 14.5957C11.7969 14.5957 11.7472 14.575 11.7105 14.5384C11.6738 14.5017 11.6532 14.452 11.6532 14.4001C11.6532 14.3482 11.6738 14.2985 11.7105 14.2618C11.7472 14.2251 11.7969 14.2045 11.8488 14.2045C11.9006 14.2045 11.9504 14.2251 11.9871 14.2618C12.0237 14.2985 12.0443 14.3482 12.0443 14.4001C12.0443 14.452 12.0237 14.5017 11.9871 14.5384C11.9504 14.575 11.9006 14.5957 11.8488 14.5957ZM11.8488 13.9912C11.7969 13.9912 11.7472 13.9706 11.7105 13.9339C11.6738 13.8973 11.6532 13.8475 11.6532 13.7957C11.6532 13.7438 11.6738 13.694 11.7105 13.6574C11.7472 13.6207 11.7969 13.6001 11.8488 13.6001C11.9006 13.6001 11.9504 13.6207 11.9871 13.6574C12.0237 13.694 12.0443 13.7438 12.0443 13.7957C12.0443 13.8475 12.0237 13.8973 11.9871 13.9339C11.9504 13.9706 11.9006 13.9912 11.8488 13.9912ZM9.52878 13.6534C9.5665 13.6534 9.60267 13.6684 9.62935 13.6951C9.65602 13.7218 9.671 13.7579 9.671 13.7957C9.671 13.8334 9.65602 13.8695 9.62935 13.8962C9.60267 13.9229 9.5665 13.9379 9.52878 13.9379C9.49106 13.9379 9.45489 13.9229 9.42821 13.8962C9.40154 13.8695 9.38656 13.8334 9.38656 13.7957C9.39284 13.7627 9.41055 13.7331 9.43658 13.7119C9.4626 13.6908 9.49526 13.6795 9.52878 13.6801V13.6534ZM10.1066 14.5423C10.0914 14.5423 10.0764 14.5393 10.0623 14.5335C10.0483 14.5277 10.0356 14.5192 10.0248 14.5085C10.0141 14.4977 10.0056 14.485 9.9998 14.471C9.99399 14.457 9.991 14.4419 9.991 14.4268C9.991 14.3961 10.0032 14.3667 10.0248 14.3451C10.0465 14.3234 10.0759 14.3112 10.1066 14.3112C10.1372 14.3112 10.1666 14.3234 10.1883 14.3451C10.2099 14.3667 10.2221 14.3961 10.2221 14.4268C10.2221 14.4574 10.2099 14.4868 10.1883 14.5085C10.1666 14.5301 10.1372 14.5423 10.1066 14.5423ZM9.52878 14.3023C9.54473 14.3023 9.56052 14.3055 9.57516 14.3119C9.58979 14.3182 9.60295 14.3276 9.6138 14.3392C9.62466 14.3509 9.63297 14.3647 9.63823 14.3798C9.64348 14.3949 9.64556 14.4109 9.64434 14.4268C9.64434 14.4574 9.63216 14.4868 9.61049 14.5085C9.58882 14.5301 9.55943 14.5423 9.52878 14.5423C9.49813 14.5423 9.46874 14.5301 9.44707 14.5085C9.4254 14.4868 9.41322 14.4574 9.41322 14.4268C9.412 14.4109 9.41408 14.3949 9.41933 14.3798C9.42459 14.3647 9.4329 14.3509 9.44376 14.3392C9.45461 14.3276 9.46777 14.3182 9.4824 14.3119C9.49704 14.3055 9.51283 14.3023 9.52878 14.3023ZM9.52878 14.9334C9.55471 14.9334 9.57958 14.9437 9.59792 14.9621C9.61626 14.9804 9.62656 15.0053 9.62656 15.0312C9.62433 15.0556 9.61306 15.0782 9.59496 15.0947C9.57686 15.1111 9.55324 15.1202 9.52878 15.1201C9.50588 15.1181 9.48441 15.1081 9.46816 15.0918C9.4519 15.0756 9.44189 15.0541 9.43989 15.0312C9.43951 15.0081 9.44733 14.9856 9.46198 14.9677C9.47663 14.9498 9.49715 14.9376 9.51989 14.9334H9.52878ZM10.1154 13.9734C10.0769 13.9712 10.0407 13.9542 10.0143 13.9261C9.98785 13.898 9.97316 13.8609 9.97322 13.8223C9.97322 13.7846 9.98821 13.7484 10.0149 13.7218C10.0416 13.6951 10.0777 13.6801 10.1154 13.6801C10.1532 13.6801 10.1893 13.6951 10.216 13.7218C10.2427 13.7484 10.2577 13.7846 10.2577 13.8223C10.2577 13.8624 10.2417 13.9008 10.2134 13.9292C10.1851 13.9575 10.1466 13.9734 10.1066 13.9734H10.1154ZM10.551 13.8223C10.551 13.7846 10.566 13.7484 10.5927 13.7218C10.6193 13.6951 10.6555 13.6801 10.6932 13.6801C10.7294 13.6824 10.7633 13.6983 10.7881 13.7248C10.8129 13.7512 10.8266 13.7861 10.8266 13.8223C10.8319 13.8433 10.8324 13.8653 10.828 13.8865C10.8236 13.9077 10.8144 13.9277 10.8011 13.9448C10.7878 13.9619 10.7708 13.9758 10.7513 13.9853C10.7319 13.9949 10.7105 13.9998 10.6888 13.9998C10.6671 13.9998 10.6457 13.9949 10.6262 13.9853C10.6068 13.9758 10.5897 13.9619 10.5764 13.9448C10.5631 13.9277 10.5539 13.9077 10.5495 13.8865C10.5451 13.8653 10.5456 13.8433 10.551 13.8223ZM10.6932 14.2845C10.7214 14.2845 10.7488 14.2929 10.7722 14.3085C10.7956 14.3241 10.8139 14.3463 10.8246 14.3723C10.8354 14.3983 10.8382 14.4269 10.8327 14.4545C10.8272 14.4821 10.8137 14.5074 10.7938 14.5273C10.7739 14.5472 10.7486 14.5608 10.721 14.5663C10.6934 14.5717 10.6648 14.5689 10.6388 14.5582C10.6128 14.5474 10.5906 14.5292 10.575 14.5058C10.5593 14.4824 10.551 14.4549 10.551 14.4268C10.5504 14.3932 10.5617 14.3606 10.5828 14.3346C10.604 14.3085 10.6336 14.2908 10.6666 14.2845H10.6932ZM8.37322 15.1112C8.34965 15.1112 8.32704 15.1018 8.31037 15.0852C8.2937 15.0685 8.28434 15.0459 8.28434 15.0223C8.28434 15.0106 8.28663 14.9991 8.2911 14.9883C8.29557 14.9775 8.30212 14.9677 8.31037 14.9595C8.31862 14.9512 8.32842 14.9447 8.33921 14.9402C8.34999 14.9357 8.36155 14.9334 8.37322 14.9334C8.3849 14.9334 8.39646 14.9357 8.40724 14.9402C8.41803 14.9447 8.42782 14.9512 8.43608 14.9595C8.44433 14.9677 8.45088 14.9775 8.45535 14.9883C8.45981 14.9991 8.46211 15.0106 8.46211 15.0223C8.46211 15.0459 8.45275 15.0685 8.43608 15.0852C8.41941 15.1018 8.3968 15.1112 8.37322 15.1112ZM8.37322 14.5334C8.34258 14.5334 8.31319 14.5213 8.29151 14.4996C8.26984 14.4779 8.25767 14.4485 8.25767 14.4179C8.25767 14.3872 8.26984 14.3578 8.29151 14.3362C8.31319 14.3145 8.34258 14.3023 8.37322 14.3023C8.40387 14.3023 8.43326 14.3145 8.45493 14.3362C8.47661 14.3578 8.48878 14.3872 8.48878 14.4179C8.49001 14.4338 8.48793 14.4498 8.48267 14.4648C8.47742 14.4799 8.4691 14.4937 8.45825 14.5054C8.44739 14.5171 8.43423 14.5264 8.4196 14.5328C8.40497 14.5391 8.38918 14.5424 8.37322 14.5423V14.5334ZM8.37322 13.9645C8.33471 13.9623 8.29852 13.9454 8.27207 13.9173C8.24563 13.8892 8.23094 13.852 8.231 13.8134C8.231 13.7757 8.24599 13.7395 8.27266 13.7129C8.29933 13.6862 8.33551 13.6712 8.37322 13.6712C8.41094 13.6712 8.44712 13.6862 8.47379 13.7129C8.50046 13.7395 8.51545 13.7757 8.51545 13.8134C8.51665 13.8333 8.51392 13.8532 8.50742 13.872C8.50092 13.8908 8.49077 13.9081 8.47755 13.923C8.46434 13.9378 8.44832 13.9499 8.43042 13.9586C8.41252 13.9673 8.39308 13.9723 8.37322 13.9734V13.9645ZM8.951 14.5334C8.92035 14.5334 8.89096 14.5213 8.86929 14.4996C8.84762 14.4779 8.83545 14.4485 8.83545 14.4179C8.83545 14.3872 8.84762 14.3578 8.86929 14.3362C8.89096 14.3145 8.92035 14.3023 8.951 14.3023C8.98165 14.3023 9.01104 14.3145 9.03271 14.3362C9.05438 14.3578 9.06656 14.3872 9.06656 14.4179C9.06778 14.4338 9.06571 14.4498 9.06045 14.4648C9.0552 14.4799 9.04688 14.4937 9.03602 14.5054C9.02517 14.5171 9.01201 14.5264 8.99738 14.5328C8.98275 14.5391 8.96695 14.5424 8.951 14.5423V14.5334ZM9.03989 15.0223C9.03789 15.0452 9.02788 15.0667 9.01162 15.0829C8.99537 15.0992 8.9739 15.1092 8.951 15.1112C8.92654 15.1113 8.90293 15.1022 8.88482 15.0858C8.86672 15.0693 8.85545 15.0467 8.85322 15.0223C8.85322 14.9964 8.86353 14.9715 8.88186 14.9532C8.9002 14.9348 8.92507 14.9245 8.951 14.9245C8.96386 14.9257 8.97637 14.9293 8.98782 14.9353C8.99926 14.9413 9.0094 14.9494 9.01767 14.9594C9.02593 14.9693 9.03215 14.9807 9.03596 14.9931C9.03978 15.0054 9.04111 15.0184 9.03989 15.0312V15.0223ZM8.951 13.9645C8.91249 13.9623 8.8763 13.9454 8.84985 13.9173C8.82341 13.8892 8.80871 13.852 8.80878 13.8134C8.80878 13.7757 8.82376 13.7395 8.85044 13.7129C8.87711 13.6862 8.91328 13.6712 8.951 13.6712C8.98872 13.6712 9.0249 13.6862 9.05157 13.7129C9.07824 13.7395 9.09322 13.7757 9.09322 13.8134C9.09329 13.852 9.0786 13.8892 9.05215 13.9173C9.02571 13.9454 8.98952 13.9623 8.951 13.9645ZM2.60434 15.1112C2.56028 15.4054 2.53947 15.7026 2.54211 16.0001C2.54211 16.1512 2.54211 16.2934 2.54211 16.4357H2.66656C2.67523 16.3492 2.7153 16.2688 2.77917 16.2099C2.84305 16.1509 2.92631 16.1174 3.01322 16.1156C3.09919 16.1176 3.18135 16.1514 3.24377 16.2106C3.30619 16.2697 3.34441 16.3499 3.351 16.4357H3.55545C3.56404 16.3586 3.60033 16.2873 3.65755 16.235C3.71477 16.1826 3.78904 16.1529 3.86656 16.1512C3.94311 16.1531 4.01627 16.1832 4.07203 16.2357C4.12779 16.2882 4.16224 16.3594 4.16878 16.4357H4.44434C4.45588 16.3722 4.48934 16.3147 4.53888 16.2734C4.58843 16.232 4.65091 16.2094 4.71545 16.2094C4.77998 16.2094 4.84246 16.232 4.89201 16.2734C4.94155 16.3147 4.97501 16.3722 4.98656 16.4357H5.32434C5.33574 16.3788 5.36532 16.3273 5.40863 16.2888C5.45193 16.2503 5.50659 16.227 5.56434 16.2223C5.62309 16.2238 5.67941 16.2461 5.72334 16.2851C5.76727 16.3241 5.79596 16.3775 5.80434 16.4357H6.22211C6.23183 16.3898 6.257 16.3487 6.29341 16.3192C6.32982 16.2897 6.37525 16.2736 6.42211 16.2736C6.46897 16.2736 6.51441 16.2897 6.55082 16.3192C6.58723 16.3487 6.6124 16.3898 6.62211 16.4357H7.10211C7.1138 16.4001 7.13643 16.3691 7.16675 16.3472C7.19708 16.3252 7.23356 16.3134 7.271 16.3134C7.30844 16.3134 7.34493 16.3252 7.37525 16.3472C7.40558 16.3691 7.4282 16.4001 7.43989 16.4357H7.99989C8.0043 16.4066 8.01963 16.3803 8.04275 16.3621C8.06587 16.3439 8.09505 16.3353 8.12434 16.3379C8.15432 16.3368 8.18379 16.3459 8.20799 16.3636C8.23218 16.3813 8.24969 16.4067 8.25767 16.4357H8.87989C8.88846 16.417 8.90224 16.4011 8.91959 16.3901C8.93694 16.3791 8.95711 16.3733 8.97767 16.3734C8.9967 16.3749 9.01498 16.3814 9.03062 16.3924C9.04625 16.4033 9.05866 16.4183 9.06656 16.4357H9.73322C9.73909 16.4169 9.75099 16.4007 9.76707 16.3894C9.78315 16.3781 9.80251 16.3725 9.82211 16.3734C9.84267 16.3733 9.86284 16.3791 9.88019 16.3901C9.89754 16.4011 9.91132 16.417 9.91989 16.4357H12.3554C12.3125 16.422 12.2753 16.3946 12.2496 16.3576C12.2239 16.3206 12.2111 16.2762 12.2132 16.2312C12.212 16.2005 12.2171 16.1699 12.2283 16.1413C12.2394 16.1127 12.2564 16.0867 12.2781 16.065C12.2998 16.0433 12.3258 16.0263 12.3544 16.0151C12.383 16.004 12.4137 15.9988 12.4443 16.0001C12.4724 16.0012 12.4999 16.0079 12.5253 16.0197C12.5508 16.0315 12.5736 16.0482 12.5926 16.0688C12.6116 16.0895 12.6264 16.1136 12.636 16.14C12.6456 16.1663 12.65 16.1943 12.6488 16.2223C12.6515 16.2662 12.64 16.3098 12.616 16.3466C12.592 16.3834 12.5567 16.4116 12.5154 16.4268H12.8977C12.8619 16.4061 12.8323 16.3763 12.812 16.3403C12.7917 16.3044 12.7813 16.2636 12.7821 16.2223C12.7753 16.1876 12.7763 16.1517 12.785 16.1174C12.7937 16.0831 12.8099 16.0511 12.8324 16.0238C12.8549 15.9964 12.8832 15.9744 12.9153 15.9593C12.9473 15.9442 12.9823 15.9363 13.0177 15.9363C13.0531 15.9363 13.0881 15.9442 13.1201 15.9593C13.1521 15.9744 13.1804 15.9964 13.2029 16.0238C13.2254 16.0511 13.2416 16.0831 13.2503 16.1174C13.259 16.1517 13.26 16.1876 13.2532 16.2223C13.2533 16.2625 13.2436 16.302 13.225 16.3376C13.2064 16.3732 13.1795 16.4038 13.1466 16.4268H13.431C13.4028 16.4008 13.3803 16.3691 13.365 16.3339C13.3497 16.2987 13.3419 16.2607 13.3421 16.2223C13.3421 16.154 13.3693 16.0884 13.4176 16.04C13.466 15.9917 13.5315 15.9645 13.5999 15.9645C13.6683 15.9645 13.7338 15.9917 13.7822 16.04C13.8305 16.0884 13.8577 16.154 13.8577 16.2223C13.8587 16.2617 13.8504 16.3008 13.8334 16.3363C13.8164 16.3719 13.7912 16.4029 13.7599 16.4268H13.9732C13.9233 16.3702 13.8949 16.2978 13.8932 16.2223C13.892 16.1842 13.8985 16.1463 13.9123 16.1107C13.926 16.0752 13.9468 16.0428 13.9733 16.0154C13.9999 15.9881 14.0316 15.9663 14.0667 15.9515C14.1018 15.9366 14.1396 15.929 14.1777 15.929C14.2158 15.9208 14.2551 15.9208 14.2932 15.929V15.8579C14.2551 15.866 14.2158 15.866 14.1777 15.8579C14.0999 15.8579 14.0253 15.827 13.9703 15.772C13.9152 15.7169 13.8843 15.6423 13.8843 15.5645C13.8843 15.4867 13.9152 15.4121 13.9703 15.3571C14.0253 15.3021 14.0999 15.2712 14.1777 15.2712H14.2577V15.2268H14.1866C14.1286 15.2255 14.0724 15.207 14.025 15.1738C13.9775 15.1406 13.9409 15.0941 13.9199 15.0401H13.8399C13.8234 15.0886 13.7924 15.1309 13.751 15.1611C13.7097 15.1913 13.66 15.208 13.6088 15.209C13.5584 15.2238 13.5046 15.2224 13.4551 15.2048C13.4056 15.1873 13.363 15.1545 13.3332 15.1112H13.2088C13.1895 15.152 13.1594 15.1868 13.1218 15.2119C13.0843 15.237 13.0406 15.2513 12.9954 15.2534C12.9501 15.2523 12.906 15.2384 12.8682 15.2132C12.8304 15.188 12.8006 15.1527 12.7821 15.1112H12.6043C12.5874 15.1462 12.5609 15.1757 12.5278 15.1962C12.4948 15.2166 12.4566 15.2272 12.4177 15.2268C12.3775 15.2279 12.3378 15.2176 12.3032 15.1972C12.2686 15.1767 12.2405 15.1469 12.2221 15.1112H11.9999C11.9825 15.1379 11.9588 15.16 11.9309 15.1755C11.903 15.191 11.8718 15.1995 11.8399 15.2001C11.8066 15.2001 11.7739 15.1921 11.7444 15.1766C11.715 15.1611 11.6898 15.1386 11.671 15.1112H11.3866C11.374 15.133 11.3558 15.1511 11.3339 15.1636C11.3121 15.1761 11.2873 15.1825 11.2621 15.1823C11.2355 15.1842 11.2088 15.1785 11.1852 15.1659C11.1616 15.1534 11.1421 15.1344 11.1288 15.1112H10.7732C10.7617 15.126 10.7468 15.1377 10.7298 15.1455C10.7128 15.1532 10.6941 15.1567 10.6754 15.1556C10.6569 15.156 10.6384 15.1522 10.6215 15.1445C10.6046 15.1368 10.5896 15.1254 10.5777 15.1112H10.1688H10.0977H10.0354H2.60434ZM13.5821 15.8757C13.5475 15.8757 13.5132 15.8687 13.4814 15.8552C13.4495 15.8417 13.4207 15.8219 13.3966 15.797C13.3726 15.7721 13.3538 15.7427 13.3413 15.7104C13.3289 15.6781 13.3231 15.6436 13.3243 15.609C13.3243 15.5406 13.3515 15.475 13.3998 15.4267C13.4482 15.3784 13.5137 15.3512 13.5821 15.3512C13.6505 15.3512 13.716 15.3784 13.7644 15.4267C13.8127 15.475 13.8399 15.5406 13.8399 15.609C13.8436 15.645 13.8398 15.6814 13.8285 15.7158C13.8172 15.7503 13.7988 15.7819 13.7745 15.8088C13.7502 15.8356 13.7205 15.857 13.6873 15.8716C13.6542 15.8862 13.6183 15.8936 13.5821 15.8934V15.8757ZM13.0043 15.369C13.0664 15.3713 13.1252 15.3976 13.1683 15.4423C13.2114 15.4871 13.2355 15.5468 13.2354 15.609C13.2422 15.6437 13.2412 15.6796 13.2325 15.7139C13.2238 15.7482 13.2077 15.7802 13.1851 15.8075C13.1626 15.8349 13.1343 15.8569 13.1023 15.872C13.0703 15.8871 13.0353 15.895 12.9999 15.895C12.9645 15.895 12.9295 15.8871 12.8975 15.872C12.8654 15.8569 12.8372 15.8349 12.8146 15.8075C12.7921 15.7802 12.7759 15.7482 12.7672 15.7139C12.7585 15.6796 12.7576 15.6437 12.7643 15.609C12.7688 15.5485 12.7961 15.4919 12.8406 15.4507C12.8851 15.4094 12.9436 15.3866 13.0043 15.3868V15.369ZM12.4266 15.8312C12.3978 15.8312 12.3693 15.8254 12.3428 15.8142C12.3163 15.8029 12.2924 15.7864 12.2725 15.7656C12.2525 15.7449 12.237 15.7203 12.2268 15.6934C12.2167 15.6664 12.212 15.6377 12.2132 15.609C12.215 15.5672 12.2289 15.5269 12.2534 15.493C12.2779 15.4591 12.3118 15.4331 12.3509 15.4183C12.39 15.4035 12.4326 15.4006 12.4734 15.4098C12.5141 15.419 12.5513 15.44 12.5803 15.4701C12.6092 15.5003 12.6287 15.5383 12.6362 15.5794C12.6437 15.6205 12.639 15.663 12.6227 15.7014C12.6063 15.7399 12.579 15.7727 12.5441 15.7958C12.5092 15.8189 12.4684 15.8312 12.4266 15.8312ZM11.2621 16.3823C11.2189 16.38 11.1782 16.3612 11.1484 16.3298C11.1186 16.2984 11.1021 16.2567 11.1021 16.2134C11.1009 16.1917 11.1041 16.1699 11.1116 16.1495C11.1191 16.129 11.1307 16.1103 11.1457 16.0945C11.1607 16.0787 11.1787 16.0661 11.1988 16.0575C11.2188 16.0489 11.2403 16.0445 11.2621 16.0445C11.2846 16.0432 11.3072 16.0467 11.3282 16.0548C11.3493 16.0628 11.3685 16.0752 11.3844 16.0911C11.4003 16.1071 11.4127 16.1262 11.4208 16.1473C11.4288 16.1684 11.4323 16.1909 11.431 16.2134C11.4335 16.2371 11.431 16.2609 11.4236 16.2835C11.4163 16.3061 11.4042 16.3269 11.3883 16.3445C11.3723 16.3621 11.3529 16.3762 11.3311 16.3858C11.3094 16.3953 11.2859 16.4002 11.2621 16.4001V16.3823ZM11.2621 15.7779C11.2396 15.7792 11.2171 15.7757 11.196 15.7676C11.1749 15.7596 11.1558 15.7472 11.1398 15.7313C11.1239 15.7153 11.1115 15.6962 11.1035 15.6751C11.0954 15.654 11.0919 15.6315 11.0932 15.609C11.0874 15.5842 11.0873 15.5584 11.0929 15.5336C11.0984 15.5088 11.1095 15.4855 11.1253 15.4656C11.1411 15.4456 11.1613 15.4295 11.1842 15.4184C11.2071 15.4074 11.2322 15.4016 11.2577 15.4016C11.2831 15.4016 11.3082 15.4074 11.3312 15.4184C11.3541 15.4295 11.3742 15.4456 11.39 15.4656C11.4058 15.4855 11.4169 15.5088 11.4225 15.5336C11.428 15.5584 11.4279 15.5842 11.4221 15.609C11.4259 15.6314 11.4249 15.6543 11.4192 15.6763C11.4134 15.6983 11.403 15.7188 11.3887 15.7365C11.3744 15.7541 11.3565 15.7685 11.3362 15.7787C11.3159 15.7889 11.2937 15.7947 11.271 15.7957L11.2621 15.7779ZM11.8399 16.409C11.8009 16.4108 11.7622 16.4008 11.7289 16.3804C11.6956 16.3601 11.6692 16.3302 11.653 16.2946C11.6368 16.2591 11.6317 16.2195 11.6382 16.181C11.6447 16.1425 11.6626 16.1069 11.6895 16.0786C11.7165 16.0504 11.7513 16.0308 11.7895 16.0225C11.8276 16.0142 11.8674 16.0176 11.9036 16.0321C11.9399 16.0466 11.971 16.0716 11.9929 16.1039C12.0148 16.1362 12.0265 16.1744 12.0266 16.2134C12.029 16.2391 12.0263 16.2651 12.0187 16.2897C12.0111 16.3144 11.9986 16.3373 11.9821 16.3571C11.9656 16.377 11.9453 16.3933 11.9224 16.4053C11.8995 16.4172 11.8745 16.4245 11.8488 16.4268L11.8399 16.409ZM11.8399 15.8045C11.8009 15.8063 11.7622 15.7964 11.7289 15.776C11.6956 15.7556 11.6692 15.7257 11.653 15.6902C11.6368 15.6546 11.6317 15.6151 11.6382 15.5766C11.6447 15.5381 11.6626 15.5024 11.6895 15.4742C11.7165 15.4459 11.7513 15.4264 11.7895 15.4181C11.8276 15.4098 11.8674 15.4131 11.9036 15.4276C11.9399 15.4421 11.971 15.4671 11.9929 15.4995C12.0148 15.5318 12.0265 15.5699 12.0266 15.609C12.029 15.6347 12.0263 15.6606 12.0187 15.6853C12.0111 15.7099 11.9986 15.7329 11.9821 15.7527C11.9656 15.7725 11.9453 15.7889 11.9224 15.8008C11.8995 15.8128 11.8745 15.8201 11.8488 15.8223L11.8399 15.8045ZM9.42211 15.609C9.42211 15.5831 9.43242 15.5582 9.45075 15.5398C9.46909 15.5215 9.49396 15.5112 9.51989 15.5112C9.54582 15.5112 9.57069 15.5215 9.58903 15.5398C9.60737 15.5582 9.61767 15.5831 9.61767 15.609C9.61767 15.6349 9.60737 15.6598 9.58903 15.6781C9.57069 15.6965 9.54582 15.7068 9.51989 15.7068C9.49831 15.7051 9.47788 15.6964 9.46179 15.6819C9.4457 15.6675 9.43488 15.6481 9.431 15.6268L9.42211 15.609ZM10.0977 15.7334C10.0817 15.7335 10.0659 15.7302 10.0513 15.7239C10.0367 15.7175 10.0235 15.7082 10.0126 15.6965C10.0018 15.6848 9.99348 15.671 9.98822 15.6559C9.98297 15.6409 9.98089 15.6249 9.98211 15.609C9.98211 15.5783 9.99429 15.5489 10.016 15.5273C10.0376 15.5056 10.067 15.4934 10.0977 15.4934C10.1283 15.4934 10.1577 15.5056 10.1794 15.5273C10.2011 15.5489 10.2132 15.5783 10.2132 15.609C10.2172 15.6255 10.2174 15.6427 10.214 15.6593C10.2105 15.6759 10.2034 15.6915 10.1933 15.7051C10.1831 15.7187 10.17 15.7299 10.155 15.7378C10.1401 15.7458 10.1235 15.7504 10.1066 15.7512L10.0977 15.7334ZM10.6754 15.4668C10.7132 15.4668 10.7493 15.4817 10.776 15.5084C10.8027 15.5351 10.8177 15.5713 10.8177 15.609C10.8177 15.6467 10.8027 15.6829 10.776 15.7096C10.7493 15.7362 10.7132 15.7512 10.6754 15.7512C10.6377 15.7512 10.6016 15.7362 10.5749 15.7096C10.5482 15.6829 10.5332 15.6467 10.5332 15.609C10.5373 15.5759 10.5529 15.5453 10.5773 15.5226C10.6017 15.4998 10.6333 15.4864 10.6666 15.4845L10.6754 15.4668ZM10.6754 16.3557C10.6377 16.3557 10.6016 16.3407 10.5749 16.314C10.5482 16.2873 10.5332 16.2511 10.5332 16.2134C10.5332 16.1757 10.5482 16.1395 10.5749 16.1129C10.6016 16.0862 10.6377 16.0712 10.6754 16.0712C10.7132 16.0712 10.7493 16.0862 10.776 16.1129C10.8027 16.1395 10.8177 16.1757 10.8177 16.2134C10.8177 16.2511 10.8027 16.2873 10.776 16.314C10.7493 16.3407 10.7132 16.3557 10.6754 16.3557ZM8.89767 15.4668C8.92596 15.4668 8.95309 15.478 8.97309 15.498C8.9931 15.518 9.00434 15.5451 9.00434 15.5734C9.0052 15.5882 9.0052 15.6031 9.00434 15.6179C9.00216 15.6352 8.99372 15.651 8.98061 15.6625C8.9675 15.674 8.95064 15.6802 8.93322 15.6801C8.90493 15.6801 8.8778 15.6689 8.8578 15.6489C8.8378 15.6288 8.82656 15.6017 8.82656 15.5734C8.82656 15.5451 8.8378 15.518 8.8578 15.498C8.8778 15.478 8.90493 15.4668 8.93322 15.4668H8.89767ZM8.05323 15.4668C8.09094 15.4668 8.12712 15.4817 8.15379 15.5084C8.18046 15.5351 8.19545 15.5713 8.19545 15.609C8.19545 15.6467 8.18046 15.6829 8.15379 15.7096C8.12712 15.7362 8.09094 15.7512 8.05323 15.7512C8.01551 15.7512 7.97933 15.7362 7.95266 15.7096C7.92599 15.6829 7.911 15.6467 7.911 15.609C7.911 15.5713 7.92599 15.5351 7.95266 15.5084C7.97933 15.4817 8.01551 15.4668 8.05323 15.4668ZM7.16434 15.4668C7.21149 15.4668 7.2567 15.4855 7.29004 15.5188C7.32338 15.5522 7.34211 15.5974 7.34211 15.6445C7.34211 15.6917 7.32338 15.7369 7.29004 15.7702C7.2567 15.8036 7.21149 15.8223 7.16434 15.8223C7.11719 15.8223 7.07197 15.8036 7.03863 15.7702C7.00529 15.7369 6.98656 15.6917 6.98656 15.6445C6.98656 15.5974 7.00529 15.5522 7.03863 15.5188C7.07197 15.4855 7.11719 15.4668 7.16434 15.4668ZM6.27545 15.4668C6.31797 15.465 6.36006 15.476 6.39629 15.4983C6.43252 15.5207 6.46125 15.5533 6.47876 15.5921C6.49628 15.6309 6.50179 15.674 6.49459 15.716C6.48739 15.7579 6.46781 15.7968 6.43836 15.8275C6.40891 15.8582 6.37094 15.8795 6.32933 15.8884C6.28773 15.8974 6.24439 15.8937 6.20488 15.8779C6.16538 15.862 6.13152 15.8347 6.10767 15.7995C6.08381 15.7642 6.07104 15.7227 6.071 15.6801C6.03093 15.64 6.00841 15.5857 6.00841 15.529C6.00841 15.4723 6.03093 15.4179 6.071 15.3779C6.11108 15.3378 6.16544 15.3153 6.22211 15.3153C6.27879 15.3153 6.33315 15.3378 6.37322 15.3779L6.27545 15.4668ZM5.38656 15.4668C5.41884 15.4667 5.45079 15.4732 5.4805 15.4858C5.51022 15.4985 5.53708 15.5169 5.55949 15.5402C5.58189 15.5634 5.59938 15.5909 5.6109 15.6211C5.62243 15.6512 5.62775 15.6834 5.62656 15.7157C5.62656 15.7793 5.60127 15.8403 5.55626 15.8854C5.51125 15.9304 5.45021 15.9557 5.38656 15.9557C5.32291 15.9557 5.26186 15.9304 5.21685 15.8854C5.17184 15.8403 5.14656 15.7793 5.14656 15.7157C5.12204 15.6911 5.1026 15.662 5.08933 15.63C5.07607 15.598 5.06924 15.5637 5.06924 15.529C5.06924 15.4943 5.07607 15.46 5.08933 15.428C5.1026 15.3959 5.12204 15.3668 5.14656 15.3423C5.17107 15.3178 5.20017 15.2984 5.2322 15.2851C5.26423 15.2718 5.29856 15.265 5.33322 15.265C5.36789 15.265 5.40222 15.2718 5.43425 15.2851C5.46628 15.2984 5.49538 15.3178 5.51989 15.3423L5.38656 15.4668ZM4.49767 15.4668C4.57311 15.4668 4.64546 15.4967 4.6988 15.5501C4.75215 15.6034 4.78211 15.6758 4.78211 15.7512C4.78211 15.8266 4.75215 15.899 4.6988 15.9523C4.64546 16.0057 4.57311 16.0357 4.49767 16.0357C4.42223 16.0357 4.34988 16.0057 4.29654 15.9523C4.24319 15.899 4.21322 15.8266 4.21322 15.7512C4.21322 15.6758 4.24319 15.6034 4.29654 15.5501C4.34988 15.4967 4.42223 15.4668 4.49767 15.4668ZM2.79989 16.1068C2.70559 16.1068 2.61516 16.0693 2.54848 16.0026C2.4818 15.9359 2.44434 15.8455 2.44434 15.7512C2.44434 15.6569 2.4818 15.5665 2.54848 15.4998C2.61516 15.4331 2.70559 15.3957 2.79989 15.3957C2.89419 15.3957 2.98463 15.4331 3.05131 15.4998C3.11799 15.5665 3.15545 15.6569 3.15545 15.7512C3.15545 15.8455 3.11799 15.9359 3.05131 16.0026C2.98463 16.0693 2.89419 16.1068 2.79989 16.1068ZM3.68878 15.4312C3.77365 15.4312 3.85504 15.4649 3.91505 15.5249C3.97507 15.5849 4.00878 15.6663 4.00878 15.7512C4.00878 15.8361 3.97507 15.9175 3.91505 15.9775C3.85504 16.0375 3.77365 16.0712 3.68878 16.0712C3.60391 16.0712 3.52252 16.0375 3.46251 15.9775C3.40249 15.9175 3.36878 15.8361 3.36878 15.7512C3.36878 15.6663 3.40249 15.5849 3.46251 15.5249C3.52252 15.4649 3.60391 15.4312 3.68878 15.4312ZM2.55989 16.4357C2.57878 16.695 2.61142 16.9531 2.65767 17.209C2.6828 17.1475 2.72598 17.095 2.78151 17.0585C2.83705 17.022 2.90234 17.0032 2.96878 17.0045C3.06308 17.0045 3.15352 17.042 3.2202 17.1087C3.28688 17.1754 3.32434 17.2658 3.32434 17.3601C3.32434 17.4544 3.28688 17.5448 3.2202 17.6115C3.15352 17.6782 3.06308 17.7157 2.96878 17.7157C2.89444 17.7164 2.82215 17.6913 2.76434 17.6445V17.7512H14.0266C14.1458 17.3457 14.2203 16.9284 14.2488 16.5068H14.1599C14.0827 16.5052 14.0092 16.4733 13.9554 16.4179H13.7421C13.6975 16.4563 13.641 16.4782 13.5821 16.4801C13.5206 16.4782 13.4613 16.4563 13.4132 16.4179H13.1288C13.0916 16.4416 13.0484 16.4542 13.0043 16.4542C12.9602 16.4542 12.9171 16.4416 12.8799 16.4179H12.4977H12.4266H12.3554H9.87545C9.87631 16.4327 9.87631 16.4475 9.87545 16.4623C9.8755 16.4759 9.87271 16.4894 9.86725 16.5019C9.86179 16.5144 9.85378 16.5256 9.84374 16.5348C9.8337 16.544 9.82184 16.551 9.80893 16.5554C9.79602 16.5597 9.78235 16.5613 9.76878 16.5601C9.74285 16.5601 9.71798 16.5498 9.69964 16.5315C9.6813 16.5131 9.671 16.4882 9.671 16.4623C9.66553 16.448 9.66553 16.4322 9.671 16.4179H9.00434C9.00981 16.4322 9.00981 16.448 9.00434 16.4623C9.00439 16.4759 9.0016 16.4894 8.99614 16.5019C8.99068 16.5144 8.98267 16.5256 8.97263 16.5348C8.96259 16.544 8.95073 16.551 8.93782 16.5554C8.92491 16.5597 8.91124 16.5613 8.89767 16.5601C8.87174 16.5601 8.84687 16.5498 8.82853 16.5315C8.81019 16.5131 8.79989 16.4882 8.79989 16.4623C8.79442 16.448 8.79442 16.4322 8.79989 16.4179H8.17767C8.17767 16.4179 8.17767 16.4179 8.17767 16.4623C8.18305 16.4833 8.18355 16.5053 8.17914 16.5265C8.17474 16.5477 8.16553 16.5677 8.15224 16.5848C8.13894 16.6019 8.12191 16.6158 8.10244 16.6253C8.08297 16.6349 8.06157 16.6398 8.03989 16.6398C8.01821 16.6398 7.99682 16.6349 7.97734 16.6253C7.95787 16.6158 7.94084 16.6019 7.92754 16.5848C7.91425 16.5677 7.90505 16.5477 7.90064 16.5265C7.89623 16.5053 7.89674 16.4833 7.90211 16.4623C7.89792 16.4478 7.89792 16.4324 7.90211 16.4179H7.39545V16.4623C7.39545 16.4845 7.39108 16.5065 7.38259 16.5269C7.3741 16.5474 7.36166 16.5661 7.34598 16.5817C7.3303 16.5974 7.31168 16.6099 7.29119 16.6184C7.2707 16.6268 7.24874 16.6312 7.22656 16.6312C7.20438 16.6312 7.18242 16.6268 7.16193 16.6184C7.14144 16.6099 7.12282 16.5974 7.10714 16.5817C7.09145 16.5661 7.07901 16.5474 7.07053 16.5269C7.06204 16.5065 7.05767 16.4845 7.05767 16.4623V16.4179H6.57767V16.4623C6.57767 16.4892 6.57238 16.5158 6.56211 16.5406C6.55183 16.5654 6.53677 16.5879 6.51779 16.6069C6.4988 16.6259 6.47627 16.6409 6.45146 16.6512C6.42666 16.6615 6.40007 16.6668 6.37322 16.6668C6.34638 16.6668 6.31979 16.6615 6.29499 16.6512C6.27018 16.6409 6.24764 16.6259 6.22866 16.6069C6.20968 16.5879 6.19462 16.5654 6.18434 16.5406C6.17407 16.5158 6.16878 16.4892 6.16878 16.4623C6.16458 16.4478 6.16458 16.4324 6.16878 16.4179H5.75989V16.4623C5.75989 16.526 5.73461 16.587 5.6896 16.632C5.64459 16.677 5.58354 16.7023 5.51989 16.7023C5.45624 16.7023 5.39519 16.677 5.35019 16.632C5.30518 16.587 5.27989 16.526 5.27989 16.4623V16.4179H4.94211V16.4623C4.94331 16.4992 4.93706 16.536 4.92375 16.5705C4.91043 16.605 4.89032 16.6364 4.86462 16.6629C4.83891 16.6895 4.80813 16.7106 4.7741 16.725C4.74008 16.7394 4.7035 16.7468 4.66656 16.7468C4.59267 16.7445 4.52258 16.7135 4.47115 16.6604C4.41971 16.6073 4.39097 16.5362 4.391 16.4623C4.391 16.4623 4.391 16.4623 4.391 16.4179H4.12434C4.12853 16.4324 4.12853 16.4478 4.12434 16.4623C4.12434 16.5448 4.09156 16.624 4.03321 16.6823C3.97487 16.7406 3.89574 16.7734 3.81322 16.7734C3.73071 16.7734 3.65158 16.7406 3.59324 16.6823C3.53489 16.624 3.50211 16.5448 3.50211 16.4623V16.4179H3.30656C3.30656 16.4179 3.30656 16.4179 3.30656 16.4623C3.30659 16.5551 3.27035 16.6442 3.20558 16.7106C3.14081 16.7771 3.05264 16.8156 2.95989 16.8179C2.91361 16.8179 2.86779 16.8086 2.82514 16.7907C2.78249 16.7727 2.74387 16.7464 2.71156 16.7132C2.67925 16.6801 2.65391 16.6408 2.63702 16.5977C2.62013 16.5546 2.61204 16.5086 2.61322 16.4623V16.4179L2.55989 16.4357ZM9.77767 17.5023C9.73995 17.5023 9.70377 17.4873 9.6771 17.4607C9.65043 17.434 9.63545 17.3978 9.63545 17.3601C9.63545 17.3224 9.65043 17.2862 9.6771 17.2595C9.70377 17.2329 9.73995 17.2179 9.77767 17.2179C9.81539 17.2179 9.85156 17.2329 9.87824 17.2595C9.90491 17.2862 9.91989 17.3224 9.91989 17.3601C9.91989 17.3978 9.90491 17.434 9.87824 17.4607C9.85156 17.4873 9.81539 17.5023 9.77767 17.5023ZM8.08878 17.2179C8.1265 17.2179 8.16267 17.2329 8.18935 17.2595C8.21602 17.2862 8.231 17.3224 8.231 17.3601C8.231 17.3978 8.21602 17.434 8.18935 17.4607C8.16267 17.4873 8.1265 17.5023 8.08878 17.5023C8.05106 17.5023 8.01489 17.4873 7.98821 17.4607C7.96154 17.434 7.94656 17.3978 7.94656 17.3601C7.94656 17.3224 7.96154 17.2862 7.98821 17.2595C8.01489 17.2329 8.05106 17.2179 8.08878 17.2179ZM8.97767 17.2179C9.01539 17.2179 9.05156 17.2329 9.07823 17.2595C9.10491 17.2862 9.11989 17.3224 9.11989 17.3601C9.11989 17.3978 9.10491 17.434 9.07823 17.4607C9.05156 17.4873 9.01539 17.5023 8.97767 17.5023C8.93995 17.5023 8.90377 17.4873 8.8771 17.4607C8.85043 17.434 8.83545 17.3978 8.83545 17.3601C8.83545 17.3224 8.85043 17.2862 8.8771 17.2595C8.90377 17.2329 8.93995 17.2179 8.97767 17.2179ZM7.271 17.5379C7.23552 17.5396 7.20031 17.5308 7.16993 17.5123C7.13955 17.4939 7.11539 17.4668 7.10056 17.4345C7.08573 17.4022 7.08092 17.3662 7.08674 17.3312C7.09256 17.2961 7.10875 17.2636 7.13322 17.2379C7.1577 17.2121 7.18933 17.1943 7.22403 17.1867C7.25874 17.1791 7.29493 17.182 7.32793 17.1952C7.36094 17.2083 7.38924 17.2311 7.4092 17.2605C7.42916 17.2899 7.43985 17.3246 7.43989 17.3601C7.44232 17.3873 7.43812 17.4147 7.42765 17.4399C7.41719 17.4651 7.40076 17.4874 7.37979 17.5049C7.35882 17.5223 7.33392 17.5345 7.30724 17.5402C7.28055 17.546 7.25287 17.5452 7.22656 17.5379H7.271ZM6.38211 17.5379C6.33959 17.5396 6.2975 17.5287 6.26127 17.5063C6.22504 17.484 6.19632 17.4513 6.1788 17.4125C6.16128 17.3737 6.15577 17.3306 6.16297 17.2886C6.17017 17.2467 6.18975 17.2078 6.2192 17.1771C6.24865 17.1464 6.28662 17.1252 6.32823 17.1162C6.36983 17.1072 6.41317 17.1109 6.45268 17.1267C6.49218 17.1426 6.52604 17.1699 6.54989 17.2051C6.57375 17.2404 6.58652 17.282 6.58656 17.3245C6.59166 17.3546 6.59024 17.3855 6.58239 17.415C6.57454 17.4445 6.56045 17.472 6.54107 17.4956C6.52169 17.5192 6.49747 17.5383 6.47005 17.5518C6.44262 17.5652 6.41264 17.5726 6.38211 17.5734V17.5379ZM5.49322 17.0756C5.55768 17.078 5.61873 17.1052 5.6635 17.1516C5.70827 17.198 5.73327 17.26 5.73322 17.3245C5.73322 17.3882 5.70794 17.4492 5.66293 17.4942C5.61792 17.5393 5.55688 17.5645 5.49322 17.5645C5.42957 17.5645 5.36853 17.5393 5.32352 17.4942C5.27851 17.4492 5.25322 17.3882 5.25322 17.3245C5.26208 17.2617 5.29463 17.2046 5.3442 17.1649C5.39377 17.1253 5.45662 17.1061 5.51989 17.1112L5.49322 17.0756ZM4.60434 17.0756C4.66094 17.0739 4.71678 17.089 4.76471 17.1192C4.81264 17.1494 4.85048 17.1931 4.87338 17.2449C4.89628 17.2967 4.90319 17.3542 4.89324 17.4099C4.88329 17.4657 4.85693 17.5172 4.81752 17.5579C4.77812 17.5985 4.72747 17.6265 4.67207 17.6382C4.61666 17.65 4.55902 17.6449 4.50653 17.6236C4.45403 17.6024 4.40907 17.566 4.3774 17.519C4.34574 17.4721 4.32881 17.4167 4.32878 17.3601C4.32627 17.3173 4.33379 17.2745 4.35073 17.2351C4.36767 17.1957 4.39357 17.1608 4.42637 17.1332C4.45917 17.1056 4.49796 17.086 4.53965 17.076C4.58135 17.066 4.6248 17.0659 4.66656 17.0756H4.60434ZM3.71545 17.0756C3.77909 17.0739 3.84181 17.0911 3.89559 17.1252C3.94937 17.1593 3.99176 17.2086 4.01735 17.2669C4.04294 17.3252 4.05056 17.3898 4.03923 17.4525C4.02791 17.5151 3.99815 17.5729 3.95377 17.6186C3.9094 17.6642 3.85241 17.6956 3.79011 17.7087C3.7278 17.7218 3.66301 17.716 3.60402 17.692C3.54503 17.6681 3.49452 17.6271 3.45894 17.5743C3.42337 17.5215 3.40436 17.4593 3.40434 17.3957C3.4043 17.3123 3.4368 17.2322 3.4949 17.1725C3.553 17.1127 3.63213 17.078 3.71545 17.0756ZM2.791 17.7779C2.791 17.8312 2.791 17.8845 2.791 17.9468C2.83509 17.9388 2.88025 17.9388 2.92434 17.9468C3.00441 17.9534 3.08006 17.9862 3.13951 18.0403C3.19897 18.0943 3.2389 18.1665 3.25309 18.2456C3.26729 18.3247 3.25495 18.4062 3.218 18.4776C3.18105 18.5489 3.12156 18.6061 3.04878 18.6401C3.21591 19.0232 3.42456 19.3869 3.671 19.7245V19.769H3.82211C3.90543 19.7713 3.98456 19.806 4.04266 19.8658C4.10077 19.9256 4.13326 20.0056 4.13322 20.089C4.14163 20.133 4.14163 20.1783 4.13322 20.2223C4.28421 20.3911 4.44446 20.5513 4.61322 20.7023H4.69322C4.73017 20.7023 4.76674 20.7097 4.80077 20.7241C4.83479 20.7385 4.86558 20.7596 4.89128 20.7861C4.91699 20.8127 4.9371 20.8441 4.95041 20.8786C4.96373 20.913 4.96997 20.9498 4.96878 20.9868C5.33203 21.2645 5.72566 21.5001 6.14211 21.689C6.16642 21.6414 6.20328 21.6013 6.24871 21.5731C6.29414 21.5449 6.34642 21.5296 6.39989 21.529C6.44151 21.529 6.4827 21.5373 6.52104 21.5535C6.55937 21.5697 6.59407 21.5934 6.62308 21.6232C6.65209 21.6531 6.67482 21.6884 6.68992 21.7272C6.70502 21.766 6.71219 21.8074 6.711 21.849V21.9023L6.96878 21.9823C6.95968 21.9383 6.95968 21.893 6.96878 21.849C6.96878 21.7665 7.00156 21.6873 7.0599 21.629C7.11825 21.5707 7.19738 21.5379 7.27989 21.5379C7.3624 21.5379 7.44154 21.5707 7.49988 21.629C7.55822 21.6873 7.591 21.7665 7.591 21.849C7.59015 21.8941 7.58027 21.9386 7.56195 21.9798C7.54363 22.021 7.51724 22.0581 7.48434 22.089C7.671 22.089 7.85767 22.1423 8.04434 22.1601C7.98644 22.1451 7.93389 22.1143 7.89264 22.071C7.8514 22.0277 7.82311 21.9737 7.81098 21.9151C7.79886 21.8566 7.80339 21.7958 7.82405 21.7397C7.84471 21.6836 7.88068 21.6344 7.92788 21.5977C7.97508 21.561 8.03162 21.5382 8.09109 21.532C8.15057 21.5258 8.21059 21.5364 8.26436 21.5625C8.31813 21.5887 8.36349 21.6294 8.3953 21.68C8.42711 21.7307 8.4441 21.7892 8.44434 21.849C8.44365 21.9249 8.41673 21.9983 8.36812 22.0566C8.31951 22.1149 8.25222 22.1546 8.17767 22.169H8.88878C8.82319 22.148 8.76614 22.1063 8.7261 22.0503C8.68606 21.9942 8.66518 21.9267 8.66656 21.8579C8.66716 21.8023 8.68261 21.748 8.71131 21.7004C8.74001 21.6529 8.78091 21.6139 8.82977 21.5875C8.87863 21.5611 8.93366 21.5483 8.98915 21.5503C9.04465 21.5524 9.09858 21.5693 9.14536 21.5992C9.19213 21.6291 9.23004 21.671 9.25515 21.7206C9.28025 21.7701 9.29165 21.8255 9.28814 21.8809C9.28464 21.9363 9.26636 21.9898 9.23521 22.0357C9.20406 22.0817 9.16117 22.1185 9.111 22.1423L9.591 22.0712C9.54276 22.0102 9.51479 21.9356 9.511 21.8579C9.511 21.7754 9.54378 21.6962 9.60212 21.6379C9.66047 21.5795 9.7396 21.5468 9.82211 21.5468C9.90463 21.5468 9.98376 21.5795 10.0421 21.6379C10.1004 21.6962 10.1332 21.7754 10.1332 21.8579C10.1383 21.8813 10.1383 21.9055 10.1332 21.929C11.0751 21.6134 11.9239 21.0689 12.6034 20.3444C13.2829 19.6199 13.7719 18.738 14.0266 17.7779H2.791ZM10.0177 20.0445C10.0177 20.1082 9.99238 20.1692 9.94737 20.2142C9.90237 20.2593 9.84132 20.2845 9.77767 20.2845C9.71402 20.2845 9.65297 20.2593 9.60796 20.2142C9.56295 20.1692 9.53767 20.1082 9.53767 20.0445C9.53767 20.013 9.54388 19.9818 9.55594 19.9527C9.568 19.9236 9.58568 19.8971 9.60796 19.8748C9.63025 19.8525 9.65671 19.8349 9.68582 19.8228C9.71494 19.8107 9.74615 19.8045 9.77767 19.8045C9.80919 19.8045 9.84039 19.8107 9.86951 19.8228C9.89863 19.8349 9.92509 19.8525 9.94737 19.8748C9.96966 19.8971 9.98734 19.9236 9.9994 19.9527C10.0115 19.9818 10.0177 20.013 10.0177 20.0445ZM9.77767 19.3423C9.75006 19.3423 9.72272 19.3368 9.69732 19.3259C9.67192 19.3151 9.64897 19.2993 9.62987 19.2793C9.61076 19.2594 9.59589 19.2358 9.58616 19.21C9.57642 19.1841 9.57202 19.1566 9.57323 19.129C9.57323 19.0748 9.59476 19.0228 9.6331 18.9844C9.67145 18.9461 9.72345 18.9245 9.77767 18.9245C9.83189 18.9245 9.88389 18.9461 9.92223 18.9844C9.96057 19.0228 9.98211 19.0748 9.98211 19.129C9.98331 19.1566 9.97891 19.1841 9.96918 19.21C9.95944 19.2358 9.94457 19.2594 9.92547 19.2793C9.90636 19.2993 9.88342 19.3151 9.85802 19.3259C9.83261 19.3368 9.80528 19.3423 9.77767 19.3423ZM9.77767 18.4534C9.73052 18.4534 9.6853 18.4347 9.65196 18.4014C9.61862 18.368 9.59989 18.3228 9.59989 18.2757C9.59989 18.2285 9.61862 18.1833 9.65196 18.1499C9.6853 18.1166 9.73052 18.0979 9.77767 18.0979C9.82482 18.0979 9.87004 18.1166 9.90338 18.1499C9.93672 18.1833 9.95545 18.2285 9.95545 18.2757C9.95545 18.3228 9.93672 18.368 9.90338 18.4014C9.87004 18.4347 9.82482 18.4534 9.77767 18.4534ZM9.77767 21.2179C9.70378 21.2156 9.63369 21.1846 9.58226 21.1315C9.53082 21.0784 9.50208 21.0074 9.50211 20.9334C9.50211 20.8603 9.53115 20.7903 9.58282 20.7386C9.6345 20.6869 9.70459 20.6579 9.77767 20.6579C9.85075 20.6579 9.92084 20.6869 9.97252 20.7386C10.0242 20.7903 10.0532 20.8603 10.0532 20.9334C10.0467 21.0026 10.0151 21.0671 9.96434 21.1146C9.91357 21.1621 9.84717 21.1893 9.77767 21.1912V21.2179ZM8.88878 21.2179C8.81489 21.2156 8.74481 21.1846 8.69337 21.1315C8.64193 21.0784 8.61319 21.0074 8.61322 20.9334C8.60814 20.8944 8.61149 20.8547 8.62304 20.817C8.6346 20.7794 8.65408 20.7446 8.6802 20.7152C8.70631 20.6857 8.73844 20.6621 8.77442 20.6461C8.8104 20.6301 8.8494 20.622 8.88878 20.6223C8.92573 20.6223 8.9623 20.6297 8.99633 20.6441C9.03035 20.6585 9.06113 20.6796 9.08684 20.7061C9.11255 20.7327 9.13265 20.7641 9.14597 20.7986C9.15928 20.833 9.16553 20.8698 9.16434 20.9068C9.16553 20.9437 9.15928 20.9805 9.14597 21.0149C9.13265 21.0494 9.11255 21.0808 9.08684 21.1074C9.06113 21.1339 9.03035 21.155 8.99633 21.1694C8.9623 21.1838 8.92573 21.1912 8.88878 21.1912V21.2179ZM8.88878 18.0979C8.92394 18.0979 8.95831 18.1083 8.98755 18.1278C9.01678 18.1474 9.03957 18.1751 9.05303 18.2076C9.06648 18.2401 9.07 18.2758 9.06314 18.3103C9.05628 18.3448 9.03935 18.3765 9.01449 18.4014C8.98962 18.4262 8.95795 18.4432 8.92346 18.45C8.88898 18.4569 8.85323 18.4534 8.82075 18.4399C8.78826 18.4264 8.7605 18.4037 8.74096 18.3744C8.72143 18.3452 8.711 18.3108 8.711 18.2757C8.70537 18.246 8.7074 18.2153 8.7169 18.1866C8.7264 18.1579 8.74305 18.1321 8.7653 18.1117C8.78754 18.0912 8.81463 18.0768 8.84402 18.0697C8.8734 18.0626 8.9041 18.0631 8.93322 18.0712L8.88878 18.0979ZM8.88878 18.9868C8.9438 18.9891 8.99581 19.0125 9.03392 19.0523C9.07202 19.0921 9.09327 19.145 9.09322 19.2001C9.09442 19.2277 9.09002 19.2552 9.08029 19.2811C9.07055 19.3069 9.05569 19.3305 9.03658 19.3504C9.01747 19.3704 8.99453 19.3862 8.96913 19.3971C8.94372 19.4079 8.91639 19.4135 8.88878 19.4134C8.86117 19.4135 8.83384 19.4079 8.80843 19.3971C8.78303 19.3862 8.76009 19.3704 8.74098 19.3504C8.72187 19.3305 8.70701 19.3069 8.69727 19.2811C8.68753 19.2552 8.68314 19.2277 8.68434 19.2001C8.66635 19.1638 8.65953 19.123 8.66474 19.0829C8.66995 19.0428 8.68697 19.0051 8.71362 18.9746C8.74028 18.9441 8.77537 18.9223 8.81447 18.9118C8.85356 18.9013 8.8949 18.9026 8.93322 18.9157L8.88878 18.9868ZM8.88878 19.8757C8.95324 19.878 9.01428 19.9052 9.05905 19.9516C9.10382 19.998 9.12882 20.06 9.12878 20.1245C9.12878 20.1882 9.10349 20.2492 9.05849 20.2942C9.01348 20.3393 8.95243 20.3645 8.88878 20.3645C8.82513 20.3645 8.76408 20.3393 8.71907 20.2942C8.67407 20.2492 8.64878 20.1882 8.64878 20.1245C8.63013 20.0854 8.62201 20.0421 8.62523 19.9989C8.62845 19.9557 8.64289 19.9141 8.66714 19.8782C8.69138 19.8422 8.72458 19.8133 8.76346 19.7941C8.80233 19.775 8.84553 19.7663 8.88878 19.769V19.8757ZM8.04434 18.1779C8.07982 18.1761 8.11503 18.185 8.14541 18.2034C8.17579 18.2218 8.19995 18.2489 8.21478 18.2812C8.22961 18.3135 8.23442 18.3495 8.2286 18.3846C8.22278 18.4196 8.20658 18.4521 8.18211 18.4779C8.15764 18.5036 8.12601 18.5215 8.09131 18.5291C8.0566 18.5367 8.02041 18.5337 7.98741 18.5206C7.9544 18.5074 7.92609 18.4847 7.90614 18.4553C7.88618 18.4259 7.87549 18.3912 7.87545 18.3556C7.83773 18.3285 7.81232 18.2876 7.80482 18.2417C7.79732 18.1959 7.80834 18.1489 7.83545 18.1112C7.86256 18.0735 7.90354 18.0481 7.94938 18.0406C7.99523 18.0331 8.04217 18.0441 8.07989 18.0712L8.04434 18.1779ZM8.04434 19.0668C8.07195 19.0667 8.09928 19.0723 8.12468 19.0831C8.15008 19.094 8.17303 19.1098 8.19214 19.1298C8.21124 19.1497 8.22611 19.1733 8.23585 19.1991C8.24558 19.225 8.24998 19.2525 8.24878 19.2801C8.24878 19.3343 8.22724 19.3863 8.1889 19.4247C8.15056 19.463 8.09856 19.4845 8.04434 19.4845C7.99011 19.4845 7.93811 19.463 7.89977 19.4247C7.86143 19.3863 7.83989 19.3343 7.83989 19.2801C7.79156 19.2483 7.75786 19.1985 7.74619 19.1419C7.73452 19.0852 7.74584 19.0262 7.77767 18.9779C7.80949 18.9295 7.85922 18.8958 7.91589 18.8842C7.97257 18.8725 8.03156 18.8838 8.07989 18.9157L8.04434 19.0668ZM8.04434 19.9557C8.10964 19.9579 8.17167 19.9848 8.21787 20.031C8.26408 20.0772 8.29101 20.1392 8.29322 20.2045C8.30012 20.2405 8.29898 20.2776 8.28989 20.3131C8.28079 20.3486 8.26397 20.3817 8.24061 20.4099C8.21726 20.4382 8.18796 20.4609 8.1548 20.4765C8.12163 20.4922 8.08543 20.5003 8.04878 20.5003C8.01213 20.5003 7.97593 20.4922 7.94276 20.4765C7.9096 20.4609 7.8803 20.4382 7.85695 20.4099C7.83359 20.3817 7.81677 20.3486 7.80767 20.3131C7.79858 20.2776 7.79744 20.2405 7.80434 20.2045C7.77574 20.187 7.75087 20.1641 7.73114 20.1369C7.71142 20.1098 7.69724 20.0791 7.6894 20.0465C7.67356 19.9806 7.68453 19.9112 7.71989 19.8534C7.75525 19.7957 7.81211 19.7543 7.87796 19.7385C7.9438 19.7227 8.01324 19.7336 8.071 19.769L8.04434 19.9557ZM8.04434 20.8445C8.08128 20.8445 8.11786 20.8519 8.15188 20.8663C8.18591 20.8807 8.21669 20.9018 8.24239 20.9284C8.2681 20.9549 8.28821 20.9863 8.30152 21.0208C8.31484 21.0553 8.32108 21.0921 8.31989 21.129C8.31993 21.2029 8.29118 21.2739 8.23975 21.327C8.18831 21.3801 8.11822 21.4111 8.04434 21.4134C8.00739 21.4134 7.97082 21.406 7.93679 21.3916C7.90277 21.3772 7.87198 21.3561 7.84628 21.3296C7.82057 21.3031 7.80046 21.2716 7.78715 21.2372C7.77383 21.2027 7.76759 21.1659 7.76878 21.129C7.70159 21.0877 7.65354 21.0215 7.63521 20.9448C7.61687 20.8681 7.62975 20.7873 7.671 20.7201C7.71226 20.6529 7.77851 20.6049 7.8552 20.5865C7.93188 20.5682 8.0127 20.5811 8.07989 20.6223L8.04434 20.8445ZM7.35989 18.4712C7.3611 18.4941 7.35762 18.517 7.34968 18.5386C7.34173 18.5601 7.32949 18.5798 7.31368 18.5964C7.29788 18.6131 7.27885 18.6263 7.25775 18.6353C7.23666 18.6444 7.21395 18.649 7.191 18.649C7.14385 18.649 7.09863 18.6303 7.06529 18.5969C7.03195 18.5636 7.01322 18.5184 7.01322 18.4712C7.01322 18.4241 7.03195 18.3788 7.06529 18.3455C7.09863 18.3122 7.14385 18.2934 7.191 18.2934C7.21513 18.2641 7.24842 18.2438 7.28551 18.2357C7.32261 18.2277 7.36133 18.2323 7.39545 18.249L7.35989 18.4712ZM7.19989 19.1379C7.25492 19.1402 7.30692 19.1637 7.34503 19.2034C7.38313 19.2432 7.40438 19.2961 7.40434 19.3512C7.41077 19.3822 7.41021 19.4143 7.4027 19.4451C7.39519 19.4759 7.38091 19.5046 7.3609 19.5292C7.3409 19.5538 7.31567 19.5736 7.28705 19.5872C7.25843 19.6008 7.22714 19.6079 7.19545 19.6079C7.16376 19.6079 7.13246 19.6008 7.10384 19.5872C7.07522 19.5736 7.04999 19.5538 7.02999 19.5292C7.00998 19.5046 6.99571 19.4759 6.98819 19.4451C6.98068 19.4143 6.98012 19.3822 6.98656 19.3512C6.95796 19.3349 6.93286 19.313 6.91269 19.287C6.89252 19.261 6.87768 19.2312 6.86901 19.1994C6.86035 19.1676 6.85803 19.1345 6.86218 19.1018C6.86633 19.0691 6.87688 19.0376 6.89322 19.009C6.90957 18.9804 6.93138 18.9553 6.95742 18.9351C6.98347 18.9149 7.01323 18.9001 7.04501 18.8914C7.07678 18.8828 7.10996 18.8805 7.14263 18.8846C7.17531 18.8888 7.20685 18.8993 7.23545 18.9157L7.19989 19.1379ZM7.19989 20.0268C7.26435 20.0291 7.32539 20.0563 7.37016 20.1027C7.41493 20.1492 7.43993 20.2112 7.43989 20.2757C7.43989 20.3393 7.41461 20.4003 7.3696 20.4454C7.32459 20.4904 7.26354 20.5157 7.19989 20.5157C7.13624 20.5157 7.07519 20.4904 7.03019 20.4454C6.98518 20.4003 6.95989 20.3393 6.95989 20.2757C6.8927 20.2403 6.84231 20.1797 6.81981 20.1072C6.79731 20.0347 6.80453 19.9562 6.83989 19.889C6.87525 19.8218 6.93586 19.7714 7.00837 19.7489C7.08089 19.7264 7.15937 19.7336 7.22656 19.769L7.19989 20.0268ZM7.19989 20.9157C7.23684 20.9156 7.27341 20.923 7.30744 20.9374C7.34146 20.9518 7.37224 20.9729 7.39795 20.9995C7.42366 21.026 7.44377 21.0574 7.45708 21.0919C7.47039 21.1264 7.47664 21.1632 7.47545 21.2001C7.47545 21.2732 7.44642 21.3433 7.39474 21.3949C7.34306 21.4466 7.27297 21.4757 7.19989 21.4757C7.12681 21.4757 7.05672 21.4466 7.00504 21.3949C6.95337 21.3433 6.92434 21.2732 6.92434 21.2001C6.84772 21.16 6.79016 21.0911 6.76432 21.0086C6.73848 20.9261 6.74648 20.8367 6.78656 20.7601C6.82664 20.6835 6.89551 20.6259 6.97802 20.6001C7.06054 20.5742 7.14994 20.5822 7.22656 20.6223L7.19989 20.9157ZM6.55989 19.4223C6.55989 19.4492 6.5546 19.4757 6.54433 19.5006C6.53405 19.5254 6.519 19.5479 6.50001 19.5669C6.48103 19.5859 6.45849 19.6009 6.43368 19.6112C6.40888 19.6215 6.38229 19.6268 6.35545 19.6268C6.3286 19.6268 6.30201 19.6215 6.27721 19.6112C6.2524 19.6009 6.22987 19.5859 6.21088 19.5669C6.1919 19.5479 6.17684 19.5254 6.16656 19.5006C6.15629 19.4757 6.151 19.4492 6.151 19.4223C6.151 19.3955 6.15629 19.3689 6.16656 19.3441C6.17684 19.3193 6.1919 19.2967 6.21088 19.2778C6.22987 19.2588 6.2524 19.2437 6.27721 19.2334C6.30201 19.2232 6.3286 19.2179 6.35545 19.2179C6.38229 19.2179 6.40888 19.2232 6.43368 19.2334C6.45849 19.2437 6.48103 19.2588 6.50001 19.2778C6.519 19.2967 6.53405 19.3193 6.54433 19.3441C6.5546 19.3689 6.55989 19.3955 6.55989 19.4223ZM6.35545 18.7557C6.31292 18.7574 6.27083 18.7464 6.2346 18.7241C6.19837 18.7018 6.16965 18.6691 6.15213 18.6303C6.13461 18.5915 6.1291 18.5484 6.1363 18.5064C6.1435 18.4645 6.16308 18.4256 6.19253 18.3949C6.22198 18.3642 6.25995 18.3429 6.30156 18.334C6.34317 18.325 6.38651 18.3287 6.42601 18.3445C6.46551 18.3604 6.49937 18.3877 6.52323 18.4229C6.54709 18.4582 6.55985 18.4998 6.55989 18.5423C6.52594 18.5448 6.4919 18.5388 6.46085 18.5249C6.42981 18.5109 6.40274 18.4894 6.38211 18.4623L6.35545 18.7557ZM6.35545 20.0623C6.4199 20.0646 6.48095 20.0919 6.52572 20.1383C6.57049 20.1847 6.59549 20.2467 6.59545 20.3112C6.59545 20.3749 6.57016 20.4359 6.52515 20.4809C6.48014 20.5259 6.4191 20.5512 6.35545 20.5512C6.2918 20.5512 6.23075 20.5259 6.18574 20.4809C6.14073 20.4359 6.11545 20.3749 6.11545 20.3112C6.04354 20.277 5.98816 20.2157 5.96149 20.1407C5.93482 20.0656 5.93904 19.9831 5.97322 19.9112C6.00741 19.8393 6.06875 19.7839 6.14377 19.7573C6.21878 19.7306 6.30132 19.7348 6.37322 19.769L6.35545 20.0623ZM6.35545 20.9512C6.39239 20.9512 6.42897 20.9586 6.46299 20.973C6.49702 20.9874 6.5278 21.0085 6.5535 21.035C6.57921 21.0616 6.59932 21.093 6.61263 21.1275C6.62595 21.1619 6.63219 21.1987 6.631 21.2357C6.631 21.3087 6.60197 21.3788 6.55029 21.4305C6.49862 21.4822 6.42853 21.5112 6.35545 21.5112C6.28237 21.5112 6.21228 21.4822 6.1606 21.4305C6.10892 21.3788 6.07989 21.3087 6.07989 21.2357C5.99856 21.1968 5.93601 21.1271 5.906 21.0421C5.876 20.9571 5.88099 20.8636 5.91989 20.7823C5.95879 20.701 6.0284 20.6384 6.11342 20.6084C6.19844 20.5784 6.29189 20.5834 6.37322 20.6223L6.35545 20.9512ZM5.46656 18.329C5.49884 18.329 5.53079 18.3355 5.5605 18.3481C5.59022 18.3607 5.61708 18.3792 5.63949 18.4024C5.66189 18.4256 5.67938 18.4531 5.69091 18.4833C5.70243 18.5134 5.70775 18.5456 5.70656 18.5779C5.70656 18.6415 5.68127 18.7026 5.63626 18.7476C5.59125 18.7926 5.53021 18.8179 5.46656 18.8179C5.40291 18.8179 5.34186 18.7926 5.29685 18.7476C5.25184 18.7026 5.22656 18.6415 5.22656 18.5779C5.14994 18.539 5.09191 18.4712 5.06524 18.3896C5.03857 18.3079 5.04544 18.2189 5.08434 18.1423C5.12323 18.0657 5.19098 18.0077 5.27266 17.981C5.35434 17.9543 5.44327 17.9612 5.51989 18.0001L5.46656 18.329ZM5.46656 19.2179C5.51852 19.2143 5.57035 19.2266 5.61521 19.253C5.66007 19.2795 5.69586 19.319 5.71786 19.3662C5.73986 19.4134 5.74704 19.4662 5.73845 19.5175C5.72987 19.5689 5.70592 19.6165 5.66976 19.654C5.63361 19.6915 5.58694 19.7171 5.53591 19.7276C5.48488 19.738 5.43188 19.7328 5.38389 19.7125C5.33591 19.6922 5.29519 19.6579 5.26711 19.614C5.23902 19.5702 5.22488 19.5188 5.22656 19.4668C5.14876 19.4279 5.0896 19.3597 5.0621 19.2771C5.03459 19.1946 5.04099 19.1046 5.07989 19.0268C5.11879 18.949 5.187 18.8898 5.26952 18.8623C5.35203 18.8348 5.44209 18.8412 5.51989 18.8801L5.46656 19.2179ZM5.46656 20.1068C5.53101 20.1091 5.59206 20.1363 5.63683 20.1827C5.6816 20.2292 5.7066 20.2912 5.70656 20.3556C5.70656 20.4193 5.68127 20.4803 5.63626 20.5254C5.59125 20.5704 5.53021 20.5957 5.46656 20.5957C5.40291 20.5957 5.34186 20.5704 5.29685 20.5254C5.25184 20.4803 5.22656 20.4193 5.22656 20.3556C5.14876 20.3168 5.0896 20.2485 5.0621 20.166C5.03459 20.0835 5.04099 19.9934 5.07989 19.9157C5.11879 19.8379 5.187 19.7787 5.26952 19.7512C5.35203 19.7237 5.44209 19.7301 5.51989 19.769L5.46656 20.1068ZM5.46656 20.9957C5.5035 20.9956 5.54008 21.003 5.5741 21.0174C5.60813 21.0318 5.63891 21.0529 5.66462 21.0795C5.69032 21.106 5.71043 21.1374 5.72375 21.1719C5.73706 21.2064 5.74331 21.2432 5.74211 21.2801C5.74211 21.3532 5.71308 21.4233 5.66141 21.4749C5.60973 21.5266 5.53964 21.5557 5.46656 21.5557C5.39348 21.5557 5.32339 21.5266 5.27171 21.4749C5.22003 21.4233 5.191 21.3532 5.191 21.2801C5.10378 21.2365 5.03745 21.16 5.00661 21.0675C4.97577 20.975 4.98294 20.874 5.02656 20.7868C5.07017 20.6995 5.14665 20.6332 5.23917 20.6024C5.33168 20.5715 5.43266 20.5787 5.51989 20.6223L5.46656 20.9957ZM4.57767 18.329C4.63427 18.3272 4.69011 18.3424 4.73805 18.3725C4.78598 18.4027 4.82381 18.4465 4.84671 18.4983C4.86961 18.5501 4.87653 18.6075 4.86658 18.6633C4.85663 18.719 4.83026 18.7705 4.79086 18.8112C4.75145 18.8519 4.70081 18.8799 4.6454 18.8916C4.59 18.9033 4.53235 18.8982 4.47986 18.877C4.42736 18.8557 4.3824 18.8193 4.35074 18.7723C4.31907 18.7254 4.30214 18.6701 4.30211 18.6134C4.21607 18.5651 4.15274 18.4846 4.12607 18.3896C4.0994 18.2945 4.11156 18.1928 4.15989 18.1068C4.20822 18.0207 4.28875 17.9574 4.38377 17.9307C4.47879 17.904 4.58051 17.9162 4.66656 17.9645L4.57767 18.329ZM4.57767 19.2179C4.63669 19.2143 4.6954 19.2287 4.74612 19.2591C4.79683 19.2895 4.83718 19.3345 4.86187 19.3882C4.88655 19.4419 4.89443 19.5018 4.88446 19.5601C4.8745 19.6184 4.84715 19.6723 4.80601 19.7148C4.76487 19.7572 4.71186 19.7863 4.65393 19.7981C4.596 19.8099 4.53585 19.8039 4.48137 19.781C4.42689 19.758 4.38062 19.7191 4.34863 19.6694C4.31664 19.6196 4.30043 19.5614 4.30211 19.5023C4.25892 19.4784 4.22087 19.4462 4.19012 19.4075C4.15938 19.3689 4.13654 19.3246 4.12293 19.2771C4.10931 19.2297 4.10517 19.18 4.11075 19.1309C4.11633 19.0819 4.13152 19.0344 4.15545 18.9912C4.20378 18.904 4.28478 18.8395 4.38063 18.812C4.42809 18.7984 4.47777 18.7943 4.52683 18.7998C4.57589 18.8054 4.62337 18.8206 4.66656 18.8445L4.57767 19.2179ZM4.57767 20.1068C4.63427 20.105 4.69011 20.1202 4.73805 20.1503C4.78598 20.1805 4.82381 20.2243 4.84671 20.2761C4.86961 20.3278 4.87653 20.3853 4.86658 20.441C4.85663 20.4968 4.83026 20.5483 4.79086 20.589C4.75145 20.6297 4.70081 20.6576 4.6454 20.6694C4.59 20.6811 4.53235 20.676 4.47986 20.6547C4.42736 20.6335 4.3824 20.5971 4.35074 20.5501C4.31907 20.5032 4.30214 20.4478 4.30211 20.3912C4.21489 20.3429 4.15043 20.2619 4.12293 20.166C4.09542 20.0702 4.10712 19.9673 4.15545 19.8801C4.20378 19.7929 4.28478 19.7284 4.38063 19.7009C4.47648 19.6734 4.57933 19.6851 4.66656 19.7334L4.57767 20.1068ZM3.68878 18.329C3.75242 18.3272 3.81514 18.3445 3.86892 18.3785C3.9227 18.4126 3.96509 18.4619 3.99068 18.5202C4.01627 18.5785 4.02389 18.6431 4.01257 18.7058C4.00124 18.7684 3.97149 18.8263 3.92711 18.8719C3.88273 18.9176 3.82574 18.9489 3.76344 18.962C3.70114 18.9751 3.63634 18.9693 3.57735 18.9454C3.51836 18.9214 3.46785 18.8805 3.43228 18.8277C3.39671 18.7749 3.37769 18.7126 3.37767 18.649C3.28219 18.59 3.21404 18.4956 3.1882 18.3864C3.16236 18.2772 3.18095 18.1622 3.23989 18.0668C3.29883 17.9713 3.39328 17.9031 3.50247 17.8773C3.61166 17.8515 3.72664 17.87 3.82211 17.929L3.68878 18.329ZM3.68878 19.2179C3.7721 19.2202 3.85123 19.2549 3.90933 19.3147C3.96743 19.3744 3.99992 19.4545 3.99989 19.5379C3.99989 19.6204 3.96711 19.6995 3.90877 19.7579C3.85042 19.8162 3.77129 19.849 3.68878 19.849C3.60627 19.849 3.52714 19.8162 3.46879 19.7579C3.41045 19.6995 3.37767 19.6204 3.37767 19.5379C3.37764 19.4545 3.41013 19.3744 3.46823 19.3147C3.52633 19.2549 3.60546 19.2202 3.68878 19.2179Z" fill="#BC9633"/>
<path d="M15.4043 17.6178V13.8489H17.8665V14.6755H16.2932V15.3067H17.6354V16.1333H16.2932V16.8H17.8665V17.6178H15.4043Z" fill="black"/>
<path d="M21.2086 17.6178V15.9201C21.2086 15.5912 20.9864 15.5201 20.8709 15.5201C20.7553 15.5201 20.5331 15.5912 20.5331 15.9201V17.6178H19.6975V15.9201C19.6975 15.5912 19.4753 15.5201 19.3598 15.5201C19.2442 15.5201 19.0309 15.5912 19.0309 15.9201V17.6178H18.1953V14.7734H19.0042V15.0045C19.0876 14.9194 19.1872 14.852 19.2971 14.8062C19.4071 14.7604 19.5251 14.7371 19.6442 14.7378C19.7712 14.733 19.8975 14.7577 20.0132 14.8102C20.129 14.8627 20.2309 14.9414 20.3109 15.0401C20.413 14.9405 20.5341 14.8625 20.6669 14.8106C20.7998 14.7587 20.9416 14.734 21.0842 14.7378C21.205 14.7324 21.3257 14.7517 21.4388 14.7945C21.5519 14.8373 21.655 14.9027 21.742 14.9867C21.8451 15.0937 21.9251 15.2206 21.9771 15.3598C22.0291 15.4989 22.0519 15.6473 22.0442 15.7956V17.6178H21.2086Z" fill="black"/>
<path d="M23.3066 17.6178C23.1913 17.6309 23.0745 17.6187 22.9643 17.582C22.8542 17.5454 22.7533 17.4853 22.6688 17.4058C22.5842 17.3263 22.5179 17.2293 22.4746 17.1217C22.4312 17.014 22.4118 16.8982 22.4177 16.7823V15.5467H22.2222V14.88H22.4711V14.0623H23.3066V14.88H23.7422V15.5467H23.2888V16.72C23.2859 16.7429 23.2883 16.7661 23.2958 16.7879C23.3032 16.8097 23.3156 16.8296 23.3319 16.8459C23.3482 16.8622 23.368 16.8745 23.3898 16.882C23.4116 16.8894 23.4349 16.8918 23.4577 16.8889H23.7244V17.6178H23.3066Z" fill="black"/>
<path d="M24.6845 16.48C24.6855 16.5419 24.6992 16.6029 24.7247 16.6593C24.7502 16.7157 24.787 16.7663 24.8328 16.8079C24.8786 16.8496 24.9325 16.8814 24.991 16.9014C25.0496 16.9215 25.1117 16.9293 25.1734 16.9244C25.2791 16.9318 25.385 16.9139 25.4824 16.8721C25.5798 16.8304 25.6658 16.7661 25.7334 16.6844L26.24 17.2C26.1087 17.352 25.9442 17.4719 25.7593 17.5505C25.5744 17.629 25.374 17.6642 25.1734 17.6533C24.56 17.6533 23.8667 17.4222 23.8667 16.1955C23.8667 15.3067 24.3734 14.7378 25.0934 14.7378C25.2662 14.7356 25.4376 14.77 25.5962 14.8388C25.7548 14.9075 25.8972 15.009 26.0138 15.1365C26.1305 15.2641 26.2189 15.4149 26.2732 15.579C26.3275 15.7431 26.3465 15.9169 26.3289 16.0889V16.48H24.6845ZM25.4578 15.68C25.4236 15.6127 25.3714 15.5563 25.3071 15.5168C25.2428 15.4774 25.1688 15.4565 25.0934 15.4565C25.0179 15.4565 24.9439 15.4774 24.8796 15.5168C24.8153 15.5563 24.7631 15.6127 24.7289 15.68C24.6972 15.7497 24.682 15.8257 24.6845 15.9022H25.5023C25.5047 15.8257 25.4895 15.7497 25.4578 15.68Z" fill="black"/>
<path d="M28.151 17.6178L27.5554 16.5778L27.3865 16.7644V17.6533H26.5776V13.8489H27.4132V15.7689L28.151 14.7733H29.1554L28.151 16L29.1821 17.6622H28.151" fill="black"/>
</g>
<defs>
<clipPath id="clip0_2707_344798">
<rect width="32" height="32" fill="white"/>
</clipPath>
</defs>
</svg>
