<svg width="32" height="32" viewBox="0 0 32 32" fill="none" xmlns="http://www.w3.org/2000/svg">
<g clip-path="url(#clip0_2707_344408)">
<path d="M15.9998 31.9822C24.8265 31.9822 31.982 24.8267 31.982 16C31.982 7.17325 24.8265 0.0177612 15.9998 0.0177612C7.17306 0.0177612 0.0175781 7.17325 0.0175781 16C0.0175781 24.8267 7.17306 31.9822 15.9998 31.9822Z" fill="white"/>
<path d="M9.32427 18.1155C9.32427 18.7289 9.32427 19.2889 9.32427 19.8489C9.32427 20.0266 9.32427 20.1955 9.12871 20.2578C9.03078 20.3016 8.92349 20.3206 8.81645 20.3128C8.70941 20.305 8.60596 20.2709 8.51538 20.2133C8.47613 20.179 8.4447 20.1366 8.42323 20.0891C8.40177 20.0415 8.39075 19.9899 8.39094 19.9378C8.39094 18.5955 8.32871 17.2711 8.39094 15.9022C8.39745 15.3784 8.58662 14.8733 8.92579 14.4741C9.26496 14.0749 9.73285 13.8066 10.2487 13.7155C10.8417 13.5554 11.473 13.6203 12.0211 13.8976C12.5692 14.1749 12.9953 14.6451 13.2176 15.2178C13.4216 15.7319 13.4567 16.2977 13.3176 16.833C13.1786 17.3684 12.8727 17.8456 12.4443 18.1955C12.023 18.5053 11.5138 18.6723 10.9909 18.6723C10.4681 18.6723 9.95886 18.5053 9.5376 18.1955L9.32427 18.1155ZM10.862 14.56C10.4549 14.5902 10.0742 14.7733 9.79633 15.0726C9.5185 15.3718 9.3641 15.765 9.3641 16.1733C9.3641 16.5816 9.5185 16.9748 9.79633 17.2741C10.0742 17.5733 10.4549 17.7564 10.862 17.7866C11.2872 17.7796 11.6923 17.6046 11.9888 17.2998C12.2853 16.995 12.449 16.5852 12.4443 16.16C12.4443 15.7395 12.2779 15.3362 11.9814 15.038C11.6849 14.7399 11.2825 14.5712 10.862 14.5689V14.56Z" fill="#1AA555"/>
<path d="M3.78629 16.3822C3.80455 16.669 3.9047 16.9446 4.07486 17.1762C4.24502 17.4078 4.47804 17.5857 4.74629 17.6889C5.02646 17.7976 5.33238 17.8219 5.62622 17.7588C5.92005 17.6956 6.18893 17.5477 6.39962 17.3333C6.47955 17.2414 6.57984 17.1694 6.69249 17.1231C6.80515 17.0768 6.92705 17.0575 7.04851 17.0666C7.13123 17.0755 7.21467 17.0755 7.2974 17.0666C7.6974 17.0666 7.70628 17.0666 7.51073 17.4222C7.27866 17.8397 6.92937 18.18 6.506 18.4012C6.08263 18.6224 5.60374 18.7146 5.12851 18.6666C4.59744 18.6461 4.08848 18.4486 3.68259 18.1056C3.27669 17.7625 2.99718 17.2935 2.88851 16.7733C2.74773 16.2364 2.78717 15.6682 3.00075 15.1559C3.21434 14.6436 3.59026 14.2156 4.07073 13.9377C4.43079 13.7285 4.83821 13.6143 5.25459 13.606C5.67098 13.5976 6.08263 13.6955 6.45076 13.8902C6.8189 14.0849 7.1314 14.3702 7.35883 14.7191C7.58626 15.068 7.72113 15.469 7.75073 15.8844C7.75073 16.2577 7.67073 16.3733 7.28851 16.3822H3.78629ZM6.68406 15.4933C6.58374 15.1979 6.38962 14.9433 6.13127 14.7684C5.87293 14.5935 5.5645 14.5078 5.25295 14.5244C4.95912 14.5206 4.67216 14.6133 4.43612 14.7884C4.20008 14.9634 4.02799 15.211 3.94629 15.4933H6.68406Z" fill="#10569F"/>
<path d="M17.1731 13.6889C17.5927 13.8162 17.9745 14.045 18.2846 14.3551C18.5947 14.6652 18.8235 15.047 18.9508 15.4666C19.0018 15.664 19.0258 15.8673 19.022 16.0711C19.022 16.7822 19.022 17.4933 19.022 18.2044C19.022 18.3733 19.022 18.5778 18.8353 18.6222C18.6119 18.6623 18.3831 18.6623 18.1597 18.6222C18.0975 18.6222 18.062 18.4089 18.0442 18.3022C18.0264 18.1955 17.9908 18.1244 17.8664 18.2133C17.5462 18.4497 17.1726 18.6035 16.7787 18.6608C16.3849 18.7182 15.983 18.6775 15.6086 18.5422C15.076 18.3635 14.6291 17.9927 14.3553 17.5022C14.1149 17.1279 13.9761 16.6974 13.9528 16.2532C13.9294 15.809 14.0222 15.3663 14.222 14.9689C14.4929 14.4498 14.927 14.0344 15.4575 13.7866C15.5877 13.7444 15.7217 13.7146 15.8575 13.6978C16.3108 13.68 16.7375 13.6889 17.1731 13.6889ZM17.9731 16.08C17.9582 15.6861 17.7968 15.312 17.5206 15.0309C17.2444 14.7498 16.8732 14.5818 16.4797 14.56C16.0621 14.578 15.667 14.7543 15.3748 15.0532C15.0825 15.352 14.9151 15.751 14.9064 16.1689C14.8977 16.3797 14.9325 16.5901 15.0086 16.787C15.0847 16.9838 15.2005 17.1629 15.3488 17.3131C15.4971 17.4632 15.6747 17.5812 15.8706 17.6598C16.0665 17.7383 16.2765 17.7757 16.4874 17.7696C16.6984 17.7634 16.9058 17.714 17.0968 17.6242C17.2878 17.5345 17.4583 17.4064 17.5977 17.2479C17.7371 17.0894 17.8423 16.9039 17.9069 16.703C17.9715 16.5021 17.994 16.29 17.9731 16.08Z" fill="#F39525"/>
<path d="M22.0622 13.6178C22.469 13.5896 22.8769 13.655 23.2544 13.8091C23.632 13.9632 23.9691 14.2019 24.24 14.5067C24.3106 14.605 24.348 14.7234 24.3467 14.8444C24.3467 15.0756 24.08 15.1467 23.9022 15.2267C23.7244 15.3067 23.6178 15.2267 23.52 15.0933C23.3558 14.9164 23.1582 14.7738 22.9387 14.6735C22.7191 14.5733 22.4819 14.5174 22.2407 14.5091C21.9995 14.5009 21.759 14.5404 21.5331 14.6254C21.3072 14.7104 21.1004 14.8392 20.9244 15.0044C20.7088 15.2124 20.5586 15.4788 20.4923 15.7709C20.426 16.0631 20.4464 16.3682 20.5511 16.6489C20.6353 16.9471 20.8061 17.2135 21.0419 17.4145C21.2777 17.6155 21.5678 17.7419 21.8756 17.7778C22.1789 17.834 22.4917 17.8103 22.7832 17.709C23.0746 17.6077 23.3347 17.4323 23.5378 17.2C23.5611 17.1606 23.5931 17.1271 23.6313 17.1019C23.6694 17.0766 23.7129 17.0604 23.7582 17.0544C23.8036 17.0484 23.8497 17.0528 23.8931 17.0673C23.9366 17.0817 23.9761 17.1058 24.0089 17.1378L24.1333 17.2178C24.4178 17.4044 24.4356 17.5733 24.2222 17.8222C23.8949 18.2126 23.4482 18.4843 22.9511 18.5956C22.4935 18.7335 22.0082 18.752 21.5414 18.6493C21.0746 18.5466 20.6419 18.3261 20.2844 18.0089C19.9563 17.7047 19.7155 17.3181 19.5872 16.8895C19.4589 16.4608 19.4477 16.0055 19.5547 15.571C19.6617 15.1365 19.8831 14.7386 20.1959 14.4186C20.5087 14.0986 20.9014 13.8681 21.3333 13.7511C21.5739 13.6945 21.8172 13.65 22.0622 13.6178Z" fill="#603B19"/>
<path d="M26.3376 17.7778H26.2843C26.2456 17.7076 26.2158 17.633 26.1954 17.5555C26.1954 17.1733 26.1954 16.7822 26.1421 16.3911C26.1926 16.3668 26.2403 16.337 26.2843 16.3022C26.8888 15.5733 27.4932 14.8533 28.0621 14.1244C28.1331 14.0226 28.2295 13.9411 28.3418 13.888C28.4541 13.835 28.5783 13.8123 28.7021 13.8222C28.8532 13.8222 28.9954 13.8222 29.1465 13.8222C29.234 13.8314 29.3204 13.8493 29.4043 13.8755L29.3154 14.1155L28.9154 14.6044L28.4176 15.2L28.3643 15.2444C27.7865 15.9378 27.2088 16.6311 26.6399 17.3333C26.6067 17.3743 26.5852 17.4234 26.5776 17.4755L26.3376 17.7778Z" fill="#1379BB"/>
<path d="M25.1465 12.9067C25.16 12.8019 25.19 12.6999 25.2354 12.6044C25.4665 12.32 25.7065 12.0533 25.9465 11.7778C26.0443 11.68 26.142 11.6178 26.1687 11.8311V12.2311C26.1687 12.7467 26.1687 13.2622 26.1687 13.7867C26.1789 13.8648 26.1599 13.9439 26.1154 14.0089C25.822 14.3644 25.5109 14.7111 25.2265 15.0844C25.2296 15.0341 25.2296 14.9836 25.2265 14.9333V14.56V13.2444C25.1465 13.1289 25.1465 13.0222 25.1465 12.9067Z" fill="#603B19"/>
<path d="M28.2753 17.0756C28.5509 17.5022 28.8353 17.9644 29.1109 18.3822C29.1541 18.4575 29.187 18.5382 29.2087 18.6222H28.9687H28.1331C28.0675 18.5871 28.01 18.5387 27.9642 18.48C27.7242 18.1067 27.4842 17.7333 27.2531 17.3511C27.2398 17.3249 27.2329 17.296 27.2329 17.2667C27.2329 17.2373 27.2398 17.2084 27.2531 17.1822C27.4398 16.9422 27.6353 16.7111 27.8398 16.4622L28.2753 17.0756Z" fill="#10569F"/>
<path d="M26.1421 16.3822C26.1421 16.7733 26.1421 17.1644 26.1954 17.5467C26.2078 17.6265 26.2382 17.7025 26.2843 17.7689C26.0799 17.92 26.1865 18.1244 26.1777 18.32V18.4089L26.0443 18.6667C25.8576 18.6667 25.6621 18.6667 25.4754 18.6667C25.4323 18.675 25.3879 18.6733 25.3456 18.6617C25.3033 18.65 25.2642 18.6287 25.2315 18.5994C25.1988 18.5701 25.1733 18.5337 25.157 18.4929C25.1407 18.4522 25.1341 18.4082 25.1377 18.3644V17.28C25.191 17.28 25.2532 17.28 25.2888 17.2267L26.1154 16.3378L26.1421 16.3822Z" fill="#1AA555"/>
<path d="M25.1645 17.28V18.3644C25.1645 17.2977 25.1645 16.2222 25.1645 15.1466C25.1601 15.0756 25.1601 15.0043 25.1645 14.9333C25.1587 14.9835 25.1587 15.0342 25.1645 15.0844L26.0533 14.0089C26.0946 13.9392 26.1133 13.8584 26.1067 13.7777C26.1067 13.2622 26.1067 12.7466 26.1067 12.2311C26.1067 13.0666 26.1067 13.9022 26.1067 14.7377C26.1067 15.28 26.1067 15.8222 26.1067 16.3644V16.3111C25.92 16.08 25.7422 15.8489 25.5556 15.6266C25.3689 15.4044 25.2978 15.3333 25.1289 15.1466L25.1645 17.28Z" fill="#F39525"/>
<path d="M25.1641 17.28V15.1644C25.333 15.3511 25.4663 15.4933 25.5907 15.6444C25.7152 15.7955 25.9552 16.1067 26.1418 16.3289L25.3152 17.2178C25.3152 17.2178 25.2174 17.2622 25.1641 17.28Z" fill="#E55E2F"/>
</g>
<defs>
<clipPath id="clip0_2707_344408">
<rect width="32" height="32" fill="white"/>
</clipPath>
</defs>
</svg>
