<svg width="32" height="32" viewBox="0 0 32 32" fill="none" xmlns="http://www.w3.org/2000/svg">
<g clip-path="url(#clip0_2707_258908)">
<path d="M16.0086 31.9979C24.837 31.9979 31.9938 24.8411 31.9938 16.0127C31.9938 7.18434 24.837 0.0275269 16.0086 0.0275269C7.18025 0.0275269 0.0234375 7.18434 0.0234375 16.0127C0.0234375 24.8411 7.18025 31.9979 16.0086 31.9979Z" fill="#273B91"/>
<path d="M5.64405 17.1417C5.35729 17.2607 5.07057 17.3457 4.66519 17.3457C4.32897 17.3457 4.11143 17.2182 3.99275 17.0482C3.88399 16.8953 3.87413 16.6828 3.88399 16.5639C5.22876 16.5979 6.29672 16.1729 6.29672 15.0342C6.28689 14.4649 5.89135 13.9039 5.01124 13.9039C3.4687 13.9039 2.6875 15.4081 2.6875 16.6148C2.6875 17.5071 3.14234 18.1785 4.32897 18.1785C4.88271 18.1785 5.298 18.102 5.72321 17.949L5.64405 17.1417ZM5.19916 15.1362C5.19916 15.5696 4.65525 15.7905 4.00261 15.7651C4.14106 15.1702 4.47728 14.7538 4.85302 14.7538C5.0904 14.7538 5.19916 14.8982 5.19916 15.1362ZM7.81671 18.1275L8.24191 16.2069C8.39022 15.5016 8.89455 14.9748 9.42846 14.9748C9.49776 14.9748 9.58677 14.9832 9.63615 14.9832L9.86361 13.921C9.80429 13.9039 9.74491 13.9039 9.66584 13.9039C9.26041 13.9039 8.82534 14.1334 8.46935 14.6603H8.43966C8.46935 14.4053 8.48912 14.1844 8.50889 13.972H7.45085C7.38164 14.3543 7.3124 14.8302 7.20364 15.3062L6.58067 18.1275H7.81671ZM13.2327 18.1275C13.2228 17.6771 13.3118 16.8697 13.4305 16.3854L13.9644 14.0739C13.6678 13.972 13.1833 13.9039 12.6987 13.9039C10.6222 13.9039 9.89049 15.6886 9.89049 16.9462C9.89049 17.6771 10.2365 18.1955 10.9386 18.1955C11.3243 18.1955 11.789 17.983 12.1746 17.4307H12.2043C12.1945 17.6771 12.1746 17.9065 12.1648 18.1275H13.2327ZM12.2933 16.088C12.1153 16.8443 11.7989 17.3202 11.4626 17.3202C11.1561 17.3202 11.0968 17.0568 11.0968 16.6913C11.1067 16.0794 11.5418 14.6943 12.3526 14.6943C12.4218 14.6943 12.5108 14.7028 12.6097 14.7198L12.2933 16.088ZM15.1482 13.972L14.2583 17.983C14.0704 18.8243 13.8232 19.0028 13.4474 19.0028C13.3584 19.0028 13.2794 18.9943 13.2002 18.9858L13.0816 19.7761C13.2596 19.8101 13.4277 19.8271 13.6155 19.8271C14.2879 19.8271 14.7725 19.5806 15.0197 19.2237C15.1977 18.9688 15.3559 18.6034 15.524 17.8385L16.3843 13.972H15.1482ZM20.1093 18.1275C20.0995 17.6771 20.1884 16.8697 20.3071 16.3854L20.8411 14.0739C20.5444 13.972 20.0599 13.9039 19.5753 13.9039C17.4988 13.9039 16.7671 15.6886 16.7671 16.9462C16.7671 17.6771 17.1131 18.1955 17.8153 18.1955C18.2009 18.1955 18.6656 17.983 19.0513 17.4307H19.0809C19.0711 17.6771 19.0513 17.9065 19.0414 18.1275H20.1093ZM19.17 16.088C18.992 16.8443 18.6755 17.3202 18.3393 17.3202C18.0328 17.3202 17.9735 17.0568 17.9735 16.6913C17.9834 16.0794 18.4185 14.6943 19.2293 14.6943C19.2985 14.6943 19.3875 14.7028 19.4863 14.7198L19.17 16.088ZM21.5799 13.972L22.0941 17.8896C22.104 17.9745 22.0842 18.017 22.0645 18.0765C21.9457 18.306 21.6787 18.5438 21.4019 18.7393C21.2041 18.8753 20.9767 18.9858 20.7592 19.0793L21.2536 19.9461C21.4612 19.8696 21.7974 19.6911 22.0842 19.4617C22.6775 18.9943 23.2213 18.1955 23.696 17.2437L25.2781 13.972H24.0322L23.3004 15.8925C23.1324 16.3344 23.0334 16.6148 22.9346 16.9547H22.9148C22.9248 16.6488 22.9148 16.3599 22.9049 15.969L22.8752 13.972H21.5799ZM28.5978 18.1275C28.5878 17.6771 28.6768 16.8697 28.7955 16.3854L29.3295 14.0739C29.0328 13.972 28.5483 13.9039 28.0638 13.9039C25.9873 13.9039 25.2555 15.6886 25.2555 16.9462C25.2555 17.6771 25.6016 18.1955 26.3037 18.1955C26.6893 18.1955 27.1541 17.983 27.5397 17.4307H27.5693C27.5595 17.6771 27.5397 17.9065 27.5298 18.1275H28.5978ZM27.6583 16.088C27.4804 16.8443 27.164 17.3202 26.8278 17.3202C26.5213 17.3202 26.4619 17.0568 26.4619 16.6913C26.4718 16.0794 26.9069 14.6943 27.7177 14.6943C27.787 14.6943 27.8759 14.7028 27.9748 14.7198L27.6583 16.088Z" fill="#F4F4F4"/>
<path d="M15.9313 13.2945C16.307 13.2945 16.6432 13.0566 16.6432 12.6317C16.653 12.3428 16.4652 12.0793 16.0598 12.0793C15.6247 12.0793 15.3775 12.4278 15.3676 12.7337C15.3577 13.0481 15.5357 13.2945 15.9313 13.2945Z" fill="#F23F37"/>
</g>
<defs>
<clipPath id="clip0_2707_258908">
<rect width="32" height="32" fill="white"/>
</clipPath>
</defs>
</svg>
