<svg width="32" height="32" viewBox="0 0 32 32" fill="none" xmlns="http://www.w3.org/2000/svg">
<g clip-path="url(#clip0_2707_343543)">
<path d="M15.9998 31.9822C24.8265 31.9822 31.982 24.8268 31.982 16C31.982 7.17328 24.8265 0.0177917 15.9998 0.0177917C7.17306 0.0177917 0.0175781 7.17328 0.0175781 16C0.0175781 24.8268 7.17306 31.9822 15.9998 31.9822Z" fill="white"/>
<path d="M5.39941 17.8914L5.41316 17.8578L5.42205 17.8756L5.39941 17.8914L5.33316 18.0534C5.31974 18.0847 5.29901 18.1123 5.27272 18.1339C5.24643 18.1556 5.21534 18.1706 5.18205 18.1778C5.1232 18.1972 5.06076 18.2033 4.99927 18.1956C4.93777 18.1879 4.87875 18.1667 4.8265 18.1334C4.76728 18.1061 4.71074 18.0733 4.65761 18.0356C4.55206 17.9154 4.45968 17.7843 4.38205 17.6445L4.27539 17.4489L4.19539 17.3245V17.2445C3.98205 17.2445 3.77761 17.3334 3.57316 17.36C3.36463 17.3979 3.15378 17.4216 2.94205 17.4311V16.5422H3.04872H3.44872H3.72427C3.72427 16.5422 3.77761 16.5422 3.77761 16.4889L3.99094 15.8489C3.82989 15.8045 3.67241 15.748 3.51983 15.68C3.40792 15.6343 3.30075 15.5777 3.19983 15.5111L2.93316 15.2C2.88123 15.1411 2.85275 15.0652 2.85316 14.9867V14.7111V14.5867V14.5334C2.84387 14.4596 2.84387 14.3849 2.85316 14.3111V14.2222V14.0978C2.85275 14.0193 2.88123 13.9434 2.93316 13.8845C2.98734 13.8166 3.05365 13.7593 3.12872 13.7156C3.28689 13.6252 3.45363 13.5508 3.6265 13.4934C3.89569 13.4239 4.16876 13.3705 4.44427 13.3334L5.08427 13.2178H5.4665C5.51983 13.2178 5.55539 13.2178 5.56427 13.1467C5.56565 13.1356 5.56661 13.128 5.56723 13.1228C5.56699 13.1202 5.56675 13.1176 5.5665 13.115C5.56543 13.1156 5.56427 13.1126 5.56427 13.0934C5.56506 13.1006 5.5658 13.1078 5.5665 13.115C5.56792 13.1142 5.56917 13.1067 5.56723 13.1228C5.5774 13.2343 5.57642 13.3465 5.56427 13.4578C5.53699 13.6802 5.49241 13.9001 5.43094 14.1156C5.40512 14.1882 5.37545 14.2594 5.34205 14.3289C5.32762 14.3625 5.30644 14.3927 5.27983 14.4178H5.15539C5.06773 14.3818 4.99326 14.3197 4.94205 14.24L4.87983 14.1422L4.39094 14.2222C4.53205 14.4332 4.65971 14.6529 4.77316 14.88C4.77698 14.8926 4.78385 14.9041 4.79315 14.9134C4.80245 14.9227 4.81391 14.9295 4.8265 14.9334C5.01344 14.992 5.1903 15.0789 5.35094 15.1911C5.41298 15.2278 5.46979 15.2726 5.51983 15.3245C5.55652 15.3593 5.58389 15.4028 5.59942 15.4509C5.61495 15.499 5.61815 15.5503 5.60872 15.6C5.59977 15.653 5.59977 15.7071 5.60872 15.76V15.8667C5.59977 15.9196 5.59977 15.9737 5.60872 16.0267C5.62234 16.0761 5.62234 16.1283 5.60872 16.1778C5.6044 16.2043 5.6044 16.2313 5.60872 16.2578C5.62261 16.3212 5.62011 16.3872 5.60145 16.4494C5.58278 16.5116 5.54858 16.568 5.50205 16.6134C5.41745 16.6964 5.31793 16.7628 5.20872 16.8089C5.00821 16.9058 4.80011 16.986 4.5865 17.0489L4.38205 17.1111V17.1911C4.40934 17.3737 4.4728 17.549 4.56872 17.7067C4.66082 17.8372 4.78271 17.9438 4.92427 18.0178H4.9865C5.00372 18.0289 5.02378 18.0348 5.04427 18.0348C5.06477 18.0348 5.08483 18.0289 5.10205 18.0178C5.17171 17.9733 5.2509 17.9459 5.33316 17.9378L5.39941 17.8914Z" fill="#EA232A"/>
<path d="M10.2043 14.8889C10.2043 15.2889 10.2043 15.6711 10.2043 16.0711H10.0088C10.0088 15.5556 10.0088 15.04 10.0088 14.5334H10.2488C10.3008 14.7013 10.3662 14.8648 10.4443 15.0222C10.5155 15.1911 10.5866 15.36 10.6488 15.5289L10.7021 15.6445C10.7021 15.5556 10.7021 15.4667 10.7021 15.3778V15.1111C10.7021 15.0222 10.7021 14.9245 10.7021 14.8356C10.7021 14.7467 10.7021 14.6489 10.7021 14.5422H10.9066C10.9066 15.0578 10.9066 15.5734 10.9066 16.08H10.6666C10.6666 16.0178 10.6666 15.9467 10.5955 15.8845C10.4977 15.68 10.3999 15.4756 10.311 15.2711C10.2564 15.1576 10.2147 15.0384 10.1866 14.9156L10.2043 14.8889Z" fill="#E4242F"/>
<path d="M15.4666 16.0711H15.271C15.271 15.5556 15.271 15.04 15.271 14.5334H15.5021V14.6134C15.5643 14.7556 15.6266 14.8978 15.6799 15.04C15.7332 15.1822 15.8221 15.3689 15.8843 15.5289C15.8894 15.5732 15.8894 15.6179 15.8843 15.6622C15.8843 15.28 15.8843 14.9067 15.8843 14.5334H16.0888C16.0888 15.04 16.0888 15.5556 16.0888 16.0711H15.8932C15.7777 15.7778 15.6266 15.5022 15.511 15.1822L15.4043 14.88C15.4043 14.9778 15.4043 15.0667 15.4043 15.1645C15.4043 15.2622 15.4043 15.36 15.4043 15.4578V15.7511C15.4577 15.8667 15.4666 16 15.4666 16.0711Z" fill="#E4242F"/>
<path d="M26.1154 15.2356C26.1238 15.4053 26.0965 15.5748 26.0354 15.7334C26.0024 15.823 25.9509 15.9048 25.8843 15.9734C25.8485 16.0184 25.8023 16.054 25.7496 16.0773C25.697 16.1005 25.6395 16.1106 25.5821 16.1067C25.534 16.1083 25.4861 16.0996 25.4417 16.0812C25.3972 16.0628 25.3572 16.0351 25.3243 16C25.229 15.9043 25.1614 15.7845 25.1288 15.6534C25.0606 15.3812 25.0824 15.0943 25.191 14.8356C25.2283 14.7389 25.2894 14.6533 25.3688 14.5867C25.4204 14.5387 25.4852 14.5072 25.5549 14.4961C25.6245 14.485 25.6959 14.4949 25.7599 14.5245C25.831 14.5503 25.8929 14.5967 25.9377 14.6578C26.0251 14.7715 26.0803 14.9066 26.0977 15.0489C26.1066 15.1111 26.1154 15.2 26.1154 15.2356ZM25.8932 15.2356C25.9004 15.1706 25.9004 15.105 25.8932 15.04C25.8802 14.9518 25.8433 14.8688 25.7865 14.8C25.7685 14.7743 25.7445 14.7534 25.7167 14.7389C25.6889 14.7245 25.6579 14.7169 25.6265 14.7169C25.5952 14.7169 25.5642 14.7245 25.5364 14.7389C25.5086 14.7534 25.4846 14.7743 25.4665 14.8C25.431 14.8517 25.404 14.9087 25.3865 14.9689C25.3222 15.1561 25.3222 15.3595 25.3865 15.5467C25.4044 15.6175 25.4413 15.682 25.4932 15.7334C25.5095 15.7572 25.5314 15.7767 25.557 15.7902C25.5825 15.8036 25.611 15.8107 25.6399 15.8107C25.6688 15.8107 25.6972 15.8036 25.7228 15.7902C25.7483 15.7767 25.7702 15.7572 25.7865 15.7334C25.8216 15.6912 25.8487 15.643 25.8665 15.5911C25.8948 15.487 25.9038 15.3785 25.8932 15.2711V15.2356Z" fill="#464545"/>
<path d="M23.8311 16.0711H23.6444L23.4933 15.7245C23.4044 15.5289 23.3155 15.3333 23.2355 15.1378C23.2036 15.0627 23.1768 14.9855 23.1555 14.9067C23.1555 15.2978 23.1555 15.6889 23.1555 16.08H22.96C22.96 15.5645 22.96 15.0578 22.96 14.5422H23.1911C23.2533 14.7378 23.3511 14.9245 23.4311 15.12C23.5024 15.2702 23.5648 15.4246 23.6177 15.5822V15.6622C23.6177 15.2889 23.6177 14.9156 23.6177 14.5422H23.8133C23.8222 15.0489 23.8222 15.5556 23.8311 16.0711Z" fill="#474646"/>
<path d="M24.0708 14.5333H24.373C24.4409 14.5247 24.5096 14.5247 24.5775 14.5333C24.6781 14.5632 24.7638 14.6298 24.8175 14.72C24.8797 14.8238 24.9219 14.9384 24.9419 15.0578C24.9674 15.2708 24.943 15.4869 24.8708 15.6889C24.8361 15.7637 24.7944 15.8351 24.7464 15.9022C24.7054 15.9551 24.6528 15.9978 24.5927 16.0271C24.5326 16.0564 24.4666 16.0715 24.3997 16.0711H24.0708V14.5333ZM24.2841 15.8222C24.3507 15.8482 24.4245 15.849 24.4916 15.8244C24.5587 15.7999 24.6145 15.7517 24.6486 15.6889C24.6687 15.6526 24.6837 15.6137 24.693 15.5733C24.7288 15.4274 24.7288 15.2749 24.693 15.1289C24.6743 15.0551 24.6474 14.9835 24.613 14.9156C24.5689 14.8444 24.4987 14.7933 24.4175 14.7733C24.3619 14.7601 24.3041 14.7601 24.2486 14.7733C24.2486 15.12 24.2486 15.4667 24.2486 15.8133L24.2841 15.8222Z" fill="#464545"/>
<path d="M12.2041 15.4578V16.0711H11.9907C11.9907 15.5556 11.9907 15.0489 11.9907 14.5334H12.3463H12.4974C12.551 14.5438 12.6005 14.5695 12.6399 14.6073C12.6793 14.6452 12.707 14.6935 12.7196 14.7467C12.7551 14.8595 12.7551 14.9805 12.7196 15.0934C12.691 15.1679 12.6417 15.2327 12.5774 15.28C12.6377 15.3197 12.6818 15.3796 12.7018 15.4489C12.7364 15.5261 12.7632 15.6064 12.7818 15.6889C12.7818 15.7867 12.8441 15.8934 12.8707 15.9911H12.6396C12.6447 15.9439 12.6447 15.8962 12.6396 15.8489L12.4441 15.6178C12.447 15.5912 12.447 15.5644 12.4441 15.5378C12.4342 15.515 12.4181 15.4955 12.3977 15.4813C12.3773 15.4672 12.3533 15.4591 12.3285 15.4578H12.2041ZM12.2041 14.7645C12.2041 14.9245 12.2041 15.0845 12.2041 15.2356H12.3374C12.3816 15.2358 12.4243 15.2195 12.4572 15.1899C12.4901 15.1604 12.5107 15.1196 12.5152 15.0756C12.5327 15.0146 12.5327 14.9499 12.5152 14.8889C12.5113 14.8549 12.4961 14.8231 12.4718 14.7989C12.4476 14.7747 12.4159 14.7594 12.3818 14.7556C12.3197 14.7453 12.2561 14.7483 12.1952 14.7645H12.2041Z" fill="#E42430"/>
<path d="M20.6663 16.0711H20.444C20.444 15.92 20.3996 15.7778 20.3729 15.6267H19.9996L19.9196 16.0711H19.644C19.644 16.0711 19.644 16.0711 19.644 16.0178L19.8307 15.2978C19.884 15.0578 19.9463 14.8267 19.9996 14.5956C20.0033 14.575 20.0033 14.5539 19.9996 14.5333C20.1001 14.5244 20.2013 14.5244 20.3018 14.5333L20.444 15.1111C20.5063 15.3689 20.5685 15.6356 20.6218 15.8933C20.6419 15.9512 20.6568 16.0107 20.6663 16.0711ZM20.2929 15.4045C20.2396 15.1822 20.1952 14.96 20.1507 14.7378C20.0974 14.96 20.0529 15.1822 19.9996 15.4045H20.2929Z" fill="#464545"/>
<path d="M27.671 16.0711H27.4844C27.4844 15.5111 27.4844 14.96 27.4844 14.4089H27.5999H27.7155C27.7155 14.6222 27.7155 14.8267 27.7155 15.04C27.7388 15.0104 27.7685 14.9865 27.8024 14.9701C27.8362 14.9536 27.8734 14.9451 27.911 14.9451C27.9487 14.9451 27.9859 14.9536 28.0197 14.9701C28.0536 14.9865 28.0833 15.0104 28.1066 15.04C28.1691 15.1175 28.2118 15.209 28.231 15.3067C28.2684 15.5041 28.2468 15.7082 28.1688 15.8933C28.1445 15.9439 28.1147 15.9916 28.0799 16.0356C28.0479 16.0786 28.0036 16.1109 27.9528 16.1284C27.9021 16.1458 27.8472 16.1476 27.7955 16.1334C27.7537 16.1206 27.7166 16.0959 27.6888 16.0622L27.671 16.0711ZM27.671 15.52V15.6622C27.671 15.7156 27.671 15.76 27.671 15.8045C27.6664 15.8126 27.6639 15.8218 27.6639 15.8311C27.6639 15.8405 27.6664 15.8497 27.671 15.8578C27.7032 15.8651 27.7366 15.8651 27.7688 15.8578C27.7952 15.8578 27.8211 15.8514 27.8444 15.839C27.8677 15.8266 27.8875 15.8086 27.9022 15.7867C27.9203 15.762 27.9352 15.7351 27.9466 15.7067C27.9728 15.5926 27.9728 15.4741 27.9466 15.36C27.9381 15.2916 27.917 15.2253 27.8844 15.1645C27.8679 15.1357 27.8425 15.1132 27.8119 15.1004C27.7814 15.0875 27.7475 15.0851 27.7155 15.0933C27.6817 15.0978 27.6509 15.115 27.6294 15.1415C27.6079 15.1679 27.5974 15.2016 27.5999 15.2356L27.671 15.52Z" fill="#464545"/>
<path d="M13.5911 15.84C13.5911 15.6622 13.5911 15.4845 13.5911 15.2978H13.8134V16H13.7511C13.665 16.0283 13.5751 16.0433 13.4845 16.0445C13.4024 16.0488 13.3208 16.0304 13.2486 15.9911C13.1764 15.9519 13.1165 15.8935 13.0756 15.8222C12.9961 15.7066 12.9499 15.5713 12.9422 15.4311C12.914 15.2452 12.9355 15.055 13.0045 14.88C13.0286 14.7993 13.0678 14.7239 13.12 14.6578C13.1632 14.5919 13.2228 14.5384 13.2929 14.5025C13.3631 14.4667 13.4413 14.4497 13.52 14.4534C13.5963 14.4378 13.6749 14.4378 13.7511 14.4534V14.7289H13.6978C13.6389 14.7196 13.5789 14.7196 13.52 14.7289C13.4714 14.7251 13.4226 14.7358 13.38 14.7595C13.3373 14.7832 13.3025 14.8189 13.28 14.8622C13.2365 14.9291 13.2091 15.0052 13.2 15.0845C13.1645 15.2335 13.1645 15.3888 13.2 15.5378C13.2218 15.5997 13.2549 15.657 13.2978 15.7067C13.3255 15.7579 13.3691 15.7986 13.4221 15.8227C13.475 15.8467 13.5344 15.8528 13.5911 15.84Z" fill="#E4232E"/>
<path d="M11.1196 14.5334H11.7774C11.7728 14.6192 11.7728 14.7053 11.7774 14.7911H11.3419C11.3419 14.9245 11.3419 15.0489 11.3419 15.1822H11.6974V15.4222H11.3419V15.8756H11.8041V16.1334H11.1196C11.1374 15.5556 11.1374 15.04 11.1196 14.5334Z" fill="#E4232F"/>
<path d="M20.7375 16.0534C20.7375 15.9734 20.7375 15.8845 20.7375 15.7956H20.782C20.8895 15.826 21.0033 15.826 21.1109 15.7956C21.1461 15.7872 21.1772 15.7664 21.1984 15.737C21.2196 15.7077 21.2295 15.6717 21.2264 15.6356C21.2261 15.6033 21.2188 15.5715 21.205 15.5423C21.1912 15.5131 21.1712 15.4873 21.1464 15.4667L21.0042 15.36L20.8886 15.28C20.8005 15.2095 20.7431 15.1075 20.7286 14.9956C20.7161 14.9101 20.7161 14.8233 20.7286 14.7378C20.7446 14.664 20.7832 14.597 20.8389 14.546C20.8946 14.4951 20.9648 14.4627 21.0397 14.4534C21.1513 14.4318 21.266 14.4318 21.3775 14.4534C21.3775 14.5422 21.3775 14.6222 21.3775 14.72C21.3049 14.6876 21.2258 14.6724 21.1464 14.6756C21.0842 14.6756 21.022 14.6756 21.0042 14.7645C20.9851 14.7935 20.9749 14.8275 20.9749 14.8622C20.9749 14.897 20.9851 14.931 21.0042 14.96L21.1197 15.0489L21.2264 15.12C21.3223 15.1777 21.3923 15.27 21.422 15.3778C21.4618 15.5082 21.4618 15.6474 21.422 15.7778C21.4044 15.8343 21.3734 15.8856 21.3316 15.9274C21.2898 15.9693 21.2384 16.0003 21.182 16.0178C21.0405 16.073 20.8859 16.0854 20.7375 16.0534Z" fill="#464545"/>
<path d="M9.34191 14.5422C9.3376 14.6281 9.3376 14.7141 9.34191 14.8C9.26933 14.7676 9.19024 14.7524 9.1108 14.7556C9.04858 14.7556 8.98636 14.7556 8.96858 14.8533C8.95617 14.8853 8.95378 14.9203 8.96172 14.9536C8.96966 14.9869 8.98755 15.0171 9.01303 15.04C9.03237 15.0653 9.05654 15.0864 9.08414 15.1022L9.19969 15.1733C9.29494 15.2281 9.36982 15.3123 9.41303 15.4133C9.47061 15.562 9.47061 15.7269 9.41303 15.8756C9.39194 15.9368 9.35412 15.9909 9.30384 16.0318C9.25357 16.0726 9.19285 16.0986 9.12858 16.1067C8.99822 16.1465 8.85894 16.1465 8.72858 16.1067C8.72858 16.0267 8.72858 15.9378 8.72858 15.8489H8.77302C8.88055 15.8793 8.99439 15.8793 9.10191 15.8489C9.13643 15.8424 9.16734 15.8234 9.18867 15.7955C9.21001 15.7676 9.22027 15.7328 9.21747 15.6978C9.21704 15.6343 9.19147 15.5736 9.14636 15.5289L9.01303 15.4222L8.88858 15.3689C8.8206 15.3266 8.76453 15.2677 8.72564 15.1977C8.68676 15.1277 8.66636 15.049 8.66636 14.9689C8.662 14.9097 8.662 14.8503 8.66636 14.7911C8.68051 14.7133 8.72084 14.6427 8.78066 14.5909C8.84049 14.5392 8.9162 14.5095 8.99525 14.5067C9.08921 14.4887 9.18573 14.4887 9.27969 14.5067L9.34191 14.5422Z" fill="#E4232E"/>
<path d="M18.2667 16.0711H18.0444C18.0444 15.5556 18.0444 15.0489 18.0444 14.5422H18.4355C18.5151 14.5428 18.5927 14.5676 18.6578 14.6133C18.6974 14.6427 18.7306 14.68 18.7551 14.7228C18.7796 14.7657 18.7949 14.8132 18.8 14.8622C18.8222 14.9618 18.8222 15.0649 18.8 15.1645C18.775 15.2594 18.7199 15.3436 18.643 15.4045C18.566 15.4654 18.4714 15.4997 18.3733 15.5022H18.2844C18.2578 15.68 18.2667 15.8756 18.2667 16.0711ZM18.2667 15.2711C18.3311 15.2848 18.3977 15.2848 18.4622 15.2711C18.4935 15.2586 18.5216 15.2393 18.5446 15.2148C18.5676 15.1902 18.585 15.1609 18.5955 15.1289C18.6133 15.0559 18.6133 14.9797 18.5955 14.9067C18.5874 14.873 18.5696 14.8425 18.5443 14.8188C18.5191 14.7951 18.4874 14.7793 18.4533 14.7733C18.3893 14.756 18.3218 14.756 18.2578 14.7733C18.2578 14.9333 18.2578 15.1111 18.2578 15.2711H18.2667Z" fill="#474646"/>
<path d="M28.6043 15.3689C28.7134 15.247 28.7979 15.1051 28.8532 14.9511H29.0932V15.0045C29.0258 15.1331 28.9422 15.2526 28.8443 15.36C28.8443 15.36 28.8443 15.36 28.8443 15.4222C28.879 15.4631 28.9088 15.5078 28.9332 15.5556C29.0043 15.6889 29.0666 15.8311 29.1377 15.9734V16.0622C29.058 16.0719 28.9774 16.0719 28.8977 16.0622C28.8416 15.9131 28.7763 15.7677 28.7021 15.6267L28.6488 15.5467C28.6446 15.6059 28.6446 15.6653 28.6488 15.7245V15.9111C28.6532 15.9733 28.6532 16.0357 28.6488 16.0978H28.4443V14.7911C28.4443 14.6934 28.4443 14.5867 28.4443 14.4889V14.4H28.6666C28.6043 14.7111 28.6043 15.04 28.6043 15.3689Z" fill="#474646"/>
<path d="M6.78208 15.4934C6.78208 15.68 6.78208 15.8756 6.78208 16.0711H6.57764V14.5334H6.95986C7.04222 14.5338 7.12263 14.5585 7.19097 14.6045C7.26114 14.6597 7.30859 14.7388 7.3243 14.8267C7.35117 14.9407 7.35117 15.0594 7.3243 15.1734C7.30227 15.2545 7.25677 15.3273 7.19352 15.3826C7.13026 15.438 7.05207 15.4734 6.96875 15.4845L6.78208 15.4934ZM6.78208 15.2711C6.85452 15.2931 6.93186 15.2931 7.0043 15.2711C7.03493 15.2567 7.06103 15.2341 7.07982 15.2059C7.09862 15.1777 7.10938 15.145 7.11097 15.1111C7.13739 15.0333 7.13739 14.949 7.11097 14.8711C7.10355 14.838 7.08576 14.808 7.06019 14.7857C7.03462 14.7633 7.0026 14.7496 6.96875 14.7467C6.91083 14.7289 6.84889 14.7289 6.79097 14.7467V15.2534L6.78208 15.2711Z" fill="#E4232F"/>
<path d="M27.3776 14.5333V14.7822H27.0754C27.0754 15.2178 27.0754 15.6711 27.0754 16.08H26.8531V14.7733C26.7465 14.7733 26.6487 14.7733 26.542 14.7733C26.4354 14.7733 26.542 14.6044 26.542 14.5244L27.3776 14.5333Z" fill="#464646"/>
<path d="M22.0796 16.0711H21.8574V14.7733C21.7596 14.7733 21.6618 14.7733 21.5552 14.7733V14.5244H22.373V14.7733H22.0707V15.4311C22.0796 15.6356 22.0796 15.8489 22.0796 16.0711Z" fill="#464646"/>
<path d="M7.91077 16.0711H7.68855C7.68855 15.6356 7.68855 15.1822 7.68855 14.7645H7.37744C7.38171 14.6815 7.38171 14.5985 7.37744 14.5156H8.19522V14.7645H7.893L7.91077 16.0711Z" fill="#E4232F"/>
<path d="M16.5688 14.7645H16.2666V14.5156C16.2666 14.5156 17.0399 14.5156 17.0844 14.5156V14.7645H16.7822C16.7822 15.2 16.7822 15.6533 16.7822 16.0711H16.5599C16.5777 15.6356 16.5866 15.2 16.5688 14.7645Z" fill="#E4222E"/>
<path d="M18.96 16.0711V14.5334H19.1822C19.1822 14.7467 19.1822 14.96 19.1822 15.1734C19.1822 15.3867 19.1822 15.6089 19.1822 15.8222C19.3332 15.8311 19.4845 15.8311 19.6355 15.8222C19.6536 15.9042 19.6536 15.9892 19.6355 16.0711C19.6355 16.0711 19.04 16.08 18.96 16.0711Z" fill="#464646"/>
<path d="M22.7374 16.0711H22.5151V14.5334H22.7374C22.7285 15.04 22.7285 15.5556 22.7374 16.0711Z" fill="#474646"/>
<path d="M15.0308 14.5333V16.0711H14.8086C14.8086 15.5556 14.8086 15.0489 14.8086 14.5333C14.8824 14.524 14.957 14.524 15.0308 14.5333Z" fill="#E42430"/>
<path d="M14.2222 16.0711H14C14 15.5556 14 15.04 14 14.5334H14.2222V16.0711Z" fill="#E42430"/>
<path d="M9.77779 16.0711H9.56445C9.56445 15.5556 9.56445 15.0489 9.56445 14.5334H9.77779V16.0711Z" fill="#E42430"/>
<path d="M17.2266 14.5244H17.4488V16.0711H17.2266C17.2384 15.5556 17.2384 15.04 17.2266 14.5244Z" fill="#E42430"/>
<path d="M5.37774 13.5645C5.36102 13.6086 5.33208 13.6471 5.29431 13.6754C5.25653 13.7038 5.21148 13.7208 5.16441 13.7245C4.77164 13.7719 4.38259 13.8461 3.99996 13.9467C3.72898 14.0105 3.46644 14.106 3.21774 14.2311L3.02218 14.3467L2.95996 14.2845C3.02188 14.2236 3.09046 14.1699 3.16441 14.1245C3.34461 14.0174 3.53916 13.9366 3.74218 13.8845C4.03373 13.7971 4.33065 13.7288 4.63107 13.68L5.17329 13.5911L5.37774 13.5645Z" fill="#241C1A"/>
<path d="M4.10632 15.3245L3.81298 15.2534L3.67965 15.2C3.44155 15.131 3.22052 15.0129 3.03076 14.8534L3.09298 14.7911C3.23498 14.8903 3.3907 14.9681 3.55521 15.0222C3.75076 15.0934 3.96409 15.1467 4.15965 15.2089H4.23965L4.10632 15.3245Z" fill="#241C1A"/>
<path d="M5.44887 16.2045L5.51109 16.2845V16.3289C5.3902 16.4186 5.25887 16.4932 5.11998 16.5511C4.93306 16.6419 4.73617 16.7105 4.53331 16.7556H4.47998L4.53331 16.6311C4.54783 16.6269 4.56324 16.6269 4.57776 16.6311C4.87301 16.5566 5.157 16.443 5.4222 16.2934L5.44887 16.2045Z" fill="#241C1A"/>
<path d="M5.56416 16.3467C5.56416 16.3467 5.56416 16.4089 5.56416 16.4445C5.53557 16.4966 5.49617 16.5421 5.4486 16.5778C5.35204 16.6582 5.24423 16.7241 5.1286 16.7733C4.92613 16.8606 4.7183 16.9348 4.50638 16.9956H4.37305V16.8889H4.44416L4.79971 16.7733L5.26194 16.5778C5.38266 16.5268 5.48936 16.4475 5.57305 16.3467H5.56416Z" fill="#FEFAFA"/>
<path d="M3.55553 16.8V16.8889C3.55553 16.8889 3.55553 16.9422 3.49331 16.9422L3.11997 16.9956C3.05211 17.0044 2.98339 17.0044 2.91553 16.9956V16.8889L3.55553 16.8Z" fill="#241C1A"/>
<path d="M3.64412 16.5244V16.6489L2.94189 16.7289V16.64H3.11078L3.48412 16.5956L3.64412 16.5244Z" fill="#FEFAFA"/>
<path d="M5.33308 16.1422C5.11242 16.2651 4.87623 16.3578 4.63086 16.4178C4.65534 16.3679 4.68844 16.3228 4.72864 16.2844C4.7727 16.2568 4.82063 16.2358 4.87086 16.2222L5.16419 16.1244C5.17735 16.1157 5.19282 16.111 5.20864 16.111C5.22446 16.111 5.23993 16.1157 5.25308 16.1244L5.33308 16.1422Z" fill="#FEFAFA"/>
<path d="M4.87096 13.9022V14.0178H4.79096L4.30207 14.1067L4.23096 14.0267C4.44155 13.9722 4.65529 13.9306 4.87096 13.9022Z" fill="#FEFAFA"/>
<path d="M3.55513 17.1911L2.95068 17.2622V17.1378L3.55513 17.0756V17.1911Z" fill="#FEFAFB"/>
<path d="M5.51082 15.76L5.43971 15.8133L5.25304 15.6978C5.23801 15.6902 5.22521 15.6788 5.21586 15.6648C5.20652 15.6508 5.20095 15.6346 5.19971 15.6178C5.2024 15.5793 5.2024 15.5407 5.19971 15.5022C5.32008 15.5658 5.42601 15.6535 5.51082 15.76Z" fill="#291F20"/>
<path d="M3.55537 14.7734V14.8711L3.14648 14.6756L3.22648 14.6311L3.55537 14.7734Z" fill="#FEF9F9"/>
<path d="M3.99963 17.1378L3.67074 17.2C3.6689 17.1757 3.67478 17.1514 3.68755 17.1307C3.70032 17.1099 3.71933 17.0938 3.74185 17.0845C3.78514 17.0661 3.83302 17.0613 3.87908 17.0708C3.92514 17.0804 3.9672 17.1037 3.99963 17.1378Z" fill="#FEF5F6"/>
<path d="M5.33307 15.8845L5.24418 15.9467L5.06641 15.8489V15.7511L5.33307 15.8845Z" fill="#FEF5F6"/>
<path d="M5.43967 16.0711L5.33301 16L5.41301 15.9378L5.47523 16L5.43967 16.0711Z" fill="#FEF5F6"/>
<path d="M3.02218 14.6133L2.95996 14.5511L3.01329 14.4889L3.10218 14.5422L3.02218 14.6133Z" fill="#FEF5F6"/>
<path d="M12.1953 14.7645C12.2568 14.7512 12.3205 14.7512 12.382 14.7645C12.416 14.7683 12.4478 14.7835 12.472 14.8078C12.4962 14.832 12.5115 14.8637 12.5153 14.8978C12.5328 14.9588 12.5328 15.0235 12.5153 15.0845C12.5109 15.1285 12.4902 15.1692 12.4574 15.1988C12.4245 15.2284 12.3818 15.2447 12.3375 15.2445H12.2042C12.2042 15.1111 12.1953 14.9245 12.1953 14.7645Z" fill="#FFFCFC"/>
</g>
<defs>
<clipPath id="clip0_2707_343543">
<rect width="32" height="32" fill="white"/>
</clipPath>
</defs>
</svg>
