<svg width="32" height="32" viewBox="0 0 32 32" fill="none" xmlns="http://www.w3.org/2000/svg">
<g clip-path="url(#clip0_2810_57173)">
<mask id="mask0_2810_57173" style="mask-type:luminance" maskUnits="userSpaceOnUse" x="0" y="-1" width="32" height="33">
<path d="M32 -0.0799866H0V31.92H32V-0.0799866Z" fill="white"/>
</mask>
<g mask="url(#mask0_2810_57173)">
<path d="M16 31.92C24.8366 31.92 32 24.7566 32 15.92C32 7.08346 24.8366 -0.0799866 16 -0.0799866C7.16344 -0.0799866 0 7.08346 0 15.92C0 24.7566 7.16344 31.92 16 31.92Z" fill="white"/>
<mask id="mask1_2810_57173" style="mask-type:luminance" maskUnits="userSpaceOnUse" x="2" y="2" width="28" height="28">
<path d="M2.66699 15.92C2.66699 18.5571 3.44898 21.135 4.91406 23.3276C6.37915 25.5203 8.46153 27.2292 10.8979 28.2384C13.3342 29.2476 16.0151 29.5116 18.6015 28.9971C21.1879 28.4827 23.5637 27.2128 25.4284 25.3481C27.2931 23.4834 28.563 21.1076 29.0775 18.5212C29.5919 15.9348 29.3279 13.2539 28.3187 10.8176C27.3096 8.38121 25.6006 6.29883 23.4079 4.83374C21.2153 3.36866 18.6374 2.58667 16.0003 2.58667C12.4641 2.58667 9.07272 3.99143 6.57224 6.49191C4.07175 8.9924 2.66699 12.3838 2.66699 15.92Z" fill="white"/>
</mask>
<g mask="url(#mask1_2810_57173)">
<path d="M29.3337 15.92C29.3337 18.5571 28.5517 21.135 27.0866 23.3276C25.6215 25.5203 23.5391 27.2292 21.1028 28.2384C18.6664 29.2476 15.9855 29.5116 13.3991 28.9971C10.8127 28.4827 8.43694 27.2128 6.57224 25.3481C4.70754 23.4834 3.43766 21.1076 2.92319 18.5212C2.40872 15.9348 2.67277 13.2539 3.68194 10.8176C4.69111 8.38121 6.40007 6.29883 8.59273 4.83374C10.7854 3.36866 13.3632 2.58667 16.0003 2.58667C17.7513 2.58667 19.4851 2.93155 21.1028 3.60161C22.7205 4.27167 24.1903 5.2538 25.4284 6.49191C26.6665 7.73003 27.6487 9.19988 28.3187 10.8176C28.9888 12.4352 29.3337 14.169 29.3337 15.92Z" fill="white"/>
</g>
<path d="M16.0003 29.3334C23.3641 29.3334 29.3337 23.3638 29.3337 16C29.3337 8.63622 23.3641 2.66669 16.0003 2.66669C8.63653 2.66669 2.66699 8.63622 2.66699 16C2.66699 23.3638 8.63653 29.3334 16.0003 29.3334Z" fill="#704323"/>
<path d="M16.0003 28.8978C23.1236 28.8978 28.8981 23.1233 28.8981 16C28.8981 8.87677 23.1236 3.10223 16.0003 3.10223C8.87707 3.10223 3.10254 8.87677 3.10254 16C3.10254 23.1233 8.87707 28.8978 16.0003 28.8978Z" fill="white"/>
<path d="M16.0004 28.4711C22.888 28.4711 28.4715 22.8876 28.4715 16C28.4715 9.11241 22.888 3.5289 16.0004 3.5289C9.1128 3.5289 3.5293 9.11241 3.5293 16C3.5293 22.8876 9.1128 28.4711 16.0004 28.4711Z" fill="url(#paint0_linear_2810_57173)"/>
<path d="M15.9996 11.6445L17.0396 13.7511L19.3596 14.0889L17.6796 15.7245L18.0708 18.0356L15.9996 16.9422L13.9285 18.0356L14.3196 15.7245L12.6396 14.0889L14.9596 13.7511L15.9996 11.6445Z" fill="url(#paint1_linear_2810_57173)"/>
<path d="M7.56414 9.50223L7.88414 10.4445L8.84414 10.7022L8.05303 11.3067L8.09748 12.2933L7.2797 11.7245L6.35526 12.08L6.6397 11.1289L6.02637 10.3556L7.01303 10.3289L7.56414 9.50223Z" fill="#FBCB15"/>
<path d="M24.2576 9.50223L23.9287 10.4445L22.9688 10.7022L23.7599 11.3067L23.7154 12.2933L24.5332 11.7245L25.4576 12.08L25.1732 11.1289L25.7954 10.3556L24.7999 10.3289L24.2576 9.50223Z" fill="#FBCB15"/>
<path d="M11.2092 8.57779L11.8047 8.33779C11.8602 8.55395 11.8414 8.78247 11.7514 8.98668C11.6498 9.19972 11.4854 9.37653 11.2803 9.49335C11.136 9.59497 10.9693 9.66018 10.7944 9.6834C10.6195 9.70661 10.4416 9.68715 10.2758 9.62668C10.0102 9.50492 9.7894 9.30283 9.64472 9.0489C9.44678 8.76743 9.36701 8.41961 9.4225 8.08001C9.44827 7.93455 9.50638 7.79674 9.59254 7.67674C9.67869 7.55673 9.79069 7.45761 9.92027 7.38668C10.0478 7.2967 10.1941 7.23711 10.3482 7.21245C10.5023 7.1878 10.66 7.19875 10.8092 7.24446C11.1714 7.38455 11.469 7.65367 11.6447 8.00001L10.2847 8.8889C10.3641 9.02976 10.4946 9.13476 10.6492 9.18223C10.7146 9.19997 10.7829 9.20438 10.8501 9.19522C10.9173 9.18606 10.982 9.16351 11.0403 9.1289C11.1198 9.08139 11.182 9.00977 11.2181 8.92446C11.256 8.81145 11.2528 8.6887 11.2092 8.57779ZM10.8981 8.00001C10.8234 7.86762 10.7034 7.76661 10.5603 7.71557C10.5008 7.69743 10.438 7.6928 10.3765 7.70203C10.315 7.71126 10.2563 7.7341 10.2047 7.7689C10.1489 7.8024 10.101 7.84753 10.0642 7.90121C10.0273 7.9549 10.0025 8.01588 9.99138 8.08001C9.96914 8.22666 10.0042 8.37624 10.0892 8.49779L10.8981 8.00001Z" fill="url(#paint2_radial_2810_57173)"/>
<path d="M12.3913 8.00002L12.9869 7.75113C13.0325 7.85422 13.1149 7.93662 13.218 7.98224C13.3329 8.02364 13.4586 8.02364 13.5735 7.98224C13.7026 7.95626 13.8206 7.89107 13.9113 7.79557C13.9269 7.76693 13.935 7.73484 13.935 7.70224C13.935 7.66964 13.9269 7.63756 13.9113 7.60891C13.908 7.58816 13.8998 7.56849 13.8875 7.55149C13.8751 7.5345 13.8589 7.52067 13.8402 7.51113C13.7674 7.49192 13.6908 7.49192 13.618 7.51113C13.2767 7.55178 12.931 7.53374 12.5957 7.4578C12.4932 7.42426 12.4009 7.36498 12.3277 7.28561C12.2546 7.20624 12.203 7.10944 12.178 7.00446C12.1537 6.90755 12.1507 6.80654 12.1691 6.70836C12.1875 6.61017 12.2269 6.51712 12.2846 6.43557C12.4622 6.22568 12.7074 6.08423 12.978 6.03557C13.2219 5.96544 13.4807 5.96544 13.7246 6.03557C13.9141 6.10513 14.072 6.2409 14.1691 6.4178L13.6091 6.67557C13.5699 6.59282 13.4996 6.52891 13.4135 6.4978C13.3121 6.46688 13.2038 6.46688 13.1024 6.4978C12.9806 6.52114 12.8671 6.57635 12.7735 6.6578C12.7545 6.67564 12.7403 6.69812 12.7326 6.72305C12.7248 6.74797 12.7236 6.77449 12.7291 6.80002C12.738 6.82202 12.7513 6.84201 12.7681 6.8588C12.7849 6.8756 12.8049 6.88886 12.8269 6.8978C13.0306 6.92264 13.2365 6.92264 13.4402 6.8978C13.6962 6.87541 13.9539 6.90877 14.1957 6.99557C14.2761 7.03567 14.3465 7.09318 14.4019 7.16391C14.4572 7.23464 14.4961 7.31681 14.5157 7.40446C14.5408 7.51104 14.5426 7.62175 14.5211 7.7291C14.4997 7.83644 14.4554 7.93793 14.3913 8.02668C14.2022 8.25175 13.9419 8.40543 13.6535 8.46224C13.393 8.543 13.1141 8.543 12.8535 8.46224C12.6463 8.37247 12.4811 8.20721 12.3913 8.00002Z" fill="url(#paint3_radial_2810_57173)"/>
<path d="M16.5334 5.70669V6.22224H16.0979V7.18224C16.0882 7.2976 16.0882 7.41356 16.0979 7.52891C16.1051 7.56128 16.1241 7.58981 16.1512 7.60891C16.1862 7.61794 16.2229 7.61794 16.2579 7.60891C16.3468 7.60372 16.4341 7.58264 16.5157 7.54669L16.5779 8.04447C16.4171 8.11019 16.2449 8.14342 16.0712 8.14224C15.9652 8.14317 15.8598 8.12511 15.7601 8.08891C15.6981 8.0716 15.6406 8.0413 15.5912 8.00002C15.5443 7.92754 15.5139 7.84559 15.5023 7.76002C15.4886 7.60922 15.4886 7.45749 15.5023 7.30669V6.22224H15.209V5.72447H15.5023V5.24447L16.1334 4.86224V5.75113L16.5334 5.70669Z" fill="url(#paint4_radial_2810_57173)"/>
<path d="M18.6667 7.71558L19.2889 8.00003C19.176 8.19437 19.0005 8.34475 18.7912 8.42669C18.5717 8.49862 18.3351 8.49862 18.1156 8.42669C17.9404 8.39971 17.7748 8.3295 17.6335 8.22242C17.4923 8.11533 17.38 7.97474 17.3067 7.81336C17.2051 7.52578 17.2051 7.21204 17.3067 6.92447C17.3588 6.60356 17.5263 6.31273 17.7778 6.10669C17.906 6.01813 18.052 5.9587 18.2055 5.9326C18.3591 5.90649 18.5165 5.91434 18.6667 5.95558C18.822 5.98611 18.9687 6.05054 19.0962 6.14426C19.2237 6.23799 19.329 6.35871 19.4045 6.4978C19.5476 6.86049 19.5476 7.264 19.4045 7.62669L17.8578 7.25336C17.8162 7.41068 17.8319 7.57771 17.9023 7.72447C17.9388 7.78305 17.9868 7.8337 18.0433 7.8734C18.0998 7.9131 18.1637 7.94105 18.2312 7.95558C18.3142 7.98698 18.4059 7.98698 18.4889 7.95558C18.5706 7.89487 18.6324 7.81137 18.6667 7.71558ZM18.8445 7.10225C18.9009 6.95947 18.9009 6.80057 18.8445 6.6578C18.8134 6.60362 18.7711 6.55661 18.7206 6.51985C18.67 6.48309 18.6123 6.45741 18.5512 6.44447C18.4896 6.42747 18.425 6.42424 18.362 6.43499C18.299 6.44575 18.2392 6.47022 18.1867 6.50669C18.0663 6.59835 17.9839 6.73132 17.9556 6.88002L18.8445 7.10225Z" fill="url(#paint5_radial_2810_57173)"/>
<path d="M21.3331 8.88891L21.8309 9.30669C21.6648 9.45916 21.4515 9.55013 21.2265 9.56447C20.9941 9.57496 20.7642 9.51283 20.5687 9.38669C20.4085 9.31165 20.2699 9.19733 20.1658 9.05435C20.0617 8.91137 19.9954 8.74438 19.9731 8.56891C19.9524 8.27469 20.0272 7.98162 20.1865 7.73336C20.3524 7.43592 20.626 7.21329 20.9509 7.11114C21.0977 7.0616 21.2536 7.04547 21.4074 7.06393C21.5612 7.08238 21.7089 7.13495 21.8398 7.2178C21.9798 7.29329 22.1016 7.39841 22.1968 7.52584C22.292 7.65326 22.3582 7.79992 22.3909 7.95558C22.4242 8.34036 22.3203 8.72452 22.0976 9.04003L20.7198 8.23114C20.6334 8.36866 20.6016 8.53359 20.6309 8.69336C20.6455 8.76082 20.6746 8.82433 20.716 8.87955C20.7574 8.93477 20.8102 8.98041 20.8709 9.01336C20.9478 9.0611 21.0392 9.08 21.1287 9.06669C21.2128 9.02873 21.2839 8.96691 21.3331 8.88891ZM21.6976 8.35558C21.779 8.22598 21.8106 8.07119 21.7865 7.92003C21.754 7.79927 21.678 7.69479 21.5731 7.62669C21.5143 7.60073 21.4507 7.58732 21.3865 7.58732C21.3222 7.58732 21.2586 7.60073 21.1998 7.62669C21.1288 7.64978 21.0631 7.68684 21.0066 7.73569C20.9501 7.78454 20.904 7.84419 20.8709 7.91114L21.6976 8.35558Z" fill="url(#paint6_radial_2810_57173)"/>
<path d="M10.1867 18.5778L10.4712 18.4267L10.8534 19.1733L10.169 19.52C10.0447 19.4654 9.9305 19.3903 9.83119 19.2978C9.70934 19.1943 9.60958 19.0673 9.53785 18.9244C9.45178 18.7633 9.40891 18.5826 9.41341 18.4C9.41515 18.2311 9.47476 18.068 9.5823 17.9378C9.6892 17.8021 9.82375 17.6907 9.977 17.611C10.1303 17.5313 10.2987 17.4852 10.4712 17.4756C10.647 17.4755 10.8183 17.5316 10.9601 17.6356C11.0972 17.7482 11.2063 17.8911 11.2788 18.0531C11.3513 18.215 11.3852 18.3916 11.3779 18.5689C11.3428 18.7338 11.2517 18.8814 11.1201 18.9867L10.9245 18.6667C10.9932 18.604 11.0373 18.5189 11.049 18.4267C11.0656 18.3285 11.0467 18.2277 10.9956 18.1422C10.9624 18.0763 10.9162 18.0179 10.8596 17.9705C10.803 17.9231 10.7374 17.8878 10.6667 17.8667C10.4984 17.834 10.3239 17.8657 10.1779 17.9556C10.0074 18.0253 9.86834 18.1549 9.78674 18.32C9.75435 18.388 9.73755 18.4624 9.73755 18.5378C9.73755 18.6131 9.75435 18.6875 9.78674 18.7556C9.82412 18.8273 9.8755 18.8907 9.93785 18.9422C9.99625 18.9983 10.062 19.0462 10.1334 19.0844L10.3556 18.9689L10.1867 18.5778Z" fill="url(#paint7_radial_2810_57173)"/>
<path d="M11.0043 19.5556C11.117 19.4301 11.2528 19.3275 11.4043 19.2534C11.4986 19.208 11.6018 19.1837 11.7065 19.1822C11.8059 19.1594 11.9093 19.1594 12.0087 19.1822C12.1412 19.2312 12.2622 19.3068 12.3643 19.4045C12.4618 19.4833 12.5415 19.5819 12.5981 19.6937C12.6548 19.8056 12.6872 19.9281 12.6932 20.0534C12.6884 20.3206 12.58 20.5756 12.3909 20.7645C12.2223 20.9698 11.9796 21.1007 11.7154 21.1289C11.4678 21.1306 11.2284 21.0407 11.0431 20.8767C10.8577 20.7126 10.7394 20.4859 10.7109 20.24C10.7165 19.9825 10.8216 19.7372 11.0043 19.5556ZM11.3065 19.8134C11.1802 19.939 11.1043 20.1066 11.0932 20.2845C11.0919 20.3566 11.1064 20.4282 11.1356 20.4942C11.1647 20.5602 11.2079 20.619 11.262 20.6667C11.3143 20.7145 11.3764 20.7505 11.4439 20.7719C11.5114 20.7934 11.5828 20.8 11.6532 20.7911C11.8296 20.7613 11.9883 20.6661 12.0976 20.5245C12.228 20.4045 12.3076 20.2391 12.3198 20.0622C12.3205 19.9906 12.3049 19.9197 12.2741 19.855C12.2433 19.7903 12.1981 19.7335 12.142 19.6889C12.0903 19.6393 12.0288 19.6011 11.9615 19.5766C11.8941 19.5521 11.8224 19.5419 11.7509 19.5467C11.5824 19.5699 11.4262 19.648 11.3065 19.7689V19.8134Z" fill="url(#paint8_radial_2810_57173)"/>
<path d="M12.3643 21.8045L13.1376 20.0267L13.4843 20.1778L12.8443 21.6178L13.7331 22.0089L13.6087 22.3022L12.3643 21.8045Z" fill="url(#paint9_radial_2810_57173)"/>
<path d="M14.4182 20.6222L15.1204 20.6933C15.2451 20.7027 15.3678 20.7296 15.4849 20.7733C15.5896 20.8179 15.6813 20.8883 15.7515 20.9778C15.8208 21.0766 15.8692 21.1885 15.8938 21.3067C15.9216 21.4595 15.9216 21.6161 15.8938 21.7689C15.8795 21.907 15.8435 22.042 15.7871 22.1689C15.7299 22.2883 15.6481 22.3943 15.5471 22.48C15.4618 22.5405 15.365 22.5829 15.2627 22.6044C15.1475 22.618 15.0311 22.618 14.916 22.6044L14.2227 22.5244L14.4182 20.6222ZM14.7738 20.9867L14.6315 22.2222H14.916C14.9958 22.2304 15.0762 22.2304 15.156 22.2222C15.214 22.2164 15.2693 22.1949 15.316 22.16C15.3724 22.1127 15.4153 22.0514 15.4404 21.9822C15.4833 21.8745 15.5073 21.7603 15.5115 21.6444C15.5297 21.5296 15.5297 21.4126 15.5115 21.2978C15.4984 21.2263 15.4678 21.1592 15.4227 21.1022C15.3774 21.0516 15.3189 21.0147 15.2538 20.9956C15.1518 20.9686 15.0477 20.9507 14.9427 20.9422L14.7738 20.9867Z" fill="url(#paint10_radial_2810_57173)"/>
<path d="M17.3867 22.48L16.7822 20.7022L18.0267 20.2845L18.1244 20.5867L17.2356 20.88L17.3778 21.3156L18.1333 21.0578L18.24 21.3689L17.4756 21.6178L17.7422 22.3911L17.3867 22.48Z" fill="url(#paint11_radial_2810_57173)"/>
<path d="M19.2352 21.76L18.1152 20.1956L19.2708 19.3778L19.4575 19.6356L18.6219 20.24L18.8708 20.5867L19.653 20.0267L19.8397 20.2844L19.0575 20.8444L19.3597 21.2711L20.2486 20.6489L20.4352 20.9067L19.2352 21.76Z" fill="url(#paint12_radial_2810_57173)"/>
<path d="M20.9157 20.4445L19.3779 19.2622L20.2668 18.1245L20.5246 18.32L19.9024 19.1467L20.249 19.4045L20.8179 18.6311L21.0846 18.8267L20.4446 19.5556L20.8624 19.8667L21.5024 18.9778L21.7602 19.1733L20.9157 20.4445Z" fill="url(#paint13_radial_2810_57173)"/>
<path d="M22.2227 18.2311L20.7293 17.6889L20.5338 18.2222L20.2227 18.1067L20.7471 16.6844L21.0493 16.7911L20.8538 17.3244L22.3471 17.8667L22.2227 18.2311Z" fill="url(#paint14_radial_2810_57173)"/>
<path d="M16.0621 24.7378C17.351 24.7378 18.6221 24.5956 19.7421 24.4533C20.9282 24.315 22.0381 23.7975 22.9065 22.9778C23.7598 22.2077 24.4491 21.2736 24.9332 20.2311C25.5348 18.7709 25.6834 17.1636 25.3599 15.6178C25.2767 15.1606 25.1638 14.7092 25.0221 14.2667C25.082 14.1887 25.1217 14.0971 25.1376 14C25.1597 13.8915 25.1597 13.7796 25.1376 13.6711C25.0785 13.4407 24.9658 13.2275 24.8088 13.0489C24.6728 12.8875 24.5141 12.7468 24.3376 12.6311C24.2887 12.5894 24.235 12.5536 24.1776 12.5244H24.1243V12.5956C24.1243 12.5956 24.1243 12.7111 24.1243 12.7911C24.1243 12.8711 24.1776 13.1644 24.231 13.3778C24.2523 13.4866 24.282 13.5936 24.3199 13.6978C24.3199 13.7511 24.3643 13.8044 24.3821 13.8489L24.4621 13.9911C24.5214 14.0757 24.5933 14.1507 24.6754 14.2133C24.7447 14.2605 24.8193 14.2993 24.8976 14.3289C25.1791 15.1553 25.3436 16.0169 25.3865 16.8889C25.4626 17.991 25.2926 19.0962 24.8888 20.1244C24.3835 21.2356 23.6436 22.2242 22.7199 23.0222C22.0375 23.6374 21.2025 24.0579 20.3021 24.24C19.4832 24.3863 18.6539 24.4666 17.8221 24.48C17.1999 24.48 16.471 24.48 15.751 24.48" fill="#FDEF02"/>
<path d="M19.0933 25.6622C19.3334 25.7085 19.578 25.7264 19.8222 25.7156H20.1422L19.9111 25.52C19.7395 25.3693 19.5584 25.2297 19.3689 25.1022C19.1729 24.9499 18.9538 24.8299 18.72 24.7467C18.6125 24.7042 18.4978 24.683 18.3822 24.6845C18.2555 24.6776 18.1286 24.6957 18.0089 24.7378C18.007 24.863 18.037 24.9866 18.0961 25.0971C18.1552 25.2075 18.2414 25.301 18.3467 25.3689C18.5699 25.5223 18.8253 25.6226 19.0933 25.6622Z" fill="#FDEF02"/>
<path d="M18.1864 24.3556C18.2949 24.3776 18.4068 24.3776 18.5153 24.3556C18.7403 24.2884 18.945 24.1662 19.1109 24C19.254 23.8468 19.382 23.6801 19.4931 23.5022L19.582 23.3333V23.2622H19.342C19.1617 23.2961 18.9836 23.3406 18.8086 23.3956C18.6048 23.4546 18.4124 23.5478 18.2397 23.6711C18.0562 23.803 17.9192 23.9897 17.8486 24.2045C17.9376 24.2964 18.0586 24.3505 18.1864 24.3556Z" fill="#FDEF02"/>
<path d="M21.4489 24.6222C21.2193 24.5266 20.9765 24.4666 20.7289 24.4444C20.6157 24.4288 20.5005 24.4364 20.3904 24.467C20.2804 24.4976 20.1777 24.5504 20.0889 24.6222C20.1186 24.7391 20.1761 24.847 20.2566 24.9368C20.3371 25.0266 20.4381 25.0956 20.5511 25.1378C20.7951 25.2404 21.061 25.2801 21.3244 25.2533C21.5752 25.2421 21.8233 25.1972 22.0622 25.12L22.2933 25.0311L22.3822 24.9867L22.0889 24.8889C21.92 24.8 21.6889 24.7022 21.4489 24.6222Z" fill="#FDEF02"/>
<path d="M19.8225 24.1156C19.9254 24.1597 20.0376 24.1779 20.1491 24.1686C20.2607 24.1593 20.3683 24.1228 20.4625 24.0622C20.6606 23.9368 20.8229 23.7622 20.9336 23.5556C21.0347 23.3776 21.1095 23.186 21.1558 22.9867C21.1558 22.9067 21.1558 22.8444 21.1558 22.7911V22.72H21.1025L20.9603 22.7911C20.8447 22.8533 20.6758 22.9422 20.5069 23.0489C20.3207 23.1546 20.1551 23.2931 20.0181 23.4578C19.9435 23.549 19.8878 23.6541 19.8542 23.767C19.8207 23.88 19.8099 23.9984 19.8225 24.1156Z" fill="#FDEF02"/>
<path d="M23.3868 24.1511L23.4935 24.0978H23.5468L23.6979 24L23.9468 23.8045L24.1157 23.6622L24.1779 23.6H23.8757C23.6537 23.5866 23.431 23.5866 23.209 23.6H23.0223H22.8268H22.6401L22.4623 23.6445C22.2354 23.6995 22.0363 23.8354 21.9023 24.0267C21.9698 24.1289 22.0606 24.2136 22.1672 24.2739C22.2739 24.3342 22.3933 24.3683 22.5157 24.3733C22.8213 24.384 23.1236 24.3069 23.3868 24.1511Z" fill="#FDEF02"/>
<path d="M22.3825 22.6578C22.4008 22.4478 22.4008 22.2367 22.3825 22.0267C22.3825 21.9467 22.3825 21.8756 22.3825 21.8311C22.3787 21.8046 22.3787 21.7777 22.3825 21.7511L22.338 21.8045L22.2047 21.9378C22.1477 22.003 22.0942 22.0712 22.0447 22.1422C21.9845 22.2143 21.9309 22.2916 21.8847 22.3734C21.789 22.5375 21.7087 22.7101 21.6447 22.8889C21.5729 23.1023 21.5729 23.3333 21.6447 23.5467C21.7545 23.5612 21.8662 23.5458 21.9679 23.502C22.0696 23.4581 22.1576 23.3876 22.2225 23.2978C22.2572 23.2538 22.287 23.2061 22.3113 23.1556C22.3403 23.1079 22.3642 23.0572 22.3825 23.0045C22.3858 22.9482 22.3858 22.8918 22.3825 22.8356V22.6578Z" fill="#FDEF02"/>
<path d="M25.4403 21.9289L25.4848 21.8578H25.1826C24.9613 21.8877 24.7417 21.9292 24.5248 21.9822C24.2873 22.0316 24.0592 22.1186 23.8492 22.24C23.7985 22.2674 23.7508 22.3002 23.707 22.3378C23.6642 22.3717 23.6254 22.4105 23.5914 22.4533C23.5231 22.5428 23.4746 22.6459 23.4492 22.7556C23.5444 22.8276 23.6543 22.8778 23.7711 22.9024C23.8879 22.927 24.0087 22.9254 24.1248 22.8978C24.1833 22.8882 24.2402 22.8702 24.2937 22.8445L24.4714 22.7733C24.5863 22.7106 24.6962 22.6393 24.8003 22.56C24.9833 22.4153 25.1501 22.2514 25.2981 22.0711L25.4403 21.9289Z" fill="#FDEF02"/>
<path d="M22.9781 22.3911C23.0871 22.3665 23.188 22.3145 23.2714 22.24L23.3781 22.1156C23.4099 22.0713 23.4367 22.0236 23.4581 21.9733C23.5366 21.7542 23.5669 21.5208 23.5469 21.2889C23.5307 21.0801 23.4889 20.8741 23.4225 20.6756C23.4033 20.6117 23.3795 20.5493 23.3514 20.4889V20.4267V20.48C23.3156 20.5251 23.2829 20.5726 23.2536 20.6222C23.1825 20.7467 23.0936 20.9333 23.0047 21.12C22.9599 21.2203 22.9242 21.3244 22.8981 21.4311C22.9022 21.4576 22.9022 21.4846 22.8981 21.5111C22.8981 21.5111 22.8981 21.5644 22.8981 21.5911C22.8937 21.6444 22.8937 21.6979 22.8981 21.7511C22.8437 21.9669 22.8722 22.1953 22.9781 22.3911Z" fill="#FDEF02"/>
<path d="M25.4846 20.2933L25.3246 20.3822L25.1646 20.4711C25.0611 20.5298 24.9655 20.6015 24.8801 20.6844C24.8376 20.7194 24.8015 20.7615 24.7735 20.8089L24.6757 20.9422C24.6294 21.0461 24.6023 21.1576 24.5957 21.2711C24.7044 21.3213 24.8227 21.3473 24.9424 21.3473C25.0621 21.3473 25.1804 21.3213 25.289 21.2711L25.449 21.1822C25.503 21.152 25.5536 21.1163 25.6001 21.0756C25.7015 20.9875 25.7966 20.8925 25.8846 20.7911C25.928 20.7447 25.9667 20.694 26.0001 20.64L26.1068 20.48C26.1683 20.39 26.2218 20.2948 26.2668 20.1956C26.3468 20.0267 26.3913 19.9022 26.3913 19.9022L26.1068 20.0089C25.9468 20.0889 25.7068 20.1778 25.4846 20.2933Z" fill="#FDEF02"/>
<path d="M24.3379 20.72C24.3729 20.6778 24.4 20.6296 24.4179 20.5778C24.442 20.5306 24.457 20.4794 24.4623 20.4267C24.4756 20.3145 24.4756 20.2011 24.4623 20.0889C24.4584 20.0594 24.4584 20.0295 24.4623 20C24.4582 19.9705 24.4582 19.9406 24.4623 19.9111L24.409 19.7422C24.3774 19.639 24.3388 19.538 24.2934 19.44C24.2736 19.3936 24.2498 19.349 24.2223 19.3067L24.1512 19.1911C24.1037 19.113 24.0502 19.0388 23.9912 18.9689C23.9618 19.041 23.938 19.1153 23.9201 19.1911C23.9227 19.2266 23.9227 19.2623 23.9201 19.2978C23.923 19.3392 23.923 19.3808 23.9201 19.4222L23.8668 19.7067C23.8428 19.8089 23.8279 19.913 23.8223 20.0178L23.8213 20.0161C23.8213 20.1769 23.8213 20.1769 23.8213 20.3376L23.8223 20.3378C23.8545 20.5656 23.9682 20.774 24.1423 20.9245C24.2232 20.8733 24.2904 20.8031 24.3379 20.72Z" fill="#FDEF02"/>
<path d="M25.5292 18.9156C25.4703 19.0061 25.4253 19.105 25.3959 19.2089C25.3915 19.2651 25.3915 19.3216 25.3959 19.3778C25.3876 19.4338 25.3876 19.4907 25.3959 19.5467C25.5111 19.5743 25.6312 19.575 25.7468 19.5488C25.8624 19.5226 25.9704 19.4702 26.0625 19.3956C26.1623 19.3149 26.2519 19.2224 26.3292 19.12C26.4061 19.0146 26.4717 18.9014 26.5247 18.7822C26.5571 18.7257 26.5839 18.6662 26.6047 18.6045C26.6047 18.5422 26.6492 18.48 26.667 18.4267C26.6847 18.3733 26.7292 18.1956 26.747 18.1067C26.7672 18.0038 26.7821 17.9 26.7914 17.7956L26.5514 17.9645L26.3025 18.16L26.0181 18.3822C25.9292 18.4711 25.8314 18.5511 25.7514 18.64C25.6673 18.7233 25.5928 18.8157 25.5292 18.9156Z" fill="#FDEF02"/>
<path d="M25.0931 18.7111C25.0844 18.5979 25.0574 18.4868 25.0131 18.3822L24.9509 18.2222L24.862 18.0711C24.7488 17.9007 24.6144 17.7454 24.462 17.6089C24.3963 17.546 24.3249 17.4895 24.2487 17.44C24.2487 17.44 24.2487 17.5289 24.2487 17.6622C24.2487 17.7956 24.2487 17.8133 24.2487 17.9022L24.248 17.9032C24.248 18.0437 24.248 18.0437 24.248 18.1842C24.2487 18.2844 24.2487 18.3911 24.2487 18.4889C24.2677 18.5935 24.3006 18.6951 24.3464 18.7911C24.4334 19.0007 24.5905 19.1735 24.7909 19.28C24.8364 19.2461 24.8781 19.2073 24.9153 19.1644C24.9504 19.1223 24.9775 19.0741 24.9953 19.0222C25.0468 18.9254 25.08 18.82 25.0931 18.7111Z" fill="#FDEF02"/>
<path d="M26.6669 15.6622L26.4713 15.8933C26.3557 16.0356 26.2046 16.2222 26.0624 16.4178C25.9202 16.6133 25.9291 16.6311 25.8669 16.7378C25.8034 16.8334 25.7554 16.9384 25.7246 17.0489C25.7057 17.101 25.6909 17.1545 25.6802 17.2089C25.6758 17.2621 25.6758 17.3157 25.6802 17.3689C25.6717 17.4219 25.6717 17.4759 25.6802 17.5289C25.6898 17.5874 25.7078 17.6443 25.7335 17.6978C25.8555 17.6951 25.9748 17.6614 26.0802 17.6C26.1828 17.5442 26.2734 17.4687 26.3469 17.3778C26.3846 17.3278 26.4173 17.2742 26.4446 17.2178C26.4801 17.1661 26.5072 17.1091 26.5246 17.0489C26.5752 16.9285 26.6139 16.8035 26.6402 16.6756C26.6716 16.4518 26.6806 16.2255 26.6669 16C26.6669 15.9111 26.6669 15.8311 26.6669 15.7778V15.6622Z" fill="#FDEF02"/>
<path d="M25.2893 17.0667C25.3018 17.0141 25.3018 16.9593 25.2893 16.9067C25.2534 16.8021 25.2025 16.7033 25.1382 16.6134C25.0677 16.5163 24.9839 16.4295 24.8893 16.3556L24.7649 16.24L24.6316 16.1511C24.5552 16.0952 24.475 16.0448 24.3916 16L24.2138 15.9111H24.1427V15.9734C24.136 16.0295 24.136 16.0861 24.1427 16.1422C24.1448 16.1778 24.1448 16.2134 24.1427 16.2489C24.1438 16.2696 24.1438 16.2904 24.1427 16.3111V16.3734C24.1635 16.4668 24.1902 16.5588 24.2227 16.6489C24.2567 16.7439 24.2983 16.8361 24.3471 16.9245C24.3471 16.9245 24.3471 16.9245 24.3471 16.9956C24.3471 17.0667 24.3471 17.04 24.3471 17.0667C24.3769 17.1103 24.4096 17.1519 24.4449 17.1911C24.5107 17.2761 24.5885 17.3509 24.676 17.4134C24.7785 17.4736 24.8893 17.5185 25.0049 17.5467C25.0377 17.5013 25.0674 17.4538 25.0938 17.4045C25.0979 17.3512 25.0979 17.2977 25.0938 17.2445C25.1761 17.2074 25.2446 17.1452 25.2893 17.0667Z" fill="#FDEF02"/>
<path d="M25.6002 15.8311C25.7138 15.7974 25.8188 15.7394 25.9078 15.6612C25.9969 15.5829 26.0678 15.4862 26.1157 15.3778C26.1629 15.2638 26.1957 15.1443 26.2135 15.0222C26.2271 14.8922 26.2271 14.7611 26.2135 14.6311C26.2135 14.5067 26.2135 14.3822 26.1691 14.2667C26.1525 14.1615 26.1288 14.0575 26.098 13.9556C26.0821 13.8831 26.0613 13.8118 26.0357 13.7422V13.6711L25.8846 13.9289L25.778 14.2222C25.7506 14.2738 25.7268 14.3273 25.7069 14.3822L25.6269 14.5511C25.5318 14.769 25.4689 14.9996 25.4402 15.2356C25.4223 15.3415 25.4223 15.4496 25.4402 15.5556C25.4728 15.658 25.5274 15.752 25.6002 15.8311Z" fill="#FDEF02"/>
<path d="M24.9779 15.1111C24.8489 14.9205 24.6749 14.7648 24.4712 14.6578C24.379 14.5997 24.2806 14.552 24.1779 14.5156L23.9112 14.4178L23.6445 14.3556V14.4178C23.6712 14.4698 23.6949 14.5232 23.7156 14.5778C23.7156 14.64 23.7868 14.7111 23.8223 14.7911C23.8744 14.9016 23.9338 15.0085 24.0001 15.1111L24.1779 15.36C24.2483 15.4407 24.3256 15.5151 24.409 15.5822C24.5891 15.7218 24.8123 15.7942 25.0401 15.7867C25.0836 15.6859 25.1019 15.5761 25.0934 15.4667C25.0805 15.3413 25.0412 15.2201 24.9779 15.1111Z" fill="#FDEF02"/>
<path d="M15.8047 24.7378C14.5158 24.7378 13.2447 24.5956 12.1247 24.4533C10.9385 24.315 9.8287 23.7975 8.96023 22.9778C8.10695 22.2077 7.41766 21.2736 6.93356 20.2311C6.332 18.7709 6.18335 17.1636 6.5069 15.6178C6.59008 15.1606 6.70291 14.7092 6.84467 14.2667C6.78472 14.1887 6.74502 14.0971 6.72912 14C6.70709 13.8915 6.70709 13.7796 6.72912 13.6711C6.78825 13.4407 6.90093 13.2275 7.05801 13.0489C7.19398 12.8875 7.35267 12.7468 7.52912 12.6311C7.57807 12.5894 7.63177 12.5536 7.68912 12.5244H7.74245V12.5956C7.74245 12.5956 7.74245 12.7111 7.74245 12.7911C7.74245 12.8711 7.68912 13.1644 7.63578 13.3778C7.61445 13.4866 7.58473 13.5936 7.54689 13.6978C7.54689 13.7511 7.50245 13.8044 7.48467 13.8489L7.40467 13.9911C7.34541 14.0757 7.27345 14.1507 7.19134 14.2133C7.1221 14.2605 7.04751 14.2993 6.96912 14.3289C6.68768 15.1553 6.52312 16.0169 6.48023 16.8889C6.4196 17.9913 6.60481 19.0935 7.02245 20.1156C7.52771 21.2267 8.26764 22.2153 9.19134 23.0133C9.87366 23.6285 10.7087 24.049 11.6091 24.2311C12.428 24.3774 13.2574 24.4577 14.0891 24.4711C14.7113 24.4711 15.4402 24.4711 16.1602 24.4711" fill="#FDEF02"/>
<path d="M12.7735 25.6622C12.5335 25.7085 12.2888 25.7264 12.0446 25.7156H11.7246L11.9557 25.52C12.1273 25.3693 12.3084 25.2297 12.4979 25.1022C12.6939 24.9499 12.913 24.8298 13.1468 24.7467C13.2543 24.7042 13.369 24.683 13.4846 24.6844C13.6114 24.6771 13.7383 24.6953 13.8579 24.7378C13.8598 24.863 13.8298 24.9866 13.7707 25.097C13.7116 25.2075 13.6254 25.301 13.5202 25.3689C13.2969 25.5223 13.0415 25.6226 12.7735 25.6622Z" fill="#FDEF02"/>
<path d="M13.6803 24.3556C13.5718 24.3776 13.4599 24.3776 13.3514 24.3556C13.1246 24.2833 12.9198 24.1548 12.7559 23.9822C12.6127 23.829 12.4847 23.6623 12.3736 23.4844L12.2848 23.3156C12.2827 23.2919 12.2827 23.2681 12.2848 23.2444H12.5248C12.705 23.2783 12.8831 23.3229 13.0581 23.3778C13.2619 23.4368 13.4543 23.53 13.627 23.6533C13.8106 23.7852 13.9475 23.9719 14.0181 24.1867C13.932 24.2851 13.8107 24.3458 13.6803 24.3556Z" fill="#FDEF02"/>
<path d="M10.4177 24.6222C10.6472 24.5266 10.89 24.4666 11.1377 24.4444C11.2509 24.4288 11.3661 24.4364 11.4761 24.467C11.5862 24.4976 11.6889 24.5504 11.7777 24.6222C11.748 24.7391 11.6905 24.847 11.61 24.9368C11.5295 25.0266 11.4284 25.0956 11.3155 25.1378C11.0714 25.2404 10.8055 25.2801 10.5422 25.2533C10.2914 25.2421 10.0432 25.1972 9.80437 25.12L9.57326 25.0311L9.48438 24.9867L9.77771 24.8889C9.9466 24.8 10.1777 24.7022 10.4177 24.6222Z" fill="#FDEF02"/>
<path d="M12.0443 24.1156C11.9414 24.1597 11.8292 24.1779 11.7176 24.1686C11.606 24.1593 11.4984 24.1228 11.4043 24.0622C11.2062 23.9368 11.0439 23.7622 10.9332 23.5556C10.8321 23.3776 10.7572 23.186 10.7109 22.9867C10.7109 22.9067 10.7109 22.8444 10.7109 22.7911V22.72H10.7643L10.9065 22.7911C11.022 22.8533 11.1909 22.9422 11.3598 23.0489C11.5461 23.1546 11.7117 23.2931 11.8487 23.4578C11.9233 23.549 11.979 23.6541 12.0125 23.767C12.0461 23.88 12.0569 23.9984 12.0443 24.1156Z" fill="#FDEF02"/>
<path d="M8.47959 24.1511L8.37292 24.0978H8.31959L8.16848 24L7.91959 23.8045L7.7507 23.6622L7.68848 23.6H7.9907C8.21272 23.5866 8.43534 23.5866 8.65737 23.6H8.84403H9.03959H9.22625L9.40403 23.6445C9.63097 23.6995 9.83007 23.8354 9.96403 24.0267C9.89656 24.1289 9.80577 24.2136 9.69914 24.2739C9.5925 24.3342 9.47308 24.3683 9.3507 24.3733C9.04506 24.384 8.74275 24.3069 8.47959 24.1511Z" fill="#FDEF02"/>
<path d="M9.48442 22.6578C9.46604 22.4478 9.46604 22.2367 9.48442 22.0267C9.48442 21.9467 9.48442 21.8756 9.48442 21.8311C9.48819 21.8046 9.48819 21.7777 9.48442 21.7511V21.8045L9.61776 21.9378C9.67478 22.003 9.72819 22.0712 9.77776 22.1422C9.83795 22.2143 9.89151 22.2916 9.93776 22.3734C10.0334 22.5375 10.1138 22.7101 10.1778 22.8889C10.2496 23.1023 10.2496 23.3333 10.1778 23.5467C10.068 23.5612 9.95625 23.5458 9.85453 23.502C9.7528 23.4581 9.66484 23.3876 9.59998 23.2978C9.56522 23.2538 9.53541 23.2061 9.51109 23.1556C9.48212 23.1079 9.45828 23.0572 9.43998 23.0045C9.43667 22.9482 9.43667 22.8918 9.43998 22.8356L9.48442 22.6578Z" fill="#FDEF02"/>
<path d="M6.42628 21.9289L6.38184 21.8578H6.68406C6.90535 21.8877 7.12491 21.9292 7.34184 21.9822C7.57932 22.0316 7.80738 22.1186 8.01739 22.24C8.06815 22.2674 8.11583 22.3002 8.15961 22.3378C8.20245 22.3717 8.24122 22.4105 8.27517 22.4533C8.34355 22.5428 8.39203 22.6459 8.41739 22.7556C8.32226 22.8276 8.21235 22.8778 8.09555 22.9024C7.97875 22.927 7.85796 22.9254 7.74184 22.8978C7.68328 22.8882 7.62641 22.8702 7.57295 22.8445L7.39517 22.7733C7.29662 22.7203 7.20161 22.6609 7.11072 22.5956C6.9278 22.4509 6.76092 22.287 6.61295 22.1067L6.42628 21.9289Z" fill="#FDEF02"/>
<path d="M8.8893 22.3911C8.77846 22.3614 8.67733 22.3032 8.59596 22.2222L8.4893 22.0978C8.45745 22.0535 8.43062 22.0058 8.4093 21.9556C8.33078 21.7365 8.30046 21.503 8.32041 21.2711C8.33665 21.0624 8.37844 20.8564 8.44485 20.6578L8.51596 20.4711V20.4089C8.5181 20.4266 8.5181 20.4445 8.51596 20.4622C8.55176 20.5074 8.58443 20.5549 8.61374 20.6045C8.70559 20.7658 8.78867 20.932 8.86263 21.1022C8.90745 21.2025 8.94314 21.3067 8.9693 21.4134C8.96513 21.4399 8.96513 21.4668 8.9693 21.4934C8.9693 21.4934 8.9693 21.5467 8.9693 21.5734C8.97367 21.6266 8.97367 21.6801 8.9693 21.7334C9.0284 21.9547 8.99974 22.1904 8.8893 22.3911Z" fill="#FDEF02"/>
<path d="M6.38225 20.2933L6.54225 20.3822L6.70225 20.4711C6.80578 20.5298 6.90137 20.6015 6.9867 20.6844C7.02925 20.7194 7.06535 20.7615 7.09336 20.8089L7.19114 20.9422C7.23744 21.0461 7.26455 21.1576 7.27114 21.2711C7.16416 21.3217 7.04728 21.348 6.92892 21.348C6.81056 21.348 6.69368 21.3217 6.5867 21.2711L6.41781 21.1822C6.36387 21.152 6.31322 21.1163 6.2667 21.0756C6.16533 20.9875 6.07028 20.8925 5.98225 20.7911C5.93887 20.7447 5.90017 20.694 5.8667 20.64L5.76003 20.48C5.69853 20.39 5.645 20.2948 5.60003 20.1956C5.52003 20.0267 5.47559 19.9022 5.47559 19.9022L5.76003 20.0089C5.92003 20.0889 6.16003 20.1778 6.38225 20.2933Z" fill="#FDEF02"/>
<path d="M7.52891 20.72C7.49386 20.6778 7.46676 20.6297 7.44891 20.5778C7.42683 20.5361 7.41181 20.4911 7.40447 20.4445C7.39122 20.3323 7.39122 20.2189 7.40447 20.1067C7.40839 20.0772 7.40839 20.0473 7.40447 20.0178C7.4086 19.9883 7.4086 19.9584 7.40447 19.9289L7.4578 19.76C7.48943 19.6568 7.52804 19.5558 7.57336 19.4578C7.59323 19.4114 7.61702 19.3668 7.64447 19.3245L7.71558 19.2089C7.76312 19.1308 7.81661 19.0565 7.87558 18.9867C7.90504 19.0588 7.92882 19.1331 7.94669 19.2089C7.94415 19.2444 7.94415 19.2801 7.94669 19.3156C7.94378 19.357 7.94378 19.3986 7.94669 19.44L8.00003 19.7245C8.024 19.8267 8.03887 19.9308 8.04447 20.0356H8.04343C8.04343 20.1956 8.04343 20.1956 8.04343 20.3556H8.04447C8.01228 20.5834 7.89859 20.7918 7.72447 20.9422C7.64136 20.8861 7.57403 20.8096 7.52891 20.72Z" fill="#FDEF02"/>
<path d="M6.33815 18.9156C6.39708 19.0061 6.44202 19.105 6.47149 19.2089C6.47584 19.2651 6.47584 19.3216 6.47149 19.3778C6.47976 19.4338 6.47976 19.4907 6.47149 19.5467C6.35622 19.5743 6.23615 19.575 6.12055 19.5488C6.00496 19.5226 5.89693 19.4702 5.80482 19.3956C5.70503 19.3149 5.61548 19.2224 5.53815 19.12C5.45815 19.015 5.38961 18.9018 5.33371 18.7822C5.33371 18.72 5.27149 18.6578 5.25371 18.6045C5.23593 18.5511 5.25371 18.48 5.19149 18.4267C5.12927 18.3733 5.12927 18.1956 5.11149 18.1067C5.10607 18.003 5.10607 17.8992 5.11149 17.7956L5.35149 17.9645L5.60038 18.16L5.88482 18.3822C5.97371 18.4711 6.07149 18.5511 6.15149 18.64C6.22317 18.7251 6.28574 18.8174 6.33815 18.9156Z" fill="#FDEF02"/>
<path d="M6.77347 18.7111C6.78216 18.5979 6.80918 18.4868 6.85347 18.3822L6.91569 18.2222L7.00458 18.0711C7.11775 17.9007 7.25216 17.7454 7.40458 17.6089C7.47024 17.546 7.54166 17.4895 7.61792 17.44C7.61792 17.44 7.61792 17.5289 7.61792 17.6622C7.61792 17.7956 7.61792 17.8133 7.61792 17.9022C7.61792 17.9911 7.61792 17.9911 7.61792 18.0444C7.61792 18.0978 7.61792 18.1333 7.61792 18.1867C7.61792 18.24 7.61792 18.3911 7.57347 18.4889C7.55442 18.5935 7.52153 18.6951 7.47569 18.7911C7.38876 19.0007 7.23164 19.1735 7.03125 19.28C6.98574 19.2461 6.94402 19.2073 6.9068 19.1644C6.87176 19.1223 6.84465 19.0741 6.8268 19.0222C6.79061 18.9225 6.77255 18.8172 6.77347 18.7111Z" fill="#FDEF02"/>
<path d="M5.21752 15.6622L5.41307 15.8933C5.52863 16.0356 5.67974 16.2222 5.82196 16.4178C5.96418 16.6133 5.95529 16.6311 6.01752 16.7378C6.08095 16.8334 6.12895 16.9384 6.15974 17.0489C6.17866 17.101 6.19351 17.1545 6.20418 17.2089C6.20859 17.2621 6.20859 17.3157 6.20418 17.3689C6.21266 17.4219 6.21266 17.4759 6.20418 17.5289C6.19455 17.5874 6.17659 17.6443 6.15085 17.6978C6.02888 17.6951 5.90959 17.6614 5.80418 17.6C5.70155 17.5442 5.61094 17.4687 5.53752 17.3778C5.49978 17.3278 5.46703 17.2742 5.43974 17.2178C5.39479 17.168 5.35871 17.1109 5.33307 17.0489C5.28246 16.9285 5.24376 16.8035 5.21752 16.6756C5.19312 16.4421 5.19312 16.2068 5.21752 15.9733C5.21752 15.8845 5.21752 15.8045 5.21752 15.7511V15.6622Z" fill="#FDEF02"/>
<path d="M6.57772 17.0667C6.56524 17.0141 6.56524 16.9593 6.57772 16.9067C6.61368 16.8021 6.66458 16.7033 6.72883 16.6134C6.79392 16.5174 6.87166 16.4307 6.95994 16.3556L7.11105 16.24L7.24438 16.1511C7.32363 16.0949 7.40681 16.0444 7.49327 16L7.67105 15.9111H7.74216V15.9734C7.74879 16.0295 7.74879 16.0861 7.74216 16.1422C7.74003 16.1778 7.74003 16.2134 7.74216 16.2489C7.74103 16.2696 7.74103 16.2904 7.74216 16.3111V16.3734C7.72136 16.4668 7.69464 16.5588 7.66216 16.6489C7.62813 16.7439 7.58651 16.8361 7.53772 16.9245C7.53772 16.9245 7.53772 16.9245 7.53772 16.9956C7.53772 17.0667 7.53772 17.04 7.53772 17.0667C7.50792 17.1103 7.47525 17.1519 7.43994 17.1911C7.37414 17.2761 7.29628 17.3509 7.20883 17.4134C7.1063 17.4736 6.99549 17.5185 6.87994 17.5467C6.84714 17.5013 6.81745 17.4538 6.79105 17.4045C6.78691 17.3512 6.78691 17.2977 6.79105 17.2445C6.7021 17.2107 6.62701 17.1481 6.57772 17.0667Z" fill="#FDEF02"/>
<path d="M6.26666 15.8311C6.153 15.7974 6.04802 15.7394 5.959 15.6612C5.86998 15.5829 5.79904 15.4862 5.7511 15.3778C5.70394 15.2638 5.6711 15.1443 5.65332 15.0222C5.64421 14.892 5.64421 14.7613 5.65332 14.6311C5.65332 14.5067 5.65332 14.3822 5.65332 14.2667C5.66986 14.1615 5.69362 14.0575 5.72443 13.9556C5.74031 13.8831 5.7611 13.8118 5.78666 13.7422V13.6711L5.93777 13.9289L6.0711 14.2044C6.09848 14.2561 6.12224 14.3095 6.14221 14.3644L6.22221 14.5333C6.31727 14.7512 6.38015 14.9818 6.40888 15.2178C6.42678 15.3237 6.42678 15.4319 6.40888 15.5378C6.38393 15.6449 6.33534 15.7452 6.26666 15.8311Z" fill="#FDEF02"/>
<path d="M6.88926 15.1111C7.01819 14.9205 7.19225 14.7648 7.39592 14.6578C7.48815 14.5997 7.58653 14.552 7.68926 14.5156L7.95593 14.4178L8.22259 14.3556V14.4178C8.19595 14.4698 8.17221 14.5232 8.15148 14.5778L8.00037 14.8089C7.95471 14.8975 7.90427 14.9836 7.84926 15.0667L7.67148 15.3156C7.60109 15.3962 7.52376 15.4706 7.44037 15.5378C7.26025 15.6774 7.03703 15.7497 6.80926 15.7422C6.76575 15.6415 6.74745 15.5316 6.75593 15.4222C6.78003 15.3109 6.8253 15.2053 6.88926 15.1111Z" fill="#FDEF02"/>
<path d="M16.0003 23.4667L16.4359 24.3556L17.4226 24.4978L16.7115 25.1911L16.8803 26.16L16.0003 25.7067L15.1203 26.16L15.2892 25.1911L14.5781 24.4978L15.5648 24.3556L16.0003 23.4667Z" fill="#FBCB15"/>
</g>
</g>
<defs>
<linearGradient id="paint0_linear_2810_57173" x1="15.8671" y1="3.5289" x2="16.1337" y2="28.4711" gradientUnits="userSpaceOnUse">
<stop stop-color="#CAB296"/>
<stop offset="1" stop-color="#704419"/>
</linearGradient>
<linearGradient id="paint1_linear_2810_57173" x1="15.973" y1="11.6445" x2="16.0441" y2="18.0534" gradientUnits="userSpaceOnUse">
<stop stop-color="#FFFBE9"/>
<stop offset="1" stop-color="#FDCD01"/>
</linearGradient>
<radialGradient id="paint2_radial_2810_57173" cx="0" cy="0" r="1" gradientUnits="userSpaceOnUse" gradientTransform="translate(16.0358 4.23112) scale(6.64889 6.64889)">
<stop stop-color="#FFFBE9"/>
<stop offset="1" stop-color="#FDCD01"/>
</radialGradient>
<radialGradient id="paint3_radial_2810_57173" cx="0" cy="0" r="1" gradientUnits="userSpaceOnUse" gradientTransform="translate(16.0357 4.23113) scale(6.64889 6.64889)">
<stop stop-color="#FFFBE9"/>
<stop offset="1" stop-color="#FDCD01"/>
</radialGradient>
<radialGradient id="paint4_radial_2810_57173" cx="0" cy="0" r="1" gradientUnits="userSpaceOnUse" gradientTransform="translate(16.0357 4.23113) scale(6.64888 6.64889)">
<stop stop-color="#FFFBE9"/>
<stop offset="1" stop-color="#FDCD01"/>
</radialGradient>
<radialGradient id="paint5_radial_2810_57173" cx="0" cy="0" r="1" gradientUnits="userSpaceOnUse" gradientTransform="translate(16.0356 4.23114) scale(6.64889 6.64889)">
<stop stop-color="#FFFBE9"/>
<stop offset="1" stop-color="#FDCD01"/>
</radialGradient>
<radialGradient id="paint6_radial_2810_57173" cx="0" cy="0" r="1" gradientUnits="userSpaceOnUse" gradientTransform="translate(16.0353 4.23114) scale(6.64889 6.64889)">
<stop stop-color="#FFFBE9"/>
<stop offset="1" stop-color="#FDCD01"/>
</radialGradient>
<radialGradient id="paint7_radial_2810_57173" cx="0" cy="0" r="1" gradientUnits="userSpaceOnUse" gradientTransform="translate(16.1067 23.3689) scale(5.87556 5.87555)">
<stop stop-color="#FFFBE9"/>
<stop offset="1" stop-color="#FDCD01"/>
</radialGradient>
<radialGradient id="paint8_radial_2810_57173" cx="0" cy="0" r="1" gradientUnits="userSpaceOnUse" gradientTransform="translate(16.1065 23.3689) scale(5.87555 5.87556)">
<stop stop-color="#FFFBE9"/>
<stop offset="1" stop-color="#FDCD01"/>
</radialGradient>
<radialGradient id="paint9_radial_2810_57173" cx="0" cy="0" r="1" gradientUnits="userSpaceOnUse" gradientTransform="translate(16.1065 23.3689) scale(5.87556)">
<stop stop-color="#FFFBE9"/>
<stop offset="1" stop-color="#FDCD01"/>
</radialGradient>
<radialGradient id="paint10_radial_2810_57173" cx="0" cy="0" r="1" gradientUnits="userSpaceOnUse" gradientTransform="translate(16.1071 23.3689) scale(5.87555 5.87555)">
<stop stop-color="#FFFBE9"/>
<stop offset="1" stop-color="#FDCD01"/>
</radialGradient>
<radialGradient id="paint11_radial_2810_57173" cx="0" cy="0" r="1" gradientUnits="userSpaceOnUse" gradientTransform="translate(16.1067 23.3689) scale(5.87556 5.87556)">
<stop stop-color="#FFFBE9"/>
<stop offset="1" stop-color="#FDCD01"/>
</radialGradient>
<radialGradient id="paint12_radial_2810_57173" cx="0" cy="0" r="1" gradientUnits="userSpaceOnUse" gradientTransform="translate(16.1063 23.3689) scale(5.87556 5.87556)">
<stop stop-color="#FFFBE9"/>
<stop offset="1" stop-color="#FDCD01"/>
</radialGradient>
<radialGradient id="paint13_radial_2810_57173" cx="0" cy="0" r="1" gradientUnits="userSpaceOnUse" gradientTransform="translate(16.1068 23.3689) scale(5.87556 5.87556)">
<stop stop-color="#FFFBE9"/>
<stop offset="1" stop-color="#FDCD01"/>
</radialGradient>
<radialGradient id="paint14_radial_2810_57173" cx="0" cy="0" r="1" gradientUnits="userSpaceOnUse" gradientTransform="translate(16.1071 23.3689) scale(5.87555)">
<stop stop-color="#FFFBE9"/>
<stop offset="1" stop-color="#FDCD01"/>
</radialGradient>
<clipPath id="clip0_2810_57173">
<rect width="32" height="32" fill="white"/>
</clipPath>
</defs>
</svg>
