<svg width="32" height="32" viewBox="0 0 32 32" fill="none" xmlns="http://www.w3.org/2000/svg">
<g clip-path="url(#clip0_2707_342423)">
<path d="M15.9998 31.9822C24.8265 31.9822 31.982 24.8267 31.982 16C31.982 7.17325 24.8265 0.0177612 15.9998 0.0177612C7.17306 0.0177612 0.0175781 7.17325 0.0175781 16C0.0175781 24.8267 7.17306 31.9822 15.9998 31.9822Z" fill="white"/>
<path d="M16.4621 5.27112C16.8354 5.35112 17.2177 5.43112 17.591 5.5289C19.0012 5.85953 20.3271 6.4801 21.4843 7.35112C21.6804 7.50283 21.8646 7.66924 22.0354 7.8489C22.1773 7.98173 22.2894 8.14306 22.3645 8.3223C22.4395 8.50154 22.4758 8.69463 22.471 8.8889C22.4649 9.31165 22.5857 9.72653 22.8177 10.08C23.0843 10.4622 23.2977 10.5245 23.7066 10.3111C23.861 10.2298 24.0095 10.1377 24.151 10.0356C24.1867 10.008 24.2303 9.99239 24.2754 9.99112C24.3128 9.99255 24.3489 10.0052 24.379 10.0274C24.4091 10.0496 24.4319 10.0803 24.4443 10.1156C24.5281 10.2474 24.5911 10.3913 24.631 10.5422C24.7214 10.8738 24.7809 11.213 24.8088 11.5556C24.8088 12.4445 24.6577 21.9645 24.631 22.4178C24.631 22.64 24.4888 22.6667 24.3199 22.6756C23.8955 22.7059 23.4737 22.5889 23.1256 22.3444C22.7774 22.0999 22.5243 21.7428 22.4088 21.3333C22.3449 20.9479 22.3033 20.5591 22.2843 20.1689C22.2929 20.098 22.2929 20.0264 22.2843 19.9556C22.2601 19.8766 22.2304 19.7993 22.1954 19.7245C22.1334 19.7611 22.0766 19.8059 22.0266 19.8578C20.9031 21.2704 19.2988 22.2197 17.5199 22.5245C15.2579 23.0219 12.8909 22.6004 10.9397 21.3526C8.9885 20.1049 7.61287 18.1331 7.11544 15.8711C6.61801 13.6091 7.03954 11.2422 8.28728 9.29095C9.53502 7.33973 11.5068 5.9641 13.7688 5.46667C14.0799 5.39556 14.3999 5.32445 14.7199 5.27112H16.4621ZM15.6443 20.5156C17.3663 20.5068 19.0169 19.8267 20.2452 18.6199C21.4736 17.4131 22.1828 15.7748 22.2221 14.0533V13.9911C22.2238 12.7022 21.8438 11.4417 21.1299 10.3686C20.416 9.29546 19.4002 8.45782 18.2108 7.96136C17.0213 7.4649 15.7115 7.33186 14.4465 7.57902C13.1816 7.82618 12.0181 8.44247 11.103 9.35014C10.1879 10.2578 9.56219 11.4162 9.30472 12.6791C9.04726 13.942 9.16962 15.2529 9.65637 16.4463C10.1431 17.6398 10.9724 18.6623 12.0397 19.3849C13.107 20.1076 14.3644 20.4979 15.6532 20.5067L15.6443 20.5156Z" fill="#2B2D2D"/>
<path d="M22.6753 8.72001C22.6755 8.35967 22.7619 8.00461 22.9274 7.6845C23.0929 7.3644 23.3325 7.08855 23.6264 6.88001C23.9786 6.62653 24.3535 6.40633 24.7464 6.22223C24.8886 6.15112 24.9775 6.22223 24.9153 6.39112C24.7351 6.94087 24.6775 7.52339 24.7464 8.09778C24.7641 8.2573 24.7641 8.41827 24.7464 8.57778C24.6914 8.92996 24.5352 9.25857 24.2969 9.52367C24.0587 9.78878 23.7485 9.97896 23.4042 10.0711C23.2175 10.1511 23.1375 10.0711 23.0664 9.91112C22.8468 9.54914 22.713 9.14169 22.6753 8.72001Z" fill="#1EA53F"/>
<path d="M15.6977 8.88885C16.8798 8.9035 18.0225 9.31574 18.9417 10.0591C19.8608 10.8025 20.5029 11.8338 20.7644 12.9866C20.899 13.5716 20.899 14.1795 20.7644 14.7644C20.6844 15.1022 20.6044 15.1644 20.2577 15.1733L15.0844 15.2177C14.6933 15.2177 14.3022 15.2177 13.9111 15.2177C13.68 15.2177 13.6622 15.2177 13.7777 15.4755C13.9266 15.7591 14.1467 15.9991 14.4162 16.1721C14.6858 16.345 14.9957 16.445 15.3155 16.4622C15.6894 16.5164 16.0706 16.4906 16.4338 16.3864C16.797 16.2822 17.1339 16.102 17.4222 15.8577C17.52 15.7689 17.5911 15.7955 17.6711 15.8577L19.0666 17.3422C19.28 17.5733 19.28 17.6177 19.0666 17.8311C18.3774 18.4082 17.5506 18.7971 16.6666 18.96C15.925 19.1181 15.1566 19.1 14.4233 18.907C13.6899 18.714 13.0121 18.3516 12.4444 17.8489C11.6754 17.2687 11.0817 16.4874 10.7289 15.5911C10.4331 14.8053 10.3596 13.9532 10.5164 13.1284C10.6732 12.3036 11.0543 11.538 11.6177 10.9155C12.4769 9.85624 13.7004 9.15572 15.0489 8.95108C15.2638 8.91812 15.4804 8.89735 15.6977 8.88885ZM15.7955 12.6755H17.5733C17.8222 12.6755 17.8755 12.5777 17.7333 12.3555C17.6628 12.2478 17.5792 12.1493 17.4844 12.0622C17.0259 11.714 16.4698 11.5182 15.8942 11.5022C15.3187 11.4863 14.7526 11.651 14.2755 11.9733C14.1329 12.0716 14.0093 12.1951 13.9111 12.3377C13.7511 12.5689 13.8133 12.6666 14.0889 12.6755H15.7955Z" fill="#1EA53F"/>
<path fill-rule="evenodd" clip-rule="evenodd" d="M9.1552 23.1111V25.7066H9.51075V23.1111H9.1552ZM8.38187 24.1244C8.2157 23.9688 7.99617 23.8829 7.76853 23.8844C7.52689 23.8844 7.29515 23.9804 7.12428 24.1513C6.95341 24.3221 6.85742 24.5539 6.85742 24.7955C6.85742 25.0372 6.95341 25.2689 7.12428 25.4398C7.29515 25.6106 7.52689 25.7066 7.76853 25.7066C7.99617 25.7081 8.2157 25.6222 8.38187 25.4666V25.7066H8.73742V23.84H8.38187V24.1244ZM12.9685 24.1244C12.8398 24.0126 12.6817 23.9402 12.5129 23.9158C12.3442 23.8914 12.172 23.916 12.0169 23.9867C11.8617 24.0575 11.7302 24.1713 11.638 24.3147C11.5458 24.4581 11.4968 24.625 11.4968 24.7955C11.4968 24.966 11.5458 25.1329 11.638 25.2763C11.7302 25.4197 11.8617 25.5336 12.0169 25.6043C12.172 25.675 12.3442 25.6997 12.5129 25.6753C12.6817 25.6508 12.8398 25.5784 12.9685 25.4666V25.7066H13.333V23.84H12.9774L12.9685 24.1244ZM10.1952 23.8844H9.83964V24.24H10.1952V25.7066H10.5508V24.1955H11.1019V23.84H10.5508V23.6266C10.5603 23.5735 10.5822 23.5233 10.6146 23.4801C10.647 23.4369 10.6891 23.4018 10.7374 23.3777C10.844 23.3412 10.9597 23.3412 11.0663 23.3777L11.2352 23.44L11.3685 23.1022L11.1996 23.1111C11.0097 23.0447 10.8029 23.0447 10.613 23.1111C10.5056 23.1622 10.4118 23.2379 10.3392 23.3322C10.2666 23.4264 10.2172 23.5364 10.1952 23.6533V23.9111V23.8844ZM7.76853 24.24C7.88003 24.2382 7.98951 24.2698 8.08295 24.3306C8.17639 24.3915 8.24954 24.4788 8.29302 24.5815C8.3365 24.6842 8.34834 24.7975 8.32702 24.907C8.30569 25.0164 8.25218 25.117 8.17333 25.1959C8.09448 25.2747 7.99389 25.3282 7.88444 25.3496C7.77499 25.3709 7.66166 25.359 7.55898 25.3156C7.4563 25.2721 7.36894 25.1989 7.30809 25.1055C7.24724 25.012 7.21567 24.9026 7.21742 24.7911C7.21127 24.7151 7.22097 24.6386 7.24589 24.5665C7.27082 24.4944 7.31044 24.4283 7.36224 24.3723C7.41404 24.3163 7.4769 24.2717 7.54684 24.2413C7.61677 24.2109 7.69226 24.1953 7.76853 24.1955V24.24ZM12.3552 24.24C12.4663 24.24 12.5749 24.2731 12.6672 24.335C12.7595 24.3969 12.8313 24.4849 12.8734 24.5878C12.9155 24.6906 12.926 24.8037 12.9037 24.9125C12.8814 25.0214 12.8271 25.1211 12.7479 25.1991C12.6687 25.2771 12.5681 25.3297 12.4589 25.3503C12.3497 25.3709 12.2368 25.3585 12.1347 25.3147C12.0325 25.271 11.9457 25.1978 11.8852 25.1046C11.8248 25.0113 11.7934 24.9022 11.7952 24.7911C11.789 24.7143 11.7989 24.6371 11.8244 24.5644C11.8498 24.4917 11.8902 24.4251 11.943 24.369C11.9958 24.3129 12.0597 24.2685 12.1307 24.2386C12.2017 24.2087 12.2782 24.194 12.3552 24.1955V24.24Z" fill="#292B2B"/>
<path fill-rule="evenodd" clip-rule="evenodd" d="M23.6975 23.92C23.5765 23.8583 23.4421 23.8278 23.3063 23.8311C23.1753 23.7982 23.0384 23.7957 22.9062 23.8237C22.774 23.8516 22.65 23.9094 22.5434 23.9925C22.4369 24.0756 22.3507 24.182 22.2914 24.3034C22.2322 24.4248 22.2014 24.5582 22.2014 24.6933C22.2014 24.8284 22.2322 24.9618 22.2914 25.0832C22.3507 25.2046 22.4369 25.311 22.5434 25.3941C22.65 25.4772 22.774 25.535 22.9062 25.5629C23.0384 25.5909 23.1753 25.5884 23.3063 25.5555C23.3772 25.5641 23.4488 25.5641 23.5197 25.5555C23.6031 25.6036 23.6729 25.672 23.7227 25.7544C23.7724 25.8368 23.8004 25.9305 23.8041 26.0266C23.8041 26.3466 23.5286 26.4355 23.3063 26.4266C23.1744 26.4267 23.0463 26.3829 22.9419 26.3022C22.9033 26.2712 22.8779 26.2267 22.8708 26.1777C22.8708 26.0266 22.7375 26.2755 22.7019 26.3377L22.8797 26H22.5241V26.1777C22.5286 26.3292 22.5925 26.4729 22.7019 26.5777C22.8675 26.7195 23.0795 26.7954 23.2975 26.7911C23.4072 26.8108 23.52 26.8059 23.6277 26.7769C23.7353 26.7478 23.8353 26.6953 23.9202 26.6231C24.0052 26.5509 24.0731 26.4607 24.1191 26.3591C24.1652 26.2575 24.1881 26.147 24.1863 26.0355C24.1849 25.9108 24.1573 25.7878 24.1052 25.6745C24.0532 25.5611 23.9778 25.46 23.8841 25.3777C23.9778 25.2954 24.0532 25.1943 24.1052 25.081C24.1573 24.9677 24.1849 24.8447 24.1863 24.72C24.1832 24.5225 24.1144 24.3317 23.9908 24.1777L24.0797 24.0889L24.213 23.9644L23.973 23.6977L23.8397 23.8222C23.7906 23.8523 23.7431 23.8849 23.6975 23.92ZM21.333 24.0711V23.84H20.9775V25.6622H21.333V24.6044V24.5333C21.3914 24.4534 21.4601 24.3817 21.5375 24.32C21.6032 24.2649 21.6804 24.2252 21.7634 24.2036C21.8465 24.1821 21.9332 24.1793 22.0175 24.1955H22.1863L22.2663 23.8489L22.0886 23.8044C21.8643 23.761 21.632 23.8055 21.4397 23.9289C21.4 23.973 21.3643 24.0206 21.333 24.0711ZM24.613 23.7511V25.6622H24.8886V23.7511H24.613ZM17.013 24.0711V23.84H16.6575V25.6622H17.013V24.6222L17.0841 24.5066C17.1466 24.4146 17.2298 24.3385 17.3271 24.2844C17.4244 24.2304 17.533 24.2 17.6441 24.1955C17.7291 24.1947 17.812 24.2222 17.8796 24.2737C17.9472 24.3252 17.9957 24.3978 18.0175 24.48V25.6622H18.3819V24.4622C18.3819 24.4622 18.3819 24.4622 18.3819 24.4177C18.3423 24.2539 18.249 24.1081 18.1169 24.0034C17.9848 23.8987 17.8215 23.8412 17.653 23.84C17.404 23.8286 17.1597 23.9111 16.9686 24.0711H17.013ZM19.1197 24.8533H20.2664C20.3087 24.8521 20.3494 24.8364 20.3818 24.8089C20.4141 24.7815 20.4361 24.7438 20.4441 24.7022C20.4577 24.5652 20.4434 24.4268 20.4021 24.2955C20.3609 24.1641 20.2936 24.0424 20.2041 23.9377C20.0339 23.7918 19.8148 23.7156 19.5908 23.7244C19.3669 23.7237 19.1509 23.8075 18.9861 23.9591C18.8213 24.1107 18.7198 24.319 18.7019 24.5422C18.6643 24.7576 18.6987 24.9794 18.7997 25.1733C18.8817 25.3208 19.0015 25.4438 19.1468 25.5297C19.2921 25.6157 19.4576 25.6614 19.6264 25.6622C19.8646 25.6571 20.095 25.5761 20.2841 25.4311L20.4264 25.3155L20.1952 25.04L20.0619 25.1555C19.9357 25.2495 19.7836 25.3023 19.6264 25.3066C19.5185 25.3041 19.4133 25.2732 19.3212 25.217C19.2291 25.1608 19.1535 25.0814 19.1019 24.9866C19.0888 24.9553 19.0798 24.9225 19.0752 24.8889L19.1197 24.8533ZM14.853 24.8533H15.9997C16.0421 24.8521 16.0828 24.8364 16.1151 24.8089C16.1474 24.7815 16.1694 24.7438 16.1775 24.7022C16.191 24.5652 16.1767 24.4268 16.1355 24.2955C16.0942 24.1641 16.0269 24.0424 15.9375 23.9377C15.7672 23.7918 15.5482 23.7156 15.3241 23.7244C15.1002 23.7237 14.8842 23.8075 14.7195 23.9591C14.5547 24.1107 14.4532 24.319 14.4352 24.5422C14.3976 24.7576 14.432 24.9794 14.533 25.1733C14.615 25.3208 14.7348 25.4438 14.8801 25.5297C15.0254 25.6157 15.1909 25.6614 15.3597 25.6622C15.5979 25.6571 15.8284 25.5761 16.0175 25.4311L16.1597 25.3155L15.9286 25.04L15.7952 25.1555C15.6691 25.2495 15.517 25.3023 15.3597 25.3066C15.2518 25.3041 15.1466 25.2732 15.0545 25.217C14.9624 25.1608 14.8868 25.0814 14.8352 24.9866C14.8221 24.9553 14.8132 24.9225 14.8086 24.8889L14.853 24.8533ZM23.5908 25.1377C23.5183 25.1808 23.4351 25.2024 23.3508 25.2C23.2164 25.2 23.0875 25.1466 22.9925 25.0516C22.8975 24.9565 22.8441 24.8277 22.8441 24.6933C22.8441 24.5589 22.8975 24.4301 22.9925 24.335C23.0875 24.24 23.2164 24.1866 23.3508 24.1866C23.4852 24.1866 23.614 24.24 23.7091 24.335C23.8041 24.4301 23.8575 24.5589 23.8575 24.6933C23.852 24.789 23.82 24.8812 23.7651 24.9598C23.7101 25.0383 23.6344 25.0999 23.5464 25.1377H23.5908ZM19.1464 24.4977H20.0886C20.0805 24.3846 20.0334 24.2777 19.9552 24.1955C19.9051 24.1532 19.8471 24.1212 19.7846 24.1014C19.722 24.0815 19.6562 24.0743 19.5908 24.08C19.4706 24.0745 19.3527 24.1144 19.2605 24.1918C19.1683 24.2692 19.1085 24.3784 19.093 24.4977H19.1464ZM14.8797 24.4977H15.8219C15.8139 24.3846 15.7667 24.2777 15.6886 24.1955C15.6384 24.1532 15.5804 24.1212 15.5179 24.1014C15.4553 24.0815 15.3895 24.0743 15.3241 24.08C15.2039 24.0745 15.086 24.1144 14.9938 24.1918C14.9016 24.2692 14.8418 24.3784 14.8264 24.4977H14.8797ZM24.7997 22.9866C24.8807 22.9866 24.9585 23.0182 25.0166 23.0746C25.0747 23.131 25.1085 23.2079 25.1108 23.2889C25.1108 23.3714 25.078 23.4505 25.0197 23.5088C24.9613 23.5672 24.8822 23.6 24.7997 23.6C24.7172 23.6 24.638 23.5672 24.5797 23.5088C24.5214 23.4505 24.4886 23.3714 24.4886 23.2889C24.4896 23.2163 24.5159 23.1464 24.563 23.0912C24.61 23.0361 24.6749 22.9991 24.7464 22.9866H24.7997Z" fill="#1CA53D"/>
</g>
<defs>
<clipPath id="clip0_2707_342423">
<rect width="32" height="32" fill="white"/>
</clipPath>
</defs>
</svg>
