<svg width="32" height="32" viewBox="0 0 32 32" fill="none" xmlns="http://www.w3.org/2000/svg">
<g clip-path="url(#clip0_2707_258888)">
<path d="M15.993 31.998C24.8214 31.998 31.9782 24.8412 31.9782 16.0128C31.9782 7.18441 24.8214 0.0275879 15.993 0.0275879C7.16463 0.0275879 0.0078125 7.18441 0.0078125 16.0128C0.0078125 24.8412 7.16463 31.998 15.993 31.998Z" fill="#163373"/>
<path fill-rule="evenodd" clip-rule="evenodd" d="M3.09375 16.0253V19.3421H4.445V16.3938H5.67347V15.0426H4.445V14.0598H5.79623V12.7086H3.09375V16.0253ZM6.47888 13.1078C6.39845 13.5973 5.91907 18.7088 5.91907 19.077C5.91907 19.3164 5.98447 19.3421 6.59481 19.3421C7.25935 19.3421 7.27042 19.3362 7.27042 18.9836C7.27042 18.4385 7.39016 18.2365 7.71347 18.2365C7.93599 18.2365 8.00781 18.3037 8.00917 18.5129C8.01349 19.238 8.11586 19.3421 8.8245 19.3421H9.49008L9.42072 18.7586C9.30421 17.777 8.86734 13.1821 8.86734 12.938C8.86734 12.7302 8.75805 12.7086 7.70592 12.7086H6.54448L6.47888 13.1078ZM9.72728 16.0253V19.3421H12.5526V18.1137H11.2014V12.7086H9.72728V16.0253ZM12.6755 16.0253V19.3421H14.0202L14.0542 17.5302L14.0882 15.7182L14.3888 17.5302L14.6895 19.3421H15.3353C16.0749 19.3421 15.9469 19.6129 16.3512 17.1923L16.5769 15.8411L16.6065 19.3421H17.9577V12.7086H15.7903L15.5592 14.4591L15.328 16.2096L14.8509 12.7086H12.6755V16.0253ZM18.8171 12.8621C18.8169 12.9466 18.6791 14.3976 18.5111 16.0868C18.3432 17.7758 18.2052 19.1993 18.2046 19.25C18.204 19.3006 18.5015 19.3421 18.8659 19.3421C19.5841 19.3421 19.6775 19.256 19.6775 18.595C19.6775 18.2988 19.7287 18.2365 19.9715 18.2365C20.2948 18.2365 20.4146 18.4385 20.4146 18.9836C20.4146 19.3362 20.4256 19.3421 21.0902 19.3421C21.6292 19.3421 21.7659 19.3021 21.7659 19.1445C21.7659 18.8854 21.2936 13.9052 21.2051 13.2306L21.1366 12.7086H19.9771C19.1317 12.7086 18.8175 12.7502 18.8171 12.8621ZM22.6401 12.9089C22.1067 13.2826 22.0116 13.7637 22.0116 16.0889C22.0116 18.9843 22.1967 19.3421 23.6953 19.3421C24.9315 19.3421 25.2533 18.9767 25.3098 17.5096L25.3528 16.3938H23.8542V17.185C23.8542 18.013 23.7106 18.2882 23.4918 17.8795C23.1667 17.2721 23.3877 13.7861 23.7375 14.0023C23.8017 14.0419 23.8542 14.3751 23.8542 14.7428V15.4111H25.3543L25.3092 14.4171C25.2664 13.4751 25.2431 13.4042 24.8643 13.0657C24.3825 12.6353 23.1543 12.5487 22.6401 12.9089ZM26.2026 12.9089C25.6758 13.2779 25.5739 13.7716 25.5739 15.9575C25.5739 18.8571 25.8244 19.3421 27.3218 19.3421C28.7116 19.3421 28.8908 18.9487 28.8908 15.8963C28.8908 15.8963 28.8091 14.191 28.7395 13.7293C28.7101 13.5346 28.4731 13.1263 28.4731 13.1263C27.981 12.6341 26.7616 12.5173 26.2026 12.9089ZM27.5395 15.9955C27.5395 17.5635 27.422 18.2074 27.1648 18.0484C27.0294 17.9648 27.003 14.1459 27.1369 14.012C27.4013 13.7477 27.5395 14.4285 27.5395 15.9955ZM20.1536 16.5474C20.1658 17.0131 20.1281 17.1309 19.9669 17.1309C19.7916 17.1309 19.7752 17.021 19.8431 16.3017C19.8863 15.8457 19.9306 15.1962 19.9416 14.8583C19.9651 14.1465 20.124 15.4127 20.1536 16.5474ZM7.81086 15.9947C7.88176 16.9704 7.86675 17.1309 7.70477 17.1309C7.49945 17.1309 7.44377 16.1724 7.59548 15.2537C7.69929 14.626 7.71554 14.6819 7.81086 15.9947Z" fill="#F4F4F4"/>
</g>
<defs>
<clipPath id="clip0_2707_258888">
<rect width="32" height="32" fill="white"/>
</clipPath>
</defs>
</svg>
