<svg width="32" height="32" viewBox="0 0 32 32" fill="none" xmlns="http://www.w3.org/2000/svg">
<g clip-path="url(#clip0_2810_57239)">
<mask id="mask0_2810_57239" style="mask-type:luminance" maskUnits="userSpaceOnUse" x="0" y="0" width="32" height="32">
<path d="M31.9909 0.0177917H0.0175781V31.9911H31.9909V0.0177917Z" fill="white"/>
</mask>
<g mask="url(#mask0_2810_57239)">
<path d="M15.9998 31.9822C24.8265 31.9822 31.982 24.8268 31.982 16C31.982 7.17328 24.8265 0.0177917 15.9998 0.0177917C7.17306 0.0177917 0.0175781 7.17328 0.0175781 16C0.0175781 24.8268 7.17306 31.9822 15.9998 31.9822Z" fill="white"/>
<path d="M16.8527 16.5245C16.9327 16.5156 16.9593 16.5778 17.0038 16.6222C17.6971 17.3156 18.3993 18.0089 19.0927 18.7022C19.306 18.9156 19.5193 19.1289 19.7327 19.3422C19.7771 19.3867 19.8127 19.4222 19.866 19.4756C19.546 19.8578 19.1638 20.1778 18.8438 20.5334C18.7549 20.5778 18.7016 20.5334 18.6482 20.48C18.4349 20.2578 18.2216 20.0267 17.9993 19.8045C17.866 19.6711 17.7327 19.5556 17.5993 19.4222C17.0571 18.88 16.5149 18.3378 15.9727 17.7956C15.8127 17.6267 15.6349 17.4667 15.4749 17.2978C15.4038 17.2178 15.3327 17.1378 15.2527 17.0667C15.0838 16.8978 14.9149 16.7378 14.746 16.5689C14.7105 16.5334 14.6927 16.4889 14.666 16.4445C14.746 16.4445 14.826 16.4445 14.906 16.4445C15.1016 16.4445 15.2349 16.3378 15.3327 16.1778C15.4216 16.0267 15.4393 15.8578 15.4216 15.6711C15.3949 15.6089 15.3416 15.5467 15.3327 15.4756C15.306 15.3245 15.1905 15.28 15.0838 15.2267C15.0571 15.2178 15.0393 15.2 15.0127 15.1911C15.0393 15.1467 15.0571 15.1022 15.0927 15.0667C15.2705 14.8978 15.4482 14.7289 15.626 14.56C15.7416 14.4445 15.8482 14.32 15.9638 14.2045C16.1238 14.0445 16.2838 13.8934 16.4438 13.7422C16.5593 13.6356 16.666 13.5111 16.7727 13.4045C16.8882 13.2889 16.9949 13.1734 17.1105 13.0667C17.6349 12.5422 18.1593 12.0178 18.6838 11.4934C18.6927 11.4845 18.7105 11.4667 18.7371 11.4489C18.7638 11.4578 18.8082 11.4667 18.8438 11.4934C18.9238 11.5645 19.0038 11.6356 19.0838 11.7156C19.1993 11.8311 19.2971 11.9734 19.4216 12.0711C19.5905 12.2045 19.706 12.3734 19.8571 12.5334C19.8216 12.5778 19.786 12.6134 19.7505 12.6489C18.8349 13.5645 17.9282 14.4711 17.0127 15.3867C16.9682 15.4311 16.9416 15.4934 16.8616 15.4845C16.8616 15.3956 16.8616 15.3067 16.8616 15.2089C16.7016 15.2089 16.5593 15.1911 16.426 15.2178V16.8622H16.8705V16.5245H16.8527Z" fill="#D6ECDB"/>
<path d="M11.5731 16.8622V16.9245C11.5198 16.9867 11.4754 17.0311 11.4309 17.0756C11.4131 17.0933 11.4042 17.12 11.3865 17.1289C11.2265 17.2267 11.1287 17.3778 11.0042 17.5111C10.9509 17.5733 10.8709 17.6178 10.8087 17.68C10.6931 17.8045 10.5776 17.9289 10.462 18.0533C10.4176 18.0978 10.3731 18.1422 10.3287 18.1867C10.2754 18.2311 10.222 18.2667 10.1687 18.32C10.0709 18.4178 9.98203 18.5245 9.88425 18.6311C9.85758 18.6667 9.82203 18.7022 9.78647 18.7289C9.71536 18.7645 9.66203 18.8089 9.63536 18.88C9.63536 18.88 9.63536 18.8889 9.62647 18.8889C9.47536 19.0311 9.32425 19.1645 9.18203 19.3067C9.15536 19.3333 9.12869 19.3689 9.10203 19.3956C9.08425 19.4133 9.08425 19.44 9.06647 19.4489C8.91536 19.5911 8.76425 19.7245 8.62203 19.8667C8.59536 19.8933 8.57758 19.92 8.55092 19.9467C8.54203 19.9556 8.54203 19.9822 8.52425 19.9911C8.3198 20.1778 8.12425 20.3733 7.92869 20.56C7.89314 20.5511 7.87536 20.5511 7.85758 20.5422C7.54647 20.2489 7.23536 19.9556 6.93314 19.6533C6.8798 19.6 6.84425 19.5378 6.7998 19.4756C6.97758 19.3067 7.15536 19.1378 7.32425 18.9689C7.45758 18.8356 7.58203 18.6845 7.72425 18.5511C7.85758 18.4178 7.99092 18.3022 8.12425 18.1689C8.25758 18.0445 8.38203 17.9111 8.50647 17.7867C8.65758 17.6356 8.81758 17.4756 8.96869 17.3245C9.00425 17.2889 9.0398 17.2534 9.07536 17.2178C9.13758 17.1556 9.20869 17.0845 9.27092 17.0222C9.31536 16.9778 9.37758 16.9422 9.36869 16.8711C9.5198 16.8711 9.66203 16.88 9.81314 16.88C9.98203 16.88 10.1242 16.8356 10.2487 16.72C10.2754 16.72 10.2931 16.72 10.3376 16.7378C10.3376 16.6933 10.3198 16.6578 10.3198 16.6311H10.3287V16.6133C10.3287 16.6133 10.3465 16.6133 10.3554 16.6133C10.3554 16.6133 10.3376 16.6133 10.3287 16.6133C10.3376 16.5778 10.3554 16.5511 10.3642 16.5156C10.3642 16.5156 10.382 16.5156 10.3909 16.5156C10.3909 16.5156 10.3731 16.5156 10.3642 16.5156C10.3998 16.0889 10.382 15.6533 10.382 15.2267H9.94647V15.6356C9.94647 15.6356 9.89314 15.6178 9.86647 15.6C9.67981 15.4133 9.49314 15.2267 9.30647 15.0489C9.05758 14.8 8.7998 14.56 8.55092 14.3111C8.43536 14.1956 8.32869 14.0711 8.21314 13.9556C8.07092 13.8045 7.9198 13.6622 7.77758 13.52C7.64425 13.3867 7.51092 13.2445 7.36869 13.1111C7.20869 12.9511 7.04869 12.8 6.88869 12.6489C6.86203 12.6222 6.83536 12.5778 6.80869 12.5422C6.83536 12.4533 6.87092 12.4 6.95092 12.3467C7.03092 12.3022 7.10203 12.2133 7.16425 12.1422C7.25314 12.0356 7.36869 11.9556 7.44869 11.84C7.5198 11.7333 7.64425 11.6533 7.75092 11.5645C7.78647 11.5289 7.82203 11.4933 7.87536 11.4578C7.91092 11.4845 7.94647 11.5022 7.97314 11.5289C8.18647 11.7333 8.39092 11.9467 8.60425 12.1511C8.78203 12.3289 8.97758 12.4978 9.15536 12.6756C9.22647 12.7378 9.28869 12.8178 9.35092 12.88C9.47536 13.0045 9.5998 13.12 9.72425 13.2445C9.82203 13.3422 9.91092 13.4578 10.0087 13.5556C10.2754 13.8133 10.542 14.0622 10.7998 14.32C10.942 14.4534 11.0665 14.6045 11.1998 14.7467C11.3154 14.8622 11.4487 14.9778 11.5731 15.0933V15.2C11.5731 15.2 11.5109 15.2178 11.4665 15.2178V16.8445C11.4665 16.8445 11.5109 16.8622 11.5287 16.88" fill="#D6ECDB"/>
<path d="M16.8526 16.1867V16.8622H16.4082V15.2178C16.5415 15.1822 16.6838 15.2089 16.8438 15.2089C16.8438 15.3067 16.8438 15.3956 16.8438 15.4845C16.8438 15.5911 16.8438 15.6978 16.8438 15.8222C16.9504 15.8222 17.0393 15.8222 17.1282 15.8222C17.2171 15.8222 17.3149 15.8222 17.4215 15.8222V15.2089H17.866V16.8534C17.7238 16.8445 17.5815 16.8356 17.4304 16.8267V16.1867H16.8349H16.8526Z" fill="#A3A5A6"/>
<path d="M12.0263 15.5467H11.9285V15.9733C12.0619 15.9733 12.1863 15.9733 12.3107 15.9733C12.3641 15.9733 12.4085 15.9645 12.4263 15.9022C12.4707 15.8133 12.453 15.7156 12.4263 15.6089C12.3019 15.5378 12.1685 15.52 12.0263 15.5556M11.573 16.88C11.573 16.88 11.5285 16.8622 11.5107 16.8445V15.2178C11.5107 15.2178 11.5819 15.2 11.6085 15.2C11.813 15.2 12.0263 15.2 12.2307 15.2C12.293 15.2 12.3552 15.2 12.4174 15.2C12.6219 15.2267 12.7819 15.3067 12.853 15.5111C12.7996 15.5556 12.853 15.5733 12.8796 15.5911C12.8796 15.6978 12.8885 15.8133 12.8619 15.92C12.8174 16.0889 12.7107 16.2133 12.5241 16.2845C12.6752 16.4533 12.8085 16.6133 12.9063 16.8089C12.8263 16.8711 12.7463 16.8356 12.6841 16.8445C12.613 16.8445 12.533 16.8445 12.453 16.8445C12.3641 16.7111 12.2752 16.5867 12.1863 16.4533C12.1419 16.3911 12.1063 16.3289 12.0174 16.32H11.9019C11.9019 16.3911 11.9019 16.4533 11.9107 16.5156C11.9107 16.6222 11.9019 16.72 11.893 16.8445C11.7774 16.8445 11.6707 16.8533 11.5552 16.8622" fill="#1B181C"/>
<path d="M26.7291 15.5289C26.7291 15.5289 26.6846 15.5289 26.6669 15.5289V15.9556C26.6669 15.9556 26.7113 15.9556 26.7291 15.9645C26.7913 15.9645 26.8535 15.9822 26.9157 15.9822C27.0402 16 27.1469 15.9822 27.2091 15.8756V15.6089C27.058 15.5378 26.898 15.5022 26.7291 15.52M26.898 16.3822C26.8328 16.3408 26.7646 16.323 26.6935 16.3289V16.8178C26.5602 16.8534 26.4269 16.8267 26.2935 16.8356C26.258 16.7111 26.258 15.36 26.2846 15.1911C26.4002 15.1911 26.5157 15.1911 26.6224 15.2C26.7913 15.2 26.9691 15.2 27.138 15.2C27.4046 15.2 27.5557 15.3245 27.618 15.5911C27.618 15.6267 27.6357 15.6534 27.6535 15.6889C27.6002 15.7245 27.6002 15.76 27.6535 15.7956C27.6535 15.8311 27.6535 15.8667 27.6535 15.8934C27.6091 15.8934 27.5735 15.9111 27.6002 15.9734C27.5824 16.1511 27.4491 16.2222 27.3069 16.2934C27.4669 16.4534 27.5735 16.6311 27.698 16.8356H27.218C27.1469 16.7378 27.0757 16.6311 27.0046 16.5334C27.0046 16.4622 26.9513 16.4267 26.898 16.3911" fill="#A3A5A6"/>
<path d="M20.3997 16.4889C20.3997 16.4889 20.3819 16.5778 20.3641 16.6222C20.3197 16.6222 20.293 16.6489 20.3019 16.6933C20.2041 16.8089 20.0708 16.8533 19.9285 16.8622C19.7863 16.8711 19.6352 16.88 19.493 16.8622C19.3597 16.8444 19.2086 16.8356 19.1197 16.6933C19.1197 16.6489 19.1019 16.6222 19.0574 16.6222C19.0486 16.5778 19.0308 16.5333 19.0219 16.4889C19.0515 16.4533 19.0397 16.4296 18.9863 16.4178V15.2089C19.1197 15.2089 19.2441 15.2089 19.3686 15.2089C19.3686 15.2356 19.3686 15.2622 19.3686 15.2978C19.3686 15.3511 19.3952 15.3511 19.4308 15.36C19.4308 15.6622 19.4308 15.9733 19.4308 16.2756C19.4308 16.2933 19.413 16.3022 19.4041 16.3289C19.4397 16.3822 19.4752 16.4356 19.5019 16.48C19.653 16.5067 19.7774 16.5422 19.9019 16.48C19.9819 16.3822 19.9997 16.2844 19.9908 16.1689C19.9908 15.8933 19.9908 15.6267 19.9908 15.3511V15.2089H20.4085V15.5378C20.4085 15.6622 20.4085 15.7956 20.4085 15.92C20.4085 16.0711 20.4263 16.2311 20.4352 16.3822C20.3552 16.4089 20.3552 16.4178 20.3997 16.4889Z" fill="#A3A5A6"/>
<path d="M23.7416 16.4533C23.6883 16.0889 23.7149 15.7245 23.7061 15.36C23.7061 15.3156 23.7061 15.2711 23.7061 15.2H24.1238C24.1238 15.5289 24.1238 15.8667 24.1238 16.1956C24.1238 16.2311 24.0972 16.2933 24.1594 16.3111C24.1416 16.4 24.2305 16.4267 24.2661 16.4711C24.3994 16.4978 24.5238 16.5511 24.6749 16.4622C24.7283 16.3822 24.7549 16.2667 24.7549 16.1422C24.7549 15.8845 24.7549 15.6267 24.7549 15.36V15.2H25.2083C25.2083 15.5289 25.2083 15.8489 25.2083 16.1689C25.2083 16.2933 25.1638 16.4089 25.1372 16.5333C25.1194 16.6133 25.0661 16.6667 25.0127 16.72C24.9594 16.7111 24.9416 16.7289 24.9416 16.7822C24.7549 16.8711 24.5505 16.8533 24.3549 16.8533C24.2483 16.8533 24.1594 16.8356 24.0527 16.8C23.9105 16.7378 23.8305 16.6489 23.7949 16.5067C23.8038 16.4978 23.8216 16.48 23.8483 16.4533C23.8038 16.4533 23.7861 16.4445 23.7683 16.4356" fill="#A3A5A6"/>
<path d="M14.5687 15.5556C14.5687 15.5556 14.4798 15.5556 14.4265 15.5556V16.0711C14.4265 16.0711 14.4709 16.1067 14.4976 16.1067C14.622 16.1067 14.7376 16.1067 14.8531 16.1067C14.8976 16.0711 14.9242 16.0444 14.9509 16.0267C14.9331 15.8578 15.0042 15.6889 14.862 15.5556H14.5687ZM15.022 15.2089C15.022 15.2089 15.0665 15.2356 15.0931 15.2444C15.1998 15.2978 15.3154 15.3422 15.342 15.4933C15.3509 15.5644 15.4042 15.6267 15.4309 15.6889C15.4398 15.8667 15.4309 16.0356 15.342 16.1956C15.2442 16.3556 15.1109 16.4533 14.9154 16.4622C14.8354 16.4622 14.7554 16.4622 14.6754 16.4622H14.4354V16.8622H14.0176V15.2089H15.022Z" fill="#A3A5A6"/>
<path d="M10.382 16.5067C10.382 16.5067 10.3553 16.5689 10.3464 16.6045V16.6222H10.3375C10.3375 16.6222 10.2931 16.6845 10.2664 16.72C10.142 16.8356 9.99087 16.88 9.83087 16.88C9.67976 16.88 9.53754 16.88 9.38643 16.8711C9.24421 16.8178 9.10198 16.7734 9.03976 16.6134C9.01309 16.5422 8.97754 16.4622 8.97754 16.3822C8.97754 16 8.97754 15.6089 8.97754 15.2178H9.38643C9.38643 15.4045 9.38643 15.5911 9.38643 15.7778C9.38643 15.9378 9.38643 16.0889 9.38643 16.2489C9.38643 16.3467 9.40421 16.4534 9.51087 16.4978C9.63532 16.5511 9.76865 16.56 9.89309 16.48C9.96421 16.4356 9.97309 16.3645 9.97309 16.3022C9.97309 16.08 9.97309 15.8667 9.97309 15.6445V15.2356H10.4086C10.4086 15.6622 10.4175 16.0978 10.3909 16.5245L10.382 16.5067Z" fill="#1B181C"/>
<path d="M4.2041 15.2089H4.62188C4.62188 15.2533 4.62188 15.2978 4.62188 15.3422C4.62188 15.5822 4.62188 15.8311 4.62188 16.0711C4.62188 16.16 4.62188 16.2578 4.64855 16.3467C4.65743 16.4 4.70188 16.4444 4.71966 16.48C4.87966 16.5244 5.01299 16.5511 5.14632 16.48C5.20855 16.4 5.22632 16.3022 5.22632 16.1956C5.22632 15.9289 5.22632 15.6622 5.22632 15.3956V15.2178H5.65299V15.3867C5.65299 15.6267 5.65299 15.8756 5.65299 16.1156C5.65299 16.2222 5.6441 16.3378 5.62632 16.4444C5.58188 16.7111 5.45744 16.8444 5.19077 16.8711C5.02188 16.8889 4.8441 16.8889 4.67521 16.8711C4.41744 16.8444 4.25743 16.6756 4.23966 16.4089C4.22188 16.0178 4.21299 15.6267 4.2041 15.2178" fill="#1B181C"/>
<path d="M28.7462 15.2089H29.9729V15.52C29.8395 15.5467 29.7151 15.52 29.5817 15.5289C29.4484 15.5289 29.3151 15.5289 29.1729 15.5289V15.8489H29.8484C29.8929 15.9733 29.8751 16.08 29.8484 16.1867H29.164V16.5067H29.964V16.8267C29.8395 16.8622 28.9417 16.8622 28.7373 16.8267V15.2L28.7462 15.2089Z" fill="#1B181C"/>
<path d="M3.19081 15.92V16.2489H2.43526V16.8445H2.02637V15.2178H3.23526V15.5378H2.46192C2.41748 15.6711 2.44414 15.7867 2.43526 15.9289H3.19081V15.92Z" fill="#1B181C"/>
<path d="M22.7289 15.5467H22.3201V16.8267C22.1689 16.8445 22.0267 16.8622 21.8667 16.88C21.8667 16.6489 21.8667 16.4267 21.8667 16.2133C21.8667 16 21.8667 15.7867 21.8667 15.5556H21.3867V15.2H22.7289C22.7289 15.3156 22.7289 15.4311 22.7289 15.5467Z" fill="#A3A5A6"/>
<path d="M7.52854 16.8445H7.10187V15.5645H6.63965V15.2178H7.99076C7.99076 15.2711 7.99076 15.3245 7.99076 15.3778C7.99076 15.4311 7.99076 15.4845 7.99076 15.5378C7.84854 15.5822 7.69743 15.5378 7.52854 15.5645C7.52854 15.9822 7.52854 16.4089 7.52854 16.8445Z" fill="#1B181C"/>
<path d="M24.1597 16.3111C24.0886 16.2933 24.1241 16.2311 24.1241 16.1956C24.1241 15.8667 24.1241 15.5289 24.1241 15.2C24.1419 15.2 24.1597 15.2 24.1863 15.2089C24.1863 15.2356 24.1863 15.2622 24.1863 15.2889C24.1863 15.5911 24.1863 15.9022 24.1863 16.2045C24.1863 16.24 24.1686 16.2756 24.1597 16.3111Z" fill="#D6ECDB"/>
<path d="M22.7285 15.5467C22.7285 15.4311 22.7285 15.3156 22.7285 15.2C22.7463 15.1911 22.7552 15.1733 22.7907 15.1467V15.5378C22.7907 15.5378 22.7463 15.5378 22.7285 15.5467Z" fill="#D6ECDB"/>
<path d="M11.9288 16.5245C11.9288 16.4623 11.9288 16.4089 11.9199 16.3289H12.0355C12.0355 16.3289 12.0355 16.3823 12.0355 16.4178C12.0355 16.4889 12.0088 16.5245 11.9377 16.5245" fill="#D6ECDB"/>
<path d="M19.4312 15.3422C19.4312 15.3422 19.36 15.3333 19.3689 15.28C19.3689 15.2533 19.3689 15.2267 19.3689 15.1911C19.3867 15.1822 19.3956 15.1733 19.44 15.1378V15.3333L19.4312 15.3422Z" fill="#D6ECDB"/>
<path d="M26.9062 16.3822C26.9596 16.4178 27.0129 16.4533 27.0129 16.5245C26.9151 16.5067 26.9151 16.4978 26.9062 16.3822Z" fill="#D6ECDB"/>
<path d="M27.6709 15.7956C27.6175 15.76 27.6175 15.7245 27.6709 15.6889C27.7242 15.7245 27.7242 15.76 27.6709 15.7956Z" fill="#D6ECDB"/>
<path d="M20.4002 16.4889C20.3558 16.4178 20.3647 16.4089 20.4358 16.3822C20.4358 16.4178 20.4624 16.4711 20.4002 16.4889Z" fill="#D6ECDB"/>
<path d="M12.8887 15.5911C12.8887 15.5911 12.8088 15.5556 12.8621 15.5111C12.8621 15.5378 12.8799 15.5645 12.8887 15.5911Z" fill="#A3A5A6"/>
<path d="M27.6082 15.9733C27.5905 15.92 27.6082 15.9022 27.6616 15.8933C27.6616 15.9378 27.6616 15.9645 27.6082 15.9733Z" fill="#D6ECDB"/>
<path d="M18.9775 16.4178C19.0309 16.4296 19.0427 16.4533 19.0131 16.4889C19.0131 16.4889 18.9864 16.4445 18.9775 16.4178Z" fill="#D6ECDB"/>
<path d="M23.7423 16.4533C23.7423 16.4533 23.7867 16.4533 23.8223 16.4711C23.7956 16.4978 23.7867 16.5067 23.769 16.5244C23.7601 16.4978 23.7512 16.48 23.7334 16.4533" fill="#D6ECDB"/>
<path d="M19.0491 16.6222C19.0935 16.6222 19.1202 16.6489 19.1113 16.6933C19.0579 16.6933 19.0402 16.6756 19.0491 16.6222Z" fill="#D6ECDB"/>
<path d="M20.3018 16.6933C20.3018 16.6489 20.3195 16.6222 20.364 16.6222C20.3729 16.6756 20.3551 16.7022 20.3018 16.6933Z" fill="#D6ECDB"/>
<path d="M24.9238 16.8C24.9238 16.7467 24.9416 16.7289 24.9949 16.7378C24.9949 16.7911 24.9683 16.8089 24.9238 16.8Z" fill="#D6ECDB"/>
<path d="M10.2754 16.7111C10.2754 16.7111 10.3198 16.6489 10.3465 16.6133C10.3465 16.64 10.3554 16.6756 10.3643 16.72C10.3287 16.72 10.3021 16.7111 10.2754 16.7022" fill="#A3A5A6"/>
<path d="M12.4265 15.8933C12.4176 15.9556 12.3643 15.9644 12.3109 15.9644C12.1865 15.9644 12.062 15.9644 11.9287 15.9644V15.5378H12.0265V15.6889C12.0265 15.6889 12.0709 15.6356 12.0976 15.6089C12.1865 15.6978 12.2576 15.7778 12.3376 15.8578C12.3554 15.8756 12.3909 15.8844 12.4265 15.8933Z" fill="#D6ECDB"/>
<path d="M26.7282 15.5289C26.7282 15.68 26.7282 15.8222 26.7282 15.9733C26.7105 15.9733 26.6927 15.9733 26.666 15.9645V15.5378C26.666 15.5378 26.7105 15.5378 26.7282 15.5378" fill="#D6ECDB"/>
<path d="M14.569 15.5556H14.8623C15.0134 15.6978 14.9423 15.8667 14.9512 16.0267C14.9245 16.0534 14.889 16.0711 14.8534 16.1067C14.7379 16.1067 14.6223 16.1067 14.4979 16.1067C14.4712 16.1067 14.4534 16.0889 14.4268 16.0711C14.489 16.0445 14.4623 15.9911 14.4623 15.9467C14.4623 15.8667 14.4623 15.7867 14.4623 15.6978C14.4979 15.6711 14.5334 15.6445 14.569 15.6178V15.5467V15.5556Z" fill="#D6ECDB"/>
</g>
</g>
<defs>
<clipPath id="clip0_2810_57239">
<rect width="32" height="32" fill="white"/>
</clipPath>
</defs>
</svg>
