<svg width="32" height="32" viewBox="0 0 32 32" fill="none" xmlns="http://www.w3.org/2000/svg">
<g clip-path="url(#clip0_2707_340658)">
<path d="M15.9998 31.9823C24.8265 31.9823 31.982 24.8268 31.982 16C31.982 7.17331 24.8265 0.0178223 15.9998 0.0178223C7.17306 0.0178223 0.0175781 7.17331 0.0175781 16C0.0175781 24.8268 7.17306 31.9823 15.9998 31.9823Z" fill="white"/>
<path d="M20.4443 11.6533H28.5688V20.3467H20.4443V11.6533ZM23.3066 18.8533C23.2671 18.8269 23.2207 18.8129 23.1732 18.8129C23.1258 18.8129 23.0794 18.8269 23.0399 18.8533C22.9843 18.8959 22.9433 18.9547 22.9226 19.0216C22.9019 19.0885 22.9025 19.1601 22.9243 19.2267C22.9328 19.2715 22.951 19.314 22.9777 19.3511C23.0266 19.3948 23.0899 19.419 23.1554 19.419C23.221 19.419 23.2843 19.3948 23.3332 19.3511C23.3382 19.3835 23.3382 19.4165 23.3332 19.4489C23.3292 19.4727 23.3194 19.4951 23.3049 19.5144C23.2904 19.5337 23.2714 19.5492 23.2497 19.5596C23.2279 19.5701 23.204 19.5751 23.1798 19.5744C23.1557 19.5737 23.1321 19.5672 23.111 19.5555H22.9777L22.9332 19.7067C23.0454 19.7459 23.1677 19.7459 23.2799 19.7067C23.431 19.7067 23.4932 19.5911 23.5021 19.3955C23.511 19.2 23.5021 19.0933 23.5021 18.9333V18.8533C23.3688 18.8533 23.3421 18.8533 23.3154 18.8533H23.3066ZM26.2221 13.0311V14.2222H26.3554V13.6889C26.3938 13.6934 26.4326 13.6934 26.471 13.6889C26.5043 13.6875 26.5373 13.6961 26.5658 13.7135C26.5943 13.7309 26.617 13.7564 26.631 13.7867L26.6754 13.8755L26.8177 14.2222H26.9599C26.9066 14.0978 26.8532 13.9822 26.8088 13.8667C26.7862 13.7842 26.736 13.7121 26.6666 13.6622C26.7357 13.6453 26.796 13.603 26.8355 13.5437C26.875 13.4845 26.8908 13.4126 26.8799 13.3422C26.8752 13.2845 26.8519 13.2298 26.8134 13.1865C26.7749 13.1432 26.7234 13.1136 26.6666 13.1022H26.2221V13.0311ZM25.6977 19.4044C25.7351 19.4231 25.7763 19.4327 25.8181 19.4325C25.8598 19.4323 25.901 19.4222 25.9382 19.4032C25.9754 19.3842 26.0076 19.3567 26.0322 19.3229C26.0568 19.2892 26.0731 19.2501 26.0799 19.2089C26.0842 19.1586 26.0842 19.108 26.0799 19.0578C26.0799 19.0109 26.0676 18.9649 26.0442 18.9243C26.0208 18.8838 25.9871 18.8501 25.9466 18.8267C25.9053 18.8006 25.8576 18.7867 25.8088 18.7867C25.76 18.7867 25.7122 18.8006 25.671 18.8267H25.6266V18.7822H25.4666V19.6267H25.6621L25.6977 19.4044ZM24.8088 13.5467V13.1555H25.2532V13.0489C25.061 13.0311 24.8676 13.0311 24.6754 13.0489V14.2222H25.2621V14.1067H24.8888V13.6889H25.2977V13.5733L24.8088 13.5467ZM27.271 14.1955H27.8666V14.08H27.4043V13.6622H27.8132V13.5467H27.4043V13.1555H27.8488V13.04H27.271V14.1955ZM23.8843 14.0355C23.8221 13.8667 23.7688 13.7067 23.7066 13.5467L23.5466 13.0844H23.4221L23.8577 14.2222C23.9999 14.2222 23.9999 14.2222 24.0443 14.1155L24.3466 13.3333C24.3466 13.2533 24.4088 13.1644 24.4354 13.0755H24.3021L23.9288 14.0711L23.8843 14.0355ZM21.5732 14.2044H21.6799C21.6945 14.2082 21.7098 14.2082 21.7243 14.2044L21.8843 13.7689C21.9643 13.5822 22.0354 13.3867 22.1066 13.2C22.1066 13.2 22.1066 13.12 22.151 13.0755H22.0177L21.6443 14.0889L21.3332 13.0489H21.191L21.6177 14.2044H21.5732ZM24.6577 19.12C24.6627 19.0838 24.6604 19.0469 24.651 19.0116C24.6416 18.9762 24.6252 18.9431 24.6029 18.9141C24.5805 18.8852 24.5526 18.861 24.5208 18.8429C24.4891 18.8248 24.454 18.8133 24.4177 18.8089C24.3445 18.7896 24.2668 18.7968 24.1984 18.8294C24.1301 18.8619 24.0755 18.9176 24.0443 18.9867C24.0312 19.0512 24.0312 19.1177 24.0443 19.1822C24.0473 19.226 24.061 19.2684 24.0843 19.3056C24.1075 19.3428 24.1396 19.3737 24.1777 19.3955C24.2297 19.4278 24.2898 19.4449 24.351 19.4449C24.4123 19.4449 24.4723 19.4278 24.5243 19.3955C24.583 19.3791 24.6339 19.3424 24.6681 19.2919C24.7023 19.2415 24.7175 19.1806 24.711 19.12H24.6577ZM24.7554 18.8178C24.7554 18.96 24.7554 19.1022 24.7554 19.2355C24.7543 19.2806 24.7687 19.3246 24.7962 19.3602C24.8237 19.3958 24.8627 19.4209 24.9066 19.4311C24.9442 19.4443 24.9847 19.4472 25.0238 19.4393C25.0629 19.4315 25.0991 19.4133 25.1288 19.3867V19.4489H25.2977V18.8444H25.0932V19.2C25.0945 19.2124 25.0931 19.2249 25.0892 19.2367C25.0853 19.2486 25.0789 19.2595 25.0706 19.2687C25.0622 19.2779 25.0519 19.2852 25.0405 19.2903C25.0291 19.2953 25.0168 19.2978 25.0043 19.2978C24.9816 19.2936 24.9611 19.2814 24.9464 19.2635C24.9318 19.2456 24.924 19.2231 24.9243 19.2V18.8444L24.7554 18.8178ZM23.111 14.5778V12.4444H23.0132V14.5778H23.111ZM25.7777 12.4444V14.5778H25.8577V12.4444H25.7777ZM23.6177 18.8622V19.4667H23.8132V19.1467C23.8132 19.1319 23.8162 19.1172 23.8221 19.1037C23.828 19.0901 23.8367 19.0779 23.8475 19.0679C23.8584 19.0579 23.8712 19.0502 23.8852 19.0454C23.8992 19.0406 23.914 19.0388 23.9288 19.04H23.9999V18.8622C23.911 18.8622 23.8577 18.8622 23.8043 18.9333V18.8711L23.6177 18.8622ZM22.4532 13.0844V14.2222H22.5599V13.04L22.4532 13.0844Z" fill="#4B2F24"/>
<path d="M7.75993 15.1111V17.1822L7.11104 17.3333C6.9866 17.3333 6.85327 17.3333 6.72882 17.3778C6.58691 17.3911 6.44407 17.3911 6.30216 17.3778L5.83104 17.3244C5.66051 17.295 5.49362 17.2473 5.33327 17.1822C5.24315 17.1486 5.1591 17.1006 5.08438 17.04C4.95785 16.9595 4.84401 16.8607 4.7466 16.7467C4.62067 16.5974 4.51872 16.4295 4.44438 16.2489C4.39956 16.1425 4.36387 16.0324 4.33771 15.92C4.32902 15.8224 4.32902 15.7242 4.33771 15.6267C4.32884 15.5053 4.32884 15.3835 4.33771 15.2622C4.33093 14.9535 4.4012 14.648 4.54215 14.3733C4.61539 14.2308 4.70813 14.0991 4.81771 13.9822L5.0666 13.7333C5.17398 13.6569 5.28689 13.5886 5.40438 13.5289C5.59347 13.4303 5.7978 13.3642 6.00882 13.3333H6.31104H6.63993C6.76422 13.3246 6.88897 13.3246 7.01327 13.3333C7.14246 13.3506 7.27021 13.3774 7.39549 13.4133L7.64438 13.5022C7.58216 13.7333 7.51104 13.9555 7.44882 14.1867L7.25327 14.1244C7.1016 14.0699 6.94301 14.037 6.78216 14.0267H6.5066C6.3317 14.0346 6.15849 14.0644 5.99104 14.1155C5.82707 14.1749 5.67615 14.2655 5.5466 14.3822C5.46688 14.4595 5.40076 14.5496 5.35104 14.6489C5.26356 14.8103 5.21487 14.9898 5.20882 15.1733C5.20001 15.265 5.20001 15.3572 5.20882 15.4489C5.19986 15.669 5.24247 15.8882 5.33327 16.0889C5.46038 16.3238 5.66906 16.504 5.91993 16.5955C6.02339 16.6319 6.13082 16.6558 6.23993 16.6667C6.32236 16.6799 6.40639 16.6799 6.48882 16.6667H6.86215H6.93327V15.7778H6.22215V15.1111H7.75993Z" fill="#014EB6"/>
<path d="M13.333 17.1556L13.1108 17.2267L12.7019 17.3334L12.3197 17.3778C12.1661 17.3956 12.011 17.3956 11.8575 17.3778C11.65 17.375 11.4438 17.3452 11.2441 17.289C11.0492 17.2336 10.8634 17.1498 10.693 17.0401C10.433 16.8622 10.2269 16.6162 10.0975 16.329C10.027 16.1783 9.97335 16.0203 9.93747 15.8578C9.91537 15.6629 9.91537 15.4661 9.93747 15.2712C9.94625 15.0688 9.98213 14.8685 10.0441 14.6756C10.0963 14.5147 10.1711 14.3621 10.2664 14.2223C10.3733 14.071 10.4955 13.931 10.6308 13.8045C10.687 13.7522 10.7497 13.7074 10.8175 13.6712C10.9838 13.5599 11.1669 13.4759 11.3597 13.4223C11.501 13.3776 11.6473 13.3507 11.7952 13.3423C11.9375 13.3423 12.0708 13.3423 12.213 13.3423H12.533C12.678 13.3514 12.8213 13.3783 12.9597 13.4223L13.2619 13.5201C13.1997 13.7601 13.1375 13.9823 13.0664 14.2134H12.9864C12.8199 14.1502 12.647 14.1055 12.4708 14.0801C12.3086 14.0575 12.1441 14.0575 11.9819 14.0801C11.8454 14.0926 11.7109 14.1225 11.5819 14.169C11.3695 14.2393 11.1834 14.3726 11.0486 14.5512C10.9484 14.6956 10.8789 14.8589 10.8441 15.0312C10.8441 15.1467 10.8441 15.2712 10.8441 15.3867C10.8513 15.5675 10.8812 15.7467 10.933 15.9201C10.9972 16.0977 11.1005 16.2587 11.2352 16.3912C11.3465 16.5052 11.4838 16.5906 11.6352 16.6401C11.8126 16.6991 11.9998 16.7232 12.1864 16.7112L12.5952 16.6667V15.7778H11.9197V15.1112H13.333C13.333 15.1112 13.3775 16.889 13.333 17.1556Z" fill="#014EB6"/>
<path d="M17.9645 13.5378C17.9645 13.6089 17.9645 13.68 17.9023 13.7422L17.7778 14.2222C17.7778 14.2667 17.7778 14.2667 17.7067 14.2222C17.6356 14.1778 17.4045 14.1067 17.2534 14.0622C17.0501 14.0039 16.8345 14.0039 16.6311 14.0622C16.5651 14.0862 16.5069 14.1279 16.463 14.1828C16.419 14.2377 16.3911 14.3036 16.3823 14.3733C16.3787 14.4161 16.3848 14.4591 16.4002 14.4991C16.4156 14.5391 16.4399 14.5751 16.4711 14.6044C16.5074 14.6572 16.5563 14.7 16.6134 14.7289L17.1467 14.9778C17.341 15.052 17.5236 15.1538 17.6889 15.28C17.835 15.3958 17.9509 15.5453 18.0267 15.7156C18.074 15.8341 18.0952 15.9614 18.0889 16.0889C18.0975 16.2361 18.0794 16.3836 18.0356 16.5244C17.991 16.6712 17.9144 16.8063 17.8115 16.92C17.7085 17.0338 17.5817 17.1233 17.44 17.1822C17.2825 17.2552 17.1146 17.3032 16.9423 17.3244H16.7378H16.4711C16.1211 17.3197 15.7782 17.2248 15.4756 17.0489L15.6711 16.3467L16.0711 16.5067C16.2557 16.5869 16.4572 16.6205 16.6578 16.6044C16.7959 16.6141 16.934 16.5864 17.0578 16.5244C17.1327 16.4782 17.1911 16.4095 17.2246 16.328C17.2582 16.2466 17.2651 16.1567 17.2445 16.0711C17.2343 16.017 17.2123 15.9659 17.18 15.9213C17.1477 15.8768 17.106 15.8399 17.0578 15.8133L16.8889 15.8044L16.5867 15.6622C16.3669 15.5753 16.1556 15.4682 15.9556 15.3422C15.8081 15.2378 15.6864 15.101 15.6 14.9422C15.5516 14.8454 15.5244 14.7393 15.52 14.6311C15.5156 14.569 15.5156 14.5066 15.52 14.4444C15.5199 14.2064 15.605 13.9762 15.76 13.7956C15.9098 13.6231 16.1032 13.4941 16.32 13.4222C16.4577 13.3739 16.6012 13.344 16.7467 13.3333C16.8917 13.3244 17.0372 13.3244 17.1823 13.3333C17.3117 13.3441 17.4398 13.3679 17.5645 13.4044C17.7067 13.4311 17.8311 13.4844 17.9645 13.5378Z" fill="#014EB6"/>
<path d="M9.43105 14.7734H8.2666V15.9379H9.43105V14.7734Z" fill="#4B2F24"/>
<path d="M15.0311 14.7734H13.8667V15.9379H15.0311V14.7734Z" fill="#4B2F24"/>
<path d="M17.7776 19.6533H17.5998C17.5954 19.6149 17.5954 19.5762 17.5998 19.5378C17.5953 19.4667 17.5953 19.3955 17.5998 19.3244C17.5998 19.2444 17.5998 19.1556 17.5998 19.0489C17.5998 19.1556 17.5376 19.2533 17.502 19.3511L17.422 19.6356C17.2709 19.6356 17.2798 19.6356 17.2442 19.5289C17.208 19.3696 17.1635 19.2124 17.1109 19.0578V19.6533H16.8887V19.5556C16.8887 19.5556 16.8887 19.3156 16.8887 19.2C16.8887 19.0844 16.8887 19.0311 16.8887 18.9511C16.8887 18.8711 16.8887 18.8889 16.9598 18.88H17.1376L17.2887 19.4311C17.2887 19.3422 17.342 19.2444 17.3687 19.1556L17.4576 18.8889H17.6887V19.0578C17.6887 19.2 17.6887 19.3333 17.6887 19.4667C17.7151 19.5304 17.7448 19.5927 17.7776 19.6533Z" fill="#4B2F21"/>
<path d="M8.6219 19.1467L8.74635 19.0667H8.82635C8.87057 19.0664 8.91329 19.0827 8.94616 19.1123C8.97904 19.1419 8.9997 19.1827 9.00412 19.2267C9.00852 19.3007 9.00852 19.3749 9.00412 19.4489V19.6711H8.83523V19.4044C8.83965 19.3631 8.83965 19.3214 8.83523 19.28C8.83304 19.2604 8.82365 19.2422 8.80888 19.2291C8.79411 19.216 8.775 19.2088 8.75523 19.2089C8.73394 19.2128 8.71454 19.2236 8.70006 19.2397C8.68558 19.2558 8.67685 19.2762 8.67523 19.2978C8.66632 19.3267 8.66632 19.3577 8.67523 19.3867V19.6711H8.47968V19.36C8.47968 19.36 8.47968 19.3156 8.47968 19.2889C8.47857 19.2784 8.47539 19.2682 8.47031 19.2589C8.46523 19.2496 8.45836 19.2414 8.45009 19.2348C8.44182 19.2282 8.43232 19.2232 8.42214 19.2203C8.41196 19.2174 8.40131 19.2165 8.39079 19.2178C8.3701 19.2229 8.35142 19.2341 8.33716 19.25C8.3229 19.2658 8.31372 19.2856 8.31079 19.3067V19.68H8.11523V19.0844H8.26635V19.1467C8.4619 19.0222 8.53301 19.0311 8.6219 19.1467Z" fill="#4B2F21"/>
<path d="M16.053 19.2001C16.0559 19.1794 16.0559 19.1585 16.053 19.1378C16.0383 19.1059 16.0318 19.0708 16.0339 19.0357C16.0361 19.0006 16.0469 18.9666 16.0654 18.9367C16.0838 18.9068 16.1094 18.8819 16.1398 18.8643C16.1702 18.8467 16.2045 18.8368 16.2397 18.8356C16.3133 18.829 16.3866 18.8513 16.4441 18.8978C16.4747 18.9321 16.4916 18.9764 16.4916 19.0223C16.4916 19.0682 16.4747 19.1125 16.4441 19.1467L16.3374 19.2356L16.4441 19.3689L16.5152 19.1734H16.6574C16.6487 19.2874 16.6053 19.3959 16.533 19.4845L16.5952 19.5556L16.6841 19.6356C16.5774 19.6356 16.4797 19.6356 16.4174 19.5912L16.2485 19.6356C16.2051 19.6487 16.1592 19.6514 16.1144 19.6437C16.0697 19.636 16.0274 19.618 15.9908 19.5912C15.9501 19.5496 15.9272 19.4938 15.9272 19.4356C15.9272 19.3774 15.9501 19.3216 15.9908 19.2801L16.0885 19.1912L16.053 19.2001ZM16.1419 19.2978C16.0708 19.3778 16.0619 19.4312 16.1419 19.4934C16.1547 19.5095 16.1709 19.5226 16.1894 19.5318C16.2078 19.541 16.228 19.5461 16.2485 19.5467C16.2694 19.5475 16.2901 19.543 16.3087 19.5337C16.3273 19.5244 16.3433 19.5105 16.3552 19.4934L16.1419 19.2978ZM16.1419 19.0312C16.1419 19.0845 16.1419 19.1378 16.213 19.1378C16.2841 19.1378 16.293 19.0756 16.293 19.0312C16.293 19.0123 16.2855 18.9942 16.2722 18.9809C16.2588 18.9676 16.2407 18.9601 16.2219 18.9601C16.1774 18.9601 16.1508 18.9601 16.1419 19.0401V19.0312Z" fill="#4B2F21"/>
<path d="M15.1997 19.7422C15.2886 19.7422 15.3686 19.8222 15.4575 19.7422C15.5464 19.6622 15.5197 19.6444 15.5197 19.5733H15.4397H15.3597C15.3085 19.5724 15.2588 19.5557 15.2174 19.5254C15.1761 19.4952 15.145 19.453 15.1286 19.4044C15.1115 19.3512 15.1067 19.2948 15.1144 19.2394C15.1221 19.184 15.1421 19.131 15.173 19.0844C15.1946 19.0567 15.2223 19.0343 15.2539 19.0189C15.2854 19.0035 15.3201 18.9955 15.3552 18.9955C15.3904 18.9955 15.4251 19.0035 15.4566 19.0189C15.4882 19.0343 15.5159 19.0567 15.5375 19.0844V19.0133H15.6886V19.1378C15.6886 19.2711 15.6886 19.4044 15.6886 19.5378C15.6965 19.5921 15.6891 19.6475 15.6671 19.6978C15.6451 19.7481 15.6094 19.7912 15.5641 19.8222C15.4929 19.8589 15.4127 19.8743 15.333 19.8667H15.1997C15.1997 19.8667 15.1552 19.8667 15.1997 19.8044V19.7422ZM15.5197 19.3511V19.28C15.5163 19.258 15.5071 19.2374 15.493 19.2202C15.4789 19.203 15.4605 19.1899 15.4397 19.1822C15.4257 19.1714 15.4085 19.1655 15.3908 19.1655C15.3731 19.1655 15.3559 19.1714 15.3419 19.1822C15.3145 19.2179 15.2997 19.2617 15.2997 19.3067C15.2997 19.3517 15.3145 19.3954 15.3419 19.4311C15.3419 19.4756 15.4219 19.4933 15.4575 19.4756C15.4785 19.4668 15.4965 19.452 15.5092 19.433C15.5218 19.414 15.5286 19.3917 15.5286 19.3689L15.5197 19.3511Z" fill="#4B2F21"/>
<path d="M18.3463 19.1645V19.3067H18.0441V19.5556H18.373V19.6978H17.8574V18.8978H18.3552V19.0312H18.0441V19.2089L18.3463 19.1645Z" fill="#4B2F21"/>
<path d="M18.6665 19.3778V19.6534H18.4888V18.8711C18.6066 18.8533 18.7265 18.8533 18.8443 18.8711C18.889 18.8746 18.932 18.8901 18.9686 18.916C19.0052 18.9419 19.0341 18.9772 19.0524 19.0182C19.0706 19.0592 19.0774 19.1043 19.072 19.1488C19.0667 19.1933 19.0495 19.2356 19.0221 19.2711C19.0015 19.2967 18.9759 19.3178 18.9469 19.3331C18.9178 19.3484 18.8859 19.3575 18.8532 19.36L18.6665 19.3778ZM18.6665 19.2356C18.7465 19.2356 18.8265 19.2356 18.871 19.1734C18.8844 19.1521 18.8915 19.1274 18.8915 19.1022C18.8915 19.0771 18.8844 19.0524 18.871 19.0311C18.8445 19.0053 18.8117 18.9867 18.7758 18.9774C18.74 18.968 18.7023 18.9682 18.6665 18.9778V19.2356Z" fill="#4B2F21"/>
<path d="M10.9777 19.0667V19.6534H10.8355V19.5556C10.7931 19.5855 10.7485 19.6123 10.7022 19.6356C10.6754 19.6468 10.6465 19.6517 10.6175 19.6498C10.5886 19.6479 10.5605 19.6392 10.5355 19.6246C10.5105 19.6099 10.4892 19.5896 10.4734 19.5653C10.4576 19.541 10.4477 19.5133 10.4444 19.4845C10.4398 19.4105 10.4398 19.3363 10.4444 19.2623V19.049H10.6311V19.2978C10.6272 19.3481 10.6272 19.3987 10.6311 19.4489C10.6371 19.4669 10.6494 19.4822 10.6657 19.492C10.682 19.5017 10.7012 19.5054 10.7199 19.5023C10.7418 19.4976 10.7618 19.4868 10.7775 19.471C10.7933 19.4552 10.8042 19.4352 10.8088 19.4134V19.049L10.9777 19.0667Z" fill="#4B2F21"/>
<path d="M13.2352 19.0667V19.3867C13.2301 19.4102 13.2301 19.4344 13.2352 19.4578C13.2316 19.4714 13.2317 19.4856 13.2353 19.4991C13.239 19.5126 13.2461 19.5249 13.256 19.5348C13.2659 19.5447 13.2782 19.5519 13.2917 19.5555C13.3052 19.5592 13.3194 19.5592 13.333 19.5556C13.3564 19.5496 13.3772 19.5357 13.3917 19.5163C13.4062 19.4969 13.4137 19.4732 13.413 19.4489V19.1023H13.5996V19.6801H13.4485V19.5556L13.3063 19.6356C13.2627 19.6532 13.2139 19.6528 13.1706 19.6345C13.1272 19.6161 13.0929 19.5814 13.0752 19.5378C13.0661 19.4909 13.0661 19.4426 13.0752 19.3956V19.049L13.2352 19.0667Z" fill="#4B2F21"/>
<path d="M14.8354 19.6534V19.3245C14.8446 19.2925 14.8446 19.2587 14.8354 19.2267C14.8222 19.2142 14.8047 19.2073 14.7865 19.2073C14.7684 19.2073 14.7509 19.2142 14.7377 19.2267C14.7377 19.2267 14.6665 19.2267 14.6665 19.3156C14.6665 19.4045 14.6665 19.5201 14.6665 19.6178V19.6801H14.4888V19.0934H14.6399C14.6348 19.1168 14.6348 19.1411 14.6399 19.1645L14.7732 19.0934C14.7988 19.0838 14.8263 19.0801 14.8535 19.0823C14.8808 19.0845 14.9072 19.0927 14.9309 19.1063C14.9547 19.1198 14.9752 19.1384 14.9909 19.1608C15.0067 19.1831 15.0173 19.2087 15.0221 19.2356C15.027 19.2769 15.027 19.3187 15.0221 19.3601V19.6801L14.8354 19.6534Z" fill="#4B2F21"/>
<path d="M4.27533 19.6534H4.08867V19.2712C4.08262 19.2477 4.06876 19.227 4.04937 19.2125C4.02998 19.1979 4.00622 19.1904 3.982 19.1912C3.95928 19.1985 3.93939 19.2127 3.92506 19.2318C3.91074 19.2509 3.90268 19.274 3.902 19.2978V19.6534H3.71533V19.0756H3.86644V19.1467L3.93755 19.0934C3.96443 19.073 3.99612 19.06 4.02954 19.0555C4.06295 19.051 4.09697 19.0552 4.12828 19.0677C4.15959 19.0802 4.18713 19.1006 4.20822 19.1269C4.22931 19.1532 4.24325 19.1846 4.24867 19.2178C4.25306 19.28 4.25306 19.3424 4.24867 19.4045L4.27533 19.6534Z" fill="#4B2F21"/>
<path d="M10.1151 19.6534V19.2801C10.1109 19.2549 10.0978 19.2322 10.0782 19.2159C10.0587 19.1996 10.0339 19.1908 10.0085 19.1912C9.98683 19.1991 9.96745 19.2121 9.95197 19.2291C9.93648 19.2461 9.92536 19.2667 9.91957 19.2889V19.6534H9.77734V19.0667H9.92845V19.1467C9.96012 19.1152 9.99602 19.0883 10.0351 19.0667C10.0673 19.0537 10.1022 19.0487 10.1368 19.0523C10.1714 19.0558 10.2046 19.0677 10.2335 19.087C10.2624 19.1062 10.2861 19.1323 10.3027 19.1628C10.3193 19.1934 10.3281 19.2275 10.3285 19.2623C10.3285 19.3956 10.3285 19.5201 10.3285 19.6534H10.1151Z" fill="#4B2F21"/>
<path d="M6.10653 19.3601C6.1051 19.3184 6.11253 19.277 6.12835 19.2385C6.14417 19.2 6.16801 19.1653 6.19828 19.1367C6.22855 19.1081 6.26456 19.0863 6.30392 19.0727C6.34327 19.0591 6.38507 19.054 6.42653 19.0578C6.46725 19.0537 6.50838 19.0586 6.54695 19.0723C6.58551 19.086 6.62054 19.1082 6.64948 19.1371C6.67842 19.166 6.70056 19.2011 6.71427 19.2396C6.72798 19.2782 6.73293 19.3193 6.72875 19.3601C6.73291 19.4019 6.72771 19.4442 6.71354 19.4839C6.69938 19.5235 6.67659 19.5595 6.64683 19.5892C6.61707 19.619 6.58107 19.6418 6.54144 19.656C6.50181 19.6701 6.45953 19.6753 6.41764 19.6712C6.37611 19.6738 6.3345 19.6675 6.29557 19.6528C6.25665 19.6381 6.2213 19.6153 6.19187 19.5858C6.16245 19.5564 6.13962 19.5211 6.12491 19.4821C6.11019 19.4432 6.10393 19.4016 6.10653 19.3601ZM6.55098 19.3601C6.55987 19.3131 6.55987 19.2648 6.55098 19.2178C6.5436 19.2008 6.53106 19.1864 6.51511 19.1769C6.49917 19.1673 6.48062 19.163 6.46209 19.1645C6.44478 19.1641 6.42764 19.168 6.41215 19.1757C6.39666 19.1835 6.38329 19.1949 6.3732 19.2089C6.34889 19.2492 6.33604 19.2953 6.33604 19.3423C6.33604 19.3893 6.34889 19.4354 6.3732 19.4756C6.38423 19.4915 6.39882 19.5046 6.41579 19.5138C6.43276 19.5231 6.45166 19.5283 6.47098 19.5289C6.4893 19.5293 6.50735 19.5245 6.52307 19.515C6.53879 19.5056 6.55154 19.4919 6.55987 19.4756C6.55952 19.4428 6.55655 19.4101 6.55098 19.3778V19.3601Z" fill="#4B2F21"/>
<path d="M11.7954 19.2623C11.7954 19.1912 11.7954 19.1823 11.6977 19.1823C11.6385 19.1774 11.579 19.1774 11.5199 19.1823V19.0845C11.6081 19.0321 11.7122 19.0131 11.8132 19.0312C11.8714 19.04 11.9239 19.0707 11.9603 19.1169C11.9966 19.1632 12.014 19.2215 12.0088 19.2801V19.6268H11.8221V19.5823C11.7897 19.6105 11.7508 19.6301 11.7089 19.6394C11.667 19.6488 11.6234 19.6475 11.5821 19.6357C11.5452 19.6277 11.512 19.6077 11.4878 19.5787C11.4637 19.5497 11.4499 19.5134 11.4488 19.4757C11.4481 19.439 11.4577 19.4029 11.4766 19.3715C11.4955 19.34 11.5228 19.3145 11.5554 19.2979C11.6331 19.2738 11.7141 19.2618 11.7954 19.2623ZM11.7954 19.3868C11.7673 19.3777 11.7372 19.3771 11.7088 19.385C11.6803 19.3929 11.6548 19.409 11.6354 19.4312C11.6315 19.438 11.6295 19.4456 11.6295 19.4534C11.6295 19.4612 11.6315 19.4689 11.6354 19.4757C11.6305 19.4869 11.628 19.499 11.628 19.5112C11.628 19.5234 11.6305 19.5355 11.6354 19.5468C11.6599 19.5469 11.6835 19.5378 11.7016 19.5213C11.7197 19.5049 11.731 19.4822 11.7332 19.4579C11.7376 19.4344 11.7376 19.4103 11.7332 19.3868H11.7954Z" fill="#4B2F21"/>
<path d="M9.61757 19.6534H9.46646V19.6089C9.42759 19.6325 9.38302 19.6449 9.33758 19.6449C9.29213 19.6449 9.24756 19.6325 9.20869 19.6089C9.17896 19.593 9.15413 19.5693 9.13681 19.5403C9.1195 19.5113 9.11035 19.4782 9.11035 19.4445C9.11035 19.4108 9.1195 19.3777 9.13681 19.3487C9.15413 19.3197 9.17896 19.296 9.20869 19.2801C9.28402 19.2455 9.36582 19.2273 9.44869 19.2267C9.44869 19.1556 9.44869 19.1378 9.36869 19.1378C9.3031 19.129 9.23657 19.1448 9.18202 19.1823V19.0667C9.23182 19.0355 9.28777 19.0153 9.34606 19.0076C9.40435 19 9.46361 19.005 9.5198 19.0223C9.56074 19.0438 9.59538 19.0756 9.62032 19.1146C9.64525 19.1535 9.65962 19.1983 9.66202 19.2445V19.6089L9.61757 19.6534ZM9.44869 19.3867H9.36869C9.34711 19.3873 9.32621 19.3944 9.30875 19.4071C9.29129 19.4198 9.2781 19.4375 9.27091 19.4578C9.26288 19.4696 9.25859 19.4836 9.25859 19.4978C9.25859 19.5121 9.26288 19.526 9.27091 19.5378C9.32424 19.5378 9.38646 19.5378 9.39535 19.4934C9.4186 19.4608 9.4366 19.4248 9.44869 19.3867Z" fill="#4B2F21"/>
<path d="M5.33326 19.4311H4.93326C4.93326 19.5467 5.06659 19.5733 5.25326 19.52V19.6355C5.18851 19.6683 5.11695 19.6854 5.04437 19.6854C4.97179 19.6854 4.90023 19.6683 4.83548 19.6355C4.79086 19.6046 4.75674 19.5608 4.73768 19.51C4.71862 19.4592 4.71553 19.4037 4.72881 19.3511C4.73066 19.3101 4.74111 19.2699 4.75948 19.2331C4.77786 19.1964 4.80375 19.1639 4.83548 19.1378C4.86546 19.1126 4.90046 19.0942 4.93813 19.0836C4.97581 19.073 5.0153 19.0706 5.05398 19.0765C5.09266 19.0824 5.12965 19.0964 5.16248 19.1177C5.1953 19.139 5.22322 19.1671 5.24437 19.2C5.30144 19.2635 5.33309 19.3457 5.33326 19.4311ZM4.95103 19.2978H5.16437C5.16437 19.2178 5.16437 19.1733 5.06659 19.1644C4.96881 19.1555 4.96881 19.2089 4.95103 19.2978Z" fill="#4B2F21"/>
<path d="M11.1199 19.2001H11.0488V19.0757H11.1111C11.1078 19.0278 11.1166 18.9799 11.1368 18.9364C11.157 18.8928 11.1879 18.8551 11.2266 18.8268C11.2604 18.8073 11.2987 18.797 11.3377 18.797C11.3767 18.797 11.415 18.8073 11.4488 18.8268V18.9334C11.3244 18.9334 11.2977 18.9334 11.3066 19.0934H11.4133V19.2179H11.3066V19.6712H11.1199V19.2001Z" fill="#4B2F21"/>
<path d="M12.5864 19.1911V19.0755H12.6575V18.9778L12.8442 18.9244V19.0844H12.9686V19.2089H12.8442V19.4755C12.8442 19.4921 12.8508 19.5079 12.8624 19.5195C12.8741 19.5312 12.8899 19.5378 12.9064 19.5378H12.9686V19.6622H12.8086C12.6842 19.6622 12.6664 19.5644 12.6575 19.4667C12.6486 19.3689 12.6575 19.2978 12.6575 19.2L12.5864 19.1911Z" fill="#4B2F21"/>
<path d="M4.44407 19.2H4.3374V19.0844H4.40851V19.0311C4.40851 19.0311 4.40851 18.9867 4.40851 18.9778H4.55074V19.1289H4.67518V19.2533H4.59518V19.52C4.59518 19.5365 4.60174 19.5523 4.6134 19.564C4.62507 19.5757 4.6409 19.5822 4.6574 19.5822H4.71962V19.6978C4.66967 19.707 4.61846 19.707 4.56851 19.6978C4.44407 19.6444 4.44407 19.5556 4.44407 19.4578C4.43961 19.3897 4.43961 19.3214 4.44407 19.2533V19.2Z" fill="#4B2F21"/>
<path d="M7.62651 19.0934V19.2H7.48429C7.46903 19.1973 7.45328 19.2003 7.44012 19.2085C7.42697 19.2167 7.41736 19.2296 7.41318 19.2445C7.41318 19.2445 7.41318 19.2889 7.46651 19.2978H7.5554C7.59137 19.3091 7.62282 19.3316 7.64519 19.362C7.66756 19.3923 7.6797 19.429 7.67985 19.4667C7.67921 19.5033 7.66673 19.5386 7.64429 19.5675C7.62186 19.5963 7.59066 19.6171 7.5554 19.6267C7.5054 19.6504 7.45074 19.6627 7.3954 19.6627C7.34006 19.6627 7.2854 19.6504 7.2354 19.6267V19.52H7.41318C7.42732 19.52 7.44089 19.5144 7.45089 19.5044C7.46089 19.4944 7.46651 19.4809 7.46651 19.4667C7.46651 19.4667 7.46651 19.4667 7.41318 19.4134C7.36393 19.3901 7.3164 19.3634 7.27096 19.3334C7.25079 19.3195 7.2343 19.3009 7.22291 19.2792C7.21152 19.2575 7.20557 19.2334 7.20557 19.2089C7.20557 19.1844 7.21152 19.1603 7.22291 19.1386C7.2343 19.117 7.25079 19.0984 7.27096 19.0845C7.32301 19.0468 7.386 19.0273 7.45023 19.0289C7.51447 19.0305 7.5764 19.0532 7.62651 19.0934Z" fill="#4B2F21"/>
<path d="M12.5334 19.0933V19.1911C12.4934 19.1744 12.449 19.1715 12.4072 19.1827C12.3654 19.194 12.3284 19.2188 12.3023 19.2533C12.2801 19.2878 12.2682 19.3279 12.2682 19.3689C12.2682 19.4099 12.2801 19.45 12.3023 19.4845C12.3023 19.5467 12.4178 19.5556 12.5334 19.4845V19.6C12.4644 19.6335 12.3865 19.6438 12.3112 19.6294C12.2359 19.615 12.1673 19.5766 12.1156 19.52C12.075 19.4629 12.0532 19.3945 12.0532 19.3245C12.0532 19.2544 12.075 19.186 12.1156 19.1289C12.171 19.0768 12.2425 19.0449 12.3183 19.0384C12.3941 19.032 12.4699 19.0513 12.5334 19.0933Z" fill="#4B2F21"/>
<path d="M5.4043 19.0668H5.54652V19.1734C5.54652 19.1023 5.6443 19.0401 5.74207 19.0579V19.2179H5.69763C5.68289 19.2166 5.66806 19.2185 5.65408 19.2233C5.64009 19.2281 5.62726 19.2358 5.61639 19.2458C5.60552 19.2558 5.59686 19.268 5.59096 19.2816C5.58505 19.2951 5.58202 19.3098 5.58207 19.3245V19.6357H5.4043V19.0668Z" fill="#4B2F21"/>
<path d="M6.98637 19.6534H6.80859V19.0757H6.95082C6.95569 19.1081 6.95569 19.141 6.95082 19.1734C7.00415 19.1023 7.04859 19.0401 7.14637 19.0579V19.209C7.02193 19.209 6.98637 19.209 6.98637 19.369V19.6445V19.6534Z" fill="#4B2F21"/>
<path d="M13.7329 19.0668H13.884C13.8797 19.1022 13.8797 19.138 13.884 19.1734C13.884 19.1023 13.9818 19.0401 14.0796 19.0579V19.2179H14.0174C13.9891 19.2179 13.9619 19.2291 13.9419 19.2491C13.9219 19.2691 13.9107 19.2963 13.9107 19.3245V19.6357H13.7329V19.0668Z" fill="#4B2F21"/>
<path d="M3.59086 19.0667H3.41309V19.6533H3.59086V19.0667Z" fill="#4B2F21"/>
<path d="M6.01762 19.0667H5.83984V19.6533H6.01762V19.0667Z" fill="#4B2F21"/>
<path d="M14.3374 19.0667H14.1597V19.6533H14.3374V19.0667Z" fill="#4B2F21"/>
<path d="M7.6709 19.7868L7.7509 19.449H7.92868C7.90122 19.5592 7.8562 19.6642 7.79534 19.7601C7.76868 19.7868 7.71534 19.7868 7.6709 19.7868Z" fill="#4B2F21"/>
<path d="M3.55532 18.8978C3.5531 18.9222 3.54182 18.9448 3.52372 18.9613C3.50562 18.9777 3.482 18.9868 3.45754 18.9867C3.43464 18.9847 3.41318 18.9747 3.39692 18.9584C3.38066 18.9422 3.37065 18.9207 3.36865 18.8978C3.37345 18.8737 3.38531 18.8515 3.40271 18.8341C3.42011 18.8167 3.44229 18.8049 3.46643 18.8C3.49008 18.804 3.51171 18.8158 3.52784 18.8335C3.54397 18.8513 3.55365 18.8739 3.55532 18.8978Z" fill="#4B2F21"/>
<path d="M6.01779 18.8979C6.01557 18.9222 6.00429 18.9449 5.98619 18.9613C5.96809 18.9778 5.94448 18.9868 5.92002 18.9867C5.908 18.9882 5.89581 18.9869 5.88438 18.9829C5.87294 18.9789 5.86256 18.9724 5.854 18.9639C5.84544 18.9553 5.83894 18.9449 5.83497 18.9335C5.83101 18.9221 5.8297 18.9099 5.83113 18.8979C5.83335 18.8735 5.84463 18.8508 5.86273 18.8344C5.88083 18.8179 5.90444 18.8089 5.9289 18.809C5.95248 18.809 5.97509 18.8183 5.99176 18.835C6.00843 18.8517 6.01779 18.8743 6.01779 18.8979Z" fill="#4B2F21"/>
<path d="M14.1509 18.8979C14.1548 18.8742 14.1666 18.8526 14.1843 18.8364C14.2021 18.8203 14.2247 18.8106 14.2487 18.809C14.2599 18.8077 14.2713 18.8088 14.282 18.8123C14.2928 18.8158 14.3027 18.8215 14.3111 18.829C14.3195 18.8366 14.3262 18.8458 14.3307 18.8562C14.3353 18.8665 14.3376 18.8777 14.3375 18.889C14.3375 18.9149 14.3272 18.9398 14.3089 18.9581C14.2906 18.9764 14.2657 18.9867 14.2398 18.9867C14.2162 18.9867 14.1936 18.9774 14.1769 18.9607C14.1602 18.944 14.1509 18.9214 14.1509 18.8979Z" fill="#4B2F21"/>
<path d="M23.3154 19.1111C23.3197 19.1436 23.3197 19.1764 23.3154 19.2089C23.3053 19.2264 23.2912 19.2412 23.2742 19.2521C23.2571 19.2629 23.2377 19.2695 23.2176 19.2711C23.1946 19.267 23.1732 19.2564 23.1559 19.2407C23.1386 19.225 23.1261 19.2047 23.1198 19.1822C23.1105 19.1353 23.1105 19.0869 23.1198 19.04C23.1219 19.0282 23.1264 19.017 23.1329 19.007C23.1395 18.997 23.148 18.9884 23.158 18.9817C23.1679 18.9751 23.1791 18.9705 23.1909 18.9683C23.2027 18.9661 23.2148 18.9663 23.2265 18.9689C23.2709 18.9689 23.2976 18.9689 23.3065 19.0667V19.1111H23.3154Z" fill="black"/>
<path d="M26.3818 13.5467V13.1556C26.4732 13.1421 26.566 13.1421 26.6574 13.1556C26.6917 13.1685 26.7212 13.1916 26.7419 13.2218C26.7626 13.252 26.7734 13.2879 26.7729 13.3245C26.778 13.348 26.778 13.3722 26.7729 13.3956C26.7729 13.4934 26.6574 13.5112 26.5685 13.529L26.3818 13.5467Z" fill="black"/>
<path d="M25.7241 19.1201V19.0757C25.726 19.0521 25.7345 19.0296 25.7486 19.0107C25.7628 18.9918 25.782 18.9774 25.8041 18.969C25.8041 18.969 25.8752 18.969 25.9108 19.0134C25.9341 19.0475 25.9466 19.0877 25.9466 19.129C25.9466 19.1702 25.9341 19.2105 25.9108 19.2445C25.8968 19.2554 25.8796 19.2612 25.8619 19.2612C25.8442 19.2612 25.827 19.2554 25.813 19.2445C25.7923 19.2394 25.7736 19.2282 25.7594 19.2124C25.7451 19.1965 25.7359 19.1768 25.733 19.1557V19.0934L25.7241 19.1201Z" fill="black"/>
<path d="M24.2932 19.1201C24.2885 19.0945 24.2901 19.0683 24.2978 19.0435C24.3056 19.0187 24.3192 18.9962 24.3376 18.9779C24.3474 18.9737 24.358 18.9716 24.3687 18.9716C24.3794 18.9716 24.39 18.9737 24.3998 18.9779C24.416 18.9773 24.4318 18.9823 24.4447 18.992C24.4577 19.0017 24.4669 19.0155 24.4709 19.0312C24.4929 19.0674 24.5045 19.1089 24.5045 19.1512C24.5045 19.1935 24.4929 19.235 24.4709 19.2712C24.4617 19.2841 24.4498 19.2947 24.4359 19.3024C24.4221 19.3101 24.4067 19.3146 24.3909 19.3156C24.3661 19.3091 24.3437 19.2956 24.3263 19.2767C24.309 19.2578 24.2975 19.2343 24.2932 19.209V19.1201Z" fill="black"/>
</g>
<defs>
<clipPath id="clip0_2707_340658">
<rect width="32" height="32" fill="white"/>
</clipPath>
</defs>
</svg>
