<svg width="32" height="32" viewBox="0 0 32 32" fill="none" xmlns="http://www.w3.org/2000/svg">
<g clip-path="url(#clip0_2707_339998)">
<path d="M15.9998 31.9823C24.8265 31.9823 31.982 24.8268 31.982 16C31.982 7.17331 24.8265 0.0178223 15.9998 0.0178223C7.17306 0.0178223 0.0175781 7.17331 0.0175781 16C0.0175781 24.8268 7.17306 31.9823 15.9998 31.9823Z" fill="white"/>
<path d="M3.29774 19.1289C3.23205 19.1265 3.16923 19.1013 3.11996 19.0578C3.07507 19.0094 3.04973 18.9461 3.04885 18.88V13.12C3.04838 13.0872 3.05442 13.0545 3.06663 13.024C3.07883 12.9935 3.09696 12.9657 3.11996 12.9423C3.16923 12.8987 3.23205 12.8736 3.29774 12.8711H11.9289C11.9619 12.8699 11.9948 12.8755 12.0256 12.8875C12.0563 12.8996 12.0843 12.9179 12.1076 12.9413C12.131 12.9646 12.1493 12.9926 12.1613 13.0233C12.1734 13.0541 12.179 13.087 12.1777 13.12V18.88C12.1754 18.9468 12.1473 19.0102 12.0992 19.0566C12.0511 19.103 11.9868 19.129 11.92 19.1289H3.29774Z" fill="#004282"/>
<path d="M9.38623 16.5245C9.49353 16.4957 9.60405 16.4808 9.71512 16.48C9.90416 16.459 10.095 16.459 10.284 16.48C10.4657 16.5159 10.65 16.5367 10.8351 16.5422C10.9886 16.5376 11.1409 16.5137 11.2885 16.4711C11.488 16.4318 11.6933 16.4318 11.8929 16.4711V16.2311C11.6943 16.1829 11.487 16.1829 11.2885 16.2311C11.1399 16.2692 10.9881 16.293 10.8351 16.3022C10.6491 16.3028 10.4638 16.2789 10.284 16.2311C10.095 16.2101 9.90416 16.2101 9.71512 16.2311C9.60393 16.2374 9.49369 16.2552 9.38623 16.2845V16.5245Z" fill="#ED1D24"/>
<path d="M12.1777 12.8711H3.04883V19.0222H12.1777V12.8711Z" fill="#004282"/>
<path fill-rule="evenodd" clip-rule="evenodd" d="M12.2222 12.8711L12.1777 12.8267H3.04884L3.00439 12.8711V19.0222L3.04884 19.0667H12.1777L12.2222 19.0222V12.8711ZM12.1333 12.8711V18.9333H3.09328V12.9155L12.1333 12.8711Z" fill="#EFD898"/>
<path d="M4.6931 15.2711L3.99087 14L3.36865 15.28L4.6931 15.2711Z" fill="#EFD898"/>
<path d="M5.00439 15.2711L5.54662 14.1422L6.16884 15.2622L5.00439 15.2711Z" fill="#EFD898"/>
<path d="M6.50635 15.2534L6.95079 14.3645L7.43079 15.2089L6.50635 15.2534Z" fill="#EFD898"/>
<path d="M7.65332 15.2534L7.99999 14.4712L8.3911 15.2445L7.65332 15.2534Z" fill="#EFD898"/>
<path d="M8.62207 15.2267L8.95985 14.5511L9.25318 15.2178L8.62207 15.2267Z" fill="#EFD898"/>
<path d="M9.27071 15.3779V15.2979L3.25293 15.3779V15.5023L9.27071 15.3779Z" fill="#EFD898"/>
<path d="M9.30626 16.6223V16.569L3.25293 17.5379V17.6356L9.30626 16.6223Z" fill="#EFD898"/>
<path d="M9.30626 16.7201V16.6667L3.25293 17.6979V17.7779L9.30626 16.7201Z" fill="#EFD898"/>
<path d="M3.91992 14.9511C3.91992 14.9353 3.92461 14.9198 3.9334 14.9066C3.94219 14.8935 3.95469 14.8832 3.96931 14.8772C3.98393 14.8711 4.00001 14.8695 4.01553 14.8726C4.03105 14.8757 4.0453 14.8833 4.05649 14.8945C4.06768 14.9057 4.0753 14.92 4.07838 14.9355C4.08147 14.951 4.07989 14.9671 4.07383 14.9817C4.06778 14.9963 4.05752 15.0088 4.04437 15.0176C4.03121 15.0264 4.01574 15.0311 3.99992 15.0311C3.9787 15.0311 3.95836 15.0227 3.94335 15.0077C3.92835 14.9927 3.91992 14.9723 3.91992 14.9511Z" fill="#004282"/>
<path d="M5.49323 14.9957C5.49197 14.9856 5.49286 14.9754 5.49587 14.9657C5.49887 14.956 5.5039 14.9471 5.51064 14.9395C5.51737 14.9319 5.52565 14.9259 5.53491 14.9218C5.54417 14.9177 5.55421 14.9156 5.56435 14.9157C5.58556 14.9157 5.60591 14.9241 5.62091 14.9391C5.63592 14.9541 5.64434 14.9744 5.64434 14.9957C5.64434 15.0169 5.63592 15.0372 5.62091 15.0522C5.60591 15.0672 5.58556 15.0757 5.56435 15.0757C5.55421 15.0757 5.54417 15.0736 5.53491 15.0695C5.52565 15.0654 5.51737 15.0594 5.51064 15.0518C5.5039 15.0442 5.49887 15.0353 5.49587 15.0256C5.49286 15.0159 5.49197 15.0057 5.49323 14.9957Z" fill="#004282"/>
<path d="M6.89746 15.0223C6.89746 15.01 6.90111 14.998 6.90795 14.9877C6.91478 14.9775 6.9245 14.9695 6.93587 14.9648C6.94724 14.9601 6.95975 14.9589 6.97182 14.9613C6.98389 14.9637 6.99498 14.9696 7.00368 14.9783C7.01238 14.987 7.01831 14.9981 7.02071 15.0102C7.02311 15.0222 7.02188 15.0347 7.01717 15.0461C7.01246 15.0575 7.00448 15.0672 6.99425 15.074C6.98402 15.0809 6.97199 15.0845 6.95968 15.0845C6.94318 15.0845 6.92735 15.078 6.91569 15.0663C6.90402 15.0546 6.89746 15.0388 6.89746 15.0223Z" fill="#004282"/>
<path d="M7.99982 15.049H8.08871C8.09696 15.0607 8.10019 15.0753 8.09769 15.0895C8.09519 15.1037 8.08716 15.1163 8.07538 15.1245C8.06359 15.1328 8.04901 15.136 8.03484 15.1335C8.02067 15.131 8.00807 15.123 7.99982 15.1112C7.99514 15.1031 7.99268 15.0939 7.99268 15.0845C7.99268 15.0751 7.99514 15.0659 7.99982 15.0578" fill="#004282"/>
<path d="M6.94205 16.8889V15.92H6.71094V16.8889H6.94205Z" fill="#EFD898"/>
<path d="M8.07096 16.7112V15.8223H7.83984V16.7112H8.07096Z" fill="#EFD898"/>
<path d="M8.95996 15.8044V16.56H9.07552V15.8222L8.95996 15.8044Z" fill="#EFD898"/>
<path d="M8.7998 15.8134V16.5867H8.92425V15.8311L8.7998 15.8134Z" fill="#EFD898"/>
<path d="M4.4443 18.9067H4.18652C4.91283 18.2564 5.78468 17.79 6.72875 17.5467C8.40291 17.051 10.1498 16.8465 11.8932 16.9423V17.0311C10.3976 16.9478 8.8982 17.0978 7.44875 17.4756C6.35103 17.7167 5.32322 18.2063 4.4443 18.9067Z" fill="#EFD898"/>
<path d="M6.83533 18.889H6.54199C7.0394 18.4082 7.65132 18.0625 8.31977 17.8845C9.47163 17.5345 10.6717 17.3695 11.8753 17.3956V17.4667C10.877 17.4583 9.88182 17.5809 8.91533 17.8312C8.13086 17.9805 7.40404 18.347 6.81755 18.889" fill="#EFD898"/>
<path d="M11.8842 17.3156V17.0845C11.7718 17.0737 11.6587 17.0737 11.5464 17.0845L11.7419 17.3156H11.8842Z" fill="#ED1D24"/>
<path d="M11.6442 17.3066L11.4486 17.0667H11.1553L11.3686 17.3155L11.6442 17.3066Z" fill="#EFD898"/>
<path d="M11.2445 17.3156L11.04 17.0756H10.7378L10.96 17.3156H11.2445Z" fill="#ED1D24"/>
<path d="M10.8797 17.3422L10.622 17.0756H10.2842L10.6042 17.36L10.8797 17.3422Z" fill="#EFD898"/>
<path d="M10.4441 17.369L10.1774 17.1023H9.81299L10.1241 17.369H10.4441Z" fill="#ED1D24"/>
<path d="M9.35986 17.1912H9.70653L10.0265 17.4756L9.69764 17.5201L9.35986 17.1912Z" fill="#EFD898"/>
<path d="M9.21746 17.209H8.89746L9.27968 17.5201L9.59079 17.4668L9.21746 17.209Z" fill="#ED1D24"/>
<path d="M8.75546 17.2622L8.3999 17.3333L8.82657 17.6533L9.14657 17.5911L8.75546 17.2622Z" fill="#EFD898"/>
<path d="M8.26649 17.3778L7.92871 17.44L8.40871 17.7511L8.70204 17.68L8.26649 17.3778Z" fill="#ED1D24"/>
<path d="M7.77781 17.4756L7.47559 17.5556L8.03559 17.8845L8.31114 17.7778L7.77781 17.4756Z" fill="#EFD898"/>
<path d="M7.35985 17.6001L7.01318 17.7245L7.66207 18.0179L7.91985 17.9112L7.35985 17.6001Z" fill="#ED1D24"/>
<path d="M6.862 17.7778C6.73657 17.8067 6.61445 17.8484 6.49756 17.9023L7.29756 18.2045L7.54645 18.0801L6.862 17.7778Z" fill="#EFD898"/>
<path d="M6.3286 17.9645C6.21026 18.0048 6.09449 18.0523 5.98193 18.1067L6.87082 18.4L7.11082 18.2578L6.3286 17.9645Z" fill="#ED1D24"/>
<path d="M5.85779 18.1868C5.7536 18.2196 5.65477 18.2675 5.56445 18.329L6.56001 18.6668L6.79112 18.5068L5.85779 18.1868Z" fill="#EFD898"/>
<path d="M5.4488 18.4C5.4488 18.4 5.23546 18.5245 5.18213 18.5689L6.22213 18.8978L6.37324 18.7378L5.4488 18.4Z" fill="#ED1D24"/>
<path d="M5.03983 18.6667C4.92261 18.7358 4.81245 18.8162 4.71094 18.9067H5.83094L5.03983 18.6667Z" fill="#EFD898"/>
<path d="M11.8929 13.1644H3.29736V13.3333H11.8929V13.1644Z" fill="#EFD898"/>
<path d="M11.8929 13.4312H3.29736V13.6H11.8929V13.4312Z" fill="#EFD898"/>
<path d="M11.8929 13.6979H3.29736V13.8668H11.8929V13.6979Z" fill="#EFD898"/>
<path d="M4.0708 13.9645L4.13302 14.0356H5.61747L5.6708 14.1334H11.893V13.9645H4.0708Z" fill="#EFD898"/>
<path d="M5.71533 14.2223L5.77755 14.3023H7.022H8.07978V14.3467H11.8664V14.2223H5.71533Z" fill="#EFD898"/>
<path d="M9.0752 14.4978L9.12853 14.6667H11.893V14.4978H9.0752Z" fill="#EFD898"/>
<path d="M9.17334 14.7645L9.24445 14.9334H11.9111V14.7645H9.17334Z" fill="#EFD898"/>
<path d="M9.66218 15.8312H9.35107V16.0001H9.47552C9.5489 15.9575 9.6125 15.8999 9.66218 15.8312Z" fill="#EFD898"/>
<path d="M9.93774 15.5645H9.35107V15.7333H9.77774C9.83544 15.6813 9.88894 15.6249 9.93774 15.5645Z" fill="#EFD898"/>
<path d="M10.6665 15.2979C10.7185 15.3722 10.7749 15.4435 10.8354 15.5112C10.9288 15.6037 11.0333 15.6843 11.1465 15.7512C10.9865 15.6267 10.8887 15.5112 10.9065 15.4934C10.9762 15.4329 11.0415 15.3675 11.1021 15.2979H10.6665Z" fill="#EFD898"/>
<path d="M10.1689 15.2979H9.35107V15.4667H10.0355C10.0853 15.4149 10.13 15.3583 10.1689 15.2979Z" fill="#EFD898"/>
<path d="M11.884 15.4667V15.2979H11.6885C11.7424 15.3627 11.8052 15.4196 11.8751 15.4667" fill="#EFD898"/>
<path d="M10.5244 15.0311C10.5244 15.0756 10.5689 15.1467 10.5955 15.2H11.2177C11.2472 15.1463 11.271 15.0897 11.2889 15.0311H10.5244Z" fill="#EFD898"/>
<path d="M10.3196 15.0311H9.29736L9.3507 15.2H10.2396C10.2843 15.1517 10.3177 15.094 10.3374 15.0311" fill="#EFD898"/>
<path d="M11.6263 15.2H11.893V15.0311H11.5552C11.5738 15.0909 11.6007 15.1478 11.6352 15.2" fill="#EFD898"/>
<path d="M10.9243 16.5689H11.0399L11.1643 16.2933H11.0488L10.9243 16.5689Z" fill="#EFD898"/>
<path d="M10.4175 16.5334H10.5241L10.6308 16.3022H10.5241L10.4175 16.5334Z" fill="#EFD898"/>
<path d="M10.0889 16.4889H10.1955L10.3111 16.2578H10.2222L10.0889 16.4889Z" fill="#EFD898"/>
<path d="M11.2974 16.5067H11.4129L11.5374 16.2578H11.4218L11.2974 16.5067Z" fill="#EFD898"/>
<path d="M11.6533 16.4889H11.76L11.8667 16.2667H11.7689L11.6533 16.4889Z" fill="#EFD898"/>
<path d="M9.86653 16.2223L9.75098 16.4712H9.86653L9.98209 16.2312H9.86653" fill="#EFD898"/>
<path d="M11.1021 16.5423H11.2354L11.3598 16.2756H11.2354L11.1021 16.5423Z" fill="#EFD898"/>
<path d="M10.5776 16.5601H10.6665L10.7821 16.3201H10.6665L10.5776 16.5601Z" fill="#EFD898"/>
<path d="M11.7066 16.2489H11.5999L11.4844 16.4978H11.5555L11.7066 16.2489Z" fill="#EFD898"/>
<path d="M10.9777 16.3201H10.8621L10.7466 16.5601H10.8621L10.9777 16.3201Z" fill="#EFD898"/>
<path d="M11.8223 16.5156H11.8934V16.329L11.8223 16.5156Z" fill="#EFD898"/>
<path d="M10.4619 16.3022H10.3552L10.2485 16.5334H10.3552L10.4619 16.3022Z" fill="#EFD898"/>
<path d="M9.6888 16.4801L9.80435 16.2223H9.6888L9.57324 16.489H9.6888" fill="#EFD898"/>
<path d="M10.1421 16.24H10.0355L9.91992 16.4889H10.0355L10.1421 16.24Z" fill="#EFD898"/>
<path d="M9.62633 16.2312H9.50189L9.37744 16.4979H9.493L9.62633 16.2312Z" fill="#EFD898"/>
<path d="M9.43956 16.2667H9.38623V16.3734L9.43956 16.2667Z" fill="#EFD898"/>
<path d="M3.75085 16.1067H3.6353V16.0534L4.62196 16V16.0534H4.5153V16.9422H4.81752V15.8222L3.65308 15.8756L3.45752 15.7156V17.1378H3.75085V16.1067Z" fill="#EFD898"/>
<path d="M4.51514 17.2711L4.80847 17.2178L4.51514 17.2711Z" fill="#B1B4B6"/>
<path d="M4.89746 17.209L5.24413 17.1556L4.89746 17.209Z" fill="#B1B4B6"/>
<path d="M5.24413 16H5.13746H6.02635H5.92857V16.8267L6.27524 16.7823V15.7689L4.89746 15.8223V16.9511L5.24413 16.8889V16Z" fill="#EFD898"/>
<path d="M6.65769 15.9289H6.55991L7.35991 15.8845V15.9289H7.27991V16.6578H7.49325V15.7689L6.35547 15.8223V16.8089L6.65769 16.7645V15.9289Z" fill="#EFD898"/>
<path d="M7.78668 15.8667H7.71556H8.36445H8.29334V16.5245H8.52445V15.7334H7.56445V16.6223H7.78668V15.8667Z" fill="#EFD898"/>
<path d="M8.57764 15.6712V16.4623H8.74653V15.8401H8.6843H9.17319H9.11986V16.4356H9.29764V15.6445L8.57764 15.6712Z" fill="#EFD898"/>
<path d="M3.45752 17.1379V17.4312L3.75085 17.3867V17.1023L3.45752 17.1379Z" fill="#ED1D24"/>
<path d="M4.51514 16.9956V17.2712L4.81736 17.2179V16.9601L4.51514 16.9956Z" fill="#ED1D24"/>
<path d="M5.92871 16.809V17.0401L6.27538 16.9867V16.7645L5.92871 16.809Z" fill="#ED1D24"/>
<path d="M4.89746 16.9511V17.2089L5.24413 17.1467V16.8889L4.89746 16.9511Z" fill="#ED1D24"/>
<path d="M6.65769 16.7112L6.35547 16.7556V16.9778L6.65769 16.9334V16.7112Z" fill="#ED1D24"/>
<path d="M7.27979 16.6311V16.8355H7.48423V16.64L7.27979 16.6311Z" fill="#ED1D24"/>
<path d="M8.29297 16.4978V16.6756H8.52408V16.5067L8.29297 16.4978Z" fill="#ED1D24"/>
<path d="M7.78668 16.7556V16.5601H7.56445V16.7556H7.78668Z" fill="#ED1D24"/>
<path d="M9.11963 16.5423H9.29741V16.3823H9.11963V16.5423Z" fill="#ED1D24"/>
<path d="M8.57764 16.4623V16.6312H8.74653V16.4623H8.57764Z" fill="#ED1D24"/>
<path d="M19.4751 13.2445V14.5423H19.8929C20.0263 14.5475 20.1566 14.5017 20.2573 14.4141C20.3581 14.3266 20.4217 14.204 20.4351 14.0712C20.4529 13.9474 20.4529 13.8217 20.4351 13.6979C20.4266 13.5864 20.3807 13.481 20.3049 13.3987C20.2291 13.3165 20.1278 13.2622 20.0174 13.2445C19.8396 13.2445 19.6618 13.2445 19.4751 13.2445ZM18.5151 14.8356V14.6223H18.7107C18.7996 14.6223 18.844 14.5334 18.844 14.4356C18.844 14.0801 18.844 13.7334 18.844 13.3779C18.844 13.289 18.7996 13.1645 18.7196 13.1645H18.5151V12.9601H20.1062C20.3228 12.9652 20.532 13.0397 20.7032 13.1724C20.8744 13.3052 20.9985 13.4894 21.0574 13.6979C21.0887 13.8224 21.0927 13.9523 21.069 14.0786C21.0453 14.2048 20.9946 14.3245 20.9202 14.4292C20.8459 14.534 20.7497 14.6214 20.6384 14.6854C20.527 14.7494 20.4031 14.7886 20.2751 14.8001C19.884 14.8445 19.4929 14.8001 19.1018 14.8001H18.5151" fill="#EFD898"/>
<path d="M24.5155 13.5823C24.5155 13.9112 24.5155 14.249 24.5155 14.5334C24.5155 14.5334 24.5688 14.6045 24.6044 14.6134H24.8266V14.8267H23.8488V14.6223H23.9199C24.1599 14.6223 24.1599 14.5601 24.1599 14.3201C24.1599 14.0801 24.1599 13.7245 24.1599 13.4312C24.1599 13.2978 24.1155 13.1734 23.9822 13.1734H23.8311V12.9601H24.7199C24.7644 12.9601 24.8088 13.049 24.8355 13.0845L25.7777 14.2223V13.929C25.7688 13.7572 25.7688 13.5851 25.7777 13.4134C25.7777 13.2801 25.7777 13.1467 25.5999 13.1467H25.4666V12.9512H26.4355V13.1467H26.2933C26.1066 13.1467 26.1066 13.2356 26.1066 13.4401V14.6578C26.1078 14.6761 26.1053 14.6944 26.0991 14.7116C26.093 14.7288 26.0833 14.7446 26.0708 14.7579C26.0583 14.7713 26.0432 14.7819 26.0264 14.7891C26.0097 14.7964 25.9916 14.8001 25.9733 14.8001H25.5822C25.5822 14.8001 25.5111 14.7556 25.4844 14.7201L24.5955 13.6801L24.4888 13.5556" fill="#EFD898"/>
<path d="M15.1109 13.0667C15.262 12.9778 15.2886 12.96 15.4042 12.9689V13.6889H15.2798C15.1731 13.6889 15.1642 13.6889 15.1198 13.5556C15.0469 13.4215 14.9309 13.316 14.7905 13.2563C14.65 13.1965 14.4935 13.1861 14.3464 13.2267C14.2231 13.2419 14.1097 13.302 14.0277 13.3954C13.9458 13.4888 13.901 13.6091 13.902 13.7334C13.8868 13.9194 13.9079 14.1065 13.9642 14.2845C14.0003 14.3534 14.0501 14.4143 14.1106 14.4632C14.1711 14.5121 14.2411 14.5481 14.316 14.5689C14.391 14.5898 14.4695 14.595 14.5466 14.5843C14.6237 14.5736 14.6977 14.5472 14.7642 14.5067C14.8115 14.472 14.8465 14.4231 14.8641 14.3671C14.8816 14.3112 14.8809 14.2511 14.862 14.1956C14.8361 14.1505 14.7952 14.1159 14.7464 14.0978C14.6798 14.0639 14.6075 14.0427 14.5331 14.0356V13.8578H15.7775V14.0267C15.4931 14.0711 15.4931 14.1511 15.4931 14.4711V14.8C15.4042 14.88 15.2353 14.8 15.1198 14.6756C14.8772 14.8249 14.5947 14.8965 14.3103 14.8806C14.0258 14.8647 13.7531 14.7621 13.5286 14.5867C13.409 14.4761 13.3205 14.3361 13.2717 14.1807C13.223 14.0252 13.2158 13.8597 13.2509 13.7006C13.2859 13.5415 13.362 13.3944 13.4716 13.2738C13.5811 13.1533 13.7203 13.0635 13.8753 13.0134C14.2795 12.8769 14.72 12.8959 15.1109 13.0667Z" fill="#EFD898"/>
<path d="M28.2841 13.0667C28.4352 12.9778 28.4619 12.96 28.5685 12.9689V13.6889H28.4441C28.3285 13.6889 28.3196 13.6889 28.2752 13.5556C28.2024 13.4215 28.0863 13.316 27.9459 13.2563C27.8055 13.1965 27.649 13.1861 27.5019 13.2267C27.3794 13.2421 27.2669 13.3025 27.1864 13.3961C27.106 13.4897 27.0631 13.6099 27.0663 13.7334C27.0483 13.9188 27.0664 14.1059 27.1196 14.2845C27.1566 14.3537 27.2073 14.4147 27.2686 14.4637C27.3299 14.5127 27.4006 14.5487 27.4763 14.5695C27.552 14.5903 27.6311 14.5955 27.7089 14.5847C27.7866 14.5739 27.8614 14.5473 27.9285 14.5067C27.9722 14.4693 28.0039 14.4198 28.0197 14.3645C28.0356 14.3092 28.0347 14.2504 28.0174 14.1956C28.0061 14.1721 27.9899 14.1513 27.97 14.1344C27.9501 14.1176 27.9269 14.1051 27.9019 14.0978C27.8358 14.0626 27.7632 14.0414 27.6885 14.0356V13.8578H28.933V14.0267C28.6485 14.0711 28.6485 14.1511 28.6485 14.4711V14.8C28.5596 14.88 28.3996 14.8 28.2841 14.6756C28.0401 14.8257 27.7561 14.8976 27.4702 14.8817C27.1842 14.8658 26.9099 14.7629 26.6841 14.5867C26.5646 14.4755 26.4764 14.3349 26.4282 14.1789C26.3801 14.0229 26.3737 13.857 26.4097 13.6978C26.4457 13.5386 26.5228 13.3916 26.6333 13.2715C26.7438 13.1514 26.8839 13.0624 27.0396 13.0134C27.4438 12.8769 27.8843 12.8959 28.2752 13.0667" fill="#EFD898"/>
<path d="M17.3151 13.1645V12.9601H18.2929V13.1645H18.1062C17.9996 13.1645 17.964 13.2712 17.964 13.3779C17.964 13.4845 17.964 13.8667 17.964 14.1067C17.964 14.5601 17.8396 14.7823 17.404 14.8712C17.113 14.9501 16.8062 14.9501 16.5151 14.8712C16.3722 14.8288 16.2482 14.7385 16.1641 14.6155C16.0799 14.4925 16.0406 14.3442 16.0529 14.1956V13.4579C16.0529 13.2623 16.0529 13.1823 15.8574 13.1823H15.7329V12.9779H17.004V13.1823H16.7996C16.7107 13.1823 16.6751 13.289 16.6751 13.3779C16.6751 13.6712 16.6751 13.9734 16.6751 14.2667C16.6708 14.313 16.6769 14.3595 16.6929 14.4031C16.709 14.4466 16.7346 14.4861 16.7678 14.5184C16.801 14.5508 16.8411 14.5754 16.885 14.5903C16.929 14.6052 16.9757 14.61 17.0218 14.6045C17.1253 14.6136 17.2294 14.6136 17.3329 14.6045C17.3749 14.6047 17.4166 14.5961 17.4551 14.5793C17.4936 14.5624 17.5282 14.5378 17.5566 14.5068C17.5851 14.4758 17.6067 14.4393 17.6203 14.3995C17.6338 14.3597 17.6388 14.3175 17.6351 14.2756C17.6351 13.9823 17.6351 13.6801 17.6351 13.3868C17.6351 13.3068 17.6351 13.1912 17.5196 13.1912H17.3151" fill="#EFD898"/>
<path d="M21.9822 13.9556H22.5333C22.4355 13.769 22.3555 13.5912 22.2577 13.3956C22.1599 13.5912 22.0799 13.769 21.9822 13.9556ZM21.0933 14.8445V14.6401C21.3422 14.6401 21.3955 14.4712 21.4755 14.3112C21.6622 13.8934 21.8399 13.4223 22.0355 12.9868C22.0437 12.9586 22.0615 12.9343 22.0859 12.918C22.1103 12.9017 22.1397 12.8946 22.1688 12.8979C22.6044 12.8979 22.631 12.969 22.8266 13.3601C23.0222 13.7512 23.1466 14.0001 23.2888 14.329C23.3599 14.4979 23.4488 14.6312 23.6533 14.6401V14.8445H22.4888V14.6401H22.6488C22.8088 14.6401 22.7999 14.5601 22.7466 14.409C22.7339 14.3571 22.7022 14.3119 22.6577 14.2823C22.6133 14.2526 22.5594 14.2408 22.5066 14.249H22.0177C21.9637 14.2411 21.9087 14.2542 21.8641 14.2856C21.8194 14.317 21.7885 14.3644 21.7777 14.4179C21.7618 14.4932 21.741 14.5674 21.7155 14.6401H22.0444V14.8356L21.0933 14.8445Z" fill="#EFD898"/>
<path d="M25.4575 15.6889V15.4756H26.6131C26.6131 15.4756 26.6842 15.5378 26.7109 15.5734C26.8709 15.92 27.0309 16.3023 27.1997 16.6667C27.342 16.3556 27.4931 16.0711 27.6086 15.7778C27.6297 15.6877 27.6828 15.6083 27.758 15.5544C27.8332 15.5004 27.9254 15.4756 28.0175 15.4845H28.9064V15.6978C28.5953 15.6978 28.5953 15.8311 28.5953 16.1511V16.9956C28.5953 17.2089 28.5953 17.2711 28.8086 17.2711H28.942V17.4845H27.6264V17.2711C27.9464 17.2711 27.9375 17.1823 27.9375 16.8445V16C27.8998 16.0316 27.8695 16.0711 27.8486 16.1156C27.662 16.5423 27.4664 16.9423 27.2797 17.3689C27.2694 17.4042 27.2465 17.4345 27.2154 17.4541C27.1843 17.4738 27.1472 17.4814 27.1109 17.4756C27.0042 17.4756 26.8886 17.4756 26.8353 17.3689L26.2753 16.1334C26.2517 16.083 26.2185 16.0377 26.1775 16V16.4623C26.1775 16.6489 26.1775 16.8267 26.1775 17.0045C26.1775 17.1823 26.2397 17.2534 26.3642 17.2534H26.4797V17.4667H25.4664V17.2534C25.4664 17.2534 25.4664 17.2534 25.5197 17.2534C25.822 17.2534 25.8042 17.1823 25.8042 16.8711V16C25.8042 15.8045 25.8042 15.68 25.5997 15.68H25.4575" fill="#EFD898"/>
<path d="M20.2753 16.329H20.7641C20.7988 16.3305 20.8333 16.3245 20.8654 16.3114C20.8975 16.2982 20.9263 16.2783 20.95 16.253C20.9736 16.2276 20.9915 16.1975 21.0024 16.1646C21.0133 16.1316 21.0169 16.0968 21.013 16.0623C21.0155 15.9978 20.9928 15.9348 20.9496 15.8867C20.9065 15.8386 20.8464 15.8091 20.7819 15.8045C20.613 15.8045 20.4441 15.8045 20.2753 15.8045V16.329ZM21.7686 16.8623H21.9819V17.2623C21.9738 17.3238 21.9444 17.3805 21.899 17.4226C21.8536 17.4648 21.7949 17.4898 21.733 17.4934C21.556 17.5157 21.3768 17.5157 21.1997 17.4934C21.1233 17.4892 21.0511 17.4569 20.997 17.4028C20.9429 17.3487 20.9106 17.2765 20.9064 17.2001L20.853 16.889C20.853 16.8277 20.8287 16.7689 20.7853 16.7256C20.742 16.6822 20.6832 16.6579 20.6219 16.6579C20.5153 16.6579 20.4086 16.6579 20.2664 16.6579C20.2664 16.8268 20.2664 16.9957 20.2664 17.1557C20.2664 17.3157 20.2664 17.2801 20.3641 17.289H20.5953V17.5112H19.253V17.289H19.3686C19.5997 17.289 19.5997 17.2268 19.5997 17.0045C19.5997 16.7823 19.5997 16.3468 19.5997 16.0179C19.5997 15.8668 19.5375 15.7245 19.4219 15.7245H19.2441V15.5023H21.0219C21.1641 15.5018 21.3043 15.5353 21.4308 15.6001C21.5128 15.6422 21.5802 15.7079 21.6246 15.7887C21.6689 15.8695 21.6881 15.9617 21.6797 16.0534C21.6847 16.1391 21.66 16.2239 21.6098 16.2935C21.5596 16.3631 21.487 16.4133 21.4041 16.4357C21.3007 16.4758 21.1935 16.5056 21.0841 16.5245H21.173C21.2706 16.5357 21.3599 16.5849 21.4214 16.6615C21.483 16.738 21.5119 16.8357 21.5019 16.9334V17.1112C21.5019 17.1112 21.5019 17.1823 21.6353 17.1912C21.7686 17.2001 21.7508 17.129 21.7508 17.0845V16.889" fill="#EFD898"/>
<path d="M17.0666 16.5422H17.6622L17.3689 15.9467L17.0666 16.5422ZM16.1333 17.4756V17.2622C16.4 17.2622 16.4533 17.0845 16.5333 16.9156C16.7466 16.4711 16.9689 15.9645 17.1733 15.52C17.1733 15.4489 17.2355 15.4222 17.3155 15.4222C17.7866 15.4222 17.7866 15.4756 17.9911 15.8934C18.1955 16.3111 18.3377 16.5867 18.4889 16.9334C18.5689 17.1111 18.6577 17.2622 18.8889 17.2622V17.4845H17.6089V17.2711H17.7777C17.9466 17.2711 17.9466 17.1822 17.8844 17.0222C17.8697 16.9673 17.8353 16.9197 17.7878 16.8886C17.7402 16.8574 17.6829 16.8449 17.6266 16.8534H17.1111C17.0523 16.8428 16.9916 16.8554 16.9419 16.8885C16.8922 16.9217 16.8573 16.9728 16.8444 17.0311C16.8277 17.1121 16.807 17.1922 16.7822 17.2711H17.1377V17.4845L16.1333 17.4756Z" fill="#EFD898"/>
<path d="M23.2356 16.5422H23.8311L23.5378 15.9467L23.2356 16.5422ZM22.3022 17.4845V17.2622C22.5689 17.2622 22.6222 17.0845 22.7111 16.9156L23.3422 15.52C23.3422 15.4578 23.4045 15.4222 23.4845 15.4222C23.9556 15.4222 23.9556 15.4756 24.16 15.8934C24.3645 16.3111 24.5067 16.5867 24.6578 16.9422C24.7378 17.12 24.8267 17.2622 25.0578 17.2711V17.4845H23.7778V17.2711H23.9467C24.1156 17.2711 24.1156 17.1822 24.0534 17.0134C24.0387 16.9584 24.0043 16.9108 23.9567 16.8797C23.9092 16.8485 23.8518 16.836 23.7956 16.8445H23.28C23.2223 16.8341 23.1628 16.8469 23.1145 16.8802C23.0662 16.9135 23.0331 16.9646 23.0222 17.0222C23.0222 17.0667 23.0222 17.1911 22.9511 17.2622H23.3067V17.4756L22.3022 17.4845Z" fill="#EFD898"/>
<path d="M15.2262 15.6C15.3951 15.4934 15.4218 15.4756 15.5373 15.4845V16.2667H15.4129C15.2885 16.2667 15.2796 16.2667 15.2351 16.1245C15.1566 15.9794 15.0312 15.8653 14.8795 15.8007C14.7277 15.7361 14.5585 15.7249 14.3996 15.7689C14.2668 15.7824 14.1441 15.846 14.0566 15.9467C13.9691 16.0475 13.9233 16.1778 13.9285 16.3111C13.9105 16.5112 13.9285 16.713 13.9818 16.9067C14.1062 17.2622 14.6218 17.2889 14.8707 17.1467C14.9218 17.111 14.9592 17.0591 14.977 16.9993C14.9948 16.9396 14.9918 16.8756 14.9685 16.8178C14.9431 16.7649 14.8987 16.7236 14.844 16.7022C14.7717 16.667 14.6932 16.6458 14.6129 16.64V16.4534H15.9551V16.6311C15.644 16.6756 15.644 16.7645 15.644 17.1022V17.4578C15.5462 17.5467 15.3773 17.4578 15.244 17.3245C14.9829 17.4856 14.6788 17.5634 14.3724 17.5475C14.0659 17.5316 13.7716 17.4228 13.5285 17.2356C13.4013 17.1148 13.3076 16.9631 13.2566 16.7953C13.2057 16.6275 13.1991 16.4493 13.2376 16.2782C13.2762 16.1071 13.3584 15.9489 13.4764 15.8191C13.5944 15.6894 13.744 15.5924 13.9107 15.5378C14.3474 15.3918 14.8228 15.414 15.244 15.6" fill="#EFD898"/>
<path d="M17.5107 18.5156V18.9867H17.6707C17.7188 18.9892 17.766 18.973 17.8025 18.9416C17.8389 18.9101 17.8618 18.8658 17.8663 18.8178C17.8751 18.7738 17.8751 18.7285 17.8663 18.6845C17.8647 18.6432 17.8487 18.6037 17.8211 18.5728C17.7935 18.542 17.7561 18.5218 17.7152 18.5156H17.5107ZM17.1641 19.0934V19.0223H17.2352C17.2352 19.0223 17.2796 19.0223 17.2796 18.9512V18.56V18.4889H17.1996V18.4089H17.7774C17.8574 18.4104 17.9347 18.4382 17.9974 18.488C18.06 18.5378 18.1046 18.6069 18.1241 18.6845C18.1375 18.7303 18.1404 18.7786 18.1327 18.8258C18.125 18.8729 18.1069 18.9177 18.0796 18.9569C18.0523 18.9961 18.0166 19.0287 17.9751 19.0524C17.9335 19.076 17.8873 19.09 17.8396 19.0934H17.1907" fill="#EFD898"/>
<path d="M19.3686 18.6667V19.0134H19.4575V19.0934H19.0931V19.0223C19.1908 19.0223 19.1909 19.0223 19.1909 18.9067C19.1909 18.7912 19.1909 18.6845 19.1909 18.5778C19.1909 18.4712 19.1909 18.4889 19.1197 18.4889H19.0664V18.4089C19.1731 18.4089 19.2797 18.4089 19.3864 18.4089C19.4931 18.4089 19.3864 18.4089 19.3864 18.4534L19.742 18.88V18.5778C19.742 18.5778 19.742 18.48 19.6797 18.48H19.6264V18.4089H19.982V18.48H19.9286C19.8664 18.48 19.8664 18.48 19.8664 18.5867V19.0312C19.8681 19.0385 19.8679 19.0462 19.8658 19.0534C19.8638 19.0607 19.8599 19.0673 19.8545 19.0726C19.8492 19.078 19.8426 19.0818 19.8353 19.0839C19.8281 19.086 19.8204 19.0862 19.8131 19.0845H19.6708C19.5642 18.96 19.4575 18.8267 19.342 18.7023" fill="#EFD898"/>
<path d="M15.9107 18.4533C15.9641 18.4533 15.973 18.4089 16.0174 18.4533V18.6667H15.9996C15.9996 18.6667 15.9996 18.6667 15.9374 18.6222C15.9111 18.5723 15.8687 18.5328 15.817 18.5102C15.7653 18.4876 15.7075 18.4832 15.653 18.4978C15.609 18.5059 15.5691 18.5289 15.54 18.5628C15.5109 18.5968 15.4943 18.6397 15.493 18.6845C15.4793 18.7519 15.4793 18.8214 15.493 18.8889C15.5059 18.9145 15.524 18.9371 15.5462 18.9553C15.5684 18.9734 15.5941 18.9867 15.6218 18.9943C15.6495 19.0018 15.6784 19.0034 15.7068 18.9991C15.7351 18.9947 15.7622 18.9844 15.7863 18.9689C15.7978 18.9535 15.8041 18.9348 15.8041 18.9156C15.8041 18.8963 15.7978 18.8776 15.7863 18.8622C15.7905 18.8477 15.7905 18.8323 15.7863 18.8178H15.7063V18.7556H16.1596V18.8089C16.053 18.8089 16.053 18.8622 16.053 18.9778V19.1022C16.053 19.1022 15.9641 19.1022 15.9196 19.0489C15.833 19.1074 15.7308 19.1386 15.6263 19.1386C15.5218 19.1386 15.4196 19.1074 15.333 19.0489C15.2902 19.0073 15.259 18.9555 15.2421 18.8983C15.2253 18.8411 15.2235 18.7805 15.2369 18.7225C15.2503 18.6644 15.2785 18.6107 15.3186 18.5667C15.3588 18.5227 15.4097 18.4898 15.4663 18.4711C15.538 18.4406 15.6151 18.4248 15.693 18.4248C15.7709 18.4248 15.848 18.4406 15.9196 18.4711" fill="#EFD898"/>
<path d="M20.7464 18.4533C20.7997 18.4533 20.8086 18.4089 20.8531 18.4533V18.6667H20.8086C20.7642 18.6667 20.7642 18.6667 20.7553 18.6222C20.7263 18.5727 20.6821 18.5338 20.6293 18.5114C20.5764 18.489 20.5177 18.4842 20.462 18.4978C20.418 18.5059 20.3781 18.5289 20.349 18.5628C20.3198 18.5968 20.3032 18.6397 20.302 18.6845C20.2928 18.7523 20.2928 18.8211 20.302 18.8889C20.3158 18.9148 20.3347 18.9376 20.3577 18.9558C20.3807 18.974 20.4073 18.9873 20.4356 18.9948C20.464 19.0023 20.4936 19.0039 20.5226 18.9994C20.5516 18.995 20.5794 18.9846 20.6042 18.9689C20.6145 18.953 20.62 18.9345 20.62 18.9156C20.62 18.8966 20.6145 18.8781 20.6042 18.8622V18.8178H20.5242V18.7556H20.9864V18.8089C20.8797 18.8089 20.8797 18.8622 20.8797 18.9778V19.1022C20.8797 19.1022 20.782 19.1022 20.7464 19.0489C20.658 19.107 20.5544 19.138 20.4486 19.138C20.3428 19.138 20.2393 19.107 20.1508 19.0489C20.1081 19.0073 20.0768 18.9555 20.06 18.8983C20.0432 18.8411 20.0414 18.7805 20.0548 18.7225C20.0682 18.6644 20.0963 18.6107 20.1365 18.5667C20.1767 18.5227 20.2276 18.4898 20.2842 18.4711C20.3558 18.4406 20.4329 18.4248 20.5108 18.4248C20.5887 18.4248 20.6658 18.4406 20.7375 18.4711" fill="#EFD898"/>
<path d="M16.7199 18.4889V18.4089H17.0843V18.4889H17.0132C17.0132 18.4889 16.9599 18.4889 16.9599 18.56V18.8267C16.9599 18.9956 16.9599 19.0756 16.7554 19.1112C16.6504 19.1379 16.5404 19.1379 16.4354 19.1112C16.3822 19.0987 16.3351 19.0677 16.3026 19.0237C16.27 18.9798 16.2541 18.9257 16.2576 18.8712V18.5778C16.2576 18.5067 16.2576 18.48 16.1954 18.48H16.1421V18.4089H16.6043V18.48H16.5332C16.5332 18.48 16.4888 18.48 16.4888 18.5512V18.88C16.4874 18.8967 16.4897 18.9135 16.4955 18.9292C16.5013 18.9449 16.5104 18.9592 16.5222 18.971C16.5341 18.9829 16.5483 18.992 16.564 18.9978C16.5797 19.0035 16.5965 19.0058 16.6132 19.0045H16.7288C16.7435 19.0045 16.7582 19.0015 16.7717 18.9956C16.7853 18.9897 16.7975 18.981 16.8075 18.9702C16.8175 18.9593 16.8252 18.9465 16.83 18.9325C16.8348 18.9185 16.8367 18.9037 16.8354 18.8889V18.56C16.8354 18.56 16.8354 18.4889 16.791 18.4889H16.7199Z" fill="#EFD898"/>
<path d="M18.4354 18.7734H18.6665L18.5688 18.569C18.5297 18.6353 18.4941 18.7035 18.4621 18.7734M18.1421 19.0934V19.0223C18.231 19.0223 18.2488 18.9601 18.2843 18.8979C18.3199 18.8356 18.4176 18.569 18.4888 18.4179C18.5599 18.2668 18.4888 18.4179 18.5421 18.4179C18.7021 18.4179 18.711 18.4179 18.7821 18.5868C18.8532 18.7556 18.8976 18.8268 18.951 18.9512C19.0043 19.0756 19.0043 19.0579 19.0843 19.0579V19.129H18.6665V19.0223C18.7288 19.0223 18.7288 19.0223 18.6665 18.9334C18.6623 18.9161 18.6517 18.9011 18.6369 18.8912C18.6221 18.8813 18.6041 18.8774 18.5865 18.8801H18.4088C18.3877 18.8771 18.3663 18.8817 18.3483 18.8931C18.3304 18.9045 18.3171 18.922 18.311 18.9423C18.3133 18.9689 18.3133 18.9957 18.311 19.0223H18.4354V19.0934H18.1421Z" fill="#EFD898"/>
<path d="M25.3154 18.48V18.4H25.7154C25.7154 18.4 25.831 18.6489 25.8843 18.7733C25.939 18.6731 25.9865 18.5692 26.0265 18.4622C26.0348 18.4317 26.0536 18.4051 26.0797 18.3872C26.1057 18.3693 26.1373 18.3613 26.1688 18.3645H26.4888V18.4356C26.3821 18.4356 26.3821 18.4356 26.3821 18.5956V18.88C26.3821 18.9511 26.3821 18.9778 26.4621 18.9778H26.5065V19.0489H26.0443V18.9778C26.1599 18.9778 26.1599 18.9778 26.1599 18.8267V18.5778C26.1599 18.5778 26.1599 18.5778 26.1599 18.6222L25.9643 19.0489C25.9643 19.0489 25.9643 19.0933 25.911 19.0933C25.8577 19.0933 25.831 19.0933 25.8132 19.0933C25.7954 19.0933 25.6799 18.8089 25.6177 18.6667V18.6133V18.7733C25.6221 18.8355 25.6221 18.8979 25.6177 18.96C25.6177 19.0133 25.6177 19.0489 25.6799 19.0489H25.7243V19.12H25.3777V19.0489C25.4754 19.0489 25.4754 19.0489 25.4754 18.9156V18.5778C25.4754 18.5067 25.4754 18.4711 25.4043 18.4711H25.351" fill="#EFD898"/>
<path d="M23.6178 18.6667H23.7778C23.7898 18.6681 23.802 18.6668 23.8134 18.6628C23.8248 18.6589 23.8352 18.6524 23.8438 18.6438C23.8523 18.6353 23.8589 18.6249 23.8628 18.6134C23.8668 18.602 23.8681 18.5898 23.8667 18.5778C23.8668 18.5557 23.8586 18.5343 23.8438 18.5179C23.8291 18.5014 23.8087 18.4911 23.7867 18.4889H23.6178V18.6667ZM24.1333 18.8533H24.2044V18.9867C24.2045 18.998 24.2022 19.0092 24.1976 19.0195C24.1931 19.0298 24.1864 19.0391 24.178 19.0466C24.1696 19.0542 24.1597 19.0599 24.1489 19.0633C24.1381 19.0668 24.1268 19.0679 24.1155 19.0667H23.9289C23.9029 19.0627 23.879 19.0499 23.8612 19.0305C23.8435 19.0112 23.8328 18.9863 23.8311 18.96C23.8354 18.9246 23.8354 18.8888 23.8311 18.8533C23.8311 18.8 23.8311 18.7733 23.76 18.7733H23.6356V18.9422V18.9867H23.7156V19.0667H23.2533V18.9867C23.3333 18.9867 23.3333 18.9867 23.3333 18.8889V18.5778C23.3333 18.5245 23.3333 18.48 23.2711 18.4711H23.2178V18.4H23.8311C23.8751 18.3909 23.9205 18.3909 23.9644 18.4C23.9931 18.4153 24.0167 18.4386 24.0324 18.4669C24.0482 18.4953 24.0555 18.5276 24.0533 18.56C24.0544 18.59 24.0453 18.6195 24.0276 18.6437C24.0099 18.6679 23.9845 18.6854 23.9556 18.6933H23.8489C23.8827 18.6978 23.9135 18.715 23.935 18.7415C23.9565 18.7679 23.967 18.8016 23.9644 18.8356V18.8978C23.9644 18.8978 23.9644 18.8978 24.0089 18.8978V18.8178" fill="#EFD898"/>
<path d="M22.5597 18.7734H22.7553L22.6575 18.5601C22.6575 18.6401 22.5864 18.7023 22.5597 18.7734ZM22.2397 19.0934V19.0134C22.3286 19.0134 22.3464 18.9512 22.3731 18.8978L22.5953 18.4178C22.5953 18.4178 22.5953 18.4178 22.6486 18.4178C22.702 18.4178 22.8086 18.4178 22.8709 18.5778C22.9331 18.7378 22.9953 18.8178 23.0486 18.9423C23.102 19.0667 23.1109 19.049 23.182 19.049V19.129H22.7464V19.049H22.8086C22.8709 19.049 22.862 19.049 22.8086 18.969C22.8043 18.9493 22.7928 18.932 22.7764 18.9205C22.7599 18.9089 22.7397 18.904 22.7197 18.9067H22.542C22.4886 18.9067 22.462 18.9067 22.4531 18.969C22.4518 18.9956 22.4518 19.0223 22.4531 19.049H22.5775V19.129L22.2397 19.0934Z" fill="#EFD898"/>
<path d="M24.6042 18.7734H24.8086C24.8086 18.7023 24.7464 18.6312 24.702 18.5601C24.6748 18.6336 24.6421 18.7049 24.6042 18.7734ZM24.2842 19.0934V19.0134C24.3731 19.0134 24.3908 18.9512 24.4175 18.8979C24.4442 18.8445 24.5686 18.569 24.6397 18.4179C24.7108 18.2668 24.6397 18.4179 24.6931 18.4179C24.7464 18.4179 24.8531 18.4179 24.9242 18.5779C24.9953 18.7379 25.0397 18.8179 25.0931 18.9423C25.1025 18.9728 25.1213 18.9996 25.1468 19.0188C25.1724 19.0379 25.2034 19.0485 25.2353 19.049V19.129H24.7908V19.049H24.8886C24.9508 19.049 24.942 19.049 24.8886 18.969C24.8353 18.889 24.8886 18.9068 24.8086 18.9068H24.622C24.5686 18.9068 24.542 18.9068 24.5331 18.969C24.5363 18.9955 24.5363 19.0224 24.5331 19.049H24.6486V19.129L24.2842 19.0934Z" fill="#EFD898"/>
<path d="M22.0086 18.4445C22.0619 18.4445 22.0708 18.4 22.1153 18.4V18.6667H22.0708C22.0708 18.6667 22.0708 18.6667 22.0086 18.6222C21.9836 18.5712 21.9413 18.5306 21.8892 18.5078C21.8371 18.485 21.7786 18.4815 21.7242 18.4978C21.6785 18.5041 21.6366 18.5262 21.6057 18.5603C21.5748 18.5945 21.5569 18.6384 21.5553 18.6845C21.5416 18.7519 21.5416 18.8214 21.5553 18.8889C21.5682 18.9145 21.5863 18.9371 21.6085 18.9553C21.6307 18.9734 21.6564 18.9867 21.6841 18.9943C21.7118 19.0018 21.7407 19.0035 21.769 18.9991C21.7974 18.9947 21.8245 18.9844 21.8486 18.9689C21.8609 18.9522 21.8675 18.9319 21.8675 18.9111C21.8675 18.8904 21.8609 18.8701 21.8486 18.8534H21.7775V18.7911H22.2219V18.8534C22.1064 18.8534 22.1064 18.8978 22.1064 19.0134V19.1467C22.1064 19.1467 22.0175 19.1467 21.973 19.0934C21.8846 19.1515 21.7811 19.1824 21.6753 19.1824C21.5694 19.1824 21.4659 19.1515 21.3775 19.0934C21.335 19.0509 21.304 18.9983 21.2874 18.9406C21.2707 18.8828 21.269 18.8218 21.2823 18.7632C21.2956 18.7046 21.3235 18.6504 21.3635 18.6055C21.4035 18.5607 21.4542 18.5267 21.5108 18.5067C21.6597 18.45 21.8242 18.45 21.973 18.5067" fill="#EFD898"/>
<path d="M13.5286 18.7201V18.4979C13.5607 18.49 13.5943 18.49 13.6264 18.4979C13.6264 18.4979 13.6264 18.5423 13.6264 18.5868C13.632 18.5993 13.6349 18.613 13.6349 18.6268C13.6349 18.6406 13.632 18.6542 13.6264 18.6668C13.5885 18.677 13.5487 18.677 13.5108 18.6668M13.8041 18.4357C13.7671 18.409 13.7246 18.3908 13.6797 18.3823H13.2441V18.4534H13.333C13.333 18.4534 13.333 18.4534 13.333 18.4979V18.969H13.2441V19.0401H13.6086V19.0223H13.5286V18.8357H13.6797C13.7367 18.8317 13.7917 18.8133 13.8397 18.7823C13.8732 18.7495 13.8924 18.7048 13.893 18.6579C13.8917 18.633 13.8845 18.6089 13.8722 18.5872C13.8598 18.5656 13.8426 18.5472 13.8219 18.5334" fill="#EFD898"/>
<path d="M14.622 18.4H14.5598H14.0887H14.0176V18.64H14.0887C14.1084 18.6151 14.1325 18.594 14.1598 18.5778H14.2131C14.2212 18.5731 14.2304 18.5707 14.2398 18.5707C14.2492 18.5707 14.2584 18.5731 14.2665 18.5778V19.0222C14.2665 19.0845 14.2665 19.0934 14.2665 19.0934H14.1687V19.1645H14.542V19.0934H14.4531C14.4483 19.0699 14.4483 19.0457 14.4531 19.0222V18.5778H14.5065C14.5065 18.5778 14.5065 18.5778 14.5065 18.6311H14.5598L14.622 18.4Z" fill="#EFD898"/>
<path d="M27.5553 18.4H27.0842H27.022L26.9775 18.64H27.0398C27.0557 18.615 27.077 18.5938 27.102 18.5778H27.1642C27.1642 18.5778 27.1642 18.5778 27.2175 18.5778V19.0222C27.2175 19.0845 27.2175 19.0934 27.2175 19.0934H27.1287V19.1645H27.502V19.0934H27.4131C27.4083 19.0699 27.4083 19.0457 27.4131 19.0222V18.5778H27.4664C27.4849 18.6168 27.5163 18.6482 27.5553 18.6667H27.6086L27.5553 18.4Z" fill="#EFD898"/>
<path d="M27.8574 18.7822H27.9107H27.964C27.9744 18.8079 27.9744 18.8366 27.964 18.8622V18.9067C27.964 18.9689 27.964 18.9867 27.964 18.9956H27.9107C27.9018 18.9727 27.9018 18.9473 27.9107 18.9245V18.7645L27.8574 18.7822ZM28.0885 18.6667C28.0556 18.6332 28.0109 18.614 27.964 18.6134C27.9379 18.6057 27.9101 18.6057 27.884 18.6134V18.4H27.7329V18.48V19.0489H27.804H27.8574H27.9196C27.9502 19.0528 27.9813 19.0482 28.0095 19.0357C28.0377 19.0232 28.062 19.0031 28.0796 18.9778C28.1154 18.9323 28.1343 18.8757 28.1329 18.8178C28.1342 18.764 28.1187 18.7112 28.0885 18.6667Z" fill="#EFD898"/>
<path d="M28.6663 19.0134L28.5152 18.8356L28.5774 18.7912H28.6663V18.6667H28.4441V18.7467L28.3374 18.8267V18.4089H28.2752H28.1597V18.4712H28.2041V18.9689H28.1597V19.0489H28.4441V19.0223H28.3908V18.9334L28.4708 19.0223V19.1023H28.7374V19.0223H28.6841" fill="#EFD898"/>
<path d="M28.951 19.0133C28.951 19.0346 28.9426 19.0549 28.9276 19.0699C28.9126 19.0849 28.8922 19.0933 28.871 19.0933C28.8498 19.0933 28.8294 19.0849 28.8144 19.0699C28.7994 19.0549 28.791 19.0346 28.791 19.0133C28.791 18.9921 28.7994 18.9718 28.8144 18.9568C28.8294 18.9418 28.8498 18.9333 28.871 18.9333C28.8922 18.9333 28.9126 18.9418 28.9276 18.9568C28.9426 18.9718 28.951 18.9921 28.951 19.0133Z" fill="#EFD898"/>
<path d="M14.8531 19.0134C14.8509 19.0354 14.8406 19.0558 14.8241 19.0706C14.8077 19.0854 14.7863 19.0935 14.7642 19.0934C14.743 19.0934 14.7227 19.085 14.7077 19.07C14.6927 19.0549 14.6842 19.0346 14.6842 19.0134C14.6828 19.0025 14.6838 18.9915 14.6873 18.9811C14.6908 18.9707 14.6967 18.9613 14.7044 18.9536C14.7122 18.9458 14.7216 18.94 14.732 18.9365C14.7423 18.933 14.7534 18.9319 14.7642 18.9334C14.7755 18.9321 14.7868 18.9333 14.7976 18.9367C14.8083 18.9402 14.8182 18.9459 14.8266 18.9534C14.835 18.961 14.8417 18.9702 14.8463 18.9806C14.8509 18.9909 14.8532 19.0021 14.8531 19.0134Z" fill="#EFD898"/>
</g>
<defs>
<clipPath id="clip0_2707_339998">
<rect width="32" height="32" fill="white"/>
</clipPath>
</defs>
</svg>
