<svg width="32" height="32" viewBox="0 0 32 32" fill="none" xmlns="http://www.w3.org/2000/svg">
<g clip-path="url(#clip0_2707_339083)">
<path d="M15.9998 31.9823C24.8265 31.9823 31.982 24.8268 31.982 16C31.982 7.17331 24.8265 0.0178223 15.9998 0.0178223C7.17306 0.0178223 0.0175781 7.17331 0.0175781 16C0.0175781 24.8268 7.17306 31.9823 15.9998 31.9823Z" fill="white"/>
<path d="M13.1196 16.4179C12.9481 16.466 12.7725 16.4987 12.5952 16.5156C12.5128 16.5198 12.4305 16.5044 12.3552 16.4708C12.2798 16.4372 12.2135 16.3862 12.1615 16.3221C12.1095 16.2581 12.0734 16.1826 12.0561 16.1019C12.0388 16.0213 12.0408 15.9376 12.0618 15.8579C12.0955 15.6341 12.1999 15.427 12.3599 15.267C12.5199 15.1071 12.727 15.0026 12.9507 14.969C13.0891 14.9469 13.2301 14.9469 13.3685 14.969C13.4182 14.9831 13.4645 15.0072 13.5046 15.0397C13.5447 15.0723 13.5778 15.1126 13.6019 15.1583C13.626 15.204 13.6406 15.2541 13.6448 15.3056C13.649 15.3571 13.6427 15.4089 13.6263 15.4579C13.5978 15.5452 13.5515 15.6257 13.4904 15.6943C13.4293 15.7629 13.3546 15.8181 13.2712 15.8565C13.1877 15.8949 13.0972 15.9156 13.0054 15.9174C12.9135 15.9192 12.8223 15.9019 12.7374 15.8667C12.7216 15.859 12.7078 15.8478 12.697 15.8339C12.6863 15.8201 12.6788 15.8039 12.6752 15.7867H12.7374C12.8196 15.8152 12.9068 15.8261 12.9935 15.8187C13.0801 15.8114 13.1643 15.7859 13.2405 15.7441C13.3167 15.7022 13.3833 15.6448 13.436 15.5756C13.4886 15.5064 13.5262 15.4269 13.5463 15.3423C13.5599 15.3031 13.5645 15.2614 13.5597 15.2201C13.5549 15.1789 13.5409 15.1393 13.5187 15.1043C13.4965 15.0693 13.4666 15.0397 13.4314 15.0178C13.3962 14.9959 13.3564 14.9823 13.3152 14.9779C13.2069 14.9526 13.0942 14.9532 12.9861 14.9794C12.878 15.0057 12.7776 15.0569 12.693 15.129C12.5469 15.2221 12.4313 15.3558 12.3602 15.5137C12.2892 15.6716 12.2658 15.8468 12.293 16.0179C12.298 16.074 12.3149 16.1285 12.3426 16.1777C12.3702 16.2269 12.4079 16.2697 12.4532 16.3033C12.4986 16.3368 12.5505 16.3604 12.6056 16.3725C12.6607 16.3846 12.7177 16.3849 12.773 16.3734C12.9576 16.3478 13.1323 16.2742 13.2796 16.1601L13.4041 16.0712C13.4041 16.0712 13.4041 16.1423 13.4041 16.1601C13.3418 16.3556 13.2796 16.5512 13.2085 16.7467C13.1566 16.8927 13.0554 17.0161 12.9224 17.0956C12.7894 17.1751 12.6328 17.2057 12.4796 17.1823C12.4445 17.1813 12.4102 17.1709 12.3805 17.1522C12.3508 17.1334 12.3267 17.107 12.3107 17.0756C12.3006 17.0427 12.3002 17.0075 12.3097 16.9744C12.3191 16.9412 12.338 16.9116 12.3641 16.889C12.5223 16.7549 12.7119 16.6632 12.9152 16.6223L12.8174 16.6667L12.4885 16.8445C12.4561 16.8616 12.4315 16.8906 12.4199 16.9254C12.4083 16.9601 12.4106 16.9981 12.4263 17.0312C12.4263 17.1112 12.533 17.1112 12.6041 17.1112C12.6609 17.1083 12.7165 17.0934 12.767 17.0673C12.8176 17.0412 12.8621 17.0047 12.8974 16.9601C13.025 16.7608 13.1182 16.5414 13.173 16.3112" fill="#80993D"/>
<path d="M18.0888 16.5422C18.0549 16.6084 18.0042 16.6646 17.9418 16.7051C17.8794 16.7456 17.8075 16.7692 17.7333 16.7734C17.6745 16.7719 17.6182 16.7496 17.5743 16.7106C17.5303 16.6715 17.5017 16.6182 17.4933 16.56C17.4399 16.3734 17.3955 16.1778 17.3511 15.9822C17.3436 15.9214 17.3287 15.8617 17.3066 15.8045L17.2444 15.8934L16.9422 16.64C16.9422 16.7111 16.8888 16.7734 16.7733 16.7289C16.801 16.6502 16.8248 16.5701 16.8444 16.4889C16.9244 16.24 17.0044 16 17.0666 15.7511C17.0894 15.6367 17.0894 15.5189 17.0666 15.4045C17.0682 15.3391 17.0558 15.2741 17.0304 15.2139C17.005 15.1536 16.9672 15.0994 16.9193 15.0549C16.8714 15.0104 16.8146 14.9765 16.7527 14.9556C16.6907 14.9346 16.625 14.927 16.5599 14.9334C16.426 14.9302 16.2952 14.9737 16.1898 15.0564C16.0844 15.1391 16.011 15.2559 15.9822 15.3867C15.9604 15.4525 15.9579 15.5231 15.9748 15.5903C15.9918 15.6575 16.0276 15.7185 16.0779 15.7661C16.1283 15.8136 16.1912 15.8459 16.2593 15.859C16.3273 15.8721 16.3977 15.8655 16.4622 15.84H16.5244C16.487 15.8738 16.4427 15.8989 16.3945 15.9138C16.3464 15.9286 16.2956 15.9328 16.2457 15.9261C16.1958 15.9193 16.1479 15.9017 16.1055 15.8746C16.063 15.8475 16.027 15.8114 15.9999 15.7689C15.9274 15.6602 15.8972 15.5287 15.9153 15.3992C15.9333 15.2698 15.9982 15.1514 16.0977 15.0667C16.2065 14.9772 16.3378 14.9191 16.4772 14.8987C16.6166 14.8784 16.759 14.8965 16.8888 14.9511C16.9779 14.9916 17.0535 15.0565 17.1071 15.1384C17.1606 15.2202 17.1897 15.3156 17.1911 15.4134C17.1911 15.5556 17.1911 15.6978 17.1911 15.84L17.3244 15.6089C17.4424 15.4156 17.5963 15.2467 17.7777 15.1111C17.857 15.0612 17.9442 15.0252 18.0355 15.0045C18.0355 15.0045 18.1066 15.0045 18.1422 15.0045C18.0977 15.0045 18.0622 15.0845 18.0266 15.0845C17.9608 15.0783 17.8944 15.0889 17.8338 15.1153C17.7732 15.1418 17.7202 15.1831 17.6799 15.2356C17.6047 15.3061 17.5363 15.3834 17.4755 15.4667C17.4689 15.4821 17.4655 15.4988 17.4655 15.5156C17.4655 15.5324 17.4689 15.549 17.4755 15.5645C17.4941 15.866 17.5478 16.1643 17.6355 16.4534C17.7244 16.6578 17.8311 16.6934 18.0088 16.56L18.0977 16.4978" fill="#80993D"/>
<path d="M8.30182 16.1156C8.39843 16.1219 8.49508 16.1039 8.5829 16.0631C8.67072 16.0223 8.74689 15.9602 8.80441 15.8823C8.86194 15.8044 8.89897 15.7133 8.9121 15.6174C8.92524 15.5215 8.91406 15.4238 8.8796 15.3333C8.8796 15.2711 8.7996 15.1911 8.74626 15.1822C8.69293 15.1733 8.62182 15.2444 8.58626 15.3067C8.44569 15.558 8.34947 15.8316 8.30182 16.1156ZM7.29737 16.6311L7.42182 16.5867C7.47515 16.7644 7.56404 16.8178 7.72404 16.7467C7.83085 16.7014 7.92532 16.6313 7.9996 16.5422C8.05561 16.4609 8.09766 16.3707 8.12404 16.2756C8.12404 16.2133 8.12404 16.1778 8.07071 16.16L7.88404 16.0622C7.88404 16.0622 7.82182 15.9822 7.76849 15.9289L8.07071 16.1067C8.14182 16.1067 8.17737 16.1067 8.20404 16.0444C8.23071 15.9822 8.24849 15.9022 8.26626 15.8311C8.31593 15.5471 8.46767 15.2911 8.69293 15.1111C8.62496 15.0767 8.55342 15.0499 8.4796 15.0311C8.2349 14.9703 7.97745 14.9858 7.74182 15.0756C7.65111 15.1119 7.56702 15.163 7.49293 15.2267C7.43508 15.2692 7.38915 15.3258 7.35957 15.3912C7.32999 15.4566 7.31775 15.5285 7.32404 15.6V15.7333C7.28468 15.6757 7.26362 15.6076 7.26362 15.5378C7.26362 15.468 7.28468 15.3998 7.32404 15.3422C7.38353 15.2484 7.4615 15.1678 7.5532 15.1051C7.64489 15.0425 7.74839 14.9991 7.85737 14.9778C8.06285 14.9377 8.27412 14.9377 8.4796 14.9778C8.65835 14.999 8.82454 15.0805 8.95071 15.2089C9.02365 15.2979 9.06351 15.4094 9.06351 15.5244C9.06351 15.6395 9.02365 15.751 8.95071 15.84C8.88729 15.9381 8.80223 16.0203 8.70207 16.0804C8.60192 16.1405 8.48932 16.1769 8.37293 16.1867C8.26626 16.1867 8.20404 16.24 8.17737 16.3467C8.14481 16.4282 8.10305 16.5057 8.05293 16.5778C7.98616 16.6769 7.89112 16.7537 7.78015 16.798C7.66918 16.8424 7.54742 16.8524 7.43071 16.8267C7.38551 16.8211 7.34347 16.8005 7.31126 16.7683C7.27906 16.7361 7.25853 16.6941 7.25293 16.6489" fill="#80993D"/>
<path d="M29.0396 15.5823L29.1996 15.4045C29.1996 15.4045 29.1996 15.3512 29.1996 15.3245C29.1996 15.2979 29.1285 15.3245 29.1107 15.3245C29.0728 15.39 29.0401 15.4584 29.0129 15.529M28.6929 16.4179L28.604 16.5957C28.604 16.6401 28.5507 16.6756 28.4796 16.6401C28.4756 16.6047 28.4756 16.5689 28.4796 16.5334C28.5951 16.2134 28.7107 15.8934 28.8351 15.5734C28.876 15.4703 28.933 15.3743 29.004 15.289C29.0241 15.2657 29.0485 15.2466 29.076 15.2329C29.1035 15.2191 29.1334 15.211 29.164 15.209C29.2618 15.209 29.3151 15.2712 29.2618 15.3512C29.2034 15.4242 29.1309 15.4847 29.0485 15.529C28.9865 15.5607 28.9389 15.6147 28.9151 15.6801C28.8529 15.8312 28.7907 15.9823 28.7285 16.1601L28.8263 16.1068C28.9063 16.0737 28.9898 16.0499 29.0751 16.0357C29.1041 16.0294 29.1343 16.0329 29.161 16.0457C29.1878 16.0585 29.2095 16.0798 29.2227 16.1063C29.2359 16.1328 29.24 16.163 29.2342 16.192C29.2284 16.2211 29.2131 16.2474 29.1907 16.2668C29.1421 16.3202 29.085 16.3652 29.0218 16.4001H28.9151C28.9774 16.5868 29.004 16.5957 29.244 16.4801C29.2175 16.5278 29.1789 16.5677 29.1321 16.5958C29.0853 16.6239 29.0319 16.6392 28.9774 16.6401C28.8796 16.6401 28.8529 16.5601 28.8085 16.4979C28.7675 16.452 28.7195 16.413 28.6663 16.3823H28.7907C28.8362 16.3844 28.8816 16.3759 28.9233 16.3573C28.965 16.3388 29.0017 16.3109 29.0307 16.2757C29.0307 16.2757 29.0307 16.1779 29.0307 16.1245C28.9859 16.1062 28.9371 16.0997 28.889 16.1055C28.8409 16.1114 28.7951 16.1294 28.756 16.1579C28.7168 16.1864 28.6855 16.2244 28.6652 16.2683C28.6448 16.3123 28.636 16.3607 28.6396 16.409" fill="#80993D"/>
<path d="M28.222 15.5822C28.2619 15.5676 28.298 15.544 28.3273 15.5131C28.3566 15.4823 28.3784 15.4451 28.3909 15.4044C28.3909 15.4044 28.3909 15.36 28.3909 15.3333C28.3909 15.3067 28.3286 15.3333 28.3198 15.3333C28.276 15.3984 28.2374 15.4667 28.2042 15.5378M27.9909 16.6844C28.0707 16.6469 28.1372 16.586 28.1816 16.5098C28.2261 16.4336 28.2464 16.3457 28.2398 16.2578C28.2398 16.16 28.1598 16.1333 28.062 16.1689C27.9905 16.2037 27.9293 16.2563 27.8841 16.3217C27.839 16.3871 27.8115 16.4631 27.8042 16.5422C27.8042 16.64 27.8042 16.6933 27.9464 16.6933M27.9464 16.1511C28.0442 16.1511 28.1153 16.0978 28.1953 16.0889C28.2237 16.0876 28.252 16.0923 28.2784 16.1025C28.3049 16.1128 28.3289 16.1285 28.349 16.1486C28.369 16.1686 28.3847 16.1926 28.395 16.2191C28.4053 16.2456 28.4099 16.2739 28.4086 16.3022C28.3952 16.4281 28.3325 16.5436 28.2343 16.6235C28.1361 16.7035 28.0102 16.7413 27.8842 16.7289C27.8549 16.7278 27.8264 16.7198 27.8008 16.7056C27.7751 16.6914 27.7532 16.6714 27.7368 16.6472C27.7204 16.6229 27.7098 16.5952 27.7061 16.5661C27.7024 16.5371 27.7055 16.5076 27.7153 16.48C27.7864 16.2667 27.8664 16.0533 27.9464 15.84C28.0056 15.6965 28.0739 15.557 28.1509 15.4222C28.1654 15.38 28.1913 15.3427 28.2259 15.3144C28.2604 15.2861 28.3022 15.2681 28.3464 15.2622C28.3909 15.2622 28.4442 15.2622 28.462 15.2622C28.4729 15.2811 28.4787 15.3026 28.4787 15.3244C28.4787 15.3463 28.4729 15.3677 28.462 15.3867C28.4021 15.4523 28.3333 15.5092 28.2575 15.5555C28.1962 15.5837 28.1483 15.6347 28.1242 15.6978C28.0798 15.8311 28.0175 15.9733 27.9553 16.1155" fill="#80993D"/>
<path d="M15.1733 15.5911C15.2283 15.5423 15.2789 15.4888 15.3245 15.4311C15.3245 15.4311 15.3245 15.36 15.3245 15.3245C15.3245 15.2889 15.2533 15.3245 15.2356 15.3245C15.2178 15.3245 15.1733 15.4578 15.1378 15.5289M15.2178 16.2845C15.2178 16.1423 15.1289 16.0889 15.0133 16.1511C14.9514 16.1813 14.8979 16.2263 14.8576 16.2821C14.8173 16.338 14.7914 16.4029 14.7822 16.4711C14.7785 16.5015 14.7813 16.5322 14.7905 16.5614C14.7997 16.5905 14.8151 16.6173 14.8356 16.64C14.8635 16.6528 14.8938 16.6594 14.9245 16.6594C14.9551 16.6594 14.9855 16.6528 15.0133 16.64C15.0733 16.6035 15.1233 16.5528 15.159 16.4923C15.1947 16.4318 15.2149 16.3635 15.2178 16.2934M14.8889 16.1511L15.0667 16.08C15.1026 16.0647 15.1422 16.0599 15.1807 16.0663C15.2192 16.0728 15.2551 16.0901 15.2841 16.1163C15.3131 16.1425 15.334 16.1764 15.3443 16.2141C15.3546 16.2518 15.3539 16.2916 15.3422 16.3289C15.3267 16.4455 15.2656 16.5513 15.1723 16.6229C15.079 16.6946 14.9611 16.7263 14.8445 16.7111C14.8191 16.7128 14.7937 16.7087 14.7702 16.6992C14.7466 16.6897 14.7255 16.675 14.7084 16.6562C14.6913 16.6374 14.6787 16.615 14.6715 16.5907C14.6643 16.5663 14.6626 16.5407 14.6667 16.5156C14.658 16.4686 14.658 16.4204 14.6667 16.3734L15.0311 15.4845C15.0469 15.4354 15.0747 15.391 15.112 15.3553C15.1492 15.3196 15.1947 15.2938 15.2445 15.28C15.2889 15.28 15.3422 15.28 15.3956 15.28C15.4489 15.28 15.3956 15.3956 15.3956 15.4311C15.3343 15.4864 15.2689 15.5369 15.2 15.5823C15.1498 15.6176 15.1074 15.663 15.0756 15.7156C15.0133 15.8489 14.96 15.9911 14.8978 16.1511" fill="#80993D"/>
<path d="M25.2443 16.8889C25.1388 16.9342 25.0534 17.0163 25.0043 17.12C25.0043 17.12 25.0043 17.2 25.0043 17.2445C25.0043 17.2889 25.102 17.2445 25.1198 17.2C25.1672 17.0988 25.2087 16.9949 25.2443 16.8889ZM25.4043 16.3289C25.4043 16.1956 25.3065 16.1334 25.182 16.1956C25.123 16.2265 25.0731 16.2723 25.0373 16.3284C25.0014 16.3845 24.9808 16.4491 24.9776 16.5156C24.9776 16.5956 24.9776 16.6756 25.0487 16.7111C25.1198 16.7467 25.1909 16.7111 25.2531 16.6578C25.3385 16.5679 25.3917 16.4523 25.4043 16.3289ZM25.2531 16.7289C25.2092 16.7607 25.1563 16.7779 25.102 16.7779C25.0478 16.7779 24.9949 16.7607 24.9509 16.7289C24.9101 16.6895 24.8829 16.6381 24.8733 16.5821C24.8637 16.5261 24.8722 16.4686 24.8976 16.4178C24.9214 16.3456 24.9633 16.2808 25.0193 16.2294C25.0754 16.1781 25.1436 16.1419 25.2176 16.1245C25.2594 16.111 25.3041 16.1097 25.3466 16.1207C25.3891 16.1317 25.4276 16.1546 25.4576 16.1867L25.6176 16.1334C25.5465 16.3556 25.4754 16.5778 25.3954 16.7911C25.3481 16.908 25.2916 17.021 25.2265 17.1289C25.1977 17.17 25.1589 17.2029 25.1138 17.2247C25.0687 17.2465 25.0187 17.2564 24.9687 17.2534C24.8531 17.2534 24.8176 17.1911 24.8709 17.0934C24.9505 16.9651 25.0688 16.8655 25.2087 16.8089C25.2087 16.8089 25.262 16.7645 25.2976 16.7467" fill="#80993D"/>
<path d="M21.1374 15.8578C21.0695 15.8585 21.0025 15.8427 20.9421 15.8118C20.8816 15.7808 20.8297 15.7356 20.7907 15.68C20.7521 15.6237 20.7314 15.5571 20.7314 15.4889C20.7314 15.4207 20.7521 15.354 20.7907 15.2978C20.8864 15.1584 21.0334 15.0625 21.1996 15.0311C21.4926 14.969 21.7955 14.969 22.0885 15.0311L22.7285 15.1378C22.8994 15.1788 23.0793 15.1567 23.2352 15.0756C23.211 15.1309 23.1712 15.1781 23.1207 15.2112C23.0702 15.2444 23.0111 15.2621 22.9507 15.2622C22.7879 15.271 22.6247 15.271 22.4618 15.2622C22.2129 15.2622 21.9729 15.1556 21.724 15.12C21.5169 15.0902 21.3056 15.1147 21.1107 15.1911C21.0515 15.2129 20.9971 15.2461 20.9507 15.2889C20.9032 15.3219 20.8658 15.3674 20.8427 15.4205C20.8197 15.4735 20.8119 15.532 20.8202 15.5892C20.8285 15.6464 20.8526 15.7002 20.8898 15.7445C20.927 15.7888 20.9758 15.8219 21.0307 15.84L21.1552 15.8844" fill="#80993D"/>
<path d="M26.7554 15.8312C26.6787 15.8475 26.5988 15.8381 26.5281 15.8043C26.4574 15.7706 26.3998 15.7144 26.3643 15.6445C26.326 15.5767 26.313 15.4975 26.3276 15.421C26.3423 15.3444 26.3836 15.2756 26.4443 15.2267C26.5464 15.1423 26.6642 15.0788 26.7909 15.0401C27.0833 14.9722 27.3874 14.9722 27.6798 15.0401L28.4443 15.1112C28.5605 15.1438 28.6836 15.1438 28.7998 15.1112C28.7818 15.1604 28.7491 15.2029 28.7062 15.2331C28.6633 15.2633 28.6123 15.2797 28.5598 15.2801C28.3972 15.2936 28.2336 15.2936 28.0709 15.2801C27.8132 15.2356 27.5643 15.1645 27.3065 15.129C27.0795 15.0906 26.8462 15.1248 26.6398 15.2267C26.593 15.2481 26.5508 15.2783 26.5154 15.3156C26.473 15.3509 26.4407 15.3969 26.4219 15.4488C26.4031 15.5006 26.3984 15.5566 26.4084 15.6109C26.4183 15.6652 26.4425 15.7158 26.4785 15.7577C26.5145 15.7995 26.561 15.831 26.6132 15.849L26.7554 15.9023" fill="#80993D"/>
<path d="M9.55534 15.8667C9.49032 15.8639 9.42662 15.8474 9.36841 15.8183C9.31021 15.7892 9.2588 15.7482 9.21756 15.6978C9.17326 15.6589 9.14311 15.6063 9.13186 15.5484C9.1206 15.4905 9.12885 15.4305 9.15534 15.3778C9.19651 15.2872 9.25943 15.2081 9.33851 15.1476C9.4176 15.0871 9.5104 15.0471 9.60867 15.0311C9.90156 14.9676 10.2047 14.9676 10.4976 15.0311L11.2264 15.1467C11.3601 15.1705 11.4979 15.1485 11.6176 15.0845C11.6079 15.1246 11.5868 15.1611 11.5568 15.1895C11.5269 15.2179 11.4893 15.237 11.4487 15.2445C11.2612 15.2846 11.0673 15.2846 10.8798 15.2445C10.6309 15.1911 10.382 15.1289 10.1331 15.0934C9.90615 15.0543 9.67265 15.0886 9.46645 15.1911C9.39834 15.2224 9.33772 15.2678 9.28867 15.3245C9.25569 15.3647 9.23332 15.4125 9.2236 15.4636C9.21388 15.5147 9.21713 15.5674 9.23305 15.617C9.24896 15.6665 9.27704 15.7112 9.31471 15.7471C9.35238 15.7829 9.39843 15.8088 9.44867 15.8223H9.57311" fill="#80993D"/>
<path d="M22.1597 15.2622C22.0252 15.448 21.9313 15.66 21.8841 15.8844C21.8219 16.0711 21.7686 16.2578 21.6886 16.4444C21.6535 16.5544 21.583 16.6498 21.4882 16.7157C21.3934 16.7816 21.2795 16.8143 21.1641 16.8089C21.1035 16.8102 21.0441 16.7914 20.9952 16.7555C20.9508 16.7555 20.933 16.6755 20.8975 16.6311L21.0308 16.5511C21.0308 16.7289 21.1375 16.7911 21.2886 16.7289C21.3694 16.6895 21.4372 16.6278 21.4841 16.5511C21.5552 16.4 21.5997 16.24 21.6619 16.08C21.7241 15.92 21.7952 15.7067 21.8841 15.52C21.9093 15.4601 21.9469 15.4061 21.9944 15.3617C22.0419 15.3173 22.0982 15.2834 22.1597 15.2622Z" fill="#80993D"/>
<path d="M9.422 16.56C9.47533 16.7556 9.57311 16.7912 9.742 16.7112C9.85139 16.6419 9.93072 16.534 9.96422 16.4089C10.0176 16.2578 10.062 16.0889 10.1153 15.9289C10.1634 15.7423 10.248 15.5671 10.3642 15.4134C10.4176 15.3423 10.4887 15.2978 10.542 15.2356V15.2889C10.4709 15.4489 10.3909 15.6 10.3287 15.76C10.2664 15.92 10.1776 16.2223 10.0798 16.4534C10.0423 16.5594 9.97012 16.6495 9.87489 16.7093C9.77967 16.769 9.66704 16.7947 9.55533 16.7823C9.49678 16.7726 9.43991 16.7547 9.38644 16.7289C9.36783 16.7138 9.35265 16.6949 9.34192 16.6734C9.33119 16.652 9.32516 16.6285 9.32422 16.6045C9.32422 16.6045 9.38644 16.56 9.43089 16.5334" fill="#80993D"/>
<path d="M27.7686 15.2712C27.6138 15.4691 27.5073 15.7004 27.4574 15.9467C27.3935 16.1472 27.3163 16.3432 27.2263 16.5334C27.1841 16.6248 27.1141 16.7006 27.0263 16.7501C26.9386 16.7995 26.8375 16.8201 26.7374 16.809C26.672 16.7946 26.6091 16.7707 26.5508 16.7378C26.5347 16.7255 26.5221 16.7092 26.5143 16.6905C26.5065 16.6717 26.5037 16.6513 26.5063 16.6312C26.5063 16.6312 26.5686 16.6312 26.5952 16.5778C26.6841 16.7734 26.853 16.809 26.9863 16.6578C27.0734 16.5561 27.1398 16.4383 27.1819 16.3112C27.2708 16.089 27.333 15.8578 27.4219 15.6267C27.4634 15.534 27.5172 15.4473 27.5819 15.369C27.5819 15.3245 27.6886 15.289 27.7419 15.2445" fill="#80993D"/>
<path d="M19.671 16.3289C19.671 16.1778 19.5821 16.1244 19.4577 16.1778C19.3902 16.2108 19.3341 16.263 19.2961 16.3279C19.2582 16.3927 19.2402 16.4672 19.2443 16.5422C19.2447 16.5732 19.2521 16.6037 19.2659 16.6314C19.2798 16.6591 19.2998 16.6833 19.3243 16.7022C19.3509 16.7142 19.3797 16.7205 19.4088 16.7205C19.4379 16.7205 19.4667 16.7142 19.4932 16.7022C19.544 16.6607 19.5859 16.6094 19.6165 16.5514C19.647 16.4934 19.6655 16.4298 19.671 16.3644M19.7155 16.2044L19.8221 16.16L19.7421 16.4267L19.6621 16.7022L19.831 16.6133C19.8241 16.6482 19.8073 16.6804 19.7827 16.706C19.7581 16.7317 19.7266 16.7498 19.6921 16.7582C19.6575 16.7666 19.6213 16.7649 19.5876 16.7535C19.554 16.742 19.5243 16.7211 19.5021 16.6933C19.4323 16.7181 19.361 16.7389 19.2888 16.7555C19.2585 16.7623 19.2271 16.7621 19.1969 16.7549C19.1667 16.7477 19.1385 16.7337 19.1145 16.714C19.0905 16.6943 19.0713 16.6694 19.0584 16.6411C19.0455 16.6129 19.0392 16.5821 19.0399 16.5511C19.0362 16.4921 19.0448 16.433 19.0651 16.3775C19.0855 16.322 19.1171 16.2713 19.1581 16.2287C19.199 16.1861 19.2484 16.1524 19.303 16.1299C19.3576 16.1074 19.4164 16.0964 19.4755 16.0978C19.5351 16.1081 19.5923 16.1292 19.6443 16.16" fill="#80993D"/>
<path d="M23.1911 16.5511C23.1911 16.6045 23.2444 16.6756 23.2888 16.7023C23.3045 16.7116 23.3218 16.7176 23.3399 16.7199C23.3579 16.7223 23.3762 16.7209 23.3937 16.7159C23.4112 16.7109 23.4274 16.7024 23.4415 16.6909C23.4556 16.6794 23.4672 16.6651 23.4755 16.6489C23.5393 16.5541 23.5929 16.4528 23.6355 16.3467C23.6355 16.3023 23.6355 16.2134 23.5911 16.1956C23.5633 16.1822 23.533 16.1753 23.5022 16.1753C23.4714 16.1753 23.441 16.1822 23.4133 16.1956C23.3502 16.2346 23.2971 16.2879 23.2585 16.3512C23.2199 16.4145 23.1968 16.4861 23.1911 16.56M23.6799 16.1867H23.7688C23.7688 16.1867 23.7688 16.2489 23.7688 16.2756L23.6622 16.6045V16.7467C23.7688 16.7467 23.8044 16.6934 23.8755 16.6578C23.8662 16.6944 23.847 16.7276 23.8199 16.7539C23.7929 16.7802 23.7591 16.7986 23.7223 16.8068C23.6854 16.8151 23.6471 16.8131 23.6114 16.8009C23.5757 16.7887 23.544 16.7669 23.5199 16.7378C23.4823 16.7655 23.4402 16.7866 23.3955 16.8C23.3609 16.819 23.322 16.8284 23.2826 16.8273C23.2432 16.8263 23.2048 16.8147 23.1713 16.7939C23.1378 16.7731 23.1105 16.7438 23.0921 16.7089C23.0737 16.6741 23.0649 16.635 23.0666 16.5956C23.0655 16.4901 23.1028 16.3878 23.1714 16.3077C23.2401 16.2276 23.3355 16.1751 23.4399 16.16C23.516 16.1619 23.5912 16.1769 23.6622 16.2045" fill="#80993D"/>
<path d="M24.1686 16.3912C24.2182 16.3338 24.2749 16.283 24.3374 16.2401C24.3932 16.1942 24.4563 16.1582 24.5241 16.1334C24.6219 16.1334 24.6841 16.1334 24.6752 16.2579C24.6663 16.3823 24.6219 16.4445 24.5952 16.5423C24.5762 16.6004 24.5613 16.6598 24.5508 16.7201L24.7286 16.6578C24.7091 16.7003 24.6751 16.7344 24.6327 16.7539C24.5903 16.7735 24.5424 16.7772 24.4974 16.7645C24.4974 16.7645 24.4352 16.6845 24.4441 16.6578C24.4643 16.5546 24.4941 16.4534 24.533 16.3556C24.533 16.3556 24.533 16.2756 24.533 16.2223C24.5011 16.2099 24.4661 16.2075 24.4327 16.2154C24.3994 16.2234 24.3693 16.2413 24.3463 16.2667C24.2486 16.4001 24.1419 16.5334 24.053 16.6667C23.9641 16.8001 23.9819 16.7645 23.893 16.729C23.8892 16.6935 23.8892 16.6577 23.893 16.6223L24.0263 16.2045C24.0263 16.1512 24.0797 16.1067 24.1686 16.1423L24.1063 16.3912" fill="#80993D"/>
<path d="M14.4709 16.3379C14.4745 16.3074 14.4693 16.2765 14.4558 16.2489C14.4424 16.2213 14.4213 16.1982 14.395 16.1823C14.3688 16.1664 14.3385 16.1583 14.3079 16.1591C14.2772 16.1599 14.2474 16.1695 14.222 16.1868C14.1559 16.2286 14.1031 16.2885 14.0701 16.3594C14.037 16.4303 14.0249 16.5092 14.0353 16.5868C14.0359 16.6106 14.0425 16.6339 14.0544 16.6545C14.0663 16.6751 14.0832 16.6924 14.1036 16.7048C14.1239 16.7172 14.1471 16.7243 14.1709 16.7254C14.1947 16.7265 14.2184 16.7216 14.2398 16.7112C14.312 16.6803 14.3729 16.6278 14.4143 16.561C14.4556 16.4942 14.4754 16.4163 14.4709 16.3379ZM13.8931 16.4801C13.9004 16.4211 13.9199 16.3643 13.9504 16.3133C13.9809 16.2622 14.0218 16.2182 14.0703 16.1839C14.1188 16.1495 14.174 16.1257 14.2323 16.114C14.2905 16.1023 14.3506 16.1028 14.4087 16.1156C14.4437 16.1249 14.4766 16.1411 14.5054 16.1631C14.5342 16.1851 14.5584 16.2126 14.5766 16.2439C14.5947 16.2753 14.6065 16.31 14.6113 16.3459C14.616 16.3819 14.6136 16.4184 14.6042 16.4534C14.5707 16.5516 14.5052 16.6357 14.4181 16.6921C14.3311 16.7486 14.2275 16.7741 14.1242 16.7645C14.0903 16.7612 14.0574 16.7512 14.0274 16.7351C13.9973 16.7189 13.9708 16.697 13.9493 16.6705C13.9278 16.6441 13.9118 16.6136 13.9021 16.5809C13.8925 16.5483 13.8894 16.514 13.8931 16.4801Z" fill="#80993D"/>
<path d="M13.9819 15.3956L13.9108 15.609C13.8041 15.9112 13.6885 16.2045 13.5819 16.4979C13.5819 16.5601 13.5019 16.6401 13.5819 16.6845C13.6619 16.729 13.6885 16.6401 13.7508 16.6134C13.7288 16.6706 13.6873 16.7181 13.6335 16.7474C13.5798 16.7767 13.5174 16.7859 13.4574 16.7734C13.4319 16.7634 13.4112 16.744 13.3997 16.7192C13.3881 16.6944 13.3865 16.666 13.3952 16.6401L13.4752 16.4001C13.5908 16.089 13.6974 15.7867 13.813 15.5112C13.813 15.4579 13.813 15.3956 13.9552 15.4312" fill="#80993D"/>
<path d="M19.0488 15.68L18.9332 16.0978L19.0488 16.1422C18.9066 16.1422 18.8799 16.2489 18.8532 16.3556C18.8243 16.4369 18.8005 16.5201 18.7821 16.6045C18.7821 16.6756 18.7821 16.7111 18.871 16.6756C18.9212 16.6542 18.9689 16.6274 19.0132 16.5956C18.993 16.6364 18.9629 16.6717 18.9256 16.698C18.8884 16.7244 18.8452 16.7411 18.7999 16.7467C18.6932 16.7467 18.6399 16.7467 18.6577 16.6045C18.67 16.5254 18.6909 16.4479 18.7199 16.3733L18.7732 16.1867L18.6666 16.16C18.8266 16.16 18.8354 16.0178 18.871 15.9111C18.8834 15.859 18.9012 15.8083 18.9243 15.76C18.9523 15.7231 18.9852 15.6902 19.0221 15.6622" fill="#80993D"/>
<path d="M22.0529 16.4623C22.1167 16.4792 22.1845 16.4733 22.2445 16.4458C22.3045 16.4182 22.353 16.3706 22.3818 16.3112C22.3906 16.2916 22.3952 16.2704 22.3952 16.2489C22.3952 16.2275 22.3906 16.2063 22.3818 16.1867C22.3476 16.1729 22.3093 16.1729 22.2751 16.1867C22.2126 16.2059 22.158 16.2449 22.1196 16.2978C22.0811 16.3507 22.0608 16.4147 22.0618 16.48M22.4707 16.6578C22.4234 16.7128 22.3618 16.7535 22.2928 16.7755C22.2237 16.7974 22.1499 16.7998 22.0796 16.7823C22.0166 16.7618 21.9635 16.7185 21.9306 16.661C21.8978 16.6035 21.8875 16.5358 21.9018 16.4712C21.9252 16.3722 21.9806 16.2838 22.0593 16.2195C22.138 16.1553 22.2358 16.1187 22.3374 16.1156C22.4262 16.1156 22.4885 16.1156 22.5151 16.2312C22.5278 16.2679 22.5267 16.308 22.512 16.344C22.4973 16.38 22.4699 16.4094 22.4351 16.4267C22.3424 16.4676 22.2474 16.5033 22.1507 16.5334L22.044 16.5778C22.044 16.6312 22.0885 16.6934 22.1329 16.72C22.1774 16.7467 22.3018 16.72 22.3818 16.72L22.4618 16.6667" fill="#80993D"/>
<path d="M15.6529 16.4622C15.7201 16.4803 15.7916 16.473 15.8539 16.4419C15.9161 16.4108 15.9648 16.3579 15.9907 16.2933C15.9907 16.2044 15.9907 16.1422 15.884 16.16C15.8167 16.1763 15.757 16.2152 15.7149 16.2702C15.6729 16.3252 15.651 16.393 15.6529 16.4622ZM16.0529 16.6311C16.0028 16.7005 15.9287 16.7489 15.845 16.767C15.7613 16.785 15.6739 16.7715 15.5996 16.7289C15.5641 16.7064 15.5354 16.6746 15.5166 16.637C15.4978 16.5995 15.4896 16.5575 15.4929 16.5156C15.5013 16.406 15.5493 16.3033 15.6277 16.2265C15.7062 16.1497 15.8099 16.1039 15.9196 16.0978C16.0085 16.0978 16.0796 16.0978 16.1062 16.2222C16.1178 16.2611 16.1141 16.303 16.096 16.3393C16.0778 16.3756 16.0465 16.4037 16.0085 16.4178C15.9405 16.4522 15.8689 16.479 15.7951 16.4978H15.644C15.6307 16.5276 15.6288 16.5612 15.6386 16.5924C15.6484 16.6235 15.6693 16.6499 15.6973 16.6667C15.8307 16.7467 15.9373 16.6667 16.0529 16.6044" fill="#80993D"/>
<path d="M22.5332 16.72L22.7199 16.1778C22.7199 16.1778 22.7821 16.1333 22.8176 16.1156V16.2311C22.8976 16.1778 22.951 16.0711 23.1021 16.1156C23.1021 16.1156 23.0399 16.1956 23.0132 16.2044C22.9491 16.2285 22.8911 16.2665 22.8434 16.3157C22.7958 16.3649 22.7596 16.424 22.7376 16.4889C22.7164 16.5448 22.6896 16.5984 22.6576 16.6489C22.6576 16.6489 22.5954 16.7022 22.5599 16.7289" fill="#80993D"/>
<path d="M18.4353 16.1156C18.4353 16.1867 18.4353 16.2312 18.4353 16.2756C18.4353 16.32 18.3642 16.48 18.3375 16.5867C18.3291 16.6248 18.3291 16.6642 18.3375 16.7023H18.462L18.5509 16.6223C18.5344 16.6779 18.4982 16.7257 18.4492 16.7567C18.4002 16.7878 18.3416 16.8 18.2842 16.7912C18.2442 16.7741 18.2124 16.7422 18.1953 16.7023C18.2486 16.5245 18.3109 16.3467 18.3642 16.1778C18.3642 16.1778 18.3642 16.1778 18.4442 16.1778" fill="#80993D"/>
<path d="M18.6042 15.7867L18.4976 15.8667C18.4976 15.8667 18.4976 15.8223 18.4976 15.8045C18.5101 15.7723 18.5317 15.7446 18.5598 15.7245L18.6487 15.7867" fill="#80993D"/>
<path fill-rule="evenodd" clip-rule="evenodd" d="M4.67525 14.2933L4.86192 14.4711L5.99081 14.5867C6.04565 14.6546 6.07555 14.7393 6.07555 14.8267C6.07555 14.914 6.04565 14.9987 5.99081 15.0667C5.78636 15.3156 5.99081 15.4222 5.99081 15.4222L6.42636 15.5022C6.42636 15.5022 6.42636 16.2933 5.2797 16.3111L5.56414 16.6133C5.56414 16.6133 5.79525 16.9067 5.73303 17.1378C5.67081 17.3689 5.67081 17.4844 5.16414 17.4489L4.80859 17.52C4.77355 17.6073 4.71677 17.6841 4.64364 17.7432C4.57052 17.8024 4.48348 17.8418 4.39081 17.8578C4.06192 17.9111 3.50192 17.1644 3.50192 17.1644C3.50192 17.1644 3.42192 17.3244 3.06636 17.1644C2.71081 17.0044 3.36859 16.08 3.36859 16.08L3.63525 15.3244L4.08859 15.1911C4.08859 15.1911 4.17748 15.4044 4.08859 15.4844C3.9997 15.5644 3.99081 15.5378 4.08859 15.6444C4.18636 15.7511 4.08859 15.8311 4.2397 15.8311C4.39081 15.8311 5.01303 15.5289 5.00414 15.2533C5.01449 15.0389 4.95525 14.8269 4.83525 14.6489C4.7197 14.4889 4.58636 14.8089 4.55081 14.6933C4.51525 14.5778 4.46192 14.4 4.55081 14.3644C4.58778 14.3336 4.62991 14.3095 4.67525 14.2933Z" fill="#010302"/>
<path d="M4.55086 14.3379C4.59231 14.3134 4.63728 14.2954 4.68419 14.2845L4.87086 14.4623L5.99975 14.569C6.05165 14.6348 6.07988 14.7163 6.07988 14.8001C6.07988 14.8638 6.06357 14.9262 6.03294 14.9813C6.01834 15.0282 5.99515 15.0723 5.96419 15.1112C5.9481 15.1376 5.93744 15.1669 5.93286 15.1974C5.92828 15.2279 5.92987 15.2591 5.93752 15.289C5.9469 15.3132 5.96123 15.3352 5.9796 15.3536C5.99797 15.3719 6.01997 15.3863 6.04419 15.3957L6.47975 15.4757C6.46053 15.676 6.36888 15.8625 6.22197 16.0001C5.98557 16.2078 5.6817 16.3215 5.36783 16.3207L5.58089 16.5404L5.65308 16.6045C5.71132 16.6776 5.75919 16.7584 5.7953 16.8445C5.82591 16.9399 5.82591 17.0425 5.7953 17.1379C5.76863 17.2623 5.74197 17.3512 5.67086 17.4045C5.59975 17.4579 5.4753 17.4579 5.21753 17.4579H5.21752L4.87086 17.529C4.83432 17.6169 4.77597 17.6941 4.70131 17.7532C4.62665 17.8123 4.53816 17.8514 4.44419 17.8668C4.33728 17.8753 4.23067 17.8471 4.14197 17.7868C3.9393 17.6255 3.75983 17.4371 3.60863 17.2268C3.57308 17.289 3.46641 17.3779 3.16419 17.2268C3.12543 17.2021 3.10203 17.1677 3.08791 17.1262C3.02655 17.0675 3.01874 16.973 3.04863 16.8534C3.13853 16.5799 3.27048 16.322 3.43975 16.089L3.70641 15.3334L4.15086 15.209C4.15193 15.2211 4.15279 15.2332 4.15342 15.2454L4.18641 15.2357C4.20894 15.2995 4.22676 15.3648 4.23975 15.4312C4.24462 15.4636 4.24462 15.4966 4.23975 15.529C4.22635 15.5531 4.20821 15.5743 4.18641 15.5912C4.18114 15.6116 4.18114 15.633 4.18641 15.6534C4.19384 15.6916 4.19384 15.7308 4.18641 15.769H4.20419C4.40266 15.7319 4.58891 15.6464 4.74641 15.5201C4.86197 15.4223 4.95086 15.3157 4.95086 15.209C4.95953 14.9988 4.90369 14.791 4.79086 14.6134C4.78252 14.6095 4.77341 14.6074 4.76419 14.6074C4.75497 14.6074 4.74586 14.6095 4.73752 14.6134C4.72783 14.6087 4.71719 14.6063 4.70641 14.6063C4.69563 14.6063 4.68499 14.6087 4.6753 14.6134L4.60419 14.6757C4.57875 14.5885 4.5609 14.4993 4.55086 14.409V14.3379Z" fill="#566C51"/>
<path fill-rule="evenodd" clip-rule="evenodd" d="M4.44434 16.5422C4.44434 16.5422 4.58656 17.84 5.33322 17.6533C6.07989 17.4667 5.60878 16.6045 5.60878 16.6045L4.44434 16.5422Z" fill="url(#paint0_linear_2707_339083)"/>
<path fill-rule="evenodd" clip-rule="evenodd" d="M2.87957 17.2178C2.87957 17.2178 2.64846 17.0667 2.87957 16.6045C3.11068 16.1423 3.39513 16.1245 3.39513 16.1245C3.39513 16.1245 3.83068 16.0712 3.59957 16.5067C3.36846 16.9423 3.30624 17.2178 2.87957 17.2178Z" fill="url(#paint1_linear_2707_339083)"/>
<path fill-rule="evenodd" clip-rule="evenodd" d="M4.49756 15.5645C4.49756 15.5645 4.622 14.32 5.29756 14.1512C5.43984 14.1197 5.58874 14.1423 5.71526 14.2146C5.84178 14.2869 5.93687 14.4037 5.982 14.5423C5.982 14.5423 6.222 15.0312 4.49756 15.5645Z" fill="url(#paint2_linear_2707_339083)"/>
<path fill-rule="evenodd" clip-rule="evenodd" d="M4.31086 15.2267C4.32534 15.3299 4.32534 15.4346 4.31086 15.5378C4.31086 15.6445 4.23975 15.7956 4.2042 15.7956C4.16864 15.7956 3.93753 15.5911 3.99086 15.4489C4.0442 15.3067 4.31086 15.2267 4.31086 15.2267Z" fill="#6FB751"/>
<path fill-rule="evenodd" clip-rule="evenodd" d="M3.19112 15.3244C3.19112 15.3244 3.09335 14.8 3.45779 14.6222C3.82223 14.4444 4.06223 14.5511 4.24001 15.2889C4.41779 16.0267 3.55557 15.4222 3.19112 15.3244Z" fill="url(#paint3_linear_2707_339083)"/>
<path fill-rule="evenodd" clip-rule="evenodd" d="M3.96412 15.1912C3.96412 15.1912 3.81301 14.1956 4.52413 14.0267C4.74635 14.0267 4.68413 14.4001 4.57746 14.6578C4.48816 14.8705 4.35834 15.0637 4.19524 15.2267L3.96412 15.1912Z" fill="url(#paint4_linear_2707_339083)"/>
<path fill-rule="evenodd" clip-rule="evenodd" d="M4.44434 15.7956C4.44434 15.7956 5.53767 14.8445 6.09767 15.0578C6.65767 15.2711 6.43545 15.7334 6.17767 15.8845C5.91262 16.0436 5.60618 16.1201 5.29745 16.1042C4.98873 16.0884 4.69172 15.9809 4.44434 15.7956Z" fill="url(#paint5_linear_2707_339083)"/>
<path fill-rule="evenodd" clip-rule="evenodd" d="M4.19525 16C3.97356 16.1757 3.79559 16.4003 3.6753 16.6564C3.55501 16.9124 3.49566 17.1928 3.50191 17.4756C3.50645 17.5827 3.54215 17.6862 3.60464 17.7734C3.66713 17.8605 3.7537 17.9275 3.85372 17.9662C3.95374 18.0049 4.06288 18.0136 4.16775 17.9912C4.27262 17.9687 4.36868 17.9162 4.44413 17.84C4.85302 17.44 4.37302 16.32 4.19525 16Z" fill="url(#paint6_linear_2707_339083)"/>
<path fill-rule="evenodd" clip-rule="evenodd" d="M2.66666 16.0978C2.66666 16.0978 2.53332 15.4045 3.24443 15.5022C3.55878 15.5129 3.86501 15.6048 4.13332 15.7689C3.78557 16.0761 3.36208 16.2847 2.90666 16.3734C2.76443 16.3734 2.66666 16.0978 2.66666 16.0978Z" fill="url(#paint7_linear_2707_339083)"/>
<path fill-rule="evenodd" clip-rule="evenodd" d="M4.28406 15.7867C4.28406 15.7867 4.00851 15.1023 3.73295 15.049C3.4574 14.9956 3.78629 15.6267 4.28406 15.7867Z" fill="url(#paint8_linear_2707_339083)"/>
<path fill-rule="evenodd" clip-rule="evenodd" d="M3.95557 15.6533C4.05713 15.696 4.15521 15.7465 4.2489 15.8044C4.15521 15.7465 4.05713 15.696 3.95557 15.6533Z" fill="#566C51"/>
<path fill-rule="evenodd" clip-rule="evenodd" d="M4.10645 15.4579L4.27533 15.8045L4.10645 15.449C4.10645 15.449 4.10645 15.449 4.10645 15.4579Z" fill="#566C51"/>
<path fill-rule="evenodd" clip-rule="evenodd" d="M2.99512 15.76C3.03422 15.8388 3.08913 15.9086 3.15642 15.9652C3.22371 16.0218 3.30194 16.0639 3.38623 16.0889C4.19512 16.2756 4.27512 15.7867 4.27512 15.7867L2.99512 15.76Z" fill="url(#paint9_linear_2707_339083)"/>
<path fill-rule="evenodd" clip-rule="evenodd" d="M3.41306 16.4889C3.41306 16.4889 3.18195 16.88 3.26195 17.0756C3.26195 17.0756 3.51084 16.9511 3.63528 16.4356C3.75973 15.92 3.41306 16.4889 3.41306 16.4889Z" fill="url(#paint10_linear_2707_339083)"/>
<path fill-rule="evenodd" clip-rule="evenodd" d="M3.55518 17.1379C3.55518 17.1379 3.55518 17.4134 3.79518 17.3601C4.00193 17.23 4.15679 17.0319 4.23306 16.7998C4.30933 16.5678 4.30222 16.3164 4.21295 16.089C4.03808 16.2102 3.88962 16.3657 3.77656 16.546C3.66349 16.7263 3.58818 16.9276 3.55518 17.1379Z" fill="url(#paint11_linear_2707_339083)"/>
<path fill-rule="evenodd" clip-rule="evenodd" d="M5.39524 16.3645L4.50635 16.5067C4.50635 16.5067 5.08413 17.2623 5.57301 16.8712C5.7419 16.7556 5.39524 16.3645 5.39524 16.3645Z" fill="url(#paint12_linear_2707_339083)"/>
<path fill-rule="evenodd" clip-rule="evenodd" d="M4.97736 15.6356C4.97736 15.6356 5.86625 15.5911 5.9907 15.9644C5.82623 16.0661 5.64126 16.13 5.44912 16.1515C5.25698 16.173 5.06246 16.1516 4.87958 16.0889C4.12403 15.9022 4.97736 15.6356 4.97736 15.6356Z" fill="url(#paint13_linear_2707_339083)"/>
<path fill-rule="evenodd" clip-rule="evenodd" d="M4.44434 15.8578C4.44434 15.8578 4.44434 14.7112 5.02211 14.56C5.59989 14.4089 5.03989 15.5912 4.44434 15.8578Z" fill="url(#paint14_linear_2707_339083)"/>
<path fill-rule="evenodd" clip-rule="evenodd" d="M3.19107 15.3245C3.19107 15.3245 2.79995 15.5289 2.86218 15.76C2.9244 15.9911 3.75107 15.76 3.99995 15.6356" fill="url(#paint15_linear_2707_339083)"/>
<path fill-rule="evenodd" clip-rule="evenodd" d="M3.99969 15.6355C3.97403 15.3198 3.83138 15.025 3.59969 14.8089C3.32413 14.5867 3.12858 15.0755 3.1908 15.3244C3.1908 15.3244 3.80413 15.5467 3.99969 15.6355Z" fill="url(#paint16_linear_2707_339083)"/>
<path fill-rule="evenodd" clip-rule="evenodd" d="M3.43966 16.7112C3.42087 16.7787 3.37783 16.8369 3.31877 16.8746C3.25972 16.9123 3.18882 16.9269 3.11966 16.9156C2.87077 16.8712 2.99522 16.2756 3.29744 16.0267C3.49144 15.8567 3.74172 15.7648 3.99966 15.7689" fill="url(#paint17_linear_2707_339083)"/>
<path fill-rule="evenodd" clip-rule="evenodd" d="M3.9997 15.76C4.01177 16.1183 3.97892 16.4766 3.90192 16.8267C3.78637 17.1378 3.63526 17.2267 3.51081 17.1645C3.38637 17.1022 3.41304 16.7556 3.45748 16.6578C3.58063 16.3273 3.76454 16.0228 3.9997 15.76Z" fill="url(#paint18_linear_2707_339083)"/>
<path fill-rule="evenodd" clip-rule="evenodd" d="M4.23975 15.7156C4.33847 15.5727 4.47171 15.4569 4.62711 15.3792C4.78251 15.3015 4.95503 15.2644 5.12863 15.2712C5.68863 15.2712 5.92864 15.6978 5.84863 15.929C5.76863 16.1601 5.21752 16.089 5.21752 16.089L4.23975 15.7156Z" fill="url(#paint19_linear_2707_339083)"/>
<path fill-rule="evenodd" clip-rule="evenodd" d="M5.17326 16.0889C5.17326 16.0889 5.58215 16.3289 5.50215 16.6134C5.42215 16.8978 4.8266 16.9422 4.44438 16.5334C4.33577 16.4308 4.2588 16.2993 4.22257 16.1544C4.18634 16.0094 4.19237 15.8572 4.23993 15.7156" fill="url(#paint20_linear_2707_339083)"/>
<path fill-rule="evenodd" clip-rule="evenodd" d="M4.57756 14.4889C4.69248 14.423 4.81941 14.3807 4.95089 14.3645C5.11089 14.3645 4.95089 14.7734 4.61311 15.1023C4.48006 15.2756 4.30593 15.4131 4.10645 15.5023C4.10645 15.5023 4.33756 14.5956 4.57756 14.4889Z" fill="url(#paint21_linear_2707_339083)"/>
<path fill-rule="evenodd" clip-rule="evenodd" d="M4.10667 15.5022C4.10667 15.5022 3.67111 14.7556 4.10667 14.4267C4.54222 14.0978 4.61333 14.4889 4.61333 14.4889C4.41502 14.8111 4.24548 15.1502 4.10667 15.5022Z" fill="url(#paint22_linear_2707_339083)"/>
</g>
<defs>
<linearGradient id="paint0_linear_2707_339083" x1="4.31074" y1="17.2004" x2="4.94185" y2="17.3781" gradientUnits="userSpaceOnUse">
<stop stop-color="#EF8469"/>
<stop offset="1" stop-color="#F7A172"/>
</linearGradient>
<linearGradient id="paint1_linear_2707_339083" x1="4.90571" y1="19.8187" x2="5.21682" y2="19.6232" gradientUnits="userSpaceOnUse">
<stop stop-color="#EF8469"/>
<stop offset="1" stop-color="#F7A172"/>
</linearGradient>
<linearGradient id="paint2_linear_2707_339083" x1="6.306" y1="14.4685" x2="7.21267" y2="14.0329" gradientUnits="userSpaceOnUse">
<stop stop-color="#EF8469"/>
<stop offset="1" stop-color="#F7A172"/>
</linearGradient>
<linearGradient id="paint3_linear_2707_339083" x1="4.58579" y1="16.5857" x2="5.09246" y2="16.4079" gradientUnits="userSpaceOnUse">
<stop stop-color="#EF8469"/>
<stop offset="1" stop-color="#F7A172"/>
</linearGradient>
<linearGradient id="paint4_linear_2707_339083" x1="4.9195" y1="19.1445" x2="5.08839" y2="19.1978" gradientUnits="userSpaceOnUse">
<stop stop-color="#82C255"/>
<stop offset="1" stop-color="#48A048"/>
</linearGradient>
<linearGradient id="paint5_linear_2707_339083" x1="6.40042" y1="15.7566" x2="5.98265" y2="15.8544" gradientUnits="userSpaceOnUse">
<stop stop-color="#82C255"/>
<stop offset="1" stop-color="#48A048"/>
</linearGradient>
<linearGradient id="paint6_linear_2707_339083" x1="4.5732" y1="15.4162" x2="3.7732" y2="15.3628" gradientUnits="userSpaceOnUse">
<stop stop-color="#82C255"/>
<stop offset="1" stop-color="#48A048"/>
</linearGradient>
<linearGradient id="paint7_linear_2707_339083" x1="3.33652" y1="14.6039" x2="2.92763" y2="14.6839" gradientUnits="userSpaceOnUse">
<stop stop-color="#82C255"/>
<stop offset="1" stop-color="#48A048"/>
</linearGradient>
<linearGradient id="paint8_linear_2707_339083" x1="4.58549" y1="15.1779" x2="4.40771" y2="15.809" gradientUnits="userSpaceOnUse">
<stop stop-color="#629E7C"/>
<stop offset="1" stop-color="#447869"/>
</linearGradient>
<linearGradient id="paint9_linear_2707_339083" x1="4.37716" y1="15.1191" x2="4.19938" y2="15.7502" gradientUnits="userSpaceOnUse">
<stop stop-color="#629E7C"/>
<stop offset="1" stop-color="#447869"/>
</linearGradient>
<linearGradient id="paint10_linear_2707_339083" x1="4.42782" y1="15.1333" x2="4.25004" y2="15.7645" gradientUnits="userSpaceOnUse">
<stop stop-color="#629E7C"/>
<stop offset="1" stop-color="#447869"/>
</linearGradient>
<linearGradient id="paint11_linear_2707_339083" x1="4.94522" y1="15.2792" x2="4.76744" y2="15.9103" gradientUnits="userSpaceOnUse">
<stop stop-color="#629E7C"/>
<stop offset="1" stop-color="#447869"/>
</linearGradient>
<linearGradient id="paint12_linear_2707_339083" x1="5.93613" y1="15.5583" x2="5.75835" y2="16.1894" gradientUnits="userSpaceOnUse">
<stop stop-color="#629E7C"/>
<stop offset="1" stop-color="#447869"/>
</linearGradient>
<linearGradient id="paint13_linear_2707_339083" x1="5.92972" y1="15.5564" x2="5.75194" y2="16.1876" gradientUnits="userSpaceOnUse">
<stop stop-color="#629E7C"/>
<stop offset="1" stop-color="#447869"/>
</linearGradient>
<linearGradient id="paint14_linear_2707_339083" x1="5.31785" y1="15.384" x2="5.14007" y2="16.0152" gradientUnits="userSpaceOnUse">
<stop stop-color="#629E7C"/>
<stop offset="1" stop-color="#447869"/>
</linearGradient>
<linearGradient id="paint15_linear_2707_339083" x1="5.80955" y1="14.6754" x2="5.36511" y2="14.7821" gradientUnits="userSpaceOnUse">
<stop stop-color="#EB6242"/>
<stop offset="1" stop-color="#C4502E"/>
</linearGradient>
<linearGradient id="paint16_linear_2707_339083" x1="5.85906" y1="13.9515" x2="5.38795" y2="13.6849" gradientUnits="userSpaceOnUse">
<stop stop-color="#FBCC3E"/>
<stop offset="1" stop-color="#F3B11F"/>
</linearGradient>
<linearGradient id="paint17_linear_2707_339083" x1="4.01139" y1="17.0962" x2="3.44251" y2="17.6829" gradientUnits="userSpaceOnUse">
<stop stop-color="#FBCC3E"/>
<stop offset="1" stop-color="#F3B11F"/>
</linearGradient>
<linearGradient id="paint18_linear_2707_339083" x1="1.5389" y1="17.0155" x2="1.19224" y2="17.0599" gradientUnits="userSpaceOnUse">
<stop stop-color="#EB6242"/>
<stop offset="1" stop-color="#C4502E"/>
</linearGradient>
<linearGradient id="paint19_linear_2707_339083" x1="6.94623" y1="16.5546" x2="6.05735" y2="16.5723" gradientUnits="userSpaceOnUse">
<stop stop-color="#EB6242"/>
<stop offset="1" stop-color="#C4502E"/>
</linearGradient>
<linearGradient id="paint20_linear_2707_339083" x1="5.52295" y1="14.3918" x2="4.82962" y2="13.7784" gradientUnits="userSpaceOnUse">
<stop stop-color="#FBCC3E"/>
<stop offset="1" stop-color="#F3B11F"/>
</linearGradient>
<linearGradient id="paint21_linear_2707_339083" x1="4.48662" y1="15.6334" x2="4.06885" y2="16.2734" gradientUnits="userSpaceOnUse">
<stop stop-color="#FBCC3E"/>
<stop offset="1" stop-color="#F3B11F"/>
</linearGradient>
<linearGradient id="paint22_linear_2707_339083" x1="5.76" y1="14.24" x2="5.43111" y2="14.3644" gradientUnits="userSpaceOnUse">
<stop stop-color="#EB6242"/>
<stop offset="1" stop-color="#C4502E"/>
</linearGradient>
<clipPath id="clip0_2707_339083">
<rect width="32" height="32" fill="white"/>
</clipPath>
</defs>
</svg>
