<svg width="32" height="32" viewBox="0 0 32 32" fill="none" xmlns="http://www.w3.org/2000/svg">
<g clip-path="url(#clip0_2707_339033)">
<path d="M15.9998 31.9822C24.8265 31.9822 31.982 24.8267 31.982 16C31.982 7.17325 24.8265 0.0177612 15.9998 0.0177612C7.17306 0.0177612 0.0175781 7.17325 0.0175781 16C0.0175781 24.8267 7.17306 31.9822 15.9998 31.9822Z" fill="white"/>
<path d="M23.7331 11.8488L22.9331 11.8933H18.4887V21.0044C18.4887 21.3599 18.4887 21.7155 18.4887 22.0711V23.1555H15.422V21.2444C15.2087 21.4222 15.0931 21.5199 14.9687 21.6088C14.0137 22.3722 12.8807 22.8809 11.6756 23.0871C10.4706 23.2934 9.23285 23.1906 8.07834 22.7883C6.92383 22.386 5.89026 21.6974 5.07435 20.7869C4.25845 19.8763 3.68687 18.7737 3.41313 17.5822C3.32838 17.2343 3.26896 16.8808 3.23535 16.5244C3.23535 16.0977 3.32424 15.0399 3.32424 15.0399C3.5419 13.3119 4.38616 11.7239 5.69691 10.577C7.00765 9.43006 8.69373 8.80407 10.4354 8.81772C10.4354 9.82217 10.4354 10.8355 10.4354 11.8399C10.3731 11.8399 10.3198 11.8399 10.2576 11.8399C9.69396 11.8504 9.13847 11.9763 8.62541 12.2098C8.11235 12.4434 7.65261 12.7796 7.27457 13.1977C6.89654 13.6159 6.60823 14.1071 6.42746 14.6411C6.24669 15.175 6.1773 15.7403 6.22356 16.3021C6.26982 16.864 6.43075 17.4103 6.69642 17.9075C6.96209 18.4047 7.32686 18.8421 7.76821 19.1928C8.20955 19.5435 8.7181 19.8 9.26245 19.9465C9.8068 20.0929 10.3754 20.1263 10.9331 20.0444C11.7662 19.964 12.5484 19.6073 13.1554 19.0311V18.8977H10.462V15.9111H15.3598V11.8933L14.6665 11.8488L15.5554 10.9066C14.8568 10.18 13.9986 9.62609 13.0487 9.28883C12.5509 9.10217 12.0354 8.97772 11.5287 8.81772H22.5509H23.7331V11.8488Z" fill="#394169"/>
<path d="M18.4976 21.0044V11.8933H22.942L22.4442 12.0711C21.545 12.3961 20.7866 13.0234 20.2987 13.8458C19.8109 14.6682 19.624 15.6345 19.7699 16.5795C19.9159 17.5245 20.3856 18.3894 21.0988 19.0263C21.812 19.6632 22.7244 20.0325 23.6798 20.0711C24.7604 20.0861 25.8062 19.6888 26.6042 18.96L28.7553 21.1022C28.1733 21.732 27.4603 22.2266 26.6664 22.5511C25.3696 23.1512 23.922 23.3466 22.5125 23.1119C21.1029 22.8773 19.7967 22.2234 18.7642 21.2355L18.4976 21.0044Z" fill="#F69520"/>
<path d="M23.7329 11.8489V8.82667C24.6502 8.81438 25.5609 8.98401 26.4122 9.32577C27.2636 9.66753 28.0387 10.1746 28.6929 10.8178L26.5418 12.96C25.7759 12.2537 24.7747 11.8577 23.7329 11.8489Z" fill="#F69520"/>
<path d="M10.4888 11.8489C10.4888 10.8444 10.4888 9.83999 10.4888 8.82666H11.5554C12.0621 8.98666 12.5777 9.1111 13.0754 9.29777C14.0237 9.63391 14.8816 10.1845 15.5821 10.9067L14.6932 11.8489L14.5688 11.8933H11.1465L10.4888 11.8489Z" fill="#F69520"/>
<path d="M14.5419 11.8933L13.3331 13.0044C12.7234 12.4405 11.9697 12.0559 11.1553 11.8933H14.5419Z" fill="#394169"/>
</g>
<defs>
<clipPath id="clip0_2707_339033">
<rect width="32" height="32" fill="white"/>
</clipPath>
</defs>
</svg>
