<svg width="32" height="32" viewBox="0 0 32 32" fill="none" xmlns="http://www.w3.org/2000/svg">
<g clip-path="url(#clip0_2737_121301)">
<mask id="mask0_2737_121301" style="mask-type:luminance" maskUnits="userSpaceOnUse" x="0" y="0" width="32" height="32">
<path d="M31.9909 0.0177612H0.0175781V31.9911H31.9909V0.0177612Z" fill="white"/>
</mask>
<g mask="url(#mask0_2737_121301)">
<path d="M15.9998 31.9822C24.8265 31.9822 31.982 24.8267 31.982 16C31.982 7.17325 24.8265 0.0177612 15.9998 0.0177612C7.17306 0.0177612 0.0175781 7.17325 0.0175781 16C0.0175781 24.8267 7.17306 31.9822 15.9998 31.9822Z" fill="white"/>
<path d="M8.30238 15.52C8.56905 15.4933 8.83571 15.4666 9.11127 15.44C9.73349 15.3866 10.3557 15.36 10.9779 15.4133C11.3157 15.44 11.6535 15.5022 11.9913 15.5555C12.1779 15.5911 12.3468 15.6711 12.4979 15.7866C12.6579 15.92 12.6935 16.08 12.5868 16.2577C12.5246 16.3555 12.4446 16.4355 12.3646 16.5333C12.4802 16.5333 12.5957 16.5422 12.7113 16.5511C13.0935 16.5777 13.4846 16.6133 13.849 16.7377C13.9913 16.7911 14.1335 16.8622 14.2579 16.9511C14.4268 17.0666 14.4357 17.2533 14.329 17.4222C14.169 17.6711 13.929 17.8133 13.6802 17.9555C13.2357 18.2044 12.7557 18.3822 12.2668 18.5422C11.3157 18.8533 10.3468 19.0577 9.36016 19.1911C8.86238 19.2622 8.35571 19.3066 7.84905 19.3333C7.38683 19.36 6.9246 19.36 6.46238 19.3422C6.03571 19.3244 5.60905 19.2888 5.20905 19.1377C5.12016 19.1022 5.02238 19.0577 4.94238 19.0044C4.67571 18.8355 4.65794 18.5866 4.88905 18.3555C4.93349 18.3111 4.98683 18.2755 5.03127 18.2311C5.03127 18.2222 5.02238 18.2133 5.01349 18.1955C4.97794 18.1955 4.94238 18.1955 4.90683 18.1955C4.40016 18.1777 3.90238 18.1422 3.42238 17.9555C3.34238 17.9288 3.26238 17.8933 3.19127 17.8488C2.94238 17.6977 2.90683 17.4311 3.11127 17.2C3.29794 16.9866 3.54683 16.8533 3.78683 16.72C4.32905 16.4355 4.91571 16.2311 5.50238 16.0622C6.31127 15.8311 7.12905 15.6533 7.9646 15.5377C8.01794 15.5377 8.07127 15.5377 8.1246 15.5288C8.10683 15.6888 8.08905 15.84 8.07127 16H8.05349C8.02683 16 8.00016 16 7.97349 16C7.29794 16.1066 6.63127 16.2666 5.98238 16.4622C5.59127 16.5866 5.21794 16.7466 4.86238 16.9422C4.69349 17.0311 4.54238 17.1466 4.4446 17.3066C4.35571 17.4488 4.37349 17.5733 4.50683 17.68C4.56905 17.7244 4.64016 17.7777 4.71127 17.7955C4.95127 17.8577 5.19127 17.9022 5.43127 17.9466C5.59127 17.9733 5.75127 17.9733 5.91127 17.9911C5.90238 18.0266 5.87571 18.0355 5.86683 18.0533C5.62683 18.3022 5.66238 18.4977 5.98238 18.6488C5.98238 18.6488 6.00016 18.6577 6.00905 18.6577C6.21349 18.7111 6.40905 18.7733 6.61349 18.8088C7.04016 18.8711 7.47571 18.8711 7.90238 18.8444C8.13349 18.8355 8.3646 18.8266 8.59571 18.8C8.96905 18.7555 9.34238 18.7111 9.71571 18.64C10.2135 18.5422 10.7202 18.4266 11.209 18.2844C11.5913 18.1777 11.9557 18.0088 12.3202 17.8577C12.5513 17.76 12.7468 17.6177 12.9068 17.4222C13.0224 17.28 13.0046 17.12 12.8535 17.0133C12.8002 16.9688 12.7379 16.9422 12.6668 16.9155C12.3202 16.7822 11.9557 16.7466 11.5824 16.7288C11.5379 16.7288 11.5024 16.72 11.4668 16.72C11.529 16.6311 11.5913 16.5511 11.6357 16.4622C11.6802 16.3822 11.6713 16.2933 11.609 16.2222C11.4935 16.0888 11.3513 16.0177 11.1824 15.9911C11.0135 15.9644 10.8446 15.9288 10.6757 15.9022C10.6668 15.9022 10.649 15.9022 10.6402 15.9022C10.6224 15.9022 10.5957 15.8844 10.5779 15.8844C10.3113 15.8844 10.0357 15.8666 9.76905 15.8666C9.61794 15.8666 9.47571 15.8755 9.3246 15.8844C9.29794 15.8844 9.28016 15.8844 9.25349 15.8844C9.06682 15.9022 8.88016 15.92 8.6846 15.9377C8.66683 15.9377 8.64905 15.9377 8.63127 15.9377C8.59571 15.9377 8.56016 15.9466 8.5246 15.9555C8.51571 15.9555 8.49794 15.9555 8.48905 15.9555C8.40905 15.9555 8.33794 15.9644 8.24905 15.9733C8.26683 15.8044 8.2846 15.6533 8.30238 15.4933" fill="#B79D47"/>
<path d="M17.6894 14.6844C17.8405 14.6844 17.9827 14.6844 18.1249 14.6844C18.1427 14.6844 18.1694 14.7288 18.1694 14.7555C18.1694 15.1111 18.1694 15.4755 18.1694 15.8311C18.1694 15.8577 18.1338 15.9022 18.1072 15.9022C17.6449 16.0088 17.1827 16.0622 16.7205 15.92C16.2316 15.7688 15.9116 15.44 15.8494 14.9155C15.7783 14.3822 15.9916 13.9644 16.436 13.6622C16.7827 13.4311 17.1649 13.4044 17.5649 13.4311C17.636 13.4311 17.7072 13.4488 17.7783 13.4577C17.8316 13.4577 17.8583 13.4844 17.8583 13.5377C17.8583 13.6177 17.8583 13.6977 17.8583 13.7866C17.8583 13.8044 17.8494 13.8311 17.8316 13.8488C17.8316 13.8488 17.796 13.8488 17.7783 13.8311C17.6983 13.7955 17.6272 13.7422 17.5472 13.7155C17.1027 13.6 16.596 13.7511 16.356 14.1688C16.0183 14.7822 16.3294 15.5733 17.0849 15.6977C17.2805 15.7333 17.476 15.7422 17.6627 15.68C17.7249 15.6622 17.7516 15.6266 17.7516 15.5644C17.7516 15.3511 17.7516 15.1377 17.7516 14.9155C17.7516 14.8444 17.7072 14.7644 17.6805 14.6666" fill="#070707"/>
<path d="M20.0534 15.12C20.0534 14.9333 20.0178 14.7733 19.92 14.6222C19.7245 14.3289 19.3156 14.2844 19.0489 14.5155C18.7823 14.7378 18.7467 15.3244 19.0489 15.6178C19.3245 15.8666 19.7067 15.84 19.9111 15.5466C20.0089 15.4133 20.0445 15.2711 20.0445 15.12M19.4223 16.0178C19.0934 16.0178 18.8 15.92 18.6134 15.6444C18.24 15.1022 18.4711 14.2666 19.3067 14.16C19.5378 14.1244 19.7778 14.1422 19.9911 14.2666C20.3289 14.4622 20.4711 14.7644 20.4445 15.1466C20.4267 15.52 20.2311 15.7866 19.8845 15.9289C19.7423 15.9911 19.5823 16.0089 19.4311 16.0533C19.4311 16.0533 19.4311 16.0355 19.4311 16.0266" fill="#060606"/>
<path d="M25.2442 14.2577C25.3776 14.2311 25.5109 14.2044 25.6354 14.1866C25.6531 14.1866 25.6887 14.2222 25.6887 14.24C25.6976 14.2844 25.6887 14.3377 25.6887 14.4C25.7242 14.3822 25.7509 14.3733 25.7687 14.3555C25.9376 14.1688 26.1598 14.1333 26.3998 14.16C26.7554 14.1955 26.9154 14.3822 26.9242 14.7466C26.9242 15.0311 26.9242 15.3244 26.9242 15.6088C26.9242 15.7066 26.9598 15.8044 26.9776 15.9111H26.4976C26.5865 15.5111 26.5331 15.1111 26.5331 14.7022C26.5331 14.5155 26.4176 14.4088 26.2042 14.4C26.1154 14.4 26.0176 14.4 25.9376 14.4355C25.7865 14.48 25.6887 14.5866 25.6887 14.7555C25.6887 15.0666 25.6887 15.3777 25.6887 15.68C25.6887 15.7511 25.7242 15.8222 25.742 15.9111H25.2531C25.342 15.6355 25.2976 15.3511 25.2976 15.0755C25.2976 14.8 25.342 14.5155 25.2354 14.24" fill="#060606"/>
<path d="M24.2488 15.5644C24.2044 15.6799 24.1777 15.7866 24.1244 15.9022C24.1155 15.9288 24.0622 15.9466 24.0266 15.9466C23.5644 15.9466 23.1111 15.9466 22.6488 15.9466C22.6399 15.9466 22.6311 15.9466 22.6133 15.9288C22.6222 15.911 22.6311 15.8844 22.6399 15.8666C22.6666 15.7866 22.7111 15.7155 22.7111 15.6355C22.7111 15.0222 22.7111 14.4088 22.7111 13.7955C22.7111 13.6977 22.6666 13.5999 22.6399 13.4844H23.2088C23.2088 13.4844 23.2088 13.5288 23.1911 13.5377C23.1022 13.6533 23.1022 13.7955 23.1022 13.9377C23.1022 14.471 23.1022 15.0133 23.1022 15.5466C23.1022 15.6266 23.1288 15.6533 23.1999 15.6622C23.4311 15.6799 23.6533 15.6977 23.8755 15.6533C23.9733 15.6355 24.0622 15.5999 24.1511 15.5644C24.1777 15.5644 24.1955 15.5466 24.2222 15.5377C24.2222 15.5377 24.2399 15.5466 24.2488 15.5555" fill="#070707"/>
<path d="M21.8844 15.9377H21.3955C21.4133 15.7955 21.44 15.6622 21.44 15.5377C21.44 15.1999 21.44 14.8622 21.44 14.5155C21.44 14.4088 21.3689 14.4266 21.3066 14.4088C21.3066 14.391 21.3066 14.3822 21.3066 14.3822C21.4222 14.2666 21.4222 14.1244 21.4489 13.9733C21.4844 13.7688 21.6355 13.6355 21.8133 13.5466C22.0355 13.4488 22.2666 13.4577 22.5333 13.4844C22.4355 13.5822 22.3644 13.6622 22.2844 13.7422C22.2666 13.751 22.2311 13.7422 22.2044 13.7422C22.0444 13.6622 21.9022 13.7155 21.8489 13.8844C21.8222 13.9733 21.8133 14.071 21.8133 14.1599C21.8133 14.1777 21.8578 14.2222 21.8844 14.2222C21.9822 14.2222 22.08 14.2222 22.1866 14.2222C22.2578 14.2222 22.2844 14.2399 22.2844 14.3022C22.2844 14.3644 22.2844 14.4266 22.2666 14.4977C22.1511 14.3999 22.0178 14.4177 21.8933 14.4177C21.8311 14.4177 21.8044 14.4444 21.8044 14.5066C21.8044 14.9066 21.8044 15.3155 21.8044 15.7155C21.8044 15.7866 21.84 15.8577 21.8666 15.9377" fill="#070707"/>
<path d="M27.2976 13.5111C27.422 13.4933 27.5465 13.4666 27.662 13.4489C27.6798 13.4489 27.7065 13.4755 27.7154 13.4933C27.7242 13.52 27.7154 13.5555 27.7154 13.5822C27.7154 14.2577 27.7154 14.9333 27.7154 15.6089C27.7154 15.6889 27.7331 15.7777 27.7509 15.8577C27.7687 15.92 27.7509 15.9466 27.6887 15.9466C27.5642 15.9466 27.4487 15.9466 27.3242 15.9466C27.2709 15.9466 27.2709 15.92 27.2798 15.8755C27.2976 15.8044 27.3154 15.7333 27.3154 15.6622C27.3154 15.0222 27.3154 14.3911 27.3154 13.7511C27.3154 13.6711 27.2976 13.5911 27.2887 13.5022" fill="#080808"/>
<path d="M20.6584 13.5377C20.7917 13.5111 20.9073 13.4844 21.0228 13.4666C21.0406 13.4666 21.0762 13.4933 21.0851 13.5199C21.094 13.5377 21.0851 13.5733 21.0851 13.5999C21.0851 14.3022 21.0851 15.0044 21.0851 15.6977C21.0851 15.7688 21.1206 15.8488 21.1384 15.9377C20.9784 15.9733 20.8184 15.9377 20.6673 15.9377C20.7651 15.5111 20.7028 15.0933 20.7117 14.6755C20.7117 14.4533 20.7117 14.2222 20.7117 13.9999C20.7117 13.8399 20.7473 13.6711 20.6406 13.5288" fill="#070707"/>
<path d="M29.0138 15.92C28.8449 16 28.5426 15.9555 28.436 15.8222C28.2315 15.5733 28.0449 15.3155 27.8493 15.0577C27.796 14.9955 27.8049 14.9422 27.8582 14.8889C27.9826 14.7644 28.0893 14.6311 28.2049 14.5066C28.2671 14.4355 28.3115 14.3733 28.3115 14.2755C28.3115 14.2577 28.3382 14.2311 28.3471 14.2311C28.4982 14.2311 28.6404 14.2311 28.8182 14.2311C28.7826 14.2755 28.7738 14.2933 28.756 14.3111C28.5871 14.4977 28.4271 14.6844 28.2582 14.8622C28.196 14.9244 28.2049 14.9777 28.2582 15.04C28.5071 15.3244 28.7471 15.6089 28.9871 15.8844C28.9871 15.8933 28.996 15.9022 29.0138 15.92Z" fill="#070707"/>
<path d="M24.9243 15.9377H24.4443C24.551 15.6622 24.4888 15.3866 24.4977 15.1111C24.4977 14.9155 24.4977 14.7111 24.4977 14.5066C24.4977 14.4177 24.471 14.32 24.4532 14.24C24.5688 14.2222 24.6843 14.1955 24.8088 14.1777C24.8266 14.1777 24.8621 14.2133 24.871 14.2311C24.8799 14.2844 24.871 14.3377 24.871 14.3822C24.871 14.7911 24.871 15.2 24.871 15.6088C24.871 15.7155 24.8977 15.8133 24.9154 15.9288" fill="#080808"/>
<path d="M8.73753 12.64C8.81753 12.6844 8.90642 12.7111 8.96864 12.7733C9.19086 12.9866 9.32419 13.2444 9.37753 13.5466C9.40419 13.7422 9.41308 13.9466 9.41308 14.1511C9.24419 13.9555 9.05753 13.7777 8.95975 13.5288C8.9153 13.4133 8.82641 13.3511 8.70197 13.3422C8.68419 13.3422 8.65753 13.3422 8.63086 13.3422C8.65753 13.1111 8.68419 12.8888 8.71086 12.6666C8.71975 12.6666 8.72864 12.6488 8.73753 12.64Z" fill="#B79E4A"/>
<path d="M21.991 16.8622C22.0088 16.9422 22.0177 17.0133 22.0444 17.0755C22.1066 17.2622 22.3022 17.3866 22.4977 17.3689C22.6488 17.3689 22.791 17.2266 22.8355 17.04C22.8799 16.8533 22.8355 16.6933 22.7199 16.5511C22.5333 16.3289 22.2133 16.3555 22.071 16.6044C22.0266 16.6755 22.0177 16.7733 21.9999 16.8533M23.0222 16.8977C23.0399 17.3155 22.7022 17.4844 22.4088 17.4844C22.0622 17.4844 21.8044 17.2266 21.8222 16.8977C21.831 16.5244 22.071 16.3022 22.4622 16.3022C22.8266 16.3022 23.0399 16.5333 23.031 16.8977" fill="#0C0C0C"/>
<path d="M22.4982 18.9422C22.6493 18.9422 22.7649 18.8799 22.836 18.7555C22.9693 18.5333 22.9071 18.2133 22.6938 18.0533C22.516 17.9199 22.2671 17.9555 22.1427 18.1422C22.0093 18.3377 22.0449 18.6666 22.2227 18.8266C22.3027 18.8977 22.3915 18.951 22.4982 18.9422ZM22.4804 19.0488C22.2049 19.0488 22.0182 18.9333 21.9293 18.711C21.8315 18.4533 21.876 18.1955 22.0627 18.0266C22.2671 17.8399 22.6849 17.8222 22.8982 17.9999C23.1115 18.1777 23.1649 18.5422 23.0049 18.791C22.8804 18.9777 22.7115 19.0666 22.4893 19.0488" fill="#0C0C0C"/>
<path d="M24.3829 19.0311C24.294 19.0311 24.214 19.0578 24.134 18.9955C24.1162 18.9778 24.0717 18.9955 24.0451 18.9955C23.9295 19.0133 23.8229 19.0489 23.7073 19.04C23.5029 19.04 23.3873 18.9066 23.3784 18.7022C23.3784 18.5066 23.3784 18.3022 23.3784 18.0978C23.3784 18.0622 23.3784 18.0266 23.3695 17.9911C23.3429 17.9111 23.3695 17.8933 23.4406 17.8933C23.4673 17.8933 23.494 17.8933 23.5206 17.8933C23.5651 17.8933 23.5829 17.9111 23.574 17.9644C23.574 18.2044 23.5651 18.4444 23.5651 18.6844C23.5651 18.8089 23.6629 18.8978 23.7962 18.9244C23.9384 18.9422 24.0717 18.8889 24.1162 18.7733C24.1251 18.7466 24.1429 18.7111 24.1429 18.6755C24.1429 18.4355 24.134 18.2044 24.1251 17.9644C24.1251 17.9111 24.134 17.8933 24.1784 17.8933C24.214 17.8933 24.2584 17.8933 24.294 17.8933C24.3384 17.8933 24.3473 17.9111 24.3473 17.9644C24.3384 18.2666 24.3295 18.5689 24.3295 18.8622C24.3295 18.9155 24.3651 18.96 24.3829 19.0311Z" fill="#0B0B0B"/>
<path d="M18.8535 16.3289C19.0402 16.3289 19.2357 16.2844 19.4224 16.3733C19.5202 16.4177 19.5735 16.4889 19.5735 16.6044C19.5735 16.7111 19.5202 16.7911 19.4224 16.8444C19.298 16.9066 19.2891 16.9066 19.3868 17.0133C19.5202 17.1644 19.6535 17.3066 19.7868 17.4489C19.7157 17.4933 19.5468 17.4666 19.4757 17.3777C19.3602 17.2355 19.2535 17.0844 19.1469 16.9333C19.1202 16.8889 19.1291 16.8622 19.1735 16.8533C19.218 16.8355 19.2535 16.8266 19.2891 16.8089C19.3691 16.7644 19.4046 16.7022 19.3957 16.6133C19.3868 16.5244 19.3246 16.48 19.2357 16.4533C19.2268 16.4533 19.2091 16.4533 19.2002 16.4533C19.058 16.4355 19.0491 16.4533 19.058 16.5866C19.058 16.7911 19.058 16.9955 19.058 17.2089C19.058 17.2533 19.058 17.2977 19.058 17.3422C19.0757 17.4577 19.0757 17.4666 18.9513 17.4577C18.9157 17.4577 18.8891 17.4577 18.8535 17.4489V16.3377V16.3289Z" fill="#0D0D0D"/>
<path d="M24.2134 17.44C24.0979 17.4666 24.0001 17.4755 23.929 17.3955C23.8045 17.2533 23.6979 17.1022 23.5823 16.9511C23.5467 16.9066 23.5645 16.88 23.6179 16.8533C23.6623 16.8355 23.7067 16.8177 23.7512 16.7911C23.8845 16.6933 23.8667 16.5422 23.7245 16.4711C23.689 16.4533 23.6356 16.4444 23.5912 16.4444C23.5201 16.4355 23.4934 16.4622 23.4934 16.5333C23.4934 16.8177 23.5023 17.0933 23.5023 17.3777C23.5023 17.4044 23.4756 17.44 23.4579 17.44C23.4134 17.4489 23.3601 17.44 23.2979 17.44V16.3022C23.4756 16.32 23.6534 16.32 23.8223 16.3555C23.929 16.3733 24.0179 16.4533 24.0179 16.5866C24.0179 16.7111 23.9556 16.7911 23.849 16.8355C23.7423 16.88 23.7423 16.9066 23.8134 16.9955C23.9201 17.12 24.0356 17.2355 24.1423 17.36C24.1601 17.3777 24.1779 17.4044 24.2045 17.4311" fill="#0D0D0D"/>
<path d="M21.0939 18.5066V19.0222H20.9073C20.9073 18.7022 20.9073 18.3822 20.9073 18.0711C20.9073 18.0533 20.9073 18.0355 20.9073 18.0177C20.8895 17.9022 20.8895 17.9022 20.9961 17.9022C21.1206 17.9022 21.2539 17.9022 21.3784 17.9199C21.5206 17.9377 21.6095 18.0355 21.6273 18.1688C21.6361 18.2666 21.5473 18.391 21.4317 18.4355C21.405 18.4444 21.3873 18.4533 21.3428 18.4711C21.4939 18.6755 21.6539 18.8533 21.8584 19.0222C21.7339 19.031 21.6273 19.0488 21.5473 18.9688C21.4228 18.8355 21.3161 18.6933 21.2095 18.5599C21.1917 18.5422 21.1828 18.5244 21.165 18.5066C21.1828 18.4799 21.1917 18.4533 21.2095 18.4355C21.2628 18.3999 21.325 18.3822 21.3695 18.3466C21.485 18.2488 21.4584 18.1066 21.325 18.0444C21.2806 18.0266 21.2273 18.0177 21.1828 18.0177C21.1117 18.0088 21.085 18.0444 21.085 18.1155C21.085 18.2488 21.085 18.3822 21.0939 18.5155" fill="#0D0D0D"/>
<path d="M20.3827 18.4444C20.3827 18.4444 20.4715 18.4444 20.516 18.4444C20.5338 18.4444 20.5693 18.4888 20.5693 18.5155C20.5693 18.6577 20.5693 18.8 20.5693 18.9422C20.5693 18.9688 20.5338 19.0044 20.516 19.0133C20.3115 19.0488 20.1071 19.0755 19.9027 19.0133C19.6715 18.9422 19.5115 18.7466 19.5027 18.5155C19.4849 18.2577 19.6093 18.0533 19.8404 17.9377C20.0004 17.8577 20.1693 17.8488 20.3471 17.8755C20.3827 17.8755 20.4093 17.9111 20.4271 17.9466C20.436 17.9644 20.4271 18.0088 20.4182 18.0177C20.4093 18.0266 20.3649 18.0266 20.3471 18.0177C20.2049 17.9555 20.0715 17.9644 19.9293 18.0266C19.7604 18.1066 19.6804 18.2488 19.6804 18.4266C19.6804 18.6133 19.7515 18.7644 19.9293 18.8533C20.036 18.9066 20.1604 18.9333 20.2849 18.9155C20.3471 18.9066 20.3827 18.8711 20.3827 18.8088C20.3827 18.6933 20.3827 18.5777 20.3827 18.4355" fill="#0D0D0D"/>
<path d="M8.16016 15.5377C8.19571 15.2622 8.22238 14.9866 8.25793 14.7199C8.33793 14.0888 8.41793 13.4577 8.50682 12.8266C8.50682 12.7733 8.5246 12.7199 8.53349 12.6577H8.66682C8.62238 13.0133 8.57793 13.3599 8.53349 13.7155C8.47127 14.2222 8.40016 14.7288 8.33793 15.2355C8.32904 15.3333 8.31127 15.4222 8.30238 15.511C8.25793 15.511 8.2046 15.5199 8.16016 15.5288" fill="#217156"/>
<path d="M25.982 16.4888C25.982 16.4888 25.9108 16.4622 25.8842 16.4622C25.8042 16.4622 25.7153 16.4533 25.6353 16.4711C25.5197 16.5066 25.502 16.6311 25.5908 16.7022C25.662 16.7555 25.742 16.7822 25.822 16.8266C25.8842 16.8622 25.9464 16.8888 25.9997 16.9333C26.1331 17.0399 26.1331 17.2266 26.0175 17.3422C25.8842 17.4844 25.5997 17.5377 25.422 17.4577C25.3508 17.4222 25.3331 17.3599 25.342 17.2711C25.3953 17.2888 25.4397 17.3155 25.4931 17.3244C25.582 17.3333 25.6797 17.3599 25.7686 17.3422C25.822 17.3333 25.8842 17.2711 25.9108 17.2177C25.9464 17.1466 25.8931 17.0844 25.8308 17.0577C25.7508 17.0133 25.662 16.9777 25.5731 16.9333C25.4486 16.8799 25.3508 16.7911 25.342 16.6488C25.3331 16.4977 25.4486 16.3733 25.6442 16.3377C25.7331 16.3199 25.822 16.3288 25.9108 16.3377C25.9997 16.3377 26.0264 16.4088 25.9908 16.5066" fill="#0D0D0D"/>
<path d="M20.8535 17.2711C20.9513 17.2977 21.0491 17.3333 21.1469 17.3511C21.2002 17.3599 21.2713 17.3511 21.3157 17.3333C21.3602 17.3066 21.4224 17.2444 21.4224 17.1999C21.4224 17.1555 21.378 17.0933 21.3424 17.0577C21.298 17.0133 21.2268 16.9955 21.1646 16.9688C21.1024 16.9422 21.0402 16.9155 20.9869 16.8799C20.7913 16.7377 20.818 16.4533 21.0491 16.3822C21.1735 16.3377 21.3069 16.3466 21.4402 16.3466C21.5113 16.3466 21.5113 16.4088 21.5024 16.4622C21.4846 16.5333 21.4491 16.4977 21.4046 16.4888C21.3246 16.4799 21.2446 16.4622 21.1735 16.4799C21.1291 16.4888 21.058 16.5422 21.0491 16.5866C21.0402 16.6311 21.0757 16.7022 21.1202 16.7377C21.1824 16.7911 21.2624 16.8088 21.3335 16.8444C21.3957 16.8711 21.458 16.8977 21.5113 16.9422C21.6624 17.0577 21.6713 17.2266 21.538 17.3599C21.3868 17.5111 21.2002 17.5199 21.0046 17.4844C20.898 17.4666 20.8535 17.4222 20.8535 17.2888" fill="#0D0D0D"/>
<path d="M19.9738 16.3199C20.1427 16.3199 20.3294 16.311 20.5072 16.3199C20.6049 16.3199 20.5516 16.4177 20.5605 16.471C20.4538 16.471 20.3561 16.4533 20.2583 16.4444C20.1961 16.4444 20.1694 16.4621 20.1694 16.5333C20.1694 16.6044 20.1516 16.7021 20.1872 16.7555C20.2138 16.791 20.3205 16.7733 20.3827 16.791C20.4183 16.7999 20.4627 16.8355 20.4627 16.8621C20.4627 16.9244 20.4183 16.9066 20.3738 16.8977C20.2316 16.8799 20.1635 16.9421 20.1694 17.0844C20.1694 17.0844 20.1694 17.1288 20.1694 17.1555C20.1694 17.3333 20.1694 17.3333 20.3383 17.3244C20.4449 17.3244 20.5605 17.2977 20.6672 17.2888C20.6849 17.351 20.6494 17.4399 20.5783 17.4399C20.3649 17.4399 20.1605 17.4399 19.9561 17.4399C19.9916 17.0666 19.9738 16.7021 19.9649 16.311" fill="#0F0F0F"/>
<path d="M24.8714 19.0222H24.667C24.7025 18.6755 24.6848 18.3378 24.667 18C24.667 17.9289 24.667 17.8933 24.747 17.8933C24.8981 17.8933 25.0492 17.8933 25.1914 17.9111C25.3425 17.9289 25.4403 18.08 25.4137 18.2222C25.3781 18.3644 25.2181 18.4711 25.067 18.4444C25.0937 18.4178 25.1203 18.4 25.1381 18.3822C25.2181 18.3111 25.2448 18.1955 25.2003 18.1155C25.1559 18.0266 24.9959 17.9555 24.907 17.9911C24.8803 18 24.8537 18.0533 24.8537 18.0889C24.8537 18.3911 24.8537 18.6933 24.8537 19.0044" fill="#0E0E0E"/>
<path d="M24.8449 17.4488C24.8449 17.4488 24.8093 17.4488 24.7827 17.4488C24.7382 17.4488 24.7027 17.4488 24.6493 17.4488C24.6493 17.3777 24.6671 17.3155 24.6671 17.2533C24.6671 17.0133 24.6671 16.7821 24.6671 16.5421C24.6671 16.471 24.6405 16.4444 24.5782 16.4444C24.4982 16.4444 24.4182 16.4533 24.3382 16.4621C24.3293 16.3644 24.3649 16.311 24.4627 16.311C24.6849 16.311 24.9071 16.311 25.1293 16.311C25.1738 16.311 25.236 16.311 25.2182 16.3821C25.2093 16.4533 25.1738 16.471 25.1027 16.4533C24.8538 16.391 24.8538 16.3999 24.8538 16.6488C24.8538 16.9066 24.8538 17.1555 24.8538 17.4221" fill="#0C0C0C"/>
<path d="M24.6842 13.5022C24.8176 13.5022 24.9242 13.6089 24.9331 13.7422C24.9331 13.8666 24.8087 13.9911 24.6931 13.9911C24.5776 13.9911 24.4531 13.8666 24.4531 13.76C24.4531 13.6178 24.5598 13.5022 24.6931 13.5022" fill="#080808"/>
<path d="M8.15998 15.5377C8.20442 15.5377 8.25776 15.5288 8.3022 15.52C8.28442 15.6711 8.26664 15.8311 8.24887 16C8.33776 16 8.40887 15.9911 8.48887 15.9822C8.41776 16 8.34664 16.0177 8.26664 16.0355H8.23998C8.18665 16.0355 8.1422 16.0355 8.08887 16.0355C8.10664 15.8755 8.12442 15.7244 8.1422 15.5644C8.1422 15.5644 8.15109 15.5555 8.15998 15.5466" fill="#F9F8E7"/>
<path d="M7.48448 16.4266C7.59114 16.3999 7.7067 16.3644 7.81336 16.3377C7.85781 16.3288 7.91114 16.3288 7.95559 16.3111C8.04447 16.2933 8.04448 16.2222 8.05336 16.1511C8.05336 16.1066 8.06225 16.0711 8.07114 16.0266H8.08892C8.08003 16.1244 8.06225 16.2222 8.05336 16.3288C8.1067 16.3288 8.16003 16.3199 8.20447 16.3111C8.15114 16.7377 8.09781 17.1644 8.04448 17.5911C8.08003 17.5911 8.1067 17.5999 8.12448 17.6088C8.16003 17.6266 8.17781 17.6533 8.21336 17.6799C8.1867 17.7066 8.16003 17.7422 8.12448 17.7511C7.97336 17.7955 7.82225 17.7955 7.68003 17.7511C7.65336 17.7422 7.6267 17.7066 7.60003 17.6799C7.6267 17.6533 7.65336 17.6177 7.68003 17.6088C7.74225 17.5911 7.81336 17.5822 7.88447 17.5644C7.93781 17.1555 7.99114 16.7466 8.04448 16.3288C7.84892 16.3644 7.66225 16.3999 7.47559 16.4355" fill="#EFF9F6"/>
<path d="M8.20482 16.3022C8.16038 16.3022 8.10704 16.3111 8.05371 16.32C8.0626 16.2133 8.08038 16.1155 8.08927 16.0178C8.1426 16.0178 8.18704 16.0178 8.24038 16.0178C8.23149 16.1067 8.21371 16.2044 8.20482 16.2933V16.3022Z" fill="#287259"/>
<path d="M10.6398 15.911C10.6398 15.911 10.6042 15.9288 10.5864 15.9288C10.3553 15.9199 10.1242 15.9022 9.89311 15.8933C9.72422 15.8933 9.56422 15.9022 9.39533 15.911C9.37755 15.911 9.35089 15.9022 9.32422 15.8933C9.47533 15.8933 9.61755 15.8755 9.76866 15.8755C10.0353 15.8755 10.3109 15.8844 10.5776 15.8933C10.5953 15.8933 10.622 15.9022 10.6398 15.911Z" fill="#F9F8E7"/>
<path d="M9.25336 15.9022C9.25336 15.9022 9.23558 15.9288 9.22669 15.9377C9.0578 15.9555 8.88003 15.9644 8.71114 15.9733C8.71114 15.9733 8.69336 15.9644 8.69336 15.9555C8.88003 15.9377 9.06669 15.9199 9.26225 15.9022" fill="#F9F8E7"/>
<path d="M11.1825 16.0089C11.1825 16.0089 11.1381 16.0355 11.1203 16.0266C10.987 16 10.8537 15.9733 10.7203 15.9466C10.7025 15.9466 10.6848 15.9288 10.667 15.9111C10.8359 15.9377 11.0048 15.9733 11.1737 16" fill="#F9F8E7"/>
<path d="M8.63108 15.9555C8.60441 16.0088 8.55997 15.9911 8.52441 15.9733C8.55997 15.9733 8.59553 15.9644 8.63108 15.9555Z" fill="#F9F8E7"/>
<path d="M8.20508 16.3022C8.21397 16.2133 8.23175 16.1155 8.24063 16.0266H8.2673C8.25841 16.0977 8.24063 16.1688 8.23175 16.2577C8.31175 16.2577 8.37397 16.2488 8.44508 16.2399C8.57841 16.2222 8.72063 16.2044 8.85397 16.1866C8.94286 16.1866 9.04063 16.1866 9.12952 16.1866C9.11175 16.1866 9.09397 16.1866 9.07619 16.1955C8.78286 16.2311 8.49841 16.2666 8.20508 16.2933" fill="#EFF9F6"/>
<path d="M8.20443 16.3022C8.49776 16.2666 8.78221 16.2311 9.07554 16.2044C9.09332 16.2044 9.1111 16.2044 9.12887 16.1955C9.14665 16.1955 9.16443 16.1955 9.18221 16.1955C9.21776 16.1955 9.25332 16.1955 9.28887 16.1955C9.30665 16.1955 9.32443 16.1955 9.34221 16.1955C9.65332 16.1955 9.96443 16.2133 10.2755 16.2222C10.2844 16.2222 10.3022 16.2222 10.3111 16.2222C10.5067 16.2755 10.7111 16.3377 10.9067 16.3911C11.0755 16.5244 11.0844 16.5599 11.0222 16.7288C10.9778 16.7733 10.9422 16.8177 10.8978 16.8711C11.0844 16.8888 11.2533 16.9066 11.4311 16.9155C11.44 16.9155 11.4578 16.9155 11.4667 16.9155C11.4933 16.9155 11.5289 16.9244 11.5555 16.9333C11.5644 16.9333 11.5822 16.9333 11.5911 16.9333C11.6444 16.9422 11.6978 16.9599 11.7511 16.9688C11.8311 17.0044 11.92 17.0399 11.9911 17.0844C12.1333 17.1733 12.1511 17.3066 12.0444 17.4311C11.8667 17.6444 11.6267 17.7688 11.3689 17.8666C10.8978 18.0622 10.4089 18.2133 9.91109 18.3111C9.31554 18.4266 8.71998 18.5244 8.10665 18.5511C7.68887 18.5688 7.2711 18.5777 6.86221 18.4888C6.72887 18.4622 6.60443 18.4177 6.4711 18.3644C6.29332 18.2844 6.25776 18.1422 6.38221 17.9822C6.40887 17.9466 6.44443 17.9111 6.46221 17.8844C6.2311 17.8577 5.99998 17.8399 5.76887 17.7955C5.64443 17.7688 5.5111 17.7244 5.39554 17.6533C5.23554 17.5644 5.20887 17.4133 5.34221 17.2888C5.46665 17.1644 5.62665 17.0666 5.75998 16.9599C5.76887 16.9599 5.78665 16.9511 5.79554 16.9422C5.86665 16.9155 5.93776 16.8799 6.00887 16.8533C6.20443 16.7822 6.3911 16.7111 6.58665 16.6399C6.58665 16.6399 6.62221 16.6311 6.6311 16.6222C6.63998 16.6222 6.64887 16.6222 6.65776 16.6222C6.68443 16.6133 6.7111 16.6044 6.74665 16.5955C6.74665 16.5955 6.76443 16.5955 6.77332 16.5955C6.99554 16.5422 7.21776 16.4888 7.43998 16.4355C7.44887 16.4355 7.45776 16.4355 7.46665 16.4355C7.65332 16.3999 7.83109 16.3644 8.03554 16.3288C7.98221 16.7555 7.92887 17.1644 7.87554 17.5644C7.80443 17.5822 7.73332 17.5822 7.6711 17.6088C7.63554 17.6177 7.61776 17.6533 7.59109 17.6799C7.61776 17.7066 7.63554 17.7333 7.6711 17.7511C7.82221 17.7955 7.97332 17.7955 8.11554 17.7511C8.1511 17.7422 8.16887 17.7066 8.20443 17.6799C8.17776 17.6533 8.1511 17.6266 8.11554 17.6088C8.09776 17.5999 8.07109 17.5999 8.03554 17.5911C8.08887 17.1644 8.14221 16.7377 8.19554 16.3111" fill="#166F51"/>
<path d="M10.2663 16.2044C9.95523 16.2044 9.64412 16.1866 9.33301 16.1777C9.35967 16.1688 9.38634 16.1511 9.4219 16.1511C9.67967 16.1511 9.94634 16.16 10.2041 16.1688C10.2219 16.1688 10.2486 16.1866 10.2663 16.2044Z" fill="#EFF9F6"/>
<path d="M11.422 16.9155C11.2531 16.8977 11.0753 16.8888 10.8887 16.871C10.9331 16.8177 10.9776 16.7733 11.0131 16.7288C11.0131 16.7644 10.9953 16.7999 10.9953 16.8355C11.102 16.8444 11.2087 16.8533 11.3153 16.871C11.3509 16.871 11.3864 16.8977 11.422 16.9155Z" fill="#EFF9F6"/>
<path d="M10.9071 16.3733C10.7115 16.3199 10.5071 16.2577 10.3115 16.2044C10.3204 16.1955 10.3382 16.1688 10.3471 16.1688C10.4182 16.1688 10.4893 16.1866 10.5515 16.2044C10.6582 16.2399 10.756 16.2755 10.8626 16.311C10.8804 16.311 10.8893 16.3466 10.9071 16.3644" fill="#EFF9F6"/>
<path d="M7.44889 16.4266C7.22667 16.48 7.00445 16.5333 6.78223 16.5866C6.82667 16.56 6.88 16.5333 6.92445 16.5155C7.04889 16.48 7.17334 16.4533 7.28889 16.4355C7.34223 16.4266 7.38667 16.4355 7.44 16.4355" fill="#EFF9F6"/>
<path d="M6.59536 16.6489C6.3998 16.72 6.21313 16.7911 6.01758 16.8622C6.01758 16.8533 6.01758 16.8266 6.03536 16.8266C6.21313 16.7644 6.3998 16.7111 6.57758 16.6489C6.57758 16.6489 6.58647 16.6489 6.59536 16.6489Z" fill="#EFF9F6"/>
<path d="M11.0228 16.72C11.085 16.5511 11.0761 16.5155 10.9072 16.3733C10.9783 16.3733 11.0494 16.4 11.0672 16.4711C11.085 16.5511 11.1117 16.6488 11.0228 16.7111" fill="#EFF9F6"/>
<path d="M11.7508 16.9778C11.6975 16.9689 11.6442 16.9511 11.5908 16.9422C11.653 16.9066 11.7153 16.9244 11.7508 16.9778Z" fill="#EFF9F6"/>
<path d="M9.28928 16.1866C9.28928 16.1866 9.21817 16.1866 9.18262 16.1866C9.21817 16.1866 9.25373 16.1244 9.28928 16.1866Z" fill="#EFF9F6"/>
<path d="M11.5469 16.9333C11.5469 16.9333 11.4847 16.9244 11.458 16.9155C11.4847 16.9155 11.5202 16.9244 11.5469 16.9333Z" fill="#EFF9F6"/>
<path d="M6.76467 16.5955C6.76467 16.5955 6.71134 16.6133 6.67578 16.6222C6.70245 16.6133 6.72911 16.6044 6.76467 16.5955Z" fill="#EFF9F6"/>
<path d="M6.64894 16.631C6.64894 16.631 6.61338 16.6399 6.60449 16.6488C6.62227 16.6488 6.64005 16.6399 6.64894 16.631Z" fill="#EFF9F6"/>
<path d="M5.80509 16.96C5.80509 16.96 5.77842 16.9777 5.76953 16.9777C5.77842 16.9777 5.7962 16.96 5.80509 16.96Z" fill="#EFF9F6"/>
</g>
</g>
<defs>
<clipPath id="clip0_2737_121301">
<rect width="32" height="32" fill="white"/>
</clipPath>
</defs>
</svg>
