<svg width="32" height="32" viewBox="0 0 32 32" fill="none" xmlns="http://www.w3.org/2000/svg">
<g clip-path="url(#clip0_2707_338648)">
<path d="M15.9998 31.9822C24.8265 31.9822 31.982 24.8267 31.982 16C31.982 7.17325 24.8265 0.0177612 15.9998 0.0177612C7.17306 0.0177612 0.0175781 7.17325 0.0175781 16C0.0175781 24.8267 7.17306 31.9822 15.9998 31.9822Z" fill="white"/>
<path fill-rule="evenodd" clip-rule="evenodd" d="M26.3018 19.2622H6.2218L5.73291 21.3333H25.8218L26.3018 19.2622Z" fill="#94862E"/>
<path fill-rule="evenodd" clip-rule="evenodd" d="M20.1865 19.5555C20.2503 19.5705 20.3059 19.6091 20.3423 19.6636C20.3786 19.718 20.3928 19.7843 20.3821 19.8489C20.3821 20.0978 20.1421 20.8533 20.1421 20.8533C20.1161 20.8983 20.0784 20.9353 20.033 20.9604C19.9876 20.9854 19.9361 20.9976 19.8843 20.9955H20.7109C20.7109 20.9955 20.4621 20.88 20.5065 20.7822C20.5509 20.6844 20.7465 19.7778 20.7465 19.7778C20.7465 19.7778 20.8532 19.5555 21.0221 19.5555H20.1865Z" fill="white"/>
<path fill-rule="evenodd" clip-rule="evenodd" d="M22.3819 19.5555C22.8886 19.5555 23.2708 19.9022 23.1553 20.3377C23.0883 20.569 22.9462 20.7715 22.7515 20.9131C22.5567 21.0547 22.3204 21.1275 22.0797 21.12C21.5731 21.12 21.1908 20.7733 21.3064 20.3377C21.3734 20.1065 21.5154 19.904 21.7102 19.7624C21.9049 19.6208 22.1413 19.548 22.3819 19.5555ZM22.3819 19.6711C22.6931 19.6711 22.8886 19.9733 22.8175 20.3377C22.7931 20.5089 22.7127 20.6671 22.5889 20.7877C22.4651 20.9083 22.3048 20.9845 22.1331 21.0044C21.8219 21.0044 21.6264 20.7022 21.6886 20.3377C21.7113 20.1671 21.7884 20.0084 21.9085 19.8851C22.0286 19.7618 22.1853 19.6805 22.3553 19.6533L22.3819 19.6711Z" fill="white"/>
<path fill-rule="evenodd" clip-rule="evenodd" d="M14.5063 19.9289L14.5952 19.5822H16.1419L16.0797 20.0355C16.0797 20.0355 16.0263 19.7422 15.8841 19.7155H15.5019L15.2352 20.9067C15.2714 20.9455 15.3156 20.9759 15.3647 20.9959C15.4138 21.0158 15.4667 21.0248 15.5197 21.0222H14.5863C14.5863 21.0222 14.853 21.0222 14.8886 20.8533C14.9241 20.6844 15.1552 19.7333 15.1552 19.7333H14.853C14.782 19.725 14.7101 19.7395 14.6478 19.7746C14.5855 19.8098 14.536 19.8638 14.5063 19.9289Z" fill="white"/>
<path fill-rule="evenodd" clip-rule="evenodd" d="M18.1421 19.9289L18.231 19.5822H19.7776L19.7154 20.0355C19.7154 20.0355 19.6621 19.7422 19.5288 19.7155H19.1376L18.871 20.9067C18.9071 20.9455 18.9513 20.9759 19.0004 20.9959C19.0496 21.0158 19.1025 21.0248 19.1554 21.0222H18.2221C18.2221 21.0222 18.4888 21.0222 18.5243 20.8533C18.5599 20.6844 18.791 19.7333 18.791 19.7333H18.4888C18.4177 19.725 18.3459 19.7395 18.2836 19.7746C18.2213 19.8098 18.1717 19.8638 18.1421 19.9289Z" fill="white"/>
<path fill-rule="evenodd" clip-rule="evenodd" d="M12.0708 21.0222C12.0708 21.0222 12.3286 20.9244 12.3552 20.8C12.3819 20.6755 12.5508 19.8578 12.5508 19.8578C12.5618 19.7921 12.5479 19.7246 12.5117 19.6687C12.4755 19.6127 12.4197 19.5724 12.3552 19.5555H12.7375L13.6264 20.6222L13.7952 19.8489C13.79 19.7989 13.7717 19.7511 13.742 19.7105C13.7123 19.6699 13.6724 19.6379 13.6264 19.6178H14.1952C14.1952 19.6178 13.9908 19.6711 13.9464 19.8311L13.7597 20.6755C13.7568 20.7377 13.7732 20.7992 13.8066 20.8517C13.84 20.9042 13.8888 20.9451 13.9464 20.9689H13.4841L12.7108 19.9555L12.533 20.7555C12.533 20.7555 12.4797 20.8889 12.7375 20.9689L12.0708 21.0222Z" fill="white"/>
<path fill-rule="evenodd" clip-rule="evenodd" d="M23.4756 21.0222C23.4756 21.0222 23.7423 20.9244 23.7689 20.8C23.7956 20.6755 23.9645 19.8578 23.9645 19.8578C23.9687 19.7963 23.9516 19.7353 23.9159 19.6851C23.8803 19.6348 23.8283 19.5985 23.7689 19.5822H24.1511L25.04 20.6489L25.2089 19.8755C25.2064 19.8259 25.1901 19.778 25.1618 19.7372C25.1336 19.6964 25.0945 19.6642 25.0489 19.6444H25.6178C25.6178 19.6444 25.4134 19.6978 25.3689 19.8578L25.1823 20.7022C25.1794 20.7644 25.1958 20.8259 25.2292 20.8784C25.2626 20.9309 25.3114 20.9718 25.3689 20.9955H24.8889L24.1067 19.9822L23.9378 20.7822C23.9378 20.7822 23.8845 20.9155 24.1423 20.9955L23.4756 21.0222Z" fill="white"/>
<path fill-rule="evenodd" clip-rule="evenodd" d="M8.53289 19.5555C8.53289 19.5555 8.75511 19.6178 8.74622 19.7422C8.73734 19.8667 8.47067 20.8533 8.47067 20.8533C8.4014 20.9261 8.31139 20.9757 8.21289 20.9955H9.66178L9.73289 20.7378C9.73289 20.7378 9.77734 20.5778 9.644 20.5244C9.644 20.5244 9.68845 20.8 9.45734 20.8711H8.81734L9.11067 19.7778C9.11067 19.7778 9.15511 19.6444 9.39511 19.6089L8.53289 19.5555Z" fill="white"/>
<path d="M23.9999 12.1244C22.0799 14.0267 20.0888 15.76 18.2399 17.6355L18.3199 17.76C18.5183 17.6808 18.7113 17.5888 18.8977 17.4844C19.4577 17.1111 20.0177 16.7289 20.5688 16.3289C21.1631 15.9114 21.855 15.6542 22.5777 15.5822C22.7036 15.5545 22.834 15.5545 22.9599 15.5822C23.3333 15.6533 23.4577 16.0267 23.1821 16.2578C22.9345 16.4599 22.651 16.6137 22.3466 16.7111C21.9548 16.8012 21.5565 16.8606 21.1555 16.8889C20.9772 16.9254 20.8112 17.0065 20.6728 17.1246C20.5345 17.2428 20.4283 17.3941 20.3644 17.5644C20.3688 17.6204 20.3875 17.6742 20.4186 17.7209C20.4497 17.7676 20.4922 17.8055 20.5421 17.8311C20.7454 17.8622 20.9522 17.8622 21.1555 17.8311C22.0173 17.6062 22.8187 17.1934 23.5021 16.6222C23.8458 16.3674 24.2014 16.1185 24.5688 15.8755C24.7074 15.7892 24.8531 15.7149 25.0044 15.6533C25.2266 15.5555 25.4844 15.4667 25.6888 15.6533C25.8933 15.84 25.7866 16.0711 25.6888 16.2933C25.6835 16.3436 25.6835 16.3942 25.6888 16.4444L26.2221 16.1155C26.6613 15.8119 27.1677 15.6197 27.6977 15.5555C28.1333 15.5555 28.3199 15.7689 28.151 16.1511C28.0104 16.4362 27.8139 16.6901 27.5733 16.8978C27.3066 17.1289 26.9866 17.2978 26.6844 17.5111C26.6055 17.5955 26.5449 17.6954 26.5066 17.8044C26.6221 17.8044 26.7644 17.8044 26.8533 17.8044C27.7507 17.47 28.5881 16.9927 29.3333 16.3911C29.3333 16.48 29.3333 16.5955 29.2621 16.64C28.6109 17.2123 27.8728 17.6773 27.0755 18.0178C26.7999 18.1067 26.5066 18.2133 26.2666 17.9467C26.0266 17.68 26.151 17.4311 26.4266 17.1111C26.6388 16.89 26.8644 16.6822 27.1021 16.4889L27.6177 16.0533C27.6816 15.9894 27.741 15.9211 27.7955 15.8489C27.3907 15.8324 26.9924 15.9547 26.6666 16.1955C25.8666 16.7052 25.0755 17.2296 24.2933 17.7689C24.1495 17.9167 23.9612 18.0132 23.7573 18.0437C23.5534 18.0742 23.3451 18.037 23.1644 17.9378C23.6355 17.5022 24.0977 17.0489 24.5421 16.64C24.6666 16.5244 24.9244 16.4355 24.7733 16.2044C24.7733 16.2044 24.4621 16.2578 24.3288 16.3467C23.8221 16.6844 23.3333 17.0578 22.8266 17.3955C22.3406 17.7469 21.7815 17.9839 21.191 18.0889C21.0313 18.102 20.8708 18.102 20.711 18.0889C20.1777 18.0889 20.0088 17.9111 19.9555 17.3689C19.9599 17.286 19.9599 17.2029 19.9555 17.12C19.8237 17.1862 19.696 17.2605 19.5733 17.3422C19.2266 17.5467 18.8977 17.7778 18.5333 17.9555C17.9821 18.2222 17.831 18.1244 17.7244 17.5022L16.9599 17.9022C16.878 17.9468 16.7916 17.9826 16.7021 18.0089C15.9999 18.1867 15.8133 18.0089 15.7244 17.3155C15.7118 17.2509 15.6908 17.1882 15.6621 17.1289L14.8266 17.7067C14.5275 17.9271 14.167 18.0483 13.7955 18.0533C13.4133 18.0533 13.2621 17.84 13.3955 17.4755C13.4762 17.2798 13.5807 17.0947 13.7066 16.9244C13.7999 16.7998 13.9008 16.681 14.0088 16.5689L13.9377 16.48C13.8397 16.5357 13.7388 16.5861 13.6355 16.6311C13.3531 16.7818 13.055 16.901 12.7466 16.9867C12.5097 17.0157 12.2869 17.1148 12.1066 17.2711C11.6082 17.7155 10.9898 18.003 10.3288 18.0978C10.1866 18.1319 10.0375 18.1249 9.89909 18.0777C9.76063 18.0305 9.6384 17.945 9.54659 17.8311C9.45132 17.7025 9.3999 17.5467 9.3999 17.3867C9.3999 17.2266 9.45132 17.0708 9.54659 16.9422C9.79823 16.5568 10.1522 16.249 10.5688 16.0533C11.1055 15.7275 11.7189 15.5496 12.3466 15.5378C12.9244 15.5378 13.1199 15.84 12.9066 16.4267L12.791 16.7111C13.0399 16.8267 13.2088 16.7111 13.3688 16.56C15.0238 15.4683 16.5848 14.2403 18.0355 12.8889L18.6933 12.3111C19.0133 12.0355 19.1555 12.0089 19.7244 12.1778C18.6844 13.12 17.671 14.0178 16.6844 14.9689C15.6977 15.92 14.6133 16.7467 13.6799 17.8044C13.7816 17.8617 13.8993 17.884 14.0149 17.8679C14.1305 17.8519 14.2377 17.7983 14.3199 17.7155C14.7555 17.4311 15.2088 17.12 15.6355 16.8267C16.3149 16.2551 17.1185 15.8503 17.9821 15.6444L18.4177 15.5911C18.5578 15.5574 18.7054 15.5782 18.8308 15.6491C18.9562 15.72 19.05 15.8359 19.0933 15.9733L20.7377 14.4444C21.4577 13.7689 22.1955 13.12 22.8799 12.4178C23.0192 12.2672 23.1986 12.1595 23.3971 12.1075C23.5955 12.0556 23.8047 12.0614 23.9999 12.1244ZM10.2399 17.9555C10.5439 17.8537 10.8408 17.7319 11.1288 17.5911C11.7405 17.2936 12.2575 16.832 12.6221 16.2578C12.7555 16.0178 12.6933 15.8578 12.4355 15.8578C12.1951 15.8568 11.9578 15.9116 11.7421 16.0178C11.0942 16.3808 10.5259 16.8706 10.071 17.4578C9.99992 17.5378 9.91992 17.6889 9.95547 17.7511C9.99103 17.8133 10.151 17.8755 10.2933 17.9555H10.2399ZM18.7288 16.0444C18.7288 15.8222 18.5866 15.7511 18.3555 15.8222C17.4663 16.1305 16.6998 16.7164 16.1688 17.4933C16.164 17.5198 16.164 17.5469 16.1688 17.5733C16.0888 17.7955 16.1688 17.8933 16.3821 17.8667C16.4666 17.8509 16.5478 17.8208 16.6221 17.7778C17.3811 17.4506 18.0536 16.9516 18.5866 16.32C18.644 16.2336 18.6917 16.1412 18.7288 16.0444ZM21.3955 16.5244L21.4399 16.64C21.7073 16.5987 21.9716 16.5393 22.231 16.4622C22.4549 16.3732 22.6669 16.2567 22.8621 16.1155C22.9155 16.1155 22.9244 15.9822 22.951 15.9111C22.9777 15.84 22.7821 15.7955 22.711 15.8133C22.2022 15.8948 21.7356 16.1453 21.3866 16.5244H21.3955Z" fill="#94862E"/>
<path d="M8.34666 10.9155H7.68889C6.65535 10.8548 5.6216 11.0311 4.66666 11.4311C4.17214 11.6297 3.72641 11.933 3.36 12.32C3.21009 12.4504 3.09789 12.6186 3.0351 12.8071C2.9723 12.9956 2.9612 13.1975 3.00296 13.3918C3.04471 13.586 3.1378 13.7655 3.27251 13.9116C3.40722 14.0576 3.57863 14.1649 3.76889 14.2222C4.21499 14.3538 4.6739 14.4372 5.13777 14.4711C5.19973 14.4659 5.26 14.4483 5.31499 14.4192C5.36997 14.3902 5.41854 14.3504 5.45777 14.3022C6.25418 13.4334 7.1994 12.714 8.24889 12.1777C9.19194 11.5813 10.2157 11.1233 11.2889 10.8177C11.7602 10.7232 12.2393 10.6726 12.72 10.6666C12.8395 10.6422 12.9636 10.6556 13.0751 10.705C13.1867 10.7544 13.28 10.8373 13.3422 10.9422C13.4003 11.0686 13.4144 11.2108 13.3822 11.3462C13.3499 11.4815 13.2733 11.6022 13.1644 11.6889C12.7682 12.0874 12.3301 12.442 11.8578 12.7466C10.2009 13.67 8.39636 14.2986 6.52444 14.6044C6.41233 14.6084 6.30304 14.6407 6.2067 14.6982C6.11037 14.7557 6.0301 14.8365 5.97333 14.9333C5.80268 15.1856 5.64543 15.4467 5.50222 15.7155C5.45238 15.7961 5.42531 15.8887 5.4239 15.9835C5.42248 16.0783 5.44677 16.1716 5.49419 16.2537C5.5416 16.3358 5.61036 16.4034 5.69316 16.4495C5.77597 16.4956 5.86971 16.5184 5.96444 16.5155C6.28257 16.5645 6.60631 16.5645 6.92444 16.5155C7.68199 16.346 8.40401 16.0452 9.05777 15.6266C9.41333 15.4133 9.76889 15.1911 10.1333 14.9866C10.2604 14.9229 10.3909 14.8665 10.5244 14.8177L10.5956 14.9422L10.24 15.2089C9.91111 15.4933 9.56444 15.76 9.26222 16.0977C8.74569 16.7487 8.14828 17.3312 7.48444 17.8311C6.90179 18.1877 6.24807 18.4123 5.56929 18.489C4.89051 18.5658 4.20314 18.4929 3.55555 18.2755C3.38084 18.232 3.22565 18.1314 3.11456 17.9897C3.00346 17.848 2.94281 17.6733 2.94222 17.4933V17.4489C2.94222 17.3074 2.99841 17.1717 3.09843 17.0717C3.19845 16.9717 3.3341 16.9155 3.47555 16.9155H3.55555C3.72444 16.9155 3.89333 16.9955 3.86666 17.1911C3.84 17.3866 3.71555 17.4133 3.61777 17.4844C3.51511 17.5379 3.40805 17.5825 3.29777 17.6177C3.37474 17.7495 3.47057 17.8693 3.58222 17.9733C3.71004 18.0684 3.85989 18.1296 4.01777 18.1511C4.54265 18.2836 5.09135 18.2907 5.61948 18.1718C6.14761 18.0528 6.64033 17.8113 7.05777 17.4666L7.94666 16.5777L7.90222 16.4889L7.46666 16.6133C6.94135 16.7815 6.38278 16.8181 5.84 16.72C5.65777 16.708 5.4816 16.6498 5.32807 16.551C5.17454 16.4521 5.04872 16.3157 4.96246 16.1548C4.8762 15.9938 4.83234 15.8135 4.83502 15.6309C4.8377 15.4483 4.88683 15.2694 4.97777 15.1111L5.12 14.7466C4.68444 14.6844 4.23111 14.6489 3.85777 14.56C3.48361 14.4824 3.15272 14.266 2.93172 13.9543C2.71071 13.6426 2.61601 13.2587 2.66666 12.88C2.80144 12.3801 3.11857 11.9488 3.55555 11.6711C4.23223 11.1974 5.0125 10.8926 5.83111 10.7822C6.55123 10.7018 7.27541 10.6632 8 10.6666C8.13311 10.6825 8.2642 10.7123 8.39111 10.7555L8.34666 10.9155ZM6.54222 14.2222L6.59555 14.3022C6.68423 14.3109 6.77354 14.3109 6.86222 14.3022C7.44 14.1511 8.02666 14.0355 8.64 13.8489C9.96081 13.4535 11.2115 12.8536 12.3467 12.0711C12.5952 11.8936 12.8168 11.681 13.0044 11.44C13.2533 11.12 13.1378 10.8711 12.7289 10.8889C12.2961 10.8974 11.8661 10.9601 11.4489 11.0755C10.0894 11.5063 8.83566 12.218 7.76889 13.1644C7.31555 13.5289 6.94222 13.8933 6.54222 14.2222Z" fill="#94862E"/>
<path fill-rule="evenodd" clip-rule="evenodd" d="M6.78201 19.5555C6.78201 19.5555 6.9509 19.6178 6.96868 19.7067C6.98646 19.7955 6.70201 20.8711 6.70201 20.8711C6.62947 20.9243 6.54297 20.9552 6.45312 20.96H7.34201C7.34201 20.96 7.1109 20.9511 7.1109 20.8889L7.20868 20.3822C7.20868 20.3822 7.74201 20.5244 7.93757 20.2578C7.97781 20.2165 8.00866 20.1671 8.02801 20.1128C8.04736 20.0585 8.05475 20.0007 8.04969 19.9433C8.04463 19.8859 8.02722 19.8303 7.99866 19.7802C7.97011 19.7302 7.93107 19.6869 7.88424 19.6533C7.52234 19.5749 7.15206 19.5421 6.78201 19.5555ZM7.34201 19.6889L7.24424 20.2044C7.24424 20.2044 7.60868 20.3111 7.6709 20.0444C7.73312 19.7778 7.34201 19.7244 7.34201 19.7244V19.6889Z" fill="white"/>
<path fill-rule="evenodd" clip-rule="evenodd" d="M9.97314 21.0222C10.0766 20.9833 10.1706 20.9227 10.2487 20.8444L11.1376 19.5378H11.3598L11.6087 20.9067C11.6372 20.943 11.6737 20.9723 11.7153 20.9923C11.7569 21.0123 11.8025 21.0226 11.8487 21.0222H11.0131C11.0131 21.0222 11.2531 20.9511 11.2443 20.8711C11.2353 20.7667 11.2204 20.6628 11.1998 20.56H10.6665L10.462 20.8622C10.462 20.8622 10.5331 21.0222 10.6754 21.0222H9.97314ZM10.7554 20.4H11.1643L11.102 19.9289L10.7554 20.4Z" fill="white"/>
<path fill-rule="evenodd" clip-rule="evenodd" d="M16 21.0222C16.1035 20.9833 16.1975 20.9227 16.2756 20.8444L17.1644 19.5378H17.3867L17.6356 20.9067C17.6641 20.943 17.7005 20.9723 17.7421 20.9923C17.7837 21.0123 17.8294 21.0226 17.8756 21.0222H17.04C17.04 21.0222 17.28 20.9511 17.2711 20.8711C17.2621 20.7667 17.2473 20.6628 17.2267 20.56H16.7022L16.4978 20.8622C16.4978 20.8622 16.5689 21.0222 16.7111 21.0222H16ZM16.7822 20.4H17.1911L17.1289 19.9289L16.7822 20.4Z" fill="white"/>
</g>
<defs>
<clipPath id="clip0_2707_338648">
<rect width="32" height="32" fill="white"/>
</clipPath>
</defs>
</svg>
