<svg width="32" height="32" viewBox="0 0 32 32" fill="none" xmlns="http://www.w3.org/2000/svg">
<circle cx="16" cy="16" r="16" fill="#21CA3E"/>
<path d="M25.1794 12.7231C23.3791 12.7231 21.9149 14.103 21.9126 15.8002V15.8033C21.9126 16.7152 21.1572 17.457 20.1004 17.457H19.6778C18.621 17.457 17.8656 16.7152 17.8656 15.8033L17.8697 14.1469H20.516V12.9175H17.8697V11.5555H16.6221V15.0858H16.5292C16.1855 13.7324 14.8947 12.7222 13.355 12.7222C11.8154 12.7222 10.5225 13.735 10.1801 15.0898H10.0882V12.9175H8.84469V13.3879C8.3635 13.0294 7.78487 12.8059 7.17513 12.743C6.56538 12.6801 5.94917 12.7805 5.39713 13.0325C4.84509 13.2845 4.37955 13.678 4.05386 14.168C3.72817 14.6579 3.55551 15.2244 3.55566 15.8026C3.55566 17.503 4.99812 18.8815 6.80247 18.8815C7.65807 18.8815 8.50735 18.4044 8.76725 17.8861H8.8457V18.2866C8.8457 19.193 7.93163 19.9928 6.72326 19.9928C5.55132 19.9928 4.49048 19.4442 3.95601 18.8285H3.88009V20.2652C4.45707 20.8014 5.42808 21.3333 6.82271 21.3333C8.58125 21.3333 10.0895 19.9792 10.0895 18.2563V16.515H10.1801C10.5227 17.8696 11.8144 18.8815 13.355 18.8815C14.8957 18.8815 16.1893 17.8682 16.531 16.5119H16.7132C17.0546 17.8682 18.3472 18.8815 19.8891 18.8815C20.406 18.881 20.9154 18.7648 21.3753 18.5423C21.8352 18.3199 22.2324 17.9976 22.5341 17.602C22.8615 18.029 23.2998 18.3696 23.8068 18.5912C24.3139 18.8128 24.8729 18.908 25.4301 18.8677C25.9874 18.8273 26.5244 18.6527 26.9896 18.3607C27.4548 18.0687 27.8327 17.669 28.087 17.1998C28.3413 16.7307 28.4636 16.2079 28.4421 15.6814C28.4207 15.155 28.2561 14.6426 27.9643 14.1932C27.6725 13.7439 27.2632 13.3727 26.7756 13.1152C26.2879 12.8577 25.7383 12.7226 25.1794 12.7227V12.7231ZM7.0325 17.456H6.61014C5.5536 17.456 4.7982 16.7142 4.7982 15.8026C4.7982 14.8909 5.5536 14.1498 6.61014 14.1498H7.0325C8.08929 14.1498 8.84469 14.8916 8.84469 15.8037C8.84469 16.7159 8.08929 17.456 7.0325 17.456ZM15.3785 15.8026C15.3785 16.7144 14.6231 17.4563 13.5663 17.4563H13.144C12.0872 17.4563 11.3315 16.7144 11.3315 15.8026C11.3315 14.8907 12.0872 14.1488 13.144 14.1488H13.5663C14.6231 14.1488 15.3785 14.8907 15.3785 15.8026ZM27.2029 15.8026C27.2029 16.7144 26.4473 17.4563 25.3905 17.4563H24.9681C23.9116 17.4563 23.1559 16.7144 23.1559 15.8026C23.1559 14.8907 23.9116 14.1488 24.9681 14.1488H25.3905C26.4473 14.1488 27.2029 14.8907 27.2029 15.8026Z" fill="white"/>
</svg>
