<svg width="32" height="32" viewBox="0 0 32 32" fill="none" xmlns="http://www.w3.org/2000/svg">
<g clip-path="url(#clip0_2707_338463)">
<path d="M15.9998 31.9822C24.8265 31.9822 31.982 24.8267 31.982 16C31.982 7.17325 24.8265 0.0177612 15.9998 0.0177612C7.17306 0.0177612 0.0175781 7.17325 0.0175781 16C0.0175781 24.8267 7.17306 31.9822 15.9998 31.9822Z" fill="white"/>
<path d="M19.5553 14.7822L19.0487 13.5022H12.3198C12.1598 13.9289 12.0087 14.3911 11.8576 14.7645H9.76868L9.27979 13.4578H7.31535C7.18875 13.4489 7.0701 13.3928 6.98286 13.3006C6.89562 13.2085 6.84615 13.0869 6.84424 12.96C6.84615 12.8355 6.89468 12.7162 6.98025 12.6256C7.06582 12.5351 7.18222 12.48 7.30646 12.4711H7.68868C7.68868 12.2667 7.68868 12.08 7.68868 11.9111C7.68867 11.8438 7.70207 11.7772 7.72808 11.7151C7.7541 11.6531 7.79222 11.5968 7.84021 11.5497C7.8882 11.5025 7.94511 11.4654 8.00761 11.4404C8.07012 11.4155 8.13696 11.4033 8.20424 11.4045C8.27085 11.4066 8.33632 11.4223 8.39662 11.4507C8.45693 11.4791 8.5108 11.5195 8.55492 11.5694C8.59904 11.6194 8.63248 11.6778 8.65319 11.7412C8.6739 11.8045 8.68144 11.8714 8.67535 11.9378C8.67535 12.2667 8.67535 12.56 8.67535 12.9422L14.2931 10C14.1486 9.90772 14.0371 9.77189 13.9748 9.61212C13.9125 9.45234 13.9026 9.2769 13.9465 9.11112C14.0353 8.76445 14.3465 8.65778 14.622 8.55112C14.702 7.57334 14.9776 7.20001 15.6087 7.20889C16.2398 7.21778 16.4976 7.56445 16.5687 8.47112C16.8087 8.70223 17.0842 8.87112 17.1909 9.12001C17.2454 9.41379 17.2454 9.71511 17.1909 10.0089L23.1109 12.96V12.24C23.0976 12.107 23.0976 11.973 23.1109 11.84C23.1283 11.7168 23.1905 11.6042 23.2856 11.5239C23.3807 11.4436 23.502 11.401 23.6265 11.4045C23.7447 11.4085 23.8574 11.4561 23.9427 11.5382C24.028 11.6202 24.08 11.7309 24.0887 11.8489C24.0887 12.0445 24.0887 12.24 24.142 12.4533C24.2763 12.4579 24.41 12.4727 24.542 12.4978C24.6507 12.5103 24.7514 12.5609 24.8263 12.6406C24.9011 12.7204 24.9453 12.8241 24.9509 12.9333C24.9605 13.0497 24.9281 13.1656 24.8596 13.2602C24.7912 13.3548 24.6911 13.4217 24.5776 13.4489C24.4478 13.4662 24.3162 13.4662 24.1865 13.4489H22.0976L21.5376 14.7822H19.5553ZM22.462 13.0845V13.0222C20.2931 11.9556 18.1242 10.8889 15.9642 9.80445C15.8691 9.76005 15.7639 9.74159 15.6593 9.75096C15.5547 9.76033 15.4544 9.79718 15.3687 9.85778L9.56424 12.9067C9.47775 12.9608 9.39463 13.0202 9.31535 13.0845H22.462ZM14.9242 8.77334C14.7674 8.81134 14.6131 8.85883 14.462 8.91556C14.3747 8.94712 14.2994 9.00524 14.2468 9.08177C14.1942 9.1583 14.1669 9.24938 14.1687 9.34223C14.1553 9.40074 14.1553 9.4615 14.1687 9.52001C14.2032 9.59714 14.2593 9.66258 14.3304 9.70835C14.4014 9.75412 14.4842 9.77824 14.5687 9.77778C14.646 9.77816 14.7222 9.75986 14.7909 9.72445C14.9599 9.65398 15.1234 9.57078 15.2798 9.47556C15.3835 9.39336 15.5119 9.34863 15.6442 9.34863C15.7766 9.34863 15.905 9.39336 16.0087 9.47556C16.2745 9.61432 16.5475 9.73894 16.8265 9.8489C17.0665 9.2089 17.0042 9.08445 16.2842 8.75556C16.2842 8.55112 16.2842 8.33778 16.2842 8.12445C16.2856 8.03294 16.2667 7.94225 16.229 7.85885C16.1913 7.77546 16.1357 7.70141 16.0661 7.64199C15.9965 7.58256 15.9146 7.53923 15.8263 7.51507C15.738 7.49091 15.6455 7.48653 15.5553 7.50223H15.502C15.3393 7.50223 15.1833 7.56685 15.0683 7.68187C14.9533 7.79689 14.8887 7.9529 14.8887 8.11556C14.9153 8.34667 14.9242 8.56001 14.9242 8.77334ZM11.9198 13.4845H9.68868L10.0176 14.3733H11.5998L11.9198 13.4845ZM19.4309 13.4845C19.5553 13.7956 19.662 14.08 19.7598 14.3733H21.3331L21.6442 13.4845H19.7598H19.4309ZM7.94646 12.6756C7.74101 12.6682 7.53537 12.6831 7.33313 12.72C7.28009 12.7473 7.23308 12.7849 7.19491 12.8307C7.15673 12.8766 7.12816 12.9296 7.11091 12.9867C7.11091 13.0311 7.25313 13.1822 7.33313 13.1911C7.61397 13.2179 7.89673 13.2179 8.17757 13.1911C8.25387 13.1846 8.32507 13.1501 8.37755 13.0944C8.43003 13.0386 8.46011 12.9654 8.46202 12.8889V12C8.46202 11.84 8.38202 11.6978 8.20424 11.6978C8.02646 11.6978 7.96424 11.84 7.95535 12C7.94646 12.16 7.94646 12.4445 7.94646 12.6756ZM23.9465 12.6756C23.9465 12.4089 23.9465 12.1333 23.9465 11.8667C23.9309 11.814 23.9024 11.7661 23.8636 11.7273C23.8248 11.6885 23.7769 11.66 23.7242 11.6445C23.6531 11.6445 23.4842 11.7511 23.4842 11.8133C23.4177 12.2182 23.4328 12.6322 23.5287 13.0311C23.6709 13.3422 24.1331 13.12 24.4176 13.1733C24.433 13.1799 24.4497 13.1833 24.4665 13.1833C24.4833 13.1833 24.4999 13.1799 24.5153 13.1733C24.5953 13.1111 24.7465 13.0222 24.7287 12.9689C24.7162 12.9109 24.6905 12.8567 24.6535 12.8104C24.6164 12.7641 24.5691 12.7271 24.5153 12.7022C24.3112 12.6816 24.1054 12.6846 23.902 12.7111L23.9465 12.6756Z" fill="#C6363B"/>
<path d="M13.1997 13.6H16.9775C16.8175 13.9111 16.6753 14.1778 16.5153 14.4889L16.9597 14.5689C17.3457 14.5966 17.7145 14.7393 18.0187 14.9785C18.3229 15.2177 18.5484 15.5425 18.6664 15.9111C18.8098 16.3315 18.8789 16.7736 18.8708 17.2178C18.8702 17.4718 18.8136 17.7225 18.7048 17.9521C18.5961 18.1816 18.438 18.3843 18.2418 18.5457C18.0456 18.707 17.8162 18.823 17.57 18.8854C17.3238 18.9479 17.0668 18.9551 16.8175 18.9066C16.533 18.9066 16.2664 18.7911 15.9286 18.7289C15.9286 19.2 15.9286 19.6622 15.9286 20.1244C15.9467 20.2672 16.0089 20.4008 16.1064 20.5066C16.4264 20.9422 16.7642 21.3955 17.1286 21.84H13.573C13.8308 21.4844 14.0353 21.1555 14.2753 20.8622C14.4446 20.6579 14.5332 20.3985 14.5242 20.1333C14.5242 18.5333 14.5242 16.9244 14.5242 15.3155C14.5271 15.1944 14.5031 15.0742 14.4539 14.9635C14.4047 14.8529 14.3316 14.7545 14.2397 14.6755C13.9286 14.3555 13.5997 14.0089 13.1997 13.6ZM16.3464 14H14.1153C14.2485 14.1509 14.391 14.2934 14.5419 14.4266C14.6747 14.5312 14.7792 14.6673 14.846 14.8225C14.9127 14.9778 14.9396 15.1472 14.9242 15.3155C14.9242 16.8089 14.9242 18.2933 14.9242 19.76C14.9665 20.0421 14.9445 20.3302 14.8598 20.6026C14.7752 20.8751 14.63 21.1248 14.4353 21.3333C14.391 21.3965 14.3551 21.4653 14.3286 21.5378H16.4086C16.1686 21.2089 15.9642 20.9422 15.7686 20.6489C15.6751 20.5359 15.6109 20.4015 15.5819 20.2578C15.5819 19.4578 15.5819 18.6578 15.5819 17.8133C15.6402 17.8445 15.694 17.8834 15.7419 17.9289C15.9789 18.2491 16.3245 18.4719 16.714 18.5553C17.1036 18.6388 17.5101 18.5772 17.8575 18.3822C18.0032 18.3037 18.1312 18.1962 18.2337 18.0662C18.3361 17.9363 18.4108 17.7866 18.453 17.6266C18.584 17.1262 18.5529 16.5971 18.3642 16.1155C18.279 15.8107 18.1018 15.5395 17.8568 15.339C17.6118 15.1386 17.311 15.0186 16.9953 14.9955C16.6105 14.9689 16.2244 14.9689 15.8397 14.9955L16.3464 14Z" fill="#C6363B"/>
<path d="M11.8578 20.8C11.8704 20.8646 11.8913 20.9274 11.92 20.9867L12.4356 22.4089H9.17334C9.35112 21.9111 9.5289 21.44 9.69778 20.96C9.72885 20.909 9.75561 20.8555 9.77778 20.8H11.8578ZM11.5911 21.1733H10.0089L9.73334 22.0178H11.9022L11.5911 21.1733ZM9.81334 20.6489V14.88H11.8933C11.8933 16.8 11.8933 18.723 11.8933 20.6489H9.81334ZM11.52 20.32V15.2267H10.1245V20.32H11.52Z" fill="#C6363B"/>
<path d="M21.5285 14.8444C21.5285 15.0222 21.5285 15.2089 21.5285 15.3866C21.5285 17.1644 21.5285 18.9422 21.5285 20.6578H19.5552V14.88L21.5285 14.8444ZM21.1907 20.3111V15.2266H19.8752V20.32L21.1907 20.3111Z" fill="#C6363B"/>
<path d="M21.6175 20.8444L22.1597 22.4089H18.8975C19.1108 21.84 19.3241 21.3244 19.5286 20.8L21.6175 20.8444ZM21.6175 22.0355C21.5019 21.7155 21.4041 21.44 21.2975 21.1467H19.7686L19.4397 22.0355H21.6175Z" fill="#C6363B"/>
<path d="M11.0044 12.6044C11.1111 12.4978 14.0266 10.8267 15.36 10.1244C15.4356 10.0762 15.5235 10.0505 15.6133 10.0505C15.703 10.0505 15.7909 10.0762 15.8666 10.1244L20.1422 12.3289C20.2318 12.3673 20.3156 12.4182 20.3911 12.48C20.4099 12.4969 20.4252 12.5174 20.4359 12.5403C20.4466 12.5632 20.4525 12.5881 20.4533 12.6133C20.4533 12.6558 20.4364 12.6965 20.4064 12.7265C20.3764 12.7565 20.3357 12.7733 20.2933 12.7733C20.1927 12.7822 20.0916 12.7822 19.9911 12.7733H11.4933C11.3511 12.7733 11.2088 12.7733 11.0666 12.7733L11.0044 12.6044ZM19.2977 12.4444V12.3467L15.7422 10.5689C15.5377 10.4622 15.3955 10.5689 15.2355 10.6578L12.8088 11.9911C12.5599 12.1244 12.3022 12.2667 11.9199 12.4711L19.2977 12.4444Z" fill="#C6363B"/>
<path d="M15.7152 16.1422C15.7152 15.76 15.7597 15.3956 16.1597 15.2533C16.5597 15.1111 16.8174 15.2533 17.1463 15.6533C17.565 16.1475 17.7753 16.7849 17.733 17.4311C17.7412 17.5913 17.7006 17.7501 17.6164 17.8867C17.5323 18.0232 17.4086 18.1309 17.2619 18.1956C17.1178 18.2421 16.9629 18.2432 16.8182 18.1986C16.6735 18.1541 16.546 18.0661 16.453 17.9467C16.2115 17.7136 16.0212 17.4328 15.8942 17.1221C15.7672 16.8114 15.7062 16.4777 15.7152 16.1422ZM17.1374 17.7778C17.3069 17.5644 17.3865 17.2934 17.3597 17.0222C17.2949 16.5706 17.1003 16.1476 16.7997 15.8045C16.6841 15.6978 16.4352 15.5645 16.3463 15.6089C16.2706 15.6636 16.2076 15.734 16.1615 15.8153C16.1155 15.8966 16.0876 15.9869 16.0797 16.08C16.0598 16.6127 16.2478 17.1323 16.6041 17.5289C16.7463 17.6622 16.8886 17.8756 17.1374 17.7778Z" fill="#C6363B"/>
<path fill-rule="evenodd" clip-rule="evenodd" d="M16.5153 23.6267C16.5424 23.6388 16.5663 23.6572 16.5848 23.6804C16.6034 23.7036 16.6161 23.7309 16.622 23.76C16.622 23.8755 16.622 24.5867 16.622 24.5867C16.622 24.5867 16.622 24.72 16.4976 24.72H16.8176C16.8176 24.72 16.702 24.6667 16.702 24.5867V23.8667L17.1642 24.7022L17.7242 23.8133V24.5867C17.7136 24.6189 17.6934 24.6471 17.6665 24.6677C17.6395 24.6883 17.607 24.7004 17.5731 24.7022H17.9909C17.9909 24.7022 17.8753 24.7022 17.8664 24.5867V23.6978C17.8664 23.6978 17.9464 23.5822 18.0353 23.5822H17.7064L17.2264 24.3733L16.8887 23.6267H16.542" fill="#C6363B"/>
<path fill-rule="evenodd" clip-rule="evenodd" d="M15.9287 23.6266C15.9287 23.6266 16.0265 23.6266 16.0443 23.7866C16.062 23.9466 16.0443 24.5511 16.0443 24.5511C16.0443 24.5511 16.0443 24.6844 15.9465 24.7022H16.3287C16.2951 24.6884 16.2663 24.665 16.2457 24.635C16.2252 24.605 16.2139 24.5697 16.2132 24.5333V23.7866C16.2132 23.7866 16.2132 23.6444 16.3376 23.6266H15.9287Z" fill="#C6363B"/>
<path fill-rule="evenodd" clip-rule="evenodd" d="M9.65332 23.6266C9.69171 23.6349 9.72603 23.6563 9.75037 23.6871C9.7747 23.7179 9.78753 23.7563 9.78665 23.7955C9.78665 23.9289 9.78665 24.3733 9.78665 24.3733C9.78665 24.3733 9.78665 24.7022 10.2844 24.7022C10.7822 24.7022 10.8 24.3644 10.8 24.3644V23.7778C10.8 23.7778 10.8 23.6266 10.9155 23.6266H10.5333C10.5333 23.6266 10.6667 23.6266 10.6578 23.76V24.3555C10.6411 24.4371 10.5965 24.5102 10.5315 24.5621C10.4665 24.6141 10.3854 24.6417 10.3022 24.64C10.2637 24.6465 10.2241 24.6445 10.1865 24.634C10.1488 24.6236 10.1139 24.605 10.0842 24.5795C10.0545 24.5541 10.0308 24.5224 10.0147 24.4868C9.99861 24.4511 9.99055 24.4124 9.9911 24.3733V23.8044C9.98982 23.7641 10.0023 23.7245 10.0266 23.6921C10.0508 23.6598 10.0853 23.6367 10.1244 23.6266H9.65332Z" fill="#C6363B"/>
<path fill-rule="evenodd" clip-rule="evenodd" d="M23.7598 23.6266C23.7982 23.6349 23.8325 23.6563 23.8568 23.6871C23.8811 23.7179 23.894 23.7563 23.8931 23.7955C23.8931 23.9289 23.8931 24.3733 23.8931 24.3733C23.8931 24.3733 23.8931 24.7022 24.3909 24.7022C24.8887 24.7022 24.9064 24.3644 24.9064 24.3644V23.7778C24.9064 23.7778 24.9064 23.6266 25.022 23.6266H24.6487C24.6487 23.6266 24.7731 23.6266 24.7642 23.76V24.3555C24.7476 24.4371 24.7029 24.5102 24.6379 24.5621C24.573 24.6141 24.4918 24.6417 24.4087 24.64C24.3701 24.6465 24.3306 24.6445 24.2929 24.634C24.2552 24.6236 24.2203 24.605 24.1906 24.5795C24.161 24.5541 24.1372 24.5224 24.1211 24.4868C24.1051 24.4511 24.097 24.4124 24.0975 24.3733V23.8044C24.0963 23.7641 24.1088 23.7245 24.133 23.6921C24.1572 23.6598 24.1918 23.6367 24.2309 23.6266H23.7598Z" fill="#C6363B"/>
<path fill-rule="evenodd" clip-rule="evenodd" d="M7.11074 23.9377V23.5822C7.11074 23.5822 7.04852 23.68 7.03074 23.6711C6.91155 23.6133 6.78096 23.583 6.64852 23.5822C6.56291 23.5776 6.47733 23.5919 6.39783 23.624C6.31832 23.6561 6.24682 23.7052 6.18835 23.7679C6.12988 23.8306 6.08586 23.9054 6.0594 23.987C6.03294 24.0685 6.02468 24.1549 6.03519 24.24C6.03519 24.6311 6.45297 24.7644 6.64852 24.7644C7.03963 24.7644 7.13741 24.6222 7.13741 24.6222V24.2311C7.13741 24.2311 7.13741 24.1866 7.24408 24.1866V24.1244H6.75519V24.1777C6.75519 24.1777 6.87074 24.1777 6.87963 24.2222C6.88852 24.2666 6.87963 24.5955 6.87963 24.5955C6.87963 24.5955 6.80852 24.6933 6.59519 24.6755C6.48265 24.669 6.37658 24.6207 6.29769 24.5402C6.21881 24.4597 6.17275 24.3526 6.16852 24.24C6.16852 24.0622 6.16852 23.6977 6.5863 23.6889C7.00408 23.68 7.11074 23.9377 7.11074 23.9377Z" fill="#C6363B"/>
<path fill-rule="evenodd" clip-rule="evenodd" d="M21.0043 23.9377V23.5822C21.0043 23.5822 20.9421 23.68 20.9243 23.6711C20.8051 23.6133 20.6745 23.583 20.5421 23.5822C20.4565 23.5776 20.3709 23.5919 20.2914 23.624C20.2119 23.6561 20.1404 23.7052 20.0819 23.7679C20.0234 23.8306 19.9794 23.9054 19.953 23.987C19.9265 24.0685 19.9182 24.1549 19.9287 24.24C19.9287 24.6311 20.3465 24.7644 20.5421 24.7644C20.9243 24.7644 21.031 24.6222 21.031 24.6222V24.2311C21.031 24.2311 21.031 24.1866 21.1376 24.1866V24.1244H20.7021V24.1777C20.7021 24.1777 20.8176 24.1777 20.8265 24.2222C20.8354 24.2666 20.8265 24.5955 20.8265 24.5955C20.8265 24.5955 20.7554 24.6933 20.5421 24.6755C20.4295 24.669 20.3235 24.6207 20.2446 24.5402C20.1657 24.4597 20.1196 24.3526 20.1154 24.24C20.1154 24.0622 20.1154 23.6977 20.5332 23.6889C20.951 23.68 21.0043 23.9377 21.0043 23.9377Z" fill="#C6363B"/>
<path fill-rule="evenodd" clip-rule="evenodd" d="M7.23535 24.72C7.29165 24.6863 7.34258 24.6443 7.38646 24.5955L7.91091 23.5822L8.38202 24.5867C8.42226 24.6406 8.47811 24.681 8.54202 24.7022H8.12424C8.12424 24.7022 8.22202 24.6311 8.20424 24.5689C8.17586 24.493 8.14321 24.4188 8.10646 24.3467H7.62646L7.49313 24.6044C7.49743 24.6343 7.51242 24.6615 7.53531 24.6812C7.5582 24.7008 7.58743 24.7114 7.61757 24.7111L7.23535 24.72ZM7.67091 24.2489L7.86646 23.8667L8.06202 24.2489H7.67091Z" fill="#C6363B"/>
<path fill-rule="evenodd" clip-rule="evenodd" d="M12.2041 24.72C12.2621 24.6887 12.3134 24.6465 12.3552 24.5955C12.3552 24.5422 12.8885 23.5822 12.8885 23.5822L13.333 24.5867C13.3732 24.6406 13.4291 24.681 13.493 24.7022H13.0663C13.0663 24.7022 13.173 24.6311 13.1552 24.5689C13.1268 24.493 13.0942 24.4188 13.0574 24.3467H12.5774L12.4441 24.6044C12.4463 24.6335 12.4595 24.6607 12.4809 24.6805C12.5024 24.7002 12.5305 24.7112 12.5597 24.7111L12.2041 24.72ZM12.6397 24.2489L12.8441 23.8667L13.0397 24.2489H12.6397Z" fill="#C6363B"/>
<path fill-rule="evenodd" clip-rule="evenodd" d="M18.0889 24.72C18.1452 24.6863 18.1961 24.6443 18.24 24.5955L18.7644 23.5822L19.2355 24.5867C19.2758 24.6406 19.3316 24.681 19.3955 24.7022H18.9778C18.9778 24.7022 19.0755 24.6311 19.0578 24.5689C19.0333 24.4915 19.0005 24.417 18.96 24.3467H18.4889L18.3466 24.6044C18.3509 24.6343 18.3659 24.6615 18.3888 24.6812C18.4117 24.7008 18.4409 24.7114 18.4711 24.7111L18.0889 24.72ZM18.5244 24.2489L18.72 23.8667L18.9155 24.2489H18.5244Z" fill="#C6363B"/>
<path fill-rule="evenodd" clip-rule="evenodd" d="M8.63086 23.6266C8.63086 23.6266 8.79086 23.6711 8.80864 23.7866V24.5955C8.80864 24.5955 8.80864 24.6844 8.6753 24.7022H9.09308C9.09308 24.7022 8.98642 24.7022 8.97753 24.5866C8.96864 24.4711 8.97753 24.2133 8.97753 24.2133H9.27086C9.30778 24.2157 9.3448 24.2107 9.37972 24.1985C9.41464 24.1862 9.44675 24.1671 9.47412 24.1422C9.5015 24.1174 9.52358 24.0872 9.53905 24.0536C9.55453 24.02 9.56308 23.9836 9.56419 23.9466C9.56659 23.9074 9.56107 23.8681 9.54797 23.831C9.53486 23.7939 9.51443 23.7598 9.48789 23.7308C9.46136 23.7018 9.42926 23.6784 9.3935 23.662C9.35774 23.6457 9.31906 23.6367 9.27975 23.6355L8.63086 23.6266ZM8.98641 23.7244V24.1511H9.22641C9.25103 24.1478 9.27476 24.1397 9.29619 24.1271C9.31762 24.1146 9.33634 24.0979 9.35124 24.078C9.36614 24.0582 9.37692 24.0355 9.38296 24.0114C9.389 23.9874 9.39018 23.9623 9.38642 23.9378C9.3866 23.8841 9.36658 23.8324 9.33034 23.7929C9.2941 23.7533 9.2443 23.7289 9.19086 23.7244H8.98641Z" fill="#C6363B"/>
<path fill-rule="evenodd" clip-rule="evenodd" d="M13.582 23.6266C13.582 23.6266 13.742 23.6711 13.7598 23.7866V24.5955C13.7598 24.5955 13.7598 24.6844 13.6354 24.7022H14.0443C14.0443 24.7022 13.9465 24.7022 13.9287 24.5866C13.9109 24.4711 13.9287 24.2133 13.9287 24.2133H14.222C14.2585 24.2158 14.2951 24.2107 14.3295 24.1984C14.364 24.1861 14.3955 24.1668 14.4222 24.1418C14.4489 24.1168 14.4701 24.0865 14.4846 24.053C14.4991 24.0194 14.5066 23.9832 14.5065 23.9466C14.5089 23.9074 14.5034 23.8681 14.4903 23.831C14.4771 23.7939 14.4567 23.7598 14.4302 23.7308C14.4036 23.7018 14.3715 23.6784 14.3358 23.662C14.3 23.6457 14.2613 23.6367 14.222 23.6355L13.582 23.6266ZM13.9376 23.7244V24.1511H14.222C14.2467 24.1478 14.2704 24.1397 14.2918 24.1271C14.3132 24.1146 14.332 24.0979 14.3469 24.078C14.3618 24.0582 14.3725 24.0355 14.3786 24.0114C14.3846 23.9874 14.3858 23.9623 14.382 23.9378C14.3803 23.8847 14.3596 23.834 14.3237 23.7949C14.2879 23.7558 14.2392 23.7308 14.1865 23.7244H13.9376Z" fill="#C6363B"/>
<path fill-rule="evenodd" clip-rule="evenodd" d="M25.1021 23.6266C25.1021 23.6266 25.2532 23.6711 25.2709 23.7866V24.5955C25.2709 24.5955 25.2709 24.6844 25.1465 24.7022H25.5643C25.5643 24.7022 25.4576 24.7022 25.4487 24.5866C25.4396 24.4624 25.4396 24.3376 25.4487 24.2133H25.7776C25.8141 24.2158 25.8507 24.2107 25.8851 24.1984C25.9196 24.1861 25.9511 24.1668 25.9778 24.1418C26.0044 24.1168 26.0257 24.0865 26.0402 24.053C26.0547 24.0194 26.0621 23.9832 26.0621 23.9466C26.0645 23.9074 26.0589 23.8681 26.0458 23.831C26.0327 23.7939 26.0123 23.7598 25.9858 23.7308C25.9592 23.7018 25.9271 23.6784 25.8914 23.662C25.8556 23.6457 25.8169 23.6367 25.7776 23.6355L25.1021 23.6266ZM25.4487 23.7244V24.1511H25.6976C25.7222 24.1478 25.7459 24.1397 25.7674 24.1271C25.7888 24.1146 25.8075 24.0979 25.8224 24.078C25.8373 24.0582 25.8481 24.0355 25.8542 24.0114C25.8602 23.9874 25.8614 23.9623 25.8576 23.9378C25.8559 23.8847 25.8352 23.834 25.7993 23.7949C25.7634 23.7558 25.7148 23.7308 25.6621 23.7244H25.4487Z" fill="#C6363B"/>
<path fill-rule="evenodd" clip-rule="evenodd" d="M11.5019 24.2133H11.333C11.333 24.2133 11.333 24.5155 11.333 24.5866C11.333 24.6578 11.4574 24.7022 11.4574 24.7022H11.0397C11.1641 24.7022 11.1641 24.5955 11.1641 24.5955V23.7866C11.1641 23.6711 10.9863 23.6266 10.9863 23.6266H11.6352C11.6745 23.6278 11.7132 23.6368 11.749 23.6531C11.7847 23.6695 11.8168 23.6929 11.8434 23.7219C11.8699 23.751 11.8903 23.785 11.9034 23.8221C11.9165 23.8592 11.9221 23.8985 11.9197 23.9378C11.9208 23.9716 11.9154 24.0054 11.9035 24.0371C11.8916 24.0688 11.8736 24.0979 11.8505 24.1227C11.8274 24.1474 11.7996 24.1674 11.7688 24.1814C11.7379 24.1955 11.7046 24.2033 11.6708 24.2044C11.6708 24.2044 11.9108 24.5244 11.9819 24.5955C12.0376 24.6342 12.0972 24.6669 12.1597 24.6933H11.893L11.5019 24.2133ZM11.3419 23.7244V24.1511H11.5552C11.5798 24.1478 11.6036 24.1397 11.625 24.1271C11.6464 24.1146 11.6651 24.0979 11.68 24.078C11.6949 24.0582 11.7057 24.0355 11.7118 24.0114C11.7178 23.9874 11.719 23.9623 11.7152 23.9378C11.7135 23.8847 11.6928 23.834 11.6569 23.7949C11.6211 23.7558 11.5724 23.7308 11.5197 23.7244H11.3419Z" fill="#C6363B"/>
<path fill-rule="evenodd" clip-rule="evenodd" d="M21.7153 24.2133H21.5464C21.5464 24.2133 21.5464 24.5155 21.5464 24.5866C21.5464 24.6578 21.6619 24.7022 21.6619 24.7022H21.253C21.3775 24.7022 21.3775 24.5955 21.3775 24.5955V23.7866C21.3775 23.6711 21.1997 23.6266 21.1997 23.6266H21.8486C21.8879 23.6278 21.9266 23.6368 21.9623 23.6531C21.9981 23.6695 22.0302 23.6929 22.0567 23.7219C22.0833 23.751 22.1037 23.785 22.1168 23.8221C22.1299 23.8592 22.1354 23.8985 22.133 23.9378C22.1342 23.9716 22.1287 24.0054 22.1169 24.0371C22.105 24.0688 22.087 24.0979 22.0639 24.1227C22.0408 24.1474 22.013 24.1674 21.9821 24.1814C21.9513 24.1955 21.918 24.2033 21.8842 24.2044C21.8842 24.2044 22.1242 24.5244 22.1953 24.5955C22.2472 24.6351 22.304 24.668 22.3642 24.6933H22.1064L21.7153 24.2133ZM21.5553 23.7244V24.1511H21.8042C21.8288 24.1478 21.8525 24.1397 21.8739 24.1271C21.8954 24.1146 21.9141 24.0979 21.929 24.078C21.9439 24.0582 21.9547 24.0355 21.9607 24.0114C21.9667 23.9874 21.9679 23.9623 21.9642 23.9378C21.9624 23.8847 21.9417 23.834 21.9059 23.7949C21.87 23.7558 21.8213 23.7308 21.7686 23.7244H21.5553Z" fill="#C6363B"/>
<path fill-rule="evenodd" clip-rule="evenodd" d="M23.0398 23.5645C23.1954 23.5645 23.3446 23.6263 23.4546 23.7363C23.5646 23.8463 23.6265 23.9955 23.6265 24.1511C23.6265 24.3067 23.5646 24.4559 23.4546 24.566C23.3446 24.676 23.1954 24.7378 23.0398 24.7378C22.8842 24.7378 22.735 24.676 22.625 24.566C22.5149 24.4559 22.4531 24.3067 22.4531 24.1511C22.4531 23.9955 22.5149 23.8463 22.625 23.7363C22.735 23.6263 22.8842 23.5645 23.0398 23.5645ZM23.0398 23.6267C23.2531 23.6267 23.4309 23.8578 23.4309 24.1511C23.4309 24.4445 23.2531 24.6756 23.0398 24.6756C22.8265 24.6756 22.6576 24.4356 22.6576 24.1511C22.6576 23.8667 22.8353 23.6267 23.0398 23.6267Z" fill="#C6363B"/>
<path fill-rule="evenodd" clip-rule="evenodd" d="M15.1108 24.2133H14.9419C14.9419 24.2133 14.9419 24.5155 14.9419 24.5866C14.9419 24.6578 15.0663 24.7022 15.0663 24.7022H14.6485C14.7819 24.7022 14.773 24.5955 14.773 24.5955V23.7866C14.773 23.6711 14.5952 23.6266 14.5952 23.6266H15.2441C15.2834 23.6278 15.3221 23.6368 15.3579 23.6531C15.3936 23.6695 15.4257 23.6929 15.4523 23.7219C15.4788 23.751 15.4992 23.785 15.5123 23.8221C15.5254 23.8592 15.5309 23.8985 15.5285 23.9378C15.5297 23.9716 15.5242 24.0054 15.5124 24.0371C15.5005 24.0688 15.4825 24.0979 15.4594 24.1227C15.4363 24.1474 15.4085 24.1674 15.3777 24.1814C15.3468 24.1955 15.3135 24.2033 15.2797 24.2044C15.2797 24.2044 15.5197 24.5244 15.5908 24.5955C15.6465 24.6342 15.7061 24.6669 15.7685 24.6933H15.5019L15.1108 24.2133ZM14.9508 23.7244V24.1511H15.1997C15.2243 24.1478 15.248 24.1397 15.2694 24.1271C15.2909 24.1146 15.3096 24.0979 15.3245 24.078C15.3394 24.0582 15.3502 24.0355 15.3562 24.0114C15.3622 23.9874 15.3634 23.9623 15.3597 23.9378C15.3579 23.8847 15.3372 23.834 15.3014 23.7949C15.2655 23.7558 15.2168 23.7308 15.1641 23.7244H14.9508Z" fill="#C6363B"/>
</g>
<defs>
<clipPath id="clip0_2707_338463">
<rect width="32" height="32" fill="white"/>
</clipPath>
</defs>
</svg>
