<svg width="32" height="32" viewBox="0 0 32 32" fill="none" xmlns="http://www.w3.org/2000/svg">
<g clip-path="url(#clip0_2737_121447)">
<mask id="mask0_2737_121447" style="mask-type:luminance" maskUnits="userSpaceOnUse" x="0" y="0" width="32" height="32">
<path d="M31.9909 0.0177612H0.0175781V31.9911H31.9909V0.0177612Z" fill="white"/>
</mask>
<g mask="url(#mask0_2737_121447)">
<path d="M15.9998 31.9822C24.8265 31.9822 31.982 24.8267 31.982 16C31.982 7.17325 24.8265 0.0177612 15.9998 0.0177612C7.17306 0.0177612 0.0175781 7.17325 0.0175781 16C0.0175781 24.8267 7.17306 31.9822 15.9998 31.9822Z" fill="white"/>
<path fill-rule="evenodd" clip-rule="evenodd" d="M18.6401 15.7244V11.2C18.6401 11.2 18.6757 11.2 18.6846 11.2C19.0224 11.2 19.369 11.2 19.7068 11.2088C20.089 11.2266 20.4535 11.3422 20.7912 11.5288C21.3779 11.8488 21.8135 12.3022 22.0712 12.9155C22.2135 13.2355 22.2846 13.5733 22.2846 13.92C22.2846 15.6888 22.2846 17.4666 22.2846 19.2355V19.3688H22.1868C20.0001 19.3688 17.8135 19.3688 15.6179 19.3688C15.2446 19.3688 14.8712 19.3155 14.4979 19.2444C14.0712 19.1644 13.6535 19.0488 13.2446 18.8977C12.8268 18.7466 12.4357 18.56 12.0446 18.3377C11.6624 18.1155 11.289 17.8755 10.9601 17.5733C10.6757 17.3244 10.4001 17.0577 10.1512 16.7733C9.90235 16.4977 9.68013 16.1955 9.47568 15.8933C9.11124 15.36 8.84457 14.7822 8.64902 14.16C8.53346 13.7955 8.44457 13.4311 8.40013 13.0488C8.37346 12.8177 8.34679 12.5777 8.32902 12.3377C8.32013 12.1511 8.30235 11.9644 8.31124 11.7777C8.32902 11.4844 8.35568 11.1822 8.39124 10.8888C8.43568 10.5155 8.52457 10.1511 8.64013 9.79551C8.76457 9.39551 8.93346 9.0044 9.12902 8.63107C9.37791 8.16885 9.67124 7.73329 10.009 7.33329C10.409 6.86218 10.8535 6.4444 11.3512 6.08885C11.9112 5.67996 12.5157 5.35107 13.1646 5.10218C13.5557 4.95107 13.9557 4.82663 14.3646 4.74663C14.6312 4.69329 14.9068 4.65774 15.1824 4.62218C15.3779 4.59551 15.5735 4.58663 15.769 4.58663C16.5779 4.58663 17.3957 4.56885 18.2046 4.56885C19.529 4.56885 20.8446 4.56885 22.169 4.56885H22.2757C22.2757 4.79107 22.2846 4.99551 22.2757 5.20885C22.2579 5.59107 22.1512 5.9644 21.9912 6.31107C21.7868 6.7644 21.4846 7.14663 21.1024 7.46662C20.7112 7.79551 20.2579 8.02663 19.7512 8.14218C19.5201 8.19551 19.2979 8.21329 19.0668 8.21329C18.009 8.21329 16.9424 8.2044 15.8846 8.21329C15.3335 8.21329 14.809 8.33774 14.3024 8.55996C13.8135 8.77329 13.3868 9.05774 13.0135 9.43996C12.5868 9.8844 12.2846 10.4 12.1157 10.9866C12.0446 11.2266 12.0001 11.4755 11.9823 11.7333C11.9201 12.5511 12.1246 13.2888 12.5868 13.9644C13.0579 14.6666 13.7068 15.1466 14.489 15.4488C14.9068 15.6088 15.3335 15.7066 15.7779 15.7155C16.7201 15.7155 17.6712 15.7244 18.6135 15.7333C18.6224 15.7333 18.6312 15.7333 18.649 15.7333L18.6401 15.7244ZM11.609 23.1022C11.7868 23.3955 11.9646 23.68 12.1335 23.9644C12.249 24.1511 12.4001 24.3022 12.6135 24.3644C12.6223 24.4977 12.6135 24.4977 12.489 24.5155C12.1779 24.56 11.9112 24.4977 11.7068 24.2488C11.609 24.1244 11.5112 24 11.4224 23.8666C11.2979 23.6711 11.1735 23.4666 11.0579 23.2533C11.0046 23.1466 10.9335 23.1111 10.809 23.1466V24.48H10.2046V24.3733C10.2046 23.5911 10.2046 22.8088 10.2046 22.0266C10.2046 21.9466 10.1868 21.8666 10.1601 21.7866C10.1246 21.6977 10.0446 21.6533 9.94679 21.6533C9.92013 21.6533 9.88457 21.6533 9.84902 21.6533V21.52C9.84902 21.52 9.89346 21.52 9.91124 21.52C10.3646 21.52 10.809 21.52 11.2624 21.52C11.5468 21.52 11.8135 21.5911 12.0446 21.76C12.409 22.0355 12.4268 22.7288 11.9201 22.9688C11.8135 23.0222 11.7068 23.0577 11.5912 23.1022H11.609ZM10.8357 21.7333V22.9422C11.1468 22.9422 11.4579 22.9777 11.6268 22.6488C11.7512 22.4 11.7424 22.1333 11.5646 21.9111C11.3779 21.6711 11.1023 21.6977 10.8357 21.7422V21.7333ZM19.049 21.7155V21.5111C19.1112 21.5111 19.1824 21.5111 19.2446 21.5111C19.3601 21.5111 19.4668 21.5111 19.5824 21.5111C19.8935 21.4933 19.9824 21.6533 19.9912 21.9111C20.0001 22.1866 19.9912 22.4533 19.9912 22.7288C19.9912 22.7555 19.9912 22.7822 19.9912 22.8177H21.1824V21.52H21.7779V21.6088C21.7779 22.3466 21.7779 23.0755 21.7779 23.8133C21.7779 23.9288 21.7957 24.0533 21.8312 24.1688C21.8668 24.3022 21.9379 24.3377 22.0712 24.3377C22.089 24.3377 22.1068 24.3377 22.1335 24.3377V24.4711C21.9112 24.4711 21.6979 24.48 21.4846 24.4711C21.3157 24.4622 21.2179 24.3466 21.209 24.16C21.1912 23.8666 21.1912 23.5733 21.1912 23.2888C21.1912 23.2088 21.1912 23.1288 21.1912 23.0488H20.0001V24.48H19.4046C19.4046 24.48 19.4046 24.4088 19.4046 24.3733C19.4046 23.6444 19.4046 22.9155 19.4046 22.1866C19.4046 22.1066 19.4046 22.0266 19.3779 21.9466C19.3512 21.7955 19.2624 21.7244 19.1112 21.7244C19.0935 21.7244 19.0757 21.7244 19.049 21.7244V21.7155ZM9.43124 22.4088C9.27124 22.4266 9.27124 22.4266 9.23568 22.3022C9.12013 21.8755 8.86235 21.6444 8.39124 21.6266C8.07124 21.6177 7.81346 21.7244 7.61791 21.9822C7.47568 22.1688 7.41346 22.3911 7.37791 22.6222C7.33346 22.9866 7.34235 23.3422 7.44902 23.6888C7.57346 24.0977 7.84013 24.3733 8.32902 24.3733C8.50679 24.3733 8.67568 24.3555 8.83568 24.3022C8.90679 24.2755 8.94235 24.2488 8.93346 24.1688C8.93346 23.9466 8.93346 23.7244 8.93346 23.5022C8.92457 23.1822 9.08457 23.04 9.36013 22.9688C9.48457 22.9333 9.61791 22.9244 9.75124 22.9066V23.0222C9.56457 23.1022 9.53791 23.1466 9.53791 23.3511C9.53791 23.6355 9.53791 23.9111 9.53791 24.1955C9.53791 24.24 9.52013 24.2666 9.48457 24.2933C9.20902 24.4444 8.92457 24.5333 8.61346 24.5511C8.51568 24.5511 8.41791 24.5688 8.32013 24.5688C7.86679 24.5688 7.47568 24.4088 7.15568 24.08C6.92457 23.84 6.79124 23.5466 6.73791 23.2177C6.66679 22.7466 6.75568 22.3022 7.06679 21.9288C7.30679 21.6355 7.61791 21.4755 7.99124 21.44C8.31124 21.4044 8.62235 21.4311 8.91568 21.5466C9.00457 21.5822 9.09346 21.6355 9.18235 21.6888C9.27124 21.7422 9.34235 21.8222 9.36013 21.9288C9.38679 22.0888 9.40457 22.2488 9.42235 22.4177L9.43124 22.4088ZM13.9468 21.6533V21.52C13.9468 21.52 14.0001 21.52 14.0268 21.52C14.4624 21.52 14.8979 21.52 15.3335 21.52C15.609 21.52 15.8757 21.5911 16.1068 21.76C16.2757 21.8933 16.3735 22.0711 16.3912 22.2844C16.4179 22.5333 16.3912 22.7733 16.2046 22.9688C16.0712 23.12 15.8935 23.2088 15.6979 23.2444C15.529 23.28 15.3512 23.2888 15.1735 23.2977C15.0846 23.2977 14.9868 23.2977 14.889 23.2977V24.48H14.3024V24.3822C14.3024 23.6444 14.3024 22.8977 14.3024 22.16C14.3024 22.0622 14.2935 21.9733 14.2668 21.8755C14.2312 21.7155 14.1601 21.6711 13.9912 21.6622C13.9735 21.6622 13.9646 21.6622 13.9379 21.6622L13.9468 21.6533ZM14.889 23.0933C14.9779 23.0933 15.0579 23.0933 15.1468 23.0933C15.4668 23.0755 15.6624 22.96 15.7335 22.6222C15.7601 22.48 15.7601 22.3288 15.7335 22.1866C15.6979 21.9644 15.5912 21.7777 15.3512 21.7244C15.2268 21.6977 15.0935 21.7244 14.9601 21.7155C14.889 21.7155 14.8801 21.7422 14.8801 21.8044C14.8801 22.2133 14.8801 22.6133 14.8801 23.0222C14.8801 23.04 14.8801 23.0666 14.8801 23.0933H14.889ZM22.2668 24.48C22.3912 24.2044 22.5068 23.9377 22.6224 23.68C22.7557 23.3777 22.8979 23.0755 23.0312 22.7733C23.209 22.3733 23.3868 21.9733 23.5646 21.5733C23.5912 21.5111 23.6446 21.52 23.689 21.5111C23.7779 21.5022 23.8224 21.5288 23.8579 21.6177C24.0712 22.1422 24.2846 22.6577 24.5068 23.1733C24.6135 23.4311 24.7201 23.68 24.8268 23.9377C24.889 24.0888 24.9779 24.2222 25.129 24.3111C25.1646 24.3288 25.209 24.3288 25.2357 24.3555C25.2535 24.3733 25.2801 24.4 25.2801 24.4266C25.2801 24.4533 25.2535 24.4888 25.2268 24.4888C24.7557 24.5511 24.3735 24.4177 24.1601 23.9111C24.1246 23.8311 24.1157 23.7333 24.0535 23.6888C24.0001 23.6533 23.8935 23.6711 23.8135 23.6711C23.5201 23.6711 23.2357 23.6711 22.9424 23.6711C22.8801 23.6711 22.8535 23.6888 22.8268 23.7422C22.7379 23.9466 22.6401 24.1422 22.5512 24.3555C22.5157 24.4533 22.4623 24.5066 22.3557 24.48C22.329 24.48 22.2935 24.48 22.249 24.48H22.2668ZM23.4935 22.3022C23.3157 22.6933 23.1468 23.0755 22.9779 23.4488H23.9823C23.8223 23.0666 23.6624 22.6933 23.4935 22.3022ZM17.4757 21.7155C17.3424 21.7244 17.2357 21.7244 17.1201 21.7422C16.9335 21.7688 16.8001 21.9288 16.8001 22.1244C16.8001 22.2844 16.7824 22.2577 16.6401 22.2488C16.6401 22.1155 16.6401 21.9911 16.6401 21.8577C16.6401 21.84 16.6401 21.8222 16.649 21.8044C16.649 21.6355 16.7557 21.5377 16.9335 21.5111C16.969 21.5111 17.0135 21.5111 17.049 21.5111C17.6179 21.5111 18.1957 21.5111 18.7646 21.5111C18.8001 21.5111 18.8357 21.5111 18.8801 21.5111V21.7244H18.0801V24.4711H17.4757V21.7155ZM13.8579 24.3377V24.48H13.7246C13.5735 24.48 13.4312 24.48 13.2801 24.48C13.0757 24.48 12.9601 24.3911 12.9335 24.1866C12.9335 24.1422 12.9335 24.1066 12.9335 24.0622C12.9335 23.2444 12.9335 22.4177 12.9335 21.6C12.9335 21.5733 12.9335 21.5466 12.9335 21.52H13.5201V21.6177C13.5201 22.4 13.5201 23.1822 13.5201 23.9644C13.5201 24.0266 13.529 24.0888 13.5468 24.1511C13.5824 24.2755 13.6624 24.3377 13.7868 24.3466C13.8135 24.3466 13.8401 24.3466 13.8668 24.3466L13.8579 24.3377ZM13.049 26.6755C13.0757 26.4711 13.1024 26.2755 13.2535 26.1155C13.5112 25.84 14.1246 25.8666 14.2846 26.3288C14.3735 26.5955 14.3735 26.8533 14.2579 27.1111C14.1779 27.2888 14.0357 27.3955 13.8401 27.4311C13.609 27.4755 13.3957 27.4311 13.2268 27.2444C13.1201 27.1288 13.0846 26.9866 13.0579 26.8355C13.0579 26.7822 13.049 26.7377 13.0401 26.6844L13.049 26.6755ZM13.209 26.6844C13.2268 26.7733 13.2357 26.8622 13.2535 26.9511C13.3068 27.1466 13.4757 27.2888 13.6712 27.2977C13.8757 27.2977 14.0268 27.2266 14.1157 27.0311C14.2312 26.7911 14.2312 26.5333 14.1068 26.2933C13.9468 26 13.5735 25.9911 13.3868 26.1777C13.2535 26.32 13.2179 26.4888 13.209 26.6755V26.6844ZM18.2846 25.9644H19.1379V26.0888H18.4268V26.5955H19.1112V26.7288H18.4268V27.2711H19.1735V27.4044H18.2935V25.9733L18.2846 25.9644ZM11.3424 26.72H10.569V27.4044H10.4357C10.4357 27.4044 10.4357 27.36 10.4357 27.3333C10.4357 26.9066 10.4357 26.48 10.4357 26.0533C10.4357 26.0088 10.4357 25.9644 10.4979 25.9644C10.5779 25.9644 10.569 26.0088 10.569 26.0533C10.569 26.2044 10.569 26.3555 10.569 26.5066C10.569 26.5333 10.569 26.56 10.569 26.5955H11.3335V25.9822C11.4668 25.9555 11.4668 25.9555 11.4668 26.0711C11.4668 26.48 11.4668 26.8977 11.4668 27.3066V27.4044H11.3335V26.72H11.3424ZM16.329 27.4044H16.1957V26.0888H15.7335V25.9644H16.7824V26.08H16.3379V27.3955L16.329 27.4044ZM20.8535 27.2711H21.5646V27.4044H20.7201V25.9733H20.8446V27.28L20.8535 27.2711Z" fill="black"/>
</g>
</g>
<defs>
<clipPath id="clip0_2737_121447">
<rect width="32" height="32" fill="white"/>
</clipPath>
</defs>
</svg>
