<svg width="32" height="32" viewBox="0 0 32 32" fill="none" xmlns="http://www.w3.org/2000/svg">
<g clip-path="url(#clip0_2707_338053)">
<path d="M15.9998 31.9822C24.8265 31.9822 31.982 24.8268 31.982 16C31.982 7.17328 24.8265 0.0177917 15.9998 0.0177917C7.17306 0.0177917 0.0175781 7.17328 0.0175781 16C0.0175781 24.8268 7.17306 31.9822 15.9998 31.9822Z" fill="white"/>
<path d="M27.6086 9.55557H4.37305V20.5956H27.6086V9.55557Z" fill="#329802"/>
<path d="M11.3686 19.5556C11.1146 19.7274 10.8218 19.8334 10.5166 19.8639C10.2114 19.8944 9.90339 19.8486 9.62034 19.7304C9.3373 19.6123 9.0881 19.4255 8.89519 19.1871C8.70228 18.9486 8.57172 18.6659 8.51527 18.3645H5.84861V19.2089H8.07972V19.7511H5.15527V16.3467H8.07083V16.8889H5.82194V17.7778H8.48861C8.53831 17.4665 8.66986 17.1741 8.86979 16.9304C9.06972 16.6868 9.33084 16.5007 9.62638 16.3911C9.84324 16.3007 10.0759 16.2541 10.3108 16.2541C10.5458 16.2541 10.7784 16.3007 10.9953 16.3911C11.2403 16.4945 11.4599 16.65 11.6388 16.8468C11.8177 17.0436 11.9515 17.277 12.031 17.5308C12.1106 17.7846 12.1338 18.0527 12.0993 18.3164C12.0647 18.5801 11.9731 18.8331 11.8308 19.0578C11.9464 19.1733 11.9464 19.1733 12.5419 19.2533V19.8578C12.1267 19.9092 11.7074 19.8012 11.3686 19.5556ZM9.25305 17.7245C10.0126 17.8027 10.7295 18.1131 11.3064 18.6133C11.4157 18.4487 11.474 18.2554 11.474 18.0578C11.474 17.8601 11.4157 17.6669 11.3064 17.5022C11.1906 17.2793 11.0064 17.0994 10.7808 16.989C10.5552 16.8786 10.3001 16.8435 10.0531 16.8889C9.85718 16.9318 9.67773 17.03 9.53594 17.1718C9.39416 17.3136 9.29598 17.493 9.25305 17.6889V17.7245ZM10.8531 19.0933C10.6439 18.8811 10.3949 18.7122 10.1203 18.5962C9.84577 18.4803 9.55106 18.4197 9.25305 18.4178C9.2779 18.5734 9.34368 18.7196 9.44364 18.8415C9.54361 18.9633 9.67417 19.0564 9.82194 19.1111C9.98324 19.1913 10.162 19.23 10.342 19.2238C10.522 19.2176 10.6977 19.1667 10.8531 19.0756V19.0933Z" fill="#F4FBEE"/>
<path d="M12.9865 16.2311H13.6087C13.6087 16.3111 13.6087 16.3734 13.6087 16.4356V18.2134C13.5951 18.3493 13.5951 18.4863 13.6087 18.6223C13.6324 18.7887 13.7158 18.9409 13.8433 19.0504C13.9709 19.16 14.1339 19.2195 14.302 19.2178H14.4709C14.6432 19.2212 14.8107 19.1602 14.9405 19.0468C15.0703 18.9334 15.1533 18.7757 15.1731 18.6045C15.186 18.4418 15.186 18.2783 15.1731 18.1156V16.24H15.8042C15.8042 16.2934 15.8042 16.3467 15.8042 16.4V18.32C15.8045 18.5183 15.7776 18.7157 15.7242 18.9067C15.6682 19.1121 15.5549 19.2972 15.3975 19.4405C15.24 19.5837 15.0451 19.6792 14.8353 19.7156C14.5168 19.7912 14.185 19.7912 13.8665 19.7156C13.587 19.6744 13.3323 19.5323 13.1505 19.3161C12.9687 19.0999 12.8724 18.8246 12.8798 18.5423C12.9598 17.7778 12.9865 17.0223 12.9865 16.2311Z" fill="#F4FBEE"/>
<path d="M20.9775 16.2133L20.8886 16.1333C20.7388 16.0479 20.5988 15.9466 20.4708 15.8311C20.1153 15.3956 20.2841 14.9422 20.7553 14.7111C20.9153 14.6222 21.0841 14.56 21.2619 14.48C21.2175 14.3822 21.173 14.2578 21.1197 14.1422C21.0416 13.9691 21.0022 13.781 21.0041 13.5911C21.0064 13.4292 21.0718 13.2745 21.1863 13.16C21.3009 13.0454 21.4555 12.9801 21.6175 12.9778C21.9564 12.9733 22.2894 13.0659 22.5775 13.2444C22.6034 13.1747 22.633 13.1065 22.6664 13.04C22.7445 12.8657 22.8336 12.6965 22.933 12.5333C22.9902 12.4275 23.0748 12.3391 23.1781 12.2775C23.2814 12.2159 23.3994 12.1833 23.5197 12.1833C23.64 12.1833 23.758 12.2159 23.8613 12.2775C23.9646 12.3391 24.0492 12.4275 24.1064 12.5333C24.1959 12.687 24.2731 12.8475 24.3375 13.0133C24.3375 13.0933 24.3997 13.1733 24.4175 13.2267C24.7019 13.1467 24.9686 13.0489 25.2441 12.9867C25.3334 12.9654 25.4264 12.9644 25.5161 12.9838C25.6059 13.0032 25.6901 13.0425 25.7626 13.0988C25.8351 13.1551 25.8941 13.227 25.9351 13.3091C25.9761 13.3912 25.9982 13.4815 25.9997 13.5733C25.9937 13.7163 25.9788 13.8588 25.9553 14C25.9108 14.1333 25.8575 14.2756 25.8041 14.4L26.2841 14.5778C26.5294 14.6597 26.7395 14.8227 26.8797 15.04C26.9403 15.113 26.9834 15.199 27.0057 15.2912C27.0279 15.3835 27.0288 15.4796 27.0082 15.5723C26.9876 15.6649 26.9461 15.7516 26.8869 15.8258C26.8276 15.8999 26.7522 15.9595 26.6664 16C26.4088 16.1959 26.1001 16.3131 25.7775 16.3378H25.6353H25.5908H25.0397C24.9036 16.3472 24.7669 16.3472 24.6308 16.3378L23.6797 16.0711L23.1908 16.2489L22.8086 16.3822H22.6664C22.4175 16.3822 22.1686 16.3822 21.9197 16.3822L21.2086 16.2667H21.0308L20.9775 16.2133ZM22.8086 13.3333V13.5644L22.6308 13.5111C22.4814 13.4252 22.327 13.348 22.1686 13.28C22.0169 13.2254 21.8583 13.1925 21.6975 13.1822C21.5938 13.1822 21.4943 13.2234 21.4209 13.2968C21.3476 13.3701 21.3064 13.4696 21.3064 13.5733V13.6178C21.3097 13.9432 21.4259 14.2574 21.6353 14.5067V14.6044L21.413 14.6844C21.1302 14.7382 20.8683 14.8707 20.6575 15.0667C20.6106 15.1067 20.5729 15.1565 20.5471 15.2125C20.5213 15.2685 20.5079 15.3294 20.5079 15.3911C20.5079 15.4528 20.5213 15.5137 20.5471 15.5697C20.5729 15.6258 20.6106 15.6755 20.6575 15.7156C20.7544 15.8133 20.869 15.8918 20.9953 15.9467C21.7383 16.2659 22.5762 16.285 23.333 16C23.4753 15.9467 23.6175 15.8578 23.7686 15.7956L23.893 15.8489L24.1153 15.9644H24.1953C24.757 16.1403 25.3557 16.1618 25.9286 16.0267C26.1976 16.0019 26.4538 15.9 26.6664 15.7333C26.7128 15.6958 26.7502 15.6484 26.7759 15.5946C26.8016 15.5408 26.815 15.4819 26.815 15.4222C26.815 15.3626 26.8016 15.3037 26.7759 15.2498C26.7502 15.196 26.7128 15.1486 26.6664 15.1111C26.529 14.9624 26.3628 14.8431 26.1779 14.7606C25.993 14.6781 25.7933 14.634 25.5908 14.6311L25.5019 14.5422L25.5553 14.4089C25.6353 14.1867 25.733 13.9644 25.7953 13.7422C25.7997 13.7098 25.7997 13.6769 25.7953 13.6444C25.7953 13.5257 25.7487 13.4118 25.6656 13.327C25.5825 13.2422 25.4695 13.1934 25.3508 13.1911C25.2457 13.1996 25.1416 13.2175 25.0397 13.2444L24.4353 13.5289L24.3108 13.6089C24.2664 13.4667 24.2219 13.3244 24.1686 13.1822C24.0937 12.9805 23.9984 12.7869 23.8841 12.6044C23.846 12.538 23.791 12.4827 23.7246 12.4443C23.6583 12.4059 23.583 12.3857 23.5064 12.3857C23.4297 12.3857 23.3544 12.4059 23.2881 12.4443C23.2218 12.4827 23.1667 12.538 23.1286 12.6044C23.0799 12.6598 23.0408 12.7229 23.013 12.7911L22.8086 13.3333Z" fill="#326F01"/>
<path d="M20.9775 16.2133H21.0309V16.7467H19.9198V19.6978H19.262V16.7645H18.1509V16.2133H20.9775Z" fill="#F4FBEE"/>
<path d="M24.8889 16.3467L25.7778 16.2933L24.16 18.0089V19.7067H23.5556V18.1067L21.9111 16.3733H22.8L23.8222 17.36L24.8889 16.3467Z" fill="#F7F8F6"/>
<path d="M17.36 16.2311H16.7378V19.6978H17.36V16.2311Z" fill="#F4FBEE"/>
<path d="M9.25293 17.7067C9.29586 17.5108 9.39403 17.3313 9.53582 17.1896C9.67761 17.0478 9.85706 16.9496 10.0529 16.9067C10.2949 16.8509 10.5484 16.8734 10.7768 16.9708C11.0052 17.0682 11.1968 17.2356 11.324 17.4489C11.4312 17.6144 11.4882 17.8073 11.4882 18.0045C11.4882 18.2016 11.4312 18.3945 11.324 18.56C10.7379 18.0693 10.0146 17.7713 9.25293 17.7067Z" fill="#BDF905"/>
<path d="M10.8533 19.0756C10.695 19.1611 10.5178 19.206 10.3378 19.206C10.1578 19.206 9.98057 19.1611 9.82221 19.0756C9.67609 19.0195 9.54736 18.9259 9.44903 18.8042C9.3507 18.6824 9.28626 18.5369 9.26221 18.3822C9.86335 18.3941 10.4354 18.6433 10.8533 19.0756Z" fill="#BDF905"/>
<path d="M23.7421 15.7867C23.5999 15.8578 23.4666 15.9289 23.3066 15.9911C22.5497 16.2761 21.7119 16.257 20.9688 15.9378C20.8441 15.8848 20.732 15.8061 20.6399 15.7067C20.5933 15.6672 20.5557 15.6183 20.5296 15.5631C20.5035 15.5079 20.4896 15.4477 20.4888 15.3867C20.4883 15.3241 20.5016 15.2622 20.5277 15.2054C20.5538 15.1486 20.5921 15.0982 20.6399 15.0578C20.8507 14.8618 21.1126 14.7293 21.3954 14.6756L21.6177 14.5956C22.0003 14.5333 22.3906 14.5333 22.7732 14.5956C23.127 14.6364 23.4625 14.7749 23.7421 14.9956C23.7993 15.0347 23.847 15.0863 23.8815 15.1464C23.9161 15.2065 23.9367 15.2736 23.9418 15.3427C23.947 15.4119 23.9365 15.4813 23.9111 15.5458C23.8858 15.6104 23.8463 15.6684 23.7954 15.7156L23.7421 15.7867Z" fill="#BDF905"/>
<path d="M23.9111 15.8756C24.0317 15.7596 24.1364 15.6281 24.2222 15.4845C24.4019 15.0889 24.4842 14.6561 24.4622 14.2222C24.4622 14.0089 24.4622 13.8045 24.4622 13.5911C24.6667 13.4933 24.8622 13.3867 25.0667 13.3067C25.1667 13.2717 25.2718 13.2537 25.3778 13.2533C25.4468 13.2489 25.5158 13.2612 25.5789 13.2893C25.642 13.3173 25.6974 13.3603 25.7403 13.4146C25.7831 13.4688 25.8121 13.5326 25.8249 13.6005C25.8376 13.6684 25.8337 13.7384 25.8134 13.8045C25.7511 14.0267 25.6622 14.24 25.5822 14.4622L25.5289 14.6045L25.4134 14.8C25.0351 15.3044 24.5105 15.68 23.9111 15.8756Z" fill="#BDF905"/>
<path d="M25.5996 14.64C25.7999 14.643 25.9976 14.6862 26.1808 14.7672C26.3641 14.8481 26.5291 14.9651 26.6663 15.1111C26.71 15.151 26.7442 15.2003 26.7662 15.2553C26.7881 15.3103 26.7973 15.3695 26.793 15.4286C26.7888 15.4877 26.7711 15.545 26.7415 15.5962C26.7118 15.6475 26.6709 15.6913 26.6218 15.7245C26.4282 15.8949 26.1914 16.0086 25.9374 16.0533C25.3504 16.1968 24.7351 16.1752 24.1596 15.9911H24.0796C24.1129 15.9506 24.1485 15.912 24.1863 15.8756C24.6166 15.6632 24.9957 15.3599 25.2974 14.9867C25.4079 14.88 25.509 14.7641 25.5996 14.64Z" fill="#BDF905"/>
<path d="M21.5732 14.4978C21.3575 14.251 21.2349 13.9366 21.2266 13.6089V13.5645C21.2266 13.4607 21.2678 13.3612 21.3411 13.2879C21.4145 13.2145 21.5139 13.1733 21.6177 13.1733C21.7785 13.1836 21.9371 13.2166 22.0888 13.2711C22.2501 13.3392 22.4074 13.4163 22.5599 13.5022L22.7377 13.5556C22.9955 13.8222 23.271 14.0889 23.5288 14.3645C23.6721 14.5316 23.7755 14.7292 23.831 14.9422C23.505 14.7179 23.1364 14.5627 22.7481 14.4863C22.3598 14.4099 21.96 14.4138 21.5732 14.4978Z" fill="#BDF905"/>
<path d="M22.8086 13.3334C22.8797 13.1556 22.9419 12.9867 23.0219 12.8178C23.0519 12.7479 23.0907 12.6822 23.1375 12.6222C23.1773 12.5579 23.2329 12.5049 23.299 12.468C23.3652 12.4312 23.4396 12.4119 23.5152 12.4119C23.5909 12.4119 23.6653 12.4312 23.7314 12.468C23.7975 12.5049 23.8531 12.5579 23.893 12.6222C24.0055 12.8056 24.1007 12.9991 24.1775 13.2C24.2308 13.3422 24.2752 13.4845 24.3197 13.6267C24.4144 14.1801 24.3433 14.7492 24.1152 15.2622C24.056 15.0568 23.9848 14.8549 23.9019 14.6578C23.6871 14.234 23.384 13.8612 23.013 13.5645C22.8975 13.5022 22.7819 13.4578 22.8086 13.3334Z" fill="#BDF905"/>
<path d="M22.8089 13.3333C22.8089 13.4756 22.8978 13.5111 22.9778 13.5822C23.3494 13.8784 23.6526 14.2513 23.8667 14.6756C23.9524 14.8695 24.0266 15.0684 24.0889 15.2711C24.3145 14.7573 24.3825 14.1881 24.2845 13.6356L24.4089 13.5556C24.4089 13.7689 24.4089 13.9822 24.4089 14.1956C24.4167 14.6359 24.3192 15.0717 24.1245 15.4667C24.0363 15.6087 23.9319 15.7399 23.8133 15.8578L23.6889 15.8045L23.7422 15.7333C23.793 15.6862 23.8326 15.6281 23.8579 15.5636C23.8833 15.4991 23.8937 15.4297 23.8886 15.3605C23.8835 15.2914 23.8629 15.2243 23.8283 15.1642C23.7937 15.1041 23.7461 15.0525 23.6889 15.0133C23.4093 14.7927 23.0738 14.6542 22.72 14.6133C22.3373 14.5511 21.9471 14.5511 21.5645 14.6133V14.5156C21.9567 14.427 22.363 14.4208 22.7577 14.4973C23.1525 14.5738 23.5271 14.7313 23.8578 14.96C23.8061 14.7455 23.7023 14.5471 23.5556 14.3822C23.2978 14.1067 23.0311 13.84 22.7645 13.5733L22.8089 13.3333Z" fill="#329802"/>
<path d="M25.6 14.64C25.5243 14.7663 25.4412 14.888 25.3511 15.0045C25.0475 15.3757 24.6689 15.6786 24.24 15.8933C24.1956 15.8933 24.1689 15.9733 24.1334 16.0089L23.9111 15.8933C24.5156 15.684 25.0383 15.2889 25.4045 14.7645L25.52 14.5778L25.6 14.64Z" fill="#329802"/>
<path d="M12.8975 21.7245C12.8352 21.9645 12.7819 22.1956 12.7197 22.4356H12.4886L12.3108 21.7245V22.4178H12.1152V21.3333H12.4441L12.6308 22H12.6752C12.7286 21.7867 12.7908 21.5645 12.853 21.3333H13.1819C13.1819 21.6889 13.1819 22.0533 13.1819 22.4267H12.9863V21.7067L12.8975 21.7245Z" fill="#838383"/>
<path d="M24.3643 22.4267H24.1688V21.6889H24.1243C24.0266 21.92 24.0088 22.1778 23.911 22.4267H23.6977L23.5999 22.0622L23.5199 21.7245H23.4754V22.4178H23.271V21.3333H23.5999L23.7954 22.0089L23.9999 21.3333H24.3199C24.3821 21.6889 24.3466 22.0445 24.3643 22.4267Z" fill="#838383"/>
<path d="M18.1418 21.7956V22.4267H17.9463C17.9463 22.0444 17.9463 21.6889 17.9463 21.3067H18.1596L18.5952 21.9911V21.3333H18.7996V22.4356H18.5863L18.1596 21.7689L18.1418 21.7956Z" fill="#838383"/>
<path d="M15.1553 21.9911V21.3333H15.3598C15.3598 21.7156 15.3598 22.08 15.3598 22.4533H15.1109L14.6931 21.8045V22.4445H14.4976V21.3333H14.5953H14.7109L15.1287 22.0089L15.1553 21.9911Z" fill="#838383"/>
<path d="M26.3641 21.9911V21.3334H26.5419C26.5826 21.7026 26.5826 22.0752 26.5419 22.4445H26.3375L26.1152 22.0978L25.9108 21.7778H25.8664V22.4089H25.6797C25.6797 22.0267 25.6797 21.6623 25.6797 21.28H25.893L26.3286 21.9734L26.3641 21.9911Z" fill="#838383"/>
<path d="M9.71551 21.8667C9.70205 21.7594 9.72326 21.6506 9.77603 21.5563C9.82881 21.4619 9.91039 21.3869 10.0088 21.3422C10.1049 21.2933 10.213 21.2732 10.3202 21.2842C10.4275 21.2953 10.5292 21.337 10.6133 21.4044C10.7317 21.517 10.8072 21.6674 10.8266 21.8297C10.8461 21.9919 10.8084 22.1559 10.7199 22.2933C10.6328 22.4103 10.5046 22.4899 10.3612 22.5163C10.2178 22.5427 10.0697 22.5138 9.94662 22.4356C9.85218 22.378 9.77874 22.2917 9.73713 22.1893C9.69552 22.0868 9.68793 21.9737 9.71551 21.8667ZM9.93773 21.8667C9.94121 21.917 9.94121 21.9675 9.93773 22.0178C9.94608 22.0934 9.98109 22.1635 10.0365 22.2156C10.0919 22.2678 10.164 22.2985 10.2399 22.3022C10.3115 22.3041 10.3815 22.2813 10.4382 22.2376C10.4949 22.1938 10.5347 22.1319 10.5511 22.0622C10.5867 21.9464 10.5867 21.8225 10.5511 21.7067C10.5308 21.6473 10.4925 21.5957 10.4415 21.559C10.3905 21.5224 10.3294 21.5025 10.2666 21.5022C10.2052 21.5031 10.1454 21.5221 10.0948 21.5569C10.0442 21.5917 10.005 21.6407 9.98217 21.6978C9.96429 21.7442 9.94944 21.7917 9.93773 21.84V21.8667Z" fill="#838383"/>
<path d="M4.44435 21.3333C4.65768 21.3333 4.83546 21.3333 5.01324 21.3333C5.09646 21.3378 5.17581 21.37 5.23863 21.4247C5.30146 21.4795 5.34415 21.5537 5.3599 21.6356C5.37778 21.7325 5.37778 21.8319 5.3599 21.9289C5.3599 22.2933 5.16435 22.48 4.80879 22.4622C4.67546 22.4622 4.54212 22.4622 4.3999 22.4622L4.44435 21.3333ZM4.67546 21.5289C4.6444 21.7709 4.6444 22.0158 4.67546 22.2578C4.84435 22.2578 5.01324 22.32 5.10212 22.1511C5.14808 22.0698 5.17223 21.9779 5.17223 21.8845C5.17223 21.791 5.14808 21.6992 5.10212 21.6178C5.00435 21.4578 4.84435 21.5111 4.67546 21.5289Z" fill="#838383"/>
<path d="M21.1911 22.0889H21.3333C21.4045 22.2133 21.4933 22.3111 21.6533 22.2844C21.8133 22.2578 21.7778 22.2844 21.8311 22.0978L21.6533 22L21.3956 21.92C21.3307 21.8978 21.2744 21.8558 21.2346 21.8001C21.1948 21.7443 21.1733 21.6774 21.1733 21.6089C21.1784 21.5371 21.2074 21.4692 21.2558 21.416C21.3042 21.3627 21.3691 21.3274 21.44 21.3156C21.5446 21.2764 21.6598 21.2764 21.7644 21.3156C21.869 21.3548 21.9558 21.4306 22.0089 21.5289C22.0089 21.5289 22.0089 21.5911 22.0089 21.6267H21.8489C21.6089 21.4133 21.5645 21.4044 21.3956 21.5378C21.3956 21.6267 21.3956 21.6533 21.5022 21.68L21.7689 21.76C21.8505 21.7751 21.9237 21.8197 21.9745 21.8852C22.0253 21.9508 22.0502 22.0328 22.0445 22.1156C22.04 22.1982 22.0046 22.276 21.9453 22.3337C21.886 22.3914 21.8071 22.4246 21.7245 22.4267C21.61 22.4494 21.4922 22.4494 21.3778 22.4267C21.2622 22.4 21.2 22.3022 21.1911 22.0889Z" fill="#838383"/>
<path d="M7.7242 21.3333H8.5242V21.5022H7.99976C7.99976 21.6 7.99976 21.6622 7.99976 21.76H8.55087V21.92H7.99976V22.2222H8.6042V22.3822H7.73309C7.67479 22.0353 7.67179 21.6813 7.7242 21.3333Z" fill="#838383"/>
<path d="M25.3951 21.7956C25.3984 21.8429 25.3984 21.8904 25.3951 21.9378H24.844V22.2222H25.4485V22.3645C25.1555 22.4274 24.8525 22.4274 24.5596 22.3645C24.5596 22.0089 24.5596 21.6533 24.5596 21.2622C24.844 21.2622 25.1107 21.2622 25.3951 21.2622C25.3951 21.3245 25.3951 21.3689 25.3951 21.4489H24.8885C24.8844 21.52 24.8844 21.5912 24.8885 21.6622C25.004 21.8133 25.1996 21.7067 25.3951 21.7956Z" fill="#838383"/>
<path d="M14.2219 21.9378H13.6619V22.2222H14.2219V22.4H13.3774V21.3333H14.2219V21.5022H13.6174V21.7689H14.2219V21.9378Z" fill="#838383"/>
<path d="M20.9862 21.3333V21.52H20.444C20.444 21.6089 20.444 21.6711 20.444 21.7689H21.004C21.004 21.84 21.004 21.8845 21.004 21.9556H20.444V22.2222H21.0484V22.4H20.2129V21.3333C20.444 21.3333 20.6929 21.3333 20.9862 21.3333Z" fill="#838383"/>
<path d="M5.81296 21.4933V21.7422H6.33741V21.8933H5.7863V22.2133H6.39963V22.3822H5.51074C5.51074 22.0178 5.51074 21.6533 5.51074 21.2711C5.7863 21.2711 6.05296 21.2711 6.31963 21.2711V21.4489L5.81296 21.4933Z" fill="#838383"/>
<path d="M11.2266 22.0356V22.4356H11.0044C11.0044 22.0534 11.0044 21.6889 11.0044 21.3067C11.2077 21.2756 11.4145 21.2756 11.6177 21.3067C11.6962 21.3218 11.7662 21.3658 11.8139 21.43C11.8617 21.4941 11.8836 21.5738 11.8755 21.6534C11.8756 21.7352 11.8444 21.814 11.7882 21.8736C11.7319 21.9331 11.655 21.9688 11.5733 21.9734L11.2266 22.0356ZM11.2266 21.8311H11.4933C11.5271 21.8267 11.5579 21.8095 11.5794 21.783C11.6009 21.7566 11.6114 21.7229 11.6088 21.6889C11.6089 21.6527 11.5952 21.6178 11.5704 21.5914C11.5456 21.5649 11.5117 21.549 11.4755 21.5467H11.2266V21.8311Z" fill="#838383"/>
<path d="M19.7865 21.3333H20.0265C19.8843 21.7156 19.7599 22.08 19.6265 22.4445H19.3688C19.2443 22.0889 19.111 21.7245 18.9688 21.3422H19.2088L19.4843 22.0889L19.7865 21.3333Z" fill="#838383"/>
<path d="M7.34219 21.3333H7.5733C7.43997 21.7156 7.30664 22.08 7.18219 22.4445H6.92441L6.52441 21.3333H6.64886H6.76441L7.03997 22.0889H7.11108L7.34219 21.3333Z" fill="#838383"/>
<path d="M23.1109 21.3333V21.4933H22.8087C22.7554 21.7956 22.8087 22.0978 22.8087 22.3822H22.5954V21.4933H22.2754C22.2754 21.4489 22.2754 21.3956 22.2754 21.3333H23.1109Z" fill="#838383"/>
<path d="M27.0575 21.52H26.7553C26.7515 21.4727 26.7515 21.4251 26.7553 21.3778C27.0501 21.3352 27.3494 21.3352 27.6442 21.3778C27.6442 21.3778 27.6442 21.4667 27.6442 21.5289H27.3153V22.4178H27.0931C27.0486 22.1422 27.0931 21.84 27.0575 21.52Z" fill="#838383"/>
<path d="M16.1063 21.52V22.4089H15.9907H15.8752V21.52H15.5552C15.5591 21.4668 15.5591 21.4133 15.5552 21.36H16.4441V21.52H16.1063Z" fill="#838383"/>
<path d="M8.791 21.3333H8.98656C9.031 21.6356 8.98656 21.9289 8.98656 22.2222H9.511C9.511 22.2933 9.511 22.3378 9.511 22.4089C9.24433 22.4089 8.99545 22.4089 8.75545 22.4089C8.72818 22.0502 8.74011 21.6895 8.791 21.3333Z" fill="#838383"/>
<path d="M17.7065 22.4356H17.4932V21.3333H17.6976C17.7243 21.6978 17.7065 22.0622 17.7065 22.4356Z" fill="#838383"/>
</g>
<defs>
<clipPath id="clip0_2707_338053">
<rect width="32" height="32" fill="white"/>
</clipPath>
</defs>
</svg>
