<svg width="32" height="32" viewBox="0 0 32 32" fill="none" xmlns="http://www.w3.org/2000/svg">
<g clip-path="url(#clip0_2707_337978)">
<path d="M15.9998 31.9822C24.8265 31.9822 31.982 24.8267 31.982 16C31.982 7.17326 24.8265 0.0177765 15.9998 0.0177765C7.17306 0.0177765 0.0175781 7.17326 0.0175781 16C0.0175781 24.8267 7.17306 31.9822 15.9998 31.9822Z" fill="white"/>
<path fill-rule="evenodd" clip-rule="evenodd" d="M15.9997 2.66667L26.3286 7.64445L28.8708 18.8178L21.7597 27.7778H10.2664L3.15527 18.8178L5.67083 7.65334L15.9997 2.66667Z" fill="url(#paint0_linear_2707_337978)"/>
<path fill-rule="evenodd" clip-rule="evenodd" d="M16.0709 3.26223C16.0252 3.24438 15.9744 3.24438 15.9287 3.26223L6.22201 8.00001C6.19975 8.00938 6.18006 8.02397 6.16459 8.04252C6.14913 8.06108 6.13834 8.08308 6.13312 8.10667L3.67979 18.6667C3.66338 18.7096 3.66338 18.7571 3.67979 18.8L10.4353 27.2622C10.4496 27.2818 10.4683 27.2977 10.49 27.3085C10.5116 27.3193 10.5356 27.3248 10.5598 27.3244H21.4131C21.4373 27.3248 21.4613 27.3193 21.4829 27.3085C21.5046 27.2977 21.5233 27.2818 21.5376 27.2622L28.2931 18.8C28.3095 18.7571 28.3095 18.7096 28.2931 18.6667L25.9109 8.07112C25.9057 8.04753 25.8949 8.02553 25.8794 8.00697C25.864 7.98841 25.8443 7.97383 25.822 7.96445L16.0709 3.26223ZM15.9998 3.55556L25.6176 8.21334L27.9909 18.6667L21.3331 26.9689H10.6665L4.00868 18.6667L6.38201 8.21334L15.9998 3.55556Z" fill="white"/>
<path fill-rule="evenodd" clip-rule="evenodd" d="M9.87532 18.2044C9.19514 15.7534 8.94256 13.2035 9.12865 10.6667C11.221 12.7839 13.0153 15.1763 14.462 17.7778C13.4619 17.2378 12.4916 16.6443 11.5553 16C11.1235 16.8242 10.5555 17.5695 9.87532 18.2044ZM11.1287 16.1067C11.0222 16.2344 10.8841 16.332 10.7281 16.3897C10.5721 16.4474 10.4037 16.4632 10.2398 16.4356C10.06 16.3988 9.89592 16.3073 9.77019 16.1736C9.64446 16.0399 9.56319 15.8706 9.53754 15.6889C9.36715 14.6542 9.27208 13.6085 9.25309 12.56C9.25149 12.4419 9.28449 12.326 9.34803 12.2265C9.41158 12.127 9.50287 12.0482 9.61065 12C9.71843 11.9518 9.83796 11.9362 9.9545 11.9552C10.071 11.9741 10.1795 12.0268 10.2664 12.1067C11.3519 13.1614 12.2907 14.3573 13.0575 15.6622C13.1076 15.7439 13.1286 15.8401 13.1173 15.9352C13.106 16.0304 13.0631 16.1189 12.9953 16.1867C12.9344 16.2604 12.8518 16.3131 12.7592 16.337C12.6666 16.361 12.5688 16.355 12.4798 16.32C12.0709 16.1067 11.7864 15.9378 11.4664 15.7778C11.422 15.7511 11.2798 15.9378 11.1287 16.1067Z" fill="white"/>
<path fill-rule="evenodd" clip-rule="evenodd" d="M14.4443 17.7778C14.4443 17.7778 17.4221 19.3689 18.0621 21.6089C18.7021 23.8489 16.551 25.7422 16.551 25.7422C16.551 25.7422 17.0666 22.8267 14.4443 17.7778Z" fill="white"/>
<path fill-rule="evenodd" clip-rule="evenodd" d="M10.5243 15.4222C10.5243 15.4222 7.97322 15.4755 5.66211 15.4222C5.66211 15.4222 9.67989 12.4889 13.1377 11.9111C12.8126 13.0491 12.3934 14.1582 11.8843 15.2267L11.6532 15.2978C11.9663 14.6946 12.2309 14.0674 12.4443 13.4222C12.4794 13.323 12.4872 13.2163 12.4669 13.1131C12.4466 13.0098 12.3989 12.914 12.3288 12.8355C12.2582 12.7575 12.169 12.6987 12.0695 12.6645C11.97 12.6303 11.8635 12.6218 11.7599 12.64C10.3644 12.9343 9.04116 13.5023 7.86655 14.3111C7.78945 14.3618 7.73006 14.4353 7.69661 14.5213C7.66316 14.6073 7.65731 14.7016 7.67989 14.7911C7.70162 14.8788 7.75008 14.9576 7.81857 15.0165C7.88705 15.0754 7.97216 15.1116 8.06211 15.12C8.77243 15.2105 9.4884 15.2491 10.2043 15.2355L10.5243 15.4222Z" fill="white"/>
<path fill-rule="evenodd" clip-rule="evenodd" d="M13.1377 11.92C13.3115 11.534 13.5693 11.1916 13.8922 10.9179C14.2151 10.6442 14.5951 10.446 15.0044 10.3378C16.3021 10.08 18.0621 11.7155 18.0621 11.7155C16.4251 11.4288 14.7454 11.4985 13.1377 11.92Z" fill="white"/>
<path fill-rule="evenodd" clip-rule="evenodd" d="M11.5552 16C9.46185 14.8384 7.49304 13.4653 5.67969 11.9022C9.024 12.4422 12.2878 13.3977 15.3952 14.7467C15.3952 14.7467 12.6664 15.2178 11.9019 15.2178L11.5552 16ZM10.8797 15.3422L11.4397 15.7333L11.6708 15.2889L10.8797 15.3422ZM7.8308 13.3778C7.76259 13.3228 7.71434 13.2469 7.69346 13.1617C7.67258 13.0766 7.68024 12.987 7.71524 12.9067C7.74996 12.8257 7.81097 12.7589 7.8884 12.7169C7.96584 12.675 8.05516 12.6604 8.14191 12.6756C9.98728 12.974 11.7822 13.5274 13.4752 14.32C13.5224 14.3433 13.5614 14.3805 13.5868 14.4266C13.6122 14.4727 13.6229 14.5254 13.6175 14.5778C13.611 14.6312 13.589 14.6815 13.5543 14.7226C13.5195 14.7637 13.4735 14.7937 13.4219 14.8089C12.4609 15.0233 11.4817 15.1453 10.4975 15.1733C9.57081 14.6329 8.68006 14.0331 7.8308 13.3778Z" fill="white"/>
<path fill-rule="evenodd" clip-rule="evenodd" d="M15.3774 14.7644C15.3774 14.7644 20.1597 13.9733 21.2708 18.4889C19.5324 16.9214 17.5393 15.6619 15.3774 14.7644Z" fill="white"/>
<path fill-rule="evenodd" clip-rule="evenodd" d="M9.1286 10.6667C9.1286 10.6667 7.73304 9.12889 7.8486 8.33778C7.96415 7.54667 9.42193 7.44889 10.9508 7.69778C10.9508 7.69778 9.43971 8.28445 9.1286 10.6667Z" fill="white"/>
<path fill-rule="evenodd" clip-rule="evenodd" d="M9.87538 18.2044C8.89232 19.5758 7.69123 20.7769 6.31982 21.76L8.18649 24.1067C8.18649 24.1067 10.3554 22.7111 9.87538 18.2044Z" fill="white"/>
</g>
<defs>
<linearGradient id="paint0_linear_2707_337978" x1="26.8833" y1="14.9612" x2="4.3055" y2="14.419" gradientUnits="userSpaceOnUse">
<stop stop-color="#D6800F"/>
<stop offset="1" stop-color="#BA261A"/>
</linearGradient>
<clipPath id="clip0_2707_337978">
<rect width="32" height="32" fill="white"/>
</clipPath>
</defs>
</svg>
