<svg width="32" height="32" viewBox="0 0 32 32" fill="none" xmlns="http://www.w3.org/2000/svg">
<g clip-path="url(#clip0_2810_57281)">
<mask id="mask0_2810_57281" style="mask-type:luminance" maskUnits="userSpaceOnUse" x="0" y="0" width="32" height="32">
<path d="M31.9909 0.0177612H0.0175781V31.9911H31.9909V0.0177612Z" fill="white"/>
</mask>
<g mask="url(#mask0_2810_57281)">
<path d="M15.9998 31.9822C24.8265 31.9822 31.982 24.8267 31.982 16C31.982 7.17325 24.8265 0.0177612 15.9998 0.0177612C7.17306 0.0177612 0.0175781 7.17325 0.0175781 16C0.0175781 24.8267 7.17306 31.9822 15.9998 31.9822Z" fill="white"/>
<path fill-rule="evenodd" clip-rule="evenodd" d="M6.25768 14.8622L5.80434 14.1155H4.00879V14.8267L6.25768 14.8533V14.8622Z" fill="url(#paint0_linear_2810_57281)"/>
<path fill-rule="evenodd" clip-rule="evenodd" d="M4.79081 14.1155C4.79081 14.1155 4.71081 14.1422 4.6397 14.1689C4.56858 14.1955 4.51525 14.24 4.4797 14.3022C4.3197 14.5866 3.83081 15.4489 3.61747 15.8222C3.55525 15.9289 3.55525 16.0622 3.61747 16.1689C3.84859 16.5689 4.39081 17.52 4.39081 17.52H3.61747C3.61747 17.52 3.13747 16.7822 2.84414 16.3289C2.71081 16.1244 2.71081 15.8577 2.84414 15.6444C3.1197 15.2177 3.56414 14.5155 3.75081 14.2311C3.80414 14.1511 3.88414 14.1066 3.98192 14.1066H4.80858L4.79081 14.1155Z" fill="url(#paint1_linear_2810_57281)"/>
<path fill-rule="evenodd" clip-rule="evenodd" d="M3.26172 16.9866C3.26172 16.9866 3.39505 17.0489 3.47505 17.0933C3.5195 17.1111 3.56394 17.1289 3.60839 17.1289H5.82172V17.8577H4.00839C3.89283 17.8577 3.78616 17.7955 3.72394 17.7066C3.56394 17.4577 3.26172 16.9955 3.26172 16.9955V16.9866Z" fill="url(#paint2_linear_2810_57281)"/>
<path fill-rule="evenodd" clip-rule="evenodd" d="M6.52421 15.6266H4.7731L4.54199 16L4.7731 16.3644H6.52421L6.75533 16L6.52421 15.6266Z" fill="url(#paint3_linear_2810_57281)"/>
<path fill-rule="evenodd" clip-rule="evenodd" d="M6.13329 16H5.39551V17.8844H5.93773C5.99106 17.8844 6.0444 17.8667 6.07995 17.8222C6.11551 17.7867 6.14217 17.7333 6.14217 17.68V16H6.13329Z" fill="url(#paint4_linear_2810_57281)"/>
<path fill-rule="evenodd" clip-rule="evenodd" d="M9.6174 16.0178H10.9685V17.6978C10.9685 17.6978 10.9685 17.7244 10.9685 17.7333C10.9685 17.7985 10.9359 17.8311 10.8707 17.8311C10.7818 17.8311 10.693 17.8311 10.6041 17.8311C10.5507 17.8311 10.533 17.8133 10.533 17.76C10.5241 17.6622 10.5063 17.5644 10.4885 17.4667C10.4885 17.4489 10.4707 17.4222 10.4618 17.4044C10.4441 17.4133 10.4352 17.4222 10.4263 17.4311C10.2663 17.6711 10.0263 17.7689 9.76851 17.8044C9.43963 17.8578 9.11963 17.8133 8.82629 17.6533C8.39074 17.4222 8.12407 17.0578 8.04407 16.56C7.96407 16.0711 8.00851 15.6089 8.2574 15.1822C8.52407 14.7289 8.92407 14.48 9.4574 14.4444C9.7774 14.4267 10.0796 14.4711 10.3552 14.64C10.6752 14.8356 10.8796 15.12 10.9418 15.5022C10.9418 15.52 10.9418 15.5378 10.9418 15.5556C10.7374 15.5556 10.533 15.5556 10.3285 15.5556C10.3107 15.5556 10.2752 15.5289 10.2752 15.52C10.1952 15.0044 9.36851 14.8089 8.96851 15.28C8.85296 15.4133 8.80851 15.5733 8.76407 15.7333C8.67518 16.0711 8.67518 16.4089 8.8174 16.7289C8.95074 17.0222 9.19074 17.2 9.52851 17.2C9.6974 17.2 9.84851 17.1733 10.0085 17.1111C10.213 17.0311 10.3463 16.7467 10.3552 16.5422C10.3552 16.4889 10.3196 16.4889 10.2841 16.4889C10.0974 16.4889 9.91074 16.4889 9.71518 16.4889C9.63518 16.4889 9.6174 16.4711 9.6174 16.3911C9.6174 16.2578 9.6174 16.1244 9.6174 15.9911V16.0178ZM17.4574 17.8489H16.8085V17.76C16.8085 17.3156 16.8085 16.8711 16.8085 16.4178C16.8085 16.3289 16.7996 16.2311 16.7818 16.1422C16.7463 15.9822 16.613 15.8667 16.453 15.8578C16.3907 15.8578 16.3285 15.8578 16.2663 15.8578C16.133 15.8844 16.0263 15.9467 15.973 16.08C15.9107 16.2222 15.893 16.3733 15.893 16.5333C15.893 16.9244 15.893 17.3156 15.893 17.7067C15.893 17.8222 15.893 17.8222 15.7863 17.8222C15.6352 17.8222 15.4752 17.8222 15.3241 17.8222C15.2707 17.8222 15.253 17.8044 15.253 17.7511C15.253 16.7289 15.253 15.6978 15.2618 14.6756V14.5067H15.8663V15.7333H15.8841C15.8841 15.7333 15.9285 15.7067 15.9374 15.68C16.2663 15.2178 16.9685 15.28 17.2441 15.6089C17.3685 15.7511 17.4041 15.9111 17.4218 16.0889C17.4396 16.2756 17.4485 16.4622 17.4485 16.6489C17.4485 17.0133 17.4485 17.3778 17.4485 17.7422V17.8311L17.4574 17.8489ZM15.1107 17.8133C14.933 17.8133 14.7374 17.8133 14.5507 17.8133C14.4974 17.8133 14.4618 17.7867 14.453 17.7333C14.4441 17.6622 14.4263 17.5911 14.4085 17.5022C14.3818 17.52 14.3552 17.5289 14.3285 17.5467C14.0085 17.8044 13.4574 17.8578 13.1018 17.6533C12.9063 17.5467 12.8085 17.3689 12.7996 17.1556C12.7996 17.0489 12.7996 16.9333 12.8441 16.8267C12.9241 16.5867 13.1552 16.4444 13.4041 16.4267C13.6352 16.4178 13.8574 16.3733 14.0885 16.3467C14.1418 16.3467 14.1952 16.3111 14.2396 16.2933C14.3818 16.2311 14.4085 16.1867 14.3996 16.0533C14.3818 15.92 14.3107 15.8133 14.1863 15.8044C14.0618 15.7867 13.9285 15.7956 13.8041 15.8044C13.6618 15.8222 13.5907 15.92 13.5818 16.0622C13.5818 16.1067 13.5641 16.1244 13.5107 16.1244C13.3241 16.1244 13.1374 16.1156 12.9507 16.1156C12.8885 16.1156 12.8796 16.0889 12.8885 16.0356C12.9507 15.7244 13.1463 15.52 13.4396 15.4311C13.7774 15.3244 14.1241 15.3067 14.4707 15.3956C14.613 15.4311 14.7374 15.4933 14.853 15.5911C14.9507 15.68 15.0041 15.7867 15.0041 15.92C15.0041 16.1156 15.0041 16.3111 15.0041 16.5067C15.0041 16.8178 15.0041 17.12 15.013 17.4311C15.013 17.5556 15.0574 17.6711 15.0841 17.8133H15.1107ZM14.3996 16.6311C14.2574 16.6578 14.133 16.6756 14.0085 16.6933C13.9018 16.7111 13.7863 16.7289 13.6974 16.7822C13.5018 16.8889 13.4663 16.9689 13.4841 17.1733C13.5018 17.2889 13.5907 17.36 13.7685 17.3956C13.7774 17.3956 13.7863 17.3956 13.7952 17.3956C14.0707 17.44 14.2841 17.3333 14.3552 17.0756C14.3996 16.9333 14.3818 16.7733 14.3907 16.6222L14.3996 16.6311ZM19.8307 17.8044H19.3863C19.3863 17.8044 19.3596 17.8044 19.3507 17.8044C19.2174 17.8044 19.2085 17.7956 19.1907 17.6533C19.1907 17.6089 19.1818 17.5644 19.173 17.52C19.173 17.52 19.173 17.5111 19.1552 17.4933C19.1196 17.52 19.093 17.5467 19.0574 17.5644C18.693 17.7956 18.3018 17.84 17.9018 17.6711C17.6796 17.5733 17.5818 17.3867 17.5552 17.1644C17.5196 16.8356 17.6618 16.5956 17.9641 16.4622C18.0085 16.4444 18.0707 16.4356 18.1241 16.4267C18.3641 16.3911 18.613 16.3644 18.853 16.3289C18.8885 16.3289 18.9241 16.3111 18.9596 16.2933C19.1018 16.24 19.1374 16.1689 19.1107 16C19.0841 15.8756 18.9952 15.7867 18.8618 15.7867C18.7818 15.7867 18.7018 15.7867 18.613 15.7867C18.4263 15.7867 18.3285 15.8844 18.293 16.0622C18.293 16.0889 18.2574 16.1244 18.2396 16.1244C18.0352 16.1244 17.8396 16.1244 17.6174 16.1244C17.6441 16.0267 17.653 15.9467 17.6885 15.8756C17.7863 15.6533 17.9552 15.4933 18.1863 15.4311C18.5507 15.3244 18.9152 15.2978 19.2796 15.4133C19.3863 15.4489 19.4841 15.5022 19.573 15.5644C19.6796 15.6444 19.7507 15.76 19.7507 15.9022C19.7507 16.2756 19.7596 16.64 19.7507 17.0133C19.7507 17.2711 19.7507 17.5289 19.8396 17.7778C19.8396 17.7778 19.8396 17.7956 19.8396 17.8133L19.8307 17.8044ZM19.0752 16.64C18.9596 16.6667 18.8441 16.6933 18.7285 16.72C18.613 16.7467 18.4885 16.7644 18.3818 16.8089C18.2307 16.8622 18.1596 17.0133 18.1774 17.1733C18.1952 17.2978 18.293 17.3867 18.4441 17.4222C18.4707 17.4222 18.4974 17.4311 18.5241 17.4311C18.7996 17.4667 19.0396 17.3067 19.0663 17.04C19.0841 16.9067 19.0663 16.7644 19.0663 16.6489L19.0752 16.64ZM22.9863 16.0978C22.9418 15.8311 23.1196 15.5289 23.3863 15.4222C23.7596 15.2711 24.133 15.2711 24.5063 15.4489C24.693 15.5378 24.7996 15.68 24.8085 15.8933C24.8085 16.08 24.8174 16.2667 24.8174 16.4533C24.8174 16.7644 24.8174 17.0667 24.8174 17.3778C24.8174 17.5289 24.8352 17.6711 24.8441 17.8311C24.7641 17.8311 24.6841 17.8311 24.5952 17.8311C24.5685 17.8311 24.533 17.7867 24.533 17.76C24.5063 17.6533 24.4974 17.5378 24.4796 17.4222C24.4618 17.44 24.4352 17.4578 24.4085 17.4756C24.1685 17.6978 23.893 17.8311 23.5641 17.8044C23.2441 17.7867 22.9685 17.5733 22.8974 17.2711C22.8085 16.9067 23.0218 16.5422 23.3774 16.4622C23.5996 16.4089 23.8396 16.3911 24.0618 16.3556C24.1507 16.3467 24.2307 16.3289 24.3196 16.3111C24.3818 16.2933 24.4085 16.2489 24.4263 16.1867C24.4618 15.9822 24.4085 15.8133 24.2574 15.7244C24.1774 15.68 24.0885 15.6622 23.9996 15.6533C23.9107 15.6444 23.813 15.6533 23.7152 15.6533C23.5285 15.6622 23.4218 15.7778 23.3596 15.9467C23.3063 16.1067 23.3063 16.1067 23.1285 16.1067H22.9774L22.9863 16.0978ZM24.4618 16.5422C24.4618 16.5422 24.4174 16.5511 24.3996 16.56C24.213 16.5956 24.0352 16.6311 23.8485 16.6756C23.7152 16.7022 23.5907 16.7378 23.4663 16.7822C23.333 16.8267 23.2796 16.9333 23.2796 17.0667C23.2796 17.2089 23.3152 17.3422 23.4485 17.4222C23.5907 17.5111 23.7418 17.4933 23.893 17.4667C24.3107 17.3956 24.5863 16.96 24.4618 16.5511V16.5422ZM27.3685 16.9778H27.7241C27.7507 17.0489 27.7685 17.1289 27.7952 17.2C27.8574 17.36 27.9996 17.4222 28.1507 17.44C28.3018 17.4489 28.453 17.4489 28.6041 17.4311C28.8174 17.4044 28.9507 17.1733 28.8885 16.9689C28.8796 16.9244 28.8352 16.88 28.7907 16.8622C28.6218 16.8 28.453 16.7378 28.2841 16.6844C28.1063 16.6222 27.9196 16.5867 27.7507 16.5156C27.3596 16.3467 27.2974 15.8311 27.6263 15.5467C28.0085 15.2267 28.6574 15.2356 29.0041 15.5644C29.1285 15.68 29.1818 15.8311 29.1996 15.9911C29.1996 16.0089 29.173 16.0356 29.1641 16.0444C29.0663 16.0444 28.9685 16.0444 28.8618 16.0444C28.8618 16.0089 28.853 15.9822 28.8441 15.9467C28.8085 15.8133 28.7374 15.7067 28.5952 15.6711C28.4174 15.6267 28.2307 15.6178 28.053 15.6711C27.8752 15.7244 27.7952 15.8311 27.813 16.0178C27.813 16.1156 27.8752 16.1778 27.9641 16.2044C28.1152 16.2578 28.2752 16.2933 28.4352 16.3378C28.613 16.3911 28.7907 16.4356 28.9596 16.5067C29.0574 16.5422 29.1374 16.6222 29.2085 16.6933C29.2707 16.7556 29.2974 16.8533 29.2796 16.9511C29.2796 16.9689 29.2796 16.9956 29.2796 17.0133C29.3152 17.3422 29.1374 17.5467 28.8707 17.6889C28.6574 17.7956 28.4263 17.8133 28.1952 17.7867C28.0263 17.7689 27.8574 17.7333 27.7063 17.6444C27.5018 17.52 27.3507 17.2089 27.3863 16.9689L27.3685 16.9778ZM25.1907 17.7867C25.1907 17.7867 25.1907 17.7333 25.1907 17.7067C25.1907 16.96 25.1907 16.2133 25.1907 15.4667C25.1907 15.4133 25.2085 15.3867 25.2618 15.3867C25.3418 15.3867 25.4218 15.3867 25.5107 15.3867C25.5552 15.3867 25.573 15.4044 25.573 15.4489C25.573 15.5289 25.573 15.6089 25.573 15.7067C25.6085 15.6711 25.6441 15.6444 25.6618 15.6267C25.8396 15.4133 26.0618 15.2978 26.3463 15.3156C26.5507 15.3244 26.7374 15.3956 26.8885 15.52C27.0396 15.6444 27.093 15.8222 27.1018 16.0089C27.1196 16.3911 27.1107 16.7733 27.1196 17.1556C27.1196 17.3511 27.1196 17.5467 27.1196 17.7422C27.1196 17.8044 27.1018 17.8222 27.0396 17.8222C26.9596 17.8222 26.8796 17.8222 26.7996 17.8222C26.7463 17.8222 26.7285 17.8133 26.7285 17.7511C26.7285 17.2089 26.7285 16.6578 26.7285 16.1156C26.7285 16.0356 26.7018 15.9556 26.6752 15.8667C26.6485 15.76 26.5774 15.7067 26.4707 15.6889C26.293 15.6533 26.1152 15.6356 25.9374 15.7244C25.7507 15.8133 25.6618 15.9733 25.6263 16.1689C25.6085 16.2756 25.5996 16.3822 25.5996 16.4889C25.5996 16.8978 25.5996 17.3067 25.5996 17.7067C25.5996 17.7689 25.5818 17.7867 25.5196 17.7778C25.413 17.7778 25.3152 17.7778 25.1996 17.7778L25.1907 17.7867ZM19.2796 14.5244H21.9107C21.9107 14.64 21.9107 14.7556 21.9107 14.8711C21.9107 14.88 21.8663 14.9067 21.8485 14.9067C21.5374 14.9067 21.2352 14.9067 20.9241 14.9067H20.8085V17.7333C20.8085 17.8044 20.773 17.84 20.7018 17.84C20.613 17.84 20.5241 17.84 20.4441 17.84C20.3996 17.84 20.3818 17.8222 20.3818 17.7778C20.3818 17.68 20.3907 17.5733 20.3907 17.4756C20.3907 16.72 20.3907 15.9556 20.3907 15.2C20.3907 15.1289 20.3818 15.0489 20.3818 14.9778C20.3818 14.9156 20.3641 14.9067 20.3107 14.9067C19.9996 14.9067 19.6885 14.9067 19.3774 14.9067C19.2796 14.9067 19.2796 14.9067 19.2796 14.8089V14.5244ZM11.2796 15.44C11.4485 15.44 11.6174 15.44 11.7863 15.44C11.8041 15.44 11.8307 15.4756 11.8307 15.4933C11.8307 15.5911 11.8307 15.6978 11.8218 15.7956C11.8218 15.8133 11.8218 15.8222 11.8218 15.8578C11.8841 15.7778 11.9374 15.7156 11.9907 15.6444C12.1596 15.4489 12.373 15.3689 12.6218 15.36C12.7107 15.36 12.7196 15.3689 12.7196 15.4667C12.7196 15.6356 12.7196 15.7956 12.7196 15.9556C12.6218 15.9556 12.533 15.9556 12.4441 15.9556C12.1418 15.9644 11.9196 16.1689 11.9107 16.4622C11.893 16.8267 11.9018 17.1911 11.9018 17.5556C11.9018 17.6267 11.9018 17.6978 11.9018 17.76C11.9018 17.8044 11.8841 17.8222 11.8396 17.8222C11.6707 17.8222 11.5018 17.8222 11.333 17.8222C11.2796 17.8222 11.2618 17.8044 11.2618 17.7511C11.2618 17.0489 11.2618 16.3378 11.2707 15.6356V15.4311L11.2796 15.44ZM21.4663 17.8311V15.4133C21.573 15.4133 21.6885 15.4133 21.7952 15.4133C21.813 15.4133 21.8396 15.4489 21.8396 15.4667C21.8396 15.5378 21.8396 15.6178 21.8396 15.6889C21.8396 15.7156 21.8396 15.7422 21.8396 15.7867C21.8663 15.76 21.8841 15.7422 21.9018 15.7244C21.9641 15.6533 22.0263 15.5733 22.0885 15.5022C22.213 15.3689 22.373 15.3422 22.5418 15.3244C22.5952 15.3244 22.613 15.3422 22.613 15.3956C22.613 15.4933 22.613 15.5911 22.613 15.6889C22.613 15.7333 22.5952 15.7511 22.5596 15.7422C22.5241 15.7422 22.4796 15.7422 22.4441 15.7422C22.1241 15.7422 21.8841 16.0356 21.8841 16.3289C21.8841 16.7733 21.8841 17.2178 21.8841 17.6622C21.8841 17.6978 21.8841 17.7333 21.8841 17.7689C21.8841 17.7867 21.8574 17.8133 21.8396 17.8133C21.7241 17.8133 21.5996 17.8133 21.4841 17.8133L21.4663 17.8311Z" fill="#464648"/>
</g>
</g>
<defs>
<linearGradient id="paint0_linear_2810_57281" x1="5.6676" y1="13.2474" x2="4.0922" y2="13.5739" gradientUnits="userSpaceOnUse">
<stop stop-color="#51A4D5"/>
<stop offset="0.51" stop-color="#4B9ACC"/>
<stop offset="1" stop-color="#3976AB"/>
</linearGradient>
<linearGradient id="paint1_linear_2810_57281" x1="7.90085" y1="13.8955" x2="7.61988" y2="16.5116" gradientUnits="userSpaceOnUse">
<stop stop-color="#51A4D5"/>
<stop offset="0.56" stop-color="#4B9ACE"/>
<stop offset="1" stop-color="#3976AB"/>
</linearGradient>
<linearGradient id="paint2_linear_2810_57281" x1="4.03621" y1="25.0601" x2="5.18287" y2="25.0601" gradientUnits="userSpaceOnUse">
<stop stop-color="#51A4D5"/>
<stop offset="1" stop-color="#3976AB"/>
</linearGradient>
<linearGradient id="paint3_linear_2810_57281" x1="2.89364" y1="17.2362" x2="2.89364" y2="19.2007" gradientUnits="userSpaceOnUse">
<stop stop-color="#51A4D5"/>
<stop offset="1" stop-color="#3976AB"/>
</linearGradient>
<linearGradient id="paint4_linear_2810_57281" x1="3.01169" y1="16.4111" x2="3.01169" y2="18.4111" gradientUnits="userSpaceOnUse">
<stop stop-color="#51A4D5"/>
<stop offset="1" stop-color="#3976AB"/>
</linearGradient>
<clipPath id="clip0_2810_57281">
<rect width="32" height="32" fill="white"/>
</clipPath>
</defs>
</svg>
