<svg width="32" height="32" viewBox="0 0 32 32" fill="none" xmlns="http://www.w3.org/2000/svg">
<g clip-path="url(#clip0_2810_57485)">
<mask id="mask0_2810_57485" style="mask-type:luminance" maskUnits="userSpaceOnUse" x="0" y="0" width="32" height="32">
<path d="M31.9909 0.0177612H0.0175781V31.9911H31.9909V0.0177612Z" fill="white"/>
</mask>
<g mask="url(#mask0_2810_57485)">
<path d="M15.9998 31.9822C24.8265 31.9822 31.982 24.8267 31.982 16C31.982 7.17325 24.8265 0.0177612 15.9998 0.0177612C7.17306 0.0177612 0.0175781 7.17325 0.0175781 16C0.0175781 24.8267 7.17306 31.9822 15.9998 31.9822Z" fill="white"/>
<path fill-rule="evenodd" clip-rule="evenodd" d="M12.7824 16.1155V16.48C12.7824 16.5511 12.7824 16.5955 12.7913 16.6133C12.7913 16.6311 12.818 16.6489 12.8358 16.6578C12.8535 16.6667 12.898 16.6755 12.9513 16.6755V16.7111H12.3291V16.6755C12.3824 16.6755 12.4269 16.6755 12.4447 16.6578C12.4624 16.6489 12.4802 16.6311 12.4891 16.6133C12.4891 16.5955 12.498 16.5511 12.498 16.48V15.6178C12.498 15.5467 12.498 15.5022 12.4891 15.4844C12.4891 15.4667 12.4624 15.4489 12.4447 15.44C12.4269 15.4311 12.3824 15.4222 12.3291 15.4222V15.3867H12.8624C13.0402 15.3867 13.1647 15.4222 13.2447 15.4844C13.3247 15.5555 13.3602 15.6355 13.3602 15.7422C13.3602 15.8311 13.3335 15.9022 13.2891 15.9644C13.2358 16.0267 13.1735 16.0711 13.0847 16.0889C13.0224 16.1067 12.9247 16.1155 12.7913 16.1155H12.7824ZM12.7824 15.4667V16.0444C12.7824 16.0444 12.818 16.0444 12.8269 16.0444C12.898 16.0444 12.9602 16.0178 12.9958 15.9733C13.0313 15.9289 13.058 15.8489 13.058 15.7511C13.058 15.6533 13.0402 15.5822 12.9958 15.5378C12.9602 15.4933 12.898 15.4667 12.818 15.4667H12.7824ZM14.7647 15.3867V15.7422H14.7291C14.7113 15.6622 14.6847 15.6 14.6669 15.5644C14.6402 15.5289 14.6135 15.5022 14.5691 15.4755C14.5424 15.4667 14.5069 15.4578 14.4447 15.4578H14.3558V16.48C14.3558 16.5511 14.3558 16.5867 14.3647 16.6044C14.3647 16.6222 14.3824 16.64 14.4091 16.6489C14.4269 16.6578 14.4535 16.6667 14.4891 16.6667H14.5335V16.7022H13.8935V16.6667H13.938C13.938 16.6667 14.0002 16.6667 14.0269 16.6489C14.0447 16.64 14.0535 16.6222 14.0624 16.6044C14.0624 16.5867 14.0713 16.5511 14.0713 16.48V15.4578H13.9824C13.9024 15.4578 13.8402 15.4755 13.8047 15.5111C13.7513 15.5644 13.7158 15.6355 13.7069 15.7333H13.6713V15.3778H14.7735L14.7647 15.3867ZM16.1335 16.08V16.4889C16.1335 16.56 16.1335 16.5955 16.1424 16.6133C16.1424 16.6311 16.1602 16.6489 16.1869 16.6578C16.2047 16.6667 16.2313 16.6755 16.2669 16.6755H16.3113V16.7111H15.6713V16.6755H15.7158C15.7158 16.6755 15.778 16.6755 15.8047 16.6578C15.8224 16.6489 15.8313 16.6311 15.8402 16.6133C15.8402 16.5955 15.8491 16.56 15.8491 16.4889V15.6178C15.8491 15.5467 15.8491 15.5111 15.8402 15.4933C15.8402 15.4755 15.8224 15.4578 15.7958 15.4489C15.778 15.44 15.7513 15.4311 15.7158 15.4311H15.6713V15.3955H16.3113V15.4311H16.2669C16.2669 15.4311 16.2047 15.4311 16.178 15.4489C16.1602 15.4578 16.1513 15.4755 16.1424 15.4933C16.1424 15.5111 16.1335 15.5467 16.1335 15.6178V15.9911H16.5691V15.6178C16.5691 15.5467 16.5691 15.5111 16.5602 15.4933C16.5602 15.4755 16.5424 15.4578 16.5158 15.4489C16.498 15.44 16.4713 15.4311 16.4358 15.4311H16.4002V15.3955H17.0402V15.4311H17.0047C17.0047 15.4311 16.9424 15.4311 16.9158 15.4489C16.898 15.4578 16.8891 15.4755 16.8802 15.4933C16.8802 15.5111 16.8713 15.5467 16.8713 15.6178V16.4889C16.8713 16.56 16.8713 16.5955 16.8802 16.6133C16.8802 16.6311 16.898 16.6489 16.9247 16.6578C16.9424 16.6667 16.9691 16.6755 17.0047 16.6755H17.0402V16.7111H16.4002V16.6755H16.4358C16.4358 16.6755 16.498 16.6755 16.5247 16.6578C16.5424 16.6489 16.5513 16.6311 16.5602 16.6133C16.5602 16.5955 16.5691 16.56 16.5691 16.4889V16.08H16.1335ZM18.0269 16.3378H17.5913L17.538 16.4711C17.538 16.4711 17.5113 16.5511 17.5113 16.5778C17.5113 16.6133 17.5291 16.64 17.5558 16.6578C17.5735 16.6667 17.6091 16.6755 17.6802 16.6844V16.72H17.2713V16.6844C17.2713 16.6844 17.3513 16.6578 17.378 16.6222C17.4047 16.5867 17.4402 16.5244 17.4847 16.4178L17.9202 15.36H17.938L18.3824 16.4533C18.4269 16.56 18.4624 16.6222 18.4891 16.6489C18.5069 16.6667 18.5424 16.6844 18.578 16.6844V16.72H17.9824V16.6844H18.0091C18.0535 16.6844 18.0891 16.6844 18.1069 16.6667C18.1158 16.6578 18.1247 16.64 18.1247 16.6222C18.1247 16.6133 18.1247 16.5955 18.1247 16.5867C18.1247 16.5867 18.1158 16.56 18.098 16.5155L18.0358 16.3467L18.0269 16.3378ZM18.0002 16.2667L17.8135 15.8133L17.6269 16.2667H18.0002ZM19.9558 16.2489L19.9113 16.7111H18.8269V16.6755H18.8713C18.8713 16.6755 18.9335 16.6755 18.9602 16.6578C18.978 16.6489 18.9869 16.6311 18.9958 16.6133C18.9958 16.5955 19.0047 16.56 19.0047 16.4889V15.6178C19.0047 15.5467 19.0047 15.5111 18.9958 15.4933C18.9958 15.4755 18.978 15.4578 18.9513 15.4489C18.9335 15.44 18.9069 15.4311 18.8713 15.4311H18.8269V15.3955H19.4847V15.4311H19.4313C19.4313 15.4311 19.3691 15.4311 19.3424 15.4489C19.3247 15.4578 19.3158 15.4755 19.3069 15.4933C19.3069 15.5111 19.298 15.5467 19.298 15.6178V16.4622C19.298 16.5333 19.298 16.5778 19.3069 16.5955C19.3069 16.6133 19.3247 16.6311 19.3513 16.64C19.3691 16.64 19.4047 16.64 19.458 16.64H19.5558C19.618 16.64 19.6713 16.6311 19.7158 16.6044C19.7602 16.5778 19.7958 16.5422 19.8313 16.4889C19.8669 16.4355 19.8935 16.3555 19.9202 16.2489H19.9558ZM20.9247 15.3689C21.1202 15.3689 21.2802 15.4222 21.4047 15.5555C21.5291 15.6889 21.5913 15.8489 21.5913 16.0444C21.5913 16.2133 21.5469 16.3644 21.458 16.4889C21.3335 16.6578 21.1647 16.7467 20.9513 16.7467C20.738 16.7467 20.5602 16.6667 20.4358 16.5067C20.338 16.3822 20.2935 16.2311 20.2935 16.0533C20.2935 15.8578 20.3558 15.6889 20.4802 15.5644C20.6047 15.4311 20.7558 15.3689 20.9335 15.3778L20.9247 15.3689ZM20.9335 15.4311C20.818 15.4311 20.738 15.4933 20.6758 15.6178C20.6313 15.7155 20.6047 15.8667 20.6047 16.0533C20.6047 16.2755 20.6402 16.4444 20.7113 16.56C20.7647 16.64 20.8358 16.6755 20.9247 16.6755C20.9869 16.6755 21.0402 16.6578 21.0758 16.6222C21.1291 16.5778 21.1735 16.5155 21.2002 16.4178C21.2269 16.3289 21.2447 16.2044 21.2447 16.0622C21.2447 15.8844 21.2269 15.7511 21.2002 15.6711C21.1735 15.5822 21.1291 15.52 21.0847 15.4844C21.0402 15.4489 20.9869 15.4311 20.9247 15.4311H20.9335ZM22.2935 15.3867L22.898 16.2133V15.6444C22.898 15.5644 22.8891 15.5111 22.8624 15.4844C22.8358 15.4489 22.7824 15.4311 22.7202 15.4311V15.3955H23.1291V15.4311C23.0758 15.4311 23.0402 15.4489 23.0224 15.4578C23.0047 15.4667 22.9869 15.4844 22.978 15.5111C22.9691 15.5378 22.9602 15.5822 22.9602 15.6444V16.7467H22.9335L22.1069 15.6444V16.4889C22.1069 16.5689 22.1247 16.6133 22.1513 16.64C22.1869 16.6667 22.2224 16.6844 22.258 16.6844H22.2847V16.72H21.8491V16.6844C21.9202 16.6844 21.9647 16.6667 21.9913 16.64C22.018 16.6133 22.0269 16.56 22.0269 16.4889V15.5555L22.0002 15.52C22.0002 15.52 21.9558 15.4578 21.9291 15.4489C21.9113 15.44 21.8847 15.4311 21.8402 15.4311V15.3955H22.2758L22.2935 15.3867ZM24.0358 16.6755V16.7111H23.3958V16.6755H23.4402C23.4402 16.6755 23.5024 16.6755 23.5291 16.6578C23.5469 16.6489 23.5558 16.6311 23.5647 16.6133C23.5647 16.5955 23.5735 16.56 23.5735 16.4889V15.6178C23.5735 15.5467 23.5735 15.5111 23.5647 15.4933C23.5647 15.4755 23.5469 15.4578 23.5202 15.4489C23.5024 15.44 23.4758 15.4311 23.4402 15.4311H23.3958V15.3955H24.0358V15.4311H23.9913C23.9913 15.4311 23.9291 15.4311 23.9024 15.4489C23.8847 15.4578 23.8758 15.4755 23.8669 15.4933C23.8669 15.5111 23.858 15.5467 23.858 15.6178V16.4889C23.858 16.56 23.858 16.5955 23.8669 16.6133C23.8669 16.6311 23.8847 16.6489 23.9113 16.6578C23.9291 16.6667 23.9558 16.6755 23.9913 16.6755H24.0358ZM25.1735 15.4222V15.3867H25.8224V15.4222H25.7869C25.7869 15.4222 25.7247 15.4222 25.698 15.44C25.6802 15.4489 25.6713 15.4667 25.6624 15.4844C25.6624 15.5022 25.6535 15.5378 25.6535 15.6089V16.2578C25.6535 16.3822 25.6447 16.48 25.618 16.5333C25.5913 16.5955 25.5558 16.64 25.4935 16.6755C25.4313 16.7111 25.3602 16.7378 25.2802 16.7378C25.1735 16.7378 25.1735 16.7111 25.2091 16.7111C25.2358 16.7111 25.298 16.6489 25.3158 16.6311C25.3335 16.6133 25.3424 16.5955 25.3513 16.56C25.3513 16.5333 25.3602 16.4444 25.3602 16.3111V15.6C25.3602 15.5289 25.3602 15.4933 25.3513 15.4755C25.3513 15.4578 25.3335 15.44 25.3069 15.4311C25.2891 15.4222 25.2624 15.4133 25.2269 15.4133H25.1735V15.4222ZM26.7913 16.3378H26.3558L26.3024 16.4711C26.3024 16.4711 26.2758 16.5511 26.2758 16.5778C26.2758 16.6133 26.2935 16.64 26.3202 16.6578C26.338 16.6667 26.3735 16.6755 26.4447 16.6844V16.72H26.0358V16.6844C26.0358 16.6844 26.1158 16.6578 26.1424 16.6222C26.1691 16.5867 26.2047 16.5244 26.2491 16.4178L26.6847 15.36H26.7024L27.1469 16.4533C27.1913 16.56 27.2269 16.6222 27.2535 16.6489C27.2713 16.6667 27.3069 16.6844 27.3424 16.6844V16.72H26.7469V16.6844H26.7735C26.818 16.6844 26.8535 16.6844 26.8713 16.6667C26.8802 16.6578 26.8891 16.64 26.8891 16.6222C26.8891 16.6133 26.8891 16.5955 26.8891 16.5867C26.8891 16.5867 26.8802 16.56 26.8624 16.5155L26.8002 16.3467L26.7913 16.3378ZM26.7647 16.2667L26.578 15.8133L26.3913 16.2667H26.7647ZM28.0091 15.3867L28.6135 16.2133V15.6444C28.6135 15.5644 28.6047 15.5111 28.578 15.4844C28.5513 15.4489 28.498 15.4311 28.4358 15.4311V15.3955H28.8447V15.4311C28.7913 15.4311 28.7558 15.4489 28.738 15.4578C28.7202 15.4667 28.7024 15.4844 28.6935 15.5111C28.6847 15.5378 28.6758 15.5822 28.6758 15.6444V16.7467H28.6491L27.8224 15.6444V16.4889C27.8224 16.5689 27.8402 16.6133 27.8669 16.64C27.9024 16.6667 27.938 16.6844 27.9735 16.6844H28.0002V16.72H27.5647V16.6844C27.6358 16.6844 27.6802 16.6667 27.7069 16.64C27.7335 16.6133 27.7424 16.56 27.7424 16.4889V15.5555L27.7158 15.52C27.7158 15.52 27.6713 15.4578 27.6447 15.4489C27.6269 15.44 27.6002 15.4311 27.5558 15.4311V15.3955H27.9913L28.0091 15.3867ZM29.5735 15.4667V16.0089H29.6002C29.6802 16.0089 29.7335 15.9822 29.7691 15.9289C29.8047 15.8755 29.8224 15.7955 29.8402 15.6978H29.8758V16.3911H29.8402C29.8402 16.3111 29.8135 16.2489 29.7958 16.2044C29.7691 16.16 29.7424 16.1244 29.7158 16.1067C29.6891 16.0889 29.6447 16.08 29.5824 16.08V16.4533C29.5824 16.5244 29.5824 16.5689 29.5824 16.5867C29.5824 16.6044 29.6002 16.6133 29.618 16.6311C29.6358 16.64 29.6624 16.6489 29.698 16.6489H29.7691C29.8847 16.6489 29.9735 16.6222 30.0447 16.56C30.1158 16.5067 30.1602 16.4178 30.1958 16.2933H30.2313L30.178 16.72H29.1202V16.6844H29.1647C29.1647 16.6844 29.2269 16.6844 29.2535 16.6667C29.2713 16.6578 29.2802 16.64 29.2891 16.6222C29.2891 16.6044 29.298 16.5689 29.298 16.4978V15.6267C29.298 15.5644 29.298 15.5289 29.298 15.52C29.298 15.4933 29.2802 15.4755 29.2624 15.4667C29.2358 15.4489 29.2091 15.44 29.1647 15.44H29.1202V15.4044H30.1424V15.7955H30.1069C30.0891 15.6978 30.0624 15.6267 30.0358 15.5911C30.0091 15.5555 29.9558 15.52 29.9024 15.5022C29.8669 15.4933 29.8047 15.4844 29.7158 15.4844H29.5913L29.5735 15.4667ZM15.218 16.48V16.72H14.9869V16.48H15.218Z" fill="#59595B"/>
<path d="M6.63084 14.6755C6.77306 14.6755 6.81751 14.7555 6.82639 14.8533C6.82639 14.96 6.82639 15.0577 6.82639 15.1644C6.82639 15.5911 6.82639 16.0266 6.82639 16.4533C6.82639 16.5511 6.82639 16.6577 6.82639 16.7466C6.71084 16.8177 6.63084 16.8622 6.51528 16.9333H7.48417C7.37751 16.8711 7.30639 16.8177 7.19084 16.7555C7.18195 16.4622 7.19084 16.1511 7.19084 15.8311C7.37751 15.7422 7.56417 15.7955 7.74195 15.7866C7.91973 15.7777 8.08862 15.7866 8.30195 15.7866C8.29306 16.1422 8.38195 16.4711 8.22195 16.7822C8.13306 16.8266 8.05306 16.8711 7.91973 16.9422H8.90639C8.79973 16.88 8.72862 16.8266 8.61306 16.7555C8.59528 16.4444 8.61306 16.1066 8.61306 15.7689C8.61306 15.44 8.61306 15.1111 8.61306 14.7555C8.69306 14.6933 8.78195 14.6311 8.87973 14.5689H7.96417C8.05306 14.6133 8.13306 14.6489 8.22195 14.6933C8.38195 14.9866 8.27528 15.3066 8.31084 15.6444C8.1064 15.6444 7.91973 15.6533 7.74195 15.6533C7.56417 15.6533 7.39528 15.6533 7.19973 15.6533V14.7022C7.27973 14.6577 7.36862 14.6133 7.50195 14.5511H6.78195C7.17306 14.2489 7.57306 13.9911 8.04417 13.8666C8.34639 13.7866 8.65751 13.6977 8.96862 13.6444C9.37751 13.5733 9.75973 13.68 10.142 13.8044C10.4175 13.9022 10.6575 14.0622 10.8264 14.2933C11.0308 14.5777 11.1197 14.8889 11.0664 15.2444C11.0042 15.6889 10.782 16.08 10.4975 16.4089C10.2931 16.6489 10.0353 16.8355 9.80417 17.04C9.79528 17.04 9.76862 17.04 9.76862 17.04C9.76862 16.3644 9.76862 15.6977 9.77751 15.0222C9.77751 14.8977 9.80417 14.7644 9.82195 14.64C9.91973 14.6133 9.98195 14.5955 10.0442 14.5777C10.0442 14.5777 10.0442 14.56 10.0442 14.5511H9.11084C9.22639 14.6044 9.29751 14.6489 9.39528 14.6933C9.39528 14.7644 9.40417 14.8355 9.40417 14.9066C9.40417 15.5822 9.40417 16.2577 9.40417 16.9333C9.40417 17.2 9.29751 17.3511 9.04862 17.4666C8.67528 17.6444 8.28417 17.76 7.87528 17.8311C7.50195 17.8933 7.11084 17.9111 6.73751 17.7955C6.55973 17.7422 6.38195 17.6889 6.22195 17.6089C5.91973 17.4666 5.73306 17.2089 5.59973 16.9155C5.59084 16.8889 5.56417 16.8622 5.56417 16.8355C5.56417 16.5333 5.49306 16.2222 5.61751 15.9289C5.83973 15.4311 6.10639 14.9689 6.60417 14.6666" fill="#07AA54"/>
<path d="M4.7111 16.5778C4.7111 16.7111 4.73777 16.8622 4.73777 17.0133C4.72888 17.3066 4.53333 17.52 4.34666 17.7155C3.88444 18.1778 3.31555 18.4089 2.64888 18.3733C2.29333 18.3555 1.98221 18.24 1.83999 17.8755C1.78666 17.7333 1.77777 17.6 1.81333 17.4578C1.92888 17.0578 2.19555 16.7555 2.53333 16.5422C2.77333 16.3911 3.04888 16.2755 3.32444 16.2133C3.58221 16.1511 3.85777 16.1511 4.11555 16.1778C4.33777 16.2044 4.52444 16.3644 4.70221 16.5866" fill="#07AA54"/>
</g>
</g>
<defs>
<clipPath id="clip0_2810_57485">
<rect width="32" height="32" fill="white"/>
</clipPath>
</defs>
</svg>
