<svg width="32" height="32" viewBox="0 0 32 32" fill="none" xmlns="http://www.w3.org/2000/svg">
<g clip-path="url(#clip0_2707_337318)">
<path d="M15.9998 31.9823C24.8265 31.9823 31.982 24.8268 31.982 16C31.982 7.17331 24.8265 0.0178223 15.9998 0.0178223C7.17306 0.0178223 0.0175781 7.17331 0.0175781 16C0.0175781 24.8268 7.17306 31.9823 15.9998 31.9823Z" fill="white"/>
<path d="M23.4755 8.88897C23.3866 9.00452 23.3155 9.1023 23.2266 9.20008C22.7022 9.80452 22.16 10.4001 21.5911 10.9779C21.1108 11.4538 20.6065 11.9048 20.08 12.329C19.4967 12.8056 18.8753 13.2337 18.2222 13.609C17.6848 13.922 17.1035 14.1527 16.4978 14.2934C16.2335 14.3391 15.9659 14.3629 15.6978 14.3645C15.7778 14.2579 15.8489 14.1512 15.9289 14.0534C16.5903 13.1917 17.3185 12.3833 18.1066 11.6356C18.6142 11.1505 19.158 10.7047 19.7333 10.3023C20.261 9.92139 20.827 9.59667 21.4222 9.33341C21.885 9.1233 22.3762 8.98253 22.88 8.91563C23.0769 8.88451 23.2766 8.87557 23.4755 8.88897Z" fill="#088082"/>
<path d="M23.1111 20.2845H22.2223L21.2267 18.5067L20.8267 20.2845H19.8667C20.1156 19.1467 20.3734 18.0178 20.6223 16.8889H21.5111L22.4711 18.6667C22.5689 18.3556 22.6045 18.0711 22.6756 17.7778C22.7467 17.4845 22.8 17.1911 22.8623 16.8889H23.7956C23.8 16.9451 23.8 17.0016 23.7956 17.0578C23.5645 18.08 23.3423 19.0934 23.1111 20.1156C23.1141 20.1718 23.1141 20.2282 23.1111 20.2845Z" fill="#26275A"/>
<path d="M7.83074 20.2934H6.75518C6.75518 20.2045 6.66629 20.1067 6.62185 20C6.5774 19.8934 6.43518 19.5823 6.35518 19.3689C6.35518 19.3067 6.29296 19.2622 6.21296 19.2711C6.13296 19.28 6.00852 19.2711 5.90185 19.2711C5.82185 19.6178 5.75074 19.9467 5.67074 20.2845H4.72852C4.92407 19.3422 5.15518 18.4 5.35963 17.44L5.01296 17.3334V16.8889H5.06629H7.19963C7.37789 16.8991 7.55413 16.9319 7.72407 16.9867C7.91995 17.0465 8.08498 17.18 8.18445 17.3591C8.28392 17.5381 8.31007 17.7488 8.2574 17.9467C8.21571 18.1921 8.11224 18.4229 7.95673 18.6173C7.80122 18.8117 7.5988 18.9633 7.36852 19.0578L7.28852 19.1022C7.46629 19.5556 7.67963 19.8756 7.83074 20.2934ZM6.05296 18.5156C6.31963 18.5156 6.55963 18.5156 6.79074 18.5156C6.88122 18.5123 6.96902 18.484 7.04436 18.4338C7.11969 18.3836 7.1796 18.3134 7.2174 18.2311C7.24283 18.188 7.25715 18.1393 7.25908 18.0893C7.26101 18.0392 7.25048 17.9895 7.22845 17.9446C7.20642 17.8996 7.17357 17.8609 7.13286 17.8318C7.09214 17.8027 7.04483 17.7841 6.99518 17.7778C6.74383 17.7555 6.49098 17.7555 6.23963 17.7778C6.1774 18.0445 6.12407 18.3022 6.06185 18.5778L6.05296 18.5156Z" fill="#26275A"/>
<path d="M14.6045 16.889C14.9534 16.8797 15.295 16.9894 15.5733 17.2001C15.6992 17.2989 15.8019 17.4241 15.8741 17.567C15.9463 17.7098 15.9862 17.8668 15.9911 18.0267C16.0114 18.306 15.9728 18.5863 15.8779 18.8497C15.7829 19.1131 15.6338 19.3536 15.44 19.5556C15.2385 19.7762 14.9945 19.9537 14.7225 20.0775C14.4506 20.2012 14.1565 20.2686 13.8578 20.2756C13.3867 20.2756 12.9067 20.2756 12.4356 20.2756H12.3467C12.5067 19.5467 12.6667 18.8267 12.8356 18.0979H13.7778C13.7067 18.5512 13.5822 18.9867 13.4933 19.4312C13.8569 19.5015 14.2336 19.435 14.5511 19.2445C14.7146 19.1361 14.8435 18.9829 14.9223 18.8032C15.0011 18.6235 15.0266 18.4249 14.9956 18.2312C14.9875 18.1464 14.9558 18.0655 14.9039 17.9979C14.852 17.9303 14.7821 17.8787 14.7022 17.849C14.5847 17.7857 14.4535 17.7521 14.32 17.7512C14.0457 17.7497 13.7732 17.7077 13.5111 17.6267L12.6222 17.3867V16.889H12.7289H14.5067H14.6045Z" fill="#26275A"/>
<path d="M8.1333 20.3022L9.91108 17.4756L9.61775 17.3778V16.8889H11.2177L11.8844 20.2756H10.9155L10.8089 19.6978H9.59997C9.56882 19.6963 9.53803 19.705 9.51233 19.7227C9.48663 19.7403 9.46745 19.7659 9.45775 19.7956C9.37775 19.92 9.29775 20.0445 9.22663 20.1689C9.20487 20.2154 9.16928 20.254 9.12472 20.2795C9.08017 20.3049 9.02883 20.316 8.97775 20.3111C8.71108 20.2934 8.44441 20.3022 8.1333 20.3022ZM9.9733 18.9334H10.6666C10.6666 18.6311 10.5689 18.3467 10.5155 18.0445C10.3111 18.3645 10.1333 18.6489 9.94663 18.9334H9.9733Z" fill="#26275A"/>
<path d="M23.4932 20.2934C23.7954 19.7867 24.1065 19.3334 24.3821 18.8711C24.6576 18.4089 24.9687 17.9822 25.2709 17.4756L24.9687 17.3778V16.8889H25.0309H26.4532C26.5865 16.8889 26.5865 16.8889 26.6043 17.0222C26.6221 17.1556 26.6043 17.1822 26.6043 17.2711C26.6043 17.36 26.6576 17.4845 26.6843 17.5911C26.8443 18.4267 27.0132 19.2534 27.1732 20.0889C27.1732 20.1511 27.1732 20.2134 27.2176 20.2934H26.2576C26.2576 20.1156 26.1865 19.92 26.1509 19.7156H26.0176C25.6798 19.7156 25.3509 19.7156 25.0132 19.7156C24.9607 19.7088 24.9073 19.7189 24.861 19.7445C24.8146 19.7701 24.7776 19.8098 24.7554 19.8578C24.6929 19.9841 24.6216 20.1059 24.5421 20.2222C24.5292 20.2427 24.5124 20.2604 24.4925 20.2742C24.4726 20.2879 24.4502 20.2975 24.4265 20.3022L23.4932 20.2934ZM25.8932 18.0622H25.8487L25.3154 18.9511C25.5537 18.9911 25.797 18.9911 26.0354 18.9511C25.9909 18.6667 25.9376 18.3822 25.8932 18.0622Z" fill="#26275A"/>
<path d="M18.311 19.689H17.0221H16.9688L16.6666 20.2401H15.6621C15.8666 19.9023 16.071 19.6001 16.2666 19.289C16.4621 18.9779 16.6666 18.6756 16.8621 18.4001L17.4754 17.449L17.1732 17.3512V16.889C17.7059 16.8516 18.2405 16.8516 18.7732 16.889C19.0132 18.009 19.2177 19.1379 19.4488 20.2845H18.4266L18.3377 19.7334L18.311 19.689ZM18.0532 18.0179L17.4843 18.9067H18.2221C18.1688 18.6667 18.1154 18.3467 18.0532 18.0179Z" fill="#26275A"/>
<path d="M12.8086 15.5112C12.933 15.3245 13.0219 15.1734 13.1286 15.0223C13.2353 14.8712 13.4841 14.5334 13.6708 14.2934C13.7492 14.2031 13.8323 14.1171 13.9197 14.0356C14.1241 13.8223 14.3375 13.6089 14.5508 13.4045V13.36C14.9358 12.9691 15.3761 12.6367 15.8575 12.3734C16.1995 12.2021 16.5649 12.0823 16.9419 12.0178H17.013H17.0841L17.0308 12.1156C16.853 12.3378 16.6753 12.56 16.5064 12.7912C16.0972 13.322 15.6388 13.813 15.1375 14.2578C14.8972 14.4651 14.6449 14.658 14.3819 14.8356C14.1686 14.9689 13.9553 15.1023 13.7241 15.2178C13.501 15.3361 13.2613 15.42 13.013 15.4667L12.8086 15.5112Z" fill="#80BD4A"/>
<path d="M21.333 21.6711H21.5997C21.4841 22.1067 21.3775 22.56 21.2619 22.96C21.2619 23.0578 21.2086 23.0667 21.0397 23.0578L20.5864 22.1689L20.3552 22.9867C20.311 23.0086 20.2624 23.02 20.213 23.02C20.1637 23.02 20.115 23.0086 20.0708 22.9867L20.4441 21.6089H20.6575L20.8708 22.0089C20.9372 22.1546 21.0208 22.2918 21.1197 22.4178C21.1641 22.2222 21.1908 21.9289 21.333 21.6711Z" fill="#088082"/>
<path d="M26.2311 21.6801H27.2711L27.2 21.9467H26.4356C26.4356 22.0445 26.4356 22.1156 26.4356 22.1867C26.6489 22.2489 26.8711 22.1867 27.0578 22.2401C27.0578 22.2401 27.0578 22.2401 27.0578 22.2934C26.9956 22.5067 26.9956 22.5067 26.7823 22.5067H26.3111C26.3111 22.6045 26.2667 22.6934 26.24 22.8089H26.9956C26.9956 22.9067 26.9511 22.9867 26.9334 23.0667H25.8667C25.9645 22.5956 26.0978 22.1334 26.2311 21.6801Z" fill="#088082"/>
<path d="M23.9996 22.5689L24.2485 21.6801H24.5151L24.1507 23.0578L23.9996 23.1112L23.5196 22.2223L23.2618 23.1112H22.9951C23.1196 22.6401 23.2351 22.2223 23.3596 21.7334H23.4573C23.5462 21.7334 23.5907 21.7334 23.6351 21.8401L23.9996 22.5689Z" fill="#088082"/>
<path d="M22.7908 23.1112H22.5508L22.4797 22.7912C22.2998 22.7378 22.1084 22.7378 21.9285 22.7912C21.8574 22.7912 21.7952 22.8979 21.7419 22.969C21.6885 23.0401 21.6085 23.1467 21.3597 23.1023C21.356 23.0639 21.356 23.0252 21.3597 22.9868C21.653 22.5868 21.9552 22.1867 22.2485 21.7867C22.3108 21.689 22.3908 21.7067 22.4708 21.7156C22.4857 21.7197 22.4992 21.7276 22.5101 21.7385C22.521 21.7494 22.5289 21.763 22.533 21.7779L22.773 23.0668C22.773 23.0668 22.7997 23.0312 22.7908 23.1112ZM22.3641 22.1156L22.0885 22.5067H22.4263C22.3997 22.3379 22.3908 22.2223 22.3641 22.0712V22.1156Z" fill="#088082"/>
<path d="M19.4755 21.9378H18.7111C18.7111 22.0356 18.6666 22.1245 18.6311 22.2489H19.3066C19.3066 22.3467 19.3066 22.4178 19.2533 22.5067H18.5689C18.5155 22.7023 18.4622 22.8801 18.4 23.0756H18.1333C18.2311 22.6045 18.3822 22.1423 18.4889 21.6801H19.5555C19.5555 21.7689 19.5022 21.8401 19.4755 21.9378Z" fill="#088082"/>
<path d="M25.9378 22.0623L25.7245 22.1511L25.6622 22.0889C25.6398 22.0447 25.6079 22.0059 25.5688 21.9754C25.5297 21.9448 25.4844 21.9233 25.436 21.9122C25.3877 21.9012 25.3375 21.901 25.289 21.9115C25.2405 21.9221 25.195 21.9432 25.1556 21.9734C25.0718 22.0215 25.0002 22.0882 24.9463 22.1683C24.8923 22.2484 24.8575 22.3399 24.8445 22.4356C24.831 22.4957 24.8347 22.5585 24.8551 22.6166C24.8755 22.6748 24.9119 22.726 24.96 22.7645C25.0144 22.7993 25.0776 22.8178 25.1422 22.8178C25.2068 22.8178 25.2701 22.7993 25.3245 22.7645C25.4134 22.72 25.4845 22.6578 25.5822 22.5956L25.7689 22.7645C25.6304 22.9271 25.4379 23.0344 25.2267 23.0667C25.1292 23.0812 25.0296 23.0709 24.9371 23.0367C24.8446 23.0026 24.7622 22.9457 24.6976 22.8712C24.6329 22.7968 24.588 22.7073 24.5671 22.611C24.5462 22.5146 24.5498 22.4146 24.5778 22.32C24.6149 22.1334 24.7109 21.9636 24.8517 21.8356C24.9925 21.7075 25.1707 21.6281 25.36 21.6089C25.4935 21.6075 25.6236 21.6516 25.7286 21.734C25.8337 21.8164 25.9075 21.9322 25.9378 22.0623Z" fill="#088082"/>
<path d="M19.7775 21.6801H20.0353C20.0397 21.7184 20.0397 21.7572 20.0353 21.7956L19.742 22.8712C19.6798 23.1023 19.6709 23.1023 19.4131 23.0667C19.5553 22.6045 19.6531 22.1512 19.7775 21.6801Z" fill="#088082"/>
</g>
<defs>
<clipPath id="clip0_2707_337318">
<rect width="32" height="32" fill="white"/>
</clipPath>
</defs>
</svg>
