<svg width="32" height="32" viewBox="0 0 32 32" fill="none" xmlns="http://www.w3.org/2000/svg">
<g clip-path="url(#clip0_2707_336923)">
<path d="M15.9998 31.9823C24.8265 31.9823 31.982 24.8268 31.982 16C31.982 7.17331 24.8265 0.0178223 15.9998 0.0178223C7.17306 0.0178223 0.0175781 7.17331 0.0175781 16C0.0175781 24.8268 7.17306 31.9823 15.9998 31.9823Z" fill="white"/>
<path d="M14.8976 4.3823C14.9598 4.82675 15.0131 5.27119 15.0753 5.73341L14.7376 5.78675L14.6487 5.19119L14.1598 5.25341L14.222 5.84008L13.8842 5.91119C13.8309 5.44897 13.7687 5.0223 13.7153 4.56008C13.8258 4.52939 13.9426 4.52939 14.0531 4.56008C14.0531 4.71119 14.0531 4.8623 14.1331 5.03119L14.6131 4.96008L14.5687 4.44452L14.7198 4.37341L14.8976 4.3823Z" fill="#079444"/>
<path d="M16.7108 19.5556C16.731 19.6551 16.7578 19.753 16.7908 19.849C16.8393 20.0389 16.8987 20.2258 16.9686 20.409C17.0161 20.5801 17.1274 20.7264 17.2797 20.8179C17.5552 20.9423 17.8397 21.049 18.1241 21.1556C18.1241 21.1556 18.1241 21.1556 18.1863 21.1556C18.2486 21.1556 18.2574 20.9512 18.1863 20.8712C18.1032 20.6197 18.0053 20.3733 17.893 20.1334C17.8747 20.0897 17.8475 20.0503 17.813 20.0179C17.6857 19.8512 17.5169 19.7209 17.3235 19.6398C17.1301 19.5587 16.9189 19.5297 16.7108 19.5556ZM13.7419 20.4445C13.8054 20.666 13.8529 20.8918 13.8841 21.1201C13.8858 21.2101 13.916 21.2973 13.9703 21.3692C14.0246 21.441 14.1002 21.4938 14.1863 21.5201C14.7376 21.7915 15.3512 21.9112 15.9641 21.8667L16.5508 21.7956L15.7863 21.3334C15.5038 21.1528 15.2932 20.8793 15.1908 20.5601C15.1624 20.4842 15.1298 20.41 15.093 20.3379C14.6693 20.5276 14.197 20.5804 13.7419 20.489M14.8086 14.9156C14.8132 14.9421 14.8132 14.9692 14.8086 14.9956C14.769 15.1311 14.702 15.2571 14.6118 15.3656C14.5216 15.4742 14.4101 15.5631 14.2841 15.6267C14.0708 15.7334 13.8397 15.8223 13.6174 15.9112C13.1653 16.0712 12.7281 16.2705 12.3108 16.5068C11.9832 16.6891 11.7078 16.9523 11.5108 17.2712C11.4259 17.411 11.3658 17.5643 11.333 17.7245C11.2732 18.1247 11.2944 18.5327 11.3952 18.9245C11.5242 19.5704 11.7178 20.2018 11.973 20.809C12.1624 21.3059 12.4069 21.7799 12.7019 22.2223C12.8501 22.3826 12.9543 22.5786 13.0041 22.7912C12.9966 22.8113 12.9966 22.8334 13.0041 22.8534C13.1997 22.8979 13.3597 22.9334 13.5197 22.9868C13.9208 23.1335 14.3461 23.2029 14.773 23.1912C15.1908 23.1912 15.6174 23.1023 16.0352 23.0401C16.453 22.9779 17.1019 22.8179 17.653 22.7823C17.7081 22.779 17.7613 22.7607 17.8067 22.7294C17.8522 22.6981 17.8881 22.6549 17.9108 22.6045C17.8737 22.5692 17.8318 22.5392 17.7863 22.5156L17.333 22.3112C16.9753 22.1626 16.5915 22.0871 16.2041 22.089C15.8393 22.1067 15.4737 22.0948 15.1108 22.0534C14.7083 22.0221 14.3188 21.8973 13.973 21.689C13.9236 21.6617 13.88 21.6248 13.8449 21.5806C13.8098 21.5363 13.7839 21.4856 13.7686 21.4312C13.5463 20.6045 13.3152 19.7867 13.0841 18.9601C13.0442 18.7516 13.0442 18.5375 13.0841 18.329C13.253 18.9956 13.3241 19.6801 13.5552 20.329C13.7063 20.329 13.8041 20.2312 13.9463 20.2756C14.1084 20.3366 14.2848 20.3489 14.4537 20.311C14.6227 20.2731 14.7769 20.1866 14.8974 20.0623L15.4663 19.5556C15.6494 19.3799 15.8768 19.257 16.1241 19.2001C16.2721 19.1904 16.4206 19.1904 16.5686 19.2001C16.6219 19.0845 16.6841 18.969 16.7286 18.8534C16.7795 18.7178 16.8628 18.5967 16.9713 18.5007C17.0797 18.4046 17.21 18.3365 17.3508 18.3023C17.5147 18.2588 17.6627 18.1694 17.7774 18.0445C17.8397 17.6001 18.1686 17.5379 18.5863 17.5734C18.533 17.4579 18.5063 17.3779 18.4708 17.2979L17.9286 16.409C17.8328 16.2219 17.6813 16.0693 17.495 15.9721C17.3087 15.875 17.0967 15.8381 16.8886 15.8668L16.1686 15.9468L16.4263 15.4045L16.6486 15.6534C16.773 15.7868 16.8619 15.7868 16.9952 15.6534L17.0841 15.5556L17.413 15.609V15.4934H17.6974L17.8397 15.609C17.8841 15.5201 17.9374 15.449 17.973 15.369C18.0086 15.289 18.053 15.1201 18.0974 15.0045C18.129 14.9097 18.1917 14.8283 18.2752 14.7734C18.4603 14.6922 18.6245 14.57 18.7554 14.416C18.8863 14.262 18.9804 14.0803 19.0308 13.8845L19.2974 13.8134C19.2974 13.6001 19.2974 13.3956 19.2352 13.209C19.2024 12.9893 19.1257 12.7785 19.0096 12.5891C18.8936 12.3997 18.7405 12.2357 18.5597 12.1068C18.1862 11.8493 17.726 11.7502 17.2797 11.8312C17.1461 11.8588 17.007 11.8367 16.8886 11.769C16.657 11.628 16.3885 11.5594 16.1177 11.5721C15.8468 11.5847 15.586 11.6781 15.3686 11.8401C15.0462 12.0946 14.7618 12.394 14.5241 12.729C14.2865 13.0073 14.1216 13.3402 14.0441 13.6979C13.9776 13.8721 13.9675 14.0628 14.0154 14.2431C14.0632 14.4234 14.1666 14.584 14.3108 14.7023C14.4646 14.8099 14.6249 14.9079 14.7908 14.9956M19.3686 20.2134L19.6441 20.0356C19.7293 19.8059 19.7556 19.5584 19.7206 19.3159C19.6856 19.0734 19.5904 18.8435 19.4436 18.6472C19.2969 18.451 19.1033 18.2946 18.8806 18.1924C18.6578 18.0903 18.413 18.0455 18.1686 18.0623C18.0441 18.3734 17.9997 18.4001 17.6441 18.4267H17.5997C17.4849 18.4342 17.3736 18.4687 17.2747 18.5274C17.1758 18.5861 17.0922 18.6673 17.0308 18.7645C16.9449 18.9537 16.9111 19.1624 16.933 19.369C17.2345 19.3693 17.526 19.4767 17.7556 19.6721C17.9852 19.8675 18.1378 20.1381 18.1863 20.4356C18.4644 20.4479 18.7423 20.4056 19.0041 20.3112L19.3952 20.2045L18.6486 20.6667C18.6041 20.6667 18.5419 20.729 18.5152 20.7734C18.4884 20.8175 18.4708 20.8665 18.4635 20.9176C18.4562 20.9686 18.4592 21.0206 18.4725 21.0704C18.4858 21.1203 18.509 21.1669 18.5408 21.2075C18.5726 21.2481 18.6123 21.2819 18.6574 21.3067C18.7307 21.3455 18.8083 21.3753 18.8886 21.3956L19.2797 21.5468L19.1908 21.8045C19.1775 21.7109 19.1283 21.6261 19.0537 21.5681C18.9791 21.51 18.8848 21.4833 18.7908 21.4934C18.4937 21.4924 18.1969 21.4746 17.9019 21.4401C17.7162 21.4341 17.5356 21.3781 17.3792 21.278C17.2227 21.1778 17.0962 21.0373 17.013 20.8712C16.8974 20.6223 16.7997 20.3734 16.7019 20.1156C16.689 20.0652 16.6607 20.02 16.6208 19.9866C16.5809 19.9531 16.5316 19.9329 16.4797 19.929L16.4174 20.2579C16.346 20.2234 16.2861 20.169 16.2451 20.1011C16.2041 20.0332 16.1836 19.9549 16.1863 19.8756C16.1645 19.7582 16.1191 19.6463 16.053 19.5468C16.038 19.5297 16.0195 19.5161 15.9988 19.5068C15.9781 19.4974 15.9557 19.4926 15.933 19.4926C15.9103 19.4926 15.8879 19.4974 15.8672 19.5068C15.8465 19.5161 15.828 19.5297 15.813 19.5468C15.6065 19.6791 15.438 19.8629 15.3241 20.0801C15.2524 20.2051 15.2257 20.3508 15.2483 20.4931C15.271 20.6354 15.3416 20.7657 15.4486 20.8623C15.5997 20.9867 15.7241 21.1379 15.8752 21.2445C16.3197 21.5734 16.7641 21.8845 17.2352 22.2045C17.6252 22.4684 18.0461 22.6834 18.4886 22.8445C18.7661 22.9735 19.0723 23.0286 19.3774 23.0045C19.7952 22.9423 19.9997 22.7645 20.0263 22.3556C20.0396 22.1336 20.0396 21.911 20.0263 21.689C19.9669 21.2098 19.8444 20.7405 19.6619 20.2934C19.6619 20.2934 19.6619 20.249 19.6086 20.2312H19.4219M20.3108 21.9201C20.3108 23.0134 20.3108 24.1067 20.3108 25.2001C20.3108 25.2623 20.3641 25.3512 20.2663 25.3956C20.2193 25.3875 20.1712 25.3875 20.1241 25.3956H11.8841C11.8371 25.3875 11.789 25.3875 11.7419 25.3956C11.6441 25.3423 11.6974 25.2623 11.6974 25.1912V21.8312C11.6441 21.7423 11.5552 21.8312 11.493 21.8312H8.55078V12.6668H11.493C11.5552 12.6668 11.6441 12.7112 11.6974 12.6223V9.3512C11.6974 9.28897 11.6441 9.20008 11.7419 9.15564H11.9286C11.9726 9.17964 12.0209 9.19474 12.0708 9.20008H19.9374C19.9868 9.19223 20.0347 9.17726 20.0797 9.15564H20.2574C20.3552 9.15564 20.3019 9.28897 20.3019 9.3512V12.3734C20.3019 12.4534 20.3019 12.5334 20.3019 12.6223C20.3019 12.7112 20.4352 12.6668 20.5063 12.6668H23.4486V21.7867H20.5152C20.4441 21.7867 20.3552 21.7423 20.3108 21.7867" fill="#029343"/>
<path d="M15.9111 27.6001H15.6533V26.0001H16.16C16.2489 26.3201 16.3467 26.649 16.4444 27.0312C16.5955 26.6757 16.64 26.329 16.7644 26.0001H17.2622V27.5557H16.9689V26.4001C16.8622 26.7823 16.7644 27.1646 16.6578 27.5646H16.3289C16.2489 27.2623 16.1689 26.9512 16.08 26.6757C16.0598 26.5897 16.0299 26.5062 15.9911 26.4268C15.971 26.4755 15.9561 26.5261 15.9467 26.5779V27.609" fill="#0D9748"/>
<path d="M18.2574 26.0001H18.5774L19.2174 26.9957V26.0001H19.5552V27.5557H19.2174L18.5596 26.5246V27.5557H18.2485L18.2574 26.0001Z" fill="#029343"/>
<path d="M9.1645 7.11119L9.53784 7.75119L9.27117 7.92897L8.56006 6.77341L8.88895 6.53341L9.49339 6.9423L9.39561 6.2223L9.77784 5.9823L10.4889 7.13786L10.1956 7.32452C10.0534 7.09341 9.91117 6.88008 9.77784 6.65786L9.85784 7.17341L9.66228 7.29786L9.26228 7.04008H9.21784V7.09341" fill="#079444"/>
<path d="M14.3201 26.6668C14.4948 26.6763 14.6698 26.6763 14.8445 26.6668C14.886 26.6576 14.9231 26.6345 14.9497 26.6013C14.9762 26.5682 14.9907 26.527 14.9907 26.4845C14.9907 26.4421 14.9762 26.4009 14.9497 26.3677C14.9231 26.3346 14.886 26.3115 14.8445 26.3023H14.329L14.3201 26.6668ZM14.9423 25.9912C15.2001 25.9912 15.3423 26.169 15.3423 26.4001C15.3524 26.5106 15.319 26.6206 15.2493 26.7069C15.1796 26.7932 15.0791 26.8489 14.969 26.8623L15.4845 27.5734C15.3486 27.5865 15.2116 27.5865 15.0756 27.5734L14.7379 27.0934C14.6966 27.0224 14.6341 26.9661 14.5591 26.9326C14.4841 26.8991 14.4005 26.8901 14.3201 26.9068V27.5734H14.0356V26.0445H14.7823C14.8356 26.0487 14.8891 26.0487 14.9423 26.0445" fill="#079444"/>
<path d="M20.5775 26.3646L20.3553 26.9601H20.7998L20.5775 26.3646ZM20.7642 26.0001L21.422 27.5557H21.0575L20.9153 27.2179H20.2487L20.1064 27.5557H19.7598L20.4442 26.0001H20.7642Z" fill="#079444"/>
<path d="M12.0177 27.6H11.7421V26.9156H11.0932V27.5556H10.7466V26.0089H11.0932V26.5956H11.7421C11.7494 26.5574 11.7494 26.5182 11.7421 26.48C11.7421 26.3556 11.7421 26.2311 11.7421 26.1156C11.736 26.0983 11.736 26.0795 11.7421 26.0622H11.9466L12.0177 27.6Z" fill="#0D9748"/>
<path d="M13.6177 26.0001C13.7154 26.0712 13.6177 26.1601 13.6177 26.2668H12.7288V26.6046H13.5554V26.889H12.6666V27.3246H13.5554V27.6001H12.4443V26.0446H13.431C13.4863 26.0381 13.5403 26.0231 13.591 26.0001" fill="#0D9748"/>
<path d="M5.40429 10.7913L5.70652 10.969C5.89318 10.6313 5.88429 10.5868 5.64429 10.489C5.51096 10.5424 5.47541 10.6668 5.40429 10.7913ZM6.11541 10.6046L6.80874 10.4979L6.60429 10.8801L6.14207 10.9335C6.09325 10.9302 6.04487 10.9445 6.00573 10.9739C5.96658 11.0033 5.93927 11.0457 5.92874 11.0935L6.33763 11.3424L6.16874 11.6535L5.01318 10.9779C5.14652 10.7468 5.26207 10.5246 5.39541 10.3113C5.42755 10.2452 5.48091 10.1917 5.54697 10.1595C5.61303 10.1273 5.68797 10.1181 5.75985 10.1335C5.83526 10.1415 5.90613 10.1734 5.96211 10.2246C6.01808 10.2758 6.05622 10.3435 6.07096 10.4179C6.07096 10.4801 6.07096 10.5335 6.07096 10.6046" fill="#079444"/>
<path d="M23.9999 7.11115L23.2266 7.33337C23.2266 7.6267 23.2266 7.92004 23.2266 8.22226L22.8799 8.00004V7.29781C22.6399 7.29781 22.6399 7.56448 22.4799 7.67115L22.2222 7.47559C22.4711 7.12004 22.7022 6.77337 22.9333 6.4267L22.9955 6.35559L23.2622 6.55115L22.9422 7.04892C23.1377 6.9867 23.2977 6.96004 23.4488 6.89781C23.5111 6.86115 23.5842 6.8473 23.6556 6.85866C23.7269 6.87001 23.7921 6.90585 23.8399 6.96004L23.9999 7.11115Z" fill="#079444"/>
<path d="M6.49756 8.67565L6.74645 8.43565L7.24422 8.90677L7.36867 9.03121C7.39036 9.0558 7.41703 9.0755 7.44692 9.08899C7.4768 9.10248 7.50921 9.10945 7.542 9.10945C7.57479 9.10945 7.60721 9.10248 7.63709 9.08899C7.66698 9.0755 7.69365 9.0558 7.71534 9.03121C7.74116 9.01128 7.76207 8.98569 7.77646 8.95641C7.79085 8.92713 7.79833 8.89494 7.79833 8.86232C7.79833 8.8297 7.79085 8.79751 7.77646 8.76823C7.76207 8.73895 7.74116 8.71336 7.71534 8.69343C7.582 8.54232 7.43978 8.40899 7.29756 8.27565L7.11089 8.06232L7.35978 7.79565C7.582 8.01788 7.81311 8.22232 8.01756 8.44454C8.09191 8.51797 8.13801 8.61524 8.14776 8.71928C8.15751 8.82332 8.1303 8.92747 8.07089 9.01343C7.98547 9.16859 7.8595 9.29763 7.70645 9.38677C7.63113 9.43328 7.54275 9.45409 7.45459 9.44607C7.36643 9.43806 7.28326 9.40165 7.21756 9.34232L6.52423 8.67565" fill="#079444"/>
<path d="M17.8667 5.76007L17.9289 5.4223C18.0048 5.51607 18.1011 5.59125 18.2105 5.64209C18.3199 5.69293 18.4394 5.71808 18.56 5.71563C18.6045 5.71563 18.6578 5.71563 18.7023 5.64452C18.7467 5.57341 18.56 5.48452 18.48 5.44007C18.3737 5.39451 18.2724 5.3379 18.1778 5.27118C18.1254 5.23293 18.0838 5.18165 18.0572 5.12242C18.0306 5.06319 18.0199 4.99804 18.0262 4.93342C18.0325 4.8688 18.0555 4.80693 18.093 4.75393C18.1305 4.70093 18.1812 4.65862 18.24 4.63118C18.3703 4.56025 18.5216 4.53819 18.6667 4.56896C18.8548 4.60171 19.0336 4.67446 19.1911 4.7823L19.1289 5.06674C18.6489 4.7823 18.5689 4.76452 18.4 4.96007L18.5956 5.09341L18.8445 5.20896C19.04 5.32452 19.12 5.47563 19.0756 5.63563C19.0552 5.73365 19.0016 5.82164 18.9239 5.88478C18.8461 5.94792 18.7491 5.98236 18.6489 5.9823C18.3793 5.99464 18.1134 5.91641 17.8934 5.76007" fill="#079444"/>
<path d="M20.6308 6.08004L20.9419 6.20449V5.72449L20.6308 6.08004ZM20.9242 5.33337L21.2886 5.49337C21.2886 5.98226 21.2442 6.45337 21.2264 6.95115L20.9064 6.81782V6.47115L20.4442 6.28449L20.2575 6.49782L19.9375 6.36449L20.9242 5.33337Z" fill="#079444"/>
<path d="M11.7954 5.45782V5.95559L12.1065 5.84004L11.7954 5.45782ZM12.7732 6.15115L12.4443 6.27559L12.2487 6.06226L11.7954 6.22226V6.50671L11.4932 6.62226V5.18226L11.8754 5.04004L12.7643 6.15115" fill="#079444"/>
<path d="M20.311 21.8312C20.311 21.7423 20.4444 21.8312 20.5155 21.8312H23.4577V12.6668H20.5155C20.4444 12.6668 20.3555 12.7112 20.311 12.6223H23.5199V21.8312H20.311Z" fill="#018B34"/>
<path d="M11.6977 12.6223C11.6443 12.7112 11.5554 12.6668 11.4932 12.6668H8.55099V21.7868H11.4932C11.5554 21.7868 11.6443 21.7423 11.6977 21.7868H8.48877V12.6223H11.6977Z" fill="#018B34"/>
<path d="M25.6353 11.049L25.4575 10.7557L26.3464 10.169L26.142 9.81346L26.3553 9.66235L26.9864 10.6668L26.7731 10.8001L26.542 10.4535L25.6531 11.0224" fill="#079444"/>
<path d="M24.5509 9.52012L24.0176 8.93346L24.2131 8.74679L24.3198 8.94234L24.8887 8.30234L24.7909 8.15123L24.9776 8.00012C25.1642 8.19568 25.3331 8.39123 25.5109 8.58679L25.3687 8.75568L25.1909 8.60457L24.5954 9.19123L24.7198 9.3779L24.5509 9.5379" fill="#079444"/>
<path d="M11.7422 25.3075C11.7892 25.2984 11.8374 25.2984 11.8844 25.3075H20.1155C20.1626 25.2984 20.2107 25.2984 20.2577 25.3075H11.7422Z" fill="#018B34"/>
<path d="M20.0798 9.14673C20.0348 9.16835 19.9869 9.18332 19.9376 9.19117H12.0709C12.0211 9.18583 11.9727 9.17073 11.9287 9.14673H20.0798Z" fill="#018B34"/>
<path d="M17.8755 27.6H17.6533V26.0623H17.8755V27.6Z" fill="#029343"/>
<path d="M17.8752 27.6V26.0622H17.6529V27.6C17.6529 27.6 17.5996 27.6 17.5996 27.5378V26.0089H17.9107C17.9107 26.0089 17.9107 26.0978 17.9107 26.1511C17.9107 26.5778 17.9107 27.04 17.9107 27.4489C17.903 27.5011 17.888 27.552 17.8663 27.6" fill="#018B34"/>
<path d="M13.6177 26.0001C13.5669 26.0231 13.513 26.0381 13.4577 26.0446H12.4443V27.6001C12.4443 27.6001 12.4443 27.6001 12.4443 27.5557C12.4443 27.0401 12.4443 26.5335 12.4443 26.0001H13.6354" fill="#018B34"/>
<path d="M14.9423 26.0089C14.8891 26.0131 14.8356 26.0131 14.7823 26.0089H14.0356V27.5645C14.0356 27.5645 14.0356 27.5645 14.0356 27.5201C14.0356 27.0134 14.0356 26.4978 14.0356 25.9734L14.9423 26.0089Z" fill="#018B34"/>
<path d="M12.0176 27.6001V26.0623H11.8132C11.8071 26.0796 11.8071 26.0984 11.8132 26.1157C11.8132 26.2312 11.8132 26.3557 11.8132 26.4801C11.8204 26.5183 11.8204 26.5575 11.8132 26.5957V26.0001H12.1421V26.5512C12.1421 26.8623 12.1421 27.1646 12.1421 27.4401C12.1338 27.4837 12.1188 27.5256 12.0976 27.5646" fill="#018B34"/>
<path d="M15.9111 27.6001V26.569C15.9206 26.5172 15.9355 26.4665 15.9556 26.4178C15.9556 26.7645 15.9556 27.1201 15.9556 27.4756C15.9473 27.5192 15.9323 27.5611 15.9111 27.6001Z" fill="#018B34"/>
<path d="M14.8089 14.9245C14.643 14.8367 14.4827 14.7388 14.3289 14.6312C14.1847 14.5129 14.0814 14.3522 14.0335 14.172C13.9857 13.9917 13.9957 13.801 14.0623 13.6267C14.1397 13.269 14.3046 12.9361 14.5423 12.6578C14.78 12.3228 15.0643 12.0235 15.3867 11.7689C15.605 11.6147 15.864 11.5283 16.1311 11.5204C16.3983 11.5125 16.6619 11.5835 16.8889 11.7245C17.0074 11.7922 17.1465 11.8143 17.28 11.7867C17.7264 11.7057 18.1866 11.8048 18.56 12.0623C18.7409 12.1912 18.894 12.3552 19.01 12.5446C19.1261 12.734 19.2028 12.9448 19.2356 13.1645C19.2356 13.3512 19.2356 13.5556 19.2978 13.7689L19.0312 13.8401C18.9808 14.0358 18.8867 14.2175 18.7558 14.3715C18.6249 14.5255 18.4607 14.6477 18.2756 14.7289C18.192 14.7838 18.1294 14.8652 18.0978 14.9601C18.0534 15.0756 18.0178 15.2001 17.9734 15.3245C17.9289 15.4489 17.8845 15.4756 17.84 15.5645L17.6978 15.4489H17.4134V15.5645L17.0845 15.5112L16.9956 15.6089C16.8623 15.7423 16.7734 15.7423 16.6489 15.6089L16.4267 15.3601L16.1689 15.9023L16.8889 15.8223C17.1019 15.7912 17.3192 15.8287 17.5093 15.9294C17.6995 16.0301 17.8527 16.1887 17.9467 16.3823L18.4889 17.2712C18.4889 17.3512 18.5512 17.4312 18.6045 17.5467C18.1867 17.5467 17.8578 17.5467 17.7956 18.0178C17.674 18.1312 17.5232 18.2082 17.36 18.2401C17.2193 18.2743 17.089 18.3423 16.9806 18.4384C16.8721 18.5345 16.7888 18.6556 16.7378 18.7912C16.6934 18.9067 16.6312 19.0223 16.5778 19.1378C16.4298 19.1282 16.2814 19.1282 16.1334 19.1378C15.886 19.1947 15.6587 19.3176 15.4756 19.4934L14.9245 20.0089C14.804 20.1333 14.6498 20.2197 14.4808 20.2576C14.3118 20.2955 14.1355 20.2832 13.9734 20.2223C13.8312 20.2223 13.7334 20.2756 13.5823 20.2756C13.3512 19.6267 13.28 18.9423 13.1112 18.2756C13.0713 18.4841 13.0713 18.6982 13.1112 18.9067C13.3423 19.7334 13.5734 20.5512 13.7956 21.3778C13.8109 21.4322 13.8369 21.483 13.872 21.5272C13.9071 21.5715 13.9506 21.6083 14 21.6356C14.3458 21.8439 14.7354 21.9687 15.1378 22.0001C15.5093 22.0459 15.8839 22.0608 16.2578 22.0445C16.6452 22.0426 17.029 22.1182 17.3867 22.2667L17.84 22.4712C17.8855 22.4948 17.9274 22.5247 17.9645 22.5601C17.9419 22.6104 17.9059 22.6536 17.8604 22.6849C17.815 22.7163 17.7618 22.7346 17.7067 22.7378C17.1556 22.7378 16.6312 22.9067 16.0889 22.9956C15.5467 23.0845 15.2445 23.1201 14.8267 23.1467C14.3998 23.1584 13.9745 23.0891 13.5734 22.9423C13.4134 22.8889 13.2534 22.8534 13.0578 22.8089C13.0503 22.7889 13.0503 22.7668 13.0578 22.7467C13.008 22.5341 12.9039 22.3381 12.7556 22.1778C12.4606 21.7355 12.2161 21.2614 12.0267 20.7645C11.7715 20.1573 11.5779 19.526 11.4489 18.8801C11.3428 18.5229 11.3036 18.1492 11.3334 17.7778C11.3661 17.6176 11.4263 17.4643 11.5112 17.3245C11.7056 17.0035 11.9816 16.7397 12.3112 16.5601C12.7285 16.3238 13.1657 16.1245 13.6178 15.9645C13.84 15.8756 14.0712 15.7867 14.2845 15.6801C14.4105 15.6164 14.522 15.5275 14.6122 15.4189C14.7024 15.3104 14.7694 15.1844 14.8089 15.0489C14.8136 15.0225 14.8136 14.9954 14.8089 14.9689" fill="#FDFE00"/>
<path d="M19.3865 20.1423H19.5731C19.5731 20.1423 19.6176 20.1423 19.6265 20.2045C19.8089 20.6516 19.9315 21.1209 19.9909 21.6001C20.0042 21.8221 20.0042 22.0447 19.9909 22.2667C19.9909 22.6756 19.7598 22.8534 19.342 22.9156C19.0369 22.9397 18.7307 22.8846 18.4531 22.7556C18.0107 22.5945 17.5898 22.3795 17.1998 22.1156C16.7465 21.7956 16.3109 21.4845 15.8398 21.1556C15.6887 21.049 15.5642 20.8979 15.4131 20.7734C15.3062 20.6768 15.2356 20.5466 15.2129 20.4043C15.1903 20.262 15.217 20.1162 15.2887 19.9912C15.4026 19.774 15.5711 19.5902 15.7776 19.4579C15.7926 19.4408 15.8111 19.4272 15.8317 19.4179C15.8524 19.4085 15.8749 19.4037 15.8976 19.4037C15.9203 19.4037 15.9427 19.4085 15.9634 19.4179C15.9841 19.4272 16.0026 19.4408 16.0176 19.4579C16.0837 19.5574 16.129 19.6693 16.1509 19.7867C16.1482 19.866 16.1686 19.9443 16.2097 20.0122C16.2507 20.0801 16.3106 20.1345 16.382 20.169L16.4442 19.8401C16.4961 19.844 16.5455 19.8642 16.5854 19.8977C16.6252 19.9312 16.6536 19.9763 16.6665 20.0267C16.7642 20.2845 16.862 20.5334 16.9776 20.7823C17.0608 20.9484 17.1873 21.0889 17.3437 21.1891C17.5002 21.2892 17.6808 21.3452 17.8665 21.3512C18.1615 21.3857 18.4583 21.4035 18.7554 21.4045C18.8494 21.3944 18.9436 21.4211 19.0183 21.4792C19.0929 21.5372 19.1421 21.622 19.1553 21.7156L19.2442 21.4579L18.8887 21.3334C18.8084 21.3131 18.7308 21.2832 18.6576 21.2445C18.6124 21.2196 18.5727 21.1859 18.541 21.1453C18.5092 21.1047 18.4859 21.058 18.4727 21.0082C18.4594 20.9584 18.4563 20.9064 18.4636 20.8553C18.471 20.8043 18.4886 20.7553 18.5153 20.7112C18.5153 20.6667 18.6042 20.6401 18.6487 20.6045L19.3953 20.1423H19.3865Z" fill="#FCFD01"/>
<path d="M19.3955 20.1335L19.0044 20.2401C18.7425 20.3346 18.4647 20.3768 18.1866 20.3646C18.1381 20.067 17.9854 19.7964 17.7559 19.601C17.5263 19.4056 17.2347 19.2982 16.9333 19.2979C16.9113 19.0913 16.9451 18.8826 17.031 18.6935C17.0925 18.5963 17.1761 18.515 17.2749 18.4563C17.3738 18.3976 17.4852 18.3631 17.5999 18.3557H17.6621C18.0177 18.3557 18.0621 18.3023 18.1866 17.9912C18.4311 17.9745 18.6758 18.0192 18.8986 18.1214C19.1213 18.2235 19.3149 18.3799 19.4616 18.5762C19.6084 18.7724 19.7036 19.0023 19.7387 19.2448C19.7737 19.4874 19.7474 19.7348 19.6621 19.9646L19.3866 20.1423L19.3955 20.1335Z" fill="#FC0100"/>
<path d="M13.7422 20.4979C14.203 20.5932 14.6821 20.5403 15.1111 20.3468C15.1478 20.419 15.1805 20.4932 15.2089 20.569C15.3113 20.8883 15.5219 21.1618 15.8044 21.3424L16.5511 21.849L15.9644 21.9201C15.3515 21.9646 14.7379 21.8449 14.1866 21.5735C14.1005 21.5472 14.0249 21.4944 13.9706 21.4225C13.9163 21.3507 13.8861 21.2635 13.8844 21.1735C13.8532 20.9452 13.8057 20.7194 13.7422 20.4979Z" fill="#FB0201"/>
<path d="M16.7109 19.5556C16.9222 19.52 17.1391 19.5417 17.3392 19.6183C17.5393 19.6948 17.7152 19.8236 17.8487 19.9912C17.8832 20.0236 17.9104 20.063 17.9287 20.1067C18.041 20.3466 18.1389 20.593 18.222 20.8445C18.222 20.9245 18.222 21.04 18.222 21.1289C18.222 21.2178 18.1687 21.1289 18.1598 21.1289C17.8754 21.0223 17.5909 20.9156 17.3154 20.7912C17.1631 20.6997 17.0518 20.5534 17.0043 20.3823C16.9344 20.1991 16.8751 20.0122 16.8265 19.8223C16.7825 19.7359 16.7439 19.6468 16.7109 19.5556Z" fill="#FB0201"/>
</g>
<defs>
<clipPath id="clip0_2707_336923">
<rect width="32" height="32" fill="white"/>
</clipPath>
</defs>
</svg>
