<svg width="32" height="32" viewBox="0 0 32 32" fill="none" xmlns="http://www.w3.org/2000/svg">
<g clip-path="url(#clip0_2810_57426)">
<mask id="mask0_2810_57426" style="mask-type:luminance" maskUnits="userSpaceOnUse" x="0" y="-1" width="32" height="33">
<path d="M32 -0.0799561H0V31.92H32V-0.0799561Z" fill="white"/>
</mask>
<g mask="url(#mask0_2810_57426)">
<path d="M16 31.92C24.8366 31.92 32 24.7566 32 15.92C32 7.08349 24.8366 -0.0799561 16 -0.0799561C7.16344 -0.0799561 0 7.08349 0 15.92C0 24.7566 7.16344 31.92 16 31.92Z" fill="white"/>
<mask id="mask1_2810_57426" style="mask-type:luminance" maskUnits="userSpaceOnUse" x="2" y="2" width="28" height="28">
<path d="M2.66699 15.92C2.66699 18.5571 3.44898 21.135 4.91406 23.3276C6.37915 25.5203 8.46153 27.2292 10.8979 28.2384C13.3342 29.2476 16.0151 29.5116 18.6015 28.9971C21.1879 28.4827 23.5637 27.2128 25.4284 25.3481C27.2931 23.4834 28.563 21.1076 29.0775 18.5212C29.5919 15.9348 29.3279 13.2539 28.3187 10.8176C27.3096 8.38121 25.6006 6.29883 23.4079 4.83374C21.2153 3.36866 18.6374 2.58667 16.0003 2.58667C12.4641 2.58667 9.07272 3.99143 6.57224 6.49191C4.07175 8.9924 2.66699 12.3838 2.66699 15.92Z" fill="white"/>
</mask>
<g mask="url(#mask1_2810_57426)">
<path d="M29.3337 15.92C29.3337 18.5571 28.5517 21.135 27.0866 23.3276C25.6215 25.5203 23.5391 27.2292 21.1028 28.2384C18.6664 29.2476 15.9855 29.5116 13.3991 28.9971C10.8127 28.4827 8.43694 27.2128 6.57224 25.3481C4.70754 23.4834 3.43766 21.1076 2.92319 18.5212C2.40872 15.9348 2.67277 13.2539 3.68194 10.8176C4.69111 8.38121 6.40007 6.29883 8.59273 4.83374C10.7854 3.36866 13.3632 2.58667 16.0003 2.58667C17.7513 2.58667 19.4851 2.93155 21.1028 3.60161C22.7205 4.27167 24.1903 5.2538 25.4284 6.49191C26.6665 7.73003 27.6487 9.19988 28.3187 10.8176C28.9888 12.4352 29.3337 14.169 29.3337 15.92Z" fill="white"/>
</g>
<path d="M28.9067 18.8979H27.1289L24.8889 14.3823C24.8889 15.8579 24.8889 17.3335 24.8889 18.8268H23.6533V13.1468C24.2454 13.1134 24.839 13.1134 25.4311 13.1468L27.7067 17.6535C27.7067 17.4668 27.7067 17.289 27.7067 17.1023V13.1201H28.88L28.9067 18.8979Z" fill="#414CA5"/>
<path d="M23.4404 16.0001C23.4456 16.5801 23.2777 17.1485 22.9581 17.6325C22.6386 18.1166 22.1819 18.4943 21.6465 18.7175C21.1111 18.9406 20.5214 18.999 19.9526 18.8851C19.3839 18.7712 18.862 18.4903 18.4538 18.0783C18.0456 17.6663 17.7695 17.1418 17.6609 16.5721C17.5523 16.0023 17.6162 15.4131 17.8443 14.8798C18.0723 14.3465 18.4543 13.8933 18.9413 13.5783C19.4283 13.2632 19.9982 13.1006 20.5781 13.1112C21.339 13.1205 22.0656 13.4287 22.6011 13.9692C23.1366 14.5098 23.4381 15.2392 23.4404 16.0001ZM20.5248 17.689C20.7611 17.706 20.9983 17.6741 21.2217 17.5954C21.4452 17.5166 21.6499 17.3927 21.8234 17.2313C21.9968 17.07 22.1351 16.8746 22.2296 16.6574C22.3242 16.4402 22.373 16.2059 22.373 15.969C22.373 15.7321 22.3242 15.4978 22.2296 15.2806C22.1351 15.0634 21.9968 14.868 21.8234 14.7066C21.6499 14.5452 21.4452 14.4213 21.2217 14.3426C20.9983 14.2638 20.7611 14.232 20.5248 14.249C20.2953 14.2478 20.068 14.2924 19.8559 14.3802C19.6439 14.468 19.4516 14.5972 19.2901 14.7603C19.1287 14.9234 19.0015 15.117 18.9158 15.3299C18.8302 15.5428 18.7879 15.7707 18.7915 16.0001C18.7926 16.2257 18.8385 16.4489 18.9265 16.6567C19.0144 16.8645 19.1427 17.0528 19.3039 17.2106C19.4651 17.3685 19.656 17.4929 19.8656 17.5765C20.0751 17.6602 20.2992 17.7014 20.5248 17.6979V17.689Z" fill="#414CA5"/>
<path d="M3.09375 13.1289H4.24931V15.3956C4.36486 15.3956 6.91597 15.4489 7.18264 15.3956C7.18264 15.2089 7.18264 15.0222 7.18264 14.8267C7.18264 14.6311 7.18264 14.4445 7.18264 14.2578V13.1289H8.34708V18.8889H7.18264V16.5956C6.20486 16.5956 5.23597 16.5956 4.25819 16.5956C4.25819 17.36 4.25819 18.1245 4.25819 18.8889H3.09375V13.1289Z" fill="#414CA5"/>
<path d="M18.0987 13.1023V14.2223H17.7787C17.4767 14.2218 17.1765 14.2698 16.8898 14.3645C16.6126 14.4574 16.3652 14.6225 16.173 14.8428C15.9808 15.0631 15.8508 15.3306 15.7965 15.6179C15.7205 15.946 15.7423 16.2893 15.8592 16.6052C15.9761 16.9212 16.1829 17.1959 16.4542 17.3956C16.7153 17.5837 17.0225 17.6973 17.3431 17.7245C17.5831 17.7245 17.8142 17.7245 18.072 17.769C18.072 18.1334 18.072 18.5067 18.072 18.889C17.8765 18.889 17.6987 18.889 17.5298 18.889C17.1418 18.8698 16.7587 18.7949 16.392 18.6667C15.9807 18.509 15.6133 18.2547 15.3209 17.9251C15.0285 17.5956 14.8197 17.2006 14.712 16.7734C14.5527 16.1926 14.5812 15.5762 14.7936 15.0125C15.0059 14.4489 15.3912 13.9669 15.8942 13.6356C16.2139 13.4323 16.5702 13.2934 16.9431 13.2267C17.2912 13.1571 17.6461 13.1273 18.0009 13.1379L18.0987 13.1023Z" fill="#414CA5"/>
<path d="M11.3604 17.7778H12.5248V18.9156H10.2226C10.2188 18.898 10.2188 18.8798 10.2226 18.8622V13.2178C10.2209 13.1882 10.2209 13.1585 10.2226 13.1289C10.596 13.1289 10.9693 13.1289 11.3693 13.1289V17.7778H11.3604Z" fill="#414CA5"/>
<path d="M13.8852 17.7779H15.0407V18.9068C14.9341 18.9068 12.9074 18.9068 12.7385 18.9068C12.7385 18.8001 12.6941 13.3779 12.7385 13.1556H13.8852V16.8356C13.8763 17.129 13.8763 17.4312 13.8852 17.7779Z" fill="#414CA5"/>
<path d="M8.70312 18.889V13.1468C9.08748 13.1109 9.47433 13.1109 9.85868 13.1468V18.8979L8.70312 18.889Z" fill="#414CA5"/>
</g>
</g>
<defs>
<clipPath id="clip0_2810_57426">
<rect width="32" height="32" fill="white"/>
</clipPath>
</defs>
</svg>
