<svg width="32" height="32" viewBox="0 0 32 32" fill="none" xmlns="http://www.w3.org/2000/svg">
<g clip-path="url(#clip0_2707_335133)">
<path d="M15.9998 31.9822C24.8265 31.9822 31.982 24.8267 31.982 16C31.982 7.17325 24.8265 0.0177612 15.9998 0.0177612C7.17306 0.0177612 0.0175781 7.17325 0.0175781 16C0.0175781 24.8267 7.17306 31.9822 15.9998 31.9822Z" fill="white"/>
<path d="M3.55518 22.4089V20.5422H3.86629C3.93966 20.5278 4.01513 20.5278 4.08851 20.5422C4.1552 20.5871 4.2052 20.6527 4.23073 20.7289C4.27043 20.8461 4.2885 20.9696 4.28406 21.0933C4.29933 21.1875 4.29933 21.2836 4.28406 21.3778C4.27186 21.4452 4.2445 21.5091 4.20406 21.5644C4.17866 21.6011 4.14522 21.6315 4.10629 21.6533C4.04158 21.6644 3.97544 21.6644 3.91073 21.6533H3.76851V22.3555L3.55518 22.4089ZM3.75073 20.8622V21.3867H3.84851C3.89775 21.4018 3.95038 21.4018 3.99962 21.3867C4.03008 21.3652 4.05209 21.3337 4.06184 21.2978C4.0719 21.2479 4.0719 21.1965 4.06184 21.1467C4.07202 21.0908 4.07202 21.0336 4.06184 20.9778C4.05616 20.9602 4.04691 20.9441 4.03467 20.9303C4.02243 20.9166 4.00747 20.9055 3.99073 20.8978H3.76851L3.75073 20.8622Z" fill="#707070"/>
<path d="M5.20854 22.0533H5.03076V22.4089H5.20854V22.0533Z" fill="#707070"/>
<path d="M5.95557 22.4089V20.5422H6.22223V21.28H6.68446V20.5422H6.92446V22.4089H6.65779V21.5911H6.22223V22.4089H5.95557Z" fill="#707070"/>
<path d="M6.89779 21.7155C6.89754 21.5856 6.91856 21.4565 6.96001 21.3333C6.99222 21.2484 7.04399 21.1723 7.11112 21.1111C7.17316 21.0586 7.25206 21.0301 7.33335 21.0311C7.39961 21.0306 7.46468 21.0487 7.52123 21.0832C7.57777 21.1178 7.62353 21.1675 7.65335 21.2266C7.73512 21.383 7.77783 21.5569 7.77783 21.7333C7.77783 21.9098 7.73512 22.0836 7.65335 22.24C7.62465 22.2989 7.58061 22.3489 7.52586 22.3849C7.47112 22.4209 7.40768 22.4415 7.34224 22.4444C7.25688 22.4443 7.17459 22.4126 7.11112 22.3555C7.03445 22.2938 6.97859 22.21 6.95112 22.1155C6.91274 21.9858 6.89475 21.8508 6.89779 21.7155ZM7.13779 21.7155C7.13046 21.8229 7.15194 21.9303 7.20001 22.0266C7.20814 22.0594 7.22699 22.0885 7.25357 22.1093C7.28016 22.1301 7.31293 22.1414 7.34668 22.1414C7.38043 22.1414 7.4132 22.1301 7.43979 22.1093C7.46637 22.0885 7.48522 22.0594 7.49335 22.0266C7.54142 21.9303 7.5629 21.8229 7.55557 21.7155C7.56307 21.611 7.54153 21.5064 7.49335 21.4133C7.48522 21.3806 7.46637 21.3515 7.43979 21.3307C7.4132 21.3099 7.38043 21.2986 7.34668 21.2986C7.31293 21.2986 7.28016 21.3099 7.25357 21.3307C7.22699 21.3515 7.20814 21.3806 7.20001 21.4133C7.13921 21.5088 7.10827 21.6202 7.11112 21.7333L7.13779 21.7155Z" fill="#707070"/>
<path d="M8.37338 20.9511V21.2356H8.21338V22.4445H8.00004V21.2356H7.82227V20.9511H8.00004V20.4445H8.23115V20.9245L8.37338 20.9511Z" fill="#707070"/>
<path d="M9.0219 21.9822L9.24412 22.0444C9.22704 22.1525 9.18095 22.2538 9.11079 22.3378C9.08061 22.3715 9.04361 22.3985 9.00223 22.4168C8.96086 22.4352 8.91606 22.4446 8.87079 22.4444C8.79981 22.4455 8.73021 22.4248 8.67139 22.385C8.61257 22.3453 8.56737 22.2885 8.5419 22.2222C8.47598 22.0742 8.44555 21.9129 8.45301 21.7511C8.44183 21.5689 8.48185 21.3872 8.56857 21.2266C8.59165 21.1689 8.63151 21.1194 8.683 21.0845C8.7345 21.0496 8.79526 21.031 8.85745 21.031C8.91965 21.031 8.98041 21.0496 9.0319 21.0845C9.0834 21.1194 9.12326 21.1689 9.14634 21.2266C9.23778 21.4173 9.27469 21.6296 9.25301 21.84H8.68412C8.67961 21.9262 8.69801 22.0121 8.73745 22.0889C8.74497 22.1244 8.76373 22.1565 8.79094 22.1805C8.81816 22.2046 8.85239 22.2192 8.88856 22.2222C8.90588 22.2226 8.92302 22.2187 8.9385 22.211C8.95399 22.2032 8.96736 22.1918 8.97745 22.1778C9.00827 22.1173 9.02355 22.0501 9.0219 21.9822ZM9.0219 21.6178C9.02632 21.5372 9.00783 21.4571 8.96857 21.3866C8.95943 21.3729 8.94766 21.3611 8.93392 21.3519C8.92019 21.3428 8.90477 21.3365 8.88856 21.3333C8.83523 21.3333 8.79968 21.3333 8.76412 21.4222C8.72793 21.4935 8.71253 21.5736 8.71968 21.6533L9.0219 21.6178Z" fill="#707070"/>
<path d="M9.61734 20.5422H9.38623V22.4089H9.61734V20.5422Z" fill="#707070"/>
<path d="M10.311 22.4089V20.5422H10.6666L10.8799 21.8222L11.0933 20.5422H11.4577V22.4089H11.2355V20.9422L10.9955 22.4089H10.7644L10.5333 20.9422V22.4089H10.311Z" fill="#707070"/>
<path d="M13.5021 22.4089H13.271V21.7245C13.2777 21.6298 13.2777 21.5347 13.271 21.44C13.2642 21.3999 13.2457 21.3628 13.2177 21.3333C13.1947 21.3252 13.1696 21.3252 13.1466 21.3333C13.1258 21.3326 13.1051 21.3371 13.0864 21.3464C13.0678 21.3557 13.0518 21.3696 13.0399 21.3867C13.0059 21.4248 12.9815 21.4705 12.9688 21.52C12.9615 21.6236 12.9615 21.7275 12.9688 21.8311V22.4445H12.7466V21.0578H12.9599V21.2533C13.031 21.1022 13.1288 21.0311 13.2355 21.0311C13.2819 21.0178 13.3312 21.0178 13.3777 21.0311C13.4173 21.0631 13.4505 21.1023 13.4755 21.1467C13.4817 21.1969 13.4817 21.2476 13.4755 21.2978C13.481 21.3777 13.481 21.4579 13.4755 21.5378L13.5021 22.4089Z" fill="#707070"/>
<path d="M14.4708 22.4089H14.222V22.2222C14.1923 22.2889 14.15 22.3492 14.0975 22.4C14.0571 22.4327 14.0072 22.4514 13.9553 22.4533C13.8995 22.4483 13.8461 22.4283 13.8007 22.3954C13.7553 22.3626 13.7197 22.3181 13.6975 22.2666C13.6183 22.1036 13.5816 21.9232 13.5908 21.7422C13.5796 21.561 13.6164 21.3801 13.6975 21.2178C13.7184 21.1661 13.7539 21.1218 13.7997 21.0902C13.8456 21.0586 13.8996 21.0411 13.9553 21.04C14.0531 21.04 14.1331 21.1022 14.2042 21.2266V20.5511H14.4353L14.4708 22.4089ZM13.8575 21.7066C13.8537 21.8122 13.8688 21.9175 13.902 22.0178C13.902 22.1155 13.9908 22.16 14.0531 22.16C14.1153 22.16 14.1508 22.16 14.1864 22.0533C14.2276 21.955 14.2458 21.8486 14.2397 21.7422C14.2471 21.627 14.2289 21.5117 14.1864 21.4044C14.1508 21.357 14.1064 21.3333 14.0531 21.3333C13.9997 21.3333 13.9553 21.3689 13.9197 21.44C13.88 21.5233 13.8588 21.6143 13.8575 21.7066Z" fill="#707070"/>
<path d="M15.7331 22.4089H15.502V21.0578H15.7153V21.2533C15.7379 21.1864 15.7709 21.1234 15.8131 21.0667C15.8445 21.0543 15.8794 21.0543 15.9108 21.0667C15.9673 21.0675 16.0213 21.0897 16.062 21.1289L15.9908 21.44C15.9776 21.4243 15.9613 21.4115 15.943 21.4024C15.9247 21.3932 15.9046 21.3878 15.8842 21.3867C15.8718 21.3804 15.8581 21.3772 15.8442 21.3772C15.8303 21.3772 15.8166 21.3804 15.8042 21.3867C15.7731 21.4313 15.7547 21.4835 15.7508 21.5378C15.738 21.6886 15.738 21.8403 15.7508 21.9911L15.7331 22.4089Z" fill="#707070"/>
<path d="M16.1064 20.8711V20.5422H16.3376V20.8711H16.1064ZM16.1064 22.4089V21.0578H16.3376V22.4089H16.1064Z" fill="#707070"/>
<path d="M17.2976 22.4089H17.0664V21.7245C17.0731 21.6298 17.0731 21.5347 17.0664 21.44C17.0597 21.3999 17.0411 21.3628 17.0131 21.3333C16.9945 21.3215 16.9729 21.3152 16.9509 21.3152C16.9288 21.3152 16.9073 21.3215 16.8887 21.3333C16.8682 21.3345 16.8482 21.3399 16.8299 21.349C16.8115 21.3582 16.7952 21.371 16.782 21.3867C16.7543 21.4275 16.7333 21.4725 16.7198 21.52C16.7125 21.6236 16.7125 21.7275 16.7198 21.8311V22.4445H16.4976V21.0578H16.702V21.2533C16.782 21.1022 16.8798 21.0311 16.9864 21.0311C17.0329 21.0178 17.0822 21.0178 17.1287 21.0311C17.1683 21.0631 17.2015 21.1023 17.2264 21.1467C17.2477 21.1949 17.2626 21.2457 17.2709 21.2978C17.2709 21.3511 17.2709 21.4311 17.2709 21.5378L17.2976 22.4089Z" fill="#707070"/>
<path d="M17.973 21.9822L18.2041 22.0444C18.1807 22.1521 18.1319 22.2527 18.0619 22.3377C18.0324 22.3724 17.9956 22.4 17.954 22.4185C17.9125 22.437 17.8673 22.4458 17.8219 22.4444C17.7501 22.4436 17.6803 22.421 17.6216 22.3798C17.5629 22.3385 17.5181 22.2805 17.493 22.2133C17.4312 22.064 17.401 21.9037 17.4041 21.7422C17.3972 21.5604 17.437 21.3798 17.5196 21.2177C17.5447 21.163 17.5847 21.1165 17.635 21.0835C17.6853 21.0505 17.7439 21.0323 17.8041 21.0311C17.868 21.0308 17.9306 21.0491 17.9843 21.0838C18.038 21.1186 18.0804 21.1682 18.1063 21.2266C18.1891 21.42 18.2256 21.63 18.213 21.84H17.6441C17.6396 21.9262 17.658 22.0121 17.6974 22.0888C17.7105 22.1135 17.7296 22.1346 17.7529 22.1501C17.7761 22.1656 17.8029 22.1751 17.8307 22.1777C17.8478 22.1768 17.8645 22.1724 17.8798 22.1648C17.8951 22.1571 17.9087 22.1464 17.9196 22.1333C17.9507 22.0886 17.9691 22.0364 17.973 21.9822ZM17.973 21.6177C17.9688 21.5382 17.9507 21.46 17.9196 21.3866C17.9196 21.3244 17.8485 21.2977 17.7952 21.2977C17.7697 21.3007 17.7455 21.3106 17.7252 21.3262C17.7048 21.3419 17.6891 21.3628 17.6796 21.3866C17.6404 21.4571 17.6219 21.5372 17.6263 21.6177H17.973Z" fill="#707070"/>
<path d="M18.7554 22.4089V20.5422H19.262C19.357 20.5351 19.4521 20.5535 19.5376 20.5955C19.572 20.6142 19.6022 20.6395 19.6267 20.6701C19.6511 20.7006 19.6692 20.7357 19.6798 20.7733C19.7162 20.8668 19.7343 20.9664 19.7331 21.0667C19.7384 21.1873 19.7107 21.3071 19.6531 21.4133C19.6271 21.4575 19.5925 21.4961 19.5512 21.5266C19.51 21.5572 19.463 21.5791 19.4131 21.5911C19.4645 21.6349 19.5094 21.6858 19.5465 21.7422C19.5465 21.8044 19.6265 21.9022 19.6798 22.0444L19.822 22.4089H19.5554L19.3865 22.0089C19.3512 21.9129 19.3065 21.8206 19.2531 21.7333C19.2393 21.6993 19.2142 21.671 19.182 21.6533C19.1443 21.6427 19.1043 21.6427 19.0665 21.6533H19.0131V22.4267L18.7554 22.4089ZM18.9954 21.3333H19.1731C19.2434 21.3487 19.3162 21.3487 19.3865 21.3333C19.3865 21.3333 19.4398 21.3333 19.4576 21.2622C19.4669 21.2153 19.4669 21.1669 19.4576 21.12C19.4687 21.0702 19.4687 21.0186 19.4576 20.9689C19.45 20.9495 19.4381 20.9322 19.4226 20.9184C19.4072 20.9045 19.3887 20.8944 19.3687 20.8889H19.0043L18.9954 21.3333Z" fill="#707070"/>
<path d="M20.4442 21.9822L20.6664 22.0444C20.6493 22.1524 20.6032 22.2538 20.533 22.3377C20.5036 22.3724 20.4668 22.4 20.4252 22.4185C20.3837 22.437 20.3385 22.4458 20.293 22.4444C20.221 22.4448 20.1506 22.4228 20.0917 22.3814C20.0327 22.34 19.9882 22.2812 19.9642 22.2133C19.9024 22.064 19.8722 21.9037 19.8753 21.7422C19.8684 21.5604 19.9082 21.3798 19.9908 21.2177C20.0159 21.163 20.0559 21.1165 20.1062 21.0835C20.1565 21.0505 20.2151 21.0323 20.2753 21.0311C20.3392 21.0308 20.4018 21.0491 20.4555 21.0838C20.5092 21.1186 20.5516 21.1682 20.5775 21.2266C20.6603 21.42 20.6968 21.63 20.6842 21.84H20.1153C20.1108 21.9262 20.1292 22.0121 20.1686 22.0888C20.1817 22.1135 20.2008 22.1346 20.2241 22.1501C20.2473 22.1656 20.2741 22.1751 20.3019 22.1777C20.319 22.1768 20.3357 22.1724 20.351 22.1648C20.3663 22.1571 20.3799 22.1464 20.3908 22.1333C20.4182 22.0868 20.4363 22.0355 20.4442 21.9822ZM20.4442 21.6177C20.4467 21.5384 20.4315 21.4594 20.3997 21.3866C20.3997 21.3244 20.3286 21.2977 20.2753 21.2977C20.249 21.3017 20.224 21.3118 20.2024 21.3273C20.1808 21.3427 20.1631 21.3631 20.1508 21.3866C20.119 21.4594 20.1038 21.5384 20.1064 21.6177H20.4442Z" fill="#707070"/>
<path d="M20.7466 22.5066L21.0133 22.5511C21.0017 22.5826 21.0017 22.6173 21.0133 22.6488C21.0133 22.6488 21.0666 22.6488 21.1199 22.6488C21.1632 22.6631 21.21 22.6631 21.2533 22.6488C21.2598 22.6196 21.2598 22.5892 21.2533 22.56C21.2533 22.56 21.2533 22.4711 21.2533 22.3911V22.2222C21.1822 22.3644 21.1022 22.4355 20.9955 22.4355C20.8888 22.4355 20.791 22.3644 20.7199 22.2044C20.6614 22.0607 20.6341 21.9061 20.6399 21.7511C20.6294 21.5728 20.6662 21.395 20.7466 21.2355C20.7675 21.1839 20.803 21.1396 20.8488 21.108C20.8946 21.0764 20.9487 21.0589 21.0044 21.0577C21.111 21.0577 21.1999 21.1289 21.271 21.2711V21.0844H21.4844V22.3022C21.4963 22.4204 21.4963 22.5395 21.4844 22.6577C21.4707 22.7233 21.4467 22.7864 21.4133 22.8444C21.3804 22.8889 21.3379 22.9254 21.2888 22.9511C21.2274 22.9655 21.1635 22.9655 21.1022 22.9511C21.0448 22.9594 20.9862 22.9531 20.9319 22.9329C20.8775 22.9128 20.8291 22.8793 20.791 22.8355C20.7244 22.7491 20.6899 22.6423 20.6933 22.5333L20.7466 22.5066ZM20.951 21.7066C20.9452 21.8159 20.9634 21.9252 21.0044 22.0266C21.0156 22.0535 21.0339 22.0768 21.0574 22.0941C21.0809 22.1113 21.1087 22.1218 21.1377 22.1244C21.169 22.1216 21.1989 22.1101 21.224 22.0913C21.2491 22.0725 21.2685 22.047 21.2799 22.0177C21.3213 21.9226 21.3396 21.8191 21.3333 21.7155C21.3393 21.6091 21.3211 21.5027 21.2799 21.4044C21.2694 21.3746 21.2503 21.3485 21.225 21.3295C21.1997 21.3105 21.1693 21.2995 21.1377 21.2977C21.0844 21.2977 21.0399 21.3333 21.0044 21.4044C20.963 21.4995 20.9447 21.6031 20.951 21.7066Z" fill="#707070"/>
<path d="M22.222 21.9822L22.4531 22.0444C22.4297 22.1521 22.3809 22.2527 22.3109 22.3377C22.2815 22.3724 22.2446 22.4 22.2031 22.4185C22.1615 22.437 22.1163 22.4458 22.0709 22.4444C21.9991 22.4436 21.9293 22.421 21.8706 22.3798C21.8119 22.3385 21.7671 22.2805 21.742 22.2133C21.6802 22.064 21.65 21.9037 21.6531 21.7422C21.6463 21.5604 21.686 21.3798 21.7687 21.2177C21.7937 21.163 21.8337 21.1165 21.884 21.0835C21.9343 21.0505 21.9929 21.0323 22.0531 21.0311C22.117 21.0308 22.1797 21.0491 22.2333 21.0838C22.287 21.1186 22.3294 21.1682 22.3553 21.2266C22.4381 21.42 22.4747 21.63 22.462 21.84H21.8931C21.8886 21.9262 21.907 22.0121 21.9464 22.0888C21.9596 22.1135 21.9786 22.1346 22.0019 22.1501C22.0252 22.1656 22.0519 22.1751 22.0798 22.1777C22.0968 22.1768 22.1135 22.1724 22.1288 22.1648C22.1441 22.1571 22.1577 22.1464 22.1687 22.1333C22.1997 22.0886 22.2181 22.0364 22.222 21.9822ZM22.222 21.6177C22.2246 21.5384 22.2094 21.4594 22.1775 21.3866C22.1775 21.3244 22.1064 21.2977 22.0531 21.2977C22.0276 21.3007 22.0034 21.3106 21.9831 21.3262C21.9627 21.3419 21.947 21.3628 21.9375 21.3866C21.8983 21.4571 21.8798 21.5372 21.8842 21.6177H22.222Z" fill="#707070"/>
<path d="M23.3863 22.4089H23.1552V21.7245C23.1618 21.6298 23.1618 21.5347 23.1552 21.44C23.151 21.4009 23.1355 21.3639 23.1108 21.3333C23.0849 21.3238 23.0566 21.3238 23.0308 21.3333C23.0103 21.3345 22.9903 21.3399 22.9719 21.349C22.9536 21.3582 22.9373 21.371 22.9241 21.3867C22.8964 21.4275 22.8754 21.4725 22.8619 21.52C22.8546 21.6236 22.8546 21.7275 22.8619 21.8311V22.4445H22.6396V21.0578H22.8441V21.2533C22.9241 21.1022 23.0219 21.0311 23.1285 21.0311C23.175 21.0178 23.2243 21.0178 23.2708 21.0311C23.3104 21.0631 23.3436 21.1023 23.3685 21.1467C23.3898 21.1949 23.4047 21.2457 23.413 21.2978C23.413 21.3511 23.413 21.4311 23.413 21.5378L23.3863 22.4089Z" fill="#707070"/>
<path d="M24.3109 21.4577L24.0887 21.52C24.0793 21.45 24.0482 21.3847 23.9998 21.3333C23.9888 21.3174 23.9742 21.3043 23.9572 21.2951C23.9403 21.2858 23.9214 21.2806 23.902 21.28C23.8715 21.281 23.8418 21.2907 23.8166 21.308C23.7914 21.3254 23.7717 21.3496 23.7598 21.3777C23.725 21.4776 23.7099 21.5833 23.7154 21.6889C23.7105 21.8032 23.7255 21.9175 23.7598 22.0266C23.7725 22.0542 23.7925 22.0779 23.8175 22.0951C23.8425 22.1123 23.8717 22.1224 23.902 22.1244C23.9229 22.1252 23.9435 22.1207 23.9622 22.1114C23.9808 22.102 23.9968 22.0882 24.0087 22.0711C24.0411 22.007 24.0621 21.9379 24.0709 21.8666L24.2932 21.9289C24.2783 22.0592 24.2326 22.1841 24.1598 22.2933C24.1272 22.3323 24.0864 22.3637 24.0403 22.3852C23.9943 22.4067 23.944 22.4178 23.8932 22.4177C23.8304 22.4178 23.7689 22.4003 23.7155 22.3673C23.6621 22.3344 23.619 22.2872 23.5909 22.2311C23.5083 22.069 23.4685 21.8884 23.4754 21.7066C23.4685 21.5277 23.5083 21.35 23.5909 21.1911C23.619 21.135 23.6621 21.0878 23.7155 21.0548C23.7689 21.0218 23.8304 21.0044 23.8932 21.0044C23.94 21.0023 23.9867 21.0108 24.0298 21.0292C24.0729 21.0477 24.1113 21.0757 24.142 21.1111C24.2313 21.2075 24.29 21.3281 24.3109 21.4577Z" fill="#707070"/>
<path d="M24.3286 21.0577H24.5686L24.7731 22.0177L24.9775 21.0577H25.2086L24.8886 22.3644L24.8353 22.5955C24.8223 22.659 24.8045 22.7214 24.7819 22.7822L24.7197 22.88L24.6308 22.9422C24.5929 22.9516 24.5532 22.9516 24.5153 22.9422C24.4713 22.9508 24.426 22.9508 24.3819 22.9422V22.6577C24.4141 22.6656 24.4476 22.6656 24.4797 22.6577C24.5038 22.6583 24.5275 22.6519 24.548 22.6393C24.5686 22.6267 24.585 22.6084 24.5953 22.5866C24.6229 22.5269 24.6437 22.4643 24.6575 22.4L24.3286 21.0577Z" fill="#707070"/>
<path d="M26.1511 22.4089V20.8622H25.9556V20.5422H26.5956V20.8622H26.3911V22.4089H26.1511Z" fill="#707070"/>
<path d="M4.5686 22.4089V20.8622H4.37305V20.5422H5.02194V20.8622H4.8086V22.4089H4.5686Z" fill="#707070"/>
<path d="M11.5997 21.7155C11.5807 21.5948 11.5807 21.4718 11.5997 21.3511C11.6161 21.2622 11.656 21.1793 11.7153 21.1111C11.7345 21.0869 11.7588 21.0673 11.7865 21.0535C11.8141 21.0397 11.8444 21.032 11.8753 21.0311C11.9275 21.0316 11.9778 21.0505 12.0175 21.0844C12.0593 21.1266 12.0898 21.1785 12.1064 21.2355V21.0488H12.3286V22.3911H12.1064V22.2222C12.0898 22.2792 12.0593 22.3311 12.0175 22.3733C11.9778 22.4072 11.9275 22.4261 11.8753 22.4266C11.8444 22.4257 11.8141 22.418 11.7865 22.4042C11.7588 22.3904 11.7345 22.3707 11.7153 22.3466C11.6576 22.274 11.618 22.1887 11.5997 22.0977C11.5774 21.9713 11.5774 21.8419 11.5997 21.7155ZM12.1508 21.7155C12.1532 21.6304 12.1381 21.5457 12.1064 21.4666C12.1064 21.4044 12.0353 21.3777 11.9908 21.3777C11.9464 21.3777 11.9108 21.3777 11.8753 21.4666C11.8549 21.5453 11.8549 21.6279 11.8753 21.7066C11.8542 21.7882 11.8542 21.8739 11.8753 21.9555C11.8753 22.0177 11.9464 22.0444 11.9908 22.0444C12.0353 22.0444 12.0708 22.0444 12.1064 21.9555C12.1362 21.8821 12.1513 21.8036 12.1508 21.7244V21.7155Z" fill="#707070"/>
<path d="M14.5863 21.7155C14.5862 21.5927 14.6011 21.4703 14.6307 21.3511C14.6509 21.2635 14.6904 21.1815 14.7463 21.1111C14.7673 21.0867 14.7932 21.067 14.8223 21.0532C14.8514 21.0395 14.883 21.0319 14.9152 21.0311C14.9648 21.0313 15.0124 21.0504 15.0485 21.0844C15.0903 21.1266 15.1208 21.1785 15.1374 21.2355V21.0488H15.3685V22.3911H15.1107V22.2222C15.0942 22.2792 15.0636 22.3311 15.0218 22.3733C14.9822 22.4072 14.9318 22.4261 14.8796 22.4266C14.849 22.4246 14.819 22.4165 14.7916 22.4027C14.7641 22.389 14.7396 22.3699 14.7196 22.3466C14.6655 22.2718 14.6263 22.1873 14.6041 22.0977C14.5807 21.9717 14.5747 21.8431 14.5863 21.7155ZM15.1374 21.7155C15.1398 21.6304 15.1246 21.5457 15.0929 21.4666C15.0929 21.4044 15.0218 21.3777 14.9774 21.3777C14.9329 21.3777 14.8974 21.3777 14.8618 21.4666C14.8458 21.5458 14.8458 21.6274 14.8618 21.7066C14.8451 21.7887 14.8451 21.8734 14.8618 21.9555C14.8618 22.0177 14.9329 22.0444 14.9774 22.0444C15.0218 22.0444 15.0574 22.0444 15.0929 21.9555C15.1137 21.8803 15.1198 21.8019 15.1107 21.7244L15.1374 21.7155Z" fill="#707070"/>
<path d="M26.6665 22.4089V20.5422H26.8887V21.2178C26.9109 21.1664 26.9466 21.1219 26.9919 21.089C27.0373 21.0561 27.0907 21.0361 27.1465 21.0311C27.2019 21.0334 27.2555 21.0513 27.3011 21.0827C27.3467 21.1142 27.3825 21.1579 27.4043 21.2089C27.4812 21.3693 27.5149 21.547 27.5021 21.7245C27.5144 21.9076 27.4808 22.0909 27.4043 22.2578C27.3821 22.3092 27.3464 22.3537 27.3011 22.3866C27.2557 22.4194 27.2023 22.4394 27.1465 22.4445C27.1197 22.4449 27.0932 22.4396 27.0686 22.4288C27.0441 22.4181 27.0221 22.4022 27.0043 22.3822C26.9471 22.3394 26.9039 22.2806 26.8798 22.2133V22.4089H26.6665ZM26.8887 21.7067C26.8849 21.8122 26.9 21.9176 26.9332 22.0178C26.9332 22.1156 27.0221 22.16 27.0932 22.16C27.1643 22.16 27.1821 22.16 27.2176 22.0622C27.2586 21.9608 27.2768 21.8515 27.2709 21.7422C27.2783 21.6271 27.2601 21.5117 27.2176 21.4045C27.1821 21.3333 27.1376 21.2978 27.0843 21.2978C27.053 21.3006 27.0231 21.3121 26.998 21.3309C26.9729 21.3497 26.9535 21.3752 26.9421 21.4045C26.9007 21.4996 26.8824 21.6031 26.8887 21.7067Z" fill="#707070"/>
<path d="M27.6265 22.4089V20.5422H27.8576V21.5378L28.1242 21.0578H28.4442L28.1509 21.5556L28.4709 22.4445H28.1776L27.9642 21.84L27.8576 22.0178V22.4445L27.6265 22.4089Z" fill="#707070"/>
<path d="M3.76855 15.7155C4.10182 15.7605 4.43152 15.8288 4.75522 15.92C5.10106 16.0176 5.46717 16.0176 5.813 15.92C5.97897 15.8783 6.15286 15.8802 6.3179 15.9254C6.48294 15.9705 6.63356 16.0574 6.75522 16.1778C6.88855 16.3111 7.02189 16.4355 7.14633 16.5778C7.33019 16.7862 7.57652 16.9296 7.84856 16.9866C8.73744 17.2178 9.67078 17.4489 10.5952 17.6444C10.9441 17.6758 11.2952 17.6758 11.6441 17.6444L12.533 17.5822C13.1581 17.5096 13.7624 17.3132 14.3108 17.0044C14.7901 16.7267 15.2322 16.3892 15.6263 16L16.3819 15.3155L16.4619 15.4755H16.5508C17.4457 14.8784 18.3063 14.2315 19.1286 13.5378C19.8009 12.9664 20.4143 12.3291 20.9597 11.6355L21.333 11.2889C21.421 11.1875 21.5161 11.0924 21.6174 11.0044C21.6619 11.0044 21.7419 11.0044 21.8041 10.96C21.8663 10.9155 21.8041 11.1022 21.8041 11.1466C21.7408 11.2756 21.6601 11.3953 21.5641 11.5022C21.3952 11.7155 21.2086 11.9111 21.0308 12.1244C20.939 12.1848 20.8527 12.2532 20.773 12.3289C20.293 12.7644 19.8397 13.2178 19.3508 13.6533C18.5116 14.3623 17.6202 15.0071 16.6841 15.5822C16.6236 15.6243 16.567 15.6719 16.5152 15.7244H16.5774C17.2619 15.3333 17.9552 14.9511 18.6308 14.5333C19.5544 13.9714 20.4287 13.3321 21.2441 12.6222L21.6974 12.2133L22.0086 11.9733C22.1508 12.1511 22.1508 12.2311 22.0086 12.3644L21.3863 12.8622L21.253 12.9955L20.5063 13.5289C19.4888 14.2907 18.4129 14.9714 17.2886 15.5644L16.6841 15.8666C16.5597 15.92 16.5152 16 16.5863 16.1511C18.239 15.3733 19.8264 14.4637 21.333 13.4311L22.2752 12.8355C22.3092 12.9088 22.3134 12.9925 22.2869 13.0688C22.2604 13.1451 22.2052 13.2081 22.133 13.2444L21.4574 13.6711L21.3241 13.7866L21.1819 13.8489C20.4797 14.2578 19.7952 14.7378 19.0752 15.0666C18.3552 15.3955 17.4574 15.8489 16.6397 16.24C16.5902 16.2727 16.5427 16.3083 16.4974 16.3466C16.6257 16.3523 16.7535 16.3279 16.8708 16.2755C17.6974 15.9378 18.5241 15.6266 19.3419 15.2711C20.0174 14.9778 20.6663 14.6311 21.333 14.3111L22.1241 13.92C22.2219 13.8666 22.3108 13.8222 22.3908 14.0089C22.3019 14.0711 22.2041 14.16 22.0974 14.2222L21.333 14.6044L21.0219 14.7289C19.9819 15.1644 18.9419 15.6178 17.9019 16.0178C17.493 16.1866 17.0752 16.32 16.6574 16.48C16.5419 16.5244 16.3819 16.56 16.3997 16.7911L21.333 15.1111L22.2752 14.8C22.373 14.9155 22.2752 14.96 22.2308 14.9955L21.5819 15.2533C21.4663 15.2978 21.3597 15.36 21.253 15.4133L20.7286 15.5733L16.4974 16.8889C16.4251 16.901 16.3591 16.9377 16.3106 16.9927C16.262 17.0477 16.2338 17.1178 16.2308 17.1911L17.573 16.8355L21.253 15.8844L22.0263 15.7066C22.0968 15.6936 22.1692 15.6936 22.2397 15.7066V15.7866C22.1764 15.8256 22.1111 15.8612 22.0441 15.8933L21.1552 16.1422H21.0308C20.3641 16.3022 19.7063 16.4711 19.0397 16.6222L16.3286 17.2444C16.1863 17.2444 16.0441 17.3066 15.973 17.4933L21.0308 16.6044L21.6086 16.5244C21.6824 16.5162 21.7569 16.5162 21.8308 16.5244C21.8308 16.6755 21.7419 16.7022 21.6352 16.72L20.9063 16.8444L20.1508 16.96L18.373 17.2178L16.6752 17.4578C16.4174 17.4578 16.1508 17.5289 15.893 17.5822C15.8219 17.5822 15.7686 17.6533 15.7063 17.6889V17.7422L17.2797 17.5822L18.7197 17.4578L20.6219 17.3244C20.6692 17.3285 20.7168 17.3285 20.7641 17.3244H21.5552C21.5552 17.4666 21.4663 17.4844 21.3774 17.4933L20.5863 17.5644L19.2086 17.6711L17.4308 17.7955C16.9774 17.7955 16.5419 17.7955 16.0797 17.8755C15.7686 17.8755 15.4308 17.8755 15.1908 18.1955L16.1419 18.1155L18.5952 17.9911L20.5063 17.9111H20.8086L21.0041 17.9911V18.08H20.3374C19.9197 18.08 19.5019 18.08 19.0841 18.08H17.3063C17.1108 18.08 16.9241 18.08 16.7286 18.1333C16.6841 18.1333 16.6574 18.2133 16.5774 18.3111H20.293H21.9374C21.9374 18.3111 21.9908 18.3111 22.0797 18.4089L21.6441 18.4711H17.9997C17.9389 18.4593 17.8763 18.4612 17.8163 18.4765C17.7564 18.4919 17.7006 18.5204 17.653 18.56C17.7123 18.6055 17.7782 18.6414 17.8486 18.6666C18.05 18.6666 18.2545 18.6844 18.4619 18.72L19.9641 18.7822L21.413 18.8355C21.5019 18.8355 21.6441 18.8355 21.6974 18.9778H21.2174C20.9952 18.9778 20.7641 18.9244 20.5419 18.9155L18.3197 18.8444H18.0441H17.8841C17.8841 19.0044 17.9286 19.0489 18.0441 19.0578L19.2352 19.1911L19.8752 19.2622C20.2577 19.3439 20.6489 19.3768 21.0397 19.36C21.6947 19.3825 22.3478 19.4448 22.9952 19.5466C23.6441 19.6266 24.293 19.6889 24.9508 19.7422C25.6086 19.7955 26.053 19.84 26.6041 19.8666C26.8967 19.9103 27.1953 19.8506 27.4486 19.6978C27.4525 19.7213 27.4525 19.7453 27.4486 19.7689C27.4525 19.8043 27.4525 19.8401 27.4486 19.8755H27.9819V19.9466C27.3719 20.0978 26.7399 20.1399 26.1152 20.0711C25.6086 20.0711 25.093 19.9555 24.5863 19.9022C24.0797 19.8489 23.6974 19.8222 23.2086 19.7689L21.7686 19.6L21.1286 19.5289C20.7908 19.5289 20.453 19.5289 20.1152 19.4578C19.6086 19.4578 19.1108 19.3511 18.613 19.2889L17.4841 19.1555C16.9774 19.0844 16.4619 19.0311 15.9552 18.9511L14.533 18.72C13.5374 18.56 12.533 18.4089 11.5463 18.1866C10.1037 17.8849 8.67921 17.5021 7.27967 17.04C6.19522 16.6755 5.13744 16.2311 4.07078 15.8133C3.98524 15.7772 3.9021 15.7356 3.82189 15.6889V15.6266" fill="#747474"/>
<path d="M6.1687 16.4C6.2767 16.4 6.36426 16.3124 6.36426 16.2044C6.36426 16.0964 6.2767 16.0089 6.1687 16.0089C6.0607 16.0089 5.97314 16.0964 5.97314 16.2044C5.97314 16.3124 6.0607 16.4 6.1687 16.4Z" fill="white"/>
<path d="M6.16878 16.32C6.2326 16.32 6.28433 16.2682 6.28433 16.2044C6.28433 16.1406 6.2326 16.0889 6.16878 16.0889C6.10496 16.0889 6.05322 16.1406 6.05322 16.2044C6.05322 16.2682 6.10496 16.32 6.16878 16.32Z" fill="black"/>
<path d="M17.2085 14.48C17.004 14.7022 16.7996 14.9333 16.604 15.1644C16.604 15.1644 16.604 15.2178 16.604 15.28C16.6547 15.2724 16.7031 15.2542 16.7463 15.2266C17.7985 14.3588 18.7987 13.4298 19.7418 12.4444C20.0618 12.0978 20.3374 11.7067 20.6307 11.3422C20.6824 11.2787 20.7388 11.2193 20.7996 11.1644L21.004 11.6889C20.4587 12.3825 19.8453 13.0197 19.1729 13.5911C18.3507 14.2848 17.49 14.9318 16.5951 15.5289H16.5063L16.4263 15.3689L15.6707 16.0533C15.2765 16.4426 14.8345 16.7801 14.3551 17.0578C13.8068 17.3665 13.2024 17.5629 12.5774 17.6355L11.6885 17.6978L11.9374 17.5111C12.5859 17.5118 13.2254 17.3595 13.804 17.0667C14.8385 16.5755 15.7497 15.8586 16.4707 14.9689L17.0396 14.2933C17.1463 14.2933 17.0396 14.5067 17.2263 14.48" fill="#C0C0C0"/>
<path d="M21.2441 12.6222C20.4414 13.3427 19.579 13.994 18.6663 14.5689C17.9908 14.9866 17.2974 15.3689 16.613 15.76H16.5508C16.6026 15.7075 16.6591 15.6599 16.7197 15.6178C17.6558 15.0427 18.5472 14.3979 19.3863 13.6889C19.8752 13.2711 20.3286 12.8 20.8086 12.3644C20.8883 12.2888 20.9745 12.2204 21.0663 12.16C21.0663 12.2844 21.1552 12.4089 21.2086 12.5333C21.2239 12.5773 21.2448 12.6191 21.2708 12.6578" fill="#C0C0C0"/>
<path d="M21.3332 13.4311C19.8095 14.4662 18.2042 15.3759 16.5332 16.1511C16.4621 16 16.5332 15.92 16.631 15.8667L17.2354 15.5644C18.3598 14.9714 19.4357 14.2907 20.4532 13.5289L21.1999 12.9955C21.1999 13.0578 21.2443 13.1289 21.271 13.2C21.2977 13.2711 21.3154 13.3511 21.3332 13.4311Z" fill="#C0C0C0"/>
<path d="M21.2532 15.8844L17.5732 16.8355L16.231 17.1911C16.234 17.1178 16.2622 17.0478 16.3107 16.9927C16.3593 16.9377 16.4253 16.901 16.4976 16.8889L20.7643 15.5467L21.2887 15.3867V15.8844" fill="#C0C0C0"/>
<path d="M21.0573 16.6311L15.9995 17.5111C16.0706 17.3244 16.2128 17.2978 16.3551 17.2622L19.0662 16.64C19.7328 16.4889 20.3906 16.32 21.0573 16.16H21.1817L21.0573 16.64" fill="#C0C0C0"/>
<path d="M21.3332 15.1111L16.3999 16.8178C16.3999 16.5867 16.5421 16.5511 16.6577 16.5067C17.0755 16.3467 17.4932 16.2133 17.9021 16.0444C18.9421 15.6267 19.9821 15.1555 21.0221 14.7555L21.3332 14.6311V15.1111Z" fill="#C0C0C0"/>
<path d="M20.5065 17.9289L18.5954 18.0089L16.142 18.1333L15.1909 18.2133C15.4487 17.8844 15.7865 17.92 16.0798 17.8933C16.5243 17.84 16.9687 17.84 17.4309 17.8133L19.2087 17.6889L20.5865 17.5822L20.462 17.9289" fill="#C0C0C0"/>
<path d="M21.3331 14.3111C20.6664 14.6311 20.0176 14.9777 19.342 15.2711C18.5242 15.6266 17.6976 15.9377 16.8709 16.2755C16.7537 16.3279 16.6258 16.3522 16.4976 16.3466C16.5428 16.3083 16.5903 16.2726 16.6398 16.24C17.4576 15.8488 18.2842 15.4844 19.0753 15.0666C19.8664 14.6488 20.4798 14.2577 21.182 13.8488L21.3242 13.7866V14.3111" fill="#C0C0C0"/>
<path d="M20.8088 17.3422C20.7614 17.3463 20.7139 17.3463 20.6665 17.3422L18.7643 17.4756L17.3243 17.6L15.751 17.7778V17.7244C15.8132 17.7244 15.8665 17.6267 15.9376 17.6178C16.1954 17.5644 16.4621 17.5289 16.7199 17.4933L18.4176 17.2533L20.1954 16.9956L20.951 16.88L20.8265 17.3244" fill="#C0C0C0"/>
<path d="M20.6928 10.7911C20.435 11.1733 20.2039 11.5733 19.9106 11.9289C19.5855 12.3104 19.2414 12.6753 18.8795 13.0222C18.7838 13.1147 18.6796 13.198 18.5684 13.2711C18.5829 13.1918 18.6131 13.1163 18.6572 13.0489C19.2499 12.3488 19.7545 11.5786 20.1595 10.7555C20.2572 10.5689 20.3372 10.3822 20.4261 10.2044L20.6928 10.7911Z" fill="#C0C0C0"/>
<path d="M21.3777 18.9777L19.9288 18.9244L18.4266 18.8622C18.2192 18.8622 18.0147 18.8444 17.8132 18.8089C17.7429 18.7837 17.6769 18.7477 17.6177 18.7022C17.6653 18.6626 17.7211 18.6341 17.781 18.6187C17.841 18.6034 17.9036 18.6015 17.9643 18.6133H21.6088L21.3777 18.9777Z" fill="#E17C48"/>
<path d="M20.995 19.4755C20.6073 19.4919 20.219 19.4591 19.8395 19.3777L19.1995 19.3066L18.0084 19.1733C17.8928 19.1733 17.8128 19.12 17.8484 18.96H18.0084H18.2839L20.5061 19.0311C20.7284 19.0311 20.9595 19.0311 21.1817 19.0933L20.995 19.4488" fill="#E17C48"/>
<path d="M20.2575 18.4267H16.542C16.622 18.3289 16.6487 18.2578 16.6931 18.2489C16.8887 18.2489 17.0753 18.2044 17.2709 18.1956H19.0487C19.4664 18.1956 19.8842 18.1956 20.302 18.1956L20.2398 18.48" fill="#C0C0C0"/>
<path d="M27.9284 20.0355V19.9644L28.204 19.9111V19.9644L27.9106 20.0355" fill="#747474"/>
<path d="M17.022 14.2933L16.4531 14.9688C15.7322 15.8586 14.821 16.5754 13.7865 17.0666C13.2078 17.3595 12.5683 17.5117 11.9198 17.5111C12.062 17.3422 12.222 17.1733 12.3554 16.9955C12.9249 16.2267 13.2107 15.2845 13.1642 14.3288C13.1306 12.8867 12.5452 11.5123 11.5287 10.4888L11.3154 10.2666C11.2915 10.2493 11.2721 10.2266 11.2587 10.2003C11.2453 10.1741 11.2383 10.145 11.2383 10.1155C11.2383 10.086 11.2453 10.057 11.2587 10.0307C11.2721 10.0044 11.2915 9.98171 11.3154 9.9644C11.4247 10.0189 11.5263 10.0877 11.6176 10.1688C11.8665 10.4444 12.0976 10.7288 12.3376 11.0133C12.3909 11.0755 12.4265 11.1466 12.4798 11.2177C12.8643 11.9543 13.1626 12.7328 13.3687 13.5377C13.3999 13.0701 13.3999 12.6009 13.3687 12.1333C13.331 11.8338 13.2746 11.5369 13.1998 11.2444C13.1458 10.9124 13.0248 10.5949 12.8442 10.3111L12.6842 10.0177C12.8354 9.8844 12.9242 9.94663 12.9954 10.0711C13.1939 10.4035 13.3436 10.7627 13.4398 11.1377C13.4526 11.1967 13.4735 11.2535 13.502 11.3066C13.502 11.6977 13.5998 12.0977 13.6176 12.4977C13.6354 12.8977 13.6176 13.2977 13.5731 13.6977C13.5287 14.0977 13.5198 14.4711 13.4931 14.8533C13.558 14.8085 13.6052 14.7425 13.6265 14.6666C13.8444 14.0942 13.9907 13.4971 14.062 12.8888C14.1065 12.4088 14.1242 11.9288 14.1598 11.4488L14.0887 10.3822C14.2487 10.3822 14.2842 10.3822 14.302 10.56L14.3198 11.5555C14.3198 11.6888 14.3198 11.8222 14.3198 11.9555C14.3101 12.3069 14.2774 12.6573 14.222 13.0044C14.1114 13.6992 13.905 14.3752 13.6087 15.0133C13.5766 15.111 13.5586 15.2127 13.5554 15.3155H13.6087C13.6616 15.2577 13.7092 15.1952 13.7509 15.1288C13.9731 14.7111 14.2131 14.3022 14.4087 13.8755C14.7216 13.222 14.9144 12.5174 14.9776 11.7955L15.0665 10.9066C15.2087 10.9066 15.2354 11.0044 15.2354 11.1111C15.2354 11.2177 15.2354 11.5822 15.2354 11.8222V11.8933C15.2307 11.9014 15.2282 11.9106 15.2282 11.92C15.2282 11.9293 15.2307 11.9385 15.2354 11.9466C15.1462 12.6683 14.9327 13.369 14.6042 14.0177C14.3731 14.4977 14.0798 14.96 13.8042 15.4222C13.7331 15.5288 13.6976 15.6088 13.8042 15.7333C14.3012 15.1025 14.7386 14.427 15.1109 13.7155C15.3534 13.2456 15.5527 12.7547 15.7065 12.2488C15.7251 11.9843 15.7914 11.7254 15.902 11.4844C16.0976 11.5733 16.0442 11.7333 16.0176 11.8577C15.9797 12.0446 15.9292 12.2288 15.8665 12.4088C15.8704 12.4383 15.8704 12.4682 15.8665 12.4977C15.6377 13.2308 15.2958 13.9236 14.8531 14.5511C14.5598 14.9688 14.2309 15.3688 13.902 15.76C13.8522 15.8086 13.8187 15.8714 13.806 15.9398C13.7932 16.0082 13.802 16.0789 13.8309 16.1422C14.8983 15.2274 15.7151 14.0557 16.2042 12.7377L16.3731 12.1333C16.5954 12.1866 16.622 12.2222 16.5776 12.3911C16.5331 12.56 16.4265 12.8355 16.3554 13.0577C16.2842 13.28 16.1865 13.3777 16.1065 13.5377C15.6776 14.3215 15.1388 15.0399 14.5065 15.6711L13.9198 16.2577C13.8732 16.3164 13.8316 16.3788 13.7954 16.4444C14.4976 16.2577 16.0442 14.5333 16.6487 13.3066C16.7554 13.1466 16.7554 12.9155 16.9509 12.7911C17.0931 12.9511 17.0309 13.0844 16.9509 13.2266C16.8709 13.3688 16.8176 13.5111 16.7465 13.6622C16.5509 13.9466 16.3554 14.24 16.1509 14.5511C15.772 15.0747 15.3234 15.5442 14.8176 15.9466C14.5154 16.1866 14.2131 16.4088 13.9287 16.64C13.8487 16.6933 13.7598 16.7466 13.8576 16.8711L14.0176 16.8088C14.8516 16.2574 15.6105 15.6001 16.2754 14.8533C16.5004 14.5923 16.7111 14.3193 16.9065 14.0355L17.3687 13.4933C17.3974 13.5472 17.4085 13.6087 17.4005 13.6693C17.3926 13.7298 17.3659 13.7864 17.3242 13.8311C17.2176 13.9911 17.1198 14.16 17.022 14.3288" fill="#747474"/>
<path d="M14.9774 11.8133C14.9142 12.5352 14.7215 13.2398 14.4085 13.8933C14.213 14.32 13.973 14.7289 13.7507 15.1467C13.7091 15.2131 13.6615 15.2755 13.6085 15.3333H13.5552C13.5584 15.2306 13.5764 15.1288 13.6085 15.0311C13.9064 14.3875 14.1129 13.7053 14.2218 13.0045C14.2709 12.6599 14.2976 12.3125 14.3018 11.9645C14.3018 11.8311 14.3018 11.6978 14.3018 11.5645L14.9596 11.8133" fill="#C0C0C0"/>
<path d="M14.0973 11.44C14.0973 11.92 14.044 12.4 13.9996 12.88C13.9282 13.4882 13.7819 14.0853 13.564 14.6577C13.5427 14.7336 13.4955 14.7996 13.4307 14.8444C13.4307 14.4622 13.4929 14.0711 13.5107 13.6888C13.5284 13.3066 13.564 12.8888 13.5551 12.4888C13.5462 12.0888 13.4751 11.6888 13.4396 11.2977L14.0973 11.4133" fill="#C0C0C0"/>
<path d="M15.7151 12.2489C15.5584 12.755 15.3561 13.246 15.1106 13.7155C14.7153 14.4268 14.254 15.0994 13.7329 15.7244C13.644 15.6 13.6795 15.52 13.7329 15.4133C14.0084 14.9511 14.3017 14.5244 14.5329 14.0089C14.8613 13.3601 15.0748 12.6594 15.164 11.9377L15.6884 12.2489" fill="#C0C0C0"/>
<path d="M16.2043 12.7377C15.7152 14.0557 14.8984 15.2274 13.8309 16.1422C13.802 16.0789 13.7933 16.0082 13.806 15.9398C13.8187 15.8714 13.8523 15.8086 13.9021 15.76C14.2309 15.3689 14.5598 14.9689 14.8532 14.5511C15.2959 13.9236 15.6378 13.2308 15.8665 12.4977L16.2043 12.7377Z" fill="#C0C0C0"/>
<path d="M16.6487 13.3333C16.0443 14.56 14.4976 16.2844 13.7954 16.4711C13.8316 16.4055 13.8732 16.3431 13.9199 16.2844L14.5065 15.6977C15.1388 15.0666 15.6776 14.3482 16.1065 13.5644C16.1865 13.4044 16.2665 13.2444 16.3554 13.0844L16.471 13.2L16.6487 13.3333Z" fill="#C0C0C0"/>
<path d="M16.8884 14C16.693 14.2838 16.4823 14.5568 16.2573 14.8178C15.5925 15.5645 14.8336 16.2219 13.9995 16.7733L13.8395 16.8355C13.7418 16.7111 13.8395 16.6578 13.9107 16.6044C14.2129 16.3733 14.5151 16.1511 14.7995 15.9111C15.3053 15.5087 15.7539 15.0392 16.1329 14.5155C16.3373 14.24 16.5329 13.9466 16.7284 13.6266L16.8707 13.9644" fill="#C0C0C0"/>
<path d="M13.1375 11.2622C13.2123 11.5547 13.2687 11.8516 13.3064 12.1511C13.3376 12.6187 13.3376 13.0879 13.3064 13.5555C13.1002 12.7506 12.802 11.9721 12.4175 11.2355L13.1019 11.2978" fill="#C0C0C0"/>
<path d="M17.2086 14.48C17.8966 13.7452 18.5183 12.951 19.0664 12.1066C19.6263 11.2642 20.0298 10.3278 20.2575 9.3422C20.3013 9.23312 20.3612 9.13125 20.4353 9.03998H20.5597C20.6213 9.11821 20.6598 9.21212 20.6708 9.31109C20.6818 9.41006 20.6649 9.51013 20.6219 9.59998C20.5419 9.79553 20.4886 9.99998 20.4264 10.2044C20.3641 10.4089 20.2575 10.5689 20.1686 10.7555C19.7599 11.582 19.2557 12.3576 18.6664 13.0666C18.6219 13.1111 18.613 13.2089 18.5864 13.2622C18.5597 13.3155 18.5864 13.2622 18.5864 13.2622C18.6976 13.1892 18.8018 13.1058 18.8975 13.0133C19.2594 12.6665 19.6035 12.3016 19.9286 11.92C20.2219 11.5644 20.453 11.1644 20.7108 10.7822L21.013 10.2578L21.1819 9.94664C21.413 10.1155 21.4219 10.1422 21.3153 10.32C21.2086 10.4978 20.9864 10.8533 20.8175 11.12C20.7567 11.1748 20.7003 11.2343 20.6486 11.2978C20.3553 11.6622 20.0797 12.0533 19.7597 12.4C18.8119 13.3981 17.8057 14.339 16.7464 15.2178C16.6437 15.3122 16.5337 15.3983 16.4175 15.4755C16.4175 15.4133 16.4175 15.3866 16.4175 15.3689L17.2175 14.48" fill="#747474"/>
</g>
<defs>
<clipPath id="clip0_2707_335133">
<rect width="32" height="32" fill="white"/>
</clipPath>
</defs>
</svg>
