<svg width="32" height="32" viewBox="0 0 32 32" fill="none" xmlns="http://www.w3.org/2000/svg">
<g clip-path="url(#clip0_2707_334378)">
<path d="M16 32C24.8366 32 32 24.8366 32 16C32 7.16344 24.8366 0 16 0C7.16344 0 0 7.16344 0 16C0 24.8366 7.16344 32 16 32Z" fill="white"/>
<path d="M15.9998 29.3333C23.3636 29.3333 29.3332 23.3638 29.3332 16C29.3332 8.63619 23.3636 2.66666 15.9998 2.66666C8.63604 2.66666 2.6665 8.63619 2.6665 16C2.6665 23.3638 8.63604 29.3333 15.9998 29.3333Z" fill="white"/>
<path d="M16 10.9244C16.1423 10.9244 16.2577 10.809 16.2577 10.6667C16.2577 10.5243 16.1423 10.4089 16 10.4089C15.8576 10.4089 15.7422 10.5243 15.7422 10.6667C15.7422 10.809 15.8576 10.9244 16 10.9244Z" stroke="#383637" stroke-width="0.03" stroke-miterlimit="10"/>
<path d="M16 11.7511C16.1423 11.7511 16.2577 11.6357 16.2577 11.4933C16.2577 11.351 16.1423 11.2356 16 11.2356C15.8576 11.2356 15.7422 11.351 15.7422 11.4933C15.7422 11.6357 15.8576 11.7511 16 11.7511Z" stroke="#383637" stroke-width="0.03" stroke-miterlimit="10"/>
<path d="M16 12.5867C16.1423 12.5867 16.2577 12.4713 16.2577 12.3289C16.2577 12.1865 16.1423 12.0711 16 12.0711C15.8576 12.0711 15.7422 12.1865 15.7422 12.3289C15.7422 12.4713 15.8576 12.5867 16 12.5867Z" stroke="#383637" stroke-width="0.03" stroke-miterlimit="10"/>
<path d="M16 13.4222C16.1423 13.4222 16.2577 13.3068 16.2577 13.1645C16.2577 13.0221 16.1423 12.9067 16 12.9067C15.8576 12.9067 15.7422 13.0221 15.7422 13.1645C15.7422 13.3068 15.8576 13.4222 16 13.4222Z" stroke="#383637" stroke-width="0.03" stroke-miterlimit="10"/>
<path d="M16 14.2578C16.1423 14.2578 16.2577 14.1424 16.2577 14C16.2577 13.8576 16.1423 13.7422 16 13.7422C15.8576 13.7422 15.7422 13.8576 15.7422 14C15.7422 14.1424 15.8576 14.2578 16 14.2578Z" stroke="#383637" stroke-width="0.03" stroke-miterlimit="10"/>
<path d="M18.7999 18.4356C17.9096 18.0659 16.955 17.8755 15.991 17.8755C15.027 17.8755 14.0724 18.0659 13.1821 18.4356L13.5288 19.2C14.3052 18.8542 15.1456 18.6755 15.9955 18.6755C16.8454 18.6755 17.6858 18.8542 18.4621 19.2L18.7999 18.4356Z" fill="#BCBCBC"/>
<path d="M13.7332 18.8178C13.8412 18.8178 13.9287 18.7302 13.9287 18.6222C13.9287 18.5142 13.8412 18.4267 13.7332 18.4267C13.6252 18.4267 13.5376 18.5142 13.5376 18.6222C13.5376 18.7302 13.6252 18.8178 13.7332 18.8178Z" fill="white"/>
<path d="M14.4802 18.6222C14.5882 18.6222 14.6758 18.5347 14.6758 18.4267C14.6758 18.3187 14.5882 18.2311 14.4802 18.2311C14.3722 18.2311 14.2847 18.3187 14.2847 18.4267C14.2847 18.5347 14.3722 18.6222 14.4802 18.6222Z" fill="white"/>
<path d="M15.2356 18.4978C15.3436 18.4978 15.4312 18.4102 15.4312 18.3022C15.4312 18.1942 15.3436 18.1067 15.2356 18.1067C15.1276 18.1067 15.04 18.1942 15.04 18.3022C15.04 18.4102 15.1276 18.4978 15.2356 18.4978Z" fill="white"/>
<path d="M18.2488 18.8178C18.3568 18.8178 18.4443 18.7302 18.4443 18.6222C18.4443 18.5142 18.3568 18.4267 18.2488 18.4267C18.1408 18.4267 18.0532 18.5142 18.0532 18.6222C18.0532 18.7302 18.1408 18.8178 18.2488 18.8178Z" fill="white"/>
<path d="M17.511 18.6222C17.619 18.6222 17.7065 18.5347 17.7065 18.4267C17.7065 18.3187 17.619 18.2311 17.511 18.2311C17.403 18.2311 17.3154 18.3187 17.3154 18.4267C17.3154 18.5347 17.403 18.6222 17.511 18.6222Z" fill="white"/>
<path d="M16.7556 18.4978C16.8636 18.4978 16.9512 18.4102 16.9512 18.3022C16.9512 18.1942 16.8636 18.1067 16.7556 18.1067C16.6476 18.1067 16.5601 18.1942 16.5601 18.3022C16.5601 18.4102 16.6476 18.4978 16.7556 18.4978Z" fill="white"/>
<path d="M15.991 18.48C16.099 18.48 16.1865 18.3925 16.1865 18.2845C16.1865 18.1765 16.099 18.0889 15.991 18.0889C15.883 18.0889 15.7954 18.1765 15.7954 18.2845C15.7954 18.3925 15.883 18.48 15.991 18.48Z" fill="white"/>
<path d="M18.9332 11.6889C19.2032 11.6889 19.4221 11.47 19.4221 11.2C19.4221 10.93 19.2032 10.7111 18.9332 10.7111C18.6632 10.7111 18.4443 10.93 18.4443 11.2C18.4443 11.47 18.6632 11.6889 18.9332 11.6889Z" fill="#C5A342"/>
<path d="M21.2711 12.8267C21.5411 12.8267 21.76 12.6078 21.76 12.3378C21.76 12.0678 21.5411 11.8489 21.2711 11.8489C21.0011 11.8489 20.7822 12.0678 20.7822 12.3378C20.7822 12.6078 21.0011 12.8267 21.2711 12.8267Z" fill="#C5A342"/>
<path d="M13.0846 11.6889C13.3546 11.6889 13.5735 11.47 13.5735 11.2C13.5735 10.93 13.3546 10.7111 13.0846 10.7111C12.8146 10.7111 12.5957 10.93 12.5957 11.2C12.5957 11.47 12.8146 11.6889 13.0846 11.6889Z" fill="#C5A342"/>
<path d="M10.7379 12.8267C11.0079 12.8267 11.2268 12.6078 11.2268 12.3378C11.2268 12.0678 11.0079 11.8489 10.7379 11.8489C10.4679 11.8489 10.249 12.0678 10.249 12.3378C10.249 12.6078 10.4679 12.8267 10.7379 12.8267Z" fill="#C5A342"/>
<path d="M19.2179 14.8978L18.7823 14.7378V11.8489L17.3423 14.3911L16.7201 14.3378C16.7932 12.7293 16.6527 11.1182 16.3023 9.54666C16.4097 9.48963 16.4976 9.40201 16.5551 9.29489C16.6125 9.18777 16.6369 9.066 16.625 8.94503C16.6131 8.82407 16.5655 8.70936 16.4883 8.61547C16.4111 8.52158 16.3078 8.45275 16.1914 8.4177C16.075 8.38266 15.9508 8.38299 15.8346 8.41865C15.7184 8.45432 15.6155 8.5237 15.5388 8.618C15.4621 8.7123 15.4151 8.82726 15.4039 8.94829C15.3926 9.06932 15.4176 9.19096 15.4756 9.29777C15.5356 9.40626 15.6249 9.49562 15.7334 9.55554C15.3841 11.1243 15.2436 12.7322 15.3156 14.3378L14.6934 14.3911L13.2445 11.8489V14.7378L12.8001 14.8978L10.8623 13.0133L13.1112 18.2133C14.0314 17.8204 15.0217 17.6178 16.0223 17.6178C17.0229 17.6178 18.0132 17.8204 18.9334 18.2133L21.1823 13.0133L19.2179 14.8978Z" fill="#C5A342"/>
<path d="M15.4757 15.2533V15.92H15.2002V15.2533H14.8091V16.08V16.9511H15.2002V16.24H15.4757V16.9511H15.8313V16.08V15.2533H15.4757Z" fill="white"/>
<path d="M16.7467 15.2533H16.3822L16 16.9511H16.3733L16.4533 16.6222H16.7467L16.8178 16.9511H17.1911L16.7467 15.2533ZM16.4622 16.3022L16.5511 15.6622L16.6311 16.3022H16.4622Z" fill="white"/>
<path d="M3.9469 20.3644C3.95608 20.3235 3.95608 20.281 3.9469 20.24C3.9469 20.24 3.89357 20.1955 3.84912 20.1955V20.1422H4.32912C4.43955 20.1436 4.54851 20.1678 4.64912 20.2133C4.69939 20.2384 4.7408 20.2782 4.76781 20.3274C4.79482 20.3767 4.80613 20.433 4.80023 20.4889C4.80242 20.5677 4.77371 20.6443 4.72023 20.7022C4.67512 20.7511 4.61624 20.7852 4.55134 20.8C4.49537 20.8085 4.43843 20.8085 4.38245 20.8H4.16912V21.3333H3.9469V20.3644ZM4.27579 20.7555C4.30682 20.7587 4.33817 20.7548 4.36745 20.744C4.39672 20.7332 4.42314 20.7159 4.44468 20.6933C4.47446 20.66 4.49568 20.6199 4.50652 20.5766C4.51736 20.5332 4.51749 20.4879 4.5069 20.4444C4.50712 20.3825 4.48504 20.3225 4.44468 20.2755C4.42377 20.2547 4.39875 20.2383 4.37121 20.2276C4.34367 20.2169 4.3142 20.212 4.28468 20.2133H4.16912V20.7467L4.27579 20.7555Z" fill="#231F20"/>
<path d="M5.1913 20.2222H5.06686C5.03997 20.2187 5.01265 20.2209 4.98663 20.2285C4.96062 20.2362 4.93648 20.2492 4.91575 20.2667C4.89645 20.2883 4.88177 20.3137 4.8726 20.3412C4.86343 20.3687 4.85996 20.3978 4.86242 20.4267H4.80908V20.2844C4.80908 20.1867 4.86242 20.1422 4.96019 20.1422H5.77797V20.2222H5.41353V21.3333H5.1913V20.2222Z" fill="#231F20"/>
<path d="M5.80437 21.3333C5.78779 21.3116 5.77881 21.2851 5.77881 21.2578C5.77881 21.2305 5.78779 21.2039 5.80437 21.1822C5.82589 21.1616 5.85455 21.1501 5.88437 21.1501C5.91419 21.1501 5.94285 21.1616 5.96437 21.1822C5.98095 21.2039 5.98993 21.2305 5.98993 21.2578C5.98993 21.2851 5.98095 21.3116 5.96437 21.3333C5.94129 21.3506 5.91322 21.36 5.88437 21.36C5.85552 21.36 5.82745 21.3506 5.80437 21.3333Z" fill="#231F20"/>
<path d="M6.7467 20.3645C6.75589 20.3235 6.75589 20.281 6.7467 20.24C6.7467 20.24 6.7467 20.1956 6.64893 20.1956V20.1422H6.86226H6.96004C6.96438 20.1657 6.96438 20.1898 6.96004 20.2133C6.96438 20.2577 6.96438 20.3023 6.96004 20.3467V20.64H7.42226V20.1245H7.65337V21.0133C7.64496 21.0574 7.64496 21.1026 7.65337 21.1467C7.66849 21.1545 7.68525 21.1585 7.70226 21.1585C7.71927 21.1585 7.73603 21.1545 7.75115 21.1467V21.3333H7.60004C7.56862 21.3457 7.53368 21.3457 7.50226 21.3333C7.49819 21.3128 7.49819 21.2917 7.50226 21.2711C7.49846 21.2238 7.49846 21.1762 7.50226 21.1289V20.8H6.97781V21.3333H6.7467V20.3645Z" fill="#231F20"/>
<path d="M8.75559 21.2533C8.68619 21.2133 8.63279 21.1505 8.60448 21.0756V20.9778H8.1067L8.00003 21.3333H7.8667L8.38225 20.1867H8.46225L8.88892 21.0756C8.90038 21.1187 8.92411 21.1577 8.95724 21.1877C8.99037 21.2176 9.03148 21.2374 9.07559 21.2445V21.3333H8.9867C8.90286 21.3334 8.82146 21.3052 8.75559 21.2533ZM8.14225 20.8978H8.53337L8.3467 20.4445L8.14225 20.8978Z" fill="#231F20"/>
<path d="M9.83104 21.2533C9.76393 21.2007 9.70929 21.134 9.67104 21.0578L9.49326 20.7644H9.42215V21.3333H9.19104V20.3644C9.20459 20.3241 9.20459 20.2804 9.19104 20.24C9.19104 20.24 9.13771 20.1955 9.09326 20.1955V20.1422H9.57326C9.68309 20.1405 9.79207 20.1617 9.89326 20.2044C9.9421 20.2264 9.9829 20.263 10.01 20.3092C10.0371 20.3554 10.0491 20.4089 10.0444 20.4622C10.0444 20.6044 9.9466 20.7022 9.75993 20.7555L9.9466 21.0578C9.96544 21.1041 9.99436 21.1457 10.0313 21.1796C10.0682 21.2134 10.1121 21.2386 10.1599 21.2533V21.3333H10.0444C9.966 21.3329 9.89035 21.3046 9.83104 21.2533ZM9.52882 20.6933C9.58985 20.6977 9.65027 20.6787 9.69771 20.64C9.7381 20.5861 9.75993 20.5206 9.75993 20.4533C9.75993 20.386 9.7381 20.3205 9.69771 20.2667C9.65155 20.232 9.5954 20.2133 9.53771 20.2133H9.42215V20.6844L9.52882 20.6933Z" fill="#231F20"/>
<path d="M10.5511 20.2222H10.4267C10.3998 20.2187 10.3724 20.2209 10.3464 20.2286C10.3204 20.2362 10.2963 20.2492 10.2756 20.2667C10.2441 20.3139 10.2285 20.37 10.2311 20.4267H10.1778V20.2844C10.1747 20.2651 10.1763 20.2453 10.1824 20.2266C10.1885 20.208 10.1989 20.191 10.2127 20.1772C10.2266 20.1633 10.2435 20.1529 10.2622 20.1468C10.2808 20.1408 10.3006 20.1392 10.32 20.1422H11.1467V20.2222H10.7822V21.3333H10.5511V20.2222Z" fill="#231F20"/>
<path d="M11.9735 21.2533C11.9019 21.2159 11.8477 21.1522 11.8223 21.0755V20.9778H11.3601L11.209 21.2889H11.1201L11.6357 20.1422H11.7157L12.1068 21.0755C12.1512 21.1822 12.2135 21.2355 12.2846 21.2444V21.3333H12.2046C12.1205 21.3348 12.0386 21.3065 11.9735 21.2533ZM11.3601 20.8978H11.7512L11.5557 20.4444L11.3601 20.8978Z" fill="#231F20"/>
<path d="M12.4445 20.3644C12.4533 20.3449 12.4579 20.3237 12.4579 20.3022C12.4579 20.2808 12.4533 20.2596 12.4445 20.24C12.4445 20.24 12.4445 20.1956 12.3467 20.1956V20.1422H12.8178C13.0071 20.1345 13.194 20.1874 13.3511 20.2933C13.414 20.3425 13.4638 20.4062 13.4964 20.479C13.5289 20.5519 13.5431 20.6315 13.5378 20.7111C13.5385 20.8172 13.5109 20.9215 13.4578 21.0133C13.4034 21.1035 13.3228 21.1748 13.2267 21.2178C13.1131 21.2718 12.9878 21.2963 12.8622 21.2889H12.4445V20.3644ZM12.8178 21.2533C12.8959 21.2517 12.9724 21.2303 13.04 21.1911C13.104 21.1449 13.1558 21.0839 13.1911 21.0133C13.2126 20.9257 13.2126 20.8343 13.1911 20.7467C13.2137 20.6592 13.2137 20.5675 13.1911 20.48C13.1558 20.4094 13.104 20.3484 13.04 20.3022C12.9755 20.256 12.8969 20.234 12.8178 20.24H12.6756V21.2267H12.8178V21.2533Z" fill="#231F20"/>
<path d="M13.769 21.2711C13.7493 21.2543 13.7341 21.2329 13.7245 21.2089C13.7207 21.1615 13.7207 21.114 13.7245 21.0667V20.1778H13.9556V21.0667C13.9472 21.1107 13.9472 21.1559 13.9556 21.2C13.9556 21.2 13.9556 21.2 14.0534 21.2V21.3333H13.8668C13.8468 21.331 13.8277 21.3242 13.8107 21.3134C13.7938 21.3026 13.7795 21.2882 13.769 21.2711Z" fill="#231F20"/>
<path d="M14.4086 20.4444V21.3333H14.3198V20.3555C14.3342 20.3184 14.3342 20.2772 14.3198 20.24C14.3042 20.2231 14.2847 20.2102 14.263 20.2024C14.2413 20.1947 14.2181 20.1923 14.1953 20.1955V20.1422H14.3198C14.3728 20.1337 14.4268 20.1337 14.4798 20.1422C14.5181 20.1609 14.5516 20.1883 14.5775 20.2222L15.182 20.9155V20.1155H15.2709V21.3333H15.1109L14.4086 20.4444Z" fill="#231F20"/>
<path d="M16.2936 21.2533C16.2592 21.2347 16.2289 21.2093 16.2045 21.1788C16.1801 21.1483 16.162 21.1132 16.1514 21.0755L16.1069 20.9778H15.6447L15.5025 21.2889H15.4136L15.9291 20.1422H16.0002L16.3825 21.0755C16.3939 21.1187 16.4177 21.1577 16.4508 21.1876C16.4839 21.2176 16.525 21.2373 16.5691 21.2444V21.3333H16.4802C16.4121 21.3236 16.3477 21.296 16.2936 21.2533ZM15.6802 20.8978H16.0714L15.8847 20.4444L15.6802 20.8978Z" fill="#231F20"/>
<path d="M16.889 20.2222H16.7645C16.739 20.2175 16.7127 20.2191 16.6879 20.2269C16.6631 20.2346 16.6406 20.2483 16.6223 20.2667C16.603 20.2883 16.5883 20.3137 16.5791 20.3412C16.57 20.3687 16.5665 20.3978 16.569 20.4267H16.5156V20.2844C16.5156 20.1867 16.5601 20.1422 16.6667 20.1422H17.4845V20.2222H17.1201V21.3333H16.889V20.2222Z" fill="#231F20"/>
<path d="M18.2933 21.2533C18.2239 21.2133 18.1705 21.1505 18.1422 21.0755V20.9778H17.6799L17.5288 21.2889H17.4399L17.9555 20.1422H18.0355L18.4266 21.0755C18.4381 21.1187 18.4618 21.1577 18.4949 21.1876C18.5281 21.2176 18.5692 21.2373 18.6133 21.2444V21.3333H18.5244C18.4406 21.3334 18.3591 21.3052 18.2933 21.2533ZM17.6799 20.8978H18.0711L17.8844 20.4444L17.6799 20.8978Z" fill="#231F20"/>
<path d="M19.9377 21.2533C19.8706 21.2129 19.8202 21.1498 19.7955 21.0755V20.9778H19.3333L19.1822 21.2889H19.0933L19.5555 20.1422H19.6355L20.0266 21.0755C20.071 21.1822 20.1333 21.2355 20.2044 21.2444V21.3333H20.1244C20.0564 21.3228 19.9922 21.2953 19.9377 21.2533ZM19.3333 20.8978H19.7244L19.5555 20.4444L19.3333 20.8978Z" fill="#231F20"/>
<path d="M20.3824 20.3644C20.396 20.3241 20.396 20.2804 20.3824 20.24C20.3824 20.24 20.3824 20.1956 20.2847 20.1956V20.1422H20.7558C20.883 20.1398 21.0096 20.1608 21.1291 20.2044C21.1757 20.2235 21.2148 20.2572 21.2405 20.3006C21.2662 20.3439 21.277 20.3944 21.2713 20.4444C21.2731 20.4727 21.2684 20.501 21.2576 20.5272C21.2469 20.5534 21.2303 20.5767 21.2091 20.5956C21.1629 20.6493 21.1005 20.6868 21.0313 20.7022C21.2269 20.7022 21.3247 20.8089 21.3247 20.9778C21.3295 21.0289 21.3184 21.0802 21.293 21.1248C21.2675 21.1693 21.2289 21.2049 21.1824 21.2267C21.0639 21.274 20.9366 21.2952 20.8091 21.2889H20.4269L20.3824 20.3644ZM20.738 20.6667C20.8016 20.6693 20.8642 20.6505 20.9158 20.6133C20.9401 20.5909 20.9592 20.5633 20.9715 20.5325C20.9838 20.5017 20.989 20.4686 20.9869 20.4356C20.9896 20.4029 20.9836 20.37 20.9695 20.3404C20.9555 20.3107 20.9339 20.2853 20.9069 20.2667C20.8483 20.2303 20.7803 20.2118 20.7113 20.2133H20.6136V20.6578L20.738 20.6667ZM20.738 21.2267C20.8166 21.2287 20.8941 21.2071 20.9602 21.1644C20.9853 21.1421 21.0053 21.1147 21.0191 21.084C21.0329 21.0534 21.0401 21.0202 21.0402 20.9867C21.0402 20.8267 20.9424 20.7378 20.738 20.7378H20.6136V21.2089H20.738V21.2267Z" fill="#231F20"/>
<path d="M22.2668 21.2533C22.1997 21.2129 22.1493 21.1498 22.1246 21.0755V20.9778H21.6535L21.5113 21.2889H21.4224L21.9379 20.1422H22.0179L22.409 21.0755C22.409 21.1822 22.5157 21.2355 22.5868 21.2444V21.3333H22.5068C22.4204 21.3327 22.3363 21.3047 22.2668 21.2533ZM21.6624 20.8978H22.0535L21.8579 20.4444L21.6624 20.8978Z" fill="#231F20"/>
<path d="M22.7111 20.3644C22.7202 20.3235 22.7202 20.281 22.7111 20.24C22.7111 20.24 22.6666 20.1956 22.6133 20.1956V20.1422H23.0933C23.2826 20.1345 23.4695 20.1874 23.6266 20.2933C23.6894 20.3425 23.7393 20.4062 23.7718 20.479C23.8044 20.5519 23.8186 20.6315 23.8133 20.7111C23.814 20.8172 23.7864 20.9215 23.7333 21.0133C23.6789 21.1035 23.5983 21.1748 23.5022 21.2178C23.385 21.2918 23.2496 21.3319 23.1111 21.3333H22.7288L22.7111 20.3644ZM23.0844 21.2533C23.1624 21.2506 23.2386 21.2293 23.3066 21.1911C23.3702 21.1469 23.4196 21.0851 23.4488 21.0133C23.4919 20.9314 23.5105 20.8388 23.5022 20.7467C23.5121 20.6544 23.4935 20.5613 23.4488 20.48C23.4196 20.4082 23.3702 20.3465 23.3066 20.3022C23.2421 20.256 23.1635 20.234 23.0844 20.24H22.9422V21.2267H23.1111L23.0844 21.2533Z" fill="#231F20"/>
<path d="M24.071 21.2711C24.0649 21.2508 24.0649 21.2292 24.071 21.2089C24.0672 21.1615 24.0672 21.114 24.071 21.0667V20.1778H24.3022V21.0667C24.2857 21.1096 24.2857 21.1571 24.3022 21.2C24.3022 21.2 24.3466 21.2 24.3999 21.2V21.3333H24.1866C24.1635 21.3347 24.1404 21.3297 24.12 21.3187C24.0995 21.3077 24.0826 21.2912 24.071 21.2711Z" fill="#231F20"/>
<path d="M24.5068 21.5289C24.5435 21.5041 24.5764 21.4742 24.6046 21.44C24.6322 21.4043 24.6478 21.3607 24.6491 21.3155H24.5691C24.5517 21.2925 24.5424 21.2644 24.5424 21.2355C24.5424 21.2067 24.5517 21.1786 24.5691 21.1555H24.6491C24.6661 21.1565 24.6828 21.1609 24.6981 21.1685C24.7134 21.1762 24.727 21.1869 24.7379 21.2C24.7459 21.2291 24.7459 21.2598 24.7379 21.2889C24.7523 21.3503 24.7523 21.4142 24.7379 21.4755C24.6936 21.5347 24.6395 21.5858 24.5779 21.6267L24.5068 21.5289Z" fill="#231F20"/>
<path d="M25.6176 20.2222H25.4931C25.4662 20.2187 25.4389 20.2209 25.4129 20.2285C25.3869 20.2362 25.3627 20.2492 25.342 20.2667C25.3227 20.2883 25.308 20.3137 25.2989 20.3412C25.2897 20.3687 25.2862 20.3978 25.2887 20.4267H25.2354V20.2844C25.2354 20.1867 25.2887 20.1422 25.3865 20.1422H26.2042V20.2222H25.8398V21.3333H25.6176V20.2222Z" fill="#231F20"/>
<path d="M26.6666 21.2622V21.2178L26.6044 21.2889H26.4532V20.4C26.4624 20.359 26.4624 20.3165 26.4532 20.2755C26.4532 20.2755 26.4088 20.2311 26.3555 20.2311V20.1778H26.5688H26.6666C26.6864 20.198 26.7015 20.2222 26.711 20.2489C26.7154 20.2932 26.7154 20.3379 26.711 20.3822V20.5244H26.7555C26.7995 20.516 26.8448 20.516 26.8888 20.5244C26.9413 20.5216 26.9938 20.5315 27.0417 20.5531C27.0897 20.5748 27.1317 20.6076 27.1644 20.6489C27.2346 20.7333 27.2697 20.8415 27.2621 20.9511C27.2702 21.062 27.2387 21.1723 27.1732 21.2622C27.1388 21.3008 27.0962 21.3312 27.0486 21.3512C27.0009 21.3712 26.9493 21.3803 26.8977 21.3778C26.8517 21.3899 26.8029 21.3849 26.7603 21.3636C26.7178 21.3423 26.6845 21.3063 26.6666 21.2622ZM26.9066 21.1378C26.9392 21.0559 26.9544 20.9681 26.951 20.88C26.951 20.6489 26.8888 20.5333 26.7732 20.5333C26.7381 20.5253 26.7017 20.5253 26.6666 20.5333V21.0667C26.664 21.0843 26.664 21.1023 26.6666 21.12C26.6799 21.1384 26.6972 21.1535 26.7172 21.1643C26.7373 21.1751 26.7594 21.1812 26.7821 21.1822C26.8799 21.2355 26.9155 21.2 26.9421 21.1378H26.9066Z" fill="#231F20"/>
<path d="M27.9468 21.28C27.9003 21.2543 27.8606 21.2177 27.8313 21.1733L27.6624 20.9511V21.3333H27.4313V20.4445C27.4401 20.4249 27.4447 20.4037 27.4447 20.3822C27.4447 20.3608 27.4401 20.3396 27.4313 20.32C27.4313 20.32 27.4313 20.2756 27.3335 20.2756V20.2222H27.5468H27.6446C27.6672 20.2401 27.6829 20.2652 27.6891 20.2933C27.6934 20.3377 27.6934 20.3823 27.6891 20.4267V20.9245L27.8935 20.6667C27.9278 20.6294 27.9666 20.5966 28.0091 20.5689C28.0555 20.5556 28.1048 20.5556 28.1513 20.5689V20.6222C28.1358 20.6156 28.1192 20.6122 28.1024 20.6122C28.0856 20.6122 28.0689 20.6156 28.0535 20.6222C28.0232 20.6378 27.9961 20.6589 27.9735 20.6845L27.8046 20.8978L28.0357 21.2C28.0745 21.2594 28.1303 21.3059 28.1957 21.3333H28.1513H28.0891C28.0384 21.3257 27.99 21.3076 27.9468 21.28Z" fill="#231F20"/>
<path d="M7.94669 23.3244C7.95992 23.3191 7.97167 23.3107 7.98095 23.2998C7.99024 23.289 7.99678 23.2761 8.00002 23.2622C8.01262 23.2066 8.01262 23.1489 8.00002 23.0933V22.3911H8.10669V23.1111C8.11518 23.1581 8.11518 23.2063 8.10669 23.2533C8.09648 23.2867 8.07433 23.3152 8.04447 23.3333C8.00154 23.3497 7.95406 23.3497 7.91113 23.3333L7.94669 23.3244Z" fill="#231F20"/>
<path d="M8.42658 22.5333C8.43072 22.5038 8.43072 22.4739 8.42658 22.4444C8.40372 22.4355 8.37833 22.4355 8.35547 22.4444H8.86214C8.93325 22.4444 8.9688 22.4444 8.9688 22.5422V22.6311C8.97031 22.6113 8.96737 22.5913 8.96017 22.5728C8.95298 22.5542 8.94173 22.5375 8.92724 22.5239C8.91275 22.5102 8.89539 22.5 8.87643 22.494C8.85748 22.4879 8.83741 22.4862 8.81769 22.4889H8.53325V22.8089H8.8888H8.53325V23.1111H8.74658C8.79246 23.1281 8.84292 23.1281 8.8888 23.1111C8.90752 23.1016 8.92372 23.0877 8.93608 23.0707C8.94844 23.0537 8.9566 23.0341 8.95991 23.0133L8.8888 23.1111C8.88452 23.1307 8.87299 23.1481 8.85652 23.1596C8.84005 23.1711 8.81984 23.176 8.79991 23.1733H8.42658V22.5333Z" fill="#231F20"/>
<path d="M9.12894 22.5333C9.12013 22.4966 9.10173 22.4629 9.07561 22.4356C9.04967 22.4268 9.02155 22.4268 8.99561 22.4356H9.04005C9.07814 22.4274 9.11752 22.4274 9.15561 22.4356C9.19572 22.4685 9.22639 22.5114 9.24449 22.56L9.40449 23.0222L9.52894 22.64V22.56C9.51824 22.524 9.50007 22.4907 9.47561 22.4622C9.44967 22.4534 9.42155 22.4534 9.39561 22.4622H9.44005C9.47769 22.4506 9.51797 22.4506 9.55561 22.4622C9.5996 22.4913 9.63126 22.5356 9.64449 22.5867L9.80449 23.0489L10.0089 22.4444H10.0623L9.78672 23.2356L9.60894 22.7378L9.44005 23.2356L9.12894 22.5333Z" fill="#231F20"/>
<path d="M10.2312 22.5333C10.2396 22.5043 10.2396 22.4735 10.2312 22.4444C10.2213 22.4403 10.2107 22.4381 10.2001 22.4381C10.1894 22.4381 10.1788 22.4403 10.1689 22.4444H10.6667C10.7378 22.4444 10.7734 22.4444 10.7734 22.5422V22.6311C10.7734 22.5422 10.7289 22.4889 10.6223 22.4889H10.4001V22.8089H10.6667H10.3467V23.1111H10.5601C10.595 23.1205 10.6318 23.1205 10.6667 23.1111C10.7045 23.0894 10.7329 23.0546 10.7467 23.0133V23.12C10.7409 23.1387 10.729 23.155 10.7129 23.1662C10.6968 23.1775 10.6774 23.1831 10.6578 23.1822H10.2401L10.2312 22.5333Z" fill="#231F20"/>
<path d="M10.9691 22.5333C10.9732 22.5038 10.9732 22.4739 10.9691 22.4444C10.9462 22.4355 10.9208 22.4355 10.8979 22.4444H11.0668C11.0706 22.459 11.0706 22.4743 11.0668 22.4889C11.0712 22.5183 11.0712 22.5483 11.0668 22.5778V23.1111H11.4935H10.9602L10.9691 22.5333Z" fill="#231F20"/>
<path d="M11.6444 22.5333C11.6485 22.5038 11.6485 22.4739 11.6444 22.4444C11.6215 22.4355 11.5961 22.4355 11.5732 22.4444H11.7421C11.7476 22.4587 11.7476 22.4746 11.7421 22.4889C11.7465 22.5183 11.7465 22.5483 11.7421 22.5778V23.1111H12.1688H11.6355L11.6444 22.5333Z" fill="#231F20"/>
<path d="M12.32 22.5333C12.3284 22.5043 12.3284 22.4735 12.32 22.4444C12.2998 22.4377 12.278 22.4377 12.2578 22.4444H12.7645C12.8356 22.4444 12.8711 22.4444 12.8711 22.5422V22.6311C12.8727 22.6113 12.8697 22.5913 12.8625 22.5728C12.8553 22.5542 12.8441 22.5375 12.8296 22.5239C12.8151 22.5102 12.7977 22.5 12.7788 22.494C12.7598 22.4879 12.7397 22.4862 12.72 22.4889H12.4445V22.8089H12.7734H12.4445V23.1111H12.6578C12.6983 23.124 12.7418 23.124 12.7823 23.1111C12.82 23.0894 12.8485 23.0546 12.8623 23.0133V23.12C12.8564 23.1387 12.8445 23.155 12.8284 23.1662C12.8123 23.1775 12.793 23.1831 12.7734 23.1822H12.3556L12.32 22.5333Z" fill="#231F20"/>
<path d="M13.4755 23.1556C13.4176 23.1238 13.3687 23.078 13.3333 23.0222L13.2177 22.8178H13.1289V23.1822H13.0222V22.5333C13.0306 22.5043 13.0306 22.4735 13.0222 22.4444C13.0123 22.4403 13.0018 22.4381 12.9911 22.4381C12.9804 22.4381 12.9698 22.4403 12.96 22.4444H13.2711C13.3386 22.431 13.408 22.431 13.4755 22.4444C13.5065 22.46 13.5323 22.4843 13.5497 22.5143C13.567 22.5443 13.5752 22.5787 13.5733 22.6133C13.5733 22.72 13.5111 22.7911 13.3777 22.8178L13.5022 23.0311L13.5822 23.1378H13.6711H13.6C13.5623 23.1595 13.5177 23.1659 13.4755 23.1556ZM13.3333 22.7556C13.3648 22.7464 13.3927 22.7278 13.4133 22.7022C13.4224 22.6703 13.4224 22.6364 13.4133 22.6044C13.4212 22.5723 13.4212 22.5388 13.4133 22.5067C13.4133 22.5067 13.3688 22.4622 13.3333 22.4533H13.2533H13.1644V22.7733H13.2533H13.3333V22.7556Z" fill="#231F20"/>
<path d="M13.9999 22.8533L13.7955 22.5511C13.7821 22.5244 13.764 22.5003 13.7421 22.48L13.6888 22.4355H13.6177H13.7243C13.7586 22.4217 13.7968 22.4217 13.831 22.4355L13.911 22.5333L14.0799 22.8L14.3288 22.4H14.3821L14.1066 22.8533V23.1911H13.9999V22.8533Z" fill="#231F20"/>
<path d="M15.6355 23.2089C15.6057 23.1908 15.5835 23.1623 15.5733 23.1289C15.5641 23.0789 15.5641 23.0277 15.5733 22.9778V22.5156L15.28 23.1822L14.9689 22.5067V23.1822H14.9155V22.3911H15.0311L15.3244 23.0133L15.6 22.3911H15.7066V22.9778C15.6942 23.0364 15.6942 23.097 15.7066 23.1556C15.7124 23.1719 15.7233 23.186 15.7377 23.1956C15.7522 23.2052 15.7693 23.2099 15.7866 23.2089C15.7368 23.2197 15.6853 23.2197 15.6355 23.2089Z" fill="#231F20"/>
<path d="M16.4536 23.1556C16.4308 23.1423 16.4111 23.1243 16.3958 23.1029C16.3805 23.0814 16.3699 23.057 16.3647 23.0311V22.9511H16.0002L15.9113 23.1822H15.8491L16.1869 22.3911L16.4536 23.0311C16.466 23.0664 16.484 23.0994 16.5069 23.1289C16.533 23.1365 16.5608 23.1365 16.5869 23.1289H16.5336C16.5086 23.1423 16.4816 23.1513 16.4536 23.1556ZM16.0091 22.9067H16.3025L16.1602 22.56L16.0091 22.9067Z" fill="#231F20"/>
<path d="M16.7911 22.5511V23.1822H16.7378V22.5333C16.7442 22.5194 16.7475 22.5042 16.7475 22.4889C16.7475 22.4735 16.7442 22.4584 16.7378 22.4444C16.7239 22.4381 16.7087 22.4347 16.6934 22.4347C16.678 22.4347 16.6629 22.4381 16.6489 22.4444H16.7289H16.8178L16.8889 22.4978L17.3067 23.0222V22.4267V23.2267L16.7911 22.5511Z" fill="#231F20"/>
<path d="M17.7065 23.1555C17.6609 23.1303 17.6261 23.0892 17.6087 23.04C17.596 22.9754 17.596 22.909 17.6087 22.8444V22.5333C17.6176 22.5044 17.6176 22.4734 17.6087 22.4444C17.5858 22.4355 17.5605 22.4355 17.5376 22.4444H17.7154C17.7191 22.459 17.7191 22.4743 17.7154 22.4889C17.7154 22.4889 17.7154 22.5511 17.7154 22.5778V22.9244C17.7147 22.9919 17.7366 23.0576 17.7776 23.1111C17.7969 23.1346 17.8214 23.1532 17.8492 23.1656C17.877 23.1779 17.9072 23.1836 17.9376 23.1822C17.9871 23.1954 18.0392 23.1954 18.0887 23.1822C18.1264 23.1605 18.1549 23.1257 18.1687 23.0844C18.1731 23.0282 18.1731 22.9718 18.1687 22.9155V22.4622H18.222V22.9155C18.2307 22.9804 18.2307 23.0462 18.222 23.1111C18.2047 23.1603 18.1699 23.2014 18.1243 23.2267C18.0633 23.2442 17.9986 23.2442 17.9376 23.2267C17.8963 23.2314 17.8544 23.2275 17.8146 23.2152C17.7749 23.203 17.738 23.1827 17.7065 23.1555Z" fill="#231F20"/>
<path d="M18.4446 22.5333C18.4488 22.5038 18.4488 22.4739 18.4446 22.4444C18.4218 22.4355 18.3964 22.4355 18.3735 22.4444H18.8535C18.9246 22.4444 18.9602 22.4444 18.9602 22.5422V22.6311C18.9617 22.6113 18.9588 22.5913 18.9516 22.5728C18.9444 22.5542 18.9331 22.5375 18.9186 22.5239C18.9041 22.5102 18.8868 22.5 18.8678 22.494C18.8489 22.4879 18.8288 22.4862 18.8091 22.4889H18.6224V22.8089H18.8891V22.8622H18.6224V23.2355H18.5158L18.4446 22.5333Z" fill="#231F20"/>
<path d="M19.5553 23.1556C19.5113 23.1265 19.4797 23.0822 19.4664 23.0311V22.9511H19.1287L19.0309 23.1822H18.9775L19.3153 22.3911L19.582 23.0311C19.5908 23.0679 19.6092 23.1016 19.6353 23.1289C19.6582 23.1378 19.6836 23.1378 19.7064 23.1289H19.662C19.6284 23.1444 19.5922 23.1535 19.5553 23.1556ZM19.1198 22.9067H19.4131L19.2709 22.56L19.1198 22.9067Z" fill="#231F20"/>
<path d="M19.8846 23.1555C19.8292 23.116 19.7836 23.0644 19.7513 23.0044C19.7379 22.9369 19.7379 22.8675 19.7513 22.8C19.7509 22.7227 19.7692 22.6465 19.8046 22.5778C19.8311 22.514 19.878 22.4608 19.9379 22.4267C19.9911 22.385 20.0571 22.3631 20.1246 22.3644C20.1806 22.3559 20.2375 22.3559 20.2935 22.3644C20.3353 22.3771 20.3724 22.4019 20.4002 22.4355C20.4069 22.4557 20.4069 22.4776 20.4002 22.4978V22.6133C20.389 22.5491 20.3579 22.49 20.3113 22.4444C20.2911 22.423 20.2659 22.4069 20.238 22.3976C20.2101 22.3883 20.1803 22.3861 20.1513 22.3911C20.1125 22.3875 20.0734 22.3937 20.0376 22.4093C20.0019 22.4248 19.9706 22.4491 19.9468 22.48C19.8865 22.5653 19.8582 22.6692 19.8668 22.7733C19.8583 22.8293 19.8583 22.8862 19.8668 22.9422C19.8833 22.9965 19.9178 23.0435 19.9646 23.0755C20.0101 23.1114 20.0667 23.1303 20.1246 23.1289C20.1727 23.1382 20.2225 23.132 20.2668 23.1111C20.3183 23.0839 20.359 23.04 20.3824 22.9867C20.353 23.0486 20.3068 23.1009 20.249 23.1378C20.1899 23.173 20.1223 23.1916 20.0535 23.1916C19.9847 23.1916 19.9171 23.173 19.8579 23.1378L19.8846 23.1555Z" fill="#231F20"/>
<path d="M20.791 22.4356H20.6843C20.5776 22.4356 20.5332 22.4889 20.5332 22.5778V22.4889C20.5332 22.4267 20.5332 22.3911 20.6399 22.3911H21.191V22.4444H20.9243V23.1822H20.8176L20.791 22.4356Z" fill="#231F20"/>
<path d="M21.458 23.1555C21.4123 23.1303 21.3775 23.0892 21.3602 23.04C21.3428 22.976 21.3428 22.9085 21.3602 22.8444V22.5333C21.3643 22.5038 21.3643 22.4739 21.3602 22.4444C21.3373 22.4355 21.3119 22.4355 21.2891 22.4444H21.458C21.4617 22.459 21.4617 22.4743 21.458 22.4889C21.4623 22.5183 21.4623 22.5483 21.458 22.5778V22.9244C21.4547 22.9925 21.47 23.0601 21.5024 23.12C21.5231 23.1442 21.5491 23.1632 21.5784 23.1755C21.6077 23.1879 21.6395 23.1932 21.6713 23.1911C21.7179 23.2031 21.7669 23.2031 21.8135 23.1911C21.8322 23.1816 21.8484 23.1677 21.8608 23.1507C21.8731 23.1337 21.8813 23.1141 21.8846 23.0933C21.8932 23.0374 21.8932 22.9804 21.8846 22.9244V22.4711H21.9291V22.9244C21.9464 22.9885 21.9464 23.056 21.9291 23.12C21.9238 23.1447 21.9131 23.1679 21.8977 23.1879C21.8823 23.2079 21.8627 23.2241 21.8402 23.2355C21.7792 23.2531 21.7145 23.2531 21.6535 23.2355C21.5808 23.2333 21.5114 23.2049 21.458 23.1555Z" fill="#231F20"/>
<path d="M22.6042 23.1556C22.5647 23.1167 22.5316 23.0716 22.5064 23.0222L22.382 22.8178H22.302V23.1822H22.222V22.5333C22.2261 22.5038 22.2261 22.4739 22.222 22.4444C22.1991 22.4355 22.1737 22.4355 22.1509 22.4444H22.462C22.5295 22.431 22.5989 22.431 22.6664 22.4444C22.6958 22.4612 22.7197 22.486 22.7355 22.516C22.7512 22.5459 22.7581 22.5796 22.7553 22.6133C22.7555 22.6646 22.7364 22.7141 22.7019 22.752C22.6673 22.7898 22.6197 22.8133 22.5687 22.8178L22.6931 23.0311C22.7139 23.0707 22.7409 23.1067 22.7731 23.1378H22.8531H22.782C22.7554 23.1534 22.7257 23.1631 22.6951 23.1662C22.6644 23.1692 22.6334 23.1656 22.6042 23.1556ZM22.4709 22.7556C22.4997 22.7458 22.5246 22.7271 22.542 22.7022C22.5544 22.6708 22.5544 22.6359 22.542 22.6044C22.5528 22.5728 22.5528 22.5384 22.542 22.5067C22.5223 22.4841 22.4981 22.4659 22.4709 22.4533H22.3909H22.302V22.7733H22.3909L22.4709 22.7556Z" fill="#231F20"/>
<path d="M22.9333 22.5333C22.9417 22.5043 22.9417 22.4735 22.9333 22.4445C22.9236 22.4397 22.913 22.4373 22.9022 22.4373C22.8914 22.4373 22.8808 22.4397 22.8711 22.4445H23.3866C23.3998 22.4431 23.4132 22.4446 23.4257 22.449C23.4382 22.4535 23.4495 22.4606 23.4589 22.47C23.4683 22.4794 23.4754 22.4907 23.4798 22.5032C23.4843 22.5157 23.4858 22.529 23.4844 22.5422V22.6311C23.4875 22.6117 23.4859 22.5919 23.4798 22.5733C23.4737 22.5547 23.4633 22.5377 23.4495 22.5238C23.4356 22.51 23.4187 22.4996 23.4 22.4935C23.3814 22.4874 23.3616 22.4859 23.3422 22.4889H23.1111V22.8089H23.44H23.1111V23.1111H23.3244C23.368 23.1232 23.4141 23.1232 23.4578 23.1111C23.4927 23.0884 23.518 23.0536 23.5289 23.0133L23.4844 23.12C23.4786 23.1387 23.4667 23.155 23.4506 23.1663C23.4345 23.1775 23.4151 23.1831 23.3955 23.1822H22.9333V22.5333Z" fill="#231F20"/>
<path d="M24.0887 23.1555C24.0502 23.1177 24.0199 23.0723 23.9998 23.0222L23.8842 22.8178H23.7954V23.1822H23.6887V22.5333C23.6951 22.5194 23.6984 22.5042 23.6984 22.4889C23.6984 22.4735 23.6951 22.4584 23.6887 22.4444C23.679 22.4397 23.6684 22.4373 23.6576 22.4373C23.6468 22.4373 23.6362 22.4397 23.6265 22.4444H23.9376C24.0081 22.432 24.0803 22.432 24.1509 22.4444C24.1802 22.4612 24.2042 22.486 24.2199 22.5159C24.2357 22.5459 24.2426 22.5796 24.2398 22.6133C24.2398 22.72 24.1776 22.7911 24.0442 22.8178L24.1776 23.0311C24.1984 23.0707 24.2254 23.1067 24.2576 23.1378C24.2839 23.1442 24.3113 23.1442 24.3376 23.1378H24.2665C24.2407 23.1554 24.2109 23.1662 24.1798 23.1693C24.1488 23.1724 24.1174 23.1677 24.0887 23.1555ZM23.9998 22.7555C24.0286 22.7458 24.0535 22.7271 24.0709 22.7022C24.08 22.6703 24.08 22.6364 24.0709 22.6044C24.0788 22.5723 24.0788 22.5388 24.0709 22.5067C24.0512 22.4841 24.027 22.4659 23.9998 22.4533H23.9109H23.822V22.7733H23.9109L23.9998 22.7555Z" fill="#231F20"/>
<path d="M7.09329 23.0045C7.16693 23.0045 7.22663 22.9448 7.22663 22.8711C7.22663 22.7975 7.16693 22.7378 7.09329 22.7378C7.01966 22.7378 6.95996 22.7975 6.95996 22.8711C6.95996 22.9448 7.01966 23.0045 7.09329 23.0045Z" fill="#231F20"/>
<path d="M24.8887 23.0045C24.9623 23.0045 25.022 22.9448 25.022 22.8711C25.022 22.7975 24.9623 22.7378 24.8887 22.7378C24.8151 22.7378 24.7554 22.7975 24.7554 22.8711C24.7554 22.9448 24.8151 23.0045 24.8887 23.0045Z" fill="#231F20"/>
</g>
<defs>
<clipPath id="clip0_2707_334378">
<rect width="32" height="32" fill="white"/>
</clipPath>
</defs>
</svg>
