<svg width="32" height="32" viewBox="0 0 32 32" fill="none" xmlns="http://www.w3.org/2000/svg">
<g clip-path="url(#clip0_2707_333793)">
<path d="M15.9998 31.9822C24.8265 31.9822 31.982 24.8267 31.982 16C31.982 7.17326 24.8265 0.0177765 15.9998 0.0177765C7.17306 0.0177765 0.0175781 7.17326 0.0175781 16C0.0175781 24.8267 7.17306 31.9822 15.9998 31.9822Z" fill="white"/>
<path d="M3.19085 16.48C3.13752 17.04 2.67529 16.9511 2.67529 16.9511L2.71974 17.1911H4.30196L4.38196 16.96C3.89307 16.96 4.0264 16.5689 4.0264 16.5689L4.44418 14.3111C4.51529 13.9644 4.93307 14.0444 4.93307 14.0444V13.7956H3.28863L3.19974 14.0356C3.19974 14.0356 3.6264 13.9822 3.58196 14.3556L3.19085 16.5067" fill="#0871B9"/>
<path d="M5.58209 14.7822L5.63543 14.4889L4.57765 14.64V14.8178C4.57765 14.8178 4.9332 14.72 4.80876 15.2356L4.5332 16.7378H5.2532L5.54654 15.1644C5.55948 15.0954 5.59752 15.0336 5.65332 14.9909C5.70912 14.9483 5.77874 14.9277 5.84876 14.9333C5.84876 14.9333 6.15987 14.9333 6.06209 15.3956L5.8132 16.7378L6.87098 16.5956V16.4178C6.87098 16.4178 6.48876 16.4889 6.60431 16.1333L6.78209 15.1111C6.78209 15.1111 6.87098 14.5422 6.5332 14.4533C6.5332 14.4533 6.15098 14.2844 5.58209 14.7556" fill="#0871B9"/>
<path d="M7.9467 16.7467C7.9467 16.7467 7.36893 16.8889 7.11115 16.5867C7.11115 16.5867 6.65782 16.2133 7.11115 15.2889C7.23979 15.0282 7.44479 14.8128 7.69886 14.6715C7.95293 14.5302 8.24401 14.4696 8.53337 14.4978L8.57782 14.2222C8.57782 14.2222 8.57782 13.9644 8.21337 14.0089L8.26671 13.8133L9.39559 13.6622L8.93337 16.1689C8.93337 16.1689 8.83559 16.48 9.29782 16.4355V16.6133L8.15115 16.7733L8.49782 14.8C8.49782 14.8 8.09782 14.6844 7.84893 15.3244C7.84893 15.3244 7.39559 16.5067 8.04448 16.5778V16.7555L7.9467 16.7467Z" fill="#0871B9"/>
<path d="M10.6666 14.6844C10.6666 14.6844 10.3377 14.5511 10.151 15.52C9.96435 16.4889 10.3021 16.5511 10.3021 16.5511C10.3021 16.5511 10.6844 16.6933 10.8532 15.7244C10.9955 14.9156 10.8532 14.6933 10.6666 14.6844ZM10.6666 14.4178C10.8164 14.4196 10.964 14.4538 11.0993 14.518C11.2346 14.5822 11.3545 14.6748 11.4508 14.7896C11.547 14.9044 11.6173 15.0386 11.6568 15.1831C11.6964 15.3276 11.7042 15.4789 11.6799 15.6267C11.642 15.9485 11.4905 16.2462 11.2525 16.4662C11.0146 16.6862 10.7059 16.8141 10.3821 16.8267C10.2324 16.8248 10.0847 16.7906 9.9494 16.7265C9.81406 16.6623 9.69418 16.5696 9.59795 16.4548C9.50173 16.34 9.43144 16.2058 9.39189 16.0614C9.35234 15.9169 9.34446 15.7656 9.3688 15.6178C9.40668 15.2959 9.55823 14.9982 9.79616 14.7782C10.0341 14.5582 10.3428 14.4304 10.6666 14.4178Z" fill="#0871B9"/>
<path d="M14.2843 14.6844C14.2843 14.6844 13.9554 14.5511 13.7688 15.52C13.5821 16.4889 13.9199 16.5511 13.9199 16.5511C13.9199 16.5511 14.2932 16.6933 14.4621 15.7244C14.6132 14.9156 14.4621 14.6933 14.2843 14.6844ZM14.2843 14.4178C14.4346 14.4181 14.5829 14.4513 14.719 14.515C14.8551 14.5787 14.9757 14.6713 15.0722 14.7865C15.1687 14.9017 15.2389 15.0365 15.2779 15.1816C15.3168 15.3268 15.3236 15.4787 15.2976 15.6267C15.26 15.947 15.1098 16.2436 14.8737 16.4634C14.6376 16.6833 14.331 16.812 14.0088 16.8267C13.8585 16.8263 13.7101 16.7931 13.574 16.7295C13.4379 16.6658 13.3174 16.5731 13.2209 16.4579C13.1244 16.3428 13.0542 16.2079 13.0152 16.0628C12.9763 15.9177 12.9695 15.7658 12.9954 15.6178C13.0276 15.306 13.1679 15.0153 13.3919 14.7961C13.616 14.577 13.9097 14.4431 14.2221 14.4178" fill="#0871B9"/>
<path d="M16.7911 14.6844C16.7911 14.6844 16.4622 14.5511 16.2755 15.52C16.0888 16.4889 16.4266 16.5511 16.4266 16.5511C16.4266 16.5511 16.8088 16.6933 16.9777 15.7244C17.1199 14.9156 16.9777 14.6933 16.7911 14.6844ZM16.7911 14.4178C16.9386 14.4234 17.0832 14.4603 17.2153 14.5261C17.3474 14.5919 17.464 14.6851 17.5574 14.7994C17.6507 14.9138 17.7186 15.0467 17.7566 15.1893C17.7946 15.332 17.8018 15.481 17.7777 15.6267C17.7398 15.9485 17.5883 16.2462 17.3504 16.4662C17.1124 16.6862 16.8038 16.8141 16.4799 16.8267C16.3297 16.8263 16.1813 16.7931 16.0452 16.7295C15.9091 16.6658 15.7886 16.5731 15.6921 16.4579C15.5955 16.3428 15.5254 16.2079 15.4864 16.0628C15.4475 15.9177 15.4407 15.7658 15.4666 15.6178C15.5045 15.2959 15.656 14.9982 15.894 14.7782C16.1319 14.5582 16.4406 14.4304 16.7644 14.4178" fill="#0871B9"/>
<path d="M12.7822 14.7644C12.7822 14.7644 12.7822 14.8178 12.5688 15.9556C12.5038 16.4666 12.344 16.9609 12.0977 17.4133C11.5555 18.56 10.6666 18.4178 10.6666 18.4178C10.4618 18.4114 10.2669 18.3284 10.1204 18.1852C9.97393 18.042 9.88652 17.849 9.87549 17.6444C9.87886 17.5483 9.90147 17.4538 9.94198 17.3665C9.98249 17.2793 10.0401 17.201 10.1113 17.1364C10.1826 17.0718 10.2661 17.0221 10.3569 16.9902C10.4477 16.9584 10.5439 16.9451 10.6399 16.9511H11.5288C11.5161 17.033 11.4952 17.1134 11.4666 17.1911H10.631C10.5058 17.1975 10.3874 17.2502 10.2988 17.3388C10.2101 17.4275 10.1575 17.5459 10.151 17.6711C10.1675 17.8011 10.229 17.9212 10.3248 18.0105C10.4206 18.0998 10.5447 18.1527 10.6755 18.16C10.8235 18.1739 10.9728 18.1526 11.111 18.0978C11.3243 17.9229 11.4793 17.6873 11.5555 17.4222C11.6768 17.0604 11.766 16.6886 11.8222 16.3111C11.8222 16.3111 11.9199 15.8844 12.0622 14.7733H11.6799L11.7422 14.5244C11.8207 14.5112 11.8957 14.4824 11.9629 14.4396C12.0301 14.3969 12.088 14.3411 12.1333 14.2756C12.2787 14.0451 12.4585 13.8382 12.6666 13.6622C12.8182 13.5894 12.9906 13.5727 13.1534 13.615C13.3161 13.6573 13.4586 13.7559 13.5555 13.8933L13.0577 14.3644C12.9875 14.2809 12.9102 14.2036 12.8266 14.1333C12.8103 14.1095 12.7884 14.09 12.7628 14.0765C12.7373 14.0631 12.7088 14.056 12.6799 14.056C12.651 14.056 12.6226 14.0631 12.597 14.0765C12.5715 14.09 12.5496 14.1095 12.5333 14.1333C12.4088 14.4889 12.8266 14.4711 12.8266 14.4711H13.3333L13.2622 14.7378L12.7822 14.7644Z" fill="#0871B9"/>
<path d="M10.0176 16.9511H4.60431L4.5332 17.1911H9.77765C9.80009 17.136 9.83383 17.0861 9.87669 17.0448C9.91956 17.0034 9.9706 16.9715 10.0265 16.9511" fill="#0871B9"/>
<path d="M12.5154 16.9511H27.9732L27.8488 17.1911H12.4443C12.485 17.1165 12.512 17.0352 12.5243 16.9511" fill="#0871B9"/>
<path d="M18.9598 16.7467C18.9598 16.7467 18.382 16.8444 18.1331 16.5867C18.1331 16.5867 17.6798 16.2133 18.1331 15.2889C18.2618 15.0282 18.4668 14.8128 18.7208 14.6715C18.9749 14.5302 19.266 14.4696 19.5553 14.4978V14.2222C19.5553 14.2222 19.5998 13.9644 19.1909 14.0089L19.2442 13.8133L20.4442 13.6444L19.982 16.1511C19.982 16.1511 19.8842 16.4622 20.3465 16.4178V16.5956L19.1998 16.7556L19.5553 14.7822C19.5553 14.7822 19.1465 14.6667 18.8976 15.3067C18.8976 15.3067 18.4442 16.4889 19.0931 16.56V16.7378L18.9598 16.7467Z" fill="#0871B9"/>
<path d="M21.9908 15.6533C21.9908 16.4178 22.213 16.5422 22.5419 16.5422C22.7378 16.5229 22.9218 16.4392 23.065 16.304C23.2082 16.1689 23.3024 15.9901 23.333 15.7956L23.573 15.6889L23.3952 16.6756H23.1819C22.9152 16.6756 22.7019 16.7556 22.4974 16.7556C22.3093 16.7697 22.1206 16.7397 21.9462 16.6678C21.7718 16.596 21.6166 16.4843 21.4931 16.3418C21.3696 16.1993 21.2811 16.0298 21.2348 15.847C21.1885 15.6642 21.1856 15.473 21.2263 15.2889C21.2736 14.8314 21.4964 14.4101 21.8478 14.1134C22.1991 13.8167 22.6518 13.6677 23.1108 13.6978C23.3419 13.6978 23.733 13.7778 23.813 13.7778H23.9463L23.7774 14.6667L23.573 14.7644C23.573 14.7644 23.573 13.8756 23.0308 13.8756C22.4885 13.8756 22.0619 14.7644 22.0352 15.6533" fill="#EB262A"/>
<path d="M25.1733 15.2089V15.0311C25.1733 15.0311 25.8133 14.9156 25.8844 14.3733C25.8962 14.3214 25.8964 14.2676 25.8851 14.2156C25.8739 14.1636 25.8513 14.1147 25.8191 14.0724C25.787 14.03 25.7459 13.9952 25.6988 13.9704C25.6517 13.9457 25.5998 13.9315 25.5467 13.9289C25.4597 13.9366 25.3734 13.9515 25.2889 13.9733L25.0844 14.9333L24.9422 15.8222L24.8889 16.24C24.8889 16.3644 24.8889 16.5778 25.1289 16.5689C25.31 16.5316 25.4749 16.4388 25.6008 16.3034C25.7267 16.168 25.8072 15.9967 25.8311 15.8133C25.8311 15.4933 25.68 15.2089 25.3778 15.2267L25.1733 15.2089ZM23.6089 16.7111V16.5333C23.7306 16.54 23.8522 16.5187 23.9644 16.4711C24.1511 16.3822 24.24 15.8578 24.2578 15.7867L24.4444 14.7111C24.4978 14.4356 24.5422 14.0444 24.4444 13.9822C24.3454 13.9562 24.2413 13.9562 24.1422 13.9822L24.24 13.8133H24.3022L25.68 13.7689C26.1689 13.7689 26.72 13.8489 26.6933 14.3378C26.6667 14.8267 25.8578 15.0756 25.8489 15.0667C25.84 15.0578 26.6578 15.0667 26.6222 15.7244C26.5778 16.5156 25.6444 16.8178 25.2444 16.7733C24.7915 16.7462 24.3374 16.7462 23.8844 16.7733L23.6089 16.7111Z" fill="#EB262A"/>
<path d="M27.7067 15.5911C27.9372 15.5153 28.1422 15.3771 28.299 15.192C28.4559 15.0069 28.5585 14.782 28.5956 14.5422C28.6578 14.0978 28.3733 13.9467 28.16 13.9467C28.1019 13.9437 28.0447 13.9627 28 14L27.8933 14.5156L27.6533 15.7867L27.6089 16.08C27.6089 16.2667 27.6089 16.4533 27.8133 16.4978C27.9519 16.5176 28.0926 16.5176 28.2311 16.4978L28.1245 16.6756H26.3467V16.4978C26.4682 16.5016 26.5892 16.4804 26.7022 16.4356C26.9156 16.3644 27.0045 15.7067 27.0133 15.6444L27.2267 14.5156C27.2267 14.3111 27.28 14.0444 27.2267 13.9822C27.1167 13.9366 26.999 13.9125 26.88 13.9111L26.9778 13.7422H28.3378C28.9156 13.7422 29.4667 13.9911 29.4045 14.48C29.2533 15.5467 27.8845 15.7156 27.8845 15.7156L27.7067 15.5911Z" fill="#EB262A"/>
</g>
<defs>
<clipPath id="clip0_2707_333793">
<rect width="32" height="32" fill="white"/>
</clipPath>
</defs>
</svg>
