<svg width="32" height="32" viewBox="0 0 32 32" fill="none" xmlns="http://www.w3.org/2000/svg">
<g clip-path="url(#clip0_2707_333743)">
<path d="M15.9911 31.9911C24.8228 31.9911 31.9822 24.8317 31.9822 16C31.9822 7.16836 24.8228 0.00889587 15.9911 0.00889587C7.15946 0.00889587 0 7.16836 0 16C0 24.8317 7.15946 31.9911 15.9911 31.9911Z" fill="white"/>
<path d="M15.9909 29.3244C23.3498 29.3244 29.3154 23.3589 29.3154 16C29.3154 8.64111 23.3498 2.67555 15.9909 2.67555C8.63206 2.67555 2.6665 8.64111 2.6665 16C2.6665 23.3589 8.63206 29.3244 15.9909 29.3244Z" fill="white"/>
<path d="M22.3554 13.7422L19.6265 19.7689H21.7687L23.9465 15.1111H26.0709C26.0709 15.1111 27.1554 15.04 26.8354 15.84L25.0576 19.7956H27.2709L29.1998 15.5733C29.1998 15.5733 29.5198 14.6844 28.9509 14.2489C28.3263 13.8718 27.5976 13.7036 26.8709 13.7689L22.3554 13.7422Z" fill="#373354"/>
<path d="M18.5513 13.6C15.1468 13.6 12.2046 16.1067 12.5513 18.2578C12.8535 20.1956 15.6624 19.9644 17.049 19.8311C18.4357 19.6978 21.8935 18.1956 21.9024 15.7956C21.9113 13.3956 18.5513 13.6 18.5513 13.6ZM17.0668 18.6667C16.3824 18.7467 15.0224 18.8889 14.8713 17.7333C14.7202 16.5778 16.489 15.0133 17.7157 15.0133C17.7157 15.0133 19.5379 14.9156 19.5379 16.0711C19.5557 17.4667 17.7779 18.56 17.0668 18.6667Z" fill="#384780"/>
<path d="M15.3067 13.7422L14.7023 15.0133H11.769C11.2526 15.0572 10.7428 15.1586 10.249 15.3156C9.70296 15.5446 9.26227 15.9694 9.01342 16.5067C8.59564 17.3333 8.57786 17.5556 8.67564 17.8489C8.77342 18.1422 9.13786 18.4356 9.93786 18.4889C10.7379 18.5422 13.1379 18.4889 13.1379 18.4889L12.5334 19.7689H9.05786C8.26355 19.8188 7.47448 19.6098 6.80897 19.1733C6.36465 18.6392 6.12237 17.9659 6.12453 17.2711L6.52453 16.2489C6.52453 16.2489 7.79564 15.1822 8.05342 14.9956C8.62651 14.5267 9.28875 14.1789 10.0001 13.9733C10.8052 13.8153 11.6241 13.7379 12.4445 13.7422H15.3067Z" fill="#373354"/>
<path d="M8.38229 13.4667L8.94229 12.2133H6.6934L6.12451 13.4667H8.38229Z" fill="#589BCA"/>
<path d="M6.00018 13.7422L3.24463 19.7689H5.54685L8.25796 13.7422H6.00018Z" fill="#384780"/>
</g>
<defs>
<clipPath id="clip0_2707_333743">
<rect width="32" height="32" fill="white"/>
</clipPath>
</defs>
</svg>
