<svg width="32" height="32" viewBox="0 0 32 32" fill="none" xmlns="http://www.w3.org/2000/svg">
<g clip-path="url(#clip0_2707_332988)">
<path d="M16 32C24.8366 32 32 24.8366 32 16C32 7.16344 24.8366 0 16 0C7.16344 0 0 7.16344 0 16C0 24.8366 7.16344 32 16 32Z" fill="white"/>
<path d="M15.9998 29.3333C23.3636 29.3333 29.3332 23.3638 29.3332 16C29.3332 8.63616 23.3636 2.66663 15.9998 2.66663C8.63604 2.66663 2.6665 8.63616 2.6665 16C2.6665 23.3638 8.63604 29.3333 15.9998 29.3333Z" fill="white"/>
<path d="M11.4224 24.9688C12.6741 23.7735 14.1199 22.7996 15.6979 22.0888C17.9572 21.0515 20.3833 20.4254 22.8624 20.2399C25.5824 20.1066 25.1291 21.5644 25.1291 21.5644C25.1291 21.5644 25.0668 22.1155 22.7024 21.9911C20.9038 21.8158 19.0893 21.9026 17.3157 22.2488C15.4695 22.6711 13.7181 23.4338 12.1513 24.4977C10.7291 25.6266 11.4224 24.9688 11.4224 24.9688Z" fill="#1A228C"/>
<path d="M19.5998 18.7555C18.6156 19.0468 17.658 19.4215 16.7375 19.8755C14.9478 20.6474 13.3623 21.8251 12.1064 23.3155C10.6131 25.1733 11.7864 23.9111 12.1064 23.68C13.6185 22.2267 15.4427 21.1382 17.4398 20.4978C18.9976 20.0564 20.6119 19.8467 22.2309 19.8755C22.7553 19.8755 24.062 19.8755 24.0086 19.0489C23.9553 18.2222 23.022 18.0444 22.5242 18.16C22.0264 18.2755 19.5998 18.7555 19.5998 18.7555Z" fill="#1A228C"/>
<path d="M9.35995 13.7778C9.35995 13.7778 7.27106 15.1111 6.78217 15.6C6.29328 16.0889 5.89328 16.4178 5.78662 16.8C5.67995 17.1822 8.52439 17.0311 8.94217 16.9156C9.21694 16.8252 9.46044 16.6588 9.64439 16.4356H7.2355C7.57697 16.0283 8.02237 15.7211 8.52439 15.5467C9.13407 15.5055 9.74583 15.5055 10.3555 15.5467C10.4746 15.5083 10.5836 15.4436 10.6744 15.3574C10.7651 15.2713 10.8354 15.1658 10.8799 15.0489C10.3712 14.8776 9.82974 14.8259 9.29773 14.8978C9.29773 14.8978 9.59106 14.3822 9.97328 14.3644C10.3555 14.3467 12.1155 14.4178 12.2933 14.3644C12.4711 14.3111 12.9155 14.1689 12.6044 14.0178C12.2933 13.8667 12.3733 13.7511 11.4933 13.76L9.35995 13.7778Z" fill="#E1050E"/>
<path d="M11.04 16.2133C11.04 16.2133 10.8 15.9911 11.6622 15.5288C12.4742 15.1104 13.2298 14.5907 13.9111 13.9822C13.9733 13.8044 14.2933 13.5555 15.3333 13.5822C16.3733 13.6088 15.4933 14.3288 15.3333 14.6311C15.1733 14.9333 15.0311 15.2888 15.1644 15.28C16.1459 15.0205 17.0988 14.6632 18.0089 14.2133C19.3066 13.5822 19.7866 13.4666 19.8577 13.5733C19.9289 13.68 19.8044 13.9288 18.7644 14.8711C17.7244 15.8133 18.9689 16.1155 18.9866 16.2133C19.0044 16.3111 18.72 16.5155 18.4977 16.5422C18.2755 16.5688 16.3733 16.9244 17.0222 15.84C17.6711 14.7555 17.6266 14.9511 17.4577 14.9511C17.2889 14.9511 14.7911 16.3911 14.7911 16.3911L13.9022 16.5422C13.7968 16.2553 13.7968 15.9402 13.9022 15.6533C14.08 15.0933 14.1511 14.7644 13.7955 15.04C13.2579 15.366 12.703 15.6627 12.1333 15.9288C11.6889 16.1244 11.36 16.3377 11.04 16.2133Z" fill="#E1050E"/>
<path d="M15.8667 16.1955C17.8823 16.4635 19.9134 16.5971 21.9467 16.5955C24.2489 16.5066 26.6756 15.8844 27.92 14.2044C29.1645 12.5244 25.9645 12.3022 25.2534 12.3644C23.5322 12.468 21.8243 12.7299 20.1511 13.1466C18.8445 13.6089 18.9511 13.4222 19.1734 13.3066C20.683 12.5568 22.3205 12.0984 24 11.9555C26.8089 11.68 28.32 12.0533 28.9956 13.0666C29.6711 14.08 27.5556 16.1689 24.2134 17.12C21.6253 17.8966 18.9553 18.3679 16.2578 18.5244C13.3689 18.7466 13.1289 18.2577 12.9067 17.3866C12.6845 16.5155 14.3111 15.9022 15.8667 16.1955Z" fill="#1A228C"/>
<path d="M15.9291 13.7955C13.9135 13.5276 11.8825 13.391 9.84913 13.3866C7.54691 13.4844 5.12024 14.1066 3.8758 15.7866C2.63135 17.4666 5.83135 17.6888 6.54246 17.6266C8.2652 17.5381 9.97613 17.2911 11.6536 16.8888C12.9602 16.4266 12.8447 16.6133 12.6314 16.7288C11.1171 17.4748 9.47742 17.933 7.7958 18.0799C4.9958 18.3555 3.4758 17.9733 2.80024 16.9599C2.12469 15.9466 4.23135 13.8577 7.58246 12.9155C10.1825 12.1257 12.8688 11.6541 15.5825 11.5111C18.4714 11.2888 18.7114 11.7777 18.9247 12.6488C19.138 13.5199 17.4847 14.0888 15.9291 13.7955Z" fill="#1A228C"/>
<path d="M22.1155 14.2667C22.1155 14.2667 20.8977 14.8445 20.8444 15.3156C20.791 15.7867 21.1199 15.7422 21.8133 15.6534C22.5066 15.5645 23.9288 14.8711 24.0444 14.9422C24.1599 15.0134 23.8044 15.4667 23.3244 15.7689C22.3374 16.1733 21.263 16.3171 20.2044 16.1867C19.431 15.9822 19.8755 15.1467 20.2044 14.8534C21.1769 14.0721 22.3038 13.5056 23.511 13.1911C25.3333 12.6934 26.0888 13.1289 26.231 13.3334C26.3733 13.5378 25.9288 14.2934 24.9866 14.4178C24.0444 14.5422 24.4621 14.2578 24.5688 14.0889C24.6755 13.92 25.0399 13.6 24.7466 13.6178C23.8325 13.6382 22.9342 13.8597 22.1155 14.2667Z" fill="#E1050E"/>
</g>
<defs>
<clipPath id="clip0_2707_332988">
<rect width="32" height="32" fill="white"/>
</clipPath>
</defs>
</svg>
