<svg width="32" height="32" viewBox="0 0 32 32" fill="none" xmlns="http://www.w3.org/2000/svg">
<g clip-path="url(#clip0_2707_332943)">
<mask id="mask0_2707_332943" style="mask-type:luminance" maskUnits="userSpaceOnUse" x="0" y="0" width="32" height="32">
<path d="M31.9758 0.0235929H0.00537109V31.994H31.9758V0.0235929Z" fill="white"/>
</mask>
<g mask="url(#mask0_2707_332943)">
<path d="M15.9906 31.994C24.819 31.994 31.9758 24.8372 31.9758 16.0088C31.9758 7.18041 24.819 0.0235929 15.9906 0.0235929C7.16219 0.0235929 0.00537109 7.18041 0.00537109 16.0088C0.00537109 24.8372 7.16219 31.994 15.9906 31.994Z" fill="white"/>
<path d="M4.49127 14.5988C5.31789 15.0715 6.13961 15.5414 6.96685 16.0145C6.83846 16.0875 6.71665 16.1563 6.59531 16.2259C6.49816 16.2816 6.40165 16.3385 6.30462 16.3945C6.22718 16.4391 6.14923 16.483 6.07171 16.5275C5.94522 16.6002 5.81905 16.6734 5.69241 16.7458C5.61648 16.7892 5.53961 16.8309 5.46374 16.8744C5.35974 16.934 5.25667 16.9952 5.15256 17.0546C5.07234 17.1003 4.99081 17.1438 4.91044 17.1893C4.83697 17.2309 4.76432 17.2739 4.69124 17.3161C4.6378 17.347 4.58461 17.3783 4.53056 17.408C4.50323 17.4231 4.47615 17.4224 4.44731 17.4057C4.34075 17.3438 4.23279 17.2842 4.12589 17.2228C4.00503 17.1534 3.88496 17.0826 3.76409 17.0132C3.68541 16.968 3.60566 16.9246 3.52686 16.8796C3.42675 16.8224 3.3272 16.7643 3.22723 16.7069C3.14852 16.6617 3.06942 16.6172 2.99068 16.572C2.86543 16.5001 2.74054 16.4276 2.61517 16.356C2.53939 16.3127 2.46275 16.2708 2.38694 16.2276C2.28401 16.1688 2.18159 16.1092 2.07881 16.0502C2.05951 16.0391 2.03974 16.0289 2.01611 16.0161C2.03171 16.0057 2.04462 15.9961 2.05847 15.9881C2.16803 15.925 2.27753 15.8617 2.3875 15.7993C2.49203 15.74 2.59735 15.6821 2.70185 15.6228C2.79776 15.5683 2.89299 15.5127 2.98866 15.4578C3.07161 15.4103 3.15488 15.3633 3.23786 15.3158C3.33495 15.2602 3.4319 15.2043 3.52888 15.1485C3.61043 15.1016 3.6919 15.0546 3.77345 15.0077C3.87324 14.9503 3.97297 14.8929 4.07288 14.8358C4.12498 14.8061 4.17749 14.777 4.22968 14.7474C4.31703 14.6979 4.4043 14.6482 4.49127 14.5988ZM6.82177 16.0146C6.74602 15.9719 6.67855 15.9343 6.61135 15.896C6.53386 15.852 6.45656 15.8076 6.37936 15.763C6.29781 15.7159 6.21673 15.6681 6.135 15.6213C6.06055 15.5786 5.98542 15.5371 5.91076 15.4948C5.83172 15.4501 5.7528 15.4052 5.67403 15.36C5.59094 15.3123 5.5082 15.264 5.42508 15.2164C5.34352 15.1697 5.26146 15.1239 5.17997 15.0771C5.08311 15.0214 4.98676 14.9649 4.88993 14.9091C4.8296 14.8744 4.76876 14.8404 4.70814 14.8062C4.64464 14.7702 4.58097 14.7346 4.51774 14.6982C4.499 14.6874 4.4826 14.6865 4.46324 14.6979C4.42414 14.7209 4.38337 14.7412 4.344 14.7638C4.24407 14.8212 4.14481 14.8799 4.04475 14.937C3.94215 14.9957 3.8386 15.0528 3.73597 15.1114C3.60931 15.1838 3.48326 15.2573 3.35665 15.3299C3.28075 15.3733 3.20387 15.4152 3.12812 15.459C3.02833 15.5168 2.92967 15.5765 2.82967 15.6338C2.7496 15.6798 2.66781 15.7227 2.58761 15.7684C2.48333 15.8279 2.37978 15.8886 2.27599 15.9489C2.23914 15.9703 2.20255 15.9923 2.16253 16.0159C2.19645 16.0346 2.2236 16.0492 2.2503 16.0645C2.346 16.1193 2.44162 16.1742 2.53717 16.2292C2.64256 16.2899 2.74767 16.351 2.8532 16.4113C2.92768 16.4539 3.00279 16.4955 3.07735 16.5379C3.16042 16.5853 3.24307 16.6333 3.32607 16.6807C3.40632 16.7264 3.48702 16.7714 3.56709 16.8174C3.68935 16.8877 3.81104 16.9588 3.93336 17.029C4.03034 17.0847 4.12811 17.139 4.22515 17.1945C4.31366 17.2452 4.4017 17.2967 4.49116 17.3486C4.58283 17.2951 4.67336 17.2411 4.76498 17.1891C4.89597 17.1147 5.02829 17.0426 5.15913 16.9679C5.32689 16.8721 5.49337 16.7742 5.66103 16.6782C5.78906 16.605 5.91857 16.5344 6.04651 16.461C6.21809 16.3626 6.38866 16.2624 6.55994 16.1635C6.64421 16.1148 6.72908 16.0672 6.82177 16.0146ZM9.3971 17.1823V17.2515C9.33473 17.2947 9.23574 17.2851 9.18175 17.2313C9.12701 17.1767 9.12035 17.0801 9.16656 17.0108C9.2107 16.9447 9.31087 16.9208 9.39621 16.9573V17.0289C9.34047 17.0128 9.28402 16.9973 9.24758 17.0601C9.22751 17.0947 9.23305 17.1508 9.25921 17.1767C9.30066 17.2176 9.34693 17.2058 9.3971 17.1823ZM7.571 17.1668V17.251C7.48012 17.2963 7.35671 17.2848 7.29372 17.2234C7.21651 17.1482 7.21204 17.056 7.24227 16.9606C7.27039 16.8719 7.35159 16.8154 7.44634 16.812C7.4877 16.8106 7.52935 16.8094 7.57047 16.8278V16.9083C7.53749 16.9044 7.50555 16.898 7.47352 16.8974C7.4078 16.896 7.3621 16.9271 7.34146 16.9831C7.31749 17.0481 7.33288 17.1236 7.37841 17.162C7.41923 17.1964 7.4665 17.1973 7.51523 17.1858C7.53278 17.1817 7.54957 17.1743 7.571 17.1668ZM9.09833 17.1369H8.89147C8.88652 17.1685 8.89904 17.1901 8.92376 17.1978C8.94975 17.2059 8.97861 17.2075 9.00617 17.2072C9.02524 17.2071 9.04421 17.199 9.06499 17.1941V17.2543C8.99963 17.2832 8.93309 17.2886 8.86574 17.2577C8.85254 17.2516 8.84064 17.2414 8.83016 17.2311C8.77759 17.1791 8.78487 17.071 8.80837 17.0249C8.83851 16.9658 8.89842 16.935 8.97021 16.9418C9.03021 16.9474 9.07607 16.9868 9.08797 17.046C9.09347 17.0734 9.09448 17.1017 9.09833 17.1369ZM9.64881 16.9534V17.0172C9.62747 17.0188 9.60811 17.0204 9.58238 17.0224C9.58238 17.071 9.58001 17.1185 9.58321 17.1657C9.58531 17.1964 9.59754 17.2015 9.65103 17.2049V17.2685C9.61687 17.2809 9.58371 17.2798 9.55174 17.2733C9.5103 17.2648 9.48671 17.2309 9.48422 17.18C9.48253 17.1452 9.48386 17.1103 9.48384 17.0755V17.0239C9.46675 17.0215 9.45249 17.0195 9.43535 17.017V16.9523C9.44976 16.9516 9.46403 16.9508 9.48153 16.9499C9.48286 16.9272 9.48407 16.9062 9.48558 16.8803C9.5148 16.8714 9.54541 16.862 9.58049 16.8513V16.9477C9.60417 16.9497 9.62489 16.9514 9.64881 16.9534ZM12.6887 17.1054C12.6965 17.2192 12.6071 17.2803 12.5152 17.2774C12.4092 17.274 12.3505 17.2155 12.3478 17.1095C12.345 16.9958 12.4315 16.9407 12.5203 16.9401C12.6328 16.9394 12.6966 17.0185 12.6887 17.1054ZM13.1027 16.9659C13.148 16.9462 13.1919 16.9391 13.2373 16.9412C13.3112 16.9447 13.3544 16.9874 13.356 17.0608C13.3573 17.1271 13.3562 17.1934 13.3562 17.2632H13.2709C13.2691 17.2562 13.2667 17.2472 13.2637 17.2359C13.2577 17.2389 13.2508 17.2404 13.2467 17.2447C13.2247 17.2677 13.1981 17.2777 13.1662 17.2769C13.1163 17.2755 13.0814 17.2495 13.0715 17.2048C13.061 17.1575 13.08 17.1103 13.1216 17.091C13.1437 17.0808 13.169 17.077 13.1931 17.0717C13.2156 17.0669 13.2384 17.0639 13.2608 17.0601C13.2555 17.0168 13.2491 17.008 13.2152 17.0072C13.194 17.0067 13.1725 17.011 13.1516 17.0152C13.1357 17.0184 13.1206 17.0248 13.1027 17.0305V16.9659ZM14.0167 17.2767C13.9398 17.2764 13.8837 17.2435 13.861 17.1829C13.8389 17.1235 13.8405 17.0335 13.9016 16.9806C13.9632 16.9273 14.0816 16.9264 14.142 16.9804C14.2018 17.034 14.2112 17.1455 14.161 17.2132C14.1252 17.2615 14.075 17.2786 14.0167 17.2767ZM7.79272 17.2767C7.68938 17.276 7.62541 17.212 7.62532 17.1093C7.62526 17.0042 7.69249 16.9406 7.80305 16.9411C7.90843 16.9417 7.96968 17.0032 7.96918 17.1079C7.96865 17.2146 7.90296 17.2775 7.79272 17.2767ZM10.7682 17.2752C10.7369 17.2752 10.7071 17.2783 10.6783 17.2745C10.6332 17.2687 10.6066 17.2351 10.6036 17.1826C10.6015 17.1462 10.603 17.1096 10.603 17.0731C10.6029 17.0569 10.603 17.0408 10.603 17.0221C10.584 17.0204 10.5698 17.0191 10.5537 17.0177V16.9542C10.5682 16.9523 10.5838 16.9503 10.6022 16.9479V16.8804C10.6343 16.8708 10.6643 16.8619 10.6996 16.8514V16.9485C10.7251 16.9503 10.746 16.9517 10.7684 16.9532V17.0168C10.7472 17.0187 10.7266 17.0206 10.7011 17.023C10.7011 17.0714 10.6989 17.1175 10.7018 17.1632C10.7039 17.1955 10.7148 17.2003 10.7682 17.2063V17.2752ZM13.4591 16.8804C13.4935 16.8702 13.5219 16.8618 13.5559 16.8518V16.9476C13.5816 16.9497 13.6024 16.9514 13.6255 16.9534V17.0162C13.6062 17.0183 13.5856 17.0204 13.5594 17.0232C13.5594 17.0717 13.557 17.1193 13.5602 17.1664C13.5623 17.1964 13.5748 17.2014 13.6255 17.2052V17.2747C13.5942 17.2747 13.5629 17.2782 13.5327 17.2739C13.49 17.2677 13.4648 17.2345 13.4615 17.1842C13.4592 17.1495 13.4608 17.1146 13.4607 17.0797C13.4607 17.0617 13.4607 17.0437 13.4607 17.0235C13.443 17.0211 13.4288 17.0191 13.412 17.0168V16.9551C13.4249 16.953 13.4403 16.9505 13.4591 16.9474V16.8804ZM10.4924 16.9528H10.399V17.2649H10.4924V16.9528ZM12.941 17.2649H12.8277C12.7912 17.1622 12.7547 17.0595 12.717 16.9535H12.8197C12.8404 17.024 12.8609 17.0942 12.8815 17.1643C12.8858 17.1643 12.8902 17.1642 12.8945 17.1642C12.9152 17.0941 12.936 17.024 12.957 16.9528H13.0569C13.0179 17.0579 12.9796 17.1609 12.941 17.2649ZM8.72812 17.2647H8.63316C8.63316 17.2119 8.63363 17.1594 8.63289 17.1069C8.63265 17.0889 8.6304 17.0707 8.62715 17.053C8.62309 17.0311 8.60891 17.0184 8.58641 17.0156C8.56273 17.0127 8.54177 17.0199 8.53201 17.0416C8.52413 17.059 8.5199 17.0794 8.51931 17.0986C8.51768 17.1529 8.51874 17.2073 8.51874 17.2642H8.42579V16.9543H8.51501C8.51729 16.9638 8.52008 16.9754 8.52375 16.9907C8.55637 16.9519 8.59456 16.9368 8.64091 16.9415C8.67744 16.9453 8.70314 16.9634 8.71652 16.9972C8.72193 17.011 8.72738 17.0258 8.72759 17.0403C8.72871 17.1144 8.72812 17.1886 8.72812 17.2647ZM8.34208 17.2647H8.24483C8.24483 17.2116 8.24501 17.1592 8.24472 17.1068C8.24463 17.0903 8.24528 17.0733 8.24193 17.0574C8.23732 17.0352 8.22539 17.0179 8.19945 17.0154C8.17361 17.0129 8.152 17.0211 8.14223 17.0452C8.13501 17.0631 8.13146 17.0835 8.13093 17.1029C8.12942 17.1556 8.13042 17.2084 8.13042 17.2639H8.03791V16.9549H8.12657C8.1285 16.9634 8.13122 16.9755 8.13418 16.9888C8.13856 16.9862 8.14268 16.984 8.14644 16.9813C8.16109 16.9708 8.17429 16.9571 8.19043 16.95C8.26032 16.9192 8.32846 16.9566 8.33885 17.0307C8.34184 17.0519 8.34178 17.0736 8.34196 17.0951C8.34234 17.151 8.34208 17.2068 8.34208 17.2647ZM11.8972 17.2644H11.802C11.802 17.2078 11.8022 17.1535 11.8019 17.0992C11.8018 17.0844 11.8019 17.0691 11.7985 17.0549C11.7932 17.0323 11.7797 17.0166 11.7541 17.0151C11.7303 17.0136 11.7094 17.021 11.7007 17.0432C11.6929 17.0626 11.6888 17.0845 11.6882 17.1055C11.6864 17.158 11.6876 17.2106 11.6876 17.2646H11.5942V16.9539H11.6847C11.6864 16.9639 11.6882 16.9748 11.6908 16.9903C11.7016 16.981 11.7103 16.9728 11.7197 16.9657C11.7573 16.937 11.7991 16.9325 11.8417 16.9504C11.8817 16.9672 11.8957 17.0035 11.8967 17.0431C11.8986 17.1157 11.8972 17.1884 11.8972 17.2644ZM14.3555 17.2645H14.2601C14.2601 17.2528 14.2601 17.2433 14.2601 17.2337C14.2601 17.1413 14.2601 17.0489 14.2601 16.9538H14.3525C14.3543 16.9642 14.3561 16.975 14.3583 16.9879C14.3627 16.986 14.3676 16.9855 14.37 16.9827C14.3906 16.9595 14.4152 16.9443 14.4468 16.9415C14.5156 16.9353 14.561 16.9699 14.5641 17.0386C14.5676 17.1127 14.5649 17.187 14.5649 17.264H14.4699C14.4699 17.243 14.47 17.2206 14.4699 17.1982C14.4697 17.1552 14.471 17.1121 14.4686 17.0691C14.4666 17.034 14.4498 17.0174 14.4216 17.0151C14.3927 17.0127 14.3725 17.0259 14.3628 17.0572C14.358 17.0726 14.3561 17.0895 14.3558 17.1058C14.3549 17.1571 14.3555 17.2084 14.3555 17.2645ZM10.259 16.9529H10.3488C10.3186 17.0577 10.289 17.1601 10.259 17.2645H10.1561C10.1401 17.2049 10.1238 17.1442 10.1076 17.0834C10.1029 17.0834 10.0983 17.0834 10.0937 17.0834C10.0772 17.1425 10.0608 17.2016 10.0436 17.2637H9.9411C9.91239 17.1635 9.88296 17.0606 9.85256 16.9543H9.95078C9.96502 17.0189 9.97973 17.0855 9.99447 17.1522C9.99832 17.1526 10.0022 17.153 10.006 17.1534C10.032 17.0892 10.0395 17.0189 10.0646 16.9528H10.1558C10.1729 17.0217 10.1898 17.0898 10.2068 17.1579C10.2105 17.1579 10.2142 17.1577 10.218 17.1577C10.2316 17.0898 10.2452 17.022 10.259 16.9529ZM10.8285 16.8038H10.925V16.9863C10.9607 16.9604 10.9888 16.9382 11.0287 16.9406C11.0805 16.9437 11.1127 16.9659 11.1267 17.0161C11.1306 17.0304 11.134 17.0453 11.1342 17.06C11.1349 17.1277 11.1345 17.1953 11.1345 17.2644H11.0345C11.0345 17.2111 11.0345 17.1599 11.0345 17.1088C11.0345 17.0939 11.0352 17.0788 11.0335 17.064C11.0302 17.0339 11.0168 17.0191 10.9923 17.0157C10.9637 17.0118 10.9383 17.026 10.9302 17.0538C10.9256 17.0694 10.9253 17.0865 10.9252 17.103C10.9246 17.1558 10.925 17.2087 10.925 17.2641H10.8285V16.8038ZM11.4009 16.8239H11.4944V17.2644H11.4009V16.8239ZM12.0728 16.953C12.0753 16.9655 12.0775 16.9763 12.0804 16.9907C12.1126 16.9532 12.1504 16.937 12.1968 16.9414C12.2356 16.945 12.2619 16.9646 12.2751 17.0006C12.2802 17.0145 12.2849 17.0294 12.2851 17.0439C12.2861 17.1165 12.2855 17.1891 12.2855 17.2643H12.1903C12.1903 17.2129 12.1908 17.1605 12.1901 17.1082C12.1899 17.0902 12.188 17.072 12.1847 17.0543C12.1803 17.0302 12.1648 17.0169 12.14 17.0152C12.1159 17.0136 12.0964 17.0228 12.0873 17.0447C12.0805 17.061 12.0769 17.0796 12.0764 17.0973C12.0751 17.1517 12.0759 17.2062 12.0759 17.2637H11.9834V16.953H12.0728ZM13.7823 16.9529H13.6922V17.2637H13.7823V16.9529ZM13.2656 17.1155C13.2393 17.1196 13.2178 17.1212 13.1973 17.1265C13.1646 17.1349 13.1507 17.1594 13.162 17.1847C13.1728 17.2092 13.2027 17.2178 13.2302 17.2031C13.2624 17.1859 13.2689 17.1567 13.2656 17.1155ZM12.5937 17.109C12.5928 17.1088 12.5919 17.1087 12.591 17.1085C12.591 17.1003 12.5917 17.092 12.5909 17.0838C12.5868 17.0412 12.565 17.0178 12.5271 17.0151C12.488 17.0124 12.4584 17.0304 12.4512 17.0705C12.4462 17.0987 12.4483 17.1297 12.4548 17.1577C12.4622 17.1904 12.4879 17.2041 12.5224 17.2032C12.5562 17.2023 12.5732 17.1905 12.5842 17.1569C12.5892 17.1415 12.5906 17.125 12.5937 17.109ZM7.8741 17.108C7.87093 17.092 7.86915 17.0772 7.86495 17.0632C7.85527 17.0308 7.83647 17.0166 7.80397 17.0149C7.77286 17.0133 7.74802 17.0244 7.7352 17.0536C7.71922 17.0899 7.71919 17.1276 7.73408 17.1643C7.74491 17.191 7.7707 17.2041 7.80278 17.2031C7.83259 17.2021 7.85382 17.1887 7.86288 17.1602C7.86835 17.1431 7.87057 17.125 7.8741 17.108ZM14.092 17.118C14.092 17.1003 14.0924 17.0937 14.0919 17.0871C14.0883 17.0432 14.0679 17.0192 14.0314 17.0154C13.9896 17.0111 13.9618 17.0285 13.9531 17.0726C13.9479 17.0989 13.9491 17.1282 13.9549 17.1545C13.9627 17.1897 13.9888 17.2045 14.0252 17.2029C14.0591 17.2015 14.0798 17.1853 14.0882 17.151C14.0917 17.1368 14.0916 17.1217 14.092 17.118ZM9.00227 17.0781C8.99945 17.0254 8.98832 17.0089 8.95606 17.0065C8.91796 17.0037 8.89789 17.0249 8.89025 17.0781H9.00227ZM10.4464 16.8017C10.4799 16.8018 10.5037 16.8224 10.5031 16.8507C10.5024 16.8791 10.4781 16.8989 10.4449 16.8981C10.4132 16.8974 10.3931 16.8797 10.3919 16.8513C10.3906 16.8211 10.4119 16.8017 10.4464 16.8017ZM13.7365 16.8981C13.7053 16.8978 13.6798 16.8748 13.6807 16.8477C13.6816 16.82 13.7068 16.8004 13.7399 16.8018C13.7705 16.803 13.7924 16.8227 13.7926 16.8491C13.7929 16.8778 13.7692 16.8984 13.7365 16.8981ZM11.4294 15.2926H11.7076V15.3461C11.7076 15.6299 11.7073 15.9137 11.7081 16.1975C11.7081 16.227 11.7115 16.2571 11.7183 16.2858C11.7366 16.3635 11.7891 16.409 11.8664 16.4211C11.9116 16.4282 11.9591 16.4298 12.0046 16.4248C12.1344 16.4109 12.1788 16.3247 12.1872 16.225C12.1889 16.2052 12.1887 16.1852 12.1887 16.1653C12.1888 15.8931 12.1888 15.621 12.1888 15.3488V15.2925H12.4637C12.4649 15.3064 12.4669 15.3189 12.4669 15.3314C12.4671 15.6135 12.4683 15.8957 12.4661 16.1778C12.4656 16.2403 12.4591 16.3041 12.4447 16.3648C12.4094 16.5133 12.3136 16.608 12.1654 16.6455C12.0161 16.6833 11.8657 16.6837 11.7169 16.6418C11.5555 16.5965 11.4679 16.4849 11.4402 16.324C11.4323 16.2785 11.43 16.2317 11.4298 16.1854C11.4289 15.9066 11.4294 15.6278 11.4294 15.349V15.2926ZM19.7728 15.9898C19.7759 16.0984 19.7657 16.217 19.7322 16.3327C19.681 16.5093 19.5669 16.6204 19.3841 16.6554C19.2535 16.6804 19.1224 16.6801 18.9934 16.6461C18.8416 16.6062 18.7439 16.5075 18.6937 16.3606C18.6613 16.2656 18.6482 16.1672 18.645 16.0676C18.6399 15.9165 18.6418 15.7657 18.6843 15.6187C18.7196 15.4966 18.782 15.3943 18.8975 15.3311C18.9658 15.2937 19.0399 15.2748 19.1164 15.269C19.211 15.2619 19.3056 15.2629 19.3991 15.2854C19.5515 15.3221 19.6553 15.4132 19.712 15.5579C19.7555 15.6689 19.7691 15.7856 19.7727 15.9037C19.7734 15.9286 19.7728 15.9535 19.7728 15.9898ZM10.2923 16.6081C10.3024 16.5343 10.3118 16.4656 10.3213 16.3967C10.4333 16.4072 10.5418 16.4196 10.6508 16.4267C10.7034 16.4302 10.7576 16.4298 10.8092 16.4208C10.9108 16.403 10.9563 16.3265 10.9395 16.2215C10.9335 16.1842 10.9062 16.1592 10.8739 16.1449C10.8209 16.1216 10.7657 16.1034 10.7114 16.083C10.6309 16.0528 10.5478 16.0277 10.4704 15.9908C10.3734 15.9446 10.3025 15.87 10.2851 15.7593C10.2711 15.6703 10.2724 15.5809 10.3071 15.4951C10.354 15.3791 10.4453 15.3172 10.5621 15.2856C10.6553 15.2605 10.7505 15.2607 10.8447 15.2692C10.9586 15.2795 11.0717 15.2985 11.1923 15.3148C11.1848 15.3908 11.1778 15.4621 11.1703 15.5372C11.11 15.5318 11.0541 15.5264 10.9982 15.5219C10.927 15.5162 10.8557 15.5072 10.7844 15.5073C10.7354 15.5073 10.6843 15.514 10.6379 15.5291C10.5691 15.5516 10.5389 15.6197 10.5587 15.685C10.5697 15.7217 10.5971 15.7436 10.6292 15.7579C10.6775 15.7795 10.7277 15.797 10.7772 15.8158C10.8624 15.8482 10.9492 15.8767 11.0324 15.9134C11.1617 15.9705 11.22 16.0747 11.22 16.2145C11.2201 16.278 11.217 16.3408 11.1961 16.401C11.1437 16.5527 11.0294 16.6306 10.877 16.6602C10.7693 16.6812 10.6614 16.6713 10.5542 16.6572C10.4818 16.6476 10.4101 16.6328 10.3382 16.6199C10.3237 16.6173 10.3096 16.6126 10.2923 16.6081ZM27.5694 16.6439V15.2519C27.657 15.2485 27.744 15.251 27.8355 15.2504V15.6724C27.8893 15.6577 27.9373 15.641 27.9867 15.6319C28.0818 15.6144 28.1753 15.6226 28.2643 15.663C28.3528 15.7032 28.399 15.7776 28.4261 15.8664C28.4574 15.9693 28.462 16.0754 28.4561 16.1814C28.4521 16.2538 28.4439 16.3267 28.4285 16.3974C28.3945 16.554 28.2887 16.6357 28.1342 16.6598C28.0284 16.6762 27.9221 16.6736 27.8158 16.6644C27.7563 16.6592 27.6966 16.6552 27.637 16.6505C27.6158 16.6488 27.5946 16.6464 27.5694 16.6439ZM29.9648 16.6507C29.9136 16.6494 29.8627 16.6475 29.8118 16.6468C29.7674 16.6461 29.723 16.6466 29.6759 16.6466V16.312H29.9648V16.6507ZM21.5185 16.642C21.6205 16.1897 21.7216 15.7415 21.8229 15.2921H22.3493C22.4508 15.742 22.5522 16.1915 22.6543 16.6444H22.3766C22.3582 16.5634 22.34 16.4835 22.3217 16.4031H21.8505C21.8328 16.4817 21.8151 16.5603 21.7975 16.6384C21.7625 16.6484 21.5927 16.651 21.5185 16.642ZM17.4278 15.2971C17.4347 15.2934 17.4361 15.292 17.4376 15.292C17.6371 15.2936 17.8367 15.2942 18.0362 15.2982C18.0754 15.2989 18.1149 15.3108 18.1533 15.321C18.3242 15.3663 18.4104 15.4859 18.4436 15.652C18.4689 15.7783 18.4662 15.9059 18.4646 16.0336C18.4634 16.1316 18.4533 16.2284 18.4273 16.3234C18.3793 16.4991 18.2619 16.5981 18.0855 16.6293C18.0253 16.6399 17.9635 16.6449 17.9022 16.6459C17.7625 16.6483 17.6226 16.6466 17.4828 16.6466H17.4278V15.2971ZM23.6528 15.9465C23.6806 15.966 23.7093 15.983 23.7341 16.0045C23.7874 16.0508 23.8074 16.1144 23.8158 16.1812C23.8245 16.2506 23.8224 16.3201 23.8041 16.3884C23.7675 16.5253 23.6722 16.5992 23.5396 16.629C23.4881 16.6406 23.4343 16.6452 23.3814 16.6459C23.2166 16.648 23.0517 16.6466 22.8868 16.6466H22.8349V15.2926C22.8511 15.2917 22.8657 15.2903 22.8804 15.2902C23.0519 15.2901 23.2234 15.2885 23.3949 15.2911C23.4492 15.2919 23.5045 15.2996 23.5574 15.3123C23.6894 15.3439 23.7676 15.4301 23.7857 15.5636C23.7937 15.6221 23.7917 15.6831 23.7855 15.7421C23.7772 15.8214 23.7368 15.8855 23.6705 15.932C23.6638 15.9367 23.6578 15.9423 23.6528 15.9465ZM25.1625 15.289H25.4301C25.4351 15.4121 25.4316 15.5341 25.4323 15.6559C25.4329 15.7804 25.4324 15.9048 25.4324 16.0293V16.4014H25.93V16.6462H25.1659C25.1565 16.6137 25.1526 15.3786 25.1625 15.289ZM20.4462 15.29H20.721V15.8848C20.7852 15.8777 20.8439 15.8711 20.9039 15.8644C20.9785 15.6727 21.0522 15.4831 21.1271 15.2908H21.4438C21.4199 15.346 21.3971 15.3988 21.3741 15.4515C21.3041 15.6124 21.2347 15.7735 21.1633 15.9337C21.1513 15.9609 21.1534 15.9827 21.165 16.0084C21.2535 16.2027 21.3409 16.3975 21.4285 16.5922C21.4358 16.6084 21.4421 16.6252 21.4501 16.6447H21.1309C21.0555 16.4664 20.9803 16.2885 20.904 16.108C20.8437 16.114 20.7862 16.1197 20.7239 16.1258V16.6433H20.4462V15.29ZM16.3211 15.5371V16.6436H16.0469V15.2928H16.5093C16.621 15.6642 16.7319 16.0329 16.843 16.4016C16.8432 16.402 16.8461 16.4016 16.8505 16.4016C16.8493 16.4017 16.8514 16.4021 16.8525 16.4013C16.8537 16.4005 16.854 16.3985 16.8546 16.3969C16.8552 16.3954 16.856 16.3938 16.8561 16.3923C16.8564 16.3856 16.8566 16.379 16.8566 16.3723C16.8571 16.0155 16.8575 15.6586 16.8581 15.3017C16.8581 15.3001 16.8591 15.2986 16.8608 15.2936H17.1326V16.6445H16.6785C16.6211 16.4581 16.5633 16.272 16.5065 16.0857C16.4504 15.9017 16.3956 15.7172 16.337 15.534C16.3317 15.535 16.3264 15.536 16.3211 15.5371ZM9.65372 16.6441H9.37339C9.36309 16.6101 9.36025 16.3923 9.36939 16.3164H9.65372V16.6441ZM7.56123 16.6436H7.28708V15.2901H7.33643C7.49448 15.2901 7.65252 15.2885 7.81051 15.2911C7.86314 15.2919 7.91681 15.2988 7.96794 15.3112C8.134 15.3518 8.22906 15.4612 8.25931 15.6269C8.27766 15.7272 8.27604 15.828 8.25203 15.9277C8.20934 16.1051 8.08501 16.2186 7.90284 16.2415C7.84044 16.2493 7.77694 16.2487 7.71389 16.2505C7.66445 16.2518 7.61493 16.2507 7.56123 16.2507V16.6436ZM14.7336 15.2889H14.4607V16.6433H14.7336V15.2889ZM12.7501 15.2919H13.2173C13.2949 15.6103 13.3727 15.9297 13.4506 16.249C13.4909 16.147 13.5114 16.0399 13.5381 15.9345C13.565 15.8287 13.5906 15.7224 13.6165 15.6163C13.6426 15.5089 13.6684 15.4014 13.6947 15.2925H14.1641V16.6433H13.8887V15.5995C13.8616 15.5934 13.8597 15.6089 13.8557 15.624C13.8331 15.7087 13.8101 15.7933 13.7873 15.8779C13.7265 16.1032 13.6659 16.3284 13.6051 16.5536C13.6026 16.5632 13.5986 16.5723 13.5943 16.5841H13.3162C13.2717 16.4197 13.227 16.2539 13.1819 16.0882C13.1371 15.9237 13.0953 15.7583 13.0474 15.5947C13.0428 15.5951 13.0382 15.5955 13.0337 15.5958C13.0305 15.6038 13.0251 15.6116 13.0245 15.6197C13.0232 15.6396 13.024 15.6595 13.024 15.6794V16.6431H12.7501V15.2919ZM28.6591 15.254H28.926V16.0406H28.9407C29.0073 16.0408 29.042 16.0042 29.0686 15.9454C29.1095 15.8551 29.1595 15.7689 29.2058 15.6809C29.2133 15.6666 29.2183 15.6503 29.2401 15.6504C29.3314 15.6509 29.4227 15.6506 29.5248 15.6506C29.4366 15.8114 29.3526 15.9645 29.2663 16.1219C29.3551 16.292 29.4451 16.4646 29.5376 16.6418H29.2326C29.1674 16.5166 29.1017 16.3905 29.0339 16.2604C29.0001 16.2651 28.9661 16.2699 28.9266 16.2753V16.643H28.6591V15.254ZM8.34196 15.5352V15.2951H9.33784V15.5338H8.98202V16.6425H8.70506V15.5352H8.34196ZM15.4771 15.2901H15.7398C15.7494 15.3242 15.7526 16.5695 15.7428 16.6423H15.4803C15.4703 16.6097 15.4668 15.3575 15.4771 15.2901ZM26.7839 15.534H26.4213V15.2954H27.4157V15.5329H27.0596V16.6421H26.7839V15.534ZM24.0525 15.2932H24.9272V15.5292H24.3304V15.8433H24.801C24.8123 15.8811 24.8144 16.0179 24.8052 16.0805H24.3307V16.4061H24.9278V16.6417H24.0525V15.2932ZM4.32734 16.2225C4.40182 16.2273 4.47405 16.2135 4.54622 16.2313C4.56703 16.2364 4.59035 16.2305 4.61217 16.2329C4.62949 16.2349 4.6476 16.2392 4.66303 16.247C4.73745 16.2846 4.73975 16.3584 4.66892 16.4035C4.6648 16.4061 4.66158 16.41 4.65607 16.4151C4.67226 16.4254 4.68768 16.4349 4.70278 16.4448C4.77016 16.4891 4.75308 16.5629 4.69434 16.5994C4.66776 16.616 4.6341 16.628 4.60311 16.6294C4.51208 16.6332 4.42079 16.6307 4.32734 16.6307V16.2225ZM4.28826 16.6291H4.18258C4.17456 16.6124 4.16325 16.596 4.15872 16.578C4.14848 16.5369 4.11968 16.5296 4.08386 16.5312C4.03957 16.5331 3.99523 16.5367 3.951 16.5354C3.93626 16.535 3.93043 16.5386 3.92534 16.5496C3.91317 16.5756 3.90109 16.6016 3.88822 16.6293H3.78517C3.85207 16.4925 3.91782 16.3581 3.98244 16.226C4.08256 16.2165 4.0827 16.2164 4.12246 16.2961C4.17666 16.4047 4.23063 16.5133 4.28826 16.6291ZM3.416 16.2225V16.4098C3.45253 16.3796 3.48273 16.3559 3.51165 16.3307C3.54767 16.2993 3.58204 16.2661 3.61851 16.2353C3.62748 16.2278 3.64178 16.2238 3.65389 16.2232C3.68535 16.2215 3.71697 16.2226 3.76001 16.2226C3.69432 16.2782 3.63571 16.3278 3.57183 16.3818C3.63559 16.462 3.69989 16.5429 3.76803 16.6286H3.64243C3.59681 16.5661 3.55013 16.5022 3.50209 16.4364C3.47322 16.4592 3.44821 16.4773 3.42571 16.498C3.41873 16.5045 3.41636 16.5183 3.41594 16.5289C3.4147 16.5603 3.4155 16.5918 3.4155 16.627H3.31935V16.2225H3.416ZM5.67234 16.5743V16.6284H5.32082V16.2353H5.41412V16.2824C5.41412 16.3653 5.41383 16.4481 5.41427 16.531C5.41442 16.5626 5.41528 16.5613 5.45213 16.5656C5.5159 16.5729 5.57927 16.5767 5.64289 16.5636C5.65088 16.562 5.66086 16.5699 5.67234 16.5743ZM4.94235 16.29C4.93942 16.3147 4.93471 16.334 4.93554 16.353C4.93643 16.3727 4.93691 16.3876 4.97056 16.3875C5.03501 16.3873 5.0993 16.3983 5.16378 16.3839C5.18035 16.3802 5.19323 16.3879 5.19397 16.4073C5.19447 16.4203 5.19409 16.4333 5.19409 16.45H4.95174C4.92572 16.4826 4.93554 16.5166 4.93534 16.5485C4.93519 16.5674 4.95058 16.5713 4.96728 16.5711C5.04202 16.5703 5.11674 16.5697 5.19148 16.5693C5.20161 16.5693 5.21173 16.5711 5.22289 16.5722V16.6276H4.84795V16.226H5.21081V16.29H4.94235ZM4.42659 16.5737C4.4868 16.5693 4.54417 16.5677 4.60059 16.5596C4.61652 16.5573 4.63606 16.5384 4.64216 16.5227C4.64722 16.5096 4.63976 16.4851 4.62904 16.4744C4.61649 16.4619 4.59473 16.4535 4.57641 16.4525C4.52721 16.4495 4.47772 16.4515 4.42659 16.4515V16.5737ZM4.03117 16.3144C4.0058 16.3715 3.98475 16.4189 3.96287 16.4682H4.10855C4.08276 16.417 4.05929 16.3703 4.03117 16.3144ZM19.4947 15.9753C19.4929 15.9751 19.4912 15.9749 19.4894 15.9746C19.4868 15.9217 19.4881 15.8681 19.4804 15.8159C19.4721 15.759 19.4602 15.7016 19.4411 15.6475C19.4151 15.5737 19.3593 15.5294 19.281 15.5134C19.2328 15.5035 19.1856 15.5043 19.1376 15.5135C19.0655 15.5273 19.0111 15.565 18.983 15.6327C18.9654 15.675 18.9517 15.72 18.9439 15.7652C18.9233 15.8851 18.9261 16.0064 18.9362 16.1269C18.941 16.1838 18.9551 16.2416 18.9747 16.2954C19.0073 16.3849 19.0817 16.4233 19.1728 16.4294C19.2689 16.436 19.3615 16.425 19.4206 16.3359C19.4403 16.3062 19.4563 16.2707 19.4621 16.236C19.4766 16.1497 19.4842 16.0623 19.4947 15.9753ZM27.8402 16.4248C27.8949 16.4265 27.9478 16.4321 28.0003 16.429C28.0997 16.4232 28.1563 16.3767 28.1717 16.2808C28.1823 16.2144 28.1836 16.1456 28.1808 16.0782C28.179 16.0346 28.1666 15.9901 28.1514 15.9487C28.1321 15.8956 28.088 15.8688 28.032 15.8655C27.967 15.8617 27.9039 15.8747 27.8402 15.8916V16.4248ZM23.1102 16.0831C23.1102 16.1413 23.11 16.1943 23.1102 16.2473C23.1104 16.3012 23.1093 16.3553 23.111 16.41C23.2079 16.41 23.2978 16.412 23.3876 16.4095C23.4882 16.4068 23.5355 16.3568 23.5382 16.2564C23.5384 16.2481 23.5386 16.2397 23.5382 16.2315C23.5333 16.1447 23.4814 16.0878 23.3939 16.084C23.3012 16.08 23.2081 16.0831 23.1102 16.0831ZM17.7062 16.4103C17.793 16.4071 17.8743 16.4067 17.9552 16.4005C18.0183 16.3956 18.074 16.3707 18.1134 16.3178C18.1407 16.2812 18.1555 16.2392 18.1634 16.1949C18.1846 16.0768 18.1827 15.9574 18.1779 15.8384C18.1758 15.7844 18.1669 15.7298 18.1544 15.6771C18.1376 15.6069 18.0899 15.5619 18.0192 15.5462C17.979 15.5373 17.9373 15.5325 17.8962 15.5309C17.8335 15.5284 17.7707 15.5302 17.7062 15.5302V16.4103ZM4.42621 16.3966C4.48396 16.3914 4.53654 16.3896 4.58792 16.381C4.61987 16.3756 4.62508 16.3609 4.62522 16.3328C4.62537 16.3032 4.60196 16.2948 4.58319 16.2935C4.53097 16.29 4.47834 16.2923 4.42621 16.2923V16.3966ZM22.0394 15.5185C21.9935 15.7339 21.9482 15.9464 21.9029 16.1588H22.2696C22.2235 15.9431 22.1782 15.7314 22.1327 15.5185H22.0394ZM4.72214 16.0628C4.69722 16.0143 4.69899 16.0045 4.74035 15.9723C4.76663 15.9519 4.75029 15.9193 4.76394 15.895C4.7682 15.8874 4.76462 15.8754 4.76462 15.8655C4.76465 15.7262 4.76548 15.587 4.76418 15.4477C4.76373 15.3969 4.75846 15.3462 4.75461 15.2955C4.75405 15.2879 4.75112 15.2759 4.74624 15.2741C4.70559 15.259 4.71527 15.2256 4.71545 15.1885C4.73372 15.1847 4.75334 15.1775 4.77315 15.1771C4.83797 15.1756 4.90286 15.1765 4.96772 15.1765C4.97435 15.1765 4.98152 15.175 4.98758 15.1769C5.00564 15.1827 5.02728 15.1841 5.03376 15.2074C5.04004 15.2302 5.02953 15.2545 5.00703 15.269C5.00037 15.2733 4.9933 15.277 4.98442 15.2821V15.4749C4.98442 15.6258 4.98442 15.7767 4.98445 15.9276C4.98445 15.9472 4.98205 15.9649 5.00783 15.9755C5.03131 15.985 5.03074 16.0115 5.02758 16.0337C5.02364 16.0613 5.00298 16.0634 4.9795 16.0632C4.89472 16.0624 4.80991 16.0628 4.72214 16.0628ZM3.65619 15.7668C3.71963 15.7623 3.777 15.7581 3.83437 15.7543C3.85604 15.7528 3.86794 15.7581 3.87691 15.7834C3.90681 15.8677 3.96542 15.903 4.06429 15.9144C4.10147 15.9187 4.13759 15.9134 4.1742 15.9136C4.22595 15.9138 4.2694 15.8943 4.30602 15.8585C4.36135 15.8043 4.3472 15.7378 4.27198 15.7152C4.20392 15.6948 4.13418 15.6795 4.06456 15.6648C3.98685 15.6484 3.90858 15.633 3.83656 15.5993C3.77523 15.5707 3.72375 15.5294 3.70359 15.4594C3.67911 15.3743 3.70249 15.2999 3.76975 15.2499C3.84586 15.1934 3.93377 15.1662 4.02948 15.1665C4.07939 15.1666 4.1293 15.1662 4.17924 15.1666C4.28373 15.1676 4.3776 15.1991 4.45844 15.2659C4.49509 15.2961 4.51191 15.3391 4.52384 15.3828C4.53212 15.4131 4.52025 15.4246 4.48731 15.4251C4.42914 15.4258 4.37094 15.4253 4.31419 15.4253C4.31058 15.4219 4.30733 15.4202 4.30638 15.4176C4.27503 15.3345 4.21432 15.2988 4.12649 15.3057C4.0774 15.3096 4.02758 15.3088 3.97939 15.3174C3.95281 15.3222 3.92226 15.3312 3.91018 15.3644C3.89793 15.3981 3.90598 15.4326 3.93981 15.446C3.9891 15.4656 4.04014 15.4819 4.09167 15.4946C4.18276 15.517 4.27704 15.529 4.36573 15.5582C4.43373 15.5806 4.49858 15.6148 4.53609 15.687C4.59414 15.7987 4.54838 15.912 4.46688 15.9722C4.39486 16.0254 4.31144 16.0506 4.22118 16.0533C4.18027 16.0546 4.13895 16.0652 4.09869 16.0617C3.9968 16.0527 3.89212 16.0511 3.80131 15.9941C3.72928 15.9489 3.67988 15.8854 3.65661 15.8031C3.65365 15.7926 3.65619 15.7806 3.65619 15.7668ZM7.56277 16.0132C7.64764 16.0132 7.72736 16.0154 7.8069 16.0126C7.89053 16.0096 7.94751 15.965 7.97128 15.885C7.99378 15.8093 7.99461 15.7322 7.97528 15.6552C7.95823 15.5874 7.91554 15.546 7.84657 15.5334C7.7529 15.5163 7.65865 15.5287 7.56277 15.5252V16.0132ZM23.1114 15.8448C23.2075 15.8448 23.2985 15.8474 23.3893 15.8439C23.4482 15.8416 23.4899 15.8081 23.5011 15.749C23.508 15.7123 23.5108 15.673 23.5056 15.6363C23.4973 15.5791 23.4624 15.5407 23.4021 15.5315C23.3794 15.528 23.3561 15.5257 23.3331 15.5254C23.2717 15.5246 23.2103 15.5249 23.1489 15.5253C23.1363 15.5253 23.1238 15.5272 23.1114 15.5282V15.8448Z" fill="#0104FB"/>
</g>
</g>
<defs>
<clipPath id="clip0_2707_332943">
<rect width="32" height="32" fill="white"/>
</clipPath>
</defs>
</svg>
