<svg width="32" height="32" viewBox="0 0 32 32" fill="none" xmlns="http://www.w3.org/2000/svg">
<g clip-path="url(#clip0_2707_332288)">
<path d="M16 32C24.8366 32 32 24.8366 32 16C32 7.16344 24.8366 0 16 0C7.16344 0 0 7.16344 0 16C0 24.8366 7.16344 32 16 32Z" fill="white"/>
<path d="M15.9998 29.3334C23.3636 29.3334 29.3332 23.3638 29.3332 16C29.3332 8.63622 23.3636 2.66669 15.9998 2.66669C8.63604 2.66669 2.6665 8.63622 2.6665 16C2.6665 23.3638 8.63604 29.3334 15.9998 29.3334Z" fill="white"/>
<path d="M4.61349 14.2133H2.94238V17.9555H4.61349V14.2133Z" fill="#98AABE"/>
<path d="M7.44898 14.2133V15.6355L6.40009 14.2133H4.81787V17.9555H6.40009V16.4444L7.44898 17.9555H9.04009V14.2133H7.44898Z" fill="#98AABE"/>
<path d="M14.2845 14.2222L12.969 15.5467C12.8531 15.1649 12.6179 14.8303 12.298 14.592C11.978 14.3536 11.5901 14.224 11.1912 14.2222H9.29785V17.9556H12.9245L15.0134 15.6711V16.6756L14.2756 16.5511L15.0401 17.9645H16.6134V14.2222H14.2845ZM10.8712 16.7645V15.4311H10.9423C11.031 15.4311 11.1189 15.4486 11.2008 15.4825C11.2828 15.5165 11.3573 15.5663 11.42 15.629C11.4827 15.6917 11.5325 15.7662 11.5664 15.8481C11.6004 15.9301 11.6179 16.018 11.6179 16.1067C11.6179 16.1954 11.6004 16.2832 11.5664 16.3652C11.5325 16.4472 11.4827 16.5216 11.42 16.5844C11.3573 16.6471 11.2828 16.6969 11.2008 16.7308C11.1189 16.7648 11.031 16.7822 10.9423 16.7822L10.8712 16.7645Z" fill="#98AABE"/>
<path d="M18.5601 16.6755V14.2133H16.9868V17.9555H18.0979H18.169H18.5601H18.969L19.8135 16.6755H18.5601Z" fill="#98AABE"/>
<path d="M25.7513 15.6622L24.8269 14.2133H23.0135L24.018 15.6622H21.6446V15.2267H23.2891L22.6491 14.2133H21.6446H21.298H20.0269V17.9555H21.6446H22.6491L23.2891 16.9422H21.6446V16.6755H23.9024L23.0135 17.9555H24.8269L25.7513 16.5067L26.0002 16.0889L25.7513 15.6622Z" fill="#98AABE"/>
<path d="M29.0843 14.2133H27.2799L26.3554 15.6622L26.0977 16.0889L26.3554 16.5067L27.2799 17.9555H29.0843L27.8221 16.0889L29.0843 14.2133Z" fill="#D02716"/>
</g>
<defs>
<clipPath id="clip0_2707_332288">
<rect width="32" height="32" fill="white"/>
</clipPath>
</defs>
</svg>
