<svg width="32" height="32" viewBox="0 0 32 32" fill="none" xmlns="http://www.w3.org/2000/svg">
<g clip-path="url(#clip0_2707_331438)">
<path d="M16 32C24.8366 32 32 24.8366 32 16C32 7.16344 24.8366 0 16 0C7.16344 0 0 7.16344 0 16C0 24.8366 7.16344 32 16 32Z" fill="white"/>
<path d="M15.9998 29.3333C23.3636 29.3333 29.3332 23.3638 29.3332 16C29.3332 8.63621 23.3636 2.66667 15.9998 2.66667C8.63604 2.66667 2.6665 8.63621 2.6665 16C2.6665 23.3638 8.63604 29.3333 15.9998 29.3333Z" fill="white"/>
<path d="M8.29352 21.52C8.55949 21.6205 8.83735 21.6863 9.12018 21.7156H9.32463H9.94685C10.4876 21.6883 11.0254 21.62 11.5557 21.5111C12.0819 21.4021 12.6013 21.2626 13.1113 21.0933C13.618 20.9333 14.1157 20.7467 14.6135 20.5511C15.1113 20.3556 15.5913 20.1422 16.0713 19.9111C16.5513 19.68 17.0224 19.4489 17.4846 19.1822C17.0135 19.4222 16.5246 19.6356 16.0357 19.84C15.5469 20.0444 15.058 20.2311 14.5513 20.4C14.0446 20.5689 13.5468 20.7289 13.0402 20.8711C12.5336 21.0071 12.0203 21.1168 11.5024 21.2C10.9883 21.2874 10.4683 21.3349 9.94685 21.3422H9.56463H9.37796H9.19129C8.95014 21.3013 8.71451 21.2327 8.48907 21.1378C8.48907 21.1378 7.11129 20.6755 7.65352 18.7111H6.60463C6.55693 19.1941 6.61145 19.6817 6.76463 20.1422C6.91549 20.4617 7.12833 20.748 7.3908 20.9845C7.65326 21.2211 7.96011 21.4031 8.29352 21.52Z" fill="#ACB8BF"/>
<path d="M22.6047 10.4622C22.3404 10.3547 22.062 10.2859 21.778 10.2578H21.5647H20.9425C20.4041 10.2949 19.8693 10.3722 19.3425 10.4889C18.8199 10.601 18.3037 10.7404 17.7958 10.9067C17.2891 11.0667 16.7914 11.2533 16.2936 11.4489C15.7958 11.6444 15.3158 11.8667 14.8358 12.0889C14.3558 12.3111 13.8847 12.56 13.4136 12.8178C13.8936 12.5778 14.3736 12.3644 14.8625 12.16C15.3514 11.9556 15.8491 11.7689 16.3469 11.6C16.8447 11.4311 17.3514 11.2711 17.858 11.1378C18.3675 10.9989 18.8837 10.8862 19.4047 10.8C19.919 10.7156 20.4391 10.671 20.9602 10.6667H21.5291H21.7158C21.9573 10.7107 22.1929 10.7823 22.418 10.88C22.418 10.88 23.7602 11.2889 23.2447 13.2444H24.2936C24.3413 12.7615 24.2868 12.2739 24.1336 11.8133C23.8232 11.1781 23.2733 10.6921 22.6047 10.4622Z" fill="#ACB8BF"/>
<path d="M19.76 18.3911V18.4533H18.8711L18.7467 18.7378H19.6356V18.8H18.6667L18.5333 19.1111H19.4222V19.1733H18.3467L18.6933 18.3911H19.76Z" fill="#231F20"/>
<path d="M20.3021 18.3911L20.9421 19.0933L21.2443 18.3911H21.3865L21.0399 19.1733H20.871L20.2399 18.4711L19.9465 19.1733H19.7954L20.1421 18.3911H20.3021Z" fill="#231F20"/>
<path d="M22.9509 18.3911V18.4533H22.062L21.9376 18.7378H22.8265V18.8H21.9376L21.8043 19.1111H22.6932V19.1733H21.5376L21.8843 18.3911H22.9509Z" fill="#231F20"/>
<path d="M25.8845 18.4889C25.6745 18.4358 25.4545 18.4358 25.2445 18.4889C25.1663 18.5112 25.0915 18.5441 25.0223 18.5867C24.9742 18.6068 24.9293 18.6337 24.889 18.6667C24.8599 18.715 24.8446 18.7703 24.8445 18.8267C24.8365 18.8618 24.8365 18.8982 24.8445 18.9333C24.8727 18.9675 24.9056 18.9974 24.9423 19.0222C24.9952 19.0493 25.0523 19.0673 25.1112 19.0755H25.3334C25.4132 19.0843 25.4936 19.0843 25.5734 19.0755C25.6377 19.0661 25.7005 19.0481 25.7601 19.0222C25.809 19 25.854 18.97 25.8934 18.9333C25.9281 18.9028 25.9529 18.8625 25.9645 18.8178H25.4223V18.7555H26.1067L25.9378 19.1467H25.8667V19.0222C25.7926 19.0756 25.7076 19.112 25.6178 19.1289C25.4185 19.1701 25.2128 19.1701 25.0134 19.1289C24.9418 19.1217 24.8724 19.1005 24.809 19.0667C24.7616 19.0386 24.7194 19.0025 24.6845 18.96C24.6703 18.9167 24.6703 18.87 24.6845 18.8267C24.6843 18.7634 24.7029 18.7016 24.7378 18.6489C24.7771 18.5831 24.8321 18.5281 24.8978 18.4889C24.9824 18.4367 25.0758 18.4005 25.1734 18.3822C25.2972 18.3648 25.4229 18.3648 25.5467 18.3822C25.7068 18.3762 25.8666 18.4003 26.0178 18.4533C26.061 18.4648 26.1 18.4885 26.1299 18.5216C26.1599 18.5548 26.1796 18.5959 26.1867 18.64H26.0267C26.0178 18.5689 25.9734 18.5155 25.8845 18.4889Z" fill="#231F20"/>
<path d="M27.9377 18.3911L27.1377 18.8622L27.0044 19.1733H26.8444L26.9955 18.8533L26.5688 18.3911H26.7288L27.0844 18.7911L27.76 18.3911H27.9377Z" fill="#231F20"/>
<path d="M4.7822 14.6311H4.08887V17.6089H4.7822V14.6311Z" fill="#034693"/>
<path d="M16.9067 14.6311H16.2134V17.6089H16.9067V14.6311Z" fill="#034693"/>
<path d="M9.23567 14.6311V16.64L6.92456 14.6311H6.33789V17.6178H6.92456V15.6089L9.23567 17.6178H9.83122V14.6311H9.23567Z" fill="#034693"/>
<path d="M13.3335 14.64H11.2891V17.6089H13.3335C13.5394 17.6392 13.7496 17.6225 13.9482 17.56C14.1467 17.4975 14.3285 17.3908 14.4799 17.248C14.6313 17.1051 14.7484 16.9298 14.8224 16.7352C14.8963 16.5406 14.9252 16.3318 14.9068 16.1244C14.9252 15.9171 14.8963 15.7083 14.8224 15.5137C14.7484 15.3191 14.6313 15.1438 14.4799 15.0009C14.3285 14.8581 14.1467 14.7514 13.9482 14.6889C13.7496 14.6264 13.5394 14.6096 13.3335 14.64ZM13.2535 17.0756H12.0357V15.1733H13.2713C13.5235 15.1733 13.7655 15.2735 13.9438 15.4519C14.1222 15.6303 14.2224 15.8722 14.2224 16.1244C14.2224 16.3767 14.1222 16.6186 13.9438 16.797C13.7655 16.9754 13.5235 17.0756 13.2713 17.0756H13.2535Z" fill="#034693"/>
<path d="M22.0091 17.6178L19.7868 16.0444L21.7513 14.6311H20.7913L19.1557 15.8489V14.6311H18.4624V17.6178H19.1557V16.3555L20.9602 17.6178H22.0091Z" fill="#034693"/>
<path d="M24.5599 14.6311H23.9288L22.2222 17.6178H22.9244L23.2977 16.9333H25.1644L25.5288 17.6178H26.2755L24.5599 14.6311ZM23.5466 16.4089L24.2311 15.2267L24.8888 16.4267L23.5466 16.4089Z" fill="#034693"/>
</g>
<defs>
<clipPath id="clip0_2707_331438">
<rect width="32" height="32" fill="white"/>
</clipPath>
</defs>
</svg>
