<svg width="32" height="32" viewBox="0 0 32 32" fill="none" xmlns="http://www.w3.org/2000/svg">
<g clip-path="url(#clip0_2707_330423)">
<path d="M15.9998 31.9823C24.8265 31.9823 31.982 24.8268 31.982 16C31.982 7.17331 24.8265 0.0178223 15.9998 0.0178223C7.17306 0.0178223 0.0175781 7.17331 0.0175781 16C0.0175781 24.8268 7.17306 31.9823 15.9998 31.9823Z" fill="white"/>
<path d="M15.9998 22.4445C15.3864 23.5734 14.8087 24.5779 14.2931 25.609C14.1241 26.0033 13.8363 26.3351 13.4699 26.5581C13.1034 26.7812 12.6765 26.8844 12.2487 26.8534C11.2176 26.8534 10.1864 26.8534 9.15533 26.8534C8.72629 26.8812 8.29836 26.7843 7.92305 26.5746C7.54773 26.3649 7.24101 26.0511 7.03978 25.6712C5.902 23.7512 4.82348 21.8134 3.80422 19.8579C3.64223 19.5478 3.55762 19.2032 3.55762 18.8534C3.55762 18.5036 3.64223 18.159 3.80422 17.849C4.44422 16.6223 5.05756 15.3956 5.73311 14.2223C5.92602 13.9581 6.18324 13.7475 6.48038 13.6106C6.77751 13.4737 7.1047 13.415 7.43089 13.4401C8.31978 13.4401 9.27089 13.4401 10.1864 13.4401H10.9331L10.6664 12.8534L9.14645 10.0179C8.95176 9.68802 8.84906 9.312 8.84906 8.92898C8.84906 8.54596 8.95176 8.16994 9.14645 7.84009C9.60867 7.00453 10.0353 6.14231 10.5242 5.30676C10.7333 4.90699 11.0492 4.57313 11.4369 4.34242C11.8246 4.1117 12.2687 3.99319 12.7198 4.00009H19.2442C19.6484 3.97518 20.0509 4.07086 20.4006 4.275C20.7504 4.47915 21.0316 4.78256 21.2087 5.14676C21.7242 6.16009 22.2664 7.16453 22.8087 8.16898C22.957 8.43342 23.0289 8.73389 23.0163 9.03684C23.0038 9.33978 22.9073 9.63327 22.7376 9.88453C22.2042 10.8179 21.7064 11.769 21.1909 12.7112C21.0842 12.9245 20.9776 13.1379 20.8264 13.4223H21.4131C22.382 13.4223 23.3509 13.4223 24.3109 13.4223C24.7549 13.3571 25.2078 13.446 25.5943 13.674C25.9809 13.902 26.2776 14.2555 26.4353 14.6756C26.9064 15.7068 27.502 16.6934 28.062 17.6801C28.2907 18.0385 28.4122 18.4549 28.4122 18.8801C28.4122 19.3053 28.2907 19.7216 28.062 20.0801C27.0576 21.8579 26.0976 23.6979 25.1553 25.529C24.9777 25.9426 24.6742 26.2897 24.2881 26.5211C23.9019 26.7524 23.4527 26.8563 23.0042 26.8179C21.7953 26.8179 20.5776 26.8179 19.3687 26.8179C19.0494 26.8481 18.7285 26.779 18.4501 26.6199C18.1716 26.4607 17.9491 26.2194 17.8131 25.929C17.262 24.7468 16.6398 23.6623 15.9998 22.4445ZM7.27978 14.6579C7.25505 14.9238 7.28607 15.192 7.37086 15.4452C7.45565 15.6985 7.59235 15.9312 7.77221 16.1287C7.95207 16.3261 8.17114 16.4838 8.41542 16.5918C8.6597 16.6997 8.92382 16.7556 9.19089 16.7556L17.8664 16.7023C20.2664 16.7023 22.6664 16.7023 25.0664 16.7468C25.2014 16.7652 25.3383 16.7312 25.4491 16.6519C25.5598 16.5725 25.636 16.4538 25.662 16.3201C25.502 16.0623 25.3064 15.7601 25.1464 15.4312C24.9852 15.1063 24.7285 14.8386 24.4107 14.6638C24.093 14.489 23.7294 14.4156 23.3687 14.4534C18.4798 14.4534 13.5909 14.4534 8.702 14.4534C8.39089 14.4534 8.07089 14.4534 7.75978 14.4534C7.59119 14.4993 7.42968 14.5681 7.27978 14.6579ZM16.5331 18.4001C16.359 18.244 16.1536 18.1268 15.9307 18.0564C15.7077 17.9859 15.4722 17.9639 15.2401 17.9916C15.0079 18.0194 14.7843 18.0963 14.5842 18.2174C14.3841 18.3384 14.2122 18.5007 14.0798 18.6934C12.9064 20.7023 11.7776 22.729 10.6309 24.7379C10.653 24.8879 10.7315 25.0239 10.8504 25.1181C10.9694 25.2122 11.1198 25.2575 11.2709 25.2445C11.6176 25.2445 11.9909 25.2445 12.3464 25.2445C12.5164 25.2393 12.6812 25.1854 12.8214 25.0893C12.9616 24.9932 13.0713 24.8589 13.1376 24.7023C13.3331 24.329 13.5464 23.9556 13.742 23.5823L16.5331 18.4001ZM20.6487 7.37787C20.5132 6.8367 20.2748 6.32668 19.9464 5.87565C19.8699 5.70825 19.7433 5.56876 19.584 5.47641C19.4248 5.38406 19.2409 5.34342 19.0576 5.36009C16.9776 5.36009 14.8887 5.36009 12.8353 5.36009C12.6199 5.37222 12.4059 5.40195 12.1953 5.44898C11.9642 6.40009 12.6664 6.8712 13.0309 7.50231H20.1953C20.3498 7.47426 20.5015 7.43261 20.6487 7.37787ZM21.5376 25.2712C21.9198 25.2712 22.3464 25.2712 22.7642 25.2712C22.9651 25.3003 23.17 25.2597 23.3446 25.1562C23.5193 25.0527 23.6532 24.8925 23.7242 24.7023C24.0176 24.1423 24.3287 23.609 24.6131 23.0579C25.3242 21.7956 26.0324 20.5305 26.7376 19.2623C26.8087 19.1688 26.8556 19.0591 26.874 18.943C26.8925 18.827 26.8818 18.7081 26.8431 18.5972C26.8043 18.4862 26.7387 18.3866 26.652 18.3072C26.5653 18.2279 26.4604 18.1712 26.3464 18.1423C26.0088 18.0335 25.6432 18.05 25.3167 18.1888C24.9902 18.3275 24.7247 18.5793 24.5687 18.8979C24.2664 19.4223 23.9731 19.9468 23.6798 20.4712L21.422 24.4268C21.2087 24.7379 21.102 25.0045 21.502 25.2712H21.5376ZM9.982 23.2001C8.88867 21.2356 7.83978 19.2623 6.76422 17.3068C6.66645 17.1201 6.41756 17.0223 6.23089 16.8801C5.82248 17.2529 5.51645 17.7242 5.342 18.249C5.24623 18.4266 5.19984 18.6267 5.20766 18.8284C5.21548 19.0301 5.27721 19.2259 5.38645 19.3956C6.27533 21.0668 7.16422 22.7379 8.10645 24.4001C8.16559 24.5486 8.25681 24.6821 8.3736 24.7912C8.49039 24.9003 8.62985 24.9823 8.782 25.0312C9.34217 24.5473 9.74978 23.9112 9.95533 23.2001H9.982ZM11.2887 7.20009L11.0398 7.31564C10.7553 7.78676 10.4442 8.25787 10.1509 8.74676C10.1093 8.84521 10.0879 8.951 10.0879 9.05787C10.0879 9.16474 10.1093 9.27052 10.1509 9.36898C10.7909 10.5423 11.4398 11.7156 12.1242 12.8623C12.2823 13.1003 12.523 13.2713 12.7998 13.3423C13.1977 13.4001 13.6019 13.4001 13.9998 13.3423C14.1767 13.2903 14.3425 13.2059 14.4887 13.0934C14.4795 13.003 14.4616 12.9137 14.4353 12.8268L11.5553 7.69787C11.4309 7.55564 11.342 7.39564 11.262 7.24453L11.2887 7.20009ZM21.662 8.97787C21.262 8.51565 20.7731 8.68453 20.3553 8.64009C20.131 8.61115 19.9032 8.65192 19.7029 8.75687C19.5025 8.86182 19.3393 9.02587 19.2353 9.22676C18.5598 10.329 17.8664 11.4312 17.1998 12.5423C16.9509 12.969 17.1198 13.289 17.6176 13.3245C18.1153 13.3601 18.3376 13.3245 18.6931 13.3245C18.853 13.325 19.0101 13.2823 19.1477 13.2009C19.2854 13.1196 19.3986 13.0026 19.4753 12.8623C20.1776 11.6712 20.8976 10.3823 21.6353 9.06676L21.662 8.97787ZM17.5998 19.2801C17.4309 19.6356 17.2353 20.0534 17.022 20.4623C16.9106 20.6574 16.8557 20.8797 16.8635 21.1042C16.8714 21.3287 16.9417 21.5466 17.0664 21.7334C17.5464 22.5601 17.9998 23.4045 18.4887 24.2312C18.6553 24.4558 18.8428 24.6641 19.0487 24.8534C19.4216 24.5338 19.7243 24.1403 19.9376 23.6979C20.0589 23.5097 20.1234 23.2906 20.1234 23.0668C20.1234 22.8429 20.0589 22.6238 19.9376 22.4356L18.3731 19.6268C18.3118 19.4757 18.1936 19.3547 18.044 19.2899C17.8944 19.225 17.7253 19.2215 17.5731 19.2801H17.5998ZM15.742 12.489L17.8309 9.25342C17.7153 8.83564 17.5109 8.72009 17.1998 8.72898H14.5864C14.4145 8.70617 14.2405 8.75222 14.1023 8.85711C13.9641 8.96199 13.8729 9.11721 13.8487 9.28898L15.742 12.489ZM21.1998 21.7779C21.8398 20.7023 22.4442 19.7156 22.9776 18.7112C23.2087 18.3023 23.0309 18.0268 22.5509 18.0179C21.662 18.0179 20.7731 18.0179 19.8842 18.0179C19.8064 18.0118 19.7282 18.0214 19.6542 18.0459C19.5801 18.0705 19.5117 18.1096 19.4529 18.1609C19.3942 18.2122 19.3462 18.2747 19.3119 18.3448C19.2776 18.4149 19.2576 18.4911 19.2531 18.569L21.1998 21.7779ZM12.7109 18.5423C12.6398 18.1779 12.4798 18.009 12.1509 18.009H9.59089C9.28867 18.009 9.08422 18.1423 8.942 18.5334L10.8264 21.7779L12.7109 18.5423Z" fill="#FB0405"/>
</g>
<defs>
<clipPath id="clip0_2707_330423">
<rect width="32" height="32" fill="white"/>
</clipPath>
</defs>
</svg>
