<svg width="32" height="32" viewBox="0 0 32 32" fill="none" xmlns="http://www.w3.org/2000/svg">
<g clip-path="url(#clip0_2707_330248)">
<path d="M15.9998 31.9823C24.8265 31.9823 31.982 24.8268 31.982 16C31.982 7.17331 24.8265 0.0178223 15.9998 0.0178223C7.17306 0.0178223 0.0175781 7.17331 0.0175781 16C0.0175781 24.8268 7.17306 31.9823 15.9998 31.9823Z" fill="white"/>
<path d="M15.9996 29.3334C15.7151 29.3334 15.4662 29.3334 15.2173 29.3334C14.4081 29.283 13.605 29.161 12.8173 28.969C11.9259 28.7657 11.0587 28.4677 10.2307 28.0801C9.19703 27.5845 8.23196 26.957 7.35956 26.2134C7.02105 25.8999 6.70054 25.5675 6.39956 25.2178C5.89421 24.6878 5.43339 24.1169 5.02178 23.5112C4.6769 23.0044 4.36514 22.4759 4.08845 21.929C3.65182 21.0663 3.31484 20.1567 3.084 19.2178C2.96868 18.7731 2.87963 18.322 2.81734 17.8667C2.81734 17.5823 2.75511 17.3067 2.72845 16.9778C2.69177 16.6531 2.671 16.3268 2.66622 16.0001C2.65293 15.7543 2.65293 15.508 2.66622 15.2623C2.70947 14.5119 2.81051 13.766 2.96845 13.0312C3.46046 10.9099 4.46453 8.94148 5.89289 7.29785C6.07956 7.08452 6.27511 6.87118 6.47956 6.66674C7.67527 5.44447 9.0972 4.46632 10.6662 3.78674C11.3297 3.49302 12.0165 3.25516 12.7196 3.07563C13.1943 2.95812 13.675 2.86613 14.1596 2.80007C14.4537 2.75184 14.7506 2.72215 15.0484 2.71118H15.6707H16.2929C16.7357 2.72132 17.1778 2.75395 17.6173 2.80896C18.0796 2.86229 18.5062 2.94229 18.9951 3.04007C21.0704 3.51463 23.0024 4.4776 24.6307 5.84896C24.8973 6.07118 25.1462 6.31118 25.3951 6.55118C26.0893 7.23081 26.7064 7.98501 27.2351 8.80007C27.8236 9.71182 28.301 10.6906 28.6573 11.7156C28.871 12.3362 29.0374 12.9721 29.1551 13.6178C29.2284 13.9997 29.2789 14.3856 29.3062 14.7734C29.3316 15.1135 29.3405 15.4547 29.3329 15.7956C29.3329 15.9467 29.3329 16.089 29.3329 16.2401C29.3329 16.3912 29.3329 16.6845 29.3329 16.9067C29.3329 17.129 29.2796 17.5645 29.2351 17.8845C29.14 18.45 29.0064 19.0084 28.8351 19.5556C28.6553 20.2326 28.4174 20.8929 28.124 21.529C27.5583 22.8055 26.7898 23.9822 25.8484 25.0134C25.2094 25.7154 24.4972 26.3471 23.724 26.8979C23.1624 27.3053 22.5678 27.6651 21.9462 27.9734C21.0687 28.4064 20.1481 28.7461 19.1996 28.9867C18.7398 29.1021 18.2739 29.1912 17.804 29.2534C17.4751 29.2534 17.1373 29.3334 16.7996 29.3512L15.9996 29.3334ZM26.0529 16.169C26.0529 15.7867 26.0529 15.4134 25.9907 15.0401C25.7719 12.7181 24.754 10.544 23.1107 8.88896C22.596 8.38658 22.0299 7.93969 21.4218 7.55563C20.5026 6.95095 19.4907 6.50057 18.4262 6.22229C17.9997 6.11444 17.566 6.03721 17.1284 5.99118C16.8884 5.99118 16.6396 5.92896 16.3907 5.92007C15.997 5.89344 15.6021 5.89344 15.2084 5.92007C14.8973 5.92007 14.5951 5.98229 14.3196 6.03563C13.7314 6.12603 13.1537 6.27491 12.5951 6.48007C11.8163 6.7785 11.0762 7.16945 10.3907 7.64452C8.91884 8.64067 7.73298 10.0043 6.95067 11.6001C6.6327 12.2586 6.38826 12.9502 6.22178 13.6623C6.13296 14.0337 6.07058 14.4109 6.03511 14.7912C6.03511 14.9423 6.03511 15.0934 6.03511 15.2445C6.02225 15.4873 6.02225 15.7306 6.03511 15.9734C6.03511 16.2134 6.03511 16.4978 6.03511 16.7645C6.05423 17.1737 6.10475 17.5808 6.18622 17.9823C6.31763 18.6606 6.52331 19.3224 6.79956 19.9556C7.23819 20.9594 7.83879 21.8843 8.57733 22.6934C9.17416 23.3573 9.85553 23.9401 10.604 24.4267C11.4268 24.9684 12.3255 25.3848 13.2707 25.6623C14.1953 25.9287 15.1529 26.0634 16.1151 26.0623H16.7729C17.2058 26.0402 17.6366 25.9867 18.0618 25.9023C20.1523 25.4883 22.0559 24.4174 23.495 22.8456C24.9341 21.2738 25.8334 19.2833 26.0618 17.1645C26.0173 16.8178 26.0351 16.489 26.0529 16.169ZM16.9596 28.889H17.6262C17.6973 28.889 17.7062 28.889 17.7151 28.8001V26.489C17.728 26.4485 17.728 26.405 17.7151 26.3645H16.5862C16.4884 26.3645 16.4884 26.3645 16.4529 26.4623C16.4328 26.5079 16.4179 26.5556 16.4084 26.6045C16.2751 27.0045 16.1507 27.4045 16.0351 27.7956C16.036 27.8152 16.0304 27.8346 16.0191 27.8507C16.0079 27.8667 15.9916 27.8786 15.9729 27.8845C15.9691 27.8491 15.9691 27.8133 15.9729 27.7778L15.7596 27.1556L15.5373 26.489C15.4929 26.3645 15.484 26.3645 15.3596 26.3645H14.3729C14.2751 26.3645 14.2573 26.3645 14.2484 26.4712V28.8001C14.2484 28.8801 14.2484 28.889 14.3551 28.889H15.0129V28.7912C15.0219 28.6372 15.0219 28.4829 15.0129 28.329C15.0129 28.0979 15.0129 27.8756 15.0129 27.6445C15.0129 27.4134 15.0129 27.4134 15.0129 27.2978C15.0043 27.227 15.0043 27.1554 15.0129 27.0845V27.1645L15.4751 28.4445C15.5284 28.569 15.5729 28.6934 15.6173 28.8178C15.6618 28.9423 15.6707 28.9156 15.7596 28.9156H16.2129C16.3107 28.9156 16.3196 28.9156 16.3551 28.8178C16.3551 28.8178 16.3907 28.7201 16.3551 28.8178L16.8884 27.1823C16.8884 27.1823 16.8884 27.1823 16.8884 27.1201V27.2001C16.8884 27.3778 16.8884 27.5556 16.8884 27.7245C16.8884 28.0623 16.8884 28.4001 16.8884 28.7379C16.9074 28.7903 16.9312 28.8409 16.9596 28.889ZM22.044 27.4756L22.1418 27.4223L22.6129 27.1112C22.7284 27.0312 22.7284 27.0312 22.6129 26.9245L21.724 25.6623C21.7224 25.6386 21.7224 25.6149 21.724 25.5912H21.804L22.764 26.1867L23.2796 26.5067C23.3045 26.5236 23.3339 26.5325 23.364 26.5325C23.3941 26.5325 23.4235 26.5236 23.4484 26.5067L24.4351 25.849L24.5062 25.7867C24.4835 25.74 24.4567 25.6954 24.4262 25.6534L23.2618 23.8756C23.2084 23.7956 23.1996 23.7956 23.1196 23.8756L22.6307 24.1956L22.524 24.2845L22.5951 24.3912L23.484 25.6445V25.6978L23.3151 25.6001L21.9818 24.7823C21.9489 24.7563 21.9081 24.7422 21.8662 24.7422C21.8243 24.7422 21.7836 24.7563 21.7507 24.7823C21.4396 24.9956 21.1284 25.1912 20.8618 25.4045L20.764 25.4756C21.1729 26.1601 21.5996 26.8178 22.044 27.4756ZM9.67067 6.63118C9.68758 6.63871 9.70273 6.64968 9.71516 6.66339C9.7276 6.6771 9.73704 6.69325 9.7429 6.71081C9.74875 6.72837 9.75088 6.74695 9.74916 6.76538C9.74744 6.78381 9.7419 6.80168 9.73289 6.81785C9.7036 6.8872 9.65402 6.94607 9.59067 6.98674L8.94178 7.47563L8.75511 7.5734C8.72944 7.58823 8.70031 7.59603 8.67067 7.59603C8.64102 7.59603 8.6119 7.58823 8.58622 7.5734C8.52684 7.52986 8.47309 7.4791 8.42622 7.42229C8.32845 7.30674 8.23956 7.18229 8.15067 7.05785L8.07067 6.92451C8.04945 6.88177 8.04317 6.83315 8.05284 6.78642C8.0625 6.73969 8.08756 6.69755 8.124 6.66674C8.22397 6.5701 8.33092 6.48097 8.444 6.40007L8.96845 6.00896C9.00628 5.97867 9.05331 5.96216 9.10178 5.96216C9.15025 5.96216 9.19728 5.97867 9.23511 6.00896C9.28845 6.00896 9.30622 6.00896 9.36845 6.00896L9.77734 5.66229C9.83956 5.60896 9.83956 5.59118 9.77734 5.52007C9.70381 5.41402 9.61019 5.32342 9.50178 5.2534C9.44015 5.2111 9.36964 5.1835 9.29568 5.17271C9.22171 5.16193 9.14626 5.16825 9.07511 5.19118C8.91793 5.25112 8.771 5.33508 8.63956 5.44007L7.62622 6.22229C7.50669 6.30309 7.40652 6.40933 7.33289 6.5334C7.2892 6.59945 7.25955 6.67377 7.24579 6.75176C7.23203 6.82974 7.23445 6.90973 7.25289 6.98674C7.26449 7.09581 7.30432 7.19997 7.36845 7.28896C7.564 7.55563 7.76845 7.82229 7.97289 8.08007C8.0295 8.14559 8.09538 8.20249 8.16845 8.24896C8.23763 8.2931 8.31531 8.32224 8.39646 8.33449C8.47761 8.34674 8.56043 8.34183 8.63956 8.32007C8.79891 8.27953 8.94953 8.21025 9.084 8.11563L9.52845 7.78674C9.81156 7.59103 10.0818 7.37725 10.3373 7.14674C10.3923 7.09471 10.4428 7.03822 10.4884 6.97785C10.5357 6.91515 10.5662 6.84144 10.5771 6.76368C10.588 6.68592 10.5789 6.60667 10.5507 6.5334C10.5056 6.43873 10.4552 6.34672 10.3996 6.25785C10.2929 6.10674 10.1862 5.9734 10.0796 5.83118C9.97289 5.68896 9.964 5.69785 9.83956 5.83118L9.06622 6.40896L8.78178 6.62229C8.684 6.70229 8.684 6.72007 8.78178 6.80896L8.924 6.99563C9.02178 7.12896 9.03956 7.12896 9.17289 6.99563L9.57289 6.6934L9.67067 6.63118ZM21.0307 6.71118C21.1055 6.71512 21.1804 6.70375 21.2507 6.67777C21.321 6.65179 21.3853 6.61174 21.4396 6.56007C21.5188 6.49132 21.5824 6.40647 21.6262 6.31118C21.7418 6.02674 21.8662 5.74229 21.9818 5.46674C22.0077 5.40714 22.0256 5.34437 22.0351 5.28007C22.0674 5.1502 22.0582 5.01347 22.0088 4.8891C21.9594 4.76473 21.8722 4.65898 21.7596 4.58674C21.6257 4.48768 21.4829 4.40137 21.3329 4.32896L20.2129 3.85785C20.0729 3.8018 19.9267 3.763 19.7773 3.74229C19.6607 3.72418 19.5413 3.74062 19.4339 3.78959C19.3265 3.83856 19.2357 3.91791 19.1729 4.01785C19.1231 4.07732 19.0812 4.14307 19.0484 4.2134L18.7551 4.92452C18.7132 5.02737 18.6833 5.13476 18.6662 5.24452C18.6427 5.4037 18.6808 5.56586 18.7729 5.69785C18.875 5.83505 19.0093 5.94496 19.164 6.01785L19.5551 6.22229L20.5596 6.64007C20.7108 6.69285 20.8706 6.71696 21.0307 6.71118ZM23.8396 8.64896H23.9107C24.0799 8.6189 24.232 8.52703 24.3373 8.39118C24.5062 8.20451 24.6573 8.00007 24.8084 7.79563C24.8868 7.70406 24.9526 7.60242 25.004 7.4934C25.0611 7.39599 25.0874 7.2836 25.0794 7.17097C25.0715 7.05835 25.0297 6.95075 24.9596 6.86229C24.8476 6.71473 24.716 6.58315 24.5684 6.47118L23.0218 5.2534H22.9507H22.9062C22.8995 5.2495 22.8918 5.24745 22.884 5.24745C22.8762 5.24745 22.8685 5.2495 22.8618 5.2534L22.7462 5.3334L21.5729 6.84451C21.5474 6.86711 21.5263 6.89423 21.5107 6.92451C21.5107 6.97785 21.5107 7.00452 21.5107 7.04896C21.5411 7.08421 21.5772 7.11424 21.6173 7.13785C22.0529 7.48451 22.5062 7.82229 22.924 8.16007L23.4396 8.51563C23.5567 8.58969 23.6921 8.6297 23.8307 8.63118L23.8396 8.64896ZM18.0618 4.7734L18.1329 4.72007C18.1829 4.69029 18.2261 4.6504 18.2598 4.60295C18.2934 4.55549 18.3168 4.50153 18.3284 4.44451C18.3321 4.38531 18.3321 4.32594 18.3284 4.26674C18.373 4.08272 18.373 3.89075 18.3284 3.70674C18.3061 3.64822 18.2694 3.59625 18.2218 3.55563C18.1167 3.45538 17.9832 3.39017 17.8396 3.36896H17.484L16.4796 3.29785L15.9196 3.2534H15.6884C15.6719 3.25082 15.6549 3.25188 15.6388 3.25652C15.6226 3.26116 15.6077 3.26926 15.595 3.28026C15.5823 3.29126 15.5721 3.30489 15.5653 3.32021C15.5584 3.33553 15.5549 3.35217 15.5551 3.36896V3.46674L15.4484 5.0134C15.4484 5.18229 15.4484 5.34229 15.4484 5.50229C15.4484 5.66229 15.4484 5.60007 15.5373 5.60896H16.0707C16.1596 5.60896 16.1862 5.60896 16.1951 5.50229C16.204 5.39563 16.1951 5.28007 16.1951 5.1734C16.1917 5.12606 16.1917 5.07853 16.1951 5.03118L17.084 5.08451L17.3773 5.12896C17.4081 5.13304 17.4364 5.14769 17.4575 5.17041C17.4786 5.19312 17.4911 5.22246 17.4929 5.2534C17.5018 5.28236 17.5018 5.31333 17.4929 5.34229V5.60896C17.4929 5.68007 17.4929 5.71563 17.5996 5.71563H18.124C18.1523 5.71563 18.1794 5.70439 18.1994 5.68438C18.2194 5.66438 18.2307 5.63725 18.2307 5.60896C18.244 5.45814 18.244 5.30644 18.2307 5.15563C18.2317 5.09554 18.2186 5.03606 18.1923 4.982C18.1661 4.92795 18.1274 4.88084 18.0796 4.84451L18.0618 4.7734ZM10.7907 6.60452V6.64896C10.7907 6.70229 10.7907 6.72007 10.8707 6.71118L11.4218 6.52451C11.4609 6.51444 11.4954 6.49134 11.5196 6.45903C11.5439 6.42671 11.5564 6.38711 11.5551 6.34674C11.5508 6.2668 11.5508 6.18668 11.5551 6.10674C11.5548 6.08127 11.5635 6.05652 11.5798 6.03696C11.5961 6.0174 11.6189 6.00431 11.644 6.00007L12.7907 5.60007C12.8143 5.58402 12.8421 5.57544 12.8707 5.57544C12.8992 5.57544 12.9271 5.58402 12.9507 5.60007L13.1373 5.76007C13.1615 5.78938 13.1948 5.8097 13.2318 5.81776C13.2689 5.82583 13.3077 5.82116 13.3418 5.80452L13.8573 5.61785H13.9018C13.9729 5.61785 13.9818 5.55563 13.9018 5.50229C13.8828 5.47429 13.8587 5.45016 13.8307 5.43118L13.0573 4.72007L12.0796 3.83118C12.0515 3.81388 12.0192 3.80471 11.9862 3.80471C11.9533 3.80471 11.9209 3.81388 11.8929 3.83118L11.2084 4.07118C11.1727 4.08416 11.1413 4.10683 11.1178 4.13667C11.0942 4.1665 11.0794 4.20231 11.0751 4.24007L10.9684 4.88896L10.844 6.16896C10.8355 6.31513 10.8177 6.46062 10.7907 6.60452ZM26.3462 8.68452L25.1818 8.74674H24.2929C24.1773 8.74674 24.0707 8.74674 23.9551 8.74674C23.8396 8.74674 23.8662 8.80007 23.9018 8.8534C24.0084 9.04007 24.1151 9.22674 24.2307 9.40451C24.244 9.4277 24.2635 9.44667 24.2871 9.45924C24.3107 9.47182 24.3373 9.4775 24.364 9.47563H24.5773C24.621 9.4652 24.6669 9.47012 24.7074 9.48954C24.7478 9.50896 24.7804 9.54171 24.7996 9.58229C24.9862 9.91118 25.1907 10.2312 25.3862 10.5601C25.4073 10.59 25.4186 10.6257 25.4186 10.6623C25.4186 10.6989 25.4073 10.7346 25.3862 10.7645L25.2618 10.9778C25.2485 11.0008 25.2415 11.0269 25.2415 11.0534C25.2415 11.0799 25.2485 11.106 25.2618 11.129L25.5907 11.6623C25.5907 11.7334 25.6796 11.7334 25.7151 11.6623C25.7695 11.5849 25.8199 11.5048 25.8662 11.4223L26.9507 9.56452C26.968 9.53646 26.9771 9.50414 26.9771 9.47118C26.9771 9.43822 26.968 9.4059 26.9507 9.37785L26.5773 8.76451C26.5564 8.72414 26.5207 8.69334 26.4777 8.67846C26.4347 8.66358 26.3877 8.66575 26.3462 8.68452ZM8.78178 25.7156C8.77802 25.7302 8.77802 25.7455 8.78178 25.7601C8.68766 25.8876 8.62935 26.038 8.61289 26.1956C8.60534 26.2406 8.60695 26.2866 8.61765 26.3309C8.62834 26.3752 8.64789 26.4169 8.67511 26.4534L8.88845 26.6667C9.13899 26.8787 9.41344 27.0607 9.70622 27.209C9.84362 27.2798 9.99609 27.3164 10.1507 27.3156C10.2466 27.3122 10.3381 27.2743 10.4084 27.209C10.5637 27.0569 10.6822 26.8715 10.7551 26.6667C10.7908 26.585 10.8006 26.4943 10.7831 26.4069C10.7656 26.3195 10.7217 26.2395 10.6573 26.1779C10.5282 26.0392 10.3852 25.9142 10.2307 25.8045C10.1188 25.7317 10.0119 25.6515 9.91067 25.5645C9.8865 25.5516 9.86629 25.5324 9.8522 25.5089C9.83811 25.4854 9.83067 25.4586 9.83067 25.4312C9.81973 25.4026 9.81973 25.3709 9.83067 25.3423C9.84017 25.3157 9.85533 25.2914 9.87511 25.2712C9.89163 25.2454 9.91709 25.2266 9.94662 25.2184C9.97614 25.2102 10.0077 25.2131 10.0351 25.2267C10.1878 25.2748 10.3276 25.3568 10.444 25.4667C10.4695 25.4897 10.4874 25.5198 10.4953 25.5531C10.5032 25.5865 10.5009 25.6215 10.4884 25.6534V25.7601C10.6628 25.897 10.8504 26.0161 11.0484 26.1156C11.1626 25.9923 11.237 25.8374 11.2618 25.6712C11.2755 25.607 11.272 25.5403 11.2517 25.4779C11.2314 25.4155 11.195 25.3595 11.1462 25.3156C11.0571 25.2176 10.9589 25.1283 10.8529 25.049C10.6388 24.8879 10.4096 24.748 10.1684 24.6312C10.1113 24.5959 10.0479 24.5718 9.98178 24.5601C9.89228 24.5289 9.79556 24.525 9.70382 24.5487C9.61207 24.5724 9.5294 24.6228 9.46622 24.6934C9.29913 24.8606 9.17949 25.0692 9.11956 25.2978C9.10652 25.3491 9.10454 25.4026 9.11373 25.4547C9.12293 25.5068 9.14309 25.5564 9.17289 25.6001C9.22757 25.6802 9.2901 25.7546 9.35956 25.8223C9.49289 25.9378 9.63511 26.0356 9.76845 26.1423C9.90178 26.249 9.92845 26.2667 10.0084 26.329C10.0399 26.3596 10.0589 26.4007 10.0618 26.4445C10.0618 26.5011 10.0393 26.5554 9.9993 26.5954C9.95929 26.6354 9.90503 26.6578 9.84845 26.6578C9.82545 26.665 9.80138 26.668 9.77734 26.6667C9.644 26.5956 9.51067 26.5067 9.38622 26.4267C9.3518 26.4047 9.32653 26.371 9.31508 26.3317C9.30364 26.2925 9.30681 26.2505 9.324 26.2134C9.3216 26.172 9.3216 26.1304 9.324 26.089C9.16512 25.9354 8.9819 25.8093 8.78178 25.7156ZM19.3507 26.9512C19.3035 26.8557 19.2706 26.7539 19.2529 26.649C19.2529 26.6045 19.2529 26.5867 19.2973 26.5778H19.3418L20.3196 26.2401H20.4173C20.4231 26.2324 20.4262 26.223 20.4262 26.2134C20.4262 26.2038 20.4231 26.1944 20.4173 26.1867L20.284 25.7778C20.2819 25.7653 20.2753 25.7539 20.2656 25.7458C20.2558 25.7376 20.2434 25.7332 20.2307 25.7334H20.1329L18.3551 26.329C18.2573 26.329 18.2484 26.3734 18.2751 26.4712C18.3018 26.569 18.2751 26.5156 18.2751 26.5334L18.5062 27.2712C18.6396 27.6801 18.7818 28.0979 18.924 28.5156C18.9183 28.545 18.9183 28.5752 18.924 28.6045H19.0129L20.8529 27.9823L20.9507 27.9378L20.924 27.5556C20.924 27.4312 20.8796 27.4312 20.7551 27.4667L19.7684 27.8045L19.6262 27.849C19.5579 27.7293 19.5184 27.5954 19.5107 27.4578H19.5729L20.5418 27.1201C20.6396 27.1201 20.6396 27.0756 20.6218 26.9778C20.604 26.8801 20.6218 26.9778 20.6218 26.9245C20.5955 26.8293 20.5598 26.737 20.5151 26.649L20.364 26.6934L19.4751 26.9956H19.3596L19.3507 26.9512ZM13.3329 28.0623H13.2796L12.524 27.8312L12.1507 27.7156C12.0796 27.7156 12.0707 27.7156 12.0884 27.6178C12.11 27.5265 12.1397 27.4372 12.1773 27.3512C12.1824 27.3386 12.1909 27.3278 12.202 27.3199C12.213 27.312 12.226 27.3074 12.2396 27.3067H12.3196L12.9329 27.4934L13.2796 27.6001C13.3418 27.6001 13.3684 27.6001 13.3862 27.5556C13.404 27.5112 13.4662 27.3245 13.5018 27.2178C13.4742 27.1798 13.4326 27.1542 13.3862 27.1467L12.4973 26.8623L12.364 26.809C12.364 26.7112 12.4262 26.6223 12.4529 26.5334C12.4796 26.4445 12.4529 26.4623 12.5684 26.489L13.1818 26.6756L13.644 26.8179C13.7329 26.8179 13.7507 26.8179 13.7773 26.7467C13.804 26.6756 13.8484 26.5601 13.8751 26.4534C13.8839 26.4339 13.8885 26.4126 13.8885 26.3912C13.8885 26.3697 13.8839 26.3485 13.8751 26.329C13.2173 26.1067 12.5507 25.9023 11.884 25.7156C11.8384 25.7644 11.8103 25.8269 11.804 25.8934C11.5907 26.5245 11.3773 27.1645 11.1729 27.8045C11.1729 27.9378 11.1729 27.9467 11.2618 27.9823L11.9907 28.2045L13.1107 28.5512C13.1996 28.5512 13.2173 28.5512 13.244 28.4801C13.2863 28.3758 13.3219 28.2689 13.3507 28.1601C13.3497 28.1268 13.3437 28.0938 13.3329 28.0623ZM5.33289 10.1423L5.42178 10.1867L6.684 10.8978C6.69852 10.902 6.71393 10.902 6.72845 10.8978C6.79067 10.8978 6.80845 10.8978 6.85289 10.8978L7.11067 10.4623C7.19067 10.329 7.18178 10.3112 7.05734 10.2401L5.85734 9.53785C5.70622 9.45785 5.70622 9.44007 5.78622 9.29785C5.86622 9.15563 6.01733 8.90674 6.124 8.70229C6.23067 8.49785 6.17734 8.58674 6.07067 8.51563L5.77734 8.35563C5.644 8.27563 5.62622 8.28451 5.54622 8.41785C5.35956 8.73785 5.17289 9.05785 5.004 9.37785L4.33734 10.5423C4.33734 10.6312 4.33734 10.6578 4.33734 10.7112L4.70178 10.9245C4.70178 10.9245 4.77289 10.9245 4.80845 10.9245V10.8801L5.14622 10.2934C5.16086 10.2648 5.17876 10.2379 5.19956 10.2134L5.33289 10.1423ZM8.23956 8.88896V8.83563C8.21139 8.80147 8.17846 8.77153 8.14178 8.74674L6.61289 7.52896L6.53289 7.46674C6.47067 7.46674 6.45289 7.46674 6.39956 7.46674L6.34622 7.52896C6.25734 7.63563 6.15956 7.74229 6.07067 7.85785C5.98178 7.9734 5.99067 7.9734 6.07067 8.06229L6.22178 8.18674L7.42178 9.19118L7.70622 9.43118C7.76845 9.47563 7.79511 9.47563 7.84845 9.43118L8.204 9.00452C8.22454 8.96923 8.23671 8.92969 8.23956 8.88896ZM3.92845 14.489C3.94514 14.6174 4.00801 14.7354 4.10534 14.8209C4.20267 14.9064 4.32779 14.9536 4.45733 14.9536C4.58688 14.9536 4.712 14.9064 4.80933 14.8209C4.90666 14.7354 4.96953 14.6174 4.98622 14.489C4.97931 14.3514 4.91856 14.2221 4.81711 14.129C4.71566 14.0358 4.58164 13.9863 4.444 13.9912C4.30798 13.9935 4.17817 14.0485 4.08198 14.1447C3.98578 14.2409 3.93073 14.3707 3.92845 14.5067V14.489ZM27.5551 14.1156C27.4199 14.118 27.2911 14.1733 27.1963 14.2697C27.1015 14.3662 27.0484 14.496 27.0484 14.6312C27.0484 14.6996 27.0621 14.7674 27.0885 14.8306C27.115 14.8937 27.1538 14.9509 27.2026 14.9989C27.2514 15.0469 27.3093 15.0847 27.3729 15.1101C27.4364 15.1355 27.5044 15.1479 27.5729 15.1467C27.712 15.1467 27.8454 15.0915 27.9437 14.9931C28.0421 14.8948 28.0973 14.7614 28.0973 14.6223C28.0985 14.5527 28.0858 14.4835 28.06 14.4189C28.0342 14.3542 27.9957 14.2953 27.9469 14.2457C27.8981 14.196 27.8399 14.1566 27.7757 14.1297C27.7114 14.1028 27.6425 14.0889 27.5729 14.089L27.5551 14.1156Z" fill="#0F509F"/>
<path d="M26.053 16.1689C26.053 16.4889 26.053 16.8178 25.9819 17.1378C25.7535 19.2566 24.8542 21.2471 23.4151 22.8189C21.976 24.3907 20.0724 25.4616 17.9819 25.8756C17.5567 25.96 17.126 26.0135 16.693 26.0356H16.0353C15.073 26.0367 14.1154 25.902 13.1908 25.6356C12.2439 25.3587 11.3446 24.9391 10.5242 24.3911C9.77845 23.9044 9.10003 23.3216 8.50638 22.6578C7.7836 21.8455 7.19814 20.9208 6.77304 19.92C6.49524 19.2896 6.28661 18.631 6.15082 17.9556C6.06348 17.5576 6.00701 17.1534 5.98193 16.7467C5.98193 16.48 5.98193 16.2223 5.98193 15.9645C5.98193 15.7067 5.98193 15.4756 5.98193 15.2267C5.98193 14.9778 5.98193 14.9245 5.98193 14.7645C6.03687 14.395 6.11706 14.0297 6.22193 13.6711C6.38456 12.9579 6.62914 12.2659 6.95082 11.6089C7.72548 10.0057 8.91276 8.63738 10.3908 7.64448C11.0722 7.19495 11.8029 6.82512 12.5686 6.54226C13.1297 6.34533 13.7066 6.19664 14.293 6.09781C14.6042 6.04448 14.9064 6.01781 15.1819 5.98226C15.5756 5.95562 15.9705 5.95562 16.3642 5.98226C16.6112 5.99232 16.8575 6.01606 17.1019 6.05337C17.5499 6.07721 17.9955 6.13365 18.4353 6.22226C19.4981 6.49227 20.5099 6.9336 21.4308 7.52892C22.0371 7.92188 22.6002 8.37774 23.1108 8.88892C23.6847 9.46814 24.1889 10.1125 24.613 10.8089C25.3857 12.0915 25.8596 13.5315 25.9997 15.0223C26.0293 15.4074 26.0471 15.7897 26.053 16.1689ZM15.9997 25.6978H16.7019C17.0001 25.6758 17.2969 25.6372 17.5908 25.5823C18.5199 25.4238 19.4192 25.124 20.2575 24.6934C21.5009 24.0801 22.5982 23.2071 23.4753 22.1334C24.7079 20.6122 25.4488 18.7521 25.5997 16.8C25.6264 16.4331 25.6264 16.0647 25.5997 15.6978C25.5997 15.36 25.5997 15.0223 25.5197 14.6845C25.2487 12.7477 24.3996 10.9377 23.0832 9.49134C21.7669 8.04498 20.0447 7.02953 18.1419 6.57781C17.4945 6.42596 16.8334 6.3396 16.1686 6.32003C15.8397 6.32003 15.5197 6.32003 15.1997 6.32003C13.2151 6.46137 11.3231 7.21415 9.7838 8.47484C8.24455 9.73553 7.13374 11.4422 6.60416 13.36C6.42411 14.0253 6.31389 14.7075 6.27527 15.3956C6.2486 15.7862 6.2486 16.1783 6.27527 16.5689C6.30076 16.9447 6.34825 17.3187 6.41749 17.6889C6.49094 18.0953 6.59192 18.4962 6.71971 18.8889C6.92674 19.5251 7.19775 20.1386 7.5286 20.72C8.67647 22.7652 10.5321 24.3205 12.7464 25.0934C13.3216 25.306 13.9174 25.4579 14.5242 25.5467C15.0119 25.6312 15.5049 25.6817 15.9997 25.6978Z" fill="#FAFCFD"/>
<path d="M16.9597 28.8889C16.9553 28.8416 16.9553 28.794 16.9597 28.7467C16.9597 28.4089 16.9597 28.0711 16.9597 27.7334C16.9597 27.5556 16.9597 27.3867 16.9597 27.2089V27.1289C16.9597 27.1289 16.9597 27.1289 16.9597 27.1911L16.3908 28.7645C16.3908 28.8534 16.3464 28.8623 16.2486 28.8623H15.7864C15.6975 28.8623 15.6708 28.8623 15.6442 28.7645C15.6175 28.6667 15.5553 28.5067 15.502 28.3911L15.0397 27.12V27.0489C15.0266 27.1164 15.0266 27.1859 15.0397 27.2534C15.0397 27.3689 15.0397 27.4845 15.0397 27.6C15.0397 27.7156 15.0397 28.0534 15.0397 28.2845C15.0397 28.5156 15.0397 28.5867 15.0397 28.7467C15.0489 28.7787 15.0489 28.8125 15.0397 28.8445H14.3908C14.302 28.8445 14.2931 28.8445 14.2842 28.7556V26.4711C14.2842 26.3734 14.2842 26.3556 14.3997 26.3556H15.3508C15.4753 26.3556 15.4842 26.3556 15.5286 26.4889L15.7508 27.1556L15.9642 27.7778C15.9605 27.8103 15.9605 27.8431 15.9642 27.8756C16.0086 27.8756 16.0086 27.8223 16.0264 27.7956L16.3997 26.5956C16.4105 26.547 16.4254 26.4994 16.4442 26.4534C16.4442 26.3645 16.4442 26.3645 16.5775 26.3556H17.6708C17.683 26.3992 17.683 26.4453 17.6708 26.4889V28.8C17.6708 28.8623 17.6708 28.88 17.582 28.8889H16.9242H16.9597Z" fill="#FDFEFE"/>
<path d="M22.0441 27.4756C21.5996 26.8178 21.1552 26.16 20.7285 25.5022L20.8263 25.4222L21.7152 24.8089C21.7495 24.7822 21.7917 24.7677 21.8352 24.7677C21.8786 24.7677 21.9209 24.7822 21.9552 24.8089C22.3907 25.0844 22.8441 25.3511 23.2796 25.6178L23.4485 25.7244C23.4485 25.7244 23.4485 25.68 23.4485 25.6622L22.5596 24.4178C22.5337 24.3823 22.5128 24.3434 22.4974 24.3022L22.5952 24.2222L23.0841 23.9022C23.1641 23.8489 23.173 23.8578 23.2263 23.9022L24.3907 25.68L24.4796 25.8133L24.4085 25.8667L23.413 26.5333C23.388 26.5501 23.3586 26.5591 23.3285 26.5591C23.2984 26.5591 23.269 26.5501 23.2441 26.5333L22.7374 26.2133L21.7774 25.6178H21.6974V25.68L22.5863 26.9422C22.6663 27.0578 22.6663 27.0578 22.5863 27.1289L22.1152 27.44L22.0441 27.4756Z" fill="#FDFDFE"/>
<path d="M9.67088 6.63121L9.53755 6.72009L9.13755 7.02232C9.00421 7.12009 8.98644 7.12009 8.88866 7.02232L8.75533 6.83565C8.68422 6.73787 8.68422 6.72009 8.75533 6.64898L9.03977 6.42676L9.8131 5.84898C9.93755 5.75121 9.95533 5.76009 10.0531 5.84898L10.3731 6.27565C10.4306 6.36652 10.4811 6.46161 10.5242 6.56009C10.5521 6.63395 10.5602 6.71381 10.5477 6.79177C10.5352 6.86972 10.5026 6.94306 10.4531 7.00454C10.4075 7.06492 10.3569 7.1214 10.302 7.17343C10.0477 7.40177 9.78059 7.61545 9.50199 7.81343L9.05755 8.14232C8.92111 8.23348 8.77111 8.30248 8.6131 8.34676C8.53354 8.369 8.45004 8.37336 8.36859 8.35953C8.28714 8.3457 8.20976 8.31402 8.14199 8.26676C8.08831 8.21935 8.04056 8.16563 7.99977 8.10676L7.39533 7.31565C7.33492 7.2247 7.29545 7.12148 7.27977 7.01343C7.26236 6.93634 7.26046 6.85655 7.2742 6.77872C7.28793 6.70089 7.31702 6.62657 7.35977 6.56009C7.42391 6.43 7.51478 6.3149 7.62644 6.22232L8.68422 5.43121C8.81468 5.33126 8.96228 5.25595 9.11977 5.20898C9.18975 5.18186 9.26536 5.17254 9.33983 5.18185C9.4143 5.19115 9.48529 5.2188 9.54644 5.26232C9.65525 5.33548 9.74883 5.42906 9.82199 5.53787C9.82199 5.60009 9.82199 5.62676 9.82199 5.67121L9.38644 6.00898C9.32422 6.05343 9.30644 6.05343 9.2531 6.00898C9.21601 5.97707 9.1687 5.95952 9.11977 5.95952C9.07084 5.95952 9.02353 5.97707 8.98644 6.00898L8.46199 6.40009C8.35215 6.48155 8.24818 6.57066 8.15088 6.66676C8.1115 6.69538 8.08421 6.73766 8.07435 6.78533C8.06448 6.833 8.07276 6.88264 8.09755 6.92454C8.11583 6.97167 8.1397 7.01644 8.16866 7.05787L8.44422 7.42232C8.49314 7.47716 8.54667 7.52771 8.60422 7.57343C8.62989 7.58825 8.65901 7.59605 8.68866 7.59605C8.71831 7.59605 8.74743 7.58825 8.7731 7.57343L8.95977 7.47565L9.61755 6.98676C9.68688 6.95227 9.74306 6.89609 9.77755 6.82676C9.78793 6.80727 9.79331 6.7855 9.7932 6.76342C9.79309 6.74133 9.78749 6.71962 9.77692 6.70024C9.76634 6.68085 9.75112 6.66439 9.73261 6.65234C9.7141 6.64029 9.69289 6.63303 9.67088 6.63121Z" fill="#FCFDFE"/>
<path d="M21.031 6.71113C20.8628 6.71479 20.6959 6.68141 20.5421 6.61335L19.5554 6.22224L19.1643 6.04446C19.0057 5.97788 18.8698 5.86672 18.7732 5.72446C18.7222 5.65666 18.6864 5.57876 18.668 5.49599C18.6496 5.41321 18.6491 5.32745 18.6665 5.24446C18.6763 5.13427 18.7033 5.02629 18.7465 4.92446C18.8443 4.68446 18.9421 4.45335 19.0487 4.21335C19.0819 4.14517 19.1206 4.07978 19.1643 4.0178C19.2309 3.92038 19.3242 3.84424 19.433 3.79852C19.5418 3.7528 19.6614 3.73943 19.7776 3.76002C19.9245 3.77338 20.0684 3.80936 20.2043 3.86669L21.3332 4.3378C21.4859 4.40689 21.6317 4.49022 21.7687 4.58669C21.8824 4.65796 21.9704 4.7636 22.0199 4.88827C22.0695 5.01295 22.078 5.15017 22.0443 5.28002C22.0357 5.34357 22.0209 5.4061 21.9998 5.46669C21.8754 5.75113 21.7598 6.03557 21.6354 6.31113C21.5919 6.4092 21.5283 6.49703 21.4487 6.56891C21.393 6.62058 21.3269 6.65994 21.255 6.68445C21.183 6.70895 21.1067 6.71804 21.031 6.71113ZM21.2087 5.19113C21.2084 5.14759 21.1977 5.10476 21.1777 5.06613C21.1576 5.0275 21.1286 4.99419 21.0932 4.96891L20.9687 4.8978L20.1687 4.56002C20.0927 4.54253 20.0137 4.54253 19.9376 4.56002C19.9004 4.55863 19.8633 4.56593 19.8293 4.58136C19.7954 4.59679 19.7655 4.61992 19.7421 4.64891C19.7133 4.68406 19.6894 4.72293 19.671 4.76446C19.6265 4.86224 19.591 4.96002 19.5465 5.04891C19.5021 5.1378 19.4932 5.19113 19.4754 5.25335C19.4586 5.29914 19.4573 5.34919 19.4718 5.39578C19.4862 5.44236 19.5156 5.4829 19.5554 5.51113C19.6004 5.54903 19.6515 5.57908 19.7065 5.60002C19.8932 5.68891 20.0976 5.76891 20.2932 5.84891C20.4887 5.92891 20.5154 5.94669 20.631 5.98224C20.6689 5.99131 20.7085 5.99131 20.7465 5.98224C20.7956 5.98268 20.8438 5.96857 20.8849 5.94167C20.9261 5.91478 20.9583 5.87632 20.9776 5.83113C21.0635 5.6741 21.1292 5.50685 21.1732 5.33335C21.1884 5.28685 21.2003 5.23932 21.2087 5.19113Z" fill="#FDFEFE"/>
<path d="M23.8488 8.64898C23.706 8.64861 23.5666 8.60524 23.4488 8.52454C23.271 8.41932 23.1016 8.30044 22.9421 8.16898L21.6266 7.15565L21.5199 7.11121C21.503 7.09311 21.4937 7.06928 21.4937 7.04454C21.4937 7.0198 21.503 6.99597 21.5199 6.97787L21.5821 6.89787L22.7377 5.33343L22.8532 5.2001C22.8616 5.19614 22.8707 5.19409 22.8799 5.19409C22.8891 5.19409 22.8982 5.19614 22.9066 5.2001L22.9777 5.24454L24.5332 6.46232C24.6787 6.57669 24.81 6.70799 24.9243 6.85343C24.9927 6.9425 25.034 7.0493 25.0435 7.16117C25.053 7.27304 25.0301 7.38527 24.9777 7.48454C24.9201 7.59203 24.8516 7.6933 24.7732 7.78676C24.6221 7.99121 24.471 8.19565 24.311 8.38232C24.2029 8.5194 24.0476 8.6113 23.8755 8.6401L23.8488 8.64898ZM22.4621 7.02232L22.5688 7.10232L23.3066 7.67121C23.3829 7.73251 23.4631 7.78892 23.5466 7.8401C23.6018 7.87715 23.6689 7.89223 23.7347 7.88236C23.8005 7.87249 23.8602 7.8384 23.9021 7.78676C24.0195 7.64757 24.1293 7.50218 24.231 7.35121C24.2656 7.30843 24.2844 7.25509 24.2843 7.2001C24.2838 7.16443 24.2755 7.1293 24.2602 7.0971C24.2449 7.06489 24.2228 7.03636 24.1955 7.01343L24.0532 6.89787L23.2088 6.22232C23.111 6.22232 23.111 6.22232 23.111 6.22232V6.26676L22.8977 6.5601L22.4621 7.02232Z" fill="#FDFEFE"/>
<path d="M18.0618 4.7734L18.1241 4.84451C18.1719 4.88084 18.2106 4.92794 18.2368 4.98199C18.2631 5.03605 18.2762 5.09553 18.2752 5.15562C18.284 5.3066 18.284 5.45797 18.2752 5.60895C18.2752 5.62296 18.2724 5.63683 18.2671 5.64977C18.2617 5.66271 18.2538 5.67447 18.2439 5.68438C18.234 5.69428 18.2223 5.70214 18.2093 5.7075C18.1964 5.71286 18.1825 5.71562 18.1685 5.71562C17.9909 5.72474 17.8128 5.72474 17.6352 5.71562C17.5641 5.71562 17.5374 5.71562 17.5374 5.60895V5.2534C17.5356 5.22246 17.5231 5.19311 17.502 5.1704C17.4809 5.14769 17.4526 5.13303 17.4218 5.12895L17.1196 5.08451L16.2307 5.03117C16.2357 5.07845 16.2357 5.12612 16.2307 5.1734V5.50229C16.2307 5.60895 16.1863 5.61784 16.1063 5.60895H15.573C15.5018 5.60895 15.4752 5.60895 15.4841 5.50229C15.4754 5.33944 15.4754 5.17624 15.4841 5.0134L15.5907 3.46673V3.28895C15.5907 3.20006 15.5907 3.1734 15.7241 3.1734C15.7981 3.16828 15.8723 3.16828 15.9463 3.1734L16.5063 3.21784L17.5196 3.28895H17.8752C18.0168 3.30836 18.148 3.37398 18.2485 3.47562C18.2996 3.51676 18.3369 3.57261 18.3552 3.63562C18.3997 3.81963 18.3997 4.01161 18.3552 4.19562C18.3588 4.25482 18.3588 4.31419 18.3552 4.3734C18.3459 4.43359 18.3236 4.49103 18.2899 4.5417C18.2561 4.59237 18.2116 4.63504 18.1596 4.66673L18.0618 4.7734ZM16.2841 4.34673H16.4441L17.333 4.40895H17.4841C17.5171 4.40895 17.5487 4.39584 17.5721 4.3725C17.5954 4.34917 17.6085 4.31751 17.6085 4.28451C17.6172 4.22855 17.6172 4.17158 17.6085 4.11562C17.6086 4.08174 17.5958 4.04911 17.5727 4.02435C17.5495 3.99958 17.5179 3.98454 17.4841 3.98229C17.3983 3.97448 17.312 3.97448 17.2263 3.98229H16.3907H16.3018C16.2656 4.1002 16.2565 4.22479 16.2752 4.34673H16.2841Z" fill="#FDFEFE"/>
<path d="M10.791 6.60447C10.791 6.46225 10.791 6.32002 10.8532 6.16891L11.0666 4.88002L11.1732 4.23114C11.1739 4.19228 11.1874 4.15473 11.2115 4.12423C11.2355 4.09373 11.2689 4.07196 11.3066 4.06225L11.991 3.82225C12.0191 3.80494 12.0514 3.79578 12.0843 3.79578C12.1173 3.79578 12.1496 3.80494 12.1777 3.82225L13.1466 4.71114L13.9288 5.42225L13.9999 5.48447C14.0532 5.54669 14.0443 5.57336 13.9999 5.60891H13.9555L13.4399 5.79558C13.4095 5.81547 13.374 5.82606 13.3377 5.82606C13.3014 5.82606 13.2658 5.81547 13.2355 5.79558L13.0399 5.63558C13.0182 5.619 12.9917 5.61002 12.9643 5.61002C12.937 5.61002 12.9105 5.619 12.8888 5.63558L11.7332 6.02669C11.7099 6.03689 11.6895 6.05284 11.6739 6.07304C11.6584 6.09325 11.6482 6.11705 11.6443 6.14225C11.6487 6.22219 11.6487 6.3023 11.6443 6.38225C11.6437 6.41879 11.6312 6.45414 11.6088 6.48299C11.5864 6.51184 11.5552 6.53263 11.5199 6.54225L10.9688 6.72891C10.9066 6.72891 10.8888 6.72891 10.8799 6.66669L10.791 6.60447ZM11.8488 4.56003L11.7421 5.26225C11.7421 5.26225 11.7421 5.31558 11.7421 5.34225C11.9732 5.25336 12.2043 5.20003 12.4355 5.09336L12.391 5.03114L11.9199 4.58669L11.8488 4.56003Z" fill="#FDFEFE"/>
<path d="M26.3466 8.68446C26.3889 8.67558 26.433 8.68241 26.4706 8.70367C26.5082 8.72494 26.5368 8.75919 26.551 8.80002C26.6755 9.01335 26.7999 9.21779 26.9333 9.41335C26.9504 9.44308 26.9595 9.4768 26.9595 9.51113C26.9595 9.54545 26.9504 9.57918 26.9333 9.60891L25.8488 11.4578L25.6977 11.7067C25.6444 11.7867 25.6177 11.7778 25.5733 11.7067C25.5288 11.6356 25.351 11.3511 25.2444 11.1733C25.2311 11.1488 25.2242 11.1213 25.2242 11.0933C25.2242 11.0654 25.2311 11.0379 25.2444 11.0133C25.2888 10.9422 25.3244 10.8711 25.3688 10.8089C25.3912 10.7795 25.4033 10.7436 25.4033 10.7067C25.4033 10.6698 25.3912 10.6339 25.3688 10.6045C25.1644 10.2756 24.9688 9.94668 24.7733 9.61779C24.7544 9.57897 24.7233 9.54746 24.6847 9.52817C24.6462 9.50888 24.6023 9.50289 24.5599 9.51113C24.4859 9.51601 24.4117 9.51601 24.3377 9.51113C24.3113 9.51118 24.2854 9.50471 24.2621 9.4923C24.2389 9.4799 24.219 9.46194 24.2044 9.44002C24.0977 9.25335 23.991 9.06668 23.8755 8.8889C23.7599 8.71113 23.8755 8.79113 23.9377 8.78224C24.0501 8.77236 24.1631 8.77236 24.2755 8.78224H25.1644L26.3466 8.68446ZM25.4133 9.57335C25.5117 9.79528 25.6371 10.0043 25.7866 10.1956C25.947 9.98756 26.0813 9.76068 26.1866 9.52002C25.9246 9.50227 25.6615 9.52022 25.4044 9.57335H25.4133Z" fill="#FDFEFE"/>
<path d="M8.78221 25.7156C8.98821 25.7966 9.17791 25.914 9.34221 26.0623C9.34461 26.1037 9.34461 26.1453 9.34221 26.1867C9.32556 26.2225 9.3227 26.2631 9.33419 26.3009C9.34567 26.3386 9.37069 26.3708 9.40443 26.3912L9.77777 26.6667C9.80686 26.6747 9.83756 26.6747 9.86666 26.6667C9.92323 26.6667 9.9775 26.6443 10.0175 26.6043C10.0575 26.5642 10.08 26.51 10.08 26.4534C10.0807 26.4326 10.0762 26.4119 10.0669 26.3933C10.0576 26.3746 10.0438 26.3586 10.0267 26.3467C9.94665 26.2756 9.86666 26.2223 9.78666 26.1601C9.70666 26.0979 9.5111 25.9467 9.38666 25.8312C9.31682 25.7613 9.25151 25.6871 9.1911 25.609C9.16047 25.5656 9.14048 25.5157 9.13276 25.4632C9.12504 25.4107 9.1298 25.3571 9.14666 25.3067C9.1998 25.0774 9.31693 24.8678 9.48443 24.7023C9.54828 24.6326 9.63096 24.5829 9.72246 24.5593C9.81396 24.5356 9.91036 24.539 9.99999 24.569C10.0658 24.5818 10.129 24.6059 10.1867 24.6401C10.4317 24.7548 10.6641 24.8948 10.88 25.0579L11.1733 25.3245C11.2192 25.3703 11.2529 25.4268 11.2715 25.4888C11.2901 25.5509 11.2931 25.6166 11.28 25.6801C11.255 25.841 11.1805 25.9902 11.0667 26.1067C10.8645 26.0149 10.6711 25.9048 10.4889 25.7779C10.4914 25.7423 10.4914 25.7067 10.4889 25.6712C10.5098 25.6446 10.5211 25.6117 10.5211 25.5779C10.5211 25.544 10.5098 25.5111 10.4889 25.4845C10.373 25.3719 10.2333 25.2868 10.08 25.2356C10.056 25.2207 10.0283 25.2127 9.99999 25.2127C9.9717 25.2127 9.94398 25.2207 9.91999 25.2356C9.89919 25.2602 9.8813 25.287 9.86666 25.3156C9.85774 25.3446 9.85774 25.3756 9.86666 25.4045C9.86661 25.4309 9.87307 25.4568 9.88548 25.4801C9.89788 25.5034 9.91585 25.5232 9.93777 25.5379L10.2578 25.769C10.4081 25.8838 10.5506 26.0085 10.6844 26.1423C10.7485 26.2061 10.792 26.2875 10.8095 26.3762C10.8269 26.4649 10.8174 26.5568 10.7822 26.6401C10.7026 26.853 10.5748 27.0447 10.4089 27.2001C10.3369 27.2615 10.2458 27.2961 10.1511 27.2979C9.99554 27.3085 9.84046 27.2712 9.70666 27.1912C9.41213 27.0532 9.13716 26.8768 8.88888 26.6667C8.81627 26.6 8.74798 26.5288 8.68443 26.4534C8.62669 26.3773 8.60115 26.2815 8.61332 26.1867C8.628 26.0425 8.67347 25.903 8.74666 25.7779L8.78221 25.7156Z" fill="#FCFDFD"/>
<path d="M13.3331 28.0622C13.3331 28.0622 13.3331 28.1334 13.3331 28.16L13.2264 28.48C13.2264 28.5867 13.2264 28.5778 13.0931 28.5511L11.9731 28.2045L11.262 27.9822C11.1286 27.9822 11.1286 27.9378 11.1731 27.8045C11.3775 27.1645 11.5908 26.5245 11.8042 25.8934C11.8105 25.8269 11.8386 25.7644 11.8842 25.7156C12.5508 25.9022 13.2175 26.1067 13.8753 26.3289C13.8841 26.3485 13.8887 26.3697 13.8887 26.3911C13.8887 26.4126 13.8841 26.4338 13.8753 26.4534C13.8753 26.5511 13.8131 26.64 13.7864 26.7467C13.7597 26.8534 13.7331 26.8445 13.6442 26.8178L13.1642 26.6667L12.5508 26.48C12.4797 26.48 12.462 26.48 12.4442 26.5245L12.3464 26.8L12.4797 26.8534L13.3686 27.1467C13.4144 27.1558 13.4554 27.1811 13.4842 27.2178C13.4842 27.3245 13.4131 27.44 13.3686 27.5556C13.3242 27.6711 13.3242 27.6267 13.2531 27.5556L12.9153 27.4489L12.302 27.2622H12.222C12.2069 27.2621 12.1923 27.2674 12.1808 27.2772C12.1694 27.287 12.1619 27.3007 12.1597 27.3156C12.1218 27.3994 12.0892 27.4855 12.062 27.5734C12.062 27.6622 12.062 27.6534 12.1331 27.6711L12.5064 27.7867L13.2531 28.0178L13.3331 28.0622Z" fill="#FCFDFD"/>
<path d="M5.33329 10.1422L5.27106 10.2222L4.93329 10.8089V10.8622C4.93329 10.9067 4.87106 10.9155 4.82662 10.8622L4.46217 10.6578C4.37329 10.6044 4.37329 10.5689 4.46217 10.48L5.12884 9.30665C5.31551 8.99554 5.50217 8.67554 5.67106 8.35554C5.75106 8.22221 5.76884 8.21332 5.90217 8.29332L6.18662 8.45332C6.2844 8.50665 6.29329 8.53332 6.23995 8.63999C6.18662 8.74665 6.01773 9.03999 5.90217 9.23554C5.78662 9.4311 5.82217 9.38665 5.97329 9.47554L7.17329 10.1689C7.29773 10.2489 7.30662 10.2667 7.22662 10.3911L6.99551 10.8089C6.99551 10.8622 6.93329 10.8711 6.87106 10.8089C6.86431 10.8128 6.85664 10.8148 6.84884 10.8148C6.84104 10.8148 6.83338 10.8128 6.82662 10.8089L5.5644 10.0978L5.33329 10.1422Z" fill="#FCFDFD"/>
<path d="M8.23997 8.8889C8.24314 8.9125 8.24314 8.93642 8.23997 8.96001L7.88441 9.38668C7.83997 9.44001 7.80441 9.44001 7.75108 9.38668L7.45775 9.14668L6.22219 8.18668L6.09775 8.08001C5.99997 7.99112 5.99997 7.97335 6.09775 7.87557L6.36441 7.54668L6.42664 7.48446C6.42664 7.43112 6.48886 7.43112 6.55108 7.48446L6.63108 7.54668L8.11553 8.78224L8.2133 8.87112L8.23997 8.8889Z" fill="#FCFDFD"/>
<path d="M3.92891 14.5245C3.92773 14.4557 3.94014 14.3872 3.96541 14.3232C3.99068 14.2591 4.02833 14.2006 4.07621 14.1511C4.12408 14.1016 4.18125 14.0619 4.24443 14.0345C4.30762 14.0071 4.37559 13.9924 4.44447 13.9912C4.58356 13.9912 4.71695 14.0465 4.8153 14.1448C4.91366 14.2432 4.96891 14.3766 4.96891 14.5157C4.96662 14.654 4.91063 14.7861 4.81277 14.884C4.71491 14.9818 4.58284 15.0378 4.44447 15.0401C4.30302 15.0401 4.16736 14.9839 4.06734 14.8839C3.96732 14.7839 3.91113 14.6482 3.91113 14.5068L3.92891 14.5245Z" fill="#FCFDFD"/>
<path d="M27.5552 14.1156C27.6248 14.1156 27.6938 14.1294 27.758 14.1564C27.8222 14.1833 27.8804 14.2227 27.9292 14.2723C27.978 14.322 28.0165 14.3808 28.0423 14.4455C28.0681 14.5102 28.0808 14.5793 28.0797 14.6489C28.0797 14.7889 28.0247 14.9232 27.9266 15.0229C27.8285 15.1227 27.6951 15.1799 27.5552 15.1823C27.4161 15.1823 27.2827 15.127 27.1844 15.0287C27.086 14.9303 27.0308 14.7969 27.0308 14.6578C27.0307 14.5226 27.0838 14.3928 27.1786 14.2964C27.2734 14.1999 27.4022 14.1446 27.5374 14.1423L27.5552 14.1156Z" fill="#FCFDFD"/>
<path d="M16 25.6978C15.5267 25.695 15.0542 25.6564 14.5867 25.5823C13.9794 25.5007 13.3831 25.3516 12.8089 25.1378C10.5946 24.365 8.73898 22.8097 7.59112 20.7645C7.26021 20.1799 6.98921 19.5635 6.78223 18.9245C6.65939 18.531 6.56142 18.1302 6.48889 17.7245C6.4191 17.3513 6.37161 16.9744 6.34667 16.5956C6.31999 16.2079 6.31999 15.8188 6.34667 15.4311C6.38135 14.7433 6.48861 14.0609 6.66667 13.3956C7.19155 11.4752 8.30103 9.76566 9.84124 8.50419C11.3814 7.24272 13.276 6.49181 15.2622 6.35559C15.5822 6.35559 15.9022 6.35559 16.2311 6.35559C16.8959 6.37515 17.557 6.46151 18.2044 6.61337C20.1079 7.06678 21.8304 8.0839 23.1466 9.53178C24.4629 10.9797 25.3117 12.791 25.5822 14.7289C25.6267 15.0667 25.6445 15.4045 25.6622 15.7423C25.6889 16.1062 25.6889 16.4716 25.6622 16.8356C25.6016 17.6663 25.4313 18.4852 25.1556 19.2711C24.7909 20.3274 24.2433 21.3113 23.5378 22.1778C22.6607 23.2515 21.5634 24.1245 20.32 24.7378C19.4817 25.1684 18.5824 25.4682 17.6533 25.6267C17.3511 25.68 17.04 25.7156 16.7644 25.7423L16 25.6978ZM16 25.5023L16.8 25.4489C17.1284 25.4301 17.4551 25.3885 17.7778 25.3245C18.9647 25.1049 20.0971 24.6549 21.1111 24C23.1514 22.7064 24.6132 20.6746 25.1911 18.3289C25.3414 17.711 25.4307 17.0798 25.4578 16.4445C25.4844 15.9283 25.4666 15.4109 25.4044 14.8978C25.354 14.4814 25.2768 14.0687 25.1733 13.6623C24.7324 11.9421 23.8183 10.3799 22.5347 9.15289C21.2511 7.92585 19.6494 7.08303 17.9111 6.72004C17.5881 6.65233 17.2617 6.60189 16.9333 6.56892C16.7467 6.56892 16.56 6.52448 16.3733 6.52448H15.4222C13.0681 6.66099 10.8504 7.6736 9.20532 9.36306C7.56028 11.0525 6.6071 13.2965 6.53334 15.6534C6.50228 16.0735 6.50228 16.4954 6.53334 16.9156C6.58121 17.4351 6.6734 17.9496 6.80889 18.4534C7.20264 19.9059 7.93702 21.2436 8.95112 22.3556C9.27798 22.7196 9.63479 23.0556 10.0178 23.36C11.5058 24.5724 13.3303 25.2985 15.2444 25.44L16 25.5023Z" fill="#1554A0"/>
<path d="M21.2086 5.19114V5.35114C21.1552 5.51134 21.0867 5.66611 21.0041 5.81336C20.9862 5.86021 20.9546 5.90056 20.9133 5.92911C20.8721 5.95766 20.8232 5.97309 20.773 5.97336C20.735 5.98243 20.6954 5.98243 20.6574 5.97336L20.3197 5.83114L19.733 5.59114L19.5552 5.4667C19.5162 5.43996 19.4871 5.401 19.4726 5.35594C19.4582 5.31088 19.4591 5.26229 19.4752 5.21781C19.4978 5.14523 19.5245 5.07401 19.5552 5.00447L19.6797 4.72003C19.7011 4.67815 19.728 4.63929 19.7597 4.60447C19.7813 4.57564 19.8095 4.55248 19.842 4.537C19.8746 4.52151 19.9104 4.51416 19.9463 4.51558C20.0228 4.50213 20.101 4.50213 20.1775 4.51558L20.9774 4.85336C21.0221 4.87475 21.0639 4.90163 21.1019 4.93336C21.1434 4.96076 21.1757 4.99996 21.1947 5.0459C21.2138 5.09185 21.2186 5.14243 21.2086 5.19114Z" fill="#10509F"/>
<path d="M22.4619 7.02229L22.8175 6.57785L23.0397 6.2934C23.1108 6.22229 23.1108 6.22229 23.2086 6.22229L24.053 6.88007C24.0982 6.92404 24.1457 6.96558 24.1952 7.00451C24.2226 7.02744 24.2447 7.05597 24.26 7.08818C24.2753 7.12039 24.2836 7.15551 24.2841 7.19118C24.2842 7.24617 24.2654 7.29952 24.2308 7.34229C24.1312 7.49195 24.0213 7.63452 23.9019 7.76896C23.8626 7.82381 23.8033 7.86105 23.7368 7.87269C23.6704 7.88432 23.602 7.86942 23.5464 7.83118C23.4607 7.77994 23.3803 7.7204 23.3064 7.6534L22.5686 7.11118L22.4619 7.02229Z" fill="#10519F"/>
<path d="M16.2754 4.34671C16.2331 4.19254 16.2331 4.02978 16.2754 3.8756H16.3643H17.1999C17.2856 3.8678 17.3719 3.8678 17.4577 3.8756C17.4752 3.87673 17.4923 3.88131 17.5081 3.88908C17.5238 3.89684 17.5379 3.90765 17.5494 3.92086C17.561 3.93407 17.5698 3.94944 17.5754 3.96608C17.581 3.98272 17.5833 4.00031 17.5821 4.01783C17.5908 4.07379 17.5908 4.13075 17.5821 4.18671C17.5821 4.21972 17.569 4.25137 17.5456 4.27471C17.5223 4.29805 17.4907 4.31116 17.4577 4.31116C17.4077 4.31996 17.3565 4.31996 17.3065 4.31116L16.4177 4.25783L16.2754 4.34671Z" fill="#12519F"/>
<path d="M11.8489 4.55999H11.92L12.3911 5.00444L12.4355 5.06666C12.2044 5.17333 11.9733 5.22666 11.7422 5.31555C11.7422 5.31555 11.7422 5.26221 11.7422 5.23555L11.8489 4.53333V4.55999Z" fill="#1453A0"/>
<path d="M25.4043 9.53779C25.6584 9.48436 25.9186 9.46641 26.1776 9.48446C26.0724 9.72512 25.938 9.952 25.7776 10.16C25.6281 9.9687 25.5028 9.75972 25.4043 9.53779Z" fill="#1453A0"/>
<path d="M16.0533 25.5022C15.8045 25.5022 15.5556 25.5022 15.3067 25.4578C13.3929 25.3145 11.5689 24.5886 10.08 23.3778C9.69701 23.0734 9.34021 22.7374 9.01334 22.3733C7.99924 21.2614 7.26487 19.9237 6.87112 18.4711C6.73562 17.9673 6.64343 17.4529 6.59556 16.9333C6.5645 16.5132 6.5645 16.0913 6.59556 15.6711C6.66326 13.3123 7.61446 11.0649 9.26073 9.37418C10.907 7.68346 13.1282 6.67274 15.4845 6.54224C15.7956 6.54224 16.1156 6.54224 16.4356 6.54224C16.7556 6.54224 16.8089 6.54224 16.9956 6.58668C17.3245 6.58668 17.6445 6.66668 17.9645 6.7289C19.7037 7.09497 21.3061 7.93976 22.5909 9.16797C23.8756 10.3962 24.7916 11.959 25.2356 13.68C25.3348 14.0874 25.412 14.4999 25.4667 14.9156C25.5289 15.4257 25.5467 15.9402 25.52 16.4533C25.4936 17.0917 25.4043 17.7259 25.2533 18.3467C24.8092 20.1049 23.868 21.698 22.5422 22.9355C21.2165 24.1729 19.5624 25.0023 17.7778 25.3245C17.461 25.3877 17.1402 25.4293 16.8178 25.4489C16.5867 25.4756 16.32 25.4845 16.0533 25.5022ZM16 25.1022C16.4548 25.1036 16.9092 25.0739 17.36 25.0133C17.9016 24.9428 18.4347 24.8177 18.9511 24.64C19.2556 24.5431 19.5527 24.4243 19.84 24.2845C20.9075 23.7877 21.8677 23.0872 22.6667 22.2222C23.8352 20.9844 24.6356 19.4453 24.9778 17.7778C25.0838 17.2331 25.1374 16.6794 25.1378 16.1245C25.1467 16.0835 25.1467 16.041 25.1378 16C25.1246 15.9385 25.1246 15.8749 25.1378 15.8133C25.1466 15.7276 25.1466 15.6413 25.1378 15.5556C25.1203 15.2043 25.0847 14.8542 25.0311 14.5067C24.8809 13.6042 24.5963 12.7293 24.1867 11.9111C23.1615 9.87695 21.4202 8.29388 19.2978 7.46668C18.686 7.23446 18.0513 7.06761 17.4045 6.9689C16.8929 6.88917 16.3754 6.85348 15.8578 6.86224C15.4592 6.87237 15.0616 6.90502 14.6667 6.96001C14.3911 6.96001 14.1245 7.05779 13.8578 7.12001C11.9645 7.57395 10.2703 8.63164 9.03112 10.1333C8.49067 10.7765 8.04196 11.4915 7.69778 12.2578C7.43109 12.8892 7.23436 13.548 7.11112 14.2222C7.03837 14.6489 6.98793 15.0792 6.96001 15.5111C6.93781 15.9286 6.93781 16.347 6.96001 16.7645C6.9864 17.1201 7.03689 17.4735 7.11112 17.8222C7.53313 19.8711 8.64666 21.7126 10.265 23.038C11.8834 24.3634 13.9082 25.0922 16 25.1022Z" fill="#FCFBFC"/>
<path d="M15.9996 25.1023C13.9087 25.089 11.8855 24.359 10.2679 23.0341C8.65017 21.7092 7.5358 19.8696 7.11073 17.8223C7.03507 17.4854 6.98162 17.1439 6.95073 16.8001C6.92853 16.3826 6.92853 15.9642 6.95073 15.5467C6.98157 15.1175 7.03498 14.6903 7.11073 14.2667C7.24102 13.5785 7.44979 12.9074 7.73295 12.2667C8.54082 10.4617 9.9093 8.96545 11.6352 8.00006C12.3319 7.60384 13.0796 7.30478 13.8574 7.11117C14.1241 7.04895 14.3907 6.99562 14.6663 6.95117C15.0612 6.89618 15.4588 6.86353 15.8574 6.85339C16.3748 6.85352 16.8916 6.88916 17.4041 6.96006C18.0521 7.05763 18.6872 7.22758 19.2974 7.46673C20.3184 7.85731 21.2585 8.43286 22.0707 9.16451C22.9377 9.93199 23.6497 10.8583 24.1685 11.8934C24.5846 12.7088 24.8696 13.5848 25.013 14.4889C25.0661 14.8366 25.1017 15.1866 25.1196 15.5378C25.1287 15.6235 25.1287 15.7099 25.1196 15.7956C25.1061 15.8571 25.1061 15.9208 25.1196 15.9823C25.1233 16.0237 25.1233 16.0653 25.1196 16.1067C25.1197 16.6672 25.0691 17.2265 24.9685 17.7778C24.6275 19.4439 23.8305 20.9826 22.6663 22.2223C21.8509 23.0819 20.8796 23.7787 19.8041 24.2756C19.5107 24.4089 19.2085 24.5245 18.9152 24.6312C18.3963 24.8005 17.8641 24.9254 17.3241 25.0045C16.8853 25.0666 16.4428 25.0993 15.9996 25.1023ZM19.4663 14.0178C19.4663 13.9645 19.4663 13.9289 19.5374 13.8934C19.9035 13.3574 20.1433 12.7454 20.2387 12.1034C20.3342 11.4613 20.2828 10.806 20.0885 10.1867C19.9075 9.64462 19.6179 9.14511 19.2373 8.71871C18.8568 8.29231 18.3933 7.94797 17.8752 7.70673C17.4536 7.50332 16.999 7.37689 16.533 7.33339C16.1232 7.29621 15.7102 7.31716 15.3063 7.39562C14.6497 7.51599 14.0328 7.79633 13.5104 8.21183C12.9879 8.62734 12.5759 9.1652 12.3107 9.77784C12.1158 10.1947 11.9984 10.6434 11.9641 11.1023C11.9234 11.552 11.9565 12.0054 12.0618 12.4445C12.179 12.9306 12.3773 13.3933 12.6485 13.8134C12.6695 13.841 12.6874 13.8708 12.7018 13.9023C12.6935 13.9186 12.6808 13.9323 12.665 13.9417C12.6493 13.9511 12.6313 13.956 12.6129 13.9556H12.3463C11.9662 13.9476 11.5866 13.9895 11.2174 14.0801C10.3742 14.2686 9.61578 14.7274 9.05739 15.3867C8.36159 16.1966 8.0078 17.2453 8.07073 18.3112C8.1022 18.738 8.1981 19.1575 8.35517 19.5556C8.64671 20.3072 9.14906 20.9587 9.80185 21.4317C10.4547 21.9048 11.2301 22.1793 12.0352 22.2223C12.8374 22.2564 13.6324 22.0581 14.3246 21.6513C15.0169 21.2445 15.5769 20.6464 15.9374 19.9289C15.9431 19.9009 15.956 19.8747 15.9746 19.8529C15.9933 19.8311 16.0172 19.8145 16.0441 19.8045C16.0681 19.8381 16.0889 19.8738 16.1063 19.9112L16.1863 20.0801C16.4421 20.5731 16.793 21.0107 17.2186 21.3677C17.6442 21.7247 18.1362 21.994 18.6663 22.1601C19.0819 22.2803 19.5139 22.3343 19.9463 22.3201C20.6224 22.3147 21.2865 22.1403 21.878 21.8127C22.4695 21.4852 22.9697 21.0148 23.333 20.4445C23.6991 19.8857 23.9259 19.2472 23.9942 18.5826C24.0626 17.918 23.9706 17.2467 23.726 16.625C23.4813 16.0033 23.0911 15.4494 22.5881 15.0096C22.0851 14.5699 21.484 14.2572 20.8352 14.0978C20.5457 14.0183 20.2465 13.9794 19.9463 13.9823H19.413L19.4663 14.0178Z" fill="#DD2129"/>
<path d="M19.4223 14.0089H19.5556H19.9467C20.2467 13.9985 20.5465 14.0345 20.8356 14.1156C21.4834 14.278 22.0832 14.5928 22.5849 15.0337C23.0866 15.4746 23.4758 16.0289 23.7201 16.6506C23.9644 17.2722 24.0567 17.9432 23.9895 18.6077C23.9222 19.2722 23.6973 19.9111 23.3334 20.4711C22.9675 21.0282 22.4708 21.4872 21.8867 21.8079C21.3025 22.1287 20.6486 22.3015 19.9823 22.3111C19.2018 22.333 18.4311 22.1334 17.7593 21.7354C17.0876 21.3374 16.5424 20.7573 16.1867 20.0622L16.1067 19.9022C16.0918 19.8609 16.0708 19.8219 16.0445 19.7867C16.0191 19.799 15.9965 19.8163 15.9781 19.8378C15.9598 19.8592 15.946 19.8842 15.9378 19.9111C15.6911 20.4136 15.3436 20.86 14.9169 21.2224C14.4903 21.5848 13.9936 21.8556 13.4578 22.0178C12.9995 22.168 12.5171 22.2313 12.0356 22.2045C11.4574 22.1755 10.8915 22.0272 10.3734 21.7689C9.44437 21.3111 8.7211 20.5212 8.3467 19.5556C8.18524 19.1465 8.08925 18.7145 8.06225 18.2756C7.98272 17.1887 8.33756 16.1146 9.04892 15.2889C9.60918 14.6275 10.3712 14.1684 11.2178 13.9822C11.5923 13.8873 11.9783 13.8454 12.3645 13.8578H12.6311C12.6485 13.8588 12.6656 13.8541 12.68 13.8445C12.6945 13.8349 12.7054 13.8208 12.7111 13.8045C12.7111 13.8045 12.7111 13.7422 12.6578 13.7067C12.3972 13.3194 12.1992 12.8934 12.0711 12.4445C11.9649 12.0116 11.9288 11.5644 11.9645 11.12C11.9979 10.6563 12.1122 10.2021 12.3023 9.7778C12.5663 9.17364 12.974 8.64318 13.4899 8.23262C14.0058 7.82207 14.6142 7.54387 15.2623 7.42225C15.6662 7.34379 16.0791 7.32284 16.4889 7.36002C16.9558 7.39915 17.4111 7.52579 17.8311 7.73336C18.351 7.97193 18.816 8.31537 19.1969 8.74214C19.5778 9.16891 19.8663 9.66979 20.0445 10.2134C20.1848 10.6466 20.2509 11.1004 20.24 11.5556C20.2323 12.3895 19.972 13.2015 19.4934 13.8845C19.4617 13.9208 19.4375 13.9631 19.4223 14.0089ZM12.2045 14.5067C11.5013 14.5067 10.8138 14.7152 10.2291 15.1059C9.6444 15.4966 9.18868 16.0519 8.91957 16.7016C8.65046 17.3513 8.58005 18.0662 8.71724 18.7559C8.85443 19.4456 9.19306 20.0792 9.69032 20.5764C10.1876 21.0737 10.8211 21.4123 11.5108 21.5495C12.2005 21.6867 12.9154 21.6163 13.5651 21.3471C14.2148 21.078 14.7701 20.6223 15.1608 20.0376C15.5515 19.4529 15.76 18.7655 15.76 18.0622C15.76 17.5953 15.6681 17.133 15.4894 16.7016C15.3107 16.2702 15.0488 15.8783 14.7186 15.5481C14.3885 15.2179 13.9965 14.956 13.5651 14.7773C13.1337 14.5987 12.6714 14.5067 12.2045 14.5067ZM16.3467 18.1689C16.345 18.8618 16.5484 19.5397 16.9312 20.1173C17.314 20.6949 17.8591 21.1462 18.4979 21.4146C19.1368 21.683 19.8407 21.7563 20.5211 21.6254C21.2016 21.4945 21.828 21.1652 22.3217 20.6789C22.8153 20.1927 23.1541 19.5713 23.2953 18.8929C23.4364 18.2145 23.3737 17.5095 23.1151 16.8667C22.8564 16.2239 22.4133 15.672 21.8416 15.2805C21.2699 14.889 20.5951 14.6755 19.9023 14.6667H19.8134C18.8919 14.6827 18.0126 15.0559 17.3609 15.7076C16.7092 16.3592 16.336 17.2385 16.32 18.16L16.3467 18.1689ZM19.6089 11.4756C19.6002 10.7831 19.3868 10.1087 18.9957 9.53717C18.6046 8.96565 18.0532 8.52254 17.4109 8.2636C16.7686 8.00465 16.0641 7.94143 15.386 8.08188C14.7078 8.22234 14.0864 8.56019 13.5998 9.05296C13.1132 9.54572 12.7832 10.1714 12.6513 10.8512C12.5193 11.5311 12.5914 12.2347 12.8584 12.8737C13.1254 13.5127 13.5754 14.0585 14.1518 14.4424C14.7282 14.8262 15.4053 15.0311 16.0978 15.0311C17.0224 15.0174 17.9052 14.644 18.559 13.9901C19.2129 13.3363 19.5863 12.4535 19.6 11.5289L19.6089 11.4756ZM15.6089 15.68L15.9823 16.3734L16.0356 16.4356L16.0889 16.3556C16.194 16.1287 16.3189 15.9116 16.4623 15.7067C16.4823 15.68 16.4974 15.6499 16.5067 15.6178C16.4663 15.6042 16.4226 15.6042 16.3823 15.6178C16.196 15.6356 16.0085 15.6356 15.8223 15.6178H15.6978C15.6779 15.6151 15.6577 15.62 15.6412 15.6315C15.6247 15.6431 15.6132 15.6604 15.6089 15.68Z" fill="#FEFDFD"/>
<path d="M12.2045 14.5067C12.9077 14.5067 13.5951 14.7152 14.1798 15.1059C14.7646 15.4966 15.2203 16.0519 15.4894 16.7016C15.7585 17.3513 15.8289 18.0662 15.6917 18.7559C15.5545 19.4456 15.2159 20.0792 14.7186 20.5764C14.2214 21.0737 13.5878 21.4123 12.8981 21.5495C12.2084 21.6867 11.4935 21.6163 10.8438 21.3472C10.1941 21.0781 9.63883 20.6223 9.24815 20.0376C8.85746 19.4529 8.64893 18.7655 8.64893 18.0623C8.64893 17.1193 9.02353 16.2149 9.69032 15.5481C10.3571 14.8813 11.2615 14.5067 12.2045 14.5067Z" fill="#DE2129"/>
<path d="M16.3467 18.1689C16.3554 17.4765 16.5688 16.8021 16.9599 16.2305C17.351 15.659 17.9024 15.2159 18.5447 14.957C19.187 14.698 19.8915 14.6348 20.5696 14.7752C21.2478 14.9157 21.8692 15.2536 22.3558 15.7463C22.8424 16.2391 23.1724 16.8647 23.3043 17.5446C23.4362 18.2244 23.3642 18.9281 23.0972 19.5671C22.8302 20.2061 22.3802 20.7518 21.8038 21.1357C21.2274 21.5196 20.5503 21.7244 19.8578 21.7245H19.76C18.8419 21.6877 17.9736 21.297 17.3373 20.6341C16.701 19.9713 16.3459 19.0878 16.3467 18.1689Z" fill="#DE2129"/>
<path d="M19.6089 11.4667C19.6177 12.1629 19.4193 12.8461 19.0389 13.4293C18.6584 14.0125 18.1132 14.4694 17.4725 14.742C16.8317 15.0146 16.1244 15.0905 15.4404 14.9601C14.7564 14.8297 14.1267 14.4988 13.6312 14.0096C13.1357 13.5204 12.7968 12.8949 12.6577 12.2126C12.5186 11.5303 12.5855 10.8221 12.8499 10.1779C13.1143 9.53377 13.5642 8.98276 14.1425 8.59496C14.7209 8.20715 15.4014 8.00006 16.0977 8C17.0178 8.01122 17.8977 8.37869 18.5525 9.02517C19.2073 9.67166 19.5859 10.5468 19.6089 11.4667Z" fill="#DE2129"/>
<path d="M15.6089 15.6801C15.6149 15.659 15.6277 15.6405 15.6455 15.6276C15.6632 15.6147 15.6848 15.6082 15.7067 15.609H15.8311C16.0174 15.6267 16.2049 15.6267 16.3911 15.609C16.4107 15.6001 16.4319 15.5956 16.4533 15.5956C16.4748 15.5956 16.496 15.6001 16.5156 15.609C16.5185 15.6356 16.5185 15.6624 16.5156 15.689C16.3741 15.895 16.2493 16.112 16.1422 16.3379L16.0889 16.4179L16 16.3912L15.6267 15.6979L15.6089 15.6801Z" fill="#DC252C"/>
</g>
<defs>
<clipPath id="clip0_2707_330248">
<rect width="32" height="32" fill="white"/>
</clipPath>
</defs>
</svg>
