<svg width="32" height="32" viewBox="0 0 32 32" fill="none" xmlns="http://www.w3.org/2000/svg">
<g clip-path="url(#clip0_2707_329813)">
<path d="M16 32C24.8366 32 32 24.8366 32 16C32 7.16344 24.8366 0 16 0C7.16344 0 0 7.16344 0 16C0 24.8366 7.16344 32 16 32Z" fill="white"/>
<path d="M15.9998 29.3334C23.3636 29.3334 29.3332 23.3638 29.3332 16C29.3332 8.63622 23.3636 2.66669 15.9998 2.66669C8.63604 2.66669 2.6665 8.63622 2.6665 16C2.6665 23.3638 8.63604 29.3334 15.9998 29.3334Z" fill="white"/>
<path d="M9.58203 24.2845V22.4H9.96425V24.2845H9.58203Z" fill="#006E9B"/>
<path d="M10.3022 24.2845V22.4H10.6667L11.44 23.6622V22.4H11.7867V24.2845H11.4134L10.6667 23.0578V24.2845H10.3022Z" fill="#006E9B"/>
<path d="M12.1602 22.4H12.8535C12.9746 22.3869 13.0968 22.3869 13.2179 22.4C13.3251 22.4366 13.4225 22.4975 13.5024 22.5778C13.5833 22.6641 13.644 22.7673 13.6802 22.88C13.7232 23.0242 13.7441 23.174 13.7424 23.3244C13.7441 23.4603 13.7231 23.5955 13.6802 23.7244C13.6437 23.8509 13.573 23.9647 13.4757 24.0533C13.4023 24.1271 13.3101 24.1794 13.209 24.2044C13.1025 24.2366 12.9914 24.2516 12.8802 24.2489H12.1602V22.4ZM12.5424 22.72V24H12.8268C12.9036 24.0088 12.9811 24.0088 13.0579 24C13.1153 23.9895 13.1681 23.9615 13.209 23.92C13.2571 23.8706 13.2908 23.8092 13.3068 23.7422C13.3244 23.6273 13.3244 23.5104 13.3068 23.3956C13.3243 23.2866 13.3243 23.1756 13.3068 23.0667C13.289 22.9959 13.2521 22.9313 13.2002 22.88C13.15 22.8348 13.0886 22.8041 13.0224 22.7911C12.9189 22.782 12.8148 22.782 12.7113 22.7911L12.5424 22.72Z" fill="#006E9B"/>
<path d="M16.2578 24.2845V22.4H16.8889C17.0393 22.3792 17.1919 22.3792 17.3423 22.4C17.4495 22.4256 17.5441 22.4886 17.6089 22.5778C17.6821 22.6849 17.7195 22.8125 17.7156 22.9422C17.7224 23.0439 17.7008 23.1454 17.6534 23.2356C17.6179 23.3111 17.5626 23.3756 17.4934 23.4222C17.4356 23.466 17.3688 23.4964 17.2978 23.5111C17.1676 23.5202 17.0369 23.5202 16.9067 23.5111H16.6578V24.2222L16.2578 24.2845ZM16.6311 22.72V23.2533H16.8889C16.9862 23.2673 17.085 23.2673 17.1823 23.2533C17.2315 23.2353 17.274 23.2026 17.3042 23.1597C17.3344 23.1168 17.3507 23.0658 17.3511 23.0133C17.3518 22.9531 17.3305 22.8946 17.2912 22.8488C17.252 22.803 17.1975 22.7731 17.1378 22.7645C17.0462 22.7559 16.9539 22.7559 16.8623 22.7645L16.6311 22.72Z" fill="#006E9B"/>
<path d="M17.8579 23.3511C17.8565 23.1869 17.8867 23.0239 17.9468 22.8711C17.9925 22.7765 18.0524 22.6896 18.1246 22.6133C18.1947 22.5441 18.2758 22.487 18.3646 22.4444C18.4934 22.3888 18.6335 22.3644 18.7735 22.3733C18.8953 22.3656 19.0173 22.3847 19.131 22.4293C19.2446 22.4738 19.3471 22.5427 19.4313 22.6311C19.5223 22.7242 19.5918 22.8361 19.6348 22.959C19.6778 23.0818 19.6933 23.2127 19.6801 23.3422C19.6969 23.6016 19.6107 23.8571 19.4401 24.0533C19.3529 24.1401 19.2486 24.2078 19.1339 24.2522C19.0191 24.2965 18.8964 24.3166 18.7735 24.3111C18.6512 24.3178 18.5289 24.2991 18.4142 24.2563C18.2994 24.2134 18.1948 24.1474 18.1068 24.0622C17.9355 23.866 17.8464 23.6113 17.8579 23.3511ZM18.249 23.3511C18.2375 23.5244 18.2914 23.6957 18.4001 23.8311C18.4473 23.8787 18.5033 23.9164 18.5651 23.9422C18.6269 23.968 18.6932 23.9812 18.7601 23.9812C18.8271 23.9812 18.8934 23.968 18.9552 23.9422C19.017 23.9164 19.073 23.8787 19.1201 23.8311C19.2106 23.684 19.2584 23.5148 19.2584 23.3422C19.2584 23.1696 19.2106 23.0003 19.1201 22.8533C19.0205 22.7556 18.8864 22.7009 18.7468 22.7009C18.6072 22.7009 18.4732 22.7556 18.3735 22.8533C18.2642 22.9919 18.2103 23.1661 18.2224 23.3422L18.249 23.3511Z" fill="#006E9B"/>
<path d="M19.9287 24.2845V22.4178H20.302V24H21.2443V24.32L19.9287 24.2845Z" fill="#006E9B"/>
<path d="M21.7065 24.2845V23.4934L21.0132 22.4H21.4576L21.9021 23.1467L22.3376 22.4H22.7732L22.0799 23.4934V24.2845H21.7065Z" fill="#006E9B"/>
<path d="M16.0002 23.2V23.1111V23.0133L15.9469 22.9155L15.8935 22.8266L15.8313 22.7377L15.7602 22.6577L15.6802 22.5866L15.6002 22.5333L15.5024 22.48L15.4135 22.4266H15.3069H15.2091H15.1024H14.8802H14.7646H14.658H14.5602L14.4624 22.48L14.3735 22.5333L14.2935 22.5866L14.2135 22.6577L14.1424 22.7377L14.0802 22.8266L14.0269 22.9155V23.0133V23.1111V23.2177V23.3244V23.5466V23.6533V23.76V23.8577V23.9555L14.0802 24.0444L14.1424 24.1333L14.2135 24.2133L14.2935 24.2844L14.3735 24.3377L14.4624 24.4L14.5602 24.4444H14.658H14.7646H14.8802H15.1113H15.218H15.3157H15.4224L15.5113 24.4L15.6091 24.3377L15.6891 24.2844L15.7691 24.2133L15.8402 24.1333L15.9024 24.0444L15.9557 23.9555L16.0091 23.8577V23.76V23.6533V23.5466V23.3244L16.0002 23.2ZM15.8935 23.52V23.6177V23.7066V23.7955V23.8755L15.8491 23.9555L15.7869 24.0266L15.7246 24.0977L15.6535 24.1689L15.5824 24.2222L15.5024 24.2666L15.4135 24.3111H15.3246H15.2357H15.138H14.9424H14.8446H14.7557H14.6669L14.5869 24.2666L14.498 24.2222L14.4269 24.1689L14.3557 24.0977L14.2224 24H14.1691V23.92L14.1246 23.84V23.7511V23.6622V23.2622V23.1733V23.0844L14.1691 23.0044V22.9244L14.2224 22.8444L14.2846 22.7733L14.3557 22.72L14.4269 22.6577L14.5157 22.6133L14.5957 22.5689H14.6846H14.7735H14.8713H15.1113H15.2091H15.298H15.3869L15.4757 22.6133L15.5557 22.6577L15.6269 22.72L15.698 22.7733L15.7602 22.8444L15.8224 22.9244L15.8669 23.0044V23.0844V23.1733V23.2622V23.5644L15.8935 23.52Z" fill="#DF2E2E"/>
<path d="M15.7866 23.2533V23.1733V23.0933V23.0222L15.7422 22.9511L15.6977 22.8889L15.6444 22.8266L15.5822 22.7733L15.5199 22.72H15.4488H15.3688H15.2977H15.2177H15.1377H14.9688H14.8799H14.7999H14.7288H14.6577H14.5866L14.5155 22.7733L14.4533 22.8266L14.3999 22.8889L14.3555 22.9511V23.0222L14.2222 23.1111V23.1911V23.2711V23.6V23.68V23.76V23.8311V23.9022L14.2666 23.9644L14.3199 24.0266L14.3822 24.08L14.4533 24.1333L14.5155 24.1777H14.5955H14.6666H14.7466H14.8355H14.9955H15.0844H15.1644H15.2355H15.3155L15.3866 24.1333L15.4488 24.08L15.5111 24.0266V23.9733L15.5644 23.9022L15.6088 23.8311V23.76V23.6889V23.6089V23.2711L15.7866 23.2533ZM15.6711 23.4844V23.5555V23.6266V23.6889L15.6088 23.8133L15.5199 23.9111L15.4133 24L15.2977 24.0622H15.2266H15.1644H14.8799H14.8088H14.7466L14.5777 24L14.4711 23.9111L14.4266 23.8577L14.3822 23.8133V23.7511V23.6889V23.6266V23.5555V23.28V23.2089V23.1377V23.0844V23.0222L14.4799 22.9244L14.5777 22.8355H14.6311H14.6933H14.7555H14.8266H15.1111H15.1733H15.2444H15.2977H15.3599H15.4133L15.4577 22.88L15.5466 22.9777L15.6177 23.1022V23.1644V23.2355V23.44L15.6711 23.4844Z" fill="#DF2E2E"/>
<path d="M15.5022 23.1911L15.44 23.1022L15.3689 23.0134L15.2889 22.9422L15.1911 22.8889H15.0844H14.9689H14.8533H14.7467L14.6489 22.9422L14.56 23.0134L14.4978 23.1022L14.4355 23.1911V23.2978V23.4222V23.5378V23.6445L14.4978 23.7334L14.56 23.8222L14.6489 23.8934L14.7467 23.9467H14.8533H15.1111H15.2178L15.3155 23.8934L15.3955 23.8222L15.4667 23.7334L15.5289 23.6445V23.5378V23.4222V23.2978L15.5022 23.1911ZM15.4044 23.5111V23.5911V23.6623L15.3422 23.7334L15.28 23.7867H15.2089H15.12H14.9422H14.8622H14.7822L14.72 23.7334L14.6667 23.6623L14.6222 23.5911V23.5111V23.3334V23.2445L14.6667 23.1734L14.72 23.1022L14.7822 23.0489H14.8622H14.9422H15.12H15.2089H15.28L15.3422 23.1022L15.4044 23.1734V23.2445V23.3334V23.5111Z" fill="#DF2E2E"/>
<path d="M22.2934 13.6178V13.2978V12.9689L22.2311 12.6578L22.16 12.3467L22.0711 12.0356L21.9734 11.7422L21.8578 11.4489L21.7245 11.1645L21.5823 10.8889L21.3334 10.6133L21.1645 10.3556L20.9867 10.1067L20.8 9.85779L20.5956 9.62668L20.4445 9.40446L20.2134 9.19113L19.9823 8.98668L19.7423 8.79113L19.4845 8.61335L19.2 8.44446L18.9334 8.29335L18.6667 8.15113L18.3645 8.00001L18.08 7.87557L17.7778 7.80446L17.4667 7.71557L17.1556 7.64446L16.8889 7.59113H16.5689H16.24H15.5823H15.2534H14.9334L14.6134 7.64446L14.2223 7.71557L13.92 7.80446L13.6178 7.90224L13.3334 8.00001L13.0489 8.12446L12.7734 8.26668L12.5067 8.41779L12.24 8.58668L11.9911 8.76446L11.7511 8.96001L11.5111 9.16446L11.2889 9.37779L11.0756 9.60001L10.8711 9.83113L10.6845 10.08L10.5067 10.3289L10.3378 10.5867L10.1778 10.8622L10.0356 11.1378L9.91114 11.4222L9.79559 11.7156L9.69781 12.0089L9.60892 12.3111L9.52892 12.6311L9.47559 12.9422V13.2622V13.5911V14.2489V14.5778V14.8978L9.53781 15.2178L9.60892 15.5289L9.69781 15.8311L9.79559 16.1333L9.91114 16.4267L10.0356 16.7111L10.1867 16.9867L10.3378 17.2533L10.5067 17.52L10.6845 17.7689L10.8711 18.0178L11.0756 18.2489L11.2889 18.4711L11.52 18.6845L11.7511 18.8889L11.9911 19.0845L12.2489 19.2622L12.5067 19.4311L12.7734 19.5822L13.0578 19.7245L13.3334 19.8489L13.6267 19.9733L13.9289 20.0711L14.2311 20.16L14.5423 20.2311L14.8623 20.2845H15.1823H15.5023H16.1689H16.4978H16.8178L17.1289 20.2311L17.44 20.16L17.7511 20.0711L18.0445 19.9645L18.3378 19.8489L18.6223 19.7245L18.9067 19.5822L19.1734 19.4222L19.4311 19.2622L19.6889 19.0756L19.9289 18.8889L20.16 18.6845L20.3911 18.4711L20.6045 18.2489L20.8 18.0178L20.9956 17.7689L21.1734 17.52L21.3423 17.2533L21.4934 16.9867L21.6356 16.7111L21.7689 16.4267L21.8845 16.1333L21.9823 15.8311L22.0711 15.5289L22.1423 15.2178L22.2045 14.8978V14.5778V14.2489V13.5911L22.2934 13.6178ZM22.0623 14.2667V14.5867L22.0178 14.8978L21.9645 15.2L21.8934 15.4933L21.8134 15.7867L21.7156 16.08L21.6 16.3645L21.4756 16.64L21.3334 16.8889L21.1911 17.1467L21.0311 17.3956L20.8534 17.6445L20.6667 17.8756L20.48 18.1067L20.2667 18.32L20.0534 18.5245L19.8311 18.72L19.5911 18.8978L19.3511 19.0756L19.0934 19.2356L18.8356 19.3867L18.5689 19.52L18.2934 19.6445L18.0178 19.76L17.7245 19.8578L17.4311 19.9467L17.1289 20.0089L16.8267 20.0622L16.5156 20.1067H16.2045H15.5645H15.2534L14.9423 20.0622L14.64 20.0089L14.3378 19.9467L14.0445 19.8578L13.7511 19.76L13.4756 19.6533L13.1823 19.5556L12.9156 19.4222L12.6489 19.2711L12.4445 19.0933L12.2045 18.9245L11.9645 18.7378L11.7423 18.5422L11.52 18.3378L11.3156 18.1245L11.12 17.8933L10.9334 17.6622L10.7645 17.4133L10.6045 17.1645L10.4089 16.8889L10.2667 16.6222L10.1511 16.3467L10.0356 16.0622L9.93781 15.7689L9.85781 15.4756L9.77781 15.2V14.8978V14.5867V14.2667V13.6267V13.3156V13.0045L9.83114 12.7022L9.90225 12.4L9.98225 12.1067L10.08 11.8222L10.1956 11.5378L10.32 11.2622L10.4534 10.9956L10.6045 10.7378L10.7645 10.4889L10.9423 10.24L11.1289 10L11.3156 9.77779L11.5289 9.56446L11.7423 9.36001L11.9645 9.16446L12.2045 8.97779L12.4445 8.8089L12.7023 8.6489L12.96 8.4889L13.2267 8.35557L13.5023 8.23113L13.7778 8.12446L14.0267 8.00001L14.32 7.91113L14.6223 7.84001L14.9245 7.78668H15.2356H15.5467H16.1867H16.4978H16.8089L17.1111 7.84001L17.4134 7.91113L17.7067 7.99113L17.9911 8.09779L18.2756 8.20446L18.5511 8.3289L18.8178 8.46224L19.0756 8.62224L19.3334 8.77335L19.5734 8.95113L19.8134 9.13779L20.0356 9.33335L20.2489 9.53779L20.4445 9.77779L20.64 10L20.8267 10.24L21.0045 10.4889L21.1645 10.7378L21.3067 10.9956L21.4489 11.2622L21.5734 11.5378L21.68 11.8222L21.7867 12.1067L21.8667 12.4L21.9378 12.7022L21.9911 13.0045L22.0356 13.3156V13.6267V14.2667H22.0623Z" fill="#006E9B"/>
<path d="M21.7599 13.3333V13.0311L21.7066 12.7467L21.5999 12.4444L21.5199 12.1689L21.431 11.8933L21.3243 11.6267L21.2088 11.36L21.0755 11.1022L20.9332 10.8533L20.7821 10.6667L20.6132 10.4356L20.4355 10.2133L20.2488 10L20.0532 9.77778L19.8488 9.58222L19.6266 9.39556L19.4043 9.22667L19.1732 9.05778L18.9332 8.88889L18.6666 8.74667L18.4088 8.61333L18.151 8.48889L17.8755 8.38222L17.5999 8.29333L17.3243 8.21333L17.0399 8.15111L16.7466 8.09778H16.4532H16.151H15.5555H15.2621H14.9688L14.6755 8.15111L14.391 8.21333L14.1155 8.29333L13.8399 8.38222L13.5643 8.48889L13.2977 8.61333L13.0488 8.74667L12.7999 8.88889L12.5599 9.04889L12.3288 9.21778L12.1066 9.38667L11.8843 9.57333L11.6799 9.76889L11.4843 9.98222L11.2977 10.1956L11.1199 10.4178L10.951 10.6489L10.7999 10.8889L10.6577 11.1378L10.5243 11.3956L10.4088 11.6533L10.3021 11.9289L10.2132 12.2044L10.1243 12.48L10.0621 12.7644L10.0088 13.0578V13.3511V13.6533V14.2222V14.5244V14.8178L10.0621 15.1111L10.1243 15.3956L10.2132 15.68L10.3021 15.9467L10.4088 16.2222L10.5243 16.4889L10.6577 16.7378L10.7999 16.9867L10.951 17.2267L11.1199 17.4578L11.2977 17.68L11.4843 17.9022L11.6799 18.1067L11.8843 18.3022L12.1066 18.4889L12.3199 18.6667L12.5599 18.8356L12.7999 18.9867L13.0488 19.1289L13.2977 19.2622L13.5643 19.3778L13.8399 19.4844L14.1066 19.5822L14.391 19.6622L14.6755 19.7244L14.9688 19.7778H15.2621H15.5555H16.1688H16.471H16.7643L17.0577 19.7244L17.3421 19.6622L17.6177 19.5822L17.8932 19.4844L18.1688 19.3778L18.4266 19.2622L18.6843 19.1289L18.9332 18.9867L19.1732 18.8356L19.4043 18.6667L19.6266 18.4889L19.8488 18.3022L20.0532 18.1067L20.2488 17.9022L20.4355 17.68L20.6132 17.4667L20.7821 17.2267L20.9332 16.9867L21.0755 16.7378L21.2088 16.4889L21.3243 16.2222L21.431 15.9556L21.5199 15.68L21.5999 15.3956L21.671 15.1111L21.7243 14.8178V14.5244V14.2311V13.6178L21.7599 13.3333ZM21.5555 14.2222V14.5156V14.8L21.511 15.0756L21.4399 15.3511L21.3688 15.6178L21.271 15.8844L21.1732 16.1422L21.0577 16.3911L20.9332 16.64L20.7999 16.88L20.6488 17.1111L20.4888 17.3333L20.3199 17.5556L20.1421 17.76L19.9555 17.9556L19.751 18.1422L19.5466 18.32L19.3243 18.4978L19.1021 18.6489L18.871 18.8L18.6399 18.9333L18.391 19.0667L18.1421 19.1733L17.8755 19.28L17.6177 19.3689L17.351 19.4489L17.0755 19.5111L16.791 19.5644H16.5066H16.2221H15.6355H15.351H15.0577L14.7199 19.5556L14.4443 19.4933L14.1777 19.4133L13.911 19.3244L13.6532 19.2178L13.4043 19.1111L13.1555 18.9778L12.9155 18.8444L12.6843 18.6667L12.4443 18.5156L12.2221 18.3378L12.0177 18.16L11.8221 17.9733L11.6532 17.7778L11.4755 17.5644L11.2977 17.3511L11.1466 17.1289L10.9955 16.8889L10.8621 16.6489L10.7288 16.4L10.6132 16.1511L10.5155 15.8933L10.4266 15.6267L10.3466 15.36L10.2843 15.1111L10.231 14.8267V14.5511V14.2578V13.6711V13.3867V13.1022L10.2755 12.8267L10.3377 12.5511L10.4177 12.2756L10.5066 12.0178L10.6132 11.7511L10.7199 11.5022L10.8532 11.2622L10.9866 11.0133L11.1377 10.7822L11.2888 10.56L11.4666 10.3467L11.6443 10.1422L11.831 9.93778L12.0266 9.75111L12.231 9.57333L12.4532 9.40445L12.6755 9.24444L12.9066 9.10222L13.1466 8.96L13.3866 8.83556L13.6443 8.72L13.9021 8.62222L14.1688 8.53333L14.4355 8.45333L14.711 8.39111L14.9955 8.33778H15.2799H15.5643H16.151H16.4355H16.7199L17.0043 8.39111L17.2799 8.45333L17.5466 8.53333L17.8043 8.62222L18.071 8.72L18.3199 8.83556L18.5688 8.96L18.7999 9.10222L19.0399 9.24444L19.2621 9.40445L19.4755 9.57333L19.6799 9.75111L19.8843 9.93778L20.071 10.1333L20.2488 10.3467L20.4177 10.56L20.5777 10.7822L20.7199 11.0133L20.8621 11.2533L20.9866 11.5022L21.1021 11.7511L21.2088 12.0089L21.2977 12.2756L21.3688 12.5511L21.4399 12.8267L21.4843 13.1022V13.3867V13.6711V14.2222H21.5555Z" fill="#006E9B"/>
<path d="M21.2001 13.4044V13.1377L21.1468 12.8711L21.0935 12.6133L21.0224 12.3555L20.9335 12.1066L20.8357 11.8666L20.729 11.6266L20.6135 11.4044L20.4446 11.1733L20.3113 10.96L20.1513 10.7466L20.0001 10.5422L19.8224 10.3466L19.6535 10.16L19.4668 9.98219L19.2713 9.77775L19.0668 9.61775L18.8535 9.47553L18.6668 9.36886L18.4446 9.24441L18.2135 9.11997L17.9735 9.0133L17.7068 8.88886L17.4579 8.80886L17.2001 8.72886L16.9424 8.67553L16.6757 8.62219H16.409H16.1424H15.5913H15.3246H15.0579L14.7913 8.67553L14.5335 8.72886L14.2757 8.80886L14.0268 8.88886L13.7868 8.98664L13.5468 9.0933L13.3335 9.24441L13.1113 9.36886L12.889 9.51108L12.6846 9.6533L12.4446 9.77775L12.249 9.94664L12.0624 10.1244L11.8846 10.3111L11.7157 10.5066L11.5557 10.7111L11.4046 10.9244L11.2624 11.1377L11.1379 11.3689L11.0224 11.5911L10.9068 11.8311L10.8179 12.0711L10.729 12.32L10.6579 12.5777L10.5957 12.8355V13.1022V13.3689V13.6355V14.2222V14.4977V14.7644V15.0222L10.6579 15.2889L10.729 15.5377L10.809 15.7866L10.9068 16.0266L11.0224 16.2666L11.1379 16.4977L11.2624 16.7289L11.4046 16.9422L11.5557 17.1555L11.7157 17.3511L11.8846 17.5466L12.0624 17.7333L12.249 17.9111L12.4446 18.0889L12.649 18.24L12.8535 18.3911L13.0757 18.5333L13.3335 18.6666L13.5646 18.7911L13.8046 18.8977L14.0446 18.9955L14.2935 19.0844L14.5513 19.1555L14.809 19.2089L15.0668 19.2622H15.3335H15.609H16.1601H16.4268H16.6935H16.9601L17.2179 19.2L17.4757 19.1289L17.7157 19.04L17.9646 18.9422L18.2046 18.8355L18.4357 18.72L18.6579 18.5866L18.8801 18.4533L19.0846 18.3022L19.289 18.1511L19.4846 17.9733L19.6713 17.8044L19.849 17.6089L20.0179 17.4222L20.1779 17.2177L20.329 17.0044L20.4624 16.7911L20.5957 16.56L20.7113 16.3289L20.8001 16L20.8979 15.7511L20.9868 15.5022L21.0579 15.2533L21.1201 14.9955V14.7289V14.4622V14.1866V13.6444L21.2001 13.4044ZM20.9868 14.2133V14.4711V14.7289L20.9424 14.9777L20.889 15.2266L20.8179 15.4755L20.7379 15.7066L20.649 15.9466L20.5424 16.1689L20.4268 16.3911L20.3024 16.6044L20.169 16.8089L20.0268 17.0133L19.8757 17.2089L19.7157 17.3955L19.5379 17.5733L19.3601 17.7422L19.1735 17.9022L18.9868 18.0533L18.7824 18.2044L18.5779 18.3377L18.3646 18.4533L18.1424 18.5689L17.9113 18.6755L17.6801 18.7644L17.4401 18.8444L17.2001 18.9155L16.9513 18.9689L16.7024 19.0222H16.4446H16.1868H15.6535H15.3957H15.1379L14.889 18.9689L14.6401 18.9155L14.4001 18.8444L14.1601 18.7644L13.929 18.6755L13.6979 18.5689L13.4757 18.4533L13.2624 18.3377L13.0579 18.2044L12.8535 18.0533L12.6579 17.9022L12.4446 17.7777L12.2668 17.6089L12.0979 17.4311L11.9379 17.2444L11.7868 17.0489L11.6446 16.8444L11.5113 16.64L11.3868 16.4266L11.2713 16.2044L11.1646 15.9822L11.0757 15.7422L10.9957 15.5111L10.9246 15.2622L10.8624 15.0133V14.7644V14.5066V14.2489V13.6889V13.4222V13.1733V12.9155L10.9246 12.6666L10.9957 12.4266L11.0757 12.1866L11.1646 11.9555L11.2713 11.7244L11.3868 11.5022L11.5113 11.2889L11.6446 11.0844L11.7868 10.88L11.9113 10.6666L12.0713 10.48L12.2401 10.3022L12.4179 10.1333L12.6046 9.9733L12.8001 9.82219L13.0046 9.67997L13.209 9.54664L13.4224 9.42219L13.6446 9.30664L13.8757 9.20886L14.1068 9.11108L14.3468 9.03108L14.5868 8.95997L14.8357 8.90664L15.1113 8.88886H15.369H15.6268H16.1601H16.4179H16.6757H16.889L17.1379 8.94219L17.3779 9.0133L17.6179 9.0933L17.849 9.19108L18.0801 9.28886L18.3024 9.40441L18.5157 9.52886L18.7201 9.66219L18.9246 9.80441L19.1113 9.95553L19.2979 10.1155L19.4757 10.2844L19.6535 10.4622L19.8135 10.6577L19.9646 10.8444L20.1068 11.0489L20.2401 11.2533L20.3646 11.4666L20.4801 11.6889L20.5868 11.92L20.6757 12.1511L20.7557 12.3911L20.8268 12.6311L20.8801 12.88L20.9246 13.1377V13.3866V13.6533V14.2222L20.9868 14.2133Z" fill="#006E9B"/>
<path d="M20.7732 13.44V13.2V12.96L20.7198 12.72L20.5687 12.4444L20.4976 12.2222L20.4087 12L20.311 11.7778L20.1954 11.5644L20.0799 11.36L19.9465 11.1556L19.8132 10.9689L19.6621 10.7822L19.5554 10.6667L19.3954 10.4889L19.2265 10.3289L19.0399 10.1689L18.8621 10.0267L18.6665 9.86666L18.4176 9.77777L18.2132 9.66222L17.9998 9.55555L17.7776 9.41333L17.5643 9.32444L17.3332 9.24444L17.0932 9.18222L16.8887 9.12H16.6398H16.3999H16.1421H15.6443H15.3865H15.1376H14.8976L14.6576 9.18222L14.4265 9.24444L14.2043 9.32444L13.9821 9.41333L13.7598 9.51111L13.5465 9.61777L13.3332 9.77777L13.1287 9.91111L12.9421 10.0444L12.7465 10.1867L12.5687 10.3467L12.3998 10.5067L12.2399 10.6844L12.0799 10.8533L11.9376 11.0489L11.7954 11.2356L11.671 11.44L11.5554 11.6444L11.4487 11.8578L11.351 12.08L11.2621 12.3022L11.1821 12.5244L11.1199 12.7644L11.0576 13.0044L11.0132 13.2444V13.4844V13.7422V14.2222V14.48V14.72L11.0576 14.96L11.1199 15.2L11.1821 15.4311L11.2621 15.6711L11.351 15.8844L11.4487 16.1067L11.5554 16.32L11.671 16.5244L11.7954 16.72L11.9376 16.9244L12.0799 17.1022L12.2399 17.2889L12.3998 17.4578L12.5687 17.6178L12.7465 17.7689L12.9421 17.92L13.1287 18.0533L13.3332 18.1867L13.5376 18.3022L13.751 18.4178L13.9732 18.5156L14.1954 18.6044L14.4176 18.6756L14.6576 18.7467L14.8976 18.8L15.1287 18.8444H15.3776H16.391H16.631L16.871 18.8L17.111 18.7467L17.3421 18.6756L17.5732 18.6044L17.7954 18.5156L18.0176 18.4178L18.231 18.3022L18.4354 18.1867L18.631 18.0533L18.8354 17.92L19.0132 17.7689L19.1999 17.6178L19.3687 17.4578L19.5287 17.2889L19.6798 17.1022L19.831 16.9244L19.9643 16.72L20.0976 16.5244L20.2132 16.32L20.3287 16.1067L20.4265 15.8844L20.5154 15.6711L20.5865 15.4311L20.6576 15.2L20.711 14.96V14.72V14.48V14.2222V13.7244L20.7732 13.44Z" fill="#DF2E2E"/>
<path d="M19.4669 16.1511H18.7646C18.7179 16.1548 18.671 16.1491 18.6264 16.1346C18.5819 16.12 18.5407 16.0967 18.5052 16.0662C18.4696 16.0356 18.4405 15.9983 18.4194 15.9565C18.3984 15.9146 18.3858 15.869 18.3824 15.8222V13.1556H15.378C15.3658 13.1901 15.3658 13.2277 15.378 13.2622C15.378 13.3511 15.378 13.3689 15.378 13.3689H17.1558C17.4434 13.4698 17.6881 13.6656 17.8497 13.9241C18.0112 14.1826 18.08 14.4884 18.0446 14.7911C18.0446 15.9822 17.2446 16.1511 17.2358 16.16H13.0758C12.9577 16.1666 12.8394 16.1496 12.728 16.1099C12.6166 16.0702 12.5142 16.0087 12.4269 15.9289C12.3191 15.8135 12.2615 15.6601 12.2669 15.5022V12.1422C12.2623 12.0891 12.2704 12.0356 12.2905 11.9861C12.3105 11.9367 12.3421 11.8927 12.3824 11.8578C12.4714 11.7824 12.586 11.7442 12.7024 11.7511H13.2091C13.3175 11.7481 13.423 11.7856 13.5052 11.8563C13.5874 11.927 13.6403 12.0258 13.6535 12.1334V14.3467C13.6499 14.4099 13.6591 14.4731 13.6805 14.5327C13.7019 14.5923 13.735 14.6469 13.778 14.6934C13.8588 14.7647 13.9636 14.8028 14.0713 14.8H16.738V14.6222H15.1113C14.8437 14.6236 14.5858 14.5217 14.3913 14.3378C14.2531 14.1913 14.1469 14.0177 14.0796 13.8279C14.0123 13.6381 13.9852 13.4364 14.0002 13.2356C14.0002 11.8045 15.1291 11.7422 15.138 11.7422H19.2002C19.6358 11.7422 19.7869 12.2134 19.8046 12.4622V15.7778C19.8046 16.0089 19.5469 16.1245 19.538 16.1334L19.4669 16.1511ZM18.5246 15.8222C18.5246 15.8222 18.5246 16 18.7646 16H19.4491C19.4491 16 19.6091 15.9022 19.6091 15.7956V12.4445C19.6091 12.4445 19.5558 11.8667 19.1558 11.8667H15.1113C15.0491 11.8667 14.1158 11.9378 14.1158 13.2089C14.0958 13.3915 14.1147 13.5762 14.1714 13.7509C14.2281 13.9256 14.3212 14.0862 14.4446 14.2222C14.6094 14.3811 14.8291 14.4702 15.058 14.4711H16.8358C16.8546 14.4711 16.8727 14.4786 16.886 14.492C16.8994 14.5053 16.9069 14.5234 16.9069 14.5422V14.8622C16.9049 14.8804 16.8968 14.8974 16.8839 14.9104C16.8709 14.9233 16.854 14.9314 16.8358 14.9334H14.0802C13.9335 14.9393 13.7902 14.8884 13.6802 14.7911C13.6214 14.7319 13.576 14.6609 13.5469 14.5827C13.5177 14.5045 13.5056 14.421 13.5113 14.3378V12.1511C13.4987 12.0805 13.4613 12.0167 13.406 11.9711C13.3506 11.9255 13.2808 11.9011 13.2091 11.9022H12.6935C12.6556 11.8978 12.6172 11.901 12.5805 11.9117C12.5439 11.9224 12.5098 11.9403 12.4802 11.9645C12.4558 11.9869 12.4368 12.0145 12.4245 12.0453C12.4122 12.0761 12.4069 12.1092 12.4091 12.1422V15.4934C12.4097 15.6117 12.454 15.7257 12.5335 15.8134C12.6076 15.8775 12.6937 15.9263 12.7868 15.9568C12.8799 15.9873 12.9781 15.999 13.0758 15.9911H17.2446C17.3158 15.9911 17.9202 15.8045 17.9202 14.7734C17.953 14.5031 17.8936 14.2297 17.7516 13.9974C17.6097 13.7651 17.3935 13.5875 17.138 13.4934H15.4224C15.4027 13.5017 15.3816 13.506 15.3602 13.506C15.3388 13.506 15.3177 13.5017 15.298 13.4934C15.2358 13.4934 15.2091 13.3778 15.2091 13.2622C15.2091 13.1467 15.2091 13.0756 15.298 13.04C15.3437 13.0222 15.3945 13.0222 15.4402 13.04H18.4535C18.4724 13.04 18.4905 13.0475 18.5038 13.0609C18.5172 13.0742 18.5246 13.0923 18.5246 13.1111V15.8222Z" fill="white"/>
<path d="M22.7733 5.06665H9.25334C8.5366 5.06665 7.95557 5.64769 7.95557 6.36443V25.6089C7.95557 26.3256 8.5366 26.9067 9.25334 26.9067H22.7733C23.4901 26.9067 24.0711 26.3256 24.0711 25.6089V6.36443C24.0711 5.64769 23.4901 5.06665 22.7733 5.06665Z" stroke="#006E9B" stroke-width="0.33" stroke-miterlimit="10"/>
</g>
<defs>
<clipPath id="clip0_2707_329813">
<rect width="32" height="32" fill="white"/>
</clipPath>
</defs>
</svg>
