<svg width="32" height="32" viewBox="0 0 32 32" fill="none" xmlns="http://www.w3.org/2000/svg">
<g clip-path="url(#clip0_2707_329528)">
<path d="M15.9998 31.9822C24.8265 31.9822 31.982 24.8267 31.982 16C31.982 7.17325 24.8265 0.0177612 15.9998 0.0177612C7.17306 0.0177612 0.0175781 7.17325 0.0175781 16C0.0175781 24.8267 7.17306 31.9822 15.9998 31.9822Z" fill="white"/>
<path d="M9.89328 11.0666C9.67995 10.88 9.50217 10.6666 9.29773 10.5066C9.07723 10.2932 8.78238 10.1739 8.4755 10.1739C8.16863 10.1739 7.87378 10.2932 7.65328 10.5066C7.59011 10.5555 7.53069 10.6089 7.4755 10.6666L5.78662 12.3289V12.3822C5.75456 12.5762 5.76413 12.7748 5.81471 12.9649C5.86528 13.1549 5.9557 13.332 6.07995 13.4844L7.02217 14.4444L8.48884 16L9.01328 15.4755L10.1155 14.3911L10.9422 13.5733H10.9955C11.0157 13.5432 11.0432 13.5187 11.0755 13.5022C11.2677 13.372 11.4924 13.2981 11.7244 13.2889C11.8361 13.2689 11.9505 13.2689 12.0622 13.2889H12.1422L9.89328 11.0666Z" fill="#FFD200"/>
<path d="M13.8399 14.9511L12.1421 13.3333H12.0621C11.9504 13.3134 11.836 13.3134 11.7243 13.3333C11.4924 13.3425 11.2676 13.4164 11.0754 13.5467C11.0432 13.5632 11.0156 13.5877 10.9954 13.6178H10.9421L10.1154 14.4356L9.01321 15.52L8.48877 16L9.89321 17.3778L10.9599 18.4444C11.084 18.591 11.1723 18.7645 11.2177 18.9511C11.2777 19.1632 11.2777 19.3879 11.2177 19.6L11.431 19.3867L12.8265 17.9556L13.9999 16.8889C14.1701 16.7021 14.2841 16.471 14.3288 16.2222C14.3372 16.1543 14.3372 16.0857 14.3288 16.0178C14.324 15.8161 14.2782 15.6175 14.1942 15.4341C14.1101 15.2507 13.9896 15.0864 13.8399 14.9511Z" fill="#223C77"/>
<path d="M11.2174 18.9511C11.172 18.7645 11.0837 18.591 10.9596 18.4444L9.89292 17.3778L8.48847 16L7.11069 17.3956L6.04403 18.4622C5.90618 18.588 5.74234 18.6818 5.56413 18.7371C5.38593 18.7924 5.19774 18.8078 5.01292 18.7822C4.97789 18.7736 4.94128 18.7736 4.90625 18.7822L7.11069 20.96C7.41492 21.4101 7.87881 21.7279 8.40847 21.8489C8.59062 21.8776 8.77696 21.8637 8.9528 21.8082C9.12865 21.7526 9.2892 21.657 9.42181 21.5289L11.2707 19.68C11.3297 19.4375 11.3111 19.1825 11.2174 18.9511Z" fill="#EE3524"/>
<path d="M6.98654 14.48L6.04432 13.52C5.92366 13.3708 5.83529 13.1981 5.7848 13.013C5.73431 12.8279 5.72279 12.6343 5.75098 12.4444V12.3911L3.55543 14.5689C3.28876 14.8622 2.66654 15.2622 2.66654 15.9644C2.66506 16.1655 2.70907 16.3643 2.79527 16.5459C2.88147 16.7276 3.00763 16.8873 3.16432 17.0133L4.85321 18.7289C4.88823 18.7202 4.92484 18.7202 4.95987 18.7289C5.14469 18.7545 5.33289 18.7391 5.51109 18.6838C5.68929 18.6285 5.85314 18.5346 5.99098 18.4089L7.11098 17.3956L8.48876 16L6.98654 14.48Z" fill="#3F9244"/>
<path d="M5.33312 16C5.32784 15.3779 5.50759 14.7683 5.84954 14.2486C6.19149 13.7289 6.6802 13.3226 7.25359 13.0813C7.82698 12.84 8.45916 12.7745 9.06982 12.8933C9.68048 13.012 10.2421 13.3097 10.6832 13.7483C11.1243 14.1869 11.4251 14.7468 11.5474 15.3568C11.6696 15.9668 11.6078 16.5993 11.3697 17.1741C11.1317 17.7488 10.7282 18.2398 10.2104 18.5847C9.69269 18.9296 9.08411 19.1129 8.46201 19.1111C8.05229 19.1123 7.64634 19.0327 7.26736 18.877C6.88838 18.7213 6.54377 18.4925 6.25323 18.2036C5.96268 17.9147 5.73189 17.5714 5.57402 17.1933C5.41614 16.8152 5.33429 16.4097 5.33312 16ZM5.54645 16C5.55132 16.3828 5.63244 16.7607 5.78506 17.1117C5.93768 17.4628 6.15875 17.7798 6.43534 18.0444C6.98687 18.5822 7.72729 18.8822 8.49757 18.88C8.88983 18.9018 9.28241 18.8433 9.6513 18.7082C10.0202 18.5731 10.3577 18.3642 10.6431 18.0942C10.9285 17.8242 11.1558 17.4988 11.3111 17.138C11.4665 16.7772 11.5466 16.3884 11.5466 15.9956C11.5466 15.6027 11.4665 15.214 11.3111 14.8531C11.1558 14.4923 10.9285 14.1669 10.6431 13.8969C10.3577 13.627 10.0202 13.418 9.6513 13.2829C9.28241 13.1478 8.88983 13.0893 8.49757 13.1111C7.72622 13.1123 6.98598 13.4154 6.43534 13.9556C6.16437 14.223 5.94875 14.5412 5.8008 14.892C5.65286 15.2428 5.57549 15.6193 5.57312 16H5.54645Z" fill="white"/>
<path fill-rule="evenodd" clip-rule="evenodd" d="M8.50656 13.2178C9.05858 13.2195 9.59769 13.385 10.0557 13.6931C10.5137 14.0013 10.8701 14.4383 11.0797 14.949C11.2893 15.4597 11.3428 16.021 11.2334 16.5621C11.124 17.1032 10.8566 17.5997 10.465 17.9888C10.0734 18.3779 9.57522 18.6421 9.03346 18.7481C8.49169 18.854 7.93067 18.797 7.42134 18.5841C6.91201 18.3712 6.47724 18.0121 6.17201 17.5521C5.86678 17.0922 5.7048 16.552 5.70656 16C5.70536 15.6328 5.7771 15.269 5.91762 14.9298C6.05813 14.5905 6.26461 14.2825 6.52509 14.0237C6.78557 13.7649 7.09485 13.5604 7.43499 13.422C7.77514 13.2837 8.13937 13.2142 8.50656 13.2178Z" fill="url(#paint0_radial_2707_329528)"/>
<path d="M29.3334 18.7733C29.29 18.821 29.2372 18.8592 29.1783 18.8853C29.1193 18.9114 29.0556 18.9248 28.9911 18.9248C28.9267 18.9248 28.863 18.9114 28.804 18.8853C28.7451 18.8592 28.6923 18.821 28.6489 18.7733L28.7111 18.6933L29.0311 18.7555C29.0311 18.7555 29.0311 18.7555 29.1023 18.7555L28.9778 18.7022L28.8089 18.6489C28.766 18.6352 28.7288 18.6078 28.7031 18.5708C28.6774 18.5338 28.6646 18.4894 28.6667 18.4444C28.6643 18.396 28.6766 18.3481 28.702 18.3068C28.7274 18.2656 28.7647 18.233 28.8089 18.2133C28.8919 18.1837 28.9811 18.1756 29.0681 18.1896C29.1551 18.2035 29.2371 18.2392 29.3067 18.2933L29.2089 18.4355C29.1023 18.4355 29.0045 18.32 28.8978 18.4355C28.7911 18.5511 28.96 18.5066 29.0134 18.5155C29.1311 18.5431 29.2407 18.5979 29.3334 18.6755V18.7733Z" fill="#243D78"/>
<path d="M14.6309 13.9733C15.0397 13.9733 15.4309 13.9733 15.822 13.9733C16.0727 13.9904 16.3119 14.0852 16.5062 14.2445C16.7006 14.4038 16.8405 14.6197 16.9064 14.8622C17.0486 15.2889 17.1997 15.7511 17.342 16.1511C17.342 16.2044 17.342 16.2578 17.4131 16.3378L17.4753 16.1778L18.062 14.6133C18.1067 14.5033 18.173 14.4034 18.2569 14.3194C18.3409 14.2354 18.4408 14.1691 18.5509 14.1244C18.7171 14.0436 18.8993 14.0011 19.0842 14H20.2664V17.6978C19.902 17.6978 19.5464 17.6978 19.1731 17.6978V15.0311C19.1375 15.0414 19.1047 15.0595 19.077 15.0841C19.0493 15.1087 19.0275 15.1392 19.0131 15.1733C18.942 15.3155 18.8709 15.4667 18.8086 15.6178C18.6664 16 18.5331 16.3822 18.3909 16.7555C18.3219 16.9857 18.2036 17.198 18.0442 17.3778C17.963 17.4667 17.8703 17.5444 17.7686 17.6089C17.6657 17.6759 17.5448 17.7101 17.422 17.7067H16.7731L16.6931 17.5022C16.4797 16.8889 16.2664 16.2844 16.0442 15.6711C15.988 15.5307 15.9227 15.3941 15.8486 15.2622L15.7686 15.1111V17.6355H14.6309V13.9733Z" fill="#243D78"/>
<path d="M28.1599 16.5689V13.9822H29.2621V17.6533H28.0977C27.8725 17.6431 27.6597 17.5478 27.5021 17.3867C27.3089 17.196 27.1416 16.9808 27.0043 16.7467C26.6577 16.2222 26.311 15.6978 25.9732 15.1644L25.9021 15.1111V17.6978H24.791V13.9822H25.8488C26.0941 13.9802 26.3315 14.0688 26.5155 14.2311C26.7221 14.4253 26.9015 14.6466 27.0488 14.8889L28.0977 16.5067L28.1599 16.5689Z" fill="#243D78"/>
<path d="M23.3596 13.9644H24.444C24.3907 14.1155 24.3462 14.2578 24.2929 14.4L23.4662 16.72C23.3763 16.9801 23.2342 17.2191 23.0485 17.4222C22.9819 17.5021 22.897 17.5647 22.8011 17.605C22.7052 17.6452 22.601 17.6618 22.4974 17.6533H21.8574C21.4129 16.4266 20.9685 15.2 20.5151 13.9644H21.6351L22.4796 16.32L23.3596 13.9644Z" fill="#243D78"/>
<path d="M25.7774 18.9244H25.5818L25.4307 18.4977C25.3863 18.64 25.3329 18.7733 25.2885 18.9155H25.084L24.8174 18.1066H25.0574L25.1996 18.56L25.3507 18.1066H25.5463L25.7063 18.56C25.7596 18.3911 25.804 18.2577 25.8485 18.1066H26.0707C25.9196 18.3822 25.8307 18.6666 25.7774 18.9244Z" fill="#243D78"/>
<path d="M14.9155 18.9155H14.7021V18.1155H14.9333L15.1288 18.4177L15.3155 18.1066H15.5466V18.9066H15.3333V18.5066L15.1555 18.7644C15.0844 18.6666 15.0221 18.5866 14.9688 18.4977L14.9155 18.9155Z" fill="#243D78"/>
<path d="M21.1289 18.9067V18.1155H21.3334L21.6534 18.5244V18.1155H21.8756V18.9067H21.6889L21.3778 18.5155V18.8889L21.1289 18.9067Z" fill="#243D78"/>
<path d="M16.2396 18.4889V18.1155H16.4618V18.9066H16.2662L15.9996 18.5155V18.8889H15.7773V18.0889H15.9818L16.284 18.48L16.2396 18.4889Z" fill="#243D78"/>
<path d="M27.7598 18.9155H27.5553C27.4398 18.8533 27.4486 18.6755 27.2798 18.6755V18.9066H27.022V18.1066C27.1759 18.0978 27.3302 18.0978 27.4842 18.1066C27.5396 18.1053 27.5938 18.1231 27.6375 18.1571C27.6813 18.1911 27.7119 18.2393 27.7242 18.2933C27.7431 18.3483 27.7429 18.4081 27.7235 18.463C27.7042 18.5179 27.6668 18.5646 27.6175 18.5955L27.5553 18.6666L27.7598 18.9155ZM27.2442 18.4978H27.4398C27.457 18.4923 27.4723 18.4818 27.4834 18.4675C27.4945 18.4532 27.501 18.4358 27.502 18.4178C27.5029 18.3981 27.4973 18.3788 27.486 18.3627C27.4747 18.3466 27.4585 18.3347 27.4398 18.3289H27.2442V18.4978Z" fill="#243D78"/>
<path d="M22.8974 18.1067H23.1107V18.9067H22.9152L22.5952 18.5067V18.8978H22.3818V18.0978H22.5863L22.8885 18.4889L22.8974 18.1067Z" fill="#243D78"/>
<path d="M23.911 18.9155H23.271V18.1155H23.911C23.911 18.1155 23.911 18.1689 23.911 18.1955V18.2933H23.4843V18.4178H23.8577V18.5955H23.4843V18.72H23.9021L23.911 18.9155Z" fill="#243D78"/>
<path d="M20.5688 18.9333C20.4571 18.9333 20.3499 18.8896 20.2702 18.8115C20.1904 18.7334 20.1444 18.6271 20.1421 18.5155C20.1444 18.4016 20.1913 18.293 20.2728 18.2133C20.3542 18.1335 20.4637 18.0888 20.5776 18.0889C20.6884 18.0889 20.7947 18.1329 20.8731 18.2112C20.9514 18.2896 20.9954 18.3958 20.9954 18.5066C20.9931 18.6183 20.9471 18.7245 20.8674 18.8026C20.7876 18.8807 20.6804 18.9244 20.5688 18.9244V18.9333ZM20.5688 18.7289C20.623 18.7289 20.675 18.7073 20.7133 18.669C20.7517 18.6306 20.7732 18.5786 20.7732 18.5244C20.7744 18.4976 20.7703 18.4707 20.7611 18.4455C20.7519 18.4202 20.7378 18.397 20.7197 18.3772C20.7015 18.3574 20.6796 18.3413 20.6552 18.33C20.6309 18.3187 20.6045 18.3122 20.5776 18.3111C20.5211 18.3111 20.4668 18.3336 20.4268 18.3736C20.3868 18.4136 20.3643 18.4678 20.3643 18.5244C20.3643 18.581 20.3868 18.6353 20.4268 18.6753C20.4668 18.7153 20.5211 18.7378 20.5776 18.7378L20.5688 18.7289Z" fill="#243D78"/>
<path d="M26.8975 18.5067C26.8975 18.5928 26.8719 18.677 26.8241 18.7486C26.7762 18.8203 26.7082 18.8761 26.6286 18.9091C26.549 18.942 26.4614 18.9507 26.377 18.9338C26.2925 18.917 26.2149 18.8756 26.1539 18.8146C26.093 18.7537 26.0515 18.6761 26.0347 18.5916C26.0179 18.5071 26.0266 18.4196 26.0595 18.34C26.0925 18.2604 26.1483 18.1924 26.2199 18.1445C26.2916 18.0967 26.3758 18.0711 26.4619 18.0711C26.5736 18.0711 26.6808 18.1148 26.7605 18.1929C26.8403 18.271 26.8863 18.3773 26.8886 18.4889L26.8975 18.5067ZM26.6664 18.5067C26.6665 18.4507 26.6456 18.3967 26.6077 18.3555C26.5698 18.3143 26.5177 18.2889 26.4619 18.2844C26.4053 18.2844 26.3511 18.3069 26.3111 18.3469C26.2711 18.3869 26.2486 18.4412 26.2486 18.4978C26.2486 18.5254 26.2541 18.5527 26.265 18.5781C26.2758 18.6035 26.2916 18.6265 26.3116 18.6456C26.3315 18.6647 26.3551 18.6795 26.381 18.6893C26.4068 18.699 26.4343 18.7034 26.4619 18.7022C26.5161 18.7022 26.5681 18.6807 26.6065 18.6423C26.6448 18.604 26.6664 18.552 26.6664 18.4978V18.5067Z" fill="#243D78"/>
<path d="M27.8486 18.1066H28.062V18.3822L28.3109 18.0889H28.5775L28.2753 18.4355L28.5864 18.8889H28.3197L28.1597 18.6666C28.0264 18.7289 28.0886 18.8444 28.062 18.9422H27.8486V18.1066Z" fill="#243D78"/>
<path d="M18.9775 18.7822L19.0842 18.6578C19.2086 18.7022 19.3153 18.7911 19.4753 18.6578L19.3687 18.6667L19.1642 18.5956C19.1178 18.5869 19.0765 18.561 19.0485 18.523C19.0204 18.4851 19.0078 18.438 19.0131 18.3911C19.0068 18.3409 19.0185 18.2901 19.0462 18.2478C19.0739 18.2055 19.1157 18.1744 19.1642 18.16C19.2454 18.1286 19.3336 18.1194 19.4195 18.1335C19.5055 18.1476 19.5861 18.1843 19.6531 18.24L19.5464 18.3822C19.4486 18.3822 19.3509 18.2756 19.2442 18.3822C19.1375 18.4889 19.2442 18.4533 19.3153 18.4622L19.5198 18.5244C19.5659 18.5379 19.6065 18.566 19.6353 18.6044C19.6642 18.6429 19.6798 18.6897 19.6798 18.7378C19.6781 18.7864 19.6631 18.8337 19.6364 18.8744C19.6098 18.9152 19.5725 18.9478 19.5286 18.9689C19.4286 18.9957 19.3229 18.9922 19.2248 18.959C19.1268 18.9258 19.0407 18.8643 18.9775 18.7822Z" fill="#243D78"/>
<path d="M18.142 18.6044L18.3287 18.1155H18.5776L18.2487 18.9155H18.0353L17.7153 18.1155H17.9642L18.142 18.6044Z" fill="#243D78"/>
<path d="M17.3508 18.2666L17.1997 18.3733C17.0308 18.2755 16.9419 18.2755 16.8619 18.3733C16.8359 18.4191 16.8245 18.4717 16.8293 18.5242C16.834 18.5766 16.8547 18.6263 16.8886 18.6666C16.9597 18.7466 17.0664 18.7466 17.2175 18.6666L17.3597 18.7733C17.3147 18.8465 17.2478 18.9036 17.1685 18.9366C17.0891 18.9696 17.0014 18.9768 16.9178 18.9571C16.8341 18.9374 16.7588 18.8919 16.7025 18.827C16.6462 18.7621 16.6118 18.6811 16.6042 18.5955C16.5916 18.5055 16.6082 18.4139 16.6513 18.334C16.6945 18.254 16.7621 18.19 16.8442 18.1511C16.9301 18.1147 17.0252 18.1064 17.1162 18.1271C17.2071 18.1478 17.2892 18.1967 17.3508 18.2666Z" fill="#243D78"/>
<path d="M24 18.3022V18.1066H24.6933V18.3022H24.4622V18.9066H24.24V18.3111L24 18.3022Z" fill="#243D78"/>
<path d="M18.8709 18.1155H18.6665V18.9067H18.8709V18.1155Z" fill="#243D78"/>
<path d="M19.7954 18.9067V18.1155H20.0176C20.0176 18.24 20.0176 18.3733 20.0176 18.5067V18.9067H19.7954Z" fill="#243D78"/>
</g>
<defs>
<radialGradient id="paint0_radial_2707_329528" cx="0" cy="0" r="1" gradientUnits="userSpaceOnUse" gradientTransform="translate(9.92896 14.0635) rotate(14.5742) scale(2.75533)">
<stop stop-color="white"/>
<stop offset="1" stop-color="#B3B3B3" stop-opacity="0"/>
</radialGradient>
<clipPath id="clip0_2707_329528">
<rect width="32" height="32" fill="white"/>
</clipPath>
</defs>
</svg>
