<svg width="32" height="32" viewBox="0 0 32 32" fill="none" xmlns="http://www.w3.org/2000/svg">
<g clip-path="url(#clip0_2810_57566)">
<mask id="mask0_2810_57566" style="mask-type:luminance" maskUnits="userSpaceOnUse" x="0" y="0" width="32" height="32">
<path d="M31.9909 0.0178223H0.0175781V31.9912H31.9909V0.0178223Z" fill="white"/>
</mask>
<g mask="url(#mask0_2810_57566)">
<path d="M15.9998 31.9823C24.8265 31.9823 31.982 24.8268 31.982 16C31.982 7.17331 24.8265 0.0178223 15.9998 0.0178223C7.17306 0.0178223 0.0175781 7.17331 0.0175781 16C0.0175781 24.8268 7.17306 31.9823 15.9998 31.9823Z" fill="white"/>
<path d="M22.7734 13.2178C22.7734 13.2178 22.7734 13.28 22.7823 13.3067C22.7734 13.5822 22.7556 13.8578 22.7467 14.1334C22.7467 14.2845 22.7467 14.4356 22.7467 14.5867C22.7467 14.6667 22.7201 14.7556 22.7023 14.8356C22.6667 14.6845 22.6578 14.5334 22.6312 14.3822C22.5956 14.0889 22.5601 13.8045 22.5067 13.5111C22.4712 13.2978 22.4089 13.0845 22.3645 12.88C22.2401 12.3645 22.0801 11.8667 21.8312 11.3956C21.7156 11.1734 21.5912 10.9422 21.3778 10.7822C21.3778 10.7734 21.3778 10.7645 21.3689 10.7556C21.3689 10.7556 21.3601 10.7645 21.3512 10.7734C21.3601 10.7734 21.3689 10.7734 21.3778 10.7822C21.3778 10.8178 21.3778 10.8445 21.3778 10.8711C21.5734 11.4134 21.7334 11.9645 21.8401 12.5334C21.9112 12.9067 21.9023 13.28 21.9378 13.6534C21.9556 13.8222 21.9201 13.9911 21.9023 14.16C21.9023 14.1778 21.9023 14.1956 21.9023 14.2134C21.8223 14.56 21.7423 14.8978 21.6001 15.2267C21.4401 15.6 21.2445 15.9467 20.9334 16.2134C20.8623 16.2756 20.7912 16.3556 20.6845 16.3645C20.7023 16.32 20.7112 16.2845 20.7378 16.2489C21.0401 15.7422 21.2445 15.2 21.3778 14.6311C21.4223 14.4267 21.4489 14.2134 21.4667 14C21.4845 13.7778 21.4934 13.5467 21.4756 13.3245C21.4667 13.1111 21.4312 12.8978 21.4045 12.6845C21.4045 12.6756 21.4045 12.6667 21.4045 12.6578C21.4045 12.6134 21.3867 12.5689 21.3778 12.5245C21.3689 12.4711 21.3601 12.4089 21.3423 12.3556C21.3423 12.3378 21.3423 12.32 21.3423 12.3022C21.3334 12.2578 21.3245 12.2045 21.3067 12.16V12.1422L21.2712 12.0089C21.2712 12.0089 21.2623 12 21.2623 11.9911C21.2623 11.9645 21.2445 11.9378 21.2356 11.9022C21.2001 11.76 21.1556 11.6178 21.0312 11.4845C21.0489 11.6889 21.0667 11.8578 21.0845 12.0267C21.1467 12.5334 21.1556 13.0311 21.1112 13.5378C21.0934 13.68 21.0845 13.8311 21.0578 13.9645C20.9778 14.3289 20.8623 14.6934 20.7023 15.0311C20.3823 15.7067 19.9734 16.3111 19.4134 16.8089C19.2801 16.9245 19.1112 17.0134 18.9601 17.1111C18.9245 17.1289 18.8801 17.1289 18.8356 17.1378C19.0489 16.8978 19.2712 16.6667 19.4667 16.4178C19.9112 15.8489 20.2489 15.2267 20.4267 14.5334C20.4801 14.3289 20.5423 14.1245 20.5423 13.9022C20.5601 13.3334 20.5423 12.7734 20.4089 12.2134C20.3112 11.8222 20.1778 11.44 20.0089 11.0756C19.7867 10.5778 19.4756 10.1334 19.1023 9.73336C18.8978 9.52002 18.7023 9.2978 18.4356 9.15558C18.4089 9.14669 18.4001 9.11114 18.3734 9.08447L18.3289 9.04891C18.3289 9.04891 18.3023 9.02225 18.2845 9.01336L18.2401 8.9778C18.2401 8.9778 18.2401 8.90669 18.2134 8.88002C18.1423 8.8178 18.0712 8.76447 18.0001 8.70225C17.7245 8.45336 17.3867 8.30225 17.0489 8.16002C16.7289 8.02669 16.3823 7.9378 16.0445 7.92002C15.5556 7.89336 15.0667 7.87558 14.5689 7.94669C14.2578 7.99113 13.9645 8.05336 13.6623 8.14225C13.1645 8.29336 12.7023 8.50669 12.2934 8.83558C12.2667 8.86225 12.2134 8.86225 12.1689 8.87113C12.1689 8.87113 12.1867 8.79113 12.2134 8.77336C12.3823 8.61336 12.5423 8.44447 12.7201 8.30225C13.0934 7.99114 13.5289 7.83113 13.9823 7.6978C14.2489 7.6178 14.5245 7.58225 14.8001 7.54669C14.8712 7.5378 14.9423 7.52002 15.0223 7.51113C15.1734 7.49336 15.3245 7.49336 15.4667 7.46669C15.5645 7.44891 15.6623 7.41336 15.7689 7.38669V7.35114C15.6178 7.34225 15.4578 7.32447 15.3067 7.31558C15.1645 7.31558 15.0312 7.31558 14.8889 7.31558C14.6223 7.31558 14.3556 7.33336 14.0889 7.38669C13.9556 7.41336 13.8134 7.41336 13.6801 7.43113C13.7689 7.39558 13.8489 7.36002 13.9378 7.33336C14.1156 7.28891 14.2934 7.24447 14.4712 7.20891C14.7645 7.15558 15.0489 7.09336 15.3423 7.0578C15.7245 7.00447 16.1067 6.96891 16.4889 6.9778C16.8801 6.98669 17.2623 7.03114 17.6445 7.11114C18.1956 7.22669 18.7201 7.41336 19.2178 7.67114C19.9378 8.04447 20.5867 8.50669 21.1289 9.10225C21.4934 9.50225 21.7867 9.96447 22.0267 10.4534C22.1512 10.7111 22.2667 10.9778 22.3556 11.2534C22.5067 11.6889 22.6223 12.1334 22.6756 12.5867C22.7023 12.7911 22.7112 13.0045 22.7289 13.2089C22.7289 13.2089 22.7289 13.2178 22.7289 13.2267C22.7289 13.2267 22.7378 13.2445 22.7467 13.2445" fill="#1F783D"/>
<path d="M21.3779 10.7911C21.5912 10.9422 21.7156 11.1734 21.8312 11.4045C22.0801 11.8756 22.2401 12.3734 22.3645 12.8889C22.4179 13.1022 22.4712 13.3067 22.5067 13.52C22.5601 13.8045 22.5867 14.0978 22.6312 14.3911C22.649 14.5422 22.6667 14.6845 22.7023 14.8445C22.7201 14.7645 22.7379 14.6845 22.7467 14.5956C22.7467 14.4445 22.7467 14.2934 22.7467 14.1422C22.7556 13.8667 22.7645 13.5911 22.7823 13.3156C22.8001 13.3956 22.8356 13.4756 22.8445 13.5645C22.889 14.0534 22.9334 14.5422 22.8623 15.04C22.8267 15.28 22.8179 15.5289 22.7734 15.7689C22.7023 16.1156 22.6134 16.4622 22.4801 16.8C22.1423 17.6445 21.6267 18.3734 20.9601 18.9867C20.4712 19.44 19.9112 19.7956 19.2979 20.0534C19.0312 20.1689 18.7556 20.2489 18.4801 20.3289C18.1512 20.4267 17.8223 20.4889 17.4845 20.5422C17.4223 20.5422 17.3512 20.5067 17.289 20.5689C17.2712 20.5689 17.2534 20.5689 17.2267 20.5689C17.1823 20.4978 17.1112 20.5245 17.0579 20.5245C16.6134 20.56 16.1956 20.4089 15.7601 20.3556C15.6801 20.3467 15.6001 20.3022 15.5201 20.2845C15.6356 20.2578 15.7512 20.2667 15.8667 20.2578C16.1512 20.24 16.4445 20.2134 16.729 20.1867C16.8445 20.1778 16.9512 20.1689 17.0667 20.1422C17.5467 20.0534 18.0179 19.9467 18.4623 19.76C18.9779 19.5556 19.4312 19.2622 19.7956 18.8356C19.8223 18.8089 19.8312 18.7734 19.8401 18.7378C19.849 18.72 19.8667 18.7111 19.8756 18.6934C19.8845 18.6756 19.9023 18.6578 19.9112 18.64C19.9112 18.64 19.8934 18.64 19.8845 18.6311C19.8845 18.6489 19.8845 18.6756 19.8756 18.6934C19.8579 18.7022 19.849 18.72 19.8312 18.7289C19.8045 18.7378 19.769 18.7467 19.7512 18.7645C19.6179 18.8534 19.4934 18.96 19.3512 19.0489C19.1112 19.1911 18.8623 19.3511 18.6045 19.44C18.2934 19.5467 17.9734 19.6622 17.6356 19.7067C17.3334 19.7511 17.0312 19.7867 16.729 19.8045C16.3379 19.8134 15.9467 19.8311 15.5556 19.7778C15.369 19.7511 15.1734 19.7334 14.9867 19.68C14.7734 19.6267 14.5601 19.5556 14.3556 19.4578C14.1601 19.3689 13.9467 19.2978 13.7956 19.1289C13.8845 19.1289 13.9823 19.1467 14.0712 19.1734C14.3912 19.2534 14.7112 19.3511 15.049 19.3067C15.3156 19.3334 15.5823 19.3778 15.8579 19.3956C16.3201 19.4222 16.7912 19.4222 17.2534 19.3511C17.4401 19.3245 17.6179 19.2622 17.7956 19.2089C17.8579 19.1911 17.9201 19.1467 18.0179 19.1022C17.9467 19.1022 17.929 19.0934 17.9023 19.0934C17.6712 19.12 17.4401 19.1467 17.209 19.1645C16.8801 19.1822 16.5601 19.1556 16.2312 19.1111C15.9379 19.0756 15.6623 19.0045 15.3867 18.9245C15.0045 18.8089 14.6401 18.6311 14.2934 18.4267C13.8579 18.16 13.4756 17.8311 13.1467 17.4489C13.0401 17.3245 12.9601 17.1734 12.8623 17.0311C12.8712 17.0311 12.8801 17.0134 12.889 17.0045C12.9779 17.0756 13.0756 17.1556 13.1645 17.2267C13.7423 17.7156 14.3734 18.0978 15.1023 18.3378C15.5112 18.4711 15.929 18.5422 16.3645 18.5422C16.5156 18.5422 16.6667 18.5156 16.8179 18.5156C17.2356 18.5067 17.6445 18.4089 18.0356 18.2934C18.409 18.1867 18.7734 18.0356 19.0934 17.8134C19.6623 17.4222 20.169 16.96 20.6312 16.4445C20.6401 16.4356 20.6579 16.4178 20.6667 16.4089C20.7734 16.4 20.8445 16.3289 20.9156 16.2578C21.2267 15.9822 21.4223 15.6356 21.5823 15.2711C21.7245 14.9422 21.8045 14.6045 21.8845 14.2578C21.8845 14.24 21.8845 14.2222 21.8845 14.2045C21.8934 14.0356 21.929 13.8667 21.9201 13.6978C21.8845 13.3245 21.8934 12.9511 21.8223 12.5778C21.7156 12.0089 21.5556 11.4578 21.3601 10.9156C21.3512 10.8889 21.3601 10.8534 21.3601 10.8267L21.3779 10.7911Z" fill="#97295C"/>
<path d="M10.7641 11.4222C10.7641 11.4222 10.7641 11.4222 10.7641 11.4134C10.7641 11.4134 10.7552 11.4134 10.7552 11.4222C10.7552 11.4222 10.7552 11.4222 10.7552 11.4311C10.7552 11.4311 10.7552 11.4311 10.7641 11.4222ZM10.7108 11.4845C10.7108 11.4845 10.7108 11.4845 10.7108 11.4934C10.7108 11.4934 10.7108 11.4934 10.7197 11.5022C10.7197 11.5022 10.7197 11.4845 10.7197 11.4756C10.7197 11.4756 10.7197 11.4756 10.7108 11.4756M13.7508 8.70225C13.7508 8.70225 13.7508 8.71114 13.7508 8.72003C13.7685 8.72003 13.7774 8.72003 13.7952 8.72003V8.70225C13.7952 8.70225 13.7597 8.70225 13.7508 8.71114M13.6974 7.40447C13.8308 7.39558 13.973 7.38669 14.1063 7.36003C14.373 7.30669 14.6397 7.28003 14.9063 7.28892C15.0485 7.28892 15.1819 7.28892 15.3241 7.28892C15.4752 7.28892 15.6263 7.30669 15.7863 7.32447V7.36003C15.6885 7.38669 15.5908 7.42225 15.493 7.44003C15.3419 7.4578 15.1997 7.46669 15.0485 7.48447C14.9774 7.48447 14.9063 7.51114 14.8263 7.52003C14.5508 7.55558 14.2752 7.59114 14.0085 7.67114C13.5552 7.80447 13.1108 7.97336 12.7463 8.27558C12.5685 8.42669 12.3997 8.58669 12.2308 8.74669C12.2041 8.77336 12.2041 8.80892 12.1863 8.84447C12.1774 8.87114 12.1597 8.8978 12.1508 8.92447C12.133 8.93336 12.1419 8.92447 12.1508 8.92447C12.1419 8.94225 12.1508 8.93336 12.1508 8.92447L12.1863 8.85336C12.1863 8.85336 12.2752 8.84447 12.3108 8.8178C12.7197 8.48892 13.1908 8.28447 13.6797 8.12447C13.973 8.03558 14.2752 7.97336 14.5863 7.92892C15.0752 7.85781 15.573 7.88447 16.0619 7.90225C16.3997 7.92003 16.7463 8.00892 17.0663 8.14225C17.4041 8.28447 17.7419 8.43558 18.0174 8.68447C18.0885 8.74669 18.1685 8.80003 18.2308 8.86225C18.2485 8.88003 18.2485 8.92447 18.2574 8.96003C18.1597 8.90669 18.0619 8.85336 17.9641 8.80003C17.2797 8.45336 16.5419 8.30225 15.7863 8.23114C15.1374 8.17781 14.5419 8.32892 13.9641 8.61336C13.9285 8.63114 13.9019 8.64892 13.8485 8.68447C14.0708 8.65781 14.2663 8.61336 14.4619 8.61336C14.8352 8.61336 15.2085 8.62225 15.573 8.64892C16.1063 8.67558 16.613 8.80892 17.1019 9.03114C17.813 9.35114 18.4174 9.80447 18.8885 10.4267C18.9863 10.56 19.1108 10.6845 19.1463 10.8622H19.1285C18.7108 10.3822 18.1863 10.0445 17.6263 9.76892C17.3241 9.62669 17.013 9.50225 16.693 9.41336C16.3374 9.31558 15.9819 9.24447 15.6174 9.23558C15.3063 9.23558 15.0041 9.25336 14.693 9.26225C14.373 9.26225 14.0885 9.36892 13.8041 9.50225C13.253 9.76892 12.7374 10.0978 12.2308 10.4445C11.6085 10.8711 11.1552 11.4222 10.8619 12.1156C10.6397 12.64 10.5152 13.1911 10.4441 13.7511C10.4352 13.7511 10.4263 13.7511 10.4085 13.7511C10.4085 13.4756 10.3908 13.2 10.4352 12.9245C10.4885 12.5334 10.5597 12.1422 10.6574 11.7689C10.6663 11.7245 10.6663 11.68 10.6752 11.6356C10.6752 11.6089 10.693 11.5822 10.7019 11.5645C10.7019 11.5645 10.6841 11.5645 10.6752 11.5645C10.6752 11.5822 10.6574 11.6089 10.6574 11.6267C10.6219 11.68 10.5863 11.7245 10.5597 11.7867C10.3641 12.1956 10.213 12.6134 10.0885 13.0489C9.95521 13.5022 9.89299 13.9556 9.91077 14.4267C9.91077 14.5778 9.91077 14.7289 9.92855 14.88C9.99966 15.28 10.0619 15.68 10.213 16.0622C10.3819 16.4978 10.5597 16.9334 10.8263 17.3334C10.9597 17.5289 11.0841 17.7245 11.2085 17.9111C11.1374 17.9289 11.1108 17.8667 11.0752 17.8311C10.7108 17.44 10.4085 17.0134 10.1508 16.5511C9.86632 16.0267 9.67077 15.4756 9.59966 14.88C9.55521 14.5334 9.47521 13.8222 9.52855 13.5111C9.52855 13.4845 9.52855 13.4667 9.52855 13.44H9.51077C9.51077 13.4578 9.51077 13.4845 9.51077 13.5022C9.50188 13.5111 9.47521 13.52 9.47521 13.5378C9.38632 13.8045 9.3241 14.08 9.3241 14.3556C9.3241 14.6045 9.3241 14.8534 9.3241 15.1111C9.28855 14.9334 9.2441 14.7556 9.21744 14.5778C9.13744 14.0534 9.11966 13.52 9.14632 12.9867C9.20855 11.7689 9.60855 10.6756 10.3374 9.6978C10.7908 9.09336 11.3241 8.58669 11.9374 8.15114C12.3908 7.83114 12.8974 7.62669 13.4308 7.49336C13.5374 7.46669 13.6352 7.44003 13.7419 7.41336" fill="#23366D"/>
<path d="M13.6529 19.0223C13.6529 19.0223 13.6529 19.0134 13.644 19.0134C13.644 19.0134 13.644 19.0134 13.6352 19.0134C13.6352 19.0134 13.6352 19.0223 13.644 19.0223C13.644 19.0223 13.644 19.0223 13.6529 19.0223ZM11.1907 17.9023C11.0663 17.7067 10.9418 17.5112 10.8085 17.3245C10.5418 16.9334 10.364 16.4978 10.1952 16.0534C10.0529 15.6712 9.98182 15.2712 9.91071 14.8712C9.88404 14.7201 9.89293 14.5689 9.89293 14.4178C9.88404 13.9467 9.93737 13.4934 10.0707 13.0401C10.1952 12.6045 10.3463 12.1867 10.5418 11.7778C10.5685 11.7245 10.6129 11.6712 10.6396 11.6178C10.6396 11.6178 10.6574 11.6267 10.6574 11.6356C10.6574 11.6801 10.6574 11.7245 10.6396 11.7689C10.5329 12.1512 10.4707 12.5334 10.4174 12.9245C10.3818 13.2001 10.3907 13.4756 10.3907 13.7512C10.3907 13.8134 10.4085 13.8756 10.4174 13.9378C10.4174 14.089 10.4174 14.2401 10.4174 14.3912C10.4174 14.5512 10.4263 14.7023 10.4529 14.8623C10.4885 15.1378 10.5952 15.4045 10.6929 15.6623C10.7196 15.7423 10.7818 15.8134 10.8263 15.8845C10.844 15.9378 10.8707 15.9912 10.8974 16.0623C10.924 15.9734 10.8974 15.9201 10.8529 15.8667C10.8529 15.7512 10.8529 15.6356 10.8352 15.5289C10.8085 15.2089 10.7552 14.8978 10.7907 14.5778C10.8352 14.1778 10.8618 13.7867 10.9774 13.3956C11.0574 13.1112 11.164 12.8356 11.2974 12.5778C11.5729 12.0356 11.9552 11.5645 12.3996 11.1467C12.444 11.1112 12.4885 11.0845 12.5329 11.049C12.5329 11.049 12.5418 11.0578 12.5507 11.0667C12.5418 11.0934 12.5329 11.1112 12.524 11.1378C12.0618 11.7512 11.724 12.4267 11.5285 13.1645C11.4307 13.529 11.3952 13.8934 11.3774 14.2578C11.3507 14.7378 11.404 15.2267 11.5196 15.6978C11.5552 15.8489 11.5907 16.0001 11.644 16.1512C11.7596 16.4978 11.9107 16.8267 12.1063 17.1378C12.4174 17.6534 12.8085 18.0978 13.2796 18.4534C13.7063 18.7823 14.1685 19.0578 14.7018 19.1912C14.7552 19.209 14.8085 19.2267 14.8618 19.2356C14.8885 19.2445 14.9152 19.2534 14.9418 19.2623C14.9774 19.2623 15.0218 19.2801 15.0574 19.289C14.7196 19.3334 14.3996 19.2445 14.0796 19.1556C13.9907 19.1289 13.8929 19.1201 13.804 19.1023C13.7952 19.0223 13.7507 19.0223 13.644 19.0667C13.7152 19.0934 13.7596 19.1023 13.7952 19.1112C13.9552 19.2712 14.1596 19.3512 14.3552 19.4401C14.5596 19.529 14.7729 19.6001 14.9863 19.6623C15.1729 19.7067 15.3685 19.7245 15.5552 19.7601C15.9463 19.8134 16.3374 19.8045 16.7285 19.7867C17.0307 19.7778 17.3329 19.7334 17.6352 19.6889C17.9729 19.6445 18.2929 19.529 18.604 19.4223C18.8707 19.3334 19.1107 19.1734 19.3507 19.0312C19.4929 18.9512 19.6174 18.8445 19.7507 18.7467C19.7774 18.729 19.804 18.7201 19.8307 18.7112C19.8307 18.7112 19.804 18.7912 19.7863 18.8178C19.4218 19.2445 18.9596 19.5289 18.4529 19.7423C17.9996 19.9289 17.5285 20.0356 17.0574 20.1245C16.9507 20.1423 16.8352 20.1512 16.7196 20.169C16.4352 20.1956 16.1418 20.2223 15.8574 20.2401C15.7418 20.2401 15.6263 20.2401 15.5107 20.2667C15.5907 20.2934 15.6707 20.3289 15.7507 20.3378C16.1863 20.3912 16.604 20.5423 17.0485 20.5067C17.1018 20.5067 17.1818 20.4712 17.2174 20.5512C17.164 20.5601 17.1107 20.5778 17.0574 20.5867C16.6307 20.6934 16.1952 20.7378 15.7507 20.7289C15.5996 20.7289 15.4485 20.7289 15.2974 20.7289C14.9063 20.7112 14.5063 20.7023 14.1152 20.6045C13.5374 20.4623 12.9952 20.2578 12.4885 19.9378C12.1685 19.7334 11.8396 19.5201 11.5374 19.2978C10.9329 18.8534 10.4707 18.2934 10.124 17.6267C9.83071 17.0667 9.64404 16.4712 9.44849 15.8756C9.36849 15.609 9.29737 15.3512 9.25293 15.0756C9.25293 14.8267 9.25293 14.5778 9.25293 14.3201C9.25293 14.0356 9.32404 13.7689 9.40404 13.5023C9.40404 13.4845 9.43071 13.4756 9.4396 13.4667C9.4396 13.4667 9.45737 13.4667 9.46626 13.4667C9.41293 13.7778 9.49293 14.489 9.53737 14.8356C9.61737 15.4312 9.81293 15.9823 10.0885 16.5067C10.3374 16.9689 10.6485 17.4045 11.0129 17.7867C11.0485 17.8223 11.0752 17.8934 11.1463 17.8667C11.1552 17.8934 11.1729 17.9201 11.1818 17.9378C11.1907 17.9467 11.2085 17.9645 11.2174 17.9734C11.2263 17.9823 11.244 18.0001 11.2529 18.009C11.2618 18.0178 11.2796 18.0356 11.2885 18.0445C11.2974 18.0445 11.3063 18.0534 11.3152 18.0623C11.3063 18.0623 11.2974 18.0534 11.2885 18.0445C11.2796 18.0356 11.2618 18.0178 11.2529 18.009C11.244 18.0001 11.2263 17.9823 11.2174 17.9734C11.2085 17.9645 11.1907 17.9467 11.1818 17.9378C11.1729 17.9112 11.1552 17.8845 11.1463 17.8578" fill="#F05023"/>
<path fill-rule="evenodd" clip-rule="evenodd" d="M18.4089 22.0089V24.9778H17.6622V22.8444C17.6622 22.8444 17.6445 22.8444 17.6356 22.8444C17.4489 23.5466 17.2711 24.2489 17.0844 24.96H16.4C16.2667 24.64 16.2311 24.2933 16.1333 23.9555C16.0356 23.6178 15.9467 23.28 15.8311 22.9511V24.9866H15.0489V22.0089C15.2444 22 15.44 22.0089 15.6445 22.0089C15.8489 22.0089 16.0533 22.0089 16.2667 22.0089C16.3822 22.2844 16.4 22.5866 16.48 22.8711C16.5689 23.1555 16.6489 23.4489 16.7289 23.7422C16.9244 23.1733 16.9956 22.5778 17.1911 22.0089H18.4H18.4089ZM22.3645 23.04C22.6133 22.7644 22.9156 22.7644 23.2089 22.8C23.4222 22.8266 23.5911 22.9689 23.7067 23.1378C23.8133 23.2889 23.8845 23.4666 23.8845 23.6622C23.8845 23.8755 23.8933 24.0889 23.84 24.3022C23.6889 24.9511 23.0756 25.2 22.5689 24.9155C22.48 24.8711 22.4089 24.7911 22.32 24.72C22.32 24.8089 22.3111 24.8889 22.3022 24.9689H21.5378C21.5022 24.8355 21.4933 22.3022 21.5289 21.9911H22.3467V23.0222L22.3645 23.04ZM22.7822 24.4266C22.9156 24.3733 23.0222 24.2844 23.04 24.1422C23.0578 23.9822 23.0756 23.8133 23.0222 23.6533C23.0044 23.6089 22.9956 23.5555 22.96 23.52C22.88 23.4133 22.7644 23.3778 22.64 23.4133C22.5156 23.44 22.3822 23.5911 22.3733 23.7244C22.3645 23.8311 22.3645 23.9378 22.3733 24.0444C22.3822 24.2755 22.5511 24.4266 22.7911 24.4266H22.7822ZM7.95556 24.9866H7.20001C7.16445 24.9244 7.12889 24.8533 7.08445 24.7733C6.98667 24.8266 6.89778 24.88 6.80889 24.9333C6.53334 25.0755 6.24889 25.0666 5.96445 25.0044C5.76001 24.96 5.61778 24.8266 5.52889 24.64C5.51112 24.6044 5.49334 24.56 5.49334 24.5155C5.49334 24.0622 5.61778 23.92 6.05334 23.7955C6.25778 23.7333 6.47112 23.7155 6.67556 23.6711C6.80001 23.6444 6.92445 23.5911 7.04001 23.5555C7.03112 23.3511 6.98667 23.3066 6.80889 23.2978C6.76445 23.2978 6.72001 23.2978 6.67556 23.2978C6.54223 23.2978 6.44445 23.3422 6.38223 23.4666C6.37334 23.4844 6.35556 23.5022 6.33778 23.5289C6.08001 23.5111 5.82223 23.4933 5.56445 23.4755C5.52889 23.3333 5.60001 23.2266 5.67112 23.1378C5.82223 22.9333 6.02667 22.8178 6.28445 22.8089C6.56001 22.8089 6.84445 22.7911 7.12001 22.8089C7.59112 22.8266 7.85778 23.12 7.86667 23.5822C7.86667 23.8933 7.86667 24.2044 7.86667 24.5155C7.86667 24.6578 7.85778 24.8089 7.93778 24.9333C7.93778 24.9422 7.93778 24.9689 7.93778 24.9955L7.95556 24.9866ZM6.32889 24.3466C6.34667 24.4 6.37334 24.4533 6.39112 24.5066C6.56889 24.56 6.73778 24.5866 6.90667 24.4533C7.06667 24.3289 7.07556 24.1778 7.04001 23.9911C6.87112 24.0355 6.71112 24.0622 6.56001 24.1155C6.45334 24.1511 6.36445 24.2044 6.32889 24.3466ZM27.5822 24.1244C27.5556 24.3289 27.6622 24.4444 27.8045 24.5155C28.0089 24.6133 28.1778 24.5155 28.3378 24.3466C28.5956 24.3644 28.8622 24.3911 29.1556 24.4089C29.0756 24.5778 28.9778 24.7111 28.8444 24.8089C28.6933 24.9244 28.5245 25.0044 28.3289 25.0222C27.9733 25.0578 27.6267 25.0666 27.2889 24.9244C27.04 24.8178 26.8711 24.6133 26.7733 24.3555C26.6667 24.0889 26.6933 23.8222 26.7467 23.5555C26.8 23.2889 26.9778 23.0933 27.2 22.9511C27.36 22.8533 27.5378 22.7911 27.7333 22.7911C27.9733 22.7911 28.2133 22.7822 28.4445 22.8355C28.6933 22.8978 28.88 23.0489 29.0222 23.2622C29.12 23.4222 29.1822 23.5911 29.1733 23.7778C29.1733 23.8844 29.1733 23.9911 29.1733 24.1155H27.5733L27.5822 24.1244ZM28.3378 23.7066C28.3556 23.5378 28.2933 23.4133 28.16 23.3333C28.0267 23.2533 27.8756 23.2533 27.7511 23.3333C27.6267 23.4133 27.5378 23.5289 27.5911 23.6978H28.3378V23.7066ZM20.0089 22.8C20.2311 22.7822 20.4622 22.8178 20.6756 22.9422C21.0311 23.1378 21.2089 23.4489 21.2356 23.8489C21.2622 24.2044 21.1467 24.5066 20.8889 24.7466C20.6933 24.9244 20.4622 25.0311 20.1956 25.0489C19.9911 25.0666 19.7778 25.0666 19.5733 25.0133C19.1556 24.8978 18.7556 24.4978 18.7645 24.0622C18.7645 23.8578 18.7467 23.6622 18.8356 23.4666C18.96 23.2 19.1467 23.0133 19.4133 22.8978C19.6 22.8089 19.7867 22.8089 20.0089 22.8089V22.8ZM19.8756 23.3778C19.6711 23.4755 19.5911 23.6444 19.6 23.8578C19.6 23.9111 19.6 23.9733 19.6 24.0266C19.6089 24.3466 19.7778 24.4889 20.08 24.4711C20.2578 24.4 20.3467 24.2755 20.3822 24.1155C20.4178 23.9555 20.4178 23.7866 20.3556 23.6355C20.32 23.5555 20.2578 23.4844 20.1956 23.4311C20.0978 23.3511 19.9822 23.3778 19.8756 23.3778ZM4.29334 22.0178H5.19112C5.19112 22.0178 5.20889 22.0622 5.20889 22.08C5.20889 22.7378 5.20889 23.3955 5.20889 24.0533C5.20889 24.2222 5.16445 24.3911 5.07556 24.5422C4.88889 24.8533 4.60445 25.0044 4.24889 25.04C4.03556 25.0578 3.82223 25.0489 3.60889 25.0133C3.25334 24.9422 2.95112 24.6489 2.88001 24.2844C2.86223 24.1778 2.82667 24.08 2.85334 23.9733C3.13778 23.9378 3.41334 23.9022 3.70667 23.8578C3.70667 23.9644 3.71556 24.0444 3.72445 24.1244C3.79556 24.3111 3.92889 24.3644 4.11556 24.3111C4.24001 24.24 4.28445 24.1155 4.28445 23.9644C4.28445 23.3955 4.28445 22.8266 4.28445 22.2578C4.28445 22.1778 4.28445 22.1066 4.28445 22.0089L4.29334 22.0178ZM11.1289 24.3822C11.4133 24.3644 11.68 24.3378 11.9556 24.32C11.9911 24.3733 12.0178 24.4178 12.0533 24.4622C12.16 24.6044 12.4356 24.6489 12.6133 24.4978C12.6756 24.4444 12.6756 24.3644 12.6133 24.3022C12.5333 24.2133 12.4267 24.1866 12.32 24.1866C12.0889 24.1866 11.8756 24.1066 11.6622 24.0444C11.3778 23.9644 11.1911 23.6978 11.2089 23.4222C11.2178 23.2533 11.2978 23.1111 11.4311 23.0044C11.5822 22.88 11.7689 22.8089 11.9644 22.8089C12.1778 22.8089 12.3911 22.8089 12.6133 22.8089C12.9422 22.8178 13.1822 22.9866 13.3244 23.2889C13.3244 23.2978 13.3244 23.3155 13.3333 23.3244C13.3333 23.3333 13.3333 23.3511 13.3333 23.3689C13.0756 23.4044 12.8267 23.4311 12.5778 23.4666C12.3822 23.1644 12.1244 23.1378 11.9644 23.3955C11.9733 23.4666 12.0267 23.52 12.0978 23.5289C12.1956 23.5466 12.2933 23.5555 12.3911 23.5733C12.5778 23.6089 12.7733 23.6444 12.96 23.6889C13.04 23.7066 13.12 23.7689 13.1911 23.8222C13.5556 24.0978 13.4667 24.6489 13.1022 24.8622C12.9867 24.9333 12.8711 24.9778 12.7378 24.9955C12.3733 25.0666 12.0178 25.0755 11.6533 24.9689C11.36 24.88 11.2 24.6844 11.12 24.3822H11.1289ZM8.11556 22.8444H8.37334C8.41778 22.72 8.37334 22.5778 8.40889 22.4355C8.66667 22.3111 8.92445 22.1689 9.21778 22.0266C9.24445 22.3111 9.21778 22.5778 9.23556 22.8444H9.66223C9.70667 22.9511 9.68001 23.0489 9.68001 23.1466C9.68001 23.2444 9.68001 23.3333 9.68001 23.4489H9.24445C9.20889 23.6355 9.22667 23.8044 9.22667 23.9644C9.22667 24.1244 9.17334 24.2933 9.29778 24.4533C9.40445 24.4533 9.52001 24.4444 9.63556 24.4355C9.65334 24.5955 9.67112 24.7822 9.68889 24.9689C9.40445 25.0666 9.12001 25.0933 8.84445 25.0489C8.55112 25.0044 8.40001 24.7822 8.39112 24.5066C8.39112 24.2311 8.39112 23.9466 8.39112 23.6711C8.39112 23.6089 8.39112 23.5466 8.39112 23.4666H8.08889C8.08889 23.2711 8.08889 23.0844 8.08889 22.9066C8.08889 22.8889 8.10667 22.8711 8.11556 22.8533V22.8444ZM26.3645 25.0044H25.5733C25.5289 24.8622 25.52 22.56 25.5556 22.0266H26.3733V25.0044H26.3645ZM10.8533 22.8622V24.9866C10.7111 25.0311 10.5689 24.9955 10.4267 25.0044C10.2933 25.0044 10.1511 25.0044 10.0089 25.0044V22.8711C10.1333 22.8355 10.6044 22.8266 10.8622 22.8622H10.8533ZM25.0667 25.0044H24.2756C24.24 24.8622 24.2222 23.3333 24.2578 22.8444C24.5245 22.8444 24.7911 22.8444 25.0667 22.8444V25.0044ZM10.8533 22.5778H10.0178C9.98223 22.4889 10 22.3911 10 22.3022C10 22.2133 10 22.1244 10 22.0266H10.8622C10.8622 22.1955 10.8622 22.3822 10.8622 22.5778H10.8533ZM25.0667 22.0266V22.5778H24.2489V22.0266H25.0667Z" fill="#F05023"/>
<path d="M17.3066 20.56C17.36 20.4889 17.4311 20.5334 17.5022 20.5334C17.44 20.5423 17.3778 20.5511 17.3066 20.56Z" fill="#FAA22B"/>
<path d="M22.7736 13.2178L22.7559 13.2C22.7559 13.2 22.7559 13.2 22.7559 13.1823C22.7559 13.1911 22.7559 13.2089 22.7647 13.2178" fill="#97295C"/>
<path d="M21.3774 12.5245C21.3685 12.4711 21.3596 12.4089 21.3418 12.3556C21.3507 12.4089 21.3596 12.4711 21.3774 12.5245Z" fill="#97295C"/>
<path d="M21.307 12.1512L21.2715 12.0178C21.2804 12.0623 21.2893 12.1067 21.307 12.1512Z" fill="#97295C"/>
<path d="M21.3422 12.3023C21.3333 12.2578 21.3244 12.2045 21.3066 12.16C21.3155 12.2045 21.3244 12.2578 21.3422 12.3023Z" fill="#97295C"/>
<path d="M21.262 11.9911C21.262 11.9911 21.2442 11.9378 21.2354 11.9022C21.2354 11.9289 21.2531 11.9556 21.262 11.9911Z" fill="#FAA22B"/>
<path d="M21.4133 12.6845C21.4133 12.6845 21.4044 12.6756 21.3955 12.6667C21.3955 12.6667 21.3955 12.6667 21.4044 12.6578C21.4133 12.6578 21.4133 12.6756 21.4044 12.6845" fill="#97295C"/>
<path d="M21.3782 10.7912C21.3782 10.7912 21.3605 10.7912 21.3516 10.7823C21.3516 10.7823 21.3605 10.7734 21.3693 10.7645C21.3693 10.7734 21.3693 10.7823 21.3782 10.7912Z" fill="#97295C"/>
<path d="M18.3374 9.04886C18.3374 9.04886 18.3107 9.02219 18.293 9.01331C18.3107 9.02219 18.3196 9.03997 18.3374 9.04886Z" fill="#23366D"/>
<path d="M19.8936 18.6933C19.8936 18.6933 19.8936 18.6489 19.9024 18.6311C19.9024 18.6311 19.9202 18.6311 19.9291 18.64C19.9202 18.6578 19.9024 18.6755 19.8936 18.6933Z" fill="#FAA22B"/>
<path d="M19.893 18.6934C19.893 18.6934 19.8663 18.72 19.8574 18.7378C19.8574 18.7378 19.8841 18.7111 19.9019 18.7022L19.893 18.6934Z" fill="#FAA22B"/>
<path d="M20.6582 16.409C20.6582 16.409 20.6849 16.3823 20.6938 16.3734C20.6849 16.3823 20.6671 16.4001 20.6582 16.409Z" fill="#1F783D"/>
<path d="M10.4271 13.76C10.4271 13.8222 10.4271 13.8845 10.4271 13.9467C10.4271 13.8845 10.4093 13.8222 10.4004 13.76C10.4093 13.76 10.4182 13.76 10.4359 13.76" fill="#97295C"/>
<path d="M19.1291 10.8711C19.1291 10.8711 19.1558 10.9066 19.1736 10.9244C19.1736 10.9244 19.1558 10.9333 19.1558 10.9422C19.138 10.9155 19.1291 10.8978 19.1113 10.8711H19.1291Z" fill="#97295C"/>
<path d="M9.51104 13.4934C9.51104 13.4934 9.49326 13.4934 9.48438 13.4934C9.48438 13.4756 9.48438 13.4489 9.48438 13.4312H9.50215C9.50215 13.4578 9.50215 13.4756 9.50215 13.5023" fill="#97295C"/>
<path d="M10.6484 11.6178C10.6484 11.6178 10.6662 11.5733 10.6662 11.5555C10.6662 11.5555 10.684 11.5555 10.6929 11.5555C10.6929 11.5822 10.6751 11.6089 10.6662 11.6267C10.6662 11.6267 10.6573 11.6178 10.6484 11.6089" fill="#FAA22B"/>
<path d="M12.1781 8.85337L12.1426 8.92448C12.1426 8.92448 12.1692 8.87115 12.1781 8.84448" fill="#1F783D"/>
<path d="M13.751 8.72007C13.751 8.72007 13.7776 8.72007 13.7954 8.71118C13.7954 8.71118 13.7954 8.72007 13.7954 8.72896C13.7776 8.72896 13.7688 8.72896 13.751 8.72896C13.751 8.72896 13.751 8.72007 13.751 8.71118" fill="#97295C"/>
<path d="M10.7109 11.4845H10.7198C10.7198 11.4845 10.7198 11.5023 10.7198 11.5112C10.7198 11.5112 10.7198 11.5112 10.7109 11.5023C10.7109 11.5023 10.7109 11.5023 10.7109 11.4934" fill="#97295C"/>
<path d="M12.1421 8.93335C12.1243 8.94224 12.1332 8.93335 12.1421 8.93335V8.93335Z" fill="#1F783D"/>
<path d="M10.7647 11.4222C10.7647 11.4222 10.7647 11.4222 10.7559 11.4311C10.7559 11.4311 10.7559 11.4311 10.7559 11.4222C10.7559 11.4222 10.7559 11.4222 10.7647 11.4133C10.7647 11.4133 10.7647 11.4133 10.7647 11.4222Z" fill="#97295C"/>
<path d="M13.8132 19.1201C13.8132 19.1201 13.7421 19.0934 13.6621 19.0756C13.7599 19.0312 13.8043 19.0312 13.8221 19.1112L13.8132 19.1201Z" fill="#97295C"/>
<path d="M11.1914 17.9022C11.1914 17.9022 11.2181 17.9556 11.227 17.9822C11.227 17.9822 11.2003 17.9289 11.1914 17.9022Z" fill="#23366D"/>
<path d="M14.8799 19.2356C14.8799 19.2356 14.9332 19.2534 14.9599 19.2623C14.9332 19.2534 14.9065 19.2445 14.8799 19.2356Z" fill="#97295C"/>
<path d="M13.6535 19.0222C13.6535 19.0222 13.6535 19.0311 13.6446 19.0222C13.6446 19.0222 13.6446 19.0222 13.6357 19.0134C13.6357 19.0134 13.6357 19.0045 13.6446 19.0134C13.6446 19.0134 13.6446 19.0134 13.6535 19.0222Z" fill="#97295C"/>
<path d="M11.3418 18.0889C11.3418 18.0889 11.3596 18.0978 11.3685 18.1066C11.3596 18.1066 11.3507 18.0978 11.3418 18.0889Z" fill="#97295C"/>
<path d="M11.307 18.0534C11.307 18.0534 11.2804 18.0267 11.2715 18.0178C11.2715 18.0178 11.2982 18.0445 11.307 18.0534Z" fill="#97295C"/>
<path d="M11.2709 18.0089C11.2709 18.0089 11.2442 17.9823 11.2354 17.9734C11.2354 17.9734 11.262 18.0001 11.2709 18.0178V18.0089Z" fill="#23366D"/>
<path d="M12.5869 11.0134C12.5869 10.9601 12.6047 10.9156 12.6758 10.9067C12.6936 10.969 12.6491 10.9956 12.6047 11.0223H12.5958L12.5869 11.0134Z" fill="#FAA22B"/>
<path d="M12.8621 16.9067C12.8621 16.9067 12.8177 16.88 12.791 16.8711C12.791 16.8711 12.8088 16.8534 12.8177 16.8445C12.8355 16.8623 12.8532 16.8889 12.871 16.9067H12.8621Z" fill="#97295C"/>
<path d="M12.889 16.9956C12.889 16.9956 12.8712 16.9423 12.8623 16.9067C12.8623 16.9067 12.8979 16.9423 12.9156 16.969C12.9067 16.969 12.8979 16.9867 12.889 16.9956Z" fill="#97295C"/>
<path d="M18.8264 17.1378C18.8264 17.1378 18.8264 17.1556 18.8264 17.1645H18.8086C18.8175 17.1645 18.8264 17.1556 18.8353 17.1467" fill="#1F783D"/>
<path d="M12.5508 11.0489C12.5508 11.0489 12.5774 11.0222 12.5952 11.0133H12.6041C12.6041 11.0133 12.5774 11.0577 12.5686 11.0666C12.5686 11.0666 12.5597 11.0578 12.5508 11.0489Z" fill="#FAA22B"/>
<path d="M12.6758 10.9067C12.6758 10.9067 12.7024 10.88 12.7113 10.8711C12.7113 10.8711 12.6847 10.8978 12.6758 10.9067Z" fill="#FAA22B"/>
<path d="M12.7109 10.8711C12.7109 10.8711 12.7376 10.8445 12.7465 10.8356L12.7109 10.8711Z" fill="#FAA22B"/>
<path d="M12.7826 10.7911C12.7826 10.7911 12.756 10.8178 12.7471 10.8267C12.7471 10.8267 12.7737 10.8 12.7826 10.7911Z" fill="#FAA22B"/>
<path d="M12.791 10.7912C12.791 10.7912 12.7999 10.7734 12.8088 10.7645C12.8088 10.7645 12.7999 10.7823 12.791 10.7912Z" fill="#FAA22B"/>
</g>
</g>
<defs>
<clipPath id="clip0_2810_57566">
<rect width="32" height="32" fill="white"/>
</clipPath>
</defs>
</svg>
