<svg width="32" height="32" viewBox="0 0 32 32" fill="none" xmlns="http://www.w3.org/2000/svg">
<g clip-path="url(#clip0_2707_327733)">
<path d="M15.9998 31.9823C24.8265 31.9823 31.982 24.8268 31.982 16C31.982 7.17331 24.8265 0.0178223 15.9998 0.0178223C7.17306 0.0178223 0.0175781 7.17331 0.0175781 16C0.0175781 24.8268 7.17306 31.9823 15.9998 31.9823Z" fill="white"/>
<path d="M11.2974 12.4444C11.2974 13.3867 11.2974 14.32 11.2974 15.2622V19.5555H4.96851V14.0444H7.74184V17.0311H8.38184V13.4222H4.26628V19.5555H3.16406V12.4444H9.54628C9.54628 14.2933 9.54628 16.1393 9.54628 17.9822H6.66628V15.0489H6.08851V18.5333H10.1418V12.7111C10.1371 12.6193 10.1371 12.5273 10.1418 12.4355L11.2974 12.4444Z" fill="#FC0202"/>
<path d="M18.9774 12.4445L20.2574 14.8622L20.8797 16.0356C20.3476 16.0866 19.8118 16.0866 19.2797 16.0356L18.9597 15.3956H17.1819L16.8708 16.0356H15.3774C15.3774 15.9733 15.4308 15.9111 15.4663 15.8489L17.2441 12.4622L18.9774 12.4445ZM18.5863 14.5867C18.4174 14.1956 18.2574 13.8222 18.0619 13.3956C17.8663 13.8222 17.6974 14.1956 17.5108 14.5867H18.5863Z" fill="#060606"/>
<path d="M26.9598 12.4445C26.9781 12.5201 27.0019 12.5944 27.0309 12.6667L28.7287 15.8578C28.7682 15.9224 28.801 15.9909 28.8264 16.0622H27.2176L26.8976 15.4222H25.1198L24.8087 16.0711H23.3242C23.3687 15.9822 23.3953 15.9022 23.4398 15.8311L25.1198 12.6667C25.1547 12.5949 25.1844 12.5206 25.2087 12.4445H26.9598ZM25.4576 14.5956H26.542C26.3731 14.1956 26.222 13.8222 26.0087 13.4045L25.4576 14.5956Z" fill="#060606"/>
<path d="M24.6396 12.4445C24.601 12.535 24.5534 12.6213 24.4974 12.7022C23.9996 13.2711 23.5018 13.8311 23.013 14.4L22.8707 14.5778V16.0622H21.333V14.56L20.3018 13.3333C20.0974 13.1022 19.893 12.8711 19.7063 12.6311C19.649 12.5748 19.5983 12.5122 19.5552 12.4445H21.2441C21.5107 12.8267 21.8218 13.1645 22.133 13.5467L23.0218 12.4889L24.6396 12.4445Z" fill="#060606"/>
<path d="M15.4752 12.4445C15.4704 12.5362 15.4704 12.6282 15.4752 12.72C15.4752 13.4222 15.4752 14.1333 15.4752 14.8356C15.4884 15.0423 15.4375 15.2481 15.3293 15.4247C15.2211 15.6013 15.0609 15.7402 14.8707 15.8222C14.6382 15.9269 14.3932 16.0016 14.1418 16.0445C13.6703 16.1348 13.1846 16.1196 12.7196 16C12.4667 15.9395 12.2437 15.7908 12.0906 15.5806C11.9374 15.3705 11.8642 15.1126 11.884 14.8533H13.2618L13.3152 15.0756C13.3325 15.1498 13.3745 15.2159 13.4342 15.2633C13.4939 15.3106 13.5678 15.3364 13.644 15.3364C13.7202 15.3364 13.7942 15.3106 13.8539 15.2633C13.9136 15.2159 13.9556 15.1498 13.9729 15.0756C14.0081 14.9542 14.026 14.8286 14.0263 14.7022V12.4445H15.4752Z" fill="#060606"/>
<path d="M11.9199 19.5555V18.4711C12.0977 18.4178 28.4533 18.4 28.8088 18.4711V19.5555H11.9199Z" fill="#060606"/>
<path d="M16.9333 17.3156V16.5956H17.4222V17.92H16.7289L16.2933 17.1822H16.2311V17.9111H15.7422V16.5956H16.4444L16.88 17.3334L16.9333 17.3156Z" fill="#060606"/>
<path d="M14.5952 17.9912C14.4262 17.9633 14.2597 17.9217 14.0975 17.8667C13.9696 17.8235 13.8599 17.7388 13.7858 17.626C13.7117 17.5133 13.6775 17.379 13.6886 17.2445C13.6882 17.1143 13.7271 16.9871 13.8 16.8793C13.8729 16.7715 13.9765 16.6882 14.0975 16.64C14.2551 16.574 14.4243 16.54 14.5952 16.54C14.7661 16.54 14.9354 16.574 15.093 16.64C15.22 16.6855 15.3291 16.7704 15.4043 16.8824C15.4794 16.9944 15.5168 17.1275 15.5108 17.2623C15.519 17.3916 15.4855 17.5202 15.415 17.6291C15.3446 17.7379 15.2411 17.8212 15.1197 17.8667C14.9481 17.9208 14.7728 17.9624 14.5952 17.9912ZM14.5952 16.8623C14.373 16.8623 14.2486 16.9867 14.2397 17.2267C14.2308 17.4667 14.3375 17.6356 14.5419 17.6534C14.5931 17.6574 14.6446 17.6502 14.6928 17.6325C14.741 17.6147 14.7847 17.5866 14.8211 17.5503C14.8574 17.514 14.8854 17.4702 14.9032 17.422C14.921 17.3738 14.9281 17.3224 14.9241 17.2712C14.9597 17.0312 14.8263 16.8889 14.6219 16.8889L14.5952 16.8623Z" fill="#060606"/>
<path d="M24.7645 16.5867H25.2889V17.0311C25.4933 16.9156 25.5822 16.7111 25.7689 16.5867H26.3378C26.1778 16.8089 25.9733 16.9689 25.7956 17.1822L26.3911 17.9022C26.1908 17.9331 25.987 17.9331 25.7867 17.9022L25.3245 17.3511H25.28V17.8578H24.7378L24.7645 16.5867Z" fill="#060606"/>
<path d="M11.9375 16.5867H12.4442V17.0489L12.8531 16.5867H13.4931L12.942 17.1822L13.5553 17.9289H12.9242L12.4797 17.3956H12.4264V17.9111H11.8931L11.9375 16.5867Z" fill="#060606"/>
<path d="M21.0308 16.5956H22.0974H22.2485C22.3135 16.6037 22.3743 16.6322 22.4222 16.6768C22.4701 16.7215 22.5026 16.7802 22.5152 16.8445C22.5316 16.9071 22.5254 16.9734 22.4978 17.0319C22.4702 17.0904 22.4228 17.1374 22.3641 17.1645L22.3108 17.2267C22.5063 17.3956 22.4885 17.6356 22.5508 17.8845H21.9908L21.8752 17.4311H21.573V17.9111H21.0308V16.5956ZM21.973 16.9956C21.8485 16.8534 21.7152 16.8889 21.5641 16.9067V17.1289C21.7241 17.0934 21.8752 17.1734 21.973 16.9956Z" fill="#060606"/>
<path d="M23.8842 17.5379V16.5957H24.4353C24.4353 16.8979 24.4353 17.2001 24.4353 17.4845C24.4255 17.562 24.3946 17.6353 24.346 17.6964C24.2974 17.7576 24.233 17.8042 24.1597 17.8312C23.9823 17.917 23.7879 17.9616 23.5908 17.9616C23.3938 17.9616 23.1993 17.917 23.0219 17.8312C22.9489 17.8011 22.8859 17.7508 22.8403 17.6863C22.7947 17.6218 22.7683 17.5457 22.7642 17.4668C22.7642 17.1734 22.7642 16.889 22.7642 16.5779H23.2975V17.2534C23.2975 17.3868 23.2975 17.529 23.4308 17.5912C23.5025 17.6309 23.5847 17.6471 23.6661 17.6375C23.7474 17.628 23.8237 17.5931 23.8842 17.5379Z" fill="#060606"/>
<path d="M27.5551 16.9956C27.3862 16.8267 27.3862 16.8267 27.1818 16.9245C27.1818 17.0312 27.2707 17.04 27.3418 17.0489C27.4129 17.0578 27.6351 17.12 27.7862 17.1556C27.872 17.1691 27.9501 17.2128 28.0065 17.2788C28.063 17.3448 28.094 17.4288 28.094 17.5156C28.094 17.6024 28.063 17.6864 28.0065 17.7524C27.9501 17.8184 27.872 17.8621 27.7862 17.8756C27.4723 18.0003 27.1225 18.0003 26.8085 17.8756C26.725 17.8476 26.6537 17.7916 26.6067 17.7171C26.5598 17.6426 26.54 17.5541 26.5507 17.4667H27.0218C27.2262 17.68 27.3062 17.6978 27.5285 17.5112C27.4461 17.4699 27.3597 17.4372 27.2707 17.4134C27.1285 17.3689 26.9774 17.3512 26.844 17.3156C26.7627 17.3025 26.6888 17.2608 26.6354 17.1981C26.582 17.1354 26.5527 17.0557 26.5527 16.9734C26.5527 16.891 26.582 16.8114 26.6354 16.7487C26.6888 16.686 26.7627 16.6443 26.844 16.6312C27.1308 16.525 27.4461 16.525 27.7329 16.6312C27.9196 16.7023 27.9729 16.7823 27.9818 17.0223L27.5551 16.9956Z" fill="#060606"/>
<path d="M17.6708 17.4667H18.1597L18.2753 17.609C18.3421 17.6383 18.4163 17.6463 18.4879 17.632C18.5594 17.6177 18.6249 17.5817 18.6753 17.529L18.3819 17.4134L17.9375 17.2978C17.8693 17.2818 17.8085 17.2433 17.765 17.1884C17.7214 17.1336 17.6976 17.0657 17.6975 16.9956C17.689 16.9223 17.7054 16.8482 17.7441 16.7853C17.7828 16.7224 17.8415 16.6744 17.9108 16.649C18.0721 16.5787 18.246 16.5425 18.4219 16.5425C18.5978 16.5425 18.7718 16.5787 18.933 16.649C19.0056 16.6716 19.0669 16.7208 19.1048 16.7867C19.1427 16.8526 19.1544 16.9304 19.1375 17.0045H18.6664C18.4708 16.8267 18.453 16.8267 18.2397 17.0045L18.5241 17.1023L18.9241 17.1912C19.001 17.209 19.0705 17.2502 19.123 17.3091C19.1755 17.368 19.2085 17.4417 19.2175 17.5201C19.2224 17.594 19.2034 17.6676 19.1634 17.73C19.1234 17.7924 19.0645 17.8403 18.9953 17.8667C18.8238 17.9457 18.6373 17.9866 18.4486 17.9866C18.2599 17.9866 18.0734 17.9457 17.9019 17.8667C17.8241 17.8357 17.759 17.7793 17.7171 17.7068C17.6752 17.6342 17.6589 17.5497 17.6708 17.4667Z" fill="#060606"/>
<path d="M19.8133 16.8889H19.3066V16.5867H20.8889V16.8889H20.3822V17.9378H19.8311L19.8133 16.8889Z" fill="#060606"/>
<path d="M28.8443 16.5867H28.3198V17.92H28.8443V16.5867Z" fill="#060606"/>
</g>
<defs>
<clipPath id="clip0_2707_327733">
<rect width="32" height="32" fill="white"/>
</clipPath>
</defs>
</svg>
