<svg width="32" height="32" viewBox="0 0 32 32" fill="none" xmlns="http://www.w3.org/2000/svg">
<g clip-path="url(#clip0_2707_327543)">
<path d="M16 32C24.8366 32 32 24.8366 32 16C32 7.16344 24.8366 0 16 0C7.16344 0 0 7.16344 0 16C0 24.8366 7.16344 32 16 32Z" fill="white"/>
<path d="M15.9998 29.3333C23.3636 29.3333 29.3332 23.3638 29.3332 16C29.3332 8.63616 23.3636 2.66663 15.9998 2.66663C8.63604 2.66663 2.6665 8.63616 2.6665 16C2.6665 23.3638 8.63604 29.3333 15.9998 29.3333Z" fill="white"/>
<path d="M15.929 15.6711C15.7663 15.6711 15.6103 15.6065 15.4953 15.4915C15.3803 15.3765 15.3156 15.2205 15.3156 15.0578C15.3164 14.9047 15.377 14.7579 15.4845 14.6489C16.3062 13.789 17.0722 12.8775 17.7779 11.92C18.0066 11.4083 18.0475 10.8323 17.8934 10.2934C17.8287 10.0399 17.7124 9.80254 17.5518 9.59607C17.3913 9.38959 17.1898 9.21846 16.9601 9.09336C16.6381 8.92804 16.2776 8.85237 15.9164 8.87426C15.5551 8.89616 15.2064 9.01482 14.9068 9.2178C14.6368 9.37368 14.4125 9.59782 14.2565 9.86772C14.1005 10.1376 14.0182 10.4438 14.0179 10.7556C14.022 10.7654 14.0242 10.776 14.0242 10.7867C14.0242 10.7974 14.022 10.808 14.0179 10.8178C14.0831 11.5647 14.4371 12.2567 15.0045 12.7467C15.1224 12.8646 15.1886 13.0244 15.1886 13.1911C15.1886 13.3578 15.1224 13.5177 15.0045 13.6356C14.8867 13.7535 14.7268 13.8197 14.5601 13.8197C14.3934 13.8197 14.2335 13.7535 14.1156 13.6356C13.7163 13.2802 13.3919 12.8487 13.1614 12.3664C12.9309 11.8841 12.799 11.3606 12.7734 10.8267C12.7518 10.2965 12.8753 9.77037 13.1306 9.30514C13.3859 8.83992 13.7634 8.45321 14.2223 8.18669C14.7075 7.8572 15.2731 7.66578 15.8587 7.6329C16.4442 7.60002 17.0277 7.72692 17.5468 8.00002C17.9173 8.20308 18.2425 8.4797 18.5024 8.81291C18.7622 9.14613 18.9512 9.52892 19.0579 9.9378C19.3 10.7912 19.2144 11.7043 18.8179 12.4978C18.0692 13.5317 17.2526 14.5146 16.3734 15.44C16.3202 15.5081 16.2529 15.5639 16.1763 15.6038C16.0996 15.6437 16.0153 15.6666 15.929 15.6711Z" fill="#2C9E80"/>
<path d="M10.4178 19.7333C9.90978 19.7224 9.41317 19.581 8.9757 19.3225C8.53824 19.0641 8.17467 18.6974 7.91998 18.2578C7.60376 17.7712 7.42305 17.2091 7.39649 16.6294C7.36992 16.0497 7.49847 15.4734 7.76887 14.96C7.97317 14.5904 8.25017 14.2659 8.5832 14.0062C8.91623 13.7465 9.29839 13.5569 9.70665 13.4489C10.56 13.2067 11.4731 13.2923 12.2666 13.6889C13.3023 14.4352 14.2854 15.252 15.2089 16.1333C15.3012 16.2482 15.3491 16.3924 15.3438 16.5397C15.3385 16.687 15.2803 16.8274 15.18 16.9353C15.0796 17.0432 14.9438 17.1114 14.7973 17.1273C14.6508 17.1433 14.5034 17.106 14.3822 17.0222C13.525 16.2009 12.6165 15.4349 11.6622 14.7289C11.1503 14.5009 10.5745 14.46 10.0355 14.6133C9.78132 14.6791 9.54346 14.7967 9.33693 14.9589C9.13041 15.121 8.95969 15.3242 8.83554 15.5555C8.67037 15.8791 8.59481 16.241 8.61669 16.6036C8.63857 16.9662 8.7571 17.3164 8.95998 17.6178C9.11586 17.8878 9.33999 18.112 9.6099 18.268C9.87981 18.424 10.186 18.5063 10.4978 18.5067H10.56C11.2887 18.4291 11.9615 18.0801 12.4444 17.5289C12.5623 17.411 12.7222 17.3448 12.8889 17.3448C13.0556 17.3448 13.2154 17.411 13.3333 17.5289C13.4512 17.6468 13.5174 17.8066 13.5174 17.9733C13.5174 18.14 13.4512 18.2999 13.3333 18.4178C12.61 19.2173 11.6008 19.6995 10.5244 19.76L10.4178 19.7333Z" fill="#DCAF0D"/>
<path d="M21.5113 19.7333H21.3868C20.3119 19.6672 19.3047 19.1859 18.578 18.3911C18.5165 18.3345 18.4675 18.2657 18.434 18.1893C18.4005 18.1128 18.3832 18.0301 18.3832 17.9466C18.3832 17.8631 18.4005 17.7805 18.434 17.704C18.4675 17.6275 18.5165 17.5588 18.578 17.5022C18.6338 17.4395 18.7023 17.3894 18.7789 17.3551C18.8555 17.3208 18.9385 17.3031 19.0224 17.3031C19.1063 17.3031 19.1893 17.3208 19.2659 17.3551C19.3425 17.3894 19.411 17.4395 19.4668 17.5022C19.9372 18.0654 20.6049 18.4279 21.3335 18.5155H21.3957C21.7075 18.5152 22.0137 18.4329 22.2836 18.2769C22.5535 18.1209 22.7776 17.8966 22.9335 17.6266C23.1465 17.3292 23.2754 16.9799 23.3067 16.6155C23.338 16.251 23.2705 15.8849 23.1113 15.5555C22.9853 15.3264 22.8139 15.1255 22.6076 14.965C22.4013 14.8045 22.1643 14.6879 21.9113 14.6222C21.3693 14.469 20.7908 14.5099 20.2757 14.7377C19.3232 15.446 18.4148 16.2119 17.5557 17.0311C17.4345 17.1148 17.2872 17.1522 17.1407 17.1362C16.9942 17.1202 16.8583 17.0521 16.758 16.9442C16.6576 16.8363 16.5995 16.6958 16.5941 16.5486C16.5888 16.4013 16.6367 16.257 16.7291 16.1422C17.6545 15.263 18.6374 14.4464 19.6713 13.6977C20.4611 13.3005 21.3707 13.2117 22.2224 13.4488C22.6307 13.5569 23.0128 13.7465 23.3458 14.0062C23.6789 14.2659 23.9559 14.5903 24.1602 14.96C24.432 15.4734 24.5606 16.0505 24.5325 16.6308C24.5043 17.2111 24.3205 17.773 24.0002 18.2577C23.7476 18.6973 23.3857 19.0641 22.9497 19.3226C22.5136 19.5811 22.0181 19.7226 21.5113 19.7333Z" fill="black"/>
<path d="M5.76904 21.3334C5.76491 21.2982 5.76833 21.2626 5.77906 21.2289C5.78979 21.1952 5.80759 21.1641 5.83126 21.1378C5.85608 21.1141 5.88538 21.0957 5.91743 21.0835C5.94948 21.0712 5.98365 21.0655 6.01793 21.0667C6.05238 21.0638 6.08704 21.0688 6.11934 21.0811C6.15165 21.0934 6.18078 21.1128 6.2046 21.1378C6.22781 21.1644 6.2453 21.1955 6.25601 21.2291C6.26671 21.2628 6.27039 21.2983 6.26682 21.3334V22.8178C6.28439 22.9327 6.28439 23.0496 6.26682 23.1645C6.2483 23.2314 6.21822 23.2946 6.17793 23.3512C6.11022 23.4353 6.02121 23.4997 5.92015 23.5378C5.79429 23.5807 5.66201 23.6018 5.52904 23.6C5.32159 23.6101 5.11717 23.5472 4.95126 23.4223C4.88068 23.3625 4.82474 23.2874 4.78775 23.2026C4.75077 23.1179 4.73372 23.0258 4.73793 22.9334C4.73625 22.8435 4.75767 22.7548 4.80015 22.6756C4.81978 22.6469 4.8464 22.6237 4.87751 22.6081C4.90862 22.5925 4.94318 22.5852 4.97793 22.5867C5.0189 22.5775 5.0614 22.5775 5.10238 22.5867C5.13526 22.6063 5.16275 22.6338 5.18238 22.6667C5.19079 22.7286 5.19079 22.7914 5.18238 22.8534C5.17756 22.8828 5.17756 22.9128 5.18238 22.9423C5.1881 22.9822 5.2055 23.0195 5.23239 23.0496C5.25928 23.0796 5.29445 23.101 5.33349 23.1112C5.39338 23.1529 5.46493 23.1747 5.53793 23.1734C5.57816 23.1786 5.61906 23.1731 5.65651 23.1575C5.69395 23.1419 5.72663 23.1167 5.75126 23.0845C5.80409 22.9931 5.82591 22.8871 5.81349 22.7823L5.76904 21.3334Z" fill="black"/>
<path d="M7.22647 23.2533C7.23463 23.3353 7.2125 23.4175 7.16424 23.4844C7.14267 23.5099 7.11518 23.5297 7.08419 23.5421C7.0532 23.5545 7.01965 23.5591 6.98647 23.5555C6.95341 23.5577 6.92028 23.5524 6.88952 23.5401C6.85877 23.5278 6.83115 23.5088 6.80869 23.4844C6.76685 23.415 6.74818 23.334 6.75535 23.2533V21.4755C6.74293 21.3707 6.76476 21.2647 6.81758 21.1733C6.84942 21.1434 6.88737 21.1208 6.9288 21.107C6.97023 21.0932 7.01417 21.0885 7.05758 21.0933H7.23535C7.31042 21.0868 7.38552 21.1056 7.44869 21.1466C7.51633 21.2378 7.5592 21.345 7.57313 21.4577L7.9998 22.9422L8.39091 21.4488C8.41115 21.3336 8.45669 21.2243 8.52424 21.1288C8.55011 21.1041 8.58086 21.0849 8.61453 21.0727C8.6482 21.0604 8.68405 21.0554 8.7198 21.0577H8.88869C8.9321 21.0529 8.97603 21.0576 9.01746 21.0714C9.05889 21.0852 9.09684 21.1079 9.12869 21.1377C9.17688 21.2308 9.19841 21.3354 9.19091 21.44V23.2177C9.19691 23.2984 9.17831 23.379 9.13758 23.4488C9.11475 23.4727 9.08707 23.4914 9.0564 23.5037C9.02573 23.5159 8.99279 23.5215 8.9598 23.52C8.92674 23.5221 8.89362 23.5168 8.86286 23.5045C8.8321 23.4922 8.80448 23.4732 8.78202 23.4488C8.73377 23.382 8.71164 23.2998 8.7198 23.2177V21.5288L8.30202 23.1822C8.2848 23.2778 8.24177 23.367 8.17758 23.44C8.15783 23.4707 8.13177 23.4969 8.10112 23.5169C8.07047 23.5368 8.03593 23.55 7.9998 23.5555C7.92128 23.5559 7.84535 23.5275 7.78647 23.4755C7.72402 23.4014 7.68122 23.3127 7.66202 23.2177L7.24424 21.5644L7.22647 23.2533Z" fill="black"/>
<path d="M10.0264 23.3689C10.0149 23.4255 9.98331 23.476 9.93754 23.5111C9.889 23.544 9.83172 23.5616 9.7731 23.5616C9.71448 23.5616 9.6572 23.544 9.60865 23.5111C9.58777 23.4902 9.57145 23.4652 9.56074 23.4377C9.55003 23.4101 9.54516 23.3807 9.54643 23.3511C9.54212 23.3306 9.54212 23.3094 9.54643 23.2889C9.54116 23.2685 9.54116 23.2471 9.54643 23.2267L10.2398 21.3334C10.2636 21.2513 10.3098 21.1774 10.3731 21.12C10.4519 21.1005 10.5343 21.1005 10.6131 21.12C10.6891 21.1022 10.7682 21.1022 10.8442 21.12C10.9069 21.1744 10.953 21.2452 10.9775 21.3245L11.662 23.2267C11.6712 23.2677 11.6712 23.3102 11.662 23.3511C11.6616 23.3812 11.6551 23.4109 11.6429 23.4384C11.6306 23.4659 11.6129 23.4907 11.5909 23.5111C11.5408 23.5521 11.4778 23.5741 11.4131 23.5734C11.3597 23.5722 11.3075 23.5568 11.262 23.5289C11.2162 23.4937 11.1847 23.4432 11.1731 23.3867L11.0575 23.04H10.142L10.0264 23.3689ZM10.6131 21.5911L10.2753 22.6223H10.9509L10.6131 21.5911Z" fill="black"/>
<path d="M14.7289 21.5822C14.7285 21.6414 14.7064 21.6983 14.6666 21.7422C14.6233 21.7827 14.566 21.805 14.5066 21.8044C14.4542 21.7997 14.4035 21.7828 14.3588 21.755C14.314 21.7272 14.2764 21.6893 14.2489 21.6444L14.2222 21.5822C14.1756 21.5311 14.1178 21.4915 14.0533 21.4666C13.9768 21.4532 13.8986 21.4532 13.8222 21.4666C13.7154 21.4595 13.6092 21.4876 13.52 21.5466C13.4863 21.571 13.459 21.6031 13.4405 21.6402C13.4219 21.6774 13.4126 21.7184 13.4133 21.76C13.4133 21.8933 13.5555 21.9822 13.8311 22.0533H13.9822L14.3644 22.16C14.4385 22.1819 14.51 22.2117 14.5777 22.2489C14.6704 22.3017 14.7471 22.3784 14.8 22.4711C14.8497 22.5766 14.8741 22.6923 14.8711 22.8089C14.8749 22.9171 14.8536 23.0248 14.8089 23.1235C14.7642 23.2222 14.6972 23.3092 14.6133 23.3777C14.4153 23.5298 14.1692 23.6055 13.92 23.5911C13.7819 23.5914 13.6444 23.5735 13.5111 23.5377C13.3935 23.5026 13.2824 23.4486 13.1822 23.3777C13.1096 23.326 13.049 23.2594 13.0044 23.1822C12.9614 23.1196 12.9396 23.0448 12.9422 22.9689C12.9395 22.9365 12.9436 22.904 12.9544 22.8733C12.9651 22.8427 12.9821 22.8147 13.0044 22.7911C13.0237 22.768 13.0484 22.7503 13.0764 22.7394C13.1044 22.7285 13.1347 22.7249 13.1644 22.7289C13.2168 22.7337 13.2671 22.7517 13.3106 22.7812C13.3541 22.8108 13.3895 22.8508 13.4133 22.8977C13.431 22.9322 13.4519 22.9649 13.4755 22.9955C13.5238 23.053 13.5846 23.0986 13.6533 23.1289C13.7363 23.1573 13.8233 23.1723 13.9111 23.1733C14.0183 23.1783 14.1251 23.1569 14.2222 23.1111C14.2585 23.0826 14.2878 23.0461 14.3078 23.0045C14.3279 22.9629 14.3381 22.9172 14.3377 22.8711C14.3377 22.7289 14.1333 22.6133 13.7244 22.5155C13.4927 22.4794 13.2732 22.3879 13.0844 22.2489C13.0279 22.1866 12.9846 22.1136 12.9571 22.0341C12.9296 21.9547 12.9185 21.8705 12.9244 21.7866C12.9199 21.6839 12.9392 21.5814 12.9808 21.4874C13.0224 21.3933 13.0853 21.3101 13.1644 21.2444C13.363 21.1097 13.6004 21.0441 13.84 21.0577C13.9631 21.05 14.0867 21.0651 14.2044 21.1022C14.3095 21.1284 14.4089 21.1736 14.4977 21.2355C14.5651 21.2832 14.6225 21.3436 14.6666 21.4133C14.6999 21.4641 14.7212 21.5219 14.7289 21.5822Z" fill="black"/>
<path d="M15.1113 21.5289C15.0869 21.4863 15.0661 21.4417 15.0491 21.3956C15.0448 21.3602 15.0448 21.3243 15.0491 21.2889C15.0495 21.2254 15.0751 21.1647 15.1202 21.12C15.1428 21.0989 15.1693 21.0825 15.1984 21.0718C15.2274 21.0611 15.2582 21.0564 15.2891 21.0578C15.3448 21.0458 15.4023 21.0458 15.458 21.0578C15.5155 21.1217 15.5634 21.1935 15.6002 21.2711L16.0091 22.0978L16.4091 21.2089C16.434 21.1469 16.4737 21.092 16.5247 21.0489C16.5771 21.035 16.6322 21.035 16.6847 21.0489C16.7484 21.0448 16.8115 21.0638 16.8624 21.1022C16.8847 21.1181 16.9023 21.1397 16.9132 21.1648C16.9242 21.1898 16.9281 21.2174 16.9247 21.2445C16.9168 21.2755 16.9048 21.3054 16.8891 21.3334C16.8891 21.3334 16.8891 21.3956 16.8891 21.4311L16.2758 22.5956V23.2711C16.2785 23.3416 16.2565 23.4108 16.2136 23.4667C16.1877 23.4915 16.1569 23.5106 16.1233 23.5229C16.0896 23.5351 16.0537 23.5402 16.018 23.5378C15.9837 23.539 15.9496 23.5333 15.9175 23.5211C15.8854 23.5089 15.8561 23.4904 15.8313 23.4667C15.7884 23.4108 15.7664 23.3416 15.7691 23.2711V22.5956L15.1113 21.5289Z" fill="black"/>
<path d="M17.3599 23.3689C17.3484 23.4255 17.3168 23.476 17.271 23.5111C17.2225 23.544 17.1652 23.5616 17.1066 23.5616C17.048 23.5616 16.9907 23.544 16.9422 23.5111C16.9213 23.4902 16.9049 23.4652 16.8942 23.4377C16.8835 23.4101 16.8787 23.3807 16.8799 23.3511C16.8756 23.3306 16.8756 23.3094 16.8799 23.2889C16.8747 23.2685 16.8747 23.2471 16.8799 23.2267L17.5733 21.3334C17.6007 21.2529 17.6463 21.1799 17.7066 21.12C17.7854 21.1005 17.8678 21.1005 17.9466 21.12C18.0225 21.1012 18.1018 21.1012 18.1777 21.12C18.2404 21.1744 18.2865 21.2452 18.311 21.3245L18.9955 23.2267C19.0047 23.2677 19.0047 23.3102 18.9955 23.3511C18.9951 23.3812 18.9886 23.4109 18.9764 23.4384C18.9641 23.4659 18.9464 23.4907 18.9244 23.5111C18.8743 23.5521 18.8113 23.5741 18.7466 23.5734C18.6908 23.5765 18.6357 23.5594 18.5916 23.5251C18.5474 23.4907 18.5173 23.4416 18.5066 23.3867L18.391 23.04H17.4755L17.3599 23.3689ZM17.9466 21.5911L17.6088 22.6311H18.2844L17.9466 21.5911Z" fill="black"/>
<path d="M19.8576 23.2889C19.8612 23.324 19.8575 23.3595 19.8468 23.3931C19.8361 23.4268 19.8186 23.4579 19.7954 23.4845C19.7712 23.509 19.742 23.5281 19.7098 23.5404C19.6776 23.5526 19.6431 23.5578 19.6087 23.5556C19.5745 23.5567 19.5403 23.551 19.5082 23.5388C19.4762 23.5266 19.4469 23.5081 19.4221 23.4845C19.3989 23.4579 19.3814 23.4268 19.3707 23.3931C19.36 23.3595 19.3563 23.324 19.3598 23.2889V21.5111C19.3474 21.4063 19.3692 21.3003 19.4221 21.2089C19.4539 21.179 19.4919 21.1564 19.5333 21.1426C19.5747 21.1288 19.6187 21.1241 19.6621 21.1289H20.551C20.7603 21.1142 20.9681 21.174 21.1376 21.2978C21.2385 21.4205 21.3014 21.5698 21.3188 21.7277C21.3361 21.8855 21.3072 22.045 21.2354 22.1867C21.1724 22.2832 21.0783 22.3553 20.9687 22.3911C21.0484 22.4193 21.119 22.4685 21.1732 22.5333C21.2237 22.6139 21.2541 22.7053 21.2621 22.8C21.2621 22.8445 21.2621 22.9067 21.2621 22.9778C21.2578 23.0281 21.2578 23.0786 21.2621 23.1289C21.2648 23.1703 21.2648 23.2119 21.2621 23.2533C21.267 23.2917 21.267 23.3305 21.2621 23.3689C21.2642 23.3994 21.2588 23.4299 21.2464 23.4578C21.234 23.4857 21.215 23.5101 21.191 23.5289C21.1677 23.5517 21.1397 23.569 21.109 23.5798C21.0783 23.5905 21.0456 23.5944 21.0132 23.5911C20.9717 23.5962 20.9295 23.5907 20.8907 23.5751C20.8518 23.5596 20.8175 23.5345 20.791 23.5022C20.7241 23.3606 20.6906 23.2055 20.6932 23.0489C20.7012 22.9212 20.6702 22.7941 20.6043 22.6845C20.526 22.6312 20.432 22.6062 20.3376 22.6133H19.8043L19.8576 23.2889ZM19.8576 21.5111V22.1511H20.4443C20.5442 22.1577 20.6437 22.1328 20.7287 22.08C20.7614 22.048 20.7864 22.0089 20.8018 21.9658C20.8172 21.9227 20.8226 21.8766 20.8176 21.8311C20.8219 21.787 20.8161 21.7425 20.8007 21.7009C20.7853 21.6593 20.7607 21.6218 20.7287 21.5911C20.6893 21.5591 20.6437 21.5355 20.5948 21.5218C20.5459 21.508 20.4947 21.5044 20.4443 21.5111H19.8576Z" fill="black"/>
<path d="M21.7867 21.3333C21.7824 21.2626 21.8046 21.1929 21.8489 21.1377C21.8737 21.114 21.903 21.0956 21.9351 21.0834C21.9671 21.0711 22.0013 21.0655 22.0356 21.0666C22.0713 21.0642 22.1072 21.0693 22.1409 21.0816C22.1745 21.0938 22.2053 21.1129 22.2312 21.1377C22.2741 21.1937 22.2961 21.2628 22.2934 21.3333V23.2888C22.2961 23.3593 22.2741 23.4285 22.2312 23.4844C22.2053 23.5092 22.1745 23.5283 22.1409 23.5406C22.1072 23.5528 22.0713 23.5579 22.0356 23.5555C22.0025 23.5576 21.9694 23.5524 21.9387 23.5401C21.9079 23.5278 21.8803 23.5087 21.8578 23.4844C21.833 23.4585 21.8139 23.4278 21.8017 23.3941C21.7894 23.3604 21.7843 23.3246 21.7867 23.2888V21.3333Z" fill="black"/>
<path d="M23.111 23.3688C23.0954 23.4237 23.0646 23.473 23.0221 23.5111C22.9736 23.5439 22.9163 23.5615 22.8577 23.5615C22.7991 23.5615 22.7418 23.5439 22.6932 23.5111C22.6712 23.4906 22.6535 23.4659 22.6413 23.4384C22.629 23.4109 22.6225 23.3812 22.6221 23.3511C22.6129 23.3101 22.6129 23.2676 22.6221 23.2266L23.351 21.3333C23.3724 21.2522 23.4154 21.1785 23.4755 21.12C23.5545 21.1023 23.6364 21.1023 23.7155 21.12C23.7913 21.1011 23.8707 21.1011 23.9466 21.12C24.0149 21.1691 24.0625 21.242 24.0799 21.3244L24.7643 23.2266C24.7682 23.2472 24.7682 23.2683 24.7643 23.2888C24.7687 23.3094 24.7687 23.3305 24.7643 23.3511C24.7662 23.3806 24.7616 23.4103 24.7508 23.4379C24.7401 23.4655 24.7235 23.4905 24.7021 23.5111C24.652 23.552 24.5891 23.5741 24.5243 23.5733C24.4706 23.5746 24.4177 23.5591 24.3732 23.5288C24.3285 23.4947 24.2946 23.4484 24.2755 23.3955L24.1599 23.04H23.2443L23.111 23.3688ZM23.6888 21.5911L23.351 22.6222H24.0266L23.6888 21.5911Z" fill="black"/>
<path d="M25.1379 21.3333C25.1338 21.2981 25.1372 21.2625 25.1479 21.2288C25.1587 21.1951 25.1765 21.164 25.2002 21.1377C25.2519 21.0927 25.3182 21.0679 25.3868 21.0679C25.4554 21.0679 25.5217 21.0927 25.5735 21.1377C25.5967 21.1643 25.6142 21.1954 25.6249 21.229C25.6356 21.2627 25.6393 21.2982 25.6357 21.3333V22.0088H26.6668V21.3333C26.6625 21.2626 26.6847 21.1929 26.729 21.1377C26.7549 21.1129 26.7857 21.0938 26.8193 21.0816C26.853 21.0693 26.8888 21.0642 26.9246 21.0666C26.9589 21.0655 26.993 21.0711 27.0251 21.0834C27.0571 21.0956 27.0864 21.114 27.1113 21.1377C27.1542 21.1937 27.1762 21.2628 27.1735 21.3333V23.2888C27.1771 23.324 27.1734 23.3594 27.1627 23.3931C27.152 23.4267 27.1345 23.4578 27.1113 23.4844C27.0864 23.5081 27.0571 23.5266 27.0251 23.5388C26.993 23.551 26.9589 23.5567 26.9246 23.5555C26.8888 23.5579 26.853 23.5528 26.8193 23.5406C26.7857 23.5283 26.7549 23.5092 26.729 23.4844C26.6861 23.4285 26.6641 23.3593 26.6668 23.2888V22.4444H25.6357V23.2888C25.6393 23.324 25.6356 23.3594 25.6249 23.3931C25.6142 23.4267 25.5967 23.4578 25.5735 23.4844C25.5497 23.5094 25.5205 23.5288 25.4882 23.5412C25.4559 23.5535 25.4213 23.5584 25.3868 23.5555C25.3525 23.5567 25.3184 23.551 25.2863 23.5388C25.2543 23.5266 25.225 23.5081 25.2002 23.4844C25.1769 23.4578 25.1594 23.4267 25.1487 23.3931C25.138 23.3594 25.1344 23.324 25.1379 23.2888V21.3333Z" fill="black"/>
</g>
<defs>
<clipPath id="clip0_2707_327543">
<rect width="32" height="32" fill="white"/>
</clipPath>
</defs>
</svg>
