<svg width="32" height="32" viewBox="0 0 32 32" fill="none" xmlns="http://www.w3.org/2000/svg">
<g clip-path="url(#clip0_2980_149525)">
<mask id="mask0_2980_149525" style="mask-type:luminance" maskUnits="userSpaceOnUse" x="0" y="0" width="32" height="32">
<path d="M31.9938 0.0104675H0.0234375V31.9809H31.9938V0.0104675Z" fill="white"/>
</mask>
<g mask="url(#mask0_2980_149525)">
<path d="M16.0086 31.9809C24.837 31.9809 31.9938 24.824 31.9938 15.9957C31.9938 7.16728 24.837 0.0104675 16.0086 0.0104675C7.18025 0.0104675 0.0234375 7.16728 0.0234375 15.9957C0.0234375 24.824 7.18025 31.9809 16.0086 31.9809Z" fill="white"/>
<path d="M7.34839 14.3553V17.4512C7.34839 18.0828 6.66802 18.8254 6.10161 19.0453C4.64388 19.6113 3.14772 18.4535 3.37447 16.907C3.59868 16.7659 3.82043 16.5649 4.07359 16.4904V17.3597C4.07359 17.513 4.2388 17.8539 4.3364 17.9823C5.00055 18.856 6.37019 18.5246 6.60659 17.4744L6.61355 15.7279C6.58785 15.6928 5.98631 16.2198 5.87932 16.1854V15.3771L7.34839 14.3553Z" fill="#05AAD6"/>
<path d="M7.3475 12.7997V13.6385L5.32753 14.9806V18.229C5.15003 18.2685 4.62578 18.0473 4.59375 17.8774L4.59875 14.5898L7.3475 12.7997Z" fill="#0780B6"/>
<path d="M15.9175 15.4228V14.7823H16.2542V15.9719C15.8032 16.0598 15.6441 15.5032 15.3054 15.3008V15.9719H14.9688V14.7823C15.0628 14.7924 15.1876 14.7589 15.2742 14.7981C15.4292 14.8682 15.7304 15.3254 15.9175 15.4228Z" fill="#0F84B7"/>
<path d="M18.7492 15.0873H18.3054L18.3052 15.362C18.4202 15.3482 18.7787 15.4101 18.8215 15.2804C18.842 15.2184 18.8109 15.1046 18.7492 15.0873ZM18.8716 14.7823C19.2725 14.8486 19.3095 15.4195 18.9171 15.53L19.1928 15.9717C19.0984 15.9559 18.9007 16.002 18.8259 15.9565C18.7605 15.9167 18.6303 15.6598 18.565 15.6064C18.4933 15.5476 18.3911 15.5827 18.3053 15.5752L18.3056 15.972L17.9688 15.9718V14.7823C18.2424 14.8142 18.6106 14.7391 18.8716 14.7823Z" fill="#0E84B8"/>
<path d="M27.8778 15.0331C27.5277 15.1031 27.5668 15.7732 28.0155 15.7221C28.4363 15.6743 28.3881 14.9313 27.8778 15.0331ZM27.8485 14.7606C28.4098 14.699 28.7622 15.0036 28.6441 15.5837C28.5384 16.1034 27.5358 16.1333 27.338 15.6792C27.1477 15.2424 27.3656 14.8136 27.8485 14.7606Z" fill="#0A82B6"/>
<path d="M23.7681 15.0873C23.6576 15.0561 23.4215 15.11 23.2937 15.0873V15.3618H23.7375C23.8486 15.3618 23.8876 15.1211 23.7681 15.0873ZM23.8599 14.7823C24.3012 14.8442 24.2965 15.4171 23.9064 15.5601L24.2117 15.9717C24.1045 15.9566 23.9137 16.0068 23.8271 15.9436C23.6625 15.8234 23.6233 15.4763 23.2935 15.5752L23.2938 15.972L22.97 15.9423L22.9629 14.8511L23.0029 14.7823C23.2699 14.809 23.6021 14.7461 23.8599 14.7823Z" fill="#0C83B7"/>
<path d="M22.7121 15.8041C22.3528 16.1287 21.5075 16.0589 21.4294 15.4965C21.3604 14.9991 21.6757 14.7595 22.1457 14.7497C22.2233 14.7481 22.5431 14.7878 22.59 14.8277C22.6486 14.8776 22.6117 15.0128 22.6202 15.0874C22.5874 15.1201 21.8767 14.8548 21.8014 15.2621C21.7238 15.6816 22.0121 15.7927 22.3721 15.6942L22.3756 15.5142L22.0386 15.5145L22.0388 15.3008H22.7121V15.8041Z" fill="#0C83B7"/>
<path d="M8.97143 15.3618H9.44584C9.53769 15.3206 9.48429 15.0873 9.41523 15.0873H8.97143V15.3618ZM8.97143 15.6363L8.97158 15.972L8.63477 15.9719V14.7823H9.50702C9.51827 14.7823 9.6654 14.8352 9.68662 14.8474C9.9248 14.9832 9.92063 15.4041 9.70483 15.559C9.68455 15.5735 9.54817 15.6363 9.53763 15.6363H8.97143Z" fill="#0F84B8"/>
<path d="M26.2624 15.3618H26.7062C26.8031 15.3618 26.8031 15.0873 26.7062 15.0873H26.2624V15.3618ZM26.2624 15.6363L26.2626 15.972L25.9258 15.9719V14.7823H26.798C27.0037 14.7823 27.1476 15.0024 27.1524 15.194C27.1567 15.3611 27.009 15.6363 26.8286 15.6363H26.2624Z" fill="#0E84B8"/>
<path d="M9.98003 17.0089V16.3684C10.0808 16.3797 10.2132 16.3305 10.2861 16.4141V17.4817C10.2177 17.5612 10.0879 17.5327 10.0013 17.4987L9.4291 16.8869V17.4817C9.34983 17.5715 9.22147 17.5188 9.12305 17.497V16.4141C9.17743 16.3463 9.32313 16.3528 9.39799 16.3843C9.50036 16.4274 9.84428 16.9208 9.98003 17.0089Z" fill="#11AED7"/>
<path d="M20.2335 15.5142C20.2629 15.4857 20.1231 15.2099 20.0959 15.2099C20.0526 15.2456 19.9278 15.4846 19.9583 15.5142H20.2335ZM20.8456 15.9717L20.4987 15.967C20.4263 15.9422 20.417 15.7981 20.3718 15.7579C20.2956 15.6901 19.9723 15.7409 19.856 15.7327L19.6932 15.967C19.5998 15.9689 19.4813 15.9845 19.3913 15.9719C19.3491 15.966 19.3388 15.989 19.3458 15.9263L19.9119 14.8124C20.1505 14.7427 20.2358 14.7379 20.3612 14.945C20.4765 15.1355 20.7704 15.6846 20.8317 15.8792C20.8416 15.9106 20.8518 15.9379 20.8456 15.9717Z" fill="#0C83B7"/>
<path d="M14.173 15.5142C14.2036 15.4854 14.0508 15.1526 13.9897 15.2093L13.8978 15.5142H14.173ZM14.7851 15.9717L14.4382 15.967C14.3658 15.9422 14.3564 15.7981 14.3113 15.758C14.235 15.6902 13.9118 15.741 13.7954 15.7327L13.6326 15.967C13.5392 15.969 13.4207 15.9845 13.3308 15.972C13.2885 15.966 13.2782 15.989 13.2852 15.9263L13.8514 14.8124C13.9051 14.7646 14.1767 14.7519 14.2311 14.8312L14.7851 15.9717Z" fill="#0C83B7"/>
<path d="M14.174 16.9784V16.4142C14.2399 16.3422 14.4143 16.3422 14.4801 16.4142V17.4969C14.3934 17.4892 14.286 17.5177 14.2052 17.4811C14.0698 17.4199 13.8065 16.9676 13.6231 16.8869V17.4969H13.3477V16.3684C13.4119 16.4044 13.5518 16.3662 13.5918 16.3828C13.7339 16.4422 13.9911 16.8961 14.174 16.9784Z" fill="#0AABD5"/>
<path d="M10.8067 17.2224C11.059 17.2248 11.3699 17.285 11.3589 16.9338C11.3482 16.5934 11.0514 16.6788 10.8067 16.6734V17.2224ZM10.5312 17.497V16.3684H11.1587C11.2483 16.3684 11.4402 16.4404 11.5115 16.5048C11.7195 16.6922 11.7242 17.238 11.4909 17.4011C11.4679 17.4172 11.2926 17.497 11.2811 17.497H10.5312Z" fill="#09ABD5"/>
<path d="M12.6961 16.682C12.5912 16.5775 12.3317 16.5854 12.2444 16.718C12.0577 17.0017 12.3042 17.4202 12.6414 17.2353C12.8009 17.1478 12.8109 16.7962 12.6961 16.682ZM12.2683 16.3757C12.6646 16.3095 13.0491 16.391 13.0991 16.8444C13.1581 17.3801 12.7968 17.6036 12.2988 17.5202C11.7039 17.4205 11.7425 16.4636 12.2683 16.3757Z" fill="#0BABD5"/>
<path d="M24.7624 14.7823V15.4686C24.7624 15.4778 24.8269 15.623 24.8392 15.6361C24.9543 15.7579 25.2827 15.6784 25.2827 15.5296V14.7823H25.6194V15.6211C25.6194 15.6331 25.5569 15.7648 25.5415 15.7875C25.3413 16.0814 24.6646 16.0658 24.5003 15.7299C24.4817 15.6919 24.4258 15.5274 24.4258 15.4991V14.7823H24.7624Z" fill="#0C83B7"/>
<path d="M15.704 16.6734H15.0307V16.8259H15.6275C15.6901 16.8259 15.6901 17.0394 15.6275 17.0394H15.0307V17.2224H15.704V17.4969H14.7246V16.4141L14.7705 16.3684H15.6581C15.742 16.441 15.6926 16.573 15.704 16.6734Z" fill="#0EACD7"/>
<path d="M16.9583 16.7345C16.7581 16.7187 16.6005 16.6484 16.3906 16.672C16.2711 16.6855 16.2348 16.7459 16.3616 16.7953C16.5493 16.8683 16.9819 16.8224 17.019 17.1184C17.0821 17.6219 16.2827 17.5773 15.983 17.4624L16.0125 17.1641C16.2124 17.1909 16.4312 17.2597 16.6369 17.2224C16.707 17.2098 16.7508 17.1385 16.6955 17.0985C16.5589 16.9996 16.0492 17.1354 15.9861 16.7727C15.9145 16.3609 16.3658 16.3384 16.6672 16.3687C16.9444 16.3966 16.9887 16.4512 16.9583 16.7345Z" fill="#0DADD6"/>
<path d="M21.9088 16.9252C21.7574 16.8055 21.4744 16.844 21.4551 17.0542C21.4156 17.4847 22.1495 17.3683 21.9088 16.9252ZM21.1211 16.3684L21.4579 16.3682L21.4581 16.7649C21.6741 16.6041 22.1636 16.5986 22.2605 16.8952C22.4441 17.4573 21.8766 17.7064 21.458 17.4052L21.441 17.4991L21.1211 17.4969V16.3684Z" fill="#0EADD6"/>
<path d="M18.5806 17.0698L18.4738 16.765C18.4313 16.8016 18.305 17.0397 18.336 17.0698H18.5806ZM19.1315 17.4968L18.8152 17.4921L18.6826 17.2822L18.2183 17.2884L18.1014 17.4921L17.7852 17.4968L18.3102 16.3734L18.627 16.3985L19.1315 17.4968Z" fill="#0CACD5"/>
<path d="M22.5293 16.3684L22.8661 16.3682L22.8663 17.1004C23.1201 16.888 23.1956 16.5814 23.6003 16.6735L23.3239 17.0242L23.6314 17.4814L23.2849 17.4912L23.0944 17.2529C22.8842 17.4019 22.836 17.5609 22.5293 17.4969V16.3684Z" fill="#0AABD5"/>
<path d="M17.7542 15.0873H17.2645V15.9719C17.1551 15.9581 17.0085 16.0129 16.9278 15.9261V15.0873H16.4688V14.7823H17.7083C17.7922 14.8549 17.7428 14.9869 17.7542 15.0873Z" fill="#0D83B8"/>
<path d="M11.3583 14.7823V15.0873H10.8993V15.9719H10.5626V15.0873H10.1035V14.7823H11.3583Z" fill="#1085B7"/>
<path d="M20.9072 16.3989V16.6734H20.4481V17.4969H20.1114V16.6734H19.6523V16.3989H20.9072Z" fill="#0CACD6"/>
<path d="M13.1631 14.7823V15.7431C13.1631 15.752 13.0868 15.8825 13.0726 15.8969C12.9943 15.9763 12.6132 16.032 12.5093 15.998L12.4634 15.9524L12.459 15.6972C12.527 15.7005 12.8264 15.7182 12.8264 15.6211V14.7823H13.1631Z" fill="#0A82B6"/>
<path d="M8.94082 16.3684V17.5275C8.84006 17.5161 8.70762 17.5653 8.63477 17.4817V16.3684H8.94082Z" fill="#15AFD7"/>
<path d="M17.5404 16.3684V17.5275C17.4397 17.5161 17.3072 17.5653 17.2344 17.4817V16.3684H17.5404Z" fill="#14AFD8"/>
<path d="M18.7486 15.0873C18.8103 15.1046 18.8415 15.2184 18.821 15.2804C18.7781 15.4101 18.4196 15.3482 18.3047 15.362L18.3049 15.0873H18.7486Z" fill="#F1F7FA"/>
<path d="M23.7693 15.0873C23.8889 15.1211 23.8498 15.3618 23.7387 15.3618H23.2949V15.0873C23.4228 15.11 23.6589 15.0561 23.7693 15.0873Z" fill="#ECF5F9"/>
<path d="M20.2331 15.5142H19.9579C19.9274 15.4846 20.0521 15.2456 20.0955 15.21C20.1227 15.21 20.2625 15.4857 20.2331 15.5142Z" fill="#E7F2F7"/>
<path d="M14.1736 15.5142H13.8984L13.9904 15.2093C14.0514 15.1526 14.2042 15.4854 14.1736 15.5142Z" fill="#E7F2F7"/>
<path d="M10.8066 17.2224V16.6734C11.0514 16.6788 11.3482 16.5934 11.3588 16.9338C11.3698 17.285 11.0589 17.2248 10.8066 17.2224Z" fill="#F2FAFC"/>
<path d="M18.5815 17.0698H18.3369C18.3059 17.0397 18.4321 16.8016 18.4747 16.765L18.5815 17.0698Z" fill="#ECF5F9"/>
</g>
</g>
<defs>
<clipPath id="clip0_2980_149525">
<rect width="32" height="32" fill="white"/>
</clipPath>
</defs>
</svg>
