<svg width="32" height="32" viewBox="0 0 32 32" fill="none" xmlns="http://www.w3.org/2000/svg">
<g clip-path="url(#clip0_2707_324943)">
<path d="M15.9998 31.9822C24.8265 31.9822 31.982 24.8267 31.982 16C31.982 7.17325 24.8265 0.0177612 15.9998 0.0177612C7.17306 0.0177612 0.0175781 7.17325 0.0175781 16C0.0175781 24.8267 7.17306 31.9822 15.9998 31.9822Z" fill="white"/>
<path d="M21.8574 14.4622C22.4796 14.4622 23.0574 14.4622 23.6352 14.4622C23.8725 14.4736 24.0979 14.5695 24.2706 14.7325C24.4434 14.8955 24.5522 15.1149 24.5774 15.3511C24.6216 15.6726 24.6216 15.9985 24.5774 16.32C24.52 16.5451 24.4302 16.7607 24.3108 16.96C24.4434 17.0879 24.5427 17.2463 24.6 17.4214C24.6573 17.5964 24.6709 17.7829 24.6396 17.9644C24.6396 18.1956 24.6396 18.4267 24.6396 18.6489C24.5951 18.8896 24.4656 19.1064 24.2747 19.2597C24.0839 19.413 23.8443 19.4928 23.5996 19.4844C23.0663 19.5289 22.533 19.4844 21.9996 19.4844L21.8841 19.44L21.8574 14.4622ZM22.7463 18.6489C23.8041 18.7378 23.7419 18.5956 23.733 17.76C23.7362 17.7032 23.7206 17.647 23.6885 17.6C23.6085 17.5111 23.5196 17.4044 23.4308 17.3956C23.2029 17.378 22.9741 17.378 22.7463 17.3956V18.6489ZM22.7463 16.5333C23.0485 16.48 23.3774 16.6578 23.6352 16.3644C23.7467 16.0603 23.7467 15.7264 23.6352 15.4222C23.3774 15.1644 23.0752 15.2978 22.7463 15.28V16.5333Z" fill="#65C29D"/>
<path d="M20.7021 17.5111L21.4399 19.4844C21.1475 19.5524 20.8434 19.5524 20.551 19.4844C20.471 19.4844 20.391 19.3422 20.3554 19.2533C20.1865 18.8178 20.0265 18.3644 19.8488 17.9022L19.4576 18.0978V19.2089C19.4576 19.4755 19.4576 19.5111 19.1465 19.5111H18.5332V14.4889C18.6022 14.4654 18.6739 14.4504 18.7465 14.4444C19.191 14.4444 19.6354 14.4444 20.0799 14.4444C20.2388 14.4362 20.3977 14.4621 20.5457 14.5206C20.6937 14.579 20.8275 14.6686 20.9379 14.7832C21.0483 14.8978 21.1328 15.0349 21.1857 15.185C21.2385 15.3351 21.2585 15.4948 21.2443 15.6533C21.2443 15.8667 21.2443 16.08 21.2443 16.3022C21.2814 16.5346 21.2499 16.7728 21.1536 16.9876C21.0572 17.2023 20.9003 17.3843 20.7021 17.5111ZM19.4754 17.1022L19.6799 17.0222C20.3999 16.6578 20.3021 16.8 20.3199 16.0089C20.3376 15.2178 20.2754 15.2444 19.5376 15.2889C19.5376 15.2889 19.5376 15.2889 19.4754 15.2889V17.1022Z" fill="#65C29D"/>
<path d="M11.9556 19.4755V14.48H12.1867C12.6222 14.48 13.0756 14.48 13.4933 14.48C14.2933 14.48 14.72 14.8355 14.7556 15.6178C14.7556 16.5778 14.7556 17.5466 14.7556 18.5155C14.7584 18.6575 14.7316 18.7984 14.6769 18.9294C14.6223 19.0604 14.5409 19.1786 14.4381 19.2765C14.3352 19.3743 14.2131 19.4496 14.0795 19.4977C13.946 19.5457 13.8038 19.5654 13.6622 19.5555C13.1378 19.5555 12.6045 19.5555 12.0711 19.5555C12.0445 19.5555 12.0089 19.5022 11.9556 19.4755ZM12.8445 18.6844C13.0426 18.7022 13.2419 18.7022 13.44 18.6844C13.6978 18.6844 13.8045 18.5333 13.8045 18.2666C13.8045 17.3778 13.8045 16.4889 13.8045 15.6444C13.8152 15.5647 13.7956 15.4839 13.7495 15.418C13.7034 15.3521 13.6341 15.306 13.5556 15.2889C13.3245 15.2889 13.0933 15.2889 12.8445 15.2266V18.6844Z" fill="#65C29D"/>
<path d="M7.20847 14.4889V14.9777C6.62912 14.9381 6.04931 15.0481 5.52472 15.2971C5.00014 15.5462 4.5484 15.926 4.21292 16.4C3.73264 17.0524 3.51385 17.861 3.59959 18.6666C3.6762 19.5625 4.10556 20.3912 4.79319 20.9705C5.13367 21.2573 5.52731 21.4743 5.95164 21.609C6.37597 21.7437 6.82268 21.7935 7.26625 21.7555C7.70983 21.7176 8.14159 21.5927 8.53688 21.3879C8.93217 21.1831 9.28326 20.9024 9.57009 20.5619C9.85692 20.2214 10.0739 19.8278 10.2086 19.4035C10.3433 18.9791 10.3931 18.5324 10.3551 18.0889H10.8351C10.898 18.8383 10.7373 19.5895 10.3735 20.2477C10.0096 20.9058 9.4588 21.4414 8.7907 21.7866C8.04527 22.1569 7.20427 22.2898 6.381 22.1674C5.55773 22.045 4.79174 21.6733 4.18625 21.1022C3.60125 20.4946 3.22478 19.7166 3.11131 18.8808C2.99785 18.0451 3.1533 17.1949 3.55514 16.4533C3.90519 15.8044 4.43788 15.2724 5.08725 14.9233C5.73661 14.5741 6.47413 14.4231 7.20847 14.4889Z" fill="#8A6537"/>
<path d="M18.2311 19.5555C17.9733 19.5555 17.7422 19.5555 17.5022 19.5555C17.2622 19.5555 17.3155 19.4133 17.2889 19.28C17.2266 18.9511 17.1555 18.6222 17.0844 18.2933H16.1066C16.0355 18.6044 15.9733 18.9155 15.9111 19.2355C15.8488 19.5555 15.8133 19.5555 15.52 19.5644C15.3719 19.5733 15.2235 19.5733 15.0755 19.5644L14.96 19.52C14.96 19.3244 15.0133 19.1288 15.0489 18.9333L15.9377 14.8888C16.0266 14.4888 16.0266 14.4888 16.4355 14.4888C17.3244 14.4888 17.1466 14.3644 17.3244 15.2266C17.6266 16.56 17.9111 17.8933 18.2133 19.2355C18.2274 19.3416 18.2334 19.4486 18.2311 19.5555ZM16.8888 17.4133C16.7822 16.8977 16.6755 16.4177 16.5866 15.9377H16.5422C16.4444 16.4177 16.3466 16.8977 16.24 17.3866H16.3733L16.8888 17.4133Z" fill="#65C29D"/>
<path d="M27.4308 17.3689H26.142C26.142 17.7333 26.142 18.0444 26.142 18.3555C26.1413 18.4024 26.151 18.4489 26.1703 18.4917C26.1896 18.5344 26.2181 18.5724 26.2537 18.603C26.2893 18.6335 26.3312 18.6558 26.3764 18.6684C26.4216 18.6809 26.469 18.6834 26.5153 18.6755H27.3153H27.6353V19.4489L27.5553 19.5555C27.0664 19.5555 26.5864 19.5555 26.1064 19.5555C25.8604 19.5352 25.6315 19.4218 25.4663 19.2384C25.3011 19.0551 25.2121 18.8156 25.2175 18.5689C25.2175 17.5644 25.2175 16.5511 25.2175 15.5466C25.2141 15.2995 25.3035 15.0601 25.4681 14.8758C25.6327 14.6914 25.8605 14.5756 26.1064 14.5511C26.6038 14.5243 27.1023 14.5243 27.5997 14.5511V15.36H26.9686C26.0797 15.36 26.0797 15.36 26.0797 16.2489V16.5955H27.3953L27.4308 17.3689Z" fill="#65C29D"/>
<path d="M9.61744 18.1066H10.0886C10.1583 18.7488 10.0242 19.3966 9.70506 19.9582C9.38596 20.5198 8.89814 20.9667 8.31078 21.2355C7.69288 21.5226 6.99898 21.6032 6.33172 21.4654C5.66446 21.3276 5.05928 20.9786 4.6057 20.4702C4.15211 19.9618 3.87421 19.3209 3.81309 18.6423C3.75197 17.9637 3.91089 17.2835 4.26633 16.7022C4.56395 16.2018 4.99783 15.7965 5.51727 15.5337C6.03672 15.2708 6.62025 15.1612 7.19967 15.2177V15.6977C6.76574 15.6689 6.3312 15.7443 5.93228 15.9174C5.53336 16.0906 5.18161 16.3566 4.90633 16.6933C4.49096 17.1892 4.28106 17.8253 4.31967 18.4711C4.35767 19.1427 4.6481 19.7751 5.13274 20.2416C5.61738 20.7081 6.26043 20.9742 6.933 20.9866C7.30338 20.9903 7.67046 20.9167 8.01085 20.7707C8.35124 20.6246 8.65747 20.4093 8.91002 20.1383C9.16257 19.8674 9.35591 19.5468 9.4777 19.197C9.5995 18.8472 9.64709 18.4758 9.61744 18.1066Z" fill="#8A6537"/>
<path d="M7.19998 16.4267C5.83998 16.5155 5.0222 17.2622 5.04887 18.3822C5.05863 18.86 5.24622 19.317 5.57499 19.6639C5.90375 20.0107 6.35005 20.2225 6.82665 20.2578C8.00887 20.2578 8.73776 19.52 8.84442 18.0978H9.09331C9.17029 18.0933 9.24745 18.0933 9.32442 18.0978C9.39068 18.5765 9.30861 19.0641 9.08929 19.4948C8.86997 19.9255 8.52392 20.2786 8.09776 20.5067C7.72567 20.7103 7.307 20.8135 6.88292 20.8063C6.45883 20.7991 6.04391 20.6817 5.67895 20.4656C5.31398 20.2495 5.01153 19.9421 4.80132 19.5737C4.5911 19.2053 4.48036 18.7886 4.47998 18.3644C4.48214 17.989 4.56713 17.6188 4.72887 17.28C4.95142 16.8318 5.31089 16.4662 5.75519 16.2361C6.19949 16.0059 6.70554 15.9232 7.19998 16V16.4267Z" fill="#8A6537"/>
<path d="M10.1066 9.53778H9.61768V17.8756H10.1066V9.53778Z" fill="#8A6537"/>
<path d="M10.8532 9.13776H10.3555V17.8755H10.8532V9.13776Z" fill="#8A6537"/>
<path d="M9.37766 9.97333H8.87988V17.8844H9.37766V9.97333Z" fill="#8A6537"/>
<path d="M7.93743 10.8H7.42188V17.8755H7.93743V10.8Z" fill="#8A6537"/>
<path d="M8.65735 10.3822H8.16846V17.8755H8.65735V10.3822Z" fill="#8A6537"/>
<path d="M7.19993 16.6755V17.1466C6.22215 17.2444 5.75104 17.6622 5.77771 18.4089C5.78873 18.7095 5.91308 18.9948 6.12578 19.2075C6.33848 19.4202 6.62377 19.5445 6.92437 19.5555C7.63549 19.5555 8.08882 19.0666 8.17771 18.1155H8.64882C8.65762 18.2012 8.65762 18.2876 8.64882 18.3733C8.61763 18.8058 8.4238 19.2105 8.10634 19.5059C7.78888 19.8012 7.37134 19.9655 6.93771 19.9655C6.50408 19.9655 6.08653 19.8012 5.76907 19.5059C5.45161 19.2105 5.25779 18.8058 5.2266 18.3733C5.22503 18.1277 5.2768 17.8846 5.37833 17.6609C5.47985 17.4372 5.62871 17.2382 5.81464 17.0776C6.00056 16.917 6.21912 16.7987 6.45522 16.7308C6.69132 16.663 6.93934 16.6471 7.18215 16.6844L7.19993 16.6755Z" fill="#8A6537"/>
<path d="M15.1821 20.3822H15.5732L14.7998 22.16H14.2754L13.7065 20.8089L13.1821 22.2222H12.6576L11.8843 20.4444H12.3021L12.9243 21.9822L13.5287 20.4444H13.9198L14.5243 21.9022H14.5954C14.7821 21.3866 14.9776 20.9066 15.1821 20.3822Z" fill="#65C29D"/>
<path d="M7.45759 18.1066H7.90204C7.96587 18.3093 7.95934 18.5276 7.8835 18.726C7.80766 18.9245 7.66697 19.0915 7.48426 19.2C7.33496 19.2937 7.16329 19.3456 6.9871 19.3505C6.8109 19.3554 6.63662 19.313 6.48237 19.2277C6.32812 19.1424 6.19954 19.0173 6.10998 18.8655C6.02043 18.7137 5.97318 18.5407 5.97315 18.3644C5.97282 18.2109 6.0062 18.0592 6.07092 17.92C6.17035 17.7167 6.33723 17.5541 6.54309 17.4601C6.74895 17.3661 6.98105 17.3464 7.19981 17.4044V17.7777C6.99548 17.8599 6.79656 17.9549 6.60426 18.0622C6.56684 18.1008 6.538 18.1469 6.51962 18.1975C6.50124 18.248 6.49373 18.3019 6.49759 18.3555C6.50656 18.4695 6.55825 18.5759 6.64231 18.6533C6.72638 18.7308 6.83661 18.7736 6.95092 18.7733C7.26204 18.8 7.37759 18.6666 7.45759 18.1066Z" fill="#8A6537"/>
<path d="M18.373 22.2222C18.2041 22.2222 18.0352 22.2222 17.8663 22.2222C17.6826 22.2118 17.509 22.1347 17.3781 22.0054C17.2472 21.8762 17.1679 21.7035 17.1552 21.52C17.1279 21.3931 17.1286 21.2617 17.1575 21.1351C17.1863 21.0086 17.2425 20.8899 17.3222 20.7873C17.4018 20.6848 17.503 20.601 17.6185 20.5418C17.734 20.4825 17.861 20.4493 17.9908 20.4444C18.3517 20.3652 18.7277 20.3898 19.0752 20.5155C19.2648 20.5804 19.4247 20.7112 19.5259 20.8842C19.6271 21.0572 19.6627 21.2607 19.6263 21.4577C19.6054 21.6689 19.5097 21.8655 19.3565 22.0123C19.2032 22.159 19.0026 22.246 18.7908 22.2577L18.373 22.2222ZM18.4263 22.0533H18.6041C18.7776 22.0312 18.9367 21.9452 19.0502 21.812C19.1636 21.6789 19.2233 21.5081 19.2174 21.3333C19.2235 21.244 19.2112 21.1544 19.1815 21.07C19.1517 20.9856 19.105 20.9081 19.0443 20.8424C18.9835 20.7767 18.91 20.724 18.8282 20.6877C18.7464 20.6513 18.658 20.6321 18.5685 20.6311C18.4413 20.6222 18.3136 20.6222 18.1863 20.6311C18.0158 20.638 17.8548 20.7119 17.7384 20.8367C17.6219 20.9615 17.5593 21.1271 17.5641 21.2977C17.5463 21.8133 17.7774 22.0444 18.4263 22.0444V22.0533Z" fill="#65C29D"/>
<path d="M22.5243 22.2222H22.1688C22.0005 22.2308 21.8338 22.1854 21.6931 22.0927C21.5524 22 21.445 21.8647 21.3865 21.7067C21.3194 21.5212 21.3089 21.3199 21.3564 21.1284C21.4039 20.9369 21.5072 20.7638 21.6532 20.6311C21.9222 20.4766 22.2253 20.3908 22.5354 20.3815C22.8455 20.3722 23.1532 20.4396 23.431 20.5778C23.7865 20.8178 23.8399 21.0933 23.751 21.6089C23.7075 21.7836 23.6069 21.9388 23.4652 22.0499C23.3235 22.161 23.1488 22.2216 22.9688 22.2222C22.8443 22.2222 22.6843 22.2222 22.5243 22.2222ZM22.5243 22.0533C22.6097 22.0668 22.6967 22.0668 22.7821 22.0533C22.9059 22.0442 23.0241 21.9976 23.1209 21.9199C23.2177 21.8421 23.2887 21.7367 23.3243 21.6178C23.3785 21.4848 23.3923 21.3388 23.3638 21.1981C23.3354 21.0573 23.266 20.9281 23.1643 20.8267C22.9708 20.6827 22.7327 20.6117 22.4919 20.6263C22.2512 20.641 22.0234 20.7403 21.8488 20.9067C21.8027 20.954 21.7691 21.0121 21.751 21.0756C21.7007 21.1957 21.6844 21.3273 21.7039 21.4561C21.7233 21.5848 21.7777 21.7057 21.8611 21.8057C21.9446 21.9057 22.0539 21.9808 22.1771 22.0229C22.3003 22.065 22.4327 22.0724 22.5599 22.0445L22.5243 22.0533Z" fill="#65C29D"/>
<path d="M25.644 22.2222V20.4444C25.644 20.4444 25.644 20.4444 25.644 20.4C26.176 20.2875 26.7293 20.3338 27.2352 20.5333C27.4015 20.6078 27.5382 20.7357 27.6236 20.8967C27.7089 21.0578 27.738 21.2427 27.7063 21.4222C27.6593 21.6247 27.5466 21.8061 27.3859 21.9379C27.2251 22.0697 27.0252 22.1447 26.8174 22.1511C26.7678 22.1765 26.7174 22.2002 26.6663 22.2222H25.644ZM26.0174 20.6044V22.0711C26.3018 22.0711 26.5685 22.0711 26.8263 21.9911C26.9725 21.9566 27.1028 21.8738 27.196 21.756C27.2893 21.6382 27.34 21.4924 27.34 21.3422C27.34 21.192 27.2893 21.0461 27.196 20.9284C27.1028 20.8106 26.9725 20.7278 26.8263 20.6933C26.5685 20.64 26.2929 20.6133 26.0174 20.5955V20.6044Z" fill="#65C29D"/>
<path d="M6.95993 18.0889C7.11993 18.0889 7.2177 18.1955 7.20881 18.3644C7.20431 18.4273 7.17612 18.4861 7.12992 18.529C7.08372 18.5719 7.02297 18.5957 6.95993 18.5955C6.89453 18.5957 6.83152 18.571 6.78366 18.5264C6.7358 18.4819 6.70666 18.4208 6.70215 18.3555C6.70211 18.2887 6.72804 18.2244 6.77448 18.1763C6.82092 18.1282 6.88422 18.1001 6.95104 18.0978L6.95993 18.0889Z" fill="#8A6537"/>
</g>
<defs>
<clipPath id="clip0_2707_324943">
<rect width="32" height="32" fill="white"/>
</clipPath>
</defs>
</svg>
