<svg width="32" height="32" viewBox="0 0 32 32" fill="none" xmlns="http://www.w3.org/2000/svg">
<g clip-path="url(#clip0_2810_57869)">
<mask id="mask0_2810_57869" style="mask-type:luminance" maskUnits="userSpaceOnUse" x="0" y="0" width="32" height="32">
<path d="M31.9909 0.0178223H0.0175781V31.9912H31.9909V0.0178223Z" fill="white"/>
</mask>
<g mask="url(#mask0_2810_57869)">
<path d="M15.9998 31.9823C24.8265 31.9823 31.982 24.8268 31.982 16C31.982 7.17331 24.8265 0.0178223 15.9998 0.0178223C7.17306 0.0178223 0.0175781 7.17331 0.0175781 16C0.0175781 24.8268 7.17306 31.9823 15.9998 31.9823Z" fill="white"/>
<path d="M9.92844 15.84C10.1418 16.0889 10.3551 16.3378 10.5684 16.5956C10.6573 16.7022 10.7462 16.8267 10.8262 16.9422C10.7729 17.04 10.7907 17.1822 10.8796 17.2089C10.9684 17.2267 10.9773 17.28 11.0129 17.3333C11.0396 17.3689 11.0662 17.4133 11.084 17.4489H11.2173C11.3684 17.5022 11.4218 17.6533 11.5107 17.76C11.8218 18.1067 12.1151 18.4711 12.4084 18.8267C12.4529 18.88 12.4796 18.9333 12.524 19.0044C12.3551 19.0489 12.204 19.1022 12.0529 19.1378C11.8662 19.1822 11.6707 19.2089 11.484 19.2622C11.1107 19.36 10.7551 19.4933 10.3729 19.5467C10.3196 19.5467 10.2662 19.5822 10.2129 19.6C10.2129 19.6 10.2129 19.5378 10.2129 19.5111C10.2573 19.4933 10.3018 19.4844 10.3462 19.4667C10.3462 19.44 10.3462 19.4133 10.3462 19.3867C10.4262 19.3689 10.5151 19.3511 10.5951 19.3333C10.6218 19.3511 10.6484 19.3867 10.6573 19.3778C10.7907 19.3333 10.9418 19.3422 11.0396 19.2267C11.0573 19.2267 11.0662 19.2267 11.084 19.2267C11.1551 19.2267 11.244 19.2533 11.2351 19.1289C11.2707 19.1289 11.2973 19.1289 11.3329 19.1289C11.4751 19.12 11.6173 19.1111 11.7684 19.1022C11.8218 18.9778 11.964 19.0578 12.0618 19.0311V18.8978C11.9996 18.8711 11.9196 18.8444 11.8484 18.8178C11.8484 18.7644 11.8396 18.72 11.8396 18.72C11.7151 18.5956 11.6084 18.5067 11.5284 18.4089C11.4396 18.3022 11.3773 18.1778 11.3062 18.0622C11.2707 18.0622 11.2351 18.0444 11.1996 18.0356C11.1996 17.9733 11.1907 17.9289 11.1818 17.9022C11.1018 17.8311 11.0129 17.7778 10.9951 17.7156C10.9684 17.5733 10.8707 17.5111 10.764 17.4489C10.6929 17.4044 10.6218 17.36 10.6307 17.2533C10.7107 17.2178 10.6929 17.1733 10.6396 17.0933C10.6396 17.1644 10.6396 17.2089 10.6307 17.2533C10.5151 17.1289 10.4084 16.9956 10.284 16.8889C10.1862 16.8 10.1151 16.7022 10.1151 16.56C9.92844 16.56 9.93733 16.3733 9.83067 16.3111C9.79511 16.32 9.75955 16.3378 9.724 16.3556C9.76844 16.2311 9.82178 16.1067 9.87511 15.9733C9.79511 15.9644 9.71511 15.9556 9.63511 15.9467C9.66178 15.92 9.68844 15.9022 9.73289 15.8667H9.324C9.324 15.8667 9.27066 15.7956 9.22622 15.7511C8.924 15.7867 8.62178 15.8222 8.31955 15.8578C8.29289 15.8222 8.26622 15.7956 8.23955 15.76C7.69733 15.76 7.15511 15.76 6.61289 15.76C6.55955 15.76 6.48844 15.7333 6.48844 15.8578C6.57733 15.8578 6.66622 15.8578 6.75511 15.8578C6.79955 15.8578 6.844 15.8844 6.87955 15.9022C6.63066 15.9289 6.38178 15.8756 6.13289 15.9289C6.15066 16 6.16844 16.0533 6.17733 16.1067V16.3733C6.10622 16.4178 6.044 16.4533 5.99066 16.48C5.97289 16.5333 5.97289 16.5778 5.94622 16.6044C5.83066 16.7467 5.69733 16.88 5.58178 17.0222C5.52844 17.0844 5.484 17.1644 5.43066 17.2444C5.39511 17.2444 5.34178 17.2533 5.324 17.2533C5.22622 17.3778 5.15511 17.4844 5.06622 17.5733C4.88844 17.7778 4.71955 17.9911 4.524 18.1778C4.47066 18.2311 4.444 18.3111 4.39955 18.3822C4.34622 18.4089 4.29289 18.4356 4.23066 18.4711C4.24844 18.64 4.124 18.6578 3.964 18.6489C4.01733 18.6844 4.03511 18.7022 4.07066 18.7289C3.99066 18.7733 3.91066 18.8089 3.82178 18.8533C3.82178 18.88 3.83955 18.9156 3.83955 18.9244C4.08844 18.9778 4.31066 19.0222 4.56844 19.0756C4.57733 19.0756 4.62178 19.12 4.66622 19.1467H4.97733C4.97733 19.1467 4.98622 19.2089 4.99511 19.2267C5.10178 19.2444 5.20844 19.2356 5.28844 19.28C5.404 19.3333 5.51066 19.3511 5.63511 19.3422C5.68844 19.3422 5.73289 19.3422 5.78622 19.3422C5.79511 19.4756 5.92844 19.4756 5.964 19.52C6.124 19.5467 6.24844 19.5467 6.35511 19.5911C6.46178 19.6356 6.56844 19.6533 6.684 19.6444C6.71955 19.6444 6.74622 19.6444 6.78178 19.6444C6.79066 19.68 6.80844 19.7067 6.81733 19.7422C6.83511 19.7244 6.86178 19.7156 6.87955 19.6978C6.99511 19.7156 7.11066 19.7333 7.22622 19.7511C7.21733 19.8756 7.30622 19.8489 7.37733 19.8489H7.59955C7.53733 19.6711 7.484 19.5111 7.42178 19.3511C7.42178 19.28 7.44844 19.1911 7.324 19.2C7.30622 19.12 7.28844 19.0311 7.27066 18.9511C7.23511 18.8267 7.15511 18.7111 7.14622 18.5689C7.14622 18.5244 7.11066 18.4356 7.02178 18.4533C6.98622 18.3733 6.95066 18.2844 6.924 18.2044C6.99511 18.1867 6.97733 18.1333 6.96844 18.0889C6.95066 18.0178 6.924 17.9556 6.90622 17.8844C6.69289 17.7156 6.66622 17.44 6.53289 17.2267C6.56844 17.1822 6.59511 17.1378 6.62178 17.1022C6.73733 17.36 6.86178 17.6089 6.96844 17.8667C7.07511 18.1156 7.17289 18.3822 7.29733 18.6222C7.51066 19.0311 7.67955 19.4667 7.87511 19.8844C7.89289 19.92 7.91955 19.9556 7.97289 20.0267C8.18622 19.5556 8.39066 19.1289 8.58622 18.7022C8.604 18.7022 8.61289 18.7022 8.63066 18.7022C8.66622 18.7733 8.70178 18.8356 8.73733 18.9156C8.684 18.9778 8.58622 19.04 8.58622 19.1022C8.58622 19.2622 8.43511 19.3333 8.42622 19.4756C8.40844 19.6178 8.32844 19.7333 8.23955 19.8311C8.22178 19.8489 8.23955 19.9022 8.25733 19.9822C8.33733 19.92 8.39067 19.8844 8.45289 19.84C8.70178 19.8756 8.95066 19.8133 9.19066 19.7244C9.29733 19.68 9.404 19.6533 9.50178 19.76C9.484 19.7689 9.46622 19.7867 9.44844 19.7956C9.41289 19.8133 9.37733 19.8222 9.34178 19.84C9.164 19.8756 8.98622 19.9111 8.81733 19.9556C8.62178 20.0089 8.42622 20.08 8.23066 20.1156C8.08844 20.1422 7.92844 20.1511 7.78622 20.1244C7.51955 20.0622 7.25289 19.9644 6.98622 19.8933C6.54178 19.7689 6.10622 19.6622 5.66178 19.5378C5.39511 19.4667 5.12844 19.3778 4.86178 19.2978C4.53289 19.2089 4.19511 19.1289 3.86622 19.04C3.724 19.0044 3.59066 18.9422 3.43066 18.8889C3.66178 18.6222 3.884 18.3644 4.09733 18.1156C4.47955 17.68 4.87066 17.2444 5.25289 16.8089C5.51066 16.5244 5.76844 16.24 6.00844 15.9378C6.10622 15.8133 6.16844 15.6533 6.23955 15.5111C6.26622 15.5556 6.29289 15.6 6.32844 15.6711C6.38178 15.6533 6.45289 15.6444 6.50622 15.6178C6.59511 15.5733 6.69289 15.5556 6.79066 15.5556C7.60844 15.5556 8.42622 15.5556 9.244 15.5556C9.27066 15.5911 9.30622 15.6267 9.34178 15.6622H9.79511C9.78622 15.7067 9.77733 15.7511 9.75955 15.8044H9.884C9.884 15.8044 9.89289 15.8311 9.884 15.8489C9.85733 15.8667 9.86622 15.8578 9.884 15.8489C9.86622 15.8756 9.87511 15.8667 9.884 15.8489" fill="#569DD2"/>
<path d="M8.09771 12.3112C7.61771 13.2978 7.15549 14.2312 6.69327 15.1734C6.76438 15.1912 6.83549 15.2267 6.9066 15.2356C6.9866 15.2356 7.0666 15.2089 7.13771 15.2C7.15549 15.2 7.17327 15.2 7.19105 15.2C7.32438 15.2889 7.4666 15.2445 7.59993 15.2445C7.91105 15.2445 8.21327 15.2445 8.52438 15.2445C8.8266 15.2534 9.11994 15.1645 9.42216 15.2445C9.43105 15.2445 9.44882 15.2267 9.4666 15.2178C9.42216 15.1556 9.35993 15.1023 9.32438 15.0312C9.23549 14.8445 9.15549 14.6489 9.0666 14.4623C8.97771 14.2845 8.9066 14.0978 8.8266 13.92C8.70216 13.6712 8.60438 13.4045 8.45327 13.1645C8.43549 13.1289 8.4266 13.0934 8.41771 13.0489C8.35549 12.7912 8.21327 12.5778 8.08882 12.32M9.82216 15.6534H9.36882C9.36882 15.6534 9.3066 15.5823 9.27105 15.5467C8.45327 15.5467 7.63549 15.5467 6.81771 15.5467C6.71993 15.5467 6.62216 15.5645 6.53327 15.6089C6.47993 15.6356 6.40882 15.6445 6.35549 15.6623C6.31993 15.6 6.29327 15.5556 6.2666 15.5023C6.39105 15.2356 6.5066 14.9689 6.63105 14.7023C6.95993 14 7.27993 13.2978 7.61771 12.6045C7.75105 12.32 7.90216 12.0445 8.06216 11.7245C8.15105 11.8934 8.22216 12.0267 8.28438 12.1689C8.63105 12.9423 8.97771 13.7156 9.32438 14.4889C9.35105 14.5423 9.37771 14.6045 9.40438 14.6578C9.37771 14.6578 9.35993 14.6578 9.33327 14.6667C9.36882 14.7912 9.40438 14.9156 9.44882 15.0845C9.44882 14.9689 9.45771 14.9067 9.4666 14.8445C9.59105 15.1112 9.72438 15.3867 9.84882 15.6534C9.83993 15.6534 9.82216 15.6534 9.81327 15.6534" fill="#6BA8D9"/>
<path d="M10.6747 17.2356C10.6658 17.3334 10.737 17.3867 10.8081 17.4312C10.9147 17.4934 11.0036 17.5556 11.0392 17.6979C11.057 17.7601 11.1458 17.8134 11.2258 17.8845C11.2258 17.9023 11.2258 17.9556 11.2436 18.0179C11.2792 18.0179 11.3147 18.0356 11.3503 18.0445C11.4214 18.1601 11.4836 18.2845 11.5725 18.3912C11.6525 18.4979 11.7592 18.5779 11.8836 18.7023C11.8836 18.7023 11.8836 18.7467 11.8925 18.8001C11.9636 18.8267 12.0436 18.8534 12.1058 18.8801V19.0134C12.0081 19.049 11.8747 18.9601 11.8125 19.0845C11.6614 19.0934 11.5192 19.1023 11.377 19.1112C11.377 19.0845 11.377 19.0579 11.3858 19.0223C11.4658 19.0134 11.537 19.0045 11.617 18.9956V18.8534C11.5458 18.809 11.4481 18.7734 11.4392 18.729C11.4214 18.6223 11.3503 18.5779 11.297 18.5067C11.1636 18.3467 11.0392 18.1779 10.897 18.0179C10.7814 17.8756 10.6747 17.7245 10.5325 17.6179C10.4436 17.5467 10.3636 17.4756 10.3192 17.3601C10.3014 17.3245 10.2747 17.289 10.2392 17.2623C10.1147 17.1556 9.99918 17.0579 9.95473 16.889C9.94585 16.8534 9.87473 16.8267 9.81251 16.8001C9.77696 16.8712 9.75918 16.9245 9.73251 16.969C9.67918 17.0667 9.59918 17.1556 9.57251 17.2534C9.5014 17.5734 9.30585 17.8401 9.20807 18.1423C9.06585 18.2579 9.09251 18.4356 9.01251 18.5779C8.87918 18.8267 8.75473 19.0845 8.6214 19.3334C8.56807 19.449 8.51473 19.5556 8.45251 19.6979C8.72807 19.6534 8.96807 19.6179 9.2614 19.5734C9.2614 19.5734 9.30585 19.5379 9.35029 19.5023H9.6614C9.6614 19.5023 9.72362 19.4401 9.75029 19.4045H9.95473C9.95473 19.4045 9.92807 19.4845 9.9014 19.5023C9.81251 19.5556 9.71473 19.5912 9.60807 19.6356C9.60807 19.6534 9.60807 19.6801 9.60807 19.7067C9.5814 19.7067 9.54585 19.7156 9.51918 19.7245C9.43029 19.6179 9.31473 19.6445 9.20807 19.689C8.96807 19.7779 8.72807 19.8401 8.47029 19.8045C8.40807 19.849 8.35473 19.8845 8.27473 19.9467C8.26585 19.8667 8.23918 19.8134 8.25696 19.7956C8.34585 19.689 8.43473 19.5823 8.44362 19.4401C8.4614 19.2979 8.61251 19.2267 8.60362 19.0667C8.60362 19.0045 8.69251 18.9512 8.75473 18.8801C8.71918 18.8001 8.68362 18.7379 8.64807 18.6667C8.64807 18.649 8.64807 18.6312 8.64807 18.6223C8.71029 18.489 8.76362 18.3556 8.82585 18.2223C8.95029 17.9645 9.06585 17.7067 9.19029 17.449C9.28807 17.2356 9.39473 17.0312 9.5014 16.8267C9.51918 16.7912 9.53696 16.7556 9.54585 16.7201C9.54585 16.7201 9.5814 16.6845 9.59918 16.6667H9.69696C9.71473 16.5512 9.73251 16.4356 9.75029 16.3201C9.75029 16.3201 9.8214 16.2934 9.85696 16.2756C9.96362 16.3379 9.95473 16.5245 10.1414 16.5245C10.1414 16.6579 10.2125 16.7556 10.3103 16.8534C10.4347 16.969 10.5414 17.0934 10.657 17.2179L10.6747 17.2356Z" fill="#6BA8D9"/>
<path d="M13.7237 16.0534C13.8837 15.9556 14.0348 15.8578 14.2303 15.7422C14.2303 15.9111 14.2303 16.0178 14.2303 16.1334C14.2303 16.3911 14.2481 16.4178 14.5326 16.4622C14.6037 16.5867 14.5859 16.72 14.5503 16.8534C14.4526 16.9245 14.2837 16.8356 14.2481 17.0134C14.2748 17.3245 14.1592 17.6534 14.3192 17.9822C14.3903 17.9822 14.4526 17.9822 14.5237 17.9734C14.6126 18.08 14.577 18.2222 14.5859 18.3556C14.3281 18.5511 14.1503 18.5511 13.8215 18.3378C13.7237 18.1156 13.7326 17.8845 13.7326 17.6622C13.7326 17.44 13.7326 17.2178 13.7326 16.9689C13.6792 16.9422 13.617 16.9067 13.5459 16.8711V16.4889C13.6081 16.4445 13.6703 16.4 13.7326 16.3467V16.0622L13.7237 16.0534ZM18.8081 16.6489C19.1192 16.3734 19.4659 16.3111 19.8303 16.4445C20.0615 16.5245 20.1948 16.7022 20.2303 16.96C20.0792 16.9867 19.937 17.0045 19.7859 17.0311C19.7148 16.96 19.6437 16.88 19.5726 16.8089C19.4215 16.7734 19.3148 16.8267 19.1992 16.9422C19.2615 16.9956 19.3059 17.0667 19.3681 17.0845C19.4926 17.1289 19.617 17.1556 19.7415 17.1911C19.857 17.2267 19.9726 17.2622 20.0703 17.3245C20.2037 17.4134 20.2926 17.5378 20.2837 17.7156C20.2837 17.8134 20.2837 17.9111 20.2837 18.0356C20.1859 18.16 20.1237 18.32 19.9459 18.3911C19.7237 18.4889 19.5015 18.5245 19.2703 18.48C18.9326 18.4089 18.7015 18.1511 18.6837 17.8756C18.817 17.7511 18.977 17.8045 19.137 17.7867C19.217 17.92 19.3059 18.0445 19.4748 18.08C19.5903 18.0445 19.7237 18.0267 19.777 17.8756C19.697 17.76 19.5637 17.7245 19.4303 17.6889C19.297 17.6534 19.1637 17.6178 19.0392 17.5645C18.817 17.4756 18.7459 17.2711 18.6837 17.0667C18.6659 17.0134 18.6926 16.9422 18.7103 16.88C18.737 16.8 18.7637 16.7289 18.7992 16.6489H18.8081ZM24.4703 16.9245C24.3903 16.8978 24.3459 16.8889 24.2837 16.8711V16.4711C24.3459 16.4445 24.4081 16.4178 24.4703 16.3911C24.4703 16.2845 24.4792 16.1778 24.4881 16.0534C24.6392 15.9645 24.7726 15.8311 24.977 15.7689V16.3911C25.0748 16.4178 25.1637 16.4356 25.2703 16.4622V16.8445C25.1815 16.88 25.0837 16.9245 24.9859 16.96V17.8934C25.0659 18.0089 25.1637 17.9822 25.2526 17.9467C25.3503 18.0711 25.3237 18.2134 25.3237 18.3467C25.1726 18.4978 24.9859 18.4889 24.817 18.4622C24.6215 18.4267 24.4881 18.2134 24.4792 17.9734C24.4792 17.68 24.4792 17.3956 24.4792 17.1022C24.4792 17.0489 24.4792 16.9867 24.4703 16.9156V16.9245ZM16.9237 16.9778C16.9237 16.9245 16.9237 16.9156 16.9237 16.8978C17.0215 16.5689 17.2792 16.3911 17.6703 16.3911C17.8303 16.3911 17.9726 16.4267 18.1237 16.4889C18.2748 16.5511 18.337 16.6578 18.3726 16.8C18.4526 17.12 18.4081 17.44 18.4259 17.76C18.4348 17.9822 18.4615 18.2045 18.4792 18.4445C18.3103 18.4178 18.1059 18.5156 17.9281 18.3467C17.8481 18.3822 17.7592 18.4356 17.6703 18.4711C17.2703 18.6134 16.8792 18.3378 16.8703 17.9911C16.8703 17.6267 16.9948 17.3956 17.2792 17.3067C17.4303 17.2622 17.5992 17.2356 17.7592 17.2C17.8392 17.1822 17.8926 17.1378 17.8837 17.0489C17.8837 16.96 17.8303 16.9156 17.7503 16.9067C17.7503 16.9067 17.7326 16.9067 17.7237 16.9067C17.6526 16.9067 17.5726 16.9067 17.5015 16.9067C17.4481 16.9778 17.4126 17.0311 17.3592 17.1022C17.2081 17.1111 17.0659 17.0756 16.9237 16.9956V16.9778ZM28.4259 18.4267H27.9192C27.9192 18.4267 27.8481 18.3734 27.7948 18.3289C27.777 18.3289 27.7503 18.3467 27.7326 18.3556C27.617 18.4 27.5103 18.4711 27.3859 18.48C26.9415 18.5245 26.6303 18.2134 26.7459 17.7067C26.7992 17.4667 26.9681 17.3422 27.1992 17.2889C27.3415 17.2534 27.4837 17.2267 27.6259 17.1822C27.6881 17.1645 27.7415 17.1022 27.7948 17.0578C27.7059 16.8178 27.5281 16.88 27.3592 16.8889C27.3148 16.9511 27.2615 17.0134 27.1992 17.1022C27.0659 17.0578 26.9237 17.0222 26.7726 16.9778C26.7992 16.7556 26.9059 16.5956 27.0837 16.4889C27.2081 16.4178 27.3326 16.3734 27.4837 16.3822C27.6348 16.3911 27.7859 16.4 27.937 16.4534C28.177 16.5422 28.257 16.7289 28.2659 16.9422C28.2837 17.2534 28.2659 17.5734 28.2659 17.8845C28.2659 18.0534 28.257 18.2311 28.4081 18.4089L28.4259 18.4267ZM22.257 16.9156C22.2303 16.9956 22.1859 17.0845 22.1859 17.1645C22.1681 17.52 22.1503 17.8756 22.1415 18.2311C22.1415 18.2845 22.1415 18.3467 22.1415 18.4178C21.9726 18.4534 21.8215 18.4356 21.6526 18.4356V17.04C21.5903 16.9689 21.5281 16.9067 21.4748 16.8445C21.2081 16.8889 21.1459 17.0667 21.1459 17.28C21.1459 17.6534 21.1459 18.0267 21.1459 18.4C21.057 18.4711 20.9681 18.4356 20.8792 18.4356C20.7992 18.4356 20.7192 18.4356 20.6037 18.4356C20.6037 18.2045 20.6037 17.9822 20.6037 17.76C20.6037 17.5467 20.6037 17.3245 20.6037 17.1111C20.6037 16.8889 20.577 16.6667 20.6303 16.4445C20.8259 16.4622 21.0126 16.3734 21.1637 16.5334C21.4837 16.3556 21.7237 16.2934 22.0259 16.5867C22.1681 16.64 22.2392 16.5156 22.337 16.4622C22.6126 16.3111 22.9592 16.4 23.0926 16.6756C23.1637 16.8178 23.1992 16.96 23.1992 17.1289C23.1903 17.4934 23.1992 17.8578 23.1992 18.2222V18.4267H22.7015C22.7015 18.2311 22.7015 18.0356 22.7015 17.8489C22.7103 17.6445 22.657 17.4489 22.7015 17.2445C22.7015 17.2178 22.7015 17.1911 22.7015 17.1734C22.6659 16.9156 22.5948 16.8622 22.2748 16.9245L22.257 16.9156ZM26.5503 17.0134C26.4615 16.9689 26.3992 16.9334 26.3192 16.8889C26.2481 16.9422 26.1681 16.9956 26.097 17.0489C26.0792 17.2889 26.0437 17.5111 26.0348 17.7422C26.0348 17.9645 26.0348 18.1778 26.0348 18.4C25.8659 18.4534 25.7148 18.4178 25.5637 18.4267C25.5192 18.24 25.5015 17.0045 25.537 16.4534C25.7237 16.4267 25.9015 16.4089 26.097 16.4889C26.2837 16.3467 26.4792 16.3289 26.6837 16.5156C26.6392 16.6667 26.5948 16.8178 26.5415 17.0045L26.5503 17.0134ZM16.0881 16.4534H16.5592V18.4267H16.0881V16.4534ZM15.2792 18.4267H14.7903V16.4445C14.977 16.4356 15.1637 16.4089 15.3237 16.4978C15.6348 16.3289 15.7503 16.3378 15.9281 16.5422C15.8659 16.6845 15.8837 16.8622 15.7415 16.9867C15.6703 16.9511 15.5992 16.9156 15.5281 16.8711C15.3059 17.0045 15.2792 17.2267 15.2703 17.4311C15.2526 17.7511 15.2703 18.08 15.2703 18.4178L15.2792 18.4267ZM23.5548 18.4267C23.5015 17.9911 23.5192 16.6222 23.5903 16.4534H24.0615V18.4267H23.5548ZM27.4037 18.0978C27.777 17.9467 27.8659 17.7778 27.7059 17.5378C27.5192 17.6178 27.2348 17.5734 27.2348 17.8756C27.3059 17.9645 27.3592 18.0356 27.4126 18.0978H27.4037ZM17.3859 17.92C17.4481 17.9734 17.5103 18.0267 17.5726 18.0889C17.6703 18.0356 17.7681 17.9911 17.857 17.9467C17.8837 17.8489 17.9015 17.76 17.937 17.6445C17.8748 17.6267 17.8215 17.6 17.7592 17.5822C17.5992 17.5467 17.5103 17.6711 17.3859 17.7422V17.92ZM23.5903 16.24C23.5015 16.0534 23.5103 15.8756 23.5815 15.6978H24.017C24.1326 15.84 24.0615 16.0178 24.0703 16.1956C23.9103 16.2845 23.7592 16.2222 23.5903 16.2489V16.24ZM16.5859 16.2222H16.097V15.7156C16.1592 15.6622 16.2392 15.6978 16.3192 15.6889C16.3903 15.6889 16.4703 15.6889 16.5503 15.6889C16.6037 15.8667 16.5503 16.0356 16.577 16.2222H16.5859Z" fill="#4295CE"/>
<path d="M11.2351 17.4311H11.1017C11.1017 17.4311 11.0573 17.36 11.0306 17.3155C10.9951 17.2711 10.9773 17.2178 10.8973 17.1911C10.7995 17.1644 10.7906 17.0222 10.844 16.9244C11.0128 17.0667 11.1462 17.2267 11.244 17.4222" fill="#4295CE"/>
<path d="M9.62598 19.7334C9.62598 19.7334 9.62598 19.68 9.62598 19.6623C9.72375 19.6178 9.82153 19.5823 9.91931 19.5289C9.94598 19.5112 9.95487 19.4667 9.97264 19.4312C10.026 19.4312 10.0704 19.4312 10.1238 19.4312C10.1238 19.4845 10.1238 19.5289 10.1238 19.5823C10.1238 19.6 10.1238 19.6089 10.1238 19.6267C10.0882 19.6267 10.0526 19.6267 10.026 19.6267C9.97264 19.6445 9.9282 19.6623 9.87487 19.6712C9.8482 19.6712 9.81264 19.68 9.78598 19.6889C9.7682 19.6978 9.75042 19.7156 9.72375 19.7245C9.6882 19.7245 9.66153 19.7245 9.62598 19.7245" fill="#569DD2"/>
<path d="M9.48392 14.8356C9.48392 14.8978 9.47503 14.96 9.46614 15.0756C9.41281 14.9067 9.38614 14.7823 9.35059 14.6578C9.37725 14.6578 9.39503 14.6578 9.4217 14.6489C9.43947 14.7111 9.46614 14.7734 9.48392 14.8356Z" fill="#569DD2"/>
<path d="M23.9466 19.3245C24.1421 19.4045 24.3199 19.3156 24.5332 19.3423C24.5954 19.4311 24.6754 19.5378 24.7288 19.6267C24.6932 19.8134 24.6399 19.9467 24.471 20.0445C24.3821 20.0356 24.2754 20.0178 24.151 20.0089C24.151 20.08 24.1332 20.1689 24.1243 20.2667C24.071 20.2667 24.0177 20.2845 23.9466 20.2934V19.3334V19.3245ZM26.6043 19.8223C26.6754 19.6356 26.7288 19.4934 26.7821 19.3511H26.9954C26.8888 19.6 26.791 19.8311 26.6843 20.0534C26.5688 20.3023 26.5421 20.3111 26.2399 20.2578C26.2399 20.2578 26.4532 20.08 26.4799 20.0534C26.391 19.8311 26.2932 19.6089 26.1954 19.36C26.2754 19.3423 26.3288 19.3334 26.391 19.3245C26.4532 19.4756 26.5154 19.6267 26.5954 19.8134L26.6043 19.8223ZM14.5777 19.3511H14.7554C14.8088 19.5289 14.7199 19.7245 14.8354 19.8756C15.0399 19.8756 15.1021 19.84 15.111 19.6623C15.111 19.5645 15.111 19.4667 15.111 19.3511H15.2977V20.0356C15.191 20.0178 15.0932 20 14.9866 20C14.8888 20 14.7999 20.0356 14.711 20.0534C14.471 19.84 14.5777 19.6 14.5599 19.36L14.5777 19.3511ZM22.2399 19.3334C22.3732 19.3423 22.4888 19.3511 22.6221 19.36V19.1111C22.6843 19.1023 22.7377 19.0934 22.791 19.0845C22.8088 19.1023 22.8266 19.12 22.8266 19.1289C22.8266 19.4223 22.8266 19.7067 22.8266 19.9911C22.7288 20.0978 22.6399 19.9645 22.551 19.9911C22.4621 20.0178 22.3643 20.0267 22.2843 20.0445C21.9643 19.7689 21.9554 19.6178 22.2399 19.3245V19.3334ZM15.5377 19.1023H15.7066C15.7154 19.1823 15.7243 19.2623 15.7332 19.3423H16.1154C16.4177 19.5911 16.4088 19.7778 16.0799 20.0356C15.911 20.0534 15.7332 19.9645 15.5288 20.0445V19.1023H15.5377ZM13.6621 19.8667C13.7925 19.8489 13.911 19.8726 14.0177 19.9378C14.0621 19.92 14.1154 19.9023 14.1777 19.8756C14.1599 19.8489 14.151 19.8223 14.1332 19.8134C14.071 19.7867 14.0088 19.7689 13.9466 19.7423C13.8666 19.7156 13.7777 19.6889 13.7154 19.6623C13.6354 19.5023 13.7066 19.4223 13.8132 19.3423H14.2488C14.2754 19.3867 14.3021 19.44 14.3377 19.4934C14.231 19.5556 14.1688 19.5378 14.0977 19.4667C14.0266 19.4045 13.9466 19.4134 13.8843 19.5023C13.9999 19.6445 14.1599 19.6178 14.3377 19.6445C14.3554 19.7245 14.3732 19.8045 14.391 19.8845C14.1154 20.0978 13.8932 20.0978 13.671 19.8578L13.6621 19.8667ZM17.991 19.3511H18.4354C18.6666 19.5378 18.4888 19.8045 18.6043 20.0534C18.3732 19.9911 18.1777 20.08 17.9643 20.0356C17.9199 19.9734 17.8666 19.9023 17.8043 19.8045C17.8754 19.7511 17.9377 19.7067 18.0266 19.6445C18.1154 19.6267 18.2932 19.6978 18.3377 19.4934C18.1688 19.3334 18.0621 19.6445 17.8843 19.5111C17.9199 19.4578 17.9643 19.4045 17.9999 19.3511H17.991ZM20.9243 19.3511H21.2621C21.3777 19.4489 21.4932 19.5378 21.4577 19.7423H20.9332C21.0577 19.9289 21.0577 19.9378 21.2088 19.8845C21.2888 19.8578 21.351 19.8489 21.431 19.8845C21.3332 20.08 21.1554 20.0623 20.9866 20.0534C20.6399 19.8311 20.6221 19.6267 20.9243 19.36V19.3511ZM19.2621 19.36C19.2443 19.52 19.1288 19.4845 19.0221 19.52C19.0043 19.5911 18.9866 19.68 18.9777 19.76C18.9777 19.84 18.9777 19.92 18.9777 20.0178C18.9154 20.0178 18.8621 20.0356 18.791 20.0445V19.3511C18.951 19.4045 19.1021 19.3245 19.271 19.36H19.2621ZM23.5288 20.0445H23.2266C23.1732 20.0089 23.111 19.9645 23.0221 19.9023C23.0221 19.7778 23.0221 19.6267 23.0132 19.5023C23.0843 19.44 23.1377 19.3956 23.191 19.3423H23.5466C23.5999 19.3956 23.6621 19.4489 23.7243 19.5111V19.7423H23.2266C23.3066 19.9023 23.3332 19.92 23.4488 19.8934C23.5288 19.8756 23.6177 19.8489 23.6977 19.8311C23.7066 19.8489 23.7243 19.8667 23.7332 19.8845C23.671 19.9378 23.6088 19.9823 23.5377 20.0445H23.5288ZM19.831 19.3334C20.0443 19.4134 20.2399 19.3156 20.4532 19.36C20.5954 19.5645 20.5688 19.7956 20.5332 20.0356H20.3554C20.3554 20.0356 20.3288 20 20.3288 19.9823C20.3288 19.8667 20.3288 19.7511 20.3288 19.6356C20.3288 19.5734 20.2932 19.5023 20.2488 19.4667C20.1688 19.4134 20.1154 19.4756 20.0621 19.5378C20.0532 19.5467 20.0443 19.5645 20.0177 19.5911V20.0356C19.9554 20.0356 19.9021 20.0445 19.831 20.0534V19.3423V19.3334ZM19.3866 19.36C19.4488 19.36 19.4932 19.36 19.5554 19.3511C19.6354 19.5911 19.6354 19.8134 19.5554 20.0445C19.4843 20.0445 19.4399 20.0445 19.3777 20.0356V19.36H19.3866ZM16.6932 20.0356H16.4799V19.36C16.6666 19.4045 16.8532 19.3156 17.0221 19.36C17.2177 19.4223 17.3866 19.2889 17.591 19.3689C17.7421 19.5556 17.6443 19.7867 17.671 20.0267C17.6088 20.0267 17.5554 20.0356 17.4666 20.0445C17.4666 19.9111 17.4666 19.7867 17.4666 19.6711C17.4666 19.5111 17.4399 19.4934 17.2532 19.5023C17.1377 19.6623 17.191 19.8489 17.1643 20.0356H16.9866V19.52C16.7999 19.4311 16.7377 19.4489 16.7199 19.6C16.7021 19.7334 16.7021 19.8756 16.7021 20.0356H16.6932ZM25.4843 19.3511H25.8577C26.0177 19.4223 26.0799 19.5467 26.1066 19.6978C26.0799 19.8578 25.9643 19.9556 25.8221 20.0445H25.5288C25.1821 19.8934 25.1821 19.5645 25.4754 19.3511H25.4843ZM27.111 19.8845V19.5111C27.1821 19.4489 27.2443 19.4045 27.3066 19.3511H27.6443C27.7688 19.4489 27.8754 19.5467 27.8043 19.7511H27.3154C27.4132 19.92 27.431 19.9378 27.5466 19.8934C27.6354 19.8578 27.7154 19.84 27.8221 19.8667C27.7954 19.9645 27.6888 19.9823 27.6443 20.0445H27.3332C27.2799 20 27.2088 19.9556 27.1199 19.8845H27.111ZM28.5243 19.36C28.5154 19.5556 28.2932 19.4311 28.2399 19.6089V20.0267C28.1688 20.0267 28.1154 20.0356 28.0443 20.0445V19.36H28.5332H28.5243ZM24.8799 19.1023C24.9599 19.1023 24.9954 19.1023 25.031 19.1023C25.111 19.1645 25.1199 19.3867 25.0666 20.0178C24.9154 20.0445 24.8799 20.0267 24.8799 19.9023C24.8799 19.6445 24.8799 19.3956 24.8799 19.1111V19.1023ZM18.0799 19.9111C18.1777 19.9645 18.2488 19.9467 18.311 19.8756C18.3554 19.8223 18.391 19.7689 18.3199 19.6978C18.2399 19.7245 18.1599 19.7423 18.0621 19.7689C18.0621 19.8223 18.0621 19.8756 18.071 19.9111H18.0799ZM25.5821 19.4667C25.511 19.5645 25.4221 19.6711 25.5199 19.8134C25.5821 19.9023 25.6799 19.92 25.7688 19.8845C25.9377 19.8223 25.8666 19.68 25.8754 19.5823C25.7954 19.4667 25.7154 19.4045 25.5821 19.4667ZM16.1066 19.8134V19.5467C16.0354 19.5111 15.9732 19.4756 15.911 19.4489C15.8399 19.4934 15.7866 19.5378 15.7332 19.5734C15.7332 19.9023 15.8399 19.9645 16.1066 19.8134ZM24.4799 19.5734C24.3021 19.4578 24.2843 19.4578 24.1421 19.5734V19.84C24.2221 19.8578 24.3021 19.8845 24.3732 19.8845C24.4088 19.8845 24.4443 19.8311 24.4799 19.8045V19.5645V19.5734ZM22.2754 19.8311C22.5421 19.9556 22.631 19.8756 22.6132 19.5734C22.5332 19.5111 22.4532 19.4489 22.3554 19.5023C22.231 19.5734 22.2932 19.7067 22.2754 19.8223V19.8311ZM21.0843 19.4134C21.0132 19.4934 20.9688 19.5467 20.8977 19.6178C21.0488 19.6445 21.1554 19.6978 21.271 19.5645C21.2177 19.52 21.1643 19.4756 21.0843 19.4045V19.4134ZM27.3332 19.6445C27.4399 19.6356 27.5377 19.6623 27.6266 19.6178C27.6266 19.5111 27.591 19.4489 27.4932 19.4489C27.3777 19.4489 27.3243 19.4934 27.3421 19.6445H27.3332ZM23.5288 19.6356C23.4754 19.4667 23.431 19.4223 23.3332 19.4489C23.2354 19.4756 23.1999 19.5289 23.2354 19.6356H23.5199H23.5288ZM19.3866 19.2534C19.3866 19.1911 19.3866 19.1645 19.3777 19.12C19.431 19.1111 19.4843 19.1023 19.5554 19.0934C19.5643 19.1378 19.5732 19.1734 19.5821 19.2267C19.5199 19.2267 19.4666 19.2445 19.3866 19.2534Z" fill="#EC814A"/>
<path d="M9.83038 15.6445C9.83038 15.6445 9.85704 15.6445 9.86593 15.6445C9.88371 15.689 9.90149 15.7423 9.92816 15.7867H9.80371C9.8126 15.7334 9.82149 15.689 9.83927 15.6356" fill="#4295CE"/>
<path d="M9.875 19.6801C9.92833 19.6623 9.97278 19.6445 10.0261 19.6356C9.97278 19.6534 9.92833 19.6712 9.875 19.6801Z" fill="#6BA8D9"/>
<path d="M10.124 19.6267C10.124 19.6267 10.124 19.6001 10.124 19.5823C10.1596 19.5823 10.1862 19.5823 10.2218 19.5823C10.2218 19.5823 10.1507 19.6178 10.124 19.6356" fill="#9DC4E6"/>
<path d="M9.37695 19.8223C9.37695 19.8223 9.44806 19.7956 9.48362 19.7778C9.44806 19.7956 9.41251 19.8045 9.37695 19.8223Z" fill="#9DC4E6"/>
<path d="M9.72363 19.7334C9.72363 19.7334 9.75919 19.7068 9.78586 19.6979C9.76808 19.7068 9.7503 19.7245 9.72363 19.7334Z" fill="#9DC4E6"/>
<path d="M9.22626 18.4444C9.04848 18.8178 8.88848 19.1644 8.71959 19.5378C8.83515 19.5378 8.94181 19.5555 9.00404 19.5111C9.19959 19.4044 9.41293 19.3778 9.62626 19.3333C9.91959 19.28 10.1951 19.1289 10.4974 19.12C10.5951 19.0044 10.7374 19.0311 10.8707 19.0311C10.9685 19.0311 11.0307 18.9955 11.0307 18.8711C10.8796 18.6933 10.7018 18.5244 10.5596 18.3289C10.4885 18.2311 10.4174 18.1511 10.3196 18.0978C10.284 18.0711 10.2574 18.0267 10.2307 17.9822C10.1507 17.8578 10.0707 17.7244 9.9907 17.5911C9.94626 17.5644 9.88404 17.5378 9.84848 17.5111C9.82181 17.44 9.80404 17.3867 9.78626 17.3333C9.76848 17.3333 9.7507 17.3333 9.73293 17.3333C9.66181 17.52 9.59959 17.7155 9.51959 17.8933C9.43959 18.0711 9.28848 18.2044 9.28848 18.4267C9.26181 18.4267 9.23515 18.4355 9.21737 18.4355M10.124 19.4311C10.0707 19.4311 10.0263 19.4311 9.97293 19.4311H9.76848C9.76848 19.4311 9.70626 19.4933 9.67959 19.5289H9.36848L9.27959 19.6C8.98626 19.6444 8.73737 19.68 8.4707 19.7244C8.53293 19.5911 8.58626 19.4755 8.63959 19.36C8.76404 19.1022 8.89737 18.8533 9.0307 18.6044C9.10181 18.4622 9.08404 18.2755 9.22626 18.1689C9.32404 17.8578 9.52848 17.6 9.5907 17.28C9.60848 17.1733 9.69737 17.0844 9.7507 16.9955C9.77737 16.9511 9.79515 16.8978 9.8307 16.8267C9.88404 16.8622 9.95515 16.88 9.97293 16.9155C10.0174 17.0844 10.1329 17.1911 10.2574 17.2889C10.2929 17.3155 10.3196 17.3511 10.3374 17.3867C10.3818 17.4933 10.4618 17.5644 10.5507 17.6444C10.6929 17.76 10.7996 17.9111 10.9151 18.0444C11.0485 18.2044 11.1818 18.3733 11.3151 18.5333C11.3685 18.6044 11.4396 18.6489 11.4574 18.7555C11.4574 18.8 11.564 18.8355 11.6351 18.88V19.0222C11.5551 19.0311 11.4751 19.04 11.404 19.0489C11.404 19.0844 11.404 19.1111 11.3951 19.1378C11.3596 19.1378 11.3329 19.1378 11.2974 19.1378C11.2263 19.1378 11.1374 19.1111 11.1463 19.2355C11.1285 19.2355 11.1196 19.2355 11.1018 19.2355C11.0751 19.2178 11.0485 19.1822 11.0307 19.1911C10.8974 19.2355 10.7729 19.2889 10.6485 19.3333C10.5685 19.3511 10.4796 19.3689 10.3996 19.3867C10.3196 19.4044 10.2307 19.4222 10.1507 19.44" fill="#9DC4E6"/>
<path d="M6.32878 17.1823C6.32878 17.1823 6.26656 17.209 6.25767 17.2356C6.19545 17.3956 6.00878 17.4401 5.94656 17.5645C5.80434 17.8312 5.56434 18.009 5.38656 18.249C5.23545 18.4445 5.05767 18.6223 4.89767 18.809C4.87989 18.8356 4.89767 18.8801 4.89767 18.8978C5.08434 18.9423 5.24434 18.9956 5.41322 19.0223C5.55545 19.0401 5.67989 19.1201 5.80434 19.129C6.11545 19.1556 6.38211 19.369 6.70211 19.3423C6.84434 19.4934 7.06656 19.4223 7.21767 19.529C7.24434 19.5467 7.28878 19.529 7.33322 19.529C7.26211 19.3601 7.18211 19.209 7.11989 19.0578C7.07545 18.9512 7.09323 18.809 7.02211 18.7378C6.91545 18.6312 6.89767 18.4978 6.84434 18.3823C6.65767 18.0001 6.50656 17.6001 6.33767 17.1912M6.98656 18.1956C7.02211 18.2756 7.05767 18.3645 7.08434 18.4445C7.04878 18.6312 7.20878 18.7556 7.191 18.9423H7.33322C7.351 19.0223 7.36878 19.1112 7.38656 19.1912C7.38656 19.2623 7.35989 19.3512 7.48434 19.3423C7.53767 19.5023 7.59989 19.6623 7.66211 19.8401H7.43989C7.43989 19.7156 7.35989 19.7423 7.28878 19.7423C7.17322 19.7245 7.05767 19.7067 6.94211 19.689C6.90656 19.6712 6.871 19.6534 6.84434 19.6445C6.80878 19.6445 6.78211 19.6445 6.74656 19.6445C6.74656 19.6178 6.73767 19.5823 6.72878 19.5645C6.41767 19.4845 6.13322 19.4134 5.83989 19.3423C5.78656 19.3423 5.74211 19.3423 5.68878 19.3423C5.68878 19.3156 5.67989 19.2801 5.67989 19.2801C5.52878 19.2356 5.41322 19.2001 5.23545 19.1467H5.02211H4.99545C4.99545 19.1201 4.99545 19.0934 4.98656 19.0667C4.80878 19.0134 4.631 18.969 4.44434 18.9067C4.51545 18.8267 4.56878 18.7378 4.64878 18.6756C4.78211 18.5512 4.90656 18.4267 5.00434 18.2756C5.06656 18.1778 5.14656 18.0978 5.21767 18.009C5.29767 17.9201 5.39545 17.8312 5.47545 17.7423C5.64434 17.5467 5.81322 17.3423 5.98211 17.1467C6.05322 17.0578 6.15989 16.9956 6.16878 16.8712C6.16878 16.8445 6.21322 16.8267 6.23989 16.809C6.29322 16.8356 6.33767 16.8623 6.36434 16.8712C6.45322 17.0934 6.52434 17.3067 6.62211 17.5023C6.69322 17.6356 6.68434 17.8134 6.84434 17.8934C6.83545 18.0267 6.91545 18.1156 6.99545 18.2045" fill="#9DC4E6"/>
<path d="M6.97722 18.1868C6.89722 18.0979 6.80833 18.009 6.82611 17.8757C6.675 17.7868 6.675 17.6179 6.60389 17.4845C6.50611 17.289 6.435 17.0757 6.34611 16.8534C6.31944 16.8357 6.275 16.8179 6.22167 16.7912C6.195 16.809 6.15056 16.8268 6.15056 16.8534C6.14167 16.9779 6.035 17.049 5.96389 17.129C5.795 17.3245 5.62611 17.529 5.45722 17.7245C5.37722 17.8223 5.27944 17.9023 5.19944 17.9912C5.11944 18.0801 5.03944 18.1601 4.98611 18.2579C4.88833 18.4179 4.76389 18.5423 4.63056 18.6579C4.55944 18.729 4.49722 18.809 4.42611 18.889C4.62167 18.9423 4.79944 18.9957 4.96833 19.049C4.96833 19.0757 4.96833 19.1023 4.97722 19.129H4.71944C4.71944 19.129 4.63056 19.0668 4.62167 19.0579C4.36389 19.0045 4.14167 18.9601 3.89278 18.9068C3.89278 18.8979 3.875 18.8623 3.875 18.8357C3.96389 18.7912 4.04389 18.7557 4.12389 18.7112C4.08833 18.6845 4.07056 18.6668 4.01722 18.6312C4.17722 18.6312 4.30167 18.6312 4.28389 18.4534C4.34611 18.4179 4.39944 18.3912 4.45278 18.3645C4.48833 18.3023 4.515 18.2134 4.57722 18.1601C4.78167 17.9734 4.94167 17.7601 5.11944 17.5557C5.20833 17.4579 5.27944 17.3512 5.37722 17.2357C5.395 17.2357 5.43944 17.2357 5.48389 17.2268C5.53722 17.1468 5.57278 17.0757 5.635 17.0045C5.75056 16.8623 5.88389 16.729 5.99944 16.5868C6.02611 16.5601 6.02611 16.5157 6.04389 16.4623C6.09722 16.4357 6.15944 16.4001 6.23056 16.3557V16.089C6.275 16.1868 6.32833 16.2845 6.37278 16.3912C6.36389 16.3912 6.355 16.409 6.33722 16.409C6.355 16.409 6.36389 16.4268 6.38167 16.4357C6.50611 16.6401 6.61278 16.8534 6.675 17.0845C6.64833 17.1201 6.62167 17.1557 6.58611 17.209C6.71944 17.4223 6.74611 17.689 6.95944 17.8668C6.97722 17.929 7.00389 18.0001 7.02167 18.0712C7.03056 18.1157 7.04833 18.169 6.97722 18.1868Z" fill="#6BA8D9"/>
<path d="M8.52431 15.8934C7.99098 15.8934 7.45765 15.8934 6.92431 15.8934C6.87987 15.8756 6.84431 15.8579 6.79987 15.849C6.71098 15.849 6.62209 15.849 6.5332 15.849C6.5332 15.7245 6.6132 15.7512 6.65765 15.7512C7.19987 15.7512 7.74209 15.7512 8.28431 15.7512C8.31098 15.7779 8.33765 15.8134 8.36431 15.849C8.66654 15.8134 8.97765 15.7779 9.27098 15.7423C9.30654 15.7868 9.3332 15.8134 9.36876 15.8579H9.77765C9.77765 15.8579 9.70654 15.9201 9.67987 15.9379C9.56431 15.9379 9.43987 15.9379 9.32431 15.9379C9.28876 15.929 9.2532 15.9112 9.21765 15.9112C8.98654 15.9112 8.75543 15.9112 8.5332 15.9112" fill="#4295CE"/>
<path d="M5.82129 19.3334C6.11462 19.4045 6.39907 19.4756 6.71018 19.5556C6.71018 19.5734 6.71907 19.6 6.72796 19.6356C6.6124 19.6356 6.50573 19.6267 6.39907 19.5823C6.2924 19.5378 6.15907 19.5378 6.00796 19.5112C5.9724 19.4667 5.83907 19.4667 5.83018 19.3334" fill="#6BA8D9"/>
<path d="M5.02168 19.1289H5.20835C5.38613 19.1822 5.51057 19.2178 5.6528 19.2622C5.6528 19.2622 5.65279 19.2978 5.66168 19.3245C5.53724 19.3245 5.43057 19.3245 5.31502 19.2622C5.23502 19.2178 5.12835 19.2267 5.02168 19.2089C5.02168 19.1822 5.0128 19.1556 5.00391 19.1289" fill="#6BA8D9"/>
<path d="M7.32437 18.9333H7.18215C7.19993 18.7467 7.03993 18.6133 7.07549 18.4355C7.17326 18.4178 7.19993 18.5067 7.19993 18.5511C7.19993 18.6933 7.28882 18.8089 7.32437 18.9333Z" fill="#6BA8D9"/>
<path d="M10.6309 19.3334C10.7553 19.2801 10.8886 19.2356 11.0131 19.1912C11.0309 19.1912 11.0575 19.2178 11.0842 19.2356C10.9775 19.3423 10.8264 19.3334 10.702 19.3867C10.6842 19.3867 10.6575 19.3512 10.6397 19.3423" fill="#6BA8D9"/>
<path d="M10.124 19.4311C10.204 19.4134 10.2929 19.3956 10.3729 19.3778C10.3729 19.4045 10.3729 19.4223 10.3729 19.4578C10.3285 19.4756 10.284 19.4845 10.2396 19.5023C10.2396 19.5289 10.2396 19.5556 10.2396 19.5734C10.204 19.5734 10.1774 19.5734 10.1418 19.5734C10.1418 19.52 10.1418 19.4756 10.1418 19.4223" fill="#6BA8D9"/>
<path d="M7.47518 19.3334C7.35073 19.3423 7.3774 19.2534 7.3774 19.1823C7.50184 19.1734 7.47518 19.2623 7.47518 19.3334Z" fill="#6BA8D9"/>
<path d="M11.1289 19.2268C11.1289 19.1023 11.2089 19.129 11.28 19.129C11.2889 19.2534 11.2 19.2268 11.1289 19.2268Z" fill="#6BA8D9"/>
<path d="M7.27113 19.7334C7.34224 19.7334 7.43113 19.7067 7.42224 19.8311C7.35113 19.8311 7.26224 19.8578 7.27113 19.7334Z" fill="#6BA8D9"/>
<path d="M6.82617 19.6356C6.82617 19.6356 6.89728 19.6712 6.92395 19.68C6.90617 19.6978 6.87951 19.7067 6.86173 19.7245C6.85284 19.6889 6.83506 19.6623 6.82617 19.6267" fill="#6BA8D9"/>
<path d="M10.6748 17.2356C10.6748 17.1911 10.6748 17.1467 10.6837 17.0756C10.7281 17.1556 10.7459 17.2089 10.6748 17.2356Z" fill="#6BA8D9"/>
<path d="M8.63975 18.6933C8.63975 18.6933 8.66642 18.6578 8.6753 18.64C8.6753 18.6578 8.6753 18.6756 8.6753 18.6845C8.65753 18.6845 8.64864 18.6845 8.63086 18.6845" fill="#9DC4E6"/>
<path d="M9.92796 15.8401C9.9013 15.8579 9.91019 15.849 9.92796 15.8401V15.8401Z" fill="#4295CE"/>
<path d="M8.07993 12.6134C8.0177 12.7289 7.95548 12.8 7.9377 12.8889C7.86659 13.2712 7.62659 13.5823 7.46659 13.92C7.32437 14.2223 7.19104 14.5245 7.01326 14.8534H7.26215C7.72437 14.8534 8.19548 14.8534 8.6577 14.8534C8.79104 14.8534 8.92437 14.88 9.11993 14.8978C8.75548 14.1423 8.47993 13.3778 8.07993 12.6223M8.0977 12.32C8.23104 12.5778 8.37326 12.8 8.42659 13.0489C8.43548 13.0845 8.44437 13.1289 8.46215 13.1645C8.61326 13.4045 8.71104 13.6712 8.83548 13.92C8.92437 14.0978 8.99548 14.2845 9.07548 14.4623C9.16437 14.6489 9.24437 14.8445 9.33326 15.0312C9.36882 15.1023 9.42215 15.1556 9.47548 15.2178C9.4577 15.2267 9.43993 15.2445 9.43104 15.2445C9.12881 15.1734 8.83548 15.2623 8.53326 15.2445C8.22215 15.2356 7.91993 15.2445 7.60882 15.2445C7.47548 15.2445 7.32437 15.2889 7.19993 15.2C7.19104 15.2 7.16437 15.2 7.14659 15.2C7.06659 15.2089 6.98659 15.2356 6.91548 15.2356C6.84437 15.2356 6.77326 15.2 6.70215 15.1734C7.16437 14.24 7.6177 13.2978 8.10659 12.3112" fill="#9DC4E6"/>
<path d="M9.62598 16.6844C9.62598 16.5422 9.69709 16.4444 9.77709 16.3378C9.75931 16.4533 9.74153 16.5689 9.72375 16.6844H9.62598Z" fill="#569DD2"/>
<path d="M9.52832 16.8355C9.52832 16.8355 9.56388 16.7644 9.57276 16.7289C9.55499 16.7644 9.53721 16.8 9.52832 16.8355Z" fill="#569DD2"/>
<path d="M9.57324 16.7378C9.57324 16.7378 9.6088 16.7022 9.62658 16.6844C9.6088 16.7022 9.59102 16.72 9.57324 16.7378Z" fill="#569DD2"/>
<path d="M8.52354 15.8934C8.75465 15.8934 8.98576 15.8934 9.20798 15.8934C9.24354 15.8934 9.27909 15.9112 9.31465 15.9201C9.06576 15.9201 8.81687 15.929 8.56798 15.9379C8.5502 15.9379 8.53243 15.9112 8.51465 15.8934" fill="#569DD2"/>
<path d="M6.38136 16.4356C6.38136 16.4356 6.35469 16.4178 6.33691 16.4089C6.3458 16.4089 6.35469 16.3911 6.37247 16.3911C6.37247 16.4089 6.38136 16.4178 6.38136 16.4356Z" fill="#569DD2"/>
<path d="M9.24397 19.2267C9.28842 19.2267 9.38619 19.2534 9.43953 19.2267C9.63508 19.1023 9.8573 19.1023 10.0706 19.0489C10.2306 19.0045 10.3906 18.9778 10.5329 18.8889C10.5062 18.8356 10.4973 18.7912 10.4706 18.7556C10.2573 18.4889 10.044 18.2223 9.82175 17.9556C9.78619 17.92 9.73286 17.9023 9.67064 17.8667C9.59953 18.0178 9.54619 18.1512 9.48397 18.2756C9.34175 18.5512 9.27064 18.8534 9.09286 19.1023C9.06619 19.1467 9.0573 19.2089 9.03953 19.2623C9.03953 19.28 9.0573 19.3067 9.07508 19.3512C9.12842 19.3067 9.18175 19.28 9.25286 19.2267M9.23508 18.4356C9.23508 18.4356 9.27953 18.4356 9.30619 18.4267C9.30619 18.2134 9.4573 18.0712 9.5373 17.8934C9.6173 17.7067 9.67953 17.52 9.75064 17.3334C9.76842 17.3334 9.78619 17.3334 9.80397 17.3334C9.82175 17.3867 9.83953 17.44 9.86619 17.5112C9.90175 17.5289 9.95508 17.5645 10.0084 17.5912C10.0884 17.7245 10.1684 17.8578 10.2484 17.9823C10.2751 18.0267 10.3017 18.0712 10.3373 18.0978C10.4351 18.16 10.5062 18.24 10.5773 18.3289C10.7195 18.5245 10.8884 18.6934 11.0484 18.8712C11.0484 18.9867 10.9862 19.0312 10.8884 19.0312C10.7551 19.0312 10.6217 19.0045 10.5151 19.12C10.2129 19.12 9.93731 19.28 9.64397 19.3334C9.43064 19.3689 9.2173 19.4045 9.02175 19.5112C8.95064 19.5467 8.84397 19.5289 8.7373 19.5378C8.91508 19.1645 9.06619 18.8178 9.24397 18.4445" fill="#C9DEF1"/>
<path d="M6.39094 17.7156C6.33761 17.76 6.29316 17.7867 6.26649 17.8223C6.05316 18.0711 5.83983 18.32 5.62649 18.5689C5.56427 18.64 5.49316 18.7023 5.41316 18.7911C5.43983 18.8356 5.46649 18.8889 5.49316 18.9334C5.58205 18.9334 5.65316 18.9423 5.71538 18.9334C5.96427 18.88 6.16872 19.0223 6.39983 19.0489C6.53316 19.1823 6.74649 19.1289 6.89761 19.2356C6.91538 19.2445 6.95094 19.2178 6.99538 19.2089C6.70205 18.7467 6.55983 18.24 6.39094 17.7245M6.32872 17.1911C6.4976 17.6 6.64872 18 6.83538 18.3823C6.88872 18.4978 6.90649 18.6311 7.01316 18.7378C7.08427 18.8089 7.07538 18.9511 7.11094 19.0578C7.17316 19.2178 7.24427 19.3689 7.32427 19.5289C7.27983 19.5289 7.23538 19.5556 7.20872 19.5289C7.04872 19.4223 6.82649 19.4934 6.69316 19.3423C6.37316 19.3689 6.10649 19.1556 5.79538 19.1289C5.66205 19.12 5.5376 19.04 5.40427 19.0223C5.23538 18.9956 5.07538 18.9423 4.88872 18.8978C4.88872 18.88 4.87983 18.8356 4.88872 18.8089C5.04872 18.6223 5.23538 18.4445 5.37761 18.2489C5.55538 18.0089 5.79538 17.84 5.9376 17.5645C6.00872 17.44 6.19538 17.3956 6.24872 17.2356C6.24872 17.2089 6.30205 17.2 6.31983 17.1823" fill="#C9DEF1"/>
<path d="M8.04381 13.0311C7.83936 13.2445 7.90158 13.5289 7.7327 13.7156C7.75936 13.9022 7.63492 14.0178 7.54603 14.1511C7.48381 14.24 7.46603 14.3289 7.43936 14.4356C7.67936 14.4356 7.90158 14.48 8.10603 14.4356C8.31936 14.3911 8.51492 14.4178 8.74603 14.4178C8.67492 14.3111 8.6127 14.2045 8.5327 14.0889C8.60381 13.8845 8.38158 13.7334 8.38158 13.5289C8.22158 13.3956 8.24825 13.1378 8.04381 13.0222M8.07936 12.6045C8.47936 13.36 8.74603 14.1245 9.11936 14.88C8.9327 14.8622 8.79936 14.8356 8.65714 14.8356C8.19492 14.8356 7.72381 14.8356 7.26158 14.8356H7.0127C7.19047 14.5156 7.32381 14.2045 7.46603 13.9022C7.62603 13.5645 7.86603 13.2534 7.93714 12.8711C7.95492 12.7911 8.01714 12.72 8.07936 12.5956" fill="#C9DEF1"/>
</g>
</g>
<defs>
<clipPath id="clip0_2810_57869">
<rect width="32" height="32" fill="white"/>
</clipPath>
</defs>
</svg>
