<svg width="32" height="32" viewBox="0 0 32 32" fill="none" xmlns="http://www.w3.org/2000/svg">
<g clip-path="url(#clip0_2707_322983)">
<path d="M16 32C24.8366 32 32 24.8366 32 16C32 7.16344 24.8366 0 16 0C7.16344 0 0 7.16344 0 16C0 24.8366 7.16344 32 16 32Z" fill="white"/>
<path d="M15.9998 29.3333C23.3636 29.3333 29.3332 23.3638 29.3332 16C29.3332 8.63616 23.3636 2.66663 15.9998 2.66663C8.63604 2.66663 2.6665 8.63616 2.6665 16C2.6665 23.3638 8.63604 29.3333 15.9998 29.3333Z" fill="white"/>
<path d="M16.018 20.3023C21.9434 20.3023 26.7468 17.409 26.7468 13.84C26.7468 10.271 21.9434 7.37781 16.018 7.37781C10.0926 7.37781 5.28906 10.271 5.28906 13.84C5.28906 17.409 10.0926 20.3023 16.018 20.3023Z" fill="url(#paint0_linear_2707_322983)"/>
<path d="M16.0176 19.7866C21.7319 19.7866 26.3642 17.1242 26.3642 13.84C26.3642 10.5557 21.7319 7.89331 16.0176 7.89331C10.3033 7.89331 5.6709 10.5557 5.6709 13.84C5.6709 17.1242 10.3033 19.7866 16.0176 19.7866Z" fill="#00553F"/>
<path d="M17.3776 15.3333L16.8976 15.5377C16.8976 15.5377 16.8531 15.6089 16.8531 15.6355C16.8531 15.9555 16.8531 16.2844 16.9065 16.6044C16.9119 16.6208 16.9135 16.6382 16.9113 16.6553C16.9091 16.6725 16.9031 16.6889 16.8937 16.7034C16.8844 16.7179 16.8718 16.7301 16.8571 16.7391C16.8424 16.7481 16.8259 16.7537 16.8087 16.7555L16.5509 16.8355C16.4887 16.8355 16.4531 16.8355 16.4531 16.7644C16.4531 16.4977 16.4531 16.2222 16.4531 15.9555V15.7333H16.3554C15.7865 15.9289 15.2087 16.1333 14.6398 16.3466C14.5863 16.3712 14.5448 16.4159 14.5242 16.4711C14.4798 16.5777 14.4531 16.6933 14.4176 16.8C14.382 16.9066 14.3465 16.88 14.3109 16.8711L13.9554 16.8089C13.8931 16.6755 13.8576 16.56 13.8042 16.4622C13.7509 16.3644 13.6265 16.1689 13.5376 16.0266L13.4576 15.9022C13.3979 16.0056 13.3295 16.1038 13.2531 16.1955C13.211 16.2247 13.1752 16.2621 13.1478 16.3055C13.1204 16.3488 13.102 16.3972 13.0937 16.4478C13.0854 16.4984 13.0874 16.5501 13.0995 16.5999C13.1116 16.6497 13.1336 16.6966 13.1642 16.7377L12.6665 16.8711C12.6665 16.8711 12.6131 16.8711 12.5865 16.8177C12.5598 16.7644 12.4887 16.72 12.4354 16.7111C11.9998 16.6489 11.5465 16.5777 11.1376 16.5422C10.7287 16.5066 10.1331 16.4889 9.62646 16.4977C9.1198 16.5066 8.84424 16.5422 8.4798 16.5689C8.8638 16.3987 9.2714 16.2878 9.68868 16.24C10.1154 16.1955 10.5776 16.1511 10.9776 16.1422C11.3776 16.1333 11.8665 16.2044 12.2754 16.2311C12.2754 16.0711 12.1954 15.9644 12.0442 15.9466C11.5376 15.8844 11.022 15.8044 10.5154 15.7777C10.0087 15.7511 9.50202 15.7777 9.00424 15.7777C8.79278 15.7853 8.58199 15.806 8.37313 15.84H8.26646C9.09307 15.4996 9.98923 15.3625 10.8798 15.44V15.3955C10.8302 15.3619 10.7764 15.335 10.7198 15.3155C10.3642 15.2355 10.0176 15.1289 9.66202 15.0844C9.30646 15.04 8.80868 15.1111 8.39091 15.1111C8.91202 14.9664 9.45008 14.8916 9.99091 14.8889C10.5407 14.8863 11.0863 14.9857 11.5998 15.1822C11.5838 15.0809 11.5394 14.9862 11.4718 14.9091C11.4041 14.832 11.316 14.7756 11.2176 14.7466C10.5113 14.5723 9.78471 14.4945 9.05757 14.5155C8.70202 14.5155 8.34646 14.5955 7.97313 14.6311L8.14202 14.5244C8.44017 14.3567 8.7703 14.2538 9.11091 14.2222C9.72261 14.1761 10.3377 14.206 10.942 14.3111H11.0576C11.0394 14.2176 10.9898 14.1332 10.917 14.0718C10.8443 14.0103 10.7528 13.9756 10.6576 13.9733C9.85525 13.9572 9.05425 13.9008 8.25757 13.8044L7.88424 13.7244V13.68L9.96424 13.5466C9.50202 13.4666 9.07535 13.3777 8.58646 13.3155C8.12179 13.2602 7.66707 13.1405 7.23535 12.96C8.05049 12.8927 8.87112 12.9649 9.66202 13.1733C9.65733 13.0981 9.62768 13.0267 9.57775 12.9703C9.52783 12.914 9.4605 12.8759 9.38646 12.8622C8.83758 12.817 8.29518 12.7127 7.76868 12.5511L7.60868 12.4444C8.01757 12.4444 8.41757 12.4444 8.82646 12.4444C8.45747 12.0887 8.03817 11.7892 7.58202 11.5555L8.67535 11.8577C8.60424 11.6089 8.55091 11.3689 8.4798 11.1022C8.85878 11.4215 9.19093 11.7925 9.46646 12.2044C9.41511 11.8137 9.31353 11.4313 9.16424 11.0666C9.35451 11.1727 9.51148 11.3297 9.61757 11.52C9.72645 11.6991 9.82154 11.8864 9.90202 12.08C9.97313 12.2755 10.0265 12.48 10.0798 12.6844C10.1433 12.1445 10.1162 11.5977 9.9998 11.0666C10.2198 11.2645 10.38 11.5201 10.462 11.8044C10.6008 12.2717 10.6697 12.757 10.6665 13.2444C10.6665 13.3511 10.6665 13.4133 10.8354 13.4489C10.9065 12.6489 10.9687 11.8577 11.0398 11.0666C11.0972 11.31 11.1417 11.5563 11.1731 11.8044C11.1731 12.32 11.1731 12.8355 11.2265 13.3511C11.237 13.5362 11.2608 13.7204 11.2976 13.9022C11.5649 13.0373 11.7144 12.1403 11.742 11.2355C11.8588 11.459 11.9284 11.704 11.9465 11.9555C12.0043 12.5912 12.0043 13.2309 11.9465 13.8666C11.9343 13.9103 11.9343 13.9563 11.9465 14L11.9998 13.8666C12.1954 13.3333 12.3909 12.7911 12.6042 12.2666C12.6782 12.1147 12.7644 11.969 12.862 11.8311H12.9065C12.9153 12.0058 12.9153 12.1808 12.9065 12.3555C12.8442 12.7022 12.7642 13.0577 12.702 13.4044C12.7039 13.4879 12.7319 13.5687 12.782 13.6355C12.9509 13.9289 12.9242 13.8577 13.0754 13.6355V13.5733C13.2798 13.3333 13.4931 13.0933 13.342 12.6844H13.3954L13.4576 12.8C13.4729 12.8483 13.4907 12.8957 13.5109 12.9422L13.6976 12.8266C13.7026 12.8501 13.7026 12.8743 13.6976 12.8977C13.6508 12.997 13.6312 13.1068 13.6405 13.216C13.6499 13.3253 13.688 13.4302 13.7509 13.52C13.8309 13.6711 13.902 13.8311 13.9909 14.0089L14.2665 13.6977C14.2735 13.6856 14.2772 13.6718 14.2772 13.6577C14.2772 13.6437 14.2735 13.6299 14.2665 13.6177C14.2665 13.0133 14.222 12.4089 14.2131 11.84C14.1994 11.6672 14.2365 11.4942 14.3198 11.3422C14.4414 12.3683 14.6496 13.3823 14.942 14.3733C15.0398 14.2755 15.0931 14.2133 15.0754 14.0977C14.9902 13.5092 14.9575 12.9143 14.9776 12.32C15.001 12.083 15.0426 11.8483 15.102 11.6177C15.1271 11.5276 15.1694 11.4431 15.2265 11.3689C15.1682 12.0237 15.2315 12.6837 15.4131 13.3155C15.4452 13.4071 15.4838 13.4962 15.5287 13.5822C15.6531 13.3955 15.7954 13.2622 15.7598 13.0133C15.6394 12.2313 15.6787 11.433 15.8754 10.6666C15.9411 10.3765 16.0787 10.1076 16.2754 9.88441C16.034 10.8242 16.0157 11.8074 16.222 12.7555C16.2888 12.6774 16.36 12.6032 16.4354 12.5333C16.4824 12.4897 16.5182 12.4355 16.5398 12.3751C16.5615 12.3148 16.5683 12.2502 16.5598 12.1866C16.5243 11.5894 16.5783 10.9902 16.7198 10.4089C16.7625 10.2744 16.8222 10.1459 16.8976 10.0266C16.9549 9.95347 17.024 9.89039 17.102 9.83997C16.931 10.4619 16.859 11.1068 16.8887 11.7511C16.8844 11.8221 16.8844 11.8934 16.8887 11.9644C16.9807 11.9251 17.0619 11.8642 17.1253 11.7868C17.1887 11.7094 17.2326 11.6179 17.2531 11.52C17.3154 11.1822 17.3865 10.8444 17.4754 10.5066C17.5147 10.3819 17.5748 10.2647 17.6531 10.16C17.6772 10.1188 17.715 10.0874 17.7598 10.0711C17.6539 10.3918 17.6087 10.7294 17.6265 11.0666C17.6265 11.1377 17.6265 11.2 17.6265 11.2711C17.7509 11.1733 17.8842 11.12 17.9287 10.9511C18.0002 10.6905 18.0893 10.4351 18.1954 10.1866C18.2262 10.1077 18.2741 10.0365 18.3355 9.97815C18.397 9.91977 18.4705 9.87563 18.5509 9.84885C18.5509 10.0977 18.5065 10.3377 18.4798 10.6133L19.6798 9.96441C19.4819 10.2481 19.2386 10.4974 18.9598 10.7022C19.4334 10.6457 19.9128 10.6607 20.382 10.7466C20.1776 10.7466 19.9731 10.8266 19.7776 10.8889C19.6529 10.9146 19.5329 10.9596 19.422 11.0222C19.0959 11.1998 18.7257 11.2801 18.3554 11.2533C18.1865 11.2533 18.0798 11.3422 18.0265 11.5466C18.6209 11.5467 19.2148 11.5081 19.8042 11.4311L19.6176 11.5555C19.2544 11.733 18.8636 11.8472 18.462 11.8933C18.1509 11.9466 17.8487 11.9644 17.5731 12C17.4754 12 17.342 12.1244 17.2354 12.32C17.8487 12.32 18.4442 12.24 19.0131 12.1955C18.6754 12.3289 18.3376 12.4711 17.9909 12.5777C17.6442 12.6844 17.1998 12.7822 16.7998 12.8711C16.6398 12.8711 16.5776 13.0133 16.5065 13.1377C17.3846 12.9745 18.2538 12.7669 19.1109 12.5155C18.737 12.775 18.3305 12.9842 17.902 13.1377C17.3892 13.3269 16.8485 13.429 16.302 13.44C16.1776 13.44 16.1154 13.5111 16.062 13.6977C17.0698 13.5622 18.0675 13.3603 19.0487 13.0933L18.7642 13.2711L18.4709 13.44C18.4163 13.4701 18.3727 13.5168 18.3465 13.5733C18.0373 14.2898 17.7963 15.0338 17.6265 15.7955C17.6215 15.8784 17.6215 15.9615 17.6265 16.0444C17.6221 16.0739 17.6221 16.1038 17.6265 16.1333L17.7065 16.0089C18.0333 15.3298 18.4294 14.6864 18.8887 14.0889C19.0232 13.9277 19.172 13.7789 19.3331 13.6444C19.3904 13.598 19.4572 13.5646 19.5287 13.5466C19.0538 14.3039 18.7028 15.1321 18.4887 16H18.5331L18.6309 15.8133C18.8965 15.2082 19.2305 14.6356 19.6265 14.1066C19.7891 13.9113 19.9707 13.7327 20.1687 13.5733C20.2728 13.5018 20.391 13.4533 20.5154 13.4311C20.3719 13.5614 20.2605 13.723 20.1895 13.9034C20.1186 14.0837 20.0902 14.278 20.1065 14.4711L20.2042 14.3555C20.5331 13.9733 20.8531 13.5822 21.1909 13.2089C21.3912 12.9933 21.6627 12.8575 21.9554 12.8266C21.6258 13.1306 21.3781 13.5127 21.2354 13.9377C21.638 13.4055 22.1503 12.9659 22.7376 12.6489C22.4093 12.9556 22.1908 13.3615 22.1153 13.8044L23.1198 13.1289C22.9755 13.333 22.87 13.562 22.8087 13.8044C23.159 13.5483 23.5691 13.3861 23.9998 13.3333C23.8948 13.3914 23.8058 13.4746 23.7407 13.5754C23.6756 13.6762 23.6363 13.7915 23.6265 13.9111C24.1251 13.7645 24.6485 13.7221 25.1642 13.7866C24.6617 13.8418 24.1922 14.064 23.8309 14.4177L24.0087 14.48L25.0131 14.8355C25.077 14.8616 25.1329 14.9041 25.175 14.9588C25.2172 15.0134 25.2441 15.0782 25.2531 15.1466C24.592 14.8102 23.833 14.7188 23.1109 14.8889C23.6481 14.9754 24.1519 15.2058 24.5687 15.5555C23.6544 15.2429 22.676 15.1665 21.7242 15.3333V15.3777L22.3109 15.5289L23.3242 15.8577C23.4322 15.901 23.5271 15.9715 23.5998 16.0622C22.5115 15.8044 21.387 15.7353 20.2754 15.8577C21.2014 15.9896 22.1012 16.2655 22.942 16.6755H22.8442C22.062 16.5244 21.2798 16.3555 20.4887 16.2311C20.2197 16.2045 19.9488 16.2045 19.6798 16.2311C19.623 16.2322 19.5676 16.2485 19.5191 16.2782C19.4707 16.3079 19.431 16.3499 19.4042 16.4C20.2265 16.4229 21.0385 16.5883 21.8042 16.8889H21.6176C20.8941 16.8162 20.1665 16.7925 19.4398 16.8177C19.1109 16.8177 18.7731 16.8977 18.4354 16.9244C18.0976 16.9511 17.5465 16.9244 17.1465 16.9244C17.0754 16.9244 17.0665 16.9244 17.0842 16.8266L17.3509 15.4577C17.3598 15.44 17.3687 15.3955 17.3776 15.3333ZM18.2665 13.68L17.8665 13.8577C17.2227 14.0935 16.5594 14.272 15.8842 14.3911C15.6087 14.4444 15.5731 14.6844 15.3954 14.8622C15.4514 14.8693 15.5082 14.8693 15.5642 14.8622C15.6824 14.8753 15.8016 14.8753 15.9198 14.8622C16.4442 14.7555 16.9598 14.6311 17.4754 14.5333C17.5919 14.5208 17.7032 14.4781 17.7982 14.4095C17.8933 14.3409 17.9689 14.2488 18.0176 14.1422C18.0804 14.0302 18.1517 13.9232 18.2309 13.8222C18.2463 13.7865 18.2673 13.7535 18.2931 13.7244L18.2665 13.68ZM16.7109 14.9777C16.2309 15.0933 15.7509 15.2177 15.262 15.3244C15.2098 15.3314 15.1608 15.3537 15.1213 15.3885C15.0817 15.4233 15.0534 15.4691 15.0398 15.52C15.0398 15.6444 14.942 15.7689 14.8976 15.9111H14.9509L16.5065 15.52C16.522 15.5181 16.5367 15.5122 16.5492 15.5028C16.5616 15.4935 16.5714 15.481 16.5776 15.4666L16.7554 14.9866L16.7109 14.9777ZM17.662 14.6222L17.182 14.8089C17.0754 14.8089 16.9154 14.8533 16.8709 14.9333C16.8265 15.0133 16.8709 15.1555 16.8709 15.28C16.8709 15.4044 16.8709 15.3244 16.8709 15.3333C16.8709 15.3422 16.9242 15.4044 16.9509 15.3955C16.9776 15.3866 17.2531 15.3066 17.4042 15.2622L17.4487 15.2177C17.5287 15.0311 17.6087 14.8355 17.6798 14.6489L17.662 14.6222ZM13.4576 14.8889C13.6354 14.6666 13.7598 14.4533 13.6176 14.1777C13.5827 14.0854 13.556 13.9902 13.5376 13.8933C13.5426 13.8609 13.5426 13.8279 13.5376 13.7955L13.2976 14.4533C13.2886 14.4762 13.2886 14.5015 13.2976 14.5244L13.4576 14.8889ZM13.0042 14.8889C12.8709 15.1377 12.7465 15.3511 12.6487 15.5733C12.6487 15.6355 12.6487 15.7244 12.6487 15.8044C12.6487 15.8844 12.8354 15.76 12.8887 15.7066C12.9904 15.5898 13.0825 15.4649 13.1642 15.3333C13.1642 15.3333 13.1642 15.2622 13.1642 15.2444C13.1642 15.2266 13.0576 15.0222 12.9865 14.8889H13.0042ZM12.2398 14.8889C12.2696 14.8453 12.3023 14.8037 12.3376 14.7644C12.4354 14.6133 12.542 14.4711 12.6487 14.32C12.7554 14.1689 12.7998 14.1333 12.7465 13.9911C12.7057 13.878 12.673 13.7621 12.6487 13.6444C12.5154 14.0533 12.3731 14.4622 12.2398 14.8711V14.8889ZM14.5154 15.2C14.702 15.0311 14.6931 14.9955 14.6131 14.8177C14.5417 14.6524 14.4794 14.4833 14.4265 14.3111V14.2044H14.382C14.3376 14.32 14.2309 14.4444 14.2576 14.5422C14.3294 14.7735 14.4247 14.9969 14.542 15.2089L14.5154 15.2ZM14.222 16C14.3109 15.84 14.3109 15.8222 14.222 15.7066L13.9909 15.2266C13.9675 15.1746 13.9407 15.1242 13.9109 15.0755C13.8576 15.2089 13.8042 15.3155 13.7598 15.4133C13.7536 15.4241 13.7503 15.4364 13.7503 15.4489C13.7503 15.4613 13.7536 15.4736 13.7598 15.4844L14.222 16Z" fill="url(#paint1_linear_2707_322983)"/>
<path d="M15.9998 16.8889C15.8309 16.8889 15.822 16.8889 15.8309 16.72C15.8244 16.5543 15.8745 16.3912 15.9732 16.2578C16.0532 16.1689 16.1154 16.1689 16.142 16.2578C16.1764 16.3917 16.1973 16.5287 16.2043 16.6667C16.2309 16.8889 16.2132 16.8889 15.9998 16.8889Z" fill="url(#paint2_linear_2707_322983)"/>
<path d="M15.5468 16.3556C15.6001 16.4978 15.6357 16.6045 15.6712 16.7111C15.7068 16.8178 15.6712 16.8534 15.5557 16.8711C15.4401 16.8889 15.4312 16.8711 15.4046 16.7734C15.3779 16.6756 15.449 16.4978 15.5468 16.3556Z" fill="url(#paint3_linear_2707_322983)"/>
<path d="M13.9731 21.9822V21.9022H15.4398V22.32C15.3776 22.32 15.342 22.32 15.3154 22.2667C15.2994 22.2166 15.272 22.171 15.2354 22.1333C15.2069 22.0942 15.1694 22.0624 15.1261 22.0408C15.0828 22.0191 15.0349 22.0082 14.9865 22.0089H14.6309V22.6311C14.942 22.6311 15.0398 22.6311 15.102 22.3556H15.1909V23.0311C15.102 23.0311 15.102 23.0311 15.0843 22.9778V22.9067C15.0709 22.8629 15.0438 22.8245 15.007 22.7973C14.9702 22.7701 14.9256 22.7555 14.8798 22.7556C14.8088 22.7511 14.7375 22.7511 14.6665 22.7556V23.2356C14.6665 23.3511 14.7109 23.3956 14.8176 23.3956C14.9447 23.4088 15.0727 23.4088 15.1998 23.3956C15.2213 23.3946 15.2422 23.3884 15.2608 23.3775C15.2794 23.3667 15.295 23.3515 15.3065 23.3333C15.3679 23.2509 15.4243 23.1648 15.4754 23.0756C15.4754 23.0222 15.5287 23.0044 15.5909 23.0222V23.5289H13.9731V23.44H14.1065C14.1217 23.4389 14.1365 23.4348 14.1501 23.4279C14.1637 23.421 14.1758 23.4115 14.1857 23.4C14.1956 23.3884 14.2031 23.375 14.2078 23.3605C14.2126 23.346 14.2144 23.3307 14.2131 23.3156V22.1422C14.2157 22.1287 14.2153 22.1148 14.2121 22.1014C14.2089 22.088 14.2029 22.0755 14.1945 22.0646C14.1862 22.0537 14.1756 22.0446 14.1634 22.0381C14.1513 22.0316 14.138 22.0277 14.1243 22.0267L13.9731 21.9822Z" fill="black"/>
<path d="M24.0529 23.111L24.1418 23.1733C24.0977 23.2797 24.0286 23.3741 23.9404 23.4483C23.8523 23.5226 23.7476 23.5746 23.6351 23.5999C23.4818 23.6317 23.3228 23.6224 23.1742 23.573C23.0257 23.5235 22.8928 23.4358 22.789 23.3185C22.6853 23.2012 22.6144 23.0586 22.5834 22.9051C22.5525 22.7516 22.5627 22.5927 22.6129 22.4444C22.6612 22.2968 22.7518 22.1667 22.8735 22.0703C22.9952 21.9739 23.1426 21.9154 23.2973 21.9022C23.4839 21.8664 23.6771 21.8913 23.8485 21.9733C23.8581 21.978 23.8688 21.9804 23.8796 21.9804C23.8903 21.9804 23.901 21.978 23.9107 21.9733C23.9336 21.96 23.9597 21.953 23.9862 21.953C24.0128 21.953 24.0388 21.96 24.0618 21.9733V22.5688H23.9996C23.973 22.4894 23.9403 22.4121 23.9018 22.3377C23.8686 22.2731 23.8267 22.2133 23.7773 22.1599C23.7418 22.1242 23.6996 22.0958 23.653 22.0765C23.6065 22.0571 23.5566 22.0471 23.5062 22.0471C23.4558 22.0471 23.4059 22.0571 23.3594 22.0765C23.3129 22.0958 23.2706 22.1242 23.2351 22.1599C23.2012 22.1859 23.1739 22.2194 23.1551 22.2577C23.0845 22.3984 23.048 22.5537 23.0485 22.711C23.0486 22.8468 23.0696 22.9817 23.1107 23.111C23.1363 23.1862 23.1805 23.2536 23.2391 23.307C23.2977 23.3605 23.3689 23.3983 23.446 23.417C23.5232 23.4356 23.6038 23.4344 23.6803 23.4136C23.7569 23.3927 23.827 23.3529 23.884 23.2977C23.9434 23.2384 23.9998 23.1761 24.0529 23.111Z" fill="black"/>
<path d="M5.56424 23.4134C5.57337 23.4335 5.58854 23.4503 5.60765 23.4615C5.62677 23.4726 5.64887 23.4776 5.67091 23.4756C5.72692 23.4832 5.78384 23.4714 5.83231 23.4424C5.88077 23.4133 5.9179 23.3686 5.93757 23.3156C5.95864 23.249 5.97351 23.1805 5.98202 23.1111V22.2223C5.98202 22.1156 5.98202 22.08 5.84868 22.0534H5.74202V21.9645H6.63091V22.0534H6.49757C6.42646 22.0534 6.40868 22.0534 6.40868 22.1778C6.40868 22.3023 6.40868 22.4445 6.40868 22.5778V23.0578C6.41481 23.1905 6.37204 23.3208 6.28848 23.424C6.20492 23.5272 6.08638 23.5962 5.95535 23.6178C5.82207 23.6584 5.67974 23.6584 5.54646 23.6178C5.49697 23.6015 5.45155 23.5748 5.41325 23.5395C5.37495 23.5042 5.34468 23.4611 5.32446 23.413C5.30424 23.365 5.29455 23.3132 5.29605 23.2612C5.29754 23.2091 5.31019 23.1579 5.33313 23.1111C5.33647 23.0633 5.35583 23.018 5.38809 22.9825C5.42034 22.947 5.46361 22.9235 5.51091 22.9156C5.5561 22.906 5.60312 22.9102 5.6459 22.9277C5.68868 22.9451 5.72526 22.975 5.75091 23.0134C5.7805 23.0498 5.79665 23.0953 5.79665 23.1423C5.79665 23.1892 5.7805 23.2347 5.75091 23.2711C5.69344 23.3245 5.63093 23.3721 5.56424 23.4134Z" fill="black"/>
<path d="M26.7464 23.3512C26.7476 23.3815 26.7428 23.4118 26.7323 23.4403C26.7217 23.4688 26.7057 23.4949 26.685 23.5172C26.6644 23.5395 26.6396 23.5575 26.612 23.5702C26.5844 23.5829 26.5545 23.59 26.5242 23.5912C26.4635 23.5913 26.405 23.5685 26.3605 23.5273C26.3159 23.486 26.2887 23.4295 26.2842 23.3689C26.2883 23.309 26.314 23.2526 26.3565 23.2101C26.399 23.1676 26.4554 23.142 26.5153 23.1378C26.5766 23.1378 26.6354 23.1622 26.6787 23.2055C26.7221 23.2488 26.7464 23.3076 26.7464 23.3689V23.3512Z" fill="black"/>
<path d="M19.1289 23.2C18.9778 22.8089 18.8178 22.4177 18.6578 22.0355C18.6578 21.9822 18.6578 21.9111 18.5866 21.8844C18.5155 21.8577 18.48 21.8844 18.4178 21.8844C18.4084 21.8818 18.3986 21.8811 18.389 21.8823C18.3794 21.8836 18.3701 21.8868 18.3618 21.8918C18.3534 21.8968 18.3462 21.9035 18.3406 21.9114C18.3349 21.9193 18.3309 21.9283 18.3289 21.9377L17.7778 23.2266C17.7691 23.2639 17.7528 23.2989 17.7298 23.3296C17.7068 23.3602 17.6778 23.3857 17.6444 23.4044C17.6186 23.4232 17.5875 23.4333 17.5555 23.4333C17.5236 23.4333 17.4925 23.4232 17.4666 23.4044C17.4046 23.3678 17.3478 23.3229 17.2978 23.2711C17.1644 23.12 17.0311 22.9511 16.9066 22.7911L16.7111 22.5511L17.0933 22.1511C17.1816 22.072 17.2887 22.0169 17.4044 21.9911H17.5022V21.9022H16.7911V21.9822H16.9422C16.9413 22.065 16.9231 22.1468 16.8889 22.2222L16.4089 22.7111C16.4089 22.7111 16.4089 22.7111 16.3378 22.7111V22.1422C16.3374 22.1144 16.3471 22.0874 16.3651 22.0662C16.383 22.0449 16.4081 22.0309 16.4355 22.0266H16.5866V21.9466H15.6978V22.0266H15.8044C15.92 22.0266 15.9466 22.0889 15.9466 22.2044V23.3244C15.9466 23.4133 15.9466 23.4489 15.8311 23.4577H15.6978V23.5466H16.5866V23.4577H16.4622C16.4371 23.4535 16.4143 23.4404 16.398 23.4209C16.3817 23.4013 16.373 23.3765 16.3733 23.3511V22.8089C16.4046 22.82 16.4345 22.8349 16.4622 22.8533L16.9778 23.5377C16.9882 23.545 17.0006 23.5489 17.0133 23.5489C17.026 23.5489 17.0384 23.545 17.0489 23.5377H18.1955V23.4489H18.0178C17.9981 23.4446 17.9808 23.433 17.9693 23.4166C17.9577 23.4001 17.9528 23.3799 17.9555 23.36C17.9555 23.2622 18.0178 23.1644 18.0533 23.0666H18.1066H18.5955C18.5955 23.0666 18.64 23.0666 18.6489 23.0666C18.6578 23.0666 18.7289 23.2711 18.7733 23.3777C18.8178 23.4844 18.7733 23.4489 18.7289 23.4577H18.56V23.5466H19.4489V23.4577C19.2533 23.4577 19.1822 23.3422 19.1289 23.2ZM18.0889 22.8711L18.32 22.2933C18.4 22.4889 18.48 22.6755 18.5511 22.8711H18.0889Z" fill="black"/>
<path d="M10.1155 22.88C10.0408 22.7848 9.93285 22.7213 9.81329 22.7023H9.67107L9.8844 22.6134C9.9457 22.5834 9.99544 22.5341 10.026 22.473C10.0565 22.412 10.0661 22.3426 10.0533 22.2756C10.049 22.2144 10.025 22.1563 9.98499 22.1098C9.94494 22.0633 9.89095 22.0311 9.83107 22.0178C9.72204 21.9821 9.60801 21.9641 9.49329 21.9645H8.56885V22.0445L8.71107 22.0889C8.72595 22.09 8.74044 22.0941 8.75362 22.1011C8.76681 22.108 8.77838 22.1177 8.78759 22.1294C8.7968 22.1412 8.80346 22.1547 8.80712 22.1692C8.81078 22.1836 8.81137 22.1987 8.80885 22.2134V23.3689C8.80885 23.4489 8.80885 23.4845 8.69329 23.5023H8.56885V23.5912H9.62663C9.75305 23.5878 9.87729 23.5575 9.99107 23.5023C10.0812 23.4533 10.1484 23.3709 10.1784 23.2728C10.2083 23.1747 10.1985 23.0688 10.1511 22.9778C10.1562 22.9598 10.1555 22.9407 10.1491 22.9232C10.1427 22.9056 10.131 22.8905 10.1155 22.88ZM9.22663 21.9911C9.35996 21.9911 9.49329 21.9912 9.58218 22.0889C9.61851 22.1411 9.63798 22.2031 9.63798 22.2667C9.63798 22.3303 9.61851 22.3923 9.58218 22.4445C9.50218 22.5956 9.35107 22.6045 9.19996 22.5956L9.22663 21.9911ZM9.70663 23.2267C9.69374 23.2639 9.67352 23.298 9.64716 23.3272C9.6208 23.3564 9.58884 23.38 9.55318 23.3966C9.51753 23.4132 9.4789 23.4224 9.4396 23.4238C9.40029 23.4251 9.36112 23.4186 9.3244 23.4045C9.29288 23.398 9.26508 23.3796 9.24685 23.3531C9.22862 23.3266 9.22137 23.294 9.22663 23.2623V22.72C9.32909 22.6974 9.43527 22.6974 9.53774 22.72C9.58252 22.7374 9.62268 22.7649 9.65506 22.8004C9.68745 22.8358 9.71118 22.8783 9.7244 22.9245C9.74877 23.0307 9.74261 23.1416 9.70663 23.2445V23.2267Z" fill="black"/>
<path d="M25.7776 22.1155C25.6891 22.0249 25.5822 21.9542 25.4642 21.9082C25.3461 21.8622 25.2196 21.842 25.0931 21.8489C24.9467 21.8543 24.8039 21.8959 24.6775 21.9698C24.551 22.0438 24.4448 22.1478 24.3683 22.2728C24.2917 22.3977 24.2472 22.5396 24.2388 22.6858C24.2303 22.8321 24.2582 22.9782 24.3198 23.1111C24.3936 23.271 24.5133 23.4054 24.6637 23.4972C24.814 23.589 24.9882 23.634 25.1642 23.6266H25.2709C25.4296 23.6162 25.5817 23.5592 25.7082 23.4627C25.8347 23.3663 25.9299 23.2347 25.982 23.0844C26.0479 22.9208 26.0636 22.7414 26.0272 22.5689C25.9908 22.3963 25.9039 22.2385 25.7776 22.1155ZM25.4398 23.2622C25.4209 23.3083 25.3924 23.3499 25.3564 23.3843C25.3203 23.4187 25.2774 23.4452 25.2305 23.4619C25.1836 23.4787 25.1336 23.4854 25.0839 23.4816C25.0342 23.4778 24.9859 23.4636 24.942 23.44C24.8569 23.3868 24.7938 23.3047 24.7642 23.2089C24.6967 23.0211 24.6723 22.8206 24.6931 22.6222C24.7001 22.4988 24.721 22.3765 24.7553 22.2577C24.7716 22.1924 24.8048 22.1325 24.8516 22.0841C24.8985 22.0357 24.9572 22.0006 25.022 21.9822C25.1002 21.959 25.184 21.9641 25.2588 21.9966C25.3336 22.0291 25.3945 22.087 25.4309 22.16C25.4868 22.2676 25.5201 22.3856 25.5287 22.5066C25.5287 22.5777 25.5287 22.6489 25.5287 22.7022C25.5524 22.8905 25.5341 23.0817 25.4753 23.2622H25.4398Z" fill="black"/>
<path d="M21.8753 23.4489C21.7643 23.4409 21.6569 23.406 21.5624 23.3471C21.4679 23.2883 21.3892 23.2073 21.3331 23.1111L21.5731 22.72C21.5911 22.6851 21.6177 22.6554 21.6503 22.6336C21.683 22.6118 21.7207 22.5987 21.7598 22.5955H21.8576V22.5155H21.2087V22.5955H21.3331C21.4042 22.5955 21.422 22.6489 21.3953 22.7111C21.3687 22.7733 21.3153 22.9067 21.2709 23.0222L20.8887 22.56C20.9578 22.5052 21.0231 22.4458 21.0842 22.3822C21.119 22.3466 21.145 22.3033 21.1601 22.2558C21.1752 22.2084 21.1791 22.158 21.1713 22.1088C21.1635 22.0596 21.1444 22.0129 21.1154 21.9724C21.0864 21.9319 21.0483 21.8987 21.0042 21.8755C20.9068 21.8279 20.7975 21.8101 20.6899 21.8243C20.5824 21.8386 20.4815 21.8842 20.3998 21.9555C20.366 21.9857 20.3391 22.0227 20.3207 22.0641C20.3023 22.1055 20.2929 22.1503 20.2931 22.1955C20.2894 22.3184 20.3304 22.4385 20.4087 22.5333C20.4273 22.5644 20.4481 22.5941 20.4709 22.6222H20.4087C20.3003 22.6731 20.2058 22.7493 20.1331 22.8444C20.0699 22.9357 20.0447 23.0481 20.0629 23.1576C20.0812 23.2672 20.1414 23.3653 20.2309 23.4311L20.302 23.4755C20.4408 23.5198 20.5899 23.5198 20.7287 23.4755C20.8544 23.4362 20.9697 23.3694 21.0664 23.28L21.1731 23.4044C21.1876 23.414 21.2046 23.4191 21.222 23.4191C21.2394 23.4191 21.2564 23.414 21.2709 23.4044H21.8931V23.3067L21.8753 23.4489ZM20.7553 21.9733C20.7781 21.9667 20.8021 21.965 20.8256 21.9683C20.8491 21.9716 20.8717 21.9798 20.8918 21.9923C20.9119 22.0049 20.9292 22.0216 20.9424 22.0413C20.9557 22.061 20.9646 22.0833 20.9687 22.1067C20.9846 22.1804 20.9779 22.2572 20.9493 22.327C20.9208 22.3968 20.8717 22.4564 20.8087 22.4978C20.7321 22.4064 20.6746 22.3006 20.6398 22.1867C20.6316 22.1651 20.6281 22.1421 20.6296 22.1191C20.6312 22.0961 20.6376 22.0737 20.6486 22.0535C20.6596 22.0332 20.6748 22.0156 20.6932 22.0017C20.7116 21.9879 20.7328 21.9782 20.7553 21.9733ZM20.5064 23.2889C20.4377 23.2136 20.3996 23.1153 20.3996 23.0133C20.3996 22.9114 20.4377 22.8131 20.5064 22.7378L20.9687 23.2978C20.9037 23.3553 20.8199 23.387 20.7331 23.387C20.6463 23.387 20.5626 23.3553 20.4976 23.2978L20.5064 23.2889Z" fill="black"/>
<path d="M8.48854 23.4489C8.44093 23.4421 8.39629 23.4218 8.36001 23.3902C8.32372 23.3587 8.29736 23.3173 8.28409 23.2711C8.1152 22.8622 7.94632 22.4444 7.78632 22.0355C7.78632 21.9822 7.78632 21.9111 7.7152 21.8844C7.64409 21.8577 7.59965 21.8844 7.53743 21.8844C7.4752 21.8844 7.4752 21.8844 7.45743 21.9377C7.27965 22.3733 7.10187 22.8266 6.9152 23.2444C6.89943 23.3055 6.8638 23.3596 6.81392 23.3982C6.76404 23.4368 6.70273 23.4578 6.63965 23.4577V23.5466H7.28854V23.4577H7.11076C7.0999 23.4548 7.08979 23.4496 7.08108 23.4424C7.07238 23.4353 7.06528 23.4264 7.06024 23.4163C7.05521 23.4063 7.05236 23.3953 7.05187 23.384C7.05139 23.3728 7.05328 23.3615 7.05743 23.3511C7.05743 23.2533 7.11965 23.1555 7.1552 23.0577H7.65298C7.66756 23.054 7.68285 23.054 7.69743 23.0577C7.74425 23.1562 7.78579 23.2571 7.82187 23.36C7.82187 23.4222 7.82187 23.44 7.76854 23.4489H7.60854V23.5377H8.49743C8.56854 23.4844 8.55965 23.4489 8.48854 23.4489ZM7.21743 22.8711L7.44854 22.2933L7.67965 22.8711H7.21743Z" fill="black"/>
<path d="M13.7245 22.88C13.6348 22.777 13.5124 22.7079 13.3778 22.6844H13.2711C13.2884 22.6783 13.3072 22.6783 13.3245 22.6844L13.5556 22.5867C13.611 22.5535 13.6551 22.5043 13.6821 22.4456C13.7091 22.3869 13.7177 22.3214 13.7067 22.2578C13.7011 22.197 13.6766 22.1396 13.6368 22.0934C13.597 22.0472 13.5437 22.0145 13.4845 22C13.3724 21.9643 13.2554 21.9463 13.1378 21.9467H12.1778V22.0444H12.2845C12.3911 22.0444 12.4178 22.1067 12.4178 22.2133V23.2889C12.4178 23.3422 12.4178 23.4044 12.3556 23.4222H12.1511C12.0888 23.4195 12.0289 23.3975 11.9795 23.3593C11.9302 23.3211 11.8939 23.2685 11.8756 23.2089C11.7245 22.8089 11.5556 22.4089 11.3956 22.0089C11.3956 21.9556 11.3956 21.8756 11.3156 21.8489C11.2356 21.8222 11.2 21.8489 11.1378 21.8489C11.0756 21.8489 11.0845 21.8489 11.0667 21.8933C11.0489 21.9378 10.96 22.1511 10.9067 22.2844L10.5245 23.1733C10.5063 23.2306 10.471 23.281 10.4233 23.3175C10.3756 23.3541 10.3179 23.3751 10.2578 23.3778V23.4667H10.9245V23.3778H10.7556C10.6934 23.3778 10.6756 23.3333 10.6934 23.2622C10.7111 23.1911 10.7556 23.0756 10.7911 22.9778C10.8057 22.9736 10.8211 22.9736 10.8356 22.9778H11.3245C11.3417 22.9717 11.3606 22.9717 11.3778 22.9778L11.5111 23.2889C11.5111 23.2889 11.5111 23.36 11.4667 23.3689H11.2889V23.4578H13.2445C13.3773 23.46 13.5085 23.4294 13.6267 23.3689C13.6714 23.3447 13.7109 23.3119 13.7428 23.2723C13.7746 23.2328 13.7983 23.1872 13.8124 23.1384C13.8264 23.0896 13.8306 23.0384 13.8247 22.9879C13.8188 22.9375 13.8028 22.8887 13.7778 22.8444C13.7778 22.8444 13.7423 22.8978 13.7245 22.88ZM10.8178 22.88C10.8978 22.6933 10.9689 22.4978 11.0489 22.2933L11.2889 22.88H10.8178ZM12.8356 21.9911C12.9689 21.9911 13.12 21.9911 13.2089 22.1067C13.2393 22.1594 13.2554 22.2191 13.2554 22.28C13.2554 22.3409 13.2393 22.4006 13.2089 22.4533C13.1659 22.5116 13.1068 22.556 13.0389 22.5812C12.9711 22.6065 12.8973 22.6115 12.8267 22.5956L12.8356 21.9911ZM13.2267 23.3422C13.1827 23.3508 13.1374 23.3508 13.0934 23.3422C13.0583 23.3502 13.0218 23.3502 12.9867 23.3422C12.9725 23.3369 12.9596 23.3286 12.9489 23.3178C12.9381 23.3071 12.9298 23.2942 12.9245 23.28C12.9203 23.2625 12.9203 23.2442 12.9245 23.2267V22.6489H12.9956H13.2089C13.2621 22.6615 13.3104 22.6892 13.3483 22.7286C13.3861 22.768 13.4118 22.8175 13.4223 22.8711C13.4415 22.9371 13.4435 23.0069 13.4279 23.0739C13.4123 23.1408 13.3798 23.2026 13.3334 23.2533L13.2267 23.3422Z" fill="black"/>
</g>
<defs>
<linearGradient id="paint0_linear_2707_322983" x1="5.28017" y1="13.84" x2="26.7468" y2="13.84" gradientUnits="userSpaceOnUse">
<stop stop-color="#AE6800"/>
<stop offset="0.33" stop-color="#E8BE53"/>
<stop offset="0.58" stop-color="#AE6800"/>
<stop offset="0.97" stop-color="#DFB046"/>
</linearGradient>
<linearGradient id="paint1_linear_2707_322983" x1="7.24424" y1="13.4044" x2="25.2176" y2="13.4044" gradientUnits="userSpaceOnUse">
<stop stop-color="#AE6800"/>
<stop offset="0.33" stop-color="#E8BE53"/>
<stop offset="0.58" stop-color="#AE6800"/>
<stop offset="0.97" stop-color="#DFB046"/>
</linearGradient>
<linearGradient id="paint2_linear_2707_322983" x1="15.8576" y1="16.4978" x2="16.2309" y2="16.4978" gradientUnits="userSpaceOnUse">
<stop stop-color="#AE6800"/>
<stop offset="0.33" stop-color="#E8BE53"/>
<stop offset="0.58" stop-color="#AE6800"/>
<stop offset="0.97" stop-color="#DFB046"/>
</linearGradient>
<linearGradient id="paint3_linear_2707_322983" x1="15.3868" y1="16.6134" x2="15.6801" y2="16.6134" gradientUnits="userSpaceOnUse">
<stop stop-color="#AE6800"/>
<stop offset="0.33" stop-color="#E8BE53"/>
<stop offset="0.58" stop-color="#AE6800"/>
<stop offset="0.97" stop-color="#DFB046"/>
</linearGradient>
<clipPath id="clip0_2707_322983">
<rect width="32" height="32" fill="white"/>
</clipPath>
</defs>
</svg>
