<svg width="32" height="32" viewBox="0 0 32 32" fill="none" xmlns="http://www.w3.org/2000/svg">
<g clip-path="url(#clip0_2810_57557)">
<mask id="mask0_2810_57557" style="mask-type:luminance" maskUnits="userSpaceOnUse" x="0" y="0" width="32" height="32">
<path d="M31.9909 0.0177765H0.0175781V31.9911H31.9909V0.0177765Z" fill="white"/>
</mask>
<g mask="url(#mask0_2810_57557)">
<path d="M15.9998 31.9822C24.8265 31.9822 31.982 24.8267 31.982 16C31.982 7.17326 24.8265 0.0177765 15.9998 0.0177765C7.17306 0.0177765 0.0175781 7.17326 0.0175781 16C0.0175781 24.8267 7.17306 31.9822 15.9998 31.9822Z" fill="white"/>
<path d="M23.1106 23.1111C24.4488 21.7559 25.3737 20.0479 25.7773 18.1867H27.5551C27.225 19.9576 26.4923 21.629 25.4134 23.0717C24.3345 24.5143 22.9383 25.6896 21.3328 26.5067V5.49333C22.9436 6.31486 24.343 7.49702 25.4223 8.94779C26.5015 10.3986 27.2313 12.0788 27.5551 13.8578H25.7773C25.3783 11.9818 24.4533 10.2583 23.1106 8.88889V15.3244H28.7195C28.694 14.8207 28.6376 14.319 28.5506 13.8222C28.0547 10.8458 26.5189 8.14185 24.2166 6.1914C21.9143 4.24095 18.9947 3.1705 15.9773 3.1705C12.9598 3.1705 10.0402 4.24095 7.73792 6.1914C5.4356 8.14185 3.89986 10.8458 3.40394 13.8222C3.33812 14.2492 3.29657 14.6795 3.2795 15.1111H9.0395V8.76444C7.60895 10.1542 6.62751 11.9406 6.22172 13.8933H4.44394C4.76767 12.1133 5.49746 10.4318 6.5766 8.97958C7.65574 7.52736 9.05517 6.34351 10.6662 5.52V26.48C9.05517 25.6565 7.65574 24.4726 6.5766 23.0204C5.49746 21.5682 4.76767 19.8867 4.44394 18.1067H6.22172C6.63985 20.0646 7.63711 21.8516 9.08394 23.2356V16.6667H3.26172C3.43194 19.7969 4.74893 22.7549 6.96128 24.9759C9.17364 27.1969 12.1264 28.5255 15.256 28.708C18.3855 28.8904 21.4727 27.9141 23.9282 25.9652C26.3837 24.0163 28.0355 21.2315 28.5684 18.1422C28.6417 17.7425 28.6922 17.3388 28.7195 16.9333H23.1106V23.1111ZM18.8973 27.44C18.3366 27.5808 17.7661 27.6789 17.1906 27.7333V19.0133H14.8617V27.6889C14.2617 27.6336 13.6671 27.5295 13.0839 27.3778V17.2711H18.9151L18.8973 27.44ZM18.8973 14.9067H13.0839V4.62222C13.6671 4.47048 14.2617 4.36644 14.8617 4.31111V13.12H17.1995V4.31111C17.7752 4.36409 18.3458 4.46217 18.9062 4.60444L18.8973 14.9067Z" fill="#BDAA89"/>
</g>
</g>
<defs>
<clipPath id="clip0_2810_57557">
<rect width="32" height="32" fill="white"/>
</clipPath>
</defs>
</svg>
