<svg width="32" height="32" viewBox="0 0 32 32" fill="none" xmlns="http://www.w3.org/2000/svg">
<g clip-path="url(#clip0_2707_322848)">
<path d="M15.9998 31.9823C24.8265 31.9823 31.982 24.8268 31.982 16C31.982 7.17331 24.8265 0.0178223 15.9998 0.0178223C7.17306 0.0178223 0.0175781 7.17331 0.0175781 16C0.0175781 24.8268 7.17306 31.9823 15.9998 31.9823Z" fill="white"/>
<path d="M3.09322 12.8001C4.18655 12.6757 4.35544 12.8001 4.36433 13.7779V15.6445L4.52433 15.7245C4.86211 15.4223 5.19989 15.1112 5.55544 14.8357C5.70655 14.7112 5.90211 14.5245 6.071 14.5245C6.19072 14.5251 6.30877 14.5526 6.41646 14.6049C6.52415 14.6572 6.61873 14.733 6.69322 14.8268C6.7361 14.9408 6.75041 15.0636 6.73492 15.1845C6.71943 15.3053 6.67459 15.4206 6.60433 15.5201C6.22691 15.9114 5.82618 16.2794 5.40433 16.6223L6.37322 17.7779C6.50467 17.9394 6.62637 18.1086 6.73766 18.2845C6.82213 18.4041 6.8564 18.552 6.83314 18.6966C6.80988 18.8411 6.73094 18.9708 6.61322 19.0579C6.559 19.1231 6.49107 19.1757 6.41426 19.2117C6.33744 19.2478 6.25363 19.2665 6.16877 19.2665C6.08392 19.2665 6.00011 19.2478 5.92329 19.2117C5.84648 19.1757 5.77855 19.1231 5.72433 19.0579C5.41322 18.7468 5.15544 18.3823 4.83544 18.0445L4.44433 17.5112L4.36433 19.0845C3.42211 19.3334 3.111 19.129 3.111 18.2401C3.08433 16.4445 3.09322 14.649 3.09322 12.8001Z" fill="#128BC7"/>
<path d="M24.5063 19.1556V14.5779C24.6041 14.5779 24.7108 14.4801 24.7908 14.4979C25.4647 14.6096 26.1524 14.6096 26.8263 14.4979C27.0885 14.4745 27.3526 14.5058 27.6021 14.5897C27.8515 14.6737 28.0808 14.8085 28.2754 14.9856C28.4701 15.1627 28.6259 15.3783 28.733 15.6187C28.84 15.8591 28.896 16.1191 28.8975 16.3823C28.9419 17.2712 28.8975 18.1601 28.8975 19.1023C27.9019 19.3868 27.5997 19.1823 27.5908 18.2134C27.5908 17.6712 27.5908 17.1201 27.5908 16.5779C27.6069 16.4573 27.595 16.3347 27.556 16.2195C27.517 16.1044 27.452 15.9997 27.366 15.9137C27.2801 15.8277 27.1754 15.7627 27.0602 15.7238C26.9451 15.6848 26.8224 15.6729 26.7019 15.689H26.6663C26.4384 15.7004 26.2236 15.7991 26.0663 15.9645C25.9091 16.13 25.8216 16.3496 25.8219 16.5779C25.8219 17.1023 25.8219 17.6179 25.8219 18.1423C25.7775 19.129 25.6175 19.2623 24.5063 19.1556Z" fill="#F7B21F"/>
<path d="M21.5196 19.2356C21.2056 19.2617 20.8895 19.2218 20.5918 19.1184C20.2941 19.015 20.0214 18.8504 19.7911 18.6352C19.5609 18.42 19.3782 18.159 19.2549 17.869C19.1316 17.5789 19.0704 17.2663 19.0752 16.9512C19.0462 16.6311 19.0853 16.3085 19.19 16.0046C19.2948 15.7007 19.4626 15.4225 19.6827 15.1882C19.9027 14.9539 20.1699 14.7688 20.4666 14.6453C20.7633 14.5217 21.0828 14.4624 21.4041 14.4712H21.4841C22.1049 14.4712 22.7005 14.7172 23.1403 15.1554C23.5801 15.5935 23.8284 16.1881 23.8308 16.809C23.8517 17.1233 23.8072 17.4385 23.7 17.7347C23.5928 18.031 23.4253 18.3017 23.2081 18.5298C22.9908 18.7579 22.7286 18.9384 22.4379 19.0599C22.1473 19.1814 21.8346 19.2413 21.5196 19.2356ZM22.5152 16.889C22.5311 16.7416 22.5167 16.5924 22.4727 16.4508C22.4287 16.3092 22.3562 16.1781 22.2596 16.0656C22.1629 15.9532 22.0442 15.8617 21.9109 15.7969C21.7775 15.7322 21.6322 15.6954 21.4841 15.689C21.1893 15.6913 20.9071 15.8088 20.6978 16.0164C20.4885 16.224 20.3687 16.5053 20.3641 16.8001C20.348 16.9539 20.3642 17.1094 20.4117 17.2566C20.4591 17.4039 20.5368 17.5395 20.6397 17.655C20.7426 17.7705 20.8685 17.8632 21.0093 17.9272C21.1501 17.9912 21.3028 18.0251 21.4574 18.0268C21.6049 18.0328 21.752 18.0069 21.8885 17.9508C22.025 17.8946 22.1478 17.8095 22.2483 17.7014C22.3488 17.5933 22.4247 17.4647 22.4708 17.3245C22.5169 17.1842 22.532 17.0356 22.5152 16.889Z" fill="#F7B21F"/>
<path d="M11.6262 14.489H11.6796C12.2894 14.4913 12.8737 14.7346 13.3049 15.1659C13.7362 15.5971 13.9795 16.1813 13.9818 16.7912V16.889C13.9906 17.2026 13.9348 17.5146 13.8177 17.8057C13.7007 18.0968 13.5249 18.3606 13.3014 18.5808C13.0779 18.8009 12.8115 18.9727 12.5187 19.0854C12.2259 19.198 11.913 19.2492 11.5996 19.2356C11.2859 19.2433 10.9741 19.1863 10.6834 19.0681C10.3928 18.95 10.1296 18.7732 9.91026 18.5489C9.69093 18.3246 9.52016 18.0575 9.40859 17.7642C9.29703 17.471 9.24706 17.1579 9.2618 16.8445C9.25054 16.5314 9.30406 16.2193 9.41902 15.9279C9.53397 15.6364 9.70789 15.3718 9.92986 15.1507C10.1518 14.9295 10.4171 14.7566 10.709 14.6427C11.0009 14.5289 11.3132 14.4765 11.6262 14.489ZM12.7107 16.889C12.7254 16.7401 12.7092 16.5897 12.663 16.4474C12.6169 16.3051 12.5417 16.1739 12.4424 16.062C12.343 15.9501 12.2216 15.86 12.0857 15.7974C11.9499 15.7347 11.8025 15.7008 11.6529 15.6979C11.3539 15.6952 11.0656 15.8086 10.8484 16.0142C10.6313 16.2197 10.5023 16.5014 10.4885 16.8001V16.889C10.4908 17.1885 10.6101 17.4752 10.8211 17.6879C11.0321 17.9005 11.3179 18.0221 11.6174 18.0268C11.7655 18.0295 11.9126 18.0015 12.0494 17.9447C12.1862 17.8879 12.3098 17.8034 12.4125 17.6966C12.5151 17.5898 12.5946 17.4629 12.6459 17.3239C12.6972 17.185 12.7193 17.0369 12.7107 16.889Z" fill="#128BC7"/>
<path d="M15.92 15.9379L16.6666 16.2045C17.0186 16.2966 17.3657 16.4064 17.7066 16.5334C17.9541 16.6247 18.1657 16.7933 18.3098 17.0143C18.4539 17.2352 18.5229 17.4968 18.5066 17.7601C18.5095 18.0382 18.4254 18.3103 18.266 18.5382C18.1066 18.7661 17.88 18.9385 17.6177 19.0312C17.195 19.2047 16.7367 19.2735 16.2816 19.2317C15.8266 19.1899 15.3884 19.0388 15.0044 18.7912C14.5511 18.5156 14.4444 18.1423 14.6666 17.8134C14.8888 17.4845 15.2444 17.4312 15.6888 17.7068C15.9172 17.8969 16.205 18.001 16.5022 18.001C16.7994 18.001 17.0871 17.8969 17.3155 17.7068L16.48 17.369C16.0805 17.2611 15.6932 17.1122 15.3244 16.9245C15.1461 16.8147 14.9989 16.6611 14.8968 16.4782C14.7947 16.2954 14.741 16.0895 14.741 15.8801C14.741 15.6707 14.7947 15.4648 14.8968 15.2819C14.9989 15.0991 15.1461 14.9455 15.3244 14.8356C15.7285 14.5916 16.1935 14.4671 16.6654 14.4766C17.1374 14.486 17.597 14.629 17.9911 14.889C18.4355 15.2179 18.56 15.5645 18.3555 15.8668C18.1511 16.169 17.8133 16.2134 17.3244 15.9201C17.1192 15.7725 16.872 15.6946 16.6193 15.6978C16.3665 15.701 16.1214 15.7851 15.92 15.9379Z" fill="#128BC7"/>
<path d="M7.99975 14.489C8.09781 14.4913 8.19446 14.5129 8.28417 14.5526C8.37388 14.5922 8.45489 14.6492 8.52258 14.7202C8.59027 14.7912 8.6433 14.8748 8.67866 14.9663C8.71402 15.0578 8.731 15.1554 8.72864 15.2534V19.1023C7.66197 19.2801 7.45753 19.1023 7.44864 18.2134V15.1734C7.44864 14.8979 7.36864 14.5779 7.75975 14.4801L7.99975 14.489Z" fill="#128BC7"/>
<path d="M7.99962 14.4889H7.75962H8.08851V14.3556C7.96443 14.3186 7.84273 14.274 7.72406 14.2222C7.63745 14.1925 7.5577 14.1456 7.48954 14.0844C7.42137 14.0233 7.36617 13.949 7.32721 13.8661C7.28826 13.7832 7.26633 13.6934 7.26273 13.6019C7.25914 13.5103 7.27395 13.419 7.30628 13.3333C7.33343 13.1684 7.41781 13.0183 7.5446 12.9094C7.67139 12.8005 7.83249 12.7398 7.99962 12.7378C8.20555 12.7378 8.40317 12.819 8.54961 12.9637C8.69606 13.1085 8.7795 13.3052 8.78184 13.5111C8.78094 13.62 8.75758 13.7275 8.71322 13.8269C8.66887 13.9263 8.60447 14.0155 8.52406 14.0889C8.37295 14.2222 8.16851 14.3556 7.99962 14.4889Z" fill="#F7B21F"/>
</g>
<defs>
<clipPath id="clip0_2707_322848">
<rect width="32" height="32" fill="white"/>
</clipPath>
</defs>
</svg>
