<svg width="32" height="32" viewBox="0 0 32 32" fill="none" xmlns="http://www.w3.org/2000/svg">
<g clip-path="url(#clip0_2707_322558)">
<path d="M15.9998 31.9823C24.8265 31.9823 31.982 24.8268 31.982 16C31.982 7.17331 24.8265 0.0178223 15.9998 0.0178223C7.17306 0.0178223 0.0175781 7.17331 0.0175781 16C0.0175781 24.8268 7.17306 31.9823 15.9998 31.9823Z" fill="white"/>
<path d="M16.5062 18.8444H16.4617H15.7595H15.7151C15.7103 18.83 15.7103 18.8144 15.7151 18.8L15.8662 18.3377L16.0973 17.6533L16.4706 18.8C16.4754 18.8144 16.4754 18.83 16.4706 18.8444M17.7862 20.1689L16.5773 16.8889C16.5239 16.7644 16.5062 16.7111 16.3195 16.7111H15.9017C15.7151 16.7111 15.6973 16.7644 15.6439 16.8889L14.3995 20.1777C14.3551 20.3022 14.3284 20.3555 14.4706 20.3555H15.0039C15.1906 20.3555 15.1906 20.3555 15.2439 20.2489L15.4484 19.6444C15.4562 19.6322 15.4666 19.6219 15.4789 19.6142C15.4912 19.6065 15.5051 19.6016 15.5195 19.6H16.7462L16.9773 20.24C17.0306 20.3555 17.0306 20.3466 17.2262 20.3466H17.7773C17.9195 20.3466 17.8928 20.2933 17.8484 20.1689M11.5017 20.3466C11.6884 20.3466 11.6973 20.2933 11.6973 20.1689V19.12C11.6973 19.12 11.6973 19.12 11.6973 19.0755C11.7054 19.0708 11.7146 19.0684 11.7239 19.0684C11.7333 19.0684 11.7425 19.0708 11.7506 19.0755L12.7462 20.2311C12.7906 20.2755 12.8173 20.32 12.9062 20.32H13.7951C13.8928 20.32 13.9195 20.2666 13.7951 20.1511L12.3462 18.56C12.338 18.537 12.338 18.5119 12.3462 18.4889C12.3394 18.4687 12.3394 18.4468 12.3462 18.4266L13.7328 16.8089C13.7951 16.7289 13.7328 16.6755 13.6706 16.6755H12.9062C12.8725 16.6728 12.8387 16.6796 12.8088 16.6954C12.7789 16.7111 12.7541 16.7351 12.7373 16.7644L11.7328 17.9111C11.6795 17.9111 11.6795 17.9111 11.6795 17.9111V16.8889C11.6795 16.7644 11.6795 16.7111 11.4839 16.7111H11.0662C10.8795 16.7111 10.8706 16.7644 10.8706 16.8889V20.1777C10.8706 20.3022 10.8706 20.3555 11.0662 20.3555L11.5017 20.3466ZM26.7462 17.4489H27.7328C27.8573 17.4489 27.9106 17.4489 27.9106 17.2711V16.8889C27.9106 16.72 27.8573 16.7111 27.7328 16.7111H26.0084C25.8839 16.7111 25.8306 16.7111 25.8306 16.9066V20.16C25.8306 20.3466 25.8839 20.3555 26.0084 20.3555H27.7062C27.8306 20.3555 27.8839 20.3555 27.8839 20.1689V19.7866C27.8839 19.6177 27.8306 19.6089 27.7062 19.6089H26.7195C26.7069 19.605 26.6955 19.5982 26.6861 19.5889C26.6768 19.5796 26.67 19.5681 26.6662 19.5555V18.9689C26.6662 18.8977 26.7106 18.8889 26.7284 18.8889H27.5106C27.6351 18.8889 27.6884 18.8889 27.6884 18.7022V18.3911C27.6884 18.2133 27.6351 18.2044 27.5106 18.2044H26.7373C26.7373 18.2044 26.6662 18.2044 26.6662 18.1244V17.5822C26.6649 17.571 26.666 17.5596 26.6695 17.5488C26.673 17.5381 26.6786 17.5282 26.6862 17.5198C26.6938 17.5114 26.703 17.5047 26.7133 17.5001C26.7237 17.4956 26.7349 17.4932 26.7462 17.4933M23.9462 18.3822C24.0746 18.304 24.1812 18.1945 24.2558 18.0639C24.3304 17.9333 24.3707 17.7859 24.3728 17.6355V17.5733C24.3737 17.447 24.3477 17.322 24.2966 17.2066C24.2454 17.0911 24.1702 16.9879 24.076 16.9038C23.9818 16.8197 23.8707 16.7567 23.7503 16.7188C23.6298 16.681 23.5026 16.6693 23.3773 16.6844H22.2217C22.0351 16.6844 22.0262 16.7377 22.0262 16.8622V20.1511C22.0262 20.2755 22.0262 20.3289 22.2217 20.3289H23.4306C24.3195 20.3289 24.6573 19.8222 24.6573 19.2533C24.6615 19.0454 24.5926 18.8425 24.4627 18.6801C24.3327 18.5177 24.15 18.406 23.9462 18.3644M22.8351 17.4133H23.1995C23.4306 17.4133 23.5639 17.5289 23.5639 17.7422C23.5639 17.9555 23.4306 18.08 23.1995 18.08H22.8351V17.4133ZM23.3417 19.6266H22.8351V18.8977H23.3417C23.5817 18.8977 23.8306 18.9866 23.8306 19.2622C23.8306 19.5377 23.6084 19.6266 23.3417 19.6266ZM20.7195 19.6266H19.6884C19.664 19.6244 19.6414 19.6131 19.6249 19.595C19.6085 19.5769 19.5994 19.5533 19.5995 19.5289V16.8889C19.5995 16.7644 19.5995 16.7111 19.4039 16.7111H18.9862C18.7995 16.7111 18.7906 16.7644 18.7906 16.8889V20.0355C18.7906 20.2933 18.8617 20.3555 19.1017 20.3555H20.6839C20.8084 20.3555 20.8617 20.3555 20.8617 20.1689V19.7866C20.8617 19.6177 20.8084 19.6089 20.6839 19.6089" fill="#010101"/>
<path d="M7.60865 20.3644C7.52865 20.3111 7.53754 20.1599 7.51087 20.0711C6.94199 18.0711 3.95532 17.4044 4.39087 15.1111C4.42361 14.8359 4.51779 14.5716 4.66643 14.3377C4.66643 14.2666 4.89754 14.1688 4.80865 14.4533C4.71739 14.7341 4.70563 15.0347 4.77466 15.3218C4.84369 15.6089 4.99082 15.8713 5.19976 16.0799C5.6006 16.4741 6.04841 16.8174 6.5331 17.1022C6.98049 17.43 7.3369 17.8666 7.56865 18.3705C7.8004 18.8744 7.89983 19.4291 7.85754 19.9822C7.85754 20.2222 7.78643 20.4799 7.60865 20.3644Z" fill="#87BD40"/>
<path d="M5.55504 11.4756C5.59671 11.637 5.67106 11.7881 5.7735 11.9196C5.87595 12.0511 6.00429 12.1602 6.15059 12.24C6.50634 12.45 6.82972 12.7105 7.11059 13.0134C7.39553 13.2911 7.59158 13.6472 7.67387 14.0365C7.75616 14.4258 7.72099 14.8307 7.57282 15.2C7.49282 15.3689 7.57282 15.5556 7.78615 15.2C8.00027 14.9171 8.15451 14.5934 8.23948 14.2489C8.33424 13.8955 8.31764 13.5215 8.19197 13.1779C8.06629 12.8343 7.83766 12.5378 7.53726 12.3289C7.29277 12.1261 7.00796 11.9777 6.70171 11.8934C6.3509 11.7735 6.02098 11.5996 5.72393 11.3778C5.58171 11.2711 5.47504 11.28 5.51948 11.44" fill="#076535"/>
<path d="M7.55519 11.2622C7.58632 11.3391 7.58632 11.4252 7.55519 11.5022C7.54558 11.5568 7.52156 11.6078 7.48562 11.65C7.44967 11.6922 7.40311 11.724 7.35074 11.7422C7.27473 11.76 7.19564 11.76 7.11963 11.7422C7.07445 11.7319 7.03185 11.7125 6.99449 11.6851C6.95713 11.6577 6.9258 11.6229 6.90246 11.5829C6.87911 11.5429 6.86425 11.4985 6.8588 11.4525C6.85334 11.4065 6.85741 11.3599 6.87074 11.3155C6.89947 11.2258 6.96179 11.1508 7.04464 11.106C7.1275 11.0613 7.22445 11.0503 7.31519 11.0755C7.36605 11.088 7.4137 11.1111 7.45505 11.1433C7.4964 11.1755 7.53052 11.216 7.55519 11.2622Z" fill="#076535"/>
<path d="M5.12852 18.1689C4.75942 18.5548 4.48657 19.0224 4.33212 19.5336C4.17767 20.0449 4.14599 20.5853 4.23963 21.1111C4.23963 21.3333 4.29297 21.5555 4.30186 21.6711C4.31075 21.7866 4.15074 21.8666 4.05297 21.7244C3.7545 21.3032 3.54574 20.8252 3.43963 20.32C3.36165 19.8065 3.40637 19.2819 3.57014 18.789C3.73391 18.2962 4.01207 17.8491 4.38186 17.4844C4.64244 17.2157 4.94211 16.988 5.27074 16.8089C5.53741 16.6489 6.54186 16.3022 6.87074 16.16C7.29672 16.0001 7.68218 15.7481 7.99963 15.4222C8.13297 15.2711 8.23074 15.3066 8.14186 15.5289C7.86712 16.1495 7.41178 16.673 6.83519 17.0311C6.24777 17.3727 5.68358 17.7528 5.1463 18.1689" fill="#076535"/>
<path d="M5.59968 15.36C5.56378 15.4636 5.56378 15.5763 5.59968 15.68C5.61417 15.7505 5.64741 15.8158 5.69591 15.869C5.74441 15.9222 5.80636 15.9613 5.87523 15.9822C5.97121 16.0087 6.07258 16.0087 6.16857 15.9822C6.22595 15.9681 6.27977 15.9422 6.32662 15.9062C6.37348 15.8702 6.41234 15.8249 6.44075 15.773C6.46916 15.7212 6.48651 15.6641 6.49168 15.6052C6.49685 15.5464 6.48973 15.4871 6.47079 15.4311C6.45659 15.3715 6.4302 15.3154 6.3933 15.2665C6.35639 15.2175 6.30976 15.1767 6.25633 15.1467C6.2029 15.1166 6.14383 15.0979 6.08283 15.0918C6.02184 15.0857 5.96024 15.0923 5.9019 15.1111C5.83662 15.1285 5.77585 15.1597 5.72371 15.2027C5.67156 15.2456 5.62926 15.2993 5.59968 15.36Z" fill="#076535"/>
<path d="M5.14646 14.6844C5.87534 13.3333 8.42645 13.3333 8.50645 11.3422C8.53264 11.1863 8.53264 11.0271 8.50645 10.8711C8.50645 10.7822 8.38201 10.7022 8.35534 10.8711C8.24939 11.3034 8.03689 11.7024 7.73724 12.0315C7.43758 12.3607 7.0603 12.6096 6.63979 12.7556C6.24649 12.9022 5.89337 13.1397 5.60916 13.4486C5.32496 13.7575 5.11769 14.1292 5.00423 14.5333C4.94201 14.8533 5.1109 14.7733 5.18201 14.6489" fill="#87BD40"/>
</g>
<defs>
<clipPath id="clip0_2707_322558">
<rect width="32" height="32" fill="white"/>
</clipPath>
</defs>
</svg>
