<svg width="32" height="32" viewBox="0 0 32 32" fill="none" xmlns="http://www.w3.org/2000/svg">
<g clip-path="url(#clip0_2707_322323)">
<path d="M15.9998 31.9823C24.8265 31.9823 31.982 24.8268 31.982 16C31.982 7.17331 24.8265 0.0178223 15.9998 0.0178223C7.17306 0.0178223 0.0175781 7.17331 0.0175781 16C0.0175781 24.8268 7.17306 31.9823 15.9998 31.9823Z" fill="white"/>
<path fill-rule="evenodd" clip-rule="evenodd" d="M19.1022 21.0845H19.44C19.44 21.0845 19.44 20.7112 19.1289 20.7112H18.24C18.1569 20.7355 18.0829 20.7839 18.0275 20.8504C17.9721 20.9169 17.9378 20.9984 17.9289 21.0845C17.9182 21.271 17.9182 21.458 17.9289 21.6445C17.9463 21.7143 17.9862 21.7765 18.0424 21.8214C18.0986 21.8664 18.168 21.8917 18.24 21.8934H19.1289C19.1289 21.8934 19.3955 21.849 19.3955 21.6267V21.3334H18.6666V21.5023H19.0933V21.6712H18.4355C18.4355 21.6712 18.2578 21.6178 18.2578 21.5112V21.1645C18.2578 21.1645 18.2578 20.9601 18.4089 20.9601H18.9955C19.022 20.9707 19.0455 20.9876 19.0641 21.0093C19.0826 21.0309 19.0957 21.0567 19.1022 21.0845Z" fill="#0B753C"/>
<path fill-rule="evenodd" clip-rule="evenodd" d="M9.84863 21.8934V20.7112H10.4264L11.102 21.6001V20.7112H11.4486V21.8934H10.8886L10.222 21.0578V21.8934H9.84863Z" fill="#0B753C"/>
<path d="M15.9998 19.3689C14.862 19.3689 13.7243 19.3689 12.5865 19.3689C12.486 19.3668 12.387 19.3445 12.2953 19.3033C12.2037 19.262 12.1213 19.2027 12.0531 19.1289C11.399 18.3947 10.9586 17.4953 10.7799 16.5283C10.6013 15.5613 10.6912 14.5639 11.0398 13.6444C11.4046 12.6595 12.0468 11.8013 12.8887 11.1733C13.5546 10.6744 14.3296 10.3408 15.1497 10.2C15.9698 10.0592 16.8116 10.1153 17.6058 10.3635C18.4 10.6117 19.1239 11.0451 19.7178 11.6279C20.3118 12.2107 20.7588 12.9262 21.022 13.7155C21.2942 14.4634 21.3955 15.2627 21.3186 16.0548C21.2417 16.8469 20.9885 17.6118 20.5776 18.2933C20.385 18.6107 20.1617 18.9084 19.9109 19.1822C19.7837 19.2869 19.6222 19.3407 19.4576 19.3333L15.9998 19.3689ZM12.622 12L12.8176 12.2311L17.7243 17.3867L19.2354 18.96C19.4131 19.1555 19.5909 19.2178 19.7954 18.96C20.5515 18.087 21.0038 16.9921 21.0843 15.84C21.1003 15.784 21.105 15.7253 21.098 15.6674C21.091 15.6095 21.0724 15.5536 21.0434 15.5031C21.0144 15.4525 20.9755 15.4083 20.9291 15.373C20.8827 15.3378 20.8296 15.3122 20.7732 15.2978C19.3598 14.7467 17.9554 14.16 16.5509 13.5822L14.4887 12.6933L12.622 12ZM15.422 19.1111L12.5687 12.3111H12.5154V19.1111H15.422ZM19.4131 11.7511C18.5072 10.8608 17.2878 10.3619 16.0176 10.3619C14.7474 10.3619 13.528 10.8608 12.622 11.7511H19.4131Z" fill="#0B753C"/>
<path d="M12.6221 12L14.4798 12.7556L16.551 13.6444C17.9554 14.2222 19.3598 14.8 20.7732 15.36C20.886 15.3912 20.9819 15.4657 21.0402 15.5672C21.0984 15.6687 21.1143 15.7891 21.0843 15.9022C20.9976 17.0529 20.5461 18.1459 19.7954 19.0222C19.591 19.2622 19.4132 19.2 19.2265 19.0222L17.7154 17.4489L12.8087 12.2933L12.6221 12Z" fill="#FEFEFE"/>
<path d="M15.4218 19.1111H12.5151V12.3378H12.5685L15.4218 19.1111Z" fill="#FEFEFE"/>
<path d="M19.4132 11.7511H12.6221C13.528 10.8608 14.7474 10.3619 16.0176 10.3619C17.2878 10.3619 18.5072 10.8608 19.4132 11.7511Z" fill="#FEFEFE"/>
<path fill-rule="evenodd" clip-rule="evenodd" d="M4.05322 21.8934V20.7112H4.44433V21.1734H4.53322L5.00433 20.7201H5.45767L4.89767 21.3334L5.49322 21.929H5.05767L4.54211 21.449H4.44433V21.929L4.05322 21.8934Z" fill="#0B753C"/>
<path d="M6.09773 20.7112H5.78662V21.9023H6.09773V20.7112Z" fill="#0B753C"/>
<path fill-rule="evenodd" clip-rule="evenodd" d="M6.41748 21.8934V20.7112H7.56415C7.56415 20.7112 7.80415 20.7112 7.80415 21.0578C7.80415 21.4045 7.63526 21.449 7.63526 21.449C7.70408 21.4998 7.75893 21.5672 7.79468 21.6449C7.83042 21.7226 7.84591 21.8081 7.8397 21.8934H7.47526V21.5912H6.72859V21.8934H6.41748ZM6.74637 20.9601V21.3334H7.40415C7.43845 21.3215 7.46769 21.2983 7.48707 21.2677C7.50646 21.237 7.51483 21.2006 7.51081 21.1645C7.51081 21.0312 7.35081 20.9867 7.35081 20.9867L6.74637 20.9601Z" fill="#0B753C"/>
<path fill-rule="evenodd" clip-rule="evenodd" d="M24.6841 21.8934V20.7112H25.8396C25.8396 20.7112 26.0796 20.7112 26.0796 21.0578C26.0796 21.4045 25.9107 21.449 25.9107 21.449C25.9792 21.4996 26.0333 21.5672 26.0676 21.6452C26.1019 21.7231 26.1152 21.8087 26.1063 21.8934H25.7774V21.5912H25.0396V21.8934H24.6841ZM25.013 20.9601V21.3334H25.6707C25.705 21.3215 25.7343 21.2983 25.7537 21.2677C25.7731 21.237 25.7814 21.2006 25.7774 21.1645C25.7774 21.0312 25.6174 20.9867 25.6174 20.9867L25.013 20.9601Z" fill="#0B753C"/>
<path fill-rule="evenodd" clip-rule="evenodd" d="M8 21.8934L8.60444 20.7112H9.02222L9.68 21.8934H9.30667L9.22667 21.7156H8.45333L8.38222 21.8934H8ZM8.56889 21.4401L8.84444 20.9512L9.08444 21.449L8.56889 21.4401Z" fill="#0B753C"/>
<path fill-rule="evenodd" clip-rule="evenodd" d="M11.6353 21.8934L12.2486 20.7112H12.6575L13.333 21.8934H12.9508L12.8797 21.7156H12.1064L12.0264 21.8934H11.6353ZM12.213 21.4401L12.4797 20.9512L12.7286 21.449L12.213 21.4401Z" fill="#0B753C"/>
<path fill-rule="evenodd" clip-rule="evenodd" d="M19.5552 21.8934L20.1596 20.7112H20.5774L21.2352 21.8934H20.8885L20.8085 21.7156H20.0352L19.9641 21.8934H19.5552ZM20.1241 21.4401L20.3996 20.9512L20.6396 21.449L20.1241 21.4401Z" fill="#0B753C"/>
<path fill-rule="evenodd" clip-rule="evenodd" d="M22.791 21.8934L23.3955 20.7112H23.8132L24.471 21.8934H24.0888L24.0177 21.7156H23.2443L23.1732 21.8934H22.791ZM23.3599 21.4401L23.6266 20.9512L23.8755 21.449L23.3599 21.4401Z" fill="#0B753C"/>
<path fill-rule="evenodd" clip-rule="evenodd" d="M26.2666 21.8934L26.871 20.7112H27.2888L27.9466 21.8934H27.5555L27.4844 21.7156H26.711L26.6399 21.8934H26.2666ZM26.8355 21.4401L27.1022 20.9512L27.351 21.449L26.8355 21.4401Z" fill="#0B753C"/>
<path fill-rule="evenodd" clip-rule="evenodd" d="M21.333 20.7112V20.969H21.8219V21.8578H22.1419V20.969H22.6486V20.7112H21.333Z" fill="#0B753C"/>
<path fill-rule="evenodd" clip-rule="evenodd" d="M14.2754 21.8934V20.7112H14.7732L15.2087 21.5201L15.6443 20.7112H16.1421V21.8934H15.8665V21.049L15.3598 21.8934H15.1109L14.6398 21.0045V21.8934H14.2754Z" fill="#0B753C"/>
<path fill-rule="evenodd" clip-rule="evenodd" d="M17.6444 20.9334V20.7112H16.4355V21.8934H17.6444V21.6712H16.7555V21.4223H17.6444V21.1823H16.7555V20.9156L17.6444 20.9334Z" fill="#0B753C"/>
</g>
<defs>
<clipPath id="clip0_2707_322323">
<rect width="32" height="32" fill="white"/>
</clipPath>
</defs>
</svg>
