<svg width="32" height="32" viewBox="0 0 32 32" fill="none" xmlns="http://www.w3.org/2000/svg">
<g clip-path="url(#clip0_2707_320558)">
<path d="M16 32C24.8366 32 32 24.8366 32 16C32 7.16344 24.8366 0 16 0C7.16344 0 0 7.16344 0 16C0 24.8366 7.16344 32 16 32Z" fill="#2F0B7F"/>
<path d="M15.9998 29.3333C23.3636 29.3333 29.3332 23.3638 29.3332 16C29.3332 8.63619 23.3636 2.66666 15.9998 2.66666C8.63604 2.66666 2.6665 8.63619 2.6665 16C2.6665 23.3638 8.63604 29.3333 15.9998 29.3333Z" fill="#2F0B7F"/>
<path d="M15.1109 13.6178C14.9339 13.4033 14.7955 13.1596 14.702 12.8978C14.5408 12.3663 14.5787 11.7944 14.8086 11.2889C15.139 10.5775 15.6665 9.97596 16.3287 9.55555C17.0199 9.10335 17.798 8.80059 18.6131 8.66666C19.9607 8.40375 21.3548 8.5207 22.6398 9.00444C23.3478 9.26138 23.9889 9.67458 24.5153 10.2133C24.6399 10.3361 24.7529 10.47 24.8531 10.6133C24.6511 10.569 24.4418 10.569 24.2398 10.6133C24.0736 10.6499 23.9184 10.7253 23.7871 10.8335C23.6558 10.9417 23.5519 11.0795 23.4842 11.2355C23.3242 11.5289 23.182 11.8311 23.0309 12.1244C22.9104 12.3629 22.7439 12.5753 22.541 12.7492C22.3381 12.9231 22.1028 13.0551 21.8486 13.1378C21.5863 13.2231 21.3073 13.2442 21.035 13.1993C20.7628 13.1545 20.5053 13.045 20.2842 12.88C19.9286 12.6489 19.6087 12.3733 19.2709 12.1244C18.7432 11.7358 18.1361 11.4687 17.4931 11.3422C16.942 11.213 16.3626 11.2922 15.8664 11.5644C15.489 11.7814 15.2044 12.1293 15.0664 12.5422C15.0581 12.5743 15.0581 12.6079 15.0664 12.64C15.1541 12.4995 15.2521 12.3658 15.3598 12.24C15.6873 11.8881 16.1275 11.6618 16.6042 11.6C17.2849 11.5207 17.9731 11.6609 18.5686 12C19.4905 12.5194 20.2458 13.29 20.7464 14.2222C21.255 15.0991 21.5815 16.0696 21.7064 17.0755C21.8316 17.9382 21.7679 18.8177 21.5198 19.6533C21.3967 20.086 21.2013 20.4947 20.942 20.8622C20.9279 20.8885 20.9099 20.9125 20.8886 20.9333C20.8801 20.7541 20.8347 20.5786 20.7553 20.4178C20.6866 20.2683 20.5842 20.1368 20.4562 20.0335C20.3283 19.9302 20.1781 19.8579 20.0175 19.8222C19.7331 19.7511 19.4398 19.7244 19.1287 19.68C18.7438 19.6383 18.3732 19.5107 18.0442 19.3067C17.7061 19.0908 17.451 18.7669 17.3203 18.3877C17.1896 18.0084 17.191 17.5961 17.3242 17.2178C17.4486 16.8267 17.5998 16.4444 17.7242 16.0444C17.9586 15.3586 18.0137 14.6242 17.8842 13.9111C17.8094 13.4846 17.6222 13.0857 17.342 12.7555C17.1796 12.5731 16.9813 12.426 16.7596 12.3235C16.5378 12.221 16.2973 12.1654 16.0531 12.16H15.9998H15.9375L16.2842 12.2578C16.5698 12.3651 16.8285 12.5338 17.042 12.7519C17.2554 12.9699 17.4185 13.2321 17.5198 13.52C17.6863 13.9867 17.7441 14.4853 17.6886 14.9778C17.5901 15.8893 17.2494 16.7579 16.702 17.4933C16.1313 18.2931 15.4058 18.9702 14.5686 19.4844C14.1893 19.7245 13.7874 19.9269 13.3687 20.0889H13.2709V20.0444C12.77 19.4747 12.3566 18.8336 12.0442 18.1422C11.7905 17.5728 11.6027 16.9764 11.4842 16.3644C11.4691 16.2385 11.4454 16.1138 11.4131 15.9911C11.5684 15.8822 11.7489 15.8149 11.9375 15.7955C12.2741 15.7556 12.6143 15.7556 12.9509 15.7955C13.3237 15.8222 13.698 15.8222 14.0709 15.7955C14.7747 15.7279 15.4442 15.4595 15.9998 15.0222C16.383 14.7316 16.6405 14.3055 16.7198 13.8311C16.7784 13.5163 16.7412 13.1912 16.6131 12.8978C16.6264 13.0575 16.6264 13.218 16.6131 13.3778C16.5847 13.6529 16.5016 13.9197 16.3688 14.1624C16.236 14.405 16.0562 14.6188 15.8398 14.7911C15.3996 15.1432 14.8761 15.3758 14.3198 15.4667C13.6331 15.5972 12.9262 15.576 12.2487 15.4044C11.0577 15.1176 9.95751 14.537 9.04865 13.7155C8.37175 13.1293 7.8239 12.4089 7.43976 11.6C7.16876 11.0441 7.0116 10.4397 6.97754 9.82222V9.70666C7.10806 9.86273 7.27214 9.98731 7.45754 10.0711C7.60565 10.1434 7.76829 10.1809 7.93309 10.1809C8.0979 10.1809 8.26054 10.1434 8.40865 10.0711C8.69309 9.94666 8.95976 9.78666 9.24421 9.65333C9.54485 9.4881 9.87931 9.39384 10.222 9.37777C10.601 9.35262 10.9781 9.44953 11.298 9.65428C11.6179 9.85903 11.8639 10.1609 11.9998 10.5155C12.1331 10.8622 12.2309 11.2267 12.3464 11.5822C12.534 12.2482 12.8715 12.8624 13.3331 13.3778C13.6806 13.7941 14.1553 14.0846 14.6842 14.2044C14.9321 14.2577 15.1888 14.2542 15.4351 14.1942C15.6814 14.1341 15.9109 14.0191 16.1064 13.8578C16.1064 13.8578 16.1064 13.8578 16.062 13.8578C15.8764 13.9339 15.6825 13.9876 15.4842 14.0178C14.9949 14.0739 14.5014 13.9576 14.0887 13.6889C13.5962 13.3716 13.1998 12.926 12.942 12.4C12.6821 11.9062 12.5106 11.3707 12.4353 10.8178L12.6486 10.4978C13.1179 9.81987 13.6908 9.21996 14.3464 8.71999C14.7316 8.41926 15.1454 8.15726 15.582 7.93777C16.0883 7.68715 16.6183 7.48765 17.1642 7.34222C17.3272 7.28545 17.4983 7.25544 17.6709 7.25333C17.6851 7.54948 17.6251 7.84449 17.4963 8.11152C17.3674 8.37855 17.1738 8.60911 16.9331 8.78222C16.6131 9.02222 16.2753 9.22666 15.9642 9.46666C15.3153 9.91139 14.8016 10.5266 14.4798 11.2444C14.2479 11.7134 14.1973 12.2515 14.3375 12.7555C14.4821 13.1318 14.7564 13.4439 15.1109 13.6355C15.1109 13.6355 15.1109 13.6355 15.1553 13.6355C15.1998 13.6355 15.1109 13.6355 15.1109 13.6178Z" fill="white"/>
<path d="M17.7777 7.20888C17.6055 7.21532 17.4351 7.24522 17.271 7.29776C16.7251 7.4432 16.1951 7.6427 15.6888 7.89332C15.2522 8.1128 14.8384 8.37481 14.4532 8.67554C13.7976 9.1755 13.2247 9.77542 12.7554 10.4533L12.5421 10.7733C12.4804 10.445 12.4476 10.1118 12.4443 9.77776C12.4487 9.1768 12.5324 8.57904 12.6932 7.99999C12.9784 6.87958 13.5269 5.84345 14.2932 4.97776C14.7717 4.45807 15.3528 4.04339 15.9999 3.75999L16.3021 3.65332C16.2493 3.74838 16.2018 3.84631 16.1599 3.94665C16.0875 4.13759 16.069 4.3448 16.1067 4.54552C16.1443 4.74624 16.2365 4.9327 16.3732 5.08443C16.5243 5.25332 16.6843 5.41332 16.8443 5.56443C17.1634 5.84643 17.4207 6.19145 17.5999 6.57776C17.6951 6.77632 17.7552 6.98983 17.7777 7.20888Z" fill="#7881AD"/>
<path d="M11.3776 16.0533C11.4099 16.176 11.4336 16.3007 11.4487 16.4267C11.5672 17.0386 11.7551 17.6351 12.0087 18.2044C12.3231 18.8974 12.7363 19.5411 13.2354 20.1156C12.8741 20.2584 12.4986 20.3627 12.1154 20.4267C11.6997 20.5063 11.2756 20.5332 10.8532 20.5067C10.5083 20.4862 10.1676 20.4205 9.83984 20.3111C10.0163 20.2404 10.1766 20.1345 10.311 20C10.4263 19.8848 10.5142 19.745 10.568 19.5911C10.6219 19.4372 10.6404 19.2731 10.6221 19.1111C10.6221 18.7911 10.5243 18.4889 10.4798 18.1778C10.4207 17.9049 10.4162 17.6231 10.4666 17.3485C10.5169 17.0738 10.6211 16.8119 10.7732 16.5778C10.9098 16.3819 11.0816 16.2131 11.2798 16.08C11.293 16.0684 11.3087 16.06 11.3257 16.0554C11.3426 16.0508 11.3604 16.0501 11.3776 16.0533Z" fill="#7881AD"/>
<path d="M7.86688 22.6045V24.8356C7.85276 24.9685 7.85276 25.1026 7.86688 25.2356C7.87845 25.2995 7.90449 25.36 7.943 25.4124C7.98151 25.4648 8.03149 25.5077 8.08911 25.5378H7.11133C7.16895 25.5077 7.21892 25.4648 7.25744 25.4124C7.29595 25.36 7.32198 25.2995 7.33355 25.2356C7.34767 25.1026 7.34767 24.9685 7.33355 24.8356V22.6045C7.34809 22.4715 7.34809 22.3374 7.33355 22.2045C7.32326 22.1389 7.29781 22.0766 7.25924 22.0226C7.22066 21.9686 7.17001 21.9243 7.11133 21.8933H8.11577C8.05709 21.9243 8.00644 21.9686 7.96786 22.0226C7.92929 22.0766 7.90384 22.1389 7.89355 22.2045C7.87012 22.3364 7.86118 22.4705 7.86688 22.6045ZM8.00022 23.6445L8.76466 22.6222C8.89559 22.4846 8.99028 22.3166 9.04022 22.1333C9.04022 22.0356 8.98688 21.9645 8.87133 21.8933H9.86688L8.56022 23.5289C9.15281 24.3407 9.52614 24.8296 9.68022 24.9956C9.87784 25.2011 10.0986 25.383 10.338 25.5378C10.1633 25.5466 9.98825 25.5466 9.81355 25.5378C9.62649 25.549 9.44216 25.4886 9.29799 25.3689C9.02622 25.0974 8.78206 24.7997 8.56911 24.48L8.09799 23.8222L8.00022 23.6445Z" fill="white"/>
<path d="M10.8711 22.7111V24.8889C10.8565 25.004 10.8565 25.1205 10.8711 25.2355C10.8796 25.2925 10.9019 25.3465 10.936 25.393C10.97 25.4395 11.0149 25.4769 11.0666 25.5022H10.1777C10.2295 25.4769 10.2743 25.4395 10.3084 25.393C10.3425 25.3465 10.3647 25.2925 10.3733 25.2355C10.3862 25.1204 10.3862 25.0041 10.3733 24.8889V22.9955C10.3862 22.8804 10.3862 22.7641 10.3733 22.6489C10.3634 22.5913 10.3406 22.5366 10.3068 22.4889C10.273 22.4412 10.2289 22.4017 10.1777 22.3733H11.3066C11.5573 22.3602 11.8058 22.4255 12.0177 22.56C12.115 22.6298 12.194 22.722 12.2481 22.8287C12.3023 22.9354 12.3299 23.0536 12.3288 23.1733C12.3275 23.3638 12.2508 23.546 12.1155 23.68C11.9656 23.841 11.7703 23.9526 11.5555 24C11.9111 24.48 12.2074 24.8355 12.4444 25.0667C12.6203 25.2601 12.8277 25.4224 13.0577 25.5467H12.6311C12.5072 25.5561 12.3834 25.5282 12.2755 25.4667C12.1319 25.3635 12.0032 25.2408 11.8933 25.1022C11.5609 24.7208 11.2634 24.3102 11.0044 23.8755C11.5377 23.7867 11.8044 23.5555 11.8044 23.1911C11.8063 23.1184 11.7931 23.0461 11.7655 22.9787C11.738 22.9114 11.6967 22.8505 11.6444 22.8C11.5258 22.6995 11.373 22.6485 11.2177 22.6578C11.1005 22.6615 10.9841 22.6794 10.8711 22.7111Z" fill="white"/>
<path d="M13.7598 24V25.1467C13.9552 25.1599 14.1512 25.1599 14.3465 25.1467C14.68 25.1629 15.01 25.0726 15.2887 24.8889L15.0665 25.5111H13.0576C13.1094 25.4858 13.1542 25.4483 13.1883 25.4019C13.2223 25.3554 13.2446 25.3014 13.2532 25.2444C13.2665 25.1293 13.2665 25.0129 13.2532 24.8978V22.9955C13.2665 22.8804 13.2665 22.764 13.2532 22.6489C13.2432 22.5912 13.2205 22.5366 13.1867 22.4889C13.1528 22.4412 13.1087 22.4017 13.0576 22.3733H14.9421C15.0007 22.3855 15.0612 22.3855 15.1198 22.3733V22.9333C15.0433 22.8616 14.9524 22.8071 14.8532 22.7733C14.6518 22.7628 14.4501 22.7628 14.2487 22.7733C14.086 22.7598 13.9225 22.7598 13.7598 22.7733V23.6622H14.6487C14.7046 23.6715 14.7617 23.6715 14.8176 23.6622V24.1689C14.6389 24.0577 14.4325 23.9992 14.2221 24H13.7598Z" fill="white"/>
<path d="M17.6711 22.4V22.9511C17.5698 22.8492 17.4493 22.7684 17.3165 22.7135C17.1838 22.6586 17.0414 22.6306 16.8978 22.6311C16.7375 22.6251 16.5792 22.6686 16.4444 22.7556C16.3903 22.7918 16.3457 22.8406 16.3148 22.898C16.2838 22.9553 16.2673 23.0193 16.2667 23.0844C16.2666 23.1409 16.2794 23.1966 16.3041 23.2475C16.3287 23.2983 16.3645 23.3428 16.4089 23.3778C16.5851 23.5068 16.7761 23.6142 16.9778 23.6978C17.2254 23.8079 17.4633 23.9387 17.6889 24.0889C17.7693 24.1505 17.8345 24.2299 17.8792 24.3209C17.9239 24.4119 17.947 24.512 17.9467 24.6133C17.944 24.7365 17.9158 24.8578 17.8637 24.9695C17.8117 25.0813 17.737 25.1809 17.6444 25.2622C17.51 25.3872 17.3518 25.4839 17.1792 25.5465C17.0067 25.6091 16.8233 25.6364 16.64 25.6267C16.3519 25.6256 16.0662 25.5744 15.7955 25.4756L15.6533 24.8889C15.9488 25.1328 16.3191 25.2677 16.7022 25.2711C16.8841 25.274 17.0631 25.2246 17.2178 25.1289C17.2784 25.091 17.3288 25.0387 17.3645 24.9767C17.4001 24.9147 17.4199 24.8448 17.4222 24.7733C17.4223 24.7087 17.408 24.6448 17.3803 24.5864C17.3526 24.528 17.3123 24.4765 17.2622 24.4356C17.0685 24.2995 16.8597 24.1861 16.64 24.0978C16.4053 23.999 16.1842 23.8706 15.9822 23.7156C15.8976 23.6403 15.8312 23.5467 15.7881 23.442C15.745 23.3373 15.7263 23.2241 15.7333 23.1111C15.7312 22.9881 15.7602 22.8665 15.8177 22.7577C15.8752 22.6489 15.9593 22.5564 16.0622 22.4889C16.3266 22.3198 16.6378 22.2389 16.9511 22.2578C17.1966 22.2708 17.439 22.3187 17.6711 22.4Z" fill="white"/>
<path d="M19.0399 23.0578V24.9778C19.0333 25.0987 19.0514 25.2197 19.0932 25.3333C19.1392 25.4176 19.2067 25.4881 19.2888 25.5378H18.3999C18.5076 25.4985 18.6007 25.4272 18.6666 25.3333C18.7054 25.219 18.7205 25.0981 18.711 24.9778V22.9422C18.7148 22.8221 18.6998 22.7021 18.6666 22.5867C18.6203 22.4974 18.5493 22.4234 18.4621 22.3733H19.1643C19.1976 22.4358 19.2363 22.4953 19.2799 22.5511L21.0577 24.8178V22.9422C21.0643 22.8213 21.0462 22.7003 21.0043 22.5867C20.9562 22.4988 20.8856 22.4252 20.7999 22.3733H21.6888C21.6051 22.4278 21.5352 22.5008 21.4843 22.5867C21.4455 22.7009 21.4304 22.8219 21.4399 22.9422V25.6978C21.1729 25.5977 20.9411 25.4215 20.7732 25.1911L19.0399 23.0578Z" fill="white"/>
<path d="M23.831 24.3467H22.6132L22.3377 25.0844C22.3106 25.1621 22.2927 25.2426 22.2844 25.3244C22.2844 25.4044 22.3466 25.4755 22.4621 25.5378H21.5732C21.6655 25.4818 21.7469 25.4095 21.8132 25.3244C21.8577 25.2444 21.9288 25.1022 22.0177 24.8978L22.8621 22.7822C22.8883 22.7134 22.9062 22.6418 22.9155 22.5689C22.9132 22.526 22.8985 22.4848 22.8733 22.4501C22.848 22.4154 22.8133 22.3887 22.7732 22.3733H23.5377L24.5599 24.8889C24.6118 25.0355 24.6804 25.1757 24.7644 25.3067C24.8329 25.3988 24.9209 25.4746 25.0221 25.5289H23.9999C24.1066 25.4578 24.1688 25.3955 24.1688 25.3422C24.1531 25.2504 24.1262 25.1609 24.0888 25.0755L23.831 24.3467ZM23.7066 24L23.2177 22.7467L22.7288 24H23.7066Z" fill="white"/>
</g>
<defs>
<clipPath id="clip0_2707_320558">
<rect width="32" height="32" fill="white"/>
</clipPath>
</defs>
</svg>
