<svg width="32" height="32" viewBox="0 0 32 32" fill="none" xmlns="http://www.w3.org/2000/svg">
<g clip-path="url(#clip0_2980_149730)">
<mask id="mask0_2980_149730" style="mask-type:luminance" maskUnits="userSpaceOnUse" x="0" y="0" width="32" height="32">
<path d="M31.9841 0.0263062H0.0136719V31.9967H31.9841V0.0263062Z" fill="white"/>
</mask>
<g mask="url(#mask0_2980_149730)">
<path d="M15.9989 31.9967C24.8273 31.9967 31.9841 24.8399 31.9841 16.0115C31.9841 7.18312 24.8273 0.0263062 15.9989 0.0263062C7.17049 0.0263062 0.0136719 7.18312 0.0136719 16.0115C0.0136719 24.8399 7.17049 31.9967 15.9989 31.9967Z" fill="white"/>
<path d="M21.8632 15.8567L20.101 17.7253L21.8519 19.4759L23.7091 17.7026L21.8632 15.8567ZM19.8466 14.0524L18.0753 15.7986L19.7349 17.443L21.5919 15.5858C21.5925 15.3119 20.9309 14.9122 20.7319 14.737C20.5139 14.5451 20.1227 13.9712 19.8466 14.0524ZM17.6119 8.41251L10.2046 15.9163L15.8928 21.6041L17.8564 19.6407L14.2486 15.8102L19.6693 10.2652L17.8626 8.45274C17.7858 8.39401 17.7033 8.38569 17.6119 8.41251ZM17.2216 7.65816C17.0627 7.61793 17.0474 7.694 16.9558 7.76339C16.5769 8.05018 16.0319 8.67141 15.6773 9.03874L9.14051 15.8099L15.9041 22.87L19.1334 19.6407L15.3171 15.8884V15.7087L19.882 11.2176H20.0974L25.31 16.1707L25.1534 15.7426L19.9365 10.6315L14.674 15.8099L18.3885 19.6407L15.8928 22.1362L9.87579 16.1226L9.76801 15.905L17.4252 8.04816L17.2216 7.65816ZM16.0521 6.48771L6.57562 15.905L15.9992 25.3286L21.5809 19.8309L17.6426 15.7986L20.0315 13.5156L23.981 17.341L24.1284 17.0869L20.0974 13.0267H19.882L17.2169 15.7986L20.9424 19.7245L15.8927 24.6901L7.33148 15.8099C7.55368 15.5349 7.83736 15.3167 8.07095 15.0532C10.3301 12.5049 12.9955 10.1872 15.2569 7.66061C15.4418 7.45396 15.7365 7.1244 15.8956 6.91591C16.008 6.76855 16.1005 6.71532 16.0521 6.48771ZM6.04965 15.9582V25.8014L6.20926 25.961H25.7891L25.9488 25.8014V6.22147L25.7891 6.06186H16.1588L25.8374 15.9163L25.7944 16.0659L15.9992 25.8606L6.04965 15.9582ZM15.7332 6.06186H6.04965V15.7454L15.7332 6.06186ZM26.4808 26.4931H5.51758V5.52979H26.4808V26.4931Z" fill="#662C19"/>
<path d="M19.9524 14.478C20.0488 14.4403 20.1185 14.474 20.2031 14.5183C20.3259 14.5825 21.1761 15.4778 21.1547 15.5744L19.723 16.922L18.5996 15.7986L19.9524 14.478Z" fill="#662C19"/>
</g>
</g>
<defs>
<clipPath id="clip0_2980_149730">
<rect width="32" height="32" fill="white"/>
</clipPath>
</defs>
</svg>
