<svg width="32" height="32" viewBox="0 0 32 32" fill="none" xmlns="http://www.w3.org/2000/svg">
<g clip-path="url(#clip0_2707_320368)">
<path d="M16 32C24.8366 32 32 24.8366 32 16C32 7.16344 24.8366 0 16 0C7.16344 0 0 7.16344 0 16C0 24.8366 7.16344 32 16 32Z" fill="white"/>
<path d="M15.9998 29.3333C23.3636 29.3333 29.3332 23.3638 29.3332 16C29.3332 8.63621 23.3636 2.66667 15.9998 2.66667C8.63604 2.66667 2.6665 8.63621 2.6665 16C2.6665 23.3638 8.63604 29.3333 15.9998 29.3333Z" fill="white"/>
<path d="M9.43111 13.7422V17.6267H11.5556V19.0222H7.60889V13.7422H9.43111Z" fill="#DA0015"/>
<path d="M15.2177 13.7422C15.7234 13.7026 16.2285 13.8273 16.6577 14.0978C16.8067 14.2084 16.9265 14.3536 17.0071 14.5208C17.0876 14.688 17.1263 14.8723 17.1199 15.0578C17.1216 15.1936 17.1006 15.3288 17.0577 15.4578C17.0158 15.5877 16.9494 15.7084 16.8621 15.8133C16.7706 15.9284 16.6554 16.0224 16.5243 16.0889C16.3698 16.171 16.2007 16.2223 16.0266 16.24C16.2286 16.2484 16.4274 16.2936 16.6132 16.3733C16.762 16.4442 16.8974 16.5405 17.0132 16.6578C17.1147 16.7653 17.1933 16.8923 17.2443 17.0311C17.2944 17.1646 17.3185 17.3064 17.3154 17.4489C17.3218 17.6622 17.2824 17.8743 17.1999 18.0711C17.1211 18.2644 16.996 18.4354 16.8354 18.5689C16.6456 18.7224 16.4239 18.8317 16.1866 18.8889C15.8707 18.9731 15.5445 19.012 15.2177 19.0044H12.4443V13.7422H15.2177ZM14.8443 17.7778C15.0155 17.7811 15.1844 17.7381 15.3332 17.6533C15.4028 17.6112 15.4595 17.5508 15.4971 17.4787C15.5347 17.4066 15.5518 17.3256 15.5466 17.2444C15.5509 17.1671 15.5331 17.0901 15.4953 17.0224C15.4576 16.9547 15.4014 16.8992 15.3332 16.8622C15.1867 16.7713 15.0168 16.725 14.8443 16.7289H14.2843V17.7778H14.8443ZM14.8443 15.8933C15.0163 15.8935 15.1851 15.8474 15.3332 15.76C15.4021 15.7193 15.4584 15.6605 15.496 15.5899C15.5337 15.5194 15.5511 15.4398 15.5466 15.36C15.5515 15.2813 15.5341 15.2028 15.4964 15.1336C15.4586 15.0644 15.4021 15.0073 15.3332 14.9689C15.1851 14.8815 15.0163 14.8354 14.8443 14.8356H14.2843V15.9111L14.8443 15.8933Z" fill="#DA0015"/>
<path d="M20.6399 13.7422L21.3333 16.8889L22.0621 13.76H24.2577V19.0222H22.7555V15.1111L22.0533 19.0489H20.7288L19.8933 15.1111V19.0222H18.311V13.7422H20.6399Z" fill="#DA0015"/>
<path d="M29.1909 15.52H27.2798V15.3956C27.1582 14.1587 26.5798 13.0115 25.6577 12.1782C24.7356 11.3448 23.536 10.8851 22.2931 10.8889H9.77757C8.53375 10.8849 7.33302 11.3443 6.40947 12.1775C5.48591 13.0107 4.90573 14.1579 4.78202 15.3956V15.52H2.84424V15.3689C2.98702 13.6279 3.77926 12.0042 5.06366 10.8203C6.34807 9.63632 8.03073 8.97863 9.77757 8.97778H22.2753C24.0181 8.98567 25.6942 9.64788 26.9718 10.8332C28.2493 12.0186 29.035 13.6405 29.1731 15.3778L29.1909 15.52ZM27.5553 15.2444H28.8887C28.7198 13.6058 27.951 12.0875 26.7302 10.9815C25.5093 9.87553 23.9226 9.26001 22.2753 9.25334H9.77757C8.1293 9.25979 6.54153 9.87501 5.31924 10.9808C4.09694 12.0866 3.3263 13.6051 3.15535 15.2444H4.50646C4.66353 13.9601 5.28749 12.7784 6.25951 11.9244C7.23154 11.0704 8.48372 10.6038 9.77757 10.6133H22.2753C23.5707 10.6016 24.8251 11.0672 25.799 11.9215C26.7729 12.7757 27.3981 13.9586 27.5553 15.2444Z" fill="#DA0015"/>
<path d="M22.2757 22.9956H9.77796C8.01242 23.0166 6.30688 22.3554 5.01685 21.1499C3.72682 19.9443 2.95186 18.2874 2.85352 16.5244V16.3822H4.74685V16.5067C4.8292 17.7728 5.39966 18.9575 6.33811 19.8114C7.27655 20.6653 8.50973 21.1217 9.77796 21.0844H22.2757C23.5394 21.1146 24.7659 20.6551 25.6985 19.8019C26.6312 18.9488 27.198 17.768 27.2802 16.5067V16.3822H29.1913V16.5244C29.0952 18.2866 28.3221 19.9435 27.0335 21.1493C25.7449 22.3551 24.0404 23.0165 22.2757 22.9956ZM3.12018 16.6578C3.25109 18.3254 4.0124 19.8804 5.24922 21.0066C6.48603 22.1328 8.10544 22.7455 9.77796 22.72H22.2757C23.9449 22.7429 25.56 22.1286 26.792 21.0023C28.024 19.8759 28.7803 18.3223 28.9069 16.6578H27.5557C27.4302 17.9604 26.8157 19.1671 25.8359 20.0347C24.8562 20.9023 23.584 21.3663 22.2757 21.3333H9.77796C8.46644 21.3657 7.19178 20.8976 6.21279 20.0243C5.2338 19.151 4.62387 17.9378 4.50685 16.6311L3.12018 16.6578Z" fill="#DA0015"/>
</g>
<defs>
<clipPath id="clip0_2707_320368">
<rect width="32" height="32" fill="white"/>
</clipPath>
</defs>
</svg>
