<svg width="32" height="32" viewBox="0 0 32 32" fill="none" xmlns="http://www.w3.org/2000/svg">
<g clip-path="url(#clip0_2980_149780)">
<mask id="mask0_2980_149780" style="mask-type:luminance" maskUnits="userSpaceOnUse" x="0" y="0" width="32" height="32">
<path d="M31.9802 0.00738525H0.00976562V31.9778H31.9802V0.00738525Z" fill="white"/>
</mask>
<g mask="url(#mask0_2980_149780)">
<path d="M15.995 31.9778C24.8233 31.9778 31.9802 24.821 31.9802 15.9926C31.9802 7.1642 24.8233 0.00738525 15.995 0.00738525C7.16658 0.00738525 0.00976562 7.1642 0.00976562 15.9926C0.00976562 24.821 7.16658 31.9778 15.995 31.9778Z" fill="white"/>
<path d="M14.8193 20.1254V27.0053C14.8193 27.0053 9.16883 26.5643 6.91755 21.9343C6.71457 21.5168 6.08008 20.0869 6.08008 17.8446V13.2325C7.32302 13.1978 8.67158 13.482 9.80226 14.003C11.551 14.809 12.8253 16.2243 13.8383 17.8446L14.8193 20.1254Z" fill="#37B3E4"/>
<path fill-rule="evenodd" clip-rule="evenodd" d="M14.8191 27.0053L12.8145 26.5928C13.9244 24.9689 14.7445 23.0082 14.764 20.1175L14.8191 12.6841C14.8191 7.926 20.9563 4.97711 23.4211 4.97711C23.4211 16.9541 23.905 19.5097 22.3507 22.5489C20.7608 25.658 17.7971 27.0807 14.8191 27.0053Z" fill="url(#paint0_linear_2980_149780)"/>
</g>
</g>
<defs>
<linearGradient id="paint0_linear_2980_149780" x1="21.7387" y1="6.40127" x2="19.1557" y2="25.0561" gradientUnits="userSpaceOnUse">
<stop stop-color="#7276B6"/>
<stop offset="1" stop-color="#4DAEE1"/>
</linearGradient>
<clipPath id="clip0_2980_149780">
<rect width="32" height="32" fill="white"/>
</clipPath>
</defs>
</svg>
