<svg width="32" height="32" viewBox="0 0 32 32" fill="none" xmlns="http://www.w3.org/2000/svg">
<g clip-path="url(#clip0_2707_319993)">
<path d="M15.9998 31.9822C24.8265 31.9822 31.982 24.8267 31.982 16C31.982 7.17326 24.8265 0.0177777 15.9998 0.0177777C7.17306 0.0177777 0.0175781 7.17326 0.0175781 16C0.0175781 24.8267 7.17306 31.9822 15.9998 31.9822Z" fill="white"/>
<path fill-rule="evenodd" clip-rule="evenodd" d="M16.1421 16.3111V15.1822H16.311L16.6221 15.8756V15.1822H16.8354V16.3111H16.6043L16.3288 15.6622V16.3111H16.1421Z" fill="#717174"/>
<path fill-rule="evenodd" clip-rule="evenodd" d="M17.04 16.3111V15.1822H17.2978C17.3584 15.1809 17.4178 15.1997 17.4667 15.2356C17.5277 15.2843 17.5764 15.3467 17.6088 15.4177C17.6412 15.4888 17.6565 15.5664 17.6534 15.6444V16C17.6534 16 17.6534 16.2933 17.4223 16.2933L17.04 16.3111ZM17.2445 16.0622V15.4222H17.3689C17.3988 15.4577 17.4213 15.4987 17.435 15.543C17.4488 15.5873 17.4535 15.6339 17.4489 15.68V15.8844C17.4489 15.8844 17.4489 16.0533 17.3689 16.0533L17.2445 16.0622Z" fill="#717174"/>
<path fill-rule="evenodd" clip-rule="evenodd" d="M14.6309 15.1822H14.8264L14.9686 15.6178L15.1375 15.1822H15.3242L15.0575 15.8044V16.3111H14.8797V15.7956L14.6309 15.1822Z" fill="#717174"/>
<path fill-rule="evenodd" clip-rule="evenodd" d="M14.0444 15.1822V16.3111H14.56V16.16H14.2222V15.8044H14.4978V15.6533H14.2222V15.3778H14.5333V15.1822H14.0444Z" fill="#717174"/>
<path d="M18.2666 15.2H18.1333V16.3289H18.2666V15.2Z" fill="#717174"/>
<path d="M18.6666 15.6356L18.7111 15.5911C18.7279 15.5715 18.7493 15.5562 18.7733 15.5467C18.7967 15.5416 18.821 15.5416 18.8444 15.5467H19.0311C19.0615 15.5581 19.0888 15.5764 19.1111 15.6C19.1327 15.6271 19.1507 15.657 19.1644 15.6889C19.1743 15.7328 19.1743 15.7783 19.1644 15.8222V16.3556H19.04V15.84C19.0433 15.786 19.0276 15.7325 18.9955 15.6889C18.9805 15.6737 18.9624 15.6619 18.9425 15.6543C18.9226 15.6466 18.9013 15.6433 18.88 15.6444C18.8389 15.6365 18.7966 15.6365 18.7555 15.6444C18.7115 15.6704 18.6748 15.7071 18.6489 15.7511V16.32H18.5244V15.52H18.6666V15.6356Z" fill="#717174"/>
<path d="M19.8489 16.3289H19.7955H19.7155H19.6089L19.5555 16.2933C19.5329 16.2736 19.5148 16.2494 19.5022 16.2222C19.4973 16.1898 19.4973 16.1569 19.5022 16.1244V15.6444H19.3511V15.5289H19.5022V15.3067H19.6266V15.5289H19.8666V15.6444H19.6266V16.1067C19.6266 16.1067 19.6266 16.1067 19.6266 16.16V16.2044H19.6711H19.84L19.8489 16.3289Z" fill="#717174"/>
<path d="M20.3286 15.6178H20.2486C20.2214 15.6304 20.1972 15.6485 20.1775 15.6711C20.1577 15.6913 20.1425 15.7156 20.133 15.7422C20.1289 15.7687 20.1289 15.7957 20.133 15.8222H20.533C20.533 15.8222 20.533 15.7689 20.533 15.7422C20.5345 15.7156 20.5345 15.6889 20.533 15.6622C20.5162 15.6426 20.4948 15.6273 20.4708 15.6178H20.3286ZM20.3997 16.24H20.5152H20.6219V16.3467H20.5152H20.3819C20.329 16.356 20.2748 16.356 20.2219 16.3467C20.1733 16.3319 20.128 16.3077 20.0886 16.2756C20.052 16.2413 20.0245 16.1986 20.0086 16.1511C19.9978 16.0864 19.9978 16.0203 20.0086 15.9556C19.9985 15.8937 19.9985 15.8307 20.0086 15.7689C20.0245 15.7188 20.0519 15.6732 20.0886 15.6356C20.1192 15.599 20.1591 15.5714 20.2041 15.5556C20.248 15.5453 20.2936 15.5453 20.3375 15.5556C20.3785 15.5469 20.4209 15.5469 20.4619 15.5556C20.4998 15.5709 20.5334 15.5953 20.5597 15.6267C20.5907 15.6621 20.6121 15.705 20.6219 15.7511C20.6318 15.81 20.6318 15.87 20.6219 15.9289V16H20.0797C20.0742 16.0443 20.0742 16.0891 20.0797 16.1333C20.0952 16.1663 20.1163 16.1963 20.1419 16.2222L20.2397 16.2667L20.3997 16.24Z" fill="#717174"/>
<path d="M21.3329 15.6356H21.2351C21.209 15.6279 21.1813 15.6279 21.1551 15.6356L21.084 15.68L21.0307 15.7333V16.2933H20.9062V15.4933H21.004V15.6178L21.0485 15.5644L21.1107 15.5111H21.1907H21.3329V15.6356Z" fill="#717174"/>
<path d="M21.5645 15.6356V15.5911C21.5813 15.5715 21.6027 15.5562 21.6267 15.5467C21.6501 15.5416 21.6744 15.5416 21.6978 15.5467H21.8845C21.9149 15.5581 21.9422 15.5764 21.9645 15.6C21.9922 15.6224 22.0111 15.6539 22.0178 15.6889C22.0277 15.7328 22.0277 15.7783 22.0178 15.8222V16.3556H21.9556V15.84C21.968 15.7904 21.968 15.7385 21.9556 15.6889C21.9241 15.66 21.8828 15.6441 21.84 15.6444C21.7959 15.6364 21.7508 15.6364 21.7067 15.6444C21.6627 15.6704 21.626 15.7071 21.6 15.7511V16.32H21.4756V15.52H21.5734L21.5645 15.6356Z" fill="#717174"/>
<path d="M22.7908 16.24L22.7463 16.2844C22.7287 16.288 22.7106 16.288 22.693 16.2844H22.6219H22.5419H22.4441L22.3552 16.2311L22.3019 16.1511C22.297 16.1128 22.297 16.0739 22.3019 16.0356C22.2939 16.0005 22.2939 15.964 22.3019 15.9289C22.3134 15.8985 22.3316 15.8711 22.3552 15.8489L22.453 15.8044C22.491 15.795 22.5306 15.795 22.5686 15.8044H22.6841H22.773V15.6889C22.7778 15.6745 22.7778 15.6589 22.773 15.6444C22.7599 15.615 22.7382 15.5902 22.7108 15.5733C22.6669 15.5631 22.6213 15.5631 22.5775 15.5733H22.4708H22.3641V15.5556H22.4086H22.4708H22.5952C22.6595 15.5404 22.7265 15.5404 22.7908 15.5556C22.8375 15.582 22.8748 15.6224 22.8975 15.6711C22.9027 15.6915 22.9027 15.7129 22.8975 15.7333C22.9025 15.7568 22.9025 15.781 22.8975 15.8044V16.3378H22.7908V16.24ZM22.7908 15.9822H22.7108H22.6041C22.5634 15.9708 22.5204 15.9708 22.4797 15.9822C22.4626 15.9941 22.4487 16.0101 22.4394 16.0288C22.4301 16.0474 22.4256 16.0681 22.4263 16.0889C22.4213 16.1123 22.4213 16.1366 22.4263 16.16V16.2044H22.4797H22.613H22.6752H22.7197L22.7908 15.9822Z" fill="#717174"/>
<path d="M23.582 16.3289H23.5286H23.4486H23.342C23.3117 16.3217 23.284 16.3063 23.262 16.2844C23.2422 16.2642 23.227 16.24 23.2175 16.2133C23.2125 16.1809 23.2125 16.148 23.2175 16.1156V15.6444H23.0664V15.5289H23.2175V15.3067H23.3509V15.5289H23.582V15.6444H23.3509V16.1067C23.3467 16.1242 23.3467 16.1425 23.3509 16.16C23.3509 16.16 23.3509 16.16 23.3509 16.2044H23.5286L23.582 16.3289Z" fill="#717174"/>
<path d="M23.7598 16.3289V15.5289H23.8931V16.3289H23.7598ZM23.7598 15.3422V15.2H23.8842V15.3422H23.7598Z" fill="#717174"/>
<path d="M24.711 15.9289C24.7197 15.8849 24.7197 15.8396 24.711 15.7956C24.7017 15.7607 24.6867 15.7277 24.6666 15.6978C24.644 15.6723 24.6169 15.6512 24.5866 15.6356H24.4977H24.3999C24.3696 15.6512 24.3425 15.6723 24.3199 15.6978C24.2999 15.7277 24.2848 15.7607 24.2755 15.7956C24.2669 15.8396 24.2669 15.8849 24.2755 15.9289C24.2656 15.9728 24.2656 16.0183 24.2755 16.0622C24.2848 16.097 24.2999 16.1301 24.3199 16.16L24.3999 16.2222H24.4977H24.5866C24.6169 16.2066 24.644 16.1855 24.6666 16.16C24.6867 16.1301 24.7017 16.097 24.711 16.0622C24.721 16.0183 24.721 15.9728 24.711 15.9289ZM24.8533 15.9289C24.8626 15.9878 24.8626 16.0478 24.8533 16.1067C24.8352 16.1531 24.808 16.1954 24.7733 16.2311C24.7453 16.2724 24.7048 16.3036 24.6577 16.32C24.6078 16.3292 24.5565 16.3292 24.5066 16.32C24.4537 16.3301 24.3995 16.3301 24.3466 16.32C24.2995 16.3036 24.259 16.2724 24.231 16.2311C24.1963 16.1954 24.1691 16.1531 24.151 16.1067C24.1417 16.0478 24.1417 15.9878 24.151 15.9289C24.1411 15.873 24.1411 15.8159 24.151 15.76C24.167 15.7099 24.1944 15.6643 24.231 15.6267C24.2609 15.5872 24.3008 15.5565 24.3466 15.5378C24.3995 15.5277 24.4537 15.5277 24.5066 15.5378C24.5565 15.5286 24.6078 15.5286 24.6577 15.5378C24.7048 15.5542 24.7453 15.5853 24.7733 15.6267C24.8099 15.6643 24.8373 15.7099 24.8533 15.76C24.8752 15.8137 24.8873 15.8709 24.8888 15.9289H24.8533Z" fill="#717174"/>
<path d="M25.1731 15.6356L25.2175 15.5911C25.2344 15.5715 25.2557 15.5562 25.2798 15.5467C25.3032 15.5416 25.3274 15.5416 25.3509 15.5467H25.5286C25.5627 15.5557 25.5935 15.5742 25.6175 15.6C25.6392 15.6271 25.6571 15.657 25.6709 15.6889C25.6763 15.7332 25.6763 15.7779 25.6709 15.8222V16.3556H25.5464V15.84C25.5498 15.786 25.534 15.7325 25.502 15.6889C25.4869 15.6737 25.4689 15.6619 25.449 15.6543C25.429 15.6466 25.4077 15.6433 25.3864 15.6444C25.3453 15.6365 25.3031 15.6365 25.262 15.6444C25.218 15.6704 25.1813 15.7071 25.1553 15.7511V16.32H25.022V15.52H25.1286L25.1731 15.6356Z" fill="#717174"/>
<path d="M26.4086 16.24L26.3641 16.2844H26.3108H26.2397H26.1597H26.053L25.973 16.2311L25.9197 16.1511C25.8959 16.0789 25.8959 16.0011 25.9197 15.9289L25.9819 15.8489L26.0708 15.8044C26.1117 15.7953 26.1542 15.7953 26.1952 15.8044H26.3019H26.3997V15.6889C26.4044 15.6745 26.4044 15.6589 26.3997 15.6444C26.3866 15.615 26.3649 15.5902 26.3374 15.5733C26.2936 15.5631 26.248 15.5631 26.2041 15.5733H26.0974H25.9908V15.5556H26.0352H26.0886H26.2219C26.2862 15.5404 26.3531 15.5404 26.4174 15.5556C26.4642 15.582 26.5015 15.6224 26.5241 15.6711C26.5294 15.6915 26.5294 15.7129 26.5241 15.7333C26.5292 15.7568 26.5292 15.781 26.5241 15.8044V16.3378H26.4174L26.4086 16.24ZM26.4086 15.9822H26.3286H26.2219C26.178 15.972 26.1324 15.972 26.0886 15.9822C26.0602 16.0105 26.0442 16.0488 26.0441 16.0889C26.0441 16.0889 26.0441 16.1422 26.0441 16.16V16.2044H26.0886H26.2308H26.293H26.3374L26.4086 15.9822Z" fill="#717174"/>
<path d="M26.9155 15.1111H26.791V16.3378H26.9155V15.1111Z" fill="#717174"/>
<path d="M27.7419 16.3378H27.653V15.7067H27.4219V15.6267H27.973V15.7067H27.7419V16.3378Z" fill="#717174"/>
<path d="M28.4444 16C28.4492 16.0294 28.4492 16.0595 28.4444 16.0889C28.4216 16.0969 28.3974 16.0999 28.3733 16.0978C28.378 16.1075 28.3805 16.1181 28.3805 16.1289C28.3805 16.1397 28.378 16.1503 28.3733 16.16L28.3288 16.2044H28.2666H28.2222V15.9378H28.2577H28.266H28.2755C28.2985 15.9296 28.3236 15.9296 28.3466 15.9378H28.4H28.4444C28.449 15.9583 28.449 15.9795 28.4444 16Z" fill="#717174"/>
<path d="M28.96 15.8311H29.0667L28.8267 16.0622L29.0667 16.3378H28.9689L28.7289 16.0711V16.3378H28.6489V15.5733H28.7289V16.0622L28.96 15.8311Z" fill="#717174"/>
<path d="M3.09331 19.4489C3.09217 19.4696 3.09217 19.4904 3.09331 19.5111L2.91553 19.3333H2.99553L3.09331 19.4489Z" fill="#8E8E90"/>
<path d="M3.09318 19.4489L3.01318 19.3689L8.10652 16.4533L5.67985 16C6.71096 15.9111 7.69763 15.7956 8.68429 15.7689C8.85284 15.7655 9.02002 15.7997 9.17374 15.8689C9.32747 15.9381 9.46391 16.0405 9.57318 16.1689C9.67096 16.3378 9.46652 16.7911 9.27096 17.0133C8.82791 17.5115 8.35912 17.9863 7.86652 18.4356L8.49763 16.96L3.09318 19.4489Z" fill="#0C7FC4"/>
<path d="M12.2487 13.9911C11.7865 14.4178 11.3598 14.88 10.8443 15.2444C10.3287 15.6089 10.0176 15.4133 10.0354 14.8622C10.0774 14.1552 10.1815 13.4532 10.3465 12.7644C10.5687 14.48 10.5687 14.48 12.2576 14L12.2487 13.9911Z" fill="#A3D16F"/>
<path d="M9.02179 12.9244C9.27068 13.7244 9.46624 14.2756 9.60846 14.8356C9.62668 14.9344 9.62424 15.036 9.60129 15.1339C9.57835 15.2318 9.53539 15.3239 9.47513 15.4044C9.38517 15.4484 9.28637 15.4713 9.18624 15.4713C9.08611 15.4713 8.9873 15.4484 8.89735 15.4044C8.30179 15.1111 7.72402 14.72 6.95068 14.2222C8.96846 14.7378 8.96846 14.7378 9.02179 12.9244Z" fill="#A3D16F"/>
<path d="M12.5154 17.52C11.8807 17.2202 11.2634 16.8849 10.6665 16.5156C10.1687 16.1778 10.4265 15.8133 10.8532 15.6267C11.4843 15.4044 12.1509 15.28 12.9598 15.0756C11.2976 16.24 11.2976 16.24 12.5154 17.52Z" fill="#A3D16F"/>
<path d="M11.2085 18.0267C10.1685 17.3956 10.1419 17.4133 9.51074 19.0222C9.58185 18.3022 9.61741 17.7244 9.7063 17.1556C9.7063 16.9778 9.88408 16.72 10.0352 16.6844C10.1863 16.6489 10.4263 16.8 10.5507 16.9422C10.8079 17.2706 11.0482 17.6118 11.2707 17.9644L11.2085 18.0267Z" fill="#A3D16F"/>
<path d="M11.2707 17.9644L11.5018 18.2489L11.4307 18.3111L11.2085 18.0267L11.2707 17.9644Z" fill="#A3D16F"/>
<path fill-rule="evenodd" clip-rule="evenodd" d="M13.4043 15.1822V16.3111H13.911V16.1244H13.6354V15.1822H13.4043Z" fill="#717174"/>
<path fill-rule="evenodd" clip-rule="evenodd" d="M15.271 16.3111L15.5199 15.1822H15.7954L15.9999 16.3111H15.7599L15.7066 16.0711H15.5288L15.4754 16.3111H15.271ZM15.5643 15.8667L15.6443 15.4667L15.7332 15.8667H15.5643Z" fill="#717174"/>
<path d="M13.76 16.9689C13.7642 16.9954 13.7642 17.0224 13.76 17.0489C13.7464 17.0757 13.7246 17.0975 13.6978 17.1111C13.666 17.1213 13.6318 17.1213 13.6 17.1111H13.5112V17.3511H13.4312V16.7644H13.6H13.6978C13.7231 16.7838 13.7442 16.808 13.76 16.8356C13.7713 16.8793 13.7713 16.9252 13.76 16.9689ZM13.5823 17.0578C13.6055 17.0642 13.6301 17.0642 13.6534 17.0578C13.6623 17.0349 13.6623 17.0095 13.6534 16.9867C13.6534 16.9156 13.6534 16.8889 13.5645 16.8889H13.4756V17.0756L13.5823 17.0578Z" fill="#0079C2"/>
<path d="M13.9999 17.3867C13.9652 17.3982 13.9278 17.3982 13.8932 17.3867C13.8631 17.3665 13.8386 17.3389 13.8221 17.3067C13.8129 17.2657 13.8129 17.2232 13.8221 17.1822C13.8119 17.1414 13.8119 17.0986 13.8221 17.0578C13.8363 17.0189 13.8649 16.9871 13.9021 16.9689C13.934 16.9597 13.9679 16.9597 13.9999 16.9689C14.035 16.9609 14.0714 16.9609 14.1065 16.9689C14.1389 16.9904 14.1638 17.0215 14.1776 17.0578C14.1878 17.0986 14.1878 17.1414 14.1776 17.1822C14.1868 17.2232 14.1868 17.2657 14.1776 17.3067C14.1604 17.3413 14.1323 17.3694 14.0976 17.3867C14.0662 17.399 14.0313 17.399 13.9999 17.3867ZM13.9999 17.2978C14.0082 17.3017 14.0173 17.3038 14.0265 17.3038C14.0357 17.3038 14.0449 17.3017 14.0532 17.2978C14.0586 17.2804 14.0586 17.2618 14.0532 17.2444C14.0532 17.2444 14.0532 17.2 14.0532 17.1644C14.058 17.135 14.058 17.105 14.0532 17.0756C14.0532 17.0756 14.0532 17.0311 14.0532 17.0222H13.991H13.9287C13.9226 17.0395 13.9226 17.0583 13.9287 17.0756C13.9192 17.1044 13.9192 17.1356 13.9287 17.1644C13.9186 17.2023 13.9186 17.2422 13.9287 17.28C13.9499 17.2935 13.9748 17.2997 13.9999 17.2978Z" fill="#0079C2"/>
<path d="M14.7999 16.8889L14.6844 17.3511H14.5955L14.5155 17.0044L14.4355 17.3511H14.3466L14.2222 16.8889H14.3111L14.3911 17.2622L14.4711 16.8889H14.5599L14.6399 17.2622L14.7199 16.8889H14.7999Z" fill="#0079C2"/>
<path d="M15.2176 17.1289C15.2217 17.1464 15.2217 17.1647 15.2176 17.1822H14.9154C14.9104 17.2116 14.9104 17.2417 14.9154 17.2711C14.9416 17.2779 14.9691 17.2779 14.9954 17.2711C15.0169 17.2705 15.0378 17.2634 15.0553 17.2507C15.0728 17.238 15.0859 17.2204 15.0931 17.2H15.182C15.1693 17.2418 15.1446 17.2789 15.1109 17.3067C15.0736 17.3203 15.0327 17.3203 14.9954 17.3067C14.9639 17.319 14.929 17.319 14.8976 17.3067C14.8654 17.289 14.8403 17.2607 14.8265 17.2267C14.8173 17.1857 14.8173 17.1432 14.8265 17.1022C14.8163 17.0614 14.8163 17.0186 14.8265 16.9778C14.8316 16.9589 14.8405 16.9412 14.8527 16.9259C14.865 16.9106 14.8802 16.898 14.8976 16.8889C14.9273 16.8717 14.961 16.8627 14.9954 16.8627C15.0297 16.8627 15.0634 16.8717 15.0931 16.8889C15.1253 16.9066 15.1504 16.9348 15.1642 16.9689C15.2001 17.0144 15.219 17.071 15.2176 17.1289ZM15.1287 17.1289C15.1376 17.0999 15.1376 17.069 15.1287 17.04C15.1026 17.0323 15.0748 17.0323 15.0487 17.04C15.0258 17.0311 15.0004 17.0311 14.9776 17.04C14.9542 17.0645 14.9387 17.0955 14.9331 17.1289H15.1287Z" fill="#0079C2"/>
<path d="M15.3688 16.9778C15.3786 16.9564 15.3939 16.938 15.4132 16.9244C15.4361 16.9155 15.4615 16.9155 15.4843 16.9244V17.0222C15.4587 17.0118 15.43 17.0118 15.4043 17.0222C15.3976 17.0545 15.3976 17.0878 15.4043 17.12V17.3689H15.3154V16.8889H15.4043L15.3688 16.9778Z" fill="#0079C2"/>
<path d="M15.884 16.9867H15.8129V17.3778H15.7329V16.9867H15.6885V16.8889H15.7329C15.7329 16.8356 15.7329 16.7911 15.7329 16.7733C15.7699 16.758 15.8115 16.758 15.8485 16.7733V16.8533H15.7951C15.7899 16.8737 15.7899 16.8952 15.7951 16.9156H15.8663L15.884 16.9867Z" fill="#0079C2"/>
<path d="M16.1244 17.3867C16.09 17.3996 16.0521 17.3996 16.0177 17.3867C15.9876 17.3665 15.9631 17.3389 15.9466 17.3067C15.9374 17.2657 15.9374 17.2232 15.9466 17.1822C15.9364 17.1414 15.9364 17.0986 15.9466 17.0578C15.9605 17.0215 15.9853 16.9904 16.0177 16.9689C16.0504 16.951 16.0871 16.9416 16.1244 16.9416C16.1616 16.9416 16.1983 16.951 16.231 16.9689C16.2634 16.9904 16.2883 17.0215 16.3021 17.0578C16.3123 17.0986 16.3123 17.1414 16.3021 17.1822C16.3113 17.2232 16.3113 17.2657 16.3021 17.3067C16.2849 17.3413 16.2568 17.3694 16.2221 17.3867C16.1907 17.399 16.1558 17.399 16.1244 17.3867ZM16.1244 17.2978C16.1327 17.3017 16.1418 17.3038 16.151 17.3038C16.1603 17.3038 16.1694 17.3017 16.1777 17.2978C16.1883 17.2923 16.1977 17.2848 16.2053 17.2756C16.213 17.2665 16.2187 17.2559 16.2221 17.2444C16.2221 17.2444 16.2221 17.2 16.2221 17.1644C16.2316 17.1356 16.2316 17.1044 16.2221 17.0756C16.2221 17.0756 16.2221 17.0311 16.1777 17.0222H16.1244H16.0621C16.0621 17.0222 16.0621 17.0222 16.0177 17.0756C16.0129 17.105 16.0129 17.135 16.0177 17.1644C16.0075 17.2023 16.0075 17.2422 16.0177 17.28C16.0327 17.2914 16.0502 17.299 16.0688 17.3021C16.0874 17.3052 16.1065 17.3037 16.1244 17.2978Z" fill="#0079C2"/>
<path d="M16.4799 16.9778C16.4897 16.9564 16.5051 16.938 16.5243 16.9244C16.5472 16.9155 16.5726 16.9155 16.5954 16.9244V17.0222C16.5954 17.0222 16.5332 17.0222 16.5243 17.0222C16.5128 17.0538 16.5128 17.0884 16.5243 17.12V17.3689H16.4443V16.8889H16.5243L16.4799 16.9778Z" fill="#0079C2"/>
<path d="M16.9953 16.8889H17.0753C17.0973 16.9019 17.1156 16.9202 17.1286 16.9422V16.8889H17.2175V17.36C17.2266 17.398 17.2266 17.4376 17.2175 17.4756C17.2037 17.5096 17.1786 17.5378 17.1464 17.5556C17.1144 17.5647 17.0806 17.5647 17.0486 17.5556C17.0052 17.5692 16.9587 17.5692 16.9153 17.5556C16.8957 17.5413 16.8798 17.5226 16.869 17.5009C16.8582 17.4793 16.8527 17.4553 16.853 17.4311H16.8886C16.8952 17.4566 16.9111 17.4788 16.933 17.4933C16.9559 17.5023 16.9813 17.5023 17.0042 17.4933C17.0166 17.4996 17.0303 17.5028 17.0442 17.5028C17.0581 17.5028 17.0718 17.4996 17.0842 17.4933C17.0957 17.4618 17.0957 17.4271 17.0842 17.3956V17.3156C17.0803 17.3281 17.0735 17.3396 17.0642 17.3489C17.0549 17.3582 17.0434 17.3651 17.0308 17.3689C17.0047 17.3765 16.9769 17.3765 16.9508 17.3689C16.9194 17.3813 16.8845 17.3813 16.853 17.3689C16.8232 17.3508 16.801 17.3223 16.7908 17.2889C16.7816 17.2479 16.7816 17.2054 16.7908 17.1644C16.7807 17.1236 16.7807 17.0809 16.7908 17.04C16.7944 17.0217 16.8018 17.0043 16.8125 16.9889C16.8232 16.9736 16.837 16.9607 16.853 16.9511C16.8705 16.9307 16.8924 16.9144 16.917 16.9037C16.9416 16.8929 16.9684 16.8878 16.9953 16.8889ZM17.1286 17.1289C17.1381 17.1 17.1381 17.0689 17.1286 17.04L17.0842 16.9867H17.0308H16.9686L16.9242 17.04C16.9192 17.0694 16.9192 17.0995 16.9242 17.1289C16.92 17.1554 16.92 17.1824 16.9242 17.2089C16.9276 17.2203 16.9333 17.2309 16.941 17.2401C16.9486 17.2492 16.958 17.2568 16.9686 17.2622C16.9783 17.2669 16.9889 17.2694 16.9997 17.2694C17.0105 17.2694 17.0211 17.2669 17.0308 17.2622C17.0392 17.2662 17.0483 17.2682 17.0575 17.2682C17.0667 17.2682 17.0758 17.2662 17.0842 17.2622C17.0948 17.2568 17.1042 17.2492 17.1118 17.2401C17.1194 17.2309 17.1252 17.2203 17.1286 17.2089C17.1343 17.1885 17.1343 17.167 17.1286 17.1467V17.1289Z" fill="#0079C2"/>
<path d="M17.6708 17.1289V17.1822H17.3686C17.3627 17.1963 17.3597 17.2114 17.3597 17.2267C17.3597 17.2419 17.3627 17.257 17.3686 17.2711C17.3916 17.2792 17.4167 17.2792 17.4397 17.2711C17.4613 17.2705 17.4822 17.2634 17.4996 17.2507C17.5171 17.238 17.5303 17.2204 17.5375 17.2H17.6264C17.6166 17.2409 17.5949 17.278 17.5641 17.3067C17.5238 17.3202 17.4801 17.3202 17.4397 17.3067C17.4083 17.319 17.3733 17.319 17.3419 17.3067C17.3118 17.2865 17.2873 17.2589 17.2708 17.2267C17.2616 17.1857 17.2616 17.1432 17.2708 17.1022C17.2606 17.0614 17.2606 17.0186 17.2708 16.9778C17.2759 16.9589 17.2848 16.9412 17.2971 16.9259C17.3093 16.9106 17.3246 16.898 17.3419 16.8889C17.3739 16.8797 17.4077 16.8797 17.4397 16.8889C17.4747 16.8799 17.5114 16.8799 17.5464 16.8889C17.5762 16.907 17.5984 16.9355 17.6086 16.9689C17.6476 17.0132 17.6697 17.0699 17.6708 17.1289ZM17.5908 17.1289C17.5958 17.0995 17.5958 17.0694 17.5908 17.04C17.5651 17.0296 17.5365 17.0296 17.5108 17.04C17.4879 17.0311 17.4626 17.0311 17.4397 17.04C17.4313 17.069 17.4313 17.0999 17.4397 17.1289H17.5908Z" fill="#0079C2"/>
<path d="M17.9373 16.8889H18.0262C18.0512 16.9063 18.0698 16.9312 18.0796 16.96C18.0899 16.9948 18.0899 17.0319 18.0796 17.0667V17.3422H17.9907V17.0844C18.0022 17.0529 18.0022 17.0182 17.9907 16.9867C17.9799 16.9804 17.9676 16.9771 17.9551 16.9771C17.9426 16.9771 17.9304 16.9804 17.9196 16.9867C17.9085 16.9812 17.8963 16.9783 17.884 16.9783C17.8717 16.9783 17.8595 16.9812 17.8485 16.9867C17.8369 17.0182 17.8369 17.0529 17.8485 17.0844V17.3422H17.7773V16.8889H17.8573V16.9422C17.8628 16.9316 17.8703 16.9222 17.8795 16.9146C17.8887 16.9069 17.8993 16.9012 17.9107 16.8978C17.919 16.8934 17.928 16.8904 17.9373 16.8889Z" fill="#0079C2"/>
<path d="M18.5599 17.1289C18.564 17.1464 18.564 17.1647 18.5599 17.1822H18.2576C18.2527 17.2116 18.2527 17.2417 18.2576 17.2711C18.2839 17.2779 18.3114 17.2779 18.3376 17.2711C18.3592 17.2705 18.3801 17.2634 18.3976 17.2507C18.415 17.238 18.4282 17.2204 18.4354 17.2H18.5243C18.5116 17.2418 18.4869 17.2789 18.4532 17.3067C18.4159 17.3203 18.375 17.3203 18.3376 17.3067C18.3062 17.319 18.2713 17.319 18.2399 17.3067C18.2077 17.289 18.1826 17.2607 18.1688 17.2267C18.1596 17.1857 18.1596 17.1432 18.1688 17.1022C18.1586 17.0614 18.1586 17.0186 18.1688 16.9778C18.1738 16.9589 18.1828 16.9412 18.195 16.9259C18.2073 16.9106 18.2225 16.898 18.2399 16.8889C18.2696 16.8717 18.3033 16.8627 18.3376 16.8627C18.372 16.8627 18.4057 16.8717 18.4354 16.8889C18.4676 16.9066 18.4927 16.9348 18.5065 16.9689C18.5424 17.0144 18.5612 17.071 18.5599 17.1289ZM18.471 17.1289C18.4799 17.0999 18.4799 17.069 18.471 17.04C18.4449 17.0323 18.4171 17.0323 18.391 17.04C18.3681 17.0311 18.3427 17.0311 18.3199 17.04C18.3119 17.0691 18.3119 17.0998 18.3199 17.1289H18.471Z" fill="#0079C2"/>
<path d="M18.7109 16.9778C18.7138 16.9435 18.7297 16.9117 18.7554 16.8889C18.7783 16.88 18.8036 16.88 18.8265 16.8889V16.9867C18.8008 16.9763 18.7722 16.9763 18.7465 16.9867C18.7398 17.0189 18.7398 17.0522 18.7465 17.0844V17.3333H18.6665V16.8889H18.7554L18.7109 16.9778Z" fill="#0079C2"/>
<path d="M18.8621 17.1467C18.852 17.1058 18.852 17.0631 18.8621 17.0222C18.8731 16.9868 18.8948 16.9558 18.9243 16.9333C18.9565 16.9254 18.99 16.9254 19.0221 16.9333H19.1021L19.1643 16.9867V16.8889H19.2443V17.3511H19.1643V17.28C19.1508 17.3048 19.1287 17.3238 19.1021 17.3333C19.076 17.341 19.0482 17.341 19.0221 17.3333C18.9904 17.3442 18.956 17.3442 18.9243 17.3333C18.8969 17.3126 18.8755 17.285 18.8621 17.2533C18.8554 17.2181 18.8554 17.1819 18.8621 17.1467ZM19.191 17.1467C19.196 17.1172 19.196 17.0872 19.191 17.0578L19.1466 17.0044H19.0843H19.0221L18.9777 17.0578C18.9729 17.0872 18.9729 17.1172 18.9777 17.1467C18.9734 17.1732 18.9734 17.2002 18.9777 17.2267C18.9777 17.2267 18.9777 17.2711 19.0221 17.28C19.0423 17.2868 19.0641 17.2868 19.0843 17.28C19.1044 17.2875 19.1265 17.2875 19.1466 17.28C19.1466 17.28 19.1466 17.28 19.191 17.2267C19.196 17.2002 19.196 17.1731 19.191 17.1467Z" fill="#0079C2"/>
<path d="M19.4576 16.9867V17.2444C19.4529 17.2589 19.4529 17.2745 19.4576 17.2889H19.5554V17.3689H19.4932C19.4642 17.3778 19.4333 17.3778 19.4043 17.3689C19.3928 17.3343 19.3928 17.2968 19.4043 17.2622V17.0044H19.3599V16.8889H19.4043V16.8H19.4843V16.8889H19.5554V16.96L19.4576 16.9867Z" fill="#0079C2"/>
<path d="M19.6621 16.8889C19.6621 16.8889 19.6621 16.8889 19.6621 16.8444C19.6574 16.83 19.6574 16.8144 19.6621 16.8C19.6669 16.8144 19.6669 16.83 19.6621 16.8444C19.6621 16.8444 19.6621 16.8444 19.6621 16.8889ZM19.7066 16.9511V17.4133H19.6177V16.8889L19.7066 16.9511Z" fill="#0079C2"/>
<path d="M19.973 17.3867C19.9386 17.3996 19.9007 17.3996 19.8663 17.3867C19.8362 17.3665 19.8117 17.3389 19.7952 17.3067C19.786 17.2657 19.786 17.2232 19.7952 17.1822C19.7851 17.1414 19.7851 17.0986 19.7952 17.0578C19.8091 17.0215 19.834 16.9904 19.8663 16.9689C19.899 16.951 19.9357 16.9416 19.973 16.9416C20.0103 16.9416 20.047 16.951 20.0797 16.9689C20.112 16.9904 20.1369 17.0215 20.1508 17.0578C20.1609 17.0986 20.1609 17.1414 20.1508 17.1822C20.16 17.2232 20.16 17.2657 20.1508 17.3067C20.1335 17.3413 20.1054 17.3694 20.0708 17.3867C20.0394 17.399 20.0044 17.399 19.973 17.3867ZM19.973 17.2978C19.9813 17.3017 19.9904 17.3038 19.9997 17.3038C20.0089 17.3038 20.018 17.3017 20.0263 17.2978C20.0318 17.2804 20.0318 17.2618 20.0263 17.2444C20.0263 17.2444 20.0263 17.2 20.0263 17.1644C20.0358 17.1356 20.0358 17.1044 20.0263 17.0756C20.0263 17.0756 20.0263 17.0311 20.0263 17.0222H19.973H19.9108C19.9108 17.0222 19.9108 17.0222 19.9108 17.0756C19.906 17.105 19.906 17.135 19.9108 17.1644C19.9006 17.2023 19.9006 17.2422 19.9108 17.28C19.9294 17.2917 19.951 17.2979 19.973 17.2978Z" fill="#0079C2"/>
<path d="M20.4442 16.8889H20.5242C20.5494 16.9082 20.5706 16.9324 20.5864 16.96C20.5922 16.9953 20.5922 17.0313 20.5864 17.0667V17.3422H20.5064V17.0844C20.518 17.0529 20.518 17.0182 20.5064 16.9867C20.4981 16.9756 20.4874 16.9667 20.475 16.9605C20.4627 16.9543 20.4491 16.9511 20.4353 16.9511C20.4215 16.9511 20.4079 16.9543 20.3955 16.9605C20.3832 16.9667 20.3725 16.9756 20.3642 16.9867C20.3526 17.0182 20.3526 17.0529 20.3642 17.0844V17.3422H20.2842V16.8889H20.3642V16.9422C20.3642 16.9422 20.3642 16.9422 20.4175 16.8978C20.4257 16.8931 20.4348 16.89 20.4442 16.8889Z" fill="#0079C2"/>
<path d="M20.8443 17.3867H20.7554L20.702 17.3333C20.6944 17.3072 20.6944 17.2795 20.702 17.2533H20.7909C20.7862 17.2678 20.7862 17.2833 20.7909 17.2978C20.8008 17.3019 20.8113 17.3041 20.822 17.3041C20.8327 17.3041 20.8433 17.3019 20.8531 17.2978H20.9065C20.9112 17.2833 20.9112 17.2678 20.9065 17.2533H20.8443H20.7731L20.7198 17.2089C20.7081 17.187 20.702 17.1626 20.702 17.1378C20.702 17.113 20.7081 17.0886 20.7198 17.0667C20.7253 17.0561 20.7328 17.0467 20.742 17.039C20.7511 17.0314 20.7617 17.0257 20.7731 17.0222C20.7992 17.014 20.8271 17.014 20.8531 17.0222C20.8873 17.0084 20.9256 17.0084 20.9598 17.0222C20.975 17.0373 20.9867 17.0553 20.9944 17.0752C21.0021 17.0952 21.0054 17.1165 21.0043 17.1378H20.9243C20.9312 17.1207 20.9312 17.1015 20.9243 17.0844H20.8709H20.8176C20.8176 17.0844 20.8176 17.0844 20.8176 17.1289H20.862H20.9331H20.9865C20.9981 17.1508 21.0043 17.1752 21.0043 17.2C21.0043 17.2248 20.9981 17.2492 20.9865 17.2711C20.9735 17.2931 20.9551 17.3115 20.9331 17.3244L20.8443 17.3867Z" fill="#0079C2"/>
</g>
<defs>
<clipPath id="clip0_2707_319993">
<rect width="32" height="32" fill="white"/>
</clipPath>
</defs>
</svg>
