<svg width="32" height="32" viewBox="0 0 32 32" fill="none" xmlns="http://www.w3.org/2000/svg">
<g clip-path="url(#clip0_2707_319778)">
<path d="M15.9998 31.9822C24.8265 31.9822 31.982 24.8267 31.982 16C31.982 7.17326 24.8265 0.0177765 15.9998 0.0177765C7.17306 0.0177765 0.0175781 7.17326 0.0175781 16C0.0175781 24.8267 7.17306 31.9822 15.9998 31.9822Z" fill="white"/>
<path d="M27.8044 22.32H27.0667C26.6578 21.5378 26.2756 20.7644 25.8756 19.9467L25.76 20.1067C25.44 20.7378 25.1289 21.3778 24.8089 22.0089L24.6578 22.3022H24C24.0106 22.2391 24.0254 22.1767 24.0444 22.1156C24.6044 20.9956 25.1644 19.8667 25.7333 18.7467L25.8667 18.5511L25.9911 18.7556C26.5244 19.8311 27.0667 20.9156 27.6089 21.9911C27.6533 22.0711 27.6089 22.2044 27.7956 22.1956L27.8044 22.32Z" fill="#A6CF39"/>
<path d="M13.2263 25.4311C13.206 25.3211 13.1732 25.2137 13.1285 25.1111C12.9685 24.7644 12.7908 24.4178 12.5952 24.0356H12.853L13.2797 24.8622C13.4752 24.6311 13.5374 24.3378 13.7241 24.0889L14.133 24.8889L14.5685 24.0533H14.8085L14.1241 25.4311L13.7152 24.5867C13.5328 24.8532 13.4113 25.1567 13.3597 25.4756L13.2263 25.4311Z" fill="#A0A0A0"/>
<path d="M17.1552 25.4311V25.1289H17.7775C17.9108 25.1289 17.9997 25.0844 17.9819 24.9244C17.8041 24.7378 17.573 24.8444 17.333 24.8L17.1286 24.6133C17.1199 24.5395 17.1199 24.4649 17.1286 24.3911C17.1286 24.2897 17.1689 24.1925 17.2405 24.1208C17.3122 24.0492 17.4094 24.0089 17.5108 24.0089C17.7419 24.0089 17.9641 24.0089 18.213 24.0089V24.2222C17.9286 24.3289 17.6175 24.16 17.3241 24.3467V24.5244H17.4041H17.5908C17.9197 24.5244 17.9375 24.5244 18.1775 24.8178V25.0933L17.9375 25.3867L17.1552 25.4311Z" fill="#A0A0A0"/>
<path d="M15.4131 25.4311V24L16.302 24.7911V24H16.4975C16.5566 24.4395 16.5566 24.8849 16.4975 25.3244L16.0886 24.9867L15.6709 24.6133C15.6709 24.8978 15.6709 25.1644 15.6709 25.4222L15.4131 25.4311Z" fill="#A0A0A0"/>
<path d="M21.5107 25.4311V24H22.3996C22.4802 24.0706 22.5545 24.1479 22.6219 24.2311C22.6672 24.2963 22.6939 24.3726 22.6991 24.4519C22.7042 24.5312 22.6875 24.6103 22.6509 24.6808C22.6143 24.7513 22.5591 24.8104 22.4913 24.8518C22.4235 24.8932 22.3457 24.9152 22.2663 24.9156H21.813C21.7999 25.0812 21.7999 25.2477 21.813 25.4133L21.5107 25.4311ZM21.7774 24.6756H22.3019L22.4707 24.4622L22.3019 24.2667H21.7774V24.6756Z" fill="#A0A0A0"/>
<path d="M18.8975 25.4311V24.0444C19.093 24.0444 19.1286 24.0444 19.1375 24.1689C19.1419 24.231 19.1419 24.2934 19.1375 24.3556C19.1375 24.4178 19.1375 24.4711 19.1375 24.5511H19.7508V24H19.9997C19.9997 24.4889 19.9997 24.96 19.9997 25.4311H19.7508V24.8356H19.093V25.4311H18.8975Z" fill="#A0A0A0"/>
<path d="M9.67999 25.4311V24.2667H9.26221V24H9.32443H10.2133C10.3644 24 10.3644 24 10.4089 24.2311H9.98221C9.91634 24.4162 9.898 24.6149 9.92887 24.8089C9.92887 24.9956 9.92887 25.2 9.92887 25.3956L9.67999 25.4311Z" fill="#A0A0A0"/>
<path d="M20.6396 25.4311V24H20.8796C20.8796 24.2489 20.8796 24.4889 20.8796 24.72V25.4311H20.6396Z" fill="#A0A0A0"/>
<path d="M14.5864 20.9422L15.3509 22.2667C15.2353 22.3467 15.1198 22.2667 15.022 22.3111H14.6842C14.3553 21.92 14.1864 21.4222 13.8753 21.0222H12.8531V22.2222C12.6576 22.3644 12.462 22.2844 12.2753 22.3022C12.222 22.0533 12.2131 18.7467 12.2753 18.4533H12.542C13.0309 18.4533 13.5198 18.4533 14.0087 18.4533C14.2005 18.4475 14.3914 18.4837 14.5678 18.5594C14.7442 18.6352 14.9018 18.7486 15.0297 18.8917C15.1576 19.0349 15.2527 19.2043 15.3081 19.3881C15.3636 19.5719 15.3782 19.7655 15.3509 19.9556C15.3283 20.1152 15.2732 20.2685 15.1891 20.4061C15.1051 20.5437 14.9937 20.6626 14.862 20.7556L14.5864 20.9422ZM12.862 20.3911H14.0798C14.2445 20.3849 14.4011 20.3178 14.5193 20.2029C14.6375 20.088 14.7089 19.9334 14.7198 19.7689C14.7049 19.6043 14.6311 19.4507 14.5118 19.3363C14.3925 19.2219 14.2359 19.1546 14.0709 19.1467H13.0753H12.862V20.3911Z" fill="#A6CE38"/>
<path d="M19.0129 18.48V19.1467H17.164V20.0356C17.46 20.0561 17.757 20.0561 18.0529 20.0356H18.9418V20.6578H17.1729V21.5467C17.4751 21.5467 17.7773 21.5467 18.0618 21.5467H18.9507V22.2311H17.7773C17.3773 22.2311 16.9773 22.2311 16.5596 22.2311V18.5067C17.3756 18.4385 18.1956 18.4296 19.0129 18.48Z" fill="#3ABB9C"/>
<path d="M4.82631 19.1733V20.0622H6.66631V20.6756H4.84409V21.5644H6.66631V22.24H4.24854V18.4356H6.71076V19.1022L4.82631 19.1733Z" fill="#3ABB9C"/>
<path d="M21.5286 20.3822C22.1597 21.0044 22.773 21.6267 23.4397 22.2933C23.1019 22.3378 22.8264 22.2933 22.5508 22.2933L20.8886 20.6667V22.2222C20.693 22.3644 20.4975 22.2844 20.3108 22.3022C20.2486 22.0711 20.2397 18.8978 20.3108 18.4533H20.9064V20.0978L21.7952 19.2089L22.5864 18.4178C22.8644 18.3954 23.1438 18.3954 23.4219 18.4178C22.829 19.1084 22.1968 19.7643 21.5286 20.3822Z" fill="#F89C1B"/>
<path d="M7.7863 18.48H8.40852C8.41293 18.5599 8.41293 18.6401 8.40852 18.72C8.40852 19.3778 8.40852 20.0444 8.40852 20.7111C8.4064 20.9268 8.48278 21.1359 8.62343 21.2994C8.76407 21.463 8.95939 21.5698 9.17297 21.6C9.39024 21.6422 9.61542 21.6017 9.80447 21.4867C9.99352 21.3716 10.1328 21.1901 10.1952 20.9778C10.2176 20.8753 10.2176 20.7692 10.1952 20.6667V18.8C10.1952 18.7022 10.1952 18.5956 10.1952 18.4978C10.4044 18.4669 10.6171 18.4669 10.8263 18.4978C10.8307 18.5777 10.8307 18.6578 10.8263 18.7378C10.8263 19.3956 10.8263 20.0622 10.8263 20.7289C10.8263 21.3956 10.6219 22.32 9.10186 22.3289C8.70417 22.3059 8.33115 22.1286 8.0622 21.8348C7.79325 21.5409 7.64961 21.1537 7.66186 20.7556C7.66186 20.0267 7.66186 19.3067 7.66186 18.5778L7.7863 18.48Z" fill="#F04E23"/>
<path d="M11.2889 13.5911C11.2889 13.4933 11.2 13.3956 11.1645 13.2978C11.0667 12.8622 10.9689 12.4089 10.9067 12C10.903 11.9477 10.9106 11.8952 10.929 11.8461C10.9474 11.797 10.9762 11.7525 11.0133 11.7156C11.2953 11.4272 11.6526 11.2239 12.0445 11.1289C12.6871 10.9248 13.3643 10.8523 14.0356 10.9156C14.6334 10.9786 15.227 11.0765 15.8134 11.2089C17.0368 11.5148 18.2946 11.6612 19.5556 11.6444C19.9556 11.6444 20.3467 11.5289 20.7467 11.4667L21.0489 11.4222C20.8297 11.7567 20.4938 11.9975 20.1067 12.0978C19.2164 12.3461 18.2847 12.4097 17.3689 12.2844C16.3467 12.2044 15.3067 12.1067 14.2756 12.08C13.7785 12.0436 13.2796 12.1217 12.8173 12.3081C12.3551 12.4946 11.9417 12.7845 11.6089 13.1556C11.5556 13.28 11.4311 13.4133 11.2889 13.5911Z" fill="url(#paint0_linear_2707_319778)"/>
<path d="M10.8529 24.9867C10.8529 24.9867 10.8529 24.9867 10.8529 24.9422C10.8479 24.8831 10.8479 24.8236 10.8529 24.7644C10.8923 24.7236 10.9411 24.6931 10.9951 24.6756C11.0861 24.658 11.1797 24.658 11.2707 24.6756H11.5285C11.6969 24.7186 11.8702 24.7395 12.044 24.7378H12.204H12.2484C12.2164 24.7846 12.1694 24.8191 12.1151 24.8356C11.9917 24.8577 11.8652 24.8577 11.7418 24.8356H11.3151C11.2457 24.8322 11.1763 24.844 11.1118 24.8701C11.0474 24.8962 10.9894 24.9359 10.9418 24.9867H10.8529Z" fill="#A0A0A0"/>
<path d="M10.9775 10.6667C11.1959 10.2741 11.5548 9.97876 11.982 9.84C12.6707 9.55639 13.4186 9.4465 14.1598 9.52C14.6448 9.57492 15.1258 9.66102 15.5998 9.77777C16.5909 10.052 17.6118 10.2042 18.6398 10.2311C19.3112 10.2644 19.9824 10.1616 20.6131 9.92889C20.7642 9.87555 20.8353 9.92889 20.8709 10.0533C20.9064 10.1778 20.9509 10.32 20.9864 10.4622C21.1109 10.9956 20.9864 11.1733 20.4531 11.2356C20.0802 11.2978 19.7013 11.3157 19.3242 11.2889C18.4975 11.2089 17.6709 11.1111 16.8531 10.9511C16.0353 10.7911 15.0753 10.5156 14.1864 10.3378C13.5596 10.172 12.9038 10.1478 12.2664 10.2667C11.9224 10.3665 11.5841 10.4852 11.2531 10.6222C11.1737 10.6524 11.0965 10.688 11.022 10.7289L10.9775 10.6667Z" fill="url(#paint1_linear_2707_319778)"/>
<path d="M10.8088 24.5867C10.8215 24.559 10.84 24.5344 10.863 24.5145C10.886 24.4945 10.9129 24.4797 10.9421 24.4711C11.0361 24.4261 11.1414 24.4106 11.2443 24.4267H11.4488C11.5857 24.4611 11.7256 24.4819 11.8666 24.4889C11.9604 24.4922 12.0541 24.4771 12.1421 24.4444C12.1421 24.4444 12.1421 24.4444 12.1421 24.4978C12.1421 24.5511 12.1421 24.5956 12.071 24.6044C12.018 24.6132 11.964 24.6132 11.911 24.6044L11.5643 24.56L11.1999 24.4711C11.1119 24.4534 11.0212 24.4534 10.9332 24.4711L10.791 24.5244L10.8088 24.5867Z" fill="#A0A0A0"/>
<path d="M20.2841 9.47556C19.6528 9.82228 18.9206 9.93856 18.213 9.80445C17.3241 9.62667 16.3552 9.35111 15.4307 9.13778C14.8974 9.01333 14.3552 8.88889 13.813 8.80889C13.2314 8.73653 12.6411 8.80043 12.0885 8.99556L11.5907 9.12889L11.5552 9.06667L11.9107 8.50667C12.0462 8.28234 12.2403 8.09922 12.4721 7.97704C12.7039 7.85487 12.9647 7.79826 13.2263 7.81334C14.1496 7.84955 15.0563 8.07018 15.893 8.46222C16.6041 8.75556 17.3241 9.04889 18.053 9.28C18.7276 9.52069 19.4513 9.59092 20.1596 9.48445L20.2841 9.47556Z" fill="url(#paint2_linear_2707_319778)"/>
<path d="M12.0976 24.4178C12.0101 24.4631 11.9102 24.4787 11.8131 24.4622L11.422 24.3644L11.1998 24.32C11.1207 24.3027 11.0388 24.3027 10.9598 24.32H10.8887L10.942 24.2489C10.9605 24.2165 10.988 24.19 11.021 24.1727C11.0541 24.1554 11.0915 24.1479 11.1287 24.1511C11.2551 24.1545 11.3793 24.1848 11.4931 24.24L11.7953 24.3556C11.8919 24.3776 11.9921 24.3776 12.0887 24.3556L12.0976 24.4178Z" fill="#A0A0A0"/>
<path d="M20.1687 14.3733C19.8141 14.7602 19.3584 15.0404 18.8531 15.1822C18.1149 15.3408 17.3514 15.3408 16.6131 15.1822C15.8839 15.0586 15.1373 15.0828 14.4176 15.2533C14.0798 15.3689 13.7687 15.5911 13.4398 15.7422C13.3893 15.7642 13.3349 15.7756 13.2798 15.7756C13.2247 15.7756 13.1703 15.7642 13.1198 15.7422C12.8827 15.5769 12.657 15.3957 12.4443 15.2C12.4247 15.1614 12.4146 15.1188 12.4146 15.0756C12.4146 15.0323 12.4247 14.9897 12.4443 14.9511C12.8217 14.732 13.2138 14.5389 13.6176 14.3733C14.5892 14.1218 15.6121 14.1495 16.5687 14.4533C17.0754 14.5657 17.5892 14.6429 18.1065 14.6844C18.8094 14.8059 19.5328 14.6968 20.1687 14.3733Z" fill="url(#paint3_linear_2707_319778)"/>
<path d="M12.0799 25.0933C12.0311 25.1459 11.97 25.1856 11.9022 25.2089C11.7996 25.231 11.6936 25.231 11.5911 25.2089C11.4882 25.1906 11.3828 25.1906 11.2799 25.2089L11.1466 25.28L11.0488 25.2L11.2088 25.12C11.3422 25.08 11.4844 25.08 11.6177 25.12H11.8311C11.9148 25.1362 12.0015 25.1269 12.0799 25.0933Z" fill="#A0A0A0"/>
<path d="M13.5022 7.17333C13.7056 7.11916 13.9141 7.08639 14.1244 7.07555C14.5777 7.07555 15.0133 7.18222 15.4666 7.21778C16.0888 7.3468 16.6881 7.56854 17.2444 7.87555C17.9748 8.184 18.7629 8.33251 19.5555 8.31111C19.7777 8.31111 20.2844 8.76444 20.2577 8.98666C20.2577 9.04889 20.1066 9.13778 20.0177 9.14666C19.3867 9.21599 18.7482 9.13998 18.151 8.92444C17.6266 8.72889 17.1288 8.48 16.6044 8.24889C15.7417 7.83177 14.8269 7.53278 13.8844 7.36H13.6799H13.4844L13.5022 7.17333Z" fill="url(#paint4_linear_2707_319778)"/>
<path d="M11.1553 24.0978H11.2442H11.4308C11.5182 24.1176 11.6022 24.1506 11.6797 24.1956C11.7809 24.2383 11.8899 24.2595 11.9997 24.2578C11.9997 24.2578 12.0975 24.32 12.0975 24.3467C12.0124 24.3639 11.9248 24.3639 11.8397 24.3467L11.6264 24.2578C11.5087 24.1963 11.383 24.1515 11.2531 24.1244H11.1908L11.1553 24.0978Z" fill="#A0A0A0"/>
<path d="M13.7866 16.0711C13.8827 16.012 13.9839 15.9614 14.0888 15.92C14.6657 15.753 15.2705 15.7046 15.8666 15.7778C16.955 15.9294 18.064 15.7946 19.0844 15.3867H19.2711C18.72 16.5511 14.9511 17.0578 13.7866 16.0711Z" fill="url(#paint5_linear_2707_319778)"/>
<path d="M11.1997 25.3333C11.2851 25.3199 11.3721 25.3199 11.4575 25.3333C11.6078 25.3515 11.7602 25.3332 11.9019 25.28C11.7999 25.3499 11.6813 25.3917 11.558 25.4011C11.4347 25.4104 11.3111 25.3871 11.1997 25.3333Z" fill="#A0A0A0"/>
<path d="M15.2085 6.66667C15.9951 6.55075 16.798 6.62061 17.5528 6.87067C18.3076 7.12072 18.9933 7.54402 19.5552 8.10667C19.3361 8.11991 19.1164 8.11991 18.8974 8.10667C18.3142 7.98334 17.7555 7.76407 17.2441 7.45778C16.6305 7.10915 15.9589 6.87427 15.2618 6.76444C15.2618 6.76444 15.2441 6.69333 15.2085 6.66667Z" fill="url(#paint6_linear_2707_319778)"/>
<path d="M11.3955 24C11.5045 23.9849 11.6155 23.9946 11.7202 24.0285C11.8248 24.0623 11.9205 24.1194 12 24.1956H11.9111C11.8291 24.1761 11.751 24.143 11.68 24.0978C11.5945 24.0511 11.501 24.0209 11.4044 24.0089L11.3955 24Z" fill="#A0A0A0"/>
<path d="M19.0577 12.8C19.7902 12.735 20.4924 12.4774 21.0932 12.0533C21.0721 12.6412 20.842 13.2022 20.4443 13.6356C20.21 13.7766 19.9503 13.8702 19.6799 13.9111C18.6528 14.005 17.6174 13.933 16.6132 13.6978C15.7347 13.5253 14.8338 13.4983 13.9466 13.6178C13.2485 13.6973 12.5897 13.9819 12.0532 14.4356C12.0532 14.0533 12.5777 13.4844 13.2266 13.1378L13.3688 13.0578L13.9377 12.8356L14.2843 12.7644H14.3643H14.6043H15.3599H15.6532H15.991H16.3288H16.4799H17.2888H17.4221H18.2488L18.7999 12.72C18.884 12.7522 18.9701 12.7789 19.0577 12.8Z" fill="url(#paint7_linear_2707_319778)"/>
<path d="M11.9285 24.8889C12.0301 24.8754 12.1274 24.8389 12.2129 24.7822C12.2067 24.8653 12.1722 24.9437 12.1151 25.0044C12.0798 25.0095 12.0438 25.0095 12.0085 25.0044C11.8698 25.0224 11.7294 25.0224 11.5907 25.0044C11.4642 24.9824 11.3349 24.9824 11.2085 25.0044C11.1136 25.0187 11.0244 25.0586 10.9507 25.12C10.9507 25.0667 11.0218 24.9867 11.1107 24.9422H11.1818H11.9018L11.9285 24.8889Z" fill="#A0A0A0"/>
<path d="M13.9019 12.8178L13.333 13.04L13.9019 12.8178Z" fill="#ACCD62"/>
<path d="M18.7551 12.8178L18.2129 12.8622L18.7551 12.8178Z" fill="#ACCD62"/>
<path d="M13.3331 13.0578L13.1909 13.1378L13.3331 13.0578Z" fill="#ACCD62"/>
</g>
<defs>
<linearGradient id="paint0_linear_2707_319778" x1="9.60277" y1="10.8282" x2="18.2339" y2="10.8015" gradientUnits="userSpaceOnUse">
<stop stop-color="#ACCD62"/>
<stop offset="0.47" stop-color="#CEE077"/>
<stop offset="1" stop-color="#AECE63"/>
</linearGradient>
<linearGradient id="paint1_linear_2707_319778" x1="9.59692" y1="9.01564" x2="18.228" y2="8.98897" gradientUnits="userSpaceOnUse">
<stop stop-color="#ACCD62"/>
<stop offset="0.47" stop-color="#CEE077"/>
<stop offset="1" stop-color="#AECE63"/>
</linearGradient>
<linearGradient id="paint2_linear_2707_319778" x1="9.98522" y1="4.912" x2="16.083" y2="5.62311" gradientUnits="userSpaceOnUse">
<stop stop-color="#69BDA6"/>
<stop offset="0.47" stop-color="#8BD0C0"/>
<stop offset="1" stop-color="#6CBFA8"/>
</linearGradient>
<linearGradient id="paint3_linear_2707_319778" x1="16.8047" y1="14.8098" x2="21.3469" y2="14.8098" gradientUnits="userSpaceOnUse">
<stop stop-color="#DC4322"/>
<stop offset="0.59" stop-color="#F4824D"/>
<stop offset="1" stop-color="#DD4725"/>
</linearGradient>
<linearGradient id="paint4_linear_2707_319778" x1="10.0851" y1="4.05831" x2="16.1829" y2="4.76942" gradientUnits="userSpaceOnUse">
<stop stop-color="#69BDA6"/>
<stop offset="0.47" stop-color="#8BD0C0"/>
<stop offset="1" stop-color="#6CBFA8"/>
</linearGradient>
<linearGradient id="paint5_linear_2707_319778" x1="16.8048" y1="15.8091" x2="21.3471" y2="15.8091" gradientUnits="userSpaceOnUse">
<stop stop-color="#DC4322"/>
<stop offset="0.59" stop-color="#F4824D"/>
<stop offset="1" stop-color="#DD4725"/>
</linearGradient>
<linearGradient id="paint6_linear_2707_319778" x1="10.1843" y1="3.20462" x2="16.2821" y2="3.91573" gradientUnits="userSpaceOnUse">
<stop stop-color="#69BDA6"/>
<stop offset="0.47" stop-color="#8BD0C0"/>
<stop offset="1" stop-color="#6CBFA8"/>
</linearGradient>
<linearGradient id="paint7_linear_2707_319778" x1="13.8786" y1="15.0963" x2="20.6609" y2="14.8652" gradientUnits="userSpaceOnUse">
<stop stop-color="#F3A332"/>
<stop offset="0.54" stop-color="#FDBB4C"/>
<stop offset="1" stop-color="#F4A534"/>
</linearGradient>
<clipPath id="clip0_2707_319778">
<rect width="32" height="32" fill="white"/>
</clipPath>
</defs>
</svg>
