<svg width="32" height="32" viewBox="0 0 32 32" fill="none" xmlns="http://www.w3.org/2000/svg">
<g clip-path="url(#clip0_2707_319748)">
<path d="M16 32C24.8366 32 32 24.8366 32 16C32 7.16344 24.8366 0 16 0C7.16344 0 0 7.16344 0 16C0 24.8366 7.16344 32 16 32Z" fill="white"/>
<path d="M15.9998 29.3333C23.3636 29.3333 29.3332 23.3638 29.3332 16C29.3332 8.63621 23.3636 2.66667 15.9998 2.66667C8.63604 2.66667 2.6665 8.63621 2.6665 16C2.6665 23.3638 8.63604 29.3333 15.9998 29.3333Z" fill="white"/>
<path d="M24.4801 19.2267H21.4667V9.33334L19.7245 8.06223H16.3023L16.4178 19.4844H16.0178H15.609L15.7245 8.06223H12.3023L10.5601 9.33334V19.2267H7.54673L5.34229 20.7022V22.4356H16.0178H26.6845V20.7022L24.4801 19.2267Z" fill="#224997"/>
<path d="M26.6756 22.8445H5.34229V23.92H26.6756V22.8445Z" fill="#224997"/>
</g>
<defs>
<clipPath id="clip0_2707_319748">
<rect width="32" height="32" fill="white"/>
</clipPath>
</defs>
</svg>
