<svg width="32" height="32" viewBox="0 0 32 32" fill="none" xmlns="http://www.w3.org/2000/svg">
<g clip-path="url(#clip0_2707_319538)">
<path d="M15.9998 31.9823C24.8265 31.9823 31.982 24.8268 31.982 16C31.982 7.17331 24.8265 0.0178223 15.9998 0.0178223C7.17306 0.0178223 0.0175781 7.17331 0.0175781 16C0.0175781 24.8268 7.17306 31.9823 15.9998 31.9823Z" fill="white"/>
<path fill-rule="evenodd" clip-rule="evenodd" d="M19.4312 18.2667L19.8934 14.9867H20.5867L21.6623 17.3778L21.9912 14.9867H22.5512L22.1334 18.2667H21.5112L20.32 15.7422L20.0267 18.2667H19.4312Z" fill="#404041"/>
<path fill-rule="evenodd" clip-rule="evenodd" d="M17.7778 15.6889L17.8934 15.2533C17.5984 15.0606 17.2496 14.9672 16.8978 14.9867C16.6461 14.9612 16.3918 14.9899 16.152 15.0706C15.9122 15.1513 15.6924 15.2823 15.5073 15.4548C15.3221 15.6273 15.176 15.8373 15.0786 16.0708C14.9811 16.3043 14.9346 16.556 14.9422 16.8089C14.9209 17.0153 14.9472 17.2239 15.0189 17.4186C15.0906 17.6134 15.206 17.7891 15.3561 17.9324C15.5063 18.0757 15.6872 18.1827 15.8851 18.2453C16.083 18.3078 16.2926 18.3243 16.4978 18.2933C17.5467 18.2933 17.6089 17.7333 17.6089 17.7333L17.7156 16.4089H16.4534L16.4 16.8267H17.0489V17.5289C17.0318 17.588 17 17.6418 16.9565 17.6854C16.913 17.7289 16.8592 17.7607 16.8 17.7778C16.6045 17.8222 15.8489 17.84 15.6534 17.2267C15.5354 16.8787 15.5576 16.4985 15.7153 16.1666C15.8729 15.8348 16.1536 15.5773 16.4978 15.4489C16.716 15.3958 16.9429 15.3897 17.1636 15.4311C17.3843 15.4725 17.5937 15.5603 17.7778 15.6889Z" fill="#404041"/>
<path fill-rule="evenodd" clip-rule="evenodd" d="M9.69736 14.9867L9.29736 18.2667H11.0218V17.8045L9.93736 17.7511L10.2663 15.0222L9.69736 14.9867Z" fill="#404041"/>
<path fill-rule="evenodd" clip-rule="evenodd" d="M18.5596 14.9867L18.1685 18.2667H18.7729L19.164 14.9956L18.5596 14.9867Z" fill="#404041"/>
<path fill-rule="evenodd" clip-rule="evenodd" d="M13.2441 14.88C13.4511 14.8834 13.6547 14.9333 13.8398 15.0262C14.0248 15.1191 14.1866 15.2525 14.313 15.4165C14.4394 15.5804 14.5272 15.7708 14.5699 15.9734C14.6126 16.176 14.6091 16.3856 14.5597 16.5867C14.4973 17.0383 14.2811 17.4547 13.9476 17.7656C13.614 18.0765 13.1835 18.2629 12.7286 18.2933C12.5221 18.2883 12.3194 18.2373 12.1352 18.1439C11.951 18.0505 11.79 17.9172 11.6639 17.7537C11.5378 17.5901 11.4499 17.4004 11.4065 17.1985C11.3631 16.9966 11.3653 16.7876 11.413 16.5867C11.4754 16.135 11.6916 15.7186 12.0251 15.4077C12.3587 15.0969 12.7892 14.9105 13.2441 14.88ZM13.173 15.3689C13.7241 15.3689 14.0619 15.9111 13.9908 16.5867C13.9539 16.8883 13.8177 17.169 13.6036 17.3846C13.3896 17.6003 13.1099 17.7386 12.8086 17.7778C12.2486 17.7778 11.9197 17.2267 11.9819 16.5511C12.0211 16.2498 12.1594 15.9701 12.375 15.7561C12.5907 15.542 12.8714 15.4058 13.173 15.3689Z" fill="#404041"/>
<path fill-rule="evenodd" clip-rule="evenodd" d="M27.982 14.8801C28.192 14.8781 28.3997 14.9241 28.5893 15.0147C28.7788 15.1052 28.9451 15.2379 29.0754 15.4026C29.2058 15.5673 29.2968 15.7596 29.3415 15.9648C29.3861 16.17 29.3833 16.3828 29.3331 16.5867C29.2708 17.0384 29.0546 17.4548 28.721 17.7657C28.3875 18.0765 27.957 18.2629 27.502 18.2934C27.2956 18.2884 27.0928 18.2373 26.9086 18.144C26.7244 18.0506 26.5634 17.9173 26.4373 17.7537C26.3113 17.5902 26.2233 17.4005 26.1799 17.1986C26.1365 16.9967 26.1387 16.7877 26.1865 16.5867C26.2474 16.1406 26.4584 15.7286 26.7848 15.4184C27.1111 15.1082 27.5334 14.9183 27.982 14.8801ZM27.9109 15.369C28.462 15.369 28.7998 15.9112 28.7287 16.5867C28.6922 16.887 28.5573 17.1667 28.345 17.3822C28.1327 17.5977 27.855 17.7368 27.5553 17.7778C26.9953 17.7778 26.6665 17.2267 26.7287 16.5512C26.766 16.2506 26.9025 15.9711 27.1167 15.7569C27.3308 15.5428 27.6103 15.4062 27.9109 15.369Z" fill="#404041"/>
<path fill-rule="evenodd" clip-rule="evenodd" d="M22.853 18.2667L23.253 14.9867H24.4797C24.75 14.9888 25.0133 15.0724 25.2352 15.2267C25.4578 15.3785 25.6255 15.5979 25.7136 15.8525C25.8016 16.107 25.8053 16.3832 25.7241 16.64C25.5464 17.44 25.2886 17.8845 24.693 18.0978C24.0925 18.2511 23.4714 18.3081 22.853 18.2667ZM23.7864 15.4578L23.4664 17.7778C23.7991 17.8462 24.1451 17.8057 24.453 17.6623C24.9153 17.44 25.093 16.9956 25.0664 16.16C25.0397 15.3245 23.7864 15.4578 23.7864 15.4578Z" fill="#404041"/>
<path d="M4.18652 16.569C4.37319 16.0445 4.55986 15.529 4.73763 15.0045L5.99097 14.4268C5.8843 14.9156 5.8043 15.3156 5.7243 15.6445L4.49763 16.489C4.40574 16.5354 4.30649 16.5654 4.2043 16.5779L4.18652 16.569Z" fill="url(#paint0_linear_2707_319538)"/>
<path d="M4.23992 13.7423L5.64436 13.9823L4.67547 14.729H2.74658L4.23992 13.7423Z" fill="url(#paint1_linear_2707_319538)"/>
<path d="M3.9375 11.8044L5.14639 12.3289V11.5555L5.89306 12.1333L6.07972 12.8889L5.19083 12.32C5.19083 12.32 5.46639 12.72 5.51972 12.8089L5.72417 13.0755C4.63972 12.8711 4.52417 12.7911 3.9375 11.8044Z" fill="url(#paint2_linear_2707_319538)"/>
<path d="M6.22223 17.3512L5.95557 15.769L6.5689 14.6757C6.67557 15.129 6.76446 15.4934 6.85334 15.8934C6.67557 16.3645 6.49779 16.8623 6.31112 17.3601L6.22223 17.3512Z" fill="url(#paint3_linear_2707_319538)"/>
<path d="M4.29312 12.8356L5.43978 13.4133L4.19534 13.4845L2.88867 12.8356H4.29312Z" fill="url(#paint4_linear_2707_319538)"/>
<path d="M7.74187 16.6578L7.11076 15.929L7.03076 14.809L7.63521 15.6534L7.74187 16.6578Z" fill="url(#paint5_linear_2707_319538)"/>
<path d="M7.45752 14.5067L8.07085 14.9156L8.31974 15.6L7.70641 15.2178L7.45752 14.5067Z" fill="url(#paint6_linear_2707_319538)"/>
<path d="M6.39069 11.8756L6.79069 12.5334L6.52402 12.9601L6.12402 12.2045L6.39069 11.8756Z" fill="url(#paint7_linear_2707_319538)"/>
<path d="M7.99995 13.9556L8.47995 14.4711L7.99995 14.5333L7.39551 14.0178L7.99995 13.9556Z" fill="url(#paint8_linear_2707_319538)"/>
<path d="M7.59971 13.1733L8.13304 13.36L7.87526 13.6978L7.19971 13.5911L7.59971 13.1733Z" fill="url(#paint9_linear_2707_319538)"/>
<path d="M6.94189 13.2533C6.95742 13.0647 6.98713 12.8775 7.03078 12.6933L7.39523 12.4445L7.44856 12.9067L6.94189 13.2533Z" fill="url(#paint10_linear_2707_319538)"/>
<path d="M8.31982 15.6001C8.3376 15.6179 8.35538 15.6445 8.31982 15.6001V15.6001Z" fill="url(#paint11_linear_2707_319538)"/>
<path d="M18.0178 19.6622H18.1334C18.1284 19.6916 18.1284 19.7217 18.1334 19.7511C18.1464 19.7731 18.1647 19.7915 18.1867 19.8044C18.2187 19.8136 18.2525 19.8136 18.2845 19.8044C18.3215 19.8198 18.363 19.8198 18.4 19.8044C18.4127 19.7972 18.4234 19.7869 18.4312 19.7745C18.4389 19.7621 18.4435 19.7479 18.4445 19.7333C18.4506 19.7161 18.4506 19.6973 18.4445 19.68C18.413 19.6464 18.3731 19.6218 18.3289 19.6089L18.1956 19.5556L18.1334 19.4933C18.1239 19.4645 18.1239 19.4333 18.1334 19.4044C18.1323 19.3789 18.1374 19.3534 18.1482 19.3302C18.1591 19.307 18.1753 19.2867 18.1956 19.2711C18.2195 19.2493 18.2476 19.2325 18.2781 19.2218C18.3087 19.2111 18.3411 19.2067 18.3734 19.2089C18.4469 19.2032 18.5199 19.2254 18.5778 19.2711C18.6002 19.2909 18.6176 19.3157 18.6284 19.3435C18.6392 19.3714 18.6432 19.4014 18.64 19.4311H18.5334C18.5416 19.399 18.5416 19.3654 18.5334 19.3333C18.4925 19.3232 18.4498 19.3232 18.4089 19.3333C18.3802 19.3232 18.3488 19.3232 18.32 19.3333C18.3159 19.3432 18.3137 19.3538 18.3137 19.3644C18.3137 19.3751 18.3159 19.3857 18.32 19.3956C18.3159 19.4054 18.3137 19.416 18.3137 19.4267C18.3137 19.4374 18.3159 19.4479 18.32 19.4578L18.4267 19.5022C18.4869 19.5275 18.5437 19.5603 18.5956 19.6C18.6291 19.6328 18.6483 19.6775 18.6489 19.7244C18.6604 19.7591 18.6604 19.7965 18.6489 19.8311C18.6235 19.8621 18.5935 19.889 18.56 19.9111C18.5072 19.9212 18.4529 19.9212 18.4 19.9111C18.3296 19.9138 18.2604 19.8918 18.2045 19.8489C18.1796 19.8502 18.1548 19.8462 18.1316 19.8373C18.1083 19.8284 18.0872 19.8146 18.0696 19.7971C18.0521 19.7795 18.0383 19.7584 18.0294 19.7351C18.0205 19.7119 18.0165 19.6871 18.0178 19.6622Z" fill="#38678C"/>
<path d="M19.4043 19.8934L19.5465 19.209H19.6532V19.3512C19.6819 19.3043 19.7179 19.2623 19.7599 19.2268C19.7913 19.2144 19.8262 19.2144 19.8576 19.2268H19.9465L19.9021 19.3334C19.8791 19.3253 19.854 19.3253 19.831 19.3334C19.807 19.3344 19.7835 19.3404 19.762 19.3511C19.7406 19.3619 19.7217 19.377 19.7065 19.3957C19.6523 19.4693 19.6158 19.5545 19.5999 19.6445L19.5465 19.9201L19.4043 19.8934Z" fill="#38678C"/>
<path d="M20.0178 19.8934L19.9111 19.209H20.0267L20.08 19.5823C20.08 19.5823 20.08 19.6979 20.08 19.7868C20.1063 19.7288 20.136 19.6724 20.1689 19.6179L20.4 19.209H20.5156L20.1245 19.8934H20.0178Z" fill="#38678C"/>
<path d="M21.013 19.6622H21.1286C21.1066 19.7304 21.064 19.7901 21.0067 19.8331C20.9494 19.876 20.8802 19.9002 20.8086 19.9022C20.7621 19.9156 20.7128 19.9156 20.6664 19.9022C20.6251 19.8757 20.5914 19.839 20.5686 19.7956C20.5585 19.7457 20.5585 19.6943 20.5686 19.6445C20.5682 19.57 20.5865 19.4967 20.6219 19.4311C20.6514 19.367 20.6975 19.3118 20.7552 19.2711C20.8111 19.2359 20.8759 19.2174 20.9419 19.2178C20.9783 19.2166 21.0146 19.2231 21.0483 19.2368C21.082 19.2506 21.1124 19.2714 21.1375 19.2978C21.1872 19.3539 21.2127 19.4274 21.2086 19.5022C21.2129 19.5377 21.2129 19.5735 21.2086 19.6089H20.7019C20.698 19.6344 20.6999 19.6605 20.7076 19.6852C20.7153 19.7098 20.7286 19.7324 20.7464 19.7511C20.7582 19.7682 20.7742 19.7821 20.7929 19.7914C20.8115 19.8007 20.8322 19.8052 20.853 19.8045C20.8907 19.8161 20.9309 19.8161 20.9686 19.8045C20.9987 19.7633 21.0143 19.7133 21.013 19.6622ZM20.6752 19.4934H21.0664C21.0695 19.4448 21.0535 19.397 21.0219 19.36C21.0073 19.3437 20.9895 19.3305 20.9697 19.3214C20.9498 19.3122 20.9282 19.3072 20.9064 19.3067C20.8816 19.3058 20.857 19.3101 20.8341 19.3193C20.8111 19.3285 20.7903 19.3423 20.773 19.36C20.7283 19.3942 20.6944 19.4405 20.6752 19.4934Z" fill="#38678C"/>
<path d="M21.7508 19.8934L21.6797 19.209H21.7864V19.5201V19.689C21.7879 19.7156 21.7879 19.7423 21.7864 19.769C21.78 19.7337 21.78 19.6976 21.7864 19.6623V19.5645L21.9552 19.209H22.2219V19.5557V19.769L22.3286 19.529L22.4797 19.2179H22.5952L22.2575 19.9023H22.1419V19.5023C22.1419 19.5023 22.1419 19.4223 22.1419 19.3512C22.125 19.4031 22.1042 19.4536 22.0797 19.5023L21.9019 19.9023L21.7508 19.8934Z" fill="#38678C"/>
<path d="M22.7466 19.0756V18.9423H22.8622V19.0756H22.7466ZM22.5688 19.8934L22.72 19.2089H22.8355L22.6933 19.8934H22.5688Z" fill="#38678C"/>
<path d="M23.1107 19.7956V19.8933H23.0307C22.9931 19.905 22.9528 19.905 22.9151 19.8933C22.9062 19.8705 22.9062 19.8451 22.9151 19.8222C22.912 19.7867 22.912 19.751 22.9151 19.7156L23.004 19.3156H22.9062V19.2267H22.9951V19.0578L23.1285 18.9778L23.0751 19.2267H23.1907V19.3156H23.1107L23.0307 19.6978C23.0289 19.7274 23.0289 19.7571 23.0307 19.7867H23.1107V19.7956Z" fill="#38678C"/>
<path d="M23.2441 19.8934L23.4397 18.9423H23.5553L23.4841 19.3067C23.5199 19.2737 23.5586 19.2439 23.5997 19.2178H23.7153C23.7638 19.2147 23.8116 19.2306 23.8486 19.2623C23.8658 19.2761 23.8796 19.2937 23.8889 19.3137C23.8982 19.3338 23.9026 19.3557 23.9019 19.3778C23.9071 19.4221 23.9071 19.4669 23.9019 19.5112L23.8219 19.92H23.7064L23.7864 19.5023C23.7911 19.4639 23.7911 19.4251 23.7864 19.3867C23.7925 19.3695 23.7925 19.3506 23.7864 19.3334C23.7631 19.3269 23.7385 19.3269 23.7153 19.3334C23.6776 19.3217 23.6373 19.3217 23.5997 19.3334C23.5594 19.3533 23.5256 19.3841 23.5019 19.4223C23.4769 19.4822 23.459 19.5448 23.4486 19.6089L23.3864 19.9023L23.2441 19.8934Z" fill="#38678C"/>
<path d="M24.5156 19.0756V18.9423H24.6311V19.0756H24.5156ZM24.3467 19.8934L24.4889 19.2089H24.6045L24.4622 19.8934H24.3467Z" fill="#38678C"/>
<path d="M24.6396 19.8934L24.7908 19.209H24.8885V19.3245C24.9249 19.2859 24.9669 19.253 25.013 19.2268C25.0536 19.2149 25.0968 19.2149 25.1374 19.2268C25.1855 19.2268 25.2323 19.2424 25.2708 19.2712C25.2996 19.3063 25.3153 19.3503 25.3152 19.3957C25.322 19.4339 25.322 19.473 25.3152 19.5112L25.2263 19.929H25.1108L25.2085 19.4934C25.2118 19.4639 25.2118 19.4341 25.2085 19.4045C25.2127 19.3947 25.2148 19.3841 25.2148 19.3734C25.2148 19.3627 25.2127 19.3522 25.2085 19.3423H25.1463C25.1168 19.341 25.0873 19.3459 25.0598 19.3566C25.0322 19.3673 25.0072 19.3837 24.9863 19.4045C24.9283 19.4655 24.8909 19.5433 24.8796 19.6268L24.8174 19.9468L24.6396 19.8934Z" fill="#38678C"/>
<path d="M25.6532 19.7956V19.8933H25.5732C25.5353 19.9035 25.4955 19.9035 25.4576 19.8933C25.4487 19.8705 25.4487 19.8451 25.4576 19.8222C25.4515 19.7869 25.4515 19.7509 25.4576 19.7156L25.5376 19.3156H25.4487V19.2267H25.5376V19.0578L25.671 18.9778L25.6176 19.2267H25.7776V19.3156H25.6621L25.5821 19.6978C25.5788 19.7273 25.5788 19.7571 25.5821 19.7867H25.6887L25.6532 19.7956Z" fill="#38678C"/>
<path d="M26.2578 19.6623H26.3733C26.3516 19.7259 26.3113 19.7816 26.2578 19.8223C26.1989 19.8742 26.1229 19.9027 26.0444 19.9023C25.9979 19.9156 25.9487 19.9156 25.9022 19.9023C25.8631 19.8733 25.8299 19.8371 25.8044 19.7956C25.7944 19.7457 25.7944 19.6944 25.8044 19.6445C25.8053 19.5712 25.8204 19.4988 25.8489 19.4312C25.8787 19.3645 25.9284 19.3086 25.9911 19.2712C26.0438 19.2362 26.1056 19.2177 26.1689 19.2178C26.2053 19.216 26.2418 19.2222 26.2755 19.2361C26.3093 19.2499 26.3397 19.271 26.3644 19.2978C26.3909 19.3244 26.411 19.3565 26.4234 19.3919C26.4357 19.4273 26.4398 19.4651 26.4355 19.5023C26.4399 19.5377 26.4399 19.5735 26.4355 19.609H25.9289C25.9253 19.6603 25.9411 19.711 25.9733 19.7512C25.9852 19.7683 26.0012 19.7821 26.0198 19.7914C26.0385 19.8008 26.0591 19.8053 26.08 19.8045C26.1206 19.8164 26.1638 19.8164 26.2044 19.8045C26.2311 19.7609 26.2492 19.7127 26.2578 19.6623ZM25.9111 19.4934H26.3022C26.3053 19.4449 26.2894 19.397 26.2578 19.3601C26.244 19.3428 26.2263 19.329 26.2063 19.3197C26.1862 19.3105 26.1643 19.306 26.1422 19.3067C26.0926 19.307 26.0449 19.326 26.0089 19.3601C25.9662 19.3962 25.9327 19.4419 25.9111 19.4934Z" fill="#38678C"/>
<path d="M26.4797 19.9556H26.6042C26.5995 19.9653 26.597 19.976 26.597 19.9868C26.597 19.9975 26.5995 20.0082 26.6042 20.0179H26.6842C26.7117 20.0208 26.7396 20.0175 26.7657 20.0082C26.7919 19.999 26.8156 19.9841 26.8353 19.9645C26.8614 19.9144 26.8794 19.8604 26.8886 19.8045V19.7512C26.864 19.7788 26.8338 19.8009 26.8002 19.8162C26.7665 19.8315 26.73 19.8396 26.6931 19.8401C26.6602 19.8406 26.6276 19.8345 26.5971 19.8223C26.5665 19.8101 26.5387 19.792 26.5153 19.769C26.4652 19.7061 26.4399 19.627 26.4442 19.5468C26.443 19.4722 26.4614 19.3987 26.4975 19.3334C26.5327 19.2781 26.5779 19.2299 26.6308 19.1912C26.6775 19.1577 26.7333 19.1391 26.7908 19.1379C26.8332 19.1369 26.875 19.1482 26.9112 19.1702C26.9475 19.1923 26.9766 19.2242 26.9953 19.2623V19.1556H27.1019L26.9686 19.8223C26.9563 19.8814 26.9353 19.9383 26.9064 19.9912C26.8796 20.03 26.8427 20.0608 26.7997 20.0801C26.7503 20.0942 26.698 20.0942 26.6486 20.0801H26.5064C26.4722 20.0667 26.4418 20.0454 26.4175 20.0179C26.4084 19.9859 26.4084 19.952 26.4175 19.9201L26.4797 19.9556ZM26.6664 19.5556C26.6612 19.591 26.6612 19.627 26.6664 19.6623C26.6798 19.689 26.6978 19.7131 26.7197 19.7334C26.7458 19.7411 26.7736 19.7411 26.7997 19.7334C26.8372 19.7463 26.8778 19.7463 26.9153 19.7334C26.9593 19.7024 26.9933 19.6591 27.0131 19.609C27.0196 19.5558 27.0196 19.5021 27.0131 19.449C27.0146 19.4229 27.0107 19.3967 27.0015 19.3722C26.9923 19.3477 26.9781 19.3254 26.9597 19.3068C26.9447 19.2916 26.9266 19.2798 26.9067 19.2722C26.8868 19.2645 26.8655 19.2611 26.8442 19.2623H26.7642C26.7362 19.2813 26.712 19.3054 26.6931 19.3334C26.6665 19.3673 26.6482 19.4068 26.6397 19.449C26.6399 19.4862 26.649 19.5228 26.6664 19.5556Z" fill="#38678C"/>
<path d="M27.2266 19.8934L27.3688 19.209H27.4755V19.3512C27.4983 19.3029 27.5317 19.2604 27.5732 19.2268C27.6079 19.2152 27.6453 19.2152 27.6799 19.2268H27.7688L27.7155 19.3334C27.6954 19.3259 27.6733 19.3259 27.6532 19.3334C27.6279 19.3342 27.6031 19.3402 27.5802 19.3508C27.5573 19.3615 27.5367 19.3768 27.5199 19.3957C27.4728 19.4721 27.4397 19.5564 27.4221 19.6445L27.3599 19.9201L27.2266 19.8934Z" fill="#38678C"/>
<path d="M27.831 19.0756V18.9423H27.9466V19.0756H27.831ZM27.6621 19.8934L27.8043 19.2089H27.9288L27.7777 19.8934H27.6621Z" fill="#38678C"/>
<path d="M28.24 19.7956V19.8933H28.16C28.1252 19.9037 28.0881 19.9037 28.0533 19.8933C28.0479 19.8823 28.045 19.8701 28.045 19.8578C28.045 19.8454 28.0479 19.8333 28.0533 19.8222C28.0533 19.8222 28.0533 19.7689 28.0533 19.7156L28.1422 19.3156H28V19.2267H28.0978V19.0578L28.2311 18.9778L28.1778 19.2267H28.2933V19.3156H28.1778L28.0978 19.6978C28.096 19.7274 28.096 19.7571 28.0978 19.7867H28.2133L28.24 19.7956Z" fill="#38678C"/>
<path d="M28.2842 20.1601V20.0534H28.3553H28.4175L28.4797 19.9734V19.9023L28.4442 19.209H28.5597L28.6131 19.5557V19.7601L28.9153 19.209H29.0397L28.6042 19.9823C28.579 20.0416 28.5393 20.0936 28.4886 20.1334C28.4563 20.161 28.4155 20.1766 28.3731 20.1779L28.2842 20.1601Z" fill="#38678C"/>
</g>
<defs>
<linearGradient id="paint0_linear_2707_319538" x1="7.17817" y1="13.4004" x2="8.93817" y2="11.9782" gradientUnits="userSpaceOnUse">
<stop stop-color="#FCB51E"/>
<stop offset="1" stop-color="#FFD302"/>
</linearGradient>
<linearGradient id="paint1_linear_2707_319538" x1="6.29645" y1="12.3092" x2="8.05645" y2="10.887" gradientUnits="userSpaceOnUse">
<stop stop-color="#FCB51E"/>
<stop offset="1" stop-color="#FFD302"/>
</linearGradient>
<linearGradient id="paint2_linear_2707_319538" x1="5.64203" y1="11.4995" x2="7.40203" y2="10.0773" gradientUnits="userSpaceOnUse">
<stop stop-color="#FCB51E"/>
<stop offset="1" stop-color="#FFD302"/>
</linearGradient>
<linearGradient id="paint3_linear_2707_319538" x1="7.98899" y1="14.4037" x2="9.74899" y2="12.9814" gradientUnits="userSpaceOnUse">
<stop stop-color="#FCB51E"/>
<stop offset="1" stop-color="#FFD302"/>
</linearGradient>
<linearGradient id="paint4_linear_2707_319538" x1="5.68476" y1="11.5524" x2="7.44476" y2="10.1301" gradientUnits="userSpaceOnUse">
<stop stop-color="#FCB51E"/>
<stop offset="1" stop-color="#FFD302"/>
</linearGradient>
<linearGradient id="paint5_linear_2707_319538" x1="8.23041" y1="14.7028" x2="9.99041" y2="13.2806" gradientUnits="userSpaceOnUse">
<stop stop-color="#FCB51E"/>
<stop offset="1" stop-color="#FFD302"/>
</linearGradient>
<linearGradient id="paint6_linear_2707_319538" x1="8.1025" y1="14.5444" x2="9.8625" y2="13.1222" gradientUnits="userSpaceOnUse">
<stop stop-color="#FCB51E"/>
<stop offset="1" stop-color="#FFD302"/>
</linearGradient>
<linearGradient id="paint7_linear_2707_319538" x1="6.23922" y1="12.2388" x2="7.99922" y2="10.8166" gradientUnits="userSpaceOnUse">
<stop stop-color="#FCB51E"/>
<stop offset="1" stop-color="#FFD302"/>
</linearGradient>
<linearGradient id="paint8_linear_2707_319538" x1="7.71871" y1="14.0692" x2="9.47871" y2="12.6469" gradientUnits="userSpaceOnUse">
<stop stop-color="#FCB51E"/>
<stop offset="1" stop-color="#FFD302"/>
</linearGradient>
<linearGradient id="paint9_linear_2707_319538" x1="7.24913" y1="13.4884" x2="9.00913" y2="12.0661" gradientUnits="userSpaceOnUse">
<stop stop-color="#FCB51E"/>
<stop offset="1" stop-color="#FFD302"/>
</linearGradient>
<linearGradient id="paint10_linear_2707_319538" x1="6.75132" y1="12.8724" x2="8.51132" y2="11.4501" gradientUnits="userSpaceOnUse">
<stop stop-color="#FCB51E"/>
<stop offset="1" stop-color="#FFD302"/>
</linearGradient>
<linearGradient id="paint11_linear_2707_319538" x1="8.54347" y1="15.0901" x2="10.3035" y2="13.6678" gradientUnits="userSpaceOnUse">
<stop stop-color="#FCB51E"/>
<stop offset="1" stop-color="#FFD302"/>
</linearGradient>
<clipPath id="clip0_2707_319538">
<rect width="32" height="32" fill="white"/>
</clipPath>
</defs>
</svg>
