<svg width="32" height="32" viewBox="0 0 32 32" fill="none" xmlns="http://www.w3.org/2000/svg">
<g clip-path="url(#clip0_2707_319493)">
<path d="M15.9998 31.9823C24.8265 31.9823 31.982 24.8268 31.982 16C31.982 7.17331 24.8265 0.0178223 15.9998 0.0178223C7.17306 0.0178223 0.0175781 7.17331 0.0175781 16C0.0175781 24.8268 7.17306 31.9823 15.9998 31.9823Z" fill="white"/>
<path d="M15.9999 29.2534C23.3195 29.2534 29.2532 23.3197 29.2532 16C29.2532 8.68042 23.3195 2.7467 15.9999 2.7467C8.6803 2.7467 2.74658 8.68042 2.74658 16C2.74658 23.3197 8.6803 29.2534 15.9999 29.2534Z" fill="#003155"/>
<path fill-rule="evenodd" clip-rule="evenodd" d="M22.0799 27.8844V14.7822H24.5866C25.0129 14.8317 25.4103 15.0226 25.7154 15.3244C26.0297 15.5817 26.288 15.9005 26.4745 16.2612C26.661 16.622 26.7717 17.0171 26.7999 17.4222C26.7999 19.7867 24.1954 20.0889 24.1954 20.0889H23.991L24.0443 20.4978H24.2488C24.2488 20.4978 27.2177 20.1067 27.2177 17.3955C27.1879 16.9308 27.0629 16.477 26.8503 16.0626C26.6378 15.6482 26.3422 15.282 25.9821 14.9867C25.606 14.6155 25.1128 14.3861 24.5866 14.3378H21.6621V28.0978H22.0799V27.8844Z" fill="white"/>
<path fill-rule="evenodd" clip-rule="evenodd" d="M14.4529 22.5423V15.0401L17.2352 17.1645L19.9463 15.0045V22.5423H20.3552V14.5423L20.0174 14.3734L17.2263 16.6045L14.364 14.4179L14.0352 14.5867V22.5067L14.4529 22.5423Z" fill="white"/>
<path d="M12.7376 2.53333H12.3198V22.5333H12.7376V2.53333Z" fill="white"/>
</g>
<defs>
<clipPath id="clip0_2707_319493">
<rect width="32" height="32" fill="white"/>
</clipPath>
</defs>
</svg>
