<svg width="32" height="32" viewBox="0 0 32 32" fill="none" xmlns="http://www.w3.org/2000/svg">
<g clip-path="url(#clip0_2707_319273)">
<path d="M16 32C24.8366 32 32 24.8366 32 16C32 7.16344 24.8366 0 16 0C7.16344 0 0 7.16344 0 16C0 24.8366 7.16344 32 16 32Z" fill="#F0B543"/>
<path d="M15.9998 29.3333C23.3636 29.3333 29.3332 23.3638 29.3332 16C29.3332 8.63616 23.3636 2.66663 15.9998 2.66663C8.63604 2.66663 2.6665 8.63616 2.6665 16C2.6665 23.3638 8.63604 29.3333 15.9998 29.3333Z" fill="#F0B543"/>
<path d="M3.12012 12.8534V18.1867C3.14499 18.45 3.27094 18.6934 3.4715 18.8658C3.67206 19.0382 3.93163 19.1261 4.19567 19.1112H5.08456C5.08456 19.1112 5.44901 19.1112 5.44901 18.6223V18.1245H4.76456C4.76456 18.1245 4.26678 18.1245 4.26678 17.4045V12.8534H3.12012Z" fill="#2B3148"/>
<path d="M6.92463 14.8711H6.26686C6.13431 14.8711 6.02686 14.9785 6.02686 15.1111V18.8711C6.02686 19.0036 6.13431 19.1111 6.26686 19.1111H6.92463C7.05718 19.1111 7.16463 19.0036 7.16463 18.8711V15.1111C7.16463 14.9785 7.05718 14.8711 6.92463 14.8711Z" fill="#2B3148"/>
<path d="M10.1955 15.0489C9.54659 15.0489 9.0577 15.8488 9.0577 15.8488V15.1111C9.05539 15.0443 9.02722 14.981 8.97913 14.9345C8.93103 14.8881 8.86678 14.8621 8.79992 14.8622H8.16881C8.1028 14.8622 8.0395 14.8884 7.99282 14.9351C7.94614 14.9818 7.91992 15.0451 7.91992 15.1111V18.8533C7.91992 18.9193 7.94614 18.9826 7.99282 19.0293C8.0395 19.076 8.1028 19.1022 8.16881 19.1022H8.79992C8.86678 19.1022 8.93103 19.0763 8.97913 19.0299C9.02722 18.9834 9.05539 18.9201 9.0577 18.8533V16.7555C9.0577 16.7555 9.0577 15.9822 9.72437 15.9822C9.90674 15.9798 10.0827 16.0493 10.2142 16.1758C10.3456 16.3023 10.4219 16.4754 10.4266 16.6577V18.8622C10.4266 18.9282 10.4528 18.9915 10.4995 19.0382C10.5462 19.0848 10.6095 19.1111 10.6755 19.1111H11.3066C11.3734 19.1111 11.4377 19.0852 11.4858 19.0387C11.5339 18.9923 11.5621 18.929 11.5644 18.8622V16.6577C11.5555 15.2888 10.8355 15.0489 10.1955 15.0489Z" fill="#2B3148"/>
<path d="M19.2087 15.0489C18.5687 15.0489 18.0709 15.8488 18.0709 15.8488V15.1111C18.0709 15.0451 18.0447 14.9818 17.998 14.9351C17.9513 14.8884 17.888 14.8622 17.822 14.8622H17.1909C17.124 14.8621 17.0598 14.8881 17.0117 14.9345C16.9636 14.981 16.9354 15.0443 16.9331 15.1111V18.8533C16.9354 18.9201 16.9636 18.9834 17.0117 19.0299C17.0598 19.0763 17.124 19.1022 17.1909 19.1022H17.822C17.888 19.1022 17.9513 19.076 17.998 19.0293C18.0447 18.9826 18.0709 18.9193 18.0709 18.8533V16.7555C18.0709 16.7555 18.0709 15.9822 18.7464 15.9822C18.8363 15.981 18.9256 15.9976 19.0091 16.0309C19.0925 16.0642 19.1687 16.1136 19.233 16.1763C19.2974 16.2391 19.3488 16.3139 19.3843 16.3965C19.4198 16.4791 19.4386 16.5679 19.4398 16.6577V18.8622C19.4421 18.929 19.4703 18.9923 19.5183 19.0387C19.5664 19.0852 19.6307 19.1111 19.6976 19.1111H20.3287C20.3947 19.1111 20.458 19.0848 20.5047 19.0382C20.5513 18.9915 20.5776 18.9282 20.5776 18.8622V16.6577C20.5776 15.2888 19.8576 15.0489 19.2087 15.0489Z" fill="#2B3148"/>
<path d="M5.94678 14.32C6.32397 14.32 6.68572 14.1702 6.95244 13.9035C7.21916 13.6368 7.369 13.275 7.369 12.8978H5.94678V14.32Z" fill="#F30013"/>
<path d="M14.8444 16.9867L16.6222 14.8712H15.1555L13.5022 16.7289V13.1734C13.5022 13.1074 13.476 13.0441 13.4293 12.9974C13.3826 12.9507 13.3193 12.9245 13.2533 12.9245H12.6133C12.5803 12.9232 12.5474 12.9288 12.5166 12.9409C12.4859 12.953 12.4579 12.9712 12.4346 12.9946C12.4112 13.018 12.3929 13.0459 12.3808 13.0767C12.3688 13.1074 12.3632 13.1404 12.3644 13.1734V18.8889C12.3644 18.9549 12.3907 19.0182 12.4373 19.0649C12.484 19.1116 12.5473 19.1378 12.6133 19.1378H13.2533C13.3186 19.1356 13.3806 19.1087 13.4269 19.0625C13.4731 19.0163 13.5 18.9542 13.5022 18.8889V17.2978H13.7333L14.9689 19.0756H16C16 19.0756 16.3555 18.9423 16 18.4267C15.6444 17.9112 14.8444 16.9867 14.8444 16.9867Z" fill="#2B3148"/>
<path d="M23.529 15.1111C21.6179 15.1111 21.3779 16.6133 21.3779 17.4933C21.4511 17.9798 21.6936 18.4249 22.0627 18.7501C22.4318 19.0753 22.9039 19.2598 23.3957 19.2711C24.0499 19.226 24.6614 18.9298 25.1024 18.4444L24.2757 17.7778C24.1916 17.9391 24.0634 18.0732 23.9061 18.1645C23.7487 18.2557 23.5686 18.3004 23.3868 18.2933C23.2677 18.3027 23.148 18.2861 23.0359 18.2447C22.9238 18.2034 22.822 18.1382 22.7375 18.0537C22.653 17.9692 22.5879 17.8674 22.5465 17.7553C22.5051 17.6433 22.4886 17.5235 22.4979 17.4044H25.3868C25.3868 17.4044 25.4402 15.1111 23.529 15.1111ZM22.5335 16.7911C22.5335 16.5553 22.6271 16.3292 22.7938 16.1625C22.9605 15.9958 23.1866 15.9022 23.4224 15.9022C23.6581 15.9022 23.8842 15.9958 24.0509 16.1625C24.2176 16.3292 24.3113 16.5553 24.3113 16.7911H22.5335Z" fill="#2B3148"/>
<path d="M28.0802 18.1245C28.0802 18.1245 27.5735 18.1245 27.5735 17.4045V12.8534H26.4269V14.8712H25.778C25.7476 14.8712 25.7176 14.8771 25.6895 14.8888C25.6615 14.9004 25.636 14.9174 25.6146 14.9389C25.5931 14.9603 25.5761 14.9858 25.5645 15.0138C25.5529 15.0419 25.5469 15.0719 25.5469 15.1023V15.6267C25.5469 15.6571 25.5529 15.6871 25.5645 15.7152C25.5761 15.7432 25.5931 15.7687 25.6146 15.7901C25.636 15.8116 25.6615 15.8286 25.6895 15.8402C25.7176 15.8519 25.7476 15.8578 25.778 15.8578H26.3913V18.1778C26.4033 18.3168 26.4434 18.452 26.5091 18.575C26.5749 18.6981 26.6649 18.8065 26.7737 18.8938C26.8826 18.981 27.008 19.0453 27.1425 19.0827C27.2769 19.12 27.4175 19.1297 27.5558 19.1112H28.4447C28.4447 19.1112 28.8002 19.1112 28.8002 18.6223V18.1245H28.0802Z" fill="#2B3148"/>
<path d="M27.9731 14.8356C27.9755 15.1452 28.1001 15.4414 28.3199 15.6595C28.5397 15.8776 28.8368 16 29.1465 16V14.8356H27.9731Z" fill="#F30013"/>
</g>
<defs>
<clipPath id="clip0_2707_319273">
<rect width="32" height="32" fill="white"/>
</clipPath>
</defs>
</svg>
