<svg width="32" height="32" viewBox="0 0 32 32" fill="none" xmlns="http://www.w3.org/2000/svg">
<g clip-path="url(#clip0_2707_319023)">
<mask id="mask0_2707_319023" style="mask-type:luminance" maskUnits="userSpaceOnUse" x="0" y="0" width="32" height="32">
<path d="M31.9758 0.0269775H0.00537109V31.9974H31.9758V0.0269775Z" fill="white"/>
</mask>
<g mask="url(#mask0_2707_319023)">
<path d="M15.9906 31.9974C24.819 31.9974 31.9758 24.8406 31.9758 16.0122C31.9758 7.18379 24.819 0.0269775 15.9906 0.0269775C7.16219 0.0269775 0.00537109 7.18379 0.00537109 16.0122C0.00537109 24.8406 7.16219 31.9974 15.9906 31.9974Z" fill="white"/>
<path d="M6.88557 18.2091C6.81686 18.3292 6.74774 18.4492 6.67957 18.5696C6.43393 19.0031 6.15315 19.4102 5.79091 19.7566C5.61871 19.9213 5.43219 20.0654 5.21295 20.1613C5.03617 20.2386 4.85349 20.2764 4.65895 20.2321C4.47808 20.191 4.33868 20.091 4.22764 19.9474C4.05942 19.7297 3.97484 19.4759 3.92031 19.211C3.85939 18.9153 3.83385 18.6148 3.84172 18.3138C3.85036 17.9809 3.87366 17.6483 3.93488 17.3199C3.94462 17.2676 3.94823 17.2197 3.9188 17.1734L3.91753 17.1727C3.95986 17.17 3.96572 17.1404 3.97191 17.1058C3.99308 16.9877 4.01332 16.8693 4.04091 16.7526C4.21468 16.0173 4.45857 15.307 4.8019 14.6324C4.82049 14.5959 4.83002 14.5548 4.84381 14.5159C4.89574 14.4287 4.94775 14.3415 4.9997 14.2544C5.02175 14.2206 5.04384 14.1869 5.08463 14.1246C5.06989 14.1901 5.06237 14.2238 5.05476 14.2574C4.99961 14.3383 4.9465 14.42 4.94568 14.5231C4.93472 14.5374 4.91983 14.5501 4.9135 14.5661C4.84917 14.7289 4.78227 14.8908 4.72372 15.0556C4.53489 15.5868 4.39815 16.1319 4.31092 16.6885C4.27812 16.8977 4.26935 17.1106 4.24964 17.3217C4.24979 17.3385 4.24991 17.3553 4.25005 17.3721C4.24253 17.436 4.23007 17.4998 4.22833 17.5639C4.22081 17.8325 4.2362 18.1 4.27708 18.3657C4.31663 18.6227 4.38143 18.8718 4.50691 19.102C4.58118 19.2381 4.67636 19.3578 4.80622 19.4434C5.0238 19.5869 5.25632 19.5907 5.49631 19.5048C5.74565 19.4157 5.95129 19.261 6.14039 19.0808C6.40971 18.824 6.64567 18.5406 6.83101 18.2168C6.85085 18.1938 6.87068 18.1709 6.89658 18.141C6.89226 18.1679 6.88891 18.1885 6.88557 18.2091Z" fill="#E52B2D"/>
<path d="M4.25041 17.3721C4.25027 17.3553 4.25012 17.3385 4.25 17.3217C4.27643 17.3295 4.30361 17.3354 4.32927 17.3452C5.18043 17.6699 6.05955 17.8711 6.96802 17.9433C6.96509 17.9677 6.9621 17.9922 6.9573 18.0321C6.99051 17.9925 7.01286 17.9657 7.03527 17.9389C7.43881 17.9544 7.84229 17.9599 8.24073 17.8806C8.52773 17.8235 8.80504 17.7397 9.05003 17.5691C9.36298 17.3512 9.51079 16.9965 9.32142 16.5808C9.228 16.3756 9.09627 16.1974 8.93961 16.0377C8.66523 15.758 8.35435 15.5253 8.01383 15.3319C8.01419 15.3222 8.01446 15.3126 8.01481 15.3029C8.53643 15.5365 9.02356 15.826 9.45629 16.2017C9.64595 16.3663 9.8124 16.5526 9.94345 16.7685C10.026 16.9043 10.0844 17.0494 10.1017 17.2081C10.1359 17.5226 9.99253 17.7539 9.74772 17.9304C9.5461 18.0757 9.31411 18.1561 9.07448 18.2114C8.80356 18.2739 8.5282 18.2977 8.24985 18.3077C7.84679 18.3222 7.44787 18.2882 7.04913 18.2401C6.99427 18.2335 6.94031 18.2196 6.88593 18.2091C6.88927 18.1885 6.89253 18.1679 6.89694 18.141C6.87104 18.1709 6.85118 18.1938 6.83134 18.2167C6.76006 18.1989 6.68946 18.1774 6.61732 18.1637C5.79207 18.0081 5.00367 17.7426 4.25041 17.3721Z" fill="#0E65AC"/>
<path d="M8.01484 15.3029C8.01457 15.3126 8.01422 15.3223 8.01395 15.3319C7.99551 15.3927 7.97393 15.4528 7.9591 15.5145C7.8163 16.1078 7.62983 16.6865 7.37362 17.241C7.26522 17.4756 7.14832 17.7064 7.03533 17.9389C7.01289 17.9657 6.99054 17.9924 6.95733 18.0321C6.96215 17.9922 6.96514 17.9677 6.96807 17.9433C7.0102 17.8563 7.05629 17.7709 7.09368 17.6819C7.32099 17.1408 7.49712 16.583 7.61444 16.0082C7.66882 15.7421 7.69966 15.4712 7.74116 15.2026C7.74507 15.1884 7.74889 15.1743 7.75271 15.1602C7.76476 14.9012 7.79318 14.6417 7.78489 14.3834C7.77237 13.9908 7.73122 13.5991 7.5669 13.234C7.49434 13.0728 7.39958 12.9269 7.25915 12.8127C7.0615 12.6519 6.83975 12.6322 6.60373 12.6893C6.37319 12.7451 6.18264 12.8753 6.001 13.0215C5.73846 13.2328 5.52964 13.4921 5.33359 13.7631C5.30691 13.7999 5.27906 13.8359 5.23584 13.8664C5.23883 13.8481 5.23714 13.8274 5.24543 13.812C5.5297 13.2823 5.8603 12.7864 6.31271 12.3828C6.5146 12.2027 6.73504 12.0515 7.00614 11.9917C7.33058 11.92 7.5965 12.0277 7.7906 12.2814C7.95747 12.4995 8.04041 12.7531 8.09479 13.0179C8.13399 13.2087 8.15696 13.4011 8.15793 13.5964C8.1585 13.707 8.17957 13.8183 8.17345 13.9283C8.14914 14.3618 8.11951 14.7951 8.02126 15.2202C8.01513 15.2468 8.01679 15.2753 8.01484 15.3029Z" fill="#FEC112"/>
<path d="M4.99988 14.2543C4.9479 14.3415 4.89595 14.4287 4.84394 14.5158C4.40775 14.4923 3.97343 14.5034 3.54428 14.5934C3.28509 14.6477 3.03477 14.7277 2.81373 14.8801C2.45824 15.1252 2.35623 15.4807 2.52958 15.8757C2.61815 16.0773 2.75014 16.2495 2.90153 16.4077C3.1303 16.6469 3.39112 16.846 3.66864 17.0247C3.71716 17.056 3.76032 17.0957 3.806 17.1314L3.80712 17.1315C3.69795 17.0833 3.58549 17.0411 3.48008 16.9856C3.11902 16.7957 2.77208 16.5827 2.462 16.3156C2.19735 16.0876 1.95464 15.8407 1.81693 15.5099C1.6733 15.1648 1.74077 14.8293 2.00743 14.6014C2.07376 14.5447 2.14833 14.4958 2.22435 14.4525C2.4601 14.3181 2.71862 14.2512 2.98368 14.2036C3.39272 14.1302 3.80529 14.1352 4.21699 14.1566C4.45648 14.169 4.69445 14.2111 4.93313 14.2398L4.93668 14.2474L4.94317 14.24C4.96208 14.2447 4.98097 14.2495 4.99988 14.2543Z" fill="#18502F"/>
<path d="M7.75248 15.1601C7.74863 15.1743 7.74475 15.1884 7.7409 15.2025C7.48582 15.1098 7.23316 15.0095 6.97506 14.9259C6.31487 14.7123 5.63787 14.5784 4.9458 14.5232C4.94657 14.42 4.99977 14.3382 5.05491 14.2573C5.97992 14.4224 6.86553 14.706 7.70171 15.1383C7.71802 15.1467 7.73554 15.1529 7.75248 15.1601Z" fill="#18502F"/>
<path d="M16.9936 16.4813H17.1923C17.1951 16.5181 17.1996 16.5492 17.1997 16.5802C17.2004 16.7658 17.1999 16.9513 17.2001 17.137C17.2001 17.174 17.1994 17.2113 17.2023 17.2482C17.214 17.3941 17.2658 17.46 17.379 17.4758C17.5275 17.4965 17.6478 17.4338 17.6926 17.307C17.7076 17.2644 17.7163 17.2173 17.7173 17.172C17.7213 16.9912 17.7213 16.8103 17.7226 16.6293C17.7229 16.5839 17.7227 16.5383 17.7227 16.4838H17.9262V17.6364H17.7514C17.7469 17.6019 17.7417 17.563 17.7353 17.5139C17.7126 17.5325 17.6949 17.5458 17.6785 17.5607C17.5473 17.6795 17.3915 17.6828 17.2345 17.6421C17.0849 17.6031 16.9987 17.494 16.9953 17.3382C16.9892 17.0555 16.9936 16.7728 16.9936 16.4813ZM20.9303 16.0503H21.1308C21.1308 16.1379 21.1305 16.2204 21.1308 16.3029C21.1312 16.3845 21.132 16.4661 21.1328 16.5659C21.2484 16.4925 21.3465 16.4511 21.4641 16.4583C21.6199 16.4679 21.7455 16.5293 21.823 16.661C21.9673 16.9064 21.9686 17.1639 21.842 17.416C21.7248 17.6494 21.3933 17.7701 21.1273 17.5458C21.1192 17.5768 21.1118 17.6048 21.1028 17.6392H20.9303V16.0503ZM13.5405 16.908C13.5611 16.7029 13.4905 16.6657 13.3606 16.6347C13.1871 16.5931 13.0588 16.6658 12.9833 16.8487C12.9214 16.8388 12.8558 16.8283 12.7903 16.8178C12.8182 16.5934 12.9891 16.4761 13.1979 16.4629C13.2763 16.4579 13.3558 16.4574 13.4342 16.4636C13.6488 16.4808 13.7551 16.5986 13.7577 16.8178C13.7592 16.9476 13.7592 17.0775 13.7576 17.2074C13.756 17.3504 13.7625 17.4921 13.8172 17.6376H13.6124C13.5958 17.604 13.5781 17.5679 13.5608 17.5328C13.5516 17.5328 13.541 17.5294 13.5362 17.5333C13.3983 17.6456 13.2387 17.6743 13.0664 17.6596C12.9095 17.6463 12.7871 17.5461 12.7581 17.4041C12.7273 17.2528 12.7959 17.099 12.9403 17.0346C13.023 16.9979 13.1168 16.9842 13.2066 16.966C13.3188 16.9433 13.4322 16.9265 13.5405 16.908ZM18.4344 17.6238C18.4131 17.6335 18.4007 17.6436 18.3881 17.644C18.3378 17.6459 18.2875 17.6448 18.2288 17.6448V16.4833H18.4041C18.4084 16.5204 18.4126 16.5562 18.4169 16.5934C18.5797 16.4287 18.6773 16.4142 18.8547 16.5321C18.833 16.5889 18.8107 16.6471 18.7887 16.7047C18.5541 16.638 18.4451 16.7125 18.4365 16.9475C18.4298 17.1279 18.4346 17.3087 18.4344 17.4893C18.4343 17.5352 18.4344 17.581 18.4344 17.6238ZM11.7685 17.3692C11.9245 16.9177 12.0747 16.4827 12.224 16.0511H12.5173V17.6359H12.309C12.3051 17.4338 12.3078 17.2271 12.3073 17.0205C12.3069 16.8167 12.3072 16.613 12.2881 16.4054C12.1439 16.8179 11.9997 17.2303 11.8565 17.6402H11.6563C11.5166 17.2295 11.3772 16.8201 11.238 16.4107C11.231 16.4115 11.224 16.4122 11.217 16.4131V17.6364H11.006V16.0524H11.3255C11.4689 16.4788 11.6154 16.9143 11.7685 17.3692ZM14.387 17.0653C14.342 17.1065 14.3045 17.1406 14.2583 17.1827V17.6388H14.0513V16.055H14.2526C14.2646 16.3334 14.25 16.6185 14.2604 16.9003C14.4043 16.7541 14.5464 16.6098 14.6711 16.4831H14.9487C14.8118 16.6273 14.6789 16.7672 14.5372 16.9166C14.6927 17.15 14.8503 17.3866 15.0171 17.637H14.7595C14.6425 17.4575 14.5191 17.2681 14.387 17.0653ZM16.0078 16.6286C16.0349 16.6031 16.061 16.5771 16.0888 16.553C16.2131 16.4445 16.3595 16.4345 16.5068 16.4796C16.6396 16.5202 16.7093 16.6261 16.7113 16.7641C16.7154 17.0515 16.7125 17.3389 16.7125 17.636H16.5243C16.522 17.6053 16.5173 17.5704 16.5172 17.5353C16.5164 17.3451 16.5176 17.1548 16.5162 16.9646C16.5159 16.9186 16.5069 16.8728 16.5043 16.8268C16.4999 16.7466 16.4747 16.6792 16.3904 16.6548C16.3015 16.629 16.2163 16.6362 16.1421 16.6999C16.0654 16.7658 16.0417 16.8528 16.0414 16.949C16.0409 17.1346 16.0412 17.3202 16.0412 17.5058V17.638H15.8368C15.8333 17.6045 15.8275 17.5741 15.8274 17.5436C15.8266 17.3488 15.827 17.1539 15.827 16.959C15.827 16.9312 15.8274 16.9033 15.8269 16.8754C15.8243 16.7318 15.7875 16.6695 15.6925 16.6477C15.5672 16.6189 15.4457 16.6763 15.3982 16.7979C15.377 16.8522 15.3703 16.9148 15.3691 16.9738C15.3655 17.1501 15.3678 17.3265 15.3678 17.5028V17.6361H15.1621V16.4824H15.3338C15.3396 16.5153 15.3464 16.5534 15.3533 16.5926C15.6145 16.3918 15.8348 16.4032 16.0078 16.6286ZM22.3665 17.6379H22.157V16.0582C22.221 16.0353 22.2871 16.0447 22.3624 16.0517V16.9147C22.4605 16.8447 22.5216 16.7669 22.5918 16.7C22.6656 16.6295 22.7367 16.5565 22.814 16.4795H23.0818C22.9246 16.6344 22.7845 16.7725 22.6396 16.9153C22.7978 17.1542 22.9521 17.3873 23.1174 17.6368H22.8615C22.7389 17.449 22.6157 17.2603 22.487 17.0632C22.443 17.1046 22.4068 17.1385 22.3665 17.1764V17.6379ZM20.7422 16.0598V16.2452H20.2272V17.6373H19.9998V16.2494H19.4829V16.0639C19.5776 16.0398 20.5829 16.035 20.7422 16.0598ZM13.5423 17.0775C13.5069 17.0857 13.4722 17.0951 13.4371 17.1017C13.3327 17.1215 13.2273 17.1365 13.1239 17.1606C13.0165 17.1856 12.9646 17.256 12.9758 17.3468C12.9858 17.4287 13.0517 17.4833 13.1502 17.4949C13.3652 17.5203 13.5856 17.402 13.5423 17.0775ZM21.105 17.0612C21.118 17.1381 21.1226 17.2176 21.1457 17.2912C21.1817 17.4055 21.2617 17.481 21.3859 17.4911C21.504 17.5007 21.5977 17.4451 21.6477 17.3431C21.74 17.1551 21.7466 16.957 21.6472 16.7705C21.5539 16.5953 21.3551 16.5797 21.2183 16.7253C21.1295 16.8198 21.1081 16.9353 21.105 17.0612ZM28.507 14.6045C28.4406 14.6136 28.3865 14.621 28.3277 14.6291C28.3225 14.6221 28.3131 14.6124 28.307 14.6011C28.2306 14.4573 28.0691 14.3991 27.9204 14.464C27.8663 14.4876 27.828 14.5249 27.83 14.5908C27.8318 14.6537 27.8775 14.6802 27.9254 14.6969C27.9994 14.7228 28.0766 14.7394 28.1518 14.7621C28.2224 14.7833 28.2923 14.8065 28.3622 14.8301C28.5648 14.8984 28.6253 15.1465 28.4773 15.3213C28.4344 15.3719 28.3718 15.4133 28.3099 15.439C28.1542 15.5037 27.9943 15.4982 27.8363 15.4387C27.6853 15.3818 27.6223 15.2608 27.5882 15.1033C27.6564 15.09 27.7184 15.0779 27.7864 15.0646C27.7978 15.0976 27.805 15.1236 27.8156 15.1481C27.8537 15.2361 27.9187 15.292 28.0163 15.2955C28.0851 15.2979 28.1561 15.2979 28.2225 15.283C28.2937 15.2669 28.3409 15.1917 28.3395 15.1275C28.3378 15.0515 28.282 15.0266 28.2234 15.0086C28.1261 14.9789 28.0274 14.9544 27.9301 14.925C27.8816 14.9103 27.8331 14.8935 27.7879 14.8711C27.6786 14.8168 27.6201 14.7254 27.6206 14.6041C27.6211 14.484 27.6755 14.3861 27.7835 14.3323C27.9736 14.2374 28.1675 14.2381 28.3558 14.3402C28.4522 14.3924 28.5016 14.4772 28.507 14.6045ZM20.0242 14.6102C19.9666 14.6149 19.9123 14.6193 19.8601 14.6236C19.8502 14.6172 19.8395 14.6141 19.8356 14.6072C19.7511 14.4584 19.6047 14.4014 19.4497 14.4607C19.3952 14.4815 19.3537 14.5153 19.3542 14.5831C19.3547 14.6455 19.3941 14.6769 19.4433 14.6943C19.5173 14.7205 19.5942 14.7384 19.6697 14.7607C19.7318 14.779 19.7939 14.7974 19.8553 14.8179C19.9849 14.8613 20.0732 14.9431 20.0801 15.0865C20.0868 15.2283 20.0239 15.3369 19.9011 15.4082C19.7663 15.4864 19.6194 15.4987 19.4701 15.4717C19.2716 15.4359 19.1482 15.3203 19.1151 15.1031C19.1768 15.0907 19.2387 15.0784 19.2944 15.0673C19.3093 15.0788 19.3205 15.0828 19.3231 15.09C19.3925 15.2808 19.5745 15.3621 19.7548 15.2798C19.8167 15.2514 19.8644 15.2066 19.8636 15.132C19.8628 15.0597 19.8123 15.0276 19.7506 15.0096C19.653 14.981 19.5546 14.9551 19.4574 14.9255C19.409 14.9108 19.3607 14.8936 19.315 14.872C19.2046 14.8195 19.1447 14.7305 19.1452 14.6076C19.1457 14.4874 19.1965 14.3905 19.3046 14.3339C19.5004 14.2314 19.6985 14.2411 19.889 14.3458C19.9835 14.3978 20.0333 14.4846 20.0242 14.6102ZM27.4424 14.9292H26.6094C26.6018 15.1149 26.686 15.2501 26.829 15.291C27.0028 15.3409 27.1138 15.2821 27.2315 15.073C27.2645 15.0754 27.3011 15.0758 27.337 15.0813C27.3684 15.0861 27.3989 15.0965 27.4295 15.1043C27.3698 15.415 27.0597 15.5256 26.796 15.4694C26.559 15.419 26.421 15.2639 26.386 15.0214C26.3529 14.7917 26.3725 14.5709 26.552 14.4048C26.7149 14.2539 26.9128 14.2244 27.1212 14.3075C27.3301 14.3908 27.4159 14.5627 27.4416 14.7729C27.4472 14.8181 27.4424 14.8645 27.4424 14.9292ZM18.943 15.4491H18.7557C18.7414 15.4186 18.7243 15.3824 18.7047 15.3408C18.6916 15.3468 18.6745 15.3517 18.6607 15.3613C18.5044 15.4697 18.3355 15.5136 18.148 15.4617C17.9949 15.4193 17.9105 15.321 17.894 15.1678C17.88 15.039 17.9544 14.8981 18.0901 14.8465C18.2009 14.8045 18.3225 14.7902 18.4396 14.7657C18.5203 14.7489 18.6017 14.7358 18.6789 14.7216C18.7043 14.5434 18.6434 14.4628 18.4823 14.4491C18.45 14.4463 18.4173 14.4471 18.3849 14.4474C18.2782 14.4486 18.1966 14.4886 18.1569 14.5944C18.149 14.6158 18.1368 14.6355 18.1251 14.6589C18.0646 14.652 18.0065 14.6452 17.9406 14.6376C17.9475 14.5079 17.9991 14.4079 18.1067 14.3499C18.3098 14.2407 18.5232 14.2346 18.7367 14.3199C18.8135 14.3505 18.8659 14.4116 18.8844 14.4934C18.8976 14.5516 18.906 14.612 18.9072 14.6716C18.9104 14.8248 18.9041 14.9782 18.9097 15.1312C18.9136 15.236 18.9311 15.3402 18.943 15.4491ZM25.0019 14.8704C24.9906 14.9478 24.9865 15.0271 24.9664 15.1022C24.902 15.3422 24.7071 15.4833 24.4512 15.4828C24.1957 15.4823 24.0013 15.338 23.935 15.0998C23.8902 14.9389 23.896 14.7773 23.943 14.6195C24.0119 14.3879 24.2563 14.2394 24.5101 14.2662C24.7719 14.294 24.9688 14.4894 24.9896 14.7439C24.9929 14.7854 24.9901 14.8273 24.9901 14.8691C24.994 14.8695 24.9979 14.87 25.0019 14.8704ZM23.6812 15.4505H23.5073C23.4975 15.4224 23.4889 15.3975 23.4801 15.3722C23.4255 15.4017 23.3757 15.4372 23.3203 15.4572C23.1183 15.5302 22.8827 15.4432 22.7734 15.2404C22.6332 14.9803 22.6399 14.7128 22.7966 14.4614C22.9254 14.2546 23.2048 14.2062 23.4081 14.3416C23.4308 14.3567 23.4521 14.3737 23.4868 14.3993V13.8601H23.6733C23.7005 13.9499 23.7082 15.2749 23.6812 15.4505ZM29.4339 14.6569C29.3575 14.6498 29.2986 14.6444 29.2329 14.6383C29.2569 14.4788 29.3307 14.3709 29.4731 14.3163C29.6384 14.2528 29.808 14.2475 29.9773 14.2945C30.1191 14.3337 30.1994 14.4417 30.2026 14.5916C30.2059 14.7399 30.2011 14.8884 30.2071 15.0365C30.2124 15.1728 30.2272 15.3087 30.2381 15.4495H30.0552C30.0377 15.4144 30.02 15.3784 30.007 15.3521C29.9078 15.392 29.8169 15.4424 29.7198 15.4637C29.6372 15.4817 29.5446 15.4793 29.4611 15.4625C29.2995 15.43 29.2131 15.3233 29.2007 15.1799C29.1832 14.9766 29.3055 14.8645 29.4304 14.8262C29.531 14.7952 29.6378 14.784 29.742 14.765C29.8187 14.7511 29.8954 14.7385 29.9679 14.7261C30.0105 14.5403 29.9551 14.4625 29.7799 14.4487C29.7663 14.4476 29.7521 14.4482 29.7385 14.447C29.5854 14.4346 29.4772 14.4923 29.4339 14.6569ZM21.7311 15.4503H21.5308V14.303H21.6999C21.7091 14.3305 21.7201 14.3637 21.7263 14.3825C21.8213 14.3439 21.9102 14.2919 22.0056 14.2721C22.2516 14.2211 22.4566 14.3752 22.4664 14.6249C22.4769 14.8887 22.4667 15.1532 22.4649 15.4174C22.4648 15.4259 22.4581 15.4344 22.4518 15.4489H22.2702C22.2676 15.4118 22.2631 15.3763 22.2629 15.3407C22.2616 15.1321 22.2641 14.9233 22.26 14.7147C22.2566 14.5472 22.1872 14.4636 22.0534 14.4519C21.9005 14.4387 21.785 14.5213 21.7504 14.6738C21.7383 14.7274 21.7325 14.7833 21.7319 14.8383C21.7298 15.0375 21.7311 15.2367 21.7311 15.4503ZM12.8745 14.0601H12.3498V13.876C12.446 13.8487 13.481 13.8448 13.6103 13.8719V14.0552H13.0917C13.0863 14.176 13.0897 14.2903 13.089 14.4043C13.0884 14.5202 13.0889 14.6361 13.0889 14.7521V15.4493H12.8745V14.0601ZM28.7873 14.2997H28.97V15.4489H28.7927C28.7644 15.3539 28.7592 14.4393 28.7873 14.2997ZM15.6417 14.2993H15.8216C15.8469 14.3959 15.8521 15.2854 15.8272 15.4488H15.6417V14.2993ZM26.1566 15.4487H25.9467C25.9467 15.3281 25.9472 15.2134 25.9465 15.0986C25.9457 14.9642 25.9465 14.8297 25.9418 14.6954C25.9363 14.5399 25.8659 14.4606 25.7336 14.4518C25.5849 14.4418 25.4628 14.5272 25.437 14.6658C25.426 14.7245 25.425 14.7857 25.4245 14.8457C25.4231 15.0442 25.424 15.2427 25.424 15.4481H25.2212V14.3011H25.3918C25.3989 14.3305 25.4071 14.3641 25.4118 14.3835C25.506 14.3449 25.595 14.2918 25.691 14.272C25.948 14.2191 26.1527 14.3887 26.1559 14.6496C26.1591 14.9129 26.1566 15.1762 26.1566 15.4487ZM16.1351 14.2983H16.2995C16.308 14.3275 16.3177 14.3609 16.3276 14.3946C16.612 14.2027 16.8126 14.219 16.977 14.4466C17.1029 14.3059 17.2503 14.2276 17.4449 14.283C17.587 14.3235 17.6776 14.4124 17.6816 14.5566C17.6901 14.852 17.6842 15.1477 17.6842 15.4485H17.4795C17.4795 15.225 17.4802 15.008 17.4791 14.7908C17.4788 14.7306 17.4772 14.6701 17.4695 14.6105C17.4564 14.5097 17.3943 14.4564 17.2927 14.4517C17.1392 14.4446 17.0256 14.5486 17.0183 14.7188C17.01 14.9087 17.0139 15.099 17.0126 15.2892C17.0123 15.3394 17.0126 15.3895 17.0126 15.4471H16.8057C16.8033 15.4113 16.7989 15.3758 16.7987 15.3403C16.7981 15.1223 16.7995 14.9042 16.798 14.6862C16.7971 14.5356 16.7461 14.4648 16.6356 14.4521C16.506 14.4374 16.3808 14.5195 16.3528 14.6461C16.339 14.7088 16.3371 14.7748 16.3365 14.8394C16.3345 15.0383 16.3357 15.2373 16.3357 15.4456H16.1351V14.2983ZM20.9718 13.8604H21.1737C21.199 13.9665 21.2051 15.2614 21.1818 15.4478H20.9718V13.8604ZM14.4214 13.8605H14.6401V15.2496H15.4177V15.4476H14.4214V13.8605ZM10.9927 13.8472C11.2809 13.8555 11.5592 13.8481 11.834 13.8759C12.12 13.9047 12.2287 14.1343 12.212 14.3552C12.194 14.593 12.0751 14.754 11.8245 14.7911C11.7471 14.8026 11.6686 14.8105 11.5905 14.8128C11.4708 14.8165 11.3509 14.8138 11.2178 14.8138V15.4466H10.9927V13.8472ZM29.9717 14.8962C29.9368 14.9051 29.9022 14.9148 29.8675 14.9223C29.827 14.9311 29.7864 14.9381 29.7456 14.9456C29.6825 14.9572 29.618 14.9635 29.5566 14.9812C29.4578 15.0096 29.4195 15.0617 29.4226 15.147C29.4256 15.2293 29.4716 15.2798 29.5674 15.3062C29.8216 15.3762 30.0259 15.1731 29.9717 14.8962ZM18.6838 14.8985C18.571 14.9183 18.4664 14.9357 18.3622 14.9551C18.3168 14.9636 18.2705 14.9716 18.2277 14.9877C18.155 15.0152 18.1183 15.0762 18.1228 15.1503C18.1272 15.2227 18.1619 15.2765 18.2333 15.2928C18.2906 15.3058 18.3532 15.3184 18.4097 15.3088C18.6202 15.2732 18.7066 15.141 18.6838 14.8985ZM24.7864 14.8688C24.7833 14.8681 24.7803 14.8674 24.7772 14.8668C24.7752 14.8251 24.776 14.7831 24.7707 14.7419C24.7494 14.5791 24.6323 14.4596 24.4858 14.4485C24.3173 14.4357 24.1986 14.5196 24.1475 14.6919C24.1069 14.8292 24.1134 14.9675 24.1602 15.1012C24.2047 15.2284 24.3325 15.3123 24.4606 15.3098C24.5795 15.3075 24.7026 15.2215 24.743 15.0984C24.7671 15.025 24.7726 14.9455 24.7864 14.8688ZM23.5058 14.8898C23.4954 14.7849 23.4907 14.6845 23.4357 14.5926C23.3214 14.4014 23.0617 14.3906 22.9605 14.5839C22.8635 14.7695 22.8676 14.9686 22.9605 15.1577C23.0088 15.2561 23.1026 15.3099 23.2099 15.3068C23.3235 15.3036 23.4145 15.2399 23.4546 15.1313C23.4829 15.055 23.4895 14.9706 23.5058 14.8898ZM27.2227 14.7558C27.1805 14.5229 27.0625 14.4247 26.8662 14.4489C26.7157 14.4675 26.6132 14.5929 26.6189 14.7558H27.2227ZM11.2215 14.0635V14.6152C11.4125 14.6074 11.5967 14.6313 11.7791 14.5932C11.918 14.5641 11.9877 14.4601 11.9778 14.3044C11.9694 14.1744 11.8808 14.071 11.7532 14.0654C11.5786 14.0577 11.4033 14.0635 11.2215 14.0635ZM28.9727 13.8712H28.7797V14.0827H28.9727V13.8712ZM15.8319 13.8588H15.6414V14.0815H15.8319V13.8588Z" fill="#18502F"/>
<path d="M3.91781 17.1727L3.91914 17.1733C3.87054 17.1897 3.83386 17.1741 3.80725 17.1315L3.80615 17.1315C3.84333 17.1452 3.88057 17.159 3.91781 17.1727Z" fill="#0E65AC"/>
<path d="M5.19785 13.923C5.19575 13.9391 5.19374 13.9553 5.19166 13.9714C5.18622 13.9691 5.1808 13.9668 5.17529 13.9645C5.18352 13.9513 5.19166 13.9382 5.1998 13.925L5.19785 13.923Z" fill="#FEC112"/>
<path d="M4.9432 14.2399L4.93666 14.2401L4.93311 14.2399L4.9432 14.2399Z" fill="#E52B2D"/>
<path d="M5.19971 13.9251C5.2027 13.917 5.20575 13.9089 5.20877 13.9008C5.21244 13.9052 5.2162 13.9096 5.2199 13.914C5.21253 13.917 5.20512 13.92 5.19775 13.923L5.19971 13.9251Z" fill="#FEC112"/>
</g>
</g>
<defs>
<clipPath id="clip0_2707_319023">
<rect width="32" height="32" fill="white"/>
</clipPath>
</defs>
</svg>
