<svg width="32" height="32" viewBox="0 0 32 32" fill="none" xmlns="http://www.w3.org/2000/svg">
<g clip-path="url(#clip0_2707_318833)">
<path d="M16 32C24.8366 32 32 24.8366 32 16C32 7.16344 24.8366 0 16 0C7.16344 0 0 7.16344 0 16C0 24.8366 7.16344 32 16 32Z" fill="white"/>
<path d="M15.9998 29.3334C23.3636 29.3334 29.3332 23.3638 29.3332 16C29.3332 8.63622 23.3636 2.66669 15.9998 2.66669C8.63604 2.66669 2.6665 8.63622 2.6665 16C2.6665 23.3638 8.63604 29.3334 15.9998 29.3334Z" fill="white"/>
<path d="M27.1379 19.1289H10.5513V10.1778H27.1379V19.1289ZM11.1379 18.5511H26.5602V10.7556H11.129L11.1379 18.5511Z" fill="#231F20"/>
<path d="M13.422 10.4622H12.8442V18.8356H13.422V10.4622Z" fill="#231F20"/>
<path d="M16.1779 10.4622H15.6001V18.8356H16.1779V10.4622Z" fill="#231F20"/>
<path d="M18.9332 10.4622H18.3555V18.8356H18.9332V10.4622Z" fill="#231F20"/>
<path d="M21.6891 10.4622H21.1113V18.8356H21.6891V10.4622Z" fill="#231F20"/>
<path d="M24.4445 10.4622H23.8667V18.8356H24.4445V10.4622Z" fill="#231F20"/>
<path d="M27.1021 12.8978H13.0132V13.4755H27.1021V12.8978Z" fill="#231F20"/>
<path d="M27.1021 15.7244H13.0132V16.3022H27.1021V15.7244Z" fill="#231F20"/>
<path d="M9.23557 10.3378H5.83113C5.83113 10.3378 5.12891 10.2134 5.12891 10.9067V12.2223C5.12891 12.2223 7.18224 11.9823 7.18224 13.7245C7.18224 15.4667 5.20002 15.3334 5.20002 15.3334V16.3378C5.20002 16.3378 5.20002 16.7378 5.75113 16.7378H6.80891L5.60891 18.8356H15.5556L11.5556 10.3289L9.23557 10.3378Z" fill="#F9F000"/>
<path d="M15.938 19.0756H5.19132L6.39132 16.9778H5.75132C5.65764 16.9902 5.56243 16.9835 5.47139 16.9582C5.38035 16.9329 5.29536 16.8895 5.22149 16.8306C5.14762 16.7716 5.08641 16.6984 5.04152 16.6153C4.99662 16.5321 4.96897 16.4408 4.96021 16.3467V15.1111H5.21799C5.70672 15.1392 6.18929 14.9909 6.57799 14.6934C6.70285 14.5698 6.79993 14.4211 6.86278 14.2571C6.92562 14.0931 6.95278 13.9176 6.94243 13.7422C6.95131 13.5771 6.9241 13.4121 6.8627 13.2586C6.80129 13.1051 6.70717 12.9668 6.58688 12.8534C6.17404 12.5504 5.66634 12.4053 5.15577 12.4445H4.8891V10.9067C4.88068 10.7879 4.90044 10.6688 4.94679 10.5592C4.99313 10.4495 5.06473 10.3523 5.15577 10.2756C5.35491 10.1283 5.60366 10.0645 5.8491 10.0978H11.7069L15.938 19.0756ZM6.01799 18.5956H15.1735L11.3958 10.5956H5.78688C5.67333 10.5754 5.55631 10.5975 5.45799 10.6578C5.42489 10.6933 5.39983 10.7354 5.38449 10.7814C5.36915 10.8275 5.3639 10.8762 5.3691 10.9245V11.9911C5.91867 11.96 6.46205 12.1202 6.90688 12.4445C7.07877 12.6071 7.21375 12.8047 7.3027 13.024C7.39164 13.2433 7.43247 13.4792 7.42243 13.7156C7.43356 13.9574 7.39338 14.1989 7.30452 14.4241C7.21566 14.6493 7.08015 14.8532 6.90688 15.0222C6.49257 15.3623 5.97605 15.5532 5.44021 15.5645V16.32C5.44021 16.3734 5.49354 16.4889 5.75132 16.4889H7.21799L6.01799 18.5956Z" fill="#FA1D00"/>
<path d="M10.5779 11.5555C10.3582 11.5555 10.1433 11.4904 9.96061 11.3683C9.77789 11.2462 9.63547 11.0727 9.55138 10.8696C9.46728 10.6666 9.44527 10.4432 9.48815 10.2277C9.53102 10.0121 9.63684 9.81414 9.79223 9.65875C9.94763 9.50336 10.1456 9.39754 10.3611 9.35466C10.5767 9.31179 10.8001 9.33379 11.0031 9.41789C11.2061 9.50199 11.3797 9.6444 11.5018 9.82712C11.6239 10.0098 11.689 10.2247 11.689 10.4444C11.689 10.7391 11.572 11.0217 11.3636 11.2301C11.1552 11.4385 10.8726 11.5555 10.5779 11.5555Z" fill="#F9F000"/>
<path d="M10.5776 9.6C10.7534 9.6 10.9253 9.65213 11.0715 9.7498C11.2177 9.84747 11.3316 9.9863 11.3989 10.1487C11.4661 10.3111 11.4838 10.4899 11.4495 10.6623C11.4152 10.8347 11.3305 10.9931 11.2062 11.1174C11.0819 11.2417 10.9235 11.3264 10.7511 11.3607C10.5786 11.395 10.3999 11.3774 10.2375 11.3101C10.0751 11.2428 9.93623 11.1289 9.83856 10.9827C9.74089 10.8365 9.68876 10.6647 9.68876 10.4889C9.68876 10.2531 9.78241 10.027 9.94911 9.86034C10.1158 9.69365 10.3419 9.6 10.5776 9.6ZM10.5776 9.12C10.31 9.12 10.0485 9.19947 9.82609 9.34833C9.60371 9.49719 9.43055 9.70873 9.32855 9.95613C9.22656 10.2035 9.20032 10.4757 9.25318 10.738C9.30604 11.0003 9.43561 11.241 9.62545 11.4296C9.8153 11.6182 10.0569 11.7462 10.3195 11.7973C10.5822 11.8485 10.8542 11.8204 11.1009 11.7168C11.3476 11.6132 11.558 11.4386 11.7054 11.2153C11.8528 10.9919 11.9305 10.7298 11.9288 10.4622C11.9264 10.1054 11.783 9.76404 11.5299 9.51258C11.2768 9.26112 10.9344 9.11999 10.5776 9.12Z" fill="#FA1D00"/>
<path d="M8.25785 12.2489C8.57204 12.2489 8.82674 11.9942 8.82674 11.68C8.82674 11.3658 8.57204 11.1111 8.25785 11.1111C7.94367 11.1111 7.68896 11.3658 7.68896 11.68C7.68896 11.9942 7.94367 12.2489 8.25785 12.2489Z" fill="#FA1D00"/>
<path d="M5.87574 18.3644L8.93352 12.7911C8.93352 12.7911 9.12908 12.3822 9.33352 12.3822C9.53796 12.3822 9.37796 13.0489 9.09352 13.8666C8.80908 14.6844 7.31574 18.9244 7.31574 18.9244L5.63574 18.8355L5.87574 18.3644Z" fill="#FA1D00"/>
<path d="M9.88455 18.8355L8.38232 18.7555L10.0179 12.7822C10.0179 12.7822 10.1868 12.2933 10.3823 12.3822C10.3823 12.3822 10.6223 12.3822 10.4623 13.3333C10.3023 14.2844 9.88455 18.8355 9.88455 18.8355Z" fill="#FA1D00"/>
<path d="M11.5556 18.8355L13.0579 18.7555L11.4223 12.7822C11.4223 12.7822 11.2445 12.2933 11.0579 12.3822C11.0579 12.3822 10.8179 12.3822 10.9779 13.3333C11.1379 14.2844 11.5556 18.8355 11.5556 18.8355Z" fill="#FA1D00"/>
<path d="M11.7601 11.1111C11.9646 11.1111 12.649 12.7911 12.649 12.7911L15.6979 18.3644L15.9734 18.8355L13.5112 18.9244L11.5557 11.2089L11.7601 11.1111Z" fill="#FA1D00"/>
<path d="M26.8532 18.8356H5.18213V21.9645H26.8532V18.8356Z" fill="#F9F000"/>
<path d="M27.1377 22.2222H4.91553V18.5511H27.1377V22.2222ZM5.46664 21.68H26.56V19.1289H5.46664V21.68Z" fill="#231F20"/>
<path d="M6.71133 19.3689V20.9511H7.65356V21.3333H6.28467V19.3689H6.71133Z" fill="#FA1D00"/>
<path d="M9.07559 19.3689V21.3333H8.64893V19.3689H9.07559Z" fill="#FA1D00"/>
<path d="M10.1868 19.9466C10.2295 19.827 10.2926 19.7157 10.3735 19.6178C10.4647 19.5237 10.5738 19.4489 10.6944 19.3978C10.8151 19.3467 10.9447 19.3204 11.0757 19.3204C11.2067 19.3204 11.3364 19.3467 11.457 19.3978C11.5776 19.4489 11.6868 19.5237 11.7779 19.6178C11.8588 19.7157 11.922 19.827 11.9646 19.9466C12.0075 20.0756 12.0286 20.2108 12.0268 20.3466C12.0279 20.4825 12.0069 20.6176 11.9646 20.7466C11.9218 20.8608 11.8585 20.9662 11.7779 21.0578C11.6957 21.152 11.5921 21.2252 11.4757 21.2711C11.349 21.3239 11.213 21.3511 11.0757 21.3511C10.9384 21.3511 10.8025 21.3239 10.6757 21.2711C10.5594 21.2252 10.4557 21.152 10.3735 21.0578C10.2929 20.9662 10.2297 20.8608 10.1868 20.7466C10.1446 20.6176 10.1235 20.4825 10.1246 20.3466C10.1229 20.2108 10.1439 20.0756 10.1868 19.9466ZM10.5779 20.5866C10.5983 20.6585 10.6282 20.7272 10.6668 20.7911C10.7097 20.8547 10.7678 20.9066 10.8357 20.9422C10.9109 20.9772 10.9928 20.9953 11.0757 20.9953C11.1586 20.9953 11.2405 20.9772 11.3157 20.9422C11.3837 20.9066 11.4417 20.8547 11.4846 20.7911C11.5268 20.7291 11.557 20.6598 11.5735 20.5866C11.5822 20.5069 11.5822 20.4264 11.5735 20.3466C11.5823 20.2639 11.5823 20.1805 11.5735 20.0978C11.5554 20.0224 11.5254 19.9504 11.4846 19.8844C11.4415 19.8233 11.3833 19.7743 11.3157 19.7422C11.2419 19.7025 11.1595 19.6818 11.0757 19.6818C10.992 19.6818 10.9095 19.7025 10.8357 19.7422C10.7681 19.7743 10.71 19.8233 10.6668 19.8844C10.626 19.9504 10.596 20.0224 10.5779 20.0978C10.5692 20.1805 10.5692 20.2639 10.5779 20.3466C10.5692 20.4264 10.5692 20.5069 10.5779 20.5866Z" fill="#FA1D00"/>
<path d="M13.5022 19.3689L14.3111 20.6667V19.3689H14.7111V21.3333H14.2845L13.4845 20.0356V21.3333H13.0845V19.3689H13.5022Z" fill="#FA1D00"/>
<path d="M16.4446 19.3689L16.8979 20.7022L17.3246 19.3689H17.9201V21.3333H17.5201V19.9378L17.049 21.3333H16.7201L16.249 19.9733V21.3333H15.8579V19.3689H16.4446Z" fill="#FA1D00"/>
<path d="M20.5158 19.3689V19.7333H19.4936V20.1422H20.4447V20.4445H19.4936V20.9156H20.5336V21.3333H19.0669V19.3689H20.5158Z" fill="#FA1D00"/>
<path d="M21.9024 20.8266C21.925 20.8726 21.9585 20.9123 22.0002 20.9422L22.1335 21.0044H22.3024H22.4179H22.5424L22.6402 20.9333C22.6531 20.8928 22.6531 20.8493 22.6402 20.8089C22.6409 20.7855 22.6365 20.7622 22.6273 20.7407C22.6181 20.7192 22.6043 20.7 22.5868 20.6844C22.5491 20.6499 22.5073 20.62 22.4624 20.5955L22.2757 20.5422L22.0979 20.4444L21.8935 20.3733C21.8247 20.3552 21.7609 20.3218 21.7068 20.2755C21.6554 20.2317 21.6105 20.1809 21.5735 20.1244C21.538 20.0526 21.5197 19.9734 21.5202 19.8933C21.5216 19.8027 21.5461 19.714 21.5913 19.6355C21.632 19.5636 21.6864 19.5002 21.7513 19.4489C21.8262 19.4028 21.9069 19.3669 21.9913 19.3422C22.0769 19.3329 22.1634 19.3329 22.249 19.3422C22.3464 19.3291 22.445 19.3291 22.5424 19.3422C22.6316 19.3608 22.7162 19.3971 22.7913 19.4489C22.8612 19.5009 22.9188 19.5677 22.9602 19.6444C23.0028 19.7331 23.0241 19.8305 23.0224 19.9289H22.6135C22.6153 19.8827 22.6048 19.8369 22.5829 19.7963C22.561 19.7556 22.5286 19.7216 22.489 19.6978L22.3735 19.6533H22.2313H22.1246C22.0956 19.6449 22.0647 19.6449 22.0357 19.6533C22.0057 19.6697 21.981 19.6944 21.9646 19.7244C21.9555 19.7564 21.9555 19.7902 21.9646 19.8222C21.9563 19.8543 21.9563 19.8879 21.9646 19.92L22.0535 19.9822L22.2313 20.0444L22.5246 20.1155H22.6757C22.7433 20.1323 22.8068 20.1625 22.8624 20.2044C22.9288 20.2459 22.9862 20.3003 23.0313 20.3644C23.078 20.4452 23.0996 20.538 23.0935 20.6311C23.1078 20.7134 23.1078 20.7976 23.0935 20.88C23.0582 20.9581 23.003 21.0255 22.9335 21.0755C22.8608 21.137 22.776 21.1824 22.6846 21.2089C22.5711 21.2367 22.4548 21.2516 22.3379 21.2533C22.2347 21.2669 22.1301 21.2669 22.0268 21.2533C21.9316 21.2269 21.8415 21.1849 21.7602 21.1289C21.6841 21.0712 21.6206 20.9986 21.5735 20.9155C21.5266 20.8188 21.5052 20.7117 21.5113 20.6044H21.9202C21.8965 20.676 21.8904 20.7522 21.9024 20.8266Z" fill="#FA1D00"/>
<path d="M24.5243 19.3689V20.1156H25.3065V19.3689H25.7776V21.3333H25.351V20.4445H24.5688V21.3333H24.1421V19.3689H24.5243Z" fill="#FA1D00"/>
</g>
<defs>
<clipPath id="clip0_2707_318833">
<rect width="32" height="32" fill="white"/>
</clipPath>
</defs>
</svg>
