<svg width="32" height="32" viewBox="0 0 32 32" fill="none" xmlns="http://www.w3.org/2000/svg">
<g clip-path="url(#clip0_2707_318608)">
<path d="M15.9998 31.9822C24.8265 31.9822 31.982 24.8268 31.982 16C31.982 7.17328 24.8265 0.0177917 15.9998 0.0177917C7.17306 0.0177917 0.0175781 7.17328 0.0175781 16C0.0175781 24.8268 7.17306 31.9822 15.9998 31.9822Z" fill="white"/>
<path d="M27.68 9.74225H16V22.4178H27.68V9.74225Z" fill="#31393B"/>
<path fill-rule="evenodd" clip-rule="evenodd" d="M4.31982 9.59113V22.4089H15.9998V9.77779L4.31982 9.59113Z" fill="#FC0201"/>
<path fill-rule="evenodd" clip-rule="evenodd" d="M5.11084 11.4667V20.9511L15.7153 19.1111L26.8886 21.0222V11.4222L15.9464 13.1111L5.11084 11.4667Z" fill="white"/>
<path fill-rule="evenodd" clip-rule="evenodd" d="M13.9907 18.2933V14.1245H14.7285L15.2974 15.9022L15.8129 14.1245H16.6396V18.2933H15.9996V16.6933L15.4929 18.2933H15.1818L14.6752 16.6578L14.6218 18.2933H13.9907Z" fill="black"/>
<path fill-rule="evenodd" clip-rule="evenodd" d="M8.31104 14.1245V18.2933H9.0577V16.5156H10.0088V18.2933H10.6666V14.1245H9.95548V15.7422H9.06659V14.1245H8.31104Z" fill="black"/>
<path fill-rule="evenodd" clip-rule="evenodd" d="M7.32413 15.6533H7.92857C7.92857 15.6533 7.99968 14.1245 6.87079 14.1245C5.74191 14.1245 5.64413 15.5378 5.61746 16.4089C5.59079 17.28 5.99079 18.2933 6.81746 18.2933C7.64413 18.2933 8.04413 17.1556 7.99968 16.7911H7.37746C7.37746 16.7911 7.27968 17.6356 6.78191 17.5822C6.28413 17.5289 6.22191 16.8356 6.22191 16.3111C6.22191 15.7867 6.33746 14.9689 6.82635 14.9511C7.31524 14.9333 7.30635 15.6533 7.30635 15.6533" fill="black"/>
<path fill-rule="evenodd" clip-rule="evenodd" d="M11.0488 18.2933L11.9377 14.1245H12.7288L13.5466 18.2933H12.8799L12.7999 17.4045H11.911L11.7511 18.2933H11.0488ZM12.0355 16.6667H12.6222L12.3377 15.7778L12.0355 16.6667Z" fill="black"/>
<path fill-rule="evenodd" clip-rule="evenodd" d="M17.2354 14.1245V18.2933H17.9998V16.9422C18.195 16.9634 18.3925 16.9433 18.5795 16.8834C18.7665 16.8235 18.9389 16.725 19.0855 16.5943C19.2321 16.4636 19.3496 16.3037 19.4306 16.1248C19.5115 15.9458 19.554 15.7519 19.5554 15.5556C19.5554 14.1245 18.3731 14.1245 18.3731 14.1245H17.2354ZM18.0087 14.9067V16.2044C18.0087 16.2044 18.8976 16.2756 18.8976 15.52C18.8976 14.7644 18.0087 14.9067 18.0087 14.9067Z" fill="black"/>
<path d="M20.5598 14.1245H19.8398V18.2933H20.5598V14.1245Z" fill="black"/>
<path fill-rule="evenodd" clip-rule="evenodd" d="M22.2221 14.1245C22.8621 14.1245 23.3865 15.0578 23.3865 16.2044C23.3865 17.3511 22.8621 18.2933 22.2221 18.2933C21.5821 18.2933 21.0576 17.4044 21.0576 16.2044C21.0576 15.0044 21.5376 14.1245 22.2221 14.1245ZM22.2221 14.9333C22.5332 14.9333 22.7909 15.5022 22.7909 16.2044C22.7909 16.9067 22.5332 17.4756 22.2221 17.4756C21.911 17.4756 21.6532 16.9067 21.6532 16.2044C21.6532 15.5022 21.8665 14.9333 22.2221 14.9333Z" fill="black"/>
<path fill-rule="evenodd" clip-rule="evenodd" d="M23.8931 18.2933V14.1245H24.4708L25.3597 15.8133V14.1245H26.1153V18.2933H25.5375L24.6486 16.5156V18.2933H23.8931Z" fill="black"/>
</g>
<defs>
<clipPath id="clip0_2707_318608">
<rect width="32" height="32" fill="white"/>
</clipPath>
</defs>
</svg>
