<svg width="32" height="32" viewBox="0 0 32 32" fill="none" xmlns="http://www.w3.org/2000/svg">
<g clip-path="url(#clip0_2707_317398)">
<path d="M16 32C24.8366 32 32 24.8366 32 16C32 7.16344 24.8366 0 16 0C7.16344 0 0 7.16344 0 16C0 24.8366 7.16344 32 16 32Z" fill="white"/>
<path d="M15.9998 29.3333C23.3636 29.3333 29.3332 23.3638 29.3332 16C29.3332 8.6362 23.3636 2.66666 15.9998 2.66666C8.63604 2.66666 2.6665 8.6362 2.6665 16C2.6665 23.3638 8.63604 29.3333 15.9998 29.3333Z" fill="white"/>
<path d="M23.4669 5.2H8.67578V23.0311H23.4669V5.2Z" fill="#009834"/>
<path d="M8.18688 22.3556C8.18688 22.3556 10.338 15.8933 12.0891 14.1156C13.8402 12.3378 16.8624 7.89333 24.0447 7.60889V9.77778C24.0447 9.77778 12.2224 15.9289 11.7958 17.4489C11.3691 18.9689 7.93799 23.6089 7.93799 23.6089L8.18688 22.3556Z" fill="#B1D6AF"/>
<path d="M8.24933 23.5733C8.24933 23.5733 8.93377 21.3156 9.18266 20.7111C9.87608 19.1909 10.6475 17.7074 11.4938 16.2667C11.9471 15.6356 13.9738 13.0222 15.5204 12.1156C17.0671 11.2089 20.5338 9.14667 24.4627 9.04889V10.7556C24.4627 10.7556 22.6849 11.5111 21.5204 12.1422C20.356 12.7733 18.3293 13.7067 17.6715 14.1156C15.9154 15.3021 14.2622 16.6342 12.7293 18.0978C11.1893 19.9339 9.7644 21.8635 8.46266 23.8756C8.11599 24.5867 8.24933 23.5733 8.24933 23.5733Z" fill="#6BB67B"/>
<path d="M23.4669 23.7511H8.67578V23.8844H23.4669V23.7511Z" fill="#353535"/>
<path d="M8.88868 25.9822C8.88868 26.1689 8.88868 26.3111 8.88868 26.4089C8.88868 26.5067 8.88868 26.56 8.94201 26.5778C8.94201 26.5778 8.99535 26.5956 8.94201 26.5778H9.00424H9.09312H9.40424C9.43007 26.5754 9.45516 26.5678 9.47805 26.5556C9.50094 26.5434 9.52117 26.5268 9.53757 26.5067C9.55735 26.4865 9.57252 26.4622 9.58201 26.4356V26.3556V26.4C9.58201 26.4 9.58201 26.4 9.58201 26.4711C9.58201 26.5422 9.58201 26.5244 9.58201 26.5511C9.58201 26.5778 9.58201 26.5956 9.58201 26.6222C9.58201 26.6222 9.58201 26.6489 9.58201 26.6222H8.52424H8.47979H8.5509C8.5512 26.6314 8.55388 26.6404 8.55869 26.6483C8.56349 26.6562 8.57025 26.6626 8.57831 26.6671C8.58637 26.6716 8.59545 26.6739 8.60466 26.6738C8.61388 26.6737 8.62292 26.6713 8.6309 26.6667C8.63881 26.6346 8.63881 26.601 8.6309 26.5689C8.63534 26.4919 8.63534 26.4148 8.6309 26.3378V24.9422C8.64004 24.9103 8.64004 24.8764 8.6309 24.8444C8.60849 24.8167 8.577 24.7979 8.54201 24.7911H8.45312C8.45312 24.7911 8.45313 24.7911 8.49757 24.7911H9.07535H8.98646C8.96319 24.7977 8.942 24.8102 8.92489 24.8273C8.90778 24.8444 8.89531 24.8656 8.88868 24.8889C8.87954 24.9208 8.87954 24.9547 8.88868 24.9867C8.88868 24.9867 8.88868 25.0311 8.88868 25.0578V26.0267V25.9822Z" fill="black"/>
<path d="M10.4087 25.52C10.429 25.4397 10.4589 25.3621 10.4976 25.2889C10.5445 25.2082 10.6013 25.1335 10.6665 25.0667C10.7204 24.9961 10.7867 24.9359 10.862 24.8889C10.9434 24.8329 11.0335 24.7908 11.1287 24.7644C11.2347 24.7288 11.3458 24.7108 11.4576 24.7111C11.5968 24.713 11.7348 24.737 11.8665 24.7822C11.9873 24.8265 12.0988 24.8928 12.1954 24.9778C12.2909 25.0714 12.3662 25.1835 12.4167 25.3074C12.4671 25.4312 12.4916 25.5641 12.4887 25.6978C12.4887 25.8408 12.4616 25.9826 12.4087 26.1156C12.3633 26.2405 12.2939 26.3552 12.2042 26.4533C12.1073 26.5511 11.9927 26.6295 11.8665 26.6844C11.7326 26.7452 11.5868 26.7756 11.4398 26.7733C11.2802 26.777 11.122 26.7435 10.9776 26.6756C10.8569 26.6222 10.7497 26.5427 10.6636 26.4428C10.5775 26.3428 10.5147 26.225 10.4798 26.0978C10.4411 25.9831 10.4201 25.8632 10.4176 25.7422L10.4087 25.52ZM10.702 26.08C10.74 26.1972 10.8004 26.3059 10.8798 26.4C10.9524 26.4871 11.0435 26.5569 11.1465 26.6044C11.2499 26.6509 11.362 26.6752 11.4754 26.6756H11.6887C11.7774 26.649 11.8593 26.6035 11.9287 26.5422C12.0135 26.4679 12.0778 26.373 12.1154 26.2667C12.1825 26.1222 12.2131 25.9635 12.2042 25.8044C12.203 25.6623 12.179 25.5212 12.1331 25.3867C12.0945 25.2751 12.0341 25.1724 11.9554 25.0844C11.8849 25.0081 11.7998 24.9467 11.7051 24.9039C11.6105 24.8611 11.5081 24.8379 11.4042 24.8356C11.2982 24.8346 11.1928 24.8527 11.0931 24.8889C11.0026 24.9285 10.921 24.986 10.8531 25.0578C10.7832 25.1356 10.7289 25.2261 10.6931 25.3244C10.6502 25.4472 10.6291 25.5766 10.6309 25.7067C10.6328 25.8459 10.6568 25.9839 10.702 26.1156V26.08Z" fill="black"/>
<path d="M13.6802 26.3822C13.6802 26.4356 13.6802 26.48 13.6802 26.5156C13.6802 26.5511 13.6802 26.5778 13.6802 26.6044C13.6776 26.6221 13.6776 26.6401 13.6802 26.6578H13.8046H13.3335H13.4402C13.4575 26.6499 13.4725 26.6375 13.4834 26.6218C13.4944 26.6062 13.5009 26.5879 13.5024 26.5689C13.5114 26.4862 13.5114 26.4027 13.5024 26.32V24.72H13.5468V24.7733C13.5805 24.8021 13.6103 24.8349 13.6357 24.8711L13.8313 25.0756L14.0891 25.3511L14.3824 25.6711L14.5779 25.8844L14.7646 26.0889L14.9157 26.2489L15.0135 26.3556V25.0222C15.0228 24.9633 15.0228 24.9033 15.0135 24.8444C15.0076 24.8266 14.9971 24.8106 14.9831 24.7981C14.969 24.7856 14.9519 24.7771 14.9335 24.7733H14.8091C14.8091 24.7733 14.8091 24.7733 14.8624 24.7733H15.3602H15.4046H15.3424C15.3246 24.7754 15.3078 24.7823 15.2937 24.7933C15.2796 24.8042 15.2688 24.8189 15.2624 24.8356C15.2541 24.8916 15.2541 24.9485 15.2624 25.0044V26.7022L15.1113 26.6667L15.0224 26.5778L14.9424 26.4978L14.7735 26.3289L14.5602 26.1067L14.3379 25.8667L14.1157 25.6267L13.9202 25.4133L13.7602 25.2356L13.6535 25.12L13.6802 26.3822Z" fill="black"/>
<path d="M16.622 26.7556C16.5635 26.7459 16.5066 26.728 16.4531 26.7022C16.4531 26.7022 16.4531 26.6489 16.4531 26.6311V26.4533C16.4569 26.4179 16.4569 26.3821 16.4531 26.3467C16.4531 26.3467 16.4531 26.3467 16.4531 26.3467C16.4573 26.3642 16.4573 26.3825 16.4531 26.4C16.4616 26.4449 16.4798 26.4874 16.5065 26.5244C16.5291 26.5579 16.5597 26.5854 16.5953 26.6044C16.6335 26.6117 16.6727 26.6117 16.7109 26.6044C16.7633 26.6412 16.8248 26.6627 16.8887 26.6667C16.9416 26.676 16.9958 26.676 17.0487 26.6667L17.1731 26.5867C17.2023 26.5533 17.2236 26.5138 17.2353 26.4711C17.2437 26.4301 17.2437 26.3877 17.2353 26.3467C17.2445 26.3057 17.2445 26.2632 17.2353 26.2222C17.226 26.1818 17.211 26.1429 17.1909 26.1067L17.0931 26L16.9509 25.8756L16.8176 25.7778L16.6487 25.6178C16.6075 25.5748 16.5717 25.5271 16.542 25.4756C16.5167 25.4345 16.4986 25.3894 16.4887 25.3422C16.4843 25.2979 16.4843 25.2532 16.4887 25.2089C16.4753 25.1444 16.4753 25.0778 16.4887 25.0133C16.5264 24.9652 16.5714 24.9232 16.622 24.8889C16.6733 24.8506 16.7303 24.8206 16.7909 24.8C16.8674 24.7865 16.9456 24.7865 17.022 24.8H17.1553H17.262H17.3509V24.8889C17.3451 24.9569 17.3451 25.0253 17.3509 25.0933V25.1467C17.3527 25.126 17.3527 25.1051 17.3509 25.0844C17.3562 25.064 17.3562 25.0426 17.3509 25.0222L17.2176 24.8889H17.1198C17.0698 24.8803 17.0187 24.8803 16.9687 24.8889C16.8847 24.8881 16.8031 24.9164 16.7376 24.9689C16.7065 24.9964 16.6822 25.0309 16.6668 25.0695C16.6514 25.1081 16.6452 25.1497 16.6487 25.1911C16.6443 25.2265 16.6443 25.2624 16.6487 25.2978L16.702 25.3956L16.7998 25.5022L16.9598 25.6356L17.0309 25.6889C17.0994 25.7412 17.162 25.8008 17.2176 25.8667C17.2683 25.9086 17.3106 25.9599 17.342 26.0178C17.3689 26.0612 17.387 26.1096 17.3953 26.16C17.4045 26.21 17.4045 26.2612 17.3953 26.3111C17.3997 26.3406 17.3997 26.3705 17.3953 26.4C17.4004 26.4384 17.4004 26.4772 17.3953 26.5156C17.38 26.5595 17.3591 26.6014 17.3331 26.64L17.2176 26.7467C17.1624 26.7874 17.0985 26.8148 17.0309 26.8267C16.963 26.8353 16.8943 26.8353 16.8265 26.8267L16.622 26.7556Z" fill="black"/>
<path d="M18.4888 25.5111V24.9422V24.8444C18.4778 24.8313 18.4643 24.8206 18.449 24.813C18.4337 24.8053 18.417 24.8009 18.3999 24.8H18.311C18.311 24.8 18.311 24.8 18.3555 24.8H18.9155H18.9599H18.8888C18.8742 24.801 18.8601 24.8056 18.8477 24.8133C18.8353 24.8211 18.825 24.8318 18.8177 24.8444V24.9422V25.8756C18.8085 25.9583 18.8085 26.0417 18.8177 26.1244C18.8085 26.1833 18.8085 26.2433 18.8177 26.3022C18.8347 26.3483 18.8555 26.3929 18.8799 26.4356L18.9599 26.5244C19.0142 26.581 19.0813 26.6237 19.1555 26.6489C19.2233 26.6582 19.2921 26.6582 19.3599 26.6489C19.4377 26.6455 19.5141 26.6265 19.5843 26.5929C19.6546 26.5593 19.7174 26.5118 19.7688 26.4533C19.8337 26.3749 19.8739 26.279 19.8844 26.1778C19.8979 26.0567 19.8979 25.9344 19.8844 25.8133V24.9867C19.8887 24.9632 19.8887 24.9391 19.8844 24.9156C19.8935 24.8836 19.8935 24.8497 19.8844 24.8178C19.8752 24.8049 19.8632 24.7942 19.8494 24.7865C19.8355 24.7789 19.8202 24.7743 19.8044 24.7733H19.7155H20.2133H20.2577H20.1955C20.1809 24.7743 20.1668 24.7789 20.1544 24.7866C20.1419 24.7944 20.1316 24.8051 20.1244 24.8178C20.1152 24.8497 20.1152 24.8836 20.1244 24.9156V25.8044C20.1244 25.8756 20.1244 25.9467 20.1244 26.0178C20.1286 26.0888 20.1286 26.1601 20.1244 26.2311C20.106 26.2981 20.0823 26.3635 20.0533 26.4267C20.0189 26.4876 19.9737 26.5419 19.9199 26.5867C19.8778 26.6263 19.8298 26.6593 19.7777 26.6844L19.6444 26.7467C19.6003 26.7551 19.5551 26.7551 19.511 26.7467H19.2888C19.1868 26.7463 19.0863 26.722 18.9955 26.6756C18.9398 26.6482 18.8888 26.6122 18.8444 26.5689L18.7555 26.4622C18.7231 26.4197 18.699 26.3714 18.6844 26.32C18.6584 26.2604 18.6405 26.1976 18.631 26.1333C18.6266 26.0475 18.6266 25.9614 18.631 25.8756L18.4888 25.5111Z" fill="black"/>
<path d="M23.2531 26.4C23.2531 26.4 23.2531 26.4533 23.2531 26.48V26.56V26.6311L23.3242 26.6756H23.4309H23.4931H22.9509C22.9555 26.6551 22.9555 26.6338 22.9509 26.6133L22.8264 25.2533L22.1864 26.6133L22.222 26.6667C22.2015 26.6387 22.1837 26.609 22.1687 26.5778L22.0887 26.4267L21.9909 26.2311L21.902 26.0533L21.8576 25.9644C21.8597 25.9408 21.8597 25.917 21.8576 25.8933L21.7064 25.7778L21.6264 25.6089L21.5464 25.44C21.5464 25.3867 21.5464 25.3422 21.4842 25.2978V25.2267L21.3331 26.4711V26.6044C21.3278 26.6249 21.3278 26.6463 21.3331 26.6667C21.3504 26.6728 21.3692 26.6728 21.3864 26.6667H21.4398H21.4842C21.4842 26.6667 21.4842 26.6667 21.4398 26.6667H20.9776H20.9331H21.0131C21.0326 26.6622 21.0504 26.6523 21.0646 26.6381C21.0787 26.624 21.0886 26.6062 21.0931 26.5867V26.4533L21.3331 24.7644V24.72C21.3331 24.72 21.3331 24.72 21.3775 24.72L22.1776 26.3733L22.9509 24.7289V24.6844C22.9509 24.6844 22.9509 24.6844 22.9509 24.7556L23.2531 26.4Z" fill="black"/>
</g>
<defs>
<clipPath id="clip0_2707_317398">
<rect width="32" height="32" fill="white"/>
</clipPath>
</defs>
</svg>
