<svg width="32" height="32" viewBox="0 0 32 32" fill="none" xmlns="http://www.w3.org/2000/svg">
<g clip-path="url(#clip0_2707_379923)">
<path d="M15.9998 31.9823C24.8265 31.9823 31.982 24.8268 31.982 16C31.982 7.17331 24.8265 0.0178223 15.9998 0.0178223C7.17306 0.0178223 0.0175781 7.17331 0.0175781 16C0.0175781 24.8268 7.17306 31.9823 15.9998 31.9823Z" fill="white"/>
<path d="M27.422 12.7645C29.9286 14.9423 29.9464 15.7423 27.5109 18.0979C27.0042 18.5867 26.4264 18.9867 25.8753 19.449L20.6309 18.3734C21.182 17.7156 21.7153 17.0045 22.2931 16.3467C23.182 15.3423 24.1153 14.3734 25.022 13.3779L27.422 12.7645Z" fill="#465DA2"/>
<path d="M9.97266 8.3201C9.97266 8.3201 10.9415 6.22232 11.5549 5.19121C12.6482 3.29788 13.6082 3.19121 15.6171 4.63121L16.1682 7.21788C15.0726 8.92218 13.8856 10.5661 12.6127 12.1423L9.97266 8.3201Z" fill="#2D2953"/>
<path d="M15.9998 26.3912C15.9998 26.3912 14.0353 27.2801 13.2353 27.7156C10.9687 28.8978 9.99087 28.4889 8.97754 25.9912L10.1064 23.9289C11.1375 23.3512 16.142 21.0934 16.142 21.0934L15.9998 26.3912Z" fill="#2D2953"/>
<path d="M10.1069 23.929L8.97801 25.9912C8.08166 26.1336 7.16382 26.0448 6.31134 25.7334C5.92123 25.5262 5.60543 25.2025 5.40788 24.8074C5.21033 24.4123 5.14085 23.9654 5.20912 23.529C5.43134 22.0801 5.84912 19.3868 5.84912 19.3868L11.1825 18.329C10.8269 19.5556 10.1158 23.3245 10.1069 23.929Z" fill="#465DA2"/>
<path d="M16.1419 7.21781L15.5908 4.63114C19.653 3.66225 19.653 3.66225 21.7153 7.4667L22.2219 8.41781L19.4308 12.8623L16.1419 7.21781Z" fill="#465DA2"/>
<path d="M9.9733 8.32007L12.56 12.1423L6.77329 13.3778L4.65774 12.8712C3.41329 9.75118 4.16885 8.60451 7.55552 8.42673L9.9733 8.32007Z" fill="#465DA2"/>
<path d="M19.4395 12.8268L22.2306 8.38232C23.2172 8.38232 24.195 8.38232 25.1995 8.4801C28.1506 8.66677 28.9061 10.1245 27.4217 12.729L25.0395 13.3334L19.4395 12.8268Z" fill="#2D2953"/>
<path d="M16 26.3912L16.1422 21.0579L21.8489 23.8134L23.3156 25.8223C23.0489 26.1601 22.7644 26.4712 22.5156 26.8445C21.4044 28.3734 20.5422 28.6223 18.7733 27.8312C17.68 27.369 16 26.3912 16 26.3912Z" fill="#465DA2"/>
<path d="M23.3152 25.8489L21.8485 23.84L20.6396 18.3467L25.893 19.4222C26.1241 20.4889 26.3996 21.5378 26.6041 22.5956C27.093 25.2267 26.1241 26.1778 23.3152 25.8489Z" fill="#2D2953"/>
<path d="M4.65715 12.8978L6.77271 13.4045L11.1194 18.3289L5.78604 19.3867C5.12826 18.7289 4.47938 18.1334 3.88382 17.4845C2.07049 15.5645 2.26604 14.4267 4.65715 12.8978Z" fill="#2D2953"/>
</g>
<defs>
<clipPath id="clip0_2707_379923">
<rect width="32" height="32" fill="white"/>
</clipPath>
</defs>
</svg>
