<svg width="32" height="32" viewBox="0 0 32 32" fill="none" xmlns="http://www.w3.org/2000/svg">
<g clip-path="url(#clip0_2707_316708)">
<path d="M16 31.9822C24.8268 31.9822 31.9823 24.8267 31.9823 16C31.9823 7.17325 24.8268 0.0177612 16 0.0177612C7.17331 0.0177612 0.0178223 7.17325 0.0178223 16C0.0178223 24.8267 7.17331 31.9822 16 31.9822Z" fill="white"/>
<path d="M16.0001 20.1244C22.6079 20.1244 27.9645 18.2779 27.9645 16C27.9645 13.7221 22.6079 11.8755 16.0001 11.8755C9.39231 11.8755 4.03564 13.7221 4.03564 16C4.03564 18.2779 9.39231 20.1244 16.0001 20.1244Z" fill="#EC1A24"/>
<path d="M16 19.92C22.0629 19.92 26.9778 18.1649 26.9778 16C26.9778 13.835 22.0629 12.08 16 12.08C9.93714 12.08 5.02222 13.835 5.02222 16C5.02222 18.1649 9.93714 19.92 16 19.92Z" fill="#F5ED08"/>
<path d="M9.19124 14.56H10.2401C10.2401 14.6133 9.96457 14.7911 9.96457 14.7911V16.7644L10.2401 16.9778H8.93346L9.2179 16.7644V15.1111L8.46235 16.6133H7.94679C7.6979 16.1215 7.44012 15.6059 7.17346 15.0667C7.10634 15.6365 7.10634 16.2123 7.17346 16.7822C7.17346 16.7822 7.47568 17.0044 7.3779 17.0044H6.55124L6.82679 16.7822C6.89285 16.1261 6.89285 15.465 6.82679 14.8089L6.48901 14.5867H7.63568L8.40901 16.1156L9.19124 14.56Z" fill="#EC1A24"/>
<path d="M12.0268 16.7289L11.8934 16.4444H11.0668L10.9156 16.7555L11.2445 16.9244H10.4268C10.4268 16.9244 10.6845 16.8444 10.7556 16.7111C11.0134 16.2667 11.3779 15.2355 11.4934 14.9955H11.8579L12.6668 16.7733L12.8801 16.9689C12.8801 16.9689 12.2223 16.9689 11.8312 16.9689C11.9556 16.9333 12.0356 16.8889 12.0268 16.7289ZM11.1379 16.2489H11.7956C11.7112 16.0179 11.6008 15.7973 11.4668 15.5911L11.1379 16.2489Z" fill="#EC1A24"/>
<path d="M14.0445 15.2533V16.7911H14.9334C14.9334 16.6933 15.0934 16.6133 15.1112 16.5155H15.1734V16.9955C14.4801 16.9955 13.7957 16.9955 13.1112 16.9955C13.1112 16.9955 13.049 16.9511 12.9868 16.8978C13.1734 16.8978 13.2801 16.8978 13.3245 16.7822V15.2266L12.969 15.0222C13.4041 14.9943 13.8406 14.9943 14.2757 15.0222C14.1834 15.0823 14.1047 15.161 14.0445 15.2533Z" fill="#EC1A24"/>
<path fill-rule="evenodd" clip-rule="evenodd" d="M15.9113 14.1244V17.0933C15.9111 17.1084 15.9164 17.123 15.9262 17.1345C15.9361 17.1459 15.9497 17.1534 15.9646 17.1555C15.9646 17.1555 16.0179 17.1556 16.0179 17.0933V14.1244C16.0179 14.1103 16.0123 14.0967 16.0023 14.0867C15.9923 14.0767 15.9787 14.0711 15.9646 14.0711C15.9646 14.0711 15.9024 14.0978 15.9113 14.1244Z" fill="#EC1A24"/>
<path fill-rule="evenodd" clip-rule="evenodd" d="M16.889 13.9911H16.0001C15.986 13.9911 15.9724 13.9967 15.9624 14.0067C15.9524 14.0167 15.9468 14.0303 15.9468 14.0444C15.9468 14.0586 15.9524 14.0721 15.9624 14.0821C15.9724 14.0921 15.986 14.0977 16.0001 14.0977H16.889C16.9031 14.0977 16.9167 14.0921 16.9267 14.0821C16.9367 14.0721 16.9423 14.0586 16.9423 14.0444C16.944 14.0371 16.9438 14.0294 16.9418 14.0221C16.9397 14.0149 16.9358 14.0083 16.9305 14.0029C16.9251 13.9976 16.9185 13.9937 16.9113 13.9916C16.904 13.9896 16.8963 13.9894 16.889 13.9911Z" fill="#EC1A24"/>
<path fill-rule="evenodd" clip-rule="evenodd" d="M16.9688 14.3644H15.8844C15.8702 14.3644 15.8567 14.3701 15.8467 14.3801C15.8367 14.3901 15.8311 14.4036 15.8311 14.4178C15.8309 14.4328 15.8362 14.4475 15.846 14.4589C15.8558 14.4704 15.8695 14.4778 15.8844 14.48H16.9688C16.9853 14.48 17.0012 14.4734 17.0128 14.4618C17.0245 14.4501 17.0311 14.4343 17.0311 14.4178C17.0289 14.4029 17.0214 14.3892 17.01 14.3794C16.9985 14.3696 16.9839 14.3643 16.9688 14.3644Z" fill="#EC1A24"/>
<path fill-rule="evenodd" clip-rule="evenodd" d="M17.0577 14.72H15.8844C15.8702 14.72 15.8567 14.7256 15.8467 14.7356C15.8367 14.7456 15.8311 14.7592 15.8311 14.7733C15.8311 14.7875 15.8367 14.801 15.8467 14.811C15.8567 14.821 15.8702 14.8266 15.8844 14.8266H17.0577C17.0728 14.8268 17.0874 14.8215 17.0989 14.8117C17.1103 14.8019 17.1178 14.7882 17.1199 14.7733C17.1199 14.7733 17.0933 14.72 17.0577 14.72Z" fill="#EC1A24"/>
<path fill-rule="evenodd" clip-rule="evenodd" d="M17.0577 15.0489H15.8844C15.8695 15.051 15.8558 15.0585 15.846 15.07C15.8362 15.0814 15.8309 15.096 15.8311 15.1111C15.8311 15.1253 15.8367 15.1388 15.8467 15.1488C15.8567 15.1588 15.8702 15.1644 15.8844 15.1644H17.0577C17.0728 15.1646 17.0874 15.1593 17.0989 15.1495C17.1103 15.1397 17.1178 15.126 17.1199 15.1111C17.1199 15.0946 17.1134 15.0788 17.1017 15.0671C17.0901 15.0554 17.0742 15.0489 17.0577 15.0489Z" fill="#EC1A24"/>
<path fill-rule="evenodd" clip-rule="evenodd" d="M17.0577 15.36H15.8844C15.8702 15.36 15.8567 15.3656 15.8467 15.3756C15.8367 15.3856 15.8311 15.3992 15.8311 15.4133C15.8309 15.4284 15.8362 15.443 15.846 15.4545C15.8558 15.4659 15.8695 15.4734 15.8844 15.4755H17.0577C17.0742 15.4755 17.0901 15.469 17.1017 15.4573C17.1134 15.4457 17.1199 15.4298 17.1199 15.4133C17.1178 15.3984 17.1103 15.3848 17.0989 15.375C17.0874 15.3652 17.0728 15.3598 17.0577 15.36Z" fill="#EC1A24"/>
<path fill-rule="evenodd" clip-rule="evenodd" d="M17.0577 15.7244H15.8844C15.8702 15.7244 15.8567 15.73 15.8467 15.74C15.8367 15.75 15.8311 15.7636 15.8311 15.7778C15.8311 15.7919 15.8367 15.8055 15.8467 15.8155C15.8567 15.8255 15.8702 15.8311 15.8844 15.8311H17.0577C17.0728 15.8312 17.0874 15.8259 17.0989 15.8161C17.1103 15.8063 17.1178 15.7927 17.1199 15.7778C17.1199 15.7778 17.0933 15.7244 17.0577 15.7244Z" fill="#EC1A24"/>
<path fill-rule="evenodd" clip-rule="evenodd" d="M17.0577 16.0533H15.8844C15.8695 16.0555 15.8558 16.063 15.846 16.0744C15.8362 16.0859 15.8309 16.1005 15.8311 16.1156C15.8311 16.1297 15.8367 16.1433 15.8467 16.1533C15.8567 16.1633 15.8702 16.1689 15.8844 16.1689H17.0577C17.0728 16.1691 17.0874 16.1637 17.0989 16.1539C17.1103 16.1441 17.1178 16.1305 17.1199 16.1156C17.1199 16.0991 17.1134 16.0832 17.1017 16.0716C17.0901 16.0599 17.0742 16.0533 17.0577 16.0533Z" fill="#EC1A24"/>
<path fill-rule="evenodd" clip-rule="evenodd" d="M17.0577 16.4533H15.8844C15.8702 16.4533 15.8567 16.4589 15.8467 16.4689C15.8367 16.4789 15.8311 16.4925 15.8311 16.5066C15.8311 16.5208 15.8367 16.5344 15.8467 16.5444C15.8567 16.5544 15.8702 16.56 15.8844 16.56H17.0577C17.0728 16.5601 17.0874 16.5548 17.0989 16.545C17.1103 16.5352 17.1178 16.5216 17.1199 16.5066C17.1199 16.5066 17.0933 16.4533 17.0577 16.4533Z" fill="#EC1A24"/>
<path fill-rule="evenodd" clip-rule="evenodd" d="M17.0577 16.7644H15.8844C15.8695 16.7666 15.8558 16.7741 15.846 16.7855C15.8362 16.7969 15.8309 16.8116 15.8311 16.8266C15.8311 16.8408 15.8367 16.8543 15.8467 16.8643C15.8567 16.8743 15.8702 16.88 15.8844 16.88H17.0577C17.0728 16.8801 17.0874 16.8748 17.0989 16.865C17.1103 16.8552 17.1178 16.8415 17.1199 16.8266C17.1199 16.8101 17.1134 16.7943 17.1017 16.7826C17.0901 16.771 17.0742 16.7644 17.0577 16.7644Z" fill="#EC1A24"/>
<path fill-rule="evenodd" clip-rule="evenodd" d="M16.1245 13.76L16.169 17.52C16.169 17.5365 16.1755 17.5523 16.1872 17.564C16.1989 17.5757 16.2147 17.5822 16.2312 17.5822C16.2461 17.5801 16.2597 17.5726 16.2695 17.5611C16.2793 17.5497 16.2847 17.5351 16.2845 17.52L16.2401 13.76C16.2401 13.76 16.2401 13.7067 16.1778 13.7067C16.1637 13.7067 16.1501 13.7123 16.1401 13.7223C16.1301 13.7323 16.1245 13.7459 16.1245 13.76Z" fill="#EC1A24"/>
<path fill-rule="evenodd" clip-rule="evenodd" d="M16.3645 13.6L16.4178 17.6089C16.4178 17.623 16.4235 17.6366 16.4335 17.6466C16.4435 17.6566 16.457 17.6622 16.4712 17.6622C16.4862 17.6623 16.5009 17.657 16.5123 17.6472C16.5237 17.6374 16.5312 17.6238 16.5334 17.6089L16.4801 13.6C16.4801 13.5858 16.4744 13.5723 16.4644 13.5623C16.4544 13.5523 16.4409 13.5466 16.4267 13.5466C16.4117 13.5465 16.397 13.5518 16.3856 13.5616C16.3741 13.5714 16.3667 13.585 16.3645 13.6Z" fill="#EC1A24"/>
<path fill-rule="evenodd" clip-rule="evenodd" d="M16.5957 13.6977V17.7066C16.5957 17.7066 16.5957 17.76 16.6579 17.76C16.6721 17.76 16.6856 17.7543 16.6956 17.7443C16.7057 17.7343 16.7113 17.7208 16.7113 17.7066L16.6579 13.6977C16.6579 13.6836 16.6523 13.67 16.6423 13.66C16.6323 13.65 16.6187 13.6444 16.6046 13.6444C16.5905 13.6444 16.5769 13.65 16.5669 13.66C16.5569 13.67 16.5513 13.6836 16.5513 13.6977H16.5957Z" fill="#EC1A24"/>
<path fill-rule="evenodd" clip-rule="evenodd" d="M16.8088 14.0444L16.8888 17.52C16.8888 17.5365 16.8954 17.5523 16.907 17.564C16.9187 17.5756 16.9345 17.5822 16.951 17.5822C16.966 17.58 16.9796 17.5726 16.9894 17.5611C16.9992 17.5497 17.0045 17.535 17.0044 17.52L16.8888 14.0444C16.8888 14.0444 16.8888 13.9911 16.8266 13.9911C16.819 13.9974 16.8133 14.0058 16.8101 14.0152C16.807 14.0246 16.8065 14.0348 16.8088 14.0444Z" fill="#EC1A24"/>
<path d="M21.3334 15.2266L21.049 15.0222C21.6408 14.9502 22.2402 14.9682 22.8267 15.0755C23.0221 15.0994 23.204 15.1873 23.3439 15.3257C23.4839 15.464 23.574 15.6449 23.6001 15.84C23.6477 16.0685 23.6036 16.3066 23.4772 16.5028C23.3508 16.6991 23.1523 16.8377 22.9245 16.8888C22.753 16.9508 22.5733 16.9867 22.3912 16.9955C21.912 17.0356 21.4303 17.0356 20.9512 16.9955L21.3067 16.7822L21.3334 15.2266ZM21.9912 15.2266C21.961 15.7625 21.961 16.2996 21.9912 16.8355H22.1778C22.2641 16.846 22.3516 16.8375 22.4342 16.8106C22.5169 16.7837 22.5926 16.739 22.6561 16.6797C22.7196 16.6204 22.7694 16.5479 22.802 16.4674C22.8345 16.3868 22.849 16.3001 22.8445 16.2133C22.8578 16.0536 22.8578 15.893 22.8445 15.7333C22.8379 15.5972 22.7802 15.4686 22.683 15.373C22.5859 15.2775 22.4563 15.222 22.3201 15.2177L21.9912 15.2266Z" fill="#EC1A24"/>
<path d="M26.2755 16C26.2969 16.1921 26.251 16.3857 26.1457 16.5478C26.0403 16.7099 25.882 16.8304 25.6978 16.8888C25.4994 16.9722 25.2863 17.0152 25.0711 17.0152C24.8559 17.0152 24.6428 16.9722 24.4444 16.8888C24.2779 16.8218 24.1339 16.7085 24.0296 16.5623C23.9253 16.4161 23.8649 16.2432 23.8555 16.0639C23.8462 15.8845 23.8883 15.7063 23.9769 15.5501C24.0655 15.3939 24.1968 15.2662 24.3555 15.1822C24.5791 15.0703 24.8256 15.0121 25.0755 15.0121C25.3255 15.0121 25.572 15.0703 25.7955 15.1822C25.9498 15.2528 26.0786 15.3691 26.1644 15.5154C26.2503 15.6617 26.2891 15.8309 26.2755 16ZM25.6444 16C25.6349 15.8568 25.6171 15.7144 25.5911 15.5733C25.568 15.4597 25.5052 15.3579 25.4141 15.2863C25.3229 15.2146 25.2092 15.1777 25.0933 15.1822C24.9784 15.1659 24.8617 15.1935 24.7661 15.2593C24.6706 15.3252 24.6034 15.4246 24.5778 15.5377C24.4858 15.8269 24.4858 16.1375 24.5778 16.4266C24.6054 16.5501 24.6807 16.6576 24.7872 16.7259C24.8938 16.7941 25.0229 16.8176 25.1466 16.7911C25.2603 16.7861 25.3686 16.7416 25.4529 16.6653C25.5373 16.5891 25.5924 16.4858 25.6089 16.3733C25.6178 16.2666 25.6355 16.1333 25.6444 16Z" fill="#EC1A24"/>
<path d="M20.2134 16.4V15.2266C20.1443 15.1245 20.0397 15.0517 19.92 15.0222H20.8089C20.6807 15.054 20.5676 15.1294 20.4889 15.2355V17.0133H20.0445L18.6489 15.6444C18.6489 15.6444 18.6489 16.6133 18.6489 16.8089C18.6884 16.8668 18.7397 16.9158 18.7994 16.9526C18.8592 16.9894 18.926 17.0131 18.9956 17.0222H18.1067C18.32 16.9422 18.4089 16.8622 18.4089 16.7911V15.2355L18.1067 15.0222C18.3579 14.9963 18.6111 14.9963 18.8622 15.0222L20.2134 16.4Z" fill="#EC1A24"/>
<path fill-rule="evenodd" clip-rule="evenodd" d="M15.1111 14.7289C15.3534 14.7859 15.5709 14.9197 15.731 15.1103C15.8912 15.3009 15.9855 15.5381 16 15.7867C16.1778 17.52 16.5511 17.4222 16.5511 17.4222C16.5511 17.4222 16.96 17.2978 16.9778 15.3956C16.9789 15.3037 16.9983 15.2131 17.0347 15.1288C17.0712 15.0445 17.1241 14.9683 17.1902 14.9047C17.2564 14.841 17.3345 14.7911 17.4201 14.7579C17.5057 14.7246 17.5971 14.7087 17.6889 14.7111C17.4718 14.904 17.3328 15.1695 17.2977 15.4578C17.3552 16.0716 17.3313 16.6903 17.2266 17.2978C17.0766 17.6517 16.834 17.9587 16.5244 18.1867C16.1967 17.9516 15.9237 17.6484 15.7244 17.2978C15.6227 16.6836 15.5692 16.0625 15.5644 15.44C15.5493 15.2944 15.5004 15.1543 15.4217 15.0309C15.3431 14.9075 15.2367 14.8041 15.1111 14.7289Z" fill="#EC1A24"/>
<path fill-rule="evenodd" clip-rule="evenodd" d="M15.8223 15.3511C15.838 14.9098 15.9158 14.4729 16.0534 14.0533C16.0855 13.9553 16.1369 13.8646 16.2045 13.7867C16.2494 13.7296 16.3119 13.689 16.3823 13.6711C16.5512 13.6711 16.6667 13.7689 16.7645 13.9467C16.946 14.3397 17.0601 14.7603 17.1023 15.1911C17.1023 15.2053 17.1079 15.2188 17.1179 15.2288C17.1279 15.2388 17.1415 15.2444 17.1556 15.2444C17.1705 15.2423 17.1842 15.2348 17.194 15.2234C17.2038 15.2119 17.2091 15.1973 17.209 15.1822C17.175 14.7377 17.0669 14.3021 16.889 13.8933C16.8531 13.7936 16.7863 13.7079 16.6984 13.6488C16.6105 13.5896 16.506 13.5601 16.4001 13.5644C16.2134 13.5644 16.0712 13.7689 15.9734 14.0089C15.8299 14.4426 15.7491 14.8946 15.7334 15.3511C15.7332 15.3662 15.7386 15.3808 15.7484 15.3922C15.7582 15.4037 15.7718 15.4112 15.7867 15.4133C15.7984 15.4079 15.808 15.399 15.8144 15.3879C15.8207 15.3767 15.8235 15.3639 15.8223 15.3511Z" fill="#EC1A24"/>
</g>
<defs>
<clipPath id="clip0_2707_316708">
<rect width="32" height="32" fill="white"/>
</clipPath>
</defs>
</svg>
