<svg width="32" height="32" viewBox="0 0 32 32" fill="none" xmlns="http://www.w3.org/2000/svg">
<g clip-path="url(#clip0_2737_122523)">
<mask id="mask0_2737_122523" style="mask-type:luminance" maskUnits="userSpaceOnUse" x="0" y="0" width="32" height="32">
<path d="M31.9909 0.0177612H0.0175781V31.9911H31.9909V0.0177612Z" fill="white"/>
</mask>
<g mask="url(#mask0_2737_122523)">
<path d="M15.9998 31.9822C24.8265 31.9822 31.982 24.8267 31.982 16C31.982 7.17325 24.8265 0.0177612 15.9998 0.0177612C7.17306 0.0177612 0.0175781 7.17325 0.0175781 16C0.0175781 24.8267 7.17306 31.9822 15.9998 31.9822Z" fill="white"/>
<path d="M10.9413 11.1644C10.9413 11.1644 10.9413 11.2444 10.9413 11.28C10.9413 14.9955 10.9413 18.72 10.9413 22.4355C10.9413 22.4622 10.9413 22.4889 10.9413 22.5155C10.9413 22.5955 10.968 22.6578 11.0213 22.7111C11.0657 22.7555 11.1191 22.7911 11.1724 22.8267C11.2791 22.88 11.3857 22.9244 11.5013 22.96C11.7591 23.0311 12.0169 23.0667 12.2746 23.0755C12.5857 23.0844 12.8969 23.0755 13.208 22.9955C13.368 22.96 13.528 22.9067 13.6702 22.8355C13.7324 22.8 13.7857 22.7644 13.8391 22.7111C13.8835 22.6578 13.9102 22.6044 13.9102 22.5333C13.9102 22.5067 13.9102 22.4711 13.9102 22.4444V9.89332C13.9102 9.89332 13.9102 9.83999 13.9102 9.81332C13.9102 9.79554 13.9102 9.78665 13.9102 9.76888C13.8924 9.76888 13.8835 9.76888 13.8746 9.76888C12.8969 10.24 11.9191 10.7022 10.9324 11.1733M15.1813 9.14665C15.1813 13.28 15.1813 17.4133 15.1813 21.5467C15.1813 21.5644 15.1813 21.5733 15.1813 21.5911C15.2169 21.6089 15.2524 21.6178 15.2969 21.6355C15.6435 21.76 15.9902 21.8755 16.3369 22C16.7457 22.1422 17.1546 22.2844 17.5635 22.4267C17.5902 22.4355 17.6169 22.4533 17.6524 22.4444C17.6524 19.2267 17.6524 16.0178 17.6524 12.8C17.6524 12.7911 17.6524 12.7733 17.6524 12.7644C17.6257 12.7644 17.5991 12.7467 17.5724 12.7378C17.0302 12.5867 16.4969 12.4444 15.9546 12.2933C15.7146 12.2311 15.4835 12.16 15.2435 12.0978C15.2346 12.0978 15.208 12.0978 15.2169 12.0711C16.3902 11.4667 17.5635 10.8622 18.7457 10.2578C18.7457 10.2578 18.7635 10.2578 18.7724 10.2578C18.7813 10.2933 18.7724 10.3289 18.7724 10.3644C18.7724 13.7333 18.7724 17.1022 18.7724 20.4711C18.7724 20.4978 18.7724 20.5333 18.7724 20.56C18.7724 20.5778 18.7724 20.5867 18.7724 20.6133C18.9502 20.4978 19.1102 20.3911 19.2702 20.2755C19.4302 20.1689 19.5991 20.0533 19.7591 19.9467C19.928 19.8311 20.088 19.7244 20.2569 19.6089C20.4169 19.5022 20.5857 19.3867 20.7457 19.28C20.9057 19.1644 21.0746 19.0667 21.2346 18.9422V6.22221C21.2346 6.22221 21.2346 6.16888 21.2346 6.14221C21.2346 6.12443 21.2346 6.11554 21.2169 6.09777C19.208 7.1111 17.1902 8.12443 15.1724 9.14665M22.6302 3.84888C22.6391 3.97332 22.6302 25.0044 22.6302 25.0844C22.6124 25.0844 22.5946 25.0844 22.5769 25.0844C22.5502 25.0844 22.5324 25.0844 22.5057 25.0844C18.1769 25.0844 13.848 25.0844 9.51019 25.0844C9.46574 25.0844 9.43019 25.0844 9.38574 25.0844C9.38574 25.0755 9.38574 25.0667 9.38574 25.0578C9.38574 20.1778 9.38574 15.3067 9.38574 10.4355V10.4267C9.40352 10.4178 9.4213 10.4089 9.43908 10.4C13.8213 8.22221 18.2124 6.04443 22.5946 3.85777C22.5946 3.85777 22.5946 3.85777 22.6035 3.85777C22.6035 3.85777 22.6035 3.85777 22.6213 3.85777" fill="#2A376D"/>
<path d="M13.2082 25.7333H13.3771C13.4038 25.8311 13.4126 25.9378 13.4304 26.0444C13.4482 26.1511 13.466 26.2578 13.4838 26.3644C13.5015 26.4711 13.5193 26.5689 13.5371 26.6844C13.4749 26.6933 13.4215 26.6844 13.3682 26.6844C13.3415 26.5867 13.3326 26.4889 13.3149 26.4C13.2971 26.3111 13.2882 26.2133 13.2526 26.1156C13.1815 26.3111 13.1193 26.5067 13.0571 26.6933H12.8971C12.8615 26.6044 12.8349 26.5067 12.7993 26.4089C12.7638 26.32 12.746 26.2222 12.7015 26.1333C12.6749 26.16 12.6838 26.1867 12.6749 26.2133C12.6749 26.24 12.666 26.2667 12.6571 26.2933C12.6571 26.32 12.6482 26.3467 12.6393 26.3733C12.6393 26.4 12.6393 26.4178 12.6304 26.4444C12.6304 26.4711 12.6215 26.4978 12.6126 26.5244C12.6126 26.5511 12.6038 26.5778 12.5949 26.6044C12.5949 26.6311 12.586 26.6578 12.5771 26.6844H12.4082C12.4082 26.5778 12.4438 26.4711 12.4526 26.3733C12.4704 26.2667 12.4882 26.16 12.506 26.0533C12.5238 25.9467 12.5415 25.8489 12.5593 25.7422C12.6215 25.7333 12.6749 25.7422 12.7282 25.7422C12.7282 25.76 12.746 25.7778 12.7549 25.7956C12.8171 25.9733 12.8704 26.1511 12.9326 26.32C12.9326 26.3378 12.9504 26.3556 12.9593 26.3911C13.0126 26.2756 13.0393 26.1689 13.0749 26.0622C13.1104 25.9556 13.146 25.8489 13.1904 25.7422" fill="#2A376D"/>
<path d="M17.2085 26.3911C17.2085 26.3911 17.1285 26.3911 17.084 26.3911C17.0396 26.3911 17.004 26.3911 16.9596 26.3911C16.9418 26.32 16.9418 26.2933 16.9596 26.2222C17.0307 26.2133 17.3329 26.2133 17.4307 26.2222C17.4485 26.2666 17.4307 26.3111 17.4307 26.3555C17.3951 26.5155 17.2618 26.72 16.9951 26.7288C16.8085 26.7288 16.6485 26.6844 16.5418 26.5244C16.4262 26.3644 16.3996 26.1777 16.4885 26C16.5773 25.8222 16.7285 25.7244 16.9329 25.7155C17.1018 25.7155 17.244 25.76 17.3596 25.8933C17.3329 25.9466 17.2885 25.9822 17.244 26.0177C17.2262 26 17.2085 25.9911 17.1907 25.9733C17.1196 25.9111 17.0307 25.8933 16.9329 25.8933C16.7729 25.8933 16.6396 26.0266 16.6307 26.1777C16.6129 26.3733 16.7462 26.4977 16.8707 26.5333C16.9329 26.5511 17.004 26.5511 17.0662 26.5333C17.1373 26.5155 17.1907 26.4711 17.2173 26.3911" fill="#2A376D"/>
<path d="M22.3991 26.3822C22.3013 26.3822 22.2213 26.3822 22.1413 26.3822C22.1235 26.32 22.1235 26.3022 22.1413 26.2222C22.2035 26.2133 22.4613 26.2044 22.6124 26.2222C22.6124 26.24 22.6124 26.2578 22.6124 26.2844C22.6124 26.48 22.4524 26.7289 22.1591 26.7378C21.9724 26.7378 21.8124 26.6844 21.7058 26.5244C21.5991 26.3644 21.5813 26.1867 21.6702 26.0089C21.7591 25.8311 21.9102 25.7422 22.1146 25.7333C22.2658 25.7333 22.3991 25.7689 22.5146 25.8756C22.5235 25.8844 22.5324 25.8933 22.5502 25.9111C22.5413 25.9289 22.5324 25.9378 22.5235 25.9467C22.4969 25.9733 22.4613 26.0089 22.4346 26.0356C22.408 26.0178 22.3813 25.9911 22.3546 25.9733C22.2658 25.9111 22.168 25.8933 22.0613 25.92C21.9191 25.9556 21.8124 26.08 21.8124 26.2311C21.8124 26.4089 21.9369 26.5244 22.0613 26.5511C22.1235 26.5689 22.1858 26.5689 22.248 26.5511C22.3191 26.5333 22.3724 26.4889 22.4169 26.4" fill="#2A376D"/>
<path d="M18.6125 26.3822C18.5236 26.3822 18.4436 26.3822 18.3636 26.3822C18.3459 26.32 18.3459 26.3022 18.3636 26.2222C18.4259 26.2044 18.6747 26.2044 18.8259 26.2222C18.8259 26.2222 18.8347 26.24 18.8347 26.2489C18.8436 26.4533 18.6925 26.6666 18.497 26.72C18.3014 26.7733 18.0436 26.7289 17.9103 26.4978C17.8125 26.3378 17.8036 26.16 17.8925 25.9911C17.9814 25.8133 18.1325 25.7333 18.3281 25.7244C18.4881 25.7244 18.6214 25.76 18.737 25.8755C18.737 25.8755 18.7547 25.8933 18.7636 25.9022C18.7281 25.9466 18.6836 25.9911 18.6392 26.0266C18.6125 26.0089 18.5947 25.9911 18.577 25.9733C18.4703 25.8933 18.3547 25.8844 18.2303 25.9289C18.097 25.9733 18.017 26.1066 18.0259 26.2489C18.0259 26.3911 18.1325 26.5066 18.2659 26.5422C18.3281 26.56 18.3903 26.56 18.4525 26.5422C18.5325 26.5244 18.577 26.48 18.6125 26.3911" fill="#2A376D"/>
<path d="M20.5772 26.1067V26.6844C20.5061 26.7022 20.4794 26.7022 20.3994 26.6844C20.3994 26.6844 20.3994 26.6667 20.3994 26.6578C20.3994 26.3556 20.3994 26.0622 20.3994 25.76C20.3994 25.76 20.3994 25.7422 20.4083 25.7333C20.4616 25.7333 20.515 25.7333 20.5772 25.7333C20.7016 25.9289 20.835 26.1244 20.9594 26.3289C20.9861 26.3289 20.9861 26.3111 20.9861 26.2933C20.9861 26.1422 20.9861 25.9911 20.9861 25.84V25.7511C21.0483 25.7333 21.1016 25.7422 21.1639 25.7511C21.1639 25.7689 21.1639 25.7867 21.1639 25.7956C21.1639 26.0533 21.1639 26.6222 21.1639 26.7022C21.1105 26.7111 21.0572 26.7022 21.0039 26.7022C20.9327 26.6044 20.8705 26.4978 20.7994 26.4C20.7372 26.3022 20.675 26.2044 20.6039 26.1067C20.6039 26.1067 20.595 26.1067 20.5861 26.1067" fill="#2A376D"/>
<path d="M15.9821 26.6933H15.8132C15.6799 26.4978 15.5555 26.2933 15.4221 26.0978C15.3955 26.0978 15.4043 26.1244 15.4043 26.1333C15.4043 26.2844 15.4043 26.4355 15.4043 26.5866C15.4043 26.6133 15.4043 26.6489 15.4043 26.6844C15.351 26.6933 15.2977 26.6844 15.2355 26.6844C15.2355 26.6666 15.2266 26.6578 15.2266 26.64C15.2266 26.3466 15.2266 26.0533 15.2266 25.76C15.2266 25.7511 15.2266 25.7333 15.2266 25.7244C15.2799 25.7244 15.3332 25.7244 15.3955 25.7244C15.5288 25.92 15.6532 26.1244 15.7866 26.32C15.8132 26.3111 15.8043 26.2933 15.8043 26.2844C15.8043 26.1244 15.8043 25.9644 15.8043 25.8133C15.8043 25.7866 15.8043 25.76 15.8043 25.7333C15.8666 25.7333 15.9199 25.7333 15.9732 25.7333C15.9732 25.7511 15.9732 25.7689 15.9732 25.7778C15.9732 26.0711 15.9732 26.3555 15.9732 26.6489C15.9732 26.6578 15.9732 26.6755 15.9732 26.6933" fill="#2A376D"/>
<path d="M14.2391 26.3111C14.328 26.3289 14.4169 26.32 14.4703 26.3111C14.4347 26.1956 14.3903 26.08 14.3547 26.0267C14.3103 26.0978 14.248 26.2578 14.2391 26.32M14.2569 25.7333H14.4347C14.4347 25.7333 14.4525 25.76 14.4614 25.7689C14.5769 26.0622 14.6836 26.3556 14.7991 26.6489C14.7991 26.6578 14.7991 26.6756 14.808 26.6844C14.7814 26.7022 14.7458 26.6844 14.7191 26.6933C14.6925 26.6933 14.6658 26.6933 14.6391 26.6933C14.5947 26.6311 14.5858 26.56 14.5503 26.5067C14.4791 26.4978 14.2658 26.4978 14.1591 26.5067C14.1503 26.5333 14.1325 26.5689 14.1147 26.6044C14.1058 26.6311 14.088 26.6667 14.0791 26.7022H13.9014C13.9014 26.7022 13.9014 26.6667 13.9103 26.6578C14.0169 26.3733 14.1325 26.08 14.2391 25.7956C14.2391 25.7778 14.2569 25.76 14.2658 25.7422" fill="#2A376D"/>
<path d="M19.262 25.7422C19.3154 25.7422 19.3687 25.7422 19.4309 25.7422C19.4309 25.7689 19.4309 25.7866 19.4309 25.8044C19.4309 25.9822 19.4309 26.16 19.4309 26.3466C19.4309 26.3822 19.4309 26.4177 19.4309 26.4444C19.4398 26.5066 19.4931 26.5511 19.5642 26.5511C19.6354 26.5511 19.6887 26.5155 19.7065 26.4444C19.7065 26.4089 19.7065 26.3733 19.7065 26.3377C19.7065 26.1777 19.7065 26.0089 19.7065 25.8489C19.7065 25.8222 19.7065 25.7866 19.7065 25.7511C19.7687 25.7422 19.822 25.7511 19.8842 25.7511C19.8842 25.7689 19.8842 25.7866 19.8842 25.8044C19.8842 25.9911 19.8842 26.1689 19.8842 26.3555C19.8842 26.4 19.8842 26.4444 19.8754 26.48C19.8576 26.6044 19.7598 26.7111 19.6265 26.7289C19.5642 26.7377 19.502 26.7289 19.4398 26.7111C19.3331 26.6755 19.262 26.6044 19.2442 26.4889C19.2442 26.4533 19.2354 26.4089 19.2354 26.3733C19.2354 26.1777 19.2354 25.9911 19.2354 25.7955C19.2354 25.7777 19.2354 25.7689 19.2354 25.7511" fill="#2A376D"/>
<path d="M9.53725 26.1066C9.5817 26.1066 9.61725 26.1066 9.65281 26.1066C9.65281 26.1066 9.67059 26.1066 9.67947 26.1066C9.72392 26.0889 9.7417 26.0622 9.7417 26.0177C9.7417 25.9733 9.72392 25.9466 9.67947 25.9289C9.63503 25.9111 9.59059 25.9111 9.53725 25.9289C9.53725 25.9911 9.53725 26.0533 9.53725 26.1155M9.52836 26.6933C9.46614 26.6933 9.41281 26.6933 9.35059 26.6933C9.35059 26.6755 9.35059 26.6577 9.35059 26.64C9.35059 26.2666 9.35059 25.8222 9.35947 25.7422C9.37725 25.7422 9.39503 25.7422 9.41281 25.7422C9.46614 25.7422 9.51947 25.7422 9.56392 25.7422C9.59947 25.7422 9.64392 25.7422 9.67947 25.7422C9.86614 25.7689 9.96392 25.9289 9.9017 26.1066C9.86614 26.2044 9.79503 26.2577 9.68836 26.2755C9.63503 26.2755 9.59059 26.2844 9.52836 26.2933C9.51947 26.3377 9.52836 26.3822 9.52836 26.4177C9.52836 26.4622 9.52836 26.5066 9.52836 26.5511C9.52836 26.5955 9.52836 26.64 9.52836 26.6844" fill="#2A376D"/>
<path d="M11.1553 27.68C11.1553 27.44 10.9597 27.2978 10.7819 27.2978C10.5686 27.2978 10.4086 27.4667 10.3997 27.68C10.3997 27.8756 10.5508 28.0622 10.7819 28.0622C11.013 28.0622 11.1641 27.8756 11.1641 27.68M10.773 27.2C11.0486 27.2 11.253 27.3956 11.253 27.6711C11.253 27.9378 11.0486 28.1511 10.7819 28.1511C10.5153 28.1511 10.3019 27.9378 10.3108 27.68C10.3108 27.4133 10.5153 27.2089 10.7819 27.2089" fill="#2A376D"/>
<path d="M10.4443 26.6933V25.9289C10.3909 25.8933 10.3287 25.9289 10.2754 25.9022C10.2754 25.8489 10.2754 25.7955 10.2754 25.7422C10.3465 25.7244 10.7109 25.7244 10.7998 25.7422C10.8087 25.7955 10.7998 25.8489 10.7998 25.9022C10.7465 25.92 10.6932 25.9022 10.6487 25.9111C10.6221 25.9289 10.6309 25.9555 10.6309 25.9822C10.6309 26.1867 10.6309 26.3911 10.6309 26.5955C10.6309 26.6222 10.6309 26.6578 10.6309 26.6844C10.5954 26.7022 10.5687 26.6933 10.5421 26.6933C10.5154 26.6933 10.4887 26.6933 10.4532 26.6933" fill="#2A376D"/>
<path d="M14.8887 27.6089C14.942 27.6266 14.9954 27.6178 15.0487 27.6178C15.0842 27.6178 15.1198 27.6178 15.1465 27.6089C15.2087 27.5911 15.2531 27.5378 15.2531 27.4666C15.2531 27.3955 15.2176 27.3422 15.1465 27.3244C15.1198 27.3244 15.102 27.3244 15.0754 27.3155C15.0309 27.3155 14.9776 27.3155 14.9331 27.3155C14.9154 27.3155 14.8976 27.3155 14.8798 27.3244C14.8798 27.4133 14.8798 27.4933 14.8798 27.5733C14.8798 27.5822 14.8798 27.6 14.8798 27.6089M15.3598 28.1244C15.3598 28.1244 15.2976 28.1244 15.262 28.1244C15.2442 28.0978 15.2265 28.08 15.2087 28.0622C15.1287 27.9555 15.0487 27.8489 14.9598 27.7422C14.9331 27.7066 14.9154 27.7066 14.8976 27.7155C14.8709 27.7333 14.8798 27.7511 14.8798 27.7689C14.8798 27.8844 14.8798 27.9911 14.8798 28.1066C14.8531 28.1333 14.8265 28.1244 14.7998 28.1155C14.7998 28.1066 14.7998 28.0978 14.7998 28.08C14.7998 27.8755 14.7998 27.6711 14.7998 27.4666C14.7998 27.4044 14.7998 27.3422 14.7998 27.28C14.7998 27.2622 14.7998 27.2355 14.7998 27.2089C14.9154 27.2089 15.0309 27.2089 15.1376 27.2089C15.1554 27.2089 15.182 27.2089 15.1998 27.2266C15.2887 27.2533 15.3509 27.3333 15.3509 27.4311C15.3509 27.5378 15.3065 27.6178 15.2176 27.6533C15.1909 27.6622 15.1554 27.6711 15.1287 27.68C15.1109 27.68 15.0843 27.68 15.0665 27.6889C15.0754 27.7422 15.1109 27.76 15.1376 27.7955C15.1643 27.8311 15.182 27.8577 15.2087 27.8933C15.2354 27.9289 15.262 27.9644 15.2887 27.9911C15.3154 28.0178 15.342 28.0533 15.3598 28.0889" fill="#2A376D"/>
<path d="M13.7774 28.1245H13.6974C13.6974 28.1245 13.6885 28.1156 13.6885 28.1067C13.6885 27.8222 13.6885 27.5378 13.6885 27.2533C13.6885 27.2533 13.6885 27.2445 13.6885 27.2356C13.7151 27.2178 13.7418 27.2267 13.7685 27.2356C13.7685 27.36 13.7685 27.4756 13.7685 27.6C13.8485 27.6089 14.0974 27.6178 14.2129 27.6C14.2129 27.5822 14.2218 27.5645 14.2218 27.5378C14.2218 27.4667 14.2218 27.3956 14.2218 27.3156C14.2218 27.2889 14.2218 27.2622 14.2218 27.2356C14.2663 27.2178 14.2663 27.2178 14.3018 27.2356C14.3018 27.2445 14.3018 27.2533 14.3018 27.2711C14.3018 27.4045 14.3018 28.0533 14.3018 28.1245C14.2929 28.1245 14.284 28.1245 14.2663 28.1245C14.2485 28.1245 14.2396 28.1245 14.2129 28.1245V27.7067C14.1329 27.6889 14.0618 27.6978 13.9907 27.6978C13.9196 27.6978 13.8485 27.6978 13.7685 27.6978C13.7685 27.7245 13.7596 27.7422 13.7596 27.76C13.7596 27.8756 13.7596 28 13.7596 28.1245" fill="#2A376D"/>
<path d="M20.5862 27.7866C20.5862 27.9378 20.7017 28.0622 20.8439 28.0533C21.0217 28.0533 21.1106 27.9111 21.1106 27.7866C21.1106 27.6444 20.9862 27.5111 20.8528 27.5111C20.7373 27.5111 20.5862 27.6 20.5862 27.7778M20.595 28.0178C20.595 28.0622 20.595 28.0889 20.595 28.1155C20.5862 28.1155 20.5773 28.1155 20.5684 28.1155C20.5506 28.1155 20.5417 28.1155 20.5239 28.1155C20.515 28.0444 20.5062 27.3244 20.5239 27.2089C20.5417 27.2089 20.5684 27.2089 20.5862 27.2089C20.5862 27.2178 20.595 27.2266 20.595 27.2266C20.595 27.3066 20.595 27.3866 20.595 27.4755C20.595 27.5022 20.595 27.52 20.595 27.5555C20.675 27.5022 20.7373 27.4489 20.8262 27.4489C20.8617 27.4489 20.9062 27.4489 20.9417 27.4578C20.9773 27.4666 21.0128 27.4844 21.0484 27.5111C21.0839 27.5378 21.1106 27.5644 21.1373 27.6C21.235 27.7333 21.2084 27.9378 21.0839 28.0533C21.0128 28.1155 20.9328 28.1511 20.835 28.1422C20.7373 28.1422 20.6662 28.0889 20.595 28.0178Z" fill="#2A376D"/>
<path d="M12.862 27.4311C12.8176 27.5289 12.7731 27.6267 12.7287 27.7156C12.7287 27.7156 12.7287 27.7245 12.7287 27.7422C12.8176 27.7422 12.9153 27.7422 13.0042 27.7422C12.9865 27.6711 12.9153 27.52 12.862 27.4311ZM12.862 27.2267C12.862 27.2267 12.8798 27.2445 12.8887 27.2534C13.022 27.5378 13.1553 27.8222 13.2887 28.1156C13.262 28.1334 13.2265 28.1245 13.1998 28.1245C13.1553 28.0267 13.1109 27.9289 13.0665 27.84C12.9953 27.8311 12.782 27.8222 12.6753 27.84C12.6309 27.9289 12.5865 28.0267 12.542 28.1245H12.4531C12.4798 28.0445 12.8265 27.2978 12.8798 27.2267" fill="#2A376D"/>
<path d="M18.4525 27.7333C18.4347 27.6533 18.3547 27.4755 18.3103 27.44C18.2391 27.5644 18.1858 27.68 18.1769 27.7422C18.2658 27.7422 18.3547 27.7422 18.4436 27.7422M18.7458 28.1244C18.7458 28.1244 18.6836 28.1244 18.6569 28.1244C18.6125 28.0266 18.5591 27.9289 18.5147 27.8311H18.1325C18.0791 27.92 18.0436 28.0178 17.9903 28.1155H17.9014C17.9014 28.1155 17.9014 28.1155 17.9014 28.1066C18.0347 27.8222 18.168 27.5466 18.3014 27.2622C18.3014 27.2622 18.3103 27.2444 18.3191 27.2355C18.3191 27.2355 18.3191 27.2355 18.328 27.2355C18.328 27.2355 18.3458 27.2533 18.3458 27.2622C18.4791 27.5466 18.6125 27.8311 18.7458 28.1244Z" fill="#2A376D"/>
<path d="M16.2925 27.7422C16.2481 27.6089 16.1859 27.4844 16.1503 27.4489C16.0881 27.5378 16.0259 27.68 16.017 27.7422H16.2925ZM15.9547 27.84C15.9103 27.9289 15.8659 28.0266 15.8125 28.1244H15.7236C15.7236 28.1244 15.7236 28.0978 15.7236 28.0889C15.857 27.8133 15.9814 27.5378 16.1147 27.2622C16.1147 27.2533 16.1236 27.2444 16.1325 27.2355C16.1592 27.2355 16.1681 27.2533 16.1681 27.2711C16.2125 27.36 16.257 27.4489 16.2925 27.5466C16.3725 27.7155 16.4525 27.8844 16.5236 28.0533C16.5325 28.0711 16.5414 28.0978 16.5592 28.1244C16.5236 28.1422 16.497 28.1333 16.4703 28.1244C16.4259 28.0266 16.3814 27.9378 16.337 27.84C16.257 27.8311 16.0259 27.8311 15.9459 27.84" fill="#2A376D"/>
<path d="M9.43947 27.6089C9.53725 27.6267 9.63503 27.6267 9.69725 27.6089C9.76836 27.5911 9.81281 27.5378 9.81281 27.4667C9.81281 27.3956 9.76836 27.3333 9.68836 27.3156C9.62614 27.3067 9.56392 27.3156 9.5017 27.3156C9.48392 27.3156 9.45725 27.3156 9.43947 27.3156C9.43947 27.4133 9.43947 27.5111 9.43947 27.6M9.35059 27.2267C9.46614 27.2267 9.57281 27.2267 9.67947 27.2267C9.69725 27.2267 9.71503 27.2267 9.73281 27.2355C9.84836 27.2622 9.91059 27.3422 9.91059 27.4578C9.91059 27.5733 9.84836 27.6533 9.7417 27.68C9.67947 27.6978 9.61725 27.6889 9.56392 27.6978C9.52836 27.6978 9.49281 27.6978 9.44836 27.7067C9.43947 27.7689 9.44836 27.84 9.44836 27.9022C9.44836 27.9644 9.44836 28.0356 9.44836 28.1067H9.36836C9.36836 28.1067 9.35947 28.0978 9.35947 28.0889C9.35947 27.8133 9.35947 27.5378 9.35947 27.2622C9.35947 27.2533 9.35947 27.2356 9.35947 27.2178" fill="#2A376D"/>
<path d="M21.7058 27.7156C21.7058 27.7156 21.7503 27.68 21.768 27.6711C21.8214 27.6178 21.8836 27.5733 21.9369 27.52C21.9814 27.4756 22.0347 27.4489 22.1058 27.4667C22.0969 27.4756 22.088 27.4933 22.0791 27.5022C21.9991 27.5733 21.9103 27.6533 21.8214 27.7245C21.8036 27.7422 21.7858 27.76 21.768 27.7778C21.7947 27.8222 21.8303 27.84 21.8569 27.8667C21.8836 27.8933 21.9191 27.92 21.9458 27.9467C21.9814 27.9733 22.008 28 22.0436 28.0356C22.0703 28.0622 22.1058 28.08 22.1325 28.1156C22.0614 28.1333 22.0169 28.1156 21.9725 28.0711C21.9014 28.0089 21.8303 27.9467 21.7591 27.8845C21.7414 27.8667 21.7325 27.8578 21.7058 27.84C21.688 27.8756 21.6969 27.9022 21.6969 27.9289C21.6969 27.9556 21.6969 27.9911 21.6969 28.0178C21.6969 28.0445 21.6969 28.08 21.6969 28.1067H21.6258C21.6169 28.0356 21.6169 27.2978 21.6258 27.2H21.6969C21.7058 27.2533 21.6969 27.3067 21.6969 27.36C21.6969 27.4133 21.6969 27.4667 21.6969 27.52C21.6969 27.5733 21.6969 27.6267 21.6969 27.6978" fill="#2A376D"/>
<path d="M17.235 27.5911C17.315 27.4667 17.3861 27.3511 17.4573 27.2267H17.555C17.555 27.2267 17.5284 27.2711 17.5195 27.2978C17.4484 27.4134 17.3861 27.5289 17.315 27.6445C17.2973 27.68 17.2795 27.7156 17.2795 27.76C17.2795 27.8756 17.2795 28 17.2795 28.1156C17.2528 28.1422 17.2261 28.1334 17.1995 28.1245C17.1995 28.1245 17.1906 28.1156 17.1906 28.1067C17.1906 27.9911 17.1906 27.8845 17.1906 27.7689C17.1906 27.7245 17.1817 27.68 17.155 27.6445C17.0839 27.5378 17.0217 27.4311 16.9595 27.3245C16.9417 27.2978 16.9328 27.2711 16.915 27.2445C16.9595 27.2267 16.9595 27.2267 17.0039 27.2356C17.0839 27.3422 17.1461 27.4756 17.235 27.5911Z" fill="#2A376D"/>
<path d="M20.1243 27.2266C20.1243 27.2266 20.1421 27.28 20.1243 27.3155C20.0621 27.3155 20.0088 27.3155 19.9554 27.3155C19.9554 27.3155 19.9466 27.3155 19.9466 27.3244C19.9466 27.3244 19.9466 27.3333 19.9466 27.3422C19.9466 27.5911 19.9466 27.84 19.9466 28.0889C19.9466 28.0889 19.9466 28.0889 19.9466 28.1066C19.9199 28.1155 19.8932 28.1155 19.8577 28.1066C19.8577 27.84 19.8577 27.5822 19.8577 27.3155C19.8221 27.3155 19.7866 27.3155 19.7599 27.3155C19.7332 27.3155 19.6977 27.3155 19.6621 27.3155C19.6621 27.2889 19.6621 27.2622 19.6621 27.2355C19.7154 27.2089 19.7688 27.2266 19.8221 27.2266C19.8754 27.2266 19.9288 27.2266 19.9732 27.2266H20.1332H20.1243Z" fill="#2A376D"/>
<path d="M11.6797 27.2267C11.6797 27.2267 11.7331 27.2267 11.7686 27.2267C11.7686 27.3689 11.7686 27.5022 11.7686 27.6356C11.7686 27.7689 11.7686 27.8933 11.7686 28.0267C11.8842 28.0444 11.9997 28.0267 12.1064 28.0356C12.1064 28.0622 12.1064 28.08 12.1064 28.1067C12.0353 28.1244 11.9642 28.1067 11.8931 28.1155C11.822 28.1155 11.7508 28.1155 11.6797 28.1155C11.6708 28.0178 11.6797 27.92 11.6797 27.8222C11.6797 27.7244 11.6797 27.6178 11.6797 27.52C11.6797 27.4222 11.6797 27.3244 11.6797 27.2178" fill="#2A376D"/>
<path d="M11.2794 26.7111C11.2261 26.7111 11.1816 26.6578 11.1816 26.6044C11.1816 26.5511 11.2261 26.5067 11.2794 26.5067C11.3328 26.5067 11.3861 26.5511 11.3861 26.6044C11.3861 26.6578 11.3328 26.7111 11.2794 26.7022" fill="#2A376D"/>
<path d="M22.577 27.9911C22.577 27.9911 22.6481 28.0266 22.6481 28.0622C22.6481 28.1066 22.6125 28.1333 22.577 28.1333C22.5325 28.1333 22.5059 28.0978 22.5059 28.0622C22.5059 28.0178 22.5414 27.9911 22.577 27.9911Z" fill="#2A376D"/>
</g>
</g>
<defs>
<clipPath id="clip0_2737_122523">
<rect width="32" height="32" fill="white"/>
</clipPath>
</defs>
</svg>
