<svg width="32" height="32" viewBox="0 0 32 32" fill="none" xmlns="http://www.w3.org/2000/svg">
<g clip-path="url(#clip0_2707_316548)">
<path d="M15.9998 31.9823C24.8265 31.9823 31.982 24.8268 31.982 16C31.982 7.17331 24.8265 0.0178223 15.9998 0.0178223C7.17306 0.0178223 0.0175781 7.17331 0.0175781 16C0.0175781 24.8268 7.17306 31.9823 15.9998 31.9823Z" fill="white"/>
<path d="M12.0799 17.4934C12.1244 17.8579 12.1955 18.4356 12.631 18.5779C12.8592 18.643 13.096 18.6729 13.3333 18.6668C13.3866 18.6668 13.4221 18.6668 13.4221 18.7201C13.4221 18.7734 13.3244 18.8179 13.1999 18.8179C13.0755 18.8179 11.8755 18.8179 11.4933 18.7734C11.2533 18.7734 11.2088 18.7201 11.2088 18.6668C11.2088 18.6134 11.2088 18.6045 11.2799 18.5956C11.351 18.5868 11.3421 18.4179 11.2799 18.2312L10.791 12.8979L8.27547 18.2312C8.06214 18.6845 8.03547 18.7734 7.9377 18.7734C7.83992 18.7734 7.81325 18.6756 7.62658 18.3023C7.43992 17.929 6.45325 16.0001 6.39992 15.9379C6.34658 15.8756 5.15547 13.2712 5.04881 13.0134L4.59547 17.7779C4.59547 17.9379 4.59547 18.1245 4.59547 18.3023C4.59651 18.3772 4.62376 18.4493 4.67248 18.5062C4.7212 18.563 4.78832 18.601 4.86214 18.6134C4.98708 18.6458 5.11533 18.6637 5.24436 18.6668C5.24436 18.6668 5.33325 18.6668 5.33325 18.7112C5.33325 18.7556 5.27103 18.8001 5.14658 18.8001C4.76436 18.8001 4.2577 18.8001 4.19547 18.8001H3.30658C3.20881 18.8001 3.1377 18.8001 3.1377 18.7112C3.1377 18.6223 3.19992 18.6668 3.25325 18.6668C3.35376 18.6764 3.45496 18.6764 3.55547 18.6668C3.89325 18.6045 3.91992 18.2045 3.96436 17.7779L4.70214 11.1023C4.70214 10.9868 4.70214 10.9156 4.80881 10.9156C4.91547 10.9156 4.91547 10.9601 4.96881 11.0668L8.10658 17.5112L11.1199 11.0845C11.1644 10.9868 11.1999 10.9156 11.271 10.9156C11.3421 10.9156 11.3777 10.9956 11.3955 11.1912" fill="black"/>
<path d="M27.3063 18.6668C27.1763 18.6807 27.0452 18.6807 26.9152 18.6668C26.5507 18.5601 26.3996 18.4534 26.1774 17.8757L25.2885 15.6001C26.5644 15.1052 27.6357 14.1936 28.3285 13.0134C27.4392 13.9608 26.2605 14.5861 24.9774 14.7912L23.6618 11.5556C23.4752 11.0579 23.4218 10.9156 23.2974 10.9156C23.1729 10.9156 23.1552 11.0845 22.8707 11.6979C22.5863 12.3112 22.1685 13.3068 21.5463 14.8001L21.2529 15.5023C20.0491 16.2166 19.1743 17.3755 18.8174 18.729C19.1797 17.6948 19.9283 16.8411 20.9063 16.3468C20.6574 16.9512 20.4618 17.4134 20.3996 17.5734C20.1241 18.2757 19.9729 18.4623 19.8396 18.5423C19.6864 18.6231 19.5149 18.6629 19.3418 18.6579C19.2618 18.6579 19.2174 18.6579 19.2174 18.729C19.2174 18.8001 19.2796 18.809 19.3952 18.809C19.6974 18.809 20.1329 18.809 20.1952 18.809C20.2574 18.809 20.7907 18.809 21.1996 18.809C21.3596 18.809 21.4218 18.809 21.4218 18.7201C21.4218 18.6312 21.3329 18.6668 21.3329 18.6668C21.2031 18.6839 21.0716 18.6839 20.9418 18.6668C20.8992 18.6434 20.8641 18.6085 20.8406 18.566C20.817 18.5235 20.8058 18.4753 20.8085 18.4268C20.8191 18.2957 20.8491 18.1669 20.8974 18.0445C20.9863 17.7423 21.2618 17.0045 21.5907 16.1245C22.1449 15.9644 22.7208 15.8924 23.2974 15.9112C23.6637 15.9264 24.0305 15.8995 24.3907 15.8312L25.0574 17.609C25.1829 17.8938 25.2754 18.192 25.3329 18.4979C25.3357 18.5418 25.3241 18.5853 25.3001 18.6222C25.2761 18.659 25.2409 18.6871 25.1996 18.7023C25.0721 18.7361 24.9403 18.7511 24.8085 18.7468C24.7374 18.7468 24.7107 18.7468 24.7107 18.8179C24.7107 18.889 24.7996 18.8979 24.9863 18.8979C25.3774 18.8979 25.8307 18.8979 25.9374 18.8979C26.0441 18.8979 26.6396 18.8979 27.1374 18.8979C27.2974 18.8979 27.404 18.8979 27.404 18.8179C27.4041 18.8077 27.402 18.7977 27.3979 18.7884C27.3938 18.7792 27.3878 18.7709 27.3802 18.7642C27.3726 18.7574 27.3637 18.7524 27.354 18.7494C27.3443 18.7464 27.3341 18.7455 27.324 18.7468M23.2974 15.0579C22.8286 15.075 22.3647 15.1588 21.9196 15.3068C22.3463 14.2045 22.8085 13.049 23.0929 12.4001L24.0618 14.9957C23.8218 14.9957 23.564 15.049 23.2974 15.0579Z" fill="black"/>
<path d="M14.3999 13.9645C14.3999 12.3734 14.3999 12.0801 14.3999 11.7423C14.3999 11.4045 14.2932 11.2179 13.9465 11.1467C13.8105 11.1347 13.6737 11.1347 13.5376 11.1467C13.4221 11.1467 13.3599 11.1467 13.3599 11.0579C13.3599 10.969 13.431 10.9601 13.591 10.9601C14.1421 10.9601 14.8088 10.9601 15.0132 10.9601C15.5288 10.9601 15.9021 10.9601 16.2932 10.9601C18.1865 10.9601 18.5243 11.9734 18.5243 12.5334C18.5062 12.9018 18.3998 13.2603 18.2142 13.579C18.0286 13.8977 17.7691 14.1671 17.4576 14.3645C17.969 14.4984 18.4264 14.7873 18.767 15.1916C19.1076 15.5958 19.3147 16.0956 19.3599 16.6223C19.3599 17.7423 18.471 18.9068 16.5599 18.9068H15.831H15.0488H14.4532H13.7243C13.591 18.9068 13.5199 18.9067 13.5199 18.809C13.5199 18.7112 13.5643 18.7201 13.6888 18.7201C13.8146 18.7217 13.9401 18.7068 14.0621 18.6756C14.2754 18.6756 14.3199 18.409 14.3643 18.1068C14.4176 17.6623 14.4176 16.8356 14.4176 15.8756L14.3999 13.9645ZM15.6532 14.1423C15.6532 14.2223 15.6532 14.249 15.7332 14.2579C15.8959 14.2715 16.0594 14.2715 16.2221 14.2579C16.4897 14.2923 16.7603 14.2222 16.9776 14.0623C17.1268 13.9204 17.2424 13.747 17.3162 13.5549C17.39 13.3627 17.4201 13.1565 17.4043 12.9512C17.4043 12.249 16.9954 11.3334 16.0976 11.3334C15.9823 11.3233 15.8663 11.3233 15.751 11.3334C15.6799 11.3334 15.6532 11.3956 15.6532 11.5112V14.1423ZM17.0399 14.9779C16.7778 14.802 16.4663 14.7147 16.151 14.729H15.6976C15.6976 14.729 15.6354 14.729 15.6354 14.8001V17.2801C15.6354 17.9734 15.6354 18.169 16.0088 18.2845C16.2519 18.3798 16.5124 18.4222 16.7732 18.409C16.9478 18.4163 17.122 18.3859 17.2839 18.3199C17.4457 18.2539 17.5915 18.1539 17.7113 18.0265C17.831 17.8992 17.9219 17.7475 17.9779 17.5819C18.0338 17.4163 18.0534 17.2406 18.0354 17.0668C18.0475 16.6639 17.9617 16.2642 17.7851 15.9018C17.6086 15.5395 17.3468 15.2255 17.0221 14.9868" fill="#ED1C24"/>
<path d="M11.6797 20.3112C11.732 20.2772 11.7754 20.2313 11.8063 20.1772C11.8372 20.1231 11.8548 20.0623 11.8575 20.0001C11.8575 19.9112 11.8041 19.7423 11.4841 19.7423H10.9953H11.0575C11.1197 19.7423 11.1286 19.7423 11.1375 19.8401V20.5156C11.1375 20.6845 11.1375 20.8178 11.1375 20.8889C11.1375 20.9601 11.1375 20.9867 11.0841 20.9867H11.0219H11.5553C11.8753 20.9867 12.0175 20.7912 12.0175 20.6045C12.0105 20.5164 11.9757 20.4328 11.9182 20.3658C11.8607 20.2987 11.7834 20.2516 11.6975 20.2312M11.4041 19.7689H11.4575C11.5219 19.7757 11.5812 19.8073 11.6227 19.8571C11.6642 19.9069 11.6847 19.971 11.6797 20.0356C11.6826 20.0701 11.6777 20.1047 11.6653 20.137C11.653 20.1693 11.6336 20.1985 11.6086 20.2223C11.5655 20.2379 11.5183 20.2379 11.4753 20.2223H11.3953L11.4041 19.7689ZM11.5553 20.9867C11.5142 20.9949 11.4719 20.9949 11.4308 20.9867C11.3686 20.9867 11.3686 20.9334 11.3686 20.8178V20.4001H11.4486C11.4981 20.3873 11.5501 20.3873 11.5997 20.4001C11.6542 20.4395 11.6981 20.4918 11.7276 20.5522C11.757 20.6127 11.7711 20.6795 11.7686 20.7467C11.7712 20.7758 11.7675 20.8051 11.7578 20.8326C11.7481 20.8601 11.7326 20.8853 11.7124 20.9063C11.6922 20.9274 11.6677 20.9438 11.6406 20.9546C11.6135 20.9655 11.5844 20.9703 11.5553 20.9689M3.76858 19.7245H3.24414H3.31525C3.37747 19.7245 3.38636 19.7245 3.39525 19.8223V20.4978C3.39525 20.6667 3.39525 20.8001 3.39525 20.8712C3.39525 20.9423 3.39525 20.9689 3.34192 20.9689H3.29747H3.78636H3.69747C3.64414 20.9689 3.63525 20.9689 3.62636 20.8801C3.61747 20.7912 3.62636 20.6667 3.62636 20.4978V19.8045H3.69747C3.76096 19.8049 3.82169 19.8305 3.86636 19.8756C3.90148 19.9085 3.92916 19.9485 3.94755 19.993C3.96595 20.0374 3.97463 20.0853 3.97303 20.1334C3.97606 20.2032 3.95327 20.2717 3.909 20.3258C3.86473 20.38 3.80209 20.4159 3.73303 20.4267H3.68859C3.74568 20.4292 3.80267 20.4199 3.85604 20.3994C3.9094 20.379 3.95799 20.3478 3.99882 20.3078C4.03964 20.2678 4.07183 20.2198 4.09339 20.1669C4.11494 20.114 4.12541 20.0572 4.12414 20.0001C4.12078 19.9233 4.08912 19.8504 4.03525 19.7956C3.99018 19.7574 3.93768 19.729 3.88107 19.7122C3.82446 19.6954 3.76497 19.6905 3.70636 19.6978M12.7375 19.8756C12.6564 19.8683 12.5746 19.8777 12.4973 19.9032C12.42 19.9287 12.3487 19.9698 12.2879 20.024C12.2271 20.0781 12.178 20.1442 12.1437 20.218C12.1095 20.2919 12.0907 20.372 12.0886 20.4534C12.0884 20.5343 12.1049 20.6144 12.1371 20.6887C12.1693 20.7629 12.2165 20.8297 12.2758 20.8848C12.3351 20.9399 12.4051 20.9821 12.4815 21.0088C12.5579 21.0356 12.639 21.0462 12.7197 21.0401C12.8035 21.0462 12.8876 21.0349 12.9668 21.0067C13.046 20.9786 13.1184 20.9342 13.1794 20.8765C13.2405 20.8188 13.2888 20.749 13.3214 20.6716C13.354 20.5941 13.37 20.5107 13.3686 20.4267C13.3686 20.0889 13.1286 19.8756 12.7375 19.8756ZM12.7908 20.9601C12.6822 20.9276 12.5883 20.8585 12.5251 20.7644C12.4618 20.6704 12.4332 20.5573 12.4441 20.4445C12.4441 20.0801 12.6486 19.9823 12.8175 19.9823C12.8827 19.9854 12.9465 20.002 13.0049 20.0311C13.0634 20.0602 13.1151 20.1011 13.1569 20.1513C13.1987 20.2014 13.2296 20.2597 13.2477 20.3224C13.2658 20.3851 13.2706 20.4509 13.2619 20.5156C13.2619 20.9423 13.0219 20.9956 12.9153 20.9956M5.47525 19.7245H4.44414C4.42066 19.7291 4.39651 19.7291 4.37303 19.7245C4.36699 19.7895 4.36699 19.855 4.37303 19.9201V19.8578C4.37303 19.8578 4.43525 19.8134 4.54192 19.8134H4.7997V20.5245C4.7997 20.6934 4.7997 20.8267 4.7997 20.8978C4.7997 20.9689 4.7997 20.9956 4.74636 20.9956H4.67525H5.17303H5.08414C5.0397 20.9956 5.02192 20.9956 5.02192 20.9067C5.02192 20.8178 5.02192 20.6934 5.02192 20.5245V19.8134H5.24414C5.39525 19.8134 5.4397 19.8667 5.44859 19.9112C5.44859 19.9112 5.44859 19.7512 5.44859 19.7067C5.44859 19.6623 5.44859 19.7067 5.44859 19.7067M9.27081 21.0134H9.1997C9.1997 21.0134 9.11081 21.0134 9.0397 20.8267C8.96859 20.6401 8.64858 19.8578 8.61303 19.7601C8.57747 19.6623 8.61303 19.7067 8.56859 19.7067C8.52414 19.7067 8.56858 19.7067 8.51525 19.7778L8.0797 20.8623C8.0797 20.9512 8.00858 21.0134 7.92859 21.0223H7.84859C7.79525 21.0223 7.77747 20.9512 7.7597 20.8445L7.5997 19.7689V19.7156C7.5997 19.7156 7.5997 19.7156 7.5997 19.7601L7.12859 20.7467L6.64859 19.7689C6.64859 19.7689 6.64858 19.7156 6.60414 19.7156C6.5597 19.7156 6.60414 19.7156 6.60414 19.7601L6.32858 20.8889C6.32858 20.9512 6.32858 21.0134 6.25747 21.0223H6.22192H6.57747H6.50636C6.50636 21.0223 6.45303 21.0223 6.45303 20.9689C6.44872 20.9425 6.44872 20.9154 6.45303 20.8889L6.54192 20.2045L6.7197 20.5778L6.92414 20.9778C6.92414 20.9778 6.96859 21.0578 6.98636 21.0578C7.00414 21.0578 6.98636 21.0578 7.04858 20.9601L7.43081 20.1867L7.53747 20.9423C7.53747 20.9956 7.53747 21.0134 7.53747 21.0223C7.53747 21.0223 7.53747 21.0312 7.53747 21.0223C7.53747 21.0223 7.53747 21.0223 7.59081 21.0223H8.31081C8.25747 21.0223 8.2397 21.0223 8.2397 20.9689C8.23447 20.9336 8.23447 20.8976 8.2397 20.8623L8.32859 20.6223H8.7197L8.86192 20.9778C8.86192 20.9778 8.86192 20.9778 8.86192 21.0223C8.86192 21.0223 8.86192 21.0667 8.86192 21.0223C8.86192 21.0223 8.86192 21.0223 8.91525 21.0223H9.25303C9.31525 21.0223 9.33303 21.0223 9.33303 21.0223M8.73747 20.5245H8.38192L8.55081 20.0978L8.70192 20.5245M9.87525 19.7334H9.32414H9.38636C9.44859 19.7334 9.45747 19.7334 9.46636 19.8312V20.5067C9.46636 20.6756 9.46636 20.8089 9.46636 20.8801C9.46636 20.9512 9.46636 20.9778 9.41303 20.9778H9.35081H9.84859H9.77747C9.72414 20.9778 9.71525 20.9778 9.70636 20.8889C9.69747 20.8001 9.70636 20.6756 9.70636 20.5067V19.8134H9.77747C9.84096 19.8138 9.90169 19.8394 9.94636 19.8845C9.98147 19.9174 10.0092 19.9574 10.0276 20.0019C10.0459 20.0463 10.0546 20.0942 10.053 20.1423C10.0584 20.2113 10.0376 20.2797 9.99474 20.3341C9.95192 20.3884 9.89023 20.4247 9.82192 20.4356C9.77747 20.4445 9.77747 20.4445 9.77747 20.4445H9.82192C9.87862 20.447 9.93523 20.4377 9.98814 20.4172C10.041 20.3966 10.0891 20.3653 10.1292 20.3251C10.1694 20.285 10.2007 20.237 10.2213 20.1841C10.2418 20.1311 10.2511 20.0745 10.2486 20.0178C10.2488 19.9794 10.241 19.9414 10.2257 19.9062C10.2104 19.871 10.1879 19.8394 10.1597 19.8134C10.116 19.7759 10.065 19.7479 10.0099 19.7311C9.95484 19.7142 9.89689 19.709 9.8397 19.7156M21.813 20.8001C21.813 20.8001 21.813 20.8889 21.7508 20.9067C21.7008 20.9153 21.6497 20.9153 21.5997 20.9067C21.4486 20.9067 21.3953 20.9067 21.3953 20.7823V20.4445H21.6353C21.6975 20.4445 21.7153 20.4445 21.7241 20.5067V20.5601V20.4623C21.7241 20.3912 21.7241 20.3645 21.7241 20.3556C21.7116 20.3613 21.6979 20.3642 21.6841 20.3642C21.6704 20.3642 21.6567 20.3613 21.6441 20.3556H21.3686V19.9823H21.6175C21.6383 19.9815 21.659 19.986 21.6776 19.9953C21.6962 20.0047 21.7122 20.0185 21.7241 20.0356C21.7285 20.0561 21.7285 20.0773 21.7241 20.0978C21.7285 20.0654 21.7285 20.0325 21.7241 20.0001C21.7241 19.9289 21.7241 19.9112 21.7241 19.9023H21.6175C21.6175 19.9023 21.253 19.9023 21.1997 19.9023H20.9775H21.0397C21.0397 19.9023 21.1019 19.9023 21.1019 19.9823C21.1105 20.0858 21.1105 20.1899 21.1019 20.2934V20.5601C21.1075 20.6666 21.1075 20.7735 21.1019 20.8801C21.1019 20.9245 21.1019 20.9512 21.0575 20.9512H21.0041H21.6619C21.7241 20.9512 21.733 20.9512 21.7419 20.9512C21.7462 20.895 21.7462 20.8385 21.7419 20.7823M20.4086 19.8934H19.9375H19.9997C20.0441 19.8934 20.0619 19.8934 20.0619 19.9734V20.5512C20.0675 20.6578 20.0675 20.7646 20.0619 20.8712C20.0619 20.9156 20.0619 20.9423 20.0175 20.9423H19.9641H20.4086H20.4441C20.3908 20.9423 20.3908 20.9423 20.3819 20.8712C20.3763 20.7646 20.3763 20.6578 20.3819 20.5512V19.9645H20.4441C20.4717 19.9622 20.4994 19.9658 20.5254 19.975C20.5515 19.9842 20.5753 19.9988 20.5953 20.0178C20.6274 20.0449 20.653 20.0791 20.6699 20.1176C20.6869 20.1561 20.6948 20.198 20.693 20.2401C20.6955 20.2999 20.6746 20.3584 20.6349 20.4032C20.5951 20.4479 20.5394 20.4755 20.4797 20.4801H20.4353C20.4849 20.4838 20.5348 20.4771 20.5817 20.4603C20.6285 20.4436 20.6714 20.4172 20.7074 20.3828C20.7434 20.3485 20.7719 20.3069 20.7908 20.2609C20.8098 20.2149 20.8189 20.1654 20.8175 20.1156C20.8179 20.0827 20.8119 20.0501 20.7997 20.0196C20.7875 19.9891 20.7694 19.9613 20.7464 19.9378C20.6614 19.8768 20.5572 19.8484 20.453 19.8578M25.413 20.9512H25.4219C25.4219 20.9512 25.3508 20.9512 25.2886 20.8001L24.8975 19.9112C24.8975 19.9112 24.8975 19.8667 24.853 19.8667C24.8086 19.8667 24.853 19.8667 24.8086 19.9201L24.3997 20.8534C24.3863 20.8927 24.3651 20.929 24.3375 20.9601C24.2694 20.9174 24.2067 20.8667 24.1508 20.8089C24.0886 20.7556 23.7864 20.4356 23.733 20.3645C23.6797 20.2934 24.0086 20.0978 24.0619 20.0534C24.1053 20.0026 24.1601 19.963 24.2219 19.9378H24.3108H23.9997C23.9997 19.9378 23.9997 20.0001 23.9286 20.0445L23.6086 20.3734V19.9912C23.6086 19.9378 23.6086 19.9201 23.6619 19.9112H23.7064H23.2886H23.3508C23.4041 19.9112 23.413 19.9112 23.4219 19.9912V20.5689C23.4275 20.6755 23.4275 20.7824 23.4219 20.8889C23.4219 20.9334 23.4219 20.9601 23.3775 20.9601H23.1997C23.1357 20.943 23.0774 20.9093 23.0308 20.8623L22.693 20.4623C22.8441 20.3467 22.9064 20.2489 22.9064 20.1334C22.9057 20.0934 22.8957 20.0541 22.8772 20.0186C22.8587 19.9831 22.8321 19.9524 22.7997 19.9289C22.7095 19.8815 22.608 19.86 22.5064 19.8667H22.053H22.1153C22.1686 19.8667 22.1775 19.8667 22.1864 19.9467V20.5245C22.1919 20.6311 22.1919 20.7379 22.1864 20.8445C22.1864 20.8889 22.1864 20.9156 22.1419 20.9156H22.0886H22.5153H22.4441C22.3908 20.9156 22.3908 20.9156 22.3819 20.8445C22.3762 20.7379 22.3762 20.6311 22.3819 20.5245H22.5508L22.7019 20.7289C22.7507 20.8163 22.8211 20.8898 22.9064 20.9423C22.9614 20.9594 23.0203 20.9594 23.0753 20.9423H23.2264H23.653H23.573C23.573 20.9423 23.5286 20.9423 23.5197 20.8712V20.4178C23.6453 20.5727 23.7788 20.7211 23.9197 20.8623C23.9698 20.9189 24.0399 20.9539 24.1153 20.9601H24.5064C24.4619 20.9601 24.4441 20.9601 24.4441 20.9156C24.4384 20.8863 24.4384 20.8561 24.4441 20.8267L24.5241 20.6223H24.8886L25.0041 20.9245C25.0041 20.9245 25.0041 20.9245 25.0486 20.9245H25.3419C25.4041 20.9245 25.413 20.9245 25.413 20.9245M22.5508 20.3912C22.5164 20.4041 22.4785 20.4041 22.4441 20.3912C22.4062 20.4006 22.3665 20.4006 22.3286 20.3912V19.9556H22.4175C22.4502 19.9554 22.4826 19.9621 22.5125 19.9754C22.5425 19.9886 22.5692 20.0081 22.5911 20.0324C22.6129 20.0568 22.6294 20.0855 22.6393 20.1167C22.6492 20.1479 22.6524 20.1809 22.6486 20.2134C22.651 20.2555 22.6435 20.2976 22.6265 20.3363C22.6095 20.3749 22.5835 20.409 22.5508 20.4356M24.8886 20.5423H24.5864L24.7375 20.1689L24.8797 20.5423M25.8841 20.3201H25.8219C25.6886 20.2401 25.6619 20.1867 25.6619 20.1245C25.6619 20.0623 25.7597 19.9645 25.8753 19.9645C25.9069 19.9631 25.9385 19.9687 25.9677 19.981C25.9969 19.9933 26.023 20.012 26.0441 20.0356C26.0704 20.0617 26.0862 20.0965 26.0886 20.1334C26.0886 20.1334 26.0886 20.1334 26.0886 20.0889C26.0853 20.0297 26.0853 19.9704 26.0886 19.9112H25.8664C25.653 19.9112 25.4753 20.0267 25.4753 20.2045C25.4753 20.3823 25.5375 20.4356 25.7153 20.5423L25.813 20.5956C25.9464 20.6756 25.9641 20.7467 25.9641 20.8089C25.9644 20.8359 25.9589 20.8625 25.9479 20.8871C25.9369 20.9117 25.9207 20.9336 25.9004 20.9513C25.8801 20.9691 25.8563 20.9822 25.8305 20.9899C25.8046 20.9975 25.7775 20.9995 25.7508 20.9956C25.6997 21.0005 25.6484 20.9894 25.6038 20.9639C25.5593 20.9385 25.5237 20.8999 25.5019 20.8534C25.498 20.8269 25.498 20.7999 25.5019 20.7734C25.4957 20.8384 25.4957 20.9039 25.5019 20.9689C25.5019 20.9689 25.5019 20.9689 25.5019 21.0134C25.5838 21.0327 25.669 21.0327 25.7508 21.0134C25.8411 21.0194 25.931 20.9977 26.0086 20.9512C26.056 20.9228 26.0949 20.8823 26.1215 20.8339C26.148 20.7854 26.1612 20.7308 26.1597 20.6756C26.1597 20.5334 26.0975 20.4267 25.893 20.3112M27.4486 20.9601H27.3864C27.3864 20.9601 27.3153 20.9601 27.2619 20.8089C27.2086 20.6578 26.9064 19.9734 26.8619 19.9201C26.8175 19.8667 26.8619 19.8756 26.8175 19.8756C26.773 19.8756 26.8175 19.8756 26.8175 19.9289L26.4175 20.8623C26.4175 20.9423 26.3553 20.9867 26.293 20.9956H26.2397H26.6664C26.613 20.9956 26.6041 20.9956 26.6041 20.9512C26.5973 20.9219 26.5973 20.8915 26.6041 20.8623L26.693 20.6578H27.0753L27.1908 20.9601H27.493C27.5464 20.9601 27.5553 20.9601 27.5553 20.9601M27.0308 20.5334H26.6664L26.8175 20.1601L26.9597 20.5334M16.053 20.9601H15.9997C15.9997 20.9601 15.9286 20.9601 15.8664 20.8089L15.4753 19.9201C15.4753 19.9201 15.4753 19.8756 15.4308 19.8756C15.3864 19.8756 15.4308 19.8756 15.3864 19.9289L14.9864 20.8623C14.9864 20.9423 14.9241 20.9867 14.853 20.9956H14.8086H15.1641C15.1641 20.9956 15.1019 20.9956 15.1019 20.9512C15.0962 20.9218 15.0962 20.8916 15.1019 20.8623L15.1819 20.6578H15.5641L15.6886 20.9601C15.6886 20.9601 15.6886 20.9601 15.733 20.9601H15.9997C16.0619 20.9601 16.0708 20.9601 16.0708 20.9601M15.5464 20.5334H15.2441L15.3953 20.1601L15.5464 20.5334ZM17.8308 20.9601H17.7775C17.7775 20.9601 17.6886 20.9601 17.6264 20.7734C17.5641 20.5867 17.2353 19.8045 17.1908 19.7067C17.1464 19.6089 17.1908 19.6534 17.1908 19.6534C17.1908 19.6534 17.1908 19.6534 17.1464 19.7245L16.7019 20.8089C16.7019 20.8978 16.6308 20.9601 16.5508 20.9689H16.4441H16.8886C16.8353 20.9689 16.8175 20.9689 16.8175 20.9156C16.8122 20.8802 16.8122 20.8443 16.8175 20.8089L16.9153 20.5689H17.3064L17.4486 20.9245V20.9689C17.4486 20.9689 17.4486 20.9689 17.5019 20.9689H17.7775C17.8397 20.9689 17.8575 20.9689 17.8575 20.9689M17.2708 20.4712H16.9508L17.1108 20.0445L17.2708 20.4712ZM19.8219 20.9689H19.7419C19.6975 20.9689 19.6886 20.9689 19.6797 20.9067C19.674 20.7972 19.674 20.6874 19.6797 20.5778V20.3112C19.6712 20.2076 19.6712 20.1036 19.6797 20.0001C19.6797 19.9467 19.6797 19.9289 19.733 19.9201H19.7775H19.3686H19.4219C19.4219 19.9201 19.4753 19.9201 19.4753 20.0001V20.5778C19.4812 20.6844 19.4812 20.7912 19.4753 20.8978C19.4753 20.9423 19.4753 20.9689 19.4308 20.9689H19.3775H19.8219ZM14.8708 20.4534H14.3908H14.453C14.5064 20.4534 14.5153 20.4534 14.5241 20.5334V20.8445C14.5299 20.8522 14.533 20.8615 14.533 20.8712C14.533 20.8808 14.5299 20.8901 14.5241 20.8978C14.4892 20.9073 14.4524 20.9073 14.4175 20.8978C14.3448 20.8992 14.2726 20.8855 14.2054 20.8575C14.1383 20.8295 14.0778 20.7878 14.0276 20.7352C13.9774 20.6825 13.9388 20.62 13.9141 20.5516C13.8894 20.4832 13.8792 20.4104 13.8841 20.3378C13.8778 20.2702 13.8873 20.202 13.912 20.1387C13.9367 20.0755 13.9759 20.0188 14.0264 19.9734C14.1117 19.9131 14.2156 19.8847 14.3197 19.8934C14.4416 19.8863 14.5618 19.9243 14.6575 20.0001C14.6745 20.016 14.688 20.0353 14.6972 20.0567C14.7063 20.0781 14.711 20.1012 14.7108 20.1245C14.7108 19.9378 14.7108 19.8934 14.7108 19.8756C14.7108 19.8578 14.7108 19.8756 14.7108 19.8756H14.5864H14.3108C14.169 19.8684 14.0279 19.8991 13.9019 19.9645C13.817 20.0145 13.7469 20.0861 13.6985 20.1719C13.6501 20.2578 13.6252 20.3549 13.6264 20.4534C13.6264 20.8623 13.9641 21.0401 14.3464 21.0401C14.4745 21.0435 14.6018 21.0193 14.7197 20.9689C14.7197 20.9689 14.7197 20.9689 14.7197 20.9156V20.6223C14.7197 20.5689 14.7197 20.5512 14.7819 20.5423H14.8264M18.3375 19.9645H17.8664H17.9286C17.9286 19.9645 17.9908 19.9645 17.9908 20.0445C17.9993 20.148 17.9993 20.2521 17.9908 20.3556V20.6223C17.9964 20.7289 17.9964 20.8357 17.9908 20.9423C17.9908 20.9867 17.9908 21.0134 17.9464 21.0134H17.893H18.4264C18.5198 21.0191 18.6134 21.0064 18.7019 20.9759C18.7903 20.9454 18.8719 20.8977 18.9419 20.8356C18.9968 20.7828 19.0401 20.7192 19.0692 20.6489C19.0983 20.5785 19.1124 20.5028 19.1108 20.4267C19.1138 20.3567 19.1028 20.2869 19.0784 20.2212C19.0539 20.1556 19.0166 20.0955 18.9686 20.0445C18.7896 19.9123 18.5676 19.8521 18.3464 19.8756M18.7641 20.8356C18.668 20.9098 18.5473 20.9447 18.4264 20.9334C18.3019 20.9334 18.2397 20.9334 18.2219 20.8801C18.2161 20.8447 18.2161 20.8087 18.2219 20.7734V19.9912H18.3197C18.3967 19.9856 18.474 19.9954 18.5472 20.0198C18.6204 20.0442 18.6881 20.0828 18.7464 20.1334C18.7958 20.1797 18.8342 20.2364 18.8588 20.2995C18.8834 20.3625 18.8936 20.4303 18.8886 20.4978C18.8972 20.5654 18.8905 20.6341 18.869 20.6987C18.8474 20.7633 18.8116 20.8223 18.7641 20.8712" fill="black"/>
</g>
<defs>
<clipPath id="clip0_2707_316548">
<rect width="32" height="32" fill="white"/>
</clipPath>
</defs>
</svg>
