<svg width="32" height="32" viewBox="0 0 32 32" fill="none" xmlns="http://www.w3.org/2000/svg">
<g clip-path="url(#clip0_2707_316433)">
<path d="M16 32C24.8366 32 32 24.8366 32 16C32 7.16344 24.8366 0 16 0C7.16344 0 0 7.16344 0 16C0 24.8366 7.16344 32 16 32Z" fill="white"/>
<path d="M15.9998 29.3333C23.3636 29.3333 29.3332 23.3638 29.3332 16C29.3332 8.63616 23.3636 2.66663 15.9998 2.66663C8.63604 2.66663 2.6665 8.63616 2.6665 16C2.6665 23.3638 8.63604 29.3333 15.9998 29.3333Z" fill="white"/>
<path d="M6.08897 20.9244C6.08897 20.5955 6.08897 20.2133 6.08897 19.9199C6.01193 20.1925 5.91415 20.4888 5.79563 20.8088L5.33341 21.9199H5.11119L4.73786 20.8177C4.63119 20.4977 4.5423 20.1955 4.47119 19.9288H4.44452C4.44452 20.2222 4.44452 20.6044 4.44452 20.9511L4.3823 21.9466H4.08008L4.24008 19.6355H4.6223L5.01341 20.7466C5.10483 21.0029 5.18199 21.264 5.24452 21.5288C5.30674 21.2977 5.38674 21.0399 5.49341 20.7466L5.9023 19.6355H6.28452L6.42674 21.9466H6.1423L6.08897 20.9244Z" fill="#231F20"/>
<path d="M7.26201 19.8134C7.26213 19.8383 7.25702 19.863 7.24699 19.8858C7.23697 19.9086 7.22226 19.929 7.20382 19.9458C7.18538 19.9626 7.16362 19.9753 7.13995 19.9831C7.11629 19.9909 7.09125 19.9936 7.06645 19.9912C7.04354 19.9924 7.02062 19.9889 6.99909 19.9809C6.97756 19.973 6.95788 19.9607 6.94124 19.9449C6.9246 19.9291 6.91136 19.9101 6.90232 19.889C6.89329 19.8679 6.88864 19.8452 6.88867 19.8223C6.88847 19.7733 6.90662 19.7261 6.93953 19.6899C6.97244 19.6537 7.01773 19.6312 7.06645 19.6267H7.1109C7.1589 19.6267 7.20508 19.6451 7.23984 19.6782C7.27461 19.7113 7.29528 19.7565 7.29756 19.8045L7.26201 19.8134ZM6.92423 21.9378V20.2756H7.22645V21.9378H6.92423Z" fill="#231F20"/>
<path d="M8.08871 19.8756V20.2756H8.52426V20.5067H8.08871V21.3956C8.08871 21.6089 8.15093 21.7245 8.31982 21.7245C8.37579 21.733 8.43274 21.733 8.48871 21.7245V21.9556C8.40033 21.969 8.31043 21.969 8.22204 21.9556C8.16066 21.9602 8.09905 21.9505 8.042 21.9274C7.98496 21.9043 7.93402 21.8683 7.89315 21.8223C7.80446 21.6986 7.76342 21.5471 7.7776 21.3956V20.5067H7.5376V20.2756H7.79538V19.9734L8.08871 19.8756Z" fill="#231F20"/>
<path d="M8.88867 20.7911C8.88867 20.5955 8.88867 20.4267 8.88867 20.2755H9.14645V20.6044C9.17474 20.5024 9.2348 20.4121 9.31792 20.3466C9.40104 20.281 9.50289 20.2437 9.60867 20.24H9.68867V20.5244H9.59089C9.48812 20.5282 9.39015 20.5689 9.31502 20.6391C9.23989 20.7094 9.19265 20.8044 9.18201 20.9067C9.17787 20.954 9.17787 21.0016 9.18201 21.0489V21.9378H8.88867V20.7911Z" fill="#231F20"/>
<path d="M11.1288 21.5377C11.1157 21.6707 11.1157 21.8047 11.1288 21.9377H10.8533V21.7244C10.7935 21.8019 10.7167 21.8646 10.6289 21.9077C10.541 21.9509 10.4445 21.9733 10.3466 21.9733C10.2811 21.9783 10.2152 21.9695 10.1533 21.9475C10.0913 21.9255 10.0347 21.8907 9.98695 21.8455C9.93923 21.8003 9.9015 21.7456 9.87618 21.685C9.85087 21.6243 9.83853 21.559 9.83996 21.4933C9.83996 21.0933 10.1955 20.88 10.8355 20.88C10.8426 20.8289 10.838 20.7768 10.8219 20.7278C10.8058 20.6788 10.7787 20.6342 10.7426 20.5973C10.7066 20.5604 10.6626 20.5322 10.6139 20.5149C10.5653 20.4977 10.5134 20.4918 10.4622 20.4977C10.3082 20.4978 10.1574 20.5409 10.0266 20.6222L9.95551 20.4177C10.1217 20.3182 10.313 20.2688 10.5066 20.2755C11.0133 20.2755 11.1288 20.6222 11.1288 20.9511V21.5377ZM10.8444 21.0844C10.5155 21.0844 10.1422 21.1377 10.1422 21.4666C10.138 21.505 10.1424 21.5438 10.1552 21.5803C10.168 21.6167 10.1888 21.6498 10.2161 21.6771C10.2434 21.7044 10.2765 21.7252 10.313 21.738C10.3494 21.7508 10.3882 21.7553 10.4266 21.7511C10.5134 21.7513 10.5982 21.725 10.6697 21.6758C10.7411 21.6265 10.7959 21.5567 10.8266 21.4755C10.8301 21.443 10.8301 21.4102 10.8266 21.3777L10.8444 21.0844Z" fill="#231F20"/>
<path d="M12.7287 21.2089L12.4887 21.9378H12.1865L12.9687 19.6267H13.3332L14.1243 21.9378H13.8043L13.5554 21.2089H12.7287ZM13.4932 20.9778L13.2621 20.3112C13.2134 20.1719 13.1748 20.0293 13.1465 19.8845C13.1465 20.0267 13.0754 20.1689 13.031 20.3023L12.7999 20.9778H13.4932Z" fill="#231F20"/>
<path d="M15.84 19.5022V21.5022C15.84 21.6533 15.84 21.8222 15.84 21.9378H15.5733V21.6444C15.5178 21.7462 15.4354 21.8307 15.335 21.8887C15.2347 21.9468 15.1203 21.976 15.0044 21.9733C14.901 21.968 14.7999 21.9414 14.7072 21.8953C14.6145 21.8493 14.5322 21.7846 14.4655 21.7054C14.3989 21.6263 14.3492 21.5342 14.3195 21.435C14.2899 21.3359 14.281 21.2316 14.2933 21.1289C14.2797 21.0207 14.2886 20.9109 14.3194 20.8064C14.3503 20.7018 14.4024 20.6048 14.4725 20.5213C14.5426 20.4379 14.6292 20.3698 14.7268 20.3214C14.8245 20.273 14.9311 20.2452 15.04 20.24C15.1376 20.2336 15.2351 20.2532 15.3226 20.297C15.41 20.3407 15.4843 20.4069 15.5377 20.4889V19.5022H15.84ZM15.5377 20.9511C15.5427 20.9098 15.5427 20.868 15.5377 20.8266C15.5231 20.7228 15.4723 20.6276 15.3942 20.5576C15.3161 20.4877 15.2158 20.4476 15.1111 20.4444C14.8 20.4444 14.6133 20.72 14.6133 21.0844C14.6133 21.4489 14.7822 21.7066 15.1111 21.7066C15.2143 21.7046 15.3138 21.6673 15.393 21.6011C15.4722 21.5348 15.5264 21.4435 15.5466 21.3422C15.551 21.2979 15.551 21.2532 15.5466 21.2089L15.5377 20.9511Z" fill="#231F20"/>
<path d="M16.6756 19.8134C16.6757 19.8383 16.6706 19.863 16.6606 19.8858C16.6505 19.9086 16.6358 19.929 16.6174 19.9458C16.599 19.9626 16.5772 19.9753 16.5535 19.9831C16.5299 19.9909 16.5048 19.9936 16.48 19.9911C16.4571 19.9923 16.4342 19.9889 16.4127 19.9809C16.3911 19.973 16.3715 19.9607 16.3548 19.9449C16.3382 19.9291 16.3249 19.9101 16.3159 19.889C16.3069 19.8679 16.3022 19.8452 16.3022 19.8223C16.302 19.7733 16.3202 19.7261 16.3531 19.6899C16.386 19.6537 16.4313 19.6311 16.48 19.6267C16.5034 19.6255 16.5267 19.6289 16.5488 19.6368C16.5708 19.6446 16.5911 19.6567 16.6084 19.6724C16.6257 19.6881 16.6398 19.7071 16.6498 19.7282C16.6598 19.7493 16.6656 19.7722 16.6667 19.7956L16.6756 19.8134ZM16.3378 21.9378V20.2756H16.64V21.9378H16.3378Z" fill="#231F20"/>
<path d="M17.1378 20.8177C17.1378 20.6044 17.1378 20.4355 17.1378 20.2755H17.4045V20.5599C17.464 20.4584 17.5501 20.375 17.6534 20.3186C17.7568 20.2622 17.8735 20.235 17.9911 20.2399C18.0937 20.2465 18.1939 20.2739 18.2856 20.3204C18.3772 20.367 18.4584 20.4318 18.5242 20.5109C18.5899 20.5899 18.6388 20.6816 18.6679 20.7802C18.697 20.8788 18.7057 20.9823 18.6934 21.0844C18.7084 21.1935 18.7002 21.3045 18.6694 21.4102C18.6386 21.516 18.5858 21.614 18.5145 21.6979C18.4432 21.7818 18.3549 21.8497 18.2555 21.8972C18.1562 21.9446 18.0479 21.9706 17.9378 21.9733C17.8384 21.9768 17.7398 21.9549 17.6512 21.9099C17.5625 21.8648 17.4868 21.7979 17.4311 21.7155V22.6044H17.1289L17.1378 20.8177ZM17.44 21.2622C17.4359 21.3035 17.4359 21.3452 17.44 21.3866C17.4672 21.486 17.5263 21.5738 17.6082 21.6364C17.6901 21.699 17.7903 21.733 17.8933 21.7333C18.2133 21.7333 18.4 21.4755 18.4 21.0933C18.4 20.7111 18.2222 20.4799 17.9022 20.4799C17.796 20.4832 17.6939 20.5216 17.6118 20.5892C17.5298 20.6568 17.4725 20.7496 17.4489 20.8533C17.444 20.8946 17.444 20.9364 17.4489 20.9777V21.2622H17.44Z" fill="#231F20"/>
<path d="M19.2622 21.1644C19.2569 21.2405 19.268 21.3168 19.2947 21.3882C19.3215 21.4596 19.3632 21.5245 19.4171 21.5784C19.471 21.6323 19.5359 21.674 19.6073 21.7008C19.6787 21.7275 19.755 21.7386 19.8311 21.7333C19.9889 21.7373 20.146 21.7101 20.2933 21.6533L20.3377 21.8667C20.163 21.9387 19.9756 21.975 19.7866 21.9733C19.6751 21.9802 19.5634 21.9629 19.4593 21.9225C19.3551 21.8822 19.2609 21.8197 19.1832 21.7395C19.1055 21.6592 19.0461 21.5631 19.0091 21.4577C18.9721 21.3523 18.9584 21.2401 18.9688 21.1289C18.9578 21.0183 18.9697 20.9067 19.0037 20.801C19.0377 20.6952 19.0931 20.5976 19.1665 20.5142C19.2399 20.4308 19.3297 20.3634 19.4302 20.3162C19.5308 20.2691 19.64 20.2431 19.7511 20.24C19.8489 20.2418 19.9453 20.2641 20.034 20.3054C20.1228 20.3467 20.2019 20.406 20.2663 20.4797C20.3308 20.5533 20.3791 20.6396 20.4083 20.7331C20.4374 20.8265 20.4467 20.925 20.4355 21.0222C20.4396 21.0695 20.4396 21.1171 20.4355 21.1644H19.2622ZM20.1511 20.9422C20.16 20.8819 20.1558 20.8205 20.139 20.7619C20.1221 20.7034 20.0929 20.6491 20.0533 20.6028C20.0137 20.5565 19.9647 20.5192 19.9095 20.4934C19.8543 20.4676 19.7942 20.4539 19.7333 20.4533C19.6098 20.4641 19.4945 20.5199 19.4093 20.61C19.3241 20.7001 19.2749 20.8183 19.2711 20.9422H20.1511Z" fill="#231F20"/>
<path d="M20.8087 20.7911C20.8087 20.5955 20.8087 20.4267 20.8087 20.2755H21.0665V20.6044C21.096 20.5031 21.1564 20.4135 21.2392 20.3482C21.3221 20.2829 21.4233 20.245 21.5287 20.24H21.6087V20.5244H21.5109C21.4081 20.5282 21.3102 20.5689 21.235 20.6391C21.1599 20.7094 21.1127 20.8044 21.102 20.9067C21.0979 20.954 21.0979 21.0016 21.102 21.0489V21.9378H20.7998L20.8087 20.7911Z" fill="#231F20"/>
<path d="M22.222 21.04L22.3732 20.8444L22.862 20.2755H23.2176L22.5776 20.96L23.3065 21.9378H22.942L22.3732 21.1378L22.222 21.3333V21.9644H21.9287V19.5022H22.222V21.04Z" fill="#231F20"/>
<path d="M24.7824 21.5378C24.7735 21.671 24.7735 21.8046 24.7824 21.9378H24.5335V21.7245C24.4751 21.8035 24.3986 21.8673 24.3105 21.9107C24.2223 21.954 24.125 21.9755 24.0268 21.9733C23.9613 21.9783 23.8954 21.9695 23.8334 21.9475C23.7715 21.9255 23.7148 21.8908 23.6671 21.8456C23.6194 21.8004 23.5817 21.7457 23.5564 21.685C23.531 21.6244 23.5187 21.5591 23.5201 21.4933C23.5201 21.0933 23.8757 20.88 24.5157 20.88C24.5228 20.8289 24.5181 20.7769 24.502 20.7279C24.4859 20.6789 24.4588 20.6342 24.4228 20.5973C24.3867 20.5604 24.3427 20.5323 24.2941 20.515C24.2455 20.4978 24.1936 20.4919 24.1424 20.4978C23.9889 20.501 23.8388 20.5438 23.7068 20.6222L23.6446 20.4178C23.8074 20.318 23.996 20.2685 24.1868 20.2756C24.6935 20.2756 24.8179 20.6222 24.8179 20.9511V21.5733L24.7824 21.5378ZM24.489 21.0845C24.1601 21.0845 23.7868 21.1378 23.7868 21.4667C23.7842 21.5047 23.7897 21.5429 23.8031 21.5786C23.8164 21.6143 23.8373 21.6467 23.8643 21.6737C23.8912 21.7006 23.9236 21.7215 23.9594 21.7348C23.9951 21.7482 24.0332 21.7538 24.0712 21.7511C24.1589 21.7554 24.2456 21.7308 24.3179 21.681C24.3901 21.6312 24.444 21.559 24.4712 21.4756C24.4754 21.4431 24.4754 21.4102 24.4712 21.3778L24.489 21.0845Z" fill="#231F20"/>
<path d="M25.2268 21.6266C25.3476 21.6998 25.4856 21.7397 25.6268 21.7422C25.8401 21.7422 25.9468 21.6355 25.9468 21.5022C25.9468 21.3689 25.8579 21.2711 25.6357 21.1911C25.4134 21.1111 25.2001 20.9244 25.2001 20.72C25.2032 20.6501 25.2208 20.5817 25.2517 20.519C25.2826 20.4563 25.3261 20.4006 25.3795 20.3555C25.433 20.3104 25.4951 20.2769 25.5622 20.257C25.6292 20.2371 25.6996 20.2313 25.769 20.24C25.9119 20.2322 26.054 20.2662 26.1779 20.3378L26.1068 20.56C26.0091 20.4934 25.8957 20.4535 25.7779 20.4444C25.6001 20.4444 25.4934 20.5511 25.4934 20.6755C25.4934 20.8 25.6001 20.8711 25.8134 20.9511C26.0268 21.0311 26.249 21.2089 26.249 21.4489C26.249 21.6889 26.0179 21.9555 25.6268 21.9555C25.4659 21.953 25.3077 21.9134 25.1646 21.84L25.2268 21.6266Z" fill="#231F20"/>
<path d="M27.7954 21.5377C27.7778 21.6705 27.7778 21.805 27.7954 21.9377H27.5554V21.7244C27.4961 21.8024 27.4194 21.8654 27.3315 21.9086C27.2435 21.9518 27.1467 21.974 27.0488 21.9733C26.9832 21.9783 26.9174 21.9695 26.8554 21.9475C26.7935 21.9255 26.7368 21.8907 26.6891 21.8455C26.6414 21.8003 26.6036 21.7456 26.5783 21.685C26.553 21.6243 26.5407 21.559 26.5421 21.4933C26.5421 21.0933 26.8977 20.88 27.5377 20.88C27.5448 20.8289 27.5401 20.7768 27.524 20.7278C27.5079 20.6788 27.4808 20.6342 27.4448 20.5973C27.4087 20.5604 27.3647 20.5322 27.3161 20.5149C27.2675 20.4977 27.2156 20.4918 27.1643 20.4977C27.0104 20.4978 26.8595 20.5409 26.7288 20.6222L26.6577 20.4177C26.8238 20.3182 27.0152 20.2688 27.2088 20.2755C27.7154 20.2755 27.8399 20.6222 27.8399 20.9511V21.5733L27.7954 21.5377ZM27.5021 21.0844C27.1732 21.0844 26.7999 21.1377 26.7999 21.4666C26.7957 21.505 26.8001 21.5438 26.8129 21.5803C26.8257 21.6167 26.8465 21.6498 26.8738 21.6771C26.9011 21.7044 26.9342 21.7252 26.9707 21.738C27.0071 21.7508 27.0459 21.7553 27.0843 21.7511C27.1717 21.7539 27.2577 21.7287 27.3297 21.6791C27.4017 21.6295 27.4559 21.5582 27.4843 21.4755C27.4885 21.443 27.4885 21.4102 27.4843 21.3777L27.5021 21.0844Z" fill="#231F20"/>
<path d="M13.4133 16.4178C13.4577 16.8178 13.5288 17.4311 14.0088 17.5911C14.2406 17.6547 14.4796 17.6876 14.7199 17.6889C14.7733 17.6889 14.8088 17.6889 14.8088 17.7422C14.8088 17.7956 14.7111 17.84 14.5777 17.84C14.4444 17.84 13.1466 17.84 12.7377 17.7956C12.4888 17.7778 12.4444 17.7778 12.4444 17.6889C12.4431 17.6789 12.444 17.6686 12.447 17.659C12.45 17.6493 12.4551 17.6403 12.4618 17.6328C12.4685 17.6252 12.4768 17.6191 12.4861 17.615C12.4953 17.6109 12.5054 17.6088 12.5155 17.6089C12.5777 17.6089 12.5866 17.4134 12.5155 17.2178L12.0266 11.5556L9.35994 17.2711C9.12883 17.7511 9.09328 17.8489 8.9955 17.8489C8.89772 17.8489 8.86217 17.7422 8.65772 17.3422C8.37328 16.8089 7.42217 14.9067 7.36883 14.8C7.3155 14.6934 6.0355 11.9556 5.91994 11.6622L5.33328 16.72C5.33328 16.8978 5.33328 17.0934 5.33328 17.28C5.33404 17.3606 5.36285 17.4384 5.41476 17.5001C5.46667 17.5617 5.53844 17.6033 5.61772 17.6178C5.75485 17.6509 5.89467 17.6717 6.0355 17.68C6.0355 17.68 6.12439 17.68 6.12439 17.7334C6.12439 17.7867 6.06217 17.8311 5.92883 17.8311C5.51994 17.8311 5.03994 17.8311 4.90661 17.8311C4.77328 17.8311 4.28439 17.8311 4.01772 17.8311C3.91105 17.8311 3.83105 17.8311 3.83105 17.7334C3.83105 17.6356 3.88439 17.68 3.93772 17.68C4.05014 17.6888 4.16308 17.6888 4.2755 17.68C4.63105 17.6089 4.66661 17.1822 4.71105 16.7911L5.50217 9.62669C5.50217 9.50224 5.5555 9.42224 5.62661 9.42224C5.69772 9.42224 5.73328 9.46669 5.78661 9.59113L9.1555 16.5067L12.3822 9.60002C12.4266 9.50224 12.4711 9.42224 12.5511 9.42224C12.6311 9.42224 12.6577 9.51113 12.6844 9.72446L13.4133 16.4178Z" fill="#E20613"/>
<path d="M18.56 10.8712C17.92 12.3467 16.4444 16.2045 16.2044 16.9689C16.1542 17.1035 16.1214 17.2439 16.1067 17.3867C16.1046 17.4386 16.1168 17.49 16.1418 17.5354C16.1669 17.5809 16.2039 17.6186 16.2489 17.6445C16.3873 17.6659 16.5282 17.6659 16.6667 17.6445C16.7289 17.6445 16.7911 17.6445 16.7911 17.7067C16.7911 17.7689 16.72 17.7956 16.5422 17.7956C16.1067 17.7956 15.6 17.7956 15.4667 17.7956C15.3333 17.7956 14.9333 17.7956 14.5778 17.7956C14.4533 17.7956 14.3911 17.7956 14.3911 17.7245C14.3911 17.6534 14.4356 17.6445 14.5156 17.6445C14.7023 17.6505 14.887 17.6043 15.0489 17.5112C15.1911 17.4134 15.36 17.2267 15.6533 16.48C15.7778 16.1689 16.32 14.8534 16.8889 13.4934C17.5556 11.8934 18.0533 10.7023 18.3022 10.1689C18.6133 9.50226 18.6578 9.33337 18.7644 9.33337C18.8711 9.33337 18.9511 9.48449 19.1644 10.0089L21.8311 16.7556C22.0711 17.3689 22.2311 17.4934 22.6222 17.6445C22.7609 17.6624 22.9013 17.6624 23.04 17.6445C23.0512 17.6432 23.0626 17.6444 23.0734 17.6478C23.0841 17.6513 23.094 17.657 23.1024 17.6645C23.1108 17.6721 23.1175 17.6813 23.1221 17.6917C23.1266 17.702 23.129 17.7132 23.1289 17.7245C23.1289 17.7867 23.0133 17.7956 22.8444 17.7956C22.3111 17.7956 21.68 17.7956 21.5556 17.7956C21.4311 17.7956 20.9511 17.7956 20.5333 17.7956C20.3378 17.7956 20.2311 17.7956 20.2311 17.7245C20.2311 17.6534 20.2311 17.6445 20.3467 17.6445C20.4879 17.6499 20.6291 17.6319 20.7644 17.5912C20.808 17.573 20.845 17.5421 20.8704 17.5023C20.8958 17.4626 20.9085 17.4161 20.9067 17.3689C20.8391 17.0624 20.7378 16.7642 20.6044 16.48L18.56 10.8712Z" fill="#E20613"/>
<path d="M23.7688 12.7022C23.7688 10.9866 23.7688 10.6844 23.7688 10.3289C23.7688 9.97331 23.6621 9.77776 23.2977 9.70664C23.1736 9.69354 23.0484 9.69354 22.9243 9.70664C22.8799 9.70664 22.8354 9.70664 22.8354 9.64442C22.8354 9.5822 22.8888 9.55553 23.0132 9.55553C23.5021 9.55553 24.1599 9.55553 24.2488 9.55553C24.4977 9.55553 25.1377 9.55553 25.6354 9.55553C26.0007 9.51266 26.3709 9.54581 26.7227 9.65289C27.0746 9.75997 27.4004 9.93867 27.6799 10.1778C28.0267 10.5249 28.2244 10.9937 28.231 11.4844C28.2412 11.8353 28.1788 12.1845 28.0478 12.5102C27.9168 12.8359 27.72 13.1311 27.4696 13.3772C27.2193 13.6233 26.9209 13.8152 26.5931 13.9407C26.2652 14.0662 25.915 14.1227 25.5643 14.1066H25.3332C25.2799 14.1066 25.2088 14.1066 25.2088 14.0266C25.2088 13.9466 25.2799 13.9289 25.511 13.9289C25.753 13.9384 25.9944 13.8998 26.2213 13.8154C26.4483 13.7309 26.6562 13.6023 26.8331 13.437C27.0101 13.2716 27.1524 13.0729 27.252 12.8521C27.3516 12.6314 27.4064 12.3931 27.4132 12.1511C27.4277 11.8423 27.3802 11.5337 27.2733 11.2436C27.1664 10.9535 27.0024 10.6878 26.791 10.4622C26.596 10.2662 26.3605 10.1154 26.101 10.0201C25.8415 9.92494 25.5642 9.88771 25.2888 9.91109C25.1293 9.90364 24.9698 9.92472 24.8177 9.97331C24.7466 9.97331 24.7288 10.0711 24.7288 10.1866V14.7022C24.7288 15.76 24.7288 16.6311 24.7821 17.0933C24.7821 17.4044 24.8799 17.6533 25.2088 17.6978L25.7066 17.7422C25.7688 17.7422 25.7954 17.7422 25.7954 17.8044C25.7954 17.8666 25.7421 17.8933 25.6177 17.8933C25.0132 17.8933 24.3199 17.8933 24.2666 17.8933C24.2132 17.8933 23.5377 17.8933 23.2088 17.8933C23.0932 17.8933 23.031 17.8933 23.031 17.8044C23.031 17.7155 23.031 17.7422 23.1199 17.7422L23.4488 17.6978C23.671 17.6533 23.7243 17.4044 23.7688 17.0933C23.8221 16.6311 23.8221 15.76 23.8221 14.7022V12.7022H23.7688Z" fill="#E20613"/>
<path d="M13.9912 17.7778C13.9912 17.7778 14.8801 13.8933 18.7734 13.7422C22.6668 13.5911 24.1779 11.5555 24.1779 11.5555C23.6304 12.5038 22.8424 13.2907 21.8935 13.837C20.9446 14.3833 19.8683 14.6694 18.7734 14.6667C17.7432 14.5754 16.7121 14.8323 15.8451 15.3964C14.9781 15.9604 14.3253 16.7989 13.9912 17.7778Z" fill="#E20613"/>
</g>
<defs>
<clipPath id="clip0_2707_316433">
<rect width="32" height="32" fill="white"/>
</clipPath>
</defs>
</svg>
