<svg width="32" height="32" viewBox="0 0 32 32" fill="none" xmlns="http://www.w3.org/2000/svg">
<g clip-path="url(#clip0_2707_316023)">
<path d="M15.9998 31.9823C24.8265 31.9823 31.982 24.8268 31.982 16C31.982 7.17331 24.8265 0.0178223 15.9998 0.0178223C7.17306 0.0178223 0.0175781 7.17331 0.0175781 16C0.0175781 24.8268 7.17306 31.9823 15.9998 31.9823Z" fill="white"/>
<path d="M4.44428 14.6934V16.5423H5.52873C5.52873 16.1601 5.52873 15.7956 5.52873 15.4045H4.71984V15.049C5.09317 15.049 5.84873 15.049 5.84873 15.049V16.9245C5.84873 16.9245 4.62206 16.9245 4.00873 16.9245C3.9465 16.6756 4.00873 13.7334 4.00873 13.7334L5.8665 13.689L7.25317 15.1112V16.969L5.91984 18.2667L3.99984 18.3112L2.6665 16.9423V15.1112L3.65317 14.089C3.65317 15.1467 3.65317 16.1779 3.65317 17.209C4.50255 17.2671 5.35491 17.2671 6.20428 17.209V14.7023H4.61317L4.44428 14.6934Z" fill="#DA0708"/>
<path d="M24.231 17.3423H22.8176L23.1465 17.2534C23.1465 17.1111 23.1465 16.9689 23.1465 16.8356C23.1465 16.3023 23.1465 15.7778 23.1465 15.2445C23.1466 15.1977 23.1343 15.1517 23.111 15.1111L22.1332 17.4223C21.911 17.0134 21.7865 16.6223 21.6088 16.2489C21.431 15.8756 21.3332 15.4489 21.1021 15.1111V16.8889C21.1021 17.1556 21.1021 17.1734 21.3688 17.2623C21.4083 17.2745 21.4427 17.2995 21.4665 17.3334H20.5776V17.2889C20.6843 17.2654 20.7775 17.2011 20.8373 17.1097C20.8971 17.0184 20.9188 16.9072 20.8976 16.8C20.8976 16.24 20.8976 15.6889 20.8976 15.1289C20.8976 14.8 20.8976 14.7823 20.5332 14.6489H21.6265L22.3554 16.3645L23.111 14.6489H24.1776H24.0976C23.8665 14.72 23.8221 14.7645 23.8221 14.9956C23.8221 15.2267 23.8221 15.4223 23.8221 15.6445V16.7289C23.8132 17.2 23.8132 17.2 24.231 17.3423Z" fill="black"/>
<path d="M7.8756 17.3156L8.1956 17.1911V14.8089L7.82227 14.64H9.19115C9.36765 14.6426 9.5434 14.6635 9.7156 14.7022C9.83115 14.7281 9.93756 14.7848 10.0236 14.8661C10.1097 14.9475 10.1721 15.0505 10.2045 15.1645C10.2418 15.2774 10.2381 15.3998 10.1943 15.5103C10.1504 15.6208 10.0691 15.7123 9.96449 15.7689C9.8756 15.8222 9.76893 15.8578 9.65338 15.9111L9.89338 16C10.0114 16.0388 10.1151 16.112 10.1911 16.2102C10.2672 16.3084 10.3121 16.4272 10.32 16.5511C10.3247 16.6789 10.294 16.8054 10.2312 16.9168C10.1685 17.0282 10.0762 17.12 9.96449 17.1822C9.78576 17.2847 9.58382 17.3398 9.37782 17.3422C8.88004 17.3422 8.38227 17.3422 7.88449 17.3422L7.8756 17.3156ZM8.88893 17.1289C9.20004 17.1911 9.36893 17.1289 9.48449 16.9867C9.54384 16.8696 9.57477 16.7402 9.57477 16.6089C9.57477 16.4776 9.54384 16.3482 9.48449 16.2311C9.35115 16 9.11115 16 8.88893 16C8.8665 16.37 8.8665 16.7411 8.88893 17.1111V17.1289ZM8.88893 14.8267C8.88893 15.0222 8.88893 15.1822 8.88893 15.3511C8.85544 15.5303 8.85544 15.7142 8.88893 15.8933C9.04004 15.8489 9.19115 15.8133 9.33338 15.76C9.39466 15.7339 9.44712 15.6907 9.48449 15.6356C9.67115 15.28 9.5556 14.8356 9.05782 14.8178L8.88893 14.8267Z" fill="black"/>
<path d="M19.4574 17.3422H18.0885L18.2841 17.1822C18.2728 17.1144 18.2518 17.0486 18.2218 16.9867C17.9907 16.6756 17.7507 16.3733 17.4929 16.0978C17.4571 16.1377 17.4271 16.1826 17.4041 16.2311C17.3763 16.5583 17.3972 16.8878 17.4663 17.2089L17.7063 17.3511H16.4085L16.7463 17.2356C16.7463 16.4444 16.7463 15.6533 16.7463 14.8444L16.3818 14.6933H17.6885L17.4663 14.8356C17.3832 15.2117 17.3562 15.5981 17.3863 15.9822C17.8218 15.6089 18.2752 15.3244 18.6041 14.96C18.6041 14.7733 18.4352 14.7911 18.3196 14.6844H19.4129C18.9056 14.9949 18.4241 15.3457 17.9729 15.7333L18.4974 16.4L18.9596 16.9689C19.092 17.1327 19.2631 17.2609 19.4574 17.3422Z" fill="black"/>
<path d="M15.6708 16.1779C15.6708 15.849 15.6708 15.529 15.6708 15.209C15.6897 15.0893 15.6626 14.9669 15.595 14.8663C15.5274 14.7657 15.4243 14.6944 15.3063 14.6667C15.5997 14.6667 15.893 14.6667 16.2397 14.6667C16.1685 14.729 16.1419 14.7645 16.1152 14.7645C15.8841 14.7645 15.8485 14.9601 15.8485 15.1467V17.1734C15.862 17.2588 15.862 17.3458 15.8485 17.4312C15.2263 16.7379 14.6841 16.0001 14.0708 15.2356V16.7823C14.0708 17.1467 14.0708 17.209 14.5063 17.369H13.4219L13.6085 17.289C13.6779 17.2645 13.7377 17.2186 13.7793 17.1578C13.8208 17.0971 13.842 17.0247 13.8397 16.9512V15.1112C13.8396 15.0575 13.8257 15.0047 13.7992 14.958C13.7727 14.9112 13.7346 14.8721 13.6885 14.8445C13.6059 14.786 13.5198 14.7326 13.4308 14.6845H14.4085L15.6263 16.2401L15.6708 16.1779Z" fill="black"/>
<path d="M28.9952 14.7734L29.1374 14.5956C29.1664 14.8912 29.1664 15.1889 29.1374 15.4845C29.0539 15.3006 28.9397 15.1322 28.7997 14.9867C28.7281 14.9205 28.6441 14.8691 28.5526 14.8355C28.461 14.802 28.3637 14.7869 28.2663 14.7911C27.9552 14.7911 27.8397 14.9334 27.8663 15.2711C27.9643 15.4022 28.0966 15.5037 28.2485 15.5645L28.8263 15.8578C28.9923 15.9386 29.129 16.0691 29.2174 16.2311C29.2736 16.3372 29.3052 16.4546 29.3099 16.5746C29.3145 16.6946 29.2921 16.8141 29.2443 16.9242C29.1965 17.0343 29.1245 17.1323 29.0337 17.2108C28.9429 17.2893 28.8355 17.3464 28.7197 17.3778C28.4826 17.4714 28.2189 17.4714 27.9819 17.3778H27.893C27.6352 17.2889 27.6352 17.2889 27.4397 17.4667C27.3704 17.1355 27.3704 16.7935 27.4397 16.4622C27.4698 16.5137 27.4966 16.5672 27.5196 16.6222C27.5605 16.7634 27.6318 16.8939 27.7286 17.0044C27.8253 17.115 27.9452 17.203 28.0796 17.2622C28.2375 17.32 28.4107 17.32 28.5685 17.2622C28.6424 17.2525 28.7112 17.2197 28.7655 17.1687C28.8197 17.1177 28.8565 17.0509 28.8708 16.9778C28.8914 16.9006 28.886 16.8187 28.8555 16.7448C28.8249 16.6709 28.771 16.6091 28.7019 16.5689L28.133 16.2667C27.958 16.1614 27.7916 16.0425 27.6352 15.9111C27.5652 15.8494 27.5092 15.7735 27.4708 15.6884C27.4324 15.6034 27.4125 15.5111 27.4125 15.4178C27.4125 15.3245 27.4324 15.2322 27.4708 15.1472C27.5092 15.0621 27.5652 14.9862 27.6352 14.9245C27.7444 14.8025 27.8852 14.713 28.0421 14.6659C28.1989 14.6189 28.3657 14.6161 28.5241 14.6578C28.6828 14.6892 28.84 14.7277 28.9952 14.7734Z" fill="black"/>
<path d="M12.071 17.3334L12.4088 17.1823L12.1777 16.5956H11.2354C11.0221 16.969 11.0221 16.9779 11.1021 17.2001L11.4399 17.3245C11.3396 17.3376 11.238 17.3376 11.1377 17.3245H10.4888C11.0885 16.4578 11.5726 15.5165 11.9288 14.5245L12.1243 14.9245L12.951 16.8001C13.0153 17.0012 13.1394 17.1779 13.3065 17.3068L12.071 17.3334ZM12.071 16.3734L11.6977 15.4845L11.3065 16.3734H12.071Z" fill="black"/>
<path d="M27.1289 17.3334H25.8845L26.1956 17.209C26.1769 16.9885 26.1003 16.7769 25.9734 16.5957H25.0845C24.9575 16.7639 24.8945 16.9719 24.9067 17.1823L25.2356 17.3068C25.152 17.3542 25.0542 17.37 24.96 17.3512C24.8622 17.3512 24.7645 17.3512 24.6667 17.3512H24.3022C24.7822 17.0579 24.8356 16.569 25.0489 16.1779C25.2622 15.7868 25.44 15.289 25.6445 14.8712C25.6445 14.7823 25.7334 14.7023 25.7956 14.5779C25.8756 14.7379 25.9378 14.8623 25.9911 14.9868C26.2667 15.609 26.5334 16.2223 26.8089 16.8357C26.8616 17.0307 26.9734 17.2045 27.1289 17.3334ZM25.1289 16.3912C25.3828 16.4222 25.6395 16.4222 25.8934 16.3912C25.7689 16.1157 25.6534 15.8579 25.5289 15.5557L25.1289 16.3912Z" fill="black"/>
</g>
<defs>
<clipPath id="clip0_2707_316023">
<rect width="32" height="32" fill="white"/>
</clipPath>
</defs>
</svg>
