<svg width="32" height="32" viewBox="0 0 32 32" fill="none" xmlns="http://www.w3.org/2000/svg">
<g clip-path="url(#clip0_2737_122556)">
<mask id="mask0_2737_122556" style="mask-type:luminance" maskUnits="userSpaceOnUse" x="0" y="0" width="32" height="32">
<path d="M31.9909 0.0178223H0.0175781V31.9912H31.9909V0.0178223Z" fill="white"/>
</mask>
<g mask="url(#mask0_2737_122556)">
<path d="M15.9998 31.9823C24.8265 31.9823 31.982 24.8268 31.982 16C31.982 7.17331 24.8265 0.0178223 15.9998 0.0178223C7.17306 0.0178223 0.0175781 7.17331 0.0175781 16C0.0175781 24.8268 7.17306 31.9823 15.9998 31.9823Z" fill="white"/>
<path fill-rule="evenodd" clip-rule="evenodd" d="M18.3382 16.6845C18.2138 16.7022 18.0894 16.72 17.9738 16.7378C17.8494 16.7556 16.9427 14.5511 16.8982 14.4711C16.8538 14.5867 16.8182 14.6756 16.7827 14.7645C16.5694 15.3156 16.356 15.8667 16.1427 16.4178C15.9916 16.8 15.8494 17.1911 15.6982 17.5734C15.5471 17.9556 15.396 18.3378 15.2449 18.72C15.0849 19.1378 14.916 19.5556 14.7649 19.9733C14.6138 20.3822 14.3294 20.5778 13.8227 20.6045C13.3782 20.6222 12.9338 20.6045 12.4805 20.6045C12.8005 20.3911 13.076 20.1334 13.156 19.7334C13.1827 19.6978 13.2182 19.6711 13.236 19.6356C13.3605 19.3334 13.476 19.0311 13.5916 18.72C13.9382 17.8756 14.2849 17.0311 14.6227 16.1867C14.7827 15.7867 14.9427 15.3778 15.1027 14.9778C15.316 14.4622 15.5294 13.9467 15.7427 13.4311C15.9205 13.0045 16.0982 12.5867 16.2671 12.16C16.356 11.9556 16.4449 11.7511 16.5338 11.5467C16.5427 11.5289 16.5605 11.5022 16.5782 11.4934C16.7294 11.3422 17.2271 11.3511 17.3249 11.5911C17.4849 12.0089 19.3871 16.5867 19.5027 16.8445C19.6716 17.2534 20.6582 19.7067 20.6849 19.7511C20.5249 20.08 20.3471 20.3911 20.0182 20.5867C19.9916 20.5956 19.9649 20.6045 19.9382 20.6134H19.9027C19.5916 20.56 19.3249 20.4356 19.1649 20.1334C19.1649 20.1334 19.1649 20.1245 19.156 20.1156C19.1382 20.08 19.1205 20.0445 19.1027 20.0089V19.9911C19.1027 19.9911 19.1027 19.9733 19.0938 19.9645C19.0938 19.9645 19.0938 19.9645 19.0849 19.9556C19.0671 19.9111 18.3827 18 18.4182 17.9289C18.4894 17.7778 18.5871 17.6445 18.676 17.5022C18.836 17.2534 19.0938 17.1289 19.316 16.96C19.3427 16.9422 19.3694 16.9245 19.4405 16.8711C19.3338 16.8356 19.2627 16.7911 19.1827 16.7822C19.076 16.7556 18.9605 16.7467 18.8449 16.7378C18.6849 16.72 18.5249 16.7111 18.3649 16.6934L18.3382 16.6845Z" fill="url(#paint0_linear_2737_122556)"/>
<path fill-rule="evenodd" clip-rule="evenodd" d="M24.8534 20.0712C24.8534 20.0712 24.089 18.649 23.9645 18.4001C23.8579 18.1956 23.7512 17.9912 23.6357 17.7956C23.6179 17.7601 23.5557 17.7245 23.5112 17.7245C23.4757 17.7245 23.4312 17.7778 23.4134 17.8134C23.2445 18.1512 23.0757 18.489 22.9068 18.8267C22.7557 19.129 22.5868 19.4223 22.4357 19.7156C22.3023 19.9734 22.1779 20.2401 21.929 20.409C21.7601 20.5245 21.5734 20.6134 21.3512 20.6134C20.9334 20.6134 20.5157 20.6223 20.0979 20.6312C20.0623 20.6312 20.0268 20.6045 19.9912 20.5956C20.3201 20.4001 21.9823 17.2534 22.6579 16.0178C21.8757 14.5067 21.0312 12.9867 20.1957 11.4312C20.329 11.4312 20.4357 11.4134 20.5423 11.4134C20.7823 11.4134 21.0223 11.4312 21.2623 11.4134C21.7601 11.3778 22.0801 11.6267 22.3023 12.0445C22.5868 12.5778 22.8623 13.1112 23.1379 13.6445C23.2445 13.8578 23.3512 14.0623 23.4668 14.2934C23.5645 14.3023 23.6179 14.2134 23.6623 14.1334C23.8312 13.8312 23.9912 13.5201 24.1512 13.2178C24.3557 12.8445 24.5423 12.4623 24.7557 12.089C24.9334 11.7778 25.2445 11.4045 25.7245 11.4312C26.0445 11.4578 26.3734 11.4223 26.7023 11.4134C26.7557 11.4134 26.8179 11.4223 26.8979 11.4312C26.8179 11.5734 26.7557 11.6801 26.6934 11.7956C26.5245 12.1067 26.3557 12.4267 26.1868 12.7467C26.0623 12.9778 25.9379 13.209 25.8134 13.4312C25.6001 13.8312 25.3779 14.2312 25.1645 14.6312C24.969 14.9867 24.7823 15.3601 24.5779 15.7067C24.4357 15.9467 24.4712 16.1512 24.6134 16.3734C24.7468 16.5867 26.7023 20.1067 26.7645 20.169C26.7912 20.1956 26.8179 20.2312 26.8534 20.2667C26.889 20.2312 26.9068 20.2134 26.9334 20.1956C26.9512 20.1778 26.7912 20.6223 26.3468 20.6134C26.3468 20.6134 26.329 20.6134 26.3201 20.6134C26.2845 20.6134 26.249 20.6134 26.2134 20.6134C26.2134 20.6134 26.1957 20.6134 26.1868 20.6134H25.6001C25.6001 20.6134 25.5912 20.6134 25.5823 20.6134C25.5645 20.6134 25.5379 20.6134 25.5201 20.6045C25.5112 20.6045 25.4934 20.6045 25.4845 20.5956C25.2268 20.5245 25.0134 20.3912 24.8801 20.1512C24.8712 20.1334 24.8623 20.1156 24.8445 20.089L24.8534 20.0712Z" fill="url(#paint1_linear_2737_122556)"/>
<path fill-rule="evenodd" clip-rule="evenodd" d="M5.64466 15.7689C5.62688 15.8845 4.96911 19.9645 4.82688 20.1156C4.81799 20.1334 4.80911 20.1511 4.79133 20.1689C4.78244 20.1867 4.77355 20.2045 4.75577 20.2222L4.73799 20.2578C4.63133 20.4178 4.47133 20.4889 4.30244 20.56C4.28466 20.56 4.25799 20.5689 4.24022 20.5778L4.05355 20.6222H4.03577H3.11133C3.14688 20.4978 3.17355 20.3822 3.20022 20.2667C3.20022 20.2667 4.67577 12.0622 4.70244 11.9022C4.70244 11.8934 4.70244 11.8845 4.70244 11.8756C4.70244 11.8756 4.70244 11.8667 4.70244 11.8578C4.70244 11.8578 4.70244 11.8489 4.70244 11.84C4.70244 11.8311 4.70244 11.8134 4.71133 11.8045C4.71133 11.7867 4.72911 11.7689 4.72911 11.7511C4.75577 11.6889 4.78244 11.6356 4.80911 11.5734C4.84466 11.5378 4.88911 11.5022 4.92466 11.4667C4.92466 11.4667 5.01355 11.4311 5.04911 11.4134C5.05799 11.4134 5.07577 11.4134 5.08466 11.4045C5.13799 11.4045 5.20022 11.4045 5.25355 11.4045L5.378 11.4311C5.378 11.4311 5.46688 11.4667 5.50244 11.4845C5.52022 11.5022 5.54688 11.5289 5.56466 11.5467C5.56466 11.5467 5.57355 11.5645 5.58244 11.5734C5.60911 11.6178 5.62688 11.6711 5.65355 11.7156C5.65355 11.7156 5.66244 11.7334 5.67133 11.7422C5.67133 11.7511 5.67133 11.76 5.68022 11.7778C5.68022 11.7867 5.68022 11.7956 5.68911 11.8045C5.69799 11.8311 5.71577 11.8667 5.72466 11.8934C5.72466 11.9111 5.74244 11.9289 5.75133 11.9467C5.92911 12.3289 7.93799 16.6489 7.99133 16.7734C7.99133 16.7822 7.99133 16.7911 8.00022 16.8C8.01799 16.8267 8.03577 16.8622 8.05355 16.8889C8.06244 16.9156 8.07133 16.9334 8.08022 16.96C8.12466 16.9956 8.16022 17.0311 8.20466 17.0667C8.20466 17.0667 8.20466 17.0667 8.20466 17.0578C8.24022 16.9956 8.26688 16.9245 8.30244 16.8622C8.338 16.7734 10.3647 12.4356 10.5424 12.0622C10.6224 11.9022 10.6758 11.7334 10.7736 11.5822C10.8891 11.3956 11.1113 11.3334 11.3513 11.4045C11.5291 11.4578 11.6536 11.6534 11.6713 11.8578C11.698 12.1067 13.058 19.4578 13.0847 19.5378C13.0847 19.6 13.0847 19.6711 13.0847 19.7334C13.0047 20.1334 12.7291 20.3911 12.4091 20.6045L11.9913 20.5156C11.9913 20.5156 11.9824 20.5156 11.9736 20.5156C11.8313 20.3911 11.6891 20.2667 11.5469 20.1422C11.5469 20.1422 11.538 20.1334 11.5291 20.1245C11.5113 20.08 11.4936 20.0356 11.4847 20C11.4847 19.9911 11.4758 19.9734 11.4669 19.9645C11.4491 19.9289 10.8091 16.2845 10.7736 16.0445C10.7558 15.9289 10.738 15.8134 10.7202 15.6978C10.7202 15.6534 10.6936 15.6178 10.6758 15.5734C10.6669 15.5734 10.6491 15.5734 10.6402 15.5645C9.81355 17.2178 8.99577 18.88 8.16022 20.56C8.098 20.4622 8.03577 20.3822 8.00022 20.2934C7.84911 19.9911 5.82244 15.8222 5.75133 15.6711C5.75133 15.6711 5.75133 15.6711 5.74244 15.6622C5.74244 15.6445 5.73355 15.6267 5.72466 15.6089C5.72466 15.6089 5.71577 15.5911 5.70688 15.5822C5.70688 15.5822 5.66244 15.5822 5.64466 15.5822C5.64466 15.5822 5.64466 15.6089 5.63577 15.6178C5.62688 15.6711 5.60911 15.7245 5.60022 15.7778C5.60022 15.7778 5.60022 15.7956 5.59133 15.8045L5.64466 15.7689Z" fill="url(#paint2_linear_2737_122556)"/>
<path fill-rule="evenodd" clip-rule="evenodd" d="M26.3291 20.5956C26.4002 20.5778 26.8802 20.2489 26.8535 20.2578C26.8891 20.2222 26.9069 20.2044 26.9335 20.1867C26.9513 20.1689 26.9691 20.1511 26.9869 20.1333C26.9869 20.1333 26.9958 20.1156 27.0047 20.1067C27.0402 20.0622 27.0669 20.0178 27.1024 19.9733C27.1469 19.8578 27.1913 19.7333 27.2358 19.6178C27.2358 19.6 27.2447 19.5822 27.2535 19.5644C27.2535 19.5467 27.2535 19.5378 27.2624 19.52C27.2624 19.4578 27.2624 19.3956 27.2624 19.3333C27.2624 19.3067 27.2624 19.28 27.2624 19.2533C27.2624 17.1378 27.2624 15.0311 27.2624 12.9156C27.2624 12.48 27.4491 12.1422 27.7158 11.8489C27.8935 11.6444 28.1424 11.4933 28.4269 11.4578C28.4269 11.4578 28.4713 11.4489 28.498 11.44C28.5602 11.4311 28.6224 11.4222 28.6847 11.4133C28.738 11.4133 28.7913 11.4133 28.8447 11.4133C28.8535 11.4222 28.8713 11.44 28.8802 11.4489V11.5644C28.8802 11.5644 28.8802 17.2533 28.8802 19.3867C28.8802 19.4756 28.8802 19.5733 28.8802 19.6622V19.6889C28.8535 20.1422 28.6402 20.4356 28.2402 20.56C28.0535 20.5867 27.8758 20.6222 27.6891 20.6222C27.2447 20.6222 26.8091 20.6133 26.3647 20.6044C26.3647 20.6044 26.3558 20.6044 26.3469 20.6044L26.3291 20.5956Z" fill="url(#paint3_linear_2737_122556)"/>
<path fill-rule="evenodd" clip-rule="evenodd" d="M17.7251 17.6089C17.4407 17.5645 16.614 18.1334 16.0718 18.7734C15.8229 19.0756 15.5829 19.6889 15.5651 19.7245C15.5562 19.7245 15.5474 19.7245 15.5385 19.7245C15.5651 19.5822 15.2451 18.2489 16.8185 17.3067C17.0585 17.1645 17.3251 17.0933 17.5918 17.0222C17.7785 16.9689 18.7474 16.9333 18.7474 16.9333H18.8807C18.8807 16.9333 18.8807 16.9511 18.8807 16.96C18.8451 16.9867 18.8007 17.0045 18.7651 17.0311C18.4274 17.2889 18.2407 17.6445 18.0807 18.0178C17.094 20.3645 16.1251 19.7778 15.9651 19.8045C15.9651 19.8045 15.9562 19.8045 15.9474 19.8045C15.9207 19.8045 15.9029 19.8045 15.8762 19.8045H15.8407C15.8407 19.8045 15.8407 19.7511 15.8407 19.7245C15.974 19.4489 16.054 19.1378 16.2496 18.9067C17.0051 18.0267 17.4851 17.7511 17.7074 17.6089H17.7251Z" fill="#56B944"/>
<path d="M26.2488 19.3956C26.2488 19.3956 26.2044 19.3156 26.1777 19.2711C26.2044 19.3156 26.2222 19.3511 26.2488 19.3956Z" fill="#E2BD63"/>
<path d="M26.4002 19.6623C26.4002 19.6623 26.3558 19.5734 26.3291 19.5378C26.3558 19.5823 26.3735 19.6267 26.4002 19.6623Z" fill="#E2BD63"/>
<path d="M24.7734 19.929C24.7734 19.929 24.7912 19.9734 24.809 19.9912C24.8001 19.9734 24.7912 19.9467 24.7734 19.929Z" fill="#E2BD63"/>
<path d="M24.8535 20.0712C24.8535 20.0712 24.8713 20.1067 24.8891 20.1334C24.8802 20.1156 24.8713 20.0978 24.8535 20.0712Z" fill="#E2BD63"/>
<path d="M25.4932 20.5778C25.4932 20.5778 25.5198 20.5778 25.5287 20.5866C25.5198 20.5866 25.5021 20.5866 25.4932 20.5778Z" fill="#E2BD63"/>
<path d="M26.1602 19.2266C26.1602 19.2266 26.1602 19.2178 26.1602 19.2089C26.1602 19.2089 26.1602 19.2089 26.169 19.2178" fill="#E2BD63"/>
<path d="M26.5783 19.9644C26.5783 19.9644 26.5694 19.9467 26.5605 19.9467C26.5605 19.9467 26.5694 19.9644 26.5783 19.9644Z" fill="#E2BD63"/>
</g>
</g>
<defs>
<linearGradient id="paint0_linear_2737_122556" x1="13.1438" y1="17.4711" x2="17.2617" y2="23.4314" gradientUnits="userSpaceOnUse">
<stop stop-color="#DBB757"/>
<stop offset="0.79" stop-color="#BA8B0F"/>
<stop offset="1" stop-color="#8B601B"/>
</linearGradient>
<linearGradient id="paint1_linear_2737_122556" x1="20.3337" y1="15.2733" x2="27.6874" y2="20.9919" gradientUnits="userSpaceOnUse">
<stop stop-color="#E2BD63"/>
<stop offset="0.56" stop-color="#FADC82"/>
<stop offset="1" stop-color="#795815"/>
</linearGradient>
<linearGradient id="paint2_linear_2737_122556" x1="6.30527" y1="15.4439" x2="11.8558" y2="20.5963" gradientUnits="userSpaceOnUse">
<stop stop-color="#CD9824"/>
<stop offset="0.5" stop-color="#F4DC7C"/>
<stop offset="0.77" stop-color="#D8BE65"/>
<stop offset="1" stop-color="#795815"/>
</linearGradient>
<linearGradient id="paint3_linear_2737_122556" x1="27.8071" y1="13.3772" x2="26.9309" y2="26.7085" gradientUnits="userSpaceOnUse">
<stop stop-color="#D0AC4F"/>
<stop offset="1" stop-color="#A37A0F"/>
</linearGradient>
<clipPath id="clip0_2737_122556">
<rect width="32" height="32" fill="white"/>
</clipPath>
</defs>
</svg>
