<svg width="32" height="32" viewBox="0 0 32 32" fill="none" xmlns="http://www.w3.org/2000/svg">
<g clip-path="url(#clip0_2707_315938)">
<path d="M15.9998 31.9823C24.8265 31.9823 31.982 24.8268 31.982 16C31.982 7.17331 24.8265 0.0178223 15.9998 0.0178223C7.17306 0.0178223 0.0175781 7.17331 0.0175781 16C0.0175781 24.8268 7.17306 31.9823 15.9998 31.9823Z" fill="white"/>
<path d="M22.6755 19.0134C22.791 18.8445 22.8977 18.7023 23.1199 18.4089C22.7377 18.4089 22.4266 18.3111 22.2932 18.4089C22.2054 18.5036 22.1392 18.6162 22.0993 18.739C22.0594 18.8618 22.0467 18.9918 22.0621 19.12C22.1196 19.2785 22.2114 19.4224 22.3309 19.5414C22.4503 19.6604 22.5946 19.7516 22.7533 19.8084C22.912 19.8653 23.0813 19.8865 23.2492 19.8704C23.417 19.8544 23.5793 19.8015 23.7243 19.7156C23.992 19.5855 24.2226 19.3903 24.3952 19.1479C24.5678 18.9055 24.6768 18.6236 24.7122 18.3282C24.7476 18.0327 24.7082 17.7331 24.5978 17.4568C24.4873 17.1805 24.3092 16.9363 24.0799 16.7467L23.5199 16.2489L24.1688 15.8489L23.031 15.6623C22.9615 15.1877 22.8485 14.7205 22.6932 14.2667C22.5344 14.0219 22.2957 13.8398 22.0177 13.7512C21.8066 13.6485 21.5655 13.6253 21.3387 13.6857C21.1118 13.746 20.9143 13.886 20.7821 14.08C20.3999 14.6312 20.6577 15.0756 21.191 15.4934L21.8755 14.9956L21.7688 14.8356L21.2355 14.8889L21.191 14.4267C21.5999 14.2845 22.0088 14.0445 22.2221 14.6578C22.3732 15.1023 22.0977 15.8223 21.6532 15.8756C21.0807 15.9062 20.5065 15.8854 19.9377 15.8134L20.711 16.7911C20.0646 17.4064 19.6264 18.2082 19.4577 19.0845C19.1288 20.56 18.5688 20.96 17.0843 20.9689H16.1421C15.2088 20.9689 14.8266 20.6045 14.8177 19.6711C14.8177 18.0178 14.8177 16.3734 14.7555 14.7289C14.7724 14.5542 14.7513 14.3779 14.6938 14.212C14.6362 14.0462 14.5434 13.8948 14.4219 13.7681C14.3003 13.6415 14.1528 13.5426 13.9894 13.4783C13.8261 13.414 13.6507 13.3858 13.4755 13.3956C13.2903 13.3702 13.1019 13.3848 12.9228 13.4384C12.7438 13.492 12.5784 13.5834 12.4377 13.7064C12.297 13.8294 12.1843 13.9811 12.1072 14.1514C12.0302 14.3217 11.9906 14.5065 11.991 14.6934C11.9199 16.4178 11.9466 18.1512 11.9288 19.8756V20.9511C11.3781 20.9823 10.8261 20.9823 10.2755 20.9511C9.67991 20.8889 9.38657 20.4445 9.38657 19.7067C9.38657 18.3911 9.38657 17.0845 9.38657 15.7778C9.38826 15.4006 9.36748 15.0237 9.32435 14.6489C9.32022 14.3278 9.19379 14.0202 8.97084 13.789C8.74788 13.5578 8.44516 13.4203 8.12435 13.4045C7.79692 13.3616 7.4651 13.4401 7.1916 13.6251C6.91809 13.8102 6.72184 14.089 6.63991 14.4089C6.53947 14.8431 6.49171 15.2878 6.49768 15.7334C6.49768 17.4578 6.49768 19.1823 6.49768 20.9867C5.9648 21.0178 5.43056 21.0178 4.89768 20.9867C4.65483 20.9666 4.42847 20.8557 4.26373 20.6761C4.09899 20.4966 4.00796 20.2615 4.00879 20.0178V19.9734C4.00879 17.5467 4.00879 15.1289 4.00879 12.6045L5.28879 12.72L6.83546 11.5556C7.1905 11.3029 7.59481 11.1278 8.02203 11.0418C8.44925 10.9557 8.88981 10.9607 9.31499 11.0563C9.74017 11.1519 10.1404 11.336 10.4897 11.5966C10.839 11.8573 11.1294 12.1886 11.3421 12.5689C11.4755 12.4267 11.6088 12.3023 11.7243 12.16C12.1802 11.6577 12.7767 11.3043 13.4363 11.1457C14.0958 10.9872 14.7878 11.0309 15.4221 11.2712C16.0078 11.4896 16.5095 11.8874 16.8558 12.4077C17.2022 12.928 17.3755 13.5444 17.351 14.1689C17.351 15.3423 17.351 16.5156 17.351 17.7245L17.511 17.7689L20.9155 11.28H22.9688L28.0532 21.0578C27.4843 21.0578 27.0221 21.0578 26.551 21.0578C25.3108 21.0818 24.0702 21.0343 22.8355 20.9156C22.535 20.8932 22.2451 20.7947 21.9931 20.6295C21.7411 20.4643 21.5352 20.2378 21.3948 19.9712C21.2544 19.7046 21.184 19.4066 21.1904 19.1054C21.1967 18.8041 21.2795 18.5094 21.431 18.2489C21.6062 17.9528 21.884 17.7313 22.2117 17.6264C22.5394 17.5216 22.8942 17.5406 23.2088 17.68C23.318 17.7247 23.4172 17.7908 23.5006 17.8742C23.5841 17.9577 23.65 18.0569 23.6947 18.1661C23.7394 18.2753 23.7619 18.3923 23.7609 18.5103C23.7599 18.6283 23.7354 18.7449 23.6888 18.8534C23.6676 18.9916 23.5978 19.1177 23.4918 19.209C23.3859 19.3002 23.2508 19.3506 23.111 19.3512C23.0521 19.3598 22.9922 19.3598 22.9332 19.3512C22.8532 19.1912 22.7821 19.0934 22.6755 19.0134Z" fill="#EC1D2A"/>
</g>
<defs>
<clipPath id="clip0_2707_315938">
<rect width="32" height="32" fill="white"/>
</clipPath>
</defs>
</svg>
