<svg width="32" height="32" viewBox="0 0 32 32" fill="none" xmlns="http://www.w3.org/2000/svg">
<g clip-path="url(#clip0_2707_315493)">
<path d="M15.9998 31.9822C24.8265 31.9822 31.982 24.8267 31.982 16C31.982 7.17325 24.8265 0.0177612 15.9998 0.0177612C7.17306 0.0177612 0.0175781 7.17325 0.0175781 16C0.0175781 24.8267 7.17306 31.9822 15.9998 31.9822Z" fill="white"/>
<path d="M17.7773 17.1733C17.5907 17.1289 17.3151 17.0845 17.0307 17.0045C16.0635 16.716 15.1589 16.2486 14.364 15.6267C14.3182 15.5945 14.2806 15.552 14.2544 15.5025C14.2281 15.4531 14.2139 15.3982 14.2129 15.3422C14.2132 15.2893 14.2253 15.237 14.2484 15.1894C14.2715 15.1417 14.3049 15.0998 14.3462 15.0667L16.9507 12.8622C17.0311 12.7983 17.1211 12.7473 17.2173 12.7111C17.324 12.7111 17.404 12.7111 17.4307 12.8533C17.5018 13.1911 17.564 13.5289 17.6351 13.8667C17.7862 14.6222 17.9462 15.3778 18.1062 16.1245L18.2396 16.72C18.3284 16.96 18.1507 17.1733 17.7773 17.1733Z" fill="#E2352D"/>
<path d="M18.2844 7.33329L18.1866 7.75107C17.9733 8.7644 17.7688 9.77773 17.5555 10.7911C17.5555 10.9333 17.4933 11.0844 17.4666 11.2266C17.4648 11.2541 17.4564 11.2806 17.442 11.3041C17.4277 11.3275 17.4078 11.3471 17.3841 11.3611C17.3605 11.3751 17.3338 11.3832 17.3063 11.3845C17.2789 11.3858 17.2515 11.3805 17.2266 11.3688C17.1387 11.3271 17.0553 11.2764 16.9777 11.2177L14.5244 9.13773L14.391 9.02218C14.3452 8.99125 14.3077 8.94955 14.2817 8.90073C14.2558 8.85191 14.2422 8.79747 14.2422 8.74218C14.2422 8.68689 14.2558 8.63244 14.2817 8.58362C14.3077 8.5348 14.3452 8.4931 14.391 8.46218L15.111 7.99995C15.7723 7.57951 16.4951 7.26462 17.2533 7.06662L17.8577 6.95107C17.9118 6.94323 17.9669 6.94735 18.0192 6.96315C18.0715 6.97894 18.1197 7.00602 18.1604 7.04247C18.201 7.07892 18.2332 7.12385 18.2547 7.1741C18.2761 7.22435 18.2862 7.27869 18.2844 7.33329Z" fill="#E2352D"/>
<path d="M13.84 11.9911C13.6999 11.9997 13.5594 11.9806 13.4267 11.9348C13.294 11.8891 13.1717 11.8176 13.0666 11.7244C12.6311 11.36 12.1778 10.9866 11.7778 10.6044C11.7319 10.5662 11.6966 10.5169 11.6754 10.4611C11.6542 10.4053 11.6478 10.345 11.6567 10.286C11.6657 10.227 11.6897 10.1713 11.7265 10.1243C11.7632 10.0773 11.8115 10.0406 11.8666 10.0177L13.6444 9.12885C13.788 9.06515 13.9459 9.04064 14.1021 9.05782C14.2582 9.075 14.407 9.13324 14.5333 9.22663C14.7704 9.40457 14.9879 9.60719 15.1822 9.83107L16.3555 11.0666C16.48 11.2 16.6133 11.3333 16.7289 11.4666C16.8444 11.6 16.8355 11.7333 16.6311 11.7777H16.2844L14.1333 11.9111L13.84 11.9911Z" fill="#403470"/>
<path d="M13.8576 12.0978L14.5421 12.1422L15.5643 12.2044L16.5687 12.2755H16.6487C16.7998 12.32 16.8354 12.4178 16.7287 12.5422L16.3643 12.9422L14.8532 14.5244C14.7007 14.6923 14.5164 14.8282 14.311 14.9244C14.2004 14.9793 14.0788 15.0078 13.9554 15.0078C13.832 15.0078 13.7103 14.9793 13.5998 14.9244L11.8754 14.08C11.8166 14.0573 11.7648 14.0193 11.7255 13.97C11.6862 13.9206 11.6607 13.8617 11.6516 13.7993C11.6426 13.7369 11.6503 13.6732 11.674 13.6147C11.6977 13.5562 11.7365 13.5051 11.7865 13.4666C12.2043 13.1022 12.6221 12.7289 13.0487 12.3733C13.2746 12.1838 13.5631 12.0855 13.8576 12.0978Z" fill="#403470"/>
<path d="M5.86646 20.0889C5.92943 19.9865 6.01677 19.9012 6.12068 19.8407C6.22459 19.7802 6.34185 19.7464 6.46201 19.7422C6.64699 19.7067 6.83704 19.7067 7.02201 19.7422C7.19352 19.7791 7.34883 19.8697 7.46549 20.0007C7.58214 20.1317 7.65408 20.2965 7.6709 20.4711C7.67962 20.5954 7.67962 20.7202 7.6709 20.8444C7.6709 21.2 7.6709 21.5556 7.6709 21.92C7.6709 22.08 7.61757 22.1333 7.44868 22.1333H7.31534C7.16423 22.1333 7.10201 22.0711 7.10201 21.9111C7.10201 21.7511 7.10201 21.3867 7.10201 21.12C7.10201 20.8533 7.10201 20.8178 7.10201 20.6667C7.09519 20.5464 7.04256 20.4333 6.95494 20.3507C6.86732 20.268 6.75136 20.222 6.6309 20.2222C6.53876 20.2215 6.44868 20.2495 6.37312 20.3022C6.31012 20.3445 6.26012 20.4035 6.22873 20.4726C6.19733 20.5416 6.18577 20.6181 6.19534 20.6933V21.9733C6.19559 22.0129 6.18119 22.0511 6.15493 22.0806C6.12867 22.1102 6.09241 22.1289 6.05312 22.1333C5.95852 22.1422 5.86328 22.1422 5.76868 22.1333C5.65312 22.1333 5.59979 22.0533 5.59979 21.9289C5.59979 21.5467 5.59979 21.1644 5.59979 20.7822C5.60853 20.7025 5.60853 20.622 5.59979 20.5422C5.58939 20.4612 5.55068 20.3864 5.49051 20.3311C5.43033 20.2758 5.35255 20.2435 5.2709 20.24C5.20899 20.2311 5.14614 20.2311 5.08423 20.24C4.98897 20.2443 4.89877 20.2841 4.83134 20.3516C4.76391 20.419 4.72413 20.5092 4.71979 20.6044C4.71536 20.6636 4.71536 20.723 4.71979 20.7822C4.71979 21.1556 4.71979 21.52 4.71979 21.8844C4.72407 21.9199 4.72407 21.9557 4.71979 21.9911C4.71979 22.0265 4.70574 22.0604 4.68074 22.0854C4.65573 22.1104 4.62182 22.1244 4.58646 22.1244H4.22201C4.17878 22.1222 4.13807 22.1034 4.1083 22.0719C4.07852 22.0405 4.06195 21.9989 4.06201 21.9556C4.06201 21.5022 4.06201 21.0667 4.06201 20.6044C4.07531 20.4547 4.11127 20.3078 4.16868 20.1689C4.21456 20.0645 4.2843 19.9723 4.3723 19.8997C4.4603 19.8271 4.56409 19.7763 4.67535 19.7511C4.89439 19.698 5.12297 19.698 5.34201 19.7511C5.44974 19.7625 5.55329 19.799 5.64437 19.8577C5.73544 19.9163 5.81151 19.9955 5.86646 20.0889Z" fill="#343433"/>
<path d="M14.8267 19.7244V18.8889C14.8266 18.8456 14.8432 18.8039 14.8729 18.7725C14.9027 18.741 14.9434 18.7222 14.9867 18.72H15.2622C15.3078 18.7223 15.3508 18.742 15.3822 18.7751C15.4137 18.8082 15.4312 18.8521 15.4311 18.8977C15.4311 18.8977 15.4311 18.8977 15.4311 18.9511C15.4311 19.84 15.4311 20.6577 15.4311 21.5022C15.4448 21.6541 15.4013 21.8056 15.3093 21.9273C15.2173 22.0489 15.0832 22.1318 14.9333 22.16H14.8C14.5037 22.2043 14.2015 22.1892 13.9111 22.1155C13.7297 22.0804 13.5637 21.9897 13.4362 21.8558C13.3088 21.722 13.2262 21.5518 13.2 21.3689C13.1273 21.077 13.1273 20.7718 13.2 20.48C13.2277 20.2795 13.3229 20.0945 13.47 19.9555C13.6171 19.8165 13.8072 19.7318 14.0089 19.7155C14.2541 19.6887 14.5015 19.6887 14.7467 19.7155L14.8267 19.7244ZM14.8267 20.2844C14.6234 20.2533 14.4166 20.2533 14.2133 20.2844C14.1178 20.2968 14.0288 20.3399 13.9599 20.4072C13.8909 20.4746 13.8457 20.5625 13.8311 20.6577C13.7954 20.8397 13.7954 21.0269 13.8311 21.2089C13.8357 21.31 13.8727 21.407 13.9368 21.4855C14.0008 21.5639 14.0884 21.6197 14.1867 21.6444C14.3135 21.6621 14.4421 21.6621 14.5689 21.6444C14.7911 21.6444 14.8533 21.5466 14.8533 21.3244C14.8533 21.1022 14.8533 20.7022 14.8533 20.3911V20.2666L14.8267 20.2844Z" fill="#353433"/>
<path d="M10.2399 21.0933C10.2399 21.28 10.2399 21.4755 10.2399 21.6711C10.2401 21.7915 10.1942 21.9075 10.1115 21.9951C10.0288 22.0827 9.91576 22.1354 9.79549 22.1422C9.40353 22.2 9.00522 22.2 8.61326 22.1422C8.53964 22.1366 8.46785 22.1165 8.40203 22.083C8.33621 22.0495 8.27766 22.0034 8.22975 21.9472C8.18183 21.891 8.14549 21.8259 8.12283 21.7557C8.10017 21.6854 8.09164 21.6113 8.09771 21.5377C8.0899 21.4028 8.10493 21.2676 8.14215 21.1377C8.17512 21.0326 8.23981 20.9403 8.32735 20.8735C8.41489 20.8066 8.52098 20.7685 8.63104 20.7644C8.85327 20.7644 9.09326 20.7644 9.32438 20.7644H9.42215C9.52882 20.7644 9.56438 20.7644 9.53771 20.8977C9.52121 20.9709 9.49105 21.0402 9.44882 21.1022C9.42921 21.1408 9.39829 21.1726 9.36018 21.1932C9.32207 21.2139 9.27858 21.2224 9.23549 21.2177C9.11713 21.2089 8.99828 21.2089 8.87993 21.2177C8.72882 21.2177 8.67549 21.3066 8.67549 21.4577C8.67549 21.6088 8.72882 21.7244 8.87104 21.7333H9.43993C9.46559 21.7347 9.49125 21.7305 9.51514 21.7211C9.53903 21.7116 9.56059 21.6971 9.57834 21.6785C9.59608 21.6599 9.60958 21.6377 9.61791 21.6134C9.62624 21.5891 9.62921 21.5633 9.6266 21.5377C9.6266 21.3866 9.6266 21.2355 9.6266 21.0933V20.64C9.62487 20.573 9.60381 20.508 9.56595 20.4528C9.5281 20.3976 9.47507 20.3546 9.41327 20.3288C9.27288 20.2704 9.11985 20.249 8.96882 20.2666L8.44438 20.3466C8.30215 20.3466 8.23104 20.3466 8.23104 20.1688C8.23104 19.9911 8.23104 20.1688 8.23104 20.1066C8.22468 20.0749 8.22503 20.0422 8.23209 20.0107C8.23915 19.9791 8.25276 19.9494 8.27202 19.9234C8.29129 19.8974 8.3158 19.8758 8.34396 19.8599C8.37211 19.844 8.4033 19.8342 8.43549 19.8311C8.80373 19.7321 9.18949 19.7169 9.56438 19.7866C9.76489 19.8318 9.94356 19.945 10.07 20.1071C10.1964 20.2692 10.2627 20.47 10.2577 20.6755V21.1288L10.2399 21.0933Z" fill="#353433"/>
<path d="M10.5864 21.3333C10.5927 21.0356 10.6194 20.7386 10.6664 20.4445C10.677 20.257 10.7563 20.0799 10.8891 19.9471C11.0219 19.8143 11.1989 19.7351 11.3864 19.7245C11.6786 19.6549 11.9831 19.6549 12.2753 19.7245C12.4414 19.7594 12.5921 19.8463 12.7055 19.9725C12.819 20.0988 12.8893 20.2578 12.9064 20.4267C12.9156 20.548 12.9156 20.6698 12.9064 20.7911C12.9064 21.1556 12.9064 21.5289 12.9064 21.8933C12.9064 22.0622 12.8531 22.1244 12.6842 22.1244H12.4442C12.302 22.1244 12.2398 22.0533 12.2309 21.9022V21.2089C12.2309 21.0133 12.2309 20.8178 12.2309 20.6311C12.235 20.5744 12.2267 20.5175 12.2066 20.4644C12.1865 20.4112 12.155 20.363 12.1144 20.3233C12.0738 20.2835 12.025 20.2531 11.9714 20.2341C11.9179 20.2151 11.8608 20.208 11.8042 20.2133H11.5553C11.4641 20.222 11.3793 20.264 11.317 20.3312C11.2547 20.3984 11.2193 20.4862 11.2175 20.5778C11.2175 20.7378 11.2175 20.8889 11.2175 21.0489C11.2175 21.2089 11.2175 21.5911 11.2175 21.8667C11.2175 22.1422 11.1553 22.1067 10.9686 22.1067H10.7909C10.7641 22.1114 10.7367 22.1096 10.7108 22.1014C10.6849 22.0932 10.6614 22.0789 10.6422 22.0598C10.6231 22.0406 10.6088 22.017 10.6006 21.9912C10.5924 21.9653 10.5906 21.9378 10.5953 21.9111C10.5953 21.7333 10.5953 21.5733 10.5953 21.3956V21.3333H10.5864Z" fill="#343433"/>
<path d="M20.0978 15.1911L19.68 15.1111L18.1067 14.6844C18.053 14.673 18.0018 14.6519 17.9556 14.6222C17.9192 14.6023 17.889 14.5726 17.8686 14.5365C17.8482 14.5003 17.8383 14.4592 17.84 14.4177C17.84 13.8844 17.84 13.3511 17.84 12.8177V12.7733C17.84 12.6311 17.9467 12.5955 18.0534 12.6755C18.2037 12.7904 18.3462 12.9151 18.48 13.0489C19.0667 13.6177 19.6445 14.1955 20.2578 14.7644C20.2891 14.7876 20.3145 14.8177 20.332 14.8524C20.3495 14.8872 20.3586 14.9255 20.3586 14.9644C20.3586 15.0033 20.3495 15.0416 20.332 15.0764C20.3145 15.1111 20.2891 15.1413 20.2578 15.1644L20.0978 15.1911Z" fill="#E2362D"/>
<path d="M20.08 8.88886C20.1279 8.88873 20.1749 8.90197 20.2157 8.92709C20.2566 8.95222 20.2896 8.98823 20.3111 9.03108C20.3345 9.07162 20.3468 9.1176 20.3468 9.16441C20.3468 9.21122 20.3345 9.25721 20.3111 9.29774L19.1022 10.5066L18.2133 11.3244C18.1808 11.3589 18.1414 11.3861 18.0977 11.4044C18.0823 11.4156 18.0641 11.4224 18.045 11.4241C18.026 11.4259 18.0069 11.4225 17.9896 11.4143C17.9724 11.4061 17.9577 11.3935 17.947 11.3777C17.9363 11.3619 17.93 11.3435 17.9288 11.3244C17.9244 11.2563 17.9244 11.188 17.9288 11.12V9.67108C17.9225 9.63937 17.9228 9.60668 17.9299 9.57512C17.9369 9.54356 17.9506 9.51384 17.9698 9.48786C17.9891 9.46189 18.0136 9.44025 18.0418 9.42435C18.0699 9.40844 18.1011 9.39862 18.1333 9.39552C18.3111 9.3333 18.4977 9.28886 18.6844 9.23552L20 8.88886H20.08Z" fill="#403470"/>
<path d="M24.4443 20.9689C24.4429 21.1597 24.4099 21.3489 24.3465 21.5289C24.2963 21.6751 24.2108 21.8068 24.0977 21.9122C23.9845 22.0176 23.8471 22.0936 23.6977 22.1333C23.4327 22.2042 23.1537 22.2042 22.8888 22.1333C22.7234 22.0918 22.5725 22.0062 22.4519 21.8857C22.3314 21.7652 22.2458 21.6142 22.2043 21.4489C22.1065 21.1202 22.1127 20.7694 22.2221 20.4444C22.2747 20.2456 22.3891 20.0687 22.549 19.9393C22.7088 19.8098 22.9056 19.7346 23.111 19.7244C23.3023 19.6929 23.4975 19.6929 23.6888 19.7244C23.8862 19.7705 24.0647 19.8763 24.1999 20.0274C24.335 20.1785 24.4204 20.3675 24.4443 20.5689C24.4265 20.7378 24.4354 20.8533 24.4443 20.9689ZM22.6665 20.9155C22.6665 21.0222 22.6665 21.1022 22.6665 21.1733C22.6665 21.3085 22.7196 21.4383 22.8144 21.5348C22.9092 21.6312 23.038 21.6865 23.1732 21.6889C23.2399 21.703 23.3087 21.7036 23.3755 21.6906C23.4424 21.6775 23.5059 21.6511 23.5624 21.6129C23.6188 21.5748 23.6669 21.5256 23.7039 21.4684C23.7409 21.4112 23.766 21.3471 23.7777 21.28C23.8175 21.1014 23.8175 20.9163 23.7777 20.7378C23.7807 20.6381 23.7656 20.5387 23.7332 20.4444C23.669 20.3533 23.5779 20.2846 23.4727 20.248C23.3675 20.2113 23.2534 20.2085 23.1465 20.24C23.0493 20.2528 22.9585 20.2957 22.8868 20.3626C22.8151 20.4296 22.7661 20.5172 22.7465 20.6133C22.7249 20.7129 22.7101 20.8139 22.7021 20.9155H22.6665Z" fill="#E6352E"/>
<path d="M25.7776 22.1422C25.6264 22.1422 25.422 22.1422 25.2353 22.1422C25.1574 22.1377 25.0812 22.1177 25.0112 22.0834C24.9411 22.0491 24.8786 22.0012 24.8272 21.9424C24.7759 21.8836 24.7368 21.8152 24.7123 21.7412C24.6877 21.6671 24.6782 21.5889 24.6842 21.5111C24.6795 21.4341 24.6795 21.357 24.6842 21.28C24.7018 21.1426 24.7697 21.0165 24.8747 20.9262C24.9798 20.8359 25.1146 20.7878 25.2531 20.7911C25.502 20.7911 25.7509 20.7911 25.9998 20.7911C26.0531 20.7911 26.0709 20.7911 26.062 20.8622C26.0432 20.936 26.0164 21.0076 25.982 21.0756C25.9628 21.1106 25.9345 21.1399 25.9001 21.1602C25.8657 21.1805 25.8264 21.1912 25.7864 21.1911H25.4487C25.4102 21.1888 25.3718 21.1955 25.3364 21.2106C25.301 21.2257 25.2695 21.2488 25.2445 21.278C25.2196 21.3073 25.2017 21.342 25.1924 21.3794C25.1831 21.4167 25.1826 21.4557 25.1909 21.4933C25.1909 21.68 25.2798 21.76 25.4664 21.7689H25.982C26.142 21.7689 26.2131 21.6889 26.2131 21.5289C26.2131 21.2356 26.2131 20.9333 26.2131 20.64C26.2132 20.5619 26.1869 20.486 26.1385 20.4247C26.0901 20.3634 26.0225 20.3202 25.9464 20.3022C25.7629 20.2536 25.5699 20.2536 25.3864 20.3022C25.2579 20.315 25.1302 20.3358 25.0042 20.3644C24.8798 20.3644 24.8176 20.3644 24.8176 20.2044C24.8176 20.0444 24.8176 19.9378 25.0576 19.8933C25.3486 19.8248 25.6487 19.8038 25.9464 19.8311C26.1779 19.8451 26.3989 19.9322 26.5776 20.08C26.6494 20.1492 26.7068 20.232 26.7465 20.3236C26.7861 20.4151 26.8073 20.5136 26.8087 20.6133C26.8087 20.9778 26.8087 21.3333 26.8087 21.6978C26.8214 21.7594 26.8214 21.8229 26.8087 21.8844C26.78 21.9716 26.7256 22.048 26.6526 22.1035C26.5796 22.1591 26.4914 22.1912 26.3998 22.1956C26.1953 22.1333 26.0264 22.1333 25.7776 22.1422Z" fill="#E6362E"/>
<path d="M21.1822 22.1689L20.7377 22.08C20.596 22.0369 20.4672 21.959 20.3632 21.8534C20.2592 21.7479 20.1832 21.618 20.1422 21.4756C20.0314 21.1317 20.0314 20.7617 20.1422 20.4178C20.2002 20.2258 20.3174 20.0572 20.4771 19.9359C20.6367 19.8145 20.8306 19.7468 21.0311 19.7422C21.2812 19.7153 21.534 19.7333 21.7777 19.7956C21.8178 19.802 21.8542 19.8225 21.8803 19.8535C21.9064 19.8845 21.9205 19.9239 21.92 19.9644C21.92 20.2044 21.92 20.2578 21.6533 20.2311C21.4938 20.2134 21.3328 20.2134 21.1733 20.2311C21.0547 20.2368 20.942 20.2847 20.8556 20.3662C20.7692 20.4477 20.7148 20.5574 20.7022 20.6756C20.6621 20.8631 20.6621 21.0569 20.7022 21.2444C20.7214 21.3669 20.7841 21.4783 20.8788 21.5583C20.9735 21.6383 21.0938 21.6815 21.2177 21.68C21.3923 21.6936 21.5676 21.6936 21.7422 21.68C21.8666 21.68 21.9111 21.68 21.92 21.8311C21.9289 21.9822 21.92 22.1156 21.6711 22.1511L21.1822 22.1689Z" fill="#E6362E"/>
<path d="M27.3689 20.4444V18.9777C27.364 18.9453 27.364 18.9124 27.3689 18.88C27.3685 18.8576 27.3737 18.8356 27.3841 18.8158C27.3945 18.796 27.4097 18.7792 27.4282 18.7668C27.4468 18.7544 27.4682 18.7469 27.4905 18.7449C27.5127 18.7429 27.5351 18.7466 27.5556 18.7555H27.8311C27.8697 18.7555 27.9068 18.7702 27.9349 18.7966C27.963 18.823 27.98 18.8592 27.9822 18.8977V18.9689C27.9822 19.9466 27.9822 20.9244 27.9822 21.9022C27.9866 21.9376 27.9866 21.9734 27.9822 22.0089C27.98 22.0427 27.9649 22.0743 27.9402 22.0974C27.9154 22.1206 27.8828 22.1334 27.8489 22.1333H27.5556C27.4578 22.1333 27.4133 22.0711 27.4133 21.9644V20.4444H27.3689Z" fill="#E6372E"/>
<path d="M17.7063 21.2533V21.9466C17.7063 22.1066 17.644 22.16 17.484 22.1689H17.2529C17.2058 22.1689 17.1606 22.1501 17.1272 22.1168C17.0939 22.0834 17.0751 22.0382 17.0751 21.9911V20.6311C17.0661 20.492 17.0661 20.3524 17.0751 20.2133C17.0838 20.1318 17.1162 20.0546 17.1683 19.9914C17.2205 19.9282 17.2901 19.8817 17.3685 19.8577C17.5256 19.8124 17.6861 19.7797 17.8485 19.76C17.9935 19.7509 18.139 19.7509 18.284 19.76C18.3907 19.76 18.4263 19.76 18.4263 19.9022C18.4243 19.9943 18.3943 20.0836 18.3403 20.1582C18.2863 20.2329 18.2109 20.2893 18.124 20.32H17.9196C17.7418 20.32 17.6796 20.4089 17.6796 20.5955V21.2533H17.7063Z" fill="#343433"/>
<path d="M15.9375 20.88V19.9911C15.9375 19.8489 15.9908 19.7867 16.1331 19.7778H16.3908C16.4162 19.7761 16.4416 19.7802 16.4651 19.7897C16.4887 19.7992 16.5098 19.8139 16.5269 19.8327C16.544 19.8515 16.5566 19.8739 16.5638 19.8982C16.571 19.9226 16.5727 19.9483 16.5686 19.9733V20.24C16.5686 20.6222 16.5686 21.0044 16.5686 21.3867V21.9644C16.5686 22.1155 16.5064 22.1778 16.3553 22.1867H16.1331C16.1074 22.1881 16.0817 22.1839 16.0578 22.1745C16.034 22.165 16.0124 22.1505 15.9947 22.1319C15.9769 22.1133 15.9634 22.0911 15.9551 22.0668C15.9467 22.0425 15.9438 22.0167 15.9464 21.9911V20.88H15.9375Z" fill="#353534"/>
<path d="M18.7998 20.9422V19.92C18.8019 19.8806 18.8185 19.8434 18.8464 19.8155C18.8743 19.7876 18.9115 19.771 18.9509 19.7689C19.0485 19.76 19.1467 19.76 19.2442 19.7689C19.2708 19.7672 19.2973 19.7716 19.3219 19.7815C19.3465 19.7915 19.3686 19.8068 19.3865 19.8264C19.4044 19.846 19.4177 19.8694 19.4254 19.8948C19.4331 19.9203 19.435 19.9471 19.4309 19.9733V20.5511C19.4309 20.9955 19.4309 21.44 19.4309 21.8933V21.9555C19.4309 22.1155 19.3687 22.1778 19.2176 22.1778H18.9687C18.9263 22.1778 18.8856 22.1609 18.8556 22.1309C18.8256 22.1009 18.8087 22.0602 18.8087 22.0178C18.8044 21.9913 18.8044 21.9643 18.8087 21.9378V20.9422H18.7998Z" fill="#353534"/>
<path d="M21.6352 24.4978C21.6797 24.3289 21.733 24.1689 21.7775 24.0089V23.8844C21.7775 23.8222 21.7775 23.7955 21.8752 23.8044H21.9286C21.9908 23.8044 22.0175 23.8044 22.0352 23.8844C22.0797 24.0889 22.1419 24.2933 22.1952 24.4978C22.1952 24.3555 22.2663 24.2222 22.293 24.08C22.2973 24.006 22.2973 23.9318 22.293 23.8578C22.293 23.8133 22.293 23.7955 22.3641 23.7955H22.4352C22.4352 23.7955 22.4886 23.7955 22.4886 23.8489C22.453 24.1113 22.3843 24.3682 22.2841 24.6133C22.2773 24.6289 22.2661 24.6423 22.252 24.6517C22.2378 24.6612 22.2212 24.6664 22.2041 24.6666C22.0086 24.6666 22.0352 24.6666 21.9641 24.5066L21.8308 24.08C21.7863 24.24 21.7241 24.4089 21.6708 24.5778C21.67 24.5924 21.6659 24.6067 21.6589 24.6196C21.6518 24.6325 21.6419 24.6436 21.63 24.6522C21.618 24.6607 21.6043 24.6665 21.5898 24.669C21.5753 24.6715 21.5605 24.6707 21.5463 24.6666H21.4575C21.4575 24.6666 21.3863 24.6666 21.3775 24.6133L21.333 23.8933C21.333 23.8933 21.333 23.8133 21.333 23.8044C21.333 23.7955 21.4663 23.8044 21.4841 23.8755C21.5019 23.9466 21.5641 24.2933 21.5997 24.4978H21.6352Z" fill="#363635"/>
<path d="M14.3287 23.9111C14.3785 23.9727 14.4057 24.0496 14.4057 24.1289C14.4057 24.2081 14.3785 24.285 14.3287 24.3466C14.2787 24.4054 14.2116 24.4473 14.1368 24.4664C14.062 24.4855 13.9831 24.4809 13.911 24.4533C13.911 24.5066 13.911 24.5333 13.9554 24.5422H14.2132C14.2593 24.5464 14.303 24.565 14.338 24.5953C14.3731 24.6256 14.3978 24.6661 14.4087 24.7111C14.4276 24.7644 14.4263 24.8228 14.405 24.8753C14.3837 24.9277 14.3439 24.9705 14.2932 24.9955C14.212 25.0369 14.1221 25.0585 14.031 25.0585C13.9398 25.0585 13.85 25.0369 13.7687 24.9955C13.7225 24.9668 13.6879 24.9228 13.671 24.8711C13.6533 24.8223 13.6533 24.7688 13.671 24.72C13.671 24.72 13.7598 24.72 13.8221 24.72C13.8843 24.72 13.8221 24.8711 13.8843 24.8889C13.9342 24.9225 13.993 24.9405 14.0532 24.9405C14.1134 24.9405 14.1722 24.9225 14.2221 24.8889C14.2306 24.8724 14.2351 24.8541 14.2351 24.8355C14.2351 24.817 14.2306 24.7987 14.2221 24.7822C14.201 24.7494 14.1698 24.7244 14.1332 24.7111C14.0532 24.7067 13.9731 24.7067 13.8932 24.7111C13.7065 24.7111 13.6532 24.56 13.751 24.4089C13.7249 24.3364 13.7042 24.2621 13.6887 24.1866C13.691 24.0978 13.7273 24.0131 13.7902 23.9503C13.853 23.8874 13.9376 23.8511 14.0265 23.8489H14.1154C14.1611 23.8667 14.2119 23.8667 14.2576 23.8489C14.301 23.8352 14.3476 23.8352 14.391 23.8489C14.391 23.8489 14.4532 23.8489 14.4532 23.8933C14.4532 23.9377 14.4532 23.9822 14.391 23.9644C14.3759 23.9409 14.3543 23.9224 14.3287 23.9111ZM14.0532 23.9111C14.0052 23.9134 13.96 23.934 13.9269 23.9688C13.8938 24.0036 13.8753 24.0497 13.8754 24.0977C13.8754 24.1449 13.8941 24.1901 13.9275 24.2235C13.9608 24.2568 14.006 24.2755 14.0532 24.2755C14.0773 24.2756 14.1012 24.2707 14.1233 24.2612C14.1455 24.2517 14.1655 24.2378 14.1821 24.2204C14.1988 24.2029 14.2117 24.1822 14.2201 24.1596C14.2285 24.137 14.2322 24.1129 14.231 24.0889C14.229 24.0415 14.2099 23.9964 14.1772 23.9621C14.1445 23.9277 14.1004 23.9065 14.0532 23.9022V23.9111Z" fill="#373736"/>
<path d="M17.2619 23.8666C17.3653 23.8303 17.4727 23.8064 17.5819 23.7955C17.6192 23.7881 17.6578 23.7898 17.6945 23.8003C17.7311 23.8108 17.7647 23.8298 17.7925 23.8559C17.8203 23.8819 17.8415 23.9142 17.8543 23.9501C17.8671 23.986 17.8713 24.0244 17.8663 24.0622C17.8663 24.2488 17.8663 24.4266 17.8663 24.6133C17.8663 24.8 17.8041 24.6755 17.7596 24.6755C17.7152 24.6755 17.6796 24.6755 17.6796 24.6133C17.6796 24.5511 17.6796 24.2933 17.6796 24.1422C17.6844 24.1038 17.6844 24.065 17.6796 24.0266C17.6774 24.0023 17.6661 23.9796 17.648 23.9632C17.6299 23.9467 17.6063 23.9376 17.5819 23.9377C17.5084 23.9495 17.4368 23.9704 17.3685 24C17.3646 24.0083 17.3625 24.0174 17.3625 24.0266C17.3625 24.0358 17.3646 24.045 17.3685 24.0533C17.3685 24.2311 17.3685 24.4088 17.3685 24.5955C17.3685 24.7822 17.3685 24.6755 17.2796 24.6755C17.1907 24.6755 17.1819 24.6755 17.1819 24.5955C17.1819 24.5155 17.1819 24.2666 17.1819 24.1066C17.1819 23.9466 17.1196 23.9022 16.9685 23.9466C16.9427 23.9527 16.9197 23.9676 16.9036 23.9886C16.8874 24.0097 16.8789 24.0356 16.8796 24.0622C16.8796 24.2311 16.8796 24.4 16.8796 24.5688C16.8796 24.7377 16.8263 24.64 16.773 24.6488C16.7196 24.6577 16.6841 24.6488 16.6841 24.5688C16.6841 24.3733 16.6841 24.1777 16.6841 23.9733C16.6847 23.9527 16.6898 23.9325 16.699 23.9141C16.7082 23.8957 16.7213 23.8795 16.7374 23.8666C16.846 23.7965 16.9726 23.7594 17.1019 23.76C17.1344 23.7657 17.1655 23.7782 17.193 23.7966C17.2205 23.8149 17.244 23.8388 17.2619 23.8666Z" fill="#363635"/>
<path d="M19.4578 19.0489C19.4608 19.1133 19.4458 19.1773 19.4145 19.2337C19.3831 19.29 19.3366 19.3365 19.2803 19.3679C19.224 19.3993 19.16 19.4144 19.0956 19.4114C19.0311 19.4084 18.9688 19.3876 18.9156 19.3511C18.8591 19.3193 18.8152 19.2691 18.7912 19.2089C18.7467 19.1007 18.7467 18.9793 18.7912 18.8711C18.8047 18.8281 18.8289 18.7893 18.8616 18.7582C18.8942 18.7271 18.9342 18.7048 18.9778 18.6933C19.2178 18.6667 19.4578 18.6667 19.4578 19.0489Z" fill="#353534"/>
<path d="M16.5951 19.04C16.5999 19.1051 16.5862 19.1703 16.5556 19.228C16.5249 19.2858 16.4786 19.3336 16.4219 19.3662C16.3653 19.3987 16.3005 19.4145 16.2352 19.4118C16.17 19.4092 16.1067 19.3881 16.0529 19.3511C15.9953 19.3164 15.9514 19.2631 15.9285 19.2C15.9112 19.1 15.9112 18.9977 15.9285 18.8977C15.9285 18.7288 16.0974 18.6577 16.3107 18.6755C16.387 18.682 16.4582 18.7165 16.5107 18.7723C16.5632 18.828 16.5932 18.9012 16.5951 18.9777V19.04Z" fill="#353534"/>
<path d="M11.3418 24.3289C11.3418 24.4889 11.4929 24.5689 11.6707 24.5333C11.7031 24.5373 11.736 24.5373 11.7684 24.5333C11.7684 24.5333 11.8396 24.5333 11.8573 24.5333C11.8751 24.5333 11.8573 24.6133 11.8573 24.6311C11.7837 24.6659 11.7032 24.684 11.6218 24.684C11.5403 24.684 11.4599 24.6659 11.3862 24.6311C11.3092 24.5821 11.2491 24.5107 11.2141 24.4264C11.1791 24.3421 11.171 24.2491 11.1907 24.16C11.1906 24.0788 11.2165 23.9997 11.2644 23.9342C11.3124 23.8686 11.3799 23.8201 11.4573 23.7955C11.5119 23.7713 11.571 23.7587 11.6307 23.7587C11.6904 23.7587 11.7494 23.7713 11.804 23.7955C11.8607 23.8242 11.9053 23.8722 11.9298 23.9309C11.9542 23.9896 11.9569 24.055 11.9373 24.1155C11.9211 24.1671 11.8873 24.2113 11.8419 24.2406C11.7964 24.2698 11.7421 24.2822 11.6884 24.2755L11.3418 24.3289ZM11.3418 24.1689H11.6618C11.6756 24.1673 11.6889 24.1624 11.7006 24.1548C11.7123 24.1471 11.7219 24.1368 11.7289 24.1246C11.7358 24.1125 11.7398 24.0989 11.7405 24.085C11.7412 24.0711 11.7386 24.0572 11.7329 24.0444C11.7129 24.0065 11.6819 23.9756 11.644 23.9555C11.5018 23.8844 11.3596 24 11.3418 24.1689Z" fill="#373736"/>
<path d="M16.4354 24.24C16.4472 24.3357 16.4241 24.4326 16.3702 24.5126C16.3163 24.5927 16.2352 24.6505 16.142 24.6755C16.0796 24.6935 16.0141 24.6979 15.9498 24.6884C15.8856 24.6789 15.8241 24.6556 15.7696 24.6203C15.7152 24.585 15.6689 24.5383 15.634 24.4835C15.5991 24.4288 15.5764 24.3671 15.5674 24.3028C15.5584 24.2385 15.5633 24.173 15.5818 24.1107C15.6003 24.0485 15.632 23.9909 15.6747 23.942C15.7174 23.893 15.7701 23.8538 15.8292 23.827C15.8884 23.8002 15.9526 23.7864 16.0176 23.7866C16.0764 23.7863 16.1346 23.7984 16.1884 23.8221C16.2422 23.8458 16.2905 23.8806 16.3299 23.9243C16.3693 23.9679 16.3991 24.0194 16.4173 24.0753C16.4355 24.1312 16.4416 24.1904 16.4354 24.2489V24.24ZM16.2665 24.24V24.1155C16.2526 24.0679 16.2232 24.0262 16.1829 23.9972C16.1427 23.9682 16.0938 23.9535 16.0442 23.9555C15.9927 23.9503 15.9411 23.9648 15.8998 23.9961C15.8586 24.0275 15.8308 24.0733 15.822 24.1244C15.8043 24.2124 15.8043 24.3031 15.822 24.3911C15.8324 24.442 15.8603 24.4877 15.9009 24.5202C15.9415 24.5527 15.9923 24.5699 16.0442 24.5688C16.0794 24.5769 16.1158 24.5769 16.1509 24.5688C16.2487 24.4622 16.2487 24.3466 16.2665 24.2222V24.24Z" fill="#373736"/>
<path d="M21.182 24.24C21.1906 24.3092 21.1813 24.3793 21.1551 24.4439C21.1289 24.5084 21.0866 24.5652 21.0323 24.6089C20.978 24.6525 20.9134 24.6815 20.8447 24.6932C20.776 24.7049 20.7055 24.6988 20.6398 24.6756C20.582 24.6623 20.5283 24.6351 20.4834 24.5964C20.4385 24.5577 20.4037 24.5086 20.382 24.4533C20.3421 24.3351 20.3421 24.2071 20.382 24.0889C20.4101 23.9944 20.4706 23.9128 20.553 23.8586C20.6354 23.8045 20.7343 23.7812 20.8322 23.7929C20.93 23.8046 21.0206 23.8505 21.0879 23.9226C21.1552 23.9947 21.1948 24.0882 21.1998 24.1867L21.182 24.24ZM21.0131 24.24V24.1156C20.9993 24.0679 20.9699 24.0263 20.9296 23.9973C20.8893 23.9683 20.8405 23.9536 20.7909 23.9556C20.7406 23.95 20.6901 23.9633 20.6491 23.9929C20.608 24.0224 20.5794 24.0661 20.5687 24.1156C20.551 24.2036 20.551 24.2942 20.5687 24.3822C20.5687 24.5156 20.6754 24.56 20.7998 24.56C20.8531 24.5607 20.9048 24.5422 20.9456 24.508C20.9864 24.4737 21.0135 24.4259 21.022 24.3733C21.022 24.3733 21.022 24.2933 21.022 24.24H21.0131Z" fill="#373736"/>
<path d="M18.9064 24.2311C18.9202 24.3295 18.8969 24.4295 18.841 24.5117C18.7852 24.5938 18.7007 24.6522 18.6041 24.6756C18.5325 24.6991 18.4558 24.7027 18.3822 24.6862C18.3086 24.6696 18.2409 24.6334 18.1862 24.5815C18.1315 24.5295 18.0919 24.4638 18.0716 24.3911C18.0513 24.3185 18.051 24.2417 18.0708 24.1689C18.0752 24.0983 18.0975 24.0299 18.1356 23.9703C18.1737 23.9106 18.2263 23.8616 18.2885 23.8278C18.3507 23.7941 18.4204 23.7767 18.4912 23.7772C18.5619 23.7778 18.6314 23.7964 18.693 23.8311C18.7649 23.8684 18.8237 23.9266 18.8618 23.998C18.8999 24.0694 18.9155 24.1507 18.9064 24.2311ZM18.7286 24.2311C18.7329 24.1898 18.7329 24.1481 18.7286 24.1067C18.7164 24.0574 18.6877 24.0137 18.6473 23.983C18.6069 23.9523 18.5571 23.9363 18.5064 23.9378C18.4807 23.934 18.4544 23.9355 18.4293 23.9419C18.4041 23.9484 18.3805 23.9599 18.3598 23.9756C18.3391 23.9913 18.3218 24.011 18.3088 24.0335C18.2958 24.056 18.2874 24.0809 18.2841 24.1067C18.2664 24.1947 18.2664 24.2853 18.2841 24.3733C18.2956 24.4221 18.3227 24.4658 18.3611 24.4978C18.3996 24.5299 18.4475 24.5486 18.4975 24.5511C18.5355 24.5602 18.575 24.5602 18.613 24.5511C18.7286 24.4889 18.7375 24.3733 18.7464 24.2578L18.7286 24.2311Z" fill="#373736"/>
<path d="M10.8529 24.5956C10.8067 24.6344 10.7524 24.6625 10.694 24.6779C10.6356 24.6932 10.5745 24.6955 10.5151 24.6844C10.4477 24.6717 10.3872 24.6349 10.3447 24.581C10.3022 24.5271 10.2807 24.4597 10.284 24.3911C10.284 24.2133 10.284 24.0356 10.284 23.8578C10.284 23.8578 10.284 23.8044 10.3374 23.8044C10.3907 23.8044 10.4618 23.8044 10.4618 23.92V24.3289C10.4568 24.3675 10.4634 24.4068 10.4808 24.4416C10.4982 24.4764 10.5257 24.5053 10.5596 24.5244C10.6022 24.5463 10.6495 24.5577 10.6974 24.5577C10.7453 24.5577 10.7925 24.5463 10.8351 24.5244C10.8416 24.5012 10.8416 24.4766 10.8351 24.4533V23.9378C10.8351 23.84 10.8351 23.84 10.9329 23.84C11.0307 23.84 11.0218 23.84 11.0218 23.9378V24.6044C11.0218 24.6044 11.0218 24.7022 10.9774 24.7111C10.9329 24.72 10.8707 24.6933 10.8529 24.5956Z" fill="#373635"/>
<path d="M12.7555 24.3022V24C12.7537 23.9757 12.7596 23.9514 12.7723 23.9307C12.7851 23.9099 12.8041 23.8937 12.8266 23.8844C12.939 23.823 13.0633 23.7866 13.1911 23.7778C13.2337 23.7722 13.277 23.7763 13.3177 23.7898C13.3585 23.8033 13.3956 23.8259 13.4264 23.8558C13.4572 23.8858 13.4808 23.9223 13.4955 23.9626C13.5101 24.003 13.5155 24.0461 13.5111 24.0889C13.5111 24.2578 13.5111 24.4266 13.5111 24.5955C13.5111 24.7644 13.5111 24.6666 13.4311 24.6666C13.3511 24.6666 13.3244 24.6666 13.3244 24.5866C13.3244 24.5066 13.3244 24.2844 13.3244 24.1244C13.3244 23.9644 13.2533 23.9111 13.1022 23.9466C12.9511 23.9822 12.9422 23.9911 12.9422 24.16C12.9422 24.3289 12.9422 24.4444 12.9422 24.5866C12.9422 24.7289 12.8978 24.6666 12.8444 24.6666C12.7911 24.6666 12.7466 24.6666 12.7555 24.5866C12.7644 24.5066 12.7555 24.4 12.7555 24.3022Z" fill="#373635"/>
<path d="M9.68003 23.6444V24H10.0356C10.0978 24 10.1156 24 10.1156 24.0711C10.1156 24.1422 10.1156 24.1511 10.0356 24.1511C9.95558 24.1511 9.80447 24.1511 9.67114 24.1511V24.5511C9.67114 24.6311 9.67114 24.6489 9.58225 24.64C9.49336 24.6311 9.47558 24.64 9.48447 24.5511V23.5733C9.48447 23.5111 9.48447 23.4844 9.56447 23.4844H10.0978C10.16 23.4844 10.1778 23.4844 10.1778 23.5733C10.1778 23.6622 10.1778 23.6533 10.0978 23.6444H9.68003Z" fill="#343432"/>
<path d="M15.1821 23.6444H14.9066C14.8443 23.6444 14.8354 23.6444 14.8354 23.5644C14.8354 23.4844 14.8354 23.4844 14.9066 23.4844H15.6532C15.7154 23.4844 15.7243 23.4844 15.7243 23.5644C15.7243 23.6444 15.7243 23.6444 15.6532 23.6444H15.3688V24.5333V24.6222C15.3218 24.6311 15.2735 24.6311 15.2266 24.6222C15.2266 24.6222 15.2266 24.5778 15.2266 24.5511V23.6444H15.1821Z" fill="#373736"/>
<path d="M12.0352 24.0533V23.52C12.0352 23.4577 12.0352 23.4311 12.1152 23.44C12.1952 23.4488 12.2129 23.44 12.2129 23.5111V24.6044C12.2129 24.6844 12.1685 24.6755 12.1152 24.6755C12.0618 24.6755 12.0352 24.6755 12.0352 24.6044V24.0533Z" fill="#343432"/>
<path d="M19.1111 24.2845V24C19.112 23.9829 19.1164 23.9662 19.1241 23.9509C19.1317 23.9356 19.1424 23.9221 19.1556 23.9111C19.2814 23.8286 19.4339 23.7969 19.5822 23.8222C19.5822 23.8222 19.6622 23.8222 19.6533 23.9022C19.6444 23.9822 19.6533 23.9733 19.5644 23.9733H19.3422C19.3242 23.9794 19.309 23.9917 19.2992 24.008C19.2894 24.0243 19.2858 24.0435 19.2889 24.0622V24.5867C19.2889 24.6578 19.2889 24.6667 19.2 24.6667C19.1111 24.6667 19.1022 24.6667 19.1111 24.5867V24.2845Z" fill="#3C3C3B"/>
<path d="M19.7508 24.2933V24C19.7523 23.9629 19.7682 23.9278 19.7953 23.9022C19.9245 23.82 20.0796 23.7883 20.2308 23.8133C20.293 23.8133 20.293 23.8578 20.2841 23.9022C20.2753 23.9467 20.2841 23.9644 20.213 23.9644H19.9908C19.9712 23.9687 19.9539 23.9803 19.9423 23.9967C19.9308 24.0132 19.9259 24.0334 19.9286 24.0533C19.9286 24.2311 19.9286 24.4 19.9286 24.5778C19.9286 24.7556 19.9286 24.6578 19.8308 24.6578C19.733 24.6578 19.733 24.6578 19.7419 24.5778L19.7508 24.2933Z" fill="#3C3C3B"/>
<path d="M12.3818 24.2311V23.8667C12.3818 23.7955 12.4263 23.8044 12.4707 23.8044C12.5152 23.8044 12.5685 23.8044 12.5685 23.8667C12.5685 24.1155 12.5685 24.3644 12.5685 24.6133C12.5685 24.6755 12.5241 24.6755 12.4796 24.6755C12.4352 24.6755 12.3818 24.6755 12.3818 24.6133V24.2311Z" fill="#343432"/>
<path d="M12.4442 23.4844C12.5153 23.4844 12.5508 23.4844 12.5508 23.5733C12.5508 23.6622 12.5508 23.6622 12.4442 23.6622C12.3375 23.6622 12.3286 23.6622 12.3286 23.5733C12.3286 23.4844 12.3908 23.4844 12.4442 23.4844Z" fill="#373736"/>
</g>
<defs>
<clipPath id="clip0_2707_315493">
<rect width="32" height="32" fill="white"/>
</clipPath>
</defs>
</svg>
