<svg width="32" height="32" viewBox="0 0 32 32" fill="none" xmlns="http://www.w3.org/2000/svg">
<g clip-path="url(#clip0_2707_315278)">
<path d="M15.9998 31.9822C24.8265 31.9822 31.982 24.8267 31.982 16C31.982 7.17325 24.8265 0.0177612 15.9998 0.0177612C7.17306 0.0177612 0.0175781 7.17325 0.0175781 16C0.0175781 24.8267 7.17306 31.9822 15.9998 31.9822Z" fill="white"/>
<path fill-rule="evenodd" clip-rule="evenodd" d="M23.0576 17.3511H23.3864C23.5464 17.3511 23.6976 17.3511 23.6976 17.5288C23.6991 17.5577 23.6943 17.5865 23.6835 17.6132C23.6726 17.64 23.6559 17.664 23.6347 17.6835C23.6135 17.7031 23.5882 17.7177 23.5606 17.7263C23.533 17.7349 23.5039 17.7373 23.4753 17.7333H23.0576V17.3511ZM23.0576 16.8888H23.342C23.5998 16.8888 23.6353 17.0044 23.6353 17.0666C23.6353 17.1288 23.5909 17.2355 23.4042 17.2355H23.0576V16.8888ZM22.8887 17.8577H23.5376C23.6264 17.8577 23.8753 17.7688 23.8753 17.5377C23.8721 17.4748 23.8474 17.4149 23.8053 17.368C23.7633 17.3211 23.7064 17.29 23.6442 17.28C23.6942 17.263 23.7375 17.2306 23.7678 17.1875C23.7982 17.1444 23.814 17.0927 23.8131 17.04C23.8131 16.8266 23.5731 16.7644 23.4664 16.7644H22.8976V17.8577" fill="#221F20"/>
<path fill-rule="evenodd" clip-rule="evenodd" d="M24.5332 17.6C24.5046 17.6532 24.4601 17.6963 24.406 17.7234C24.3519 17.7505 24.2908 17.7601 24.231 17.7511C24.151 17.7511 24.0621 17.7511 24.0621 17.6177C24.0646 17.5931 24.0745 17.5698 24.0903 17.5509C24.1061 17.5319 24.1273 17.518 24.151 17.5111C24.2399 17.5111 24.4088 17.5111 24.5332 17.44V17.6ZM24.6932 17.1822C24.6932 17.1022 24.5865 17.0488 24.471 17.0222H24.311C24.2469 17.0052 24.1795 17.0052 24.1154 17.0222C24.0786 17.0328 24.0449 17.052 24.0171 17.0783C23.9893 17.1046 23.9681 17.1372 23.9554 17.1733V17.2444H24.0977C24.0977 17.2444 24.0977 17.1022 24.2932 17.1022C24.4888 17.1022 24.5243 17.1022 24.5421 17.1822V17.28C24.5421 17.3244 24.4799 17.3333 24.4621 17.3422C24.3457 17.3497 24.2299 17.3645 24.1154 17.3866C24.0177 17.3866 23.9288 17.4577 23.9199 17.5911C23.911 17.7244 24.0354 17.84 24.2488 17.84C24.3589 17.8331 24.4644 17.7928 24.551 17.7244C24.5573 17.7573 24.575 17.787 24.601 17.8081C24.627 17.8293 24.6597 17.8406 24.6932 17.84H24.8088V17.7777C24.7643 17.7777 24.7377 17.7777 24.7377 17.7244V17.2" fill="#221F20"/>
<path d="M24.8887 17.0578V17.8489H25.0398V17.4222C25.0357 17.3858 25.0398 17.349 25.0516 17.3143C25.0635 17.2796 25.0828 17.248 25.1083 17.2217C25.1338 17.1954 25.1647 17.175 25.199 17.162C25.2332 17.1491 25.2699 17.1438 25.3064 17.1466C25.4042 17.1466 25.4931 17.2 25.4931 17.2978V17.8489H25.6442V17.2355C25.638 17.1948 25.6206 17.1566 25.5939 17.1252C25.5672 17.0938 25.5323 17.0705 25.4931 17.0578H25.342C25.2807 17.0427 25.2166 17.0427 25.1553 17.0578C25.114 17.0797 25.0777 17.1099 25.0487 17.1466V17.04H24.8887" fill="#221F20"/>
<path d="M25.7153 16.7466V17.8489H25.8664V17.5466L26.0176 17.4222L26.3287 17.8489H26.5153L26.1331 17.3333L26.462 17.0578H26.2664L25.8664 17.3955V16.7466H25.7153Z" fill="#221F20"/>
<path d="M9.89301 17.0844C9.85594 16.9745 9.78349 16.88 9.68699 16.8157C9.59049 16.7513 9.47538 16.7208 9.35968 16.7289C9.22908 16.7282 9.10158 16.7686 8.99524 16.8444C8.92674 16.9001 8.8719 16.9706 8.83492 17.0508C8.79794 17.1309 8.7798 17.2184 8.7819 17.3066C8.7817 17.3946 8.80069 17.4815 8.83753 17.5613C8.87438 17.6411 8.9282 17.712 8.99524 17.7689C9.10349 17.8408 9.22977 17.8808 9.35968 17.8844C9.48896 17.8876 9.61537 17.846 9.71745 17.7666C9.81953 17.6872 9.89098 17.575 9.91968 17.4489H9.77746C9.76261 17.5367 9.71681 17.6164 9.64834 17.6735C9.57987 17.7305 9.49324 17.7612 9.40412 17.76C9.29897 17.7632 9.19678 17.7249 9.11968 17.6533C9.0354 17.5579 8.99087 17.4339 8.99524 17.3066C8.99111 17.2434 9.00003 17.18 9.02144 17.1204C9.04284 17.0607 9.07628 17.0061 9.11968 16.96C9.20025 16.8953 9.30083 16.8607 9.40412 16.8622C9.47807 16.8573 9.55164 16.8763 9.61403 16.9163C9.67642 16.9563 9.72435 17.0152 9.75079 17.0844H9.92857" fill="#221F20"/>
<path d="M10.0089 17.8489H10.16V17.3333C10.1586 17.3112 10.1627 17.289 10.172 17.2688C10.1813 17.2486 10.1955 17.2311 10.2133 17.2178C10.2599 17.1867 10.3108 17.1627 10.3644 17.1467C10.4165 17.1303 10.4724 17.1303 10.5244 17.1467C10.552 17.155 10.5754 17.1732 10.5902 17.1979C10.605 17.2225 10.6101 17.2518 10.6044 17.28V17.8222H10.7556V17.2444C10.7514 17.2006 10.7338 17.1592 10.7051 17.1257C10.6765 17.0923 10.6382 17.0686 10.5956 17.0578H10.4444C10.4035 17.0486 10.361 17.0486 10.32 17.0578C10.2569 17.0769 10.1991 17.1104 10.1511 17.1556V16.7556H10V17.8489" fill="#221F20"/>
<path fill-rule="evenodd" clip-rule="evenodd" d="M10.8887 16.8889H11.0398V16.7289H10.8887V16.8889ZM10.8887 17.8311H11.0398V17.04H10.8887V17.8311Z" fill="#221F20"/>
<path d="M11.1821 17.0578V17.8489H11.3332V17.4222C11.3294 17.3866 11.3332 17.3506 11.3446 17.3166C11.3559 17.2826 11.3744 17.2514 11.3989 17.2253C11.4234 17.1991 11.4532 17.1786 11.4864 17.165C11.5195 17.1514 11.5552 17.1452 11.591 17.1466C11.6977 17.1466 11.7866 17.2 11.7866 17.2978V17.8489H11.9288V17.2355C11.9254 17.1951 11.91 17.1567 11.8847 17.125C11.8594 17.0934 11.8252 17.07 11.7866 17.0578H11.6266C11.5653 17.0427 11.5012 17.0427 11.4399 17.0578C11.4013 17.08 11.368 17.1104 11.3421 17.1466V17.04H11.191" fill="#221F20"/>
<path fill-rule="evenodd" clip-rule="evenodd" d="M12.6487 17.6C12.6179 17.654 12.5722 17.6979 12.5169 17.7263C12.4617 17.7547 12.3994 17.7664 12.3376 17.76C12.3175 17.7625 12.297 17.7607 12.2777 17.7547C12.2583 17.7487 12.2404 17.7387 12.2253 17.7252C12.2101 17.7117 12.198 17.6952 12.1898 17.6766C12.1816 17.6581 12.1774 17.638 12.1776 17.6178C12.1776 17.5644 12.2398 17.52 12.2665 17.5111C12.2931 17.5022 12.5153 17.5111 12.6398 17.44V17.6H12.6487ZM12.7998 17.1822C12.7998 17.1022 12.702 17.0578 12.5865 17.0311H12.4442C12.3832 17.014 12.3186 17.014 12.2576 17.0311C12.2208 17.0417 12.1871 17.061 12.1592 17.0872C12.1314 17.1135 12.1103 17.1461 12.0976 17.1822V17.2533H12.2398C12.2398 17.2533 12.2398 17.1111 12.4353 17.1111C12.6309 17.1111 12.6665 17.1111 12.6842 17.1911V17.28C12.6842 17.3244 12.622 17.3422 12.6042 17.3422C12.5865 17.3422 12.4265 17.3422 12.2576 17.3867C12.2056 17.3946 12.1578 17.4201 12.1223 17.4589C12.0867 17.4977 12.0655 17.5475 12.062 17.6C12.062 17.7511 12.1776 17.8489 12.3909 17.8489C12.5002 17.8381 12.6045 17.7982 12.6931 17.7333C12.6991 17.7648 12.7155 17.7933 12.7397 17.8143C12.7639 17.8353 12.7945 17.8474 12.8265 17.8489H12.9509V17.7778C12.9065 17.7778 12.8798 17.7778 12.8798 17.7333V17.2" fill="#221F20"/>
<path d="M14.6043 17.0844C14.5703 16.9743 14.4999 16.8792 14.4045 16.8145C14.3092 16.7499 14.1947 16.7197 14.0799 16.7288C13.9468 16.7303 13.8171 16.7704 13.7065 16.8444C13.6407 16.9017 13.5882 16.9729 13.5529 17.0527C13.5175 17.1326 13.5002 17.2193 13.5021 17.3066C13.5025 17.3936 13.5208 17.4796 13.556 17.5591C13.5912 17.6386 13.6425 17.71 13.7065 17.7688C13.8189 17.8391 13.9475 17.8789 14.0799 17.8844C14.2085 17.889 14.3345 17.8477 14.4355 17.7679C14.5365 17.6881 14.6057 17.575 14.631 17.4488H14.4621C14.4472 17.5367 14.4014 17.6164 14.333 17.6735C14.2645 17.7305 14.1779 17.7612 14.0888 17.76C13.9836 17.7632 13.8814 17.7249 13.8043 17.6533C13.7181 17.5584 13.6704 17.4348 13.6704 17.3066C13.6704 17.1784 13.7181 17.0548 13.8043 16.96C13.8849 16.8953 13.9855 16.8607 14.0888 16.8622C14.1627 16.8573 14.2363 16.8762 14.2987 16.9162C14.3611 16.9562 14.409 17.0152 14.4354 17.0844H14.6043Z" fill="#221F20"/>
<path fill-rule="evenodd" clip-rule="evenodd" d="M15.3686 17.4578C15.3652 17.5114 15.3461 17.5628 15.3138 17.6057C15.2815 17.6486 15.2373 17.6812 15.1868 17.6993C15.1362 17.7175 15.0815 17.7205 15.0292 17.7079C14.977 17.6953 14.9296 17.6678 14.8928 17.6286C14.856 17.5895 14.8315 17.5404 14.8222 17.4875C14.8129 17.4346 14.8193 17.3801 14.8406 17.3308C14.8619 17.2815 14.8971 17.2395 14.942 17.2099C14.9868 17.1803 15.0393 17.1645 15.0931 17.1644C15.1312 17.163 15.1692 17.1697 15.2045 17.1842C15.2398 17.1986 15.2715 17.2205 15.2977 17.2483C15.3238 17.2761 15.3436 17.3092 15.3559 17.3453C15.3681 17.3815 15.3725 17.4198 15.3686 17.4578ZM15.5197 17.4578C15.5197 17.3399 15.4729 17.2268 15.3896 17.1435C15.3062 17.0601 15.1932 17.0133 15.0753 17.0133C14.9574 17.0133 14.8444 17.0601 14.761 17.1435C14.6777 17.2268 14.6308 17.3399 14.6308 17.4578C14.6251 17.5148 14.6322 17.5724 14.6518 17.6264C14.6713 17.6803 14.7027 17.7291 14.7437 17.7692C14.7847 17.8094 14.8342 17.8397 14.8885 17.8581C14.9428 17.8765 15.0006 17.8825 15.0575 17.8755C15.1141 17.8808 15.1712 17.8738 15.2247 17.8548C15.2783 17.8358 15.3271 17.8054 15.3677 17.7656C15.4083 17.7258 15.4398 17.6777 15.4599 17.6245C15.48 17.5713 15.4883 17.5144 15.4842 17.4578" fill="#221F20"/>
<path d="M15.6177 17.0578V17.8489H15.7688V17.4222C15.7633 17.3863 15.766 17.3496 15.7767 17.3149C15.7874 17.2802 15.8059 17.2483 15.8307 17.2218C15.8556 17.1953 15.8861 17.1747 15.92 17.1617C15.9539 17.1487 15.9904 17.1435 16.0266 17.1466C16.1332 17.1466 16.2132 17.2 16.2132 17.2978V17.8489H16.3643V17.2355C16.3603 17.194 16.3436 17.1547 16.3166 17.123C16.2896 17.0912 16.2535 17.0684 16.2132 17.0578H16.0621C16.0008 17.0427 15.9368 17.0427 15.8755 17.0578C15.8341 17.0797 15.7978 17.1099 15.7688 17.1466V17.04H15.6266" fill="#221F20"/>
<path d="M16.444 17.6088C16.4416 17.6411 16.4457 17.6735 16.4562 17.7041C16.4666 17.7347 16.4831 17.7629 16.5047 17.787C16.5262 17.8111 16.5525 17.8305 16.5818 17.8442C16.6111 17.8579 16.6428 17.8655 16.6751 17.8666H16.8885C16.944 17.8799 17.0018 17.8799 17.0574 17.8666C17.0996 17.8533 17.1375 17.829 17.1671 17.7962C17.1968 17.7634 17.2172 17.7233 17.2263 17.68C17.2334 17.6401 17.2267 17.599 17.2073 17.5634C17.1879 17.5278 17.157 17.5 17.1196 17.4844C17.053 17.4505 16.9806 17.4294 16.9063 17.4222L16.684 17.3689C16.6762 17.3614 16.67 17.3524 16.6658 17.3425C16.6615 17.3326 16.6594 17.3219 16.6594 17.3111C16.6594 17.3003 16.6615 17.2896 16.6658 17.2797C16.67 17.2697 16.6762 17.2608 16.684 17.2533C16.7065 17.2261 16.7352 17.2046 16.7677 17.1907C16.8002 17.1768 16.8355 17.1708 16.8707 17.1733C17.084 17.1733 17.084 17.2533 17.084 17.2977H17.2351C17.2351 17.2088 17.2351 17.0577 16.8885 17.0577C16.5418 17.0577 16.5329 17.1377 16.5329 17.2977C16.5299 17.3408 16.5427 17.3835 16.5689 17.4179C16.595 17.4522 16.6328 17.4759 16.6751 17.4844C16.7875 17.5234 16.9037 17.5502 17.0218 17.5644C17.1018 17.5644 17.1285 17.6266 17.1285 17.6711C17.1261 17.691 17.1193 17.7101 17.1085 17.7271C17.0978 17.744 17.0833 17.7583 17.0663 17.7688L16.8885 17.7777H16.7551C16.6485 17.7777 16.5951 17.7244 16.5951 17.6177H16.444" fill="#221F20"/>
<path d="M17.4754 16.8889H17.3243V17.0933H17.1909V17.2177H17.3243V17.7777C17.3305 17.8083 17.3472 17.8357 17.3716 17.8552C17.396 17.8747 17.4264 17.885 17.4576 17.8844H17.6265V17.7777C17.5376 17.7777 17.4754 17.7777 17.4754 17.7333V17.1911H17.6265V17.0755H17.4754V16.8889Z" fill="#221F20"/>
<path d="M17.6797 17.8489H17.8308V17.4311C17.8236 17.3786 17.8347 17.3252 17.8622 17.2799C17.8897 17.2346 17.932 17.2001 17.9819 17.1822H18.133V17.0489H18.0441C18.0001 17.0582 17.9585 17.0763 17.9218 17.1023C17.8851 17.1283 17.8541 17.1616 17.8308 17.2V17.0756H17.6797V17.8667" fill="#221F20"/>
<path d="M18.9332 17.8488V17.0577H18.7821V17.4844C18.7902 17.5442 18.7755 17.6048 18.7409 17.6542C18.7063 17.7036 18.6543 17.7382 18.5954 17.7511C18.5604 17.7597 18.5238 17.7597 18.4887 17.7511H18.4087C18.3829 17.7411 18.3614 17.7221 18.3484 17.6976C18.3353 17.6732 18.3315 17.6448 18.3376 17.6177V17.0666H18.1865V17.6977C18.1972 17.7366 18.2162 17.7727 18.2423 17.8034C18.2684 17.8341 18.301 17.8587 18.3376 17.8755H18.4887C18.5501 17.8906 18.6141 17.8906 18.6754 17.8755C18.7167 17.8536 18.7531 17.8233 18.7821 17.7866V17.8755H18.9243" fill="#221F20"/>
<path d="M19.6618 17.5733C19.6587 17.6101 19.643 17.6446 19.6174 17.6711C19.6174 17.7155 19.5196 17.7511 19.4396 17.76C19.3931 17.7639 19.3466 17.7542 19.3055 17.7321C19.2645 17.7101 19.2308 17.6765 19.2085 17.6355C19.1848 17.5664 19.1848 17.4913 19.2085 17.4222C19.2083 17.3507 19.2335 17.2814 19.2796 17.2266C19.3033 17.2009 19.3322 17.1805 19.3644 17.1667C19.3966 17.153 19.4313 17.1461 19.4663 17.1466C19.507 17.1353 19.55 17.1353 19.5907 17.1466C19.6199 17.1581 19.6454 17.1775 19.6643 17.2026C19.6831 17.2277 19.6946 17.2576 19.6974 17.2889H19.8396C19.8393 17.2466 19.8286 17.205 19.8085 17.1678C19.7883 17.1305 19.7593 17.0989 19.724 17.0755C19.6461 17.0216 19.5518 16.9965 19.4574 17.0044C19.3528 17.0047 19.2519 17.0425 19.1729 17.1111C19.1309 17.1494 19.0973 17.1961 19.0744 17.2481C19.0514 17.3002 19.0396 17.3564 19.0396 17.4133C19.0335 17.5064 19.0551 17.5992 19.1018 17.68C19.139 17.7325 19.1883 17.7753 19.2456 17.8047C19.3028 17.8341 19.3663 17.8493 19.4307 17.8489C19.4969 17.8538 19.5633 17.8436 19.6249 17.8189C19.6866 17.7943 19.7417 17.7559 19.7863 17.7066C19.8198 17.6599 19.8384 17.6041 19.8396 17.5466H19.6974" fill="#221F20"/>
<path d="M20.1155 16.8889H19.9644V17.0933H19.8311V17.2177H19.9644V17.7777C19.9644 17.7777 19.9644 17.8755 20.0977 17.8844H20.2577V17.7777C20.1777 17.7777 20.1155 17.7777 20.1155 17.7333V17.1911H20.2577V17.0755H20.1155V16.8889Z" fill="#221F20"/>
<path fill-rule="evenodd" clip-rule="evenodd" d="M20.3467 16.8889H20.4978V16.7289H20.3467V16.8889ZM20.3467 17.8311H20.4978V17.04H20.3467V17.8311Z" fill="#221F20"/>
<path fill-rule="evenodd" clip-rule="evenodd" d="M21.2709 17.4578C21.2745 17.4954 21.2704 17.5334 21.2588 17.5693C21.2472 17.6053 21.2282 17.6385 21.2032 17.6668C21.1782 17.6952 21.1476 17.7181 21.1134 17.7341C21.0792 17.7501 21.042 17.7589 21.0042 17.76C20.934 17.7478 20.8704 17.7113 20.8246 17.6568C20.7787 17.6023 20.7536 17.5334 20.7536 17.4622C20.7536 17.391 20.7787 17.3221 20.8246 17.2676C20.8704 17.2131 20.934 17.1766 21.0042 17.1644C21.0416 17.1642 21.0786 17.1719 21.1128 17.1869C21.147 17.202 21.1777 17.224 21.2028 17.2517C21.228 17.2794 21.247 17.312 21.2588 17.3475C21.2705 17.383 21.2746 17.4206 21.2709 17.4578ZM21.4309 17.4578C21.4309 17.3399 21.384 17.2268 21.3007 17.1435C21.2173 17.0601 21.1043 17.0133 20.9864 17.0133C20.8685 17.0133 20.7555 17.0601 20.6721 17.1435C20.5888 17.2268 20.542 17.3399 20.542 17.4578C20.5362 17.5148 20.5434 17.5724 20.5629 17.6264C20.5824 17.6803 20.6139 17.7291 20.6548 17.7692C20.6958 17.8094 20.7453 17.8397 20.7996 17.8581C20.8539 17.8765 20.9117 17.8825 20.9686 17.8755C21.0252 17.8808 21.0823 17.8738 21.1359 17.8548C21.1894 17.8358 21.2382 17.8054 21.2789 17.7656C21.3195 17.7258 21.3509 17.6777 21.371 17.6245C21.3911 17.5713 21.3994 17.5144 21.3953 17.4578" fill="#221F20"/>
<path d="M21.5288 17.0578V17.8489H21.671V17.4222C21.667 17.3858 21.671 17.349 21.6829 17.3143C21.6947 17.2796 21.7141 17.248 21.7396 17.2217C21.765 17.1954 21.796 17.175 21.8302 17.162C21.8645 17.1491 21.9012 17.1438 21.9377 17.1466C22.0444 17.1466 22.1244 17.2 22.1244 17.2978V17.8489H22.2755V17.2355C22.2703 17.1944 22.2532 17.1557 22.2264 17.1242C22.1995 17.0926 22.1641 17.0695 22.1244 17.0578H21.9733C21.9119 17.0427 21.8479 17.0427 21.7866 17.0578C21.7453 17.0797 21.7089 17.1099 21.6799 17.1466V17.04H21.5377" fill="#221F20"/>
<path d="M6.92447 15.4844L5.54669 14.1066C5.45273 14.0064 5.33525 13.9311 5.20488 13.8876C5.07451 13.8442 4.93536 13.8339 4.80002 13.8578C4.3744 13.9303 3.97805 14.122 3.65691 14.4106C3.33577 14.6992 3.10299 15.0729 2.98555 15.4883C2.86811 15.9038 2.87081 16.3441 2.99335 16.7581C3.1159 17.1721 3.35326 17.5429 3.67792 17.8275C4.00259 18.1121 4.40126 18.2989 4.82775 18.3662C5.25423 18.4335 5.69106 18.3786 6.08759 18.2078C6.48413 18.037 6.82415 17.7573 7.06823 17.4012C7.31232 17.045 7.45047 16.627 7.46669 16.1955C7.46669 16.1955 7.46669 16.1333 7.46669 16.1155C7.43155 16.1078 7.39516 16.1078 7.36002 16.1155H6.31114L5.20002 17.2178H5.1378L4.05336 16.1333V16.0711L5.1378 14.9866H5.20002L6.22225 16C6.24954 16.0261 6.28328 16.0445 6.32002 16.0533H6.42669L6.95114 15.5289" fill="#2D64AA"/>
<path fill-rule="evenodd" clip-rule="evenodd" d="M7.43108 14.7733L6.69331 14.0355C6.46251 13.8094 6.16533 13.6633 5.84538 13.6185C5.52542 13.5737 5.19953 13.6326 4.91553 13.7866C4.91553 13.7866 5.31553 13.5733 5.80442 14.1244L7.03108 15.3511L7.38664 14.9955C7.41224 14.9644 7.43047 14.928 7.43997 14.8888C7.45219 14.8513 7.45219 14.8108 7.43997 14.7733" fill="#2D64AA"/>
<path fill-rule="evenodd" clip-rule="evenodd" d="M10.3909 15.8756H11.0842V14.6845H10.3909V15.8756ZM11.5554 14.6756V16.08H10.3909V16.3378H9.93758V16.08H8.7998V14.6756C8.79978 14.6491 8.80511 14.6229 8.81549 14.5986C8.82587 14.5743 8.84108 14.5523 8.86019 14.534C8.8793 14.5158 8.90192 14.5016 8.92668 14.4923C8.95144 14.483 8.97783 14.4788 9.00425 14.48H9.89314V14.2222H10.3376V14.4445H11.2887C11.3225 14.4297 11.3598 14.4248 11.3963 14.4304C11.4328 14.436 11.467 14.4518 11.4949 14.476C11.5228 14.5001 11.5432 14.5317 11.5539 14.567C11.5647 14.6023 11.5651 14.64 11.5554 14.6756ZM9.24425 15.8756H9.93758V14.6845H9.24425V15.8756Z" fill="#221F20"/>
<path d="M10.3909 15.8756H11.0842V14.6845H10.3909V15.8756ZM11.5554 14.6756V16.08H10.3909V16.3378H9.93758V16.08H8.7998V14.6756C8.79978 14.6491 8.80511 14.6229 8.81549 14.5986C8.82587 14.5743 8.84108 14.5523 8.86019 14.534C8.8793 14.5158 8.90192 14.5016 8.92668 14.4923C8.95144 14.483 8.97783 14.4788 9.00425 14.48H9.89314V14.2222H10.3376V14.4445H11.2887C11.3225 14.4297 11.3598 14.4248 11.3963 14.4304C11.4328 14.436 11.467 14.4518 11.4949 14.476C11.5228 14.5001 11.5432 14.5317 11.5539 14.567C11.5647 14.6023 11.5651 14.64 11.5554 14.6756V14.6756ZM9.24425 15.8756H9.93758V14.6845H9.24425V15.8756Z" stroke="#221F20" stroke-width="0.01" stroke-miterlimit="10"/>
<path d="M14.4532 15.7778H13.8665V15.2889H14.4176V15.1111H13.8665V14.8445H14.4532V14.6489H12.8265V14.8445H13.4043V15.1111H12.8621V15.3156H13.4043V15.8045H12.8265V16H14.4532V15.7778ZM14.7998 14.2222H12.4443C12.4178 14.2222 12.3917 14.2275 12.3673 14.2379C12.343 14.2483 12.3211 14.2635 12.3028 14.2826C12.2845 14.3017 12.2703 14.3243 12.261 14.3491C12.2517 14.3739 12.2475 14.4003 12.2487 14.4267V16.32H14.9687V14.4356C14.9738 14.385 14.959 14.3345 14.9275 14.2947C14.896 14.2549 14.8502 14.2289 14.7998 14.2222ZM12.7376 14.4178H14.5154V16.1245H12.7376V14.4178ZM14.2221 15.3689H13.911L14.0265 15.5733C14.0481 15.62 14.0819 15.6599 14.1243 15.6889C14.1711 15.6996 14.2197 15.6996 14.2665 15.6889H14.4087V15.5022H14.311L14.2221 15.3511" fill="#221F20"/>
<path d="M14.4532 15.7778H13.8665V15.2889H14.4176V15.1111H13.8665V14.8445H14.4532V14.6489H12.8265V14.8445H13.4043V15.1111H12.8621V15.3156H13.4043V15.8045H12.8265V16H14.4532V15.7778ZM14.7998 14.2222H12.4443C12.4178 14.2222 12.3917 14.2275 12.3673 14.2379C12.343 14.2483 12.3211 14.2635 12.3028 14.2826C12.2845 14.3017 12.2703 14.3243 12.261 14.3491C12.2517 14.3739 12.2475 14.4003 12.2487 14.4267V16.32H14.9687V14.4356C14.9738 14.385 14.959 14.3345 14.9275 14.2947C14.896 14.2549 14.8502 14.2289 14.7998 14.2222V14.2222ZM12.7376 14.4178H14.5154V16.1245H12.7376V14.4178ZM14.2221 15.3689H13.911L14.0265 15.5733C14.0481 15.62 14.0819 15.6599 14.1243 15.6889C14.1711 15.6996 14.2197 15.6996 14.2665 15.6889H14.4087V15.5022H14.311L14.2221 15.3689Z" stroke="#221F20" stroke-width="0.01" stroke-miterlimit="10"/>
<path d="M18.5508 14.6933H18.3908V14.5422C18.3908 14.488 18.3693 14.436 18.3309 14.3977C18.2926 14.3593 18.2406 14.3378 18.1864 14.3378H17.6264V14.2222H17.1997V14.3467H16.6397V14.56H17.1997V14.7111H16.5686V14.9245H17.1997V15.0667H16.6397V15.28H17.1997V15.4311H16.5953V15.6445H17.1997V15.7867H16.5419V16H17.1997V16.1422H16.7641C16.6007 16.1411 16.4408 16.095 16.3019 16.0089C16.3938 15.8822 16.4436 15.7298 16.4441 15.5733V15.0045H16.1864C16.2971 14.9273 16.3863 14.8231 16.4455 14.7017C16.5046 14.5804 16.5317 14.4459 16.5241 14.3111H15.6353V14.5333H16.133C16.1126 14.6503 16.0577 14.7585 15.9753 14.844C15.893 14.9296 15.7869 14.9885 15.6708 15.0133V15.2178H16.1064V15.5289C16.1049 15.6195 16.0805 15.7082 16.0353 15.7867C15.9692 15.6871 15.9238 15.5753 15.9019 15.4578H15.6619C15.6804 15.647 15.7547 15.8264 15.8753 15.9733C15.8032 16.0211 15.721 16.0515 15.6353 16.0622V16.3467C15.8054 16.3454 15.9706 16.2893 16.1064 16.1867C16.2723 16.3048 16.4716 16.367 16.6753 16.3645H18.4975V16.1422H17.6086V16H18.3819V15.7778H17.6086V15.6356H18.3819V15.4222H17.6086V15.2711H18.3819V14.9156H18.5419L18.5508 14.6933ZM17.6619 14.9156H17.9819V15.0578H17.6619V14.9156ZM17.6619 14.5511H17.9819V14.7022H17.6619V14.5511Z" fill="#221F20"/>
<path d="M18.5508 14.6933H18.3908V14.5422C18.3908 14.488 18.3693 14.436 18.3309 14.3977C18.2926 14.3593 18.2406 14.3378 18.1864 14.3378H17.6264V14.2222H17.1997V14.3467H16.6397V14.56H17.1997V14.7111H16.5686V14.9245H17.1997V15.0667H16.6397V15.28H17.1997V15.4311H16.5953V15.6445H17.1997V15.7867H16.5419V16H17.1997V16.1422H16.7641C16.6007 16.1411 16.4408 16.095 16.3019 16.0089C16.3938 15.8822 16.4436 15.7298 16.4441 15.5733V15.0045H16.1864C16.2971 14.9273 16.3863 14.8231 16.4455 14.7017C16.5046 14.5804 16.5317 14.4459 16.5241 14.3111H15.6353V14.5333H16.133C16.1126 14.6503 16.0577 14.7585 15.9753 14.844C15.893 14.9296 15.7869 14.9885 15.6708 15.0133V15.2178H16.1064V15.5289C16.1049 15.6195 16.0805 15.7082 16.0353 15.7867C15.9692 15.6871 15.9238 15.5753 15.9019 15.4578H15.6619C15.6804 15.647 15.7547 15.8264 15.8753 15.9733C15.8032 16.0211 15.721 16.0515 15.6353 16.0622V16.3467C15.8054 16.3454 15.9706 16.2893 16.1064 16.1867C16.2723 16.3048 16.4716 16.367 16.6753 16.3645H18.4975V16.1422H17.6086V16H18.3819V15.7778H17.6086V15.6356H18.3819V15.4222H17.6086V15.2711H18.3819V14.9156H18.5419L18.5508 14.6933ZM17.6619 14.9156H17.9819V15.0578H17.6619V14.9156ZM17.6619 14.5511H17.9819V14.7022H17.6619V14.5511Z" stroke="#221F20" stroke-width="0.01" stroke-miterlimit="10"/>
<path d="M29.04 14.2755H27.3066V14.4888H29.04V14.2755Z" fill="#221F20" stroke="#221F20" stroke-width="0.01" stroke-miterlimit="10"/>
<path d="M26.9421 15.1644V16.3644H26.5243V15.4756C26.4451 15.5241 26.3618 15.5657 26.2754 15.6L26.0977 15.3244C26.4693 15.1388 26.7783 14.8483 26.9865 14.4889L27.2443 14.7111C27.1613 14.8733 27.0599 15.0254 26.9421 15.1644Z" fill="#221F20" stroke="#221F20" stroke-width="0.01" stroke-miterlimit="10"/>
<path d="M28.4442 16.3644C28.5432 16.3644 28.6381 16.3251 28.7081 16.2551C28.7782 16.1851 28.8175 16.0901 28.8175 15.9911V15.1555H29.1375V14.9422H27.1997V15.1555H28.3197V16.0444C28.3197 16.0774 28.3066 16.1091 28.2833 16.1324C28.2599 16.1558 28.2283 16.1689 28.1953 16.1689H27.6975V16.3822L28.4442 16.3644Z" fill="#221F20" stroke="#221F20" stroke-width="0.01" stroke-miterlimit="10"/>
<path d="M26.9155 14.3378C26.7492 14.6665 26.4894 14.9386 26.1688 15.12L26.0088 14.8356C26.2849 14.6555 26.5135 14.4116 26.6755 14.1245L26.9155 14.3378Z" fill="#221F20" stroke="#221F20" stroke-width="0.01" stroke-miterlimit="10"/>
<path fill-rule="evenodd" clip-rule="evenodd" d="M20.1241 15.5556C20.0101 15.6678 19.8884 15.7717 19.7597 15.8667V14.7644H18.9863V14.9778H19.3241V16.0622L19.1108 16.1244L19.3241 16.3911C19.4774 16.3494 19.6263 16.2929 19.7685 16.2222C19.9003 16.1555 20.0229 16.0718 20.133 15.9733L20.1241 15.5556ZM20.7641 14.6667V14.4089H21.333V14.6756C21.333 14.7733 21.333 15.0222 21.7241 15.0222H21.9908V14.8178H21.9552C21.7863 14.8178 21.7952 14.7556 21.7952 14.7111V14.4C21.7952 14.3458 21.7737 14.2938 21.7353 14.2554C21.697 14.2171 21.645 14.1956 21.5908 14.1956H20.3286V14.7111C20.3286 14.7111 20.3286 14.8267 20.1774 14.8178H20.1063V15.0222H20.3552C20.8085 15.1111 20.7552 14.8 20.7641 14.7022V14.6667ZM21.493 15.8667C21.6905 15.7299 21.8671 15.5652 22.0174 15.3778V15.1111H20.0886V15.3511H21.5374C21.4035 15.4838 21.2543 15.6001 21.093 15.6978C20.9367 15.6197 20.788 15.5275 20.6485 15.4222H20.133C20.2989 15.5998 20.4872 15.7552 20.693 15.8844C20.4927 15.9545 20.2829 15.9934 20.0708 16V16.3111C20.4263 16.3105 20.7777 16.2347 21.1019 16.0889C21.4274 16.2309 21.7779 16.3064 22.133 16.3111V16C21.9164 15.9947 21.7013 15.9619 21.493 15.9022V15.8667ZM19.1374 14.48H20.0263V14.2489H19.1374V14.48Z" fill="#221F20"/>
<path d="M20.1241 15.5556C20.0101 15.6678 19.8884 15.7717 19.7597 15.8667V14.7644H18.9863V14.9778H19.3241V16.0622L19.1108 16.1244L19.3241 16.3911C19.4774 16.3494 19.6263 16.2929 19.7685 16.2222C19.9003 16.1555 20.0229 16.0718 20.133 15.9733L20.1241 15.5556ZM20.7641 14.6667V14.4089H21.333V14.6756C21.333 14.7733 21.333 15.0222 21.7241 15.0222H21.9908V14.8178H21.9552C21.7863 14.8178 21.7952 14.7556 21.7952 14.7111V14.4C21.7952 14.3458 21.7737 14.2938 21.7353 14.2554C21.697 14.2171 21.645 14.1956 21.5908 14.1956H20.3286V14.7111C20.3286 14.7111 20.3286 14.8267 20.1774 14.8178H20.1063V15.0222H20.3552C20.8085 15.1111 20.7552 14.8 20.7641 14.7022V14.6667ZM21.493 15.8667C21.6905 15.7299 21.8671 15.5652 22.0174 15.3778V15.1111H20.0886V15.3511H21.5374C21.4035 15.4838 21.2543 15.6001 21.093 15.6978C20.9367 15.6197 20.788 15.5275 20.6485 15.4222H20.133C20.2989 15.5998 20.4872 15.7552 20.693 15.8844C20.4927 15.9545 20.2829 15.9934 20.0708 16V16.3111C20.4263 16.3105 20.7777 16.2347 21.1019 16.0889C21.4274 16.2309 21.7779 16.3064 22.133 16.3111V16C21.9164 15.9947 21.7013 15.9619 21.493 15.9022V15.8667ZM19.1374 14.48H20.0263V14.2489H19.1374V14.48Z" stroke="#221F20" stroke-width="0.01" stroke-miterlimit="10"/>
<path fill-rule="evenodd" clip-rule="evenodd" d="M24.7378 15.9378C24.6328 16.0013 24.5137 16.0379 24.3911 16.0444V15.28H25.5022V14.3911C25.5022 14.3369 25.4807 14.2849 25.4424 14.2465C25.404 14.2082 25.352 14.1866 25.2978 14.1866H24V16.0266H23.9111V16.32H24.1156C24.3285 16.3221 24.5398 16.2829 24.7378 16.2044V15.9378ZM25.2356 15.9378C25.3894 15.7931 25.5106 15.6174 25.5911 15.4222H25.28C25.2151 15.5468 25.1277 15.6583 25.0222 15.7511L24.9689 15.6889C24.9117 15.6114 24.8695 15.524 24.8445 15.4311H24.5245C24.5624 15.5517 24.613 15.6679 24.6756 15.7778C24.7642 15.9418 24.8914 16.0818 25.0463 16.1856C25.2012 16.2893 25.379 16.3538 25.5645 16.3733V16.0711C25.4442 16.0537 25.3306 16.0046 25.2356 15.9289V15.9378ZM24.3911 15.0489H25.0934V14.8355H24.3911V15.0489ZM24.3911 14.6222H25.0934V14.4089H24.3911V14.6222Z" fill="#221F20"/>
<path d="M24.7378 15.9378C24.6328 16.0013 24.5137 16.0379 24.3911 16.0444V15.28H25.5022V14.3911C25.5022 14.3369 25.4807 14.2849 25.4424 14.2465C25.404 14.2082 25.352 14.1866 25.2978 14.1866H24V16.0266H23.9111V16.32H24.1156C24.3285 16.3221 24.5398 16.2829 24.7378 16.2044V15.9378ZM25.2356 15.9378C25.3894 15.7931 25.5106 15.6174 25.5911 15.4222H25.28C25.2151 15.5468 25.1277 15.6583 25.0222 15.7511L24.9689 15.6889C24.9117 15.6114 24.8695 15.524 24.8445 15.4311H24.5245C24.5624 15.5517 24.613 15.6679 24.6756 15.7778C24.7642 15.9418 24.8914 16.0818 25.0463 16.1856C25.2012 16.2893 25.379 16.3538 25.5645 16.3733V16.0711C25.4442 16.0537 25.3306 16.0046 25.2356 15.9289V15.9378ZM24.3911 15.0489H25.0934V14.8355H24.3911V15.0489ZM24.3911 14.6222H25.0934V14.4089H24.3911V14.6222Z" stroke="#221F20" stroke-width="0.01" stroke-miterlimit="10"/>
<path d="M23.3685 16V15.5022H23.8574V15.2889H23.3685V15.0489H23.8218V14.8445H22.9951C23.0562 14.7804 23.1126 14.7121 23.164 14.64H23.8574V14.4445H23.2974C23.3335 14.3781 23.3662 14.3098 23.3951 14.24L23.1107 14.1245C22.9976 14.4309 22.7887 14.6927 22.5151 14.8711L22.7196 15.1111L22.8174 15.0578H23.0485V15.2978H22.7374V15.5111H23.0485V16.0978C22.9804 16.1027 22.9121 16.1027 22.844 16.0978L23.0485 16.3556C23.3558 16.3296 23.649 16.2154 23.8929 16.0267V15.68C23.737 15.8149 23.5598 15.923 23.3685 16Z" fill="#221F20" stroke="#221F20" stroke-width="0.01" stroke-miterlimit="10"/>
</g>
<defs>
<clipPath id="clip0_2707_315278">
<rect width="32" height="32" fill="white"/>
</clipPath>
</defs>
</svg>
