<svg width="32" height="32" viewBox="0 0 32 32" fill="none" xmlns="http://www.w3.org/2000/svg">
<g clip-path="url(#clip0_2707_315218)">
<path d="M15.9998 31.9822C24.8265 31.9822 31.982 24.8267 31.982 16C31.982 7.17325 24.8265 0.0177612 15.9998 0.0177612C7.17306 0.0177612 0.0175781 7.17325 0.0175781 16C0.0175781 24.8267 7.17306 31.9822 15.9998 31.9822Z" fill="white"/>
<path fill-rule="evenodd" clip-rule="evenodd" d="M22.4531 5.0933C22.4531 5.0933 20.4442 4.57774 16.1242 6.87108C11.8042 9.16441 6.55975 12.6311 6.85308 16.0444C7.30642 21.1733 16.2664 25.5466 16.2664 25.5466C16.2664 25.5466 23.502 30.7822 26.1864 23.4755C27.0111 20.9665 27.3637 18.3264 27.2264 15.6889C27.3061 13.1697 26.9636 10.6549 26.2131 8.24885C26.2131 8.24885 25.1642 5.38663 22.4531 5.0933Z" fill="url(#paint0_linear_2707_315218)"/>
<path fill-rule="evenodd" clip-rule="evenodd" d="M9.35958 5.0933C9.35958 5.0933 11.3774 4.57774 15.6974 6.87108C20.0174 9.16441 25.2618 12.6577 24.9596 16.0711C24.5062 21.2 15.5462 25.5733 15.5462 25.5733C15.5462 25.5733 8.31958 30.7822 5.62624 23.4755C4.80835 20.9651 4.45884 18.3257 4.59513 15.6889C4.51571 13.1703 4.85515 10.6561 5.59958 8.24885C5.59958 8.24885 6.65735 5.38663 9.35958 5.0933Z" fill="url(#paint1_linear_2707_315218)"/>
<path d="M13.4221 14.9777C13.6655 15.1113 13.8473 15.3345 13.9288 15.6C13.9638 15.7152 13.9818 15.835 13.9821 15.9555C13.9821 16.5066 13.9821 17.0577 13.9821 17.6088V17.7777C13.9785 17.8481 13.9523 17.9155 13.9075 17.9699C13.8627 18.0243 13.8016 18.0629 13.7332 18.08C13.6566 18.102 13.5744 18.0929 13.5044 18.0546C13.4345 18.0163 13.3826 17.9519 13.3599 17.8755C13.3599 17.8222 13.3599 17.7688 13.3599 17.7155V16C13.3599 16 13.3599 16 13.3599 15.9466C13.3576 15.8389 13.3138 15.7362 13.2376 15.66C13.1614 15.5838 13.0587 15.54 12.951 15.5377H11.7865C11.7328 15.5377 11.6797 15.5483 11.6301 15.5689C11.5805 15.5894 11.5354 15.6195 11.4974 15.6575C11.4594 15.6955 11.4293 15.7405 11.4088 15.7901C11.3882 15.8398 11.3777 15.8929 11.3777 15.9466V17.7777C11.3805 17.8469 11.3602 17.9151 11.32 17.9714C11.2797 18.0278 11.2218 18.0691 11.1554 18.0888C11.0985 18.1163 11.0339 18.1233 10.9724 18.1087C10.9109 18.0941 10.8562 18.0589 10.8177 18.0088C10.7621 17.9308 10.7311 17.8379 10.7288 17.7422C10.7288 17.1555 10.7288 16.5688 10.7288 15.9644C10.7265 15.8567 10.6827 15.754 10.6065 15.6778C10.5303 15.6016 10.4276 15.5578 10.3199 15.5555H9.19988C9.09214 15.5578 8.98945 15.6016 8.91326 15.6778C8.83706 15.754 8.79326 15.8567 8.79099 15.9644V17.7777C8.79601 17.8368 8.78243 17.896 8.75214 17.947C8.72186 17.998 8.67639 18.0383 8.6221 18.0622C8.57411 18.0921 8.51867 18.108 8.4621 18.108C8.40553 18.108 8.35009 18.0921 8.3021 18.0622C8.25664 18.0309 8.22033 17.988 8.19689 17.938C8.17346 17.888 8.16375 17.8327 8.16876 17.7777V16.0888C8.17038 15.9426 8.18525 15.7968 8.21321 15.6533C8.26782 15.427 8.39801 15.2262 8.58227 15.0839C8.76653 14.9417 8.99382 14.8666 9.22654 14.8711H10.1777C10.3402 14.8558 10.5042 14.8766 10.6578 14.9319C10.8114 14.9872 10.951 15.0757 11.0665 15.1911C11.1892 15.0727 11.3364 14.9826 11.4976 14.9273C11.6589 14.872 11.8304 14.8528 11.9999 14.8711H12.7821C13.0005 14.8628 13.2182 14.8991 13.4221 14.9777Z" fill="white"/>
<path d="M18.2664 14.8622C18.2664 15.1378 18.2664 15.4044 18.2664 15.6711V17.0667C18.2664 17.3362 18.16 17.5949 17.9702 17.7864C17.7804 17.9778 17.5227 18.0865 17.2531 18.0889H15.4753C15.3593 18.0839 15.2458 18.0535 15.1429 17.9997C15.04 17.9459 14.9501 17.8702 14.8798 17.7778C14.7892 17.6559 14.7117 17.5248 14.6487 17.3867C14.6487 16.8444 14.6042 16.3111 14.6487 15.7778C14.6711 15.531 14.7864 15.3021 14.9712 15.1371C15.156 14.9721 15.3965 14.8834 15.6442 14.8889H17.7242V13.6533C17.7038 13.6001 17.6979 13.5423 17.7073 13.4861C17.7167 13.4298 17.7409 13.3771 17.7775 13.3333C17.8203 13.3065 17.8693 13.2912 17.9198 13.2889C17.9606 13.2889 18.0011 13.2969 18.0388 13.3126C18.0766 13.3282 18.1109 13.3511 18.1398 13.38C18.1686 13.4089 18.1916 13.4432 18.2072 13.4809C18.2228 13.5187 18.2309 13.5591 18.2309 13.6V14.7467C18.2387 14.7863 18.2506 14.825 18.2664 14.8622ZM17.6353 15.4844H15.6442C15.5803 15.4756 15.5152 15.4817 15.454 15.5022C15.3928 15.5228 15.3372 15.5572 15.2915 15.6029C15.2459 15.6485 15.2114 15.7041 15.1909 15.7653C15.1703 15.8265 15.1643 15.8916 15.1731 15.9555V16.96C15.1625 17.029 15.1683 17.0994 15.1901 17.1657C15.2118 17.232 15.2488 17.2923 15.2981 17.3416C15.3475 17.3909 15.4077 17.428 15.474 17.4497C15.5403 17.4714 15.6108 17.4772 15.6798 17.4667H17.1464C17.2024 17.4759 17.2594 17.4759 17.3153 17.4667C17.4057 17.4539 17.4885 17.4093 17.5488 17.3408C17.6092 17.2724 17.643 17.1846 17.6442 17.0933V15.5378C17.6455 15.5195 17.6425 15.5013 17.6353 15.4844Z" fill="white"/>
<path d="M19.3954 13.8133C19.486 13.8964 19.5446 14.0087 19.5608 14.1305C19.5771 14.2524 19.55 14.3761 19.4843 14.48C19.4421 14.5333 19.3843 14.5721 19.319 14.5912C19.2538 14.6103 19.1842 14.6087 19.1199 14.5867C19.0628 14.5638 19.0138 14.5247 18.979 14.474C18.9442 14.4234 18.9252 14.3636 18.9243 14.3022V14.1511C18.9332 13.8489 19.1199 13.7155 19.3954 13.8133Z" fill="white"/>
<path d="M22.9867 18.0889H21.2089C20.9432 18.0865 20.6891 17.98 20.5012 17.7921C20.3133 17.6042 20.2068 17.3501 20.2044 17.0844C20.2001 17.049 20.2001 17.0132 20.2044 16.9777V16.8889C20.235 16.7287 20.3033 16.5782 20.4038 16.4499C20.5043 16.3215 20.6341 16.2191 20.7822 16.1511L21.04 16.0622H21.3956H23.3778C23.3826 15.9823 23.3826 15.9021 23.3778 15.8222C23.3634 15.7349 23.3193 15.6553 23.2528 15.597C23.1864 15.5386 23.1017 15.5051 23.0133 15.5022H20.56C20.4681 15.4942 20.3795 15.4637 20.3022 15.4133C20.2576 15.3689 20.227 15.3123 20.2144 15.2507C20.2017 15.189 20.2076 15.125 20.2311 15.0666C20.2566 15.0116 20.2984 14.9659 20.351 14.9356C20.4035 14.9054 20.4641 14.8921 20.5245 14.8977H22.96C23.2273 14.8905 23.4866 14.9893 23.6814 15.1724C23.8762 15.3556 23.9907 15.6083 24 15.8755V16.7644C24 16.8977 24 17.04 24 17.1822C23.9736 17.432 23.8552 17.6632 23.668 17.8307C23.4807 17.9983 23.2379 18.0902 22.9867 18.0889ZM23.36 16.6666H21.1733C21.072 16.6756 20.9779 16.7229 20.9102 16.7989C20.8424 16.8749 20.8062 16.9738 20.8089 17.0755C20.8112 17.1824 20.8553 17.2841 20.9318 17.3589C21.0082 17.4337 21.1109 17.4755 21.2178 17.4755H22.9956C23.0952 17.4739 23.1908 17.436 23.2645 17.3689C23.3381 17.3018 23.3847 17.2101 23.3956 17.1111C23.3926 16.9623 23.3808 16.8139 23.36 16.6666Z" fill="white"/>
<path d="M19.5552 17.3422V17.7067C19.5552 17.9111 19.4841 18.0267 19.333 18.0711C19.2583 18.0921 19.1787 18.0868 19.1075 18.0561C19.0363 18.0253 18.9778 17.971 18.9419 17.9022C18.9419 17.8133 18.9419 17.7244 18.9419 17.6355V15.1733C18.9363 15.108 18.9549 15.0428 18.9943 14.9904C19.0336 14.9379 19.0909 14.9018 19.1552 14.8889C19.2243 14.865 19.2995 14.8661 19.3678 14.8921C19.436 14.9181 19.4929 14.9673 19.5286 15.0311C19.5568 15.0893 19.572 15.1531 19.573 15.2178V17.3422H19.5552Z" fill="white"/>
</g>
<defs>
<linearGradient id="paint0_linear_2707_315218" x1="32.1246" y1="18.2152" x2="15.3335" y2="17.8507" gradientUnits="userSpaceOnUse">
<stop stop-color="#DE2528"/>
<stop offset="1" stop-color="#A01D21"/>
</linearGradient>
<linearGradient id="paint1_linear_2707_315218" x1="7.67824" y1="4.15534" x2="14.8516" y2="18.9287" gradientUnits="userSpaceOnUse">
<stop stop-color="#DE2528"/>
<stop offset="1" stop-color="#A01D21"/>
</linearGradient>
<clipPath id="clip0_2707_315218">
<rect width="32" height="32" fill="white"/>
</clipPath>
</defs>
</svg>
