<svg width="32" height="32" viewBox="0 0 32 32" fill="none" xmlns="http://www.w3.org/2000/svg">
<g clip-path="url(#clip0_2707_314978)">
<path d="M15.9998 31.9822C24.8265 31.9822 31.982 24.8268 31.982 16C31.982 7.17328 24.8265 0.0177917 15.9998 0.0177917C7.17306 0.0177917 0.0175781 7.17328 0.0175781 16C0.0175781 24.8268 7.17306 31.9822 15.9998 31.9822Z" fill="white"/>
<path d="M27.9377 16V21.2C27.9601 21.4187 27.9601 21.6391 27.9377 21.8578C27.8517 22.2824 27.6599 22.6785 27.3803 23.0094C27.1006 23.3403 26.7421 23.5954 26.3377 23.7511C26.2044 23.8044 26.0622 23.8489 25.9289 23.9111C25.6177 24.0644 25.3581 24.3054 25.1822 24.6044C24.8968 25.0623 24.4867 25.4293 24 25.6622C23.5332 25.9086 23.0164 26.0454 22.4889 26.0622C21.36 26.1244 20.2222 26.0622 19.0844 26.0622C15.9644 26.0622 12.8622 26.0622 9.71553 26.0622C9.23616 26.0834 8.75795 25.9997 8.31426 25.817C7.87057 25.6343 7.47209 25.357 7.14664 25.0044C7.02141 24.8632 6.90841 24.7115 6.80886 24.5511C6.59076 24.1821 6.24668 23.9043 5.83997 23.7689C5.3977 23.6311 5.00001 23.3782 4.68763 23.0362C4.37524 22.6941 4.1594 22.2751 4.06219 21.8222C4.02224 21.5809 4.02224 21.3347 4.06219 21.0933C4.06659 21.049 4.06659 21.0043 4.06219 20.96V10.9689C4.06219 10.88 4.06219 10.7822 4.06219 10.6933C4.03226 10.1718 4.16959 9.65433 4.45417 9.21627C4.73876 8.7782 5.15574 8.44241 5.64442 8.25778C5.78664 8.18667 5.94664 8.14222 6.08886 8.08C6.4196 7.91755 6.69487 7.66084 6.87997 7.34222C7.10548 6.975 7.40845 6.66145 7.76772 6.42348C8.12698 6.1855 8.53388 6.02884 8.95997 5.96444C9.14428 5.92621 9.33177 5.90537 9.51997 5.90222H22.3466C22.9896 5.89018 23.6234 6.05631 24.1777 6.38222C24.5406 6.60345 24.8454 6.90821 25.0666 7.27111C25.2334 7.57392 25.4792 7.82582 25.7777 8C25.9028 8.07273 26.0336 8.13516 26.1689 8.18667C26.7129 8.3725 27.1873 8.71979 27.5289 9.18222C27.8442 9.58736 28.0049 10.0916 27.9822 10.6044C27.9822 10.7022 27.9822 10.8089 27.9822 10.9156L27.9377 16ZM27.76 16V10.8178C27.7733 10.667 27.7733 10.5153 27.76 10.3644C27.7284 10.0671 27.6384 9.77891 27.495 9.51651C27.3516 9.25411 27.1577 9.02268 26.9244 8.83556C26.6491 8.58779 26.3252 8.4001 25.9733 8.28444C25.7619 8.22661 25.563 8.13017 25.3866 8C25.2156 7.84833 25.0688 7.67149 24.9511 7.47556C24.8042 7.22786 24.6146 7.00816 24.3911 6.82667C23.7833 6.31987 23.0135 6.04854 22.2222 6.06222H9.39553C8.62367 6.11746 7.90056 6.45999 7.36886 7.02222C7.20502 7.21695 7.05361 7.4218 6.91553 7.63556C6.68434 7.95639 6.35278 8.19098 5.9733 8.30222L5.84886 8.35556C5.36139 8.53583 4.94377 8.86626 4.65621 9.2992C4.36865 9.73213 4.22601 10.2452 4.24886 10.7644C4.24886 10.8711 4.24886 10.9689 4.24886 11.0756V20.8978C4.25326 20.9421 4.25326 20.9868 4.24886 21.0311C4.18536 21.324 4.18536 21.6271 4.24886 21.92C4.38745 22.449 4.70068 22.9157 5.13775 23.2444C5.36144 23.4246 5.61385 23.5658 5.88442 23.6622C6.30475 23.7837 6.66555 24.0558 6.89775 24.4267L7.15553 24.8C7.33418 25.0189 7.5438 25.2105 7.77775 25.3689C8.38242 25.7542 9.08754 25.9522 9.80441 25.9378H18.1422C19.5289 25.9378 20.9244 25.9378 22.3111 25.9378C22.4355 25.9378 22.5511 25.9378 22.6666 25.9378C23.1304 25.894 23.5776 25.7426 23.9726 25.4957C24.3676 25.2488 24.6996 24.9132 24.9422 24.5156C25.094 24.2584 25.3119 24.0466 25.5733 23.9022C25.7333 23.8133 25.92 23.7511 26.0889 23.6711C26.4208 23.5318 26.7226 23.3295 26.9777 23.0756C27.1965 22.875 27.3722 22.6321 27.4945 22.3617C27.6167 22.0913 27.6828 21.7989 27.6889 21.5022V16H27.76Z" fill="black"/>
<path d="M27.3241 16V21.1556C27.3213 21.5205 27.2301 21.8794 27.0583 22.2014C26.8864 22.5234 26.6391 22.799 26.3374 23.0045C26.1152 23.1681 25.8695 23.297 25.6085 23.3867C25.2145 23.5231 24.881 23.7937 24.6663 24.1511C24.4292 24.5349 24.1055 24.8578 23.7211 25.0939C23.3368 25.3301 22.9025 25.473 22.453 25.5111C22.2021 25.5392 21.9499 25.554 21.6974 25.5556H10.0885C9.30763 25.5863 8.54248 25.3302 7.93742 24.8356C7.78995 24.7045 7.65322 24.5618 7.52853 24.4089C7.40408 24.2578 7.3063 24.0889 7.19075 23.9378C6.98605 23.6773 6.70708 23.4851 6.39075 23.3867C5.94581 23.237 5.54962 22.9698 5.24408 22.6133C5.0475 22.3986 4.89714 22.1458 4.80234 21.8706C4.70753 21.5953 4.67031 21.3036 4.69297 21.0133C4.69297 20.7822 4.69297 20.5422 4.69297 20.3111V11.28C4.69297 11.0933 4.69297 10.9156 4.69297 10.7378C4.70573 10.3627 4.81253 9.9968 5.00357 9.67374C5.19461 9.35069 5.46376 9.08081 5.7863 8.8889C5.97155 8.75852 6.1753 8.65665 6.39075 8.58668C6.79745 8.45127 7.14154 8.17348 7.35964 7.80445C7.5979 7.4186 7.92444 7.09489 8.31234 6.85998C8.70025 6.62507 9.13842 6.4857 9.59075 6.45334H10.0174H21.9285C22.4657 6.43933 22.9986 6.552 23.4841 6.78223C23.9491 6.99256 24.344 7.33192 24.6219 7.76001C24.7037 7.89382 24.799 8.01891 24.9063 8.13334C25.1253 8.35954 25.3972 8.52757 25.6974 8.62223C25.9021 8.69793 26.0963 8.7995 26.2752 8.92445C26.5396 9.09446 26.766 9.31721 26.9404 9.57875C27.1148 9.8403 27.2333 10.135 27.2885 10.4445C27.2971 10.545 27.2971 10.6461 27.2885 10.7467V16H27.3241ZM21.733 8.37334L21.5996 8.44445L21.2441 8.71112C20.8127 9.03737 20.427 9.42004 20.0974 9.8489C19.8307 10.1921 19.6859 10.6143 19.6859 11.0489C19.6859 11.4835 19.8307 11.9057 20.0974 12.2489C20.373 12.6489 20.693 13.04 20.9863 13.4222C21.2231 13.7159 21.4314 14.0314 21.6085 14.3645C21.803 14.7329 21.9295 15.1334 21.9819 15.5467C22.0307 15.8618 22.0307 16.1826 21.9819 16.4978C21.9819 16.6133 21.9374 16.72 21.9107 16.8445H21.9552L22.693 16.1778C22.8441 16.0445 23.0041 15.9111 23.1463 15.7689C23.4281 15.5067 23.6733 15.2077 23.8752 14.88C24.0683 14.5599 24.1806 14.1975 24.2023 13.8243C24.2239 13.451 24.1544 13.0781 23.9996 12.7378C23.7952 12.2394 23.5165 11.7749 23.173 11.36C22.9952 11.1467 22.7819 10.96 22.5952 10.7467C22.2717 10.4071 22.0393 9.99125 21.9196 9.53779C21.8485 9.21779 21.813 8.89779 21.7596 8.58668C21.745 8.5164 21.7361 8.44506 21.733 8.37334ZM19.4485 10.4L19.3419 10.4978L18.453 11.5378C18.2353 11.7756 18.0554 12.0454 17.9196 12.3378C17.7703 12.672 17.6932 13.034 17.6932 13.4C17.6932 13.7661 17.7703 14.128 17.9196 14.4622C18.1348 14.9304 18.3843 15.3821 18.6663 15.8133C18.8898 16.1544 19.0831 16.5143 19.2441 16.8889C19.4312 17.2909 19.537 17.7259 19.5552 18.1689C19.556 18.5088 19.5081 18.847 19.413 19.1733C19.413 19.1733 19.413 19.2267 19.413 19.2533C19.5996 19.1022 19.7596 18.9511 19.9196 18.8089C20.0796 18.6667 20.4085 18.3733 20.6307 18.1422C20.9158 17.8164 21.1523 17.4512 21.333 17.0578C21.6276 16.515 21.7339 15.8897 21.6352 15.28C21.5237 14.6937 21.2531 14.1495 20.853 13.7067C20.5021 13.3103 20.1812 12.8884 19.893 12.4445C19.5298 11.8806 19.3728 11.2086 19.4485 10.5422V10.4ZM9.96408 19.1911L10.5685 18.6311L11.2796 17.9911C11.4929 17.8194 11.6813 17.619 11.8396 17.3956C12.0884 16.9855 12.1829 16.5002 12.1063 16.0267C12.0401 15.5852 11.8988 15.1583 11.6885 14.7645L11.2619 13.9289C11.1836 13.7689 11.0945 13.6145 10.9952 13.4667C10.8707 13.28 10.7107 13.1111 10.5685 12.9333C10.3347 12.6641 10.1375 12.3653 9.98186 12.0445C9.81787 11.6734 9.75648 11.2651 9.80408 10.8622V10.7645H9.75075L9.68853 10.8445L8.87964 11.6622C8.63253 11.8892 8.41457 12.146 8.23075 12.4267C8.03913 12.7408 7.9578 13.11 7.99964 13.4756C8.04673 13.826 8.16794 14.1623 8.35519 14.4622C8.5863 14.8445 8.83519 15.2178 9.08408 15.5911C9.38394 16.0287 9.63718 16.4964 9.83964 16.9867C9.97409 17.318 10.0522 17.6696 10.0707 18.0267C10.0975 18.418 10.0615 18.8111 9.96408 19.1911ZM12.2752 17.0578L12.3463 17.0045L12.6396 16.7289L13.4752 15.9556C13.4807 15.9461 13.4835 15.9354 13.4835 15.9245C13.4835 15.9135 13.4807 15.9028 13.4752 15.8933C13.4793 15.8835 13.4815 15.8729 13.4815 15.8622C13.4815 15.8515 13.4793 15.841 13.4752 15.8311C13.1662 15.4429 12.934 14.9995 12.7907 14.5245C12.5975 13.9806 12.5395 13.3979 12.6219 12.8267C12.7035 12.2819 12.952 11.7757 13.333 11.3778C13.3441 11.3716 13.3533 11.3626 13.3598 11.3517C13.3663 11.3407 13.3697 11.3283 13.3697 11.3156C13.3697 11.3029 13.3663 11.2904 13.3598 11.2794C13.3533 11.2685 13.3441 11.2595 13.333 11.2533C13.0017 10.9384 12.7411 10.5566 12.5685 10.1333C12.3572 9.62396 12.2138 9.089 12.1419 8.54223V8.43556L12.0352 8.53334L10.3552 10.2489C10.2328 10.3611 10.1367 10.499 10.0737 10.6526C10.0107 10.8063 9.98238 10.9719 9.99075 11.1378C10.0068 11.407 10.0926 11.6673 10.2396 11.8933C10.453 12.24 10.693 12.5867 10.933 12.9245C11.2561 13.3566 11.5529 13.8078 11.8219 14.2756C12.041 14.6588 12.2027 15.0721 12.3019 15.5022C12.4039 15.9558 12.4039 16.4264 12.3019 16.88C12.3107 16.8889 12.293 16.9778 12.2752 17.0578ZM15.4219 9.77779H15.3774H15.333C14.962 10.0515 14.6454 10.3922 14.3996 10.7822C14.154 11.1771 14.0622 11.6485 14.1419 12.1067C14.2305 12.5513 14.4056 12.9741 14.6574 13.3511C14.9241 13.7778 15.2085 14.24 15.493 14.6222C15.7588 15.0121 15.9879 15.4257 16.1774 15.8578C16.46 16.4713 16.5075 17.1672 16.3107 17.8133V17.8845H16.3641C16.7898 17.4669 17.1415 16.9799 17.4041 16.4445C17.5885 16.0258 17.6591 15.5658 17.6085 15.1111C17.5577 14.7049 17.4214 14.3141 17.2085 13.9645C16.9685 13.5556 16.693 13.1645 16.4263 12.7733C16.1344 12.3617 15.8701 11.9311 15.6352 11.4845C15.3946 11.0133 15.3076 10.4787 15.3863 9.95556C15.3949 9.8957 15.4067 9.83635 15.4219 9.77779ZM14.7819 19.2978H14.8352C15.2485 18.9924 15.6012 18.6125 15.8752 18.1778C16.1175 17.7911 16.221 17.3334 16.1685 16.88C16.1159 16.4549 15.9735 16.0459 15.7507 15.68C15.4841 15.2178 15.1996 14.7911 14.9063 14.3111C14.6403 13.9105 14.4027 13.4917 14.1952 13.0578C13.9317 12.5044 13.8212 11.8905 13.8752 11.28C13.8792 11.2475 13.8792 11.2147 13.8752 11.1822L13.7774 11.2711C13.6263 11.4578 13.4574 11.6356 13.3152 11.8311C13.0646 12.1695 12.9082 12.5682 12.8619 12.9867C12.8278 13.472 12.9164 13.958 13.1196 14.4C13.3615 14.8979 13.6316 15.3817 13.9285 15.8489C14.2229 16.3133 14.4729 16.8043 14.6752 17.3156C14.9001 17.8582 14.9559 18.4562 14.8352 19.0311C14.8263 19.0845 14.7996 19.1733 14.7819 19.2711V19.2978ZM10.6663 21.6445V21.5645L9.71519 20.3822C9.69129 20.3509 9.66029 20.3257 9.62474 20.3087C9.5892 20.2917 9.55013 20.2834 9.51075 20.2845H7.9463C7.83964 20.2845 7.82186 20.2845 7.82186 20.3911C7.82186 20.6222 7.77742 20.5956 8.03519 20.6933C8.07043 20.7017 8.10149 20.7225 8.1227 20.7519C8.14391 20.7812 8.15386 20.8172 8.15075 20.8533C8.14191 20.9509 8.14191 21.0491 8.15075 21.1467C8.15075 21.4845 8.15075 21.8133 8.15075 22.1422C8.15327 22.1635 8.15124 22.1851 8.14478 22.2055C8.13832 22.226 8.12759 22.2448 8.1133 22.2608C8.09901 22.2767 8.08148 22.2895 8.06189 22.2982C8.04229 22.3069 8.02107 22.3113 7.99964 22.3111C7.92883 22.3262 7.86643 22.3676 7.82514 22.4271C7.78385 22.4866 7.76678 22.5595 7.77742 22.6311C7.77742 22.7645 7.77741 22.7911 7.95519 22.7911C8.47964 22.7911 8.99519 22.7911 9.51964 22.7911C9.82186 22.7911 9.7863 22.8356 9.79519 22.5422C9.79716 22.5076 9.78782 22.4733 9.76858 22.4444C9.74934 22.4156 9.72124 22.3937 9.68853 22.3822L9.61741 22.32C9.58714 22.3067 9.56205 22.2839 9.54599 22.255C9.52993 22.2261 9.5238 22.1927 9.52853 22.16V21.4045C9.52853 21.4045 9.52853 21.3422 9.52853 21.3156C9.89297 21.7867 10.2307 22.2667 10.613 22.7467L11.8041 21.3333C11.8041 21.3333 11.8041 21.3956 11.8041 21.4222C11.8041 21.6267 11.8041 21.8222 11.8041 22.0267C11.8149 22.1005 11.8029 22.1759 11.7695 22.2427C11.7361 22.3095 11.683 22.3644 11.6174 22.4C11.5974 22.4124 11.5805 22.4293 11.5682 22.4494C11.5558 22.4694 11.5483 22.4921 11.5463 22.5156C11.5463 22.7556 11.5463 22.7645 11.8219 22.7733H13.5107C13.5206 22.7775 13.5312 22.7796 13.5419 22.7796C13.5525 22.7796 13.5631 22.7775 13.573 22.7733C13.573 22.64 13.573 22.4978 13.4396 22.4C13.3063 22.3022 13.333 22.2845 13.333 22.2222V20.8178C13.3322 20.7936 13.3397 20.7698 13.3543 20.7504C13.3688 20.731 13.3895 20.7172 13.413 20.7111C13.5996 20.6667 13.653 20.56 13.6263 20.4089C13.6263 20.3467 13.6263 20.32 13.5285 20.32H11.813C11.7873 20.3182 11.7616 20.3229 11.7382 20.3338C11.7149 20.3447 11.6947 20.3614 11.6796 20.3822L10.9685 21.3156L10.6663 21.6445ZM23.6796 22.3645C23.6796 22.3645 23.6796 22.3645 23.6796 22.3111C23.7771 22.1865 23.8485 22.0437 23.8897 21.891C23.931 21.7383 23.9411 21.5789 23.9196 21.4222C23.8859 21.0961 23.7273 20.7956 23.4772 20.5836C23.2271 20.3715 22.9047 20.2644 22.5774 20.2845H20.7285C20.5909 20.2816 20.4535 20.2966 20.3196 20.3289C20.1056 20.3564 19.9039 20.4447 19.7385 20.5834C19.573 20.722 19.4508 20.9052 19.3863 21.1111C19.2911 21.4272 19.3199 21.7677 19.4668 22.0633C19.6138 22.3589 19.8679 22.5874 20.1774 22.7022C20.3594 22.7549 20.5479 22.7819 20.7374 22.7822H22.5152C22.704 22.7737 22.8915 22.7469 23.0752 22.7022C23.1758 22.6663 23.2857 22.6663 23.3863 22.7022H23.4663C23.4953 22.7111 23.5262 22.7111 23.5552 22.7022L23.9019 22.4178L23.6796 22.3645ZM15.9996 20.2933H14.2219C14.1063 20.2933 14.1063 20.2933 14.1063 20.3911C14.0619 20.5422 14.1507 20.6222 14.3019 20.6578C14.3356 20.6622 14.3665 20.6795 14.3879 20.7059C14.4094 20.7324 14.42 20.766 14.4174 20.8V22.1245C14.4227 22.1562 14.4154 22.1888 14.3972 22.2153C14.379 22.2418 14.3512 22.2602 14.3196 22.2667C14.2826 22.275 14.2477 22.2907 14.2168 22.3127C14.186 22.3348 14.1598 22.3628 14.14 22.3951C14.1201 22.4274 14.1069 22.4633 14.1011 22.5008C14.0953 22.5383 14.0971 22.5766 14.1063 22.6133C14.1063 22.7289 14.1063 22.7467 14.2663 22.7467H17.653C17.9328 22.766 18.2113 22.6942 18.4469 22.542C18.6824 22.3897 18.8623 22.1653 18.9596 21.9022C19.0115 21.7447 19.0303 21.5781 19.015 21.413C18.9997 21.2478 18.9506 21.0876 18.8707 20.9422C18.7569 20.7184 18.5802 20.5327 18.3623 20.408C18.1443 20.2832 17.8947 20.2248 17.6441 20.24L15.9996 20.2933ZM17.3507 13.5733C17.3549 13.5558 17.3549 13.5375 17.3507 13.52C17.3507 13.3778 17.3507 13.2267 17.3507 13.0845C17.452 12.5186 17.7038 11.9905 18.0796 11.5556C18.2663 11.3245 18.2485 11.4133 18.0796 11.1733C17.9107 10.9333 17.6085 10.4622 17.3952 10.0978C17.074 9.62093 16.9122 9.05457 16.933 8.48001C16.9371 8.4535 16.9371 8.42651 16.933 8.40001L16.8885 8.41779C16.6319 8.61522 16.3992 8.84194 16.1952 9.09334C15.9826 9.33126 15.8323 9.61821 15.7579 9.92847C15.6834 10.2387 15.6871 10.5626 15.7685 10.8711C15.9016 11.3031 16.1026 11.7112 16.3641 12.08C16.6485 12.5156 16.9419 12.9689 17.253 13.3778L17.3507 13.5733ZM7.82186 18.3289C7.82973 18.4376 7.859 18.5436 7.908 18.6409C7.95699 18.7382 8.02474 18.8249 8.10735 18.896C8.18995 18.967 8.28579 19.021 8.38934 19.0549C8.4929 19.0888 8.60213 19.1018 8.71075 19.0933C8.82007 19.1018 8.92998 19.0884 9.03409 19.054C9.13819 19.0196 9.23441 18.9648 9.31713 18.8928C9.39986 18.8208 9.46744 18.7331 9.51594 18.6348C9.56444 18.5365 9.59289 18.4295 9.59964 18.32C9.56749 18.1081 9.45983 17.9149 9.29648 17.776C9.13314 17.6372 8.92512 17.562 8.71075 17.5645C8.60213 17.556 8.4929 17.569 8.38934 17.6029C8.28579 17.6368 8.18995 17.6908 8.10735 17.7618C8.02474 17.8329 7.95699 17.9196 7.908 18.0169C7.859 18.1142 7.82973 18.2202 7.82186 18.3289ZM17.8841 15.1556C17.8841 15.3867 17.8841 15.6089 17.8841 15.8311C17.8841 16.0533 17.8041 16.2667 17.7596 16.4889L18.3019 15.9111C18.3104 15.8963 18.315 15.8794 18.315 15.8622C18.315 15.8451 18.3104 15.8282 18.3019 15.8133L17.9107 15.2445L17.8485 15.1645L17.8841 15.1556Z" fill="black"/>
<path d="M21.7333 8.37335C21.7333 8.45039 21.7333 8.5215 21.7333 8.58669C21.7866 8.8978 21.8221 9.2178 21.8933 9.5378C22.02 9.99029 22.2549 10.4052 22.5777 10.7467C22.7644 10.96 22.9777 11.1467 23.1466 11.3689C23.5037 11.7757 23.7919 12.2381 23.9999 12.7378C24.135 13.0747 24.1884 13.4387 24.156 13.8002C24.1236 14.1617 24.0061 14.5103 23.8133 14.8178C23.6029 15.1419 23.3553 15.4402 23.0755 15.7067L22.6221 16.1067L21.8933 16.7734H21.8399C21.8399 16.6489 21.8933 16.5422 21.911 16.4267C21.9733 16.1137 21.9913 15.7935 21.9644 15.4756C21.9101 15.0627 21.7838 14.6625 21.591 14.2934C21.4118 13.9615 21.2036 13.6462 20.9688 13.3511C20.6666 12.96 20.3466 12.5778 20.0799 12.1778C19.8132 11.8346 19.6685 11.4124 19.6685 10.9778C19.6685 10.5432 19.8132 10.121 20.0799 9.7778C20.4198 9.37285 20.8112 9.01423 21.2444 8.71113L21.5999 8.44446L21.7333 8.37335Z" fill="url(#paint0_linear_2707_314978)"/>
<path d="M19.4488 10.4V10.4978C19.3781 11.1638 19.5348 11.8342 19.8933 12.4C20.1874 12.8663 20.5173 13.3091 20.8799 13.7244C21.2782 14.165 21.5487 14.7059 21.6622 15.2889C21.7595 15.8986 21.6533 16.5234 21.3599 17.0667C21.1578 17.467 20.8938 17.833 20.5777 18.1511C20.3555 18.3822 20.1066 18.5956 19.8666 18.8178L19.3688 19.2622C19.3645 19.2357 19.3645 19.2087 19.3688 19.1822C19.6051 18.4278 19.5609 17.6134 19.2444 16.8889C19.0799 16.516 18.8867 16.1564 18.6666 15.8133C18.368 15.3796 18.1007 14.9251 17.8666 14.4533C17.7173 14.1191 17.6401 13.7572 17.6401 13.3911C17.6401 13.0251 17.7173 12.6631 17.8666 12.3289C18.0023 12.0365 18.1822 11.7667 18.3999 11.5289L19.2888 10.4889L19.3955 10.3911L19.4488 10.4Z" fill="url(#paint1_linear_2707_314978)"/>
<path d="M9.96413 19.1911C10.0615 18.8111 10.0975 18.418 10.0708 18.0267C10.0522 17.6696 9.97413 17.318 9.83969 16.9867C9.63722 16.4964 9.38399 16.0287 9.08413 15.5911C8.83524 15.2178 8.58635 14.8445 8.35524 14.4622C8.16655 14.1598 8.04528 13.8202 7.99969 13.4667C7.96374 13.0855 8.05772 12.7033 8.26635 12.3822C8.45018 12.1015 8.66814 11.8448 8.91524 11.6178L9.73302 10.8C9.75584 10.7719 9.77663 10.7422 9.79524 10.7111H9.83969V10.8C9.80055 11.2056 9.86159 11.6146 10.0175 11.9911C10.1731 12.3119 10.3703 12.6108 10.6041 12.88C10.7552 13.0578 10.9064 13.2267 11.0397 13.4045C11.1375 13.5516 11.2237 13.7061 11.2975 13.8667C11.4486 14.1511 11.5908 14.4267 11.7241 14.7111C11.9373 15.1132 12.0787 15.5493 12.1419 16C12.2187 16.4706 12.1241 16.9532 11.8752 17.36C11.7252 17.5898 11.5391 17.7939 11.3241 17.9645C11.0752 18.1778 10.8441 18.3911 10.613 18.6045L10.0086 19.1556L9.96413 19.1911Z" fill="url(#paint2_linear_2707_314978)"/>
<path d="M12.2756 17.0578C12.2756 16.9778 12.2756 16.9245 12.2756 16.8622C12.3777 16.4086 12.3777 15.938 12.2756 15.4845C12.2004 15.0451 12.0596 14.6196 11.8578 14.2222C11.5753 13.7499 11.2636 13.2957 10.9245 12.8622C10.6845 12.5245 10.4534 12.1867 10.24 11.84C10.093 11.614 10.0072 11.3536 9.99114 11.0845C9.98458 10.9188 10.0137 10.7537 10.0766 10.6003C10.1395 10.447 10.2346 10.3089 10.3556 10.1956C10.9156 9.62668 11.4756 9.0489 12.0445 8.48001L12.1423 8.38223C12.1461 8.41769 12.1461 8.45345 12.1423 8.4889C12.2141 9.03567 12.3576 9.57063 12.5689 10.08C12.7419 10.5187 13.002 10.9178 13.3334 11.2533C13.3867 11.2978 13.3778 11.3333 13.3334 11.3778C12.9459 11.7734 12.6911 12.2798 12.6045 12.8267C12.5193 13.3972 12.5742 13.9799 12.7645 14.5245C12.9132 14.9999 13.1449 15.4453 13.4489 15.84C13.4529 15.8483 13.4549 15.8575 13.4549 15.8667C13.4549 15.8759 13.4529 15.885 13.4489 15.8933C13.4544 15.9028 13.4573 15.9135 13.4573 15.9245C13.4573 15.9354 13.4544 15.9461 13.4489 15.9556L12.6134 16.7289L12.32 17.0045L12.2756 17.0578Z" fill="url(#paint3_linear_2707_314978)"/>
<path d="M15.4222 9.7778C15.418 9.84588 15.418 9.91416 15.4222 9.98225C15.3435 10.5054 15.4306 11.04 15.6711 11.5111C15.906 11.9578 16.1703 12.3884 16.4622 12.8C16.7289 13.1911 17.0045 13.5822 17.2445 13.9911C17.4413 14.3356 17.5654 14.7168 17.6089 15.1111C17.6573 15.5542 17.5868 16.0022 17.4045 16.4089C17.1459 16.9468 16.7938 17.4344 16.3645 17.8489H16.3111V17.7778C16.5106 17.1327 16.4664 16.4368 16.1867 15.8222C15.9941 15.3899 15.762 14.9763 15.4933 14.5867C15.2178 14.16 14.9245 13.7422 14.6578 13.3156C14.4097 12.9366 14.2349 12.5145 14.1422 12.0711C14.0626 11.613 14.1544 11.1415 14.4 10.7467C14.6493 10.3694 14.9656 10.041 15.3333 9.7778H15.3778H15.4222Z" fill="url(#paint4_linear_2707_314978)"/>
<path d="M14.7822 19.2711C14.7822 19.1733 14.8267 19.0845 14.8445 18.9867C14.9685 18.4127 14.9159 17.8146 14.6933 17.2711C14.4879 16.7597 14.235 16.2686 13.9378 15.8045C13.6419 15.3382 13.3747 14.8544 13.1378 14.3556C12.9242 13.9169 12.835 13.4281 12.88 12.9422C12.9183 12.5218 13.0755 12.121 13.3333 11.7867C13.4772 11.5918 13.6315 11.4049 13.7956 11.2267L13.8845 11.1378C13.8845 11.1378 13.8845 11.2089 13.8845 11.2356C13.8222 11.8455 13.9299 12.4608 14.1956 13.0133C14.4031 13.4472 14.6407 13.866 14.9067 14.2667C15.2 14.72 15.4845 15.1556 15.7956 15.6445C16.0205 16.0053 16.1604 16.4126 16.2045 16.8356C16.2569 17.2889 16.1535 17.7466 15.9111 18.1333C15.6371 18.5681 15.2844 18.9479 14.8711 19.2533H14.8178L14.7822 19.2711Z" fill="url(#paint5_linear_2707_314978)"/>
<path d="M10.6666 21.6445L10.9422 21.2889L11.6533 20.3556C11.6677 20.334 11.6878 20.3168 11.7113 20.3059C11.7348 20.2949 11.7608 20.2906 11.7866 20.2934H13.4933C13.5644 20.2934 13.5911 20.2934 13.5822 20.3734C13.5914 20.4068 13.5932 20.4418 13.5876 20.476C13.582 20.5103 13.569 20.5428 13.5496 20.5716C13.5301 20.6003 13.5047 20.6245 13.4751 20.6424C13.4454 20.6604 13.4122 20.6717 13.3777 20.6756C13.3648 20.6777 13.3524 20.6824 13.3413 20.6894C13.3303 20.6964 13.3207 20.7056 13.3132 20.7164C13.3058 20.7272 13.3005 20.7393 13.2979 20.7522C13.2952 20.765 13.2952 20.7783 13.2977 20.7911V22.2222C13.2977 22.32 13.3777 22.3734 13.4577 22.4089C13.5377 22.4445 13.5733 22.6489 13.5822 22.7822C13.5723 22.7864 13.5617 22.7885 13.5511 22.7885C13.5404 22.7885 13.5298 22.7864 13.5199 22.7822H11.8311C11.5111 22.7822 11.5466 22.7822 11.5555 22.5245C11.5603 22.5008 11.5698 22.4783 11.5836 22.4584C11.5974 22.4386 11.615 22.4217 11.6355 22.4089C11.7003 22.3723 11.7526 22.3173 11.7859 22.2508C11.8191 22.1843 11.8318 22.1093 11.8222 22.0356C11.8222 21.84 11.8222 21.6356 11.8222 21.44V21.3334L10.6666 22.7289C10.2844 22.2489 9.94661 21.7689 9.58217 21.3067C9.57798 21.3391 9.57798 21.372 9.58217 21.4045V22.16C9.58004 22.1924 9.5873 22.2247 9.60306 22.2531C9.61882 22.2815 9.64243 22.3047 9.67106 22.32L9.75106 22.3734C9.78283 22.3879 9.8093 22.412 9.82681 22.4422C9.84432 22.4725 9.85202 22.5074 9.84884 22.5422C9.84884 22.8356 9.84884 22.7822 9.57328 22.7911H7.99995C7.83995 22.7911 7.83995 22.7911 7.82217 22.64C7.80503 22.5729 7.8138 22.5018 7.84675 22.4408C7.8797 22.3799 7.93439 22.3336 7.99995 22.3111C8.03688 22.3026 8.06926 22.2805 8.09066 22.2492C8.11207 22.2179 8.12093 22.1798 8.1155 22.1422C8.1155 21.8134 8.1155 21.4845 8.1155 21.1556C8.1155 21.0578 8.1155 20.9511 8.1155 20.8534C8.1155 20.7556 8.1155 20.7289 7.99995 20.6934C7.74217 20.6045 7.78661 20.6311 7.78661 20.4C7.78661 20.3111 7.78661 20.2934 7.91106 20.2934H9.43106C9.47115 20.2898 9.51151 20.2961 9.54867 20.3115C9.58582 20.327 9.61867 20.3513 9.64439 20.3822L10.6666 21.5734V21.6445Z" fill="#DB2519"/>
<path d="M23.7064 22.3645L23.9286 22.4622L23.582 22.7467C23.553 22.7556 23.522 22.7556 23.4931 22.7467H23.4131C23.3125 22.7107 23.2026 22.7107 23.102 22.7467C22.9182 22.7907 22.7307 22.8175 22.542 22.8267H20.7642C20.5747 22.8263 20.3862 22.7994 20.2042 22.7467C19.8947 22.6318 19.6406 22.4034 19.4936 22.1078C19.3467 21.8122 19.3179 21.4717 19.4131 21.1556C19.4776 20.9496 19.5998 20.7665 19.7652 20.6278C19.9307 20.4892 20.1324 20.4009 20.3464 20.3733C20.481 20.3454 20.6179 20.3305 20.7553 20.3289H22.6575C22.9784 20.3123 23.2939 20.4161 23.5422 20.62C23.7905 20.8239 23.9537 21.1132 23.9998 21.4311C24.0221 21.5884 24.0116 21.7487 23.9687 21.9017C23.9259 22.0547 23.8517 22.1972 23.7509 22.32C23.7325 22.3308 23.7172 22.3461 23.7064 22.3645ZM21.9286 22.2933L21.8842 22.2222C21.7775 22.1067 21.7686 22.08 21.8842 21.9733C21.929 21.9196 21.9832 21.8744 22.0442 21.84C22.0728 21.8245 22.1049 21.8163 22.1375 21.8163C22.1701 21.8163 22.2022 21.8245 22.2309 21.84L22.4264 21.9111C22.4798 21.9111 22.5242 21.9111 22.5331 21.9111C22.576 21.821 22.6059 21.7252 22.622 21.6267C22.702 21.1111 22.142 20.6933 21.5642 20.7378C21.3388 20.7372 21.1217 20.8223 20.9567 20.9758C20.7917 21.1292 20.6911 21.3397 20.6753 21.5645C20.696 21.737 20.7668 21.8996 20.879 22.0324C20.9912 22.1651 21.1398 22.262 21.3064 22.3111C21.5106 22.3706 21.7282 22.3644 21.9286 22.2933Z" fill="#DB2519"/>
<path d="M16 20.2933H17.6533C17.903 20.2774 18.152 20.3344 18.3698 20.4575C18.5876 20.5807 18.7649 20.7645 18.88 20.9867C18.9594 21.1321 19.0089 21.292 19.0257 21.4568C19.0425 21.6217 19.0262 21.7882 18.9778 21.9467C18.8813 22.2121 18.7003 22.4385 18.4626 22.5911C18.2249 22.7437 17.9437 22.8139 17.6622 22.7911H14.2222C14.08 22.7911 14.0622 22.7911 14.0622 22.6578C14.053 22.6216 14.0513 22.5838 14.0572 22.5469C14.0631 22.51 14.0764 22.4747 14.0964 22.4431C14.1163 22.4115 14.1425 22.3843 14.1733 22.3631C14.2041 22.342 14.2389 22.3273 14.2755 22.32C14.306 22.3117 14.3326 22.2929 14.3505 22.2668C14.3684 22.2408 14.3765 22.2092 14.3733 22.1778V20.8445C14.3759 20.8128 14.3663 20.7814 14.3465 20.7566C14.3266 20.7318 14.2981 20.7155 14.2666 20.7111C14.1066 20.6667 14.0178 20.5867 14.0622 20.4444C14.0622 20.3467 14.0622 20.3467 14.1778 20.3467H15.9555L16 20.2933ZM16.56 20.6222H16.1066C15.9644 20.6222 15.9555 20.6222 15.9555 20.7556V22.2222C15.9555 22.3467 15.9555 22.3556 16.1066 22.3556H16.8889C17.1459 22.3604 17.3947 22.2647 17.5822 22.0889C17.6982 21.9876 17.7814 21.8539 17.821 21.7051C17.8606 21.5562 17.8548 21.3989 17.8044 21.2533C17.7397 21.0638 17.6158 20.9002 17.4509 20.7865C17.286 20.6729 17.089 20.6153 16.8889 20.6222C16.7378 20.6311 16.6222 20.6222 16.5155 20.6222H16.56Z" fill="#DB2519"/>
<path d="M17.3066 13.5734L17.2 13.4222C16.9066 12.9867 16.6133 12.5334 16.3111 12.1245C16.0496 11.7557 15.8486 11.3476 15.7155 10.9156C15.6345 10.6077 15.6302 10.2846 15.703 9.97466C15.7758 9.66472 15.9236 9.37737 16.1333 9.1378C16.3569 8.86984 16.6104 8.62828 16.8888 8.41781L16.9688 8.36447C16.973 8.39098 16.973 8.41797 16.9688 8.44447C16.9481 9.01903 17.1099 9.58539 17.4311 10.0622C17.6444 10.4267 17.8844 10.7822 18.1155 11.1378C18.3466 11.4934 18.2755 11.2889 18.1155 11.52C17.7446 11.9642 17.5046 12.5028 17.4222 13.0756C17.4222 13.2267 17.4222 13.3689 17.4222 13.5111C17.4222 13.6534 17.4222 13.5111 17.4222 13.5645L17.3066 13.5734Z" fill="url(#paint6_linear_2707_314978)"/>
<path d="M7.82227 18.3289C7.83014 18.2202 7.85941 18.1142 7.9084 18.0169C7.9574 17.9196 8.02515 17.8329 8.10775 17.7619C8.19036 17.6908 8.2862 17.6368 8.38975 17.6029C8.4933 17.569 8.60253 17.556 8.71115 17.5645C8.93302 17.5509 9.15192 17.6209 9.32469 17.7608C9.49746 17.9007 9.61156 18.1002 9.64449 18.32C9.63774 18.4295 9.60929 18.5365 9.56079 18.6348C9.51229 18.7331 9.44471 18.8209 9.36198 18.8928C9.27926 18.9648 9.18304 19.0196 9.07894 19.054C8.97483 19.0884 8.86492 19.1018 8.7556 19.0933C8.64329 19.1096 8.52884 19.1022 8.41952 19.0718C8.3102 19.0414 8.20842 18.9885 8.12063 18.9166C8.03285 18.8447 7.96098 18.7553 7.90962 18.6541C7.85825 18.553 7.8285 18.4422 7.82227 18.3289ZM8.71115 18.9245C8.79713 18.9343 8.88421 18.9268 8.96726 18.9025C9.05032 18.8782 9.12766 18.8375 9.19475 18.7828C9.26184 18.7281 9.31732 18.6606 9.35792 18.5842C9.39851 18.5078 9.42342 18.424 9.43115 18.3378C9.41749 18.1641 9.33634 18.0026 9.20509 17.888C9.07384 17.7733 8.90292 17.7146 8.72893 17.7245C8.55295 17.7118 8.3789 17.7677 8.24309 17.8803C8.10729 17.9929 8.02021 18.1536 8.00004 18.3289C8.01588 18.5003 8.09829 18.6587 8.22958 18.77C8.36086 18.8814 8.53057 18.9368 8.70227 18.9245H8.71115Z" fill="url(#paint7_linear_2707_314978)"/>
<path d="M17.8844 15.1556L17.9377 15.2356L18.3288 15.8045C18.3288 15.8045 18.3288 15.8845 18.3288 15.9022L17.7866 16.48C17.8311 16.2578 17.8844 16.0445 17.9111 15.8222C17.9377 15.6 17.8844 15.3867 17.8844 15.1556Z" fill="url(#paint8_linear_2707_314978)"/>
<path d="M21.9286 22.2934C21.7373 22.3512 21.5332 22.3512 21.3419 22.2934C21.1727 22.2506 21.0213 22.1553 20.9095 22.0211C20.7977 21.887 20.7313 21.7209 20.7197 21.5467C20.7355 21.3219 20.8361 21.1115 21.0011 20.958C21.1661 20.8045 21.3833 20.7195 21.6086 20.72C22.1864 20.6578 22.7464 21.0756 22.6664 21.6089C22.6492 21.7061 22.6224 21.8014 22.5864 21.8934C22.5864 21.9467 22.5242 21.9556 22.4708 21.8934L22.2219 21.8311C22.1933 21.8156 22.1612 21.8074 22.1286 21.8074C22.096 21.8074 22.0639 21.8156 22.0353 21.8311C21.9743 21.8655 21.9201 21.9107 21.8753 21.9645C21.7686 22.0711 21.7686 22.0978 21.8753 22.2134L21.9286 22.2934Z" fill="black"/>
<path d="M16.5156 20.6222C16.6222 20.6222 16.7378 20.6222 16.8445 20.6222C17.0542 20.6064 17.2631 20.6619 17.4374 20.7797C17.6116 20.8975 17.741 21.0706 17.8045 21.2711C17.8544 21.4182 17.8599 21.5766 17.8204 21.7268C17.7809 21.877 17.6981 22.0122 17.5822 22.1156C17.3933 22.2882 17.1447 22.3806 16.8889 22.3734H16.0622C15.92 22.3734 15.9111 22.3734 15.9111 22.24V20.7556C15.9111 20.64 15.9111 20.6311 16.0622 20.6311H16.5156V20.6222Z" fill="black"/>
<path d="M8.70183 18.9245C8.52867 18.9393 8.35668 18.885 8.22344 18.7734C8.09019 18.6618 8.00653 18.502 7.99072 18.3289C8.01089 18.1536 8.09797 17.9929 8.23377 17.8803C8.36958 17.7677 8.54363 17.7119 8.71961 17.7245C8.8936 17.7146 9.06452 17.7733 9.19577 17.888C9.32702 18.0026 9.40817 18.1641 9.42183 18.3378C9.4141 18.424 9.38919 18.5078 9.34859 18.5842C9.308 18.6606 9.25252 18.7282 9.18543 18.7828C9.11834 18.8375 9.04099 18.8782 8.95794 18.9025C8.87489 18.9268 8.78781 18.9343 8.70183 18.9245ZM9.0485 18.72L8.8885 18.4978C8.84406 18.4445 8.83517 18.4089 8.8885 18.3734C8.93751 18.3535 8.97738 18.3161 9.00037 18.2684C9.02337 18.2208 9.02785 18.1663 9.01295 18.1156C9.01098 18.0682 8.99187 18.0231 8.95917 17.9888C8.92646 17.9545 8.88239 17.9332 8.83517 17.9289C8.70198 17.9201 8.56835 17.9201 8.43517 17.9289C8.41902 17.9324 8.40403 17.94 8.3916 17.9509C8.37916 17.9617 8.36969 17.9756 8.36406 17.9911C8.36406 18.2222 8.36406 18.4534 8.36406 18.6845C8.36406 18.7467 8.41739 18.7645 8.47961 18.7645C8.54183 18.7645 8.55961 18.7111 8.55961 18.6578V18.4178L8.73739 18.6845C8.8085 18.7822 8.83517 18.7911 8.99517 18.7556L9.0485 18.72Z" fill="black"/>
<path d="M9.04849 18.72C8.88849 18.72 8.86183 18.72 8.79071 18.6489C8.7196 18.5778 8.67516 18.4711 8.61294 18.3822V18.6667C8.61294 18.72 8.61294 18.7644 8.53294 18.7733C8.45294 18.7822 8.42627 18.7733 8.42627 18.6933V18.0089C8.43057 17.9917 8.43946 17.976 8.45198 17.9635C8.46451 17.951 8.4802 17.9421 8.49738 17.9378C8.63057 17.9289 8.76419 17.9289 8.89738 17.9378C8.94554 17.9418 8.99071 17.9628 9.02488 17.9969C9.05905 18.0311 9.08001 18.0763 9.08405 18.1244C9.09641 18.1763 9.08975 18.2308 9.06527 18.2781C9.0408 18.3254 9.00015 18.3624 8.95071 18.3822C8.86183 18.3822 8.87071 18.4533 8.95071 18.5067L9.04849 18.72ZM8.58627 18.1422C8.58627 18.2844 8.58627 18.3022 8.68405 18.3022C8.78183 18.3022 8.8796 18.24 8.87071 18.16C8.86183 18.08 8.78183 18.0267 8.66627 18.0267C8.55071 18.0267 8.59516 18.0978 8.58627 18.1422Z" fill="url(#paint9_linear_2707_314978)"/>
<path d="M8.58643 18.1423C8.58643 18.0978 8.58643 18.0356 8.66643 18.0267C8.74643 18.0178 8.87087 18.08 8.87087 18.16C8.87087 18.24 8.79976 18.3023 8.6842 18.3023C8.56865 18.3023 8.59531 18.2845 8.58643 18.1423Z" fill="black"/>
</g>
<defs>
<linearGradient id="paint0_linear_2707_314978" x1="21.1235" y1="11.8231" x2="23.4079" y2="15.2454" gradientUnits="userSpaceOnUse">
<stop stop-color="#F3ED33"/>
<stop offset="1" stop-color="#CB2819"/>
</linearGradient>
<linearGradient id="paint1_linear_2707_314978" x1="18.4542" y1="13.605" x2="20.7386" y2="17.0272" gradientUnits="userSpaceOnUse">
<stop stop-color="#F3ED33"/>
<stop offset="1" stop-color="#CB2819"/>
</linearGradient>
<linearGradient id="paint2_linear_2707_314978" x1="8.67391" y1="15.0449" x2="10.8339" y2="17.4805" gradientUnits="userSpaceOnUse">
<stop stop-color="#F3ED33"/>
<stop offset="1" stop-color="#CB2819"/>
</linearGradient>
<linearGradient id="paint3_linear_2707_314978" x1="11.0611" y1="12.9281" x2="13.2211" y2="15.3637" gradientUnits="userSpaceOnUse">
<stop stop-color="#F3ED33"/>
<stop offset="1" stop-color="#CB2819"/>
</linearGradient>
<linearGradient id="paint4_linear_2707_314978" x1="12.512" y1="9.04891" x2="14.6009" y2="11.9378" gradientUnits="userSpaceOnUse">
<stop stop-color="#F3ED33"/>
<stop offset="1" stop-color="#CB2819"/>
</linearGradient>
<linearGradient id="paint5_linear_2707_314978" x1="10.8365" y1="10.2605" x2="12.9253" y2="13.1493" gradientUnits="userSpaceOnUse">
<stop stop-color="#F3ED33"/>
<stop offset="1" stop-color="#CB2819"/>
</linearGradient>
<linearGradient id="paint6_linear_2707_314978" x1="14.7075" y1="7.46136" x2="16.7964" y2="10.3502" gradientUnits="userSpaceOnUse">
<stop stop-color="#F3ED33"/>
<stop offset="1" stop-color="#CB2819"/>
</linearGradient>
<linearGradient id="paint7_linear_2707_314978" x1="5.1748" y1="12.2866" x2="6.12591" y2="15.9755" gradientUnits="userSpaceOnUse">
<stop stop-color="#F3ED33"/>
<stop offset="1" stop-color="#CB2819"/>
</linearGradient>
<linearGradient id="paint8_linear_2707_314978" x1="14.4707" y1="9.88979" x2="15.4218" y2="13.5787" gradientUnits="userSpaceOnUse">
<stop stop-color="#F3ED33"/>
<stop offset="1" stop-color="#CB2819"/>
</linearGradient>
<linearGradient id="paint9_linear_2707_314978" x1="5.17436" y1="12.2866" x2="6.12547" y2="15.9755" gradientUnits="userSpaceOnUse">
<stop stop-color="#F3ED33"/>
<stop offset="1" stop-color="#CB2819"/>
</linearGradient>
<clipPath id="clip0_2707_314978">
<rect width="32" height="32" fill="white"/>
</clipPath>
</defs>
</svg>
