<svg width="32" height="32" viewBox="0 0 32 32" fill="none" xmlns="http://www.w3.org/2000/svg">
<g clip-path="url(#clip0_2707_258848)">
<path d="M16 32C24.8366 32 32 24.8366 32 16C32 7.16344 24.8366 0 16 0C7.16344 0 0 7.16344 0 16C0 24.8366 7.16344 32 16 32Z" fill="white"/>
<path d="M16.0003 29.3334C23.3641 29.3334 29.3337 23.3638 29.3337 16C29.3337 8.63622 23.3641 2.66669 16.0003 2.66669C8.63653 2.66669 2.66699 8.63622 2.66699 16C2.66699 23.3638 8.63653 29.3334 16.0003 29.3334Z" fill="white"/>
<path d="M11.0752 8.51556H14.8441C14.2219 9.9289 13.5908 11.3333 12.9597 12.7467L11.1819 16.72H7.42188L11.0752 8.51556Z" fill="#FFC908"/>
<path d="M14.8442 8.51556L16.0353 11.1822C15.7687 11.7689 15.5109 12.3645 15.2442 12.96L14.3553 15.0045C14.2931 15.1378 14.2398 15.28 14.1686 15.4133L12.9775 12.7467C13.5909 11.3333 14.222 9.9289 14.8442 8.51556Z" fill="#F99C1C"/>
<path d="M17.2267 8.51556C17.8489 9.94964 18.477 11.363 19.1111 12.7556L17.92 15.4222L16 11.1911L17.2267 8.51556Z" fill="#9D9EA2"/>
<path d="M17.2266 8.51556H20.9955C22.2221 11.2533 23.4429 13.9911 24.6577 16.7289H20.8799L19.1021 12.7556L17.2266 8.51556Z" fill="#636466"/>
<path d="M22.7908 19.0311C23.0388 18.9099 23.3177 18.8666 23.5908 18.9067C23.8662 18.929 24.1248 19.0485 24.3202 19.244C24.5156 19.4394 24.6351 19.6979 24.6574 19.9734H23.8574C23.8456 19.9049 23.8187 19.8399 23.7787 19.783C23.7388 19.7262 23.6867 19.6789 23.6263 19.6445C23.5441 19.6081 23.4536 19.5947 23.3644 19.6057C23.2752 19.6166 23.1906 19.6515 23.1197 19.7067C23.0377 19.8006 22.9906 19.9199 22.9863 20.0445C22.9729 20.2991 22.9729 20.5543 22.9863 20.8089C22.985 20.9798 23.006 21.1501 23.0486 21.3156C23.0707 21.377 23.1102 21.4307 23.1623 21.4701C23.2144 21.5096 23.2767 21.5331 23.3419 21.5378C23.4199 21.5526 23.5003 21.5482 23.5761 21.525C23.652 21.5017 23.7211 21.4604 23.7774 21.4045C23.8643 21.2901 23.9055 21.1475 23.893 21.0045H23.413V20.3467H24.6841C24.7083 20.7282 24.6784 21.1113 24.5952 21.4845C24.5537 21.6227 24.4842 21.7509 24.3909 21.861C24.2976 21.9712 24.1825 22.0608 24.053 22.1245C23.89 22.2079 23.7114 22.2563 23.5286 22.2667H23.3152C23.1385 22.2539 22.9661 22.2055 22.8086 22.1245C22.567 22.0008 22.38 21.7917 22.2841 21.5378C22.1897 21.1906 22.1566 20.8297 22.1863 20.4711C22.1695 20.189 22.2026 19.9062 22.2841 19.6356C22.3797 19.3793 22.5664 19.1672 22.8086 19.04L22.7908 19.0311Z" fill="#636466"/>
<path d="M4.27539 18.96C4.57761 18.96 4.88872 18.96 5.16428 18.96C5.36536 18.942 5.56764 18.942 5.76872 18.96C5.98128 19.0101 6.16796 19.1366 6.29317 19.3156C6.40672 19.5018 6.44784 19.7232 6.40872 19.9378C6.38734 20.0634 6.33341 20.1812 6.25231 20.2794C6.17121 20.3777 6.06577 20.453 5.9465 20.4978C6.11874 20.558 6.26377 20.6778 6.35539 20.8356C6.41702 20.9471 6.45583 21.0697 6.46956 21.1964C6.4833 21.3231 6.47168 21.4512 6.43539 21.5733C6.40356 21.6831 6.34806 21.7845 6.27281 21.8705C6.19757 21.9565 6.10439 22.025 5.99984 22.0711C5.84541 22.1364 5.67847 22.1668 5.51095 22.16H4.27539V18.96ZM4.62206 19.2711V20.3911H5.51095C5.60081 20.3946 5.69045 20.3798 5.77447 20.3478C5.85849 20.3157 5.93515 20.2669 5.99984 20.2045C6.05302 20.136 6.09087 20.0569 6.11081 19.9726C6.13075 19.8882 6.13231 19.8006 6.11539 19.7156C6.09764 19.5931 6.03411 19.4819 5.93761 19.4045C5.81314 19.3159 5.66371 19.2692 5.51095 19.2711H4.62206ZM4.62206 20.7022V21.8845H5.41317C5.52207 21.9024 5.63316 21.9024 5.74206 21.8845C5.82152 21.8617 5.89518 21.8221 5.95805 21.7685C6.02092 21.7148 6.07155 21.6483 6.1065 21.5733C6.15436 21.4616 6.16892 21.3384 6.14842 21.2185C6.12792 21.0987 6.07323 20.9873 5.99095 20.8978C5.84405 20.7767 5.65645 20.7163 5.4665 20.7289L4.62206 20.7022Z" fill="#636466"/>
<path d="M7.90205 18.96H8.19538C8.59538 20.0445 8.98649 21.12 9.38649 22.1956H9.01316C8.92427 21.9556 8.84427 21.7067 8.75538 21.4667H7.34205C7.25316 21.7067 7.17316 21.9556 7.08427 22.1956H6.71094C7.11094 21.12 7.51094 20.0356 7.90205 18.96ZM8.05316 19.4756C7.84872 20.0356 7.65316 20.5956 7.44872 21.1645H8.6576C8.45316 20.5956 8.2576 20.0356 8.06205 19.4756H8.05316Z" fill="#636466"/>
<path d="M9.72461 18.96H10.0535C10.6224 19.8489 11.1913 20.6845 11.7691 21.5467V18.96H12.1157V22.2222H11.7868C11.2091 21.3334 10.6668 20.4445 10.0713 19.6089V22.2222H9.72461V18.96Z" fill="#636466"/>
<path d="M12.8623 18.9689H13.2179V20.8266L14.7201 18.9689H15.1112L14.089 20.2222L15.289 22.2222H14.8801L13.8934 20.4444L13.2445 21.2266C13.2445 21.2266 13.2445 21.2266 13.2445 21.28V22.1689H12.9067V18.9689H12.8623Z" fill="#636466"/>
<path d="M15.8311 22.2222C15.8311 21.1467 15.8311 20.0711 15.8311 18.9867H16.6133L17.3333 20.4089L18.0622 18.9867H18.8444V22.2222H18.0533V20.5867L17.5999 21.3334C17.5798 21.3681 17.5529 21.3984 17.5209 21.4226C17.4888 21.4468 17.4523 21.4644 17.4134 21.4743C17.3745 21.4842 17.3341 21.4863 17.2943 21.4804C17.2546 21.4745 17.2165 21.4608 17.1822 21.44C17.1388 21.4172 17.102 21.3835 17.0755 21.3422L16.6311 20.5511V22.2222H15.8311Z" fill="#636466"/>
<path d="M19.5557 18.9689H21.7601C21.7601 19.2 21.7601 19.44 21.7601 19.6711C21.289 19.6711 20.8179 19.6711 20.3557 19.6711V20.2133H21.5112V20.9244H20.3112V21.4933H21.7068V22.2222H19.5557V18.9689Z" fill="#636466"/>
<path d="M26.0087 18.9689C26.2131 18.9689 26.4176 18.9689 26.622 18.9689L27.4487 21.2533C27.5731 21.5644 27.6798 21.8844 27.8043 22.1955H26.9776L26.8176 21.7155H25.7776L25.6176 22.1955H24.7998C25.1909 21.12 25.582 20.0444 25.982 18.9689H26.0087ZM26.2842 20.1422L25.9909 21.0311H26.5865C26.5065 20.7555 26.4176 20.4444 26.3109 20.1422H26.2842Z" fill="#636466"/>
<path d="M15.9997 11.1911C16.6338 12.5955 17.2619 14.0059 17.8841 15.4222C17.6523 15.9213 17.2321 16.3081 16.7157 16.498C16.1992 16.688 15.6285 16.6655 15.1286 16.4355C14.6771 16.2303 14.3166 15.8666 14.1152 15.4133C14.1863 15.28 14.2397 15.1378 14.3019 15.0044L15.1908 12.96C15.5108 12.3733 15.7686 11.7778 15.9997 11.1911Z" fill="#F27022"/>
</g>
<defs>
<clipPath id="clip0_2707_258848">
<rect width="32" height="32" fill="white"/>
</clipPath>
</defs>
</svg>
