<svg width="32" height="32" viewBox="0 0 32 32" fill="none" xmlns="http://www.w3.org/2000/svg">
<g clip-path="url(#clip0_2707_314333)">
<path d="M16 32C24.8366 32 32 24.8366 32 16C32 7.16344 24.8366 0 16 0C7.16344 0 0 7.16344 0 16C0 24.8366 7.16344 32 16 32Z" fill="white"/>
<path d="M15.9998 29.3333C23.3636 29.3333 29.3332 23.3638 29.3332 16C29.3332 8.63616 23.3636 2.66663 15.9998 2.66663C8.63604 2.66663 2.6665 8.63616 2.6665 16C2.6665 23.3638 8.63604 29.3333 15.9998 29.3333Z" fill="white"/>
<path d="M3.25342 16.5511C3.25342 16.5511 7.92897 13.6445 12.2845 13.8845V16.8889H14.8268V13.8756L17.4045 16.8889H19.9468V14.2222C22.0685 14.5215 24.077 15.3635 25.7779 16.6667H28.7645C28.7645 16.6667 26.2579 13.44 19.6445 12.8356L18.7556 14.8534L16.4979 13.9645L14.9245 12.7911H12.569C12.569 12.7911 6.80008 12.9156 3.25342 16.5511Z" fill="#EE0000"/>
<path d="M12.569 12.8355C12.569 12.8355 6.80008 12.9155 3.25342 16.5511C3.25342 16.5511 6.52453 13.6978 12.569 13.4133V16.5511H14.5601V13.1378L17.5379 16.5511H19.609V13.5378C19.609 13.5378 23.9645 13.84 26.7201 16.6666H28.7734C28.7734 16.6666 26.2668 13.44 19.6534 12.8355V10.0889H17.6001V13.9822L14.649 10.0889H12.489L12.569 12.8355Z" fill="#00517D"/>
<path d="M4.57795 19.3689H4.24906L3.60017 18.2489V19.3689H3.28906V17.7778H3.63573L4.26684 18.8801V17.7778H4.57795V19.3689Z" fill="#00517D"/>
<path d="M5.61768 19.2089V19.2622L5.47546 19.3511H5.31546C5.24556 19.3588 5.17497 19.3451 5.11305 19.3118C5.05113 19.2784 5.00082 19.2271 4.96879 19.1645C4.92836 19.0691 4.91013 18.9657 4.91546 18.8622V18.1511H5.22657V18.8622C5.21811 18.9122 5.21811 18.9633 5.22657 19.0133C5.24187 19.042 5.26511 19.0656 5.29348 19.0813C5.32186 19.0971 5.35418 19.1044 5.38657 19.1022C5.43173 19.1055 5.47686 19.0955 5.51637 19.0734C5.55587 19.0513 5.58801 19.018 5.60879 18.9778C5.61743 18.9159 5.61743 18.853 5.60879 18.7911V18.1511H5.9199V19.3245H5.61768V19.2089Z" fill="#00517D"/>
<path d="M7.01312 18.2489C7.06374 18.2831 7.10493 18.3296 7.13289 18.384C7.16085 18.4383 7.17468 18.4989 7.17312 18.56H6.87089C6.8759 18.5276 6.8759 18.4946 6.87089 18.4622C6.84842 18.4383 6.82054 18.4202 6.7896 18.4094C6.75866 18.3986 6.72557 18.3953 6.69312 18.4C6.64635 18.389 6.59767 18.389 6.55089 18.4C6.54137 18.4258 6.54137 18.4542 6.55089 18.48C6.54363 18.4904 6.53974 18.5028 6.53974 18.5155C6.53974 18.5282 6.54363 18.5407 6.55089 18.5511C6.65471 18.5902 6.7618 18.6199 6.87089 18.64C6.97116 18.6595 7.06551 18.7021 7.14645 18.7644C7.20152 18.8256 7.23303 18.9044 7.23534 18.9866C7.23512 19.0409 7.22307 19.0944 7.20005 19.1436C7.17702 19.1927 7.14356 19.2362 7.10201 19.2711C6.98558 19.3537 6.84457 19.3945 6.70201 19.3866C6.55501 19.3972 6.40932 19.3528 6.29312 19.2622C6.24989 19.2268 6.21539 19.1819 6.19227 19.1311C6.16915 19.0802 6.15804 19.0247 6.15978 18.9689H6.47089C6.45867 19.0064 6.45867 19.0469 6.47089 19.0844C6.49989 19.1095 6.53396 19.1281 6.57077 19.1388C6.60759 19.1496 6.64629 19.1522 6.68423 19.1466C6.73125 19.1551 6.77942 19.1551 6.82645 19.1466C6.84207 19.1398 6.85541 19.1287 6.86487 19.1145C6.87432 19.1003 6.8795 19.0837 6.87978 19.0666C6.88542 19.0541 6.88834 19.0404 6.88834 19.0266C6.88834 19.0129 6.88542 18.9992 6.87978 18.9866C6.77597 18.9476 6.66888 18.9178 6.55978 18.8978C6.43905 18.8831 6.32339 18.8405 6.22201 18.7733C6.19469 18.7452 6.17348 18.7117 6.15971 18.675C6.14595 18.6383 6.13992 18.5991 6.14201 18.56C6.14182 18.5078 6.15283 18.4562 6.1743 18.4087C6.19577 18.3611 6.2272 18.3188 6.26645 18.2844C6.36863 18.2006 6.49909 18.1593 6.63089 18.1689C6.7633 18.1589 6.89584 18.1866 7.01312 18.2489Z" fill="#00517D"/>
<path d="M7.47577 18.3289C7.52809 18.2715 7.59313 18.2271 7.66567 18.1993C7.73822 18.1715 7.81626 18.1611 7.89355 18.1689C8.01368 18.1689 8.13223 18.1962 8.24022 18.2489C8.28956 18.2767 8.32945 18.3187 8.35479 18.3694C8.38013 18.4201 8.38976 18.4771 8.38244 18.5333V19.0755C8.37855 19.1199 8.37855 19.1645 8.38244 19.2089C8.37619 19.2213 8.37293 19.235 8.37293 19.2489C8.37293 19.2628 8.37619 19.2765 8.38244 19.2889V19.3333H8.11577C8.11577 19.3333 8.11577 19.2889 8.11577 19.2711C8.11577 19.2533 8.11577 19.2711 8.11577 19.2L7.97355 19.3155C7.90605 19.3541 7.82896 19.3726 7.75133 19.3689C7.70321 19.3725 7.65485 19.3664 7.60908 19.3512C7.5633 19.3359 7.52101 19.3117 7.48466 19.28C7.44857 19.2479 7.42023 19.208 7.40176 19.1633C7.38328 19.1187 7.37516 19.0704 7.37799 19.0222C7.37461 18.9598 7.3886 18.8977 7.41842 18.8428C7.44823 18.7878 7.4927 18.7423 7.54688 18.7111C7.62963 18.6671 7.72026 18.6399 7.81355 18.6311H7.92021C7.94507 18.6467 7.97201 18.6586 8.00021 18.6667C8.01894 18.6608 8.03521 18.6489 8.04646 18.6328C8.05772 18.6167 8.06333 18.5974 8.06244 18.5778C8.06806 18.565 8.07088 18.5512 8.07073 18.5373C8.07058 18.5234 8.06746 18.5096 8.06157 18.497C8.05568 18.4844 8.04715 18.4731 8.03657 18.4641C8.02599 18.455 8.01359 18.4483 8.00021 18.4444C7.95327 18.4351 7.90494 18.4351 7.85799 18.4444C7.83442 18.4407 7.81031 18.4419 7.78725 18.4481C7.7642 18.4543 7.74272 18.4654 7.72424 18.4805C7.70576 18.4956 7.6907 18.5145 7.68005 18.5358C7.66939 18.5572 7.66339 18.5806 7.66244 18.6044H7.38688C7.38855 18.5058 7.41949 18.4099 7.47577 18.3289ZM7.70688 19.1467C7.74109 19.1605 7.77934 19.1605 7.81355 19.1467C7.87677 19.1468 7.93864 19.1283 7.99133 19.0933C8.0212 19.0667 8.04469 19.0337 8.06008 18.9968C8.07547 18.9599 8.08235 18.9199 8.08021 18.88V18.7644H8.01799H7.93799H7.86688C7.82012 18.7711 7.77494 18.7861 7.73355 18.8089C7.71031 18.8198 7.69101 18.8376 7.67828 18.8598C7.66555 18.8821 7.66001 18.9078 7.66244 18.9333C7.642 18.9457 7.6259 18.9641 7.61637 18.9861C7.60684 19.008 7.60434 19.0323 7.60921 19.0557C7.61409 19.0791 7.6261 19.1004 7.64359 19.1167C7.66108 19.133 7.68319 19.1435 7.70688 19.1467Z" fill="#00517D"/>
<path d="M9.20883 18.4267C9.16349 18.422 9.11788 18.4325 9.07922 18.4567C9.04057 18.4808 9.0111 18.5172 8.99549 18.5601C8.98618 18.6189 8.98618 18.6789 8.99549 18.7378V19.3689H8.65771V18.2045H8.95994V18.3734C8.98524 18.3216 9.02166 18.2761 9.0666 18.2401C9.13873 18.1951 9.22166 18.1706 9.3066 18.1689C9.41494 18.1701 9.52036 18.2042 9.60883 18.2667C9.64923 18.3073 9.68046 18.3561 9.70039 18.4097C9.72033 18.4634 9.72851 18.5207 9.72438 18.5778V19.3689H9.40438V18.6667C9.41772 18.6203 9.41772 18.571 9.40438 18.5245C9.38734 18.4887 9.35884 18.4597 9.32341 18.442C9.28798 18.4243 9.24766 18.4189 9.20883 18.4267Z" fill="#00517D"/>
<path d="M10.5421 19.1556V19.3778H10.3998C10.3473 19.3872 10.2933 19.3858 10.2414 19.3736C10.1894 19.3613 10.1405 19.3386 10.0976 19.3067C10.0776 19.2837 10.0626 19.2569 10.0534 19.2278C10.0442 19.1988 10.0411 19.1681 10.0443 19.1378V18.4178H9.88428V18.2045H10.0443V17.8756H10.3465V18.2045H10.5421V18.4178H10.3465V19.0401C10.3386 19.0692 10.3386 19.0998 10.3465 19.1289C10.3846 19.1371 10.424 19.1371 10.4621 19.1289H10.5243L10.5421 19.1556Z" fill="#00517D"/>
<path d="M10.782 18.3289C10.8343 18.2715 10.8994 18.2271 10.9719 18.1993C11.0445 18.1715 11.1225 18.1611 11.1998 18.1689C11.3172 18.168 11.4331 18.1954 11.5376 18.2489C11.5894 18.2745 11.6319 18.3157 11.659 18.3667C11.6861 18.4178 11.6965 18.4761 11.6887 18.5333V19.0755C11.6848 19.1199 11.6848 19.1645 11.6887 19.2089C11.6824 19.2213 11.6792 19.235 11.6792 19.2489C11.6792 19.2628 11.6824 19.2765 11.6887 19.2889C11.7033 19.2926 11.7185 19.2926 11.7331 19.2889V19.3333H11.3953C11.3915 19.3128 11.3915 19.2917 11.3953 19.2711C11.3953 19.2711 11.3953 19.2711 11.3953 19.2L11.2531 19.3155C11.1827 19.3548 11.1025 19.3733 11.022 19.3689C10.9753 19.3718 10.9285 19.3654 10.8843 19.3501C10.84 19.3349 10.7992 19.311 10.7642 19.28C10.7281 19.2479 10.6998 19.208 10.6813 19.1633C10.6629 19.1187 10.6547 19.0704 10.6576 19.0222C10.6531 18.9597 10.6667 18.8971 10.6966 18.842C10.7265 18.7869 10.7716 18.7415 10.8265 18.7111C10.9092 18.6671 10.9998 18.6399 11.0931 18.6311H11.1998C11.2408 18.6395 11.2832 18.6395 11.3242 18.6311C11.343 18.6252 11.3592 18.6133 11.3705 18.5973C11.3817 18.5812 11.3874 18.5618 11.3865 18.5422C11.3865 18.5227 11.3817 18.5036 11.3723 18.4865C11.363 18.4694 11.3495 18.4549 11.3331 18.4444C11.2861 18.4359 11.2379 18.4359 11.1909 18.4444C11.162 18.4414 11.1327 18.4446 11.1051 18.4538C11.0776 18.463 11.0522 18.478 11.0309 18.4978C11.0123 18.5316 10.9974 18.5674 10.9865 18.6044H10.6665C10.6705 18.5017 10.7115 18.4038 10.782 18.3289ZM11.0131 19.1467C11.0473 19.1605 11.0856 19.1605 11.1198 19.1467C11.183 19.1468 11.2449 19.1283 11.2976 19.0933C11.3274 19.0667 11.3509 19.0337 11.3663 18.9968C11.3817 18.9599 11.3886 18.9199 11.3865 18.88V18.7644H11.3242H11.2442H11.1731C11.1264 18.7711 11.0812 18.7861 11.0398 18.8089C11.0157 18.8186 10.9955 18.8362 10.9826 18.8587C10.9697 18.8813 10.9648 18.9076 10.9687 18.9333C10.9482 18.9457 10.9321 18.9641 10.9226 18.9861C10.9131 19.008 10.9106 19.0323 10.9155 19.0557C10.9203 19.0791 10.9323 19.1004 10.9498 19.1167C10.9673 19.133 10.9894 19.1435 11.0131 19.1467Z" fill="#00517D"/>
<path d="M12.5511 18.4801C12.5021 18.4748 12.4525 18.4838 12.4084 18.5058C12.3643 18.5279 12.3275 18.5621 12.3022 18.6045C12.2897 18.6721 12.2897 18.7414 12.3022 18.8089V19.3689H12V18.1956H12.2844V18.4001L12.4089 18.2401C12.4772 18.1941 12.5576 18.1693 12.64 18.1689V18.4889H12.5511V18.4801Z" fill="#00517D"/>
<path d="M12.8624 18.3289C12.9147 18.2715 12.9797 18.2271 13.0523 18.1993C13.1248 18.1715 13.2029 18.1611 13.2802 18.1689C13.4004 18.1679 13.5192 18.1953 13.6268 18.2489C13.677 18.2764 13.7181 18.318 13.7449 18.3685C13.7718 18.4191 13.7833 18.4763 13.7779 18.5333V19.2089C13.7698 19.2349 13.7698 19.2628 13.7779 19.2889C13.7925 19.2926 13.8078 19.2926 13.8224 19.2889V19.3333H13.5113V19.2711C13.5163 19.2477 13.5163 19.2234 13.5113 19.2C13.4698 19.2453 13.4219 19.2843 13.3691 19.3155C13.3019 19.3551 13.2246 19.3736 13.1468 19.3689C13.0987 19.3725 13.0504 19.3664 13.0046 19.3512C12.9588 19.3359 12.9165 19.3117 12.8802 19.28C12.8441 19.2479 12.8157 19.208 12.7973 19.1633C12.7788 19.1187 12.7707 19.0704 12.7735 19.0222C12.7701 18.9598 12.7841 18.8977 12.8139 18.8428C12.8437 18.7878 12.8882 18.7423 12.9424 18.7111C13.0256 18.6683 13.116 18.6412 13.2091 18.6311H13.3157C13.3568 18.6395 13.3991 18.6395 13.4402 18.6311C13.4589 18.6252 13.4752 18.6133 13.4864 18.5973C13.4977 18.5812 13.5033 18.5618 13.5024 18.5422C13.5067 18.5233 13.5046 18.5035 13.4966 18.4859C13.4886 18.4682 13.475 18.4537 13.4579 18.4444C13.4079 18.436 13.3568 18.436 13.3068 18.4444C13.2833 18.4407 13.2591 18.4419 13.2361 18.4481C13.213 18.4543 13.1916 18.4654 13.1731 18.4805C13.1546 18.4956 13.1395 18.5145 13.1289 18.5358C13.1182 18.5572 13.1122 18.5806 13.1113 18.6044H12.8091C12.8 18.5094 12.8185 18.4137 12.8624 18.3289ZM13.0935 19.1467C13.1279 19.1596 13.1658 19.1596 13.2002 19.1467C13.2634 19.1468 13.3253 19.1283 13.3779 19.0933C13.4095 19.0681 13.4342 19.0354 13.4498 18.9981C13.4653 18.9608 13.4712 18.9202 13.4668 18.88V18.7644H13.4046H13.3246H13.2624C13.2125 18.7698 13.1642 18.7849 13.1202 18.8089C13.0982 18.8235 13.0803 18.8434 13.0679 18.8666C13.0555 18.8899 13.049 18.9159 13.0491 18.9422C13.0363 18.9578 13.0272 18.976 13.0225 18.9956C13.0177 19.0151 13.0175 19.0355 13.0218 19.0552C13.026 19.0749 13.0347 19.0933 13.0471 19.1092C13.0596 19.125 13.0754 19.1378 13.0935 19.1467Z" fill="#00517D"/>
<path d="M14.6577 17.7778H14.9866V19.3601H14.6577V17.7778Z" fill="#00517D"/>
<path d="M15.8223 18.4267C15.777 18.422 15.7313 18.4325 15.6927 18.4567C15.654 18.4808 15.6246 18.5172 15.609 18.56C15.5953 18.6185 15.5953 18.6793 15.609 18.7378V19.3689H15.2979V18.2045H15.6001V18.3734C15.6254 18.3216 15.6618 18.2761 15.7067 18.24C15.7866 18.1854 15.8811 18.1561 15.9779 18.1561C16.0746 18.1561 16.1691 18.1854 16.249 18.24C16.2894 18.2806 16.3206 18.3294 16.3405 18.383C16.3605 18.4367 16.3686 18.494 16.3645 18.5511V19.3422H16.0001V18.6667C16.0179 18.621 16.0179 18.5702 16.0001 18.5245C16.0001 18.4534 15.9112 18.4267 15.8223 18.4267Z" fill="#00517D"/>
<path d="M17.1642 17.7778V18.0267H17.0842C17.0553 18.0178 17.0243 18.0178 16.9953 18.0267C16.9878 18.0468 16.9878 18.0689 16.9953 18.0889V18.1956H17.1909V18.4089H16.9776V19.3511H16.6664V18.4267H16.4976V18.2134H16.6664V18.1334C16.6549 18.0427 16.6771 17.951 16.7287 17.8756C16.7761 17.8045 16.8827 17.7689 17.0487 17.7689H17.1642V17.7778Z" fill="#00517D"/>
<path d="M17.9378 18.4801C17.8888 18.4748 17.8393 18.4838 17.7952 18.5058C17.751 18.5279 17.7142 18.5621 17.6889 18.6045C17.6764 18.6721 17.6764 18.7414 17.6889 18.8089V19.3689H17.3867V18.1956H17.6801V18.4001C17.7107 18.3391 17.753 18.2848 17.8045 18.2401C17.8696 18.1943 17.9471 18.1695 18.0267 18.1689V18.4801H17.9378Z" fill="#00517D"/>
<path d="M18.2486 18.3289C18.3014 18.272 18.3665 18.228 18.4389 18.2003C18.5114 18.1725 18.5892 18.1618 18.6664 18.1689C18.7867 18.1679 18.9054 18.1953 19.0131 18.2489C19.0633 18.2764 19.1043 18.318 19.1312 18.3685C19.158 18.419 19.1695 18.4763 19.1642 18.5333V19.2089C19.156 19.2349 19.156 19.2628 19.1642 19.2889C19.1788 19.2926 19.1941 19.2926 19.2086 19.2889V19.3333H18.8798V19.2711C18.8841 19.2476 18.8841 19.2235 18.8798 19.2C18.8383 19.2453 18.7904 19.2842 18.7375 19.3155C18.6704 19.355 18.593 19.3736 18.5153 19.3689C18.4672 19.3724 18.4188 19.3664 18.3731 19.3512C18.3273 19.3359 18.285 19.3117 18.2486 19.28C18.2118 19.2488 18.1835 19.2088 18.1664 19.1637C18.1493 19.1186 18.144 19.0699 18.1509 19.0222C18.1466 18.9607 18.1592 18.8992 18.1875 18.8443C18.2157 18.7895 18.2583 18.7434 18.3109 18.7111C18.3968 18.6671 18.4903 18.6399 18.5864 18.6311H18.6664C18.7074 18.6403 18.7499 18.6403 18.7909 18.6311C18.8096 18.6252 18.8259 18.6133 18.8371 18.5972C18.8484 18.5812 18.854 18.5618 18.8531 18.5422C18.8574 18.5233 18.8553 18.5035 18.8473 18.4858C18.8393 18.4682 18.8257 18.4536 18.8086 18.4444C18.7586 18.436 18.7076 18.436 18.6575 18.4444C18.634 18.4406 18.6099 18.4419 18.5868 18.4481C18.5637 18.4543 18.5423 18.4653 18.5238 18.4805C18.5053 18.4956 18.4902 18.5144 18.4796 18.5358C18.4689 18.5572 18.4629 18.5806 18.462 18.6044H18.1598C18.1614 18.5058 18.1924 18.4099 18.2486 18.3289ZM18.4798 19.1466C18.5141 19.1596 18.5521 19.1596 18.5864 19.1466C18.6497 19.1468 18.7115 19.1283 18.7642 19.0933C18.7958 19.0681 18.8205 19.0353 18.836 18.998C18.8516 18.9608 18.8574 18.9201 18.8531 18.88V18.7644H18.7998H18.7109H18.6664C18.6166 18.7698 18.5682 18.7849 18.5242 18.8089C18.5024 18.8215 18.4843 18.8396 18.4718 18.8615C18.4593 18.8833 18.4529 18.9081 18.4531 18.9333C18.4379 18.9477 18.4263 18.9655 18.4192 18.9852C18.4121 19.0049 18.4098 19.026 18.4124 19.0467C18.415 19.0675 18.4224 19.0874 18.4341 19.1047C18.4458 19.1221 18.4615 19.1364 18.4798 19.1466Z" fill="#00517D"/>
<path d="M20.2402 18.2489C20.2909 18.2831 20.332 18.3296 20.36 18.384C20.388 18.4383 20.4018 18.4988 20.4002 18.56H20.098C20.103 18.5276 20.103 18.4946 20.098 18.4622C20.0755 18.4383 20.0477 18.4202 20.0167 18.4094C19.9858 18.3986 19.9527 18.3953 19.9202 18.4C19.8735 18.389 19.8248 18.389 19.778 18.4C19.7685 18.4258 19.7685 18.4541 19.778 18.48C19.7707 18.4904 19.7668 18.5028 19.7668 18.5155C19.7668 18.5282 19.7707 18.5406 19.778 18.5511C19.8818 18.5902 19.9889 18.6199 20.098 18.64C20.1961 18.6577 20.288 18.7006 20.3647 18.7644C20.4252 18.8228 20.4603 18.9026 20.4625 18.9866C20.4642 19.0412 20.453 19.0954 20.4299 19.1448C20.4067 19.1942 20.3722 19.2375 20.3291 19.2711C20.2127 19.3537 20.0717 19.3945 19.9291 19.3866C19.7821 19.3972 19.6364 19.3528 19.5202 19.2622C19.477 19.2268 19.4425 19.1819 19.4194 19.1311C19.3963 19.0802 19.3852 19.0247 19.3869 18.9689H19.698C19.6992 19.0113 19.7149 19.0521 19.7425 19.0844C19.7714 19.1095 19.8055 19.1281 19.8423 19.1388C19.8791 19.1495 19.9178 19.1522 19.9558 19.1466C20.0028 19.1551 20.051 19.1551 20.098 19.1466C20.1136 19.1398 20.127 19.1286 20.1364 19.1145C20.1459 19.1003 20.1511 19.0837 20.1513 19.0666C20.151 19.0507 20.1468 19.0351 20.1391 19.0211C20.1313 19.0072 20.1203 18.9953 20.1069 18.9866C20.0031 18.9475 19.896 18.9178 19.7869 18.8977C19.6855 18.8733 19.5892 18.8311 19.5025 18.7733C19.4751 18.7452 19.4539 18.7117 19.4402 18.675C19.4264 18.6383 19.4204 18.5991 19.4225 18.56C19.4221 18.5069 19.4339 18.4544 19.4571 18.4067C19.4802 18.3589 19.514 18.3171 19.5558 18.2844C19.6543 18.2003 19.7822 18.1587 19.9113 18.1689C20.0259 18.1683 20.1388 18.1958 20.2402 18.2489Z" fill="#00517D"/>
<path d="M21.1998 19.1556V19.3778H21.0487C20.9975 19.387 20.945 19.3855 20.8945 19.3732C20.844 19.361 20.7966 19.3383 20.7553 19.3067C20.7353 19.2837 20.7203 19.2569 20.7111 19.2278C20.7019 19.1988 20.6988 19.1681 20.702 19.1378V18.4178H20.542V18.2045H20.702V17.8756H21.0042V18.2045H21.1998V18.4178H21.0042V19.0401C20.9963 19.0692 20.9963 19.0998 21.0042 19.1289C21.0423 19.1371 21.0817 19.1371 21.1198 19.1289H21.182L21.1998 19.1556Z" fill="#00517D"/>
<path d="M21.9824 18.4801C21.9333 18.4748 21.8838 18.4838 21.8397 18.5058C21.7956 18.5279 21.7587 18.5621 21.7335 18.6045C21.7165 18.6716 21.7165 18.7418 21.7335 18.8089V19.3689H21.4224V18.1956H21.7157V18.4001L21.8401 18.2401C21.9053 18.1943 21.9828 18.1695 22.0624 18.1689V18.4889H21.9735L21.9824 18.4801Z" fill="#00517D"/>
<path d="M23.0044 19.2089V19.2622L22.8622 19.3511H22.7022C22.6324 19.3576 22.5623 19.3434 22.5006 19.3102C22.439 19.2769 22.3885 19.2263 22.3555 19.1645C22.3151 19.0691 22.2968 18.9657 22.3022 18.8622V18.1511H22.6222V18.8622C22.609 18.9117 22.609 18.9638 22.6222 19.0133C22.639 19.0427 22.6638 19.0666 22.6937 19.0824C22.7236 19.0981 22.7574 19.105 22.7911 19.1022C22.8351 19.1062 22.8793 19.0963 22.9176 19.074C22.9558 19.0517 22.9861 19.0181 23.0044 18.9778C23.0215 18.9167 23.0215 18.8522 23.0044 18.7911V18.1511H23.3155V19.3245H23.0222L23.0044 19.2089Z" fill="#00517D"/>
<path d="M24.6133 18.6667H24.2933C24.3057 18.6261 24.3057 18.5828 24.2933 18.5422C24.2675 18.5137 24.2345 18.4928 24.1978 18.4815C24.161 18.4702 24.1219 18.4691 24.0846 18.4782C24.0473 18.4873 24.0131 18.5063 23.9857 18.5332C23.9583 18.5601 23.9386 18.594 23.9288 18.6311C23.916 18.7016 23.916 18.7739 23.9288 18.8444C23.9154 18.9119 23.9154 18.9814 23.9288 19.0489C23.9393 19.0943 23.9657 19.1345 24.0032 19.1622C24.0406 19.1899 24.0868 19.2033 24.1333 19.2C24.1617 19.2042 24.1908 19.2006 24.2174 19.1896C24.244 19.1787 24.2671 19.1608 24.2844 19.1378C24.319 19.095 24.3378 19.0417 24.3377 18.9867H24.6577C24.6444 19.1179 24.582 19.2392 24.4832 19.3265C24.3844 19.4138 24.2563 19.4607 24.1244 19.4578C24.0466 19.4624 23.9687 19.4497 23.8965 19.4205C23.8242 19.3913 23.7593 19.3463 23.7066 19.2889C23.6138 19.1632 23.5667 19.0095 23.5733 18.8533C23.564 18.6831 23.6178 18.5153 23.7244 18.3822C23.7749 18.3245 23.8381 18.2792 23.9091 18.2499C23.98 18.2206 24.0567 18.2081 24.1333 18.2133C24.259 18.2093 24.3829 18.2433 24.4888 18.3111C24.5329 18.3586 24.5667 18.4147 24.5882 18.4759C24.6096 18.5371 24.6181 18.602 24.6133 18.6667Z" fill="#00517D"/>
<path d="M25.3599 19.1556V19.3778H25.2177C25.1651 19.3872 25.1112 19.3858 25.0592 19.3736C25.0073 19.3613 24.9583 19.3386 24.9155 19.3067C24.8955 19.2837 24.8804 19.2569 24.8713 19.2278C24.8621 19.1988 24.859 19.1681 24.8621 19.1378V18.4178H24.7021V18.2045H24.8888V17.8756H25.1999V18.2045H25.3866V18.4178H25.1999V19.0401C25.1999 19.0845 25.1999 19.1201 25.1999 19.1289C25.2348 19.1388 25.2717 19.1388 25.3066 19.1289H25.3688L25.3599 19.1556Z" fill="#00517D"/>
<path d="M26.311 19.2089V19.2622L26.1688 19.3511H26.0088C25.9391 19.3576 25.869 19.3434 25.8073 19.3102C25.7456 19.2769 25.6951 19.2263 25.6622 19.1645C25.6217 19.0691 25.6035 18.9657 25.6088 18.8622V18.1511H25.9199V18.8622C25.9115 18.9122 25.9115 18.9633 25.9199 19.0133C25.9358 19.0435 25.9605 19.0681 25.9906 19.0839C26.0208 19.0998 26.055 19.1062 26.0888 19.1022C26.1325 19.1038 26.1757 19.0929 26.2135 19.0709C26.2513 19.0489 26.282 19.0166 26.3021 18.9778C26.3108 18.9159 26.3108 18.853 26.3021 18.7911V18.1511H26.6133V19.3245H26.311V19.2089Z" fill="#00517D"/>
<path d="M27.4931 18.4801C27.4441 18.4748 27.3945 18.4838 27.3504 18.5058C27.3063 18.5279 27.2694 18.5621 27.2442 18.6045C27.2273 18.6716 27.2273 18.7418 27.2442 18.8089V19.3689H26.9331V18.1956H27.2264V18.4001C27.26 18.341 27.3019 18.2871 27.3509 18.2401C27.416 18.1943 27.4935 18.1695 27.5731 18.1689H27.5553V18.4801H27.4664H27.4931Z" fill="#00517D"/>
<path d="M28.7643 19.0312C28.7491 19.1081 28.7121 19.1791 28.6576 19.2356C28.604 19.2948 28.5379 19.3415 28.4642 19.3722C28.3904 19.403 28.3108 19.417 28.231 19.4134C28.0864 19.4129 27.9472 19.3591 27.8399 19.2623C27.7778 19.2036 27.7303 19.1313 27.701 19.0511C27.6716 18.9708 27.6614 18.8849 27.671 18.8C27.6636 18.7154 27.6732 18.6302 27.6992 18.5493C27.7251 18.4684 27.7669 18.3935 27.8221 18.3289C27.8736 18.2755 27.9359 18.2335 28.0049 18.206C28.0738 18.1784 28.1479 18.1658 28.2221 18.1689C28.3136 18.1694 28.4041 18.1875 28.4887 18.2223C28.5665 18.2585 28.6316 18.3174 28.6754 18.3912C28.7258 18.4652 28.7564 18.5509 28.7643 18.64C28.7691 18.717 28.7691 18.7942 28.7643 18.8712H27.9554C27.955 18.9186 27.9652 18.9656 27.9852 19.0086C28.0051 19.0517 28.0345 19.0897 28.071 19.12C28.1205 19.1328 28.1725 19.1328 28.2221 19.12C28.2773 19.1217 28.3312 19.1027 28.3732 19.0667L28.4354 18.9867L28.7643 19.0312ZM28.4443 18.6667C28.4443 18.6318 28.4372 18.5973 28.4235 18.5652C28.4097 18.5331 28.3896 18.5041 28.3643 18.48C28.3205 18.4403 28.2635 18.4181 28.2043 18.4178C28.1408 18.4183 28.0801 18.4438 28.0354 18.4889C27.9991 18.5423 27.9748 18.603 27.9643 18.6667H28.4443Z" fill="#00517D"/>
</g>
<defs>
<clipPath id="clip0_2707_314333">
<rect width="32" height="32" fill="white"/>
</clipPath>
</defs>
</svg>
