<svg width="32" height="32" viewBox="0 0 32 32" fill="none" xmlns="http://www.w3.org/2000/svg">
<g clip-path="url(#clip0_2707_314068)">
<path d="M15.9998 31.9823C24.8265 31.9823 31.982 24.8268 31.982 16C31.982 7.17331 24.8265 0.0178223 15.9998 0.0178223C7.17306 0.0178223 0.0175781 7.17331 0.0175781 16C0.0175781 24.8268 7.17306 31.9823 15.9998 31.9823Z" fill="white"/>
<path d="M8 12.6489L8.72 11.0756L11.6 17.44H10.5067V17.3689C10.5067 17.3245 10.5067 17.2889 10.4444 17.2533L10.1867 16.7645L9.77778 16L9.52 15.5111L9.11111 14.7289L8.8 14.2222L8.36444 13.3333C8.24889 13.12 8.13333 12.9067 8.02667 12.6933L8 12.6489Z" fill="#6A8FC9"/>
<path d="M9.3954 17.4489H5.83984L5.91984 17.2623L6.18651 16.6845C6.23984 16.56 6.29318 16.4356 6.3554 16.3112L6.58651 15.7778L6.78207 15.3689L7.11095 14.6045L7.21762 14.3556C7.21762 14.2756 7.29762 14.2045 7.33318 14.1245C7.36873 14.0445 7.38651 14.1778 7.40429 14.2045L7.77762 14.8L8.17762 15.4489C8.29318 15.6445 8.41762 15.84 8.54207 16.0356L8.82651 16.4978C9.00429 16.7823 9.18207 17.0667 9.35096 17.3867C9.36757 17.4061 9.38244 17.4269 9.3954 17.4489Z" fill="#71B7E5"/>
<path d="M9.39513 17.4489C9.3988 17.4164 9.3988 17.3836 9.39513 17.3511L8.87069 16.4622C8.77291 16.3111 8.67513 16.16 8.58624 16C8.49735 15.84 8.33735 15.6089 8.2218 15.4134L7.8218 14.7645L7.41291 14.2222C7.41291 14.2222 7.41291 14.1511 7.3418 14.1422V14.0978L7.49291 13.7778L7.75957 13.1822C7.81291 13.0578 7.87513 12.9245 7.92846 12.7911C7.9818 12.6578 7.92846 12.7378 7.9818 12.7289L8.35513 13.3334L8.79957 14.1689L9.06624 14.6667L9.47513 15.4489L9.77735 16L10.204 16.8L10.4618 17.2889C10.4618 17.2889 10.4618 17.36 10.524 17.4045V17.4756H9.39513V17.4489Z" fill="#70AFDF"/>
<path d="M4.73768 17.4401H3.61768L6.51545 12.7645C6.64879 12.9601 6.75545 13.1556 6.8799 13.3423L6.32879 14.3912L5.92879 15.1467L5.20879 16.5067L4.83545 17.2179C4.7958 17.2886 4.76305 17.363 4.73768 17.4401Z" fill="#546796"/>
<path d="M4.73779 17.4401C4.75776 17.3852 4.78153 17.3317 4.8089 17.2801L5.18224 16.569L5.90224 15.209L6.30224 14.4534C6.4889 14.1068 6.67557 13.7601 6.85335 13.4045L6.91557 13.4668L7.31557 14.1068V14.1512L7.20002 14.3734C7.16689 14.4617 7.1283 14.5478 7.08446 14.6312L6.73779 15.3957L6.55113 15.8045L6.31113 16.3379C6.25779 16.4623 6.20446 16.5868 6.14224 16.7023C6.08002 16.8179 5.97335 17.0934 5.88446 17.2801L5.80446 17.4757H4.73779V17.4401Z" fill="#6AA7D5"/>
<path d="M12.2933 15.4045C12.4444 15.4045 12.4444 15.4045 12.5333 15.52L13.1644 16.3467V16.4L13.2089 16.3467C13.4311 16.0534 13.6533 15.7689 13.8667 15.4578C13.8796 15.4322 13.9004 15.4115 13.926 15.3987C13.9516 15.3859 13.9807 15.3817 14.0089 15.3867H14.08V17.4222H13.9111V15.6445L13.8667 15.6978L13.2533 16.4978C13.245 16.5141 13.2323 16.5278 13.2165 16.5372C13.2008 16.5466 13.1828 16.5515 13.1644 16.5511C13.1471 16.5515 13.13 16.5476 13.1145 16.5399C13.099 16.5321 13.0857 16.5208 13.0756 16.5067L12.48 15.7245L12.4444 15.6978C12.4444 15.6978 12.4444 15.7511 12.4444 15.7778V17.4134H12.2844C12.2844 17.3689 12.2756 15.5734 12.2933 15.4045Z" fill="#383130"/>
<path d="M20.8178 17.4134C20.7785 17.4272 20.7356 17.4267 20.6966 17.4121C20.6576 17.3975 20.625 17.3696 20.6045 17.3334L19.4222 15.7957C19.4033 15.7677 19.3791 15.7435 19.3511 15.7245V17.4134H19.1733V15.4045H19.3245L20.6489 17.1112V15.4045H20.8178V17.4134Z" fill="#3A3332"/>
<path d="M17.44 11.9912C17.5823 11.9912 17.5823 11.9912 17.6623 12.0801L18.8712 13.6357V13.6801V12.0001H19.04V14.0179H18.9245C18.915 14.0233 18.9043 14.0262 18.8934 14.0262C18.8825 14.0262 18.8717 14.0233 18.8623 14.0179C18.7378 13.849 18.6134 13.689 18.48 13.529L17.5912 12.4179V12.3645V14.0357H17.4312C17.4312 13.9557 17.4312 12.1601 17.44 11.9912Z" fill="#3A3332"/>
<path d="M27.1376 17.0845V15.4045H27.3065V17.4223H27.182L27.1287 17.3779L26.7109 16.8356L25.8931 15.7779L25.8487 15.7245V17.4045H25.6709V15.3956H25.7776C25.7776 15.3956 25.7776 15.3956 25.8309 15.4401L26.4265 16.2045L27.0753 17.0401V17.0845H27.1376Z" fill="#3A3332"/>
<path d="M7.34211 14.08L6.94211 13.4489C6.92628 13.4213 6.90513 13.3971 6.87988 13.3778L7.18211 12.8L7.55544 12.0978V12.1511C7.66211 12.3378 7.75988 12.5244 7.85766 12.7111C7.85766 12.7111 7.85766 12.7644 7.90211 12.7644C7.90211 12.7644 7.90211 12.8089 7.84877 12.8356L7.67988 13.2178L7.41322 13.8222C7.35988 13.9289 7.31544 14.0356 7.26211 14.1333L7.34211 14.08Z" fill="#8EC3EA"/>
<path d="M14.7374 14C14.6663 14 14.5952 14 14.5508 14C14.5063 14 14.4708 13.92 14.4441 13.8756C14.2752 13.6267 14.0974 13.3867 13.9285 13.1467L13.8841 13.0845H13.2085V13.9734H13.0308V11.9823H13.9197C14.008 11.968 14.098 11.968 14.1863 11.9823C14.2948 12.0235 14.3868 12.099 14.4485 12.1973C14.5102 12.2956 14.5381 12.4114 14.528 12.527C14.518 12.6426 14.4705 12.7517 14.3928 12.8379C14.3151 12.9241 14.2114 12.9826 14.0974 13.0045H14.0441L14.7374 14ZM13.2085 12.9156H13.9463H14.0885C14.1651 12.9075 14.2363 12.8728 14.2899 12.8176C14.3435 12.7624 14.3761 12.6901 14.3819 12.6134C14.3935 12.5659 14.395 12.5165 14.3862 12.4684C14.3775 12.4203 14.3586 12.3746 14.3309 12.3343C14.3032 12.294 14.2673 12.26 14.2255 12.2346C14.1837 12.2091 14.1371 12.1928 14.0885 12.1867C14.0356 12.1779 13.9815 12.1779 13.9285 12.1867H13.2085V12.9156Z" fill="#393231"/>
<path d="M16 11.9467C16.2546 11.946 16.4998 12.042 16.6863 12.2153C16.8727 12.3885 16.9865 12.6261 17.0045 12.88C17.0403 13.1505 16.9703 13.4244 16.8089 13.6444C16.7027 13.7915 16.557 13.9055 16.3886 13.9731C16.2203 14.0408 16.0363 14.0593 15.8578 14.0267C15.6127 14.0003 15.386 13.8838 15.2218 13.6999C15.0576 13.516 14.9675 13.2777 14.9689 13.0311C14.961 12.8569 14.9945 12.6832 15.0667 12.5244C15.1476 12.3465 15.2794 12.1966 15.4456 12.0938C15.6118 11.9909 15.8047 11.9397 16 11.9467ZM15.1111 12.9956C15.1111 13.04 15.1111 13.0933 15.1111 13.1378C15.1028 13.1908 15.1028 13.2448 15.1111 13.2978C15.1594 13.4573 15.2552 13.5982 15.3858 13.7017C15.5163 13.8052 15.6754 13.8664 15.8417 13.877C16.0079 13.8877 16.1735 13.8472 16.3162 13.7612C16.4589 13.6752 16.5718 13.5476 16.64 13.3956C16.6939 13.2907 16.7263 13.1762 16.7354 13.0587C16.7446 12.9412 16.7303 12.823 16.6934 12.7111C16.6563 12.5651 16.5779 12.4329 16.4675 12.3305C16.3571 12.228 16.2195 12.1595 16.0711 12.1333C15.9189 12.0985 15.7598 12.1085 15.6131 12.1622C15.4664 12.2158 15.3384 12.3107 15.2445 12.4356C15.1391 12.6023 15.0922 12.7993 15.1111 12.9956Z" fill="#393231"/>
<path d="M16.613 16.4889C16.613 16.7438 16.5161 16.9891 16.3421 17.1752C16.168 17.3612 15.9296 17.4742 15.6754 17.4912C15.4211 17.5081 15.1699 17.4278 14.9727 17.2664C14.7754 17.1051 14.6468 16.8748 14.613 16.6223C14.5762 16.4695 14.5738 16.3105 14.6061 16.1568C14.6384 16.003 14.7045 15.8584 14.7997 15.7334C14.8811 15.6209 14.9861 15.5276 15.1074 15.46C15.2288 15.3924 15.3634 15.3522 15.5019 15.3423C15.6545 15.3277 15.8085 15.3477 15.9524 15.4007C16.0963 15.4537 16.2264 15.5384 16.3331 15.6485C16.4398 15.7586 16.5203 15.8914 16.5688 16.0368C16.6173 16.1823 16.6324 16.3368 16.613 16.4889ZM16.4441 16.4089C16.4343 16.3163 16.4195 16.2243 16.3997 16.1334C16.3602 15.9843 16.2793 15.8495 16.1665 15.7444C16.0537 15.6393 15.9134 15.5683 15.762 15.5395C15.6105 15.5107 15.454 15.5253 15.3104 15.5816C15.1669 15.6379 15.0422 15.7337 14.9508 15.8578C14.8623 15.9723 14.8031 16.1066 14.7784 16.2491C14.7536 16.3916 14.7639 16.538 14.8086 16.6756C14.8445 16.8103 14.9139 16.9338 15.0103 17.0345C15.1068 17.1353 15.2271 17.2099 15.3602 17.2516C15.4933 17.2933 15.6347 17.3007 15.7714 17.273C15.9081 17.2453 16.0355 17.1835 16.1419 17.0934C16.239 17.0081 16.3163 16.9027 16.3685 16.7845C16.4207 16.6663 16.4465 16.5381 16.4441 16.4089Z" fill="#393231"/>
<path d="M23.5284 15.3867H23.6796C23.9818 16.0623 24.284 16.7378 24.5684 17.4134H24.3818L24.1507 16.8889H23.0484L22.7907 17.4667H22.604C22.9151 16.7378 23.2173 16.0623 23.5284 15.3867ZM23.6084 15.6356C23.4236 15.9759 23.2574 16.3261 23.1107 16.6845C23.3596 16.6845 23.9996 16.6845 24.0529 16.6845C23.8929 16.3467 23.7418 16.0001 23.5818 15.6534L23.6084 15.6356Z" fill="#3A3332"/>
<path d="M18.4974 15.3956H18.6663V16.5512C18.6864 16.6629 18.6864 16.7773 18.6663 16.889C18.6262 17.0363 18.5414 17.1676 18.4236 17.2647C18.3058 17.3618 18.1608 17.42 18.0085 17.4312C17.883 17.4624 17.7518 17.4624 17.6263 17.4312C17.4977 17.3948 17.3821 17.323 17.2924 17.224C17.2028 17.125 17.1429 17.0027 17.1196 16.8712C17.106 16.7858 17.106 16.6988 17.1196 16.6134C17.1196 16.2312 17.1196 15.8401 17.1196 15.449H17.2885V16.5956C17.2888 16.7074 17.3068 16.8184 17.3418 16.9245C17.3781 17.0391 17.4487 17.1398 17.5441 17.2129C17.6395 17.286 17.7551 17.3281 17.8752 17.3334C17.9549 17.3421 18.0354 17.3421 18.1152 17.3334C18.2273 17.309 18.3292 17.2507 18.4071 17.1664C18.485 17.0822 18.5351 16.976 18.5507 16.8623C18.5594 16.7736 18.5594 16.6843 18.5507 16.5956V15.3956H18.4974Z" fill="#383130"/>
<path d="M21.8756 15.5645H21.1733V15.4045H22.7645V15.5645H22.0533V17.4134H21.8756V15.5645Z" fill="#3A3332"/>
<path d="M25.1019 17.4223H24.9419V15.4045H25.1019V17.4223Z" fill="#3A3332"/>
<path d="M12.4799 11.9912H12.311V14.009H12.4799V11.9912Z" fill="#3A3332"/>
<path d="M28.3642 15.5734V15.7423C28.3531 15.8075 28.3225 15.8679 28.2765 15.9154C28.2305 15.963 28.1713 15.9956 28.1065 16.009C28.0714 16.0176 28.0348 16.0176 27.9998 16.009C27.9008 16.009 27.8058 15.9696 27.7358 15.8996C27.6658 15.8296 27.6265 15.7347 27.6265 15.6356C27.6264 15.5358 27.6655 15.4399 27.7353 15.3685C27.805 15.297 27.9 15.2557 27.9998 15.2534C28.0705 15.2533 28.1398 15.2733 28.1996 15.3111C28.2594 15.3489 28.3073 15.4028 28.3376 15.4668L28.3642 15.5734ZM28.3198 15.6534C28.3198 15.5685 28.2861 15.4872 28.2261 15.4271C28.1661 15.3671 28.0847 15.3334 27.9998 15.3334C27.9156 15.3357 27.8355 15.3701 27.776 15.4296C27.7165 15.4892 27.682 15.5693 27.6798 15.6534C27.6798 15.7368 27.7123 15.8168 27.7704 15.8766C27.8285 15.9364 27.9076 15.9711 27.9909 15.9734C28.0758 15.9734 28.1572 15.9397 28.2172 15.8797C28.2772 15.8197 28.3109 15.7383 28.3109 15.6534H28.3198Z" fill="#463F3E"/>
<path d="M27.9285 15.6978V15.849H27.8574V15.4401H28.0619C28.0854 15.4419 28.1079 15.4504 28.1268 15.4646C28.1457 15.4787 28.1602 15.498 28.1685 15.5201C28.1768 15.5441 28.1769 15.5702 28.1689 15.5943C28.1609 15.6184 28.1451 15.6391 28.1241 15.6534L28.2396 15.8223C28.1685 15.8223 28.1685 15.8223 28.133 15.8223L28.0796 15.7423C28.0765 15.7264 28.069 15.7116 28.0581 15.6996C28.0471 15.6877 28.0331 15.6789 28.0175 15.6743C28.002 15.6697 27.9854 15.6695 27.9698 15.6737C27.9541 15.6778 27.9398 15.6862 27.9285 15.6978ZM27.9285 15.6178H28.0441C28.0441 15.6178 28.0974 15.6178 28.0974 15.5734C28.0974 15.5676 28.0963 15.5618 28.094 15.5564C28.0918 15.551 28.0885 15.5461 28.0844 15.542C28.0803 15.5378 28.0754 15.5346 28.07 15.5323C28.0646 15.5301 28.0588 15.529 28.053 15.529H27.9285V15.6178Z" fill="#443D3B"/>
</g>
<defs>
<clipPath id="clip0_2707_314068">
<rect width="32" height="32" fill="white"/>
</clipPath>
</defs>
</svg>
