<svg width="32" height="32" viewBox="0 0 32 32" fill="none" xmlns="http://www.w3.org/2000/svg">
<g clip-path="url(#clip0_2707_313933)">
<path d="M16 32C24.8366 32 32 24.8366 32 16C32 7.16344 24.8366 0 16 0C7.16344 0 0 7.16344 0 16C0 24.8366 7.16344 32 16 32Z" fill="white"/>
<path d="M15.9998 29.3333C23.3636 29.3333 29.3332 23.3638 29.3332 16C29.3332 8.63616 23.3636 2.66663 15.9998 2.66663C8.63604 2.66663 2.6665 8.63616 2.6665 16C2.6665 23.3638 8.63604 29.3333 15.9998 29.3333Z" fill="white"/>
<path d="M3.25317 15.5911C3.32066 15.5777 3.39013 15.5777 3.45762 15.5911C3.50748 15.6117 3.55279 15.6419 3.59093 15.68C3.62907 15.7182 3.65928 15.7635 3.67984 15.8133C3.70658 15.9153 3.70658 16.0225 3.67984 16.1244C3.6639 16.1745 3.63651 16.2202 3.59984 16.2578C3.55837 16.2983 3.51027 16.3313 3.45762 16.3556C3.39013 16.369 3.32066 16.369 3.25317 16.3556H2.95095V16.8889H2.6665V15.5911H3.25317ZM3.17317 16.2044H3.27095H3.35095L3.40428 16.1422C3.41256 16.1102 3.41256 16.0765 3.40428 16.0444C3.41294 16.0094 3.41294 15.9728 3.40428 15.9378L3.35095 15.8844C3.32483 15.8768 3.29707 15.8768 3.27095 15.8844H2.95095V16.2756L3.17317 16.2044Z" fill="#231F20"/>
<path d="M3.63574 15.8311V15.5911H4.69352V15.8311H4.30241V16.8888H4.01796V15.8311H3.63574Z" fill="#231F20"/>
<path d="M5.64428 15.5911C5.71177 15.5777 5.78124 15.5777 5.84873 15.5911C5.9042 15.6101 5.95339 15.6439 5.99095 15.6889C6.02762 15.7265 6.05502 15.7722 6.07095 15.8222C6.09776 15.9212 6.09776 16.0255 6.07095 16.1244C6.05502 16.1745 6.02762 16.2202 5.99095 16.2578C5.95104 16.3001 5.90255 16.3335 5.84873 16.3556C5.78124 16.369 5.71177 16.369 5.64428 16.3556H5.33317V16.8889H5.05762V15.5911H5.64428ZM5.56428 16.2044H5.66206H5.74206C5.74206 16.2044 5.74206 16.2044 5.79539 16.1422C5.80367 16.1102 5.80367 16.0765 5.79539 16.0444C5.80405 16.0094 5.80405 15.9728 5.79539 15.9378C5.78241 15.9158 5.76406 15.8974 5.74206 15.8844C5.71594 15.8768 5.68818 15.8768 5.66206 15.8844H5.33317V16.2756L5.56428 16.2044Z" fill="#231F20"/>
<path d="M6.64013 15.5911L7.11124 16.8888H6.8268L6.72902 16.6044H6.22235L6.14235 16.8888H5.85791L6.3468 15.5911H6.64013ZM6.64013 16.3911L6.48902 15.9111L6.32013 16.3911H6.64013Z" fill="#231F20"/>
<path d="M7.37799 15.5911L7.91133 16.48V15.5911H8.17799V16.8888H7.90244L7.36022 16V16.8888H7.11133V15.5911H7.37799Z" fill="#231F20"/>
<path d="M9.12003 15.9378C9.10692 15.9084 9.08523 15.8836 9.05781 15.8667L8.97781 15.8223C8.94278 15.8136 8.90617 15.8136 8.87114 15.8223C8.81926 15.8046 8.76302 15.8046 8.71114 15.8223C8.66567 15.842 8.62813 15.8765 8.60447 15.92C8.57134 15.961 8.54984 16.0101 8.54225 16.0623C8.53297 16.1182 8.53297 16.1752 8.54225 16.2311C8.53346 16.2841 8.53346 16.3382 8.54225 16.3911C8.55169 16.44 8.57307 16.4858 8.60447 16.5245C8.62813 16.5681 8.66567 16.6025 8.71114 16.6223C8.75979 16.6505 8.81488 16.6658 8.87114 16.6667C8.90882 16.6676 8.94629 16.661 8.98139 16.6472C9.01649 16.6335 9.04851 16.6129 9.07559 16.5867C9.12652 16.5265 9.15757 16.4519 9.16447 16.3734H9.44003C9.43941 16.4505 9.42117 16.5265 9.3867 16.5956C9.35865 16.6558 9.31944 16.7101 9.27114 16.7556C9.22179 16.8055 9.16064 16.8422 9.09336 16.8623C9.02721 16.8826 8.95808 16.8916 8.88892 16.8889C8.79743 16.8885 8.70688 16.8704 8.62225 16.8356C8.54654 16.8047 8.47945 16.7559 8.4267 16.6934C8.36854 16.6334 8.32584 16.5602 8.30225 16.48C8.2696 16.3982 8.25446 16.3103 8.25781 16.2223C8.25506 16.1472 8.26406 16.0723 8.28447 16C8.30806 15.9199 8.35077 15.8467 8.40892 15.7867C8.46167 15.7242 8.52877 15.6754 8.60447 15.6445C8.75707 15.5917 8.92299 15.5917 9.07559 15.6445C9.137 15.6631 9.19432 15.6933 9.24447 15.7334C9.29758 15.7729 9.34028 15.8248 9.36892 15.8845C9.40796 15.9424 9.42956 16.0102 9.43114 16.08H9.15559C9.16142 16.0552 9.16124 16.0294 9.15505 16.0046C9.14887 15.9799 9.13686 15.957 9.12003 15.9378Z" fill="#231F20"/>
<path d="M10.1422 15.5911L10.6666 16.8888H10.3733L10.2755 16.6044H9.77773L9.67995 16.8888H9.39551L9.8844 15.5911H10.1422ZM10.1422 16.3911L9.97329 15.9111L9.8044 16.3911H10.1422Z" fill="#231F20"/>
<path d="M11.6001 15.5911L12.0801 16.8888H11.7868L11.689 16.6044H11.209L11.1023 16.8888H10.8179L11.3068 15.5911H11.6001ZM11.6001 16.3911L11.4312 15.9111L11.2623 16.3911H11.6001Z" fill="#231F20"/>
<path d="M12.3377 15.5911L12.8799 16.48V15.5911H13.1466V16.8888H12.8621L12.3199 16V16.8888H12.0532V15.5911H12.3377Z" fill="#231F20"/>
<path d="M14.2223 16.7911C14.1097 16.882 13.9666 16.9265 13.8223 16.9156C13.6751 16.9279 13.5288 16.8834 13.4134 16.7911C13.3613 16.7409 13.3208 16.6798 13.2947 16.6123C13.2686 16.5447 13.2575 16.4723 13.2623 16.4V15.5911H13.5468V16.4C13.5468 16.4 13.5468 16.4711 13.5468 16.4978C13.5402 16.5271 13.5402 16.5574 13.5468 16.5867C13.5645 16.6189 13.5927 16.644 13.6268 16.6578C13.6732 16.6711 13.7225 16.6711 13.769 16.6578C13.8055 16.6627 13.8427 16.6596 13.878 16.6489C13.9132 16.6381 13.9458 16.62 13.9734 16.5956C14.0213 16.5354 14.0437 16.4588 14.0356 16.3823V15.5734H14.3201V16.3823C14.3346 16.4534 14.3334 16.5269 14.3165 16.5975C14.2996 16.6682 14.2675 16.7342 14.2223 16.7911Z" fill="#231F20"/>
<path d="M15.2265 16.8888C15.165 16.9015 15.1014 16.9015 15.0399 16.8888C14.9482 16.8901 14.8573 16.8719 14.7732 16.8355C14.6935 16.8073 14.6229 16.7582 14.5688 16.6933C14.5138 16.6309 14.4716 16.5585 14.4443 16.48C14.4117 16.3981 14.3965 16.3103 14.3999 16.2222C14.3966 16.1283 14.4117 16.0347 14.4443 15.9466C14.4716 15.8681 14.5138 15.7956 14.5688 15.7333C14.6229 15.6684 14.6935 15.6193 14.7732 15.5911C14.8545 15.5464 14.9476 15.5278 15.0399 15.5377C15.1018 15.5291 15.1646 15.5291 15.2265 15.5377C15.288 15.5564 15.3453 15.5866 15.3954 15.6266C15.449 15.6661 15.4935 15.7168 15.5257 15.7751C15.5579 15.8334 15.5772 15.898 15.5821 15.9644H15.3065C15.3018 15.9325 15.2907 15.9019 15.2739 15.8745C15.2571 15.847 15.235 15.8231 15.2088 15.8044C15.1849 15.7826 15.1568 15.7658 15.1262 15.7551C15.0957 15.7444 15.0633 15.74 15.031 15.7422C14.9749 15.7445 14.9202 15.7597 14.871 15.7866C14.8255 15.8064 14.788 15.8408 14.7643 15.8844C14.7312 15.9254 14.7097 15.9745 14.7021 16.0266C14.6928 16.0825 14.6928 16.1396 14.7021 16.1955C14.6929 16.2455 14.6929 16.2967 14.7021 16.3466C14.7136 16.3976 14.7347 16.4458 14.7643 16.4888C14.788 16.5324 14.8255 16.5668 14.871 16.5866C14.9231 16.603 14.9789 16.603 15.031 16.5866C15.0709 16.5906 15.1112 16.5863 15.1495 16.5741C15.1877 16.5619 15.223 16.5419 15.2532 16.5155C15.3086 16.4617 15.3405 16.3883 15.3421 16.3111H15.0576V16.0977H15.5999V16.8888H15.4221V16.7377C15.3701 16.8032 15.303 16.8551 15.2265 16.8888Z" fill="#231F20"/>
<path d="M16.3909 15.5911C16.4408 15.5819 16.492 15.5819 16.542 15.5911C16.5884 15.6092 16.6307 15.6364 16.6664 15.6711C16.6952 15.7063 16.7191 15.7451 16.7376 15.7867C16.746 15.8307 16.746 15.876 16.7376 15.92C16.7454 15.9912 16.7298 16.063 16.6931 16.1244C16.6542 16.1817 16.5982 16.2253 16.5331 16.2489L16.622 16.2933C16.6452 16.3124 16.6635 16.3368 16.6753 16.3644C16.6789 16.394 16.6789 16.4238 16.6753 16.4533C16.6753 16.4533 16.6753 16.5245 16.6753 16.5511V16.6311C16.671 16.6576 16.671 16.6846 16.6753 16.7111C16.6753 16.7111 16.6753 16.7644 16.6753 16.7911C16.6705 16.8146 16.6705 16.8388 16.6753 16.8622H16.3909C16.3817 16.8123 16.3817 16.7611 16.3909 16.7111C16.3953 16.6579 16.3953 16.6044 16.3909 16.5511C16.3877 16.4952 16.3658 16.4419 16.3287 16.4C16.2854 16.3672 16.2317 16.3514 16.1776 16.3556H15.9998V16.8889H15.7153V15.5911H16.3909ZM16.2842 16.1778C16.3111 16.1813 16.3384 16.1791 16.3644 16.1714C16.3905 16.1638 16.4146 16.1508 16.4353 16.1333C16.4353 16.1333 16.4798 16.0622 16.4798 15.9911C16.4837 15.967 16.4817 15.9422 16.474 15.919C16.4663 15.8957 16.453 15.8747 16.4353 15.8578C16.3917 15.8257 16.3382 15.81 16.2842 15.8133H15.9998V16.1778H16.2842Z" fill="#231F20"/>
<path d="M17.5024 15.5911L17.9913 16.8888H17.6891L17.5913 16.6044H17.1113L17.0047 16.8888H16.7202L17.2091 15.5911H17.5024ZM17.5024 16.3911L17.3335 15.9111L17.1647 16.3911H17.5024Z" fill="#231F20"/>
<path d="M18.24 15.5911V16.0888H18.7645V15.5911H19.0489V16.8888H18.7645V16.3288H18.24V16.8888H17.9556V15.5911H18.24Z" fill="#231F20"/>
<path d="M20.4442 16.8888L20.222 16L19.9998 16.8888H19.7153L19.3687 15.5911H19.6531L19.8575 16.48L20.0798 15.5911H20.3464L20.5687 16.48L20.782 15.5911H21.0664L20.7553 16.8888H20.4442Z" fill="#231F20"/>
<path d="M21.3333 15.5911V16.8888H21.0488V15.5911H21.3333Z" fill="#231F20"/>
<path d="M21.698 16.5689C21.7111 16.5984 21.7328 16.6231 21.7602 16.64C21.7847 16.6634 21.8157 16.6789 21.8491 16.6845H21.9557H22.0446H22.1246C22.1494 16.6721 22.1708 16.6538 22.1869 16.6311C22.1972 16.6055 22.1972 16.5768 22.1869 16.5511C22.1925 16.5386 22.1954 16.5249 22.1954 16.5111C22.1954 16.4974 22.1925 16.4837 22.1869 16.4711C22.1629 16.4453 22.132 16.4268 22.098 16.4178L21.9735 16.3734H21.8313L21.6891 16.3289L21.5646 16.2667C21.5252 16.2369 21.494 16.1977 21.4738 16.1526C21.4536 16.1076 21.4451 16.0581 21.4491 16.0089C21.4457 15.9465 21.4612 15.8846 21.4935 15.8311C21.5215 15.7838 21.5576 15.7416 21.6002 15.7067C21.6502 15.6761 21.704 15.6522 21.7602 15.6356C21.8161 15.6269 21.8731 15.6269 21.9291 15.6356C21.9939 15.6264 22.0598 15.6264 22.1246 15.6356L22.2935 15.7067C22.3411 15.7424 22.3805 15.7879 22.4091 15.84C22.4375 15.9014 22.4526 15.968 22.4535 16.0356H22.178C22.1871 16.0036 22.1871 15.9698 22.178 15.9378C22.178 15.9378 22.178 15.8934 22.1246 15.8756H22.0446H21.8757H21.8135L21.7691 15.9289C21.7616 15.949 21.7616 15.9711 21.7691 15.9911C21.7642 16.0116 21.7642 16.0329 21.7691 16.0534C21.7859 16.073 21.8073 16.0882 21.8313 16.0978L21.9469 16.1423L22.1424 16.1867H22.2491L22.3735 16.2489C22.4185 16.2804 22.4576 16.3195 22.4891 16.3645C22.5171 16.4196 22.5323 16.4804 22.5335 16.5423C22.546 16.5949 22.546 16.6497 22.5335 16.7023C22.5082 16.754 22.4718 16.7995 22.4269 16.8356C22.3632 16.8675 22.2935 16.8857 22.2224 16.8889C22.1456 16.8981 22.0681 16.8981 21.9913 16.8889C21.9235 16.8982 21.8547 16.8982 21.7869 16.8889C21.7239 16.8715 21.6639 16.8445 21.6091 16.8089C21.5563 16.7727 21.5136 16.7238 21.4846 16.6667C21.453 16.6001 21.4378 16.527 21.4402 16.4534H21.7157C21.7007 16.4899 21.6946 16.5295 21.698 16.5689Z" fill="#231F20"/>
<path d="M23.4846 15.5911V15.8311H22.8002V16.1066H23.4224V16.3288H22.8002V16.6488H23.4935V16.8888H22.5068V15.5911H23.4846Z" fill="#231F20"/>
<path d="M23.7598 16.5689C23.7757 16.5965 23.7968 16.6207 23.8221 16.64C23.8499 16.6637 23.8837 16.6791 23.9198 16.6845H24.0265H24.1065H24.1865C24.2131 16.6749 24.2352 16.6559 24.2487 16.6311C24.2591 16.6055 24.2591 16.5768 24.2487 16.5511C24.2544 16.5385 24.2573 16.5249 24.2573 16.5111C24.2573 16.4973 24.2544 16.4837 24.2487 16.4711C24.2263 16.4434 24.1948 16.4245 24.1598 16.4178L23.9998 16.3556H23.8576L23.7154 16.3111C23.6714 16.2958 23.6296 16.2749 23.591 16.2489C23.5562 16.2179 23.5263 16.182 23.5021 16.1422C23.4889 16.0927 23.4889 16.0406 23.5021 15.9911C23.489 15.9326 23.489 15.8719 23.5021 15.8134C23.5333 15.7657 23.5724 15.7236 23.6176 15.6889L23.7687 15.6178C23.8277 15.609 23.8876 15.609 23.9465 15.6178C24.0114 15.609 24.0772 15.609 24.1421 15.6178L24.3021 15.6889C24.352 15.722 24.392 15.7681 24.4176 15.8222C24.45 15.8821 24.4654 15.9498 24.4621 16.0178H24.1865C24.1956 15.9858 24.1956 15.952 24.1865 15.92C24.1769 15.8935 24.158 15.8713 24.1332 15.8578C24.1071 15.8501 24.0793 15.8501 24.0532 15.8578H23.911H23.8487C23.8288 15.8733 23.8109 15.8912 23.7954 15.9111C23.7915 15.9317 23.7915 15.9528 23.7954 15.9733C23.7901 15.9938 23.7901 16.0152 23.7954 16.0356L23.8487 16.08L23.9732 16.1245L24.1687 16.1689H24.2665L24.3998 16.2311C24.4421 16.2629 24.4783 16.302 24.5065 16.3467C24.5388 16.4001 24.5543 16.4621 24.551 16.5245C24.5641 16.577 24.5641 16.6319 24.551 16.6845C24.5318 16.7374 24.4979 16.7836 24.4532 16.8178C24.404 16.8593 24.3464 16.8896 24.2843 16.9067C24.1891 16.9131 24.0935 16.9071 23.9998 16.8889H23.7954C23.7311 16.8752 23.6705 16.8479 23.6176 16.8089C23.5671 16.7702 23.5248 16.7219 23.4932 16.6667C23.4648 16.6022 23.4497 16.5327 23.4487 16.4622H23.7243C23.7275 16.5001 23.7397 16.5367 23.7598 16.5689Z" fill="#231F20"/>
<path d="M25.2266 15.5911L25.7066 16.8888H25.4132L25.3154 16.6044H24.8266L24.7288 16.8888H24.4443L24.9332 15.5911H25.2266ZM25.2266 16.3911L25.0577 15.9111L24.8888 16.3911H25.2266Z" fill="#231F20"/>
<path d="M25.938 15.8311V15.5911H26.9958V15.8311H26.6135V16.8888H26.3202V15.8311H25.938Z" fill="#231F20"/>
<path d="M27.6088 15.5911H27.7777C27.8258 15.5979 27.8715 15.6162 27.9111 15.6444C27.9452 15.6726 27.9752 15.7055 28 15.7422C28.0091 15.7921 28.0091 15.8433 28 15.8933C27.999 15.9524 27.9838 16.0103 27.9555 16.0622C27.9195 16.1071 27.8739 16.1435 27.8222 16.1688C27.892 16.1878 27.9542 16.2283 28 16.2844C28.043 16.347 28.0648 16.4218 28.0622 16.4977C28.0748 16.5533 28.0748 16.611 28.0622 16.6666C28.0365 16.7132 27.9999 16.7528 27.9555 16.7822L27.8044 16.8533H27.6355H27.0044V15.5911H27.6088ZM27.6088 16.1155C27.6493 16.1284 27.6928 16.1284 27.7333 16.1155C27.7505 16.1017 27.7643 16.0841 27.7736 16.064C27.7829 16.044 27.7873 16.022 27.7866 16C27.7908 15.9734 27.7908 15.9465 27.7866 15.92C27.7766 15.901 27.7611 15.8855 27.7422 15.8755H27.68H27.2888V16.1777L27.6088 16.1155ZM27.6088 16.6666H27.6888C27.712 16.6741 27.7368 16.6741 27.76 16.6666C27.7706 16.6612 27.78 16.6536 27.7876 16.6445C27.7952 16.6353 27.8009 16.6247 27.8044 16.6133C27.8086 16.5868 27.8086 16.5598 27.8044 16.5333C27.8079 16.5062 27.8039 16.4786 27.7929 16.4536C27.782 16.4285 27.7644 16.4069 27.7422 16.3911C27.6958 16.3772 27.6463 16.3772 27.6 16.3911H27.2888V16.7466L27.6088 16.6666Z" fill="#231F20"/>
<path d="M28.4444 15.5911V16.1333L28.9511 15.5911H29.3066L28.8 16.1066L29.3333 16.8888H28.9777L28.5866 16.3022L28.4177 16.4711V16.8888H28.1333V15.5911H28.4444Z" fill="#231F20"/>
</g>
<defs>
<clipPath id="clip0_2707_313933">
<rect width="32" height="32" fill="white"/>
</clipPath>
</defs>
</svg>
