<svg width="32" height="32" viewBox="0 0 32 32" fill="none" xmlns="http://www.w3.org/2000/svg">
<g clip-path="url(#clip0_2707_313753)">
<path d="M15.9998 31.9823C24.8265 31.9823 31.982 24.8268 31.982 16C31.982 7.17331 24.8265 0.0178223 15.9998 0.0178223C7.17306 0.0178223 0.0175781 7.17331 0.0175781 16C0.0175781 24.8268 7.17306 31.9823 15.9998 31.9823Z" fill="white"/>
<path d="M25.2175 21.0579H21.8486L17.9553 14.8356C17.8753 14.9512 17.8042 15.0223 17.7597 15.1023C16.5746 17.0282 15.3746 18.9601 14.1597 20.8979C14.1301 20.9648 14.0814 21.0216 14.0198 21.0611C13.9582 21.1006 13.8863 21.1211 13.8131 21.1201H10.7731C10.7731 21.1201 10.7731 21.1201 10.6753 21.0756L11.4842 19.7779C12.8827 17.5142 14.2842 15.2534 15.6886 12.9956C15.8931 12.6668 16.1153 12.3468 16.302 12.009C16.5134 11.6896 16.8139 11.4393 17.1663 11.2891C17.5187 11.139 17.9074 11.0957 18.2842 11.1645C18.5601 11.2032 18.8238 11.303 19.056 11.4568C19.2883 11.6107 19.4832 11.8145 19.6264 12.0534C21.1464 14.5245 22.6842 16.9779 24.2131 19.4401C24.542 19.9379 24.8886 20.4445 25.2175 21.0579Z" fill="#0E6235"/>
<path d="M7.88441 21.0578H4.52441C4.57775 20.9689 4.6133 20.8978 4.64886 20.8267L9.83997 12.4445C9.92886 12.3023 10.0355 12.1601 10.1155 12.0089C10.3237 11.6709 10.6303 11.4046 10.9941 11.2457C11.3579 11.0868 11.7616 11.043 12.1511 11.1201C12.4316 11.1582 12.6989 11.2628 12.9308 11.4252C13.1627 11.5875 13.3525 11.8029 13.4844 12.0534C13.84 12.6845 14.24 13.2889 14.64 13.9289L12.96 16.5956C12.5244 16.0001 12.2133 15.3689 11.7777 14.7645L7.88441 21.0578Z" fill="#0E6235"/>
<path d="M27.3599 12.4445L25.8666 12.7289C25.8388 12.6963 25.8149 12.6605 25.7954 12.6223C25.7207 12.4484 25.5925 12.303 25.4295 12.2071C25.2664 12.1112 25.077 12.0698 24.8888 12.0889C24.6745 12.0929 24.4669 12.1648 24.2961 12.2941C24.1252 12.4235 23.9997 12.6037 23.9377 12.8089C23.7689 13.3744 23.7689 13.9768 23.9377 14.5423C24.0052 14.8195 24.1793 15.059 24.4223 15.2088C24.6652 15.3586 24.9574 15.4065 25.2354 15.3423C25.5573 15.3077 25.8641 15.188 26.1243 14.9956V14.48H24.9954V13.3334H27.431C27.436 13.4014 27.436 13.4698 27.431 13.5378C27.431 14.1512 27.431 14.7645 27.431 15.3778C27.4355 15.4645 27.4163 15.5508 27.3756 15.6275C27.3349 15.7042 27.2742 15.7685 27.1999 15.8134C26.3912 16.3751 25.4037 16.6188 24.4266 16.4978C24.0626 16.4734 23.7066 16.3799 23.3777 16.2223C22.8572 15.9412 22.4655 15.4698 22.2843 14.9067C22.1025 14.4317 22.0313 13.9214 22.0759 13.4148C22.1206 12.9081 22.28 12.4182 22.5421 11.9823C22.7252 11.6696 22.984 11.4081 23.2947 11.2217C23.6053 11.0353 23.9579 10.93 24.3199 10.9156C24.7433 10.8934 25.1676 10.8934 25.591 10.9156C26.0209 10.9135 26.4369 11.0672 26.7621 11.3483C27.0874 11.6294 27.2997 12.0189 27.3599 12.4445Z" fill="#DC3131"/>
<path d="M15.1108 20.08L16.7997 17.36L19.0931 21.0489H15.7153L15.1108 20.08Z" fill="#0E6235"/>
</g>
<defs>
<clipPath id="clip0_2707_313753">
<rect width="32" height="32" fill="white"/>
</clipPath>
</defs>
</svg>
