<svg width="32" height="32" viewBox="0 0 32 32" fill="none" xmlns="http://www.w3.org/2000/svg">
<g clip-path="url(#clip0_2980_150225)">
<mask id="mask0_2980_150225" style="mask-type:luminance" maskUnits="userSpaceOnUse" x="0" y="0" width="32" height="32">
<path d="M31.9977 0.0185547H0.0273438V31.989H31.9977V0.0185547Z" fill="white"/>
</mask>
<g mask="url(#mask0_2980_150225)">
<path d="M16.0125 31.989C24.8409 31.989 31.9977 24.8321 31.9977 16.0038C31.9977 7.17537 24.8409 0.0185547 16.0125 0.0185547C7.18416 0.0185547 0.0273438 7.17537 0.0273438 16.0038C0.0273438 24.8321 7.18416 31.989 16.0125 31.989Z" fill="white"/>
<path fill-rule="evenodd" clip-rule="evenodd" d="M22.8207 6.0553V22.1702H6.08088V20.9369C6.32702 20.9332 6.56813 20.9958 6.81283 21.019C9.30098 21.2551 12.0024 20.7587 13.6864 18.783C13.9222 18.5064 14.1014 18.1955 14.3028 17.8948V21.7262H18.2V9.9278C18.2 9.92182 18.2168 9.90119 18.2192 9.88932L18.2405 9.8855C19.1833 9.8749 20.1275 9.9035 21.0701 9.88739C21.2836 9.88375 21.6116 9.89444 21.8102 9.87108C21.8342 9.86827 21.8525 9.86907 21.867 9.8456V7.36256L21.8102 7.33707C18.9503 7.35244 16.0895 7.35877 13.2256 7.35445C13.211 7.35495 13.2031 7.34613 13.193 7.33775C13.1441 7.29726 13.0064 7.02071 12.9375 6.93549C12.7368 6.68722 12.4325 6.44972 12.1638 6.27856L11.7869 6.0553H22.8207ZM22.8207 23.9297V25.9523H6.45091C6.31314 25.9523 6.06445 25.7036 6.06445 25.5659V23.9297H22.8207ZM25.9615 22.1702H23.9389V6.0553H25.575C25.6146 6.0553 25.7869 6.1542 25.8216 6.18691C25.8614 6.22444 25.9615 6.39421 25.9615 6.44173V22.1702ZM10.4879 9.75516H13.9904L14.0564 13.9389L14.015 13.9487C13.291 12.7799 12.0764 12.2074 10.7874 11.8646C9.57036 11.541 7.98312 11.4139 6.90442 10.7816C5.91683 10.2027 5.80215 8.83862 6.78938 8.20264C7.70098 7.61545 8.90745 7.67519 9.76301 8.33411C10.2099 8.67823 10.4475 9.19609 10.4879 9.75516ZM6.06445 13.6852C6.33052 13.776 6.58107 13.9023 6.85027 13.9929C7.62103 14.2524 8.47692 14.3484 9.226 14.6264C10.1211 14.9586 10.8341 15.9072 10.451 16.8796C10.0039 18.0147 8.47046 18.2099 7.40665 18.0901C6.95962 18.0398 6.46903 17.9324 6.06445 17.7386V13.6852ZM6.06445 22.5319H22.8207V22.8115H6.06445V22.5319ZM25.9615 23.9297V25.5659C25.9615 25.6134 25.8614 25.7831 25.8216 25.8207C25.7869 25.8534 25.6146 25.9523 25.575 25.9523H23.9389V23.9297H25.9615ZM23.9388 22.5319H25.9614V22.8115H23.9388V22.5319Z" fill="url(#paint0_linear_2980_150225)"/>
</g>
</g>
<defs>
<linearGradient id="paint0_linear_2980_150225" x1="6.56287" y1="16.0038" x2="24.953" y2="16.0038" gradientUnits="userSpaceOnUse">
<stop stop-color="#613335"/>
<stop offset="1" stop-color="#E12229"/>
</linearGradient>
<clipPath id="clip0_2980_150225">
<rect width="32" height="32" fill="white"/>
</clipPath>
</defs>
</svg>
