<svg width="32" height="32" viewBox="0 0 32 32" fill="none" xmlns="http://www.w3.org/2000/svg">
<g clip-path="url(#clip0_2707_312903)">
<path d="M15.9998 31.9822C24.8265 31.9822 31.982 24.8267 31.982 16C31.982 7.17325 24.8265 0.0177612 15.9998 0.0177612C7.17306 0.0177612 0.0175781 7.17325 0.0175781 16C0.0175781 24.8267 7.17306 31.9822 15.9998 31.9822Z" fill="white"/>
<path d="M12.9596 14.0089C14.5747 14.0089 15.884 12.6995 15.884 11.0844C15.884 9.46929 14.5747 8.15997 12.9596 8.15997C11.3445 8.15997 10.0352 9.46929 10.0352 11.0844C10.0352 12.6995 11.3445 14.0089 12.9596 14.0089Z" fill="url(#paint0_radial_2707_312903)"/>
<path fill-rule="evenodd" clip-rule="evenodd" d="M16.4533 5.63554C17.8359 6.52061 18.8305 7.89807 19.2355 9.48894C19.6406 11.0798 19.4259 12.7652 18.6349 14.2037C17.8439 15.6421 16.5357 16.7262 14.9754 17.2364C13.415 17.7465 11.7191 17.6445 10.2311 16.9511V14.7555C11.096 15.4069 12.1641 15.73 13.2451 15.6672C14.326 15.6043 15.3495 15.1596 16.133 14.4123C16.9166 13.6651 17.4093 12.6638 17.5233 11.5871C17.6373 10.5103 17.3652 9.42811 16.7556 8.53332C16.4254 8.04218 16.2776 7.45094 16.3378 6.86221L16.4533 5.63554ZM8.38222 15.6622C7.47641 14.7572 6.85945 13.6038 6.60943 12.348C6.3594 11.0922 6.48756 9.79044 6.97768 8.6075C7.46779 7.42456 8.29783 6.41362 9.36274 5.70262C10.4276 4.99162 11.6796 4.61252 12.96 4.61332C14.1374 4.59657 15.2968 4.90409 16.3111 5.50221L15.3778 6.11554C14.855 6.46397 14.2217 6.60647 13.6 6.51554C13.3795 6.48013 13.1566 6.46229 12.9333 6.46221C11.72 6.46456 10.5569 6.94761 9.69895 7.8056C8.84096 8.6636 8.35791 9.82661 8.35556 11.04L8.38222 15.6622Z" fill="url(#paint1_linear_2707_312903)"/>
<path fill-rule="evenodd" clip-rule="evenodd" d="M14.293 24.8889V26.0533C14.323 26.1992 14.4058 26.3289 14.5256 26.4175C14.6453 26.5061 14.7936 26.5473 14.9419 26.5333C15.0899 26.5395 15.2355 26.4942 15.3538 26.405C15.4722 26.3159 15.5559 26.1884 15.5908 26.0444V24.8889H15.3508V26.0178C15.3225 26.1037 15.2677 26.1784 15.1942 26.2311C15.1207 26.2839 15.0323 26.3119 14.9419 26.3111C14.8507 26.3223 14.7585 26.2995 14.6831 26.247C14.6076 26.1945 14.5542 26.1161 14.533 26.0267V24.8889H14.293ZM15.9197 24.8889V26.4444H16.1508V25.9022H16.8885C16.9315 25.9179 16.9708 25.942 17.0041 25.9733C17.0041 26.1155 17.0041 26.2667 17.0041 26.2667V26.3911H17.2441V26.2755C17.2441 26.2755 17.2441 26.1333 17.2441 25.9911C17.2412 25.9168 17.2093 25.8466 17.1552 25.7955C17.135 25.7654 17.1075 25.741 17.0752 25.7244C17.1675 25.6185 17.2181 25.4827 17.2174 25.3422C17.2205 25.2389 17.1925 25.1371 17.1371 25.0499C17.0816 24.9627 17.0012 24.8942 16.9063 24.8533H15.9197V24.8889ZM8.2041 24.8889V26.4444H8.43521V25.9022H9.19077L9.30632 25.9733C9.30632 26.1155 9.30632 26.2667 9.30632 26.2667V26.3911H9.54632V26.2755C9.54632 26.2755 9.54632 26.1333 9.54632 25.9911C9.54339 25.9168 9.51149 25.8466 9.45744 25.7955C9.44599 25.7888 9.43411 25.7829 9.42188 25.7778C9.51417 25.6719 9.56473 25.536 9.5641 25.3955C9.56721 25.2923 9.53921 25.1904 9.48373 25.1033C9.42826 25.0161 9.34787 24.9476 9.25299 24.9067H8.2041V24.8889ZM18.7908 25.1822C18.7717 25.1027 18.7282 25.0312 18.6663 24.9778C18.5163 24.8561 18.3257 24.7958 18.133 24.8089C18.0108 24.8155 17.8906 24.8425 17.7774 24.8889C17.7043 24.9225 17.6413 24.9746 17.5945 25.0401C17.5477 25.1056 17.5189 25.1822 17.5108 25.2622C17.4861 25.5075 17.4861 25.7547 17.5108 26C17.5163 26.0571 17.5334 26.1126 17.5609 26.163C17.5884 26.2134 17.6257 26.2577 17.6708 26.2933C17.8026 26.4023 17.9713 26.4564 18.1419 26.4444C18.5063 26.4444 18.6663 26.3644 18.7463 26.2755C18.7994 26.1996 18.8302 26.1103 18.8352 26.0178V25.8667H18.6041V25.9822C18.6172 26.0257 18.6172 26.0721 18.6041 26.1155L18.4974 26.1689C18.3941 26.181 18.2897 26.181 18.1863 26.1689C18.0724 26.1791 17.9587 26.1475 17.8663 26.08C17.8251 26.0461 17.7968 25.999 17.7863 25.9467C17.7709 25.7128 17.7709 25.4783 17.7863 25.2444C17.7918 25.2047 17.8079 25.1672 17.8329 25.1359C17.858 25.1046 17.891 25.0807 17.9285 25.0667C18.0183 25.0272 18.115 25.0061 18.213 25.0044C18.5774 25.0044 18.6485 25.2 18.6485 25.2V25.3155L18.8797 25.2533L18.7908 25.1822ZM13.333 24.7822C13.1985 24.7819 13.0654 24.8092 12.9419 24.8622C12.8666 24.8938 12.8012 24.9452 12.7527 25.0109C12.7042 25.0767 12.6744 25.1543 12.6663 25.2355C12.6515 25.4812 12.6515 25.7276 12.6663 25.9733C12.6869 26.0857 12.7429 26.1885 12.8263 26.2667C12.9626 26.3738 13.1333 26.4276 13.3063 26.4178C13.6619 26.4178 13.8219 26.3378 13.9019 26.2489C13.9589 26.175 13.9901 26.0844 13.9908 25.9911C14.0045 25.7187 14.0045 25.4457 13.9908 25.1733C13.9717 25.0938 13.9282 25.0223 13.8663 24.9689C13.7147 24.8502 13.5253 24.7903 13.333 24.8V24.7822ZM12.3463 25.1822C12.3471 25.0609 12.3027 24.9437 12.2219 24.8533C12.1592 24.7947 12.0848 24.7502 12.0036 24.7226C11.9223 24.695 11.8362 24.685 11.7508 24.6933C11.5957 24.685 11.4432 24.7358 11.3241 24.8355C11.253 24.8973 11.1993 24.9765 11.1681 25.0653C11.1369 25.1542 11.1294 25.2496 11.1463 25.3422C11.1563 25.4155 11.1877 25.4843 11.2368 25.5397C11.2859 25.595 11.3503 25.6346 11.4219 25.6533C11.5489 25.6677 11.6771 25.6677 11.8041 25.6533C11.9046 25.6392 12.0065 25.6647 12.0885 25.7244C12.124 25.7731 12.1399 25.8334 12.133 25.8933C12.135 25.9243 12.1305 25.9553 12.1197 25.9843C12.109 26.0134 12.0923 26.04 12.0708 26.0622C11.9928 26.1236 11.894 26.1523 11.7952 26.1422C11.7188 26.1557 11.6406 26.1557 11.5641 26.1422C11.521 26.1338 11.4822 26.1105 11.4545 26.0764C11.4269 26.0423 11.4122 25.9995 11.413 25.9555V25.84H11.1819V25.9644C11.1819 26.2933 11.5019 26.4089 11.8041 26.4089C11.9704 26.4174 12.1334 26.3599 12.2574 26.2489C12.2979 26.2047 12.3289 26.1528 12.3488 26.0962C12.3687 26.0397 12.3769 25.9798 12.373 25.92C12.3787 25.8587 12.3713 25.7969 12.3514 25.7387C12.3315 25.6805 12.2995 25.6272 12.2574 25.5822C12.1967 25.5298 12.1261 25.4902 12.0497 25.4658C11.9734 25.4413 11.8928 25.4326 11.813 25.44C11.7098 25.4539 11.6051 25.4539 11.5019 25.44C11.4397 25.44 11.3952 25.3955 11.3863 25.3244C11.3747 25.2713 11.3777 25.2159 11.3949 25.1643C11.4121 25.1127 11.4429 25.0667 11.4841 25.0311C11.562 24.9689 11.66 24.9372 11.7597 24.9422C11.814 24.937 11.8689 24.943 11.9209 24.9598C11.9729 24.9766 12.0209 25.0039 12.0619 25.04C12.0802 25.0586 12.0945 25.0809 12.1037 25.1054C12.1129 25.1299 12.1168 25.1561 12.1152 25.1822V25.2978H12.3552L12.3463 25.1822ZM21.6174 25.1822C21.6202 25.1218 21.6105 25.0615 21.5891 25.0049C21.5677 24.9484 21.535 24.8968 21.493 24.8533C21.4317 24.7954 21.3587 24.7513 21.2791 24.7237C21.1994 24.6961 21.1147 24.6857 21.0308 24.6933C20.8728 24.6836 20.717 24.7345 20.5952 24.8355C20.5255 24.8983 20.4727 24.9776 20.4416 25.0662C20.4106 25.1547 20.4023 25.2496 20.4174 25.3422C20.4274 25.4155 20.4589 25.4843 20.5079 25.5397C20.557 25.595 20.6214 25.6346 20.693 25.6533C20.82 25.6671 20.9482 25.6671 21.0752 25.6533C21.1738 25.6607 21.2659 25.7052 21.333 25.7778C21.3774 25.7778 21.3774 25.8755 21.3774 25.9467C21.3802 26.0075 21.3613 26.0673 21.3241 26.1155C21.2457 26.1762 21.1472 26.2047 21.0485 26.1955C20.9692 26.2097 20.8879 26.2097 20.8085 26.1955C20.7669 26.1843 20.7298 26.1603 20.7027 26.1267C20.6756 26.0932 20.6597 26.052 20.6574 26.0089V25.8933H20.4441V26.0178C20.4441 26.3467 20.7552 26.4622 21.0663 26.4622C21.2297 26.4694 21.3894 26.4119 21.5108 26.3022C21.5528 26.2587 21.5855 26.2071 21.6069 26.1506C21.6283 26.094 21.6379 26.0337 21.6352 25.9733C21.6425 25.8499 21.601 25.7286 21.5197 25.6355C21.4576 25.5824 21.3855 25.5425 21.3076 25.518C21.2296 25.4936 21.1476 25.4852 21.0663 25.4933C20.9631 25.5072 20.8584 25.5072 20.7552 25.4933C20.7275 25.4879 20.7022 25.4737 20.683 25.4529C20.6639 25.4322 20.6518 25.4058 20.6485 25.3778C20.6376 25.3253 20.6401 25.271 20.6556 25.2198C20.6711 25.1685 20.6993 25.122 20.7374 25.0844C20.8195 25.0236 20.9198 24.9923 21.0219 24.9955C21.0749 24.991 21.1282 24.9974 21.1786 25.0142C21.2291 25.031 21.2755 25.0579 21.3152 25.0933C21.3524 25.1317 21.3745 25.1822 21.3774 25.2355V25.3511H21.6085L21.6174 25.1822ZM19.0308 24.8889V26.4444H20.0974V26.2044H19.2619V25.7778H19.9997V25.5378H19.2619V25.1111H20.1063V24.8889H19.0308ZM9.83077 24.8889V26.4444H10.9063V26.2044H10.0708V25.7778H10.8085V25.5378H10.0708V25.1111H10.9152V24.8889H9.83077ZM13.3241 25.04C13.6441 25.04 13.733 25.1911 13.7508 25.2267C13.7685 25.2622 13.7508 25.8222 13.7508 25.9911C13.7599 26.0351 13.7599 26.0805 13.7508 26.1244L13.6441 26.1778C13.5407 26.1894 13.4364 26.1894 13.333 26.1778C13.2191 26.188 13.1053 26.1564 13.013 26.0889C12.9717 26.055 12.9435 26.0079 12.933 25.9555C12.9176 25.7217 12.9176 25.4871 12.933 25.2533C12.9385 25.2136 12.9546 25.1761 12.9796 25.1448C13.0046 25.1135 13.0377 25.0896 13.0752 25.0755C13.1567 25.0394 13.244 25.0183 13.333 25.0133L13.3241 25.04ZM16.1508 25.6622H16.8885C16.932 25.6305 16.9675 25.589 16.9922 25.5412C17.0169 25.4934 17.0301 25.4405 17.0308 25.3867C17.033 25.3337 17.02 25.2812 16.9932 25.2355C16.9664 25.1898 16.927 25.1528 16.8797 25.1289H16.133L16.1508 25.6622ZM8.43521 25.6622H9.18188C9.22864 25.6332 9.26712 25.5925 9.29359 25.5443C9.32006 25.496 9.33363 25.4417 9.33299 25.3867C9.33526 25.3337 9.32221 25.2812 9.29541 25.2355C9.26861 25.1898 9.22919 25.1528 9.18188 25.1289H8.43521V25.6622ZM17.0485 23.3955H17.7774L17.9374 23.7955L18.1597 23.7155L17.5552 22.2222H17.1908L16.693 23.7333L16.9152 23.8044L17.0485 23.3955ZM23.9197 23.3955H24.6219L24.773 23.7955L24.9952 23.7155L24.4263 22.2222H24.053L23.5552 23.7333L23.7863 23.8044L23.9197 23.3955ZM13.333 22.2222V23.7778H13.573V23.2355H14.3285L14.4441 23.3067C14.4441 23.4489 14.4441 23.6 14.4441 23.6V23.7155H14.6841V23.6C14.6841 23.6 14.6841 23.4489 14.6841 23.3155C14.6812 23.2412 14.6493 23.171 14.5952 23.12C14.573 23.0917 14.5459 23.0676 14.5152 23.0489C14.6074 22.9395 14.6578 22.8009 14.6574 22.6578C14.6588 22.556 14.6299 22.4561 14.5746 22.3707C14.5192 22.2852 14.4398 22.2181 14.3463 22.1778H13.333V22.2222ZM18.7997 22.2222H18.1774V22.4622H18.6663V23.7778H18.8974V22.4622H19.3952V22.2222H18.7997ZM11.2174 22.2222H10.6041V22.4622H11.1019V23.7778H11.3419V22.4622H11.8397V22.2222H11.2174ZM19.6797 22.2222V23.7778H19.9197V22.2222H19.6797ZM8.26632 22.2222V23.7778H8.50632V22.2222H8.26632ZM22.133 23.7778V22.6667L23.0219 23.7333L23.2263 23.6622V22.2222H23.0219V23.3422L22.133 22.2667L21.9285 22.3378V23.7778H22.133ZM9.12855 23.7778V22.6667L10.0174 23.7333L10.2308 23.6622V22.2222H9.99966V23.3422L9.11077 22.2667L8.90632 22.3378V23.7778H9.12855ZM15.2441 23.7778V22.6667L16.133 23.7333L16.3374 23.6622V22.2222H16.0974V23.3422L15.2085 22.2667L14.9952 22.3378V23.7778H15.2441ZM20.8708 22.1422C20.7393 22.1429 20.6093 22.1701 20.4885 22.2222C20.4127 22.253 20.3468 22.3042 20.2982 22.3701C20.2496 22.4359 20.2201 22.514 20.213 22.5955C20.1982 22.8412 20.1982 23.0876 20.213 23.3333C20.2282 23.45 20.285 23.5573 20.373 23.6355C20.5119 23.7368 20.6814 23.787 20.853 23.7778C21.2085 23.7778 21.3685 23.6978 21.4485 23.6089C21.5016 23.5329 21.5324 23.4436 21.5374 23.3511C21.5374 23.1555 21.5374 22.5333 21.5374 22.5333C21.5107 22.4577 21.4648 22.3903 21.4041 22.3378C21.3321 22.2736 21.2474 22.2254 21.1555 22.1963C21.0636 22.1672 20.9665 22.1579 20.8708 22.1689V22.1422ZM12.0352 22.2222V23.7778H13.1108V23.5378H12.2752V23.1111H13.013V22.8711H12.2752V22.4533H13.1197V22.2222H12.0352ZM25.2797 22.2222V23.7778H26.3019V23.5378H25.5197V22.2222H25.2797ZM20.8352 22.3733C21.1641 22.3733 21.253 22.5244 21.2708 22.56C21.2885 22.5955 21.2708 23.1555 21.2708 23.3244C21.2844 23.3678 21.2844 23.4144 21.2708 23.4578C21.2708 23.4578 21.2174 23.4578 21.173 23.5111C21.0696 23.5223 20.9653 23.5223 20.8619 23.5111C20.7452 23.5211 20.6288 23.4896 20.533 23.4222C20.4944 23.3874 20.4693 23.3403 20.4619 23.2889C20.4413 23.0553 20.4413 22.8203 20.4619 22.5867C20.4674 22.5482 20.4825 22.5118 20.5058 22.4807C20.5291 22.4496 20.5598 22.4249 20.5952 22.4089C20.6841 22.3803 20.7775 22.3682 20.8708 22.3733H20.8352ZM23.9552 23.1644H24.4974L24.2219 22.4533L23.9552 23.1644ZM17.093 23.1644H17.6263L17.3597 22.4533L17.093 23.1644ZM13.5374 22.9955H14.2841C14.3299 22.964 14.367 22.9214 14.3919 22.8717C14.4168 22.8219 14.4286 22.7667 14.4263 22.7111C14.4277 22.6606 14.4152 22.6106 14.3901 22.5667C14.365 22.5228 14.3284 22.4867 14.2841 22.4622H13.5374V22.9955ZM14.5152 20.6933H15.2174L15.3774 21.0933L15.5997 21.0133L15.013 19.5555H14.6485L14.1508 21.0667L14.373 21.1378L14.5152 20.6933ZM12.6041 19.5555V21.1022H12.8441V20.5689H13.5997L13.7152 20.64V20.9333V21.0489H13.9463V20.9244C13.9463 20.9244 13.9463 20.7822 13.9463 20.6489C13.9434 20.5746 13.9115 20.5044 13.8574 20.4533L13.8308 20.4444C13.9245 20.3394 13.9753 20.203 13.973 20.0622C13.9736 19.9594 13.9434 19.8588 13.8864 19.7733C13.8294 19.6877 13.7481 19.6212 13.653 19.5822H12.6041V19.5555ZM11.7152 19.5555H11.1019V19.7867H11.5552V21.1111H11.7952V19.7778H12.2841V19.5555H11.7152ZM10.5241 19.5555V21.1111H10.7641V19.5555H10.5241ZM8.56855 21.0844V19.7778L9.11077 20.9778H9.33299L9.85744 19.8044V21.0933H10.0974V19.5555H9.67077L9.18188 20.6311L8.73744 19.5555H8.32855V21.0933L8.56855 21.0844ZM14.5863 20.4889H15.1108L14.8441 19.7778L14.5863 20.4889ZM12.8085 20.32H13.5552C13.5994 20.2869 13.6352 20.2439 13.6599 20.1946C13.6846 20.1452 13.6974 20.0907 13.6974 20.0355C13.6977 19.984 13.6847 19.9333 13.6598 19.8882C13.6349 19.843 13.5989 19.805 13.5552 19.7778H12.8085V20.32Z" fill="#E03120"/>
</g>
<defs>
<radialGradient id="paint0_radial_2707_312903" cx="0" cy="0" r="1" gradientUnits="userSpaceOnUse" gradientTransform="translate(15.1317 5.20015) rotate(144.068) scale(3.90808)">
<stop stop-color="#EFFBFE"/>
<stop offset="0.5" stop-color="#01B6EF"/>
<stop offset="1" stop-color="#084B9D"/>
</radialGradient>
<linearGradient id="paint1_linear_2707_312903" x1="21.4383" y1="4.93705" x2="13.7761" y2="13.3904" gradientUnits="userSpaceOnUse">
<stop stop-color="#04A1E8"/>
<stop offset="1" stop-color="#0D4C9E"/>
</linearGradient>
<clipPath id="clip0_2707_312903">
<rect width="32" height="32" fill="white"/>
</clipPath>
</defs>
</svg>
