<svg width="32" height="32" viewBox="0 0 32 32" fill="none" xmlns="http://www.w3.org/2000/svg">
<g clip-path="url(#clip0_2707_312798)">
<path d="M16 32C24.8366 32 32 24.8366 32 16C32 7.16344 24.8366 0 16 0C7.16344 0 0 7.16344 0 16C0 24.8366 7.16344 32 16 32Z" fill="white"/>
<path d="M15.9998 29.3334C23.3636 29.3334 29.3332 23.3638 29.3332 16C29.3332 8.63622 23.3636 2.66669 15.9998 2.66669C8.63604 2.66669 2.6665 8.63622 2.6665 16C2.6665 23.3638 8.63604 29.3334 15.9998 29.3334Z" fill="white"/>
<path d="M12.2401 12.5955C11.4477 12.5786 10.6701 12.8119 10.0179 13.2622C9.81442 13.048 9.56881 12.8782 9.29652 12.7634C9.02423 12.6487 8.73114 12.5915 8.4357 12.5955C7.40985 12.5344 6.38272 12.692 5.42236 13.0578V19.5555H7.20014V14.2844C7.44289 14.2038 7.70228 14.1869 7.95345 14.2353C8.20461 14.2837 8.43914 14.3958 8.63454 14.5609C8.82994 14.7259 8.97967 14.9384 9.06937 15.178C9.15906 15.4175 9.18573 15.6761 9.14681 15.9289V19.4844H11.0224V14.2844C11.2655 14.2045 11.5251 14.188 11.7764 14.2366C12.0277 14.2851 12.2624 14.397 12.4583 14.5618C12.6542 14.7265 12.8048 14.9386 12.8957 15.1778C12.9867 15.4171 13.015 15.6756 12.9779 15.9289V19.4844H14.7557V15.1555C14.7557 15.1555 14.3379 12.5955 12.2401 12.5955Z" fill="#2B2F86"/>
<path d="M17.2358 12.8H15.458V19.52H17.2358V12.8Z" fill="#2B2F86"/>
<path d="M24.5869 12.8H22.8091V19.52H24.5869V12.8Z" fill="#CC9627"/>
<path d="M21.9824 17.9111C21.9824 17.9111 19.7958 18.8 19.7958 17.0222V14.4267H22.0891V12.8H19.7958V10.8C17.6624 11.4133 17.8936 12.9511 17.8936 12.9511V16.9689C17.8936 16.9689 17.6802 19.6355 19.9824 19.7067C22.2847 19.7778 22.3113 19.28 22.3113 19.28L21.9824 17.9111Z" fill="#CC9627"/>
<path d="M22.818 8.23114L17.9913 5.44891C17.9781 5.43641 17.9606 5.42944 17.9424 5.42944C17.9243 5.42944 17.9068 5.43641 17.8936 5.44891V11.0222C17.8955 11.0404 17.9036 11.0574 17.9165 11.0704C17.9295 11.0833 17.9465 11.0914 17.9647 11.0934L22.818 8.35558C22.8305 8.34237 22.8375 8.32488 22.8375 8.30669C22.8375 8.28851 22.8305 8.27101 22.818 8.2578V8.23114Z" fill="#CC9627"/>
<path d="M22.7022 8.16888C22.7344 8.19066 22.7576 8.22343 22.7674 8.26105C22.7773 8.29868 22.773 8.33859 22.7556 8.37333L22.7022 8.42666L18.1067 11.0933C18.0724 11.1129 18.0318 11.1183 17.9936 11.1083C17.9554 11.0984 17.9226 11.0738 17.9022 11.04C17.8972 11.0166 17.8972 10.9923 17.9022 10.9689V9.66222L22.7022 8.16888Z" fill="#926C12"/>
<path d="M17.671 9.5911L15.111 8.11554C15.0978 8.10304 15.0803 8.09607 15.0621 8.09607C15.0439 8.09607 15.0264 8.10304 15.0132 8.11554V11.0844C15.0132 11.1033 15.0207 11.1214 15.034 11.1347C15.0473 11.148 15.0654 11.1555 15.0843 11.1555L17.6532 9.6711C17.6657 9.65789 17.6727 9.64039 17.6727 9.62221C17.6727 9.60402 17.6657 9.58653 17.6532 9.57332L17.671 9.5911Z" fill="#2B2F86"/>
<path d="M17.662 9.58221C17.6743 9.59898 17.6809 9.61921 17.6809 9.63999C17.6809 9.66077 17.6743 9.68101 17.662 9.69777L15.1109 11.1911C15.0948 11.2049 15.0743 11.2124 15.0531 11.2124C15.0319 11.2124 15.0114 11.2049 14.9953 11.1911C14.9898 11.1768 14.9898 11.161 14.9953 11.1467V10.4355L17.662 9.58221Z" fill="#181D60"/>
<path d="M5.67866 23.2311V20.6399H6.4617L6.93187 22.4074L7.39675 20.6399H8.18155V23.2311H7.69547V21.1914L7.1811 23.2311H6.67734L6.16475 21.1914V23.2311H5.67866Z" fill="black"/>
<path d="M8.0821 21.0994V20.6399H8.57879V21.0994H8.0821ZM8.0821 23.2311V21.354H8.57879V23.2311H8.0821ZM9.95043 21.354V21.7499H9.61105V22.5064C9.61105 22.6596 9.614 22.7492 9.61989 22.7751C9.62696 22.7999 9.64169 22.8205 9.66408 22.837C9.68765 22.8535 9.71593 22.8617 9.74893 22.8617C9.79488 22.8617 9.86146 22.8458 9.94866 22.814L9.99108 23.1993C9.8756 23.2488 9.7448 23.2736 9.59868 23.2736C9.50912 23.2736 9.4284 23.2588 9.35652 23.2294C9.28464 23.1987 9.23161 23.1598 9.19744 23.1127C9.16445 23.0644 9.14147 22.9996 9.12851 22.9183C9.1179 22.8605 9.1126 22.7439 9.1126 22.5683V21.7499H8.88458V21.354H9.1126V20.981L9.61105 20.6911V21.354H9.95043Z" fill="black"/>
<path d="M9.92672 23.2311H9.43003V21.354H9.89137V21.6209C9.97032 21.4948 10.041 21.4117 10.1035 21.3716C10.1671 21.3316 10.239 21.3116 10.3191 21.3116C10.4322 21.3116 10.5412 21.3428 10.6461 21.4052L10.4923 21.8383C10.4087 21.7841 10.3309 21.757 10.259 21.757C10.1895 21.757 10.1306 21.7764 10.0823 21.8153C10.034 21.853 9.99565 21.922 9.96737 22.0221C9.94027 22.1223 9.92672 22.332 9.92672 22.6514V23.2311Z" fill="black"/>
<path d="M10.631 21.9267L10.1803 21.8454C10.231 21.6639 10.3182 21.5296 10.4419 21.4424C10.5656 21.3552 10.7495 21.3116 10.9934 21.3116C11.2149 21.3116 11.3799 21.3381 11.4883 21.3911C11.5967 21.4429 11.6727 21.5095 11.7163 21.5908C11.7611 21.671 11.7835 21.8188 11.7835 22.0345L11.7782 22.6143C11.7782 22.7792 11.7858 22.9012 11.8012 22.9801C11.8177 23.0579 11.8477 23.1416 11.8913 23.2311H11.3999C11.387 23.1981 11.3711 23.1492 11.3522 23.0844C11.3439 23.055 11.3381 23.0355 11.3345 23.0261C11.2497 23.1086 11.1589 23.1705 11.0623 23.2117C10.9657 23.2529 10.8626 23.2736 10.753 23.2736C10.5597 23.2736 10.4071 23.2211 10.2952 23.1162C10.1844 23.0114 10.129 22.8788 10.129 22.7185C10.129 22.6125 10.1544 22.5182 10.205 22.4357C10.2557 22.3521 10.3264 22.2884 10.4171 22.2448C10.5091 22.2001 10.641 22.1612 10.8131 22.1282C11.0452 22.0846 11.2061 22.0439 11.2956 22.0062V21.9567C11.2956 21.8613 11.2721 21.7935 11.2249 21.7534C11.1778 21.7122 11.0888 21.6916 10.958 21.6916C10.8696 21.6916 10.8007 21.7093 10.7512 21.7446C10.7017 21.7788 10.6617 21.8395 10.631 21.9267ZM11.2956 22.3297C11.232 22.3509 11.1312 22.3762 10.9934 22.4057C10.8555 22.4351 10.7654 22.464 10.7229 22.4923C10.6581 22.5382 10.6257 22.5966 10.6257 22.6673C10.6257 22.7368 10.6516 22.7969 10.7035 22.8476C10.7553 22.8982 10.8213 22.9236 10.9015 22.9236C10.991 22.9236 11.0765 22.8941 11.1578 22.8352C11.2179 22.7904 11.2573 22.7356 11.2762 22.6708C11.2892 22.6284 11.2956 22.5477 11.2956 22.4287V22.3297Z" fill="black"/>
<path d="M12.0341 23.2311V20.6399H12.5573V23.2311H12.0341Z" fill="black"/>
<path d="M14.3228 23.2311H13.8261V22.2731C13.8261 22.0704 13.8155 21.9396 13.7943 21.8807C13.7731 21.8206 13.7383 21.7741 13.69 21.7411C13.6429 21.7081 13.5857 21.6916 13.5185 21.6916C13.4325 21.6916 13.3553 21.7151 13.287 21.7623C13.2186 21.8094 13.1715 21.8719 13.1456 21.9496C13.1208 22.0274 13.1085 22.1712 13.1085 22.3809V23.2311H12.6118V21.354H13.0731V21.6297C13.2369 21.4176 13.4431 21.3116 13.6918 21.3116C13.8013 21.3116 13.9015 21.3316 13.9922 21.3716C14.083 21.4105 14.1513 21.4606 14.1973 21.5219C14.2444 21.5832 14.2768 21.6527 14.2945 21.7305C14.3134 21.8082 14.3228 21.9196 14.3228 22.0645V23.2311Z" fill="black"/>
<path d="M14.6515 23.2311L13.8949 21.354H14.4164L14.7699 22.312L14.8724 22.6319C14.8995 22.5506 14.9166 22.497 14.9237 22.4711C14.9402 22.4181 14.9578 22.365 14.9767 22.312L15.3337 21.354H15.8446L15.0987 23.2311H14.6515Z" fill="black"/>
<path d="M16.5202 22.6337L17.0152 22.7168C16.9515 22.8982 16.8508 23.0367 16.7129 23.1322C16.5762 23.2264 16.4048 23.2736 16.1985 23.2736C15.8721 23.2736 15.6306 23.1669 15.4738 22.9536C15.3501 22.7828 15.2882 22.5671 15.2882 22.3067C15.2882 21.9956 15.3695 21.7523 15.5322 21.5767C15.6948 21.3999 15.9004 21.3116 16.149 21.3116C16.4283 21.3116 16.6487 21.4041 16.8101 21.5891C16.9716 21.7729 17.0487 22.0551 17.0417 22.4357H15.7973C15.8008 22.583 15.8409 22.6979 15.9175 22.7804C15.9941 22.8617 16.0895 22.9024 16.2038 22.9024C16.2816 22.9024 16.347 22.8812 16.4 22.8387C16.4531 22.7963 16.4931 22.728 16.5202 22.6337ZM16.5485 22.1317C16.545 21.9879 16.5079 21.8789 16.4372 21.8047C16.3665 21.7293 16.2804 21.6916 16.1791 21.6916C16.0707 21.6916 15.9811 21.7311 15.9104 21.81C15.8397 21.889 15.805 21.9962 15.8061 22.1317H16.5485ZM17.2732 22.6956L17.7717 22.6196C17.7929 22.7162 17.8359 22.7898 17.9007 22.8405C17.9655 22.89 18.0563 22.9147 18.1729 22.9147C18.3014 22.9147 18.398 22.8912 18.4628 22.844C18.5064 22.811 18.5282 22.7669 18.5282 22.7115C18.5282 22.6738 18.5164 22.6425 18.4929 22.6178C18.4681 22.5942 18.4127 22.5724 18.3267 22.5524C17.926 22.464 17.6721 22.3833 17.5649 22.3102C17.4164 22.2089 17.3422 22.0681 17.3422 21.8878C17.3422 21.7252 17.4064 21.5885 17.5348 21.4777C17.6633 21.3669 17.8624 21.3116 18.1323 21.3116C18.3892 21.3116 18.5801 21.3534 18.705 21.437C18.8299 21.5207 18.9159 21.6444 18.963 21.8082L18.4946 21.8949C18.4746 21.8218 18.4363 21.7658 18.3797 21.7269C18.3243 21.688 18.2448 21.6686 18.1411 21.6686C18.0103 21.6686 17.9166 21.6869 17.8601 21.7234C17.8224 21.7493 17.8035 21.7829 17.8035 21.8241C17.8035 21.8595 17.82 21.8895 17.853 21.9143C17.8978 21.9473 18.0521 21.9938 18.3161 22.0539C18.5812 22.114 18.7662 22.1877 18.8711 22.2749C18.9748 22.3633 19.0267 22.4864 19.0267 22.6443C19.0267 22.8163 18.9548 22.9642 18.811 23.088C18.6673 23.2117 18.4546 23.2736 18.1729 23.2736C17.9172 23.2736 17.7145 23.2217 17.5649 23.118C17.4164 23.0143 17.3192 22.8735 17.2732 22.6956ZM20.3241 21.354V21.7499H19.9847V22.5064C19.9847 22.6596 19.9876 22.7492 19.9935 22.7751C20.0006 22.7999 20.0153 22.8205 20.0377 22.837C20.0613 22.8535 20.0896 22.8617 20.1226 22.8617C20.1685 22.8617 20.2351 22.8458 20.3223 22.814L20.3647 23.1993C20.2492 23.2488 20.1184 23.2736 19.9723 23.2736C19.8828 23.2736 19.802 23.2588 19.7302 23.2294C19.6583 23.1987 19.6052 23.1598 19.5711 23.1127C19.5381 23.0644 19.5151 22.9996 19.5021 22.9183C19.4915 22.8605 19.4862 22.7439 19.4862 22.5683V21.7499H19.2582V21.354H19.4862V20.981L19.9847 20.6911V21.354H20.3241ZM20.6687 21.0994V20.6399H21.1654V21.0994H20.6687ZM20.6687 23.2311V21.354H21.1654V23.2311H20.6687ZM17.1407 27.2311H16.644V26.2731C16.644 26.0704 16.6334 25.9396 16.6121 25.8807C16.5909 25.8206 16.5562 25.7741 16.5079 25.7411C16.4607 25.7081 16.4036 25.6916 16.3364 25.6916C16.2504 25.6916 16.1732 25.7151 16.1049 25.7623C16.0365 25.8094 15.9894 25.8719 15.9634 25.9496C15.9387 26.0274 15.9263 26.1712 15.9263 26.3809V27.2311H15.4296V25.354H15.891V25.6297C16.0548 25.4176 16.261 25.3116 16.5096 25.3116C16.6192 25.3116 16.7194 25.3316 16.8101 25.3716C16.9009 25.4105 16.9692 25.4606 17.0152 25.5219C17.0623 25.5832 17.0947 25.6527 17.1124 25.7305C17.1312 25.8082 17.1407 25.9196 17.1407 26.0645V27.2311ZM19.3678 27.2311H18.9065V26.9554C18.8299 27.0626 18.7391 27.1428 18.6343 27.1958C18.5306 27.2476 18.4257 27.2736 18.3196 27.2736C18.104 27.2736 17.919 27.187 17.7646 27.0137C17.6114 26.8393 17.5348 26.5966 17.5348 26.2855C17.5348 25.9673 17.6097 25.7258 17.7593 25.5608C17.909 25.3946 18.0981 25.3116 18.3267 25.3116C18.5365 25.3116 18.7179 25.3988 18.8711 25.5732V24.6399H19.3678V27.2311ZM18.0421 26.2519C18.0421 26.4522 18.0698 26.5972 18.1252 26.6867C18.2053 26.8163 18.3173 26.8812 18.461 26.8812C18.5753 26.8812 18.6726 26.8328 18.7527 26.7362C18.8328 26.6384 18.8729 26.4929 18.8729 26.2996C18.8729 26.084 18.834 25.929 18.7562 25.8348C18.6784 25.7393 18.5789 25.6916 18.4575 25.6916C18.3397 25.6916 18.2407 25.7387 18.1605 25.833C18.0816 25.9261 18.0421 26.0657 18.0421 26.2519ZM19.7443 26.266C19.7443 26.1011 19.785 25.9414 19.8663 25.787C19.9476 25.6327 20.0625 25.5148 20.2109 25.4335C20.3606 25.3522 20.5273 25.3116 20.7112 25.3116C20.9952 25.3116 21.2279 25.4041 21.4094 25.5891C21.5908 25.7729 21.6816 26.0056 21.6816 26.2873C21.6816 26.5712 21.5896 26.8069 21.4058 26.9943C21.2232 27.1805 20.9928 27.2736 20.7147 27.2736C20.5427 27.2736 20.3783 27.2347 20.2215 27.1569C20.066 27.0791 19.9476 26.9654 19.8663 26.8158C19.785 26.6649 19.7443 26.4817 19.7443 26.266ZM20.2534 26.2926C20.2534 26.4787 20.2975 26.6213 20.3859 26.7203C20.4743 26.8193 20.5833 26.8688 20.7129 26.8688C20.8426 26.8688 20.951 26.8193 21.0382 26.7203C21.1265 26.6213 21.1707 26.4776 21.1707 26.289C21.1707 26.1052 21.1265 25.9638 21.0382 25.8648C20.951 25.7658 20.8426 25.7163 20.7129 25.7163C20.5833 25.7163 20.4743 25.7658 20.3859 25.8648C20.2975 25.9638 20.2534 26.1064 20.2534 26.2926Z" fill="black"/>
</g>
<defs>
<clipPath id="clip0_2707_312798">
<rect width="32" height="32" fill="white"/>
</clipPath>
</defs>
</svg>
