<svg width="32" height="32" viewBox="0 0 32 32" fill="none" xmlns="http://www.w3.org/2000/svg">
<g clip-path="url(#clip0_2707_312608)">
<path d="M15.9998 31.9822C24.8265 31.9822 31.982 24.8267 31.982 16C31.982 7.17325 24.8265 0.0177612 15.9998 0.0177612C7.17306 0.0177612 0.0175781 7.17325 0.0175781 16C0.0175781 24.8267 7.17306 31.9822 15.9998 31.9822Z" fill="white"/>
<path d="M11.1464 18.1867H11.2442C11.2332 18.2625 11.1953 18.3319 11.1375 18.3822C11.0797 18.429 11.0074 18.4541 10.933 18.4533C10.8639 18.456 10.7957 18.4374 10.7375 18.4C10.6874 18.3597 10.6477 18.3078 10.6219 18.2489C10.6091 18.1784 10.6091 18.1061 10.6219 18.0356C10.6211 17.9621 10.6363 17.8893 10.6664 17.8222C10.6904 17.762 10.7343 17.7118 10.7908 17.68C10.8463 17.6438 10.9113 17.6253 10.9775 17.6267C11.0445 17.6284 11.1095 17.6501 11.1642 17.6889C11.2173 17.7319 11.2548 17.7913 11.2708 17.8578H11.173C11.1596 17.8091 11.1317 17.7657 11.093 17.7333C11.0648 17.7272 11.0354 17.728 11.0075 17.7357C10.9797 17.7435 10.9541 17.7579 10.933 17.7778C10.8824 17.7788 10.833 17.7942 10.7908 17.8222C10.7543 17.8564 10.7268 17.8992 10.7108 17.9467C10.7016 17.9966 10.7016 18.0478 10.7108 18.0978C10.6975 18.1563 10.6975 18.217 10.7108 18.2756C10.7248 18.319 10.753 18.3566 10.7908 18.3822C10.8298 18.41 10.8763 18.4255 10.9242 18.4267C10.9489 18.4275 10.9735 18.4232 10.9964 18.4141C11.0194 18.4049 11.0402 18.391 11.0575 18.3733C11.0858 18.3513 11.1085 18.3229 11.124 18.2905C11.1394 18.2581 11.1471 18.2225 11.1464 18.1867Z" fill="black"/>
<path d="M11.4219 18.08C11.4229 18.0233 11.4352 17.9673 11.4581 17.9154C11.481 17.8635 11.514 17.8167 11.5552 17.7777C11.5873 17.741 11.6269 17.7117 11.6714 17.6917C11.7159 17.6718 11.7642 17.6617 11.813 17.6622C11.8788 17.6632 11.9432 17.6816 11.9997 17.7155C12.0548 17.7529 12.098 17.8054 12.1241 17.8666C12.1535 17.9339 12.1686 18.0065 12.1686 18.08C12.1686 18.1534 12.1535 18.226 12.1241 18.2933C12.0942 18.3525 12.0479 18.4018 11.9908 18.4355C11.9381 18.4705 11.8762 18.489 11.813 18.4889C11.7442 18.489 11.6766 18.4706 11.6174 18.4355C11.5646 18.3957 11.5219 18.3439 11.493 18.2844C11.454 18.2226 11.4297 18.1526 11.4219 18.08ZM11.5285 18.08C11.5243 18.1602 11.5496 18.2393 11.5997 18.3022C11.6212 18.331 11.6495 18.3542 11.682 18.3697C11.7145 18.3851 11.7503 18.3925 11.7863 18.3911C11.8211 18.3926 11.8556 18.3852 11.8867 18.3697C11.9178 18.3541 11.9445 18.3309 11.9641 18.3022C11.9908 18.2704 12.0108 18.2335 12.023 18.1938C12.0352 18.1541 12.0394 18.1124 12.0352 18.0711C12.046 18.0153 12.046 17.958 12.0352 17.9022C12.0183 17.8554 11.9872 17.815 11.9463 17.7866C11.9066 17.7602 11.8606 17.7448 11.813 17.7422C11.7781 17.7422 11.7435 17.7493 11.7114 17.763C11.6794 17.7768 11.6504 17.7969 11.6263 17.8222C11.5731 17.8971 11.5479 17.9884 11.5552 18.08H11.5285Z" fill="black"/>
<path d="M12.3555 18.4622V17.6711H12.5066L12.6755 18.2311C12.6798 18.2695 12.6798 18.3082 12.6755 18.3466V18.2222L12.8532 17.6711H12.9866V18.4622H12.8888V17.7777L12.6755 18.4444H12.5866L12.4444 17.7777V18.4533L12.3555 18.4622Z" fill="black"/>
<path d="M13.333 18.4622V17.6711H13.4841L13.6619 18.2311V18.3466V18.2222L13.8397 17.6711H13.973V18.4622H13.8752V17.7777L13.6619 18.4444H13.573L13.4041 17.7777V18.4533L13.333 18.4622Z" fill="black"/>
<path d="M14.382 17.6711H14.2842V18.4622H14.382V17.6711Z" fill="black"/>
<path d="M14.8441 18.4622V17.7777H14.5952V17.6888H15.1819V17.7777H14.9419V18.48L14.8441 18.4622Z" fill="black"/>
<path d="M15.3687 18.4622V17.6711H15.5198L15.6975 18.2311V18.3466L15.742 18.2222L15.9198 17.6711H16.0531V18.4622H15.9998V17.7777L15.7775 18.4444H15.6887L15.4664 17.7777V18.4533L15.3687 18.4622Z" fill="black"/>
<path d="M16.3374 18.4622V17.6711H16.8885V17.7777H16.453V18.0266H16.8885V18.1155H16.4796V18.3911H16.8885V18.48L16.3374 18.4622Z" fill="black"/>
<path d="M17.1196 18.4622V17.6711H17.2174L17.6085 18.2933V17.6711H17.7063V18.4622H17.5996L17.2085 17.84V18.4622H17.1196Z" fill="black"/>
<path d="M18.1507 18.4622V17.7777H17.9019V17.6888H18.4974V17.7777H18.2485V18.48L18.1507 18.4622Z" fill="black"/>
<path d="M19.2176 18.4622V17.7777H18.9688V17.6888H19.5554V17.7777H19.3065V18.48L19.2176 18.4622Z" fill="black"/>
<path d="M19.7062 18.08C19.6963 17.9674 19.7315 17.8556 19.804 17.7689C19.8361 17.7322 19.8757 17.7028 19.9202 17.6829C19.9647 17.6629 20.013 17.6528 20.0618 17.6533C20.128 17.6519 20.193 17.6705 20.2485 17.7067C20.3036 17.744 20.3468 17.7965 20.3729 17.8578C20.4023 17.9251 20.4174 17.9977 20.4174 18.0711C20.4174 18.1445 20.4023 18.2172 20.3729 18.2844C20.343 18.3436 20.2967 18.393 20.2396 18.4267C20.1869 18.4616 20.125 18.4802 20.0618 18.48C19.9956 18.4814 19.9306 18.4628 19.8751 18.4267C19.8174 18.3898 19.7711 18.3375 19.7418 18.2756C19.7164 18.2136 19.7043 18.147 19.7062 18.08ZM19.804 18.08C19.7998 18.1603 19.8251 18.2393 19.8751 18.3022C19.8972 18.3305 19.9256 18.3533 19.958 18.3687C19.9904 18.3841 20.0259 18.3918 20.0618 18.3911C20.0965 18.3926 20.1311 18.3853 20.1622 18.3697C20.1933 18.3542 20.2199 18.3309 20.2396 18.3022C20.2662 18.2704 20.2863 18.2336 20.2985 18.1939C20.3107 18.1542 20.3148 18.1124 20.3107 18.0711C20.3215 18.0153 20.3215 17.958 20.3107 17.9022C20.2937 17.8554 20.2627 17.815 20.2218 17.7867C20.1821 17.7602 20.1361 17.7448 20.0885 17.7422C20.0547 17.7412 20.0211 17.7478 19.9903 17.7617C19.9595 17.7755 19.9323 17.7963 19.9107 17.8222C19.876 17.8555 19.8486 17.8955 19.8303 17.9399C19.8119 17.9843 19.803 18.032 19.804 18.08Z" fill="black"/>
<path d="M21.0132 18.4622V17.6711H21.5554V17.7777H21.111V18.0266H21.5287V18.1155H21.111V18.3911H21.5732V18.48L21.0132 18.4622Z" fill="black"/>
<path d="M21.7241 18.4622L22.0086 18.0533L21.7508 17.6711H21.8752L22.0086 17.8755L22.0708 17.9733C22.0852 17.9418 22.1031 17.912 22.1241 17.8844L22.2752 17.6711H22.3819L22.1241 18.0444L22.4086 18.4622H22.2841L22.0975 18.1777C22.0914 18.1605 22.0914 18.1417 22.0975 18.1244V18.1866L21.9108 18.4622H21.7241Z" fill="black"/>
<path d="M23.1108 18.1867H23.2086C23.1976 18.2625 23.1598 18.3319 23.1019 18.3822C23.0468 18.4277 22.9778 18.4528 22.9064 18.4533C22.8344 18.4561 22.7633 18.4376 22.7019 18.4C22.6545 18.3591 22.6179 18.3072 22.5953 18.2489C22.5678 18.181 22.5528 18.1087 22.5508 18.0355C22.55 17.962 22.5651 17.8893 22.5953 17.8222C22.6193 17.762 22.6632 17.7118 22.7197 17.68C22.7756 17.6448 22.8403 17.6263 22.9064 17.6267C22.9734 17.6284 23.0384 17.6501 23.093 17.6889C23.1462 17.7319 23.1837 17.7913 23.1997 17.8578H23.1019C23.0877 17.8116 23.0634 17.7691 23.0308 17.7333C22.9951 17.7057 22.9515 17.6901 22.9064 17.6889C22.8527 17.6887 22.8002 17.7041 22.7553 17.7333C22.7187 17.7675 22.6912 17.8103 22.6753 17.8578C22.6661 17.9077 22.6661 17.9589 22.6753 18.0089C22.6659 18.0678 22.6659 18.1278 22.6753 18.1867C22.6893 18.2301 22.7174 18.2677 22.7553 18.2933C22.7949 18.3198 22.841 18.3351 22.8886 18.3378C22.9133 18.3386 22.9379 18.3343 22.9609 18.3252C22.9838 18.316 23.0046 18.3021 23.0219 18.2844C23.0604 18.2612 23.0913 18.2272 23.1108 18.1867Z" fill="black"/>
<path d="M23.4219 18.4622V17.6711H23.9997V17.7777H23.5552V18.0266H23.973V18.1155H23.5552V18.3911H23.9997V18.48L23.4219 18.4622Z" fill="black"/>
<path d="M24.2041 18.4622V17.6711H24.3019V18.3733H24.6663V18.4622H24.2041Z" fill="black"/>
<path d="M24.8887 18.4622V17.6711H24.9865V18.3733H25.3598V18.4622H24.8887Z" fill="black"/>
<path d="M25.5464 18.4622V17.6711H26.0886V17.7777H25.6442V18.0266H26.0619V18.1155H25.6442V18.3911H26.1064V18.48L25.5464 18.4622Z" fill="black"/>
<path d="M26.3286 18.4622V17.6711H26.4264L26.8175 18.2933V17.6711H26.9153V18.4622H26.8175L26.4264 17.84V18.4622H26.3286Z" fill="black"/>
<path d="M27.7066 18.1866H27.8044C27.7866 18.262 27.7463 18.3302 27.6889 18.3822C27.6346 18.429 27.565 18.4543 27.4933 18.4533C27.4242 18.456 27.3559 18.4374 27.2978 18.4C27.2452 18.3621 27.205 18.3095 27.1822 18.2489C27.1697 18.1783 27.1697 18.1061 27.1822 18.0355C27.1797 17.9608 27.1982 17.8869 27.2355 17.8222C27.2596 17.762 27.3035 17.7118 27.36 17.68C27.4127 17.645 27.4745 17.6265 27.5378 17.6266C27.6053 17.6253 27.6712 17.6473 27.7244 17.6889C27.7776 17.7319 27.8151 17.7913 27.8311 17.8578H27.7333C27.7228 17.81 27.698 17.7666 27.6622 17.7333C27.6271 17.7045 27.5831 17.6888 27.5378 17.6889C27.4866 17.6869 27.4364 17.7026 27.3955 17.7333C27.3536 17.7627 27.3249 17.8074 27.3155 17.8578C27.3063 17.9077 27.3063 17.9589 27.3155 18.0089C27.3062 18.0678 27.3062 18.1278 27.3155 18.1866C27.3224 18.2095 27.3339 18.2307 27.3491 18.249C27.3644 18.2673 27.3832 18.2824 27.4044 18.2933C27.4402 18.3209 27.4837 18.3365 27.5289 18.3378C27.5814 18.3389 27.6323 18.3198 27.6711 18.2844C27.6878 18.2538 27.6998 18.2208 27.7066 18.1866Z" fill="black"/>
<path d="M28.0176 18.4622V17.6711H28.5509V17.7777H28.1154V18.0266H28.5242V18.1155H28.1154V18.3911H28.5687V18.48L28.0176 18.4622Z" fill="black"/>
<path fill-rule="evenodd" clip-rule="evenodd" d="M4.58661 16.08V17.6978H4.85327V15.92C4.87616 15.7264 4.85081 15.5301 4.77947 15.3486C4.70813 15.1672 4.59302 15.0062 4.44439 14.88C3.97327 14.5511 3.65327 14.7289 3.5555 14.88C3.51044 14.9587 3.4817 15.0458 3.47101 15.1359C3.46032 15.226 3.46789 15.3173 3.49327 15.4044C3.54936 15.5812 3.66996 15.7303 3.83105 15.8222C4.04985 15.9848 4.31403 16.075 4.58661 16.08ZM5.34216 16.08V17.6978H5.0755V15.92C5.05626 15.7211 5.08775 15.5206 5.16703 15.3371C5.2463 15.1537 5.37078 14.9934 5.52883 14.8711C5.99994 14.5422 6.31994 14.72 6.41772 14.8711C6.46426 14.9492 6.49455 15.0359 6.50677 15.1261C6.51899 15.2162 6.51289 15.3078 6.48883 15.3955C6.42485 15.5706 6.3024 15.7182 6.14216 15.8133C5.90988 15.9901 5.62512 16.0839 5.33327 16.08H5.34216ZM8.95994 16.08C8.95278 15.8748 8.98289 15.67 9.04883 15.4755C9.09358 15.3596 9.1566 15.2516 9.2355 15.1555C9.30348 15.0652 9.39179 14.9921 9.49327 14.9422C9.6266 14.8796 9.77273 14.8492 9.91994 14.8533C10.0535 14.8505 10.186 14.8777 10.3076 14.9331C10.4292 14.9885 10.5367 15.0706 10.6222 15.1733C10.8125 15.4292 10.9069 15.7438 10.8888 16.0622C10.9065 16.3792 10.8156 16.6927 10.6311 16.9511C10.5481 17.0598 10.4412 17.1479 10.3186 17.2086C10.196 17.2692 10.0611 17.3008 9.92439 17.3008C9.78763 17.3008 9.65273 17.2692 9.53016 17.2086C9.40759 17.1479 9.30067 17.0598 9.21772 16.9511C9.04022 16.7028 8.94961 16.4028 8.95994 16.0978V16.08ZM15.1822 16.08C15.175 15.8748 15.2051 15.67 15.2711 15.4755C15.3158 15.3596 15.3788 15.2516 15.4577 15.1555C15.5257 15.0652 15.614 14.9921 15.7155 14.9422C15.8488 14.8796 15.9949 14.8492 16.1422 14.8533C16.2757 14.8505 16.4082 14.8777 16.5298 14.9331C16.6514 14.9885 16.7589 15.0706 16.8444 15.1733C17.0347 15.4292 17.1291 15.7438 17.1111 16.0622C17.1307 16.3808 17.0361 16.6959 16.8444 16.9511C16.7607 17.0542 16.655 17.1373 16.535 17.1942C16.4151 17.2511 16.2838 17.2804 16.1511 17.28C16.016 17.2842 15.8818 17.2576 15.7585 17.2021C15.6353 17.1467 15.5264 17.0639 15.4399 16.96C15.2351 16.7186 15.119 16.4143 15.1111 16.0978L15.1822 16.08ZM17.4311 17.2355V14.9067H17.7777V15.9467L18.5866 14.9067H19.1288L18.3822 15.7955L19.1733 17.2267H18.6666L18.1244 16.1244L17.7955 16.5155V17.2267L17.4311 17.2355ZM20.1866 17.2355V14.9067H20.5955V17.2533L20.1866 17.2355ZM7.22661 17.2355V14.9067H7.8755C8.03509 14.8906 8.1959 14.8906 8.3555 14.9067C8.47426 14.9483 8.57483 15.03 8.63994 15.1378C8.7238 15.2735 8.76413 15.4317 8.7555 15.5911C8.75771 15.7162 8.73348 15.8404 8.68439 15.9555C8.64837 16.0455 8.59029 16.125 8.5155 16.1867C8.45921 16.2432 8.3885 16.2831 8.31105 16.3022C8.17209 16.3151 8.03224 16.3151 7.89327 16.3022H7.59105V17.1911L7.22661 17.2355ZM11.2533 17.2355V14.9067H11.6444L12.4444 16.4711V14.9067H12.8177V17.2533H12.4177L11.5555 15.7244V17.2533L11.2533 17.2355ZM26.7822 17.2355H26.3466L26.1688 16.7022H25.3333L25.1644 17.2355H24.7377L25.5199 14.8889H25.9377L26.7822 17.2355ZM20.9777 17.2355V14.9067H21.3333L22.1511 16.4711V14.9067H22.5244V17.2533H22.1155L21.3333 15.7244V17.2533L20.9777 17.2355ZM26.9955 17.2355V14.9067H27.3955V15.7955H28.1866V14.9067H28.5866V17.2533H28.1866V16.2311H27.3955V17.2533L26.9955 17.2355ZM13.2088 14.9067H13.9466C14.0725 14.9038 14.1982 14.9187 14.3199 14.9511C14.4385 14.9972 14.5428 15.0738 14.6222 15.1733C14.7088 15.284 14.7722 15.411 14.8088 15.5467C14.8589 15.729 14.8828 15.9176 14.8799 16.1067C14.8796 16.2745 14.8587 16.4417 14.8177 16.6044C14.7762 16.7542 14.7035 16.8936 14.6044 17.0133C14.5258 17.0974 14.4283 17.1614 14.3199 17.2C14.2058 17.2398 14.0852 17.2579 13.9644 17.2533H13.2088V14.9067ZM22.9333 14.9067H23.6711C23.797 14.9025 23.9229 14.9175 24.0444 14.9511C24.1653 14.9928 24.2707 15.0703 24.3466 15.1733C24.4394 15.2812 24.5063 15.4089 24.5422 15.5467C24.5845 15.7303 24.6054 15.9182 24.6044 16.1067C24.6084 16.2747 24.5874 16.4425 24.5422 16.6044C24.5007 16.7542 24.428 16.8936 24.3288 17.0133C24.2518 17.0991 24.1537 17.1634 24.0444 17.2C23.9302 17.2398 23.8096 17.2579 23.6888 17.2533H22.9333V14.9067ZM9.36883 16.08C9.35457 16.2935 9.41078 16.5059 9.52883 16.6844C9.57481 16.7475 9.63497 16.7988 9.70446 16.8343C9.77394 16.8699 9.8508 16.8885 9.92883 16.8889C10.0056 16.8886 10.0812 16.8698 10.1493 16.8343C10.2173 16.7987 10.2759 16.7473 10.3199 16.6844C10.4327 16.5006 10.4855 16.2863 10.4711 16.0711C10.4931 15.8609 10.4395 15.6498 10.3199 15.4755C10.2746 15.4131 10.2151 15.3623 10.1464 15.3273C10.0776 15.2922 10.0015 15.274 9.92439 15.274C9.84722 15.274 9.77116 15.2922 9.70241 15.3273C9.63366 15.3623 9.57418 15.4131 9.52883 15.4755C9.40954 15.6535 9.35322 15.8663 9.36883 16.08ZM15.5911 16.08C15.5768 16.2935 15.633 16.5059 15.7511 16.6844C15.7951 16.7473 15.8537 16.7987 15.9217 16.8343C15.9898 16.8698 16.0654 16.8886 16.1422 16.8889C16.2202 16.8885 16.2971 16.8699 16.3665 16.8343C16.436 16.7988 16.4962 16.7475 16.5422 16.6844C16.6549 16.5006 16.7077 16.2863 16.6933 16.0711C16.7082 15.8615 16.6552 15.6527 16.5422 15.4755C16.4978 15.4109 16.438 15.3583 16.3681 15.3226C16.2982 15.2869 16.2206 15.2692 16.1422 15.2711C16.0641 15.2714 15.9873 15.2901 15.9178 15.3256C15.8483 15.3611 15.7881 15.4125 15.7422 15.4755C15.6144 15.6511 15.5459 15.8628 15.5466 16.08H15.5911ZM13.6533 15.3067V16.8889H13.9555C14.035 16.9014 14.116 16.9014 14.1955 16.8889C14.2581 16.8747 14.3143 16.8403 14.3555 16.7911C14.4085 16.7267 14.4451 16.6505 14.4622 16.5689C14.4949 16.4261 14.5098 16.2798 14.5066 16.1333C14.5096 15.9927 14.4947 15.8523 14.4622 15.7155C14.444 15.6325 14.4041 15.5559 14.3466 15.4933C14.2985 15.4398 14.2372 15.4 14.1688 15.3778H13.8311L13.6533 15.3067ZM23.3777 15.3067V16.8889H23.6799C23.7624 16.9013 23.8463 16.9013 23.9288 16.8889C23.9896 16.8704 24.0447 16.8368 24.0888 16.7911C24.1418 16.7267 24.1784 16.6505 24.1955 16.5689C24.2123 16.4242 24.2123 16.278 24.1955 16.1333C24.2119 15.9945 24.2119 15.8543 24.1955 15.7155C24.1737 15.6339 24.1342 15.5581 24.0799 15.4933C24.0269 15.4416 23.9632 15.4022 23.8933 15.3778H23.5644L23.3777 15.3067ZM26.0444 16.3289L25.7688 15.44L25.5022 16.3289H26.0444ZM7.59105 15.3067V16H7.80439C7.91049 16.0154 8.01828 16.0154 8.12439 16C8.17578 15.9738 8.21887 15.9337 8.24883 15.8844C8.28239 15.8282 8.2979 15.7631 8.29327 15.6978C8.29586 15.6218 8.27405 15.5471 8.23105 15.4844C8.19188 15.4329 8.13477 15.398 8.07105 15.3867C7.97666 15.374 7.881 15.374 7.78661 15.3867L7.59105 15.3067ZM4.5955 15.7867C4.36146 15.7899 4.13304 15.7148 3.94661 15.5733C3.83792 15.5135 3.7555 15.4152 3.7155 15.2978C3.68004 15.2032 3.68004 15.099 3.7155 15.0044C3.73917 14.9722 3.77405 14.95 3.81327 14.9422C3.88838 14.9335 3.96447 14.941 4.0365 14.9639C4.10853 14.9869 4.17485 15.025 4.23105 15.0755C4.34309 15.1574 4.4344 15.2644 4.49768 15.3878C4.56097 15.5113 4.59447 15.6479 4.5955 15.7867ZM5.34216 15.7867H5.33327C5.56732 15.7899 5.79573 15.7148 5.98216 15.5733C6.08933 15.5217 6.17447 15.4334 6.22216 15.3244C6.24197 15.2781 6.25218 15.2282 6.25218 15.1778C6.25218 15.1273 6.24197 15.0775 6.22216 15.0311C6.19849 14.9989 6.16361 14.9767 6.12439 14.9689C6.05065 14.9604 5.97594 14.9679 5.90537 14.9909C5.8348 15.0139 5.77004 15.0519 5.7155 15.1022C5.60012 15.1758 5.5048 15.2768 5.43809 15.3962C5.37138 15.5157 5.33537 15.6498 5.33327 15.7867H5.34216ZM4.85327 15.1555L4.95994 15.2622L5.05772 15.1111C5.05772 15.1111 5.25327 14.8889 5.48439 14.56C5.58496 14.4282 5.62966 14.2622 5.60883 14.0978C5.59105 13.9273 5.50995 13.7697 5.38157 13.6561C5.25319 13.5425 5.08687 13.4813 4.9155 13.4844C4.82718 13.4856 4.73998 13.5043 4.65895 13.5394C4.57791 13.5745 4.50467 13.6254 4.44347 13.6891C4.38227 13.7528 4.33434 13.828 4.30245 13.9103C4.27056 13.9927 4.25536 14.0806 4.25772 14.1689C4.26179 14.3124 4.30817 14.4516 4.39105 14.5689C4.48883 14.7467 4.85327 15.1555 4.85327 15.1555ZM4.95105 14.8622C4.83136 14.7319 4.71861 14.5954 4.61327 14.4533C4.55805 14.3819 4.52693 14.2947 4.52439 14.2044C4.522 14.1512 4.5303 14.098 4.54877 14.0479C4.56725 13.9979 4.59554 13.9521 4.63198 13.9132C4.66842 13.8743 4.71227 13.843 4.76096 13.8213C4.80965 13.7996 4.86219 13.7878 4.9155 13.7867C5.01916 13.7836 5.12026 13.8192 5.19912 13.8866C5.27798 13.9539 5.32897 14.0482 5.34216 14.1511C5.35418 14.2542 5.32896 14.3583 5.27105 14.4444C5.14661 14.6222 5.03105 14.7644 4.95105 14.8622Z" fill="url(#paint0_linear_2707_312608)"/>
<path fill-rule="evenodd" clip-rule="evenodd" d="M13.2088 16.2489V14.9067H13.9466C14.0725 14.9038 14.1982 14.9187 14.3199 14.9511C14.4385 14.9972 14.5428 15.0738 14.6222 15.1733C14.7088 15.284 14.7722 15.411 14.8088 15.5467C14.8589 15.729 14.8828 15.9176 14.8799 16.1067C14.8799 16.1511 14.8799 16.2044 14.8799 16.2489H14.4622C14.4668 16.1927 14.4668 16.1362 14.4622 16.08C14.4652 15.9394 14.4502 15.799 14.4177 15.6622C14.3995 15.5792 14.3597 15.5025 14.3022 15.44C14.2541 15.3865 14.1928 15.3466 14.1244 15.3244H13.7866H13.6088V16.2667L13.2088 16.2489ZM15.1377 16.2489V16.0978C15.1306 15.8926 15.1607 15.6878 15.2266 15.4933C15.2714 15.3774 15.3344 15.2693 15.4133 15.1733C15.4813 15.083 15.5696 15.0099 15.6711 14.96C15.8044 14.8974 15.9505 14.867 16.0977 14.8711C16.2313 14.8682 16.3638 14.8955 16.4854 14.9509C16.6069 15.0063 16.7145 15.0884 16.7999 15.1911C16.9903 15.447 17.0847 15.7616 17.0666 16.08C17.0713 16.1273 17.0713 16.1749 17.0666 16.2222H16.6488C16.6532 16.169 16.6532 16.1154 16.6488 16.0622C16.6638 15.8526 16.6108 15.6438 16.4977 15.4667C16.4533 15.402 16.3935 15.3494 16.3237 15.3137C16.2538 15.278 16.1761 15.2603 16.0977 15.2622C16.0197 15.2625 15.9428 15.2812 15.8733 15.3167C15.8039 15.3523 15.7437 15.4036 15.6977 15.4667C15.5857 15.6475 15.5329 15.8588 15.5466 16.0711C15.5466 16.1244 15.5466 16.1867 15.5466 16.2311L15.1377 16.2489ZM12.7822 16.2489H12.4444V14.9155H12.8177L12.7822 16.2489ZM12.2933 16.2489H11.8488L11.5822 15.7333V16.24H11.2088V14.9067H11.5999L12.2933 16.2489ZM8.95994 16.1955V16.1067C8.95278 15.9015 8.98289 15.6967 9.04883 15.5022C9.09358 15.3863 9.1566 15.2782 9.2355 15.1822C9.30348 15.0918 9.39179 15.0188 9.49327 14.9689C9.6266 14.9063 9.77273 14.8759 9.91994 14.88C10.0535 14.8771 10.186 14.9044 10.3076 14.9598C10.4292 15.0152 10.5367 15.0973 10.6222 15.2C10.8125 15.4559 10.9069 15.7705 10.8888 16.0889V16.2311H10.4711V16.0889C10.4931 15.8787 10.4395 15.6676 10.3199 15.4933C10.2746 15.4309 10.2151 15.3801 10.1464 15.345C10.0776 15.31 10.0015 15.2917 9.92439 15.2917C9.84722 15.2917 9.77116 15.31 9.70241 15.345C9.63366 15.3801 9.57418 15.4309 9.52883 15.4933C9.40954 15.6713 9.35322 15.8841 9.36883 16.0978C9.36883 16.0978 9.36883 16.1778 9.36883 16.2133L8.95994 16.1955ZM17.3866 16.1955V14.9067H17.7777V15.9467L18.5866 14.9067H19.1288L18.3822 15.7955L18.5866 16.16H18.1244V16.1067L18.0799 16.16L17.3866 16.1955ZM7.18216 16.1244V14.9067H7.83105C7.99065 14.8906 8.15146 14.8906 8.31105 14.9067C8.42982 14.9483 8.53038 15.03 8.5955 15.1378C8.67936 15.2735 8.71968 15.4317 8.71105 15.5911C8.71327 15.7162 8.68904 15.8404 8.63994 15.9555C8.61726 16.0216 8.58091 16.0822 8.53327 16.1333L7.18216 16.1244ZM20.5155 16.1244H20.1066V14.9067H20.5155V16.1244ZM21.8933 16.0622H21.4577L21.2711 15.7067V16.0711H20.8977V14.9067H21.3333L21.8933 16.0622ZM5.00439 16.0622V15.9555C4.98515 15.7566 5.01664 15.5561 5.09591 15.3727C5.17519 15.1893 5.29967 15.0289 5.45772 14.9067C5.92883 14.5778 6.24883 14.7555 6.34661 14.9067C6.39315 14.9848 6.42344 15.0715 6.43566 15.1616C6.44788 15.2517 6.44178 15.3434 6.41772 15.4311C6.35374 15.6061 6.23128 15.7537 6.07105 15.8489C5.91071 15.963 5.7295 16.0446 5.53772 16.0889L5.00439 16.0622ZM22.4444 16.0622H22.0711V14.9067H22.4444V16.0622ZM4.07994 16H4.25772H4.86216V15.9022C4.88099 15.7107 4.85277 15.5175 4.77996 15.3393C4.70716 15.1612 4.59196 15.0035 4.44439 14.88C3.97327 14.5511 3.65327 14.7289 3.5555 14.88C3.51044 14.9587 3.4817 15.0458 3.47101 15.1359C3.46032 15.226 3.46789 15.3173 3.49327 15.4044C3.54936 15.5812 3.66996 15.7303 3.83105 15.8222C3.90811 15.8893 3.99146 15.9489 4.07994 16ZM22.9333 16V14.9067H23.6711C23.797 14.9025 23.9229 14.9175 24.0444 14.9511C24.1653 14.9928 24.2707 15.0703 24.3466 15.1733C24.4394 15.2812 24.5063 15.4089 24.5422 15.5467C24.5706 15.6633 24.5884 15.7823 24.5955 15.9022H24.1866C24.1933 15.8134 24.1933 15.7243 24.1866 15.6355C24.1648 15.5539 24.1254 15.4781 24.0711 15.4133C24.018 15.3616 23.9543 15.3222 23.8844 15.2978H23.5555H23.3688V16H22.9333ZM7.59105 15.3067V16H7.80439C7.91049 16.0154 8.01828 16.0154 8.12439 16C8.17578 15.9738 8.21887 15.9337 8.24883 15.8844C8.28239 15.8282 8.2979 15.7631 8.29327 15.6978C8.29586 15.6218 8.27405 15.5471 8.23105 15.4844C8.19188 15.4329 8.13477 15.398 8.07105 15.3867C7.97666 15.374 7.881 15.374 7.78661 15.3867L7.59105 15.3067ZM26.2577 15.7689H25.8577L25.7511 15.4222L25.6355 15.7867H25.2355L25.5466 14.8355H25.9644L26.2577 15.7689ZM4.62216 15.7689C4.38812 15.7722 4.15971 15.6971 3.97327 15.5555C3.86459 15.4957 3.78217 15.3974 3.74216 15.28C3.70671 15.1854 3.70671 15.0812 3.74216 14.9867C3.76583 14.9544 3.80072 14.9322 3.83994 14.9244C3.91505 14.9158 3.99114 14.9232 4.06317 14.9462C4.1352 14.9692 4.20151 15.0072 4.25772 15.0578C4.36729 15.1442 4.45497 15.2552 4.51365 15.3819C4.57233 15.5085 4.60037 15.6472 4.5955 15.7867L4.62216 15.7689ZM5.36883 15.7689H5.33327C5.56732 15.7722 5.79573 15.6971 5.98216 15.5555C6.08634 15.5084 6.17109 15.4267 6.22216 15.3244C6.24197 15.2781 6.25218 15.2282 6.25218 15.1778C6.25218 15.1273 6.24197 15.0775 6.22216 15.0311C6.19849 14.9989 6.16361 14.9767 6.12439 14.9689C6.05065 14.9604 5.97594 14.9679 5.90537 14.9909C5.8348 15.0139 5.77004 15.0519 5.7155 15.1022C5.60012 15.1758 5.5048 15.2768 5.43809 15.3962C5.37138 15.5157 5.33537 15.6498 5.33327 15.7867L5.36883 15.7689ZM27.3777 15.6444H26.9777V14.8533H27.3777V15.6444ZM28.5688 15.52L28.1688 15.5644V14.8889H28.5688V15.52ZM4.85327 15.1555L4.95994 15.2622L5.05772 15.1111C5.05772 15.1111 5.25327 14.8889 5.48439 14.56C5.58496 14.4282 5.62966 14.2622 5.60883 14.0978C5.59105 13.9273 5.50995 13.7697 5.38157 13.6561C5.25319 13.5425 5.08687 13.4813 4.9155 13.4844C4.82718 13.4856 4.73998 13.5043 4.65895 13.5394C4.57791 13.5745 4.50467 13.6254 4.44347 13.6891C4.38227 13.7528 4.33434 13.828 4.30245 13.9103C4.27056 13.9927 4.25536 14.0806 4.25772 14.1689C4.26179 14.3124 4.30817 14.4516 4.39105 14.5689C4.48883 14.7467 4.85327 15.1555 4.85327 15.1555ZM4.95105 14.8622C4.83136 14.7319 4.71861 14.5954 4.61327 14.4533C4.55805 14.3819 4.52693 14.2947 4.52439 14.2044C4.522 14.1512 4.5303 14.098 4.54877 14.0479C4.56725 13.9979 4.59554 13.9521 4.63198 13.9132C4.66842 13.8743 4.71227 13.843 4.76096 13.8213C4.80965 13.7996 4.86219 13.7878 4.9155 13.7867C5.01916 13.7836 5.12026 13.8192 5.19912 13.8866C5.27798 13.9539 5.32897 14.0482 5.34216 14.1511C5.35418 14.2542 5.32896 14.3583 5.27105 14.4444C5.14661 14.6222 5.03105 14.7644 4.95105 14.8622Z" fill="url(#paint1_linear_2707_312608)"/>
</g>
<defs>
<linearGradient id="paint0_linear_2707_312608" x1="18.3035" y1="13.6864" x2="18.3035" y2="14.7264" gradientUnits="userSpaceOnUse">
<stop stop-color="#185600"/>
<stop offset="1" stop-color="#44B400"/>
</linearGradient>
<linearGradient id="paint1_linear_2707_312608" x1="14.0873" y1="21.2554" x2="14.0607" y2="19.9754" gradientUnits="userSpaceOnUse">
<stop stop-color="#288500"/>
<stop offset="1" stop-color="#186300"/>
</linearGradient>
<clipPath id="clip0_2707_312608">
<rect width="32" height="32" fill="white"/>
</clipPath>
</defs>
</svg>
