<svg width="32" height="32" viewBox="0 0 32 32" fill="none" xmlns="http://www.w3.org/2000/svg">
<g clip-path="url(#clip0_2810_57713)">
<mask id="mask0_2810_57713" style="mask-type:luminance" maskUnits="userSpaceOnUse" x="0" y="-1" width="32" height="33">
<path d="M32 -0.0800171H0V31.92H32V-0.0800171Z" fill="white"/>
</mask>
<g mask="url(#mask0_2810_57713)">
<path d="M16 31.92C24.8366 31.92 32 24.7565 32 15.92C32 7.08343 24.8366 -0.0800171 16 -0.0800171C7.16344 -0.0800171 0 7.08343 0 15.92C0 24.7565 7.16344 31.92 16 31.92Z" fill="white"/>
<mask id="mask1_2810_57713" style="mask-type:luminance" maskUnits="userSpaceOnUse" x="2" y="2" width="28" height="28">
<path d="M2.66699 15.92C2.66699 18.5571 3.44898 21.135 4.91406 23.3276C6.37915 25.5203 8.46153 27.2292 10.8979 28.2384C13.3342 29.2476 16.0151 29.5116 18.6015 28.9971C21.1879 28.4827 23.5637 27.2128 25.4284 25.3481C27.2931 23.4834 28.563 21.1076 29.0775 18.5212C29.5919 15.9348 29.3279 13.2539 28.3187 10.8176C27.3096 8.38121 25.6006 6.29883 23.4079 4.83374C21.2153 3.36866 18.6374 2.58667 16.0003 2.58667C12.4641 2.58667 9.07272 3.99143 6.57224 6.49191C4.07175 8.9924 2.66699 12.3838 2.66699 15.92Z" fill="white"/>
</mask>
<g mask="url(#mask1_2810_57713)">
<path d="M29.3337 15.92C29.3337 18.5571 28.5517 21.135 27.0866 23.3276C25.6215 25.5203 23.5391 27.2292 21.1028 28.2384C18.6664 29.2476 15.9855 29.5116 13.3991 28.9971C10.8127 28.4827 8.43694 27.2128 6.57224 25.3481C4.70754 23.4834 3.43766 21.1076 2.92319 18.5212C2.40872 15.9348 2.67277 13.2539 3.68194 10.8176C4.69111 8.38121 6.40007 6.29883 8.59273 4.83374C10.7854 3.36866 13.3632 2.58667 16.0003 2.58667C17.7513 2.58667 19.4851 2.93155 21.1028 3.60161C22.7205 4.27167 24.1903 5.2538 25.4284 6.49191C26.6665 7.73003 27.6487 9.19988 28.3187 10.8176C28.9888 12.4352 29.3337 14.169 29.3337 15.92Z" fill="white"/>
</g>
<path d="M16.0002 19.6C18.7494 19.6 20.978 17.3713 20.978 14.6222C20.978 11.873 18.7494 9.64441 16.0002 9.64441C13.2511 9.64441 11.0225 11.873 11.0225 14.6222C11.0225 17.3713 13.2511 19.6 16.0002 19.6Z" fill="url(#paint0_radial_2810_57713)"/>
<path d="M10.9601 14.64C9.86688 14.7152 8.78659 14.9211 7.74233 15.2533C7.36831 15.3882 7.02194 15.59 6.72011 15.8489C6.20581 16.2492 5.74039 16.7087 5.33344 17.2178L5.21789 17.3511C5.07567 17.4755 4.99567 17.4755 4.889 17.3511C4.80949 17.2023 4.74116 17.0478 4.68455 16.8889C4.39637 16.3574 4.17257 15.7934 4.01789 15.2089C3.87555 14.5948 3.87555 13.9563 4.01789 13.3422C4.08171 13.0471 4.21966 12.773 4.41872 12.546C4.61779 12.3189 4.87141 12.1463 5.15567 12.0444C5.76718 11.8116 6.42715 11.7352 7.07567 11.8222C8.04938 11.9565 9.01409 12.1494 9.96455 12.4C10.4179 12.5155 10.8534 12.6667 11.3157 12.8H11.4134H11.4757C11.9646 12.9422 12.4534 13.0578 12.9334 13.2267L14.2757 13.68L15.369 14.0355L15.5468 14.1778L15.3068 14.2578L14.7379 14.32H14.5957L13.4934 14.3911L11.1379 14.5422H11.0757L10.9601 14.64Z" fill="#016D02"/>
<path d="M20.7736 12.9333L21.9202 12.6044C22.8448 12.3218 23.7858 12.0962 24.738 11.9289C25.1725 11.8309 25.6172 11.7861 26.0625 11.7955C26.5341 11.8132 26.9984 11.9187 27.4314 12.1066C27.7048 12.2342 27.9413 12.4292 28.1186 12.6733C28.2959 12.9175 28.4081 13.2027 28.4447 13.5022C28.5866 14.3465 28.4817 15.2139 28.1425 16C27.9736 16.4178 27.778 16.8178 27.5736 17.2089C27.3691 17.6 27.3336 17.5022 27.1114 17.2622C26.8891 17.0222 26.5158 16.5689 26.2225 16.2578C25.854 15.8415 25.3989 15.5108 24.8891 15.2889C24.5076 15.1547 24.1188 15.0419 23.7247 14.9511C22.8768 14.7422 22.0104 14.6172 21.138 14.5778H21.0936L19.2536 14.4622L17.9202 14.3822C17.6714 14.3822 17.4314 14.32 17.1825 14.2933C17.138 14.2222 17.1825 14.1866 17.2269 14.1422L17.5914 14.0089L18.6669 13.6533L19.9469 13.2266L20.7736 12.9333Z" fill="#016D02"/>
<path d="M12.7738 18.3466C11.6734 19.4619 10.7204 20.7136 9.93821 22.0711C9.52145 22.7777 9.20155 23.5371 8.98709 24.3289C8.91598 24.64 8.88043 24.9511 8.82709 25.2622C8.82709 25.36 8.82709 25.4578 8.77376 25.5822L8.60487 25.4578C7.88589 24.8217 7.3982 23.9651 7.2182 23.0222C7.12481 22.5646 7.12388 22.0929 7.21547 21.635C7.30706 21.177 7.48933 20.742 7.75154 20.3555C8.31792 19.5223 9.04652 18.8118 9.89376 18.2666C10.4626 17.8844 11.0582 17.5466 11.6715 17.1911L11.7782 17.1289C12.0715 16.9689 12.356 16.8089 12.6671 16.6578C12.9782 16.5066 13.0849 16.4711 13.2982 16.3644L14.916 15.5911C15.0138 15.5911 15.1293 15.5378 15.236 15.5022V15.6L15.1738 15.7155C14.7293 16.2578 14.2849 16.7911 13.7871 17.3066L12.7738 18.3466Z" fill="#01411C"/>
<path d="M20.4446 16.9778L21.6979 17.7155C22.4748 18.1685 23.1891 18.7214 23.8223 19.36C24.1498 19.6877 24.439 20.0515 24.6846 20.4444C24.9474 20.8842 25.112 21.3756 25.1673 21.885C25.2225 22.3944 25.167 22.9096 25.0046 23.3955C24.781 24.1468 24.3569 24.8229 23.7779 25.3511C23.7157 25.4133 23.6446 25.4578 23.5557 25.5378C23.5557 25.3689 23.4934 25.2355 23.4846 25.0933C23.3855 24.3193 23.1635 23.5661 22.8268 22.8622L22.7112 22.5867C22.3285 21.8767 21.9072 21.1882 21.449 20.5244C20.9283 19.8229 20.3674 19.1521 19.769 18.5155L19.5112 18.24L18.7912 17.44L17.2534 15.6622C17.2534 15.6622 17.1823 15.6089 17.1557 15.5822C17.129 15.5555 17.0934 15.44 17.1557 15.3867C17.2555 15.4198 17.3534 15.4584 17.449 15.5022L19.9646 16.7111L20.4446 16.9778Z" fill="#01411C"/>
<path d="M11.6442 12.32C10.7556 11.955 9.83238 11.681 8.8886 11.5022C8.33749 11.4133 7.77749 11.3155 7.21749 11.2711C6.8031 11.2445 6.38744 11.2445 5.97305 11.2711C5.49319 11.3122 5.02091 11.4168 4.5686 11.5822H4.45305H4.37305C4.37305 11.4578 4.37305 11.3422 4.45305 11.2266C4.69976 10.3641 5.21317 9.60174 5.91971 9.04887C6.5335 8.56584 7.31209 8.34247 8.0886 8.42664C8.95386 8.54863 9.78373 8.8515 10.5242 9.31553C11.2797 9.77114 11.9962 10.2885 12.6664 10.8622L12.7464 10.9066L13.3597 11.4666C13.6442 11.7155 13.9286 11.9644 14.2486 12.2222C14.5686 12.48 14.7464 12.7111 15.013 12.9422C15.3054 13.1897 15.5469 13.4916 15.7242 13.8311C15.7432 13.9042 15.7581 13.9784 15.7686 14.0533H15.6708C15.3242 13.8578 14.9775 13.6533 14.6219 13.4844C14.2664 13.3155 13.733 13.0578 13.2619 12.8711C12.7908 12.6844 12.1686 12.5333 11.6442 12.32Z" fill="#019B03"/>
<path d="M21.049 14.8267L21.8934 14.96C22.8254 15.1064 23.7266 15.4068 24.5601 15.8489C25.1779 16.155 25.7073 16.614 26.0978 17.1822C26.4947 17.8162 26.7213 18.5418 26.7556 19.2889C26.7887 19.9589 26.6797 20.6284 26.4356 21.2533C26.4356 21.2533 26.4356 21.3333 26.4356 21.3689L26.3823 21.4222C26.3289 21.3422 26.2756 21.2622 26.2312 21.1822C25.6763 20.1935 24.9154 19.3356 24.0001 18.6667C23.529 18.3111 23.0578 17.9644 22.5778 17.6356C21.977 17.2493 21.347 16.9104 20.6934 16.6222L18.9156 15.7333L18.0267 15.2978L17.5023 15.0489C17.3334 14.9067 17.1023 14.8533 16.9512 14.6578L17.0223 14.6044C17.1406 14.5956 17.2595 14.5956 17.3778 14.6044L18.7023 14.6756L20.1423 14.7644L21.049 14.8267Z" fill="#014F02"/>
<path d="M11.5553 16.6133L10.5419 17.1111C9.76314 17.5384 9.02262 18.0321 8.32862 18.5866C7.67453 19.0763 7.09383 19.657 6.60417 20.3111C6.39973 20.5777 6.23973 20.8711 6.06195 21.1555L5.91973 21.3866C5.83973 21.1555 5.75973 20.9777 5.70639 20.7911C5.39144 19.7415 5.47046 18.6131 5.92862 17.6177C6.23141 16.9714 6.71648 16.4276 7.32417 16.0533C8.05195 15.5986 8.85602 15.2794 9.69751 15.1111C10.1242 15.0222 10.5864 14.96 10.9953 14.8889H11.1108H11.2531C11.7775 14.8444 12.2931 14.7911 12.8175 14.7555L14.3286 14.6755H14.5331C14.7748 14.6409 15.0202 14.6409 15.262 14.6755L15.1286 14.8177L14.9864 14.8977L14.7108 15.0311L12.3464 16.2044L11.5553 16.6133Z" fill="#014F02"/>
<path d="M19.5552 11.0844L20.5596 10.3022C21.1677 9.8183 21.8299 9.40665 22.5329 9.07555C22.9957 8.85204 23.4906 8.70209 23.9996 8.6311C24.59 8.55083 25.1906 8.65975 25.7152 8.94222C26.4428 9.33379 27.0163 9.96049 27.3418 10.72C27.4409 10.9551 27.527 11.1954 27.5996 11.44C27.6062 11.4901 27.6062 11.541 27.5996 11.5911H27.4218C27.0663 11.5022 26.7107 11.3955 26.3552 11.3333C25.8859 11.2491 25.4072 11.2311 24.9329 11.28C24.3552 11.3422 23.7863 11.4133 23.2174 11.52C22.5891 11.6332 21.973 11.8059 21.3774 12.0355L20.4885 12.3555C20.1418 12.48 19.7952 12.6044 19.4574 12.7467C18.6795 13.046 17.9248 13.4025 17.1996 13.8133C17.0762 13.8757 16.9485 13.9292 16.8174 13.9733V13.8933V13.8311L16.9507 13.5555C17.0473 13.4254 17.1512 13.3007 17.2618 13.1822L18.5063 11.9911C18.8529 11.6889 19.1996 11.3955 19.5552 11.0844Z" fill="#019B03"/>
<path d="M12.9871 10.7733C12.2791 10.1309 11.5008 9.5703 10.6671 9.10223C10.2138 8.85334 9.77826 8.60445 9.29826 8.4C8.64711 8.09232 7.93829 7.92572 7.21826 7.91112C7.11773 7.92024 7.01657 7.92024 6.91604 7.91112H6.82715C6.91264 7.77139 7.00768 7.63774 7.11159 7.51112C7.50845 6.98582 8.02704 6.56485 8.6227 6.28445C9.10819 6.05762 9.64392 5.95966 10.1783 6.00001C10.8103 6.06522 11.4081 6.3192 11.8938 6.72889C12.5472 7.2473 13.1116 7.86879 13.5649 8.56889C13.8671 9.01334 14.1427 9.45778 14.4538 9.93778L15.0049 10.9333C15.1738 11.2533 15.3516 11.5644 15.5027 11.8933C15.7367 12.347 15.9043 12.832 16.0005 13.3333V13.5644L15.8938 13.6356L15.7516 13.5022L15.6805 13.3333C15.1887 12.763 14.657 12.2283 14.0894 11.7333C13.7249 11.4044 13.3338 11.0933 12.9871 10.7733Z" fill="#019B03"/>
<path d="M17.9823 10.0355C18.2223 9.6533 18.4623 9.26219 18.7112 8.87997C19.0379 8.36782 19.4097 7.88591 19.8223 7.43997C20.2313 7.00538 20.7051 6.63659 21.2267 6.34663C21.537 6.17492 21.8784 6.06682 22.231 6.02866C22.5836 5.99051 22.9402 6.02306 23.28 6.12441C24.215 6.38487 25.0198 6.98367 25.5378 7.80441C25.5558 7.83857 25.5707 7.87427 25.5823 7.91108H25.0134C24.1711 7.97914 23.3514 8.21807 22.6045 8.6133C21.9853 8.90553 21.3908 9.24739 20.8267 9.63552C20.4089 9.94663 20 10.2755 19.5912 10.5955L19.2978 10.8533C18.8978 11.2089 18.48 11.5555 18.08 11.9289C17.68 12.3022 17.3778 12.6044 17.04 12.96C16.8765 13.1355 16.7222 13.3194 16.5778 13.5111L16.3734 13.6444C16.3651 13.5617 16.3651 13.4783 16.3734 13.3955C16.4022 13.0844 16.4929 12.7822 16.64 12.5066C16.8889 11.9911 17.1645 11.4755 17.4312 10.9689C17.5912 10.6489 17.7689 10.3377 17.9289 10.0266L17.9823 10.0355Z" fill="#019B03"/>
<path d="M11.671 25.2445C11.2532 24.4 10.9065 23.52 10.5065 22.6578C10.5022 22.717 10.5022 22.7764 10.5065 22.8356V24.7022C10.5059 24.8466 10.5527 24.9871 10.6398 25.1022H10.9065V25.2711H9.84873V25.1022H10.0976C10.1431 25.0535 10.1784 24.9961 10.2013 24.9335C10.2242 24.8709 10.2343 24.8044 10.231 24.7378C10.2394 24.5809 10.2394 24.4236 10.231 24.2667C10.231 23.7867 10.231 23.3067 10.231 22.8178C10.231 22.5333 10.231 22.4978 9.90207 22.4622H9.83984V22.32H10.9954L11.831 24.4089C11.9984 24.0678 12.1468 23.7176 12.2754 23.36C12.4176 23.0133 12.5687 22.6756 12.711 22.32H13.7421V22.4711H13.4665C13.443 22.5401 13.4281 22.6118 13.4221 22.6845V24.9778C13.4195 25.0222 13.4195 25.0667 13.4221 25.1111H13.6887V25.2978H12.5154C12.4532 25.1733 12.471 25.1289 12.5954 25.1111C12.6368 25.1067 12.6785 25.1067 12.7198 25.1111H12.8176C12.9003 24.2692 12.9152 23.4221 12.8621 22.5778C12.7198 22.8978 12.5954 23.1911 12.471 23.4667C12.3465 23.7422 12.231 24.0711 12.0976 24.3556C12.0034 24.6726 11.8594 24.9726 11.671 25.2445Z" fill="#DFA60F"/>
<path d="M22.7025 22.5867L22.8181 22.8622C22.8599 23.0573 22.8348 23.2608 22.747 23.44C22.64 23.6152 22.4723 23.7449 22.2758 23.8044H22.107C22.3771 24.0681 22.6103 24.3671 22.8003 24.6933C22.8592 24.7913 22.9309 24.881 23.0136 24.96C23.1177 25.0275 23.2317 25.0785 23.3514 25.1111V25.2533H22.4625C22.3104 25.0933 22.1844 24.9103 22.0892 24.7111L21.7247 24.0889C21.6785 24.033 21.615 23.994 21.5443 23.9779C21.4736 23.9618 21.3995 23.9696 21.3336 24C21.3114 24.3682 21.3293 24.7378 21.387 25.1022H21.6536V25.28H20.4447C20.4447 25.28 20.4447 25.28 20.4447 25.2267C20.4447 25.1733 20.4447 25.1555 20.4447 25.1022H20.7114C20.7207 25.0344 20.7207 24.9656 20.7114 24.8978C20.7114 24.1955 20.7114 23.5022 20.7114 22.8C20.7114 22.4978 20.7114 22.4978 20.4092 22.4444V22.2933H20.6403C21.0136 22.2933 21.387 22.2933 21.7603 22.2933C22.0301 22.2789 22.2968 22.3573 22.5158 22.5155C22.5757 22.545 22.6382 22.5688 22.7025 22.5867ZM21.3336 23.8311C21.7958 23.8311 22.0536 23.68 22.1336 23.2978C22.1748 23.2081 22.1944 23.1101 22.1908 23.0115C22.1873 22.9129 22.1607 22.8166 22.1131 22.7301C22.0656 22.6437 21.9985 22.5696 21.9171 22.5138C21.8358 22.458 21.7425 22.4221 21.6447 22.4089C21.4403 22.3644 21.3425 22.4089 21.3425 22.64C21.3425 22.8711 21.3425 22.9333 21.3425 23.0844L21.3336 23.8311Z" fill="#DFA60F"/>
<path d="M15.1115 23.6622C15.1838 23.6549 15.2532 23.6301 15.3136 23.5898C15.3741 23.5495 15.4237 23.495 15.4582 23.4311L15.9738 22.7911C16.036 22.7111 16.1071 22.64 16.0893 22.5244C16.0715 22.4089 15.8671 22.4711 15.9382 22.3022H16.9515V22.4533C16.5338 22.4533 16.3293 22.7822 16.0627 23.0311L15.7871 23.3511C15.7474 23.3984 15.7117 23.4489 15.6804 23.5022L16.0804 24.0622C16.2493 24.3022 16.4182 24.5422 16.6049 24.7733C16.6842 24.8821 16.7734 24.9833 16.8715 25.0755C16.9434 25.1135 17.0218 25.1376 17.1027 25.1466V25.2977H15.9204V25.1644L16.0804 25.0755C15.853 24.7046 15.6068 24.3456 15.3427 24C15.2982 23.9377 15.2627 23.8311 15.1471 23.8489C15.0895 24.2676 15.0895 24.6923 15.1471 25.1111H15.3515V25.2889H14.2227V25.1111H14.4627V22.5155L14.2227 22.4355V22.3022H15.396V22.4355C15.156 22.4977 15.1471 22.5066 15.1471 22.7466C15.1471 22.9866 15.1471 23.2355 15.1471 23.4844C15.131 23.5427 15.1191 23.6021 15.1115 23.6622Z" fill="#DFA60F"/>
<path d="M18.2667 22.5066C18.0397 22.4786 17.8092 22.4998 17.5911 22.5689C17.5413 22.5933 17.4961 22.6264 17.4578 22.6666L17.1556 23.1111C17.0134 23.1111 17.0223 23.0222 17.04 22.9333C17.0578 22.8444 17.1289 22.6311 17.1645 22.48C17.2 22.3289 17.1645 22.3377 17.2089 22.2755C17.2255 22.2264 17.2463 22.1788 17.2711 22.1333C17.3813 22.2209 17.5087 22.2844 17.645 22.3196C17.7813 22.3548 17.9234 22.361 18.0623 22.3377H19.0489C19.3586 22.371 19.6707 22.3024 19.9378 22.1422C19.9378 22.2666 20 22.3644 20.0178 22.4622C20.0356 22.56 20.0711 22.7644 20.0889 22.9155C20.1067 23.0666 20.0889 23.0666 19.9911 23.1289L19.6178 22.64C19.377 22.549 19.1176 22.5185 18.8623 22.5511C18.8623 23.44 18.8623 24.2844 18.8623 25.1466H19.1911V25.3244H17.8845V25.1555H18.2311C18.2553 25.0897 18.2702 25.0209 18.2756 24.9511V22.5066H18.2667Z" fill="#DFA60F"/>
<path d="M15.9997 29.0133C13.4259 29.0133 10.9099 28.2501 8.76985 26.8202C6.62982 25.3902 4.96186 23.3578 3.97692 20.98C2.99197 18.6021 2.73426 15.9855 3.23638 13.4612C3.7385 10.9369 4.9779 8.6181 6.79785 6.79816C8.6178 4.97821 10.9366 3.73881 13.4609 3.23669C15.9852 2.73456 18.6018 2.99227 20.9797 3.97722C23.3575 4.96217 25.3899 6.63012 26.8199 8.77015C28.2498 10.9102 29.013 13.4262 29.013 16C29.0083 19.4499 27.6357 22.7571 25.1963 25.1966C22.7568 27.636 19.4496 29.0086 15.9997 29.0133ZM15.9997 3.31553C13.4909 3.31553 11.0385 4.05946 8.95257 5.45324C6.86662 6.84703 5.24082 8.82807 4.28077 11.1458C3.32071 13.4636 3.06952 16.014 3.55895 18.4746C4.04838 20.9351 5.25646 23.1953 7.03041 24.9692C8.80436 26.7432 11.0645 27.9513 13.5251 28.4407C15.9856 28.9301 18.536 28.6789 20.8538 27.7189C23.1716 26.7588 25.1526 25.133 26.5464 23.0471C27.9402 20.9611 28.6841 18.5087 28.6841 16C28.6818 12.6366 27.3446 9.4116 24.9663 7.03332C22.588 4.65503 19.3631 3.31788 15.9997 3.31553Z" fill="#DFA60F"/>
</g>
</g>
<defs>
<radialGradient id="paint0_radial_2810_57713" cx="0" cy="0" r="1" gradientUnits="userSpaceOnUse" gradientTransform="translate(16.0002 14.6222) scale(4.97778)">
<stop stop-color="white"/>
<stop offset="1" stop-color="#7ACFF4"/>
</radialGradient>
<clipPath id="clip0_2810_57713">
<rect width="32" height="32" fill="white"/>
</clipPath>
</defs>
</svg>
