<svg width="32" height="32" viewBox="0 0 32 32" fill="none" xmlns="http://www.w3.org/2000/svg">
<g clip-path="url(#clip0_2810_58019)">
<mask id="mask0_2810_58019" style="mask-type:luminance" maskUnits="userSpaceOnUse" x="0" y="0" width="32" height="32">
<path d="M31.9909 0.0177612H0.0175781V31.9911H31.9909V0.0177612Z" fill="white"/>
</mask>
<g mask="url(#mask0_2810_58019)">
<path d="M15.9998 31.9822C24.8265 31.9822 31.982 24.8267 31.982 16C31.982 7.17325 24.8265 0.0177612 15.9998 0.0177612C7.17306 0.0177612 0.0175781 7.17325 0.0175781 16C0.0175781 24.8267 7.17306 31.9822 15.9998 31.9822Z" fill="white"/>
<path d="M20.1242 12.9333C19.8931 13.0667 19.662 13.1911 19.4309 13.3244C18.5509 13.8133 17.6797 14.32 16.8086 14.8089C16.5686 14.9511 16.3375 15.0755 16.0886 15.2178C16.0709 15.2178 16.0531 15.2355 16.0353 15.2444C15.9997 15.2622 15.9731 15.2622 15.9375 15.2444C15.8309 15.1822 15.7331 15.1289 15.6264 15.0755C14.6931 14.5511 13.7509 14.0178 12.8086 13.4755C12.5153 13.3155 12.222 13.1378 11.9197 12.9778C11.8931 12.9778 11.8753 12.9511 11.8486 12.9422C11.8486 12.9422 11.8486 12.9422 11.8486 12.9244C11.8486 12.8889 11.8486 12.8444 11.8486 12.8089V8.24888C11.8486 8.24888 11.902 8.27555 11.9286 8.28443C13.1197 8.95999 14.3109 9.63555 15.5109 10.3111C15.6531 10.3911 15.7953 10.4622 15.9375 10.5511C15.982 10.5778 16.0086 10.5689 16.0531 10.5511C16.3731 10.3733 16.6842 10.1867 17.0042 10.0089C17.7597 9.57332 18.5242 9.14666 19.2797 8.7111C19.5286 8.55999 19.7864 8.42666 20.0353 8.27555C20.062 8.25777 20.0886 8.24888 20.1153 8.23999V12.7822C20.1153 12.8444 20.1153 12.8889 20.1153 12.9333H20.1242Z" fill="#E61788"/>
<path d="M11.8573 12.9155C11.8573 12.9155 11.8573 12.9155 11.8573 12.9333C11.8573 12.9866 11.8573 13.04 11.8573 13.0844V17.4755C11.8573 17.6266 11.875 17.6 11.7328 17.6711C11.0928 18.0355 10.4528 18.4 9.81282 18.7555C9.27949 19.0578 8.75504 19.36 8.21282 19.6622C8.07949 19.7333 7.95504 19.8133 7.82171 19.8755C7.79504 19.8933 7.75949 19.9111 7.73282 19.92C7.71504 19.92 7.70615 19.92 7.69727 19.9022V10.6933C7.69727 10.6933 7.69727 10.6133 7.69727 10.5778C7.71504 10.5778 7.73282 10.5955 7.7506 10.6044C8.14171 10.8266 8.53282 11.0489 8.92393 11.2711C9.35949 11.5111 9.77727 11.7511 10.2128 12.0089C10.6306 12.24 11.0395 12.48 11.4662 12.72C11.5995 12.7911 11.715 12.8533 11.8395 12.9155H11.8573Z" fill="#33A6DE"/>
<path d="M20.124 12.9333C20.1418 12.9333 20.1507 12.9333 20.1507 12.9333C20.3018 12.8445 20.444 12.7733 20.5951 12.6845C20.7285 12.6133 20.8529 12.5333 20.9862 12.4711C21.1907 12.3467 21.404 12.24 21.6085 12.1156C21.7596 12.0356 21.8929 11.9556 22.044 11.8667C22.2129 11.76 22.3996 11.6711 22.5685 11.5645C22.7107 11.4845 22.844 11.4133 22.9862 11.3333C23.1907 11.2178 23.3951 11.1022 23.5996 10.9867C23.7507 10.8978 23.8929 10.8178 24.044 10.7378C24.124 10.6933 24.1951 10.64 24.2751 10.6133C24.2751 10.6578 24.2751 10.6933 24.2751 10.7378V19.9467C24.2218 19.9467 24.1951 19.92 24.1596 19.9022C23.7685 19.6889 23.3862 19.4578 22.9951 19.2445C22.0707 18.7289 21.1551 18.2045 20.2307 17.68C20.1151 17.6178 20.1329 17.6445 20.1329 17.5111V13.0933C20.1329 13.04 20.1329 12.9956 20.1329 12.9422L20.124 12.9333Z" fill="#8DC244"/>
<path d="M24.275 10.5956C24.1861 10.6222 24.1239 10.6844 24.0439 10.72C23.8928 10.8 23.7506 10.88 23.5995 10.9689C23.395 11.0844 23.1906 11.2 22.9861 11.3156C22.8439 11.3956 22.7106 11.4667 22.5684 11.5467C22.3995 11.6533 22.2128 11.7422 22.0439 11.8489C21.8928 11.9289 21.7595 12.0089 21.6084 12.0978C21.4039 12.2222 21.1906 12.3289 20.9861 12.4533C20.8528 12.5244 20.7284 12.6044 20.595 12.6667C20.4439 12.7556 20.3017 12.8267 20.1506 12.9156H20.1328V8.24889C20.2039 8.19555 20.2839 8.15111 20.355 8.10667C21.6261 7.38667 22.8884 6.67555 24.1506 5.95555C24.1861 5.93778 24.2128 5.91111 24.2484 5.90222C24.275 5.90222 24.2661 5.93778 24.2661 5.95555V10.4622C24.2661 10.4622 24.2661 10.5422 24.2661 10.5867L24.275 10.5956Z" fill="#F6E811"/>
<path d="M11.8579 12.9155C11.7335 12.8444 11.6179 12.7822 11.4846 12.72C11.0668 12.4889 10.6579 12.2488 10.2313 12.0088C9.79572 11.7688 9.37794 11.5288 8.94239 11.2711C8.55128 11.0488 8.16017 10.8266 7.76905 10.6044C7.76905 10.6044 7.74239 10.5866 7.72461 10.5866C7.72461 10.5511 7.72461 10.5066 7.72461 10.4711V5.91107C7.77794 5.91107 7.80461 5.93774 7.83128 5.95552C8.5335 6.35552 9.21794 6.73774 9.92017 7.13774C10.5335 7.4844 11.1379 7.83107 11.7513 8.17774C11.7868 8.2044 11.8313 8.22218 11.8668 8.24885V12.8088C11.8668 12.8088 11.8668 12.8888 11.8668 12.9244L11.8579 12.9155Z" fill="#5F338C"/>
<path fill-rule="evenodd" clip-rule="evenodd" d="M8.10683 23.5378H7.76016C7.76016 23.5378 7.72461 23.52 7.72461 23.4933C7.72461 23.4044 7.72461 23.3244 7.72461 23.2444C7.72461 22.9867 7.75128 22.72 7.76016 22.4622C7.76016 22.2667 7.77794 22.0533 7.78683 21.8578V21.8133C7.78683 21.7333 7.84905 21.6889 7.92017 21.6889H8.34683C8.42683 21.6889 8.48017 21.7333 8.49794 21.8133C8.51572 21.8933 8.5335 21.9644 8.56017 22.0355C8.63128 22.2933 8.6935 22.5511 8.75572 22.8178C8.7735 22.88 8.75572 22.9511 8.80016 23.0044C8.82683 23.0044 8.82683 22.9778 8.82683 22.96C8.89794 22.5689 9.00461 22.2044 9.10239 21.8222C9.12905 21.7067 9.18239 21.6711 9.28905 21.6711H9.68905C9.76016 21.6711 9.80461 21.7155 9.8135 21.7867C9.8135 21.8311 9.8135 21.8755 9.8135 21.92L9.84017 22.6667C9.84017 22.9244 9.85794 23.1822 9.87572 23.44V23.4933C9.87572 23.4933 9.87572 23.5289 9.84017 23.5289H9.52017C9.52017 23.5289 9.48461 23.5111 9.48461 23.4844C9.48461 23.3067 9.46683 23.1289 9.45794 22.9511C9.45794 22.6755 9.44017 22.4089 9.42239 22.1333C9.42239 22.0889 9.42239 22.0533 9.42239 22.0089C9.42239 22.0089 9.42239 22.0089 9.40461 22.0089C9.38683 22.0089 9.38683 22.0089 9.38683 22.0089C9.38683 22.0267 9.36905 22.0444 9.36905 22.0622C9.28017 22.4 9.20017 22.7378 9.11128 23.0667C9.11128 23.1022 9.0935 23.1289 9.08461 23.1644C9.06683 23.2355 9.0135 23.28 8.9335 23.2889C8.82683 23.2889 8.73794 23.2889 8.63128 23.2889C8.54239 23.2889 8.49794 23.2444 8.48017 23.1467C8.44461 23.0222 8.41794 22.9155 8.38239 22.7911C8.32017 22.56 8.25794 22.32 8.20461 22.08L8.17794 22C8.17794 22 8.17794 22 8.16017 22C8.14239 22 8.14239 22 8.14239 22C8.14239 22.0178 8.14239 22.0355 8.14239 22.0533C8.12461 22.4978 8.10683 22.9422 8.08905 23.3867C8.1335 23.44 8.1335 23.4844 8.11572 23.5378H8.10683ZM16.1424 23.0133C16.1779 22.96 16.1779 22.9067 16.1868 22.8622C16.2313 22.6489 16.2935 22.4355 16.3379 22.2311C16.3735 22.0978 16.4091 21.9644 16.4446 21.8311C16.4446 21.8133 16.4446 21.7955 16.4624 21.7778C16.4891 21.7067 16.5335 21.6622 16.6135 21.6622H17.0402C17.1202 21.6622 17.1646 21.7067 17.1824 21.7867C17.1824 21.84 17.1824 21.9022 17.2002 21.9467C17.2179 22.4444 17.2446 22.96 17.2624 23.4578V23.4844C17.2624 23.4844 17.2624 23.52 17.2357 23.52H16.9068C16.9068 23.52 16.8802 23.52 16.8802 23.4933V23.4489C16.8624 23.0222 16.8446 22.6133 16.8268 22.1867C16.8268 22.1244 16.8268 22.0622 16.8268 22.0178C16.8268 22.0178 16.8268 22 16.8002 22H16.7824L16.7557 22.1067C16.6668 22.4355 16.5868 22.7644 16.5068 23.0933C16.5068 23.1111 16.5068 23.1289 16.4891 23.1467C16.4624 23.2267 16.4179 23.2711 16.3379 23.2711H16.0535C15.9646 23.2711 15.9113 23.2267 15.9024 23.1289C15.8668 22.9778 15.8224 22.8355 15.7868 22.6844L15.6357 22.0622C15.6357 22.0622 15.6179 22.0089 15.6091 21.9911C15.6091 21.9911 15.6091 21.9911 15.5913 21.9911C15.5735 21.9911 15.5735 21.9911 15.5735 21.9911V22.0267C15.5735 22.1689 15.5735 22.3022 15.5557 22.4533C15.5557 22.7555 15.5379 23.0667 15.5202 23.3689C15.5202 23.5378 15.5379 23.5111 15.3691 23.52H15.1646C15.1646 23.52 15.1291 23.52 15.1291 23.4844C15.1291 23.3955 15.1291 23.3155 15.1291 23.2355C15.1291 22.9867 15.1557 22.7467 15.1646 22.4978C15.1646 22.2844 15.1824 22.0622 15.1913 21.84V21.7955C15.1913 21.7155 15.2446 21.6622 15.3335 21.6533H15.7602C15.8313 21.6533 15.8846 21.6978 15.9024 21.76C15.9024 21.76 15.9024 21.7778 15.9024 21.7955L16.1602 22.8089C16.1246 22.88 16.1246 22.9422 16.1602 23.0044L16.1424 23.0133ZM19.9735 23.36C19.9735 23.36 19.8935 23.4311 19.8491 23.4667C19.6891 23.5822 19.5113 23.6089 19.3246 23.5644C19.2179 23.5378 19.1468 23.4667 19.0935 23.3778C19.0402 23.28 19.0135 23.1822 19.0046 23.0667C18.9868 22.9067 18.9868 22.7378 19.0224 22.5778L19.0491 22.4711C19.1024 22.32 19.2002 22.2311 19.3691 22.2044C19.5379 22.1689 19.7068 22.2044 19.8579 22.2667L19.9113 22.2933C19.9113 22.2933 19.9113 22.24 19.9113 22.2044V21.7244C19.9113 21.7244 19.9113 21.68 19.9468 21.68H20.2757C20.2757 21.68 20.3113 21.68 20.3113 21.7155V23.52C20.3113 23.52 20.3113 23.5644 20.2668 23.5733H20.0268C20.0268 23.5733 19.9824 23.5555 19.9824 23.5289C19.9824 23.4667 19.9824 23.4222 19.9557 23.3778L19.9735 23.36ZM19.9291 22.5333C19.8046 22.48 19.6979 22.4622 19.5913 22.4711C19.5113 22.4711 19.4668 22.5155 19.4402 22.5867L19.4135 22.6933C19.4135 22.8 19.4135 22.9067 19.4135 23.0133C19.4135 23.0578 19.4135 23.0933 19.4402 23.1378C19.4579 23.1911 19.5024 23.2267 19.5646 23.2444C19.6891 23.2711 19.7868 23.2444 19.8846 23.1644C19.9113 23.1467 19.9291 23.12 19.9202 23.0933V22.7911C19.9202 22.7111 19.9202 22.6311 19.9202 22.5422L19.9291 22.5333ZM22.7379 23.5467H22.3202C22.3202 23.5467 22.2757 23.5289 22.2579 23.5022C22.2224 23.44 22.1779 23.3689 22.1424 23.3155C22.0713 23.2 22.0002 23.0844 21.9291 22.9689C21.9024 22.9333 21.8402 22.9155 21.8046 22.9333C21.7868 22.9333 21.7868 22.96 21.7868 22.9778C21.7868 23.1111 21.7868 23.2444 21.7868 23.3778C21.7868 23.4311 21.7868 23.4933 21.7868 23.5378C21.7246 23.5644 21.6713 23.5378 21.6179 23.5378H21.4313C21.4313 23.5378 21.3868 23.52 21.3957 23.4933V21.68C21.3957 21.68 21.4135 21.6444 21.4402 21.6444H21.7957C21.8135 21.7333 21.7957 21.8133 21.7957 21.9022V22.3911C21.7957 22.48 21.7957 22.56 21.7957 22.64H21.8135C21.8846 22.6578 21.9291 22.6222 21.9646 22.56C22.0357 22.4444 22.1157 22.3378 22.1957 22.2222C22.2224 22.1867 22.2491 22.16 22.2935 22.1689C22.4179 22.1689 22.5424 22.1689 22.6757 22.1689C22.6313 22.2755 22.3202 22.6667 22.2313 22.7555C22.4002 23.0044 22.5602 23.2444 22.7291 23.5111L22.7379 23.5467ZM23.7157 22.72C23.7157 22.5511 23.6891 22.4978 23.5202 22.4889H23.3957C23.2535 22.4889 23.1202 22.4889 22.9868 22.5067C22.9513 22.5067 22.9335 22.5067 22.9335 22.4711C22.9335 22.4089 22.9157 22.3467 22.9068 22.2844C22.9068 22.2489 22.9068 22.24 22.9513 22.2311C23.0491 22.2133 23.1468 22.2044 23.2446 22.1867C23.3335 22.1867 23.4135 22.1689 23.5113 22.1689C23.6091 22.1689 23.6979 22.1689 23.7957 22.1867C23.9824 22.2222 24.0979 22.3378 24.1246 22.5422C24.1246 22.5867 24.1246 22.6311 24.1246 22.6755V23.4844C24.1246 23.4844 24.1246 23.52 24.1068 23.5467C24.0179 23.5467 23.9202 23.5467 23.8224 23.5467C23.7957 23.5467 23.7868 23.5289 23.7868 23.5111C23.7691 23.4578 23.7868 23.4044 23.7424 23.36C23.7068 23.3867 23.6713 23.4222 23.6357 23.4489C23.4846 23.5644 23.3068 23.6089 23.1202 23.5733C22.9424 23.5289 22.8179 23.4044 22.8268 23.2089V23.0489C22.8268 22.9155 22.8979 22.8267 23.0135 22.7733C23.0757 22.7467 23.1468 22.7289 23.2002 22.7289H23.6091C23.6091 22.7289 23.6713 22.7289 23.6979 22.7289L23.7157 22.72ZM23.7157 22.96C23.7157 22.96 23.6979 22.96 23.6802 22.96H23.3246C23.2713 22.96 23.2446 22.9955 23.2357 23.0489C23.2357 23.0844 23.2357 23.1289 23.2357 23.1644C23.2357 23.2444 23.2891 23.28 23.3691 23.2889C23.4757 23.2889 23.5557 23.2622 23.6446 23.2178C23.7246 23.1733 23.7335 23.1733 23.7246 23.0755C23.7246 23.0489 23.7246 23.0133 23.7246 22.9689L23.7157 22.96ZM18.3379 23.2533C18.4268 23.2533 18.5068 23.2533 18.6046 23.2355C18.6313 23.2355 18.6668 23.2355 18.6935 23.2355C18.7291 23.2355 18.7379 23.2355 18.7468 23.28C18.7468 23.3067 18.7468 23.3422 18.7468 23.3689C18.7735 23.52 18.7735 23.5022 18.6402 23.5289C18.3913 23.6 18.1335 23.6178 17.8757 23.5467C17.6802 23.4933 17.5557 23.3778 17.5024 23.1733C17.4491 22.9778 17.4491 22.7644 17.5024 22.5689C17.5646 22.3378 17.6979 22.2311 17.9379 22.1867C18.0891 22.16 18.2402 22.16 18.3824 22.1867C18.4091 22.1867 18.4357 22.1867 18.4624 22.2044C18.7913 22.2755 18.8357 22.5955 18.7646 22.8C18.7291 22.9155 18.6402 22.96 18.5335 22.9778C18.4624 22.9778 18.3824 22.9955 18.3202 22.9955H17.9557C17.9557 22.9955 17.9113 22.9955 17.9113 23.04C17.9379 23.1822 18.0091 23.2267 18.1335 23.2355C18.2046 23.2622 18.2668 23.2533 18.3291 23.2533H18.3379ZM17.9024 22.7644C17.9024 22.7644 17.9291 22.7644 17.9379 22.7644H18.2935C18.3735 22.7644 18.4002 22.7111 18.4091 22.6489V22.5955C18.4091 22.5155 18.3646 22.48 18.2935 22.4622C18.2135 22.4444 18.1424 22.4444 18.0624 22.4622C17.9824 22.48 17.9379 22.5244 17.9202 22.5955C17.9202 22.6489 17.8935 22.7022 17.9024 22.7467V22.7644ZM16.5424 25.5822V26.0089C16.5424 26.0089 16.5424 26.0533 16.4979 26.0622H16.3735C16.3202 26.0622 16.2668 26.0622 16.2224 26.0622C16.2224 26.0178 16.1957 25.9644 16.1868 25.92C16.1868 25.8933 16.1691 25.8844 16.1513 25.9022C16.1335 25.92 16.1157 25.9289 16.0979 25.9467C16.0002 26.0355 15.8935 26.0889 15.7602 26.0978C15.6446 26.1155 15.5468 26.0978 15.4491 26.0444C15.3424 25.9911 15.2802 25.9022 15.2802 25.7867C15.2802 25.7067 15.2802 25.6355 15.2802 25.5555C15.2802 25.44 15.3513 25.3689 15.4491 25.3155C15.5113 25.2889 15.5735 25.2711 15.6357 25.2711H16.1068C16.1068 25.2711 16.1246 25.2711 16.1246 25.2533C16.1246 25.2 16.1246 25.1555 16.0979 25.1111C16.0802 25.0755 16.0446 25.0578 16.0091 25.0489C15.9557 25.0489 15.9024 25.0489 15.8579 25.0489C15.7068 25.0489 15.5557 25.0489 15.4046 25.0667C15.3779 25.0667 15.3602 25.0667 15.3602 25.0311C15.3602 25.0044 15.3602 24.9689 15.3424 24.9422C15.3246 24.7911 15.2979 24.7911 15.4579 24.7822C15.6624 24.7555 15.8757 24.7378 16.0802 24.7378C16.1424 24.7378 16.2046 24.7378 16.2491 24.7644C16.4002 24.8089 16.4802 24.9067 16.5068 25.0489C16.5068 25.1111 16.5246 25.1733 16.5246 25.2355C16.5246 25.3422 16.5246 25.4667 16.5246 25.5911L16.5424 25.5822ZM15.9557 25.4667H15.8224C15.6802 25.4667 15.6624 25.5378 15.6713 25.6355C15.6713 25.6622 15.6713 25.68 15.6713 25.7067C15.6713 25.7511 15.7068 25.7778 15.7602 25.7867C15.7868 25.7867 15.8224 25.7867 15.8491 25.7867C15.9202 25.7867 15.9824 25.76 16.0357 25.7333C16.1691 25.6622 16.1424 25.68 16.1424 25.5733V25.5022C16.1424 25.5022 16.1424 25.4755 16.1157 25.4755C16.0535 25.4578 16.0002 25.4578 15.9557 25.4578V25.4667ZM22.8802 25.2444C22.8979 25.0667 22.8535 25.0222 22.7024 25.0222C22.5335 25.0222 22.3646 25.0222 22.1957 25.04C22.1424 25.04 22.1335 25.04 22.1246 24.9778C22.1246 24.9244 22.1068 24.8622 22.0979 24.8178C22.0979 24.7911 22.0979 24.7733 22.1335 24.7733L22.2846 24.7467C22.4802 24.7289 22.6757 24.7111 22.8713 24.72C22.9335 24.72 22.9957 24.7378 23.0402 24.7555C23.1913 24.8089 23.2624 24.9244 23.2802 25.0844C23.2802 25.12 23.2802 25.1555 23.2802 25.1911V26.0355L23.2624 26.0533H22.9957C22.9957 26.0533 22.9691 26.0533 22.9602 26.0267C22.9602 26.0089 22.9602 25.9822 22.9424 25.9644C22.9424 25.9378 22.9424 25.9022 22.9157 25.8755C22.8802 25.8755 22.8713 25.9111 22.8446 25.9289C22.7468 26.0089 22.6491 26.0622 22.5157 26.08C22.4091 26.0978 22.3202 26.08 22.2224 26.0444C22.0802 25.9822 22.0179 25.8844 22.0091 25.7333V25.5822C22.0091 25.36 22.1602 25.2533 22.3379 25.2355C22.4535 25.2355 22.5602 25.2355 22.6668 25.2355H22.8624L22.8802 25.2444ZM22.8802 25.4667H22.4979C22.4357 25.4667 22.4091 25.5111 22.4002 25.5733V25.6889C22.4002 25.7422 22.4357 25.7689 22.4891 25.7867C22.5246 25.7867 22.5602 25.7867 22.5868 25.7867C22.6846 25.7867 22.7557 25.7422 22.8446 25.6889C22.8624 25.6889 22.8802 25.6622 22.8802 25.6355V25.4667ZM20.2402 25.3867C20.2402 25.4844 20.2402 25.5733 20.2135 25.6622C20.1691 25.8578 20.0624 25.9911 19.8579 26.0444C19.6713 26.0889 19.4846 26.0889 19.2979 26.0444C19.0846 26 18.9513 25.8755 18.9157 25.6533C18.8802 25.4667 18.8802 25.2622 18.9157 25.0755C18.9602 24.9067 19.0668 24.7911 19.2357 24.7378C19.3068 24.72 19.3779 24.7022 19.4402 24.7022C19.5646 24.7022 19.6891 24.7022 19.8135 24.72C20.0268 24.7644 20.1602 24.8889 20.2046 25.1111C20.2313 25.2 20.2402 25.2889 20.2313 25.3778L20.2402 25.3867ZM19.8313 25.3867C19.8313 25.3244 19.8313 25.2711 19.8313 25.2178C19.8313 25.1822 19.8313 25.1467 19.8135 25.12C19.7957 25.0578 19.7513 25.0133 19.6891 24.9955C19.6179 24.9778 19.5468 24.9778 19.4846 24.9955C19.4224 25.0133 19.3779 25.0489 19.3602 25.1111C19.3068 25.2889 19.3068 25.4755 19.3602 25.6533C19.3779 25.7155 19.4224 25.7511 19.4935 25.7689C19.5646 25.7867 19.6357 25.7867 19.6979 25.7689C19.7513 25.7511 19.7868 25.7244 19.8046 25.68C19.8224 25.6444 19.8313 25.6 19.8402 25.5555C19.8402 25.4933 19.8402 25.4311 19.8402 25.3867H19.8313ZM11.5379 25.5022C11.5379 25.6533 11.6002 25.7333 11.7335 25.7422C11.7868 25.7422 11.8313 25.7422 11.8846 25.7422C12.0179 25.7422 12.1513 25.7422 12.2846 25.7155C12.3202 25.7155 12.3379 25.7155 12.3379 25.7511C12.3379 25.7867 12.3379 25.8222 12.3557 25.8489C12.3824 25.9733 12.3824 25.9644 12.2579 26C12.0179 26.0622 11.7691 26.0889 11.5202 26.0267C11.3246 25.9733 11.1913 25.8578 11.1379 25.6533C11.0935 25.4578 11.0935 25.2533 11.1379 25.0667C11.1913 24.8711 11.3157 24.7555 11.5113 24.72C11.6891 24.6844 11.8757 24.6844 12.0624 24.72C12.1157 24.72 12.1691 24.7555 12.2135 24.7822C12.3113 24.8355 12.3646 24.9244 12.3735 25.0133C12.3913 25.0933 12.3913 25.1733 12.3735 25.2533C12.3468 25.36 12.2846 25.4311 12.1868 25.4667C12.1335 25.4844 12.0802 25.4933 12.0268 25.4933H11.5379V25.5022ZM11.5202 25.28C11.5202 25.28 11.5468 25.28 11.5646 25.28H11.8668C11.9824 25.28 12.0179 25.2355 12.0179 25.1289C12.0179 25.0489 11.9735 25.0133 11.9024 24.9955C11.8313 24.9778 11.7513 24.9955 11.6891 24.9955C11.6179 24.9955 11.5735 25.0489 11.5557 25.12C11.5291 25.1644 11.5113 25.2178 11.5202 25.2711V25.28ZM11.1024 23.36L10.9513 23.4667C10.8179 23.5467 10.6846 23.5911 10.5246 23.5822H10.4802C10.2668 23.5467 10.2046 23.4311 10.1779 23.2711V22.24C10.1779 22.24 10.1779 22.2133 10.2046 22.2133H10.5513C10.5513 22.2133 10.5868 22.2133 10.5868 22.2489V23.12C10.5868 23.2 10.6313 23.2355 10.7113 23.2355C10.8002 23.2355 10.8713 23.2178 10.9602 23.1822C11.0313 23.1526 11.0668 23.0992 11.0668 23.0222V22.2578C11.0668 22.2578 11.0668 22.2222 11.1024 22.2222H11.4491C11.4491 22.2222 11.4757 22.2222 11.4757 22.2489V23.52C11.4757 23.52 11.4757 23.5467 11.4491 23.5467H11.1824C11.1824 23.5467 11.1468 23.5289 11.1468 23.5111C11.1468 23.4667 11.1468 23.4133 11.1113 23.3689L11.1024 23.36ZM9.76905 26.0355H9.40461C9.40461 26.0355 9.36905 26.0178 9.36905 26V25.2444C9.36905 25.2444 9.36905 25.1644 9.36905 25.1289C9.36905 25.0667 9.32461 25.04 9.27128 25.04C9.23572 25.04 9.19128 25.04 9.15572 25.04C9.06683 25.0578 8.99572 25.0933 8.92461 25.1289C8.89794 25.1289 8.88905 25.1555 8.88905 25.1822V26.0267C8.80905 26.0444 8.62239 26.0444 8.49794 26.0267C8.48017 26.0089 8.49794 25.9822 8.49794 25.9644V24.7644C8.49794 24.7644 8.49794 24.7378 8.52461 24.7378H8.7735C8.7735 24.7378 8.80905 24.7555 8.80905 24.7733C8.80905 24.8 8.80905 24.8355 8.82683 24.8622C8.82683 24.9155 8.84461 24.9333 8.90683 24.8889C8.95128 24.8533 9.00461 24.8267 9.04905 24.8C9.18239 24.7289 9.31572 24.6933 9.46683 24.7111C9.63572 24.7111 9.74239 24.8267 9.76905 24.9955C9.76905 25.0311 9.76905 25.0667 9.76905 25.0933V25.9911C9.76905 25.9911 9.76905 25.9911 9.76905 26.0178V26.0355ZM20.8446 24.9067C20.8446 24.9067 20.9157 24.8711 20.9424 24.8533C21.0402 24.7822 21.1468 24.7289 21.2624 24.7111C21.3691 24.6933 21.4668 24.6844 21.5646 24.7111C21.6802 24.7467 21.7335 24.8267 21.7513 24.9333C21.7513 24.9778 21.7513 25.0222 21.7513 25.0667V25.9911C21.7513 25.9911 21.7513 26.0178 21.7246 26.0178H21.3957C21.3957 26.0178 21.3602 26.0178 21.3602 25.9822V25.2267C21.3602 25.2267 21.3602 25.1467 21.3602 25.1111C21.3602 25.0489 21.3246 25.0222 21.2624 25.0133C21.2179 25.0133 21.1735 25.0133 21.1291 25.0133C21.0668 25.0311 21.0046 25.0578 20.9424 25.0844C20.8979 25.1022 20.8713 25.1289 20.8713 25.1822V25.9644C20.8713 25.9644 20.8713 26 20.8357 26H20.8002C20.6935 26 20.5868 26 20.4802 26C20.4535 25.8933 20.4802 25.7955 20.4802 25.68V24.7289C20.4802 24.7289 20.4802 24.6933 20.5068 24.6933H20.7735C20.7735 24.6933 20.8002 24.7111 20.8002 24.72C20.8268 24.8 20.8357 24.8444 20.8446 24.8889V24.9067ZM14.1068 24.9067C14.1068 24.9067 14.1779 24.8711 14.2046 24.8533C14.2846 24.8 14.3557 24.7644 14.4357 24.7289C14.5424 24.6844 14.6491 24.6844 14.7646 24.7022C14.8979 24.72 14.9868 24.8 15.0224 24.9244C15.0224 24.9689 15.0402 25.0222 15.0402 25.0667V26C15.0402 26 15.0402 26.0267 15.0135 26.0267H14.6668C14.6668 26.0267 14.6402 26.0267 14.6402 26V25.12C14.6402 25.0578 14.5957 25.0222 14.5335 25.0222C14.4979 25.0222 14.4535 25.0222 14.4179 25.0222C14.3291 25.04 14.2579 25.0755 14.1868 25.1111C14.1691 25.1111 14.1513 25.1378 14.1513 25.1644V25.9822C14.1513 25.9822 14.1513 26.0178 14.1157 26.0178H13.7957C13.7957 26.0178 13.7513 26.0178 13.7513 25.9644V24.7467C13.7513 24.7467 13.7513 24.7111 13.7868 24.7111H14.0535C14.0535 24.7111 14.0802 24.7289 14.0802 24.7378C14.0802 24.8 14.0802 24.8444 14.0979 24.8889L14.1068 24.9067ZM17.9291 24.7555C17.9291 24.8355 17.9113 24.9067 17.9113 24.9778C17.8846 24.9955 17.8579 24.9778 17.8313 24.9778H17.3157C17.3157 24.9778 17.2446 24.9778 17.2002 24.9955C17.1646 24.9955 17.1557 25.0311 17.1468 25.0667C17.1468 25.1022 17.1468 25.1378 17.1824 25.1555C17.2091 25.1733 17.2446 25.1822 17.2802 25.1911C17.4046 25.2267 17.5113 25.2533 17.6357 25.28C17.7068 25.2978 17.7779 25.3244 17.8313 25.36C17.9113 25.4044 17.9646 25.4755 17.9735 25.5555C17.9913 25.6533 17.9913 25.7333 17.9735 25.8311C17.9468 25.92 17.8935 25.9822 17.8224 26C17.7691 26.0178 17.7157 26.0355 17.6713 26.0444C17.5379 26.0622 17.4046 26.0711 17.2713 26.0622C17.1379 26.0622 17.0046 26.0622 16.8713 26.0267C16.8091 26.0267 16.8091 26.0089 16.8091 25.9555C16.8091 25.9022 16.8091 25.8578 16.8268 25.8044C16.8268 25.76 16.8446 25.7511 16.8891 25.7511H17.4846C17.4846 25.7511 17.5291 25.7511 17.5557 25.7511C17.5913 25.7511 17.6179 25.7067 17.6268 25.6711C17.6268 25.6355 17.6091 25.5911 17.5735 25.5822C17.5202 25.5644 17.4757 25.5467 17.4224 25.5378C17.3246 25.5111 17.2357 25.4933 17.1291 25.4667C17.0668 25.4489 17.0135 25.4311 16.9691 25.4044C16.8802 25.3511 16.8179 25.28 16.8091 25.1822C16.7913 25.1022 16.7913 25.0222 16.8091 24.9422C16.8268 24.8533 16.8802 24.7911 16.9602 24.7644C17.0402 24.72 17.1202 24.7022 17.2002 24.7022C17.3691 24.7022 17.5557 24.7022 17.7246 24.72C17.7957 24.72 17.8757 24.72 17.9468 24.7467L17.9291 24.7555ZM13.5291 22.2133C13.5291 22.2933 13.5291 22.3733 13.5291 22.4622H13.2357C13.1883 22.4622 13.1646 22.4889 13.1646 22.5422V23.0844C13.1646 23.2089 13.2002 23.2355 13.3157 23.2355H13.4668C13.5024 23.3155 13.5024 23.3955 13.5202 23.4844C13.5202 23.5022 13.5202 23.5111 13.4935 23.52C13.4668 23.52 13.4313 23.5378 13.4046 23.5378C13.2713 23.5555 13.1557 23.5822 13.0224 23.5555C12.8802 23.52 12.8002 23.44 12.7646 23.3067C12.7646 23.2622 12.7468 23.2089 12.7468 23.1555V22.5155C12.7468 22.48 12.7291 22.4622 12.6935 22.4622H12.6668C12.6135 22.4622 12.5602 22.48 12.5157 22.4622C12.4979 22.4178 12.5157 22.3644 12.5157 22.3111V22.24C12.5157 22.24 12.5157 22.2044 12.5513 22.2044C12.6046 22.2044 12.6579 22.2044 12.7024 22.2044C12.7291 22.2044 12.7468 22.2044 12.7468 22.1689V21.8844C12.7468 21.8844 12.7468 21.84 12.7913 21.84H13.1113C13.1113 21.84 13.1557 21.84 13.1557 21.8933V22.1333C13.1557 22.2222 13.1557 22.2133 13.2446 22.2133H13.4491C13.4491 22.2133 13.5024 22.1955 13.5291 22.2133ZM9.96461 24.7467C10.0446 24.7289 10.1157 24.7467 10.1779 24.72C10.1957 24.6489 10.1779 24.5689 10.1779 24.5067C10.1779 24.3555 10.1602 24.3644 10.3202 24.3644H10.5513C10.5513 24.3644 10.5691 24.3644 10.5779 24.3644C10.5957 24.48 10.5779 24.5867 10.5779 24.7022C10.6046 24.72 10.6313 24.72 10.6579 24.72H10.8891C10.8891 24.72 10.9513 24.72 10.9424 24.7733C10.9424 24.8444 10.9602 24.9155 10.9424 24.9778C10.8802 24.9955 10.8179 24.9778 10.7557 24.9778H10.6046C10.6046 24.9778 10.5868 25.0222 10.5868 25.0489V25.5644C10.5868 25.7067 10.6135 25.7244 10.7557 25.7244H10.8713C10.8713 25.7244 10.8891 25.7244 10.8979 25.7244C10.9246 25.8044 10.9246 25.8755 10.9424 25.9555C10.9424 25.9733 10.9424 25.9911 10.9246 25.9911C10.7735 26.0267 10.6135 26.0622 10.4624 26.0267C10.3202 25.9911 10.2491 25.9111 10.2224 25.7778C10.2224 25.7333 10.2046 25.68 10.2046 25.6267V24.9955C10.2046 24.9955 10.1868 24.96 10.1602 24.96H10.0091C10.0091 24.96 9.98239 24.96 9.98239 24.9333C9.96461 24.8533 9.95572 24.7822 9.96461 24.7111V24.7467ZM23.5824 24.1955H23.9379C23.9379 24.1955 23.9735 24.1955 23.9735 24.2311V25.6355C23.9735 25.7067 24.0179 25.7422 24.0891 25.7511H24.1957C24.1957 25.7511 24.2402 25.7511 24.2491 25.7867C24.2491 25.8578 24.2757 25.9289 24.2846 25.9911C24.2846 26.0089 24.2846 26.0267 24.2579 26.0355C24.1157 26.0711 23.9824 26.0978 23.8402 26.0622C23.6891 26.0267 23.6002 25.9111 23.5913 25.76V24.2933C23.5913 24.2933 23.5735 24.2311 23.5913 24.1955H23.5824ZM11.8046 21.6533C11.8579 21.6533 11.9202 21.6533 11.9735 21.6533C12.0446 21.6533 12.1246 21.6355 12.1868 21.6533C12.1868 21.7244 12.1868 21.7955 12.1868 21.8578V23.0933C12.1868 23.1644 12.2224 23.2089 12.2935 23.2178C12.3379 23.2178 12.3735 23.2178 12.4179 23.2178C12.4535 23.2178 12.4624 23.2355 12.4713 23.2622L12.4979 23.4133C12.5157 23.4933 12.5157 23.5022 12.4268 23.52C12.3024 23.5467 12.1868 23.5733 12.0535 23.5378C11.8846 23.4933 11.7957 23.3689 11.7957 23.2355V21.7155C11.7957 21.7155 11.7779 21.6622 11.7957 21.6355L11.8046 21.6533ZM8.16017 26.0267C8.0535 26.0444 7.84017 26.0267 7.75128 26.0267C7.75128 26 7.75128 25.9644 7.75128 25.9378V24.2933C7.75128 24.2459 7.77794 24.2192 7.83128 24.2133H8.1335C8.1335 24.2133 8.16905 24.2133 8.16905 24.2489V26.0267H8.16017ZM12.9779 24.9155C13.0402 24.8711 13.1024 24.8355 13.1557 24.8C13.2179 24.7644 13.2802 24.7378 13.3424 24.72C13.4135 24.7022 13.4846 24.7022 13.5379 24.7022C13.5646 24.72 13.5557 24.7467 13.5557 24.7733C13.5557 24.8622 13.5379 24.9422 13.5291 25.0222C13.5291 25.0578 13.5291 25.0667 13.4757 25.0667H13.3957C13.2713 25.0667 13.1557 25.1111 13.0402 25.1467C13.0135 25.1467 13.0046 25.1733 13.0046 25.2V26C13.0046 26 13.0046 26.0355 12.9691 26.0355H12.6402C12.6402 26.0355 12.6046 26.0178 12.6046 26V24.8355C12.6046 24.7289 12.6046 24.7378 12.7024 24.7378H12.8713C12.8713 24.7378 12.9157 24.7378 12.9157 24.7733C12.9424 24.8089 12.9513 24.8622 12.9602 24.9155H12.9779ZM18.6135 24.7378C18.6313 24.8444 18.6313 25.6978 18.6135 26.0267C18.5957 26.0533 18.5691 26.0444 18.5513 26.0444H18.2668C18.2668 26.0444 18.2224 26.0444 18.2224 26.0089V24.7644C18.2224 24.7644 18.2402 24.7378 18.2491 24.7378C18.3735 24.7378 18.4891 24.7378 18.6046 24.7378H18.6135ZM21.0668 22.8711V23.4755C21.0668 23.517 21.0491 23.5378 21.0135 23.5378H20.7024C20.7024 23.5378 20.6579 23.5378 20.6579 23.4933V22.2578C20.6579 22.2163 20.6787 22.1955 20.7202 22.1955H20.9068C20.9068 22.1955 21.0046 22.1955 21.0491 22.1955C21.0757 22.2489 21.0491 22.3022 21.0491 22.3467C21.0491 22.5155 21.0491 22.6933 21.0491 22.8622L21.0668 22.8711ZM14.1513 22.8711V23.4755C14.1513 23.517 14.1335 23.5378 14.0979 23.5378H13.7868C13.7868 23.5378 13.7424 23.5378 13.7424 23.4933V22.24C13.7424 22.24 13.7424 22.1955 13.7779 22.1955H14.1068C14.1068 22.1955 14.1424 22.1955 14.1424 22.2311V22.3111C14.1424 22.4978 14.1424 22.6844 14.1424 22.8711H14.1513ZM20.8535 22.0089H20.7468C20.6846 22.0089 20.6491 21.9733 20.6491 21.9111V21.7155C20.6491 21.7155 20.6757 21.6355 20.7291 21.6267C20.8179 21.6089 20.8979 21.6089 20.9868 21.6267C21.0224 21.6267 21.0491 21.6533 21.0579 21.6978C21.0757 21.7778 21.0757 21.8578 21.0579 21.9378C21.0579 21.9911 21.0135 22.0089 20.9602 22.0178C20.9157 22.0178 20.8802 22.0178 20.8446 22.0178L20.8535 22.0089ZM13.9468 22.0089H13.8313C13.7691 22.0089 13.7335 21.9733 13.7335 21.9022V21.7155C13.7335 21.6622 13.7602 21.6267 13.8135 21.6178C13.9024 21.6 13.9735 21.6 14.0624 21.6178C14.1068 21.6178 14.1335 21.6533 14.1424 21.6978C14.1424 21.7689 14.1602 21.8489 14.1424 21.9111C14.1424 21.9644 14.0979 21.9911 14.0357 22C14.0091 22 13.9735 22 13.9379 22L13.9468 22.0089ZM18.4357 24.16C18.4357 24.16 18.5068 24.16 18.5513 24.16C18.5957 24.16 18.6313 24.1955 18.6402 24.24C18.6579 24.3111 18.6579 24.3911 18.6402 24.4533C18.6402 24.5067 18.5957 24.5333 18.5513 24.5422C18.4802 24.5422 18.4002 24.5422 18.3379 24.5422C18.2846 24.5422 18.2491 24.4978 18.2402 24.4444C18.2402 24.3733 18.2402 24.3111 18.2402 24.2489C18.2402 24.1955 18.2757 24.1689 18.3379 24.16C18.3646 24.16 18.4002 24.16 18.4446 24.16H18.4357Z" fill="#121111"/>
</g>
</g>
<defs>
<clipPath id="clip0_2810_58019">
<rect width="32" height="32" fill="white"/>
</clipPath>
</defs>
</svg>
