<svg width="32" height="32" viewBox="0 0 32 32" fill="none" xmlns="http://www.w3.org/2000/svg">
<g clip-path="url(#clip0_2707_300313)">
<path d="M16 0C19.1645 0 22.2579 0.938384 24.8891 2.69649C27.5203 4.45459 29.5711 6.95345 30.7821 9.87706C31.9931 12.8007 32.3099 16.0177 31.6926 19.1214C31.0752 22.2251 29.5513 25.0761 27.3137 27.3137C25.0761 29.5513 22.2251 31.0752 19.1214 31.6926C16.0177 32.3099 12.8007 31.9931 9.87706 30.7821C6.95345 29.5711 4.45459 27.5203 2.69649 24.8891C0.938384 22.2579 0 19.1645 0 16C0 11.7565 1.68571 7.68687 4.68629 4.68629C7.68687 1.68571 11.7565 0 16 0" fill="white"/>
<path fill-rule="evenodd" clip-rule="evenodd" d="M15.9998 2.66666C18.6369 2.66666 21.2148 3.44864 23.4074 4.91373C25.6001 6.37881 27.3091 8.4612 28.3182 10.8975C29.3274 13.3339 29.5914 16.0148 29.077 18.6012C28.5625 21.1876 27.2926 23.5634 25.4279 25.4281C23.5632 27.2928 21.1875 28.5627 18.601 29.0771C16.0146 29.5916 13.3337 29.3276 10.8974 28.3184C8.46104 27.3092 6.37866 25.6002 4.91358 23.4076C3.44849 21.2149 2.6665 18.6371 2.6665 16C2.6665 12.4638 4.07126 9.07238 6.57175 6.5719C9.07223 4.07141 12.4636 2.66666 15.9998 2.66666Z" fill="white"/>
<path d="M6.72021 18.3289L8.05355 17.6V15.6444L6.72021 14.7556V18.3289Z" fill="#19114A"/>
<path d="M12.1777 18.3289L10.8354 17.6V15.6444L12.1777 14.7556V18.3289Z" fill="#003882"/>
<path d="M5.39551 12.96V17.5822L6.71995 18.3289V15.2444L9.44884 16.7911V15.3067L5.39551 12.96Z" fill="#003882"/>
<path d="M13.5021 12.96V17.5822L12.1776 18.3289V15.2444L9.44873 16.7911V15.3067L13.5021 12.96Z" fill="#19114A"/>
<path d="M5.39551 12.96L9.44884 15.3067L13.5022 12.96L12.4444 12.32L9.46662 14.0978L6.53329 12.32L5.39551 12.96Z" fill="#5F9CCE"/>
<path d="M12.2132 12.1778L9.44877 13.7511L6.71099 12.1867L6.48877 12.3289L9.44877 14.1067L12.4265 12.3289L12.2132 12.1778Z" fill="#EA001F"/>
<path d="M10.8358 17.6L9.4491 18.3645L8.05355 17.6L6.72021 18.3289L9.4491 19.8578L12.178 18.3289L10.8358 17.6Z" fill="#C1C7CA"/>
<path d="M21.5201 14.4889L20.7824 15.7511L20.0446 14.4889H18.9868V16.7644H19.7779V15.4489L20.5335 16.8H21.0313L21.7868 15.4489V16.8H22.5779V14.4889H21.5201Z" fill="#191147"/>
<path d="M17.422 14.4889L16.6842 15.7511L15.9465 14.4889H14.8887V16.7644H15.6798V15.4489L16.4353 16.8H16.9331L17.6887 15.4489V16.8H18.4709V14.4889H17.422Z" fill="#191147"/>
<path d="M25.7776 15.5644H23.9998V15.1644H25.7776V15.5644ZM25.902 14.4889H23.1909V16.8H23.9998V16.2222H26.0087C26.0087 16.2222 26.6487 16.2222 26.6487 15.3333C26.6487 14.4444 25.9643 14.4978 25.9643 14.4978" fill="#191147"/>
</g>
<defs>
<clipPath id="clip0_2707_300313">
<rect width="32" height="32" fill="white"/>
</clipPath>
</defs>
</svg>
