<svg width="32" height="32" viewBox="0 0 32 32" fill="none" xmlns="http://www.w3.org/2000/svg">
<g clip-path="url(#clip0_2707_300193)">
<path d="M15.9998 31.9822C24.8265 31.9822 31.982 24.8267 31.982 16C31.982 7.17326 24.8265 0.0177765 15.9998 0.0177765C7.17306 0.0177765 0.0175781 7.17326 0.0175781 16C0.0175781 24.8267 7.17306 31.9822 15.9998 31.9822Z" fill="white"/>
<path d="M4.00879 17.9822H2.79102V13.9467H2.91546C3.25324 13.9467 3.58213 13.9467 3.9199 13.9467C4.23674 13.9239 4.55155 14.0128 4.8097 14.1979C5.06786 14.383 5.25308 14.6526 5.33324 14.96L5.5999 15.7244L5.86657 16.5156C5.86657 16.4444 5.9199 16.3911 5.93768 16.3378C6.14213 15.7867 6.36435 15.2444 6.5599 14.6844C6.62335 14.4934 6.74132 14.3251 6.89928 14.2003C7.05723 14.0755 7.24826 13.9997 7.44879 13.9822C7.8399 13.9378 8.2399 13.9822 8.6399 13.9822H8.97768V18.0089H7.78657V15.1111C7.71454 15.1895 7.65189 15.276 7.5999 15.3689C7.45768 15.7067 7.33324 16.0444 7.19102 16.3911C7.04879 16.7378 6.92435 17.1022 6.75546 17.4489C6.65529 17.6211 6.52243 17.7721 6.36435 17.8933C6.23131 18.001 6.0643 18.0577 5.89324 18.0533C5.69176 18.0533 5.48731 18.0533 5.2799 18.0533C5.24956 18.0562 5.21923 18.0478 5.19465 18.0298C5.17008 18.0118 5.15297 17.9854 5.14657 17.9556C4.90657 17.2711 4.66657 16.5867 4.41768 15.9022C4.34657 15.7156 4.24879 15.5378 4.1599 15.3511C4.13463 15.3055 4.09352 15.2707 4.04435 15.2533L4.00879 17.9822Z" fill="#243D78"/>
<path d="M13.004 16.7467V13.9467H14.2218V17.9733H14.1063C13.7596 17.9733 13.4218 17.9733 13.0751 17.9733C12.9056 17.9843 12.7359 17.9537 12.5809 17.8839C12.426 17.8142 12.2905 17.7076 12.1863 17.5733C11.9818 17.3268 11.7918 17.0686 11.6174 16.8C11.2529 16.2578 10.9063 15.7067 10.524 15.12V17.9644H9.29736V13.9467H9.49292C9.78625 13.9467 10.0707 13.9467 10.3818 13.9467C10.5891 13.9321 10.7967 13.972 10.9838 14.0624C11.1709 14.1529 11.3311 14.2907 11.4485 14.4622C11.6707 14.7556 11.8751 15.0667 12.0796 15.3511C12.284 15.6356 12.6574 16.24 12.9685 16.6756L13.0218 16.7467" fill="#243D78"/>
<path d="M11.5553 19.3156C11.6886 19.3156 11.8131 19.3156 11.8931 19.2267C11.9204 19.191 11.9353 19.1472 11.9353 19.1022C11.9353 19.0572 11.9204 19.0135 11.8931 18.9778C11.8131 18.8622 11.6886 18.88 11.5731 18.88C11.5695 18.8976 11.5695 18.9157 11.5731 18.9333C11.5731 19.0578 11.5731 19.1733 11.5731 19.3156M13.0575 19.5645H13.5019L13.2797 18.8267L13.0575 19.5645ZM14.0975 20.1778H13.9553C13.8664 20.1778 13.7686 20.1778 13.7064 20.1778C13.6442 20.1778 13.6531 20.0356 13.6175 19.9645C13.5955 19.9289 13.5604 19.9033 13.5197 19.8933C13.3686 19.8933 13.2175 19.8933 13.0664 19.8933C12.9153 19.8933 12.9508 19.8933 12.9331 19.9911C12.9153 20.0889 12.8708 20.1867 12.6753 20.1956H11.9997C11.9659 20.1997 11.9318 20.1922 11.9027 20.1745C11.8737 20.1567 11.8515 20.1297 11.8397 20.0978C11.7579 19.9105 11.6629 19.7293 11.5553 19.5556V20.1422H11.1553V18.5422C11.4397 18.5422 11.7242 18.5422 12.0442 18.5867C12.1422 18.6036 12.231 18.655 12.2946 18.7316C12.3582 18.8082 12.3923 18.9049 12.3908 19.0045C12.4129 19.1079 12.395 19.216 12.3405 19.3067C12.2861 19.3975 12.1992 19.4642 12.0975 19.4933H12.0353L12.4619 20.1245C12.5686 19.8311 12.6575 19.5645 12.7464 19.2978C12.8353 19.0311 12.9153 18.8178 13.0042 18.5778C13.0128 18.5609 13.0254 18.5464 13.0408 18.5356C13.0563 18.5247 13.0743 18.5179 13.0931 18.5156H13.5019C13.5207 18.5179 13.5386 18.5247 13.5541 18.5356C13.5696 18.5464 13.5822 18.5609 13.5908 18.5778C13.7686 19.0845 13.9464 19.5911 14.1153 20.0978C14.1153 20.0978 14.1153 20.0978 14.1153 20.1422" fill="#243D78"/>
<path d="M9.52892 19.3689C9.52202 19.4626 9.54384 19.5562 9.59149 19.6372C9.63913 19.7182 9.71032 19.7827 9.79558 19.8222C9.84917 19.8434 9.90648 19.8535 9.96406 19.8519C10.0216 19.8503 10.0783 19.837 10.1306 19.8129C10.183 19.7888 10.2299 19.7544 10.2685 19.7117C10.3072 19.669 10.3368 19.6189 10.3556 19.5644C10.4061 19.4417 10.4065 19.3041 10.3567 19.1811C10.3068 19.0581 10.2107 18.9595 10.0889 18.9067C9.79558 18.8 9.52892 19.0222 9.52892 19.3689ZM9.08447 19.3689C9.12923 19.1725 9.23936 18.9971 9.39681 18.8715C9.55427 18.7459 9.74972 18.6775 9.95114 18.6775C10.1526 18.6775 10.348 18.7459 10.5055 18.8715C10.6629 18.9971 10.773 19.1725 10.8178 19.3689C10.773 19.5653 10.6629 19.7406 10.5055 19.8662C10.348 19.9919 10.1526 20.0603 9.95114 20.0603C9.74972 20.0603 9.55427 19.9919 9.39681 19.8662C9.23936 19.7406 9.12923 19.5653 9.08447 19.3689Z" fill="#243D78"/>
<path d="M4.65781 19.36C4.65043 19.4572 4.67396 19.5542 4.72505 19.6373C4.77614 19.7203 4.85216 19.785 4.94226 19.8222C5.02466 19.8538 5.11506 19.8579 5.19997 19.8339C5.28489 19.8098 5.35974 19.759 5.41337 19.6889C5.47604 19.5972 5.50958 19.4888 5.50958 19.3778C5.50958 19.2667 5.47604 19.1583 5.41337 19.0667C5.3651 18.9921 5.2939 18.9354 5.21051 18.9049C5.12712 18.8744 5.03608 18.8719 4.95115 18.8978C4.85687 18.9317 4.77588 18.9948 4.71994 19.078C4.66399 19.1611 4.636 19.2599 4.64003 19.36M5.05781 20.2489C4.92478 20.2902 4.78391 20.2997 4.64654 20.2765C4.50918 20.2534 4.37917 20.1983 4.26702 20.1157C4.15486 20.0331 4.06368 19.9253 4.00085 19.801C3.93801 19.6766 3.90527 19.5393 3.90527 19.4C3.90527 19.2607 3.93801 19.1234 4.00085 18.999C4.06368 18.8747 4.15486 18.7669 4.26702 18.6843C4.37917 18.6017 4.50918 18.5466 4.64654 18.5235C4.78391 18.5003 4.92478 18.5098 5.05781 18.5511C5.19084 18.5098 5.33172 18.5003 5.46908 18.5235C5.60645 18.5466 5.73645 18.6017 5.84861 18.6843C5.96077 18.7669 6.05194 18.8747 6.11478 18.999C6.17761 19.1234 6.21035 19.2607 6.21035 19.4C6.21035 19.5393 6.17761 19.6766 6.11478 19.801C6.05194 19.9253 5.96077 20.0331 5.84861 20.1157C5.73645 20.1983 5.60645 20.2534 5.46908 20.2765C5.33172 20.2997 5.19084 20.2902 5.05781 20.2489Z" fill="#243D78"/>
<path d="M6.65772 18.88V19.3244C6.78217 19.3244 6.9155 19.3244 6.97772 19.2267C6.99521 19.1891 7.00428 19.1481 7.00428 19.1067C7.00428 19.0652 6.99521 19.0242 6.97772 18.9867C6.9155 18.8533 6.78217 18.88 6.65772 18.88ZM6.22217 18.5689C6.4857 18.5555 6.74975 18.5555 7.01328 18.5689C7.12023 18.5756 7.22076 18.6222 7.29487 18.6996C7.36899 18.7771 7.41125 18.8795 7.41328 18.9867C7.43117 19.0944 7.40955 19.205 7.35238 19.2981C7.29522 19.3912 7.20637 19.4605 7.10217 19.4933L7.53772 20.1422H7.11106C7.11106 20.1422 7.03995 20.0978 7.02217 20.0711C6.91148 19.8919 6.78977 19.7197 6.65772 19.5555V20.1422H6.22217V18.5689Z" fill="#243D78"/>
<path d="M8.12422 19.2889C8.24867 19.2889 8.39089 19.2889 8.462 19.1911C8.47989 19.1584 8.48927 19.1217 8.48927 19.0845C8.48927 19.0472 8.47989 19.0105 8.462 18.9778C8.382 18.8622 8.24866 18.8978 8.13311 18.8978L8.12422 19.2889ZM8.12422 20.1778H7.71533V18.5422C7.99978 18.5422 8.27533 18.5422 8.60422 18.5422C8.66976 18.5533 8.73129 18.5812 8.78273 18.6233C8.83417 18.6654 8.87375 18.7202 8.89755 18.7822C8.93724 18.8671 8.95781 18.9597 8.95781 19.0533C8.95781 19.147 8.93724 19.2396 8.89755 19.3245C8.86486 19.4054 8.80813 19.4744 8.73501 19.522C8.6619 19.5697 8.57591 19.5938 8.48867 19.5911C8.382 19.5911 8.27533 19.5911 8.15089 19.5911L8.12422 20.1778Z" fill="#243D78"/>
<path d="M4.02646 19.0578C3.68868 18.8533 3.48424 18.8533 3.32424 19.0578C3.25143 19.1503 3.21183 19.2645 3.21183 19.3822C3.21183 19.4999 3.25143 19.6142 3.32424 19.7067C3.49313 19.8933 3.70646 19.8756 3.99979 19.7067C3.99979 19.8489 3.99979 19.9822 3.99979 20.1156C3.98312 20.1506 3.95486 20.1789 3.91979 20.1956C3.81951 20.2395 3.71149 20.2631 3.60201 20.2649C3.49254 20.2668 3.38378 20.2469 3.28206 20.2064C3.18035 20.1658 3.08769 20.1055 3.00948 20.0289C2.93127 19.9523 2.86906 19.8609 2.82646 19.76C2.73786 19.5495 2.73367 19.313 2.81476 19.0995C2.89586 18.886 3.05601 18.7119 3.26202 18.6133C3.47843 18.5244 3.72116 18.5244 3.93757 18.6133C3.95334 18.6211 3.96714 18.6323 3.97792 18.6462C3.9887 18.66 3.99618 18.6762 3.99979 18.6933C3.99979 18.8178 3.99979 18.9422 3.99979 19.0845" fill="#243D78"/>
<path d="M19.653 13.9289L18.6664 14.9511C18.6231 14.9839 18.5694 14.9997 18.5153 14.9956H16.8886C16.7596 14.9884 16.6305 15.0073 16.509 15.0512C16.3874 15.0951 16.276 15.1631 16.1814 15.251C16.0868 15.339 16.0109 15.4452 15.9583 15.5632C15.9057 15.6812 15.8775 15.8086 15.8753 15.9378C15.8701 16.1583 15.9418 16.3738 16.078 16.5473C16.2142 16.7208 16.4065 16.8415 16.6219 16.8889C16.7047 16.8977 16.7881 16.8977 16.8708 16.8889H18.5864C18.6208 16.886 18.6555 16.8909 18.6878 16.9032C18.7201 16.9156 18.7492 16.9349 18.773 16.96L19.6619 17.8933V17.9467H16.5508C16.0133 17.9561 15.4941 17.7516 15.1073 17.3782C14.7206 17.0048 14.498 16.4931 14.4886 15.9556C14.4792 15.4181 14.6836 14.8988 15.057 14.5121C15.4305 14.1253 15.9422 13.9028 16.4797 13.8933C17.5375 13.8933 18.6042 13.8933 19.6619 13.8933" fill="#243D78"/>
<path d="M18.1685 18.5511C18.3018 18.5511 18.4173 18.5511 18.5329 18.5511C18.5713 18.561 18.6055 18.5827 18.6307 18.6133L19.3329 19.5556V18.56H19.7418V20.1778H19.3773C19.3566 20.1745 19.3369 20.1663 19.3199 20.1539C19.3029 20.1416 19.2891 20.1254 19.2796 20.1067C19.0396 19.7867 18.8085 19.4578 18.5773 19.1378V20.1778H18.1685V18.5511Z" fill="#243D78"/>
<path d="M17.4399 19.3689C17.4452 19.2709 17.4198 19.1737 17.3672 19.0908C17.3146 19.0079 17.2375 18.9436 17.1465 18.9067C17.0946 18.8884 17.0396 18.8806 16.9846 18.8837C16.9297 18.8868 16.8758 18.9007 16.8263 18.9247C16.7767 18.9487 16.7324 18.9822 16.6958 19.0233C16.6592 19.0645 16.6312 19.1124 16.6132 19.1645C16.5631 19.2842 16.5599 19.4184 16.6044 19.5403C16.6489 19.6623 16.7377 19.7629 16.8532 19.8222C16.9227 19.8484 16.9978 19.8564 17.0713 19.8454C17.1448 19.8344 17.2142 19.8047 17.273 19.7593C17.3318 19.7138 17.378 19.6541 17.4072 19.5858C17.4364 19.5175 17.4477 19.4428 17.4399 19.3689ZM16.1421 19.3689C16.1421 19.1931 16.1942 19.0212 16.2919 18.8751C16.3896 18.7289 16.5284 18.615 16.6908 18.5477C16.8532 18.4804 17.032 18.4628 17.2044 18.4971C17.3768 18.5314 17.5352 18.616 17.6595 18.7404C17.7838 18.8647 17.8685 19.0231 17.9028 19.1955C17.9371 19.3679 17.9195 19.5466 17.8522 19.7091C17.7849 19.8715 17.671 20.0103 17.5248 20.108C17.3786 20.2057 17.2068 20.2578 17.031 20.2578C16.7952 20.2578 16.5691 20.1641 16.4024 19.9974C16.2357 19.8307 16.1421 19.6046 16.1421 19.3689Z" fill="#243D78"/>
<path d="M15.1555 18.9244H14.7999V20.1689H14.3643V18.9333H14.0088V18.56H15.1555V18.9244Z" fill="#243D78"/>
<path d="M15.8398 18.5511H15.4131V20.16H15.8398V18.5511Z" fill="#243D78"/>
<path d="M25.1463 11.4844C24.9507 11.3244 24.7818 11.12 24.604 10.9689C24.401 10.777 24.1323 10.67 23.8529 10.67C23.5736 10.67 23.3048 10.777 23.1018 10.9689C23.0416 11.0147 22.9852 11.0653 22.9329 11.12L21.3952 12.64V12.6933C21.3646 12.8701 21.3726 13.0514 21.4186 13.2247C21.4646 13.3981 21.5476 13.5595 21.6618 13.6978L22.5507 14.5867L23.8574 16L24.3374 15.52L25.3507 14.5333L26.1063 13.7867H26.1596C26.1596 13.7867 26.1596 13.7333 26.2218 13.7244C26.3984 13.6041 26.6041 13.5335 26.8174 13.52C26.9232 13.5006 27.0316 13.5006 27.1374 13.52H27.1996L25.1463 11.4844Z" fill="#FFD200"/>
<path d="M28.7552 15.04L27.1996 13.52H27.1374C27.0316 13.5007 26.9232 13.5007 26.8174 13.52C26.6042 13.5335 26.3985 13.6041 26.2219 13.7245C26.2219 13.7245 26.1774 13.7245 26.1596 13.7867H26.1063L25.3508 14.5333L24.3374 15.52L23.8574 16L25.1463 17.2622L26.1241 18.2311C26.2343 18.3663 26.3132 18.5241 26.3552 18.6933C26.4108 18.888 26.4108 19.0943 26.3552 19.2889L26.5508 19.0933L27.8308 17.7867L28.8708 16.7556C29.0271 16.5882 29.1294 16.3775 29.1641 16.1511C29.1728 16.0892 29.1728 16.0264 29.1641 15.9645C29.1535 15.6148 29.0068 15.2831 28.7552 15.04Z" fill="#223C77"/>
<path d="M26.3553 18.6667C26.3133 18.4974 26.2344 18.3396 26.1242 18.2044L25.1464 17.2356L23.8575 16L22.6042 17.2711L21.6264 18.2489C21.5005 18.3643 21.3511 18.4511 21.1885 18.5033C21.0258 18.5555 20.8538 18.5718 20.6842 18.5511C20.6521 18.5428 20.6185 18.5428 20.5864 18.5511L22.5686 20.5511C22.8535 20.9503 23.2792 21.2267 23.7598 21.3244C23.9205 21.3464 24.0841 21.3313 24.2381 21.2805C24.3921 21.2297 24.5325 21.1444 24.6486 21.0311L26.3375 19.3422C26.4153 19.1247 26.4215 18.888 26.3553 18.6667Z" fill="#EE3524"/>
<path d="M22.4886 14.6133L21.5997 13.7244C21.4855 13.5861 21.4025 13.4248 21.3565 13.2514C21.3105 13.078 21.3024 12.8968 21.333 12.72V12.6667L19.2797 14.6844C19.0308 14.9511 18.5063 15.3156 18.5063 15.9556C18.5155 16.1392 18.5657 16.3184 18.6534 16.4799C18.7411 16.6415 18.864 16.7812 19.013 16.8889L20.5508 18.4622C20.5829 18.4539 20.6165 18.4539 20.6486 18.4622C20.8181 18.4829 20.9902 18.4666 21.1528 18.4144C21.3155 18.3623 21.4649 18.2755 21.5908 18.16L22.5686 17.1822L23.8575 16L22.4886 14.6133Z" fill="#3F9244"/>
<path d="M20.9952 16C20.99 15.4307 21.1541 14.8726 21.4667 14.3968C21.7794 13.9209 22.2264 13.5488 22.7511 13.3276C23.2757 13.1065 23.8543 13.0463 24.4132 13.1548C24.9722 13.2633 25.4862 13.5355 25.8901 13.9368C26.2939 14.3382 26.5693 14.8505 26.6813 15.4088C26.7932 15.967 26.7367 16.546 26.5188 17.072C26.301 17.598 25.9316 18.0474 25.4577 18.363C24.9838 18.6786 24.4268 18.8462 23.8575 18.8444C23.4828 18.8456 23.1115 18.773 22.7649 18.6307C22.4182 18.4883 22.103 18.2791 21.8372 18.015C21.5715 17.7509 21.3603 17.437 21.2158 17.0912C21.0714 16.7455 20.9964 16.3747 20.9952 16ZM21.1997 16C21.2026 16.6996 21.4804 17.37 21.973 17.8667C22.4755 18.3604 23.153 18.6352 23.8575 18.6311C24.2356 18.685 24.6209 18.657 24.9873 18.549C25.3538 18.4411 25.6927 18.2557 25.9812 18.0053C26.2697 17.755 26.5011 17.4456 26.6597 17.0981C26.8182 16.7506 26.9003 16.3731 26.9003 15.9911C26.9003 15.6091 26.8182 15.2316 26.6597 14.8841C26.5011 14.5366 26.2697 14.2272 25.9812 13.9769C25.6927 13.7266 25.3538 13.5411 24.9873 13.4332C24.6209 13.3252 24.2356 13.2972 23.8575 13.3511C23.1505 13.3517 22.4726 13.6331 21.973 14.1333C21.4804 14.63 21.2026 15.3004 21.1997 16Z" fill="white"/>
<path fill-rule="evenodd" clip-rule="evenodd" d="M23.8932 13.3333C24.4206 13.3333 24.9362 13.4897 25.3748 13.7828C25.8133 14.0758 26.1551 14.4923 26.3569 14.9795C26.5587 15.4668 26.6116 16.003 26.5087 16.5203C26.4058 17.0375 26.1518 17.5127 25.7788 17.8856C25.4059 18.2586 24.9308 18.5125 24.4135 18.6154C23.8962 18.7183 23.36 18.6655 22.8727 18.4637C22.3855 18.2619 21.969 17.9201 21.676 17.4815C21.383 17.043 21.2266 16.5274 21.2266 16C21.2266 15.2928 21.5075 14.6145 22.0076 14.1144C22.5077 13.6143 23.186 13.3333 23.8932 13.3333Z" fill="url(#paint0_radial_2707_300193)"/>
</g>
<defs>
<radialGradient id="paint0_radial_2707_300193" cx="0" cy="0" r="1" gradientUnits="userSpaceOnUse" gradientTransform="translate(22.6526 17.0924) rotate(14.6942) scale(2.62818)">
<stop stop-color="white"/>
<stop offset="1" stop-color="#B3B3B3" stop-opacity="0"/>
</radialGradient>
<clipPath id="clip0_2707_300193">
<rect width="32" height="32" fill="white"/>
</clipPath>
</defs>
</svg>
