<svg width="32" height="32" viewBox="0 0 32 32" fill="none" xmlns="http://www.w3.org/2000/svg">
<g clip-path="url(#clip0_2707_300128)">
<path d="M16 32C24.8366 32 32 24.8366 32 16C32 7.16344 24.8366 0 16 0C7.16344 0 0 7.16344 0 16C0 24.8366 7.16344 32 16 32Z" fill="white"/>
<path d="M15.9998 29.3333C23.3636 29.3333 29.3332 23.3638 29.3332 16C29.3332 8.63621 23.3636 2.66667 15.9998 2.66667C8.63604 2.66667 2.6665 8.63621 2.6665 16C2.6665 23.3638 8.63604 29.3333 15.9998 29.3333Z" fill="white"/>
<path d="M6.72878 15.5289C6.94231 15.4068 7.18511 15.3453 7.43101 15.3511C7.59564 15.3462 7.75952 15.3752 7.91244 15.4364C8.06537 15.4976 8.20406 15.5896 8.3199 15.7067C8.55585 15.9895 8.67365 16.3525 8.64878 16.72V19.0133H7.85767V16.9778C7.8737 16.7463 7.8076 16.5165 7.67101 16.3289C7.60407 16.2547 7.52152 16.1963 7.4293 16.1579C7.33707 16.1195 7.23747 16.102 7.13767 16.1067C7.03522 16.1018 6.93292 16.1191 6.83779 16.1574C6.74267 16.1958 6.65696 16.2543 6.58656 16.3289C6.43248 16.5155 6.3561 16.7542 6.37323 16.9955V19.0133H5.54656V16.9689C5.55773 16.7364 5.48165 16.5082 5.33323 16.3289C5.26754 16.2532 5.18519 16.1937 5.09266 16.1551C5.00013 16.1166 4.89992 16.1 4.7999 16.1067C4.69591 16.1027 4.59238 16.1223 4.49698 16.1638C4.40158 16.2054 4.31675 16.2679 4.24878 16.3467C4.17219 16.4354 4.11391 16.5384 4.0773 16.6498C4.04069 16.7612 4.02647 16.8787 4.03545 16.9955V19.0133H3.22656V15.4578H4.05323V16C4.11358 15.919 4.17889 15.8418 4.24878 15.7689C4.30476 15.6872 4.37042 15.6126 4.44434 15.5467C4.53581 15.4816 4.63816 15.4335 4.74656 15.4044C4.86473 15.3687 4.98755 15.3507 5.11101 15.3511C5.3429 15.345 5.57151 15.4068 5.76878 15.5289C5.96476 15.6355 6.12307 15.8001 6.22212 16C6.35707 15.81 6.5295 15.6497 6.72878 15.5289Z" fill="black"/>
<path d="M12.9865 17.9467C12.7915 18.398 12.4278 18.7553 11.9731 18.9422C11.4853 19.1376 10.941 19.1376 10.4531 18.9422C10.2273 18.8548 10.0218 18.7222 9.84906 18.5526C9.67634 18.3829 9.5401 18.1797 9.44868 17.9555C9.25799 17.4883 9.25799 16.965 9.44868 16.4978C9.54016 16.2741 9.67626 16.0715 9.84868 15.9022C10.0224 15.731 10.2277 15.5952 10.4531 15.5022C10.6929 15.4036 10.9494 15.3523 11.2087 15.3511C11.4713 15.3471 11.7318 15.3986 11.9731 15.5022C12.3153 15.6388 12.608 15.8758 12.8127 16.182C13.0174 16.4883 13.1245 16.8494 13.1198 17.2178C13.1245 17.4672 13.0792 17.715 12.9865 17.9467ZM12.222 16.7822C12.1675 16.6479 12.0892 16.5244 11.9909 16.4178C11.8933 16.3064 11.773 16.2171 11.6381 16.1559C11.5032 16.0948 11.3568 16.0631 11.2087 16.0631C11.0606 16.0631 10.9142 16.0948 10.7793 16.1559C10.6444 16.2171 10.5241 16.3064 10.4265 16.4178C10.3305 16.5229 10.2579 16.6471 10.2131 16.7822C10.1601 16.9244 10.1331 17.0749 10.1331 17.2267C10.1322 17.3814 10.1593 17.535 10.2131 17.68C10.2696 17.8161 10.3476 17.9421 10.4442 18.0533C10.5425 18.1558 10.6604 18.2374 10.7909 18.2933C10.9273 18.3571 11.0759 18.3904 11.2265 18.3911C11.3798 18.3895 11.5311 18.3562 11.6709 18.2933C11.8017 18.2385 11.9176 18.1532 12.0087 18.0444C12.1059 17.9421 12.1815 17.8211 12.2309 17.6889C12.2762 17.545 12.3001 17.3953 12.302 17.2444C12.303 17.0897 12.2759 16.9361 12.222 16.7911V16.7822Z" fill="black"/>
<path d="M13.6802 19.0133V14.0533H14.5068V19.0133H13.6802Z" fill="black"/>
<path d="M17.5469 19.0133H16.7202V15.4578H17.5469V16C17.6071 15.9132 17.6724 15.8301 17.7424 15.7511C17.8142 15.6765 17.8948 15.6108 17.9824 15.5556C18.0771 15.4904 18.1824 15.4423 18.2935 15.4133C18.4148 15.3776 18.5405 15.3596 18.6669 15.36C18.8416 15.3503 19.0163 15.3787 19.179 15.4432C19.3417 15.5076 19.4884 15.6066 19.6091 15.7333C19.8368 16.0173 19.9537 16.3742 19.938 16.7378V19.0222H19.1113V16.9778C19.1247 16.7438 19.052 16.513 18.9069 16.3289C18.8363 16.2521 18.7492 16.1922 18.6523 16.1538C18.5553 16.1153 18.4509 16.0992 18.3469 16.1067C18.24 16.1041 18.1336 16.1233 18.0343 16.163C17.935 16.2028 17.8448 16.2622 17.7691 16.3378C17.6148 16.5212 17.5354 16.7561 17.5469 16.9956V19.0133Z" fill="black"/>
<path d="M23.6179 19.0133V18.4089C23.4849 18.5968 23.3194 18.7593 23.1291 18.8889C22.9113 19.0258 22.6573 19.094 22.4002 19.0844C22.1895 19.0835 21.9812 19.0412 21.7868 18.96C21.5842 18.8797 21.402 18.7552 21.2535 18.5956C21.0927 18.4256 20.966 18.2265 20.8802 18.0089C20.7839 17.7563 20.7356 17.488 20.7379 17.2178C20.7311 16.9471 20.7795 16.678 20.8802 16.4267C20.9595 16.2079 21.0836 16.008 21.2446 15.84C21.3948 15.6823 21.5765 15.5581 21.7779 15.4756C21.9754 15.3943 22.1867 15.352 22.4002 15.3511C22.6575 15.3399 22.912 15.4081 23.1291 15.5467C23.3141 15.665 23.4791 15.812 23.6179 15.9822V14.0533H24.4446V19.0044L23.6179 19.0133ZM23.5468 16.7467C23.4955 16.6127 23.4202 16.4892 23.3246 16.3822C23.2279 16.2819 23.1134 16.2005 22.9868 16.1422C22.8632 16.0894 22.7302 16.0622 22.5957 16.0622C22.4613 16.0622 22.3282 16.0894 22.2046 16.1422C22.0799 16.1952 21.9678 16.2739 21.8757 16.3733C21.7744 16.4724 21.6982 16.5943 21.6535 16.7289C21.5933 16.8848 21.5631 17.0507 21.5646 17.2178C21.5632 17.382 21.5934 17.545 21.6535 17.6978C21.7013 17.8334 21.777 17.9576 21.8757 18.0622C21.9678 18.1616 22.0799 18.2404 22.2046 18.2933C22.3323 18.3431 22.4687 18.367 22.6057 18.3634C22.7427 18.3599 22.8776 18.3291 23.0026 18.2728C23.1276 18.2166 23.2401 18.1359 23.3335 18.0357C23.427 17.9354 23.4995 17.8175 23.5468 17.6889C23.6623 17.3854 23.6623 17.0501 23.5468 16.7467Z" fill="black"/>
<path d="M28.6578 17.9467C28.4629 18.398 28.0992 18.7553 27.6445 18.9422C27.1567 19.1376 26.6124 19.1376 26.1245 18.9422C25.8987 18.8548 25.6932 18.7222 25.5204 18.5526C25.3477 18.3829 25.2115 18.1797 25.1201 17.9555C24.9294 17.4883 24.9294 16.965 25.1201 16.4978C25.2115 16.2741 25.3476 16.0715 25.5201 15.9022C25.6938 15.731 25.899 15.5952 26.1245 15.5022C26.3643 15.4036 26.6208 15.3523 26.8801 15.3511C27.1427 15.3471 27.4032 15.3986 27.6445 15.5022C27.8734 15.5887 28.0799 15.7254 28.249 15.9022C28.4204 16.0689 28.5564 16.2684 28.649 16.4889C28.8387 16.9563 28.8387 17.4793 28.649 17.9467H28.6578ZM27.8934 16.7822C27.8388 16.6479 27.7606 16.5244 27.6623 16.4178C27.5647 16.3064 27.4444 16.2171 27.3095 16.1559C27.1746 16.0948 27.0282 16.0631 26.8801 16.0631C26.732 16.0631 26.5855 16.0948 26.4506 16.1559C26.3157 16.2171 26.1955 16.3064 26.0978 16.4178C26.0019 16.5229 25.9292 16.6471 25.8845 16.7822C25.8315 16.9244 25.8044 17.0749 25.8045 17.2267C25.8031 17.3822 25.8333 17.5365 25.8934 17.68C25.9412 17.8156 26.0169 17.9398 26.1156 18.0444C26.211 18.1524 26.3295 18.2374 26.4623 18.2933C26.5987 18.3571 26.7473 18.3904 26.8978 18.3911C27.0512 18.3895 27.2025 18.3562 27.3423 18.2933C27.4731 18.2385 27.5889 18.1532 27.6801 18.0444C27.7773 17.9421 27.8529 17.8211 27.9023 17.6889C27.9482 17.5451 27.9722 17.3953 27.9734 17.2444C27.9744 17.0897 27.9472 16.9361 27.8934 16.7911V16.7822Z" fill="black"/>
<path d="M18.1157 14.1333L17.8669 14.2222C17.4036 14.3842 16.9618 14.6021 16.5513 14.8711C16.2158 15.0713 15.9615 15.3832 15.8331 15.7522C15.7047 16.1212 15.7103 16.5237 15.8491 16.8889C15.938 17.1733 16.0535 17.4489 16.1602 17.7244C16.1602 17.7244 16.1602 17.8044 16.1602 17.84C16.1192 17.8492 16.0767 17.8492 16.0357 17.84C15.5134 17.5655 15.1205 17.0959 14.9424 16.5333C14.7984 16.141 14.732 15.7244 14.7469 15.3067C14.7316 15.1668 14.7713 15.0265 14.8575 14.9154C14.9438 14.8043 15.0698 14.731 15.2091 14.7111C15.6802 14.5956 16.1513 14.5067 16.6224 14.4089L17.5557 14.2044C17.7348 14.1655 17.9158 14.1358 18.098 14.1156L18.1157 14.1333Z" fill="#0199DC"/>
<path d="M15.3869 12.8889C15.5871 12.9955 15.7518 13.1584 15.8607 13.3573C15.9697 13.5563 16.0182 13.7828 16.0002 14.0089C15.9864 14.0811 15.9584 14.1498 15.9176 14.211C15.8769 14.2723 15.8244 14.3247 15.7631 14.3653C15.7018 14.4059 15.633 14.4338 15.5607 14.4474C15.4885 14.461 15.4143 14.46 15.3424 14.4445C15.2707 14.4307 15.2029 14.4017 15.1435 14.3593C15.0841 14.3169 15.0346 14.2622 14.9983 14.1989C14.962 14.1356 14.9398 14.0652 14.9332 13.9925C14.9266 13.9198 14.9358 13.8466 14.9602 13.7778C15.013 13.6165 15.0943 13.466 15.2002 13.3333C15.2635 13.273 15.3131 13.1996 15.3453 13.1183C15.3775 13.037 15.3917 12.9496 15.3869 12.8622V12.8889Z" fill="#0199DC"/>
<path d="M15.8491 19.0133H15.0225V16.8889C15.0225 16.8889 15.0758 17.3689 15.8491 17.9467V19.0133Z" fill="black"/>
</g>
<defs>
<clipPath id="clip0_2707_300128">
<rect width="32" height="32" fill="white"/>
</clipPath>
</defs>
</svg>
