<svg width="32" height="32" viewBox="0 0 32 32" fill="none" xmlns="http://www.w3.org/2000/svg">
<g clip-path="url(#clip0_2737_122624)">
<mask id="mask0_2737_122624" style="mask-type:luminance" maskUnits="userSpaceOnUse" x="0" y="0" width="32" height="32">
<path d="M31.9909 0.0177765H0.0175781V31.9911H31.9909V0.0177765Z" fill="white"/>
</mask>
<g mask="url(#mask0_2737_122624)">
<path d="M15.9998 31.9822C24.8265 31.9822 31.982 24.8267 31.982 16C31.982 7.17326 24.8265 0.0177765 15.9998 0.0177765C7.17306 0.0177765 0.0175781 7.17326 0.0175781 16C0.0175781 24.8267 7.17306 31.9822 15.9998 31.9822Z" fill="white"/>
<path d="M4.39098 12.72C4.39098 12.72 6.07987 12.7022 6.15098 12.72C6.15098 12.7289 6.15098 12.7378 6.15098 12.7467C6.15098 12.7556 6.15098 12.7733 6.15098 12.7822C6.15098 14.3733 6.15098 15.9556 6.15098 17.5467C6.15098 17.8222 6.08876 18.0978 5.9732 18.3467C5.8932 18.5156 5.77765 18.6667 5.64431 18.8089C5.45765 19.0044 5.23543 19.1378 4.99543 19.2267C4.8532 19.28 4.71098 19.3156 4.56876 19.3244C4.47098 19.3244 4.3732 19.3333 4.27543 19.3333C3.71543 19.3333 3.14654 19.3333 2.58654 19.3333H2.5332V17.5733C2.5332 17.5733 2.56876 17.5733 2.58654 17.5733C2.92431 17.5733 3.2532 17.5733 3.59098 17.5733C3.68876 17.5733 3.77765 17.5733 3.86654 17.5378C4.14209 17.44 4.31987 17.2533 4.3732 16.96C4.39098 16.8889 4.38209 16.8178 4.38209 16.7467C4.38209 16.0622 4.38209 15.3689 4.38209 14.6844C4.38209 14.0444 4.38209 13.4044 4.38209 12.7644V12.72" fill="#DDB846"/>
<path d="M8.83496 12.7111H10.595C10.595 12.7111 10.595 12.7378 10.595 12.7556C10.595 13.76 10.595 14.7644 10.595 15.7689C10.595 16.1156 10.595 16.4711 10.595 16.8178C10.595 17.1111 10.7283 17.3244 10.9861 17.4756C11.0927 17.5378 11.2172 17.5644 11.3505 17.5644C11.7061 17.5644 12.0527 17.5644 12.4083 17.5644H12.4616C12.4616 17.5644 12.4794 19.2089 12.4616 19.3244C12.4527 19.3244 12.4438 19.3244 12.4261 19.3244C12.3905 19.3244 12.355 19.3244 12.3105 19.3244C11.7416 19.3244 11.1639 19.3244 10.595 19.3244C10.2483 19.3244 9.9283 19.2267 9.64385 19.04C9.28829 18.8089 9.04829 18.4978 8.91496 18.0978C8.86163 17.9289 8.83496 17.76 8.83496 17.5822C8.83496 16.0267 8.83496 14.4622 8.83496 12.9067C8.83496 12.8533 8.83496 12.8 8.83496 12.7467C8.83496 12.7378 8.83496 12.72 8.83496 12.7022" fill="#DDB846"/>
<path d="M15.5553 13.3067C15.6175 13.4133 15.6708 13.52 15.7331 13.6267C15.7331 13.6267 15.7331 13.6444 15.742 13.6444C15.742 13.6444 15.742 13.6444 15.742 13.6533C15.742 13.6711 15.7597 13.68 15.7597 13.6978C15.7597 13.6978 15.7597 13.7156 15.7686 13.7244C15.7864 13.7511 15.8042 13.7867 15.8131 13.8133C15.8131 13.8133 15.8131 13.8133 15.8131 13.8222C15.902 13.9911 15.9908 14.16 16.0797 14.3289C16.0975 14.3644 16.1153 14.4 16.1331 14.4356C16.222 14.6133 16.3108 14.7822 16.3997 14.96C16.3997 14.96 16.3997 14.9778 16.4086 14.9867C16.4086 14.9956 16.4175 15.0044 16.4264 15.0133C16.4442 15.0489 16.462 15.0756 16.4708 15.1111C16.5508 15.2711 16.6308 15.4311 16.7108 15.5911C16.7108 15.6 16.7197 15.6089 16.7286 15.6267C16.7286 15.6267 16.7286 15.6267 16.7286 15.6356C16.7286 15.6444 16.7375 15.6533 16.7464 15.6622C16.7464 15.6622 16.7464 15.68 16.7553 15.6889C16.7553 15.7067 16.7731 15.7156 16.7731 15.7333C16.7731 15.7333 16.7731 15.7333 16.7731 15.7422C16.8442 15.8844 16.9153 16.0178 16.9775 16.16C16.9775 16.1689 16.9864 16.1778 16.9953 16.1956C17.0131 16.2222 17.022 16.2578 17.0397 16.2844C17.0397 16.3022 17.0575 16.3111 17.0664 16.3289C17.0664 16.3289 17.0664 16.3289 17.0664 16.3378C17.0931 16.3911 17.1197 16.4444 17.1464 16.5067C17.2175 16.3556 17.2797 16.2222 17.342 16.08C17.342 16.0622 17.3597 16.0444 17.3597 16.0267C17.4308 15.8578 17.5108 15.6889 17.582 15.52C17.6086 15.4667 17.6264 15.4222 17.6531 15.3689C17.6531 15.3689 17.6531 15.3511 17.662 15.3422C17.6975 15.2711 17.7242 15.2 17.7597 15.1378C17.7597 15.1378 17.7597 15.1378 17.7597 15.1289C17.8308 14.9689 17.902 14.8178 17.9731 14.6578C17.982 14.6311 17.9908 14.6133 17.9997 14.5867C18.0975 14.3733 18.1953 14.1689 18.2931 13.9556C18.2931 13.9467 18.302 13.9289 18.3108 13.92C18.4086 13.7067 18.5064 13.5022 18.6042 13.2889C18.6042 13.28 18.6042 13.2711 18.6131 13.2622C18.702 13.0756 18.782 12.8889 18.8708 12.7022H19.8486C19.6975 12.8622 19.6442 13.0578 19.5997 13.2622C19.5997 13.3244 19.582 13.3778 19.582 13.44C19.582 14.6667 19.582 15.8933 19.582 17.12C19.582 17.3689 19.6531 17.5911 19.7953 17.8044C19.8042 17.8222 19.822 17.84 19.8397 17.8578C19.8131 17.8667 18.6486 17.8756 18.5686 17.8578C18.5864 17.8311 18.6131 17.8044 18.6308 17.7778C18.7286 17.6356 18.7731 17.4667 18.7997 17.2978C18.8086 17.2356 18.8175 17.1644 18.8175 17.0933C18.8175 16.2044 18.8175 15.3067 18.8175 14.4178C18.8175 14.4 18.8175 14.3822 18.8175 14.3556C18.8175 14.3644 18.7997 14.3733 18.7997 14.3822C18.7642 14.4444 18.7375 14.5067 18.702 14.5778C18.702 14.5778 18.702 14.5778 18.702 14.5867C18.702 14.5956 18.6931 14.6044 18.6842 14.6133C18.6664 14.6578 18.6486 14.6933 18.6308 14.7378C18.5508 14.8978 18.4797 15.0578 18.3997 15.2178C18.3908 15.2444 18.3731 15.28 18.3642 15.3067C18.3642 15.3156 18.3553 15.3244 18.3464 15.3333C18.3286 15.36 18.3197 15.3867 18.302 15.4133C18.302 15.4311 18.2931 15.4489 18.2842 15.4667C18.2042 15.6356 18.1331 15.7956 18.0531 15.9644C18.0442 15.9911 18.0264 16.0178 18.0175 16.0533C17.9197 16.2667 17.8308 16.48 17.7331 16.6933C17.7064 16.7467 17.6886 16.8 17.6708 16.8444C17.6531 16.8533 17.6531 16.8711 17.6531 16.8889C17.582 17.0667 17.502 17.2356 17.4308 17.4133C17.4042 17.4667 17.3864 17.5289 17.3597 17.5822C17.3242 17.68 17.2797 17.7689 17.2442 17.8667H16.9153C16.5508 17.1289 16.1775 16.4 15.7953 15.6711C15.7953 15.6711 15.7953 15.6622 15.7953 15.6533C15.7953 15.6533 15.7953 15.6444 15.7864 15.6356C15.7864 15.6356 15.7864 15.6356 15.7864 15.6267C15.6886 15.4311 15.582 15.2356 15.4842 15.0311C15.4842 15.0311 15.4842 15.0311 15.4842 15.0222C15.3953 14.8533 15.3153 14.6933 15.2264 14.5244C15.1997 14.48 15.182 14.4267 15.1553 14.3822C15.1553 14.3733 15.1553 14.3556 15.1375 14.3467V14.3822C15.1375 15.28 15.1375 16.1689 15.1375 17.0667C15.1375 17.1378 15.1375 17.2089 15.1553 17.28C15.1553 17.28 15.1553 17.2978 15.1553 17.3067C15.182 17.5111 15.262 17.6889 15.3864 17.8578C15.022 17.8578 14.6664 17.8578 14.302 17.8578C14.302 17.8578 14.2931 17.8578 14.2842 17.8578C14.382 17.7422 14.4442 17.6178 14.4886 17.4844C14.4886 17.4756 14.4886 17.4578 14.4975 17.4489C14.4975 17.44 14.4975 17.4311 14.4975 17.4222C14.5153 17.3689 14.5331 17.3156 14.5242 17.2622C14.5242 17.1911 14.5331 17.12 14.5331 17.04C14.5331 16.9511 14.5331 16.8533 14.5331 16.7644C14.5331 15.7067 14.5331 14.64 14.5331 13.5822C14.5331 13.4844 14.5331 13.3778 14.5242 13.28C14.5242 13.2178 14.5064 13.1644 14.4886 13.1111C14.4886 13.1022 14.4886 13.0933 14.4886 13.0844C14.4797 13.0489 14.462 13.0044 14.4531 12.9689C14.4175 12.88 14.3731 12.7911 14.302 12.72C14.302 12.72 14.2931 12.7022 14.2842 12.7022C14.3197 12.6933 15.0397 12.6844 15.1997 12.7022C15.3064 12.8889 15.4131 13.0844 15.5197 13.2711C15.5197 13.2711 15.5286 13.2889 15.5375 13.2978" fill="#1A2844"/>
<path d="M6.61338 12.7111H8.36449C8.36449 14.9067 8.36449 17.1022 8.36449 19.2978C8.36449 19.2978 8.36449 19.3067 8.36449 19.3155H6.60449C6.60449 19.3155 6.60449 19.3067 6.60449 19.2978C6.60449 17.1111 6.60449 14.9155 6.60449 12.7289C6.60449 12.7289 6.60449 12.7289 6.60449 12.7111" fill="#DDB846"/>
<path d="M28.9328 14.8889C28.995 14.8622 29.0573 14.8355 29.1195 14.8C29.1639 14.7733 29.2084 14.7378 29.2439 14.7022C29.2439 14.7022 29.2528 14.6933 29.2706 14.6755C29.2706 14.7111 29.2706 14.7289 29.2706 14.7555C29.2706 15.04 29.2706 15.3155 29.2706 15.6V15.7511C29.2706 15.7511 29.2173 15.7067 29.1995 15.68C29.1728 15.6622 29.1462 15.6444 29.1195 15.6267C29.0928 15.6089 29.0662 15.6 29.0395 15.5822C28.9773 15.5556 28.915 15.5289 28.8617 15.5111C28.8617 15.5111 28.8439 15.5111 28.835 15.5111C28.8262 15.5111 28.8173 15.5111 28.7995 15.5111C28.7817 15.4933 28.7639 15.5022 28.755 15.5111C28.7195 15.5111 28.6839 15.5111 28.6484 15.5111C28.2839 15.5111 27.9195 15.5111 27.555 15.5111H27.5017V17.3067C27.5017 17.3067 27.5195 17.3067 27.5284 17.3067C27.8928 17.3067 28.2573 17.3067 28.6217 17.3067C28.7728 17.3067 28.915 17.3067 29.0662 17.2533C29.235 17.2 29.3595 17.1022 29.4573 16.96C29.4573 16.96 29.4662 16.96 29.475 16.96C29.475 17.04 29.475 17.1289 29.4662 17.2089C29.4573 17.2089 29.4573 17.2089 29.4662 17.2178C29.4573 17.44 29.4395 17.6622 29.4306 17.8844H26.4884C26.4884 17.8844 26.5417 17.8222 26.5595 17.7867C26.5862 17.7511 26.6039 17.7155 26.6217 17.68C26.6217 17.68 26.6217 17.6622 26.6306 17.6533C26.7017 17.4756 26.7373 17.2978 26.7373 17.1022C26.7373 15.8933 26.7373 14.6844 26.7373 13.4755C26.7373 13.2267 26.675 12.9955 26.5328 12.7822C26.515 12.7644 26.4973 12.7378 26.4795 12.7111H29.4306C29.4306 12.7111 29.4306 12.7911 29.4306 12.8355C29.4306 12.8533 29.4306 12.8711 29.4306 12.8978C29.4306 12.9244 29.4306 12.9511 29.4306 12.9867C29.4306 13.1378 29.4395 13.2889 29.4484 13.44C29.4484 13.4489 29.4484 13.4578 29.4484 13.4667C29.4484 13.52 29.4484 13.5733 29.4484 13.6267C29.4484 13.6267 29.4395 13.6267 29.4306 13.6267C29.3595 13.52 29.2706 13.4489 29.155 13.3955C29.1195 13.3778 29.0839 13.36 29.0484 13.3511C29.0306 13.3511 29.0039 13.3511 28.9773 13.3511C28.9773 13.3511 28.9595 13.3511 28.9506 13.3511H28.9328C28.8617 13.3511 28.7906 13.3333 28.7106 13.3333C28.3462 13.3333 27.9817 13.3333 27.6173 13.3333H27.4839V14.96C27.4839 14.96 27.5017 14.96 27.5106 14.96C27.8928 14.96 28.275 14.96 28.6662 14.96C28.6839 14.96 28.7017 14.96 28.7195 14.96C28.7373 14.9778 28.755 14.96 28.7728 14.96C28.7817 14.96 28.7906 14.96 28.7995 14.96C28.8439 14.96 28.8795 14.9511 28.915 14.9244" fill="#1A2844"/>
<path d="M23.7683 16.0444C23.8306 16.24 23.8483 16.4444 23.8306 16.6489C23.8306 16.72 23.8039 16.8 23.795 16.8711C23.7772 16.9244 23.7594 16.9867 23.7417 17.04C23.6439 17.2533 23.4928 17.44 23.3061 17.5911C23.2083 17.6711 23.1017 17.7244 22.995 17.7778C22.8528 17.8489 22.7017 17.9022 22.5417 17.9289C22.4261 17.9467 22.3194 17.9556 22.2039 17.9733C22.0528 17.9822 21.9106 17.9733 21.7594 17.9644C21.7594 17.9644 21.7594 17.9644 21.7506 17.9644C21.4839 17.9467 21.2261 17.8933 20.9772 17.7956C20.9594 17.7956 20.9417 17.7867 20.9239 17.7778C20.8794 17.76 20.8439 17.7422 20.7994 17.7244C20.7817 17.7156 20.7639 17.7067 20.7372 17.6889C20.7106 17.4756 20.7017 17.2622 20.675 17.0578C20.675 16.9689 20.6572 16.8889 20.6572 16.8C20.7194 16.8622 20.7639 16.9244 20.8261 16.9867C20.9506 17.12 21.1017 17.2 21.2706 17.2711C21.4306 17.3422 21.5994 17.3956 21.7683 17.4133C21.7772 17.4133 21.795 17.4133 21.8039 17.4133C21.9283 17.4222 22.0439 17.4133 22.1683 17.4133C22.3194 17.3956 22.4528 17.3511 22.5861 17.28C22.6483 17.2444 22.7106 17.2089 22.7639 17.1644C22.9594 17.0044 23.0394 16.8 23.0217 16.5511C23.0039 16.3556 22.9061 16.2133 22.7728 16.08C22.6483 15.9556 22.5061 15.8756 22.355 15.7956C22.1594 15.6978 21.9728 15.6 21.7772 15.4933C21.6261 15.4133 21.4839 15.3156 21.3506 15.2089C21.2083 15.1022 21.0839 14.9778 20.9772 14.8356C20.8528 14.6578 20.7461 14.4622 20.7106 14.24C20.6661 13.9822 20.6839 13.7244 20.7994 13.4756C20.9061 13.2622 21.0572 13.0844 21.2528 12.9422C21.4128 12.8356 21.5906 12.7556 21.7772 12.7022C21.8128 12.7022 21.8394 12.6844 21.875 12.6844C21.9461 12.6844 22.0261 12.6667 22.0972 12.6667C22.2661 12.6667 22.435 12.6667 22.6039 12.6667C22.7639 12.6667 22.915 12.6844 23.0661 12.72C23.1194 12.7289 23.1639 12.7467 23.2083 12.7644C23.2083 12.7644 23.2172 12.7644 23.2261 12.7644C23.2261 12.7644 23.235 12.7644 23.2439 12.7644C23.2439 12.7644 23.2528 12.7644 23.2617 12.7644H23.2794C23.2794 12.7644 23.2794 12.7644 23.2883 12.7644C23.3772 12.8 23.4661 12.8444 23.5639 12.88V13.6978C23.5639 13.6978 23.5283 13.6444 23.5106 13.6178C23.4928 13.5911 23.475 13.5644 23.4483 13.5378C23.4217 13.5111 23.4039 13.4844 23.3772 13.4667C23.3506 13.4489 23.3239 13.4222 23.2972 13.4044C23.2706 13.3867 23.2439 13.3689 23.2172 13.3511C23.1906 13.3333 23.1639 13.3156 23.1283 13.3067C23.1106 13.3067 23.1017 13.2889 23.0839 13.2889C22.9506 13.2267 22.7994 13.2 22.6572 13.1822C22.5061 13.1644 22.3461 13.1644 22.195 13.1911C22.1417 13.1911 22.0883 13.2089 22.035 13.2267C21.8394 13.28 21.6972 13.3956 21.5906 13.5644C21.555 13.6089 21.5372 13.6711 21.5372 13.7244C21.5194 13.8222 21.5283 13.9289 21.5639 14.0267C21.5728 14.0444 21.5817 14.0711 21.5906 14.0889C21.6439 14.1867 21.7239 14.2756 21.8128 14.3556C21.9372 14.4711 22.0794 14.56 22.2217 14.64C22.435 14.7644 22.6572 14.8889 22.8706 15.0222C23.0394 15.12 23.1906 15.2356 23.3328 15.36C23.5106 15.52 23.6617 15.7156 23.7506 15.9467C23.7594 15.9733 23.7683 16 23.7772 16.0267" fill="#1A2844"/>
<path d="M24.7286 17.2356C24.7286 17.1911 24.7286 17.1467 24.7286 17.0933C24.7286 15.9022 24.7286 14.7111 24.7286 13.52C24.7286 13.4222 24.7286 13.3244 24.7019 13.2267C24.7019 13.2 24.6841 13.1644 24.6841 13.1378C24.6664 13.0844 24.6486 13.0311 24.6308 12.9778C24.5952 12.8889 24.5508 12.8 24.4797 12.7289C24.4797 12.7289 24.4708 12.7111 24.4619 12.7111C24.4975 12.7022 25.6797 12.7022 25.7419 12.7111C25.7241 12.7378 25.6975 12.7733 25.6797 12.8C25.6797 12.8 25.6797 12.8 25.6797 12.8089C25.6797 12.8089 25.6797 12.8178 25.6708 12.8267C25.6708 12.8356 25.6619 12.8444 25.653 12.8533C25.573 12.9867 25.5286 13.1378 25.5108 13.2889C25.5019 13.3778 25.493 13.4667 25.493 13.5556C25.493 14.7378 25.493 15.92 25.493 17.1022C25.493 17.3244 25.5464 17.5378 25.653 17.7333C25.6797 17.7778 25.7152 17.8222 25.7419 17.8756C25.333 17.8756 24.9241 17.8756 24.5152 17.8756C24.4975 17.8756 24.4886 17.8756 24.4619 17.8756C24.5597 17.7511 24.6308 17.6267 24.6664 17.4844C24.6664 17.4756 24.6664 17.4667 24.6752 17.4489C24.6752 17.44 24.6752 17.4311 24.6752 17.4222C24.693 17.36 24.7108 17.2978 24.7019 17.2356" fill="#1A2844"/>
<path d="M14.8622 18.9422C14.9333 18.8178 15.0045 18.7022 15.0756 18.5778C15.0756 18.5689 15.0933 18.5511 15.0933 18.5422H15.1911V19.3333H15.0756V18.7822C15.0133 18.8622 14.96 18.9422 14.9156 19.0311C14.8978 19.0578 14.88 19.0933 14.8711 19.12C14.8445 19.1556 14.8267 19.1911 14.8 19.2356H14.7378C14.6489 19.0844 14.56 18.9333 14.4622 18.7822C14.4622 18.96 14.4622 19.1467 14.4622 19.3333H14.3467V18.5422H14.4445C14.4978 18.6222 14.5422 18.7111 14.5956 18.8C14.6489 18.8978 14.7111 18.9867 14.7645 19.0844C14.7645 19.0844 14.7645 19.0844 14.7733 19.0844C14.7733 19.0756 14.7822 19.0578 14.7911 19.0489C14.7911 19.0489 14.8 19.0311 14.8089 19.0222C14.8089 19.0222 14.8089 19.0044 14.8178 19.0044C14.8178 18.9956 14.8356 18.9778 14.8445 18.9689" fill="#1A2844"/>
<path d="M27.0399 19.0311C27.0399 18.8622 26.8888 18.7822 26.7555 18.8444C26.6932 18.8711 26.6399 18.9422 26.6488 19.0578C26.6577 19.1556 26.7466 19.2444 26.8444 19.2444C26.9599 19.2444 27.0399 19.1644 27.0399 19.0311ZM26.5777 18.8444C26.6577 18.7378 26.7732 18.7022 26.9066 18.72C26.9599 18.7289 26.9955 18.7555 27.0399 18.7911V18.48C27.0399 18.48 27.1199 18.48 27.1644 18.48C27.1644 18.7644 27.1644 19.04 27.1644 19.3244H27.0488V19.2533C27.0488 19.2533 26.9777 19.2978 26.9332 19.3156C26.7466 19.3778 26.5688 19.2711 26.5421 19.0933C26.5244 19.0133 26.5421 18.9333 26.5777 18.8533" fill="#1A2844"/>
<path d="M25.7959 19.3244V18.5333H26.3559V18.6311C26.3115 18.6311 26.2581 18.6311 26.2137 18.6311C26.1692 18.6311 26.1159 18.6311 26.0715 18.6311H25.9203V18.8622H26.3115V18.9689H25.9203V19.2178H26.3737V19.3156H25.8048L25.7959 19.3244Z" fill="#1A2844"/>
<path d="M28.3559 19.0133C28.4448 18.9244 28.5426 18.8444 28.6314 18.7556C28.6403 18.7467 28.6581 18.7378 28.667 18.72H28.8003C28.7203 18.8089 28.6403 18.8889 28.5514 18.9689C28.6403 19.0844 28.7292 19.2 28.827 19.3156H28.6848C28.6137 19.2267 28.5426 19.1378 28.4626 19.04C28.4181 19.0756 28.3826 19.1111 28.347 19.1555V19.3156H28.2314V18.48H28.347C28.347 18.48 28.347 18.5067 28.347 18.5156C28.347 18.6578 28.347 18.8 28.347 18.9511C28.347 18.9689 28.347 18.9867 28.347 19.0044" fill="#1A2844"/>
<path d="M24.2224 19.0578C24.1513 19.0578 24.0801 19.0578 24.0179 19.0578C24.0179 19.0578 24.0001 19.0578 23.9913 19.0578C23.9557 19.0667 23.9379 19.0933 23.9379 19.1289C23.9379 19.1644 23.9468 19.1911 23.9824 19.2089C24.0446 19.2444 24.1068 19.2356 24.169 19.2089C24.2224 19.1733 24.249 19.12 24.2313 19.0489M23.929 19.3155C23.929 19.3155 23.9113 19.3067 23.9024 19.2978C23.8401 19.2622 23.8135 19.2178 23.8135 19.1467C23.8135 19.0756 23.849 19.0222 23.9201 19.0044C23.9646 18.9867 24.0179 18.9867 24.0624 18.9778C24.1157 18.9778 24.1601 18.9778 24.2135 18.9778C24.2313 18.9067 24.1868 18.8356 24.1068 18.8267C24.0446 18.8178 23.9824 18.8267 23.9201 18.8533C23.9024 18.8533 23.8846 18.8711 23.8668 18.88C23.849 18.8533 23.8401 18.8267 23.8224 18.8C23.8579 18.7644 23.8935 18.7467 23.9379 18.7378C24.009 18.72 24.089 18.7111 24.1601 18.7289C24.249 18.7467 24.3113 18.8089 24.329 18.8978C24.329 18.9244 24.329 18.9422 24.329 18.9689C24.329 19.0755 24.329 19.1911 24.329 19.2978C24.329 19.2978 24.329 19.3155 24.329 19.3244H24.2224C24.2224 19.3244 24.2224 19.2889 24.2224 19.2711C24.1424 19.3333 24.0535 19.3422 23.9646 19.3333C23.9557 19.3333 23.9468 19.3333 23.929 19.3244" fill="#1A2844"/>
<path d="M29.3419 19.0667C29.2797 19.0667 29.2086 19.0667 29.1464 19.0667C29.1375 19.0667 29.1286 19.0667 29.1197 19.0667C29.0753 19.0756 29.0486 19.1111 29.0486 19.1467C29.0486 19.1822 29.0664 19.2178 29.1108 19.2355C29.1997 19.28 29.3775 19.2178 29.3419 19.0667ZM29.4575 18.8978C29.4575 18.8978 29.4575 18.9511 29.4575 18.9867C29.4575 19.0933 29.4575 19.2 29.4575 19.3067C29.4575 19.3067 29.4575 19.3244 29.4575 19.3333H29.3508C29.3508 19.3333 29.3508 19.2978 29.3508 19.28C29.3419 19.28 29.3331 19.2978 29.3153 19.2978C29.2175 19.3511 29.1197 19.36 29.0219 19.3067C28.8886 19.2355 28.9153 19.0755 29.0042 19.0133C29.0219 19.0133 29.0397 18.9956 29.0575 18.9956C29.1197 18.9956 29.1819 18.9867 29.2531 18.9778C29.2797 18.9778 29.3064 18.9778 29.3331 18.9778C29.3508 18.9067 29.3064 18.8356 29.2264 18.8267C29.1642 18.8178 29.1019 18.8267 29.0397 18.8533C29.0219 18.8533 29.0042 18.8711 28.9864 18.88C28.9686 18.8533 28.9597 18.8267 28.9419 18.7911C28.9686 18.7733 28.9953 18.7556 29.0219 18.7467C29.1108 18.7111 29.1997 18.7022 29.2886 18.72C29.3508 18.7378 29.4042 18.7733 29.4308 18.8267C29.4308 18.8444 29.4397 18.8711 29.4486 18.8889" fill="#1A2844"/>
<path d="M21.3686 19.0667C21.3064 19.0667 21.2441 19.0667 21.1819 19.0667C21.1553 19.0667 21.1375 19.0756 21.1108 19.0933C21.0753 19.12 21.0664 19.1644 21.093 19.2C21.1019 19.2178 21.1286 19.2356 21.1464 19.2444C21.2086 19.2711 21.2708 19.2622 21.3241 19.2178C21.3775 19.1822 21.3864 19.1289 21.3775 19.0667M21.0753 19.3156C21.0753 19.3156 21.0575 19.3067 21.0486 19.2978C20.9508 19.2444 20.9508 19.1733 20.9597 19.1022C20.9597 19.0489 21.0041 19.0222 21.0486 18.9956C21.0575 18.9956 21.0753 18.9956 21.0841 18.9867C21.173 18.9867 21.2619 18.9778 21.3508 18.9689C21.3686 18.8978 21.3241 18.8356 21.2441 18.8178C21.173 18.8089 21.1019 18.8178 21.0397 18.8622C21.0397 18.8622 21.0219 18.8711 21.013 18.88C20.9953 18.8533 20.9864 18.8267 20.9686 18.7911C21.0486 18.7289 21.1375 18.7111 21.2353 18.7111C21.2975 18.7111 21.3508 18.7289 21.4041 18.7644C21.4397 18.7911 21.4664 18.8267 21.4753 18.8711C21.4753 18.8889 21.4841 18.9067 21.4841 18.9244C21.4841 19.0578 21.4841 19.1822 21.4841 19.3156H21.3775C21.3775 19.3156 21.3775 19.28 21.3775 19.2622C21.3508 19.28 21.333 19.2889 21.3153 19.3067C21.2619 19.3333 21.2086 19.3333 21.1553 19.3333C21.1375 19.3333 21.1286 19.3333 21.1108 19.3333C21.1019 19.3333 21.093 19.3333 21.0753 19.3333" fill="#1A2844"/>
<path d="M18.5597 19.0578C18.4886 19.0578 18.4086 19.0489 18.3375 19.0667C18.3197 19.0667 18.293 19.0844 18.2841 19.1022C18.2486 19.1467 18.2752 19.2089 18.3375 19.2356C18.3908 19.2533 18.4352 19.2533 18.4886 19.2356C18.5508 19.2 18.5952 19.1556 18.5686 19.0667M18.2219 19.0222C18.2219 19.0222 18.2397 19.0222 18.2397 19.0133C18.2575 19.0133 18.2841 19.0044 18.3019 18.9956C18.3908 18.9956 18.4708 18.9956 18.5597 18.9867C18.5775 18.9156 18.5241 18.8444 18.453 18.8356C18.3819 18.8267 18.3197 18.8356 18.2575 18.8711C18.2486 18.8711 18.2308 18.8889 18.2219 18.8889C18.2041 18.8622 18.1952 18.8356 18.1775 18.8C18.2041 18.7733 18.2308 18.7644 18.2664 18.7467C18.3552 18.7111 18.4352 18.7022 18.5241 18.7289C18.6219 18.7556 18.6841 18.8356 18.6841 18.9422C18.6841 19.0311 18.6841 19.1289 18.6841 19.2178V19.3333H18.5775C18.5775 19.3333 18.5775 19.2978 18.5775 19.28C18.5508 19.2978 18.5241 19.3067 18.4975 19.3244C18.4352 19.3422 18.3641 19.3511 18.3019 19.3244C18.1508 19.2711 18.1419 19.1111 18.2308 19.04C18.2308 19.04 18.2308 19.04 18.2397 19.0311" fill="#1A2844"/>
<path d="M19.8046 19.0578C19.7423 19.0578 19.689 19.0578 19.6268 19.0578C19.609 19.0578 19.6001 19.0578 19.5823 19.0578C19.5379 19.0667 19.5112 19.1022 19.5112 19.1378C19.5112 19.1733 19.5379 19.2089 19.5735 19.2267C19.6357 19.2444 19.6979 19.2444 19.7512 19.2C19.8046 19.1644 19.8223 19.1111 19.8046 19.0489M19.4935 19.3156C19.4935 19.3156 19.4846 19.3156 19.4757 19.3067C19.369 19.2533 19.369 19.0844 19.4668 19.0222C19.4668 19.0222 19.4757 19.0222 19.4846 19.0133C19.5023 19.0133 19.529 19.0044 19.5468 18.9956C19.6357 18.9956 19.7157 18.9956 19.8046 18.9867C19.8135 18.9156 19.769 18.8444 19.6979 18.8356C19.6268 18.8267 19.5646 18.8356 19.5023 18.8711C19.4935 18.8711 19.4757 18.8889 19.4579 18.8978C19.4401 18.8711 19.4312 18.8444 19.4135 18.8178C19.4312 18.7911 19.4579 18.7822 19.4846 18.7733C19.5735 18.7378 19.6623 18.72 19.7601 18.7467C19.8401 18.7644 19.9023 18.8178 19.9201 18.9067C19.9201 18.9156 19.9201 18.9333 19.9201 18.9422C19.9201 19.0756 19.9201 19.2089 19.9201 19.3422H19.8135C19.8135 19.3422 19.8135 19.3067 19.8135 19.2889C19.7335 19.3511 19.6446 19.36 19.5557 19.3422C19.5379 19.3422 19.5201 19.3333 19.5023 19.3244" fill="#1A2844"/>
<path d="M23.0846 19.3244H22.9691C22.9691 19.3244 22.9691 19.2978 22.9691 19.2889C22.9691 19.1911 22.9691 19.0844 22.9691 18.9867C22.9691 18.96 22.9691 18.9333 22.9602 18.9156C22.9424 18.8622 22.8979 18.8267 22.8357 18.8267C22.7113 18.8178 22.6313 18.8889 22.6224 19.0133C22.6224 19.1022 22.6224 19.1911 22.6224 19.28V19.3244H22.5068V18.7289H22.6135V18.8C22.6135 18.8 22.6402 18.7822 22.6491 18.7733C22.7379 18.7111 22.8357 18.7022 22.9335 18.7289C23.0313 18.7644 23.0757 18.8444 23.0846 18.9422C23.0846 19.0222 23.0846 19.1111 23.0846 19.1911C23.0846 19.2356 23.0846 19.2711 23.0846 19.3244Z" fill="#1A2844"/>
<path d="M15.5913 19.3067C15.538 19.28 15.5025 19.2444 15.4758 19.1822C15.4758 19.1378 15.4669 19.1022 15.458 19.0578C15.458 18.96 15.458 18.8533 15.458 18.7556C15.458 18.7556 15.458 18.7378 15.458 18.7289H15.5736V18.7822C15.5736 18.8711 15.5736 18.96 15.5736 19.0489C15.5736 19.0844 15.5736 19.1111 15.5913 19.1467C15.6091 19.1911 15.6447 19.2178 15.6891 19.2267C15.7958 19.2533 15.9025 19.2 15.9113 19.0667C15.9113 19.0489 15.9113 19.0311 15.9113 19.0133C15.9113 18.9333 15.9113 18.8533 15.9113 18.7733C15.9113 18.7556 15.9113 18.7378 15.9113 18.7289C15.9558 18.7289 15.9913 18.7289 16.0269 18.7289C16.0269 18.7289 16.0269 18.7289 16.0269 18.7378V19.3244H15.9202V19.2533C15.8491 19.3244 15.7513 19.3422 15.6536 19.3244C15.6358 19.3244 15.618 19.3156 15.5913 19.3067Z" fill="#1A2844"/>
<path d="M25.0224 18.8889C24.969 18.8267 24.8979 18.8089 24.8268 18.8356C24.7557 18.8622 24.7113 18.9244 24.7113 18.9956C24.7113 19.1022 24.7113 19.2178 24.7113 19.3333C24.6757 19.3333 24.6401 19.3333 24.5957 19.3333V18.7378H24.7024C24.7024 18.7378 24.7024 18.7822 24.7024 18.8089C24.7113 18.8089 24.7201 18.8 24.729 18.7911C24.809 18.72 24.9601 18.7022 25.0579 18.7644C25.1201 18.8 25.1557 18.8622 25.1646 18.9422C25.1646 18.9956 25.1646 19.0489 25.1646 19.1022C25.1646 19.1822 25.1646 19.2622 25.1646 19.3422H25.049C25.049 19.3422 25.049 19.28 25.049 19.2444C25.049 19.1644 25.049 19.0933 25.049 19.0133C25.049 18.9867 25.049 18.96 25.049 18.9244C25.049 18.9156 25.0401 18.9067 25.0313 18.8889" fill="#1A2844"/>
<path d="M20.622 18.8978C20.5864 18.8267 20.5153 18.8178 20.4442 18.8267C20.3731 18.8356 20.3198 18.8889 20.302 18.96C20.302 18.9778 20.302 19.0044 20.302 19.0222C20.302 19.12 20.302 19.2267 20.302 19.3244H20.1953V18.7289H20.2931C20.2931 18.7289 20.2931 18.7733 20.2931 18.8C20.302 18.8 20.3109 18.7911 20.3198 18.7822C20.3998 18.72 20.4886 18.7111 20.5864 18.7289C20.6664 18.7467 20.7198 18.8 20.7375 18.88C20.7375 18.9067 20.7553 18.9422 20.7553 18.9689C20.7553 19.0844 20.7553 19.1911 20.7553 19.3067C20.7553 19.3067 20.7553 19.3155 20.7553 19.3244H20.6398C20.6398 19.2444 20.6398 19.1644 20.6398 19.0844C20.6398 19.0311 20.6398 18.9867 20.6398 18.9333C20.6398 18.9244 20.6398 18.9067 20.6309 18.8978" fill="#1A2844"/>
<path d="M27.5376 19.3067C27.4399 19.2533 27.4043 19.1644 27.4043 19.0667C27.4043 18.9689 27.4043 18.8711 27.4043 18.7822V18.7289H27.5199C27.5199 18.8178 27.5199 18.9067 27.5199 18.9867C27.5199 19.0222 27.5199 19.0489 27.5199 19.0844C27.5199 19.1644 27.5732 19.2178 27.6354 19.2267C27.7154 19.2444 27.8043 19.2178 27.8399 19.1467C27.8399 19.1378 27.8487 19.12 27.8576 19.1022C27.8576 19.0756 27.8576 19.0489 27.8576 19.0222C27.8576 18.9422 27.8576 18.8622 27.8576 18.7822V18.7289H27.9643V19.3244H27.8665C27.8665 19.3244 27.8665 19.28 27.8576 19.2622C27.8576 19.2622 27.7954 19.2978 27.7687 19.3244C27.7687 19.3244 27.7687 19.3244 27.7599 19.3244C27.7065 19.3422 27.6532 19.3422 27.591 19.3244C27.5732 19.3244 27.5554 19.3156 27.5287 19.3067" fill="#1A2844"/>
<path d="M17.502 19.2711C17.502 19.2711 17.5286 19.2089 17.5464 19.1733C17.5553 19.1733 17.5642 19.1733 17.5731 19.1822C17.6353 19.2267 17.7153 19.2356 17.7864 19.2267C17.8131 19.2267 17.8397 19.2178 17.8664 19.2C17.9108 19.1733 17.9108 19.12 17.8664 19.0933C17.8486 19.0844 17.822 19.0756 17.7953 19.0667C17.742 19.0578 17.6886 19.0489 17.6442 19.0311C17.5731 19.0133 17.5286 18.9689 17.5286 18.8978C17.5286 18.8267 17.5553 18.7733 17.6175 18.7378C17.6886 18.7022 17.7597 18.6933 17.8397 18.7022C17.8931 18.7022 17.9553 18.72 18.0086 18.7556C17.9908 18.7911 17.9731 18.8178 17.9642 18.8533C17.9108 18.8267 17.8664 18.8089 17.8131 18.8089C17.7686 18.8089 17.7331 18.8089 17.6886 18.8356C17.6353 18.8622 17.6353 18.9244 17.6886 18.9511C17.7153 18.9689 17.7508 18.9689 17.7864 18.9778C17.8131 18.9778 17.8486 18.9867 17.8753 18.9956C17.902 18.9956 17.9197 19.0044 17.9464 19.0222C18.0531 19.0756 18.062 19.2089 17.9642 19.28C17.9286 19.3067 17.8931 19.3244 17.8575 19.3244C17.7686 19.3422 17.6797 19.3333 17.5997 19.3067C17.5731 19.2978 17.5553 19.28 17.5197 19.2711" fill="#1A2844"/>
<path d="M23.3507 18.8267C23.3507 18.8267 23.2796 18.8267 23.2529 18.8267V18.7378C23.2529 18.7378 23.3152 18.7378 23.3507 18.7378V18.6133C23.3507 18.6133 23.4218 18.6133 23.4663 18.6133V18.7289C23.5196 18.7378 23.5818 18.7289 23.6352 18.7378V18.8267H23.4663V18.9778C23.4663 19.0311 23.4663 19.0844 23.4663 19.1378C23.4663 19.2444 23.5552 19.2622 23.6174 19.2267C23.6174 19.2267 23.6352 19.2178 23.644 19.2089C23.6529 19.2356 23.6707 19.2622 23.6796 19.2889C23.6707 19.2889 23.6618 19.3067 23.6529 19.3067C23.5907 19.3333 23.5285 19.3422 23.4663 19.3156C23.3863 19.2889 23.3596 19.2267 23.3507 19.1556C23.3507 19.0933 23.3507 19.04 23.3507 18.9778C23.3507 18.9244 23.3507 18.88 23.3507 18.8178" fill="#1A2844"/>
<path d="M16.969 19.3244C16.9157 19.3422 16.8535 19.3422 16.8001 19.3244C16.729 19.2889 16.7024 19.2267 16.7024 19.1556C16.7024 19.0667 16.7024 18.9778 16.7024 18.8889V18.8267C16.7024 18.8267 16.6313 18.8267 16.5957 18.8267V18.7378C16.5957 18.7378 16.6579 18.7378 16.6935 18.7378V18.6133C16.6935 18.6133 16.7646 18.6133 16.809 18.6133V18.7378H16.9779C16.9779 18.7378 16.9779 18.8 16.9779 18.8356H16.8001C16.8001 18.8356 16.8001 18.8622 16.8001 18.8711C16.8001 18.96 16.8001 19.0578 16.8001 19.1467C16.8001 19.2444 16.8801 19.28 16.9513 19.2444C16.9601 19.2444 16.969 19.2356 16.9868 19.2267C16.9868 19.2444 17.0046 19.2622 17.0135 19.28C17.0135 19.2978 17.0135 19.3156 16.9957 19.3244C16.9957 19.3244 16.9779 19.3244 16.969 19.3333" fill="#1A2844"/>
<path d="M16.4085 18.4889H16.293V19.3244H16.4085V18.4889Z" fill="#1A2844"/>
<path d="M22.1152 18.5333H22.2219V19.3156C22.2219 19.3156 22.1597 19.3244 22.1152 19.3156V18.5244V18.5333Z" fill="#1A2844"/>
<path d="M19.2623 18.72V18.8178C19.2623 18.8178 19.2267 18.8178 19.209 18.8267C19.1201 18.8444 19.0756 18.8889 19.0578 18.9778C19.0578 19.0044 19.0578 19.0222 19.0578 19.0489C19.0578 19.1378 19.0578 19.2267 19.0578 19.3244H18.9512V18.7289H19.049C19.049 18.7289 19.049 18.7733 19.049 18.8089C19.1112 18.7467 19.1734 18.72 19.2623 18.72Z" fill="#1A2844"/>
<path d="M17.3158 18.7289H17.2002V19.3244H17.3158V18.7289Z" fill="#1A2844"/>
<path d="M17.3328 18.5422C17.3328 18.5422 17.2972 18.6133 17.2616 18.6133C17.2172 18.6133 17.1905 18.5867 17.1816 18.5422C17.1816 18.4978 17.2172 18.4711 17.2528 18.4711C17.2972 18.4711 17.3328 18.4978 17.3328 18.5422Z" fill="#1A2844"/>
<path d="M28.8351 15.52C28.8351 15.52 28.8528 15.52 28.8617 15.52C28.924 15.5467 28.9862 15.5644 29.0395 15.5911C29.0128 15.5822 28.9862 15.5733 28.9506 15.5644C28.9062 15.5467 28.8706 15.5378 28.8262 15.52" fill="#DDB846"/>
<path d="M29.0039 13.3333C29.0039 13.3333 29.0483 13.3333 29.075 13.3333C29.1106 13.3422 29.1461 13.36 29.1817 13.3778C29.1195 13.36 29.0661 13.3422 29.0039 13.3244" fill="#DDB846"/>
<path d="M24.7288 17.2355C24.7288 17.2978 24.7288 17.36 24.7021 17.4222C24.711 17.36 24.7199 17.2978 24.7288 17.2355Z" fill="#DDB846"/>
<path d="M23.7334 17.0489C23.7512 16.9956 23.769 16.9333 23.7867 16.88C23.7867 16.9422 23.7601 16.9956 23.7334 17.0489Z" fill="#DDB846"/>
<path d="M17.4131 17.5911C17.4398 17.5378 17.4575 17.4756 17.4842 17.4222C17.4664 17.4667 17.4486 17.52 17.4309 17.5644C17.4309 17.5733 17.422 17.5822 17.4131 17.5911Z" fill="#DDB846"/>
<path d="M21.5195 13.7511C21.5195 13.6889 21.5462 13.6356 21.5729 13.5911C21.5729 13.6089 21.564 13.6267 21.5551 13.6533C21.5462 13.6889 21.5284 13.7244 21.5195 13.76" fill="#DDB846"/>
<path d="M14.5244 13.1378C14.5422 13.1911 14.56 13.2444 14.56 13.3067C14.56 13.2711 14.5422 13.2355 14.5333 13.1911C14.5333 13.1733 14.5333 13.1555 14.5244 13.1378Z" fill="#DDB846"/>
<path d="M14.5599 17.28C14.5599 17.3333 14.551 17.3867 14.5332 17.44C14.5421 17.3867 14.551 17.3333 14.5599 17.28Z" fill="#DDB846"/>
<path d="M18.3379 15.4844C18.3379 15.4844 18.3468 15.4489 18.3557 15.4311C18.3646 15.4044 18.3823 15.3778 18.4001 15.3511C18.3823 15.3956 18.3646 15.44 18.3468 15.4844" fill="#DDB846"/>
<path d="M18.6758 14.7556C18.6758 14.7556 18.7113 14.6756 18.7291 14.6311C18.7113 14.6756 18.6936 14.7111 18.6758 14.7556Z" fill="#DDB846"/>
<path d="M28.9329 14.8889C28.9329 14.8889 28.8618 14.9244 28.8174 14.9244C28.8529 14.9156 28.8974 14.9067 28.9329 14.8889Z" fill="#DDB846"/>
<path d="M20.791 17.7333C20.791 17.7333 20.871 17.7689 20.9155 17.7867C20.871 17.7867 20.8266 17.76 20.791 17.7333Z" fill="#DDB846"/>
<path d="M16.1686 14.4444C16.1686 14.4444 16.133 14.3733 16.1152 14.3378C16.133 14.3733 16.1508 14.4089 16.1686 14.4444Z" fill="#DDB846"/>
<path d="M21.8488 12.6844C21.8488 12.6844 21.7865 12.7022 21.751 12.7022C21.7865 12.7022 21.8132 12.6844 21.8488 12.6844Z" fill="#DDB846"/>
<path d="M14.8711 19.1111C14.8711 19.1111 14.9067 19.0489 14.9155 19.0222C14.8978 19.0489 14.88 19.0844 14.8711 19.1111Z" fill="#DDB846"/>
<path d="M16.5064 15.12C16.5064 15.12 16.4708 15.0578 16.4619 15.0222C16.4797 15.0578 16.4975 15.0844 16.5064 15.12Z" fill="#DDB846"/>
<path d="M17.0933 16.2933C17.0933 16.2933 17.0666 16.2311 17.0488 16.2044C17.0666 16.2311 17.0755 16.2667 17.0933 16.2933Z" fill="#DDB846"/>
<path d="M18.0713 16.0622C18.0713 16.0622 18.098 16.0089 18.1068 15.9733C18.1068 16.0089 18.0891 16.0356 18.0713 16.0622Z" fill="#DDB846"/>
<path d="M18.4092 15.3156C18.4092 15.3156 18.4358 15.2533 18.4447 15.2267C18.4358 15.2533 18.4181 15.2889 18.4092 15.3156Z" fill="#DDB846"/>
<path d="M24.6934 13.1467C24.6934 13.1467 24.7111 13.2089 24.7111 13.2356C24.7111 13.2089 24.6934 13.1733 24.6934 13.1467Z" fill="#DDB846"/>
<path d="M18.0618 14.5956C18.0618 14.5956 18.044 14.64 18.0352 14.6667C18.044 14.64 18.0529 14.6222 18.0618 14.5956Z" fill="#DDB846"/>
<path d="M23.7689 16.0444C23.7689 16.0444 23.7511 15.9911 23.7422 15.9644C23.7511 15.9911 23.76 16.0178 23.7689 16.0444Z" fill="#DDB846"/>
<path d="M18.3025 18.9867C18.3025 18.9867 18.258 18.9956 18.2402 19.0044C18.258 18.9867 18.2758 18.9867 18.3025 18.9867Z" fill="#DDB846"/>
<path d="M21.5735 14.1156C21.5735 14.1156 21.5558 14.0711 21.5469 14.0533C21.5558 14.0711 21.5647 14.0978 21.5735 14.1156Z" fill="#DDB846"/>
<path d="M15.5908 19.3067C15.5908 19.3067 15.6264 19.3156 15.653 19.3244C15.6264 19.3244 15.6086 19.3244 15.5908 19.3067Z" fill="#DDB846"/>
<path d="M19.4932 19.3156C19.4932 19.3156 19.5287 19.3244 19.5465 19.3333C19.5287 19.3333 19.5109 19.3333 19.4932 19.3156Z" fill="#DDB846"/>
<path d="M19.5466 18.9867C19.5466 18.9867 19.5022 18.9956 19.4844 19.0044C19.5022 18.9867 19.5199 18.9867 19.5466 18.9867Z" fill="#DDB846"/>
<path d="M27.5381 19.3067C27.5381 19.3067 27.5736 19.3156 27.6003 19.3244C27.5825 19.3244 27.5648 19.3156 27.5381 19.3067Z" fill="#DDB846"/>
<path d="M29.4572 18.8978C29.4572 18.8978 29.4483 18.8533 29.4395 18.8356C29.4395 18.8533 29.4483 18.88 29.4572 18.8978Z" fill="#DDB846"/>
<path d="M29.067 18.9956C29.067 18.9956 29.0314 19.0133 29.0137 19.0133C29.0314 18.9956 29.0403 18.9867 29.067 18.9956Z" fill="#DDB846"/>
<path d="M17.4133 16.0356C17.4133 16.0356 17.3955 16.0711 17.3955 16.0889C17.3955 16.0711 17.4133 16.0533 17.4133 16.0356Z" fill="#DDB846"/>
<path d="M28.7906 14.9244C28.7906 14.9244 28.7551 14.9422 28.7373 14.9244C28.7551 14.9244 28.7729 14.9244 28.7906 14.9244Z" fill="#DDB846"/>
<path d="M15.1816 14.4V14.3644C15.1816 14.3644 15.1994 14.3822 15.1994 14.4C15.1994 14.4 15.1905 14.4 15.1816 14.4Z" fill="#DDB846"/>
<path d="M17.7061 16.9067C17.7061 16.9067 17.7061 16.8711 17.7238 16.8622C17.7238 16.88 17.7149 16.8889 17.7061 16.9067Z" fill="#DDB846"/>
<path d="M23.0752 13.3156C23.0752 13.3156 23.1019 13.3333 23.1196 13.3333C23.1019 13.3333 23.093 13.3156 23.0752 13.3156Z" fill="#DDB846"/>
<path d="M20.6221 18.8978C20.6221 18.8978 20.6221 18.9244 20.631 18.9333C20.631 18.9244 20.631 18.9067 20.6221 18.8978Z" fill="#DDB846"/>
<path d="M18.3645 13.9289C18.3645 13.9289 18.3556 13.9556 18.3467 13.9644C18.3467 13.9556 18.3556 13.9378 18.3645 13.9289Z" fill="#DDB846"/>
<path d="M21.0932 18.9956C21.0932 18.9956 21.0665 18.9956 21.0576 19.0044C21.0665 19.0044 21.0843 19.0044 21.0932 18.9956Z" fill="#DDB846"/>
<path d="M25.0225 18.8889C25.0225 18.8889 25.0314 18.9067 25.0402 18.9244C25.0402 18.9156 25.0313 18.9067 25.0225 18.8889Z" fill="#DDB846"/>
<path d="M24.6935 17.4489C24.6935 17.4489 24.6935 17.4667 24.6846 17.4844C24.6846 17.4756 24.6846 17.4667 24.6935 17.4489Z" fill="#DDB846"/>
<path d="M14.5245 17.4667C14.5245 17.4667 14.5245 17.4933 14.5156 17.5022C14.5156 17.4933 14.5156 17.4756 14.5245 17.4667Z" fill="#DDB846"/>
<path d="M23.9287 19.3156C23.9287 19.3156 23.9465 19.3156 23.9643 19.3244C23.9554 19.3244 23.9465 19.3244 23.9287 19.3156Z" fill="#DDB846"/>
<path d="M17.7149 15.3511C17.7149 15.3511 17.7149 15.3689 17.7061 15.3778C17.7061 15.3778 17.7061 15.36 17.7149 15.3511Z" fill="#DDB846"/>
<path d="M15.7862 13.7333C15.7862 13.7333 15.7862 13.7156 15.7773 13.7067C15.7773 13.7067 15.7773 13.7244 15.7862 13.7333Z" fill="#DDB846"/>
<path d="M16.7999 15.6978C16.7999 15.6978 16.7999 15.68 16.791 15.6711C16.791 15.68 16.791 15.6889 16.7999 15.6978Z" fill="#DDB846"/>
<path d="M16.9688 19.3244C16.9688 19.3244 16.9865 19.3244 16.9954 19.3156C16.9954 19.3156 16.9776 19.3156 16.9688 19.3244Z" fill="#DDB846"/>
<path d="M16.4444 14.9956C16.4444 14.9956 16.4444 14.9778 16.4355 14.9689C16.4355 14.9689 16.4355 14.9867 16.4444 14.9956Z" fill="#DDB846"/>
<path d="M15.5559 13.3067C15.5559 13.3067 15.547 13.2889 15.5381 13.28C15.5381 13.28 15.547 13.2978 15.5559 13.3067Z" fill="#DDB846"/>
<path d="M25.6709 12.8533C25.6709 12.8533 25.6798 12.8356 25.6887 12.8267C25.6887 12.8356 25.6798 12.8444 25.6709 12.8533Z" fill="#DDB846"/>
<path d="M18.6759 13.2711C18.6759 13.2711 18.6759 13.2889 18.667 13.2978C18.667 13.2889 18.667 13.28 18.6759 13.2711Z" fill="#DDB846"/>
<path d="M14.8176 19.0133C14.8176 19.0133 14.8087 19.0311 14.7998 19.04C14.7998 19.04 14.8087 19.0222 14.8176 19.0133Z" fill="#DDB846"/>
<path d="M26.6222 17.6444C26.6222 17.6444 26.6222 17.6622 26.6133 17.6711C26.6133 17.6711 26.6133 17.6533 26.6222 17.6444Z" fill="#DDB846"/>
<path d="M29.458 13.6178C29.458 13.6178 29.4669 13.6178 29.4758 13.6178V13.6444C29.4758 13.6444 29.4669 13.6267 29.458 13.6178Z" fill="#DDB846"/>
<path d="M29.4758 16.9511C29.4758 16.9511 29.4669 16.9511 29.458 16.9511C29.458 16.9511 29.458 16.9422 29.4669 16.9333C29.4669 16.9422 29.4669 16.9511 29.4669 16.96" fill="#DDB846"/>
</g>
</g>
<defs>
<clipPath id="clip0_2737_122624">
<rect width="32" height="32" fill="white"/>
</clipPath>
</defs>
</svg>
