<svg width="32" height="32" viewBox="0 0 32 32" fill="none" xmlns="http://www.w3.org/2000/svg">
<g clip-path="url(#clip0_2737_122741)">
<mask id="mask0_2737_122741" style="mask-type:luminance" maskUnits="userSpaceOnUse" x="0" y="0" width="32" height="32">
<path d="M31.9909 0.0177765H0.0175781V31.9911H31.9909V0.0177765Z" fill="white"/>
</mask>
<g mask="url(#mask0_2737_122741)">
<path d="M15.9998 31.9822C24.8265 31.9822 31.982 24.8267 31.982 16C31.982 7.17326 24.8265 0.0177765 15.9998 0.0177765C7.17306 0.0177765 0.0175781 7.17326 0.0175781 16C0.0175781 24.8267 7.17306 31.9822 15.9998 31.9822Z" fill="white"/>
<path fill-rule="evenodd" clip-rule="evenodd" d="M15.7772 17.3778C14.8795 17.3511 14.0172 17.1911 13.1817 16.8622C12.8084 16.7111 12.4617 16.5156 12.1239 16.2933C11.7861 16.0711 11.5106 15.7867 11.2528 15.4844C10.9684 15.1378 10.7995 14.7467 10.7195 14.3111C10.595 13.6356 10.7372 13.0133 11.1195 12.4533C11.3772 12.0711 11.7061 11.7422 12.0884 11.4667C12.7106 11.0311 13.395 10.7644 14.1239 10.5778C14.5772 10.4622 15.0306 10.4 15.5017 10.4089C15.8484 10.4089 16.1861 10.3911 16.5328 10.4267C17.1639 10.48 17.7772 10.64 18.3639 10.88C18.8172 11.0667 19.235 11.2889 19.6261 11.5911C20.115 11.9644 20.4884 12.4178 20.7195 12.9867C20.9772 13.6267 20.9506 14.2667 20.675 14.8978C20.4528 15.3956 20.115 15.8044 19.6884 16.1333C19.3061 16.4267 18.8972 16.6844 18.435 16.8533C17.9461 17.04 17.4484 17.2 16.9328 17.28C16.5595 17.3422 16.1684 17.36 15.7861 17.3956L15.7772 17.3778ZM12.9861 15.5111C12.9861 15.5111 13.0039 15.4844 13.0128 15.4756C13.0039 15.4844 12.9861 15.4933 12.9772 15.5022L12.9861 15.5111ZM17.9372 15.5022C17.8039 15.3333 17.6795 15.1733 17.555 15.0133C17.6617 14.8533 17.7506 14.7111 17.8572 14.5333C17.8839 14.5778 17.8928 14.6045 17.9106 14.6222C18.0795 14.8267 18.2395 15.0311 18.4084 15.2267C18.4528 15.28 18.5061 15.3067 18.5595 15.3511C18.595 15.44 18.675 15.4844 18.7461 15.5289L18.7728 15.5022L18.5861 15.3244C18.4795 15.1733 18.3639 15.0222 18.2572 14.8711C18.1417 14.7022 18.0439 14.5333 17.9461 14.3822C18.0439 14.1511 18.1328 13.9556 18.2306 13.7511C18.2661 13.84 18.2928 13.9022 18.3195 13.9733C18.3639 14.0889 18.4084 14.2133 18.4617 14.3289C18.6128 14.6667 18.8439 14.9422 19.075 15.2267C19.1728 15.3422 19.2617 15.4667 19.4128 15.5111C19.0039 15.0756 18.7195 14.56 18.5328 14C18.4528 13.7422 18.3995 13.4667 18.3372 13.2C18.3195 13.1289 18.3372 13.0489 18.2306 13.0311C18.1239 13.0667 18.115 13.1733 18.0884 13.2622C18.0706 13.3511 18.0617 13.44 18.035 13.52C17.9728 13.7244 17.9461 13.9467 17.8128 14.1511C17.5906 13.5822 17.4128 13.0222 17.3061 12.4356C17.2884 12.3378 17.2617 12.24 17.1372 12.2044C17.0395 12.2578 16.995 12.3378 16.9772 12.4444C16.9595 12.5867 16.9328 12.7378 16.8972 12.88C16.835 13.1111 16.7817 13.3511 16.6572 13.6178C16.5417 13.3067 16.4172 13.0489 16.3372 12.7733C16.2306 12.3822 16.1595 11.9911 16.0706 11.6C16.0439 11.4933 16.0439 11.3689 15.9195 11.2889H15.7772C15.6884 11.3778 15.6528 11.4933 15.635 11.6089C15.6172 11.7422 15.6084 11.8756 15.5728 12.0089C15.4572 12.5156 15.2884 13.0044 15.0839 13.4756C15.0661 13.52 15.0395 13.5556 15.0039 13.6178C14.9772 13.5289 14.9595 13.4667 14.9417 13.4044C14.8617 13.0756 14.7817 12.7378 14.7106 12.4089C14.6928 12.32 14.6572 12.24 14.5595 12.2222C14.4261 12.3111 14.4172 12.3378 14.3817 12.4978C14.2839 13.0222 14.1506 13.5289 13.9284 14.0178C13.9106 14.0622 13.875 14.1067 13.8395 14.1689C13.8217 14.1333 13.8128 14.1156 13.8128 14.1067C13.7328 13.8044 13.6528 13.5022 13.5728 13.1911C13.555 13.1289 13.555 13.0667 13.475 13.0489C13.3506 13.1022 13.3506 13.2178 13.3328 13.3156C13.1906 14.0178 12.915 14.6578 12.5061 15.2444C12.4528 15.3156 12.4084 15.3867 12.355 15.4578C12.435 15.4844 12.4617 15.4045 12.5061 15.36C12.8617 15.0133 13.0928 14.5867 13.315 14.1511C13.3417 14.0978 13.3595 14.0444 13.3861 13.9911C13.4128 13.92 13.4395 13.8489 13.4661 13.7689C13.5461 13.9822 13.6261 14.1867 13.715 14.4267C13.6084 14.5956 13.4928 14.8 13.3684 14.9956C13.2528 15.1645 13.1284 15.3245 13.0039 15.4933C13.0572 15.4667 13.1195 15.44 13.155 15.3956C13.3861 15.1378 13.6084 14.88 13.8395 14.6222C13.9461 14.7645 14.0528 14.9244 14.1684 15.0844C14.035 15.2444 13.9017 15.4044 13.7772 15.5556C13.7861 15.5644 13.795 15.5733 13.8039 15.5822C13.955 15.4489 14.0972 15.3244 14.2572 15.1822C14.3461 15.28 14.4439 15.3778 14.5328 15.4756C14.5506 15.4756 14.5684 15.4756 14.5861 15.4667C14.4884 15.3511 14.3995 15.2267 14.3106 15.12C14.5506 14.8178 14.7728 14.5333 14.995 14.2489C15.2528 14.5867 15.5017 14.9156 15.7506 15.2533C15.715 15.2978 15.6884 15.3422 15.6528 15.3867C15.6706 15.4044 15.6884 15.4133 15.7061 15.4311C15.7506 15.3956 15.795 15.36 15.8217 15.3422C15.9461 15.4133 16.0439 15.4756 16.1506 15.5378C16.0706 15.44 15.9995 15.3422 15.9284 15.2622C16.1861 14.9067 16.4261 14.5689 16.6661 14.2311C16.8884 14.5156 17.1106 14.8 17.3417 15.0933C17.3061 15.1467 17.2617 15.2089 17.2261 15.2622C17.1728 15.3422 17.1106 15.4133 17.0572 15.4933C17.1017 15.4756 17.1461 15.4578 17.1817 15.4222C17.2706 15.3333 17.3595 15.2444 17.4306 15.1644C17.5906 15.2978 17.7506 15.4311 17.9106 15.5556L17.9195 15.5467L17.9372 15.5022ZM16.5328 13.9556C16.3461 14.3289 16.1772 14.7378 15.8572 15.0933C15.555 14.7556 15.3684 14.3467 15.1817 13.9733C15.4217 13.4578 15.6439 12.9689 15.8661 12.4889C16.0795 12.96 16.2928 13.44 16.5328 13.9556ZM14.2572 14.96C14.1506 14.7467 14.0528 14.5689 13.9817 14.4178C14.1861 13.9822 14.3817 13.5733 14.5772 13.1467C14.6839 13.4044 14.7906 13.6444 14.9061 13.92C14.7017 14.2489 14.4884 14.5867 14.2572 14.96ZM17.7239 14.3911C17.6528 14.56 17.5995 14.7556 17.4484 14.9067C17.1817 14.6044 16.995 14.2667 16.8261 13.9111C16.9239 13.6622 17.0306 13.4133 17.1372 13.1556C17.3328 13.5645 17.5195 13.9733 17.7239 14.3911ZM12.3728 15.4222L6.32836 18.5778H6.6128V19.9733H6.42614V18.9867C6.42614 18.9867 6.39947 18.9867 6.39058 18.9867C6.28392 19.3156 6.17725 19.6444 6.06169 19.9822C6.01725 19.9822 5.96391 19.9822 5.91058 19.9822C5.80392 19.6533 5.69725 19.3422 5.59947 19.0222C5.52836 19.12 5.54614 19.2178 5.54614 19.3156C5.54614 19.4222 5.54614 19.5289 5.54614 19.6356C5.54614 19.7422 5.54614 19.8489 5.54614 19.9644C5.47503 19.9644 5.42169 19.9644 5.35058 19.9733V18.5689H5.6528C5.75947 18.9067 5.87503 19.2533 5.99947 19.6356C6.11503 19.2622 6.22169 18.9244 6.32836 18.5689L12.3728 15.4222ZM15.9017 18.5778H16.0972V19.9644C16.0261 19.9644 15.9639 19.9644 15.8839 19.9733C15.7061 19.6356 15.5284 19.3067 15.3506 18.9689H15.3061V19.9556H15.1106V18.5689C15.1817 18.5689 15.2439 18.5689 15.3061 18.56C15.5639 18.8533 15.635 19.2356 15.9017 19.5645V18.5689V18.5778ZM17.8039 19.5289V18.5778H17.9995V19.9644C17.9284 19.9644 17.8661 19.9733 17.795 19.9822C17.6172 19.6444 17.4306 19.3156 17.2528 18.9778C17.235 18.9778 17.2261 18.9778 17.2084 18.9778C17.1995 19.2978 17.2084 19.6178 17.1995 19.9556C17.1372 19.9556 17.0839 19.9556 17.0128 19.9644V18.5689H17.2439C17.4128 18.88 17.5906 19.2 17.7595 19.52C17.7772 19.52 17.795 19.52 17.8039 19.52V19.5289ZM18.3461 18.5689C18.5239 18.5689 18.6928 18.5689 18.8617 18.5689C19.0661 18.5689 19.2084 18.6844 19.2884 18.8533C19.4128 19.1289 19.4128 19.4133 19.2795 19.6889C19.1906 19.8756 19.0395 19.9733 18.8261 19.9733C18.675 19.9733 18.515 19.9733 18.3461 19.9733V18.56V18.5689ZM18.9506 18.7733C18.8084 18.7733 18.675 18.6933 18.5239 18.7733C18.5239 19.1111 18.5239 19.44 18.5239 19.7778C18.6217 19.7778 18.6839 19.7778 18.755 19.7778C18.995 19.7778 19.1106 19.6622 19.1372 19.4222C19.1461 19.3244 19.1372 19.2178 19.1372 19.12C19.1372 18.9778 19.075 18.8622 18.9417 18.7645L18.9506 18.7733ZM20.6839 19.2533C20.6839 19.5022 20.6306 19.7067 20.4528 19.8667C20.2128 20.0889 19.875 20.0444 19.6884 19.7867C19.4484 19.4578 19.5017 18.9244 19.7328 18.6845C19.9284 18.4889 20.2306 18.4711 20.4439 18.6578C20.6306 18.8178 20.7017 19.0311 20.6839 19.2533ZM20.4884 19.2622C20.4706 19.1644 20.4528 19.0667 20.435 18.9689C20.3995 18.8356 20.3284 18.7378 20.1772 18.72C20.0173 18.7022 19.875 18.7378 19.8039 18.8978C19.6884 19.1556 19.6884 19.4222 19.8306 19.6622C19.9017 19.7778 20.0172 19.8222 20.1417 19.8045C20.275 19.7867 20.3817 19.7156 20.4261 19.5733C20.4528 19.4756 20.4706 19.36 20.4884 19.2533V19.2622ZM13.7595 18.5778H13.9728C13.9728 18.6578 13.9817 18.7289 13.9817 18.8C13.9817 19.04 13.9817 19.2711 13.9817 19.5111C13.9817 19.6267 14.0261 19.7156 14.1506 19.7867H14.3995C14.5328 19.6889 14.5595 19.5645 14.5595 19.4222C14.5595 19.1467 14.5595 18.8711 14.5595 18.5867H14.7461C14.7461 18.5867 14.7639 18.6222 14.7639 18.64C14.7639 18.9333 14.7639 19.2178 14.7639 19.5111C14.7639 19.8045 14.5861 19.9911 14.2928 20.0178C14.035 20.0444 13.8395 19.8844 13.7684 19.6089C13.7595 19.5644 13.7506 19.52 13.7506 19.4667C13.7506 19.1733 13.7506 18.8889 13.7506 18.5778H13.7595ZM11.3328 19.5822C11.3861 19.5645 11.4306 19.5467 11.4839 19.5289C11.5017 19.5556 11.5195 19.5645 11.5195 19.5822C11.5461 19.7156 11.635 19.7689 11.7595 19.7956C11.875 19.8222 11.9728 19.7956 12.0528 19.7156C12.1239 19.6267 12.1239 19.5289 12.0528 19.4222C11.9639 19.3956 11.8661 19.3689 11.7595 19.3333C11.4217 19.2267 11.3595 19.1467 11.3861 18.8C11.475 18.5867 11.6528 18.4978 11.875 18.5244C12.0528 18.5422 12.2039 18.6133 12.2395 18.8356C12.195 18.8622 12.1417 18.88 12.0884 18.9067C11.9372 18.6845 11.7772 18.6578 11.5728 18.8089V18.9956C11.6972 19.1111 11.8395 19.1378 11.9817 19.1733C12.2395 19.2267 12.3817 19.5022 12.2484 19.7778C12.1861 19.9022 12.0795 19.9644 11.9461 20C11.6884 20.0622 11.3595 19.9378 11.3328 19.5822ZM6.91503 18.5778H7.11947C7.11947 18.8089 7.11947 19.04 7.11947 19.2622C7.11947 19.3067 7.11947 19.36 7.11947 19.4044C7.10169 19.6533 7.23503 19.8667 7.55503 19.7689C7.71503 19.6622 7.70614 19.4933 7.71503 19.3333C7.71503 19.0844 7.71503 18.8356 7.71503 18.5778C7.77725 18.5778 7.83947 18.5689 7.8928 18.56C7.90169 18.5867 7.91947 18.6045 7.91947 18.6222C7.91947 18.9067 7.91947 19.2 7.91947 19.4844C7.91058 19.8667 7.60836 20.08 7.24391 19.9733C7.03947 19.9111 6.9328 19.76 6.91503 19.5556C6.89725 19.2267 6.91503 18.8978 6.91503 18.56V18.5778ZM2.56836 18.5689C2.7728 18.5689 2.95947 18.5689 3.14614 18.5689C3.34169 18.5689 3.48391 18.72 3.50169 18.9067C3.50169 18.96 3.50169 19.0133 3.50169 19.0667C3.48391 19.2889 3.35947 19.4044 3.13725 19.4044C3.02169 19.4044 2.90614 19.4044 2.7728 19.4044V19.9556C2.6928 19.9556 2.63947 19.9556 2.56836 19.9644V18.5511V18.5689ZM2.78169 18.7378V19.2356C2.94169 19.2444 3.0928 19.28 3.23503 19.1911C3.3328 19.0489 3.3328 18.9156 3.20836 18.7556C3.08391 18.7556 2.94169 18.7378 2.7728 18.7378H2.78169ZM25.7417 19.9733H25.5106C25.475 19.8578 25.4306 19.7422 25.3861 19.6089H24.8972C24.8528 19.7244 24.8084 19.8489 24.7639 19.9733H24.5506C24.7106 19.5022 24.8706 19.0489 25.0306 18.5867C25.0928 18.5867 25.155 18.5778 25.2439 18.5689C25.4039 19.04 25.5639 19.5022 25.7328 19.9733H25.7417ZM24.9595 19.4044H25.3239C25.2706 19.2 25.2172 19.0133 25.1639 18.8267C25.155 18.8267 25.1461 18.8267 25.1284 18.8267C25.075 19.0133 25.0128 19.2089 24.9506 19.4044H24.9595ZM23.5372 19.9733H23.315C23.2706 19.8489 23.235 19.7245 23.1817 19.5911H22.7017C22.6661 19.7067 22.6217 19.8311 22.5684 19.9644C22.515 19.9644 22.4528 19.9644 22.3639 19.9733C22.5239 19.4933 22.6661 19.0311 22.8261 18.5689H23.0661C23.2172 19.0311 23.3684 19.4933 23.5284 19.9644L23.5372 19.9733ZM22.9772 18.8267H22.9417C22.8884 19.0133 22.8261 19.2 22.7639 19.4044C22.9061 19.4044 23.0306 19.4311 23.155 19.3867C23.0928 19.1911 23.0395 19.0044 22.9772 18.8267ZM12.8084 19.4133V19.9644H12.595V18.5689C12.8084 18.5689 13.0217 18.5511 13.235 18.5689C13.4395 18.5867 13.5728 18.7911 13.555 19.0311C13.5372 19.2622 13.4128 19.3956 13.1906 19.4044C13.075 19.4044 12.9506 19.4044 12.8172 19.4044L12.8084 19.4133ZM13.2884 18.8C13.1284 18.72 12.9684 18.7378 12.8084 18.7645C12.7995 18.9333 12.7817 19.0844 12.8261 19.2444C12.8884 19.2444 12.9417 19.2533 12.9861 19.2533C13.0306 19.2533 13.0839 19.2533 13.1284 19.2533C13.2795 19.2267 13.3772 19.1022 13.3506 18.9511C13.3506 18.9067 13.315 18.8622 13.2972 18.8089L13.2884 18.8ZM27.6261 19.8667C27.6261 19.8667 27.5995 19.9289 27.5906 19.9556H27.4572V18.5422H27.6084C27.6084 18.6845 27.6261 18.8267 27.635 18.9689C27.7417 18.9422 27.8395 18.9067 27.9284 18.8978C28.115 18.8711 28.2484 18.9778 28.3106 19.1378C28.3995 19.3422 28.3906 19.5556 28.2839 19.76C28.1506 20.0089 27.9106 20.0622 27.6706 19.9111C27.6528 19.9022 27.635 19.8933 27.6084 19.8667H27.6261ZM27.5906 19.44C27.6173 19.52 27.6261 19.6089 27.6617 19.6889C27.7061 19.7867 27.795 19.8311 27.9106 19.8311C28.0261 19.8311 28.0972 19.7778 28.1417 19.6711C28.2039 19.52 28.2128 19.3689 28.1595 19.2267C28.1239 19.12 28.0528 19.04 27.9284 19.04C27.8039 19.04 27.7061 19.0933 27.6528 19.2C27.6173 19.2711 27.6173 19.3511 27.5906 19.44ZM28.7373 19.3689C28.835 19.2711 28.9061 19.2 28.9772 19.1289C29.0484 19.0578 29.1106 18.9778 29.1817 18.9067H29.4128C29.2706 19.0489 29.155 19.1733 29.0306 19.3067C29.1017 19.4133 29.1728 19.52 29.2439 19.6267C29.3061 19.7244 29.3684 19.8311 29.4395 19.9556H29.2439C29.1373 19.7956 29.0306 19.6178 28.9061 19.4311C28.8439 19.4756 28.7995 19.5111 28.7461 19.5467V19.9556C28.6928 19.9556 28.6572 19.9556 28.6039 19.9467V18.5422C28.6039 18.5422 28.6839 18.5422 28.7461 18.5333V19.3689H28.7373ZM21.8128 19.8222C21.955 19.7778 21.9817 19.6711 21.9817 19.5467C21.9817 19.2267 21.9817 18.9156 21.9817 18.5867H22.2128C22.2128 18.9422 22.2306 19.2978 22.2128 19.6533C22.1861 19.9556 21.8661 20.1156 21.5995 19.9733C21.4128 19.8756 21.3861 19.6978 21.3861 19.4933H21.6084C21.635 19.6267 21.5995 19.8044 21.8217 19.8222H21.8128ZM23.9639 19.4489C23.8128 19.1556 23.6617 18.8711 23.5106 18.5778H23.7506C23.8484 18.7644 23.9461 18.9689 24.0617 19.1911C24.1861 18.9689 24.2928 18.7733 24.3995 18.5689H24.6217C24.4706 18.8533 24.3284 19.1289 24.1772 19.4222V19.9556H23.9817V19.44L23.9639 19.4489ZM3.6528 18.5778H4.62169V18.7556H4.24836V19.9644C4.17725 19.9644 4.11503 19.9644 4.04392 19.9733V18.7645H3.66169V18.5689L3.6528 18.5778ZM9.35947 19.9378V18.7733C9.22614 18.7733 9.10169 18.7645 8.97725 18.7556C8.96836 18.7022 8.95947 18.6489 8.95058 18.5778H9.93725C9.93725 18.6311 9.93725 18.6845 9.93725 18.7556H9.54614V19.9733H9.37725C9.37725 19.9733 9.35947 19.9467 9.35058 19.9378H9.35947ZM26.1506 18.7022V18.5422H27.2884V18.6933H26.835C26.7639 18.8444 26.7995 18.9956 26.7995 19.1378C26.7995 19.3956 26.7995 19.6622 26.7995 19.9378C26.7461 19.9378 26.6928 19.9467 26.6306 19.9556V18.7111H26.1506V18.7022ZM8.22169 18.5778H8.41725V19.7511C8.63058 19.8044 8.83503 19.7511 9.03947 19.7867C9.03947 19.84 9.03947 19.8933 9.05725 19.9644H8.22169V18.5778ZM16.6484 19.9733H16.4528V18.5867C16.515 18.5867 16.5772 18.5867 16.6484 18.5689V19.9733ZM10.2039 18.5778H10.3817V19.9733H10.2217C10.2217 19.9733 10.1684 18.9956 10.2039 18.5778Z" fill="#058384"/>
<path d="M16.1234 21.5911H16.0257V20.8622C15.9279 21.1289 15.8479 21.36 15.759 21.5822C15.759 21.5911 15.7234 21.5911 15.679 21.6C15.599 21.36 15.519 21.1289 15.439 20.8889C15.439 20.8889 15.4301 20.8889 15.4212 20.8889V21.5644C15.4212 21.5644 15.3501 21.5822 15.3057 21.5911V20.6667C15.3768 20.6667 15.439 20.6667 15.5279 20.6578C15.5901 20.8711 15.6434 21.0756 15.7146 21.3333C15.7946 21.0933 15.8568 20.8889 15.919 20.6756H16.1323C16.2034 20.8356 16.1946 21.4133 16.1234 21.5822" fill="#919191"/>
<path d="M10.1594 20.6667C10.1594 20.9867 10.0617 21.2711 10.0083 21.5822C9.94611 21.5822 9.88388 21.5911 9.80388 21.6C9.75055 21.3867 9.70611 21.1733 9.65277 20.9689C9.65277 20.9689 9.635 20.9689 9.62611 20.9689C9.57277 21.1733 9.51944 21.3867 9.46611 21.6H9.27944C9.21722 21.3067 9.155 21.0045 9.09277 20.7022C9.13722 20.6933 9.16388 20.6844 9.20833 20.6756C9.315 20.8889 9.315 21.1378 9.41277 21.36C9.45722 21.1378 9.50166 20.9156 9.54611 20.6933C9.61722 20.6933 9.67055 20.6933 9.72388 20.6933C9.77722 20.9333 9.83055 21.1644 9.89277 21.4133C9.955 21.1644 10.0172 20.9333 10.0794 20.7022C10.0794 20.6933 10.115 20.6933 10.1594 20.6844" fill="#919191"/>
<path d="M8.1417 20.6756H8.39059C8.47948 20.8889 8.56837 21.1111 8.66615 21.3422C8.67504 21.3422 8.68392 21.3422 8.69281 21.3422V20.6845C8.73726 20.6845 8.76392 20.6845 8.80837 20.6845V21.6C8.74615 21.6 8.68392 21.6 8.61281 21.6089C8.50615 21.3778 8.40837 21.1556 8.31059 20.9333C8.31059 20.9333 8.29281 20.9333 8.28392 20.9333V21.5911C8.23059 21.5911 8.19503 21.6 8.13281 21.6089V20.6933L8.1417 20.6756Z" fill="#919191"/>
<path d="M6.79072 20.6756C6.84406 20.6756 6.87072 20.6756 6.90628 20.6756V21.5822C6.84406 21.5822 6.78184 21.5822 6.71072 21.5911C6.60406 21.3511 6.50628 21.12 6.39072 20.8533V21.5822C6.33739 21.5822 6.29295 21.5822 6.26628 21.5822C6.22184 21.5378 6.21295 21.0222 6.2485 20.6667H6.50628C6.59517 20.8889 6.68406 21.12 6.77295 21.36C6.78183 21.36 6.79072 21.36 6.8085 21.36V20.6578L6.79072 20.6756Z" fill="#919191"/>
<path d="M17.3594 20.6845H17.5994C17.6972 20.9245 17.786 21.1556 17.8838 21.3867C17.9016 21.3867 17.9105 21.3867 17.9283 21.3778C17.9283 21.1467 17.8572 20.9156 17.946 20.6845H18.0438V21.5911C17.9727 21.5911 17.9016 21.5911 17.8127 21.6C17.7149 21.36 17.626 21.12 17.5283 20.8889C17.5194 20.8889 17.5016 20.8889 17.4927 20.8889V21.5822C17.4927 21.5822 17.4216 21.5822 17.3683 21.5911C17.3683 21.2889 17.3683 20.9867 17.3683 20.6756" fill="#919191"/>
<path d="M13.6618 21.5911H13.4485C13.3507 21.36 13.244 21.12 13.1373 20.88C13.1285 20.88 13.1196 20.88 13.1107 20.88V21.5733C13.1107 21.5733 13.0396 21.5911 12.9951 21.6V20.6844H13.2351C13.3329 20.9156 13.4307 21.1467 13.5285 21.3867H13.5551V20.6933H13.6618V21.6V21.5911Z" fill="#919191"/>
<path d="M23.6533 20.8089V21.1111H23.9199C23.9733 21.0045 23.9733 20.9156 23.9199 20.8089H23.6533ZM24.071 21.5911H23.9733C23.9288 21.4933 24.0088 21.3422 23.8399 21.2889H23.6355V21.5911C23.5733 21.5911 23.5377 21.5911 23.4844 21.5911V20.6756C23.671 20.6667 23.8666 20.64 24.0622 20.7022C24.0622 20.8889 24.1333 21.0578 23.9999 21.2089C24.0533 21.2919 24.074 21.4163 24.0622 21.5822" fill="#919191"/>
<path d="M7.7241 20.8356C7.59966 20.7644 7.49299 20.7733 7.36855 20.8267C7.36855 21.0222 7.35077 21.2178 7.37744 21.4222H7.70633C7.75077 21.2267 7.7241 21.0311 7.73299 20.8356M7.83966 21.4933C7.69744 21.6267 7.54633 21.6 7.39521 21.5822C7.31521 21.5733 7.26188 21.5111 7.23521 21.4222C7.17299 21.1911 7.19966 20.9689 7.25299 20.7556C7.34188 20.6844 7.51077 20.6578 7.75966 20.6756C7.9641 20.9244 7.87521 21.2089 7.83966 21.4933Z" fill="#919191"/>
<path d="M10.8888 21.4311C10.9421 21.2267 10.9332 21.0222 10.8888 20.8178H10.551C10.551 21.0311 10.5243 21.2267 10.5688 21.4311H10.8799H10.8888ZM10.4443 20.7378C10.6665 20.6311 10.8888 20.64 11.031 20.7733C11.0932 21.0311 11.111 21.2889 10.9954 21.5467C10.8176 21.6267 10.6399 21.6533 10.4621 21.5289C10.3643 21.2711 10.391 21.0133 10.4532 20.7467" fill="#919191"/>
<path d="M25.3059 20.8V21.1111H25.5903C25.6614 21.0045 25.6703 20.9067 25.5903 20.8H25.3059ZM25.7859 21.0756C25.7503 21.1289 25.7237 21.1645 25.697 21.2089C25.7237 21.2533 25.7503 21.2889 25.777 21.3245V21.5822C25.777 21.5822 25.6881 21.5911 25.6348 21.6C25.6348 21.5022 25.617 21.4222 25.617 21.3422C25.5281 21.2445 25.4214 21.2978 25.3059 21.28V21.5822C25.2614 21.5822 25.2348 21.5911 25.217 21.5911C25.2081 21.5911 25.1992 21.5822 25.1992 21.5733C25.1992 21.28 25.1992 20.9867 25.1992 20.6756H25.6881C25.857 20.7556 25.7681 20.9245 25.7948 21.0667" fill="#919191"/>
<path d="M14.0079 21.5733C13.9812 21.4667 13.9723 21.4044 13.9546 21.3422C14.0879 21.2711 14.0968 21.4045 14.1501 21.44H14.3901C14.3901 21.3689 14.3901 21.3067 14.399 21.2178C14.319 21.2178 14.2568 21.2089 14.1946 21.1911C14.1323 21.1822 14.0701 21.1556 14.0168 21.1467C13.919 20.9245 13.9279 20.8089 14.0612 20.6756C14.1946 20.6756 14.3457 20.64 14.5057 20.7111C14.5057 20.7733 14.5146 20.8356 14.5234 20.8978C14.479 20.8978 14.4612 20.9067 14.4346 20.9156C14.4079 20.8711 14.3812 20.8356 14.3546 20.8H14.1323C14.1323 20.8711 14.1323 20.9422 14.1234 21.0133C14.2479 21.04 14.3546 21.0578 14.4612 21.0756C14.5768 21.2 14.6123 21.3689 14.5234 21.4933C14.4879 21.5378 14.4168 21.5911 14.3634 21.5911C14.2568 21.6 14.1412 21.5911 14.0079 21.5733Z" fill="#919191"/>
<path d="M22.702 21.4311H23.0131C23.1198 21.1911 23.0398 20.9422 23.0753 20.6844C23.102 20.6844 23.1287 20.6844 23.1909 20.6667C23.1731 20.96 23.2264 21.2444 23.1375 21.5378C22.9598 21.6356 22.7909 21.6178 22.6042 21.5378C22.4887 21.2622 22.5775 20.9778 22.542 20.6844C22.5953 20.6844 22.6309 20.6844 22.702 20.6844V21.44V21.4311Z" fill="#919191"/>
<path d="M20.9062 20.7822C21.0929 20.6133 21.2618 20.6844 21.4307 20.6844C21.5107 20.7644 21.5462 20.8444 21.5196 20.9511H21.404C21.3862 20.9067 21.3596 20.8533 21.3418 20.8089H21.1107C21.1107 20.8089 21.0574 20.9067 21.0574 20.96C21.0574 21.12 21.0129 21.28 21.1107 21.44H21.324C21.404 21.4133 21.3774 21.2533 21.5196 21.2978C21.564 21.3867 21.5374 21.4667 21.4751 21.5556C21.324 21.6444 21.164 21.6178 21.004 21.5556C20.8885 21.4489 20.9418 21.2978 20.924 21.1733C20.9063 21.04 20.924 20.9067 20.924 20.7822" fill="#919191"/>
<path d="M24.8796 21.4311V21.5911H24.3818V20.6844H24.8707C24.8707 20.6844 24.8707 20.7378 24.8796 20.7911H24.5241V21.0311C24.5863 21.0311 24.6396 21.04 24.7018 21.0489V21.1822C24.6396 21.1822 24.5774 21.1911 24.5152 21.2V21.4311H24.8618H24.8796Z" fill="#919191"/>
<path d="M16.8973 21.2978C16.8617 21.1378 16.8262 20.9867 16.7906 20.8445C16.7817 20.8445 16.764 20.8445 16.7551 20.8445C16.7106 20.9956 16.6751 21.1378 16.6306 21.3067H16.8973V21.2978ZM16.8706 20.6756C16.9684 20.9689 17.0306 21.2711 17.0928 21.5822C16.9328 21.6089 16.9862 21.4667 16.9151 21.4133H16.6128C16.5862 21.4578 16.5595 21.52 16.524 21.5911H16.3906C16.4795 21.28 16.5595 20.9778 16.6484 20.6845H16.8706V20.6756Z" fill="#919191"/>
<path d="M12.2039 20.6756H12.6928C12.6928 20.6756 12.6928 20.7378 12.7106 20.7911H12.355V21.0311C12.4083 21.0311 12.4706 21.0489 12.5328 21.0578V21.1822C12.4795 21.1822 12.4172 21.2 12.3461 21.2089V21.44H12.6928V21.5911H12.2306C12.1772 21.4578 12.1595 21.04 12.2039 20.6756Z" fill="#919191"/>
<path d="M20.4258 21.2978C20.4258 21.0933 20.3991 20.9422 20.3102 20.8356C20.2747 20.9956 20.248 21.1378 20.2125 21.2978H20.4258ZM20.1769 21.4133C20.1473 21.52 20.085 21.5763 19.9902 21.5822C20.0436 21.28 20.1413 20.9956 20.2213 20.6844C20.2836 20.6844 20.3458 20.6667 20.4258 20.6578C20.5147 20.96 20.5947 21.2533 20.6925 21.5733C20.6391 21.5733 20.6036 21.5911 20.5502 21.6C20.5325 21.5378 20.5147 21.4756 20.4969 21.4133H20.1858H20.1769Z" fill="#919191"/>
<path d="M11.7148 21.6C11.6436 21.6 11.5814 21.5911 11.5192 21.5822C11.4392 21.2889 11.3681 20.9956 11.2881 20.6933C11.3325 20.6845 11.377 20.6756 11.4392 20.6667C11.4925 20.9067 11.5459 21.1289 11.5992 21.36C11.617 21.36 11.6259 21.36 11.6436 21.36C11.6881 21.1733 11.7325 20.9956 11.7859 20.8089C11.8036 20.7467 11.8036 20.6489 11.9459 20.6844C11.9192 20.9867 11.8125 21.28 11.7236 21.6" fill="#919191"/>
<path d="M18.9685 21.4489C18.8174 21.6356 18.6218 21.6622 18.3818 21.5111V20.6933H18.4974V21.4311C18.6041 21.4311 18.6929 21.4489 18.7996 21.4578C18.9241 21.2089 18.8174 20.9511 18.8707 20.6933H18.9685V21.4578V21.4489Z" fill="#919191"/>
<path d="M22.328 20.6844C22.328 20.6844 22.328 20.7378 22.328 20.7733C22.2569 20.7822 22.1946 20.8 22.0969 20.8178V21.5822H21.9369V20.8089C21.8658 20.8089 21.8035 20.7911 21.7413 20.7911C21.7413 20.7556 21.7413 20.7289 21.7324 20.6933H22.328V20.6844Z" fill="#919191"/>
<path d="M19.4301 21.5822C19.3857 21.5822 19.359 21.5911 19.3057 21.6C19.3057 21.44 19.3057 21.2889 19.3057 21.1378C19.3057 20.9867 19.3057 20.8444 19.3057 20.6844H19.7501C19.7501 20.6844 19.7501 20.7467 19.7501 20.7822H19.439V21.0578H19.7323C19.7323 21.1022 19.7412 21.1378 19.7501 21.1911H19.4301V21.5822Z" fill="#919191"/>
</g>
</g>
<defs>
<clipPath id="clip0_2737_122741">
<rect width="32" height="32" fill="white"/>
</clipPath>
</defs>
</svg>
