<svg width="32" height="32" viewBox="0 0 32 32" fill="none" xmlns="http://www.w3.org/2000/svg">
<g clip-path="url(#clip0_2707_298248)">
<path d="M16 31.9823C24.8268 31.9823 31.9823 24.8268 31.9823 16C31.9823 7.17331 24.8268 0.0178223 16 0.0178223C7.17331 0.0178223 0.0178223 7.17331 0.0178223 16C0.0178223 24.8268 7.17331 31.9823 16 31.9823Z" fill="white"/>
<path d="M3.90226 17.6712V17.9823H2.84448V17.9023C2.84448 17.609 2.84448 17.3245 2.84448 17.0134C2.84448 16.4623 2.84448 15.9112 2.9067 15.3601C2.96893 14.809 2.9067 14.4712 2.9067 13.9912C2.9067 13.9112 2.9067 13.8934 3.00448 13.8934H4.5867C4.5867 13.8934 4.6667 13.8934 4.67559 13.9557C4.75453 14.3112 4.85547 14.6615 4.97782 15.0045C5.10226 15.4223 5.21782 15.849 5.33337 16.2668L5.3867 16.409L5.4667 16.1068C5.56448 15.769 5.64448 15.4312 5.74226 15.1023C5.84004 14.7734 5.96448 14.3379 6.07115 13.9557C6.07224 13.9474 6.07495 13.9395 6.07913 13.9324C6.08331 13.9253 6.08888 13.919 6.0955 13.914C6.10212 13.9091 6.10967 13.9055 6.1177 13.9035C6.12573 13.9015 6.13408 13.9011 6.14226 13.9023H7.81337C7.81337 15.2534 7.85782 16.569 7.93782 17.9557H6.80004V17.8668V15.8668C6.80004 15.6534 6.80004 15.4312 6.80004 15.209C6.80004 15.209 6.80004 15.1645 6.80004 15.1379C6.72004 15.4223 6.64004 15.7157 6.56004 16.0268C6.39115 16.6401 6.22226 17.2534 6.04448 17.8668C6.04448 18.0001 6.04448 18.0001 5.87559 18.0001H4.9867C4.96694 18.0002 4.94783 17.993 4.93306 17.9799C4.91829 17.9668 4.9089 17.9486 4.9067 17.929L4.48004 16.4445C4.39115 16.1423 4.29337 15.8312 4.19559 15.5557C4.19559 15.4312 4.12448 15.3068 4.08004 15.1823V15.6712V15.7334C4.07513 15.7539 4.07513 15.7752 4.08004 15.7957V17.5734C4.04381 17.5683 4.00689 17.575 3.97483 17.5927C3.94277 17.6103 3.9173 17.6379 3.90226 17.6712Z" fill="#03928F"/>
<path d="M27.9379 14.9067V14.3823C27.9379 14.249 27.9379 14.1156 27.9379 13.9823C27.9379 13.849 27.9379 13.9201 28.0001 13.9201H29.1023C29.1823 13.9201 29.1645 13.9734 29.1645 14.0178C29.1645 14.6045 29.1645 15.1823 29.1645 15.7956C29.1645 16.5245 29.1645 17.2623 29.1645 17.9912H28.1156C28.0534 17.9912 28.0356 17.9912 28.0356 17.9201V17.6356L27.9112 17.7512C27.7703 17.8745 27.6045 17.9662 27.425 18.0198C27.2456 18.0735 27.0567 18.088 26.8712 18.0623C26.6285 18.0446 26.3951 17.9617 26.1956 17.8223C25.935 17.6384 25.749 17.3672 25.6712 17.0578C25.6018 16.8134 25.5826 16.5575 25.6147 16.3054C25.6468 16.0534 25.7295 15.8104 25.8579 15.5912C25.9536 15.4297 26.0822 15.29 26.2354 15.1813C26.3885 15.0726 26.5627 14.9972 26.7468 14.9601C27.1372 14.8845 27.5385 14.8845 27.929 14.9601L27.9379 14.9067ZM27.9379 16.089V15.7512C27.9379 15.7512 27.9379 15.6801 27.8756 15.6801C27.7128 15.6711 27.5496 15.6711 27.3868 15.6801C27.2987 15.6855 27.2131 15.7107 27.1361 15.7538C27.0592 15.7968 26.9929 15.8567 26.9423 15.929C26.8456 16.0531 26.7811 16.1992 26.7547 16.3544C26.7284 16.5095 26.7409 16.6687 26.7912 16.8178C26.8271 16.9312 26.8981 17.0302 26.994 17.1005C27.0898 17.1709 27.2056 17.2088 27.3245 17.209C27.3865 17.2174 27.4493 17.2174 27.5112 17.209C27.5901 17.1781 27.6613 17.1302 27.7197 17.0688C27.7781 17.0073 27.8222 16.9338 27.849 16.8534C27.9343 16.608 27.9705 16.3483 27.9556 16.089H27.9379Z" fill="#04928F"/>
<path d="M24.9601 16.9956C24.9601 17.1912 24.9601 17.3956 24.9601 17.5912V17.9823H23.7512V17.7778C23.7512 17.3334 23.7512 16.889 23.7512 16.4356C23.7615 16.2845 23.7138 16.1351 23.6179 16.0178C23.5687 15.9693 23.5104 15.931 23.4463 15.905C23.3822 15.8791 23.3137 15.8661 23.2445 15.8667C23.1734 15.8666 23.1029 15.8806 23.0373 15.9081C22.9716 15.9356 22.9121 15.9759 22.8623 16.0267C22.7226 16.1901 22.6468 16.3985 22.649 16.6134C22.649 17.0578 22.649 17.5023 22.649 17.9467V18.0178H21.4045C21.4045 17.5201 21.4045 17.0134 21.4045 16.5067C21.4045 16.0001 21.4045 15.5023 21.4045 14.9867H22.6134V15.369C22.714 15.2493 22.8372 15.1508 22.976 15.0791C23.1149 15.0074 23.2666 14.9639 23.4223 14.9512C23.7592 14.8962 24.1049 14.9394 24.4179 15.0756C24.5568 15.1328 24.6765 15.2284 24.7631 15.3512C24.8497 15.474 24.8995 15.6189 24.9068 15.769V16.889C24.9168 16.9279 24.935 16.9642 24.9601 16.9956Z" fill="#03928F"/>
<path d="M19.4845 17.9823V16.649H19.4401L18.8357 16.8623C18.7688 16.8891 18.706 16.925 18.649 16.969C18.6102 16.994 18.5806 17.0309 18.5646 17.0742C18.5485 17.1174 18.547 17.1647 18.5601 17.209C18.5682 17.2527 18.5883 17.2933 18.6181 17.3262C18.6479 17.3592 18.6863 17.3832 18.729 17.3956C18.8799 17.4401 19.0403 17.4401 19.1912 17.3956H19.2445L19.1379 17.8045C19.1379 17.8756 19.1379 17.9467 19.0934 18.009C19.0805 18.031 19.0621 18.0493 19.0401 18.0623C18.7116 18.1289 18.3731 18.1289 18.0445 18.0623C17.8378 18.0081 17.6575 17.8812 17.5367 17.7049C17.4159 17.5286 17.3627 17.3147 17.3868 17.1023C17.4 16.9746 17.4442 16.852 17.5154 16.7451C17.5867 16.6382 17.6828 16.5503 17.7957 16.489C18.0002 16.363 18.2262 16.2756 18.4623 16.2312L19.1557 16.0712C19.2166 16.0606 19.2744 16.0363 19.3245 16.0001C19.3548 15.9837 19.38 15.9592 19.3973 15.9294C19.4145 15.8996 19.4232 15.8656 19.4223 15.8312C19.4228 15.7923 19.4122 15.7541 19.3917 15.721C19.3713 15.688 19.3418 15.6614 19.3068 15.6445C19.1705 15.5824 19.0184 15.5638 18.8712 15.5912C18.5083 15.6275 18.1523 15.7143 17.8134 15.849H17.7423C17.7465 15.8016 17.7465 15.7541 17.7423 15.7067C17.7653 15.509 17.7771 15.3102 17.7779 15.1112C17.7778 15.0914 17.785 15.0723 17.7981 15.0575C17.8112 15.0428 17.8293 15.0334 17.849 15.0312C18.3649 14.9126 18.893 14.8559 19.4223 14.8623C19.6777 14.8648 19.9306 14.913 20.169 15.0045C20.3135 15.0637 20.4358 15.1667 20.5188 15.2991C20.6017 15.4314 20.641 15.5864 20.6312 15.7423C20.6312 16.1334 20.6312 16.5156 20.6312 16.9067C20.6312 17.2979 20.6312 17.5556 20.6312 17.8845V17.9645L19.4845 17.9823Z" fill="#04928F"/>
<path d="M11.6978 17.9556C11.1891 18.0588 10.6687 18.0917 10.1511 18.0534C9.92329 18.0378 9.69882 17.9899 9.48446 17.9111C9.27041 17.839 9.07739 17.7153 8.92238 17.551C8.76738 17.3867 8.65515 17.1868 8.59557 16.9689C8.5249 16.7306 8.505 16.4801 8.53715 16.2336C8.5693 15.9871 8.6528 15.75 8.78224 15.5378C8.86933 15.394 8.9841 15.2688 9.1199 15.1697C9.2557 15.0705 9.40982 14.9992 9.57335 14.96C10.0586 14.8224 10.5726 14.8224 11.0578 14.96C11.3308 15.0393 11.5704 15.2054 11.7405 15.4332C11.9105 15.661 12.0016 15.938 12 16.2223V16.56H9.82224C9.80108 16.6754 9.81725 16.7944 9.8684 16.8999C9.91956 17.0055 10.003 17.0919 10.1067 17.1467C10.3184 17.2528 10.5551 17.2989 10.7911 17.28C11.0927 17.2512 11.3906 17.1917 11.68 17.1023H11.7778C11.76 17.3867 11.7245 17.6711 11.6978 17.9556ZM9.7778 16.1156H10.7822C10.7907 16.0275 10.7764 15.9387 10.7405 15.8577C10.7047 15.7768 10.6487 15.7064 10.5778 15.6534C10.4906 15.6009 10.3907 15.5731 10.2889 15.5731C10.1871 15.5731 10.0872 15.6009 10 15.6534C9.92828 15.7066 9.87058 15.7765 9.83186 15.8571C9.79315 15.9376 9.7746 16.0263 9.7778 16.1156Z" fill="#04928F"/>
<path d="M12.8089 15.8134H12.4445C12.3467 15.8134 12.3467 15.8134 12.3467 15.7245C12.3467 15.5023 12.3467 15.2889 12.3467 15.0756V14.9956H12.8622V14.4445C12.8583 14.4362 12.8562 14.4271 12.8562 14.4178C12.8562 14.4086 12.8583 14.3995 12.8622 14.3912L13.8756 14.1689H13.9378V15.0045H14.64V15.8223H13.9378V16.2401V16.8889C13.9378 16.9691 13.9696 17.046 14.0263 17.1026C14.083 17.1593 14.1599 17.1912 14.24 17.1912H14.2845C14.3954 17.1828 14.5054 17.1649 14.6133 17.1378H14.6933C14.6933 17.2445 14.6933 17.3423 14.6933 17.4312C14.6933 17.5201 14.6933 17.7601 14.6311 17.9289C14.6313 17.944 14.626 17.9586 14.6161 17.9701C14.6063 17.9815 14.5927 17.989 14.5778 17.9912C14.2003 18.087 13.8078 18.1082 13.4222 18.0534C13.2476 18.0381 13.0849 17.9589 12.9651 17.8309C12.8453 17.7029 12.7771 17.5353 12.7733 17.3601C12.7733 16.9778 12.7733 16.5956 12.7733 16.2134C12.8089 16.0801 12.8089 15.9467 12.8089 15.8134Z" fill="#04928F"/>
<path d="M16.7377 17.9912H15.5911V13.929H16.6666C16.7288 13.929 16.7466 13.929 16.7466 14.009V17.1556C16.7466 17.4134 16.7466 17.6712 16.7466 17.929L16.7377 17.9912Z" fill="#04928F"/>
<path d="M3.90282 17.6711C3.89849 17.6506 3.89849 17.6295 3.90282 17.6089V15.8311C3.8973 15.8107 3.8973 15.7894 3.90282 15.7689C3.90282 15.8489 3.90282 15.9289 3.90282 16.0178V17.6889V17.6711Z" fill="#118E79"/>
<path d="M24.96 16.9956V16.9156V15.7067C24.9655 15.7718 24.9655 15.8371 24.96 15.9022V16.9956Z" fill="#118E79"/>
</g>
<defs>
<clipPath id="clip0_2707_298248">
<rect width="32" height="32" fill="white"/>
</clipPath>
</defs>
</svg>
