<svg width="32" height="32" viewBox="0 0 32 32" fill="none" xmlns="http://www.w3.org/2000/svg">
<g clip-path="url(#clip0_2707_298123)">
<path d="M16 31.9823C24.8268 31.9823 31.9823 24.8268 31.9823 16C31.9823 7.17331 24.8268 0.0178223 16 0.0178223C7.17331 0.0178223 0.0178223 7.17331 0.0178223 16C0.0178223 24.8268 7.17331 31.9823 16 31.9823Z" fill="white"/>
<path d="M11.5557 15.84H11.3335H9.43123V16.0178L9.52901 16.16C9.68012 16.2045 9.80456 16.3556 9.98234 16.2934C10.1435 16.2558 10.2856 16.161 10.3823 16.0267C10.5151 16.0085 10.6496 16.0085 10.7823 16.0267C10.7511 16.1502 10.6937 16.2657 10.614 16.3651C10.5343 16.4645 10.4342 16.5456 10.3204 16.603C10.2066 16.6603 10.0818 16.6925 9.95442 16.6973C9.82709 16.7022 9.70019 16.6796 9.58234 16.6311L9.30679 16.4267C9.30679 16.4267 9.24456 16.4267 9.23567 16.3734C9.10304 16.1763 9.03189 15.9443 9.03123 15.7067C9.05916 15.5173 9.13233 15.3374 9.24456 15.1823V15.1289C9.3044 15.1329 9.36447 15.1269 9.42234 15.1111C9.47423 15.0527 9.53894 15.007 9.61142 14.9777C9.6839 14.9484 9.76217 14.9363 9.84012 14.9423C9.94776 14.9235 10.0583 14.9297 10.1631 14.9605C10.2679 14.9914 10.3642 15.0459 10.4446 15.12C10.5157 15.1823 10.5957 15.2356 10.6579 15.2978C10.6838 15.3301 10.7048 15.366 10.7201 15.4045H10.6757C10.4708 15.4405 10.2597 15.4126 10.0712 15.3245C10.0324 15.3009 9.98778 15.2885 9.94234 15.2885C9.8969 15.2885 9.85233 15.3009 9.81345 15.3245C9.69892 15.381 9.58895 15.4464 9.48456 15.52C9.48456 15.6178 9.58234 15.5911 9.64456 15.5911H11.0046C11.0134 15.5471 11.0134 15.5018 11.0046 15.4578C10.9601 15.3245 10.9335 15.1823 10.8001 15.1023C10.7795 15.0863 10.7641 15.0647 10.7557 15.04C10.7151 14.9889 10.6671 14.9439 10.6135 14.9067C10.4869 14.8332 10.3528 14.7736 10.2135 14.7289C10.0983 14.6909 9.97667 14.6767 9.85591 14.6874C9.73515 14.6981 9.61785 14.7334 9.51123 14.7911L9.32456 14.8711C9.32456 14.8711 9.27123 14.8711 9.25345 14.8711C9.10903 14.9931 8.98847 15.1408 8.8979 15.3067C8.82747 15.4827 8.7973 15.6722 8.80961 15.8614C8.82191 16.0506 8.87637 16.2346 8.96901 16.4C9.03465 16.5083 9.12106 16.6026 9.22327 16.6773C9.32548 16.7521 9.44147 16.8059 9.56456 16.8356C9.66035 16.8648 9.7585 16.8856 9.8579 16.8978C10.1114 16.9005 10.3606 16.8328 10.5779 16.7023C10.6226 16.674 10.6617 16.6379 10.6935 16.5956L10.9068 16.3467L11.0223 16.0445C11.1748 16.0133 11.3321 16.0133 11.4846 16.0445V16.3111C11.4223 16.4445 11.369 16.5334 11.3246 16.6223V16.6845C11.2023 16.8483 11.0553 16.9922 10.889 17.1111C10.8441 17.1356 10.8023 17.1655 10.7646 17.2L10.6312 17.28C10.3111 17.403 9.96231 17.4308 9.62679 17.36C9.46689 17.3437 9.31689 17.2749 9.20012 17.1645L9.12012 17.12C9.02449 17.058 8.93776 16.9833 8.86234 16.8978C8.73255 16.7648 8.62989 16.6078 8.56012 16.4356C8.46259 16.3072 8.3957 16.1582 8.36456 16V15.6711C8.36025 15.6446 8.36025 15.6176 8.36456 15.5911C8.45345 15.3956 8.54234 15.2089 8.64012 15.0134C8.65917 14.9777 8.68663 14.9472 8.72012 14.9245H8.78234C8.88012 14.7023 9.11123 14.64 9.28901 14.5334C9.44595 14.4619 9.61466 14.4197 9.78679 14.4089C9.99919 14.3851 10.2142 14.4063 10.4179 14.4711C10.5961 14.5484 10.7658 14.6437 10.9246 14.7556C10.9246 14.7556 10.9779 14.8178 11.0046 14.8445C11.0312 14.8711 11.0579 14.9423 11.1023 14.96C11.1278 14.9698 11.1507 14.9853 11.1691 15.0054C11.1876 15.0254 11.2013 15.0494 11.209 15.0756C11.2801 15.2267 11.369 15.3689 11.4312 15.5111C11.4782 15.6186 11.5197 15.7284 11.5557 15.84Z" fill="#9E077E"/>
<path d="M20.4446 16.1422C20.5778 16.1334 20.7114 16.1334 20.8446 16.1422C20.864 16.3273 20.8167 16.5133 20.7113 16.6667C20.6327 16.8456 20.5028 16.9972 20.3379 17.1022L20.2757 17.1556C20.1263 17.2975 19.9371 17.3906 19.7335 17.4222C19.5924 17.4653 19.4455 17.4863 19.2979 17.4845C19.058 17.4737 18.8225 17.4164 18.6046 17.3156C18.4579 17.2264 18.3208 17.1221 18.1957 17.0045C18.1246 16.9511 18.089 16.8445 18.0268 16.7733C17.9148 16.6202 17.835 16.4459 17.7923 16.261C17.7495 16.0762 17.7446 15.8846 17.7779 15.6978C17.7779 15.5645 17.8402 15.44 17.8579 15.3333L18.0535 15.0311L18.0979 14.9689C18.2606 14.7901 18.457 14.6451 18.6757 14.5422C18.9514 14.4181 19.255 14.3691 19.5557 14.4H19.7335C19.8726 14.4416 20.0067 14.4983 20.1335 14.5689C20.34 14.6806 20.5122 14.8465 20.6313 15.0489C20.8065 15.2676 20.9118 15.534 20.9335 15.8133C20.8801 15.9022 20.809 15.8933 20.7379 15.8933H18.8446C18.8184 15.9227 18.8039 15.9607 18.8039 16C18.8039 16.0394 18.8184 16.0773 18.8446 16.1067C18.913 16.1789 18.9907 16.2417 19.0757 16.2933C19.1941 16.3022 19.3129 16.3022 19.4313 16.2933C19.4935 16.2311 19.5468 16.1689 19.609 16.1156C19.6511 16.0691 19.7074 16.0379 19.769 16.0267C19.8785 16.0176 19.9885 16.0176 20.0979 16.0267L20.1513 16.0711C20.1264 16.2048 20.0537 16.3249 19.9468 16.4089C19.9468 16.4089 19.9468 16.4089 19.9024 16.4533C19.8358 16.5395 19.7492 16.608 19.65 16.653C19.5508 16.6979 19.4421 16.7179 19.3335 16.7111C19.1654 16.7286 18.9958 16.6977 18.8446 16.6222C18.8089 16.6068 18.7759 16.5858 18.7468 16.56C18.649 16.474 18.5596 16.3788 18.4802 16.2756C18.4255 16.1964 18.3919 16.1046 18.3824 16.0089C18.3324 15.8248 18.3513 15.6288 18.4357 15.4578C18.528 15.2627 18.6851 15.1057 18.8801 15.0133C19.0267 14.9416 19.1881 14.9051 19.3513 14.9067C19.3747 14.9021 19.3989 14.9021 19.4224 14.9067C19.5646 14.9778 19.6979 15.04 19.8313 15.12C19.9059 15.1813 19.9744 15.2498 20.0357 15.3245C20.0357 15.3245 20.0357 15.3245 20.0357 15.4045C19.8438 15.4268 19.6499 15.4268 19.4579 15.4045C19.361 15.3629 19.2543 15.3501 19.1503 15.3674C19.0463 15.3847 18.9495 15.4315 18.8713 15.5022L18.7913 15.5733L18.8535 15.6533H20.3024C20.3824 15.5645 20.3024 15.4845 20.3024 15.4133C20.2298 15.2802 20.1434 15.155 20.0446 15.04C19.9644 14.9496 19.8638 14.8796 19.7513 14.8356C19.435 14.7066 19.0808 14.7066 18.7646 14.8356L18.6668 15.1111C18.5957 15.1733 18.6668 15.1111 18.6668 15.1111C18.5435 15.2074 18.4458 15.3325 18.3824 15.4756C18.2749 15.6802 18.2345 15.9134 18.2668 16.1422C18.2816 16.2298 18.3117 16.314 18.3557 16.3911C18.409 16.5067 18.4802 16.6045 18.5424 16.7111C18.7069 16.8599 18.909 16.9608 19.1267 17.0031C19.3445 17.0454 19.5697 17.0274 19.7779 16.9511C19.8136 16.9357 19.8466 16.9147 19.8757 16.8889C19.9835 16.8354 20.0849 16.7698 20.1779 16.6933C20.2561 16.6029 20.3246 16.5046 20.3824 16.4C20.3824 16.3556 20.4268 16.3111 20.4446 16.2578C20.4624 16.2045 20.4446 16.1867 20.4446 16.1422Z" fill="#9E077E"/>
<path d="M8.00013 17.2979H7.64458C7.64458 17.2979 7.64458 17.2268 7.64458 17.2001C7.64458 16.7112 7.64458 16.2312 7.64458 15.7512C7.63556 15.6051 7.61775 15.4596 7.59124 15.3156C7.52277 15.2194 7.44856 15.1274 7.36902 15.0401C7.33678 15.0007 7.29761 14.9676 7.25346 14.9423L6.76458 14.7201C6.71456 14.7116 6.66348 14.7116 6.61346 14.7201H6.22235C5.97346 14.8712 5.65346 14.8979 5.50235 15.209C5.50235 15.209 5.41346 15.1468 5.40458 15.1201C5.3469 15.0096 5.24782 14.9265 5.12902 14.889L4.8268 14.7201H4.38235C4.26929 14.7178 4.15802 14.7487 4.06235 14.809C3.92902 14.8979 3.76902 14.9512 3.63569 15.0312L3.55569 15.1112C3.51124 15.1823 3.48458 15.2623 3.44902 15.3334V15.3956C3.36175 15.5492 3.33034 15.7282 3.36013 15.9023V17.1912C3.24061 17.2221 3.11521 17.2221 2.99569 17.1912C2.99135 17.1469 2.99135 17.1022 2.99569 17.0579C2.99569 16.569 2.99569 16.089 2.99569 15.609C2.99569 15.4717 3.02288 15.3357 3.07569 15.209C3.12929 15.0407 3.21691 14.8852 3.33313 14.7521C3.44934 14.6191 3.59165 14.5114 3.75124 14.4356C3.85262 14.3748 3.95981 14.3241 4.07124 14.2845C4.43501 14.1849 4.82102 14.2036 5.17346 14.3379C5.22847 14.3588 5.27955 14.3889 5.32457 14.4268C5.47569 14.5423 5.52013 14.5423 5.68902 14.4268C5.90406 14.291 6.15486 14.2229 6.40902 14.2312C6.57187 14.2227 6.73506 14.2227 6.89791 14.2312C7.04304 14.2482 7.18106 14.3035 7.29791 14.3912L7.40457 14.4534C7.51124 14.5156 7.63569 14.5601 7.69791 14.6845C7.71443 14.7168 7.7389 14.7443 7.76902 14.7645C7.95812 14.9534 8.06648 15.2084 8.07124 15.4756C8.08456 15.7006 8.08456 15.9262 8.07124 16.1512C8.07124 16.4712 8.07124 16.7823 8.07124 17.1023C8.06933 17.1735 8.04437 17.2421 8.00013 17.2979Z" fill="#9E077E"/>
<path d="M15.3245 16.9868C15.3496 17.107 15.3496 17.231 15.3245 17.3512C15.1376 17.3957 14.9437 17.402 14.7544 17.37C14.565 17.3379 14.384 17.268 14.2222 17.1645L14 17.0223C13.963 16.9911 13.9301 16.9553 13.9022 16.9157L13.7156 16.6846C13.6624 16.6034 13.6177 16.517 13.5822 16.4268C13.5379 16.3315 13.5108 16.2292 13.5022 16.1245C13.4644 15.7716 13.5424 15.4159 13.7245 15.1112C13.743 15.0751 13.767 15.0421 13.7956 15.0134C13.8481 14.9344 13.9109 14.8627 13.9822 14.8001C14.0696 14.7221 14.1649 14.6535 14.2667 14.5957C14.3289 14.5512 14.4089 14.5246 14.48 14.4712C14.601 14.4188 14.7305 14.3887 14.8622 14.3823C15.1075 14.357 15.3554 14.3811 15.5911 14.4534H15.6711L15.8667 14.569L16.0089 14.649C16.1157 14.7439 16.2138 14.848 16.3022 14.9601C16.489 15.2193 16.5914 15.5296 16.5956 15.849C16.5956 16.3201 16.5956 16.7823 16.5956 17.2445C16.5997 17.2919 16.5997 17.3395 16.5956 17.3868C16.4442 17.4275 16.2847 17.4275 16.1334 17.3868V15.7957C16.1385 15.6293 16.1018 15.4642 16.0267 15.3157C15.9248 15.1085 15.7463 14.9491 15.5289 14.8712C15.2394 14.7815 14.9295 14.7815 14.64 14.8712C14.5577 14.8804 14.4781 14.9065 14.4062 14.9478C14.3343 14.9891 14.2717 15.0447 14.2222 15.1112C14.1883 15.154 14.1495 15.1928 14.1067 15.2268L14.0534 15.2801C13.9852 15.4226 13.943 15.5761 13.9289 15.7334C13.9123 15.9347 13.9365 16.1373 14 16.329C14 16.329 14 16.329 14 16.3734C14 16.4179 14.1956 16.6845 14.3734 16.7823C14.5855 16.9034 14.8228 16.9734 15.0667 16.9868C15.1524 16.9958 15.2388 16.9958 15.3245 16.9868Z" fill="#9E077E"/>
<path d="M21.4845 18.6667H21.129C21.1247 18.6402 21.1247 18.6132 21.129 18.5867C21.129 17.6267 21.129 16.6756 21.129 15.7156C21.129 15.5672 21.1723 15.422 21.2534 15.2978C21.2777 15.2582 21.2985 15.2165 21.3156 15.1733C21.3867 15.04 21.4312 14.8978 21.5823 14.8267C21.7156 14.6133 21.9556 14.5867 22.1601 14.4889C22.4155 14.377 22.7028 14.3612 22.969 14.4444C23.2972 14.5122 23.5904 14.695 23.7956 14.96C23.9537 15.1366 24.0639 15.3509 24.1156 15.5822C24.1156 15.7956 24.1156 16 24.1156 16.2133C24.1156 16.4267 23.9912 16.5067 23.9467 16.6667C23.9023 16.8267 23.8667 16.7467 23.8223 16.8C23.7051 16.9521 23.564 17.0842 23.4045 17.1911C23.2259 17.3153 23.0171 17.389 22.8001 17.4044C22.6579 17.4044 22.5156 17.4044 22.3734 17.4044C22.3419 17.4074 22.3102 17.4015 22.282 17.3874C22.2537 17.3732 22.2299 17.3514 22.2134 17.3244V17.0311C22.4892 17.0565 22.7673 17.0262 23.0312 16.9422L23.289 16.7822C23.3706 16.746 23.4345 16.6788 23.4667 16.5956C23.4622 16.5751 23.4622 16.5538 23.4667 16.5333C23.5733 16.4057 23.6462 16.2535 23.6788 16.0904C23.7115 15.9274 23.7027 15.7588 23.6534 15.6C23.6092 15.4404 23.5268 15.294 23.4134 15.1733C23.327 15.0638 23.2159 14.9761 23.0893 14.9174C22.9627 14.8587 22.824 14.8307 22.6845 14.8356C22.43 14.8149 22.1742 14.8545 21.9379 14.9511C21.8048 15.0121 21.6954 15.1152 21.6267 15.2444C21.5667 15.3482 21.519 15.4585 21.4845 15.5733C21.4715 15.6677 21.4715 15.7634 21.4845 15.8578C21.4845 16.08 21.4845 16.3111 21.4845 16.5333C21.4845 16.7556 21.4845 16.7911 21.4845 16.9245V18.56V18.6667Z" fill="#9E077E"/>
<path d="M22.3022 16.7911C22.1956 16.6667 22.3022 16.5423 22.3022 16.4H22.5067C22.5984 16.4133 22.692 16.4049 22.78 16.3756C22.868 16.3463 22.9479 16.2968 23.0133 16.2312C23.0577 16.1962 23.0935 16.1516 23.1182 16.1008C23.1428 16.05 23.1556 15.9943 23.1556 15.9378C23.1556 15.8312 23.1556 15.7245 23.1111 15.6267L22.9778 15.5289C22.8916 15.483 22.7954 15.459 22.6978 15.459C22.6001 15.459 22.504 15.483 22.4178 15.5289C22.372 15.5436 22.3303 15.569 22.2963 15.603C22.2623 15.637 22.2369 15.6787 22.2222 15.7245C22.1682 15.8349 22.1437 15.9574 22.1511 16.08V16.8445C22.1424 16.9688 22.1424 17.0935 22.1511 17.2178C22.1956 17.6712 22.1511 18.1067 22.1511 18.5778C22.1551 18.6133 22.1551 18.649 22.1511 18.6845C22.0356 18.7556 21.9111 18.6845 21.7867 18.6845V18.5689C21.7867 18.1511 21.7867 17.7423 21.7867 17.3245V15.9111C21.7794 15.7479 21.8229 15.5865 21.9111 15.4489C21.953 15.3715 22.01 15.3034 22.0787 15.2484C22.1474 15.1934 22.2264 15.1528 22.3111 15.1289C22.3643 15.1044 22.4149 15.0746 22.4622 15.04H22.8089L23.04 15.1378C23.2317 15.227 23.3853 15.3816 23.4732 15.5738C23.5612 15.7661 23.5778 15.9834 23.52 16.1867C23.4864 16.3331 23.3971 16.4606 23.2711 16.5423C23.1467 16.7378 22.9244 16.7378 22.7289 16.7734L22.3022 16.7911Z" fill="#9E077E"/>
<path d="M7.41333 17.2801C7.28374 17.3248 7.14292 17.3248 7.01333 17.2801C7.01333 17.2267 7.01333 17.1823 7.01333 17.1378V15.8045C7.02601 15.694 6.995 15.5828 6.92692 15.4948C6.85883 15.4068 6.75907 15.3489 6.64889 15.3334C6.55181 15.305 6.44927 15.3006 6.35014 15.3208C6.25101 15.3409 6.15829 15.3849 6.08 15.4489L5.99111 15.5112C5.99111 16.0712 5.99111 16.6312 5.99111 17.1912H5.59111C5.58682 17.1409 5.58682 17.0903 5.59111 17.0401V15.5734C5.58398 15.5024 5.59787 15.4308 5.63105 15.3676C5.66424 15.3044 5.71526 15.2523 5.77777 15.2178C5.81447 15.1888 5.84474 15.1525 5.86666 15.1112C5.97333 14.9067 6.16889 14.9334 6.34666 14.9067C6.5305 14.8853 6.7168 14.9097 6.88889 14.9778H6.98666L7.28889 15.2623C7.39215 15.462 7.43537 15.6874 7.41333 15.9112V17.2801Z" fill="#9E077E"/>
<path d="M15.3424 15.0134L15.6001 15.1823C15.6801 15.2225 15.7409 15.2929 15.769 15.3779C15.7775 15.4173 15.7959 15.454 15.8224 15.4845C15.8622 15.5304 15.8916 15.5843 15.9085 15.6426C15.9254 15.701 15.9294 15.7623 15.9201 15.8223V17.3068C15.924 17.3273 15.924 17.3484 15.9201 17.369C15.7942 17.3967 15.6638 17.3967 15.5379 17.369C15.5379 17.3157 15.5379 17.2712 15.5379 17.2357V15.9112C15.5423 15.8402 15.5423 15.7689 15.5379 15.6979C15.5346 15.6526 15.5222 15.6085 15.5015 15.5682C15.4808 15.5279 15.4521 15.4921 15.4173 15.4631C15.3824 15.434 15.3421 15.4123 15.2987 15.3992C15.2553 15.3861 15.2097 15.3819 15.1646 15.3868C15.0391 15.3701 14.9119 15.4019 14.809 15.4757L14.6935 15.5379C14.6485 15.6051 14.6175 15.6806 14.6022 15.76C14.5869 15.8394 14.5877 15.921 14.6046 16.0001C14.6046 16.1868 14.809 16.2134 14.9246 16.3468H15.369C15.3959 16.4817 15.3959 16.6207 15.369 16.7557H15.2446H14.8357C14.7714 16.7511 14.7088 16.7329 14.6521 16.7022C14.5954 16.6716 14.5458 16.6292 14.5068 16.5779C14.4216 16.5288 14.3501 16.4592 14.2989 16.3753C14.2476 16.2915 14.2182 16.196 14.2135 16.0979C14.1812 15.9515 14.1865 15.7993 14.2288 15.6555C14.2711 15.5117 14.3492 15.3809 14.4556 15.2753C14.5621 15.1698 14.6935 15.0929 14.8376 15.0517C14.9818 15.0106 15.134 15.0066 15.2801 15.0401L15.3424 15.0134Z" fill="#9E077E"/>
<path d="M5.33348 17.2534H4.97792C4.97792 17.1823 4.97792 17.1112 4.97792 17.049V15.5201L4.72014 15.3423C4.52505 15.2983 4.32047 15.3335 4.15126 15.4401C4.10754 15.4674 4.07153 15.5054 4.04663 15.5505C4.02174 15.5956 4.0088 15.6463 4.00903 15.6979C4.00903 16.009 4.00903 16.329 4.00903 16.6401V17.0934C4.01401 17.1241 4.00994 17.1556 3.99731 17.184C3.98468 17.2124 3.96404 17.2365 3.93792 17.2534H3.5557C3.55175 17.1942 3.55175 17.1348 3.5557 17.0756C3.5557 16.6312 3.5557 16.1867 3.5557 15.7423C3.54809 15.621 3.57095 15.4997 3.62218 15.3895C3.67341 15.2792 3.7514 15.1836 3.84903 15.1112C3.97311 15.0143 4.11774 14.9471 4.27182 14.9147C4.4259 14.8824 4.58534 14.8857 4.73792 14.9245C4.92459 14.9245 5.03126 15.1023 5.17348 15.1912C5.3157 15.2801 5.22681 15.289 5.25348 15.3334C5.31562 15.507 5.33394 15.6933 5.30681 15.8756V17.2267L5.33348 17.2534Z" fill="#9E077E"/>
<path d="M11.7156 13.3778C11.7728 13.3372 11.8411 13.3154 11.9112 13.3154C11.9813 13.3154 12.0496 13.3372 12.1067 13.3778V15.8756C12.1036 16.1227 12.196 16.3615 12.3645 16.5422C12.4907 16.6763 12.6502 16.7745 12.8267 16.8267L13.289 16.9422C13.3154 17.0653 13.3154 17.1925 13.289 17.3156C13.1701 17.3514 13.0434 17.3514 12.9245 17.3156C12.758 17.2596 12.5948 17.1944 12.4356 17.12L12.2756 17.0222C12.2242 16.9856 12.1766 16.9439 12.1334 16.8978L11.9201 16.6845C11.8822 16.622 11.8495 16.5566 11.8223 16.4889C11.7563 16.335 11.7086 16.1739 11.6801 16.0089C11.6623 15.6951 11.6623 15.3805 11.6801 15.0667C11.6801 14.5067 11.6978 13.9556 11.7156 13.3778Z" fill="#9E077E"/>
<path d="M24.9333 16.1601C24.793 16.2134 24.638 16.2134 24.4977 16.1601C24.4799 15.9649 24.4799 15.7686 24.4977 15.5734C24.5286 15.3683 24.6012 15.1717 24.711 14.9956C24.8488 14.7889 25.0477 14.6304 25.2799 14.5423C25.4975 14.4681 25.7256 14.4291 25.9555 14.4268C26.4266 14.4268 26.8977 14.4268 27.3599 14.4268H27.5555C27.6084 14.5373 27.6269 14.6611 27.6088 14.7823C27.5644 14.8712 27.4933 14.8623 27.4221 14.8623H25.7777C25.5856 14.8542 25.3968 14.914 25.2444 15.0312L25.111 15.1823C25.0607 15.239 25.0222 15.3051 24.9978 15.3768C24.9733 15.4486 24.9635 15.5245 24.9688 15.6001C24.96 15.7481 24.96 15.8965 24.9688 16.0445C24.964 16.0849 24.952 16.124 24.9333 16.1601Z" fill="#9E077E"/>
<path d="M24.5688 17.5023V17.129H24.7555H26.3733C26.5101 17.1277 26.6443 17.0911 26.7627 17.0225C26.8811 16.954 26.9797 16.8559 27.0488 16.7378C27.1305 16.5885 27.1675 16.4188 27.1555 16.249C27.1555 16.1067 27.1555 15.9645 27.1555 15.8134C27.2905 15.7868 27.4294 15.7868 27.5644 15.8134C27.568 15.831 27.568 15.8491 27.5644 15.8667C27.6002 16.1461 27.5821 16.4297 27.5111 16.7023C27.514 16.7229 27.514 16.7439 27.5111 16.7645C27.5111 16.8534 27.3955 16.9156 27.3866 17.0134C27.3752 17.0438 27.3569 17.0711 27.3333 17.0934C27.1492 17.3303 26.8826 17.489 26.5866 17.5378C26.4386 17.5467 26.2902 17.5467 26.1422 17.5378H24.7377L24.5688 17.5023Z" fill="#9E077E"/>
<path d="M28.2844 17.4578C28.1398 17.4757 27.9935 17.4757 27.8489 17.4578C27.8489 17.28 27.8489 14.5689 27.8489 14.4534H28.2667C28.3289 14.56 28.3289 17.3067 28.2844 17.4578Z" fill="#9E077E"/>
<path d="M28.5602 14.4355H29.049V17.4311C28.8842 17.4578 28.7161 17.4578 28.5513 17.4311C28.5513 16.9155 28.5513 16.4178 28.5513 15.92C28.5513 15.4222 28.5513 14.9422 28.5602 14.4355Z" fill="#9E077E"/>
<path d="M25.5555 16.1511C25.4133 16.1511 25.2888 16.2311 25.1555 16.1511C25.1383 15.9351 25.1383 15.7182 25.1555 15.5022C25.1625 15.4295 25.1906 15.3604 25.2364 15.3035C25.2822 15.2467 25.3437 15.2045 25.4133 15.1822L25.6355 15.0667H27.4133C27.4933 15.1822 27.5022 15.2355 27.4666 15.4666H27.2888H25.5999L25.4755 15.5555L25.5555 16.1511Z" fill="#9E077E"/>
<path d="M24.5688 16.8889V16.5334C24.6867 16.5157 24.8065 16.5157 24.9244 16.5334H26.4088L26.5155 16.4356C26.56 16.2311 26.5155 16.0178 26.56 15.8134H26.9333C26.9373 15.8577 26.9373 15.9023 26.9333 15.9467C26.9333 16.0889 26.9333 16.2311 26.9333 16.3734C26.9417 16.4024 26.9417 16.4332 26.9333 16.4622C26.8806 16.5923 26.802 16.7103 26.7022 16.8089C26.5968 16.8788 26.4731 16.9159 26.3466 16.9156H24.5688V16.8889Z" fill="#9E077E"/>
<path d="M12.7468 15.4311V15.5378V15.92C12.7451 15.9812 12.7645 16.041 12.8017 16.0896C12.8389 16.1381 12.8917 16.1724 12.9512 16.1867L13.3068 16.3111C13.3868 16.4178 13.3068 16.56 13.3068 16.72C13.1459 16.727 12.9861 16.6901 12.8446 16.6133L12.729 16.5333C12.6121 16.4767 12.5134 16.3883 12.4442 16.2783C12.3751 16.1683 12.3382 16.0411 12.3379 15.9111C12.3379 15.6178 12.3379 15.3156 12.3379 15.0222C12.3379 15.0222 12.3912 15.0222 12.409 15.0222H13.2979C13.3421 15.161 13.3421 15.3101 13.2979 15.4489C13.1468 15.44 12.9423 15.3956 12.7468 15.4311Z" fill="#9E077E"/>
<path d="M13.3334 14.3467C13.36 14.4846 13.36 14.6265 13.3334 14.7644H13.2445H12.4445C12.4107 14.7684 12.3765 14.762 12.3463 14.7461C12.3162 14.7303 12.2915 14.7057 12.2756 14.6756V13.36C12.3347 13.3296 12.4003 13.3137 12.4667 13.3137C12.5332 13.3137 12.5987 13.3296 12.6579 13.36V14.3289L13.3334 14.3467Z" fill="#9E077E"/>
<path d="M27.8135 13.4934C27.9735 13.3778 28.1423 13.4934 28.329 13.4312V14.16C28.1868 14.24 28.0268 14.16 27.8846 14.16C27.8584 14.1367 27.8377 14.1078 27.8238 14.0756C27.81 14.0433 27.8034 14.0084 27.8046 13.9734C27.8135 13.8489 27.8135 13.68 27.8135 13.4934Z" fill="#9E077E"/>
<path d="M28.5513 13.4312C28.7164 13.4079 28.8839 13.4079 29.049 13.4312V14.1156C28.8713 14.1156 28.7113 14.2223 28.5513 14.1156V13.4312Z" fill="#9E077E"/>
</g>
<defs>
<clipPath id="clip0_2707_298123">
<rect width="32" height="32" fill="white"/>
</clipPath>
</defs>
</svg>
