<svg width="32" height="32" viewBox="0 0 32 32" fill="none" xmlns="http://www.w3.org/2000/svg">
<g clip-path="url(#clip0_2707_298043)">
<path d="M16 31.9823C24.8268 31.9823 31.9823 24.8268 31.9823 16C31.9823 7.17331 24.8268 0.0178223 16 0.0178223C7.17331 0.0178223 0.0178223 7.17331 0.0178223 16C0.0178223 24.8268 7.17331 31.9823 16 31.9823Z" fill="white"/>
<path d="M6.87106 16.5067L5.76884 17.4844L5.43995 16.5422C5.25328 17.1733 5.10217 17.6978 4.95106 18.2222C4.54692 18.3525 4.12023 18.3978 3.69773 18.3555C4.07106 16.9689 4.4444 15.6267 4.82662 14.2222C5.07551 14.2222 5.30662 14.2222 5.54662 14.2222H6.31995C6.48884 14.7644 6.65773 15.3067 6.83551 15.8933C7.67106 15.2889 8.45328 14.6844 9.25328 14.1155C10.0533 13.5467 10.8977 13.04 11.7333 12.5333C10.3555 14.1155 6.57773 17.5644 5.21773 19.1733C6.7488 17.4512 8.46594 15.904 10.3377 14.56C9.99995 15.7778 9.69773 16.8978 9.37773 18.0444H8.15995C8.21328 17.8578 8.26662 17.6711 8.31106 17.4844C8.35551 17.2978 8.39106 17.1022 8.45328 16.8C6.60828 18.2814 4.85401 19.8725 3.19995 21.5644C3.24312 21.4488 3.29359 21.3359 3.35106 21.2267C4.18145 19.9732 5.0868 18.771 6.06217 17.6267C6.4444 17.1733 6.87106 16.7378 7.27106 16.32C7.41328 16.16 9.77773 14.1333 9.77773 14.1333" fill="url(#paint0_linear_2707_298043)"/>
<path d="M10.7556 15.4312L10.3822 17.9912H10L10.3822 15.4312H10.7556Z" fill="url(#paint1_linear_2707_298043)"/>
<path d="M12.8978 15.4312V15.7512H12.1156L11.7867 17.9912H11.4045L11.7333 15.7512H10.9333L10.9867 15.4312H12.8978Z" fill="url(#paint2_linear_2707_298043)"/>
<path d="M13.8933 15.4312C14.0833 15.4186 14.2709 15.479 14.4177 15.6001C14.4768 15.6595 14.523 15.7304 14.5536 15.8084C14.5841 15.8863 14.5984 15.9697 14.5955 16.0534C14.599 16.1008 14.599 16.1483 14.5955 16.1957C14.5684 16.3605 14.5012 16.5161 14.4 16.649C14.2855 16.7865 14.1296 16.8832 13.9555 16.9245L14.3644 17.9912H13.92L13.5466 16.9601H13.2444L13.1022 17.9912H12.72L13.1022 15.4312H13.8933ZM14.1955 16.1957C14.2042 16.1606 14.2042 16.124 14.1955 16.089C14.1987 16.0436 14.1925 15.9981 14.1772 15.9552C14.1619 15.9124 14.1379 15.8732 14.1066 15.8401C14.0287 15.7778 13.9307 15.7462 13.8311 15.7512H13.4222L13.2889 16.6401H13.7066C13.7664 16.6435 13.8262 16.635 13.8826 16.6152C13.9391 16.5954 13.991 16.5646 14.0355 16.5245C14.1386 16.4437 14.2057 16.3256 14.2222 16.1957H14.1955Z" fill="url(#paint3_linear_2707_298043)"/>
<path d="M16.0801 17.4667H15.1112L14.8712 17.9912H14.489L15.929 15.4312L16.5601 17.9912H16.1601L16.0801 17.4667ZM16.0001 17.1378L15.769 16.2045L15.2446 17.1378H16.0001Z" fill="url(#paint4_linear_2707_298043)"/>
<path d="M18.2223 16.2134C18.2262 16.306 18.2117 16.3984 18.1796 16.4854C18.1476 16.5723 18.0987 16.6521 18.0356 16.72C17.9629 16.7898 17.8761 16.8434 17.7811 16.8771C17.6861 16.9108 17.585 16.9239 17.4845 16.9156H17.0401V17.9645H16.8179V15.5023H17.4845C17.585 15.4945 17.6859 15.5079 17.7808 15.5416C17.8758 15.5753 17.9626 15.6285 18.0356 15.6978C18.0998 15.7668 18.1493 15.8481 18.1814 15.9366C18.2134 16.0252 18.2274 16.1193 18.2223 16.2134ZM17.4845 16.7023C17.8223 16.7023 18.0001 16.5423 18.0001 16.2134C18.0091 16.1439 18.0018 16.0733 17.979 16.0072C17.9561 15.941 17.9182 15.881 17.8683 15.8319C17.8183 15.7828 17.7577 15.746 17.6911 15.7242C17.6245 15.7025 17.5538 15.6965 17.4845 15.7067H17.0401V16.7023H17.4845Z" fill="black"/>
<path d="M18.8089 15.7068V16.5957H19.6444V16.8001H18.8089V17.7779H19.6978V17.9823H18.5867V15.5023H19.7333V15.7068H18.8089Z" fill="black"/>
<path d="M22.3112 15.5378V17.9645H22.0889V16.0001L21.3334 17.9645H21.1734L20.3912 16.0001V17.9378H20.1689V15.5378H20.4445L21.2801 17.6356L22.1245 15.5378H22.3112Z" fill="black"/>
<path d="M23.0223 15.5023V17.049C23.0077 17.2418 23.0612 17.4337 23.1734 17.5912C23.2278 17.6495 23.294 17.6955 23.3675 17.7262C23.4411 17.7568 23.5204 17.7714 23.6001 17.769C23.6799 17.7726 23.7595 17.7586 23.8333 17.7278C23.9071 17.6971 23.9731 17.6504 24.0267 17.5912C24.139 17.4337 24.1925 17.2418 24.1778 17.049V15.5023H24.4001V17.049C24.4158 17.3025 24.3366 17.5529 24.1778 17.7512C24.0245 17.9043 23.8167 17.9903 23.6001 17.9903C23.3834 17.9903 23.1756 17.9043 23.0223 17.7512C22.8635 17.5529 22.7843 17.3025 22.8001 17.049V15.5023H23.0223Z" fill="black"/>
<path d="M25.5378 15.5023C25.7549 15.4971 25.9695 15.5492 26.16 15.6534C26.3377 15.7464 26.4786 15.8968 26.56 16.0801C26.6578 16.2854 26.7065 16.5105 26.7023 16.7379C26.7055 16.9651 26.6569 17.1901 26.56 17.3956C26.477 17.5756 26.3362 17.7226 26.16 17.8134C25.9695 17.9176 25.7549 17.9697 25.5378 17.9645H24.8889V15.5023H25.5378ZM25.5378 17.7601C25.6658 17.7683 25.794 17.7487 25.9137 17.7026C26.0333 17.6566 26.1416 17.5852 26.2311 17.4934C26.4006 17.2792 26.4859 17.0105 26.4711 16.7379C26.4876 16.465 26.4021 16.1957 26.2311 15.9823C26.1424 15.8889 26.0345 15.8158 25.9148 15.7683C25.7951 15.7207 25.6664 15.6997 25.5378 15.7067H25.1022V17.7779L25.5378 17.7601Z" fill="black"/>
<path d="M28.3734 17.3778H27.3778L27.1823 17.9645H26.9512L27.7512 15.5378H28.0001L28.8001 17.9645H28.5689L28.3734 17.3778ZM28.3112 17.1734L27.8756 15.8401L27.4401 17.1734H28.3112Z" fill="black"/>
</g>
<defs>
<linearGradient id="paint0_linear_2707_298043" x1="7.75364" y1="13.8297" x2="7.75364" y2="18.0252" gradientUnits="userSpaceOnUse">
<stop stop-color="#DC0000"/>
<stop offset="1" stop-color="#7D0000"/>
</linearGradient>
<linearGradient id="paint1_linear_2707_298043" x1="10.6726" y1="13.8297" x2="10.6726" y2="18.0253" gradientUnits="userSpaceOnUse">
<stop stop-color="#DC0000"/>
<stop offset="1" stop-color="#7D0000"/>
</linearGradient>
<linearGradient id="paint2_linear_2707_298043" x1="12.2069" y1="13.8297" x2="12.2069" y2="18.0253" gradientUnits="userSpaceOnUse">
<stop stop-color="#DC0000"/>
<stop offset="1" stop-color="#7D0000"/>
</linearGradient>
<linearGradient id="paint3_linear_2707_298043" x1="13.9657" y1="13.8298" x2="13.9657" y2="18.0253" gradientUnits="userSpaceOnUse">
<stop stop-color="#DC0000"/>
<stop offset="1" stop-color="#7D0000"/>
</linearGradient>
<linearGradient id="paint4_linear_2707_298043" x1="15.837" y1="13.8297" x2="15.837" y2="18.0253" gradientUnits="userSpaceOnUse">
<stop stop-color="#DC0000"/>
<stop offset="1" stop-color="#7D0000"/>
</linearGradient>
<clipPath id="clip0_2707_298043">
<rect width="32" height="32" fill="white"/>
</clipPath>
</defs>
</svg>
