<svg width="32" height="32" viewBox="0 0 32 32" fill="none" xmlns="http://www.w3.org/2000/svg">
<g clip-path="url(#clip0_2707_297838)">
<path d="M16 31.9822C24.8268 31.9822 31.9823 24.8267 31.9823 16C31.9823 7.17325 24.8268 0.0177612 16 0.0177612C7.17331 0.0177612 0.0178223 7.17325 0.0178223 16C0.0178223 24.8267 7.17331 31.9822 16 31.9822Z" fill="white"/>
<path d="M3.7333 10.8089H12.32C12.3243 10.8503 12.3243 10.892 12.32 10.9333C12.32 12.6311 12.32 14.3289 12.32 16.0356C12.3101 16.3021 12.2744 16.5671 12.2133 16.8267C12.1354 17.2261 12.0163 17.6163 11.8577 17.9911C11.6697 18.4459 11.4215 18.8734 11.12 19.2622C10.932 19.4991 10.727 19.7219 10.5066 19.9289C9.87843 20.5357 9.09861 20.9625 8.24886 21.1645C8.03707 21.2269 7.81175 21.2269 7.59997 21.1645C6.926 20.9546 6.3047 20.603 5.77775 20.1333C5.19354 19.6425 4.71565 19.0375 4.3733 18.3556C4.14201 17.8905 3.97171 17.3976 3.86663 16.8889C3.7691 16.4544 3.72433 16.0097 3.7333 15.5645V10.8089ZM4.26664 11.3067V15.5911C4.26347 15.952 4.29622 16.3123 4.36441 16.6667C4.44604 17.1351 4.59264 17.5899 4.79997 18.0178C5.15098 18.778 5.70455 19.4269 6.39997 19.8933C6.87564 20.2032 7.39358 20.4427 7.93775 20.6045C8.00406 20.6268 8.07588 20.6268 8.14219 20.6045C8.43552 20.4978 8.73775 20.4 9.03108 20.2667C9.74408 19.9288 10.3568 19.4111 10.8089 18.7645C11.1793 18.2254 11.4475 17.6228 11.6 16.9867C11.7055 16.6671 11.7712 16.3357 11.7955 16C11.7955 14.4978 11.7955 12.9867 11.7955 11.4756C11.7955 11.4756 11.7955 11.3867 11.7955 11.3511L4.26664 11.3067Z" fill="#1372B8"/>
<path d="M15.2979 11.7422C15.3453 11.6591 15.4138 11.5899 15.4966 11.5419C15.5793 11.4938 15.6733 11.4684 15.769 11.4684C15.8647 11.4684 15.9587 11.4938 16.0414 11.5419C16.1242 11.5899 16.1927 11.6591 16.2401 11.7422L16.3468 11.6267C16.4339 11.5437 16.5433 11.4877 16.6617 11.4656C16.78 11.4436 16.9022 11.4563 17.0134 11.5022C17.0976 11.5318 17.1711 11.5855 17.2249 11.6567C17.2786 11.7278 17.3102 11.8132 17.3157 11.9022C17.3157 12.0978 17.3157 12.2933 17.3157 12.4889C17.3246 12.6339 17.3246 12.7794 17.3157 12.9245C17.3243 12.9893 17.3243 13.0551 17.3157 13.12C17.2956 13.1713 17.2573 13.2134 17.208 13.238C17.1587 13.2627 17.1021 13.2681 17.049 13.2533C17.005 13.2452 16.9651 13.2223 16.936 13.1883C16.9069 13.1543 16.8903 13.1114 16.889 13.0667C16.889 12.8533 16.889 12.6489 16.889 12.4356C16.889 12.2222 16.889 12.2489 16.889 12.16C16.889 12.0711 16.7646 11.8933 16.6223 11.9022C16.5485 11.9068 16.4793 11.94 16.4295 11.9948C16.3797 12.0496 16.3532 12.1216 16.3557 12.1956V12.96C16.3681 13.0126 16.3681 13.0674 16.3557 13.12C16.3477 13.1468 16.3343 13.1716 16.3163 13.193C16.2983 13.2144 16.2762 13.2319 16.2512 13.2444C16.2262 13.2569 16.1989 13.2641 16.171 13.2657C16.1431 13.2672 16.1152 13.263 16.089 13.2533C16.0396 13.2427 15.9958 13.214 15.9663 13.173C15.9367 13.1319 15.9235 13.0814 15.929 13.0311C15.929 12.7822 15.929 12.5422 15.929 12.2933C15.9332 12.2312 15.9332 12.1688 15.929 12.1067C15.9204 12.0494 15.8914 11.9971 15.8473 11.9595C15.8032 11.9219 15.7469 11.9016 15.689 11.9022C15.6294 11.8968 15.5699 11.9139 15.5222 11.95C15.4745 11.9862 15.4421 12.0389 15.4312 12.0978C15.427 12.1599 15.427 12.2223 15.4312 12.2845V13.0311C15.4342 13.063 15.4299 13.0951 15.4187 13.1251C15.4076 13.1551 15.3898 13.1822 15.3668 13.2044C15.3437 13.2265 15.316 13.2433 15.2856 13.2533C15.2552 13.2633 15.2229 13.2664 15.1912 13.2622C15.1307 13.2577 15.0741 13.2305 15.0329 13.1859C14.9917 13.1414 14.9688 13.0829 14.969 13.0222C14.969 12.9067 14.969 12.7822 14.969 12.6578V11.7245C14.9693 11.6648 14.9897 11.607 15.0267 11.5603C15.0638 11.5135 15.1154 11.4806 15.1734 11.4667C15.2311 11.4644 15.2878 11.4816 15.3346 11.5155C15.3813 11.5493 15.4153 11.5979 15.4312 11.6533C15.3966 11.6955 15.3502 11.7265 15.2979 11.7422Z" fill="#3E3E3E"/>
<path d="M21.1824 12.2311C21.1959 12.1918 21.1994 12.1498 21.1925 12.1088C21.1856 12.0679 21.1685 12.0293 21.1429 11.9966C21.1173 11.9639 21.0839 11.9381 21.0457 11.9216C21.0076 11.9052 20.966 11.8985 20.9246 11.9022C20.8005 11.8891 20.6753 11.8891 20.5513 11.9022C20.409 11.9022 20.3468 11.9022 20.2935 11.7956C20.2869 11.7699 20.2857 11.7431 20.2898 11.7169C20.2939 11.6907 20.3034 11.6656 20.3175 11.6431C20.3316 11.6207 20.3502 11.6013 20.372 11.5863C20.3939 11.5712 20.4186 11.5608 20.4446 11.5556C20.5424 11.5166 20.6435 11.4869 20.7468 11.4667C20.9468 11.443 21.1495 11.4737 21.3335 11.5556C21.4066 11.5949 21.4706 11.6493 21.5212 11.7152C21.5718 11.7811 21.6078 11.8569 21.6268 11.9378C21.6442 12.0437 21.6442 12.1518 21.6268 12.2578C21.6268 12.4978 21.6268 12.7378 21.6268 12.9689C21.6369 13.0218 21.6369 13.076 21.6268 13.1289C21.6185 13.1697 21.5962 13.2062 21.5637 13.2322C21.5312 13.2582 21.4906 13.272 21.449 13.2711C21.3512 13.2711 21.2535 13.2711 21.2179 13.1467C21.1152 13.2352 20.9936 13.2991 20.8624 13.3333C20.7821 13.3548 20.698 13.3579 20.6164 13.3423C20.5348 13.3267 20.4577 13.2928 20.391 13.2432C20.3243 13.1936 20.2697 13.1296 20.2313 13.0559C20.1929 12.9823 20.1716 12.9008 20.169 12.8178C20.1629 12.7489 20.1705 12.6794 20.1914 12.6135C20.2123 12.5475 20.246 12.4863 20.2906 12.4334C20.3352 12.3805 20.3899 12.337 20.4514 12.3053C20.5129 12.2737 20.5801 12.2545 20.649 12.2489C20.8238 12.2071 21.0052 12.201 21.1824 12.2311ZM21.2357 12.5511H21.1557C21.0872 12.5205 21.013 12.5046 20.9379 12.5046C20.8629 12.5046 20.7887 12.5205 20.7201 12.5511C20.6797 12.5685 20.6462 12.599 20.6253 12.6377C20.6043 12.6764 20.597 12.7211 20.6046 12.7645C20.6022 12.8026 20.6121 12.8404 20.633 12.8725C20.6538 12.9045 20.6843 12.9289 20.7201 12.9422C20.8256 12.9645 20.9346 12.9645 21.0401 12.9422C21.2001 12.8889 21.209 12.7467 21.2268 12.5956L21.2357 12.5511Z" fill="#3E3E3E"/>
<path d="M18.6045 13.0845C18.5103 13.1802 18.3895 13.2452 18.2578 13.2711C18.1072 13.3091 17.9477 13.2868 17.8134 13.2089C17.727 13.1602 17.6572 13.0867 17.6129 12.998C17.5685 12.9094 17.5517 12.8094 17.5645 12.7111C17.5644 12.5751 17.6172 12.4443 17.7117 12.3464C17.8063 12.2486 17.9352 12.1913 18.0711 12.1867C18.2449 12.1595 18.4218 12.1595 18.5956 12.1867C18.5956 11.9733 18.5334 11.8578 18.3378 11.8578C18.2137 11.8447 18.0886 11.8447 17.9645 11.8578C17.8134 11.8578 17.76 11.8578 17.7067 11.7333C17.7016 11.7099 17.7016 11.6857 17.7067 11.6622C17.7177 11.6197 17.7428 11.5821 17.7778 11.5556C17.9186 11.4969 18.0697 11.4667 18.2223 11.4667C18.3748 11.4667 18.5259 11.4969 18.6667 11.5556C18.728 11.5826 18.7832 11.6217 18.829 11.6706C18.8749 11.7195 18.9103 11.7771 18.9334 11.84C18.9707 11.9584 18.9945 12.0807 19.0045 12.2045C19.0045 12.48 19.0045 12.7467 19.0045 13.0133C19.0045 13.28 18.8978 13.2978 18.72 13.2622C18.5423 13.2267 18.6667 13.2178 18.6045 13.0845ZM18.6045 12.5333H18.5511C18.4208 12.4935 18.2815 12.4935 18.1511 12.5333C18.104 12.5465 18.0623 12.5742 18.032 12.6125C18.0016 12.6509 17.9842 12.6978 17.9823 12.7467C17.9821 12.79 17.9946 12.8325 18.0183 12.8688C18.042 12.9052 18.0758 12.9338 18.1156 12.9511C18.1774 13.0018 18.2544 13.0302 18.3343 13.0317C18.4142 13.0333 18.4922 13.0079 18.5559 12.9596C18.6196 12.9113 18.6652 12.843 18.6853 12.7657C18.7053 12.6884 18.6988 12.6065 18.6667 12.5333H18.6045Z" fill="#3E3E3E"/>
<path d="M26.2401 12.2311C26.2401 12.0267 26.1334 11.9022 25.9468 11.9022C25.8286 11.8886 25.7093 11.8886 25.5912 11.9022C25.4579 11.9022 25.3512 11.9022 25.3245 11.7956C25.3118 11.7684 25.3055 11.7387 25.306 11.7088C25.3066 11.6788 25.314 11.6494 25.3278 11.6227C25.3415 11.5961 25.3612 11.573 25.3853 11.5552C25.4094 11.5374 25.4373 11.5253 25.4668 11.52C25.6072 11.4598 25.7584 11.4288 25.9112 11.4288C26.064 11.4288 26.2152 11.4598 26.3557 11.52C26.44 11.5655 26.5113 11.6319 26.5627 11.7128C26.614 11.7938 26.6437 11.8865 26.649 11.9822C26.649 12.32 26.649 12.6578 26.649 12.9956C26.649 13.2 26.489 13.2444 26.3468 13.2089C26.2045 13.1733 26.2401 13.1111 26.1868 13.0667C26.0784 13.126 25.9655 13.1766 25.849 13.2178C25.7533 13.2479 25.6511 13.2509 25.5538 13.2263C25.4565 13.2018 25.3679 13.1508 25.2979 13.079C25.2279 13.0071 25.1792 12.9172 25.1572 12.8193C25.1352 12.7214 25.1409 12.6193 25.1734 12.5244C25.1974 12.4243 25.2525 12.3342 25.3307 12.2672C25.4089 12.2001 25.5063 12.1595 25.609 12.1511C25.8227 12.1272 26.0391 12.1546 26.2401 12.2311ZM26.2401 12.5333C26.096 12.4846 25.9398 12.4846 25.7957 12.5333C25.7519 12.5467 25.7135 12.5738 25.6863 12.6106C25.6591 12.6474 25.6445 12.692 25.6445 12.7378C25.6445 12.8444 25.6445 12.9422 25.7601 12.9511C25.8601 12.9684 25.9623 12.9684 26.0623 12.9511C26.2223 12.8978 26.2668 12.7644 26.2401 12.5867V12.5333Z" fill="#3E3E3E"/>
<path d="M18.2312 16.9778C18.1387 17.0949 18.0109 17.1791 17.8667 17.2178C17.7501 17.2429 17.6285 17.2275 17.5219 17.1741C17.4152 17.1208 17.3299 17.0327 17.28 16.9244C17.2373 16.8264 17.216 16.7203 17.2178 16.6133V15.7244C17.209 15.6804 17.209 15.6351 17.2178 15.5911C17.2356 15.5381 17.2707 15.4926 17.3174 15.462C17.3642 15.4313 17.4199 15.4173 17.4756 15.4222C17.5305 15.4374 17.5791 15.4697 17.6143 15.5145C17.6495 15.5593 17.6694 15.6142 17.6712 15.6711V16.4356C17.6627 16.4886 17.6627 16.5426 17.6712 16.5956C17.688 16.6595 17.7287 16.7145 17.785 16.7493C17.8412 16.784 17.9087 16.7958 17.9734 16.7822C18.0377 16.7699 18.0959 16.7358 18.138 16.6856C18.1801 16.6354 18.2036 16.5722 18.2045 16.5067C18.2045 16.2489 18.2045 16 18.2045 15.7422C18.196 15.6862 18.196 15.6293 18.2045 15.5733C18.2208 15.5224 18.255 15.4791 18.3007 15.4513C18.3465 15.4236 18.4007 15.4132 18.4534 15.4222C18.5038 15.4351 18.549 15.4634 18.5825 15.5033C18.6159 15.5432 18.6361 15.5925 18.64 15.6444V16.9778C18.6456 17.028 18.6323 17.0786 18.6027 17.1196C18.5732 17.1607 18.5295 17.1893 18.48 17.2C18.4302 17.2166 18.376 17.2151 18.3272 17.1955C18.2783 17.176 18.238 17.1398 18.2134 17.0933L18.2312 16.9778Z" fill="#3E3E3E"/>
<path d="M19.6179 15.4133C19.7933 15.4076 19.9666 15.454 20.1157 15.5466C20.1408 15.5568 20.1636 15.5722 20.1824 15.5916C20.2013 15.6111 20.216 15.6343 20.2254 15.6597C20.2349 15.6852 20.2389 15.7123 20.2373 15.7394C20.2357 15.7665 20.2285 15.7929 20.2161 15.8171C20.2037 15.8412 20.1865 15.8625 20.1654 15.8796C20.1443 15.8967 20.12 15.9093 20.0938 15.9164C20.0676 15.9236 20.0402 15.9252 20.0134 15.9213C19.9866 15.9173 19.9609 15.9078 19.9379 15.8933C19.8493 15.8544 19.757 15.8246 19.6623 15.8044C19.6387 15.7933 19.6129 15.7876 19.5868 15.7876C19.5607 15.7876 19.5349 15.7933 19.5112 15.8044C19.4892 15.8087 19.4697 15.8212 19.4565 15.8394C19.4433 15.8575 19.4375 15.8799 19.4401 15.9022C19.4396 15.9183 19.4434 15.9343 19.4513 15.9484C19.4591 15.9624 19.4706 15.9741 19.4846 15.9822C19.5235 16.0171 19.5687 16.0443 19.6179 16.0622C19.7663 16.1199 19.9117 16.1852 20.0535 16.2578C20.1386 16.3076 20.2043 16.3848 20.2399 16.4769C20.2754 16.5689 20.2786 16.6703 20.249 16.7644C20.2326 16.8425 20.2003 16.9163 20.154 16.9813C20.1076 17.0462 20.0484 17.1008 19.9799 17.1418C19.9114 17.1827 19.8352 17.209 19.7561 17.219C19.677 17.229 19.5966 17.2225 19.5201 17.2C19.3533 17.1762 19.193 17.1187 19.049 17.0311C19.0191 17.0193 18.9928 17 18.9726 16.9751C18.9523 16.9502 18.9389 16.9205 18.9335 16.8889C18.9273 16.8537 18.9298 16.8175 18.9406 16.7835C18.9515 16.7494 18.9703 16.7185 18.9957 16.6933C19.0278 16.6737 19.0647 16.6633 19.1023 16.6633C19.14 16.6633 19.1769 16.6737 19.209 16.6933C19.3055 16.7467 19.4067 16.7913 19.5112 16.8266C19.5782 16.8444 19.6487 16.8444 19.7157 16.8266C19.7316 16.8279 19.7476 16.8258 19.7626 16.8205C19.7777 16.8153 19.7915 16.807 19.8032 16.7961C19.8149 16.7853 19.8242 16.7721 19.8306 16.7575C19.8369 16.7428 19.8402 16.727 19.8401 16.7111C19.8434 16.6843 19.8373 16.6571 19.8226 16.6344C19.808 16.6116 19.7859 16.5948 19.7601 16.5866L19.4223 16.4711C19.3382 16.4481 19.2602 16.4067 19.1941 16.3498C19.128 16.2929 19.0754 16.222 19.0401 16.1422C19.0107 16.0606 19.0009 15.9732 19.0116 15.8872C19.0223 15.8011 19.0532 15.7188 19.1017 15.6469C19.1502 15.575 19.215 15.5156 19.2908 15.4734C19.3666 15.4313 19.4512 15.4077 19.5379 15.4044L19.6179 15.4133Z" fill="#3E3E3E"/>
<path d="M24.4267 11.4667C24.605 11.4588 24.7806 11.5121 24.9245 11.6178C24.9539 11.6402 24.9778 11.6691 24.9943 11.7022C25.0107 11.7354 25.0193 11.7719 25.0193 11.8089C25.0193 11.8459 25.0107 11.8824 24.9943 11.9156C24.9778 11.9487 24.9539 11.9776 24.9245 12C24.8846 12.0296 24.8363 12.0456 24.7867 12.0456C24.737 12.0456 24.6887 12.0296 24.6489 12C24.5869 11.9578 24.5176 11.9276 24.4444 11.9111C24.2222 11.8667 24.0711 11.9911 24 12.24C23.9648 12.356 23.9723 12.4808 24.0213 12.5917C24.0702 12.7026 24.1573 12.7922 24.2667 12.8444C24.3212 12.8687 24.3803 12.8812 24.44 12.8812C24.4997 12.8812 24.5588 12.8687 24.6133 12.8444C24.6527 12.8147 24.6943 12.7879 24.7378 12.7644C24.7667 12.7555 24.7977 12.7555 24.8267 12.7644C24.8709 12.7642 24.9136 12.7805 24.9465 12.8101C24.9794 12.8397 25 12.8804 25.0044 12.9244C25.0158 12.9671 25.0152 13.0121 25.0027 13.0544C24.9901 13.0968 24.9661 13.1349 24.9333 13.1644C24.7945 13.276 24.6254 13.3432 24.4479 13.3575C24.2703 13.3717 24.0926 13.3324 23.9378 13.2444C23.8334 13.1784 23.7439 13.0913 23.675 12.9888C23.6062 12.8863 23.5594 12.7705 23.5378 12.6489C23.4933 12.4829 23.4933 12.3082 23.5378 12.1422C23.5766 11.9398 23.6888 11.7589 23.8528 11.6342C24.0169 11.5095 24.2213 11.4498 24.4267 11.4667Z" fill="#3E3E3E"/>
<path d="M22.8001 11.4666C22.9784 11.4587 23.1541 11.5121 23.2979 11.6178C23.3274 11.6401 23.3513 11.669 23.3677 11.7022C23.3842 11.7353 23.3927 11.7719 23.3927 11.8089C23.3927 11.8459 23.3842 11.8824 23.3677 11.9155C23.3513 11.9487 23.3274 11.9776 23.2979 12C23.2601 12.0303 23.213 12.0468 23.1646 12.0468C23.1161 12.0468 23.0691 12.0303 23.0312 12C22.9669 11.9561 22.8943 11.9258 22.8179 11.9111C22.6046 11.9111 22.4534 11.9822 22.3734 12.24C22.3369 12.357 22.3448 12.4834 22.3956 12.5949C22.4465 12.7064 22.5367 12.7953 22.649 12.8444C22.7021 12.8685 22.7596 12.8809 22.8179 12.8809C22.8761 12.8809 22.9337 12.8685 22.9868 12.8444C23.0262 12.8146 23.0678 12.7879 23.1112 12.7644C23.1432 12.7553 23.177 12.7553 23.209 12.7644C23.2467 12.7646 23.2834 12.7767 23.3138 12.7991C23.3441 12.8214 23.3666 12.8529 23.3779 12.8889C23.3929 12.9333 23.395 12.9811 23.384 13.0267C23.373 13.0723 23.3493 13.1139 23.3157 13.1466C23.1787 13.261 23.0105 13.3314 22.8329 13.3489C22.6554 13.3663 22.4767 13.3299 22.3201 13.2444C22.2157 13.1784 22.1262 13.0913 22.0574 12.9888C21.9885 12.8862 21.9417 12.7705 21.9201 12.6489C21.8665 12.4842 21.8665 12.3068 21.9201 12.1422C21.9531 11.9386 22.0625 11.7554 22.2261 11.6298C22.3896 11.5042 22.595 11.4459 22.8001 11.4666Z" fill="#3E3E3E"/>
<path d="M20.56 15.8666C20.4089 15.8666 20.3467 15.7689 20.3378 15.6533C20.3289 15.5377 20.4089 15.4666 20.5689 15.4311V15.2177C20.5663 15.1546 20.5878 15.0928 20.6291 15.0449C20.6704 14.9971 20.7283 14.9667 20.7912 14.96C20.8564 14.9645 20.9175 14.9936 20.962 15.0415C21.0066 15.0893 21.0313 15.1523 21.0312 15.2177C21.0356 15.2917 21.0356 15.366 21.0312 15.44H21.1823C21.3512 15.44 21.4312 15.5022 21.4312 15.6355C21.4312 15.7689 21.3512 15.84 21.1823 15.8488H21.0312V16.6488C21.0312 16.7288 21.0845 16.7644 21.1734 16.7644C21.2146 16.7581 21.2568 16.7639 21.2947 16.7813C21.3326 16.7987 21.3646 16.8268 21.3867 16.8622C21.4067 16.8899 21.4195 16.9221 21.4238 16.956C21.4281 16.9898 21.4239 17.0242 21.4116 17.056C21.3992 17.0879 21.379 17.1161 21.353 17.1381C21.3269 17.1601 21.2957 17.1753 21.2623 17.1822C21.1189 17.2353 20.9612 17.2353 20.8178 17.1822C20.7357 17.1558 20.6656 17.101 20.6201 17.0278C20.5745 16.9546 20.5564 16.8675 20.5689 16.7822C20.5689 16.4977 20.5689 16.2222 20.5689 15.9377C20.5698 15.9137 20.5668 15.8897 20.56 15.8666Z" fill="#3E3E3E"/>
<path d="M14.8889 15.8667C14.7378 15.8133 14.6934 15.76 14.6934 15.6533C14.6934 15.5467 14.7822 15.4667 14.88 15.4311C14.9778 15.3956 14.88 15.2356 14.9245 15.1378C14.9286 15.1098 14.9381 15.0828 14.9526 15.0585C14.9671 15.0342 14.9863 15.013 15.009 14.9961C15.0317 14.9791 15.0575 14.9668 15.0849 14.9599C15.1124 14.953 15.1409 14.9515 15.1689 14.9556C15.1969 14.9597 15.2239 14.9692 15.2482 14.9837C15.2725 14.9982 15.2937 15.0173 15.3107 15.04C15.3276 15.0627 15.3399 15.0886 15.3468 15.116C15.3537 15.1434 15.3552 15.172 15.3511 15.2V15.4489H15.5911C15.6157 15.4489 15.6399 15.4537 15.6626 15.4631C15.6852 15.4725 15.7058 15.4862 15.7231 15.5036C15.7405 15.5209 15.7542 15.5415 15.7636 15.5641C15.773 15.5868 15.7778 15.6111 15.7778 15.6356C15.778 15.6845 15.7599 15.7317 15.7269 15.7679C15.694 15.8041 15.6487 15.8267 15.6 15.8311C15.5201 15.8356 15.44 15.8356 15.36 15.8311V16.5156C15.3557 16.5629 15.3557 16.6105 15.36 16.6578C15.36 16.7289 15.4045 16.7645 15.4845 16.7556H15.5645C15.6023 16.7633 15.6375 16.7804 15.667 16.8052C15.6965 16.83 15.7193 16.8619 15.7334 16.8978C15.7512 16.9421 15.753 16.9912 15.7383 17.0367C15.7237 17.0822 15.6937 17.1211 15.6534 17.1467C15.5022 17.2267 15.12 17.2533 15.0045 17.0667C14.9563 17.0071 14.9228 16.9371 14.9067 16.8622C14.9067 16.6756 14.9067 16.48 14.9067 16.2933C14.9067 16.1067 14.8889 16 14.8889 15.8667Z" fill="#3E3E3E"/>
<path d="M26.9777 20.4444C26.9682 20.5392 26.9847 20.6348 27.0254 20.7209C27.0661 20.8071 27.1295 20.8805 27.2088 20.9333C27.2994 20.9901 27.4041 21.0202 27.511 21.0202C27.6179 21.0202 27.7227 20.9901 27.8133 20.9333L27.9199 20.8711C27.9388 20.8559 27.9624 20.8477 27.9866 20.8477C28.0108 20.8477 28.0343 20.8559 28.0533 20.8711C28.0977 20.9244 28.0533 20.9689 28.0533 21.0044C27.9609 21.0922 27.8493 21.1572 27.7274 21.1943C27.6055 21.2313 27.4766 21.2394 27.351 21.2177C27.179 21.1913 27.0234 21.1003 26.9161 20.9632C26.8087 20.8262 26.7577 20.6534 26.7733 20.48C26.7743 20.2783 26.8325 20.0811 26.941 19.9112C27.0496 19.7413 27.2041 19.6057 27.3866 19.52C27.5122 19.451 27.6577 19.4275 27.7986 19.4534C27.9395 19.4794 28.0671 19.5531 28.1599 19.6622C28.2469 19.753 28.2948 19.8743 28.2933 20V20.2311C28.2933 20.3911 28.2488 20.4355 28.0888 20.4355H27.0221L26.9777 20.4444ZM28.0355 20.2311C28.0444 20.1394 28.0444 20.0472 28.0355 19.9555C28.0278 19.8894 27.9997 19.8273 27.9551 19.778C27.9105 19.7286 27.8516 19.6943 27.7866 19.68C27.7133 19.6582 27.6361 19.6533 27.5607 19.6656C27.4852 19.6779 27.4136 19.7071 27.351 19.7511C27.1851 19.8625 27.07 20.035 27.031 20.2311H28.0355Z" fill="#3E3E3E"/>
<path d="M22.6312 20.9156C22.5058 21.0544 22.3362 21.1455 22.1512 21.1733C22.0674 21.194 21.9796 21.1917 21.897 21.1667C21.8144 21.1417 21.7401 21.0949 21.6819 21.0312C21.6237 20.9675 21.5837 20.8893 21.5662 20.8049C21.5486 20.7204 21.5542 20.6327 21.5823 20.5511C21.6189 20.4212 21.6968 20.3067 21.8043 20.2249C21.9117 20.1431 22.0428 20.0985 22.1778 20.0978C22.3545 20.0798 22.5329 20.0979 22.7023 20.1511C22.8267 20.1511 22.8445 20.1511 22.8623 20.0356C22.8623 19.7156 22.5956 19.6178 22.3556 19.6445C22.2578 19.6445 22.1601 19.6445 22.0623 19.6978C21.9645 19.7511 21.9556 19.6978 21.9289 19.6356C21.9023 19.5733 21.9289 19.5289 22.0267 19.5022C22.2638 19.4267 22.5185 19.4267 22.7556 19.5022C22.8177 19.5205 22.8756 19.551 22.9258 19.5918C22.9761 19.6327 23.0177 19.6831 23.0483 19.7402C23.0789 19.7972 23.0978 19.8598 23.104 19.9242C23.1103 19.9887 23.1036 20.0537 23.0845 20.1156C23.0223 20.4267 22.9334 20.7378 22.8534 21.0489C22.8534 21.0489 22.8534 21.0933 22.8534 21.12C22.8493 21.1335 22.8427 21.146 22.8337 21.1568C22.8248 21.1677 22.8139 21.1766 22.8015 21.1833C22.7891 21.1899 22.7755 21.194 22.7616 21.1953C22.7476 21.1967 22.7335 21.1952 22.7201 21.1911C22.6578 21.1911 22.6489 21.1378 22.6489 21.0845C22.6518 21.0276 22.6458 20.9706 22.6312 20.9156ZM22.7912 20.3822C22.7912 20.3822 22.7912 20.3822 22.7467 20.3822C22.5502 20.3275 22.3447 20.3124 22.1423 20.3378C22.0789 20.344 22.018 20.3659 21.9652 20.4016C21.9124 20.4373 21.8694 20.4857 21.8401 20.5422C21.8037 20.5944 21.7843 20.6564 21.7843 20.72C21.7843 20.7836 21.8037 20.8456 21.8401 20.8978C21.8761 20.9468 21.9253 20.9845 21.982 21.0066C22.0386 21.0286 22.1004 21.034 22.1601 21.0222C22.2794 21.0108 22.3932 20.9666 22.4889 20.8944C22.5846 20.8222 22.6585 20.7249 22.7023 20.6133C22.7409 20.5401 22.7707 20.4625 22.7912 20.3822Z" fill="#3E3E3E"/>
<path d="M19.8756 12.0444V13.0222C19.8756 13.2 19.7867 13.2711 19.6089 13.2622C19.5705 13.2561 19.5344 13.2397 19.5047 13.2146C19.4749 13.1896 19.4525 13.1568 19.44 13.12C19.4308 13.0581 19.4308 12.9952 19.44 12.9333C19.44 12.3407 19.44 11.7481 19.44 11.1555C19.4314 11.0966 19.4314 11.0367 19.44 10.9777C19.4547 10.9252 19.4881 10.8798 19.534 10.8503C19.5799 10.8208 19.635 10.8092 19.6889 10.8177C19.7408 10.8243 19.7884 10.8496 19.8228 10.8889C19.8572 10.9282 19.876 10.9788 19.8756 11.0311V12.0266V12.0444Z" fill="#3E3E3E"/>
<path d="M16.4889 15.6978L16.6755 15.4755C16.6997 15.4462 16.733 15.4259 16.77 15.4179C16.8071 15.4098 16.8459 15.4145 16.88 15.4311C16.9216 15.4397 16.9585 15.4637 16.9832 15.4983C17.0079 15.5329 17.0187 15.5756 17.0133 15.6178C17.0133 15.7867 17.0133 15.84 16.8444 15.8933C16.7321 15.9294 16.6354 16.0029 16.5707 16.1015C16.506 16.2002 16.4771 16.3181 16.4889 16.4355C16.4889 16.6133 16.4889 16.8 16.4889 16.9778C16.4909 17.0118 16.4851 17.0459 16.4719 17.0774C16.4587 17.1088 16.4384 17.1368 16.4126 17.1592C16.3868 17.1815 16.3562 17.1976 16.3232 17.2062C16.2902 17.2149 16.2556 17.2158 16.2222 17.2089C16.1635 17.1944 16.1118 17.1598 16.076 17.111C16.0403 17.0623 16.0228 17.0025 16.0266 16.9422V15.68C16.0242 15.6154 16.0469 15.5524 16.09 15.5043C16.1332 15.4562 16.1933 15.4268 16.2578 15.4222C16.3822 15.4222 16.4711 15.52 16.4889 15.6711V15.6978Z" fill="#3E3E3E"/>
<path d="M16 19.6889C16.1076 19.558 16.2538 19.4646 16.4178 19.4222C16.4879 19.4036 16.5612 19.4009 16.6325 19.4141C16.7038 19.4274 16.7712 19.4564 16.8299 19.4989C16.8887 19.5414 16.9372 19.5965 16.972 19.6601C17.0068 19.7237 17.027 19.7943 17.0312 19.8666C17.0344 20.0295 17.0104 20.1917 16.96 20.3466C16.9156 20.5689 16.8534 20.7822 16.8 20.9955C16.7467 21.2089 16.7112 21.1733 16.6312 21.1644C16.5512 21.1555 16.5423 21.0666 16.5689 20.9511C16.5956 20.8355 16.7023 20.48 16.7467 20.24C16.7829 20.1242 16.7829 20.0002 16.7467 19.8844C16.718 19.7967 16.6571 19.7231 16.5762 19.6786C16.4954 19.634 16.4006 19.6218 16.3112 19.6444C16.1531 19.6945 16.0197 19.8024 15.9378 19.9466C15.8449 20.135 15.7791 20.3355 15.7423 20.5422C15.7423 20.6844 15.68 20.8355 15.6445 20.9866C15.6494 21.0191 15.6494 21.052 15.6445 21.0844C15.6445 21.1378 15.5734 21.1822 15.5023 21.1555C15.474 21.1437 15.4515 21.1212 15.4399 21.0929C15.4282 21.0645 15.4283 21.0327 15.44 21.0044C15.5023 20.7466 15.5645 20.48 15.6356 20.2222C15.7067 19.9644 15.7334 19.8133 15.7867 19.6089C15.7907 19.5764 15.7907 19.5436 15.7867 19.5111C15.7867 19.4311 15.8667 19.4222 15.9289 19.44C15.9912 19.4578 16.0089 19.5022 16 19.5644C15.9956 19.6058 15.9956 19.6475 16 19.6889Z" fill="#3E3E3E"/>
<path d="M19.7957 20.9244C19.6774 21.0475 19.5262 21.1339 19.3601 21.1733H19.2623C19.1392 21.1716 19.0211 21.1243 18.9308 21.0406C18.8405 20.9568 18.7844 20.8426 18.7734 20.72C18.7752 20.5516 18.7991 20.3843 18.8445 20.2222C18.889 20.0088 18.9512 19.7955 19.0134 19.5822C19.0147 19.5397 19.0304 19.499 19.0579 19.4666C19.0949 19.4513 19.1364 19.4513 19.1734 19.4666C19.1901 19.473 19.2048 19.4838 19.2157 19.4979C19.2267 19.512 19.2336 19.5289 19.2357 19.5466C19.2449 19.6323 19.2449 19.7187 19.2357 19.8044C19.1823 20.0533 19.1112 20.2933 19.0579 20.5422C19.0537 20.5687 19.0537 20.5957 19.0579 20.6222C19.0601 20.7181 19.0993 20.8095 19.1671 20.8774C19.235 20.9452 19.3264 20.9844 19.4223 20.9866C19.4604 20.9948 19.4998 20.9948 19.5379 20.9866C19.6526 20.949 19.7552 20.8814 19.8349 20.7907C19.9146 20.7001 19.9686 20.5897 19.9912 20.4711C20.0623 20.2044 20.1245 19.9377 20.1957 19.6711V19.5644C20.1993 19.5488 20.2065 19.5342 20.2166 19.5217C20.2267 19.5092 20.2395 19.4992 20.2541 19.4924C20.2686 19.4855 20.2845 19.4821 20.3005 19.4822C20.3166 19.4824 20.3324 19.4862 20.3468 19.4933C20.3599 19.4961 20.3721 19.5017 20.3827 19.5099C20.3933 19.5181 20.4019 19.5285 20.4079 19.5405C20.4139 19.5525 20.4171 19.5656 20.4173 19.579C20.4175 19.5924 20.4146 19.6056 20.409 19.6177C20.3645 19.7955 20.329 19.9733 20.2845 20.1422C20.2401 20.3111 20.1423 20.7377 20.0623 21.0311C20.0623 21.1288 19.9645 21.1822 19.9023 21.1733C19.8401 21.1644 19.8223 21.0666 19.8312 20.9955C19.8249 20.9694 19.8127 20.9451 19.7957 20.9244Z" fill="#3E3E3E"/>
<path d="M23.8578 19.6533C23.9816 19.5395 24.131 19.4572 24.2933 19.4133C24.3615 19.3978 24.4323 19.3971 24.5008 19.4113C24.5692 19.4254 24.6339 19.4541 24.6903 19.4954C24.7468 19.5367 24.7937 19.5896 24.828 19.6506C24.8622 19.7115 24.883 19.7792 24.8889 19.8488C24.8853 20.0721 24.8494 20.2937 24.7822 20.5066C24.7822 20.6755 24.6933 20.8355 24.6578 20.9955C24.6222 21.1555 24.6578 21.0666 24.6578 21.1022C24.6492 21.1209 24.6354 21.1367 24.6181 21.1477C24.6007 21.1588 24.5806 21.1646 24.56 21.1644H24.5156C24.4992 21.1539 24.4857 21.1395 24.4763 21.1224C24.467 21.1053 24.4622 21.0861 24.4622 21.0666C24.4773 20.9407 24.5011 20.816 24.5333 20.6933C24.5778 20.4977 24.64 20.3022 24.6845 20.0977C24.699 20.0266 24.6943 19.9528 24.6708 19.8841C24.6474 19.8154 24.6061 19.7541 24.5511 19.7066C24.4713 19.6593 24.3787 19.6381 24.2862 19.6461C24.1937 19.6541 24.1061 19.6908 24.0356 19.7511C23.8748 19.8874 23.7677 20.0764 23.7333 20.2844C23.6711 20.5155 23.6178 20.7555 23.5645 20.9955C23.568 21.031 23.568 21.0667 23.5645 21.1022C23.5645 21.1466 23.4933 21.1911 23.4311 21.1644C23.4127 21.1511 23.3976 21.1337 23.3868 21.1137C23.376 21.0937 23.3699 21.0715 23.3689 21.0488C23.3743 20.9616 23.3892 20.8751 23.4133 20.7911L23.7067 19.6177C23.7161 19.5745 23.731 19.5327 23.7511 19.4933C23.7594 19.477 23.7722 19.4633 23.7879 19.4539C23.8036 19.4444 23.8217 19.4396 23.84 19.44H23.8933C23.8933 19.44 23.9467 19.52 23.9556 19.5555C23.9305 19.5948 23.8971 19.6282 23.8578 19.6533Z" fill="#3E3E3E"/>
<path d="M17.2444 20.7289C17.373 20.8084 17.5066 20.8797 17.6444 20.9422C17.7107 20.9751 17.7837 20.9922 17.8577 20.9922C17.9317 20.9922 18.0047 20.9751 18.071 20.9422C18.1061 20.9219 18.1352 20.8928 18.1555 20.8577C18.1757 20.8225 18.1863 20.7827 18.1863 20.7422C18.1863 20.7017 18.1757 20.6619 18.1555 20.6268C18.1352 20.5917 18.1061 20.5625 18.071 20.5422C17.988 20.4925 17.9019 20.448 17.8133 20.4089L17.7244 20.3644C17.6316 20.3272 17.5544 20.2592 17.5059 20.1718C17.4573 20.0844 17.4403 19.9829 17.4577 19.8844C17.4775 19.789 17.5226 19.7007 17.5883 19.6288C17.654 19.5568 17.7378 19.5039 17.831 19.4756C18.0586 19.4221 18.2982 19.4604 18.4977 19.5822C18.4977 19.5822 18.6133 19.7067 18.5688 19.7778C18.5244 19.8489 18.4977 19.84 18.3822 19.7778C18.2418 19.6897 18.0756 19.6521 17.911 19.6711C17.8545 19.6783 17.8011 19.7012 17.7571 19.7374C17.7131 19.7736 17.6801 19.8215 17.6622 19.8756C17.6622 19.9733 17.6622 20.0533 17.7955 20.1244L17.9555 20.2133L18.1866 20.3289C18.2528 20.3694 18.3075 20.4262 18.3454 20.4939C18.3834 20.5616 18.4033 20.6379 18.4033 20.7156C18.4033 20.7932 18.3834 20.8695 18.3454 20.9372C18.3075 21.0049 18.2528 21.0617 18.1866 21.1022C18.0291 21.1865 17.85 21.2214 17.6724 21.2024C17.4948 21.1834 17.3271 21.1113 17.191 20.9956C17.1199 20.88 17.1288 20.8267 17.2444 20.7289Z" fill="#3E3E3E"/>
<path d="M26.56 19.9466L26.4534 19.8489C26.4143 19.7886 26.3625 19.7377 26.3016 19.6998C26.2407 19.6618 26.1721 19.6377 26.1009 19.6293C26.0296 19.6208 25.9573 19.6281 25.8892 19.6507C25.8211 19.6733 25.7588 19.7106 25.7067 19.76C25.604 19.8454 25.5219 19.953 25.4665 20.0745C25.4111 20.1961 25.3838 20.3286 25.3867 20.4622C25.3821 20.5499 25.4021 20.6372 25.4445 20.7142C25.4869 20.7912 25.55 20.8548 25.6267 20.8977C25.7058 20.9456 25.7965 20.9709 25.8889 20.9709C25.9814 20.9709 26.072 20.9456 26.1511 20.8977L26.2667 20.8089C26.3289 20.7644 26.3822 20.7644 26.4267 20.8089C26.4448 20.8298 26.4548 20.8567 26.4548 20.8844C26.4548 20.9122 26.4448 20.939 26.4267 20.96C26.3217 21.062 26.1913 21.1339 26.049 21.1683C25.9067 21.2027 25.7578 21.1983 25.6178 21.1555C25.4903 21.1014 25.3804 21.0129 25.3003 20.8998C25.2203 20.7868 25.1732 20.6537 25.1645 20.5155C25.1507 20.3491 25.1766 20.1818 25.24 20.0273C25.3033 19.8728 25.4023 19.7355 25.5289 19.6266C25.6544 19.5038 25.8183 19.428 25.9931 19.4118C26.168 19.3956 26.343 19.4401 26.4889 19.5377C26.5448 19.5759 26.593 19.6241 26.6311 19.68C26.7111 19.8133 26.7111 19.8222 26.56 19.9466Z" fill="#3E3E3E"/>
<path d="M21.0488 19.8222C21.1288 19.6665 21.2609 19.5438 21.4221 19.4755C21.4891 19.4578 21.5596 19.4578 21.6266 19.4755C21.6266 19.4755 21.7244 19.4755 21.7244 19.5289C21.7232 19.5823 21.7078 19.6344 21.6799 19.68C21.6799 19.68 21.6177 19.68 21.5821 19.68C21.4058 19.7196 21.2447 19.8095 21.1184 19.9389C20.9922 20.0683 20.9062 20.2316 20.871 20.4089C20.8177 20.5867 20.7821 20.7733 20.7288 20.9511C20.7197 21.0028 20.6984 21.0516 20.6666 21.0933C20.6628 21.1056 20.6563 21.1169 20.6477 21.1265C20.6391 21.1361 20.6285 21.1437 20.6167 21.1487C20.6049 21.1538 20.5921 21.1563 20.5792 21.1559C20.5663 21.1555 20.5537 21.1524 20.5421 21.1467C20.5156 21.135 20.4939 21.1144 20.4809 21.0884C20.4679 21.0624 20.4644 21.0327 20.471 21.0044C20.5421 20.7733 20.5955 20.5422 20.6577 20.3111C20.7199 20.08 20.7733 19.8311 20.8355 19.5911C20.8977 19.3511 20.9066 19.4133 20.9955 19.4311C21.0844 19.4489 21.0844 19.52 21.0577 19.6533V19.7422C21.0497 19.7681 21.0467 19.7952 21.0488 19.8222Z" fill="#3E3E3E"/>
<path d="M14.7112 21.0666C14.7112 20.9511 14.7645 20.8533 14.7912 20.7644C14.889 20.3644 14.9867 19.9644 15.0934 19.5644C15.0934 19.4666 15.1912 19.4222 15.2623 19.4488C15.3334 19.4755 15.3423 19.5288 15.3156 19.6177C15.289 19.7066 15.2356 19.9644 15.1912 20.1333C15.1467 20.3022 15.0312 20.7288 14.9601 21.0222C14.965 21.0516 14.965 21.0816 14.9601 21.1111C14.9502 21.1343 14.9318 21.1528 14.9086 21.1628C14.8854 21.1727 14.8592 21.1733 14.8356 21.1644C14.8356 21.1644 14.7378 21.0933 14.7112 21.0666Z" fill="#3E3E3E"/>
<path d="M15.3866 18.7733C15.4029 18.7721 15.4194 18.7741 15.4349 18.7793C15.4505 18.7844 15.4649 18.7926 15.4773 18.8034C15.4897 18.8141 15.4998 18.8272 15.5071 18.8418C15.5144 18.8565 15.5188 18.8725 15.5199 18.8888C15.5162 18.9361 15.4979 18.9811 15.4677 19.0177C15.4375 19.0543 15.3968 19.0807 15.351 19.0933C15.318 19.0933 15.2864 19.0802 15.263 19.0568C15.2397 19.0335 15.2266 19.0018 15.2266 18.9688C15.2258 18.9226 15.2415 18.8776 15.2708 18.8418C15.3001 18.806 15.3411 18.7817 15.3866 18.7733Z" fill="#3E3E3E"/>
<path d="M4.5333 11.6711H11.5555V11.7689C11.5555 13.1022 11.5555 14.4355 11.5555 15.7511C11.5425 16.7462 11.233 17.7149 10.6666 18.5333C10.1845 19.2394 9.504 19.7868 8.71108 20.1066L8.1333 20.3111C8.06878 20.3243 8.00227 20.3243 7.93775 20.3111C7.31855 20.1301 6.74145 19.828 6.23997 19.4222C5.7015 18.9999 5.27684 18.45 5.00441 17.8222C4.7988 17.3895 4.66089 16.9279 4.59553 16.4533C4.55426 16.2154 4.5305 15.9747 4.52441 15.7333C4.52441 14.4089 4.52441 13.0666 4.52441 11.7511L4.5333 11.6711ZM8.17775 13.3955H7.4133C7.38425 13.3927 7.35502 13.3988 7.32958 13.4131C7.30413 13.4274 7.28371 13.4492 7.27108 13.4755C7.15553 13.6889 7.02219 13.8933 6.89775 14.1066C6.7733 14.32 6.71997 14.4 6.62219 14.5689C6.55997 14.4622 6.50664 14.3822 6.46219 14.2933C6.2933 14.0177 6.12441 13.7511 5.96441 13.4666C5.95511 13.4441 5.93893 13.4251 5.91817 13.4123C5.89742 13.3996 5.87316 13.3937 5.84886 13.3955H5.06664V16.4089H5.85775V14.7377L6.58664 15.8844L7.30664 14.7466V16.4H8.17775V13.3955ZM8.42664 14.1244H9.31552V16.4H10.1155V14.1244H11.0044V13.4044H8.42664V14.1244Z" fill="#1372B8"/>
</g>
<defs>
<clipPath id="clip0_2707_297838">
<rect width="32" height="32" fill="white"/>
</clipPath>
</defs>
</svg>
