<svg width="32" height="32" viewBox="0 0 32 32" fill="none" xmlns="http://www.w3.org/2000/svg">
<g clip-path="url(#clip0_2707_258838)">
<path d="M16 32C24.8366 32 32 24.8366 32 16C32 7.16344 24.8366 0 16 0C7.16344 0 0 7.16344 0 16C0 24.8366 7.16344 32 16 32Z" fill="white"/>
<path d="M16.0003 29.3333C23.3641 29.3333 29.3337 23.3638 29.3337 16C29.3337 8.63616 23.3641 2.66663 16.0003 2.66663C8.63653 2.66663 2.66699 8.63616 2.66699 16C2.66699 23.3638 8.63653 29.3333 16.0003 29.3333Z" fill="white"/>
<path fill-rule="evenodd" clip-rule="evenodd" d="M17.2893 11.3689C16.4917 11.6446 15.6246 11.6446 14.827 11.3689H17.2893ZM13.8493 4.75559C14.4934 4.28194 15.272 4.02649 16.0715 4.02649C16.871 4.02649 17.6496 4.28194 18.2937 4.75559H13.8493ZM13.0493 5.52892C13.2118 5.31447 13.3965 5.11782 13.6004 4.94225H18.507C18.7085 5.11708 18.893 5.31053 19.0582 5.52003L13.0493 5.52892ZM12.6137 6.2667C12.6949 6.09222 12.7869 5.923 12.8893 5.76003H19.2182C19.3272 5.91899 19.4195 6.08877 19.4937 6.2667H12.6137ZM12.3737 7.00448C12.4105 6.82894 12.4611 6.65656 12.5248 6.48892H19.6359C19.6997 6.65656 19.7502 6.82894 19.787 7.00448H12.3737ZM18.4804 10.6667C18.3826 10.7467 18.2848 10.8267 18.1782 10.8978H13.9382L13.627 10.6667H18.4804ZM19.1293 9.96448L18.907 10.2489H13.2093C13.1275 10.1612 13.0504 10.0692 12.9782 9.97337L19.1293 9.96448ZM19.5204 9.28003C19.4784 9.37456 19.4309 9.46657 19.3782 9.55559H12.7293L12.5959 9.28003H19.5204ZM19.7337 8.59559C19.7125 8.71313 19.6828 8.82899 19.6448 8.94225H12.4448C12.4448 8.8267 12.3737 8.71114 12.347 8.59559H19.7337ZM19.8226 7.91114C19.8322 8.0443 19.8322 8.17798 19.8226 8.31114H12.3559C12.3465 8.17798 12.3465 8.04431 12.3559 7.91114H19.8226ZM12.2937 7.63559C12.2849 7.4935 12.2849 7.35101 12.2937 7.20892H19.7515C19.7515 7.35114 19.7515 7.49337 19.7515 7.63559H12.2937Z" fill="#D30D16"/>
<path fill-rule="evenodd" clip-rule="evenodd" d="M8.11523 10.4355V19.7777H15.5819V15.5022C15.5132 14.6217 15.2175 13.7741 14.7237 13.0419C14.2298 12.3097 13.5547 11.718 12.7641 11.3244C11.3117 10.6487 9.7145 10.3433 8.11523 10.4355Z" fill="#D30D16"/>
<path fill-rule="evenodd" clip-rule="evenodd" d="M24 10.4356V19.7778H16.5244V15.5023C16.5931 14.6218 16.8888 13.7741 17.3826 13.042C17.8765 12.3098 18.5516 11.7181 19.3422 11.3245C20.7967 10.6455 22.3976 10.34 24 10.4356Z" fill="#D30D16"/>
<path fill-rule="evenodd" clip-rule="evenodd" d="M24.0449 22.5423L23.6627 23.4934H24.436L24.0449 22.5423ZM19.6004 21.9467H20.8004C20.9954 21.9372 21.1881 21.9921 21.3487 22.1029C21.5093 22.2138 21.629 22.3744 21.6893 22.5601C21.8582 23.2267 21.0227 23.5645 21.0227 23.5645L21.8049 24.5601C21.9696 24.7755 22.1827 24.9491 22.4271 25.0667C22.5712 24.9439 22.6839 24.7885 22.756 24.6134L23.716 22.2756C23.716 22.2756 23.7782 22.0445 23.5915 22.0267V21.9467H24.3827L25.4227 24.5423C25.4227 24.5423 25.556 25.0312 25.8049 25.0667H24.7382C24.7988 25.0383 24.8482 24.9906 24.8788 24.9311C24.9094 24.8716 24.9193 24.8036 24.9071 24.7378L24.5782 23.9112H23.5027L23.2093 24.7023C23.2093 24.7023 23.1027 24.9956 23.3515 25.0667H21.7338C21.7338 25.0667 21.5293 25.0667 21.2182 24.6489C20.9071 24.2312 20.3293 23.4578 20.3293 23.4578C20.3262 23.4508 20.325 23.443 20.3258 23.4354C20.3266 23.4277 20.3293 23.4203 20.3338 23.4141C20.3383 23.4078 20.3443 23.4028 20.3513 23.3995C20.3584 23.3963 20.3661 23.395 20.3738 23.3956C20.3738 23.3956 21.0404 23.2801 21.0849 22.8712C21.1293 22.4623 20.7204 22.1867 20.2582 22.3645V24.6312C20.2582 24.6312 20.2582 25.0045 20.436 25.0667H19.5471C19.6582 24.9686 19.7281 24.832 19.7427 24.6845V22.2845C19.7427 22.2845 19.6538 22.0267 19.5382 22.0267V21.9467H19.6004ZM17.8227 22.2845H17.7782C17.4898 22.3072 17.2211 22.4397 17.0276 22.6547C16.8341 22.8698 16.7305 23.1509 16.7382 23.4401C16.7386 23.5962 16.7595 23.7516 16.8004 23.9023C16.8696 24.1585 17.0311 24.3801 17.2538 24.5245C17.5172 24.6934 17.8369 24.7509 18.1427 24.6845C18.4182 24.6054 18.655 24.4275 18.8075 24.1848C18.96 23.942 19.0176 23.6515 18.9693 23.3689C18.9741 23.2278 18.9505 23.0872 18.9 22.9553C18.8496 22.8234 18.7732 22.703 18.6755 22.6011C18.5777 22.4992 18.4605 22.4179 18.3309 22.362C18.2012 22.3061 18.0616 22.2767 17.9204 22.2756L17.8227 22.2845ZM17.7782 21.9467H17.6538C17.2578 21.9576 16.8777 22.1052 16.5782 22.3645C16.4044 22.5132 16.2667 22.6994 16.1753 22.9091C16.0839 23.1187 16.0413 23.3464 16.0508 23.5749C16.0602 23.8034 16.1213 24.0268 16.2296 24.2283C16.3379 24.4297 16.4906 24.6039 16.676 24.7378C16.9 24.9044 17.1576 25.0201 17.4308 25.0769C17.7041 25.1337 17.9864 25.1302 18.2582 25.0667C18.6454 24.9771 18.984 24.7435 19.2053 24.4133C19.4265 24.0831 19.5137 23.6811 19.4493 23.2889C19.3862 22.8981 19.1804 22.5446 18.8717 22.2967C18.5631 22.0487 18.1735 21.9241 17.7782 21.9467ZM6.6671 21.9467C6.96314 21.9292 7.25995 21.9292 7.55599 21.9467L8.44488 24.0712L9.28043 22.0356L9.2271 21.9467H10.116V22.0178C10.116 22.0178 9.90266 21.9645 9.97377 22.3823L10.2582 24.6756C10.2582 24.6756 10.3204 25.0312 10.4982 25.0756H9.52043C9.58199 25.0191 9.63114 24.9504 9.6648 24.8739C9.69846 24.7974 9.71589 24.7147 9.71599 24.6312C9.71599 24.3645 9.44932 22.6578 9.44932 22.6578L8.51599 25.0667C8.51599 25.0667 8.30266 25.1112 7.95599 24.2489L7.26266 22.6578L7.01377 24.6489C7.01377 24.6489 7.01377 24.7734 7.15599 24.9245C7.30665 25.022 7.48328 25.0715 7.66266 25.0667H6.22266C6.35923 24.9341 6.46538 24.7733 6.53377 24.5956C6.62266 24.3289 6.85377 22.1867 6.85377 22.1867C6.84896 22.1317 6.82775 22.0795 6.79288 22.0367C6.75801 21.9939 6.7111 21.9625 6.65821 21.9467H6.6671ZM12.1515 22.5423L11.7693 23.4934H12.5427L12.1515 22.5423ZM11.6804 21.9467H12.4715L13.5027 24.5423C13.5027 24.5423 13.636 25.0312 13.8849 25.0667H12.8627C12.9223 25.0372 12.9709 24.9893 13.0013 24.9301C13.0317 24.8709 13.0423 24.8035 13.0315 24.7378L12.6938 23.9112H11.6271L11.3338 24.7023C11.3338 24.7023 11.2271 24.9956 11.4671 25.0667H10.5782C10.7289 24.9445 10.8453 24.7852 10.916 24.6045L11.8671 22.2756C11.8671 22.2756 11.9293 22.0445 11.7515 22.0267V21.9467H11.6804ZM13.1293 21.9467H13.7338C13.7874 21.9514 13.8393 21.9683 13.8855 21.996C13.9317 22.0237 13.971 22.0616 14.0004 22.1067C14.1071 22.2667 14.7027 23.2445 14.7027 23.2445L15.2982 22.3023C15.2982 22.3023 15.396 22.1067 15.1471 22.0267V21.9467H16.036L14.9338 23.6712V24.5601C14.9338 24.5601 14.9338 25.0489 15.1471 25.0934H14.2227C14.2227 25.0934 14.3827 24.9512 14.4004 24.7734V23.7067L13.5115 22.2489C13.4471 22.1594 13.3573 22.0913 13.2538 22.0534L13.1827 21.9734L13.1293 21.9467Z" fill="#D30D16"/>
</g>
<defs>
<clipPath id="clip0_2707_258838">
<rect width="32" height="32" fill="white"/>
</clipPath>
</defs>
</svg>
