<svg width="32" height="32" viewBox="0 0 32 32" fill="none" xmlns="http://www.w3.org/2000/svg">
<g clip-path="url(#clip0_2707_297353)">
<path d="M16 31.9822C24.8268 31.9822 31.9823 24.8267 31.9823 16C31.9823 7.17325 24.8268 0.0177612 16 0.0177612C7.17331 0.0177612 0.0178223 7.17325 0.0178223 16C0.0178223 24.8267 7.17331 31.9822 16 31.9822Z" fill="white"/>
<path fill-rule="evenodd" clip-rule="evenodd" d="M18.4888 17.2266H18.6666C18.6666 17.2266 18.6666 16.8889 18.3111 16.8889C17.9555 16.8889 17.8488 17.0933 17.8666 17.2622C17.8844 17.4311 17.9377 17.5022 18.3466 17.7422C18.3807 17.768 18.4063 17.8035 18.4199 17.8441C18.4336 17.8846 18.4348 17.9284 18.4233 17.9696C18.4118 18.0108 18.3881 18.0476 18.3554 18.0752C18.3227 18.1028 18.2825 18.12 18.2399 18.1244C18.1333 18.1244 17.9911 18.1244 17.9911 17.8933H17.8755C17.8755 17.8933 17.8755 18.1689 18.0177 18.24C18.1599 18.3111 18.5688 18.24 18.6222 17.9555C18.6353 17.9076 18.6382 17.8574 18.6307 17.8082C18.6232 17.759 18.6055 17.712 18.5787 17.6701C18.5519 17.6282 18.5166 17.5924 18.4751 17.565C18.4336 17.5376 18.3868 17.5193 18.3377 17.5111C18.2133 17.4489 17.9999 17.3511 18.0355 17.1822C18.0711 17.0133 18.2044 17.04 18.2933 17.04C18.3822 17.04 18.4977 17.1289 18.4888 17.2266Z" fill="#626262"/>
<path fill-rule="evenodd" clip-rule="evenodd" d="M16.6135 16.9866L16.489 16.9422V16.8889H17.2535V17.2533H17.1912L17.1379 17.0489H16.7468V17.4755H17.0668V17.6177H16.7379V18.1066H17.1468L17.2446 17.92H17.2979V18.2755H16.5068V18.1689L16.6135 18.0977V16.9866Z" fill="#626262"/>
<path fill-rule="evenodd" clip-rule="evenodd" d="M26.4089 16.0622V15.8489H26.5777V14.7466H26.3289V14.5333H26.5689V14.08C26.5677 14.0372 26.5751 13.9946 26.5906 13.9548C26.6062 13.9149 26.6295 13.8786 26.6594 13.8479C26.6892 13.8173 26.7249 13.7929 26.7643 13.7763C26.8037 13.7596 26.8461 13.7511 26.8889 13.7511C26.974 13.7346 27.0622 13.7445 27.1416 13.7795C27.221 13.8144 27.2879 13.8727 27.3333 13.9466L27.1911 14.1155C27.1302 14.0492 27.0488 14.0054 26.96 13.9911C26.9383 13.9882 26.9162 13.9903 26.8954 13.9973C26.8747 14.0043 26.8558 14.016 26.8403 14.0315C26.8249 14.0469 26.8132 14.0658 26.8062 14.0866C26.7991 14.1073 26.797 14.1294 26.8 14.1511V14.5333H27.12V14.7289H26.8V15.8222H27.1022V16.0622H26.4089Z" fill="#626262"/>
<path d="M19.1734 14.1511C19.2618 14.1511 19.3334 14.0795 19.3334 13.9911C19.3334 13.9027 19.2618 13.8311 19.1734 13.8311C19.0851 13.8311 19.0134 13.9027 19.0134 13.9911C19.0134 14.0795 19.0851 14.1511 19.1734 14.1511Z" fill="#626262"/>
<path d="M25.8668 14.1511C25.9552 14.1511 26.0268 14.0795 26.0268 13.9911C26.0268 13.9027 25.9552 13.8311 25.8668 13.8311C25.7784 13.8311 25.7068 13.9027 25.7068 13.9911C25.7068 14.0795 25.7784 14.1511 25.8668 14.1511Z" fill="#626262"/>
<path d="M27.6444 14.1511C27.7327 14.1511 27.8044 14.0795 27.8044 13.9911C27.8044 13.9027 27.7327 13.8311 27.6444 13.8311C27.556 13.8311 27.4844 13.9027 27.4844 13.9911C27.4844 14.0795 27.556 14.1511 27.6444 14.1511Z" fill="#626262"/>
<path fill-rule="evenodd" clip-rule="evenodd" d="M7.01332 18.2933H6.12443V16.0889C6.12443 16.0889 6.12443 16.0178 6.12443 15.9822C6.12443 15.7238 6.0478 15.4711 5.90422 15.2563C5.76064 15.0414 5.55657 14.8739 5.31781 14.775C5.07905 14.6761 4.81632 14.6502 4.56285 14.7007C4.30938 14.7511 4.07656 14.8755 3.89382 15.0583C3.71108 15.241 3.58663 15.4738 3.53621 15.7273C3.48579 15.9808 3.51167 16.2435 3.61057 16.4822C3.70946 16.721 3.87694 16.9251 4.09182 17.0687C4.3067 17.2122 4.55933 17.2889 4.81777 17.2889C5.02654 17.2882 5.23216 17.2379 5.41764 17.1421C5.60312 17.0463 5.76312 16.9077 5.88443 16.7378V17.8667C5.55983 18.053 5.19207 18.1511 4.81777 18.1511C4.26539 18.1158 3.74719 17.8714 3.3685 17.4677C2.98982 17.064 2.77905 16.5313 2.77905 15.9778C2.77905 15.4243 2.98982 14.8915 3.3685 14.4878C3.74719 14.0841 4.26539 13.8398 4.81777 13.8044C5.16374 13.7987 5.50599 13.8765 5.81548 14.0312C6.12497 14.186 6.39256 14.4131 6.59555 14.6933C6.79515 14.4203 7.05584 14.1977 7.35681 14.0433C7.65777 13.889 7.99066 13.8072 8.32888 13.8044C8.88126 13.8398 9.39946 14.0841 9.77814 14.4878C10.1568 14.8915 10.3676 15.4243 10.3676 15.9778C10.3676 16.5313 10.1568 17.064 9.77814 17.4677C9.39946 17.8714 8.88126 18.1158 8.32888 18.1511C7.95474 18.1499 7.58728 18.0519 7.26221 17.8667V16.7378C7.38453 16.9066 7.54475 17.0445 7.73 17.1402C7.91526 17.2359 8.12037 17.2868 8.32888 17.2889C8.67543 17.2889 9.00778 17.1512 9.25283 16.9062C9.49788 16.6611 9.63555 16.3288 9.63555 15.9822C9.63555 15.6357 9.49788 15.3033 9.25283 15.0583C9.00778 14.8132 8.67543 14.6755 8.32888 14.6755C8.15578 14.6755 7.9844 14.7099 7.8247 14.7767C7.665 14.8435 7.52015 14.9413 7.39858 15.0645C7.27701 15.1877 7.18114 15.3339 7.11653 15.4945C7.05192 15.6551 7.01986 15.8269 7.02221 16V16.1067L7.01332 18.2933ZM10.6667 16.9333V18.2933H9.77777V18.0355C10.1745 17.7619 10.4833 17.379 10.6667 16.9333ZM10.6667 15.1111C10.4833 14.6654 10.1745 14.2825 9.77777 14.0089V13.7511H10.6667V15.1111Z" fill="url(#paint0_linear_2707_297353)"/>
<path fill-rule="evenodd" clip-rule="evenodd" d="M12.3289 14.1066V13.8755H13.0134C13.1241 13.8729 13.234 13.8946 13.3354 13.9391C13.4368 13.9837 13.5271 14.05 13.6 14.1333C13.6994 14.2764 13.7493 14.4481 13.7422 14.6222C13.7422 15.4133 12.7822 15.28 12.7822 15.28V15.7777H13.1911V16.0622H12.3022V15.7777H12.4889V14.1066H12.3289ZM12.7911 14.1066V14.9955C12.7911 14.9955 13.4845 15.0755 13.4934 14.5955C13.5111 13.9822 12.7911 14.1155 12.7911 14.1155V14.1066Z" fill="#626262"/>
<path fill-rule="evenodd" clip-rule="evenodd" d="M21.4224 14.1067V13.8755H22.0979C22.1969 13.8687 22.2963 13.8834 22.3891 13.9188C22.4818 13.9541 22.5658 14.0092 22.6351 14.0802C22.7045 14.1513 22.7575 14.2365 22.7906 14.3301C22.8237 14.4237 22.8361 14.5234 22.8268 14.6222C22.8268 15.4133 21.8757 15.28 21.8757 15.28V15.7778H22.2757V16.0622H21.4313V15.7778H21.6179V14.1067H21.4224ZM21.8846 14.1067V14.9955C21.8846 14.9955 22.569 15.0755 22.5868 14.5955C22.5957 13.9822 21.8846 14.1155 21.8846 14.1155V14.1067Z" fill="#626262"/>
<path fill-rule="evenodd" clip-rule="evenodd" d="M13.9111 14.4178V13.9911C13.9111 13.9911 13.9111 13.8311 14.0356 13.8311H15.3956C15.4278 13.8513 15.455 13.8787 15.475 13.911C15.4951 13.9434 15.5074 13.9799 15.5111 14.0178V14.4533H15.3778L15.2445 14.1067H14.8356V15.8044H15.1556V16.0622H14.2667V15.7956H14.56V14.0978H14.2222C14.1505 14.1888 14.1128 14.302 14.1156 14.4178H13.9111Z" fill="#626262"/>
<path fill-rule="evenodd" clip-rule="evenodd" d="M19.1646 17.2089V16.9422C19.1646 16.9422 19.1646 16.8444 19.2446 16.8444H20.1334C20.1535 16.8568 20.1703 16.8737 20.1827 16.8938C20.195 16.9138 20.2025 16.9365 20.2046 16.96V17.2266H20.1246L20.0446 17.0222H19.7868V18.0711H19.9823V18.2311H19.4312V18.0622H19.5557V17.0133H19.3246C19.2777 17.0676 19.2525 17.1372 19.2534 17.2089H19.1646Z" fill="#626262"/>
<path fill-rule="evenodd" clip-rule="evenodd" d="M26.1602 17.2089V16.9422C26.1602 16.9422 26.1602 16.8444 26.2313 16.8444H27.0757C27.0958 16.8568 27.1126 16.8737 27.125 16.8938C27.1373 16.9138 27.1448 16.9365 27.1468 16.96V17.2266H27.0668L26.9868 17.0222H26.729V18.0711H26.9246V18.2311H26.3824V18.0622H26.5602V17.0133H26.329C26.2868 17.0696 26.2648 17.1385 26.2668 17.2089H26.1602Z" fill="#626262"/>
<path fill-rule="evenodd" clip-rule="evenodd" d="M15.8845 16.0622V15.8044H16.0001L16.6134 13.8311H16.889L17.5556 15.7778H17.6445V16.0622H16.9779V15.8933C17.0358 15.8219 17.1181 15.7745 17.209 15.76L17.0579 15.28H16.4623L16.3201 15.76C16.4184 15.7854 16.5116 15.8275 16.5956 15.8844V16.0622H15.8845ZM16.5245 15.0222H17.0223L16.7734 14.2667L16.5245 15.0222Z" fill="#626262"/>
<path fill-rule="evenodd" clip-rule="evenodd" d="M20.5422 18.2311V18.0711H20.6311L21.0133 16.8889H21.1733L21.5822 18.0977H21.6356V18.2755H21.2178V18.1689C21.2411 18.1155 21.2819 18.0716 21.3333 18.0444L21.2445 17.7422H20.8711L20.7822 18.0444C20.8443 18.0567 20.9023 18.0842 20.9511 18.1244V18.2311H20.5422ZM20.9333 17.5822H21.2445L21.0845 17.12L20.9333 17.5822Z" fill="#626262"/>
<path fill-rule="evenodd" clip-rule="evenodd" d="M24.1067 18.2311V18.0711H24.1956L24.5778 16.8889H24.7378L25.1467 18.0977H25.2V18.2755H24.7822V18.1689C24.8006 18.1153 24.8388 18.0708 24.8889 18.0444L24.8 17.7422H24.4267L24.3378 18.0444C24.3998 18.0567 24.4579 18.0842 24.5067 18.1244V18.2311H24.1067ZM24.4978 17.5822H24.8089L24.6489 17.12L24.4978 17.5822Z" fill="#626262"/>
<path fill-rule="evenodd" clip-rule="evenodd" d="M22.2222 18.2222V18.1066L22.3111 18.0533V16.9866H22.2311V16.8889H22.5777L22.9066 18.0533L23.2533 16.8889H23.5911V16.9955H23.4933V18.1066L23.6177 18.16V18.2577H23.2177V18.1333L23.3599 18.0622V17.0222L23.0399 18.1689H22.7911L22.4533 17.0844V18.0711H22.5244V18.1955L22.2222 18.2222Z" fill="#626262"/>
<path fill-rule="evenodd" clip-rule="evenodd" d="M18.5067 14.9511L18.7467 14.8C18.6981 14.7158 18.6281 14.646 18.5438 14.5976C18.4595 14.5492 18.3639 14.524 18.2667 14.5244C18.2069 14.517 18.1462 14.5234 18.0894 14.5432C18.0325 14.5631 17.981 14.5958 17.9388 14.6388C17.8967 14.6818 17.865 14.734 17.8463 14.7912C17.8276 14.8485 17.8224 14.9093 17.8311 14.9689C17.8311 15.2089 18.0711 15.2533 18.4 15.5022C18.4978 15.5733 18.5245 15.7244 18.4 15.7867C18.3681 15.8135 18.3299 15.8319 18.289 15.8401C18.2481 15.8483 18.2058 15.8461 18.166 15.8337C18.1262 15.8213 18.0901 15.7991 18.0611 15.7692C18.0321 15.7392 18.0111 15.7024 18 15.6622C18 15.6622 17.8045 15.6622 17.76 15.7956C17.8016 15.883 17.8691 15.9556 17.9534 16.0033C18.0377 16.051 18.1347 16.0716 18.2311 16.0622C18.297 16.0706 18.3639 16.0632 18.4264 16.0406C18.4888 16.0179 18.5449 15.9807 18.5901 15.9321C18.6353 15.8834 18.6682 15.8247 18.6862 15.7607C18.7041 15.6968 18.7066 15.6295 18.6933 15.5644C18.6311 15.3778 18.4889 15.2533 18.2133 15.12C17.9378 14.9867 18.0178 14.7467 18.2133 14.7289C18.4089 14.7111 18.5067 14.9511 18.5067 14.9511Z" fill="#626262"/>
<path fill-rule="evenodd" clip-rule="evenodd" d="M18.8977 14.7289V14.6489C18.9553 14.5956 19.0273 14.5605 19.1048 14.5478C19.1822 14.5352 19.2617 14.5456 19.3333 14.5778V15.8578H19.5555V16.0622H18.9066V15.8667H19.1199V14.7289H18.8977Z" fill="#626262"/>
<path fill-rule="evenodd" clip-rule="evenodd" d="M25.5823 14.7289V14.6489C25.6418 14.5958 25.7153 14.5609 25.7941 14.5483C25.8729 14.5357 25.9536 14.5459 26.0267 14.5778V15.8578H26.2401V16.0622H25.6001V15.8666H25.7778V14.7289H25.5823Z" fill="#626262"/>
<path fill-rule="evenodd" clip-rule="evenodd" d="M27.3689 14.7289V14.6489C27.4265 14.5956 27.4985 14.5605 27.576 14.5478C27.6534 14.5352 27.7329 14.5456 27.8045 14.5778V15.8578H28.0178V16.0622H27.3778V15.8667H27.5556V14.7289H27.3689Z" fill="#626262"/>
<path fill-rule="evenodd" clip-rule="evenodd" d="M20.0178 14.8C20.0178 14.8 20.0178 14.9511 19.8756 14.9511C19.7334 14.9511 19.6978 14.7822 19.8045 14.6933C19.8644 14.6362 19.9359 14.5923 20.014 14.5648C20.0921 14.5372 20.1752 14.5265 20.2578 14.5333C20.48 14.5333 20.6934 14.5955 20.6934 14.9511V15.7778C20.6934 15.7778 20.6934 15.8844 20.7556 15.8489C20.7749 15.8413 20.7922 15.8293 20.8061 15.8139C20.82 15.7985 20.8301 15.78 20.8356 15.76C20.8356 15.76 20.9067 16.0622 20.6845 16.0622C20.6582 16.0662 20.6314 16.0643 20.606 16.0567C20.5806 16.049 20.5572 16.0357 20.5376 16.0178C20.518 15.9999 20.5026 15.9778 20.4927 15.9532C20.4827 15.9286 20.4784 15.902 20.48 15.8755C20.4383 15.929 20.386 15.9732 20.3263 16.0053C20.2666 16.0375 20.2009 16.0568 20.1334 16.0622C19.92 16.0622 19.7156 15.9644 19.6978 15.5822C19.68 15.2 20.1067 15.1111 20.4445 15.1111V14.8355C20.4312 14.7941 20.4051 14.758 20.37 14.7324C20.3348 14.7068 20.2924 14.6932 20.2489 14.6933C20.0711 14.7289 20.0178 14.8 20.0178 14.8ZM20.4622 15.3778V15.6178C20.4622 15.6178 20.2311 15.92 20.0445 15.7955C20.0122 15.7671 19.9884 15.7303 19.976 15.6891C19.9635 15.6479 19.9627 15.6041 19.9738 15.5625C19.9849 15.5209 20.0074 15.4833 20.0387 15.4538C20.07 15.4243 20.109 15.4041 20.1511 15.3955C20.2449 15.3602 20.3471 15.354 20.4445 15.3778H20.4622Z" fill="#626262"/>
<path fill-rule="evenodd" clip-rule="evenodd" d="M23.3511 14.8C23.3511 14.8 23.3511 14.9511 23.2088 14.9511C23.0666 14.9511 23.0311 14.7822 23.1288 14.6933C23.1897 14.6375 23.2613 14.5946 23.3392 14.5671C23.4171 14.5396 23.4997 14.5281 23.5822 14.5333C23.8133 14.5333 24.0266 14.5956 24.0266 14.9511V15.7778C24.0266 15.7778 24.0266 15.8844 24.0888 15.8489C24.1082 15.8413 24.1255 15.8294 24.1394 15.8139C24.1532 15.7985 24.1633 15.78 24.1688 15.76C24.1688 15.76 24.2399 16.0622 24.0177 16.0622C23.7955 16.0622 23.8133 15.8756 23.8133 15.8756C23.7716 15.929 23.7192 15.9732 23.6596 16.0053C23.5999 16.0375 23.5342 16.0568 23.4666 16.0622C23.2444 16.0622 23.0488 15.9644 23.0311 15.5822C23.0133 15.2 23.4399 15.1022 23.7777 15.1467V14.8711C23.7645 14.8297 23.7384 14.7936 23.7032 14.768C23.6681 14.7424 23.6257 14.7287 23.5822 14.7289C23.4044 14.7289 23.3511 14.8 23.3511 14.8ZM23.7955 15.3778V15.6178C23.7955 15.6178 23.5644 15.92 23.3777 15.7956C23.3454 15.7671 23.3217 15.7303 23.3092 15.6891C23.2967 15.6479 23.296 15.6041 23.3071 15.5625C23.3182 15.5209 23.3406 15.4833 23.372 15.4538C23.4033 15.4243 23.4422 15.4041 23.4844 15.3956C23.5835 15.3565 23.6926 15.3503 23.7955 15.3778Z" fill="#626262"/>
<path fill-rule="evenodd" clip-rule="evenodd" d="M25.2001 14.9244L25.4401 14.7911C25.39 14.7054 25.3166 14.6357 25.2285 14.5901C25.1404 14.5445 25.0412 14.5248 24.9423 14.5333C24.8482 14.5341 24.7554 14.5557 24.6706 14.5965C24.5857 14.6373 24.5109 14.6963 24.4515 14.7693C24.3921 14.8423 24.3495 14.9275 24.3268 15.0188C24.3041 15.1102 24.3018 15.2054 24.3201 15.2978C24.3141 15.483 24.3772 15.6638 24.4971 15.8051C24.617 15.9464 24.7852 16.038 24.969 16.0622C25.0533 16.0615 25.1365 16.043 25.2132 16.0077C25.2898 15.9725 25.358 15.9214 25.4134 15.8578L25.2356 15.68C25.1852 15.7327 25.1198 15.7687 25.0482 15.783C24.9767 15.7974 24.9025 15.7893 24.8356 15.76C24.5956 15.6889 24.5867 15.3244 24.5779 15.2444C24.569 15.1644 24.5779 14.7911 24.9067 14.7555C24.9667 14.7524 25.0263 14.7666 25.0784 14.7966C25.1304 14.8266 25.1727 14.871 25.2001 14.9244Z" fill="#626262"/>
<path fill-rule="evenodd" clip-rule="evenodd" d="M28.9778 14.9244L29.2089 14.7911C29.162 14.7046 29.0906 14.634 29.0036 14.5881C28.9166 14.5422 28.8179 14.5231 28.7201 14.5333C28.3289 14.5333 28.0712 14.8266 28.0978 15.2977C28.0918 15.483 28.1549 15.6638 28.2749 15.8051C28.3948 15.9464 28.563 16.038 28.7467 16.0622C28.8311 16.0615 28.9143 16.0429 28.9909 16.0077C29.0675 15.9725 29.1358 15.9213 29.1912 15.8577L29.0134 15.68C28.963 15.7327 28.8976 15.7687 28.826 15.783C28.7544 15.7973 28.6802 15.7893 28.6134 15.76C28.3734 15.6888 28.3645 15.3244 28.3556 15.2444C28.3467 15.1644 28.3556 14.7911 28.6845 14.7555C28.7445 14.7523 28.8041 14.7666 28.8561 14.7966C28.9082 14.8265 28.9505 14.8709 28.9778 14.9244Z" fill="#626262"/>
<path fill-rule="evenodd" clip-rule="evenodd" d="M12.3911 16.9777H12.2844V16.8889H12.6489V17.0222H12.56V18.1155H12.6755V18.2755H12.2844V18.1066H12.4444L12.3911 16.9777Z" fill="#626262"/>
<path fill-rule="evenodd" clip-rule="evenodd" d="M14.0711 17.9466V16.9689H13.9644V16.8889H14.3022V17.0222H14.2222V18.2755H14.0356L13.4667 17.0222V18.1155H13.5822V18.2755H13.2533V18.1155H13.3333V16.9777H13.2178V16.8889H13.5289L14.0711 17.9466Z" fill="#626262"/>
<path fill-rule="evenodd" clip-rule="evenodd" d="M14.8889 16.8889V17.0222H14.9689L15.3422 18.2666H15.5022L15.9022 17.0044H16V16.8889H15.5734V17.0222H15.7511L15.4578 17.9111L15.1645 17.0222H15.3334V16.8889H14.8889Z" fill="#626262"/>
<path fill-rule="evenodd" clip-rule="evenodd" d="M27.4224 16.8889H27.6713V17.3244C27.788 17.2765 27.9189 17.2765 28.0357 17.3244C28.101 17.3899 28.1496 17.4701 28.1774 17.5583C28.2052 17.6464 28.2115 17.74 28.1957 17.8311C28.1982 17.893 28.1867 17.9546 28.162 18.0114C28.1372 18.0681 28.0999 18.1186 28.0528 18.1588C28.0057 18.199 27.9501 18.228 27.8902 18.2436C27.8302 18.2592 27.7675 18.261 27.7068 18.2489L27.6624 18.16L27.609 18.2489H27.5557V16.9511H27.4579L27.4224 16.8889ZM27.689 17.4577V18.0622C27.7193 18.0778 27.7528 18.0859 27.7868 18.0859C27.8208 18.0859 27.8544 18.0778 27.8846 18.0622C28.009 18.0622 28.0179 17.8844 28.0268 17.76C28.0357 17.6355 28.0268 17.4311 27.849 17.4311C27.798 17.412 27.743 17.4059 27.689 17.4133V17.4577Z" fill="#626262"/>
<path fill-rule="evenodd" clip-rule="evenodd" d="M28.4446 16.8889H28.6935V18.1866L28.6401 18.2755H28.4446V18.1333H28.5601V16.9511H28.4446V16.8889Z" fill="#626262"/>
<path fill-rule="evenodd" clip-rule="evenodd" d="M28.6846 17.7244L29.049 17.36H28.9157V17.2533H29.2623V17.3422L28.9512 17.68L29.3246 18.2311H29.0846L28.8268 17.7866L28.6935 17.8755L28.6846 17.7244Z" fill="#626262"/>
</g>
<defs>
<linearGradient id="paint0_linear_2707_297353" x1="4.12319" y1="15.4277" x2="4.18541" y2="18.2722" gradientUnits="userSpaceOnUse">
<stop stop-color="#75B848"/>
<stop offset="1" stop-color="#2F756B"/>
</linearGradient>
<clipPath id="clip0_2707_297353">
<rect width="32" height="32" fill="white"/>
</clipPath>
</defs>
</svg>
