<svg width="32" height="32" viewBox="0 0 32 32" fill="none" xmlns="http://www.w3.org/2000/svg">
<g clip-path="url(#clip0_2707_297158)">
<path d="M16 31.9822C24.8268 31.9822 31.9823 24.8268 31.9823 16C31.9823 7.17328 24.8268 0.0177917 16 0.0177917C7.17331 0.0177917 0.0178223 7.17328 0.0178223 16C0.0178223 24.8268 7.17331 31.9822 16 31.9822Z" fill="white"/>
<path d="M28.0622 21.6H26.2844V17.8667C26.2974 17.5584 26.23 17.2521 26.0888 16.9778C26.0182 16.8299 25.9123 16.7015 25.7806 16.6039C25.6489 16.5063 25.4954 16.4424 25.3333 16.4178C25.0693 16.3681 24.7971 16.3865 24.5422 16.4711C24.304 16.5424 24.0967 16.6915 23.9532 16.8945C23.8098 17.0976 23.7386 17.3428 23.7511 17.5911C23.7511 18.8178 23.7511 20.0533 23.7511 21.28V21.6H21.9911C21.9911 21.5111 21.9911 21.4222 21.9911 21.3333C21.9911 20.1422 21.9911 18.9511 21.9911 17.7778C21.9955 17.5945 21.9715 17.4115 21.9199 17.2356C21.8791 17.0835 21.8081 16.9413 21.7111 16.8173C21.6142 16.6933 21.4932 16.5901 21.3556 16.5138C21.2179 16.4375 21.0663 16.3897 20.9097 16.3732C20.7532 16.3567 20.5949 16.3718 20.4444 16.4178C20.2826 16.4344 20.1257 16.4828 19.9827 16.5602C19.8396 16.6377 19.7133 16.7425 19.6109 16.8689C19.5085 16.9953 19.432 17.1406 19.3859 17.2966C19.3398 17.4525 19.3249 17.6161 19.3422 17.7778C19.3422 18.9333 19.3422 20.0978 19.3422 21.2533V21.5733H17.6355V15.0489H19.3244V15.5644C19.5743 15.3929 19.839 15.2442 20.1155 15.12C20.9266 14.8001 21.8289 14.8001 22.6399 15.12C23.0232 15.2516 23.3414 15.5252 23.5288 15.8844C23.7955 15.5523 24.1366 15.2874 24.5244 15.1111C24.8875 14.9528 25.2794 14.8711 25.6755 14.8711C26.0716 14.8711 26.4635 14.9528 26.8266 15.1111C27.0687 15.2265 27.284 15.3913 27.4585 15.5949C27.633 15.7985 27.763 16.0364 27.8399 16.2933C28.0001 16.735 28.0813 17.2013 28.0799 17.6711C28.0799 18.9511 28.0799 20.2311 28.0799 21.52L28.0622 21.6Z" fill="#101010"/>
<path d="M3.91113 15.1111H5.50224L6.88002 18.6667L8.30224 15.1111H9.36002L10.7289 18.6667L12.1511 15.1111H13.7067C12.9156 17.2711 12.1422 19.4133 11.3689 21.5644H10.1689L8.7378 18.0089L7.36891 21.5644H6.22224C5.46669 19.3867 4.69336 17.2267 3.91113 15.1111Z" fill="#101010"/>
<path d="M16.1512 21.6H14.5423C14.4712 21.3867 14.4623 15.3778 14.5423 15.0489H16.1334C16.1956 15.2622 16.2134 20.9511 16.1512 21.6Z" fill="#101010"/>
<path d="M17.7245 10.4C17.7862 10.4795 17.8274 10.573 17.8445 10.6722C17.8615 10.7715 17.8539 10.8733 17.8223 10.9689C17.7419 11.5757 17.5176 12.1545 17.1682 12.657C16.8187 13.1595 16.3542 13.5712 15.8134 13.8578C15.5873 13.9941 15.3527 14.1158 15.1112 14.2222C15.0034 14.2488 14.8932 14.2637 14.7823 14.2667C14.7747 14.1483 14.7747 14.0295 14.7823 13.9111C14.8055 13.2039 15.0456 12.5209 15.4702 11.9549C15.8947 11.3888 16.4832 10.967 17.1556 10.7467C17.3342 10.7105 17.4945 10.613 17.6089 10.4711C17.6089 10.4711 17.6712 10.4178 17.7245 10.4Z" fill="#EF453A"/>
</g>
<defs>
<clipPath id="clip0_2707_297158">
<rect width="32" height="32" fill="white"/>
</clipPath>
</defs>
</svg>
