<svg xmlns="http://www.w3.org/2000/svg" width="32" height="32" fill="none" viewBox="0 0 32 32"><g clip-path="url(#clip0_2737_122965)"><mask id="mask0_2737_122965" width="32" height="32" x="0" y="0" maskUnits="userSpaceOnUse" style="mask-type:luminance"><path fill="#fff" d="M31.9909 0.0177917H0.0175781V31.9911H31.9909V0.0177917Z"/></mask><g mask="url(#mask0_2737_122965)"><path fill="#fff" d="M15.9998 31.9822C24.8265 31.9822 31.982 24.8268 31.982 16C31.982 7.17328 24.8265 0.0177917 15.9998 0.0177917C7.17306 0.0177917 0.0175781 7.17328 0.0175781 16C0.0175781 24.8268 7.17306 31.9822 15.9998 31.9822Z"/><path fill="#FCF8CD" fill-rule="evenodd" d="M22.6403 11.3778C22.6403 11.3778 24.018 21.9822 14.9336 21.3689C14.9336 21.3689 20.0803 24.1422 24.5425 23.4489C28.9958 22.7556 27.7603 19.1556 26.9603 17.6533C26.098 16.0444 22.6491 11.3778 22.6491 11.3778H22.6403Z" clip-rule="evenodd"/><path fill="#A7D38B" fill-rule="evenodd" d="M11.1822 12.9867C11.1822 12.9867 8.89771 15.8134 10.3466 18.48C12.2222 21.9289 17.8222 23.5645 17.8222 23.5645C17.8222 23.5645 10.4622 23.6178 8.1066 23.5645C6.29326 23.52 4.0266 22.2311 4.2666 19.4134C4.53326 16.2934 11.1822 12.9867 11.1822 12.9867Z" clip-rule="evenodd"/><path fill="#9EC8EA" fill-rule="evenodd" d="M7.26172 14.2578C7.26172 14.2578 11.0217 11.4489 15.2884 11.2534C20.1506 11.0311 21.7328 14.9067 21.7328 14.9067C21.7328 14.9067 21.5195 7.56447 18.0706 5.71558C14.6217 3.86669 12.2751 7.31558 12.2751 7.31558L7.27061 14.2578H7.26172Z" clip-rule="evenodd"/></g></g><defs><clipPath id="clip0_2737_122965"><rect width="32" height="32" fill="#fff"/></clipPath></defs></svg>