<svg width="32" height="32" viewBox="0 0 32 32" fill="none" xmlns="http://www.w3.org/2000/svg">
<g clip-path="url(#clip0_2707_296998)">
<path d="M16 31.9822C24.8268 31.9822 31.9823 24.8267 31.9823 16C31.9823 7.17326 24.8268 0.0177765 16 0.0177765C7.17331 0.0177765 0.0178223 7.17326 0.0178223 16C0.0178223 24.8267 7.17331 31.9822 16 31.9822Z" fill="white"/>
<path d="M15.6001 12.9067H18.4356C18.5003 12.9139 18.5657 12.9037 18.6251 12.8772C18.6845 12.8506 18.7357 12.8086 18.7734 12.7556C18.8806 12.617 19.0097 12.4969 19.1556 12.4C19.1976 12.3737 19.232 12.3369 19.2553 12.2933C19.2787 12.2496 19.2903 12.2006 19.289 12.1511C19.3015 11.7914 19.4291 11.4453 19.6532 11.1637C19.8772 10.882 20.1858 10.6797 20.5334 10.5867C20.6764 10.5529 20.8222 10.5321 20.969 10.5244H26.4356V12.1422H20.9245C20.9154 12.1862 20.9154 12.2316 20.9245 12.2756C20.9251 12.3211 20.9378 12.3656 20.9612 12.4046C20.9846 12.4437 21.018 12.4758 21.0578 12.4978C21.2314 12.6364 21.3712 12.8127 21.4667 13.0133C21.4667 13.12 21.5378 13.2356 21.5645 13.3511C21.5912 13.4667 21.5645 13.4578 21.5645 13.5111C21.5822 13.5781 21.5822 13.6486 21.5645 13.7156C21.5582 14.0319 21.4627 14.34 21.289 14.6044C21.1823 14.72 21.1201 14.8711 20.9601 14.9511C20.8001 15.0311 20.8445 15.0756 20.8534 15.1911C20.8623 15.3067 20.8534 15.5822 20.8534 15.7778V16C21.129 16 21.3867 16 21.6445 16C21.9023 16 22.1778 16 22.4534 16H26.4267V17.6H21.0045C20.6852 17.615 20.3681 17.5395 20.0898 17.3823C19.8114 17.225 19.5831 16.9924 19.4312 16.7111C19.3074 16.4882 19.2431 16.2372 19.2445 15.9822V15.2622C19.247 15.2201 19.2394 15.178 19.2224 15.1393C19.2054 15.1007 19.1795 15.0667 19.1467 15.04C18.986 14.9148 18.8372 14.7749 18.7023 14.6222C18.6762 14.5905 18.6437 14.5646 18.607 14.5462C18.5702 14.5278 18.53 14.5174 18.489 14.5156H15.7156H15.5823V18.7556C15.5943 19.0708 15.5173 19.3831 15.3601 19.6566C15.2029 19.9301 14.9718 20.1539 14.6934 20.3022C14.4641 20.4437 14.1983 20.5147 13.929 20.5067H6.81784C6.7774 20.5194 6.73415 20.5204 6.69319 20.5093C6.65224 20.4983 6.6153 20.4758 6.58673 20.4444L5.56451 18.9689C5.56303 18.9393 5.56303 18.9096 5.56451 18.88H13.9556C13.9603 18.7971 13.9603 18.714 13.9556 18.6311C13.9556 17.3333 13.9556 16.0267 13.9556 14.72C13.9556 14.5067 13.9556 14.5067 13.7512 14.5067H13.2356L12.8267 14.9156C12.7795 14.9499 12.7417 14.9956 12.7168 15.0484C12.692 15.1012 12.6808 15.1595 12.6845 15.2178V17.5911H11.1023V15.2622C11.1062 15.2111 11.0959 15.1599 11.0723 15.1144C11.0488 15.0688 11.013 15.0307 10.969 15.0044C10.7544 14.8616 10.5785 14.668 10.4569 14.4408C10.3352 14.2137 10.2715 13.9599 10.2715 13.7022C10.2715 13.4445 10.3352 13.1908 10.4569 12.9636C10.5785 12.7364 10.7544 12.5428 10.969 12.4C11.0578 12.3378 11.1023 12.2756 11.049 12.1689C10.9956 12.0622 7.4934 12.1067 7.12895 12.1689V17.5022H5.53784V10.5244H11.0045C11.4519 10.5267 11.8807 10.7035 12.1995 11.0174C12.5183 11.3312 12.7019 11.7572 12.7112 12.2044C12.7098 12.2555 12.7203 12.3062 12.7419 12.3525C12.7635 12.3988 12.7956 12.4394 12.8356 12.4711C12.9579 12.5829 13.0736 12.7016 13.1823 12.8267C13.2148 12.8611 13.2541 12.8884 13.2978 12.9067H13.9734C13.9734 12.8089 13.9734 12.7378 13.9734 12.6667C13.9734 11.5644 13.9734 10.4533 13.9734 9.35111C13.9671 9.04162 14.0468 8.73645 14.2038 8.46963C14.3607 8.20281 14.5887 7.98483 14.8623 7.84C15.1133 7.6949 15.3991 7.62114 15.689 7.62666H25.1378C25.1993 7.62171 25.2608 7.63512 25.3146 7.66519C25.3684 7.69525 25.4121 7.74063 25.4401 7.79555L26.329 9.04889L26.489 9.25333H15.7245C15.6178 9.25333 15.5823 9.29777 15.5912 9.39555V12.7111C15.5848 12.7764 15.5877 12.8422 15.6001 12.9067ZM11.8845 12.7556C11.746 12.7495 11.6078 12.7736 11.4795 12.8261C11.3511 12.8786 11.2357 12.9583 11.1411 13.0596C11.0465 13.161 10.975 13.2816 10.9314 13.4133C10.8879 13.5449 10.8734 13.6844 10.889 13.8222C10.9287 14.0601 11.0479 14.2775 11.2271 14.4389C11.4063 14.6004 11.6349 14.6963 11.8756 14.7111C12.1306 14.7001 12.372 14.5932 12.5516 14.412C12.7312 14.2307 12.8358 13.9884 12.8445 13.7333C12.8481 13.6055 12.8259 13.4782 12.7791 13.3591C12.7324 13.24 12.6621 13.1316 12.5725 13.0403C12.4828 12.949 12.3757 12.8767 12.2575 12.8278C12.1393 12.7789 12.0124 12.7543 11.8845 12.7556ZM20.0267 12.7556C19.8996 12.7508 19.7728 12.7716 19.6539 12.8167C19.535 12.8618 19.4263 12.9303 19.3343 13.0181C19.2423 13.106 19.1688 13.2114 19.1183 13.3281C19.0678 13.4449 19.0412 13.5706 19.0401 13.6978C19.0423 13.9534 19.1436 14.1981 19.3226 14.3805C19.5017 14.5629 19.7446 14.6687 20.0001 14.6756C20.2531 14.6756 20.496 14.5756 20.6758 14.3975C20.8555 14.2194 20.9577 13.9775 20.9601 13.7244C20.9637 13.5977 20.9416 13.4716 20.8953 13.3536C20.849 13.2356 20.7794 13.1281 20.6906 13.0377C20.6018 12.9472 20.4957 12.8756 20.3785 12.8271C20.2614 12.7786 20.1357 12.7543 20.009 12.7556H20.0267Z" fill="#14406F"/>
<path d="M15.6001 12.9067H18.4357C18.5004 12.9139 18.5658 12.9037 18.6252 12.8772C18.6846 12.8506 18.7358 12.8086 18.7735 12.7556C18.8807 12.617 19.0098 12.4969 19.1557 12.4C19.5165 12.2666 19.9002 12.2062 20.2846 12.2222C20.548 12.2578 20.8001 12.3519 21.0224 12.4978C21.196 12.6364 21.3358 12.8127 21.4313 13.0133C21.4313 13.12 21.5024 13.2356 21.529 13.3511C21.5557 13.4667 21.529 13.4578 21.529 13.5111C21.5467 13.5781 21.5467 13.6486 21.529 13.7156C21.5227 14.0319 21.4272 14.34 21.2535 14.6044C21.1468 14.72 21.0846 14.8711 20.9246 14.9511C20.6548 15.1222 20.3519 15.2342 20.0357 15.28C19.7052 15.2857 19.3784 15.2093 19.0846 15.0578C18.9239 14.9325 18.7751 14.7927 18.6401 14.64C18.614 14.6083 18.5816 14.5824 18.5448 14.564C18.5081 14.5456 18.4679 14.5352 18.4268 14.5333H15.7157H15.5824V18.7556C15.5944 19.0708 15.5174 19.3831 15.3602 19.6566C15.203 19.9301 14.9719 20.1539 14.6935 20.3022C14.4641 20.4437 14.1984 20.5147 13.929 20.5067H6.81792C6.77748 20.5194 6.73423 20.5204 6.69327 20.5093C6.65232 20.4983 6.61538 20.4758 6.58681 20.4444L5.56459 18.9689C5.56311 18.9393 5.56311 18.9096 5.56459 18.88H13.9557C13.9604 18.7971 13.9604 18.714 13.9557 18.6311C13.9557 17.3333 13.9557 16.0267 13.9557 14.72C13.9557 14.5067 13.9557 14.5067 13.7513 14.5067H13.2357L12.8268 14.9156C12.5385 15.1144 12.2058 15.2395 11.8579 15.28C11.5424 15.2687 11.2356 15.1736 10.969 15.0044C10.7586 14.8595 10.5865 14.6657 10.4673 14.4397C10.3481 14.2137 10.2854 13.9622 10.2846 13.7067C10.2803 13.446 10.3436 13.1887 10.4682 12.9598C10.5928 12.7308 10.7745 12.538 10.9957 12.4C11.2797 12.2427 11.6013 12.1662 11.9256 12.1788C12.25 12.1913 12.5647 12.2924 12.8357 12.4711C12.9579 12.5829 13.0737 12.7016 13.1824 12.8267C13.2148 12.8611 13.2542 12.8884 13.2979 12.9067H13.9735C13.9735 12.8089 13.9735 12.7378 13.9735 12.6667C13.9735 11.5644 13.9735 10.4533 13.9735 9.35111C13.9671 9.04162 14.0469 8.73645 14.2039 8.46963C14.3608 8.20281 14.5888 7.98483 14.8624 7.84C15.1133 7.6949 15.3992 7.62114 15.689 7.62666H25.1379C25.1994 7.62171 25.2609 7.63512 25.3147 7.66519C25.3685 7.69525 25.4122 7.74063 25.4401 7.79555L26.329 9.04889L26.489 9.25333H15.7246C15.6179 9.25333 15.5824 9.29777 15.5913 9.39555V12.7111C15.5848 12.7764 15.5878 12.8422 15.6001 12.9067ZM11.8846 12.7556C11.7461 12.7495 11.6079 12.7736 11.4796 12.8261C11.3512 12.8786 11.2358 12.9583 11.1412 13.0596C11.0466 13.161 10.975 13.2816 10.9315 13.4133C10.888 13.5449 10.8735 13.6844 10.889 13.8222C10.9288 14.0601 11.048 14.2775 11.2272 14.4389C11.4064 14.6004 11.635 14.6963 11.8757 14.7111C12.1306 14.7001 12.372 14.5932 12.5516 14.412C12.7313 14.2307 12.8359 13.9884 12.8446 13.7333C12.8482 13.6055 12.8259 13.4782 12.7792 13.3591C12.7324 13.24 12.6622 13.1316 12.5725 13.0403C12.4829 12.949 12.3758 12.8767 12.2576 12.8278C12.1394 12.7789 12.0125 12.7543 11.8846 12.7556ZM20.0268 12.7556C19.8997 12.7508 19.7729 12.7716 19.654 12.8167C19.535 12.8618 19.4264 12.9303 19.3344 13.0181C19.2424 13.106 19.1689 13.2114 19.1184 13.3281C19.0678 13.4449 19.0412 13.5706 19.0401 13.6978C19.0424 13.9534 19.1437 14.1981 19.3227 14.3805C19.5018 14.5629 19.7446 14.6687 20.0001 14.6756C20.2532 14.6756 20.4961 14.5756 20.6758 14.3975C20.8556 14.2194 20.9578 13.9775 20.9601 13.7244C20.9637 13.5977 20.9417 13.4716 20.8954 13.3536C20.8491 13.2356 20.7795 13.1281 20.6907 13.0377C20.6019 12.9472 20.4957 12.8756 20.3786 12.8271C20.2615 12.7786 20.1358 12.7543 20.009 12.7556H20.0268Z" fill="url(#paint0_linear_2707_296998)"/>
<path d="M20.3556 23.6622C20.6667 23.7422 20.9867 23.8133 21.3067 23.8667C21.6383 23.8844 21.9707 23.8844 22.3023 23.8667V23.4311C22.2581 23.4056 22.2101 23.3876 22.1601 23.3778H20.9956C20.4889 23.3778 20.3378 23.2089 20.3289 22.7022C20.32 22.5779 20.32 22.4532 20.3289 22.3289C20.3289 22.2694 20.3407 22.2104 20.3634 22.1554C20.3862 22.1004 20.4196 22.0504 20.4617 22.0083C20.5038 21.9662 20.5538 21.9328 20.6088 21.9101C20.6638 21.8873 20.7227 21.8755 20.7823 21.8755C21.2889 21.8755 21.8045 21.8755 22.3112 21.8755C22.6578 21.8755 22.7645 22.0355 22.7912 22.5244C22.6578 22.5244 22.4623 22.5778 22.4089 22.5244C22.2312 22.2933 22.0001 22.3644 21.7778 22.3555H20.8001C20.8001 22.5244 20.8001 22.6667 20.8001 22.8622H21.2267H21.9201C22.7556 22.8622 22.8978 23.0222 22.8089 23.8489C22.8089 23.9738 22.7593 24.0937 22.671 24.182C22.5826 24.2704 22.4628 24.32 22.3378 24.32H22.2756C21.8134 24.32 21.3867 24.32 20.8801 24.32C20.3734 24.32 20.3378 24.2222 20.3556 23.6622Z" fill="#14406F"/>
<path d="M18.1956 23.8755H19.9734V24.3378H17.7156V21.8933H20V22.3378H18.2222V22.8622H19.6445V23.3689H18.2222L18.1956 23.8755Z" fill="#14406F"/>
<path d="M8.71994 24.3022C8.61189 24.3631 8.48526 24.3823 8.36402 24.3561C8.24279 24.3299 8.13538 24.2601 8.06216 24.16L6.97771 22.88L6.75549 22.64V24.3378H6.2666V21.9022C6.62216 21.7511 6.85327 21.9822 7.0666 22.2133C7.27993 22.4444 7.56438 22.8 7.82216 23.1022L8.23105 23.5556V21.8844H8.71105L8.71994 24.3022Z" fill="#14406F"/>
<path d="M15.2979 22.7289V24.3378H14.8623V21.9022C14.9873 21.8389 15.1316 21.8248 15.2665 21.8626C15.4015 21.9005 15.5173 21.9876 15.5912 22.1067C15.8312 22.4444 16.1156 22.7555 16.3912 23.0755L16.7467 23.4667H16.8445V21.8667H17.3334V24.3111C17.204 24.376 17.0548 24.3891 16.9161 24.3479C16.7774 24.3066 16.6596 24.214 16.5867 24.0889C16.2134 23.6 15.7956 23.1555 15.4045 22.6844L15.2979 22.7289Z" fill="#14406F"/>
<path d="M9.17344 21.8667C9.84899 21.8667 10.5245 21.8667 11.209 21.8667C11.3277 21.8736 11.4389 21.9268 11.5187 22.0149C11.5985 22.103 11.6405 22.219 11.6357 22.3378C11.6357 22.8533 11.6357 23.3689 11.6357 23.8756C11.6357 23.9981 11.587 24.1157 11.5003 24.2024C11.4136 24.2891 11.296 24.3378 11.1734 24.3378H11.1112C10.4801 24.3378 9.84899 24.3378 9.21788 24.3378C9.11631 23.5179 9.10142 22.6896 9.17344 21.8667ZM9.63566 22.3556V23.8489H11.129C11.129 23.3422 11.129 22.8444 11.129 22.3556H9.63566Z" fill="#14406F"/>
<path d="M26.4623 24.3467H25.9645L25.9201 23.5467H24.4445C24.4445 23.7156 24.4445 23.8578 24.4445 24.0089C24.4445 24.3556 24.4445 24.3556 23.9734 24.3289C23.9734 23.6533 23.9734 22.9778 23.9734 22.3022C23.9847 22.178 24.0439 22.0631 24.1385 21.9818C24.2331 21.9005 24.3556 21.8592 24.4801 21.8667C24.9423 21.8667 25.3689 21.8667 25.8667 21.8667C26.3645 21.8667 26.4712 22.0356 26.4889 22.4356C26.4801 23.0489 26.4623 23.6711 26.4623 24.3467ZM24.4356 23.0311H25.9023V22.3644H24.4356V23.0311Z" fill="#14406F"/>
<path d="M13.2267 24.3644H12.4889C12.1689 24.3644 12.0089 24.2311 12 23.9289C12 23.3689 12 22.8089 12 22.2578C12 22 12.1244 21.9467 12.4356 21.9467C12.5689 21.9467 12.7022 21.9022 12.8444 21.8933H13.2533C13.4931 21.9066 13.7335 21.9066 13.9733 21.8933C14.2756 21.8933 14.4711 21.8933 14.48 22.2311C14.48 22.8 14.48 23.3778 14.48 23.9467C14.4732 24.0504 14.4272 24.1477 14.3512 24.2187C14.2752 24.2897 14.1751 24.3291 14.0711 24.3289H13.2267V24.3644ZM13.9822 23.8578V22.3555H12.5156V23.8578H13.9822Z" fill="#14406F"/>
<path d="M23.6444 21.8755H23.2178V24.3378H23.6444V21.8755Z" fill="#14406F"/>
<path d="M5.52905 21.8844H5.95572V24.0711C5.95572 24.3111 5.90239 24.3378 5.53794 24.3556L5.52905 21.8844Z" fill="#14406F"/>
</g>
<defs>
<linearGradient id="paint0_linear_2707_296998" x1="16.0899" y1="8.29609" x2="15.8677" y2="18.6605" gradientUnits="userSpaceOnUse">
<stop stop-color="#14406F"/>
<stop offset="0.5" stop-color="#0385BF"/>
<stop offset="1" stop-color="#133F6E"/>
</linearGradient>
<clipPath id="clip0_2707_296998">
<rect width="32" height="32" fill="white"/>
</clipPath>
</defs>
</svg>
