<svg width="32" height="32" viewBox="0 0 32 32" fill="none" xmlns="http://www.w3.org/2000/svg">
<g clip-path="url(#clip0_2737_122975)">
<mask id="mask0_2737_122975" style="mask-type:luminance" maskUnits="userSpaceOnUse" x="0" y="0" width="32" height="32">
<path d="M31.9909 0.0177612H0.0175781V31.9911H31.9909V0.0177612Z" fill="white"/>
</mask>
<g mask="url(#mask0_2737_122975)">
<path d="M15.9998 31.9822C24.8265 31.9822 31.982 24.8267 31.982 16C31.982 7.17325 24.8265 0.0177612 15.9998 0.0177612C7.17306 0.0177612 0.0175781 7.17325 0.0175781 16C0.0175781 24.8267 7.17306 31.9822 15.9998 31.9822Z" fill="white"/>
<path d="M23.7071 14.3822C23.7071 14.3822 25.8848 14.3911 26.7915 14.4C27.1737 14.4 27.5737 14.0444 27.5204 13.5466C27.4759 13.1288 27.1915 12.9333 26.8182 12.9244C25.8404 12.9244 23.7071 12.9244 23.7071 12.9244V14.3822ZM27.8315 11.6C28.4271 11.6444 28.8982 12.1777 29.1026 12.7466C29.3337 13.3777 29.2537 14.4355 28.9248 15.0133C28.5782 15.6355 28.2048 15.9288 27.5115 15.9288C26.2493 15.9288 23.6804 15.9288 23.6804 15.9288L23.6448 18.0355H21.6182L21.6537 11.5911C23.5382 11.5911 27.7071 11.6 27.8404 11.6" fill="#19396F"/>
<path d="M9.37788 16.88H5.71566C5.71566 16.88 5.10233 17.9911 5.04899 18.0444H2.77344C2.77344 18.0444 4.88899 13.7511 5.74233 12.5066C6.05344 12.0622 6.43566 11.8311 6.7201 11.6978C6.96899 12.1955 7.21788 12.6844 7.46677 13.1822V13.2889C7.08455 14.0178 6.69344 14.7466 6.29344 15.5111H8.6401C8.69344 15.5466 9.37788 16.7555 9.38677 16.8889" fill="#05AEE7"/>
<path d="M20.6842 11.591L17.2798 14.631L21.2264 17.9999L18.6842 18.0444C18.6842 18.0444 15.6176 15.5022 15.3153 15.191C15.0131 14.8799 14.8442 14.5866 15.3242 14.1066C15.582 13.8488 18.0176 11.5822 18.0176 11.5822H20.6842" fill="#1C3B71"/>
<path d="M14.7114 11.5911V18.0355H12.7025L12.667 11.5911H14.7114Z" fill="#1E3D72"/>
<path d="M6.71973 11.6977C6.93306 11.5733 7.76862 11.4577 8.35528 11.7422C8.0975 11.9822 7.66195 13.1644 7.46639 13.2888C7.2175 12.7911 6.96862 12.1955 6.71973 11.6977Z" fill="#03A2A9"/>
<path d="M7.4668 13.2889C7.4668 13.2889 8.09791 11.9822 8.35569 11.7422C8.83569 11.9377 9.18235 12.2577 9.3868 12.6311C9.7068 13.2355 12.1601 17.9377 12.1601 18.0266C12.009 18.0266 9.84013 17.9733 9.84013 17.9733C9.84013 17.9733 7.64457 13.36 7.4668 13.2889Z" fill="#06C2B1"/>
<path d="M10.7734 20.4266H10.4889L10.1067 19.831V20.4266H9.82227V19.3599H10.1067L10.4889 19.9644V19.3599H10.7734V20.4266Z" fill="#1C3B71"/>
<path d="M11.3421 19.3599H11.0576V20.4266H11.3421V19.3599Z" fill="#1C3B71"/>
<path d="M11.582 19.8933C11.582 19.7866 11.5998 19.6977 11.6443 19.6088C11.6887 19.5288 11.742 19.4666 11.822 19.4133C11.902 19.3688 11.9909 19.3422 12.0887 19.3422C12.2131 19.3422 12.3198 19.3777 12.4087 19.4488C12.4976 19.5199 12.5509 19.6177 12.5776 19.7422H12.2754C12.2754 19.7422 12.2309 19.6711 12.1954 19.6533C12.1598 19.6355 12.1243 19.6177 12.0798 19.6177C12.0176 19.6177 11.9643 19.6444 11.9198 19.6888C11.8843 19.7422 11.8576 19.8044 11.8576 19.8844C11.8576 19.9644 11.8754 20.0355 11.9198 20.0799C11.9554 20.1333 12.0087 20.1511 12.0798 20.1511C12.1243 20.1511 12.1598 20.1422 12.1954 20.1155C12.2309 20.0977 12.2576 20.0622 12.2754 20.0266H12.5776C12.5509 20.1511 12.4976 20.2488 12.4087 20.3199C12.3198 20.3911 12.2131 20.4266 12.0887 20.4266C11.9909 20.4266 11.902 20.3999 11.822 20.3555C11.742 20.3111 11.6887 20.2488 11.6443 20.1599C11.5998 20.0799 11.582 19.9822 11.582 19.8755V19.8933Z" fill="#1C3B71"/>
<path d="M13.4404 20.4266L13.1204 19.9555V20.4266H12.8359V19.3599H13.1204V19.8221L13.4404 19.3599H13.7693L13.3959 19.8755L13.787 20.4266H13.4404Z" fill="#1C3B71"/>
<path d="M14.2932 19.5999V19.7777H14.6221V19.9999H14.2932V20.1955H14.6666V20.4355H14.0088V19.3688H14.6666V19.6088H14.2932V19.5999Z" fill="#1C3B71"/>
<path d="M15.2092 20.2044H15.5292V20.4355H14.9248V19.3688H15.2092V20.2044Z" fill="#1C3B71"/>
<path d="M17.3426 19.3599V20.4266H17.0581V19.8399L16.8626 20.4266H16.6226L16.427 19.831V20.4266H16.1426V19.3599H16.4892L16.747 20.0533L16.9959 19.3599H17.3426Z" fill="#1C3B71"/>
<path d="M17.9026 19.3599H17.6182V20.4266H17.9026V19.3599Z" fill="#1C3B71"/>
<path d="M19.1288 20.4266H18.8444L18.4622 19.831V20.4266H18.1777V19.3599H18.4622L18.8444 19.9644V19.3599H19.1288V20.4266Z" fill="#1C3B71"/>
<path d="M19.6975 19.3599H19.4131V20.4266H19.6975V19.3599Z" fill="#1C3B71"/>
<path d="M20.9247 20.4266H20.6403L20.2581 19.831V20.4266H19.9736V19.3599H20.2581L20.6403 19.9644V19.3599H20.9247V20.4266Z" fill="#1C3B71"/>
<path d="M21.8583 19.7155C21.8583 19.7155 21.8227 19.6622 21.7872 19.6533C21.7605 19.6355 21.7249 19.6266 21.6894 19.6266C21.6183 19.6266 21.5649 19.6533 21.5205 19.6978C21.476 19.7422 21.4583 19.8133 21.4583 19.8933C21.4583 19.9822 21.476 20.0533 21.5205 20.1066C21.5649 20.1511 21.6272 20.1778 21.7161 20.1778C21.8138 20.1778 21.8849 20.1333 21.9294 20.0355H21.6449V19.8222H22.1783V20.1066C22.1516 20.16 22.1249 20.2133 22.0805 20.2666C22.0361 20.32 21.9827 20.3555 21.9205 20.3911C21.8583 20.4266 21.7783 20.4355 21.6983 20.4355C21.5916 20.4355 21.5027 20.4089 21.4227 20.3644C21.3427 20.32 21.2805 20.2578 21.2361 20.1689C21.1916 20.0889 21.1738 19.9911 21.1738 19.8844C21.1738 19.7778 21.1916 19.6889 21.2361 19.6C21.2805 19.52 21.3427 19.4578 21.4227 19.4044C21.5027 19.36 21.5916 19.3333 21.6983 19.3333C21.8227 19.3333 21.9294 19.3689 22.0183 19.4311C22.0983 19.4933 22.1516 19.5822 22.1783 19.6978H21.8761L21.8583 19.7155Z" fill="#1C3B71"/>
</g>
</g>
<defs>
<clipPath id="clip0_2737_122975">
<rect width="32" height="32" fill="white"/>
</clipPath>
</defs>
</svg>
