<svg width="32" height="32" viewBox="0 0 32 32" fill="none" xmlns="http://www.w3.org/2000/svg">
<g clip-path="url(#clip0_2707_293653)">
<path d="M16 31.9823C24.8268 31.9823 31.9823 24.8268 31.9823 16C31.9823 7.17331 24.8268 0.0178223 16 0.0178223C7.17331 0.0178223 0.0178223 7.17331 0.0178223 16C0.0178223 24.8268 7.17331 31.9823 16 31.9823Z" fill="white"/>
<path d="M9.94678 4.27563L22.0446 14.5334V19.8667L9.94678 9.52897V4.27563Z" fill="#1881C3"/>
<path d="M22.0445 4.44446V14.1245L17.9556 10.4978V6.73779L22.0445 4.44446Z" fill="#74BE45"/>
<path d="M9.94678 10.0178L14.0179 13.5734L14.089 19.0578L9.94678 15.6623V10.0178Z" fill="#74BE45"/>
<path d="M10.3645 4.22229H21.8045L17.9734 6.43562H12.9689L10.3645 4.22229Z" fill="#17A8DE"/>
<path d="M20.9068 24.3823H20.5513V27.0668H20.9068V24.3823Z" fill="#74BE45"/>
<path fill-rule="evenodd" clip-rule="evenodd" d="M18.0979 24.7379H19.369L18.1068 27.0756H19.9912V26.7201H18.7468L19.9557 24.3734H18.0979V24.7379Z" fill="#74BE45"/>
<path fill-rule="evenodd" clip-rule="evenodd" d="M13.1823 27.0756V25.1556L14.0178 26.4711L14.8 25.1378V27.0756H15.1556V24.4089H14.8978L14.0089 25.8756L13.12 24.3911H12.8445V27.0578L13.1823 27.0756Z" fill="#74BE45"/>
<path fill-rule="evenodd" clip-rule="evenodd" d="M11.0579 24.3823V27.049H12.4445V26.6934H11.4045V24.3823H11.0579Z" fill="#74BE45"/>
<path fill-rule="evenodd" clip-rule="evenodd" d="M19.9111 23.4667L20.3645 24.1955L20.5334 24.0889L20.0889 23.36L19.9111 23.4667Z" fill="#1881C3"/>
<path fill-rule="evenodd" clip-rule="evenodd" d="M19.7601 23.5467C19.8751 23.5632 19.9918 23.5632 20.1068 23.5467C20.2325 23.5332 20.3483 23.4725 20.4309 23.3767C20.5134 23.281 20.5565 23.1574 20.5512 23.0311C20.5552 22.9542 20.5431 22.8772 20.5155 22.8053C20.488 22.7333 20.4456 22.6679 20.3912 22.6133C20.3117 22.5377 20.2075 22.4935 20.0979 22.4889H19.5557V24.1778H19.7601V23.5467ZM19.7601 23.3422C19.8601 23.3595 19.9623 23.3595 20.0623 23.3422C20.1409 23.3334 20.2134 23.2959 20.266 23.2368C20.3185 23.1777 20.3473 23.1013 20.3468 23.0222C20.3497 22.9734 20.3425 22.9246 20.3257 22.8787C20.3088 22.8328 20.2827 22.7909 20.249 22.7556C20.2079 22.7157 20.1548 22.6907 20.0979 22.6844H19.7601V23.3422Z" fill="#1881C3"/>
<path d="M17.5555 22.4712H17.3511V24.1512H17.5555V22.4712Z" fill="#1881C3"/>
<path d="M17.9911 22.4712H16.9155V22.6756H17.9911V22.4712Z" fill="#1881C3"/>
<path d="M15.0044 23.3423H14.3911V23.5467H15.0044V23.3423Z" fill="#1881C3"/>
<path d="M18.9778 23.3423H18.3645V23.5467H18.9778V23.3423Z" fill="#1881C3"/>
<path d="M10.1511 25.6801H9.15552V26.0178H10.1511V25.6801Z" fill="#74BE45"/>
<path d="M17.1557 25.6801H16.1602V26.0178H17.1557V25.6801Z" fill="#74BE45"/>
<path d="M22.8 25.6801H21.8044V26.0178H22.8V25.6801Z" fill="#74BE45"/>
<path d="M21.6978 23.3423H21.0845V23.5467H21.6978V23.3423Z" fill="#1881C3"/>
<path fill-rule="evenodd" clip-rule="evenodd" d="M14.2222 24.1867L14.6933 22.8889L15.1378 24.1867H15.3511L14.7911 22.5511H14.5956L14 24.1956L14.2222 24.1867Z" fill="#1881C3"/>
<path fill-rule="evenodd" clip-rule="evenodd" d="M18.2045 24.1867L18.6667 22.8889L19.1112 24.1867H19.3245L18.7645 22.5511H18.5689L17.9734 24.1956L18.2045 24.1867Z" fill="#1881C3"/>
<path fill-rule="evenodd" clip-rule="evenodd" d="M8.88895 27.0756L9.66228 24.9334L10.4001 27.0667H10.7467L9.85784 24.4H9.53784L8.56006 27.0667L8.88895 27.0756Z" fill="#74BE45"/>
<path fill-rule="evenodd" clip-rule="evenodd" d="M15.9112 27.0756L16.6846 24.9334L17.4134 27.0667H17.7779L16.889 24.4H16.5334L15.5557 27.0667L15.9112 27.0756Z" fill="#74BE45"/>
<path fill-rule="evenodd" clip-rule="evenodd" d="M21.5467 27.0756L22.32 24.9334L23.0578 27.0667H23.4044L22.5156 24.4H22.1955L21.2178 27.0667L21.5467 27.0756Z" fill="#74BE45"/>
<path fill-rule="evenodd" clip-rule="evenodd" d="M20.9333 24.1867L21.4045 22.8889L21.8578 24.1867H22.0711L21.5111 22.5511H21.3333L20.7378 24.1956L20.9333 24.1867Z" fill="#1881C3"/>
<path fill-rule="evenodd" clip-rule="evenodd" d="M13.7777 22.6578C13.7354 22.5837 13.6727 22.5234 13.597 22.484C13.5214 22.4446 13.436 22.4278 13.351 22.4356C13.2609 22.449 13.1779 22.4922 13.115 22.5582C13.0522 22.6242 13.0133 22.7093 13.0044 22.8C13.0083 22.8848 13.0331 22.9672 13.0765 23.0401C13.1199 23.113 13.1806 23.174 13.2533 23.2178C13.4044 23.3245 13.5288 23.3956 13.6177 23.4667C13.6632 23.4985 13.6999 23.5413 13.7244 23.5911C13.741 23.6583 13.741 23.7284 13.7244 23.7956C13.6979 23.8734 13.6425 23.938 13.5697 23.976C13.4969 24.0141 13.4122 24.0227 13.3333 24C13.2982 24.0012 13.2633 23.9955 13.2305 23.9832C13.1977 23.9709 13.1677 23.9522 13.1421 23.9283C13.1165 23.9043 13.0959 23.8756 13.0814 23.8436C13.0669 23.8117 13.0589 23.7773 13.0577 23.7422V23.6356H12.8533V23.7334C12.8532 23.8553 12.9004 23.9725 12.9849 24.0604C13.0695 24.1482 13.1848 24.1999 13.3066 24.2045C13.4283 24.2238 13.5529 24.1996 13.6585 24.1362C13.7642 24.0728 13.8441 23.9743 13.8844 23.8578C13.9097 23.7526 13.9097 23.643 13.8844 23.5378C13.851 23.4464 13.7925 23.3662 13.7155 23.3067L13.3333 23.0489C13.2628 23.0061 13.2094 22.9401 13.1822 22.8622C13.1748 22.8305 13.1758 22.7974 13.1852 22.7663C13.1945 22.7351 13.2119 22.7069 13.2355 22.6845C13.262 22.6588 13.2965 22.6431 13.3333 22.64C13.3766 22.635 13.4205 22.6424 13.4598 22.6613C13.4991 22.6801 13.5323 22.7098 13.5555 22.7467L13.5999 22.8356L13.7866 22.7467L13.7777 22.6578Z" fill="#1881C3"/>
<path fill-rule="evenodd" clip-rule="evenodd" d="M11.4844 22.4712V23.6979C11.4972 23.8134 11.5508 23.9205 11.6355 24.0001C11.6953 24.0548 11.7654 24.0971 11.8417 24.1246C11.918 24.152 11.999 24.1641 12.0799 24.1601C12.2137 24.164 12.345 24.1233 12.4533 24.0445C12.5126 23.9938 12.5606 23.9312 12.5943 23.8607C12.6279 23.7903 12.6465 23.7137 12.6488 23.6356V22.4712H12.4444V23.6356C12.4426 23.6827 12.4314 23.7289 12.4116 23.7717C12.3917 23.8144 12.3636 23.8528 12.3288 23.8845C12.2567 23.9365 12.1686 23.9616 12.0799 23.9556C12.0248 23.9608 11.9693 23.9539 11.9171 23.9355C11.8649 23.9171 11.8174 23.8876 11.7777 23.849C11.7313 23.8069 11.7 23.7506 11.6888 23.689V22.4712H11.4844Z" fill="#1881C3"/>
<path fill-rule="evenodd" clip-rule="evenodd" d="M10.2401 24.1245V22.9512L10.9423 24.1156H11.129V22.4712H10.9245V23.689L10.2223 22.4712H10.0356V24.1245H10.2401Z" fill="#1881C3"/>
<path fill-rule="evenodd" clip-rule="evenodd" d="M15.8399 24.1245V22.9512L16.5422 24.1156H16.7377V22.4712H16.5333V23.689L15.8311 22.4712H15.6355V24.1245H15.8399Z" fill="#1881C3"/>
</g>
<defs>
<clipPath id="clip0_2707_293653">
<rect width="32" height="32" fill="white"/>
</clipPath>
</defs>
</svg>
