<svg width="32" height="32" viewBox="0 0 32 32" fill="none" xmlns="http://www.w3.org/2000/svg">
<g clip-path="url(#clip0_2707_293018)">
<path d="M16 32C24.8366 32 32 24.8366 32 16C32 7.16344 24.8366 0 16 0C7.16344 0 0 7.16344 0 16C0 24.8366 7.16344 32 16 32Z" fill="white"/>
<path d="M16.0001 29.3333C23.3639 29.3333 29.3334 23.3638 29.3334 16C29.3334 8.63616 23.3639 2.66663 16.0001 2.66663C8.63628 2.66663 2.66675 8.63616 2.66675 16C2.66675 23.3638 8.63628 29.3333 16.0001 29.3333Z" fill="white"/>
<path d="M9.12881 9.68895H9.18214C9.41539 9.59854 9.66744 9.56746 9.91567 9.59849C10.1639 9.62952 10.4005 9.72169 10.6044 9.86673C10.696 9.91515 10.7911 9.95674 10.8888 9.99117C10.9421 10.0712 10.9955 10.1601 11.0577 10.2401C11.1468 10.3329 11.2107 10.4469 11.2434 10.5714C11.276 10.6958 11.2764 10.8266 11.2444 10.9512C11.1466 11.2178 10.8888 11.2801 10.631 11.3423H10.5421C10.151 11.3423 9.75992 11.3423 9.3777 11.4223C9.00158 11.4053 8.63206 11.5253 8.3377 11.7601C8.29685 11.8 8.26103 11.8448 8.23103 11.8934C8.29325 11.8934 8.37325 11.9467 8.42658 11.8934C8.58399 11.8383 8.75157 11.8186 8.91746 11.8355C9.08336 11.8524 9.24351 11.9055 9.38659 11.9912C9.60885 12.1008 9.85097 12.1644 10.0984 12.1781C10.3459 12.1919 10.5935 12.1555 10.8266 12.0712C11.0523 11.9825 11.3031 11.9825 11.5288 12.0712C11.5288 12.1156 11.5288 12.1601 11.5288 12.2134C11.4817 12.5884 11.5089 12.9689 11.6088 13.3334C11.6095 13.4279 11.6376 13.5202 11.6897 13.5991C11.7417 13.6779 11.8155 13.74 11.9021 13.7778C12.0529 13.8525 12.2107 13.9121 12.3733 13.9556C12.5421 13.9556 12.6666 13.9556 12.6666 13.7156L12.7466 13.6178C12.7466 13.5467 12.8088 13.4845 12.8355 13.4223C12.83 13.408 12.83 13.3921 12.8355 13.3778C13.0399 13.1823 13.2088 12.8978 13.511 12.8978C13.8133 12.8978 13.9288 12.7112 13.9821 12.4534C13.978 12.4239 13.978 12.394 13.9821 12.3645C14.0888 12.0712 14.2399 11.9912 14.5244 12.0978L14.711 12.1689L14.8444 12.2578C14.8834 12.3551 14.9279 12.4501 14.9777 12.5423C15.2757 13.0294 15.6475 13.4672 16.0799 13.8401C16.2179 13.9506 16.3826 14.0228 16.5574 14.0494C16.7322 14.0759 16.9109 14.0558 17.0755 13.9912C17.0755 13.9912 17.0755 13.9023 17.0755 13.8756C17.0755 13.8489 16.9955 13.8756 16.951 13.8223C16.6118 13.6991 16.3067 13.4971 16.061 13.2328C15.8152 12.9685 15.6359 12.6496 15.5377 12.3023C15.5088 12.2028 15.4851 12.102 15.4666 12.0001L15.4133 11.6889V11.3245C15.4666 11.0578 15.5288 10.8001 15.5733 10.5423C15.6177 10.2845 15.5733 10.3023 15.3866 10.3467C15.0508 10.3913 14.7387 10.5442 14.4977 10.7823L13.9999 11.1467C13.7253 11.4042 13.3976 11.5984 13.0399 11.7156H12.8533H12.5599H12.4177L12.3733 11.5556C12.3827 11.5267 12.3827 11.4956 12.3733 11.4667L12.6577 10.9334C13.0844 10.5601 13.0933 10.5245 12.8799 10.0445C12.8266 9.93784 12.7999 9.84895 12.8799 9.76006L13.3599 9.3245L14.2221 8.7645L14.4621 8.64895C15.0122 8.303 15.6754 8.18502 16.311 8.32006C16.9006 8.43603 17.4547 8.68873 17.9288 9.05784C18.2666 9.3245 18.5866 9.60895 18.9244 9.87561L19.0933 10.0623C19.3285 10.4698 19.6288 10.8361 19.9821 11.1467C19.9864 11.2161 20.0158 11.2815 20.0649 11.3306C20.1141 11.3797 20.1795 11.4092 20.2488 11.4134L20.4444 11.6534L20.791 11.9378L21.9021 12.7201C21.9118 12.7248 21.9225 12.7272 21.9333 12.7272C21.944 12.7272 21.9547 12.7248 21.9644 12.7201L22.071 12.8089L22.9066 13.6978C22.9066 13.8489 22.9688 13.9734 23.1466 13.9645C23.3525 13.951 23.5574 13.9243 23.7599 13.8845C23.7599 13.8845 23.7599 13.7512 23.7599 13.6801C23.7599 13.6089 23.7599 13.3512 23.7155 13.1823C23.8183 13.1397 23.9114 13.0768 23.9893 12.9974C24.0672 12.918 24.1282 12.8236 24.1688 12.7201L24.231 12.6401L24.5066 12.1601L24.6133 11.7156C24.6602 11.3919 24.681 11.0649 24.6755 10.7378C24.6423 10.4078 24.5377 10.0889 24.3688 9.80341C24.1999 9.51789 23.9709 9.27257 23.6977 9.0845C23.3724 8.84851 23.0084 8.67104 22.6221 8.56006C22.3187 8.45328 22.0219 8.32862 21.7333 8.18673L20.7821 7.68895C20.7021 7.6445 20.631 7.6445 20.6399 7.75117C20.6399 8.06228 20.6933 8.38228 20.7377 8.69339C20.7527 8.72359 20.774 8.75028 20.8 8.77172C20.826 8.79316 20.8563 8.80888 20.8888 8.81784C21.111 8.81784 21.3333 8.81784 21.5555 8.88006H21.8133C22.2133 8.98673 22.6221 9.07561 23.0133 9.20895C23.3286 9.29173 23.6043 9.48363 23.7915 9.75054C23.9786 10.0175 24.0651 10.3421 24.0355 10.6667C24.0355 10.8712 24.0355 11.0845 24.0355 11.2978V11.5112L23.8488 11.7423C23.751 11.8489 23.6621 11.9645 23.5555 12.0623C23.2654 12.2957 22.8945 12.4044 22.5244 12.3645H22.471C21.9775 12.1688 21.5341 11.8651 21.1733 11.4756C21.1733 11.4756 21.1199 11.4756 21.0933 11.4756L20.8355 11.2001L20.7288 11.0312L19.9021 9.92895L19.8133 9.82228C19.7879 9.75373 19.7551 9.68816 19.7155 9.62673C19.4399 9.28895 19.1644 8.95117 18.8266 8.64006C18.5 8.28191 18.1153 7.9814 17.6888 7.75117C17.0406 7.46598 16.3433 7.30901 15.6355 7.28895C15.261 7.25542 14.8837 7.30144 14.5283 7.42399C14.1729 7.54655 13.8474 7.74286 13.5733 8.00006L13.3866 8.09784L13.1021 8.29339L13.0133 8.35561L12.9244 8.46228C12.7727 8.52426 12.6294 8.60488 12.4977 8.70228C12.3032 8.85815 12.0743 8.96528 11.83 9.01476C11.5857 9.06423 11.3331 9.05462 11.0933 8.98673C10.5733 8.90081 10.0469 8.85918 9.51992 8.86228C9.29473 8.85002 9.07044 8.89918 8.87103 9.0045C8.36436 9.30673 7.88436 9.65339 7.40436 9.98228C7.40436 9.98228 7.35992 10.0534 7.33325 10.0978H7.42214C7.71884 10.1667 8.02748 10.1655 8.32367 10.0946C8.61987 10.0236 8.8955 9.88474 9.12881 9.68895Z" fill="#A50E22"/>
<path d="M4.85333 17.4488C4.94475 17.0414 5.10724 16.6532 5.33333 16.3022C5.54983 15.9588 5.82693 15.6576 6.15111 15.4133C6.47888 15.1718 6.84569 14.9884 7.23555 14.8711C7.64798 14.7476 8.07615 14.6847 8.50666 14.6844C8.98588 14.6685 9.46262 14.7596 9.90222 14.9511C10.2485 15.1076 10.5396 15.3646 10.7378 15.6888C10.9201 16.0078 11.0123 16.3704 11.0044 16.7377C11.0121 16.9417 10.9881 17.1456 10.9333 17.3422C10.8519 17.7248 10.7141 18.0933 10.5244 18.4355C10.3289 18.7728 10.0762 19.0735 9.77777 19.3244C9.45715 19.6008 9.0858 19.8121 8.68444 19.9466C8.23559 20.1008 7.76341 20.176 7.28888 20.1688C6.84325 20.1773 6.39999 20.1019 5.98222 19.9466C5.62532 19.806 5.31665 19.5652 5.09333 19.2533C4.87982 18.9162 4.77152 18.5232 4.78222 18.1244C4.78105 17.8973 4.8049 17.6707 4.85333 17.4488ZM6.79111 17.4488C6.73908 17.6975 6.70934 17.9504 6.70222 18.2044C6.70222 18.8266 6.96888 19.1377 7.51111 19.1377C7.76741 19.143 8.01799 19.0616 8.22222 18.9066C8.42497 18.7382 8.58618 18.5252 8.69333 18.2844C8.81697 17.9973 8.91512 17.6998 8.98666 17.3955C9.03785 17.1737 9.06762 16.9475 9.07555 16.7199C9.07555 16.0977 8.79999 15.8311 8.25777 15.8311C8.07743 15.8237 7.89793 15.8594 7.7341 15.9351C7.57026 16.0109 7.4268 16.1245 7.31555 16.2666C7.04842 16.6395 6.86913 17.068 6.79111 17.5199V17.4488Z" fill="#A50E22"/>
<path d="M11.2622 20.0977L12.4444 14.7644H14.1333L15.9111 17.4311L16.5155 14.7644H17.9733L16.7911 20.0977H15.3333L13.3778 17.0844L12.7111 20.0977H11.2622Z" fill="#A50E22"/>
<path d="M18.071 20.0977L19.2533 14.7644H21.1022L19.9199 20.0977H18.071Z" fill="#A50E22"/>
<path d="M20.4978 20.0977L23.1645 17.4311L21.7334 14.8177H23.8222L24.5511 16.2311L25.92 14.8177H27.5556L25.1556 17.2177L26.8178 20.1333H24.6667L23.7778 18.48L22.16 20.1333L20.4978 20.0977Z" fill="#A50E22"/>
<path d="M6.36444 21.4223L6.14222 21.4845C6.1371 21.3323 6.07711 21.187 5.97333 21.0756C5.89023 21.0012 5.78263 20.9601 5.6711 20.96C5.60674 20.9593 5.54287 20.9715 5.48332 20.9959C5.42376 21.0203 5.36973 21.0565 5.32444 21.1023C5.2138 21.2166 5.13425 21.3574 5.09333 21.5111C5.0373 21.6743 5.0073 21.8453 5.00444 22.0178C4.99307 22.1828 5.04029 22.3465 5.13777 22.48C5.17774 22.534 5.23011 22.5775 5.29045 22.6069C5.3508 22.6363 5.41734 22.6507 5.48444 22.6489C5.71555 22.6489 5.89333 22.4889 6.02666 22.1778L6.22222 22.2223C6.18132 22.391 6.08606 22.5416 5.95113 22.6508C5.8162 22.76 5.64908 22.8218 5.47555 22.8267C5.37185 22.8316 5.26849 22.8116 5.17414 22.7683C5.07979 22.725 4.99721 22.6596 4.93333 22.5778C4.79689 22.3965 4.72775 22.1734 4.73777 21.9467C4.7373 21.6485 4.82718 21.3572 4.99555 21.1111C5.06439 20.9954 5.16192 20.8995 5.27871 20.8325C5.3955 20.7656 5.52759 20.7299 5.66222 20.7289C5.82744 20.7273 5.98797 20.7839 6.11555 20.8889C6.19022 20.957 6.25066 21.0391 6.29338 21.1307C6.3361 21.2222 6.36025 21.3213 6.36444 21.4223Z" fill="black"/>
<path d="M9.59112 22.2223H8.8889L8.59557 22.8089H8.34668L9.32446 20.8H9.6089L9.95557 22.8089H9.69779L9.59112 22.2223ZM9.59112 22.0178L9.43112 21.1289L8.98668 22.0178H9.59112Z" fill="black"/>
<path d="M12.7377 22L12.6044 22.8178H12.3555L12.6932 20.8089H13.2444C13.3732 20.8061 13.5018 20.8211 13.6266 20.8534C13.7231 20.8866 13.8049 20.9527 13.8577 21.04C13.9207 21.1349 13.9546 21.2461 13.9555 21.36C13.9561 21.5213 13.8957 21.6769 13.7866 21.7956C13.7018 21.8751 13.6004 21.9347 13.4896 21.97C13.3789 22.0054 13.2617 22.0156 13.1466 22H12.7377ZM12.7377 21.8045H13.0132C13.1341 21.8225 13.2569 21.8225 13.3777 21.8045C13.4604 21.7826 13.5328 21.7322 13.5821 21.6623C13.6361 21.584 13.6641 21.4907 13.6621 21.3956C13.6614 21.3213 13.6432 21.2482 13.6088 21.1823C13.5816 21.1308 13.5377 21.0901 13.4844 21.0667C13.3905 21.048 13.2938 21.048 13.1999 21.0667H12.871L12.7377 21.8045Z" fill="black"/>
<path d="M16.7201 20.8088L16.3823 22.8177H16.1423L16.4712 20.8088H16.7201Z" fill="black"/>
<path d="M20.4445 21.0133H19.8667L19.5645 22.7911H19.3156L19.6178 21.0133H19.04V20.8088H20.4445V21.0133Z" fill="black"/>
<path d="M23.4044 22.2222H22.6755L22.391 22.8088H22.1599L23.111 20.8088H23.3866L23.7332 22.8177H23.4755L23.4044 22.2222ZM23.4044 22.0177L23.2532 21.1288L22.7999 22.0177H23.4044Z" fill="black"/>
<path d="M27.4133 22.8177H26.1777L26.5066 20.8088H26.7555L26.4533 22.5866H27.4488L27.4133 22.8177Z" fill="black"/>
</g>
<defs>
<clipPath id="clip0_2707_293018">
<rect width="32" height="32" fill="white"/>
</clipPath>
</defs>
</svg>
