<svg width="32" height="32" viewBox="0 0 32 32" fill="none" xmlns="http://www.w3.org/2000/svg">
<g clip-path="url(#clip0_2810_58519)">
<mask id="mask0_2810_58519" style="mask-type:luminance" maskUnits="userSpaceOnUse" x="0" y="0" width="32" height="32">
<path d="M31.9909 0.0178223H0.0175781V31.9912H31.9909V0.0178223Z" fill="white"/>
</mask>
<g mask="url(#mask0_2810_58519)">
<path d="M15.9998 31.9823C24.8265 31.9823 31.982 24.8268 31.982 16C31.982 7.17331 24.8265 0.0178223 15.9998 0.0178223C7.17306 0.0178223 0.0175781 7.17331 0.0175781 16C0.0175781 24.8268 7.17306 31.9823 15.9998 31.9823Z" fill="white"/>
<path fill-rule="evenodd" clip-rule="evenodd" d="M6.21339 13.0223C6.21339 13.0223 4.86228 13.7423 4.88006 13.7334C4.94228 13.4845 5.0045 13.2356 5.06672 12.9867C5.1645 12.6312 5.28895 12.2845 5.44895 11.9556C5.53783 11.769 5.6445 11.5912 5.76006 11.4223C5.93783 11.1556 6.16006 10.9245 6.41783 10.7201C6.65783 10.5245 6.93339 10.3912 7.21783 10.2934C7.42228 10.2223 7.63561 10.1778 7.84895 10.1601C7.98228 10.1512 8.1245 10.1334 8.25783 10.1245C8.71117 10.1245 8.96895 10.5601 8.79117 10.9156C8.69339 11.1112 8.53339 11.2178 8.31117 11.2267C8.06228 11.2267 7.81339 11.2623 7.58228 11.3423C7.28006 11.449 7.02228 11.6267 6.80895 11.8756C6.5245 12.2045 6.3645 12.5956 6.22228 13.0134L6.21339 13.0223Z" fill="url(#paint0_linear_2810_58519)"/>
<path fill-rule="evenodd" clip-rule="evenodd" d="M5.91105 14.4801C5.89327 14.6223 5.87549 14.7379 5.85771 14.889C5.83105 15.129 5.79549 15.3779 5.76882 15.6179C5.75993 15.7245 5.75105 15.8223 5.74216 15.929C5.72438 16.1245 5.7066 16.3112 5.68882 16.5068C5.67993 16.6134 5.67105 16.7112 5.67105 16.8179C5.65327 17.1468 5.61771 17.4757 5.52882 17.7957C5.44882 18.0712 5.34216 18.3379 5.18216 18.5779C5.04882 18.7734 4.89771 18.9423 4.71105 19.0757C4.60438 19.1557 4.48882 19.2179 4.36438 19.2623C4.27549 19.289 4.19549 19.3245 4.1066 19.3423C3.75993 19.4223 3.43993 19.3512 3.12882 19.1912C2.86216 19.049 2.6666 18.8357 2.51549 18.5868C2.40882 18.4001 2.33771 18.1957 2.30216 17.9823C2.27549 17.8401 2.2666 17.7068 2.2666 17.5645C2.2666 17.2179 2.33771 16.8801 2.45327 16.5601C2.56882 16.2312 2.71993 15.929 2.9066 15.6357C3.03993 15.4401 3.18216 15.2445 3.33327 15.0668C3.47549 14.8979 3.6266 14.7468 3.77771 14.5957C4.00882 14.3823 4.24882 14.1779 4.5066 14.0001C4.62216 13.9201 4.7466 13.8312 4.86216 13.7512C4.87993 13.7157 6.23993 13.0045 6.25771 13.0045C6.33771 12.969 6.40882 12.9423 6.47993 12.9157C6.72882 12.8268 6.96882 12.729 7.2266 12.649C7.59994 12.5423 7.92882 12.7912 7.9466 13.1645C7.95549 13.3868 7.81327 13.6179 7.58216 13.7068C7.35993 13.7868 7.13771 13.8668 6.92438 13.9468C6.61327 14.0623 6.31994 14.2134 6.0266 14.3645C5.99994 14.3823 5.96438 14.4001 5.92882 14.4268C5.92882 14.4268 5.20882 14.8801 4.81771 15.1912C4.71993 15.2712 4.46216 15.4845 4.44438 15.5023C4.23993 15.7068 4.05327 15.929 3.88438 16.169C3.72438 16.4001 3.59994 16.6401 3.50216 16.8979C3.43993 17.0579 3.40438 17.2268 3.37771 17.3957C3.35993 17.5557 3.35993 17.7068 3.40438 17.8579C3.43105 17.9468 3.4666 18.0357 3.52882 18.1068C3.65327 18.2668 3.79549 18.3112 3.97327 18.2312C4.04438 18.1957 4.11549 18.1423 4.16882 18.089C4.31994 17.9379 4.39105 17.7423 4.45327 17.5379C4.52438 17.2979 4.54216 17.049 4.56882 16.809C4.5866 16.569 4.60438 16.3201 4.62216 16.0801C4.63993 15.8579 4.65771 15.6357 4.67549 15.4045C4.67549 15.369 4.67549 15.3601 4.67549 15.3157C4.67549 15.3157 5.89327 14.4801 5.91993 14.4801H5.91105Z" fill="url(#paint1_linear_2810_58519)"/>
<path fill-rule="evenodd" clip-rule="evenodd" d="M5.91106 14.4356C5.89329 14.5779 5.87551 14.7379 5.85773 14.8801C5.83106 15.1201 5.79551 15.369 5.76884 15.609C5.75995 15.7156 5.75106 15.8134 5.74217 15.9201C5.7244 16.1156 5.70662 16.3023 5.68884 16.4979C5.67995 16.6045 5.67106 16.7023 5.67106 16.809C5.65329 17.1379 5.61773 17.4668 5.52884 17.7868C5.44884 18.0623 5.34217 18.329 5.18217 18.569C5.04884 18.7645 4.89773 18.9334 4.71106 19.0668C4.6044 19.1468 4.38217 17.7334 4.4444 17.529C4.51551 17.289 4.53329 17.0401 4.55995 16.8001C4.57773 16.5601 4.59551 16.3112 4.61329 16.0712C4.63106 15.849 4.64884 15.6268 4.66662 15.3956C4.66662 15.3601 4.66662 15.3512 4.66662 15.3068C4.90662 15.0312 5.75995 14.5245 5.91106 14.4268V14.4356Z" fill="url(#paint2_linear_2810_58519)"/>
<path d="M20.0355 16.8623C20.0355 16.8623 20.0622 16.8712 20.0711 16.8712C20.3911 16.8712 20.7022 16.8712 21.0222 16.8712C21.1911 16.8712 21.3333 16.7823 21.4311 16.6401C21.5644 16.4534 21.5822 16.2401 21.4755 16.0356C21.3778 15.8312 21.2 15.7245 20.9689 15.7245C20.6844 15.7245 20.4 15.7245 20.1155 15.7245C20.0889 15.7245 20.0711 15.7245 20.0444 15.7245V16.8534L20.0355 16.8623ZM19.4044 15.129C19.4044 15.129 19.4666 15.129 19.5022 15.129C20 15.129 20.4978 15.1201 20.9955 15.129C21.3244 15.129 21.6266 15.2445 21.8578 15.4934C22.0355 15.689 22.1244 15.9201 22.1511 16.1778C22.1778 16.4356 22.1244 16.6845 21.9911 16.9067C21.8222 17.2001 21.5555 17.369 21.2178 17.4312C21.1378 17.449 21.0578 17.4489 20.9778 17.4489C20.6933 17.4489 20.4089 17.4489 20.1333 17.4489H20.0355C20.0089 17.5289 20.0355 17.6089 20.0266 17.6889C20.0266 17.7689 20.0266 17.849 20.0266 17.929V18.4178C19.8133 18.4267 19.6089 18.4178 19.4133 18.4178C19.3955 18.3378 19.3866 15.3067 19.4133 15.129" fill="#232C65"/>
<path d="M7.59092 15.1378H9.95536C9.95536 15.3334 9.95536 15.5289 9.95536 15.7334C9.91092 15.7334 9.88425 15.7334 9.8487 15.7334C9.34203 15.7334 8.84425 15.7334 8.33759 15.7334H8.22203V16.6223C8.49759 16.6223 8.77314 16.6223 9.03981 16.6223C9.30648 16.6223 9.58203 16.6223 9.8487 16.6223V17.1912C9.74203 17.2 9.63537 17.1912 9.5287 17.1912C9.42203 17.1912 9.31536 17.1912 9.2087 17.1912H8.21314V18.4089C7.99981 18.4089 7.79536 18.4089 7.59981 18.4089C7.59092 18.4 7.59092 18.4 7.58203 18.3912C7.58203 18.3823 7.58203 18.3734 7.58203 18.3645C7.58203 17.3067 7.58203 16.24 7.58203 15.1823C7.58203 15.1734 7.58203 15.1556 7.58203 15.1378" fill="#232C65"/>
<path d="M23.5644 16.5689C23.2355 16.5511 22.96 16.7823 22.8978 17.0756C22.88 17.1734 22.8711 17.2711 22.8889 17.3689C22.9333 17.6356 23.0666 17.8223 23.3244 17.9111C23.4577 17.9556 23.5911 17.9645 23.7244 17.9378C23.84 17.9111 23.9378 17.8667 24.0266 17.7778C24.1778 17.6178 24.24 17.4311 24.2311 17.2178C24.2133 16.8445 23.9466 16.56 23.5733 16.5778M24.2489 16.3911C24.2489 16.2934 24.2577 16.2045 24.2666 16.1067C24.4533 16.0889 24.6311 16.1067 24.8266 16.1067C24.8266 16.1423 24.8266 16.1778 24.8266 16.2134C24.8266 16.9067 24.8266 17.6 24.8266 18.2934V18.4178C24.7466 18.4356 24.4 18.4445 24.2755 18.4178C24.2666 18.3289 24.2578 18.2311 24.24 18.1245C24.2133 18.16 24.1866 18.1956 24.16 18.2223C24.0178 18.3645 23.8489 18.4534 23.6533 18.48C23.3778 18.5245 23.1111 18.48 22.8711 18.3467C22.6311 18.2223 22.4711 18.0178 22.3822 17.76C22.2755 17.44 22.2666 17.12 22.3822 16.8C22.5155 16.4 22.8 16.1689 23.2 16.08C23.3511 16.0445 23.5111 16.0267 23.6711 16.0534C23.8666 16.0889 24.0355 16.16 24.1689 16.3023C24.1955 16.3289 24.2133 16.3556 24.2489 16.3823" fill="#232C65"/>
<path d="M13.1376 16.969C13.111 16.7823 13.0043 16.6579 12.8354 16.5957C12.6932 16.5423 12.5421 16.5423 12.391 16.5601C12.1954 16.5957 12.0443 16.7023 11.9465 16.889C11.9376 16.9157 11.9288 16.9423 11.911 16.9779C12.0088 16.9957 13.0576 16.9957 13.1288 16.9779M13.6888 17.4757H13.0843C12.8799 17.4757 12.6843 17.4757 12.4799 17.4757C12.2843 17.4757 12.0888 17.4757 11.8843 17.4757C11.9199 17.689 12.0354 17.8223 12.2132 17.8846C12.5421 18.0001 12.8532 17.9646 13.1465 17.7601C13.1554 17.7601 13.1643 17.7423 13.1821 17.7335C13.3065 17.8579 13.4221 17.9735 13.5554 18.0979C13.511 18.1335 13.4843 18.169 13.4488 18.1957C13.2532 18.3379 13.0399 18.4268 12.7999 18.4623C12.551 18.4979 12.3021 18.489 12.0532 18.409C11.6532 18.2757 11.4043 17.9912 11.3065 17.5912C11.2532 17.3601 11.2532 17.1201 11.3154 16.889C11.431 16.4801 11.6888 16.2135 12.0888 16.0979C12.3554 16.0179 12.631 16.0179 12.8976 16.089C13.3065 16.1957 13.5554 16.4712 13.6443 16.8801C13.6799 17.0401 13.6888 17.209 13.6799 17.369C13.6799 17.4046 13.671 17.4312 13.6621 17.4757" fill="#232C65"/>
<path d="M28.142 17.4045V18.4001C28.0709 18.4268 27.7331 18.4268 27.582 18.409C27.582 18.3912 27.582 18.3734 27.582 18.3556C27.582 17.289 27.582 16.2223 27.582 15.1645C27.6531 15.1379 28.0531 15.1379 28.1598 15.1645V17.0134C28.1598 17.0134 28.1776 17.0223 28.1865 17.0312C28.2043 17.0134 28.2131 16.9868 28.2309 16.969C28.4176 16.7468 28.5954 16.5334 28.782 16.3112C28.8265 16.2579 28.8709 16.2134 28.9065 16.1601C28.9243 16.1334 28.9509 16.1245 28.9865 16.1245C29.182 16.1245 29.3776 16.1245 29.582 16.1245C29.5998 16.1245 29.6176 16.1245 29.6443 16.1423C29.6354 16.169 29.6265 16.1868 29.6176 16.1956C29.4576 16.3734 29.3065 16.5512 29.1465 16.7201C29.0131 16.8712 28.8798 17.0134 28.7465 17.1645C28.7287 17.1823 28.7198 17.2001 28.702 17.2268C28.8887 17.4223 29.0665 17.6268 29.2443 17.8223C29.422 18.0179 29.6087 18.2134 29.7776 18.4268C29.7509 18.4356 29.7331 18.4534 29.7154 18.4534C29.5109 18.4534 29.3154 18.4534 29.1109 18.4534C29.0665 18.4534 29.0398 18.4356 29.0131 18.4001C28.8709 18.2401 28.7287 18.0712 28.5865 17.9112C28.4531 17.7512 28.3198 17.6001 28.1776 17.4401C28.1776 17.4401 28.1687 17.4401 28.1509 17.4401" fill="#232C65"/>
<path d="M17.4488 18.3734C17.1465 17.6179 16.8354 16.8623 16.5332 16.1156C16.6043 16.089 16.9865 16.0801 17.1999 16.0979C17.3954 16.6312 17.5821 17.1734 17.7688 17.7156C17.991 17.1734 18.2043 16.6312 18.4265 16.089C18.6399 16.089 18.8532 16.089 19.0576 16.089C19.0488 16.169 17.7243 19.2445 17.6532 19.369C17.5643 19.3868 17.1021 19.3868 17.0221 19.369C17.1643 19.0401 17.3065 18.7023 17.4488 18.3734Z" fill="#232C65"/>
<path d="M14.7113 17.2445C14.4624 16.8623 14.1957 16.4979 13.9557 16.1156C14.0357 16.089 14.489 16.089 14.6579 16.1068C14.8001 16.3556 14.9513 16.6134 15.1024 16.8801C15.1735 16.7556 15.2446 16.6401 15.3068 16.5334C15.3779 16.409 15.449 16.2845 15.529 16.1512C15.5468 16.1245 15.5646 16.1068 15.609 16.1068C15.8135 16.1068 16.0179 16.1068 16.2313 16.1068C16.2313 16.1068 16.2401 16.1068 16.249 16.1068C16.249 16.1068 16.249 16.1067 16.249 16.1156C16.249 16.1156 16.249 16.1245 16.249 16.1334C16.0001 16.4979 15.7513 16.8623 15.5024 17.2267C15.5024 17.2267 15.5024 17.2267 15.5024 17.2356C15.769 17.6179 16.0268 18.0001 16.2935 18.3823C16.2935 18.3823 16.2935 18.3912 16.2935 18.4001C16.2313 18.4179 15.7335 18.4268 15.609 18.4001C15.449 18.1512 15.289 17.9023 15.1201 17.6445C14.9513 17.9023 14.7913 18.1512 14.6224 18.409H13.9379C13.929 18.3556 13.9646 18.329 13.9824 18.3023C14.2046 17.9823 14.4268 17.6623 14.649 17.3423C14.6757 17.3068 14.6935 17.2712 14.7201 17.2356" fill="#232C65"/>
<path d="M26.9421 17.7422C26.9421 17.7422 26.9777 17.76 26.9866 17.7778C27.0933 17.8933 27.2088 18.0089 27.3244 18.1245C27.2888 18.1778 27.2355 18.2133 27.1821 18.2578C26.9955 18.4 26.7821 18.48 26.5421 18.4889C26.2844 18.5067 26.0444 18.4711 25.8133 18.3556C25.5555 18.2311 25.3777 18.0356 25.2888 17.7689C25.1733 17.44 25.1733 17.1022 25.2888 16.7733C25.4221 16.4 25.6977 16.1867 26.071 16.0889C26.3021 16.0267 26.5333 16.0267 26.7644 16.0889C26.9599 16.1422 27.1288 16.24 27.2799 16.4C27.1644 16.5333 27.0399 16.6578 26.9155 16.7822C26.8799 16.7556 26.8444 16.7289 26.8088 16.7111C26.5777 16.5778 26.3377 16.5689 26.0977 16.6933C25.9644 16.7645 25.8755 16.88 25.831 17.0222C25.7777 17.1911 25.7777 17.3511 25.831 17.52C25.9021 17.76 26.1155 17.92 26.3644 17.9378C26.5777 17.9556 26.7733 17.9022 26.9421 17.7511" fill="#232C65"/>
<path d="M10.3372 15.1378H10.8884C10.8884 15.1378 10.8884 15.1378 10.8884 15.1467C10.8884 15.1556 10.8884 15.1734 10.8884 15.1822C10.8884 16.24 10.8884 17.3067 10.8884 18.3645C10.8884 18.3734 10.8884 18.3822 10.8884 18.3911C10.8261 18.4089 10.4617 18.4178 10.3284 18.4C10.3106 18.3378 10.3017 15.2978 10.3284 15.1289" fill="#232C65"/>
<path d="M9.53748 12.7467C9.55526 13.0401 9.28859 13.3156 8.9597 13.3067C8.58637 13.2889 8.39082 12.9867 8.3997 12.7112C8.41748 12.4001 8.66637 12.1601 8.99526 12.1689C9.32415 12.1778 9.56415 12.4712 9.52859 12.7556" fill="url(#paint3_linear_2810_58519)"/>
</g>
</g>
<defs>
<linearGradient id="paint0_linear_2810_58519" x1="5.20146" y1="12.5131" x2="5.64321" y2="13.6288" gradientUnits="userSpaceOnUse">
<stop stop-color="#17B6EA"/>
<stop offset="1" stop-color="#263D8E"/>
</linearGradient>
<linearGradient id="paint1_linear_2810_58519" x1="6.70972" y1="12.2042" x2="8.40511" y2="15.3901" gradientUnits="userSpaceOnUse">
<stop stop-color="#B93293"/>
<stop offset="0.09" stop-color="#EC1776"/>
<stop offset="1" stop-color="#F9CB18"/>
</linearGradient>
<linearGradient id="paint2_linear_2810_58519" x1="5.60578" y1="18.4159" x2="5.8923" y2="15.6574" gradientUnits="userSpaceOnUse">
<stop stop-color="#F9CB18"/>
<stop offset="0.68" stop-color="#EA7535"/>
<stop offset="1" stop-color="#881D49"/>
</linearGradient>
<linearGradient id="paint3_linear_2810_58519" x1="6.67194" y1="17.1131" x2="7.0896" y2="17.7105" gradientUnits="userSpaceOnUse">
<stop stop-color="#CC258A"/>
<stop offset="1" stop-color="#EE3167"/>
</linearGradient>
<clipPath id="clip0_2810_58519">
<rect width="32" height="32" fill="white"/>
</clipPath>
</defs>
</svg>
