<svg width="32" height="32" viewBox="0 0 32 32" fill="none" xmlns="http://www.w3.org/2000/svg">
<g clip-path="url(#clip0_2810_58914)">
<mask id="mask0_2810_58914" style="mask-type:luminance" maskUnits="userSpaceOnUse" x="0" y="0" width="32" height="32">
<path d="M31.9909 0.0178223H0.0175781V31.9912H31.9909V0.0178223Z" fill="white"/>
</mask>
<g mask="url(#mask0_2810_58914)">
<path d="M15.9998 31.9823C24.8265 31.9823 31.982 24.8268 31.982 16C31.982 7.17331 24.8265 0.0178223 15.9998 0.0178223C7.17306 0.0178223 0.0175781 7.17331 0.0175781 16C0.0175781 24.8268 7.17306 31.9823 15.9998 31.9823Z" fill="white"/>
<path d="M19.7857 14.88C19.839 14.7734 19.8302 14.6845 19.7857 14.5867C19.5902 14.4712 19.359 14.4445 19.1457 14.5067C18.8524 14.5956 18.7368 14.88 18.8168 15.1556C18.8524 15.2712 18.9324 15.36 19.0479 15.4134C19.1546 15.4667 19.2613 15.52 19.3768 15.5734C19.439 15.6 19.4924 15.6445 19.5279 15.7067C19.5368 15.92 19.4657 15.9912 19.2524 16C19.1279 16 19.0124 15.9556 18.9057 15.9023C18.8702 15.8845 18.8346 15.8489 18.7813 15.8756C18.7368 15.9645 18.7457 16.0445 18.7813 16.1512C18.8257 16.1778 18.879 16.2134 18.9324 16.24C19.0746 16.2934 19.2168 16.3023 19.3679 16.2845C19.4924 16.2667 19.6079 16.2312 19.7146 16.1423C19.8479 16.0267 19.9102 15.8756 19.9013 15.7067C19.9013 15.5378 19.8213 15.4134 19.679 15.3245C19.6079 15.28 19.5279 15.2445 19.4568 15.2089C19.3857 15.1734 19.3057 15.1289 19.2346 15.0845C19.1635 15.0489 19.1457 14.9778 19.1546 14.9067C19.1546 14.8356 19.2524 14.7556 19.3235 14.7556C19.3946 14.7556 19.4746 14.7556 19.5368 14.7823C19.6168 14.8 19.6879 14.8445 19.7679 14.8712M17.9457 13.2445C17.9457 13.2445 17.999 13.2356 18.0168 13.2356C18.8968 13.2356 19.7768 13.2356 20.6657 13.2356C20.6924 13.2356 20.719 13.2356 20.7457 13.2356C20.7457 13.2623 20.7457 13.2978 20.7457 13.3245C20.7457 14.72 20.7457 16.1067 20.7457 17.5023C20.719 17.5023 20.6924 17.5023 20.6657 17.5023C19.7857 17.5023 18.9057 17.5023 18.0257 17.5023C17.999 17.5023 17.9724 17.5023 17.9457 17.5023C17.9368 17.4845 17.9279 17.4756 17.919 17.4578C17.919 17.4223 17.9102 17.3867 17.9102 17.3512C17.9102 16.0267 17.9102 14.7023 17.9102 13.3778C17.9102 13.3423 17.9102 13.3067 17.919 13.2712C17.9279 13.2712 17.9368 13.2534 17.9457 13.2445Z" fill="#67BC51"/>
<path d="M13.2177 14.5156C13.1644 14.56 13.1555 14.6045 13.1555 14.6578C13.1555 15.1467 13.1555 15.6267 13.1555 16.1156C13.1555 16.2312 13.191 16.2667 13.3066 16.2667C13.5733 16.2667 13.8399 16.2667 14.1066 16.2667C14.1244 16.2667 14.151 16.2667 14.1777 16.2667C14.2044 16.1778 14.2044 16.0889 14.1777 15.9912H13.5288V15.5023H14.0622C14.1155 15.4045 14.1155 15.3156 14.0622 15.2178H13.5288V14.8H14.1599C14.2222 14.6845 14.2133 14.5778 14.151 14.5245H13.2266L13.2177 14.5156ZM15.1022 17.5112C14.1599 17.5112 13.2088 17.5112 12.2666 17.5112C12.2666 16.1334 12.2666 14.7556 12.2666 13.3778C12.2666 13.3334 12.2666 13.2889 12.2666 13.2445C12.3022 13.2445 12.3288 13.2356 12.3644 13.2356C13.2533 13.2356 14.1422 13.2356 15.031 13.2356C15.0577 13.2356 15.0933 13.2356 15.1199 13.2356C15.1199 13.28 15.1199 13.3245 15.1199 13.3689C15.1199 14.7467 15.1199 16.1245 15.1199 17.5023" fill="#D6BD75"/>
<path d="M10.5954 15.6533C10.6399 15.6533 10.6754 15.6533 10.711 15.6533C10.7999 15.6533 10.8977 15.6533 10.9865 15.6266C11.1199 15.5999 11.2265 15.5377 11.3154 15.4311C11.4132 15.3066 11.4399 15.1733 11.431 15.0222C11.431 14.7288 11.2354 14.5688 10.9777 14.5333C10.7821 14.5066 10.5865 14.5155 10.391 14.5066C10.3199 14.5066 10.2665 14.5244 10.2399 14.5866V16.2399C10.3554 16.2933 10.471 16.2844 10.5865 16.2399V15.6533H10.5954ZM12.2488 13.2533C12.2488 13.2533 12.2488 13.3422 12.2488 13.3866C12.2488 14.7644 12.2488 16.1422 12.2488 17.5199C12.2221 17.5199 12.1954 17.5199 12.1688 17.5199C11.2799 17.5199 10.391 17.5199 9.5021 17.5199H9.4221C9.40433 17.4399 9.39544 13.3688 9.4221 13.2444H9.5021C10.3821 13.2444 11.271 13.2444 12.151 13.2444C12.1777 13.2444 12.2132 13.2444 12.2399 13.2444" fill="#167BBD"/>
<path d="M22.4882 15.8755C22.5327 16 22.5771 16.1333 22.6215 16.2577C22.746 16.2755 22.8615 16.2844 22.9771 16.2577C22.9771 16.2133 22.9771 16.1777 22.9682 16.1511C22.7815 15.6089 22.5949 15.0666 22.3993 14.5244C22.2393 14.4977 22.0971 14.4889 21.946 14.5244C21.9282 14.56 21.9193 14.5866 21.9104 14.6133C21.7327 15.1111 21.5638 15.6089 21.386 16.1155C21.3682 16.1511 21.3682 16.1955 21.3593 16.2489C21.4749 16.2755 21.5815 16.2755 21.6882 16.2489C21.7327 16.1155 21.7771 15.9911 21.8215 15.8666H22.4793L22.4882 15.8755ZM20.7549 17.52C20.7549 16.1244 20.7549 14.7377 20.7549 13.3422C20.7549 13.3155 20.7549 13.28 20.7549 13.2533C20.7904 13.2533 20.826 13.2533 20.8615 13.2533C21.7149 13.2533 22.5682 13.2533 23.4215 13.2533C23.4749 13.2533 23.5282 13.2533 23.5904 13.2711V17.52C23.5904 17.52 23.546 17.52 23.5282 17.52C22.6215 17.52 21.7149 17.52 20.7993 17.52C20.7815 17.52 20.7727 17.52 20.7549 17.52Z" fill="#FAED28"/>
<path d="M27.0391 16.24C27.1458 16.2845 27.2613 16.2756 27.3769 16.24C27.4213 16.1156 27.4569 15.9912 27.5013 15.8667H28.1591C28.2036 16 28.248 16.1245 28.2924 16.2489C28.4169 16.2578 28.5413 16.2934 28.6747 16.2223C28.4702 15.6445 28.2747 15.0845 28.0791 14.5156C27.9191 14.48 27.7769 14.48 27.6347 14.5156C27.5636 14.64 27.048 16.1334 27.048 16.2312M26.4436 17.4756C26.4436 17.4756 26.4436 17.4134 26.4436 17.3778C26.4436 16.0445 26.4436 14.7023 26.4436 13.3689C26.4436 13.3334 26.4436 13.3067 26.4436 13.2712C26.4436 13.2623 26.4613 13.2534 26.4613 13.2445C26.488 13.2445 26.5147 13.2356 26.5324 13.2356C27.4124 13.2356 28.3013 13.2356 29.1813 13.2356H29.2347C29.2613 13.3245 29.2702 17.2356 29.2436 17.5023C29.2258 17.5023 29.208 17.5023 29.1813 17.5023C28.2924 17.5023 27.4036 17.5023 26.5058 17.5023C26.488 17.5023 26.4702 17.5023 26.4524 17.5023C26.4524 17.5023 26.4347 17.4845 26.4258 17.4756" fill="#373536"/>
<path d="M16.7463 15.4489C16.7463 15.4489 16.8174 15.4134 16.8352 15.4045C16.9508 15.3334 17.0219 15.2356 17.0574 15.1023C17.1108 14.8712 16.9863 14.6223 16.7641 14.56C16.6663 14.5334 16.5685 14.5156 16.4708 14.5067C16.3196 14.5067 16.1596 14.5067 16.0085 14.5067C15.9374 14.5067 15.8841 14.5245 15.8574 14.5867V16.2312C15.973 16.2934 16.0885 16.2845 16.213 16.2312C16.213 16.1067 16.213 16 16.213 15.8845C16.213 15.7689 16.2041 15.6623 16.213 15.5467C16.3996 15.5023 16.5063 15.5912 16.5685 15.7067C16.5774 15.7334 16.5952 15.76 16.6041 15.7867C16.6663 15.9378 16.7285 16.0889 16.7908 16.24C16.9152 16.2667 17.0396 16.2756 17.1641 16.2312C17.1552 16.1867 17.1463 16.1423 17.1285 16.1067C17.0663 15.9645 17.013 15.8312 16.9508 15.6978C16.9063 15.6 16.853 15.5112 16.7463 15.44M15.093 17.5023C15.093 16.1245 15.093 14.7467 15.093 13.3689C15.093 13.3245 15.093 13.28 15.093 13.2356C15.1196 13.2356 15.1552 13.2356 15.1819 13.2356C16.053 13.2356 16.9241 13.2356 17.7863 13.2356C17.8219 13.2356 17.8485 13.2356 17.8841 13.2445C17.8841 13.2445 17.9019 13.2623 17.9108 13.2712C17.9108 13.3067 17.9019 13.3423 17.9019 13.3778C17.9019 14.7023 17.9019 16.0267 17.9019 17.3512C17.9019 17.3867 17.9019 17.4223 17.9108 17.4578C17.9108 17.4578 17.9108 17.4578 17.9019 17.4578C17.9019 17.4756 17.8841 17.4845 17.8752 17.5023C17.8485 17.5023 17.8219 17.5023 17.7952 17.5023C16.9152 17.5023 16.0352 17.5023 15.1552 17.5023C15.1285 17.5023 15.1019 17.5023 15.0752 17.5023" fill="#EC3438"/>
<path d="M7.3152 15.4756C7.3152 15.6534 7.32409 15.8311 7.34187 16.0089C7.35965 16.2578 7.38632 16.5067 7.42187 16.7556C7.45743 17.0134 7.51076 17.2711 7.5552 17.5378C7.62632 17.9378 7.73298 18.32 7.84854 18.7111C8.06187 19.4045 8.31076 20.08 8.60409 20.7378C8.61298 20.7645 8.62187 20.7823 8.63076 20.8089C8.62187 20.8089 8.61298 20.8089 8.5952 20.8089C8.25743 20.2223 7.89298 19.6534 7.50187 19.1023C7.2352 18.7289 6.95076 18.3556 6.63965 18.0089C6.44409 17.7956 6.24854 17.5734 6.04409 17.3689C5.62632 16.96 5.17298 16.6045 4.65743 16.32C4.65743 16.32 4.64854 16.3111 4.63965 16.3023C4.77298 16.2223 4.90632 16.1423 5.03965 16.0711C5.45743 15.8489 5.91076 15.6889 6.37298 15.5911C6.68409 15.5378 6.98632 15.4845 7.30632 15.4845" fill="#67BD53"/>
<path d="M7.03907 13.4666C6.65684 13.4666 6.34573 13.3244 6.08796 13.0399C5.91907 12.8533 5.82129 12.631 5.82129 12.3733C5.82129 11.9466 6.01684 11.6355 6.3724 11.4222C6.62129 11.271 6.88796 11.2177 7.1724 11.2444C7.59018 11.2888 7.91018 11.4933 8.12351 11.8577C8.18573 11.9733 8.22129 12.0977 8.23907 12.231C8.28351 12.5777 8.15907 12.871 7.91907 13.111C7.74129 13.2888 7.52796 13.3955 7.27907 13.431C7.19907 13.4399 7.11018 13.4488 7.03018 13.4666" fill="#D7BE75"/>
<path d="M4.11532 14.8089C4.20421 14.6133 4.28421 14.4089 4.31977 14.1956C4.34643 14.0533 4.36421 13.9111 4.38199 13.7689C4.39088 13.6533 4.39977 13.5378 4.39977 13.4133C4.39088 13.12 4.36421 12.8356 4.31088 12.5511C4.22199 12.08 4.08866 11.6267 3.93754 11.1733C3.93754 11.1556 3.92866 11.1378 3.93754 11.12C3.99977 11.2267 4.06199 11.3422 4.12421 11.4489C4.38199 11.8933 4.6931 12.2933 5.07532 12.6489C5.32421 12.88 5.60866 13.0667 5.8931 13.2533C5.91977 13.2711 5.94643 13.2889 5.9731 13.3067C5.93754 13.4667 5.93754 13.6267 5.93754 13.7867C5.93754 14.0533 5.99088 14.32 6.04421 14.5778C6.07977 14.72 6.11532 14.8711 6.14199 15.0133H6.12421C5.60866 15.0489 5.0931 15.0044 4.58643 14.8978C4.43532 14.8622 4.27532 14.8267 4.12421 14.7911" fill="#187BBE"/>
<path d="M6.14194 15.0222C6.10639 14.88 6.07083 14.7289 6.04417 14.5867C5.99083 14.3289 5.9375 14.0622 5.9375 13.7956C5.9375 13.6356 5.9375 13.4756 5.97306 13.3156C6.11528 13.3778 6.24861 13.4489 6.39083 13.5111C6.79083 13.6889 7.19972 13.8044 7.62639 13.8844C7.9375 13.9378 8.23972 13.9911 8.55083 14.0356C8.76417 14.0622 8.98639 14.0711 9.19972 14.1067C9.15528 14.1067 9.11083 14.1244 9.06639 14.1244C8.82639 14.1244 8.58639 14.1689 8.34639 14.24C7.81306 14.3911 7.48417 14.7378 7.35083 15.28C7.33306 15.3511 7.32417 15.4133 7.30639 15.4844C6.99528 15.4844 6.68417 15.5378 6.37306 15.5911C6.35528 15.5467 6.34639 15.5111 6.32861 15.4667C6.26639 15.3244 6.19528 15.1733 6.13306 15.0311" fill="#EB3539"/>
<path d="M6.14175 15.0223C6.20397 15.1645 6.27508 15.3156 6.3373 15.4578C6.35508 15.4934 6.37286 15.5378 6.38175 15.5823C5.91953 15.68 5.46619 15.84 5.04842 16.0623C4.91508 16.1334 4.78175 16.2134 4.64842 16.2934C4.51508 16.2312 4.38175 16.1689 4.24842 16.1156C3.95508 15.9912 3.65286 15.8934 3.33286 15.8489C3.12842 15.8134 2.91508 15.7956 2.7373 15.7689C2.85286 15.7334 3.00397 15.6978 3.14619 15.6356C3.52842 15.4756 3.83064 15.2267 4.06175 14.88C4.07953 14.8534 4.0973 14.8267 4.12397 14.8C4.27508 14.8356 4.43508 14.8712 4.58619 14.9067C5.09286 15.0134 5.60842 15.0578 6.12397 15.0223H6.14175Z" fill="#FAED28"/>
<path d="M24.6397 15.9822C24.7286 15.9822 24.8086 15.9822 24.8975 15.9822C25.0931 15.9644 25.2531 15.8844 25.3242 15.6889C25.3953 15.4933 25.3953 15.2977 25.3242 15.1022C25.2797 14.96 25.1731 14.8622 25.0308 14.8177C24.9064 14.7822 24.7731 14.7822 24.6397 14.7911V15.9733V15.9822ZM24.9508 14.5244C25.0931 14.5244 25.2264 14.5511 25.3597 14.6222C25.5642 14.7289 25.6797 14.9066 25.7242 15.1289C25.7686 15.3333 25.7597 15.5377 25.6975 15.7333C25.6086 16.0533 25.342 16.2489 24.9953 16.2577C24.9864 16.2577 24.9686 16.24 24.9597 16.24C24.7642 16.24 24.5775 16.24 24.382 16.24C24.3731 16.24 24.3642 16.2577 24.3464 16.2666C24.3286 16.2666 24.3197 16.2489 24.302 16.24C24.3375 16.2044 24.302 16.2044 24.2842 16.1955C24.2842 16.1777 24.2842 16.1689 24.2842 16.1511C24.2842 15.6533 24.2842 15.1555 24.2842 14.6577C24.2842 14.64 24.2842 14.6222 24.2842 14.6044C24.3108 14.5866 24.3375 14.5777 24.3731 14.56C24.5331 14.56 24.702 14.56 24.862 14.56C24.8886 14.56 24.9153 14.5422 24.942 14.5422" fill="#383636"/>
<path d="M19.2172 18.5245V18.8178C19.2794 18.8178 19.3328 18.8178 19.3861 18.8178C19.475 18.8089 19.5194 18.7556 19.5194 18.6578C19.5194 18.5689 19.475 18.5334 19.3772 18.5245C19.3239 18.5245 19.2705 18.5245 19.2172 18.5245ZM19.2172 19.3245C19.3061 19.3511 19.3861 19.3422 19.4661 19.3245C19.5461 19.2978 19.5817 19.2267 19.5817 19.1378C19.5817 19.0489 19.5372 18.9778 19.4661 18.96C19.3861 18.9423 19.3061 18.9334 19.2172 18.96V19.3334V19.3245ZM19.5372 18.8622C19.6705 18.9067 19.7417 18.9956 19.7417 19.1378C19.7417 19.2978 19.6617 19.4134 19.5017 19.4489C19.3594 19.4845 19.2172 19.4667 19.075 19.4667C19.0483 19.3778 19.0483 18.6311 19.0661 18.4089C19.1639 18.3822 19.4305 18.3822 19.5105 18.4089C19.5994 18.4356 19.6528 18.4978 19.6794 18.5867C19.6972 18.6756 19.6794 18.7556 19.6083 18.8178C19.5905 18.8356 19.5728 18.8534 19.5461 18.8711" fill="#413F3F"/>
<path d="M14.7021 18.9778C14.7021 19.0756 14.7732 19.1556 14.8621 19.1467C14.9421 19.1467 15.0132 19.0578 15.0132 18.96C15.0132 18.8623 14.9421 18.7911 14.8532 18.8C14.7643 18.8 14.7021 18.8711 14.7021 18.9778ZM14.7021 19.3334C14.7021 19.3334 14.7732 19.3334 14.8088 19.3334C14.8799 19.3334 14.951 19.3245 15.0221 19.3334C15.1021 19.3334 15.1643 19.3867 15.191 19.4667C15.2176 19.5556 15.191 19.6356 15.1199 19.6978C15.0132 19.7867 14.8799 19.7867 14.7554 19.7689C14.6932 19.76 14.6221 19.7423 14.5599 19.68C14.5776 19.6445 14.6043 19.6089 14.631 19.5734C14.7376 19.6267 14.8443 19.68 14.9688 19.6356C15.0132 19.6178 15.0488 19.5911 15.0576 19.5467C15.0576 19.4756 14.9954 19.4667 14.9332 19.4667C14.8799 19.4667 14.8265 19.4845 14.7643 19.4845C14.6488 19.4934 14.6043 19.4667 14.5688 19.36C14.5688 19.2978 14.631 19.2711 14.6754 19.2445C14.5332 19.0845 14.5065 18.9511 14.5865 18.8178C14.6665 18.6934 14.8176 18.6578 15.0132 18.72C15.031 18.7023 15.0576 18.6756 15.0843 18.6489C15.111 18.6756 15.1465 18.7023 15.191 18.7378C15.1643 18.7556 15.1376 18.7734 15.111 18.7911C15.1199 18.8267 15.1376 18.8623 15.1465 18.8978C15.191 19.0934 15.0843 19.2534 14.8799 19.2711C14.8176 19.2711 14.7554 19.2711 14.7021 19.3156C14.7021 19.3245 14.7021 19.3334 14.7021 19.3423" fill="#3F3D3E"/>
<path d="M25.6261 19.2712V19.0489C25.5817 19.0489 25.5373 19.0489 25.4839 19.04V18.9156H25.7773V19.3778C25.7773 19.3778 25.7239 19.4134 25.6973 19.4312C25.5728 19.4845 25.4395 19.5023 25.3061 19.4756C25.155 19.4489 25.0484 19.3512 24.9861 19.2089C24.915 19.04 24.915 18.8623 24.9773 18.6934C25.075 18.4178 25.3684 18.32 25.6084 18.4C25.6261 18.4 25.6528 18.4178 25.6706 18.4267C25.6884 18.4356 25.7061 18.4534 25.7328 18.4712C25.715 18.5067 25.6973 18.5512 25.6795 18.5778C25.6084 18.5512 25.5373 18.5245 25.475 18.5156C25.315 18.4978 25.1995 18.5778 25.1461 18.72C25.0839 18.8623 25.0839 19.0045 25.1461 19.1467C25.235 19.3423 25.4573 19.3867 25.6261 19.2534" fill="#3F3C3D"/>
<path d="M10.9325 18.9689H10.488V19.4667H10.3369V18.4089H10.4791V18.8178H10.9236V18.4089H11.0747V19.4667H10.9236V18.96L10.9325 18.9689Z" fill="#3F3C3D"/>
<path d="M27.2705 18.6933H27.4127C27.4661 18.8444 27.5194 19.0044 27.5727 19.1733C27.6616 19.0133 27.6972 18.8444 27.795 18.6666C27.8927 18.8355 27.9372 19.0044 28.0261 19.1733C28.0883 19.0044 28.1416 18.8533 28.195 18.6933H28.3283C28.3283 18.7911 28.0972 19.4133 28.035 19.5022C27.9372 19.3422 27.8927 19.1555 27.795 18.9866C27.715 19.1644 27.6438 19.3244 27.5638 19.5111C27.5372 19.4844 27.5194 19.4666 27.5105 19.4488C27.4305 19.2177 27.3505 18.9866 27.2705 18.7555C27.2705 18.7377 27.2705 18.72 27.2705 18.6933Z" fill="#3F3C3D"/>
<path d="M12.6843 19.3156C12.8888 19.4134 13.0488 19.3156 13.0576 19.1111C13.0576 19.0578 13.0576 19.0134 13.0488 18.96C13.031 18.8622 12.9688 18.8178 12.8799 18.8C12.8088 18.7822 12.7465 18.8 12.6843 18.8622V19.3156ZM12.5332 18.6934C12.6043 18.6934 12.6576 18.7052 12.6932 18.7289C12.8532 18.6489 13.0043 18.6667 13.111 18.7734C13.2621 18.9245 13.2532 19.2622 13.1021 19.4134C13.0043 19.5022 12.8888 19.5111 12.7732 19.4845C12.7465 19.4845 12.7288 19.4667 12.6932 19.4578V19.7778H12.551V18.7023L12.5332 18.6934Z" fill="#3F3C3D"/>
<path d="M23.0482 18.9956C23.0305 18.8622 22.9771 18.8 22.8705 18.8C22.7549 18.8 22.6749 18.8622 22.6482 18.9867C22.666 18.9867 22.6838 18.9867 22.7016 18.9867C22.8171 18.9867 22.9327 18.9867 23.0482 18.9867M23.1994 19.0933H22.6571C22.6482 19.3244 22.8171 19.4044 23.0749 19.2889C23.0838 19.3067 23.1016 19.3156 23.1105 19.3333C23.1194 19.3511 23.1282 19.3689 23.1371 19.3778C23.0038 19.4844 22.8171 19.5022 22.6838 19.4222C22.5327 19.3333 22.4794 19.1911 22.4882 19.0311C22.506 18.8356 22.6127 18.7022 22.7727 18.6667C23.0216 18.6044 23.2171 18.7556 23.2171 19.0133C23.2171 19.0311 23.2171 19.0489 23.2171 19.0844" fill="#413F3F"/>
<path d="M11.8038 18.9867C11.7771 18.8534 11.7149 18.7911 11.5994 18.8C11.4838 18.8 11.4127 18.8711 11.3949 18.9867H11.8038ZM11.9549 19.1023H11.3949C11.3949 19.3334 11.5638 19.4134 11.8216 19.2978C11.8394 19.3245 11.8571 19.36 11.8838 19.3956C11.6527 19.5734 11.3416 19.4934 11.2616 19.2445C11.1905 19.04 11.2527 18.8356 11.4127 18.7289C11.5994 18.6045 11.8838 18.6845 11.9371 18.88C11.9549 18.9423 11.9549 19.0134 11.9638 19.1023" fill="#403E3E"/>
<path d="M16.9331 19.0755C16.9331 19.04 16.9331 19.0044 16.9331 18.9689C16.9153 18.8533 16.8353 18.7911 16.7287 18.8C16.6487 18.8089 16.5864 18.8711 16.5598 18.9689C16.542 19.0489 16.542 19.1378 16.5598 19.2178C16.5775 19.2978 16.6309 19.3511 16.7109 19.36C16.8087 19.3689 16.8709 19.3422 16.9064 19.2622C16.9331 19.2089 16.9331 19.1466 16.9509 19.0844M16.7464 19.4933C16.5953 19.5022 16.4531 19.4044 16.4087 19.2178C16.382 19.1111 16.382 19.0133 16.4175 18.9155C16.4709 18.7644 16.5953 18.6755 16.7553 18.6755C16.9153 18.6755 17.0487 18.7733 17.0842 18.9333C17.1109 19.04 17.1109 19.1466 17.0842 19.2444C17.0309 19.4133 16.9242 19.4933 16.7464 19.4933Z" fill="#403E3E"/>
<path d="M27.0666 19.0755C27.0666 19.0755 27.0666 19.0755 27.0577 19.0755C27.0577 19.0489 27.0577 19.0133 27.0577 18.9867C27.0488 18.88 26.9777 18.8089 26.8888 18.8C26.791 18.8 26.7199 18.8444 26.6843 18.9511C26.6577 19.04 26.6577 19.1289 26.6843 19.2267C26.711 19.3155 26.7732 19.3689 26.8532 19.3778C26.9332 19.3778 27.0043 19.3333 27.031 19.2533C27.0488 19.2 27.0577 19.1378 27.0666 19.0844M27.2177 19.0844C27.2177 19.1733 27.2088 19.2533 27.1643 19.3244C27.0488 19.5289 26.7021 19.5467 26.5777 19.3333C26.4799 19.1733 26.4799 19.0133 26.5599 18.8533C26.631 18.7111 26.7732 18.6578 26.9332 18.6755C27.0932 18.6933 27.1999 18.8267 27.2177 18.9778C27.2177 19.0133 27.2177 19.04 27.2177 19.0755" fill="#3F3C3D"/>
<path d="M17.8481 19.4756H17.7147C17.7147 19.4756 17.6969 19.4311 17.6881 19.4044C17.6258 19.4578 17.5636 19.4933 17.4747 19.4844C17.3325 19.4844 17.2169 19.4044 17.2081 19.2533C17.1992 19.0667 17.2081 18.88 17.2081 18.6844H17.3503C17.3503 18.6844 17.3503 18.7378 17.3503 18.7733C17.3503 18.9067 17.3503 19.0489 17.3503 19.1822C17.3503 19.2444 17.3503 19.3067 17.4125 19.3333C17.4747 19.3689 17.5458 19.36 17.6081 19.3156C17.6347 19.2978 17.6614 19.2711 17.6792 19.2533V18.6844H17.8303C17.8303 18.8089 17.8303 18.9422 17.8303 19.0667C17.8303 19.1911 17.8303 19.3244 17.8303 19.4667" fill="#403E3E"/>
<path d="M22.3459 19.4666H22.2036C22.2036 19.4666 22.2036 19.4044 22.2036 19.3778C22.2036 19.2533 22.2036 19.12 22.2036 18.9955C22.2036 18.9244 22.2036 18.8444 22.1147 18.8089C22.0347 18.7733 21.9636 18.8089 21.9014 18.8622C21.9014 18.8622 21.8836 18.88 21.8747 18.8978V19.4666H21.7236V18.6933C21.7236 18.6933 21.7859 18.6933 21.8214 18.6933C21.8392 18.72 21.8481 18.7378 21.8659 18.7644C21.8747 18.7644 21.8836 18.7644 21.8925 18.7555C21.937 18.7111 21.9992 18.6844 22.0614 18.6844C22.1947 18.6755 22.3103 18.7378 22.337 18.88C22.3459 18.9422 22.3547 19.0044 22.3547 19.0666C22.3547 19.2 22.3547 19.3422 22.3547 19.4844" fill="#434041"/>
<path d="M19.8752 18.6933H20.0174C20.0174 18.6933 20.0174 18.7556 20.0174 18.7822C20.0174 18.8978 20.0174 19.0222 20.0174 19.1378C20.0174 19.1556 20.0174 19.1733 20.0174 19.1911C20.0174 19.3156 20.0619 19.36 20.1685 19.36C20.2841 19.36 20.3552 19.2978 20.3552 19.1822C20.3552 19.0222 20.3552 18.8622 20.3552 18.7022H20.4974V19.4756H20.373C20.373 19.4756 20.3552 19.44 20.3374 19.4222C20.3285 19.4222 20.3196 19.4222 20.3108 19.4311C20.2485 19.4756 20.1685 19.4933 20.0885 19.4844C19.9819 19.4756 19.9019 19.4044 19.8752 19.3067C19.8752 19.28 19.8574 19.2444 19.8574 19.2178C19.8574 19.0489 19.8574 18.8711 19.8574 18.6844" fill="#3F3C3D"/>
<path d="M14.4085 19.4667C14.4085 19.4667 14.3373 19.4667 14.3196 19.4667C14.3018 19.4667 14.284 19.4667 14.2573 19.4667C14.2573 19.3244 14.2573 19.1911 14.2573 19.0578C14.2573 19.0133 14.2573 18.96 14.2396 18.9156C14.2218 18.8267 14.1418 18.7822 14.0618 18.8089C14.0173 18.8267 13.9729 18.8533 13.9285 18.88V19.4667H13.7773V18.6933C13.7773 18.6933 13.8396 18.6933 13.8751 18.6933C13.8929 18.72 13.9018 18.7467 13.9196 18.7733C13.9196 18.7733 13.9373 18.7733 13.9462 18.7644C13.9996 18.7111 14.0618 18.6844 14.1329 18.6844C14.2751 18.6844 14.3907 18.7467 14.3996 18.9067C14.4085 19.0933 14.4085 19.28 14.4173 19.4844" fill="#3F3C3D"/>
<path d="M16.0798 18.8533C16.1687 18.6933 16.2576 18.5511 16.3376 18.4H16.4976C16.4976 18.4 16.4709 18.4622 16.462 18.48C16.382 18.6222 16.302 18.7644 16.2131 18.8978C16.1776 18.96 16.1598 19.0133 16.1598 19.0844C16.1598 19.2089 16.1598 19.3244 16.1598 19.4578H16.0087C16.0087 19.4578 15.9998 19.4133 15.9998 19.3867C15.9998 19.3156 15.9998 19.2444 15.9998 19.1733C16.0176 19.0311 15.9731 18.9156 15.902 18.8C15.8309 18.7022 15.7776 18.5956 15.7153 18.4889C15.6976 18.4622 15.6887 18.4356 15.6709 18.3911H15.822C15.902 18.5333 15.9909 18.6756 16.0798 18.8444" fill="#413F3F"/>
<path d="M23.7592 18.7377C23.7592 18.7377 23.7414 18.8177 23.7236 18.8622C23.5459 18.7822 23.5103 18.7822 23.4392 18.88C23.4392 18.9422 23.4748 18.9688 23.5281 18.9955C23.5814 19.0222 23.6259 19.04 23.6792 19.0666C23.777 19.1288 23.8214 19.2177 23.7948 19.3333C23.777 19.4222 23.6881 19.4844 23.5814 19.4933C23.4836 19.4933 23.3859 19.4933 23.2881 19.4311C23.3059 19.3866 23.3236 19.3511 23.3325 19.3155C23.4036 19.3333 23.457 19.36 23.5192 19.3688C23.6081 19.3777 23.6348 19.3511 23.6348 19.2444C23.6081 19.1911 23.5548 19.1644 23.5014 19.1377C23.4481 19.1111 23.3859 19.0755 23.3503 19.04C23.2348 18.9244 23.2881 18.7466 23.4481 18.7022C23.5548 18.6755 23.6259 18.6844 23.7592 18.7555" fill="#403E3E"/>
<path d="M24.3636 18.7289C24.3636 18.7289 24.3369 18.8089 24.328 18.8533C24.1503 18.7733 24.1147 18.7733 24.0436 18.8711C24.0436 18.9333 24.088 18.96 24.1325 18.9867C24.1858 19.0133 24.2303 19.0311 24.2836 19.0578C24.3814 19.12 24.4258 19.2178 24.3903 19.3245C24.3636 19.4133 24.2836 19.4756 24.168 19.4845C24.0703 19.4845 23.9725 19.4845 23.8747 19.4133C23.8925 19.3689 23.9014 19.3333 23.9192 19.2978C23.9814 19.3156 24.0347 19.3422 24.088 19.3511C24.1947 19.3689 24.2214 19.3333 24.2214 19.2089C24.1858 19.1822 24.1414 19.1556 24.0969 19.1289C24.0436 19.0933 23.9814 19.0667 23.9369 19.0311C23.8214 18.9156 23.8658 18.7378 24.0258 18.6933C24.1325 18.6578 24.2392 18.6933 24.3458 18.7378" fill="#403E3E"/>
<path d="M20.8085 18.8799C20.8085 18.9422 20.853 18.9688 20.8974 18.9955C20.9419 19.0133 20.9952 19.0399 21.0396 19.0577C21.1463 19.1199 21.1908 19.2177 21.1552 19.3333C21.1285 19.4222 21.0485 19.4844 20.933 19.4933C20.8352 19.4933 20.7374 19.4933 20.6396 19.4222C20.6574 19.3777 20.6752 19.3422 20.6841 19.2977C20.7196 19.3155 20.7463 19.3244 20.773 19.3333C20.7996 19.3422 20.8352 19.3599 20.8708 19.3599C20.9685 19.3599 20.9952 19.3333 20.9952 19.2088C20.9596 19.1822 20.9152 19.1555 20.8619 19.1288C20.8085 19.0933 20.7463 19.0666 20.7019 19.031C20.5863 18.9155 20.6396 18.7377 20.7996 18.6933C20.9063 18.6666 20.9774 18.6755 21.1108 18.7466C21.1019 18.7822 21.0841 18.8266 21.0752 18.871C20.9063 18.791 20.8619 18.791 20.7908 18.8888" fill="#3F3D3E"/>
<path d="M12.1064 18.3822H12.2487C12.2487 18.3822 12.2487 18.4533 12.2487 18.4888C12.2487 18.72 12.2487 18.9511 12.2487 19.1822C12.2487 19.2711 12.2664 19.3422 12.3731 19.36V19.4755C12.2131 19.4933 12.1064 19.4222 12.1064 19.2711C12.1064 18.9777 12.1064 18.6844 12.1064 18.3733" fill="#3B3737"/>
<path d="M18.1862 19.4667H18.0439V18.6933H18.1862C18.1862 18.6933 18.1862 18.7378 18.1951 18.7733C18.2839 18.6844 18.3906 18.64 18.5151 18.7022C18.4973 18.7467 18.4795 18.7822 18.4617 18.8267C18.3639 18.7822 18.2839 18.8 18.2306 18.8889C18.2039 18.9333 18.1951 18.9956 18.1862 19.0489C18.1862 19.1556 18.1862 19.2533 18.1862 19.36V19.4756" fill="#434041"/>
<path d="M26.4711 18.6933C26.4533 18.7377 26.4356 18.7733 26.4267 18.8088C26.3733 18.8088 26.3289 18.791 26.2844 18.8088C26.1956 18.8355 26.1511 18.9155 26.1511 19.0044C26.1511 19.1199 26.1511 19.2355 26.1511 19.351C26.1511 19.3866 26.1511 19.4222 26.1511 19.4666H26V18.6933H26.1422C26.1422 18.6933 26.1511 18.7377 26.16 18.7644C26.2489 18.6755 26.3467 18.6399 26.4711 18.6933Z" fill="#403E3E"/>
<path d="M13.5643 19.4756C13.511 19.4756 13.4665 19.4756 13.4221 19.4756V18.8356C13.4221 18.8356 13.3599 18.8267 13.3154 18.8178V18.7023H13.5643V19.4845V19.4756Z" fill="#403E3E"/>
<path d="M21.3595 18.8267C21.3595 18.8267 21.2973 18.8267 21.2617 18.8178C21.2617 18.7823 21.2617 18.7467 21.2617 18.7023H21.5195V19.4756H21.3773V18.8267H21.3595Z" fill="#413F3F"/>
<path d="M24.9507 14.5245C24.9507 14.5245 24.8974 14.5423 24.8707 14.5423C24.7019 14.5423 24.5419 14.5423 24.3819 14.5423C24.3463 14.56 24.3196 14.5689 24.293 14.5867C24.293 14.5334 24.3374 14.5067 24.3819 14.5067C24.5685 14.5067 24.7641 14.5067 24.9507 14.5156" fill="#434041"/>
<path d="M24.3467 16.2488C24.3467 16.2488 24.3645 16.2222 24.3822 16.2222C24.5778 16.2222 24.7645 16.2222 24.96 16.2222C24.9689 16.2222 24.9867 16.2399 24.9956 16.2399C24.9511 16.2399 24.8978 16.2577 24.8533 16.2577C24.7111 16.2577 24.5689 16.2577 24.4267 16.2577C24.4 16.2577 24.3822 16.2488 24.3556 16.2399" fill="#434041"/>
<path d="M21.5284 18.48C21.5284 18.5244 21.4928 18.5689 21.4395 18.5689C21.395 18.5689 21.3506 18.5333 21.3506 18.48C21.3506 18.4267 21.3861 18.3911 21.4395 18.3911C21.4928 18.3911 21.5284 18.4267 21.5284 18.48Z" fill="#403E3E"/>
<path d="M13.5909 18.48C13.5909 18.5244 13.5553 18.5689 13.502 18.5689C13.4486 18.5689 13.4131 18.5333 13.4131 18.48C13.4131 18.4267 13.4398 18.3911 13.4931 18.3911C13.5375 18.3911 13.582 18.4267 13.5909 18.48Z" fill="#413F3F"/>
<path d="M8.60352 20.7911C8.60352 20.7911 8.62129 20.7911 8.63907 20.7911C8.64796 20.8089 8.65685 20.8178 8.66574 20.8356C8.66574 20.8356 8.66574 20.8533 8.64796 20.8711C8.63018 20.8444 8.6124 20.8178 8.60352 20.7822" fill="#D6BD75"/>
<path d="M17.9288 17.4667C17.9288 17.4667 17.9466 17.4933 17.9555 17.5111C17.9466 17.5111 17.9288 17.5111 17.9199 17.5111C17.9199 17.4933 17.9199 17.4845 17.9199 17.4667C17.9199 17.4667 17.9199 17.4667 17.9288 17.4667Z" fill="#64BD55"/>
<path d="M24.293 16.1866C24.293 16.1866 24.3552 16.1866 24.3107 16.2311C24.3107 16.2133 24.293 16.2044 24.293 16.1866Z" fill="#434041"/>
<path d="M17.9192 17.4667C17.9192 17.4667 17.9192 17.4933 17.9192 17.5111C17.9104 17.5111 17.9015 17.5111 17.8926 17.5111L17.9192 17.4667Z" fill="#EE2F3A"/>
<path d="M17.9642 13.2533C17.9642 13.2533 17.9464 13.2711 17.9375 13.28C17.9375 13.28 17.9375 13.2622 17.9375 13.2533C17.9464 13.2533 17.9642 13.2533 17.9731 13.2533" fill="#64BD55"/>
<path d="M26.4355 17.4933C26.4355 17.4933 26.4533 17.5111 26.4622 17.52C26.4622 17.52 26.4444 17.5022 26.4355 17.4933Z" fill="#2A2627"/>
<path d="M26.4533 13.2533C26.4533 13.2533 26.4355 13.2711 26.4355 13.28C26.4355 13.2711 26.4533 13.2622 26.4533 13.2533Z" fill="#2A2627"/>
<path d="M17.9192 13.2533C17.9192 13.2533 17.9192 13.2711 17.9192 13.28C17.9192 13.28 17.9015 13.2622 17.8926 13.2533C17.8926 13.2533 17.9104 13.2533 17.9192 13.2533Z" fill="#EE2F3A"/>
<path d="M19.7861 14.88C19.6972 14.8445 19.6261 14.8089 19.555 14.7911C19.4839 14.7734 19.4128 14.7645 19.3417 14.7645C19.2617 14.7645 19.1817 14.8445 19.1728 14.9156C19.1728 14.9867 19.1817 15.0578 19.2528 15.0934C19.3239 15.1378 19.4039 15.1734 19.475 15.2178C19.5461 15.2534 19.6261 15.2889 19.6972 15.3334C19.8394 15.4222 19.9105 15.5467 19.9194 15.7156C19.9194 15.8934 19.875 16.0445 19.7328 16.1511C19.635 16.2311 19.5105 16.2756 19.3861 16.2934C19.2439 16.3111 19.0928 16.2934 18.9505 16.2489C18.8883 16.2311 18.835 16.1867 18.7994 16.16C18.755 16.0534 18.7461 15.9734 18.7994 15.8845C18.8528 15.8578 18.8883 15.8845 18.9239 15.9111C19.0305 15.9645 19.1461 16.0089 19.2705 16.0089C19.4839 16.0089 19.555 15.9289 19.5461 15.7156C19.5105 15.6534 19.4572 15.6089 19.395 15.5822C19.2883 15.5289 19.1728 15.4756 19.0661 15.4222C18.9594 15.3689 18.8794 15.28 18.835 15.1645C18.7461 14.8889 18.8617 14.6045 19.1639 14.5156C19.3772 14.4534 19.6083 14.48 19.8039 14.5956C19.8483 14.6845 19.8483 14.7822 19.8039 14.8889" fill="#373635"/>
<path d="M13.2176 14.5156H14.142C14.2043 14.5689 14.2132 14.6756 14.1509 14.7912H13.5198V15.2089H14.0532C14.1154 15.3067 14.1065 15.3956 14.0532 15.4934H13.5198V15.9823H14.1687C14.2043 16.08 14.1954 16.1689 14.1687 16.2578C14.142 16.2578 14.1154 16.2578 14.0976 16.2578C13.8309 16.2578 13.5643 16.2578 13.2976 16.2578C13.182 16.2578 13.1465 16.2223 13.1465 16.1067C13.1465 15.6178 13.1465 15.1378 13.1465 14.6489C13.1465 14.5956 13.1465 14.5512 13.2087 14.5067" fill="#3B3737"/>
<path d="M10.6035 15.3867C10.6657 15.3867 10.7102 15.3867 10.7635 15.3867C10.8435 15.3867 10.9324 15.3689 10.9946 15.2978C11.0746 15.2178 11.0746 15.1289 11.0657 15.0312C11.0657 14.9067 10.9857 14.8089 10.8613 14.7912C10.7724 14.7823 10.6924 14.7912 10.6035 14.7912V15.3867ZM10.6035 15.6534V16.24C10.4791 16.2845 10.3724 16.2934 10.2568 16.24V14.5867C10.2835 14.5334 10.3457 14.5067 10.4079 14.5067C10.6035 14.5067 10.7991 14.5067 10.9946 14.5334C11.2524 14.5689 11.4479 14.7289 11.4479 15.0223C11.4479 15.1734 11.4302 15.3156 11.3324 15.4312C11.2435 15.5378 11.1368 15.6089 11.0035 15.6267C10.9146 15.6445 10.8168 15.6445 10.7279 15.6534C10.6924 15.6534 10.6568 15.6534 10.6124 15.6534" fill="#373636"/>
<path d="M22.3993 15.5823C22.3193 15.3423 22.2393 15.1111 22.1682 14.88H22.1504C22.0704 15.1111 21.9993 15.3423 21.9193 15.5823H22.4082H22.3993ZM22.4882 15.8667H21.8304C21.7859 15.9911 21.7415 16.1156 21.6971 16.2489C21.5904 16.2756 21.4837 16.2756 21.3682 16.2489C21.3682 16.1956 21.3771 16.1511 21.3948 16.1156C21.5637 15.6178 21.7415 15.12 21.9104 14.6134C21.9193 14.5867 21.9371 14.56 21.9459 14.5245C22.0882 14.48 22.2393 14.4889 22.3993 14.5245C22.5859 15.0667 22.7815 15.6089 22.9682 16.1511C22.9771 16.1778 22.9682 16.2134 22.9771 16.2578C22.8526 16.2934 22.7459 16.2845 22.6215 16.2578C22.5771 16.1245 22.5326 16 22.4882 15.8756" fill="#3B3835"/>
<path d="M16.213 15.2799C16.2752 15.2799 16.3374 15.2799 16.3908 15.2799C16.4174 15.2799 16.453 15.2799 16.4796 15.2799C16.613 15.2622 16.693 15.1644 16.693 15.0311C16.693 14.8711 16.6041 14.8088 16.4974 14.7999C16.4085 14.7911 16.3108 14.7999 16.213 14.7999V15.2888V15.2799ZM16.7463 15.4488C16.853 15.5199 16.9063 15.6088 16.9508 15.7066C17.013 15.8399 17.0752 15.9822 17.1285 16.1155C17.1463 16.1511 17.1463 16.1955 17.1641 16.2399C17.0308 16.2933 16.9152 16.2755 16.7908 16.2488C16.7285 16.0977 16.6663 15.9466 16.6041 15.7955C16.5952 15.7688 16.5774 15.7422 16.5685 15.7155C16.5063 15.5911 16.3996 15.5111 16.213 15.5555C16.1952 15.6622 16.213 15.7777 16.213 15.8933C16.213 16.0088 16.213 16.1244 16.213 16.2399C16.0885 16.2844 15.9819 16.2933 15.8574 16.2399V14.5955C15.8841 14.5333 15.9374 14.5155 16.0085 14.5155C16.1596 14.5155 16.3196 14.5155 16.4708 14.5155C16.5685 14.5155 16.6663 14.5422 16.7641 14.5688C16.9952 14.6311 17.1108 14.8799 17.0574 15.1111C17.0308 15.2444 16.9508 15.3422 16.8352 15.4133C16.8085 15.4311 16.7819 15.4399 16.7463 15.4577" fill="#3B3535"/>
<path d="M10.6035 15.3866V14.7911C10.6924 14.7911 10.7813 14.7822 10.8613 14.7911C10.9857 14.8088 11.0568 14.9066 11.0657 15.0311C11.0657 15.1288 11.0657 15.2177 10.9946 15.2977C10.9324 15.3599 10.8524 15.3777 10.7635 15.3866C10.7191 15.3866 10.6657 15.3866 10.6035 15.3866Z" fill="#167BBD"/>
<path d="M22.399 15.5822H21.9102C21.9902 15.3422 22.0702 15.1111 22.1413 14.88H22.159C22.239 15.1111 22.3102 15.3422 22.3902 15.5822" fill="#FAED28"/>
<path d="M27.582 15.5911C27.662 15.3511 27.742 15.12 27.822 14.8622C27.9109 15.1111 27.982 15.3422 28.0709 15.5911C27.982 15.5911 27.902 15.5911 27.822 15.5911C27.742 15.5911 27.6709 15.5911 27.582 15.5911Z" fill="#3B3737"/>
<path d="M16.2129 15.2799V14.7911C16.3107 14.7911 16.4084 14.7822 16.4973 14.7911C16.604 14.8088 16.7018 14.8622 16.6929 15.0222C16.6929 15.1555 16.6129 15.2533 16.4796 15.2711C16.4529 15.2711 16.4173 15.2711 16.3907 15.2711C16.3284 15.2711 16.2751 15.2711 16.2129 15.2711" fill="#EC3438"/>
</g>
</g>
<defs>
<clipPath id="clip0_2810_58914">
<rect width="32" height="32" fill="white"/>
</clipPath>
</defs>
</svg>
