<svg width="32" height="32" viewBox="0 0 32 32" fill="none" xmlns="http://www.w3.org/2000/svg">
<g clip-path="url(#clip0_2707_291988)">
<path d="M16 32C24.8366 32 32 24.8366 32 16C32 7.16344 24.8366 0 16 0C7.16344 0 0 7.16344 0 16C0 24.8366 7.16344 32 16 32Z" fill="white"/>
<path d="M16.0001 29.3334C23.3639 29.3334 29.3334 23.3638 29.3334 16C29.3334 8.63622 23.3639 2.66669 16.0001 2.66669C8.63628 2.66669 2.66675 8.63622 2.66675 16C2.66675 23.3638 8.63628 29.3334 16.0001 29.3334Z" fill="white"/>
<path d="M18.7733 13.7511C16.5549 15.3505 13.9223 16.2764 11.1911 16.4178C12.9217 16.6302 14.675 16.2845 16.1955 15.4311C19.0844 13.9911 21.2089 12.2667 23.6889 12.6933C22.5708 12.9412 21.5189 13.4262 20.6044 14.1156C18.96 15.3156 17.9378 16.4622 16.5511 17.0933C17.0052 16.5491 17.3113 15.897 17.44 15.2C17.44 15.2 16.8 17.6978 13.3866 17.9644C14.176 17.6081 14.8081 16.976 15.1644 16.1867C14.7575 16.8296 14.137 17.3086 13.412 17.5395C12.6869 17.7703 11.9037 17.7382 11.2 17.4489C11.2 17.4489 12.6578 17.1289 12.9244 16.6222C12.9244 16.6222 10.6044 18.2489 8.47998 15.4311C9.1574 15.8916 9.96355 16.125 10.7822 16.0978C11.8011 15.8487 12.7268 15.3118 13.4489 14.5511C14.2068 13.9486 15.0726 13.4961 16 13.2178C16.9584 13.0629 17.9407 13.2518 18.7733 13.7511Z" fill="#6BAD46"/>
<path d="M15.28 18.7111C17.9457 18.7111 20.1067 16.5502 20.1067 13.8845C20.1067 11.2188 17.9457 9.0578 15.28 9.0578C12.6143 9.0578 10.4534 11.2188 10.4534 13.8845C10.4534 16.5502 12.6143 18.7111 15.28 18.7111Z" fill="url(#paint0_linear_2707_291988)"/>
<path d="M16.2223 8.61334C16.5648 9.05034 16.8075 9.55701 16.9334 10.0978C17.0037 10.6227 16.9161 11.1566 16.6818 11.6315C16.4475 12.1064 16.0771 12.5008 15.6178 12.7645C14.1689 13.8311 13.2534 14.3822 12.7645 14.8711C12.2756 15.36 10.6045 16.1333 10.2134 16L11.6889 18.4356L12.48 18.0445C12.7605 18.0158 13.0375 17.9593 13.3067 17.8756L13.0578 18.1422C13.4486 18.2091 13.8501 18.1724 14.2223 18.0356C15.0155 17.8831 15.758 17.5348 16.3823 17.0222C16.3386 17.1975 16.2386 17.3536 16.0978 17.4667C16.9255 17.3221 17.6905 16.9319 18.2934 16.3467C18.9505 15.6956 19.6611 15.1009 20.4178 14.5689L21.4756 13.9289L21.1023 11.1111L20.4978 9.59112L18.2223 8.69334L16.2223 8.61334Z" fill="white"/>
<path d="M16.9334 9.34224C17.1108 9.54071 17.2322 9.78275 17.2853 10.0436C17.3384 10.3044 17.3213 10.5747 17.2356 10.8267C17.1413 11.3147 16.9402 11.7758 16.6466 12.1769C16.3531 12.578 15.9745 12.9092 15.5378 13.1467C16.0929 12.8708 16.7164 12.7625 17.332 12.8351C17.9477 12.9077 18.5288 13.1581 19.0045 13.5556L20.2667 12.9156L19.3778 10.2489L17.9556 9.30668L17.4134 9.12891L16.9334 9.34224Z" fill="#6BAD46"/>
<path d="M18.7733 13.7511C16.5549 15.3505 13.9223 16.2764 11.1911 16.4178C12.9217 16.6302 14.675 16.2845 16.1955 15.4311C19.0844 13.9911 21.2089 12.2667 23.6889 12.6933C22.5708 12.9412 21.5189 13.4262 20.6044 14.1156C18.96 15.3156 17.9378 16.4622 16.5511 17.0933C17.0052 16.5491 17.3113 15.897 17.44 15.2C17.44 15.2 16.8 17.6978 13.3866 17.9644C14.176 17.6081 14.8081 16.976 15.1644 16.1867C14.7575 16.8296 14.137 17.3086 13.412 17.5395C12.6869 17.7703 11.9037 17.7382 11.2 17.4489C11.2 17.4489 12.6578 17.1289 12.9244 16.6222C12.9244 16.6222 10.6044 18.2489 8.47998 15.4311C9.1574 15.8916 9.96355 16.125 10.7822 16.0978C11.8011 15.8487 12.7268 15.3118 13.4489 14.5511C14.2068 13.9486 15.0726 13.4961 16 13.2178C16.9584 13.0629 17.9407 13.2518 18.7733 13.7511Z" fill="#6BAD46"/>
<path d="M14.1067 15.9467C15.7935 15.5346 17.3805 14.788 18.7734 13.7511C17.9482 13.258 16.9764 13.0693 16.0267 13.2178C15.6869 13.3025 15.3586 13.4278 15.0489 13.5911C14.6233 14.0846 14.3379 14.6831 14.2222 15.3244L14.1067 15.9467Z" fill="#006D2E"/>
<path d="M20.0623 14.5511C18.9851 15.528 17.8083 16.3891 16.5512 17.12C17.0052 16.5757 17.3114 15.9237 17.4401 15.2267C17.4401 15.2267 16.8001 17.7244 13.3867 17.9911C14.176 17.6348 14.8082 17.0026 15.1645 16.2133C14.8391 16.7299 14.3793 17.1484 13.8345 17.4239C13.2896 17.6995 12.6801 17.8218 12.0712 17.7778C12.3741 17.6665 12.6709 17.5389 12.9601 17.3955C13.3829 17.1284 13.7242 16.7502 13.9467 16.3022C14.3565 16.2011 14.7602 16.0765 15.1556 15.9289L16.1867 15.4755C19.0756 14.0355 21.2 12.3111 23.68 12.7378C22.562 12.9856 21.5101 13.4706 20.5956 14.16C18.9512 15.36 17.9289 16.5067 16.5423 17.1378C16.9963 16.5935 17.3025 15.9414 17.4312 15.2444C17.4312 15.2444 16.7912 17.7422 13.3778 18.0089C14.1672 17.6526 14.7993 17.0204 15.1556 16.2311C14.7487 16.8741 14.1282 17.3531 13.4032 17.5839C12.6781 17.8147 11.8949 17.7827 11.1912 17.4933" fill="#006D2E"/>
<path d="M4.44444 19.6C4.44898 19.4842 4.42773 19.3688 4.38222 19.2622C4.35203 19.2238 4.31246 19.1938 4.26731 19.1751C4.22216 19.1564 4.17296 19.1497 4.12444 19.1555H4V19.0666H5.17333C5.4428 19.062 5.70899 19.1262 5.94667 19.2533C6.13253 19.3974 6.25372 19.6092 6.28371 19.8425C6.3137 20.0757 6.25004 20.3113 6.10667 20.4978C6.0017 20.6194 5.86218 20.7062 5.70667 20.7466C5.57694 20.7874 5.4425 20.8113 5.30667 20.8178H4.80889V22.0266H4.44444V19.6ZM5.48444 20.5866C5.60556 20.5281 5.70703 20.4356 5.77647 20.3203C5.84592 20.2051 5.88034 20.0722 5.87556 19.9378C5.86611 19.7977 5.81329 19.6642 5.72444 19.5555C5.65684 19.4645 5.57004 19.3894 5.47019 19.3357C5.37034 19.2819 5.25989 19.2507 5.14667 19.2444C5.03269 19.2455 4.91926 19.2604 4.80889 19.2889V20.64C4.92107 20.6536 5.03448 20.6536 5.14667 20.64C5.25015 20.6453 5.35348 20.6271 5.44889 20.5866H5.48444Z" fill="#006D2E"/>
<path d="M6.74656 20.5511C6.75024 20.4411 6.72897 20.3317 6.68434 20.2311C6.68434 20.16 6.56878 20.1334 6.44434 20.1334V20.0445H6.78211C6.86443 20.0412 6.94644 20.0563 7.02211 20.0889C7.07675 20.1206 7.11787 20.1712 7.13767 20.2311H7.111C7.16876 20.1657 7.23806 20.1115 7.31545 20.0711C7.40982 20.0257 7.51296 20.0015 7.61767 20C7.70764 19.9971 7.79673 20.0186 7.87545 20.0622C7.93536 20.1173 7.98371 20.1838 8.01767 20.2578L7.84878 20.3822C7.81678 20.3354 7.76974 20.3009 7.71545 20.2845C7.64761 20.2752 7.57884 20.2752 7.511 20.2845C7.43087 20.284 7.35174 20.3023 7.27989 20.3378C7.21674 20.3611 7.1592 20.3975 7.111 20.4445V22H6.74656V20.5511Z" fill="#006D2E"/>
<path d="M8.48008 21.9289C8.33564 21.8426 8.22329 21.7115 8.16008 21.5556C8.08564 21.3923 8.04712 21.215 8.04712 21.0356C8.04712 20.8561 8.08564 20.6788 8.16008 20.5156C8.22592 20.3612 8.33764 20.2309 8.48008 20.1422C8.62847 20.051 8.79924 20.0027 8.97342 20.0027C9.14759 20.0027 9.31836 20.051 9.46675 20.1422C9.60968 20.2328 9.72378 20.3623 9.79564 20.5156C9.86581 20.6799 9.90199 20.8568 9.90199 21.0356C9.90199 21.2143 9.86581 21.3912 9.79564 21.5556C9.72378 21.7088 9.60968 21.8383 9.46675 21.9289C9.31836 22.0201 9.14759 22.0684 8.97342 22.0684C8.79924 22.0684 8.62847 22.0201 8.48008 21.9289ZM9.25342 21.7867C9.33764 21.6994 9.39874 21.5924 9.43119 21.4756C9.52199 21.1862 9.52199 20.876 9.43119 20.5867C9.39874 20.4698 9.33764 20.3628 9.25342 20.2756C9.17864 20.2023 9.07812 20.1612 8.97342 20.1612C8.86871 20.1612 8.76819 20.2023 8.69342 20.2756C8.60919 20.3628 8.54809 20.4698 8.51564 20.5867C8.42484 20.876 8.42484 21.1862 8.51564 21.4756C8.54809 21.5924 8.60919 21.6994 8.69342 21.7867C8.76819 21.86 8.86871 21.901 8.97342 21.901C9.07812 21.901 9.17864 21.86 9.25342 21.7867Z" fill="#006D2E"/>
<path d="M10.0445 20.5334C9.99823 20.4108 9.93217 20.2967 9.84899 20.1956C9.81604 20.1636 9.77707 20.1385 9.73435 20.1217C9.69162 20.1049 9.64599 20.0968 9.6001 20.0978V20.0089H9.77788C9.91907 20.0114 10.0571 20.0513 10.1779 20.1245C10.321 20.2295 10.4293 20.375 10.489 20.5422L10.8712 21.4311L11.4579 20.0356H11.6712L10.7823 22.0622H10.6668L10.0445 20.5334Z" fill="#006D2E"/>
<path d="M11.9379 20.5511C11.946 20.4408 11.9245 20.3303 11.8757 20.2311C11.8757 20.16 11.7601 20.1333 11.6446 20.1333H11.5557V20.0444H11.9379C12.0173 20.0409 12.0965 20.0561 12.169 20.0889C12.1969 20.1034 12.2216 20.1236 12.2415 20.148C12.2613 20.1725 12.276 20.2008 12.2846 20.2311C12.2975 20.3374 12.2975 20.4448 12.2846 20.5511V22.0266H11.9023L11.9379 20.5511ZM11.9379 19.7155C11.9147 19.6889 11.8972 19.6579 11.8865 19.6242C11.8758 19.5906 11.8721 19.5551 11.8757 19.52C11.8717 19.4958 11.8737 19.4711 11.8814 19.4478C11.8892 19.4246 11.9025 19.4036 11.9201 19.3866C11.9605 19.3539 12.0104 19.3352 12.0623 19.3333C12.0949 19.3315 12.1274 19.3379 12.1569 19.3518C12.1864 19.3658 12.212 19.3869 12.2312 19.4133C12.2767 19.4649 12.302 19.5312 12.3023 19.6C12.3036 19.626 12.2994 19.652 12.29 19.6763C12.2807 19.7006 12.2663 19.7227 12.2479 19.7411C12.2295 19.7595 12.2074 19.7739 12.1831 19.7832C12.1588 19.7926 12.1328 19.7968 12.1068 19.7955C12.0422 19.7918 11.9817 19.7631 11.9379 19.7155Z" fill="#006D2E"/>
<path d="M12.8266 21.7777C12.6927 21.5533 12.6221 21.2969 12.6221 21.0355C12.6221 20.7742 12.6927 20.5177 12.8266 20.2933C12.8953 20.1988 12.9867 20.1232 13.0923 20.0735C13.198 20.0238 13.3145 20.0015 13.4311 20.0089C13.5224 19.9957 13.6152 19.9957 13.7066 20.0089C13.7929 20.0321 13.8764 20.0649 13.9555 20.1066V19.7244C13.9636 19.6141 13.9421 19.5037 13.8933 19.4044C13.8933 19.3333 13.7777 19.3066 13.6622 19.3066H13.5733V19.2177H13.9555C14.0349 19.2152 14.1139 19.2304 14.1866 19.2622C14.2146 19.2768 14.2392 19.2969 14.2591 19.3214C14.279 19.3458 14.2936 19.3741 14.3022 19.4044C14.3142 19.5107 14.3142 19.6181 14.3022 19.7244V22H14.0977L13.9466 21.8133C13.8846 21.8839 13.809 21.9413 13.7244 21.9822C13.6157 22.031 13.4966 22.0523 13.3777 22.0444C13.2707 22.0512 13.1637 22.0303 13.0671 21.9836C12.9705 21.9368 12.8877 21.8659 12.8266 21.7777ZM13.7777 21.84C13.8458 21.7834 13.9056 21.7176 13.9555 21.6444V20.3022L13.7333 20.2044C13.6744 20.1952 13.6144 20.1952 13.5555 20.2044C13.4729 20.2024 13.3915 20.2239 13.3207 20.2664C13.2498 20.3088 13.1926 20.3706 13.1555 20.4444C13.0614 20.6409 13.0185 20.858 13.0311 21.0755C13.0201 21.2891 13.0597 21.5023 13.1466 21.6977C13.1766 21.7694 13.2273 21.8306 13.2923 21.8733C13.3572 21.916 13.4333 21.9385 13.5111 21.9377C13.6042 21.945 13.6974 21.9233 13.7777 21.8755V21.84Z" fill="#006D2E"/>
<path d="M15.1112 21.9289C14.9764 21.8403 14.8711 21.7133 14.809 21.5644C14.6753 21.2276 14.6753 20.8524 14.809 20.5155C14.8677 20.3648 14.9698 20.2349 15.1023 20.1422C15.2312 20.048 15.3871 19.9981 15.5467 20C15.6645 19.9908 15.7828 20.0076 15.8933 20.0491C16.0039 20.0905 16.104 20.1557 16.1867 20.24C16.3378 20.4381 16.4106 20.6849 16.3912 20.9333V21.1022H15.1112C15.1007 21.3058 15.1535 21.5076 15.2623 21.68C15.3074 21.7494 15.3694 21.8061 15.4425 21.845C15.5156 21.8839 15.5973 21.9036 15.6801 21.9022C15.7959 21.9042 15.9099 21.8734 16.009 21.8133C16.1134 21.7519 16.2017 21.6666 16.2667 21.5644L16.3556 21.6266C16.2746 21.7639 16.1618 21.8798 16.0267 21.9644C15.8931 22.0366 15.7431 22.0733 15.5912 22.0711C15.42 22.0769 15.2516 22.027 15.1112 21.9289ZM16.0001 20.9333C16.0108 20.7379 15.9742 20.5427 15.8934 20.3644C15.8606 20.3038 15.8117 20.2535 15.7521 20.219C15.6925 20.1845 15.6245 20.1671 15.5556 20.1689C15.4716 20.171 15.3918 20.2061 15.3334 20.2666C15.2602 20.3454 15.2055 20.4396 15.1734 20.5422C15.1333 20.6686 15.1153 20.8009 15.1201 20.9333H16.0001Z" fill="#006D2E"/>
<path d="M16.5333 20.5511C16.537 20.4411 16.5158 20.3317 16.4711 20.2311C16.4267 20.16 16.3556 20.1333 16.2311 20.1333H16.1511V20.0444H16.5245C16.6068 20.0411 16.6888 20.0563 16.7645 20.0889C16.8179 20.1134 16.8595 20.1582 16.88 20.2133C16.9461 20.148 17.0247 20.0966 17.1111 20.0622C17.2098 20.0222 17.3159 20.004 17.4222 20.0089C17.6119 19.9989 17.7985 20.059 17.9467 20.1778C18.0209 20.2552 18.0775 20.3476 18.1128 20.4488C18.1481 20.5501 18.1612 20.6577 18.1511 20.7644V22.0267H17.7778V20.7644C17.7918 20.6074 17.744 20.4511 17.6445 20.3289C17.6024 20.2844 17.5513 20.2494 17.4945 20.2264C17.4378 20.2034 17.3767 20.1929 17.3156 20.1956C17.2303 20.2023 17.1477 20.2282 17.0738 20.2713C16.9999 20.3144 16.9367 20.3736 16.8889 20.4444V22.0533H16.5333V20.5511Z" fill="#006D2E"/>
<path d="M18.8001 21.9378C18.7024 21.8214 18.6545 21.6714 18.6667 21.52V20.2133H18.3645V20.0444H18.6667V19.6622L18.8712 19.4133H19.0401V20.0444H19.5556V20.2133H19.0489V21.52C19.0489 21.7778 19.1556 21.9022 19.3512 21.9022C19.4071 21.9108 19.4641 21.9108 19.5201 21.9022C19.571 21.8907 19.6193 21.8696 19.6623 21.84L19.7067 21.9289C19.6418 21.9778 19.5699 22.0167 19.4934 22.0444C19.3937 22.0806 19.2883 22.0987 19.1823 22.0978C19.1109 22.0995 19.0399 22.0862 18.9741 22.0586C18.9082 22.0311 18.8489 21.9899 18.8001 21.9378Z" fill="#006D2E"/>
<path d="M22.551 21.9378C22.401 21.8398 22.2908 21.6917 22.2399 21.52L22.1421 21.2533H20.9954L20.6665 22.0267H20.4888L21.6265 19.36H21.751L22.6399 21.5378C22.6836 21.6588 22.75 21.7704 22.8354 21.8667C22.9049 21.9334 22.9969 21.9715 23.0932 21.9733V22.0533C23.0402 22.0621 22.9862 22.0621 22.9332 22.0533C22.7976 22.0507 22.6654 22.0107 22.551 21.9378ZM21.0577 21.0489H22.0532L21.5643 19.8667L21.0577 21.0489Z" fill="#006D2E"/>
<path d="M23.1112 22.7733C23.0316 22.7202 22.9675 22.6471 22.9254 22.5612C22.8832 22.4753 22.8645 22.3798 22.8712 22.2844C22.8685 22.224 22.8781 22.1637 22.8995 22.1072C22.9209 22.0506 22.9536 21.999 22.9956 21.9555C23.0861 21.8585 23.1991 21.7853 23.3245 21.7422C23.2753 21.7215 23.2331 21.687 23.2031 21.6428C23.1731 21.5987 23.1566 21.5467 23.1556 21.4933C23.1427 21.4528 23.1427 21.4093 23.1556 21.3689L23.2623 21.2711C23.1745 21.2189 23.1012 21.1455 23.049 21.0578C22.9848 20.9605 22.9536 20.8452 22.9601 20.7289C22.9601 20.32 23.2179 20.1155 23.7423 20.1155H24.5067V20.2133L24.2401 20.2578C24.3221 20.3028 24.3922 20.3668 24.4445 20.4444C24.4974 20.5232 24.5253 20.6162 24.5245 20.7111C24.5245 21.1289 24.2667 21.3333 23.7423 21.3333C23.449 21.3333 23.3067 21.3778 23.3067 21.4755C23.3067 21.5733 23.449 21.6178 23.7423 21.6178C23.9694 21.6081 24.1946 21.6636 24.3912 21.7778C24.47 21.8316 24.5345 21.9039 24.5791 21.9883C24.6237 22.0727 24.647 22.1667 24.647 22.2622C24.647 22.3577 24.6237 22.4517 24.5791 22.5361C24.5345 22.6205 24.47 22.6928 24.3912 22.7467C24.1913 22.8599 23.9627 22.9124 23.7334 22.8978C23.5187 22.9112 23.3042 22.8683 23.1112 22.7733ZM24.169 22.64C24.2187 22.5959 24.2575 22.5408 24.2822 22.4791C24.3069 22.4173 24.3168 22.3507 24.3112 22.2844C24.3112 22.0089 24.1512 21.8489 23.8134 21.8133H23.5912C23.4888 21.8488 23.3991 21.9138 23.3334 22C23.2668 22.0898 23.2324 22.1994 23.2356 22.3111C23.2318 22.378 23.2434 22.4449 23.2696 22.5065C23.2958 22.5682 23.3359 22.623 23.3867 22.6667C23.4984 22.7522 23.6377 22.7933 23.7779 22.7822C23.9117 22.7765 24.0399 22.7265 24.1423 22.64H24.169ZM24.0712 21.0933C24.1142 21.0454 24.1466 20.989 24.1665 20.9277C24.1864 20.8665 24.1933 20.8018 24.1867 20.7378C24.1923 20.6738 24.1849 20.6093 24.165 20.5483C24.1452 20.4872 24.1133 20.4307 24.0712 20.3822C24.0345 20.3411 23.9892 20.3086 23.9385 20.2871C23.8878 20.2656 23.8329 20.2556 23.7779 20.2578C23.7223 20.256 23.667 20.2653 23.6151 20.2851C23.5632 20.3049 23.5158 20.3349 23.4756 20.3733C23.391 20.475 23.3495 20.6059 23.3601 20.7378C23.3509 20.8668 23.3924 20.9943 23.4756 21.0933C23.5573 21.167 23.6634 21.2078 23.7734 21.2078C23.8834 21.2078 23.9895 21.167 24.0712 21.0933Z" fill="#006D2E"/>
<path d="M24.9866 20.5956C24.9951 20.491 24.9735 20.3861 24.9244 20.2934C24.9012 20.2564 24.868 20.2268 24.8287 20.2079C24.7894 20.1891 24.7455 20.1817 24.7022 20.1867H24.6577V20.1067H24.9866C25.066 20.1041 25.1449 20.1193 25.2177 20.1511C25.2457 20.1657 25.2703 20.1858 25.2902 20.2103C25.3101 20.2348 25.3247 20.263 25.3333 20.2934C25.3854 20.2258 25.4523 20.1711 25.5288 20.1334C25.6193 20.0868 25.7206 20.0653 25.8222 20.0711C25.9084 20.0666 25.9942 20.085 26.071 20.1245C26.1281 20.1787 26.1761 20.2417 26.2133 20.3111L26.0444 20.4356C26.016 20.391 25.9714 20.3591 25.9199 20.3467C25.8554 20.334 25.7889 20.334 25.7244 20.3467C25.6469 20.3428 25.5698 20.3598 25.501 20.3957C25.4323 20.4317 25.3743 20.4853 25.3333 20.5511V22.0622H24.9688L24.9866 20.5956Z" fill="#006D2E"/>
<path d="M26.6043 21.9289C26.4599 21.8426 26.3476 21.7115 26.2843 21.5556C26.2099 21.3923 26.1714 21.215 26.1714 21.0356C26.1714 20.8562 26.2099 20.6788 26.2843 20.5156C26.3502 20.3613 26.4619 20.2309 26.6043 20.1422C26.7541 20.0503 26.9264 20.0016 27.1021 20.0016C27.2779 20.0016 27.4502 20.0503 27.5999 20.1422C27.7396 20.2341 27.8505 20.3635 27.9199 20.5156C27.9901 20.68 28.0263 20.8568 28.0263 21.0356C28.0263 21.2143 27.9901 21.3912 27.9199 21.5556C27.8536 21.7096 27.742 21.8398 27.5999 21.9289C27.4502 22.0209 27.2779 22.0696 27.1021 22.0696C26.9264 22.0696 26.7541 22.0209 26.6043 21.9289ZM27.3777 21.7867C27.4645 21.6999 27.5287 21.5931 27.5643 21.4756C27.6459 21.1849 27.6459 20.8774 27.5643 20.5867C27.5287 20.4692 27.4645 20.3624 27.3777 20.2756C27.3044 20.2028 27.2054 20.162 27.1021 20.162C26.9989 20.162 26.8998 20.2028 26.8266 20.2756C26.7397 20.3624 26.6756 20.4692 26.6399 20.5867C26.5491 20.876 26.5491 21.1862 26.6399 21.4756C26.6756 21.5931 26.7397 21.6999 26.8266 21.7867C26.8998 21.8594 26.9989 21.9002 27.1021 21.9002C27.2054 21.9002 27.3044 21.8594 27.3777 21.7867Z" fill="#006D2E"/>
</g>
<defs>
<linearGradient id="paint0_linear_2707_291988" x1="10.4534" y1="13.8845" x2="20.1156" y2="13.8845" gradientUnits="userSpaceOnUse">
<stop stop-color="#FFF23B"/>
<stop offset="0.04" stop-color="#FEE62E"/>
<stop offset="0.12" stop-color="#FDD41B"/>
<stop offset="0.2" stop-color="#FCC910"/>
<stop offset="0.28" stop-color="#FCC60C"/>
<stop offset="0.67" stop-color="#F28F3F"/>
<stop offset="0.89" stop-color="#EC683C"/>
<stop offset="1" stop-color="#E83E3A"/>
</linearGradient>
<clipPath id="clip0_2707_291988">
<rect width="32" height="32" fill="white"/>
</clipPath>
</defs>
</svg>
