<svg width="32" height="32" viewBox="0 0 32 32" fill="none" xmlns="http://www.w3.org/2000/svg">
<g clip-path="url(#clip0_2707_291758)">
<mask id="mask0_2707_291758" style="mask-type:luminance" maskUnits="userSpaceOnUse" x="0" y="0" width="32" height="32">
<path d="M31.976 0.0200195H0.00561523V31.9904H31.976V0.0200195Z" fill="white"/>
</mask>
<g mask="url(#mask0_2707_291758)">
<path d="M15.9908 31.9904C24.8192 31.9904 31.976 24.8336 31.976 16.0052C31.976 7.17684 24.8192 0.0200195 15.9908 0.0200195C7.16243 0.0200195 0.00561523 7.17684 0.00561523 16.0052C0.00561523 24.8336 7.16243 31.9904 15.9908 31.9904Z" fill="white"/>
<path d="M8.32992 21.4747C8.30594 21.287 8.29211 21.0972 8.25526 20.9121C8.21293 20.6992 8.15959 20.4875 8.09425 20.2806C7.98366 19.9303 7.81167 19.6073 7.6112 19.301C7.35118 18.904 7.04379 18.5447 6.69081 18.228C6.36986 17.94 6.0226 17.6853 5.65684 17.4554C5.33855 17.2554 5.00905 17.0766 4.667 16.9226C4.42302 16.8127 4.17104 16.7207 3.92283 16.6201C3.86975 16.5986 3.81768 16.5748 3.76807 16.5299C3.98949 16.538 4.21092 16.5456 4.43222 16.5547C4.47831 16.5566 4.52417 16.5679 4.57017 16.5682C4.85399 16.5706 5.13273 16.6122 5.4088 16.6749C5.56649 16.7108 5.72705 16.7384 5.88054 16.7876C6.10848 16.8608 6.33748 16.9364 6.55464 17.0358C6.78957 17.1432 7.01303 17.2748 7.2172 17.4384C7.59865 17.7442 7.90663 18.1069 8.11302 18.552C8.26367 18.8768 8.36269 19.2153 8.41946 19.5708C8.48157 19.9592 8.47651 20.3471 8.46292 20.7361C8.45635 20.9253 8.42778 21.1141 8.40283 21.3022C8.39463 21.364 8.36645 21.4231 8.34741 21.4834C8.34161 21.4805 8.33578 21.4776 8.32992 21.4747ZM3.82733 13.3878C4.23984 13.3878 4.65231 13.3875 5.06488 13.3881C5.20398 13.3882 5.34314 13.3882 5.48215 13.3934C5.57436 13.3968 5.66631 13.4091 5.75837 13.4174C5.86897 13.4275 5.98006 13.4338 6.09001 13.4487C6.26833 13.4727 6.44636 13.4998 6.62362 13.5305C6.74652 13.5518 6.86899 13.5772 6.98979 13.6082C7.22199 13.6676 7.4568 13.7207 7.68367 13.7969C8.19946 13.97 8.68621 14.2071 9.13421 14.5172C9.5286 14.7901 9.87471 15.115 10.1756 15.4911C10.426 15.8042 10.6349 16.1422 10.8103 16.4996C10.9197 16.7228 10.9999 16.9608 11.0872 17.1943C11.1945 17.4811 11.2629 17.7787 11.3209 18.079C11.3798 18.3835 11.4202 18.6898 11.4521 18.9987C11.502 19.4807 11.4897 19.9626 11.4701 20.4437C11.4567 20.7755 11.4004 21.1056 11.3616 21.452C11.3037 21.3664 11.2909 21.286 11.2803 21.2004C11.2592 21.0311 11.2281 20.8628 11.1962 20.695C11.1746 20.5815 11.1454 20.4694 11.1178 20.3572C11.0769 20.1916 11.0419 20.024 10.9906 19.8616C10.9102 19.6064 10.8254 19.3522 10.7294 19.1025C10.5782 18.7096 10.3993 18.3297 10.1913 17.9624C9.97832 17.5864 9.73584 17.2317 9.47514 16.8885C9.19131 16.5149 8.86631 16.1787 8.52452 15.8587C8.0907 15.4525 7.61724 15.097 7.11418 14.7815C6.7689 14.565 6.41267 14.3673 6.0401 14.2011C5.75387 14.0734 5.46928 13.9409 5.17707 13.8284C4.93623 13.7356 4.68606 13.6666 4.43865 13.5916C4.23472 13.5298 4.02877 13.4745 3.82366 13.4163C3.82487 13.4068 3.82612 13.3973 3.82733 13.3878ZM22.2711 21.1631C22.2805 21.1009 22.2958 21.0424 22.297 20.9837C22.3011 20.7937 22.3007 20.6035 22.3006 20.4134C22.3005 20.3178 22.2909 20.2997 22.2074 20.2156C22.3106 20.1637 22.4179 20.1922 22.5194 20.1905C22.6186 20.1888 22.7225 20.1687 22.8354 20.2218C22.8354 20.2636 22.8354 20.3086 22.8354 20.3536C22.8357 20.6041 22.8387 20.8545 22.8348 21.1049C22.8333 21.2 22.8445 21.2802 22.9425 21.3231C22.9518 21.3272 22.955 21.3452 22.9627 21.3601C22.9491 21.3681 22.9381 21.3801 22.9271 21.3802C22.7422 21.3813 22.5572 21.3811 22.37 21.3811C22.3454 21.3428 22.3238 21.3092 22.2946 21.2639C22.2478 21.2852 22.2003 21.3009 22.1592 21.3267C21.9682 21.4462 21.7683 21.4412 21.5782 21.3439C21.4534 21.2799 21.4229 21.1418 21.4195 21.0086C21.4147 20.8186 21.4195 20.6283 21.418 20.4382C21.4177 20.3837 21.4099 20.3292 21.4055 20.2746C21.3633 20.256 21.3302 20.2415 21.2971 20.2269C21.3019 20.2191 21.3057 20.2057 21.3112 20.2049C21.5174 20.1762 21.7228 20.1869 21.9385 20.2042C21.9414 20.2577 21.9454 20.2982 21.9456 20.3387C21.9468 20.5566 21.9468 20.7746 21.9476 20.9925C21.9478 21.0249 21.9467 21.058 21.9533 21.0894C21.9751 21.1935 22.0462 21.238 22.1478 21.2112C22.1832 21.2019 22.2164 21.1847 22.2711 21.1631ZM23.177 21.3691V20.9858C23.2401 20.9864 23.2503 21.0363 23.2756 21.074C23.3644 21.2065 23.4762 21.3039 23.648 21.305C23.7582 21.3058 23.7581 21.3073 23.8594 21.2183C23.8855 21.1174 23.8312 21.0545 23.7503 21.0052C23.5961 20.9113 23.4396 20.8208 23.2879 20.7229C23.1593 20.64 23.1247 20.5377 23.1686 20.4008C23.189 20.3373 23.2281 20.29 23.2856 20.2519C23.4659 20.1321 23.666 20.1337 23.8621 20.1718C23.9728 20.1933 24.0741 20.2283 24.1784 20.1602C24.2098 20.3052 24.2101 20.4526 24.1809 20.5137C24.1162 20.5106 24.1072 20.4491 24.0796 20.4109C23.9551 20.2378 23.8159 20.1933 23.6121 20.268C23.5729 20.3849 23.581 20.4166 23.6775 20.4722C23.7857 20.5345 23.8992 20.5878 24.0051 20.6534C24.0871 20.7043 24.1625 20.7666 24.2382 20.827C24.2924 20.8703 24.3059 20.9319 24.313 20.9998C24.3275 21.1374 24.2606 21.2292 24.158 21.3036C24.0008 21.4177 23.8185 21.4373 23.6398 21.3977C23.4921 21.3649 23.3519 21.3044 23.177 21.3691ZM20.5616 21.3863C20.5316 21.3582 20.5023 21.3308 20.464 21.295C20.1698 21.4682 19.8813 21.4734 19.6635 21.1852C19.4703 20.9294 19.4858 20.6381 19.6711 20.3721C19.7541 20.253 19.8782 20.1723 20.0301 20.1577C20.1694 20.1442 20.3067 20.1563 20.427 20.2358C20.4793 20.1455 20.4889 19.9341 20.4534 19.7495C20.408 19.7141 20.3585 19.6756 20.2887 19.6212H21.01C21.0144 19.6822 21.0214 19.736 21.0216 19.7897C21.0232 20.1882 21.027 20.5867 21.0222 20.9851C21.0208 21.1052 21.0388 21.2053 21.1744 21.2721C20.963 21.345 20.7604 21.3439 20.5616 21.3863ZM25.1546 21.2492C25.2625 21.2382 25.3456 21.2297 25.4464 21.2194C25.4247 21.2497 25.4175 21.2682 25.4041 21.2771C25.2573 21.3741 25.0988 21.4222 24.9198 21.4077C24.7087 21.3906 24.5945 21.2238 24.5942 21.0589C24.5939 20.8596 24.5934 20.6604 24.593 20.4611C24.5929 20.4152 24.593 20.3693 24.593 20.3177C24.5412 20.3045 24.4985 20.2935 24.4576 20.2831C24.4328 20.2184 24.4805 20.2068 24.5194 20.1968C24.6638 20.1596 24.7751 20.0715 24.8746 19.9668C24.9124 19.927 24.9424 19.8795 24.973 19.8336C25.0037 19.7874 25.0382 19.7554 25.1078 19.7795C25.158 19.9035 25.1101 20.046 25.1428 20.1663C25.2353 20.2166 25.3345 20.1522 25.4081 20.222C25.4098 20.3055 25.3501 20.2924 25.3023 20.294C25.2522 20.2958 25.2021 20.2944 25.1493 20.2944C25.1375 20.3332 25.1206 20.3596 25.1234 20.3837C25.1557 20.6623 25.1078 20.945 25.1546 21.2492ZM16.3671 19.6201H17.519C17.4763 19.644 17.4552 19.6614 17.4311 19.6683C17.3064 19.704 17.2702 19.7976 17.2687 19.913C17.2669 20.0472 17.2679 20.1816 17.2679 20.3159C17.2678 20.5522 17.2666 20.7884 17.2683 21.0246C17.2698 21.2446 17.2797 21.2591 17.4642 21.3589C17.3722 21.3881 16.6575 21.3975 16.453 21.3719C16.4628 21.2994 16.5421 21.3165 16.5967 21.2513C16.6026 21.2066 16.6197 21.1349 16.6203 21.0631C16.6233 20.7064 16.6188 20.3496 16.6234 19.993C16.6264 19.7613 16.6018 19.7055 16.3671 19.6201ZM18.6622 20.387C18.54 20.3232 18.4538 20.362 18.3659 20.4146C18.3601 20.4427 18.3498 20.4694 18.3497 20.4961C18.3486 20.728 18.3448 20.9599 18.3524 21.1915C18.3544 21.2496 18.3949 21.3065 18.4213 21.3735H17.6716C17.7012 21.3397 17.7135 21.3232 17.7283 21.3095C17.745 21.2941 17.7639 21.2812 17.794 21.2577C17.794 21.1487 17.794 21.0334 17.794 20.9182C17.7941 20.7559 17.7916 20.5936 17.7954 20.4313C17.7976 20.3358 17.7828 20.2555 17.664 20.2292C17.7591 20.1829 18.0724 20.1726 18.2947 20.2032C18.3087 20.2323 18.3243 20.2644 18.341 20.2993C18.3614 20.2965 18.3815 20.2986 18.397 20.291C18.4547 20.2625 18.511 20.2311 18.5677 20.2006C18.6945 20.1322 18.8301 20.1397 18.9592 20.1768C19.1215 20.2235 19.2045 20.3212 19.2093 20.5172C19.2136 20.6933 19.213 20.8696 19.2089 21.0456C19.2062 21.1634 19.2013 21.2782 19.3263 21.3498C19.2304 21.3891 18.7972 21.3984 18.6217 21.3695C18.6193 21.3613 18.6121 21.3483 18.615 21.3454C18.683 21.2777 18.6919 21.1946 18.6897 21.1034C18.6855 20.9274 18.6916 20.7511 18.6883 20.575C18.6871 20.5118 18.6713 20.4489 18.6622 20.387ZM26.1931 20.1915C26.2188 20.2411 26.2391 20.2802 26.2638 20.3279C26.2984 20.2962 26.3241 20.2708 26.3517 20.2477C26.4377 20.1759 26.5368 20.1447 26.6485 20.1572C26.7497 20.1684 26.8375 20.2617 26.8319 20.3503C26.8264 20.4369 26.7413 20.5211 26.6436 20.5232C26.5902 20.5243 26.5353 20.509 26.483 20.4941C26.4437 20.483 26.4075 20.4607 26.3772 20.4469C26.2697 20.4584 26.2348 20.5222 26.234 20.6109C26.2324 20.7824 26.2294 20.954 26.2343 21.1253C26.2367 21.2053 26.2618 21.2805 26.3496 21.314C26.3648 21.3198 26.3761 21.336 26.3911 21.3492C26.3054 21.3916 25.7503 21.3998 25.5876 21.3603C25.625 21.3262 25.6566 21.2974 25.7036 21.2545C25.7045 20.9366 25.7072 20.6054 25.7008 20.276C25.6483 20.2555 25.6147 20.2425 25.5771 20.2279C25.5855 20.2174 25.5925 20.2004 25.6007 20.1998C25.6697 20.1954 25.7388 20.1924 25.808 20.1919C25.937 20.1908 26.0661 20.1915 26.1931 20.1915ZM27.5549 20.1886C27.5587 20.2588 27.563 20.3036 27.5631 20.3484C27.5639 20.5937 27.5671 20.8391 27.5622 21.0843C27.5599 21.1934 27.5689 21.2888 27.7112 21.3373C27.6675 21.3604 27.6466 21.3809 27.6255 21.381C27.3989 21.383 27.1722 21.382 26.9456 21.3807C26.9341 21.3806 26.9226 21.3698 26.8986 21.3577C26.9377 21.3246 26.9704 21.297 27.0146 21.2597C27.0146 21.1858 27.0144 21.103 27.0146 21.0202C27.015 20.8258 27.0091 20.631 27.0186 20.4371C27.0239 20.3298 27.0055 20.2535 26.8661 20.2312C26.9035 20.2093 26.9211 20.1902 26.9389 20.1899C27.137 20.1878 27.3351 20.1886 27.5549 20.1886ZM20.4709 21.1725V20.9354C20.4708 20.7691 20.473 20.6027 20.4697 20.4363C20.468 20.3477 20.4295 20.3115 20.3448 20.3024C20.2157 20.2885 20.1521 20.3368 20.1287 20.4777C20.0967 20.6703 20.0934 20.8634 20.1265 21.0568C20.1591 21.2469 20.2927 21.2985 20.4709 21.1725ZM4.40996 10.5543C4.60235 10.5139 14.6932 10.5233 14.8077 10.5506C14.8118 10.6041 14.8202 10.6626 14.8202 10.7209C14.8202 11.5838 14.8185 12.4467 14.8184 13.3096C14.818 15.4946 14.818 17.6797 14.818 19.8647C14.818 20.0596 14.8202 20.2544 14.8204 20.4492C14.8204 20.5032 14.817 20.5572 14.7914 20.6156C14.7822 20.5975 14.7673 20.5801 14.7645 20.561C14.6824 20.0009 14.5594 19.4497 14.3871 18.9107C14.2732 18.5542 14.158 18.1971 14.0199 17.8496C13.8511 17.4248 13.6627 17.0071 13.427 16.6139C13.225 16.2768 13.0262 15.9367 12.8039 15.613C12.6129 15.3351 12.3988 15.0719 12.1802 14.8146C11.968 14.5647 11.7487 14.3186 11.512 14.0922C11.0232 13.6246 10.5028 13.1948 9.94448 12.8099C9.54719 12.536 9.13767 12.2832 8.71285 12.0579C8.32092 11.85 7.9151 11.6677 7.51115 11.4834C7.27572 11.376 7.0342 11.2807 6.79134 11.1912C6.56604 11.1082 6.33698 11.0341 6.10646 10.9669C5.79984 10.8775 5.49166 10.7928 5.18142 10.7171C4.94813 10.6603 4.71057 10.621 4.475 10.5734C4.45294 10.5689 4.4316 10.5607 4.40996 10.5543ZM27.5854 19.814C27.5507 20.0015 27.3757 20.0808 27.1666 20.016C27.0067 19.9664 26.9704 19.7975 27.0883 19.6783C27.1109 19.6556 27.1359 19.6353 27.1555 19.6177C27.3639 19.5719 27.5276 19.606 27.5854 19.814ZM22.7805 17.6485C22.7805 17.5728 22.7818 17.495 22.7802 17.4173C22.7773 17.2673 22.6621 17.1919 22.5242 17.2519C22.4926 17.2656 22.4672 17.2939 22.4321 17.3208C22.4495 17.3664 22.4651 17.4038 22.4781 17.4421C22.516 17.5541 22.4696 17.6381 22.3529 17.6549C22.2416 17.671 22.1298 17.6732 22.0399 17.5774C21.9853 17.4316 22.0321 17.3135 22.191 17.2535C22.2933 17.2148 22.4042 17.1888 22.5131 17.1798C22.65 17.1686 22.7895 17.1729 22.9267 17.1847C23.0578 17.1961 23.1837 17.2363 23.2567 17.3597C23.2835 17.405 23.3055 17.4606 23.3073 17.5123C23.3137 17.6974 23.3106 17.8828 23.3109 18.0681C23.311 18.2122 23.3143 18.2159 23.4632 18.2384C23.4714 18.2397 23.4786 18.2477 23.4948 18.258C23.4178 18.3938 23.2744 18.3972 23.1512 18.423C23.01 18.4526 22.9112 18.3514 22.8074 18.2613C22.7726 18.2753 22.7396 18.2891 22.7062 18.302C22.5988 18.3434 22.4936 18.3929 22.3832 18.4235C22.2352 18.4645 22.0471 18.3685 21.9866 18.2369C21.9547 18.1674 21.9585 18.1036 22.0003 18.0396C22.0609 17.9466 22.1479 17.8855 22.2476 17.8459C22.3974 17.7864 22.5506 17.7355 22.7022 17.6806C22.7235 17.6729 22.7441 17.6634 22.7805 17.6485ZM20.5224 18.3786H19.8782C19.8682 18.3592 19.8588 18.3394 19.8479 18.3204C19.8392 18.3051 19.8287 18.2908 19.8163 18.2719C19.7861 18.2821 19.7534 18.2835 19.7365 18.3005C19.67 18.3674 19.5811 18.3777 19.4989 18.4071C19.3486 18.461 19.2144 18.4188 19.0895 18.3398C18.9603 18.258 18.9461 18.1185 18.9412 17.984C18.935 17.8126 18.9419 17.6409 18.9415 17.4693C18.9413 17.4142 18.9356 17.3592 18.9325 17.3056C18.8954 17.2757 18.8637 17.2501 18.8201 17.215C18.929 17.1556 19.0344 17.1942 19.134 17.1876C19.239 17.1806 19.3448 17.186 19.4685 17.186C19.4685 17.247 19.4684 17.2915 19.4685 17.336C19.4685 17.5679 19.4674 17.7998 19.469 18.0318C19.4703 18.2152 19.5632 18.2709 19.7311 18.1906C19.7558 18.1788 19.778 18.1618 19.7954 18.151C19.804 18.136 19.8125 18.128 19.8126 18.1199C19.8156 17.8745 19.8226 17.6289 19.8168 17.3837C19.8154 17.3264 19.7701 17.2702 19.7444 17.2122C19.8094 17.1787 20.1311 17.1683 20.3445 17.2019C20.3485 17.2411 20.3567 17.2848 20.3568 17.3285C20.3579 17.5836 20.3562 17.8387 20.3572 18.0938C20.3579 18.2618 20.369 18.2803 20.5224 18.3786ZM21.7074 17.1919C21.7341 17.2947 21.7264 17.398 21.7144 17.5016C21.6464 17.5104 21.6314 17.4601 21.6064 17.4238C21.5276 17.3097 21.418 17.2467 21.2813 17.2367C21.1425 17.2264 21.1055 17.2712 21.1233 17.4381C21.2618 17.5145 21.4117 17.5949 21.559 17.6798C21.6187 17.7143 21.6753 17.7553 21.7288 17.799C21.8761 17.9191 21.8822 18.1968 21.6891 18.308C21.5259 18.402 21.3639 18.4604 21.1757 18.4026C21.1007 18.3795 21.0253 18.3556 20.9483 18.3425C20.9011 18.3346 20.8501 18.3435 20.8016 18.3504C20.7724 18.3546 20.7446 18.3695 20.6968 18.3866C20.6933 18.2429 20.677 18.1167 20.7031 17.9927C20.7158 17.9913 20.7284 17.9899 20.7411 17.9885C20.7545 18.0096 20.7705 18.0296 20.781 18.052C20.8571 18.2143 20.9951 18.2898 21.1622 18.3195C21.2006 18.3263 21.2462 18.3172 21.2831 18.3023C21.4083 18.252 21.4296 18.1392 21.3232 18.0553C21.2405 17.99 21.141 17.9465 21.0522 17.8883C20.9523 17.8228 20.8498 17.759 20.7598 17.6812C20.6579 17.5931 20.6524 17.419 20.7406 17.3175C20.8089 17.2388 20.8942 17.191 21.0031 17.1786C21.1701 17.1595 21.3329 17.1778 21.4973 17.203C21.5628 17.213 21.6325 17.1967 21.7074 17.1919ZM18.2488 16.7191C18.1807 16.701 18.1107 16.6823 18.0219 16.6586C18.1456 16.6045 18.2606 16.6352 18.3707 16.6332C18.4772 16.6313 18.5876 16.6103 18.6978 16.6508C18.6881 16.6636 18.6859 16.6693 18.6833 16.6695C18.4754 16.6897 18.4254 16.8008 18.4279 16.9913C18.4334 17.4085 18.4308 17.8258 18.4309 18.2431C18.4309 18.2836 18.4262 18.3241 18.4234 18.3679C18.3012 18.395 18.2072 18.388 18.1147 18.2941C17.6954 17.8681 17.269 17.4492 16.8451 17.0279C16.8322 17.0151 16.8179 17.0038 16.8053 16.9927C16.7503 17.0076 16.7433 17.0505 16.7422 17.0919C16.7398 17.1799 16.7424 17.268 16.7424 17.356C16.7425 17.5361 16.739 17.7162 16.7433 17.8962C16.7459 18.0068 16.7575 18.1174 16.7703 18.2273C16.7777 18.2906 16.8305 18.3186 16.8839 18.337C16.9178 18.3487 16.9553 18.3499 16.9909 18.3657C16.785 18.3994 16.5786 18.3773 16.3631 18.3813C16.376 18.3632 16.3798 18.3526 16.3846 18.3521C16.5891 18.3288 16.6151 18.2674 16.6181 18.0774C16.6244 17.6834 16.616 17.2892 16.622 16.8951C16.6235 16.7958 16.5451 16.7285 16.4465 16.6891C16.4136 16.6759 16.376 16.6743 16.3383 16.6507C16.3618 16.6442 16.3852 16.6323 16.4087 16.6321C16.6311 16.6308 16.8536 16.6317 17.076 16.6314C17.1536 16.6313 17.2116 16.6572 17.2693 16.7172C17.5063 16.9639 17.7514 17.2028 17.9935 17.4445C18.0653 17.5161 18.1365 17.5884 18.2095 17.6588C18.2215 17.6704 18.2407 17.6745 18.2671 17.6869C18.2842 17.6569 18.3142 17.6292 18.3116 17.6051C18.2795 17.3154 18.3883 17.015 18.2488 16.7191ZM22.7687 18.1613C22.7831 18.0288 22.7875 17.9038 22.7721 17.7774C22.6581 17.789 22.583 17.8243 22.5412 17.8819C22.4882 17.9551 22.4772 18.037 22.5132 18.118C22.5491 18.1991 22.6282 18.1795 22.6959 18.179C22.7135 18.1788 22.7311 18.1708 22.7687 18.1613ZM18.9582 13.6659C18.9862 13.8581 18.9495 14.0487 18.9832 14.247C19.0701 14.2247 19.1419 14.2107 19.2108 14.1879C19.4242 14.1172 19.7853 14.2833 19.8694 14.5599C19.9583 14.852 19.7765 15.2105 19.5487 15.3318C19.2826 15.4735 19.0272 15.4536 18.7731 15.2937C18.6559 15.278 18.5867 15.4355 18.4401 15.3848C18.4376 15.3378 18.4325 15.2842 18.4324 15.2305C18.4317 14.8133 18.4297 14.3959 18.4333 13.9787C18.4344 13.8526 18.408 13.7483 18.2792 13.6919C18.358 13.643 18.7472 13.6295 18.9582 13.6659ZM20.5998 14.5718C20.5161 14.6667 20.4149 14.6863 20.3051 14.6734C20.2093 14.6623 20.1443 14.6109 20.1332 14.5368C20.1196 14.4465 20.1306 14.3717 20.2188 14.3075C20.3632 14.2021 20.5288 14.1813 20.6922 14.1754C20.8473 14.1697 21.0076 14.189 21.1587 14.2254C21.346 14.2704 21.4006 14.373 21.4085 14.5613C21.4158 14.7325 21.4087 14.9043 21.4109 15.0758C21.4116 15.1294 21.4216 15.1828 21.4274 15.237C21.4839 15.2501 21.5273 15.2601 21.5726 15.2707C21.4571 15.4619 21.1356 15.4716 20.914 15.2827C20.8781 15.2937 20.8303 15.3041 20.786 15.3227C20.6622 15.3744 20.541 15.4319 20.4014 15.4248C20.3165 15.4205 20.2376 15.4055 20.1686 15.3496C20.0594 15.2612 20.0329 15.1081 20.1322 15.0085C20.2056 14.935 20.2976 14.8728 20.3923 14.8299C20.5133 14.7751 20.6447 14.7427 20.7728 14.7049C20.8533 14.6813 20.8805 14.6569 20.8861 14.5714C20.8897 14.5161 20.8918 14.4596 20.8848 14.4049C20.8674 14.2699 20.6917 14.1936 20.5853 14.2766C20.5623 14.2944 20.5491 14.3417 20.5526 14.3729C20.5598 14.4366 20.5815 14.4987 20.5998 14.5718ZM22.7497 15.4046C22.7192 15.3687 22.7016 15.348 22.684 15.3273C22.6677 15.328 22.6529 15.3253 22.641 15.3299C22.5851 15.3515 22.5317 15.3811 22.4744 15.397C22.0633 15.5106 21.7254 15.2381 21.7308 14.801C21.7326 14.6519 21.7692 14.5115 21.8701 14.3888C22.0231 14.2024 22.2482 14.1257 22.4767 14.2002C22.5288 14.2172 22.5796 14.2379 22.6418 14.2609C22.6525 14.2271 22.668 14.1988 22.6695 14.1698C22.6731 14.1005 22.6647 14.0302 22.6711 13.9613C22.6834 13.8274 22.6484 13.7243 22.4747 13.6744C22.6207 13.6185 22.7388 13.6637 22.8527 13.6505C22.9655 13.6373 23.0813 13.6507 23.2083 13.6527C23.2129 13.7118 23.2194 13.7563 23.2195 13.8008C23.22 14.2135 23.22 14.6262 23.2189 15.0389C23.2186 15.1381 23.2044 15.2414 23.3552 15.2722C23.2519 15.3725 23.142 15.3347 23.0495 15.359C22.9523 15.3844 22.85 15.3902 22.7497 15.4046ZM16.2386 15.3923C16.3856 15.3085 16.4416 15.1664 16.5073 15.0272C16.673 14.6758 16.8456 14.3275 17.0154 13.978C17.0497 13.9074 17.0916 13.8393 17.1167 13.7656C17.1607 13.6366 17.2235 13.6448 17.3212 13.6533C17.3433 13.6552 17.3645 13.668 17.3936 13.6785C17.5332 13.9611 17.6748 14.2469 17.8157 14.533C17.9241 14.753 18.0275 14.9753 18.1415 15.1922C18.1787 15.2631 18.2422 15.32 18.3018 15.3933C18.2002 15.4163 18.0924 15.3983 17.9868 15.4016C17.8756 15.405 17.7642 15.4021 17.653 15.402C17.5423 15.4019 17.4317 15.402 17.3193 15.3812C17.3653 15.3734 17.4113 15.3656 17.4733 15.3551C17.4809 15.3146 17.5022 15.2695 17.4946 15.2299C17.4675 15.0878 17.3903 14.9676 17.3162 14.8444H16.7483C16.6489 14.9568 16.6156 15.1011 16.5698 15.2363C16.6031 15.3524 16.6957 15.366 16.7885 15.3923H16.2386ZM23.4572 14.2366C23.578 14.1987 24.0297 14.1964 24.1614 14.2309C24.1644 14.2702 24.1707 14.3145 24.1709 14.3589C24.172 14.6045 24.1718 14.8501 24.1718 15.0957C24.1718 15.2739 24.1717 15.2739 24.3092 15.399C24.0181 15.4026 23.7464 15.403 23.469 15.3889C23.5938 15.3417 23.6237 15.2539 23.6196 15.1329C23.6117 14.9061 23.6171 14.6788 23.6172 14.4518C23.6173 14.3 23.6127 14.2931 23.4572 14.2366ZM19.0524 15.3045C19.1929 15.3146 19.2578 15.2758 19.2908 15.1473C19.3444 14.9382 19.3325 14.7254 19.3045 14.514C19.2987 14.4704 19.2734 14.4268 19.2484 14.3888C19.2019 14.3184 19.1465 14.3003 19.0686 14.32C19.0041 14.3363 18.9701 14.3797 18.9693 14.4673C18.9669 14.7168 18.9684 14.9663 18.9684 15.2145C19.0001 15.2483 19.028 15.2783 19.0524 15.3045ZM22.4206 14.3084C22.3827 14.3767 22.3412 14.4219 22.3322 14.4728C22.2946 14.6877 22.2788 14.9044 22.3309 15.1202C22.3555 15.2225 22.4278 15.271 22.537 15.2597C22.6402 15.2491 22.6697 15.213 22.6702 15.0906C22.6709 14.8916 22.671 14.6926 22.669 14.4936C22.6685 14.4493 22.658 14.4051 22.6504 14.3492C22.5716 14.3352 22.5016 14.3228 22.4206 14.3084ZM20.8833 14.7916C20.6847 14.7987 20.5895 14.8976 20.6014 15.0605C20.6089 15.1626 20.6838 15.22 20.7829 15.1942C20.8168 15.1854 20.8471 15.1624 20.8822 15.1442C20.8849 15.0246 20.9059 14.9121 20.8833 14.7916ZM17.03 14.2587C16.9425 14.3478 16.8197 14.6078 16.8028 14.7365C16.9248 14.7723 17.1698 14.767 17.2698 14.7202C17.1914 14.566 17.1488 14.3943 17.03 14.2587ZM24.111 13.6839C24.1343 13.7239 24.1575 13.7637 24.1788 13.8004C24.1551 13.9604 24.0939 14.0272 23.9488 14.0548C23.8185 14.0796 23.7122 14.0289 23.6428 13.9178C23.6058 13.8583 23.6094 13.8065 23.6448 13.7501C23.7158 13.6371 23.8718 13.5824 23.9969 13.6304C24.0356 13.6452 24.0721 13.6655 24.111 13.6839ZM27.5236 12.2802C27.2766 12.4037 27.0314 12.5431 26.7471 12.3336C26.728 12.2874 26.7035 12.2282 26.6808 12.1732C26.7297 11.9971 26.8606 11.9083 27.0058 11.8457C27.166 11.7767 27.3346 11.7272 27.5101 11.6654C27.5101 11.5905 27.5117 11.5171 27.5098 11.4437C27.5058 11.287 27.375 11.2098 27.2312 11.2788C27.2149 11.2866 27.2012 11.2997 27.1903 11.3075C27.136 11.4013 27.22 11.4689 27.2268 11.5456C27.1459 11.6833 27.0595 11.7082 26.8355 11.6579C26.8204 11.6416 26.8001 11.6226 26.7833 11.6009C26.7224 11.522 26.7166 11.4461 26.7859 11.3774C26.84 11.3237 26.9087 11.2797 26.9784 11.248C27.0753 11.2039 27.1805 11.1854 27.2893 11.1896C27.4003 11.1939 27.5126 11.1819 27.6225 11.194C27.7867 11.2121 27.9439 11.2566 28.0152 11.4307C28.0337 11.4761 28.0402 11.5289 28.0411 11.5785C28.0443 11.7639 28.0424 11.9492 28.0437 12.1346C28.044 12.1661 28.0504 12.1976 28.055 12.2389C28.1068 12.2464 28.1551 12.2534 28.2138 12.262C28.202 12.3807 28.0894 12.3703 28.0226 12.4076C27.94 12.4537 27.8395 12.4654 27.7529 12.4315C27.6738 12.4007 27.6074 12.3373 27.5236 12.2802ZM20.5535 12.2837C20.4281 12.3353 20.3241 12.3869 20.2147 12.4206C20.0981 12.4566 19.9782 12.4619 19.8649 12.3958C19.6816 12.2886 19.6736 12.1033 19.835 11.9659C19.9825 11.8404 20.1648 11.8031 20.336 11.7364C20.3958 11.7132 20.4565 11.6927 20.5198 11.6698V11.3364C20.3728 11.221 20.3174 11.2218 20.1863 11.3442C20.2058 11.4089 20.2266 11.4783 20.2479 11.5492C20.2221 11.5871 20.1991 11.621 20.167 11.6684H19.8626C19.8447 11.6495 19.8311 11.6372 19.82 11.6229C19.7185 11.4924 19.7418 11.3792 19.8908 11.2975C20.0092 11.2326 20.1351 11.1897 20.2723 11.1907C20.4067 11.1917 20.542 11.1854 20.6751 11.1991C20.7545 11.2073 20.8363 11.2372 20.9068 11.276C21.0334 11.3457 21.0704 11.467 21.0665 11.6063C21.0612 11.7961 21.0597 11.9861 21.058 12.176C21.0578 12.1934 21.0673 12.2108 21.0755 12.239C21.1269 12.2471 21.1791 12.2554 21.2323 12.2638C21.1903 12.3641 21.0516 12.4291 20.9015 12.4435C20.7484 12.4583 20.6535 12.3613 20.5535 12.2837ZM23.2678 12.2869C23.1416 12.3352 23.0269 12.3825 22.9099 12.423C22.8002 12.4609 22.69 12.4506 22.5849 12.4025C22.4213 12.3276 22.3832 12.1472 22.5006 12.0107C22.5951 11.9006 22.7262 11.8521 22.8556 11.8022C22.9763 11.7556 23.0989 11.7142 23.2204 11.6697C23.2281 11.6669 23.2332 11.6569 23.2486 11.6406C23.2477 11.5328 23.281 11.4119 23.1977 11.2924C23.1619 11.2811 23.1192 11.2619 23.0744 11.2546C22.9616 11.2361 22.8941 11.3087 22.9201 11.419C22.9316 11.4681 22.9497 11.5156 22.9628 11.5573C22.9233 11.6421 22.8619 11.6743 22.7801 11.6731C22.7383 11.6725 22.6965 11.6725 22.6548 11.6736C22.5701 11.6757 22.5091 11.6337 22.4817 11.5589C22.4548 11.4851 22.4714 11.408 22.5293 11.3529C22.572 11.3123 22.6235 11.2722 22.6783 11.2549C22.7965 11.2174 22.9153 11.1776 23.0446 11.1885C23.146 11.1972 23.2496 11.184 23.3503 11.1962C23.4362 11.2066 23.5268 11.2255 23.6019 11.2658C23.7083 11.323 23.7702 11.4208 23.77 11.55C23.7697 11.7354 23.7724 11.9207 23.7742 12.106C23.7748 12.1615 23.7694 12.2195 23.8327 12.2599C23.8608 12.2586 23.8952 12.2568 23.9465 12.2542C23.9325 12.2866 23.9296 12.3112 23.9158 12.3225C23.7849 12.4297 23.5534 12.5048 23.3664 12.3705C23.3293 12.3439 23.2965 12.3115 23.2678 12.2869ZM21.3092 11.2736C21.3871 11.2358 21.4383 11.2064 21.4928 11.1855C21.6506 11.1249 21.7668 11.0176 21.8541 10.8756C21.894 10.8109 21.8944 10.8111 21.9976 10.8189V11.1399C22.0493 11.2113 22.0999 11.214 22.1594 11.2051C22.2173 11.1965 22.2805 11.1929 22.3071 11.2737C22.2596 11.3237 22.2012 11.3025 22.1493 11.3052C22.029 11.3113 22.004 11.3337 22.0031 11.4553C22.0016 11.6638 22.0023 11.8722 22.003 12.0807C22.0031 12.1083 22.0044 12.1368 22.0115 12.1631C22.0396 12.2667 22.1142 12.3032 22.2136 12.2637C22.2448 12.2513 22.2753 12.237 22.3224 12.2165C22.3176 12.3208 22.2448 12.3411 22.1947 12.3647C22.0866 12.4158 21.9727 12.4533 21.8478 12.4433C21.6412 12.4269 21.4833 12.3102 21.4939 12.0843C21.5028 11.8948 21.4955 11.7045 21.4957 11.5146C21.4959 11.3418 21.4961 11.3418 21.3092 11.2736ZM16.3647 10.6469C16.4182 10.6451 16.4716 10.6417 16.5251 10.6417C16.8076 10.6421 17.0904 10.6371 17.3727 10.6466C17.5569 10.6528 17.7413 10.6747 17.9238 10.7015C17.9945 10.7119 18.0655 10.7466 18.1271 10.7849C18.2569 10.8656 18.3284 10.9797 18.3214 11.1425C18.3141 11.3122 18.2222 11.4203 18.083 11.4877C17.9158 11.5688 17.7353 11.6064 17.5475 11.6081C17.4613 11.6089 17.3719 11.5914 17.2792 11.6329C17.2748 11.6673 17.2668 11.7027 17.2663 11.7382C17.2649 11.8633 17.2652 11.9884 17.2663 12.1136C17.2676 12.2699 17.2941 12.3057 17.4401 12.3551C17.4572 12.3609 17.4742 12.367 17.5125 12.3803C17.4527 12.3926 17.4136 12.408 17.3746 12.4075C17.059 12.4037 16.7436 12.3969 16.4222 12.3799C16.5865 12.3414 16.6243 12.2323 16.6223 12.0845C16.6174 11.7138 16.621 11.343 16.6211 10.9723C16.6211 10.9537 16.62 10.9352 16.6199 10.9167C16.6186 10.8059 16.5703 10.7312 16.4586 10.7039C16.4277 10.6963 16.3972 10.6865 16.3666 10.6777C16.3659 10.6674 16.3653 10.6572 16.3647 10.6469ZM24.0738 11.2169C24.124 11.2095 24.1539 11.2017 24.1838 11.2013C24.2951 11.1998 24.4063 11.2005 24.5176 11.2008C24.6155 11.201 24.7155 11.1962 24.7634 11.305C25.0358 11.1441 25.289 11.1266 25.5446 11.338C25.5789 11.3205 25.6214 11.3041 25.658 11.2792C25.8154 11.1717 25.9916 11.1673 26.1659 11.2022C26.2965 11.2283 26.3809 11.3226 26.4049 11.4595C26.412 11.5003 26.4168 11.5422 26.4164 11.5835C26.4146 11.7642 26.4107 11.9448 26.407 12.1253C26.405 12.2199 26.4302 12.2815 26.5235 12.3919H25.826C25.9608 12.1282 25.8731 11.8464 25.8968 11.5745C25.9016 11.519 25.8719 11.4605 25.8546 11.3887C25.7984 11.3887 25.7534 11.3847 25.7093 11.3895C25.6057 11.4007 25.5692 11.4377 25.5678 11.5412C25.5651 11.7545 25.5617 11.968 25.5699 12.1811C25.5724 12.2487 25.6106 12.3149 25.6362 12.393H24.9446C25.0587 12.3106 25.036 12.2021 25.0369 12.1003C25.0384 11.924 25.0375 11.7478 25.0364 11.5716C25.036 11.5215 25.0311 11.4713 25.0286 11.4258C24.9349 11.3655 24.8521 11.3813 24.7528 11.4268C24.7452 11.4717 24.7296 11.5246 24.7286 11.5777C24.7253 11.7585 24.7271 11.9394 24.7272 12.1203C24.7272 12.2121 24.7214 12.3055 24.7939 12.3933H24.05C24.1094 12.3536 24.1446 12.3301 24.1887 12.3007C24.1922 12.2542 24.199 12.2043 24.1993 12.1543C24.201 11.9503 24.2006 11.7462 24.2011 11.5421C24.2015 11.3557 24.2015 11.3557 24.0738 11.2169ZM19.19 11.4683C19.106 11.5193 19.0832 11.5776 19.0826 11.6461C19.0813 11.8082 19.0789 11.9703 19.0819 12.1323C19.0841 12.2506 19.1079 12.2817 19.254 12.3898H18.4569C18.5598 12.3286 18.5538 12.2318 18.5533 12.136C18.5521 11.9091 18.5529 11.6822 18.5518 11.4553C18.5511 11.3321 18.55 11.3321 18.4651 11.2428C18.5526 11.1623 18.6576 11.2093 18.7513 11.2034C18.851 11.1971 18.9517 11.2078 19.0515 11.211C19.0688 11.2693 19.0811 11.3108 19.0959 11.3607C19.1636 11.3104 19.219 11.2631 19.2802 11.2251C19.3755 11.1659 19.5313 11.1741 19.607 11.2359C19.7191 11.3275 19.7055 11.4586 19.5763 11.5279C19.5069 11.5651 19.437 11.5695 19.3634 11.5356C19.3055 11.5089 19.2444 11.4892 19.19 11.4683ZM23.2259 11.7868C22.9834 11.8468 22.9075 11.9823 23.001 12.1728C23.0342 12.1866 23.072 12.2023 23.1146 12.2201C23.1589 12.1971 23.2027 12.1744 23.2406 12.1546C23.2677 12.025 23.2707 11.9094 23.2259 11.7868ZM27.5027 12.1667V11.8103C27.3202 11.7607 27.1972 11.9289 27.2457 12.1553C27.3202 12.2138 27.4007 12.2157 27.5027 12.1667ZM20.511 11.7772C20.3754 11.812 20.2863 11.8746 20.2497 11.9962C20.2133 12.1168 20.2735 12.1993 20.3986 12.1992C20.4372 12.1992 20.4758 12.1852 20.5223 12.1761C20.5238 12.0373 20.5451 11.9118 20.511 11.7772ZM17.275 11.4924C17.4796 11.5187 17.6057 11.45 17.6441 11.287C17.6718 11.1698 17.6729 11.0475 17.6303 10.9312C17.5773 10.7864 17.4374 10.7233 17.275 10.7751V11.4924Z" fill="#22409A"/>
</g>
</g>
<defs>
<clipPath id="clip0_2707_291758">
<rect width="32" height="32" fill="white"/>
</clipPath>
</defs>
</svg>
