<svg width="32" height="32" viewBox="0 0 32 32" fill="none" xmlns="http://www.w3.org/2000/svg">
<g clip-path="url(#clip0_2707_291273)">
<path d="M16 31.9822C24.8268 31.9822 31.9823 24.8267 31.9823 16C31.9823 7.17326 24.8268 0.0177765 16 0.0177765C7.17331 0.0177765 0.0178223 7.17326 0.0178223 16C0.0178223 24.8267 7.17331 31.9822 16 31.9822Z" fill="white"/>
<path d="M27.3156 19.6356C27.2897 19.7617 27.2719 19.8894 27.2622 20.0178C27.2622 20.24 27.2622 20.4533 27.2622 20.6756C27.2622 20.7556 27.2622 20.8444 27.2622 20.9333C27.2629 20.9622 27.2535 20.9904 27.2357 21.0131C27.2179 21.0358 27.1927 21.0516 27.1645 21.0578C26.9899 21.1118 26.8116 21.1534 26.6311 21.1822C26.2134 21.1822 25.7956 21.2533 25.3867 21.2533H6.93336C6.4178 21.2533 5.89336 21.2089 5.3778 21.1733C5.20626 21.1475 5.0369 21.1089 4.87114 21.0578C4.83353 21.0493 4.80024 21.0276 4.77737 20.9966C4.75451 20.9656 4.74362 20.9273 4.74669 20.8889C4.74669 20.6933 4.74669 20.5067 4.74669 20.32C4.75587 20.117 4.73794 19.9138 4.69336 19.7156C4.69336 19.7156 4.69336 19.6622 4.69336 19.6356C4.84748 19.6809 5.00504 19.7136 5.16447 19.7333C5.51114 19.7333 5.86669 19.8044 6.21336 19.8133H25.4311C25.9425 19.8208 26.4537 19.7881 26.96 19.7156L27.3156 19.6356ZM10.9511 20.4444C11.0045 20.5956 11.0578 20.7467 11.1022 20.8978C11.1084 20.9181 11.1217 20.9356 11.1396 20.947C11.1575 20.9584 11.179 20.963 11.2 20.96C11.2 20.96 11.2711 20.96 11.2889 20.9067C11.3067 20.8533 11.3689 20.6489 11.4134 20.5244V20.4444C11.4486 20.5759 11.4753 20.7095 11.4934 20.8444C11.4934 20.9778 11.4934 20.9778 11.68 20.9422C11.68 20.6667 11.5822 20.3822 11.5378 20.1067H11.5556C11.5282 20.108 11.5021 20.1183 11.4812 20.136C11.4603 20.1536 11.4459 20.1777 11.44 20.2044C11.414 20.2617 11.3932 20.3212 11.3778 20.3822C11.3778 20.4889 11.2978 20.5956 11.2534 20.7289C11.2 20.5422 11.1467 20.3911 11.0934 20.24C11.04 20.0889 11.04 20.0978 10.8889 20.1244C10.8356 20.4178 10.7911 20.7022 10.7378 21.0133C10.8978 21.0133 10.8978 21.0133 10.9245 20.9067C10.9511 20.8 10.9245 20.6044 10.9511 20.4444ZM18.3645 21.0311C18.3458 20.9978 18.3218 20.9677 18.2934 20.9422C18.2651 20.9139 18.2493 20.8755 18.2493 20.8356C18.2493 20.7956 18.2651 20.7572 18.2934 20.7289C18.3434 20.6248 18.3526 20.5058 18.3192 20.3953C18.2859 20.2847 18.2124 20.1907 18.1132 20.1316C18.014 20.0725 17.8963 20.0527 17.7832 20.0761C17.6702 20.0994 17.5699 20.1642 17.5022 20.2578C17.4532 20.3351 17.4256 20.4241 17.4222 20.5156C17.4222 20.6405 17.4719 20.7603 17.5602 20.8487C17.6486 20.937 17.7684 20.9867 17.8934 20.9867C17.9434 20.9951 17.9945 20.9951 18.0445 20.9867C18.0445 20.9867 18.1156 20.9867 18.1245 20.9867C18.1334 20.9867 18.2578 21.0578 18.3645 21.0578V21.0311ZM15.5378 20.0533C15.4412 20.0809 15.3562 20.1392 15.2958 20.2194C15.2353 20.2996 15.2025 20.3973 15.2025 20.4978C15.2025 20.5982 15.2353 20.6959 15.2958 20.7761C15.3562 20.8563 15.4412 20.9146 15.5378 20.9422C15.6066 20.9619 15.679 20.9653 15.7493 20.9522C15.8197 20.9391 15.886 20.9099 15.9431 20.8668C16.0002 20.8237 16.0466 20.768 16.0785 20.7039C16.1104 20.6399 16.127 20.5693 16.127 20.4978C16.127 20.4262 16.1104 20.3557 16.0785 20.2916C16.0466 20.2276 16.0002 20.1719 15.9431 20.1288C15.886 20.0857 15.8197 20.0565 15.7493 20.0434C15.679 20.0303 15.6066 20.0337 15.5378 20.0533ZM13.2445 20.0533C13.1531 20.0533 13.0637 20.0804 12.9877 20.1312C12.9117 20.182 12.8524 20.2542 12.8174 20.3387C12.7824 20.4231 12.7733 20.5161 12.7911 20.6057C12.809 20.6954 12.853 20.7778 12.9176 20.8424C12.9823 20.907 13.0646 20.9511 13.1543 20.9689C13.244 20.9867 13.3369 20.9776 13.4214 20.9426C13.5058 20.9076 13.578 20.8484 13.6288 20.7724C13.6796 20.6963 13.7067 20.607 13.7067 20.5156C13.6999 20.3976 13.6482 20.2868 13.5622 20.2058C13.4763 20.1248 13.3626 20.0798 13.2445 20.08V20.0533ZM12.4089 20.4711C12.4447 20.4408 12.4699 20.3999 12.4811 20.3544C12.4922 20.3088 12.4886 20.2609 12.4709 20.2175C12.4531 20.1741 12.4221 20.1374 12.3822 20.1127C12.3423 20.088 12.2957 20.0766 12.2489 20.08C12.166 20.0756 12.0829 20.0756 12 20.08V20.9689C12.1243 20.9776 12.2491 20.9776 12.3734 20.9689C12.4154 20.9581 12.4535 20.9357 12.4833 20.9042C12.5132 20.8728 12.5336 20.8336 12.5422 20.7911C12.5522 20.7347 12.5438 20.6766 12.5182 20.6254C12.4926 20.5741 12.4511 20.5325 12.4 20.5067L12.4089 20.4711ZM19.4578 20.9422C19.5111 20.9422 19.6089 20.9867 19.6267 20.8978C19.6445 20.8089 19.7422 20.7378 19.8578 20.7556C19.8928 20.7646 19.9295 20.7646 19.9645 20.7556C20.0267 20.7556 20.0534 20.7556 20.08 20.8356C20.1067 20.9156 20.1334 20.96 20.2845 20.9333V20.8533C20.1956 20.6133 20.0978 20.3822 20.0178 20.1422C20.0178 20.0889 19.9734 20.0533 19.9022 20.0533C19.8753 20.0507 19.8484 20.0585 19.8269 20.075C19.8055 20.0915 19.7911 20.1155 19.7867 20.1422V20.2222L19.4578 20.9422ZM18.6134 20.0533C18.6134 20.2844 18.6134 20.5156 18.6134 20.7378C18.621 20.7743 18.636 20.8089 18.6573 20.8394C18.6787 20.87 18.7061 20.8959 18.7378 20.9156C18.7829 20.945 18.8353 20.9614 18.8891 20.9631C18.943 20.9647 18.9962 20.9515 19.043 20.9249C19.0899 20.8982 19.1285 20.8592 19.1546 20.8121C19.1807 20.765 19.1934 20.7116 19.1911 20.6578V20.0889H19.0311V20.6933C19.0324 20.7092 19.0303 20.7252 19.025 20.7403C19.0198 20.7554 19.0115 20.7692 19.0006 20.7809C18.9897 20.7925 18.9766 20.8019 18.962 20.8082C18.9473 20.8146 18.9315 20.8178 18.9156 20.8178C18.8267 20.8178 18.8 20.7644 18.7911 20.6933V20.08L18.6134 20.0533ZM9.57336 20.16C9.54484 20.1202 9.50756 20.0875 9.46442 20.0644C9.42127 20.0413 9.37339 20.0284 9.32447 20.0267C9.27914 20.0221 9.23351 20.0316 9.19376 20.0539C9.15401 20.0762 9.12207 20.1101 9.10225 20.1511C9.07486 20.1868 9.06001 20.2306 9.06001 20.2756C9.06001 20.3206 9.07486 20.3643 9.10225 20.4C9.17336 20.48 9.25336 20.5422 9.33336 20.6222C9.41336 20.7022 9.40447 20.7022 9.33336 20.7556C9.32078 20.7612 9.30715 20.7641 9.29336 20.7641C9.27957 20.7641 9.26594 20.7612 9.25336 20.7556C9.2305 20.7645 9.20511 20.7645 9.18225 20.7556L9.10225 20.6756C9.06818 20.6846 9.03736 20.7031 9.01336 20.7289C9.0079 20.7384 9.00502 20.7491 9.00502 20.76C9.00502 20.7709 9.0079 20.7817 9.01336 20.7911C9.04594 20.8554 9.10167 20.9048 9.16931 20.9296C9.23695 20.9543 9.31146 20.9525 9.3778 20.9244C9.43775 20.9042 9.48726 20.861 9.51556 20.8044C9.54386 20.7478 9.54866 20.6823 9.52891 20.6222C9.50087 20.5621 9.46166 20.5078 9.41336 20.4622C9.35114 20.4 9.28003 20.3556 9.22669 20.2933C9.22105 20.2808 9.21814 20.2671 9.21814 20.2533C9.21814 20.2395 9.22105 20.2259 9.22669 20.2133C9.24021 20.2055 9.25553 20.2014 9.27114 20.2014C9.28674 20.2014 9.30207 20.2055 9.31558 20.2133C9.35557 20.2296 9.39185 20.2538 9.42225 20.2844L9.57336 20.16ZM16.2845 20.0533V20.9422C16.4356 20.9422 16.4445 20.9422 16.4445 20.8356V20.56H16.7111V20.4444H16.4445V20.2667H16.7022V20.1067L16.2845 20.0533ZM22.6045 20.3556L22.5067 20.1689C22.4356 20.0356 22.4356 20.0356 22.2667 20.0622C22.3378 20.1956 22.4 20.3378 22.48 20.4711C22.56 20.6044 22.48 20.7733 22.5334 20.9244C22.5867 21.0756 22.7022 20.9244 22.6934 20.8C22.675 20.6383 22.7126 20.4751 22.8 20.3378C22.8527 20.2457 22.9002 20.1507 22.9422 20.0533C22.7822 20.0533 22.7822 20.0533 22.7111 20.1689L22.6045 20.3556ZM10.4978 20.0533C10.3289 20.0533 10.3289 20.0533 10.2578 20.1689C10.1867 20.2844 10.1956 20.2844 10.16 20.3556C10.16 20.2844 10.0889 20.2222 10.0534 20.1689C10.0178 20.1156 9.98225 20.0356 9.82225 20.0533C9.89336 20.1956 9.95558 20.3289 10.0356 20.4622C10.1156 20.5956 10.0356 20.7733 10.08 20.9244C10.1245 21.0756 10.2489 20.9244 10.2489 20.8V20.6844C10.2384 20.591 10.2604 20.4969 10.3111 20.4178C10.3734 20.3556 10.4267 20.2311 10.4978 20.1067V20.0533ZM21.6 20.1956C21.7511 20.1956 21.7511 20.1956 21.7511 20.3822V20.9244H21.8222C21.9022 20.9244 21.9289 20.9244 21.9289 20.8267C21.9245 20.7527 21.9245 20.6785 21.9289 20.6044V20.2667H22.08V20.1156H21.6V20.1956ZM14.1511 20.7644V20.0533H13.9911V20.9422H14.3556C14.3556 20.9422 14.3556 20.9422 14.4 20.8889V20.7733L14.1511 20.7644ZM20.72 20.7644V20.0533H20.56V20.9422H20.96V20.7822L20.72 20.7644ZM21.2089 20.0533C21.2089 20.0533 21.2089 20.1156 21.2089 20.1422V20.8089C21.2089 20.9422 21.2089 20.9422 21.3511 20.9333V20.0444L21.2089 20.0533Z" fill="#4FB849"/>
<path d="M16.1067 15.5911C15.4598 15.6039 14.8176 15.4797 14.2222 15.2267C14.1928 15.2136 14.168 15.1919 14.1511 15.1644C13.8115 14.4901 13.6465 13.7413 13.6711 12.9867C13.708 12.3664 13.8745 11.7608 14.16 11.2089C14.16 11.2089 14.16 11.1556 14.2311 11.1378C15.3697 10.6676 16.6481 10.6676 17.7867 11.1378C17.8189 11.1543 17.8465 11.1788 17.8667 11.2089C18.1739 11.8191 18.3409 12.4903 18.3555 13.1733C18.3552 13.6735 18.2679 14.1697 18.0978 14.64C18.0355 14.8356 17.9467 15.0133 17.8667 15.2C17.861 15.2155 17.8515 15.2294 17.8391 15.2403C17.8267 15.2511 17.8117 15.2587 17.7955 15.2622C17.2594 15.4808 16.6857 15.5925 16.1067 15.5911ZM16 11.1467C15.4841 11.1413 14.9717 11.2317 14.4889 11.4133C14.4411 11.4331 14.4008 11.4673 14.3733 11.5111C14.1402 12.0198 14.0103 12.5697 13.9911 13.1289C13.9804 13.742 14.108 14.3497 14.3644 14.9067C14.3771 14.9318 14.3946 14.9541 14.416 14.9724C14.4374 14.9907 14.4621 15.0046 14.4889 15.0133C15.4603 15.3774 16.5308 15.3774 17.5022 15.0133C17.5501 14.9927 17.5882 14.9545 17.6089 14.9067C17.8634 14.3769 17.9956 13.7966 17.9956 13.2089C17.9956 12.6211 17.8634 12.0409 17.6089 11.5111C17.6017 11.494 17.5907 11.4788 17.5769 11.4665C17.5631 11.4542 17.5467 11.4452 17.5289 11.44C17.0458 11.2298 16.5266 11.115 16 11.1022V11.1467Z" fill="#EA2426"/>
<path d="M22.1155 19.0311V16.3644C22.5294 16.2845 22.9549 16.2845 23.3688 16.3644C23.5899 16.4043 23.7935 16.5109 23.9524 16.6697C24.1113 16.8286 24.2178 17.0322 24.2577 17.2533C24.3247 17.5458 24.3247 17.8497 24.2577 18.1422C24.2116 18.3551 24.1019 18.549 23.9432 18.6982C23.7845 18.8474 23.5842 18.9449 23.3688 18.9778C23.0618 19.04 22.7475 19.058 22.4355 19.0311H22.1155ZM22.6933 18.5778H22.951C23.1032 18.5879 23.2541 18.5433 23.3763 18.452C23.4985 18.3607 23.5841 18.2288 23.6177 18.08C23.6977 17.8072 23.6977 17.5172 23.6177 17.2444C23.5839 17.1317 23.518 17.0313 23.428 16.9555C23.338 16.8797 23.2279 16.8318 23.111 16.8178H22.8177C22.7377 16.8178 22.711 16.8178 22.711 16.9244C22.711 17.3955 22.711 17.8667 22.711 18.3378L22.6933 18.5778Z" fill="#EB2326"/>
<path d="M12.8979 19.04H12.4979C12.4547 19.0304 12.4167 19.005 12.3912 18.9689C12.0979 18.4889 11.7957 18.0089 11.5023 17.52C11.4858 17.4877 11.4613 17.4602 11.4312 17.44V19.04H10.9246V16.3733C11.0675 16.3372 11.2172 16.3372 11.3601 16.3733C11.3757 16.3781 11.3901 16.3861 11.4023 16.3968C11.4146 16.4076 11.4244 16.4208 11.4312 16.4355L12.3201 17.9022L12.3823 17.9911V16.3378H12.8979V19.04Z" fill="#EC2426"/>
<path d="M17.8667 16.3466C17.9999 16.3379 18.1335 16.3379 18.2667 16.3466C18.5004 16.3287 18.7352 16.3287 18.9689 16.3466C19.1153 16.352 19.255 16.4097 19.3626 16.5092C19.4702 16.6086 19.5387 16.7433 19.5556 16.8889C19.59 17.0277 19.5782 17.1739 19.5221 17.3054C19.466 17.437 19.3685 17.5466 19.2445 17.6178C19.3873 17.6621 19.5105 17.7545 19.5931 17.8792C19.6757 18.0039 19.7127 18.1533 19.6978 18.3022C19.699 18.4018 19.6803 18.5005 19.6427 18.5927C19.6052 18.685 19.5495 18.7687 19.4791 18.8391C19.4088 18.9095 19.325 18.9651 19.2328 19.0027C19.1406 19.0402 19.0418 19.059 18.9422 19.0578C18.5884 19.1066 18.2294 19.1066 17.8756 19.0578C17.8756 19.0578 17.8756 18.9955 17.8756 18.9689C17.8578 18.0711 17.8578 17.2089 17.8667 16.3466ZM18.4178 18.6044C18.5599 18.6133 18.7024 18.6133 18.8445 18.6044C18.9197 18.5882 18.9872 18.5468 19.0357 18.487C19.0842 18.4271 19.1108 18.3525 19.1111 18.2755C19.1226 18.1983 19.1055 18.1195 19.0629 18.054C19.0203 17.9885 18.9553 17.9408 18.88 17.92C18.7289 17.92 18.5778 17.92 18.4178 17.8755V18.6044ZM18.4178 17.4133C18.6133 17.4133 18.8089 17.4578 18.9245 17.2533C18.9631 17.1971 18.9837 17.1304 18.9837 17.0622C18.9837 16.994 18.9631 16.9274 18.9245 16.8711C18.7911 16.7022 18.6133 16.7289 18.4267 16.7467L18.4178 17.4133Z" fill="#EC2225"/>
<path d="M19.8579 16.3467H20.4445V16.4444C20.4445 16.9511 20.4445 17.4489 20.4445 17.9555C20.4472 18.0882 20.4681 18.2198 20.5068 18.3467C20.5601 18.5155 20.6756 18.5689 20.8801 18.5689C21.0845 18.5689 21.1912 18.5067 21.2356 18.3467C21.2744 18.2016 21.2952 18.0523 21.2979 17.9022C21.2979 17.4133 21.2979 16.9333 21.2979 16.4444V16.3467C21.4828 16.3111 21.6729 16.3111 21.8579 16.3467V17.7778C21.8579 17.7778 21.8579 17.8489 21.8579 17.8755C21.842 18.0788 21.8123 18.2808 21.769 18.48C21.7328 18.6143 21.6593 18.7357 21.5571 18.83C21.4548 18.9244 21.328 18.9879 21.1912 19.0133C20.9722 19.0668 20.7435 19.0668 20.5245 19.0133C20.3687 18.9856 20.225 18.9113 20.1124 18.8002C19.9997 18.6891 19.9233 18.5465 19.8934 18.3911C19.8677 18.2829 19.8499 18.173 19.8401 18.0622C19.8445 18.0268 19.8445 17.991 19.8401 17.9555C19.849 17.44 19.8579 16.8889 19.8579 16.3467Z" fill="#EC2225"/>
<path d="M17.3777 19.04H16.8355C16.7911 19.04 16.7733 19.04 16.7555 18.9689L16.6489 18.5689C16.6489 18.5244 16.6489 18.4978 16.5778 18.4978C16.3466 18.4978 16.1066 18.4978 15.8666 18.4978C15.8133 18.4978 15.7955 18.4978 15.7778 18.5689C15.76 18.64 15.7066 18.8178 15.68 18.9422C15.6533 19.0667 15.6355 19.04 15.5644 19.04H15.1111C15.1733 18.8267 15.2355 18.64 15.2977 18.4444C15.5111 17.7689 15.7244 17.0933 15.9289 16.4178C15.9289 16.3644 15.9733 16.3289 16.0355 16.3289H16.5422C16.5571 16.333 16.5706 16.3408 16.5815 16.3518C16.5925 16.3627 16.6003 16.3762 16.6044 16.3911C16.88 17.28 17.1466 18.1067 17.4133 18.9689C17.409 18.9957 17.3966 19.0205 17.3777 19.04ZM15.92 18.0178H16.4889L16.2222 17.0222C16.1066 17.3511 16 17.68 15.92 18.0178Z" fill="#EB2326"/>
<path d="M10.7734 19.04H10.2311C10.2199 19.0413 10.2086 19.0401 10.1978 19.0367C10.187 19.0332 10.1771 19.0275 10.1687 19.02C10.1603 19.0124 10.1536 19.0032 10.1491 18.9928C10.1445 18.9825 10.1422 18.9713 10.1423 18.96C10.1423 18.8356 10.0711 18.7022 10.0356 18.5778C10.0356 18.5566 10.0272 18.5362 10.0122 18.5212C9.99716 18.5062 9.97681 18.4978 9.95559 18.4978C9.71559 18.4978 9.48448 18.4978 9.24448 18.4978C9.22523 18.4993 9.20701 18.5071 9.19258 18.5199C9.17814 18.5328 9.16828 18.55 9.16448 18.5689C9.16448 18.7111 9.09337 18.8445 9.04892 18.9778C9.04433 18.9915 9.03611 19.0036 9.02516 19.013C9.01421 19.0224 9.00092 19.0287 8.9867 19.0311H8.45337C8.45337 18.9245 8.51559 18.8267 8.54226 18.7378C8.79115 17.9645 9.03115 17.1911 9.27115 16.4178C9.27115 16.3556 9.31559 16.32 9.37781 16.32H9.87559C9.92004 16.32 9.93781 16.32 9.95559 16.3911L10.6667 18.8178C10.7063 18.8898 10.742 18.964 10.7734 19.04ZM9.60892 17.0222C9.51115 17.3511 9.42226 17.68 9.32448 18.0178H9.89337L9.60892 17.0222Z" fill="#EB2326"/>
<path d="M29.3333 18.72C29.0851 19.0244 28.8083 19.3042 28.5066 19.5556C28.6394 19.6492 28.767 19.7501 28.8888 19.8578C29.0229 19.9595 29.1322 20.0902 29.2088 20.24H27.351C27.3193 20.1056 27.3193 19.9656 27.351 19.8311C27.346 19.7749 27.346 19.7184 27.351 19.6622C27.3955 19.4667 27.2888 19.36 27.1288 19.28C26.9701 19.2078 26.7964 19.1743 26.6222 19.1822C26.4622 19.1822 26.2933 19.1822 26.1333 19.1822C25.9753 19.1737 25.818 19.1559 25.6622 19.1289C25.6127 19.1162 25.567 19.0918 25.5288 19.0578C25.4399 18.9867 25.4399 18.9156 25.5288 18.8445C25.6884 18.7218 25.8886 18.6646 26.0888 18.6845C26.3999 18.6845 26.7199 18.6845 27.031 18.7733C27.489 18.8222 27.9509 18.8222 28.4088 18.7733L29.1822 18.6933L29.3333 18.72Z" fill="#50B849"/>
<path d="M2.7823 20.2489C2.96262 19.969 3.20237 19.7323 3.48453 19.5555C3.18563 19.3106 2.9117 19.0367 2.66675 18.7378H2.81786C3.25341 18.7378 3.70675 18.8178 4.11564 18.8267C4.41333 18.826 4.71051 18.8022 5.00453 18.7555C5.33149 18.6853 5.66584 18.6555 6.00008 18.6667C6.12544 18.6851 6.24612 18.7274 6.35564 18.7911C6.51564 18.8711 6.50675 18.9778 6.35564 19.0667C6.18417 19.1482 5.99295 19.1791 5.80453 19.1555C5.55129 19.1155 5.29332 19.1155 5.04008 19.1555C4.92378 19.1813 4.81261 19.2264 4.71119 19.2889C4.66001 19.3165 4.61928 19.3602 4.59521 19.4131C4.57114 19.4661 4.56505 19.5255 4.57786 19.5822C4.57786 19.7155 4.63119 19.84 4.64897 19.9733C4.65328 19.9998 4.65328 20.0268 4.64897 20.0533C4.64897 20.1689 4.64897 20.1778 4.52453 20.1778H2.96008L2.7823 20.2489Z" fill="#50B849"/>
<path d="M7.11118 16.3289C7.44609 16.2667 7.7896 16.2667 8.12451 16.3289C8.31084 16.3724 8.47602 16.4798 8.59134 16.6324C8.70665 16.7851 8.76478 16.9734 8.75562 17.1645C8.76821 17.3766 8.71547 17.5876 8.60451 17.7689C8.52198 17.8879 8.41162 17.9849 8.28303 18.0515C8.15445 18.1181 8.01154 18.1523 7.86674 18.1511C7.76007 18.1511 7.6534 18.1511 7.53785 18.1511V18.9956C7.35844 19.0266 7.17503 19.0266 6.99562 18.9956C6.99137 18.9572 6.99137 18.9184 6.99562 18.88V16.48C6.99562 16.3378 6.99562 16.3378 7.12007 16.2933L7.11118 16.3289ZM7.53785 17.6978C7.76007 17.6978 7.98229 17.6978 8.09785 17.5022C8.15445 17.4215 8.18482 17.3253 8.18482 17.2267C8.18482 17.1281 8.15445 17.0319 8.09785 16.9511C7.96451 16.7645 7.76896 16.7733 7.56451 16.7911L7.53785 17.6978Z" fill="#EB2225"/>
<path d="M14.8533 16.8889C14.6844 16.8889 14.5333 16.8356 14.3822 16.8267C14.2999 16.8167 14.2164 16.8231 14.1366 16.8454C14.0568 16.8677 13.9821 16.9056 13.9169 16.9568C13.8517 17.0079 13.7972 17.0715 13.7566 17.1437C13.7159 17.2159 13.6899 17.2955 13.68 17.3778C13.6224 17.6083 13.6224 17.8495 13.68 18.08C13.7041 18.2332 13.7854 18.3715 13.9075 18.4671C14.0295 18.5628 14.1832 18.6087 14.3377 18.5955C14.5155 18.5955 14.6844 18.5956 14.8889 18.5422C14.8889 18.6667 14.9689 18.8178 15.0133 18.9956L14.5955 19.0844C14.3119 19.1334 14.0204 19.1057 13.7511 19.0044C13.5704 18.9273 13.4126 18.8051 13.2927 18.6494C13.1729 18.4938 13.095 18.3099 13.0666 18.1155C13.0047 17.8905 12.9926 17.6547 13.0309 17.4244C13.0693 17.1942 13.1573 16.975 13.2889 16.7822C13.3855 16.6463 13.5117 16.5341 13.6579 16.454C13.8042 16.374 13.9667 16.3281 14.1333 16.32C14.3909 16.2888 14.6522 16.3162 14.8977 16.4C14.9511 16.4 14.9689 16.4 14.96 16.4978C14.9511 16.5955 14.8889 16.7467 14.8533 16.8889Z" fill="#EB2326"/>
<path d="M25.031 16.3378H24.4622V19.04H25.031V16.3378Z" fill="#EA2426"/>
<path d="M25.4844 19.0578C25.5328 19.1371 25.6029 19.201 25.6863 19.2419C25.7697 19.2828 25.8631 19.2991 25.9555 19.2889C26.1066 19.2889 26.2577 19.2889 26.4088 19.2889C26.5599 19.2889 26.7999 19.2889 26.9955 19.2889C27.0686 19.3054 27.138 19.3355 27.1999 19.3778C27.2339 19.4027 27.2638 19.4327 27.2888 19.4667L27.1822 19.5289C26.9777 19.5733 26.7822 19.6267 26.5688 19.6533C26.3555 19.68 25.9466 19.6533 25.6355 19.6533C25.6147 19.6537 25.5944 19.6469 25.5782 19.6339C25.5619 19.6209 25.5508 19.6026 25.5466 19.5822C25.4911 19.4133 25.4699 19.235 25.4844 19.0578Z" fill="#247E3F"/>
<path d="M6.50659 19.0667C6.53507 19.2731 6.51373 19.4834 6.44437 19.68C6.42402 19.6857 6.4025 19.6857 6.38215 19.68C5.8929 19.7008 5.403 19.659 4.92437 19.5555H4.79104L4.70215 19.4933C4.72361 19.4647 4.74739 19.438 4.77326 19.4133C4.84199 19.3697 4.91691 19.3368 4.99548 19.3155C5.26693 19.2803 5.54181 19.2803 5.81326 19.3155C5.96704 19.3289 6.1217 19.3289 6.27548 19.3155C6.33348 19.2999 6.38591 19.2683 6.42678 19.2243C6.46765 19.1803 6.49531 19.1256 6.50659 19.0667Z" fill="#247E3F"/>
<path d="M7.11107 16.3289C6.97774 16.3289 6.97774 16.3289 6.97774 16.5156V18.9067C6.97348 18.9451 6.97348 18.9838 6.97774 19.0222C6.97096 18.996 6.97096 18.9685 6.97774 18.9422V16.3289H7.11107Z" fill="#BC2427"/>
<path d="M17.8672 16.3467V18.9422C17.8623 18.9717 17.8623 19.0017 17.8672 19.0311C17.863 19.0046 17.863 18.9777 17.8672 18.9511C17.8672 18.6933 17.8672 18.4445 17.8672 18.1867V16.4089C17.8645 16.3882 17.8645 16.3673 17.8672 16.3467Z" fill="#BC2427"/>
<path d="M19.8582 16.3467V17.9911C19.8582 17.9911 19.8582 18.0533 19.8582 18.0889C19.8582 18.1245 19.8582 17.9822 19.8582 17.9289V16.4267C19.8539 16.4001 19.8539 16.3732 19.8582 16.3467Z" fill="#CE2428"/>
<path d="M21.8581 17.9022C21.8533 17.8668 21.8533 17.831 21.8581 17.7956V16.3467C21.8624 16.3642 21.8624 16.3824 21.8581 16.4V17.9022Z" fill="#BC2427"/>
<path d="M10.9511 20.4445C10.9511 20.5778 10.8978 20.7022 10.88 20.8356C10.8622 20.9689 10.88 20.9689 10.6934 20.9422C10.7467 20.6578 10.7911 20.3733 10.8445 20.0533C10.9956 20.0533 11.0045 20.0533 11.0489 20.16L11.2178 20.6489L11.3334 20.3022C11.3334 20.24 11.3778 20.1867 11.3956 20.1245C11.4134 20.1002 11.4395 20.0832 11.4689 20.0766C11.4983 20.0701 11.5291 20.0744 11.5556 20.0889C11.6 20.3733 11.6534 20.6489 11.6978 20.9245C11.5467 20.9245 11.5378 20.9245 11.52 20.8267C11.5022 20.7289 11.4667 20.56 11.4311 20.4267C11.4345 20.4532 11.4345 20.4801 11.4311 20.5067C11.4311 20.64 11.3422 20.7645 11.3067 20.8889C11.2711 21.0133 11.2534 20.9422 11.2178 20.9422C11.1822 20.9422 11.1378 20.9422 11.12 20.8889C11.1022 20.8356 11.0222 20.5778 10.9689 20.4267L10.9511 20.4445Z" fill="#F4F8EF"/>
<path d="M18.3645 21.0578C18.2579 21.0578 18.169 21.0578 18.1068 20.9867C18.0445 20.9156 18.0534 20.9867 18.0268 20.9867H17.8757C17.8142 20.9878 17.7531 20.9768 17.696 20.9541C17.6389 20.9314 17.5869 20.8975 17.5431 20.8545C17.4992 20.8114 17.4643 20.7601 17.4406 20.7034C17.4168 20.6467 17.4045 20.5859 17.4045 20.5244C17.4065 20.4327 17.4342 20.3434 17.4845 20.2667C17.5469 20.169 17.6443 20.0989 17.7567 20.0708C17.8691 20.0427 17.988 20.0587 18.089 20.1156C18.1957 20.1739 18.2751 20.2719 18.3101 20.3883C18.345 20.5048 18.3326 20.6304 18.2757 20.7378C18.2619 20.751 18.251 20.7669 18.2436 20.7845C18.2361 20.802 18.2323 20.8209 18.2323 20.84C18.2323 20.8591 18.2361 20.878 18.2436 20.8955C18.251 20.9131 18.2619 20.929 18.2757 20.9422C18.3094 20.9774 18.3392 21.0162 18.3645 21.0578ZM17.5823 20.5422C17.5846 20.617 17.6152 20.688 17.6681 20.7409C17.721 20.7937 17.792 20.8244 17.8668 20.8267C17.9469 20.8267 18.0238 20.7948 18.0805 20.7381C18.1371 20.6815 18.169 20.6046 18.169 20.5244C18.169 20.4458 18.1384 20.3703 18.0836 20.3138C18.0289 20.2574 17.9543 20.2245 17.8757 20.2222C17.836 20.2209 17.7965 20.2279 17.7598 20.2427C17.723 20.2576 17.6897 20.2799 17.6621 20.3084C17.6345 20.3369 17.6131 20.3708 17.5994 20.408C17.5856 20.4452 17.5798 20.4849 17.5823 20.5244V20.5422Z" fill="#F4F8EF"/>
<path d="M15.5378 20.08C15.6288 20.0818 15.7173 20.1104 15.7921 20.1622C15.8669 20.214 15.9248 20.2868 15.9584 20.3714C15.992 20.456 15.9999 20.5487 15.9811 20.6377C15.9623 20.7268 15.9176 20.8083 15.8526 20.8721C15.7876 20.9358 15.7052 20.979 15.6158 20.9961C15.5264 21.0132 15.4339 21.0036 15.35 20.9684C15.2661 20.9331 15.1944 20.8739 15.144 20.7981C15.0936 20.7223 15.0667 20.6333 15.0667 20.5422C15.0666 20.4808 15.0789 20.4199 15.1027 20.3633C15.1264 20.3066 15.1613 20.2552 15.2052 20.2122C15.249 20.1692 15.301 20.1353 15.3581 20.1126C15.4153 20.0899 15.4763 20.0788 15.5378 20.08ZM15.8222 20.5511C15.8234 20.513 15.8169 20.4751 15.8032 20.4395C15.7894 20.404 15.7686 20.3716 15.7421 20.3442C15.7156 20.3169 15.6838 20.2951 15.6487 20.2803C15.6136 20.2654 15.5759 20.2578 15.5378 20.2578C15.46 20.2578 15.3854 20.2887 15.3303 20.3437C15.2753 20.3987 15.2444 20.4733 15.2444 20.5511C15.2432 20.5892 15.2497 20.6272 15.2635 20.6627C15.2772 20.6982 15.298 20.7307 15.3245 20.758C15.3511 20.7854 15.3828 20.8071 15.4179 20.822C15.453 20.8368 15.4908 20.8445 15.5289 20.8445C15.6067 20.8445 15.6813 20.8136 15.7363 20.7585C15.7913 20.7035 15.8222 20.6289 15.8222 20.5511Z" fill="#F4F8EF"/>
<path d="M13.2444 20.08C13.3132 20.0604 13.3857 20.0569 13.456 20.07C13.5263 20.0831 13.5927 20.1124 13.6498 20.1554C13.7069 20.1985 13.7532 20.2543 13.7851 20.3183C13.817 20.3823 13.8336 20.4529 13.8336 20.5244C13.8336 20.596 13.817 20.6666 13.7851 20.7306C13.7532 20.7946 13.7069 20.8504 13.6498 20.8935C13.5927 20.9365 13.5263 20.9658 13.456 20.9789C13.3857 20.992 13.3132 20.9885 13.2444 20.9689C13.1219 20.9689 13.0043 20.9202 12.9176 20.8335C12.8309 20.7468 12.7822 20.6293 12.7822 20.5067C12.7912 20.3903 12.8438 20.2817 12.9296 20.2026C13.0153 20.1234 13.1278 20.0797 13.2444 20.08ZM13.5289 20.5422C13.5301 20.5041 13.5236 20.4662 13.5098 20.4306C13.4961 20.3951 13.4753 20.3627 13.4488 20.3353C13.4223 20.308 13.3905 20.2862 13.3554 20.2714C13.3203 20.2565 13.2826 20.2489 13.2444 20.2489C13.1667 20.2489 13.092 20.2798 13.037 20.3348C12.982 20.3898 12.9511 20.4644 12.9511 20.5422C12.9511 20.62 12.982 20.6946 13.037 20.7496C13.092 20.8047 13.1667 20.8356 13.2444 20.8356C13.3191 20.831 13.3892 20.7981 13.4405 20.7436C13.4917 20.6891 13.5201 20.617 13.52 20.5422H13.5289Z" fill="#F4F8EF"/>
<path d="M19.4577 20.9689L19.7244 20.2667V20.1867C19.7288 20.16 19.7432 20.1359 19.7646 20.1194C19.7861 20.1029 19.813 20.0952 19.84 20.0978C19.9111 20.0978 19.9288 20.0978 19.9466 20.1867C20.0355 20.4267 20.1333 20.6578 20.2222 20.8978V20.9778C20.0711 20.9778 20.0622 20.9778 20.0177 20.88C19.9733 20.7822 19.9644 20.7911 19.9022 20.8C19.8672 20.809 19.8305 20.809 19.7955 20.8C19.771 20.792 19.745 20.7894 19.7193 20.7924C19.6937 20.7954 19.669 20.804 19.647 20.8175C19.625 20.8311 19.6062 20.8492 19.5919 20.8708C19.5777 20.8923 19.5683 20.9167 19.5644 20.9422C19.5644 21.0311 19.4488 20.9422 19.3955 20.9867L19.4577 20.9689ZM19.9911 20.6311L19.8755 20.3378L19.76 20.6311H19.9911Z" fill="#F4F8EF"/>
<path d="M18.6134 20.1067H18.7734V20.7111C18.7734 20.7911 18.7734 20.8355 18.8978 20.8355C18.9137 20.8368 18.9297 20.8347 18.9448 20.8294C18.9598 20.8242 18.9737 20.8159 18.9853 20.805C18.997 20.7942 19.0064 20.781 19.0127 20.7664C19.0191 20.7517 19.0223 20.7359 19.0223 20.72V20.1155H19.1823V20.6844C19.1828 20.7375 19.169 20.7897 19.1422 20.8356C19.1154 20.8814 19.0766 20.9191 19.0301 20.9446C18.9836 20.9702 18.931 20.9826 18.878 20.9806C18.8249 20.9786 18.7734 20.9623 18.7289 20.9333C18.6681 20.8943 18.6237 20.8341 18.6045 20.7644C18.6045 20.5689 18.6134 20.3378 18.6134 20.1067Z" fill="#F2F8EC"/>
<path d="M9.57328 20.2133L9.45772 20.32C9.42733 20.2893 9.39104 20.2651 9.35106 20.2489C9.33711 20.2425 9.32195 20.2392 9.30661 20.2392C9.29127 20.2392 9.27611 20.2425 9.26217 20.2489C9.26217 20.2489 9.26217 20.32 9.26217 20.3289C9.26217 20.3378 9.38661 20.4444 9.44883 20.5067C9.49487 20.5508 9.53384 20.6018 9.56439 20.6578C9.58444 20.7191 9.57989 20.7858 9.5517 20.8439C9.52351 20.9019 9.47388 20.9467 9.41328 20.9689C9.34694 20.9969 9.27243 20.9988 9.20479 20.974C9.13715 20.9493 9.08141 20.8998 9.04883 20.8355C9.04259 20.8247 9.03931 20.8125 9.03931 20.8C9.03931 20.7875 9.04259 20.7752 9.04883 20.7644L9.13772 20.72L9.21772 20.8C9.24059 20.8089 9.26597 20.8089 9.28883 20.8C9.30141 20.8056 9.31505 20.8085 9.32883 20.8085C9.34262 20.8085 9.35625 20.8056 9.36883 20.8C9.41328 20.7467 9.36883 20.7022 9.36883 20.6667C9.36883 20.6311 9.20883 20.5244 9.13772 20.4444C9.11033 20.4087 9.09549 20.365 9.09549 20.32C9.09549 20.275 9.11033 20.2312 9.13772 20.1955C9.15522 20.1527 9.18672 20.1171 9.22709 20.0945C9.26745 20.0719 9.31429 20.0636 9.35994 20.0711C9.40339 20.0788 9.44477 20.0954 9.48148 20.1199C9.51819 20.1444 9.54945 20.1762 9.57328 20.2133Z" fill="#F4F8EF"/>
<path d="M16.2756 20.1067H16.7023V20.2667H16.4445V20.4444H16.7023V20.6044H16.4445V20.88C16.4445 21.0133 16.4445 21.0222 16.2756 20.9867V20.1067Z" fill="#F2F8EC"/>
<path d="M22.6044 20.4444L22.711 20.2578C22.7822 20.1244 22.7822 20.1244 22.9422 20.1422C22.9001 20.2396 22.8526 20.3346 22.7999 20.4267C22.7125 20.564 22.6749 20.7271 22.6933 20.8889C22.6933 21.04 22.6933 21.04 22.5333 21.0133C22.3733 20.9867 22.5333 20.7022 22.4799 20.56C22.4266 20.4178 22.3377 20.2844 22.2666 20.1511C22.4355 20.1511 22.4355 20.1511 22.5066 20.2578L22.6044 20.4444Z" fill="#F2F8EC"/>
<path d="M10.4979 20.1067C10.4268 20.2311 10.3735 20.3555 10.3024 20.4711C10.2599 20.5535 10.2385 20.6451 10.2401 20.7378C10.2446 20.7762 10.2446 20.8149 10.2401 20.8533C10.2401 21.0044 10.2401 21.0044 10.0801 20.9778C9.92014 20.9511 10.0801 20.6667 10.0268 20.5155C9.97348 20.3644 9.89348 20.2489 9.81348 20.1067C9.98237 20.1067 9.98237 20.1067 10.0535 20.2222C10.1246 20.3378 10.1157 20.3378 10.1601 20.4089C10.1601 20.3378 10.2313 20.2844 10.2579 20.2222C10.2846 20.16 10.329 20.08 10.4979 20.1067Z" fill="#F3F8EE"/>
<path d="M21.6001 20.2489V20.1067H22.0801V20.2578H21.9201V20.88C21.9201 20.96 21.9201 20.9867 21.8223 20.9778H21.7512V20.4444C21.7512 20.2755 21.7512 20.2755 21.6001 20.2489Z" fill="#F2F8EC"/>
<path d="M14.1512 20.8178H14.4001V20.9333C14.4001 20.9333 14.4001 20.9867 14.3557 20.9867H13.9912V20.0978H14.1512V20.8178Z" fill="#F2F8EC"/>
<path d="M20.7201 20.8178H20.9601V20.9778H20.5601V20.0889H20.7201V20.8178Z" fill="#F2F8EC"/>
<path d="M21.2089 20.1067H21.3334V20.9955C21.1912 20.9955 21.1912 20.9955 21.1912 20.8711V20.2133C21.1912 20.2133 21.2089 20.1422 21.2089 20.1067Z" fill="#F0F7E9"/>
<path d="M17.5824 20.5422C17.5799 20.5026 17.5857 20.463 17.5994 20.4258C17.6131 20.3886 17.6345 20.3546 17.6621 20.3262C17.6897 20.2977 17.723 20.2753 17.7598 20.2605C17.7966 20.2457 17.836 20.2387 17.8757 20.24C17.9543 20.2423 18.0289 20.2752 18.0837 20.3316C18.1384 20.388 18.1691 20.4636 18.169 20.5422C18.169 20.6224 18.1372 20.6992 18.0805 20.7559C18.0238 20.8126 17.947 20.8444 17.8668 20.8444C17.7921 20.8422 17.721 20.8115 17.6681 20.7587C17.6153 20.7058 17.5846 20.6347 17.5824 20.56V20.5422Z" fill="#51B84A"/>
<path d="M15.8223 20.5511C15.8223 20.6289 15.7914 20.7035 15.7364 20.7585C15.6814 20.8135 15.6068 20.8444 15.529 20.8444C15.4909 20.8445 15.4531 20.8368 15.418 20.822C15.3829 20.8071 15.3512 20.7854 15.3246 20.758C15.2981 20.7307 15.2773 20.6982 15.2636 20.6627C15.2498 20.6272 15.2433 20.5892 15.2445 20.5511C15.2445 20.4733 15.2754 20.3987 15.3304 20.3437C15.3854 20.2887 15.4601 20.2578 15.5379 20.2578C15.576 20.2578 15.6137 20.2654 15.6488 20.2803C15.6839 20.2951 15.7157 20.3168 15.7422 20.3442C15.7687 20.3716 15.7895 20.404 15.8033 20.4395C15.817 20.4751 15.8235 20.513 15.8223 20.5511Z" fill="#51B84A"/>
<path d="M13.5289 20.5422C13.529 20.617 13.5005 20.6891 13.4493 20.7436C13.3981 20.7981 13.328 20.831 13.2533 20.8356C13.1747 20.8332 13.1001 20.8004 13.0453 20.744C12.9905 20.6875 12.9599 20.612 12.96 20.5333C12.9599 20.4547 12.9905 20.3791 13.0453 20.3227C13.1001 20.2663 13.1747 20.2334 13.2533 20.2311C13.2914 20.2311 13.3291 20.2387 13.3642 20.2536C13.3993 20.2684 13.4311 20.2902 13.4576 20.3175C13.4842 20.3449 13.5049 20.3773 13.5187 20.4129C13.5325 20.4484 13.5389 20.4863 13.5377 20.5244L13.5289 20.5422Z" fill="#51B84A"/>
<path d="M12.1423 20.8178V20.5955C12.1955 20.5894 12.2492 20.5894 12.3023 20.5955C12.3154 20.6137 12.3224 20.6354 12.3224 20.6578C12.3224 20.6801 12.3154 20.7019 12.3023 20.72C12.3201 20.8444 12.2401 20.8178 12.1423 20.8178Z" fill="#5DBA4F"/>
<path d="M12.1512 20.4444V20.2667C12.1862 20.2572 12.223 20.2572 12.2579 20.2667C12.2687 20.2807 12.2746 20.2979 12.2746 20.3156C12.2746 20.3332 12.2687 20.3504 12.2579 20.3644C12.2254 20.3989 12.186 20.4262 12.1423 20.4444H12.1512Z" fill="#60BB50"/>
<path d="M19.9911 20.6311H19.76L19.8756 20.3378L19.9911 20.6311Z" fill="#60BB50"/>
<path d="M17.1823 12.5956C17.183 12.4067 17.1468 12.2194 17.0757 12.0444C17.0584 12.0098 17.0303 11.9817 16.9957 11.9644C16.607 11.8201 16.1893 11.7714 15.7779 11.8222C15.5179 11.8567 15.2598 11.9042 15.0045 11.9644C14.9646 11.9815 14.9327 12.0134 14.9157 12.0533C14.7475 12.4859 14.6808 12.9512 14.7209 13.4136C14.761 13.8759 14.9067 14.3229 15.1468 14.72V14.7733C14.9987 14.7283 14.8532 14.6749 14.7112 14.6133C14.7112 14.6133 14.6579 14.5333 14.6312 14.4889C14.4323 14.0725 14.3291 13.617 14.3291 13.1556C14.3291 12.6941 14.4323 12.2386 14.6312 11.8222C14.6412 11.7953 14.6579 11.7714 14.6796 11.7528C14.7014 11.7341 14.7276 11.7213 14.7557 11.7156C15.5623 11.4046 16.4557 11.4046 17.2623 11.7156C17.3057 11.7384 17.3425 11.7721 17.369 11.8133C17.4829 12.0657 17.5492 12.3369 17.5645 12.6133C17.5645 12.7289 17.5645 12.8533 17.5645 12.9778H15.6445C15.6445 12.8711 15.6445 12.7733 15.6445 12.6756C15.6445 12.5778 15.6445 12.5867 15.7423 12.5956H17.1557H17.1823Z" fill="#EA2627"/>
<path d="M15.4934 12.1422C15.3703 12.5265 15.325 12.9314 15.36 13.3333H17.6267C17.6267 13.5022 17.6267 13.6711 17.5645 13.8222C17.5279 14.0873 17.4592 14.347 17.36 14.5956C17.3502 14.621 17.3347 14.6439 17.3147 14.6624C17.2947 14.6809 17.2706 14.6945 17.2445 14.7022C16.7074 14.899 16.128 14.9511 15.5645 14.8533C15.5249 14.8411 15.4905 14.8161 15.4667 14.7822C15.2434 14.4258 15.0965 14.0268 15.0353 13.6106C14.9741 13.1945 14.9999 12.7701 15.1111 12.3644C15.1111 12.2756 15.1645 12.2222 15.2623 12.2133L15.4934 12.1422ZM15.3956 13.7067C15.4845 13.9467 15.5734 14.1689 15.6623 14.3911C15.6698 14.4186 15.686 14.4429 15.7084 14.4605C15.7308 14.4781 15.7582 14.488 15.7867 14.4889C16.1528 14.5629 16.5316 14.5446 16.8889 14.4356C16.9426 14.426 16.9918 14.3991 17.0287 14.359C17.0656 14.3188 17.0884 14.2677 17.0934 14.2133C17.11 14.144 17.1308 14.0757 17.1556 14.0089L17.2089 13.7067H15.3956Z" fill="#EA2527"/>
</g>
<defs>
<clipPath id="clip0_2707_291273">
<rect width="32" height="32" fill="white"/>
</clipPath>
</defs>
</svg>
