<svg width="32" height="32" viewBox="0 0 32 32" fill="none" xmlns="http://www.w3.org/2000/svg">
<g clip-path="url(#clip0_2707_291093)">
<path d="M16 31.9822C24.8268 31.9822 31.9823 24.8267 31.9823 16C31.9823 7.17326 24.8268 0.0177765 16 0.0177765C7.17331 0.0177765 0.0178223 7.17326 0.0178223 16C0.0178223 24.8267 7.17331 31.9822 16 31.9822Z" fill="white"/>
<path d="M19.3689 18.6667C19.4667 18.6044 19.5645 18.4889 19.6622 18.4711C19.8049 18.4738 19.9432 18.422 20.0489 18.3262C20.1547 18.2303 20.2198 18.0978 20.2311 17.9556C20.4356 16.88 20.64 15.7956 20.8356 14.72C20.8889 14.3911 20.8978 14.0622 20.4267 14.0089C20.4267 14.0089 20.3645 13.9111 20.3733 13.8667C20.3936 13.8164 20.4316 13.7753 20.48 13.7511C20.5181 13.7427 20.5575 13.7427 20.5956 13.7511C21.6445 13.7511 22.6845 13.7511 23.7245 13.7511C23.8815 13.7382 24.0393 13.7628 24.185 13.8228C24.3307 13.8829 24.46 13.9766 24.5624 14.0963C24.6648 14.2161 24.7373 14.3584 24.774 14.5117C24.8107 14.6649 24.8104 14.8246 24.7733 14.9778C24.7381 15.167 24.6539 15.3437 24.5291 15.4903C24.4044 15.6369 24.2434 15.7483 24.0622 15.8133C23.8199 15.9221 23.5705 16.0142 23.3156 16.0889L23.8845 16.2756C24.0332 16.2895 24.176 16.3407 24.2996 16.4245C24.4233 16.5082 24.5239 16.6217 24.5921 16.7546C24.6604 16.8875 24.694 17.0354 24.6899 17.1847C24.6859 17.334 24.6442 17.4799 24.5689 17.6089C24.464 17.8683 24.2923 18.0953 24.0711 18.2667C23.6383 18.5989 23.1055 18.7744 22.56 18.7644C21.52 18.7644 20.48 18.7644 19.44 18.7644L19.3689 18.6667ZM21.5378 18.1067C21.681 18.2159 21.8522 18.2822 22.0316 18.298C22.211 18.3137 22.3911 18.2782 22.5511 18.1956C22.7827 18.1277 22.9825 17.9794 23.1145 17.7773C23.2465 17.5752 23.302 17.3327 23.2711 17.0933C23.2178 16.6489 22.8978 16.4089 22.32 16.3644C21.9289 16.3644 21.8222 16.4267 21.7511 16.8C21.68 17.1733 21.6089 17.6889 21.5378 18.1244V18.1067ZM21.9378 15.8667C22.6045 15.9467 22.8267 15.9111 23.12 15.7156C23.2814 15.6103 23.4043 15.4554 23.47 15.2742C23.5357 15.093 23.5408 14.8954 23.4845 14.7111C23.4093 14.5421 23.2833 14.4007 23.1239 14.3067C22.9646 14.2127 22.7799 14.1707 22.5956 14.1867C22.5415 14.1765 22.4858 14.1779 22.4323 14.1907C22.3788 14.2035 22.3286 14.2275 22.2849 14.2611C22.2413 14.2946 22.2052 14.337 22.1791 14.3855C22.153 14.4339 22.1374 14.4873 22.1333 14.5422C22.0533 14.9689 21.9822 15.4311 21.9022 15.8756L21.9378 15.8667Z" fill="#104EA3"/>
<path d="M17.1201 18.8267L14.4535 18.7022C14.4491 18.6668 14.4491 18.631 14.4535 18.5956C15.1468 18.4 15.1468 18.3911 15.289 17.6444C15.4846 16.6578 15.6713 15.68 15.8579 14.7022C15.9379 14.2933 15.8579 14.24 15.4668 14.0533C15.4075 14.0131 15.3537 13.9653 15.3068 13.9111C15.369 13.8578 15.4401 13.76 15.5113 13.76C16.5513 13.76 17.6001 13.7067 18.6401 13.76C18.8753 13.7579 19.1064 13.8216 19.3073 13.9438C19.5082 14.066 19.671 14.242 19.7773 14.4517C19.8835 14.6615 19.9291 14.8968 19.9088 15.1311C19.8885 15.3654 19.8031 15.5894 19.6624 15.7778C19.4998 16.0578 19.2682 16.2914 18.9897 16.4563C18.7111 16.6213 18.3949 16.7121 18.0713 16.72C17.7335 16.72 17.3868 16.72 17.049 16.72C16.8713 16.72 16.729 16.72 16.6935 16.9511L16.5601 17.9022C16.5157 18.2311 16.6224 18.4533 16.9868 18.4889C17.0579 18.4889 17.1113 18.5778 17.1824 18.6311L17.1201 18.8267ZM16.889 16.2133C17.0485 16.2817 17.2208 16.3149 17.3942 16.3108C17.5676 16.3066 17.7381 16.2652 17.8942 16.1893C18.0502 16.1134 18.188 16.0048 18.2983 15.8709C18.4086 15.737 18.4888 15.581 18.5335 15.4133C18.5956 15.2598 18.6136 15.092 18.5855 14.9287C18.5573 14.7655 18.4841 14.6134 18.3742 14.4896C18.2642 14.3657 18.1218 14.2751 17.963 14.2278C17.8043 14.1806 17.6355 14.1787 17.4757 14.2222C17.3938 14.2221 17.315 14.2534 17.2555 14.3096C17.196 14.3658 17.1602 14.4427 17.1557 14.5244C17.0668 15.1111 16.9513 15.6533 16.889 16.2133Z" fill="#104EA3"/>
<path d="M26.5957 19.0311L25.3513 18.7733C25.1113 18.7289 25.0313 18.5956 25.0935 18.3378C25.1557 18.08 25.1646 17.7067 25.2357 17.3956C25.2357 17.3067 25.3779 17.2444 25.4579 17.1644C25.5024 17.2444 25.5824 17.3156 25.5913 17.3956C25.6337 17.6056 25.7258 17.8024 25.8598 17.9695C25.9939 18.1367 26.166 18.2693 26.3618 18.3563C26.5576 18.4433 26.7714 18.4822 26.9852 18.4697C27.1991 18.4572 27.4069 18.3937 27.5913 18.2844C27.6987 18.2372 27.7909 18.1608 27.8574 18.064C27.9239 17.9672 27.962 17.8538 27.9676 17.7365C27.9731 17.6192 27.9458 17.5027 27.8888 17.4001C27.8317 17.2974 27.7471 17.2128 27.6446 17.1556C27.4093 17.0061 27.1626 16.8753 26.9068 16.7644C26.6935 16.6489 26.4624 16.56 26.249 16.4533C26.0504 16.3538 25.8798 16.2062 25.7528 16.0239C25.6257 15.8417 25.5462 15.6306 25.5215 15.4098C25.4967 15.189 25.5276 14.9655 25.6112 14.7597C25.6948 14.5538 25.8285 14.3721 26.0001 14.2311C26.4499 13.8222 27.0367 13.597 27.6446 13.6C28.143 13.621 28.6377 13.6955 29.1201 13.8222C29.1762 13.8522 29.2241 13.8954 29.2598 13.948C29.2954 14.0007 29.3176 14.0612 29.3246 14.1244C29.2697 14.4252 29.1955 14.7221 29.1024 15.0133C29.098 15.0479 29.0811 15.0797 29.0549 15.1026C29.0287 15.1255 28.995 15.138 28.9601 15.1378C28.9216 15.1355 28.8854 15.1186 28.859 15.0905C28.8325 15.0624 28.8179 15.0252 28.8179 14.9867C28.8161 14.8131 28.7592 14.6447 28.6553 14.5057C28.5514 14.3666 28.406 14.2643 28.2401 14.2133C28.0684 14.13 27.88 14.0867 27.689 14.0867C27.4981 14.0867 27.3097 14.13 27.1379 14.2133C26.5957 14.4978 26.5424 15.0044 27.0401 15.3511C27.2713 15.5111 27.5379 15.6178 27.7779 15.7511C28.0653 15.8952 28.3443 16.0554 28.6135 16.2311C28.7787 16.3233 28.9193 16.4538 29.0236 16.6117C29.1279 16.7695 29.1927 16.9501 29.2128 17.1382C29.2328 17.3263 29.2074 17.5165 29.1387 17.6927C29.07 17.869 28.96 18.0262 28.8179 18.1511C28.5362 18.4537 28.1905 18.6897 27.8061 18.8419C27.4217 18.9941 27.0082 19.0588 26.5957 19.0311Z" fill="#104EA3"/>
<path d="M13.7511 17.9022L8.34669 20.6933L4.88892 18.8089C5.04892 18.7111 7.28892 17.5111 8.2578 17.0311L10.1778 16C10.5867 16.2222 12.9689 17.4756 13.7511 17.9022Z" fill="#104EA3"/>
<path d="M2.80005 14.2222C2.88894 14.1244 6.79116 12.0444 8.22227 11.3067L11.7778 13.0844C11.7156 13.1378 8.22227 15.0044 8.22227 15.0044L6.22227 15.9467C5.74227 15.7067 3.44005 14.5511 2.80005 14.2222Z" fill="#104EA3"/>
<path d="M8.24902 14.9778C8.24902 14.9778 11.7157 13.1111 11.8046 13.0578L13.8935 14.16C13.8935 15.4222 13.8135 16.6667 13.7779 17.9111C12.9957 17.4844 10.6135 16.2222 10.2224 16.0267L8.24902 14.9778Z" fill="#BBBCBF"/>
<path d="M2.80008 14.2222C3.44897 14.56 5.75119 15.7067 6.24897 15.9467C6.89628 16.3454 7.56714 16.7046 8.25786 17.0222C7.28897 17.52 5.04897 18.7111 4.88897 18.8L2.66675 17.7156C2.66675 16.6044 2.75564 14.2933 2.80008 14.2222Z" fill="#BBBCBF"/>
</g>
<defs>
<clipPath id="clip0_2707_291093">
<rect width="32" height="32" fill="white"/>
</clipPath>
</defs>
</svg>
