<svg width="32" height="32" viewBox="0 0 32 32" fill="none" xmlns="http://www.w3.org/2000/svg">
<g clip-path="url(#clip0_2707_290948)">
<path d="M16 31.9822C24.8268 31.9822 31.9823 24.8267 31.9823 16C31.9823 7.17326 24.8268 0.0177777 16 0.0177777C7.17331 0.0177777 0.0178223 7.17326 0.0178223 16C0.0178223 24.8267 7.17331 31.9822 16 31.9822Z" fill="white"/>
<path d="M23.7157 15.8133C23.7419 16.533 23.9597 17.2327 24.3468 17.84L24.1424 18.4178C24.1424 18.4178 24.1868 19.0222 24.5601 18.6133C24.6338 18.5241 24.6812 18.4162 24.6969 18.3015C24.7126 18.1869 24.696 18.0702 24.649 17.9644C24.8906 17.8625 25.1044 17.7045 25.2729 17.5036C25.4414 17.3026 25.5596 17.0645 25.6179 16.8089C25.6857 16.4969 25.6641 16.172 25.5556 15.8717C25.4471 15.5714 25.2561 15.3078 25.0046 15.1111L26.009 13.4578C26.6923 14.2289 27.0907 15.2108 27.1379 16.24C27.2133 17.1142 27.0802 17.9939 26.7495 18.8067C26.4188 19.6195 25.9 20.3422 25.2357 20.9156C25.014 21.1326 24.7589 21.3127 24.4801 21.4489C23.9492 20.8752 23.5756 20.174 23.3957 19.4133C23.1889 18.2206 23.2993 16.9944 23.7157 15.8578" fill="#F7931D"/>
<path d="M8.66671 15.8133C8.62989 16.5364 8.39965 17.2363 8.00004 17.84L8.20449 18.4178C8.20449 18.4178 8.20449 19.0222 7.78671 18.6133C7.71303 18.5241 7.66568 18.4162 7.64998 18.3015C7.63428 18.1869 7.65085 18.0702 7.69782 17.9644C7.45626 17.8625 7.24242 17.7045 7.07396 17.5036C6.90549 17.3026 6.78723 17.0645 6.72893 16.8089C6.66508 16.4935 6.69217 16.1664 6.80705 15.8659C6.92194 15.5653 7.11988 15.3035 7.37782 15.1111L6.37338 13.4311C5.69012 14.2022 5.2917 15.1842 5.24449 16.2133C5.1648 17.0847 5.29238 17.9625 5.6168 18.7751C5.94123 19.5877 6.45329 20.312 7.11115 20.8889C7.33283 21.106 7.58793 21.286 7.86671 21.4222C8.39764 20.8485 8.77121 20.1473 8.95115 19.3867C9.15792 18.1939 9.04757 16.9678 8.63115 15.8311" fill="#F7931D"/>
<path d="M17.2177 21.8756C17.1729 21.8756 17.13 21.8933 17.0983 21.925C17.0666 21.9567 17.0488 21.9997 17.0488 22.0444C17.0488 22.0892 17.0666 22.1322 17.0983 22.1639C17.13 22.1955 17.1729 22.2133 17.2177 22.2133C17.2625 22.2133 17.3055 22.1955 17.3371 22.1639C17.3688 22.1322 17.3866 22.0892 17.3866 22.0444C17.3866 21.9997 17.3688 21.9567 17.3371 21.925C17.3055 21.8933 17.2625 21.8756 17.2177 21.8756Z" fill="#F7931D"/>
<path d="M14.8178 22.2222C14.8626 22.2222 14.9056 22.2044 14.9372 22.1728C14.9689 22.1411 14.9867 22.0981 14.9867 22.0533C14.9867 22.0085 14.9689 21.9656 14.9372 21.9339C14.9056 21.9022 14.8626 21.8844 14.8178 21.8844C14.773 21.8844 14.7301 21.9022 14.6984 21.9339C14.6667 21.9656 14.6489 22.0085 14.6489 22.0533C14.6489 22.0981 14.6667 22.1411 14.6984 22.1728C14.7301 22.2044 14.773 22.2222 14.8178 22.2222Z" fill="#F7931D"/>
<path d="M21.6799 23.5111C21.2266 23.6225 20.7595 23.6674 20.2933 23.6444C19.309 23.5874 18.3356 23.4082 17.3955 23.1111C16.5511 22.7467 16.2044 22.4711 16.0622 22C16.5598 21.8242 17.0814 21.7252 17.6088 21.7067C18.2235 21.7862 18.811 22.0084 19.3244 22.3556L20.7466 23.2444C20.7466 23.2444 21.6355 23.5911 21.5111 23.1467C21.4383 23.0186 21.332 22.9129 21.2035 22.8408C21.0751 22.7687 20.9294 22.7331 20.7822 22.7378L20.5866 22.6933L20.9955 22.3467C20.9955 22.3467 21.6799 22.1067 21.7955 22.6933C21.7955 22.6933 21.9733 23.3156 21.6799 23.4756M14.6399 23.1111C13.6995 23.4052 12.7261 23.5814 11.7422 23.6356C11.2759 23.6585 10.8088 23.6136 10.3555 23.5022C10.0622 23.3422 10.2399 22.72 10.2399 22.72C10.3555 22.1333 11.0399 22.3733 11.0399 22.3733L11.4488 22.72L11.2533 22.7644C11.1074 22.7604 10.9632 22.7964 10.8363 22.8685C10.7094 22.9406 10.6046 23.046 10.5333 23.1733C10.3911 23.6178 11.2888 23.2711 11.2888 23.2711L12.7111 22.3822C13.2286 22.0367 13.8186 21.8147 14.4355 21.7333C14.9601 21.7516 15.4788 21.8505 15.9733 22.0267C15.8311 22.4978 15.4933 22.7733 14.6399 23.1378M15.8311 19.0222C15.8311 19.0222 10.9599 19.0222 8.02661 22.7289C8.02661 22.7289 10.4533 26.4 16.2222 26.4C17.7616 26.4673 19.2951 26.1699 20.6978 25.5319C22.1004 24.8939 23.3324 23.9335 24.2933 22.7289C23.3128 21.4441 22.0217 20.4299 20.5414 19.7814C19.0611 19.133 17.4402 18.8718 15.8311 19.0222Z" fill="#F7931D"/>
<path d="M3.44897 12.8622L3.51119 12.7733C3.5516 12.7285 3.5846 12.6775 3.60897 12.6222C3.61755 12.6074 3.62207 12.5905 3.62207 12.5733C3.62207 12.5562 3.61755 12.5393 3.60897 12.5244C3.60038 12.4927 3.58165 12.4646 3.55564 12.4444C3.52996 12.4296 3.50084 12.4218 3.47119 12.4218C3.44155 12.4218 3.41242 12.4296 3.38675 12.4444C3.32243 12.4817 3.26766 12.5335 3.22675 12.5956L3.16453 12.6756L3.44897 12.8622ZM2.66675 12.6844L2.90675 12.4444C2.99065 12.3276 3.09628 12.228 3.21786 12.1511C3.29751 12.102 3.39212 12.0831 3.48453 12.0978C3.59089 12.1155 3.69031 12.1623 3.77185 12.2328C3.85339 12.3034 3.91391 12.3951 3.94675 12.4978C3.97663 12.5993 3.97663 12.7073 3.94675 12.8089C3.89248 12.9184 3.82372 13.02 3.7423 13.1111L4.33786 13.5911L4.12453 13.8578L2.66675 12.6844Z" fill="#58595B"/>
<path d="M3.90234 11.9378L4.08901 11.7244L4.21345 11.84C4.1969 11.7759 4.1969 11.7086 4.21345 11.6444C4.22227 11.5857 4.24684 11.5304 4.28457 11.4844C4.31705 11.45 4.35642 11.4227 4.40012 11.4044L4.55123 11.6711L4.46234 11.7244C4.44834 11.7504 4.44101 11.7794 4.44101 11.8089C4.44101 11.8384 4.44834 11.8674 4.46234 11.8933C4.5262 12.0033 4.61072 12.0999 4.71123 12.1778V12.2222L5.12012 12.5867L4.8979 12.8267L3.90234 11.9378Z" fill="#58595B"/>
<path d="M4.48904 11.2889L4.72015 11.0489L5.68904 11.9378L5.45793 12.1778L4.48904 11.2889ZM4.2046 10.7911C4.22336 10.7693 4.24652 10.7517 4.27256 10.7394C4.2986 10.7272 4.32693 10.7205 4.35571 10.72C4.41458 10.7218 4.47105 10.7438 4.51571 10.7822C4.55199 10.8242 4.57195 10.8778 4.57195 10.9333C4.57195 10.9888 4.55199 11.0425 4.51571 11.0844C4.4765 11.1269 4.4223 11.1524 4.3646 11.1556C4.30572 11.1537 4.24925 11.1317 4.2046 11.0933C4.18439 11.0738 4.16844 11.0503 4.15773 11.0243C4.14702 10.9983 4.1418 10.9703 4.14237 10.9422C4.13949 10.9147 4.14277 10.8868 4.152 10.8607C4.16122 10.8345 4.17615 10.8108 4.19571 10.7911" fill="#58595B"/>
<path d="M4.95996 10.7733L5.20885 10.5511L5.33329 10.6667C5.31441 10.5878 5.31441 10.5056 5.33329 10.4267C5.361 10.354 5.40692 10.2898 5.46663 10.24C5.52103 10.1827 5.59297 10.1452 5.67107 10.1333C5.75259 10.1114 5.83844 10.1114 5.91996 10.1333C5.89774 10.0488 5.89774 9.96004 5.91996 9.87555C5.95122 9.79015 6.00314 9.7138 6.07107 9.65333C6.1322 9.59697 6.2074 9.55813 6.28875 9.54093C6.37009 9.52372 6.45458 9.52877 6.53329 9.55555C6.63673 9.614 6.72741 9.69258 6.79996 9.78667L7.32441 10.3644L7.11107 10.6044L6.65774 10.1067C6.59517 10.0211 6.50852 9.9561 6.40885 9.92C6.37718 9.91165 6.34382 9.91221 6.31245 9.92162C6.28108 9.93104 6.25292 9.94893 6.23107 9.97333C6.18661 10.0083 6.15784 10.0594 6.15107 10.1156C6.13339 10.1705 6.13339 10.2295 6.15107 10.2844C6.19531 10.3669 6.25231 10.4419 6.31996 10.5067L6.72885 10.9511L6.47107 11.1822L6.05329 10.6667C5.99869 10.5992 5.93246 10.542 5.85774 10.4978C5.83699 10.4876 5.81419 10.4823 5.79107 10.4823C5.76796 10.4823 5.74515 10.4876 5.72441 10.4978C5.67751 10.4984 5.63278 10.5176 5.59996 10.5511C5.55998 10.5897 5.53217 10.6391 5.51996 10.6933C5.50737 10.7489 5.50737 10.8066 5.51996 10.8622C5.5634 10.9479 5.62044 11.0259 5.68885 11.0933L6.08885 11.5378L5.83996 11.76L4.95996 10.7733Z" fill="#58595B"/>
<path d="M7.47565 8.98667C7.43622 9.01423 7.40313 9.04991 7.3786 9.0913C7.35408 9.13269 7.33867 9.17884 7.33343 9.22667C7.32436 9.3295 7.35631 9.43174 7.42232 9.51111C7.44939 9.55535 7.4856 9.5933 7.52852 9.62243C7.57145 9.65155 7.62009 9.67118 7.6712 9.68C7.71928 9.68884 7.76866 9.68768 7.81627 9.67658C7.86388 9.66547 7.90868 9.64468 7.94789 9.61548C7.98709 9.58628 8.01986 9.54932 8.04413 9.50689C8.06841 9.46446 8.08368 9.41748 8.08898 9.36889C8.10264 9.26117 8.07557 9.15224 8.01309 9.06345C7.9506 8.97466 7.8572 8.9124 7.75121 8.88889C7.70285 8.88113 7.65342 8.88344 7.606 8.89567C7.55859 8.90791 7.51421 8.92981 7.47565 8.96M7.5912 8.52444L7.86676 8.32889L8.65787 9.40444L8.3912 9.6L8.30232 9.48444C8.29492 9.56558 8.2707 9.64429 8.2312 9.71555C8.18811 9.77532 8.1373 9.82912 8.08009 9.87555C8.01159 9.92496 7.93337 9.95922 7.85061 9.97608C7.76786 9.99294 7.68246 9.992 7.60009 9.97333C7.51055 9.95866 7.42495 9.92586 7.34853 9.87695C7.27211 9.82804 7.20648 9.76405 7.15565 9.68889C7.0383 9.54385 6.98104 9.35933 6.99565 9.17333C7.00257 9.08913 7.0276 9.00741 7.06902 8.93377C7.11044 8.86013 7.16728 8.79631 7.23565 8.74667C7.29724 8.70183 7.36653 8.66869 7.44009 8.64889C7.51909 8.63096 7.6011 8.63096 7.68009 8.64889L7.5912 8.52444Z" fill="#58595B"/>
<path d="M10.2935 6.78222L10.1868 7.11111C9.99031 7.0306 9.77001 7.0306 9.57349 7.11111C9.50148 7.1488 9.43768 7.20043 9.3858 7.263C9.33391 7.32556 9.29498 7.39781 9.27127 7.47556C9.24556 7.55286 9.23623 7.63468 9.24388 7.71579C9.25154 7.7969 9.276 7.87553 9.31571 7.94667C9.36781 8.0469 9.44422 8.13248 9.53793 8.19556C9.62574 8.25146 9.7272 8.28221 9.83127 8.28444C9.943 8.28539 10.0531 8.25786 10.1513 8.20444C10.2363 8.16036 10.3118 8.09995 10.3735 8.02667C10.4365 7.93402 10.4845 7.83203 10.5157 7.72444L10.8357 7.83111C10.7931 7.98148 10.7239 8.12298 10.6313 8.24889C10.5369 8.35035 10.4256 8.43457 10.3024 8.49778C10.1944 8.56624 10.0729 8.61061 9.94623 8.62784C9.81955 8.64508 9.69063 8.63479 9.56828 8.59766C9.44594 8.56053 9.33304 8.49745 9.2373 8.41272C9.14155 8.32798 9.06521 8.22359 9.01349 8.10667C8.92732 7.96171 8.88416 7.79523 8.88905 7.62667C8.89547 7.46154 8.9478 7.30148 9.04016 7.16444C9.13533 7.02321 9.26347 6.90728 9.41349 6.82667C9.54558 6.75749 9.69121 6.71805 9.84016 6.71111C9.99165 6.70347 10.1431 6.7277 10.2846 6.78222" fill="#58595B"/>
<path d="M11.4135 6.81778C11.3679 6.83216 11.326 6.85631 11.2906 6.88855C11.2553 6.92079 11.2275 6.96034 11.209 7.00444C11.1868 7.05173 11.1753 7.10332 11.1753 7.15556C11.1753 7.20779 11.1868 7.25938 11.209 7.30667C11.2231 7.35695 11.2479 7.40361 11.2817 7.44349C11.3154 7.48336 11.3573 7.51552 11.4046 7.53778C11.4478 7.55771 11.4948 7.56803 11.5423 7.56803C11.5899 7.56803 11.6369 7.55771 11.6801 7.53778C11.7274 7.52196 11.7708 7.49638 11.8076 7.46269C11.8443 7.429 11.8736 7.38795 11.8935 7.34222C11.9288 7.24457 11.9288 7.13765 11.8935 7.04C11.8587 6.94165 11.7891 6.85943 11.6979 6.80889C11.653 6.78931 11.6046 6.7792 11.5557 6.7792C11.5067 6.7792 11.4583 6.78931 11.4135 6.80889M11.6535 6.42667L11.9646 6.31111L12.4446 7.58222L12.1335 7.68889L12.0801 7.55555C12.053 7.63102 12.0072 7.69833 11.9468 7.75111C11.8938 7.80281 11.83 7.84225 11.7601 7.86667C11.6829 7.89968 11.5997 7.91669 11.5157 7.91669C11.4317 7.91669 11.3485 7.89968 11.2712 7.86667C11.1051 7.7804 10.978 7.63424 10.9157 7.45778C10.8533 7.28242 10.8533 7.09091 10.9157 6.91556C10.9481 6.83753 10.9964 6.76716 11.0577 6.70899C11.1189 6.65081 11.1917 6.60611 11.2712 6.57778C11.3443 6.56039 11.4204 6.56039 11.4935 6.57778C11.5743 6.58043 11.6534 6.60172 11.7246 6.64L11.6535 6.42667Z" fill="#58595B"/>
<path d="M12.311 5.68889L12.6399 5.61778L12.8621 6.66667L13.2266 6.02667L13.6355 5.93778L13.2088 6.68444L13.991 7.22667L13.5821 7.31556L12.8977 6.82667L13.0221 7.43111L12.7021 7.50222L12.311 5.68889Z" fill="#58595B"/>
<path d="M13.8667 5.92H14.1511V6.08889C14.1717 6.02697 14.2086 5.97171 14.2578 5.92889C14.3027 5.88945 14.3585 5.86464 14.4178 5.85778C14.4648 5.84909 14.513 5.84909 14.56 5.85778L14.4889 6.16C14.4572 6.14916 14.4228 6.14916 14.3911 6.16C14.3378 6.16 14.2934 6.16 14.2667 6.26667C14.2372 6.39236 14.2372 6.52319 14.2667 6.64889V6.71111L14.3289 7.24444H14L13.8667 5.92Z" fill="#58595B"/>
<path d="M15.4934 6.10667C15.4444 6.10134 15.3949 6.10739 15.3486 6.12435C15.3024 6.14131 15.2607 6.16872 15.2267 6.20444C15.1893 6.24161 15.1597 6.28597 15.1399 6.33485C15.12 6.38374 15.1103 6.43613 15.1112 6.48889C15.1082 6.59243 15.1429 6.69353 15.209 6.77333C15.243 6.80855 15.2837 6.83656 15.3287 6.85569C15.3738 6.87482 15.4222 6.88468 15.4712 6.88468C15.5201 6.88468 15.5686 6.87482 15.6136 6.85569C15.6587 6.83656 15.6994 6.80855 15.7334 6.77333C15.7701 6.73605 15.7986 6.69145 15.817 6.64245C15.8354 6.59345 15.8432 6.54113 15.8401 6.48889C15.8454 6.39194 15.8136 6.29659 15.7512 6.22222C15.7176 6.18798 15.6775 6.16088 15.6332 6.14255C15.5889 6.12422 15.5413 6.11504 15.4934 6.11556M15.849 5.84H16.1867V7.17333H15.8223V7.03111C15.7683 7.08794 15.7011 7.13067 15.6267 7.15556C15.5562 7.16802 15.484 7.16802 15.4134 7.15556C15.3287 7.15215 15.2456 7.13147 15.1692 7.09478C15.0927 7.0581 15.0246 7.00618 14.969 6.94222C14.907 6.87575 14.8592 6.79731 14.8286 6.7117C14.7981 6.6261 14.7853 6.53515 14.7912 6.44444C14.7863 6.35175 14.8004 6.25903 14.8324 6.17192C14.8645 6.08482 14.914 6.00516 14.9779 5.93778C15.0343 5.87432 15.1045 5.82454 15.183 5.7922C15.2615 5.75986 15.3464 5.74581 15.4312 5.75111C15.5074 5.7522 15.5827 5.76726 15.6534 5.79556C15.7247 5.82969 15.7882 5.8781 15.8401 5.93778L15.849 5.84Z" fill="#58595B"/>
<path d="M16.4534 5.76H16.7823L17.0223 6.53333L17.3423 5.77778H17.5378L17.7956 6.54222L18.0978 5.79556H18.4267L17.8934 7.11111H17.68L17.4223 6.33778L17.1023 7.11111H16.8889L16.4534 5.76Z" fill="#58595B"/>
<path d="M19.3156 6.22222C19.268 6.21147 19.2185 6.21148 19.1708 6.22224C19.1232 6.233 19.0785 6.25425 19.0401 6.28444C18.9597 6.3526 18.9061 6.44712 18.889 6.55111C18.8785 6.60165 18.8786 6.65381 18.8893 6.7043C18.9 6.75479 18.9211 6.80251 18.9512 6.84444C18.9743 6.88667 19.0075 6.92254 19.0479 6.9489C19.0882 6.97525 19.1343 6.99127 19.1823 6.99556C19.23 7.00631 19.2794 7.0063 19.3271 6.99554C19.3748 6.98477 19.4194 6.96352 19.4579 6.93333C19.5287 6.86827 19.5766 6.78198 19.5942 6.68741C19.6118 6.59285 19.5983 6.49511 19.5556 6.40889C19.5324 6.36158 19.4988 6.32019 19.4572 6.28784C19.4156 6.2555 19.3672 6.23305 19.3156 6.22222ZM19.7067 6.00889L20.0356 6.06222L19.8134 7.38667L19.4845 7.32444V7.19111C19.415 7.23315 19.3403 7.26602 19.2623 7.28889C19.1923 7.30657 19.119 7.30657 19.049 7.28889C18.9655 7.27697 18.8856 7.24693 18.815 7.20086C18.7443 7.15479 18.6846 7.09382 18.6401 7.02222C18.5875 6.94668 18.5509 6.8612 18.5326 6.77101C18.5143 6.68083 18.5145 6.58785 18.5334 6.49778C18.5576 6.31203 18.6533 6.14304 18.8001 6.02667C18.8657 5.97437 18.9414 5.93629 19.0225 5.91487C19.1036 5.89344 19.1883 5.88914 19.2712 5.90222C19.4248 5.93543 19.5609 6.02402 19.6534 6.15111L19.7067 6.00889Z" fill="#58595B"/>
<path fill-rule="evenodd" clip-rule="evenodd" d="M20.4444 7.57333L20.1155 7.49333L20.5777 5.71556L20.8977 5.79556L20.4444 7.57333Z" fill="#58595B"/>
<path d="M21.6089 6.84444C21.5657 6.82452 21.5187 6.81419 21.4711 6.81419C21.4235 6.81419 21.3765 6.82452 21.3333 6.84444C21.2421 6.89499 21.1725 6.9772 21.1378 7.07556C21.1177 7.12341 21.1074 7.17478 21.1074 7.22667C21.1074 7.27855 21.1177 7.32992 21.1378 7.37778C21.1546 7.42386 21.1818 7.46547 21.2172 7.49938C21.2527 7.53328 21.2954 7.55859 21.3422 7.57333C21.4337 7.60903 21.5352 7.60903 21.6267 7.57333C21.7166 7.51713 21.7853 7.43274 21.8222 7.33333C21.8423 7.28548 21.8526 7.23411 21.8526 7.18222C21.8526 7.13034 21.8423 7.07897 21.8222 7.03111C21.7784 6.94326 21.7018 6.8762 21.6089 6.84444ZM22.0356 6.70222L22.3467 6.80889L21.9111 8.07111L21.5911 8L21.6356 7.86667C21.563 7.90024 21.4843 7.9184 21.4044 7.92C21.3344 7.93732 21.2612 7.93732 21.1911 7.92C21.1123 7.89027 21.0403 7.84507 20.9792 7.78706C20.9181 7.72905 20.8693 7.6594 20.8356 7.58222C20.8004 7.49773 20.7822 7.40709 20.7822 7.31556C20.7822 7.22402 20.8004 7.13339 20.8356 7.04889C20.8603 6.95985 20.903 6.87684 20.9611 6.80498C21.0192 6.73312 21.0915 6.67394 21.1733 6.63111C21.2485 6.59613 21.3304 6.57801 21.4133 6.57801C21.4963 6.57801 21.5782 6.59613 21.6533 6.63111C21.7291 6.65855 21.7986 6.70086 21.8578 6.75556C21.9141 6.8084 21.9594 6.87183 21.9911 6.94222L22.0356 6.70222Z" fill="#58595B"/>
<path d="M24.1156 7.70667L23.6 8.12444L24.0089 8.36444L24.1156 7.70667ZM24.2133 7.20889L24.5156 7.38667L24.1956 9.29778L23.8845 9.11111L24 8.72L23.36 8.34667L23.0489 8.59556L22.7378 8.40889L24.2133 7.20889Z" fill="#58595B"/>
<path d="M25.5201 9.00444C25.4853 8.97071 25.4429 8.94583 25.3965 8.93191C25.3501 8.91799 25.301 8.91543 25.2534 8.92444C25.202 8.92942 25.1524 8.94551 25.1079 8.97161C25.0633 8.9977 25.025 9.03317 24.9956 9.07555C24.9602 9.11524 24.9333 9.16171 24.9165 9.21215C24.8997 9.26258 24.8933 9.31592 24.8978 9.36889C24.8995 9.41781 24.9125 9.46568 24.9356 9.50883C24.9587 9.55198 24.9914 9.58925 25.0312 9.61778C25.0692 9.64896 25.1135 9.67149 25.1611 9.68377C25.2087 9.69605 25.2584 9.6978 25.3067 9.68889C25.3578 9.68281 25.407 9.66625 25.4514 9.64025C25.4957 9.61424 25.5343 9.57936 25.5645 9.53778C25.6305 9.45841 25.6625 9.35616 25.6534 9.25333C25.6548 9.20383 25.6432 9.15483 25.6198 9.11118C25.5964 9.06752 25.562 9.03073 25.5201 9.00444ZM25.7778 8.16889L25.3601 8.68444C25.439 8.66621 25.5211 8.66621 25.6001 8.68444C25.6755 8.70381 25.7455 8.74031 25.8045 8.79111C25.8719 8.84034 25.927 8.90445 25.9655 8.97845C26.0041 9.05245 26.025 9.13435 26.0267 9.21778C26.0379 9.40484 25.9776 9.58917 25.8578 9.73333C25.7442 9.87885 25.5785 9.97448 25.3956 10C25.3128 10.0142 25.2278 10.0105 25.1465 9.989C25.0652 9.96753 24.9895 9.92884 24.9245 9.87555C24.8659 9.83338 24.8173 9.77874 24.7823 9.71555C24.7428 9.64429 24.7186 9.56558 24.7112 9.48444L24.6223 9.59111L24.3645 9.38667L25.4845 8L25.7778 8.16889Z" fill="#58595B"/>
<path d="M26.7733 10.1422C26.7397 10.108 26.6996 10.0809 26.6553 10.0626C26.611 10.0442 26.5634 10.035 26.5155 10.0356C26.4641 10.0353 26.4133 10.0454 26.3659 10.0653C26.3186 10.0851 26.2757 10.1143 26.2399 10.1511C26.1643 10.2243 26.117 10.3219 26.1066 10.4267C26.1037 10.4754 26.1109 10.5243 26.1277 10.5702C26.1445 10.6161 26.1706 10.658 26.2044 10.6933C26.2393 10.7282 26.2809 10.7557 26.3268 10.774C26.3726 10.7924 26.4217 10.8012 26.471 10.8C26.5231 10.7996 26.5745 10.7884 26.622 10.7669C26.6694 10.7455 26.7119 10.7144 26.7466 10.6756C26.8217 10.6056 26.869 10.5109 26.8799 10.4089C26.8795 10.3097 26.8414 10.2144 26.7733 10.1422ZM27.2177 10.2044L27.4488 10.4444L26.4888 11.3778L26.2577 11.1289L26.3555 11.0311C26.2763 11.0318 26.1977 11.0167 26.1244 10.9867C26.0567 10.9588 25.996 10.9163 25.9466 10.8622C25.8862 10.8024 25.8397 10.7299 25.8105 10.65C25.7813 10.5701 25.7701 10.4847 25.7777 10.4C25.796 10.217 25.8782 10.0463 26.0099 9.91784C26.1416 9.78941 26.3143 9.7115 26.4977 9.69778C26.5817 9.69263 26.6657 9.70587 26.744 9.73658C26.8223 9.76728 26.893 9.81471 26.951 9.87555C27.0038 9.93286 27.0459 9.99907 27.0755 10.0711C27.0896 10.1505 27.0896 10.2317 27.0755 10.3111L27.2177 10.2044Z" fill="#58595B"/>
<path d="M27.9022 11.4667C27.876 11.4259 27.8407 11.3918 27.7991 11.3671C27.7574 11.3425 27.7105 11.3278 27.6622 11.3244C27.5566 11.3149 27.4514 11.3468 27.3689 11.4133C27.327 11.4421 27.2913 11.4789 27.2638 11.5217C27.2364 11.5644 27.2177 11.6122 27.2089 11.6622C27.2 11.7103 27.2012 11.7597 27.2123 11.8073C27.2234 11.8549 27.2442 11.8997 27.2734 11.9389C27.3026 11.9781 27.3396 12.0109 27.382 12.0352C27.4244 12.0594 27.4714 12.0747 27.52 12.08C27.6255 12.0886 27.7303 12.0568 27.8133 11.9911C27.8959 11.931 27.9529 11.8422 27.9733 11.7422C27.9822 11.6939 27.9805 11.6442 27.9682 11.5966C27.9559 11.549 27.9334 11.5047 27.9022 11.4667ZM28.7911 11.2711L28.9956 11.5378L27.4667 12.6489L27.2711 12.3822L27.3778 12.3022C27.2998 12.288 27.2247 12.2609 27.1556 12.2222C27.0516 12.1591 26.9694 12.0656 26.9202 11.9543C26.8709 11.8431 26.8569 11.7194 26.88 11.6C26.918 11.419 27.0196 11.2576 27.1663 11.1451C27.3131 11.0325 27.4953 10.9763 27.68 10.9867C27.7635 10.9925 27.8448 11.0162 27.9183 11.056C27.9919 11.0959 28.0561 11.151 28.1067 11.2178C28.1552 11.2804 28.1887 11.3534 28.2044 11.4311C28.2269 11.5095 28.2269 11.5927 28.2044 11.6711L28.7911 11.2711Z" fill="#58595B"/>
<path d="M29.3333 12.0089C29.3479 12.0328 29.3576 12.0594 29.3619 12.0871C29.3663 12.1148 29.3651 12.143 29.3585 12.1703C29.3519 12.1975 29.34 12.2232 29.3235 12.2458C29.3069 12.2685 29.2861 12.2876 29.2622 12.3022C29.2108 12.323 29.1535 12.323 29.1022 12.3022C29.0741 12.2967 29.0477 12.285 29.0246 12.2681C29.0016 12.2512 28.9826 12.2295 28.9688 12.2044C28.9556 12.1799 28.9487 12.1524 28.9487 12.1244C28.9487 12.0965 28.9556 12.069 28.9688 12.0444C28.9738 12.015 28.9851 11.9871 29.002 11.9625C29.0189 11.9379 29.0409 11.9174 29.0666 11.9022C29.0905 11.8876 29.1171 11.8779 29.1448 11.8735C29.1725 11.8692 29.2008 11.8704 29.228 11.877C29.2552 11.8836 29.2809 11.8955 29.3036 11.912C29.3262 11.9286 29.3453 11.9494 29.3599 11.9733M28.8088 12.1244L28.9866 12.4089L27.8577 13.1289L27.6799 12.8444L28.8088 12.1244Z" fill="#58595B"/>
</g>
<defs>
<clipPath id="clip0_2707_290948">
<rect width="32" height="32" fill="white"/>
</clipPath>
</defs>
</svg>
