<svg width="32" height="32" viewBox="0 0 32 32" fill="none" xmlns="http://www.w3.org/2000/svg">
<g clip-path="url(#clip0_2707_290368)">
<path d="M16 31.9823C24.8268 31.9823 31.9823 24.8268 31.9823 16C31.9823 7.17331 24.8268 0.0178223 16 0.0178223C7.17331 0.0178223 0.0178223 7.17331 0.0178223 16C0.0178223 24.8268 7.17331 31.9823 16 31.9823Z" fill="white"/>
<path d="M5.04002 15.7956C5.00196 15.8415 4.9545 15.8788 4.90084 15.9048C4.84718 15.9309 4.78855 15.9452 4.72891 15.9467C4.443 15.9673 4.15634 15.9185 3.89336 15.8045C3.51447 15.6829 3.1701 15.4727 2.88891 15.1911C2.80905 15.1318 2.74644 15.0523 2.7075 14.9607C2.66857 14.8692 2.65473 14.7689 2.6674 14.6702C2.68008 14.5716 2.71881 14.4781 2.77961 14.3993C2.84042 14.3206 2.9211 14.2595 3.01336 14.2222C3.07659 14.178 3.14531 14.1421 3.2178 14.1156C3.44002 14.0445 3.67114 13.9734 3.89336 13.92C4.42819 13.8222 4.97631 13.8222 5.51114 13.92C5.67345 13.9592 5.83366 14.0067 5.99114 14.0622C6.01283 14.0788 6.03938 14.0878 6.06669 14.0878C6.094 14.0878 6.12055 14.0788 6.14225 14.0622C6.62531 13.582 7.22617 13.2372 7.88456 13.0624C8.54295 12.8877 9.23571 12.8892 9.89336 13.0667C9.91118 13.076 9.93101 13.0809 9.95114 13.0809C9.97126 13.0809 9.99109 13.076 10.0089 13.0667C10.357 12.6356 10.8057 12.2968 11.3156 12.08C11.7224 11.8696 12.1661 11.7399 12.6222 11.6978C12.7109 11.6889 12.8002 11.6889 12.8889 11.6978C13.2534 11.7689 13.3956 12.0178 13.3156 12.4178C13.2111 12.8261 13.0064 13.2019 12.72 13.5111C12.5608 13.7133 12.361 13.8799 12.1334 14C12.0721 14.0286 12.0054 14.0434 11.9378 14.0434C11.8702 14.0434 11.8035 14.0286 11.7422 14C11.9485 13.8218 12.1444 13.6319 12.3289 13.4311C12.5228 13.1767 12.7037 12.9126 12.8711 12.64C12.901 12.5819 12.9191 12.5185 12.9245 12.4534C12.9245 12.3645 12.9245 12.3289 12.8089 12.3556C12.7449 12.3825 12.685 12.4184 12.6311 12.4622C12.2176 12.7682 11.8547 13.1371 11.5556 13.5556C11.4756 13.6622 11.4045 13.7778 11.3156 13.8934C11.5848 14.2034 11.7632 14.5817 11.8311 14.9867C11.8857 15.3332 11.8664 15.6874 11.7745 16.0259C11.6826 16.3645 11.5201 16.6798 11.2978 16.9511C10.7099 17.7153 9.84428 18.2167 8.88891 18.3467C8.12173 18.4963 7.32654 18.3836 6.63114 18.0267C6.30508 17.8725 6.01862 17.6457 5.79368 17.3638C5.56874 17.0819 5.41128 16.7522 5.33336 16.4C5.27996 16.133 5.27996 15.8581 5.33336 15.5911C5.34235 15.5616 5.34006 15.5298 5.32692 15.5019C5.31378 15.474 5.29073 15.4519 5.26225 15.44C4.76991 15.1955 4.24659 15.0191 3.70669 14.9156C3.57989 14.898 3.45127 14.898 3.32447 14.9156C3.20891 14.9156 3.19114 14.9867 3.27114 15.0667C3.35686 15.1454 3.44903 15.2167 3.54669 15.28C3.99673 15.5262 4.48265 15.7002 4.98669 15.7956H5.04002ZM8.88891 16.8889C9.06878 16.948 9.25306 16.9925 9.44002 17.0222C9.71446 17.0498 9.99145 17.0093 10.2465 16.9044C10.5016 16.7995 10.727 16.6335 10.9027 16.4209C11.0784 16.2083 11.199 15.9557 11.254 15.6854C11.309 15.4151 11.2965 15.1355 11.2178 14.8711C11.1389 14.573 10.9751 14.3042 10.7463 14.0975C10.5175 13.8908 10.2335 13.755 9.92891 13.7067C9.62401 13.6419 9.30692 13.6662 9.01538 13.7765C8.72385 13.8868 8.47015 14.0785 8.28447 14.3289C8.27258 14.346 8.25658 14.3599 8.23794 14.3692C8.2193 14.3785 8.19863 14.383 8.1778 14.3822C8.16947 14.3862 8.16036 14.3882 8.15114 14.3882C8.14191 14.3882 8.1328 14.3862 8.12447 14.3822C7.8122 14.2228 7.45733 14.1668 7.11114 14.2222C6.69936 14.3387 6.34715 14.6072 6.12568 14.9733C5.90421 15.3395 5.83 15.7761 5.91805 16.1949C6.00609 16.6136 6.24983 16.9834 6.59999 17.2294C6.95016 17.4753 7.38065 17.5792 7.80447 17.52C8.23328 17.4558 8.62128 17.23 8.88891 16.8889Z" fill="#E07527"/>
<path d="M22.1333 15.0489C22.3919 15.2557 22.5755 15.5416 22.6558 15.8628C22.7361 16.184 22.7087 16.5226 22.5778 16.8267C22.4135 17.1438 22.1529 17.4007 21.8335 17.5604C21.5141 17.7201 21.1522 17.7744 20.8 17.7156C20.6844 17.9912 20.8 18.1156 21.0578 18.08C21.2966 18.0525 21.5385 18.0737 21.7689 18.1423C21.9598 18.179 22.1362 18.2694 22.2775 18.4029C22.4188 18.5364 22.5192 18.7074 22.5668 18.8958C22.6143 19.0843 22.6072 19.2824 22.5462 19.467C22.4852 19.6515 22.3728 19.8149 22.2222 19.9378C21.952 20.2053 21.589 20.3581 21.2089 20.3645C20.8705 20.3786 20.5351 20.2957 20.2422 20.1257C19.9493 19.9556 19.711 19.7054 19.5555 19.4045C19.5245 19.3333 19.5196 19.2535 19.5418 19.1791C19.564 19.1047 19.6117 19.0405 19.6766 18.998C19.7416 18.9554 19.8195 18.9372 19.8965 18.9465C19.9736 18.9558 20.0449 18.9921 20.0978 19.0489C20.1968 19.1853 20.3037 19.3159 20.4178 19.44C20.5775 19.5894 20.7798 19.6851 20.9966 19.7138C21.2133 19.7425 21.4336 19.7027 21.6267 19.6L21.7067 19.5467C21.7781 19.501 21.8347 19.4355 21.8694 19.3581C21.9042 19.2807 21.9156 19.1949 21.9022 19.1112C21.8773 19.0267 21.8258 18.9525 21.7553 18.8996C21.6848 18.8467 21.5992 18.8181 21.5111 18.8178C21.36 18.8178 21.2 18.8178 21.04 18.8178C20.9166 18.8176 20.7938 18.7996 20.6755 18.7645C20.5742 18.7299 20.4809 18.6751 20.4014 18.6034C20.3218 18.5317 20.2577 18.4445 20.2128 18.3473C20.1679 18.2501 20.1432 18.1447 20.1403 18.0377C20.1373 17.9306 20.1561 17.8241 20.1955 17.7245C20.2061 17.7023 20.2121 17.6783 20.2134 17.6538C20.2146 17.6292 20.211 17.6047 20.2027 17.5816C20.1945 17.5585 20.1817 17.5372 20.1652 17.519C20.1488 17.5008 20.1289 17.4861 20.1067 17.4756C19.8637 17.3224 19.672 17.1001 19.5564 16.8371C19.4408 16.5742 19.4064 16.2827 19.4578 16C19.5059 15.6988 19.6435 15.4191 19.8528 15.1971C20.062 14.9752 20.3332 14.8214 20.6311 14.7556C20.9045 14.6803 21.1932 14.6803 21.4667 14.7556C21.4788 14.7614 21.4921 14.7646 21.5056 14.765C21.519 14.7655 21.5325 14.7631 21.545 14.7581C21.5575 14.7531 21.5689 14.7455 21.5783 14.7359C21.5878 14.7263 21.5952 14.7149 21.6 14.7023C21.6533 14.5867 21.7067 14.48 21.7689 14.3734C21.7878 14.3328 21.8147 14.2966 21.8481 14.2668C21.8815 14.237 21.9206 14.2144 21.963 14.2002C22.0054 14.1861 22.0503 14.1807 22.0949 14.1845C22.1394 14.1883 22.1828 14.2012 22.2222 14.2223C22.2614 14.2426 22.296 14.2708 22.3238 14.3051C22.3516 14.3394 22.3719 14.3791 22.3836 14.4217C22.3953 14.4643 22.3981 14.5088 22.3917 14.5525C22.3853 14.5962 22.37 14.6381 22.3467 14.6756L22.24 14.88C22.2222 14.9245 22.1689 14.9867 22.1333 15.0489ZM21.0667 17.1289C21.2403 17.1202 21.4076 17.0608 21.5478 16.958C21.688 16.8552 21.795 16.7135 21.8555 16.5505C21.916 16.3875 21.9274 16.2104 21.8883 16.041C21.8491 15.8716 21.7611 15.7174 21.6352 15.5975C21.5093 15.4776 21.351 15.3972 21.1799 15.3664C21.0088 15.3355 20.8324 15.3555 20.6726 15.4239C20.5127 15.4923 20.3764 15.6061 20.2806 15.7511C20.1847 15.8962 20.1335 16.0662 20.1333 16.24C20.1332 16.3606 20.1575 16.4799 20.205 16.5908C20.2524 16.7016 20.3219 16.8017 20.4092 16.8848C20.4965 16.968 20.5998 17.0325 20.7128 17.0745C20.8259 17.1164 20.9462 17.135 21.0667 17.1289Z" fill="#4A4847"/>
<path d="M15.1112 15.0045C15.3034 14.8862 15.5056 14.7851 15.7156 14.7023C15.9686 14.6161 16.2427 14.6136 16.4973 14.6952C16.7518 14.7769 16.9733 14.9383 17.1289 15.1556C17.3564 15.4482 17.4952 15.7999 17.5289 16.169C17.6221 16.7582 17.499 17.3612 17.1823 17.8668C17.0904 18.0379 16.9634 18.1877 16.8096 18.3063C16.6558 18.4249 16.4787 18.5096 16.2898 18.5549C16.101 18.6003 15.9047 18.6051 15.7138 18.5693C15.5229 18.5334 15.3418 18.4576 15.1823 18.3468L15.1112 18.3023V19.7956C15.0978 19.8792 15.0552 19.9552 14.9908 20.0101C14.9264 20.065 14.8446 20.0952 14.76 20.0952C14.6755 20.0952 14.5936 20.065 14.5293 20.0101C14.4649 19.9552 14.4223 19.8792 14.4089 19.7956V14.9956C14.4223 14.9121 14.4649 14.8361 14.5293 14.7812C14.5936 14.7263 14.6755 14.6961 14.76 14.6961C14.8446 14.6961 14.9264 14.7263 14.9908 14.7812C15.0552 14.8361 15.0978 14.9121 15.1112 14.9956V15.0045ZM16.8889 16.6579C16.907 16.3146 16.8135 15.9747 16.6223 15.689C16.5466 15.5731 16.4449 15.4765 16.3253 15.4069C16.2058 15.3372 16.0716 15.2965 15.9335 15.2878C15.7953 15.2792 15.6571 15.3029 15.5298 15.3571C15.4025 15.4113 15.2895 15.4945 15.2 15.6001C15.1661 15.6398 15.1472 15.6901 15.1467 15.7423C15.1467 16.3349 15.1467 16.9275 15.1467 17.5201C15.146 17.5422 15.1505 17.5641 15.1597 17.5842C15.169 17.6042 15.1828 17.6218 15.2 17.6356C15.3731 17.7916 15.5982 17.8772 15.8312 17.8756C15.9798 17.8751 16.1263 17.8412 16.2601 17.7766C16.394 17.712 16.5116 17.6183 16.6045 17.5023C16.7924 17.2443 16.8922 16.9326 16.8889 16.6134V16.6579Z" fill="#494847"/>
<path d="M29.3333 16.6756C29.3373 16.9592 29.2843 17.2406 29.1774 17.5033C29.0705 17.7659 28.9119 18.0044 28.7111 18.2045C28.562 18.3607 28.3797 18.4814 28.1777 18.5576C27.9757 18.6339 27.7592 18.6637 27.5441 18.6449C27.329 18.6261 27.1209 18.5592 26.9351 18.4492C26.7494 18.3391 26.5908 18.1886 26.4711 18.009C26.1575 17.584 25.9996 17.0641 26.0239 16.5365C26.0482 16.0088 26.2531 15.5056 26.6044 15.1112C26.7508 14.9465 26.9331 14.8176 27.1372 14.7345C27.3412 14.6513 27.5617 14.6161 27.7815 14.6316C28.0013 14.6471 28.2147 14.7128 28.4051 14.8236C28.5956 14.9345 28.758 15.0877 28.8799 15.2712C29.1829 15.676 29.3424 16.1701 29.3333 16.6756ZM28.6133 16.6312C28.6133 16.5512 28.6133 16.4534 28.6133 16.3645C28.5777 16.0261 28.4234 15.7112 28.1777 15.4756C28.1149 15.4122 28.0401 15.3619 27.9578 15.3275C27.8754 15.2932 27.787 15.2755 27.6977 15.2755C27.6085 15.2755 27.5201 15.2932 27.4377 15.3275C27.3553 15.3619 27.2805 15.4122 27.2177 15.4756C26.9618 15.732 26.8099 16.0739 26.7911 16.4356C26.7476 16.6711 26.7562 16.9132 26.816 17.1451C26.8759 17.3769 26.9857 17.5929 27.1377 17.7779C27.2028 17.8531 27.2833 17.9135 27.3738 17.9549C27.4643 17.9963 27.5627 18.0177 27.6622 18.0177C27.7617 18.0177 27.86 17.9963 27.9505 17.9549C28.041 17.9135 28.1215 17.8531 28.1866 17.7779C28.4662 17.4624 28.6156 17.0526 28.6044 16.6312H28.6133Z" fill="#4A4847"/>
<path d="M25.5024 17.3067V19.4934C25.5186 19.7013 25.4565 19.9079 25.3282 20.0724C25.1999 20.2368 25.0147 20.3474 24.809 20.3823C24.6637 20.4129 24.5128 20.4026 24.3731 20.3523C24.2334 20.3021 24.1104 20.214 24.0179 20.0978C23.975 20.0569 23.9434 20.0056 23.9259 19.9489C23.9085 19.8922 23.9059 19.8321 23.9184 19.7741C23.9309 19.7161 23.958 19.6623 23.9972 19.6179C24.0365 19.5734 24.0864 19.5397 24.1424 19.52C24.207 19.5024 24.2751 19.5012 24.3404 19.5168C24.4056 19.5323 24.4659 19.564 24.5157 19.6089C24.569 19.6623 24.6224 19.7245 24.7112 19.68C24.8001 19.6356 24.8001 19.5467 24.8001 19.4667V15.0223C24.7958 14.9677 24.8045 14.9129 24.8254 14.8623C24.8463 14.8117 24.8789 14.7668 24.9206 14.7313C24.9622 14.6957 25.0116 14.6705 25.0649 14.6578C25.1181 14.645 25.1736 14.645 25.2268 14.6578C25.306 14.6744 25.3768 14.7181 25.4271 14.7814C25.4775 14.8447 25.5041 14.9236 25.5024 15.0045V17.2978V17.3067Z" fill="#DF7527"/>
<path d="M24.4533 12.6311L24.3644 12.4623C24.3382 12.41 24.3329 12.3497 24.3493 12.2936C24.3658 12.2376 24.403 12.1898 24.4533 12.16H24.5599C24.5997 12.1608 24.6386 12.1719 24.6729 12.1921C24.7071 12.2124 24.7356 12.2411 24.7555 12.2756C24.7629 12.3079 24.7775 12.3381 24.7982 12.3641C24.8189 12.39 24.8451 12.411 24.8749 12.4255C24.9048 12.44 24.9375 12.4476 24.9706 12.4478C25.0038 12.448 25.0366 12.4408 25.0666 12.4267H25.2444C25.3599 12.4267 25.4221 12.4267 25.4666 12.3111C25.4928 12.256 25.5225 12.2025 25.5555 12.1511C25.5895 12.1032 25.6395 12.0689 25.6964 12.0542C25.7534 12.0396 25.8136 12.0456 25.8666 12.0711C25.9017 12.0903 25.9309 12.1186 25.9512 12.153C25.9716 12.1875 25.9823 12.2267 25.9821 12.2667C25.9912 12.3047 25.9912 12.3443 25.9821 12.3823L25.8399 12.6223L25.991 12.7734C26.1078 12.9015 26.1883 13.0583 26.2245 13.2278C26.2607 13.3973 26.2512 13.5734 26.1969 13.738C26.1426 13.9026 26.0456 14.0499 25.9157 14.1646C25.7858 14.2794 25.6277 14.3576 25.4577 14.3911C25.1855 14.469 24.8936 14.4372 24.6444 14.3027C24.3953 14.1681 24.2086 13.9415 24.1244 13.6711C24.0863 13.5134 24.0901 13.3484 24.1353 13.1925C24.1805 13.0366 24.2656 12.8952 24.3821 12.7823C24.3821 12.7823 24.3821 12.7823 24.4266 12.7378L24.4533 12.6311ZM25.1466 12.8889C25.0042 12.8841 24.8657 12.9354 24.7609 13.0319C24.6561 13.1284 24.5935 13.2622 24.5866 13.4045C24.59 13.4745 24.6072 13.5432 24.6372 13.6067C24.6672 13.6701 24.7095 13.7269 24.7615 13.774C24.8135 13.8211 24.8743 13.8574 24.9404 13.8809C25.0065 13.9045 25.0765 13.9147 25.1466 13.9111C25.2194 13.9208 25.2934 13.9147 25.3636 13.8934C25.4339 13.8722 25.4988 13.8361 25.554 13.7877C25.6092 13.7393 25.6534 13.6797 25.6837 13.6129C25.714 13.546 25.7297 13.4734 25.7297 13.4C25.7297 13.3266 25.714 13.2541 25.6837 13.1872C25.6534 13.1203 25.6092 13.0607 25.554 13.0123C25.4988 12.9639 25.4339 12.9279 25.3636 12.9066C25.2934 12.8853 25.2194 12.8793 25.1466 12.8889Z" fill="#E07628"/>
<path d="M23.3335 16.6489V15.0045C23.3334 14.9117 23.3697 14.8226 23.4344 14.7562C23.4992 14.6897 23.5874 14.6512 23.6801 14.6489C23.7541 14.6499 23.8261 14.6734 23.8864 14.7163C23.9468 14.7591 23.9926 14.8194 24.0179 14.8889C24.0311 14.9414 24.0311 14.9964 24.0179 15.0489V18.2578C24.0262 18.338 24.0069 18.4187 23.9633 18.4865C23.9197 18.5544 23.8543 18.6054 23.7779 18.6311C23.7073 18.657 23.63 18.6578 23.5588 18.6336C23.4876 18.6093 23.4269 18.5614 23.3868 18.4978C23.3406 18.4263 23.3159 18.343 23.3157 18.2578L23.3335 16.6489Z" fill="#494746"/>
<path d="M18.1421 16.6489V15.0045C18.1444 14.9133 18.1816 14.8264 18.2462 14.7618C18.3107 14.6973 18.3976 14.6601 18.4888 14.6578C18.5612 14.656 18.6322 14.6775 18.6914 14.7191C18.7506 14.7607 18.7949 14.8203 18.8177 14.8889C18.8262 14.9449 18.8262 15.0018 18.8177 15.0578V18.2489C18.8249 18.3301 18.8053 18.4114 18.762 18.4804C18.7187 18.5494 18.6539 18.6024 18.5777 18.6312C18.5079 18.6562 18.4318 18.6576 18.3611 18.6351C18.2904 18.6127 18.2291 18.5675 18.1866 18.5067C18.1405 18.4318 18.1159 18.3457 18.1155 18.2578C18.1333 17.7245 18.1421 17.1823 18.1421 16.6489Z" fill="#494746"/>
<path d="M6.40007 15.2533C6.50674 15.4489 6.64896 15.5289 6.80896 15.4933C6.88795 15.4817 6.96071 15.4438 7.01554 15.3857C7.07036 15.3277 7.10405 15.2529 7.11118 15.1733C7.11118 15.0133 7.04007 14.8889 6.8534 14.8C7.09062 14.6475 7.37232 14.5795 7.65298 14.6069C7.93364 14.6343 8.19685 14.7556 8.40007 14.9511L8.52451 14.6756C8.55293 14.7601 8.61069 14.8317 8.68732 14.8774C8.76396 14.923 8.8544 14.9397 8.94229 14.9245C9.01177 14.9109 9.07542 14.8763 9.12469 14.8255C9.17395 14.7746 9.20646 14.7099 9.21785 14.64C9.23311 14.5521 9.21641 14.4617 9.17075 14.385C9.1251 14.3084 9.05351 14.2506 8.96896 14.2222C9.23338 14.0592 9.54835 13.9986 9.85439 14.052C10.1604 14.1053 10.4363 14.2689 10.63 14.5118C10.8236 14.7547 10.9216 15.0601 10.9055 15.3703C10.8893 15.6805 10.7601 15.9741 10.5423 16.1956C10.3026 16.4238 9.98436 16.5511 9.6534 16.5511C9.32245 16.5511 9.00417 16.4238 8.76451 16.1956C8.69958 16.4196 8.57384 16.6213 8.40124 16.7782C8.22864 16.9351 8.01594 17.0411 7.78674 17.0845C7.62726 17.1199 7.46222 17.1224 7.30173 17.0919C7.14124 17.0613 6.98868 16.9983 6.8534 16.9067C6.58358 16.7388 6.38703 16.4753 6.30299 16.1688C6.21895 15.8623 6.25362 15.5354 6.40007 15.2533Z" fill="#494747"/>
</g>
<defs>
<clipPath id="clip0_2707_290368">
<rect width="32" height="32" fill="white"/>
</clipPath>
</defs>
</svg>
