<svg width="32" height="32" viewBox="0 0 32 32" fill="none" xmlns="http://www.w3.org/2000/svg">
<g clip-path="url(#clip0_2707_289878)">
<path d="M16 31.9823C24.8268 31.9823 31.9823 24.8268 31.9823 16C31.9823 7.17331 24.8268 0.0178223 16 0.0178223C7.17331 0.0178223 0.0178223 7.17331 0.0178223 16C0.0178223 24.8268 7.17331 31.9823 16 31.9823Z" fill="white"/>
<path d="M14.4801 17.2C15.1555 16.9685 15.7527 16.5529 16.2045 16L16.5423 16.3556C16.714 16.5455 16.922 16.6993 17.1541 16.8076C17.3861 16.916 17.6375 16.9769 17.8934 16.9867C18.7823 16.9867 19.6712 17.04 20.5601 17.0489C20.7416 17.0404 20.9226 17.0226 21.1023 16.9956V16C20.3023 15.8667 19.4845 16 18.6756 15.9022C18.5735 15.3768 18.5735 14.8366 18.6756 14.3111H23.3778V18.5156C23.7245 18.2578 23.9912 18.0889 24.2667 17.8844C24.8689 17.4334 25.3663 16.8572 25.7245 16.1956C26.0704 15.5867 26.2349 14.8916 26.1987 14.1924C26.1624 13.4931 25.927 12.8187 25.5201 12.2489C24.9098 11.3393 24.0817 10.5968 23.1112 10.0889C21.5516 9.21421 19.8474 8.62709 18.0801 8.35555C16.8094 8.10733 15.5169 7.98821 14.2223 8C11.831 7.99082 9.45983 8.4373 7.23562 9.31555C6.32006 9.6887 5.4566 10.1787 4.66673 10.7733C4.51562 10.88 4.39118 11.1111 4.12451 11.0133C5.25572 9.81157 6.65756 8.89732 8.2134 8.34666C9.57591 7.82641 10.9968 7.47418 12.4445 7.29778C13.7577 7.11658 15.0845 7.0541 16.409 7.11111C18.3867 7.19624 20.3431 7.55522 22.2223 8.17778C23.9098 8.73508 25.4355 9.69629 26.6667 10.9778C27.3779 11.7194 27.7845 12.7012 27.8059 13.7286C27.8273 14.7559 27.462 15.7538 26.7823 16.5244C25.8591 17.5913 24.6951 18.4232 23.3867 18.9511C22.5601 19.3067 21.689 19.5822 20.8267 19.84C20.6448 19.8918 20.4556 19.9128 20.2667 19.9022C20.9996 19.6501 21.7029 19.3192 22.3645 18.9156H21.9467C20.8712 18.9156 19.7867 18.9156 18.7112 18.9156C17.9063 18.9221 17.1054 18.8021 16.3378 18.56C15.7432 18.3569 15.2002 18.0262 14.7467 17.5911C14.6476 17.468 14.5584 17.3373 14.4801 17.2Z" fill="#B54A36"/>
<path d="M16.089 15.3511C15.9469 15.7787 15.6527 16.1393 15.2624 16.3645C14.6808 16.7629 13.994 16.9795 13.289 16.9867C11.9735 17.0311 10.6224 17.04 9.34238 17.0667H8.80905V18.9156H6.55127V11.5556H6.83571H12.7202C13.4851 11.5443 14.2414 11.7182 14.9246 12.0622L13.6446 13.6356C12.8292 13.4686 11.9943 13.4178 11.1646 13.4845C10.4979 13.4845 9.84016 13.4845 9.18238 13.4845H8.72905V15.3867L16.089 15.3511Z" fill="#B54A36"/>
<path d="M13.7422 14.7911C13.9733 14.2844 14.1689 13.7689 14.4355 13.2889C14.6758 12.8728 15.0053 12.5152 15.4003 12.2416C15.7953 11.968 16.246 11.7853 16.72 11.7067C17.3047 11.583 17.9001 11.5175 18.4977 11.5111C20.0266 11.5111 21.5466 11.5111 23.0755 11.5111H23.3689V13.4044C23.1092 13.4358 22.8481 13.4536 22.5866 13.4578C21.3955 13.4578 20.1955 13.4578 19.0311 13.4578C18.6295 13.449 18.2279 13.4758 17.8311 13.5378C17.4739 13.5489 17.1311 13.6806 16.8583 13.9114C16.5856 14.1422 16.3989 14.4585 16.3289 14.8089C15.4685 14.8962 14.6013 14.8902 13.7422 14.7911Z" fill="#B54A36"/>
<path d="M8.56885 24.8889V21.9467C9.16196 21.9244 9.75591 21.9422 10.3466 22C10.5422 22.0221 10.7226 22.1163 10.8524 22.2643C10.9823 22.4122 11.0523 22.6032 11.0488 22.8C11.1147 23.0465 11.0877 23.3085 10.973 23.5363C10.8582 23.7641 10.6638 23.9418 10.4266 24.0356L11.2355 24.7911L11.1911 24.8711H10.2133L9.42218 24.1156V24.8623L8.56885 24.8889ZM9.45774 23.2356C9.67996 23.2356 9.84885 23.2356 10.0266 23.2356C10.2044 23.2356 10.2755 23.1645 10.1866 22.8711H9.42218L9.45774 23.2356Z" fill="#0A0A0A"/>
<path d="M24.4177 21.9912C24.3555 22.249 24.2844 22.5067 24.2133 22.809H22.7999V22.8979C22.8622 22.8979 22.9244 23.0045 22.9866 23.0045C23.2266 23.0045 23.4577 23.0045 23.7066 23.0045C23.8737 22.9798 24.0444 23.0032 24.1987 23.072C24.353 23.1408 24.4845 23.2522 24.5778 23.393C24.671 23.5339 24.7222 23.6984 24.7254 23.8673C24.7285 24.0362 24.6835 24.2025 24.5955 24.3467C24.5232 24.5191 24.3983 24.6643 24.2388 24.7616C24.0792 24.859 23.893 24.9035 23.7066 24.889C23.1999 24.889 22.6933 24.889 22.1333 24.889L22.2844 24.0979C22.7733 23.9734 23.2799 24.0979 23.7688 23.929C23.6864 23.8901 23.5999 23.8603 23.5111 23.8401C23.2622 23.8401 23.0044 23.8401 22.7466 23.8401C22.6311 23.8502 22.5148 23.8357 22.4053 23.7975C22.2959 23.7593 22.1958 23.6982 22.1117 23.6183C22.0277 23.5385 21.9615 23.4417 21.9177 23.3343C21.874 23.2269 21.8535 23.1115 21.8577 22.9956C21.8577 22.4267 22.0444 22.1067 22.5955 22.009C23.1466 21.9112 23.8222 21.9645 24.4177 21.9912Z" fill="#0A0A0A"/>
<path d="M14.7556 24.8889V21.9556C15.318 21.9199 15.8821 21.9199 16.4445 21.9556C16.6097 21.9753 16.765 22.0444 16.8903 22.1538C17.0156 22.2632 17.105 22.4079 17.1467 22.5689C17.3161 23.0979 17.3161 23.6666 17.1467 24.1956C17.1067 24.3719 17.0105 24.5305 16.8727 24.6475C16.7348 24.7645 16.5628 24.8336 16.3823 24.8445C15.8578 24.8889 15.3156 24.8889 14.7556 24.8889ZM15.6445 22.8089V24.0623C15.9201 24.0623 16.2045 24.1334 16.3467 23.8489C16.4326 23.6877 16.4668 23.5039 16.4445 23.3226C16.4222 23.1413 16.3446 22.9712 16.2223 22.8356L15.6445 22.8089Z" fill="#0A0A0A"/>
<path d="M20.8535 21.9645H21.8846L20.7024 23.4311C21.0846 23.9111 21.4579 24.3645 21.8757 24.8711H20.8268L20.0179 23.8845V24.8889H19.1824V21.9734H19.9913V22.8623H20.0713L20.8535 21.9645Z" fill="#0A0A0A"/>
<path d="M6.49771 24.0712V24.889H5.67993V21.9645C6.22215 21.9645 6.75549 21.9645 7.28882 21.9645C7.47103 21.9571 7.65048 22.0109 7.79865 22.1172C7.94682 22.2235 8.05521 22.3762 8.1066 22.5512C8.17794 22.7479 8.20064 22.959 8.17279 23.1664C8.14493 23.3738 8.06732 23.5714 7.9466 23.7423C7.85038 23.8484 7.73205 23.932 7.59995 23.9873C7.46786 24.0426 7.32523 24.0682 7.18215 24.0623C6.96882 24.0801 6.76438 24.0712 6.49771 24.0712ZM7.29771 23.1823V22.8445H6.51549V23.1823H7.29771Z" fill="#0A0A0A"/>
<path d="M13.6623 24.889L13.4846 24.5067H12.5512L12.4446 24.889H11.5557L12.5868 21.9823H13.4312C13.7779 22.9334 14.1246 23.8934 14.4712 24.889H13.6623ZM13.3334 23.6179C13.209 23.3867 13.2179 23.1201 13.0134 22.9067L12.7912 23.6179H13.3334Z" fill="#0A0A0A"/>
<path d="M18.5423 21.9734H17.7334V24.8889H18.5423V21.9734Z" fill="#0A0A0A"/>
<path d="M25.8312 21.9734H25.0312V24.8801H25.8312V21.9734Z" fill="#0A0A0A"/>
</g>
<defs>
<clipPath id="clip0_2707_289878">
<rect width="32" height="32" fill="white"/>
</clipPath>
</defs>
</svg>
