<svg width="32" height="32" viewBox="0 0 32 32" fill="none" xmlns="http://www.w3.org/2000/svg">
<g clip-path="url(#clip0_2707_289618)">
<path d="M16 31.9823C24.8268 31.9823 31.9823 24.8268 31.9823 16C31.9823 7.17331 24.8268 0.0178223 16 0.0178223C7.17331 0.0178223 0.0178223 7.17331 0.0178223 16C0.0178223 24.8268 7.17331 31.9823 16 31.9823Z" fill="white"/>
<path d="M16.0001 0.0444444C19.1665 0.0444567 22.2616 0.983972 24.8938 2.74405C27.5259 4.50412 29.5767 7.00561 30.7863 9.93182C31.996 12.858 32.3103 16.0774 31.6893 19.1823C31.0683 22.2872 29.5401 25.138 27.298 27.3739C25.0559 29.6097 22.2008 31.1301 19.0942 31.7424C15.9876 32.3547 12.7691 32.0315 9.84627 30.8137C6.92344 29.5959 4.42766 27.5382 2.67492 24.9012C0.922169 22.2642 -0.00873377 19.1664 6.17564e-05 16C6.17564e-05 11.7565 1.68577 7.68687 4.68635 4.68629C7.68694 1.68571 11.7566 0 16.0001 0" fill="white"/>
<path d="M16 31.9823C24.8268 31.9823 31.9823 24.8268 31.9823 16C31.9823 7.17331 24.8268 0.0178223 16 0.0178223C7.17331 0.0178223 0.0178223 7.17331 0.0178223 16C0.0178223 24.8268 7.17331 31.9823 16 31.9823Z" fill="white"/>
<path fill-rule="evenodd" clip-rule="evenodd" d="M25.3154 17.1822C25.0914 17.14 24.8828 17.0387 24.711 16.8888C24.4049 16.6456 24.1275 16.3683 23.8843 16.0622C23.7098 15.856 23.5522 15.636 23.4132 15.4044C23.3213 15.2489 23.244 15.0852 23.1821 14.9155H23.111H22.8799C22.7113 14.9302 22.5418 14.9302 22.3732 14.9155C22.2642 14.9175 22.1557 14.8994 22.0532 14.8622C22.0532 14.8622 22.1688 14.7911 22.3643 14.7555H22.5332C22.6942 14.6841 22.8303 14.5666 22.9243 14.4177C23.0893 14.1431 23.2065 13.8426 23.271 13.5288C23.317 13.3275 23.3734 13.1288 23.4399 12.9333C23.4977 12.7507 23.5914 12.5814 23.7154 12.4355C23.7154 12.4355 23.7599 12.4355 23.7154 12.3733C23.671 12.3111 23.7154 12.3733 23.7599 12.3111C24.0918 11.9772 24.5425 11.7886 25.0132 11.7866C25.2262 11.7891 25.4313 11.8679 25.591 12.0088L25.6532 12.0622H25.7066C25.7685 12.0254 25.8253 11.9806 25.8754 11.9288C25.9235 11.8731 25.9771 11.8225 26.0354 11.7777C26.0815 11.7509 26.1333 11.7356 26.1866 11.7333V11.7777C26.1957 11.8097 26.1957 11.8435 26.1866 11.8755C26.166 12.0003 26.1174 12.1189 26.0443 12.2222C25.8477 12.555 25.631 12.8756 25.3954 13.1822C25.1554 13.5111 25.1021 13.5911 24.9866 13.7688C24.7607 14.0802 24.5921 14.4294 24.4888 14.7999C24.4176 15.11 24.4176 15.4321 24.4888 15.7422C24.5461 16.0609 24.6703 16.3638 24.8532 16.6311C24.9089 16.7077 24.9713 16.7791 25.0399 16.8444C25.2354 17.0311 25.3066 17.1199 25.3332 17.2088C25.3424 17.2408 25.3424 17.2747 25.3332 17.3066V17.3688C25.2863 17.3784 25.2379 17.3784 25.191 17.3688L25.3154 17.1822Z" fill="#FAC600"/>
<path fill-rule="evenodd" clip-rule="evenodd" d="M21.5467 20.7288C20.8326 20.6595 20.1305 20.4981 19.4578 20.2488C19.0104 20.0936 18.5531 19.9689 18.0889 19.8755C17.6096 19.7915 17.1193 19.7915 16.64 19.8755C16.2431 19.9561 15.8558 20.0783 15.4844 20.2399C15.1952 20.3629 14.8983 20.4668 14.5956 20.5511C14.3935 20.599 14.1886 20.6346 13.9822 20.6577C13.8578 20.6577 13.3867 20.6577 13.2444 20.6577C12.8367 20.6172 12.4326 20.5459 12.0356 20.4444C11.6555 20.3507 11.2839 20.2259 10.9244 20.0711C10.5367 19.8917 10.1355 19.7431 9.72444 19.6266C9.23774 19.4808 8.73732 19.3855 8.23111 19.3422C8.09777 19.3422 7.71555 19.3422 7.58222 19.3422C7.18659 19.3636 6.79529 19.4352 6.41777 19.5555C6.14417 19.648 5.88411 19.7766 5.64444 19.9377C5.44623 20.0717 5.23824 20.1905 5.02222 20.2933C5.02222 20.2933 5.02222 20.2933 5.02222 20.2222C5.23906 20.0049 5.48073 19.814 5.74222 19.6533C6.22976 19.311 6.76618 19.0443 7.33333 18.8622C7.8066 18.6901 8.29915 18.5767 8.79999 18.5244C8.95999 18.5244 9.28888 18.5244 9.43111 18.5244C9.75184 18.5518 10.0682 18.6175 10.3733 18.7199C10.68 18.8144 10.9775 18.9364 11.2622 19.0844C11.4321 19.1773 11.6072 19.2604 11.7867 19.3333C12.5547 19.6349 13.3883 19.7299 14.2044 19.6088C14.6181 19.5426 15.0215 19.4231 15.4044 19.2533C15.7733 19.0895 16.1535 18.9529 16.5422 18.8444C17.4495 18.6341 18.3987 18.696 19.2711 19.0222C19.5312 19.1189 19.7837 19.2347 20.0267 19.3688C20.1689 19.4488 20.4267 19.5733 20.5511 19.6266C20.9671 19.8151 21.4118 19.9323 21.8667 19.9733H22.3911C23.2125 19.8849 23.9952 19.5779 24.6578 19.0844C24.9184 18.9146 25.1651 18.7244 25.3955 18.5155C25.5002 18.4234 25.61 18.3373 25.7244 18.2577C25.8222 18.1955 25.8844 18.1599 25.8933 18.1688C25.8583 18.2683 25.8072 18.3614 25.7422 18.4444C25.6393 18.5908 25.52 18.725 25.3867 18.8444C25.2711 18.9599 25.0133 19.1822 24.88 19.2977C24.2766 19.852 23.5612 20.2703 22.7822 20.5244C22.3938 20.6584 21.9838 20.7187 21.5733 20.7022L21.5467 20.7288Z" fill="#00AAE3"/>
<path fill-rule="evenodd" clip-rule="evenodd" d="M19.4756 17.7778C19.339 17.763 19.2078 17.7168 19.0921 17.6428C18.9765 17.5688 18.8795 17.469 18.8089 17.3512C18.6154 17.0833 18.5283 16.7531 18.5644 16.4246C18.6005 16.0962 18.7573 15.7928 19.0045 15.5734C19.2823 15.3038 19.6253 15.1109 20 15.0134C20.1192 14.9691 20.2465 14.9509 20.3733 14.9601C20.478 14.9687 20.5803 14.9957 20.6756 15.0401C20.7236 15.0549 20.7666 15.0825 20.8 15.1201C20.9245 15.2801 20.8622 15.4045 20.7022 15.4401C20.5516 15.4569 20.3995 15.4569 20.2489 15.4401C20.0718 15.4174 19.8926 15.4174 19.7156 15.4401C19.5711 15.482 19.445 15.5715 19.3578 15.6942C19.2707 15.8168 19.2276 15.9654 19.2356 16.1156C19.2509 16.2478 19.3071 16.372 19.3963 16.4708C19.4856 16.5695 19.6034 16.638 19.7333 16.6667C19.8081 16.6917 19.8858 16.7067 19.9645 16.7112H20.2489C20.341 16.7048 20.4331 16.7232 20.5156 16.7645V16.8623C20.5167 16.9597 20.4986 17.0564 20.4622 17.1467C20.3677 17.3572 20.2048 17.5295 20 17.6356C19.8902 17.691 19.7665 17.7127 19.6445 17.6978L19.4756 17.7778Z" fill="#D82C18"/>
<path fill-rule="evenodd" clip-rule="evenodd" d="M22.2221 17.04C22.2975 17.0369 22.3713 17.0182 22.439 16.985C22.5067 16.9518 22.5667 16.9048 22.6153 16.8471C22.6638 16.7894 22.6997 16.7222 22.7208 16.6498C22.7419 16.5774 22.7476 16.5014 22.7377 16.4266C22.7374 16.3301 22.7224 16.2342 22.6932 16.1422C22.6813 16.0595 22.6468 15.9817 22.5935 15.9174C22.5401 15.8531 22.4701 15.8048 22.391 15.7778C22.2029 15.7017 21.9925 15.7017 21.8043 15.7778C21.7527 15.7991 21.7069 15.8327 21.671 15.8755C21.5914 15.9552 21.5386 16.0578 21.5199 16.1689C21.5021 16.2897 21.5021 16.4125 21.5199 16.5333C21.5288 16.6384 21.5668 16.739 21.6296 16.8237C21.6924 16.9085 21.7775 16.9741 21.8754 17.0133C21.9894 17.0402 22.1081 17.0402 22.2221 17.0133V17.04ZM21.5199 17.68C21.3962 17.6642 21.2788 17.6166 21.1791 17.5418C21.0794 17.467 21.0008 17.3676 20.951 17.2533C20.8704 17.0844 20.8337 16.8979 20.8443 16.7111C20.8408 16.4838 20.8894 16.2588 20.9866 16.0533C21.0909 15.8448 21.247 15.6666 21.4401 15.5359C21.6331 15.4051 21.8565 15.3262 22.0888 15.3066C22.3253 15.2765 22.5653 15.3232 22.7732 15.44C22.8831 15.5027 22.9771 15.5899 23.048 15.6946C23.1189 15.7994 23.1648 15.9191 23.1821 16.0444C23.1999 16.201 23.1999 16.359 23.1821 16.5155C23.1564 16.6601 23.1116 16.8006 23.0488 16.9333C22.9974 17.0289 22.9315 17.1159 22.8532 17.1911C22.6074 17.4272 22.2988 17.5876 21.9643 17.6533C21.8048 17.6708 21.6439 17.6708 21.4843 17.6533L21.5199 17.68Z" fill="#00AAE3"/>
<path fill-rule="evenodd" clip-rule="evenodd" d="M9.77766 16.3289C9.64995 16.306 9.53391 16.2402 9.44877 16.1423C9.3638 16.0486 9.3028 15.9358 9.271 15.8134C9.25309 15.7075 9.25309 15.5993 9.271 15.4934C9.36354 15.2169 9.51703 14.9647 9.72012 14.7554C9.9232 14.5462 10.1707 14.3852 10.4443 14.2845C10.5955 14.2158 10.7584 14.1766 10.9243 14.1689C11.1298 14.1353 11.3402 14.1832 11.511 14.3023C11.6566 14.4556 11.7363 14.6598 11.7332 14.8711C11.7332 14.9423 11.7332 14.9511 11.7332 14.9334C11.7452 14.8777 11.7452 14.8201 11.7332 14.7645C11.7516 14.6124 11.7171 14.4586 11.6354 14.3289C11.7427 14.4026 11.8187 14.5135 11.8488 14.64C11.8668 14.7638 11.8668 14.8896 11.8488 15.0134C11.8216 15.1545 11.764 15.288 11.6799 15.4045C11.5164 15.6384 11.3081 15.8374 11.067 15.9901C10.8259 16.1427 10.5568 16.2458 10.2754 16.2934H10.0088C10.0088 16.2934 10.0977 16.24 10.151 16.2223L10.3199 16.1778C10.417 16.1579 10.5102 16.1218 10.5954 16.0711C10.5306 16.0624 10.4648 16.0624 10.3999 16.0711L10.2132 16.1511C10.1159 16.1957 10.0147 16.2314 9.91099 16.2578C9.83718 16.2665 9.76259 16.2665 9.68877 16.2578L9.77766 16.3289Z" fill="#D82C18"/>
<path fill-rule="evenodd" clip-rule="evenodd" d="M5.33325 17.9644V17.92L5.40436 17.7066C5.40436 17.6088 5.54659 17.2533 5.59992 17.1022C5.65325 16.9511 5.74214 16.7288 5.81325 16.48C6.0977 15.6888 6.40881 14.9066 6.76436 14.1511C7.17041 13.2374 7.70631 12.3871 8.35547 11.6266C8.51888 11.4078 8.72874 11.2279 8.96998 11.0998C9.21121 10.9717 9.47782 10.8987 9.75064 10.8859C10.0235 10.8732 10.2957 10.921 10.5479 11.026C10.8 11.1311 11.0257 11.2906 11.2088 11.4933C11.7362 12.0206 12.1559 12.6455 12.4444 13.3333C12.6506 13.783 12.8258 14.2463 12.9688 14.72C13.1021 15.1288 13.2177 15.5377 13.3155 15.9288C13.4133 16.32 13.5466 17.0222 13.5999 17.2977C13.5999 17.3955 13.6533 17.52 13.6888 17.6622C13.6888 17.6622 13.5377 17.3066 13.3688 16.9333C13.1288 16.4177 12.9066 15.8844 12.6666 15.36C12.3604 14.6405 11.9598 13.9649 11.4755 13.3511C11.1318 12.9105 10.6865 12.5597 10.1777 12.3288C9.90055 12.1991 9.58992 12.1587 9.28881 12.2133C8.77485 12.3583 8.32424 12.6713 8.00881 13.1022C6.90727 14.5114 6.04262 16.0906 5.44881 17.7777C5.42652 17.846 5.39671 17.9116 5.35992 17.9733L5.33325 17.9644Z" fill="#AABCD5"/>
<path fill-rule="evenodd" clip-rule="evenodd" d="M14.1689 15.6889C14.1689 15.6889 14.2578 16.2044 14.4267 17.0311C14.5067 17.44 14.5778 17.76 14.5778 17.76C14.5199 17.6491 14.4723 17.533 14.4356 17.4133C14.2954 16.8352 14.1142 16.2679 13.8934 15.7156V15.6622C13.6938 15.6655 13.4948 15.6834 13.2978 15.7156L12.8978 15.7956C12.8534 15.7956 12.4801 15.9111 12.2845 15.9733C11.5409 16.2545 10.8383 16.6342 10.1956 17.1022L9.49339 17.6C9.63293 17.4463 9.78133 17.3009 9.93783 17.1644L10.1689 16.9511C10.731 16.3829 11.3942 15.9247 12.1245 15.6C12.3163 15.516 12.5157 15.4505 12.7201 15.4044C12.8547 15.3739 12.9913 15.3531 13.1289 15.3422H13.7334L13.6267 15.04C13.3099 13.9637 12.8431 12.9373 12.2401 11.9911C12.0106 11.6419 11.7422 11.3198 11.4401 11.0311C11.2802 10.8561 11.087 10.7149 10.8717 10.6156C10.6565 10.5164 10.4236 10.4612 10.1867 10.4533C9.43117 10.4533 8.73783 10.9778 7.8845 12.2311C7.8045 12.3378 7.79561 12.3644 7.81339 12.3556C7.83117 12.3467 7.81339 12.3556 7.76894 12.4356C7.15228 13.3834 6.63686 14.3934 6.23117 15.4489C6.08894 15.8044 5.90228 16.3378 5.77783 16.64C5.78166 16.6814 5.78166 16.7231 5.77783 16.7644L6.05339 15.8756C6.15117 15.5644 6.24894 15.2889 6.32894 15.0667C6.40377 14.8865 6.46905 14.7026 6.5245 14.5156C6.64371 14.0869 6.79526 13.6679 6.97783 13.2622C7.05783 13.0844 7.15561 12.8444 7.20005 12.7289C7.55643 11.7901 8.00296 10.8881 8.53339 10.0356C9.01339 9.36 9.84894 8.31111 10.7112 8.62222C11.1393 8.80724 11.5017 9.11701 11.7512 9.51111L12.0445 9.91111C12.4261 10.5032 12.742 11.1351 12.9867 11.7956C13.4048 12.8746 13.7435 13.9827 14.0001 15.1111C14.0001 15.2356 14.0623 15.3422 14.0623 15.3511H14.1245C14.4367 15.487 14.7344 15.6537 15.0134 15.8489C15.4134 16.0889 15.5023 16.1689 15.4401 16.16C15.2859 16.0952 15.1372 16.0179 14.9956 15.9289C14.7953 15.7927 14.5679 15.7018 14.3289 15.6622H14.1334L14.1689 15.6889Z" fill="#004A82"/>
<path fill-rule="evenodd" clip-rule="evenodd" d="M15.1911 17.8489C15.1911 17.8489 15.1467 17.7156 15.1911 17.44C15.1824 16.8616 15.2512 16.2846 15.3956 15.7245C15.4312 15.596 15.4851 15.4732 15.5556 15.36C15.6088 15.2653 15.6801 15.182 15.7656 15.1149C15.851 15.0478 15.9488 14.9982 16.0534 14.9689C16.1653 14.9511 16.2793 14.9511 16.3911 14.9689C16.6457 15.022 16.8873 15.1247 17.1023 15.2711C17.4038 15.4451 17.6816 15.6572 17.9289 15.9022C18.1355 16.1012 18.3042 16.3362 18.4267 16.5956C18.5013 16.7241 18.5368 16.8716 18.5289 17.02C18.521 17.1684 18.4701 17.3113 18.3823 17.4311C18.2954 17.5602 18.1721 17.6604 18.028 17.7189C17.8839 17.7775 17.7256 17.7918 17.5734 17.76C17.5139 17.7432 17.4591 17.7127 17.4134 17.6711C17.3746 17.635 17.3441 17.5908 17.3242 17.5417C17.3042 17.4925 17.2952 17.4397 17.2978 17.3867C17.2807 17.2956 17.2807 17.2022 17.2978 17.1111C17.3508 16.9483 17.3924 16.782 17.4223 16.6134C17.4436 16.4839 17.4436 16.3517 17.4223 16.2222C17.42 16.1759 17.4085 16.1305 17.3884 16.0887C17.3683 16.0469 17.34 16.0095 17.3051 15.9788C17.2703 15.9482 17.2297 15.9248 17.1857 15.9101C17.1417 15.8954 17.0952 15.8897 17.0489 15.8934C16.8719 15.8963 16.6959 15.9202 16.5245 15.9645C16.3397 15.993 16.1703 16.084 16.0445 16.2222C15.8343 16.482 15.6854 16.7859 15.6089 17.1111C15.5505 17.3204 15.4637 17.5208 15.3511 17.7067C15.3288 17.7477 15.2986 17.784 15.2623 17.8134C15.2623 17.8134 15.2178 17.8667 15.1911 17.8667V17.8489Z" fill="#41AC4F"/>
<path fill-rule="evenodd" clip-rule="evenodd" d="M26.6666 17.6622C26.4206 17.6409 26.1785 17.5871 25.9466 17.5022C25.8425 17.4644 25.7484 17.4036 25.671 17.3244C25.6113 17.2292 25.5891 17.1151 25.6088 17.0044C25.6111 16.8555 25.6537 16.71 25.7319 16.5833C25.8101 16.4565 25.9212 16.3533 26.0532 16.2844C26.1676 16.2309 26.2915 16.2007 26.4177 16.1956C26.4177 16.1956 26.4177 16.1956 26.4177 16.1956C26.295 16.3317 26.2174 16.5025 26.1955 16.6844C26.1947 16.7536 26.2105 16.8219 26.2414 16.8837C26.2723 16.9455 26.3175 16.9991 26.3732 17.04C26.4858 17.1511 26.6077 17.2522 26.7377 17.3422C26.9155 17.4578 26.9688 17.52 26.9688 17.5733C26.9689 17.5908 26.9627 17.6076 26.9512 17.6207C26.9397 17.6338 26.9238 17.6423 26.9066 17.6444C26.8278 17.6619 26.747 17.6679 26.6666 17.6622Z" fill="#00AAE3"/>
<path fill-rule="evenodd" clip-rule="evenodd" d="M24.9422 16.4711C24.32 16.1422 24.0533 15.7777 24.0533 15.3422C24.0832 14.9242 24.2111 14.5192 24.4267 14.16C24.5689 13.8933 24.7467 13.6355 24.8889 13.3955C25.0199 13.166 25.1016 12.9117 25.1289 12.6488C25.1274 12.5258 25.0987 12.4047 25.0449 12.2941C24.9911 12.1834 24.9136 12.086 24.8178 12.0088C24.742 11.9761 24.6603 11.9592 24.5778 11.9592C24.4952 11.9592 24.4136 11.9761 24.3378 12.0088C24.1443 12.0664 23.9634 12.1599 23.8045 12.2844H23.76C23.76 12.2844 23.76 12.2844 23.8133 12.2222C24.0818 11.9342 24.4382 11.7435 24.8267 11.68C24.9597 11.6663 25.0937 11.6663 25.2267 11.68C25.4151 11.7166 25.5866 11.8133 25.7156 11.9555C25.8017 11.9132 25.8776 11.8525 25.9378 11.7777L26.0889 11.6444C26.1317 11.6098 26.185 11.591 26.24 11.5911C26.258 11.652 26.258 11.7168 26.24 11.7777C26.204 11.8778 26.1562 11.9733 26.0978 12.0622C25.9038 12.3995 25.687 12.7232 25.4489 13.0311C25.2279 13.3156 25.0232 13.6124 24.8356 13.92C24.6538 14.1829 24.5464 14.49 24.5245 14.8088C24.5178 14.9035 24.5178 14.9986 24.5245 15.0933C24.512 15.2026 24.512 15.3129 24.5245 15.4222C24.5759 15.795 24.7128 16.1509 24.9245 16.4622V16.5155H24.8267L24.9422 16.4711Z" fill="#00AAE3"/>
<path fill-rule="evenodd" clip-rule="evenodd" d="M13.8134 23.1111V22.0089H13.4045V21.8667H14.3734V22.0089H13.9734V23.1111H13.8134ZM15.2179 22.9956C15.1681 23.0363 15.1146 23.072 15.0579 23.1023C15.002 23.1115 14.9449 23.1115 14.889 23.1023C14.8086 23.1074 14.7292 23.082 14.6668 23.0311C14.6401 23.0082 14.619 22.9794 14.6052 22.9471C14.5913 22.9147 14.585 22.8796 14.5868 22.8445C14.5786 22.8064 14.5786 22.767 14.5868 22.7289C14.6058 22.6932 14.6333 22.6627 14.6668 22.64C14.699 22.6183 14.7353 22.6032 14.7734 22.5956H14.9068C14.9981 22.5939 15.0884 22.5758 15.1734 22.5423C15.1734 22.48 15.1734 22.4356 15.1734 22.4178C15.1225 22.3793 15.0594 22.3604 14.9957 22.3645C14.9468 22.3468 14.8934 22.3468 14.8445 22.3645C14.8038 22.3988 14.7757 22.4457 14.7645 22.4978H14.6223C14.6303 22.4404 14.6517 22.3856 14.6845 22.3378C14.7207 22.2974 14.7666 22.2668 14.8179 22.2489C14.8857 22.2391 14.9545 22.2391 15.0223 22.2489C15.0841 22.239 15.1472 22.239 15.209 22.2489C15.2469 22.2598 15.2809 22.2814 15.3068 22.3111C15.3347 22.3406 15.3533 22.3777 15.3601 22.4178C15.3601 22.4178 15.3601 22.4889 15.3601 22.5511V22.7556C15.3534 22.8444 15.3534 22.9335 15.3601 23.0223C15.3524 23.0574 15.3524 23.0938 15.3601 23.1289H15.2001C15.1901 23.0779 15.1963 23.0251 15.2179 22.9778V22.9956ZM15.2179 22.6667L14.9779 22.72H14.8445L14.7823 22.7734C14.7773 22.7968 14.7773 22.821 14.7823 22.8445C14.7813 22.8632 14.7847 22.8818 14.7925 22.8988C14.8002 22.9159 14.812 22.9308 14.8268 22.9423C14.8637 22.9739 14.9116 22.9898 14.9601 22.9867C15.0135 22.9855 15.0657 22.9702 15.1112 22.9423C15.1567 22.9225 15.1942 22.8881 15.2179 22.8445C15.2238 22.7943 15.2238 22.7436 15.2179 22.6934V22.6667ZM15.9023 23.1111V22.2223H16.0001V22.3467C16.0318 22.3044 16.071 22.2683 16.1157 22.24C16.1657 22.2163 16.2203 22.204 16.2757 22.204C16.331 22.204 16.3856 22.2163 16.4357 22.24C16.477 22.268 16.5082 22.3085 16.5245 22.3556C16.5542 22.3094 16.595 22.2714 16.6431 22.245C16.6912 22.2186 16.7452 22.2047 16.8001 22.2045C16.8373 22.2014 16.8746 22.2061 16.9099 22.2184C16.9451 22.2306 16.9773 22.2501 17.0045 22.2756C17.0554 22.3381 17.0808 22.4174 17.0757 22.4978V23.1111H16.9245V22.5511C16.9314 22.507 16.9314 22.462 16.9245 22.4178C16.915 22.3912 16.896 22.3691 16.8712 22.3556C16.8422 22.3467 16.8113 22.3467 16.7823 22.3556C16.7234 22.3574 16.667 22.3794 16.6223 22.4178C16.5794 22.4771 16.5575 22.5491 16.5601 22.6223V23.1111H16.4179V22.5334C16.4348 22.4844 16.4348 22.4312 16.4179 22.3823C16.4052 22.3638 16.3878 22.3491 16.3674 22.3397C16.3471 22.3303 16.3246 22.3266 16.3023 22.3289C16.2643 22.3199 16.2247 22.3199 16.1868 22.3289C16.1508 22.3527 16.1229 22.3868 16.1068 22.4267C16.0954 22.4884 16.0954 22.5517 16.1068 22.6134V23.1111H15.9023ZM18.2134 22.9956C18.1622 23.0385 18.1054 23.0744 18.0445 23.1023C17.9916 23.1116 17.9375 23.1116 17.8845 23.1023C17.8016 23.1063 17.7198 23.0811 17.6534 23.0311C17.6268 23.0082 17.6057 22.9794 17.5918 22.9471C17.578 22.9147 17.5717 22.8796 17.5734 22.8445C17.5658 22.8063 17.5658 22.7671 17.5734 22.7289C17.5925 22.6932 17.6199 22.6627 17.6534 22.64C17.6857 22.6183 17.7219 22.6032 17.7601 22.5956H17.8934C17.9848 22.5939 18.0751 22.5758 18.1601 22.5423C18.1601 22.48 18.1601 22.4356 18.1157 22.4178C18.0927 22.3978 18.0658 22.3828 18.0367 22.3736C18.0077 22.3644 17.9771 22.3613 17.9468 22.3645C17.8947 22.3481 17.8388 22.3481 17.7868 22.3645C17.7525 22.4024 17.728 22.4482 17.7157 22.4978H17.5645C17.5755 22.4397 17.5999 22.3849 17.6357 22.3378C17.6708 22.2863 17.7202 22.2461 17.7779 22.2223C17.8456 22.2117 17.9146 22.2117 17.9823 22.2223C18.0411 22.2116 18.1013 22.2116 18.1601 22.2223C18.2014 22.2309 18.2389 22.2528 18.2668 22.2845C18.292 22.3147 18.3075 22.3519 18.3112 22.3911C18.317 22.4354 18.317 22.4802 18.3112 22.5245V22.7289C18.3112 22.8711 18.3112 22.9511 18.3112 22.9956C18.3074 23.031 18.3074 23.0668 18.3112 23.1023H18.2223C18.2028 23.0638 18.1936 23.0209 18.1957 22.9778L18.2134 22.9956ZM18.2134 22.6667L17.9645 22.72H17.8401L17.7779 22.7734C17.7689 22.7962 17.7689 22.8216 17.7779 22.8445C17.7707 22.8598 17.767 22.8765 17.767 22.8934C17.767 22.9103 17.7707 22.9269 17.7779 22.9423C17.8148 22.9739 17.8627 22.9898 17.9112 22.9867C17.9646 22.9855 18.0168 22.9702 18.0623 22.9423C18.0843 22.9333 18.1043 22.9201 18.1211 22.9033C18.1379 22.8865 18.1512 22.8665 18.1601 22.8445C18.1709 22.7947 18.1709 22.7432 18.1601 22.6934L18.2134 22.6667ZM18.8979 23.1111V22.2223H19.0312V22.3467C19.0621 22.3003 19.1046 22.2627 19.1545 22.2378C19.2044 22.2128 19.26 22.2013 19.3157 22.2045C19.3657 22.196 19.4167 22.196 19.4668 22.2045C19.5042 22.2206 19.5376 22.2449 19.5645 22.2756C19.5847 22.3118 19.5996 22.3507 19.609 22.3911C19.6147 22.4384 19.6147 22.4861 19.609 22.5334V23.1111H19.4579V22.5689C19.4647 22.5247 19.4647 22.4798 19.4579 22.4356C19.4477 22.4022 19.4255 22.3737 19.3957 22.3556C19.3609 22.3452 19.3238 22.3452 19.289 22.3556C19.2301 22.3574 19.1736 22.3794 19.129 22.4178C19.1023 22.4496 19.0823 22.4865 19.0701 22.5262C19.0578 22.5659 19.0537 22.6076 19.0579 22.6489V23.1111H18.8979ZM20.6757 23.1111V21.8667H20.8445V23.1111H20.6757ZM21.3334 23.1111V22.2223H21.4757V22.3467C21.5223 22.2809 21.591 22.234 21.6692 22.2144C21.7475 22.1948 21.8302 22.2039 21.9023 22.24C21.9436 22.268 21.9748 22.3085 21.9912 22.3556C22.0209 22.3094 22.0616 22.2714 22.1098 22.245C22.1579 22.2186 22.2119 22.2047 22.2668 22.2045C22.304 22.2002 22.3417 22.2043 22.3771 22.2166C22.4125 22.229 22.4447 22.2491 22.4712 22.2756C22.522 22.3381 22.5474 22.4174 22.5423 22.4978V23.1111H22.3912V22.5511C22.3981 22.507 22.3981 22.462 22.3912 22.4178C22.3816 22.3912 22.3627 22.3691 22.3379 22.3556C22.3089 22.3467 22.2779 22.3467 22.249 22.3556C22.2209 22.3555 22.1932 22.361 22.1672 22.3717C22.1413 22.3823 22.1177 22.398 22.0979 22.4178C22.0513 22.4753 22.029 22.5486 22.0357 22.6223V23.1111H21.8845V22.5334C21.897 22.4838 21.897 22.4319 21.8845 22.3823C21.8694 22.3643 21.8502 22.3501 21.8286 22.3409C21.807 22.3316 21.7836 22.3275 21.7601 22.3289C21.7221 22.3199 21.6825 22.3199 21.6445 22.3289C21.6086 22.3527 21.5807 22.3868 21.5645 22.4267C21.5532 22.4884 21.5532 22.5517 21.5645 22.6134V23.1111H21.3334ZM23.0579 23.4489V22.2223H23.2001V22.3378C23.2263 22.2963 23.2631 22.2625 23.3068 22.24C23.3561 22.226 23.4085 22.226 23.4579 22.24C23.5291 22.2376 23.5993 22.2578 23.6584 22.2977C23.7175 22.3377 23.7624 22.3952 23.7868 22.4623C23.8152 22.536 23.8302 22.6143 23.8312 22.6934C23.8301 22.7782 23.8151 22.8623 23.7868 22.9423C23.7569 23.0089 23.7073 23.0648 23.6445 23.1023C23.5874 23.1428 23.519 23.1645 23.449 23.1645C23.4025 23.1778 23.3532 23.1778 23.3068 23.1645C23.2684 23.1457 23.2349 23.1184 23.209 23.0845V23.52L23.0579 23.4489ZM23.2001 22.6667C23.1894 22.7586 23.2149 22.8511 23.2712 22.9245C23.2901 22.9491 23.3143 22.969 23.342 22.9829C23.3697 22.9968 23.4002 23.0041 23.4312 23.0045C23.4657 23.0045 23.4997 22.9964 23.5306 22.981C23.5614 22.9656 23.5883 22.9432 23.609 22.9156C23.6609 22.8401 23.686 22.7493 23.6801 22.6578C23.6846 22.5665 23.6597 22.4761 23.609 22.4C23.5883 22.3752 23.5625 22.3552 23.5334 22.3414C23.5042 22.3276 23.4724 22.3203 23.4401 22.32C23.407 22.3207 23.3745 22.3291 23.3452 22.3445C23.3158 22.36 23.2905 22.382 23.2712 22.4089C23.2343 22.4832 23.2189 22.5663 23.2268 22.6489L23.2001 22.6667ZM24.3112 22.0534V21.8667H24.4623V22.0356L24.3112 22.0534ZM24.3112 23.1111V22.2223H24.4623V23.1111H24.3112ZM25.5734 22.9956C25.5266 23.0401 25.4725 23.0762 25.4134 23.1023C25.3575 23.1115 25.3005 23.1115 25.2445 23.1023C25.1643 23.1065 25.0852 23.0812 25.0223 23.0311C24.9957 23.0082 24.9746 22.9794 24.9607 22.9471C24.9469 22.9147 24.9406 22.8796 24.9423 22.8445C24.9342 22.8064 24.9342 22.767 24.9423 22.7289C24.9614 22.6932 24.9888 22.6627 25.0223 22.64L25.129 22.5956H25.2623C25.3537 22.5939 25.444 22.5758 25.529 22.5423C25.5315 22.5195 25.5288 22.4965 25.5211 22.4749C25.5134 22.4534 25.5009 22.4338 25.4845 22.4178C25.4336 22.3793 25.3705 22.3604 25.3068 22.3645C25.2577 22.3482 25.2047 22.3482 25.1557 22.3645C25.1149 22.3988 25.0868 22.4457 25.0757 22.4978H24.9334C24.9415 22.4404 24.9628 22.3856 24.9957 22.3378C25.035 22.3012 25.08 22.2712 25.129 22.2489C25.1968 22.2391 25.2656 22.2391 25.3334 22.2489C25.3953 22.239 25.4583 22.239 25.5201 22.2489C25.5595 22.2623 25.5957 22.2835 25.6268 22.3111C25.6485 22.3434 25.6636 22.3797 25.6712 22.4178C25.6712 22.4178 25.6712 22.4889 25.6712 22.5511V22.7556C25.6645 22.8444 25.6645 22.9335 25.6712 23.0223C25.6976 23.0614 25.7346 23.0922 25.7779 23.1111H25.6179C25.5998 23.0692 25.5937 23.023 25.6001 22.9778L25.5734 22.9956ZM25.5734 22.6667L25.3245 22.72H25.1912L25.129 22.7734C25.1239 22.7968 25.1239 22.821 25.129 22.8445C25.1305 22.8816 25.1464 22.9167 25.1734 22.9423C25.2119 22.9711 25.2587 22.9867 25.3068 22.9867C25.363 22.9858 25.4181 22.9705 25.4668 22.9423C25.5097 22.922 25.5443 22.8874 25.5645 22.8445C25.5748 22.7946 25.5748 22.7432 25.5645 22.6934L25.5734 22.6667ZM26.249 23.1111V22.2223H26.3912V22.3467C26.4228 22.3042 26.4646 22.2705 26.5129 22.2488C26.5611 22.227 26.614 22.2179 26.6668 22.2223C26.7167 22.2131 26.7679 22.2131 26.8179 22.2223C26.8566 22.236 26.8906 22.2607 26.9157 22.2934C26.9422 22.3272 26.9605 22.3668 26.969 22.4089V23.1111H26.8445V22.5689C26.8514 22.5247 26.8514 22.4798 26.8445 22.4356C26.8312 22.4039 26.8097 22.3763 26.7823 22.3556C26.7472 22.3476 26.7108 22.3476 26.6757 22.3556C26.6141 22.3575 26.5548 22.3793 26.5068 22.4178C26.4801 22.4496 26.46 22.4865 26.4478 22.5262C26.4356 22.5659 26.4315 22.6076 26.4357 22.6489V23.1111H26.249Z" fill="#004A82"/>
</g>
<defs>
<clipPath id="clip0_2707_289618">
<rect width="32" height="32" fill="white"/>
</clipPath>
</defs>
</svg>
