<svg width="32" height="32" viewBox="0 0 32 32" fill="none" xmlns="http://www.w3.org/2000/svg">
<g clip-path="url(#clip0_2707_289128)">
<path d="M16 31.9822C24.8268 31.9822 31.9823 24.8267 31.9823 16C31.9823 7.17325 24.8268 0.0177612 16 0.0177612C7.17331 0.0177612 0.0178223 7.17325 0.0178223 16C0.0178223 24.8267 7.17331 31.9822 16 31.9822Z" fill="white"/>
<path d="M3.80449 20.0355V18.1777C3.81769 18.0358 3.81769 17.893 3.80449 17.7511C3.79693 17.7061 3.77719 17.6642 3.74741 17.6297C3.71763 17.5952 3.67895 17.5695 3.6356 17.5555H4.52449C4.46892 17.5789 4.42223 17.6194 4.39115 17.6711C4.36104 17.7298 4.34006 17.7927 4.32893 17.8577C4.32893 17.9377 4.32893 18.0444 4.32893 18.1777V20.0355C4.32239 20.1599 4.32239 20.2845 4.32893 20.4089C4.34154 20.4735 4.36246 20.5362 4.39115 20.5955C4.42668 20.6375 4.46869 20.6735 4.5156 20.7022H3.62671C3.67025 20.6858 3.70874 20.6583 3.73837 20.6225C3.76799 20.5866 3.78772 20.5436 3.7956 20.4977C3.8093 20.344 3.8093 20.1893 3.7956 20.0355M5.0756 20.1333V18.0977C5.08442 17.9767 5.0662 17.8553 5.02226 17.7422C4.96948 17.665 4.89949 17.6011 4.81782 17.5555H5.52893C5.56456 17.6409 5.6193 17.7169 5.68893 17.7777L7.46671 20V18.1066C7.46576 17.9942 7.44469 17.8828 7.40449 17.7777C7.38719 17.7299 7.36007 17.6862 7.32485 17.6494C7.28964 17.6127 7.24713 17.5837 7.20004 17.5644H8.08893C8.03424 17.5969 7.98352 17.6357 7.93782 17.68C7.89726 17.7251 7.86962 17.7804 7.85782 17.84C7.84605 17.9404 7.84605 18.0418 7.85782 18.1422V20.8711C7.72346 20.843 7.59821 20.7819 7.49338 20.6933C7.39587 20.6102 7.30657 20.5179 7.22671 20.4177L5.43115 18.2222V20.1333C5.41897 20.2277 5.41897 20.3233 5.43115 20.4177C5.44216 20.4759 5.4665 20.5306 5.50226 20.5777L5.65338 20.7022H4.76449C4.8548 20.6606 4.92729 20.5881 4.96893 20.4977C5.01196 20.3813 5.03013 20.2572 5.02226 20.1333M8.47115 20.2222V18C8.47115 17.7511 8.40004 17.6 8.24893 17.5555H9.51115C9.85241 17.5463 10.1908 17.6195 10.4978 17.7689C10.7533 17.8956 10.9641 18.0971 11.1023 18.3466C11.2369 18.5902 11.3075 18.8639 11.3075 19.1422C11.3075 19.4205 11.2369 19.6942 11.1023 19.9377C10.9517 20.1837 10.7365 20.3836 10.48 20.5155C10.1657 20.6719 9.81763 20.7482 9.46671 20.7377H8.31115C8.38881 20.686 8.45066 20.6137 8.48987 20.529C8.52909 20.4443 8.54414 20.3505 8.53338 20.2577M9.02226 20.3733L9.36893 20.4177C9.58724 20.4081 9.80291 20.3662 10.0089 20.2933C10.2078 20.2202 10.383 20.0942 10.5156 19.9289C10.6584 19.7494 10.7366 19.5271 10.7378 19.2977V19.2C10.7408 19.1823 10.7408 19.1643 10.7378 19.1466C10.7536 18.8777 10.6852 18.6105 10.5423 18.3822C10.4298 18.206 10.2651 18.0692 10.0712 17.9911C9.87457 17.9197 9.66695 17.8836 9.45782 17.8844C9.30822 17.8866 9.15926 17.9045 9.01338 17.9377L9.02226 20.3733ZM11.5556 19.1644C11.5593 18.9227 11.6107 18.6841 11.7067 18.4622C11.7935 18.2608 11.9206 18.0793 12.08 17.9289C12.2452 17.7818 12.4347 17.6645 12.64 17.5822C12.8529 17.5007 13.0788 17.4586 13.3067 17.4577C13.5391 17.4563 13.7702 17.4923 13.9912 17.5644C14.1958 17.636 14.3856 17.7445 14.5512 17.8844C14.7135 18.0295 14.8463 18.2045 14.9423 18.4C15.0372 18.607 15.0916 18.8303 15.1023 19.0577C15.099 19.3493 15.0259 19.6359 14.8889 19.8933C14.7509 20.1587 14.5415 20.3803 14.2845 20.5333C14.0033 20.6999 13.6825 20.7878 13.3556 20.7878C13.0287 20.7878 12.7079 20.6999 12.4267 20.5333C12.1613 20.396 11.9373 20.1904 11.7778 19.9377C11.6293 19.7037 11.5492 19.4327 11.5467 19.1555L11.5556 19.1644ZM12.1067 19.1644C12.1128 19.3943 12.1804 19.6183 12.3023 19.8133C12.4135 20.0073 12.5726 20.1695 12.7645 20.2844C12.956 20.4046 13.1784 20.4663 13.4045 20.4622C13.5839 20.4552 13.7597 20.4097 13.92 20.3289C14.0637 20.2583 14.1886 20.1547 14.2845 20.0266C14.3751 19.9093 14.4443 19.7769 14.4889 19.6355C14.5283 19.4876 14.5492 19.3353 14.5512 19.1822C14.5512 19.1822 14.5512 19.1022 14.5512 19.0311C14.5256 18.8201 14.4623 18.6153 14.3645 18.4266C14.2628 18.2466 14.1157 18.0965 13.9378 17.9911C13.7617 17.8621 13.5514 17.7879 13.3334 17.7777C13.1152 17.7819 12.9015 17.8399 12.7112 17.9466C12.531 18.0542 12.3858 18.2116 12.2934 18.4C12.1824 18.6234 12.1275 18.8705 12.1334 19.12M15.6889 20.1066V18.0977C15.7023 17.9766 15.6839 17.8541 15.6356 17.7422C15.5864 17.6652 15.5193 17.6011 15.44 17.5555H16.1512C16.1782 17.6434 16.2271 17.7229 16.2934 17.7866L18.0712 20.0089V18.1066C18.077 17.9923 18.0619 17.8778 18.0267 17.7689C18.0094 17.721 17.9823 17.6773 17.9471 17.6405C17.9119 17.6038 17.8693 17.5748 17.8223 17.5555H18.7112C18.6525 17.586 18.5985 17.6249 18.5512 17.6711C18.5138 17.7172 18.4893 17.7724 18.48 17.8311C18.468 17.9285 18.468 18.027 18.48 18.1244V20.8622C18.3456 20.8345 18.2202 20.7733 18.1156 20.6844C18.0108 20.6065 17.918 20.5136 17.84 20.4089L15.9467 18.2222V20.1333C15.9496 20.239 15.9676 20.3438 16 20.4444C16.011 20.5025 16.0354 20.5573 16.0712 20.6044L16.2223 20.7289H15.3334C15.4195 20.6844 15.4883 20.6124 15.5289 20.5244C15.572 20.408 15.5901 20.2838 15.5823 20.16M19.0756 20.2666V18.1155C19.0875 17.9943 19.0875 17.8723 19.0756 17.7511C19.064 17.7065 19.0418 17.6655 19.0108 17.6314C18.9798 17.5973 18.9411 17.5713 18.8978 17.5555H20.4445H20.5245L20.6756 17.5111V18.08C20.6094 18.0104 20.5269 17.9585 20.4356 17.9289C20.3197 17.8976 20.2001 17.8826 20.08 17.8844H19.5556V18.7733H20.1245C20.1976 18.7706 20.2697 18.7556 20.3378 18.7289V19.2533C20.2845 19.1555 20.1512 19.1111 19.9289 19.1111H19.5556V20.2577H19.9289H20.2134H20.3112C20.5873 20.2407 20.8514 20.1382 21.0667 19.9644L20.8445 20.5955H18.88C19.0134 20.5422 19.0934 20.3822 19.0934 20.1333M21.3334 18.2933C21.3337 18.1226 21.397 17.958 21.5112 17.8311C21.6329 17.7022 21.7861 17.6073 21.9556 17.5555C22.1536 17.4918 22.361 17.4617 22.5689 17.4666C22.8039 17.4693 23.0373 17.5052 23.2623 17.5733V18.1066C23.1599 18.0094 23.039 17.9338 22.9067 17.8844C22.775 17.8392 22.637 17.8152 22.4978 17.8133C22.3631 17.81 22.2293 17.8373 22.1067 17.8933C22.0585 17.9165 22.016 17.95 21.9822 17.9915C21.9484 18.033 21.9241 18.0814 21.9112 18.1333C21.9076 18.1688 21.9076 18.2045 21.9112 18.24C21.9085 18.306 21.9226 18.3715 21.9521 18.4306C21.9817 18.4897 22.0257 18.5403 22.08 18.5777C22.2304 18.6854 22.3912 18.7777 22.56 18.8533L22.96 19.0489C23.1152 19.1218 23.2565 19.221 23.3778 19.3422C23.44 19.4015 23.4888 19.4735 23.521 19.5532C23.5532 19.6329 23.568 19.7185 23.5645 19.8044C23.56 19.9947 23.4946 20.1785 23.3778 20.3289C23.2474 20.4825 23.0787 20.599 22.8889 20.6666C22.6758 20.7585 22.4455 20.804 22.2134 20.8C21.9412 20.7922 21.6716 20.7443 21.4134 20.6577L21.28 20.0533C21.4248 20.1764 21.5904 20.2727 21.7689 20.3377C21.9149 20.3924 22.0672 20.4282 22.2223 20.4444C22.399 20.4381 22.572 20.3926 22.7289 20.3111C22.7983 20.2788 22.8569 20.2273 22.8979 20.1627C22.9388 20.0981 22.9604 20.0231 22.96 19.9466C22.96 19.7244 22.8 19.5377 22.4712 19.3866L21.92 19.1377C21.8171 19.084 21.719 19.0215 21.6267 18.9511C21.5285 18.8768 21.4468 18.783 21.3867 18.6755C21.3224 18.5584 21.2887 18.4269 21.2889 18.2933M24.0534 20.0711V18.1777C24.0514 18.0428 24.0335 17.9085 24 17.7777C23.9918 17.7317 23.9707 17.689 23.9393 17.6544C23.9078 17.6198 23.8673 17.5948 23.8223 17.5822H24.7112C24.6541 17.6031 24.6067 17.6442 24.5778 17.6977C24.5399 17.7529 24.5184 17.8176 24.5156 17.8844C24.5156 17.9644 24.5156 18.0711 24.5156 18.2044V20.0622C24.5156 20.2311 24.5156 20.3466 24.5156 20.4355C24.5242 20.5012 24.5453 20.5645 24.5778 20.6222C24.6148 20.6662 24.6601 20.7024 24.7112 20.7289H23.8223C23.867 20.713 23.9069 20.6858 23.938 20.65C23.9692 20.6142 23.9905 20.5709 24 20.5244C24.0182 20.3709 24.0182 20.2157 24 20.0622M25.36 20.0622L26.1867 17.9822C26.241 17.9227 26.2833 17.8533 26.3112 17.7777C26.3139 17.7334 26.2999 17.6896 26.2719 17.655C26.2439 17.6205 26.204 17.5977 26.16 17.5911H26.9245L27.9912 20.2577C28.0398 20.3712 28.0962 20.481 28.16 20.5866C28.2255 20.6702 28.3071 20.7397 28.4 20.7911H27.4223C27.5289 20.7377 27.5912 20.6844 27.5912 20.6311C27.5863 20.5591 27.5651 20.4891 27.5289 20.4266L27.2178 19.5555H26.0089L25.7245 20.3377C25.7008 20.3981 25.683 20.4606 25.6712 20.5244C25.6769 20.5747 25.6978 20.6221 25.7311 20.6603C25.7645 20.6984 25.8087 20.7254 25.8578 20.7377H24.9689C25.026 20.7013 25.0795 20.6596 25.1289 20.6133L25.2534 20.4533C25.2534 20.3911 25.3156 20.3289 25.3423 20.2489C25.3732 20.1886 25.3999 20.1262 25.4223 20.0622M26.1156 19.1733H27.0756L26.5956 17.9555L26.1156 19.1733Z" fill="#BA8C49"/>
<path d="M12.0001 22.9867C12.0001 22.9867 12.2312 23.28 12.3468 23.4489H12.0801L11.7423 23.0044H11.5557V23.4489H11.3157V22.2222C11.5662 22.1897 11.8207 22.2109 12.0623 22.2844C12.1113 22.3081 12.1542 22.3427 12.1877 22.3855C12.2212 22.4284 12.2444 22.4784 12.2556 22.5316C12.2667 22.5848 12.2655 22.6399 12.2521 22.6926C12.2386 22.7453 12.2132 22.7942 12.1779 22.8355L12.0001 22.9867ZM11.5557 22.4V22.7644C11.9023 22.8178 11.9646 22.7644 12.0001 22.6844C12.0166 22.6323 12.014 22.5759 11.9929 22.5255C11.9717 22.475 11.9333 22.4337 11.8846 22.4089C11.7766 22.3841 11.6648 22.3811 11.5557 22.4Z" fill="#33B7E4"/>
<path d="M13.1201 23.4489V22.2222H13.9468V22.4178H13.3335V22.7378H13.8046V22.9511H13.3335V23.2711H13.929C13.9246 23.3392 13.9246 23.4075 13.929 23.4756L13.1201 23.4489Z" fill="#33B7E4"/>
<path d="M15.1645 22.2222C15.3245 22.2222 15.3512 22.2222 15.4045 22.3733C15.4579 22.5245 15.609 22.8978 15.6534 23.0045C15.6979 23.1111 15.7779 23.3333 15.8312 23.4933H15.6356L15.5023 23.1111H15.0312L14.8445 23.4222H14.6667C14.8267 23.04 14.9956 22.6222 15.1645 22.2222ZM15.0845 22.9511H15.4312L15.289 22.5333H15.2445L15.0845 22.9511Z" fill="#33B7E4"/>
<path d="M18.2577 23.4489V22.4H17.8755V22.2222H18.8977V22.4178H18.4977V23.4845L18.2577 23.4489Z" fill="#33B7E4"/>
<path d="M17.449 23.2445V23.4489H16.6223V22.2222H16.889V23.28L17.449 23.2445Z" fill="#33B7E4"/>
<path d="M20.2401 23.4578H19.9912C19.9912 23.3422 19.9912 22.9156 19.9912 22.9156L19.5557 22.2222H19.769L20.1334 22.7733L20.4446 22.2222H20.6223L20.1957 22.9689C20.1957 22.9689 20.2401 23.3156 20.2401 23.4578Z" fill="#33B7E4"/>
<path d="M21.0756 15.3244C20.057 15.3744 19.0497 15.5598 18.08 15.8755C17.0295 16.1884 16.0161 16.6146 15.0578 17.1466C14.72 17.3333 14.6667 17.2533 14.88 16.9866C15.3245 16.4355 15.8489 15.9733 16.3734 15.4133C17.1645 14.5244 18 13.6355 18.8534 12.7911C19.1556 12.4889 18.9156 12.3289 18.5156 12.3733C17.8401 12.4635 17.1932 12.7034 16.6222 13.0755C16.4 13.2266 16.5067 13.5289 16.7822 13.3778C17.0578 13.2266 17.5645 12.96 17.9378 12.7911C18.1156 12.72 18.2845 12.7911 18.0978 12.9866C17.6978 13.4133 17.28 13.8755 16.8622 14.2489C16.4085 14.6684 15.9275 15.0574 15.4222 15.4133C15.04 15.6889 14.96 15.4133 15.0756 15.1911C15.3871 14.494 15.7527 13.8223 16.1689 13.1822C16.3556 12.88 16.0978 12.6755 15.8756 12.9511C15.6869 12.8656 15.4797 12.8289 15.2731 12.8445C15.0665 12.86 14.8672 12.9272 14.6934 13.04C14.1627 13.3818 13.7209 13.8449 13.4045 14.3911C13.1828 14.7928 13.0097 15.2195 12.8889 15.6622C12.5334 15.9822 12.0534 16.4711 11.6711 16.7733C11.5289 16.88 11.4045 16.88 11.5111 16.6222C11.7956 15.9911 12.1867 15.2622 12.5422 14.64C12.8978 14.0178 13.4311 13.1289 13.9289 12.4266C14.1956 12.0355 14.48 11.7511 14.7111 11.3422C14.8622 11.0755 14.5867 10.96 14.4534 11.1466C13.8489 11.9822 13.3245 12.7378 12.7911 13.6266C12.1304 14.6724 11.5366 15.7591 11.0134 16.88C10.8178 17.3244 11.1111 17.6 11.44 17.36C11.9467 16.9955 12.3289 16.5422 12.8534 16.1333C12.8838 16.2041 12.9285 16.2679 12.9847 16.3206C13.0409 16.3733 13.1073 16.4139 13.1799 16.4398C13.2525 16.4656 13.3297 16.4762 13.4065 16.4709C13.4834 16.4656 13.5584 16.4445 13.6267 16.4089C14.0046 16.2235 14.3266 15.9414 14.56 15.5911C14.5806 15.6649 14.6166 15.7335 14.6657 15.7924C14.7147 15.8513 14.7757 15.8991 14.8446 15.9327C14.9134 15.9663 14.9886 15.9849 15.0652 15.9873C15.1418 15.9897 15.2181 15.9759 15.2889 15.9466C14.5156 16.8355 13.76 17.7955 12.9956 18.7289C12.7111 19.0755 13.0578 19.2444 13.3689 18.8978C13.7847 18.4703 14.2502 18.0943 14.7556 17.7778C15.4916 17.2864 16.2747 16.8695 17.0934 16.5333C18.3824 16.0438 19.7359 15.7444 21.1111 15.6444C21.4134 15.5822 21.3334 15.3155 21.0756 15.3244ZM13.7156 16C13.4489 16.2311 13.1911 16.1778 13.2622 15.7333C13.4152 15.1059 13.7205 14.5258 14.1511 14.0444C14.4066 13.758 14.7068 13.5149 15.04 13.3244C15.3511 13.12 15.7067 13.2 15.5467 13.52C15.3466 13.9382 15.1179 14.3421 14.8622 14.7289C14.551 15.2116 14.1638 15.6408 13.7156 16Z" fill="#00ACED"/>
<path d="M13.0224 12.3466C12.9157 11.9822 12.4801 11.9022 12.0268 11.9022C12.0268 11.8044 12.089 11.7777 12.1335 11.6711C12.1779 11.5644 11.9201 11.4133 11.8313 11.5555C11.7424 11.6977 11.5913 11.9289 11.4935 12.0889C10.2064 12.5171 8.99019 13.1342 7.88459 13.92C7.17479 14.3877 6.50307 14.9108 5.8757 15.4844C5.65348 15.6889 5.8757 15.9822 6.08015 15.7955C6.80904 15.2355 7.48459 14.6222 8.26681 14.1066C9.1667 13.4637 10.1431 12.9352 11.1735 12.5333C10.8357 13.1644 10.4801 13.7866 10.1424 14.4266C9.72459 15.2266 9.36904 16.0355 8.94237 16.8444C8.80904 17.0933 9.17348 17.3155 9.30681 17.0577C9.61793 16.4533 9.84904 15.92 10.1246 15.28C10.9251 14.9366 11.6661 14.4685 12.3201 13.8933C12.7024 13.5289 13.1557 12.8177 13.0224 12.3466ZM12.0535 13.6711C11.5892 14.1162 11.0468 14.4718 10.4535 14.72C10.8226 13.8677 11.2814 13.0572 11.8224 12.3022C12.1335 12.3022 12.4801 12.1955 12.6668 12.4889C12.8535 12.7822 12.3824 13.3333 12.0535 13.6711Z" fill="#00ACED"/>
<path d="M27.5556 12.96C26.9698 12.8501 26.3732 12.8083 25.7778 12.8355C25.1465 12.8623 24.5202 12.9607 23.9111 13.1289C23.3693 13.2757 22.8402 13.466 22.3289 13.6978C21.68 13.9911 21.0311 14.3111 20.4089 14.6578C20.1245 14.8266 19.8222 14.6578 19.8222 14.4533C19.8711 14.1322 19.996 13.8274 20.1867 13.5644C20.4534 13.1911 20.6934 12.8355 20.96 12.4711C21.1022 12.2844 20.96 12.0444 20.6311 12.2844C20.5352 12.2177 20.425 12.1741 20.3093 12.1571C20.1936 12.1401 20.0756 12.1503 19.9645 12.1866C19.4432 12.3923 18.9926 12.7442 18.6667 13.2C18.4513 13.424 18.283 13.6888 18.1715 13.9788C18.0601 14.2689 18.0078 14.5783 18.0178 14.8889C18.0414 14.9789 18.0859 15.0622 18.1475 15.1319C18.2091 15.2017 18.2862 15.256 18.3727 15.2906C18.4591 15.3252 18.5524 15.339 18.6452 15.331C18.7379 15.323 18.8275 15.2933 18.9067 15.2444C19.1595 15.1012 19.3851 14.9147 19.5734 14.6933C19.592 14.7701 19.6258 14.8424 19.6727 14.906C19.7196 14.9696 19.7787 15.0233 19.8465 15.0638C19.9144 15.1043 19.9896 15.131 20.0679 15.1421C20.1461 15.1533 20.2258 15.1488 20.3022 15.1289C20.9125 14.8692 21.5062 14.5724 22.08 14.24C22.7387 13.9451 23.4157 13.6927 24.1067 13.4844C24.7298 13.3112 25.3714 13.2127 26.0178 13.1911C26.5334 13.1911 27.0934 13.2622 27.6089 13.28C27.6299 13.2765 27.65 13.2689 27.6681 13.2576C27.6862 13.2463 27.7019 13.2316 27.7142 13.2143C27.7266 13.1969 27.7355 13.1773 27.7403 13.1566C27.7451 13.1358 27.7457 13.1143 27.7422 13.0933C27.7387 13.0723 27.7311 13.0522 27.7199 13.0341C27.7086 13.016 27.6939 13.0004 27.6765 12.988C27.6592 12.9756 27.6396 12.9668 27.6188 12.962C27.5981 12.9572 27.5766 12.9565 27.5556 12.96ZM19.5556 13.8489C19.2923 14.228 18.9948 14.582 18.6667 14.9066C18.5422 15.0311 18.2667 15.0222 18.2489 14.6578C18.2822 14.3094 18.4115 13.9771 18.6222 13.6978C18.7916 13.4405 18.9949 13.2073 19.2267 13.0044C19.4269 12.7935 19.6692 12.627 19.9378 12.5155C20.16 12.4355 20.4356 12.5155 20.2667 12.7911C20.0978 13.0666 19.8667 13.4933 19.6089 13.8489H19.5556Z" fill="#00ACED"/>
</g>
<defs>
<clipPath id="clip0_2707_289128">
<rect width="32" height="32" fill="white"/>
</clipPath>
</defs>
</svg>
