<svg width="32" height="32" viewBox="0 0 32 32" fill="none" xmlns="http://www.w3.org/2000/svg">
<g clip-path="url(#clip0_2707_288998)">
<path d="M16 31.9822C24.8268 31.9822 31.9823 24.8267 31.9823 16C31.9823 7.17325 24.8268 0.0177612 16 0.0177612C7.17331 0.0177612 0.0178223 7.17325 0.0178223 16C0.0178223 24.8267 7.17331 31.9822 16 31.9822Z" fill="white"/>
<path fill-rule="evenodd" clip-rule="evenodd" d="M13.1111 16.6222C13.7777 17.04 14.1866 17.6 13.9999 17.8666C13.8133 18.1333 13.1555 18.0088 12.4799 17.5911C11.8044 17.1733 11.4044 16.6133 11.5911 16.3466C11.7777 16.08 12.4444 16.2044 13.1111 16.6222Z" fill="#005699"/>
<path fill-rule="evenodd" clip-rule="evenodd" d="M12.9599 16.8889C13.2977 17.1022 13.5022 17.3778 13.4222 17.5111C13.3422 17.6444 12.9955 17.5822 12.6577 17.3778C12.3199 17.1733 12.1155 16.8889 12.2044 16.7555C12.2933 16.6222 12.6222 16.6578 12.9599 16.8889Z" fill="#0D404E"/>
<path fill-rule="evenodd" clip-rule="evenodd" d="M15.7423 18.3644C16.3378 18.4533 16.9156 18.4533 17.2267 17.9644C17.6356 17.3155 16.3378 15.5555 14.5601 14.4533C12.7823 13.3511 10.8089 12.8622 10.3467 13.5644C10.2448 13.8335 10.2134 14.1242 10.2554 14.4089C10.2974 14.6936 10.4114 14.9628 10.5867 15.1911C10.7112 14.7377 10.7467 14.5066 10.9334 14.4C11.7512 13.92 13.0312 14.2933 14.1956 15.0222C15.6001 15.9377 16.8889 17.4666 15.7423 18.3644Z" fill="#005597"/>
<path fill-rule="evenodd" clip-rule="evenodd" d="M18.5956 17.7777C18.9131 17.7435 19.2182 17.6357 19.4867 17.4628C19.7552 17.29 19.9796 17.057 20.1423 16.7822C20.8267 15.6977 19.2534 13.5111 16.2845 11.6711C13.3156 9.83108 10.7556 9.20885 9.9823 10.4177C9.83366 10.6516 9.73347 10.913 9.68767 11.1863C9.64186 11.4596 9.65137 11.7393 9.71563 12.0089C11.1112 10.6133 13.2712 11.12 15.6712 12.64C18.0712 14.16 19.769 16.2044 18.5956 17.7777Z" fill="url(#paint0_linear_2707_288998)"/>
<path fill-rule="evenodd" clip-rule="evenodd" d="M20.7467 15.6533C21.0939 15.484 21.3979 15.2377 21.6356 14.9333C22.6312 13.3422 20.7467 11.0578 17.8045 9.20889C14.8623 7.36 12.009 6.66667 11.0045 8.25778C10.8322 8.54769 10.7459 8.88065 10.7556 9.21778C12.1867 8.19556 14.969 8.48 17.3512 9.97334C19.7334 11.4667 21.1912 13.9022 20.7467 15.6533Z" fill="#005597"/>
<path fill-rule="evenodd" clip-rule="evenodd" d="M13.3956 8.43554C13.4022 8.13345 13.4531 7.83395 13.5467 7.54666C14.0445 6.74666 16.2134 7.2711 18.249 8.52443C20.2845 9.77777 21.7512 11.5378 21.2445 12.3467C21.0224 12.52 20.7843 12.6718 20.5334 12.8C20.8233 12.826 21.1151 12.7804 21.3832 12.6672C21.6513 12.5541 21.8876 12.3769 22.0712 12.1511C22.7734 11.04 21.3423 8.89777 18.8979 7.35999C16.4534 5.82221 13.9023 5.48443 13.209 6.59554C13.0749 6.89142 13.0215 7.21752 13.0543 7.5407C13.0871 7.86388 13.2049 8.17262 13.3956 8.43554Z" fill="#005597"/>
<path fill-rule="evenodd" clip-rule="evenodd" d="M6.4978 24.1244V19.7333H10.6667C11.0059 19.7728 11.3205 19.9301 11.5556 20.1778C11.808 20.4656 11.9608 20.8273 11.9911 21.2089V22.8622C11.9811 23.0328 11.9365 23.1995 11.8601 23.3523C11.7837 23.505 11.6771 23.6407 11.5467 23.7511C11.257 23.9675 10.9179 24.1081 10.56 24.16L6.4978 24.1244ZM7.44891 23.36V20.4978H10.1156C10.3382 20.5194 10.5445 20.6241 10.6934 20.7911C10.858 20.9758 10.9551 21.2108 10.9689 21.4578V22.5422C10.9587 22.6523 10.9267 22.7593 10.8748 22.857C10.823 22.9546 10.7522 23.041 10.6667 23.1111C10.4823 23.2521 10.2652 23.3438 10.0356 23.3778L7.44891 23.36Z" fill="#172732"/>
<path d="M13.4756 19.7155H12.4534V24.1244H13.4756V19.7155Z" fill="#172732"/>
<path fill-rule="evenodd" clip-rule="evenodd" d="M18.32 19.7155C18.6699 19.7384 18.9965 19.8991 19.2281 20.1624C19.4597 20.4256 19.5774 20.77 19.5555 21.12C19.5704 21.4697 19.449 21.8115 19.2169 22.0735C18.9848 22.3355 18.66 22.4971 18.3111 22.5244H14.9422V24.1244H14.1333V19.68L18.32 19.7155ZM14.9422 21.7778V20.4444H18.08C18.2318 20.4839 18.3645 20.5764 18.4542 20.7052C18.5438 20.834 18.5845 20.9905 18.5689 21.1467C18.5689 21.7511 18.1689 21.8133 18.1689 21.8133L14.9422 21.7778Z" fill="#172732"/>
<path fill-rule="evenodd" clip-rule="evenodd" d="M25.5024 21.1022C25.5024 20.7344 25.3563 20.3817 25.0962 20.1217C24.8362 19.8616 24.4835 19.7155 24.1157 19.7155H21.3957C21.0279 19.7155 20.6752 19.8616 20.4152 20.1217C20.1551 20.3817 20.009 20.7344 20.009 21.1022V22.7377C20.009 23.1055 20.1551 23.4582 20.4152 23.7183C20.6752 23.9783 21.0279 24.1244 21.3957 24.1244H24.1157C24.4835 24.1244 24.8362 23.9783 25.0962 23.7183C25.3563 23.4582 25.5024 23.1055 25.5024 22.7377V21.1022ZM24.4357 21.1022C24.4334 20.9552 24.3733 20.815 24.2686 20.7119C24.1638 20.6088 24.0227 20.5511 23.8757 20.5511H21.6446C21.4976 20.5511 21.3565 20.6088 21.2517 20.7119C21.147 20.815 21.0869 20.9552 21.0846 21.1022V22.6755C21.0846 22.824 21.1436 22.9665 21.2486 23.0715C21.3536 23.1765 21.4961 23.2355 21.6446 23.2355H23.8757C24.0242 23.2355 24.1667 23.1765 24.2717 23.0715C24.3767 22.9665 24.4357 22.824 24.4357 22.6755V21.1022Z" fill="#172732"/>
<path d="M20.5599 25.5289V25.2889H21.0399V25.8578C20.9855 25.9266 20.9154 25.9815 20.8355 26.0178C20.7528 26.0593 20.6614 26.0806 20.5688 26.08C20.4612 26.0832 20.3553 26.0521 20.2666 25.9911C20.1783 25.9199 20.1133 25.824 20.0799 25.7156C20.0334 25.5935 20.0093 25.464 20.0088 25.3333C20.0077 25.1968 20.0318 25.0612 20.0799 24.9333C20.1257 24.8244 20.1993 24.7294 20.2933 24.6578C20.3737 24.6094 20.4661 24.5848 20.5599 24.5867C20.6773 24.584 20.7914 24.6252 20.8799 24.7022C20.9595 24.789 21.0121 24.8971 21.031 25.0133L20.8088 25.0667C20.7956 25.0032 20.7648 24.9447 20.7199 24.8978C20.6753 24.8594 20.6188 24.8374 20.5599 24.8356C20.514 24.8346 20.4685 24.8456 20.428 24.8674C20.3875 24.8892 20.3533 24.9211 20.3288 24.96C20.2607 25.0687 20.2295 25.1966 20.2399 25.3244C20.23 25.4579 20.261 25.5913 20.3288 25.7067C20.3671 25.7648 20.426 25.8062 20.4936 25.8227C20.5612 25.8392 20.6325 25.8295 20.6933 25.7956C20.7391 25.7763 20.7812 25.7493 20.8177 25.7156V25.5289H20.5599Z" fill="#172732"/>
<path d="M21.2444 26.0622V24.6133H21.7155C21.801 24.6008 21.8878 24.6008 21.9733 24.6133C22.0298 24.6452 22.0737 24.6954 22.0977 24.7556C22.1342 24.8271 22.1525 24.9064 22.1511 24.9867C22.1543 25.0819 22.1262 25.1756 22.0711 25.2533C22.0472 25.2896 22.0157 25.3202 21.9789 25.3433C21.9421 25.3663 21.9008 25.3811 21.8577 25.3867C21.903 25.4214 21.942 25.4634 21.9733 25.5111C22.026 25.5816 22.0679 25.6595 22.0977 25.7422L22.2399 26.0267H21.9733L21.8133 25.7778C21.7511 25.6711 21.7155 25.6 21.6888 25.5644C21.6753 25.5397 21.6532 25.5207 21.6266 25.5111C21.5888 25.5005 21.5488 25.5005 21.5111 25.5111H21.4666V26.1156L21.2444 26.0622ZM21.4666 25.2267H21.6355C21.7004 25.2355 21.7662 25.2355 21.8311 25.2267C21.8453 25.2213 21.8581 25.213 21.8689 25.2023C21.8796 25.1915 21.8879 25.1786 21.8933 25.1644C21.9036 25.1296 21.9036 25.0926 21.8933 25.0578C21.9086 25.0208 21.9086 24.9792 21.8933 24.9422C21.8855 24.9265 21.8743 24.9127 21.8605 24.9019C21.8466 24.8911 21.8305 24.8836 21.8133 24.88H21.4755L21.4666 25.2267Z" fill="#172732"/>
<path d="M22.3112 25.3422C22.308 25.2186 22.3261 25.0953 22.3645 24.9778C22.3862 24.905 22.4192 24.836 22.4623 24.7733C22.5006 24.7225 22.549 24.6801 22.6045 24.6489C22.677 24.6058 22.7602 24.5842 22.8445 24.5867C22.9214 24.5862 22.9973 24.6046 23.0655 24.6403C23.1336 24.6759 23.1921 24.7277 23.2356 24.7911C23.329 24.9582 23.3781 25.1464 23.3781 25.3378C23.3781 25.5292 23.329 25.7174 23.2356 25.8845C23.1901 25.9452 23.131 25.9945 23.0631 26.0284C22.9952 26.0623 22.9204 26.08 22.8445 26.08C22.7686 26.08 22.6937 26.0623 22.6259 26.0284C22.558 25.9945 22.4989 25.9452 22.4534 25.8845C22.3487 25.7238 22.2988 25.5336 22.3112 25.3422ZM22.5423 25.3422C22.5312 25.473 22.5624 25.6038 22.6312 25.7156C22.6513 25.7544 22.6821 25.7866 22.7198 25.8087C22.7576 25.8307 22.8008 25.8416 22.8445 25.84C22.8891 25.8403 22.9331 25.829 22.972 25.8071C23.011 25.7853 23.0436 25.7538 23.0667 25.7156C23.1209 25.5986 23.1489 25.4712 23.1489 25.3422C23.1489 25.2133 23.1209 25.0859 23.0667 24.9689C23.043 24.9313 23.0102 24.9002 22.9714 24.8784C22.9326 24.8567 22.889 24.845 22.8445 24.8445C22.8002 24.8458 22.7568 24.8578 22.7181 24.8795C22.6795 24.9011 22.6466 24.9318 22.6223 24.9689C22.5644 25.0814 22.5369 25.207 22.5423 25.3333V25.3422Z" fill="#172732"/>
<path d="M23.5557 24.6133H23.7779V25.6356C23.7885 25.6885 23.813 25.7376 23.849 25.7778C23.8905 25.8145 23.9447 25.8337 24.0001 25.8311C24.0457 25.8499 24.0968 25.8499 24.1423 25.8311C24.169 25.7941 24.1872 25.7516 24.1957 25.7067C24.2015 25.6238 24.2015 25.5406 24.1957 25.4578V24.6578H24.4179V25.4222C24.4296 25.5434 24.4296 25.6655 24.4179 25.7867C24.4096 25.8496 24.3884 25.9101 24.3557 25.9645C24.3203 26.0147 24.2749 26.0571 24.2223 26.0889C24.0759 26.1419 23.9155 26.1419 23.769 26.0889C23.7172 26.0591 23.6743 26.0162 23.6446 25.9645C23.6125 25.9163 23.5912 25.8617 23.5823 25.8045C23.5712 25.6832 23.5712 25.5612 23.5823 25.44L23.5557 24.6133Z" fill="#172732"/>
<path d="M24.6667 26.0622V24.6133H25.0223C25.1076 24.5985 25.1948 24.5985 25.2801 24.6133C25.3151 24.6221 25.3476 24.6386 25.3753 24.6617C25.403 24.6848 25.4251 24.7138 25.4401 24.7466C25.4855 24.8343 25.507 24.9324 25.5023 25.0311C25.5174 25.1044 25.5174 25.18 25.5023 25.2533C25.4855 25.3076 25.4548 25.3566 25.4134 25.3955C25.3814 25.4285 25.3417 25.4529 25.2979 25.4666C25.2212 25.4773 25.1434 25.4773 25.0667 25.4666H24.889V26.0178L24.6667 26.0622ZM24.889 24.8889V25.2978H25.0045C25.063 25.3117 25.1239 25.3117 25.1823 25.2978C25.2124 25.2814 25.237 25.2567 25.2534 25.2266C25.2624 25.1917 25.2624 25.155 25.2534 25.12C25.2636 25.0761 25.2636 25.0305 25.2534 24.9866C25.2325 24.9556 25.2008 24.9334 25.1645 24.9244H24.889V24.8889Z" fill="#172732"/>
<path fill-rule="evenodd" clip-rule="evenodd" d="M16.0711 6.2844C16.4266 5.71551 17.8488 5.94662 19.2266 6.81773C20.6044 7.68885 21.44 8.88885 21.0755 9.42218C20.7111 9.95551 19.2977 9.75996 17.92 8.89773C16.5422 8.03551 15.7066 6.86218 16.0711 6.2844Z" fill="url(#paint1_linear_2707_288998)"/>
<path fill-rule="evenodd" clip-rule="evenodd" d="M17.5644 6.50666C17.7511 6.21333 18.4533 6.35555 19.2266 6.81777C20 7.27999 20.4444 7.88444 20.2311 8.16888C20.0177 8.45333 19.3422 8.31999 18.5688 7.85777C17.7955 7.39555 17.3866 6.7911 17.5644 6.50666Z" fill="#005597"/>
<path fill-rule="evenodd" clip-rule="evenodd" d="M10.249 14.4977C10.9137 15.5575 11.8297 16.4369 12.9157 17.0577C14.0102 17.7797 15.2581 18.2362 16.5601 18.3911C15.1955 18.545 13.8221 18.1906 12.7024 17.3955C11.289 16.5244 10.3024 15.2977 10.249 14.4977Z" fill="url(#paint2_linear_2707_288998)"/>
<path fill-rule="evenodd" clip-rule="evenodd" d="M9.99995 10.3911C9.99995 11.9467 11.4933 14.0267 13.8666 15.5111C16.24 16.9956 18.7822 17.4578 20.16 16.7644C19.1733 18.3467 16.0977 18.1956 13.2977 16.4356C10.4977 14.6756 9.01329 11.9911 9.99995 10.4V10.3911Z" fill="url(#paint3_linear_2707_288998)"/>
<path fill-rule="evenodd" clip-rule="evenodd" d="M21.9379 13.9377C21.9458 14.2826 21.8531 14.6224 21.6713 14.9155C20.7379 16.4089 17.5913 16.1244 14.649 14.2844C11.7068 12.4444 10.0802 9.77775 11.0224 8.23997C11.2073 7.95177 11.469 7.72089 11.7779 7.5733C11.6713 9.26219 13.1202 11.44 15.4935 12.9066C17.8668 14.3733 20.4446 14.7733 21.9379 13.9377Z" fill="url(#paint4_linear_2707_288998)"/>
<path fill-rule="evenodd" clip-rule="evenodd" d="M14.9779 5.91999C14.8278 5.98015 14.7003 6.08585 14.6134 6.22221C14.1068 7.0311 15.3245 8.70221 17.3334 9.95555C19.3423 11.2089 21.3779 11.5822 21.8757 10.7822C21.9376 10.6823 21.977 10.57 21.9912 10.4533C22.1406 10.7039 22.2261 10.9874 22.2401 11.2789C22.254 11.5703 22.196 11.8607 22.0712 12.1244C21.3779 13.2355 18.8268 12.8889 16.3823 11.3511C13.9379 9.81332 12.5068 7.6711 13.209 6.56888C13.4198 6.31356 13.6947 6.11891 14.0056 6.00488C14.3164 5.89085 14.652 5.86155 14.9779 5.91999Z" fill="url(#paint5_linear_2707_288998)"/>
</g>
<defs>
<linearGradient id="paint0_linear_2707_288998" x1="9.93341" y1="15.1533" x2="17.9334" y2="21.1533" gradientUnits="userSpaceOnUse">
<stop stop-color="#005597"/>
<stop offset="0.53" stop-color="#019EE0"/>
<stop offset="1" stop-color="#005597"/>
</linearGradient>
<linearGradient id="paint1_linear_2707_288998" x1="18.2744" y1="5.55365" x2="27.5099" y2="10.9136" gradientUnits="userSpaceOnUse">
<stop stop-color="#00ADEF"/>
<stop offset="1" stop-color="#0076BE"/>
</linearGradient>
<linearGradient id="paint2_linear_2707_288998" x1="12.9681" y1="14.6969" x2="22.2037" y2="20.0569" gradientUnits="userSpaceOnUse">
<stop stop-color="#00ADEF"/>
<stop offset="1" stop-color="#0076BE"/>
</linearGradient>
<linearGradient id="paint3_linear_2707_288998" x1="14.0936" y1="12.7574" x2="23.3291" y2="18.1174" gradientUnits="userSpaceOnUse">
<stop stop-color="#00ADEF"/>
<stop offset="1" stop-color="#0076BE"/>
</linearGradient>
<linearGradient id="paint4_linear_2707_288998" x1="15.5946" y1="10.1714" x2="24.8301" y2="15.5314" gradientUnits="userSpaceOnUse">
<stop stop-color="#00ADEF"/>
<stop offset="1" stop-color="#0076BE"/>
</linearGradient>
<linearGradient id="paint5_linear_2707_288998" x1="17.2025" y1="7.40079" x2="26.4381" y2="12.7608" gradientUnits="userSpaceOnUse">
<stop stop-color="#00ADEF"/>
<stop offset="1" stop-color="#0076BE"/>
</linearGradient>
<clipPath id="clip0_2707_288998">
<rect width="32" height="32" fill="white"/>
</clipPath>
</defs>
</svg>
