<svg width="32" height="32" viewBox="0 0 32 32" fill="none" xmlns="http://www.w3.org/2000/svg">
<g clip-path="url(#clip0_2707_288828)">
<path d="M16 32C24.8366 32 32 24.8366 32 16C32 7.16344 24.8366 0 16 0C7.16344 0 0 7.16344 0 16C0 24.8366 7.16344 32 16 32Z" fill="white"/>
<path d="M16.0001 29.3334C23.3639 29.3334 29.3334 23.3638 29.3334 16C29.3334 8.63622 23.3639 2.66669 16.0001 2.66669C8.63628 2.66669 2.66675 8.63622 2.66675 16C2.66675 23.3638 8.63628 29.3334 16.0001 29.3334Z" fill="white"/>
<path d="M13.4045 14.8533C13.5601 14.8427 13.7152 14.88 13.849 14.96C13.9023 14.9979 13.9451 15.0489 13.9731 15.108C14.0011 15.1671 14.0135 15.2325 14.009 15.2978C14.0263 15.3648 14.0263 15.4352 14.009 15.5022C13.9861 15.5604 13.9457 15.6101 13.8934 15.6444C13.8323 15.6801 13.7665 15.7071 13.6979 15.7244C13.6092 15.7332 13.5199 15.7332 13.4312 15.7244H13.3068V16.2044H13.0579V14.8889H13.2534L13.4045 14.8533ZM13.4045 15.0667H13.2445V15.5289H13.369C13.4609 15.5341 13.5527 15.5157 13.6356 15.4756C13.6688 15.4579 13.6959 15.4306 13.7134 15.3973C13.7308 15.364 13.7378 15.3262 13.7334 15.2889C13.7416 15.2508 13.7416 15.2114 13.7334 15.1733C13.7171 15.1433 13.6924 15.1186 13.6623 15.1022C13.627 15.0959 13.5909 15.0959 13.5556 15.1022L13.4045 15.0667Z" fill="#024370"/>
<path d="M15.1821 14.8711V15.1111H14.7643V16.2578H14.5154V15.1111H14.0977V14.8978L15.1821 14.8711Z" fill="#024370"/>
<path d="M15.4846 16.0978C15.484 16.1197 15.479 16.1412 15.4699 16.1611C15.4607 16.181 15.4475 16.1988 15.4312 16.2134C15.3997 16.2386 15.3605 16.2524 15.3201 16.2524C15.2797 16.2524 15.2405 16.2386 15.209 16.2134C15.1815 16.181 15.1658 16.1403 15.1646 16.0978C15.1665 16.0575 15.1827 16.0192 15.2105 15.9898C15.2382 15.9605 15.2755 15.942 15.3157 15.9378C15.3557 15.9379 15.3941 15.9539 15.4223 15.9822C15.4403 15.996 15.4551 16.0134 15.4658 16.0334C15.4766 16.0533 15.4829 16.0752 15.4846 16.0978Z" fill="#024370"/>
<path d="M16.5866 14.8533C16.7448 14.8442 16.9023 14.8813 17.0399 14.96C17.0933 14.9979 17.136 15.0489 17.164 15.108C17.192 15.1672 17.2044 15.2325 17.1999 15.2978C17.199 15.3682 17.1839 15.4378 17.1555 15.5022C17.1292 15.5611 17.0859 15.6107 17.031 15.6445C16.9699 15.6802 16.9041 15.7071 16.8355 15.7245C16.7468 15.7332 16.6575 15.7332 16.5688 15.7245H16.4532V16.2045H16.2043V14.8889C16.2663 14.8803 16.3291 14.8803 16.391 14.8889L16.5866 14.8533ZM16.5866 15.0667H16.4355V15.5289H16.551C16.6458 15.5337 16.7404 15.5154 16.8266 15.4756C16.8573 15.4559 16.882 15.4279 16.8977 15.3949C16.9134 15.362 16.9196 15.3252 16.9155 15.2889C16.9283 15.2515 16.9283 15.2108 16.9155 15.1733C16.9092 15.1516 16.9003 15.1307 16.8888 15.1111H16.7821L16.5866 15.0667Z" fill="#024370"/>
<path d="M18.231 16.2311L18.1777 16.0711L18.1244 15.9111H17.5466L17.4932 16.0711L17.4399 16.2311H17.1821L17.3244 15.8222L17.4577 15.4755L17.591 15.1644L17.7244 14.8711H17.9555L18.0888 15.1644L18.2221 15.4755C18.2695 15.5822 18.314 15.6978 18.3555 15.8222C18.3999 15.9466 18.4532 16.08 18.4977 16.2311H18.231ZM17.831 15.1111C17.831 15.1822 17.7688 15.2622 17.7332 15.3689L17.6088 15.6889H18.0532C18.0532 15.5733 17.9732 15.4667 17.9377 15.36C17.9021 15.2533 17.8666 15.1822 17.831 15.1111Z" fill="#024370"/>
<path d="M19.5556 16.2311L19.4312 16L19.2623 15.7422L19.0845 15.4933L18.9156 15.2711V16.2489H18.6667V14.8711H18.8712L19.0401 15.0667C19.1042 15.1398 19.1636 15.217 19.2179 15.2978L19.3956 15.5378L19.5467 15.7689V14.88H19.7956V16.24L19.5556 16.2311Z" fill="#024370"/>
<path d="M20.72 16.2578C20.6265 16.2567 20.5336 16.2417 20.4445 16.2133C20.3665 16.1819 20.2966 16.1332 20.24 16.0711C20.1791 16.0083 20.1335 15.9322 20.1067 15.8489C20.0783 15.7506 20.0633 15.6489 20.0623 15.5466C20.0624 15.4436 20.0804 15.3413 20.1156 15.2444C20.1491 15.1623 20.1973 15.087 20.2578 15.0222C20.3195 14.9619 20.3918 14.9137 20.4711 14.88C20.5565 14.8665 20.6435 14.8665 20.7289 14.88H20.88C20.9214 14.8758 20.9631 14.8758 21.0045 14.88H21.0845H21.1289L21.0578 15.0844C21.0183 15.0562 20.9726 15.0379 20.9245 15.0311C20.8626 15.0225 20.7997 15.0225 20.7378 15.0311C20.6849 15.0218 20.6307 15.0218 20.5778 15.0311C20.5272 15.0502 20.4816 15.0806 20.4445 15.12C20.4014 15.1646 20.3707 15.2198 20.3556 15.28C20.3421 15.3505 20.3421 15.4228 20.3556 15.4933C20.3469 15.5582 20.3469 15.624 20.3556 15.6889C20.375 15.7455 20.4019 15.7993 20.4356 15.8489C20.4728 15.8946 20.5205 15.9306 20.5747 15.9538C20.6289 15.9771 20.6879 15.9868 20.7467 15.9822C20.8176 15.9908 20.8892 15.9908 20.96 15.9822C21.0072 15.9723 21.0523 15.9542 21.0934 15.9289L21.1556 16.1333H21.0934H20.9956H20.8711L20.72 16.2578Z" fill="#024370"/>
<path d="M22.3022 16.2311L22.2222 16.0711C22.2186 16.0178 22.2186 15.9644 22.2222 15.9111H21.6533C21.6364 15.9659 21.6156 16.0193 21.5911 16.0711L21.5377 16.2311H21.2444C21.2977 16.08 21.3422 15.9466 21.3955 15.8222L21.5288 15.4755C21.5733 15.3689 21.6088 15.2622 21.6533 15.1644L21.7866 14.8711H22.0266L22.1599 15.1644C22.1599 15.2622 22.2399 15.3689 22.2844 15.4755C22.3288 15.5822 22.3733 15.6978 22.4177 15.8222C22.4622 15.9466 22.5155 16.08 22.5688 16.2311H22.3022ZM21.9022 15.1111L21.7955 15.3689L21.6799 15.6889H22.1244C22.0799 15.5733 22.0444 15.4667 22.0088 15.36L21.9022 15.1111Z" fill="#024370"/>
<path d="M23.4844 14.8711C23.5226 14.9271 23.5553 14.9866 23.5822 15.0489L23.6889 15.28L23.8044 15.52C23.8044 15.6 23.8666 15.6711 23.9022 15.7422L24 15.52L24.1066 15.28L24.2133 15.0489C24.2402 14.9866 24.2729 14.9271 24.3111 14.8711H24.5333V15.1822C24.5333 15.2978 24.5333 15.4133 24.5333 15.5289C24.5333 15.6444 24.5333 15.76 24.5333 15.8844V16.2311H24.2844C24.2844 16.0711 24.2844 15.9022 24.2844 15.7422C24.2844 15.5822 24.2844 15.4133 24.2844 15.2533L24.24 15.36C24.2156 15.4026 24.1948 15.4472 24.1777 15.4933C24.1777 15.5466 24.1333 15.6 24.1066 15.6444L24.0444 15.8044L23.9822 15.9378L23.9377 16.0444H23.7511L23.7066 15.9378C23.7066 15.8933 23.6622 15.8489 23.6444 15.7955L23.5822 15.6444C23.5549 15.5958 23.5311 15.5453 23.5111 15.4933L23.4489 15.36C23.4347 15.3227 23.4168 15.287 23.3955 15.2533C23.3955 15.4133 23.3955 15.5733 23.3955 15.7422V16.2311H23.1555C23.1555 16.1155 23.1555 16 23.1555 15.8755V15.52V15.1733C23.1555 15.0666 23.1555 14.96 23.1555 14.8711H23.4844Z" fill="#024370"/>
<path d="M24.8889 14.8711H25.1378V16.2311H24.8889V14.8711Z" fill="#024370"/>
<path d="M26.4356 14.8711V15.1111H26.0178V16.2578H25.7778V15.1111H25.3689V14.8978L26.4356 14.8711Z" fill="#024370"/>
<path d="M26.9956 14.8533C27.1512 14.8427 27.3063 14.88 27.4401 14.96C27.4927 14.9965 27.5351 15.0459 27.5631 15.1035C27.5911 15.1611 27.6039 15.2249 27.6001 15.2889C27.6047 15.3734 27.5797 15.4569 27.5294 15.5251C27.4791 15.5932 27.4067 15.6417 27.3245 15.6622L27.4134 15.7778L27.5112 15.92L27.6001 16.0711C27.6337 16.1207 27.6606 16.1745 27.6801 16.2311H27.4045L27.3245 16.0889C27.3002 16.0384 27.2704 15.9907 27.2356 15.9467L27.1556 15.8222L27.0756 15.7156H26.8712V16.2311H26.6667V14.8889C26.7316 14.8796 26.7974 14.8796 26.8623 14.8889L26.9956 14.8533ZM26.9956 15.0667H26.8534V15.5022H27.1201C27.1552 15.5099 27.1916 15.5099 27.2267 15.5022C27.2583 15.488 27.2836 15.4627 27.2979 15.4311C27.3069 15.3961 27.3069 15.3594 27.2979 15.3244C27.3059 15.2893 27.3059 15.2529 27.2979 15.2178C27.2847 15.1884 27.2631 15.1636 27.2356 15.1467H27.129L26.9956 15.0667Z" fill="#024370"/>
<path d="M28.8266 16.2311C28.8266 16.1689 28.8266 16.1244 28.7644 16.0711L28.711 15.9111H28.1332L28.0799 16.0711L28.0266 16.2311H27.7688L27.911 15.8222C27.9617 15.7091 28.0062 15.5934 28.0444 15.4755L28.1777 15.1644L28.311 14.8711H28.5421C28.5939 14.9654 28.6384 15.0634 28.6755 15.1644L28.8088 15.4755C28.8562 15.5822 28.9007 15.6978 28.9421 15.8222L29.0932 16.2311H28.8266ZM28.4444 15.1111C28.4025 15.1943 28.3669 15.2804 28.3377 15.3689C28.3377 15.4667 28.2577 15.5733 28.2221 15.6889H28.6666C28.6666 15.5733 28.5866 15.4667 28.5421 15.36L28.4444 15.1111Z" fill="#024370"/>
<path d="M13.3333 16.8889L13.44 17.0934C13.44 17.1734 13.52 17.2534 13.5555 17.3422C13.5911 17.4311 13.6355 17.52 13.6711 17.6089L13.7866 17.8578C13.8162 17.7724 13.8519 17.6892 13.8933 17.6089L14.0088 17.3422L14.1244 17.0934L14.2222 16.8889H14.4711C14.4711 17.0045 14.4711 17.12 14.4711 17.2356V17.6178V18.0089V18.3822H14.2044C14.2044 18.2104 14.2044 18.0326 14.2044 17.8489C14.2044 17.6622 14.2044 17.4845 14.2044 17.3156L14.1511 17.4311C14.1511 17.4756 14.1511 17.5289 14.08 17.5822C14.0088 17.6356 14.08 17.6889 14.0088 17.7511C13.9798 17.805 13.956 17.8616 13.9377 17.92C13.9104 17.9686 13.8867 18.0191 13.8666 18.0711L13.8133 18.1867H13.6177C13.5968 18.1466 13.579 18.105 13.5644 18.0622L13.4933 17.9111C13.4933 17.8578 13.4933 17.8045 13.4222 17.7422L13.3511 17.5822C13.3511 17.5289 13.3511 17.4756 13.28 17.4311C13.2656 17.3911 13.2478 17.3525 13.2266 17.3156C13.2266 17.4845 13.2266 17.6622 13.2266 17.8489V18.3822H12.96V18V17.6089V17.2267C12.96 17.1022 12.96 16.9956 13.0044 16.8889H13.3333Z" fill="#024370"/>
<path d="M15.511 18.4445C15.42 18.4485 15.3291 18.4334 15.2443 18.4C15.1754 18.3746 15.1141 18.3317 15.0666 18.2756C15.0146 18.2243 14.9778 18.1597 14.9599 18.0889C14.947 18.0094 14.947 17.9284 14.9599 17.8489V16.8889H15.2266V17.7778C15.2173 17.8367 15.2173 17.8967 15.2266 17.9556C15.2362 17.9991 15.2577 18.0391 15.2888 18.0711C15.315 18.1025 15.3486 18.1269 15.3866 18.1422C15.4306 18.1509 15.4759 18.1509 15.5199 18.1422C15.5626 18.1458 15.6056 18.1397 15.6456 18.1243C15.6857 18.1089 15.7217 18.0846 15.751 18.0534C15.7787 18.019 15.7998 17.9799 15.8132 17.9378C15.8224 17.8789 15.8224 17.8189 15.8132 17.76V16.8889H16.0888V17.7778C16.1017 17.8573 16.1017 17.9383 16.0888 18.0178C16.0675 18.0872 16.0311 18.1509 15.9821 18.2045C15.9294 18.2587 15.8658 18.3011 15.7955 18.3289C15.7116 18.3903 15.6139 18.43 15.511 18.4445Z" fill="#024370"/>
<path d="M17.3866 18.1778V18.4089H16.4443V16.8889H16.711V18.1511L17.3866 18.1778Z" fill="#024370"/>
<path d="M18.4089 16.8889V17.1289H17.9467V18.3822H17.68V17.1556H17.2178V16.8889H18.4089Z" fill="#024370"/>
<path d="M18.6133 16.8889H18.8888V18.3822H18.6133V16.8889Z" fill="#024370"/>
<path d="M19.6622 16.8889C19.8358 16.8778 20.0089 16.918 20.1599 17.0044C20.2178 17.0469 20.2637 17.1036 20.2933 17.169C20.3229 17.2344 20.3351 17.3063 20.3288 17.3778C20.3357 17.4546 20.3203 17.5317 20.2844 17.6C20.255 17.6619 20.2088 17.7143 20.151 17.7511C20.0859 17.7934 20.0136 17.8235 19.9377 17.84C19.8401 17.8488 19.742 17.8488 19.6444 17.84H19.5555V18.3733H19.2888V16.9422H19.4933L19.6622 16.8889ZM19.6622 17.12H19.5555V17.6267H19.6888C19.7923 17.632 19.8956 17.6137 19.991 17.5733C20.028 17.5524 20.058 17.521 20.077 17.483C20.096 17.4449 20.1032 17.4021 20.0977 17.36C20.1093 17.3223 20.1093 17.2821 20.0977 17.2444C20.0812 17.2122 20.0567 17.1846 20.0266 17.1644L19.9022 17.12H19.6622Z" fill="#024370"/>
<path d="M20.5779 18.4089V16.8889H21.5379V17.12H20.8534V17.4934H21.4579V17.7778H20.8534V18.2222H21.5912V18.4445L20.5779 18.4089Z" fill="#024370"/>
<path d="M22.2221 16.8889C22.3958 16.8778 22.5689 16.918 22.7199 17.0044C22.7758 17.0466 22.8205 17.102 22.8499 17.1655C22.8794 17.2291 22.8927 17.2989 22.8888 17.3689C22.892 17.4611 22.8638 17.5518 22.809 17.626C22.7541 17.7002 22.6757 17.7537 22.5866 17.7778L22.6843 17.9022L22.7821 18.0533L22.8888 18.2222L22.9777 18.3911H22.6755L22.5866 18.24C22.5866 18.1867 22.5243 18.1333 22.4888 18.0889L22.391 17.9467L22.3021 17.8222H22.0799V18.3822H21.8132V16.9422H22.0177L22.2221 16.8889ZM22.2221 17.12H22.0621V17.6H22.3555C22.3997 17.5945 22.4422 17.5794 22.4799 17.5555C22.4977 17.5504 22.5141 17.5413 22.5279 17.529C22.5418 17.5167 22.5527 17.5015 22.5599 17.4844C22.5691 17.4435 22.5691 17.401 22.5599 17.36C22.5681 17.3219 22.5681 17.2825 22.5599 17.2444C22.5409 17.2164 22.5168 17.1923 22.4888 17.1733L22.3732 17.1289L22.2221 17.12Z" fill="#024370"/>
<path d="M24.48 17.6622C24.4814 17.7778 24.4603 17.8925 24.4178 18C24.3804 18.0935 24.3214 18.1768 24.2457 18.2432C24.1701 18.3096 24.0798 18.3572 23.9822 18.3822C23.8696 18.4144 23.7527 18.4294 23.6356 18.4266H23.4311C23.3603 18.4352 23.2886 18.4352 23.2178 18.4266V16.9422H23.4311H23.6444C23.7588 16.9351 23.8735 16.9502 23.9822 16.9866C24.0791 17.0129 24.1697 17.0583 24.2489 17.12C24.3252 17.1838 24.3834 17.2666 24.4178 17.36C24.456 17.4563 24.477 17.5586 24.48 17.6622ZM23.4844 18.1866H23.6533C23.8018 18.1974 23.9486 18.1495 24.0622 18.0533C24.1557 17.9452 24.2035 17.8049 24.1955 17.6622C24.2005 17.5914 24.1912 17.5204 24.1683 17.4532C24.1454 17.386 24.1093 17.3241 24.0622 17.2711C24.0065 17.2226 23.9416 17.1858 23.8713 17.1629C23.8011 17.14 23.7269 17.1314 23.6533 17.1378H23.4844V18.1866Z" fill="#024370"/>
<path d="M25.7244 18.4089C25.7076 18.3512 25.6868 18.2948 25.6622 18.24C25.6454 18.1794 25.6246 18.12 25.6 18.0622H24.9777C24.9517 18.1195 24.9309 18.179 24.9155 18.24C24.8909 18.2948 24.8701 18.3512 24.8533 18.4089H24.5688C24.6311 18.2489 24.6755 18.1066 24.7288 17.9733C24.7822 17.84 24.8266 17.7066 24.88 17.5822C24.9333 17.4577 24.9777 17.3511 25.0222 17.2444C25.0666 17.1377 25.12 17.0222 25.1644 16.9155H25.4222C25.4755 17.0222 25.52 17.1289 25.5733 17.2444C25.6266 17.36 25.6622 17.4666 25.7155 17.5822C25.7688 17.6977 25.8133 17.8311 25.8577 17.9733C25.9022 18.1155 25.9644 18.2489 26.0177 18.4089H25.7244ZM25.2888 17.2089C25.2888 17.28 25.2177 17.3777 25.1733 17.4844C25.1288 17.5911 25.0933 17.7155 25.04 17.84H25.5377C25.4933 17.7155 25.4488 17.5911 25.4044 17.4844C25.36 17.3777 25.3244 17.28 25.2888 17.2089Z" fill="#024370"/>
<path d="M27.2088 18.4089C27.1599 18.3203 27.1065 18.2343 27.0488 18.1511L26.8621 17.8667L26.6666 17.5822L26.471 17.3422V18.4089H26.2043V16.8889H26.4266C26.4931 16.9561 26.5555 17.0273 26.6132 17.1022L26.8088 17.36C26.879 17.4482 26.9443 17.5402 27.0043 17.6356L27.1732 17.8845V16.8889H27.4399V18.3822L27.2088 18.4089Z" fill="#024370"/>
<path d="M28.7912 18.4089C28.7665 18.3541 28.7457 18.2976 28.7289 18.24C28.7043 18.1822 28.6835 18.1228 28.6667 18.0622H28.0356C28.0356 18.1155 27.9912 18.1777 27.9734 18.24L27.9112 18.4089H27.6267C27.6889 18.2489 27.7423 18.1066 27.7867 17.9733C27.8312 17.84 27.8845 17.7066 27.9378 17.5822C27.9912 17.4577 28.0356 17.3511 28.08 17.2444C28.1245 17.1377 28.1778 17.0222 28.2223 16.9155H28.4445C28.4978 17.0222 28.5512 17.1289 28.5956 17.2444C28.64 17.36 28.6934 17.4666 28.7378 17.5822C28.7823 17.6977 28.8356 17.8311 28.8889 17.9733C28.9423 18.1155 28.9867 18.2489 29.0489 18.4089H28.7912ZM28.3467 17.2089C28.3052 17.2983 28.2695 17.3903 28.24 17.4844C28.1956 17.5911 28.1512 17.7155 28.1067 17.84H28.5956C28.5512 17.7155 28.5067 17.5911 28.4623 17.4844C28.4178 17.3777 28.3823 17.28 28.3467 17.2089Z" fill="#024370"/>
<path d="M11.8223 15.6711V16C11.7245 16 11.6179 16 11.5201 16.0533L10.7734 16.2489C10.5512 16.3022 10.3379 16.3733 10.1156 16.4356C9.89342 16.4978 9.63565 16.5867 9.39565 16.6667L8.72898 16.8889C8.40009 16.9956 8.0712 17.1289 7.74231 17.2178C7.42455 17.3186 7.09665 17.3842 6.76454 17.4133C6.66296 17.426 6.5621 17.4438 6.46231 17.4667C6.30231 17.4667 6.1512 17.5111 5.9912 17.52C5.8312 17.5289 5.42231 17.52 5.10231 17.52H5.0312C4.88009 17.52 4.73787 17.4667 4.58676 17.4222C4.30782 17.3579 4.03438 17.2717 3.76898 17.1644C3.61118 17.1084 3.45684 17.0431 3.30676 16.9689C3.12022 16.8805 2.94674 16.7668 2.7912 16.6311C2.74709 16.593 2.71276 16.5448 2.69111 16.4907C2.66945 16.4366 2.6611 16.378 2.66676 16.32C2.66676 16.0089 2.66676 15.6889 2.66676 15.3778C2.67284 15.2701 2.68771 15.1631 2.7112 15.0578C2.7688 14.8169 2.84002 14.5795 2.92454 14.3467C3.02493 14.0867 3.14375 13.8342 3.28009 13.5911C3.54722 13.1545 3.88692 12.7667 4.28454 12.4444C4.62494 12.1567 5.00145 11.9147 5.40454 11.7244C5.68872 11.5973 5.98716 11.5048 6.29342 11.4489H6.57787C6.75138 11.399 6.93069 11.3721 7.1112 11.3689C7.29097 11.3424 7.47366 11.3424 7.65342 11.3689C7.80454 11.3689 7.96454 11.3689 8.11565 11.3689C8.19182 11.37 8.26714 11.385 8.33787 11.4133C8.52454 11.5111 8.74676 11.4933 8.91565 11.6178C9.16521 11.6907 9.40206 11.8016 9.61787 11.9467C9.85001 12.0915 10.07 12.255 10.2756 12.4356C10.5425 12.6741 10.7811 12.9425 10.9868 13.2356C11.1241 13.4285 11.2431 13.6338 11.3423 13.8489C11.4756 14.0969 11.58 14.3593 11.6534 14.6311C11.7475 14.9335 11.7984 15.2478 11.8045 15.5644C11.8045 15.5644 11.8134 15.6622 11.8223 15.6711Z" fill="#FDCD01"/>
<path d="M2.93335 17.4044L3.30668 17.5555C3.69372 17.7141 4.09575 17.8332 4.50668 17.9111C5.28404 18.0382 6.079 18.008 6.84446 17.8222C7.00446 17.8222 7.16446 17.76 7.32446 17.7155C7.61779 17.6266 7.91113 17.5377 8.21335 17.4311C8.81779 17.2177 9.39557 16.9333 9.99113 16.6933C10.4678 16.4959 10.958 16.3325 11.4578 16.2044C11.5682 16.1714 11.6812 16.1476 11.7956 16.1333C11.811 16.2829 11.7959 16.4341 11.7511 16.5777L11.4222 16.64H11.2267C10.7256 16.7992 10.2381 16.9984 9.7689 17.2355C9.35113 17.4489 8.88002 17.6444 8.48891 17.8311C7.82394 18.1484 7.14134 18.4274 6.44446 18.6666C6.16891 18.7466 5.89335 18.8355 5.60891 18.8977C5.36566 18.9423 5.11826 18.9602 4.87113 18.9511C4.59798 18.9512 4.32602 18.9153 4.06224 18.8444C3.96825 18.8054 3.86968 18.7785 3.7689 18.7644C3.711 18.7589 3.65541 18.7389 3.60726 18.7063C3.55911 18.6737 3.51993 18.6295 3.49335 18.5777C3.24395 18.2198 3.05478 17.8234 2.93335 17.4044Z" fill="#FD8505"/>
<path d="M11.5557 17.4844C11.1909 18.5505 10.4436 19.4433 9.45834 19.9901C8.47313 20.5369 7.3201 20.6988 6.22241 20.4444L6.32019 20.3822C7.20808 19.9475 8.06625 19.4546 8.88908 18.9067C9.42241 18.5511 9.97352 18.1955 10.5424 17.8844C10.8248 17.7292 11.1227 17.604 11.4313 17.5111L11.5557 17.4844Z" fill="#024370"/>
<path d="M11.7156 16.7466C11.7214 16.8295 11.7214 16.9127 11.7156 16.9955C11.6622 17.2444 11.6622 17.2444 11.4133 17.3333C10.945 17.4921 10.4902 17.6883 10.0533 17.92C9.78667 18.0622 9.52889 18.2311 9.26222 18.3822C8.82667 18.6311 8.37334 18.9066 7.96445 19.1466C7.55556 19.3866 7.31556 19.5111 6.97778 19.6622C6.58053 19.8555 6.17071 20.0218 5.75111 20.16C5.70886 20.1776 5.66355 20.1866 5.61778 20.1866C5.57201 20.1866 5.5267 20.1776 5.48445 20.16C5.15226 20.0127 4.83646 19.831 4.54222 19.6178L4.39111 19.4755C4.70795 19.4487 5.0227 19.4012 5.33334 19.3333C5.67929 19.2735 6.02081 19.1903 6.35556 19.0844C6.65871 18.9908 6.9556 18.8779 7.24445 18.7466C7.59111 18.5955 7.93778 18.4355 8.28445 18.2578C8.63111 18.08 9.07556 17.84 9.47556 17.6355C9.70667 17.5111 9.92889 17.3955 10.16 17.2889C10.3911 17.1822 10.8089 16.9866 11.1378 16.8533C11.3239 16.7889 11.5187 16.7529 11.7156 16.7466Z" fill="#04B6E9"/>
</g>
<defs>
<clipPath id="clip0_2707_288828">
<rect width="32" height="32" fill="white"/>
</clipPath>
</defs>
</svg>
