<svg width="32" height="32" viewBox="0 0 32 32" fill="none" xmlns="http://www.w3.org/2000/svg">
<g clip-path="url(#clip0_2980_150745)">
<mask id="mask0_2980_150745" style="mask-type:luminance" maskUnits="userSpaceOnUse" x="0" y="0" width="32" height="32">
<path d="M31.9724 0.026123H0.00195312V31.9965H31.9724V0.026123Z" fill="white"/>
</mask>
<g mask="url(#mask0_2980_150745)">
<path d="M15.9872 31.9965C24.8155 31.9965 31.9724 24.8397 31.9724 16.0113C31.9724 7.18294 24.8155 0.026123 15.9872 0.026123C7.15877 0.026123 0.00195312 7.18294 0.00195312 16.0113C0.00195312 24.8397 7.15877 31.9965 15.9872 31.9965Z" fill="white"/>
<path d="M23.1989 16.4289C23.2014 15.8245 23.197 15.2177 23.1989 14.6133H27.0893V14.0428H15.418V13.2387C15.418 13.1545 15.9968 12.5307 16.0663 12.3828H28.2305C28.2284 13.7306 28.2333 15.0811 28.2305 16.4289H27.0893C27.0878 16.377 27.0916 16.3248 27.0896 16.2731L24.3706 16.2722C24.3117 16.2804 24.344 16.3811 24.34 16.4289H23.1989Z" fill="#DD4840"/>
<path d="M5.40672 16.377V17.3626H8.20786V16.377C8.27769 16.4235 9.12695 16.3425 9.29716 16.377C9.31522 17.1621 9.44452 18.1047 9.35166 18.8954C9.34278 18.971 9.34524 19.0288 9.27126 19.0744H5.45861V21.2271L5.38082 21.3049H3.8246L3.74414 21.1259C3.75418 19.543 3.73979 17.9591 3.74678 16.377C3.98179 16.3309 5.31492 16.4381 5.40672 16.377Z" fill="#D92420"/>
<path d="M12.6163 12.3828C12.6312 12.5665 13.1869 13.0955 13.1869 13.1868V14.0427H3.74609V12.3828H12.6163Z" fill="#DD473F"/>
<path d="M15.4185 16.4288C15.421 15.8245 15.4166 15.2176 15.4185 14.6133H22.6806C22.6825 15.2176 22.6781 15.8245 22.6806 16.4288H20.9689C20.9673 16.377 20.9711 16.3247 20.9692 16.273C20.6842 16.323 20.1631 16.2057 19.9135 16.2724C19.8588 16.287 19.8841 16.3739 19.8795 16.377C19.8101 16.4224 18.289 16.4224 18.2196 16.377C18.215 16.3739 18.2403 16.287 18.1855 16.2724C18.1296 16.2574 17.217 16.2561 17.1633 16.2706L17.0784 16.4288H15.4185Z" fill="#DD4941"/>
<path d="M24.3397 16.4288C24.3146 16.7293 24.3579 17.0584 24.3397 17.3626H27.0889C27.0824 17.0524 27.0979 16.7388 27.0889 16.4288H28.2301C28.2283 17.3098 28.2315 18.1933 28.2301 19.0743H23.1985C23.2012 18.1934 23.1947 17.3098 23.1985 16.4288H24.3397Z" fill="#D9221E"/>
<path d="M3.74657 16.377C3.74921 15.79 3.74468 15.2004 3.74657 14.6134H9.29696C9.30687 15.2 9.28349 15.7906 9.29696 16.377C9.12669 16.3426 8.27749 16.4235 8.2076 16.377C8.20256 16.3737 8.22083 16.3069 8.19756 16.2864L5.48031 16.2688C5.38118 16.2514 5.413 16.3727 5.40652 16.377C5.31472 16.4382 3.98152 16.331 3.74657 16.377Z" fill="#DD4740"/>
<path d="M9.86767 16.4288C9.87025 15.8245 9.86578 15.2176 9.86767 14.6133H12.6688V16.2732L11.5273 16.273C11.5253 16.3247 11.5291 16.377 11.5276 16.4288H9.86767Z" fill="#DD4841"/>
<path d="M14.8985 16.4288C14.9022 17.3091 14.9315 18.2006 14.8467 19.0743H13.1867C13.1895 18.1934 13.183 17.3098 13.1867 16.4288H14.8985Z" fill="#D9221E"/>
<path d="M22.6795 16.4288C22.6832 17.3091 22.7125 18.2006 22.6277 19.0743H20.9678C20.9488 18.1944 20.9932 17.3084 20.9678 16.4288H22.6795Z" fill="#D9221E"/>
<path d="M19.8786 16.377V19.0743H18.2188V16.377C18.2881 16.4225 19.8092 16.4225 19.8786 16.377Z" fill="#D92420"/>
<path d="M11.5283 16.4288C11.5027 17.3084 11.5472 18.1944 11.5283 19.0743H9.86835C9.87116 18.1934 9.86467 17.3098 9.86835 16.4288H11.5283Z" fill="#D9221E"/>
<path fill-rule="evenodd" clip-rule="evenodd" d="M15.418 19.0225H17.0779V16.4288H15.418V19.0225Z" fill="#D9221E"/>
<path d="M14.3792 10.7232L15.4196 12.0975L14.3032 13.4718L13.2383 12.0965C13.2385 12.0133 14.1348 10.8973 14.2538 10.778C14.2964 10.7354 14.2998 10.7037 14.3792 10.7232Z" fill="#053858"/>
<path d="M13.188 16.4288C13.1906 15.8245 13.1861 15.2176 13.188 14.6133H14.8998C14.9017 15.2176 14.8972 15.8245 14.8998 16.4288H13.188Z" fill="#DE4E48"/>
</g>
</g>
<defs>
<clipPath id="clip0_2980_150745">
<rect width="32" height="32" fill="white"/>
</clipPath>
</defs>
</svg>
