<svg width="32" height="32" viewBox="0 0 32 32" fill="none" xmlns="http://www.w3.org/2000/svg">
<g clip-path="url(#clip0_2707_288328)">
<path d="M16 31.9822C24.8268 31.9822 31.9823 24.8268 31.9823 16C31.9823 7.17328 24.8268 0.0177917 16 0.0177917C7.17331 0.0177917 0.0178223 7.17328 0.0178223 16C0.0178223 24.8268 7.17331 31.9822 16 31.9822Z" fill="white"/>
<path d="M3.62675 15.9467C3.62675 16 3.55564 16 3.55564 16H3.50231V16.0889H3.44897V15.8667H3.55564C3.55564 15.8667 3.63564 15.8667 3.63564 15.9289L3.62675 15.9467ZM3.8312 16.1511H3.79564V16.1067H3.69786V16.1511H3.62675L3.71564 15.9289H3.76897L3.8312 16.1511ZM3.74231 16.0622V16V16.0622ZM4.06231 16.1511L3.94675 16V16.1333H3.89342V15.9111H3.94675L4.02675 16.0445V15.9111H4.08009L4.06231 16.1511ZM4.17786 16.1511H4.14231V15.9289H4.19564L4.17786 16.1511ZM4.42675 16.1511H4.3912L4.3112 16V16.1333H4.25786V15.9111H4.3112L4.3912 16.0445V15.9111H4.44453L4.42675 16.1511ZM5.09342 16.1511H5.04897V16.1067H4.96009V16.1511H4.88897L4.96897 15.9289H5.0312L5.09342 16.1511ZM5.00453 16.0622V16V16.0622ZM5.32453 16.1511H5.33342L5.20897 16V16.1333H5.15564V15.9111H5.20897L5.33342 16V15.8667L5.32453 16.1511ZM5.60009 16.1511H5.54675L5.47564 16V16.08H5.40453V15.8578H5.45786V16L5.53786 15.92H5.60897L5.5112 16" fill="#007DC5"/>
<path fill-rule="evenodd" clip-rule="evenodd" d="M4.65771 15.8845H4.81772H4.65771ZM4.71105 16.0711H4.78216H4.71105ZM4.71105 15.9733H4.77327H4.71105Z" fill="#007DC5"/>
<path fill-rule="evenodd" clip-rule="evenodd" d="M3.33332 13.5378H5.75999C5.82127 13.5444 5.87793 13.5735 5.91898 13.6195C5.96004 13.6655 5.98257 13.725 5.98221 13.7867V16.0889C5.98069 16.15 5.9575 16.2086 5.9168 16.2541C5.8761 16.2997 5.82052 16.3294 5.75999 16.3378H3.33332C3.27223 16.3363 3.21366 16.3131 3.16807 16.2724C3.12249 16.2317 3.09284 16.1761 3.08443 16.1156V13.7956C3.08058 13.778 3.08058 13.7598 3.08443 13.7422C3.11909 13.7 3.1655 13.6691 3.21777 13.6533H3.27999L3.33332 13.5378ZM3.33332 13.6089H5.7511C5.7953 13.6148 5.83615 13.6357 5.86687 13.668C5.89759 13.7004 5.91633 13.7422 5.91999 13.7867V16.0889C5.9187 16.1336 5.90211 16.1765 5.87299 16.2105C5.84387 16.2445 5.80399 16.2674 5.75999 16.2756H3.33332C3.2886 16.2743 3.24567 16.2577 3.2117 16.2286C3.17773 16.1994 3.15477 16.1596 3.14666 16.1156V13.7956V13.7511C3.17089 13.7195 3.20552 13.6975 3.24443 13.6889" fill="#007DC5"/>
<path fill-rule="evenodd" clip-rule="evenodd" d="M4.44445 13.7245C4.31644 13.7403 4.1993 13.8044 4.11689 13.9036C4.03449 14.0028 3.99303 14.1297 4.00096 14.2585C4.0089 14.3872 4.06563 14.5081 4.1596 14.5964C4.25356 14.6848 4.37769 14.734 4.50667 14.734C4.63565 14.734 4.75977 14.6848 4.85374 14.5964C4.94771 14.5081 5.00444 14.3872 5.01237 14.2585C5.02031 14.1297 4.97885 14.0028 4.89644 13.9036C4.81404 13.8044 4.69689 13.7403 4.56889 13.7245C4.586 13.7363 4.59985 13.7523 4.60917 13.771C4.61848 13.7896 4.62297 13.8103 4.62222 13.8311C4.62222 13.8618 4.61005 13.8912 4.58838 13.9128C4.56671 13.9345 4.53731 13.9467 4.50667 13.9467C4.47602 13.9467 4.44663 13.9345 4.42496 13.9128C4.40329 13.8912 4.39111 13.8618 4.39111 13.8311C4.39036 13.8103 4.39485 13.7896 4.40417 13.771C4.41349 13.7523 4.42734 13.7363 4.44445 13.7245Z" fill="#007DC5"/>
<path fill-rule="evenodd" clip-rule="evenodd" d="M4.44446 14.9156C4.46828 14.9351 4.49812 14.9457 4.5289 14.9457C4.55968 14.9457 4.58952 14.9351 4.61334 14.9156C4.63458 14.8926 4.64638 14.8624 4.64638 14.8311C4.64638 14.7998 4.63458 14.7697 4.61334 14.7467C4.59035 14.7254 4.5602 14.7137 4.5289 14.7137C4.4976 14.7137 4.46745 14.7254 4.44446 14.7467C4.42496 14.7705 4.41431 14.8003 4.41431 14.8311C4.41431 14.8619 4.42496 14.8918 4.44446 14.9156Z" fill="#007DC5"/>
<path fill-rule="evenodd" clip-rule="evenodd" d="M3.55554 15.4667C3.6288 15.5669 3.73688 15.6362 3.85858 15.6609C3.98028 15.6855 4.10681 15.6638 4.21332 15.6C4.3312 15.5328 4.41755 15.4216 4.45339 15.2907C4.48923 15.1598 4.47162 15.0201 4.40443 14.9022C4.33724 14.7844 4.22598 14.698 4.09512 14.6622C3.96427 14.6263 3.82453 14.6439 3.70666 14.7111C3.5994 14.7714 3.51824 14.8692 3.47885 14.9857C3.43946 15.1023 3.44461 15.2293 3.49332 15.3422C3.4975 15.3253 3.5052 15.3094 3.51592 15.2956C3.52664 15.2818 3.54014 15.2704 3.55554 15.2622C3.58266 15.2469 3.61474 15.243 3.64475 15.2513C3.67475 15.2596 3.70022 15.2796 3.71554 15.3067C3.73087 15.3338 3.73479 15.3659 3.72646 15.3959C3.71812 15.4259 3.69821 15.4513 3.6711 15.4667C3.65307 15.4753 3.63333 15.4798 3.61332 15.4798C3.59332 15.4798 3.57357 15.4753 3.55554 15.4667Z" fill="#007DC5"/>
<path fill-rule="evenodd" clip-rule="evenodd" d="M5.47555 15.4667C5.4023 15.5669 5.29421 15.6362 5.17251 15.6609C5.05081 15.6855 4.92429 15.6638 4.81777 15.6C4.73333 15.5511 4.66479 15.4789 4.6204 15.392C4.57602 15.3051 4.55766 15.2072 4.56755 15.1102C4.57744 15.0131 4.61514 14.921 4.67614 14.8448C4.73713 14.7686 4.81882 14.7117 4.91139 14.6808C5.00395 14.65 5.10346 14.6465 5.19795 14.6709C5.29245 14.6952 5.3779 14.7463 5.44405 14.818C5.51021 14.8897 5.55424 14.979 5.57087 15.0752C5.58749 15.1713 5.576 15.2702 5.53777 15.36C5.53611 15.3399 5.52958 15.3205 5.51874 15.3034C5.5079 15.2864 5.49308 15.2723 5.47555 15.2622C5.46554 15.2509 5.45323 15.2418 5.43944 15.2356C5.42564 15.2293 5.41068 15.2261 5.39555 15.2261C5.38042 15.2261 5.36546 15.2293 5.35166 15.2356C5.33787 15.2418 5.32556 15.2509 5.31555 15.2622C5.29491 15.2837 5.28338 15.3124 5.28338 15.3422C5.28338 15.3721 5.29491 15.4007 5.31555 15.4222C5.33358 15.4309 5.35333 15.4354 5.37333 15.4354C5.39333 15.4354 5.41308 15.4309 5.43111 15.4222" fill="#007DC5"/>
<path d="M16.8356 16.3645V16.2934C16.9124 16.3433 16.9926 16.3879 17.0756 16.4267C17.1949 16.4632 17.3221 16.4659 17.4429 16.4345C17.5637 16.4031 17.6735 16.3389 17.76 16.2489C17.9255 16.0881 18.0372 15.8801 18.08 15.6534C18.1333 15.4536 18.1514 15.246 18.1333 15.04V14.8C18.1113 14.6244 18.0472 14.4568 17.9467 14.3111C17.8771 14.2013 17.7795 14.112 17.6638 14.0526C17.5481 13.9933 17.4187 13.9659 17.2889 13.9734C17.1528 13.9756 17.019 14.009 16.8978 14.0711H16.8445V13.9911C16.6141 13.9645 16.3815 13.9645 16.1511 13.9911V15.7689V16.3645H16.8356Z" fill="#3D7206"/>
<path d="M21.2178 16.2489V16.32C20.984 16.3333 20.7495 16.3333 20.5156 16.32V13.9289H21.2178V14.7645L21.3334 14.72C21.5174 14.6338 21.7254 14.6133 21.9227 14.6618C22.1201 14.7103 22.2948 14.825 22.4178 14.9867C22.4883 15.0743 22.5398 15.1758 22.5688 15.2844C22.5979 15.3931 22.604 15.5066 22.5867 15.6178C22.5688 15.7931 22.4902 15.9566 22.3645 16.08C22.2524 16.1974 22.1103 16.2818 21.9536 16.3241C21.7969 16.3664 21.6316 16.365 21.4756 16.32C21.3866 16.3094 21.2997 16.2855 21.2178 16.2489ZM21.2178 15.5644V15.7778C21.2171 15.7986 21.2216 15.8193 21.2309 15.8379C21.2402 15.8566 21.2541 15.8726 21.2712 15.8845C21.3388 15.9323 21.4195 15.958 21.5023 15.958C21.5851 15.958 21.6658 15.9323 21.7334 15.8845C21.7878 15.8587 21.8361 15.8215 21.8748 15.7754C21.9135 15.7292 21.9418 15.6753 21.9577 15.6172C21.9736 15.5591 21.9768 15.4983 21.967 15.4389C21.9572 15.3795 21.9347 15.3229 21.901 15.273C21.8673 15.2231 21.8232 15.181 21.7717 15.1498C21.7203 15.1185 21.6627 15.0987 21.6029 15.0918C21.543 15.0849 21.4824 15.0909 21.4252 15.1096C21.3679 15.1283 21.3154 15.1591 21.2712 15.2C21.2553 15.211 21.2422 15.2256 21.233 15.2426C21.2237 15.2596 21.2185 15.2785 21.2178 15.2978C21.2134 15.3748 21.2134 15.4519 21.2178 15.5289V15.5644Z" fill="#3D7206"/>
<path d="M7.27121 15.52V16.3556H6.57788C6.57788 16.3022 6.57788 14.0622 6.57788 13.9911C6.80568 13.9733 7.03453 13.9733 7.26233 13.9911V14.0711L7.42233 14.0089C7.63352 13.9248 7.86891 13.9248 8.0801 14.0089C8.28922 14.0885 8.46063 14.244 8.5601 14.4445C8.64898 14.6206 8.66803 14.8238 8.61344 15.0134C8.57692 15.1448 8.51062 15.2662 8.41967 15.3679C8.32872 15.4696 8.21558 15.5491 8.08899 15.6C7.9744 15.6515 7.85019 15.6782 7.72455 15.6782C7.59891 15.6782 7.4747 15.6515 7.3601 15.6L7.27121 15.52ZM7.27121 14.7378V14.9422C7.2668 14.9692 7.27136 14.9968 7.28421 15.0209C7.29707 15.045 7.31749 15.0642 7.34233 15.0756C7.41649 15.1243 7.50253 15.152 7.59121 15.1556C7.69974 15.1511 7.80247 15.1053 7.87845 15.0277C7.95442 14.9501 7.99793 14.8464 8.0001 14.7378C8.00439 14.7024 8.00439 14.6666 8.0001 14.6311C7.97634 14.5411 7.92321 14.4617 7.84914 14.4053C7.77506 14.3489 7.68429 14.3189 7.59121 14.32C7.49765 14.3193 7.40666 14.3507 7.33344 14.4089C7.31618 14.4227 7.30238 14.4403 7.29312 14.4604C7.28387 14.4805 7.27941 14.5024 7.2801 14.5245C7.2801 14.5956 7.2801 14.6667 7.2801 14.7378H7.27121Z" fill="#D8262C"/>
<path d="M24.7378 16.3467H24.2045C24.1156 16.3467 24.0978 16.3467 24.0711 16.2578C24.0671 16.2224 24.0671 16.1866 24.0711 16.1511C23.9311 16.2774 23.7526 16.3525 23.5645 16.3645C23.4669 16.3734 23.3687 16.3734 23.2711 16.3645C23.1886 16.3608 23.1082 16.3371 23.0369 16.2952C22.9656 16.2534 22.9057 16.1948 22.8622 16.1245C22.8095 16.0489 22.7815 15.9588 22.7822 15.8667C22.7814 15.7684 22.8108 15.6721 22.8665 15.5911C22.9221 15.51 23.0013 15.448 23.0934 15.4134C23.2622 15.36 23.4311 15.3245 23.6 15.2889C23.7351 15.2679 23.8687 15.2382 24 15.2C24 15.2 24.0445 15.2 24.0445 15.1378C24.0445 15.0954 24.0276 15.0547 23.9976 15.0247C23.9676 14.9947 23.9269 14.9778 23.8845 14.9778C23.8025 14.9597 23.7176 14.9597 23.6356 14.9778C23.6081 14.9849 23.5826 14.9983 23.561 15.0167C23.5395 15.0352 23.5224 15.0584 23.5111 15.0845C23.5111 15.1467 23.5111 15.1467 23.3956 15.1378L22.8356 15.1111C22.7822 15.1111 22.7734 15.1111 22.7911 15.0489C22.8168 14.9295 22.8797 14.8213 22.9707 14.7398C23.0618 14.6584 23.1763 14.6079 23.2978 14.5956C23.4586 14.5628 23.6226 14.5478 23.7867 14.5511C23.9358 14.5596 24.0843 14.5774 24.2311 14.6045C24.3387 14.6266 24.4363 14.6826 24.5099 14.7641C24.5834 14.8456 24.629 14.9485 24.64 15.0578C24.6444 15.1348 24.6444 15.2119 24.64 15.2889V15.92C24.6325 16.0637 24.6599 16.2071 24.72 16.3378C24.7911 16.4622 24.7378 16.3378 24.7378 16.3467ZM24 15.5289L23.6356 15.6445H23.5111C23.4778 15.6595 23.4502 15.685 23.4326 15.717C23.4149 15.7491 23.4082 15.786 23.4134 15.8222C23.4175 15.86 23.435 15.8951 23.4627 15.9212C23.4904 15.9472 23.5265 15.9626 23.5645 15.9645H23.6356C23.7224 15.9657 23.8067 15.936 23.8736 15.8806C23.9404 15.8252 23.9852 15.7478 24 15.6622C24.0045 15.6179 24.0045 15.5732 24 15.5289Z" fill="#3D7206"/>
<path d="M8.79124 15.1111C8.80349 15.0114 8.84323 14.917 8.90601 14.8385C8.9688 14.76 9.05216 14.7005 9.14679 14.6667C9.28898 14.6137 9.4395 14.5866 9.59124 14.5867C9.78292 14.5601 9.97734 14.5601 10.169 14.5867C10.2966 14.606 10.4148 14.6651 10.5068 14.7556C10.5985 14.8528 10.6549 14.978 10.6668 15.1111C10.6717 15.1614 10.6717 15.212 10.6668 15.2622V16C10.6564 16.1162 10.6779 16.233 10.729 16.3378H10.1868C10.1744 16.3403 10.1617 16.3403 10.1494 16.3375C10.1371 16.3348 10.1255 16.3294 10.1154 16.3219C10.1053 16.3143 10.097 16.3047 10.0909 16.2936C10.0848 16.2826 10.0811 16.2704 10.0801 16.2578L10.0268 16.1333L9.92013 16.2133C9.81959 16.2913 9.69976 16.3404 9.57346 16.3556C9.41845 16.3913 9.25735 16.3913 9.10235 16.3556C9.00679 16.3352 8.91973 16.2862 8.85279 16.215C8.78585 16.1438 8.74222 16.0539 8.72772 15.9573C8.71323 15.8607 8.72857 15.762 8.77168 15.6743C8.8148 15.5866 8.88364 15.5142 8.96902 15.4667C9.09342 15.4188 9.22117 15.3802 9.35124 15.3511L9.87568 15.2356L10.0001 15.1822V15.1378C10.0001 14.9956 9.92902 14.9689 9.7779 14.9689H9.63568C9.59179 14.9719 9.54977 14.9879 9.51496 15.0148C9.48015 15.0417 9.4541 15.0783 9.44013 15.12C9.43294 15.1347 9.42141 15.1469 9.40711 15.1548C9.3928 15.1627 9.37641 15.1661 9.36013 15.1645L8.8179 15.1111H8.79124ZM9.99124 15.5467L9.59124 15.6711C9.55044 15.6835 9.51156 15.7014 9.47568 15.7245C9.44528 15.7457 9.42271 15.7764 9.41146 15.8117C9.40022 15.847 9.40092 15.8851 9.41346 15.92C9.42248 15.9515 9.44095 15.9795 9.46639 16.0002C9.49183 16.0208 9.52299 16.0332 9.55568 16.0356H9.65346C9.74872 16.0312 9.83892 15.9914 9.90635 15.924C9.97378 15.8566 10.0136 15.7664 10.0179 15.6711C10.0177 15.6282 10.0086 15.5859 9.99124 15.5467Z" fill="#D8262C"/>
<path d="M19.5557 14.6489H20.2135V16.3556C20.0124 16.3733 19.8101 16.3733 19.609 16.3556V16.1689L19.4935 16.2667C19.395 16.3217 19.2859 16.355 19.1735 16.3645C19.0209 16.3806 18.8667 16.3655 18.7202 16.32C18.6573 16.3015 18.6008 16.2659 18.5569 16.2173C18.513 16.1687 18.4833 16.1089 18.4713 16.0445C18.4624 15.9975 18.4624 15.9492 18.4713 15.9022V14.6578H19.0491C19.1291 14.6578 19.1291 14.6578 19.1291 14.7378V15.7245C19.1269 15.7694 19.1397 15.8139 19.1654 15.8508C19.1912 15.8878 19.2284 15.9152 19.2713 15.9289C19.3172 15.9443 19.3668 15.9448 19.4131 15.9304C19.4593 15.9161 19.4999 15.8876 19.529 15.8489C19.5455 15.806 19.5455 15.7585 19.529 15.7156V14.6489H19.5557Z" fill="#3D7206"/>
<path d="M14.5244 14.6489V14.8622C14.638 14.7408 14.7939 14.6676 14.96 14.6578C15.1009 14.6313 15.2456 14.6313 15.3866 14.6578C15.472 14.6792 15.5473 14.7295 15.6 14.8C15.6454 14.8551 15.6705 14.9242 15.6711 14.9956V16.3289H15.1111C15.04 16.3289 15.04 16.3289 15.04 16.2578V15.2889C15.04 15.2338 15.0188 15.1809 14.9806 15.1411C14.9425 15.1014 14.8905 15.0779 14.8355 15.0756C14.788 15.0751 14.7419 15.092 14.7059 15.1231C14.6699 15.1542 14.6464 15.1974 14.64 15.2445C14.6309 15.2795 14.6309 15.3162 14.64 15.3511V16.3556H13.9822V14.7022V14.6578H14.5511L14.5244 14.6489Z" fill="#D8262C"/>
<path d="M11.5556 16.3645H10.9067C10.9067 16.3022 10.9067 14.7645 10.9067 14.6578H11.4401C11.5023 14.6578 11.5112 14.6578 11.5112 14.7289V14.8711C11.5632 14.8104 11.6271 14.7609 11.6989 14.7257C11.7708 14.6906 11.8491 14.6705 11.929 14.6667C12.0468 14.6489 12.1667 14.6489 12.2845 14.6667C12.3693 14.6764 12.4496 14.7104 12.5156 14.7645C12.5587 14.798 12.5932 14.8413 12.6164 14.8907C12.6395 14.9402 12.6507 14.9944 12.649 15.0489V16.3556H12.009V15.3689C12.009 15.3689 12.009 15.2978 12.009 15.2622C11.9989 15.2128 11.9723 15.1682 11.9335 15.1359C11.8947 15.1036 11.8461 15.0855 11.7956 15.0845C11.746 15.0825 11.6972 15.0972 11.6569 15.1262C11.6167 15.1552 11.5873 15.1968 11.5734 15.2445V16.3645H11.5556Z" fill="#D8262C"/>
<path d="M18.5601 17.4311L18.7201 17.5467C18.7579 17.6052 18.7793 17.6727 18.7823 17.7422C18.7842 17.8161 18.7604 17.8884 18.715 17.9467C18.6696 18.005 18.6055 18.0459 18.5334 18.0622C18.4596 18.0709 18.385 18.0709 18.3112 18.0622H17.6445V16.8889H18.4179C18.4637 16.8904 18.5088 16.9014 18.5501 16.9213C18.5914 16.9412 18.6281 16.9695 18.6579 17.0045C18.7034 17.0561 18.7286 17.1224 18.729 17.1911C18.7304 17.2417 18.7179 17.2916 18.6928 17.3355C18.6677 17.3794 18.631 17.4156 18.5868 17.44L18.5601 17.4311ZM18.0268 17.8311C18.1154 17.8403 18.2048 17.8403 18.2934 17.8311C18.3194 17.8311 18.3442 17.8208 18.3626 17.8025C18.3809 17.7842 18.3912 17.7593 18.3912 17.7334C18.3938 17.7191 18.3933 17.7045 18.3896 17.6905C18.3858 17.6765 18.3791 17.6635 18.3697 17.6524C18.3603 17.6414 18.3486 17.6325 18.3354 17.6265C18.3223 17.6205 18.3079 17.6176 18.2934 17.6178C18.2054 17.6001 18.1148 17.6001 18.0268 17.6178V17.8311ZM18.0268 17.3334H18.2579C18.3201 17.3334 18.3379 17.3334 18.3468 17.2356C18.3493 17.2227 18.3493 17.2095 18.3466 17.1966C18.3439 17.1838 18.3387 17.1716 18.3312 17.1608C18.3238 17.1501 18.3142 17.1409 18.3031 17.1339C18.2921 17.1269 18.2797 17.1222 18.2668 17.12C18.187 17.1111 18.1065 17.1111 18.0268 17.12V17.3334Z" fill="#3D7206"/>
<path d="M13.5824 16.3645H12.9513C12.9423 16.3416 12.9423 16.3162 12.9513 16.2934V14.6667H13.5824C13.5824 14.8534 13.5824 15.04 13.5824 15.2267V16.3645Z" fill="#D8262C"/>
<path d="M11.0401 17.2178H10.6934C10.6934 17.2178 10.5689 17.0845 10.4445 17.1022C10.4286 17.1041 10.4139 17.1113 10.4026 17.1226C10.3913 17.1339 10.3842 17.1486 10.3823 17.1645C10.3791 17.1809 10.3818 17.1979 10.3899 17.2126C10.398 17.2272 10.4111 17.2385 10.4267 17.2445H10.5423C10.6658 17.2654 10.7856 17.3043 10.8978 17.36C10.9549 17.3828 11.0039 17.422 11.0387 17.4726C11.0735 17.5233 11.0925 17.583 11.0934 17.6445C11.1001 17.7135 11.088 17.783 11.0582 17.8457C11.0285 17.9083 10.9823 17.9616 10.9245 18C10.8385 18.0598 10.7359 18.0909 10.6312 18.0889C10.5217 18.0977 10.4117 18.0977 10.3023 18.0889C10.2107 18.0681 10.1293 18.0158 10.0724 17.941C10.0155 17.8663 9.98675 17.7739 9.99116 17.68H10.3378L10.3823 17.7867C10.4132 17.8336 10.4613 17.8664 10.5162 17.878C10.5711 17.8897 10.6284 17.8792 10.6756 17.8489C10.6926 17.8411 10.7071 17.8286 10.7172 17.8128C10.7273 17.7971 10.7327 17.7787 10.7327 17.76C10.7327 17.7413 10.7273 17.723 10.7172 17.7072C10.7071 17.6915 10.6926 17.6789 10.6756 17.6711C10.6425 17.651 10.6065 17.636 10.5689 17.6267C10.4623 17.6267 10.3556 17.5645 10.2489 17.52C10.1817 17.5017 10.1229 17.4608 10.0824 17.4041C10.0419 17.3474 10.0222 17.2784 10.0267 17.2089C10.0315 17.1314 10.0621 17.0578 10.1136 16.9998C10.1652 16.9417 10.2348 16.9027 10.3112 16.8889C10.4602 16.8534 10.6155 16.8534 10.7645 16.8889C10.8407 16.9048 10.9093 16.9459 10.9593 17.0056C11.0093 17.0653 11.0377 17.14 11.0401 17.2178Z" fill="#3D7206"/>
<path d="M16.249 16.8889V17.3245L16.3201 17.2711C16.3643 17.2389 16.4154 17.2173 16.4694 17.2081C16.5233 17.1988 16.5787 17.2021 16.6312 17.2178C16.6955 17.2327 16.7521 17.2709 16.7898 17.3251C16.8276 17.3793 16.8439 17.4456 16.8356 17.5111V18.1156H16.489V17.6C16.489 17.52 16.489 17.4845 16.4001 17.4756C16.3708 17.473 16.3416 17.4817 16.3185 17.4998C16.2954 17.518 16.28 17.5443 16.2756 17.5734C16.2712 17.6028 16.2712 17.6328 16.2756 17.6623V18.1067H15.929V16.8889H16.249Z" fill="#3D7206"/>
<path d="M21.6001 17.4934C21.6522 17.4412 21.6998 17.3847 21.7424 17.3245C21.7678 17.2781 21.8074 17.241 21.8553 17.2186C21.9033 17.1962 21.9571 17.1897 22.009 17.2H22.2668L21.9468 17.52L22.2846 18.0978H21.9735C21.9501 18.1008 21.9264 18.0952 21.9068 18.0822C21.8873 18.0691 21.873 18.0494 21.8668 18.0267L21.7157 17.7778L21.6179 17.8845C21.6179 17.8845 21.6179 17.8845 21.6179 17.9378V18.1245H21.2712V16.8889H21.6179L21.6001 17.4934Z" fill="#3D7206"/>
<path d="M11.2266 18.4356V18.2045H11.4044C11.4263 18.2052 11.4479 18.1998 11.4667 18.1888C11.4856 18.1778 11.501 18.1616 11.5111 18.1422C11.5214 18.1264 11.5269 18.1078 11.5269 18.0889C11.5269 18.07 11.5214 18.0514 11.5111 18.0356C11.4577 17.9289 11.4133 17.8134 11.3689 17.7067L11.1555 17.1911H11.5555L11.7244 17.7511C11.7673 17.6641 11.7973 17.5713 11.8133 17.4756C11.8482 17.3825 11.8779 17.2875 11.9022 17.1911H12.24C12.24 17.2711 12.1866 17.3511 12.16 17.4134L11.9466 17.9911C11.9466 18.0889 11.8666 18.1778 11.8222 18.2756C11.8061 18.3168 11.7796 18.3532 11.7454 18.3812C11.7111 18.4092 11.6702 18.4279 11.6266 18.4356C11.4945 18.461 11.3587 18.461 11.2266 18.4356Z" fill="#3D7206"/>
<path d="M19.5556 17.5022C19.5556 17.4134 19.5556 17.3956 19.4578 17.3956C19.4179 17.3884 19.3768 17.3951 19.3413 17.4145C19.3057 17.4339 19.2778 17.4648 19.2623 17.5022H18.9511C18.9554 17.4411 18.9794 17.3829 19.0195 17.3365C19.0595 17.29 19.1135 17.2577 19.1734 17.2445C19.3434 17.209 19.5189 17.209 19.6889 17.2445C19.7538 17.2627 19.8104 17.3027 19.8492 17.3577C19.8881 17.4127 19.9068 17.4795 19.9023 17.5467V17.8667C19.8808 17.9543 19.8808 18.0458 19.9023 18.1334H19.6178C19.6006 18.1395 19.5817 18.1395 19.5645 18.1334V18.0711H19.52C19.4536 18.1142 19.3782 18.1415 19.2996 18.1507C19.221 18.16 19.1413 18.151 19.0667 18.1245C19.0191 18.1077 18.9781 18.0763 18.9493 18.0348C18.9206 17.9933 18.9057 17.9438 18.9067 17.8934C18.9027 17.8423 18.9164 17.7914 18.9455 17.7493C18.9747 17.7072 19.0175 17.6764 19.0667 17.6622L19.4223 17.5734L19.5556 17.5022ZM19.5556 17.68L19.3156 17.7511C19.2962 17.7605 19.2804 17.7761 19.2708 17.7954C19.2611 17.8147 19.2581 17.8366 19.2623 17.8578C19.2682 17.8789 19.2811 17.8974 19.2988 17.9103C19.3166 17.9232 19.3381 17.9297 19.36 17.9289C19.3915 17.9323 19.4233 17.9276 19.4525 17.9153C19.4816 17.903 19.5072 17.8835 19.5268 17.8586C19.5463 17.8338 19.5592 17.8043 19.5643 17.7731C19.5693 17.7418 19.5663 17.7098 19.5556 17.68Z" fill="#3D7206"/>
<path d="M15.1112 17.5022H14.8179C14.8207 17.4503 14.8392 17.4004 14.871 17.3591C14.9027 17.3179 14.9462 17.2872 14.9957 17.2711C15.0632 17.2584 15.1326 17.2584 15.2001 17.2711C15.3036 17.2625 15.4077 17.2625 15.5112 17.2711C15.5796 17.2778 15.643 17.3097 15.689 17.3607C15.7351 17.4117 15.7604 17.478 15.7601 17.5467C15.7601 17.6711 15.7601 17.7956 15.7601 17.92C15.7522 18.0026 15.7676 18.0857 15.8045 18.16H15.4845L15.4401 18.0622C15.3914 18.1069 15.3336 18.1404 15.2707 18.1603C15.2077 18.1803 15.1412 18.1862 15.0757 18.1778C15.0331 18.1796 14.9906 18.1726 14.9509 18.1573C14.9111 18.142 14.8749 18.1188 14.8445 18.0889C14.7994 18.0442 14.7739 17.9835 14.7734 17.92C14.7743 17.8711 14.79 17.8236 14.8186 17.7838C14.8472 17.7441 14.8873 17.7141 14.9334 17.6978L15.129 17.6356L15.4223 17.5734C15.4223 17.4845 15.4223 17.4578 15.3334 17.4489C15.296 17.4303 15.2533 17.4254 15.2126 17.4351C15.172 17.4449 15.1361 17.4686 15.1112 17.5022ZM15.3957 17.68L15.1112 17.7778C15.0892 17.7821 15.0697 17.7946 15.0565 17.8127C15.0433 17.8309 15.0374 17.8533 15.0401 17.8756C15.0474 17.8983 15.0616 17.9182 15.0807 17.9325C15.0998 17.9468 15.1229 17.9549 15.1468 17.9556C15.2979 17.9289 15.369 17.84 15.3512 17.68H15.3957Z" fill="#3D7206"/>
<path d="M12.8977 18C12.8321 18.0548 12.7539 18.0925 12.6701 18.1096C12.5863 18.1266 12.4996 18.1226 12.4177 18.0978C12.3679 18.0838 12.3234 18.0551 12.2901 18.0155C12.2568 17.9758 12.2363 17.9271 12.231 17.8756C12.2248 17.8231 12.2375 17.7701 12.2668 17.7261C12.2961 17.6821 12.3402 17.65 12.391 17.6356C12.4537 17.6096 12.5194 17.5917 12.5866 17.5822L12.8799 17.5111C12.8799 17.4222 12.8799 17.3956 12.7822 17.3956C12.7629 17.3902 12.7428 17.3887 12.7229 17.3912C12.7031 17.3936 12.6839 17.4 12.6665 17.4099C12.6492 17.4198 12.634 17.4331 12.6218 17.449C12.6096 17.4648 12.6006 17.4829 12.5955 17.5022H12.2755C12.2786 17.4457 12.299 17.3915 12.334 17.3469C12.369 17.3024 12.4168 17.2697 12.471 17.2534H12.5866C12.7306 17.2268 12.8782 17.2268 13.0222 17.2534C13.0802 17.2673 13.1318 17.3002 13.1689 17.347C13.2059 17.3937 13.2263 17.4515 13.2266 17.5111V17.9022C13.2174 17.9831 13.2362 18.0647 13.2799 18.1334H12.9688C12.9479 18.1177 12.9307 18.0977 12.9184 18.0746C12.9061 18.0516 12.899 18.0261 12.8977 18ZM12.8977 17.6889L12.6666 17.76C12.656 17.7621 12.6459 17.7663 12.6369 17.7725C12.628 17.7786 12.6203 17.7864 12.6145 17.7956C12.6087 17.8047 12.6048 17.8149 12.6031 17.8256C12.6013 17.8363 12.6018 17.8473 12.6044 17.8578C12.6103 17.8789 12.6232 17.8974 12.641 17.9103C12.6587 17.9232 12.6802 17.9297 12.7022 17.9289C12.8355 17.9289 12.9155 17.84 12.8977 17.68V17.6889Z" fill="#3D7206"/>
<path d="M20.4445 18.0978H20.1067V17.2089H20.4445V17.3333L20.5067 17.28C20.5566 17.2323 20.6193 17.2002 20.6872 17.1876C20.7551 17.175 20.8252 17.1824 20.8889 17.2089C20.933 17.223 20.9718 17.2501 21.0003 17.2865C21.0289 17.323 21.0458 17.3672 21.0489 17.4133C21.0489 17.6356 21.0489 17.8578 21.0489 18.08H20.72V17.5378C20.72 17.4756 20.72 17.4489 20.64 17.44C20.6128 17.4355 20.5849 17.439 20.5597 17.45C20.5344 17.461 20.5129 17.4792 20.4978 17.5022C20.4893 17.5552 20.4893 17.6092 20.4978 17.6622V18.08L20.4445 18.0978Z" fill="#3D7206"/>
<path d="M13.2623 13.9111C13.3173 13.9076 13.3724 13.9153 13.4243 13.9336C13.4762 13.9519 13.5239 13.9806 13.5645 14.0178C13.5989 14.0435 13.6265 14.0772 13.6451 14.1158C13.6636 14.1545 13.6726 14.1971 13.6712 14.24C13.6712 14.2814 13.6616 14.3222 13.643 14.3593C13.6245 14.3963 13.5976 14.4285 13.5645 14.4534C13.4799 14.5354 13.3668 14.5812 13.249 14.5812C13.1312 14.5812 13.018 14.5354 12.9334 14.4534C12.8879 14.4018 12.8627 14.3355 12.8623 14.2667C12.8625 14.2262 12.8713 14.1863 12.8882 14.1495C12.905 14.1127 12.9295 14.0799 12.9601 14.0534C12.9976 14.0097 13.0439 13.9745 13.096 13.95C13.1481 13.9255 13.2048 13.9122 13.2623 13.9111Z" fill="#1B7FC2"/>
<path d="M13.4224 18.0978V17.2089H13.7335V17.3334C13.7868 17.2622 13.8224 17.2 13.9024 17.1911C13.9765 17.1789 14.0526 17.1947 14.1157 17.2356L14.0179 17.4756H13.929C13.9008 17.4699 13.8716 17.475 13.8469 17.4898C13.8222 17.5046 13.804 17.528 13.7957 17.5556C13.7784 17.6466 13.7784 17.7401 13.7957 17.8311V18.1156L13.4224 18.0978Z" fill="#3D7206"/>
<path d="M14.5333 17.2089H14.1956V18.0978H14.5333V17.2089Z" fill="#3D7206"/>
<path d="M14.3556 16.8267C14.4145 16.8285 14.471 16.8505 14.5156 16.8889C14.5382 16.8998 14.5572 16.9169 14.5705 16.9381C14.5838 16.9593 14.5908 16.9839 14.5908 17.0089C14.5908 17.034 14.5838 17.0585 14.5705 17.0797C14.5572 17.1009 14.5382 17.118 14.5156 17.1289C14.4744 17.1592 14.4246 17.1756 14.3734 17.1756C14.3222 17.1756 14.2724 17.1592 14.2312 17.1289C14.2126 17.1138 14.1974 17.0949 14.1866 17.0734C14.1759 17.0519 14.1699 17.0284 14.1689 17.0045C14.1726 16.9609 14.1915 16.92 14.2223 16.8889L14.3556 16.8267Z" fill="#1B7FC2"/>
<path d="M27.3601 16.3556C27.3601 16.3556 27.3601 16.3556 27.4134 16.3556C27.4796 16.3545 27.5437 16.3324 27.5965 16.2925C27.6492 16.2525 27.6879 16.1968 27.7068 16.1333C27.7164 16.1068 27.7353 16.0846 27.7601 16.0711C27.8521 16.005 27.929 15.9201 27.9857 15.822C28.0424 15.7239 28.0776 15.6149 28.089 15.5022C28.129 15.3207 28.129 15.1326 28.089 14.9511C28.0848 14.9413 28.0827 14.9307 28.0827 14.92C28.0827 14.9093 28.0848 14.8987 28.089 14.8889C28.089 14.8178 28.089 14.7467 28.089 14.6756C28.1153 14.5036 28.0905 14.3278 28.0179 14.1698C27.9452 14.0118 27.8277 13.8786 27.6801 13.7867L27.6268 13.7333C27.5865 13.6534 27.5162 13.5926 27.4312 13.5645C27.4167 13.5687 27.4013 13.5687 27.3868 13.5645H27.6623H27.7601C28.0035 13.6029 28.2324 13.7055 28.423 13.8617C28.6136 14.018 28.7591 14.2222 28.8446 14.4533C28.9507 14.7401 28.9507 15.0554 28.8446 15.3422C28.7839 15.541 28.6799 15.7239 28.54 15.8776C28.4001 16.0313 28.2279 16.152 28.0357 16.2311C27.8772 16.2942 27.7084 16.3274 27.5379 16.3289L27.3601 16.3556Z" fill="url(#paint0_radial_2707_288328)"/>
<path d="M26.6667 16.0533C26.7832 16.1394 26.9165 16.2 27.0579 16.2311V16.3022H27.0134L26.8712 16.2133H26.8179H26.6667V16.0533Z" fill="url(#paint1_radial_2707_288328)"/>
<path d="M26.7556 16.1245L26.8978 16.2045C26.8686 16.2088 26.8388 16.2032 26.8131 16.1887C26.7873 16.1743 26.7671 16.1517 26.7556 16.1245Z" fill="#EAD99D"/>
<path d="M26.6667 13.8311C26.6667 13.7867 26.729 13.7778 26.7645 13.7689H26.7112L26.6667 13.8311Z" fill="#EAD99D"/>
<path d="M26.7468 13.7689C26.7468 13.7156 26.8002 13.7245 26.8357 13.7156H26.7913L26.7468 13.7689Z" fill="#EAD99D"/>
<path d="M26.6667 16.0889H26.7201C26.7201 16.0889 26.6667 16.1333 26.6667 16.0889Z" fill="#EAD99D"/>
<path d="M26.9333 16.2222H26.9778C26.9778 16.2222 26.9333 16.2578 26.9333 16.2222Z" fill="#3D7206"/>
<path d="M26.7556 14.2667V14.3467L26.5689 14.7022V14.7645C26.728 14.7915 26.8795 14.8521 27.0134 14.9422C26.8889 15.0444 26.7431 15.1173 26.5867 15.1556C26.6756 15.3245 26.7823 15.4578 26.8623 15.6267C26.7884 15.6248 26.7169 15.6 26.6578 15.5556L26.4623 15.44C26.4623 15.5111 26.4623 15.5645 26.5067 15.6178C26.511 15.6711 26.511 15.7246 26.5067 15.7778C26.4557 15.7326 26.4135 15.6784 26.3823 15.6178L26.2934 15.4311V15.4845C26.2934 15.4134 26.2489 15.3422 26.2311 15.28C26.2235 15.2329 26.2235 15.1849 26.2311 15.1378C26.2091 14.9488 26.2091 14.7579 26.2311 14.5689C26.2311 14.5689 26.2311 14.5689 26.2311 14.5245C26.2311 14.48 26.2756 14.5245 26.2845 14.5245C26.3043 14.4637 26.3281 14.4044 26.3556 14.3467C26.3857 14.2824 26.4246 14.2225 26.4711 14.1689L26.4178 14.4978C26.5213 14.4017 26.6463 14.3316 26.7823 14.2934L26.7556 14.2667Z" fill="#964F59"/>
<path d="M27.5557 15.3689L27.209 14.9245L27.5201 14.4622C27.6626 14.5736 27.7731 14.7209 27.8401 14.8889C27.793 15.0728 27.6943 15.2393 27.5557 15.3689Z" fill="url(#paint2_radial_2707_288328)"/>
<path d="M27.0935 14.8178L26.7468 14.6311L26.9335 14.2222C27.0986 14.2225 27.2609 14.2654 27.4046 14.3467C27.3334 14.5229 27.2276 14.6831 27.0935 14.8178Z" fill="url(#paint3_radial_2707_288328)"/>
<path d="M27.449 15.4756C27.3068 15.5669 27.1457 15.6247 26.9779 15.6444L26.7734 15.2622L27.0934 15.0489C27.224 15.1807 27.3429 15.3234 27.449 15.4756Z" fill="url(#paint4_radial_2707_288328)"/>
<path d="M27.04 15.7689C27.2088 15.7467 27.3717 15.6924 27.52 15.6089C27.565 15.7341 27.5772 15.8687 27.5556 16C27.4398 16.0675 27.3074 16.1014 27.1734 16.0978L27.04 15.7689Z" fill="url(#paint5_radial_2707_288328)"/>
<path d="M27.4579 14.2222C27.312 14.1478 27.1507 14.1082 26.9868 14.1067L27.0846 13.7689C27.1995 13.7513 27.3164 13.7513 27.4313 13.7689C27.4438 13.7699 27.456 13.7736 27.4671 13.7797C27.4781 13.7857 27.4878 13.7941 27.4953 13.8042C27.5029 13.8143 27.5082 13.8259 27.511 13.8382C27.5137 13.8505 27.5138 13.8632 27.5113 13.8756C27.5261 13.9938 27.5076 14.1139 27.4579 14.2222Z" fill="url(#paint6_radial_2707_288328)"/>
<path d="M27.929 14.6311C27.84 14.5051 27.7285 14.3966 27.6001 14.3111L27.6712 13.9556C27.7591 14.0438 27.8275 14.1496 27.8719 14.2659C27.9163 14.3823 27.9358 14.5067 27.929 14.6311Z" fill="url(#paint7_radial_2707_288328)"/>
<path d="M26.5688 15.6978H26.6666L26.88 15.7511C26.8952 15.7483 26.911 15.7513 26.9241 15.7596C26.9373 15.7678 26.9469 15.7806 26.9511 15.7956C26.9865 15.8987 27.028 15.9996 27.0755 16.0978H27.0044C26.8864 16.088 26.7716 16.0548 26.6666 16C26.6608 15.9859 26.6577 15.9708 26.6577 15.9556C26.6577 15.9403 26.6608 15.9252 26.6666 15.9111L26.6133 15.6978H26.5688Z" fill="url(#paint8_radial_2707_288328)"/>
<path d="M26.9422 13.8045C26.9422 13.8933 26.88 13.9911 26.8533 14.0889C26.7587 14.1125 26.6686 14.1516 26.5867 14.2045C26.5867 14.1245 26.5867 14.0445 26.6311 13.9733C26.6311 13.9733 26.6756 13.9022 26.6311 13.9733C26.7284 13.8937 26.84 13.8333 26.96 13.7956L26.9422 13.8045Z" fill="url(#paint9_radial_2707_288328)"/>
<path d="M27.5556 16.1689C27.5304 16.2125 27.4941 16.2487 27.4503 16.2737C27.4066 16.2987 27.357 16.3116 27.3067 16.3111C27.2631 16.3233 27.217 16.3233 27.1733 16.3111V16.2489L27.5556 16.1689Z" fill="url(#paint10_radial_2707_288328)"/>
<path d="M27.1022 13.6089H27.28C27.3077 13.6082 27.3352 13.6143 27.36 13.6267C27.3848 13.6391 27.4062 13.6574 27.4222 13.68H27.0844C27.0844 13.68 27.0755 13.6267 27.1022 13.6089Z" fill="url(#paint11_radial_2707_288328)"/>
<path d="M26.8 13.76H26.8445C26.8445 13.76 26.9067 13.6978 26.96 13.76L26.8178 13.8311L26.8 13.76Z" fill="#136C3A"/>
<path d="M24.8889 14.6311H25.5378V16.3467H24.8889C24.8889 16.2934 24.8889 14.7645 24.8889 14.6311Z" fill="#3D7206"/>
<path d="M25.2356 14.5334C25.1779 14.5383 25.1197 14.5313 25.0646 14.513C25.0096 14.4946 24.9589 14.4653 24.9156 14.4267C24.8854 14.4 24.8611 14.3672 24.8445 14.3304C24.8279 14.2936 24.8193 14.2537 24.8193 14.2134C24.8193 14.173 24.8279 14.1331 24.8445 14.0963C24.8611 14.0595 24.8854 14.0267 24.9156 14C24.986 13.9347 25.0775 13.8968 25.1734 13.8934C25.2824 13.8759 25.3939 13.9014 25.4845 13.9645C25.5275 13.9903 25.5632 14.0268 25.5881 14.0704C25.613 14.1139 25.6263 14.1632 25.6267 14.2134C25.6267 14.2681 25.6119 14.3219 25.5837 14.3688C25.5555 14.4158 25.5151 14.4542 25.4667 14.48C25.3981 14.5237 25.3165 14.5426 25.2356 14.5334Z" fill="#1B7FC2"/>
</g>
<defs>
<radialGradient id="paint0_radial_2707_288328" cx="0" cy="0" r="1" gradientUnits="userSpaceOnUse" gradientTransform="translate(30.3478 13.2517) rotate(59.2753) scale(1.09608)">
<stop stop-color="white"/>
<stop offset="1" stop-color="#58A034"/>
</radialGradient>
<radialGradient id="paint1_radial_2707_288328" cx="0" cy="0" r="1" gradientUnits="userSpaceOnUse" gradientTransform="translate(30.3477 13.2517) rotate(59.2753) scale(1.09608)">
<stop stop-color="white"/>
<stop offset="1" stop-color="#58A034"/>
</radialGradient>
<radialGradient id="paint2_radial_2707_288328" cx="0" cy="0" r="1" gradientUnits="userSpaceOnUse" gradientTransform="translate(30.3477 13.2518) rotate(59.2753) scale(1.09608)">
<stop stop-color="white"/>
<stop offset="1" stop-color="#58A034"/>
</radialGradient>
<radialGradient id="paint3_radial_2707_288328" cx="0" cy="0" r="1" gradientUnits="userSpaceOnUse" gradientTransform="translate(30.3478 13.2517) rotate(59.2753) scale(1.09608)">
<stop stop-color="white"/>
<stop offset="1" stop-color="#58A034"/>
</radialGradient>
<radialGradient id="paint4_radial_2707_288328" cx="0" cy="0" r="1" gradientUnits="userSpaceOnUse" gradientTransform="translate(30.3477 13.2517) rotate(59.2754) scale(1.09608 1.09607)">
<stop stop-color="white"/>
<stop offset="1" stop-color="#58A034"/>
</radialGradient>
<radialGradient id="paint5_radial_2707_288328" cx="0" cy="0" r="1" gradientUnits="userSpaceOnUse" gradientTransform="translate(30.3477 13.2517) rotate(59.2754) scale(1.09608 1.09608)">
<stop stop-color="white"/>
<stop offset="1" stop-color="#58A034"/>
</radialGradient>
<radialGradient id="paint6_radial_2707_288328" cx="0" cy="0" r="1" gradientUnits="userSpaceOnUse" gradientTransform="translate(30.3478 13.2518) rotate(59.2753) scale(1.09608)">
<stop stop-color="white"/>
<stop offset="1" stop-color="#58A034"/>
</radialGradient>
<radialGradient id="paint7_radial_2707_288328" cx="0" cy="0" r="1" gradientUnits="userSpaceOnUse" gradientTransform="translate(30.3477 13.2517) rotate(59.2752) scale(1.09608 1.09608)">
<stop stop-color="white"/>
<stop offset="1" stop-color="#58A034"/>
</radialGradient>
<radialGradient id="paint8_radial_2707_288328" cx="0" cy="0" r="1" gradientUnits="userSpaceOnUse" gradientTransform="translate(30.3476 13.2517) rotate(59.2754) scale(1.09608 1.09608)">
<stop stop-color="white"/>
<stop offset="1" stop-color="#58A034"/>
</radialGradient>
<radialGradient id="paint9_radial_2707_288328" cx="0" cy="0" r="1" gradientUnits="userSpaceOnUse" gradientTransform="translate(30.3476 13.2517) rotate(59.2753) scale(1.09607 1.09608)">
<stop stop-color="white"/>
<stop offset="1" stop-color="#58A034"/>
</radialGradient>
<radialGradient id="paint10_radial_2707_288328" cx="0" cy="0" r="1" gradientUnits="userSpaceOnUse" gradientTransform="translate(30.3477 13.2518) rotate(59.2753) scale(1.09608)">
<stop stop-color="white"/>
<stop offset="1" stop-color="#58A034"/>
</radialGradient>
<radialGradient id="paint11_radial_2707_288328" cx="0" cy="0" r="1" gradientUnits="userSpaceOnUse" gradientTransform="translate(30.3476 13.2518) rotate(59.2752) scale(1.09608 1.09608)">
<stop stop-color="white"/>
<stop offset="1" stop-color="#58A034"/>
</radialGradient>
<clipPath id="clip0_2707_288328">
<rect width="32" height="32" fill="white"/>
</clipPath>
</defs>
</svg>
