<svg width="32" height="32" viewBox="0 0 32 32" fill="none" xmlns="http://www.w3.org/2000/svg">
<g clip-path="url(#clip0_2707_287848)">
<path d="M16 31.9822C24.8268 31.9822 31.9823 24.8267 31.9823 16C31.9823 7.17326 24.8268 0.0177777 16 0.0177777C7.17331 0.0177777 0.0178223 7.17326 0.0178223 16C0.0178223 24.8267 7.17331 31.9822 16 31.9822Z" fill="white"/>
<path d="M5.79567 21.84C5.85467 21.8714 5.91739 21.8953 5.98233 21.9111H6.43567C6.43567 22 6.38233 22.0533 6.35567 22.0711C6.329 22.0889 6.19567 22.2222 6.26678 22.3111C6.33789 22.4 6.41789 22.3733 6.49789 22.3733C6.57789 22.3733 6.69344 22.2667 6.65789 22.1333C6.62233 22 6.60456 22.0356 6.57789 21.9733C6.77813 21.8915 6.99928 21.876 7.209 21.9289C7.06865 22.0877 6.96934 22.2785 6.91975 22.4846C6.87017 22.6907 6.87182 22.9058 6.92456 23.1111C6.72919 23.1612 6.52437 23.1612 6.329 23.1111C6.329 22.9067 6.64011 22.8444 6.54233 22.6044C6.41789 22.6044 6.27567 22.5244 6.15122 22.6578C6.02678 22.7911 6.15122 22.8889 6.20456 23.0933H5.55567C5.76375 22.8601 5.8833 22.5613 5.89345 22.2489C5.89345 22.08 5.89345 21.9733 5.689 22C5.48456 22.0267 5.37789 22.0711 5.21789 22.1067C5.21789 22.2756 5.13789 22.4356 5.10233 22.6044C5.06678 22.7733 4.969 22.9422 5.26233 23.04C5.03316 23.1283 4.78435 23.1529 4.54233 23.1111C4.70177 22.868 4.80221 22.591 4.83567 22.3022C4.83567 22.2044 4.83567 22.0978 4.70233 22.0711C4.569 22.0444 4.48011 22.0711 4.409 22.2578H4.46233C4.53345 22.2578 4.57789 22.1067 4.68456 22.1956C4.79122 22.2844 4.74678 22.2933 4.729 22.3022C4.68603 22.3735 4.62461 22.4318 4.55122 22.4711C4.51743 22.4833 4.48139 22.4881 4.44559 22.485C4.40978 22.482 4.37506 22.4712 4.34381 22.4535C4.31256 22.4357 4.28552 22.4115 4.26455 22.3823C4.24358 22.3531 4.22918 22.3197 4.22233 22.2844C4.20619 22.2079 4.22032 22.1282 4.26176 22.0619C4.3032 21.9956 4.36872 21.9479 4.44456 21.9289C4.52995 21.9154 4.61694 21.9154 4.70233 21.9289L5.83122 21.8667L5.79567 21.84Z" fill="#231F20"/>
<path d="M10.7823 22.3467H10.7112L10.6579 22.56H10.7379C10.7569 22.4988 10.7717 22.4365 10.7823 22.3733M9.98232 23.04C10.0623 22.9422 10.1334 22.8622 10.1957 22.7733L10.6401 22.0711C10.7023 21.9733 10.7734 21.8756 10.9157 21.9111C11.0579 21.9467 11.0401 22.0533 11.0579 22.1511C11.1201 22.4711 11.1912 22.7911 11.2712 23.1467C11.1023 23.2444 10.9068 23.1467 10.6845 23.1467C10.6949 23.0911 10.7128 23.0373 10.7379 22.9867C10.8179 22.9422 10.889 22.8889 10.8445 22.7911C10.8001 22.6933 10.5957 22.6667 10.4979 22.7378C10.4001 22.8089 10.3912 22.9156 10.409 22.9422C10.4268 22.9689 10.409 23.1289 10.3379 23.1378C10.178 23.1466 10.0178 23.1466 9.85787 23.1378C9.82655 23.2665 9.78187 23.3917 9.72454 23.5111C9.68493 23.5716 9.63087 23.6213 9.56725 23.6557C9.50362 23.6901 9.43243 23.7082 9.3601 23.7082C9.28777 23.7082 9.21657 23.6901 9.15295 23.6557C9.08932 23.6213 9.03526 23.5716 8.99565 23.5111C8.9813 23.4949 8.97112 23.4754 8.96597 23.4544C8.96083 23.4334 8.96089 23.4114 8.96614 23.3904C8.97139 23.3694 8.98168 23.35 8.99611 23.3338C9.01055 23.3177 9.02869 23.3053 9.04899 23.2978C9.04899 23.2978 9.15565 23.3422 9.2001 23.3867C9.24454 23.4311 9.39565 23.5111 9.43121 23.3867C9.53787 23.0222 9.62676 22.6578 9.70676 22.2933C9.70676 22.2489 9.64454 22.1511 9.6001 22.1333C9.5036 22.1109 9.40326 22.1109 9.30676 22.1333C9.30676 22.1333 9.25343 22.2222 9.23565 22.2756C9.27966 22.2844 9.32498 22.2844 9.36899 22.2756C9.36899 22.2756 9.42232 22.2222 9.43121 22.2222C9.4401 22.2222 9.56454 22.3022 9.56454 22.3378C9.56193 22.3707 9.55198 22.4027 9.53544 22.4314C9.51889 22.46 9.49617 22.4846 9.46891 22.5033C9.44166 22.5221 9.41056 22.5345 9.3779 22.5397C9.34523 22.5449 9.31182 22.5427 9.2801 22.5333C9.21191 22.5086 9.15264 22.4641 9.10989 22.4055C9.06713 22.3469 9.04283 22.2769 9.0401 22.2044C9.0466 22.1332 9.07615 22.066 9.12427 22.0131C9.17239 21.9602 9.23646 21.9243 9.30676 21.9111C10.0534 21.8222 10.0979 21.9111 9.9201 22.6133C9.9201 22.7378 9.83121 22.8533 9.9201 23.0133" fill="#231F20"/>
<path d="M23.1112 22.4889C23.2001 22.3822 23.3067 22.3111 23.3245 22.2222C23.3423 22.1333 23.2178 22.1067 23.1378 22.1067C23.0578 22.1067 22.9778 22.2222 22.9867 22.32C22.9956 22.4178 23.049 22.4089 23.1112 22.4889ZM22.9512 22.6311C22.7912 22.8089 22.8445 22.9511 23.0134 23.1289H22.3201C22.4651 22.9767 22.5651 22.7874 22.609 22.5818C22.6529 22.3763 22.6391 22.1626 22.569 21.9644C22.7198 21.8962 22.8834 21.8609 23.049 21.8609C23.2145 21.8609 23.3781 21.8962 23.529 21.9644C23.572 21.9841 23.6094 22.0142 23.6379 22.0519C23.6664 22.0897 23.685 22.134 23.6921 22.1807C23.6991 22.2275 23.6944 22.2753 23.6784 22.3198C23.6623 22.3643 23.6354 22.4041 23.6001 22.4356C23.4949 22.5308 23.3819 22.6171 23.2623 22.6933C23.3614 22.8774 23.4712 23.0555 23.5912 23.2267C23.7423 23.4222 23.769 23.4133 24.0445 23.2978C24.1601 23.2533 24.2045 23.2978 24.2134 23.4222C24.2185 23.4578 24.2159 23.494 24.2057 23.5284C24.1955 23.5628 24.178 23.5947 24.1544 23.6217C24.1307 23.6487 24.1015 23.6703 24.0687 23.685C24.036 23.6996 24.0004 23.707 23.9645 23.7067C23.8559 23.7185 23.7462 23.6988 23.6484 23.65C23.5507 23.6011 23.4691 23.5251 23.4134 23.4311L22.9512 22.6489" fill="#231F20"/>
<path d="M15.0578 23.1111C15.0952 23.1726 15.14 23.2293 15.1911 23.28C15.2978 23.3778 15.4044 23.4311 15.52 23.28C15.52 23.28 15.6622 23.28 15.6889 23.28C15.7019 23.3094 15.7086 23.3412 15.7086 23.3733C15.7086 23.4055 15.7019 23.4373 15.6889 23.4667C15.6613 23.5142 15.6238 23.5551 15.5789 23.5868C15.534 23.6185 15.4828 23.6401 15.4289 23.6503C15.3749 23.6604 15.3193 23.6588 15.266 23.6455C15.2127 23.6322 15.1629 23.6076 15.12 23.5733C14.9599 23.426 14.8195 23.2587 14.7022 23.0756C14.6123 22.9327 14.5379 22.7808 14.48 22.6222C14.2489 22.7556 14.3644 22.9067 14.48 23.0489C14.2742 23.1109 14.0547 23.1109 13.8489 23.0489C14.0315 22.8346 14.1378 22.5657 14.1511 22.2844C14.1689 22.2024 14.1689 22.1176 14.1511 22.0356C14.1511 21.8133 14.1511 21.8044 14.3111 21.8133L14.7111 21.8578C14.6311 22.0267 14.4089 22.1067 14.4889 22.3467C14.6141 22.2609 14.7302 22.1626 14.8355 22.0533V21.84C15.0247 21.7882 15.2242 21.7882 15.4133 21.84L14.7111 22.3644C14.7448 22.6201 14.8566 22.8591 15.0311 23.0489L15.0578 23.1111Z" fill="#231F20"/>
<path d="M17.5911 22.2222C17.5307 22.1851 17.4647 22.158 17.3956 22.1422C17.2533 22.1422 17.2356 22.24 17.2178 22.3378C17.2 22.4356 17.2978 22.4533 17.3422 22.4533C17.374 22.4558 17.406 22.4516 17.4361 22.4411C17.4663 22.4306 17.4939 22.414 17.5173 22.3923C17.5406 22.3706 17.5593 22.3442 17.572 22.315C17.5847 22.2857 17.5912 22.2541 17.5911 22.2222ZM17.5911 22.6667L17.9022 23.1022C17.5733 23.2178 17.5733 23.2178 17.44 23.0044L17.2444 22.6667C17.0222 22.8089 17.1289 22.9689 17.2444 23.12C17.0338 23.1958 16.8068 23.2142 16.5867 23.1733C16.7391 23.0183 16.8461 22.8245 16.8963 22.613C16.9464 22.4015 16.9377 22.1803 16.8711 21.9733C17.1161 21.9426 17.3639 21.9426 17.6089 21.9733C17.6891 21.9651 17.7698 21.9843 17.8376 22.0279C17.9054 22.0715 17.9564 22.1369 17.9822 22.2133C18.0356 22.3822 17.92 22.4889 17.8044 22.5778L17.6178 22.7022" fill="#231F20"/>
<path d="M7.11108 23.1556C7.2735 23.0017 7.3719 22.7922 7.38664 22.5689C7.43997 22.3733 7.54664 22.1689 7.32442 21.9644C7.65084 21.9075 7.98466 21.9075 8.31108 21.9644C8.50664 21.9644 8.47108 22.1511 8.4622 22.3467C8.34925 22.2744 8.23029 22.2119 8.10664 22.16C8.02358 22.1286 7.93192 22.1286 7.84886 22.16C7.82288 22.1808 7.80327 22.2085 7.79227 22.24C7.78127 22.2714 7.77932 22.3053 7.78664 22.3378C7.78664 22.4356 7.88442 22.3911 7.94664 22.3378C7.96163 22.298 7.97946 22.2594 7.99997 22.2222C8.09775 22.4533 7.94664 22.6044 7.91997 22.8444L7.67108 22.6044C7.67108 22.6756 7.60886 22.7289 7.59108 22.7822C7.57331 22.8356 7.59108 22.9778 7.75108 22.96C7.83839 22.9517 7.92301 22.9252 7.99953 22.8824C8.07606 22.8395 8.14281 22.7812 8.19553 22.7111C8.19553 22.7111 8.28442 22.7111 8.32886 22.7111C8.37331 22.7111 8.32886 22.7822 8.32886 22.8178C8.2222 23.1289 8.16886 23.1644 7.83108 23.1644H7.11108" fill="#231F20"/>
<path d="M22.5067 22.5333C22.4228 22.5816 22.352 22.6498 22.3008 22.732C22.2497 22.8142 22.2196 22.9078 22.2134 23.0044C22.2041 23.037 22.1871 23.0669 22.1639 23.0917C22.1407 23.1164 22.112 23.1353 22.0801 23.1467C21.8968 23.1645 21.7122 23.1645 21.529 23.1467C21.455 23.13 21.3851 23.0987 21.3233 23.0546C21.2616 23.0105 21.2093 22.9545 21.1696 22.8899C21.1298 22.8253 21.1034 22.7534 21.0918 22.6784C21.0803 22.6034 21.0838 22.5269 21.1023 22.4533C21.1224 22.3568 21.1613 22.2653 21.217 22.1839C21.2726 22.1026 21.3438 22.033 21.4264 21.9793C21.509 21.9256 21.6015 21.8888 21.6984 21.871C21.7953 21.8532 21.8949 21.8547 21.9912 21.8756L22.3023 21.9378V22.4267C22.1956 22.3022 22.1512 22.2311 22.0978 22.1778C22.0608 22.143 22.0168 22.1166 21.9687 22.1003C21.9206 22.0839 21.8696 22.0781 21.8191 22.0832C21.7685 22.0882 21.7197 22.104 21.6757 22.1295C21.6318 22.1551 21.5939 22.1897 21.5645 22.2311C21.5001 22.3204 21.4655 22.4277 21.4655 22.5378C21.4655 22.6479 21.5001 22.7551 21.5645 22.8444C21.6445 22.9333 21.7423 23.0133 21.8667 22.9333C21.9912 22.8533 22.0623 22.7467 21.8667 22.6222C21.6712 22.4978 21.8667 22.48 21.9112 22.4711C22.1071 22.4217 22.314 22.4405 22.4978 22.5244" fill="#231F20"/>
<path d="M24.889 22.4356C24.8446 22.3378 24.8268 22.2133 24.7557 22.1511C24.711 22.131 24.6625 22.1206 24.6135 22.1206C24.5644 22.1206 24.5159 22.131 24.4712 22.1511C24.363 22.2321 24.2856 22.3475 24.2517 22.4784C24.2178 22.6092 24.2293 22.7477 24.2846 22.8711C24.3912 23.0222 24.5601 23.0578 24.6757 22.8711C24.759 22.7291 24.8303 22.5805 24.889 22.4267M24.4801 23.1556C24.4006 23.1605 24.3208 23.1489 24.246 23.1215C24.1711 23.0941 24.1027 23.0515 24.0451 22.9964C23.9875 22.9413 23.9419 22.8749 23.9112 22.8013C23.8805 22.7277 23.8654 22.6486 23.8668 22.5689C23.8797 22.3768 23.9631 22.1962 24.1008 22.0618C24.2386 21.9273 24.4211 21.8483 24.6135 21.84C24.7754 21.8423 24.9301 21.9077 25.0446 22.0222C25.1591 22.1367 25.2245 22.2914 25.2268 22.4533C25.2114 22.6421 25.1265 22.8184 24.9886 22.9481C24.8506 23.0779 24.6694 23.1518 24.4801 23.1556Z" fill="#231F20"/>
<path d="M26.1512 21.9467C26.2347 21.8927 26.3319 21.864 26.4312 21.864C26.5306 21.864 26.6278 21.8927 26.7112 21.9467C26.409 22.1422 26.4268 22.4533 26.3468 22.72C26.333 22.7913 26.3052 22.8592 26.2651 22.9197C26.2249 22.9802 26.1732 23.0322 26.1129 23.0727C26.0526 23.1132 25.9849 23.1413 25.9137 23.1555C25.8425 23.1698 25.7691 23.1698 25.6979 23.1556C25.4224 23.1556 25.3246 22.9511 25.3424 22.6756C25.3601 22.4 25.5379 22.24 25.3424 22.0089C25.3494 21.9791 25.3625 21.9511 25.3808 21.9266C25.3992 21.9022 25.4224 21.8818 25.449 21.8667C25.5346 21.8459 25.6234 21.8423 25.7104 21.856C25.7973 21.8697 25.8807 21.9005 25.9557 21.9467C25.6801 22.1067 25.689 22.3822 25.6179 22.6133C25.5468 22.8444 25.6179 22.8978 25.7512 22.9333C25.7828 22.9426 25.8159 22.9454 25.8485 22.9414C25.8811 22.9374 25.9126 22.9267 25.9409 22.91C25.9693 22.8934 25.9939 22.8711 26.0132 22.8445C26.0326 22.8179 26.0463 22.7876 26.0535 22.7556C26.1335 22.4889 26.2757 22.2222 26.1068 21.9378" fill="#231F20"/>
<path d="M19.7956 22.2667L19.6889 22.5333C19.6889 22.5333 19.7512 22.5333 19.7689 22.5333C19.7867 22.5333 19.8667 22.4 19.7689 22.2578M20.2934 23.1467H19.6978C19.6978 23.0933 19.6978 23.04 19.7601 23.0222C19.8223 23.0044 19.9023 22.88 19.8312 22.8089C19.7994 22.7828 19.762 22.7644 19.7219 22.7551C19.6818 22.7459 19.6401 22.746 19.6001 22.7556C19.5603 22.7643 19.5234 22.7826 19.4924 22.809C19.4614 22.8353 19.4373 22.8689 19.4223 22.9067C19.4223 22.9067 19.4667 23.0311 19.4934 23.1111C19.318 23.1735 19.1265 23.1735 18.9512 23.1111L19.5823 22.1422C19.6155 22.0769 19.6542 22.0145 19.6978 21.9556C19.8489 21.7956 20.0267 21.8311 20.0801 22.0533C20.1334 22.2756 20.1512 22.5067 20.1956 22.7378C20.2401 22.9689 20.2489 22.9511 20.2934 23.12" fill="#231F20"/>
<path d="M13.2357 22.2756L13.129 22.5244C13.129 22.5244 13.1824 22.5244 13.209 22.5244C13.2357 22.5244 13.3157 22.4 13.209 22.2578M12.4446 23.1111L13.1024 22.0889C13.1287 22.0375 13.1616 21.9897 13.2001 21.9467C13.2208 21.9106 13.2525 21.882 13.2906 21.8651C13.3286 21.8483 13.3711 21.844 13.4117 21.8529C13.4524 21.8618 13.4891 21.8835 13.5166 21.9148C13.5441 21.946 13.5609 21.9852 13.5646 22.0267C13.6179 22.2222 13.6446 22.4267 13.6801 22.6222C13.7157 22.8178 13.7424 22.9333 13.7779 23.1111H13.2268C13.2268 23.1111 13.2268 23.0489 13.2268 23.0311C13.2268 23.0133 13.4135 22.8978 13.3424 22.7733C13.2712 22.6489 13.1379 22.6933 13.0312 22.7733C12.9246 22.8533 12.8801 22.88 12.9424 22.9778C13.0046 23.0756 12.9424 23.1733 12.8446 23.1733L12.4446 23.1111Z" fill="#231F20"/>
<path d="M16 22.4978L15.9023 22.32C15.8696 22.3623 15.8399 22.4069 15.8134 22.4533C15.8075 22.4674 15.8045 22.4825 15.8045 22.4978C15.8045 22.513 15.8075 22.5281 15.8134 22.5422L15.9645 22.4978M15.1111 23.1644C15.3511 22.8 15.5823 22.4356 15.8223 22.08C15.8505 22.0302 15.8865 21.9852 15.9289 21.9467C16.0711 21.8311 16.2134 21.8756 16.2489 22.0533C16.3378 22.4 16.4 22.7556 16.48 23.12C16.2948 23.178 16.0963 23.178 15.9111 23.12C15.9111 23.0756 15.9111 23.04 15.9111 23.0222C15.9111 23.0044 16.1156 22.88 16.0267 22.7911C15.9157 22.7452 15.791 22.7452 15.68 22.7911C15.6533 22.7911 15.6274 22.8004 15.6068 22.8173C15.5861 22.8342 15.572 22.8578 15.5667 22.884C15.5615 22.9102 15.5655 22.9374 15.578 22.961C15.5906 22.9846 15.6109 23.0031 15.6356 23.0133C15.6356 23.0133 15.6356 23.1556 15.5645 23.1556C15.4046 23.1644 15.2443 23.1644 15.0845 23.1556L15.1111 23.1644Z" fill="#231F20"/>
<path d="M27.5556 22.2222C27.4756 22.1511 27.4401 22.0978 27.3956 22.0889C27.3512 22.08 27.2001 22.1689 27.2089 22.3111C27.2171 22.3478 27.2395 22.3798 27.2712 22.4C27.3694 22.3464 27.4644 22.287 27.5556 22.2222ZM26.5778 23.1111C26.7067 22.9405 26.7985 22.7448 26.8475 22.5367C26.8965 22.3285 26.9015 22.1124 26.8623 21.9022C27.0868 21.8447 27.3222 21.8447 27.5467 21.9022C27.6801 21.9022 27.7956 21.9733 27.8223 22.1333C27.842 22.2119 27.8363 22.2947 27.806 22.3698C27.7756 22.4448 27.7222 22.5084 27.6534 22.5511C27.5629 22.5912 27.4671 22.6181 27.3689 22.6311C27.0756 22.6756 27.0756 22.6756 27.1645 22.9867C27.1645 22.9867 27.1645 23.0667 27.1645 23.12C26.9672 23.1778 26.7574 23.1778 26.5601 23.12" fill="#231F20"/>
<path d="M11.9557 22.4711C12.0624 22.3022 12.1779 22.1956 12.1601 22.1511C12.0268 21.8667 12.249 21.9111 12.3824 21.8933C12.5157 21.8756 12.5424 21.8933 12.649 21.9644L12.1868 22.5067C12.1015 22.5764 12.0465 22.6764 12.0332 22.7857C12.02 22.895 12.0495 23.0053 12.1157 23.0933C11.9024 23.2178 11.7068 23.1378 11.4224 23.1733C11.529 23.0578 11.5646 23.0044 11.609 22.9689C11.6685 22.9276 11.7117 22.8668 11.7312 22.797C11.7507 22.7272 11.7452 22.6528 11.7157 22.5867C11.6357 22.3822 11.529 22.1956 11.4313 21.9733C11.5113 21.8667 11.6535 21.8667 11.7957 21.8667C11.9379 21.8667 12.0001 21.8667 11.9201 22.1067C11.9077 22.2278 11.9077 22.35 11.9201 22.4711" fill="#231F20"/>
<path d="M18.1602 23.1111C18.4002 22.7911 18.4002 22.7911 18.4979 22.0889L18.1602 22.2756C18.1602 21.9822 18.1602 21.9111 18.3379 21.9022C18.5157 21.8933 18.8002 21.9022 19.0313 21.9022C19.0846 21.9022 19.1646 21.9022 19.1735 21.9733C19.2012 22.0626 19.2161 22.1554 19.2179 22.2489L18.9957 22.2222L18.8713 22.1333C18.7824 22.4711 18.5957 22.7733 18.7379 23.1467C18.5507 23.211 18.3474 23.211 18.1602 23.1467" fill="#231F20"/>
<path d="M16.3555 8.29333L17.0488 8.43555C17.8568 8.57111 18.6228 8.89102 19.2872 9.37043C19.9516 9.84985 20.4966 10.4759 20.8799 11.2C21.23 11.7858 21.4597 12.4355 21.5555 13.1111C21.5955 13.5754 21.5955 14.0423 21.5555 14.5067C21.496 15.172 21.3121 15.8203 21.0133 16.4178C20.4832 17.4836 19.6269 18.3524 18.5688 18.8978C17.6537 19.3654 16.629 19.5759 15.6037 19.5071C14.5783 19.4382 13.5909 19.0924 12.7466 18.5067C11.5695 17.6926 10.7613 16.4467 10.4977 15.04C10.3734 14.4258 10.3465 13.7959 10.4177 13.1733C10.5152 12.3487 10.8211 11.5625 11.3066 10.8889C11.8862 9.99923 12.7017 9.2883 13.6622 8.83555C14.2487 8.57565 14.8727 8.41063 15.5111 8.34667L15.6622 8.30222L16.3555 8.29333ZM10.9155 13.9644C10.9102 14.9754 11.2054 15.9652 11.7636 16.8082C12.3218 17.6511 13.1179 18.3092 14.0508 18.6989C14.9836 19.0887 16.0113 19.1925 17.0032 18.9972C17.9952 18.8019 18.9068 18.3163 19.6223 17.602C20.3378 16.8878 20.825 15.977 21.022 14.9854C21.2191 13.9938 21.1171 12.966 20.7289 12.0324C20.3408 11.0989 19.6841 10.3017 18.8422 9.74199C18.0002 9.18231 17.0109 8.88538 15.9999 8.88889C14.6544 8.89356 13.3652 9.42952 12.413 10.3801C11.4607 11.3307 10.9225 12.6189 10.9155 13.9644Z" fill="#D2A664"/>
<path d="M18.9066 11.5022C19.0108 11.6993 19.0438 11.9263 19 12.1449C18.9563 12.3635 18.8386 12.5603 18.6666 12.7022C18.2521 13.0837 17.7851 13.404 17.2799 13.6533C16.3335 14.1618 15.3271 14.55 14.2844 14.8089C13.9441 14.9419 13.583 15.0141 13.2177 15.0222C13.1528 15.0309 13.0871 15.0309 13.0222 15.0222C13.0048 15.0131 12.9896 15.0005 12.9773 14.9852C12.9651 14.9699 12.9561 14.9522 12.9511 14.9333C12.9511 14.9333 13.0044 14.8711 13.0399 14.8622L13.5022 14.7911C14.8019 14.55 16.0616 14.1281 17.2444 13.5378C17.7743 13.2899 18.2558 12.9498 18.6666 12.5333C18.813 12.3992 18.9069 12.2172 18.9313 12.0201C18.9557 11.823 18.9092 11.6237 18.7999 11.4578C18.7555 11.3867 18.7288 11.3067 18.6488 11.4578L18.5422 11.4044V11.3422V11.3956C18.6177 11.5442 18.6386 11.7146 18.6012 11.8771C18.5639 12.0396 18.4706 12.1837 18.3377 12.2844C18.0077 12.6013 17.6219 12.8544 17.1999 13.0311C16.061 13.5276 14.8676 13.8886 13.6444 14.1067C13.4343 14.1579 13.2202 14.1906 13.0044 14.2044C12.7466 14.2044 12.6933 14.1244 12.8088 13.8844C12.9591 13.5853 13.1785 13.3263 13.4488 13.1289C13.7856 12.871 14.1605 12.6671 14.5599 12.5244C14.5805 12.5135 14.6034 12.5079 14.6266 12.5079C14.6499 12.5079 14.6727 12.5135 14.6933 12.5244C14.5599 12.6311 14.4088 12.7289 14.2755 12.8444C14.0978 12.9726 13.9642 13.1527 13.8933 13.36C13.8222 13.5733 13.8933 13.7156 14.1333 13.7333C14.3071 13.7593 14.4839 13.7593 14.6577 13.7333C14.9777 13.6711 15.2977 13.5733 15.6266 13.4933C15.6699 13.4849 15.7104 13.4659 15.7445 13.438C15.7787 13.41 15.8053 13.3741 15.8222 13.3333C15.9733 12.8356 16.1333 12.3467 16.2577 11.8489C16.2889 11.6427 16.2889 11.4329 16.2577 11.2267C16.2532 11.1622 16.2237 11.1021 16.1756 11.0589C16.1275 11.0158 16.0645 10.9931 15.9999 10.9956C15.8546 10.9585 15.702 10.9612 15.5582 11.0035C15.4143 11.0457 15.2844 11.1259 15.1822 11.2356L14.8977 11.5556C14.8219 11.6498 14.7275 11.7277 14.6205 11.7842C14.5136 11.8408 14.3961 11.8749 14.2755 11.8844C14.11 11.9022 13.9432 11.9022 13.7777 11.8844C13.6834 11.873 13.5973 11.8251 13.5377 11.7511C13.5081 11.7029 13.4972 11.6456 13.507 11.5899C13.5168 11.5342 13.5467 11.484 13.5911 11.4489C13.7146 11.3384 13.8486 11.2402 13.9911 11.1556C14.3887 10.9248 14.8209 10.7598 15.2711 10.6667C15.8571 10.5578 16.4529 10.5101 17.0488 10.5244C17.6537 10.5124 18.2557 10.6087 18.8266 10.8089C19.11 10.9075 19.3659 11.072 19.5733 11.2889C19.742 11.519 19.838 11.7943 19.8491 12.0794C19.8602 12.3645 19.7858 12.6464 19.6355 12.8889C19.4198 13.2414 19.132 13.5443 18.7911 13.7778C18.2159 14.2198 17.5927 14.5955 16.9333 14.8978C16.8405 14.9293 16.7611 14.9912 16.7079 15.0735C16.6547 15.1558 16.6307 15.2536 16.6399 15.3511C16.6426 15.8447 16.5203 16.3309 16.2844 16.7644C16.0993 17.1258 15.8039 17.4188 15.4411 17.601C15.0784 17.7832 14.667 17.8451 14.2666 17.7778C13.8235 17.7512 13.3961 17.6037 13.0311 17.3511C12.7811 17.1636 12.573 16.9261 12.4199 16.6536C12.2669 16.3812 12.1723 16.0799 12.1422 15.7689C12.133 15.6981 12.133 15.6264 12.1422 15.5556C12.2044 15.3244 12.2755 15.2889 12.5599 15.3156C12.5997 15.3154 12.639 15.3235 12.6753 15.3395C12.7117 15.3554 12.7443 15.3788 12.7711 15.4081C12.7979 15.4374 12.8183 15.472 12.8309 15.5096C12.8435 15.5473 12.8481 15.5871 12.8444 15.6267C12.8444 15.8222 12.8444 16.0267 12.8444 16.2222C12.8395 16.3051 12.8395 16.3882 12.8444 16.4711C12.9085 16.6936 13.0509 16.8854 13.2453 17.0111C13.4397 17.1369 13.673 17.1882 13.9022 17.1556C14.0583 17.1628 14.2144 17.1382 14.3608 17.0834C14.5072 17.0286 14.6409 16.9446 14.754 16.8366C14.867 16.7285 14.9569 16.5987 15.0183 16.4549C15.0797 16.3111 15.1112 16.1563 15.1111 16C15.1153 15.9497 15.1153 15.8992 15.1111 15.8489C15.1111 15.7778 15.0399 15.6889 15.0577 15.6267C15.0755 15.5644 15.1822 15.5644 15.2533 15.5289C15.9999 15.1911 16.7644 14.8711 17.4933 14.4978C18.1135 14.2139 18.6768 13.8193 19.1555 13.3333C19.3066 13.1548 19.4433 12.9645 19.5644 12.7644C19.7135 12.4936 19.7697 12.1814 19.7244 11.8756C19.692 11.7132 19.615 11.5631 19.5019 11.4422C19.3888 11.3212 19.2442 11.2343 19.0844 11.1911H19.0311L19.0933 11.2889H19.0133C19.0349 11.3258 19.0586 11.3614 19.0844 11.3956C19.2322 11.5692 19.3133 11.7898 19.3133 12.0178C19.3133 12.2458 19.2322 12.4664 19.0844 12.64C18.7625 13.063 18.3532 13.4117 17.8844 13.6622C17.1214 14.0994 16.3212 14.4682 15.4933 14.7644L15.0133 14.9689C14.7324 15.091 14.4306 15.1574 14.1244 15.1644C14.1017 15.1634 14.0795 15.1573 14.0595 15.1465C14.0395 15.1358 14.0222 15.1206 14.0088 15.1022L14.7288 14.88C15.9818 14.5001 17.1777 13.9529 18.2844 13.2533C18.594 13.0692 18.8631 12.8243 19.0755 12.5333C19.1644 12.4053 19.222 12.2581 19.2436 12.1037C19.2652 11.9493 19.2502 11.792 19.1999 11.6444C19.1999 11.5644 19.1022 11.52 19.0488 11.4578L18.9955 11.3867L18.9066 11.5022ZM17.3777 12.7644C17.7565 12.5977 18.0912 12.3451 18.3555 12.0267C18.4163 11.9476 18.4528 11.8526 18.4607 11.7533C18.4686 11.6539 18.4475 11.5543 18.3999 11.4667C18.3199 11.2978 18.1599 11.3333 18.0266 11.3333H17.7777C17.7297 11.3333 17.6835 11.3517 17.6488 11.3848C17.614 11.4179 17.5933 11.4632 17.5911 11.5111L17.3777 12.7644Z" fill="#D2A664"/>
<path d="M18.7377 11.6533C18.794 11.7275 18.8244 11.818 18.8244 11.9111C18.8244 12.0042 18.794 12.0947 18.7377 12.1689C18.4344 12.5978 18.0358 12.9508 17.5733 13.2C16.8069 13.643 15.9762 13.9638 15.1111 14.1511L13.3333 14.5778C13.1874 14.6122 13.0386 14.633 12.8889 14.64C12.8 14.64 12.7022 14.64 12.6844 14.5244C12.6666 14.4089 12.7555 14.3733 12.8533 14.3644C13.2022 14.3351 13.5493 14.2876 13.8933 14.2222C14.5422 14.08 15.1822 13.92 15.8222 13.7422C16.4187 13.5861 16.9924 13.353 17.5289 13.0489C17.8117 12.8797 18.0793 12.6864 18.3289 12.4711C18.452 12.3724 18.5523 12.2482 18.6229 12.107C18.6935 11.9659 18.7327 11.8111 18.7377 11.6533Z" fill="#D2A664"/>
<path d="M19.2888 11.4222C19.4044 11.5094 19.4931 11.6273 19.545 11.7624C19.5968 11.8976 19.6097 12.0446 19.5822 12.1867C19.5297 12.5237 19.3708 12.8352 19.1288 13.0756C18.7198 13.5356 18.2359 13.9233 17.6977 14.2222C16.8387 14.6779 15.9474 15.07 15.0311 15.3956C14.9777 15.3956 14.8711 15.3956 14.8622 15.3956C14.8533 15.3956 14.8622 15.2444 14.9777 15.2178L16.2933 14.6844C16.9964 14.4254 17.6628 14.0758 18.2755 13.6444C18.62 13.4007 18.9206 13.1001 19.1644 12.7556C19.3206 12.5679 19.4113 12.3344 19.4225 12.0905C19.4337 11.8465 19.3649 11.6057 19.2266 11.4044L19.2888 11.4222Z" fill="#D2A664"/>
<path d="M19.1644 11.3422H19.1111L19.1644 11.3956V11.3422Z" fill="#D2A664"/>
<path d="M19.1824 11.3333H19.2357L19.1824 11.28V11.3333Z" fill="#D2A664"/>
<path d="M19.2356 11.3689L19.2889 11.4222H19.2445L19.2356 11.3689Z" fill="#D2A664"/>
<path d="M18.516 11.3867C18.5119 11.3691 18.5119 11.3509 18.516 11.3333C18.516 11.3333 18.516 11.3333 18.516 11.3333V11.3956V11.3867Z" fill="#FDFDFC"/>
<path d="M18.9067 11.5022V11.4044L18.969 11.4667L18.9067 11.5022Z" fill="#FDFDFC"/>
</g>
<defs>
<clipPath id="clip0_2707_287848">
<rect width="32" height="32" fill="white"/>
</clipPath>
</defs>
</svg>
