<svg width="32" height="32" viewBox="0 0 32 32" fill="none" xmlns="http://www.w3.org/2000/svg">
<g clip-path="url(#clip0_2707_287388)">
<path d="M16 31.9823C24.8268 31.9823 31.9823 24.8268 31.9823 16C31.9823 7.17331 24.8268 0.0178223 16 0.0178223C7.17331 0.0178223 0.0178223 7.17331 0.0178223 16C0.0178223 24.8268 7.17331 31.9823 16 31.9823Z" fill="white"/>
<path d="M5.4936 14.8001L5.40471 14.5601L5.68027 14.5157L5.43138 14.3823L5.61805 14.1779L5.3336 14.2223V13.9468L5.15582 14.1601L4.98693 13.9468V14.2223L4.72027 14.169L4.90693 14.3735L4.65804 14.5068L4.9336 14.5512L4.83582 14.809L5.06693 14.6668L5.15582 14.9335L5.24471 14.6668L5.46693 14.8001M5.8136 15.2001L5.3336 14.9068L5.14693 15.4668C5.08471 15.2712 5.03138 15.0935 4.96916 14.9068L4.47138 15.2179L4.6936 14.6668L4.10693 14.5868C4.2936 14.4979 4.4536 14.409 4.63138 14.3112L4.23138 13.8757L4.80916 14.0001V13.4135L5.16471 13.8757L5.52916 13.4135C5.52916 13.6179 5.52916 13.8046 5.52916 14.0001L6.09805 13.8757L5.70693 14.3112L6.22249 14.5868L5.64471 14.6668C5.71582 14.8446 5.78693 15.0223 5.84916 15.1912" fill="#1E3D69"/>
<path d="M5.74248 16.7289C5.74248 16.5828 5.68441 16.4426 5.58106 16.3392C5.47771 16.2359 5.33753 16.1778 5.19137 16.1778C5.0452 16.1778 4.90503 16.2359 4.80167 16.3392C4.69832 16.4426 4.64025 16.5828 4.64025 16.7289C4.64025 16.8751 4.69832 17.0153 4.80167 17.1186C4.90503 17.222 5.0452 17.28 5.19137 17.28C5.33753 17.28 5.47771 17.222 5.58106 17.1186C5.68441 17.0153 5.74248 16.8751 5.74248 16.7289ZM5.94692 16.7289C5.95224 16.8798 5.91226 17.0287 5.83214 17.1566C5.75202 17.2846 5.63543 17.3855 5.4974 17.4466C5.35936 17.5076 5.20621 17.5259 5.05768 17.4991C4.90915 17.4723 4.77205 17.4016 4.66405 17.2962C4.55605 17.1908 4.4821 17.0554 4.45173 16.9076C4.42136 16.7597 4.43597 16.6062 4.49366 16.4667C4.55136 16.3273 4.6495 16.2083 4.77544 16.1251C4.90137 16.0419 5.04934 15.9984 5.20026 16C5.39375 15.9999 5.57973 16.0749 5.71902 16.2092C5.8583 16.3435 5.94001 16.5267 5.94692 16.72" fill="#0D0C0C"/>
<path d="M10.6668 16.0534H10.8534C10.8534 16.3468 10.8534 16.6401 10.8534 16.9423C10.8514 17.0121 10.8349 17.0807 10.8051 17.1438C10.7753 17.2069 10.7328 17.2632 10.6802 17.3091C10.6276 17.355 10.5661 17.3895 10.4996 17.4105C10.433 17.4315 10.3629 17.4386 10.2934 17.4312C10.2238 17.4301 10.1551 17.4151 10.0913 17.3871C10.0275 17.3591 9.96996 17.3187 9.92197 17.2682C9.87397 17.2177 9.83651 17.1582 9.81178 17.0931C9.78704 17.028 9.77552 16.9586 9.77789 16.889C9.77789 16.6045 9.77789 16.3201 9.77789 16.0001H9.97345V16.5068C9.96456 16.6429 9.96456 16.7795 9.97345 16.9157C9.97315 16.9585 9.98197 17.001 9.99933 17.0402C10.0167 17.0793 10.0422 17.1144 10.0741 17.143C10.1061 17.1716 10.1437 17.193 10.1846 17.2059C10.2255 17.2189 10.2687 17.2229 10.3112 17.2179C10.3559 17.2206 10.4006 17.2137 10.4424 17.1975C10.4841 17.1814 10.5219 17.1564 10.5531 17.1244C10.5843 17.0923 10.6083 17.0539 10.6233 17.0117C10.6383 16.9696 10.644 16.9247 10.6401 16.8801V15.9912" fill="#0A0A0A"/>
<path d="M12.1602 16.889L11.8847 17.3512C11.8761 17.3699 11.8623 17.3857 11.845 17.3968C11.8276 17.4078 11.8075 17.4136 11.7869 17.4134H11.6358C11.6358 17.4134 11.6358 17.4134 11.6358 17.3601L11.9825 16.7823C11.9825 16.7379 11.9825 16.7023 11.9825 16.6668L11.6091 16.0534H11.8047C11.8047 16.0534 11.8047 16.0534 11.8047 16.0979C11.8047 16.1423 11.9914 16.3912 12.0802 16.5423L12.1336 16.4712L12.4447 16.089C12.4447 16.089 12.4447 16.0446 12.5247 16.0446H12.6847L12.6047 16.1868L12.3114 16.6668C12.3114 16.6668 12.3114 16.7201 12.3114 16.7646L12.658 17.3423C12.6597 17.363 12.6597 17.3838 12.658 17.4046C12.5959 17.409 12.5335 17.409 12.4714 17.4046C12.4714 17.4046 12.4714 17.4046 12.418 17.4046L12.1602 16.889Z" fill="#0E0D0D"/>
<path d="M3.12905 16.6934C3.21904 16.6817 3.30813 16.6638 3.39572 16.6401C3.41996 16.6379 3.44351 16.6308 3.46489 16.6192C3.48628 16.6076 3.50506 16.5917 3.52006 16.5726C3.53506 16.5534 3.54596 16.5313 3.5521 16.5078C3.55823 16.4842 3.55946 16.4597 3.55572 16.4356C3.55694 16.3929 3.54349 16.3511 3.51761 16.3172C3.49172 16.2832 3.45498 16.2591 3.41349 16.249C3.32944 16.2248 3.243 16.2099 3.15572 16.2045L3.12905 16.6934ZM3.12905 16.8623V17.4045H2.94238V16.0445C3.10487 16.0268 3.26879 16.0268 3.43127 16.0445C3.51674 16.0628 3.59336 16.1099 3.64835 16.1778C3.70335 16.2457 3.7334 16.3305 3.73349 16.4179C3.72982 16.5056 3.69736 16.5897 3.64113 16.6572C3.58491 16.7247 3.50803 16.7717 3.42238 16.7912H3.12905" fill="#0A0A0A"/>
<path d="M15.6268 13.3512H15.5557V18.6223H15.6268V13.3512Z" fill="#233F6C"/>
<path d="M6.79126 16.0446H6.97793V17.2179H7.42237V17.4046H6.79126V16.0446Z" fill="#121111"/>
<path d="M8.3645 16.0446H8.54228V17.2179H8.98672V17.4046H8.3645V16.0446Z" fill="#080909"/>
<path d="M23.3513 14.6667H23.2446V13.9023C23.2719 13.895 23.3008 13.8972 23.3266 13.9085C23.3525 13.9198 23.3737 13.9396 23.3869 13.9645L23.7513 14.4801V13.9023H23.858V14.6578C23.8295 14.6675 23.7985 14.6664 23.7708 14.655C23.743 14.6436 23.7203 14.6225 23.7069 14.5956L23.3869 14.1334C23.3834 14.1188 23.3834 14.1036 23.3869 14.089L23.3513 14.6667Z" fill="#151414"/>
<path d="M23.7067 16.9512C23.6567 16.9456 23.6062 16.9564 23.5629 16.982C23.5195 17.0077 23.4858 17.0468 23.4667 17.0935C23.445 17.1456 23.4338 17.2014 23.4338 17.2579C23.4338 17.3144 23.445 17.3703 23.4667 17.4223C23.4847 17.4635 23.5146 17.4983 23.5527 17.5221C23.5908 17.5459 23.6352 17.5576 23.6801 17.5557C23.724 17.5584 23.7675 17.5469 23.8044 17.5229C23.8412 17.4989 23.8693 17.4636 23.8845 17.4223C23.9084 17.3708 23.9208 17.3147 23.9208 17.2579C23.9208 17.2011 23.9084 17.145 23.8845 17.0935C23.8698 17.0547 23.8445 17.0208 23.8115 16.9957C23.7785 16.9706 23.7391 16.9552 23.6979 16.9512M23.6979 16.8535C23.7845 16.8509 23.8689 16.8818 23.9334 16.9397C23.9979 16.9976 24.0377 17.0781 24.0445 17.1646C24.0531 17.2503 24.0531 17.3366 24.0445 17.4223C24.0212 17.4949 23.9745 17.5577 23.9119 17.6011C23.8492 17.6445 23.774 17.666 23.6979 17.6623C23.6156 17.6606 23.5369 17.629 23.4763 17.5734C23.4158 17.5177 23.3776 17.4419 23.369 17.3601C23.351 17.2751 23.351 17.1873 23.369 17.1023C23.3839 17.0279 23.4256 16.9614 23.4862 16.9156C23.5468 16.8697 23.6221 16.8476 23.6979 16.8535Z" fill="#181717"/>
<path d="M21.6802 14.0001V14.5601C21.9735 14.5601 22.089 14.5601 22.0979 14.2846C22.1068 14.009 21.9824 13.9735 21.6802 14.0001ZM21.5735 14.6668V13.8935C21.7007 13.8843 21.8285 13.8843 21.9557 13.8935C22.0175 13.9028 22.0745 13.9323 22.1179 13.9772C22.1612 14.0222 22.1886 14.0803 22.1957 14.1423C22.209 14.2248 22.209 14.3088 22.1957 14.3912C22.1819 14.4572 22.1464 14.5167 22.0948 14.5602C22.0433 14.6037 21.9787 14.6287 21.9113 14.6312H21.5824" fill="#121111"/>
<path d="M18.7203 17.2535C18.7203 17.3068 18.7203 17.3601 18.7203 17.4135C18.7368 17.4563 18.7661 17.493 18.8043 17.5184C18.8425 17.5439 18.8877 17.5569 18.9336 17.5557C18.9807 17.5575 19.0273 17.5448 19.067 17.5194C19.1067 17.494 19.1377 17.457 19.1558 17.4135C19.1778 17.363 19.1892 17.3085 19.1892 17.2535C19.1892 17.1984 19.1778 17.1439 19.1558 17.0935C19.1357 17.0402 19.0959 16.9966 19.0447 16.9718C18.9934 16.947 18.9345 16.9428 18.8803 16.9601C18.8219 16.9827 18.7724 17.0234 18.7388 17.0762C18.7052 17.1289 18.6894 17.1911 18.6936 17.2535M19.298 17.2535C19.3083 17.326 19.2958 17.4 19.2624 17.4653C19.229 17.5305 19.1763 17.5838 19.1114 17.6179C19.0573 17.6482 18.9961 17.6634 18.9342 17.662C18.8723 17.6606 18.8119 17.6426 18.7592 17.61C18.7066 17.5773 18.6637 17.5311 18.6349 17.4762C18.6062 17.4214 18.5927 17.3598 18.5958 17.2979C18.5826 17.2334 18.5826 17.1669 18.5958 17.1024C18.617 17.0188 18.6692 16.9465 18.7419 16.9002C18.8146 16.854 18.9023 16.8372 18.9869 16.8535C19.0649 16.8654 19.1365 16.9037 19.1899 16.9619C19.2432 17.0201 19.2751 17.0947 19.2803 17.1735V17.2535" fill="#161515"/>
<path d="M24.9868 14.1334C24.9596 14.1407 24.9306 14.1385 24.9048 14.1272C24.879 14.1159 24.8577 14.0961 24.8446 14.0712C24.8256 14.0399 24.7988 14.0141 24.7669 13.9961C24.735 13.9782 24.699 13.9688 24.6624 13.9688C24.6258 13.9688 24.5898 13.9782 24.5579 13.9961C24.5259 14.0141 24.4992 14.0399 24.4801 14.0712C24.4411 14.1306 24.4204 14.2001 24.4204 14.2712C24.4204 14.3422 24.4411 14.4118 24.4801 14.4712C24.5084 14.5137 24.5495 14.5462 24.5975 14.5637C24.6454 14.5813 24.6977 14.5831 24.7468 14.5689C24.7906 14.5548 24.8279 14.5256 24.8523 14.4866C24.8767 14.4475 24.8866 14.4012 24.8801 14.3556H24.6846V14.2667H24.9868C25.0002 14.3082 25.0048 14.3519 25.0002 14.3952C24.9956 14.4385 24.982 14.4804 24.9602 14.5181C24.9384 14.5558 24.9089 14.5885 24.8737 14.6141C24.8385 14.6397 24.7983 14.6576 24.7557 14.6667C24.7095 14.6785 24.6614 14.6805 24.6143 14.6728C24.5673 14.6651 24.5224 14.6478 24.4823 14.6219C24.4423 14.5961 24.408 14.5622 24.3816 14.5225C24.3552 14.4828 24.3373 14.4381 24.329 14.3912C24.2897 14.279 24.2897 14.1567 24.329 14.0445C24.3632 13.9827 24.4159 13.9332 24.4797 13.9029C24.5434 13.8726 24.6151 13.8631 24.6846 13.8756C24.7431 13.88 24.7989 13.9018 24.8448 13.9383C24.8908 13.9747 24.9248 14.0241 24.9424 14.0801C24.939 14.0947 24.939 14.1099 24.9424 14.1245" fill="#151414"/>
<path d="M26.5957 15.7601H26.7912C26.8095 15.7601 26.8276 15.7564 26.8444 15.7491C26.8612 15.7419 26.8763 15.7312 26.8888 15.7179C26.9013 15.7046 26.9109 15.6888 26.9171 15.6716C26.9232 15.6544 26.9258 15.6361 26.9246 15.6178C26.9259 15.6 26.9234 15.5821 26.9171 15.5653C26.9109 15.5485 26.9011 15.5333 26.8885 15.5206C26.8758 15.5079 26.8606 15.4982 26.8438 15.4919C26.827 15.4857 26.8091 15.4832 26.7912 15.4845H26.5957V15.7601ZM26.889 15.8401L27.049 16.1423C26.9335 16.1423 26.9335 16.1423 26.889 16.0623C26.8717 16.0434 26.8568 16.0225 26.8446 16.0001C26.8402 15.9731 26.8296 15.9475 26.8138 15.9253C26.7979 15.9031 26.7771 15.8848 26.7531 15.8719C26.729 15.859 26.7023 15.8518 26.675 15.8509C26.6477 15.85 26.6206 15.8554 26.5957 15.8667V16.1512H26.489V15.3778C26.6163 15.3687 26.744 15.3687 26.8712 15.3778C26.916 15.3843 26.9569 15.4068 26.9863 15.4411C27.0157 15.4754 27.0317 15.5193 27.0312 15.5645C27.0382 15.607 27.0327 15.6507 27.0154 15.6901C26.998 15.7296 26.9696 15.7632 26.9335 15.7867H26.889" fill="#1A1A19"/>
<path d="M26.5246 17.2445H26.7202C26.7508 17.2366 26.7779 17.2188 26.7973 17.1939C26.8166 17.169 26.8271 17.1383 26.8271 17.1067C26.8271 17.0751 26.8166 17.0444 26.7973 17.0195C26.7779 16.9945 26.7508 16.9767 26.7202 16.9689H26.5335L26.5246 17.2445ZM26.5246 17.3334V17.6356H26.418V16.8889H26.7824C26.8274 16.8967 26.8684 16.9193 26.899 16.9532C26.9296 16.987 26.948 17.0301 26.9513 17.0756C26.9599 17.1186 26.9562 17.1631 26.9404 17.204C26.9247 17.245 26.8976 17.2806 26.8624 17.3067H26.8091L26.978 17.6089C26.8624 17.6089 26.8624 17.6089 26.8091 17.5289L26.7202 17.3689C26.7142 17.3596 26.7064 17.3517 26.6972 17.3456C26.6881 17.3394 26.6777 17.3353 26.6669 17.3334C26.6285 17.3378 26.5897 17.3378 26.5513 17.3334" fill="#1A1A19"/>
<path d="M22.4536 17.2356H22.6758C22.7469 17.2356 22.7825 17.1734 22.7825 17.0934C22.7792 17.0629 22.7661 17.0344 22.7453 17.012C22.7245 16.9896 22.697 16.9745 22.6669 16.9689H22.4536V17.2356ZM22.9069 17.6267C22.7914 17.6267 22.7914 17.6267 22.7469 17.5556L22.7025 17.4667C22.6225 17.3245 22.6225 17.3245 22.4536 17.3422V17.6356H22.3469V16.8889H22.7203C22.7651 16.8932 22.8069 16.9135 22.838 16.9462C22.869 16.9789 22.8872 17.0217 22.8891 17.0667C22.8968 17.1105 22.8917 17.1557 22.8744 17.1967C22.857 17.2377 22.8282 17.2728 22.7914 17.2978H22.738L22.9069 17.6" fill="#111010"/>
<path d="M19.6445 15.3867H19.7512V15.7067H20.1512V15.3867H20.2668V16.1423H20.1601V15.8134H19.7512V16.1423H19.6445V15.3867Z" fill="#201E1E"/>
<path d="M25.3869 15.3867H25.4935V15.8756C25.4935 16.0001 25.5647 16.0712 25.6891 16.0712C25.7162 16.0754 25.7438 16.0734 25.77 16.0652C25.7961 16.0571 25.82 16.043 25.8398 16.024C25.8596 16.0051 25.8747 15.9819 25.884 15.9561C25.8934 15.9304 25.8966 15.9028 25.8935 15.8756V15.3867H26.0002C26.0002 15.5734 26.0002 15.7512 26.0002 15.9289C25.9972 15.9667 25.9862 16.0033 25.968 16.0364C25.9497 16.0696 25.9247 16.0985 25.8944 16.1212C25.8641 16.1439 25.8294 16.1599 25.7924 16.1681C25.7555 16.1763 25.7173 16.1766 25.6802 16.1689C25.6418 16.1714 25.6033 16.1659 25.5672 16.1526C25.531 16.1393 25.4981 16.1186 25.4704 16.0918C25.4428 16.065 25.4211 16.0327 25.4067 15.997C25.3923 15.9613 25.3856 15.923 25.3869 15.8845V15.3867Z" fill="#201E1E"/>
<path d="M23.2712 15.3867H23.3779V15.9201C23.3907 15.962 23.4166 15.9987 23.4518 16.0247C23.487 16.0508 23.5296 16.0649 23.5734 16.0649C23.6172 16.0649 23.6599 16.0508 23.6951 16.0247C23.7303 15.9987 23.7562 15.962 23.769 15.9201C23.7733 15.8995 23.7733 15.8783 23.769 15.8578V15.3867H23.8757V15.8756C23.8781 15.9196 23.8703 15.9635 23.8529 16.0039C23.8355 16.0443 23.809 16.0802 23.7754 16.1086C23.7418 16.1371 23.702 16.1573 23.6593 16.1678C23.6165 16.1782 23.5719 16.1786 23.529 16.1689C23.4904 16.168 23.4524 16.159 23.4174 16.1424C23.3825 16.1259 23.3515 16.1021 23.3263 16.0728C23.3012 16.0435 23.2825 16.0092 23.2715 15.9721C23.2604 15.9351 23.2573 15.8961 23.2623 15.8578V15.3867" fill="#181717"/>
<path d="M21.2003 15.7067V15.8045H20.8536V16.0534H21.218V16.1512H20.738V15.3867H21.218V15.4845H20.8536V15.7067H21.2003Z" fill="#201E1E"/>
<path d="M19.5557 13.9023H20.0268V13.9912H19.6623V14.2223H20.009V14.3201H19.6623V14.569H20.0268V14.6579H19.5557V13.9023Z" fill="#181818"/>
<path d="M27.5558 15.8045V16.0534H27.9291V16.1423H27.458V15.3867H27.9291V15.4756H27.5558V15.7067H27.9025V15.8045H27.5558Z" fill="#181818"/>
<path d="M25.4758 17.6356V16.8889H25.9469V16.9867H25.5825V17.2178H25.9292V17.3156H25.5825V17.5556H25.9469V17.6534L25.4758 17.6356Z" fill="#171616"/>
<path d="M6.09794 18.5423C6.1302 18.5435 6.16237 18.5382 6.19252 18.5266C6.22267 18.5151 6.25019 18.4976 6.27342 18.4752C6.29666 18.4528 6.31514 18.4259 6.32775 18.3962C6.34036 18.3665 6.34685 18.3346 6.34683 18.3023C6.33572 18.2432 6.30432 18.1899 6.25806 18.1515C6.21181 18.1132 6.1536 18.0922 6.0935 18.0922C6.0334 18.0922 5.97519 18.1132 5.92893 18.1515C5.88268 18.1899 5.85128 18.2432 5.84017 18.3023C5.84008 18.3354 5.84682 18.3681 5.85998 18.3984C5.87313 18.4288 5.89242 18.4561 5.91662 18.4786C5.94083 18.5011 5.96943 18.5184 6.00063 18.5294C6.03183 18.5403 6.06496 18.5447 6.09794 18.5423ZM6.09794 18.6401C6.05211 18.6425 6.00627 18.6355 5.96322 18.6196C5.92016 18.6038 5.88079 18.5793 5.84752 18.5476C5.81425 18.516 5.78777 18.478 5.76969 18.4358C5.75161 18.3936 5.74232 18.3482 5.74239 18.3023C5.73884 18.2313 5.75663 18.1609 5.79348 18.1001C5.83032 18.0394 5.88453 17.9911 5.94911 17.9614C6.01368 17.9317 6.08567 17.9221 6.15577 17.9338C6.22587 17.9454 6.29087 17.9778 6.34239 18.0267C6.39391 18.0757 6.42958 18.1389 6.4448 18.2083C6.46002 18.2778 6.4541 18.3501 6.42779 18.4161C6.40148 18.4822 6.35599 18.5388 6.2972 18.5787C6.23841 18.6186 6.169 18.64 6.09794 18.6401Z" fill="#171616"/>
<path d="M21.4668 17.2711H21.6535C21.6722 17.2727 21.691 17.27 21.7085 17.2632C21.7259 17.2565 21.7417 17.2459 21.7545 17.2322C21.7673 17.2186 21.7769 17.2022 21.7825 17.1843C21.7881 17.1664 21.7896 17.1475 21.7868 17.1289C21.792 17.0925 21.7829 17.0554 21.7613 17.0256C21.7398 16.9958 21.7075 16.9755 21.6713 16.9689C21.6032 16.9645 21.5349 16.9645 21.4668 16.9689V17.2711ZM21.4668 17.3689V17.6356H21.3335V16.8889C21.4579 16.8889 21.5913 16.8889 21.7157 16.8889C21.7723 16.9054 21.82 16.9437 21.8483 16.9954C21.8767 17.0471 21.8833 17.1079 21.8668 17.1645C21.8603 17.221 21.833 17.2732 21.7904 17.3109C21.7477 17.3486 21.6927 17.3693 21.6357 17.3689H21.4402" fill="#1E1D1D"/>
<path d="M24.5957 17.2711H24.7735C24.7929 17.2712 24.8122 17.2672 24.83 17.2595C24.8479 17.2518 24.864 17.2406 24.8773 17.2264C24.8906 17.2122 24.9009 17.1955 24.9075 17.1772C24.9141 17.1589 24.9169 17.1394 24.9157 17.12C24.9169 17.1013 24.9144 17.0826 24.9083 17.0649C24.9023 17.0472 24.8928 17.0308 24.8804 17.0168C24.868 17.0027 24.853 16.9913 24.8361 16.9831C24.8193 16.9749 24.801 16.97 24.7823 16.9689H24.5957V17.2711ZM24.5957 17.3689V17.6356H24.489V16.8889H24.889C24.9474 16.9018 24.9985 16.9367 25.0316 16.9864C25.0648 17.0361 25.0774 17.0968 25.0668 17.1556C25.0645 17.2153 25.0391 17.2718 24.996 17.3133C24.9529 17.3547 24.8955 17.3778 24.8357 17.3778H24.6401" fill="#1E1D1D"/>
<path d="M20.809 14.0268L20.6935 14.3645H20.9246C20.9246 14.2757 20.8624 14.1957 20.8357 14.1157V14.0268M20.889 13.9023L21.1646 14.6579C21.0579 14.6579 21.0579 14.6579 21.0224 14.5868C20.9868 14.5157 20.9779 14.4534 20.8446 14.4534C20.7112 14.4534 20.6846 14.4534 20.6312 14.6045C20.5779 14.7557 20.6312 14.6045 20.6312 14.6579H20.4446C20.5157 14.4712 20.5868 14.2934 20.649 14.1068C20.6513 14.0683 20.6513 14.0297 20.649 13.9912C20.649 13.8934 20.649 13.8934 20.7912 13.9023" fill="#171616"/>
<path d="M22.3469 15.3867H22.8091V15.4756H22.4536V15.7334H22.7825V15.8223H22.4536V16.1512H22.3469V15.3867Z" fill="#0E0D0D"/>
<path d="M20.2489 16.8889V16.9867H19.8934V17.2356H20.2134V17.3245H19.8934V17.6534H19.7778V16.8889H20.2489Z" fill="#1B1A1A"/>
<path d="M8.20461 18.2756C8.27572 18.2756 8.33794 18.2756 8.3735 18.2223C8.38207 18.2058 8.38654 18.1875 8.38654 18.1689C8.38654 18.1504 8.38207 18.1321 8.3735 18.1156C8.3735 18.0534 8.26683 18.0623 8.20461 18.0623V18.2756ZM8.32017 18.3556L8.49795 18.6134C8.42683 18.6134 8.38239 18.6134 8.34683 18.56C8.3127 18.4887 8.26429 18.4252 8.20461 18.3734V18.6667H8.11572V18.0178H8.35572C8.39123 18.0253 8.42338 18.0441 8.4474 18.0713C8.47141 18.0985 8.48602 18.1328 8.48906 18.1689C8.49292 18.2096 8.48266 18.2504 8.46 18.2844C8.43733 18.3184 8.40365 18.3435 8.36461 18.3556H8.32017Z" fill="#211F1F"/>
<path d="M5.21789 18.2757C5.28901 18.2757 5.36012 18.2757 5.38678 18.2135C5.39537 18.1986 5.39988 18.1817 5.39988 18.1646C5.39988 18.1474 5.39537 18.1306 5.38678 18.1157C5.38678 18.0624 5.28901 18.0624 5.22678 18.0624V18.2757M5.34234 18.3557L5.52012 18.6135C5.44901 18.6135 5.40456 18.6135 5.36901 18.5601C5.32767 18.488 5.28008 18.4196 5.22678 18.3557V18.6668H5.12012V18.0179C5.20301 18.0131 5.28611 18.0131 5.36901 18.0179C5.40592 18.0258 5.4391 18.0459 5.46327 18.0749C5.48744 18.1039 5.50119 18.1402 5.50234 18.1779C5.50271 18.2168 5.49092 18.2549 5.4686 18.2867C5.44629 18.3186 5.41458 18.3427 5.37789 18.3557" fill="#1C1B1A"/>
<path d="M10.1778 18.2223V18.3201H9.92004V18.5334H10.1778V18.6667H9.82227V18.0267H10.1778V18.1156H9.92004V18.2667L10.1778 18.2223Z" fill="#0F0F0F"/>
<path d="M10.418 18.4713H10.5157C10.562 18.5074 10.6128 18.5373 10.6669 18.5601C10.6773 18.5643 10.6885 18.5662 10.6998 18.5657C10.711 18.5652 10.722 18.5624 10.7321 18.5573C10.7422 18.5523 10.7511 18.5452 10.7582 18.5365C10.7653 18.5278 10.7706 18.5177 10.7735 18.5068C10.788 18.4893 10.7959 18.4673 10.7959 18.4446C10.7959 18.4219 10.788 18.3999 10.7735 18.3824L10.6846 18.3379L10.5957 18.2846C10.568 18.2689 10.5456 18.2453 10.5313 18.2168C10.517 18.1883 10.5116 18.1562 10.5157 18.1246C10.5225 18.0932 10.5377 18.0642 10.5596 18.0407C10.5815 18.0173 10.6093 18.0002 10.6402 17.9913C10.6874 17.9752 10.7385 17.9743 10.7863 17.9886C10.8341 18.003 10.8762 18.0319 10.9069 18.0713L10.8357 18.1335H10.6669C10.6543 18.1373 10.6428 18.1442 10.6335 18.1535C10.6242 18.1628 10.6173 18.1742 10.6135 18.1868C10.6073 18.1976 10.604 18.2099 10.604 18.2224C10.604 18.2348 10.6073 18.2471 10.6135 18.2579C10.6609 18.2899 10.7116 18.3167 10.7646 18.3379C10.8018 18.357 10.8325 18.3865 10.8531 18.4228C10.8736 18.4592 10.883 18.5007 10.8802 18.5424C10.8771 18.5782 10.8637 18.6123 10.8416 18.6407C10.8195 18.6691 10.7897 18.6905 10.7557 18.7024C10.7114 18.7185 10.6633 18.7212 10.6175 18.7101C10.5716 18.699 10.5301 18.6747 10.498 18.6401C10.4721 18.6092 10.4483 18.5765 10.4269 18.5424" fill="#1A1A19"/>
<path d="M7.39575 17.9823H7.74242V18.0712H7.47575V18.2223H7.74242V18.3201H7.47575V18.5245H7.74242V18.6667H7.39575V17.9823Z" fill="#0F0F0F"/>
<path d="M28.4446 16.889C28.4602 16.8818 28.4772 16.878 28.4944 16.8777C28.5117 16.8774 28.5288 16.8808 28.5446 16.8874C28.5605 16.8941 28.5748 16.904 28.5867 16.9165C28.5985 16.929 28.6076 16.9439 28.6135 16.9601C28.6579 17.049 28.7112 17.129 28.7646 17.2267C28.8179 17.129 28.8712 17.049 28.9157 16.9601C28.9215 16.9439 28.9306 16.929 28.9425 16.9165C28.9543 16.904 28.9686 16.8941 28.9845 16.8874C29.0004 16.8808 29.0175 16.8774 29.0347 16.8777C29.0519 16.878 29.0689 16.8818 29.0846 16.889C29.0484 16.9573 29.0067 17.0227 28.9601 17.0845C28.9009 17.157 28.8577 17.2412 28.8332 17.3316C28.8087 17.422 28.8035 17.5165 28.8179 17.609H28.7112V17.3423C28.7204 17.3103 28.7204 17.2765 28.7112 17.2445L28.4446 16.889Z" fill="#151414"/>
<path d="M18.8445 15.4845H18.6045V15.3867H19.1912V15.4845H18.9512V16.1512H18.8445V15.4845Z" fill="#121111"/>
<path d="M27.6267 16.9689H27.3867V16.8889H27.9734V16.9867H27.7334V17.6534H27.6267V16.9689Z" fill="#121111"/>
<path d="M24.3379 15.4845V15.3867H24.889V15.4845H24.649V16.1512H24.5423V15.4845H24.3379Z" fill="#121111"/>
<path d="M4.53347 18.2756C4.65791 18.2756 4.72014 18.2756 4.71125 18.1689C4.70236 18.0623 4.64014 18.0534 4.53347 18.0712V18.2756ZM4.44458 17.9734H4.64902C4.67197 17.9734 4.69468 17.978 4.71578 17.987C4.73687 17.9961 4.7559 18.0093 4.7717 18.026C4.78751 18.0426 4.79976 18.0623 4.8077 18.0838C4.81565 18.1053 4.81912 18.1283 4.81791 18.1512C4.81625 18.1972 4.79839 18.2411 4.7675 18.2753C4.7366 18.3094 4.69465 18.3316 4.64902 18.3378H4.53347V18.5867H4.44458V17.9734Z" fill="#151414"/>
<path d="M18.6667 14.6579V13.9023H18.7734V14.569H19.1379V14.6579H18.6667Z" fill="#211F1F"/>
<path d="M6.81789 18.2756C6.93345 18.2756 7.00456 18.2756 6.99567 18.1689C6.98678 18.0623 6.93345 18.0534 6.81789 18.0712V18.2756ZM6.81789 18.3645V18.6667H6.729V18.0178C6.81174 18.0092 6.89515 18.0092 6.97789 18.0178C7.01663 18.0264 7.05047 18.0498 7.07208 18.083C7.0937 18.1163 7.10138 18.1567 7.09345 18.1956C7.08791 18.2385 7.06834 18.2783 7.03778 18.3088C7.00723 18.3394 6.96741 18.359 6.92456 18.3645H6.809" fill="#181717"/>
<path d="M9.11133 17.9823V18.0712H8.96021V18.6134H8.8891V18.0801H8.72021V17.9823H9.11133Z" fill="#2A2929"/>
<path d="M22.7645 13.9023H22.6667V14.6579H22.7645V13.9023Z" fill="#070808"/>
<path d="M9.38672 17.9823H9.47561V18.6134H9.38672V17.9823Z" fill="#2E2C2C"/>
</g>
<defs>
<clipPath id="clip0_2707_287388">
<rect width="32" height="32" fill="white"/>
</clipPath>
</defs>
</svg>
