<svg width="32" height="32" viewBox="0 0 32 32" fill="none" xmlns="http://www.w3.org/2000/svg">
<g clip-path="url(#clip0_2707_286998)">
<path d="M16 31.9823C24.8268 31.9823 31.9823 24.8268 31.9823 16C31.9823 7.17331 24.8268 0.0178223 16 0.0178223C7.17331 0.0178223 0.0178223 7.17331 0.0178223 16C0.0178223 24.8268 7.17331 31.9823 16 31.9823Z" fill="white"/>
<path d="M5.60007 9.77783V20.4445C5.60007 20.8089 5.60007 20.8089 5.95563 20.7823C6.1334 20.7823 6.32007 20.7823 6.49785 20.7823H26.409V9.77783H27.609C27.7334 9.77783 27.7867 9.82228 27.7867 9.95561V22.0445C27.7867 22.0822 27.7718 22.1184 27.7451 22.1451C27.7184 22.1717 27.6822 22.1867 27.6445 22.1867H24.3912C24.0801 22.1867 23.769 22.1867 23.5023 22.1867C23.2356 22.1867 22.8356 22.1867 22.5067 22.1867C22.1778 22.1867 21.8401 22.1867 21.5112 22.1867H20.8801H18.5245C18.2845 22.1867 18.0445 22.1867 17.8045 22.1867H16.4445H14.9956C14.7112 22.1867 14.4356 22.1867 14.1067 22.1867C13.6712 22.1867 13.2178 22.1867 12.809 22.1867H10.7556H9.30674C9.12896 22.1867 8.96007 22.1867 8.78229 22.1867C8.32896 22.1867 7.8934 22.1867 7.42229 22.1867C7.19118 22.1867 6.96007 22.1867 6.72896 22.1867C6.49785 22.1867 6.22229 22.2223 5.9734 22.2223C5.72452 22.2223 5.19118 22.2223 4.80896 22.2223C4.68771 22.2329 4.56576 22.2329 4.44452 22.2223C4.3747 22.1975 4.31729 22.1465 4.28452 22.0801C4.26714 22.016 4.26714 21.9485 4.28452 21.8845V10.1245C4.27127 10.054 4.27127 9.98166 4.28452 9.91117C4.28452 9.85783 4.36452 9.79561 4.40896 9.79561L5.60007 9.77783Z" fill="#96C73E"/>
<path d="M14.2224 13.2445C14.0929 13.488 13.9474 13.7226 13.7868 13.9467C13.6069 14.16 13.3588 14.3044 13.0846 14.3556C12.824 14.4133 12.554 14.4133 12.2935 14.3556C12.0206 14.3032 11.7697 14.1701 11.5735 13.9734C11.3097 13.6931 11.1628 13.3227 11.1628 12.9378C11.1628 12.553 11.3097 12.1826 11.5735 11.9023C11.8281 11.6285 12.1781 11.4631 12.5512 11.4401C12.9307 11.4059 13.3105 11.5032 13.6268 11.7156C13.9128 11.9464 14.1259 12.2552 14.2401 12.6045L14.409 12.2401C14.5351 11.963 14.7414 11.7301 15.0013 11.5716C15.2612 11.4131 15.5627 11.3363 15.8668 11.3512C16.2303 11.3669 16.5779 11.5047 16.8535 11.7423C17.0018 11.9066 17.1192 12.0963 17.2001 12.3023C17.2907 12.5179 17.3291 12.7519 17.3121 12.9851C17.2951 13.2184 17.2232 13.4443 17.1023 13.6445C17.0183 13.79 16.9057 13.9171 16.7713 14.0179C16.6368 14.1187 16.4834 14.1913 16.3201 14.2312C16.0698 14.3179 15.8022 14.3421 15.5404 14.3019C15.2786 14.2616 15.0306 14.158 14.8179 14.0001C14.5517 13.8098 14.3452 13.5478 14.2224 13.2445ZM13.3335 12.9601C13.3153 12.8339 13.2886 12.7092 13.2535 12.5867C13.22 12.4779 13.1547 12.3816 13.066 12.3103C12.9772 12.239 12.8692 12.1959 12.7557 12.1867C12.6514 12.1693 12.5443 12.1817 12.4467 12.2226C12.3492 12.2635 12.2652 12.3312 12.2046 12.4178C12.109 12.563 12.0581 12.7329 12.0581 12.9067C12.0581 13.0805 12.109 13.2505 12.2046 13.3956C12.2568 13.4821 12.3305 13.5536 12.4185 13.6033C12.5064 13.653 12.6058 13.6791 12.7068 13.6791C12.8078 13.6791 12.9071 13.653 12.9951 13.6033C13.0831 13.5536 13.1568 13.4821 13.209 13.3956C13.2792 13.2603 13.3329 13.117 13.369 12.969L13.3335 12.9601ZM16.4001 12.9067C16.394 12.8195 16.3791 12.7332 16.3557 12.649C16.3262 12.521 16.257 12.4057 16.158 12.3195C16.059 12.2333 15.9353 12.1806 15.8046 12.169C15.6763 12.1601 15.5485 12.1923 15.4398 12.2611C15.3311 12.3298 15.2471 12.4314 15.2001 12.5512C15.1486 12.6658 15.122 12.79 15.122 12.9156C15.122 13.0413 15.1486 13.1655 15.2001 13.2801C15.2421 13.3948 15.3183 13.4939 15.4185 13.5639C15.5187 13.6338 15.6379 13.6713 15.7601 13.6712C15.8963 13.6714 16.0283 13.6243 16.1335 13.5378C16.2249 13.4629 16.2974 13.3676 16.3453 13.2595C16.3931 13.1514 16.415 13.0337 16.409 12.9156L16.4001 12.9067Z" fill="#2A3578"/>
<path d="M8.06226 15.4845V11.5556H8.78226V11.9556L8.88003 11.9023C9.00558 11.7534 9.16595 11.6379 9.34692 11.5659C9.52788 11.4939 9.72382 11.4677 9.91732 11.4897C10.1108 11.5117 10.2959 11.5812 10.4561 11.6919C10.6163 11.8027 10.7467 11.9513 10.8356 12.1245C10.9924 12.3848 11.0752 12.6829 11.0752 12.9867C11.0752 13.2906 10.9924 13.5887 10.8356 13.849C10.7438 14.0185 10.6101 14.1618 10.4473 14.265C10.2845 14.3683 10.0979 14.4281 9.90539 14.4388C9.71288 14.4495 9.52084 14.4107 9.34757 14.3261C9.1743 14.2415 9.02558 14.114 8.91559 13.9556V15.529L8.06226 15.4845ZM8.95114 12.8712V13.0934C8.96489 13.2122 9.01118 13.3248 9.08491 13.4189C9.15863 13.513 9.25691 13.585 9.36892 13.6267C9.45951 13.675 9.56279 13.694 9.66463 13.6813C9.76647 13.6686 9.86189 13.6247 9.93781 13.5556C10.0332 13.4807 10.1101 13.3847 10.1625 13.2753C10.2149 13.1659 10.2414 13.0459 10.24 12.9245C10.2401 12.7319 10.1707 12.5456 10.0445 12.4001C9.957 12.3004 9.8411 12.23 9.71238 12.1982C9.58365 12.1664 9.44828 12.1748 9.32448 12.2223C9.01337 12.3201 8.88892 12.489 8.88892 12.8712H8.95114Z" fill="#2A3578"/>
<path d="M17.4578 10.4H18.3022V13.3334C18.3022 13.6445 18.4444 13.7067 18.72 13.6622H18.8355L18.9778 14.2934C18.6667 14.4466 18.3147 14.4965 17.9733 14.4356C17.8433 14.4152 17.7234 14.353 17.632 14.2584C17.5405 14.1637 17.4825 14.0418 17.4667 13.9111C17.4622 13.8401 17.4622 13.7688 17.4667 13.6978V10.5867C17.4688 10.5243 17.4658 10.4619 17.4578 10.4Z" fill="#2A3578"/>
<path d="M13.1468 16.9423V15.28H13.3956V18.6667C13.3956 18.7734 13.3956 18.88 13.4845 18.9689C13.5734 19.0578 13.4845 19.0934 13.4845 19.1734C13.4525 19.1816 13.4188 19.1816 13.3868 19.1734C13.3386 19.1745 13.2913 19.1605 13.2514 19.1334C13.2116 19.1063 13.1812 19.0675 13.1645 19.0223C13.1289 18.9071 13.1109 18.7872 13.1112 18.6667L12.809 18.9423C12.6165 19.1178 12.368 19.2195 12.1076 19.2292C11.8473 19.239 11.5919 19.1562 11.3868 18.9956C11.2088 18.8464 11.0657 18.6601 10.9674 18.4497C10.8691 18.2393 10.8181 18.01 10.8179 17.7778C10.8182 17.5469 10.8693 17.3189 10.9676 17.11C11.0659 16.9011 11.209 16.7163 11.3868 16.5689C11.5072 16.4652 11.651 16.3923 11.8059 16.3567C11.9608 16.3211 12.122 16.3237 12.2756 16.3645C12.5673 16.4341 12.8253 16.604 13.0045 16.8445L13.0756 16.9245L13.1468 16.9423ZM13.1468 17.8311C13.1468 17.5911 13.2001 17.3156 12.9868 17.0934C12.9014 17.0008 12.8093 16.9146 12.7112 16.8356C12.5597 16.7016 12.367 16.6233 12.165 16.6136C11.963 16.6039 11.7637 16.6634 11.6001 16.7823C11.4028 16.9354 11.2518 17.1403 11.164 17.3741C11.0761 17.6079 11.0548 17.8615 11.1023 18.1067C11.125 18.2914 11.1952 18.467 11.3061 18.6164C11.417 18.7658 11.5648 18.8839 11.7349 18.9592C11.9051 19.0344 12.0919 19.0642 12.277 19.0457C12.4622 19.0271 12.6393 18.9609 12.7912 18.8534C12.8997 18.7876 12.9895 18.695 13.0518 18.5844C13.1141 18.4739 13.1468 18.3491 13.1468 18.2223C13.1468 18.1067 13.1468 17.9823 13.1468 17.84V17.8311Z" fill="#2A3578"/>
<path d="M8.21346 16.8889L8.14235 16.7556C8.47158 16.4948 8.88853 16.3707 9.30679 16.4089C9.52728 16.4195 9.73705 16.5072 9.8995 16.6566C10.062 16.8061 10.1668 17.0078 10.1957 17.2267C10.2089 17.3329 10.2089 17.4404 10.1957 17.5467V18.6667C10.1855 18.7233 10.1882 18.7814 10.2036 18.8368C10.2189 18.8922 10.2466 18.9435 10.2846 18.9867C10.2846 18.9867 10.2846 19.12 10.2846 19.1911C10.0268 19.1911 9.98235 19.1911 9.91123 18.8178L9.74235 18.9422C9.58325 19.079 9.39358 19.1754 9.18935 19.2234C8.98512 19.2713 8.77234 19.2694 8.56901 19.2178C8.4459 19.1906 8.33063 19.1356 8.23202 19.0571C8.13342 18.9785 8.0541 18.8784 8.00012 18.7645C7.92015 18.586 7.91252 18.3834 7.97883 18.1994C8.04514 18.0154 8.18023 17.8642 8.35568 17.7778C8.71551 17.597 9.12606 17.5437 9.52012 17.6267L9.94679 17.7245V17.36C9.94827 17.2433 9.9233 17.1277 9.87376 17.022C9.82423 16.9163 9.7514 16.8232 9.66075 16.7497C9.5701 16.6761 9.46397 16.6241 9.35033 16.5974C9.23669 16.5707 9.11848 16.5701 9.00457 16.5956C8.73338 16.6718 8.46881 16.7699 8.21346 16.8889ZM9.94679 18.2933V18.0356C9.94319 18.0126 9.93401 17.9909 9.92006 17.9723C9.90612 17.9537 9.88783 17.9388 9.86679 17.9289C9.4709 17.7645 9.02895 17.7488 8.62235 17.8845C8.48233 17.9222 8.36241 18.0127 8.2878 18.1371C8.2132 18.2614 8.18973 18.4098 8.22235 18.5511C8.24481 18.6913 8.31261 18.8202 8.41537 18.9182C8.51812 19.0161 8.65016 19.0776 8.79123 19.0933C9.04592 19.1225 9.30342 19.0729 9.52901 18.9511C9.65891 18.901 9.76857 18.8093 9.84092 18.6903C9.91327 18.5713 9.94424 18.4318 9.92901 18.2933H9.94679Z" fill="#2A3578"/>
<path d="M22.3379 16.889L22.2668 16.7645C22.4474 16.6115 22.6608 16.5022 22.8905 16.4451C23.1203 16.3881 23.3601 16.3848 23.5912 16.4356C23.7681 16.4734 23.9293 16.5643 24.0532 16.6962C24.1771 16.828 24.2578 16.9945 24.2846 17.1734C24.2981 17.3212 24.2981 17.47 24.2846 17.6178V18.6223C24.2846 18.7645 24.2401 18.9334 24.3823 19.0667C24.5246 19.2001 24.3823 19.1823 24.3823 19.2445C24.1779 19.2445 24.0712 19.2445 24.0179 18.8623L23.9379 18.9156C23.8216 19.0326 23.683 19.1252 23.5303 19.1878C23.3777 19.2504 23.214 19.2818 23.049 19.2801C22.8635 19.3039 22.675 19.273 22.5068 19.1912C22.3689 19.1162 22.2549 19.0039 22.1778 18.8671C22.1008 18.7304 22.0639 18.5746 22.0712 18.4178C22.0784 18.2723 22.1275 18.1319 22.2127 18.0136C22.2979 17.8953 22.4154 17.8042 22.5512 17.7512C22.9405 17.5904 23.3726 17.5654 23.7779 17.6801L24.0446 17.7512C24.0991 17.509 24.0709 17.2555 23.9646 17.0312C23.889 16.8687 23.7581 16.7383 23.5952 16.6634C23.4324 16.5885 23.2483 16.5739 23.0757 16.6223C22.8242 16.695 22.5777 16.784 22.3379 16.889ZM24.0623 17.9467L23.7512 17.8578C23.3808 17.7459 22.982 17.7743 22.6312 17.9378C22.5347 17.9848 22.4534 18.0582 22.3968 18.1494C22.3401 18.2406 22.3105 18.346 22.3112 18.4534C22.3085 18.5788 22.3493 18.7014 22.4268 18.8001C22.4799 18.8862 22.5528 18.9585 22.6393 19.0111C22.7258 19.0636 22.8236 19.0949 22.9246 19.1023C23.2089 19.1365 23.4961 19.0671 23.7335 18.9067C23.8199 18.8621 23.8947 18.7979 23.9518 18.7192C24.0089 18.6404 24.0468 18.5494 24.0623 18.4534C24.0712 18.2846 24.0712 18.1155 24.0623 17.9467Z" fill="#2A3578"/>
<path d="M19.9288 16.7644L19.8044 16.8711L19.7244 16.8267C19.57 16.7011 19.3864 16.6165 19.1906 16.5807C18.9948 16.545 18.7932 16.5593 18.6044 16.6222C18.5324 16.6433 18.4658 16.6797 18.4091 16.7287C18.3523 16.7778 18.3068 16.8385 18.2755 16.9067C18.2331 16.9762 18.2115 17.0564 18.2133 17.1378C18.2111 17.2394 18.2446 17.3386 18.3079 17.4181C18.3713 17.4977 18.4604 17.5526 18.5599 17.5733L19.2444 17.7689C19.3729 17.7969 19.4981 17.8386 19.6177 17.8933C19.7339 17.9461 19.8325 18.0311 19.9019 18.1382C19.9712 18.2454 20.0083 18.3701 20.0088 18.4978C20.0096 18.5931 19.9903 18.6876 19.952 18.7749C19.9137 18.8622 19.8573 18.9404 19.7866 19.0044C19.7154 19.0657 19.6379 19.1193 19.5555 19.1644C19.2759 19.2833 18.9674 19.3172 18.6686 19.2619C18.3699 19.2066 18.094 19.0645 17.8755 18.8533L17.9733 18.6933L18.1599 18.8267C18.3253 18.9443 18.5148 19.0236 18.7147 19.059C18.9145 19.0943 19.1198 19.0848 19.3155 19.0311C19.3938 19.0145 19.4676 18.9813 19.532 18.9338C19.5964 18.8863 19.6499 18.8255 19.6888 18.7555C19.7414 18.6833 19.7695 18.596 19.7688 18.5067C19.7684 18.4189 19.742 18.3333 19.6929 18.2605C19.6439 18.1877 19.5744 18.1311 19.4933 18.0978C19.2849 18.015 19.071 17.9467 18.8533 17.8933C18.711 17.8489 18.5688 17.8222 18.4444 17.7778C18.3073 17.7378 18.1868 17.6549 18.1004 17.5413C18.0139 17.4277 17.9663 17.2894 17.9644 17.1467C17.9629 17.0516 17.983 16.9575 18.023 16.8713C18.063 16.7851 18.122 16.7091 18.1955 16.6489C18.2237 16.6147 18.2566 16.5848 18.2933 16.56C18.5479 16.401 18.8495 16.3346 19.1473 16.3718C19.4452 16.409 19.7212 16.5477 19.9288 16.7644Z" fill="#2A3578"/>
<path d="M16.4801 16.4356C16.3823 16.6756 16.2934 16.9156 16.1956 17.1467L15.4134 19.0756C15.4134 19.1556 15.3512 19.2356 15.2356 19.2178C15.1201 19.2 15.0756 19.2178 15.0401 19.12L13.9734 16.4533C14.1867 16.3733 14.2134 16.3822 14.2845 16.5689L15.1112 18.7289L15.2089 18.9422C15.2534 18.8356 15.2889 18.7733 15.3156 18.7022L16.2045 16.5422C16.2489 16.4 16.3289 16.3911 16.4801 16.4356Z" fill="#2A3578"/>
<path d="M20.7378 16.6222H20.3645V16.4267H20.7289V15.4578H20.9867V16.4089H21.6178V16.6222H20.9956C20.9956 16.72 20.9956 16.7822 20.9956 16.8533V18.5511C20.9956 18.9511 21.2089 19.0933 21.5823 18.9778L21.7689 18.9067L21.8489 19.0844C21.6723 19.2082 21.46 19.2706 21.2445 19.2622C21.114 19.2599 20.9897 19.2064 20.8983 19.1133C20.8068 19.0202 20.7556 18.8949 20.7556 18.7644V16.6222H20.7378Z" fill="#2A3578"/>
<path d="M17.2533 16.4268H17.0222V19.209H17.2533V16.4268Z" fill="#2A3578"/>
<path d="M17.0312 15.2711H17.2624V15.7422H17.0312V15.2711Z" fill="#2A3578"/>
</g>
<defs>
<clipPath id="clip0_2707_286998">
<rect width="32" height="32" fill="white"/>
</clipPath>
</defs>
</svg>
