<svg width="32" height="32" viewBox="0 0 32 32" fill="none" xmlns="http://www.w3.org/2000/svg">
<g clip-path="url(#clip0_2707_286823)">
<path d="M16 31.9823C24.8268 31.9823 31.9823 24.8268 31.9823 16C31.9823 7.17331 24.8268 0.0178223 16 0.0178223C7.17331 0.0178223 0.0178223 7.17331 0.0178223 16C0.0178223 24.8268 7.17331 31.9823 16 31.9823Z" fill="white"/>
<path d="M7.71559 11.6178C7.9251 11.7239 8.11151 11.8704 8.26408 12.0489C8.41665 12.2274 8.53234 12.4343 8.60448 12.6578C8.64898 12.7601 8.70252 12.8583 8.76448 12.9511C8.83625 13.0661 8.9418 13.1562 9.0667 13.2089C9.28892 13.3245 9.49337 13.4578 9.7067 13.5911C9.87558 13.9998 9.98341 14.4311 10.0267 14.8711C10.0267 15.0667 10.0267 15.2534 10.0267 15.4489C9.61232 15.1078 9.13366 14.8533 8.61909 14.7006C8.10452 14.5479 7.56453 14.5001 7.03114 14.56C6.46858 14.6153 5.92522 14.7944 5.44003 15.0845L5.33337 15.1111C5.0447 15.2882 4.77899 15.5001 4.54226 15.7422C4.37337 15.92 4.22226 16.1156 4.06226 16.3111C4.06976 15.9878 4.13603 15.6685 4.25781 15.3689C4.45912 14.7765 4.81064 14.2464 5.27803 13.8304C5.74542 13.4144 6.3127 13.1268 6.92448 12.9956C7.10611 12.96 7.2845 12.9094 7.45781 12.8445C7.66226 12.7556 7.7067 12.6222 7.64448 12.4C7.61135 12.2973 7.57278 12.1964 7.52892 12.0978C7.50436 12.046 7.48357 11.9926 7.4667 11.9378C7.45129 11.9144 7.44109 11.888 7.4368 11.8603C7.4325 11.8326 7.4342 11.8043 7.44178 11.7773C7.44937 11.7503 7.46266 11.7253 7.48077 11.7039C7.49887 11.6825 7.52135 11.6653 7.5467 11.6534L7.71559 11.6178Z" fill="#3FA3CA"/>
<path d="M4.05342 16.2756C4.21342 16.0801 4.36453 15.8845 4.53342 15.7067C4.77496 15.4765 5.0436 15.2765 5.33342 15.1112H5.40453C5.3512 15.4975 5.3512 15.8893 5.40453 16.2756C5.47717 16.8966 5.68317 17.4945 6.00843 18.0284C6.33369 18.5623 6.77051 19.0196 7.28898 19.369C7.31529 19.3865 7.34622 19.3959 7.37786 19.3959C7.40951 19.3959 7.44044 19.3865 7.46675 19.369C8.45678 18.9421 9.24346 18.1491 9.66231 17.1556C9.90241 16.6344 10.0267 16.0673 10.0268 15.4934C10.0268 15.2978 10.0268 15.1112 10.0268 14.9156C9.98346 14.4756 9.87564 14.0443 9.70675 13.6356C10.3924 14.1392 10.8824 14.8648 11.0934 15.689C11.2892 16.4165 11.2707 17.185 11.0401 17.9023C10.9977 18.0435 10.9767 18.1904 10.9779 18.3378C10.9754 18.3821 10.9821 18.4264 10.9977 18.4679C11.0132 18.5094 11.0372 18.5472 11.0681 18.579C11.099 18.6108 11.1362 18.6357 11.1773 18.6524C11.2184 18.669 11.2624 18.6769 11.3068 18.6756C11.437 18.6845 11.5676 18.6845 11.6979 18.6756C11.7956 18.6756 11.9112 18.6756 11.9556 18.8178C12.0001 18.9601 11.9112 19.0223 11.8312 19.0934C11.6354 19.2496 11.3967 19.3426 11.1468 19.3601C10.9156 19.3601 10.6845 19.3601 10.4534 19.3601C10.2853 19.3571 10.1215 19.4138 9.9912 19.5201C9.64625 19.8124 9.25595 20.0466 8.83564 20.2134C8.52257 20.3411 8.18705 20.4045 7.84898 20.4001C7.55206 20.403 7.25523 20.3882 6.96009 20.3556C6.13181 20.1959 5.3896 19.7411 4.8712 19.0756C4.77527 18.9583 4.66475 18.8538 4.54231 18.7645C4.51027 18.7394 4.47337 18.7213 4.43395 18.7113C4.39453 18.7012 4.35345 18.6995 4.31333 18.7062C4.2732 18.7129 4.23491 18.7278 4.20088 18.7501C4.16684 18.7724 4.13782 18.8015 4.11564 18.8356C4.04453 18.9245 3.9912 19.0223 3.92009 19.1112C3.89066 19.1635 3.858 19.214 3.82231 19.2623C3.76898 19.3245 3.71564 19.3778 3.62675 19.3601C3.58633 19.3467 3.5506 19.322 3.52381 19.2889C3.49702 19.2558 3.4803 19.2157 3.47564 19.1734C3.42144 18.966 3.44028 18.7463 3.52898 18.5512C3.63022 18.3161 3.746 18.0875 3.87564 17.8667C3.98341 17.7134 4.05345 17.5367 4.08009 17.3512C4.08894 17.2358 4.08894 17.1199 4.08009 17.0045V16.3201" fill="#F68C47"/>
<path d="M18.1068 18.5423C17.9112 18.5423 17.7334 18.5423 17.5557 18.5423C17.4264 18.5192 17.3031 18.4703 17.1931 18.3985C17.0832 18.3267 16.9888 18.2336 16.9157 18.1245L14.9423 15.5467C14.9094 15.4977 14.8706 15.4529 14.8268 15.4134V17.9645C14.8268 18.3467 14.649 18.5334 14.2845 18.5334H13.6001V13.2001C13.8113 13.1481 14.0329 13.1573 14.2391 13.2265C14.4453 13.2958 14.6275 13.4223 14.7645 13.5912L16.729 16.1512L16.8979 16.3556V13.769C16.8876 13.7002 16.8923 13.6301 16.9118 13.5634C16.9313 13.4967 16.965 13.435 17.0106 13.3826C17.0563 13.3302 17.1127 13.2883 17.1761 13.2598C17.2396 13.2314 17.3084 13.2171 17.3779 13.2178H18.1068V18.5423Z" fill="#F15C2F"/>
<path d="M27.3511 18.5067V16.3733H25.2355V17.9733C25.2468 18.0896 25.2176 18.2062 25.1528 18.3034C25.088 18.4006 24.9916 18.4724 24.88 18.5067H24V13.76C23.9902 13.688 23.9969 13.6148 24.0195 13.5458C24.0421 13.4768 24.0801 13.4138 24.1306 13.3616C24.1811 13.3094 24.2428 13.2693 24.311 13.2444C24.3792 13.2195 24.4522 13.2104 24.5244 13.2178H25.2267V15.3067H27.3511V13.7689C27.3395 13.6954 27.3452 13.6203 27.3676 13.5494C27.39 13.4785 27.4286 13.4137 27.4803 13.3603C27.532 13.3069 27.5955 13.2662 27.6656 13.2414C27.7357 13.2167 27.8106 13.2086 27.8844 13.2178H28.5778V17.9644C28.5778 18.3289 28.4 18.5156 28.0533 18.5156H27.3511" fill="#F15C2F"/>
<path d="M20.3379 15.6889C20.7112 15.6889 21.0845 15.6889 21.449 15.6889C21.5386 15.6852 21.6264 15.6623 21.7066 15.622C21.7867 15.5816 21.8573 15.5246 21.9137 15.4548C21.97 15.3849 22.0108 15.3039 22.0334 15.2171C22.056 15.1302 22.0598 15.0395 22.0445 14.9511C22.0507 14.794 21.9989 14.6401 21.8989 14.5188C21.7989 14.3975 21.6577 14.3172 21.5023 14.2933C21.1112 14.2933 20.729 14.2933 20.3379 14.2933V15.6889ZM20.3379 16.7022V17.9556C20.347 18.0145 20.347 18.0744 20.3379 18.1333C20.3314 18.2341 20.2878 18.3289 20.2156 18.3995C20.1434 18.47 20.0476 18.5114 19.9467 18.5156C19.6801 18.5156 19.4134 18.5156 19.129 18.5156V13.7956C19.125 13.7304 19.125 13.6651 19.129 13.6C19.1466 13.4861 19.2069 13.3831 19.2978 13.3121C19.3886 13.2411 19.503 13.2074 19.6179 13.2178C20.3734 13.2178 21.129 13.2178 21.8756 13.2711C22.134 13.2684 22.3877 13.3398 22.6066 13.4769C22.8256 13.6139 23.0007 13.8109 23.1112 14.0445C23.2433 14.2959 23.3204 14.5726 23.3372 14.8561C23.3541 15.1397 23.3104 15.4236 23.209 15.6889C23.1107 15.9368 22.9504 16.1554 22.7434 16.3235C22.5363 16.4916 22.2896 16.6036 22.0267 16.6489C21.618 16.7112 21.2038 16.7291 20.7912 16.7022C20.6579 16.7022 20.5245 16.7022 20.3734 16.7022" fill="#F15C2F"/>
<path d="M26.6666 20.0711C26.6538 20.0771 26.6399 20.0804 26.6258 20.0809C26.6117 20.0815 26.5976 20.0792 26.5844 20.0742C26.5711 20.0693 26.559 20.0617 26.5487 20.052C26.5384 20.0423 26.5302 20.0307 26.5244 20.0178C26.453 19.8812 26.3666 19.753 26.2666 19.6356V20.08H26.1333V19.3867C26.1955 19.3867 26.2311 19.3867 26.2755 19.4489C26.3472 19.5778 26.4305 19.6998 26.5244 19.8134V19.3778H26.6666V20.0711Z" fill="#605F61"/>
<path d="M13.9912 19.3778H14.1068V20.0711C14.0942 20.0785 14.0802 20.083 14.0657 20.0842C14.0512 20.0855 14.0366 20.0835 14.0229 20.0784C14.0093 20.0733 13.997 20.0652 13.9869 20.0547C13.9768 20.0442 13.9692 20.0316 13.9645 20.0178L13.7068 19.6089V20.0711H13.6001V19.3867C13.6712 19.3867 13.7068 19.3867 13.7423 19.4489C13.7779 19.5111 13.8934 19.6978 13.9912 19.84V19.3778Z" fill="#605F61"/>
<path d="M21.6089 19.6711C21.6648 19.6799 21.7218 19.6799 21.7778 19.6711C21.7951 19.662 21.8104 19.6494 21.8226 19.6341C21.8348 19.6188 21.8438 19.6012 21.8489 19.5822C21.8449 19.5615 21.8354 19.5423 21.8213 19.5266C21.8072 19.511 21.789 19.4995 21.7689 19.4933C21.7159 19.4846 21.6618 19.4846 21.6089 19.4933V19.6711ZM21.6089 20.0089C21.6933 19.9835 21.7764 19.9539 21.8578 19.92C21.8661 19.8849 21.8661 19.8484 21.8578 19.8133C21.7792 19.7895 21.699 19.7716 21.6178 19.76L21.6089 20.0089ZM21.5022 20.08V19.3778C21.6057 19.3687 21.7098 19.3687 21.8133 19.3778C21.8433 19.3843 21.8715 19.3972 21.8961 19.4156C21.9206 19.434 21.9409 19.4575 21.9555 19.4845C21.9761 19.5214 21.982 19.5648 21.9722 19.606C21.9623 19.6471 21.9373 19.6831 21.9022 19.7067C21.9394 19.7348 21.9659 19.7749 21.9772 19.8201C21.9885 19.8654 21.984 19.9132 21.9644 19.9556C21.92 20.0622 21.84 20.0711 21.7422 20.0711H21.5022" fill="#605F61"/>
<path d="M24.4622 20.0978C24.4228 20.0731 24.3869 20.0432 24.3556 20.0089C24.2667 19.8845 24.1956 19.7601 24.0978 19.6089V20.0801H24V19.3867C24.0622 19.3867 24.1067 19.3867 24.1422 19.4489C24.2139 19.5778 24.2972 19.6998 24.3911 19.8134V19.3867H24.4978V20.0801" fill="#605F61"/>
<path d="M16.4446 19.8223V19.3868H16.5512V20.0712C16.5384 20.0771 16.5245 20.0805 16.5104 20.081C16.4963 20.0815 16.4822 20.0792 16.469 20.0743C16.4557 20.0693 16.4436 20.0618 16.4333 20.0521C16.423 20.0424 16.4148 20.0308 16.409 20.0179C16.3379 19.8845 16.249 19.7512 16.1512 19.6001V20.0801H16.0535V19.3512C16.1031 19.3721 16.1484 19.4023 16.1868 19.4401C16.2757 19.5645 16.3468 19.6979 16.4268 19.8223" fill="#605F61"/>
<path d="M17.8934 19.7156C17.973 19.6971 18.0505 19.6703 18.1245 19.6356C18.1245 19.6356 18.1245 19.529 18.1245 19.5201L17.8934 19.4578V19.7156ZM18.1334 19.7778L18.2756 20.0712C18.1956 20.0712 18.1423 20.0712 18.1067 20.0001C18.0927 19.9571 18.0749 19.9154 18.0534 19.8756C18.0534 19.7956 17.9823 19.769 17.8934 19.7956V20.0801H17.7778V19.3778C17.8811 19.3644 17.9857 19.3644 18.0889 19.3778C18.1209 19.3884 18.1502 19.4058 18.1748 19.4288C18.1994 19.4518 18.2186 19.4799 18.2312 19.5112C18.2522 19.5411 18.2635 19.5768 18.2635 19.6134C18.2635 19.65 18.2522 19.6857 18.2312 19.7156L18.1601 19.769" fill="#605F61"/>
<path d="M26.9156 19.9823C27.0045 19.9823 27.12 19.9823 27.1467 19.9111C27.1731 19.7881 27.1731 19.6608 27.1467 19.5378C27.1467 19.4489 27.0045 19.4756 26.9156 19.4756V19.9823ZM26.8 20.0711V19.3778C26.9511 19.3778 27.1111 19.3156 27.2356 19.4578C27.2984 19.6239 27.2984 19.8073 27.2356 19.9734C27.1733 20.08 27.04 20.1067 26.7822 20.0711" fill="#605F61"/>
<path d="M14.2668 19.3778H14.3646V19.8134C14.3606 19.8494 14.3689 19.8858 14.3883 19.9165C14.4077 19.9472 14.4369 19.9704 14.4712 19.9823C14.5601 19.9823 14.6401 19.9378 14.6401 19.8223V19.3778H14.7379C14.7379 19.5556 14.7379 19.7334 14.7379 19.9111C14.7379 20.0889 14.6046 20.0978 14.4624 20.08C14.4355 20.0789 14.4091 20.0725 14.3848 20.0611C14.3604 20.0498 14.3385 20.0337 14.3203 20.0139C14.3022 19.9941 14.2881 19.9709 14.2789 19.9456C14.2697 19.9204 14.2656 19.8936 14.2668 19.8667C14.2668 19.7067 14.2668 19.5467 14.2668 19.3778Z" fill="#605F61"/>
<path d="M22.7556 20.08V19.3778H22.8534V19.6623H23.1112V19.3867H23.2267V20.08H23.1112V19.7778H22.8445V20.08H22.7556Z" fill="#605F61"/>
<path d="M20.2311 19.9823V20.0712H19.8044V19.3867H20.2311V19.4756H19.9111V19.6712H20.1867V19.7778H19.9111V19.9823H20.2311Z" fill="#605F61"/>
<path d="M24.8889 19.3778H24.9956V19.6623H25.2622V19.3778H25.3689V20.0711H25.2622V19.7778H25.0045V20.08H24.8889V19.3778Z" fill="#605F61"/>
<path d="M22.48 19.3778H22.5867C22.5867 19.5467 22.5867 19.7156 22.5867 19.8845C22.5844 19.9137 22.5764 19.9422 22.5632 19.9683C22.5499 19.9944 22.5315 20.0176 22.5092 20.0366C22.4869 20.0556 22.4611 20.07 22.4332 20.079C22.4053 20.088 22.3759 20.0913 22.3467 20.0889C22.286 20.0891 22.2275 20.0663 22.183 20.025C22.1384 19.9838 22.1112 19.9272 22.1067 19.8667C22.1067 19.7067 22.1067 19.5467 22.1067 19.3867H22.2222V19.8045C22.2222 19.92 22.2667 19.9823 22.3556 19.9823C22.4445 19.9823 22.4889 19.92 22.4889 19.8045V19.3778" fill="#605F61"/>
<path d="M15.769 19.84L15.6713 19.5556L15.5735 19.8489L15.769 19.84ZM15.3779 20.0712L15.609 19.4134C15.6265 19.4084 15.6449 19.4084 15.6624 19.4134C15.6624 19.4134 15.7246 19.4134 15.7246 19.4578C15.8046 19.6712 15.8846 19.8845 15.9557 20.1067C15.8846 20.1067 15.8402 20.1067 15.8135 20.0356C15.8067 20.02 15.7955 20.0066 15.7813 19.9972C15.7671 19.9877 15.7505 19.9825 15.7335 19.9823C15.6895 19.9734 15.6442 19.9734 15.6002 19.9823C15.6002 19.9823 15.529 19.9823 15.529 20.0356C15.529 20.0889 15.4579 20.1334 15.3779 20.1067" fill="#605F61"/>
<path d="M17.3067 19.84H17.5022L17.4044 19.5556L17.3067 19.84ZM17.6889 20.0711C17.6178 20.0711 17.5644 20.0711 17.5556 20.0089C17.5467 19.9467 17.5556 19.9378 17.4667 19.9378C17.3778 19.9378 17.3778 19.9378 17.3333 19.9378C17.2889 19.9378 17.2622 19.9378 17.2622 19.9911C17.2622 20.0445 17.2 20.0889 17.12 20.0622C17.04 20.0356 17.1822 19.8667 17.2178 19.76L17.3422 19.4133C17.3573 19.3919 17.3793 19.3762 17.4044 19.3689H17.4578C17.5378 19.5822 17.6178 19.8045 17.6889 20.0267" fill="#605F61"/>
<path d="M18.6667 19.5555L18.5867 19.8133H18.6667V19.5555ZM18.9423 20.0444C18.8623 20.0444 18.8178 20.0444 18.8001 19.9733C18.7924 19.9583 18.7811 19.9455 18.7671 19.9361C18.753 19.9268 18.7369 19.9212 18.7201 19.92H18.5867C18.5762 19.9188 18.5656 19.9196 18.5554 19.9225C18.5452 19.9255 18.5357 19.9304 18.5274 19.937C18.5192 19.9436 18.5123 19.9518 18.5072 19.9611C18.5021 19.9704 18.4989 19.9806 18.4978 19.9911C18.4978 20.0711 18.4356 20.08 18.3645 20.0533L18.5956 19.3867C18.6158 19.3799 18.6376 19.3799 18.6578 19.3867C18.6749 19.3797 18.6941 19.3797 18.7112 19.3867C18.7823 19.6089 18.8623 19.8222 18.9423 20.0444Z" fill="#605F61"/>
<path d="M21.12 19.5555L21.0222 19.8489H21.2089L21.12 19.5555ZM20.8267 20.08C20.9067 19.8667 20.9778 19.6444 21.0578 19.4311C21.0729 19.4097 21.0948 19.394 21.12 19.3867C21.1371 19.3797 21.1562 19.3797 21.1733 19.3867L21.4044 20.0444C21.3244 20.0444 21.28 20.0444 21.2622 19.9733C21.2561 19.959 21.2463 19.9465 21.2338 19.9371C21.2213 19.9278 21.2066 19.9219 21.1911 19.92C21.1441 19.9111 21.0959 19.9111 21.0489 19.92C21.0321 19.9212 21.0159 19.9268 21.0019 19.9361C20.9879 19.9455 20.9765 19.9583 20.9689 19.9733C20.9689 20.0533 20.9067 20.0711 20.8267 20.0444" fill="#605F61"/>
<path d="M25.84 19.84L25.7778 19.5556L25.68 19.84H25.84ZM25.4578 20.0711L25.6889 19.4133C25.706 19.4064 25.7251 19.4064 25.7422 19.4133C25.7623 19.4058 25.7844 19.4058 25.8044 19.4133L26.0355 20.0711C25.9644 20.0711 25.9111 20.0711 25.8933 20C25.8865 19.9844 25.8753 19.971 25.8612 19.9616C25.847 19.9521 25.8304 19.947 25.8133 19.9467C25.7706 19.9294 25.7227 19.9294 25.68 19.9467C25.6632 19.9479 25.647 19.9535 25.633 19.9628C25.619 19.9722 25.6076 19.985 25.6 20C25.6 20.08 25.5378 20.0978 25.4578 20.0711Z" fill="#605F61"/>
<path d="M27.6356 19.5556L27.5378 19.8489H27.7245L27.6356 19.5556ZM27.9201 20.08C27.8401 20.08 27.7956 20.08 27.7778 20.0089C27.7702 19.9939 27.7589 19.9811 27.7448 19.9717C27.7308 19.9624 27.7146 19.9568 27.6978 19.9556C27.6521 19.9377 27.6013 19.9377 27.5556 19.9556C27.5556 19.9556 27.4845 19.9556 27.4845 20.0089C27.4845 20.0622 27.4134 20.1067 27.3423 20.08C27.4134 19.8578 27.4934 19.6445 27.5734 19.4222C27.5734 19.3778 27.6623 19.3689 27.6801 19.4222L27.9201 20.0889" fill="#605F61"/>
<path d="M14.9156 19.9467C14.9894 19.956 15.064 19.956 15.1378 19.9467C15.1378 19.9467 15.2178 19.8844 15.2178 19.8489C15.2178 19.8133 15.1645 19.7867 15.1289 19.76H15.0667C14.9156 19.76 14.8623 19.68 14.8711 19.5467C14.8721 19.5193 14.8788 19.4925 14.8908 19.4679C14.9028 19.4434 14.9199 19.4216 14.9408 19.404C14.9617 19.3864 14.9861 19.3734 15.0124 19.3658C15.0387 19.3582 15.0663 19.3563 15.0934 19.36C15.169 19.3703 15.2435 19.3882 15.3156 19.4133C15.3156 19.4933 15.2445 19.52 15.1823 19.4844C15.1642 19.4758 15.1445 19.4713 15.1245 19.4713C15.1045 19.4713 15.0847 19.4758 15.0667 19.4844C15.0667 19.4844 14.9867 19.5378 14.9867 19.5733C14.9867 19.6089 14.9867 19.6444 15.0489 19.6622C15.0989 19.6714 15.1501 19.6714 15.2 19.6622C15.2384 19.6737 15.272 19.6971 15.296 19.7291C15.32 19.7611 15.3331 19.8 15.3334 19.84C15.3358 19.8781 15.3269 19.9161 15.308 19.9493C15.289 19.9825 15.2608 20.0094 15.2267 20.0267C15.1637 20.057 15.0927 20.0664 15.024 20.0536C14.9552 20.0408 14.8924 20.0065 14.8445 19.9556L14.9067 19.8933" fill="#605F61"/>
<path d="M23.609 19.5556L23.5112 19.849H23.7068L23.609 19.5556ZM23.8935 20.0801C23.8135 20.0801 23.7779 20.0801 23.7512 20.009C23.7451 19.9946 23.7353 19.9821 23.7228 19.9728C23.7103 19.9634 23.6956 19.9575 23.6801 19.9556C23.6357 19.9556 23.5912 19.9556 23.5468 19.9556C23.5023 19.9556 23.4668 19.9556 23.4579 20.0178C23.449 20.0801 23.3957 20.1156 23.3157 20.089L23.5557 19.4312C23.5612 19.422 23.569 19.4144 23.5784 19.4091C23.5877 19.4038 23.5983 19.401 23.609 19.401C23.6197 19.401 23.6303 19.4038 23.6396 19.4091C23.649 19.4144 23.6568 19.422 23.6623 19.4312L23.8935 20.0978" fill="#605F61"/>
<path d="M19.3245 19.7245C19.4042 19.706 19.4816 19.6792 19.5557 19.6445V19.5556C19.4808 19.5254 19.4035 19.5016 19.3245 19.4845V19.7245ZM19.209 20.08V19.3778C19.3157 19.3778 19.4134 19.3778 19.5112 19.3778C19.5678 19.3778 19.622 19.4003 19.6621 19.4403C19.7021 19.4803 19.7245 19.5346 19.7245 19.5911C19.7245 19.6477 19.7021 19.702 19.6621 19.742C19.622 19.782 19.5678 19.8045 19.5112 19.8045H19.3423V20.08H19.209Z" fill="#605F61"/>
<path d="M20.8001 19.9823V20.08H20.3645V19.3778H20.4445C20.4445 19.5467 20.4445 19.6978 20.4445 19.8578C20.4445 20.0178 20.4445 19.9911 20.5601 19.9823C20.6311 19.9778 20.7024 19.9778 20.7734 19.9823" fill="#605F61"/>
<path d="M16.6577 19.3778H17.1377V19.4756H16.951V20.08H16.8888V19.4756H16.7022V19.3778" fill="#605F61"/>
<path d="M28.1156 19.9823H28.4445V20.08H28.0178V19.3778H28.1245L28.1156 19.9823Z" fill="#605F61"/>
<path d="M9.60903 19.769C9.36429 19.949 9.09485 20.0927 8.80903 20.1956C8.49596 20.3233 8.16044 20.3868 7.82236 20.3823C7.52545 20.3853 7.22862 20.3704 6.93348 20.3379C6.1052 20.1781 5.36299 19.7233 4.84459 19.0579C4.74866 18.9406 4.63814 18.836 4.5157 18.7468C4.48366 18.7217 4.44676 18.7036 4.40734 18.6935C4.36792 18.6835 4.32684 18.6818 4.28672 18.6884C4.24659 18.6951 4.2083 18.7101 4.17427 18.7324C4.14023 18.7547 4.11121 18.7838 4.08903 18.8179C4.01792 18.9068 3.96459 19.0045 3.89348 19.0934C3.86405 19.1458 3.83139 19.1962 3.7957 19.2445C3.74236 19.3068 3.68903 19.3601 3.60014 19.3423C3.55972 19.3289 3.52399 19.3042 3.4972 19.2712C3.47041 19.2381 3.45369 19.198 3.44903 19.1556C3.39483 18.9483 3.41367 18.7286 3.50236 18.5334C3.60361 18.2983 3.71939 18.0697 3.84903 17.849C3.9568 17.6956 4.02684 17.519 4.05348 17.3334C4.06232 17.218 4.06232 17.1021 4.05348 16.9868V16.3023C4.21348 16.1068 4.36459 15.9112 4.53348 15.7334C4.77349 15.4939 5.04219 15.2849 5.33348 15.1112H5.40459C5.35126 15.4975 5.35126 15.8893 5.40459 16.2756C5.53688 17.3733 6.07997 18.3801 6.92459 19.0934C7.02909 19.2119 7.15597 19.3086 7.29792 19.3779C8.0237 19.6987 8.81811 19.8331 9.60903 19.769Z" fill="#F15C2F"/>
</g>
<defs>
<clipPath id="clip0_2707_286823">
<rect width="32" height="32" fill="white"/>
</clipPath>
</defs>
</svg>
