<svg width="32" height="32" viewBox="0 0 32 32" fill="none" xmlns="http://www.w3.org/2000/svg">
<g clip-path="url(#clip0_2707_286238)">
<path d="M16 31.9822C24.8268 31.9822 31.9823 24.8267 31.9823 16C31.9823 7.17325 24.8268 0.0177612 16 0.0177612C7.17331 0.0177612 0.0178223 7.17325 0.0178223 16C0.0178223 24.8267 7.17331 31.9822 16 31.9822Z" fill="white"/>
<path d="M20.3201 10.32V11.84C20.3201 12.4355 19.8401 12.7288 19.2179 12.7288C18.9408 12.7387 18.6708 12.6403 18.4651 12.4544C18.2593 12.2686 18.134 12.0099 18.1157 11.7333V10.32C18.1311 10.1873 18.1726 10.0591 18.2377 9.94251C18.3029 9.82596 18.3904 9.72344 18.4954 9.64084C18.6003 9.55824 18.7205 9.49718 18.849 9.46118C18.9776 9.42518 19.112 9.41495 19.2446 9.43107C19.3744 9.41372 19.5065 9.42338 19.6324 9.45945C19.7583 9.49551 19.8755 9.55721 19.9765 9.64066C20.0774 9.72412 20.1601 9.82753 20.2192 9.94442C20.2784 10.0613 20.3127 10.1892 20.3201 10.32ZM21.209 10.9333C21.2138 10.3973 21.006 9.88126 20.6312 9.4981C20.2563 9.11495 19.745 8.89588 19.209 8.88885H16.7201V9.07551C17.0579 9.07551 17.1912 9.1644 17.1912 9.34218V15.2622C17.1912 15.4844 17.0135 15.5555 16.7112 15.5644V15.7688H18.6668V15.5555C18.3024 15.5555 18.1157 15.4577 18.1157 15.2622V12.7733C18.2932 12.9505 18.5087 13.085 18.7458 13.1666C18.983 13.2483 19.2356 13.2749 19.4846 13.2444C20.016 13.1509 20.4932 12.8618 20.8223 12.4341C21.1513 12.0063 21.3083 11.471 21.2624 10.9333M16.3201 5.50218C17.8526 5.57689 19.3112 6.18356 20.4446 7.21774L21.1024 6.55996C19.7854 5.34832 18.0815 4.64283 16.2935 4.56885L16.3201 5.50218ZM20.9246 7.66218C21.9594 8.80226 22.5658 10.2665 22.6401 11.8044H23.5735C23.4953 10.0226 22.7901 8.32566 21.5824 7.01329L20.9246 7.66218ZM22.6401 12.4444C22.5686 13.9855 21.9619 15.4535 20.9246 16.5955L21.5824 17.2444C22.794 15.931 23.4997 14.2298 23.5735 12.4444H22.6401ZM20.4446 17.0488C19.3051 18.0913 17.8362 18.7015 16.2935 18.7733V19.7066C18.0838 19.6278 19.788 18.9159 21.1024 17.6977L20.4446 17.0488ZM15.6624 18.7733C14.1346 18.6935 12.6824 18.0837 11.5557 17.0488L10.8979 17.6977C12.2178 18.9172 13.9291 19.6263 15.7246 19.6977L15.6624 18.7733ZM11.0668 16.6044C10.0347 15.4572 9.43434 13.9862 9.36902 12.4444H8.48014C8.54847 14.231 9.25489 15.934 10.4712 17.2444L11.0668 16.6044ZM9.34236 11.8044C9.41709 10.2623 10.0269 8.79443 11.0668 7.65329L10.409 7.01329C9.20634 8.32657 8.51002 10.0248 8.44458 11.8044H9.34236ZM11.5557 7.21774C12.6969 6.17912 14.1653 5.57224 15.7068 5.50218V4.56885C13.9152 4.63844 12.207 5.34439 10.889 6.55996L11.5557 7.21774ZM15.2001 10.32V11.84C15.2001 12.4355 14.729 12.7288 14.1068 12.7288C13.8288 12.7388 13.5578 12.6407 13.3506 12.455C13.1434 12.2694 13.0162 12.0107 12.9957 11.7333V10.32C13.029 10.0514 13.1675 9.80692 13.3808 9.64029C13.5941 9.47365 13.8648 9.39841 14.1335 9.43107C14.2629 9.41368 14.3944 9.42337 14.5199 9.45951C14.6453 9.49566 14.7619 9.55748 14.8622 9.64106C14.9625 9.72463 15.0443 9.82814 15.1025 9.94501C15.1607 10.0619 15.1939 10.1896 15.2001 10.32ZM16.089 10.9333C16.0926 10.6661 16.043 10.4008 15.9432 10.1529C15.8433 9.90504 15.6953 9.67944 15.5075 9.48924C15.3198 9.29904 15.0962 9.14802 14.8496 9.04495C14.6031 8.94189 14.3385 8.88882 14.0712 8.88885H11.5557V9.07551C11.9024 9.07551 12.0357 9.1644 12.0357 9.34218V15.2622C12.0357 15.4844 11.8579 15.5555 11.5557 15.5644V15.7688H13.529V15.5555C13.1557 15.5555 12.9779 15.4577 12.9779 15.2622V12.7733C13.1541 12.9498 13.368 13.0839 13.6036 13.1655C13.8392 13.2472 14.0903 13.2741 14.3379 13.2444C14.8712 13.1547 15.3509 12.8666 15.6807 12.438C16.0104 12.0093 16.1658 11.4718 16.1157 10.9333" fill="#005283"/>
<path d="M8.44458 23.0222V21.0755H9.12902C9.29422 21.0535 9.46161 21.0535 9.6268 21.0755C9.74565 21.102 9.8521 21.1678 9.92902 21.2622C10.0166 21.3662 10.0611 21.4998 10.0535 21.6355C10.0575 21.7465 10.0331 21.8567 9.98236 21.9555C9.9493 22.0665 9.87652 22.1614 9.77791 22.2222C9.71087 22.2688 9.6354 22.3021 9.55569 22.32C9.41065 22.3291 9.26518 22.3291 9.12014 22.32H8.88902V23.0577L8.44458 23.0222ZM8.88902 21.4133V21.9644H9.12014C9.23232 21.978 9.34573 21.978 9.45791 21.9644C9.51116 21.9477 9.55782 21.9147 9.5913 21.87C9.62479 21.8253 9.64343 21.7713 9.64458 21.7155C9.64095 21.6513 9.61497 21.5904 9.57114 21.5433C9.52731 21.4962 9.46838 21.4659 9.40458 21.4577H8.88902V21.4133ZM10.4979 23.0222V21.0755H11.3868C11.5516 21.0663 11.7168 21.0843 11.8757 21.1288C11.9759 21.164 12.0628 21.2291 12.1246 21.3155C12.1845 21.4048 12.2155 21.5103 12.2135 21.6177C12.2175 21.6857 12.2077 21.7538 12.1848 21.818C12.1619 21.8821 12.1263 21.941 12.0801 21.9911C11.9652 22.0961 11.8178 22.1588 11.6624 22.1688C11.7433 22.2119 11.8181 22.2657 11.8846 22.3288C11.9743 22.4278 12.0547 22.535 12.1246 22.6488L12.3912 23.0311H11.8757L11.5557 22.6044C11.4888 22.5042 11.4145 22.4091 11.3335 22.32C11.2944 22.2806 11.2494 22.2476 11.2001 22.2222C11.1293 22.2136 11.0577 22.2136 10.9868 22.2222H10.8979V23.0311L10.4979 23.0222ZM10.9157 21.9022H11.2357C11.3568 21.9158 11.479 21.9158 11.6001 21.9022C11.6501 21.892 11.6945 21.8634 11.7246 21.8222C11.7525 21.7766 11.7678 21.7245 11.769 21.6711C11.7696 21.6117 11.7473 21.5544 11.7068 21.5111C11.6609 21.4733 11.6056 21.4488 11.5468 21.44H10.9157V21.9022ZM12.6046 22.0622C12.598 21.8918 12.6283 21.722 12.6935 21.5644C12.7414 21.4641 12.8077 21.3736 12.889 21.2977C12.9656 21.2176 13.06 21.1566 13.1646 21.12C13.3096 21.0661 13.4632 21.039 13.6179 21.04C13.8915 21.0314 14.1583 21.1267 14.3646 21.3066C14.5406 21.5139 14.6372 21.7769 14.6372 22.0488C14.6372 22.3208 14.5406 22.5838 14.3646 22.7911C14.2647 22.8839 14.147 22.9553 14.0187 23.0012C13.8903 23.047 13.754 23.0663 13.6179 23.0577C13.4832 23.0661 13.3483 23.0467 13.2214 23.0009C13.0945 22.955 12.9783 22.8836 12.8801 22.7911C12.7878 22.6945 12.7165 22.5799 12.6706 22.4545C12.6247 22.3291 12.6053 22.1955 12.6135 22.0622M13.049 22.0622C13.0415 22.1502 13.0518 22.2389 13.0793 22.3229C13.1067 22.4069 13.1509 22.4845 13.209 22.5511C13.2628 22.6071 13.3279 22.6511 13.3999 22.6802C13.4719 22.7093 13.5492 22.7228 13.6268 22.72C13.7046 22.7246 13.7825 22.7119 13.8548 22.6827C13.927 22.6535 13.9919 22.6085 14.0446 22.5511C14.1478 22.4023 14.2031 22.2255 14.2031 22.0444C14.2031 21.8633 14.1478 21.6865 14.0446 21.5377C13.9883 21.4831 13.9214 21.4407 13.848 21.4131C13.7745 21.3856 13.6962 21.3736 13.6179 21.3777C13.5402 21.3737 13.4625 21.3867 13.3903 21.4159C13.3181 21.4451 13.2532 21.4897 13.2001 21.5466C13.1397 21.6153 13.0943 21.6958 13.0667 21.7831C13.0392 21.8703 13.0301 21.9624 13.0401 22.0533M15.049 23.0222V21.0755H15.7246C15.8927 21.0534 16.0631 21.0534 16.2312 21.0755C16.3501 21.102 16.4565 21.1678 16.5335 21.2622C16.6072 21.3608 16.6514 21.4783 16.6609 21.6011C16.6703 21.7239 16.6446 21.8468 16.5868 21.9555C16.5443 22.0318 16.4831 22.096 16.409 22.1422C16.3411 22.1873 16.2659 22.2203 16.1868 22.24C16.0418 22.2489 15.8963 22.2489 15.7512 22.24H15.4846V22.9777L15.049 23.0222ZM15.4668 21.4133V21.9644H15.7068C15.816 21.9775 15.9265 21.9775 16.0357 21.9644C16.0889 21.9477 16.1356 21.9147 16.1691 21.87C16.2026 21.8253 16.2212 21.7713 16.2224 21.7155C16.2238 21.6846 16.2191 21.6538 16.2084 21.6248C16.1977 21.5958 16.1813 21.5692 16.1601 21.5466C16.1167 21.4972 16.0566 21.4655 15.9912 21.4577H15.4668V21.4133ZM17.0757 23.0222V21.0755H18.6312V21.4044H17.4846V21.84H18.5512V22.1688H17.4846V22.7022H18.6668V23.0311L17.0757 23.0222ZM19.1112 23.0222V21.0755H20.0001C20.1649 21.0668 20.33 21.0848 20.489 21.1288C20.5881 21.1616 20.6729 21.2275 20.729 21.3155C20.7931 21.4027 20.8246 21.5097 20.8179 21.6177C20.8242 21.6859 20.8155 21.7546 20.7924 21.8191C20.7694 21.8836 20.7326 21.9423 20.6846 21.9911C20.5731 22.0961 20.4285 22.159 20.2757 22.1688C20.3567 22.2119 20.4314 22.2657 20.4979 22.3288C20.5835 22.4312 20.6637 22.538 20.7379 22.6488L20.9957 23.0311H20.4446L20.1246 22.5955C20.0583 22.4949 19.984 22.3997 19.9024 22.3111C19.8666 22.2764 19.8243 22.2492 19.7779 22.2311C19.7071 22.2225 19.6354 22.2225 19.5646 22.2311H19.5557V23.04L19.1112 23.0222ZM19.5557 21.9022H19.8668C19.9936 21.9198 20.1222 21.9198 20.249 21.9022C20.2955 21.8893 20.3362 21.8611 20.3646 21.8222C20.3821 21.8014 20.395 21.7773 20.4027 21.7513C20.4103 21.7253 20.4125 21.698 20.409 21.6711C20.413 21.6128 20.3938 21.5553 20.3557 21.5111C20.3098 21.4733 20.2545 21.4488 20.1957 21.44H19.5557V21.9022ZM21.8046 23.0222V21.4133H21.1735V21.0755H22.8446V21.4044H22.2224V23.0133L21.8046 23.0222ZM23.1112 21.0755H23.5379V23.0222H23.1112V21.0755Z" fill="#005283"/>
</g>
<defs>
<clipPath id="clip0_2707_286238">
<rect width="32" height="32" fill="white"/>
</clipPath>
</defs>
</svg>
