<svg width="32" height="32" viewBox="0 0 32 32" fill="none" xmlns="http://www.w3.org/2000/svg">
<g clip-path="url(#clip0_2810_58481)">
<mask id="mask0_2810_58481" style="mask-type:luminance" maskUnits="userSpaceOnUse" x="0" y="-1" width="32" height="33">
<path d="M32 -0.0800018H0V31.92H32V-0.0800018Z" fill="white"/>
</mask>
<g mask="url(#mask0_2810_58481)">
<path d="M16 31.92C24.8366 31.92 32 24.7566 32 15.92C32 7.08344 24.8366 -0.0800018 16 -0.0800018C7.16344 -0.0800018 0 7.08344 0 15.92C0 24.7566 7.16344 31.92 16 31.92Z" fill="white"/>
<mask id="mask1_2810_58481" style="mask-type:luminance" maskUnits="userSpaceOnUse" x="2" y="2" width="28" height="28">
<path d="M2.66699 15.92C2.66699 18.5571 3.44898 21.1349 4.91406 23.3276C6.37915 25.5203 8.46153 27.2292 10.8979 28.2384C13.3342 29.2476 16.0151 29.5116 18.6015 28.9971C21.1879 28.4827 23.5637 27.2128 25.4284 25.3481C27.2931 23.4834 28.563 21.1076 29.0775 18.5212C29.5919 15.9348 29.3279 13.2539 28.3187 10.8175C27.3096 8.3812 25.6006 6.29882 23.4079 4.83373C21.2153 3.36865 18.6374 2.58666 16.0003 2.58666C12.4641 2.58666 9.07272 3.99142 6.57224 6.49191C4.07175 8.99239 2.66699 12.3838 2.66699 15.92Z" fill="white"/>
</mask>
<g mask="url(#mask1_2810_58481)">
<path d="M29.3337 15.92C29.3337 18.5571 28.5517 21.1349 27.0866 23.3276C25.6215 25.5203 23.5391 27.2292 21.1028 28.2384C18.6664 29.2476 15.9855 29.5116 13.3991 28.9971C10.8127 28.4827 8.43694 27.2128 6.57224 25.3481C4.70754 23.4834 3.43766 21.1076 2.92319 18.5212C2.40872 15.9348 2.67277 13.2539 3.68194 10.8175C4.69111 8.3812 6.40007 6.29882 8.59273 4.83373C10.7854 3.36865 13.3632 2.58666 16.0003 2.58666C17.7513 2.58666 19.4851 2.93154 21.1028 3.6016C22.7205 4.27166 24.1903 5.25379 25.4284 6.49191C26.6665 7.73002 27.6487 9.19988 28.3187 10.8175C28.9888 12.4352 29.3337 14.169 29.3337 15.92Z" fill="white"/>
</g>
<path d="M14.836 14.8889L15.1115 14.4L16.0004 12.9778C16.0354 12.9225 16.084 12.8771 16.1416 12.8459C16.1992 12.8148 16.2638 12.799 16.3293 12.8C16.3865 12.794 16.4444 12.8013 16.4984 12.8213C16.5524 12.8413 16.601 12.8736 16.6404 12.9155C16.6714 12.9455 16.6961 12.9814 16.7129 13.0211C16.7297 13.0608 16.7383 13.1035 16.7382 13.1467V16.5067C16.7382 16.5986 16.7017 16.6868 16.6366 16.7518C16.5716 16.8168 16.4835 16.8533 16.3915 16.8533C16.2996 16.8533 16.2114 16.8168 16.1464 16.7518C16.0814 16.6868 16.0448 16.5986 16.0448 16.5067V14.1155L15.156 15.4933C15.1216 15.5466 15.0797 15.5945 15.0315 15.6355C14.9763 15.6843 14.9052 15.7112 14.8315 15.7112C14.7579 15.7112 14.6867 15.6843 14.6315 15.6355C14.602 15.6022 14.5753 15.5665 14.5515 15.5289L13.6004 14.1689C13.5858 14.1651 13.5705 14.1651 13.556 14.1689V16.5422C13.5566 16.6168 13.5326 16.6896 13.4875 16.7491C13.4425 16.8086 13.3791 16.8515 13.3071 16.8711C13.2357 16.8931 13.1589 16.8901 13.0894 16.8626C13.02 16.8351 12.9619 16.7848 12.9248 16.72C12.8912 16.6667 12.8728 16.6052 12.8715 16.5422V13.1733C12.8637 13.0878 12.8888 13.0025 12.9416 12.9348C12.9945 12.8671 13.0711 12.8221 13.156 12.8089C13.245 12.7815 13.3407 12.7861 13.4267 12.8218C13.5127 12.8575 13.5836 12.9221 13.6271 13.0044L14.8004 14.8355L14.836 14.8889Z" fill="#005D81"/>
<path d="M9.27995 15.2889L9.54662 15.6178L10.0711 16.2844C10.107 16.3253 10.1336 16.3735 10.1489 16.4257C10.1643 16.4779 10.1681 16.5329 10.16 16.5867C10.1487 16.6457 10.121 16.7003 10.0801 16.7443C10.0393 16.7883 9.98684 16.8199 9.92884 16.8356C9.86574 16.8552 9.7985 16.8573 9.7343 16.8416C9.67011 16.8259 9.61138 16.7931 9.5644 16.7467C9.49328 16.6756 9.43995 16.5956 9.37773 16.5244L8.55106 15.4667C8.52244 15.4557 8.49079 15.4557 8.46217 15.4667H7.62662V15.5378C7.62662 15.8667 7.62662 16.1956 7.62662 16.5244C7.63165 16.6136 7.60212 16.7012 7.54417 16.7691C7.48621 16.837 7.40431 16.8799 7.31551 16.8889C7.22949 16.9016 7.14193 16.8798 7.07196 16.8282C7.002 16.7765 6.95533 16.6993 6.94217 16.6133C6.93724 16.575 6.93724 16.5361 6.94217 16.4978V13.2089C6.93816 13.1577 6.9453 13.1062 6.96309 13.058C6.98088 13.0098 7.0089 12.966 7.04523 12.9297C7.08155 12.8934 7.12532 12.8654 7.17351 12.8476C7.22171 12.8298 7.27318 12.8227 7.3244 12.8267H8.7644C9.00869 12.8247 9.25076 12.8731 9.47551 12.9689C9.66152 13.0404 9.82486 13.1607 9.9484 13.3171C10.072 13.4735 10.1512 13.6602 10.1777 13.8578C10.2182 14.1233 10.1812 14.395 10.0711 14.64C9.93174 14.9187 9.68947 15.1323 9.39551 15.2355L9.27995 15.2889ZM7.62662 14.1333V14.7556C7.62662 14.7556 7.62662 14.8089 7.67995 14.8089H8.77328C8.9295 14.8066 9.08135 14.757 9.20884 14.6667C9.30352 14.6051 9.37935 14.5185 9.42797 14.4166C9.47659 14.3146 9.49612 14.2012 9.4844 14.0889C9.48272 13.9657 9.44232 13.8462 9.36893 13.7473C9.29555 13.6484 9.19289 13.5751 9.07551 13.5378C8.95939 13.492 8.83587 13.4679 8.71106 13.4667H7.67995C7.63551 13.4667 7.62662 13.4667 7.62662 13.5289V14.1333Z" fill="#005D81"/>
<path d="M24.96 16.5244C24.956 16.4801 24.956 16.4355 24.96 16.3911L26.4534 13.0578C26.4782 12.9864 26.5218 12.9231 26.5797 12.8745C26.6377 12.826 26.7077 12.7941 26.7823 12.7822C26.8873 12.75 27.0006 12.7587 27.0995 12.8065C27.1984 12.8543 27.2756 12.9377 27.3156 13.04C27.52 13.4667 27.7067 13.9289 27.9023 14.3467C28.2134 15.0222 28.5156 15.7067 28.7912 16.3822C28.827 16.4547 28.8342 16.5381 28.8111 16.6156C28.788 16.6931 28.7364 16.759 28.6667 16.8C28.5929 16.8446 28.5049 16.8594 28.4206 16.8412C28.3363 16.823 28.2622 16.7733 28.2134 16.7022C28.1469 16.5783 28.0875 16.4507 28.0356 16.32C27.9645 16.1778 27.9112 16.0355 27.8489 15.8933C27.8395 15.8879 27.8287 15.885 27.8178 15.885C27.8069 15.885 27.7962 15.8879 27.7867 15.8933H25.9912C25.9912 15.8933 25.9378 15.8933 25.92 15.9467C25.8223 16.1867 25.7156 16.4267 25.6089 16.6755C25.5896 16.7224 25.5602 16.7644 25.5229 16.7986C25.4856 16.8328 25.4412 16.8585 25.3929 16.8738C25.3446 16.889 25.2936 16.8935 25.2434 16.8869C25.1931 16.8803 25.145 16.8628 25.1023 16.8356C25.0516 16.8025 25.0113 16.7557 24.9861 16.7006C24.9609 16.6455 24.9519 16.5844 24.96 16.5244ZM26.9156 13.6089L26.2134 15.2267H27.6178L26.9156 13.6089Z" fill="#005D81"/>
<path d="M17.5472 16.5244C17.5472 16.48 17.5472 16.4355 17.5917 16.3911C18.0806 15.2889 18.5784 14.1867 19.0761 13.0755C19.0991 13.0014 19.1418 12.9348 19.1998 12.8831C19.2577 12.8314 19.3287 12.7965 19.405 12.7822C19.5136 12.7497 19.6304 12.7591 19.7324 12.8085C19.8344 12.8578 19.9142 12.9436 19.9561 13.0489L21.2628 16C21.325 16.1244 21.3784 16.2578 21.4406 16.3911C21.4761 16.4619 21.4849 16.5432 21.4653 16.6199C21.4457 16.6967 21.399 16.7638 21.3339 16.8089C21.2661 16.8558 21.1835 16.8762 21.1016 16.8664C21.0197 16.8566 20.9443 16.8172 20.8895 16.7555C20.8544 16.7134 20.8273 16.6652 20.8095 16.6133C20.7028 16.3822 20.605 16.1422 20.4984 15.9111C20.4907 15.9053 20.4813 15.9022 20.4717 15.9022C20.4621 15.9022 20.4527 15.9053 20.445 15.9111H18.5784C18.5784 15.9111 18.5784 15.9111 18.5161 15.9644L18.1961 16.6933C18.1775 16.7419 18.1479 16.7855 18.1097 16.8207C18.0715 16.8559 18.0257 16.8819 17.9758 16.8965C17.9259 16.9111 17.8733 16.914 17.8221 16.905C17.7709 16.896 17.7225 16.8752 17.6806 16.8444C17.6329 16.8069 17.5956 16.7578 17.5723 16.7018C17.5489 16.6458 17.5403 16.5847 17.5472 16.5244ZM19.5561 13.6089L18.8539 15.2267H20.2584L19.5561 13.6089Z" fill="#005D81"/>
<path d="M3.11143 14.8355V13.1911C3.10887 13.1426 3.11654 13.094 3.13395 13.0487C3.15136 13.0033 3.17812 12.9621 3.21248 12.9277C3.24685 12.8933 3.28806 12.8666 3.33343 12.8492C3.37881 12.8318 3.42734 12.8241 3.47587 12.8267H4.74698C5.09008 12.8196 5.42646 12.9223 5.70698 13.12C5.83698 13.2159 5.94644 13.3369 6.02888 13.4758C6.11132 13.6148 6.16508 13.7688 6.18698 13.9289C6.23558 14.2022 6.20153 14.4839 6.08921 14.7378C6.0149 14.8968 5.9087 15.0388 5.77719 15.155C5.64569 15.2712 5.49169 15.3591 5.32476 15.4133C5.10809 15.4911 4.87942 15.5302 4.64921 15.5289H3.87587C3.81365 15.5289 3.80476 15.5289 3.80476 15.6C3.80476 15.9022 3.80476 16.1955 3.80476 16.4889C3.79143 16.5724 3.74875 16.6485 3.6844 16.7033C3.62005 16.7582 3.53824 16.7884 3.45365 16.7884C3.36906 16.7884 3.28725 16.7582 3.2229 16.7033C3.15855 16.6485 3.11587 16.5724 3.10254 16.4889L3.11143 14.8355ZM3.80476 14.2222V14.8978V14.9511C4.11587 14.9511 4.43587 14.9511 4.74698 14.9511C4.8598 14.9505 4.97106 14.9246 5.07258 14.8754C5.1741 14.8262 5.2633 14.7549 5.33365 14.6667C5.40405 14.5928 5.45729 14.5043 5.48956 14.4075C5.52182 14.3107 5.53233 14.208 5.52032 14.1067C5.51554 14.0059 5.48735 13.9077 5.43798 13.8197C5.3886 13.7318 5.3194 13.6565 5.23587 13.6C5.06325 13.5004 4.86618 13.4511 4.66698 13.4578H3.86698C3.86698 13.4578 3.80476 13.4578 3.80476 13.5111C3.81365 13.7333 3.80476 13.9555 3.80476 14.2222Z" fill="#005D81"/>
<path d="M23.2266 14.6133L23.3866 14.3911L24.3733 12.9956C24.4041 12.9347 24.4511 12.8834 24.5091 12.8474C24.5671 12.8113 24.6339 12.7919 24.7021 12.7911C24.7556 12.7912 24.8083 12.804 24.8559 12.8284C24.9034 12.8528 24.9445 12.8881 24.9758 12.9315C25.007 12.9749 25.0275 13.0251 25.0356 13.078C25.0436 13.1308 25.039 13.1848 25.0221 13.2356C25.0039 13.2827 24.98 13.3274 24.951 13.3689L23.5999 15.2178C23.592 15.2469 23.592 15.2776 23.5999 15.3067V16.4889C23.5999 16.5808 23.5634 16.669 23.4984 16.734C23.4334 16.799 23.3452 16.8356 23.2533 16.8356C23.1613 16.8356 23.0731 16.799 23.0081 16.734C22.9431 16.669 22.9066 16.5808 22.9066 16.4889C22.9066 16.0978 22.9066 15.7067 22.9066 15.3156C22.9157 15.2836 22.9157 15.2497 22.9066 15.2178L21.5733 13.3867C21.5314 13.337 21.5029 13.2774 21.4905 13.2137C21.478 13.1499 21.482 13.084 21.5021 13.0222C21.5227 12.9672 21.5566 12.9182 21.6008 12.8794C21.6449 12.8407 21.698 12.8135 21.7552 12.8003C21.8124 12.7871 21.872 12.7883 21.9287 12.8038C21.9854 12.8192 22.0373 12.8485 22.0799 12.8889C22.1382 12.953 22.1916 13.0214 22.2399 13.0933L23.1999 14.5778L23.2266 14.6133Z" fill="#005D81"/>
<path d="M11.7959 14.8178V16.4622C11.8033 16.5388 11.7856 16.6158 11.7456 16.6815C11.7055 16.7472 11.6452 16.7982 11.5737 16.8267C11.5208 16.847 11.4636 16.8541 11.4073 16.8472C11.351 16.8404 11.2973 16.8198 11.2508 16.7874C11.2043 16.7549 11.1664 16.7115 11.1406 16.661C11.1148 16.6105 11.1017 16.5545 11.1026 16.4978V13.1467C11.1021 13.0613 11.1331 12.9788 11.1896 12.9149C11.2461 12.851 11.3243 12.8102 11.409 12.8003C11.4937 12.7904 11.5792 12.8121 11.6489 12.8612C11.7187 12.9104 11.7678 12.9835 11.787 13.0667C11.7914 13.1021 11.7914 13.1379 11.787 13.1733L11.7959 14.8178Z" fill="#005D81"/>
<path d="M10.2937 18.5244C10.2937 18.64 10.2937 18.7644 10.2937 18.88C10.2983 18.9449 10.2805 19.0094 10.2433 19.0628C10.2061 19.1162 10.1517 19.1552 10.0892 19.1733C9.99242 19.2152 9.88806 19.2367 9.78258 19.2367C9.67711 19.2367 9.57274 19.2152 9.47592 19.1733C9.42148 19.1522 9.37548 19.1138 9.34497 19.0641C9.31446 19.0143 9.30113 18.9559 9.30703 18.8978V18.1689C9.30075 18.099 9.31972 18.0292 9.36049 17.9722C9.40126 17.9151 9.46113 17.8745 9.52925 17.8578C9.70009 17.805 9.88286 17.805 10.0537 17.8578C10.1278 17.8688 10.1945 17.9086 10.2394 17.9685C10.2844 18.0284 10.3039 18.1036 10.2937 18.1778V18.5244ZM10.0181 18.5244C10.0181 18.4178 10.0181 18.3111 10.0181 18.2044C10.0213 18.173 10.0133 18.1414 9.99537 18.1154C9.97746 18.0893 9.95087 18.0705 9.92036 18.0622C9.84493 18.04 9.76468 18.04 9.68925 18.0622C9.65904 18.0707 9.63198 18.0878 9.61143 18.1115C9.59089 18.1352 9.57776 18.1644 9.57369 18.1955V18.8711C9.57362 18.905 9.58644 18.9376 9.60955 18.9624C9.63267 18.9871 9.66434 19.0022 9.69814 19.0044C9.74515 19.0131 9.79335 19.0131 9.84036 19.0044C9.97369 19.0044 10.0181 18.9333 10.0181 18.8V18.5244Z" fill="#005D81"/>
<path d="M7.1741 18.3911V17.9022C7.1741 17.8311 7.1741 17.8311 7.24521 17.8222H7.38744C7.38744 17.8222 7.44966 17.8222 7.44966 17.8844V19.1289C7.44966 19.1911 7.44966 19.2 7.37855 19.2H7.24521C7.18299 19.2 7.1741 19.2 7.1741 19.1289V18.6044H6.72966V19.1289C6.72966 19.1911 6.72966 19.2 6.66743 19.2H6.52521C6.46299 19.2 6.4541 19.2 6.4541 19.1289V18.24C6.4541 18.1244 6.4541 18 6.4541 17.8844C6.4541 17.7689 6.4541 17.8133 6.52521 17.8133H6.64966C6.72966 17.8133 6.72966 17.8133 6.72966 17.9022V18.32C6.72966 18.3733 6.72966 18.3822 6.79188 18.3822L7.1741 18.3911Z" fill="#005D81"/>
<path d="M12.2407 18.72C12.3651 18.72 12.3651 18.72 12.374 18.8444C12.3829 18.9689 12.374 18.9867 12.4985 18.9956H12.7118C12.7433 18.9891 12.7711 18.9707 12.7894 18.9441C12.8076 18.9176 12.8148 18.8851 12.8096 18.8533C12.8096 18.7378 12.8096 18.7022 12.6851 18.6578L12.3385 18.5333C12.2768 18.5138 12.2234 18.4745 12.1864 18.4214C12.1494 18.3684 12.131 18.3046 12.134 18.24V18.0889C12.1394 18.0351 12.1609 17.9842 12.1958 17.9429C12.2308 17.9016 12.2774 17.8719 12.3296 17.8578C12.5034 17.7871 12.698 17.7871 12.8718 17.8578C12.9319 17.8758 12.9841 17.9139 13.0196 17.9656C13.0552 18.0173 13.072 18.0796 13.0674 18.1422C13.0674 18.2755 13.0674 18.2755 12.934 18.2755C12.8007 18.2755 12.8096 18.2755 12.8007 18.1511C12.7994 18.1261 12.7901 18.1022 12.7741 18.0829C12.758 18.0637 12.7362 18.0502 12.7118 18.0444C12.638 18.0351 12.5634 18.0351 12.4896 18.0444C12.4755 18.0466 12.462 18.0515 12.4498 18.059C12.4377 18.0665 12.4271 18.0763 12.4189 18.0879C12.4106 18.0995 12.4047 18.1126 12.4016 18.1265C12.3985 18.1405 12.3982 18.1549 12.4007 18.1689C12.4007 18.2578 12.4007 18.2933 12.4896 18.32L12.8451 18.4533L12.9785 18.5244C13.0089 18.545 13.0338 18.5729 13.0509 18.6054C13.068 18.638 13.0767 18.6743 13.0763 18.7111V18.8622C13.0812 18.9019 13.0782 18.9423 13.0675 18.9808C13.0567 19.0194 13.0384 19.0554 13.0136 19.0869C12.9888 19.1183 12.9579 19.1445 12.9229 19.1639C12.8879 19.1833 12.8494 19.1956 12.8096 19.2C12.661 19.2392 12.5048 19.2392 12.3563 19.2C12.2818 19.185 12.2153 19.1433 12.1695 19.0827C12.1236 19.0221 12.1015 18.9469 12.1074 18.8711C12.1074 18.6667 12.0985 18.72 12.2407 18.72Z" fill="#005D81"/>
<path d="M14.8984 18.5156V17.9022C14.8984 17.8311 14.8984 17.8222 14.9784 17.8222H15.4407C15.539 17.8205 15.6364 17.8418 15.7251 17.8844C15.7689 17.9124 15.8054 17.9504 15.8316 17.9952C15.8579 18.04 15.8732 18.0904 15.8762 18.1422C15.8718 18.2133 15.8718 18.2845 15.8762 18.3556C15.8818 18.4302 15.8594 18.5043 15.8134 18.5635C15.7674 18.6226 15.7011 18.6625 15.6273 18.6756C15.5065 18.6936 15.3837 18.6936 15.2629 18.6756C15.1651 18.6756 15.174 18.6756 15.174 18.7644V19.12C15.1757 19.1273 15.1755 19.135 15.1734 19.1423C15.1713 19.1495 15.1675 19.1561 15.1621 19.1615C15.1568 19.1668 15.1502 19.1707 15.1429 19.1728C15.1357 19.1748 15.128 19.175 15.1207 19.1733H14.9695C14.9162 19.1733 14.8984 19.1733 14.8984 19.1111C14.9027 19.0608 14.9027 19.0103 14.8984 18.96V18.5156ZM15.174 18.5156H15.4407C15.5355 18.5156 15.5888 18.4711 15.6007 18.3822C15.6095 18.3263 15.6095 18.2693 15.6007 18.2133C15.5999 18.1872 15.5909 18.1619 15.5749 18.1412C15.559 18.1204 15.5369 18.1052 15.5118 18.0978C15.3999 18.0798 15.2859 18.0798 15.174 18.0978V18.5156Z" fill="#005D81"/>
<path d="M23.1115 19.2089C22.9693 19.2089 22.9871 19.2089 22.9426 19.0844V18.9689C22.9415 18.9595 22.9386 18.9505 22.934 18.9422C22.9293 18.934 22.9231 18.9268 22.9157 18.921C22.9082 18.9152 22.8997 18.911 22.8906 18.9085C22.8815 18.9061 22.872 18.9054 22.8626 18.9067C22.7649 18.9067 22.676 18.9067 22.5782 18.9067C22.4804 18.9067 22.5338 18.9067 22.5249 18.9511L22.4715 19.1467C22.4704 19.156 22.4675 19.1651 22.4629 19.1733C22.4582 19.1815 22.452 19.1887 22.4446 19.1945C22.4371 19.2003 22.4286 19.2046 22.4195 19.207C22.4104 19.2095 22.4009 19.2101 22.3915 19.2089H22.2226C22.1604 19.2089 22.1604 19.2089 22.1782 19.1378L22.3915 18.4089C22.4449 18.24 22.4982 18.0711 22.5426 17.9022C22.5871 17.7333 22.5871 17.8222 22.6404 17.8222H22.7826C22.7908 17.821 22.7992 17.8214 22.8072 17.8234C22.8152 17.8254 22.8228 17.829 22.8294 17.8339C22.836 17.8389 22.8416 17.8452 22.8458 17.8523C22.85 17.8594 22.8527 17.8673 22.8538 17.8756L23.2271 19.1467C23.2271 19.1911 23.2271 19.2089 23.2271 19.2089H23.1115ZM22.5782 18.6933H22.836C22.836 18.5956 22.7738 18.5067 22.756 18.4089C22.7361 18.3149 22.7213 18.22 22.7115 18.1244L22.5782 18.6933Z" fill="#005D81"/>
<path d="M20.3204 18.0444V19.1289C20.3204 19.2 20.3204 19.2089 20.2404 19.2089H20.0981C20.0908 19.2106 20.0831 19.2104 20.0759 19.2083C20.0686 19.2062 20.062 19.2024 20.0567 19.197C20.0513 19.1917 20.0475 19.1851 20.0454 19.1778C20.0433 19.1706 20.0431 19.1629 20.0448 19.1556V18.0978C20.0448 18.0978 20.0448 18.0444 19.9915 18.0444H19.7604C19.7604 18.0444 19.707 18.0444 19.707 17.9911C19.707 17.7867 19.707 17.8311 19.867 17.8311H20.5959C20.6581 17.8311 20.6581 17.8311 20.6581 17.8933C20.6581 17.9556 20.6581 18.0444 20.507 18.0444H20.3204Z" fill="#005D81"/>
<path d="M25.2982 18.9867H25.716C25.796 18.9867 25.8049 18.9867 25.8049 19.0667V19.1556C25.8066 19.1629 25.8064 19.1706 25.8043 19.1778C25.8022 19.1851 25.7983 19.1917 25.793 19.197C25.7877 19.2024 25.781 19.2062 25.7738 19.2083C25.7665 19.2104 25.7589 19.2106 25.7515 19.2089H25.076C25.0686 19.2106 25.061 19.2104 25.0537 19.2083C25.0464 19.2062 25.0398 19.2024 25.0345 19.197C25.0292 19.1917 25.0253 19.1851 25.0232 19.1778C25.0211 19.1706 25.0209 19.1629 25.0226 19.1556C25.0226 18.7289 25.0226 18.2667 25.0226 17.8756C25.0226 17.8756 25.0226 17.8222 25.0671 17.8222H25.2271C25.2715 17.8222 25.2893 17.8222 25.2893 17.8844V18.9867H25.2982Z" fill="#005D81"/>
<path d="M17.6807 18.5156V17.8933C17.6807 17.84 17.6807 17.8222 17.7429 17.8222H17.894C17.894 17.8222 17.9473 17.8222 17.9473 17.8844V19.1378C17.9473 19.2089 17.9473 19.2089 17.8673 19.2089H17.7784C17.734 19.2089 17.7162 19.2089 17.7162 19.1467L17.6807 18.5156Z" fill="#005D81"/>
</g>
</g>
<defs>
<clipPath id="clip0_2810_58481">
<rect width="32" height="32" fill="white"/>
</clipPath>
</defs>
</svg>
