<svg width="32" height="32" viewBox="0 0 32 32" fill="none" xmlns="http://www.w3.org/2000/svg">
<g clip-path="url(#clip0_2707_285888)">
<path d="M16 31.9822C24.8268 31.9822 31.9823 24.8267 31.9823 16C31.9823 7.17325 24.8268 0.0177612 16 0.0177612C7.17331 0.0177612 0.0178223 7.17325 0.0178223 16C0.0178223 24.8267 7.17331 31.9822 16 31.9822Z" fill="#FDF101"/>
<path d="M24.5335 15.1111H24.489C24.4935 15.0757 24.4935 15.0399 24.489 15.0044C24.4492 14.9044 24.385 14.8158 24.3024 14.7467C24.2445 14.7227 24.1796 14.7224 24.1215 14.7456C24.0634 14.7689 24.0166 14.8139 23.9913 14.8711C23.9039 15.0203 23.8324 15.1782 23.7779 15.3422C23.7575 15.413 23.7645 15.4888 23.7974 15.5547C23.8303 15.6206 23.8868 15.6717 23.9557 15.6978C23.9841 15.7153 24.0158 15.7269 24.0488 15.7319C24.0819 15.7369 24.1155 15.7352 24.1479 15.7269C24.1802 15.7186 24.2106 15.7038 24.2371 15.6836C24.2637 15.6633 24.2858 15.6379 24.3024 15.6089C24.3927 15.4495 24.47 15.283 24.5335 15.1111ZM26.3113 15.7156L26.6224 16.2311L27.0846 15.9556L26.9779 15.7511L27.1824 15.6178L26.889 15.1111L26.4268 15.3867L26.5335 15.5822L26.329 15.7245M11.5557 16.3733H12.1601V15.8489H11.9468V15.6178H11.3601V16.1422H11.5557V16.3733ZM10.1246 12.2667H4.79125V19.7422H10.1246V12.2667ZM16.0535 18.1067C16.0535 17.9467 16.0535 17.8222 16.0535 17.7067C16.018 17.3151 16.0696 16.9205 16.2046 16.5511C16.3113 16.2667 16.3824 16.2311 16.6846 16.2845C16.9868 16.3378 16.969 16.4 16.8446 16.64C16.6693 16.9218 16.5655 17.2422 16.5424 17.5733C16.5323 17.6584 16.5491 17.7445 16.5906 17.8195C16.6321 17.8944 16.696 17.9545 16.7735 17.9911C16.9546 18.0901 17.1646 18.123 17.3674 18.0841C17.5701 18.0451 17.753 17.9368 17.8846 17.7778C17.9153 17.731 17.9392 17.6801 17.9557 17.6267C18.0713 17.7867 18.1246 17.9111 18.2224 17.9733C18.3795 18.0986 18.5718 18.1719 18.7724 18.183C18.9731 18.1942 19.1723 18.1426 19.3424 18.0356C19.5673 17.8786 19.7529 17.6717 19.8846 17.4311L20.0624 17.1645H20.1068C20.1068 17.2889 20.1068 17.4044 20.1601 17.5289C20.2846 18.1067 20.6135 18.3289 21.1646 18.1067C21.3068 18.0533 21.4224 17.9467 21.5557 17.8845C21.5866 17.8712 21.6199 17.8644 21.6535 17.8644C21.6871 17.8644 21.7203 17.8712 21.7513 17.8845C21.8653 17.9703 22.0041 18.0167 22.1468 18.0167C22.2895 18.0167 22.4283 17.9703 22.5424 17.8845C22.5589 17.8624 22.5804 17.8445 22.6051 17.8321C22.6298 17.8198 22.657 17.8133 22.6846 17.8133C22.7122 17.8133 22.7394 17.8198 22.7641 17.8321C22.7888 17.8445 22.8102 17.8624 22.8268 17.8845C22.9013 17.98 23.0053 18.0484 23.1226 18.0789C23.2399 18.1095 23.364 18.1005 23.4757 18.0533C23.609 18 23.7246 17.92 23.8579 17.8756C23.9913 17.8311 24.009 17.8311 24.0357 17.8756C24.1444 17.9864 24.2888 18.0552 24.4433 18.0699C24.5978 18.0845 24.7526 18.044 24.8801 17.9556C24.9868 17.9022 25.0935 17.8311 25.209 17.7778L25.4135 17.9378C25.4843 18.0051 25.5688 18.0563 25.6613 18.0878C25.7538 18.1193 25.852 18.1303 25.9492 18.1202C26.0464 18.1101 26.1402 18.079 26.2242 18.0291C26.3082 17.9792 26.3803 17.9116 26.4357 17.8311C26.5798 17.6314 26.7077 17.4203 26.8179 17.2C26.8501 17.127 26.8682 17.0486 26.8713 16.9689C26.8713 16.8533 26.8179 16.7822 26.7024 16.8178C26.5973 16.844 26.4979 16.8892 26.409 16.9511C26.2846 17.0667 26.1868 17.2089 26.0624 17.3333C25.9379 17.4578 25.849 17.4133 25.7957 17.2622C25.7634 17.199 25.7537 17.1265 25.7683 17.057C25.7828 16.9875 25.8207 16.925 25.8757 16.88L26.1246 16.6578C26.1246 16.6578 26.1957 16.5778 26.1868 16.5422C26.1957 16.3986 26.1658 16.2552 26.1 16.1271C26.0343 15.9991 25.9352 15.8912 25.8133 15.8147C25.6913 15.7383 25.551 15.6962 25.4071 15.6928C25.2632 15.6894 25.1211 15.7249 24.9957 15.7956C24.5342 16.0582 24.1954 16.4928 24.0535 17.0044C23.9557 17.3067 23.9113 17.3245 23.6001 17.2711C23.6001 17.1822 23.6001 17.0933 23.6001 17.0044C23.6535 16.7467 23.7157 16.4978 23.769 16.24C23.8224 15.9822 23.769 15.9645 23.6446 15.8756C23.5818 15.8381 23.5076 15.8247 23.4357 15.8378C23.3638 15.8508 23.299 15.8895 23.2535 15.9467C23.0556 16.1504 22.9199 16.4063 22.8624 16.6845C22.8624 16.9067 22.809 17.1289 22.7824 17.3867C22.6494 17.3473 22.5234 17.2873 22.409 17.2089C22.3311 17.0835 22.2897 16.9388 22.2897 16.7911C22.2897 16.6435 22.3311 16.4987 22.409 16.3733C22.5165 16.2416 22.6323 16.1169 22.7557 16C23.1278 15.5723 23.3246 15.0199 23.3068 14.4533C23.3068 14.3022 23.2179 14.24 23.0846 14.3022C22.9316 14.3689 22.7881 14.4556 22.6579 14.56C22.3197 14.8602 22.0966 15.2688 22.0268 15.7156C21.9824 15.9111 21.9468 15.9289 21.7601 15.8845C21.5963 15.824 21.4199 15.8062 21.2473 15.8327C21.0747 15.8591 20.9117 15.9289 20.7735 16.0356C20.6135 16.1778 20.4801 16.3556 20.3379 16.5067C20.1957 16.6578 20.249 16.5956 20.2046 16.5956C20.1601 16.5956 20.1157 16.5333 20.089 16.48C20.0594 16.4118 20.0385 16.3401 20.0268 16.2667C20.0179 16.1327 19.9652 16.0053 19.8769 15.9042C19.7886 15.803 19.6695 15.7336 19.5379 15.7067C19.2996 15.623 19.0395 15.6252 18.8025 15.7128C18.5656 15.8004 18.3667 15.968 18.2401 16.1867C18.0847 16.4701 17.9567 16.7678 17.8579 17.0756C17.8225 17.1738 17.7571 17.2584 17.671 17.3174C17.5848 17.3765 17.4823 17.4069 17.3779 17.4045C17.2179 17.4045 17.1024 17.2178 17.1024 16.9956C17.113 16.8958 17.1433 16.7992 17.1913 16.7111C17.2515 16.6164 17.3199 16.5272 17.3957 16.4445C17.4594 16.392 17.5048 16.3208 17.5256 16.241C17.5463 16.1611 17.5413 16.0768 17.5113 16C17.4758 15.912 17.416 15.836 17.3389 15.7809C17.2617 15.7258 17.1704 15.6939 17.0757 15.6889H16.5779C16.4713 15.6889 16.4179 15.6444 16.4268 15.5289V15.2889L16.1957 15.4489C16.1957 15.2267 16.2401 15.0133 16.1957 14.8C16.1885 14.5871 16.1587 14.3755 16.1068 14.1689C16.0689 13.9618 15.9588 13.7749 15.796 13.6414C15.6333 13.5079 15.4284 13.4366 15.2179 13.44C14.9413 13.447 14.669 13.5105 14.4179 13.6267C13.8053 13.9672 13.3097 14.4845 12.9957 15.1111C12.9068 15.2533 12.8268 15.4133 12.7379 15.5467L12.4446 15.3689C12.4446 15.6178 12.3113 15.8489 12.569 16.0178C12.569 16.0178 12.6224 16.1067 12.6224 16.16C12.6267 16.2429 12.6267 16.326 12.6224 16.4089C12.6224 17.0222 12.6224 17.6356 12.5779 18.2578C12.5856 18.3081 12.6048 18.356 12.6341 18.3977C12.6634 18.4393 12.702 18.4736 12.7468 18.4978C12.818 18.5448 12.9015 18.5699 12.9868 18.5699C13.0721 18.5699 13.1556 18.5448 13.2268 18.4978C13.3458 18.4096 13.4705 18.3294 13.6001 18.2578C13.6801 18.2133 13.6801 18.16 13.6801 18.0711C13.6801 17.6889 13.6801 17.2978 13.6801 16.9511C14.0856 16.9104 14.487 16.8361 14.8801 16.7289C15.244 16.5551 15.592 16.3499 15.9201 16.1156C15.8135 16.3822 15.7068 16.6489 15.609 16.9245C15.5113 17.2 15.4313 17.4045 15.3601 17.6533C15.357 17.6899 15.3626 17.7268 15.3765 17.7608C15.3904 17.7948 15.4122 17.825 15.4401 17.8489C15.6535 17.9556 15.8757 18.0356 16.1157 18.1422M28.4446 20.96H3.61792V11.0756H28.3824L28.4446 20.96Z" fill="#F9EE20"/>
<path d="M21.1734 17.4578C21.2661 17.4173 21.3505 17.3601 21.4223 17.2889C21.5043 17.1869 21.5702 17.073 21.6179 16.9511C21.6331 16.9052 21.6374 16.8564 21.6305 16.8086C21.6236 16.7607 21.6056 16.7151 21.578 16.6755C21.5504 16.6358 21.5139 16.6031 21.4714 16.5799C21.429 16.5568 21.3817 16.5439 21.3334 16.5422C21.2548 16.5276 21.1737 16.5337 21.0982 16.5598C21.0226 16.5859 20.9551 16.6312 20.9022 16.6912C20.8494 16.7512 20.813 16.8239 20.7967 16.9022C20.7803 16.9804 20.7846 17.0616 20.809 17.1378C20.809 17.36 20.9245 17.4311 21.1734 17.4578ZM25.2712 16.4178C25.1078 16.4338 24.9551 16.5066 24.8398 16.6236C24.7245 16.7405 24.6538 16.8941 24.6401 17.0578C24.6401 17.3333 24.7645 17.4489 25.0223 17.3333C25.1537 17.2827 25.2679 17.1956 25.3514 17.0822C25.4349 16.9688 25.4842 16.8338 25.4934 16.6933C25.4934 16.4266 25.4934 16.4178 25.2712 16.4178ZM19.0934 16.2578C18.9878 16.2887 18.8896 16.341 18.8052 16.4116C18.7207 16.4821 18.6517 16.5694 18.6024 16.6678C18.5532 16.7663 18.5248 16.8738 18.5191 16.9837C18.5133 17.0937 18.5303 17.2036 18.569 17.3066C18.6223 17.4311 18.6756 17.5466 18.8267 17.5822C18.9775 17.6176 19.136 17.5987 19.2742 17.5288C19.4124 17.4589 19.5215 17.3424 19.5823 17.2C19.5991 17.1758 19.6102 17.148 19.6148 17.1189C19.6194 17.0898 19.6173 17.06 19.6088 17.0318C19.6002 17.0036 19.5854 16.9777 19.5654 16.956C19.5454 16.9343 19.5208 16.9175 19.4934 16.9066C19.3692 16.8513 19.2645 16.7598 19.1932 16.644C19.1218 16.5282 19.087 16.3936 19.0934 16.2578ZM13.7601 15.9111C13.831 15.9176 13.9025 15.9176 13.9734 15.9111C14.487 15.9243 14.9872 15.747 15.3779 15.4133C15.5881 15.2412 15.7274 14.9974 15.769 14.7289C15.7909 14.61 15.7783 14.4874 15.7326 14.3755C15.6869 14.2636 15.6101 14.1672 15.5112 14.0978C15.4247 14.0433 15.3245 14.0144 15.2223 14.0144C15.1201 14.0144 15.0199 14.0433 14.9334 14.0978C14.6626 14.2094 14.4329 14.4018 14.2756 14.6489C14.036 15.0386 13.8618 15.465 13.7601 15.9111ZM16.0445 18.1066C15.8045 18 15.5823 17.92 15.369 17.8133C15.341 17.7894 15.3192 17.7592 15.3053 17.7252C15.2914 17.6912 15.2858 17.6544 15.289 17.6178C15.3601 17.3689 15.449 17.1289 15.5379 16.8889C15.6267 16.6489 15.7423 16.3466 15.849 16.08C15.5208 16.3143 15.1728 16.5195 14.809 16.6933C14.4158 16.8005 14.0144 16.8748 13.609 16.9155C13.609 17.2622 13.609 17.6533 13.609 18.0355C13.609 18.1244 13.609 18.1778 13.529 18.2222C13.3993 18.2938 13.2746 18.374 13.1556 18.4622C13.0844 18.5092 13.001 18.5343 12.9156 18.5343C12.8303 18.5343 12.7468 18.5092 12.6756 18.4622C12.6308 18.438 12.5922 18.4037 12.5629 18.3621C12.5336 18.3204 12.5144 18.2725 12.5067 18.2222C12.5067 17.6 12.5067 16.9866 12.5512 16.3733C12.5555 16.2904 12.5555 16.2073 12.5512 16.1244C12.5512 16.0711 12.5512 16 12.4979 15.9822C12.2401 15.8133 12.3556 15.5822 12.3734 15.3333L12.6845 15.4844C12.7734 15.3511 12.8534 15.1911 12.9423 15.0489C13.2743 14.4369 13.7821 13.9384 14.4001 13.6178C14.6516 13.5027 14.9236 13.4393 15.2001 13.4311C15.4106 13.4277 15.6154 13.499 15.7782 13.6325C15.941 13.766 16.0511 13.9529 16.089 14.16C16.1409 14.3666 16.1707 14.5782 16.1779 14.7911C16.1779 15.0044 16.1779 15.2178 16.1779 15.44L16.409 15.28V15.52C16.409 15.6355 16.4534 15.6711 16.5601 15.68H17.0579C17.1526 15.685 17.2438 15.7169 17.321 15.772C17.3982 15.8271 17.458 15.9031 17.4934 15.9911C17.5214 16.0667 17.5254 16.1492 17.5047 16.2272C17.484 16.3052 17.4397 16.3748 17.3779 16.4266C17.3021 16.5094 17.2337 16.5986 17.1734 16.6933C17.1254 16.7814 17.0952 16.878 17.0845 16.9778C17.0845 17.2 17.2001 17.3689 17.3601 17.3866C17.4645 17.3891 17.567 17.3587 17.6531 17.2996C17.7393 17.2406 17.8047 17.156 17.8401 17.0578C17.9389 16.75 18.0669 16.4523 18.2223 16.1689C18.3583 15.9517 18.5668 15.7897 18.8109 15.7116C19.055 15.6335 19.3188 15.6443 19.5556 15.7422C19.6872 15.7691 19.8063 15.8385 19.8946 15.9397C19.9829 16.0409 20.0356 16.1682 20.0445 16.3022C20.0563 16.3756 20.0772 16.4473 20.1067 16.5155C20.1067 16.5689 20.1779 16.6311 20.2223 16.6311C20.2667 16.6311 20.3201 16.5778 20.3556 16.5422C20.3912 16.5066 20.6312 16.2133 20.7912 16.0711C20.9294 15.9644 21.0924 15.8946 21.265 15.8682C21.4376 15.8418 21.6141 15.8596 21.7779 15.92C21.9645 15.9644 22.0001 15.92 22.0445 15.7511C22.1178 15.3055 22.3403 14.898 22.6756 14.5955C22.8058 14.4911 22.9493 14.4044 23.1023 14.3378C23.2356 14.2755 23.3334 14.3378 23.3245 14.4889C23.3285 15.0456 23.1258 15.5841 22.7556 16C22.6249 16.1278 22.5032 16.2644 22.3912 16.4089C22.3132 16.5343 22.2719 16.679 22.2719 16.8266C22.2719 16.9743 22.3132 17.119 22.3912 17.2444C22.5056 17.3229 22.6315 17.3829 22.7645 17.4222C22.7645 17.1644 22.7645 16.9422 22.8445 16.72C22.9021 16.4419 23.0378 16.1859 23.2356 15.9822C23.2812 15.9251 23.3459 15.8864 23.4179 15.8733C23.4898 15.8602 23.564 15.8736 23.6267 15.9111C23.7867 16 23.7867 16.1244 23.7512 16.2755C23.7156 16.4266 23.6356 16.7822 23.5823 17.04C23.5823 17.1289 23.5823 17.2178 23.5823 17.3066C23.8934 17.36 23.9379 17.3066 24.0356 17.04C24.1776 16.5283 24.5164 16.0937 24.9779 15.8311C25.1033 15.7604 25.2454 15.7249 25.3893 15.7283C25.5332 15.7317 25.6735 15.7738 25.7954 15.8503C25.9174 15.9267 26.0164 16.0346 26.0822 16.1627C26.1479 16.2907 26.1779 16.4341 26.169 16.5778C26.169 16.5778 26.169 16.6666 26.1067 16.6933L25.8579 16.9155C25.8029 16.9605 25.765 17.023 25.7504 17.0925C25.7359 17.1621 25.7455 17.2345 25.7779 17.2978C25.8312 17.4489 25.929 17.4755 26.0445 17.3689C26.1601 17.2622 26.2667 17.1022 26.3912 16.9866C26.477 16.9391 26.5701 16.906 26.6667 16.8889C26.7823 16.8889 26.8445 16.8889 26.8356 17.04C26.8326 17.1197 26.8145 17.1981 26.7823 17.2711C26.672 17.4914 26.5442 17.7024 26.4001 17.9022C26.3447 17.9827 26.2725 18.0502 26.1886 18.1001C26.1046 18.1501 26.0107 18.1812 25.9136 18.1913C25.8164 18.2014 25.7182 18.1904 25.6257 18.1589C25.5332 18.1274 25.4486 18.0762 25.3779 18.0089L25.1734 17.8489C25.0579 17.9022 24.9512 17.9733 24.8445 18.0266C24.717 18.1151 24.5622 18.1556 24.4077 18.1409C24.2531 18.1263 24.1088 18.0575 24.0001 17.9466C24.0001 17.9466 23.8756 17.9466 23.8223 17.9466C23.769 17.9466 23.5734 18.0711 23.4401 18.1244C23.3284 18.1715 23.2043 18.1805 23.087 18.15C22.9697 18.1195 22.8657 18.0511 22.7912 17.9555C22.7746 17.9335 22.7532 17.9155 22.7285 17.9032C22.7038 17.8908 22.6766 17.8844 22.649 17.8844C22.6214 17.8844 22.5941 17.8908 22.5695 17.9032C22.5448 17.9155 22.5233 17.9335 22.5067 17.9555C22.3927 18.0413 22.2539 18.0878 22.1112 18.0878C21.9685 18.0878 21.8297 18.0413 21.7156 17.9555C21.6847 17.9423 21.6515 17.9355 21.6179 17.9355C21.5842 17.9355 21.551 17.9423 21.5201 17.9555C21.3867 18.0178 21.2712 18.1244 21.129 18.1778C20.5779 18.4 20.2401 18.1778 20.1245 17.6C20.1245 17.4755 20.1245 17.36 20.0712 17.2355H20.0267L19.849 17.5022C19.7173 17.7428 19.5317 17.9497 19.3067 18.1066C19.1367 18.2137 18.9375 18.2652 18.7368 18.2541C18.5362 18.2429 18.3439 18.1697 18.1867 18.0444C18.089 17.9822 18.0356 17.8578 17.9201 17.6978C17.9036 17.7512 17.8797 17.8021 17.849 17.8489C17.7161 18.0145 17.5283 18.127 17.3196 18.1661C17.1109 18.2053 16.8951 18.1684 16.7112 18.0622C16.6338 18.0255 16.5698 17.9655 16.5283 17.8905C16.4869 17.8156 16.47 17.7295 16.4801 17.6444C16.5032 17.3133 16.607 16.9929 16.7823 16.7111C16.9067 16.4711 16.8801 16.4 16.6223 16.3555C16.3645 16.3111 16.249 16.3555 16.1423 16.6222C16.0074 16.9915 15.9557 17.3861 15.9912 17.7778C15.9912 17.8933 15.9912 18.0178 15.9912 18.1778" fill="#090A03"/>
<path d="M5.7957 13.92V13.9911V12.5244H5.03126V19.4311H5.74237V18.0267V18.1156C5.79962 18.4221 5.94283 18.706 6.1553 18.9342C6.36777 19.1624 6.64074 19.3255 6.94237 19.4044H7.05793H7.67126C8.05184 19.3534 8.40011 19.1635 8.64904 18.8711C8.87516 18.6207 9.0288 18.3134 9.09348 17.9822V19.3956H9.82237V12.5244H9.12015V14C9.09249 13.9333 9.06875 13.865 9.04904 13.7956C8.95757 13.4658 8.76859 13.1713 8.50686 12.9509C8.24513 12.7304 7.92288 12.5941 7.58237 12.56H7.48459H7.37793H7.28015C7.20038 12.5514 7.11992 12.5514 7.04015 12.56C6.73087 12.6388 6.45007 12.8032 6.22996 13.0343C6.00985 13.2654 5.85934 13.5539 5.7957 13.8667M10.1246 19.6889H4.79126V12.2667H10.1246V19.6889Z" fill="#151611"/>
<path d="M11.5556 16.3733V16.1333H11.3423V15.6089H11.929V15.84H12.1423V16.3644L11.5556 16.3733Z" fill="#151607"/>
<path d="M26.3291 15.6978L26.5335 15.5556L26.4269 15.36L26.8891 15.0845L27.2002 15.6L26.9958 15.7334L27.1024 15.9378L26.6402 16.2134L26.3291 15.6978Z" fill="#0F1004"/>
<path d="M24.5334 15.1111C24.4691 15.2769 24.3918 15.4374 24.3023 15.5911C24.2858 15.6202 24.2636 15.6456 24.237 15.6658C24.2105 15.6861 24.1802 15.7008 24.1478 15.7091C24.1155 15.7174 24.0818 15.7191 24.0488 15.7141C24.0157 15.7091 23.9841 15.6975 23.9556 15.68C23.8868 15.6539 23.8303 15.6028 23.7973 15.537C23.7644 15.4711 23.7574 15.3952 23.7779 15.3245C23.8323 15.1604 23.9038 15.0025 23.9912 14.8534C24.0166 14.7961 24.0633 14.7511 24.1214 14.7279C24.1795 14.7046 24.2445 14.705 24.3023 14.7289C24.385 14.798 24.4491 14.8866 24.489 14.9867C24.4934 15.0221 24.4934 15.0579 24.489 15.0934H24.5334" fill="#0D0E03"/>
<path d="M13.769 15.9111C13.8708 15.465 14.0449 15.0386 14.2846 14.6489C14.4419 14.4018 14.6716 14.2094 14.9424 14.0978C15.0289 14.0433 15.129 14.0144 15.2313 14.0144C15.3335 14.0144 15.4336 14.0433 15.5202 14.0978C15.619 14.1672 15.6959 14.2636 15.7416 14.3755C15.7873 14.4874 15.7999 14.61 15.7779 14.7289C15.7364 14.9974 15.5971 15.2412 15.3868 15.4133C14.9962 15.747 14.4959 15.9243 13.9824 15.9111C13.9114 15.9176 13.84 15.9176 13.769 15.9111Z" fill="#F8EB22"/>
<path d="M19.0935 16.2578C19.0871 16.3937 19.1219 16.5283 19.1932 16.6441C19.2646 16.7598 19.3693 16.8514 19.4935 16.9067C19.5209 16.9175 19.5455 16.9344 19.5655 16.9561C19.5855 16.9778 19.6003 17.0037 19.6088 17.0319C19.6174 17.0601 19.6195 17.0899 19.6149 17.119C19.6103 17.1481 19.5992 17.1758 19.5824 17.2C19.5216 17.3425 19.4125 17.459 19.2743 17.5289C19.1361 17.5988 18.9776 17.6177 18.8268 17.5823C18.6757 17.5823 18.6224 17.4311 18.5691 17.3067C18.5304 17.2036 18.5134 17.0937 18.5192 16.9838C18.5249 16.8739 18.5533 16.7663 18.6025 16.6679C18.6517 16.5694 18.7208 16.4822 18.8052 16.4116C18.8897 16.3411 18.9879 16.2887 19.0935 16.2578Z" fill="#F7EA22"/>
<path d="M25.2713 16.4178C25.5202 16.4178 25.5202 16.4178 25.4935 16.6933C25.4842 16.8339 25.435 16.9688 25.3515 17.0822C25.268 17.1956 25.1538 17.2827 25.0224 17.3333C24.7646 17.4489 24.6224 17.3333 24.6402 17.0578C24.6539 16.8941 24.7246 16.7405 24.8399 16.6236C24.9552 16.5067 25.1078 16.4338 25.2713 16.4178Z" fill="#F6EA23"/>
<path d="M21.1734 17.4578C20.9245 17.4578 20.8445 17.36 20.8089 17.1378C20.7845 17.0616 20.7803 16.9805 20.7966 16.9022C20.813 16.8239 20.8494 16.7512 20.9022 16.6912C20.955 16.6312 21.0225 16.5859 21.0981 16.5598C21.1737 16.5337 21.2547 16.5277 21.3334 16.5422C21.3817 16.5439 21.4289 16.5568 21.4714 16.58C21.5138 16.6031 21.5503 16.6358 21.5779 16.6755C21.6055 16.7152 21.6235 16.7607 21.6304 16.8086C21.6374 16.8564 21.633 16.9052 21.6178 16.9511C21.5702 17.073 21.5042 17.1869 21.4223 17.2889C21.3504 17.3601 21.2661 17.4174 21.1734 17.4578Z" fill="#F4E723"/>
<path d="M7.25351 16.6578H7.18239C6.94082 16.71 6.72303 16.8399 6.56246 17.0278C6.40189 17.2157 6.3074 17.4511 6.29351 17.6978V17.7778C6.30396 18.0528 6.41612 18.3142 6.60826 18.5113C6.80039 18.7083 7.05883 18.8271 7.33351 18.8445H7.61795H7.68017C7.88667 18.789 8.07317 18.676 8.21794 18.5186C8.36272 18.3612 8.45982 18.166 8.49795 17.9556V17.8934V17.52V17.4134V17.3511C8.43135 17.1778 8.32513 17.0224 8.18777 16.8973C8.0504 16.7723 7.88571 16.6812 7.70684 16.6311H7.63573H7.25351V16.6578ZM7.25351 15.3511H7.65351H7.69795H7.76906H7.8224C7.9894 15.2889 8.13929 15.188 8.2598 15.0566C8.38031 14.9253 8.46801 14.7673 8.51573 14.5956V14.4356V14.2223C8.49356 13.984 8.39507 13.7593 8.23491 13.5815C8.07475 13.4037 7.86149 13.2824 7.62684 13.2356H7.25351H7.15573L7.11128 13.2445C6.92297 13.3151 6.75694 13.4347 6.63036 13.591C6.50378 13.7472 6.42124 13.9345 6.39128 14.1334V14.1867V14.4445C6.43237 14.6651 6.53927 14.868 6.69794 15.0267C6.8566 15.1854 7.05958 15.2923 7.28017 15.3334M7.73351 12.56C8.07402 12.5942 8.39627 12.7304 8.658 12.9509C8.91972 13.1714 9.10871 13.4658 9.20017 13.7956C9.21988 13.8651 9.24363 13.9333 9.27128 14V14.5245C9.24528 14.5909 9.22448 14.6593 9.20906 14.7289C9.12905 15.0463 8.96035 15.3344 8.72267 15.5595C8.48498 15.7846 8.18814 15.9374 7.86684 16H7.11128C6.76612 15.9312 6.45352 15.7499 6.22239 15.4845C5.99628 15.2328 5.83999 14.9264 5.76906 14.5956V17.6178V17.4934C5.81601 17.1637 5.96041 16.8555 6.18373 16.6084C6.40704 16.3613 6.69909 16.1866 7.0224 16.1067H7.17351L7.62684 16H7.69795H7.76906H7.89351C7.99688 16.0276 8.09793 16.0633 8.19573 16.1067C8.42172 16.2171 8.61937 16.3779 8.77347 16.5767C8.92757 16.7755 9.03401 17.007 9.08462 17.2534V17.3778V17.8756C9.01994 18.2067 8.86629 18.514 8.64017 18.7645C8.39124 19.0568 8.04298 19.2468 7.66239 19.2978H7.16462H7.04906C6.75505 19.2359 6.48361 19.0947 6.26422 18.8894C6.04483 18.6841 5.88588 18.4226 5.80462 18.1334V18.0445V19.4489H5.09351V12.5245H5.79573V14.0267V13.9556C5.85937 13.6428 6.00988 13.3544 6.22999 13.1232C6.4501 12.8921 6.7309 12.7277 7.04017 12.6489C7.11994 12.6403 7.2004 12.6403 7.28017 12.6489H7.37795H7.57351H7.67128" fill="#FEFEFD"/>
<path d="M9.20904 14.5422V12.5422H9.91126V19.4489H9.18237V17.52C9.18237 16.5245 9.18237 15.5289 9.18237 14.5422" fill="#F9F9F9"/>
<path d="M8.54234 18C8.50421 18.2104 8.4071 18.4057 8.26233 18.563C8.11755 18.7204 7.93106 18.8334 7.72456 18.8889H7.66234H7.37789C7.0957 18.8708 6.83103 18.7458 6.6378 18.5394C6.44457 18.3329 6.33731 18.0606 6.33789 17.7778V17.68C6.35179 17.4333 6.44627 17.1979 6.60685 17.01C6.76742 16.8222 6.98521 16.6922 7.22678 16.64H7.29789H7.69789H7.769C7.94787 16.69 8.11257 16.7812 8.24993 16.9062C8.38729 17.0312 8.49352 17.1866 8.56012 17.36V17.4222V17.5289V17.8756V17.9378" fill="#060707"/>
<path d="M8.55117 14.3734V14.5334C8.50345 14.7051 8.41575 14.8631 8.29524 14.9944C8.17473 15.1257 8.02484 15.2267 7.85784 15.2889H7.8045H7.69784H7.65339H7.25339C7.0328 15.2478 6.82982 15.1409 6.67116 14.9823C6.51249 14.8236 6.40559 14.6206 6.3645 14.4V14.2223V14.1689C6.39446 13.9701 6.477 13.7828 6.60358 13.6265C6.73016 13.4703 6.89619 13.3506 7.0845 13.28H7.15561H7.25339H7.66228C7.89693 13.3269 8.1102 13.4482 8.27035 13.626C8.43051 13.8037 8.529 14.0284 8.55117 14.2667V14.4534" fill="#050707"/>
<path d="M7.11115 16H7.25338L7.19115 16.0889H7.04004C6.73658 16.1678 6.46145 16.3306 6.24611 16.5585C6.03076 16.7864 5.88388 17.0703 5.82227 17.3778V17.5022V14.48C5.89319 14.8108 6.04948 15.1172 6.2756 15.3689C6.47493 15.6675 6.76941 15.8899 7.11115 16Z" fill="#0D0D0E"/>
<path d="M9.209 14.5422C9.209 15.5289 9.209 16.5245 9.209 17.52V17.3956C9.1584 17.1492 9.05195 16.9177 8.89785 16.7189C8.74375 16.5201 8.5461 16.3593 8.32011 16.2489C8.22231 16.2055 8.12126 16.1698 8.01789 16.1422H7.89344H7.82233H7.75122H7.92011C8.22238 16.0743 8.50077 15.9262 8.72601 15.7135C8.95125 15.5007 9.11502 15.2312 9.20011 14.9333C9.21553 14.8637 9.23633 14.7953 9.26233 14.7289" fill="#090A0A"/>
<path d="M7.66226 16L7.2356 16.0534L7.29782 15.9645H7.69782" fill="#FAFAFA"/>
<path d="M7.15577 13.2178L7.11133 13.2444H7.18244" fill="#FAFAFA"/>
</g>
<defs>
<clipPath id="clip0_2707_285888">
<rect width="32" height="32" fill="white"/>
</clipPath>
</defs>
</svg>
