<svg width="32" height="32" viewBox="0 0 32 32" fill="none" xmlns="http://www.w3.org/2000/svg">
<g clip-path="url(#clip0_2707_285448)">
<path d="M16 31.9822C24.8268 31.9822 31.9823 24.8268 31.9823 16C31.9823 7.17328 24.8268 0.0177917 16 0.0177917C7.17331 0.0177917 0.0178223 7.17328 0.0178223 16C0.0178223 24.8268 7.17331 31.9822 16 31.9822Z" fill="white"/>
<path d="M18.4534 7.71556C18.7035 7.4243 19.0346 7.21392 19.4045 7.11111L19.6445 7.01334H20.3823C20.3823 7.01334 20.3823 7.05778 20.4356 7.05778C20.7783 7.10933 21.1092 7.22065 21.4134 7.38667L21.8045 7.58222L22.4711 8.09778C22.4912 8.10528 22.5133 8.10528 22.5334 8.09778C22.6026 8.18773 22.6768 8.27379 22.7556 8.35556C22.834 8.44579 22.917 8.53184 23.0045 8.61334L22.2667 9.12L21.7511 8.66667L21.0223 8.12445C20.5913 7.80556 20.0868 7.6007 19.5556 7.52889C19.2529 7.50134 18.948 7.54707 18.6667 7.66223L18.48 7.73334" fill="#99CA43"/>
<path d="M22.5333 8.08001C22.5133 8.0875 22.4912 8.0875 22.4711 8.08001L21.8044 7.56445C22.2 7.29927 22.644 7.11499 23.1111 7.02223C23.1111 7.02223 23.1111 7.02223 23.1644 6.97778H23.7067C23.7444 7.0016 23.7869 7.01677 23.8311 7.02223C24.3026 7.10658 24.7317 7.34777 25.0489 7.70667C25.0723 7.73914 25.0903 7.77516 25.1022 7.81334C24.7202 7.62386 24.2943 7.5404 23.869 7.57167C23.4437 7.60294 23.0346 7.7478 22.6844 7.99112L22.5067 8.08001" fill="#2B6168"/>
<path d="M17.3689 8.88889C17.4411 8.79308 17.5182 8.7011 17.6 8.61333C17.8674 8.3899 18.1853 8.23507 18.526 8.16226C18.8668 8.08946 19.2202 8.10089 19.5556 8.19555C19.8094 8.28019 20.0586 8.37811 20.3022 8.48889L20.5245 8.58666L21.2622 9.11111L21.7511 9.55555L22.3556 10.1956L22.6845 10.6756C23.0301 11.134 23.2809 11.6568 23.4222 12.2133C23.5166 12.5654 23.5247 12.9351 23.4458 13.291C23.3669 13.6469 23.2033 13.9786 22.9689 14.2578C22.909 14.3234 22.8402 14.3803 22.7645 14.4267C22.6845 14.4267 22.7645 14.3467 22.7645 14.3111C22.9112 14.0392 22.9731 13.7296 22.9422 13.4222C22.9347 13.2432 22.9139 13.0649 22.88 12.8889C22.6785 12.1551 22.307 11.479 21.7956 10.9156C21.7665 10.8897 21.7335 10.8687 21.6978 10.8533C21.6678 10.7862 21.629 10.7234 21.5822 10.6667L21.1022 10.1867L20.6311 9.77777L19.9289 9.23555C19.6927 9.05889 19.4282 8.92363 19.1467 8.83555L19.0133 8.78222C18.7613 8.6819 18.4911 8.63561 18.2201 8.64632C17.949 8.65704 17.6833 8.72454 17.44 8.84444C17.44 8.84444 17.3956 8.84444 17.3689 8.84444" fill="#99CA43"/>
<path d="M8.39114 17.7778H7.67114L8.77336 15.1111H9.19114C9.55559 15.9556 9.92892 16.8089 10.2934 17.6622V15.1111H10.9156V17.1644H12.0889V17.7778H9.57337L9.3867 17.3511H8.80003C8.84301 17.2167 8.90274 17.0883 8.97781 16.9689H9.25336L8.97781 16.1689C8.75158 16.6935 8.55571 17.2307 8.39114 17.7778Z" fill="#2B6168"/>
<path d="M15.0489 17.7778H14.4623V16.2222L13.7778 17.1911L13.1556 16.3022V17.7778H12.5778C12.5288 16.8896 12.5288 15.9993 12.5778 15.1111H13.04L13.8134 16.2756C14.0534 15.8756 14.2934 15.4933 14.5423 15.1022H15.0667L15.0489 17.7778Z" fill="#286067"/>
<path d="M8.089 23.04L7.529 23.2889C7.49304 23.2237 7.44817 23.1639 7.39567 23.1111C7.2943 23.0037 7.15757 22.9364 7.0106 22.9218C6.86364 22.9071 6.7163 22.9459 6.59567 23.0311C6.43975 23.1331 6.31982 23.2815 6.25283 23.4554C6.18583 23.6292 6.17517 23.8198 6.22233 24C6.24209 24.1395 6.30498 24.2694 6.40221 24.3714C6.49944 24.4734 6.62613 24.5425 6.76456 24.5689C6.87843 24.6076 6.99933 24.6214 7.11899 24.6091C7.23865 24.5968 7.35425 24.5588 7.45789 24.4978V24.2044H6.889V23.6711H8.10678C8.10678 23.8756 8.10678 24.08 8.10678 24.2756V24.8889C7.73258 25.0806 7.31834 25.1811 6.89789 25.1822C6.69846 25.1752 6.50303 25.1244 6.32544 25.0334C6.14785 24.9424 5.99247 24.8134 5.87031 24.6556C5.74815 24.4978 5.66221 24.3151 5.61859 24.1204C5.57497 23.9257 5.57473 23.7237 5.61789 23.5289C5.68225 23.1756 5.87547 22.8589 6.16011 22.64C6.41393 22.4705 6.71713 22.3906 7.02152 22.4132C7.32591 22.4357 7.61404 22.5594 7.84011 22.7644C7.92759 22.8715 8.00777 22.9844 8.08011 23.1022" fill="#99CA43"/>
<path d="M13.2711 23.7422C13.2757 23.6682 13.2757 23.594 13.2711 23.52C13.2576 23.3752 13.1945 23.2394 13.0925 23.1358C12.9904 23.0321 12.8557 22.9669 12.7111 22.9511C12.5671 22.9175 12.4159 22.9335 12.282 22.9964C12.1482 23.0593 12.0394 23.1655 11.9733 23.2978C11.8991 23.4438 11.8605 23.6052 11.8605 23.7689C11.8605 23.9326 11.8991 24.094 11.9733 24.24C12.0317 24.3456 12.1174 24.4336 12.2213 24.4949C12.3253 24.5562 12.4438 24.5885 12.5644 24.5885C12.6851 24.5885 12.8036 24.5562 12.9075 24.4949C13.0115 24.4336 13.0971 24.3456 13.1555 24.24C13.2053 24.0883 13.2468 23.934 13.28 23.7778M12.3911 22.3822C12.5689 22.3639 12.7485 22.3813 12.9195 22.4333C13.0905 22.4853 13.2494 22.571 13.3869 22.6852C13.5243 22.7995 13.6375 22.9401 13.7199 23.0987C13.8023 23.2573 13.8522 23.4308 13.8666 23.6089C13.9012 23.8462 13.8745 24.0885 13.7889 24.3126C13.7033 24.5366 13.5618 24.7351 13.3778 24.8889C13.2351 25.0123 13.0669 25.1027 12.8853 25.1536C12.7036 25.2045 12.5129 25.2145 12.3269 25.1831C12.1409 25.1517 11.9642 25.0795 11.8093 24.9718C11.6544 24.8641 11.5253 24.7235 11.4311 24.56C11.2721 24.3219 11.1873 24.0419 11.1873 23.7556C11.1873 23.4692 11.2721 23.1893 11.4311 22.9511C11.5271 22.7965 11.657 22.6657 11.811 22.5687C11.965 22.4717 12.1391 22.4109 12.32 22.3911" fill="#99CA43"/>
<path d="M11.0846 19.9733C11.2622 19.9822 11.4402 19.9822 11.6179 19.9733C11.6847 19.971 11.748 19.9429 11.7945 19.8948C11.8409 19.8467 11.8668 19.7824 11.8668 19.7156C11.8668 19.52 11.8668 19.3956 11.689 19.36C11.4917 19.3022 11.2819 19.3022 11.0846 19.36V19.5556C11.0846 19.6978 11.0846 19.84 11.0846 20.0089M12.7912 21.4756H12.009C11.7957 21.1822 11.5823 20.8711 11.3601 20.5867H11.0935V21.4756H10.489V18.8089C10.9157 18.8089 11.3779 18.8089 11.769 18.8089C11.9449 18.8303 12.1088 18.9089 12.2357 19.0326C12.3625 19.1562 12.4453 19.3181 12.4712 19.4933C12.5001 19.6553 12.48 19.8221 12.4134 19.9725C12.3469 20.123 12.2371 20.2501 12.0979 20.3378L12.0357 20.4L12.7912 21.4133" fill="#286067"/>
<path d="M9.31563 23.6711C9.50229 23.6711 9.68007 23.6711 9.85785 23.6711C10.0356 23.6711 10.089 23.5645 10.089 23.3867C10.089 23.2089 10.089 23.0845 9.88451 23.0489C9.69805 22.9999 9.50209 22.9999 9.31563 23.0489V23.6711ZM11.0934 25.1378H10.2756C10.0623 24.8445 9.84896 24.5245 9.62674 24.2489H9.34229V25.1378H8.71118V22.4711C9.14674 22.4711 9.60007 22.4711 10.009 22.4711C10.1861 22.4961 10.3498 22.5796 10.4739 22.7086C10.598 22.8375 10.6753 23.0042 10.6934 23.1822C10.7156 23.3431 10.6904 23.507 10.621 23.6538C10.5515 23.8006 10.4408 23.924 10.3023 24.0089L10.249 24.0534L11.0578 25.1022" fill="#99CA43"/>
<path d="M19.209 18.8089H19.8045V19.8311H20.8001C20.8001 19.4845 20.8001 19.1556 20.8001 18.8089H21.3868V21.4756H20.8001V20.4445H19.8045V21.4667H19.209V18.8089Z" fill="#286067"/>
<path d="M15.6533 20.6489L16.2044 20.4889C16.2284 20.5224 16.2493 20.5581 16.2667 20.5955C16.3462 20.7256 16.4725 20.8202 16.6197 20.8599C16.7669 20.8996 16.9236 20.8813 17.0578 20.8089C17.0975 20.7941 17.1317 20.7674 17.1556 20.7324C17.1795 20.6973 17.1919 20.6557 17.1911 20.6133C17.1885 20.5763 17.1755 20.5407 17.1534 20.5108C17.1314 20.4809 17.1013 20.4579 17.0667 20.4444L16.6844 20.3022C16.4978 20.2398 16.3165 20.1625 16.1422 20.0711C16.0255 20.0155 15.927 19.9279 15.858 19.8186C15.789 19.7092 15.7524 19.5826 15.7524 19.4533C15.7524 19.324 15.789 19.1974 15.858 19.0881C15.927 18.9788 16.0255 18.8912 16.1422 18.8355C16.3068 18.7345 16.4945 18.6773 16.6875 18.6695C16.8805 18.6617 17.0723 18.7036 17.2444 18.7911C17.4159 18.8523 17.569 18.9563 17.6889 19.0933L17.3778 19.4578C17.1985 19.3757 17.0144 19.3045 16.8267 19.2444C16.7337 19.2178 16.6351 19.2178 16.5422 19.2444C16.3911 19.3067 16.3733 19.4489 16.5422 19.5555C16.6017 19.5985 16.6677 19.6316 16.7378 19.6533L17.1733 19.7955C17.3804 19.859 17.5673 19.9755 17.7155 20.1333C17.8198 20.2442 17.8835 20.3871 17.8964 20.5387C17.9093 20.6904 17.8707 20.842 17.7867 20.9689C17.6577 21.1553 17.4771 21.3 17.2671 21.3852C17.0571 21.4705 16.8268 21.4926 16.6044 21.4489C16.3944 21.4202 16.1977 21.3297 16.0394 21.1888C15.8811 21.0479 15.7683 20.863 15.7155 20.6578" fill="#2B6168"/>
<path d="M5.60005 20.6578L6.16005 20.4889L6.23116 20.6044C6.31513 20.732 6.44365 20.8236 6.59161 20.8614C6.73956 20.8993 6.8963 20.8805 7.03116 20.8089C7.06992 20.7942 7.10329 20.768 7.12683 20.7339C7.15038 20.6997 7.16299 20.6592 7.16299 20.6178C7.16299 20.5763 7.15038 20.5358 7.12683 20.5017C7.10329 20.4676 7.06992 20.4414 7.03116 20.4267C6.89783 20.3555 6.74672 20.3289 6.61339 20.2667C6.40516 20.1937 6.20547 20.0983 6.01783 19.9822C5.92427 19.9218 5.84734 19.8389 5.79407 19.741C5.7408 19.6432 5.71289 19.5336 5.71289 19.4222C5.71289 19.3108 5.7408 19.2012 5.79407 19.1034C5.84734 19.0056 5.92427 18.9227 6.01783 18.8622C6.23906 18.7116 6.50295 18.6363 6.77036 18.6475C7.03776 18.6587 7.29443 18.7558 7.50227 18.9244L7.68894 19.0844L7.49339 19.28C7.44164 19.3379 7.38515 19.3915 7.3245 19.44C7.16372 19.3549 6.99742 19.2806 6.82672 19.2178C6.72469 19.1914 6.61764 19.1914 6.51561 19.2178C6.48408 19.2323 6.45593 19.2532 6.43296 19.2792C6.41 19.3052 6.39274 19.3358 6.38227 19.3689C6.38398 19.404 6.39367 19.4383 6.41061 19.4691C6.42756 19.4999 6.45131 19.5264 6.48005 19.5467C6.57887 19.6017 6.68313 19.6464 6.79116 19.68C7.02167 19.7577 7.24478 19.8559 7.45783 19.9733C7.56286 20.0354 7.6499 20.1238 7.71036 20.2298C7.77082 20.3358 7.80261 20.4557 7.80261 20.5778C7.80261 20.6998 7.77082 20.8197 7.71036 20.9257C7.6499 21.0317 7.56286 21.1201 7.45783 21.1822C7.32423 21.287 7.17018 21.3628 7.00557 21.4045C6.84097 21.4463 6.66945 21.4531 6.50203 21.4247C6.33462 21.3962 6.175 21.3331 6.03345 21.2393C5.89189 21.1455 5.77151 21.0231 5.68005 20.88C5.68005 20.8089 5.61783 20.7289 5.58228 20.6489" fill="#2B6168"/>
<path d="M15.9024 22.5067H16.5246C16.529 22.5688 16.529 22.6312 16.5246 22.6934C16.5246 23.1378 16.5246 23.5822 16.5246 24.0178C16.5401 24.216 16.497 24.4144 16.4005 24.5882C16.3041 24.7621 16.1587 24.9038 15.9824 24.9956C15.8076 25.1043 15.606 25.1619 15.4002 25.1619C15.1944 25.1619 14.9927 25.1043 14.8179 24.9956C14.658 24.9099 14.525 24.7813 14.434 24.6243C14.3429 24.4673 14.2974 24.2881 14.3024 24.1067V22.5067H14.9157C14.9201 22.5688 14.9201 22.6312 14.9157 22.6934V23.92C14.9157 24.0089 14.9157 24.1067 14.9157 24.1956C14.937 24.3053 14.9974 24.4036 15.0857 24.4723C15.1739 24.5409 15.2841 24.5753 15.3957 24.5689C15.5064 24.5719 15.6143 24.5335 15.6981 24.4611C15.782 24.3888 15.8358 24.2877 15.849 24.1778C15.8579 24.098 15.8579 24.0175 15.849 23.9378V22.5067" fill="#99CA43"/>
<path d="M10.0001 18.8089L9.53784 19.3867H8.76451V19.84H9.83118L9.36896 20.4267H8.76451V20.8622H10.0356C9.87562 21.0756 9.7334 21.2622 9.58229 21.4489H8.12451V18.7822L10.0001 18.8089Z" fill="#286067"/>
<path d="M12.7913 21.44C12.9068 21.44 12.9068 21.3245 12.9335 21.2622C13.1557 20.7378 13.369 20.2222 13.5824 19.6978C13.7068 19.4133 13.8224 19.1289 13.9468 18.8089H14.3735L15.5024 21.4311H14.7468L14.5601 21.0133H13.9468L14.1424 20.64H14.4268L14.1424 19.84H14.089L13.5557 21.4667L12.7913 21.44Z" fill="#2B6168"/>
<path d="M16.6046 16.0978L16.0712 17.7778H15.3601C15.7246 16.8889 16.089 16 16.4623 15.1111H16.889L18.0179 17.7778H17.2623L17.0668 17.3511H16.4534L16.6668 16.9689H16.9423L16.6401 16.1422" fill="#2B6168"/>
<path d="M6.35557 16.24C6.56375 16.2394 6.77164 16.2246 6.97779 16.1956C7.04772 16.1866 7.11158 16.1513 7.15623 16.0967C7.20087 16.0421 7.2229 15.9725 7.21779 15.9022C7.21327 15.8346 7.18319 15.7713 7.13367 15.7251C7.08414 15.6788 7.01887 15.6532 6.95112 15.6533C6.75557 15.6533 6.56001 15.6533 6.35557 15.6533V16.24ZM6.35557 16.8356V17.7244C6.15744 17.7421 5.95813 17.7421 5.76001 17.7244V15.1111C6.21334 15.1111 6.6489 15.1111 7.10223 15.1111C7.29261 15.1284 7.47007 15.2148 7.60109 15.354C7.7321 15.4932 7.80761 15.6756 7.81334 15.8667C7.81794 16.0734 7.75034 16.2752 7.62217 16.4375C7.494 16.5997 7.31328 16.7122 7.11112 16.7556C6.86066 16.7906 6.60839 16.8114 6.35557 16.8178" fill="#286067"/>
<path d="M17.6001 23.0311V23.6356C17.8223 23.6356 18.0268 23.6356 18.2223 23.5822C18.2914 23.5693 18.3532 23.5312 18.3958 23.4754C18.4385 23.4196 18.459 23.35 18.4534 23.28C18.4468 23.214 18.4158 23.1528 18.3665 23.1085C18.3172 23.0641 18.2531 23.0397 18.1868 23.04C17.9912 23.04 17.7956 23.04 17.6001 23.04M17.6001 25.1556H17.0134V22.4889H17.1912H18.2312C18.3654 22.494 18.4967 22.5294 18.6153 22.5925C18.7338 22.6557 18.8365 22.7448 18.9157 22.8533C18.9845 22.9717 19.0251 23.1044 19.0342 23.241C19.0434 23.3777 19.0208 23.5146 18.9683 23.641C18.9159 23.7675 18.8349 23.8802 18.7317 23.9702C18.6285 24.0602 18.5059 24.1252 18.3734 24.16C18.2382 24.1836 18.1016 24.1984 17.9645 24.2044H17.6001V25.1556Z" fill="#99CA43"/>
<path d="M22.3911 10.1956L21.7866 9.55556L22.2666 9.10223L23.0044 8.59556C23.3066 8.47112 23.6 8.32001 23.8933 8.22223C24.2457 8.10632 24.6223 8.08471 24.9857 8.15957C25.3491 8.23443 25.6865 8.40313 25.9644 8.6489C26.0455 8.72532 26.1198 8.80859 26.1866 8.89779L26 8.83556C25.5047 8.6311 24.9486 8.6311 24.4533 8.83556C24.1317 8.92217 23.8299 9.07007 23.5644 9.27112C23.298 9.39895 23.0547 9.57017 22.8444 9.77779L22.3466 10.1956" fill="#2B6168"/>
<path d="M21.1378 10.2311L21.6178 10.7111C21.6645 10.7679 21.7034 10.8306 21.7333 10.8978C21.3831 11.2973 21.0844 11.7393 20.8444 12.2133C20.6445 12.5696 20.5346 12.9694 20.5244 13.3778C20.4934 13.6492 20.53 13.924 20.6311 14.1778C20.6311 14.2667 20.6933 14.3733 20.7289 14.4711C20.5174 14.2964 20.3425 14.0816 20.2144 13.839C20.0862 13.5965 20.0073 13.331 19.9822 13.0578C19.9362 12.3823 20.1143 11.7106 20.4889 11.1467C20.6844 10.8267 20.9156 10.5333 21.1378 10.2578" fill="#2B6168"/>
<path d="M19.929 9.23557L20.6312 9.77779C20.1717 10.2798 19.8073 10.8611 19.5556 11.4933C19.4371 11.7769 19.382 12.083 19.3943 12.3901C19.4066 12.6972 19.4859 12.9979 19.6268 13.2711C19.6268 13.2711 19.6268 13.2711 19.6268 13.3422C19.5756 13.3053 19.528 13.2636 19.4845 13.2178C19.2011 12.9186 19.0043 12.548 18.9151 12.1457C18.8258 11.7433 18.8475 11.3243 18.9779 10.9333C19.1752 10.3082 19.4989 9.73032 19.929 9.23557Z" fill="#2B6168"/>
<path d="M22.8889 9.77778C23.0992 9.57017 23.3425 9.39895 23.6089 9.27112C24.095 9.81731 24.4345 10.4779 24.5956 11.1911C24.6944 11.5741 24.6852 11.977 24.5691 12.3551C24.453 12.7332 24.2345 13.0718 23.9378 13.3333C24.0611 13.0314 24.1245 12.7084 24.1245 12.3822C24.1039 11.8348 23.9349 11.3033 23.6356 10.8445C23.4222 10.4978 23.1645 10.1778 22.9245 9.8489" fill="#99CA43"/>
<path d="M20.7289 14.4711C20.7289 14.3733 20.6666 14.2667 20.6311 14.1778C20.53 13.924 20.4933 13.6492 20.5244 13.3778L20.8089 13.6444C20.9785 13.8037 21.1853 13.9181 21.4104 13.9771C21.6355 14.0361 21.8718 14.0378 22.0977 13.9822C22.4406 13.9074 22.7515 13.7271 22.9866 13.4667C23.0175 13.7741 22.9556 14.0837 22.8089 14.3556C22.8089 14.3556 22.7289 14.4356 22.8089 14.4711C22.7505 14.5965 22.6498 14.6972 22.5244 14.7556C22.3014 14.8843 22.0485 14.9521 21.7911 14.9521C21.5336 14.9521 21.2807 14.8843 21.0577 14.7556C20.9625 14.6985 20.8705 14.6362 20.7822 14.5689L20.7289 14.5156V14.4711Z" fill="#42BFBF"/>
<path d="M17.3689 8.8889C17.3689 8.8889 17.4223 8.8889 17.4401 8.8889C17.6834 8.769 17.9491 8.7015 18.2201 8.69078C18.4911 8.68007 18.7614 8.72636 19.0134 8.82668L19.1467 8.88001C18.9438 8.88221 18.7414 8.90304 18.5423 8.94223C18.2404 9.03858 17.9838 9.24135 17.8203 9.5128C17.6567 9.78425 17.5974 10.1059 17.6534 10.4178C17.7429 10.8594 17.918 11.2791 18.1689 11.6533C18.2163 11.7257 18.255 11.8032 18.2845 11.8845C17.7073 11.3381 17.3052 10.6328 17.1289 9.85779C17.0892 9.68884 17.0902 9.51284 17.1319 9.34436C17.1737 9.17588 17.2549 9.01975 17.3689 8.8889Z" fill="#42BFBF"/>
<path d="M24.4622 8.83557C24.9574 8.63111 25.5135 8.63111 26.0088 8.83557L26.1955 8.89779C26.2967 9.05555 26.364 9.23264 26.3931 9.4178C26.4221 9.60297 26.4124 9.79216 26.3644 9.97334C26.2312 10.4872 25.9886 10.9663 25.6533 11.3778C25.5565 11.5188 25.4496 11.6524 25.3333 11.7778C25.3333 11.8222 25.2444 11.84 25.1644 11.8933C25.3333 11.5822 25.4933 11.3245 25.6266 11.0578C25.7655 10.7816 25.8414 10.478 25.8488 10.1689C25.849 9.83698 25.7203 9.51797 25.4898 9.27916C25.2593 9.04035 24.945 8.90042 24.6133 8.8889H24.4622" fill="#42BFBF"/>
<path d="M18.7377 18.8089H18.1777V21.4489H18.7377V18.8089Z" fill="#286067"/>
<path d="M21.3335 9.1111L20.5957 8.58666L21.0579 8.10666L21.7868 8.64888L21.3335 9.1111Z" fill="#286067"/>
<path d="M23.9379 13.3333H23.8845V13.28" fill="#99CA43"/>
<path d="M20.72 14.4622L20.7733 14.5156L20.72 14.4622Z" fill="#2B6168"/>
</g>
<defs>
<clipPath id="clip0_2707_285448">
<rect width="32" height="32" fill="white"/>
</clipPath>
</defs>
</svg>
