<svg width="32" height="32" viewBox="0 0 32 32" fill="none" xmlns="http://www.w3.org/2000/svg">
<g clip-path="url(#clip0_2707_285403)">
<mask id="mask0_2707_285403" style="mask-type:luminance" maskUnits="userSpaceOnUse" x="0" y="0" width="32" height="32">
<path d="M31.986 0.0200195H0.015625V31.9904H31.986V0.0200195Z" fill="white"/>
</mask>
<g mask="url(#mask0_2707_285403)">
<path d="M16.0008 31.9904C24.8292 31.9904 31.986 24.8336 31.986 16.0052C31.986 7.17684 24.8292 0.0200195 16.0008 0.0200195C7.17244 0.0200195 0.015625 7.17684 0.015625 16.0052C0.015625 24.8336 7.17244 31.9904 16.0008 31.9904Z" fill="white"/>
<path d="M12.3817 23.2625C12.3817 23.0993 12.3812 22.936 12.3819 22.7728C12.3827 22.6091 12.4393 22.4648 12.5442 22.3409C12.5937 22.2827 12.6447 22.2216 12.7068 22.179C12.8851 22.0573 13.074 21.956 13.2999 21.9626C13.4141 21.966 13.5313 21.9589 13.6416 21.9825C13.7659 22.009 13.8853 22.0611 14.0038 22.1096C14.0526 22.1296 14.0916 22.1719 14.138 22.1991C14.235 22.2558 14.2805 22.3556 14.3341 22.4439C14.3819 22.5227 14.4123 22.6157 14.4111 22.7131C14.4103 22.7762 14.4081 22.8392 14.4098 22.9021C14.4127 23.0049 14.4207 23.1076 14.4219 23.2104C14.4228 23.2874 14.4153 23.3644 14.4138 23.4415C14.4124 23.5071 14.4081 23.5736 14.4161 23.6383C14.4284 23.7369 14.413 23.8325 14.392 23.9263C14.3517 24.1053 14.2307 24.2227 14.0781 24.3133C14.0391 24.3365 14.0068 24.3711 13.967 24.3924C13.8681 24.4454 13.7639 24.4841 13.6502 24.492C13.6133 24.4946 13.5764 24.5013 13.5402 24.5089C13.3905 24.5401 13.2438 24.5109 13.098 24.4842C12.9646 24.4598 12.8419 24.4032 12.7274 24.3313C12.692 24.309 12.6628 24.2759 12.6341 24.2447C12.584 24.1904 12.5373 24.1329 12.4875 24.0783C12.4075 23.9903 12.3843 23.8822 12.3819 23.7693C12.3783 23.6004 12.381 23.4314 12.381 23.2625H12.3817ZM20.6633 23.7289C20.6669 23.8631 20.7425 23.9511 20.8599 24.0045C20.9055 24.0253 20.9578 24.0387 21.0078 24.0414C21.1134 24.047 21.2198 24.0481 21.3254 24.0422C21.4266 24.0364 21.5036 23.9845 21.547 23.8902C21.6105 23.7522 21.5496 23.663 21.4378 23.5968C21.39 23.5685 21.3314 23.5569 21.2765 23.5421C21.0671 23.4852 20.8557 23.435 20.6482 23.3722C20.5591 23.3452 20.4776 23.2932 20.3926 23.2528C20.2991 23.2083 20.2577 23.117 20.2004 23.0398C20.1447 22.9647 20.1332 22.8784 20.1356 22.7883C20.1362 22.7654 20.1376 22.7423 20.1354 22.7196C20.1111 22.4672 20.2267 22.2835 20.4265 22.148C20.6197 22.0171 20.8339 21.947 21.0709 21.9608C21.0994 21.9625 21.1281 21.9599 21.1567 21.9602C21.2105 21.9607 21.2658 21.954 21.3176 21.9642C21.458 21.9919 21.5922 22.0364 21.7197 22.1058C21.8316 22.1668 21.9183 22.2494 21.9896 22.3513C22.0614 22.4541 22.0869 22.5699 22.0732 22.6937C22.0677 22.7438 22.0407 22.7706 21.9866 22.7719C21.8693 22.7749 21.7518 22.7736 21.6344 22.7714C21.5955 22.7708 21.5632 22.7522 21.5434 22.716C21.5324 22.6959 21.5152 22.6781 21.5088 22.6568C21.4681 22.521 21.3507 22.487 21.2362 22.4491C21.2012 22.4375 21.1655 22.4274 21.1295 22.419C21.1075 22.414 21.0822 22.4064 21.0623 22.4125C20.9836 22.4366 20.9041 22.4604 20.8293 22.4941C20.7359 22.5363 20.7085 22.6214 20.7183 22.7162C20.7276 22.8064 20.7889 22.8611 20.8648 22.9032C21.0323 22.996 21.2187 23.0327 21.4008 23.0783C21.5775 23.1226 21.7477 23.1822 21.8987 23.2807C22.0258 23.3636 22.1159 23.4819 22.1279 23.644C22.1386 23.7884 22.1302 23.9306 22.0726 24.0652C22.0328 24.1583 21.9718 24.2418 21.8888 24.2974C21.7755 24.3734 21.6499 24.424 21.5162 24.4629C21.335 24.5158 21.1539 24.5082 20.9713 24.5064C20.9264 24.5059 20.8814 24.4912 20.8368 24.4814C20.8146 24.4765 20.7934 24.4628 20.7713 24.4614C20.6497 24.4541 20.545 24.396 20.4476 24.3352C20.2423 24.207 20.0957 24.0346 20.0987 23.773C20.0995 23.7005 20.1206 23.6748 20.1919 23.6665C20.206 23.6649 20.2205 23.6655 20.2348 23.6655C20.3264 23.666 20.4182 23.6695 20.5097 23.6661C20.5679 23.664 20.617 23.6756 20.6633 23.7289ZM9.8678 22.0389C9.91576 22.0289 9.9509 22.015 9.9858 22.0155C10.3322 22.0203 10.6788 22.0224 11.0249 22.0372C11.1223 22.0413 11.2185 22.0827 11.3143 22.1105C11.3552 22.1224 11.3943 22.1416 11.4328 22.1603C11.5912 22.237 11.6942 22.3649 11.7741 22.5184C11.8395 22.6438 11.8664 22.7741 11.8656 22.9142C11.8649 23.0371 11.8791 23.1601 11.8763 23.2829C11.8728 23.4456 11.8528 23.6081 11.8519 23.7708C11.851 23.9176 11.7687 24.0254 11.6915 24.1323C11.6486 24.1917 11.5724 24.2276 11.51 24.2721C11.4015 24.3493 11.2764 24.3904 11.1517 24.4308C11.1087 24.4447 11.0622 24.4506 11.0169 24.4541C10.92 24.4617 10.8228 24.4697 10.7258 24.4695C10.555 24.4691 10.3843 24.4604 10.2136 24.46C10.1513 24.4598 10.0886 24.4711 10.0266 24.4807C9.93145 24.4956 9.90048 24.4761 9.88903 24.3807C9.87985 24.3045 9.87112 24.2277 9.87091 24.151C9.86869 23.5178 9.86854 22.8847 9.8678 22.2515C9.86774 22.1859 9.8678 22.1202 9.8678 22.0389ZM16.4151 23.4276C16.4991 23.3945 16.5208 23.3607 16.5186 23.2877C16.5134 23.1132 16.5073 22.9388 16.5051 22.7643C16.5027 22.5637 16.5029 22.3632 16.5043 22.1627C16.5053 22.0152 16.5341 21.9946 16.6784 22.009C16.7606 22.0172 16.8442 22.0129 16.9273 22.0137C16.9649 22.014 17.002 22.0146 17.0365 22.0509V24.4303C17.0043 24.4442 16.9738 24.4685 16.9433 24.4686C16.8264 24.4691 16.7091 24.4655 16.5926 24.4558C16.5237 24.4502 16.4769 24.4084 16.4401 24.3455C16.3638 24.2153 16.2769 24.0912 16.1962 23.9635C16.12 23.843 16.0469 23.7206 15.9707 23.6C15.91 23.5036 15.847 23.4088 15.7848 23.3133C15.7538 23.2657 15.7226 23.2183 15.6948 23.1759C15.5889 23.1599 15.5612 23.1806 15.5608 23.2703C15.56 23.4422 15.5581 23.6142 15.5604 23.786C15.5624 23.926 15.5718 24.0658 15.5738 24.2058C15.5747 24.2626 15.5669 24.3199 15.5583 24.3762C15.5546 24.4003 15.5388 24.4226 15.5281 24.447C15.3575 24.4915 15.192 24.48 15.0191 24.4476C15.0151 24.411 15.0089 24.3807 15.0089 24.3504C15.0086 23.6026 15.009 22.8549 15.0096 22.1071C15.0096 22.0846 15.0127 22.0622 15.0141 22.0443C15.047 22.0065 15.0861 22.015 15.1224 22.0147C15.2112 22.014 15.3003 22.0198 15.3886 22.0133C15.5131 22.0043 15.5863 22.0706 15.6424 22.1684C15.6893 22.25 15.734 22.3329 15.7821 22.4137C15.8432 22.5165 15.9068 22.6179 15.9696 22.7198C16.0025 22.7732 16.037 22.8256 16.0691 22.8794C16.1627 23.0363 16.2546 23.1942 16.3491 23.3506C16.3661 23.3786 16.3923 23.4013 16.4151 23.4276ZM9.19225 24.4277C9.14732 24.4663 9.10087 24.4744 9.05049 24.473C8.96242 24.4706 8.87382 24.4752 8.78638 24.4671C8.7502 24.4638 8.70784 24.4433 8.68324 24.4167C8.6331 24.3625 8.59094 24.3003 8.54929 24.2388C8.43757 24.0734 8.32627 23.9077 8.21781 23.7402C8.14034 23.6206 8.06752 23.498 7.99313 23.3764C7.96189 23.3253 7.93386 23.2722 7.90074 23.2225C7.87158 23.1785 7.8283 23.1509 7.78055 23.1345C7.72366 23.1495 7.71957 23.1906 7.71972 23.2362C7.72093 23.5054 7.72135 23.7746 7.72185 24.0438C7.722 24.144 7.7222 24.2443 7.72114 24.3445C7.72019 24.4314 7.68245 24.4711 7.59693 24.4729C7.49673 24.4751 7.39646 24.4755 7.29626 24.4748C7.21556 24.4743 7.17522 24.4236 7.17601 24.3428C7.17815 24.1398 7.17536 23.9368 7.17578 23.7338C7.17593 23.6883 7.18353 23.6428 7.18374 23.5972C7.1849 23.2764 7.1851 22.9557 7.1854 22.6349C7.18546 22.541 7.18596 22.4471 7.18374 22.3532C7.18196 22.279 7.17356 22.2048 7.17305 22.1306C7.17234 22.0316 7.19543 22.012 7.29635 22.0132C7.39081 22.0144 7.48556 22.019 7.57973 22.014C7.66487 22.0094 7.7217 22.0432 7.76329 22.1143C7.82519 22.2203 7.88813 22.3258 7.95257 22.4303C8.05591 22.598 8.16198 22.764 8.26484 22.9321C8.33778 23.0512 8.40545 23.1737 8.47928 23.2924C8.50888 23.34 8.54858 23.3813 8.5802 23.4211C8.65974 23.4058 8.68697 23.3731 8.67901 23.3015C8.63825 22.9364 8.65328 22.5701 8.64964 22.2041C8.64793 22.0263 8.66412 22.0112 8.83827 22.0129C8.91275 22.0136 8.9872 22.0153 9.06162 22.0149C9.20113 22.0143 9.2175 22.0277 9.21756 22.1639C9.21771 22.4675 9.21605 22.771 9.21499 23.0745C9.21454 23.1891 9.21519 23.3037 9.21282 23.4182C9.2104 23.5376 9.20359 23.6569 9.20152 23.7762C9.20072 23.8216 9.2104 23.8671 9.21117 23.9126C9.21413 24.0838 9.23002 24.2557 9.19225 24.4277ZM19.7357 24.413C19.6912 24.4567 19.6487 24.4586 19.6051 24.4585C19.2958 24.4581 18.9864 24.4573 18.6772 24.4586C18.5944 24.4591 18.5118 24.4701 18.4291 24.4703C18.3379 24.4705 18.2466 24.4619 18.1554 24.461C18.0784 24.4601 18.0013 24.4637 17.9244 24.4673C17.8569 24.4705 17.7861 24.4929 17.7267 24.4179C17.7221 24.3824 17.7113 24.3374 17.7112 24.2924C17.7106 23.9372 17.7123 23.5821 17.7125 23.227C17.7126 23.1101 17.7061 22.993 17.7103 22.8764C17.7181 22.6507 17.7077 22.4253 17.7103 22.1997C17.7107 22.1687 17.7153 22.1372 17.7218 22.1067C17.7392 22.0249 17.7525 22.0145 17.8375 22.0145C18.4103 22.0145 18.9831 22.0146 19.5558 22.015C19.6522 22.0151 19.6715 22.0335 19.6693 22.132C19.6669 22.2377 19.6606 22.3433 19.6541 22.4489C19.6508 22.5021 19.6338 22.5262 19.5754 22.5337C19.5022 22.5432 19.4273 22.5411 19.3532 22.5427C19.2994 22.544 19.2456 22.5438 19.1918 22.5429C19.0032 22.5399 18.8145 22.5361 18.6259 22.5328C18.5544 22.5315 18.4828 22.5286 18.4113 22.5299C18.3601 22.5308 18.3339 22.5531 18.3291 22.5994C18.322 22.6676 18.3151 22.7362 18.3157 22.8045C18.3162 22.8611 18.3277 22.9176 18.3338 22.9694C18.3742 23.0163 18.4242 23.014 18.4727 23.0133C18.7761 23.0087 19.0795 23.0025 19.383 22.9987C19.4273 22.9981 19.4718 23.0073 19.5208 23.0125C19.5252 23.0473 19.5308 23.072 19.5312 23.097C19.5327 23.1828 19.5332 23.2688 19.5325 23.3547C19.532 23.4307 19.4952 23.4698 19.4194 23.4769C19.4023 23.4785 19.3851 23.4773 19.3679 23.4773C19.0643 23.4761 18.7607 23.4747 18.4571 23.4738C18.3594 23.4734 18.3297 23.4904 18.3205 23.5871C18.3099 23.7006 18.3136 23.8158 18.3165 23.93C18.3177 23.9754 18.361 24.007 18.4134 24.0089C18.4706 24.011 18.528 24.0098 18.5853 24.0089C18.9172 24.0035 19.2491 23.9986 19.5809 23.9916C19.7292 23.9884 19.7539 24.0198 19.7449 24.1771C19.7402 24.2567 19.7385 24.3366 19.7357 24.413ZM26.6295 24.4352C26.5977 24.4423 26.5659 24.4544 26.534 24.4552C26.4281 24.4579 26.3221 24.4569 26.2162 24.4565C26.116 24.4562 26.0942 24.4415 26.0571 24.3461C26.0312 24.2796 26.0072 24.2122 25.9838 24.1446C25.9599 24.0756 25.9081 24.0443 25.8396 24.0446C25.7426 24.0448 25.6455 24.0515 25.5485 24.0552C25.5141 24.0565 25.4789 24.0623 25.4456 24.0568C25.3171 24.0355 25.1887 24.0721 25.0613 24.0564C24.9325 24.0406 24.8748 24.1437 24.8456 24.2419C24.8318 24.2879 24.8159 24.3339 24.7956 24.3774C24.7672 24.4386 24.7162 24.4628 24.6485 24.4584C24.5943 24.4549 24.5397 24.4554 24.4854 24.4572C24.4399 24.4587 24.3944 24.4635 24.3491 24.469C24.3072 24.474 24.2692 24.47 24.2303 24.4265C24.2415 24.3905 24.2534 24.3476 24.2684 24.3057C24.2934 24.2358 24.3205 24.1667 24.3463 24.0971C24.3532 24.0784 24.356 24.0577 24.3654 24.0404C24.4628 23.8618 24.5272 23.6703 24.5877 23.4773C24.5927 23.4614 24.603 23.4472 24.6102 23.4319C24.6368 23.3754 24.6639 23.3191 24.6894 23.262C24.7101 23.2154 24.7296 23.1682 24.7481 23.1206C24.7696 23.0653 24.7887 23.0089 24.8099 22.9534C24.8293 22.9029 24.8507 22.8532 24.8701 22.8026C24.9069 22.7067 24.9459 22.6115 24.9786 22.5142C25.0187 22.395 25.0519 22.2734 25.0907 22.1537C25.1217 22.058 25.179 21.988 25.3052 21.9963C25.3936 22.0022 25.4826 21.9971 25.5713 21.9984C25.6808 22.0001 25.7476 22.0484 25.7827 22.1524C25.8101 22.2336 25.8331 22.3161 25.8605 22.3973C25.8778 22.4483 25.8996 22.4977 25.9196 22.5479C25.969 22.6721 26.0194 22.7961 26.0679 22.9208C26.101 23.0059 26.131 23.0922 26.1636 23.1775C26.2115 23.3025 26.2609 23.4268 26.3088 23.5517C26.3323 23.613 26.3538 23.6752 26.3768 23.7368C26.4007 23.8006 26.4232 23.865 26.4501 23.9274C26.477 23.9903 26.5143 24.0492 26.5369 24.1134C26.5727 24.215 26.6227 24.313 26.6295 24.4352ZM23.8544 24.4397C23.8081 24.4659 23.766 24.4751 23.7179 24.4631C23.6879 24.4557 23.6554 24.4573 23.624 24.4573C23.3118 24.4568 22.9996 24.4574 22.6874 24.4564C22.6545 24.4563 22.6215 24.4479 22.5823 24.4425C22.5794 24.3921 22.5754 24.35 22.5749 24.3079C22.574 24.242 22.5746 24.1762 22.5764 24.1103C22.5784 24.0348 22.609 24.0013 22.6849 23.9954C22.7305 23.9919 22.7766 23.9942 22.8224 23.9949C22.8646 23.9956 22.9012 23.9846 22.9324 23.9469V22.5568C22.8859 22.5121 22.8367 22.4953 22.779 22.4986C22.7391 22.5009 22.6987 22.5009 22.6588 22.498C22.6041 22.4941 22.5799 22.4723 22.578 22.4177C22.5744 22.3118 22.5739 22.2058 22.5756 22.0998C22.5765 22.0466 22.5931 22.0273 22.6435 22.0146C22.6764 22.0063 22.7112 22.0009 22.745 22.0016C22.9051 22.0047 23.065 22.0126 23.2251 22.0144C23.3998 22.0164 23.5745 22.0128 23.7492 22.0131C23.8459 22.0133 23.8624 22.0312 23.8632 22.1299C23.8634 22.1614 23.8627 22.193 23.8605 22.2243C23.8546 22.3092 23.8477 22.394 23.8414 22.4757C23.787 22.5111 23.7362 22.5173 23.6798 22.5056C23.5699 22.4829 23.5062 22.5324 23.5057 22.6428C23.5039 23.0496 23.5034 23.4563 23.5036 23.863C23.5037 23.9655 23.5493 24.0088 23.6502 24.0088C23.696 24.0088 23.7421 24.0062 23.7876 24.01C23.8609 24.0163 23.8858 24.0412 23.884 24.1133C23.8811 24.2212 23.8977 24.3313 23.8544 24.4397ZM5.3688 24.4427C5.28988 24.3125 5.33561 24.1913 5.33446 24.0737C5.33405 24.0293 5.37667 23.9993 5.4323 23.995C5.47788 23.9915 5.52397 23.9947 5.56977 23.9924C5.59505 23.9911 5.62095 23.9871 5.64522 23.9798C5.67533 23.9708 5.69253 23.9488 5.69247 23.9158C5.69247 23.91 5.69283 23.9043 5.69297 23.8986C5.69697 23.7356 5.70428 23.5725 5.70422 23.4095C5.70413 23.2293 5.69626 23.0491 5.69404 22.8689C5.69339 22.8119 5.70049 22.7548 5.70327 22.6978C5.70464 22.6692 5.70724 22.6402 5.70428 22.612C5.69706 22.542 5.6499 22.4981 5.5793 22.497C5.54541 22.4965 5.51113 22.5022 5.47738 22.5077C5.43925 22.5138 5.40334 22.5137 5.3693 22.4836C5.33647 22.3542 5.34373 22.2197 5.35074 22.0857C5.35373 22.0282 5.40027 21.9993 5.46791 22.0008C5.69102 22.0059 5.91407 22.0119 6.13718 22.0132C6.23996 22.0138 6.34265 22.003 6.44552 22.0001C6.47332 21.9993 6.50493 22.0016 6.52829 22.0145C6.55058 22.0267 6.57917 22.0541 6.57962 22.0754C6.58219 22.2038 6.57775 22.3324 6.57479 22.4609C6.57468 22.4686 6.56751 22.4762 6.56269 22.4856C6.51189 22.5182 6.45325 22.5057 6.39706 22.5109C6.36403 22.5139 6.32818 22.5188 6.29994 22.5343C6.2571 22.5578 6.24239 22.5994 6.24254 22.6505C6.24354 22.9054 6.24103 23.1604 6.24053 23.4154C6.24026 23.5729 6.24124 23.7305 6.24198 23.888C6.24224 23.9709 6.27365 24.0005 6.35665 23.9979C6.40236 23.9964 6.4483 23.9934 6.49395 23.9951C6.56736 23.9978 6.60081 24.0291 6.59969 24.1002C6.59824 24.1914 6.5943 24.2829 6.58441 24.3735C6.5771 24.441 6.53933 24.4671 6.47432 24.4664C6.14802 24.4632 5.82168 24.4611 5.49538 24.457C5.45056 24.4564 5.40586 24.4471 5.3688 24.4427ZM13.8734 23.2628C13.8734 23.1368 13.8709 23.0107 13.8739 22.8848C13.8808 22.5977 13.6744 22.4722 13.4348 22.4453C13.317 22.4321 13.2102 22.4882 13.1053 22.5431C12.9943 22.6012 12.9509 22.695 12.9454 22.8081C12.936 23.0023 12.9336 23.1969 12.9326 23.3913C12.932 23.5026 12.9417 23.614 12.9437 23.7254C12.9449 23.7879 12.9624 23.839 13.0015 23.8907C13.0403 23.9422 13.092 23.9665 13.1428 23.9979C13.3218 24.1086 13.5005 24.0557 13.6798 24.0013C13.6824 24.0005 13.6849 23.9986 13.6871 23.9968C13.7992 23.9078 13.8799 23.8038 13.8743 23.6493C13.8696 23.5207 13.8734 23.3916 13.8734 23.2628ZM10.4032 23.2702H10.4038C10.4038 23.4793 10.4027 23.6884 10.4044 23.8975C10.4051 23.9798 10.4506 24.023 10.5323 24.025C10.5839 24.0262 10.6361 24.0296 10.6869 24.0234C10.8114 24.0081 10.9356 23.9886 11.0595 23.9688C11.0784 23.9658 11.0965 23.9535 11.1133 23.943C11.2549 23.8552 11.3158 23.7255 11.3146 23.5615C11.3131 23.3495 11.3126 23.1375 11.3144 22.9255C11.3153 22.819 11.2658 22.7307 11.2101 22.649C11.1818 22.6073 11.1281 22.5739 11.0791 22.5575C11.0068 22.5335 10.9288 22.5241 10.8524 22.5158C10.7616 22.5058 10.67 22.503 10.5787 22.4981C10.4727 22.4924 10.4038 22.5554 10.4034 22.6601C10.4027 22.8635 10.4032 23.0668 10.4032 23.2702ZM25.7659 23.5721C25.7304 23.4528 25.7075 23.3463 25.667 23.247C25.6151 23.1196 25.5639 22.9929 25.5342 22.858C25.5153 22.7718 25.4938 22.7618 25.3846 22.7835C25.3614 22.8418 25.3337 22.9068 25.3098 22.9733C25.2945 23.016 25.2877 23.0619 25.2717 23.1042C25.2443 23.1764 25.2101 23.2461 25.1835 23.3185C25.154 23.3987 25.1248 23.4799 25.1456 23.5777C25.1736 23.5844 25.2032 23.5985 25.2321 23.5972C25.4044 23.589 25.5794 23.6223 25.7659 23.5721ZM13.6863 21.2277C13.651 21.2682 13.615 21.274 13.5768 21.2753C13.4685 21.2791 13.3601 21.2869 13.2517 21.2857C13.2114 21.2852 13.1714 21.2637 13.1275 21.2508C13.1251 21.209 13.1216 21.1754 13.1216 21.1417C13.1216 20.6147 13.1209 20.0878 13.1229 19.561C13.1237 19.3464 13.1314 19.1319 13.1347 18.9174C13.1355 18.8632 13.1328 18.8088 13.1292 18.7546C13.1244 18.6786 13.1707 18.6284 13.2455 18.6295C13.5601 18.6342 13.8747 18.6385 14.1893 18.6429C14.3959 18.6458 14.5947 18.6894 14.7674 18.8019C14.9644 18.9302 15.0901 19.1133 15.1155 19.3548C15.1198 19.3945 15.1247 19.4346 15.1342 19.4734C15.1523 19.5476 15.1487 19.6203 15.1317 19.6941C15.108 19.7968 15.0978 19.902 15.0501 19.9993C15.0103 20.0801 14.9691 20.1549 14.8865 20.2013C14.85 20.2218 14.8195 20.2546 14.7899 20.2853C14.7431 20.3341 14.6883 20.3686 14.6237 20.3872C14.5468 20.4091 14.4707 20.4391 14.3921 20.4487C14.2971 20.4603 14.1998 20.4554 14.1035 20.455C14.0062 20.4547 13.909 20.4494 13.8117 20.4497C13.7441 20.4499 13.704 20.4884 13.7008 20.5544C13.6977 20.6197 13.6998 20.6853 13.6983 20.7507C13.6947 20.913 13.6902 21.0752 13.6863 21.2277ZM11.2795 19.9682C11.2795 20.1257 11.283 20.2834 11.2785 20.4407C11.2742 20.5899 11.2237 20.7251 11.1343 20.8454C11.1091 20.8794 11.0912 20.9202 11.0615 20.9493C10.9483 21.0605 10.8158 21.1424 10.6661 21.1962C10.5193 21.249 10.3696 21.2761 10.2123 21.2735C9.96611 21.2696 9.71979 21.2751 9.47344 21.2747C9.41409 21.2746 9.35604 21.2953 9.29512 21.2765C9.23479 21.2579 9.22188 21.2552 9.21564 21.1934C9.20877 21.1258 9.21078 21.0572 9.20998 20.9892C9.20948 20.9492 9.21256 20.9091 9.21134 20.8692C9.20918 20.7949 9.20166 20.7208 9.20238 20.6467C9.20474 20.4063 9.21185 20.1661 9.21336 19.9258C9.21573 19.5449 9.21499 19.164 9.21573 18.7831C9.21593 18.6659 9.258 18.6261 9.37818 18.6285C9.43259 18.6296 9.487 18.6297 9.54138 18.6308C9.75304 18.6348 9.96469 18.6392 10.1763 18.643C10.2388 18.6441 10.3043 18.6313 10.3632 18.646C10.5033 18.681 10.6521 18.6898 10.7761 18.7791C10.8266 18.8154 10.8887 18.8352 10.9412 18.8691C11.0838 18.9613 11.1688 19.0959 11.2265 19.2538C11.2719 19.3778 11.2817 19.5035 11.2782 19.6331C11.2752 19.7447 11.2776 19.8565 11.2776 19.9682H11.2795ZM20.4445 21.2535C20.4049 21.262 20.3727 21.2743 20.3404 21.275C20.2288 21.2772 20.1171 21.2751 20.0054 21.2751C19.9422 21.2751 19.8941 21.2496 19.8683 21.1905C19.8501 21.1488 19.8344 21.106 19.8192 21.063C19.7926 20.9879 19.7671 20.9124 19.7396 20.8324C19.6965 20.8304 19.66 20.8272 19.6236 20.8273C19.3487 20.8278 19.0739 20.829 18.7989 20.8297C18.677 20.83 18.6151 20.8783 18.5885 20.9958C18.5772 21.046 18.566 21.0962 18.5547 21.1464C18.5319 21.2476 18.4693 21.2739 18.4067 21.2753C18.2665 21.2783 18.1261 21.2783 17.9858 21.2764C17.9289 21.2755 17.915 21.2579 17.9164 21.202C17.9169 21.1794 17.9192 21.1553 17.9278 21.1349C18.0048 20.9538 18.0586 20.7629 18.1591 20.5919C18.1649 20.5821 18.1707 20.5712 18.1717 20.5603C18.1855 20.405 18.2805 20.2804 18.331 20.139C18.3635 20.0479 18.4045 19.9599 18.4388 19.8695C18.5186 19.6587 18.5962 19.447 18.6759 19.2362C18.6951 19.1855 18.72 19.137 18.7402 19.0866C18.7868 18.9698 18.8343 18.8534 18.8772 18.7352C18.9007 18.6704 18.9496 18.6475 19.0096 18.6458C19.144 18.6418 19.2786 18.6424 19.4131 18.6418C19.4607 18.6416 19.4979 18.6675 19.5179 18.7061C19.5568 18.7817 19.5905 18.8604 19.6223 18.9394C19.6563 19.0242 19.6858 19.1108 19.717 19.1967C19.7277 19.226 19.742 19.2549 19.7467 19.2853C19.7566 19.3491 19.7794 19.4061 19.8168 19.4584C19.8281 19.4743 19.8348 19.4942 19.8412 19.513C19.9055 19.6994 19.9683 19.8863 20.0336 20.0722C20.0573 20.1395 20.0934 20.2029 20.1122 20.2714C20.1362 20.3584 20.1898 20.4342 20.2013 20.5257C20.2051 20.556 20.2209 20.585 20.2317 20.6145C20.2989 20.7998 20.3667 20.9849 20.4328 21.1706C20.4409 21.1933 20.44 21.2193 20.4445 21.2535ZM4.65698 21.2485C4.61486 21.2579 4.58253 21.2707 4.55 21.2712C4.48449 21.2722 4.41883 21.2654 4.35318 21.2639C4.32502 21.2632 4.29643 21.2661 4.2684 21.2703C4.21544 21.2784 4.16612 21.2722 4.12184 21.2413C4.11811 21.2319 4.11236 21.224 4.1123 21.2161C4.11156 21.0849 4.07962 20.9545 4.10369 20.8225C4.10777 20.8003 4.106 20.7768 4.106 20.7539C4.10606 20.5276 4.10662 20.3013 4.10526 20.075C4.10484 20.0065 4.0951 19.9379 4.09581 19.8694C4.09854 19.6032 4.10413 19.3371 4.10763 19.0709C4.10908 18.965 4.107 18.8589 4.10786 18.7529C4.10863 18.6606 4.14066 18.6279 4.23127 18.6279C4.5722 18.6277 4.91316 18.6231 5.25388 18.6312C5.39005 18.6344 5.52616 18.6625 5.66088 18.6869C5.70354 18.6946 5.74318 18.7246 5.78137 18.749C5.85081 18.7933 5.92559 18.8291 5.98233 18.8934C6.11401 19.0424 6.19213 19.2113 6.19147 19.4127C6.19133 19.4499 6.1889 19.4873 6.19127 19.5244C6.20222 19.6973 6.14905 19.8474 6.04755 19.9878C5.99554 20.0597 5.95072 20.1354 5.87642 20.1867C5.84394 20.2092 5.8081 20.2268 5.77435 20.2475C5.74783 20.2638 5.71917 20.2785 5.69694 20.2996C5.66592 20.3292 5.6634 20.365 5.6877 20.4005C5.75685 20.5019 5.82826 20.6018 5.8977 20.7031C5.92349 20.7407 5.94465 20.7817 5.97079 20.819C6.03301 20.9076 6.09944 20.9932 6.15909 21.0834C6.18795 21.1272 6.20539 21.1786 6.22359 21.2171C6.20308 21.2654 6.17493 21.276 6.1413 21.2766C6.11551 21.277 6.0897 21.2763 6.06398 21.276C5.95862 21.275 5.85297 21.2692 5.74791 21.2742C5.63537 21.2795 5.56974 21.2212 5.51453 21.1335C5.44941 21.0299 5.37759 20.9306 5.30992 20.8286C5.28334 20.7885 5.2612 20.7455 5.23523 20.7049C5.19382 20.6399 5.14829 20.5773 5.10975 20.5106C5.09054 20.4773 5.07319 20.4376 5.07198 20.4002C5.06709 20.2572 5.06804 20.1138 5.06911 19.9706C5.06967 19.8959 5.08474 19.884 5.16215 19.8806C5.21626 19.8782 5.27099 19.8787 5.3244 19.8706C5.49828 19.8444 5.5981 19.7525 5.63143 19.5839C5.63996 19.5407 5.63945 19.4909 5.62658 19.4492C5.60742 19.3872 5.57655 19.3282 5.54484 19.271C5.524 19.2332 5.4881 19.2112 5.44473 19.1958C5.29923 19.1439 5.14767 19.1528 4.99785 19.1426C4.92684 19.1377 4.85559 19.1358 4.78478 19.1291C4.7248 19.1235 4.67951 19.1581 4.67735 19.2215C4.67469 19.2989 4.67634 19.3763 4.67599 19.4536C4.67513 19.657 4.67383 19.8603 4.67332 20.0637C4.67297 20.195 4.67483 20.3262 4.67356 20.4574C4.67306 20.5087 4.66616 20.5598 4.66302 20.6112C4.66142 20.6368 4.66036 20.6627 4.66122 20.6884C4.6653 20.8141 4.67241 20.9398 4.67371 21.0655C4.67427 21.1219 4.66379 21.1784 4.65698 21.2485ZM15.6097 21.2362C15.6097 21.1884 15.6096 21.1371 15.6097 21.0858C15.6102 20.6245 15.6109 20.1633 15.6114 19.7021C15.6117 19.4098 15.6117 19.1177 15.6119 18.8255C15.612 18.7968 15.6114 18.7681 15.6127 18.7395C15.6162 18.6651 15.6499 18.6317 15.7257 18.6297C15.7686 18.6286 15.8116 18.6312 15.8546 18.6313C15.917 18.6314 15.9796 18.6322 16.0421 18.63C16.1573 18.6261 16.1948 18.6585 16.1938 18.7724C16.1928 18.8781 16.1861 18.9838 16.1835 19.0896C16.1825 19.1295 16.1861 19.1695 16.1874 19.2095C16.1893 19.2667 16.1925 19.3239 16.1929 19.381C16.1936 19.5265 16.1944 19.6721 16.1931 19.8176C16.1913 20.0065 16.1873 20.1952 16.1844 20.3841C16.1837 20.4356 16.1831 20.4872 16.1828 20.5387C16.1827 20.5755 16.1845 20.6123 16.1829 20.6489C16.1806 20.7045 16.1992 20.7373 16.2523 20.7519C16.2791 20.7594 16.3088 20.7589 16.3371 20.7581C16.4743 20.7544 16.6114 20.7471 16.7487 20.7454C16.9376 20.743 17.1268 20.7446 17.3158 20.7445C17.333 20.7445 17.3503 20.744 17.3674 20.745C17.4462 20.7495 17.4834 20.783 17.4865 20.8619C17.4899 20.9477 17.4881 21.0338 17.4861 21.1197C17.4834 21.2473 17.4534 21.2762 17.3266 21.276C16.8854 21.2753 16.4443 21.2743 16.003 21.2738C15.92 21.2736 15.8369 21.2749 15.7538 21.2761C15.7077 21.2768 15.6621 21.2767 15.6097 21.2362ZM7.30239 20.7066C7.32938 20.7461 7.37189 20.7635 7.42458 20.7612C7.55028 20.7558 7.67594 20.7487 7.80172 20.7471C7.87877 20.7461 7.95594 20.7578 8.03291 20.757C8.19025 20.7552 8.3474 20.7488 8.50465 20.7446C8.52185 20.7441 8.53905 20.7443 8.55628 20.7446C8.66794 20.7463 8.71323 20.7876 8.71515 20.9001C8.71711 21.0112 8.72504 21.1236 8.68958 21.2359C8.65941 21.2671 8.61776 21.2759 8.57419 21.2748C8.51131 21.2733 8.44855 21.2677 8.38568 21.266C8.35466 21.2653 8.3234 21.2716 8.29228 21.2712C8.15499 21.2695 8.01766 21.2658 7.88034 21.2648C7.83194 21.2644 7.78351 21.272 7.7352 21.2713C7.53775 21.2688 7.34037 21.2632 7.14292 21.2612C7.06865 21.2604 6.99435 21.2656 6.92001 21.2685C6.90287 21.2692 6.88582 21.2728 6.86868 21.2727C6.74134 21.2723 6.72298 21.226 6.72319 21.1316C6.72434 20.7275 6.72328 20.3234 6.72579 19.9194C6.72801 19.5471 6.73373 19.1749 6.7379 18.8026C6.73817 18.7768 6.73681 18.7509 6.73882 18.7253C6.74456 18.6515 6.76756 18.6274 6.8411 18.6285C6.94689 18.6302 7.0526 18.6384 7.1584 18.6403C7.20955 18.6413 7.26088 18.6318 7.31213 18.6316C7.71039 18.63 8.10875 18.6305 8.50702 18.6281C8.57419 18.6277 8.6227 18.652 8.64908 18.6922C8.64908 18.81 8.64979 18.9127 8.64887 19.0153C8.64787 19.12 8.60844 19.1606 8.50267 19.1615C8.45149 19.162 8.40024 19.1543 8.349 19.1501C8.34619 19.1499 8.34347 19.1481 8.34068 19.1482C8.20996 19.1488 8.07915 19.1496 7.94843 19.1502C7.88306 19.1506 7.8177 19.1512 7.7524 19.1505C7.73248 19.1503 7.71199 19.1416 7.6929 19.1445C7.59894 19.1586 7.50599 19.1541 7.41183 19.1441C7.35384 19.1379 7.31062 19.1777 7.30754 19.2346C7.30203 19.3367 7.28146 19.4383 7.30475 19.542C7.32388 19.6273 7.34738 19.6587 7.43512 19.6581C7.73576 19.6559 8.03643 19.6514 8.3371 19.6458C8.40696 19.6445 8.42789 19.6445 8.50057 19.6748C8.53434 19.7829 8.52632 19.897 8.52064 20.0109C8.51993 20.025 8.51605 20.0391 8.51427 20.0533C8.50258 20.1445 8.47449 20.174 8.38168 20.1743C8.12379 20.1751 7.86586 20.1733 7.60797 20.1707C7.54527 20.1701 7.48263 20.1592 7.41991 20.1588C7.34646 20.1582 7.3195 20.1855 7.30487 20.2581C7.29069 20.329 7.29034 20.3985 7.30023 20.471C7.31011 20.5439 7.30239 20.6191 7.30239 20.7066ZM23.5264 21.2441V18.64C23.5588 18.6347 23.5859 18.6258 23.6128 18.6265C23.7443 18.6296 23.8758 18.6368 24.0073 18.6393C24.0614 18.6403 24.1156 18.6306 24.1697 18.6303C24.5449 18.6283 24.9202 18.6274 25.2954 18.626C25.4094 18.6255 25.4314 18.647 25.4313 18.7606C25.4311 18.8494 25.4311 18.9382 25.4302 19.027C25.4294 19.0982 25.3901 19.1454 25.3193 19.1548C25.2827 19.1597 25.2448 19.1588 25.208 19.1555C25.0284 19.1394 24.8492 19.1338 24.6694 19.1555C24.6371 19.1594 24.6005 19.1524 24.5699 19.1402C24.5215 19.121 24.4747 19.1162 24.4288 19.1388C24.387 19.1593 24.3472 19.1591 24.3042 19.1461C24.2769 19.1379 24.2484 19.1325 24.2201 19.1293C24.1407 19.12 24.0734 19.1771 24.0717 19.257C24.0695 19.36 24.0694 19.4632 24.0704 19.5663C24.071 19.627 24.0902 19.6476 24.1511 19.6555C24.1794 19.6591 24.2083 19.658 24.2369 19.6575C24.5345 19.6529 24.8322 19.6485 25.1299 19.6432C25.2839 19.6405 25.3115 19.6672 25.3094 19.8202C25.3085 19.8804 25.3105 19.9406 25.3082 20.0006C25.3071 20.0318 25.3064 20.066 25.2933 20.0927C25.2808 20.118 25.2551 20.148 25.2302 20.1536C25.1782 20.1654 25.123 20.1648 25.069 20.1651C24.8809 20.1661 24.6927 20.1668 24.5046 20.1645C24.4025 20.1633 24.3 20.1599 24.1985 20.1497C24.1185 20.1417 24.0739 20.1677 24.0726 20.2446C24.0705 20.3648 24.0684 20.4854 24.0744 20.6055C24.0812 20.7419 24.1109 20.7717 24.2599 20.756C24.3081 20.7509 24.3564 20.744 24.4048 20.7436C24.7199 20.7416 25.0349 20.7411 25.35 20.7401C25.3729 20.7401 25.3959 20.7388 25.4187 20.7409C25.4731 20.7456 25.5131 20.779 25.5145 20.8322C25.5177 20.9663 25.5156 21.1006 25.5156 21.2316C25.4625 21.2661 25.4126 21.2734 25.3606 21.272C25.1948 21.2677 25.0288 21.2601 24.863 21.2595C24.4935 21.258 24.124 21.2597 23.7545 21.261C23.7176 21.2611 23.6805 21.2664 23.6437 21.2708C23.6032 21.2756 23.5636 21.2792 23.5264 21.2441ZM21.5672 19.7994C21.5413 19.7977 21.5241 19.7944 21.5073 19.7957C21.4564 19.7994 21.4431 19.8121 21.4409 19.865C21.4389 19.9136 21.4414 19.9623 21.4414 20.011C21.4416 20.2459 21.4411 20.4807 21.4424 20.7156C21.4426 20.764 21.4494 20.8123 21.453 20.8607C21.4541 20.875 21.456 20.8893 21.4553 20.9035C21.4512 20.9948 21.4468 21.0862 21.442 21.1774C21.438 21.2523 21.413 21.2801 21.3419 21.2712C21.2218 21.2562 21.1027 21.2584 20.9826 21.2701C20.9533 21.2729 20.9222 21.2584 20.8967 21.2529C20.8617 21.2063 20.8721 21.1587 20.8721 21.1142C20.8714 20.6846 20.8721 20.2549 20.8724 19.8253C20.8727 19.4816 20.8725 19.1379 20.8736 18.7942C20.8738 18.6762 20.9199 18.6317 21.0407 18.6298C21.1238 18.6286 21.2073 18.6354 21.2897 18.6274C21.3772 18.619 21.4314 18.6597 21.4732 18.7266C21.5761 18.891 21.6787 19.0554 21.7793 19.221C21.8339 19.311 21.8823 19.4047 21.9367 19.4947C21.9795 19.5651 22.0286 19.6317 22.0723 19.7017C22.1252 19.7865 22.174 19.8741 22.2277 19.9584C22.2489 19.9918 22.2753 20.0234 22.3048 20.0496C22.3527 20.0921 22.407 20.0721 22.4188 20.0087C22.4245 19.9781 22.4235 19.9459 22.4224 19.9145C22.4181 19.783 22.4098 19.6516 22.4081 19.5201C22.4055 19.3201 22.4063 19.1201 22.4079 18.9201C22.4083 18.8602 22.4141 18.8001 22.4212 18.7407C22.4306 18.6627 22.4731 18.626 22.5531 18.6256C22.6619 18.625 22.7707 18.626 22.8795 18.6276C22.9453 18.6285 22.9847 18.6554 22.9902 18.7217C22.9988 18.8267 22.9964 18.9325 22.9972 19.038C22.9975 19.0807 22.9928 19.1235 22.9926 19.1664C22.9918 19.2889 22.9922 19.4115 22.9921 19.5341C22.9921 19.5369 22.9915 19.5398 22.9916 19.5426C22.9946 19.685 22.9981 19.8273 23.0003 19.9697C23.0013 20.0297 22.9987 20.0898 22.9988 20.1498C22.9991 20.2381 23.0007 20.3264 23.0013 20.4146C23.0018 20.4804 23.0074 20.5468 23.0006 20.6118C22.9897 20.7177 22.9907 20.822 23.0004 20.9281C23.0081 21.0124 22.9953 21.0988 22.9895 21.1841C22.9864 21.231 22.9569 21.2551 22.9112 21.2605C22.8772 21.2644 22.8432 21.2721 22.8093 21.2713C22.715 21.2691 22.6209 21.2613 22.5267 21.2597C22.4704 21.2587 22.4327 21.2418 22.4016 21.1895C22.1911 20.836 21.9764 20.4848 21.7644 20.1322C21.713 20.0469 21.667 19.9585 21.6174 19.8722C21.6034 19.8477 21.5854 19.8255 21.5672 19.7994ZM27.2362 19.1147C27.1515 19.1435 27.1262 19.2002 27.1327 19.2828C27.1422 19.4025 27.1474 19.5227 27.1473 19.6428C27.1471 19.7829 27.135 19.9229 27.1356 20.0631C27.1365 20.2776 27.146 20.4922 27.1476 20.7069C27.1484 20.8154 27.139 20.924 27.1364 21.0326C27.1357 21.0666 27.1432 21.1006 27.1461 21.1348C27.1536 21.2284 27.1246 21.2585 27.0304 21.2604C26.9246 21.2626 26.8189 21.2696 26.7132 21.2686C26.6723 21.2683 26.6315 21.2516 26.5828 21.2407V21.1219C26.5831 20.6232 26.5824 20.1246 26.5843 19.6259C26.5848 19.5004 26.5925 19.375 26.5986 19.2497C26.6011 19.1994 26.5885 19.1593 26.5505 19.1396C26.3903 19.1413 26.239 19.1431 26.0878 19.1444C26.0334 19.1449 25.9789 19.146 25.9246 19.1433C25.8702 19.1406 25.8462 19.1173 25.8428 19.0637C25.8364 18.9581 25.8302 18.8525 25.8283 18.7468C25.8267 18.6517 25.8573 18.6242 25.9518 18.6246C26.3501 18.6264 26.7484 18.6289 27.1467 18.6298C27.3558 18.6301 27.565 18.6276 27.7742 18.6263C27.8642 18.6257 27.9015 18.6565 27.905 18.7461C27.9084 18.8348 27.9071 18.9238 27.903 19.0124C27.8994 19.0901 27.8803 19.1099 27.8012 19.127C27.7093 19.1468 27.6182 19.1701 27.5235 19.1303C27.4947 19.1182 27.4545 19.1229 27.4222 19.1311C27.3557 19.1479 27.2928 19.1486 27.2362 19.1147ZM9.79741 19.1645C9.79167 19.2236 9.78258 19.2741 9.7827 19.3244C9.78335 19.522 9.789 19.7195 9.789 19.9171C9.789 20.1347 9.78385 20.3523 9.78335 20.57C9.78329 20.6123 9.79161 20.6552 9.8012 20.6967C9.8128 20.7469 9.848 20.7762 9.89974 20.7762C9.9538 20.7762 10.008 20.7713 10.0619 20.7661C10.1044 20.762 10.1465 20.7525 10.189 20.7483C10.2597 20.7412 10.3315 20.7413 10.4013 20.7295C10.5446 20.7051 10.6884 20.5442 10.6906 20.3985C10.6951 20.1122 10.6931 19.8257 10.6928 19.5392C10.6926 19.4122 10.6286 19.3109 10.5355 19.2384C10.4783 19.1939 10.3964 19.1692 10.3226 19.1607C10.1867 19.1449 10.0487 19.1461 9.91144 19.1435C9.8784 19.1429 9.84507 19.1553 9.79741 19.1645ZM19.5247 20.2847C19.5274 20.256 19.5347 20.2373 19.5297 20.2228C19.486 20.0967 19.4815 19.9575 19.4021 19.8431C19.3896 19.8251 19.3851 19.801 19.3789 19.7791C19.3565 19.6997 19.3365 19.6195 19.3121 19.5406C19.3039 19.5141 19.2879 19.4889 19.2711 19.4663C19.2435 19.4292 19.2052 19.4242 19.1774 19.4582C19.1474 19.4952 19.1186 19.5362 19.102 19.5801C19.0575 19.6973 19.0194 19.8171 18.9795 19.9361C18.9525 20.0168 18.9216 20.0968 18.9016 20.1793C18.883 20.2562 18.9043 20.2823 18.9829 20.298C19.0163 20.3048 19.0508 20.3087 19.0848 20.3083C19.2047 20.3066 19.3247 20.3031 19.4446 20.2988C19.4693 20.2979 19.4939 20.2904 19.5247 20.2847ZM14.0015 19.9845V19.9839C14.0473 19.9839 14.0931 19.9829 14.1389 19.9841C14.282 19.9876 14.3958 19.9227 14.5007 19.8335C14.5592 19.7838 14.5822 19.7173 14.5954 19.6464C14.6016 19.6131 14.5992 19.5779 14.5984 19.5436C14.5941 19.3336 14.4318 19.185 14.2449 19.1652C14.1107 19.1511 13.9747 19.1279 13.8359 19.1552C13.7301 19.176 13.7009 19.1936 13.7 19.2998C13.6993 19.3826 13.6979 19.4655 13.6964 19.5483C13.6945 19.6566 13.6877 19.765 13.6913 19.873C13.6941 19.9559 13.7267 19.9814 13.8126 19.9841C13.8755 19.986 13.9385 19.9845 14.0015 19.9845ZM15.052 10.6651C14.198 10.6651 13.3441 10.6648 12.4901 10.6659C12.4227 10.6659 12.365 10.6424 12.3201 10.5984C12.1953 10.4758 12.0929 10.3344 11.9948 10.19C11.9548 10.1311 11.914 10.0727 11.8756 10.0128C11.8417 9.95999 11.8105 9.90538 11.7782 9.85147C11.7709 9.83936 11.7655 9.82595 11.757 9.8147C11.7058 9.74656 11.6511 9.68084 11.6029 9.6106C11.5096 9.47443 11.4213 9.33473 11.3282 9.19842C11.2207 9.04102 11.1091 8.88635 11.0013 8.7291C10.9127 8.59989 10.8276 8.46822 10.7398 8.3385C10.6567 8.21574 10.5731 8.09316 10.4875 7.97211C10.4161 7.87085 10.3925 7.7596 10.4416 7.64723C10.4799 7.55987 10.558 7.50603 10.6577 7.50058C10.7291 7.49664 10.8009 7.50203 10.8725 7.50203C11.672 7.50159 12.4716 7.50138 13.2711 7.49966C13.3854 7.49946 13.4998 7.48747 13.6141 7.48806C14.1038 7.49043 14.5935 7.49629 15.0832 7.49886C15.1918 7.49946 15.3005 7.48827 15.409 7.48877C15.5721 7.48942 15.7351 7.49931 15.8982 7.49866C16.3478 7.49679 16.7974 7.48856 17.247 7.48918C17.4183 7.48942 17.5895 7.50739 17.7608 7.51651C17.8037 7.51873 17.8467 7.51772 17.8897 7.51816C17.9525 7.51879 18.0136 7.51953 18.0753 7.54267C18.1189 7.55893 18.1713 7.55298 18.2198 7.55419C18.2749 7.55549 18.3285 7.56002 18.3767 7.59054C18.3861 7.59649 18.3974 7.60194 18.4083 7.60265C18.6022 7.61591 18.7769 7.70306 18.9628 7.74657C18.9793 7.75036 18.9944 7.75975 19.0103 7.76614C19.0709 7.7905 19.1309 7.81658 19.1924 7.83861C19.3138 7.88195 19.4209 7.95275 19.5346 8.01104C19.5878 8.03827 19.6418 8.06394 19.6939 8.0931C19.7335 8.11533 19.7729 8.13925 19.8085 8.16734C19.907 8.24496 20.0037 8.32524 20.1011 8.40437C20.2228 8.50321 20.3561 8.5892 20.4559 8.71255C20.5144 8.78502 20.5665 8.86255 20.6217 8.93768C20.6301 8.94922 20.6388 8.96047 20.6479 8.97143C20.7392 9.08131 20.8378 9.18595 20.9194 9.30256C20.9829 9.3932 21.0254 9.49858 21.0766 9.59769C21.0857 9.61539 21.0876 9.63833 21.1 9.65266C21.1864 9.75272 21.2314 9.87542 21.2736 9.9956C21.3301 10.1569 21.3909 10.3171 21.4293 10.4854C21.4708 10.6671 21.4882 10.8519 21.5224 11.0343C21.5277 11.0621 21.5267 11.0914 21.5269 11.12C21.528 11.3091 21.529 11.4983 21.5293 11.6874C21.5296 11.8252 21.511 11.9606 21.4839 12.0956C21.4597 12.216 21.4432 12.3379 21.4234 12.4592C21.422 12.4676 21.423 12.4768 21.4201 12.4846C21.3739 12.6068 21.3272 12.7289 21.2806 12.8509C21.2714 12.875 21.2605 12.8984 21.2531 12.9231C21.2135 13.0561 21.1444 13.1747 21.0752 13.2936C21.0537 13.3306 21.0326 13.3687 21.0179 13.4087C20.9956 13.4687 20.9635 13.5206 20.9224 13.5699C20.8808 13.6198 20.8508 13.6793 20.8111 13.731C20.7067 13.8667 20.606 14.0061 20.4919 14.1334C20.3933 14.2433 20.2873 14.3506 20.1684 14.4366C20.0462 14.5252 19.9519 14.6485 19.8077 14.7104C19.7306 14.7436 19.6666 14.8061 19.5927 14.8484C19.5261 14.8865 19.4539 14.9147 19.3846 14.9479C19.3616 14.9589 19.3368 14.9686 19.3173 14.9844C19.248 15.0405 19.2429 15.119 19.2976 15.189C19.3643 15.2743 19.4389 15.3558 19.4911 15.4495C19.5584 15.5701 19.6528 15.6697 19.7245 15.7857C19.777 15.8708 19.826 15.9581 19.8811 16.0414C19.9376 16.1269 20.0006 16.2081 20.0588 16.2926C20.117 16.3771 20.172 16.4639 20.2301 16.5485C20.3224 16.6827 20.4169 16.8153 20.509 16.9495C20.5656 17.0317 20.6194 17.1158 20.675 17.1986C20.6925 17.2246 20.7115 17.2497 20.7305 17.2745C20.7393 17.2859 20.7521 17.2944 20.7592 17.3064C20.8096 17.3921 20.8646 17.4758 20.9075 17.5652C20.9934 17.7446 20.8858 17.9322 20.6893 17.9597C20.6035 17.9717 20.519 17.9647 20.4334 17.9633C20.2883 17.9609 20.1429 17.9613 19.9976 17.961C19.9412 17.9608 19.8849 17.9632 19.8279 17.9616C19.6745 17.9573 19.5207 17.9662 19.3672 17.9674C19.2328 17.9683 19.0983 17.9655 18.9639 17.965C18.9156 17.9648 18.8674 17.9667 18.8192 17.9671C18.7507 17.9676 18.6823 17.9676 18.6139 17.9676C18.5685 17.9675 18.5231 17.9662 18.4778 17.9669C18.4579 17.9672 18.438 17.9733 18.4182 17.9728C18.276 17.9685 18.1338 17.9632 17.9916 17.9584C17.9601 17.9573 17.9283 17.9545 17.8971 17.9571C17.8062 17.9646 17.7169 17.9765 17.6257 17.9463C17.5919 17.9351 17.547 17.952 17.5083 17.9613C17.3617 17.9962 17.2476 17.9366 17.1617 17.8278C17.0683 17.7096 16.987 17.5816 16.9024 17.4566C16.8194 17.3335 16.7387 17.209 16.6578 17.0845C16.6314 17.0438 16.6092 17.0005 16.5824 16.96C16.4752 16.7985 16.3669 16.6377 16.2593 16.4765C16.1516 16.3152 16.0444 16.1536 15.9363 15.9926C15.8568 15.8744 15.769 15.7611 15.6977 15.6382C15.5827 15.4403 15.4278 15.27 15.3174 15.0684C15.259 14.9618 15.1697 14.8723 15.0993 14.7717C15.011 14.6453 14.9286 14.5148 14.8419 14.3873C14.7488 14.2504 14.652 14.1161 14.5599 13.9785C14.4438 13.8054 14.332 13.6295 14.2163 13.4561C14.107 13.2923 13.994 13.1311 13.8849 12.9672C13.8407 12.9009 13.8033 12.83 13.7615 12.7622C13.7466 12.738 13.7269 12.717 13.7107 12.6936C13.6506 12.6069 13.6058 12.5185 13.6419 12.4063C13.6766 12.2983 13.8183 12.2142 13.9214 12.2147C14.2738 12.2163 14.6263 12.2153 14.9788 12.2146C15.4717 12.2135 15.9646 12.2123 16.4575 12.21C16.6088 12.2092 16.7602 12.2016 16.9115 12.202C17.1173 12.2027 17.3232 12.2065 17.5289 12.2115C17.7287 12.2163 17.907 12.1524 18.0617 12.0322C18.1254 11.9828 18.1711 11.9088 18.2202 11.8425C18.3049 11.728 18.3239 11.5909 18.3469 11.4553C18.3606 11.3746 18.3276 11.3012 18.3039 11.2301C18.2719 11.134 18.2392 11.0343 18.1712 10.9546C18.1476 10.9268 18.1172 10.9047 18.0883 10.8819C18.0481 10.8502 18.0086 10.8167 17.9649 10.7903C17.8414 10.7157 17.7097 10.6648 17.5623 10.6648C17.1497 10.6647 16.737 10.6642 16.3243 10.6639C15.9002 10.6638 15.4761 10.6639 15.052 10.6639V10.6651Z" fill="#F70000"/>
</g>
</g>
<defs>
<clipPath id="clip0_2707_285403">
<rect width="32" height="32" fill="white"/>
</clipPath>
</defs>
</svg>
