<svg width="32" height="32" viewBox="0 0 32 32" fill="none" xmlns="http://www.w3.org/2000/svg">
<g clip-path="url(#clip0_2707_285103)">
<path d="M16 31.9822C24.8268 31.9822 31.9823 24.8267 31.9823 16C31.9823 7.17326 24.8268 0.0177765 16 0.0177765C7.17331 0.0177765 0.0178223 7.17326 0.0178223 16C0.0178223 24.8267 7.17331 31.9822 16 31.9822Z" fill="white"/>
<path d="M19.5022 13.6267V20.4889L15.6178 21.7867L15.5111 20.64L17.6711 19.7511V16.3733L13.2266 13.0311V23.6L8.67554 25.12V5.46666L19.5022 13.6267Z" fill="#EE323C"/>
<path d="M13.9734 14.3378L14.9956 15.2711V22.9689L20.2401 21.2356V8.88889L23.3245 11.1644V23.3511L13.9734 26.5333V14.3378Z" fill="#EE323C"/>
<path d="M3.46673 32.1422C3.46673 32.1847 3.44987 32.2254 3.41987 32.2554C3.38986 32.2854 3.34916 32.3022 3.30673 32.3022C3.26429 32.3022 3.2236 32.2854 3.19359 32.2554C3.16359 32.2254 3.14673 32.1847 3.14673 32.1422C3.14673 32.0998 3.16359 32.0591 3.19359 32.0291C3.2236 31.9991 3.26429 31.9822 3.30673 31.9822C3.34916 31.9822 3.38986 31.9991 3.41987 32.0291C3.44987 32.0591 3.46673 32.0998 3.46673 32.1422Z" fill="white"/>
</g>
<defs>
<clipPath id="clip0_2707_285103">
<rect width="32" height="32" fill="white"/>
</clipPath>
</defs>
</svg>
