<svg width="32" height="32" viewBox="0 0 32 32" fill="none" xmlns="http://www.w3.org/2000/svg">
<g clip-path="url(#clip0_2707_284973)">
<path d="M16.0711 31.9822C24.8978 31.9822 32.0533 24.8267 32.0533 16C32.0533 7.17326 24.8978 0.0177765 16.0711 0.0177765C7.24435 0.0177765 0.0888672 7.17326 0.0888672 16C0.0888672 24.8267 7.24435 31.9822 16.0711 31.9822Z" fill="white"/>
<path d="M4.98657 22.0622V20.6667H5.41324C5.51953 20.6541 5.62694 20.6541 5.73324 20.6667C5.80911 20.688 5.87514 20.7351 5.91991 20.8C5.9763 20.8805 6.00444 20.9774 5.99991 21.0756C6.00341 21.1433 5.99072 21.2108 5.96289 21.2727C5.93507 21.3345 5.89291 21.3888 5.83991 21.4311C5.79895 21.4642 5.74982 21.4857 5.69768 21.4933C5.60617 21.5045 5.51364 21.5045 5.42213 21.4933H5.25324V22.0267L4.98657 22.0622ZM5.25324 20.8978V21.3333H5.39546C5.46589 21.3472 5.53836 21.3472 5.60879 21.3333C5.6422 21.3231 5.67067 21.301 5.68879 21.2711C5.70166 21.2337 5.70166 21.193 5.68879 21.1556C5.68752 21.1104 5.67196 21.0668 5.64435 21.0311C5.61792 20.9976 5.57982 20.9754 5.53768 20.9689H5.25324V20.8978Z" fill="#020202"/>
<path d="M6.63106 22.0622V20.8978H6.22217V20.6667H7.28883V20.8978H6.89772V22.0622H6.63106Z" fill="#020202"/>
<path d="M8.47101 20.6667H8.20435V22.0622H8.47101V20.6667Z" fill="#020202"/>
<path d="M8.88892 22.0622V20.6667H9.14669L9.68892 21.6V20.6667H9.93781V22.0622H9.67114L9.1378 21.1733V22.0622H8.88892Z" fill="#020202"/>
<path d="M10.2932 20.6667H10.7821C10.8647 20.655 10.9484 20.655 11.031 20.6667C11.1073 20.6874 11.1754 20.7308 11.2265 20.7911C11.2852 20.8576 11.3278 20.9367 11.351 21.0222C11.3863 21.1281 11.4014 21.2397 11.3954 21.3511C11.4107 21.4483 11.4107 21.5473 11.3954 21.6444C11.3684 21.7375 11.3196 21.8228 11.2532 21.8933C11.2 21.9428 11.1362 21.9793 11.0665 22C10.9873 22.0156 10.9058 22.0156 10.8265 22H10.3288L10.2932 20.6667ZM10.5599 20.8978V21.7867H10.9154C10.9548 21.7733 10.9911 21.7521 11.0221 21.7244C11.0595 21.6888 11.0845 21.6421 11.0932 21.5911C11.1044 21.5055 11.1044 21.4189 11.0932 21.3333C11.1049 21.2508 11.1049 21.167 11.0932 21.0844C11.0768 21.0365 11.0528 20.9914 11.0221 20.9511C10.9877 20.9185 10.9444 20.8969 10.8977 20.8889H10.6754L10.5599 20.8978Z" fill="#020202"/>
<path d="M11.6889 21.3333C11.6851 21.2118 11.7063 21.0908 11.7511 20.9778C11.7807 20.9057 11.8228 20.8395 11.8756 20.7822C11.9216 20.7283 11.9794 20.6858 12.0445 20.6578C12.1345 20.6204 12.2314 20.6023 12.3289 20.6044C12.4149 20.6003 12.5007 20.6149 12.5805 20.6471C12.6603 20.6793 12.7321 20.7284 12.7911 20.7911C12.9137 20.9411 12.9769 21.1309 12.9689 21.3244C12.9804 21.5185 12.9168 21.7095 12.7911 21.8578C12.7321 21.9204 12.6603 21.9696 12.5805 22.0018C12.5007 22.034 12.4149 22.0486 12.3289 22.0444C12.2417 22.0476 12.1549 22.0326 12.0738 22.0005C11.9927 21.9683 11.9192 21.9198 11.8578 21.8578C11.7367 21.7109 11.6763 21.5233 11.6889 21.3333ZM11.9645 21.3333C11.9579 21.4621 11.9922 21.5896 12.0622 21.6978C12.0953 21.7357 12.1364 21.7657 12.1825 21.7857C12.2286 21.8057 12.2787 21.8151 12.3289 21.8133C12.3779 21.8158 12.4269 21.8066 12.4717 21.7865C12.5165 21.7664 12.5559 21.736 12.5867 21.6978C12.665 21.5931 12.7029 21.4637 12.6933 21.3333C12.7011 21.2045 12.6668 21.0766 12.5956 20.9689C12.5625 20.931 12.5214 20.901 12.4753 20.881C12.4292 20.861 12.3791 20.8515 12.3289 20.8533C12.279 20.8538 12.2297 20.8643 12.1839 20.8841C12.1381 20.9039 12.0967 20.9328 12.0622 20.9689C11.991 21.0766 11.9567 21.2045 11.9645 21.3333Z" fill="#020202"/>
<path d="M13.8577 21.6089H14.1154C14.1255 21.6831 14.1598 21.7519 14.2132 21.8044C14.2666 21.8528 14.3368 21.8783 14.4088 21.8756C14.4425 21.879 14.4766 21.8752 14.5088 21.8645C14.541 21.8537 14.5705 21.8363 14.5954 21.8133C14.6168 21.7982 14.6344 21.7782 14.6467 21.7551C14.6591 21.7319 14.6659 21.7062 14.6666 21.68C14.6769 21.6543 14.6769 21.6257 14.6666 21.6C14.6406 21.5703 14.6067 21.5487 14.5688 21.5378L14.3554 21.4756C14.2439 21.4557 14.1396 21.4067 14.0532 21.3333C14.0151 21.2985 13.985 21.2559 13.9651 21.2083C13.9451 21.1607 13.9358 21.1093 13.9377 21.0578C13.9372 20.9861 13.9556 20.9156 13.991 20.8533C14.0285 20.7906 14.0843 20.741 14.151 20.7111C14.2367 20.6813 14.3269 20.6662 14.4177 20.6667C14.5522 20.6566 14.6857 20.6979 14.791 20.7822C14.8739 20.8648 14.9217 20.9763 14.9243 21.0933H14.6577C14.6568 21.0628 14.6494 21.0328 14.636 21.0054C14.6226 20.978 14.6034 20.9538 14.5798 20.9344C14.5562 20.915 14.5287 20.9009 14.4992 20.8931C14.4697 20.8852 14.4389 20.8838 14.4088 20.8889C14.3452 20.8863 14.2826 20.9051 14.231 20.9422C14.2169 20.9523 14.2055 20.9657 14.1978 20.9812C14.19 20.9967 14.1862 21.0138 14.1866 21.0311C14.1876 21.0469 14.1921 21.0623 14.1998 21.0761C14.2074 21.09 14.2181 21.1019 14.231 21.1111C14.3024 21.1617 14.3845 21.1952 14.471 21.2089C14.5704 21.226 14.6665 21.2591 14.7554 21.3067C14.8177 21.3396 14.8699 21.3887 14.9066 21.4489C14.9438 21.5169 14.9622 21.5936 14.9599 21.6711C14.9572 21.7491 14.9358 21.8253 14.8977 21.8933C14.8545 21.9622 14.7929 22.0176 14.7199 22.0533C14.6269 22.0914 14.527 22.1096 14.4266 22.1067C14.2881 22.1139 14.1519 22.0696 14.0443 21.9822C13.9356 21.8871 13.8685 21.753 13.8577 21.6089Z" fill="#020202"/>
<path d="M15.5732 22.0622V20.8978H15.1821V20.6667H16.231V20.8978H15.8399V22.0622H15.5732Z" fill="#020202"/>
<path d="M16.5244 22.0622V20.6667H17.0844C17.1844 20.6494 17.2866 20.6494 17.3866 20.6667C17.4504 20.6931 17.5036 20.74 17.5377 20.8C17.582 20.8654 17.6038 20.9434 17.6 21.0222C17.603 21.1162 17.5714 21.2079 17.5111 21.28C17.4784 21.3167 17.4388 21.3466 17.3946 21.3679C17.3504 21.3893 17.3023 21.4017 17.2533 21.4044C17.3065 21.4388 17.3544 21.4807 17.3955 21.5289C17.4535 21.5975 17.5041 21.672 17.5466 21.7511L17.7066 22.0267H17.3866L17.1911 21.7244C17.1523 21.65 17.1077 21.5786 17.0577 21.5111L16.9777 21.4578H16.8444H16.7911V22.0444L16.5244 22.0622ZM16.7911 21.2533H16.9866C17.0664 21.2616 17.1468 21.2616 17.2266 21.2533C17.2422 21.2486 17.2566 21.2405 17.2688 21.2298C17.2811 21.2191 17.2909 21.2059 17.2977 21.1911C17.3069 21.1592 17.3069 21.1253 17.2977 21.0933C17.3131 21.0563 17.3131 21.0148 17.2977 20.9778C17.2717 20.95 17.2374 20.9313 17.2 20.9244H16.8L16.7911 21.2533Z" fill="#020202"/>
<path d="M19.1556 22.0622H18.8712L18.7556 21.7422H18.2312L18.1156 22.0622H17.8401L18.3468 20.6667H18.6668L19.1556 22.0622ZM18.6668 21.5111L18.489 20.9867L18.3112 21.5111H18.6668Z" fill="#020202"/>
<path d="M19.68 20.6667H19.4133V22.0622H19.68V20.6667Z" fill="#020202"/>
<path d="M20.3467 22.0622V20.8978H19.9556V20.6667H21.0045V20.8978H20.6133V22.0622H20.3467Z" fill="#020202"/>
<path d="M21.2266 21.6089H21.4843C21.4944 21.6831 21.5287 21.7519 21.5821 21.8044C21.6355 21.8528 21.7057 21.8783 21.7777 21.8756C21.8484 21.8808 21.9185 21.8585 21.9732 21.8133C21.9921 21.7965 22.0073 21.776 22.018 21.7531C22.0287 21.7301 22.0347 21.7053 22.0355 21.68C22.0458 21.6543 22.0458 21.6257 22.0355 21.6C22.0095 21.5703 21.9756 21.5487 21.9377 21.5378C21.8694 21.5082 21.7978 21.4873 21.7243 21.4756C21.6128 21.4557 21.5085 21.4067 21.4221 21.3333C21.384 21.2985 21.3539 21.2559 21.334 21.2083C21.314 21.1607 21.3047 21.1093 21.3066 21.0578C21.3061 20.9861 21.3245 20.9156 21.3599 20.8533C21.3987 20.7883 21.4581 20.7383 21.5288 20.7111C21.6112 20.6803 21.6986 20.6652 21.7866 20.6667C21.9211 20.6566 22.0546 20.6979 22.1599 20.7822C22.2428 20.8648 22.2906 20.9763 22.2932 21.0933H22.0266C22.0257 21.0628 22.0183 21.0328 22.0049 21.0054C21.9915 20.978 21.9723 20.9538 21.9487 20.9344C21.9251 20.915 21.8976 20.9009 21.8681 20.8931C21.8386 20.8852 21.8078 20.8838 21.7777 20.8889C21.7141 20.8863 21.6515 20.9051 21.5999 20.9422C21.5858 20.9523 21.5744 20.9657 21.5667 20.9812C21.5589 20.9967 21.5551 21.0138 21.5555 21.0311C21.5565 21.0469 21.561 21.0623 21.5687 21.0761C21.5763 21.09 21.587 21.1019 21.5999 21.1111C21.6713 21.1617 21.7534 21.1952 21.8399 21.2089C21.9421 21.2263 22.041 21.2593 22.1332 21.3067C22.193 21.3398 22.2423 21.3891 22.2755 21.4489C22.3127 21.5169 22.3311 21.5936 22.3288 21.6711C22.3261 21.7491 22.3047 21.8253 22.2666 21.8933C22.2234 21.9622 22.1618 22.0176 22.0888 22.0533C21.9958 22.0914 21.8959 22.1096 21.7955 22.1067C21.657 22.1139 21.5208 22.0696 21.4132 21.9822C21.3045 21.8871 21.2374 21.753 21.2266 21.6089Z" fill="#020202"/>
<path d="M23.5732 22.0622V20.8978H23.1821V20.6667H24.231V20.8978H23.8399V22.0622H23.5732Z" fill="#020202"/>
<path d="M24.5066 22.0622V20.6667H24.7644V21.1644C24.7966 21.1215 24.8381 21.0863 24.8858 21.0617C24.9336 21.0371 24.9862 21.0236 25.0399 21.0222C25.0945 21.0205 25.1487 21.0316 25.1981 21.0548C25.2475 21.078 25.2908 21.1125 25.3244 21.1556C25.4099 21.2672 25.4511 21.4065 25.4399 21.5467C25.4492 21.6894 25.4084 21.8309 25.3244 21.9467C25.2899 21.9887 25.2465 22.0225 25.1973 22.0456C25.148 22.0686 25.0943 22.0804 25.0399 22.08C24.9833 22.082 24.9274 22.0665 24.8799 22.0356C24.8254 22.0064 24.7795 21.9635 24.7466 21.9111V22.0622H24.5066ZM24.7555 21.5289C24.7498 21.6123 24.7684 21.6957 24.8088 21.7689C24.8248 21.8002 24.8489 21.8266 24.8786 21.8454C24.9083 21.8642 24.9426 21.8746 24.9777 21.8756C25.0064 21.8762 25.0348 21.8691 25.0598 21.855C25.0848 21.841 25.1056 21.8204 25.1199 21.7956C25.1681 21.7253 25.1901 21.6404 25.1821 21.5556C25.1907 21.4679 25.1687 21.38 25.1199 21.3067C25.1035 21.2817 25.081 21.2613 25.0546 21.2473C25.0282 21.2333 24.9987 21.2262 24.9688 21.2267C24.9391 21.227 24.9098 21.2344 24.8836 21.2483C24.8573 21.2623 24.8347 21.2823 24.8177 21.3067C24.7734 21.372 24.7516 21.45 24.7555 21.5289Z" fill="#020202"/>
<path d="M25.7778 22.0622V20.6667H26.0356V21.4044L26.3289 21.0489H26.6401L26.3112 21.4133L26.6667 22.0622H26.3912L26.1512 21.6089L26.0356 21.7333V22.0622H25.7778Z" fill="#020202"/>
<path d="M27.1556 21.7956H26.9067V22.0622H27.1556V21.7956Z" fill="#020202"/>
<path fill-rule="evenodd" clip-rule="evenodd" d="M12.6311 12.4444C12.6311 12.4444 16.56 12.08 18.8533 14.4889C21.1467 16.8978 20.0533 17.84 20.0533 17.84C20.0533 17.84 21.6355 16.3467 19.5644 13.04C17.4933 9.73333 15.8311 9.22666 14.2222 10.6667C13.6003 11.1705 13.0631 11.7707 12.6311 12.4444Z" fill="url(#paint0_linear_2707_284973)"/>
<path fill-rule="evenodd" clip-rule="evenodd" d="M15.2889 19.0844C15.2889 19.0844 13.0489 15.7867 14.0889 12.6311C15.0844 9.62666 16.4355 9.96444 16.4355 9.96444C16.4355 9.96444 14.4 9.23555 12.4889 12.6311C10.5777 16.0267 10.88 17.7422 12.9244 18.5511C13.67 18.8822 14.4734 19.0634 15.2889 19.0844Z" fill="url(#paint1_linear_2707_284973)"/>
<path fill-rule="evenodd" clip-rule="evenodd" d="M19.6977 13.4044C19.6977 13.4044 18.0444 16.96 14.8355 17.7422C11.7688 18.4533 11.3333 17.1111 11.3333 17.1111C11.3333 17.1111 11.831 19.2178 15.7333 19.0844C19.6355 18.9511 20.8977 17.7778 20.4444 15.6356C20.3155 14.8569 20.0635 14.1038 19.6977 13.4044Z" fill="url(#paint2_linear_2707_284973)"/>
<path fill-rule="evenodd" clip-rule="evenodd" d="M17.8845 10.9244C16.9956 11.1289 16.1067 11.5644 16.1067 12.8711C17.1459 13.1692 18.0895 13.7329 18.8445 14.5067C20.9956 16.8089 20.0445 17.8578 20.0445 17.8578C20.0445 17.8578 21.6267 16.3644 19.5556 13.0578C19.0862 12.2821 18.5251 11.5659 17.8845 10.9244Z" fill="url(#paint3_linear_2707_284973)"/>
</g>
<defs>
<linearGradient id="paint0_linear_2707_284973" x1="15.4825" y1="11.1263" x2="19.9269" y2="16.6641" gradientUnits="userSpaceOnUse">
<stop stop-color="#539149"/>
<stop offset="0.52" stop-color="#80C24D"/>
<stop offset="1" stop-color="#ADD37B"/>
</linearGradient>
<linearGradient id="paint1_linear_2707_284973" x1="13.5236" y1="16.8051" x2="15.2392" y2="9.30284" gradientUnits="userSpaceOnUse">
<stop stop-color="#0D6F99"/>
<stop offset="0.44" stop-color="#79C7E0"/>
<stop offset="1" stop-color="#D7EFF7"/>
</linearGradient>
<linearGradient id="paint2_linear_2707_284973" x1="13.0357" y1="18.6644" x2="18.7512" y2="15.9177" gradientUnits="userSpaceOnUse">
<stop stop-color="#57B3DF"/>
<stop offset="0.49" stop-color="#2F92D0"/>
<stop offset="1" stop-color="#2B3F89"/>
</linearGradient>
<linearGradient id="paint3_linear_2707_284973" x1="16.4239" y1="10.3707" x2="20.8684" y2="15.9085" gradientUnits="userSpaceOnUse">
<stop stop-color="#539149"/>
<stop offset="0.52" stop-color="#80C24D"/>
<stop offset="1" stop-color="#ADD37B"/>
</linearGradient>
<clipPath id="clip0_2707_284973">
<rect width="32" height="32" fill="white"/>
</clipPath>
</defs>
</svg>
