<svg width="32" height="32" viewBox="0 0 32 32" fill="none" xmlns="http://www.w3.org/2000/svg">
<g clip-path="url(#clip0_2707_283768)">
<path d="M16 31.9823C24.8268 31.9823 31.9823 24.8268 31.9823 16C31.9823 7.17331 24.8268 0.0178223 16 0.0178223C7.17331 0.0178223 0.0178223 7.17331 0.0178223 16C0.0178223 24.8268 7.17331 31.9823 16 31.9823Z" fill="white"/>
<path d="M26.4 20.9333C26.3813 20.9702 26.3665 21.009 26.3556 21.0489C26.1867 21.6355 26.0267 22.2133 25.8667 22.8267C25.7956 23.0844 25.7956 23.0844 25.5289 23.0844C25.1022 23.0844 25.12 23.0844 25.0222 22.7022C24.8711 22.1422 24.7378 21.5733 24.5956 21.0133C24.5956 21.0133 24.5956 21.0133 24.5334 20.96C24.4711 21.3689 24.48 21.7867 24.4534 22.1955C24.4267 22.6044 24.4534 23.0133 24.4089 23.44H23.9111V23.2889C23.9111 22.4711 23.9734 21.6622 24.0089 20.8444C23.9953 20.786 23.9953 20.7251 24.0089 20.6667C24.0089 20.6133 24.1067 20.5422 24.16 20.5422C24.2134 20.5422 24.5245 20.5422 24.7022 20.5422C24.88 20.5422 24.8711 20.64 24.9067 20.7467C25.0222 21.1822 25.1467 21.6355 25.2711 22.0533L25.4489 22.7111H25.4934L25.5467 22.5155C25.5467 22.3733 25.5467 22.2311 25.6267 22.0889L25.9734 20.7644C26.0267 20.5511 26.0534 20.5333 26.2756 20.5333H26.6667C26.9334 20.5333 26.96 20.5333 26.9778 20.8267C26.9956 21.12 26.9778 21.4044 26.9778 21.7155C26.9778 22.2489 26.9778 22.7911 27.04 23.3244C27.0439 23.3688 27.0439 23.4134 27.04 23.4578H26.5511L26.4445 20.9955L26.4 20.9333Z" fill="#0E0040"/>
<path d="M17.1023 23.4134V21.0223C17.1092 20.9105 17.1301 20.8 17.1645 20.6934C17.1772 20.6307 17.212 20.5746 17.2626 20.5355C17.3132 20.4963 17.3762 20.4766 17.4401 20.4801C17.7775 20.4578 18.116 20.4578 18.4534 20.4801C18.6484 20.4962 18.8313 20.581 18.9697 20.7194C19.108 20.8577 19.1928 21.0406 19.209 21.2356C19.3072 21.7106 19.3072 22.2006 19.209 22.6756C19.1808 22.8908 19.0748 23.0882 18.911 23.2307C18.7473 23.3732 18.5371 23.4508 18.3201 23.4489C17.9823 23.4489 17.6445 23.4489 17.3067 23.4489L17.1023 23.4134ZM17.5823 23.0312C17.8134 23.0312 18.0179 23.0312 18.2223 23.0312C18.3296 23.0304 18.4332 22.9915 18.5146 22.9216C18.596 22.8516 18.6499 22.755 18.6667 22.6489C18.7868 22.1855 18.7868 21.6991 18.6667 21.2356C18.6485 21.1398 18.5979 21.0531 18.5235 20.99C18.4491 20.927 18.3554 20.8913 18.2579 20.8889H17.7779C17.609 20.8889 17.5912 20.8889 17.5912 21.0934V23.0489L17.5823 23.0312Z" fill="#0E0040"/>
<path d="M13.3334 22.0623C13.413 22.1047 13.4833 22.1628 13.5398 22.233C13.5963 22.3033 13.638 22.3843 13.6623 22.4712C13.7245 22.7023 13.7956 22.9334 13.8579 23.1645C13.877 23.2437 13.8918 23.3238 13.9023 23.4045H13.3334L13.1201 22.6045L13.0667 22.4356C13.0488 22.3779 13.0117 22.328 12.9617 22.294C12.9116 22.2601 12.8515 22.2442 12.7912 22.249H12.2401V23.4045H11.7779C11.7739 23.3424 11.7739 23.28 11.7779 23.2179C11.7779 22.4979 11.7779 21.7779 11.7779 21.0579C11.7647 20.9771 11.7706 20.8943 11.7951 20.8162C11.8196 20.7381 11.8621 20.6668 11.9191 20.608C11.9761 20.5493 12.0461 20.5047 12.1235 20.4779C12.2008 20.451 12.2834 20.4426 12.3645 20.4534C12.6579 20.4534 12.9512 20.4534 13.2534 20.4534C13.3891 20.4637 13.5166 20.5222 13.6129 20.6184C13.7091 20.7147 13.7676 20.8422 13.7779 20.9779C13.7956 21.1611 13.7956 21.3457 13.7779 21.529C13.7746 21.6549 13.7289 21.776 13.6483 21.8728C13.5676 21.9696 13.4567 22.0364 13.3334 22.0623ZM12.2934 21.8223H12.8267C13.209 21.8223 13.3334 21.689 13.3245 21.3156C13.3245 21.2712 13.3245 21.2356 13.3245 21.1912C13.3245 20.9868 13.209 20.8979 13.0045 20.8801C12.8001 20.8623 12.6312 20.8801 12.4445 20.8801C12.2579 20.8801 12.3112 20.9423 12.3112 21.0401C12.2579 21.2801 12.249 21.5379 12.249 21.8223H12.2934Z" fill="#0E0040"/>
<path d="M22.8356 23.4133H22.2933L22.0978 22.6045H21.04L20.8089 23.4133H20.3289C20.324 23.375 20.324 23.3361 20.3289 23.2978C20.4711 22.7911 20.6222 22.2933 20.7733 21.7956C20.88 21.44 20.9778 21.0845 21.0844 20.7289C21.1911 20.3733 21.1822 20.4978 21.4133 20.4978H21.7511C21.92 20.4978 21.9556 20.4978 22.0089 20.6845C22.0622 20.8711 22.1244 21.1111 22.1867 21.3156C22.3378 21.8311 22.4889 22.3467 22.6489 22.8533L22.8356 23.4133ZM21.9467 22.16C21.9467 22.16 21.9467 22.0889 21.9467 22.0533L21.6444 21.0045C21.6175 20.9668 21.5878 20.9311 21.5556 20.8978C21.5259 20.929 21.5018 20.9651 21.4844 21.0045C21.3778 21.3689 21.28 21.7333 21.1822 22.0889C21.1772 22.1123 21.1772 22.1366 21.1822 22.16H21.9467Z" fill="#0E0040"/>
<path d="M5.33339 23.4045V21.0045C5.32329 20.8713 5.36112 20.7389 5.44006 20.6312C5.46111 20.5772 5.49767 20.5307 5.54512 20.4975C5.59258 20.4642 5.64881 20.4458 5.70673 20.4445C6.056 20.4223 6.40634 20.4223 6.75561 20.4445C7.12006 20.4445 7.25339 20.6401 7.27117 20.9956C7.28903 21.2472 7.28903 21.4996 7.27117 21.7512C7.27415 21.8689 7.2329 21.9835 7.15557 22.0724C7.07824 22.1612 6.97043 22.2179 6.85339 22.2312C6.59579 22.2445 6.33767 22.2445 6.08006 22.2312H5.84895V23.3334L5.33339 23.4045ZM5.84006 21.8934C6.08006 21.8934 6.29339 21.8934 6.51561 21.8934C6.58653 21.8913 6.6541 21.8628 6.70508 21.8135C6.75606 21.7641 6.78677 21.6975 6.79117 21.6267C6.80449 21.464 6.80449 21.3005 6.79117 21.1378C6.7868 21.0741 6.75892 21.0143 6.71293 20.9699C6.66694 20.9256 6.60613 20.8999 6.54228 20.8978C6.35561 20.8978 6.16895 20.8978 5.98228 20.8978C5.79561 20.8978 5.84895 20.8978 5.84895 21.0134V21.9023L5.84006 21.8934Z" fill="#0E0040"/>
<path d="M8.31104 20.4978H8.80881L9.48437 21.9734C9.5377 21.84 9.58215 21.7156 9.63548 21.5911C9.76881 21.2622 9.91103 20.9422 10.0444 20.6134C10.0444 20.5422 10.1066 20.4889 10.1866 20.4978H10.6666C10.5066 20.8178 10.3733 21.12 10.231 21.3867C10.0888 21.6534 9.96437 21.8845 9.8577 22.1334C9.79619 22.2803 9.76012 22.4366 9.75104 22.5956C9.75104 22.8445 9.75104 23.1022 9.75104 23.3778H9.25326C9.24437 23.2773 9.24437 23.1761 9.25326 23.0756C9.30326 22.6433 9.20281 22.2069 8.96881 21.84C8.84624 21.6227 8.7393 21.397 8.64881 21.1645L8.31104 20.4978Z" fill="#0E0040"/>
<path d="M15.6355 20.5067H15.1555V23.4045H15.6355V20.5067Z" fill="#0E0040"/>
<path d="M13.2089 10.7378C13.3244 10.5422 13.4311 10.3467 13.5378 10.1511L15.6978 6.43555C15.7174 6.37154 15.7577 6.31585 15.8124 6.27724C15.8671 6.23863 15.9331 6.21927 16 6.22222C16.0464 6.2345 16.0895 6.25677 16.1264 6.28748C16.1632 6.31819 16.1929 6.3566 16.2133 6.39999L16.8889 7.60888L17.6622 8.9511L18.3822 10.1867C18.4889 10.3555 18.5867 10.5333 18.6844 10.7022H18.5244H18.6844L19.1644 11.5911L20.0978 13.1822C20.3556 13.6355 20.6133 14.0711 20.88 14.5333C20.9867 14.7289 21.1022 14.9155 21.2089 15.1022C21.2595 15.1806 21.29 15.2703 21.2977 15.3633C21.3055 15.4563 21.2902 15.5498 21.2533 15.6355L20.3644 15.28L19.4311 14.9155C19.2711 14.6489 19.12 14.3733 18.9689 14.1067L17.0756 10.8444V10.7733L16 8.88888C15.9763 8.91636 15.9555 8.94614 15.9378 8.97777L14.9244 10.7555L14.8622 10.8533L13.9733 12.32L12.5067 14.8533L12.4622 14.9333L11.5556 15.2444L10.6667 15.5911C10.6292 15.5167 10.6096 15.4345 10.6096 15.3511C10.6096 15.2677 10.6292 15.1855 10.6667 15.1111C10.9511 14.6044 11.2444 14.0978 11.5556 13.6L12.4889 11.9822L13.1822 10.8L13.2089 10.7378Z" fill="url(#paint0_linear_2707_283768)" stroke="#008DE9" stroke-width="0.03" stroke-linejoin="round"/>
<path d="M19.4577 14.8711L20.3911 15.2355L21.28 15.5911C21.2534 15.6856 21.2025 15.7715 21.1323 15.8402C21.0621 15.9088 20.9751 15.9578 20.88 15.9822L18.8711 16.6311L16.32 17.4666L15.9822 17.5644C15.986 17.5409 15.986 17.5169 15.9822 17.4933V16.0711C15.9822 16.0089 15.9822 15.9911 16.0622 15.9733L18.8355 15.0844L19.4577 14.8711Z" fill="url(#paint1_linear_2707_283768)"/>
<path d="M10.6667 15.5911L11.5556 15.2444L12.4445 14.8711L13.3334 15.1111L14.5601 15.5111L16.0001 16V17.5733L15.5112 17.4222L11.0934 16C10.9917 15.9774 10.8981 15.9274 10.8228 15.8553C10.7476 15.7832 10.6936 15.6918 10.6667 15.5911Z" fill="url(#paint2_linear_2707_283768)"/>
</g>
<defs>
<linearGradient id="paint0_linear_2707_283768" x1="20.5612" y1="8.99759" x2="20.579" y2="16.0998" gradientUnits="userSpaceOnUse">
<stop stop-color="#0181E9"/>
<stop offset="1" stop-color="#00D9F1"/>
</linearGradient>
<linearGradient id="paint1_linear_2707_283768" x1="19.0943" y1="13.4687" x2="22.9165" y2="12.1265" gradientUnits="userSpaceOnUse">
<stop stop-color="#BE48FE"/>
<stop offset="1" stop-color="#9114FF"/>
</linearGradient>
<linearGradient id="paint2_linear_2707_283768" x1="12.2066" y1="15.2394" x2="7.92213" y2="13.8083" gradientUnits="userSpaceOnUse">
<stop stop-color="#0173FA"/>
<stop offset="1" stop-color="#0149B0"/>
</linearGradient>
<clipPath id="clip0_2707_283768">
<rect width="32" height="32" fill="white"/>
</clipPath>
</defs>
</svg>
