<svg width="32" height="32" viewBox="0 0 32 32" fill="none" xmlns="http://www.w3.org/2000/svg">
<g clip-path="url(#clip0_2707_283518)">
<path d="M16 32C24.8366 32 32 24.8366 32 16C32 7.16344 24.8366 0 16 0C7.16344 0 0 7.16344 0 16C0 24.8366 7.16344 32 16 32Z" fill="white"/>
<path d="M16.0001 29.3334C23.3639 29.3334 29.3334 23.3638 29.3334 16C29.3334 8.63622 23.3639 2.66669 16.0001 2.66669C8.63628 2.66669 2.66675 8.63622 2.66675 16C2.66675 23.3638 8.63628 29.3334 16.0001 29.3334Z" fill="white"/>
<path d="M25.2622 6.73779H6.7644V25.2356H25.2622V6.73779Z" fill="#EA3D3E"/>
<path fill-rule="evenodd" clip-rule="evenodd" d="M8 8.04444V21.7778H13.8222V13.6444C13.8222 13.6444 17.1644 13.6444 17.6267 13.6444C18.3111 13.6444 18.7822 13.8844 18.7822 14.5333C18.7822 15.1822 18.0089 15.5644 17.2444 16.2311C16.48 16.8978 15.3333 17.7422 15.4133 19.4578C15.4933 21.0311 16.9244 21.8311 18.4178 21.8133H24V8H8V8.04444ZM22.0178 19.68C22.0178 19.68 18.8267 19.68 18.3644 19.68C17.4756 19.68 17.36 18.8889 17.84 18.4267C18.32 17.9644 19.2533 16.9333 19.7156 16.5156C20.2778 16.0757 20.6501 15.4371 20.7559 14.7311C20.8617 14.0251 20.693 13.3054 20.2844 12.72C19.9471 12.3341 19.5204 12.0368 19.0416 11.8539C18.5628 11.6711 18.0464 11.6083 17.5378 11.6711H11.8133V19.6711H10.0356V10.1778H22.0356L22.0178 19.68Z" fill="#FDFDFD"/>
<path fill-rule="evenodd" clip-rule="evenodd" d="M8 22.0622H9.27111C9.35945 22.0523 9.44889 22.0609 9.53372 22.0875C9.61855 22.1141 9.69691 22.158 9.76381 22.2166C9.83072 22.2751 9.88469 22.347 9.92229 22.4275C9.9599 22.5081 9.98031 22.5956 9.98222 22.6844C9.98802 22.7985 9.95987 22.9118 9.90134 23.0098C9.8428 23.1079 9.75649 23.1865 9.65333 23.2355C9.74861 23.267 9.82816 23.3338 9.87556 23.4222C9.93063 23.5169 9.96118 23.6238 9.96444 23.7333C9.96444 23.84 9.96444 23.9378 9.96444 24.0355C9.96893 24.1076 9.99024 24.1776 10.0267 24.24H9.35111C9.35111 24.1867 9.35111 24.1244 9.30667 24.0711C9.30297 23.9045 9.27297 23.7395 9.21778 23.5822C9.1954 23.5445 9.16236 23.5142 9.12281 23.4952C9.08327 23.4763 9.03899 23.4694 8.99556 23.4755H8.69333V24.24H8V22.0622ZM8.66667 23.0133H9.02222C9.17333 23.0133 9.31556 23.0133 9.31556 22.8C9.31556 22.5867 9.13778 22.5867 8.98667 22.5867H8.70222V23.0133H8.66667Z" fill="#FDFDFD"/>
<path fill-rule="evenodd" clip-rule="evenodd" d="M11.8133 23.8933C11.8007 24.0135 11.8256 24.1345 11.8844 24.24H11.2711C11.266 24.2166 11.266 24.1923 11.2711 24.1689C11.2711 24.1689 11.2711 24.1156 11.2711 24.0889C11.2048 24.1573 11.1242 24.2104 11.0351 24.2442C10.946 24.278 10.8505 24.2917 10.7555 24.2844C10.4533 24.2844 10.2044 24.1333 10.2044 23.8044C10.1954 23.7393 10.2039 23.6729 10.2289 23.612C10.2538 23.5511 10.2945 23.4979 10.3466 23.4578C10.5003 23.3812 10.6654 23.3302 10.8355 23.3067C10.9686 23.2905 11.0996 23.2607 11.2266 23.2178C11.2344 23.2027 11.2385 23.1859 11.2385 23.1689C11.2385 23.1519 11.2344 23.1351 11.2266 23.12C11.2273 23.0979 11.2229 23.076 11.2136 23.0559C11.2043 23.0359 11.1905 23.0182 11.1733 23.0044C11.1268 22.9911 11.0775 22.9911 11.0311 23.0044C10.9244 23.0044 10.8088 23.0044 10.8088 23.1733H10.24C10.2385 23.1003 10.2538 23.0279 10.2846 22.9617C10.3154 22.8954 10.361 22.8371 10.4177 22.7911C10.6119 22.6804 10.8349 22.6308 11.0577 22.6489C11.3955 22.6489 11.6 22.7022 11.68 22.8089C11.7757 22.943 11.8199 23.1071 11.8044 23.2711V23.92L11.8133 23.8933ZM11.2355 23.5378H11.1288C11.0257 23.5514 10.9262 23.5846 10.8355 23.6356C10.8184 23.6475 10.8045 23.6635 10.7952 23.6821C10.7859 23.7007 10.7814 23.7214 10.7822 23.7422C10.7834 23.7627 10.7887 23.7827 10.7979 23.801C10.807 23.8194 10.8198 23.8357 10.8355 23.8489C10.8777 23.8769 10.9271 23.8923 10.9777 23.8933C11.0418 23.8904 11.1036 23.8687 11.1555 23.8311C11.1811 23.8077 11.2009 23.7786 11.2132 23.7462C11.2256 23.7138 11.2302 23.679 11.2266 23.6444V23.5022L11.2355 23.5378Z" fill="#FDFDFD"/>
<path fill-rule="evenodd" clip-rule="evenodd" d="M12.1245 22.6578H12.7023V22.8711C12.7618 22.789 12.841 22.7231 12.9327 22.6796C13.0243 22.6361 13.1255 22.6164 13.2267 22.6222C13.3145 22.6176 13.4018 22.6377 13.4788 22.6801C13.5557 22.7225 13.6193 22.7856 13.6623 22.8622C13.7285 22.7836 13.8117 22.7212 13.9057 22.6796C13.9996 22.638 14.1018 22.6184 14.2045 22.6222C14.2766 22.6156 14.3493 22.6247 14.4175 22.649C14.4857 22.6733 14.5478 22.7122 14.5994 22.763C14.6511 22.8138 14.691 22.8752 14.7164 22.943C14.7419 23.0108 14.7522 23.0834 14.7467 23.1556V24.24H14.1334V23.3511C14.1334 23.2 14.1334 23.0756 13.9378 23.0756C13.7423 23.0756 13.7334 23.2178 13.7334 23.3511V24.24H13.129V23.3511C13.129 23.2 13.129 23.0756 12.9334 23.0756C12.7378 23.0756 12.729 23.2178 12.729 23.3511V24.24H12.1245V22.6578Z" fill="#FDFDFD"/>
<path fill-rule="evenodd" clip-rule="evenodd" d="M16.5865 23.8933C16.5821 23.9584 16.5821 24.0238 16.5865 24.0889C16.5964 24.1431 16.6176 24.1946 16.6488 24.24H16.0354C16.0354 24.24 16.0354 24.1955 16.0354 24.1689V24.0889C15.9742 24.16 15.8941 24.2124 15.8043 24.24C15.7121 24.2684 15.6163 24.2833 15.5199 24.2844C15.3735 24.2896 15.2296 24.2458 15.111 24.16C15.0601 24.1163 15.0201 24.0615 14.9939 23.9999C14.9676 23.9382 14.956 23.8713 14.9599 23.8044C14.9516 23.7397 14.9614 23.6739 14.988 23.6143C15.0147 23.5547 15.0572 23.5037 15.111 23.4666C15.2613 23.382 15.428 23.3304 15.5999 23.3155C15.733 23.2951 15.8639 23.2623 15.991 23.2178C16.0017 23.2023 16.0082 23.1844 16.0098 23.1656C16.0113 23.1469 16.0079 23.1281 15.9999 23.1111C16.004 23.0899 16.001 23.068 15.9914 23.0487C15.9817 23.0294 15.966 23.0138 15.9465 23.0044C15.9043 22.9764 15.855 22.961 15.8043 22.96C15.7404 22.9542 15.6767 22.9733 15.6265 23.0133C15.5951 23.0439 15.5761 23.0851 15.5732 23.1289H15.0221C15.0186 23.0555 15.0329 22.9824 15.0639 22.9158C15.0948 22.8493 15.1415 22.7912 15.1999 22.7466C15.3907 22.6356 15.611 22.5859 15.831 22.6044C16.1688 22.6044 16.3732 22.6578 16.4621 22.7644C16.5538 22.9004 16.5976 23.063 16.5865 23.2266V23.8844V23.8933ZM16.0088 23.5378H15.9021H15.751C15.7006 23.5509 15.6526 23.5719 15.6088 23.6C15.5958 23.6344 15.5958 23.6723 15.6088 23.7066C15.608 23.7275 15.6125 23.7481 15.6218 23.7668C15.6311 23.7854 15.645 23.8014 15.6621 23.8133C15.7011 23.8411 15.7475 23.8566 15.7954 23.8578C15.8625 23.856 15.9274 23.8343 15.9821 23.7955C16.0276 23.744 16.0529 23.6776 16.0532 23.6089L16.0088 23.5378Z" fill="#FDFDFD"/>
<path fill-rule="evenodd" clip-rule="evenodd" d="M17.9554 24.1244L17.8488 24.4089C17.8187 24.4732 17.7798 24.533 17.7332 24.5866C17.6762 24.6607 17.5939 24.7113 17.5021 24.7289C17.3721 24.7421 17.241 24.7421 17.111 24.7289H16.8354V24.24H17.0488H17.1732C17.1901 24.2263 17.203 24.2084 17.2108 24.1881C17.2186 24.1678 17.221 24.1459 17.2177 24.1244C17.199 24.0208 17.1692 23.9195 17.1288 23.8222L16.951 23.3778L16.6843 22.6489H17.3243L17.5821 23.5378L17.8399 22.6489H18.471L17.9465 24.1155L17.9554 24.1244Z" fill="#FDFDFD"/>
<path fill-rule="evenodd" clip-rule="evenodd" d="M20.1245 23.8933C20.1192 23.9584 20.1192 24.0238 20.1245 24.0889C20.1305 24.1441 20.1521 24.1965 20.1867 24.24H19.5556C19.5506 24.2165 19.5506 24.1923 19.5556 24.1689C19.5513 24.1424 19.5513 24.1154 19.5556 24.0889C19.4978 24.1597 19.4206 24.2123 19.3334 24.24C19.238 24.2677 19.1394 24.2827 19.0401 24.2844C18.8963 24.2912 18.7547 24.2471 18.6401 24.16C18.5875 24.1178 18.5462 24.0632 18.5199 24.0012C18.4935 23.9391 18.4829 23.8716 18.489 23.8044C18.4845 23.7372 18.4987 23.67 18.5301 23.6104C18.5615 23.5508 18.6088 23.501 18.6667 23.4666C18.8182 23.3848 18.9843 23.3334 19.1556 23.3155C19.289 23.2965 19.4201 23.2637 19.5467 23.2178C19.5567 23.202 19.5627 23.1841 19.5643 23.1655C19.5658 23.1469 19.5629 23.1283 19.5556 23.1111C19.5573 23.0901 19.5532 23.0691 19.5438 23.0503C19.5344 23.0316 19.52 23.0157 19.5023 23.0044C19.4595 22.9776 19.4105 22.9623 19.3601 22.96C19.2962 22.9542 19.2325 22.9733 19.1823 23.0133C19.165 23.0271 19.1512 23.0447 19.142 23.0648C19.1327 23.0848 19.1283 23.1068 19.129 23.1289H18.569C18.5654 23.0555 18.5798 22.9824 18.6107 22.9158C18.6417 22.8493 18.6884 22.7912 18.7467 22.7466C18.9375 22.6356 19.1579 22.5859 19.3779 22.6044C19.7156 22.6044 19.9201 22.6578 20.009 22.7644C20.1007 22.9004 20.1445 23.063 20.1334 23.2266V23.8844L20.1245 23.8933ZM19.5467 23.5378H19.4312H19.289C19.238 23.5492 19.1897 23.5703 19.1467 23.6C19.129 23.6107 19.1151 23.6269 19.1071 23.646C19.0991 23.6652 19.0974 23.6865 19.1023 23.7066C19.1015 23.7275 19.106 23.7481 19.1154 23.7668C19.1247 23.7854 19.1385 23.8014 19.1556 23.8133C19.1941 23.8422 19.2409 23.8578 19.289 23.8578C19.3532 23.8559 19.4153 23.8341 19.4667 23.7955C19.492 23.7715 19.5122 23.7425 19.5259 23.7104C19.5397 23.6783 19.5467 23.6438 19.5467 23.6089V23.5378Z" fill="#FDFDFD"/>
<path fill-rule="evenodd" clip-rule="evenodd" d="M20.4443 22.6578H21.031V22.8622C21.0858 22.7823 21.1632 22.7204 21.2532 22.6845C21.3646 22.6331 21.4877 22.6126 21.6096 22.6252C21.7316 22.6377 21.848 22.6827 21.9466 22.7556C21.9982 22.8099 22.0383 22.8741 22.0643 22.9444C22.0902 23.0147 22.1016 23.0896 22.0977 23.1645V24.2489H21.4932V23.4222C21.5112 23.3432 21.5112 23.2612 21.4932 23.1822C21.4756 23.1569 21.4514 23.1369 21.4232 23.1243C21.395 23.1118 21.3638 23.1072 21.3332 23.1111C21.2697 23.1116 21.209 23.1371 21.1643 23.1822C21.1108 23.2502 21.0853 23.3361 21.0932 23.4222V24.2578H20.4443V22.6667V22.6578Z" fill="#FDFDFD"/>
<path fill-rule="evenodd" clip-rule="evenodd" d="M23.9377 23.8933C23.9377 23.9733 23.9377 24.0444 23.9377 24.0889C23.9437 24.1441 23.9653 24.1965 23.9999 24.24H23.3866C23.3866 24.24 23.3866 24.1956 23.3866 24.1689V24.0889C23.3253 24.16 23.2452 24.2124 23.1554 24.24C23.0633 24.2684 22.9675 24.2834 22.871 24.2844C22.7246 24.2896 22.5808 24.2458 22.4621 24.16C22.4113 24.1164 22.3712 24.0616 22.345 23.9999C22.3188 23.9382 22.3071 23.8713 22.311 23.8044C22.3018 23.7405 22.3102 23.6753 22.3352 23.6158C22.3603 23.5563 22.4011 23.5048 22.4532 23.4667C22.6035 23.382 22.7702 23.3305 22.9421 23.3156C23.0752 23.2951 23.2061 23.2623 23.3332 23.2178C23.341 23.2027 23.3451 23.1859 23.3451 23.1689C23.3451 23.1519 23.341 23.1351 23.3332 23.12C23.3373 23.0988 23.3343 23.0769 23.3247 23.0576C23.3151 23.0383 23.2993 23.0227 23.2799 23.0133C23.2377 22.9853 23.1883 22.9699 23.1377 22.9689C23.0737 22.9631 23.0101 22.9822 22.9599 23.0222C22.9285 23.0528 22.9095 23.094 22.9066 23.1378H22.3466C22.343 23.0644 22.3573 22.9913 22.3883 22.9247C22.4193 22.8582 22.466 22.8001 22.5243 22.7556C22.7151 22.6445 22.9355 22.5949 23.1554 22.6133C23.4932 22.6133 23.6977 22.6667 23.7866 22.7733C23.8783 22.9093 23.922 23.0719 23.911 23.2356V23.8933H23.9377ZM23.3599 23.5378H23.2532H23.1021C23.0512 23.5492 23.0029 23.5704 22.9599 23.6C22.9469 23.6344 22.9469 23.6723 22.9599 23.7067C22.9591 23.7275 22.9636 23.7482 22.9729 23.7668C22.9823 23.7854 22.9961 23.8014 23.0132 23.8133C23.0522 23.8411 23.0987 23.8566 23.1466 23.8578C23.2136 23.856 23.2786 23.8344 23.3332 23.7956C23.3787 23.744 23.404 23.6777 23.4043 23.6089L23.3599 23.5378Z" fill="#FDFDFD"/>
</g>
<defs>
<clipPath id="clip0_2707_283518">
<rect width="32" height="32" fill="white"/>
</clipPath>
</defs>
</svg>
