<svg width="32" height="32" viewBox="0 0 32 32" fill="none" xmlns="http://www.w3.org/2000/svg">
<g clip-path="url(#clip0_2707_283433)">
<path d="M16 31.9822C24.8268 31.9822 31.9823 24.8267 31.9823 16C31.9823 7.17325 24.8268 0.0177612 16 0.0177612C7.17331 0.0177612 0.0178223 7.17325 0.0178223 16C0.0178223 24.8267 7.17331 31.9822 16 31.9822Z" fill="white"/>
<path d="M15.5733 22.5777H4.70215V7.27997H24.6844V22.5955H17.9999C17.1296 22.1635 16.3047 21.6453 15.5377 21.0489C17.0044 20.72 18.4266 20.48 19.8133 20.0889C21.1854 19.7714 22.3861 18.9456 23.1733 17.7777C23.4615 17.3683 23.6242 16.8838 23.6415 16.3834C23.6589 15.883 23.5302 15.3884 23.271 14.96C22.8756 14.2836 22.3315 13.7061 21.6799 13.2711C20.4473 12.5161 19.0944 11.9779 17.6799 11.68C17.0779 11.5616 16.4694 11.4785 15.8577 11.4311L15.8133 11.6177C15.9608 11.6973 16.1156 11.7628 16.2755 11.8133C17.8167 12.086 19.2323 12.8389 20.3199 13.9644C20.7022 14.3261 20.9604 14.7993 21.0578 15.3165C21.1552 15.8337 21.0867 16.3685 20.8621 16.8444C20.513 17.5255 20.0182 18.1215 19.413 18.59C18.8077 19.0585 18.1068 19.3882 17.3599 19.5555C16.698 19.7707 16.0204 19.9341 15.3333 20.0444C14.7973 20.1235 14.2505 20.081 13.7333 19.92C12.4444 19.5555 11.191 18.8622 9.86659 18.5422C8.76521 18.3619 7.64842 18.2934 6.53326 18.3377C6.3377 18.3377 5.99993 18.48 5.96437 18.6222C5.93511 18.7431 5.93351 18.869 5.95967 18.9906C5.98583 19.1122 6.03909 19.2263 6.11548 19.3244C6.37233 19.574 6.67388 19.773 7.00437 19.9111C8.2541 20.339 9.56795 20.5494 10.8888 20.5333C11.8699 20.5069 12.8363 20.7763 13.6621 21.3066C14.2221 21.7866 14.9244 22.16 15.5733 22.5777Z" fill="#0F5631"/>
<path d="M15.5734 22.5778C14.9245 22.16 14.24 21.7778 13.6445 21.3067C12.8159 20.7751 11.8463 20.5056 10.8623 20.5333C9.54439 20.5484 8.23363 20.338 6.98671 19.9111C6.65622 19.7731 6.35468 19.574 6.09782 19.3244C6.03134 19.23 5.98516 19.1227 5.96221 19.0095C5.93926 18.8963 5.94004 18.7796 5.96449 18.6667C5.96449 18.5155 6.33782 18.3822 6.54227 18.3822C7.65448 18.3379 8.76832 18.4063 9.86671 18.5867C11.2 18.9067 12.4356 19.5555 13.7423 19.9822C14.2567 20.1417 14.7996 20.1872 15.3334 20.1155C16.0225 19.9819 16.7001 19.7947 17.36 19.5555C18.1138 19.381 18.8192 19.0407 19.425 18.5595C20.0308 18.0782 20.5218 17.4681 20.8623 16.7733C21.0841 16.2968 21.1511 15.7628 21.0539 15.2462C20.9566 14.7297 20.7 14.2565 20.32 13.8933C19.2277 12.7741 17.8143 12.0223 16.2756 11.7422C16.1143 11.6955 15.9592 11.6299 15.8134 11.5467L15.8578 11.36C16.4696 11.4074 17.078 11.4905 17.68 11.6089C19.0921 11.9148 20.4437 12.4524 21.68 13.2C22.3362 13.6333 22.8813 14.2149 23.2712 14.8978C23.5435 15.333 23.6797 15.8396 23.6623 16.3527C23.6449 16.8658 23.4746 17.362 23.1734 17.7778C22.3905 18.9585 21.1903 19.7999 19.8134 20.1333C18.4445 20.5244 17.0045 20.7733 15.5378 21.0933C16.3025 21.6957 17.1276 22.217 18 22.6489C18.4637 22.9719 18.9579 23.2488 19.4756 23.4755C20.6824 23.8496 21.9493 23.9914 23.2089 23.8933C24.0254 23.7918 24.8072 23.5028 25.4934 23.0489C25.8489 22.8533 26.1867 22.6222 26.5423 22.4355C26.8978 22.2489 27.0134 22.2222 27.2978 22.0978C27.2978 22.0978 27.2978 22.24 27.2267 22.2844C26.7379 22.6854 26.2276 23.0593 25.6978 23.4044C24.9388 23.9177 24.1211 24.3385 23.2623 24.6578C22.5246 24.7912 21.7689 24.7912 21.0312 24.6578C19.8795 24.4891 18.7591 24.1506 17.7067 23.6533C17.0667 23.4044 16.48 23.0222 15.8667 22.7111C15.7729 22.6584 15.6748 22.6138 15.5734 22.5778ZM6.58671 18.8622L6.49782 19.0044C6.62928 19.1424 6.77878 19.262 6.94227 19.36C8.34063 19.8776 9.81591 20.1571 11.3067 20.1867C11.4184 20.1595 11.526 20.1177 11.6267 20.0622C10.9128 19.5291 10.0975 19.1476 9.23075 18.9413C8.36401 18.7349 7.46423 18.708 6.58671 18.8622Z" fill="#F3EC25"/>
<path d="M6.58659 18.8622C7.46554 18.7089 8.36652 18.7362 9.23456 18.9425C10.1026 19.1488 10.9195 19.5298 11.6355 20.0622C11.4755 20.1244 11.3866 20.1955 11.3066 20.1867C9.81772 20.1585 8.34462 19.8759 6.95104 19.3511C6.78974 19.2535 6.64055 19.1371 6.50659 19.0044L6.58659 18.8622Z" fill="#0F5631"/>
</g>
<defs>
<clipPath id="clip0_2707_283433">
<rect width="32" height="32" fill="white"/>
</clipPath>
</defs>
</svg>
