<svg width="32" height="32" viewBox="0 0 32 32" fill="none" xmlns="http://www.w3.org/2000/svg">
<g clip-path="url(#clip0_2707_283103)">
<path d="M16 32C24.8366 32 32 24.8366 32 16C32 7.16344 24.8366 0 16 0C7.16344 0 0 7.16344 0 16C0 24.8366 7.16344 32 16 32Z" fill="white"/>
<path d="M16.0001 29.3334C23.3639 29.3334 29.3334 23.3638 29.3334 16C29.3334 8.63622 23.3639 2.66669 16.0001 2.66669C8.63628 2.66669 2.66675 8.63622 2.66675 16C2.66675 23.3638 8.63628 29.3334 16.0001 29.3334Z" fill="white"/>
<path d="M13.1733 16.5067L13.2622 10.3467L13.36 16.5067H13.1733Z" fill="#9C4816"/>
<path d="M14.9778 9.29776L13.2622 10.0444L14.8978 9.13776L14.9778 9.29776Z" fill="#9C4816"/>
<path d="M16.3379 10.2489V17.2622C16.0441 17.3101 15.7465 17.331 15.449 17.3245C14.8979 17.3245 14.9067 17.1733 14.9067 17.1733V9.17334L16.3379 10.2489Z" fill="#9C4816"/>
<path d="M16.5601 14.6489L16.9423 14.4356V17.1022C17.4216 16.9734 17.8841 16.7884 18.3201 16.5511V15.3956L16.9778 14.3022L16.5601 14.5422V14.6489Z" fill="#9C4816"/>
<path d="M17.0132 14.0978C18.108 14.0978 18.9955 13.2103 18.9955 12.1156C18.9955 11.0208 18.108 10.1334 17.0132 10.1334C15.9185 10.1334 15.031 11.0208 15.031 12.1156C15.031 13.2103 15.9185 14.0978 17.0132 14.0978Z" fill="url(#paint0_radial_2707_283103)"/>
<path d="M17.0133 9.84003L17.1645 10.9867L17.6 9.92003L17.4489 11.0667L18.1511 10.1422L17.7067 11.2089L18.6222 10.5067L17.92 11.4222L18.9867 10.9778L18.0622 11.68L19.2089 11.5289L18.1422 11.9645L19.2889 12.1156L18.1422 12.2578L19.2089 12.7022L18.0622 12.5511L18.9867 13.2534L17.92 12.8089L18.6222 13.7245L17.7067 13.0134L18.1511 14.08L17.4489 13.1645L17.6 14.3111L17.1645 13.2445L17.0133 14.3911L16.8622 13.2445L16.4267 14.3111L16.5778 13.1645L15.8756 14.08L16.32 13.0134L15.4045 13.7245L16.1156 12.8089L15.0489 13.2534L15.9645 12.5511L14.8178 12.7022L15.8845 12.2578L14.7378 12.1156L15.8845 11.9645L14.8178 11.5289L15.9645 11.68L15.0489 10.9778L16.1156 11.4222L15.4045 10.5067L16.32 11.2089L15.8756 10.1422L16.5778 11.0667L16.4267 9.92003L16.8622 10.9867L17.0133 9.84003Z" fill="url(#paint1_radial_2707_283103)"/>
<path d="M12.8267 16.5689L12.0801 16.08C13.0268 16.8846 14.2187 17.3438 15.4605 17.3826C16.7024 17.4214 17.9206 17.0373 18.9156 16.2934C20.569 15.0667 21.5823 12.32 20.8623 10.96C21.063 12.0645 20.917 13.204 20.4445 14.2222C19.9703 15.2412 19.1863 16.0842 18.2045 16.6311C17.3804 17.0902 16.4507 17.326 15.5074 17.3151C14.5641 17.3042 13.64 17.047 12.8267 16.5689Z" fill="#EEAB00"/>
<path d="M13.5466 17.5466C12.6371 17.2773 11.8172 16.7675 11.1733 16.0711C10.6136 15.4996 10.1816 14.8158 9.9058 14.065C9.62999 13.3142 9.51665 12.5134 9.57326 11.7155C9.67596 10.2223 10.3523 8.82678 11.4608 7.82105C12.5693 6.81532 14.0238 6.27742 15.5199 6.31997C12.4977 6.63997 10.3821 8.09775 9.8577 11.1644C9.33326 14.2311 10.8621 16.2577 13.5466 17.5466Z" fill="#9C4816"/>
<path d="M16 7.47553C15.0854 7.39072 14.1671 7.59131 13.3712 8.04973C12.5753 8.50816 11.941 9.20189 11.5555 10.0355C11.1524 10.8467 10.9916 11.7569 11.0925 12.6571C11.1934 13.5573 11.5517 14.4093 12.1244 15.1111C11.4638 14.407 11.0426 13.5119 10.9213 12.554C10.8 11.5961 10.9846 10.6244 11.4489 9.77776C11.8794 8.97324 12.5471 8.32073 13.3613 7.90885C14.1755 7.49697 15.0968 7.34568 16 7.47553Z" fill="#9C4816"/>
<path d="M10.72 16.3467C11.3886 17.027 12.1924 17.5596 13.0795 17.9102C13.9666 18.2608 14.9174 18.4217 15.8704 18.3823C16.8235 18.3429 17.7578 18.1043 18.613 17.6817C19.4681 17.2591 20.2253 16.662 20.8355 15.9289C20.56 16.8178 18.3555 18.2222 16.6577 18.4711C15.5689 18.658 14.4502 18.5607 13.4099 18.1885C12.3697 17.8163 11.4431 17.1819 10.72 16.3467Z" fill="#EEAB00"/>
<path d="M22.0889 13.3334C22.4267 9.64447 20.8001 7.20002 17.3867 5.91113C18.6684 6.17236 19.826 6.85441 20.6756 7.84891C21.334 8.58257 21.8061 9.46393 22.0521 10.4185C22.2981 11.3731 22.3108 12.3729 22.0889 13.3334Z" fill="#EEAB00"/>
<path d="M19.3334 14.9867C19.9173 14.053 20.1812 12.9544 20.0849 11.8574C19.9887 10.7603 19.5376 9.72446 18.8 8.90668C20.4445 9.70668 20.7912 13.8311 19.3334 14.9867Z" fill="#9C4816"/>
<path d="M12.1067 8C11.327 8.72187 10.7611 9.64448 10.4711 10.6667C10.1951 11.688 10.2136 12.7665 10.5244 13.7778C9.53777 12.3911 10.4978 8.93333 12.1067 8Z" fill="#EEAB00"/>
<path d="M21.5555 11.1111C22.4444 12.8889 20.2399 16.9689 18.2666 17.3333C19.3927 16.7675 20.322 15.8754 20.9333 14.7733C21.527 13.6505 21.7451 12.367 21.5555 11.1111Z" fill="#9C4816"/>
<path d="M15.689 6.2222C16.9423 5.88443 19.5823 7.11109 20.3467 8.40887C19.7625 7.7436 19.0474 7.20602 18.2459 6.82977C17.4445 6.45352 16.574 6.24669 15.689 6.2222Z" fill="#9C4816"/>
<path d="M18.7378 7.90219C17.9979 7.48397 17.1971 7.18405 16.3645 7.01331C17.2284 7.05729 18.0576 7.36782 18.7378 7.90219Z" fill="#9C4816"/>
<path d="M9.08451 21.52L8.6134 20.8089H8.22229V21.52H7.7334V19.2978H8.75562C9.28007 19.2978 9.59118 19.5733 9.59118 20.0267C9.59703 20.1786 9.5534 20.3284 9.46684 20.4534C9.38028 20.5784 9.25547 20.672 9.11118 20.72L9.66229 21.5111L9.08451 21.52ZM9.08451 20.0533C9.08451 19.8489 8.94229 19.7333 8.70229 19.7333H8.22229V20.3733H8.72007C8.96007 20.3733 9.0934 20.2489 9.0934 20.0622L9.08451 20.0533Z" fill="#F3B01A"/>
<path d="M10.0356 21.52V19.2978H11.7156V19.7333H10.5156V20.1778H11.5556V20.6133H10.5156V21.0845H11.7245V21.52H10.0356Z" fill="#F3B01A"/>
<path d="M13.0221 20.8534H12.6488V21.52H12.1599V19.2978H13.0488C13.156 19.2851 13.2646 19.2955 13.3675 19.3283C13.4703 19.3611 13.5649 19.4155 13.6449 19.488C13.7249 19.5604 13.7885 19.6491 13.8313 19.7482C13.8741 19.8473 13.8953 19.9543 13.8932 20.0622C13.8938 20.1732 13.871 20.2831 13.8264 20.3847C13.7817 20.4863 13.7162 20.5773 13.634 20.652C13.5518 20.7266 13.4549 20.7831 13.3495 20.8178C13.2441 20.8525 13.1325 20.8646 13.0221 20.8534ZM13.431 20.0711C13.431 19.8578 13.2799 19.7334 13.031 19.7334H12.6488V20.4445H13.0399C13.0883 20.4507 13.1374 20.4467 13.1841 20.4327C13.2309 20.4186 13.2741 20.3949 13.311 20.363C13.3479 20.3312 13.3777 20.2918 13.3984 20.2477C13.419 20.2035 13.4302 20.1555 13.431 20.1067V20.0711Z" fill="#F3B01A"/>
<path d="M15.3688 21.5555C15.0701 21.558 14.7824 21.4428 14.5679 21.2349C14.3533 21.027 14.2292 20.7431 14.2222 20.4444C14.2221 20.2896 14.2531 20.1364 14.3134 19.9939C14.3737 19.8513 14.462 19.7223 14.5731 19.6145C14.6842 19.5067 14.8158 19.4224 14.9601 19.3664C15.1045 19.3105 15.2586 19.2841 15.4133 19.2889C15.5642 19.2889 15.7136 19.3189 15.8528 19.3772C15.992 19.4354 16.1183 19.5208 16.2242 19.6284C16.33 19.7359 16.4135 19.8635 16.4696 20.0036C16.5257 20.1437 16.5534 20.2935 16.5511 20.4444C16.5465 20.595 16.5122 20.7433 16.4503 20.8806C16.3884 21.018 16.3 21.1418 16.1902 21.245C16.0804 21.3482 15.9514 21.4287 15.8104 21.482C15.6695 21.5353 15.5194 21.5603 15.3688 21.5555ZM16.0444 20.4444C16.0468 20.3538 16.0311 20.2636 15.9983 20.1791C15.9655 20.0946 15.9163 20.0174 15.8534 19.9521C15.7906 19.8867 15.7154 19.8346 15.6322 19.7985C15.549 19.7625 15.4595 19.7434 15.3688 19.7422C15.2786 19.7409 15.1891 19.7581 15.1059 19.7928C15.0226 19.8275 14.9474 19.879 14.8848 19.944C14.8223 20.009 14.7738 20.0862 14.7424 20.1708C14.711 20.2553 14.6973 20.3455 14.7022 20.4355C14.6913 20.5302 14.7005 20.626 14.7292 20.7168C14.758 20.8076 14.8056 20.8913 14.869 20.9624C14.9324 21.0335 15.01 21.0904 15.097 21.1294C15.1839 21.1683 15.278 21.1885 15.3733 21.1885C15.4685 21.1885 15.5627 21.1683 15.6496 21.1294C15.7365 21.0904 15.8142 21.0335 15.8776 20.9624C15.941 20.8913 15.9886 20.8076 16.0173 20.7168C16.0461 20.626 16.0553 20.5302 16.0444 20.4355V20.4444Z" fill="#F3B01A"/>
<path d="M19.3067 21.5378H18.88L18.3734 20.08L17.8756 21.5378H17.4489L16.6934 19.2978H17.2178L17.68 20.8L18.1778 19.2889H18.5956L19.0934 20.8L19.5556 19.2978H20.0622L19.3067 21.5378Z" fill="#F3B01A"/>
<path d="M20.4443 21.52V19.2978H22.1243V19.7333H20.9154V20.1778H21.9643V20.6133H20.9154V21.0845H22.1243V21.52H20.4443Z" fill="#F3B01A"/>
<path d="M23.911 21.52L23.431 20.8089H23.0488V21.52H22.551V19.2978H23.5732C24.0977 19.2978 24.4088 19.5733 24.4088 20.0267C24.4153 20.1775 24.3729 20.3265 24.288 20.4514C24.2032 20.5762 24.0803 20.6705 23.9377 20.72L24.4799 21.5111L23.911 21.52ZM23.911 20.0533C23.911 19.8489 23.7599 19.7333 23.5199 19.7333H23.0399V20.3733H23.5288C23.7688 20.3733 23.911 20.2489 23.911 20.0622V20.0533Z" fill="#F3B01A"/>
<path d="M7.22656 24H7.01323L6.80879 23.5289H5.8399L5.62656 24H5.42212L6.22212 22.2222H6.40879L7.22656 24ZM6.33767 22.4445L5.92879 23.3333H6.74656L6.33767 22.4445Z" fill="#934D22"/>
<path d="M7.511 22.7556C7.52718 22.7955 7.55507 22.8296 7.591 22.8534C7.63353 22.8858 7.68177 22.9099 7.73322 22.9245C7.81058 22.9563 7.891 22.9801 7.97322 22.9956C8.13201 23.0237 8.2833 23.0842 8.41766 23.1734C8.46428 23.2142 8.50123 23.2649 8.52582 23.3218C8.55042 23.3787 8.56206 23.4403 8.55988 23.5022C8.56058 23.5726 8.54487 23.6422 8.51402 23.7055C8.48316 23.7687 8.438 23.8239 8.38211 23.8667C8.32634 23.9125 8.26323 23.9486 8.19544 23.9734C8.13117 23.988 8.06573 23.9969 7.99988 24C7.86642 23.9987 7.73415 23.9747 7.60877 23.9289C7.48513 23.877 7.37098 23.8049 7.271 23.7156L7.39544 23.5645C7.47549 23.6426 7.5688 23.7058 7.671 23.7511C7.77347 23.8005 7.88618 23.8249 7.99988 23.8222C8.10375 23.8281 8.20669 23.8 8.29322 23.7422C8.32757 23.7165 8.3552 23.6829 8.37377 23.6442C8.39234 23.6055 8.4013 23.5629 8.39988 23.52C8.40414 23.4816 8.40414 23.4429 8.39988 23.4045C8.38124 23.3711 8.35721 23.3411 8.32877 23.3156L8.18655 23.2445L7.95544 23.1822C7.86429 23.1638 7.77503 23.137 7.68877 23.1022C7.61997 23.0842 7.55615 23.0507 7.50211 23.0045C7.45374 22.966 7.41431 22.9175 7.38655 22.8622C7.37808 22.7973 7.37808 22.7316 7.38655 22.6667C7.38743 22.5991 7.40258 22.5325 7.431 22.4711C7.45932 22.4088 7.50195 22.3539 7.55544 22.3111C7.58199 22.2786 7.61178 22.2488 7.64433 22.2222C7.72078 22.2088 7.79899 22.2088 7.87544 22.2222C7.99016 22.2219 8.10419 22.2399 8.21322 22.2756C8.31782 22.3093 8.41456 22.3637 8.49766 22.4356L8.38211 22.5956C8.3103 22.5288 8.22561 22.4774 8.13322 22.4445C8.04844 22.4111 7.95758 22.396 7.86655 22.4H7.71544L7.59988 22.4622C7.56639 22.4849 7.53893 22.5154 7.51988 22.5511C7.51172 22.5892 7.51172 22.6286 7.51988 22.6667C7.514 22.696 7.51102 22.7257 7.511 22.7556Z" fill="#934D22"/>
<path d="M9.19995 22.2222V24H9.00439V22.2222H9.19995Z" fill="#934D22"/>
<path d="M11.2888 24H11.0755L10.8622 23.5289H9.89326L9.68882 24H9.48438L10.2933 22.2222H10.4799L11.2888 24ZM10.3999 22.4445L9.99104 23.3333H10.7999L10.3999 22.4445Z" fill="#934D22"/>
<path d="M12.4443 22.2222V24H12.2488V22.2222H12.4443Z" fill="#934D22"/>
<path d="M14.2222 22.2222H14.4177V24H14.2578L13.1111 22.5422V24H12.9155V22.2222H13.1022L14.2222 23.6267V22.2222Z" fill="#934D22"/>
<path d="M16.5243 23.44C16.4814 23.5483 16.4146 23.6456 16.3288 23.7244C16.2442 23.8054 16.1446 23.8688 16.0355 23.9111C15.9129 23.9561 15.7837 23.9801 15.6532 23.9822H15.031V22.2222H15.6532C15.7835 22.2168 15.9136 22.2379 16.0355 22.2844C16.1446 22.3267 16.2442 22.3902 16.3288 22.4711C16.4146 22.55 16.4814 22.6472 16.5243 22.7555C16.613 22.9812 16.613 23.2321 16.5243 23.4578V23.44ZM16.3377 22.8178C16.301 22.7353 16.2498 22.66 16.1866 22.5955C16.1229 22.5272 16.0436 22.4754 15.9555 22.4444C15.8586 22.4093 15.7563 22.3912 15.6532 22.3911H15.2354V23.7955H15.6532C15.7563 23.7954 15.8586 23.7774 15.9555 23.7422C16.0436 23.7113 16.1229 23.6594 16.1866 23.5911C16.2517 23.5282 16.3031 23.4526 16.3377 23.3689C16.4089 23.1921 16.4089 22.9946 16.3377 22.8178Z" fill="#934D22"/>
<path d="M18.6667 23.44C18.6304 23.55 18.5696 23.6503 18.4889 23.7333C18.403 23.8171 18.3039 23.8862 18.1955 23.9378C17.9592 24.0351 17.6941 24.0351 17.4578 23.9378C17.2422 23.8436 17.0728 23.6678 16.9867 23.4489C16.9337 23.3432 16.9006 23.2287 16.8889 23.1111C16.8863 22.9926 16.9075 22.8747 16.9511 22.7644C16.9918 22.6545 17.0555 22.5545 17.1378 22.4711C17.2163 22.3828 17.3135 22.313 17.4222 22.2667C17.6615 22.1688 17.9296 22.1688 18.1689 22.2667C18.3844 22.3609 18.5538 22.5367 18.64 22.7555C18.7287 22.9812 18.7287 23.2321 18.64 23.4578L18.6667 23.44ZM18.48 22.8089C18.4467 22.7223 18.3966 22.6431 18.3325 22.576C18.2684 22.5088 18.1916 22.4551 18.1067 22.4178C18.0211 22.3752 17.9266 22.3539 17.8311 22.3555C17.7327 22.3538 17.6353 22.3751 17.5467 22.4178C17.4642 22.4545 17.3889 22.5056 17.3244 22.5689C17.2655 22.6382 17.2175 22.7161 17.1822 22.8C17.1475 22.8908 17.1294 22.9872 17.1289 23.0844C17.13 23.1845 17.1481 23.2837 17.1822 23.3778C17.2304 23.5103 17.3189 23.6245 17.4353 23.7042C17.5517 23.7839 17.6901 23.8251 17.8311 23.8222C17.9288 23.827 18.0262 23.8088 18.1155 23.7689C18.2003 23.7322 18.2761 23.6776 18.3378 23.6089C18.3967 23.5396 18.4447 23.4616 18.48 23.3778C18.5423 23.1933 18.5423 22.9934 18.48 22.8089Z" fill="#934D22"/>
<path d="M20.4445 22.2222H20.6401V24H20.4445L19.2978 22.5422V24H19.1023V22.2222H19.289L20.4445 23.6267V22.2222Z" fill="#934D22"/>
<path d="M22.3912 22.3822H21.3334V22.9956H22.3023V23.1733H21.3334V23.7956H22.4356V24H21.1023V22.2222H22.3912V22.3822Z" fill="#934D22"/>
<path d="M22.9332 22.7556C22.9494 22.793 22.9737 22.8264 23.0043 22.8534C23.048 22.8893 23.0999 22.9138 23.1554 22.9245C23.2328 22.9563 23.3132 22.9801 23.3954 22.9956C23.5515 23.0236 23.6999 23.0842 23.831 23.1734C23.8792 23.2129 23.9173 23.2633 23.942 23.3206C23.9667 23.3778 23.9774 23.4401 23.9732 23.5022C23.9772 23.5722 23.9638 23.642 23.9344 23.7056C23.9049 23.7691 23.8602 23.8245 23.8043 23.8667C23.7486 23.9125 23.6855 23.9486 23.6177 23.9734C23.535 23.9826 23.4515 23.9826 23.3688 23.9734C23.2353 23.9721 23.103 23.948 22.9777 23.9022C22.8551 23.8483 22.7413 23.7764 22.6399 23.6889L22.7732 23.5378C22.8533 23.6159 22.9466 23.6791 23.0488 23.7245C23.1518 23.7714 23.2646 23.7928 23.3777 23.7867C23.4786 23.7912 23.5783 23.7632 23.6621 23.7067C23.6976 23.6814 23.7265 23.6481 23.7466 23.6095C23.7667 23.5708 23.7773 23.528 23.7777 23.4845C23.7858 23.4464 23.7858 23.407 23.7777 23.3689C23.7621 23.3336 23.7376 23.303 23.7066 23.28L23.5643 23.2089L23.3332 23.1467C23.2421 23.1282 23.1528 23.1015 23.0666 23.0667C22.9993 23.0448 22.9362 23.0117 22.8799 22.9689C22.8368 22.9277 22.8007 22.8796 22.7732 22.8267C22.7605 22.7621 22.7605 22.6957 22.7732 22.6311C22.7741 22.5635 22.7893 22.4969 22.8177 22.4356C22.846 22.3732 22.8886 22.3184 22.9421 22.2756C22.9963 22.2344 23.0562 22.2015 23.1199 22.1778C23.1994 22.1649 23.2804 22.1649 23.3599 22.1778C23.4746 22.1774 23.5886 22.1955 23.6977 22.2311C23.8015 22.2665 23.898 22.3207 23.9821 22.3911L23.8666 22.5511C23.7934 22.4861 23.7091 22.4349 23.6177 22.4C23.5325 22.3681 23.4419 22.353 23.351 22.3556H23.1999L23.0754 22.4178C23.047 22.4433 23.023 22.4733 23.0043 22.5067C22.9962 22.5448 22.9962 22.5842 23.0043 22.6222C22.9669 22.6579 22.942 22.7046 22.9332 22.7556Z" fill="#934D22"/>
<path d="M24.5423 22.2222V24H24.3379V22.2222H24.5423Z" fill="#934D22"/>
<path d="M26.6134 24H26.3912L26.1867 23.5289H25.2178L25.0045 24H24.8L25.6089 22.2222H25.7778L26.6134 24ZM25.7245 22.4445L25.3156 23.3333H26.1245L25.7245 22.4445Z" fill="#934D22"/>
</g>
<defs>
<radialGradient id="paint0_radial_2707_283103" cx="0" cy="0" r="1" gradientUnits="userSpaceOnUse" gradientTransform="translate(17.0132 12.1156) scale(2.69333)">
<stop stop-color="#FFF23B"/>
<stop offset="0.04" stop-color="#FEE62E"/>
<stop offset="0.12" stop-color="#FDD41B"/>
<stop offset="0.2" stop-color="#FCC910"/>
<stop offset="0.28" stop-color="#FCC60C"/>
<stop offset="0.67" stop-color="#F28F3F"/>
<stop offset="0.89" stop-color="#EC683C"/>
<stop offset="1" stop-color="#E83E3A"/>
</radialGradient>
<radialGradient id="paint1_radial_2707_283103" cx="0" cy="0" r="1" gradientUnits="userSpaceOnUse" gradientTransform="translate(17.0133 12.1156) scale(3.09333)">
<stop stop-color="#FFF23B"/>
<stop offset="0.04" stop-color="#FEE62E"/>
<stop offset="0.12" stop-color="#FDD41B"/>
<stop offset="0.2" stop-color="#FCC910"/>
<stop offset="0.28" stop-color="#FCC60C"/>
<stop offset="0.67" stop-color="#F28F3F"/>
<stop offset="0.89" stop-color="#EC683C"/>
<stop offset="1" stop-color="#E83E3A"/>
</radialGradient>
<clipPath id="clip0_2707_283103">
<rect width="32" height="32" fill="white"/>
</clipPath>
</defs>
</svg>
