<svg width="32" height="32" viewBox="0 0 32 32" fill="none" xmlns="http://www.w3.org/2000/svg">
<g clip-path="url(#clip0_2707_282893)">
<path d="M16 31.9822C24.8268 31.9822 31.9823 24.8268 31.9823 16C31.9823 7.17328 24.8268 0.0177917 16 0.0177917C7.17331 0.0177917 0.0178223 7.17328 0.0178223 16C0.0178223 24.8268 7.17331 31.9822 16 31.9822Z" fill="white"/>
<path d="M4.61329 22.6489C4.31689 22.0715 4.17275 21.4281 4.19453 20.7794C4.21631 20.1308 4.40327 19.4984 4.73773 18.9422C5.04884 18.4356 5.38662 17.9378 5.71551 17.44C7.89329 14.1067 10.16 10.8089 12.24 7.43114C12.6159 6.85184 13.1113 6.3596 13.693 5.98744C14.2748 5.61528 14.9293 5.37179 15.6128 5.27331C16.2964 5.17482 16.9931 5.2236 17.6562 5.4164C18.3193 5.60919 18.9336 5.94153 19.4577 6.39114C19.8573 6.72739 20.1917 7.13413 20.4444 7.59114C21.1911 8.96003 21.8844 10.3645 22.5955 11.7422C22.8823 12.2247 23.0247 12.7792 23.0058 13.3401C22.9869 13.901 22.8075 14.4447 22.4888 14.9067C22.1777 15.3689 21.9111 15.8667 21.6 16.3378C20.7585 17.5606 20.3373 19.0237 20.4 20.5067H18.0977C18.0006 19.8217 18.0552 19.1238 18.2577 18.4622C18.5781 17.3038 19.1485 16.2297 19.9288 15.3156C20.3064 14.9138 20.5502 14.4049 20.6266 13.8589C20.703 13.3129 20.6083 12.7567 20.3555 12.2667C19.8133 11.1023 19.2977 9.93781 18.7466 8.77336C17.6622 6.48892 15.0222 6.79114 13.8577 8.61336C10.8888 13.2445 7.83995 17.8222 4.82662 22.4267C4.76011 22.5051 4.68887 22.5793 4.61329 22.6489Z" fill="#E22129"/>
<path d="M7.84006 26.56H7.76006C7.2162 26.5577 6.69528 26.3406 6.31072 25.956C5.92615 25.5715 5.70906 25.0506 5.70672 24.5067C5.70298 24.3357 5.72394 24.165 5.76895 24C5.88456 23.5245 6.08316 23.0732 6.35561 22.6667C9.11117 18.3408 11.8786 14.0148 14.6578 9.68892C14.7919 9.4973 14.9437 9.31874 15.1112 9.15558C15.2469 8.95108 15.4348 8.78653 15.6554 8.67897C15.876 8.57141 16.1213 8.52473 16.366 8.54376C16.6107 8.56279 16.8459 8.64685 17.0472 8.78723C17.2485 8.92761 17.4087 9.11922 17.5112 9.34225C18.0889 10.3111 18.5867 11.3334 19.0756 12.3556C19.1942 12.5866 19.256 12.8426 19.256 13.1022C19.256 13.3619 19.1942 13.6179 19.0756 13.8489C18.7201 14.56 18.3289 15.2445 17.9556 15.9378L17.7689 16.1956C16.9601 17.3245 16.2312 18.48 16.4801 20.0445C15.9378 20.0445 15.4578 20.0445 14.9778 20.0445C14.9006 20.0252 14.8282 19.9899 14.7654 19.9409C14.7026 19.8919 14.6508 19.8303 14.6134 19.76C14.476 19.5272 14.3991 19.2637 14.3898 18.9935C14.3805 18.7233 14.439 18.4551 14.5601 18.2134C14.7901 17.7338 15.0576 17.2731 15.3601 16.8356C15.7601 16.2311 16.2489 15.6534 16.6134 15.0578C16.9551 14.552 17.1005 13.9388 17.0223 13.3334C17.0167 13.0846 16.9366 12.8432 16.7924 12.6404C16.6482 12.4375 16.4465 12.2826 16.2134 12.1956C15.9672 12.1034 15.6953 12.1071 15.4517 12.2059C15.208 12.3047 15.0104 12.4913 14.8978 12.7289C14.5067 13.3156 14.1601 13.9289 13.7956 14.5067C11.9378 17.5822 10.0889 20.6667 8.2045 23.7245C7.94125 24.1422 7.77226 24.6123 7.70931 25.102C7.64637 25.5918 7.69099 26.0893 7.84006 26.56Z" fill="#293471"/>
<path d="M25.3868 19.6356C25.825 19.6582 26.2641 19.6582 26.7024 19.6356C26.8705 19.614 27.0408 19.6532 27.1826 19.7461C27.3244 19.839 27.4283 19.9795 27.4757 20.1422C27.8545 20.9477 27.9055 21.8688 27.6179 22.7111C27.1476 24.2175 26.1628 25.5106 24.8357 26.3645C24.4251 26.6381 23.9424 26.7835 23.449 26.7822H11.0046C10.1157 26.7822 9.72457 26.4 9.76902 25.6089C9.76902 25.3732 9.86267 25.1471 10.0294 24.9804C10.1961 24.8137 10.4222 24.72 10.6579 24.72H11.1735H22.2846C22.5601 24.72 22.8446 24.72 23.1201 24.72C23.5737 24.7475 24.025 24.6364 24.4139 24.4015C24.8029 24.1665 25.1112 23.8188 25.2979 23.4045C25.654 22.8437 25.8504 22.1965 25.866 21.5324C25.8817 20.8683 25.716 20.2125 25.3868 19.6356Z" fill="#293471"/>
<path d="M11.1023 23.4578C11.1645 23.1911 11.2356 22.9245 11.3245 22.6578C11.4003 22.4102 11.5553 22.1944 11.7657 22.0434C11.9761 21.8925 12.2302 21.8148 12.489 21.8222H21.8579C22.0731 21.5282 22.1891 21.1733 22.1891 20.8089C22.1891 20.4445 22.0731 20.0896 21.8579 19.7956H23.7423C23.8606 19.8172 23.9659 19.8842 24.0356 19.9822C24.2922 20.431 24.4129 20.9446 24.3829 21.4606C24.3529 21.9767 24.1736 22.4729 23.8667 22.8889C23.7219 23.075 23.5375 23.2265 23.3269 23.3326C23.1163 23.4387 22.8847 23.4966 22.649 23.5022C18.8979 23.5022 15.1467 23.5022 11.4045 23.5022L11.1023 23.4578Z" fill="#E22129"/>
</g>
<defs>
<clipPath id="clip0_2707_282893">
<rect width="32" height="32" fill="white"/>
</clipPath>
</defs>
</svg>
