<svg width="32" height="32" viewBox="0 0 32 32" fill="none" xmlns="http://www.w3.org/2000/svg">
<g clip-path="url(#clip0_2707_280998)">
<path d="M16 32C24.8366 32 32 24.8366 32 16C32 7.16344 24.8366 0 16 0C7.16344 0 0 7.16344 0 16C0 24.8366 7.16344 32 16 32Z" fill="white"/>
<path d="M16.0001 29.3333C23.3639 29.3333 29.3334 23.3638 29.3334 16C29.3334 8.63616 23.3639 2.66663 16.0001 2.66663C8.63628 2.66663 2.66675 8.63616 2.66675 16C2.66675 23.3638 8.63628 29.3333 16.0001 29.3333Z" fill="white"/>
<path d="M6.64881 11.4044L7.01325 11.4489C7.44455 11.496 7.86041 11.6365 8.2319 11.8606C8.60339 12.0847 8.92159 12.3871 9.16436 12.7466C9.44539 13.1873 9.59352 13.6996 9.59103 14.2222C9.61377 14.6185 9.55533 15.0153 9.41929 15.3883C9.28326 15.7612 9.07249 16.1025 8.79992 16.3911C8.35439 16.8565 7.77216 17.1679 7.13769 17.28C6.31669 17.4737 5.4556 17.4053 4.67547 17.0844C4.24635 16.9171 3.86692 16.6433 3.57298 16.2887C3.27905 15.9341 3.08029 15.5105 2.99547 15.0578C2.99547 14.9511 2.99547 14.8355 2.94214 14.72V14.2844C2.94214 14.2844 2.94214 14.24 2.94214 14.2133C2.96367 13.8087 3.0826 13.4154 3.28881 13.0666C3.53932 12.6211 3.89266 12.2418 4.31939 11.9604C4.74613 11.679 5.23392 11.5036 5.74214 11.4489L6.11547 11.4044H6.64881ZM4.42658 14.0711C4.42658 14.24 4.42658 14.4089 4.42658 14.5778C4.47112 15.0406 4.62004 15.4874 4.86214 15.8844C5.01006 16.1554 5.22873 16.3812 5.49483 16.5377C5.76094 16.6943 6.06453 16.7757 6.37325 16.7733C6.58011 16.7839 6.78686 16.7506 6.97991 16.6755C7.17295 16.6004 7.3479 16.4853 7.49325 16.3378C7.72724 16.1148 7.90146 15.8367 7.99992 15.5289C8.11406 15.1032 8.14425 14.6594 8.08881 14.2222C8.04553 13.7164 7.88087 13.2285 7.60881 12.8C7.45544 12.5359 7.23048 12.3207 6.95993 12.1791C6.68937 12.0376 6.38428 11.9754 6.07992 12C5.79035 12.0004 5.50708 12.0846 5.26422 12.2423C5.02136 12.4 4.82925 12.6245 4.71103 12.8889C4.5313 13.2663 4.4401 13.6797 4.44436 14.0978L4.42658 14.0711Z" fill="#E20613"/>
<path d="M11.4489 13.2267C11.4489 13.3156 11.4489 13.4134 11.4489 13.5023C11.4489 13.9912 11.3867 14.4801 11.36 14.9689C11.3334 15.4578 11.3067 15.7689 11.2889 16.1689C11.28 16.2487 11.28 16.3292 11.2889 16.4089C11.297 16.4716 11.3244 16.5302 11.3675 16.5764C11.4105 16.6226 11.467 16.6542 11.5289 16.6667C11.6462 16.6903 11.765 16.7051 11.8845 16.7112H12V17.2356H9.8667V16.7201H10.1067H10.1867C10.4623 16.6667 10.5511 16.5778 10.5778 16.3112C10.6045 16.0445 10.5778 15.5823 10.6489 15.2178C10.6489 14.6934 10.7111 14.1778 10.7467 13.6534L10.8 12.5423C10.8048 12.5009 10.8048 12.4592 10.8 12.4178C10.8025 12.3556 10.7807 12.2949 10.7392 12.2485C10.6978 12.202 10.6399 12.1735 10.5778 12.1689L10.2311 12.1245V11.5556H12.1511C12.1734 11.5521 12.1961 11.5564 12.2155 11.5678C12.235 11.5791 12.2499 11.5968 12.2578 11.6178C12.7734 12.7556 13.2978 13.8934 13.8311 15.0401V15.1201L13.9823 14.7734L15.36 11.6356C15.3664 11.6088 15.3829 11.5854 15.4061 11.5705C15.4293 11.5556 15.4574 11.5503 15.4845 11.5556H17.4311V12.0801H17.0311C16.8623 12.0801 16.8 12.1423 16.8 12.3112C16.8 12.4801 16.8 12.8623 16.8 13.1378C16.8 13.4134 16.8445 13.8223 16.8711 14.1601L16.9689 15.6712C16.9689 15.8756 16.9689 16.0801 17.0134 16.2845C17.0083 16.3258 17.0083 16.3676 17.0134 16.4089C17.0241 16.4597 17.0504 16.5059 17.0887 16.5409C17.1269 16.576 17.1752 16.5982 17.2267 16.6045L17.6267 16.6667H17.7778V17.1823H14.8445V16.7112H15.3067C15.3549 16.7157 15.4035 16.7092 15.4489 16.6923C15.4942 16.6753 15.5351 16.6482 15.5685 16.6131C15.6019 16.578 15.6269 16.5358 15.6416 16.4897C15.6563 16.4435 15.6603 16.3946 15.6534 16.3467C15.6534 16.1334 15.6534 15.9289 15.6534 15.7156L15.5734 14.5689L15.4667 13.1467L15.2711 13.5823L13.68 17.2267C13.672 17.2501 13.6561 17.27 13.635 17.283C13.6139 17.296 13.589 17.3012 13.5645 17.2978C13.4845 17.2978 13.3778 17.2978 13.3156 17.2978C13.2534 17.2978 13.2445 17.1556 13.2089 17.0845L11.5023 13.3334C11.507 13.3099 11.507 13.2857 11.5023 13.2623L11.4489 13.2267Z" fill="#E20613"/>
<path d="M24.3733 17.2711H23.7866C23.7866 17.2711 23.7244 17.2711 23.7066 17.2178L22.5422 16L20.3555 13.6889L19.7599 13.0578V16.0889C19.7512 16.1865 19.7512 16.2846 19.7599 16.3822C19.7715 16.4565 19.8075 16.5248 19.8622 16.5763C19.9169 16.6278 19.9873 16.6596 20.0622 16.6667L20.5777 16.7289V17.2444H18.3466C18.2844 17.2444 18.2666 17.2444 18.2666 17.1555C18.2666 17.0667 18.2666 16.8711 18.2666 16.72H18.3555C18.4679 16.7288 18.5808 16.7288 18.6933 16.72C18.7682 16.71 18.8374 16.6744 18.8892 16.6194C18.941 16.5644 18.9723 16.4932 18.9777 16.4178C18.9818 16.3704 18.9818 16.3229 18.9777 16.2755V12.3378C18.9816 12.312 18.9767 12.2858 18.9638 12.2632C18.9509 12.2406 18.9307 12.223 18.9066 12.2133C18.7443 12.1403 18.5689 12.101 18.391 12.0978H18.2844V11.5555H20.151C20.1979 11.5562 20.2427 11.5754 20.2755 11.6089L22.7288 14.2222L23.6177 15.1111L23.6799 15.1822C23.6833 15.1586 23.6833 15.1347 23.6799 15.1111V12.6755C23.6691 12.5577 23.6453 12.4414 23.6088 12.3289C23.596 12.2784 23.5676 12.2333 23.5277 12.1998C23.4879 12.1663 23.4385 12.1462 23.3866 12.1422L22.9866 12.0978H22.7733V11.5555H25.1999V12.0889H24.8622C24.7795 12.0796 24.696 12.0796 24.6133 12.0889C24.5529 12.1029 24.499 12.1368 24.4603 12.1852C24.4216 12.2336 24.4003 12.2936 24.3999 12.3555V17.2178L24.3733 17.2711Z" fill="#E20613"/>
<path d="M25.6444 17.2355V16.7111H25.7777H26.0088C26.1191 16.6935 26.2181 16.6334 26.2846 16.5437C26.3511 16.454 26.3797 16.3417 26.3644 16.2311V12.6755C26.3731 12.6017 26.3731 12.5271 26.3644 12.4533C26.3576 12.359 26.3153 12.2708 26.246 12.2064C26.1767 12.1421 26.0856 12.1064 25.9911 12.1067H25.6355V11.5555H28.5866V12.0889H28.2488C28.1866 12.0888 28.125 12.1013 28.0677 12.1257C28.0105 12.15 27.9587 12.1857 27.9155 12.2305C27.8724 12.2753 27.8387 12.3284 27.8166 12.3865C27.7944 12.4447 27.7842 12.5067 27.7866 12.5689C27.7821 12.6013 27.7821 12.6342 27.7866 12.6667V16.1333C27.773 16.2276 27.773 16.3234 27.7866 16.4178C27.8102 16.4951 27.8588 16.5623 27.9247 16.609C27.9907 16.6556 28.0703 16.6791 28.1511 16.6755C28.2844 16.6755 28.4177 16.6755 28.5511 16.6755V17.1911L25.6444 17.2355Z" fill="#E20613"/>
<path d="M4.09781 18.9155H4.84448C4.89781 18.9155 4.84448 18.9155 4.84448 18.8444C4.84448 18.6311 4.84448 18.4088 4.84448 18.1955C4.84448 18.1155 4.84448 18.08 4.95114 18.08H5.20003C5.24448 18.08 5.26225 18.08 5.26225 18.1511V20.0888C5.26225 20.0888 5.26225 20.1511 5.20892 20.1511H4.94225C4.88892 20.1511 4.88892 20.1066 4.88892 20.0622V19.2533H4.08892V20.0355C4.08892 20.1333 4.08892 20.1511 3.98225 20.16H3.74225C3.68892 20.16 3.67114 20.16 3.67114 20.08V18.1688C3.67114 18.1244 3.67114 18.0888 3.74225 18.0888C3.83389 18.0799 3.92617 18.0799 4.01781 18.0888C4.07114 18.0888 4.09781 18.0888 4.09781 18.1777C4.09781 18.3911 4.09781 18.6044 4.09781 18.8088C4.09335 18.8443 4.09335 18.8801 4.09781 18.9155Z" fill="#224998"/>
<path d="M13.8044 18.8445L13.9022 18.7556C13.9722 18.6887 14.057 18.6394 14.1497 18.6116C14.2424 18.5838 14.3403 18.5783 14.4355 18.5956C14.5192 18.6078 14.5979 18.6424 14.6636 18.6955C14.7293 18.7487 14.7795 18.8186 14.8089 18.8978C14.8772 19.0533 14.9125 19.2213 14.9125 19.3911C14.9125 19.561 14.8772 19.729 14.8089 19.8845C14.7735 19.9663 14.7189 20.0383 14.6496 20.0944C14.5803 20.1504 14.4984 20.1889 14.411 20.2063C14.3236 20.2238 14.2333 20.2198 14.1478 20.1947C14.0622 20.1696 13.9841 20.1242 13.92 20.0622L13.8578 20.0178C13.8542 20.0443 13.8542 20.0712 13.8578 20.0978V20.6578C13.8578 20.7111 13.8578 20.7467 13.7867 20.7467H13.5555C13.4844 20.7467 13.4578 20.7022 13.4578 20.6311V18.72C13.4578 18.6489 13.4578 18.6222 13.5555 18.6222H13.7067C13.7689 18.6222 13.8044 18.6222 13.7955 18.7289C13.7867 18.8356 13.8044 18.7911 13.8044 18.8445ZM13.8578 19.3956V19.4845C13.8491 19.5432 13.858 19.6033 13.8833 19.657C13.9086 19.7108 13.9492 19.7559 14 19.7867C14.0299 19.8181 14.0675 19.8411 14.109 19.8535C14.1506 19.8658 14.1946 19.8672 14.2368 19.8573C14.279 19.8474 14.3179 19.8267 14.3497 19.7971C14.3814 19.7676 14.4049 19.7303 14.4178 19.6889C14.4618 19.5927 14.4845 19.4881 14.4845 19.3822C14.4845 19.2764 14.4618 19.1718 14.4178 19.0756C14.4045 19.0341 14.3784 18.998 14.3433 18.9724C14.3081 18.9469 14.2657 18.9332 14.2222 18.9333C14.1291 18.9329 14.0391 18.9673 13.97 19.0298C13.901 19.0923 13.8577 19.1784 13.8489 19.2711L13.8578 19.3956Z" fill="#224998"/>
<path d="M7.93789 18.5866C8.02059 18.5774 8.10407 18.5774 8.18678 18.5866C8.3226 18.6148 8.44488 18.6881 8.53367 18.7946C8.62246 18.9012 8.67251 19.0347 8.67567 19.1733C8.69312 19.3209 8.69312 19.4701 8.67567 19.6178C8.64566 19.7793 8.5578 19.9244 8.42855 20.0258C8.29929 20.1273 8.13749 20.1781 7.97344 20.1689C7.86447 20.1859 7.75353 20.1859 7.64456 20.1689C7.52703 20.1425 7.42048 20.0805 7.33938 19.9915C7.25827 19.9024 7.20654 19.7906 7.19122 19.6711C7.14687 19.4811 7.14687 19.2834 7.19122 19.0933C7.22794 18.953 7.30943 18.8284 7.42332 18.7386C7.53722 18.6488 7.67731 18.5985 7.82233 18.5955H7.93789V18.5866ZM7.54678 19.3955C7.54678 19.4755 7.54678 19.5644 7.54678 19.6533C7.56171 19.7254 7.60247 19.7896 7.66139 19.8338C7.72032 19.878 7.79335 19.8992 7.86678 19.8933C7.93828 19.8961 8.00865 19.8749 8.06666 19.833C8.12466 19.7911 8.16696 19.731 8.18678 19.6622C8.23419 19.4997 8.23419 19.327 8.18678 19.1644C8.17409 19.0915 8.13579 19.0254 8.07876 18.9782C8.02173 18.9309 7.94972 18.9056 7.87567 18.9066C7.79981 18.8974 7.72315 18.9157 7.65957 18.9581C7.59598 19.0004 7.54967 19.0642 7.529 19.1378C7.52401 19.2236 7.52401 19.3097 7.529 19.3955H7.54678Z" fill="#224998"/>
<path d="M22.7732 20.0178C22.6736 20.1157 22.5465 20.1809 22.4088 20.2045C22.2789 20.2218 22.1467 20.2034 22.0266 20.1511C21.9585 20.11 21.9022 20.0519 21.8631 19.9826C21.824 19.9133 21.8035 19.8351 21.8035 19.7556C21.8035 19.676 21.824 19.5978 21.8631 19.5285C21.9022 19.4592 21.9585 19.4012 22.0266 19.36C22.1759 19.288 22.3409 19.2543 22.5066 19.2622H22.6754C22.6828 19.2639 22.6905 19.2637 22.6977 19.2617C22.705 19.2596 22.7116 19.2557 22.7169 19.2504C22.7222 19.245 22.7261 19.2384 22.7282 19.2312C22.7303 19.2239 22.7305 19.2163 22.7288 19.2089V19.1022C22.7288 19.0735 22.723 19.045 22.7117 19.0185C22.7005 18.992 22.6839 18.9681 22.6632 18.9482C22.6424 18.9282 22.6178 18.9127 22.5909 18.9025C22.564 18.8923 22.5353 18.8877 22.5066 18.8889C22.3742 18.8794 22.2418 18.9071 22.1243 18.9689C22.0621 18.9689 22.0088 19.0667 21.9554 18.9689C21.926 18.9245 21.9142 18.8707 21.9225 18.8181C21.9307 18.7654 21.9583 18.7178 21.9999 18.6845C22.0735 18.6734 22.1477 18.6675 22.2221 18.6667C22.4061 18.6222 22.5981 18.6222 22.7821 18.6667C22.8723 18.6851 22.9534 18.7341 23.0117 18.8053C23.07 18.8766 23.1019 18.9657 23.1021 19.0578C23.1021 19.4133 23.1021 19.7778 23.1021 20.1422C23.1036 20.1531 23.1025 20.1641 23.099 20.1745C23.0955 20.1849 23.0897 20.1943 23.0819 20.202C23.0742 20.2098 23.0648 20.2156 23.0544 20.2191C23.044 20.2226 23.033 20.2237 23.0221 20.2222H22.8443C22.8335 20.2237 22.8224 20.2226 22.8121 20.2191C22.8017 20.2156 22.7923 20.2098 22.7845 20.202C22.7768 20.1943 22.7709 20.1849 22.7674 20.1745C22.7639 20.1641 22.7629 20.1531 22.7643 20.1422C22.7643 20.1422 22.7732 20.0533 22.7732 20.0178ZM22.711 19.4845C22.5763 19.495 22.4426 19.5158 22.311 19.5467C22.2667 19.5592 22.2289 19.5884 22.2057 19.6282C22.1825 19.668 22.1756 19.7153 22.1866 19.76C22.1944 19.805 22.217 19.846 22.2508 19.8766C22.2846 19.9072 22.3277 19.9256 22.3732 19.9289C22.4302 19.9295 22.4866 19.9179 22.5387 19.8949C22.5909 19.8719 22.6375 19.838 22.6754 19.7956C22.6754 19.7956 22.6754 19.7956 22.6754 19.7333C22.6799 19.6504 22.6799 19.5674 22.6754 19.4845H22.711Z" fill="#224998"/>
<path d="M19.5555 18.9512C19.5555 19.2001 19.5555 19.4401 19.5555 19.6889C19.5555 19.9378 19.6532 19.9023 19.8043 19.8578C19.9555 19.8134 19.9199 19.8578 19.9288 19.9556C19.9377 20.0534 19.9288 20.1778 19.7066 20.1956C19.6271 20.2089 19.546 20.2089 19.4666 20.1956C19.3698 20.1782 19.2834 20.1241 19.2255 20.0446C19.1675 19.9652 19.1425 19.8664 19.1555 19.7689C19.1555 19.5378 19.1555 19.2978 19.1555 19.0578V18.9601H19.0221C19.0221 18.9601 18.9599 18.9601 18.951 18.9067C18.9421 18.8418 18.9421 18.7761 18.951 18.7112C18.951 18.6667 18.951 18.6489 19.0221 18.6489H19.1821V18.3645C19.1821 18.3023 19.1821 18.2667 19.2621 18.2667H19.5021C19.5134 18.2667 19.5246 18.269 19.5349 18.2735C19.5453 18.2781 19.5545 18.2848 19.5621 18.2932C19.5696 18.3016 19.5753 18.3115 19.5788 18.3223C19.5822 18.333 19.5834 18.3444 19.5821 18.3556C19.5821 18.4534 19.5821 18.5423 19.5821 18.6489C19.5821 18.7556 19.7599 18.6489 19.8577 18.6489C19.9555 18.6489 19.9466 18.6489 19.9555 18.7378C19.9555 18.9512 19.9555 18.9601 19.751 18.9601L19.5555 18.9512Z" fill="#224998"/>
<path d="M11.5556 18.8267C11.5556 18.9956 11.5556 18.9956 11.4134 18.9334C11.306 18.8807 11.185 18.862 11.0667 18.88C11.0342 18.8797 11.0027 18.8913 10.9782 18.9126C10.9536 18.9339 10.9377 18.9634 10.9334 18.9956C10.9245 19.0274 10.9278 19.0614 10.9426 19.091C10.9573 19.1206 10.9826 19.1436 11.0134 19.1556L11.2 19.2356L11.3956 19.3245C11.4718 19.3568 11.5364 19.4115 11.5808 19.4814C11.6253 19.5512 11.6475 19.6329 11.6445 19.7156C11.6463 19.8004 11.6239 19.8839 11.5798 19.9564C11.5357 20.0289 11.4718 20.0872 11.3956 20.1245C11.275 20.1827 11.1428 20.213 11.0089 20.213C10.875 20.213 10.7428 20.1827 10.6223 20.1245C10.5861 20.099 10.5608 20.061 10.5511 20.0178C10.5468 19.9735 10.5468 19.9288 10.5511 19.8845C10.5511 19.7956 10.5511 19.7867 10.6667 19.8223C10.767 19.8671 10.8711 19.9028 10.9778 19.9289C11.0389 19.946 11.1034 19.946 11.1645 19.9289C11.1996 19.9168 11.2285 19.8914 11.2451 19.8581C11.2617 19.8249 11.2647 19.7865 11.2534 19.7511C11.24 19.7195 11.2186 19.6919 11.1911 19.6711L11.0134 19.5823C10.9205 19.5499 10.8312 19.5082 10.7467 19.4578C10.6861 19.4193 10.6363 19.3661 10.6017 19.3032C10.5672 19.2402 10.549 19.1696 10.549 19.0978C10.549 19.026 10.5672 18.9554 10.6017 18.8925C10.6363 18.8295 10.6861 18.7763 10.7467 18.7378C10.861 18.6748 10.9895 18.6417 11.12 18.6417C11.2506 18.6417 11.379 18.6748 11.4934 18.7378C11.5556 18.6667 11.5556 18.7734 11.5556 18.8267Z" fill="#224998"/>
<path d="M27.7778 18.5778L28.08 18.6311C28.1955 18.6311 28.2133 18.6933 28.2222 18.8089C28.2311 18.9244 28.2222 18.9866 28.0622 18.9244C27.9571 18.8743 27.8389 18.8587 27.7244 18.88C27.6907 18.879 27.6578 18.8901 27.6315 18.9112C27.6052 18.9323 27.5872 18.962 27.5808 18.9951C27.5744 19.0282 27.58 19.0625 27.5965 19.0919C27.613 19.1213 27.6395 19.1438 27.6711 19.1555L27.8311 19.2266L28.0355 19.3155C28.1228 19.349 28.196 19.4113 28.2429 19.4922C28.2899 19.5731 28.3076 19.6676 28.2933 19.76C28.2925 19.8492 28.2626 19.9358 28.208 20.0064C28.1534 20.077 28.0772 20.1278 27.9911 20.1511C27.8827 20.1963 27.7663 20.2196 27.6489 20.2196C27.5314 20.2196 27.4151 20.1963 27.3066 20.1511C27.2747 20.1384 27.2474 20.1163 27.2283 20.0878C27.2093 20.0592 27.1994 20.0254 27.2 19.9911C27.2 19.7866 27.2 19.7778 27.3866 19.8666C27.4978 19.9274 27.6261 19.9493 27.7511 19.9289C27.7887 19.9233 27.8239 19.9069 27.8523 19.8816C27.8807 19.8563 27.9011 19.8233 27.9111 19.7866C27.9136 19.7508 27.9046 19.7151 27.8854 19.6847C27.8662 19.6544 27.8379 19.6309 27.8044 19.6178L27.6444 19.5555L27.4311 19.4666C27.3577 19.4282 27.2973 19.3688 27.2578 19.296C27.2182 19.2232 27.2012 19.1403 27.2089 19.0578C27.2053 18.9737 27.2282 18.8907 27.2745 18.8205C27.3208 18.7503 27.388 18.6965 27.4666 18.6666C27.5667 18.6256 27.6711 18.5958 27.7778 18.5778Z" fill="#224998"/>
<path d="M25.3511 19.0488V20.0622C25.3511 20.1333 25.3511 20.1688 25.2533 20.1688H25.0133C25.0043 20.1689 24.9954 20.1671 24.9872 20.1634C24.979 20.1597 24.9717 20.1543 24.9658 20.1476C24.9599 20.1408 24.9555 20.1329 24.953 20.1243C24.9505 20.1157 24.9498 20.1066 24.9511 20.0977V18.0622C24.9511 17.9466 24.9511 17.9288 25.0755 17.9288H25.2444C25.3333 17.9288 25.3511 17.9288 25.3511 18.0355V19.0488Z" fill="#224998"/>
<path d="M16.729 19.3955V18.72C16.729 18.6577 16.729 18.6222 16.8179 18.6222H17.049C17.1023 18.6222 17.129 18.6222 17.129 18.7111V20.0889C17.129 20.1422 17.129 20.1689 17.0579 20.1689H16.8001C16.7468 20.1689 16.729 20.1689 16.729 20.08V19.3955Z" fill="#224998"/>
<path d="M16.6933 18.1955C16.6933 18.0266 16.7467 17.9911 16.9067 17.9822C17.12 17.9822 17.2089 18.0888 17.1378 18.2933C17.0667 18.4977 17.0222 18.4 16.9333 18.4C16.8444 18.4 16.7467 18.4 16.7022 18.3022C16.6578 18.2044 16.7022 18.2311 16.6933 18.1955Z" fill="#224998"/>
</g>
<defs>
<clipPath id="clip0_2707_280998">
<rect width="32" height="32" fill="white"/>
</clipPath>
</defs>
</svg>
