<svg width="32" height="32" viewBox="0 0 32 32" fill="none" xmlns="http://www.w3.org/2000/svg">
<g clip-path="url(#clip0_2707_280678)">
<path d="M16 31.9822C24.8268 31.9822 31.9823 24.8267 31.9823 16C31.9823 7.17325 24.8268 0.0177612 16 0.0177612C7.17331 0.0177612 0.0178223 7.17325 0.0178223 16C0.0178223 24.8267 7.17331 31.9822 16 31.9822Z" fill="white"/>
<path d="M7.2356 11.6267H8.81782L9.29782 10.1511L9.77782 11.6089H11.3689L10.1156 12.4978V12.5422L10.5956 14.0178L9.29782 13.1289L8.00004 14.0889L8.49782 12.5778L7.2356 11.6267Z" fill="url(#paint0_linear_2707_280678)"/>
<path d="M9.43114 21.8933H9.76003C10.1443 20.2992 10.9308 18.8302 12.0445 17.6266C12.5605 17.1107 13.133 16.6545 13.7511 16.2666V14.9689C12.836 15.4816 12.003 16.1288 11.28 16.8889C9.99672 18.2687 9.10392 19.9653 8.69336 21.8044C8.93535 21.8606 9.18272 21.8904 9.43114 21.8933Z" fill="url(#paint1_linear_2707_280678)"/>
<path d="M12.4445 20.1689C12.5721 19.9404 12.7146 19.7207 12.8712 19.5111C13.2875 18.7602 13.556 17.9364 13.6623 17.0844C13.3854 17.3283 13.1213 17.5865 12.8712 17.8577C11.8797 18.9486 11.1287 20.2357 10.6667 21.6355C11.3767 21.3093 11.9894 20.8038 12.4445 20.1689Z" fill="url(#paint2_linear_2707_280678)"/>
<path d="M8.11552 21.5911C8.40203 19.6965 9.25047 17.9315 10.5511 16.5244C11.4523 15.55 12.5406 14.767 13.7511 14.2222V13.0489C12.2287 13.6428 10.8675 14.5868 9.77774 15.8044C8.4402 17.2484 7.53208 19.037 7.15552 20.9689C7.44398 21.2213 7.7673 21.4309 8.11552 21.5911Z" fill="url(#paint3_linear_2707_280678)"/>
<path d="M8.10664 16.5244C8.30816 16.2296 8.52784 15.9475 8.76442 15.68C7.70167 14.5091 6.38511 13.597 4.91553 13.0133V14.2222C6.12326 14.7671 7.20862 15.5502 8.10664 16.5244Z" fill="url(#paint4_linear_2707_280678)"/>
<path d="M7.11108 18.2044C7.27115 17.8576 7.44917 17.5194 7.64442 17.1911L7.38664 16.8889C6.66241 16.1351 5.82949 15.4939 4.91553 14.9866V16.2489C5.53364 16.6367 6.10613 17.0929 6.62219 17.6089C6.80886 17.7777 6.98664 18 7.11108 18.2044Z" fill="url(#paint5_linear_2707_280678)"/>
<path d="M6.77334 19.1111C6.47657 18.6642 6.14041 18.2447 5.76889 17.8577C5.50223 17.5733 5.23556 17.3155 4.97778 17.0844C5.0813 17.9511 5.34984 18.7899 5.76889 19.5555C5.92352 19.7665 6.06597 19.9861 6.19556 20.2133L6.40001 20.4444C6.49625 19.9925 6.62094 19.5472 6.77334 19.1111Z" fill="url(#paint6_linear_2707_280678)"/>
<path d="M17.2357 17.6267C16.804 17.6407 16.3766 17.5361 16.0001 17.3244L15.9023 16.4355C16.2723 16.7037 16.7166 16.8497 17.1735 16.8533C17.6179 16.8533 17.9112 16.64 17.9112 16.2933C17.9112 15.9467 17.7068 15.7689 17.2357 15.6267C16.3468 15.3778 15.9735 14.9155 15.9735 14.2489C15.9796 14.0648 16.0238 13.8841 16.1033 13.718C16.1828 13.5519 16.2959 13.404 16.4353 13.2838C16.5748 13.1635 16.7377 13.0734 16.9136 13.0193C17.0896 12.9651 17.2749 12.9479 17.4579 12.9689C17.8257 12.9623 18.1894 13.0478 18.5157 13.2178L18.3468 13.9555C18.0776 13.7958 17.7709 13.7099 17.4579 13.7067C17.0312 13.7067 16.809 13.9289 16.809 14.2044C16.809 14.48 17.0223 14.6311 17.4312 14.7644C18.249 15.0222 18.7823 15.4222 18.7823 16.2222C18.7823 17.0222 18.2935 17.6267 17.2357 17.6267Z" fill="#092B33"/>
<path d="M21.0934 17.5822H19.5557V13.0489H20.889C21.0544 13.0343 21.2211 13.0535 21.3789 13.1052C21.5367 13.157 21.6823 13.2402 21.807 13.3499C21.9317 13.4596 22.0328 13.5935 22.1042 13.7434C22.1755 13.8934 22.2158 14.0563 22.2223 14.2222C22.2276 14.3746 22.1935 14.5258 22.1235 14.6612C22.0534 14.7966 21.9497 14.9118 21.8223 14.9955C22.0611 15.0847 22.2667 15.2451 22.4114 15.4549C22.556 15.6648 22.6328 15.914 22.6312 16.1689C22.6334 16.3658 22.594 16.561 22.5158 16.7418C22.4376 16.9226 22.3222 17.0849 22.1772 17.2182C22.0322 17.3514 21.8608 17.4527 21.6741 17.5154C21.4873 17.5782 21.2895 17.6009 21.0934 17.5822ZM20.7468 13.7422H20.3379V14.8089H20.7468C21.0668 14.8089 21.3512 14.6577 21.3512 14.2755C21.3519 14.1991 21.3361 14.1234 21.305 14.0536C21.2739 13.9837 21.2281 13.9214 21.1708 13.8708C21.1134 13.8203 21.0459 13.7826 20.9728 13.7604C20.8996 13.7382 20.8225 13.732 20.7468 13.7422ZM20.9246 15.52H20.3379V16.8889H20.9246C21.0261 16.9051 21.13 16.8991 21.229 16.8712C21.3281 16.8434 21.4199 16.7944 21.4981 16.7276C21.5764 16.6609 21.6392 16.5779 21.6823 16.4845C21.7254 16.3911 21.7477 16.2895 21.7477 16.1866C21.7477 16.0838 21.7254 15.9821 21.6823 15.8887C21.6392 15.7953 21.5764 15.7124 21.4981 15.6456C21.4199 15.5789 21.3281 15.5299 21.229 15.5021C21.13 15.4742 21.0261 15.4682 20.9246 15.4844V15.52Z" fill="#092B33"/>
<path d="M26.1955 17.5822L25.7777 16.4889H24.1777L23.7422 17.5822H22.8533L24.711 12.9955H25.2177L27.0755 17.5822H26.1955ZM25.1288 14.8089C25.0755 14.6667 25.0133 14.4889 24.9599 14.32C24.9066 14.48 24.8533 14.6489 24.791 14.8089L24.4177 15.7778H25.5111L25.1288 14.8089Z" fill="#092B33"/>
<path d="M17.1912 19.2267V21.8133H16.809V19.2267H15.8401V18.8978H18.1512V19.2267H17.1912Z" fill="#092B33"/>
<path d="M19.6 20.64L19.4044 20.8355H18.0622C18.0713 21.0305 18.1546 21.2146 18.2951 21.3502C18.4355 21.4857 18.6226 21.5624 18.8177 21.5644C19.0332 21.5728 19.2456 21.5104 19.4222 21.3866V21.7155C19.2381 21.819 19.0286 21.8683 18.8177 21.8577C18.5325 21.8577 18.2589 21.7444 18.0572 21.5427C17.8555 21.341 17.7422 21.0674 17.7422 20.7822V20.7377C17.7442 20.4686 17.8496 20.2106 18.0366 20.017C18.2235 19.8234 18.4778 19.7091 18.7466 19.6977C18.8581 19.6893 18.9701 19.7035 19.0759 19.7396C19.1817 19.7757 19.2791 19.8328 19.3622 19.9076C19.4453 19.9824 19.5124 20.0732 19.5593 20.1747C19.6063 20.2761 19.6322 20.386 19.6355 20.4977C19.6318 20.5468 19.6198 20.5949 19.6 20.64ZM18.7111 19.9822C18.5538 19.9917 18.4042 20.0539 18.2865 20.1587C18.1689 20.2635 18.0898 20.4048 18.0622 20.56H19.2444V20.4977C19.2421 20.3626 19.1867 20.2337 19.0903 20.1389C18.9939 20.0442 18.8641 19.9911 18.7289 19.9911L18.7111 19.9822Z" fill="#092B33"/>
<path d="M21.0222 21.8133L20.7111 21.3333C20.6667 21.2533 20.6045 21.1555 20.56 21.0666C20.5156 21.1555 20.4534 21.2533 20.4089 21.3333L20.0889 21.84H19.7156L20.3645 20.7911L19.7511 19.7689H20.1245L20.4178 20.2666L20.56 20.5066C20.6008 20.4229 20.6483 20.3426 20.7022 20.2666L20.9956 19.7689H21.3334L20.72 20.7822L21.3689 21.84L21.0222 21.8133Z" fill="#092B33"/>
<path d="M23.0578 20.0178H22.3733V21.2266C22.3733 21.4755 22.4978 21.5555 22.7022 21.5555C22.7667 21.569 22.8333 21.569 22.8978 21.5555V21.8311C22.824 21.8595 22.7457 21.8745 22.6666 21.8755C22.5181 21.8755 22.3757 21.8165 22.2707 21.7115C22.1656 21.6065 22.1066 21.4641 22.1066 21.3155V20.0178H21.6978V19.7422H22.1066V19.3066L22.4355 19.1378V19.7422H23.1111L23.0578 20.0178Z" fill="#092B33"/>
<path d="M23.6623 19.3422C23.6087 19.3237 23.5601 19.2933 23.5201 19.2533C23.48 19.2132 23.4496 19.1646 23.4312 19.1111C23.4335 19.0513 23.4588 18.9948 23.5019 18.9534C23.545 18.9119 23.6025 18.8888 23.6623 18.8889C23.7212 18.8889 23.7777 18.9123 23.8194 18.9539C23.8611 18.9956 23.8845 19.0521 23.8845 19.1111C23.8695 19.165 23.8413 19.2143 23.8025 19.2547C23.7638 19.295 23.7156 19.3251 23.6623 19.3422ZM23.4845 21.8133V19.7422H23.84V21.8133H23.4845Z" fill="#092B33"/>
<path d="M24.7111 21.8933C24.5931 21.8605 24.4902 21.7875 24.4204 21.6868C24.3506 21.5862 24.3182 21.4642 24.3289 21.3422V18.5688H24.6756V21.3333C24.6751 21.4148 24.702 21.4942 24.7519 21.5587C24.8019 21.6231 24.872 21.669 24.9511 21.6888L24.7111 21.8933Z" fill="#092B33"/>
<path d="M27.0578 20.64L26.8712 20.8355H25.52C25.5291 21.0305 25.6124 21.2146 25.7529 21.3502C25.8934 21.4857 26.0804 21.5624 26.2756 21.5644H26.32C26.5328 21.5728 26.7423 21.5103 26.9156 21.3866V21.7155C26.7319 21.8199 26.5221 21.8692 26.3112 21.8577C26.0259 21.8577 25.7523 21.7444 25.5506 21.5427C25.3489 21.341 25.2356 21.0674 25.2356 20.7822V20.7377C25.2399 20.4678 25.3472 20.2098 25.5356 20.0164C25.724 19.8231 25.9792 19.7091 26.2489 19.6977C26.3604 19.6893 26.4724 19.7035 26.5782 19.7396C26.684 19.7757 26.7814 19.8328 26.8645 19.9076C26.9476 19.9824 27.0147 20.0732 27.0616 20.1747C27.1086 20.2761 27.1345 20.386 27.1378 20.4977C27.1156 20.5475 27.0888 20.5951 27.0578 20.64ZM26.1689 19.9822C26.0106 19.9913 25.8598 20.0532 25.7406 20.1579C25.6214 20.2625 25.5406 20.4041 25.5112 20.56H26.6934V20.4977C26.6934 20.4305 26.68 20.3638 26.654 20.3018C26.628 20.2397 26.5898 20.1835 26.5418 20.1363C26.4939 20.0891 26.4369 20.052 26.3744 20.0271C26.3119 20.0021 26.2451 19.9899 26.1778 19.9911L26.1689 19.9822Z" fill="#092B33"/>
</g>
<defs>
<linearGradient id="paint0_linear_2707_280678" x1="8.68173" y1="9.01166" x2="11.2684" y2="11.5983" gradientUnits="userSpaceOnUse">
<stop stop-color="#F0D084"/>
<stop offset="1" stop-color="#87713C"/>
</linearGradient>
<linearGradient id="paint1_linear_2707_280678" x1="9.61807" y1="18.557" x2="14.6758" y2="18.557" gradientUnits="userSpaceOnUse">
<stop stop-color="#0E7F46"/>
<stop offset="1" stop-color="#25B463"/>
</linearGradient>
<linearGradient id="paint2_linear_2707_280678" x1="91.3789" y1="19.5374" x2="133.121" y2="19.5374" gradientUnits="userSpaceOnUse">
<stop stop-color="#0E7F46"/>
<stop offset="1" stop-color="#25B463"/>
</linearGradient>
<linearGradient id="paint3_linear_2707_280678" x1="-159.526" y1="246.533" x2="53.7625" y2="-29.9288" gradientUnits="userSpaceOnUse">
<stop stop-color="#0E7F46"/>
<stop offset="1" stop-color="#25B463"/>
</linearGradient>
<linearGradient id="paint4_linear_2707_280678" x1="70.715" y1="14.5849" x2="4.88388" y2="14.5849" gradientUnits="userSpaceOnUse">
<stop stop-color="#0E7F46"/>
<stop offset="1" stop-color="#25B463"/>
</linearGradient>
<linearGradient id="paint5_linear_2707_280678" x1="42.6386" y1="16.7443" x2="8.70077" y2="16.7443" gradientUnits="userSpaceOnUse">
<stop stop-color="#0E7F46"/>
<stop offset="1" stop-color="#25B463"/>
</linearGradient>
<linearGradient id="paint6_linear_2707_280678" x1="23.1511" y1="19.0828" x2="8.76001" y2="19.0828" gradientUnits="userSpaceOnUse">
<stop stop-color="#0E7F46"/>
<stop offset="1" stop-color="#25B463"/>
</linearGradient>
<clipPath id="clip0_2707_280678">
<rect width="32" height="32" fill="white"/>
</clipPath>
</defs>
</svg>
