<svg width="32" height="32" viewBox="0 0 32 32" fill="none" xmlns="http://www.w3.org/2000/svg">
<g clip-path="url(#clip0_2707_280618)">
<path d="M16 31.9822C24.8268 31.9822 31.9823 24.8267 31.9823 16C31.9823 7.17325 24.8268 0.0177612 16 0.0177612C7.17331 0.0177612 0.0178223 7.17325 0.0178223 16C0.0178223 24.8267 7.17331 31.9822 16 31.9822Z" fill="white"/>
<path d="M10.5956 22.9689H10.2756C9.17371 22.7115 8.12434 22.2665 7.17335 21.6533C5.86032 20.845 4.89418 19.5779 4.46224 18.0978C4.20409 17.2338 4.13437 16.3244 4.25779 15.4311C4.25779 15.1022 4.35557 14.7822 4.4089 14.4533C4.50062 14.0108 4.63764 13.5789 4.81779 13.1645C5.07728 12.5212 5.43403 11.9216 5.87557 11.3867C6.45486 10.6852 7.17975 10.118 8.00001 9.72445C8.55853 9.43587 9.15814 9.23499 9.77779 9.1289C10.5577 8.9822 11.3565 8.96418 12.1422 9.07556C13.2096 9.24048 14.2255 9.64637 15.1126 10.2624C15.9997 10.8785 16.7349 11.6886 17.2622 12.6311C17.5693 13.1535 17.8026 13.7159 17.9556 14.3022C17.6089 14.7378 17.2533 15.1911 16.8711 15.6445C16.8711 15.5733 16.7911 15.5378 16.7822 15.4845C16.5725 14.481 16.1311 13.5404 15.4933 12.7378C14.9302 11.9994 14.1947 11.4104 13.3511 11.0222C12.8437 10.7829 12.3 10.6297 11.7422 10.5689L11.1289 10.5245C10.2481 10.4941 9.38115 10.7499 8.65779 11.2533C7.76591 11.8269 7.02264 12.6037 6.4889 13.52C6.03607 14.2871 5.71742 15.1258 5.54668 16C5.38742 16.7445 5.40329 17.5159 5.59302 18.2532C5.78275 18.9905 6.14117 19.6737 6.64001 20.2489C7.24105 20.9554 7.95612 21.5563 8.75557 22.0267C9.35038 22.373 9.96474 22.6847 10.5956 22.96" fill="#1330D4"/>
<path d="M12.8799 21.2622C12.9088 21.1895 12.9415 21.1183 12.9777 21.0489C13.0941 20.811 13.1478 20.5474 13.1338 20.283C13.1198 20.0185 13.0386 19.762 12.8977 19.5378C12.477 18.8584 11.9589 18.2445 11.3599 17.7156L10.0177 16.5067C9.65076 16.1574 9.34966 15.7449 9.12883 15.2889C9.01853 15.0534 8.95769 14.7979 8.95004 14.5379C8.9424 14.278 8.98812 14.0193 9.08438 13.7778C9.25018 13.4097 9.45586 13.061 9.69771 12.7378C9.87549 12.48 10.071 12.2311 10.2488 11.9733L10.3644 11.8578C10.3709 11.9198 10.3709 11.9824 10.3644 12.0445C10.3396 12.1332 10.3069 12.2194 10.2666 12.3022C10.1429 12.564 10.0901 12.8537 10.1135 13.1423C10.1369 13.4309 10.2357 13.7082 10.3999 13.9467C10.5206 14.1252 10.6543 14.2946 10.7999 14.4533C11.4642 15.1502 12.1644 15.8118 12.8977 16.4356C13.3698 16.8361 13.7775 17.3068 14.1066 17.8311C14.2387 18.0373 14.3239 18.2699 14.3561 18.5126C14.3884 18.7553 14.3669 19.0021 14.2933 19.2356C14.0662 19.963 13.6667 20.6247 13.1288 21.1645C13.0736 21.2167 13.0141 21.2642 12.951 21.3067H12.8888" fill="#ED3439"/>
<path d="M11.1022 22.9956C11.1644 22.8534 11.2089 22.7289 11.2622 22.6134C11.339 22.4173 11.3724 22.2069 11.3601 21.9967C11.3479 21.7864 11.2902 21.5814 11.1911 21.3956C11.0116 21.0425 10.7875 20.7139 10.5244 20.4178C9.97928 19.8015 9.38471 19.2307 8.74664 18.7111C8.33773 18.3612 7.96814 17.9678 7.64442 17.5378C7.30643 17.1403 7.1178 16.6373 7.11108 16.1156C7.13518 15.7174 7.26732 15.3332 7.49331 15.0045C7.77775 14.5689 8.09775 14.1156 8.3822 13.7156C8.40094 13.6894 8.42476 13.6672 8.45225 13.6504C8.47974 13.6336 8.51033 13.6225 8.54219 13.6178C8.54642 13.6651 8.54642 13.7127 8.54219 13.76C8.4276 13.9972 8.34395 14.2482 8.29331 14.5067C8.24177 14.8676 8.31718 15.2352 8.50664 15.5467C8.66065 15.7901 8.83616 16.0191 9.03108 16.2311C9.65318 16.8813 10.3089 17.4984 10.9955 18.08C11.4762 18.4673 11.8879 18.9332 12.2133 19.4578C12.3244 19.6605 12.4195 19.8715 12.4978 20.0889C12.5892 20.4265 12.5577 20.7857 12.4089 21.1022C12.1856 21.775 11.8046 22.3845 11.2978 22.88L11.1733 22.9956H11.0755" fill="#1330D4"/>
<path d="M24.4001 17.3422H25.1734C25.3423 17.3422 25.4045 17.3956 25.4134 17.5556L25.4668 19.5111C25.4668 19.6 25.4668 19.68 25.4668 19.7956C25.5164 19.7716 25.5608 19.7381 25.5974 19.6969C25.634 19.6557 25.6621 19.6077 25.6801 19.5556C25.9823 18.9067 26.2757 18.2489 26.569 17.6C26.592 17.5158 26.6461 17.4433 26.7202 17.3972C26.7944 17.351 26.8832 17.3346 26.969 17.3511C27.1734 17.3511 27.3779 17.3511 27.5823 17.3511C27.6474 17.3456 27.7128 17.3456 27.7779 17.3511C27.6712 17.9733 27.5557 18.5867 27.4401 19.2C27.3245 19.8133 27.2179 20.4089 27.1112 21.0222C26.8995 21.0768 26.6795 21.0919 26.4623 21.0667C26.4578 20.9986 26.4578 20.9303 26.4623 20.8622L26.9423 18.64C26.9696 18.5879 26.9838 18.5299 26.9838 18.4711C26.9838 18.4123 26.9696 18.3543 26.9423 18.3022C26.7813 18.5891 26.6388 18.886 26.5157 19.1911C26.3734 19.4933 26.249 19.7956 26.1068 20.08L25.6979 20.9689H25.0045C24.9774 20.8791 24.9596 20.7868 24.9512 20.6933C24.9512 20.0356 24.9068 19.3778 24.8801 18.72C24.8801 18.5511 24.8801 18.3911 24.8801 18.1867C24.7689 18.2912 24.7021 18.4343 24.6934 18.5867C24.5601 19.2889 24.4445 20 24.3112 20.7022C24.2958 20.7902 24.272 20.8765 24.2401 20.96C24.0296 21.0089 23.8106 21.0089 23.6001 20.96C23.6001 20.8178 23.6001 20.6933 23.6623 20.5689C23.7334 20.24 23.8045 19.92 23.8668 19.6L24.2934 17.5111C24.297 17.4561 24.3143 17.4028 24.3438 17.3562C24.3733 17.3096 24.4141 17.2712 24.4623 17.2444" fill="#231F20"/>
<path d="M20.9688 18.8356C21.0131 18.8407 21.0578 18.8407 21.1021 18.8356C21.3866 18.8356 21.6799 18.8356 21.991 18.8356C22.0959 18.8184 22.1959 18.779 22.2843 18.72C22.3324 18.692 22.3741 18.6543 22.4068 18.6093C22.4394 18.5643 22.4624 18.513 22.4741 18.4586C22.4858 18.4042 22.486 18.348 22.4748 18.2935C22.4635 18.2391 22.4411 18.1875 22.4088 18.1422C22.3375 18.0534 22.2365 17.9934 22.1243 17.9733C21.8132 17.9733 21.5021 17.9733 21.1821 17.9733C21.0624 18.2546 20.999 18.5566 20.9955 18.8622M20.6132 20.4445H20.7199H21.7599C21.8543 20.4575 21.95 20.4575 22.0443 20.4445C22.1336 20.3941 22.2073 20.3202 22.2574 20.2309C22.3076 20.1416 22.3323 20.0402 22.3288 19.9378C22.3156 19.8419 22.2709 19.7532 22.2016 19.6856C22.1324 19.618 22.0427 19.5754 21.9466 19.5645C21.8639 19.5553 21.7804 19.5553 21.6977 19.5645H21.0843H20.7999C20.7132 19.8551 20.6508 20.1524 20.6132 20.4533M22.6043 19.1645L22.7199 19.2622C22.808 19.3048 22.8867 19.3645 22.9514 19.4379C23.0162 19.5112 23.0658 19.5966 23.0972 19.6893C23.1286 19.7819 23.1413 19.8799 23.1345 19.9775C23.1278 20.0751 23.1016 20.1704 23.0577 20.2578C22.9706 20.5065 22.8064 20.7208 22.5889 20.8695C22.3714 21.0183 22.1121 21.0936 21.8488 21.0845C21.1999 21.0845 20.5421 21.0845 19.8932 21.0845H19.7421C19.7377 21.0253 19.7377 20.9658 19.7421 20.9067C19.9643 19.8222 20.1954 18.7289 20.4177 17.6445C20.471 17.3956 20.5155 17.3689 20.7732 17.3689H22.0799C22.245 17.3738 22.4091 17.3977 22.5688 17.44C22.7359 17.4746 22.8878 17.5611 23.0027 17.6873C23.1177 17.8134 23.1898 17.9726 23.2088 18.1422C23.2359 18.3133 23.2125 18.4885 23.1415 18.6464C23.0704 18.8043 22.9548 18.938 22.8088 19.0311C22.736 19.0782 22.6675 19.1317 22.6043 19.1911" fill="#231F20"/>
<path d="M16.311 19.9111L16.871 19.8578C16.9129 19.8575 16.9534 19.8729 16.9846 19.9008C17.0158 19.9287 17.0355 19.9672 17.0399 20.0089C17.0402 20.0825 17.0572 20.1552 17.0895 20.2214C17.1218 20.2875 17.1687 20.3456 17.2266 20.3911C17.3724 20.4911 17.5481 20.5382 17.7244 20.5244C17.8803 20.5212 18.0354 20.5004 18.1866 20.4622C18.2761 20.443 18.3563 20.3937 18.4138 20.3226C18.4713 20.2514 18.5027 20.1626 18.5027 20.0711C18.5027 19.9796 18.4713 19.8908 18.4138 19.8196C18.3563 19.7485 18.2761 19.6992 18.1866 19.68C17.9644 19.5644 17.7244 19.4667 17.4932 19.3511C17.3584 19.2941 17.2303 19.2226 17.111 19.1378C16.9947 19.0644 16.8997 18.9617 16.8358 18.84C16.7718 18.7183 16.741 18.5818 16.7466 18.4444C16.7382 18.3017 16.7584 18.1587 16.8059 18.0239C16.8534 17.8891 16.9273 17.765 17.0233 17.6591C17.1193 17.5532 17.2355 17.4674 17.365 17.4069C17.4945 17.3464 17.6348 17.3123 17.7777 17.3067C18.1617 17.2343 18.5586 17.2808 18.9155 17.44C19.0733 17.5147 19.2117 17.6251 19.3196 17.7624C19.4276 17.8996 19.5022 18.0601 19.5377 18.2311C19.542 18.2546 19.542 18.2787 19.5377 18.3022C19.5337 18.3287 19.5337 18.3557 19.5377 18.3822C19.3332 18.4444 19.111 18.3822 18.8977 18.4355C18.8731 18.4088 18.8522 18.3789 18.8355 18.3467C18.8018 18.2433 18.7458 18.1487 18.6714 18.0696C18.597 17.9904 18.506 17.9287 18.4049 17.8888C18.3039 17.8489 18.1952 17.8318 18.0868 17.8387C17.9784 17.8456 17.8728 17.8764 17.7777 17.9289C17.7072 17.9442 17.643 17.9807 17.5937 18.0334C17.5444 18.0861 17.5123 18.1526 17.5017 18.224C17.4911 18.2954 17.5024 18.3683 17.5343 18.4331C17.5661 18.4979 17.6169 18.5514 17.6799 18.5867C17.847 18.6925 18.0224 18.7846 18.2044 18.8622C18.4308 18.9635 18.6505 19.0793 18.8621 19.2089C18.9656 19.2677 19.0563 19.3467 19.1287 19.4411C19.2011 19.5356 19.2538 19.6437 19.2836 19.7589C19.3135 19.8742 19.3199 19.9942 19.3024 20.112C19.285 20.2297 19.2441 20.3428 19.1821 20.4444C19.0932 20.6415 18.9547 20.8122 18.7803 20.9399C18.6058 21.0676 18.4013 21.148 18.1866 21.1733C17.8918 21.2159 17.5925 21.2159 17.2977 21.1733C17.0443 21.1497 16.8063 21.0411 16.6224 20.8653C16.4384 20.6894 16.3193 20.4565 16.2844 20.2044C16.2799 20.1245 16.2799 20.0444 16.2844 19.9644" fill="#231F20"/>
</g>
<defs>
<clipPath id="clip0_2707_280618">
<rect width="32" height="32" fill="white"/>
</clipPath>
</defs>
</svg>
