<svg width="32" height="32" viewBox="0 0 32 32" fill="none" xmlns="http://www.w3.org/2000/svg">
<g clip-path="url(#clip0_2707_280538)">
<path d="M16 32C24.8366 32 32 24.8366 32 16C32 7.16344 24.8366 0 16 0C7.16344 0 0 7.16344 0 16C0 24.8366 7.16344 32 16 32Z" fill="white"/>
<path d="M16.0001 29.3334C23.3639 29.3334 29.3334 23.3638 29.3334 16C29.3334 8.63622 23.3639 2.66669 16.0001 2.66669C8.63628 2.66669 2.66675 8.63622 2.66675 16C2.66675 23.3638 8.63628 29.3334 16.0001 29.3334Z" fill="white"/>
<path d="M16.0001 2.66664C18.639 2.65784 21.2213 3.43235 23.4197 4.89207C25.6182 6.3518 27.3341 8.4311 28.3501 10.8667C29.3661 13.3022 29.6365 15.9845 29.127 18.5738C28.6176 21.1632 27.3513 23.5431 25.4883 25.4122C23.6254 27.2814 21.2497 28.5557 18.6621 29.0738C16.0745 29.5918 13.3913 29.3304 10.9524 28.3226C8.51345 27.3147 6.42844 25.6058 4.96138 23.4122C3.49432 21.2186 2.7112 18.6389 2.71118 16C2.71116 12.4714 4.10982 9.08677 6.6007 6.58756C9.09158 4.08835 12.4716 2.6784 16.0001 2.66664ZM16.0001 13.3333H3.98229C3.6534 13.3333 3.46674 13.52 3.46674 13.84C3.46674 15.1289 3.46674 16.4266 3.46674 17.7155C3.46034 17.7837 3.4686 17.8525 3.49098 17.9172C3.51336 17.982 3.54934 18.0412 3.59649 18.0908C3.64364 18.1405 3.70088 18.1795 3.76436 18.2052C3.82783 18.231 3.89608 18.2428 3.96452 18.24C4.07118 18.24 4.18674 18.24 4.2934 18.24H27.7956C28.2223 18.24 28.3823 18.0622 28.4001 17.6533C28.4001 17.5022 28.4001 17.3511 28.4001 17.2089C28.4001 16.1244 28.4001 15.0489 28.4001 13.9733C28.4001 13.5022 28.2401 13.3422 27.769 13.3333H16.0001ZM15.4312 18.9778C15.5734 19.2089 15.689 19.3778 15.8045 19.5555C16.6466 20.7431 17.2227 22.0984 17.4934 23.5289C17.6545 24.3704 17.5182 25.2418 17.1081 25.9941C16.6979 26.7464 16.0392 27.3328 15.2445 27.6533C14.4272 28.0012 13.5541 28.1999 12.6667 28.24L12.9423 28.3555C14.2784 28.7455 15.6855 28.8276 17.0578 28.5955C17.8944 28.4964 18.7022 28.2285 19.4322 27.8079C20.1621 27.3873 20.7991 26.8229 21.3044 26.1489C21.8097 25.4748 22.1729 24.7051 22.372 23.8866C22.571 23.068 22.6017 22.2175 22.4623 21.3866C22.3374 20.5421 22.0635 19.7265 21.6534 18.9778H15.4312ZM10.4534 12.9155H16.7201C16.5512 12.6666 16.409 12.4711 16.2845 12.2666C15.4413 11.1116 14.8618 9.78559 14.5867 8.38219C14.389 7.55877 14.4917 6.69182 14.8762 5.93734C15.2608 5.18287 15.902 4.59043 16.6845 4.26664C17.5019 3.90687 18.379 3.70191 19.2712 3.66219L18.9334 3.55553C17.3978 3.1049 15.7677 3.08645 14.2223 3.50219C13.3748 3.69707 12.5791 4.07173 11.889 4.60081C11.1989 5.12989 10.6305 5.80105 10.2223 6.56886C9.71805 7.56436 9.47248 8.67077 9.5082 9.78612C9.54393 10.9015 9.85981 11.9899 10.4267 12.9511L10.4534 12.9155Z" fill="#EA0304"/>
<path d="M16 13.3333H27.7689C28.24 13.3333 28.4 13.5022 28.4 13.9733C28.4 15.0578 28.4 16.1333 28.4 17.2089C28.4 17.36 28.4 17.5022 28.4 17.6533C28.4 18.0622 28.2133 18.2311 27.7955 18.24C27.7275 18.2444 27.6592 18.2444 27.5911 18.24H3.96443C3.83622 18.2448 3.71124 18.1991 3.61645 18.1126C3.52166 18.0261 3.46467 17.9059 3.45776 17.7778C3.45776 16.48 3.45776 15.1911 3.45776 13.8933C3.45776 13.5733 3.65332 13.4133 3.98221 13.3955C4.13505 13.3665 4.28935 13.3457 4.44443 13.3333H16Z" fill="#FDFCFB"/>
<path d="M15.4046 19.0133H21.6268C22.0369 19.762 22.3108 20.5777 22.4357 21.4222C22.5751 22.253 22.5444 23.1035 22.3454 23.9221C22.1463 24.7407 21.7831 25.5104 21.2778 26.1844C20.7725 26.8585 20.1355 27.4229 19.4056 27.8435C18.6756 28.264 17.8678 28.532 17.0312 28.6311C15.6589 28.8631 14.2518 28.7811 12.9157 28.3911L12.6401 28.2755C13.5275 28.2354 14.4006 28.0367 15.2179 27.6889C16.0126 27.3684 16.6713 26.7819 17.0815 26.0296C17.4916 25.2774 17.6279 24.406 17.4668 23.5644C17.201 22.1215 16.6247 20.7537 15.7779 19.5555C15.6624 19.4222 15.5468 19.2444 15.4046 19.0133Z" fill="#FDFCFB"/>
<path d="M10.4267 12.9511C9.39554 10.8533 9.08443 8.72883 10.2222 6.56883C10.6304 5.80102 11.1988 5.12986 11.8889 4.60078C12.579 4.0717 13.3747 3.69704 14.2222 3.50217C15.7682 3.09097 17.3971 3.10941 18.9333 3.5555L19.2444 3.67994C18.3528 3.72385 17.4765 3.92863 16.6578 4.28439C15.8753 4.60818 15.2341 5.20062 14.8495 5.95509C14.4649 6.70956 14.3623 7.57652 14.56 8.39994C14.835 9.80334 15.4146 11.1293 16.2578 12.2844C16.3822 12.4888 16.5244 12.6844 16.6933 12.9422L10.4267 12.9511Z" fill="#FDFCFB"/>
<path d="M7.8313 15.6711C7.73888 15.6077 7.63682 15.5597 7.52908 15.5289L7.31574 15.4666L6.89797 15.3689L6.67574 15.2889C6.64337 15.2817 6.61485 15.2626 6.59574 15.2355C6.58682 15.2127 6.58682 15.1873 6.59574 15.1644C6.58935 15.1505 6.58604 15.1353 6.58604 15.12C6.58604 15.1046 6.58935 15.0895 6.59574 15.0755C6.61172 15.0505 6.63295 15.0293 6.65797 15.0133C6.69015 15.006 6.72356 15.006 6.75574 15.0133H6.88019H7.05797C7.10605 15.0201 7.15179 15.0384 7.1913 15.0666C7.22597 15.0839 7.25406 15.112 7.2713 15.1466C7.28378 15.1992 7.28378 15.254 7.2713 15.3066V15.4133H8.06241V15.2978C8.08149 15.1322 8.06014 14.9644 8.00019 14.8089C7.93542 14.6864 7.8406 14.5824 7.72463 14.5066C7.61032 14.4225 7.48038 14.3621 7.34241 14.3289C7.19961 14.2962 7.05332 14.2812 6.90685 14.2844C6.77176 14.2847 6.63729 14.3026 6.50685 14.3378C6.37768 14.3681 6.25646 14.4257 6.1513 14.5066C6.04078 14.5786 5.94929 14.6762 5.88463 14.7911C5.81533 14.9195 5.77869 15.063 5.77797 15.2089C5.77576 15.3388 5.80633 15.4672 5.86685 15.5822C5.92101 15.6809 5.9934 15.7683 6.08019 15.84C6.16702 15.9041 6.26288 15.955 6.36463 15.9911C6.46512 16.0331 6.56926 16.0659 6.67574 16.0889L6.96908 16.1689L7.21797 16.24C7.27179 16.2621 7.32028 16.2954 7.36019 16.3378C7.38721 16.3633 7.40317 16.3984 7.40463 16.4355C7.41616 16.4702 7.41616 16.5076 7.40463 16.5422C7.37912 16.5706 7.34909 16.5947 7.31574 16.6133C7.26866 16.6211 7.22061 16.6211 7.17352 16.6133H6.98685H6.78241L6.6313 16.5422C6.58686 16.5116 6.55277 16.4682 6.53352 16.4178C6.52048 16.3592 6.52048 16.2985 6.53352 16.24V16.1333H5.69797V16.24C5.69081 16.4056 5.72439 16.5704 5.79574 16.72C5.8661 16.8537 5.96651 16.9693 6.08908 17.0578C6.21215 17.1476 6.35078 17.2139 6.49797 17.2533C6.64952 17.2885 6.80459 17.3064 6.96019 17.3066C7.13713 17.3121 7.31389 17.2912 7.48463 17.2444C7.626 17.1998 7.75839 17.1306 7.87574 17.04C7.97993 16.9552 8.06479 16.8491 8.12463 16.7289C8.17743 16.6052 8.20465 16.4722 8.20463 16.3378C8.21248 16.1841 8.17208 16.0318 8.08908 15.9022C8.01655 15.8114 7.92943 15.7333 7.8313 15.6711Z" fill="#EA0304"/>
<path d="M10.4712 14.3466H10.3645V16.1244C10.375 16.2563 10.3405 16.3879 10.2667 16.4977C10.2164 16.5394 10.1582 16.5703 10.0955 16.5886C10.0329 16.607 9.96711 16.6123 9.9023 16.6044C9.81976 16.6114 9.73687 16.596 9.6623 16.56C9.6094 16.5408 9.56312 16.5069 9.52897 16.4622C9.49933 16.4192 9.47821 16.3709 9.46674 16.32C9.46237 16.2548 9.46237 16.1895 9.46674 16.1244V14.3466H8.64008V16.1244C8.62893 16.2882 8.65335 16.4524 8.71165 16.6058C8.76996 16.7593 8.86077 16.8983 8.97786 17.0133C9.22817 17.2167 9.54451 17.3211 9.86674 17.3066C10.1884 17.3171 10.5034 17.2132 10.7556 17.0133C10.8743 16.8991 10.9668 16.7604 11.0266 16.6069C11.0865 16.4535 11.1123 16.2888 11.1023 16.1244V14.3466H10.4712Z" fill="#EA0304"/>
<path d="M13.9288 14.6489C13.8348 14.554 13.7231 14.4785 13.6 14.4267C13.4464 14.37 13.2836 14.3428 13.12 14.3467H11.7866V17.2889H12.5955V16.3111H13.12C13.2841 16.3119 13.447 16.2817 13.6 16.2222C13.7249 16.1739 13.8374 16.0979 13.9288 16C14.0114 15.9066 14.0749 15.7979 14.1155 15.68C14.1512 15.5649 14.1692 15.445 14.1688 15.3244C14.1685 15.204 14.1505 15.0842 14.1155 14.9689C14.0708 14.8529 14.0077 14.7449 13.9288 14.6489ZM12.5955 15.0222H12.9511H13.1377C13.1818 15.0146 13.2269 15.0146 13.2711 15.0222C13.2993 15.0444 13.3234 15.0715 13.3422 15.1022C13.3642 15.1527 13.3756 15.2072 13.3756 15.2622C13.3756 15.3173 13.3642 15.3718 13.3422 15.4222C13.3257 15.4545 13.3012 15.482 13.2711 15.5022L13.1377 15.5556H12.5955V15.0222Z" fill="#EA0304"/>
<path d="M16.6934 16.2044C16.6566 16.1398 16.6118 16.0801 16.5601 16.0267C16.7196 15.98 16.8559 15.8753 16.9423 15.7333C17.0123 15.5645 17.0457 15.3827 17.0401 15.2C17.0366 15.0878 17.0156 14.9768 16.9778 14.8711C16.9335 14.7683 16.8702 14.6748 16.7912 14.5956C16.7093 14.5156 16.6127 14.4522 16.5067 14.4089C16.3868 14.3666 16.2605 14.3455 16.1334 14.3467H14.5601V17.2889H15.3689V16.2222H15.6889L16.2756 17.2355V17.2889H17.3334L17.2267 17.12C17.2267 17.12 16.8356 16.4533 16.6934 16.2044ZM15.3689 15.0222H15.9201C16.006 15.016 16.0913 15.0413 16.1601 15.0933C16.1844 15.121 16.2026 15.1535 16.2134 15.1888C16.2241 15.2241 16.2271 15.2612 16.2223 15.2978C16.2279 15.3357 16.2252 15.3744 16.2145 15.4112C16.2037 15.448 16.1852 15.4821 16.1601 15.5111C16.0913 15.5631 16.006 15.5884 15.9201 15.5822H15.3689V15.0222Z" fill="#EA0304"/>
<path d="M18.4445 16.5688V16.1155H19.6534H19.76V16.0088V15.5377V15.4311H19.6534H18.4445V15.0666H19.7689H19.8756V14.96V14.4533V14.3466H19.7689H17.7334H17.6267V14.4533V17.1733V17.2888H17.7334H19.8045H19.9112V17.1733V16.6755V16.5688H19.8045H18.4445Z" fill="#EA0304"/>
<path d="M22.5601 14.3466H22.4801L22.4534 14.4177L21.9467 16L21.4134 14.4177L21.3867 14.3466H21.3156H20.4712H20.3645V14.4533V17.1733V17.2888H20.4712H21.0312H21.1378V17.1733V15.8755L21.6001 17.2088L21.6267 17.2888H21.7067H22.1689H22.2401L22.2667 17.2088L22.7378 15.8666V17.1733V17.2888H22.8445H23.4045H23.5112V17.1733V14.4533V14.3466H23.4045H22.5601Z" fill="#EA0304"/>
<path d="M26.2224 16.5688H24.8624V16.1155H26.0801H26.1868V16.0088V15.5377V15.4311H26.0801H24.8624V15.0666H26.1957H26.3024V14.96V14.4533V14.3466H26.1957H24.1601H24.0535V14.4533V17.1733V17.2888H24.1601H26.2224H26.3379V17.1733V16.6755V16.5688H26.2224Z" fill="#EA0304"/>
</g>
<defs>
<clipPath id="clip0_2707_280538">
<rect width="32" height="32" fill="white"/>
</clipPath>
</defs>
</svg>
