<svg width="32" height="32" viewBox="0 0 32 32" fill="none" xmlns="http://www.w3.org/2000/svg">
<g clip-path="url(#clip0_2707_280328)">
<path d="M16 31.9822C24.8268 31.9822 31.9823 24.8267 31.9823 16C31.9823 7.17325 24.8268 0.0177612 16 0.0177612C7.17331 0.0177612 0.0178223 7.17325 0.0178223 16C0.0178223 24.8267 7.17331 31.9822 16 31.9822Z" fill="white"/>
<path d="M8.23997 16C8.23655 15.8108 8.27289 15.6231 8.34663 15.4489C8.4067 15.2936 8.50087 15.1539 8.62219 15.04C8.74848 14.9255 8.89664 14.8378 9.05774 14.7822C9.23279 14.7246 9.41571 14.6946 9.59997 14.6933C9.79009 14.694 9.97898 14.7239 10.16 14.7822C10.3184 14.8378 10.4637 14.9255 10.5866 15.04C10.7107 15.1534 10.8079 15.2931 10.8711 15.4489C11.0016 15.8047 11.0016 16.1953 10.8711 16.5511C10.8077 16.706 10.7112 16.8451 10.5884 16.9587C10.4655 17.0724 10.3193 17.1577 10.16 17.2089C9.97851 17.2641 9.78963 17.2911 9.59997 17.2889C9.41618 17.2904 9.23326 17.2634 9.05774 17.2089C8.89072 17.1356 8.74198 17.0264 8.62219 16.8889C8.50262 16.7734 8.40873 16.6341 8.34663 16.48C8.28202 16.3278 8.24586 16.1651 8.23997 16ZM10.6133 16C10.617 15.8218 10.59 15.6444 10.5333 15.4755C10.4857 15.3417 10.4134 15.2181 10.32 15.1111C10.228 15.02 10.1194 14.9476 9.99997 14.8977C9.8712 14.8542 9.73589 14.8331 9.59997 14.8355C9.467 14.8338 9.33472 14.8548 9.20885 14.8977C9.08944 14.9476 8.98079 15.02 8.88886 15.1111C8.79545 15.2181 8.72308 15.3417 8.67552 15.4755C8.57003 15.8172 8.57003 16.1827 8.67552 16.5244C8.72089 16.6566 8.79358 16.7777 8.88886 16.88C8.97611 16.9766 9.0861 17.0499 9.20885 17.0933C9.33305 17.1433 9.46612 17.1675 9.59997 17.1644C9.73677 17.1685 9.87294 17.1442 9.99997 17.0933C10.1227 17.0499 10.2327 16.9766 10.32 16.88C10.4152 16.7777 10.4879 16.6566 10.5333 16.5244C10.59 16.3555 10.617 16.1781 10.6133 16Z" fill="#1B4298"/>
<path d="M11.8401 15.6444C11.8401 15.4844 11.8401 15.3244 11.8401 15.1733C11.8401 15.0222 11.8401 14.8622 11.8401 14.7022H12.6668C12.7644 14.6934 12.8626 14.6934 12.9601 14.7022C13.0454 14.72 13.1267 14.7531 13.2001 14.8C13.269 14.8432 13.3244 14.9047 13.3601 14.9778C13.4054 15.0591 13.427 15.1515 13.4224 15.2444C13.427 15.351 13.3991 15.4564 13.3424 15.5467C13.2945 15.6267 13.231 15.6962 13.1557 15.7511C13.0817 15.8055 13.001 15.8503 12.9157 15.8844L12.6757 15.9467L12.8001 16.0978L12.969 16.3111L13.1646 16.56L13.3601 16.8089L13.5379 17.0222L13.6713 17.1733H13.2446L13.0846 16.9422L12.8357 16.6133L12.5601 16.2666C12.4806 16.1634 12.3945 16.0654 12.3024 15.9733H12.169V16.24C12.169 16.4 12.169 16.56 12.169 16.7111C12.169 16.8622 12.169 17.0222 12.169 17.1733H11.8135C11.8135 17.0222 11.8135 16.8711 11.8135 16.7111C11.8135 16.5511 11.8135 16.4 11.8135 16.24V15.6178L11.8401 15.6444ZM12.1335 15.8489H12.249H12.3824H12.6135C12.6927 15.8341 12.7682 15.8039 12.8357 15.76C12.9064 15.7202 12.9648 15.6617 13.0046 15.5911C13.053 15.5107 13.0776 15.4182 13.0757 15.3244C13.0791 15.2412 13.0607 15.1584 13.0224 15.0844C12.99 15.027 12.9443 14.9782 12.889 14.9422C12.8311 14.9065 12.7682 14.8796 12.7024 14.8622H12.5157H12.1601C12.1601 14.9955 12.1601 15.1289 12.1601 15.2622C12.1601 15.3955 12.1601 15.52 12.1601 15.6533V15.8578L12.1335 15.8489Z" fill="#1B4298"/>
<path d="M16.3733 15.0133C16.3157 14.9677 16.2531 14.929 16.1866 14.8978C16.1175 14.8591 16.0424 14.832 15.9644 14.8178C15.8787 14.8086 15.7923 14.8086 15.7066 14.8178C15.5648 14.8147 15.4236 14.8358 15.2888 14.88C15.1641 14.9298 15.0496 15.0021 14.9511 15.0933C14.8517 15.1975 14.776 15.3218 14.7288 15.4578C14.6164 15.7832 14.6164 16.1368 14.7288 16.4622C14.7696 16.5991 14.8428 16.7241 14.9422 16.8267C15.0362 16.9257 15.1518 17.0017 15.28 17.0489C15.4245 17.1043 15.5784 17.1315 15.7333 17.1289H15.8933H16.0533H16.2044L16.32 17.0756V16.8622C16.32 16.7822 16.32 16.7111 16.32 16.64C16.32 16.5689 16.32 16.4711 16.32 16.3822C16.32 16.2933 16.32 16.2133 16.32 16.1422H16.4977H16.6577C16.6577 16.1956 16.6577 16.2844 16.6577 16.4V17.1733L16.4711 17.2356L16.2311 17.28H15.9644C15.8876 17.2885 15.8101 17.2885 15.7333 17.28C15.5349 17.2821 15.3372 17.2551 15.1466 17.2C14.9607 17.1432 14.7944 17.0354 14.6666 16.8889C14.5406 16.7772 14.4431 16.637 14.3822 16.48C14.3151 16.301 14.2819 16.1111 14.2844 15.92C14.281 15.7309 14.3173 15.5431 14.3911 15.3689C14.451 15.2114 14.5487 15.071 14.6755 14.96C14.807 14.8435 14.9614 14.7557 15.1288 14.7022C15.3158 14.6433 15.5106 14.6133 15.7066 14.6133C15.816 14.6034 15.9261 14.6034 16.0355 14.6133C16.1234 14.6198 16.21 14.6378 16.2933 14.6667L16.4888 14.7289L16.6311 14.8C16.6097 14.842 16.5947 14.8869 16.5866 14.9333C16.5835 14.9837 16.5835 15.0341 16.5866 15.0844H16.5422C16.4883 15.0553 16.4318 15.0315 16.3733 15.0133Z" fill="#1B4298"/>
<path d="M19.6623 17.2H19.2801L19.2089 16.9956C19.2089 16.9156 19.1467 16.8356 19.1112 16.7467L19.0045 16.4889L18.8978 16.2311H18.0089C17.9289 16.4267 17.8578 16.6044 17.7956 16.7733C17.7334 16.9422 17.6889 17.0844 17.6534 17.2H17.3867L17.9645 15.9289L18.5245 14.6578H18.5956L18.7823 15.1111C18.8534 15.2711 18.9156 15.44 18.9867 15.6089L19.2001 16.1067L19.3956 16.56L19.5645 16.9422C19.5556 17.0578 19.6267 17.1378 19.6623 17.2ZM18.0534 16.0711H18.8534L18.4445 15.1822L18.0534 16.0711Z" fill="#1B4298"/>
<path d="M21.6001 16.2578L20.649 15.2444V15.52C20.649 15.6355 20.649 15.7867 20.649 15.9822V16.1689C20.6535 16.2488 20.6535 16.3289 20.649 16.4089V16.6578C20.6531 16.7377 20.6531 16.8178 20.649 16.8978C20.6531 16.9599 20.6531 17.0223 20.649 17.0844C20.649 17.1467 20.649 17.1822 20.649 17.2H20.4446C20.4514 17.1558 20.4514 17.1108 20.4446 17.0667C20.45 16.9868 20.45 16.9066 20.4446 16.8267C20.4446 16.7378 20.4446 16.64 20.4446 16.5333C20.4446 16.4267 20.4446 16.32 20.4446 16.2133C20.4446 16.1067 20.4446 16 20.4446 15.9022V15.0133C20.4446 14.8444 20.4446 14.72 20.4446 14.6311H20.4979L20.9779 15.1467L21.4757 15.6889L21.9468 16.1955L22.3379 16.6044V15.3778C22.3379 15.1378 22.3379 14.9155 22.3379 14.7022H22.4624H22.5779C22.5779 14.7555 22.5779 14.8355 22.5779 14.9422C22.5779 15.0489 22.5779 15.1644 22.5779 15.28C22.5779 15.3955 22.5779 15.52 22.5779 15.6355C22.5779 15.7511 22.5779 15.8489 22.5779 15.92V16.1333C22.5779 16.2222 22.5779 16.3022 22.5779 16.3911V16.6667C22.5731 16.7496 22.5731 16.8327 22.5779 16.9155V17.2444H22.489C22.2224 16.8889 21.9112 16.5955 21.6001 16.2578Z" fill="#1B4298"/>
<path d="M23.4312 16C23.4294 15.8118 23.4626 15.6249 23.529 15.4489C23.5922 15.2931 23.6894 15.1534 23.8134 15.04C23.935 14.9238 24.0807 14.8358 24.2401 14.7822C24.4182 14.7246 24.6041 14.6946 24.7912 14.6933C24.9785 14.6937 25.1645 14.7237 25.3423 14.7822C25.5034 14.8378 25.6516 14.9255 25.7779 15.04C25.8992 15.1539 25.9934 15.2936 26.0534 15.4489C26.184 15.8047 26.184 16.1953 26.0534 16.5511C25.9809 16.6781 25.8878 16.7923 25.7779 16.8889C25.6512 17.0007 25.503 17.0854 25.3423 17.1377C24.9827 17.2444 24.5998 17.2444 24.2401 17.1377C24.0813 17.0873 23.9355 17.0023 23.8134 16.8889C23.6913 16.7738 23.5944 16.6345 23.529 16.48C23.4707 16.3263 23.4376 16.1642 23.4312 16ZM25.7779 16C25.7798 15.8226 25.7559 15.6459 25.7068 15.4755C25.6646 15.343 25.5983 15.2195 25.5112 15.1111C25.4162 15.0239 25.3082 14.952 25.1912 14.8977C25.0625 14.8542 24.9271 14.8331 24.7912 14.8355C24.6581 14.8323 24.5256 14.8534 24.4001 14.8977C24.2807 14.9476 24.172 15.02 24.0801 15.1111C23.9808 15.2137 23.9076 15.3387 23.8668 15.4755C23.7613 15.8172 23.7613 16.1827 23.8668 16.5244C23.9054 16.6596 23.979 16.7823 24.0801 16.88C24.1674 16.9766 24.2774 17.0499 24.4001 17.0933C24.5234 17.1462 24.6572 17.1705 24.7912 17.1644C24.928 17.1685 25.0642 17.1442 25.1912 17.0933C25.3122 17.0464 25.4214 16.9736 25.5112 16.88C25.6065 16.7777 25.6792 16.6566 25.7246 16.5244C25.7677 16.3531 25.7856 16.1764 25.7779 16Z" fill="#1B4298"/>
<path d="M28.1868 16.2578L27.2357 15.2444C27.2357 15.3155 27.2357 15.4044 27.2357 15.52V16.4089C27.2401 16.4918 27.2401 16.5749 27.2357 16.6578C27.2357 16.7466 27.2357 16.8266 27.2357 16.8978C27.2308 16.9599 27.2308 17.0223 27.2357 17.0844C27.229 17.1227 27.229 17.1617 27.2357 17.2H26.969C26.9714 17.1556 26.9714 17.1111 26.969 17.0666C26.969 16.9955 26.969 16.9244 26.969 16.8266C26.969 16.7289 26.969 16.64 26.969 16.5333C26.969 16.4266 26.969 16.32 26.969 16.2133C26.969 16.1066 26.969 16 26.969 15.9022C26.969 15.8044 26.969 15.7066 26.969 15.6266C26.969 15.3955 26.969 15.1911 26.969 15.0311C26.969 14.8711 26.969 14.7378 26.969 14.6489H27.0312L27.5023 15.1644L28.009 15.7066L28.4801 16.2133L28.8712 16.6222V16.1244C28.8712 15.8755 28.8712 15.6266 28.8712 15.3778C28.8712 15.1289 28.8712 14.9155 28.8712 14.7022H28.9957H29.1112C29.1047 14.7821 29.1047 14.8623 29.1112 14.9422C29.1112 15.0489 29.1112 15.1644 29.1112 15.28C29.1112 15.3955 29.1112 15.52 29.1112 15.6355C29.1112 15.7511 29.1112 15.8489 29.1112 15.92V16.3911C29.1112 16.48 29.1112 16.5778 29.1112 16.6666V17.2444L28.1868 16.2578Z" fill="#1B4298"/>
<path d="M6.36445 15.6355H5.39556C5.36681 15.6367 5.33811 15.6321 5.31119 15.6219C5.28427 15.6117 5.25969 15.5962 5.23893 15.5763C5.21817 15.5563 5.20166 15.5324 5.19039 15.5059C5.17911 15.4795 5.17331 15.451 5.17334 15.4222C5.17564 15.3648 5.20006 15.3105 5.24149 15.2708C5.28292 15.231 5.33813 15.2088 5.39556 15.2089H6.36445C6.42103 15.2089 6.47529 15.2313 6.5153 15.2713C6.55531 15.3114 6.57778 15.3656 6.57778 15.4222C6.57905 15.4505 6.57439 15.4788 6.56412 15.5053C6.55384 15.5318 6.53817 15.5558 6.51811 15.5758C6.49804 15.5959 6.47401 15.6116 6.44756 15.6219C6.42111 15.6321 6.3928 15.6368 6.36445 15.6355Z" fill="#E20177"/>
<path d="M5.76001 16.64V16.0444C5.76001 15.9879 5.78249 15.9336 5.82249 15.8936C5.8625 15.8536 5.91676 15.8311 5.97334 15.8311C6.02992 15.8311 6.08418 15.8536 6.12419 15.8936C6.1642 15.9336 6.18668 15.9879 6.18668 16.0444V16.64C6.18668 16.6966 6.1642 16.7508 6.12419 16.7909C6.08418 16.8309 6.02992 16.8533 5.97334 16.8533C5.91676 16.8533 5.8625 16.8309 5.82249 16.7909C5.78249 16.7508 5.76001 16.6966 5.76001 16.64Z" fill="#E20177"/>
<path d="M5.13794 14.8089V14.2222C5.14814 14.172 5.17539 14.1268 5.21508 14.0944C5.25477 14.0619 5.30446 14.0442 5.35572 14.0442C5.40698 14.0442 5.45666 14.0619 5.49635 14.0944C5.53604 14.1268 5.56329 14.172 5.57349 14.2222V14.8266C5.56329 14.8769 5.53604 14.922 5.49635 14.9545C5.45666 14.9869 5.40698 15.0046 5.35572 15.0046C5.30446 15.0046 5.25477 14.9869 5.21508 14.9545C5.17539 14.922 5.14814 14.8769 5.13794 14.8266V14.8089Z" fill="#E20177"/>
<path d="M5.13775 17.7777V16.8266C5.13119 16.7943 5.13189 16.761 5.1398 16.7291C5.14771 16.6971 5.16262 16.6673 5.18346 16.6418C5.2043 16.6163 5.23055 16.5957 5.26031 16.5816C5.29007 16.5675 5.32259 16.5602 5.35552 16.5602C5.38846 16.5602 5.42098 16.5675 5.45074 16.5816C5.48049 16.5957 5.50674 16.6163 5.52758 16.6418C5.54843 16.6673 5.56334 16.6971 5.57125 16.7291C5.57915 16.761 5.57985 16.7943 5.5733 16.8266V17.7777C5.57333 17.8065 5.56753 17.835 5.55625 17.8615C5.54498 17.888 5.52847 17.9119 5.50771 17.9318C5.48695 17.9517 5.46237 17.9673 5.43545 17.9775C5.40853 17.9876 5.37983 17.9923 5.35108 17.9911C5.2945 17.9911 5.24024 17.9686 5.20023 17.9286C5.16022 17.8886 5.13775 17.8343 5.13775 17.7777Z" fill="#E20177"/>
<path d="M4.5246 15.5467V14.9511C4.5234 14.9223 4.52803 14.8937 4.53821 14.8667C4.5484 14.8398 4.56392 14.8152 4.58385 14.7945C4.60378 14.7737 4.62771 14.7572 4.65419 14.7459C4.68067 14.7347 4.70915 14.7289 4.73793 14.7289C4.79532 14.7312 4.84958 14.7556 4.88935 14.797C4.92912 14.8385 4.95131 14.8937 4.95127 14.9511V15.5467C4.95127 15.6032 4.92879 15.6575 4.88878 15.6975C4.84877 15.7375 4.79451 15.76 4.73793 15.76C4.68135 15.76 4.62709 15.7375 4.58708 15.6975C4.54708 15.6575 4.5246 15.6032 4.5246 15.5467Z" fill="#E20177"/>
<path d="M4.52442 17.1911V16.8889C4.52442 16.8323 4.5469 16.778 4.58691 16.738C4.62692 16.698 4.68118 16.6755 4.73776 16.6755C4.79434 16.6755 4.8486 16.698 4.88861 16.738C4.92861 16.778 4.95109 16.8323 4.95109 16.8889V17.2C4.95114 17.2574 4.92895 17.3126 4.88918 17.3541C4.84941 17.3955 4.79514 17.4199 4.73776 17.4222C4.70818 17.4223 4.67891 17.4163 4.65179 17.4044C4.62468 17.3926 4.60032 17.3753 4.58026 17.3536C4.5602 17.3318 4.54487 17.3062 4.53526 17.2782C4.52565 17.2502 4.52196 17.2206 4.52442 17.1911Z" fill="#E20177"/>
<path d="M6.58662 15.8311H7.04885C7.07686 15.8311 7.1046 15.8366 7.13049 15.8474C7.15637 15.8581 7.17989 15.8738 7.1997 15.8936C7.21951 15.9134 7.23522 15.9369 7.24594 15.9628C7.25666 15.9887 7.26218 16.0164 7.26218 16.0444C7.26218 16.101 7.2397 16.1553 7.1997 16.1953C7.15969 16.2353 7.10543 16.2578 7.04885 16.2578H6.58662C6.53004 16.2578 6.47578 16.2353 6.43577 16.1953C6.39577 16.1553 6.37329 16.101 6.37329 16.0444C6.37329 15.9879 6.39577 15.9336 6.43577 15.8936C6.47578 15.8536 6.53004 15.8311 6.58662 15.8311Z" fill="#E20177"/>
<path d="M3.04888 15.8311H3.50222C3.53023 15.8311 3.55797 15.8366 3.58385 15.8474C3.60974 15.8581 3.63326 15.8738 3.65307 15.8936C3.67287 15.9134 3.68859 15.9369 3.69931 15.9628C3.71003 15.9887 3.71555 16.0164 3.71555 16.0445C3.71555 16.101 3.69307 16.1553 3.65307 16.1953C3.61306 16.2353 3.5588 16.2578 3.50222 16.2578H3.04888C2.99145 16.2578 2.93624 16.2356 2.89481 16.1959C2.85338 16.1561 2.82896 16.1018 2.82666 16.0445C2.82664 16.0157 2.83243 15.9872 2.84371 15.9607C2.85498 15.9342 2.87149 15.9103 2.89225 15.8904C2.91301 15.8704 2.93759 15.8549 2.96451 15.8447C2.99143 15.8346 3.02013 15.8299 3.04888 15.8311Z" fill="#E20177"/>
<path d="M3.90215 16.64V16.0444C3.8956 16.0121 3.8963 15.9788 3.9042 15.9468C3.91211 15.9149 3.92702 15.885 3.94787 15.8595C3.96871 15.834 3.99496 15.8135 4.02471 15.7994C4.05447 15.7853 4.08699 15.778 4.11993 15.778C4.15286 15.778 4.18538 15.7853 4.21514 15.7994C4.2449 15.8135 4.27115 15.834 4.29199 15.8595C4.31283 15.885 4.32774 15.9149 4.33565 15.9468C4.34356 15.9788 4.34426 16.0121 4.33771 16.0444V16.64C4.34426 16.6722 4.34356 16.7056 4.33565 16.7375C4.32774 16.7695 4.31283 16.7993 4.29199 16.8248C4.27115 16.8503 4.2449 16.8709 4.21514 16.885C4.18538 16.8991 4.15286 16.9064 4.11993 16.9064C4.08699 16.9064 4.05447 16.8991 4.02471 16.885C3.99496 16.8709 3.96871 16.8503 3.94787 16.8248C3.92702 16.7993 3.91211 16.7695 3.9042 16.7375C3.8963 16.7056 3.8956 16.6722 3.90215 16.64Z" fill="#E20177"/>
<path d="M5.06677 16.4622C5.22877 16.4622 5.3601 16.3309 5.3601 16.1689C5.3601 16.0069 5.22877 15.8755 5.06677 15.8755C4.90477 15.8755 4.77344 16.0069 4.77344 16.1689C4.77344 16.3309 4.90477 16.4622 5.06677 16.4622Z" fill="#E20177"/>
<path d="M6.97788 15.6267C7.09079 15.6267 7.18233 15.5351 7.18233 15.4222C7.18233 15.3093 7.09079 15.2178 6.97788 15.2178C6.86497 15.2178 6.77344 15.3093 6.77344 15.4222C6.77344 15.5351 6.86497 15.6267 6.97788 15.6267Z" fill="#009DDC"/>
<path d="M4.73789 18.0089C4.8508 18.0089 4.94234 17.9173 4.94234 17.8044C4.94234 17.6915 4.8508 17.6 4.73789 17.6C4.62498 17.6 4.53345 17.6915 4.53345 17.8044C4.53345 17.9173 4.62498 18.0089 4.73789 18.0089Z" fill="#54B948"/>
<path d="M4.11558 15.6267C4.22849 15.6267 4.32002 15.5351 4.32002 15.4222C4.32002 15.3093 4.22849 15.2178 4.11558 15.2178C4.00267 15.2178 3.91113 15.3093 3.91113 15.4222C3.91113 15.5351 4.00267 15.6267 4.11558 15.6267Z" fill="#1B4298"/>
</g>
<defs>
<clipPath id="clip0_2707_280328">
<rect width="32" height="32" fill="white"/>
</clipPath>
</defs>
</svg>
