<svg width="32" height="32" viewBox="0 0 32 32" fill="none" xmlns="http://www.w3.org/2000/svg">
<g clip-path="url(#clip0_2707_280118)">
<path d="M16 31.9822C24.8268 31.9822 31.9823 24.8268 31.9823 16C31.9823 7.17328 24.8268 0.0177917 16 0.0177917C7.17331 0.0177917 0.0178223 7.17328 0.0178223 16C0.0178223 24.8268 7.17331 31.9822 16 31.9822Z" fill="white"/>
<path d="M2.66675 15.7867C2.69276 15.7646 2.71394 15.7373 2.72897 15.7067C2.86277 15.3329 3.12399 15.0182 3.46675 14.8178C4.0495 14.4027 4.69053 14.0762 5.36897 13.8489C6.31309 13.523 7.27828 13.2617 8.25786 13.0667C8.75908 12.9533 9.26666 12.8702 9.77786 12.8178C10.7201 12.6993 11.6623 12.5926 12.6045 12.4978C13.049 12.4978 13.4934 12.4534 13.9556 12.4445C14.9956 12.4445 16.0267 12.3911 17.0667 12.4C17.8934 12.4 18.7201 12.4445 19.5379 12.5067C20.3556 12.5689 21.2445 12.7111 22.089 12.8089C23.2902 12.953 24.4787 13.1878 25.6445 13.5111C25.9467 13.5822 26.2223 13.7156 26.5334 13.8045C27.0249 13.9507 27.4988 14.1504 27.9467 14.4C28.4498 14.6258 28.8761 14.9934 29.1734 15.4578C29.3116 15.6855 29.3633 15.9553 29.3193 16.2179C29.2752 16.4806 29.1383 16.7187 28.9334 16.8889C28.5664 17.2834 28.1131 17.5876 27.609 17.7778C26.9609 18.0615 26.2959 18.305 25.6179 18.5067C24.7477 18.7772 23.8553 18.9705 22.9512 19.0845C22.4356 19.1378 21.929 19.2534 21.4134 19.3245C20.8979 19.3956 20.2845 19.4489 19.7245 19.4934C19.1645 19.5378 18.6934 19.5467 18.1779 19.5556C16.9067 19.5556 15.6267 19.6178 14.3467 19.5556C13.3423 19.5556 12.3379 19.4578 11.3334 19.3511C10.569 19.28 9.80453 19.1289 9.04008 19.0578C8.28088 18.9465 7.52968 18.7862 6.79119 18.5778C5.79692 18.3592 4.83701 18.0063 3.93786 17.5289C3.51357 17.3147 3.14525 17.0042 2.8623 16.6222C2.78828 16.5057 2.72292 16.3839 2.66675 16.2578V15.7867ZM21.209 13.2178C21.142 13.1671 21.0706 13.1224 20.9956 13.0845C20.8956 13.0495 20.7905 13.0315 20.6845 13.0311C19.6356 12.96 18.5867 12.8622 17.5379 12.8178C15.7601 12.7467 13.9823 12.8178 12.2045 12.9156C11.8579 12.9156 11.5023 12.9956 11.1467 13.0311V13.2267H9.19119C9.19119 13.2267 8.80897 13.3956 8.72897 13.4134C8.01786 13.5911 7.30675 13.7511 6.59564 13.9467C6.21454 14.0555 5.84294 14.1953 5.48453 14.3645C4.98569 14.5697 4.53251 14.8718 4.15119 15.2534C3.9753 15.4078 3.8613 15.6208 3.83025 15.8528C3.7992 16.0849 3.85322 16.3203 3.9823 16.5156C4.07837 16.6646 4.19509 16.7993 4.32897 16.9156C4.72639 17.2515 5.177 17.5189 5.6623 17.7067C6.62285 18.0926 7.61659 18.3902 8.63119 18.5956H8.85341H9.45786V18.6667C11.3689 19.0215 13.3098 19.1912 15.2534 19.1733C17.9112 19.0958 20.5634 18.8852 23.2001 18.5422C23.9023 18.3734 24.6045 18.1867 25.2979 17.9822C25.5912 17.8934 25.8667 17.7422 26.1867 17.6356C26.7402 17.4507 27.2384 17.1298 27.6356 16.7022C27.7408 16.6121 27.8252 16.5003 27.8831 16.3745C27.9409 16.2487 27.9709 16.1118 27.9709 15.9733C27.9709 15.8349 27.9409 15.698 27.8831 15.5722C27.8252 15.4464 27.7408 15.3346 27.6356 15.2445C27.2545 14.8313 26.783 14.5118 26.2579 14.3111C25.6014 14.0266 24.9199 13.8034 24.2223 13.6445L22.9334 13.36L22.8445 13.0933H21.4223C21.3464 13.1206 21.2769 13.1629 21.2179 13.2178H21.209Z" fill="#8D8C8C"/>
<path d="M10.2845 18.5333H9.14673H9.01339L8.95117 18.3822C8.95117 17.9111 8.95117 14.56 8.95117 13.8578V13.4578L9.20895 13.2089H11.1734V13.2978V13.3956L11.7334 15.6178V15.9289H11.7956L11.8667 15.6356L12.4445 14.1333C12.5512 13.8045 12.6489 13.4756 12.7378 13.1645H14.8623V13.5378C14.8623 13.6445 14.7734 18.48 14.7734 18.48H13.3778C13.3778 18.1156 13.3778 17.7333 13.3334 17.3511C13.2889 16.9689 13.3334 16.7022 13.3334 16.3733L13.2623 15.4845H13.2089L12.4445 18.5245H11.2889C11.2646 18.4281 11.235 18.3331 11.2001 18.24L10.8534 17.1645L10.3378 15.1111V17.1467C10.3378 17.2533 10.3378 17.3422 10.3378 17.44C10.3112 17.7778 10.3023 18.1689 10.2845 18.5333Z" fill="#F50917"/>
<path d="M22.9333 16.8889C22.9333 17.3422 22.9333 17.7778 22.9333 18.2489C22.9333 18.3467 22.9333 18.4356 22.9333 18.5333C22.8585 18.5072 22.781 18.4893 22.7022 18.48H21.6356C21.5009 18.469 21.3671 18.5104 21.2622 18.5956C21.275 18.4299 21.275 18.2635 21.2622 18.0978C21.2622 17.2089 21.2622 16.24 21.2622 15.3156C21.2622 14.7289 21.2622 14.1333 21.2622 13.5378C21.2622 13.5378 21.2 13.44 21.1733 13.3956V13.2445C21.2376 13.2087 21.3063 13.1818 21.3778 13.1645H22.8356L22.9245 13.4311C22.9245 13.5378 22.9245 13.6533 22.9245 13.7689C22.9245 14.0622 22.9245 14.3467 22.9245 14.6578C22.9158 14.7494 22.9158 14.8417 22.9245 14.9333C22.9245 15.1911 22.9245 15.44 22.9245 15.6889V16.48C22.9511 16.5689 22.9422 16.72 22.9333 16.8889Z" fill="#F50917"/>
<path d="M8.96889 14.5867C8.96889 14.6311 8.96889 15.6889 8.96889 15.6889H5.41333L5.57333 15.6178C5.94666 15.4489 8.94222 14.6756 8.96889 14.5867Z" fill="#8D8C8C"/>
<path d="M14.8533 13.9911H15.5644L15.8222 13.9467V15.7245L15.5999 15.68H14.8088C14.8266 15.1111 14.8444 14.5422 14.8533 13.9911Z" fill="#8D8C8C"/>
<path d="M8.93342 16.9867L6.91564 16.6934L5.55564 16.4622C5.53205 16.457 5.51005 16.4462 5.49149 16.4308C5.47293 16.4153 5.45835 16.3956 5.44897 16.3734H8.77342H8.96009L8.93342 16.9867Z" fill="#8D8C8C"/>
<path d="M15.8311 17.4222H15.3155H14.8088V16.4178H15.3066H15.8222L15.8311 17.4222Z" fill="#8D8C8C"/>
<path d="M11.4312 14.2222L12.08 14.16H12.4L11.9556 15.68H11.7867C11.6978 15.36 11.6089 15.04 11.5289 14.7289C11.4862 14.5621 11.4535 14.3929 11.4312 14.2222Z" fill="#8D8C8C"/>
<path d="M13.3334 17.3511H12.7556L13.0223 16.4622H13.3245C13.3334 16.7022 13.3334 17.0222 13.3334 17.3511Z" fill="#8D8C8C"/>
<path d="M10.8533 17.1645H10.3467V16.4089H10.6667L10.8533 17.1645Z" fill="#8D8C8C"/>
<path d="M13.3333 15.6711H13.1733L13.2445 15.5022H13.2978L13.3333 15.6711Z" fill="#8D8C8C"/>
<path d="M13.3333 15.76L13.2888 15.6711L13.3333 15.76Z" fill="#8D8C8C"/>
<path d="M22.9512 15.6356C22.9512 15.3867 22.9512 15.1378 22.9512 14.88L24.1423 15.1289L26.1245 15.5822L26.2401 15.6356H24.249C23.9112 15.6356 23.5823 15.6356 23.2445 15.6356C23.1112 15.6622 23.0489 15.6444 22.9512 15.6356Z" fill="#8D8C8C"/>
<path d="M22.9333 16.8889V16.4533H25.7778C25.8806 16.4461 25.9837 16.4612 26.08 16.4978L22.9333 16.8889Z" fill="#8D8C8C"/>
<path d="M15.8222 16.3734C15.8222 16.16 15.8222 15.9378 15.8222 15.7156V13.12H16.9067C17.3511 13.12 17.7956 13.12 18.2578 13.12C18.6932 13.1387 19.1175 13.2638 19.4933 13.4845C19.6474 13.5981 19.7876 13.7294 19.9111 13.8756L19.9733 13.9911L20.1245 14.3378L20.0533 15.0311V15.1022C20.0032 15.3547 19.8847 15.5886 19.7107 15.7783C19.5367 15.9679 19.3139 16.1062 19.0667 16.1778C18.6466 16.3206 18.2029 16.3809 17.76 16.3556C17.6267 16.3556 17.3689 16.4089 17.3689 16.4089L17.4578 18.5156L15.8489 18.4622L15.76 17.3334C15.8311 17.0756 15.8311 16.72 15.8222 16.3734ZM17.6 15.3689C17.8858 15.421 18.1806 15.3837 18.4445 15.2622C18.4936 15.1587 18.5352 15.0518 18.5689 14.9422C18.5907 14.8651 18.5888 14.7831 18.5634 14.707C18.5381 14.6309 18.4904 14.5642 18.4267 14.5156C18.1694 14.3904 17.8749 14.365 17.6 14.4445V15.3689Z" fill="#F50917"/>
<path d="M17.449 17.3511V16.4622C17.5754 16.4399 17.703 16.425 17.8312 16.4178C18.2745 16.4364 18.7175 16.3732 19.1379 16.2311C19.3854 16.1629 19.6089 16.0269 19.7832 15.8384C19.9576 15.65 20.0758 15.4165 20.1245 15.1645V15.0934L20.1956 14.4L21.289 14.5334C21.289 14.5334 21.289 17.4578 21.289 17.04L17.449 17.3511ZM21.1912 15.6534C20.9306 15.6667 20.6695 15.6667 20.409 15.6534C20.3486 15.6446 20.2869 15.6524 20.2306 15.6758C20.1742 15.6993 20.1253 15.7376 20.089 15.7867L19.5823 16.24L19.4934 16.3378C20.0537 16.4382 20.6257 16.4562 21.1912 16.3911V15.6534Z" fill="#8D8C8C"/>
<path d="M20.0713 14.08L20.009 13.9644L20.0713 14.08Z" fill="#8D8C8C"/>
<path d="M17.5645 15.3689V14.48C17.8393 14.4006 18.1339 14.4259 18.3911 14.5511C18.4549 14.5998 18.5025 14.6665 18.5279 14.7426C18.5532 14.8187 18.5551 14.9006 18.5333 14.9778C18.5333 15.0845 18.4622 15.1911 18.4178 15.2978C18.147 15.4069 17.8496 15.4317 17.5645 15.3689Z" fill="#8D8C8C"/>
</g>
<defs>
<clipPath id="clip0_2707_280118">
<rect width="32" height="32" fill="white"/>
</clipPath>
</defs>
</svg>
