<svg width="32" height="32" viewBox="0 0 32 32" fill="none" xmlns="http://www.w3.org/2000/svg">
<g clip-path="url(#clip0_2707_279643)">
<path d="M16 31.9822C24.8268 31.9822 31.9823 24.8267 31.9823 16C31.9823 7.17326 24.8268 0.0177765 16 0.0177765C7.17331 0.0177765 0.0178223 7.17326 0.0178223 16C0.0178223 24.8267 7.17331 31.9822 16 31.9822Z" fill="white"/>
<path d="M21.6091 14.2933L21.3424 14.9067C21.2357 15.1467 21.1291 15.4045 21.0224 15.6533L20.7735 16.2133C20.6668 16.4711 20.5513 16.7289 20.4446 16.9778L20.1868 17.5556L20.0268 17.9111C19.9988 17.9549 19.9609 17.9914 19.9161 18.0176C19.8713 18.0439 19.8209 18.0592 19.7691 18.0622C19.4969 18.0845 19.2234 18.0845 18.9513 18.0622C18.8432 18.0605 18.7357 18.0456 18.6313 18.0178C18.5905 18.0095 18.554 17.9871 18.528 17.9546C18.502 17.9222 18.4882 17.8816 18.489 17.84C18.489 17.7244 18.489 17.6 18.489 17.4844C18.489 17.3689 18.489 17.1111 18.489 16.9245V16.56C18.489 16.3733 18.489 16.1867 18.489 15.9911V15.6267V15.0667V14.6933V14.1333V13.7778C18.489 13.5911 18.489 13.3956 18.489 13.2089C18.489 13.0222 18.489 12.8978 18.489 12.7378C18.489 12.5778 18.5691 12.5156 18.7024 12.5067H19.3513C19.4012 12.4975 19.4524 12.4975 19.5024 12.5067C19.6002 12.5067 19.6357 12.5867 19.6446 12.7111C19.6446 12.9689 19.6446 13.2356 19.6446 13.5022C19.6446 13.7689 19.6446 13.8133 19.6446 13.9733C19.6446 14.1333 19.6446 14.2578 19.6446 14.4C19.6446 14.5422 19.6446 14.72 19.6446 14.88C19.6446 15.04 19.6446 15.1644 19.6446 15.2978C19.6446 15.4311 19.6446 15.6267 19.6446 15.7956C19.6446 15.9645 19.6446 16.0445 19.6446 16.1689C19.6446 16.2933 19.6446 16.5244 19.6446 16.7111C19.6446 16.8978 19.6446 16.8356 19.6446 16.9067L19.7868 16.6044L19.9735 16.1689C20.089 15.9022 20.2046 15.6356 20.3291 15.3778L20.5691 14.8356C20.6846 14.5778 20.7913 14.32 20.9068 14.0711L21.1468 13.5289C21.2535 13.2889 21.3602 13.04 21.4757 12.7911C21.497 12.7324 21.5238 12.6759 21.5557 12.6222C21.5806 12.5789 21.6171 12.5435 21.6611 12.5199C21.7051 12.4963 21.7548 12.4856 21.8046 12.4889H22.4979C22.5509 12.4801 22.605 12.4801 22.6579 12.4889C22.7646 12.4889 22.7824 12.5689 22.7913 12.6667C22.8002 12.7644 22.7913 12.9867 22.7913 13.1556V13.5911V14.0356V14.48V14.9245V15.36V15.8045C22.7913 15.9556 22.7913 16.0978 22.7913 16.24V16.6933C22.7874 16.7614 22.7874 16.8297 22.7913 16.8978C22.7913 16.7911 22.8802 16.6933 22.9157 16.5956C22.9513 16.4978 23.0846 16.2133 23.1646 16.0178L23.4046 15.44C23.4935 15.2533 23.5735 15.0578 23.6535 14.8711L23.8935 14.2933L24.1068 13.8044C24.1868 13.6178 24.2668 13.4222 24.3557 13.2267L24.5957 12.6489C24.617 12.5983 24.6529 12.5551 24.6988 12.525C24.7447 12.495 24.7986 12.4793 24.8535 12.48H25.4846H25.6357C25.6537 12.4876 25.6699 12.4989 25.6833 12.513C25.6968 12.5272 25.7071 12.544 25.7138 12.5623C25.7205 12.5807 25.7233 12.6002 25.7221 12.6197C25.7209 12.6391 25.7157 12.6582 25.7068 12.6756C25.6717 12.7916 25.6271 12.9046 25.5735 13.0133L25.2268 13.7689L24.8624 14.5422L24.4979 15.3333C24.3735 15.5911 24.2579 15.8578 24.1335 16.1156C24.009 16.3733 23.8935 16.6311 23.7691 16.8978L23.3957 17.7067C23.3957 17.7511 23.3513 17.7867 23.3335 17.8311C23.3049 17.8842 23.2627 17.9287 23.2111 17.96C23.1595 17.9913 23.1005 18.0082 23.0402 18.0089C22.7735 18.0089 22.5157 18.0089 22.2491 18.0089C22.1634 18.0181 22.077 18.0181 21.9913 18.0089C21.8135 18.0089 21.8046 17.8844 21.7957 17.7689C21.7868 17.6533 21.7957 17.4311 21.7957 17.2622C21.7957 17.0933 21.7957 17.0044 21.7957 16.8711V16.48C21.7957 16.3556 21.7957 16.2311 21.7957 16.0978C21.7957 15.9645 21.7957 15.7067 21.7957 15.5022V15.12C21.7957 14.9867 21.7957 14.8622 21.7957 14.7378V14.3467C21.7999 14.3142 21.7999 14.2814 21.7957 14.2489" fill="#0C68AE"/>
<path d="M10.9157 17.7778C10.818 17.9467 10.738 18.1156 10.6402 18.2756C10.4794 18.5295 10.2948 18.7676 10.0891 18.9867C9.61709 19.4754 9.03933 19.8494 8.40019 20.08C8.16916 20.1611 7.9311 20.2206 7.68908 20.2578H7.30686C7.11131 20.2578 6.90686 20.2578 6.71131 20.2578C6.48351 20.2469 6.25728 20.2142 6.03575 20.16C5.68403 20.0858 5.34341 19.9662 5.02242 19.8044C4.76867 19.6777 4.53011 19.5227 4.31131 19.3422C4.15131 19.2 3.99131 19.0667 3.84908 18.9156C3.62487 18.6917 3.43335 18.4373 3.28019 18.16C3.20908 18.0267 3.13797 17.9022 3.07575 17.7689C3.01353 17.6356 3.07575 17.7156 3.07575 17.6889C3.4394 17.5577 3.8104 17.4479 4.18686 17.36L4.90686 17.2178L5.40464 17.1378H5.78686L6.33797 17.0933H7.22686C7.40156 17.0842 7.57661 17.0842 7.75131 17.0933C7.89353 17.0933 8.03575 17.0933 8.17797 17.0933C8.32019 17.0933 8.62242 17.1467 8.84464 17.1911C9.06686 17.2356 9.44019 17.2978 9.73353 17.36C10.11 17.4479 10.481 17.5577 10.8446 17.6889" fill="#1884C6"/>
<path d="M14.8355 13.3867C14.7378 13.8578 14.6489 14.3289 14.5511 14.7911H15.2889C15.433 14.7897 15.5742 14.7498 15.6978 14.6756C15.8505 14.589 15.9743 14.4591 16.0533 14.3022C16.1254 14.156 16.159 13.9939 16.1511 13.8311C16.1442 13.7333 16.1069 13.6401 16.0444 13.5645C15.9216 13.4494 15.7594 13.3858 15.5911 13.3867H14.8355ZM14.0711 17.1911H14.1333C14.3644 17.1911 14.5955 17.1911 14.8178 17.1911C15.0218 17.2007 15.2253 17.1643 15.4133 17.0845C15.5402 17.023 15.6548 16.9386 15.7511 16.8356C15.892 16.6493 15.9642 16.4201 15.9555 16.1867C15.9549 16.0841 15.923 15.9841 15.8643 15.9C15.8056 15.8159 15.7227 15.7516 15.6266 15.7156C15.4795 15.6583 15.3223 15.6311 15.1644 15.6356H14.3822C14.2755 16.1511 14.1778 16.6667 14.0711 17.1911ZM16.3377 15.1111C16.4266 15.1111 16.5244 15.1733 16.6133 15.2178C16.7466 15.2815 16.862 15.3775 16.9489 15.497C17.0358 15.6165 17.0915 15.7558 17.1111 15.9022C17.1285 16.0409 17.1285 16.1813 17.1111 16.32C17.092 16.5858 17.0064 16.8426 16.8622 17.0667C16.7825 17.1992 16.687 17.3216 16.5777 17.4311C16.468 17.5375 16.3456 17.6301 16.2133 17.7067C15.9568 17.862 15.6734 17.9676 15.3777 18.0178C15.2745 18.0309 15.1699 18.0309 15.0666 18.0178C14.4266 18.0711 13.7778 18.0178 13.1289 18.0178C13.0511 18.0225 12.9738 18.004 12.9066 17.9645C12.8748 17.9355 12.8502 17.8996 12.8348 17.8594C12.8193 17.8193 12.8135 17.7761 12.8178 17.7333C12.8889 17.3511 12.9689 16.96 13.04 16.5778C13.1111 16.1956 13.1822 15.9022 13.2444 15.5645C13.3066 15.2267 13.3778 14.9422 13.44 14.6756C13.5022 14.4089 13.5378 14.16 13.5911 13.9022C13.6444 13.6445 13.6889 13.3956 13.7422 13.1378L13.8222 12.7822C13.8437 12.722 13.8803 12.6682 13.9286 12.6262C13.9769 12.5842 14.0351 12.5553 14.0977 12.5422H15.76C16.0635 12.5409 16.3648 12.5951 16.6489 12.7022C16.7923 12.7574 16.9226 12.8422 17.0311 12.9511C17.1652 13.0861 17.2524 13.2606 17.28 13.4489C17.2888 13.5376 17.2888 13.6269 17.28 13.7156C17.2751 13.9209 17.2298 14.1233 17.1466 14.3111C17.0624 14.5062 16.9347 14.6795 16.7733 14.8178C16.6363 14.9424 16.4763 15.039 16.3022 15.1022" fill="#0C68AE"/>
<path d="M2.66675 16.2311C2.66675 16.08 2.66675 15.9289 2.66675 15.7778C2.6862 15.4255 2.74584 15.0765 2.84453 14.7378C2.91926 14.5018 3.01444 14.2728 3.12897 14.0533C3.26929 13.7945 3.43933 13.5528 3.63564 13.3333C3.76897 13.1822 3.9023 13.0311 4.05341 12.8889C4.279 12.673 4.52969 12.485 4.80008 12.3289C5.10039 12.1566 5.41953 12.0194 5.75119 11.92C5.93786 11.8667 6.12453 11.8311 6.32008 11.7956C6.51564 11.76 6.67564 11.7956 6.85342 11.7511H7.27119C7.57231 11.7781 7.87004 11.8347 8.16008 11.92C8.43186 11.9934 8.69432 12.0978 8.9423 12.2311C9.1843 12.352 9.41108 12.5012 9.61786 12.6756C9.77129 12.7964 9.91677 12.9271 10.0534 13.0667C10.2846 13.3063 10.4874 13.5718 10.6579 13.8578C10.8208 14.1375 10.9492 14.436 11.0401 14.7467C11.1196 14.977 11.1733 15.2155 11.2001 15.4578C11.2001 15.5911 11.2001 15.7156 11.2001 15.84C11.2001 15.9644 11.2001 16.0889 11.2001 16.2044C11.1023 15.9911 11.0134 15.7867 10.9067 15.5822C10.7516 15.3058 10.5636 15.0491 10.3467 14.8178C10.1925 14.6576 10.0292 14.5062 9.85786 14.3644C9.61764 14.1633 9.35519 13.9903 9.07564 13.8489C8.73883 13.6463 8.37734 13.488 8.00008 13.3778C7.70834 13.3099 7.41058 13.2712 7.11119 13.2622C6.9307 13.2488 6.74946 13.2488 6.56897 13.2622C6.35564 13.2622 6.1423 13.3156 5.93786 13.36C5.40226 13.4807 4.89513 13.7041 4.44453 14.0178C4.13089 14.2102 3.84902 14.45 3.60897 14.7289C3.466 14.8868 3.33244 15.0531 3.20897 15.2267C2.99969 15.5223 2.83218 15.8453 2.71119 16.1867V16.2311" fill="#1884C6"/>
<path d="M26.6668 18.16C26.3074 18.1583 25.9516 18.089 25.6179 17.9556C25.5185 17.904 25.4234 17.8445 25.3334 17.7778C25.2859 17.7429 25.2496 17.6948 25.2291 17.6395C25.2086 17.5842 25.2047 17.5241 25.2179 17.4667C25.2179 17.3333 25.2712 17.2 25.2979 17.0578C25.3087 17.0179 25.3236 16.9791 25.3423 16.9422C25.4134 16.7645 25.5112 16.7733 25.6534 16.8622C25.8439 16.9812 26.0465 17.0795 26.2579 17.1556C26.4651 17.218 26.682 17.2421 26.8979 17.2267C27.0993 17.2157 27.2934 17.1479 27.4579 17.0311C27.5487 16.9653 27.6237 16.8801 27.6775 16.7817C27.7314 16.6833 27.7626 16.5742 27.769 16.4622C27.7719 16.3486 27.7436 16.2363 27.6872 16.1375C27.6308 16.0388 27.5484 15.9574 27.449 15.9022C27.2445 15.76 27.0223 15.6356 26.809 15.5022C26.6353 15.4039 26.4767 15.2811 26.3379 15.1378C26.1589 14.9464 26.044 14.7041 26.009 14.4445C25.9454 14.0751 26.0114 13.6952 26.1956 13.3689C26.3146 13.1477 26.4854 12.9586 26.6934 12.8178C26.9132 12.6646 27.1608 12.5559 27.4223 12.4978C27.5811 12.4683 27.7413 12.4476 27.9023 12.4356H28.1779C28.3334 12.4432 28.4881 12.464 28.6401 12.4978C28.7901 12.529 28.9361 12.5767 29.0756 12.64C29.1237 12.6537 29.1684 12.6775 29.2067 12.7096C29.245 12.7418 29.276 12.7817 29.2979 12.8267C29.3152 12.8847 29.3152 12.9465 29.2979 13.0045C29.3065 13.1109 29.3065 13.218 29.2979 13.3245C29.2853 13.4236 29.2487 13.5182 29.1912 13.6C29.1702 13.6181 29.1434 13.6281 29.1156 13.6281C29.0879 13.6281 29.0611 13.6181 29.0401 13.6C28.9512 13.6 28.8712 13.5111 28.7823 13.4667C28.6084 13.373 28.4184 13.3127 28.2223 13.2889C28.0927 13.2621 27.959 13.2617 27.8292 13.2876C27.6994 13.3136 27.5761 13.3654 27.4668 13.44C27.3944 13.49 27.3333 13.5546 27.2874 13.6296C27.2415 13.7046 27.2117 13.7884 27.2001 13.8756C27.1692 13.977 27.1692 14.0853 27.2001 14.1867C27.243 14.2998 27.3208 14.3963 27.4223 14.4622C27.6712 14.6311 27.929 14.7822 28.1779 14.9422C28.4708 15.103 28.7091 15.3475 28.8623 15.6445C28.9246 15.7786 28.9608 15.9234 28.969 16.0711C28.969 16.1333 28.969 16.1956 28.969 16.2667C28.9656 16.5537 28.8891 16.8352 28.7468 17.0845C28.6611 17.2336 28.5566 17.3711 28.4356 17.4933C28.2584 17.6579 28.0539 17.7902 27.8312 17.8845C27.6322 17.9718 27.4232 18.0345 27.209 18.0711C27.1261 18.0755 27.043 18.0755 26.9601 18.0711H26.6845" fill="#0C68AE"/>
<path d="M2.75562 16.7911V16.6489C2.82673 16.4622 2.89784 16.2667 2.97784 16.0889C3.07749 15.8684 3.20602 15.6622 3.36006 15.4756C3.46673 15.3511 3.5645 15.2089 3.68006 15.0933C3.84932 14.9241 4.02734 14.7639 4.21339 14.6133C4.67599 14.2557 5.20461 13.993 5.76895 13.84C6.10624 13.7514 6.45177 13.6978 6.80006 13.68C6.954 13.671 7.10834 13.671 7.26228 13.68C7.46673 13.68 7.66228 13.68 7.85784 13.7511C8.26772 13.8231 8.66561 13.9517 9.04006 14.1333C9.36111 14.2922 9.65995 14.4924 9.92895 14.7289C10.156 14.9189 10.3644 15.1303 10.5512 15.36C10.8295 15.7185 11.0459 16.1211 11.1912 16.5511V16.6045V16.7556V16.7111C11.1156 16.4741 11.0174 16.2449 10.8978 16.0267C10.7267 15.7022 10.5113 15.403 10.2578 15.1378C10.1489 15.0242 10.0331 14.9173 9.91117 14.8178C9.65825 14.6047 9.38072 14.4227 9.0845 14.2756C8.83592 14.1527 8.57718 14.0516 8.31117 13.9733C7.98352 13.879 7.64685 13.8194 7.30673 13.7956H6.82673C6.5968 13.7967 6.36754 13.8206 6.14228 13.8667C5.72462 13.9348 5.3199 14.0668 4.94228 14.2578C4.73883 14.3594 4.54279 14.4753 4.35562 14.6045C4.16111 14.7488 3.9742 14.9031 3.79562 15.0667C3.68866 15.1678 3.59053 15.2778 3.50228 15.3956C3.31413 15.6104 3.15568 15.8496 3.03117 16.1067C2.93339 16.2933 2.87117 16.4978 2.79117 16.6933V16.7467" fill="#1BA0DA"/>
<path d="M11.2268 16.6133V16.56C11.0815 16.13 10.8652 15.7274 10.5868 15.3689C10.4 15.1392 10.1917 14.9278 9.96459 14.7378C9.6956 14.5013 9.39676 14.301 9.0757 14.1422C8.70125 13.9606 8.30337 13.832 7.89348 13.76C7.69793 13.76 7.50237 13.7067 7.29793 13.6889C7.14398 13.6799 6.98965 13.6799 6.8357 13.6889C6.48742 13.7067 6.14189 13.7603 5.80459 13.8489C5.24025 14.0018 4.71164 14.2646 4.24904 14.6222C4.06299 14.7728 3.88497 14.933 3.7157 15.1022C3.60015 15.2178 3.50237 15.36 3.3957 15.4845C3.24167 15.671 3.11314 15.8773 3.01348 16.0978C2.93348 16.2756 2.86237 16.4711 2.79126 16.6578V16.5422V16.4889C2.85348 16.3467 2.90682 16.1956 2.96904 16.0533C3.14172 15.6861 3.36954 15.3473 3.64459 15.0489C3.82188 14.8525 4.01514 14.6712 4.22237 14.5067C4.49293 14.2868 4.79192 14.1044 5.11126 13.9645C5.36015 13.8578 5.61793 13.7689 5.8757 13.68C6.16439 13.5921 6.46309 13.5413 6.76459 13.5289C7.04266 13.5065 7.32208 13.5065 7.60015 13.5289C7.88409 13.5637 8.16395 13.6262 8.4357 13.7156C8.74408 13.8128 9.04187 13.9409 9.32459 14.0978C9.64811 14.2847 9.94676 14.5117 10.2135 14.7733C10.3384 14.8983 10.4542 15.032 10.5601 15.1733C10.8514 15.5324 11.0798 15.9381 11.2357 16.3733V16.4178V16.5778" fill="#1D99D6"/>
<path d="M11.1644 16.96V17.1022C11.1661 17.0815 11.1661 17.0607 11.1644 17.04C11.0976 16.7927 11.0021 16.5541 10.88 16.3289C10.7088 16.0305 10.4997 15.7556 10.2578 15.5111L9.95554 15.2356C9.70478 15.0264 9.4303 14.8474 9.13776 14.7022C8.87891 14.5724 8.60799 14.4682 8.32887 14.3911C7.96475 14.2851 7.58807 14.2283 7.20887 14.2222C6.98389 14.2088 6.7583 14.2088 6.53332 14.2222C6.32347 14.2367 6.11527 14.2694 5.91109 14.32C5.1185 14.5058 4.3907 14.9019 3.80443 15.4667C3.6766 15.5946 3.55779 15.7312 3.44887 15.8756C3.19076 16.208 2.995 16.5845 2.87109 16.9867C2.8735 17.0281 2.8735 17.0697 2.87109 17.1111V16.9689C2.94148 16.7426 3.03068 16.5226 3.13776 16.3111C3.27526 16.038 3.45194 15.7865 3.6622 15.5645C3.82378 15.3851 3.99913 15.2187 4.18665 15.0667C4.56419 14.7693 4.98747 14.5352 5.43998 14.3734C5.86719 14.2133 6.31742 14.1233 6.77332 14.1067C7.09102 14.0862 7.41002 14.1011 7.72443 14.1511C8.0119 14.196 8.2946 14.2674 8.56887 14.3645C8.97124 14.5012 9.35153 14.6958 9.69776 14.9422C10.0007 15.1593 10.2728 15.4165 10.5066 15.7067C10.7869 16.0579 10.998 16.4591 11.1289 16.8889" fill="#22B7EA"/>
<path d="M2.66675 16.2311V16.1867C2.78774 15.8453 2.95524 15.5222 3.16453 15.2267C3.288 15.053 3.42156 14.8868 3.56453 14.7289C3.80457 14.45 4.08645 14.2102 4.40008 14.0178C4.85473 13.7093 5.36489 13.492 5.9023 13.3778C6.10675 13.3333 6.32008 13.3067 6.53341 13.28C6.7139 13.2665 6.89515 13.2665 7.07564 13.28C7.37503 13.289 7.67278 13.3277 7.96453 13.3956C8.33799 13.4804 8.69934 13.6118 9.04008 13.7867C9.31963 13.9281 9.58208 14.1011 9.8223 14.3022C9.99368 14.444 10.1569 14.5953 10.3112 14.7556C10.528 14.9868 10.7161 15.2435 10.8712 15.52C10.9779 15.7244 11.0667 15.9289 11.1645 16.1422V16.3022L11.1201 16.2578C11.0422 16.0387 10.944 15.8274 10.8267 15.6267C10.6867 15.3654 10.5134 15.1234 10.3112 14.9067C10.1243 14.699 9.91898 14.5086 9.69786 14.3378C9.45575 14.1512 9.19687 13.9876 8.92453 13.8489C8.62983 13.7024 8.31978 13.5891 8.00008 13.5111C7.76277 13.4611 7.52213 13.4284 7.28008 13.4133C6.98453 13.3836 6.68674 13.3836 6.39119 13.4133C5.78169 13.4862 5.19424 13.6861 4.66675 14C4.39777 14.1513 4.14722 14.3333 3.92008 14.5422C3.70474 14.7339 3.511 14.9485 3.3423 15.1822C3.19845 15.3839 3.06781 15.5947 2.95119 15.8133C2.86052 15.9983 2.78039 16.1882 2.71119 16.3822C2.71119 16.3822 2.71119 16.3289 2.71119 16.3022C2.71119 16.2756 2.71119 16.24 2.71119 16.2044" fill="#1D8CCC"/>
<path d="M2.66675 16.4089C2.73595 16.2149 2.81608 16.025 2.90675 15.84C3.02337 15.6214 3.15401 15.4106 3.29786 15.2089C3.46656 14.9751 3.6603 14.7605 3.87564 14.5689C4.10277 14.36 4.35333 14.178 4.6223 14.0267C5.14979 13.7127 5.73725 13.5129 6.34675 13.44C6.6423 13.4103 6.94008 13.4103 7.23564 13.44C7.4919 13.4441 7.74746 13.4679 8.00008 13.5111C8.3506 13.5854 8.69085 13.7018 9.01341 13.8578C9.28575 13.9965 9.54464 14.1601 9.78675 14.3467C10.0079 14.5175 10.2131 14.7079 10.4001 14.9156C10.6023 15.1323 10.7756 15.3743 10.9156 15.6356C11.0329 15.8363 11.1311 16.0476 11.209 16.2667L11.2534 16.3111V16.4533V16.4089C11.0975 15.9736 10.8691 15.5679 10.5779 15.2089C10.4719 15.0675 10.3561 14.9338 10.2312 14.8089C9.96447 14.5472 9.66582 14.3203 9.3423 14.1333C9.05958 13.9764 8.76179 13.8484 8.45341 13.7511C8.18166 13.6618 7.9018 13.5992 7.61786 13.5644C7.33979 13.5421 7.06037 13.5421 6.7823 13.5644C6.4808 13.5769 6.1821 13.6277 5.89341 13.7156C5.63564 13.8044 5.37786 13.8933 5.12897 14C4.80963 14.1399 4.51064 14.3223 4.24008 14.5422C4.03285 14.7067 3.83959 14.8881 3.6623 15.0844C3.38725 15.3829 3.15943 15.7216 2.98675 16.0889C2.92453 16.2311 2.87119 16.3822 2.80897 16.5244V16.5778V16.4533" fill="#1F91CF"/>
<path d="M11.1645 16.96C11.0288 16.5017 10.8021 16.0754 10.4979 15.7067C10.264 15.4165 9.9919 15.1593 9.68897 14.9422C9.34274 14.6958 8.96245 14.5012 8.56008 14.3644C8.28581 14.2674 8.00311 14.1959 7.71564 14.1511C7.40123 14.1011 7.08223 14.0862 6.76453 14.1067C6.30863 14.1232 5.8584 14.2133 5.43119 14.3733C4.97868 14.5352 4.5554 14.7693 4.17786 15.0667C3.99034 15.2187 3.81499 15.3851 3.65342 15.5644C3.44315 15.7865 3.26647 16.038 3.12897 16.3111C3.02189 16.5225 2.93269 16.7426 2.8623 16.9689C2.8623 16.9689 2.8623 16.9689 2.8623 16.9689V16.8889C2.9391 16.6367 3.04032 16.3926 3.16453 16.16C3.33577 15.8378 3.54789 15.539 3.79564 15.2711C3.9023 15.1644 4.02675 15.0578 4.1423 14.96C4.37941 14.759 4.63891 14.586 4.91564 14.4444C5.27798 14.2506 5.66758 14.1128 6.07119 14.0356C6.29419 13.9893 6.51979 13.9566 6.74675 13.9378C6.88866 13.9245 7.0315 13.9245 7.17342 13.9378H7.65342C7.95547 13.9733 8.25324 14.0388 8.5423 14.1333C8.85178 14.2276 9.14988 14.3558 9.43119 14.5156C9.69878 14.6648 9.94664 14.847 10.169 15.0578C10.3112 15.1911 10.4445 15.3333 10.5779 15.4844C10.7549 15.6879 10.9071 15.9117 11.0312 16.1511C11.1367 16.3602 11.2259 16.5771 11.2979 16.8V16.8889" fill="#24AFE5"/>
<path d="M17.4845 18.8711L17.2178 19.4845C17.2101 19.5063 17.1956 19.525 17.1764 19.5378C17.1571 19.5507 17.1342 19.5569 17.1111 19.5556H16.9778C16.8889 19.5556 16.8889 19.5556 16.8889 19.4756C16.8889 19.3956 16.8889 19.2889 16.8889 19.1911C16.8889 19.0934 16.8889 18.7822 16.8445 18.5778C16.8445 18.5778 16.8445 18.5067 16.9067 18.5067C16.9689 18.5067 17.0756 18.5067 17.0845 18.6934C17.0934 18.88 17.0845 18.8889 17.0845 18.9867C17.0845 19.0845 17.0845 19.1911 17.0845 19.2978C17.1289 19.2178 17.1645 19.1378 17.2 19.0578C17.2356 18.9778 17.3511 18.72 17.4311 18.5422C17.4483 18.5353 17.4674 18.5353 17.4845 18.5422C17.5315 18.5333 17.5797 18.5333 17.6267 18.5422C17.6267 18.5422 17.6711 18.5422 17.6711 18.5956C17.6711 18.6489 17.6711 18.8089 17.6711 18.9156C17.6711 19.0222 17.6711 19.1911 17.6711 19.3422L17.7867 19.0578L18 18.5778C18 18.5778 18 18.5778 18.0534 18.5778C18.0888 18.5733 18.1246 18.5733 18.16 18.5778C18.2045 18.5778 18.2223 18.5778 18.2045 18.64C18.1862 18.6985 18.1624 18.755 18.1334 18.8089C18.0445 19.0045 17.9467 19.1911 17.8578 19.3867L17.7778 19.5645C17.7778 19.6089 17.7778 19.6178 17.6978 19.6178C17.6446 19.6222 17.5911 19.6222 17.5378 19.6178C17.4934 19.6178 17.4756 19.6178 17.4667 19.5556C17.4578 19.4934 17.4667 19.2356 17.4667 19.0756C17.4705 19.0312 17.4705 18.9866 17.4667 18.9422" fill="#0C68AE"/>
<path d="M2.97794 17.5733V17.5111V17.4578C3.04128 17.2587 3.1278 17.0678 3.23572 16.8889C3.43691 16.553 3.6922 16.2527 3.99127 16C4.18794 15.8359 4.39918 15.6901 4.62238 15.5645C4.92859 15.4002 5.25012 15.2662 5.58238 15.1645C6.01357 15.0424 6.45876 14.9766 6.90683 14.9689C7.11127 14.9689 7.31572 14.9689 7.52016 14.9689C7.68459 14.9998 7.84543 15.0475 8.00016 15.1111C8.24016 15.1733 8.48905 15.2356 8.72016 15.3156C9.01185 15.4126 9.28972 15.5471 9.54683 15.7156C9.71572 15.8222 9.87572 15.9467 10.0357 16.0711C10.2093 16.2112 10.3645 16.3724 10.4979 16.5511C10.601 16.6827 10.6931 16.8224 10.7735 16.9689C10.8336 17.0628 10.8871 17.1608 10.9335 17.2622L11.0313 17.5467V17.4933C10.9464 17.2719 10.823 17.0673 10.6668 16.8889C10.5535 16.6973 10.4161 16.5211 10.2579 16.3645C10.1511 16.2487 10.0352 16.1417 9.91127 16.0445C9.71067 15.884 9.49653 15.7413 9.27127 15.6178C8.89871 15.4128 8.49705 15.266 8.08016 15.1822C7.81527 15.1416 7.54806 15.1179 7.28016 15.1111C6.9286 15.0729 6.57394 15.0729 6.22238 15.1111C5.95733 15.1452 5.69565 15.2017 5.44016 15.28C5.10048 15.3847 4.77504 15.531 4.47127 15.7156C4.07033 15.9454 3.71484 16.2466 3.42238 16.6045C3.26173 16.8075 3.13009 17.0318 3.03127 17.2711L2.94238 17.52" fill="#BCE6FB"/>
<path d="M11.0667 17.2889C11.0667 17.2267 11.0667 17.1556 10.9956 17.0933L10.809 16.6489C10.7768 16.5848 10.7412 16.5225 10.7023 16.4622C10.7023 16.3822 10.5956 16.3111 10.5423 16.2311V16.1867L10.4978 16.1333C10.465 16.0868 10.4294 16.0422 10.3912 16C10.2598 15.8582 10.1171 15.7274 9.96451 15.6089C9.76391 15.4484 9.54977 15.3057 9.32451 15.1822C8.95505 14.9822 8.56042 14.8327 8.15118 14.7378C7.8933 14.6819 7.63198 14.6433 7.36895 14.6222C6.99449 14.6075 6.61948 14.6283 6.24895 14.6844C5.76877 14.7599 5.30183 14.9036 4.86229 15.1111C4.65784 15.2178 4.46229 15.3422 4.26673 15.4667C4.12577 15.5634 3.99208 15.6704 3.86673 15.7867C3.65533 15.9745 3.46999 16.1897 3.31562 16.4267L3.19118 16.6489L3.11118 16.8L3.05784 16.8889C3.0229 16.9729 2.99321 17.059 2.96895 17.1467V17.1911C2.96478 17.1319 2.96478 17.0725 2.96895 17.0133C3.03355 16.819 3.11691 16.6315 3.21784 16.4533C3.37843 16.1859 3.56608 15.9357 3.77784 15.7067C3.85038 15.6336 3.92758 15.5653 4.00895 15.5022L4.18673 15.3333C4.54255 15.1036 4.92842 14.9241 5.3334 14.8C5.76466 14.6376 6.21638 14.5359 6.67562 14.4978H7.20007L7.71562 14.5422C7.96397 14.5721 8.20835 14.6287 8.44451 14.7111C8.78184 14.8106 9.10461 14.9541 9.40451 15.1378C9.68063 15.2964 9.93467 15.4906 10.1601 15.7156C10.2847 15.8313 10.4005 15.9561 10.5067 16.0889C10.702 16.3246 10.8608 16.5883 10.9778 16.8711C11.0312 17.0133 11.0667 17.1556 11.1112 17.2889" fill="#62CCF5"/>
<path d="M11.1023 17.1911V17.2533C11.0976 17.2389 11.0976 17.2233 11.1023 17.2089C11.0337 16.9679 10.9383 16.7353 10.8179 16.5156C10.6746 16.2519 10.495 16.0095 10.2846 15.7956C10.1443 15.6477 9.99274 15.511 9.83123 15.3867C9.52998 15.1363 9.19096 14.9353 8.82678 14.7911C8.5104 14.6573 8.17916 14.5618 7.84012 14.5067C7.60012 14.5067 7.36012 14.4533 7.12901 14.4356C7.01362 14.4267 6.89772 14.4267 6.78234 14.4356C6.62164 14.4416 6.4614 14.4564 6.30234 14.48C6.08012 14.5245 5.849 14.5689 5.62678 14.6311C5.29718 14.7284 4.98074 14.8657 4.68456 15.04C4.41721 15.1861 4.16933 15.3653 3.94678 15.5733C3.80486 15.7045 3.67405 15.8472 3.55567 16C3.42409 16.1707 3.30241 16.3487 3.19123 16.5333C3.07513 16.7437 2.98556 16.9676 2.92456 17.2V17.1556C2.99262 16.8905 3.09733 16.6362 3.23567 16.4C3.37609 16.1521 3.54624 15.9223 3.74234 15.7156L4.07123 15.4133C4.30114 15.2048 4.55831 15.0283 4.83567 14.8889C5.2015 14.6899 5.59348 14.5433 6.00012 14.4533C6.31058 14.391 6.6258 14.3554 6.94234 14.3467C7.18594 14.3479 7.42928 14.3628 7.67123 14.3911C7.93944 14.4282 8.20407 14.4876 8.46234 14.5689C8.77151 14.6716 9.06936 14.8056 9.35123 14.9689C9.6587 15.1491 9.94239 15.3671 10.1957 15.6178C10.2967 15.713 10.3889 15.8171 10.4712 15.9289C10.5999 16.0997 10.7186 16.2778 10.8268 16.4622C10.9524 16.6763 11.0481 16.9066 11.1112 17.1467C11.1112 17.1467 11.1112 17.1467 11.1112 17.1911" fill="#3BC6F3"/>
<path d="M3.50241 16.8889C3.42952 16.9687 3.36406 17.055 3.30685 17.1467C3.19623 17.3114 3.10945 17.491 3.04907 17.68C3.04907 17.5733 3.12907 17.4578 3.17352 17.3511C3.31471 17.0607 3.50405 16.7962 3.73352 16.5689C3.88831 16.4231 4.05155 16.2866 4.22241 16.16C4.55139 15.9162 4.91759 15.7271 5.30685 15.6C5.6011 15.4751 5.9081 15.3827 6.22241 15.3245L6.83574 15.2711C7.03129 15.2711 7.23574 15.2711 7.43129 15.2711C7.59214 15.2802 7.75238 15.298 7.91129 15.3245C8.19953 15.3784 8.48219 15.4588 8.75574 15.5645C8.99944 15.6522 9.23452 15.7623 9.45796 15.8933C9.68003 16.0232 9.88848 16.1751 10.0802 16.3467C10.2583 16.504 10.4192 16.6798 10.5602 16.8711C10.6838 17.0475 10.791 17.235 10.8802 17.4311L10.9246 17.6V17.5556C10.7966 17.1896 10.5904 16.8559 10.3202 16.5778C10.0995 16.3586 9.85505 16.1648 9.59129 16C9.31174 15.8253 9.01361 15.6822 8.7024 15.5733C8.42569 15.4845 8.14365 15.4133 7.85796 15.36C7.60998 15.3336 7.36025 15.3277 7.11129 15.3422C6.89796 15.3422 6.69352 15.3422 6.48907 15.3422C6.32765 15.3595 6.16737 15.3862 6.00907 15.4222C5.77796 15.4845 5.55574 15.5556 5.32463 15.6356C4.92276 15.7669 4.5446 15.962 4.20463 16.2133C4.11574 16.2756 4.02685 16.3556 3.93796 16.4267L3.84018 16.5156L3.76018 16.5956L3.68018 16.6756V16.7289" fill="#ECF8FE"/>
<path d="M2.75562 16.7911V16.7378C2.83562 16.5422 2.89784 16.3378 2.99562 16.1511C3.12012 15.8941 3.27857 15.6549 3.46673 15.44C3.56626 15.3207 3.67633 15.2106 3.79562 15.1111C3.9742 14.9475 4.16111 14.7932 4.35562 14.6489C4.54279 14.5197 4.73883 14.4039 4.94228 14.3022C5.3199 14.1112 5.72462 13.9793 6.14228 13.9111C6.36754 13.865 6.5968 13.8412 6.82673 13.84H7.28895C7.62907 13.8639 7.96574 13.9235 8.29339 14.0178C8.5594 14.096 8.81814 14.1971 9.06673 14.32C9.36294 14.4671 9.64047 14.6491 9.89339 14.8622C10.0153 14.9618 10.1311 15.0686 10.2401 15.1822C10.4935 15.4475 10.7089 15.7466 10.8801 16.0711C10.9996 16.2893 11.0978 16.5185 11.1734 16.7556V16.8V16.8622V16.8089C11.0992 16.5756 11.004 16.3494 10.8889 16.1333C10.7369 15.8571 10.5519 15.6004 10.3378 15.3689C10.1683 15.1766 9.98081 15.001 9.77784 14.8444C9.39095 14.5364 8.95117 14.3015 8.48006 14.1511C8.26571 14.0772 8.04574 14.0207 7.82228 13.9822C7.63234 13.9405 7.4389 13.9167 7.2445 13.9111C6.93099 13.8847 6.6158 13.8847 6.30228 13.9111C6.05362 13.9547 5.80737 14.0111 5.5645 14.08C5.25513 14.1821 4.95723 14.3162 4.67562 14.48C4.40835 14.6227 4.16042 14.7989 3.93784 15.0044C3.73055 15.1923 3.54292 15.4008 3.37784 15.6267C3.21146 15.8467 3.07126 16.0853 2.96006 16.3378L2.77339 16.8889V16.8089" fill="#1CA5DE"/>
<path d="M14.7467 18.7911C14.7467 18.9511 14.6845 19.1111 14.6578 19.2622C14.6311 19.4133 14.6578 19.3955 14.6578 19.4667C14.6578 19.5378 14.6578 19.5467 14.56 19.5467C14.4623 19.5467 14.4445 19.5467 14.4711 19.4311C14.4978 19.3155 14.5511 18.9955 14.5956 18.7822C14.6062 18.7161 14.621 18.6508 14.64 18.5867C14.64 18.5333 14.64 18.5155 14.72 18.5067C14.8623 18.5067 14.8978 18.5067 14.9511 18.6667L15.1378 19.2178L15.2711 18.56C15.2733 18.5451 15.2808 18.5314 15.2922 18.5216C15.3037 18.5118 15.3183 18.5065 15.3334 18.5067H15.4223C15.4756 18.5067 15.4756 18.5067 15.4667 18.5689C15.4223 18.8089 15.3778 19.0489 15.3245 19.2889C15.3295 19.348 15.3295 19.4075 15.3245 19.4667C15.3245 19.4667 15.3245 19.4667 15.3245 19.5111C15.3245 19.5555 15.1911 19.5111 15.12 19.5111C15.0489 19.5111 15.0489 19.4489 15.0311 19.4044C15.0134 19.36 14.9156 19.04 14.8534 18.8622V18.7555" fill="#0C68AE"/>
<path d="M11.1022 17.1911C11.1022 17.1911 11.1022 17.1911 11.1022 17.1467C11.0391 16.9066 10.9434 16.6763 10.8177 16.4622C10.7096 16.2778 10.5909 16.0997 10.4622 15.9289C10.3799 15.8171 10.2877 15.713 10.1866 15.6178C9.93336 15.3671 9.64967 15.1491 9.34219 14.9689C9.06032 14.8056 8.76248 14.6716 8.45331 14.5689C8.19503 14.4876 7.9304 14.4282 7.66219 14.3911C7.42025 14.3628 7.17691 14.3479 6.93331 14.3467C6.61677 14.3554 6.30155 14.391 5.99108 14.4533C5.58445 14.5433 5.19246 14.6899 4.82664 14.8889C4.54927 15.0283 4.29211 15.2048 4.06219 15.4133L3.7333 15.7156C3.5372 15.9223 3.36706 16.1521 3.22664 16.4C3.0883 16.6362 2.98358 16.8905 2.91553 17.1556C2.9402 17.0978 2.96098 17.0384 2.97775 16.9778C3.05724 16.7508 3.15535 16.5308 3.27108 16.32C3.41539 16.0673 3.59165 15.8343 3.79553 15.6267L4.12442 15.3245C4.33059 15.1418 4.5573 14.9837 4.79997 14.8533C5.18773 14.6392 5.60364 14.4806 6.03553 14.3822C6.32653 14.3124 6.62519 14.2795 6.92442 14.2845C7.16127 14.2711 7.39868 14.2711 7.63553 14.2845C7.85477 14.3087 8.07174 14.3504 8.28442 14.4089C8.55816 14.473 8.82362 14.5685 9.07553 14.6933C9.39292 14.8442 9.6913 15.0322 9.96442 15.2533C10.1433 15.4026 10.3098 15.5661 10.4622 15.7422C10.6241 15.9206 10.7644 16.1175 10.88 16.3289C10.9936 16.5353 11.086 16.7527 11.1555 16.9778L11.2089 17.12V17.1645" fill="#2DC2F2"/>
<path d="M11.0312 17.36V17.4311C10.969 17.2533 10.8979 17.0756 10.8268 16.8978C10.8085 16.8479 10.7846 16.8002 10.7557 16.7556V16.7022L10.6934 16.6222V16.5778L10.649 16.5244L10.5957 16.4533L10.5246 16.3733C10.5246 16.3733 10.5246 16.3733 10.5246 16.32C10.3468 16.1689 10.1868 16 10.009 15.8578C9.62421 15.5682 9.19491 15.343 8.73788 15.1911C8.44951 15.0922 8.1516 15.0237 7.849 14.9867L7.11122 14.7467H6.62233H6.33788L5.75122 14.8711C5.47019 14.9297 5.19819 15.0254 4.94233 15.1556C4.62495 15.2956 4.32634 15.4748 4.05344 15.6889L3.79566 16L3.689 16.1067L3.55566 16.2044L3.44011 16.3378V16.3822V16.4267V16.4711L3.28011 16.8C3.23566 16.9067 3.209 17.0133 3.16455 17.12V17.0756C3.16455 16.9511 3.24455 16.8356 3.289 16.7111L3.369 16.5067C3.5337 16.2091 3.74025 15.9367 3.98233 15.6978C4.10077 15.5843 4.22541 15.4775 4.35566 15.3778C4.9037 14.964 5.53919 14.6812 6.21344 14.5511C6.5057 14.4887 6.8035 14.456 7.10233 14.4533C7.29788 14.4533 7.48455 14.4533 7.68011 14.4533C7.82985 14.4604 7.97863 14.4812 8.12455 14.5156C8.37404 14.5701 8.62033 14.6384 8.86233 14.72C9.1765 14.8215 9.47551 14.965 9.75122 15.1467C9.99956 15.3 10.2267 15.4853 10.4268 15.6978C10.5055 15.7796 10.5797 15.8656 10.649 15.9556C10.7734 16.1156 10.889 16.2844 11.0046 16.4622C11.1122 16.6506 11.1986 16.8504 11.2623 17.0578C11.2623 17.0578 11.2623 17.1022 11.2623 17.12" fill="#82D4F7"/>
<path d="M19.8934 18.6667C19.8568 18.6635 19.82 18.6691 19.786 18.683C19.752 18.6969 19.7218 18.7187 19.6979 18.7467C19.6434 18.8099 19.6019 18.8833 19.576 18.9626C19.5501 19.042 19.5401 19.1257 19.5468 19.2089C19.5478 19.2443 19.5607 19.2783 19.5832 19.3057C19.6057 19.333 19.6367 19.3521 19.6712 19.36C19.7373 19.3768 19.8072 19.37 19.8689 19.3408C19.9305 19.3116 19.9801 19.2618 20.009 19.2C20.0502 19.1099 20.0772 19.0139 20.089 18.9156C20.089 18.7911 20.089 18.6489 19.8934 18.6667ZM19.7068 19.5556C19.6165 19.5615 19.5266 19.5398 19.449 19.4933C19.412 19.471 19.3813 19.4398 19.3595 19.4025C19.3378 19.3653 19.3258 19.3231 19.3245 19.28C19.2996 19.1088 19.3308 18.9342 19.4134 18.7822C19.4857 18.6609 19.5981 18.5686 19.7313 18.5216C19.8644 18.4745 20.0098 18.4755 20.1423 18.5244C20.1919 18.5431 20.235 18.5757 20.2665 18.6183C20.2981 18.6608 20.3167 18.7116 20.3201 18.7644C20.3418 18.9541 20.2978 19.1454 20.1957 19.3067C20.1451 19.3892 20.0726 19.4562 19.9863 19.5001C19.9001 19.5441 19.8033 19.5632 19.7068 19.5556Z" fill="#0C68AE"/>
<path d="M18.6668 19.3778C18.7199 19.3753 18.7714 19.3594 18.8165 19.3313C18.8616 19.3033 18.8988 19.2642 18.9246 19.2178C18.9716 19.1199 19.0017 19.0147 19.0135 18.9067C19.0135 18.8356 19.0135 18.7556 18.9424 18.7111C18.884 18.6769 18.8148 18.6661 18.7488 18.6809C18.6828 18.6958 18.6249 18.7352 18.5868 18.7911C18.5063 18.9057 18.4629 19.0422 18.4624 19.1822C18.4624 19.3156 18.5335 19.3778 18.6668 19.3778ZM18.6668 19.5556H18.3913C18.3423 19.533 18.301 19.4965 18.2726 19.4507C18.2441 19.4049 18.2298 19.3517 18.2313 19.2978C18.2149 19.1517 18.2395 19.004 18.3024 18.8711C18.339 18.7713 18.4057 18.6852 18.4932 18.6247C18.5808 18.5642 18.6849 18.5323 18.7913 18.5333H19.0135C19.0775 18.553 19.1332 18.5933 19.1718 18.648C19.2104 18.7027 19.2298 18.7687 19.2268 18.8356C19.233 18.9659 19.2118 19.0961 19.1646 19.2178C19.1233 19.3163 19.0542 19.4006 18.9658 19.4606C18.8775 19.5206 18.7736 19.5536 18.6668 19.5556Z" fill="#0C68AE"/>
<path d="M12.8622 18.9245H12.9777C13.0489 18.9245 13.0933 18.9245 13.1289 18.8267C13.1644 18.7289 13.1289 18.7022 13.1289 18.6933C13.0729 18.6847 13.0159 18.6847 12.96 18.6933C12.96 18.7645 12.96 18.8356 12.96 18.9067M12.8622 19.36H13.0044C13.0349 19.3621 13.0654 19.3568 13.0933 19.3444C13.1212 19.332 13.1456 19.3129 13.1644 19.2889C13.1769 19.2673 13.1835 19.2428 13.1835 19.2178C13.1835 19.1928 13.1769 19.1683 13.1644 19.1467C13.1644 19.0933 13.1022 19.0845 13.0577 19.0845H12.8977L12.8355 19.3689M13.28 18.9778C13.3363 19.0064 13.379 19.056 13.399 19.1159C13.419 19.1758 13.4145 19.2411 13.3866 19.2978C13.3611 19.363 13.3174 19.4194 13.2606 19.4604C13.2039 19.5014 13.1365 19.5252 13.0666 19.5289H12.6755C12.6044 19.5289 12.5955 19.5289 12.6044 19.44L12.7644 18.6133C12.7644 18.5067 12.8089 18.4889 12.9155 18.4889C13.0398 18.4802 13.1646 18.4802 13.2889 18.4889C13.3866 18.4889 13.4311 18.5689 13.44 18.6667C13.4438 18.7233 13.4307 18.7799 13.4022 18.829C13.3737 18.8781 13.3311 18.9175 13.28 18.9422" fill="#0C68AE"/>
<path d="M25.1024 19.3689H25.209C25.2573 19.3717 25.3055 19.3636 25.3502 19.3451C25.3948 19.3266 25.4347 19.2983 25.4668 19.2622C25.5121 19.2137 25.5465 19.1561 25.568 19.0933C25.5894 19.0305 25.5974 18.9639 25.5913 18.8978C25.595 18.8756 25.5944 18.8528 25.5892 18.8309C25.5841 18.8089 25.5746 18.7882 25.5614 18.77C25.5481 18.7518 25.5313 18.7364 25.512 18.7248C25.4928 18.7131 25.4713 18.7055 25.449 18.7022C25.3782 18.6937 25.3066 18.6937 25.2357 18.7022L25.1024 19.3867M25.1024 19.5644H24.9513C24.8801 19.5644 24.8624 19.5644 24.8713 19.4756C24.8801 19.3867 24.9157 19.2533 24.9424 19.1378C24.969 19.0222 25.0224 18.7733 25.049 18.5956C25.0757 18.4178 25.0935 18.5244 25.129 18.5244C25.283 18.5154 25.4373 18.5154 25.5913 18.5244C25.6596 18.5311 25.723 18.563 25.7691 18.614C25.8151 18.665 25.8405 18.7313 25.8401 18.8C25.8551 18.8994 25.8485 19.0008 25.8209 19.0974C25.7933 19.194 25.7453 19.2835 25.6801 19.36C25.6096 19.4482 25.5077 19.5055 25.3957 19.52H25.1024" fill="#0C68AE"/>
<path d="M11.1112 17.1467L11.0579 17.0045C10.9883 16.7794 10.896 16.5619 10.7823 16.3556C10.6667 16.1442 10.5265 15.9473 10.3645 15.7689C10.2121 15.5928 10.0456 15.4293 9.86676 15.28C9.59365 15.0589 9.29527 14.8709 8.97787 14.72C8.72596 14.5951 8.46051 14.4997 8.18676 14.4356C7.97409 14.377 7.75711 14.3354 7.53787 14.3111C7.30102 14.2978 7.06361 14.2978 6.82676 14.3111C6.52753 14.3062 6.22887 14.339 5.93787 14.4089C5.50599 14.5073 5.09007 14.6659 4.70232 14.88C4.45964 15.0103 4.23294 15.1684 4.02676 15.3511L3.69787 15.6533C3.494 15.861 3.31773 16.094 3.17343 16.3467C3.05769 16.5575 2.95958 16.7775 2.88009 17.0045C2.86333 17.065 2.84254 17.1244 2.81787 17.1822V17.1378C2.82027 17.0963 2.82027 17.0548 2.81787 17.0133C2.94178 16.6111 3.13753 16.2347 3.39565 15.9022C3.50457 15.7579 3.62338 15.6213 3.7512 15.4933C4.33954 14.935 5.06716 14.5451 5.85787 14.3645C6.06205 14.3139 6.27024 14.2812 6.48009 14.2667C6.70508 14.2532 6.93067 14.2532 7.15565 14.2667C7.51135 14.2818 7.86374 14.3415 8.20454 14.4445C8.48366 14.5216 8.75458 14.6258 9.01343 14.7556C9.30597 14.9007 9.58044 15.0797 9.8312 15.2889L10.1334 15.5645C10.3754 15.809 10.5845 16.0839 10.7556 16.3822C10.8778 16.6074 10.9732 16.8461 11.0401 17.0933C11.0418 17.1141 11.0418 17.1349 11.0401 17.1556V17.2" fill="#24BEF0"/>
<path d="M27.1733 18.96C27.2425 18.983 27.3174 18.983 27.3866 18.96C27.416 18.9438 27.4395 18.9188 27.4538 18.8885C27.4682 18.8581 27.4727 18.8241 27.4666 18.7911C27.4666 18.7378 27.4133 18.7289 27.3777 18.72H27.2444C27.2444 18.72 27.2444 18.8978 27.2 18.9867M27.5022 19.0933C27.5755 19.1942 27.6159 19.3153 27.6177 19.44C27.6177 19.5733 27.6177 19.5733 27.4933 19.5733C27.3689 19.5733 27.3955 19.5733 27.3777 19.4311C27.382 19.3749 27.382 19.3184 27.3777 19.2622C27.3693 19.2276 27.3481 19.1975 27.3185 19.1778C27.2889 19.158 27.2529 19.1501 27.2177 19.1556C27.2177 19.2711 27.1733 19.3867 27.1466 19.4933C27.12 19.6 27.1466 19.4933 27.1466 19.4933H26.96C27.0133 19.2089 27.0755 18.9244 27.1289 18.6044C27.1289 18.48 27.1288 18.4533 27.3066 18.4622H27.6088C27.6424 18.4626 27.6754 18.4705 27.7054 18.4854C27.7354 18.5004 27.7617 18.5219 27.7822 18.5484C27.8027 18.5749 27.817 18.6057 27.8239 18.6385C27.8308 18.6713 27.8302 18.7052 27.8222 18.7378C27.8135 18.8008 27.7872 18.8601 27.7463 18.9089C27.7055 18.9576 27.6516 18.9938 27.5911 19.0133" fill="#0C68AE"/>
<path d="M2.97778 17.5734L3.06667 17.3245C3.16549 17.0852 3.29713 16.8608 3.45778 16.6578C3.75024 16.3 4.10573 15.9987 4.50667 15.7689C4.81044 15.5843 5.13588 15.438 5.47556 15.3334C5.7179 15.2388 5.96764 15.1645 6.22223 15.1111C6.57379 15.0729 6.92845 15.0729 7.28 15.1111C7.55184 15.1322 7.82204 15.1708 8.08889 15.2267C8.50578 15.3104 8.90745 15.4573 9.28 15.6622C9.50527 15.7857 9.7194 15.9285 9.92001 16.0889C10.0439 16.1862 10.1598 16.2932 10.2667 16.4089C10.4188 16.5523 10.5531 16.7134 10.6667 16.8889C10.7857 17.0661 10.8757 17.2611 10.9333 17.4667V17.52V17.4311V17.3511C10.88 17.2445 10.8267 17.1289 10.7645 17.0222C10.5491 16.678 10.2718 16.3766 9.94667 16.1334C9.55899 15.8359 9.123 15.6073 8.65778 15.4578C8.44011 15.3849 8.21726 15.3284 7.99112 15.2889C7.76843 15.2442 7.54252 15.2175 7.31556 15.2089C6.95192 15.1667 6.5843 15.1727 6.22223 15.2267C5.98223 15.2711 5.74223 15.3245 5.51112 15.3867C5.19953 15.483 4.90098 15.6174 4.62223 15.7867C4.32075 15.9495 4.04515 16.1562 3.80445 16.4C3.6749 16.5238 3.55871 16.6609 3.45778 16.8089C3.35112 16.96 3.27112 17.1289 3.17334 17.2889V17.3511V17.4934" fill="#CAEBFC"/>
<path d="M24.2135 19.5556H24.0002C23.946 19.5448 23.8978 19.5142 23.8649 19.4699C23.8321 19.4255 23.8169 19.3705 23.8224 19.3156C23.8279 19.2019 23.8427 19.0889 23.8668 18.9778C23.8668 18.8533 23.9202 18.7289 23.9379 18.6044C23.9557 18.48 23.9379 18.5244 24.0357 18.5244H24.1068C24.1691 18.5244 24.1779 18.5244 24.1691 18.5956C24.1691 18.7911 24.0891 18.9867 24.0535 19.1822C24.0491 19.2176 24.0491 19.2535 24.0535 19.2889C24.0614 19.3112 24.0737 19.3318 24.0897 19.3493C24.1057 19.3668 24.125 19.381 24.1466 19.3909C24.1681 19.4009 24.1914 19.4064 24.2151 19.4072C24.2388 19.408 24.2625 19.404 24.2846 19.3956C24.3339 19.3805 24.3777 19.3515 24.4108 19.3121C24.4439 19.2726 24.4649 19.2244 24.4713 19.1733C24.5157 18.9778 24.5513 18.7822 24.5868 18.5778C24.5868 18.5778 24.5868 18.5156 24.6579 18.5244H24.7735C24.7735 18.5244 24.8179 18.5244 24.8179 18.5689C24.7646 18.8 24.7202 19.0311 24.6668 19.2533C24.655 19.3199 24.6257 19.3821 24.582 19.4336C24.5383 19.4851 24.4817 19.5241 24.4179 19.5467C24.3448 19.5657 24.2706 19.5806 24.1957 19.5911" fill="#0C68AE"/>
<path d="M28.2933 18.7289L28.08 19.1378H28.3467L28.2933 18.7289ZM28.3644 19.3156C28.2489 19.3156 28.1333 19.3156 28.0267 19.3156C27.92 19.3156 27.9822 19.3156 27.9822 19.3156C27.9503 19.363 27.9235 19.4136 27.9022 19.4667C27.896 19.4865 27.8824 19.5032 27.8641 19.5132C27.8459 19.5231 27.8245 19.5256 27.8044 19.52H27.7067C27.6622 19.52 27.6533 19.52 27.7067 19.4578L27.8311 19.2178C27.8933 19.0933 27.9644 18.9778 28.0267 18.8622C28.0889 18.7467 28.1511 18.6311 28.2222 18.5156C28.2393 18.5086 28.2584 18.5086 28.2756 18.5156H28.4444C28.5067 18.5156 28.4978 18.5689 28.5067 18.5956L28.6133 19.2978C28.6133 19.3689 28.6133 19.44 28.6133 19.5111C28.6133 19.5645 28.6133 19.5822 28.6133 19.5111H28.4444C28.4444 19.5111 28.3822 19.5111 28.3822 19.4489V19.28" fill="#0C68AE"/>
<path d="M13.9646 18.7467L13.7602 19.1378H14.0268V18.7467M14.0979 19.3155H13.6891C13.6561 19.3669 13.6264 19.4204 13.6002 19.4755C13.594 19.4954 13.5803 19.5121 13.5621 19.522C13.5438 19.532 13.5224 19.5344 13.5024 19.5289H13.4224C13.3335 19.5555 13.3335 19.5555 13.3335 19.4755L13.5202 19.12L13.7513 18.7022V18.6222C13.7513 18.6222 13.8046 18.5244 13.8402 18.5155C13.9139 18.5063 13.9886 18.5063 14.0624 18.5155C14.0624 18.5155 14.0624 18.5155 14.0624 18.56L14.1157 18.9778C14.1157 19.12 14.1602 19.2533 14.1868 19.3955C14.2135 19.5378 14.1868 19.4578 14.1868 19.4933C14.1868 19.5289 14.1868 19.5644 14.1246 19.5555H14.2224C14.1068 19.5555 14.1068 19.5555 14.0891 19.4578C14.0713 19.36 14.0891 19.3689 14.0891 19.3244" fill="#0C68AE"/>
<path d="M23.3868 18.7289L23.1734 19.1378H23.4401L23.3868 18.7289ZM23.4579 19.3156C23.3334 19.3156 23.2268 19.3156 23.1112 19.3156C23.0969 19.3101 23.0811 19.3101 23.0668 19.3156L22.9868 19.4667C22.9794 19.4838 22.9669 19.4981 22.9509 19.5076C22.935 19.5172 22.9164 19.5215 22.8979 19.52H22.8001C22.8001 19.52 22.7379 19.52 22.8001 19.4578C22.8623 19.3956 22.8801 19.2978 22.9246 19.2178C22.969 19.1378 23.049 18.9778 23.1201 18.8622C23.1912 18.7467 23.2446 18.6311 23.3157 18.5156C23.3357 18.5081 23.3578 18.5081 23.3779 18.5156H23.5468C23.5468 18.5156 23.6001 18.5156 23.609 18.5689C23.609 18.7733 23.6712 18.9867 23.6979 19.1911C23.7246 19.3956 23.6979 19.3956 23.7423 19.5022C23.7868 19.6089 23.7423 19.5645 23.6801 19.5556H23.5823C23.529 19.5556 23.5201 19.5556 23.5112 19.4933C23.5151 19.4371 23.5151 19.3807 23.5112 19.3245" fill="#0C68AE"/>
<path d="M26.1778 19.1378H26.4445C26.4445 19.0045 26.4445 18.88 26.3912 18.7289L26.1778 19.1378ZM26.4623 19.3156H26.0889C26.0529 19.3759 26.0203 19.4382 25.9912 19.5022C25.978 19.511 25.9625 19.5157 25.9467 19.5157C25.9309 19.5157 25.9154 19.511 25.9023 19.5022H25.7778C25.7778 19.4222 25.7778 19.3689 25.8489 19.3067C25.8969 19.2032 25.9503 19.1023 26.0089 19.0045L26.2845 18.5067C26.2917 18.492 26.3032 18.4798 26.3175 18.4719C26.3318 18.4639 26.3482 18.4606 26.3645 18.4622H26.5245C26.5689 18.4622 26.5867 18.4622 26.5867 18.5156C26.5867 18.7378 26.6489 18.96 26.6845 19.1822C26.6802 19.2681 26.6802 19.3541 26.6845 19.44C26.6845 19.44 26.6845 19.5111 26.6223 19.5022H26.5512C26.4534 19.5022 26.4534 19.5022 26.4445 19.4133C26.4488 19.366 26.4488 19.3184 26.4445 19.2711" fill="#0C68AE"/>
<path d="M15.8224 18.9333L16.1691 18.5422C16.1921 18.5341 16.2172 18.5341 16.2402 18.5422C16.2815 18.5378 16.3232 18.5378 16.3646 18.5422C16.4179 18.5422 16.4179 18.5422 16.4091 18.6045V18.6489C16.3216 18.7304 16.2385 18.8164 16.1602 18.9067L16.0357 19.04L16.2402 19.4578C16.2402 19.5289 16.2402 19.5556 16.1779 19.5645C16.1563 19.5698 16.1339 19.5707 16.1119 19.5674C16.09 19.564 16.0689 19.5563 16.0499 19.5447C16.0309 19.5331 16.0144 19.5179 16.0012 19.5C15.9881 19.482 15.9787 19.4616 15.9735 19.44C15.9291 19.3156 15.8668 19.1911 15.8046 19.0578C15.8046 19.1822 15.7602 19.2978 15.7335 19.4133C15.7068 19.5289 15.7335 19.4667 15.7335 19.4933C15.7335 19.52 15.7335 19.5733 15.6446 19.5645H15.5735C15.5113 19.5645 15.4935 19.5645 15.5024 19.4933C15.5113 19.4222 15.5735 19.1822 15.6002 19.0222C15.6268 18.8622 15.6624 18.7378 15.6891 18.5956C15.7157 18.4533 15.6891 18.5156 15.7691 18.5245H15.8579C15.9113 18.5245 15.9202 18.5245 15.9113 18.5867C15.9024 18.6489 15.9113 18.7822 15.8491 18.8889V18.96" fill="#0C68AE"/>
<path d="M2.8623 17.2355C2.9233 17.0032 3.01287 16.7792 3.12897 16.5689C3.25908 16.3705 3.40158 16.1805 3.55564 16C3.67439 15.8503 3.8052 15.7106 3.94675 15.5822C4.1693 15.3742 4.41718 15.195 4.68453 15.0489C4.98071 14.8746 5.29714 14.7373 5.62675 14.64C5.84897 14.5778 6.08008 14.5333 6.3023 14.4889C6.46137 14.4653 6.62161 14.4504 6.7823 14.4444C6.89769 14.4356 7.01359 14.4356 7.12897 14.4444C7.36008 14.4444 7.60008 14.4444 7.84008 14.5155C8.17913 14.5707 8.51037 14.6662 8.82675 14.8C9.19093 14.9442 9.52995 15.1452 9.83119 15.3955C9.9927 15.5199 10.1443 15.6566 10.2845 15.8044C10.495 16.0184 10.6745 16.2607 10.8179 16.5244C10.9383 16.7442 11.0337 16.9768 11.1023 17.2178C11.0976 17.2322 11.0976 17.2478 11.1023 17.2622C11.1023 17.1289 11.0223 16.9867 10.969 16.8444C10.852 16.5616 10.6932 16.2979 10.4979 16.0622C10.3894 15.9314 10.2736 15.8067 10.1512 15.6889C9.9258 15.464 9.67176 15.2697 9.39564 15.1111C9.09574 14.9274 8.77297 14.7839 8.43564 14.6844C8.19948 14.602 7.95509 14.5454 7.70675 14.5155L7.19119 14.4711H6.63119C6.18576 14.5218 5.74922 14.6324 5.33342 14.8C4.92615 14.9553 4.54305 15.1678 4.19564 15.4311L4.01786 15.6C3.93649 15.6631 3.85929 15.7314 3.78675 15.8044C3.57499 16.0335 3.38733 16.2837 3.22675 16.5511C3.12581 16.7293 3.04246 16.9168 2.97786 17.1111C2.97368 17.1703 2.97368 17.2297 2.97786 17.2889V17.2355" fill="#50CAF5"/>
<path d="M10.9868 17.52L10.889 17.2356C10.8426 17.1342 10.7892 17.0361 10.729 16.9422C10.6487 16.7957 10.5565 16.656 10.4535 16.5244C10.3201 16.3458 10.1648 16.1845 9.99125 16.0444C9.83125 15.92 9.67125 15.7956 9.50236 15.6889C9.24526 15.5204 8.96738 15.3859 8.67569 15.2889C8.44458 15.2089 8.19569 15.1111 8.00014 15.1111C7.85711 15.0774 7.71134 15.0565 7.56458 15.0489C7.36014 15.0489 7.15569 15.0489 6.95125 15.0489C6.50318 15.0566 6.058 15.1224 5.62681 15.2444C5.29454 15.3462 4.97301 15.4802 4.66681 15.6444C4.44361 15.7701 4.23236 15.9159 4.03569 16.08C3.73662 16.3327 3.48133 16.633 3.28014 16.9689C3.17531 17.1482 3.09178 17.3391 3.03125 17.5378V17.5911C3.036 17.5767 3.036 17.5611 3.03125 17.5467L3.21792 17.1289V16.8889V16.8356V16.7822L3.31569 16.64V16.5956L3.40458 16.4889L3.51125 16.3822C3.66236 16.2489 3.79569 16.1067 3.94681 15.9822C4.24136 15.7409 4.5711 15.546 4.92458 15.4044C5.26249 15.2542 5.61783 15.1467 5.98236 15.0844C6.24058 15.0383 6.50228 15.0145 6.76458 15.0133C6.93347 15.0133 7.11125 15.0133 7.28903 15.0133C7.45304 15.0248 7.61627 15.0455 7.77792 15.0756C8.20676 15.1538 8.62261 15.2914 9.01347 15.4844C9.28179 15.6169 9.53509 15.7778 9.76903 15.9644C9.92014 16.0889 10.0535 16.2311 10.1957 16.3644L10.2935 16.4444L10.3824 16.56V16.6044V16.6489L10.4268 16.7289V16.8089L10.4979 16.9244V16.9867L10.6401 17.3867" fill="#B2E3FA"/>
<path d="M10.8623 17.0933V17.0311L10.7468 16.8889L10.6668 16.7644L10.5512 16.5867V16.5422L10.4801 16.4533C10.4835 16.4387 10.4835 16.4235 10.4801 16.4089C10.3912 16.32 10.3201 16.2133 10.2223 16.1244C10.107 16.0109 9.98536 15.9041 9.8579 15.8044C9.47631 15.5033 9.04655 15.2689 8.58679 15.1111C8.29776 15.0105 8.00026 14.9361 7.6979 14.8889C7.46506 14.8575 7.23059 14.8397 6.99568 14.8355H6.44457C6.24901 14.8355 6.05346 14.8889 5.86679 14.9333C5.43607 15.0262 5.02229 15.1851 4.64012 15.4044C4.29164 15.6034 3.97169 15.8485 3.68901 16.1333L3.55568 16.3111C3.52668 16.3242 3.50113 16.3439 3.48107 16.3685C3.46101 16.3932 3.44699 16.4223 3.44012 16.4533V16.4978L3.38679 16.5778V16.64L3.19123 16.8889L3.00457 17.3155C2.99945 17.3569 2.99945 17.3987 3.00457 17.44V17.3689C3.04901 17.2622 3.07568 17.1555 3.12012 17.0489L3.28012 16.72V16.6755V16.6311V16.5867L3.55568 16.2044C3.57948 16.1936 3.60058 16.1776 3.61748 16.1576C3.63438 16.1376 3.64667 16.1142 3.65346 16.0889L3.79568 16H3.84901C4.03156 15.8185 4.23098 15.6548 4.44457 15.5111C4.72578 15.3465 5.02377 15.2124 5.33346 15.1111C5.62131 15.0066 5.91918 14.9321 6.22235 14.8889C6.40012 14.8889 6.5779 14.8444 6.75568 14.8355H7.28901C7.42516 14.8267 7.56175 14.8267 7.6979 14.8355C7.96551 14.8799 8.22982 14.9422 8.48901 15.0222C8.79839 15.1243 9.09629 15.2584 9.3779 15.4222C9.67126 15.5933 9.94286 15.7993 10.1868 16.0355C10.1868 16.0889 10.2846 16.1333 10.329 16.1778L10.4001 16.2578L10.4535 16.3289L10.4979 16.3822V16.4267L10.5601 16.5067V16.56C10.5891 16.6046 10.6129 16.6523 10.6312 16.7022C10.7023 16.88 10.7735 17.0578 10.8357 17.2355L10.7201 16.9155V16.8711" fill="#98DBF8"/>
<path d="M3.07565 17.4044V17.3422V17.2889C3.20054 17.0429 3.3591 16.8155 3.54676 16.6133C3.67136 16.4798 3.80501 16.3551 3.94676 16.24C4.36267 15.9133 4.83175 15.6607 5.33343 15.4933C5.57785 15.4022 5.83106 15.3367 6.08898 15.2978C6.31839 15.258 6.54987 15.2313 6.78232 15.2178C6.96281 15.2044 7.14404 15.2044 7.32454 15.2178L7.77787 15.2622C8.04393 15.295 8.306 15.3546 8.56009 15.44C8.8705 15.5394 9.16869 15.6736 9.44898 15.84C9.777 16.0273 10.0764 16.2608 10.3379 16.5333C10.5482 16.7481 10.7196 16.9977 10.8445 17.2711C10.8445 17.2711 10.8445 17.2711 10.889 17.2711V17.3511C10.7998 17.155 10.6926 16.9675 10.569 16.7911C10.428 16.5998 10.2671 16.424 10.089 16.2667C9.89728 16.0951 9.68883 15.9432 9.46676 15.8133C9.24332 15.6823 9.00824 15.5722 8.76454 15.4844C8.49099 15.3788 8.20833 15.2984 7.92009 15.2444C7.76118 15.218 7.60094 15.2002 7.44009 15.1911C7.24454 15.1911 7.04009 15.1911 6.84454 15.1911L6.22232 15.3244C5.89731 15.3687 5.57828 15.4492 5.27121 15.5644C4.88194 15.6915 4.51575 15.8806 4.18676 16.1244C4.01591 16.251 3.85266 16.3875 3.69787 16.5333C3.46841 16.7606 3.27907 17.0251 3.13787 17.3155C3.13787 17.4222 3.05787 17.5378 3.01343 17.6444V17.6V17.4578" fill="#DEF2FD"/>
<path d="M22.0979 19.2978C22.1787 19.3536 22.2754 19.3817 22.3735 19.3778C22.4183 19.3694 22.4608 19.3512 22.4979 19.3245C22.5126 19.3147 22.5246 19.3015 22.5329 19.286C22.5412 19.2705 22.5456 19.2532 22.5456 19.2356C22.5456 19.218 22.5412 19.2006 22.5329 19.1851C22.5246 19.1696 22.5126 19.1564 22.4979 19.1467L22.3735 19.0667C22.3189 19.04 22.275 18.9956 22.2492 18.9406C22.2233 18.8856 22.217 18.8235 22.2312 18.7645C22.2398 18.7057 22.2654 18.6508 22.3049 18.6066C22.3444 18.5623 22.3961 18.5307 22.4535 18.5156C22.5571 18.4797 22.6698 18.4797 22.7735 18.5156C22.8623 18.5156 22.8712 18.5689 22.8535 18.6578C22.8357 18.7467 22.8535 18.7378 22.7557 18.7022C22.6579 18.6667 22.5868 18.64 22.5068 18.7022C22.4939 18.7102 22.4833 18.7213 22.476 18.7346C22.4686 18.7478 22.4647 18.7627 22.4647 18.7778C22.4647 18.7929 22.4686 18.8078 22.476 18.821C22.4833 18.8343 22.4939 18.8454 22.5068 18.8533L22.6757 18.9778C22.7123 18.9988 22.7438 19.0278 22.7679 19.0625C22.792 19.0973 22.808 19.1369 22.8148 19.1787C22.8216 19.2204 22.8191 19.2631 22.8073 19.3037C22.7955 19.3443 22.7749 19.3817 22.7468 19.4133C22.7074 19.46 22.6584 19.4976 22.6032 19.5236C22.548 19.5497 22.4878 19.5636 22.4268 19.5645C22.3317 19.5745 22.2357 19.556 22.1512 19.5111C22.1394 19.5077 22.1288 19.5007 22.1209 19.4912C22.113 19.4817 22.1081 19.4701 22.1068 19.4578C22.1031 19.4295 22.1052 19.4008 22.1128 19.3733C22.1204 19.3458 22.1335 19.3201 22.1512 19.2978" fill="#0C68AE"/>
<path d="M11.0313 17.36C11.0313 17.36 11.0313 17.36 11.0313 17.2978C10.9676 17.0904 10.8811 16.8906 10.7735 16.7022C10.6579 16.5245 10.5424 16.3556 10.4179 16.1956C10.3487 16.1056 10.2745 16.0196 10.1957 15.9378C9.99563 15.7253 9.7685 15.54 9.52016 15.3867C9.24445 15.205 8.94545 15.0615 8.63127 14.96C8.38928 14.8784 8.14298 14.8101 7.8935 14.7556C7.74758 14.7212 7.5988 14.7004 7.44905 14.6933C7.2535 14.6933 7.06683 14.6933 6.87127 14.6933C6.57244 14.696 6.27464 14.7287 5.98238 14.7911C5.30814 14.9213 4.67264 15.204 4.12461 15.6178C3.99435 15.7175 3.86972 15.8243 3.75127 15.9378C3.50919 16.1767 3.30264 16.4491 3.13794 16.7467L3.19127 16.6045C3.19127 16.56 3.2535 16.5245 3.27127 16.4889C3.65659 15.9015 4.19012 15.4263 4.81794 15.1111C5.07073 14.9816 5.33572 14.8773 5.60905 14.8C5.96414 14.6904 6.33132 14.6248 6.70238 14.6045C7.01716 14.5882 7.33276 14.6031 7.64461 14.6489C7.92762 14.6889 8.20702 14.7514 8.48016 14.8356C8.76127 14.9298 9.03225 15.0519 9.28905 15.2C9.68369 15.4168 10.0384 15.6994 10.3379 16.0356L10.4002 16.08L10.4446 16.1333V16.1778V16.24L10.5957 16.4622C10.6222 16.5087 10.6519 16.5532 10.6846 16.5956L10.8713 17.04C10.8713 17.1022 10.9157 17.1733 10.9424 17.2356" fill="#7AD2F7"/>
<path d="M2.77344 16.8889L2.9601 16.3911C3.07131 16.1387 3.21151 15.9 3.37788 15.68C3.54296 15.4542 3.7306 15.2457 3.93788 15.0578C4.16046 14.8523 4.4084 14.676 4.67566 14.5334C4.95727 14.3695 5.25517 14.2355 5.56455 14.1333C5.80741 14.0644 6.05366 14.0081 6.30233 13.9645C6.61584 13.938 6.93103 13.938 7.24455 13.9645C7.43894 13.9701 7.63238 13.9939 7.82233 14.0356C8.04578 14.074 8.26576 14.1305 8.4801 14.2045C8.94744 14.3386 9.38698 14.5553 9.77788 14.8445C9.97308 14.9906 10.1546 15.1543 10.3201 15.3334C10.5342 15.5649 10.7192 15.8216 10.8712 16.0978C10.9863 16.3139 11.0815 16.54 11.1557 16.7734V16.8267V16.8889C11.0837 16.666 10.9945 16.4491 10.889 16.24C10.7649 16.0006 10.6127 15.7768 10.4357 15.5734C10.3023 15.4222 10.169 15.28 10.0268 15.1467C9.80444 14.9359 9.55658 14.7537 9.28899 14.6045C9.00768 14.4447 8.70958 14.3165 8.4001 14.2222C8.11104 14.1277 7.81327 14.0622 7.51121 14.0267L7.11122 13.9556C6.9693 13.9423 6.82646 13.9423 6.68455 13.9556C6.45759 13.9744 6.23199 14.0071 6.00899 14.0534C5.60538 14.1305 5.21578 14.2684 4.85344 14.4622C4.5767 14.6038 4.31721 14.7768 4.0801 14.9778C3.96455 15.0756 3.8401 15.1822 3.73344 15.2889C3.48569 15.5568 3.27357 15.8556 3.10233 16.1778C2.97812 16.4104 2.8769 16.6545 2.8001 16.9067" fill="#21AAE2"/>
<path d="M21.3957 19.5556C21.3335 19.5556 21.3335 19.5556 21.3335 19.4756L21.4668 18.8267C21.4668 18.7378 21.4668 18.6489 21.5202 18.56C21.5735 18.4711 21.5202 18.5156 21.5202 18.5156H21.6979C21.6979 18.5156 21.6979 18.5156 21.6979 18.5689C21.6357 18.88 21.5646 19.1911 21.5024 19.5022C21.5024 19.5467 21.5024 19.5645 21.4313 19.5556H21.3868" fill="#0C68AE"/>
<path d="M3.13779 16.7556L3.05779 16.96C3.05779 17.0844 2.96891 17.2 2.93335 17.3244V17.3689V17.2889V17.2444C2.95761 17.1568 2.9873 17.0707 3.02224 16.9867V16.8889L3.06668 16.8178" fill="#7AD2F7"/>
<path d="M10.8624 17.0933V17.1378L10.9779 17.4578L10.8357 17.0578" fill="#A9E0FA"/>
<path d="M10.9334 17.6622L10.8889 17.4933V17.5822V17.6356" fill="#DEF2FD"/>
<path d="M10.4001 16.0978L10.3378 16.0533C10.0383 15.7172 9.68358 15.4346 9.28894 15.2178C9.03214 15.0696 8.76116 14.9475 8.48005 14.8533C8.20691 14.7691 7.92751 14.7067 7.6445 14.6667C7.33265 14.6209 7.01704 14.606 6.70227 14.6222C6.33121 14.6425 5.96403 14.7082 5.60894 14.8178C5.33561 14.8951 5.07062 14.9993 4.81783 15.1289C4.19109 15.4416 3.65767 15.9137 3.27116 16.4978C3.27116 16.4978 3.21783 16.5689 3.19116 16.6134L3.31561 16.3911C3.46997 16.1542 3.65532 15.939 3.86672 15.7511C3.99206 15.6348 4.12575 15.5279 4.26672 15.4311C4.46227 15.3067 4.65783 15.1822 4.86227 15.0756C5.27098 14.8766 5.70444 14.7331 6.15116 14.6489C6.52168 14.5928 6.8967 14.5719 7.27116 14.5867C7.53418 14.6078 7.79551 14.6464 8.05338 14.7022C8.46262 14.7972 8.85726 14.9467 9.22672 15.1467C9.45198 15.2701 9.66612 15.4129 9.86672 15.5734C10.0193 15.6919 10.162 15.8227 10.2934 15.9645C10.3316 16.0067 10.3672 16.0512 10.4001 16.0978Z" fill="#6FD0F6"/>
<path d="M10.8001 16.6844C10.7674 16.6421 10.7377 16.5976 10.7112 16.5511L10.5601 16.3289V16.2667C10.6134 16.3467 10.6756 16.4178 10.7201 16.4978C10.7589 16.558 10.7945 16.6204 10.8267 16.6844" fill="#6FD0F6"/>
<path d="M3.13794 16.7556L3.21794 16.6045L3.16461 16.7467" fill="#6FD0F6"/>
<path d="M3.10231 16.8L3.05786 16.8889L3.10231 16.8178" fill="#6FD0F6"/>
<path d="M10.4446 16.1511L10.4001 16.0978L10.4446 16.1511Z" fill="#6FD0F6"/>
<path d="M10.329 16.1778C10.329 16.1333 10.2313 16.0889 10.1868 16.0356C9.94288 15.7993 9.67128 15.5933 9.37792 15.4222C9.09631 15.2584 8.79841 15.1244 8.48903 15.0222C8.22984 14.9423 7.96553 14.8799 7.69792 14.8356C7.56177 14.8267 7.42518 14.8267 7.28903 14.8356H6.7557C6.57792 14.8356 6.40014 14.8356 6.22237 14.8889C5.9192 14.9322 5.62133 15.0066 5.33348 15.1111C5.02193 15.2266 4.72388 15.3756 4.44459 15.5556C4.23867 15.6889 4.04529 15.8406 3.86681 16.0089H3.81348L4.08903 15.7511C4.36193 15.537 4.66055 15.3578 4.97792 15.2178C5.23378 15.0876 5.50578 14.992 5.78681 14.9333L6.37348 14.8089H6.65792H7.11125L7.66237 14.8533C7.96497 14.8904 8.26288 14.9589 8.55125 15.0578C9.00828 15.2097 9.43758 15.4348 9.82237 15.7245C10.0001 15.8667 10.1601 16.0356 10.3379 16.1867C10.3379 16.1867 10.3379 16.1867 10.3379 16.24" fill="#90D8F8"/>
<path d="M3.55574 16.2044L3.44019 16.3378L3.55574 16.2044Z" fill="#90D8F8"/>
<path d="M3.68909 16.0889C3.6823 16.1142 3.67001 16.1376 3.65311 16.1576C3.63621 16.1776 3.61511 16.1936 3.59131 16.2045L3.68909 16.0889Z" fill="#90D8F8"/>
<path d="M10.4 16.2578L10.3289 16.1778L10.4 16.2578Z" fill="#90D8F8"/>
<path d="M10.5957 16.5067L10.5334 16.4267L10.5957 16.5067Z" fill="#90D8F8"/>
<path d="M10.4535 16.3289L10.4001 16.2578L10.4535 16.3289Z" fill="#90D8F8"/>
<path d="M10.4978 16.3822L10.4534 16.3289L10.4978 16.3822Z" fill="#90D8F8"/>
<path d="M10.8534 17.3244C10.8534 17.3244 10.8534 17.3244 10.809 17.3244C10.6841 17.051 10.5127 16.8014 10.3023 16.5867C10.0408 16.3141 9.74146 16.0806 9.41344 15.8933C9.13315 15.7269 8.83496 15.5928 8.52455 15.4933C8.27046 15.4079 8.00839 15.3483 7.74233 15.3155L7.289 15.2711C7.1085 15.2578 6.92727 15.2578 6.74677 15.2711C6.51433 15.2846 6.28285 15.3113 6.05344 15.3511C5.79551 15.39 5.54231 15.4556 5.29788 15.5467C4.84338 15.7101 4.41743 15.9441 4.03566 16.24C3.89391 16.3551 3.76026 16.4798 3.63566 16.6133C3.448 16.8155 3.28944 17.0429 3.16455 17.2889V17.3422C3.26233 17.1822 3.34233 17.0133 3.449 16.8622C3.54992 16.7142 3.66612 16.5771 3.79566 16.4533C4.03636 16.2095 4.31197 16.0028 4.61344 15.84C4.8922 15.6707 5.19074 15.5363 5.50233 15.44C5.73344 15.3778 5.97344 15.3244 6.21344 15.28C6.55941 15.218 6.91185 15.2001 7.26233 15.2267C7.48929 15.2352 7.7152 15.262 7.93788 15.3067C8.16403 15.3462 8.38688 15.4026 8.60455 15.4755C9.06976 15.6251 9.50576 15.8536 9.89344 16.1511C10.2186 16.3944 10.4958 16.6958 10.7112 17.04C10.7734 17.1467 10.8268 17.2622 10.8801 17.3689" fill="#D4EFFC"/>
<path d="M10.409 16.3822L10.3112 16.3022C10.169 16.1689 10.0357 16.0267 9.88455 15.9022C9.65062 15.7156 9.39731 15.5547 9.129 15.4222C8.73813 15.2292 8.32228 15.0916 7.89344 15.0133C7.7318 14.9833 7.56857 14.9625 7.40455 14.9511C7.22678 14.9511 7.049 14.9511 6.88011 14.9511C6.61781 14.9523 6.3561 14.9761 6.09789 15.0222C5.73335 15.0845 5.37801 15.192 5.04011 15.3422C4.68662 15.4838 4.35688 15.6787 4.06233 15.92C3.91122 16.0445 3.77789 16.1867 3.62678 16.32L3.55566 16.4089V16.3111C3.62818 16.2475 3.69647 16.1792 3.76011 16.1067C3.94934 15.9218 4.15795 15.7579 4.38233 15.6178C4.67902 15.425 4.9985 15.2697 5.33344 15.1556C5.56213 15.0746 5.79696 15.0122 6.03566 14.9689C6.31141 14.9173 6.5908 14.8876 6.87122 14.88H7.209C7.38073 14.8708 7.55282 14.8708 7.72455 14.88C8.02821 14.9297 8.32604 15.0101 8.61344 15.12C8.92361 15.235 9.22142 15.3809 9.50233 15.5556C9.78081 15.7423 10.0373 15.96 10.2668 16.2045C10.2992 16.2408 10.3289 16.2794 10.3557 16.32L10.409 16.3822Z" fill="#A9E0FA"/>
<path d="M2.96885 17.4133C2.96374 17.372 2.96374 17.3302 2.96885 17.2889L3.19107 16.8889L3.14663 16.9956L2.95996 17.4133C2.96471 17.4278 2.96471 17.4433 2.95996 17.4578" fill="#A9E0FA"/>
<path d="M10.7468 16.8889L10.8446 17.0756L10.7735 16.8889V16.8178" fill="#A0DDF9"/>
<path d="M3.37781 16.5956L3.28003 16.7378V16.6844" fill="#A9E0FA"/>
<path d="M3.55569 16.4089L3.4668 16.5156L3.55569 16.4089Z" fill="#A9E0FA"/>
<path d="M10.4978 16.4978L10.4089 16.3822L10.4623 16.4267V16.4978H10.4978Z" fill="#A9E0FA"/>
<path d="M10.729 16.8356L10.6667 16.7556V16.8267L10.729 16.8356Z" fill="#A9E0FA"/>
<path d="M10.4624 16.4267L10.409 16.3822C10.3822 16.3416 10.3525 16.303 10.3201 16.2667C10.0906 16.0222 9.83417 15.8046 9.5557 15.6178C9.27478 15.4431 8.97698 15.2972 8.66681 15.1822C8.37941 15.0723 8.08158 14.9919 7.77792 14.9422C7.60619 14.9331 7.43409 14.9331 7.26236 14.9422H6.92459C6.64416 14.9498 6.36478 14.9796 6.08903 15.0311C5.85033 15.0744 5.6155 15.1368 5.38681 15.2178C5.05785 15.3129 4.74151 15.4472 4.44459 15.6178C4.22021 15.7579 4.0116 15.9218 3.82236 16.1067C3.75873 16.1792 3.69043 16.2475 3.61792 16.3111L3.7157 16.1689C3.99838 15.8841 4.31832 15.6389 4.66681 15.44C5.04898 15.2207 5.46275 15.0618 5.89348 14.9689C6.08014 14.9245 6.2757 14.8978 6.47125 14.8711H7.02236C7.25727 14.8753 7.49174 14.8931 7.72459 14.9245C8.02665 14.9732 8.32402 15.0475 8.61347 15.1467C9.05854 15.3009 9.47577 15.526 9.84903 15.8133C9.97649 15.913 10.0982 16.0198 10.2135 16.1333C10.3113 16.2222 10.3824 16.3289 10.4713 16.4178C10.4747 16.4324 10.4747 16.4476 10.4713 16.4622" fill="#A0DDF9"/>
<path d="M10.5957 16.6222L10.7113 16.8L10.5957 16.6222Z" fill="#A0DDF9"/>
<path d="M3.55558 16.4089L3.50225 16.4533C3.5011 16.4009 3.5202 16.3499 3.55558 16.3111V16.4089Z" fill="#A0DDF9"/>
<path d="M3.26221 16.7467V16.7911V16.8444L3.33332 16.7289" fill="#A0DDF9"/>
<path d="M10.5334 16.5156V16.4445L10.6046 16.5333" fill="#A0DDF9"/>
<path d="M3.39575 16.56L3.44909 16.48L3.39575 16.56Z" fill="#A0DDF9"/>
<path d="M10.7468 16.8889V16.8178L10.7913 16.8978" fill="#A0DDF9"/>
</g>
<defs>
<clipPath id="clip0_2707_279643">
<rect width="32" height="32" fill="white"/>
</clipPath>
</defs>
</svg>
