<svg width="32" height="32" viewBox="0 0 32 32" fill="none" xmlns="http://www.w3.org/2000/svg">
<g clip-path="url(#clip0_2707_279588)">
<path d="M16 31.9822C24.8268 31.9822 31.9823 24.8267 31.9823 16C31.9823 7.17326 24.8268 0.0177765 16 0.0177765C7.17331 0.0177765 0.0178223 7.17326 0.0178223 16C0.0178223 24.8267 7.17331 31.9822 16 31.9822Z" fill="white"/>
<path d="M15.04 14.3822C15.2153 14.3777 15.3899 14.4048 15.5556 14.4622C15.7092 14.5277 15.8528 14.6145 15.9822 14.72L15.6356 15.1289C15.5489 15.0671 15.4566 15.0135 15.36 14.9689C15.2694 14.9334 15.1729 14.9153 15.0756 14.9156C14.9782 14.9152 14.8823 14.9395 14.7969 14.9861C14.7114 15.0327 14.6391 15.1002 14.5867 15.1822C14.4531 15.4267 14.3914 15.7041 14.4089 15.9822C14.3904 16.2604 14.4521 16.538 14.5867 16.7822C14.6397 16.8651 14.7136 16.9326 14.801 16.9779C14.8884 17.0231 14.9861 17.0446 15.0844 17.04C15.1914 17.0418 15.2975 17.0206 15.3956 16.9778C15.4997 16.9261 15.598 16.8635 15.6889 16.7911L16.0178 17.2089C15.8946 17.3296 15.7499 17.426 15.5911 17.4933C15.4212 17.5716 15.236 17.611 15.0489 17.6089C14.7911 17.6102 14.5372 17.546 14.3111 17.4222C14.0973 17.2908 13.9272 17.099 13.8222 16.8711C13.6969 16.5919 13.6361 16.2881 13.6444 15.9822C13.6329 15.6761 13.6938 15.3715 13.8222 15.0933C13.9309 14.8651 14.1039 14.6735 14.32 14.5422C14.5412 14.4249 14.79 14.3696 15.04 14.3822ZM17.9022 17.5289L17.7778 16.8889H16.8889L16.7378 17.5467H15.9822L16.8711 14.4711H17.76L18.6489 17.5467L17.9022 17.5289ZM16.9689 16.3378H17.6178L17.2978 14.9867L16.9689 16.3378ZM19.84 14.4533C20.1765 14.4352 20.5099 14.5255 20.7911 14.7111C20.9032 14.7993 20.9924 14.9132 21.0512 15.0432C21.11 15.1731 21.1366 15.3153 21.1289 15.4578C21.1384 15.6047 21.1136 15.7519 21.0565 15.8876C20.9994 16.0233 20.9116 16.144 20.8 16.24C20.5431 16.4283 20.2292 16.5225 19.9111 16.5067H19.5556V17.5289H18.8267V14.4533H19.84ZM19.84 15.9822C19.9814 15.9917 20.1212 15.9473 20.2311 15.8578C20.2807 15.8046 20.3184 15.7413 20.3414 15.6723C20.3644 15.6033 20.3722 15.5301 20.3644 15.4578C20.3644 15.1378 20.1867 14.9778 19.8222 14.9778H19.5556V16L19.84 15.9822ZM22.2222 14.4533V17.5289H21.4933V14.4533H22.2222ZM24.8444 14.4533L24.7733 15.0133H24V17.5289H23.2711V15.0133H22.48V14.4533H24.8444ZM26.4889 17.5289L26.2933 16.8889H25.4044L25.2444 17.5467H24.4889L25.4222 14.4711H26.3111L27.2 17.5467L26.4889 17.5289ZM25.5556 16.3378H26.2044L25.8756 14.9867L25.5556 16.3378ZM28.16 14.4533V16.9511H29.3333L29.2533 17.5289H27.3956V14.4533H28.16Z" fill="#1979F5"/>
<path d="M7.45792 15.3689H6.63125C6.60743 15.244 6.53754 15.1327 6.43545 15.0569C6.33337 14.9812 6.20654 14.9466 6.08014 14.96C5.83125 14.96 5.52903 15.0755 5.52903 15.2711C5.52903 15.4667 5.75125 15.5022 6.24014 15.6267C6.72903 15.7511 7.53791 16 7.53791 16.7111C7.53791 17.4222 6.96014 17.7778 6.16014 17.7778C5.97654 17.7999 5.79036 17.7844 5.61297 17.7321C5.43558 17.6799 5.27071 17.592 5.12844 17.4738C4.98617 17.3557 4.86949 17.2098 4.78554 17.045C4.70158 16.8802 4.6521 16.7001 4.64014 16.5155H5.45791C5.49042 16.6838 5.58562 16.8333 5.72424 16.934C5.86287 17.0347 6.03457 17.0789 6.20458 17.0578C6.57791 17.0578 6.71125 16.8978 6.71125 16.7555C6.71125 16.6133 6.4268 16.4622 6.1068 16.3911C5.59125 16.2667 4.69347 16.0711 4.69347 15.3155C4.69347 14.56 5.33347 14.2222 6.08903 14.2222C6.25444 14.2064 6.42135 14.2235 6.58005 14.2728C6.73876 14.322 6.88609 14.4023 7.01347 14.509C7.14085 14.6157 7.24574 14.7467 7.32205 14.8943C7.39835 15.0419 7.44453 15.2033 7.45792 15.3689Z" fill="#1979F5"/>
<path d="M10.3911 14.3733H7.76001V15.1378H10.3911V14.3733Z" fill="#1979F5"/>
<path d="M9.6889 15.6178H7.76001V16.3822H9.6889V15.6178Z" fill="#1979F5"/>
<path d="M8.58668 16.8711H7.76001V17.6356H8.58668V16.8711Z" fill="#1979F5"/>
<path fill-rule="evenodd" clip-rule="evenodd" d="M7.51119 11.1555C6.66699 11.1475 5.83647 11.369 5.10843 11.7964C4.3804 12.2238 3.78222 12.8411 3.37786 13.5822C3.02506 14.2013 2.84975 14.9056 2.87119 15.6178C2.8946 16.181 3.02917 16.7341 3.26715 17.2451C3.50513 17.7562 3.84182 18.2151 4.25786 18.5955C4.54556 18.878 4.87921 19.1094 5.24453 19.28C5.98039 19.6436 6.8049 19.789 7.62076 19.6993C8.43661 19.6095 9.20976 19.2882 9.84897 18.7733C9.18731 19.1571 8.43609 19.3595 7.67119 19.36C6.62858 19.3616 5.61859 18.9966 4.81786 18.3289C4.43043 18.0113 4.11338 17.6164 3.88688 17.1696C3.66039 16.7227 3.52942 16.2336 3.5023 15.7333C3.4841 15.2633 3.56224 14.7945 3.73192 14.3558C3.9016 13.9171 4.15923 13.5177 4.48897 13.1822C4.88066 12.7771 5.35043 12.4556 5.86988 12.2371C6.38933 12.0186 6.94768 11.9077 7.51119 11.9111C8.54707 11.9099 9.54462 12.3027 10.3015 13.01C11.0584 13.7172 11.5179 14.6858 11.5869 15.7194C11.6559 16.753 11.3292 17.7741 10.673 18.5756C10.0168 19.3772 9.08027 19.8991 8.05342 20.0355H8.00008C7.8402 20.0444 7.67996 20.0444 7.52008 20.0355H7.3423C6.72768 20.0601 6.11438 19.9611 5.53875 19.7443C4.96311 19.5275 4.43687 19.1973 3.99119 18.7733C3.34979 18.0977 2.8936 17.268 2.66675 16.3644C2.73765 17.3042 3.0811 18.2028 3.65503 18.9503C4.22897 19.6978 5.00846 20.2616 5.89802 20.5728C6.78758 20.8839 7.74858 20.9289 8.66329 20.7021C9.578 20.4753 10.4067 19.9866 11.0479 19.2959C11.689 18.6053 12.1148 17.7426 12.2731 16.8135C12.4314 15.8845 12.3152 14.9295 11.9389 14.0655C11.5626 13.2015 10.9424 12.466 10.1544 11.9491C9.36638 11.4323 8.44471 11.1565 7.5023 11.1555H7.51119Z" fill="#1979F5"/>
</g>
<defs>
<clipPath id="clip0_2707_279588">
<rect width="32" height="32" fill="white"/>
</clipPath>
</defs>
</svg>
