<svg width="32" height="32" viewBox="0 0 32 32" fill="none" xmlns="http://www.w3.org/2000/svg">
<g clip-path="url(#clip0_2707_279243)">
<path d="M16 31.9822C24.8268 31.9822 31.9823 24.8267 31.9823 16C31.9823 7.17326 24.8268 0.0177765 16 0.0177765C7.17331 0.0177765 0.0178223 7.17326 0.0178223 16C0.0178223 24.8267 7.17331 31.9822 16 31.9822Z" fill="white"/>
<path fill-rule="evenodd" clip-rule="evenodd" d="M8.22217 25.4933V6.50667H23.7777V25.4667L8.22217 25.4933ZM16.5866 7.59111V13.1733H15.1733V7.59111H10.4977V24.32H21.2888V7.59111H16.5866ZM16.5866 17.9733H15.1733V24.3022H16.5866V17.9733Z" fill="#E75457"/>
<path fill-rule="evenodd" clip-rule="evenodd" d="M17.04 18.0444V22.9244C17.04 22.9244 20.4356 23.0667 20.8267 20.2578C20.8396 20.104 20.8396 19.9494 20.8267 19.7956V8.72H19.6711C19.6711 8.72 19.6711 17.1111 19.6711 19.0044C19.6712 19.3797 19.6081 19.7523 19.4845 20.1067C19.2889 20.6756 18.9334 21.4133 18.2489 21.5822V18.0267L17.04 18.0444Z" fill="#E75457"/>
<path fill-rule="evenodd" clip-rule="evenodd" d="M14.7644 13.1733V8.72888C14.1055 8.66469 13.4415 8.77943 12.8423 9.06102C12.2431 9.34261 11.731 9.78062 11.36 10.3289C9.81329 12.3022 11.6533 15.28 12.1866 16.1067C12.72 16.9333 15.1111 20.08 12.24 21.6356V18.16H11.0133V22.9244C11.0133 22.9244 14.3377 23.0756 14.7555 20.1689C14.9431 18.4211 14.4318 16.6701 13.3333 15.2978C13.0133 14.7733 11.1466 11.6356 13.3333 10.5333V13.2L14.7644 13.1733Z" fill="#E75457"/>
<path d="M16.4089 8.29333H15.3511V12.8267H16.4089V8.29333Z" fill="white"/>
<path d="M16.4089 18.1867H15.3511V22.72H16.4089V18.1867Z" fill="white"/>
<path d="M10.4977 23.1111H9.35995C9.39399 23.5691 9.30675 24.028 9.10701 24.4415C8.90726 24.855 8.60207 25.2086 8.22217 25.4667" stroke="white" stroke-width="0.21" stroke-miterlimit="10" stroke-linecap="square"/>
<path d="M21.3335 23.1111H22.4713C22.4372 23.5691 22.5245 24.028 22.7242 24.4415C22.924 24.855 23.2292 25.2086 23.6091 25.4667" stroke="white" stroke-width="0.21" stroke-miterlimit="10" stroke-linecap="square"/>
</g>
<defs>
<clipPath id="clip0_2707_279243">
<rect width="32" height="32" fill="white"/>
</clipPath>
</defs>
</svg>
