<svg width="32" height="32" viewBox="0 0 32 32" fill="none" xmlns="http://www.w3.org/2000/svg">
<g clip-path="url(#clip0_2707_278818)">
<path d="M16 31.9823C24.8268 31.9823 31.9823 24.8268 31.9823 16C31.9823 7.17331 24.8268 0.0178223 16 0.0178223C7.17331 0.0178223 0.0178223 7.17331 0.0178223 16C0.0178223 24.8268 7.17331 31.9823 16 31.9823Z" fill="white"/>
<path fill-rule="evenodd" clip-rule="evenodd" d="M13.0756 12.08L13.4667 11.5911H17.0223L19.5556 17.1378L22.6401 11.5555H26.249L26.8356 12.1244H25.0579V22.5867C25.0579 22.5867 25.0578 23.3511 25.4223 23.3511H26.6667V24H21.5467V23.36H22.8445V13.5822L19.289 20.3733L15.4934 14.4533V22.4533C15.4934 22.4533 15.6179 23.4222 16.3823 23.4222H17.2712V24H13.0045V23.3067H14.649V12.0978L13.0756 12.08Z" fill="#13B140"/>
<path fill-rule="evenodd" clip-rule="evenodd" d="M14.1601 10.6667V12.5244H14.7823V8H14.0623V8.88889C13.2968 8.59507 12.4822 8.45025 11.6623 8.46222C10.2312 8.46222 8.18674 9.59111 8.38229 11.2178C8.57785 12.8444 10.6934 13.7778 12.0623 14.2844C13.4312 14.7911 16.4356 15.6622 16.4356 17.9467C16.4356 20.2311 11.849 20.72 10.4267 20.6844C9.00452 20.6489 6.40007 19.5022 6.28452 17.6622C6.16896 15.8222 8.11563 14.8178 9.2534 14.9244C10.3912 15.0311 11.3067 15.5733 11.289 16.2578C11.2712 16.9422 11.0045 17.4133 10.0534 17.6267C10.0534 17.6267 12.2312 18.1778 12.7201 16.88C13.209 15.5822 11.4134 14.5333 9.2534 14.4978C7.0934 14.4622 4.99563 15.8578 5.12896 17.8311C5.26229 19.8044 7.59118 21.0667 10.3734 21.2711C13.1556 21.4756 17.4845 20.0267 17.6978 17.44C17.9112 14.8533 15.0312 13.6178 13.1823 13.12C11.3334 12.6222 9.45785 11.4489 9.76896 10.3644C10.0623 9.42222 12.5067 8.18667 14.1601 10.6667Z" fill="#575979"/>
</g>
<defs>
<clipPath id="clip0_2707_278818">
<rect width="32" height="32" fill="white"/>
</clipPath>
</defs>
</svg>
