<svg width="32" height="32" viewBox="0 0 32 32" fill="none" xmlns="http://www.w3.org/2000/svg">
<g clip-path="url(#clip0_2707_278588)">
<path d="M16 31.9823C24.8268 31.9823 31.9823 24.8268 31.9823 16C31.9823 7.17331 24.8268 0.0178223 16 0.0178223C7.17331 0.0178223 0.0178223 7.17331 0.0178223 16C0.0178223 24.8268 7.17331 31.9823 16 31.9823Z" fill="white"/>
<path fill-rule="evenodd" clip-rule="evenodd" d="M4.75562 15.2356C5.75789 14.5329 6.93765 14.1263 8.16006 14.0623C9.54673 14.0623 9.35117 14.9067 9.35117 14.9067C9.35117 14.9067 9.35117 14.2934 8.16006 14.2223C6.95874 14.2723 5.78875 14.6205 4.75562 15.2356Z" fill="#009442"/>
<path fill-rule="evenodd" clip-rule="evenodd" d="M7.47561 17.3423C6.49142 18.1169 5.2701 18.5282 4.01783 18.5067C2.73783 18.4445 2.80894 17.6623 2.80894 17.6623C2.80894 17.6623 2.80894 18.2756 4.01783 18.3467C5.23616 18.3056 6.42485 17.9603 7.47561 17.3423Z" fill="#C8AD3C"/>
<path fill-rule="evenodd" clip-rule="evenodd" d="M4.75562 15.2889C5.79748 14.7262 6.9796 14.4762 8.16006 14.5689C9.44895 14.8267 8.98673 15.6889 8.98673 15.6889C8.98673 15.6889 9.52895 14.96 8.8445 14.5333C8.16006 14.1067 5.8045 14.56 4.75562 15.2889Z" fill="#009442"/>
<path fill-rule="evenodd" clip-rule="evenodd" d="M7.47556 17.28C7.47556 17.28 5.33334 18.32 3.76889 18.0178C2.46222 17.7778 3.21778 16.4445 3.21778 16.4445C3.21778 16.4445 2.25778 17.4756 3.32445 18.0356C4.04445 18.4178 6.40889 18.0089 7.47556 17.28Z" fill="#C8AD3C"/>
<path fill-rule="evenodd" clip-rule="evenodd" d="M7.47559 16.9955L7.64448 15.6889C7.64448 15.6889 7.76003 15.3778 8.32892 15.4844C8.89781 15.5911 8.9067 16 8.78225 16.24C8.65781 16.48 7.89336 16.4622 7.89336 16.4622V16.8089C7.89336 16.8089 7.90225 16.8889 7.47559 16.9955ZM8.00003 15.7333L7.92003 16.2311C8.07658 16.2396 8.2319 16.1992 8.36447 16.1155C8.51559 16 8.4267 15.6355 8.00003 15.7333Z" fill="#F02B2B"/>
<path fill-rule="evenodd" clip-rule="evenodd" d="M5.37781 16.9956L5.60003 15.4934C5.72105 15.4943 5.83987 15.5258 5.94552 15.5848C6.05117 15.6438 6.14023 15.7286 6.20447 15.8311C6.28924 15.9846 6.35207 16.1491 6.39114 16.32L6.8267 15.6356C6.8267 15.6356 6.99558 15.4311 7.47558 15.4934L7.27114 16.64C7.27114 16.64 7.27114 16.9245 6.81781 16.9956L7.00447 16L6.31114 16.9956L5.92003 16L5.80447 16.5956C5.78224 16.6976 5.72954 16.7905 5.65335 16.8619C5.57716 16.9334 5.48107 16.98 5.37781 16.9956Z" fill="#F02B2B"/>
<path fill-rule="evenodd" clip-rule="evenodd" d="M5.06673 15.6267L5.37784 15.4934L5.20006 16.6045C5.20006 16.6045 5.20006 16.8267 5.03117 16.8801L4.75562 16.9956L4.98673 15.7512C4.98906 15.7255 4.99755 15.7008 5.01148 15.6792C5.02541 15.6575 5.04436 15.6395 5.06673 15.6267Z" fill="#F02B2B"/>
<path fill-rule="evenodd" clip-rule="evenodd" d="M4.63117 15.7422C4.71826 15.6791 4.78598 15.5929 4.82673 15.4933H3.93784C3.83443 15.4833 3.73116 15.5138 3.64986 15.5785C3.56857 15.6432 3.51565 15.737 3.50228 15.84C3.42228 16.2311 4.27562 16.3556 4.15117 16.6667C4.08895 16.8089 3.44006 16.7289 3.44006 16.7289L3.14673 16.9956H4.21339C4.30845 16.9941 4.4003 16.961 4.47438 16.9014C4.54845 16.8418 4.60051 16.7592 4.62228 16.6667C4.72006 16.3289 4.17784 16.1067 4.17784 16.1067C4.12476 16.0785 4.07926 16.0379 4.04521 15.9884C4.01117 15.9389 3.98958 15.8819 3.98228 15.8222C3.98228 15.7245 4.12451 15.7422 4.12451 15.7422H4.63117Z" fill="#F02B2B"/>
<path d="M10.3378 16.4C10.3511 16.4465 10.3511 16.4958 10.3378 16.5422C10.3147 16.5831 10.2809 16.6169 10.24 16.64C10.1816 16.6543 10.1206 16.6543 10.0622 16.64H9.92891V16.9511H9.71558V16.0622H10.0622C10.1176 16.0479 10.1757 16.0479 10.2311 16.0622C10.2779 16.08 10.3161 16.115 10.3378 16.16C10.3573 16.197 10.3674 16.2382 10.3674 16.28C10.3674 16.3218 10.3573 16.363 10.3378 16.4ZM10.0089 16.5067C10.0377 16.5169 10.069 16.5169 10.0978 16.5067C10.1151 16.4836 10.1245 16.4555 10.1245 16.4267C10.1245 16.3978 10.1151 16.3698 10.0978 16.3467C10.069 16.3365 10.0377 16.3365 10.0089 16.3467H9.89335V16.56L10.0089 16.5067Z" fill="#1CAAEC"/>
<path d="M11.0667 16.1245V16.2934H10.8445V16.9867H10.6667V16.2934H10.4V16.1245H11.0667Z" fill="#1CAAEC"/>
<path d="M11.7422 16.9956C11.6867 17.0089 11.6289 17.0089 11.5733 16.9956C11.5262 16.9793 11.4857 16.9481 11.4578 16.9068C11.4288 16.865 11.4133 16.8154 11.4133 16.7645H11.6356C11.6266 16.7874 11.6266 16.8128 11.6356 16.8356C11.6615 16.8445 11.6896 16.8445 11.7156 16.8356C11.7384 16.8446 11.7638 16.8446 11.7867 16.8356C11.7913 16.8275 11.7938 16.8183 11.7938 16.809C11.7938 16.7996 11.7913 16.7904 11.7867 16.7823C11.7936 16.7652 11.7936 16.7461 11.7867 16.729H11.7333H11.6444L11.5556 16.5779C11.5199 16.5588 11.4894 16.5314 11.4667 16.4979C11.4358 16.447 11.4242 16.3867 11.434 16.328C11.4438 16.2693 11.4743 16.216 11.52 16.1779C11.5848 16.1324 11.6632 16.1104 11.7422 16.1156C11.8241 16.1091 11.9058 16.131 11.9733 16.1779C12.0034 16.2009 12.0279 16.2304 12.0448 16.2643C12.0618 16.2982 12.0708 16.3355 12.0711 16.3734H11.8222C11.8271 16.3622 11.8296 16.3501 11.8296 16.3379C11.8296 16.3256 11.8271 16.3135 11.8222 16.3023C11.7963 16.2935 11.7682 16.2935 11.7422 16.3023C11.7339 16.2984 11.7248 16.2963 11.7156 16.2963C11.7063 16.2963 11.6972 16.2984 11.6889 16.3023C11.6842 16.3104 11.6817 16.3196 11.6817 16.329C11.6817 16.3383 11.6842 16.3475 11.6889 16.3556C11.6834 16.3667 11.6805 16.3789 11.6805 16.3912C11.6805 16.4035 11.6834 16.4157 11.6889 16.4268L11.8133 16.4712L11.9467 16.5245C11.985 16.5433 12.0185 16.5707 12.0444 16.6045C12.0558 16.6452 12.0558 16.6883 12.0444 16.729C12.0547 16.7728 12.0547 16.8185 12.0444 16.8623C12.017 16.9061 11.9766 16.9403 11.9289 16.9601C11.87 16.9855 11.8063 16.9977 11.7422 16.9956Z" fill="#1CAAEC"/>
<path d="M12.729 16.8356H12.4445V16.9867H12.2223L12.5334 16.0978H12.7734L13.0845 16.9867H12.8623L12.729 16.8356ZM12.6756 16.6756L12.569 16.3556L12.4623 16.6756H12.6756Z" fill="#1CAAEC"/>
<path d="M13.3333 16.8267H13.6089V16.9867H13.12V16.0978H13.3333V16.8267Z" fill="#1CAAEC"/>
<path d="M13.8934 16.1245H13.6801V16.9867H13.8934V16.1245Z" fill="#1CAAEC"/>
<path d="M15.0133 16.1244V17.0133H14.8089V16.4978L14.6133 17.0133H14.4444L14.2222 16.4711V16.9867H14.0444V16.0978H14.2844L14.5333 16.6933L14.7733 16.0978L15.0133 16.1244Z" fill="#1CAAEC"/>
<path d="M15.7334 16.1245H15.52V16.9867H15.7334V16.1245Z" fill="#1CAAEC"/>
<path d="M16.6934 16.1245L16.3912 17.0134H16.1245L15.8223 16.1245H16.0445L16.2578 16.7734L16.4712 16.1245H16.6934Z" fill="#1CAAEC"/>
<path fill-rule="evenodd" clip-rule="evenodd" d="M17.2 16.0623C17.0704 16.0623 16.946 16.1138 16.8543 16.2054C16.7627 16.2971 16.7111 16.4215 16.7111 16.5511C16.7099 16.6157 16.7218 16.6798 16.7459 16.7397C16.77 16.7995 16.806 16.8539 16.8516 16.8995C16.8973 16.9452 16.9517 16.9811 17.0115 17.0053C17.0714 17.0294 17.1355 17.0412 17.2 17.04C17.2642 17.04 17.3278 17.0274 17.3871 17.0028C17.4464 16.9783 17.5003 16.9422 17.5457 16.8968C17.5911 16.8514 17.6271 16.7976 17.6517 16.7382C17.6763 16.6789 17.6889 16.6153 17.6889 16.5511C17.6889 16.4869 17.6763 16.4234 17.6517 16.3641C17.6271 16.3047 17.5911 16.2508 17.5457 16.2054C17.5003 16.1601 17.4464 16.124 17.3871 16.0995C17.3278 16.0749 17.2642 16.0623 17.2 16.0623ZM17.2 16.1156C17.2858 16.1173 17.3691 16.1444 17.4395 16.1933C17.51 16.2422 17.5644 16.3108 17.596 16.3905C17.6276 16.4703 17.635 16.5575 17.6172 16.6414C17.5994 16.7253 17.5573 16.8021 17.496 16.8621C17.4347 16.9222 17.3571 16.9628 17.2729 16.9789C17.1887 16.995 17.1015 16.9858 17.0225 16.9526C16.9434 16.9194 16.8759 16.8636 16.8284 16.7922C16.7809 16.7208 16.7556 16.6369 16.7556 16.5511C16.7556 16.4932 16.7671 16.4358 16.7896 16.3824C16.812 16.329 16.8449 16.2805 16.8863 16.24C16.9277 16.1994 16.9767 16.1675 17.0306 16.1462C17.0845 16.1248 17.1421 16.1144 17.2 16.1156Z" fill="#F02B2B"/>
<path fill-rule="evenodd" clip-rule="evenodd" d="M17.2001 16.1689C17.122 16.1672 17.0452 16.1888 16.9795 16.2311C16.9138 16.2734 16.8623 16.3344 16.8316 16.4062C16.8009 16.478 16.7925 16.5574 16.8073 16.6341C16.8221 16.7108 16.8595 16.7813 16.9147 16.8365C16.97 16.8917 17.0405 16.9291 17.1171 16.944C17.1938 16.9588 17.2732 16.9503 17.345 16.9196C17.4168 16.8889 17.4778 16.8374 17.5201 16.7717C17.5624 16.706 17.5841 16.6292 17.5823 16.5511C17.5823 16.4498 17.542 16.3526 17.4703 16.2809C17.3987 16.2092 17.3014 16.1689 17.2001 16.1689ZM17.2001 16.2223C17.2791 16.2352 17.351 16.2758 17.4029 16.3369C17.4548 16.398 17.4832 16.4755 17.4832 16.5556C17.4832 16.6357 17.4548 16.7132 17.4029 16.7743C17.351 16.8353 17.2791 16.876 17.2001 16.8889C17.1517 16.8968 17.1023 16.8942 17.0551 16.881C17.0079 16.8679 16.9641 16.8447 16.9268 16.813C16.8894 16.7813 16.8595 16.7419 16.8389 16.6974C16.8183 16.653 16.8077 16.6046 16.8077 16.5556C16.8077 16.5066 16.8183 16.4582 16.8389 16.4138C16.8595 16.3693 16.8894 16.3299 16.9268 16.2982C16.9641 16.2664 17.0079 16.2432 17.0551 16.2301C17.1023 16.217 17.1517 16.2143 17.2001 16.2223Z" fill="#F02B2B"/>
<path fill-rule="evenodd" clip-rule="evenodd" d="M17.2 16.2933C17.1491 16.2933 17.0992 16.3085 17.0568 16.3368C17.0144 16.3651 16.9814 16.4054 16.9619 16.4525C16.9424 16.4996 16.9373 16.5514 16.9472 16.6014C16.9572 16.6514 16.9817 16.6973 17.0178 16.7334C17.0538 16.7694 17.0997 16.794 17.1497 16.8039C17.1998 16.8139 17.2516 16.8088 17.2987 16.7893C17.3458 16.7698 17.386 16.7367 17.4144 16.6943C17.4427 16.6519 17.4578 16.6021 17.4578 16.5511C17.4578 16.4827 17.4307 16.4172 17.3823 16.3688C17.334 16.3205 17.2684 16.2933 17.2 16.2933ZM17.2 16.3467C17.2536 16.3489 17.3043 16.3711 17.3422 16.409C17.3801 16.4469 17.4023 16.4976 17.4045 16.5511C17.4045 16.6053 17.3829 16.6573 17.3446 16.6957C17.3063 16.734 17.2543 16.7556 17.2 16.7556C17.1458 16.7556 17.0938 16.734 17.0555 16.6957C17.0171 16.6573 16.9956 16.6053 16.9956 16.5511C16.9956 16.4969 17.0171 16.4449 17.0555 16.4065C17.0938 16.3682 17.1458 16.3467 17.2 16.3467Z" fill="#F02B2B"/>
<path d="M18.7201 16.1245V17.0134H18.5067V16.4978L18.3201 17.0134H18.1512L17.9556 16.4978V17.0134H17.7778V16.1245H18.0267L18.2667 16.7201L18.5067 16.1245H18.7201Z" fill="#1CAAEC"/>
<path d="M19.4045 16.8356H19.0845L19.0312 16.9867H18.8179L19.129 16.0978H19.369L19.6801 16.9867H19.4579L19.4045 16.8356ZM19.3512 16.6756L19.2445 16.3556L19.1379 16.6756H19.3512Z" fill="#1CAAEC"/>
<path d="M20.0889 16.9956C20.0335 17.0099 19.9754 17.0099 19.92 16.9956C19.8702 16.9798 19.8267 16.9487 19.7956 16.9067C19.7666 16.865 19.7511 16.8154 19.7511 16.7645H19.9733C19.9685 16.788 19.9685 16.8122 19.9733 16.8356C19.9962 16.8446 20.0216 16.8446 20.0444 16.8356C20.0557 16.8405 20.0678 16.8431 20.08 16.8431C20.0922 16.8431 20.1043 16.8405 20.1156 16.8356C20.1202 16.8275 20.1227 16.8183 20.1227 16.809C20.1227 16.7996 20.1202 16.7904 20.1156 16.7823C20.1156 16.7823 20.1156 16.7379 20.1156 16.729H20.0622H19.9733L19.84 16.6756C19.8027 16.6589 19.7717 16.6309 19.7511 16.5956C19.7223 16.5572 19.7067 16.5104 19.7067 16.4623C19.7066 16.4265 19.7146 16.3912 19.73 16.3589C19.7454 16.3266 19.7678 16.2982 19.7956 16.2756C19.8637 16.2301 19.9449 16.2082 20.0267 16.2134C20.1057 16.2082 20.1841 16.2301 20.2489 16.2756C20.279 16.2986 20.3035 16.3282 20.3204 16.3621C20.3373 16.396 20.3463 16.4333 20.3467 16.4712H20.1156C20.1204 16.46 20.123 16.4479 20.123 16.4356C20.123 16.4234 20.1204 16.4113 20.1156 16.4001C20.0927 16.3912 20.0673 16.3912 20.0444 16.4001C20.0346 16.3959 20.024 16.3938 20.0133 16.3938C20.0026 16.3938 19.9921 16.3959 19.9822 16.4001C19.9775 16.4082 19.9751 16.4174 19.9751 16.4267C19.9751 16.4361 19.9775 16.4453 19.9822 16.4534C19.9832 16.468 19.9878 16.4821 19.9955 16.4945C20.0033 16.5069 20.014 16.5172 20.0267 16.5245L20.1511 16.569L20.2844 16.6223C20.3201 16.6413 20.3506 16.6688 20.3733 16.7023C20.3883 16.7424 20.3883 16.7866 20.3733 16.8267C20.3876 16.87 20.3876 16.9168 20.3733 16.9601C20.3468 17.0013 20.3101 17.035 20.2667 17.0579C20.2041 17.0482 20.1438 17.0271 20.0889 16.9956Z" fill="#1CAAEC"/>
<path d="M21.5823 16.4C21.5956 16.4465 21.5956 16.4958 21.5823 16.5422C21.5581 16.5854 21.5207 16.6197 21.4756 16.64C21.4203 16.6543 21.3621 16.6543 21.3067 16.64H21.1734V16.9511H20.9601V16.0622H21.3067C21.3621 16.0479 21.4203 16.0479 21.4756 16.0622C21.5207 16.0826 21.5581 16.1168 21.5823 16.16C21.6018 16.197 21.6119 16.2382 21.6119 16.28C21.6119 16.3218 21.6018 16.363 21.5823 16.4ZM21.2534 16.5067C21.2822 16.5169 21.3135 16.5169 21.3423 16.5067C21.3596 16.4836 21.369 16.4555 21.369 16.4267C21.369 16.3978 21.3596 16.3698 21.3423 16.3467C21.3135 16.3365 21.2822 16.3365 21.2534 16.3467H21.1379V16.56L21.2534 16.5067Z" fill="#1CAAEC"/>
<path d="M22.0267 16.9868L21.8401 16.6579H21.7956V16.9868H21.5823V16.0979H21.9378C21.9932 16.0836 22.0513 16.0836 22.1067 16.0979C22.1535 16.1156 22.1916 16.1506 22.2134 16.1957C22.2255 16.2393 22.2255 16.2854 22.2134 16.329C22.2181 16.3859 22.2023 16.4426 22.1689 16.489C22.1328 16.5336 22.0827 16.5649 22.0267 16.5779L22.2223 16.9246L22.0267 16.9868ZM21.7956 16.5157H21.9201C21.9338 16.5227 21.949 16.5263 21.9645 16.5263C21.9799 16.5263 21.9952 16.5227 22.0089 16.5157C22.0193 16.49 22.0193 16.4613 22.0089 16.4357C22.0179 16.4128 22.0179 16.3874 22.0089 16.3646C21.9949 16.3587 21.9798 16.3557 21.9645 16.3557C21.9492 16.3557 21.9341 16.3587 21.9201 16.3646H21.7956V16.5157Z" fill="#1CAAEC"/>
<path d="M23.0223 16.8356H22.7023L22.649 16.9867H22.4268L22.7379 16.0978H22.9868L23.2979 16.9867H23.1112L23.0223 16.8356ZM22.969 16.6756L22.8623 16.3556L22.7556 16.6756H22.969Z" fill="#1CAAEC"/>
<path d="M24.0001 16.1245V16.2934H23.7334V16.9867H23.529V16.2934H23.2979V16.1245H24.0001Z" fill="#1CAAEC"/>
<path d="M24.4267 16.8356H24.1067L24.0534 16.9867H23.8312L24.1423 16.0978H24.3912L24.7023 16.9867H24.4801L24.4267 16.8356ZM24.3734 16.6756L24.2667 16.3556L24.1601 16.6756H24.3734Z" fill="#1CAAEC"/>
<path d="M25.7778 16.1245V17.0134H25.5645V16.4978L25.3778 17.0134H25.2089L25.0134 16.4978V17.0134H24.8V16.1245H25.0489L25.2889 16.7201L25.5289 16.1245H25.7778Z" fill="#1CAAEC"/>
<path d="M26.4534 16.8356H26.1334L26.08 16.9867H25.8667L26.1778 16.0978H26.4178L26.7289 16.9867H26.5067L26.4534 16.8356ZM26.4 16.6756L26.2934 16.3556L26.1867 16.6756H26.4Z" fill="#1CAAEC"/>
<path d="M27.7067 16.1245V16.2934H27.4756V16.9867H27.2623V16.2934H27.04V16.1245H27.7067Z" fill="#1CAAEC"/>
<path d="M28.0178 16.4C28.0383 16.3647 28.0694 16.3367 28.1067 16.32C28.1477 16.3108 28.1902 16.3108 28.2311 16.32C28.2852 16.3167 28.3386 16.3324 28.3822 16.3645C28.4286 16.3914 28.4658 16.4316 28.4889 16.48C28.5179 16.538 28.5329 16.6019 28.5329 16.6667C28.5329 16.7315 28.5179 16.7954 28.4889 16.8533C28.4659 16.9041 28.4289 16.9473 28.3822 16.9778C28.3367 17.0057 28.2845 17.021 28.2311 17.0222C28.1903 17.0324 28.1475 17.0324 28.1067 17.0222C28.0694 17.0055 28.0383 16.9775 28.0178 16.9422V17.04H27.8134V16.1511H28.0178V16.4ZM28.32 16.64C28.3201 16.5946 28.3044 16.5506 28.2756 16.5156C28.2473 16.4873 28.2089 16.4715 28.1689 16.4715C28.1289 16.4715 28.0906 16.4873 28.0622 16.5156C28.0334 16.5506 28.0177 16.5946 28.0178 16.64C28.0161 16.6857 28.032 16.7302 28.0622 16.7645C28.0906 16.7927 28.1289 16.8085 28.1689 16.8085C28.2089 16.8085 28.2473 16.7927 28.2756 16.7645C28.3058 16.7302 28.3217 16.6857 28.32 16.64Z" fill="#1CAAEC"/>
<path d="M29.0578 16.9867L28.8533 16.7022V16.9867H28.64V16.0978H28.8533V16.5956L29.0578 16.32H29.3333L29.0489 16.6578L29.3422 17.0044L29.0578 16.9867Z" fill="#1CAAEC"/>
</g>
<defs>
<clipPath id="clip0_2707_278588">
<rect width="32" height="32" fill="white"/>
</clipPath>
</defs>
</svg>
