<svg width="32" height="32" viewBox="0 0 32 32" fill="none" xmlns="http://www.w3.org/2000/svg">
<g clip-path="url(#clip0_2707_278078)">
<path d="M16 31.9823C24.8268 31.9823 31.9823 24.8268 31.9823 16C31.9823 7.17331 24.8268 0.0178223 16 0.0178223C7.17331 0.0178223 0.0178223 7.17331 0.0178223 16C0.0178223 24.8268 7.17331 31.9823 16 31.9823Z" fill="white"/>
<path d="M4.14221 18.2223C4.89634 18.3478 5.66995 18.2805 6.3911 18.0268C6.62801 17.9506 6.84198 17.8161 7.01332 17.6356C7.09884 17.5586 7.16489 17.4624 7.20607 17.3549C7.24726 17.2474 7.2624 17.1317 7.25026 17.0172C7.23812 16.9028 7.19904 16.7928 7.13623 16.6964C7.07342 16.5999 6.98865 16.5197 6.88888 16.4623C6.58817 16.2767 6.26952 16.1218 5.93777 16.0001C5.68888 15.8845 5.41332 15.8312 5.15555 15.7334C5.00699 15.6822 4.86636 15.6104 4.73777 15.5201C4.6751 15.4832 4.62315 15.4306 4.58705 15.3674C4.55096 15.3043 4.53198 15.2328 4.53198 15.1601C4.53198 15.0874 4.55096 15.0159 4.58705 14.9528C4.62315 14.8896 4.6751 14.837 4.73777 14.8001C4.89751 14.681 5.07853 14.5935 5.2711 14.5423C5.93869 14.3956 6.63018 14.3956 7.29777 14.5423C7.47594 14.5662 7.64268 14.6436 7.77598 14.7642C7.90928 14.8848 8.00289 15.043 8.04443 15.2179C8.22054 15.7092 8.23534 16.244 8.08667 16.7443C7.938 17.2447 7.63361 17.6846 7.21777 18.0001C6.8337 18.3019 6.37799 18.499 5.89506 18.5722C5.41213 18.6454 4.91847 18.5922 4.46221 18.4179L4.30221 18.3556C4.25201 18.324 4.20445 18.2883 4.15999 18.249" fill="#AB322B"/>
<path d="M6.22231 13.6178C5.8312 13.6178 5.47565 13.6178 5.12898 13.7245C4.82466 13.796 4.52722 13.8942 4.24009 14.0178C4.0975 14.0861 3.97043 14.1829 3.86676 14.3023C3.79088 14.3698 3.73016 14.4527 3.68858 14.5454C3.647 14.638 3.6255 14.7385 3.6255 14.8401C3.6255 14.9416 3.647 15.0421 3.68858 15.1348C3.73016 15.2275 3.79088 15.3103 3.86676 15.3778C4.01459 15.5084 4.17896 15.619 4.35565 15.7067C4.72898 15.8934 5.1112 16.0534 5.47565 16.2489C5.6768 16.3517 5.85754 16.4903 6.00898 16.6578C6.24009 16.9245 6.16898 17.1556 5.8312 17.2712C5.20714 17.4626 4.54857 17.5142 3.90231 17.4223C3.6359 17.409 3.37534 17.3393 3.13787 17.2178C3.01609 17.1418 2.92487 17.0254 2.88009 16.8889C2.68061 16.3454 2.6791 15.7489 2.8758 15.2043C3.07251 14.6597 3.45485 14.2018 3.95565 13.9112C4.56488 13.5313 5.2971 13.4007 6.00009 13.5467C6.08642 13.5659 6.17002 13.5958 6.24898 13.6356" fill="#AB322B"/>
<path d="M24.3467 15.6533H24.3023C24.24 15.84 24.1867 16.0356 24.1245 16.2222H24.5245C24.4623 16.0178 24.4089 15.8311 24.3467 15.6533ZM21.9289 15.3511V15.8578C22.4 15.9378 22.5245 15.8578 22.4445 15.44C22.3738 15.3814 22.289 15.3423 22.1986 15.3267C22.1081 15.3111 22.0151 15.3195 21.9289 15.3511ZM21.3778 14.9422C21.7778 14.9422 22.1511 14.9422 22.5245 14.9422C22.6357 14.9401 22.7448 14.9734 22.8359 15.0373C22.9269 15.1012 22.9953 15.1924 23.0311 15.2978C23.074 15.4146 23.0843 15.5408 23.0608 15.663C23.0373 15.7851 22.9809 15.8986 22.8978 15.9911C22.8272 16.0573 22.753 16.1197 22.6756 16.1778L23.3156 16.9867L24.0267 14.9422H24.64L25.3689 17.0667H24.8089L24.6578 16.6756H24C23.9467 16.7911 23.8934 16.9245 23.8311 17.0756H22.7289L22.0711 16.32C22.0711 16.32 22 16.32 21.92 16.32V17.0756H21.3778V14.9422Z" fill="#231F20"/>
<path d="M26.0801 17.0845H25.5823C25.5823 16.3734 25.5823 15.6712 25.5823 14.9512H26.2756C26.4801 15.3245 26.6934 15.6978 26.9067 16.0712V14.9601H27.3601C27.4206 15.661 27.4206 16.3658 27.3601 17.0667H26.8445L26.0623 15.6801L26.0801 17.0845Z" fill="#231F20"/>
<path d="M17.6979 15.8845C17.9112 15.8845 18.0979 15.9378 18.2134 15.7334C18.2497 15.6914 18.2697 15.6378 18.2697 15.5823C18.2697 15.5268 18.2497 15.4731 18.2134 15.4312C18.1472 15.3737 18.0654 15.3371 17.9784 15.3261C17.8914 15.315 17.8031 15.3299 17.7245 15.3689L17.6979 15.8845ZM18.4801 17.0845L17.849 16.3289C17.849 16.3289 17.7779 16.3289 17.6979 16.3289V17.0756H17.1556V14.9423C17.5576 14.9022 17.9626 14.9022 18.3645 14.9423C18.4792 14.9595 18.5865 15.0094 18.6736 15.0859C18.7608 15.1624 18.824 15.2624 18.8559 15.3739C18.8877 15.4854 18.8868 15.6038 18.8533 15.7148C18.8198 15.8258 18.755 15.9248 18.6668 16L18.4534 16.2489L18.7823 16.6667C18.889 16.8089 18.9956 16.9423 19.1201 17.12L18.4801 17.0845Z" fill="#231F20"/>
<path d="M21.2001 17.0845H20.5334L19.9467 16.24C19.7423 16.5156 19.9467 16.8089 19.7956 17.0756H19.2979V14.9511H19.8223V15.7778H19.8756L20.5156 14.8889H21.1467L20.4445 15.9289L21.2356 17.0845" fill="#231F20"/>
<path d="M11.1022 14.9512H11.6445V16.169C11.6492 16.2774 11.6672 16.3848 11.6978 16.4889C11.7167 16.5612 11.7617 16.6238 11.8241 16.6649C11.8864 16.7059 11.9618 16.7224 12.0356 16.7112C12.105 16.7123 12.1725 16.6888 12.2262 16.6449C12.2799 16.601 12.3163 16.5394 12.3289 16.4712C12.3569 16.3276 12.3717 16.1818 12.3734 16.0356C12.3734 15.6978 12.3734 15.3601 12.3734 15.0223V14.9512H12.8889V15.5201C12.8889 15.7689 12.8889 16.0178 12.8889 16.2578C12.9061 16.3709 12.898 16.4864 12.8652 16.596C12.8324 16.7056 12.7757 16.8065 12.6992 16.8915C12.6227 16.9766 12.5283 17.0436 12.4227 17.0877C12.3172 17.1318 12.2032 17.152 12.0889 17.1467C11.908 17.1491 11.7279 17.1221 11.5556 17.0667C11.4238 17.0338 11.3064 16.9586 11.2213 16.8527C11.1362 16.7467 11.0882 16.6159 11.0845 16.4801C11.0845 15.9734 11.0845 15.4756 11.0845 14.9512" fill="#231F20"/>
<path d="M9.13778 16.9512V16.4623C9.97334 16.8 10.0267 16.8089 10.2933 16.5245C10.2933 16.3467 10.1244 16.32 10 16.2845C9.87556 16.2489 9.67111 16.2045 9.51111 16.1423C9.40292 16.1048 9.30856 16.0355 9.24036 15.9435C9.17217 15.8515 9.13332 15.7411 9.12889 15.6267C9.11897 15.5126 9.14119 15.398 9.19303 15.2959C9.24487 15.1938 9.32427 15.1082 9.42223 15.0489C9.68922 14.8892 10.0063 14.8353 10.3111 14.8978C10.4533 14.8978 10.5956 14.9778 10.7556 15.0134V15.5023C10.5422 15.4312 10.3467 15.36 10.1511 15.3156C10.0666 15.2934 9.97783 15.2934 9.89334 15.3156C9.76 15.3156 9.74223 15.3778 9.75112 15.6089L10.0622 15.7156C10.2072 15.7506 10.3498 15.7952 10.4889 15.8489C10.5934 15.8906 10.6845 15.9601 10.7521 16.05C10.8197 16.1399 10.8613 16.2467 10.8723 16.3587C10.8833 16.4706 10.8633 16.5835 10.8145 16.6848C10.7657 16.7862 10.69 16.8722 10.5956 16.9334C10.3874 17.0689 10.1413 17.1343 9.89334 17.12C9.62996 17.1311 9.36861 17.0696 9.13778 16.9423" fill="#231F20"/>
<path d="M15.8667 15.3868V15.7156H16.6755V16.1334H15.8755V16.6668H16.7644V17.0756H15.3422C15.2824 16.3747 15.2824 15.6699 15.3422 14.969C15.5723 14.9378 15.8055 14.9378 16.0355 14.969C16.2667 14.969 16.5067 14.969 16.7644 14.969V15.3423C16.4978 15.4579 16.1867 15.3423 15.8755 15.4223" fill="#231F20"/>
<path d="M29.2444 16.1422H28.4444V16.6667H29.3333V17.0845H27.9022V14.9333C28.3733 14.9333 28.7911 14.9333 29.3244 14.9333V15.3422H28.4444V15.6978H29.2356L29.2444 16.1422Z" fill="#231F20"/>
<path d="M14.3734 15.4489C14.3066 15.3963 14.228 15.3607 14.1443 15.3453C14.0607 15.3298 13.9746 15.3348 13.8934 15.3601V15.9378C14.3734 15.9823 14.48 15.8578 14.3734 15.4489ZM13.8934 16.3912V17.0756H13.3334C13.3334 16.3734 13.3334 15.6712 13.3334 14.9512C13.7423 14.9512 14.1156 14.9512 14.48 14.9512C14.61 14.9624 14.7322 15.0181 14.8261 15.1087C14.9199 15.1993 14.9798 15.3194 14.9956 15.4489C15.0357 15.5834 15.0324 15.7271 14.9862 15.8596C14.9399 15.992 14.853 16.1065 14.7378 16.1867C14.5796 16.2816 14.4045 16.345 14.2223 16.3734C14.1131 16.3874 14.0026 16.3874 13.8934 16.3734" fill="#231F20"/>
<path d="M5.2001 15.9023C4.87143 15.7768 4.56974 15.5897 4.31121 15.3511C3.96454 14.9156 4.31121 14.5867 4.57787 14.4623C4.80916 14.3162 5.06524 14.2138 5.33343 14.16C5.95242 14.0355 6.59 14.0355 7.20899 14.16C7.35121 14.16 7.36899 14.2045 7.48454 14.3556C7.11121 14.3289 6.73787 14.2223 6.34676 14.2223C5.97222 14.2194 5.59794 14.2431 5.22676 14.2934C5.04142 14.3207 4.86323 14.3841 4.70232 14.48C4.24899 14.7467 4.19565 14.9956 4.41787 15.3067C4.65535 15.534 4.91776 15.7338 5.2001 15.9023Z" fill="#AB322B"/>
<path d="M5.69777 16.0801C6.02496 16.2004 6.32652 16.3813 6.58666 16.6134C6.92444 17.0401 6.53333 17.3512 6.31111 17.5023C6.08397 17.6382 5.83396 17.7316 5.57333 17.7779C4.95091 17.8978 4.3113 17.8978 3.68889 17.7779C3.54666 17.7779 3.53777 17.7779 3.41333 17.5912C3.78666 17.6356 4.17777 17.7067 4.56 17.7156C4.93434 17.7218 5.30864 17.701 5.68 17.6534C5.87395 17.6121 6.05807 17.5336 6.22222 17.4223C6.68444 17.1734 6.73777 16.9245 6.50666 16.6312C6.25941 16.4166 5.98794 16.2317 5.69777 16.0801Z" fill="#AB322B"/>
<path d="M4.07114 15.3244C4.00752 15.26 3.95896 15.1822 3.92894 15.0968C3.89893 15.0114 3.88822 14.9203 3.89756 14.8302C3.90691 14.7402 3.93609 14.6533 3.98301 14.5758C4.02993 14.4983 4.09342 14.4322 4.16892 14.3822C4.53596 14.1095 4.96812 13.9379 5.42226 13.8844C5.83114 13.8311 6.24892 13.8844 6.65781 13.8222C6.72229 13.8093 6.78912 13.8149 6.85051 13.8385C6.91189 13.8621 6.96529 13.9027 7.00448 13.9555H5.85781C5.36312 13.977 4.8798 14.1107 4.44448 14.3467H4.39114C4.07114 14.56 3.72448 14.8355 4.39114 15.5467C4.28893 15.4693 4.19374 15.383 4.1067 15.2889" fill="#AB322B"/>
<path d="M6.82677 16.64C6.88947 16.7001 6.93734 16.774 6.96659 16.8557C6.99585 16.9375 7.0057 17.0249 6.99535 17.1111C6.98501 17.1973 6.95475 17.28 6.90698 17.3525C6.85921 17.425 6.79523 17.4854 6.7201 17.5289C6.35264 17.7918 5.92443 17.9569 5.47565 18.0089C5.06224 18.0518 4.64684 18.0726 4.23121 18.0712C4.16893 18.0824 4.10479 18.0767 4.04541 18.0548C3.98603 18.033 3.93357 17.9956 3.89343 17.9467C4.27565 17.9467 4.65788 17.9467 5.0401 17.9467C5.54243 17.9272 6.03421 17.7967 6.4801 17.5645C6.8001 17.3512 7.14677 17.0934 6.4801 16.4089C6.58568 16.4822 6.68392 16.5656 6.77343 16.6578" fill="#AB322B"/>
</g>
<defs>
<clipPath id="clip0_2707_278078">
<rect width="32" height="32" fill="white"/>
</clipPath>
</defs>
</svg>
