<svg width="32" height="32" viewBox="0 0 32 32" fill="none" xmlns="http://www.w3.org/2000/svg">
<g clip-path="url(#clip0_2707_277558)">
<path d="M16 32C24.434 32 31.2711 24.8366 31.2711 16C31.2711 7.16344 24.434 0 16 0C7.56599 0 0.728882 7.16344 0.728882 16C0.728882 24.8366 7.56599 32 16 32Z" fill="white"/>
<path d="M16 29.3334C23.0251 29.3334 28.72 23.3638 28.72 16C28.72 8.63622 23.0251 2.66669 16 2.66669C8.97497 2.66669 3.28003 8.63622 3.28003 16C3.28003 23.3638 8.97497 29.3334 16 29.3334Z" fill="white"/>
<path d="M3.6356 13.5822V17.9378C3.63324 18.0308 3.64937 18.1233 3.68304 18.2099C3.71672 18.2966 3.76727 18.3757 3.83177 18.4427C3.89627 18.5097 3.97344 18.5632 4.05878 18.6001C4.14413 18.637 4.23595 18.6567 4.32894 18.6578H8.48005C8.66634 18.6509 8.8427 18.572 8.97201 18.4377C9.10132 18.3034 9.17351 18.1242 9.17338 17.9378V13.5822C9.17574 13.4893 9.15962 13.3968 9.12594 13.3101C9.09227 13.2234 9.04171 13.1443 8.97721 13.0773C8.91271 13.0103 8.83555 12.9568 8.7502 12.9199C8.66486 12.883 8.57303 12.8634 8.48005 12.8622H4.32894C4.14189 12.8669 3.96421 12.9451 3.83443 13.0799C3.70464 13.2147 3.63321 13.3952 3.6356 13.5822Z" fill="#E40012"/>
<path d="M4.01782 15.7422H4.81782C4.80953 15.4859 4.85241 15.2306 4.94396 14.9911C5.0355 14.7516 5.17388 14.5328 5.35099 14.3474C5.52811 14.162 5.74041 14.0138 5.97548 13.9114C6.21055 13.809 6.46367 13.7545 6.72004 13.7511C7.24206 13.7603 7.74 13.9724 8.10835 14.3424C8.4767 14.7124 8.68653 15.2113 8.69338 15.7333H8.79116C8.79823 15.4151 8.74238 15.0985 8.62682 14.8019C8.51126 14.5053 8.33826 14.2344 8.11775 14.0048C7.89724 13.7752 7.63356 13.5914 7.34184 13.464C7.05012 13.3366 6.73611 13.268 6.41782 13.2622C5.7726 13.2762 5.1591 13.5448 4.71116 14.0094C4.26321 14.474 4.01717 15.0969 4.02671 15.7422" fill="white"/>
<path d="M4.86227 15.7422H5.6356C5.61992 15.5418 5.64585 15.3403 5.71177 15.1504C5.7777 14.9605 5.88218 14.7863 6.01867 14.6387C6.15516 14.4911 6.32069 14.3733 6.50488 14.2928C6.68906 14.2123 6.88791 14.1707 7.08893 14.1707C7.28996 14.1707 7.48881 14.2123 7.67299 14.2928C7.85718 14.3733 8.02271 14.4911 8.1592 14.6387C8.29569 14.7863 8.40017 14.9605 8.4661 15.1504C8.53202 15.3403 8.55795 15.5418 8.54227 15.7422H8.64005C8.63327 15.2382 8.43123 14.7564 8.07644 14.3983C7.72166 14.0402 7.24179 13.8337 6.73782 13.8222C6.23486 13.8292 5.75517 14.0352 5.40367 14.395C5.05218 14.7548 4.85752 15.2392 4.86227 15.7422Z" fill="white"/>
<path d="M5.68889 15.7422H6.40889C6.41339 15.4788 6.51945 15.2272 6.70494 15.0401C6.89044 14.8529 7.14103 14.7446 7.40445 14.7378C7.53519 14.7389 7.66442 14.7658 7.78476 14.817C7.9051 14.8681 8.0142 14.9424 8.10582 15.0356C8.19744 15.1289 8.26979 15.2393 8.31874 15.3606C8.3677 15.4818 8.39229 15.6115 8.39111 15.7422H8.48889C8.5043 15.549 8.47954 15.3547 8.41618 15.1715C8.35281 14.9883 8.25221 14.8202 8.1207 14.6778C7.98919 14.5354 7.82963 14.4217 7.65206 14.344C7.47448 14.2663 7.28274 14.2261 7.08889 14.2261C6.89505 14.2261 6.70331 14.2663 6.52573 14.344C6.34815 14.4217 6.18859 14.5354 6.05708 14.6778C5.92558 14.8202 5.82497 14.9883 5.76161 15.1715C5.69824 15.3547 5.67348 15.549 5.68889 15.7422Z" fill="white"/>
<path d="M8.79106 15.7778H7.99995C8.00949 16.0362 7.96694 16.294 7.87484 16.5357C7.78275 16.7774 7.64298 16.9981 7.46385 17.1847C7.28472 17.3713 7.0699 17.52 6.83215 17.6218C6.59441 17.7237 6.3386 17.7768 6.07995 17.7778C5.55868 17.764 5.06297 17.549 4.69675 17.1778C4.33052 16.8066 4.12222 16.3081 4.11551 15.7867H4.00884C3.99692 16.4311 4.24097 17.054 4.6875 17.5189C5.13403 17.9838 5.74663 18.2527 6.39106 18.2667C7.03628 18.2526 7.64978 17.984 8.09773 17.5194C8.54567 17.0549 8.79171 16.432 8.78217 15.7867" fill="white"/>
<path d="M7.94662 15.7778H7.17329C7.17329 16.162 7.02064 16.5306 6.74892 16.8023C6.4772 17.074 6.10867 17.2267 5.7244 17.2267C5.34013 17.2267 4.9716 17.074 4.69988 16.8023C4.42816 16.5306 4.27551 16.162 4.27551 15.7778H4.17773C4.18222 16.281 4.38231 16.7628 4.73567 17.1211C5.08903 17.4794 5.56794 17.6862 6.07107 17.6978C6.32046 17.6955 6.56694 17.6439 6.79635 17.546C7.02576 17.4482 7.23357 17.306 7.40785 17.1275C7.58213 16.9491 7.71945 16.738 7.8119 16.5064C7.90436 16.2748 7.95015 16.0272 7.94662 15.7778Z" fill="white"/>
<path d="M7.11106 15.7778H6.39995C6.39996 16.0426 6.29535 16.2968 6.1089 16.4849C5.92245 16.673 5.66924 16.7799 5.40439 16.7822C5.14502 16.773 4.89952 16.6628 4.72019 16.4752C4.54087 16.2875 4.44191 16.0373 4.44439 15.7778H4.31995C4.32444 16.1505 4.4733 16.507 4.73522 16.7722C4.99715 17.0375 5.35173 17.1908 5.72439 17.2C6.09539 17.1907 6.44807 17.0368 6.70715 16.7711C6.96622 16.5053 7.11117 16.1489 7.11106 15.7778Z" fill="white"/>
<path d="M10.0178 16.2933L10.6489 16.1955C10.6638 16.3098 10.7208 16.4145 10.8089 16.4889C10.9085 16.5628 11.0319 16.5976 11.1555 16.5867C11.2834 16.5971 11.4112 16.5659 11.52 16.4978C11.5471 16.4766 11.5691 16.4497 11.5845 16.4189C11.5999 16.3882 11.6082 16.3544 11.6089 16.32C11.6076 16.2748 11.592 16.2313 11.5644 16.1955C11.5014 16.1493 11.4283 16.1188 11.3511 16.1067C11.0125 16.0502 10.6852 15.9391 10.3822 15.7778C10.2913 15.7161 10.2175 15.6324 10.1677 15.5345C10.118 15.4365 10.0939 15.3276 10.0978 15.2178C10.0974 15.1134 10.1194 15.0103 10.1624 14.9152C10.2053 14.8201 10.2681 14.7354 10.3466 14.6667C10.5641 14.506 10.8328 14.4301 11.1022 14.4533C11.3555 14.4357 11.6085 14.4912 11.8311 14.6133C11.9913 14.7397 12.1066 14.9142 12.16 15.1111L11.5644 15.2266C11.5419 15.1371 11.4883 15.0583 11.4133 15.0044C11.323 14.9485 11.2169 14.9236 11.1111 14.9333C10.9884 14.9259 10.8659 14.9504 10.7555 15.0044C10.7337 15.0144 10.7143 15.0292 10.6989 15.0476C10.6835 15.0661 10.6725 15.0878 10.6666 15.1111C10.6677 15.1338 10.6738 15.156 10.6846 15.176C10.6953 15.196 10.7105 15.2133 10.7289 15.2266C10.915 15.3172 11.1123 15.383 11.3155 15.4222C11.5711 15.4669 11.8139 15.567 12.0266 15.7155C12.0925 15.7781 12.1441 15.8542 12.1778 15.9386C12.2116 16.023 12.2267 16.1137 12.2222 16.2044C12.224 16.3167 12.2001 16.428 12.1523 16.5296C12.1045 16.6313 12.0342 16.7207 11.9466 16.7911C11.7178 16.9726 11.4291 17.0614 11.1378 17.04C10.8646 17.0581 10.593 16.9863 10.3644 16.8355C10.1797 16.6931 10.0482 16.4928 9.99109 16.2666" fill="#3E3A39"/>
<path fill-rule="evenodd" clip-rule="evenodd" d="M12.6133 13.5555H13.2444V14.1689H12.6133V13.5555ZM12.6133 14.5067H13.2444V17.0133H12.6133V14.5067Z" fill="#3E3A39"/>
<path d="M15.8755 17.0045H15.2444V15.7334C15.2607 15.5589 15.2607 15.3834 15.2444 15.2089C15.2212 15.134 15.1745 15.0685 15.1111 15.0222C15.046 14.9765 14.9684 14.9517 14.8889 14.9511C14.7833 14.9524 14.6807 14.9866 14.5955 15.0489C14.5143 15.1138 14.4528 15.2 14.4177 15.2978C14.3821 15.4852 14.3672 15.676 14.3733 15.8667V17.0045H13.7422V14.4978H14.32V14.8711C14.4064 14.7403 14.5239 14.6329 14.6619 14.5585C14.8 14.484 14.9543 14.4449 15.1111 14.4445C15.2398 14.4438 15.3672 14.4711 15.4844 14.5245C15.5849 14.5649 15.6735 14.6301 15.7419 14.714C15.8103 14.798 15.8563 14.8979 15.8755 15.0045C15.8921 15.1522 15.8921 15.3012 15.8755 15.4489V17.0045Z" fill="#3E3A39"/>
<path fill-rule="evenodd" clip-rule="evenodd" d="M16.8089 15.2711L16.2312 15.1645C16.2804 14.9537 16.3994 14.7657 16.5689 14.6311C16.7769 14.4957 17.0239 14.4332 17.2712 14.4534C17.484 14.4409 17.6968 14.4774 17.8934 14.56C18.0159 14.6171 18.1182 14.7101 18.1867 14.8267C18.253 15.0148 18.2802 15.2144 18.2667 15.4134V16.1867C18.2488 16.3492 18.2488 16.5131 18.2667 16.6756C18.2878 16.7934 18.3267 16.9073 18.3823 17.0134H17.7778L17.7245 16.8178V16.7378C17.6267 16.8431 17.5088 16.9277 17.3778 16.9867C17.2542 17.0395 17.1211 17.0667 16.9867 17.0667C16.881 17.0721 16.7753 17.0559 16.6759 17.0193C16.5766 16.9826 16.4858 16.9262 16.4089 16.8533C16.3 16.7352 16.231 16.5857 16.2119 16.4262C16.1927 16.2666 16.2244 16.105 16.3023 15.9645C16.3634 15.856 16.4565 15.7691 16.5689 15.7156C16.7268 15.6398 16.8943 15.586 17.0667 15.5556C17.2795 15.526 17.4883 15.4723 17.6889 15.3956V15.3334C17.6937 15.2831 17.6874 15.2324 17.6705 15.1848C17.6536 15.1372 17.6265 15.0938 17.5912 15.0578C17.4926 14.9973 17.3776 14.9693 17.2623 14.9778C17.1682 14.9732 17.0749 14.9981 16.9956 15.0489C16.9149 15.1068 16.858 15.1921 16.8356 15.2889M17.68 15.8222L17.2889 15.9289C17.1523 15.9272 17.0166 15.9513 16.8889 16C16.8517 16.0262 16.821 16.0608 16.7994 16.1009C16.7778 16.141 16.7659 16.1856 16.7645 16.2311C16.7648 16.3208 16.7999 16.4068 16.8623 16.4711C16.8945 16.5047 16.9331 16.5314 16.9759 16.5498C17.0186 16.5681 17.0646 16.5776 17.1112 16.5778C17.2304 16.5759 17.3458 16.5353 17.44 16.4622C17.5126 16.4059 17.5655 16.3282 17.5912 16.24C17.6052 16.1338 17.6052 16.0262 17.5912 15.92L17.68 15.8222Z" fill="#3E3A39"/>
<path d="M19.3066 17.0045H18.6666V14.5067H19.2533V14.8622C19.3233 14.7386 19.4134 14.6274 19.52 14.5334C19.6007 14.4776 19.6974 14.4495 19.7955 14.4534C19.9444 14.4495 20.0908 14.4931 20.2133 14.5778L20.0177 15.1556C19.9306 15.0882 19.8254 15.048 19.7155 15.04C19.6342 15.0391 19.5553 15.0675 19.4933 15.12C19.4161 15.1932 19.366 15.2903 19.3511 15.3956C19.3044 15.6715 19.2865 15.9515 19.2977 16.2311V17.0045H19.3066Z" fill="#3E3A39"/>
<path d="M20.2667 14.5067H20.8445V14.8533C20.9291 14.733 21.0407 14.6342 21.1704 14.5647C21.3 14.4953 21.4441 14.4571 21.5912 14.4533C21.7285 14.4454 21.8649 14.4795 21.9823 14.5511C22.0996 14.628 22.1971 14.7316 22.2667 14.8533C22.3562 14.7326 22.4678 14.6301 22.5956 14.5511C22.7168 14.489 22.8506 14.4556 22.9867 14.4533C23.1416 14.4496 23.2949 14.4863 23.4312 14.56C23.5525 14.6411 23.6482 14.7552 23.7067 14.8889C23.7586 15.0586 23.7797 15.2362 23.7689 15.4133V17.0045H23.1112V15.5822C23.1451 15.427 23.1451 15.2663 23.1112 15.1111C23.0846 15.0648 23.0455 15.0268 22.9983 15.0017C22.9511 14.9765 22.8978 14.9652 22.8445 14.9689C22.7551 14.9683 22.6679 14.9963 22.5956 15.0489C22.5141 15.1116 22.4549 15.1989 22.4267 15.2978C22.3849 15.4663 22.367 15.6398 22.3734 15.8133V17.0133H21.7423V15.6356C21.7632 15.4792 21.7632 15.3208 21.7423 15.1645C21.7259 15.103 21.6881 15.0494 21.6356 15.0133C21.6099 14.9919 21.5801 14.9761 21.5479 14.967C21.5158 14.9578 21.4821 14.9554 21.4489 14.96C21.354 14.9592 21.2611 14.9871 21.1823 15.04C21.0994 15.0975 21.0395 15.1826 21.0134 15.28C20.9892 15.448 20.9892 15.6187 21.0134 15.7867V17.0045H20.3734V14.5067H20.2667Z" fill="#3E3A39"/>
<path fill-rule="evenodd" clip-rule="evenodd" d="M24.6933 15.2711L24.1155 15.1645C24.1648 14.9537 24.2838 14.7657 24.4533 14.6311C24.6612 14.4957 24.9082 14.4332 25.1555 14.4534C25.3683 14.4409 25.5812 14.4774 25.7777 14.56C25.902 14.6145 26.005 14.7082 26.0711 14.8267C26.1373 15.0148 26.1646 15.2144 26.1511 15.4134V16.1867C26.1332 16.3492 26.1332 16.5131 26.1511 16.6756C26.1762 16.7923 26.215 16.9057 26.2666 17.0134H25.6355C25.6355 16.9422 25.5911 16.88 25.5733 16.8178C25.5774 16.7913 25.5774 16.7643 25.5733 16.7378C25.4755 16.8431 25.3576 16.9277 25.2266 16.9867C25.103 17.0395 24.9699 17.0667 24.8355 17.0667C24.7005 17.0753 24.5657 17.0471 24.4455 16.9851C24.3253 16.9231 24.2243 16.8295 24.1531 16.7145C24.0819 16.5995 24.0433 16.4674 24.0413 16.3321C24.0394 16.1969 24.0743 16.0637 24.1422 15.9467C24.2066 15.8376 24.3027 15.7508 24.4177 15.6978C24.5749 15.6202 24.7426 15.5663 24.9155 15.5378C25.1252 15.5073 25.3309 15.4536 25.5288 15.3778V15.3156C25.5348 15.2659 25.5299 15.2156 25.5145 15.1681C25.4992 15.1205 25.4738 15.0768 25.44 15.04C25.3382 14.9794 25.2203 14.9514 25.1022 14.96C25.011 14.9567 24.921 14.9815 24.8444 15.0311C24.7637 15.089 24.7068 15.1743 24.6844 15.2711M25.5199 15.8045L25.1377 15.9111C25.0185 15.9264 24.9036 15.9657 24.7999 16.0267C24.7627 16.0529 24.732 16.0874 24.7104 16.1275C24.6888 16.1677 24.6769 16.2123 24.6755 16.2578C24.6758 16.3474 24.7109 16.4334 24.7733 16.4978C24.8052 16.5318 24.8437 16.5588 24.8866 16.5772C24.9294 16.5955 24.9756 16.6048 25.0222 16.6045C25.1412 16.6013 25.2562 16.5609 25.3511 16.4889C25.4239 16.4346 25.4745 16.3556 25.4933 16.2667C25.5074 16.1605 25.5074 16.0529 25.4933 15.9467V15.8045H25.5199Z" fill="#3E3A39"/>
<path d="M26.3645 16.2933L26.9956 16.1955C27.0136 16.3109 27.0738 16.4154 27.1645 16.4889C27.2642 16.5628 27.3875 16.5976 27.5112 16.5866C27.6391 16.597 27.7669 16.5659 27.8756 16.4978C27.9027 16.4766 27.9248 16.4497 27.9401 16.4189C27.9555 16.3882 27.9638 16.3544 27.9645 16.32C27.9638 16.2731 27.9447 16.2284 27.9112 16.1955C27.8528 16.1471 27.7819 16.1163 27.7067 16.1066C27.3685 16.0534 27.0412 15.9453 26.7378 15.7866C26.6474 15.7225 26.5741 15.637 26.5245 15.5378C26.4749 15.4386 26.4505 15.3286 26.4534 15.2178C26.4526 15.1155 26.4736 15.0143 26.515 14.9208C26.5564 14.8273 26.6172 14.7437 26.6934 14.6755C26.9112 14.508 27.1841 14.4287 27.4578 14.4533C27.7096 14.433 27.9614 14.4921 28.1778 14.6222C28.3476 14.7395 28.4654 14.9179 28.5067 15.12L27.9112 15.2355C27.8929 15.144 27.8424 15.062 27.7689 15.0044C27.6786 14.9485 27.5725 14.9235 27.4667 14.9333C27.344 14.9246 27.2211 14.9492 27.1112 15.0044C27.0892 15.0191 27.0713 15.0389 27.0589 15.0622C27.0465 15.0854 27.04 15.1114 27.0401 15.1378C27.038 15.1622 27.0427 15.1868 27.0536 15.2087C27.0646 15.2307 27.0815 15.2492 27.1023 15.2622C27.2878 15.3523 27.4854 15.4152 27.6889 15.4489C27.9422 15.4922 28.1823 15.5925 28.3912 15.7422C28.458 15.8041 28.5103 15.88 28.5441 15.9646C28.5779 16.0492 28.5925 16.1402 28.5867 16.2311C28.5872 16.3436 28.5636 16.4549 28.5177 16.5576C28.4717 16.6603 28.4043 16.7521 28.3201 16.8266C28.0853 17.0025 27.7949 17.0878 27.5023 17.0666C27.2293 17.0829 26.9583 17.0112 26.7289 16.8622C26.5449 16.7209 26.416 16.5196 26.3645 16.2933Z" fill="#3E3A39"/>
<path d="M10.3321 18.3814L10.1076 18.3409C10.1329 18.2505 10.1763 18.1836 10.2379 18.1401C10.2996 18.0967 10.3911 18.075 10.5126 18.075C10.623 18.075 10.7052 18.0882 10.7592 18.1146C10.8132 18.1404 10.851 18.1736 10.8727 18.2141C10.895 18.254 10.9062 18.3277 10.9062 18.4351L10.9036 18.7239C10.9036 18.806 10.9074 18.8668 10.915 18.9061C10.9232 18.9448 10.9382 18.9865 10.9599 19.0311H10.7151C10.7087 19.0147 10.7008 18.9903 10.6914 18.9581C10.6873 18.9434 10.6843 18.9337 10.6826 18.929C10.6403 18.9701 10.5951 19.0009 10.547 19.0214C10.4988 19.042 10.4475 19.0523 10.3929 19.0523C10.2966 19.0523 10.2206 19.0261 10.1649 18.9739C10.1097 18.9217 10.0821 18.8556 10.0821 18.7758C10.0821 18.723 10.0947 18.676 10.12 18.6349C10.1452 18.5933 10.1804 18.5616 10.2256 18.5398C10.2714 18.5175 10.3371 18.4982 10.4228 18.4817C10.5385 18.46 10.6186 18.4398 10.6632 18.421V18.3963C10.6632 18.3488 10.6515 18.315 10.628 18.2951C10.6045 18.2745 10.5602 18.2643 10.495 18.2643C10.451 18.2643 10.4167 18.2731 10.392 18.2907C10.3674 18.3077 10.3474 18.3379 10.3321 18.3814ZM10.6632 18.5821C10.6315 18.5927 10.5813 18.6053 10.5126 18.62C10.444 18.6346 10.3991 18.649 10.3779 18.6631C10.3456 18.686 10.3295 18.715 10.3295 18.7503C10.3295 18.7849 10.3424 18.8148 10.3682 18.8401C10.3941 18.8653 10.4269 18.8779 10.4669 18.8779C10.5115 18.8779 10.554 18.8633 10.5945 18.8339C10.6245 18.8116 10.6441 18.7843 10.6535 18.752C10.66 18.7309 10.6632 18.6907 10.6632 18.6314V18.5821Z" fill="#3E3A39"/>
<path d="M10.88 19.0928L11.1626 19.1271C11.1673 19.16 11.1781 19.1826 11.1952 19.1949C11.2187 19.2125 11.2556 19.2213 11.3061 19.2213C11.3707 19.2213 11.4191 19.2116 11.4514 19.1922C11.4731 19.1793 11.4895 19.1585 11.5007 19.1297C11.5083 19.1092 11.5121 19.0713 11.5121 19.0162V18.8797C11.4382 18.9806 11.3448 19.0311 11.2322 19.0311C11.1065 19.0311 11.007 18.978 10.9337 18.8718C10.8762 18.7878 10.8474 18.6834 10.8474 18.5583C10.8474 18.4016 10.885 18.2819 10.9601 18.1991C11.0358 18.1163 11.1297 18.075 11.2418 18.075C11.3575 18.075 11.4528 18.1257 11.528 18.2273V18.0961H11.7595V18.9352C11.7595 19.0455 11.7504 19.128 11.7322 19.1826C11.714 19.2372 11.6885 19.28 11.6556 19.3111C11.6228 19.3422 11.5788 19.3666 11.5236 19.3842C11.469 19.4018 11.3997 19.4106 11.3158 19.4106C11.1573 19.4106 11.0449 19.3833 10.9786 19.3287C10.9123 19.2747 10.8791 19.206 10.8791 19.1227C10.8791 19.1145 10.8794 19.1045 10.88 19.0928ZM11.101 18.5442C11.101 18.6434 11.12 18.7162 11.1582 18.7626C11.1969 18.8084 11.2445 18.8313 11.3008 18.8313C11.3613 18.8313 11.4123 18.8078 11.454 18.7608C11.4957 18.7133 11.5165 18.6431 11.5165 18.5504C11.5165 18.4536 11.4966 18.3817 11.4567 18.3347C11.4168 18.2877 11.3663 18.2643 11.3052 18.2643C11.2459 18.2643 11.1969 18.2874 11.1582 18.3338C11.12 18.3796 11.101 18.4497 11.101 18.5442Z" fill="#3E3A39"/>
<path d="M12.0019 19.0311H11.7545V18.0961H11.9843V18.229C12.0236 18.1662 12.0588 18.1249 12.0899 18.1049C12.1216 18.0849 12.1574 18.075 12.1973 18.075C12.2537 18.075 12.308 18.0905 12.3602 18.1216L12.2836 18.3373C12.242 18.3103 12.2032 18.2968 12.1674 18.2968C12.1328 18.2968 12.1034 18.3065 12.0794 18.3259C12.0553 18.3447 12.0362 18.379 12.0221 18.4289C12.0086 18.4788 12.0019 18.5833 12.0019 18.7423V19.0311Z" fill="#3E3A39"/>
<path d="M12.2895 17.9693V17.7404H12.5369V17.9693H12.2895ZM12.2895 19.0311V18.0961H12.5369V19.0311H12.2895ZM12.7807 19.0311V17.7404H13.0282V18.2053C13.1045 18.1184 13.1949 18.075 13.2993 18.075C13.4132 18.075 13.5074 18.1163 13.582 18.1991C13.6565 18.2813 13.6938 18.3996 13.6938 18.5539C13.6938 18.7136 13.6556 18.8365 13.5793 18.9228C13.5036 19.0091 13.4114 19.0523 13.3029 19.0523C13.2494 19.0523 13.1966 19.0391 13.1444 19.0126C13.0927 18.9856 13.0481 18.946 13.0105 18.8938V19.0311H12.7807ZM13.0264 18.5434C13.0264 18.6402 13.0417 18.7118 13.0722 18.7582C13.115 18.8239 13.172 18.8568 13.243 18.8568C13.2976 18.8568 13.3439 18.8336 13.3821 18.7872C13.4208 18.7403 13.4402 18.6666 13.4402 18.5663C13.4402 18.4594 13.4208 18.3825 13.3821 18.3356C13.3434 18.288 13.2938 18.2643 13.2333 18.2643C13.174 18.2643 13.1247 18.2874 13.0854 18.3338C13.0461 18.3796 13.0264 18.4494 13.0264 18.5434ZM14.5091 19.0311V18.8911C14.475 18.941 14.4301 18.9804 14.3744 19.0091C14.3192 19.0379 14.2608 19.0523 14.1992 19.0523C14.1363 19.0523 14.08 19.0385 14.0301 19.0109C13.9802 18.9833 13.9441 18.9446 13.9218 18.8947C13.8995 18.8448 13.8884 18.7758 13.8884 18.6878V18.0961H14.1358V18.5258C14.1358 18.6572 14.1402 18.7379 14.149 18.7679C14.1584 18.7972 14.1751 18.8207 14.1992 18.8383C14.2232 18.8553 14.2537 18.8638 14.2907 18.8638C14.333 18.8638 14.3708 18.8524 14.4043 18.8295C14.4378 18.806 14.4606 18.7773 14.473 18.7432C14.4853 18.7086 14.4915 18.6244 14.4915 18.4905V18.0961H14.7389V19.0311H14.5091ZM14.9088 18.7644L15.1571 18.7265C15.1676 18.7746 15.1891 18.8113 15.2214 18.8365C15.2536 18.8612 15.2988 18.8735 15.3569 18.8735C15.4209 18.8735 15.4691 18.8618 15.5013 18.8383C15.5231 18.8219 15.5339 18.7999 15.5339 18.7723C15.5339 18.7535 15.528 18.7379 15.5163 18.7256C15.504 18.7139 15.4764 18.703 15.4335 18.693C15.234 18.649 15.1075 18.6088 15.0541 18.5724C14.9801 18.5219 14.9431 18.4518 14.9431 18.362C14.9431 18.281 14.9751 18.2129 15.0391 18.1577C15.1031 18.1025 15.2023 18.075 15.3367 18.075C15.4646 18.075 15.5597 18.0958 15.622 18.1375C15.6842 18.1791 15.727 18.2408 15.7505 18.3224L15.5172 18.3655C15.5072 18.3291 15.4881 18.3012 15.46 18.2819C15.4324 18.2625 15.3927 18.2528 15.3411 18.2528C15.2759 18.2528 15.2293 18.2619 15.2011 18.2801C15.1823 18.293 15.1729 18.3097 15.1729 18.3303C15.1729 18.3479 15.1811 18.3629 15.1976 18.3752C15.2199 18.3916 15.2968 18.4148 15.4283 18.4447C15.5603 18.4747 15.6525 18.5114 15.7047 18.5548C15.7564 18.5988 15.7822 18.6602 15.7822 18.7388C15.7822 18.8245 15.7464 18.8982 15.6748 18.9598C15.6032 19.0214 15.4972 19.0523 15.3569 19.0523C15.2296 19.0523 15.1286 19.0264 15.0541 18.9748C14.9801 18.9231 14.9317 18.853 14.9088 18.7644ZM15.9997 17.9693V17.7404H16.2471V17.9693H15.9997ZM15.9997 19.0311V18.0961H16.2471V19.0311H15.9997ZM17.352 19.0311H17.1046V18.5539C17.1046 18.453 17.0993 18.3878 17.0888 18.3585C17.0782 18.3285 17.0609 18.3053 17.0368 18.2889C17.0134 18.2725 16.9849 18.2643 16.9514 18.2643C16.9086 18.2643 16.8701 18.276 16.8361 18.2995C16.802 18.323 16.7786 18.3541 16.7657 18.3928C16.7533 18.4315 16.7472 18.5032 16.7472 18.6076V19.0311H16.4998V18.0961H16.7296V18.2334C16.8111 18.1278 16.9139 18.075 17.0377 18.075C17.0923 18.075 17.1422 18.0849 17.1874 18.1049C17.2326 18.1243 17.2666 18.1492 17.2895 18.1797C17.313 18.2103 17.3291 18.2449 17.3379 18.2836C17.3473 18.3224 17.352 18.3778 17.352 18.45V19.0311ZM18.1453 18.7335L18.3918 18.7749C18.3601 18.8653 18.31 18.9343 18.2413 18.9818C18.1732 19.0288 18.0878 19.0523 17.9851 19.0523C17.8225 19.0523 17.7022 18.9991 17.6241 18.8929C17.5625 18.8078 17.5316 18.7004 17.5316 18.5707C17.5316 18.4157 17.5721 18.2945 17.6531 18.207C17.7341 18.119 17.8366 18.075 17.9604 18.075C18.0995 18.075 18.2093 18.121 18.2897 18.2132C18.3701 18.3048 18.4086 18.4453 18.405 18.6349H17.7852C17.787 18.7083 17.8069 18.7655 17.8451 18.8066C17.8832 18.8471 17.9308 18.8674 17.9877 18.8674C18.0265 18.8674 18.059 18.8568 18.0854 18.8357C18.1119 18.8145 18.1318 18.7805 18.1453 18.7335ZM18.1594 18.4835C18.1576 18.4119 18.1392 18.3576 18.1039 18.3206C18.0687 18.283 18.0259 18.2643 17.9754 18.2643C17.9214 18.2643 17.8768 18.2839 17.8416 18.3232C17.8063 18.3626 17.789 18.416 17.7896 18.4835H18.1594ZM18.5204 18.7644L18.7687 18.7265C18.7792 18.7746 18.8007 18.8113 18.8329 18.8365C18.8652 18.8612 18.9104 18.8735 18.9685 18.8735C19.0325 18.8735 19.0806 18.8618 19.1129 18.8383C19.1346 18.8219 19.1455 18.7999 19.1455 18.7723C19.1455 18.7535 19.1396 18.7379 19.1279 18.7256C19.1156 18.7139 19.088 18.703 19.0451 18.693C18.8456 18.649 18.7191 18.6088 18.6657 18.5724C18.5917 18.5219 18.5547 18.4518 18.5547 18.362C18.5547 18.281 18.5867 18.2129 18.6507 18.1577C18.7147 18.1025 18.8139 18.075 18.9483 18.075C19.0762 18.075 19.1713 18.0958 19.2336 18.1375C19.2958 18.1791 19.3386 18.2408 19.3621 18.3224L19.1288 18.3655C19.1188 18.3291 19.0997 18.3012 19.0715 18.2819C19.044 18.2625 19.0043 18.2528 18.9527 18.2528C18.8875 18.2528 18.8409 18.2619 18.8127 18.2801C18.7939 18.293 18.7845 18.3097 18.7845 18.3303C18.7845 18.3479 18.7927 18.3629 18.8092 18.3752C18.8315 18.3916 18.9084 18.4148 19.0399 18.4447C19.1719 18.4747 19.2641 18.5114 19.3163 18.5548C19.368 18.5988 19.3938 18.6602 19.3938 18.7388C19.3938 18.8245 19.358 18.8982 19.2864 18.9598C19.2148 19.0214 19.1088 19.0523 18.9685 19.0523C18.8412 19.0523 18.7402 19.0264 18.6657 18.9748C18.5917 18.9231 18.5433 18.853 18.5204 18.7644ZM19.5241 18.7644L19.7724 18.7265C19.783 18.7746 19.8044 18.8113 19.8367 18.8365C19.8689 18.8612 19.9141 18.8735 19.9722 18.8735C20.0362 18.8735 20.0844 18.8618 20.1166 18.8383C20.1384 18.8219 20.1492 18.7999 20.1492 18.7723C20.1492 18.7535 20.1433 18.7379 20.1316 18.7256C20.1193 18.7139 20.0917 18.703 20.0488 18.693C19.8493 18.649 19.7228 18.6088 19.6694 18.5724C19.5954 18.5219 19.5584 18.4518 19.5584 18.362C19.5584 18.281 19.5904 18.2129 19.6544 18.1577C19.7184 18.1025 19.8176 18.075 19.952 18.075C20.08 18.075 20.175 18.0958 20.2373 18.1375C20.2995 18.1791 20.3423 18.2408 20.3658 18.3224L20.1325 18.3655C20.1225 18.3291 20.1034 18.3012 20.0753 18.2819C20.0477 18.2625 20.0081 18.2528 19.9564 18.2528C19.8912 18.2528 19.8446 18.2619 19.8164 18.2801C19.7976 18.293 19.7882 18.3097 19.7882 18.3303C19.7882 18.3479 19.7965 18.3629 19.8129 18.3752C19.8352 18.3916 19.9121 18.4148 20.0436 18.4447C20.1756 18.4747 20.2678 18.5114 20.32 18.5548C20.3717 18.5988 20.3975 18.6602 20.3975 18.7388C20.3975 18.8245 20.3617 18.8982 20.2901 18.9598C20.2185 19.0214 20.1125 19.0523 19.9722 19.0523C19.8449 19.0523 19.7439 19.0264 19.6694 18.9748C19.5954 18.9231 19.547 18.853 19.5241 18.7644ZM12.4744 20.3814L12.2498 20.3409C12.2751 20.2505 12.3185 20.1836 12.3801 20.1401C12.4418 20.0967 12.5333 20.075 12.6548 20.075C12.7652 20.075 12.8474 20.0882 12.9014 20.1146C12.9554 20.1404 12.9932 20.1736 13.0149 20.2141C13.0373 20.254 13.0484 20.3277 13.0484 20.4351L13.0458 20.7239C13.0458 20.806 13.0496 20.8668 13.0572 20.9061C13.0654 20.9448 13.0804 20.9865 13.1021 21.0311H12.8573C12.8509 21.0147 12.843 20.9903 12.8336 20.9581C12.8295 20.9434 12.8265 20.9337 12.8248 20.929C12.7825 20.9701 12.7373 21.0009 12.6892 21.0214C12.6411 21.042 12.5897 21.0523 12.5351 21.0523C12.4388 21.0523 12.3628 21.0261 12.3071 20.9739C12.2519 20.9217 12.2243 20.8556 12.2243 20.7758C12.2243 20.723 12.2369 20.676 12.2622 20.6349C12.2874 20.5933 12.3226 20.5616 12.3678 20.5398C12.4136 20.5175 12.4793 20.4982 12.565 20.4817C12.6807 20.46 12.7608 20.4398 12.8054 20.421V20.3963C12.8054 20.3488 12.7937 20.315 12.7702 20.2951C12.7467 20.2745 12.7024 20.2643 12.6372 20.2643C12.5932 20.2643 12.5589 20.2731 12.5342 20.2907C12.5096 20.3077 12.4896 20.3379 12.4744 20.3814ZM12.8054 20.5821C12.7737 20.5927 12.7235 20.6053 12.6548 20.62C12.5862 20.6346 12.5413 20.649 12.5201 20.6631C12.4879 20.686 12.4717 20.715 12.4717 20.7503C12.4717 20.7849 12.4846 20.8148 12.5105 20.8401C12.5363 20.8653 12.5691 20.8779 12.6091 20.8779C12.6537 20.8779 12.6962 20.8633 12.7367 20.8339C12.7667 20.8116 12.7863 20.7843 12.7957 20.752C12.8022 20.7309 12.8054 20.6907 12.8054 20.6314V20.5821ZM14.1437 21.0311H13.8963V20.5539C13.8963 20.453 13.891 20.3878 13.8804 20.3585C13.8699 20.3285 13.8525 20.3053 13.8285 20.2889C13.805 20.2725 13.7765 20.2643 13.7431 20.2643C13.7002 20.2643 13.6618 20.276 13.6277 20.2995C13.5937 20.323 13.5702 20.3541 13.5573 20.3928C13.545 20.4315 13.5388 20.5032 13.5388 20.6076V21.0311H13.2914V20.0961H13.5212V20.2334C13.6028 20.1278 13.7055 20.075 13.8294 20.075C13.884 20.075 13.9338 20.0849 13.979 20.1049C14.0242 20.1243 14.0583 20.1492 14.0812 20.1797C14.1046 20.2103 14.1208 20.2449 14.1296 20.2836C14.139 20.3224 14.1437 20.3778 14.1437 20.45V21.0311ZM15.253 21.0311H15.0233V20.8938C14.9851 20.9472 14.9399 20.9871 14.8877 21.0135C14.836 21.0393 14.7838 21.0523 14.7309 21.0523C14.6235 21.0523 14.5314 21.0091 14.4545 20.9228C14.3782 20.836 14.34 20.715 14.34 20.5601C14.34 20.4016 14.3773 20.2813 14.4518 20.1991C14.5264 20.1163 14.6206 20.075 14.7345 20.075C14.8389 20.075 14.9293 20.1184 15.0056 20.2053V19.7404H15.253V21.0311ZM14.5927 20.5434C14.5927 20.6431 14.6065 20.7153 14.6341 20.76C14.674 20.8245 14.7298 20.8568 14.8014 20.8568C14.8583 20.8568 14.9067 20.8327 14.9467 20.7846C14.9866 20.7359 15.0065 20.6634 15.0065 20.5671C15.0065 20.4597 14.9872 20.3825 14.9484 20.3356C14.9097 20.288 14.8601 20.2643 14.7996 20.2643C14.7409 20.2643 14.6916 20.2877 14.6517 20.3347C14.6124 20.3811 14.5927 20.4506 14.5927 20.5434Z" fill="#3E3A39"/>
<path d="M22.91 18.0961H23.0474V18.0257C23.0474 17.947 23.0556 17.8883 23.072 17.8496C23.0891 17.8108 23.1199 17.7794 23.1645 17.7554C23.2097 17.7307 23.2666 17.7184 23.3353 17.7184C23.4057 17.7184 23.4747 17.7289 23.5422 17.7501L23.5088 17.9226C23.4694 17.9133 23.4316 17.9086 23.3952 17.9086C23.3594 17.9086 23.3335 17.9171 23.3177 17.9341C23.3024 17.9505 23.2948 17.9825 23.2948 18.0301V18.0961H23.4797V18.2907H23.2948V19.0311H23.0474V18.2907H22.91V18.0961Z" fill="#3E3A39"/>
<path d="M23.3967 18.5504C23.3967 18.4682 23.4169 18.3887 23.4574 18.3118C23.4979 18.2349 23.5551 18.1762 23.6291 18.1357C23.7036 18.0952 23.7867 18.075 23.8783 18.075C24.0197 18.075 24.1356 18.121 24.226 18.2132C24.3164 18.3048 24.3616 18.4207 24.3616 18.561C24.3616 18.7024 24.3158 18.8198 24.2243 18.9131C24.1333 19.0059 24.0185 19.0523 23.88 19.0523C23.7943 19.0523 23.7124 19.0329 23.6344 18.9941C23.5569 18.9554 23.4979 18.8988 23.4574 18.8242C23.4169 18.7491 23.3967 18.6578 23.3967 18.5504ZM23.6502 18.5636C23.6502 18.6564 23.6722 18.7274 23.7163 18.7767C23.7603 18.826 23.8146 18.8506 23.8791 18.8506C23.9437 18.8506 23.9977 18.826 24.0411 18.7767C24.0852 18.7274 24.1072 18.6558 24.1072 18.5618C24.1072 18.4703 24.0852 18.3998 24.0411 18.3505C23.9977 18.3012 23.9437 18.2766 23.8791 18.2766C23.8146 18.2766 23.7603 18.3012 23.7163 18.3505C23.6722 18.3998 23.6502 18.4709 23.6502 18.5636ZM24.499 18.5504C24.499 18.4682 24.5192 18.3887 24.5597 18.3118C24.6002 18.2349 24.6575 18.1762 24.7314 18.1357C24.806 18.0952 24.889 18.075 24.9806 18.075C25.122 18.075 25.238 18.121 25.3284 18.2132C25.4188 18.3048 25.464 18.4207 25.464 18.561C25.464 18.7024 25.4182 18.8198 25.3266 18.9131C25.2356 19.0059 25.1209 19.0523 24.9823 19.0523C24.8966 19.0523 24.8148 19.0329 24.7367 18.9941C24.6592 18.9554 24.6002 18.8988 24.5597 18.8242C24.5192 18.7491 24.499 18.6578 24.499 18.5504ZM24.7525 18.5636C24.7525 18.6564 24.7746 18.7274 24.8186 18.7767C24.8626 18.826 24.9169 18.8506 24.9815 18.8506C25.046 18.8506 25.1 18.826 25.1435 18.7767C25.1875 18.7274 25.2095 18.6558 25.2095 18.5618C25.2095 18.4703 25.1875 18.3998 25.1435 18.3505C25.1 18.3012 25.046 18.2766 24.9815 18.2766C24.9169 18.2766 24.8626 18.3012 24.8186 18.3505C24.7746 18.3998 24.7525 18.4709 24.7525 18.5636ZM26.5161 19.0311H26.2863V18.8938C26.2481 18.9472 26.2029 18.9871 26.1507 19.0135C26.099 19.0393 26.0468 19.0523 25.994 19.0523C25.8866 19.0523 25.7944 19.0091 25.7175 18.9228C25.6412 18.836 25.6031 18.715 25.6031 18.5601C25.6031 18.4016 25.6403 18.2813 25.7149 18.1991C25.7894 18.1163 25.8836 18.075 25.9975 18.075C26.102 18.075 26.1924 18.1184 26.2687 18.2053V17.7404H26.5161V19.0311ZM25.8558 18.5434C25.8558 18.6431 25.8695 18.7153 25.8971 18.76C25.937 18.8245 25.9928 18.8568 26.0644 18.8568C26.1214 18.8568 26.1698 18.8327 26.2097 18.7846C26.2496 18.7359 26.2696 18.6634 26.2696 18.5671C26.2696 18.4597 26.2502 18.3825 26.2115 18.3356C26.1727 18.288 26.1231 18.2643 26.0627 18.2643C26.004 18.2643 25.9547 18.2877 25.9147 18.3347C25.8754 18.3811 25.8558 18.4506 25.8558 18.5434Z" fill="#3E3A39"/>
</g>
<defs>
<clipPath id="clip0_2707_277558">
<rect width="32" height="32" fill="white"/>
</clipPath>
</defs>
</svg>
