<svg width="32" height="32" viewBox="0 0 32 32" fill="none" xmlns="http://www.w3.org/2000/svg">
<g clip-path="url(#clip0_2707_258793)">
<path d="M16 32C24.8366 32 32 24.8366 32 16C32 7.16344 24.8366 0 16 0C7.16344 0 0 7.16344 0 16C0 24.8366 7.16344 32 16 32Z" fill="white"/>
<path d="M16.0003 29.3333C23.3641 29.3333 29.3337 23.3638 29.3337 16C29.3337 8.6362 23.3641 2.66667 16.0003 2.66667C8.63653 2.66667 2.66699 8.6362 2.66699 16C2.66699 23.3638 8.63653 29.3333 16.0003 29.3333Z" fill="white"/>
<path d="M28.6046 15.9111H27.0224C26.8713 15.0667 26.2313 15.0222 25.4846 15.0222C24.0091 15.0222 22.5246 15.0222 21.0402 15.0222C20.1068 15.0222 19.8046 15.3244 19.7957 16.24C19.7868 17.1556 19.7957 18.3111 19.7957 19.3511C19.7957 20.1333 20.1335 20.4533 20.9335 20.4622C22.5068 20.4622 24.0802 20.4622 25.6624 20.4622C26.6846 20.4622 27.0046 20.1333 26.9957 19.1111C26.9957 18.9689 26.9957 18.8267 26.9513 18.6222H21.7068V16.8889H28.5868C28.6493 17.9724 28.6493 19.0587 28.5868 20.1422C28.4823 20.6951 28.1861 21.1935 27.7504 21.5495C27.3146 21.9056 26.7673 22.0966 26.2046 22.0889C24.3468 22.1333 22.4891 22.1422 20.6313 22.0889C20.2998 22.0889 19.9717 22.0232 19.6658 21.8956C19.3599 21.7679 19.0824 21.5809 18.8493 21.3453C18.6162 21.1097 18.4321 20.8302 18.3077 20.523C18.1833 20.2158 18.1211 19.887 18.1246 19.5556C18.1246 18.3704 18.1246 17.1852 18.1246 16C18.1064 15.654 18.1593 15.308 18.2801 14.9832C18.4009 14.6585 18.587 14.362 18.8269 14.1121C19.0669 13.8621 19.3555 13.6641 19.675 13.5301C19.9946 13.3962 20.3382 13.3292 20.6846 13.3333C22.4979 13.28 24.3083 13.28 26.1157 13.3333C26.4505 13.3319 26.7822 13.3982 27.0907 13.5284C27.3992 13.6586 27.6781 13.8498 27.9107 14.0907C28.1432 14.3316 28.3246 14.6171 28.4439 14.9299C28.5631 15.2428 28.6178 15.5765 28.6046 15.9111Z" fill="black"/>
<path d="M13.8936 15.9111H12.3291C12.1691 15.0222 11.4936 15.0222 10.7291 15.0222C9.29802 15.0222 7.85802 15.0222 6.41802 15.0222C6.16258 15.0147 5.90756 15.0477 5.66246 15.12C5.48013 15.1844 5.32377 15.3065 5.21709 15.4677C5.1104 15.629 5.05921 15.8206 5.07127 16.0136C5.08333 16.2066 5.15799 16.3904 5.28392 16.5371C5.40986 16.6838 5.5802 16.7855 5.76913 16.8267C5.99941 16.8784 6.23555 16.8993 6.47135 16.8889H11.1291C11.8168 16.8429 12.4964 17.0589 13.0313 17.4933C13.4271 17.8166 13.7166 18.2513 13.8624 18.741C14.0082 19.2307 14.0036 19.7529 13.8491 20.24C13.735 20.7273 13.473 21.1673 13.0991 21.4999C12.7251 21.8325 12.2575 22.0413 11.7602 22.0978C11.5988 22.1262 11.4353 22.1411 11.2713 22.1422H6.11579C5.53753 22.1584 4.97063 21.9796 4.50629 21.6346C4.04196 21.2895 3.70717 20.7983 3.55579 20.24C3.49434 20.0144 3.44391 19.786 3.40468 19.5556H5.04913C5.20024 20.3022 5.73357 20.4978 6.45357 20.4889C7.95579 20.4889 9.4669 20.4889 10.9691 20.4889C11.1809 20.4985 11.3931 20.4805 11.6002 20.4356C11.7945 20.3803 11.9659 20.2641 12.0892 20.1041C12.2124 19.944 12.2809 19.7486 12.2847 19.5467C12.2871 19.3323 12.212 19.1243 12.0731 18.9609C11.9343 18.7976 11.7411 18.6899 11.5291 18.6578C11.297 18.6209 11.0619 18.606 10.8269 18.6133C9.31579 18.6133 7.80468 18.6133 6.30246 18.6133C5.78889 18.6105 5.28109 18.5047 4.80913 18.3022C4.29929 18.0482 3.88872 17.6315 3.64239 17.1179C3.39606 16.6043 3.32805 16.0232 3.44913 15.4667C3.5389 14.9379 3.78922 14.4495 4.1661 14.0678C4.54298 13.6862 5.02816 13.4298 5.55579 13.3333C5.77759 13.3138 6.00067 13.3138 6.22246 13.3333C7.89357 13.3333 9.56468 13.3333 11.2358 13.3333C11.6851 13.3149 12.1318 13.4103 12.5343 13.6108C12.9368 13.8112 13.2821 14.1103 13.538 14.48C13.6896 14.6829 13.7991 14.914 13.8601 15.1597C13.9212 15.4054 13.9325 15.6609 13.8936 15.9111Z" fill="black"/>
<path d="M15.2178 13.3333H16.8356V22.0978H15.2178V13.3333Z" fill="black"/>
<path d="M12.1865 11.5556L15.9999 7.76889L19.8487 11.5022H17.7776L16.0887 9.84889L14.3465 11.5556H12.1865Z" fill="#FF0000"/>
</g>
<defs>
<clipPath id="clip0_2707_258793">
<rect width="32" height="32" fill="white"/>
</clipPath>
</defs>
</svg>
