<svg width="32" height="32" viewBox="0 0 32 32" fill="none" xmlns="http://www.w3.org/2000/svg">
<g clip-path="url(#clip0_2707_277008)">
<path d="M16 32C24.8366 32 32 24.8366 32 16C32 7.16344 24.8366 0 16 0C7.16344 0 0 7.16344 0 16C0 24.8366 7.16344 32 16 32Z" fill="white"/>
<path d="M16 29.3333C23.3638 29.3333 29.3333 23.3638 29.3333 16C29.3333 8.63619 23.3638 2.66666 16 2.66666C8.63616 2.66666 2.66663 8.63619 2.66663 16C2.66663 23.3638 8.63616 29.3333 16 29.3333Z" fill="white"/>
<path d="M16.0141 2.67127L2.69531 15.99L16.0141 29.3088L29.3328 15.99L16.0141 2.67127Z" fill="#FF0000"/>
<path d="M22.7733 9.22668C21.2093 7.66199 19.1511 6.6879 16.9495 6.47033C14.7479 6.25276 12.5389 6.80516 10.6988 8.03346C8.85872 9.26175 7.50136 11.09 6.85791 13.2067C6.21447 15.3234 6.32473 17.5978 7.16993 19.6423C8.01512 21.6869 9.54296 23.3752 11.4932 24.4197C13.4435 25.4643 15.6956 25.8004 17.8658 25.3709C20.0361 24.9413 21.9904 23.7727 23.3957 22.0641C24.8011 20.3554 25.5707 18.2124 25.5733 16C25.5744 14.7424 25.3276 13.497 24.8472 12.3348C24.3668 11.1726 23.6621 10.1164 22.7733 9.22668ZM10.1778 10.1156C11.728 8.56586 13.8303 7.69529 16.0222 7.69529C18.2142 7.69529 20.3165 8.56586 21.8667 10.1156C22.6249 10.8821 23.2285 11.7875 23.6445 12.7822C22.2736 11.6931 20.8368 10.6897 19.3422 9.77779C17.4489 8.69335 16.1778 9.95557 14.7378 13.4311C13.2978 16.9067 13.2445 18.2667 11.6622 18.4978C10.08 18.7289 8.00001 16.32 7.76001 16C7.75538 14.9149 7.96677 13.8396 8.38187 12.837C8.79697 11.8343 9.40746 10.9243 10.1778 10.16V10.1156ZM21.8489 21.8222C20.7935 22.88 19.4706 23.6312 18.0215 23.9956C16.5724 24.36 15.0515 24.324 13.6213 23.8914C12.1911 23.4588 10.9052 22.6458 9.9011 21.5393C8.89695 20.4328 8.21221 19.0743 7.92001 17.6089C9.30668 19.3867 12.2222 22.6845 14.5422 22.4889C16.1333 22.3467 17.2711 21.04 18.0356 17.4222C18.8 13.8045 20.7467 12.6845 22.64 13.7689C23.2174 14.0867 23.7445 14.488 24.2045 14.96C24.248 15.3049 24.2688 15.6524 24.2667 16C24.2699 17.0823 24.0578 18.1545 23.6428 19.154C23.2277 20.1536 22.6179 21.0606 21.8489 21.8222Z" fill="white"/>
</g>
<defs>
<clipPath id="clip0_2707_277008">
<rect width="32" height="32" fill="white"/>
</clipPath>
</defs>
</svg>
