<svg width="32" height="32" viewBox="0 0 32 32" fill="none" xmlns="http://www.w3.org/2000/svg">
<g clip-path="url(#clip0_2707_276568)">
<path d="M16 31.9822C24.8268 31.9822 31.9823 24.8267 31.9823 16C31.9823 7.17326 24.8268 0.0177765 16 0.0177765C7.17331 0.0177765 0.0178223 7.17326 0.0178223 16C0.0178223 24.8267 7.17331 31.9822 16 31.9822Z" fill="white"/>
<path d="M11.9378 19.7867C11.5645 20.1867 11.2267 20.5956 10.8267 20.9511C10.4481 21.2636 9.96579 21.4223 9.4756 21.3956H3.82227C3.84543 21.2804 3.87813 21.1675 3.92004 21.0578L5.04893 18.9333C5.09483 18.8048 5.18113 18.6947 5.29491 18.6193C5.40869 18.544 5.54382 18.5076 5.68004 18.5156C6.68449 18.5156 7.68893 18.5156 8.69338 18.5156C8.89459 18.5474 9.10063 18.5091 9.27701 18.4072C9.45338 18.3052 9.58939 18.1458 9.66227 17.9556C10.7112 15.9378 11.7956 13.9467 12.8712 11.9467C13.0998 11.4493 13.5008 11.0514 14 10.8267C14.2527 10.7137 14.5238 10.6475 14.8 10.6311C15.7956 10.6311 16.7823 10.6311 17.7689 10.6311C18.2005 10.6055 18.6299 10.7105 19.0009 10.9325C19.3719 11.1545 19.6675 11.4831 19.8489 11.8756C19.9112 11.9822 19.9734 12.0978 20.08 12.2667L20.4356 11.7511C20.6525 11.3915 20.961 11.0958 21.3296 10.8944C21.6981 10.6929 22.1135 10.5929 22.5334 10.6044C24.3823 10.6044 26.2312 10.6044 28.1778 10.6044C27.9645 11.0222 27.7867 11.4044 27.6 11.7689C27.4134 12.1333 27.1112 12.6578 26.8712 13.0845C26.8241 13.1955 26.7424 13.2883 26.6383 13.3491C26.5342 13.41 26.4132 13.4356 26.2934 13.4222H23.1112C22.9471 13.4042 22.7818 13.4417 22.6416 13.5288C22.5015 13.6158 22.3945 13.7473 22.3378 13.9022C21.5289 15.4844 20.6845 17.0489 19.84 18.6222C19.5645 19.1378 19.2889 19.6444 19.0045 20.1333C18.8096 20.508 18.5123 20.8197 18.1473 21.0322C17.7822 21.2446 17.3643 21.349 16.9423 21.3333C16.0534 21.3333 15.1645 21.3333 14.2756 21.3333C13.7871 21.3717 13.2991 21.2526 12.8832 20.9935C12.4673 20.7343 12.1453 20.3488 11.9645 19.8933C11.9434 19.8411 11.9133 19.7929 11.8756 19.7511C11.8756 19.7511 11.9023 19.76 11.9378 19.7867ZM15.0134 18.48C15.525 18.5864 16.0512 18.6045 16.5689 18.5333C16.6667 18.5333 16.7823 18.3911 16.8445 18.2844C17.6889 16.7556 18.5245 15.2089 19.3867 13.68C19.5145 13.4264 19.5759 13.1446 19.5652 12.8608C19.5545 12.5771 19.472 12.3007 19.3256 12.0574C19.1791 11.8142 18.9733 11.612 18.7275 11.4699C18.4818 11.3277 18.2039 11.2501 17.92 11.2444C17.0312 11.2444 16.1423 11.2444 15.2534 11.2444C14.8977 11.2151 14.5417 11.2968 14.2344 11.4783C13.9272 11.6598 13.6838 11.9321 13.5378 12.2578C12.4 14.3467 11.28 16.4267 10.1334 18.48C10.0419 18.6857 9.89 18.8587 9.69793 18.9762C9.50585 19.0937 9.28263 19.15 9.05782 19.1378C8.07115 19.1378 7.0756 19.1378 6.08893 19.1378C6.01038 19.1289 5.93083 19.1369 5.85567 19.1615C5.78052 19.186 5.71153 19.2264 5.65338 19.28C5.36893 19.7245 5.13782 20.1689 4.8356 20.72C6.48893 20.72 8.01782 20.72 9.54671 20.72C9.88667 20.7058 10.2167 20.6011 10.5026 20.4167C10.7886 20.2323 11.0202 19.9749 11.1734 19.6711C11.6445 18.8889 12.0623 18.08 12.4978 17.28L14.6756 13.2533C14.7559 13.087 14.8825 12.9474 15.0401 12.8513C15.1978 12.7551 15.3799 12.7064 15.5645 12.7111H16.6934C16.8523 12.6869 17.0149 12.7111 17.1599 12.7806C17.3049 12.8502 17.4256 12.9618 17.5062 13.101C17.5868 13.2401 17.6236 13.4003 17.6118 13.5607C17.6 13.7211 17.5402 13.8742 17.44 14L15.7156 17.1556C15.4845 17.5644 15.2712 17.9911 15.0134 18.48ZM27.1467 11.2533H26.5156C25.2534 11.2533 23.9734 11.2533 22.7023 11.2533C22.3941 11.2473 22.0885 11.3095 21.8073 11.4356C21.526 11.5616 21.2762 11.7483 21.0756 11.9822C20.8646 12.2149 20.6907 12.4788 20.56 12.7644C19.4756 14.7289 18.4089 16.6844 17.3423 18.6578C17.2525 18.8421 17.1119 18.9969 16.9371 19.104C16.7623 19.2111 16.5606 19.266 16.3556 19.2622H15.2356C15.0789 19.2829 14.9197 19.2562 14.7784 19.1855C14.637 19.1148 14.5201 19.0035 14.4427 18.8658C14.3652 18.728 14.3307 18.5703 14.3437 18.4128C14.3567 18.2553 14.4166 18.1054 14.5156 17.9822C15.0845 16.9333 15.6712 15.8933 16.24 14.8445C16.48 14.4178 16.6934 13.9556 16.9778 13.4044C16.4445 13.4044 16.0356 13.4044 15.6356 13.4044C15.5256 13.3959 15.4158 13.4222 15.3216 13.4796C15.2275 13.5371 15.1538 13.6227 15.1112 13.7244C14.8267 14.2667 14.5156 14.8 14.2223 15.3333C13.6889 16.3111 13.1645 17.2978 12.6223 18.2756C12.483 18.5327 12.4133 18.8217 12.42 19.114C12.4266 19.4063 12.5095 19.6918 12.6603 19.9423C12.8111 20.1927 13.0247 20.3995 13.2799 20.5422C13.5352 20.6848 13.8232 20.7584 14.1156 20.7556C14.9743 20.7111 15.8347 20.7111 16.6934 20.7556C17.0661 20.7847 17.4385 20.6956 17.7577 20.5009C18.0768 20.3062 18.3265 20.0158 18.4712 19.6711C18.8534 18.9244 19.2712 18.1867 19.6712 17.4489C20.3734 16.1778 21.0934 14.9156 21.7689 13.6356C21.8667 13.3852 22.0419 13.1726 22.2689 13.0287C22.496 12.8848 22.763 12.8171 23.0312 12.8356C24.0978 12.8356 25.1556 12.8356 26.2578 12.8356C26.5512 12.3378 26.8178 11.8489 27.1467 11.2533Z" fill="#C94D46"/>
</g>
<defs>
<clipPath id="clip0_2707_276568">
<rect width="32" height="32" fill="white"/>
</clipPath>
</defs>
</svg>
