<svg width="35" height="32" viewBox="0 0 35 32" fill="none" xmlns="http://www.w3.org/2000/svg">
<g clip-path="url(#clip0_2707_276373)">
<path d="M16 31.9823C24.8268 31.9823 31.9823 24.8268 31.9823 16C31.9823 7.17331 24.8268 0.0178223 16 0.0178223C7.17331 0.0178223 0.0178223 7.17331 0.0178223 16C0.0178223 24.8268 7.17331 31.9823 16 31.9823Z" fill="white"/>
<path fill-rule="evenodd" clip-rule="evenodd" d="M22.5156 14.88C22.52 14.9095 22.52 14.9394 22.5156 14.9689H9.49336C9.49336 14.9689 9.49336 14.9067 9.49336 14.88H22.5156ZM22.5156 14.6844C22.5156 14.6844 22.5156 14.7644 22.5156 14.8H9.47558C9.47118 14.7616 9.47118 14.7228 9.47558 14.6844H22.5156ZM22.5156 14.4978C22.52 14.5332 22.52 14.569 22.5156 14.6044H9.4578C9.45343 14.569 9.45343 14.5332 9.4578 14.4978H22.5156ZM22.5156 14.3022V14.4178H9.44003V14.3022H22.5156ZM22.5156 14.1067V14.2222H9.44003C9.43562 14.1838 9.43562 14.1451 9.44003 14.1067H22.5156ZM22.5156 13.9111V14.0267H9.43114C9.42709 13.9883 9.42709 13.9495 9.43114 13.9111H22.5156ZM22.5156 13.7244V13.84H9.44003V13.7244H22.5156ZM22.5156 13.5289C22.52 13.5673 22.52 13.6061 22.5156 13.6444H9.44892C9.44892 13.6444 9.44892 13.5644 9.44892 13.5289H22.5156ZM22.5156 13.3333C22.5156 13.3778 22.5156 13.4133 22.5156 13.4489H9.46669C9.46669 13.4489 9.46669 13.3778 9.46669 13.3333H22.5156ZM22.5156 13.1467C22.5205 13.185 22.5205 13.2239 22.5156 13.2622H9.48447C9.48447 13.2178 9.48447 13.1822 9.48447 13.1467H22.5156ZM22.5156 12.9511C22.5156 12.9511 22.5156 13.0311 22.5156 13.0667H9.51114C9.51114 13.0667 9.51114 12.9867 9.51114 12.9511H22.5156ZM22.5156 12.7556C22.5192 12.794 22.5192 12.8327 22.5156 12.8711H9.54669C9.54669 12.8711 9.54669 12.8 9.54669 12.7556H22.5156ZM22.5156 12.5689V12.6756H9.58225V12.5689H22.5156ZM22.4711 12.3733V12.4889H9.62669V12.3733H22.4711ZM22.4178 12.1778V12.2933H9.68003C9.67733 12.2549 9.67733 12.2163 9.68003 12.1778H22.4178ZM22.2222 11.9911C22.2184 12.0266 22.2184 12.0623 22.2222 12.0978H9.7778L9.82225 11.9911H22.2222ZM22.1511 11.7956C22.1511 11.7956 22.1511 11.8756 22.1956 11.9111H9.7778V11.7956H22.1511ZM22.08 11.6C22.075 11.6384 22.075 11.6772 22.08 11.7156H9.87558C9.88799 11.6762 9.90283 11.6376 9.92003 11.6H22.08ZM21.9911 11.4133L22.0445 11.52H9.94669L10 11.4133H21.9911ZM21.9022 11.2178L21.9556 11.3333H10.0356L10.0889 11.2178H21.9022ZM21.8045 11.0222L21.8667 11.1378H10.1245C10.1245 11.1378 10.1245 11.0667 10.1867 11.0222H21.8045ZM21.6978 10.8356L21.7689 10.9422H10.2134C10.2308 10.9048 10.2516 10.8691 10.2756 10.8356H21.6978ZM21.6 10.6667C21.6 10.6667 21.6445 10.7378 21.6623 10.7822H10.3378C10.3562 10.7407 10.3801 10.7018 10.4089 10.6667H21.6ZM21.4756 10.4711L21.5467 10.5867H10.4534C10.4821 10.5515 10.5061 10.5126 10.5245 10.4711H21.4756ZM21.3334 10.2578L21.4134 10.3644H10.5867C10.6073 10.3269 10.6311 10.2912 10.6578 10.2578H21.3334ZM21.1911 10.0622L21.2711 10.1778H10.72C10.7446 10.1356 10.7745 10.0968 10.8089 10.0622H21.1911ZM21.0311 9.86667L21.1289 9.98222H10.8711C10.9029 9.94539 10.9326 9.90681 10.96 9.86667H21.0311ZM20.8622 9.68L20.9689 9.78667H11.0311L11.1289 9.68H20.8622ZM20.6845 9.48445L20.7911 9.6H11.2L11.3067 9.48445H20.6845ZM20.4889 9.28889L20.6045 9.40445H11.3867L11.5022 9.28889H20.4889ZM20.2756 9.10223L20.4 9.20889H11.5556L11.68 9.10223H20.2756ZM20.0445 8.88889L20.1867 9.00445H11.8134L11.9556 8.88889H20.0445ZM19.7867 8.69334L19.9467 8.80889H12.0622L12.2134 8.69334H19.7867ZM19.5022 8.50667L19.6711 8.61334H12.3289L12.4978 8.50667H19.5022ZM19.1734 8.31111L19.3689 8.42667H12.6311L12.8267 8.31111H19.1734ZM18.8 8.11556L19.0311 8.23111H12.9778L13.2 8.11556H18.8ZM18.3467 7.92889L18.6223 8.03556H13.3778L13.6534 7.92889H18.3467ZM17.7778 7.75111L18.1422 7.86667H13.8756L14.2222 7.75111H17.7778ZM14.56 7.67111C15.5142 7.45777 16.5037 7.45777 17.4578 7.67111H14.56Z" fill="url(#paint0_linear_2707_276373)"/>
<path fill-rule="evenodd" clip-rule="evenodd" d="M19.7512 14.88V14.9689H12.2756V14.88H19.7512ZM19.8045 14.6845V14.8H12.2312V14.6845H19.8045ZM19.8045 14.4978V14.6045H12.1867C12.1824 14.5691 12.1824 14.5332 12.1867 14.4978H19.8045ZM19.8045 14.3023C19.8045 14.3023 19.8045 14.3734 19.8045 14.4178H12.1512C12.1512 14.4178 12.1512 14.3378 12.1512 14.3023H19.8045ZM19.8045 14.1067C19.8089 14.1451 19.8089 14.1839 19.8045 14.2223H12.0712C12.0668 14.1839 12.0668 14.1451 12.0712 14.1067H19.8045ZM19.8045 13.9111V14.0267H12.1156V13.9111H19.8045ZM19.8045 13.7245V13.84H12.1156V13.7245H19.8045ZM19.8045 13.5289C19.8001 13.5673 19.8001 13.6061 19.8045 13.6445H12.1245C12.1201 13.6061 12.1201 13.5673 12.1245 13.5289H19.8045ZM19.8045 13.3334C19.8045 13.3778 19.8045 13.4134 19.8045 13.4489H12.1423C12.1382 13.4105 12.1382 13.3718 12.1423 13.3334H19.8045ZM19.8045 13.1467C19.8009 13.1851 19.8009 13.2238 19.8045 13.2623H12.1601V13.1467H19.8045ZM19.7601 12.9511V13.0667H12.1956V12.9511H19.7601ZM19.7067 12.7556C19.7067 12.8 19.7067 12.8356 19.7067 12.8711H12.249V12.7556H19.7067ZM19.6445 12.5689C19.6483 12.6044 19.6483 12.6401 19.6445 12.6756H12.3023V12.5689H19.6445ZM19.5556 12.3734C19.5665 12.4133 19.5814 12.452 19.6001 12.4889H12.3645L12.4178 12.3734H19.5556ZM19.4667 12.1778L19.5201 12.2934H12.4445L12.4978 12.1778H19.4667ZM19.369 11.9911L19.4223 12.0978H12.5423C12.5597 12.0604 12.5805 12.0247 12.6045 11.9911H19.369ZM19.2534 11.7956L19.3245 11.9111H12.649C12.649 11.8667 12.649 11.8311 12.7112 11.7956H19.2534ZM19.1201 11.6L19.2001 11.7156H12.7645L12.8445 11.6H19.1201ZM18.9778 11.4134L19.0667 11.52H12.8445L12.9334 11.4134H18.9778ZM18.809 11.2178L18.9067 11.3334H13.0578L13.1645 11.2178H18.809ZM18.6667 11.0223L18.7823 11.1378H13.2356L13.3334 11.0223H18.6667ZM18.4445 10.8356L18.5778 10.9423H13.4401L13.5734 10.8356H18.4445ZM18.1778 10.64L18.3378 10.7556H13.6801L13.8401 10.64H18.1778ZM17.8578 10.4445L18.0534 10.56H13.9645L14.1601 10.4445H17.8578ZM17.449 10.2578L17.7067 10.3645H14.3112L14.569 10.2578H17.449ZM16.8001 10.0623C16.9444 10.0925 17.0869 10.131 17.2267 10.1778H14.7912C14.931 10.131 15.0735 10.0925 15.2178 10.0623H16.8001Z" fill="url(#paint1_linear_2707_276373)"/>
<path fill-rule="evenodd" clip-rule="evenodd" d="M21.1467 18.1512L21.0134 18.3112H10.9867L10.8534 18.1512H21.1467ZM21.5289 17.6178L21.3156 17.9378H10.6667L10.4534 17.6178H21.5289ZM21.8934 16.9778L21.7334 17.2801H10.2667L10.1067 16.9778H21.8934ZM22.08 16.5601C22.08 16.6223 22.0356 16.6756 22.0089 16.7289H9.99115C9.99115 16.6756 9.94671 16.6223 9.92004 16.5601H22.08ZM22.2223 16.1867C22.2223 16.2489 22.1778 16.3201 22.1512 16.3823H9.84893C9.82907 16.3158 9.80532 16.2505 9.77782 16.1867H22.2223ZM22.32 15.8489C22.3034 15.9212 22.2826 15.9924 22.2578 16.0623H9.77782C9.753 15.9924 9.73222 15.9212 9.7156 15.8489H22.32ZM22.3912 15.5823C22.3912 15.6356 22.3912 15.6978 22.3912 15.7512H9.65337C9.64935 15.6949 9.64935 15.6385 9.65337 15.5823H22.3912ZM22.4534 15.3067C22.4534 15.3601 22.4534 15.4223 22.4534 15.4756H9.58226C9.58642 15.4194 9.58642 15.3629 9.58226 15.3067H22.4534ZM22.4534 15.049V15.2001H9.52893V15.049H22.4534Z" fill="#069E4D"/>
<path fill-rule="evenodd" clip-rule="evenodd" d="M12.4445 18.3023V16.8356C12.4589 16.7932 12.4615 16.7476 12.4521 16.7038C12.4427 16.66 12.4217 16.6196 12.3912 16.5867C12.2756 16.4978 12.1512 16.3467 12.0712 16.4534C11.9912 16.56 11.849 16.5067 11.7779 16.6578C11.7067 16.8089 11.7245 16.9334 11.5379 16.9334C11.4252 16.9329 11.3147 16.9022 11.2179 16.8445C11.2179 16.8445 11.1645 16.7645 11.2179 16.7645C11.2712 16.7645 11.3423 16.7645 11.369 16.7112C11.3956 16.6578 11.4579 16.5156 11.4134 16.4978C11.369 16.48 11.3334 16.4089 11.2356 16.4978C11.1412 16.5536 11.0666 16.6375 11.0223 16.7378C11.0223 16.7823 11.1556 16.8445 11.0223 16.8534C10.889 16.8623 10.6401 16.8534 10.6401 16.8534C10.6401 16.8534 10.4979 16.6045 10.6401 16.5689C10.7823 16.5334 10.7379 16.5689 10.8534 16.5689C10.969 16.5689 11.0312 16.4978 11.0401 16.4445C11.049 16.3912 11.0401 16.2578 11.1645 16.2489C11.289 16.24 11.2801 16.1778 11.2534 16.08C11.2267 15.9823 11.1201 15.9734 11.0223 15.92C10.9245 15.8667 10.8623 15.7512 10.889 15.6978C10.9156 15.6445 11.0845 15.5734 11.0845 15.5734C11.0744 15.5538 11.0688 15.5323 11.0679 15.5103C11.067 15.4883 11.0709 15.4664 11.0794 15.446C11.0878 15.4257 11.1006 15.4075 11.1169 15.3926C11.1331 15.3778 11.1524 15.3667 11.1734 15.36C11.3334 15.28 11.4312 15.2 11.4934 15.36C11.5556 15.52 11.4934 15.4756 11.5645 15.5645C11.6356 15.6534 11.7779 15.5645 11.7779 15.5645C11.7779 15.5645 11.9734 15.6267 11.9912 15.5645C12.009 15.5023 12.1067 15.4756 11.9912 15.4134C11.9054 15.3813 11.8222 15.3427 11.7423 15.2978L11.6267 15.0756V14.7645L11.5645 14.6756C11.5645 14.6756 11.4134 14.6756 11.4223 14.5956C11.4312 14.5156 11.4756 14.4267 11.3601 14.4356C11.2195 14.4419 11.0824 14.4815 10.9601 14.5512C10.8712 14.6223 10.8979 14.6845 10.7556 14.6845C10.6134 14.6845 10.4534 14.7378 10.4801 14.64C10.5067 14.5423 10.3467 14.4534 10.6401 14.4445C10.7938 14.4508 10.9438 14.3966 11.0579 14.2934C11.0604 14.2751 11.0677 14.2578 11.0789 14.2431C11.0902 14.2285 11.1051 14.217 11.1221 14.2099C11.1391 14.2027 11.1577 14.2001 11.1761 14.2022C11.1944 14.2044 11.2119 14.2113 11.2267 14.2223L11.4401 14.3556C11.4401 14.3556 11.5023 14.48 11.5912 14.4978C11.7036 14.5066 11.8166 14.5066 11.929 14.4978C12.009 14.4978 12.169 14.4978 12.169 14.4178C12.169 14.3378 12.009 14.2045 12.009 14.2045C12.009 14.2045 11.7512 14.2045 11.7423 14.0623C11.7334 13.92 11.5912 13.8489 11.6179 13.7067C11.6445 13.5645 11.6179 13.4223 11.7779 13.4756C11.9379 13.5289 12.0534 13.4756 12.009 13.6356C11.9645 13.7956 11.9023 13.8312 12.009 13.8312C12.1156 13.8312 12.0623 13.9289 12.1423 13.8312C12.1839 13.7557 12.2086 13.6721 12.2147 13.5862C12.2209 13.5002 12.2083 13.414 12.1779 13.3334C12.1779 13.2534 12.1067 13.2089 12.2579 13.2089C12.4532 13.1952 12.6492 13.1952 12.8445 13.2089H13.529C13.5823 13.2089 13.6712 13.3778 13.529 13.4312C13.3813 13.4761 13.2294 13.5059 13.0756 13.52C13.0165 13.526 12.957 13.526 12.8979 13.52C12.8908 13.6147 12.8908 13.7098 12.8979 13.8045C12.8979 13.8667 12.8534 13.9378 12.9779 13.9378C13.1023 13.9378 13.209 13.8667 13.2356 14.0089C13.2623 14.1512 13.2356 14.1245 13.2356 14.1956C13.2544 14.2463 13.2886 14.2898 13.3334 14.32H13.6623C13.7245 14.32 13.8934 14.2223 13.9201 14.32C13.9381 14.4409 13.9381 14.5637 13.9201 14.6845C13.9201 14.7734 14.0001 14.8089 13.8401 14.8267C13.6801 14.8445 13.7423 14.8267 13.6179 14.88C13.4934 14.9334 13.7334 14.9956 13.5556 15.0578C13.3779 15.12 13.4045 15.1112 13.3334 15.1112C13.2623 15.1112 13.2534 15.28 13.2801 15.3512C13.3067 15.4223 13.5201 15.44 13.5201 15.44H14.5512C14.6312 15.44 14.9156 15.44 15.0756 15.44C15.2356 15.44 15.3512 15.44 15.0756 15.2178C14.8001 14.9956 15.0756 14.8889 14.8268 14.8356C14.5779 14.7823 14.4356 14.56 14.5067 14.5245C14.5718 14.4734 14.6262 14.4099 14.6667 14.3378C14.5621 14.2579 14.482 14.15 14.4356 14.0267C14.4356 13.8667 14.1334 13.6889 14.1334 13.6889C14.1334 13.6889 13.9112 13.4756 14.009 13.3778C14.1067 13.28 14.2223 13.3334 14.409 13.3334C14.5956 13.3334 14.5601 13.2445 14.7023 13.4312C14.8445 13.6178 14.7556 13.6267 14.9068 13.7156C15.0579 13.8045 15.1645 14.0178 15.2801 14.0178C15.3956 14.0178 15.5023 14.1778 15.5734 13.9556C15.6445 13.7334 15.7779 13.84 15.5734 13.6089C15.369 13.3778 15.2445 13.4845 15.3779 13.2712C15.5112 13.0578 15.5201 12.8889 15.7512 13.0045C15.9823 13.12 15.849 13.0845 15.9734 13.1823C16.0979 13.28 16.1779 13.4045 16.1334 13.0045C16.089 12.6045 16.1334 12.8 16.1334 12.6134C16.1334 12.4267 15.8845 12.0889 16.2667 12.1867C16.649 12.2845 16.6756 12.0889 16.6756 12.32C16.6756 12.5512 16.5779 12.5334 16.729 12.5956C16.8801 12.6578 16.9956 12.5334 17.0134 12.6756C17.0312 12.8178 17.209 12.7823 17.0134 12.9067C16.8179 13.0312 16.649 13.0045 16.6845 13.1112C16.7201 13.2178 16.6312 13.3067 16.8001 13.36C16.969 13.4134 16.9601 13.36 17.0312 13.4489C17.0954 13.5279 17.1738 13.5943 17.2623 13.6445C17.4223 13.76 17.769 13.8223 17.6623 13.9112C17.5556 14 17.6623 13.9556 17.4845 14.0178C17.3067 14.08 17.4845 14.1512 17.1645 14.08C16.8445 14.0089 16.5512 13.84 16.6134 14.08C16.6756 14.32 16.6134 14.3912 16.6667 14.56C16.7201 14.7289 16.6667 14.7467 16.8179 14.7912C16.969 14.8356 16.9512 14.9334 17.0668 14.7912C17.1823 14.6489 17.0668 14.2312 17.2623 14.4356C17.4579 14.64 17.5112 14.6045 17.5379 14.8C17.5645 14.9956 17.5379 15.0934 17.6712 15.2889C17.8045 15.4845 18.0712 15.3956 17.929 15.5912C17.7867 15.7867 17.7601 15.7067 17.7156 15.8934C17.6712 16.08 17.7156 16.0178 17.6712 16.2667C17.6267 16.5156 17.8401 16.5778 17.5912 16.5245C17.3423 16.4712 16.0001 16.4534 16.0001 16.4534V18.3734H15.7156V16.4623C15.6035 16.4472 15.49 16.4472 15.3779 16.4623C15.289 16.4623 15.3779 16.6223 15.1823 16.6845C14.9867 16.7467 15.0401 16.7645 14.9512 16.7645C14.8623 16.7645 14.729 16.5245 14.729 16.5245L14.4445 16.4356C14.4159 16.346 14.4159 16.2497 14.4445 16.16C14.4979 16.0623 14.4445 15.9023 14.4001 15.92C14.2486 15.955 14.0932 15.9699 13.9379 15.9645C13.7156 15.9645 13.5734 15.7778 13.5645 15.9645C13.5556 16.1512 13.4667 16.16 13.6445 16.2934C13.8223 16.4267 13.9645 16.4623 13.9379 16.6223C13.9112 16.7823 14.1245 16.7112 13.9379 16.8267C13.7512 16.9423 13.769 16.96 13.5467 16.9245C13.3245 16.8889 13.4045 16.88 13.2979 17.0045C13.1912 17.1289 13.1823 17.2178 13.0934 17.12C13.0045 17.0223 13.0934 16.9156 12.9601 16.8889C12.8951 16.8817 12.8295 16.8817 12.7645 16.8889C12.6579 16.8889 12.6756 16.8445 12.6756 16.8445V18.3378L12.4445 18.3023Z" fill="#FFFEFF"/>
<path fill-rule="evenodd" clip-rule="evenodd" d="M19.049 18.3734V16.4711H17.929C17.929 16.4711 17.8757 16.1334 18.0179 16.08C18.1202 16.0584 18.2134 16.0056 18.2845 15.9289C18.3645 15.8578 18.729 15.68 18.6579 15.5467C18.5868 15.4134 18.5245 15.4222 18.4534 15.28C18.3823 15.1378 18.1512 15.0489 18.2668 14.9334C18.3823 14.8178 18.649 14.8622 18.7823 14.8356C18.9157 14.8089 18.9423 14.8889 18.969 14.7556C18.9957 14.6222 19.0668 14.56 18.969 14.4889C18.8712 14.4178 18.8357 14.3022 18.6845 14.3022C18.5334 14.3022 18.2579 14.3022 18.2579 14.3022C18.2579 14.3022 17.9823 14.3467 18.0534 14.1956C18.1245 14.0445 17.9823 14.0267 18.2045 13.9911C18.4268 13.9556 18.409 13.8489 18.5868 13.7867C18.7645 13.7245 18.8001 13.6534 18.9334 13.7867C19.0668 13.92 19.1734 14.0711 19.3068 13.9911C19.4401 13.9111 19.6623 13.9111 19.5823 13.7511C19.5349 13.6186 19.4519 13.5017 19.3423 13.4134C19.1379 13.2 19.049 13.0845 19.049 13.0845C19.049 13.0845 18.7912 12.8889 19.0934 12.9956C19.3957 13.1022 19.3868 12.9956 19.5023 13.2622C19.6179 13.5289 19.5023 13.4134 19.6623 13.5378C19.8223 13.6622 19.8668 13.76 19.8668 13.6445C19.8668 13.5289 19.769 13.2978 19.8668 13.2C19.9645 13.1022 20.0445 12.9245 20.1601 13.1111C20.2191 13.1897 20.2587 13.281 20.2757 13.3778C20.2757 13.3778 20.2757 13.3778 20.6134 13.52C20.9512 13.6622 20.7645 13.7956 20.969 13.7689C21.1734 13.7422 21.2712 13.7067 21.2979 13.8756C21.3038 13.9822 21.3038 14.089 21.2979 14.1956C21.2979 14.4089 21.4045 14.4534 21.2268 14.5245C21.049 14.5956 21.0045 14.3911 20.9423 14.5245C20.8801 14.6578 20.809 14.7289 20.6579 14.6578C20.5522 14.6024 20.4562 14.5304 20.3734 14.4445C20.3734 14.4445 20.3734 14.4445 20.1157 14.4445C19.8579 14.4445 19.8401 14.3645 19.8401 14.5511C19.8401 14.7378 20.009 14.7467 20.0357 14.8889C20.068 14.9832 20.0831 15.0826 20.0801 15.1822C20.0801 15.44 19.9468 15.3689 20.1779 15.4489C20.409 15.5289 20.3734 15.5734 20.5423 15.52C20.6873 15.4823 20.8372 15.4673 20.9868 15.4756C21.0757 15.4756 20.9068 15.2889 21.1379 15.2889C21.369 15.2889 21.4223 15.0845 21.4223 15.2889C21.409 15.4575 21.409 15.627 21.4223 15.7956C21.4223 16.08 21.5645 16.1422 21.4223 16.1422H20.889L20.5334 16.1867L20.4623 16.4889H20.2757L20.1779 16.1689C20.1779 16.1689 19.7423 16.1689 19.8223 16.2311C19.8734 16.3108 19.9011 16.4032 19.9023 16.4978H19.6445C19.6445 16.4978 19.6445 16.1778 19.5823 16.2134C19.4786 16.247 19.3711 16.2679 19.2623 16.2756V18.4356L19.049 18.3734Z" fill="#FFFEFF"/>
<path d="M17.3067 21.4401C17.4401 21.6623 17.3067 21.849 17.3067 22.0623H14.6401L14.729 21.8579C14.5707 21.6081 14.3793 21.3808 14.1601 21.1823V21.849L14.409 22.0623H13.4223L13.5645 21.9556C13.5985 21.9238 13.6255 21.8852 13.6439 21.8424C13.6622 21.7995 13.6715 21.7534 13.6712 21.7068C13.6712 21.2979 13.6712 20.8979 13.6712 20.4979C13.6712 20.3201 13.5556 20.249 13.3956 20.1334H14.2845C14.329 20.2934 14.1423 20.2401 14.1334 20.3379V21.0312L14.9601 20.3556L14.7645 20.1512C15.0134 20.1512 15.2445 20.1512 15.529 20.1512L14.5867 20.8979C15.1467 21.6268 15.1556 21.7868 15.609 22.0445L15.7779 21.9468L15.8312 21.9023V20.2845L15.6179 20.169H17.1467C17.2001 20.6668 17.2001 20.6668 17.1467 20.7556C17.049 20.6223 17.0312 20.4268 16.8356 20.3734C16.6759 20.3599 16.5153 20.3599 16.3556 20.3734V21.0845C16.5423 21.0845 16.6667 21.0045 16.6579 20.7912C16.6579 20.7912 16.7379 20.7023 16.8267 20.6045C16.8267 20.9779 16.8267 21.2801 16.8267 21.6001H16.6756C16.6756 21.4312 16.6756 21.2356 16.3734 21.2445C16.3602 21.4725 16.3602 21.701 16.3734 21.929C16.4666 21.9632 16.5659 21.9775 16.6649 21.971C16.7639 21.9645 16.8605 21.9374 16.9484 21.8913C17.0363 21.8453 17.1136 21.7814 17.1753 21.7036C17.237 21.6259 17.2818 21.5361 17.3067 21.4401Z" fill="#241F1F"/>
<path d="M19.2712 20.1423C18.8712 20.3289 19.0045 20.6401 18.9867 20.8978C18.9867 20.8978 19.0578 20.9956 19.1023 21.0045H19.4845C19.5048 21.0047 19.5248 21.0005 19.5434 20.9922C19.5619 20.984 19.5784 20.9719 19.5919 20.9568C19.6054 20.9416 19.6155 20.9238 19.6215 20.9044C19.6275 20.885 19.6293 20.8646 19.6267 20.8445V20.4445C19.6267 20.3289 19.5734 20.2756 19.3778 20.1156C19.5346 20.1026 19.6922 20.1026 19.8489 20.1156H20.3645L20.2312 20.2312L20.1067 20.3023V21.8667L20.3556 22.0623H19.3778C19.4401 22.0178 19.4934 21.9912 19.5112 21.9556C19.5642 21.8912 19.6008 21.815 19.6178 21.7334C19.6269 21.5557 19.6269 21.3777 19.6178 21.2001H18.9867V21.8134L19.2178 22.0623H18.3289C18.3289 21.9378 18.4623 21.9289 18.5245 21.8667V20.3289L18.2667 20.1423H19.2712Z" fill="#241F1F"/>
<path d="M21.5556 20.0712C21.8028 20.1058 22.0378 20.2004 22.24 20.3467C22.3434 20.4399 22.426 20.5537 22.4827 20.6808C22.5393 20.8078 22.5687 20.9454 22.5689 21.0845C22.557 21.3624 22.4467 21.627 22.2578 21.8312C22.1631 21.9271 22.0492 22.002 21.9237 22.051C21.7981 22.1 21.6636 22.122 21.5289 22.1156C21.2708 22.1236 21.0183 22.0384 20.8178 21.8756C20.6576 21.6682 20.5635 21.4175 20.5477 21.156C20.5318 20.8944 20.595 20.6341 20.7289 20.4089C20.9611 20.2105 21.2509 20.0921 21.5556 20.0712ZM21.9823 21.1289C21.9722 21.0522 21.9722 20.9745 21.9823 20.8978C21.9902 20.82 21.9825 20.7414 21.9596 20.6666C21.9367 20.5918 21.8991 20.5223 21.8489 20.4623C21.8172 20.3986 21.7684 20.345 21.708 20.3076C21.6475 20.2701 21.5778 20.2503 21.5067 20.2503C21.4356 20.2503 21.3659 20.2701 21.3054 20.3076C21.245 20.345 21.1962 20.3986 21.1645 20.4623C21.1302 20.5102 21.106 20.5647 21.0934 20.6223C21.0135 20.9463 21.0135 21.2849 21.0934 21.6089C21.117 21.6983 21.1654 21.7791 21.233 21.842C21.3007 21.9049 21.3848 21.9474 21.4756 21.9645C21.5669 21.9645 21.656 21.9363 21.7308 21.8838C21.8055 21.8313 21.8623 21.7571 21.8934 21.6712C21.9665 21.5034 21.997 21.3202 21.9823 21.1378V21.1289Z" fill="#241F1F"/>
<path d="M7.78666 21.8223L8.04444 22.0445C7.80183 22.0628 7.55817 22.0628 7.31555 22.0445L7.59111 21.8134V20.3467L7.33333 20.1511C7.56723 20.1383 7.80165 20.1383 8.03555 20.1511C8.32889 20.4889 8.59555 20.8445 8.92444 21.1823H8.97777V20.3556L8.71111 20.1511C8.91817 20.1342 9.12627 20.1342 9.33333 20.1511C9.38666 20.3111 9.17333 20.2311 9.17333 20.3467V22.0445C9.03111 22.1245 8.96889 22.0445 8.90666 21.9556L8.49777 21.4311L7.94666 20.7645L7.82222 20.6045L7.78666 21.8223Z" fill="#241F1F"/>
<path d="M24.8089 20.32L24.5511 20.1422H26.1689C26.1994 20.3336 26.1994 20.5286 26.1689 20.72C26.1183 20.6561 26.0737 20.5876 26.0356 20.5155C26.0356 20.3555 25.8756 20.3289 25.76 20.3111C25.615 20.3022 25.4695 20.3022 25.3245 20.3111C25.3245 20.56 25.2623 20.8 25.4045 21.0222C25.6356 20.96 25.6356 20.72 25.7867 20.5778V21.6267C25.7245 21.5111 25.6711 21.4311 25.6356 21.3511C25.6307 21.3204 25.6186 21.2913 25.6002 21.2662C25.5818 21.2411 25.5577 21.2208 25.5299 21.2069C25.5021 21.193 25.4714 21.1859 25.4403 21.1863C25.4092 21.1866 25.3786 21.1944 25.3511 21.2089C25.3067 21.6444 25.3067 21.6622 25.4134 21.8933C25.5958 21.906 25.7791 21.888 25.9556 21.84C26.16 21.7778 26.16 21.5555 26.3111 21.4044V21.9555L26.1956 22.0622H24.5511L24.8089 21.8844V20.32Z" fill="#241F1F"/>
<path d="M5.33337 20.1422H6.32004L6.06226 20.3289V21.5555C6.06226 21.7867 6.16893 21.8933 6.39115 21.8933C6.46516 21.8978 6.53937 21.8978 6.61337 21.8933L6.81782 21.6978C6.81782 21.3867 6.81782 21.0844 6.88004 20.8089C6.90029 20.6866 6.88607 20.5611 6.83896 20.4465C6.79186 20.3319 6.71374 20.2327 6.61337 20.16C6.83836 20.1467 7.06394 20.1467 7.28893 20.16L7.05782 20.3555C7.05782 20.6933 7.05782 21.04 7.05782 21.3778C7.06056 21.4898 7.03893 21.6011 6.99442 21.7039C6.94991 21.8067 6.88359 21.8987 6.80004 21.9733C6.61262 22.1005 6.3837 22.1514 6.16004 22.1155H6.08004C6.01733 22.1202 5.95439 22.1106 5.89591 22.0875C5.83742 22.0644 5.7849 22.0284 5.74226 21.9822C5.61291 21.8407 5.5374 21.6582 5.52893 21.4667C5.52893 21.0844 5.52893 20.7022 5.52893 20.3289L5.33337 20.1422Z" fill="#241F1F"/>
<path d="M3.8489 21.3778C4.01779 21.6978 4.17779 22.0089 4.61335 21.9467L4.82668 21.7689C4.81515 21.6659 4.77233 21.569 4.70398 21.4911C4.63564 21.4132 4.54506 21.3582 4.44446 21.3334C4.25355 21.2452 4.07917 21.1249 3.9289 20.9778C3.86384 20.9172 3.81468 20.8414 3.78578 20.7573C3.75687 20.6732 3.74911 20.5833 3.76316 20.4955C3.77721 20.4076 3.81265 20.3246 3.86636 20.2537C3.92006 20.1828 3.99039 20.1262 4.07113 20.0889C4.15761 20.039 4.25571 20.0127 4.35557 20.0127C4.45543 20.0127 4.55353 20.039 4.64001 20.0889C4.77335 20.1778 4.88001 20.0889 5.00446 20.0889V20.7289C4.96722 20.6946 4.93438 20.6558 4.90668 20.6134C4.90668 20.5511 4.82668 20.48 4.78224 20.4267C4.72887 20.3475 4.65269 20.2864 4.56379 20.2514C4.47489 20.2165 4.37747 20.2094 4.28446 20.2311L4.20446 20.3022C4.09779 20.4356 4.10668 20.5422 4.25779 20.6311C4.4089 20.72 4.6489 20.8711 4.84446 20.9867C4.93626 21.0308 5.0135 21.1003 5.06706 21.1869C5.12062 21.2736 5.14825 21.3737 5.14668 21.4756C5.14108 21.6098 5.09215 21.7387 5.00723 21.8428C4.92231 21.947 4.80596 22.0208 4.67557 22.0534C4.51552 22.1158 4.33784 22.1158 4.17779 22.0534C4.11963 22.0251 4.0558 22.0104 3.99113 22.0104C3.92645 22.0104 3.86262 22.0251 3.80446 22.0534C3.79108 21.8272 3.80601 21.6003 3.8489 21.3778Z" fill="#241F1F"/>
<path d="M23.8311 21.8845L24.08 22.0622H23.1111L23.2889 21.8756V20.3289C23.0045 20.3289 23.0045 20.3289 22.7645 20.6578C22.7022 20.5333 22.7022 20.5333 22.7111 20.1511H22.9067H24.2578C24.4356 20.1511 24.4711 20.1511 24.4711 20.3467C24.4711 20.5422 24.4711 20.56 24.4711 20.7111C24.3911 20.6578 24.32 20.6311 24.3111 20.5956C24.2667 20.3378 24.0889 20.3111 23.8845 20.3289H23.84L23.8311 21.8845Z" fill="#241F1F"/>
<path d="M13.3778 22.0623H12.4445L12.6134 21.8756C12.6134 21.7689 12.5334 21.6623 12.4889 21.5556H11.8667C11.816 21.6355 11.7771 21.7224 11.7512 21.8134C11.7512 21.9378 11.9023 21.9289 11.9289 22.0534C11.7308 22.0711 11.5315 22.0711 11.3334 22.0534C11.3334 22.0534 11.3334 21.9734 11.3334 21.9556C11.5323 21.7985 11.6731 21.5795 11.7334 21.3334C11.788 21.1822 11.8503 21.0338 11.92 20.8889L12.2845 20.1156C12.4356 20.1156 12.4534 20.2489 12.48 20.3289C12.5752 20.5782 12.685 20.8216 12.8089 21.0578C12.8364 21.1155 12.8602 21.1749 12.88 21.2356C12.9689 21.4312 13.0489 21.6178 13.1467 21.8045C13.2122 21.9001 13.2899 21.9868 13.3778 22.0623ZM11.92 21.3956C12.1156 21.3423 12.2489 21.3956 12.3912 21.3245C12.3123 21.1677 12.2232 21.0163 12.1245 20.8712C12.0534 21.04 12 21.1823 11.92 21.3956Z" fill="#241F1F"/>
<path d="M11.1467 21.3333C11.1717 21.3493 11.1929 21.3705 11.2089 21.3955C11.0933 21.5822 11.2089 21.8222 11.0755 21.9911H9.47554L9.65332 21.7955V20.2933L9.45776 20.1422H10.4444L10.1955 20.3289V21.7511C10.1942 21.7701 10.197 21.7892 10.2037 21.807C10.2104 21.8249 10.2208 21.8411 10.2343 21.8546C10.2478 21.8681 10.264 21.8785 10.2818 21.8852C10.2997 21.8919 10.3187 21.8946 10.3378 21.8933C10.4442 21.9022 10.5513 21.9022 10.6578 21.8933C10.727 21.8973 10.7957 21.8786 10.8534 21.8401C10.9111 21.8016 10.9548 21.7454 10.9778 21.68C11.0133 21.5822 11.0844 21.4844 11.1467 21.3333Z" fill="#241F1F"/>
<path d="M27.4756 20.1422L27.2445 20.32V21.8844C27.4223 21.8844 27.609 21.8844 27.7956 21.8844C27.9023 21.76 28.0623 21.68 28.0801 21.4933C28.0801 21.44 28.169 21.3955 28.2579 21.3067C28.2412 21.5275 28.2115 21.7471 28.169 21.9644C28.169 22.0267 28.089 22.0622 28.009 22.0533H26.5512C26.4979 21.8933 26.7023 21.9733 26.7023 21.8578V20.3378L26.5245 20.1422H27.4756Z" fill="#241F1F"/>
<path d="M7.19116 23.2534C7.24494 23.2053 7.31456 23.1787 7.38672 23.1787C7.45887 23.1787 7.52849 23.2053 7.58227 23.2534C7.58227 23.2534 7.58227 23.3156 7.58227 23.3512V23.6268H7.71561H7.87561C7.87561 23.4845 7.87561 23.3601 7.82227 23.2445C7.93783 23.0845 8.08005 23.1823 8.23116 23.1645C8.15107 23.5006 8.15107 23.8507 8.23116 24.1868C8.10672 24.249 7.97338 24.1868 7.85783 24.1868C7.85783 24.0268 7.85783 23.8934 7.85783 23.7334H7.52894V24.169H7.19116C7.25246 23.8669 7.25246 23.5555 7.19116 23.2534Z" fill="#241F1F"/>
<path d="M24 23.2534C24.3911 23.0845 24.8889 23.129 24.8889 23.5201C24.8889 23.6445 24.7556 23.7156 24.6756 23.8223L24.96 24.1956C24.8731 24.2514 24.7677 24.2706 24.6667 24.249L24.3378 23.8312C24.3139 23.8968 24.3055 23.967 24.3132 24.0364C24.3209 24.1058 24.3446 24.1724 24.3823 24.2312C24.2435 24.2483 24.1032 24.2483 23.9645 24.2312C24.031 23.9095 24.043 23.579 24 23.2534ZM24.3378 23.7067C24.3378 23.7067 24.3378 23.7067 24.3823 23.7067L24.5511 23.6356C24.5511 23.3156 24.5511 23.3067 24.3378 23.3334V23.7067Z" fill="#241F1F"/>
<path d="M13.5822 24.2489H12.9244C12.9955 23.9238 12.9955 23.5873 12.9244 23.2622C12.9244 23.2622 12.9244 23.2089 12.9867 23.2089C13.1652 23.1693 13.3503 23.1693 13.5289 23.2089C13.6408 23.2372 13.7396 23.3028 13.8092 23.3949C13.8787 23.4871 13.9146 23.6002 13.9111 23.7155V23.8933C13.8044 24.2133 13.6889 24.2578 13.5822 24.2489ZM13.5822 23.4578C13.5822 23.4578 13.2889 23.3866 13.2889 23.4578C13.2889 23.6889 13.2889 23.92 13.2889 24.1511C13.5644 24.1511 13.5733 24.1511 13.5822 23.9289V23.4578Z" fill="#241F1F"/>
<path d="M9.42225 23.7334C9.42708 23.8068 9.41692 23.8804 9.3924 23.9497C9.36789 24.0191 9.32951 24.0827 9.27962 24.1368C9.22973 24.1908 9.16936 24.2342 9.10219 24.2641C9.03503 24.2941 8.96246 24.3101 8.88891 24.3112C8.73997 24.296 8.60066 24.2305 8.49399 24.1254C8.38732 24.0204 8.31968 23.8821 8.30225 23.7334C8.30686 23.588 8.3679 23.4501 8.47242 23.3488C8.57695 23.2476 8.71675 23.1911 8.86225 23.1912C9.24447 23.1912 9.43114 23.3689 9.42225 23.7334ZM9.04002 24.1334C9.12413 23.9222 9.12413 23.6868 9.04002 23.4756C9.04002 23.3867 8.9778 23.3156 8.88002 23.3156C8.83677 23.3091 8.7926 23.318 8.75523 23.3408C8.71787 23.3635 8.68968 23.3986 8.67558 23.4401C8.5925 23.6637 8.5925 23.9097 8.67558 24.1334C8.69269 24.167 8.71876 24.1952 8.75092 24.215C8.78308 24.2347 8.82007 24.2451 8.8578 24.2451C8.89553 24.2451 8.93252 24.2347 8.96468 24.215C8.99684 24.1952 9.02292 24.167 9.04002 24.1334Z" fill="#241F1F"/>
<path d="M23.6267 24.1245L23.7511 23.9556H23.8045C23.8045 24.1512 23.8045 24.2134 23.6711 24.2223H22.9333C22.9633 23.8762 22.9633 23.5283 22.9333 23.1823C23.1699 23.1603 23.4079 23.1603 23.6445 23.1823C23.6889 23.1823 23.7511 23.2445 23.7689 23.28C23.7641 23.3538 23.7461 23.4261 23.7156 23.4934C23.5822 23.3867 23.5022 23.2356 23.3156 23.3156V23.6445L23.5289 23.4667V24L23.3511 23.8667C23.2711 23.9734 23.3511 24.0623 23.3067 24.1689L23.6267 24.1245Z" fill="#241F1F"/>
<path d="M11.2801 24.1245C11.3334 24.0623 11.3334 23.9467 11.4845 23.9734C11.4845 24.0534 11.4401 24.1423 11.4134 24.2401H10.6667C10.7079 23.9457 10.7228 23.6482 10.7112 23.3512L10.5601 23.2623C10.6283 23.2327 10.7 23.2118 10.7734 23.2001H11.2445C11.4667 23.2001 11.4845 23.2001 11.4401 23.5023C11.2889 23.5023 11.2356 23.2356 11.0134 23.3512C10.9689 23.4312 11.0134 23.5467 11.0134 23.6712L11.1289 23.5201C11.2534 23.6534 11.2534 23.7779 11.1289 23.9556L10.9867 23.8223V24.1334L11.2801 24.1245Z" fill="#241F1F"/>
<path d="M15.1111 24.2401C15.1728 23.9751 15.1908 23.7019 15.1644 23.4312C15.1644 23.3778 15.1022 23.3334 15.0667 23.2801C15.1733 23.2001 15.1733 23.2001 15.3955 23.2001L15.8311 23.7423C15.9466 23.5467 15.8311 23.3867 15.8311 23.1912H16.0444C16.0108 23.5457 15.996 23.9017 16 24.2578C15.851 24.1909 15.7266 24.079 15.6444 23.9378C15.5506 23.8027 15.4466 23.6749 15.3333 23.5556C15.1822 23.6534 15.3333 24.1067 15.3333 24.2401H15.1111Z" fill="#241F1F"/>
<path d="M21.4579 23.2889C21.5645 23.1556 21.6534 23.1733 21.7423 23.2889L21.6356 23.4222C21.6356 23.5822 21.7512 24.16 21.5912 24.2667L20.9867 23.5556C20.9588 23.7855 20.98 24.0188 21.049 24.24H20.8179C20.8661 23.9613 20.8839 23.6781 20.8712 23.3956L20.7645 23.2622C20.8445 23.12 20.969 23.2 21.0845 23.1733L21.5645 23.7422C21.5734 23.5645 21.6267 23.4133 21.4579 23.2889Z" fill="#241F1F"/>
<path d="M17.7778 23.28L17.6622 23.3423C17.6622 23.5467 17.6622 23.76 17.6622 23.9734C17.6622 24.1867 17.7067 24.1245 17.8133 24.1334C17.92 24.1423 18.0622 24.1334 18.0622 24.0356C18.0884 23.7755 18.0884 23.5134 18.0622 23.2534L18.2222 23.1823L18.2667 23.2445C18.2091 23.516 18.1912 23.7945 18.2133 24.0711C18.16 24.2489 17.9911 24.2489 17.8667 24.3023C17.826 24.3145 17.783 24.3168 17.7413 24.3091C17.6995 24.3014 17.6602 24.2838 17.6267 24.2578C17.5514 24.2226 17.4884 24.1657 17.4456 24.0944C17.4029 24.0232 17.3824 23.9408 17.3867 23.8578V23.4845C17.3917 23.4075 17.3917 23.3303 17.3867 23.2534C17.4476 23.2201 17.5168 23.2049 17.5861 23.2096C17.6554 23.2144 17.7219 23.2388 17.7778 23.28Z" fill="#241F1F"/>
<path d="M19.7067 23.2533C19.7592 23.21 19.8252 23.1863 19.8933 23.1863C19.9615 23.1863 20.0275 23.21 20.08 23.2533C20.0445 23.5099 20.0445 23.7701 20.08 24.0267C20.08 24.0267 20.1511 24.1156 20.1956 24.1333C20.2604 24.1422 20.3262 24.1422 20.3911 24.1333C20.4957 23.8463 20.4957 23.5315 20.3911 23.2444H20.6311C20.5827 23.5142 20.5648 23.7885 20.5778 24.0622C20.5333 24.1156 20.5778 24.2044 20.5067 24.2667C20.4185 24.3165 20.319 24.3427 20.2178 24.3427C20.1165 24.3427 20.017 24.3165 19.9289 24.2667C19.8678 24.2359 19.8178 24.1868 19.786 24.1262C19.7541 24.0657 19.7419 23.9967 19.7511 23.9289C19.76 23.772 19.76 23.6147 19.7511 23.4578C19.7439 23.3882 19.729 23.3196 19.7067 23.2533Z" fill="#241F1F"/>
<path d="M19.5556 23.2622C19.5556 23.36 19.5556 23.4222 19.5556 23.4933C19.3867 23.4933 19.3334 23.2178 19.1201 23.3333C19.0578 23.4133 19.1201 23.4755 19.1823 23.5289L19.5023 23.7244C19.5379 23.7597 19.562 23.8048 19.5715 23.854C19.581 23.9031 19.5755 23.954 19.5556 24C19.5556 24.0978 19.4667 24.1333 19.3423 24.24C19.1687 24.2946 18.9825 24.2946 18.809 24.24C18.809 24.1155 18.7378 23.9911 18.9067 23.8844C18.9067 24.0711 19.0045 24.1244 19.1467 24.1867L19.3067 24.1067C19.3173 24.0902 19.3241 24.0715 19.3267 24.0521C19.3292 24.0327 19.3275 24.0129 19.3215 23.9943C19.3156 23.9756 19.3056 23.9585 19.2923 23.9441C19.279 23.9297 19.2627 23.9184 19.2445 23.9111C19.18 23.8713 19.1115 23.8386 19.0401 23.8133C18.9528 23.7811 18.8804 23.7182 18.8362 23.6364C18.792 23.5546 18.7792 23.4595 18.8001 23.3689C18.8001 23.3689 18.9156 23.1822 19.0134 23.1644C19.1975 23.1742 19.3797 23.2071 19.5556 23.2622Z" fill="#241F1F"/>
<path d="M10.48 23.5112L10.24 23.3067C10.0444 23.4223 10.1511 24.0623 10.16 24.24C10.0333 24.2592 9.90446 24.2592 9.77777 24.24C9.83858 23.9269 9.85949 23.6073 9.83999 23.2889C9.70666 23.2889 9.61777 23.3512 9.58221 23.4667C9.56238 23.4599 9.54419 23.449 9.52879 23.4348C9.51339 23.4206 9.50112 23.4033 9.49276 23.3841C9.4844 23.3648 9.48013 23.3441 9.48023 23.3231C9.48032 23.3021 9.48478 23.2814 9.49332 23.2623C9.50923 23.2321 9.53387 23.2075 9.56401 23.1917C9.59415 23.1758 9.62838 23.1694 9.66221 23.1734C9.85777 23.1734 10.0533 23.1734 10.2489 23.1734C10.4444 23.1734 10.4711 23.2089 10.48 23.5112Z" fill="#241F1F"/>
<path d="M21.8756 23.4223C21.8756 23.369 21.8756 23.2979 21.8756 23.2623C21.8955 23.2425 21.919 23.2268 21.945 23.2161C21.9709 23.2055 21.9987 23.2 22.0267 23.2001H22.5512C22.7823 23.2001 22.7912 23.2001 22.7734 23.4934C22.7509 23.4345 22.7177 23.3803 22.6756 23.3334C22.6223 23.2623 22.4623 23.3334 22.4534 23.3334C22.431 23.6308 22.4489 23.9298 22.5067 24.2223C22.3734 24.2845 22.2489 24.2223 22.1067 24.2223C22.1526 23.9105 22.1674 23.5948 22.1512 23.2801C22.101 23.2735 22.0502 23.2735 22.0001 23.2801C21.9686 23.3117 21.9416 23.3476 21.9201 23.3867L21.8756 23.4223Z" fill="#241F1F"/>
<path d="M15.0133 24.2489H14.6311C14.6311 24.1689 14.6311 24.1067 14.6311 24.0444C14.5828 24.0202 14.5296 24.0076 14.4755 24.0076C14.4215 24.0076 14.3683 24.0202 14.32 24.0444C14.2578 24.0978 14.32 24.24 14.32 24.24H14.0444C14.0444 24.24 14.0444 24.1955 14.0444 24.1867C14.2222 23.92 14.4978 23.2533 14.5244 23.2178C14.72 23.3422 14.7378 23.5378 14.8178 23.7067C14.8978 23.8756 14.9155 24.0444 15.0133 24.2489ZM14.5155 23.8933C14.4765 23.8018 14.432 23.7128 14.3822 23.6267C14.3822 23.7422 14.3289 23.8044 14.3111 23.8933H14.5155Z" fill="#241F1F"/>
<path d="M17.1378 24.2489H16.7467C16.7519 24.1808 16.7519 24.1125 16.7467 24.0444C16.6667 24.0444 16.4978 23.9822 16.4356 24.0444C16.3734 24.1067 16.4356 24.24 16.4356 24.24H16.16C16.16 24.24 16.16 24.1955 16.16 24.1867C16.3378 23.92 16.6134 23.2533 16.64 23.2178C16.8356 23.3422 16.8534 23.5378 16.9245 23.7067L17.1378 24.2489ZM16.64 23.8933C16.601 23.8018 16.5565 23.7128 16.5067 23.6267C16.5067 23.7422 16.4534 23.8044 16.4356 23.8933H16.64Z" fill="#241F1F"/>
<path d="M11.9645 24.1334H12.2934L12.4801 23.8756V24.2401C12.1956 24.2401 11.9112 24.2401 11.5912 24.2401C11.6488 23.9107 11.6488 23.5739 11.5912 23.2445C11.7423 23.1556 11.7512 23.1556 11.9379 23.2445C11.9243 23.5411 11.9333 23.8382 11.9645 24.1334Z" fill="#241F1F"/>
<path d="M7.03122 24.4889C6.96228 24.4914 6.89415 24.4733 6.83556 24.4369C6.77697 24.4005 6.73058 24.3474 6.70233 24.2845C6.60464 24.1415 6.56639 23.9662 6.59566 23.7956C6.63231 23.6071 6.72898 23.4356 6.87122 23.3067C6.94699 23.2687 7.02781 23.2418 7.11122 23.2267C6.95968 23.4314 6.88709 23.6839 6.90677 23.9378C6.8966 24.1295 6.93967 24.3202 7.03122 24.4889Z" fill="#241F1F"/>
<path d="M24.9956 24.4623C25.0794 24.3875 25.1435 24.2932 25.1822 24.1878C25.221 24.0824 25.2332 23.9691 25.2178 23.8578C25.2316 23.6361 25.1618 23.4173 25.0223 23.2445C25.0816 23.2559 25.1387 23.2769 25.1912 23.3067C25.2728 23.3797 25.3385 23.4686 25.3844 23.568C25.4303 23.6673 25.4553 23.7751 25.4578 23.8845C25.4612 23.9751 25.4455 24.0655 25.4119 24.1497C25.3782 24.2339 25.3272 24.3101 25.2623 24.3734C25.2 24.4356 25.1378 24.5334 24.9956 24.4623Z" fill="#241F1F"/>
</g>
<defs>
<linearGradient id="paint0_linear_2707_276373" x1="12.3902" y1="10.7251" x2="20.8435" y2="10.8051" gradientUnits="userSpaceOnUse">
<stop stop-color="#EF816E"/>
<stop offset="1" stop-color="#FBCDC8"/>
</linearGradient>
<linearGradient id="paint1_linear_2707_276373" x1="18.8188" y1="12.3247" x2="12.8099" y2="12.4402" gradientUnits="userSpaceOnUse">
<stop stop-color="#EC7163"/>
<stop offset="1" stop-color="#FBCDC8"/>
</linearGradient>
<clipPath id="clip0_2707_276373">
<rect width="32" height="32" fill="white"/>
</clipPath>
</defs>
</svg>
