<svg width="35" height="32" viewBox="0 0 35 32" fill="none" xmlns="http://www.w3.org/2000/svg">
<g clip-path="url(#clip0_2707_276308)">
<path d="M16 32C24.8366 32 32 24.8366 32 16C32 7.16344 24.8366 0 16 0C7.16344 0 0 7.16344 0 16C0 24.8366 7.16344 32 16 32Z" fill="white"/>
<path d="M16 29.3333C23.3638 29.3333 29.3333 23.3638 29.3333 16C29.3333 8.63616 23.3638 2.66663 16 2.66663C8.63616 2.66663 2.66663 8.63616 2.66663 16C2.66663 23.3638 8.63616 29.3333 16 29.3333Z" fill="white"/>
<path d="M15.3511 29.0845L12.7288 28.6845V24.0001L12.5955 23.9467C11.4755 24.9956 10.4533 26.1512 9.31551 27.2267C8.48329 26.7747 7.70752 26.2257 7.00439 25.5912L7.49328 25.0756C9.34217 23.2623 11.197 21.4519 13.0577 19.6445C13.3373 19.3771 13.6548 19.1525 13.9999 18.9779C14.121 18.911 14.256 18.8733 14.3941 18.8678C14.5323 18.8622 14.6698 18.889 14.7958 18.946C14.9219 19.0029 15.0328 19.0885 15.1199 19.1959C15.2071 19.3033 15.2679 19.4295 15.2977 19.5645C15.3538 19.7399 15.3838 19.9226 15.3866 20.1067V28.7112C15.3866 28.7823 15.3688 28.8712 15.3511 29.0845Z" fill="#002966"/>
<path d="M16.6755 2.88892C17.5608 2.89433 18.4408 3.02602 19.2888 3.28003V7.92892L19.4133 7.98225C19.9911 7.49336 20.48 6.89781 21.0311 6.37336L22.7555 4.7378C23.5892 5.15389 24.3513 5.69997 25.0133 6.35558C24.6488 6.71114 24.3288 7.04003 24.0088 7.36003C22.3288 9.00447 20.6577 10.6489 18.96 12.2756C18.67 12.5577 18.337 12.7917 17.9733 12.9689C17.8625 13.0335 17.738 13.0711 17.6099 13.0787C17.4819 13.0862 17.3538 13.0636 17.2362 13.0125C17.1185 12.9615 17.0145 12.8835 16.9325 12.7848C16.8506 12.6861 16.793 12.5695 16.7644 12.4445C16.6909 12.2359 16.6519 12.0167 16.6488 11.7956C16.6488 8.95114 16.6488 6.09781 16.6488 3.25336C16.64 3.17336 16.6577 3.06669 16.6755 2.88892Z" fill="#002966"/>
<path d="M4.65784 9.59115C5.06184 8.73416 5.63302 7.96653 6.33784 7.33337L7.5734 8.48893C9.20895 10.0623 10.8623 11.6356 12.4801 13.2267C12.7644 13.5162 12.9961 13.8531 13.1645 14.2223C13.215 14.3176 13.2438 14.4229 13.2487 14.5306C13.2536 14.6384 13.2346 14.7459 13.1929 14.8454C13.1512 14.9448 13.088 15.0338 13.0078 15.1059C12.9275 15.178 12.8323 15.2314 12.729 15.2623C12.5102 15.3593 12.2748 15.4137 12.0356 15.4223C9.14969 15.4637 6.2608 15.4993 3.36895 15.5289H2.86228C2.85127 14.6632 2.96809 13.8006 3.20895 12.9689C4.80006 12.8712 6.38228 12.9689 8.09784 12.88C6.95117 11.6623 5.73339 10.6667 4.65784 9.59115Z" fill="#002966"/>
<path d="M6.16 24.6311C5.51961 24.0331 4.99525 23.3219 4.61333 22.5334L8.05333 19.1911H3.26222C2.95685 18.3117 2.81525 17.3838 2.84444 16.4534C3.06667 16.4534 3.26222 16.4 3.45778 16.4C6.12444 16.4 8.74667 16.4 11.3956 16.4711C11.8022 16.4779 12.2049 16.553 12.5867 16.6934C12.7078 16.7273 12.8192 16.7893 12.9118 16.8743C13.0045 16.9594 13.0758 17.0651 13.12 17.1828C13.1641 17.3006 13.1799 17.4271 13.166 17.5521C13.1521 17.6771 13.1089 17.7971 13.04 17.9022C12.9441 18.1029 12.8115 18.2838 12.6489 18.4356C10.6044 20.4208 8.55111 22.3971 6.48889 24.3645C6.3855 24.4608 6.27561 24.5499 6.16 24.6311Z" fill="#002966"/>
<path d="M19.2889 23.9023C19.3422 25.4134 19.3956 26.9245 19.44 28.4623C18.5483 28.7798 17.6127 28.9568 16.6667 28.9867C16.6354 28.8133 16.6146 28.6382 16.6044 28.4623C16.56 25.7956 16.5156 23.129 16.4889 20.4179C16.4945 20.067 16.5545 19.7192 16.6667 19.3867C16.7005 19.2765 16.7575 19.1748 16.8338 19.0884C16.9101 19.002 17.0041 18.9329 17.1093 18.8858C17.2145 18.8386 17.3286 18.8145 17.4439 18.8151C17.5592 18.8156 17.673 18.8408 17.7778 18.889C18.0035 18.9745 18.2115 19.1011 18.3911 19.2623C20.5185 21.2712 22.64 23.283 24.7556 25.2979C24.8262 25.3709 24.8888 25.4514 24.9422 25.5379C24.3114 26.1428 23.6065 26.6654 22.8444 27.0934L19.3956 23.849L19.2889 23.9023Z" fill="#002966"/>
<path d="M27.4489 22.4001L25.7778 24.6401C25.5733 24.4712 25.4311 24.3645 25.2978 24.2401C23.4548 22.4623 21.6178 20.6845 19.7866 18.9067C19.4625 18.6036 19.1787 18.2601 18.9422 17.8845C18.8491 17.7704 18.7882 17.6335 18.7658 17.488C18.7433 17.3425 18.7602 17.1936 18.8145 17.0567C18.8689 16.9199 18.9588 16.8 19.0751 16.7096C19.1913 16.6192 19.3295 16.5614 19.4755 16.5423C19.7047 16.4795 19.9403 16.4437 20.1778 16.4356L28.6133 16.3734C28.7733 16.3734 28.9422 16.3734 29.1555 16.3734C29.1683 17.2276 29.0514 18.0788 28.8089 18.8979L23.9022 18.9956C25.0933 20.2401 26.2755 21.2267 27.4489 22.4001Z" fill="#002966"/>
<path d="M7.11108 6.38225C7.67617 5.83498 8.30254 5.35476 8.97775 4.95114C9.20886 4.80003 9.35108 4.95114 9.50219 5.08447L11.8044 7.28892C12.0711 7.54669 12.3378 7.78669 12.6933 8.12447C12.6933 7.84003 12.6933 7.67114 12.6933 7.50225L12.56 4.00892C12.56 3.38669 12.56 3.35114 13.1466 3.22669C13.7333 3.10225 14.56 3.00447 15.3155 2.88892C15.3155 3.12003 15.3778 3.28003 15.3866 3.44003C15.3866 6.10669 15.4755 8.77336 15.5022 11.3778C15.5154 11.7371 15.4764 12.0964 15.3866 12.4445C15.3622 12.5784 15.3054 12.7043 15.2212 12.8112C15.137 12.9181 15.028 13.0029 14.9035 13.0581C14.7791 13.1133 14.6431 13.1372 14.5073 13.1279C14.3715 13.1186 14.2401 13.0762 14.1244 13.0045C13.9265 12.9071 13.7438 12.7813 13.5822 12.6311C11.4903 10.6697 9.41627 8.69632 7.35997 6.71114C7.24442 6.59558 7.17331 6.4978 7.11108 6.38225Z" fill="#002966"/>
<path d="M25.9112 7.21777C26.2045 7.58222 26.4712 7.88444 26.7112 8.21333C26.9512 8.54222 27.1734 8.92444 27.4489 9.33333L23.9467 12.7378H28.7823C29.0737 13.6204 29.2119 14.5463 29.1912 15.4756C28.9867 15.4756 28.8356 15.52 28.6667 15.52C25.9112 15.52 23.1556 15.4667 20.4 15.4133C20.0522 15.3968 19.7096 15.3217 19.3867 15.1911C19.279 15.1575 19.1801 15.1004 19.0971 15.024C19.0141 14.9476 18.949 14.8538 18.9065 14.7493C18.864 14.6448 18.8452 14.5322 18.8514 14.4195C18.8576 14.3069 18.8886 14.197 18.9423 14.0978C19.0378 13.8789 19.1735 13.68 19.3423 13.5111C21.44 11.4785 23.5437 9.45185 25.6534 7.43111L25.9112 7.21777Z" fill="#002966"/>
</g>
<defs>
<clipPath id="clip0_2707_276308">
<rect width="32" height="32" fill="white"/>
</clipPath>
</defs>
</svg>
