<svg width="32" height="32" viewBox="0 0 32 32" fill="none" xmlns="http://www.w3.org/2000/svg">
<g clip-path="url(#clip0_2810_58628)">
<mask id="mask0_2810_58628" style="mask-type:luminance" maskUnits="userSpaceOnUse" x="0" y="0" width="32" height="32">
<path d="M31.9909 0.0177612H0.0175781V31.9911H31.9909V0.0177612Z" fill="white"/>
</mask>
<g mask="url(#mask0_2810_58628)">
<path d="M15.9998 31.9822C24.8265 31.9822 31.982 24.8267 31.982 16C31.982 7.17325 24.8265 0.0177612 15.9998 0.0177612C7.17306 0.0177612 0.0175781 7.17325 0.0175781 16C0.0175781 24.8267 7.17306 31.9822 15.9998 31.9822Z" fill="white"/>
<path fill-rule="evenodd" clip-rule="evenodd" d="M15.6892 11.1911C19.5558 11.1911 23.8758 9.84001 25.8047 12C26.8625 13.1911 26.5514 17.3778 26.5514 18.88C26.5514 23.12 21.6892 26.5689 15.6981 26.5689C9.70695 26.5689 4.84473 23.12 4.84473 18.88C4.84473 14.64 9.70695 11.1911 15.6981 11.1911H15.6892Z" fill="url(#paint0_linear_2810_58628)"/>
<path d="M11.0134 16.9422C10.9364 16.9422 10.9067 16.9748 10.9245 17.04C10.9245 17.04 10.969 16.9867 11.0134 16.9422ZM22.249 14.9689C22.1956 14.9955 22.1867 15.0044 22.2223 15.0311V15.0933C22.4623 15.0933 22.6934 15.0933 22.9156 15.0933C22.9334 15.0933 22.9423 15.0755 22.9512 15.0755C22.9867 15.0755 23.0312 15.0755 23.0667 15.0755C23.0845 15.1111 23.0934 15.1022 23.1023 15.0755C23.129 15.0667 23.1645 15.0578 23.1912 15.0489C23.4756 14.9333 23.6712 14.7467 23.7601 14.4533C23.7601 14.4444 23.769 14.4267 23.7778 14.4178C23.7867 14.3733 23.7956 14.3289 23.8134 14.2844C23.8134 14.2755 23.8134 14.2667 23.8134 14.2578C23.8134 14.2222 23.8134 14.1955 23.8134 14.16C23.8134 14.16 23.8312 14.1511 23.8312 14.1422C23.8312 14.1422 23.8134 14.1333 23.8045 14.1244C23.8045 14.1067 23.8045 14.0889 23.7956 14.0622C23.7956 14.0533 23.7778 14.0355 23.7778 14.0267C23.689 13.92 23.5645 13.8667 23.4312 13.84C23.4223 13.84 23.4045 13.84 23.3956 13.84H23.2445C23.2445 13.84 23.209 13.8044 23.1912 13.8044C23.0134 13.8044 22.8445 13.8044 22.6667 13.8044C22.6223 13.8044 22.6312 13.84 22.6401 13.8667C22.6401 13.8755 22.6401 13.8844 22.6401 13.8933C22.6401 13.9022 22.6223 13.92 22.6223 13.9289C22.6223 13.9467 22.6223 13.9644 22.6134 13.9911C22.6134 14 22.6045 14.0089 22.5956 14.0267C22.5956 14.0444 22.5867 14.0711 22.5778 14.0889C22.5334 14.1422 22.489 14.2044 22.5067 14.2844C22.4712 14.4 22.4267 14.5155 22.3912 14.6311C22.3378 14.6489 22.3645 14.6933 22.3556 14.7289C22.3378 14.7822 22.3112 14.8355 22.2934 14.8889C22.2401 14.9067 22.2667 14.9511 22.2578 14.9867L22.249 14.9689ZM22.409 16.6133C22.409 16.6133 22.4001 16.5955 22.3912 16.5867C22.3912 16.5867 22.3823 16.6044 22.3734 16.6044C22.169 16.6044 21.9556 16.6044 21.7423 16.6044C21.7245 16.5778 21.7156 16.5778 21.6978 16.6044C21.6801 16.6222 21.6534 16.6311 21.6445 16.6578C21.5912 16.8089 21.5467 16.96 21.5023 17.1111C21.5023 17.12 21.4845 17.1378 21.4756 17.1467C21.369 17.44 21.2712 17.7333 21.1556 18.0355C21.4401 18.0355 21.7156 18.0355 21.9823 18.0355C22.0445 18.0355 22.1156 18.0178 22.1778 17.9911C22.5956 17.8222 22.8178 17.5022 22.8801 17.0667C22.9156 17.0222 22.9156 16.9689 22.8801 16.9244C22.8623 16.7733 22.7645 16.7022 22.6312 16.6667C22.6134 16.6667 22.6045 16.6489 22.5956 16.64C22.5512 16.6311 22.5067 16.6222 22.4712 16.6133C22.4534 16.6133 22.4267 16.6133 22.409 16.6133ZM7.68896 10.3555C7.68896 10.3555 7.67118 10.3822 7.66229 10.3911C7.62674 10.4533 7.60896 10.5155 7.56451 10.5689C7.4134 10.7467 7.32451 10.96 7.19118 11.1555C7.1734 11.1822 7.16451 11.2267 7.14674 11.2533C7.13785 11.2711 7.12896 11.2978 7.12007 11.3155C7.0134 11.5733 6.84451 11.7867 6.76451 12.0533C6.72896 12.1955 6.65785 12.32 6.60451 12.4533C6.58674 12.5067 6.56896 12.56 6.54229 12.6133C6.54229 12.6222 6.54229 12.6311 6.54229 12.64C6.49785 12.6755 6.39118 18.9155 6.42674 19.0222C6.42674 19.04 6.42674 19.0578 6.42674 19.0755C6.42674 19.0755 6.43562 19.0755 6.44451 19.0755C6.44451 19.0578 6.4534 19.04 6.46229 19.0222C6.46229 19.0044 6.48007 18.9955 6.48896 18.9778C6.49785 18.9511 6.50674 18.9155 6.52451 18.8889C6.52451 18.8711 6.5334 18.8533 6.54229 18.8355C6.54229 18.8267 6.55118 18.8089 6.56007 18.8C6.64896 18.5511 6.72896 18.3022 6.81785 18.0533C6.8534 17.9555 6.88007 17.8578 6.91563 17.7511C6.91563 17.7244 6.9334 17.7067 6.94229 17.68C6.94229 17.6711 6.94229 17.6622 6.95118 17.6533C6.95118 17.6444 6.96007 17.6267 6.96896 17.6178C6.98674 17.5644 7.00451 17.52 7.0134 17.4667C7.0134 17.4578 7.02229 17.44 7.03118 17.4311C7.04007 17.3867 7.05785 17.3511 7.06674 17.3067C7.07562 17.2711 7.08451 17.2444 7.10229 17.2089C7.10229 17.2089 7.12007 17.1644 7.12896 17.1378C7.12896 17.1378 7.12896 17.12 7.12896 17.1111C7.13785 17.0844 7.14674 17.0667 7.15563 17.04C7.16451 17.0044 7.1734 16.9778 7.19118 16.9422C7.20007 16.8978 7.21785 16.8622 7.22674 16.8178C7.29785 16.7467 7.30674 16.6578 7.31562 16.56C7.37785 16.4 7.44007 16.24 7.50229 16.0889C7.68007 15.6 8.8534 12.2133 8.89785 12.0978C8.90674 12.0711 8.94229 12.0444 8.96007 12.0178H8.97785H8.99562H9.05785C9.23562 12.0178 9.40451 12.0178 9.58229 12.0178C10.1512 12.0178 10.7112 12.0178 11.2801 12.0178H11.7867C11.7867 12.0178 11.849 12.0178 11.8934 12.0267C11.8756 12.1422 10.9778 16.8533 10.9867 16.88C11.0045 16.8711 11.0134 16.8533 11.0312 16.8444C11.0312 16.8355 13.369 12.2044 13.3778 12.1867C13.4312 12.16 13.4401 12.1155 13.4401 12.0622C13.4578 12.0444 13.4845 12.0355 13.5023 12.0178C13.5645 12.0178 13.6178 12.0178 13.6801 12.0178C15.7601 12.0178 17.8312 12.0178 19.9112 12.0178C21.4756 12.0178 23.0401 12.0178 24.6045 12.0178C24.649 12.0178 24.6845 12.0178 24.729 12.0178C24.8267 12.0711 24.9334 12.08 25.049 12.08C25.0578 12.08 25.0667 12.08 25.0756 12.08C25.1556 12.1244 25.2356 12.1689 25.3512 12.16C25.3067 12.0889 25.2801 12.0355 25.2445 11.9733C25.2445 11.9733 25.2267 11.9289 25.2178 11.9111C25.2178 11.9022 25.2178 11.8933 25.2178 11.8844C25.209 11.8667 25.2001 11.84 25.1823 11.8222C25.1823 11.8222 25.1645 11.7955 25.1556 11.7867C25.1467 11.76 25.1467 11.7244 25.129 11.6978C24.9778 11.4222 24.8356 11.1467 24.6845 10.8711C24.6401 10.7822 24.5956 10.6933 24.5423 10.6133C24.4712 10.5067 24.4001 10.4 24.329 10.2933C24.2934 10.24 24.2756 10.1778 24.2312 10.1422C24.1067 10.0444 24.0267 9.90221 23.929 9.78665C23.7867 9.61776 23.6623 9.42221 23.4934 9.2711C23.4401 9.21776 23.3956 9.14665 23.3423 9.09332C23.209 8.95998 23.0845 8.82665 22.9512 8.70221C22.8801 8.63999 22.809 8.58665 22.8001 8.48887C22.7201 8.42665 22.6578 8.35554 22.5778 8.31998C22.489 8.27554 22.409 8.22221 22.3378 8.15999C22.1245 7.98221 21.9112 7.80443 21.6801 7.64443C21.609 7.59999 21.529 7.56443 21.4667 7.51999C21.2267 7.34221 20.969 7.19999 20.7112 7.05776C20.6845 7.03999 20.6578 7.02221 20.6223 7.01332C20.4623 6.97776 20.3378 6.88887 20.1956 6.81776C20.0445 6.73776 19.9023 6.65776 19.7423 6.60443C19.449 6.50665 19.1467 6.40887 18.8534 6.3111C18.8178 6.30221 18.7823 6.29332 18.7467 6.28443C18.5245 6.2311 18.2934 6.19554 18.0801 6.13332C17.9201 6.08887 17.769 6.06221 17.609 6.03554C17.4312 6.00887 17.2534 5.97332 17.0667 5.96443C16.8623 5.96443 16.6578 5.9111 16.4623 5.9111C16.0267 5.90221 15.6001 5.89332 15.1645 5.93776C15.0401 5.94665 14.9156 5.95554 14.7912 5.97332C14.7112 5.98221 14.6312 5.9911 14.5601 6.01776C14.4267 6.06221 14.2845 6.08887 14.1512 6.09776C14.0445 6.09776 13.929 6.11554 13.8223 6.13332C13.7512 6.14221 13.6712 6.16887 13.6001 6.19554C13.4045 6.25776 13.2001 6.30221 13.0045 6.37332C12.7645 6.45332 12.5245 6.54221 12.2845 6.63999C12.1156 6.7111 11.9467 6.78221 11.7867 6.86221C11.6712 6.91554 11.5645 7.01332 11.4401 7.03999C11.3156 7.06665 11.2178 7.13776 11.1201 7.1911C10.8623 7.3511 10.6134 7.5111 10.3645 7.67999C10.1867 7.80443 10.0178 7.93776 9.84896 8.06221C9.76007 8.12443 9.68896 8.21332 9.58229 8.23999C9.53785 8.28443 9.4934 8.33776 9.44007 8.36443C9.35118 8.41776 9.28007 8.48887 9.21785 8.57776C9.20007 8.60443 9.1734 8.62221 9.15562 8.64887C9.03118 8.76443 8.89785 8.87999 8.7734 9.00443C8.66674 9.1111 8.56896 9.20887 8.47118 9.32443C8.34674 9.46665 8.23118 9.61776 8.10674 9.76887C7.9734 9.93776 7.8134 10.0978 7.7334 10.3022C7.7334 10.3111 7.71562 10.32 7.70674 10.3289M25.3067 15.0844C25.3067 15.0844 25.2801 15.1022 25.2712 15.1111C24.9245 15.3067 24.5778 15.5022 24.2312 15.6978C24.2756 15.7155 24.3023 15.7333 24.329 15.7422C24.569 15.8311 24.7734 15.9822 24.9067 16.2044C24.9423 16.2667 24.9867 16.3289 25.0223 16.3911C25.0223 16.4 25.0223 16.4089 25.0223 16.4267L25.049 16.4711C25.049 16.6222 25.049 16.7822 25.049 16.9333C25.049 16.9511 25.049 16.9778 25.049 16.9955C25.0134 17.1378 24.9867 17.28 24.9512 17.4222C24.8801 17.6711 24.7823 17.9022 24.6401 18.1244C24.4623 18.4 24.249 18.64 24.0178 18.8711C23.7778 19.1022 23.5023 19.2889 23.2178 19.44C23.0045 19.5555 22.7734 19.6267 22.5512 19.6978C22.5423 19.6978 22.5245 19.6978 22.5156 19.6978C22.4978 19.6978 22.4712 19.6978 22.4534 19.6978C22.4445 19.6978 22.4356 19.7155 22.4178 19.7155C22.4178 19.7155 22.4001 19.7155 22.3823 19.7155C22.329 19.7244 22.2756 19.7333 22.2223 19.7422C22.2134 19.7422 22.1956 19.7422 22.1867 19.7422C22.009 19.7689 21.8401 19.8044 21.6623 19.8044C20.6134 19.8044 19.5734 19.8044 18.5245 19.8044C18.5067 19.8044 18.4801 19.8044 18.4445 19.8044C18.6312 19.2711 18.8178 18.7378 19.0134 18.2133C19.0134 18.1955 19.0312 18.1778 19.0401 18.1511C19.0401 18.1422 19.0401 18.1244 19.0401 18.1155C19.0401 18.1067 19.049 18.0978 19.0578 18.0889C19.0667 18.0355 19.0756 17.9822 19.0934 17.9378C19.1467 17.7778 19.209 17.6267 19.2623 17.4755C19.3423 17.2444 19.4223 17.0044 19.5023 16.7733C19.5023 16.7555 19.5201 16.7467 19.529 16.7378C19.529 16.72 19.529 16.7022 19.529 16.6844C19.529 16.6667 19.5467 16.6578 19.5556 16.6489C19.5912 16.5511 19.6178 16.4622 19.6445 16.3644C19.6534 16.3289 19.6712 16.3022 19.6801 16.2667V16.2489C19.6801 16.2311 19.6978 16.2222 19.7067 16.2133C19.7067 16.1955 19.7067 16.1778 19.7067 16.16C19.7067 16.16 19.7245 16.1333 19.7245 16.1244C19.7601 16.0178 19.7956 15.92 19.8312 15.8133C19.8756 15.8044 19.8934 15.7778 19.8756 15.7333L19.9023 15.6178C19.9023 15.6178 19.9112 15.5911 19.9201 15.5822C19.9201 15.5733 19.9201 15.5644 19.9201 15.5555C19.929 15.5289 19.9378 15.5111 19.9467 15.4933C19.9912 15.36 20.0445 15.2267 20.089 15.0844C20.0978 15.0667 20.1067 15.0489 20.1156 15.0311C20.1156 15.0222 20.1156 15.0133 20.1245 15.0044C20.1778 15.0044 20.1601 14.9689 20.1512 14.9422V14.9067C20.2134 14.8622 20.2223 14.8089 20.2134 14.7467C20.2134 14.7378 20.2134 14.7289 20.2134 14.72C20.3023 14.6133 20.3201 14.48 20.3467 14.3467C20.3556 14.3022 20.3734 14.2578 20.3823 14.2222C20.3823 14.2133 20.4001 14.1955 20.409 14.1867C20.4178 14.1867 20.4267 14.1867 20.4356 14.1778C20.4356 14.1778 20.4178 14.1689 20.4178 14.16C20.4178 14.1422 20.4267 14.1244 20.4356 14.1067C20.4445 14.0889 20.4534 14.0711 20.4623 14.0533C20.4623 14.0355 20.4712 14.0178 20.4801 14C20.4801 13.9911 20.489 13.9733 20.4978 13.9644C20.4978 13.9378 20.5067 13.9022 20.5067 13.8755C20.5067 13.8755 20.5156 13.8667 20.5245 13.8578C20.4978 13.8578 20.4712 13.8578 20.4445 13.8578C20.0534 13.8578 19.6534 13.8578 19.2623 13.8578C19.2356 13.8578 19.209 13.8578 19.1912 13.8667C19.1912 13.8933 19.1912 13.9022 19.1912 13.92C19.1734 13.9733 19.1467 14.0267 19.129 14.08C19.1201 14.1155 19.1112 14.1422 19.0934 14.1778C19.0934 14.1955 19.0845 14.2133 19.0756 14.24C19.0756 14.2489 19.0667 14.2667 19.0578 14.2755C19.0578 14.2933 19.049 14.32 19.0401 14.3378C19.0401 14.3467 19.0312 14.3644 19.0223 14.3733C19.0223 14.3822 19.0223 14.3911 19.0223 14.4C19.0223 14.4178 19.0045 14.4444 18.9956 14.4622C18.9601 14.5689 18.9245 14.6755 18.889 14.7822C18.889 14.7911 18.8801 14.8089 18.8712 14.8178L18.8267 14.9422C18.8267 14.9422 18.809 14.9867 18.8001 15.0044C18.7645 15.1022 18.729 15.1911 18.7023 15.2889C18.7023 15.3067 18.6845 15.3333 18.6756 15.3511C18.5956 15.5822 18.5156 15.8133 18.4356 16.0444C18.4356 16.0533 18.4267 16.0711 18.4178 16.08C18.409 16.1244 18.3912 16.16 18.3823 16.2044C18.3823 16.2222 18.3645 16.2311 18.3556 16.24C18.3556 16.2578 18.3467 16.2755 18.3378 16.2933C18.3378 16.3022 18.3201 16.32 18.3201 16.3289C18.2934 16.4 18.2756 16.4711 18.249 16.5422C18.2401 16.5689 18.2312 16.5867 18.2223 16.6133C18.1512 16.8267 18.0712 17.04 18.0001 17.2533C17.9556 17.3778 17.9201 17.4933 17.8756 17.6178C17.8667 17.6444 17.8578 17.6622 17.849 17.6889C17.8223 17.7511 17.8045 17.8044 17.7778 17.8667C17.6712 18.1511 17.5734 18.4444 17.4667 18.7289C17.369 19.0044 17.2712 19.2889 17.1823 19.5644C17.1823 19.5822 17.1823 19.6 17.1823 19.6267C17.1467 19.7067 17.1112 19.7778 17.0756 19.8489H15.0045C15.0401 19.7333 15.0667 19.6178 15.1023 19.5111C15.1023 19.5022 15.1201 19.4844 15.129 19.4755C15.129 19.4578 15.1467 19.4489 15.1556 19.4311C15.3867 18.7644 17.0845 13.92 17.0934 13.8933C17.0756 13.8844 17.0578 13.8578 17.0401 13.8578C16.6401 13.8578 16.2312 13.8578 15.8312 13.8578C15.8134 13.8578 15.7956 13.8755 15.769 13.8933C15.7601 13.9289 14.4801 17.5378 14.3467 17.92C14.1867 18.3822 14.0178 18.8533 13.8578 19.3155C13.7956 19.4933 13.7245 19.6711 13.6623 19.8578C13.0401 19.8578 12.4356 19.8578 11.8312 19.8578C11.8134 19.8578 11.7867 19.84 11.769 19.8222C11.769 19.8133 11.769 19.8044 11.769 19.7867C11.8756 19.5022 11.9734 19.2089 12.0801 18.9244C12.169 18.6755 12.2578 18.4267 12.3378 18.1778C12.4178 17.9378 12.4978 17.6978 12.569 17.4489C12.569 17.44 12.5867 17.4222 12.5956 17.4133C12.6401 17.28 12.6845 17.1467 12.729 17.0133C12.8001 16.8089 12.8712 16.6044 12.9423 16.4C12.9601 16.3555 12.9867 16.3111 12.9956 16.2667C13.129 15.8844 13.6534 14.3555 13.7867 13.9822C13.8134 13.9289 13.8312 13.8755 13.8578 13.8222C13.9023 13.7689 13.9201 13.7155 13.9201 13.6267C13.8934 13.6533 13.8756 13.6711 13.8667 13.68C13.8667 13.7067 13.8667 13.7333 13.8667 13.76C13.7956 13.84 13.7512 13.9022 13.7156 14.0178C13.6445 14.1511 12.5867 16.1244 12.4445 16.3911C12.3823 16.4978 12.3112 16.6044 12.249 16.7111C11.929 17.2978 11.609 17.8933 11.2978 18.48C11.1112 18.8355 10.9156 19.1911 10.729 19.5467C10.6756 19.6444 10.6134 19.7422 10.5601 19.84C10.089 19.8667 9.28896 19.8578 9.1734 19.8222C9.18229 19.7778 9.19118 19.7333 9.20007 19.6889C9.20007 19.68 9.20007 19.6622 9.20007 19.6533C9.23563 19.4755 9.26229 19.2978 9.29785 19.1111C9.29785 19.0755 9.29785 19.0489 9.29785 19.0133C9.29785 18.9778 9.31562 18.9511 9.32451 18.9155C9.32451 18.8978 9.32451 18.8711 9.32451 18.8533C9.3334 18.8089 9.34229 18.7644 9.35118 18.7289C9.35118 18.72 9.35118 18.7111 9.35118 18.6933C9.35118 18.6489 9.35118 18.6133 9.35118 18.5778C9.35118 18.5689 9.36896 18.5511 9.37785 18.5422C9.37785 18.5333 9.37785 18.5244 9.37785 18.5155C9.37785 18.5067 9.39562 18.4889 9.39562 18.48C9.39562 18.4533 9.39562 18.4178 9.39562 18.3911C9.39562 18.3822 9.39562 18.3733 9.39562 18.3555C9.39562 18.3467 9.39562 18.3378 9.39562 18.3289C9.39562 18.32 9.40451 18.3022 9.4134 18.2933L9.45785 18.0089C9.45785 18.0089 9.45785 17.9911 9.45785 17.9733C9.45785 17.9644 9.45785 17.9555 9.45785 17.9467L9.47562 17.9111C9.47562 17.9111 10.1423 13.9644 10.1423 13.9111C10.0801 14.0089 8.82674 17.6533 8.68451 18.0622C8.68451 18.0889 8.66674 18.1067 8.65785 18.1333C8.4534 18.7022 8.25785 19.28 8.0534 19.8489H6.72896C6.67563 19.8667 6.68451 19.8844 6.72896 19.9111C6.80007 20.08 6.88007 20.2489 6.95118 20.4178C6.96007 20.4355 6.96896 20.4622 6.98674 20.48C7.00451 20.4978 7.00451 20.5244 7.02229 20.5422C7.02229 20.5422 7.04007 20.5867 7.05785 20.6044C7.0934 20.6667 7.12007 20.7289 7.15563 20.7822C7.21785 20.88 7.28007 20.9867 7.34229 21.0844C7.37785 21.1467 7.39562 21.2178 7.44007 21.28C7.64451 21.5644 7.80451 21.8755 8.03562 22.1422C8.25785 22.3911 8.46229 22.6578 8.68451 22.9067C8.95118 23.1911 9.22674 23.4578 9.53785 23.6978C9.7334 23.8489 9.92896 24.0089 10.1334 24.16C10.4712 24.4089 10.8267 24.6222 11.1912 24.8178C11.4045 24.9333 11.6178 25.04 11.8312 25.1378C12.0623 25.2444 12.2845 25.3333 12.5245 25.4222C12.8801 25.5555 13.2534 25.6533 13.6267 25.7511C13.8667 25.8133 14.1067 25.8578 14.3556 25.9022C14.5067 25.9289 14.649 25.9467 14.8001 25.9644C14.9956 25.9911 15.1912 26.0178 15.3867 26.0178C15.6623 26.0178 15.9467 26.0178 16.2223 26.0178C16.4978 26.0178 16.7645 26 17.0401 25.9822C17.1556 25.9822 17.2712 25.9644 17.3778 25.9467C17.5201 25.92 17.6623 25.8933 17.8045 25.8578C17.9912 25.8222 18.1867 25.7955 18.3645 25.7511C18.5512 25.7067 18.7378 25.6444 18.9245 25.5822C19.2712 25.4667 19.609 25.3511 19.9467 25.2089C20.4178 25.0133 20.8623 24.7644 21.2978 24.5067C21.6001 24.3289 21.8934 24.1333 22.1601 23.9022C22.4178 23.6889 22.6756 23.4755 22.9245 23.2533C23.1645 23.0311 23.3867 22.8 23.5912 22.5333C23.7334 22.3467 23.8845 22.1778 24.0267 22C24.249 21.7067 24.4712 21.4044 24.6312 21.0755C24.6667 21.0222 24.6934 20.9689 24.729 20.9155C24.7378 20.8978 24.7467 20.8711 24.7645 20.8533C24.7734 20.8444 24.7823 20.8267 24.7912 20.8178C24.7912 20.8089 24.7912 20.8 24.7912 20.7911C24.8001 20.7822 24.809 20.7644 24.8178 20.7555C24.8712 20.6667 24.9245 20.5689 24.969 20.48C24.9867 20.4355 24.9956 20.3911 25.0134 20.3467C25.0312 20.3111 25.049 20.2755 25.0756 20.2489C25.0756 20.24 25.0756 20.2311 25.0756 20.2222C25.0845 20.2133 25.0934 20.1955 25.1023 20.1867C25.1023 20.1867 25.1023 20.1689 25.1023 20.16C25.1112 20.1511 25.1201 20.1333 25.129 20.1244C25.129 20.1244 25.129 20.1067 25.129 20.0978C25.129 20.0889 25.1467 20.0711 25.1556 20.0622C25.1645 20.0267 25.1823 20 25.1912 19.9644C25.2445 19.9289 25.2534 19.8667 25.2534 19.8044C25.2534 19.8044 25.2712 19.76 25.289 19.7422C25.3601 19.5378 25.449 19.3422 25.5112 19.1289C25.609 18.8 25.7067 18.4622 25.7956 18.1244C25.8312 17.9911 25.8401 17.8489 25.8667 17.7067C25.9023 17.68 25.9378 17.6533 25.9112 17.6C25.9112 17.5467 25.9112 17.4933 25.9201 17.44C25.9201 17.44 25.9378 17.4311 25.9467 17.4222C25.9467 17.4222 25.929 17.4133 25.9201 17.4044C25.929 17.3511 25.9378 17.2978 25.9467 17.2444C25.9467 17.2355 25.9467 17.2267 25.9467 17.2089C25.9467 17.2 25.9467 17.1911 25.9467 17.1733C25.9467 17.1555 25.9645 17.1289 25.9645 17.1111C25.9645 17.0667 25.9645 17.0311 25.9645 16.9867C25.9645 16.9689 25.9645 16.9422 25.9645 16.9244C25.9645 16.9067 25.9645 16.88 25.9645 16.8622C26.0001 16.8444 26.0001 16.8178 25.9645 16.7911C25.9734 16.7289 25.9823 16.6667 25.9912 16.6044C25.9912 16.5689 25.9912 16.5422 25.9912 16.5067C25.9912 16.4889 25.9912 16.4622 25.9912 16.4444C26.0356 16.3555 26.0356 16.2755 25.9912 16.1867C25.9912 16.1244 25.9912 16.0622 25.9912 16C25.9912 15.9022 25.9912 15.8133 25.9912 15.7155C26.0001 15.6978 26.0178 15.6711 26.0178 15.6533C26.009 15.5111 25.9912 15.3778 25.9823 15.2355C25.9823 15.1911 25.9645 15.1555 25.9645 15.1111C26.0001 15.0844 26.0001 15.0667 25.9645 15.0489C25.9645 15.0311 25.9645 15.0044 25.9645 14.9867C25.9645 14.9778 25.9645 14.96 25.9645 14.9511C25.9645 14.8889 25.9645 14.8267 25.9467 14.7733C25.9645 14.7467 25.9734 14.72 25.929 14.7022C25.929 14.6933 25.929 14.6844 25.929 14.6755C25.929 14.6578 25.9201 14.6489 25.9112 14.6311C25.9112 14.5867 25.9112 14.5511 25.9023 14.5067C25.9378 14.4889 25.929 14.48 25.9023 14.4711C25.8934 14.4178 25.8845 14.3644 25.8756 14.3111C25.9023 14.2933 25.9023 14.2844 25.8756 14.2755C25.8756 14.2489 25.8756 14.2133 25.8667 14.1867C25.8667 14.16 25.8667 14.1422 25.8578 14.1155C25.8578 14.1155 25.8401 14.1155 25.8312 14.1155C25.8312 14.1333 25.8223 14.16 25.8134 14.1778C25.6978 14.4978 25.5023 14.7733 25.2623 15.0222C25.2534 15.0311 25.2445 15.04 25.2356 15.0578M7.76896 24.8355C7.76896 24.8355 7.75118 24.8355 7.74229 24.8355C7.71562 24.7733 7.66229 24.7644 7.60896 24.7467C7.59118 24.7378 7.56451 24.72 7.54674 24.7111C7.52896 24.7022 7.50229 24.6933 7.48451 24.6755C7.48451 24.6755 7.42229 24.6311 7.38674 24.6133C7.36896 24.6044 7.34229 24.5867 7.32451 24.5778C7.30674 24.5689 7.28007 24.5511 7.26229 24.5422C7.2534 24.5333 7.23563 24.5244 7.22674 24.5155C6.89785 24.3289 6.56896 24.1333 6.24007 23.9467C6.24007 23.9467 6.22229 23.9378 6.2134 23.9467C6.2134 23.9467 6.15118 23.9022 6.11563 23.8844C6.11563 23.8844 6.07118 23.8578 6.0534 23.8489C5.98229 23.8044 5.91118 23.76 5.83118 23.7244C5.83118 23.7244 5.80451 23.7067 5.79563 23.6978C5.54674 23.5555 5.30674 23.4133 5.05785 23.2711C4.78229 23.1111 4.50674 22.9511 4.22229 22.7911C4.16007 22.7555 4.1334 22.72 4.14229 22.6578C4.17785 22.6222 4.17785 22.5867 4.14229 22.56C4.14229 22.3111 4.14229 22.0533 4.14229 21.8044C4.17785 21.7778 4.17785 21.76 4.14229 21.7333C4.14229 21.6978 4.14229 21.6622 4.14229 21.6267C4.14229 17.4844 4.14229 13.3511 4.14229 9.20887V9.13776C4.25785 9.06665 4.3734 8.99554 4.48896 8.93332C4.49785 8.93332 4.51563 8.91554 4.52451 8.90665C4.52451 8.90665 4.56896 8.87998 4.58674 8.8711C4.64007 8.84443 4.6934 8.80887 4.74674 8.78221C4.76451 8.77332 4.79118 8.75554 4.80896 8.74665C4.80896 8.74665 4.8534 8.71999 4.87118 8.7111C4.88007 8.70221 4.89785 8.69332 4.90674 8.68443C4.90674 8.68443 4.95118 8.65776 4.96896 8.64887C4.98674 8.63998 5.0134 8.62221 5.03118 8.61332C5.04007 8.61332 5.05785 8.59554 5.06674 8.58665C5.06674 8.58665 5.08451 8.58665 5.0934 8.58665C5.10229 8.58665 5.12007 8.56887 5.12896 8.55999C5.1734 8.54221 5.20896 8.51554 5.2534 8.49776C5.26229 8.48887 5.28007 8.47998 5.28896 8.4711C5.28896 8.4711 5.3334 8.44443 5.35118 8.43554C5.53785 8.32887 5.72451 8.2311 5.91118 8.12443C6.36451 7.86665 6.81785 7.59999 7.27118 7.34221C7.4134 7.26221 7.54674 7.18221 7.68896 7.09332C7.71562 7.07554 7.7334 7.05776 7.76007 7.03999C7.76007 7.03999 7.80451 7.01332 7.82229 7.00443C7.82229 7.00443 7.84007 7.00443 7.84896 7.00443C7.85785 7.00443 7.87562 6.98665 7.88451 6.97776C8.17785 6.80887 8.48007 6.63999 8.7734 6.4711C8.89785 6.39999 9.02229 6.31999 9.15562 6.24887C9.1734 6.23999 9.20007 6.22221 9.21785 6.21332C9.21785 6.21332 9.24451 6.19554 9.2534 6.18665C9.28007 6.17776 9.29785 6.15999 9.31562 6.1511C9.3334 6.14221 9.35118 6.12443 9.37785 6.11554C9.37785 6.11554 9.39563 6.09776 9.4134 6.08887C9.42229 6.08887 9.43118 6.07999 9.44007 6.07999C9.44896 6.07999 9.46674 6.06221 9.47562 6.05332C9.47562 6.05332 9.51118 6.02665 9.52896 6.01776C9.69785 5.91999 9.86674 5.82221 10.0356 5.72443C10.0445 5.71554 10.0623 5.70665 10.0712 5.69776C10.2578 5.5911 10.4445 5.49332 10.6312 5.38665C11.0223 5.16443 11.4045 4.94221 11.7867 4.7111C12.1512 4.49776 12.5156 4.29332 12.8801 4.07999C13.1912 3.90221 13.4934 3.71554 13.8045 3.53776C13.8223 3.52887 13.849 3.5111 13.8667 3.50221C13.9112 3.47554 13.9556 3.44887 14.0001 3.41332L14.1156 3.3511C14.1156 3.3511 14.1512 3.33332 14.169 3.31554C14.249 3.2711 14.3378 3.22665 14.4178 3.17332C14.4267 3.16443 14.4445 3.15554 14.4534 3.14665C14.4534 3.14665 14.4801 3.12887 14.489 3.11999C14.489 3.11999 14.5245 3.09332 14.5512 3.08443C14.5512 3.08443 14.5956 3.05776 14.6134 3.04887C14.6134 3.04887 14.6578 3.02221 14.6756 3.01332C14.6756 3.01332 14.7023 2.99554 14.7112 2.98665C14.9245 2.8711 15.1378 2.74665 15.3512 2.6311C15.5378 2.52443 15.7245 2.41776 15.9112 2.3111C15.9823 2.34665 16.0534 2.38221 16.1245 2.41776C16.249 2.51554 26.089 8.18665 26.6845 8.52443C26.7201 8.54221 26.7467 8.5511 26.7823 8.56887C26.8001 8.57776 26.8267 8.59554 26.8445 8.60443C27.0223 8.7111 27.209 8.81776 27.3867 8.92443C27.4934 8.98665 27.5912 9.04887 27.7067 9.1111V22.7555C27.2445 23.0222 26.7823 23.2978 26.3112 23.5644C26.3023 23.5733 26.2934 23.5822 26.2756 23.5911C26.2756 23.5911 26.2312 23.6178 26.2134 23.6267C26.169 23.6533 26.1334 23.6711 26.089 23.6978C26.0356 23.7333 25.9823 23.76 25.929 23.7955C25.9112 23.8044 25.8845 23.8133 25.8667 23.8311C25.8578 23.8311 25.8401 23.8489 25.8312 23.8578C25.8312 23.8578 25.7867 23.8844 25.769 23.8933C25.769 23.8933 25.7512 23.8933 25.7423 23.8933C25.7334 23.8933 25.7156 23.9111 25.7067 23.92C25.7067 23.92 25.689 23.92 25.6801 23.9289C25.6712 23.9289 25.6623 23.9467 25.6445 23.9555C25.6356 23.9555 25.6178 23.9733 25.609 23.9822C25.609 23.9822 25.5645 24.0089 25.5467 24.0178C25.4045 24.0978 25.2623 24.1778 25.1201 24.2578C24.7645 24.4622 24.4178 24.6667 24.0623 24.8711C23.929 24.9511 23.8045 25.0222 23.6712 25.1022C23.6356 25.1022 23.5912 25.1022 23.5734 25.1555C23.5556 25.1733 23.529 25.1822 23.5112 25.1911C23.4401 25.2355 23.3601 25.28 23.289 25.3155C23.289 25.3155 23.2445 25.3422 23.2267 25.3511C23.1734 25.3867 23.1201 25.4133 23.0667 25.44C23.0667 25.44 23.0045 25.4844 22.969 25.5022C22.969 25.5022 22.9512 25.5022 22.9423 25.5022C22.9067 25.52 22.8712 25.5378 22.8445 25.5644C22.6756 25.6622 22.5067 25.7511 22.3378 25.8489C21.9378 26.08 21.5467 26.3022 21.1556 26.5333C20.7201 26.7911 20.2756 27.04 19.8401 27.2978C19.5201 27.4844 19.209 27.6622 18.889 27.8489C18.8801 27.8489 18.8623 27.8667 18.8534 27.8755C18.8534 27.8755 18.809 27.9022 18.7912 27.9111C18.7734 27.92 18.7467 27.9378 18.729 27.9467C18.7112 27.9555 18.6934 27.9644 18.6667 27.9822C18.6312 28 18.5956 28.0267 18.5601 28.0444C18.5423 28.0533 18.5245 28.0622 18.5067 28.08C17.8223 28.4711 17.1378 28.8711 16.4534 29.2622C16.3556 29.3155 16.2578 29.3867 16.1601 29.44C16.1423 29.4489 16.1156 29.4667 16.0978 29.4755C16.0801 29.4844 16.0534 29.5022 16.0356 29.5111C16.0267 29.52 16.009 29.5289 16.0001 29.5378C16.0001 29.5378 15.9645 29.5467 15.9378 29.5555C15.7956 29.5289 15.689 29.4311 15.5645 29.3689C15.3245 29.2444 15.1023 29.1022 14.8712 28.9689C14.8534 28.96 14.8356 28.9511 14.8178 28.9333C14.8178 28.9333 14.7823 28.9067 14.7645 28.8978C14.7645 28.8978 14.7467 28.88 14.729 28.8711C14.729 28.8711 14.6934 28.8444 14.6667 28.8355C14.6667 28.8355 14.6401 28.8178 14.6312 28.8089C14.3378 28.64 14.0445 28.4622 13.7512 28.2933C13.3067 28.0355 12.8623 27.7867 12.4178 27.5289C12.4001 27.52 12.3823 27.5111 12.3645 27.5022C12.3645 27.5022 12.3378 27.4844 12.329 27.4755C12.3201 27.4755 12.3112 27.4755 12.3023 27.4667C12.2934 27.4667 12.2845 27.4489 12.2667 27.4489C12.2578 27.4489 12.249 27.4489 12.2312 27.44C12.2223 27.44 12.2134 27.4311 12.2045 27.4222C12.1867 27.4133 12.1601 27.3955 12.1423 27.3867C12.0534 27.3333 11.9734 27.2444 11.8578 27.2267C11.8578 27.2267 11.8312 27.2089 11.8223 27.2C11.4845 27.0044 11.1556 26.8089 10.8178 26.6133C10.329 26.3289 9.84896 26.0533 9.36007 25.7778C9.3334 25.76 9.31562 25.7511 9.28896 25.7422C9.2534 25.7244 9.22674 25.7067 9.19118 25.68C9.1734 25.6711 9.14674 25.6533 9.12896 25.6444C9.10229 25.5911 9.05785 25.5822 9.00451 25.5822C9.00451 25.5822 8.97785 25.5644 8.96896 25.5555C8.96007 25.5555 8.94229 25.5378 8.9334 25.5289C8.90674 25.5111 8.87118 25.4933 8.84451 25.4844C8.83562 25.4844 8.81785 25.4667 8.80896 25.4667C8.80896 25.4667 8.7734 25.44 8.74674 25.4311C8.73785 25.4311 8.72007 25.4133 8.71118 25.4044C8.68451 25.3867 8.64896 25.3778 8.62229 25.36C8.62229 25.36 8.56007 25.3155 8.52451 25.2978C8.47118 25.2622 8.41785 25.2355 8.36451 25.2L8.20451 25.1022C8.20451 25.1022 8.18674 25.1022 8.17785 25.1022C8.16896 25.0933 8.15118 25.0844 8.14229 25.0755C8.12451 25.0667 8.09785 25.0489 8.08007 25.04C8.04451 25.0222 8.00896 24.9955 7.98229 24.9778L7.92007 24.9422C7.92007 24.9422 7.85785 24.9067 7.82229 24.88C7.80451 24.8711 7.77785 24.8533 7.76007 24.8444" fill="#0D71AF"/>
<path d="M16.2139 2.47998C16.3116 2.47998 16.4183 2.49776 16.4894 2.57776C16.5072 2.59554 16.5428 2.59554 16.5694 2.61331" fill="#9EC3D1"/>
<path d="M11.9199 27.2711C12.0355 27.2889 12.1066 27.3778 12.2044 27.4311C12.1066 27.4489 12.0177 27.4311 11.9199 27.3867C11.9199 27.3511 11.9199 27.3156 11.9199 27.2711Z" fill="#9EC3D1"/>
<path d="M23.3867 25.3689C23.4578 25.3244 23.5289 25.28 23.6089 25.2444C23.6089 25.2711 23.6089 25.2978 23.6089 25.3333C23.5378 25.3422 23.4578 25.36 23.3867 25.3689Z" fill="#9EC3D1"/>
<path d="M5.88477 23.7866C5.95588 23.8311 6.03588 23.8755 6.10699 23.9111C6.00921 23.9377 5.95588 23.8755 5.88477 23.8311C5.88477 23.8311 5.88477 23.8044 5.88477 23.7866Z" fill="#9EC3D1"/>
<path d="M23.1641 25.5022C23.2174 25.4666 23.2707 25.44 23.3241 25.4044C23.3063 25.4696 23.253 25.5022 23.1641 25.5022Z" fill="#9EC3D1"/>
<path d="M26.0176 23.8489C26.0709 23.8133 26.1242 23.7867 26.1776 23.7511C26.1509 23.8311 26.1331 23.84 26.0176 23.8489Z" fill="#9EC3D1"/>
<path d="M8.2666 25.1555L8.4266 25.2533C8.33771 25.2533 8.28438 25.2207 8.2666 25.1555Z" fill="#9EC3D1"/>
<path d="M8.42676 25.2444C8.48009 25.28 8.53342 25.3067 8.58676 25.3422C8.4712 25.3422 8.45342 25.3244 8.42676 25.2444Z" fill="#9EC3D1"/>
<path d="M7.66211 24.8089C7.71544 24.8178 7.77767 24.8356 7.79544 24.8978C7.70655 24.8978 7.67989 24.88 7.66211 24.8089Z" fill="#9EC3D1"/>
<path d="M14.0708 3.46665C14.0708 3.46665 13.9819 3.51999 13.9375 3.55554C13.9553 3.45777 13.9642 3.45777 14.0708 3.46665Z" fill="#9EC3D1"/>
<path d="M14.1957 3.40442L14.0802 3.46664C14.0802 3.46664 14.0802 3.43109 14.0713 3.40442H14.1957Z" fill="#9EC3D1"/>
<path d="M9.06641 25.6266C9.11974 25.6266 9.16418 25.6444 9.19085 25.6889C9.13752 25.6889 9.0753 25.7066 9.06641 25.6266Z" fill="#9EC3D1"/>
<path d="M9.245 25.7244C9.245 25.7244 9.31611 25.76 9.34278 25.7866C9.29833 25.7866 9.23611 25.8133 9.245 25.7244Z" fill="#9EC3D1"/>
<path d="M8.0448 25.0311C8.0448 25.0311 8.10702 25.0666 8.14258 25.0933C8.09813 25.0933 8.03591 25.12 8.0448 25.0311Z" fill="#9EC3D1"/>
<path d="M7.44031 24.6755C7.44031 24.6755 7.50253 24.72 7.53809 24.7378C7.49364 24.7378 7.43142 24.7555 7.44031 24.6755Z" fill="#9EC3D1"/>
<path d="M6.16883 23.9467C6.16883 23.9467 6.23105 23.9822 6.2666 24.0089C6.22216 24.0089 6.15994 24.0355 6.16883 23.9467Z" fill="#9EC3D1"/>
<path d="M14.2575 3.3689C14.2575 3.3689 14.222 3.38667 14.2042 3.39556C14.2042 3.3689 14.2042 3.33334 14.1953 3.27112C14.2309 3.31556 14.2486 3.34223 14.2575 3.36001" fill="#9EC3D1"/>
<path d="M8.58679 25.3422C8.58679 25.3422 8.64902 25.3778 8.68457 25.4044C8.64013 25.4044 8.57791 25.4311 8.58679 25.3422Z" fill="#9EC3D1"/>
<path d="M8.68457 25.4044C8.68457 25.4044 8.74679 25.4311 8.77346 25.4489C8.74679 25.4489 8.72013 25.4666 8.70235 25.4755C8.70235 25.4578 8.70235 25.4311 8.69346 25.4133" fill="#9EC3D1"/>
<path d="M23.0664 25.5556C23.0664 25.5556 23.1286 25.52 23.1642 25.4933C23.1731 25.5911 23.1109 25.5556 23.0664 25.5556Z" fill="#9EC3D1"/>
<path d="M22.9424 25.6267C22.9424 25.6267 23.0135 25.5911 23.0402 25.5645C23.0402 25.6445 22.9868 25.6267 22.9424 25.6267Z" fill="#9EC3D1"/>
<path d="M23.6709 25.2089C23.6798 25.1555 23.7242 25.1555 23.7687 25.1555C23.7598 25.2089 23.7153 25.2089 23.6709 25.2089Z" fill="#73AEC2"/>
<path d="M7.82209 7.08443C7.82209 7.08443 7.77764 7.11998 7.75098 7.13776C7.75098 7.09331 7.76875 7.06665 7.82209 7.08443Z" fill="#9EC3D1"/>
<path d="M4.2041 22.6133C4.2041 22.6133 4.23966 22.6845 4.2041 22.7111V22.6133Z" fill="#73AEC2"/>
<path d="M16.1865 29.5289C16.1865 29.5289 16.231 29.5022 16.2487 29.4933C16.2487 29.5467 16.2132 29.5289 16.1865 29.5289Z" fill="#9EC3D1"/>
<path d="M14.8979 28.9866C14.8979 28.9866 14.9334 29.0044 14.9512 29.0222C14.9245 29.0222 14.889 29.04 14.8979 28.9866Z" fill="#73AEC2"/>
<path d="M14.8442 28.9511C14.8442 28.9511 14.8797 28.9689 14.8975 28.9778C14.8708 28.9778 14.8353 29.0044 14.8442 28.9511Z" fill="#73AEC2"/>
<path d="M14.7383 28.8978C14.7383 28.8978 14.7738 28.9155 14.8005 28.9333C14.7738 28.9333 14.7472 28.9422 14.7383 28.8978Z" fill="#73AEC2"/>
<path d="M18.5957 28.1333C18.5957 28.1333 18.6313 28.1156 18.649 28.0978C18.649 28.1422 18.6224 28.1333 18.5957 28.1333Z" fill="#73AEC2"/>
<path d="M18.7559 28.0356C18.7559 28.0356 18.7914 28.0178 18.8181 28C18.8181 28.0444 18.7825 28.0356 18.7559 28.0356Z" fill="#73AEC2"/>
<path d="M18.8799 27.9733C18.8799 27.9733 18.9243 27.9555 18.9421 27.9377C18.9421 27.9911 18.9065 27.9733 18.8799 27.9733Z" fill="#9EC3D1"/>
<path d="M12.4272 27.5645C12.4272 27.5645 12.4627 27.5822 12.4805 27.5911C12.4538 27.5911 12.4183 27.6089 12.4272 27.5645Z" fill="#73AEC2"/>
<path d="M14.7644 3.07555C14.7644 3.07555 14.7199 3.10222 14.7021 3.11111C14.7021 3.06667 14.7377 3.07555 14.7644 3.07555Z" fill="#9EC3D1"/>
<path d="M8.80859 25.4667C8.80859 25.4667 8.84415 25.4933 8.87082 25.5022C8.84415 25.5022 8.81748 25.5111 8.80859 25.4667Z" fill="#73AEC2"/>
<path d="M14.7019 3.11108C14.7019 3.11108 14.6574 3.13774 14.6396 3.14663C14.6396 3.10219 14.6752 3.11108 14.7019 3.11108Z" fill="#9EC3D1"/>
<path d="M14.6403 3.14664C14.6403 3.14664 14.6048 3.16442 14.5781 3.1822C14.5781 3.12887 14.6137 3.14664 14.6403 3.14664Z" fill="#9EC3D1"/>
<path d="M23.3242 25.4045C23.3242 25.4045 23.3687 25.3778 23.3864 25.3689C23.3864 25.4133 23.3509 25.4045 23.3242 25.4045Z" fill="#9EC3D1"/>
<path d="M13.9382 3.55554C13.9382 3.55554 13.8938 3.5822 13.876 3.59109C13.876 3.54665 13.9115 3.55554 13.9382 3.55554Z" fill="#9EC3D1"/>
<path d="M9.60021 6.06219C9.60021 6.06219 9.56465 6.07997 9.54688 6.09774C9.54688 6.0533 9.57354 6.06219 9.60021 6.06219Z" fill="#73AEC2"/>
<path d="M7.98242 24.9955L8.04464 25.0311C8.04464 25.0311 7.98242 25.0311 7.98242 24.9955Z" fill="#9EC3D1"/>
<path d="M7.82227 24.8978C7.82227 24.8978 7.86671 24.9244 7.88449 24.9333C7.86671 24.9244 7.84004 24.9067 7.82227 24.8978Z" fill="#9EC3D1"/>
<path d="M7.59961 24.7733C7.59961 24.7733 7.64405 24.8 7.66183 24.8089C7.64405 24.8 7.61739 24.7822 7.59961 24.7733Z" fill="#9EC3D1"/>
<path d="M7.53809 24.7378C7.53809 24.7378 7.58253 24.7556 7.60031 24.7733C7.57364 24.7733 7.53809 24.7822 7.53809 24.7378Z" fill="#9EC3D1"/>
<path d="M7.37793 24.64C7.37793 24.64 7.42237 24.6667 7.44015 24.6756C7.41348 24.6756 7.37793 24.6756 7.37793 24.64Z" fill="#9EC3D1"/>
<path d="M25.6357 24.0711C25.6357 24.0711 25.6802 24.0533 25.698 24.0355C25.698 24.0889 25.6624 24.0711 25.6357 24.0711Z" fill="#9EC3D1"/>
<path d="M9.44015 6.15997C9.44015 6.15997 9.4046 6.18663 9.37793 6.19552C9.37793 6.15108 9.4046 6.15997 9.44015 6.15997Z" fill="#73AEC2"/>
<path d="M25.8574 23.9466C25.8574 23.9466 25.9019 23.9288 25.9196 23.9111C25.9196 23.9644 25.8841 23.9466 25.8574 23.9466Z" fill="#9EC3D1"/>
<path d="M6.10645 23.9111C6.10645 23.9111 6.15089 23.9377 6.16867 23.9466C6.142 23.9466 6.10645 23.9555 6.10645 23.9111Z" fill="#9EC3D1"/>
<path d="M9.28 6.24889C9.28 6.24889 9.24444 6.27556 9.21777 6.28445C9.21777 6.24001 9.25333 6.24889 9.28 6.24889Z" fill="#73AEC2"/>
<path d="M16.0264 29.6089C16.0264 29.6089 16.0619 29.6 16.0886 29.5911C16.0886 29.6445 16.0619 29.6356 16.0264 29.6089Z" fill="#9EC3D1"/>
<path d="M26.3027 23.6889C26.3027 23.6889 26.3472 23.6711 26.365 23.6622C26.365 23.7156 26.3294 23.6978 26.3027 23.6889Z" fill="#9EC3D1"/>
<path d="M4.2041 21.7866C4.2041 21.7866 4.23966 21.8311 4.2041 21.8577V21.7866Z" fill="#73AEC2"/>
<path d="M7.88449 7.04886C7.88449 7.04886 7.84004 7.06664 7.82227 7.08442C7.82227 7.03109 7.85782 7.04886 7.88449 7.04886Z" fill="#9EC3D1"/>
<path d="M5.41378 8.47996C5.41378 8.47996 5.36934 8.49773 5.35156 8.51551C5.35156 8.46218 5.38712 8.47996 5.41378 8.47996Z" fill="#9EC3D1"/>
<path d="M26.9333 8.66663C26.9333 8.66663 26.8889 8.63997 26.8711 8.63108C26.8978 8.63108 26.9333 8.6133 26.9333 8.66663Z" fill="#9EC3D1"/>
<path d="M5.03097 8.69334C5.03097 8.69334 4.98653 8.71111 4.96875 8.72889C4.96875 8.67556 5.00431 8.69334 5.03097 8.69334Z" fill="#9EC3D1"/>
<path d="M4.93332 8.75555C4.93332 8.75555 4.88887 8.78221 4.87109 8.7911C4.87109 8.74666 4.90665 8.75555 4.93332 8.75555Z" fill="#9EC3D1"/>
<path d="M4.87082 8.79111C4.87082 8.79111 4.82637 8.81778 4.80859 8.82667C4.80859 8.77334 4.84415 8.79111 4.87082 8.79111Z" fill="#9EC3D1"/>
<path d="M4.64914 8.91556C4.64914 8.91556 4.60469 8.93334 4.58691 8.95112C4.58691 8.89779 4.62247 8.91556 4.64914 8.91556Z" fill="#9EC3D1"/>
<path d="M4.58634 8.95111C4.58634 8.95111 4.55967 8.96889 4.55078 8.97778C4.55967 8.97778 4.57745 8.96 4.58634 8.95111Z" fill="#9EC3D1"/>
<path d="M4.96915 8.72888C4.96915 8.72888 4.94248 8.74666 4.93359 8.75555C4.94248 8.75555 4.96026 8.73777 4.96915 8.72888Z" fill="#9EC3D1"/>
<path d="M5.12931 8.64001C5.12931 8.64001 5.10264 8.65779 5.09375 8.66668C5.10264 8.65779 5.12042 8.6489 5.12931 8.64001Z" fill="#9EC3D1"/>
<path d="M5.19083 8.60443C5.19083 8.60443 5.16416 8.62221 5.15527 8.6311C5.16416 8.6311 5.18194 8.61332 5.19083 8.60443Z" fill="#9EC3D1"/>
<path d="M5.35099 8.50665C5.35099 8.50665 5.32432 8.52443 5.31543 8.53332C5.32432 8.52443 5.3421 8.51554 5.35099 8.50665Z" fill="#9EC3D1"/>
<path d="M7.94669 7.01331C7.94669 7.01331 7.92002 7.03108 7.91113 7.03997C7.92002 7.03108 7.9378 7.02219 7.94669 7.01331Z" fill="#9EC3D1"/>
<path d="M26.3643 23.6533C26.3643 23.6533 26.382 23.6355 26.3998 23.6266C26.3909 23.6355 26.382 23.6444 26.3643 23.6533Z" fill="#9EC3D1"/>
<path d="M5.84863 23.76C5.84863 23.76 5.8753 23.7778 5.88419 23.7867C5.8753 23.7867 5.85752 23.7689 5.84863 23.76Z" fill="#9EC3D1"/>
<path d="M9.31583 6.23108C9.31583 6.23108 9.28916 6.24886 9.28027 6.25775C9.28916 6.25775 9.30694 6.23997 9.31583 6.23108Z" fill="#73AEC2"/>
<path d="M25.9199 23.9111C25.9199 23.9111 25.9466 23.8933 25.9555 23.8844C25.9466 23.8844 25.9288 23.9022 25.9199 23.9111Z" fill="#9EC3D1"/>
<path d="M25.7959 23.9733C25.7959 23.9733 25.8226 23.9555 25.8315 23.9467C25.8226 23.9467 25.8048 23.9644 25.7959 23.9733Z" fill="#73AEC2"/>
<path d="M25.7686 23.9822C25.7686 23.9822 25.7863 23.9822 25.7952 23.9822C25.7952 23.9822 25.7952 24 25.7952 24.0088C25.7952 24.0088 25.7863 23.9911 25.7774 23.9911" fill="#73AEC2"/>
<path d="M6.2666 24.0089C6.2666 24.0089 6.28438 24.0089 6.29327 24.0089L6.27549 24.0267C6.27549 24.0267 6.27549 24.0089 6.2666 24" fill="#9EC3D1"/>
<path d="M25.6982 24.0355C25.6982 24.0355 25.7249 24.0177 25.7338 24.0089C25.7249 24.0177 25.7071 24.0266 25.6982 24.0355Z" fill="#9EC3D1"/>
<path d="M7.28027 24.5867C7.28027 24.5867 7.30694 24.6044 7.31583 24.6133C7.30694 24.6133 7.28916 24.5956 7.28027 24.5867Z" fill="#9EC3D1"/>
<path d="M9.47599 6.1333C9.47599 6.1333 9.45821 6.15108 9.44043 6.15108C9.44932 6.15108 9.45821 6.1333 9.47599 6.1333Z" fill="#73AEC2"/>
<path d="M9.53751 6.09778C9.53751 6.09778 9.51084 6.11556 9.50195 6.12444C9.51084 6.12444 9.52862 6.10667 9.53751 6.09778Z" fill="#73AEC2"/>
<path d="M8.2041 25.12C8.2041 25.12 8.23077 25.1378 8.23966 25.1467C8.23077 25.1378 8.21299 25.1289 8.2041 25.12Z" fill="#9EC3D1"/>
<path d="M10.142 5.7511C10.142 5.7511 10.1153 5.76888 10.1064 5.77777C10.1153 5.77777 10.1331 5.75999 10.142 5.7511Z" fill="#9EC3D1"/>
<path d="M14.5424 3.20886C14.5424 3.20886 14.5157 3.22664 14.5068 3.23553C14.5157 3.22664 14.5335 3.21775 14.5424 3.20886Z" fill="#9EC3D1"/>
<path d="M14.5775 3.18219C14.5775 3.18219 14.5509 3.19997 14.542 3.20886C14.5509 3.20886 14.5687 3.19108 14.5775 3.18219Z" fill="#9EC3D1"/>
<path d="M8.87109 25.5022C8.87109 25.5022 8.89776 25.52 8.90665 25.52C8.89776 25.52 8.87998 25.5022 8.87109 25.5022Z" fill="#73AEC2"/>
<path d="M8.98633 25.5733C8.98633 25.5733 9.01299 25.5911 9.02188 25.6C9.01299 25.6 8.99522 25.5822 8.98633 25.5733Z" fill="#9EC3D1"/>
<path d="M14.8002 3.04889C14.8002 3.04889 14.7735 3.06667 14.7646 3.07556C14.7735 3.07556 14.7913 3.05778 14.8002 3.04889Z" fill="#9EC3D1"/>
<path d="M9.02246 25.6C9.02246 25.6 9.04913 25.6178 9.05802 25.6266C9.04913 25.6266 9.03135 25.6089 9.02246 25.6Z" fill="#9EC3D1"/>
<path d="M11.8848 27.2444C11.8848 27.2444 11.9114 27.2622 11.9203 27.2711C11.9114 27.2711 11.8937 27.2533 11.8848 27.2444Z" fill="#9EC3D1"/>
<path d="M12.2666 27.4667C12.2666 27.4667 12.2844 27.4845 12.2933 27.4845C12.2844 27.4845 12.2755 27.4667 12.2666 27.4667Z" fill="#73AEC2"/>
<path d="M12.3916 27.5289C12.3916 27.5289 12.4183 27.5466 12.4272 27.5555C12.4183 27.5555 12.4005 27.5378 12.3916 27.5289Z" fill="#73AEC2"/>
<path d="M18.9424 27.9377C18.9424 27.9377 18.9691 27.92 18.9779 27.9111C18.9691 27.9111 18.9513 27.9289 18.9424 27.9377Z" fill="#9EC3D1"/>
<path d="M14.7021 28.8711C14.7021 28.8711 14.7288 28.8889 14.7377 28.8978C14.7288 28.8978 14.711 28.88 14.7021 28.8711Z" fill="#73AEC2"/>
<path d="M14.7998 28.9244C14.7998 28.9244 14.8176 28.9422 14.8354 28.9422C14.8265 28.9422 14.8176 28.9244 14.7998 28.9244Z" fill="#73AEC2"/>
<path d="M16.0889 29.5911C16.0889 29.5911 16.1155 29.5733 16.1244 29.5645C16.1155 29.5733 16.0978 29.5822 16.0889 29.5911Z" fill="#9EC3D1"/>
<path fill-rule="evenodd" clip-rule="evenodd" d="M6.42707 19.0311C6.42707 19.0311 5.90262 17.7511 5.95596 16.0178C6.03596 13.3067 6.73818 12.16 6.76485 12.0622C6.84485 11.7955 7.01374 11.5733 7.1204 11.3244C7.16485 11.3244 7.15596 11.2889 7.14707 11.2622C7.16485 11.2266 7.16485 11.1911 7.19151 11.1644C7.32485 10.9689 7.41374 10.7555 7.56485 10.5778C7.60929 10.5244 7.62707 10.4622 7.66262 10.4C7.66262 10.4 7.6804 10.3822 7.68929 10.3733L7.71596 10.3378C7.80485 10.1333 7.95596 9.97332 8.08929 9.80443C8.21374 9.65332 8.32929 9.50221 8.45374 9.35998C8.55151 9.25332 8.64929 9.14665 8.75596 9.03998C8.8804 8.91554 9.00485 8.79998 9.13818 8.68443C9.16485 8.66665 9.18262 8.63998 9.2004 8.61332C9.25374 8.52443 9.32485 8.45332 9.42262 8.39998C9.47596 8.36443 9.5204 8.31998 9.56485 8.27554C9.67151 8.24887 9.74262 8.15998 9.83151 8.09776C10.0004 7.97332 10.1693 7.83998 10.3471 7.71554C10.596 7.54665 10.8448 7.37776 11.1026 7.22665C11.2004 7.16443 11.2982 7.10221 11.4226 7.07554C11.5471 7.04887 11.6537 6.95998 11.7693 6.89776C11.9293 6.81776 12.0982 6.73776 12.2671 6.67554C12.5071 6.57776 12.7471 6.48887 12.9871 6.40887C13.1826 6.33776 13.3871 6.29332 13.5826 6.23109C13.6537 6.21332 13.7248 6.18665 13.8048 6.16887C13.9115 6.15109 14.0182 6.13332 14.1337 6.13332C14.276 6.13332 14.4093 6.10665 14.5426 6.05332C14.6137 6.02665 14.6937 6.01776 14.7737 6.00887C14.8982 5.99109 15.0226 5.98221 15.1471 5.97332C15.5737 5.92887 16.0093 5.93776 16.4448 5.94665C16.6493 5.94665 16.8537 5.99109 17.0493 5.99998C17.236 5.99998 17.4137 6.04443 17.5915 6.07109C17.7515 6.09776 17.9115 6.12443 18.0626 6.16887C18.276 6.23998 18.5071 6.27554 18.7293 6.31998C18.7648 6.31998 18.8004 6.33776 18.836 6.34665C19.1293 6.44443 19.4226 6.55109 19.7248 6.63998C19.8848 6.69332 20.0271 6.78221 20.1782 6.85332C20.3204 6.92443 20.4448 7.01332 20.6048 7.04887C20.6315 7.04887 20.6582 7.07554 20.6937 7.09332C20.9604 7.22665 21.2182 7.36887 21.4493 7.55554C21.5115 7.60887 21.5915 7.63554 21.6626 7.67998C21.8937 7.83998 22.1071 8.01776 22.3204 8.19554C22.3915 8.25776 22.4715 8.31998 22.5604 8.35554C22.6404 8.39109 22.7026 8.46221 22.7826 8.52443C22.7915 8.62221 22.8626 8.67554 22.9337 8.73776C23.076 8.85332 23.2004 8.99554 23.3248 9.12887C23.3782 9.18221 23.4226 9.25332 23.476 9.30665C23.6448 9.45776 23.7693 9.65332 23.9115 9.82221C24.0093 9.93776 24.0804 10.08 24.2137 10.1778C24.2582 10.2133 24.2848 10.2844 24.3115 10.3289C24.3826 10.4355 24.4626 10.5422 24.5248 10.6489C24.5782 10.7289 24.6226 10.8178 24.6671 10.9067C24.8182 11.1822 24.9693 11.4578 25.1115 11.7333C25.1293 11.76 25.1293 11.7955 25.1382 11.8222C25.1471 11.8311 25.156 11.8489 25.1648 11.8578C25.1648 11.8578 25.156 11.92 25.2004 11.92C25.2004 11.9289 25.2004 11.9378 25.2004 11.9466C25.2004 11.9733 25.1826 12.0089 25.2271 12.0089C25.2271 12.0089 25.2271 12.0978 25.2182 12.1244C25.156 12.1244 25.1115 12.1244 25.0582 12.1155C25.0493 12.1155 25.0404 12.1155 25.0315 12.1155C25.0226 12.1066 25.0048 12.0889 24.996 12.08C24.9071 12.0266 24.8093 12.0533 24.7115 12.0533C24.6671 12.0533 24.6315 12.0533 24.5871 12.0533C24.5693 12.0444 24.5426 12.0178 24.5248 12.0178C24.4093 12.0178 24.3026 12.0178 24.196 12.0178H13.6982C13.6448 12.0178 13.5915 12.0178 13.5382 12.0178C13.5204 12.0178 13.5026 12.0355 13.4937 12.0444C13.476 12.0622 13.4493 12.0711 13.4315 12.0889C13.3604 12.1066 11.0493 16.8178 11.0404 16.8355L11.0137 16.88C10.996 16.8889 10.9871 16.9067 10.9693 16.9155C10.9604 16.8978 10.9515 16.8711 10.9426 16.8533C10.9426 16.8266 11.8582 12.1866 11.876 12.0622C11.8315 12.0622 11.8048 12.0622 11.7693 12.0533C11.7515 12.0178 11.7248 12.0178 11.7071 12.0533C11.556 12.0533 11.4137 12.0533 11.2626 12.0533C11.236 12.0444 11.2182 12.0266 11.2004 12.0266C10.5071 12.0266 9.81374 12.0266 9.11151 12.0266C9.08485 12.0266 9.06707 12.0444 9.04929 12.0533H8.98707C8.98707 12.0533 8.97818 12.0355 8.96929 12.0355C8.96929 12.0355 8.9604 12.0533 8.9604 12.0622C8.94262 12.0889 8.90707 12.1155 8.89818 12.1422C8.85374 12.2578 6.63151 18.5778 6.55151 18.8266L6.53373 18.8622C6.53373 18.8622 6.52485 18.8978 6.51596 18.9155C6.50707 18.9422 6.49818 18.9778 6.4804 19.0044C6.4804 19.0222 6.46262 19.0311 6.45374 19.0489C6.44485 19.0489 6.42707 19.0489 6.41818 19.0489L6.42707 19.0311Z" fill="url(#paint1_linear_2810_58628)"/>
<path d="M7.05762 20.56C7.05762 20.56 7.07539 20.6044 7.09317 20.6222C7.08428 20.6044 7.07539 20.5778 7.05762 20.56Z" fill="#73AEC2"/>
<path d="M7.02246 20.4977C7.02246 20.4977 7.04024 20.5422 7.05802 20.56C7.04913 20.5422 7.04024 20.5155 7.02246 20.4977Z" fill="#73AEC2"/>
<path d="M6.98633 20.4266C6.98633 20.4266 7.00411 20.4711 7.02188 20.4889C7.01299 20.4711 7.00411 20.4444 6.98633 20.4266Z" fill="#73AEC2"/>
<path d="M6.7737 19.8666V19.9289C6.7737 19.9289 6.72037 19.8844 6.7737 19.8666Z" fill="#73AEC2"/>
<path d="M25.2 11.92C25.2 11.92 25.1644 11.8845 25.1733 11.8578C25.1822 11.8756 25.1911 11.9022 25.2 11.92Z" fill="#73AEC2"/>
<path d="M25.1731 11.8578C25.1731 11.8578 25.1554 11.8311 25.1465 11.8222C25.1554 11.8311 25.1643 11.8489 25.1731 11.8578Z" fill="#73AEC2"/>
<path d="M7.67999 10.3733C7.67999 10.3733 7.66221 10.3911 7.65332 10.4C7.65332 10.3911 7.6711 10.3822 7.67999 10.3733Z" fill="#73AEC2"/>
<path d="M7.71514 10.3378C7.71514 10.3378 7.69737 10.3555 7.68848 10.3644C7.68848 10.3555 7.70625 10.3467 7.71514 10.3378Z" fill="#73AEC2"/>
<path d="M9.20912 19.6978C9.20912 19.6978 9.18245 19.6711 9.20912 19.6622C9.20912 19.6711 9.20912 19.6889 9.20912 19.6978Z" fill="#73AEC2"/>
<path d="M11.7775 19.8311C11.7775 19.8311 11.7508 19.8044 11.7775 19.7955C11.7775 19.8044 11.7775 19.8222 11.7775 19.8311Z" fill="#73AEC2"/>
</g>
</g>
<defs>
<linearGradient id="paint0_linear_2810_58628" x1="17.3254" y1="22.0733" x2="17.3254" y2="14.4999" gradientUnits="userSpaceOnUse">
<stop stop-color="#73AEC2"/>
<stop offset="1" stop-color="#EAECEC"/>
</linearGradient>
<linearGradient id="paint1_linear_2810_58628" x1="16.4361" y1="8.34284" x2="12.6774" y2="19.486" gradientUnits="userSpaceOnUse">
<stop stop-color="#9DB346"/>
<stop offset="1" stop-color="#E7ECE1"/>
</linearGradient>
<clipPath id="clip0_2810_58628">
<rect width="32" height="32" fill="white"/>
</clipPath>
</defs>
</svg>
