<svg width="32" height="32" viewBox="0 0 32 32" fill="none" xmlns="http://www.w3.org/2000/svg">
<g clip-path="url(#clip0_2737_124368)">
<mask id="mask0_2737_124368" style="mask-type:luminance" maskUnits="userSpaceOnUse" x="0" y="0" width="32" height="32">
<path d="M31.9909 0.0178223H0.0175781V31.9912H31.9909V0.0178223Z" fill="white"/>
</mask>
<g mask="url(#mask0_2737_124368)">
<path d="M15.9998 31.9823C24.8265 31.9823 31.982 24.8268 31.982 16C31.982 7.17331 24.8265 0.0178223 15.9998 0.0178223C7.17306 0.0178223 0.0175781 7.17331 0.0175781 16C0.0175781 24.8268 7.17306 31.9823 15.9998 31.9823Z" fill="white"/>
<path d="M10.5866 23.2801C14.6073 23.2801 17.8666 20.0207 17.8666 16.0001C17.8666 11.9795 14.6073 8.72009 10.5866 8.72009C6.56601 8.72009 3.30664 11.9795 3.30664 16.0001C3.30664 20.0207 6.56601 23.2801 10.5866 23.2801Z" fill="#EF5821"/>
<path d="M19.8488 12.7023C19.8043 12.6667 19.7599 12.6312 19.7065 12.6134C19.6621 12.5956 19.6177 12.5867 19.5732 12.5867C19.5199 12.5867 19.4754 12.6045 19.4399 12.6312C19.4043 12.6578 19.3865 12.6934 19.3865 12.7378C19.3865 12.7645 19.3865 12.7912 19.4132 12.8089C19.431 12.8267 19.4577 12.8445 19.4843 12.8623C19.511 12.88 19.5466 12.8889 19.5821 12.8978C19.6177 12.9067 19.6532 12.9156 19.6888 12.9334C19.831 12.9778 19.9288 13.0489 19.9999 13.1289C20.0621 13.2089 20.0977 13.3156 20.0977 13.4489C20.0977 13.5378 20.0799 13.6178 20.0532 13.6889C20.0265 13.76 19.9821 13.8223 19.9288 13.8756C19.8754 13.9289 19.8043 13.9645 19.7243 13.9912C19.6443 14.0178 19.5554 14.0356 19.4577 14.0356C19.2532 14.0356 19.0577 13.9734 18.8799 13.84L19.0666 13.4845C19.1288 13.5467 19.191 13.5912 19.2532 13.6178C19.3154 13.6445 19.3777 13.6623 19.4399 13.6623C19.511 13.6623 19.5643 13.6445 19.5999 13.6089C19.6354 13.5734 19.6532 13.5378 19.6532 13.4934C19.6532 13.4667 19.6532 13.4489 19.6443 13.4223C19.6443 13.4045 19.6177 13.3867 19.5999 13.3689C19.5821 13.3512 19.5554 13.3423 19.5199 13.3245C19.4843 13.3067 19.4488 13.2978 19.4043 13.28C19.351 13.2623 19.2977 13.2445 19.2443 13.2178C19.191 13.2 19.1465 13.1645 19.1021 13.1289C19.0577 13.0934 19.031 13.0489 19.0043 12.9956C18.9777 12.9423 18.9688 12.8712 18.9688 12.7823C18.9688 12.6934 18.9865 12.6223 19.0132 12.5512C19.0399 12.48 19.0754 12.4267 19.1288 12.3734C19.1732 12.32 19.2354 12.2845 19.3065 12.2578C19.3777 12.2312 19.4577 12.2134 19.5465 12.2134C19.6265 12.2134 19.7154 12.2223 19.8043 12.2489C19.8932 12.2756 19.9821 12.3112 20.0621 12.3556L19.8932 12.7023H19.8488Z" fill="black"/>
<path d="M20.7374 13.12C20.7374 13.1912 20.7463 13.2534 20.773 13.3067C20.7996 13.36 20.8352 13.4134 20.8707 13.4578C20.9152 13.5023 20.9596 13.5289 21.0219 13.5556C21.0752 13.5823 21.1374 13.5912 21.1996 13.5912C21.2619 13.5912 21.3241 13.5823 21.3774 13.5556C21.4307 13.5289 21.4841 13.5023 21.5285 13.4578C21.573 13.4134 21.6085 13.3689 21.6263 13.3067C21.653 13.2534 21.6619 13.1823 21.6619 13.12C21.6619 13.0578 21.653 12.9867 21.6263 12.9334C21.5996 12.88 21.5641 12.8267 21.5285 12.7823C21.4841 12.7378 21.4396 12.7112 21.3774 12.6845C21.3152 12.6578 21.2619 12.6489 21.1996 12.6489C21.1374 12.6489 21.0752 12.6578 21.0219 12.6845C20.9685 12.7112 20.9152 12.7378 20.8707 12.7823C20.8263 12.8267 20.7907 12.8712 20.773 12.9334C20.7463 12.9867 20.7374 13.0578 20.7374 13.12ZM20.293 13.12C20.293 12.9956 20.3196 12.8712 20.3641 12.7645C20.4085 12.6578 20.4707 12.56 20.5507 12.48C20.6307 12.4 20.7285 12.3378 20.8352 12.2845C20.9507 12.24 21.0663 12.2134 21.1996 12.2134C21.333 12.2134 21.4574 12.24 21.5641 12.2845C21.6796 12.3289 21.7685 12.3912 21.8574 12.48C21.9374 12.56 21.9996 12.6578 22.0441 12.7645C22.0885 12.8712 22.1152 12.9956 22.1152 13.12C22.1152 13.2445 22.0885 13.3689 22.0441 13.4756C21.9996 13.5823 21.9374 13.68 21.8574 13.76C21.7774 13.84 21.6796 13.9023 21.5641 13.9556C21.4485 14 21.333 14.0267 21.1996 14.0267C21.0663 14.0267 20.9419 14 20.8352 13.9556C20.7196 13.9112 20.6307 13.8489 20.5507 13.76C20.4707 13.68 20.4085 13.5823 20.3641 13.4756C20.3196 13.3689 20.293 13.2445 20.293 13.12Z" fill="black"/>
<path d="M22.8261 13.0312H22.9061C22.9861 13.0312 23.0572 13.0134 23.1016 12.9778C23.1461 12.9423 23.1727 12.8889 23.1727 12.8178C23.1727 12.7467 23.1461 12.6934 23.1016 12.6578C23.0572 12.6223 22.995 12.6045 22.9061 12.6045H22.8261V13.0312ZM23.7683 13.9823H23.235L22.8261 13.3245V13.9823H22.3994V12.2667H23.0661C23.155 12.2667 23.235 12.2845 23.3061 12.3112C23.3772 12.3378 23.4305 12.3734 23.475 12.4267C23.5194 12.4712 23.555 12.5334 23.5727 12.5956C23.5994 12.6578 23.6083 12.7289 23.6083 12.8001C23.6083 12.9334 23.5816 13.0401 23.5194 13.1201C23.4572 13.2001 23.3683 13.2534 23.2527 13.2889L23.7683 13.9912V13.9823Z" fill="black"/>
<path d="M24.8527 13.3423L24.6571 12.7734L24.4616 13.3423H24.8438H24.8527ZM24.9594 13.6801H24.346L24.2483 13.9823H23.7949L24.4171 12.2667H24.8883L25.5105 13.9823H25.0571L24.9594 13.6801Z" fill="black"/>
<path d="M25.955 13.1556L25.3506 12.2667H25.8573L26.1595 12.7378L26.4617 12.2667H26.9684L26.3639 13.1556V13.9823H25.9373V13.1556H25.955Z" fill="black"/>
<path d="M27.8663 13.3423L27.6707 12.7734L27.4752 13.3423H27.8574H27.8663ZM27.9818 13.6801H27.3685L27.2707 13.9823H26.8174L27.4396 12.2667H27.9107L28.5329 13.9823H28.0796L27.9818 13.6801Z" fill="black"/>
<path d="M19.298 15.7333H19.378C19.4669 15.7333 19.5292 15.7244 19.5736 15.6978C19.6092 15.68 19.6358 15.6444 19.6358 15.5911C19.6358 15.5378 19.618 15.5111 19.5736 15.4844C19.538 15.4667 19.4669 15.4489 19.378 15.4489H19.298V15.7244V15.7333ZM19.298 15.2H19.3603C19.4758 15.2 19.5291 15.1556 19.5291 15.0756C19.5291 14.9956 19.4758 14.9511 19.3603 14.9511H19.298V15.2ZM18.9425 14.6933H19.4758C19.6003 14.6933 19.698 14.72 19.7603 14.7822C19.8225 14.8356 19.858 14.9244 19.858 15.0311C19.858 15.0933 19.8491 15.1467 19.8225 15.1911C19.7958 15.2356 19.7603 15.2711 19.7069 15.2978C19.7603 15.3067 19.8047 15.3244 19.8403 15.3422C19.8758 15.36 19.9025 15.3867 19.9292 15.4133C19.9558 15.44 19.9647 15.4756 19.9736 15.5022C19.9825 15.5378 19.9914 15.5733 19.9914 15.6089C19.9914 15.6711 19.9825 15.7244 19.9558 15.7689C19.9292 15.8133 19.9025 15.8578 19.858 15.8844C19.8136 15.92 19.7692 15.9378 19.7069 15.9556C19.6447 15.9733 19.5825 15.9822 19.5114 15.9822H18.9336V14.6844L18.9425 14.6933Z" fill="black"/>
<path d="M21.2266 14.9778H20.7999V15.1911H21.1999V15.4756H20.7999V15.6978H21.2266V15.9822H20.4443V14.6844H21.2266V14.9689V14.9778Z" fill="black"/>
<path d="M22.0713 15.2711H22.1424C22.2135 15.2711 22.2668 15.2534 22.3024 15.2267C22.3379 15.2 22.3557 15.1556 22.3557 15.1111C22.3557 15.0667 22.3379 15.0222 22.3024 14.9956C22.2668 14.9689 22.2135 14.9511 22.1424 14.9511H22.0713V15.2711ZM22.8624 15.9911H22.4179L22.0802 15.4934V15.9911H21.7246V14.6934H22.2757C22.3557 14.6934 22.4179 14.7022 22.4802 14.7289C22.5335 14.7467 22.5868 14.7822 22.6224 14.8178C22.6579 14.8534 22.6846 14.8978 22.7024 14.9422C22.7202 14.9867 22.7291 15.04 22.7291 15.0934C22.7291 15.1911 22.7024 15.2711 22.6491 15.3334C22.5957 15.3956 22.5246 15.44 22.4268 15.4578L22.8624 15.9911Z" fill="black"/>
<path d="M23.9201 14.6934V15.6C23.9201 15.6 23.9201 15.6711 23.9201 15.7067C23.9201 15.7422 23.9112 15.7689 23.9023 15.7867C23.8846 15.8222 23.8668 15.8578 23.8401 15.8845C23.8135 15.9111 23.7779 15.9378 23.7423 15.9645C23.7068 15.9822 23.6623 16 23.6179 16.0178C23.5735 16.0267 23.529 16.0356 23.4757 16.0356C23.3246 16.0356 23.209 15.9734 23.1201 15.84L23.3512 15.6178C23.3512 15.6178 23.369 15.6889 23.3957 15.7067C23.4135 15.7334 23.4401 15.7422 23.4757 15.7422C23.5468 15.7422 23.5735 15.6889 23.5735 15.5911V14.6934H23.929H23.9201Z" fill="black"/>
<path d="M25.1553 15.5111L24.9953 15.0756L24.8353 15.5111H25.1553ZM25.2531 15.7689H24.7464L24.6664 15.9911H24.2842L24.8086 14.6934H25.1997L25.7242 15.9911H25.342L25.262 15.7689H25.2531Z" fill="black"/>
<path d="M26.3025 15.3689L25.8047 14.6934H26.2314L26.4891 15.0489L26.738 14.6934H27.1647L26.658 15.3689V15.9911H26.3025V15.3689Z" fill="black"/>
<path d="M28.124 15.5111L27.964 15.0756L27.804 15.5111H28.124ZM28.2218 15.7689H27.7152L27.6352 15.9911H27.2529L27.7774 14.6934H28.1685L28.6929 15.9911H28.3107L28.2307 15.7689H28.2218Z" fill="black"/>
<path d="M19.2446 16.969H18.9424V18.1868H19.2446V16.969Z" fill="black"/>
<path d="M19.4932 18.1868V16.969H19.7954L20.3554 17.7157V16.969H20.6576V18.1868H20.3554L19.7954 17.4401V18.1868H19.4932Z" fill="black"/>
<path d="M21.2174 17.9201H21.2885C21.3418 17.9201 21.3863 17.9201 21.4307 17.8934C21.4751 17.8757 21.5107 17.849 21.5374 17.8223C21.564 17.7957 21.5907 17.7601 21.5996 17.7157C21.6174 17.6712 21.6262 17.6268 21.6262 17.5823C21.6262 17.5379 21.6262 17.4845 21.5996 17.449C21.5818 17.4045 21.564 17.369 21.5374 17.3423C21.5107 17.3157 21.4751 17.289 21.4307 17.2712C21.3863 17.2534 21.3418 17.2445 21.2885 17.2445H21.2174V17.929V17.9201ZM20.9062 16.969H21.3596C21.4396 16.969 21.5107 16.9868 21.5818 17.0223C21.6529 17.0579 21.7151 17.1023 21.7685 17.1557C21.8218 17.209 21.8662 17.2801 21.8929 17.3512C21.9196 17.4223 21.9374 17.5023 21.9374 17.5823C21.9374 17.6623 21.9196 17.7423 21.8929 17.8134C21.8662 17.8846 21.8218 17.9557 21.7685 18.009C21.7151 18.0623 21.6529 18.1068 21.5818 18.1423C21.5107 18.1779 21.4396 18.1957 21.3596 18.1957H20.9062V16.9779V16.969Z" fill="black"/>
<path d="M22.4001 17.5734C22.4001 17.6178 22.4001 17.6711 22.4267 17.7067C22.4445 17.7511 22.4712 17.7867 22.4979 17.8134C22.5245 17.84 22.5601 17.8667 22.6045 17.8845C22.6401 17.9022 22.6845 17.9111 22.729 17.9111C22.7734 17.9111 22.8179 17.9111 22.8534 17.8845C22.889 17.8578 22.9245 17.84 22.9601 17.8134C22.9867 17.7867 23.0134 17.7511 23.0312 17.7067C23.049 17.6622 23.0579 17.6178 23.0579 17.5734C23.0579 17.5289 23.0579 17.4845 23.0312 17.44C23.0134 17.3956 22.9867 17.36 22.9601 17.3334C22.9334 17.3067 22.8979 17.28 22.8534 17.2622C22.809 17.2445 22.7734 17.2356 22.729 17.2356C22.6845 17.2356 22.6401 17.2356 22.6045 17.2622C22.569 17.28 22.5334 17.3067 22.4979 17.3334C22.4712 17.36 22.4445 17.3956 22.4267 17.44C22.409 17.4845 22.4001 17.5289 22.4001 17.5734ZM22.0801 17.5734C22.0801 17.4845 22.0979 17.3956 22.1245 17.3245C22.1601 17.2445 22.2045 17.1822 22.2579 17.12C22.3112 17.0578 22.3823 17.0134 22.4623 16.9867C22.5423 16.9511 22.6312 16.9333 22.7201 16.9333C22.809 16.9333 22.8979 16.9511 22.9779 16.9867C23.0579 17.0222 23.129 17.0667 23.1823 17.12C23.2356 17.1822 23.289 17.2445 23.3156 17.3245C23.3512 17.4045 23.3601 17.4845 23.3601 17.5734C23.3601 17.6622 23.3423 17.7511 23.3156 17.8222C23.2801 17.9022 23.2356 17.9645 23.1823 18.0267C23.129 18.0889 23.0579 18.1334 22.9779 18.16C22.8979 18.1956 22.809 18.2134 22.7201 18.2134C22.6312 18.2134 22.5334 18.1956 22.4623 18.16C22.3823 18.1245 22.3112 18.08 22.2579 18.0267C22.2045 17.9645 22.1601 17.9022 22.1245 17.8222C22.089 17.7422 22.0801 17.6622 22.0801 17.5734Z" fill="black"/>
<path d="M23.5645 18.1868V16.969H23.8667L24.4267 17.7157V16.969H24.7289V18.1868H24.4267L23.8667 17.4401V18.1868H23.5645Z" fill="black"/>
<path d="M25.6442 17.2357H25.2798V17.4401H25.6175V17.7068H25.2798V17.9201H25.6442V18.1868H24.9775V16.969H25.6442V17.2357Z" fill="black"/>
<path d="M26.5067 17.28C26.5067 17.28 26.4445 17.2356 26.4089 17.2178C26.3734 17.2 26.3467 17.2 26.3112 17.2C26.2756 17.2 26.24 17.2089 26.2134 17.2267C26.1867 17.2445 26.1778 17.2711 26.1778 17.3067C26.1778 17.3245 26.1778 17.3423 26.1956 17.36C26.2134 17.3778 26.2223 17.3867 26.2489 17.3956C26.2667 17.4045 26.2934 17.4134 26.32 17.4223C26.3467 17.4223 26.3734 17.44 26.3912 17.4489C26.4889 17.4845 26.56 17.5289 26.6134 17.5912C26.6578 17.6445 26.6845 17.7245 26.6845 17.8134C26.6845 17.8756 26.6756 17.9289 26.6578 17.9823C26.64 18.0356 26.6045 18.08 26.5689 18.1156C26.5334 18.1511 26.48 18.1778 26.4267 18.1956C26.3734 18.2134 26.3023 18.2223 26.2312 18.2223C26.08 18.2223 25.9467 18.1778 25.8223 18.0889L25.9556 17.8311C26 17.8756 26.0445 17.9023 26.0889 17.9289C26.1334 17.9467 26.1778 17.9556 26.2223 17.9556C26.2756 17.9556 26.3112 17.9467 26.3289 17.92C26.3556 17.8934 26.3645 17.8667 26.3645 17.84C26.3645 17.8223 26.3645 17.8045 26.3556 17.7956C26.3556 17.7778 26.3378 17.7689 26.3289 17.76C26.3112 17.7511 26.2934 17.7423 26.2756 17.7245C26.2578 17.7067 26.2223 17.7067 26.1867 17.6889C26.1512 17.68 26.1067 17.6623 26.0712 17.6445C26.0356 17.6267 26 17.6089 25.9734 17.5823C25.9467 17.5556 25.92 17.52 25.9023 17.4845C25.8845 17.4489 25.8756 17.3956 25.8756 17.3334C25.8756 17.2712 25.8845 17.2178 25.9023 17.1734C25.92 17.12 25.9467 17.0845 25.9823 17.0489C26.0178 17.0134 26.0623 16.9867 26.1067 16.9689C26.1512 16.9512 26.2134 16.9423 26.2756 16.9423C26.3378 16.9423 26.3912 16.9423 26.4534 16.9689C26.5156 16.9867 26.5778 17.0134 26.6312 17.04L26.5067 17.2889V17.28Z" fill="black"/>
<path d="M27.1733 16.969H26.8711V18.1868H27.1733V16.969Z" fill="black"/>
<path d="M28.0622 17.7334L27.9289 17.3245L27.7955 17.7334H28.0711H28.0622ZM28.1422 17.9734H27.7066L27.6355 18.1868H27.3066L27.7511 16.969H28.08L28.5244 18.1868H28.1955L28.1244 17.9734H28.1422Z" fill="black"/>
<path d="M19.3595 19.04V19.92H19.0662V19.04H18.8262V18.7911H19.5906V19.04H19.3506H19.3595Z" fill="black"/>
<path d="M20.4091 19.529C20.4091 19.529 20.4091 19.4845 20.4002 19.4579C20.4002 19.4401 20.3825 19.4223 20.3647 19.4045C20.3469 19.3867 20.3291 19.3779 20.3114 19.369C20.2936 19.3601 20.2669 19.3512 20.2402 19.3512C20.2136 19.3512 20.1958 19.3512 20.178 19.369C20.1602 19.3867 20.1425 19.3867 20.1247 19.4045C20.1069 19.4223 20.098 19.4401 20.0891 19.4579C20.0802 19.4756 20.0714 19.5023 20.0714 19.529C20.0714 19.5556 20.0714 19.5734 20.0802 19.6001C20.0802 19.6179 20.098 19.6356 20.1158 19.6534C20.1336 19.6712 20.1514 19.6801 20.1691 19.689C20.1869 19.6979 20.2136 19.7067 20.2402 19.7067C20.2669 19.7067 20.2847 19.7067 20.3025 19.689C20.3202 19.6801 20.338 19.6712 20.3558 19.6534C20.3736 19.6356 20.3825 19.6179 20.3914 19.6001C20.4002 19.5823 20.4091 19.5556 20.4091 19.5379V19.529ZM20.0714 18.7645V19.2267C20.1336 19.1645 20.2136 19.129 20.3114 19.129C20.3647 19.129 20.418 19.1379 20.4625 19.1645C20.5069 19.1823 20.5514 19.2179 20.578 19.2534C20.6136 19.289 20.6402 19.3334 20.658 19.3779C20.6758 19.4312 20.6847 19.4756 20.6847 19.5379C20.6847 19.6001 20.6758 19.6445 20.658 19.6979C20.6402 19.7512 20.6136 19.7867 20.578 19.8312C20.5425 19.8667 20.5069 19.8934 20.4536 19.9201C20.4091 19.9379 20.3558 19.9556 20.3025 19.9556C20.2047 19.9556 20.1247 19.9201 20.0714 19.849V19.9379H19.8047V18.7912H20.0714V18.7645Z" fill="black"/>
<path d="M21.1114 18.7645V19.4223L21.3958 19.1467H21.7603L21.3781 19.5023L21.7781 19.9112H21.4047L21.1114 19.6001V19.9112H20.8447V18.7645H21.1114Z" fill="black"/>
<path fill-rule="evenodd" clip-rule="evenodd" d="M15.4136 12.4978C15.4136 12.4978 12.3647 12.8356 11.0669 13.8222C10.6403 14.1511 9.9825 15.28 9.2625 15.84C8.96027 16.08 8.80027 16.1511 7.91138 16.4978C7.28916 16.7467 5.28027 17.5734 5.28027 17.5734C5.28027 17.5734 8.37361 16.7022 9.13805 16.3289C9.9025 15.9556 10.7469 14.6845 11.1292 14.2489C11.7336 13.5467 15.4136 12.4978 15.4136 12.4978Z" fill="#FF9903"/>
<path fill-rule="evenodd" clip-rule="evenodd" d="M15.4136 13.92C15.4136 13.92 12.3647 14.2578 11.0669 15.2445C10.6403 15.5734 9.9825 16.7023 9.2625 17.2623C8.96027 17.5023 8.80027 17.5734 7.91138 17.92C7.28916 18.1689 5.28027 18.9956 5.28027 18.9956C5.28027 18.9956 8.37361 18.1245 9.13805 17.7512C9.9025 17.3778 10.7469 16.1067 11.1292 15.6712C11.7336 14.9689 15.4136 13.92 15.4136 13.92Z" fill="#FF9903"/>
<path fill-rule="evenodd" clip-rule="evenodd" d="M16.0269 15.0311C16.0269 15.0311 12.978 15.3689 11.6802 16.3556C11.2536 16.6845 10.5958 17.8134 9.87578 18.3734C9.57355 18.6134 9.41355 18.6845 8.52467 19.0311C7.90244 19.28 5.89355 20.1067 5.89355 20.1067C5.89355 20.1067 8.98689 19.2356 9.75133 18.8622C10.5158 18.4889 11.3602 17.2178 11.7424 16.7822C12.3469 16.08 16.0269 15.0311 16.0269 15.0311Z" fill="#FF9903"/>
<path fill-rule="evenodd" clip-rule="evenodd" d="M15.6529 12.4978C15.6529 12.4978 12.604 12.8356 11.3062 13.8222C10.8795 14.1511 10.2218 15.28 9.50175 15.84C9.19953 16.08 9.03953 16.1511 8.15064 16.4978C7.52842 16.7467 5.51953 17.5734 5.51953 17.5734C5.51953 17.5734 8.61286 16.7022 9.37731 16.3289C10.1418 15.9556 10.9862 14.6845 11.3684 14.2489C11.9729 13.5467 15.6529 12.4978 15.6529 12.4978Z" fill="white"/>
<path fill-rule="evenodd" clip-rule="evenodd" d="M15.6529 13.92C15.6529 13.92 12.604 14.2578 11.3062 15.2445C10.8795 15.5734 10.2218 16.7023 9.50175 17.2623C9.19953 17.5023 9.03953 17.5734 8.15064 17.92C7.52842 18.1689 5.51953 18.9956 5.51953 18.9956C5.51953 18.9956 8.61286 18.1245 9.37731 17.7512C10.1418 17.3778 10.9862 16.1067 11.3684 15.6712C11.9729 14.9689 15.6529 13.92 15.6529 13.92Z" fill="white"/>
<path fill-rule="evenodd" clip-rule="evenodd" d="M16.2749 15.0311C16.2749 15.0311 13.226 15.3689 11.9283 16.3556C11.5016 16.6845 10.8438 17.8134 10.1238 18.3734C9.8216 18.6134 9.6616 18.6845 8.77271 19.0311C8.15049 19.28 6.1416 20.1067 6.1416 20.1067C6.1416 20.1067 9.23494 19.2356 9.99938 18.8622C10.7638 18.4889 11.6083 17.2178 11.9905 16.7822C12.5949 16.08 16.2749 15.0311 16.2749 15.0311Z" fill="white"/>
</g>
</g>
<defs>
<clipPath id="clip0_2737_124368">
<rect width="32" height="32" fill="white"/>
</clipPath>
</defs>
</svg>
