<svg width="35" height="32" viewBox="0 0 35 32" fill="none" xmlns="http://www.w3.org/2000/svg">
<g clip-path="url(#clip0_2707_274403)">
<path d="M15.5911 31.9823C24.4178 31.9823 31.5733 24.8268 31.5733 16C31.5733 7.17331 24.4178 0.0178223 15.5911 0.0178223C6.76437 0.0178223 -0.391113 7.17331 -0.391113 16C-0.391113 24.8268 6.76437 31.9823 15.5911 31.9823Z" fill="white"/>
<path d="M5.15553 16.1245L4.77331 16.9245C4.64886 17.1645 4.51553 17.4045 4.39108 17.6534H3.67108C3.57331 16.9601 3.48442 16.2934 3.39553 15.6179C3.33331 15.1112 3.28886 14.6756 3.19997 14.2223C3.12694 13.9771 3.03173 13.7391 2.91553 13.5112H5.20886C5.09941 13.7736 5.02182 14.0481 4.97775 14.329C4.98554 14.6216 5.07818 14.9057 5.24442 15.1467L5.91997 13.4934H6.58664L6.79997 15.2712C7.18219 14.9512 7.25331 14.5156 7.48442 14.1956L7.24442 13.5112H8.58664C8.58664 13.6356 8.58664 13.7867 8.48886 13.8134C8.10664 14.0267 8.00886 14.4445 7.82219 14.7823C7.38664 15.5823 6.99553 16.409 6.55997 17.209C6.28442 17.7334 6.26664 17.7156 5.59108 17.6445L5.26219 16.1423L5.15553 16.1245Z" fill="#DA262E"/>
<path d="M23.9377 15.289C23.9028 15.7608 23.7382 16.2139 23.4622 16.5982C23.1861 16.9824 22.8093 17.283 22.3733 17.4667C21.875 17.7529 21.2836 17.8296 20.7288 17.6801C20.5183 17.6178 20.3266 17.5039 20.1713 17.3487C20.0161 17.1934 19.9022 17.0017 19.8399 16.7912C19.6535 16.2235 19.6839 15.607 19.9252 15.0604C20.1664 14.5138 20.6016 14.0759 21.1466 13.8312C21.4007 13.7159 21.6657 13.6265 21.9377 13.5645C22.1892 13.4979 22.453 13.4935 22.7065 13.5519C22.96 13.6102 23.1954 13.7295 23.3924 13.8993C23.5894 14.0692 23.7421 14.2845 23.8371 14.5267C23.9321 14.7688 23.9666 15.0305 23.9377 15.289ZM22.3111 13.9201C21.8755 13.8667 21.7955 13.9201 21.7155 14.3201C21.5644 15.0578 21.4222 15.7867 21.2799 16.5156C21.2346 16.6838 21.2107 16.857 21.2088 17.0312C21.2222 17.0933 21.2491 17.1518 21.2874 17.2025C21.3258 17.2531 21.3748 17.2948 21.4311 17.3245C21.4844 17.3245 21.6266 17.2445 21.7066 17.1645C21.7567 17.097 21.7874 17.0171 21.7955 16.9334C21.9644 16.0445 22.1422 15.2267 22.3022 14.3734C22.3154 14.2255 22.3154 14.0768 22.3022 13.929L22.3111 13.9201Z" fill="#DA262E"/>
<path d="M27.9911 15.4756C28.1017 15.1208 28.1674 14.7535 28.1866 14.3823C28.1066 14.0707 27.9839 13.7716 27.8222 13.4934H29.0844C28.6141 14.8401 28.266 16.2265 28.0444 17.6356H27.0578L25.68 14.8534C25.6 15.1645 25.5378 15.369 25.5022 15.5734C25.4666 15.7779 25.4489 16.0356 25.3866 16.249C25.2966 16.4287 25.262 16.6312 25.2873 16.8306C25.3127 17.03 25.3967 17.2174 25.5289 17.369C25.5733 17.369 25.5289 17.4934 25.5822 17.609H24.2666C24.1689 17.3867 24.3644 17.3067 24.4978 17.2267C24.6163 17.1566 24.7157 17.0582 24.787 16.9403C24.8584 16.8224 24.8995 16.6888 24.9066 16.5512C25.0044 15.9467 25.1378 15.3512 25.2533 14.7734C25.2931 14.6477 25.3001 14.514 25.2736 14.3849C25.2472 14.2558 25.1882 14.1355 25.1022 14.0356C25.0015 13.8733 24.9265 13.6964 24.88 13.5112H26.9778L27.9911 15.4756Z" fill="#DA262E"/>
<path d="M18.0355 17.6533H15.6355C15.7333 17.5022 15.7688 17.36 15.8666 17.3067C16.0156 17.2094 16.1393 17.078 16.2274 16.9235C16.3155 16.7689 16.3655 16.5955 16.3733 16.4178C16.4533 15.6622 16.5955 14.9067 16.7022 14.1511C16.6667 14.113 16.6219 14.0847 16.5723 14.0689C16.5226 14.0532 16.4697 14.0506 16.4187 14.0613C16.3677 14.072 16.3204 14.0958 16.2813 14.1302C16.2422 14.1646 16.2126 14.2086 16.1955 14.2578C16.08 14.4444 16 14.6222 15.9022 14.8089C15.8044 14.9956 15.6177 15.0222 15.3955 14.9067L15.7066 13.5111H19.5555C19.4755 13.9467 19.4133 14.3378 19.3422 14.7289C19.3422 14.8978 19.2977 14.8978 18.9777 14.9156C18.9155 14.64 18.8533 14.3556 18.7733 14.0267L18.2844 13.9822C18.16 14.6756 18.0355 15.3511 17.9111 16.0089L17.8311 16.48C17.7688 16.8 17.68 17.1289 17.9733 17.3689C18.0266 17.4133 18.0088 17.5111 18.0355 17.6533Z" fill="#DA262E"/>
<path d="M11.2889 17.6445C11.2889 17.5556 11.2889 17.4845 11.2889 17.4578C11.7204 16.9465 11.951 16.2956 11.9378 15.6267C11.9645 15.328 12.009 15.0312 12.0712 14.7378C12.1749 14.3173 12.1277 13.8738 11.9378 13.4845H14.3023C14.2223 13.6356 14.1867 13.7689 14.1067 13.8223C13.9921 13.9023 13.8968 14.0069 13.8276 14.1283C13.7584 14.2498 13.7171 14.3851 13.7067 14.5245C13.5645 15.3334 13.4134 16.1334 13.2534 17.0134C13.4045 17.0578 13.5734 17.1734 13.6712 17.1378C13.9196 17.0247 14.1478 16.8715 14.3467 16.6845C14.5102 16.4784 14.6503 16.2548 14.7645 16.0178C14.8483 16.2851 14.8757 16.5669 14.8451 16.8453C14.8145 17.1238 14.7265 17.3929 14.5867 17.6356L11.2889 17.6445Z" fill="#DA262E"/>
<path d="M28.3822 18.2489V18.4978H3.69775V18.2045L28.3822 18.2489Z" fill="url(#paint0_linear_2707_274403)"/>
<path d="M11.3778 13.4934C11.3778 13.609 11.3778 13.6623 11.3778 13.6712C10.8356 14.0979 10.9156 14.7645 10.7644 15.3334C10.6625 15.7062 10.5912 16.0868 10.5511 16.4712C10.5511 16.8445 10.5511 17.2179 10.5511 17.6356H8.48889C9.04194 16.3259 9.31446 14.9149 9.28889 13.4934H11.3778Z" fill="#DA262E"/>
</g>
<defs>
<linearGradient id="paint0_linear_2707_274403" x1="8.44442" y1="17.8328" x2="30.2844" y2="17.8328" gradientUnits="userSpaceOnUse">
<stop stop-color="#BD9732"/>
<stop offset="0.45" stop-color="#F3C309"/>
<stop offset="0.65" stop-color="#BD9732"/>
<stop offset="0.8" stop-color="#FECB01"/>
<stop offset="1" stop-color="#80610C"/>
</linearGradient>
<clipPath id="clip0_2707_274403">
<rect width="32" height="32" fill="white"/>
</clipPath>
</defs>
</svg>
