<svg width="35" height="32" viewBox="0 0 35 32" fill="none" xmlns="http://www.w3.org/2000/svg">
<g clip-path="url(#clip0_2707_274373)">
<path d="M16 32C24.8366 32 32 24.8366 32 16C32 7.16344 24.8366 0 16 0C7.16344 0 0 7.16344 0 16C0 24.8366 7.16344 32 16 32Z" fill="white"/>
<path d="M16 29.3334C23.3638 29.3334 29.3333 23.3638 29.3333 16C29.3333 8.63622 23.3638 2.66669 16 2.66669C8.63616 2.66669 2.66663 8.63622 2.66663 16C2.66663 23.3638 8.63616 29.3334 16 29.3334Z" fill="white"/>
<path fill-rule="evenodd" clip-rule="evenodd" d="M16.3022 16.2222C16.3022 16.2222 13.84 13.6178 8.68443 12.5867C3.52888 11.5555 3.27999 13.3333 3.27999 13.3333C3.27999 13.3333 2.88888 14.5867 5.83999 17.1378C8.7911 19.6889 15.7333 23.0489 23.6178 22.0444C23.6178 22.0444 15.6711 21.6178 12.8444 17.6622C12.5067 17.1911 12.1511 16.3822 12.7022 15.8844C13.2533 15.3867 14.4267 15.6267 16.3022 16.2222Z" fill="#0167A6"/>
<path fill-rule="evenodd" clip-rule="evenodd" d="M16.3022 16.2222C16.3022 16.2222 17.1911 12.7555 21.1999 9.37777C25.2088 5.99999 26.2933 7.4311 26.2933 7.4311C26.2933 7.4311 27.2444 8.31999 25.9199 12C24.5955 15.68 20.1333 21.9289 12.7111 24.8889C12.7111 24.8889 19.4666 20.7022 20.0177 15.8844C20.0888 15.2978 20.0177 14.4267 19.2888 14.2844C18.5599 14.1422 17.6533 14.8444 16.3022 16.2755V16.2222Z" fill="#1EA149"/>
</g>
<defs>
<clipPath id="clip0_2707_274373">
<rect width="32" height="32" fill="white"/>
</clipPath>
</defs>
</svg>
