<svg width="35" height="32" viewBox="0 0 35 32" fill="none" xmlns="http://www.w3.org/2000/svg">
<g clip-path="url(#clip0_2707_274083)">
<path d="M16 31.9822C24.8268 31.9822 31.9823 24.8267 31.9823 16C31.9823 7.17325 24.8268 0.0177612 16 0.0177612C7.17331 0.0177612 0.0178223 7.17325 0.0178223 16C0.0178223 24.8267 7.17331 31.9822 16 31.9822Z" fill="white"/>
<path d="M7.77783 21.7422V5.51996H24.2223V21.7244H8.22228L7.77783 21.7422ZM22.1689 11.0755C21.9378 10.6488 21.7245 10.2755 21.5378 9.89329C21.4683 9.74379 21.3539 9.61974 21.2105 9.53846C21.067 9.45718 20.9018 9.42275 20.7378 9.43996C18.5825 9.37542 16.4338 9.70993 14.4001 10.4266L14.0356 10.5244V9.77774C12.3885 10.3558 10.8763 11.2631 9.59117 12.4444C9.5021 12.5354 9.4485 12.6552 9.44005 12.7822C9.41339 13.2707 9.41339 13.7603 9.44005 14.2488C9.44609 14.6095 9.52154 14.9656 9.66228 15.2977C13.1201 11.7688 17.3689 10.7111 22.1689 11.04V11.0755ZM10.9334 17.7777C14.2045 14.6133 18.1956 13.5288 22.6489 13.5911C22.5956 13.0933 22.5512 12.6222 22.4978 12.1688C21.1572 12.0634 19.8089 12.1141 18.4801 12.32C17.1581 12.5015 15.8628 12.8417 14.6223 13.3333L14.4445 12.7022C12.6906 13.3816 11.122 14.4659 9.86672 15.8666C10.111 16.5597 10.4718 17.206 10.9334 17.7777ZM11.3512 18.2311L12.2401 18.9244C12.4623 19.0844 12.7023 19.2177 12.9334 19.36C15.5564 17.2752 18.7842 16.0963 22.1334 16C22.2578 15.6355 22.3645 15.28 22.4978 14.8711C20.2609 14.8096 18.0341 15.1934 15.9467 16C15.8845 15.8933 15.8134 15.8044 15.7512 15.7066C15.6769 15.5887 15.6087 15.467 15.5467 15.3422C13.969 15.9986 12.5415 16.9695 11.3512 18.1955V18.2311ZM9.63561 11.7066C10.4712 11.1733 11.2178 10.6577 12.0001 10.1955C12.793 9.72401 13.6449 9.35937 14.5334 9.11107C15.4106 8.8587 16.3008 8.65396 17.2001 8.49774C18.0889 8.34663 19.0223 8.31107 19.9467 8.22218C19.297 7.72356 18.5621 7.34709 17.7778 7.11107C17.7073 7.09783 17.635 7.09783 17.5645 7.11107C16.9423 7.21774 16.3112 7.30662 15.6889 7.43996C15.0667 7.57329 14.7112 7.67996 14.1867 7.81329L14.2223 7.11107C13.1385 7.42912 12.1514 8.0128 11.3504 8.80912C10.5494 9.60544 9.95998 10.5892 9.63561 11.6711V11.7066ZM19.1912 19.3066L18.3556 18.6488V18.56L20.4801 18.1066C20.5967 18.0983 20.7096 18.0617 20.8089 18C21.1102 17.7109 21.3704 17.3819 21.5823 17.0222C20.1995 17.1731 18.8409 17.4955 17.5378 17.9822C17.4648 17.9002 17.3966 17.8141 17.3334 17.7244C17.1823 17.5022 17.0134 17.5111 16.7823 17.6088C15.8485 17.9898 14.9551 18.4633 14.1156 19.0222C13.8756 19.1822 13.6356 19.36 13.3423 19.5733C14.2685 19.9641 15.2704 20.143 16.2747 20.0969C17.2789 20.0507 18.2602 19.7807 19.1467 19.3066H19.1912Z" fill="#15336C"/>
<path d="M7.77783 26.0444H8.09783H24.1956V26.4978H7.77783V26.0444Z" fill="#15336C"/>
<path d="M12.4445 24.0445C12.4445 24.3467 12.3378 24.6489 12.6134 24.9333H12.0001C12.133 24.6037 12.17 24.2431 12.1067 23.8933C12.1067 23.5378 12.2134 23.1645 11.9734 22.8178H12.8623C12.9832 22.8057 13.1046 22.8352 13.2064 22.9015C13.3083 22.9677 13.3844 23.0668 13.4223 23.1822C13.4641 23.3095 13.4604 23.4474 13.4117 23.5723C13.3631 23.6971 13.2725 23.8012 13.1556 23.8667L13.0401 23.9378L13.3601 24.4445C13.4667 24.6133 13.5734 24.7556 13.6712 24.9067C13.3689 25.0222 13.3067 25.0045 13.1556 24.7111C13.0667 24.5689 12.9956 24.4178 12.9067 24.2756C12.8178 24.1333 12.7912 24 12.4445 24.0445ZM12.4445 23.8667C12.7023 23.8667 12.9512 23.8667 13.0578 23.6622C13.1249 23.4877 13.1249 23.2945 13.0578 23.12C12.9423 22.88 12.6845 22.9511 12.4534 22.96L12.4445 23.8667Z" fill="#15336C"/>
<path d="M17.9734 23.8844C17.9901 23.7223 18.0198 23.5618 18.0623 23.4044C18.1087 23.2093 18.2244 23.0377 18.388 22.9216C18.5515 22.8055 18.7517 22.7528 18.9512 22.7733C19.147 22.7732 19.3353 22.8491 19.4762 22.9851C19.6172 23.1211 19.6998 23.3065 19.7067 23.5022C19.7331 23.7999 19.7121 24.1 19.6445 24.3911C19.5959 24.5809 19.4772 24.7451 19.3122 24.8507C19.1472 24.9563 18.9483 24.9954 18.7556 24.96C18.5741 24.9572 18.3997 24.8893 18.2642 24.7685C18.1288 24.6477 18.0413 24.4822 18.0178 24.3022C18.0089 24.1778 18.0001 24 17.9734 23.8844ZM19.4401 23.8844C19.3956 23.6711 19.3512 23.4489 19.2889 23.2355C19.2683 23.1329 19.2128 23.0405 19.1317 22.9742C19.0507 22.9078 18.9492 22.8715 18.8445 22.8715C18.7398 22.8715 18.6383 22.9078 18.5573 22.9742C18.4762 23.0405 18.4207 23.1329 18.4001 23.2355C18.2447 23.6511 18.2447 24.1089 18.4001 24.5244C18.4322 24.6156 18.4927 24.6941 18.5727 24.7485C18.6526 24.8029 18.7479 24.8303 18.8445 24.8267C18.9361 24.8268 19.0252 24.7975 19.0989 24.7431C19.1725 24.6887 19.2267 24.612 19.2534 24.5244C19.3601 24.32 19.3956 24.1067 19.4401 23.8844Z" fill="#15336C"/>
<path d="M9.70667 24.9333C9.81813 24.7541 9.91617 24.5669 10 24.3733C10.1867 23.9111 10.3467 23.44 10.5333 22.9688C10.5333 22.8888 10.6667 22.8355 10.7378 22.7644C10.8 22.8355 10.8978 22.8977 10.9244 22.9777C11.0844 23.44 11.2178 23.8666 11.3689 24.3822C11.4222 24.56 11.5111 24.7377 11.5911 24.9333H10.9422C11.1822 24.7111 11.1022 24.4888 10.9422 24.2577H10.2133C10.1422 24.48 9.97333 24.7022 10.32 24.9333H9.70667ZM10.9689 24.0444L10.7022 23.1555H10.6667L10.3644 24.0444H10.9689Z" fill="#15336C"/>
<path d="M23.7956 24.9422H23.1112C23.4579 24.72 23.2979 24.4978 23.2268 24.2578H22.4979C22.409 24.48 22.2579 24.7022 22.5779 24.9333H21.9379C22.2432 24.3472 22.5018 23.7379 22.7112 23.1111C22.7315 23.0308 22.7614 22.9532 22.8001 22.88C22.8001 22.8266 22.9156 22.7644 22.9601 22.7733C23.0317 22.7939 23.0923 22.8418 23.129 22.9066C23.2534 23.2711 23.3512 23.6266 23.4756 23.9911C23.6001 24.3555 23.6801 24.6133 23.7956 24.9422ZM22.9068 23.1644H22.8356L22.5245 24.0533H23.1556L22.9068 23.1644Z" fill="#15336C"/>
<path d="M14.6134 24.9422H13.9645C14.2816 24.3772 14.5407 23.7816 14.7378 23.1644L14.8445 22.8977C14.8445 22.8444 14.96 22.7822 15.0045 22.7911C15.0406 22.7998 15.0743 22.8163 15.1035 22.8393C15.1326 22.8623 15.1565 22.8913 15.1734 22.9244C15.3156 23.3422 15.4311 23.7689 15.5734 24.1866C15.6534 24.4355 15.7511 24.6844 15.8489 24.9422H15.2178C15.4756 24.7377 15.3778 24.5155 15.2711 24.2755H14.5423C14.4534 24.48 14.3378 24.6933 14.6134 24.9422ZM14.6134 24.0533H15.2623L14.9511 23.1111L14.6134 24.0533Z" fill="#15336C"/>
<path d="M16.0444 23.3333V22.8177H17.6978V23.3866C17.4578 23.2089 17.4311 22.8 17.0578 22.9777C16.9322 23.6166 16.9845 24.2777 17.2089 24.8889H16.5244C16.6035 24.8061 16.6616 24.7056 16.6941 24.5959C16.7266 24.4861 16.7324 24.3702 16.7111 24.2577V23.0133C16.4 22.9155 16.4 22.9155 16.0444 23.3333Z" fill="#15336C"/>
<path d="M21.1112 24H21.6623C21.6623 24.3111 21.5823 24.6311 21.5467 24.9333C21.4047 24.9245 21.2622 24.9245 21.1201 24.9333C21.0119 24.9735 20.8959 24.9881 20.7811 24.9759C20.6664 24.9638 20.556 24.9252 20.4587 24.8631C20.3613 24.8011 20.2797 24.7174 20.2202 24.6185C20.1607 24.5197 20.1249 24.4083 20.1156 24.2933C20.0712 24.0374 20.0712 23.7758 20.1156 23.52C20.1317 23.4009 20.1718 23.2863 20.2334 23.1832C20.295 23.08 20.3769 22.9904 20.4741 22.9198C20.5713 22.8492 20.6818 22.799 20.7989 22.7723C20.9161 22.7456 21.0374 22.7429 21.1556 22.7644L21.5556 22.8266C21.5556 22.9066 21.5556 22.9778 21.5556 23.0489C21.5556 23.12 21.5556 23.1822 21.5556 23.3244L21.3334 23.1111C21.2929 23.0449 21.2361 22.9902 21.1684 22.9523C21.1007 22.9143 21.0244 22.8944 20.9467 22.8944C20.8691 22.8944 20.7928 22.9143 20.7251 22.9523C20.6574 22.9902 20.6006 23.0449 20.5601 23.1111C20.4441 23.3461 20.3837 23.6046 20.3837 23.8666C20.3837 24.1287 20.4441 24.3872 20.5601 24.6222C20.6202 24.7124 20.7111 24.7776 20.8159 24.8054C20.9207 24.8333 21.032 24.8218 21.129 24.7733C21.2141 24.691 21.2705 24.5834 21.2897 24.4665C21.3089 24.3496 21.2899 24.2297 21.2356 24.1244C21.1995 24.0779 21.1577 24.0361 21.1112 24Z" fill="#15336C"/>
<path d="M8.16003 24.8889V24.4444H8.24003L8.36448 24.6222C8.40922 24.7034 8.48021 24.7669 8.5658 24.8025C8.6514 24.838 8.74652 24.8434 8.83559 24.8178C8.9092 24.814 8.97909 24.7843 9.03281 24.7338C9.08653 24.6834 9.12059 24.6155 9.12892 24.5422C9.14583 24.4535 9.13532 24.3618 9.0988 24.2792C9.06228 24.1966 9.00147 24.1272 8.92448 24.08L8.48892 23.8311C8.37326 23.7801 8.27989 23.6891 8.22599 23.5748C8.17209 23.4605 8.1613 23.3305 8.19559 23.2089C8.22312 23.092 8.28869 22.9875 8.382 22.9119C8.4753 22.8363 8.59108 22.7938 8.71115 22.7911C8.93004 22.7733 9.15002 22.7733 9.36892 22.7911V23.3244C9.29795 23.2682 9.23512 23.2024 9.18226 23.1289C9.14329 23.0447 9.07436 22.978 8.98891 22.9418C8.90346 22.9057 8.8076 22.9027 8.72003 22.9333C8.66714 22.9523 8.61862 22.9818 8.57738 23.02C8.53614 23.0582 8.50303 23.1043 8.48003 23.1556C8.45186 23.242 8.45617 23.3357 8.49218 23.4192C8.52818 23.5026 8.59339 23.5701 8.67559 23.6089C8.81781 23.6889 8.96892 23.76 9.11115 23.8578C9.23268 23.9236 9.32753 24.0297 9.37943 24.1578C9.43133 24.2859 9.43704 24.4281 9.39559 24.56C9.3594 24.6826 9.28236 24.7891 9.17725 24.8619C9.07215 24.9347 8.94531 24.9693 8.81781 24.96C8.59742 24.9483 8.37784 24.9245 8.16003 24.8889Z" fill="#15336C"/>
</g>
<defs>
<clipPath id="clip0_2707_274083">
<rect width="32" height="32" fill="white"/>
</clipPath>
</defs>
</svg>
