<svg width="32" height="32" viewBox="0 0 32 32" fill="none" xmlns="http://www.w3.org/2000/svg">
<g clip-path="url(#clip0_2980_151010)">
<mask id="mask0_2980_151010" style="mask-type:luminance" maskUnits="userSpaceOnUse" x="0" y="0" width="32" height="32">
<path d="M31.988 0.0269775H0.0175781V31.9974H31.988V0.0269775Z" fill="white"/>
</mask>
<g mask="url(#mask0_2980_151010)">
<path d="M16.0028 31.9974C24.8312 31.9974 31.988 24.8406 31.988 16.0122C31.988 7.18379 24.8312 0.0269775 16.0028 0.0269775C7.1744 0.0269775 0.0175781 7.18379 0.0175781 16.0122C0.0175781 24.8406 7.1744 31.9974 16.0028 31.9974Z" fill="white"/>
<path d="M16.1439 16.3124C15.9174 16.0909 15.6452 16.7819 15.5389 16.9754C15.0425 17.8782 14.2581 19.1269 14.3925 20.1707C14.6378 22.0763 17.0298 22.2479 17.5436 20.4529C17.9645 18.9825 16.6784 17.5917 16.1439 16.3124ZM15.9872 10.2695C16.3173 10.2523 16.4601 10.6154 16.604 10.8489C17.4006 12.1416 18.1957 13.599 18.9083 14.9439C20.0594 17.1161 21.0264 19.0505 19.8076 21.4981C18.4156 24.2936 14.4305 24.7888 12.5811 22.2361C9.76897 18.3545 14.0925 13.9444 15.6584 10.4925C15.7193 10.3793 15.857 10.2763 15.9872 10.2695Z" fill="#FC671C"/>
<path d="M22.708 10.8137C22.8037 10.7917 22.8283 10.868 22.8856 10.915C25.3389 12.9274 25.2839 17.103 23.9967 19.746C23.5875 20.5861 22.0323 22.8908 21.2203 23.2672C20.673 23.5208 20.2111 23.1638 20.4106 22.559C20.4973 22.296 21.1869 21.7337 21.4134 21.4796C23.6611 18.9575 24.7729 15.3047 23.3409 12.0849C23.1801 11.7234 22.8887 11.3651 22.7559 11.0448C22.7228 10.9651 22.6878 10.9091 22.708 10.8137Z" fill="#386F27"/>
<path d="M9.29987 10.8645C9.35025 10.9201 8.70637 12.0265 8.63109 12.2013C7.14118 15.66 8.50525 19.15 10.8484 21.7843C11.0995 22.0666 11.6602 22.4485 11.6695 22.8326C11.6836 23.4221 11.0218 23.491 10.6194 23.1814C9.76829 22.5265 8.66019 21.0131 8.15633 20.058C6.68193 17.2631 6.61118 13.3302 9.02613 11.022C9.06545 10.9844 9.26141 10.8222 9.29987 10.8645Z" fill="#376E27"/>
<path d="M25.0439 12.9976C25.0988 12.938 25.4051 13.2786 25.4484 13.329C27.6392 15.8712 27.1526 19.7372 25.1437 22.2138C24.8078 22.628 23.8891 23.5837 23.4368 23.8081C23.0186 24.0155 22.5075 23.7899 22.5218 23.2898C22.5346 22.8425 23.3791 22.3127 23.6983 21.9873C24.7116 20.9545 25.4668 19.5787 25.6891 18.1375C25.9617 16.3705 25.6928 14.6468 25.0439 12.9976Z" fill="#376E26"/>
<path d="M6.96385 13.0484C6.83775 13.4903 6.64003 13.9125 6.52145 14.3576C5.97247 16.4179 6.10796 18.8268 7.24738 20.6623C7.83001 21.6008 8.61332 22.2777 9.41261 23.0169C9.63954 23.4688 9.29393 23.9909 8.7798 23.906C8.28388 23.8241 6.91625 22.328 6.58761 21.8807C5.05697 19.7979 4.6656 17.2566 5.68548 14.8421C5.87532 14.3926 6.39416 13.4237 6.7575 13.1208C6.82611 13.0637 6.8667 13.031 6.96385 13.0484Z" fill="#376E26"/>
<path d="M18.7472 8.12205C18.8819 8.00275 20.0929 8.75343 20.2866 8.89301C22.7295 10.6529 23.5326 13.7749 22.8165 16.6352C22.6805 17.1788 22.0124 19.0855 21.6178 19.3979C21.2072 19.7232 20.6456 19.432 20.6748 18.9159C20.691 18.6281 21.2458 17.6258 21.3889 17.239C22.4625 14.337 22.0836 11.4386 19.8904 9.18767C19.5718 8.8608 19.1613 8.60356 18.8478 8.30031C18.7931 8.24744 18.7292 8.21112 18.7472 8.12205Z" fill="#376E27"/>
<path d="M13.2606 8.12195C13.2863 8.24859 13.2437 8.24965 13.177 8.31717C12.7994 8.69919 12.3108 9.00081 11.9143 9.4415C9.38622 12.2518 9.65767 15.7345 11.3342 18.9147C11.3849 19.4929 10.6943 19.7833 10.3143 19.3579C10.1747 19.2016 9.89907 18.5886 9.79843 18.3644C8.8786 16.3153 8.59773 14.108 9.41389 11.969C10.0811 10.2203 11.4734 8.73753 13.2606 8.12195Z" fill="#376E27"/>
</g>
</g>
<defs>
<clipPath id="clip0_2980_151010">
<rect width="32" height="32" fill="white"/>
</clipPath>
</defs>
</svg>
