<svg width="35" height="32" viewBox="0 0 35 32" fill="none" xmlns="http://www.w3.org/2000/svg">
<g clip-path="url(#clip0_2707_273298)">
<path d="M16 31.9733C24.8268 31.9733 31.9823 24.8178 31.9823 15.9911C31.9823 7.16437 24.8268 0.00888062 16 0.00888062C7.17331 0.00888062 0.0178223 7.16437 0.0178223 15.9911C0.0178223 24.8178 7.17331 31.9733 16 31.9733Z" fill="white"/>
<path d="M12.0533 12.2044C12.277 11.1311 12.8538 10.1636 13.6916 9.4563C14.5293 8.74902 15.5799 8.34271 16.6755 8.30222H20.5422L19.7778 12.3644C19.6016 13.1852 19.1558 13.9234 18.5114 14.4614C17.8671 14.9994 17.0612 15.3064 16.2222 15.3333H11.4578L12.0533 12.2044Z" fill="#F7941F"/>
<path d="M18.0801 14.6489C18.1956 15.0133 18.0801 15.1289 17.7334 14.8978L16.0001 13.6444L14.2667 14.8978C13.9556 15.1289 13.8045 15.0133 13.9201 14.6489L14.5779 12.6044L12.8534 11.3511C12.5423 11.12 12.5956 10.9333 12.9867 10.9333H15.1112L15.7867 8.88887C15.9023 8.52443 16.0979 8.52443 16.2134 8.88887L16.889 10.9333H19.0223C19.4134 10.9333 19.4756 11.12 19.1556 11.3511L17.4223 12.6044L18.0801 14.6489Z" fill="white"/>
<path d="M9.39563 21.0933V20.4444H12.5334V19.4133H9.39563V17.04H13.2179V17.7066H10.0801V18.7111H13.2179V21.0933H9.39563Z" fill="#B1B2A7"/>
<path d="M15.4401 17.7067H14.1601V20.3733H16.0001V21.0667H13.4845V15.8755H14.1601V17.04H15.4401V17.7067Z" fill="#B1B2A7"/>
<path d="M20.1156 17.04V21.0933H16.2933V18.72H19.4222V17.7155H16.96V17.04H20.1156ZM19.4222 19.4044H16.96V20.4444H19.4222V19.4044Z" fill="#B1B2A7"/>
<path d="M22.6845 17.7155H21.0579V21.0933H20.3823V17.04H22.6845V17.7155Z" fill="#B1B2A7"/>
<path d="M25.7778 22.3378H26.0356V23.1111L26.4356 22.6489H26.7644L26.32 23.12L26.7644 23.6178H26.4178L26.0356 23.1467V23.6178H25.7778V22.3378ZM25.0667 22.8978H24.9156V23.4489H25.0933C25.167 23.4555 25.2403 23.4332 25.2978 23.3867C25.3409 23.3244 25.3599 23.2486 25.3511 23.1733C25.3591 23.0968 25.3368 23.0202 25.2889 22.96C25.226 22.9107 25.1461 22.8883 25.0667 22.8978ZM24.9156 22.3378V22.6845H25.1378C25.2141 22.6696 25.2926 22.6696 25.3689 22.6845C25.4282 22.7096 25.4802 22.7494 25.52 22.8C25.5507 22.8468 25.5746 22.8977 25.5911 22.9511C25.5996 23.0071 25.5996 23.064 25.5911 23.12C25.5967 23.1861 25.5885 23.2525 25.567 23.3153C25.5456 23.378 25.5114 23.4356 25.4667 23.4845C25.4233 23.5297 25.3706 23.565 25.3123 23.588C25.254 23.611 25.1915 23.6212 25.1289 23.6178H24.64V22.3378H24.9156ZM23.8489 22.5689H23.4222V22.3378H24.5511V22.5689H24.1333V23.6533H23.8489V22.5689ZM21.2356 22.6845H22.2222C22.3305 22.6753 22.4383 22.707 22.5244 22.7733C22.5575 22.8088 22.5826 22.851 22.5979 22.897C22.6133 22.943 22.6185 22.9918 22.6133 23.04V23.6533H22.3644V23.1111C22.3783 23.0647 22.3783 23.0153 22.3644 22.9689C22.3215 22.9525 22.274 22.9525 22.2311 22.9689H22.0889V23.7245H21.8311V22.9689H21.5111V23.7245H21.2533L21.2356 22.6845ZM20.7111 23.6533C20.6449 23.6606 20.578 23.6532 20.515 23.6317C20.452 23.6102 20.3945 23.5751 20.3467 23.5289C20.303 23.4811 20.2695 23.4249 20.2481 23.3638C20.2267 23.3027 20.2179 23.2379 20.2222 23.1733C20.2135 23.1071 20.2201 23.0397 20.2415 22.9764C20.263 22.9131 20.2988 22.8555 20.346 22.8083C20.3933 22.761 20.4508 22.7252 20.5141 22.7038C20.5774 22.6823 20.6448 22.6757 20.7111 22.6845H21.0756V22.8889H20.7467C20.6828 22.8701 20.6149 22.8701 20.5511 22.8889C20.5189 22.929 20.5031 22.9798 20.5067 23.0311H21.0756V23.2356H20.5067C20.5067 23.3067 20.5067 23.3511 20.5511 23.3778C20.6068 23.4125 20.6724 23.4281 20.7378 23.4222H21.0756V23.6178L20.7111 23.6533ZM19.2 22.3378H19.4489V22.6845H19.68C19.7884 22.6744 19.8965 22.7062 19.9822 22.7733C20.0169 22.808 20.0436 22.8498 20.0605 22.8959C20.0774 22.9419 20.084 22.9911 20.08 23.04V23.6533H19.8222V23.1111C19.8301 23.0876 19.8313 23.0623 19.8257 23.0381C19.82 23.014 19.8077 22.9919 19.7901 22.9743C19.7726 22.9568 19.7505 22.9445 19.7263 22.9388C19.7021 22.9331 19.6769 22.9343 19.6533 22.9422H19.4489V23.6978H19.2V22.3378ZM18.6667 23.4489H19.0133V23.6533H18.6667C18.5929 23.6637 18.5182 23.6637 18.4444 23.6533C18.3905 23.6358 18.3416 23.6053 18.3022 23.5645C18.2594 23.5181 18.2262 23.4637 18.2044 23.4045C18.1749 23.3403 18.1596 23.2706 18.1596 23.2C18.1596 23.1294 18.1749 23.0597 18.2044 22.9956C18.2246 22.9329 18.258 22.8754 18.3022 22.8267C18.3436 22.7839 18.3958 22.7532 18.4533 22.7378C18.524 22.7268 18.596 22.7268 18.6667 22.7378H19.0044V22.9511H18.7378C18.6133 22.9511 18.5333 22.9511 18.4978 23.0133C18.4706 23.0412 18.45 23.0749 18.4377 23.1118C18.4254 23.1488 18.4216 23.1881 18.4267 23.2267C18.4157 23.2734 18.4157 23.3221 18.4267 23.3689C18.4405 23.4102 18.4689 23.445 18.5067 23.4667H18.6667V23.4489ZM18.0711 23.1733C18.0749 23.2407 18.0641 23.3081 18.0396 23.371C18.0151 23.4339 17.9773 23.4908 17.9289 23.5378C17.8802 23.5833 17.8228 23.6185 17.7602 23.6414C17.6976 23.6643 17.631 23.6744 17.5644 23.6711C17.4965 23.6746 17.4285 23.6647 17.3644 23.6418C17.3004 23.6189 17.2415 23.5835 17.1911 23.5378C17.1005 23.438 17.0504 23.3081 17.0504 23.1733C17.0504 23.0386 17.1005 22.9087 17.1911 22.8089C17.2395 22.7598 17.2979 22.7216 17.3623 22.6971C17.4267 22.6726 17.4956 22.6622 17.5644 22.6667C17.6316 22.6642 17.6986 22.6756 17.7612 22.7002C17.8238 22.7247 17.8807 22.762 17.9283 22.8095C17.9758 22.8571 18.013 22.9139 18.0376 22.9765C18.0622 23.0391 18.0736 23.1061 18.0711 23.1733ZM17.3244 23.1733C17.319 23.2496 17.3411 23.3253 17.3867 23.3867C17.4078 23.4132 17.435 23.4343 17.4659 23.4482C17.4968 23.4621 17.5306 23.4684 17.5644 23.4667C17.5982 23.4677 17.6318 23.4611 17.6626 23.4472C17.6934 23.4333 17.7206 23.4126 17.7422 23.3867C17.7878 23.3253 17.8099 23.2496 17.8044 23.1733C17.8125 23.0968 17.7901 23.0202 17.7422 22.96C17.7206 22.934 17.6934 22.9133 17.6626 22.8995C17.6318 22.8856 17.5982 22.879 17.5644 22.88C17.5314 22.8785 17.4985 22.884 17.4678 22.8963C17.4372 22.9086 17.4095 22.9272 17.3867 22.9511C17.3398 23.0152 17.3177 23.0942 17.3244 23.1733ZM16.2578 22.6845H16.6844C16.7597 22.6757 16.8355 22.6946 16.8978 22.7378C16.9407 22.7937 16.9627 22.8629 16.96 22.9333V23.1111H16.72V22.9867C16.7304 22.961 16.7304 22.9323 16.72 22.9067C16.6909 22.8987 16.6602 22.8987 16.6311 22.9067H16.5422V23.6889H16.2844L16.2578 22.6845ZM15.4133 22.6845H15.5911V22.3378H15.84V22.6845H16.1067V22.88H15.84V23.2711C15.8264 23.3206 15.8264 23.3728 15.84 23.4222C15.8829 23.4386 15.9304 23.4386 15.9733 23.4222H16.0711V23.6178H15.84C15.8015 23.6211 15.7627 23.6164 15.726 23.6042C15.6893 23.592 15.6555 23.5724 15.6267 23.5467C15.5767 23.4803 15.5515 23.3985 15.5556 23.3156V22.8445H15.3778L15.4133 22.6845ZM14.9778 23.6533C14.9123 23.6618 14.8458 23.6553 14.7833 23.6343C14.7207 23.6134 14.6637 23.5784 14.6166 23.5322C14.5695 23.486 14.5336 23.4296 14.5114 23.3675C14.4893 23.3053 14.4816 23.2389 14.4889 23.1733C14.4844 23.1074 14.4931 23.0412 14.5144 22.9786C14.5358 22.916 14.5694 22.8583 14.6133 22.8089C14.7142 22.7219 14.8448 22.6773 14.9778 22.6845H15.3422V22.8889H15.0133C14.9524 22.8709 14.8876 22.8709 14.8267 22.8889C14.8078 22.9072 14.7933 22.9294 14.784 22.954C14.7748 22.9786 14.7712 23.0049 14.7733 23.0311H15.3422V23.2356H14.7733C14.7688 23.287 14.7848 23.3381 14.8178 23.3778C14.8767 23.4126 14.9451 23.4281 15.0133 23.4222H15.3422V23.6178L14.9778 23.6533ZM13.8133 22.5689H13.5022V22.96H13.8311C13.8979 22.9672 13.9649 22.9481 14.0178 22.9067C14.0394 22.8902 14.0564 22.8685 14.0673 22.8436C14.0782 22.8187 14.0825 22.7915 14.08 22.7645C14.0842 22.736 14.0806 22.7069 14.0696 22.6804C14.0587 22.6538 14.0408 22.6306 14.0178 22.6133C13.9554 22.5789 13.8844 22.5634 13.8133 22.5689ZM13.2267 22.3378H14.0622L14.2044 22.3911C14.2622 22.428 14.3084 22.4803 14.3378 22.5422C14.3671 22.6095 14.3822 22.6822 14.3822 22.7556C14.3972 22.8229 14.3972 22.8927 14.3822 22.96C14.3462 23.026 14.2902 23.0789 14.2222 23.1111H14.1422H13.8844H13.5556V23.5733H13.2444L13.2267 22.3378ZM11.6444 22.6845H12.0711C12.1435 22.6762 12.2164 22.6952 12.2756 22.7378C12.3185 22.7937 12.3405 22.8629 12.3378 22.9333V23.1111H12.0978V22.9867C12.1039 22.9604 12.1039 22.933 12.0978 22.9067C12.0657 22.8988 12.0321 22.8988 12 22.9067H11.9111V23.6889H11.6622L11.6444 22.6845ZM10.5067 22.6845H11.0222C11.0746 22.6793 11.1274 22.6844 11.1777 22.6997C11.2281 22.7149 11.2749 22.74 11.3156 22.7733C11.3525 22.8086 11.3813 22.8515 11.3997 22.8992C11.4182 22.9468 11.4258 22.9979 11.4222 23.0489V23.6533H10.7556C10.7156 23.6573 10.6753 23.6531 10.6371 23.6408C10.5988 23.6286 10.5635 23.6087 10.5333 23.5822C10.4836 23.5261 10.4581 23.4526 10.4622 23.3778C10.4565 23.3336 10.4616 23.2886 10.4771 23.2468C10.4926 23.205 10.518 23.1676 10.5511 23.1378C10.6435 23.0978 10.7463 23.0884 10.8444 23.1111H11.1733C11.1748 23.0889 11.1707 23.0667 11.1613 23.0466C11.152 23.0264 11.1378 23.0089 11.12 22.9956C11.0624 22.9759 10.9999 22.9759 10.9422 22.9956H10.5244L10.5067 22.6845ZM10.8444 23.4578H11.1556V23.2622H10.8622H10.7378C10.7276 23.291 10.7276 23.3224 10.7378 23.3511C10.7329 23.3623 10.7304 23.3744 10.7304 23.3867C10.7304 23.3989 10.7329 23.411 10.7378 23.4222C10.7378 23.4222 10.7911 23.4222 10.8533 23.4222M9.64444 22.6489H9.82222V22.3022H10.08V22.6489H10.3467V22.8445H10.08V23.2356C10.0623 23.2844 10.0623 23.3378 10.08 23.3867C10.08 23.3867 10.1422 23.3867 10.2044 23.3867H10.3111V23.5822H10.08C10.0401 23.5862 9.99973 23.582 9.96151 23.5697C9.92329 23.5575 9.88798 23.5375 9.85777 23.5111C9.8078 23.4448 9.78264 23.363 9.78666 23.28V22.8089H9.60889L9.64444 22.6489ZM9.50222 22.5333H8.82666C8.77414 22.5202 8.71918 22.5202 8.66666 22.5333C8.64852 22.5503 8.63434 22.571 8.62512 22.5941C8.6159 22.6171 8.61187 22.6419 8.61333 22.6667C8.61216 22.688 8.61551 22.7093 8.62317 22.7292C8.63083 22.7491 8.64263 22.7672 8.65777 22.7822C8.7015 22.7935 8.74738 22.7935 8.79111 22.7822H9.15555C9.2681 22.7731 9.38052 22.8012 9.47555 22.8622C9.5105 22.9022 9.53714 22.9487 9.55393 22.9991C9.57072 23.0494 9.57731 23.1026 9.57333 23.1556C9.57663 23.2099 9.568 23.2644 9.54803 23.315C9.52807 23.3657 9.49727 23.4114 9.45777 23.4489C9.35929 23.5253 9.23497 23.5603 9.11111 23.5467H8.38222V23.3156H9.06666C9.12166 23.3327 9.18055 23.3327 9.23555 23.3156C9.25086 23.2786 9.25086 23.237 9.23555 23.2C9.24498 23.1806 9.24988 23.1593 9.24988 23.1378C9.24988 23.1162 9.24498 23.0949 9.23555 23.0756C9.18599 23.0628 9.134 23.0628 9.08444 23.0756H8.76444C8.64651 23.0846 8.52939 23.0498 8.43555 22.9778C8.39679 22.942 8.36696 22.8976 8.34844 22.8482C8.32991 22.7988 8.32322 22.7458 8.32888 22.6933C8.32416 22.6369 8.3312 22.5801 8.34956 22.5266C8.36792 22.473 8.3972 22.4239 8.43555 22.3822C8.54102 22.3142 8.66603 22.2829 8.79111 22.2933H9.51111L9.50222 22.5333ZM6.83555 22.5333H6.43555V22.3022H7.56444V22.5333H7.11111V23.6178H6.86222L6.83555 22.5333ZM5.78666 22.5333H5.49333V22.9245H5.83111C5.89774 22.9299 5.96408 22.911 6.01777 22.8711C6.03936 22.8546 6.0564 22.8329 6.06729 22.8081C6.07817 22.7832 6.08255 22.7559 6.08 22.7289C6.08176 22.7006 6.07708 22.6723 6.0663 22.6462C6.05552 22.62 6.03893 22.5966 6.01777 22.5778C5.95493 22.5447 5.88425 22.5293 5.81333 22.5333M5.21777 22.3022H6.10666L6.22222 22.4C6.27765 22.4395 6.32326 22.4912 6.35555 22.5511C6.36992 22.6215 6.36992 22.6941 6.35555 22.7645C6.36635 22.8322 6.36635 22.9012 6.35555 22.9689C6.32523 23.0278 6.27904 23.0771 6.22222 23.1111H6.15111H6.07111H5.82222H5.49333V23.5733H5.21777V22.3022Z" fill="#B1B2A7"/>
</g>
<defs>
<clipPath id="clip0_2707_273298">
<rect width="32" height="32" fill="white"/>
</clipPath>
</defs>
</svg>
