<svg width="32" height="32" viewBox="0 0 32 32" fill="none" xmlns="http://www.w3.org/2000/svg">
<g clip-path="url(#clip0_2737_124236)">
<mask id="mask0_2737_124236" style="mask-type:luminance" maskUnits="userSpaceOnUse" x="0" y="0" width="32" height="32">
<path d="M31.9909 0.0177765H0.0175781V31.9911H31.9909V0.0177765Z" fill="white"/>
</mask>
<g mask="url(#mask0_2737_124236)">
<path d="M15.9998 31.9822C24.8265 31.9822 31.982 24.8267 31.982 16C31.982 7.17326 24.8265 0.0177765 15.9998 0.0177765C7.17306 0.0177765 0.0175781 7.17326 0.0175781 16C0.0175781 24.8267 7.17306 31.9822 15.9998 31.9822Z" fill="white"/>
<path fill-rule="evenodd" clip-rule="evenodd" d="M20.9955 21.76C20.9688 21.8133 20.951 21.8667 20.9155 21.92C20.7733 22.1422 20.6044 22.3467 20.4266 22.5422C20.3377 22.6311 20.2488 22.72 20.1599 22.8089C19.8488 23.1289 19.4933 23.3778 19.0933 23.5733C18.8444 23.6978 18.5866 23.7956 18.311 23.8578C18.1333 23.9022 17.9377 23.9111 17.7599 23.9467C17.3244 24.0267 16.8799 23.9733 16.4444 23.9822C16.3377 23.9822 16.231 23.9556 16.1244 23.9378C15.8755 23.9022 15.6266 23.8578 15.3866 23.7778C15.0221 23.6533 14.6755 23.4844 14.3555 23.2533C14.2577 23.1822 14.1599 23.1022 14.0799 23.0133C13.9021 22.8444 13.7244 22.6667 13.5555 22.4889C13.3688 22.2844 13.1999 22.0622 13.0755 21.8133C12.9955 21.6533 12.8977 21.4933 12.8266 21.3244C12.7199 21.0756 12.6221 20.8267 12.5777 20.56C12.5244 20.2667 12.4799 19.9733 12.4888 19.68C12.4977 18.9867 12.4621 18.2844 12.4977 17.5911C12.5421 16.7378 12.5155 15.8844 12.5244 15.0222C12.5244 13.7867 12.5244 12.56 12.5244 11.3244C12.5244 11.28 12.5244 11.2267 12.5244 11.1644C12.5688 11.1644 12.5955 11.1644 12.631 11.1822C12.8444 11.2711 13.0577 11.3689 13.271 11.4578C13.4666 11.5378 13.6621 11.6267 13.8577 11.7067C14.0177 11.7778 14.1866 11.8489 14.3466 11.92C14.3733 11.9289 14.3999 11.9556 14.4355 11.9822C14.4355 12.0444 14.4355 12.1067 14.4355 12.1689C14.4355 13.1556 14.4355 14.1333 14.4355 15.12C14.4355 15.1644 14.4355 15.2089 14.4355 15.2533C14.4444 15.3511 14.4799 15.3867 14.5777 15.3956C14.6044 15.3956 14.631 15.3956 14.6666 15.3956C14.7821 15.3956 14.9066 15.3956 15.0221 15.3956C15.6444 15.3867 16.2577 15.3511 16.8799 15.36C16.9777 15.36 17.0844 15.3244 17.1821 15.3333C17.4221 15.3689 17.671 15.3333 17.911 15.36C18.1244 15.3778 18.3377 15.4311 18.5421 15.4844C18.8266 15.5467 19.0844 15.6711 19.3333 15.8044C19.4399 15.8667 19.5377 15.9467 19.6355 16.0267C19.7777 16.1422 19.9288 16.2489 20.0621 16.3733C20.1866 16.4978 20.3021 16.6222 20.4088 16.7644C20.5866 17.0044 20.7644 17.2533 20.8977 17.52C21.0044 17.7333 21.1021 17.9467 21.1644 18.1778C21.1999 18.32 21.2444 18.4622 21.2888 18.5956C21.2977 18.6311 21.3066 18.6756 21.3155 18.7022C21.271 18.8178 21.1644 18.8444 21.0755 18.8978C20.9777 18.9511 20.871 19.0044 20.7644 19.04C20.6577 19.0756 20.551 19.1022 20.4444 19.12C20.1421 19.1733 19.8399 19.1822 19.5377 19.12C19.5199 19.12 19.5021 19.1022 19.4755 19.1022C19.4577 19.0133 19.4399 18.9244 19.4221 18.8356C19.3866 18.56 19.271 18.32 19.1021 18.1067C18.8177 17.7244 18.4266 17.4844 17.9821 17.3422C17.7777 17.2711 17.5644 17.2356 17.3333 17.2356C16.4444 17.2356 15.5466 17.2356 14.6577 17.2356C14.4266 17.2356 14.4177 17.2444 14.4177 17.4756C14.4177 17.9911 14.4177 18.5067 14.4177 19.0133C14.4177 19.1644 14.4177 19.3244 14.4533 19.4756C14.4799 19.6267 14.4977 19.7689 14.5333 19.92C14.6133 20.2578 14.7555 20.5689 14.951 20.8533C15.0577 21.0044 15.1733 21.1556 15.3066 21.2889C15.5733 21.5556 15.8844 21.7511 16.231 21.8844C16.3555 21.9289 16.471 21.9733 16.5955 22.0178C16.7377 22.0622 16.8888 22.0978 17.0399 22.1067C17.1466 22.1067 17.2533 22.1333 17.351 22.1333C17.7244 22.1333 18.0799 22.0622 18.4177 21.92C18.5599 21.8578 18.6933 21.7867 18.8355 21.7156C18.8799 21.6978 18.9333 21.68 18.9777 21.6889C19.111 21.7067 19.2533 21.7244 19.3866 21.7511C19.4399 21.7511 19.5021 21.7689 19.5555 21.7689C19.8844 21.7689 20.2044 21.7689 20.5333 21.7689C20.6488 21.7689 20.7644 21.7333 20.8799 21.7156C20.9066 21.7156 20.9421 21.7156 20.9688 21.7067L20.9866 21.7333L20.9955 21.76ZM18.2133 15.0311C18.2133 14.9778 18.2133 14.96 18.2133 14.9333C18.391 14.3467 18.5688 13.76 18.7555 13.1644C18.8088 13.1644 18.8533 13.1467 18.8977 13.1467C19.3333 13.1467 19.7688 13.1467 20.2044 13.1467C20.3733 13.1467 20.5421 13.1911 20.711 13.2089C20.9421 13.2356 21.1555 13.2978 21.3777 13.3689C21.6977 13.4667 21.9999 13.5822 22.2844 13.76C22.4799 13.8844 22.6755 14.0178 22.8444 14.1689C23.0133 14.32 23.1644 14.4978 23.3155 14.6578C23.3688 14.7111 23.4133 14.7822 23.4577 14.8356C23.6177 15.0311 23.7332 15.2622 23.831 15.4933C23.8844 15.6267 23.9199 15.76 23.9555 15.9022C23.991 16.0267 24.0177 16.1511 24.0355 16.2756C24.071 16.5244 24.1066 16.7822 24.0977 17.04C24.0888 17.3067 24.0977 17.5733 24.0799 17.8311C24.0799 17.9644 24.0621 18.0978 24.0355 18.2311C23.9999 18.4267 23.9466 18.6311 23.8932 18.8267C23.8666 18.9156 23.831 18.9956 23.7955 19.0756C23.7066 19.2533 23.6266 19.44 23.5199 19.6089C23.431 19.7422 23.3244 19.8756 23.2177 19.9911C23.0933 20.1333 22.951 20.2578 22.8177 20.3911C22.6221 20.6044 22.3821 20.7556 22.1333 20.8978C21.9555 20.9956 21.7777 21.0844 21.591 21.1556C21.431 21.2178 21.2533 21.2533 21.0844 21.2978C20.8355 21.36 20.5777 21.4044 20.311 21.3956C20.1333 21.3956 19.9644 21.3956 19.7866 21.3956C19.6799 21.3956 19.5733 21.3956 19.4577 21.36C19.3599 21.3333 19.2444 21.3333 19.1466 21.3156C18.8266 21.2622 18.5066 21.1822 18.2044 21.0667C17.9821 20.9778 17.7777 20.8711 17.5733 20.7467C17.271 20.56 17.0044 20.32 16.7733 20.0533C16.551 19.8044 16.3555 19.5378 16.2133 19.2267C16.1066 18.9867 16.0355 18.7378 15.9466 18.4889C15.9021 18.3556 15.8755 18.2133 15.831 18.08C15.7955 17.9644 15.8044 17.8489 15.8221 17.7156C15.8666 17.7156 15.911 17.6978 15.9555 17.6978C16.5066 17.6978 17.0577 17.6978 17.6088 17.6978C17.6444 17.6978 17.6888 17.6978 17.7333 17.7067C17.7599 17.7956 17.7955 17.8844 17.8133 17.9733C17.8844 18.2133 17.9821 18.4444 18.1333 18.64C18.2577 18.8089 18.4088 18.96 18.5955 19.0756C18.8355 19.2267 19.1021 19.3333 19.3777 19.3956C19.6266 19.4489 19.8666 19.5111 20.1244 19.4933C20.3555 19.4756 20.5777 19.44 20.791 19.3511C20.8621 19.3244 20.9333 19.2978 21.0044 19.2622C21.2533 19.1378 21.4488 18.9511 21.6177 18.7378C21.7599 18.5511 21.8577 18.3467 21.9466 18.1422C22.0177 17.9644 22.0444 17.7689 22.0888 17.5733C22.0977 17.5289 22.1066 17.4844 22.1066 17.44C22.1066 17.36 22.1333 17.28 22.1244 17.2C22.0977 17.0133 22.071 16.8178 22.0177 16.64C21.9644 16.4533 21.911 16.2578 21.7955 16.1067C21.7777 16.08 21.7688 16.0622 21.751 16.0356C21.6532 15.7867 21.4577 15.6089 21.2444 15.4667C21.0666 15.3511 20.871 15.2533 20.6666 15.1822C20.4533 15.1111 20.231 15.0844 20.0088 15.0311C19.9733 15.0222 19.9288 15.0311 19.8844 15.0311C19.4755 15.0311 19.0577 15.0311 18.6488 15.0311C18.5599 15.0311 18.471 15.04 18.3821 15.0489C18.3199 15.0489 18.2666 15.0489 18.1866 15.0489L18.2133 15.0311ZM11.7066 15.6089C11.7421 15.7422 11.7333 17.4311 11.6977 17.5289C11.6621 17.5289 11.6177 17.5289 11.5733 17.5289C11.1999 17.5289 10.8355 17.5289 10.4621 17.5289C10.3733 17.5289 10.2844 17.5556 10.1955 17.5556C9.97325 17.5556 9.75992 17.5378 9.54658 17.4933C9.48436 17.4756 9.41325 17.4756 9.35103 17.4667C9.06658 17.4133 8.79992 17.3067 8.55103 17.1556C8.28436 16.9956 8.07103 16.7822 7.89325 16.5333C7.67103 16.2222 7.5377 15.8756 7.42214 15.52C7.32436 15.2356 7.27103 14.9511 7.23547 14.6489C7.2177 14.5067 7.19103 14.3644 7.17325 14.2311C7.16436 14.1333 7.15547 14.0356 7.15547 13.9378C7.15547 13.8311 7.15547 13.7156 7.15547 13.6089C7.15547 11.2889 7.15547 8.96889 7.15547 6.64889C7.15547 6.28444 7.14658 5.91111 7.1377 5.54666C7.1377 5.50222 7.1377 5.45777 7.14658 5.42222C7.27103 5.44 8.95992 6.24 9.08436 6.32889C9.08436 6.37333 9.08436 6.43555 9.08436 6.49777C9.08436 8.84444 9.08436 11.1911 9.08436 13.5467C9.08436 13.6444 9.09325 13.7511 9.11103 13.8489C9.12881 13.9556 9.11992 14.0711 9.12881 14.1778C9.14658 14.5156 9.2177 14.8356 9.42214 15.12C9.5377 15.2889 9.6977 15.4133 9.88436 15.4844C9.99992 15.5289 10.1155 15.5556 10.2399 15.5822C10.6755 15.6533 11.111 15.6 11.5466 15.6178C11.5999 15.6178 11.6533 15.6178 11.7066 15.6267V15.6089ZM17.751 15.0222H15.8577C15.8577 14.96 15.8488 14.9156 15.8488 14.8622C15.8488 14.1244 15.8488 13.3956 15.8488 12.6578C15.8488 12.56 15.831 12.4533 15.8221 12.3556C15.8221 12.2133 15.8044 12.0711 15.8044 11.9289C15.8044 11.6089 15.8044 11.2889 15.8133 10.96C15.8133 10.4978 15.8133 10.0356 15.8133 9.57333C15.8133 9.49333 15.7955 9.41333 15.7866 9.33333C15.7866 9.29777 15.7777 9.26222 15.7777 9.22666C15.7777 9.01333 15.7777 8.8 15.7777 8.58666C15.7777 8.54222 15.7955 8.49777 15.7955 8.45333C15.9644 8.45333 17.6177 9.01333 17.7688 9.12C17.7688 9.13777 17.7866 9.16444 17.7866 9.18222C17.7866 11.1111 17.7866 13.0311 17.7866 14.96C17.7866 14.9778 17.7777 14.9867 17.7688 15.0133L17.751 15.0222Z" fill="#181818"/>
<path fill-rule="evenodd" clip-rule="evenodd" d="M22.7821 20.4356C22.7821 20.4356 22.7733 20.4444 22.7644 20.4533C22.5777 20.6311 22.3644 20.7733 22.1421 20.8978C21.9644 20.9956 21.7866 21.0844 21.5999 21.1556C21.4399 21.2178 21.2621 21.2533 21.0933 21.2978C20.8444 21.36 20.5866 21.4044 20.3199 21.3956C20.1421 21.3956 19.9733 21.3956 19.7955 21.3956C19.6888 21.3956 19.5821 21.3956 19.4666 21.36C19.3688 21.3333 19.2533 21.3333 19.1555 21.3156C18.8355 21.2622 18.5155 21.1822 18.2133 21.0667C17.991 20.9778 17.7866 20.8711 17.5821 20.7467C17.2799 20.56 17.0132 20.32 16.7821 20.0533C16.5599 19.8044 16.3644 19.5378 16.2221 19.2267C16.1155 18.9867 16.0444 18.7378 15.9555 18.4889C15.911 18.3556 15.8844 18.2133 15.8399 18.08C15.831 18.0444 15.8221 18.0178 15.8221 17.9822C16.3288 17.9822 16.8355 17.9822 17.3333 17.9822C17.3688 17.9822 17.4132 17.9822 17.4577 17.9911C17.4844 18.08 17.5199 18.1689 17.5377 18.2578C17.6088 18.4978 17.7066 18.7289 17.8577 18.9244C17.9821 19.0933 18.1333 19.2444 18.3199 19.36C18.5599 19.5111 18.8266 19.6178 19.1021 19.68C19.351 19.7333 19.591 19.7956 19.8488 19.7778C20.0799 19.76 20.3021 19.7244 20.5155 19.6356C20.5866 19.6089 20.6577 19.5822 20.7288 19.5467C20.951 19.4311 21.1288 19.2711 21.2888 19.0844C21.4133 18.9867 21.5199 18.8711 21.6177 18.7378C21.7599 18.5511 21.8577 18.3467 21.9466 18.1422C22.0177 17.9644 22.0444 17.7689 22.0888 17.5733C22.0977 17.5289 22.1066 17.4844 22.1066 17.44C22.1066 17.36 22.1333 17.28 22.1244 17.2C22.0977 17.0133 22.071 16.8178 22.0177 16.64C21.9644 16.4533 21.911 16.2578 21.7955 16.1067C21.7777 16.08 21.7688 16.0622 21.751 16.0356C21.6532 15.7867 21.4577 15.6089 21.2444 15.4667C21.0666 15.3511 20.871 15.2533 20.6666 15.1822C20.4532 15.1111 20.231 15.0844 20.0088 15.0311C19.9733 15.0222 19.9288 15.0311 19.8844 15.0311C19.4755 15.0311 19.0577 15.0311 18.6488 15.0311C18.5599 15.0311 18.471 15.04 18.3821 15.0489C18.3199 15.0489 18.2666 15.0489 18.1866 15.0489C18.1866 14.9956 18.1866 14.9778 18.1866 14.9511C18.3377 14.4533 18.4888 13.9556 18.6488 13.4489C19.0666 13.4489 19.4844 13.4489 19.9021 13.4489C20.071 13.4489 20.2399 13.4933 20.4088 13.5111C20.6399 13.5378 20.8532 13.6 21.0755 13.6711C21.3955 13.7689 21.6977 13.8844 21.9821 14.0622C22.1777 14.1867 22.3733 14.32 22.5421 14.4711C22.711 14.6222 22.8621 14.8 23.0133 14.96C23.0666 15.0133 23.111 15.0844 23.1555 15.1378C23.3155 15.3333 23.431 15.5644 23.5288 15.7956C23.5821 15.9289 23.6177 16.0622 23.6533 16.2044C23.6888 16.3289 23.7155 16.4533 23.7333 16.5778C23.7688 16.8267 23.8044 17.0844 23.7955 17.3422C23.7866 17.6089 23.7955 17.8756 23.7777 18.1333C23.7777 18.2667 23.7599 18.4 23.7333 18.5333C23.6977 18.7289 23.6444 18.9333 23.591 19.1289C23.5644 19.2178 23.5288 19.2978 23.4933 19.3778C23.4044 19.5556 23.3244 19.7422 23.2177 19.9111C23.1288 20.0444 23.0221 20.1778 22.9155 20.2933C22.9155 20.2933 22.8977 20.3111 22.8977 20.32C22.8621 20.3556 22.8355 20.3822 22.7999 20.4178C22.7821 20.4356 22.7732 20.4444 22.7555 20.4622L22.7821 20.4356ZM20.1333 22.8356C19.831 23.1378 19.4755 23.3867 19.0933 23.5733C18.8444 23.6978 18.5866 23.7956 18.311 23.8578C18.1333 23.9022 17.9377 23.9111 17.7599 23.9467C17.3244 24.0267 16.8799 23.9733 16.4444 23.9822C16.3377 23.9822 16.231 23.9556 16.1244 23.9378C15.8755 23.9022 15.6266 23.8578 15.3866 23.7778C15.0221 23.6533 14.6755 23.4844 14.3555 23.2533C14.2577 23.1822 14.1599 23.1022 14.0799 23.0133C13.9021 22.8444 13.7244 22.6667 13.5555 22.4889C13.3688 22.2844 13.1999 22.0622 13.0755 21.8133C12.9955 21.6533 12.8977 21.4933 12.8266 21.3244C12.7199 21.0756 12.6221 20.8267 12.5777 20.56C12.5244 20.2667 12.4799 19.9733 12.4888 19.68C12.4977 18.9867 12.4621 18.2844 12.4977 17.5911C12.5421 16.7378 12.5244 12.7022 12.5155 11.5467C12.6755 11.6178 12.8266 11.6889 12.9866 11.7511C13.1821 11.8311 13.3777 11.92 13.5733 12C13.7333 12.0711 13.9021 12.1422 14.0621 12.2133C14.0888 12.2222 14.1155 12.2489 14.151 12.2756C14.151 12.3378 14.151 12.4 14.151 12.4622C14.151 13.4489 14.151 14.4267 14.151 15.4133C14.151 15.4578 14.151 15.5022 14.151 15.5467C14.1599 15.6444 14.1955 15.68 14.2933 15.6889C14.3199 15.6889 14.3466 15.6889 14.3821 15.6889C14.4977 15.6889 14.6221 15.6889 14.7377 15.6889C15.3599 15.68 15.9733 15.6444 16.5955 15.6533C16.6933 15.6533 16.7999 15.6178 16.8977 15.6267C17.1377 15.6622 17.3866 15.6267 17.6266 15.6533C17.8399 15.6711 18.0533 15.7244 18.2577 15.7778C18.5421 15.84 18.7999 15.9644 19.0488 16.0978C19.1555 16.16 19.2533 16.24 19.351 16.32C19.4933 16.4356 19.6444 16.5422 19.7777 16.6667C19.9021 16.7911 20.0177 16.9156 20.1244 17.0578C20.3021 17.2978 20.4799 17.5467 20.6133 17.8133C20.7199 18.0267 20.8177 18.24 20.8799 18.4711C20.9155 18.6133 20.9599 18.7556 21.0044 18.8889C21.0044 18.9067 21.0133 18.9244 21.0221 18.9422C20.9421 18.9867 20.8533 19.0222 20.7644 19.0578C20.6577 19.0933 20.551 19.12 20.4444 19.1378C20.1421 19.1911 19.8399 19.2 19.5377 19.1378C19.5199 19.1378 19.5021 19.12 19.4755 19.12C19.4577 19.0311 19.4399 18.9422 19.4221 18.8533C19.3866 18.5778 19.271 18.3378 19.1021 18.1244C18.8177 17.7422 18.4266 17.5022 17.9821 17.36C17.7777 17.2889 17.5644 17.2533 17.3333 17.2533C16.4444 17.2533 15.5466 17.2533 14.6577 17.2533C14.4266 17.2533 14.4177 17.2622 14.4177 17.4933C14.4177 17.5022 14.4177 17.52 14.4177 17.5289H14.3733C14.1421 17.5289 14.1333 17.5378 14.1333 17.7689C14.1333 18.2844 14.1333 18.8 14.1333 19.3067C14.1333 19.4578 14.1333 19.6089 14.1688 19.7689C14.1955 19.92 14.2133 20.0622 14.2488 20.2133C14.3288 20.5511 14.471 20.8622 14.6666 21.1467C14.7733 21.2978 14.8888 21.4489 15.0221 21.5822C15.2888 21.8489 15.5999 22.0444 15.9466 22.1778C16.071 22.2222 16.1866 22.2667 16.311 22.3111C16.4533 22.3556 16.6044 22.3911 16.7555 22.4C16.8621 22.4 16.9688 22.4267 17.0666 22.4267C17.4399 22.4267 17.7955 22.3556 18.1333 22.2133C18.2755 22.1511 18.4088 22.08 18.551 22.0089C18.5955 21.9911 18.6488 21.9733 18.6933 21.9822C18.8266 22 18.9688 22.0178 19.1021 22.0444C19.1555 22.0444 19.2177 22.0622 19.271 22.0622C19.5999 22.0622 19.9199 22.0622 20.2488 22.0622C20.3644 22.0622 20.4799 22.0267 20.5955 22.0089C20.6221 22.0089 20.6577 22.0089 20.6844 22L20.7021 22.0267C20.6755 22.08 20.6577 22.1333 20.6221 22.1867C20.4799 22.4089 20.311 22.6133 20.1333 22.8089C20.1333 22.8089 20.1333 22.8089 20.1244 22.8178L20.1333 22.8356ZM19.1733 19.3422C19.2444 19.3689 19.3244 19.3867 19.3955 19.4044C19.5199 19.4311 19.6355 19.4578 19.7599 19.4756C19.591 19.4756 19.4132 19.4667 19.2444 19.4311C19.2266 19.4311 19.2088 19.4133 19.1821 19.4133C19.1821 19.3956 19.1821 19.3689 19.1733 19.3511V19.3422ZM11.431 17.5289C11.1021 17.5289 10.7821 17.5289 10.4533 17.5289C10.3644 17.5289 10.2755 17.5556 10.1866 17.5556C9.96436 17.5556 9.75103 17.5378 9.53769 17.4933C9.47547 17.4756 9.40436 17.4756 9.34214 17.4667C9.0577 17.4133 8.79103 17.3067 8.54214 17.1556C8.27547 16.9956 8.06214 16.7822 7.88436 16.5333C7.66214 16.2222 7.52881 15.8756 7.41325 15.52C7.31547 15.2356 7.26214 14.9511 7.22658 14.6489C7.20881 14.5067 7.18214 14.3644 7.16436 14.2311C7.15547 14.1333 7.14658 14.0356 7.14658 13.9378C7.14658 13.8311 7.14658 13.7156 7.14658 13.6089C7.14658 11.2889 7.14658 8.96889 7.14658 6.64889C7.14658 6.37333 7.14658 6.08889 7.1377 5.81333C7.65325 6.03555 8.70214 6.54222 8.79992 6.61333C8.79992 6.65778 8.79992 6.72 8.79992 6.78222C8.79992 9.12889 8.79992 11.4756 8.79992 13.8311C8.79992 13.9289 8.80881 14.0356 8.82658 14.1333C8.84436 14.24 8.83547 14.3556 8.84436 14.4622C8.86214 14.8 8.93325 15.12 9.1377 15.4044C9.25325 15.5733 9.41325 15.6978 9.59992 15.7689C9.71547 15.8133 9.83103 15.84 9.95547 15.8667C10.391 15.9378 10.8266 15.8844 11.2621 15.9022C11.3155 15.9022 11.3688 15.9022 11.4221 15.9111C11.4488 16.0178 11.4488 17.0489 11.431 17.5556V17.5289ZM17.4844 15.0222H15.8488C15.8488 14.96 15.8399 14.9156 15.8399 14.8622C15.8399 14.1244 15.7599 8.94222 15.7599 8.8C16.2755 8.95111 17.3599 9.32444 17.4755 9.40444C17.4755 9.42222 17.4933 9.44889 17.4933 9.46666C17.4933 11.3156 17.4933 13.1644 17.4933 15.0133L17.4844 15.0222Z" fill="#444444"/>
<path d="M21.9102 26.56H21.6169C21.5457 26.2222 21.4657 25.8933 21.3857 25.5467H21.6702C21.7057 25.7244 21.7413 25.9022 21.7769 26.08H21.7946C21.848 25.9022 21.9013 25.7244 21.9457 25.5467H22.2391C22.2924 25.7244 22.3369 25.8933 22.3902 26.08C22.4524 25.9911 22.4435 25.9022 22.4613 25.8133C22.4791 25.7244 22.4969 25.6356 22.5146 25.5467H22.7813C22.7813 25.6444 22.6391 26.3556 22.568 26.5511H22.2746C22.2124 26.3467 22.1591 26.1422 22.0969 25.9111C22.008 26.1333 21.9724 26.3467 21.9013 26.5511" fill="black"/>
<path d="M18.5325 25.8756C18.6303 25.8756 18.7281 25.9111 18.8258 25.8311C18.7281 25.7511 18.6303 25.7867 18.5325 25.7867C18.5325 25.8133 18.5325 25.84 18.5325 25.8756ZM18.8436 26.2756C18.8525 26.1689 18.8436 26.1333 18.7636 26.1244C18.6925 26.1156 18.6125 26.1156 18.5414 26.1244V26.3111C18.6481 26.3111 18.7458 26.3467 18.8436 26.2667M18.2392 25.5378H18.5058C18.6036 25.5378 18.7103 25.5378 18.8081 25.5378C18.8614 25.5378 18.9147 25.5378 18.9592 25.5644C19.0392 25.5911 19.1014 25.6444 19.1103 25.7333C19.1192 25.8222 19.0925 25.8933 19.0125 25.9378C19.0036 25.9378 18.9947 25.9467 18.9858 25.9556C18.9858 25.9556 18.9858 25.9556 18.9858 25.9733C18.9858 25.9733 19.0036 25.9911 19.0125 25.9911C19.1458 26.0711 19.1903 26.16 19.1636 26.3111C19.1458 26.4089 19.0569 26.5244 18.9147 26.5244C18.8703 26.5244 18.8258 26.5422 18.7814 26.5422C18.6036 26.5422 18.4258 26.5422 18.2481 26.5422C18.2214 26.4533 18.2125 25.6711 18.2481 25.52" fill="black"/>
<path d="M12.7462 25.8222C12.6395 25.7511 12.5507 25.7778 12.4529 25.7867C12.4529 25.8311 12.4618 25.8578 12.4707 25.8844C12.5595 25.8756 12.6573 25.92 12.7462 25.8222ZM12.4618 26.32C12.5507 26.32 12.6218 26.32 12.6929 26.32C12.7462 26.32 12.7818 26.2667 12.7729 26.2133C12.7729 26.16 12.7373 26.1333 12.684 26.1244C12.6129 26.1244 12.5329 26.1244 12.4529 26.1244V26.32H12.4618ZM12.8973 25.9822C13.0573 26.0444 13.1018 26.16 13.084 26.3022C13.0751 26.4267 12.9951 26.5156 12.8707 26.5333C12.7729 26.5511 12.6751 26.5511 12.5773 26.56C12.444 26.56 12.3018 26.56 12.1684 26.56C12.1418 26.4622 12.1418 25.6889 12.1684 25.5378H12.3284C12.4618 25.5378 12.5862 25.5378 12.7195 25.5378C12.7729 25.5378 12.8262 25.5378 12.8795 25.5556C12.9684 25.5822 13.0307 25.6356 13.0395 25.7333C13.0573 25.8222 13.0218 25.8933 12.9418 25.9378C12.9329 25.9378 12.924 25.9556 12.8973 25.9733" fill="black"/>
<path d="M10.3282 26.5511H10.0437C9.92816 26.3733 9.79483 26.1956 9.67039 26.0089H9.65261V26.5422H9.36816C9.36816 26.2133 9.36816 25.8756 9.36816 25.5378H9.65261C9.77705 25.7156 9.89261 25.8933 10.0171 26.08C10.0259 26.08 10.0348 26.08 10.0437 26.08V25.5467H10.3282V26.5511Z" fill="black"/>
<path d="M19.6529 25.7778C19.6529 25.84 19.6529 25.8756 19.6529 25.9289C19.7507 25.9289 19.8485 25.9556 19.9374 25.8933C19.9374 25.8044 19.9374 25.7867 19.8662 25.7867C19.7951 25.7867 19.7329 25.7867 19.644 25.7867M20.3374 26.5511C20.3374 26.5511 20.2662 26.5511 20.2396 26.5511C20.1596 26.5511 20.0796 26.5511 19.9907 26.5511C19.9285 26.4444 19.8751 26.3467 19.8218 26.2489C19.7862 26.1867 19.7418 26.1422 19.6529 26.1689V26.5422H19.3418C19.3418 26.2133 19.3418 25.8756 19.3418 25.5378C19.3862 25.5378 19.4129 25.5378 19.4485 25.5378C19.5907 25.5378 19.7418 25.5378 19.884 25.5378C19.9285 25.5378 19.964 25.5378 20.0085 25.5467C20.1596 25.5733 20.2396 25.6356 20.2574 25.76C20.284 25.92 20.2307 26.0267 20.0885 26.0978C20.0796 26.0978 20.0707 26.1067 20.044 26.1244C20.1951 26.2311 20.2485 26.3911 20.3374 26.5511Z" fill="black"/>
<path d="M24.2752 25.9289C24.3819 25.9289 24.4797 25.9555 24.5597 25.8933C24.5597 25.8133 24.5508 25.7955 24.4886 25.7867C24.4175 25.7867 24.3464 25.7867 24.2664 25.7867V25.9289H24.2752ZM24.6664 26.1333C24.8264 26.2311 24.8708 26.4089 24.9686 26.56H24.613C24.5597 26.4622 24.5064 26.3644 24.4441 26.2667C24.4086 26.2044 24.3641 26.16 24.2752 26.1867V26.56H23.9819C23.9552 26.4711 23.9552 25.7244 23.9819 25.5555C23.9997 25.5555 24.0264 25.5555 24.0441 25.5555C24.2041 25.5555 24.373 25.5555 24.533 25.5555C24.5597 25.5555 24.5864 25.5555 24.6219 25.5555C24.7819 25.5822 24.8619 25.6444 24.8886 25.7689C24.9152 25.9289 24.8619 26.0267 24.7197 26.1067C24.7019 26.1067 24.693 26.1244 24.6752 26.1333" fill="black"/>
<path d="M16.5508 25.5467H16.8619V25.8933C16.9864 25.9111 17.093 25.9022 17.2175 25.8933V25.5467H17.5197C17.5286 25.8756 17.5197 26.2133 17.5197 26.5511H17.2175V26.1511C17.093 26.1422 16.9864 26.1511 16.8619 26.1511V26.5511H16.5508C16.5419 26.2222 16.5508 25.8844 16.5508 25.5467Z" fill="black"/>
<path d="M14.1153 26.5511H13.2798C13.2531 26.4622 13.2531 25.6533 13.2798 25.5378H14.0975V25.7689H13.582C13.582 25.7689 13.582 25.8311 13.582 25.8756H14.0531C14.0887 25.9556 14.0798 26.0356 14.0531 26.1156H13.5731V26.32H14.1064V26.5511H14.1153Z" fill="black"/>
<path d="M7.19952 26.0533C7.19952 26.0533 7.19952 25.9822 7.19952 25.9467C7.18175 25.8222 7.10174 25.7511 6.98619 25.7511C6.87063 25.7511 6.79063 25.8133 6.77286 25.9289C6.76397 26.0089 6.76397 26.0889 6.77286 26.1689C6.79063 26.2844 6.87063 26.3467 6.98619 26.3467C7.10174 26.3467 7.17286 26.2844 7.19063 26.16C7.19063 26.1244 7.19063 26.0889 7.19063 26.0533M7.51063 26.0622C7.51063 26.1067 7.51063 26.16 7.49286 26.2133C7.43952 26.4356 7.28841 26.5689 7.04841 26.5778C6.95063 26.5778 6.85286 26.5689 6.76397 26.5422C6.64841 26.5156 6.55952 26.4356 6.51508 26.3289C6.43508 26.1422 6.43508 25.9556 6.51508 25.7689C6.56841 25.6444 6.67508 25.5644 6.80841 25.5378C6.91508 25.5111 7.02174 25.5111 7.1373 25.5378C7.35063 25.5822 7.48397 25.7333 7.51063 25.9467C7.51063 25.9822 7.51063 26.0178 7.51063 26.0622Z" fill="black"/>
<path d="M23.7596 25.5467V25.7689H23.2529C23.2529 25.7689 23.2529 25.8311 23.2529 25.8756H23.7329V26.1156H23.2529V26.32H23.7862V26.5511H22.9596C22.9329 26.4711 22.924 25.76 22.9507 25.5556C23.0396 25.5289 23.5996 25.5289 23.7684 25.5556" fill="black"/>
<path d="M20.7723 25.7778V25.8844H21.2523V26.1244H20.7723V26.3289H21.3056V26.56H20.479C20.4523 26.4711 20.4523 25.7067 20.479 25.5555H21.2968V25.7867H20.7812L20.7723 25.7778Z" fill="black"/>
<path d="M11.1197 26.1422C11.0752 26.0267 11.0575 25.92 10.9952 25.7956C10.9508 25.92 10.9064 26.0178 10.8975 26.1422H11.1197ZM10.8352 25.5467H11.1908C11.3152 25.8844 11.4397 26.2133 11.5641 26.56H11.2441C11.2264 26.5067 11.2086 26.4622 11.1819 26.4H10.8175C10.7997 26.4533 10.7819 26.4978 10.7641 26.56H10.4619C10.5775 26.2222 10.7108 25.8844 10.8352 25.5556" fill="black"/>
<path d="M14.7465 25.7956C14.6843 25.92 14.6576 26.0267 14.631 26.1422H14.8532C14.8176 26.0267 14.7821 25.92 14.7465 25.7956ZM15.2976 26.5511H14.9776C14.9599 26.4978 14.9332 26.4444 14.9154 26.3911H14.551C14.5332 26.4356 14.5154 26.4889 14.4976 26.5511H14.1865C14.311 26.2133 14.4354 25.8844 14.5599 25.5467H14.9154C15.0399 25.8756 15.1643 26.2133 15.2887 26.56" fill="black"/>
<path d="M2.81724 26C2.90613 26 2.99502 26.0267 3.05724 25.9467C3.07502 25.7955 3.0128 25.7511 2.81724 25.7955V26ZM2.80835 26.24V26.5511H2.52391C2.49724 26.4622 2.49724 25.6711 2.52391 25.5467C2.71057 25.5467 2.90613 25.5378 3.0928 25.5467C3.30613 25.5644 3.4128 25.7511 3.36835 25.9822C3.3328 26.1511 3.22613 26.2311 3.03057 26.2489C2.95946 26.2489 2.89724 26.2489 2.81724 26.2489" fill="black"/>
<path d="M16.3731 25.84C16.2842 25.8578 16.2042 25.8755 16.1242 25.8933C16.0709 25.8133 16.0176 25.7511 15.9109 25.7511C15.7865 25.7511 15.7065 25.8222 15.6887 25.9467C15.6887 26.0178 15.6887 26.0889 15.6887 26.1511C15.6976 26.2578 15.7509 26.32 15.8398 26.3378C15.9554 26.3644 16.0354 26.3289 16.0976 26.2222C16.1065 26.2044 16.1154 26.1867 16.1331 26.16C16.1776 26.1689 16.2131 26.1778 16.2576 26.1867C16.2931 26.1955 16.3376 26.2133 16.3731 26.2222C16.3731 26.3644 16.2754 26.4978 16.1331 26.5422C15.9731 26.5955 15.8131 26.5955 15.6531 26.5244C15.4842 26.4533 15.4131 26.3022 15.3776 26.1333C15.3776 26.1155 15.3776 26.0889 15.3776 26.0711C15.3598 25.6267 15.7242 25.3689 16.142 25.5378C16.2576 25.5822 16.3287 25.6622 16.3731 25.8222" fill="black"/>
<path d="M8.15092 26.2489C8.22203 26.0178 8.29314 25.7867 8.37314 25.5467H8.67536C8.55981 25.8844 8.42648 26.2133 8.30203 26.5511H7.96425C7.83981 26.2133 7.71536 25.8844 7.58203 25.5378H7.90203C7.97314 25.7689 8.05314 26.0089 8.12425 26.24C8.12425 26.24 8.14203 26.24 8.15092 26.24" fill="black"/>
<path d="M27.955 26.1778C27.9639 26.2311 27.9728 26.2667 27.9906 26.3111C28.0084 26.3644 28.0439 26.3911 28.0973 26.3911C28.1506 26.3911 28.1862 26.3556 28.2039 26.3111C28.2395 26.2222 28.2395 26.1333 28.2039 26.0533C28.1862 26.0089 28.1595 25.9733 28.1062 25.9733C28.0528 25.9733 28.0084 26 27.9906 26.0444C27.9728 26.0889 27.9639 26.1333 27.955 26.1778ZM27.6973 25.5467H27.955C27.955 25.6444 27.955 25.7422 27.9639 25.8578C27.9995 25.84 28.0173 25.8311 28.0439 25.8222C28.2573 25.7333 28.4439 25.8311 28.4884 26.0533C28.5062 26.16 28.5062 26.2667 28.4706 26.3644C28.3995 26.5867 28.1506 26.64 27.9995 26.5067C27.9906 26.4978 27.9728 26.4889 27.955 26.4711C27.9462 26.4978 27.9373 26.5156 27.9284 26.5422H27.6973V25.5378V25.5467Z" fill="black"/>
<path d="M28.6572 25.5467H28.915C28.9328 25.7067 28.915 25.8667 28.9328 26.0444C29.0306 25.9822 29.075 25.8844 29.155 25.8133H29.4839C29.395 25.9022 29.315 25.9822 29.235 26.0711C29.3239 26.2311 29.4128 26.3911 29.5106 26.56H29.2083C29.155 26.4622 29.1106 26.3733 29.0483 26.2578C29.0039 26.3022 28.9683 26.3467 28.9328 26.3911C28.9328 26.4356 28.9328 26.4889 28.9239 26.5511H28.6661V25.5467H28.6572Z" fill="black"/>
<path d="M25.6708 26.5511H25.3774C25.3774 26.4711 25.3685 26.4 25.3774 26.32C25.3863 26.1867 25.3508 26.0711 25.2708 25.9733C25.1819 25.8578 25.1108 25.7422 25.0308 25.6178C25.013 25.5911 25.0041 25.5733 24.9863 25.5378H25.3152C25.3863 25.6444 25.4485 25.76 25.5285 25.8844C25.6085 25.76 25.6708 25.6533 25.7419 25.5378H26.0708C26.0085 25.6356 25.9463 25.7156 25.893 25.8044C25.8219 25.9022 25.733 26 25.6974 26.1156C25.6619 26.2311 25.6797 26.3556 25.6797 26.48C25.6797 26.4978 25.6797 26.5156 25.6797 26.5511" fill="black"/>
<path d="M4.1066 26.5511H3.79549C3.79549 26.4267 3.79549 26.2933 3.79549 26.1689C3.79549 26.0444 3.79549 25.92 3.79549 25.7778H3.48438V25.5467H4.41771V25.7689H4.1066V26.5511Z" fill="black"/>
<path d="M27.5368 25.7778H27.2346V26.5511H26.9235V25.7867H26.6035V25.5555H27.5368V25.7867V25.7778Z" fill="black"/>
<path d="M5.53749 25.5467H5.83082C5.8486 25.8044 5.83082 26.0533 5.8486 26.32H6.3286V26.5511H5.55526C5.5286 26.4711 5.51971 25.8044 5.54637 25.5467" fill="black"/>
<path d="M8.81738 25.5467H9.09294C9.1196 25.6356 9.12849 26.3378 9.11072 26.5511H8.81738V25.5467Z" fill="black"/>
<path d="M4.85303 26.5511H4.56859C4.54192 26.4622 4.55081 26.3733 4.56859 26.2756H4.85303V26.5511Z" fill="black"/>
</g>
</g>
<defs>
<clipPath id="clip0_2737_124236">
<rect width="32" height="32" fill="white"/>
</clipPath>
</defs>
</svg>
