<svg width="35" height="32" viewBox="0 0 35 32" fill="none" xmlns="http://www.w3.org/2000/svg">
<g clip-path="url(#clip0_2707_273073)">
<path d="M16 31.9822C24.8268 31.9822 31.9823 24.8268 31.9823 16C31.9823 7.17328 24.8268 0.0177917 16 0.0177917C7.17331 0.0177917 0.0178223 7.17328 0.0178223 16C0.0178223 24.8268 7.17331 31.9822 16 31.9822Z" fill="white"/>
<path d="M6.16008 12.3556H25.8312C26.107 12.3776 26.3805 12.4222 26.649 12.4889C27.1252 12.6203 27.5698 12.8471 27.9556 13.1556C28.4822 13.5728 28.8798 14.1306 29.1023 14.7645C29.1957 15.0106 29.2584 15.2674 29.289 15.5289C29.3382 15.8679 29.3382 16.2122 29.289 16.5511C29.2571 16.7884 29.1974 17.0211 29.1112 17.2444C28.7894 18.1077 28.1549 18.8184 27.3334 19.2356C27.1656 19.3186 26.9935 19.3928 26.8179 19.4578C26.7046 19.4957 26.5887 19.5254 26.4712 19.5467C26.2956 19.5863 26.1174 19.6131 25.9379 19.6267H25.7867H6.2223H5.9823C5.77943 19.6168 5.57748 19.593 5.37786 19.5556C4.92736 19.4333 4.50478 19.225 4.13341 18.9422C3.99591 18.8449 3.86793 18.7348 3.75119 18.6133C3.5978 18.4598 3.45801 18.2933 3.33341 18.1156C3.03086 17.6855 2.82746 17.1937 2.73786 16.6756C2.70474 16.5022 2.681 16.3271 2.66675 16.1511V15.8489C2.66675 15.7156 2.66675 15.5822 2.71119 15.4489C2.75386 15.1677 2.8315 14.893 2.9423 14.6311C3.05803 14.3404 3.21037 14.0655 3.39564 13.8133C3.49498 13.6856 3.60184 13.5639 3.71564 13.4489C3.85037 13.31 3.99602 13.1822 4.15119 13.0667C4.26675 12.9867 4.3823 12.9067 4.50675 12.8356C4.85829 12.6424 5.23997 12.5102 5.63564 12.4444C5.80833 12.4071 5.98368 12.3833 6.16008 12.3733M6.01786 12.72C5.79466 12.7421 5.57428 12.7868 5.36008 12.8533C5.15262 12.9091 4.95265 12.9896 4.76453 13.0933C4.53999 13.2168 4.32854 13.3628 4.13341 13.5289C3.69352 13.9154 3.36512 14.4126 3.1823 14.9689C3.02014 15.4398 2.97142 15.9423 3.04008 16.4356C3.08085 16.7884 3.18314 17.1314 3.3423 17.4489C3.40218 17.5896 3.47667 17.7237 3.56453 17.8489C3.97051 18.4488 4.55994 18.901 5.24453 19.1378C5.573 19.2414 5.91373 19.3012 6.25786 19.3156H25.609C26.0078 19.3196 26.4044 19.2565 26.7823 19.1289C27.0283 19.0355 27.2637 18.9163 27.4845 18.7733C27.5899 18.7133 27.6882 18.6417 27.7779 18.56C27.8561 18.4965 27.9303 18.4283 28.0001 18.3556C28.1693 18.1802 28.3184 17.9864 28.4445 17.7778C28.5919 17.5513 28.7084 17.3061 28.7912 17.0489C28.875 16.8014 28.9287 16.5448 28.9512 16.2844C28.9646 16.1366 28.9646 15.9879 28.9512 15.84C28.9466 15.6906 28.9288 15.5418 28.8979 15.3956C28.8355 15.0394 28.7122 14.6966 28.5334 14.3822C28.4098 14.166 28.2638 13.9635 28.0979 13.7778C27.9338 13.6104 27.7519 13.4614 27.5556 13.3333C27.3821 13.2126 27.1976 13.1084 27.0045 13.0222C26.8913 12.9648 26.7721 12.92 26.649 12.8889C26.361 12.7981 26.0619 12.7472 25.7601 12.7378H6.2223C6.15578 12.718 6.08716 12.7061 6.01786 12.7022V12.72Z" fill="#00007F"/>
<path d="M6.01787 12.7022C6.09165 12.6929 6.16631 12.6929 6.24009 12.7022H25.7779C26.0797 12.7117 26.3788 12.7625 26.6668 12.8533C26.7898 12.8845 26.9091 12.9292 27.0223 12.9867C27.2106 13.0851 27.3892 13.2012 27.5556 13.3333C27.7574 13.4748 27.9423 13.6388 28.1068 13.8222C28.2727 14.0079 28.4187 14.2105 28.5423 14.4267C28.7211 14.741 28.8444 15.0838 28.9068 15.44C28.9377 15.5863 28.9555 15.735 28.9601 15.8844C28.9735 16.0323 28.9735 16.181 28.9601 16.3289C28.9376 16.5892 28.8839 16.8459 28.8001 17.0933C28.711 17.3356 28.5915 17.5656 28.4445 17.7778C28.3101 17.9877 28.152 18.1816 27.9734 18.3556C27.9037 18.4283 27.8294 18.4965 27.7512 18.56C27.6616 18.6417 27.5632 18.7133 27.4579 18.7733C27.237 18.9163 27.0016 19.0355 26.7556 19.1289C26.3778 19.2565 25.9811 19.3196 25.5823 19.3156H6.22231C5.87818 19.3012 5.53745 19.2414 5.20898 19.1378C4.53169 18.8913 3.9519 18.4331 3.55564 17.8311C3.46778 17.7059 3.3933 17.5719 3.33342 17.4311C3.17426 17.1136 3.07197 16.7706 3.0312 16.4178C2.96253 15.9245 3.01126 15.422 3.17342 14.9511C3.35873 14.3938 3.69027 13.8965 4.13342 13.5111C4.32855 13.345 4.54 13.1991 4.76453 13.0756C4.94423 12.9738 5.13514 12.8933 5.33342 12.8356C5.54762 12.769 5.768 12.7244 5.9912 12.7022M5.22676 13.2711C4.99009 13.3641 4.7661 13.4865 4.56009 13.6356C4.26122 13.8641 4.00538 14.1441 3.80453 14.4622C3.6413 14.7217 3.52403 15.0074 3.45787 15.3067C3.28326 16.0021 3.37521 16.7378 3.71564 17.3689C3.8245 17.5648 3.95254 17.7494 4.09787 17.92C4.23355 18.0751 4.38553 18.2152 4.5512 18.3378C4.66499 18.4209 4.80142 18.4675 4.94231 18.4711C5.01582 18.4841 5.09103 18.4841 5.16453 18.4711C5.30152 18.4267 5.41612 18.3312 5.48453 18.2044C5.51273 18.1415 5.52731 18.0734 5.52731 18.0044C5.52731 17.9355 5.51273 17.8674 5.48453 17.8044C5.41397 17.6475 5.31785 17.5033 5.20009 17.3778C5.28623 17.4275 5.37528 17.472 5.46676 17.5111C5.64382 17.605 5.84743 17.6364 6.04453 17.6C6.15783 17.5664 6.25352 17.4898 6.3112 17.3867C6.34858 17.3202 6.36821 17.2452 6.36821 17.1689C6.36821 17.0926 6.34858 17.0176 6.3112 16.9511C6.26184 16.8415 6.19251 16.742 6.10676 16.6578C5.97479 16.5081 5.82895 16.3711 5.6712 16.2489C5.57342 16.1689 5.47564 16.08 5.37787 16.0089L5.20898 15.8489C5.1246 15.7734 5.04447 15.6933 4.96898 15.6089C4.85615 15.4569 4.7663 15.2892 4.70231 15.1111C4.63029 14.9152 4.60591 14.705 4.6312 14.4978C4.64859 14.3569 4.69392 14.2209 4.76453 14.0978C4.8573 13.928 4.98812 13.7819 5.14675 13.6711C5.2629 13.5864 5.38812 13.5148 5.52009 13.4578C5.89409 13.302 6.29744 13.2292 6.70231 13.2444L7.09342 13.2889C7.24867 13.2863 7.40372 13.3012 7.55564 13.3333C7.6712 13.3778 7.77787 13.44 7.88453 13.4933C7.80177 13.4378 7.71568 13.3873 7.62676 13.3422C7.52104 13.2887 7.41102 13.2441 7.29787 13.2089C7.01335 13.1024 6.71273 13.0453 6.40898 13.04C6.29656 13.0311 6.18362 13.0311 6.0712 13.04C5.78547 13.0692 5.50466 13.1349 5.23564 13.2356M7.47564 13.4844C7.33525 13.5259 7.21108 13.6098 7.12009 13.7244C7.09377 13.7816 7.08014 13.8438 7.08014 13.9067C7.08014 13.9696 7.09377 14.0317 7.12009 14.0889C7.18635 14.2688 7.28586 14.4346 7.41342 14.5778C7.34231 14.5778 7.28898 14.5067 7.21787 14.48C7.06113 14.3992 6.88753 14.3566 6.7112 14.3556C6.60636 14.3542 6.50483 14.3922 6.42676 14.4622C6.37553 14.5027 6.33384 14.5539 6.30465 14.6123C6.27546 14.6707 6.25949 14.7348 6.25787 14.8C6.25978 14.8867 6.27884 14.9722 6.31392 15.0515C6.34901 15.1309 6.39944 15.2025 6.46231 15.2622C6.53591 15.3594 6.61931 15.4488 6.7112 15.5289C6.88898 15.6889 7.06676 15.84 7.25342 15.9822C7.50714 16.185 7.71855 16.4357 7.87564 16.72C7.9756 16.9086 8.02463 17.12 8.01787 17.3333C8.01962 17.5439 7.96101 17.7506 7.84898 17.9289C7.7291 18.1168 7.56798 18.2748 7.37787 18.3911C7.1897 18.5033 6.98603 18.5872 6.77342 18.64C6.46967 18.7227 6.15399 18.7528 5.84009 18.7289C5.53253 18.7109 5.23105 18.6355 4.9512 18.5067L4.78231 18.4178C4.84304 18.4634 4.90862 18.5021 4.97787 18.5333C5.25799 18.6765 5.5574 18.7783 5.86676 18.8356C6.03223 18.8529 6.19906 18.8529 6.36453 18.8356C6.60072 18.8431 6.83687 18.8192 7.06676 18.7644C7.65051 18.6269 8.17744 18.3122 8.57528 17.8634C8.97313 17.4147 9.22242 16.8538 9.28898 16.2578C9.29804 16.1127 9.29804 15.9673 9.28898 15.8222C9.28737 15.673 9.2725 15.5243 9.24453 15.3778C9.18791 15.1128 9.09833 14.856 8.97787 14.6133C8.76911 14.2005 8.46427 13.8438 8.08898 13.5733C8.01049 13.5128 7.91962 13.4702 7.82284 13.4487C7.72606 13.4272 7.62573 13.4273 7.52898 13.4489M10.2756 14.3378C10.1881 14.3698 10.1106 14.4245 10.0513 14.4964C9.99189 14.5682 9.95275 14.6546 9.93787 14.7467C9.90112 14.9022 9.91999 15.0658 9.9912 15.2089C10.0433 15.3083 10.1281 15.3868 10.2312 15.4311C10.3781 15.4889 10.5298 15.5335 10.6845 15.5644C10.7387 15.579 10.7899 15.603 10.8356 15.6356C10.8676 15.6727 10.8851 15.72 10.8851 15.7689C10.8851 15.8178 10.8676 15.8651 10.8356 15.9022C10.8114 15.931 10.7816 15.9545 10.748 15.9713C10.7143 15.9882 10.6776 15.9979 10.6401 16C10.4736 16.04 10.2999 16.04 10.1334 16C10.0534 16 9.98231 15.92 9.90231 15.8844V16.32C10.1193 16.4105 10.3516 16.4588 10.5868 16.4622C10.7634 16.475 10.9398 16.4348 11.0934 16.3467C11.1688 16.293 11.2273 16.219 11.2623 16.1333C11.3177 15.9922 11.3361 15.8392 11.3156 15.6889C11.3027 15.5574 11.2389 15.4362 11.1379 15.3511C10.9963 15.2586 10.8349 15.2007 10.6668 15.1822C10.564 15.167 10.4647 15.1339 10.3734 15.0844C10.353 15.0678 10.3365 15.0468 10.3252 15.0229C10.3139 14.9991 10.308 14.973 10.308 14.9467C10.308 14.9203 10.3139 14.8942 10.3252 14.8704C10.3365 14.8466 10.353 14.8256 10.3734 14.8089C10.448 14.7549 10.5395 14.7297 10.6312 14.7378C10.8281 14.7491 11.021 14.7974 11.2001 14.88C11.2045 14.8001 11.2045 14.7199 11.2001 14.64C11.2046 14.5808 11.2046 14.5214 11.2001 14.4622C11.1296 14.432 11.0544 14.4139 10.9779 14.4089C10.7365 14.3423 10.4815 14.3423 10.2401 14.4089M24.9334 14.3644C24.7815 14.3683 24.6349 14.4213 24.5156 14.5156C24.44 14.5658 24.3738 14.629 24.3201 14.7022C24.2571 14.7884 24.209 14.8845 24.1779 14.9867C24.1456 15.1023 24.1306 15.2222 24.1334 15.3422C24.1114 15.4925 24.1114 15.6452 24.1334 15.7956C24.1824 15.971 24.2812 16.1284 24.4179 16.2489C24.5283 16.3411 24.6595 16.4052 24.8001 16.4356C25.0403 16.4874 25.2911 16.456 25.5112 16.3467C25.6155 16.2856 25.7062 16.204 25.7779 16.1067C25.9147 15.8957 25.9801 15.6465 25.9645 15.3956C25.9759 15.2434 25.954 15.0907 25.9002 14.9479C25.8465 14.8051 25.7623 14.6758 25.6534 14.5689C25.5514 14.4794 25.4303 14.4145 25.2994 14.379C25.1684 14.3436 25.0311 14.3386 24.8979 14.3644M11.6534 14.3644C11.649 14.4266 11.649 14.489 11.6534 14.5511V16.3289C11.6491 16.3494 11.6491 16.3706 11.6534 16.3911H11.9201C11.9512 16.395 11.9827 16.3914 12.0121 16.3806C12.0415 16.3698 12.0679 16.352 12.089 16.3289C12.1019 16.2643 12.1019 16.1979 12.089 16.1333V14.3556C12.0209 14.3511 11.9526 14.3511 11.8845 14.3556C11.7987 14.3511 11.7126 14.3511 11.6268 14.3556M12.9512 14.3556L12.8979 14.5156C12.8534 14.6489 12.809 14.7911 12.7556 14.9244C12.7023 15.0578 12.6845 15.1822 12.6312 15.3156C12.5779 15.4489 12.5423 15.5911 12.489 15.7333C12.4356 15.8756 12.3468 16.1511 12.2845 16.3644H12.5334C12.6066 16.367 12.6785 16.3451 12.7379 16.3022C12.809 16.2311 12.8179 16.1244 12.8623 16.0356H13.6179C13.6377 16.0992 13.6614 16.1615 13.689 16.2222C13.6977 16.2508 13.7138 16.2765 13.7356 16.2968C13.7575 16.3171 13.7843 16.3312 13.8134 16.3378C13.9372 16.3555 14.0629 16.3555 14.1868 16.3378C14.1868 16.2222 14.1068 16.0978 14.0712 15.9822L13.849 15.3067C13.7512 15.0222 13.6623 14.7378 13.5645 14.4622C13.5645 14.4178 13.5645 14.3644 13.5201 14.3289H12.9512M14.3823 14.3289V16.3378H14.5868C14.6483 16.351 14.7119 16.351 14.7734 16.3378C14.7937 16.3168 14.809 16.2915 14.8182 16.2638C14.8275 16.2361 14.8304 16.2067 14.8268 16.1778C14.8268 15.7956 14.8268 15.4044 14.8268 15.0133V15.0578L15.1645 15.7689L15.4312 16.3289C15.4274 16.3435 15.4274 16.3588 15.4312 16.3733H15.6001C15.6856 16.3859 15.7724 16.3859 15.8579 16.3733C15.8806 16.366 15.9005 16.3518 15.9148 16.3327C15.9291 16.3136 15.9372 16.2905 15.9379 16.2667C15.9379 16.08 15.9379 15.9022 15.9379 15.7156V14.8267C15.9379 14.6756 15.9379 14.5156 15.9379 14.3556C15.8639 14.3511 15.7897 14.3511 15.7156 14.3556C15.6446 14.3511 15.5734 14.3511 15.5023 14.3556C15.4936 14.465 15.4936 14.575 15.5023 14.6844V15.7244C15.4764 15.6922 15.4554 15.6562 15.4401 15.6178L15.1112 14.6311C15.1112 14.56 15.0401 14.48 14.9956 14.4178C14.9248 14.4092 14.8532 14.4092 14.7823 14.4178C14.6788 14.4087 14.5747 14.4087 14.4712 14.4178M16.2934 14.4178V14.8C16.4979 14.8 16.7023 14.8 16.8979 14.8C16.8979 14.8889 16.8979 14.9867 16.8979 15.0844V16.4178H17.1823C17.2154 16.418 17.248 16.409 17.2762 16.3917C17.3045 16.3744 17.3274 16.3496 17.3423 16.32C17.3559 16.2138 17.3559 16.1062 17.3423 16C17.3423 15.6 17.3423 15.2 17.3423 14.8C17.4963 14.8089 17.6506 14.8089 17.8045 14.8C17.8407 14.7939 17.8737 14.7756 17.898 14.7481C17.9223 14.7206 17.9363 14.6855 17.9379 14.6489C17.9472 14.5751 17.9472 14.5004 17.9379 14.4267C17.879 14.4176 17.819 14.4176 17.7601 14.4267H16.4268C16.3708 14.4178 16.3138 14.4178 16.2579 14.4267M18.3912 14.4267V14.4889C18.3912 14.6222 18.3023 14.7556 18.2668 14.8978L17.8579 16C17.8579 16.1333 17.769 16.2578 17.7334 16.3911H18.0623C18.0977 16.3868 18.1315 16.374 18.1608 16.3539C18.1902 16.3338 18.2144 16.3069 18.2312 16.2756C18.2312 16.2133 18.2312 16.1333 18.3112 16.0711H18.9956C18.9956 16.0711 19.0401 16.0711 19.0668 16.0711C19.0908 16.1614 19.1266 16.2481 19.1734 16.3289C19.2361 16.3719 19.3108 16.3937 19.3868 16.3911H19.6356V16.2844C19.6356 16.16 19.5556 16.0356 19.5023 15.9111C19.3779 15.5022 19.2268 15.0933 19.0934 14.6844C19.0662 14.5821 19.0335 14.4812 18.9956 14.3822H18.4001M19.8312 14.3822V16.4H20.0623C20.0956 16.409 20.1306 16.4091 20.1639 16.4003C20.1972 16.3914 20.2275 16.3739 20.2519 16.3496C20.2762 16.3252 20.2937 16.2949 20.3026 16.2616C20.3114 16.2283 20.3113 16.1932 20.3023 16.16C20.3023 15.9822 20.3023 15.8133 20.3023 15.6356C20.3758 15.6222 20.4511 15.6222 20.5245 15.6356C20.5701 15.6499 20.612 15.6741 20.6474 15.7063C20.6827 15.7386 20.7105 15.7781 20.729 15.8222L20.9068 16.2222C20.928 16.2781 20.9548 16.3317 20.9868 16.3822H21.4756C21.4134 16.2222 21.3423 16.0711 21.2712 15.92C21.2275 15.8015 21.1709 15.6883 21.1023 15.5822C21.0536 15.523 20.993 15.4745 20.9245 15.44C20.9904 15.4089 21.0506 15.3669 21.1023 15.3156C21.1514 15.2635 21.1894 15.202 21.2139 15.1347C21.2383 15.0674 21.2488 14.9959 21.2445 14.9244C21.2523 14.7832 21.208 14.6441 21.1201 14.5333C21.0322 14.4502 20.9201 14.3973 20.8001 14.3822C20.5929 14.3689 20.3851 14.3689 20.1779 14.3822C20.0623 14.3822 19.9468 14.3822 19.8312 14.3822ZM22.3645 14.3822C22.3601 14.4533 22.3601 14.5245 22.3645 14.5956C22.3601 14.6547 22.3601 14.7142 22.3645 14.7733C22.5601 14.7733 22.7645 14.7733 22.9601 14.7733C22.9601 14.9333 22.9601 15.0933 22.9601 15.2444C22.9601 15.6267 22.9601 16.0089 22.9601 16.3911H23.2801C23.3119 16.3853 23.3414 16.3705 23.365 16.3484C23.3886 16.3264 23.4054 16.298 23.4134 16.2667C23.4225 16.1305 23.4225 15.9939 23.4134 15.8578C23.4134 15.4933 23.4134 15.1378 23.4134 14.7733C23.5556 14.7733 23.7068 14.7733 23.849 14.7733C23.878 14.7706 23.9059 14.7612 23.9306 14.7458C23.9553 14.7303 23.9761 14.7093 23.9912 14.6844C24.0085 14.5844 24.0085 14.4822 23.9912 14.3822C23.938 14.3778 23.8844 14.3778 23.8312 14.3822H22.729C22.6045 14.3822 22.489 14.3822 22.3645 14.3822ZM26.3112 14.3822V16.4H26.5423C26.6012 16.4092 26.6612 16.4092 26.7201 16.4C26.7521 16.3662 26.771 16.3221 26.7734 16.2756C26.7734 16.0978 26.7734 15.9111 26.7734 15.7333C26.9597 15.751 27.1472 15.751 27.3334 15.7333C27.4303 15.707 27.5209 15.6617 27.6001 15.6C27.6822 15.5267 27.741 15.4309 27.769 15.3244C27.7913 15.2159 27.7913 15.1041 27.769 14.9956C27.7624 14.8629 27.7088 14.7368 27.6179 14.64C27.542 14.5547 27.4433 14.493 27.3334 14.4622C27.1325 14.4403 26.9299 14.4403 26.729 14.4622C26.5779 14.4622 26.4268 14.4622 26.2756 14.4622M11.6712 17.2C11.6668 17.2295 11.6668 17.2594 11.6712 17.2889V17.7778C11.6669 17.8043 11.6669 17.8313 11.6712 17.8578C11.7152 17.8666 11.7605 17.8666 11.8045 17.8578C11.8001 17.7749 11.8001 17.6918 11.8045 17.6089H12.0179C12.0221 17.6918 12.0221 17.7749 12.0179 17.8578C12.0649 17.8667 12.1131 17.8667 12.1601 17.8578C12.1645 17.7956 12.1645 17.7333 12.1601 17.6711C12.1601 17.5289 12.1601 17.3867 12.1601 17.2444H12.0179C12.0179 17.3244 12.0179 17.4044 12.0179 17.4756C11.9441 17.4849 11.8694 17.4849 11.7956 17.4756C11.7956 17.4044 11.7956 17.3244 11.7956 17.2444H11.6623M12.5512 17.2444C12.5468 17.2739 12.5468 17.3039 12.5512 17.3333V17.7778C12.5469 17.8043 12.5469 17.8313 12.5512 17.8578C12.5952 17.8666 12.6405 17.8666 12.6845 17.8578V17.2444H12.5334M13.0223 17.4044C13.001 17.474 13.001 17.5483 13.0223 17.6178C13.0263 17.659 13.0396 17.6988 13.0612 17.7342C13.0827 17.7696 13.112 17.7997 13.1468 17.8222C13.281 17.8752 13.4303 17.8752 13.5645 17.8222C13.5688 17.7571 13.5688 17.6918 13.5645 17.6267C13.5734 17.5827 13.5734 17.5373 13.5645 17.4933H13.3334C13.3291 17.5288 13.3291 17.5646 13.3334 17.6H13.4312V17.7156C13.4109 17.726 13.3886 17.7323 13.3658 17.7339C13.343 17.7356 13.3201 17.7326 13.2985 17.7251C13.2769 17.7176 13.257 17.7058 13.2401 17.6904C13.2232 17.675 13.2096 17.6564 13.2001 17.6356C13.1855 17.6136 13.1755 17.5888 13.1708 17.5629C13.166 17.5369 13.1666 17.5102 13.1724 17.4845C13.1782 17.4587 13.1892 17.4344 13.2046 17.4131C13.2201 17.3917 13.2397 17.3736 13.2623 17.36C13.3462 17.3334 13.4362 17.3334 13.5201 17.36C13.5241 17.3246 13.5241 17.2888 13.5201 17.2533C13.4531 17.2356 13.3826 17.2356 13.3156 17.2533C13.2581 17.2563 13.2021 17.2733 13.1526 17.3027C13.103 17.3321 13.0614 17.3731 13.0312 17.4222M13.8756 17.2622C13.8756 17.3956 13.8756 17.5289 13.8756 17.6622C13.8712 17.7333 13.8712 17.8045 13.8756 17.8756C13.9226 17.8845 13.9709 17.8845 14.0179 17.8756C14.0136 17.7926 14.0136 17.7096 14.0179 17.6267H14.2223C14.2239 17.677 14.2239 17.7274 14.2223 17.7778C14.2663 17.7866 14.3116 17.7866 14.3556 17.7778C14.3556 17.6711 14.3556 17.5556 14.3556 17.4489C14.3556 17.3422 14.3556 17.2622 14.3556 17.1644H14.2223C14.2267 17.2444 14.2267 17.3245 14.2223 17.4044H14.009C14.0045 17.3245 14.0045 17.2444 14.009 17.1644H13.8668M15.0579 17.1644V17.2889H15.2179C15.2179 17.4489 15.2179 17.6178 15.2179 17.7778C15.2619 17.7866 15.3072 17.7866 15.3512 17.7778C15.3512 17.6178 15.3512 17.4489 15.3512 17.2889H15.5112V17.1644H15.0401M15.929 17.1644L15.7423 17.7689C15.7923 17.7779 15.8435 17.7779 15.8934 17.7689C15.8934 17.7156 15.8934 17.6711 15.8934 17.6178H16.0623C16.0623 17.6622 16.0623 17.7156 16.1156 17.7689C16.1659 17.7732 16.2165 17.7732 16.2668 17.7689C16.2707 17.7394 16.2707 17.7095 16.2668 17.68L16.1068 17.1644C16.0452 17.1512 15.9816 17.1512 15.9201 17.1644M16.5956 17.2622C16.5844 17.2943 16.5826 17.329 16.5905 17.3621C16.5984 17.3952 16.6156 17.4253 16.6401 17.4489C16.6934 17.5111 16.7734 17.52 16.8356 17.5644C16.843 17.5693 16.849 17.5759 16.8532 17.5837C16.8573 17.5914 16.8595 17.6001 16.8595 17.6089C16.8595 17.6177 16.8573 17.6264 16.8532 17.6341C16.849 17.6419 16.843 17.6485 16.8356 17.6533C16.7645 17.6533 16.6845 17.6533 16.6134 17.6533V17.7689C16.7011 17.8052 16.7991 17.8084 16.889 17.7778C16.9248 17.7527 16.9506 17.7157 16.962 17.6735C16.9734 17.6313 16.9696 17.5864 16.9512 17.5467C16.9329 17.5192 16.9094 17.4956 16.8819 17.4773C16.8544 17.4589 16.8236 17.4463 16.7912 17.44C16.7912 17.44 16.7201 17.44 16.7023 17.3778C16.6845 17.3156 16.7023 17.3156 16.7023 17.3067C16.7578 17.2934 16.8157 17.2934 16.8712 17.3067C16.875 17.2712 16.875 17.2355 16.8712 17.2C16.8071 17.183 16.7397 17.183 16.6756 17.2C16.6378 17.2037 16.6012 17.2161 16.5689 17.2361C16.5365 17.2561 16.5092 17.2833 16.489 17.3156M17.1734 17.2089V17.3333H17.3334C17.3334 17.4933 17.3334 17.6622 17.3334 17.8222C17.3774 17.8311 17.4228 17.8311 17.4668 17.8222C17.4668 17.6622 17.4668 17.4933 17.4668 17.3333H17.7779V17.2089H17.3068M18.089 17.2089C18.089 17.4104 18.089 17.6148 18.089 17.8222C18.2134 17.8222 18.3468 17.8222 18.4801 17.8222V17.7156C18.3972 17.72 18.3141 17.72 18.2312 17.7156C18.2223 17.6716 18.2223 17.6262 18.2312 17.5822H18.4445C18.4536 17.5472 18.4536 17.5105 18.4445 17.4756H18.2312C18.2223 17.4346 18.2223 17.3921 18.2312 17.3511H18.4623C18.4711 17.3131 18.4711 17.2736 18.4623 17.2356H18.089M19.2356 17.3067C19.2069 17.3365 19.1908 17.3763 19.1908 17.4178C19.1908 17.4592 19.2069 17.4991 19.2356 17.5289C19.2947 17.5748 19.3607 17.6108 19.4312 17.6356C19.4407 17.6397 19.4488 17.6465 19.4545 17.6552C19.4602 17.6639 19.4632 17.6741 19.4632 17.6844C19.4632 17.6948 19.4602 17.705 19.4545 17.7137C19.4488 17.7224 19.4407 17.7292 19.4312 17.7333C19.3601 17.7333 19.289 17.7333 19.2179 17.7333C19.2088 17.7713 19.2088 17.8109 19.2179 17.8489C19.2854 17.8623 19.3548 17.8623 19.4223 17.8489C19.4713 17.835 19.5168 17.8108 19.5556 17.7778C19.5729 17.762 19.5867 17.7427 19.5961 17.7213C19.6055 17.6999 19.6104 17.6767 19.6104 17.6533C19.6104 17.6299 19.6055 17.6068 19.5961 17.5854C19.5867 17.5639 19.5729 17.5447 19.5556 17.5289C19.5556 17.4756 19.4312 17.4667 19.369 17.4311C19.3068 17.3956 19.369 17.4311 19.369 17.3778C19.369 17.3636 19.3746 17.3501 19.3846 17.3401C19.3946 17.3301 19.4082 17.3244 19.4223 17.3244C19.4748 17.3113 19.5298 17.3113 19.5823 17.3244C19.5903 17.2893 19.5903 17.2529 19.5823 17.2178C19.5328 17.2046 19.4807 17.2046 19.4312 17.2178C19.3946 17.2146 19.3578 17.2202 19.3237 17.2341C19.2897 17.248 19.2595 17.2699 19.2356 17.2978M19.929 17.2356C19.9245 17.3066 19.9245 17.3778 19.929 17.4489C19.929 17.5733 19.929 17.7067 19.929 17.84C19.976 17.8489 20.0242 17.8489 20.0712 17.84C20.0712 17.7689 20.0712 17.7067 20.0712 17.6356C20.1388 17.6479 20.2081 17.6479 20.2756 17.6356C20.298 17.6172 20.316 17.5941 20.3283 17.568C20.3407 17.5419 20.3471 17.5133 20.3471 17.4844C20.3471 17.4555 20.3407 17.427 20.3283 17.4009C20.316 17.3747 20.298 17.3517 20.2756 17.3333C20.2213 17.2865 20.1518 17.2612 20.0801 17.2622C20.0122 17.2538 19.9435 17.2538 19.8756 17.2622M20.6401 17.2622V17.7778C20.7703 17.7867 20.901 17.7867 21.0312 17.7778C21.0402 17.7428 21.0402 17.7061 21.0312 17.6711C20.9512 17.6711 20.8712 17.6711 20.7912 17.6711C20.7823 17.6241 20.7823 17.5759 20.7912 17.5289H21.0045V17.4222C20.9335 17.4178 20.8622 17.4178 20.7912 17.4222C20.7823 17.3812 20.7823 17.3388 20.7912 17.2978H21.0134C21.0222 17.2598 21.0222 17.2202 21.0134 17.1822H20.6401M21.3956 17.28C21.354 17.3417 21.3317 17.4144 21.3317 17.4889C21.3317 17.5633 21.354 17.6361 21.3956 17.6978C21.4186 17.7286 21.448 17.7541 21.4818 17.7725C21.5155 17.7909 21.5528 17.8018 21.5912 17.8044C21.6642 17.8222 21.7404 17.8222 21.8134 17.8044C21.8221 17.7694 21.8221 17.7328 21.8134 17.6978C21.741 17.7198 21.6636 17.7198 21.5912 17.6978C21.5619 17.6783 21.5378 17.6519 21.5212 17.6209C21.5045 17.5899 21.4958 17.5552 21.4958 17.52C21.4958 17.4848 21.5045 17.4501 21.5212 17.4191C21.5378 17.3881 21.5619 17.3617 21.5912 17.3422C21.6605 17.3198 21.7352 17.3198 21.8045 17.3422C21.8125 17.3071 21.8125 17.2707 21.8045 17.2356C21.7344 17.2082 21.658 17.2013 21.5841 17.2154C21.5102 17.2296 21.4418 17.2643 21.3868 17.3156M22.1245 17.2178C22.1245 17.4193 22.1245 17.6237 22.1245 17.8311C22.1685 17.84 22.2139 17.84 22.2579 17.8311C22.2579 17.7689 22.2579 17.7067 22.2579 17.6444C22.2579 17.5822 22.2579 17.36 22.2579 17.2178H22.1245ZM22.7468 17.2178C22.6934 17.4222 22.6223 17.6267 22.5601 17.8311C22.6101 17.8399 22.6612 17.8399 22.7112 17.8311C22.7112 17.7867 22.7112 17.7333 22.7112 17.6889C22.7699 17.6772 22.8303 17.6772 22.889 17.6889C22.889 17.7333 22.889 17.7867 22.9334 17.8311C22.9864 17.8401 23.0405 17.8401 23.0934 17.8311L22.9868 17.5022C22.9868 17.4133 22.9334 17.3156 22.8979 17.2178H22.7112M23.4045 17.2178V17.7778C23.529 17.7778 23.6534 17.7778 23.7868 17.7778V17.6711H23.5468C23.5468 17.5111 23.5468 17.3422 23.5468 17.1733H23.4668M24.1601 17.1733C24.1601 17.2889 24.1601 17.4044 24.1601 17.52C24.1601 17.6356 24.1601 17.6978 24.1601 17.7867C24.2071 17.7956 24.2553 17.7956 24.3023 17.7867V17.1733H24.1601ZM24.6312 17.3778C24.6453 17.4195 24.6698 17.457 24.7025 17.4866C24.7352 17.5161 24.7749 17.5368 24.8179 17.5467C24.8179 17.5467 24.9068 17.5467 24.8979 17.6267C24.889 17.7067 24.8979 17.68 24.8268 17.6889C24.7676 17.6931 24.7082 17.6931 24.649 17.6889C24.6439 17.7272 24.6439 17.7661 24.649 17.8044C24.7031 17.8305 24.7623 17.844 24.8223 17.844C24.8823 17.844 24.9416 17.8305 24.9956 17.8044C25.016 17.7887 25.0324 17.7684 25.0437 17.7453C25.055 17.7222 25.0609 17.6968 25.0609 17.6711C25.0609 17.6454 25.055 17.62 25.0437 17.5969C25.0324 17.5738 25.016 17.5536 24.9956 17.5378C24.9488 17.4978 24.8944 17.4676 24.8356 17.4489C24.822 17.445 24.8094 17.4383 24.7987 17.4291C24.7879 17.4198 24.7793 17.4084 24.7734 17.3956C24.7761 17.3791 24.7833 17.3636 24.7943 17.351C24.8053 17.3385 24.8196 17.3293 24.8356 17.3244C24.889 17.3244 24.9423 17.3244 24.9956 17.3244V17.2178C24.9262 17.1959 24.8517 17.1959 24.7823 17.2178C24.7566 17.22 24.7316 17.2273 24.7087 17.2393C24.6858 17.2512 24.6655 17.2676 24.649 17.2874C24.6325 17.3072 24.62 17.3302 24.6124 17.3548C24.6048 17.3795 24.6021 17.4054 24.6045 17.4311M25.2979 17.2267C25.289 17.2677 25.289 17.3101 25.2979 17.3511H25.4579C25.4579 17.5111 25.4579 17.68 25.4579 17.84C25.5019 17.8489 25.5472 17.8489 25.5912 17.84C25.5912 17.68 25.5912 17.5111 25.5912 17.3511H25.7779V17.2267H25.2979Z" fill="white"/>
<path d="M5.25343 13.2711C5.52245 13.1705 5.80326 13.1048 6.08899 13.0756C6.20141 13.0667 6.31435 13.0667 6.42677 13.0756C6.73052 13.0808 7.03114 13.1379 7.31565 13.2445C7.42881 13.2797 7.53883 13.3243 7.64454 13.3778C7.73347 13.4229 7.81956 13.4733 7.90232 13.5289C7.79566 13.4756 7.68899 13.4134 7.57343 13.3689C7.42432 13.3127 7.26922 13.274 7.11121 13.2534L6.7201 13.2089C6.31523 13.1937 5.91188 13.2664 5.53788 13.4222C5.4059 13.4793 5.28069 13.5508 5.16454 13.6356C5.00591 13.7464 4.87508 13.8924 4.78232 14.0622C4.71171 14.1854 4.66638 14.3214 4.64899 14.4622C4.6237 14.6694 4.64808 14.8797 4.7201 15.0756C4.79153 15.2584 4.89044 15.4293 5.01343 15.5822C5.08893 15.6666 5.16905 15.7467 5.25343 15.8222L5.42232 15.9822C5.5201 16.0534 5.61788 16.1422 5.71566 16.2222C5.87341 16.3445 6.01924 16.4814 6.15121 16.6311C6.23697 16.7154 6.30629 16.8149 6.35566 16.9245C6.39303 16.991 6.41267 17.066 6.41267 17.1422C6.41267 17.2185 6.39303 17.2935 6.35566 17.36C6.29797 17.4632 6.20229 17.5397 6.08899 17.5734C5.89188 17.6097 5.68827 17.5784 5.51121 17.4845C5.41974 17.4454 5.33069 17.4009 5.24454 17.3511C5.36231 17.4766 5.45843 17.6208 5.52899 17.7778C5.55719 17.8407 5.57177 17.9089 5.57177 17.9778C5.57177 18.0467 5.55719 18.1149 5.52899 18.1778C5.46058 18.3045 5.34598 18.4 5.20899 18.4445C5.13548 18.4574 5.06027 18.4574 4.98677 18.4445C4.84587 18.4408 4.70944 18.3943 4.59566 18.3111C4.42999 18.1885 4.278 18.0485 4.14232 17.8934C3.99699 17.7227 3.86896 17.5381 3.7601 17.3422C3.41967 16.7111 3.32771 15.9755 3.50232 15.28C3.56848 14.9807 3.68576 14.695 3.84899 14.4356C4.04984 14.1174 4.30567 13.8375 4.60454 13.6089C4.80637 13.4705 5.02426 13.357 5.25343 13.2711Z" fill="#00007F"/>
<path d="M7.49337 13.52C7.59013 13.4984 7.69045 13.4983 7.78724 13.5198C7.88402 13.5413 7.97488 13.5839 8.05337 13.6445C8.42866 13.915 8.73351 14.2716 8.94226 14.6845C9.06272 14.9271 9.1523 15.184 9.20893 15.4489C9.23689 15.5954 9.25176 15.7442 9.25337 15.8933C9.26243 16.0384 9.26243 16.1839 9.25337 16.3289C9.18434 16.924 8.93418 17.4836 8.53673 17.9319C8.13928 18.3803 7.61372 18.6957 7.03115 18.8356C6.80126 18.8903 6.56512 18.9142 6.32893 18.9067C6.16345 18.924 5.99662 18.924 5.83115 18.9067C5.5218 18.8494 5.22238 18.7476 4.94226 18.6045C4.87302 18.5733 4.80743 18.5345 4.7467 18.4889L4.91559 18.5778C5.19545 18.7066 5.49692 18.782 5.80448 18.8C6.12985 18.8126 6.45487 18.7675 6.76448 18.6667C6.97709 18.6138 7.18076 18.53 7.36893 18.4178C7.55904 18.3015 7.72016 18.1434 7.84004 17.9556C7.94733 17.7789 8.00277 17.5756 8.00004 17.3689C8.0068 17.1556 7.95778 16.9442 7.85782 16.7556C7.70072 16.4713 7.48931 16.2206 7.23559 16.0178C7.04893 15.8756 6.87115 15.7245 6.69337 15.5645C6.60148 15.4843 6.51808 15.395 6.44448 15.2978C6.37837 15.2396 6.32464 15.1686 6.28647 15.0892C6.24829 15.0098 6.22646 14.9236 6.22226 14.8356C6.22388 14.7703 6.23985 14.7062 6.26904 14.6478C6.29823 14.5895 6.33992 14.5382 6.39115 14.4978C6.46922 14.4278 6.57075 14.3897 6.67559 14.3911C6.85192 14.3921 7.02552 14.4348 7.18226 14.5156C7.25337 14.5156 7.3067 14.5867 7.37782 14.6133C7.25975 14.4681 7.16936 14.3024 7.11115 14.1245C7.08483 14.0673 7.0712 14.0051 7.0712 13.9422C7.0712 13.8793 7.08483 13.8172 7.11115 13.76C7.20912 13.6406 7.34328 13.5564 7.49337 13.52Z" fill="#7FFF00"/>
<path d="M10.24 14.4267C10.4814 14.3601 10.7364 14.3601 10.9778 14.4267C11.0543 14.4317 11.1295 14.4497 11.2 14.48C11.2045 14.5392 11.2045 14.5986 11.2 14.6578C11.2044 14.7377 11.2044 14.8178 11.2 14.8978C11.021 14.8151 10.828 14.7669 10.6311 14.7556C10.5394 14.7475 10.4479 14.7727 10.3733 14.8267C10.3529 14.8433 10.3364 14.8644 10.3251 14.8882C10.3138 14.912 10.3079 14.9381 10.3079 14.9645C10.3079 14.9908 10.3138 15.0169 10.3251 15.0407C10.3364 15.0645 10.3529 15.0856 10.3733 15.1022C10.4646 15.1517 10.5639 15.1848 10.6667 15.2C10.8348 15.2185 10.9962 15.2763 11.1378 15.3689C11.2388 15.454 11.3026 15.5752 11.3156 15.7067C11.336 15.8569 11.3176 16.0099 11.2622 16.1511C11.2272 16.2368 11.1687 16.3108 11.0933 16.3645C10.9397 16.4526 10.7633 16.4928 10.5867 16.48C10.3515 16.4766 10.1193 16.4283 9.90222 16.3378V15.9022C9.98222 15.9022 10.0533 15.9911 10.1333 16.0178C10.2934 16.0846 10.4671 16.112 10.64 16.0978C10.6775 16.0957 10.7143 16.0859 10.7479 16.0691C10.7815 16.0523 10.8114 16.0288 10.8356 16C10.8675 15.9629 10.885 15.9156 10.885 15.8667C10.885 15.8177 10.8675 15.7704 10.8356 15.7333C10.7898 15.7008 10.7386 15.6767 10.6844 15.6622C10.5297 15.6313 10.378 15.5867 10.2311 15.5289C10.128 15.4846 10.0432 15.4061 9.99111 15.3067C9.9199 15.1636 9.90103 15 9.93778 14.8445C9.9479 14.7547 9.98105 14.6691 10.034 14.5959C10.0869 14.5227 10.1579 14.4644 10.24 14.4267Z" fill="#00007F"/>
<path d="M24.9334 14.3822C25.0666 14.3564 25.2039 14.3614 25.3349 14.3968C25.4659 14.4323 25.587 14.4972 25.689 14.5867C25.7978 14.6936 25.8821 14.8229 25.9358 14.9657C25.9895 15.1085 26.0115 15.2612 26.0001 15.4134C26.0156 15.6643 25.9502 15.9135 25.8134 16.1245C25.7418 16.2218 25.651 16.3034 25.5468 16.3645C25.3266 16.4738 25.0759 16.5052 24.8356 16.4534C24.695 16.423 24.5638 16.3589 24.4534 16.2667C24.3168 16.1462 24.218 15.9888 24.169 15.8134C24.147 15.663 24.147 15.5103 24.169 15.36C24.1662 15.24 24.1812 15.1201 24.2134 15.0045C24.2445 14.9023 24.2926 14.8062 24.3556 14.72C24.4094 14.6468 24.4756 14.5836 24.5512 14.5334C24.6704 14.4391 24.817 14.3861 24.969 14.3822M25.0223 14.7556C24.9686 14.7636 24.9175 14.7837 24.8728 14.8146C24.8281 14.8454 24.7911 14.886 24.7645 14.9334C24.7219 15.0048 24.6919 15.0829 24.6756 15.1645C24.6445 15.32 24.6445 15.4801 24.6756 15.6356C24.6904 15.7508 24.7331 15.8607 24.8001 15.9556C24.8529 16.0135 24.9207 16.0558 24.9959 16.0777C25.0712 16.0997 25.1511 16.1005 25.2267 16.08C25.3243 16.0536 25.4073 15.9897 25.4579 15.9022C25.5372 15.7488 25.574 15.5769 25.5645 15.4045C25.573 15.2731 25.5485 15.1418 25.4934 15.0222C25.4656 14.9519 25.4232 14.8883 25.369 14.8356C25.3162 14.7928 25.254 14.7632 25.1876 14.7493C25.1211 14.7354 25.0522 14.7375 24.9868 14.7556H25.0223Z" fill="#00007F"/>
<path d="M11.689 14.4089C11.7748 14.4044 11.8609 14.4044 11.9467 14.4089C12.0148 14.4044 12.0831 14.4044 12.1512 14.4089V16.1867C12.1641 16.2512 12.1641 16.3177 12.1512 16.3822C12.1301 16.4054 12.1037 16.4231 12.0743 16.4339C12.0449 16.4447 12.0134 16.4484 11.9823 16.4444H11.7156C11.7113 16.4239 11.7113 16.4027 11.7156 16.3822V14.6044C11.7019 14.54 11.6929 14.4747 11.689 14.4089Z" fill="#00007F"/>
<path d="M13.0133 14.4178H13.5822C13.5822 14.4178 13.5822 14.5067 13.6267 14.5511C13.7245 14.8267 13.8133 15.1111 13.9111 15.3956L14.1333 16.0711C14.1333 16.1867 14.2222 16.3111 14.2489 16.4267C14.1251 16.4444 13.9994 16.4444 13.8756 16.4267C13.8465 16.4201 13.8196 16.406 13.7978 16.3857C13.7759 16.3654 13.7598 16.3397 13.7511 16.3111C13.7236 16.2504 13.6998 16.1881 13.68 16.1245H12.9245C12.9245 16.2133 12.8711 16.32 12.8 16.3911C12.7407 16.434 12.6687 16.4559 12.5956 16.4533H12.3467C12.4089 16.24 12.4889 16.0356 12.5511 15.8222C12.6133 15.6089 12.64 15.5378 12.6933 15.4045C12.7467 15.2711 12.7733 15.1467 12.8178 15.0133C12.8622 14.88 12.9156 14.7378 12.96 14.6045L13.0133 14.4445M13.2711 15.0133C13.2711 15.1289 13.1911 15.2356 13.1645 15.3511C13.1378 15.4667 13.0756 15.6178 13.04 15.76H13.5556C13.5647 15.7281 13.5647 15.6942 13.5556 15.6622C13.5111 15.5022 13.4667 15.3511 13.4133 15.1911C13.36 15.0311 13.3689 15.0222 13.3333 14.9422C13.3102 14.9533 13.2891 14.9684 13.2711 14.9867V15.0133Z" fill="#00007F"/>
<path d="M14.4445 14.4178C14.548 14.4087 14.6521 14.4087 14.7556 14.4178C14.8264 14.4092 14.898 14.4092 14.9689 14.4178C15.0133 14.48 15.04 14.56 15.0845 14.6311L15.5733 15.6711C15.5887 15.7096 15.6097 15.7455 15.6356 15.7778V14.7378C15.6268 14.6284 15.6268 14.5184 15.6356 14.4089C15.7066 14.4045 15.7779 14.4045 15.8489 14.4089C15.9229 14.4045 15.9971 14.4045 16.0711 14.4089C16.0711 14.5689 16.0711 14.7289 16.0711 14.88V15.7689C16.0711 15.9556 16.0711 16.1334 16.0711 16.32C16.0704 16.3439 16.0624 16.367 16.0481 16.3861C16.0337 16.4052 16.0138 16.4194 15.9911 16.4267C15.9057 16.4392 15.8188 16.4392 15.7333 16.4267H15.5645C15.5607 16.4121 15.5607 16.3968 15.5645 16.3822L15.2978 15.8222L14.96 15.1111V15.0667C14.96 15.4578 14.96 15.8489 14.96 16.2311C14.9636 16.2601 14.9607 16.2895 14.9515 16.3172C14.9423 16.3449 14.9269 16.3701 14.9067 16.3911C14.8452 16.4044 14.7815 16.4044 14.72 16.3911H14.5156L14.4445 14.4178Z" fill="#00007F"/>
<path d="M16.2667 14.4178C16.3227 14.409 16.3797 14.409 16.4356 14.4178H17.7778C17.8368 14.4088 17.8967 14.4088 17.9556 14.4178C17.9649 14.4916 17.9649 14.5662 17.9556 14.64C17.9541 14.6767 17.94 14.7117 17.9157 14.7392C17.8915 14.7667 17.8585 14.785 17.8223 14.7911C17.6683 14.8 17.514 14.8 17.3601 14.7911C17.3601 15.1911 17.3601 15.5911 17.3601 15.9911C17.3736 16.0974 17.3736 16.2049 17.3601 16.3111C17.3451 16.3407 17.3223 16.3655 17.294 16.3828C17.2657 16.4001 17.2332 16.4091 17.2001 16.4089H16.8889V15.1111C16.8889 15.0133 16.8889 14.9156 16.8889 14.8267C16.6934 14.8267 16.4889 14.8267 16.2845 14.8267L16.2667 14.4178Z" fill="#00007F"/>
<path d="M18.4001 14.4178H18.9689C19.0068 14.5167 19.0395 14.6176 19.0667 14.72C19.2001 15.1289 19.3512 15.5378 19.4756 15.9467C19.5289 16.0711 19.5645 16.1956 19.6089 16.32V16.4267H19.3601C19.2841 16.4293 19.2094 16.4075 19.1467 16.3645C19.0999 16.2836 19.0641 16.1969 19.0401 16.1067C19.0401 16.1067 18.9956 16.1067 18.9689 16.1067H18.3112C18.2667 16.1689 18.2667 16.2489 18.2312 16.3111C18.2143 16.3425 18.1902 16.3694 18.1608 16.3895C18.1314 16.4096 18.0976 16.4224 18.0623 16.4267H17.7778C17.7778 16.2933 17.8667 16.1689 17.9023 16.0356L18.2934 14.8889C18.2934 14.7467 18.3823 14.6133 18.4178 14.48V14.4178M18.5689 15.3067C18.5689 15.44 18.4801 15.5822 18.4445 15.7156H18.9601C18.9601 15.7156 18.9601 15.7156 18.9601 15.6622C18.8712 15.4045 18.8001 15.1467 18.7112 14.8889L18.5689 15.3067Z" fill="#00007F"/>
<path d="M19.8312 14.4089C19.9467 14.4089 20.0623 14.4089 20.1778 14.4089C20.385 14.3956 20.5929 14.3956 20.8001 14.4089C20.9201 14.424 21.0322 14.4769 21.1201 14.56C21.208 14.6708 21.2523 14.8099 21.2445 14.9511C21.2487 15.0226 21.2383 15.0941 21.2139 15.1614C21.1894 15.2287 21.1514 15.2902 21.1023 15.3422C21.0505 15.3935 20.9904 15.4356 20.9245 15.4667C20.993 15.5012 21.0536 15.5496 21.1023 15.6089C21.1708 15.7149 21.2275 15.8282 21.2712 15.9467C21.3423 16.0978 21.4134 16.2489 21.4756 16.4089H20.9867C20.9548 16.3584 20.928 16.3048 20.9067 16.2489L20.729 15.8489C20.7105 15.8048 20.6826 15.7653 20.6473 15.733C20.612 15.7008 20.5701 15.6766 20.5245 15.6622C20.451 15.6489 20.3758 15.6489 20.3023 15.6622C20.3023 15.84 20.3023 16.0089 20.3023 16.1867C20.3113 16.2199 20.3114 16.255 20.3026 16.2883C20.2937 16.3215 20.2762 16.3519 20.2519 16.3763C20.2275 16.4006 20.1971 16.4181 20.1639 16.427C20.1306 16.4358 20.0955 16.4357 20.0623 16.4267H19.8312V14.4089ZM20.3023 14.7911V15.2978H20.4445C20.5235 15.3157 20.6055 15.3157 20.6845 15.2978C20.7136 15.28 20.7378 15.2553 20.7549 15.2258C20.7719 15.1963 20.7814 15.163 20.7823 15.1289C20.792 15.086 20.7923 15.0416 20.7831 14.9986C20.7739 14.9556 20.7554 14.9151 20.729 14.88C20.6626 14.83 20.5808 14.8049 20.4978 14.8089L20.3023 14.7911Z" fill="#00007F"/>
<path d="M22.3645 14.4089C22.4889 14.4089 22.6045 14.4089 22.7289 14.4089H23.8756C23.9289 14.4044 23.9824 14.4044 24.0356 14.4089C24.0529 14.5089 24.0529 14.6111 24.0356 14.7111C24.0205 14.736 23.9997 14.757 23.975 14.7724C23.9504 14.7879 23.9224 14.7973 23.8934 14.8C23.7512 14.8 23.6001 14.8 23.4578 14.8C23.4578 15.1644 23.4578 15.52 23.4578 15.8844C23.4669 16.0206 23.4669 16.1572 23.4578 16.2933C23.4499 16.3247 23.433 16.353 23.4094 16.3751C23.3858 16.3972 23.3563 16.412 23.3245 16.4178H23.0045C23.0045 16.0356 23.0045 15.6533 23.0045 15.2711C23.0045 15.12 23.0045 14.96 23.0045 14.8C22.8089 14.8 22.6045 14.8 22.4089 14.8C22.4045 14.7408 22.4045 14.6814 22.4089 14.6222C22.3896 14.5521 22.3748 14.4809 22.3645 14.4089Z" fill="#00007F"/>
<path d="M26.3112 14.4089C26.4623 14.4089 26.6134 14.4089 26.7645 14.4089C26.9654 14.3869 27.1681 14.3869 27.3689 14.4089C27.4788 14.4397 27.5776 14.5014 27.6534 14.5867C27.7443 14.6835 27.7979 14.8095 27.8045 14.9422C27.8268 15.0507 27.8268 15.1626 27.8045 15.2711C27.7765 15.3776 27.7178 15.4734 27.6356 15.5467C27.5565 15.6084 27.4658 15.6537 27.3689 15.68C27.1827 15.6977 26.9952 15.6977 26.8089 15.68C26.8089 15.8578 26.8089 16.0444 26.8089 16.2222C26.8065 16.2687 26.7876 16.3129 26.7556 16.3467C26.6967 16.3558 26.6367 16.3558 26.5778 16.3467H26.3112V14.4089ZM26.7823 14.7911C26.7778 14.8562 26.7778 14.9216 26.7823 14.9867C26.7734 15.108 26.7734 15.2298 26.7823 15.3511C26.8355 15.3556 26.889 15.3556 26.9423 15.3511C26.9928 15.3616 27.045 15.3615 27.0955 15.3507C27.1459 15.34 27.1937 15.319 27.2356 15.2889C27.29 15.2312 27.3203 15.1549 27.3203 15.0756C27.3203 14.9963 27.29 14.9199 27.2356 14.8622C27.2002 14.8323 27.1591 14.8098 27.1148 14.7961C27.0705 14.7824 27.024 14.7776 26.9778 14.7822L26.7823 14.7911Z" fill="#00007F"/>
<path d="M24.9867 14.7556C25.0455 14.7445 25.1059 14.7459 25.1641 14.7597C25.2223 14.7734 25.2769 14.7993 25.3245 14.8356C25.3787 14.8883 25.4211 14.9519 25.4489 15.0222C25.504 15.1417 25.5285 15.2731 25.52 15.4044C25.5295 15.5769 25.4926 15.7488 25.4134 15.9022C25.3628 15.9897 25.2797 16.0536 25.1822 16.08C25.1066 16.1005 25.0267 16.0997 24.9514 16.0777C24.8762 16.0558 24.8084 16.0135 24.7556 15.9556C24.6886 15.8607 24.6459 15.7508 24.6311 15.6356C24.6 15.4801 24.6 15.3199 24.6311 15.1644C24.6474 15.0829 24.6774 15.0047 24.72 14.9333C24.7475 14.8849 24.7859 14.8436 24.8322 14.8127C24.8785 14.7818 24.9314 14.7622 24.9867 14.7556Z" fill="white"/>
<path d="M20.3022 14.7911H20.4889C20.5719 14.7871 20.6537 14.8123 20.72 14.8622C20.7465 14.8973 20.765 14.9378 20.7742 14.9808C20.7834 15.0238 20.7831 15.0683 20.7734 15.1111C20.7724 15.1452 20.763 15.1785 20.7459 15.208C20.7288 15.2375 20.7047 15.2622 20.6756 15.28C20.5966 15.2979 20.5146 15.2979 20.4356 15.28H20.3022V14.7911Z" fill="white"/>
<path d="M26.7822 14.7911H26.9956C27.0417 14.7865 27.0883 14.7913 27.1326 14.805C27.1768 14.8187 27.2179 14.8412 27.2533 14.8711C27.3077 14.9288 27.338 15.0052 27.338 15.0845C27.338 15.1638 27.3077 15.2401 27.2533 15.2978C27.2114 15.3279 27.1637 15.3489 27.1132 15.3596C27.0627 15.3704 27.0105 15.3705 26.96 15.36C26.9068 15.3645 26.8532 15.3645 26.8 15.36C26.7911 15.2387 26.7911 15.1169 26.8 14.9956C26.7892 14.9279 26.7833 14.8596 26.7822 14.7911Z" fill="white"/>
<path d="M13.2711 14.9867C13.2663 14.9602 13.2663 14.9331 13.2711 14.9067C13.2711 14.9867 13.3244 15.0756 13.3511 15.1556C13.3778 15.2356 13.4489 15.4667 13.4933 15.6267C13.5025 15.6586 13.5025 15.6925 13.4933 15.7245H12.9778C12.9778 15.5822 13.0667 15.4489 13.1022 15.3156C13.1378 15.1822 13.2356 15.1111 13.2711 14.9867Z" fill="white"/>
<path d="M18.5512 15.3156L18.6845 14.8978C18.7734 15.1556 18.8445 15.4134 18.9334 15.6711C18.9334 15.6711 18.9334 15.6711 18.9334 15.7245H18.4178C18.4623 15.5911 18.5156 15.4489 18.5512 15.3156Z" fill="white"/>
<path d="M11.6711 17.2H11.8045C11.8045 17.28 11.8045 17.36 11.8045 17.4311C11.8782 17.4404 11.9529 17.4404 12.0267 17.4311C12.0267 17.36 12.0267 17.28 12.0267 17.2H12.1689C12.1689 17.3422 12.1689 17.4845 12.1689 17.6267C12.1734 17.6888 12.1734 17.7512 12.1689 17.8133C12.1219 17.8222 12.0737 17.8222 12.0267 17.8133C12.031 17.7304 12.031 17.6474 12.0267 17.5645H11.8134C11.8089 17.6474 11.8089 17.7304 11.8134 17.8133C11.7694 17.8222 11.724 17.8222 11.68 17.8133C11.6757 17.7869 11.6757 17.7598 11.68 17.7333V17.2889C11.6727 17.2599 11.6697 17.2299 11.6711 17.2Z" fill="#020202"/>
<path d="M12.5334 17.2H12.6667V17.7778C12.6227 17.7866 12.5774 17.7866 12.5334 17.7778C12.5291 17.7513 12.5291 17.7243 12.5334 17.6978V17.2533C12.5318 17.2356 12.5318 17.2178 12.5334 17.2Z" fill="#020202"/>
<path d="M13.0222 17.36C13.0524 17.3109 13.0941 17.2699 13.1436 17.2405C13.1932 17.2111 13.2491 17.1941 13.3067 17.1911C13.3737 17.1734 13.4441 17.1734 13.5111 17.1911C13.5152 17.2266 13.5152 17.2624 13.5111 17.2978C13.4272 17.2712 13.3372 17.2712 13.2533 17.2978C13.2307 17.3114 13.2111 17.3295 13.1956 17.3509C13.1802 17.3722 13.1692 17.3966 13.1634 17.4223C13.1576 17.448 13.157 17.4747 13.1618 17.5007C13.1666 17.5266 13.1765 17.5514 13.1911 17.5734C13.2006 17.5942 13.2142 17.6128 13.2311 17.6282C13.2481 17.6436 13.2679 17.6554 13.2895 17.6629C13.3111 17.6704 13.334 17.6734 13.3569 17.6717C13.3797 17.6701 13.4019 17.6638 13.4222 17.6534V17.5378H13.3333C13.329 17.5024 13.329 17.4666 13.3333 17.4311H13.5556C13.5644 17.4751 13.5644 17.5205 13.5556 17.5645C13.5598 17.6296 13.5598 17.6949 13.5556 17.76C13.4213 17.813 13.272 17.813 13.1378 17.76C13.103 17.7375 13.0737 17.7074 13.0522 17.672C13.0307 17.6366 13.0174 17.5968 13.0133 17.5556C12.9984 17.4908 13.0015 17.4232 13.0222 17.36Z" fill="#020202"/>
<path d="M13.8667 17.2H14.009C14.0045 17.28 14.0045 17.3601 14.009 17.44H14.2223C14.2267 17.3601 14.2267 17.28 14.2223 17.2H14.3556C14.3556 17.2978 14.3556 17.3867 14.3556 17.4845C14.3556 17.5822 14.3556 17.7067 14.3556 17.8133C14.3092 17.8108 14.2638 17.7987 14.2223 17.7778C14.2266 17.6949 14.2266 17.6118 14.2223 17.5289H14.009C14.0047 17.6118 14.0047 17.6949 14.009 17.7778C13.962 17.7867 13.9137 17.7867 13.8667 17.7778C13.8623 17.7067 13.8623 17.6355 13.8667 17.5645C13.8667 17.4667 13.8579 17.3333 13.8667 17.2Z" fill="#020202"/>
<path d="M15.0579 17.2H15.529V17.3245H15.369C15.369 17.4845 15.369 17.6533 15.369 17.8133C15.325 17.8222 15.2796 17.8222 15.2356 17.8133C15.2356 17.6533 15.2356 17.4845 15.2356 17.3245H15.0756L15.0579 17.2Z" fill="#020202"/>
<path d="M15.9111 17.2089C15.9726 17.1957 16.0363 17.1957 16.0978 17.2089L16.2578 17.7245C16.2617 17.754 16.2617 17.7839 16.2578 17.8134C16.2075 17.8176 16.157 17.8176 16.1067 17.8134C16.1067 17.76 16.1067 17.7067 16.0533 17.6622H15.9111C15.9111 17.7156 15.9111 17.76 15.9111 17.8134C15.8612 17.8224 15.81 17.8224 15.76 17.8134L15.9467 17.2089M15.9467 17.5556H16.0711C16.0711 17.4756 16.0267 17.4045 16.0089 17.3245C15.9769 17.3987 15.953 17.4762 15.9378 17.5556H15.9467Z" fill="#020202"/>
<path d="M16.5867 17.3067C16.6069 17.2744 16.6342 17.2472 16.6666 17.2272C16.6989 17.2072 16.7355 17.1948 16.7733 17.1911C16.8374 17.1742 16.9048 17.1742 16.9689 17.1911C16.9727 17.2266 16.9727 17.2623 16.9689 17.2978C16.9134 17.2846 16.8555 17.2846 16.8 17.2978C16.8 17.2978 16.7467 17.3422 16.8 17.3689C16.8533 17.3956 16.8533 17.4133 16.8889 17.4311C16.9213 17.4374 16.9522 17.4501 16.9796 17.4684C17.0071 17.4867 17.0306 17.5103 17.0489 17.5378C17.0569 17.5642 17.059 17.592 17.055 17.6193C17.0509 17.6466 17.0409 17.6726 17.0256 17.6956C17.0103 17.7185 16.9901 17.7378 16.9665 17.752C16.9428 17.7662 16.9163 17.775 16.8889 17.7778C16.835 17.8044 16.7757 17.8183 16.7156 17.8183C16.6554 17.8183 16.5961 17.8044 16.5422 17.7778V17.6622C16.6133 17.6622 16.6933 17.7156 16.7645 17.6622C16.7718 17.6574 16.7778 17.6508 16.782 17.643C16.7861 17.6353 16.7883 17.6266 16.7883 17.6178C16.7883 17.609 16.7861 17.6003 16.782 17.5926C16.7778 17.5848 16.7718 17.5782 16.7645 17.5733C16.7022 17.5733 16.6222 17.52 16.5689 17.4578C16.5605 17.4329 16.5577 17.4064 16.5608 17.3802C16.5639 17.3541 16.5727 17.329 16.5867 17.3067Z" fill="#020202"/>
<path d="M17.2711 17.2H17.7778V17.3245H17.6178C17.6178 17.4845 17.6178 17.6533 17.6178 17.8133C17.5738 17.8222 17.5285 17.8222 17.4845 17.8133C17.4845 17.6533 17.4845 17.4845 17.4845 17.3245H17.3245L17.2711 17.2Z" fill="#020202"/>
<path d="M18.0534 17.2H18.4267C18.4355 17.238 18.4355 17.2775 18.4267 17.3156H18.1956C18.1867 17.3566 18.1867 17.399 18.1956 17.44H18.4089C18.418 17.475 18.418 17.5117 18.4089 17.5467H18.1956C18.1868 17.5907 18.1868 17.636 18.1956 17.68C18.2785 17.6844 18.3616 17.6844 18.4445 17.68V17.7778C18.3112 17.7778 18.1778 17.7778 18.0534 17.7778C18.0475 17.6 18.0475 17.4074 18.0534 17.2Z" fill="#020202"/>
<path d="M19.2 17.2711C19.2239 17.2432 19.2541 17.2214 19.2882 17.2075C19.3222 17.1935 19.359 17.1879 19.3956 17.1911C19.4451 17.1779 19.4972 17.1779 19.5467 17.1911C19.5547 17.2262 19.5547 17.2627 19.5467 17.2978C19.4942 17.2846 19.4392 17.2846 19.3867 17.2978C19.3726 17.2978 19.359 17.3034 19.349 17.3134C19.339 17.3234 19.3334 17.337 19.3334 17.3511C19.3334 17.3511 19.3334 17.3511 19.3334 17.4044C19.3334 17.4578 19.4756 17.4044 19.52 17.5022C19.5443 17.5148 19.5652 17.533 19.5809 17.5554C19.5966 17.5777 19.6066 17.6036 19.6101 17.6307C19.6136 17.6578 19.6104 17.6853 19.601 17.7109C19.5915 17.7366 19.5759 17.7595 19.5556 17.7778C19.5082 17.8113 19.4532 17.8326 19.3956 17.84C19.3281 17.8534 19.2586 17.8534 19.1912 17.84C19.1821 17.802 19.1821 17.7624 19.1912 17.7244C19.2623 17.7244 19.3334 17.7778 19.4045 17.7244C19.414 17.7203 19.4221 17.7135 19.4278 17.7048C19.4335 17.6961 19.4365 17.6859 19.4365 17.6756C19.4365 17.6652 19.4335 17.655 19.4278 17.6463C19.4221 17.6377 19.414 17.6308 19.4045 17.6267C19.334 17.6019 19.2679 17.5659 19.2089 17.52C19.1898 17.5057 19.1742 17.4873 19.1631 17.4661C19.152 17.4449 19.1459 17.4215 19.145 17.3977C19.1441 17.3738 19.1486 17.3501 19.1582 17.3282C19.1677 17.3063 19.182 17.2868 19.2 17.2711Z" fill="#020202"/>
<path d="M19.8934 17.2089C19.9613 17.2005 20.03 17.2005 20.0979 17.2089C20.1696 17.2079 20.2391 17.2332 20.2934 17.28C20.3158 17.2984 20.3338 17.3214 20.3461 17.3476C20.3585 17.3737 20.3649 17.4022 20.3649 17.4311C20.3649 17.46 20.3585 17.4886 20.3461 17.5147C20.3338 17.5408 20.3158 17.5639 20.2934 17.5823C20.2258 17.5946 20.1566 17.5946 20.089 17.5823C20.089 17.6534 20.089 17.7156 20.089 17.7867C20.042 17.7956 19.9938 17.7956 19.9468 17.7867C19.9468 17.6534 19.9468 17.52 19.9468 17.3956C19.9423 17.3245 19.9423 17.2533 19.9468 17.1823M20.0979 17.2889C20.089 17.3478 20.089 17.4078 20.0979 17.4667C20.1601 17.4667 20.249 17.4667 20.2579 17.3778C20.2668 17.2889 20.1068 17.2889 20.0445 17.3156L20.0979 17.2889Z" fill="#020202"/>
<path d="M20.6578 17.2H21.0312C21.0399 17.2381 21.0399 17.2776 21.0312 17.3156H20.8089C20.8 17.3566 20.8 17.399 20.8089 17.44C20.88 17.4356 20.9512 17.4356 21.0223 17.44V17.5467H20.8089C20.8001 17.5937 20.8001 17.6419 20.8089 17.6889C20.8889 17.6889 20.9689 17.6889 21.0489 17.6889C21.058 17.7239 21.058 17.7606 21.0489 17.7956C20.9187 17.8045 20.7881 17.8045 20.6578 17.7956V17.1823V17.2Z" fill="#020202"/>
<path d="M21.4134 17.2978C21.4685 17.2465 21.5369 17.2118 21.6108 17.1977C21.6847 17.1835 21.7611 17.1905 21.8312 17.2178C21.8392 17.2529 21.8392 17.2894 21.8312 17.3245C21.7618 17.302 21.6872 17.302 21.6179 17.3245C21.5885 17.3439 21.5645 17.3703 21.5478 17.4014C21.5312 17.4324 21.5224 17.467 21.5224 17.5022C21.5224 17.5374 21.5312 17.5721 21.5478 17.6031C21.5645 17.6341 21.5885 17.6606 21.6179 17.68C21.6903 17.702 21.7676 17.702 21.8401 17.68C21.8487 17.715 21.8487 17.7517 21.8401 17.7867C21.7671 17.8044 21.6909 17.8044 21.6179 17.7867C21.5795 17.7841 21.5422 17.7732 21.5084 17.7547C21.4747 17.7363 21.4453 17.7108 21.4223 17.68C21.3865 17.623 21.3668 17.5574 21.3652 17.4901C21.3636 17.4228 21.3803 17.3564 21.4134 17.2978Z" fill="#020202"/>
<path d="M22.1512 17.2H22.2845C22.2845 17.3422 22.2845 17.4845 22.2845 17.6267C22.2845 17.7689 22.2845 17.7511 22.2845 17.8133C22.2405 17.8222 22.1952 17.8222 22.1512 17.8133C22.1452 17.6119 22.1452 17.4074 22.1512 17.2Z" fill="#020202"/>
<path d="M22.7734 17.2H22.9601C22.9601 17.2978 23.0223 17.3956 23.049 17.4845L23.1556 17.8133C23.1027 17.8223 23.0486 17.8223 22.9956 17.8133C22.9956 17.7689 22.9956 17.7156 22.9512 17.6711C22.8925 17.6594 22.8321 17.6594 22.7734 17.6711C22.7734 17.7156 22.7734 17.7689 22.7734 17.8133C22.7234 17.8222 22.6723 17.8222 22.6223 17.8133C22.6845 17.6089 22.7556 17.4045 22.809 17.2M22.809 17.5556H22.9334C22.922 17.483 22.9041 17.4116 22.8801 17.3422C22.8428 17.4089 22.8158 17.4808 22.8001 17.5556H22.809Z" fill="#020202"/>
<path d="M23.4667 17.2H23.6C23.6 17.3689 23.6 17.5378 23.6 17.6978H23.84V17.7778C23.7067 17.7778 23.5822 17.7778 23.4578 17.7778L23.4667 17.2Z" fill="#020202"/>
<path d="M24.1601 17.2H24.3023V17.7778C24.2553 17.7867 24.2071 17.7867 24.1601 17.7778C24.1601 17.6889 24.1601 17.6 24.1601 17.5111C24.1601 17.4222 24.1512 17.3156 24.1601 17.2Z" fill="#020202"/>
<path d="M24.6311 17.4045C24.6287 17.3788 24.6314 17.3528 24.639 17.3282C24.6466 17.3035 24.659 17.2806 24.6756 17.2608C24.6921 17.2409 24.7124 17.2246 24.7353 17.2126C24.7582 17.2007 24.7832 17.1934 24.8089 17.1911C24.8783 17.1693 24.9528 17.1693 25.0222 17.1911V17.2978C24.9689 17.2978 24.9156 17.2978 24.8622 17.2978C24.8462 17.3026 24.8319 17.3118 24.8209 17.3244C24.8099 17.337 24.8027 17.3524 24.8 17.3689C24.8059 17.3818 24.8145 17.3932 24.8253 17.4024C24.836 17.4116 24.8486 17.4184 24.8622 17.4222C24.921 17.4409 24.9754 17.4711 25.0222 17.5111C25.0425 17.5269 25.059 17.5471 25.0703 17.5702C25.0816 17.5933 25.0875 17.6187 25.0875 17.6445C25.0875 17.6702 25.0816 17.6956 25.0703 17.7187C25.059 17.7418 25.0425 17.762 25.0222 17.7778C24.9682 17.8038 24.9089 17.8173 24.8489 17.8173C24.7889 17.8173 24.7297 17.8038 24.6756 17.7778C24.6705 17.7394 24.6705 17.7006 24.6756 17.6622C24.7348 17.6664 24.7942 17.6664 24.8533 17.6622C24.8533 17.6622 24.9334 17.6622 24.9245 17.6C24.9156 17.5378 24.88 17.5289 24.8445 17.52C24.8021 17.5197 24.7606 17.5091 24.7233 17.4889C24.6861 17.4687 24.6545 17.4397 24.6311 17.4045Z" fill="#020202"/>
<path d="M25.3245 17.2H25.7778V17.3245H25.6089C25.6089 17.4845 25.6089 17.6533 25.6089 17.8133C25.5649 17.8222 25.5196 17.8222 25.4756 17.8133C25.4756 17.6533 25.4756 17.4845 25.4756 17.3245H25.3156C25.3096 17.2828 25.3127 17.2404 25.3245 17.2Z" fill="#020202"/>
<path d="M20.0445 17.3156C20.1067 17.3156 20.2134 17.3156 20.2045 17.4045C20.1956 17.4934 20.1067 17.5022 20.0445 17.4934C20.0356 17.4344 20.0356 17.3745 20.0445 17.3156Z" fill="white"/>
<path d="M15.9379 17.5556C15.9502 17.4765 15.9711 17.399 16.0001 17.3245C16.0001 17.4045 16.0445 17.4756 16.0623 17.5556H15.9379Z" fill="white"/>
<path d="M22.8 17.5556C22.813 17.4813 22.8369 17.4094 22.8712 17.3422C22.8952 17.4116 22.913 17.483 22.9245 17.5556H22.8Z" fill="white"/>
</g>
<defs>
<clipPath id="clip0_2707_273073">
<rect width="32" height="32" fill="white"/>
</clipPath>
</defs>
</svg>
