<svg width="32" height="32" viewBox="0 0 32 32" fill="none" xmlns="http://www.w3.org/2000/svg">
<g clip-path="url(#clip0_2810_58979)">
<mask id="mask0_2810_58979" style="mask-type:luminance" maskUnits="userSpaceOnUse" x="0" y="-1" width="32" height="33">
<path d="M32 -0.0800171H0V31.92H32V-0.0800171Z" fill="white"/>
</mask>
<g mask="url(#mask0_2810_58979)">
<path d="M16 31.92C24.8366 31.92 32 24.7565 32 15.92C32 7.08343 24.8366 -0.0800171 16 -0.0800171C7.16344 -0.0800171 0 7.08343 0 15.92C0 24.7565 7.16344 31.92 16 31.92Z" fill="white"/>
<mask id="mask1_2810_58979" style="mask-type:luminance" maskUnits="userSpaceOnUse" x="2" y="2" width="28" height="28">
<path d="M2.66699 15.92C2.66699 18.5571 3.44898 21.135 4.91406 23.3276C6.37915 25.5203 8.46153 27.2292 10.8979 28.2384C13.3342 29.2476 16.0151 29.5116 18.6015 28.9971C21.1879 28.4827 23.5637 27.2128 25.4284 25.3481C27.2931 23.4834 28.563 21.1076 29.0775 18.5212C29.5919 15.9348 29.3279 13.2539 28.3187 10.8176C27.3096 8.38121 25.6006 6.29883 23.4079 4.83374C21.2153 3.36866 18.6374 2.58667 16.0003 2.58667C12.4641 2.58667 9.07272 3.99143 6.57224 6.49191C4.07175 8.9924 2.66699 12.3838 2.66699 15.92Z" fill="white"/>
</mask>
<g mask="url(#mask1_2810_58979)">
<path d="M29.3337 15.92C29.3337 18.5571 28.5517 21.135 27.0866 23.3276C25.6215 25.5203 23.5391 27.2292 21.1028 28.2384C18.6664 29.2476 15.9855 29.5116 13.3991 28.9971C10.8127 28.4827 8.43694 27.2128 6.57224 25.3481C4.70754 23.4834 3.43766 21.1076 2.92319 18.5212C2.40872 15.9348 2.67277 13.2539 3.68194 10.8176C4.69111 8.38121 6.40007 6.29883 8.59273 4.83374C10.7854 3.36866 13.3632 2.58667 16.0003 2.58667C17.7513 2.58667 19.4851 2.93155 21.1028 3.60161C22.7205 4.27167 24.1903 5.2538 25.4284 6.49191C26.6665 7.73003 27.6487 9.19988 28.3187 10.8176C28.9888 12.4352 29.3337 14.169 29.3337 15.92Z" fill="white"/>
</g>
<path d="M16.0005 16.1422C16.0005 15.9378 16.0805 15.7333 16.125 15.5289C16.3955 14.2563 16.8539 13.0311 17.485 11.8933C17.6894 11.5378 17.8938 11.1911 18.125 10.8445C18.2754 10.6331 18.4386 10.4313 18.6138 10.24C19.1445 9.64139 19.7918 9.15743 20.5161 8.81779C21.1889 8.49666 21.9317 8.34993 22.6761 8.39112H22.7383C22.7383 8.51557 22.7383 8.64001 22.6938 8.76446C22.6494 8.8889 22.6938 8.95112 22.6938 9.0489C22.6777 9.96592 22.5766 10.8795 22.3916 11.7778L22.1516 12.88C22.1516 12.9245 22.1516 12.9689 22.1516 13.0311H22.285C23.0016 12.8319 23.7327 12.6893 24.4716 12.6045C24.8894 12.5511 25.3161 12.5333 25.7339 12.5156C26.1599 12.5312 26.5858 12.4802 26.9961 12.3645C26.9961 12.4889 26.9961 12.5956 26.9961 12.7022C26.9627 13.2398 26.8519 13.7697 26.6672 14.2756C26.4594 14.8236 26.1587 15.3318 25.7783 15.7778C24.8057 16.8855 23.5667 17.7268 22.1783 18.2222C21.2262 18.5692 20.2443 18.828 19.245 18.9956C18.605 19.1022 17.965 19.1733 17.3161 19.2267C16.5522 19.2667 15.7867 19.2667 15.0227 19.2267C14.295 19.1926 13.5704 19.1094 12.8538 18.9778C12.0448 18.8389 11.246 18.6458 10.4627 18.4C9.19339 18.0189 8.02042 17.3702 7.02274 16.4978C6.58527 16.114 6.19978 15.6747 5.87607 15.1911C5.42898 14.5061 5.15729 13.7215 5.08496 12.9067C5.08496 12.7289 5.08496 12.5511 5.08496 12.3467C5.61019 12.4809 6.15219 12.5378 6.69385 12.5156C7.21856 12.5363 7.74126 12.5927 8.25829 12.6845L9.7694 13.0045H9.92052C9.92594 12.9305 9.92594 12.8562 9.92052 12.7822C9.82274 12.3022 9.69829 11.8133 9.61829 11.3245C9.53829 10.8356 9.49385 10.32 9.44052 9.81335C9.38718 9.30668 9.44052 9.03112 9.36941 8.6489C9.36941 8.55112 9.36941 8.46224 9.36941 8.34668H9.53829C10.5938 8.36391 11.6146 8.72604 12.445 9.37779C13.1087 9.86019 13.6756 10.4633 14.1161 11.1556C14.6973 12.0876 15.1686 13.0839 15.5205 14.1245C15.7066 14.7069 15.855 15.3007 15.965 15.9022C15.9607 15.9792 15.9607 16.0564 15.965 16.1333L16.0005 16.1422ZM15.2983 16.3556C15.303 16.3053 15.303 16.2547 15.2983 16.2045C15.2157 15.6521 15.0969 15.1057 14.9427 14.5689C14.6531 13.5224 14.2033 12.5269 13.6094 11.6178C13.1292 10.8623 12.5037 10.2097 11.7694 9.69779C11.2697 9.3534 10.7035 9.11724 10.1072 9.00446H9.86718C9.87183 10.4689 10.1058 11.9235 10.5605 13.3156C12.4137 13.8425 14.0727 14.8991 15.3338 16.3556H15.2983ZM22.0716 8.96001L21.8227 9.00446C21.1375 9.15264 20.4957 9.45682 19.9472 9.89335C19.1327 10.5256 18.4604 11.3221 17.9738 12.2311C17.294 13.4812 16.8396 14.8412 16.6316 16.2489C16.6316 16.2489 16.6316 16.3111 16.6316 16.3822C17.8724 14.9218 19.513 13.8559 21.3516 13.3156C21.8311 11.9125 22.0861 10.4426 22.1072 8.96001H22.0716ZM26.2672 13.0845H26.0627L25.4494 13.1467L24.0983 13.2711C23.5423 13.3228 22.9919 13.4239 22.4538 13.5733L21.9383 13.7422C21.7961 14.1067 21.6627 14.4533 21.5205 14.7911C21.0944 15.7937 20.4923 16.7118 19.7427 17.5022C19.5116 17.7511 19.2538 17.9733 19.0138 18.2045C18.9605 18.2578 18.8805 18.2845 18.8805 18.3733H18.9516C20.2967 18.1565 21.5989 17.7274 22.8094 17.1022C23.6829 16.6574 24.4665 16.0547 25.1205 15.3245C25.6718 14.7154 26.0494 13.9694 26.2138 13.1645L26.2672 13.0845ZM5.67163 13.0845C5.66706 13.1228 5.66706 13.1616 5.67163 13.2C5.73215 13.4615 5.80633 13.7196 5.89385 13.9733C6.15139 14.6072 6.53552 15.1819 7.02274 15.6622C7.58562 16.2174 8.22643 16.6875 8.92496 17.0578C10.1884 17.7304 11.5554 18.187 12.9694 18.4089C12.9694 18.4089 13.0316 18.4089 13.085 18.4089C12.8005 18.1333 12.5161 17.8845 12.2672 17.6178C12.0183 17.3511 11.7605 17.0578 11.5294 16.7289C11.3136 16.4426 11.1119 16.146 10.925 15.84C10.7413 15.5113 10.5751 15.173 10.4272 14.8267C10.2761 14.4889 10.1427 14.1333 10.0005 13.7778L9.77829 13.6711C8.91121 13.409 8.01604 13.2508 7.11163 13.2L6.31163 13.1378L5.67163 13.0845ZM10.8361 14.0445C10.8361 14.0445 10.8361 14.1156 10.8361 14.1333L10.9161 14.3289C11.1174 14.8086 11.3551 15.2722 11.6272 15.7156C12.0732 16.4729 12.6512 17.1443 13.3338 17.6978C13.9277 18.1704 14.6362 18.4771 15.3872 18.5867C15.4345 18.5912 15.4821 18.5912 15.5294 18.5867C15.5377 18.5546 15.5377 18.521 15.5294 18.4889C15.5337 18.4505 15.5337 18.4117 15.5294 18.3733C15.3371 17.4708 14.8826 16.6452 14.2227 16C13.9473 15.7459 13.6499 15.5169 13.3338 15.3156C12.7505 14.8884 12.125 14.5221 11.4672 14.2222C11.2769 14.1381 11.0768 14.0784 10.8716 14.0445H10.8361ZM16.4716 18.6133C16.5216 18.6225 16.5728 18.6225 16.6227 18.6133C16.9072 18.5422 17.1916 18.48 17.5116 18.3822C18.2745 18.1012 18.9472 17.6189 19.4583 16.9867C20.1558 16.1594 20.7169 15.2262 21.1205 14.2222C21.1205 14.2222 21.1205 14.1422 21.1205 14.0978C20.9874 14.1013 20.8568 14.1348 20.7383 14.1956C19.7893 14.5759 18.9048 15.1006 18.1161 15.7511C17.316 16.3867 16.7525 17.2726 16.5161 18.2667C16.4875 18.3802 16.4845 18.4986 16.5072 18.6133H16.4716Z" fill="#08AA42"/>
<path d="M18.8802 23.5644H18.4091L17.9469 21.7867C17.9165 21.8059 17.891 21.832 17.8725 21.8629C17.854 21.8938 17.8429 21.9285 17.8402 21.9644C17.7069 22.48 17.5824 22.9955 17.4491 23.52V23.5822H16.9602L16.418 21.1644H16.8624C16.9957 21.7067 17.0757 22.2578 17.2357 22.7911C17.4224 22.2578 17.5291 21.7155 17.6891 21.1644H18.2224L18.6224 22.8089C18.7113 22.8089 18.7113 22.7111 18.7202 22.6578C18.8091 22.2133 18.898 21.7689 18.9957 21.3333C19.0075 21.2763 19.0223 21.2199 19.0402 21.1644H19.4669L18.8802 23.5644Z" fill="#08AA42"/>
<path d="M9.69737 21.1378C10.1418 21.1378 10.5863 21.1378 10.9863 21.1378C11.0788 21.1419 11.1693 21.1664 11.2514 21.2094C11.3334 21.2525 11.405 21.3131 11.461 21.3869C11.517 21.4607 11.556 21.5459 11.5754 21.6365C11.5947 21.7271 11.5939 21.8209 11.5729 21.9111C11.542 22.0896 11.4472 22.2507 11.3063 22.3645C11.3904 22.4242 11.4576 22.5048 11.5012 22.5983C11.5448 22.6918 11.5634 22.795 11.5551 22.8978C11.5662 23.0976 11.5899 23.2966 11.6263 23.4934C11.467 23.5157 11.3055 23.5157 11.1463 23.4934L11.0663 22.9423C11.058 22.8748 11.0401 22.809 11.0129 22.7467C10.9596 22.6756 10.8974 22.5867 10.8263 22.5689C10.5948 22.5195 10.3555 22.5195 10.124 22.5689V23.5289H9.68848L9.69737 21.1378ZM10.1329 22.2223H10.6663H10.8707C10.941 22.2021 11.0023 22.1585 11.0443 22.0986C11.0864 22.0388 11.1067 21.9663 11.1018 21.8934C11.1021 21.82 11.0749 21.7491 11.0255 21.6948C10.9762 21.6405 10.9082 21.6067 10.8351 21.6C10.5951 21.6 10.3551 21.6 10.1063 21.6C10.084 21.8076 10.093 22.0174 10.1329 22.2223Z" fill="#08AA42"/>
<path d="M22.0802 21.1378H22.4802L22.8002 21.68C22.9069 21.8578 23.0047 22.0356 23.1113 22.2044C23.2048 22.3929 23.3213 22.569 23.458 22.7289C23.4755 22.4625 23.4755 22.1953 23.458 21.9289V21.12H23.8491V23.5556H23.4136L22.4802 21.9822C22.3913 22.0444 22.418 22.1156 22.418 22.1778C22.418 22.5778 22.418 22.9689 22.418 23.3689V23.5644H22.0625C22.0447 23.4133 22.0447 21.3333 22.0802 21.1378Z" fill="#08AA42"/>
<path d="M14.3027 22.8H14.685C14.708 22.839 14.726 22.8808 14.7383 22.9245C14.7682 23.0244 14.831 23.1113 14.9165 23.171C15.0021 23.2307 15.1053 23.2597 15.2094 23.2533H15.3961C15.4573 23.2517 15.5169 23.2335 15.5686 23.2006C15.6203 23.1678 15.662 23.1215 15.6894 23.0667C15.7108 23.0343 15.7248 22.9975 15.7306 22.9591C15.7363 22.9207 15.7336 22.8815 15.7226 22.8442C15.7116 22.807 15.6925 22.7726 15.6669 22.7435C15.6412 22.7143 15.6094 22.6912 15.5738 22.6756C15.4945 22.6367 15.411 22.6069 15.325 22.5867L14.8005 22.4178C14.6697 22.3668 14.5586 22.2753 14.4835 22.1566C14.4084 22.038 14.3733 21.8984 14.3832 21.7584C14.3932 21.6183 14.4477 21.4851 14.5387 21.3782C14.6298 21.2714 14.7527 21.1965 14.8894 21.1644C15.1272 21.0933 15.3805 21.0933 15.6183 21.1644C15.7574 21.2032 15.8787 21.2891 15.9614 21.4075C16.0442 21.5259 16.0831 21.6694 16.0716 21.8133H15.6894C15.6881 21.7867 15.6881 21.76 15.6894 21.7333C15.6746 21.6707 15.6427 21.6134 15.5971 21.5678C15.5516 21.5223 15.4943 21.4903 15.4316 21.4756C15.2777 21.4133 15.1056 21.4133 14.9516 21.4756C14.9129 21.4903 14.8795 21.5165 14.856 21.5506C14.8324 21.5847 14.8198 21.6252 14.8198 21.6667C14.8198 21.7081 14.8324 21.7486 14.856 21.7828C14.8795 21.8169 14.9129 21.8431 14.9516 21.8578C15.0821 21.9226 15.2192 21.9733 15.3605 22.0089L15.7605 22.1422C15.9111 22.1931 16.0381 22.2967 16.1182 22.434C16.1982 22.5712 16.2259 22.7328 16.1961 22.8889C16.1862 23.0363 16.1289 23.1765 16.0328 23.2886C15.9367 23.4008 15.8069 23.4788 15.6627 23.5111C15.4262 23.5691 15.1792 23.5691 14.9427 23.5111C14.7755 23.4736 14.6241 23.385 14.5094 23.2576C14.3948 23.1301 14.3225 22.9703 14.3027 22.8Z" fill="#08AA42"/>
<path d="M5.04004 22.8H5.47559C5.49236 22.8606 5.51315 22.92 5.53782 22.9778C5.56855 23.059 5.62331 23.1288 5.69478 23.1781C5.76625 23.2273 5.85103 23.2536 5.93782 23.2534H6.16893C6.22247 23.2525 6.27494 23.2382 6.32153 23.2118C6.36812 23.1854 6.40734 23.1477 6.43559 23.1023C6.46443 23.0696 6.48511 23.0306 6.49594 22.9884C6.50677 22.9462 6.50744 22.902 6.4979 22.8595C6.48835 22.817 6.46887 22.7774 6.44104 22.7439C6.41322 22.7103 6.37784 22.6839 6.33782 22.6667C6.21247 22.6217 6.08489 22.5831 5.95559 22.5511C5.79212 22.4983 5.63185 22.4359 5.47559 22.3645C5.37976 22.3079 5.30034 22.2273 5.24517 22.1307C5.19 22.034 5.16098 21.9247 5.16098 21.8134C5.16098 21.7021 5.19 21.5927 5.24517 21.4961C5.30034 21.3994 5.37976 21.3188 5.47559 21.2623C5.64686 21.1593 5.84493 21.1098 6.04448 21.12C6.1717 21.1257 6.29744 21.1496 6.41782 21.1911C6.55935 21.2292 6.68382 21.3141 6.77098 21.4319C6.85814 21.5497 6.90284 21.6936 6.89782 21.84H6.44448C6.44448 21.84 6.44448 21.84 6.44448 21.7778C6.42942 21.7123 6.39515 21.6528 6.34606 21.6069C6.29697 21.5609 6.23529 21.5307 6.16893 21.52C6.08477 21.5 5.99749 21.4967 5.91207 21.5104C5.82665 21.5242 5.74478 21.5546 5.67115 21.6C5.64362 21.6198 5.62119 21.6458 5.60572 21.6759C5.59025 21.7061 5.58218 21.7395 5.58218 21.7734C5.58218 21.8072 5.59025 21.8406 5.60572 21.8708C5.62119 21.9009 5.64362 21.9269 5.67115 21.9467C5.75634 21.9995 5.84934 22.0385 5.94671 22.0623L6.44448 22.2045C6.5879 22.243 6.71489 22.3272 6.80628 22.4442C6.89768 22.5613 6.94853 22.7049 6.95115 22.8534C6.96503 23.0135 6.92426 23.1736 6.83547 23.3076C6.74669 23.4416 6.61514 23.5415 6.46226 23.5911C6.21484 23.658 5.95413 23.658 5.70671 23.5911C5.58077 23.5641 5.46359 23.506 5.3658 23.4222C5.268 23.3384 5.19269 23.2315 5.14671 23.1111C5.10226 23.0311 5.08448 22.9245 5.04004 22.8Z" fill="#08AA42"/>
<path d="M9.42244 23.5644H8.96022L8.74688 23.0133H7.78688C7.67133 23.1733 7.66244 23.3867 7.55577 23.5644H7.11133L8.00022 21.1467H8.48911L9.42244 23.5644ZM7.91133 22.5956C8.13333 22.6491 8.36488 22.6491 8.58688 22.5956C8.4939 22.2922 8.38107 21.9952 8.24911 21.7067C8.10688 22 8.00022 22.2933 7.91133 22.5956Z" fill="#08AA42"/>
<path d="M20.0093 23.0133L19.8049 23.5644H19.3516L20.2405 21.1467H20.7293L21.6627 23.5644H21.2005L20.9782 23.0133H20.0093ZM20.8538 22.6133C20.7205 22.2933 20.6493 21.9911 20.4982 21.7244C20.3447 22.0001 20.2423 22.3012 20.196 22.6133H20.8538Z" fill="#08AA42"/>
<path d="M12.7644 21.1467H13.2533L14.1422 23.5644H13.6799L13.4666 23.0133C13.1466 23.0133 12.8355 23.0133 12.4977 23.0133L12.2844 23.5733H11.8311L12.7644 21.1467ZM13.0399 21.7156H12.9777C12.8622 22 12.7644 22.3022 12.6577 22.6044C12.8913 22.6267 13.1264 22.6267 13.3599 22.6044L13.0399 21.7156Z" fill="#08AA42"/>
<path d="M26.1071 21.1467V21.5022H25.4404C25.4404 21.6889 25.4404 21.8667 25.4404 22.0356V23.5644H25.0049V21.52C24.7649 21.52 24.5426 21.52 24.3115 21.52V21.1644L26.1071 21.1467Z" fill="#08AA42"/>
<path d="M26.5418 21.12H26.9418V23.5378H26.5418C26.4974 23.3956 26.5063 21.2711 26.5418 21.12Z" fill="#08AA42"/>
</g>
</g>
<defs>
<clipPath id="clip0_2810_58979">
<rect width="32" height="32" fill="white"/>
</clipPath>
</defs>
</svg>
