<svg width="32" height="32" viewBox="0 0 32 32" fill="none" xmlns="http://www.w3.org/2000/svg">
<g clip-path="url(#clip0_2707_272273)">
<path d="M16 32C24.8366 32 32 24.8366 32 16C32 7.16344 24.8366 0 16 0C7.16344 0 0 7.16344 0 16C0 24.8366 7.16344 32 16 32Z" fill="white"/>
<path d="M16 29.3333C23.3638 29.3333 29.3334 23.3638 29.3334 16C29.3334 8.63616 23.3638 2.66663 16 2.66663C8.63622 2.66663 2.66669 8.63616 2.66669 16C2.66669 23.3638 8.63622 29.3333 16 29.3333Z" fill="white"/>
<path d="M19.1555 12.3911L23.52 9.22668V17.2267C23.52 17.2267 23.7244 20.1245 19.9644 20.1245H8.72888L13.7955 16.3734H18.3022C18.3022 16.3734 19.1911 16.3734 19.1911 15.2267C19.1911 14.08 19.1555 12.3911 19.1555 12.3911Z" fill="url(#paint0_linear_2707_272273)"/>
<path d="M22.6311 19.3067C22.9176 19.0423 23.1449 18.7202 23.298 18.3618C23.4512 18.0033 23.5269 17.6165 23.52 17.2267V9.22668L19.1556 12.3911C19.1556 12.3911 19.2089 14.08 19.2089 15.2267C19.2258 15.4034 19.2009 15.5816 19.136 15.7469C19.0711 15.9122 18.9682 16.0598 18.8356 16.1778L22.6311 19.3067Z" fill="#010101"/>
<path d="M12.8978 16L8.5156 19.2V11.2C8.5156 11.2 8.31115 8.31116 12.1156 8.31116H23.3867L18.2934 12.0534H13.76C13.76 12.0534 12.8712 12.0534 12.8712 13.2C12.8712 14.3467 12.8978 16 12.8978 16Z" fill="url(#paint1_linear_2707_272273)"/>
<path d="M9.40444 9.12C9.11406 9.37939 8.884 9.69922 8.73044 10.057C8.57688 10.4148 8.50353 10.8019 8.51555 11.1911V19.1911L12.8978 16C12.8978 16 12.8444 14.3022 12.8444 13.1556C12.8303 12.9804 12.8566 12.8043 12.9214 12.641C12.9861 12.4776 13.0875 12.3313 13.2178 12.2133L9.40444 9.12Z" fill="#3B9936"/>
<path d="M4.95111 21.7244H5.46667C5.56992 21.7108 5.67452 21.7108 5.77778 21.7244C5.842 21.7356 5.90107 21.7667 5.94667 21.8133C5.98172 21.8555 6.00882 21.9037 6.02667 21.9555C6.02667 22.0444 6.02667 22.1333 6.02667 22.2222V22.3911C6.04566 22.479 6.04566 22.5699 6.02667 22.6578C6.01559 22.6874 5.99778 22.7141 5.97465 22.7357C5.95151 22.7573 5.92367 22.7732 5.89333 22.7822C5.8087 22.817 5.71816 22.8351 5.62667 22.8355H5.45778V23.6H4.96L4.95111 21.7244ZM5.45778 22.0533V22.5422C5.48919 22.5546 5.52414 22.5546 5.55556 22.5422C5.56843 22.4957 5.56843 22.4465 5.55556 22.4V22.2222C5.56911 22.1818 5.56911 22.1381 5.55556 22.0978C5.51208 22.0847 5.4657 22.0847 5.42222 22.0978L5.45778 22.0533Z" fill="black"/>
<path d="M7.20889 21.7245V22.1067H6.90667V23.6356H6.4V22.1067H6.09778V21.7245H7.20889Z" fill="black"/>
<path d="M7.42218 23.2444V23.6355H7.05774V23.2444H7.42218Z" fill="black"/>
<path d="M8.50667 21.7245V23.2534H8.81778V23.6356H8V21.7245H8.50667Z" fill="black"/>
<path d="M9.86669 21.7245L10.16 23.6356H9.64447V23.2889H9.45781V23.6356H8.88892L9.14669 21.7245H9.86669ZM9.60003 22.9512C9.60003 22.7378 9.55558 22.4712 9.52892 22.1512C9.47558 22.5156 9.44003 22.7823 9.43114 22.9512H9.60003Z" fill="black"/>
<path d="M11.3689 21.7245V23.6356H10.9244L10.6667 22.7467V23.6356H10.24V21.7245H10.6667L10.9511 22.6134V21.7245H11.3689Z" fill="black"/>
<path d="M12.7555 22.56H12.2488V22.2222C12.2568 22.1632 12.2568 22.1034 12.2488 22.0444C12.2384 22.0371 12.226 22.0332 12.2133 22.0332C12.2006 22.0332 12.1882 22.0371 12.1777 22.0444C12.1659 22.0364 12.152 22.0321 12.1377 22.0321C12.1235 22.0321 12.1095 22.0364 12.0977 22.0444C12.0893 22.1063 12.0893 22.1691 12.0977 22.2311V23.12C12.0898 23.1789 12.0898 23.2387 12.0977 23.2977C12.0998 23.3061 12.1035 23.3139 12.1087 23.3208C12.1139 23.3276 12.1205 23.3333 12.128 23.3375C12.1355 23.3417 12.1438 23.3442 12.1524 23.345C12.1609 23.3458 12.1696 23.3449 12.1777 23.3422C12.1928 23.3433 12.2078 23.3395 12.2205 23.3316C12.2333 23.3236 12.2432 23.3117 12.2488 23.2977C12.2576 23.2328 12.2576 23.1671 12.2488 23.1022V22.8622H12.7466V22.9333C12.7654 23.0719 12.7654 23.2124 12.7466 23.3511C12.711 23.4439 12.6453 23.5222 12.56 23.5733C12.4493 23.6367 12.3229 23.6675 12.1955 23.6622C12.0704 23.6644 11.9462 23.6402 11.8311 23.5911C11.742 23.5444 11.675 23.4646 11.6444 23.3688C11.6032 23.2336 11.5851 23.0923 11.5911 22.9511V22.4C11.5911 22.2933 11.5911 22.1955 11.5911 22.0888C11.598 22.0155 11.6293 21.9467 11.68 21.8933C11.7255 21.8217 11.7947 21.7682 11.8755 21.7422C11.9677 21.7016 12.0682 21.6833 12.1688 21.6888C12.2951 21.685 12.4203 21.7125 12.5333 21.7688C12.6195 21.8148 12.6859 21.8907 12.72 21.9822C12.7623 22.108 12.7804 22.2407 12.7733 22.3733L12.7555 22.56Z" fill="black"/>
<path d="M13.8044 21.7245L14.0977 23.6356H13.5822V23.2889H13.3333V23.6356H12.8088L13.0666 21.7245H13.8044ZM13.5377 22.9512C13.5377 22.7378 13.4844 22.4712 13.4666 22.1512C13.4133 22.5156 13.3777 22.7823 13.3688 22.9512H13.5377Z" fill="black"/>
<path d="M14.2222 21.7245H14.5777C14.7404 21.7108 14.9039 21.7108 15.0666 21.7245C15.1504 21.7441 15.2235 21.795 15.2711 21.8667C15.3326 21.9746 15.3605 22.0984 15.3511 22.2223C15.3596 22.3259 15.3412 22.43 15.2977 22.5245C15.2379 22.5818 15.1583 22.6136 15.0755 22.6134C15.1516 22.6256 15.2226 22.6595 15.2799 22.7112C15.3077 22.7455 15.3288 22.7847 15.3422 22.8267C15.3493 22.9184 15.3493 23.0106 15.3422 23.1023V23.6089H14.8711V22.9778C14.8798 22.9129 14.8798 22.8472 14.8711 22.7823C14.828 22.7667 14.7808 22.7667 14.7377 22.7823V23.6712H14.2222V21.7245ZM14.7288 22.0534V22.4801C14.7668 22.4891 14.8064 22.4891 14.8444 22.4801C14.8444 22.4801 14.8444 22.4178 14.8444 22.3289V22.2223C14.8444 22.1601 14.8444 22.1156 14.8444 22.0978C14.8071 22.0842 14.7662 22.0842 14.7288 22.0978V22.0534Z" fill="black"/>
<path d="M16.5156 21.7245V22.1067H16.2222V23.6356H15.7156V22.1067H15.4133V21.7245H16.5156Z" fill="black"/>
<path d="M17.4044 21.7245L17.6978 23.6356H17.1822V23.2889H17.0044V23.6356H16.48L16.7378 21.7245H17.4044ZM17.1378 22.9512C17.1378 22.7378 17.0933 22.4712 17.0666 22.1512C17.0133 22.5156 16.9778 22.7823 16.9689 22.9512H17.1378Z" fill="black"/>
<path d="M19.3423 21.7245V23.6356H18.8978V22.3467L18.7201 23.6356H18.4089L18.2223 22.3734V23.6356H17.7778V21.7245H18.4267C18.4267 21.84 18.4267 21.9734 18.4889 22.1334L18.5601 22.6134L18.6756 21.7245H19.3423Z" fill="black"/>
<path d="M20.4444 21.7245L20.7289 23.6356H20.2133V23.2889H20.0356V23.6356H19.5111L19.7689 21.7245H20.4444ZM20.1778 22.9512C20.1778 22.7378 20.1511 22.4712 20.0978 22.1512C20.0444 22.5156 20.0178 22.7823 20 22.9512H20.1778Z" fill="black"/>
<path d="M22.2933 22.3022H21.8222V22.16C21.8222 22.0978 21.8222 22.0533 21.8222 22.0356C21.8125 22.0308 21.8019 22.0284 21.7911 22.0284C21.7803 22.0284 21.7697 22.0308 21.76 22.0356C21.7503 22.0308 21.7396 22.0284 21.7289 22.0284C21.7181 22.0284 21.7074 22.0308 21.6977 22.0356C21.6887 22.0735 21.6887 22.1131 21.6977 22.1511C21.6892 22.1981 21.6892 22.2463 21.6977 22.2933C21.7336 22.3442 21.7828 22.3842 21.84 22.4089C21.9982 22.4924 22.1422 22.6004 22.2666 22.7289C22.332 22.8549 22.3627 22.996 22.3555 23.1378C22.3618 23.2413 22.3435 23.3449 22.3022 23.44C22.2616 23.5144 22.1952 23.5713 22.1155 23.6C22.0149 23.6455 21.906 23.6698 21.7955 23.6711C21.6753 23.6721 21.5565 23.6447 21.4489 23.5911C21.366 23.5537 21.2996 23.4873 21.2622 23.4044C21.245 23.2925 21.245 23.1786 21.2622 23.0667V22.9422H21.7333V23.1733C21.7213 23.22 21.7213 23.2689 21.7333 23.3156C21.7562 23.3245 21.7815 23.3245 21.8044 23.3156C21.8155 23.321 21.8276 23.3239 21.84 23.3239C21.8523 23.3239 21.8645 23.321 21.8755 23.3156C21.8837 23.2775 21.8837 23.2381 21.8755 23.2C21.8857 23.1219 21.8667 23.0428 21.8222 22.9778C21.7535 22.9084 21.6758 22.8486 21.5911 22.8C21.5026 22.7489 21.4192 22.6893 21.3422 22.6222C21.2948 22.5813 21.2582 22.5295 21.2355 22.4711C21.2177 22.3891 21.2177 22.3042 21.2355 22.2222C21.2296 22.1129 21.2478 22.0037 21.2889 21.9022C21.3332 21.831 21.3984 21.7751 21.4755 21.7422C21.5713 21.7032 21.6744 21.685 21.7777 21.6889C21.8937 21.6828 22.0094 21.7041 22.1155 21.7511C22.1553 21.7622 22.1924 21.7813 22.2245 21.8073C22.2566 21.8333 22.2831 21.8656 22.3022 21.9022C22.3226 22.0109 22.3226 22.1224 22.3022 22.2311L22.2933 22.3022Z" fill="black"/>
<path d="M22.4889 21.7245H23.3333V22.1067H22.9955V22.4712H23.3155V22.8356H22.9955V23.2534H23.3689V23.6356H22.48L22.4889 21.7245Z" fill="black"/>
<path d="M24.1333 21.7245V23.0045C24.1333 23.1912 24.1333 23.3156 24.1333 23.3689C24.1333 23.4239 24.1145 23.4773 24.0799 23.52C24.0453 23.5622 23.9989 23.5932 23.9466 23.6089C23.8639 23.6177 23.7805 23.6177 23.6977 23.6089H23.4399V23.2712H23.5111C23.537 23.28 23.5651 23.28 23.5911 23.2712C23.5958 23.2615 23.5982 23.2508 23.5982 23.24C23.5982 23.2293 23.5958 23.2186 23.5911 23.2089C23.5953 23.1587 23.5953 23.1081 23.5911 23.0578V21.7245H24.1333Z" fill="black"/>
<path d="M25.2001 21.7245L25.4845 23.6356H24.9689V23.2889H24.7912V23.6356H24.2667L24.5245 21.7245H25.2001ZM24.9334 22.9512C24.9334 22.7378 24.9067 22.4712 24.8534 22.1512C24.8001 22.5156 24.7734 22.7823 24.7556 22.9512H24.9334Z" fill="black"/>
<path d="M26.4533 21.7245V22.1067H26.1511V23.6356H25.6533V22.1067H25.3511V21.7245H26.4533Z" fill="black"/>
<path d="M27.0755 21.7245V23.6356H26.5688V21.7245H27.0755Z" fill="black"/>
</g>
<defs>
<linearGradient id="paint0_linear_2707_272273" x1="18.9778" y1="15.9556" x2="17.2178" y2="17.9734" gradientUnits="userSpaceOnUse">
<stop stop-color="white"/>
<stop offset="1" stop-color="#010101"/>
</linearGradient>
<linearGradient id="paint1_linear_2707_272273" x1="13.0934" y1="12.4712" x2="14.8623" y2="10.4534" gradientUnits="userSpaceOnUse">
<stop stop-color="white"/>
<stop offset="1" stop-color="#3B9936"/>
</linearGradient>
<clipPath id="clip0_2707_272273">
<rect width="32" height="32" fill="white"/>
</clipPath>
</defs>
</svg>
