<svg width="32" height="32" viewBox="0 0 32 32" fill="none" xmlns="http://www.w3.org/2000/svg">
<g clip-path="url(#clip0_2707_271728)">
<path d="M16 31.9823C24.8267 31.9823 31.9822 24.8268 31.9822 16C31.9822 7.17331 24.8267 0.0178223 16 0.0178223C7.17325 0.0178223 0.0177612 7.17331 0.0177612 16C0.0177612 24.8268 7.17325 31.9823 16 31.9823Z" fill="white"/>
<path d="M15.2356 5.33337H16.6845C16.6845 5.33337 16.7378 5.41337 16.7645 5.41337C17.553 5.514 18.301 5.82059 18.9333 6.30226C19.1556 6.48004 19.3689 6.66671 19.5733 6.84448C20.424 6.47486 21.3708 6.38764 22.2747 6.59561C23.1785 6.80359 23.992 7.29581 24.5956 8.00004C25.2808 8.78404 25.6584 9.78993 25.6584 10.8312C25.6584 11.8724 25.2808 12.8783 24.5956 13.6623C24.5956 16.1067 24.5956 18.4978 24.5956 20.8978C24.6028 21.2726 24.5222 21.644 24.3601 21.982C24.1981 22.3201 23.959 22.6155 23.6622 22.8445C23.1345 23.2786 22.5321 23.6129 21.8845 23.8312C20.4231 24.2906 18.9008 24.5274 17.3689 24.5334C16.0622 24.5956 14.7467 24.5956 13.44 24.64C12.2424 24.6752 11.0513 24.8301 9.88446 25.1023C9.17026 25.2185 8.50751 25.5468 7.98224 26.0445C7.82224 26.2134 7.69779 26.4089 7.52001 26.6312V13.6623C7.07204 13.151 6.74943 12.5423 6.57779 11.8845C6.54231 11.7942 6.49763 11.7078 6.44446 11.6267V10.0712C6.49779 9.92004 6.5689 9.77782 6.61335 9.6356C6.86652 8.7512 7.39706 7.97151 8.12681 7.4114C8.85655 6.85129 9.7469 6.54039 10.6667 6.52449C11.1575 6.52257 11.6449 6.60681 12.1067 6.77337L12.4711 6.89782C13.1787 6.13762 14.115 5.62893 15.1378 5.44893C15.1378 5.44893 15.2 5.38671 15.2356 5.33337ZM9.01335 23.6978C10.3965 23.283 11.8278 23.05 13.2711 23.0045C14.6222 22.9156 15.9822 22.9334 17.3333 22.8978C18.5673 22.885 19.7958 22.733 20.9956 22.4445C21.7219 22.2727 22.4114 21.9716 23.0311 21.5556V20.32C22.3316 20.7366 21.5691 21.0368 20.7733 21.2089C19.5684 21.4809 18.3375 21.621 17.1022 21.6267C15.1452 21.603 13.1887 21.7039 11.2445 21.9289C10.4861 22.0207 9.73877 22.1874 9.01335 22.4267V23.6978ZM18.5689 15.7778C18.5689 15.2445 18.5689 14.7467 18.5689 14.2489C18.5528 14.0404 18.5832 13.8309 18.6578 13.6356C18.9071 13.0548 19.2044 12.4958 19.5467 11.9645C20.2756 10.8623 21.2267 10.1867 22.6578 10.5245C22.9156 10.5956 23.0045 10.5245 23.1289 10.1334C23.0133 9.84893 22.7467 9.81337 22.4978 9.77782C22.0144 9.69007 21.5167 9.72551 21.0507 9.88086C20.5846 10.0362 20.1652 10.3065 19.8311 10.6667C19.2371 11.2632 18.7554 11.9617 18.4089 12.7289L18.2133 13.1734C17.8756 12.5245 17.5822 11.9378 17.3245 11.3956H16.1511C16.1872 11.4811 16.2288 11.5643 16.2756 11.6445C16.6222 12.2312 16.9511 12.8178 17.3067 13.4223C17.5448 13.7743 17.6488 14.2001 17.6 14.6223C17.6 14.8267 17.6 15.04 17.6 15.2534V15.8667L18.5689 15.7778ZM16.3467 15.7778C15.7867 14.2578 15.2533 12.7912 14.72 11.3334C14.1511 11.3334 14.0178 11.3778 13.8311 11.8489C13.5378 12.5334 13.2445 13.2178 12.9422 13.9023C12.64 14.5867 12.3911 15.12 12.1067 15.7512H12.7467C12.8992 15.2547 13.0956 14.7728 13.3333 14.3112H14.8267C14.9867 14.8208 15.1467 15.3186 15.3067 15.8045L16.3467 15.7778ZM20.1245 15.6089C20.5733 15.82 21.0708 15.906 21.5645 15.8578C21.9067 15.829 22.2351 15.7093 22.5156 15.5112C22.6842 15.3782 22.818 15.2061 22.9054 15.0099C22.9927 14.8137 23.0311 14.5992 23.0171 14.3849C23.0031 14.1705 22.9372 13.9628 22.825 13.7797C22.7129 13.5965 22.5579 13.4433 22.3733 13.3334C22.1778 13.2267 21.9733 13.1378 21.7689 13.04C21.6189 12.9692 21.4734 12.889 21.3333 12.8C21.2389 12.7339 21.1664 12.6409 21.1252 12.5332C21.084 12.4255 21.076 12.3079 21.1022 12.1956C21.1284 12.0758 21.1883 11.9661 21.275 11.8795C21.3616 11.7928 21.4714 11.7328 21.5911 11.7067C21.7582 11.6474 21.9412 11.6518 22.1052 11.719C22.2693 11.7862 22.4027 11.9116 22.48 12.0712L22.6578 12.3467C22.7439 12.2174 22.8005 12.0708 22.8236 11.9171C22.8466 11.7635 22.8355 11.6067 22.7911 11.4578C22.4809 11.3238 22.1439 11.2629 21.8064 11.2799C21.4689 11.2968 21.1397 11.3912 20.8445 11.5556C20.6426 11.6746 20.4797 11.8497 20.3756 12.0596C20.2714 12.2695 20.2305 12.5051 20.2578 12.7378C20.2758 12.9913 20.3705 13.2333 20.5293 13.4317C20.688 13.6302 20.9033 13.7757 21.1467 13.8489C21.3867 13.9734 21.6356 14.0712 21.8667 14.2134C21.9772 14.2965 22.0615 14.4097 22.1094 14.5394C22.1573 14.6692 22.1668 14.81 22.1368 14.945C22.1068 15.08 22.0385 15.2035 21.9402 15.3008C21.8418 15.398 21.7176 15.4649 21.5822 15.4934C21.3905 15.5404 21.1886 15.5222 21.0083 15.4417C20.8281 15.3612 20.6797 15.223 20.5867 15.0489L20.3556 14.6756L20.1245 15.6089ZM12.4445 11.3689H9.44001C9.31291 11.3812 9.18764 11.408 9.06668 11.4489C9.06668 11.5823 9.06668 11.7067 8.99557 11.8845L10.2667 11.7956V15.7956H11.2533C11.2533 14.4445 11.2089 13.1289 11.2533 11.7867L12.48 11.8845L12.4445 11.3689ZM10.3467 18.16C10.4492 18.093 10.5445 18.0156 10.6311 17.9289C10.7188 17.8466 10.7819 17.7414 10.8133 17.6253C10.8447 17.5091 10.8432 17.3865 10.8089 17.2712C10.7738 17.1532 10.7008 17.0501 10.6011 16.9778C10.5015 16.9055 10.3808 16.868 10.2578 16.8712C9.92914 16.8534 9.59977 16.8534 9.27113 16.8712C9.16878 16.8876 9.07152 16.9271 8.98668 16.9867V19.6534C9.38668 19.6534 9.76001 19.6534 10.1333 19.6534C10.3328 19.6526 10.5251 19.579 10.674 19.4464C10.823 19.3138 10.9184 19.1314 10.9422 18.9334C11.0045 18.5867 10.8445 18.3645 10.3733 18.16H10.3467ZM18.8533 16.8889V19.6534H19.4133V18.2489L20.3022 19.6356H21.0133L20.0711 18.2667L20.2489 18.2134C20.4124 18.1533 20.5493 18.0374 20.6355 17.8861C20.7217 17.7348 20.7517 17.5579 20.72 17.3867C20.6856 17.2225 20.5905 17.0773 20.4538 16.9801C20.317 16.8829 20.1486 16.8408 19.9822 16.8623L18.8533 16.8889ZM15.9111 16.8889L14.8622 18.0712H14.7733V16.8889H14.5156H14.2222C14.1149 17.7984 14.1149 18.7173 14.2222 19.6267H14.8V18.2667L15.7333 19.6356H16.48L15.2889 18.0089L16.3467 16.8889H15.9111ZM12.3556 16.8889L11.1289 19.6445H11.5556L11.8667 18.6667H12.8L13.12 19.6356H13.4311H13.7867L12.7822 16.8889H12.3556ZM22.8445 16.8889C22.5253 16.7757 22.1769 16.7757 21.8578 16.8889C21.6959 16.9204 21.5473 17 21.4315 17.1174C21.3157 17.2348 21.2381 17.3844 21.2089 17.5467C21.1671 17.7279 21.1928 17.9181 21.2812 18.0817C21.3695 18.2454 21.5145 18.3712 21.6889 18.4356C21.8712 18.5016 22.0494 18.5788 22.2222 18.6667C22.2877 18.7117 22.339 18.7745 22.3701 18.8476C22.4011 18.9208 22.4107 19.0013 22.3976 19.0796C22.3846 19.158 22.3494 19.2311 22.2963 19.2902C22.2432 19.3493 22.1743 19.392 22.0978 19.4134C21.9937 19.4578 21.8782 19.468 21.7679 19.4424C21.6576 19.4169 21.5584 19.3569 21.4845 19.2712C21.403 19.1729 21.3288 19.0689 21.2622 18.96C21.2 19.2 21.1645 19.36 21.12 19.5378C21.3929 19.6823 21.701 19.7469 22.0089 19.7245C22.2142 19.7098 22.41 19.6318 22.5692 19.5013C22.7284 19.3708 22.8432 19.1941 22.8978 18.9956C22.9778 18.48 22.8267 18.2312 22.2489 17.9556C22.1465 17.9042 22.0485 17.8448 21.9556 17.7778C21.8883 17.7506 21.8307 17.7039 21.7902 17.6437C21.7496 17.5835 21.728 17.5126 21.728 17.44C21.728 17.3675 21.7496 17.2966 21.7902 17.2364C21.8307 17.1762 21.8883 17.1295 21.9556 17.1023C22.05 17.0582 22.1482 17.0225 22.2489 16.9956L22.7733 17.44C22.8089 17.2623 22.8267 17.1023 22.8445 16.8889ZM18.2845 16.8889H16.8889C16.7379 17.7996 16.711 18.7266 16.8089 19.6445H18.2933C18.2933 19.52 18.2933 19.4223 18.2933 19.3334L17.4045 19.3956V18.3023H18.1778V18.0356H17.4045V17.1467H18.2933L18.2845 16.8889Z" fill="#E22227"/>
<path d="M13.4133 13.8667C13.6444 13.3333 13.8489 12.8356 14.0889 12.2489C14.2933 12.8356 14.4622 13.3333 14.64 13.8667H13.4133Z" fill="#E22227"/>
<path d="M9.63552 19.3689C9.63126 19.3157 9.63126 19.2622 9.63552 19.2089V18.32C9.73692 18.2691 9.85248 18.2537 9.96369 18.2762C10.0749 18.2988 10.1753 18.358 10.2488 18.4445C10.3207 18.5524 10.359 18.6792 10.359 18.8089C10.359 18.9386 10.3207 19.0654 10.2488 19.1734C10.1244 19.3867 10.0266 19.4134 9.63552 19.3689Z" fill="#E22227"/>
<path d="M9.6355 18.0267V17.1378C10.1333 17.1378 10.2577 17.2267 10.2577 17.5823C10.2577 17.9378 10.1155 18.0267 9.6355 18.0267Z" fill="#E22227"/>
<path d="M19.4222 17.0934L19.8934 17.1378C20.0026 17.2268 20.0762 17.3521 20.1006 17.4908C20.1251 17.6295 20.0989 17.7724 20.0267 17.8934C19.9378 18.0801 19.8134 18.1156 19.4222 18.1245V17.0934Z" fill="#E22227"/>
<path d="M12.72 18.4178H11.9822C12.1066 18.0978 12.2311 17.8045 12.3733 17.4312C12.5066 17.7778 12.6044 18.08 12.72 18.4178Z" fill="#E22227"/>
</g>
<defs>
<clipPath id="clip0_2707_271728">
<rect width="32" height="32" fill="white"/>
</clipPath>
</defs>
</svg>
