<svg width="32" height="32" viewBox="0 0 32 32" fill="none" xmlns="http://www.w3.org/2000/svg">
<g clip-path="url(#clip0_2707_271413)">
<path d="M16 31.9822C24.8267 31.9822 31.9822 24.8267 31.9822 16C31.9822 7.17325 24.8267 0.0177612 16 0.0177612C7.17325 0.0177612 0.0177612 7.17325 0.0177612 16C0.0177612 24.8267 7.17325 31.9822 16 31.9822Z" fill="white"/>
<path d="M27.5556 22.5777H20.6933C20.3713 22.4414 20.1137 22.1869 19.9733 21.8666C19.92 21.7422 19.8489 21.6177 19.7956 21.4933L18.0889 17.6711C17.84 17.1111 17.5822 16.5511 17.3156 15.9644L16 17.6355C15.7333 17.9822 15.5111 17.9911 15.2178 17.6355C15.0756 17.4666 14.9511 17.28 14.8089 17.1022L13.92 15.9555C13.0311 17.9022 12.1867 19.8044 11.3422 21.7066C11.2145 22.0728 10.9501 22.3754 10.6044 22.5511H6.43556C6.26231 22.4168 6.12074 22.2461 6.02088 22.051C5.92103 21.8559 5.86535 21.6412 5.85778 21.4222C5.85778 21.3422 5.85778 21.2533 5.85778 21.1733C5.85778 19.0992 5.83408 17.0252 5.78667 14.9511C5.78667 14.8533 5.78667 14.7466 5.78667 14.6222H5.21778H3.44V11.6889L10.7733 11.6444C10.8085 11.6367 10.8449 11.6367 10.88 11.6444V14.6844H8.55111V19.8933H9.77778C9.82222 19.8133 9.85778 19.7422 9.89334 19.6622L11.04 16.9511C11.6622 15.4844 12.2756 14.0266 12.8889 12.56C13.0025 12.2273 13.2208 11.9404 13.5111 11.7422C13.6409 11.6411 13.8034 11.5915 13.9675 11.603C14.1316 11.6145 14.2856 11.6862 14.4 11.8044C14.5809 11.9786 14.7419 12.1724 14.88 12.3822C15.12 12.7466 15.3511 13.12 15.5911 13.5111C15.8933 13.0933 16.1511 12.6844 16.48 12.3022C16.6489 12.0813 16.8496 11.8866 17.0756 11.7244C17.2091 11.6246 17.3759 11.58 17.5413 11.5999C17.7068 11.6198 17.8583 11.7025 17.9644 11.8311C18.146 12.0192 18.296 12.2353 18.4089 12.4711C19.2978 14.2489 20.0889 16.0266 20.9244 17.8044L21.9556 19.9733H26.4C26.6402 19.6955 26.7724 19.3405 26.7724 18.9733C26.7724 18.6061 26.6402 18.2511 26.4 17.9733H25.7067C24.96 17.9733 24.2222 17.9733 23.4844 17.9733C22.7467 17.9733 22.4267 17.6177 22.4267 16.9244C22.4267 15.68 22.3822 14.4444 22.3556 13.2C22.3464 12.8263 22.4553 12.4593 22.6667 12.1511C22.7636 11.9811 22.905 11.8408 23.0757 11.7453C23.2465 11.6497 23.44 11.6026 23.6356 11.6089C24.9689 11.6089 26.3022 11.6089 27.6178 11.6089H27.9111C28.0892 11.6038 28.2623 11.6674 28.3947 11.7866C28.5271 11.9057 28.6086 12.0713 28.6222 12.2489C28.6353 12.373 28.6353 12.4981 28.6222 12.6222C28.6222 13.3066 28.6222 13.9822 28.6222 14.6666C28.6301 14.7791 28.6301 14.892 28.6222 15.0044H26.8444V14.0622H24.8889C24.648 14.3745 24.5234 14.7608 24.5364 15.155C24.5494 15.5491 24.6991 15.9264 24.96 16.2222H27.4133C27.568 16.2053 27.7246 16.2234 27.8714 16.275C28.0182 16.3267 28.1515 16.4106 28.2615 16.5207C28.3716 16.6307 28.4555 16.764 28.5072 16.9108C28.5588 17.0576 28.5769 17.2142 28.56 17.3689C28.56 18.5777 28.56 19.7955 28.56 21.0044C28.5567 21.2411 28.5269 21.4766 28.4711 21.7066C28.4485 21.9147 28.3532 22.1082 28.202 22.2529C28.0508 22.3976 27.8533 22.4843 27.6444 22.4977C27.6444 22.4977 27.6 22.5511 27.5556 22.5777Z" fill="#018001"/>
</g>
<defs>
<clipPath id="clip0_2707_271413">
<rect width="32" height="32" fill="white"/>
</clipPath>
</defs>
</svg>
