<svg width="32" height="32" viewBox="0 0 32 32" fill="none" xmlns="http://www.w3.org/2000/svg">
<g clip-path="url(#clip0_2707_270663)">
<path d="M16 32C24.8366 32 32 24.8366 32 16C32 7.16344 24.8366 0 16 0C7.16344 0 0 7.16344 0 16C0 24.8366 7.16344 32 16 32Z" fill="white"/>
<path d="M16 29.3333C23.3638 29.3333 29.3334 23.3638 29.3334 16C29.3334 8.63619 23.3638 2.66666 16 2.66666C8.63622 2.66666 2.66669 8.63619 2.66669 16C2.66669 23.3638 8.63622 29.3333 16 29.3333Z" fill="white"/>
<path d="M3.95557 14.32H3.39557V13.8222H3.95557V12.9333H4.55112V13.8222H5.44001V14.32H4.55112V16.3733C4.55112 16.7111 4.71112 16.8622 5.01335 16.8622C5.17456 16.8568 5.33127 16.8076 5.46668 16.72V17.2711C5.29432 17.3515 5.10572 17.3911 4.91557 17.3867C4.78758 17.3973 4.6588 17.38 4.53812 17.3361C4.41743 17.2922 4.30769 17.2227 4.21645 17.1323C4.12521 17.0419 4.05465 16.9328 4.00961 16.8125C3.96458 16.6922 3.94614 16.5636 3.95557 16.4355V14.32Z" fill="black"/>
<path d="M6.39994 13.1467C6.30085 13.1422 6.20715 13.1002 6.13784 13.0292C6.06852 12.9583 6.02876 12.8636 6.02661 12.7644C6.02777 12.7142 6.0388 12.6648 6.05908 12.6188C6.07936 12.5729 6.1085 12.5314 6.14482 12.4967C6.18114 12.4621 6.22393 12.4349 6.27076 12.4168C6.31759 12.3986 6.36752 12.3899 6.41772 12.3911C6.51519 12.3934 6.60788 12.4338 6.67598 12.5035C6.74408 12.5733 6.78219 12.6669 6.78217 12.7644C6.78217 12.8658 6.7419 12.963 6.67022 13.0347C6.59854 13.1064 6.50132 13.1467 6.39994 13.1467ZM6.70217 17.3155H6.10661V13.8222H6.70217V17.3155Z" fill="black"/>
<path d="M9.91116 18.7556H9.28894V13.6267H9.91116V14.0622C10.0344 13.9034 10.192 13.7746 10.3721 13.6853C10.5522 13.596 10.7502 13.5486 10.9512 13.5467C11.1896 13.56 11.4229 13.6212 11.6372 13.7267C11.8515 13.8322 12.0423 13.9798 12.1983 14.1606C12.3542 14.3415 12.4722 14.5519 12.545 14.7794C12.6179 15.0068 12.6441 15.2466 12.6223 15.4844C12.6508 15.723 12.6292 15.9649 12.5588 16.1947C12.4884 16.4244 12.3707 16.6369 12.2134 16.8185C12.0561 17.0001 11.8625 17.1469 11.6451 17.2493C11.4278 17.3517 11.1914 17.4076 10.9512 17.4133C10.7494 17.4103 10.551 17.3615 10.3709 17.2707C10.1907 17.1798 10.0335 17.0493 9.91116 16.8889V18.7556ZM9.91116 16.2311C9.99704 16.4116 10.1315 16.5646 10.2995 16.673C10.4675 16.7813 10.6624 16.8407 10.8623 16.8444C11.5734 16.8444 11.9912 16.2667 11.9912 15.4756C11.9912 14.6844 11.5734 14.1156 10.8623 14.1156C10.6624 14.1193 10.4675 14.1787 10.2995 14.287C10.1315 14.3953 9.99704 14.5484 9.91116 14.7289V16.2311Z" fill="black"/>
<path d="M13.4756 11.9022H14.1067V14.0889C14.2368 13.9226 14.4026 13.7875 14.5918 13.6937C14.781 13.5999 14.9889 13.5496 15.2 13.5467C15.3788 13.5352 15.558 13.563 15.7249 13.6282C15.8918 13.6934 16.0424 13.7943 16.1661 13.924C16.2898 14.0536 16.3836 14.2088 16.4409 14.3785C16.4982 14.5483 16.5177 14.7286 16.4978 14.9067V17.3333H15.8667V15.0044C15.8843 14.8898 15.8759 14.7727 15.8421 14.6617C15.8083 14.5507 15.75 14.4488 15.6714 14.3635C15.5929 14.2781 15.4962 14.2115 15.3884 14.1686C15.2807 14.1257 15.1646 14.1075 15.0489 14.1156C14.8391 14.1182 14.6354 14.1866 14.4665 14.3109C14.2975 14.4352 14.1717 14.6094 14.1067 14.8089V17.3333H13.4756V11.9022Z" fill="black"/>
<path d="M21.3334 13.6267H21.9556V14.0889C22.0926 13.9147 22.2685 13.775 22.4691 13.6808C22.6698 13.5867 22.8896 13.5407 23.1112 13.5467C23.2907 13.5338 23.4709 13.5606 23.6389 13.6252C23.8069 13.6898 23.9586 13.7905 24.0833 13.9203C24.208 14.0501 24.3026 14.2058 24.3604 14.3762C24.4183 14.5467 24.4378 14.7278 24.4178 14.9067V17.3333H23.7778V15.0044C23.7954 14.8898 23.787 14.7726 23.7532 14.6617C23.7194 14.5507 23.6611 14.4488 23.5826 14.3634C23.504 14.2781 23.4073 14.2115 23.2995 14.1686C23.1918 14.1257 23.0758 14.1075 22.96 14.1155C22.7503 14.1182 22.5466 14.1865 22.3776 14.3109C22.2086 14.4352 22.0828 14.6094 22.0178 14.8089V17.3333H21.3334V13.6267Z" fill="black"/>
<path d="M28.3733 16.2222C28.3185 16.5716 28.1348 16.8877 27.8583 17.1082C27.5818 17.3288 27.2327 17.4376 26.8799 17.4133C26.6392 17.4046 26.4028 17.347 26.1851 17.2441C25.9673 17.1412 25.7727 16.9952 25.6131 16.8148C25.4535 16.6344 25.3322 16.4234 25.2566 16.1948C25.181 15.9661 25.1526 15.7244 25.1733 15.4844C25.1514 15.2452 25.1782 15.004 25.2522 14.7754C25.3261 14.5468 25.4456 14.3356 25.6035 14.1545C25.7613 13.9734 25.9542 13.8262 26.1706 13.7217C26.3869 13.6172 26.6222 13.5577 26.8622 13.5467C27.8844 13.5467 28.4266 14.2933 28.4266 15.3244V15.5556H25.7777C25.7777 16.3467 26.2222 16.8267 26.8533 16.8267C27.0528 16.834 27.249 16.774 27.4102 16.6563C27.5715 16.5386 27.6884 16.37 27.7422 16.1778L28.3733 16.2222ZM25.7777 15.1111H27.7511C27.7718 14.983 27.7643 14.852 27.729 14.7271C27.6938 14.6023 27.6316 14.4867 27.5469 14.3884C27.4622 14.2902 27.357 14.2116 27.2387 14.1583C27.1204 14.1051 26.9919 14.0783 26.8622 14.08C26.5823 14.0752 26.3117 14.1806 26.1088 14.3735C25.9059 14.5664 25.787 14.8313 25.7777 15.1111Z" fill="black"/>
<path d="M13.5911 19.0844H13.4044V18.9244H13.5911V18.6667H13.7778V18.9689H14.0533V19.1289H13.7778V19.7867C13.7778 19.8933 13.8311 19.9467 13.9289 19.9467C13.9823 19.9455 14.0344 19.9301 14.08 19.9022V20.08C14.0215 20.0933 13.9607 20.0933 13.9022 20.08C13.8608 20.0856 13.8186 20.0818 13.779 20.0687C13.7393 20.0556 13.7031 20.0337 13.6731 20.0046C13.6431 19.9755 13.6202 19.9399 13.606 19.9006C13.5917 19.8613 13.5867 19.8193 13.5911 19.7778V19.0844Z" fill="black"/>
<path d="M14.4356 18.6667C14.4197 18.6679 14.4037 18.6658 14.3886 18.6606C14.3736 18.6553 14.3598 18.647 14.3481 18.6361C14.3364 18.6253 14.3271 18.6121 14.3207 18.5975C14.3144 18.5829 14.3111 18.5671 14.3112 18.5511C14.3112 18.5348 14.3144 18.5186 14.3206 18.5035C14.3269 18.4884 14.3361 18.4747 14.3476 18.4631C14.3592 18.4516 14.3729 18.4424 14.388 18.4361C14.4031 18.4299 14.4193 18.4267 14.4356 18.4267C14.4686 18.4267 14.5003 18.4398 14.5236 18.4631C14.5469 18.4865 14.56 18.5181 14.56 18.5511C14.5601 18.5671 14.5568 18.5829 14.5505 18.5975C14.5441 18.6121 14.5348 18.6253 14.5231 18.6361C14.5114 18.647 14.4976 18.6553 14.4826 18.6606C14.4675 18.6658 14.4515 18.6679 14.4356 18.6667ZM14.5334 20.0089H14.3378V18.9244H14.5334V20.0089Z" fill="black"/>
<path d="M16 18.8978C16.2222 18.8978 16.3555 19.0578 16.3555 19.3067V20.0445H16.1778V19.3333C16.1778 19.1733 16.1066 19.0756 15.9644 19.0756C15.9071 19.0758 15.8515 19.0952 15.8064 19.1306C15.7614 19.1661 15.7294 19.2155 15.7155 19.2711V20.0445H15.5289V19.3333C15.5289 19.1733 15.4578 19.0756 15.3155 19.0756C15.2578 19.0742 15.2014 19.093 15.156 19.1287C15.1106 19.1644 15.079 19.2147 15.0667 19.2711V20.0445H14.8711V18.9245H15.1111V19.0578C15.1427 19.0066 15.1873 18.9648 15.2405 18.9367C15.2936 18.9086 15.3533 18.8951 15.4133 18.8978C15.4749 18.8979 15.5354 18.9144 15.5886 18.9456C15.6417 18.9769 15.6855 19.0217 15.7155 19.0756C15.7488 19.0286 15.7911 18.9887 15.84 18.9582C15.8888 18.9277 15.9432 18.9071 16 18.8978Z" fill="black"/>
<path d="M17.5822 19.7067C17.5649 19.8126 17.509 19.9084 17.4253 19.9756C17.3417 20.0429 17.2361 20.0769 17.1289 20.0711C16.9908 20.047 16.8657 19.9749 16.7755 19.8676C16.6853 19.7603 16.6359 19.6246 16.6359 19.4844C16.6359 19.3443 16.6853 19.2086 16.7755 19.1013C16.8657 18.994 16.9908 18.9219 17.1289 18.8978C17.44 18.8978 17.6089 19.1289 17.6089 19.4489V19.5555H16.8089C16.8089 19.7955 16.9422 19.9467 17.1378 19.9467C17.1998 19.9521 17.2615 19.9341 17.3108 19.8962C17.3602 19.8584 17.3936 19.8034 17.4045 19.7422L17.5822 19.7067ZM16.8089 19.3778H17.4045C17.4095 19.3375 17.4059 19.2967 17.3939 19.258C17.3819 19.2192 17.3618 19.1835 17.3348 19.1532C17.3079 19.1229 17.2748 19.0987 17.2378 19.0823C17.2007 19.0658 17.1606 19.0574 17.12 19.0578C16.9511 19.0578 16.8356 19.1822 16.8089 19.3778Z" fill="black"/>
<path d="M18.4622 19.0844H18.2844V18.9244H18.4622V18.6667H18.6666V18.9689H18.9333V19.1289H18.6666V19.7867C18.6666 19.8933 18.72 19.9467 18.8089 19.9467C18.8623 19.9455 18.9144 19.9301 18.96 19.9022V20.08C18.9015 20.0933 18.8407 20.0933 18.7822 20.08C18.7408 20.0856 18.6987 20.0818 18.659 20.0687C18.6193 20.0556 18.5831 20.0337 18.5531 20.0046C18.5231 19.9755 18.5002 19.9399 18.486 19.9006C18.4717 19.8613 18.4667 19.8193 18.4711 19.7778L18.4622 19.0844Z" fill="black"/>
<path d="M19.6355 20.0711C19.5152 20.0874 19.3929 20.0666 19.2848 20.0114C19.1767 19.9563 19.088 19.8694 19.0307 19.7624C18.9733 19.6555 18.95 19.5336 18.9639 19.413C18.9777 19.2924 19.028 19.179 19.1082 19.0878C19.1883 18.9967 19.2943 18.9322 19.4121 18.9029C19.5299 18.8737 19.6538 18.8812 19.7672 18.9243C19.8807 18.9674 19.9782 19.0442 20.0468 19.1443C20.1154 19.2444 20.1518 19.3631 20.1511 19.4845C20.1598 19.5576 20.153 19.6318 20.1312 19.7022C20.1093 19.7726 20.0729 19.8375 20.0243 19.8929C19.9756 19.9482 19.9159 19.9927 19.8489 20.0234C19.7819 20.0541 19.7092 20.0704 19.6355 20.0711ZM19.6355 19.0667C19.4311 19.0667 19.3155 19.2356 19.3155 19.4845C19.3155 19.7333 19.4311 19.9022 19.6355 19.9022C19.84 19.9022 19.9644 19.7333 19.9644 19.4845C19.9644 19.2356 19.84 19.0667 19.6355 19.0667Z" fill="black"/>
<path d="M21.4044 18.8978C21.5121 18.8899 21.6187 18.9231 21.7028 18.9908C21.7869 19.0584 21.8423 19.1554 21.8578 19.2622H21.6622C21.6514 19.2033 21.6189 19.1506 21.5712 19.1145C21.5235 19.0783 21.464 19.0612 21.4044 19.0667C21.2089 19.0667 21.0844 19.2355 21.0844 19.4844C21.0844 19.7333 21.2089 19.9022 21.4044 19.9022C21.464 19.9076 21.5235 19.8906 21.5712 19.8544C21.6189 19.8182 21.6514 19.7655 21.6622 19.7067H21.8578C21.8423 19.8135 21.7869 19.9105 21.7028 19.9781C21.6187 20.0457 21.5121 20.079 21.4044 20.0711C21.2663 20.047 21.1412 19.9749 21.051 19.8676C20.9608 19.7603 20.9114 19.6246 20.9114 19.4844C20.9114 19.3443 20.9608 19.2086 21.051 19.1013C21.1412 18.994 21.2663 18.9219 21.4044 18.8978Z" fill="black"/>
<path d="M22.5333 20.0711C22.4154 20.0837 22.2965 20.0603 22.1922 20.0039C22.0879 19.9475 22.0031 19.8609 21.949 19.7554C21.8949 19.6499 21.8741 19.5305 21.8892 19.413C21.9043 19.2954 21.9547 19.1851 22.0337 19.0968C22.1127 19.0084 22.2166 18.946 22.3318 18.9179C22.4469 18.8897 22.5679 18.8971 22.6788 18.9391C22.7897 18.9811 22.8852 19.0556 22.9528 19.153C23.0205 19.2503 23.0571 19.3659 23.0577 19.4845C23.0651 19.5581 23.0571 19.6325 23.0342 19.7029C23.0113 19.7732 22.974 19.8381 22.9247 19.8933C22.8754 19.9484 22.8151 19.9928 22.7477 20.0234C22.6803 20.054 22.6073 20.0703 22.5333 20.0711ZM22.5333 19.0667C22.3377 19.0667 22.2133 19.2356 22.2133 19.4845C22.2133 19.7333 22.3377 19.9022 22.5333 19.9022C22.7288 19.9022 22.8622 19.7333 22.8622 19.4845C22.8622 19.2356 22.7377 19.0667 22.5333 19.0667Z" fill="black"/>
<path d="M23.3156 18.9245H23.5023V19.0667C23.5413 19.014 23.5923 18.9712 23.651 18.9419C23.7097 18.9125 23.7744 18.8974 23.84 18.8978C23.8937 18.895 23.9473 18.9038 23.9972 18.9236C24.0471 18.9434 24.0922 18.9737 24.1293 19.0126C24.1665 19.0514 24.1948 19.0977 24.2124 19.1485C24.2299 19.1993 24.2363 19.2532 24.2311 19.3067V20.0445H24V19.3422C24 19.1822 23.9289 19.0756 23.7511 19.0756C23.689 19.0783 23.629 19.0991 23.5785 19.1354C23.5279 19.1717 23.4891 19.222 23.4667 19.28V20.0445H23.28L23.3156 18.9245Z" fill="black"/>
<path d="M24.5511 18.9245H24.7467V19.0667C24.7839 19.0141 24.8332 18.9714 24.8905 18.942C24.9477 18.9125 25.0112 18.8974 25.0756 18.8978C25.13 18.8936 25.1846 18.9014 25.2356 18.9206C25.2866 18.9398 25.3328 18.97 25.3709 19.009C25.4091 19.0479 25.4382 19.0948 25.4563 19.1462C25.4743 19.1976 25.4809 19.2524 25.4756 19.3067V20.0445H25.28V19.3422C25.2856 19.3075 25.2831 19.2719 25.2729 19.2383C25.2626 19.2046 25.2448 19.1738 25.2208 19.1481C25.1968 19.1223 25.1672 19.1024 25.1343 19.0899C25.1015 19.0773 25.0662 19.0724 25.0311 19.0756C24.9677 19.073 24.9053 19.0918 24.8537 19.1288C24.8022 19.1659 24.7645 19.2191 24.7467 19.28V20.0445H24.5511V18.9245Z" fill="black"/>
<path d="M26.6667 19.7067C26.6493 19.8126 26.5935 19.9084 26.5098 19.9756C26.4261 20.0429 26.3206 20.0769 26.2134 20.0711C26.0753 20.047 25.9502 19.9749 25.86 19.8676C25.7698 19.7603 25.7203 19.6246 25.7203 19.4844C25.7203 19.3443 25.7698 19.2086 25.86 19.1013C25.9502 18.994 26.0753 18.9219 26.2134 18.8978C26.5245 18.8978 26.6934 19.1289 26.6934 19.4489V19.5555H25.8934C25.8872 19.6032 25.8909 19.6516 25.9044 19.6977C25.918 19.7438 25.9409 19.7866 25.9718 19.8234C26.0027 19.8602 26.041 19.8901 26.0841 19.9114C26.1272 19.9326 26.1743 19.9446 26.2223 19.9467C26.2853 19.9523 26.3482 19.9346 26.399 19.8969C26.4498 19.8592 26.485 19.8042 26.4978 19.7422L26.6667 19.7067ZM25.8934 19.3778H26.4889C26.4939 19.3383 26.4906 19.2982 26.4791 19.2601C26.4676 19.222 26.4482 19.1867 26.4223 19.1565C26.3963 19.1264 26.3643 19.102 26.3283 19.085C26.2923 19.068 26.2532 19.0587 26.2134 19.0578C26.1324 19.0643 26.0567 19.1007 26.0008 19.1598C25.945 19.2188 25.9131 19.2965 25.9112 19.3778H25.8934Z" fill="black"/>
<path d="M27.3867 18.8978C27.4944 18.8899 27.601 18.9231 27.6851 18.9908C27.7692 19.0584 27.8246 19.1554 27.8401 19.2622H27.6445C27.6337 19.2033 27.6012 19.1506 27.5535 19.1145C27.5058 19.0783 27.4463 19.0612 27.3867 19.0667C27.2001 19.0667 27.0667 19.2355 27.0667 19.4844C27.0667 19.7333 27.1912 19.9022 27.3867 19.9022C27.4463 19.9076 27.5058 19.8906 27.5535 19.8544C27.6012 19.8182 27.6337 19.7655 27.6445 19.7067H27.8401C27.8246 19.8135 27.7692 19.9105 27.6851 19.9781C27.601 20.0457 27.4944 20.079 27.3867 20.0711C27.2486 20.047 27.1235 19.9749 27.0333 19.8676C26.9431 19.7603 26.8937 19.6246 26.8937 19.4844C26.8937 19.3443 26.9431 19.2086 27.0333 19.1013C27.1235 18.994 27.2486 18.9219 27.3867 18.8978Z" fill="black"/>
<path d="M28.1511 19.0844H27.9645V18.9244H28.1511V18.6667H28.3378V18.9689H28.6134V19.1289H28.3378V19.7867C28.3378 19.8933 28.3911 19.9467 28.4889 19.9467C28.5423 19.9455 28.5945 19.9301 28.64 19.9022V20.08C28.5814 20.0917 28.5209 20.0917 28.4623 20.08C28.4209 20.0856 28.3787 20.0818 28.339 20.0687C28.2993 20.0556 28.2631 20.0337 28.2331 20.0046C28.2032 19.9755 28.1802 19.9399 28.166 19.9006C28.1518 19.8613 28.1467 19.8193 28.1511 19.7778V19.0844Z" fill="black"/>
<path d="M7.9556 15.9289C8.24524 15.9289 8.48004 15.6941 8.48004 15.4044C8.48004 15.1148 8.24524 14.88 7.9556 14.88C7.66595 14.88 7.43115 15.1148 7.43115 15.4044C7.43115 15.6941 7.66595 15.9289 7.9556 15.9289Z" fill="black"/>
<path d="M17.3245 14.0178C17.3245 14.0178 17.76 15.0311 19.9911 13.6978C20.0178 13.6889 17.7156 13.52 17.3245 14.0178Z" fill="#1F1F1F"/>
<path d="M17.6355 14.1067C17.6355 14.1067 17.2178 15.1378 18.3111 14.7467L17.4222 15.4311C17.4222 15.4311 16.9511 15.5378 17.3244 14.6755" fill="#1F1F1F"/>
<path d="M18.5066 15.2533C18.5066 15.2533 18.8088 15.4489 19.7955 15.1022C20.7821 14.7556 20.791 14.4978 20.791 14.4978L19.6888 14.6222L18.5066 15.2533Z" fill="#1F1F1F"/>
<path d="M17.8311 15.8044C17.8311 15.8044 17.5377 16.0889 18.5066 15.9022C19.3306 15.7318 20.1393 15.4939 20.9244 15.1911L19.9466 16.2489L18.3111 16.8267L18.1066 16.6755C18.1066 16.6755 17.1733 16.8533 17.2177 16.4267C17.2622 16 17.8311 15.8044 17.8311 15.8044Z" fill="#1F1F1F"/>
<path d="M18.3377 17.5911C18.3377 17.5911 18.08 17.5911 19.0222 17.3689C19.9644 17.1466 19.9111 17.28 19.9111 17.28L20.8 16.7555V16.5422C20.8 16.5422 20.6666 16.4266 20.2666 16.5422C19.8666 16.6578 19.3777 16.7555 19.3777 16.7555L18.1333 17.2889L18.3377 17.5911Z" fill="#1F1F1F"/>
<path d="M16.7378 15.8133C16.8701 15.459 17.0731 15.1352 17.3344 14.8617C17.5957 14.5881 17.9098 14.3706 18.2578 14.2222C18.876 13.8796 19.605 13.7965 20.2845 13.9911L19.68 13.5822H18.2222L17.0845 14.4178L16.7378 15.8133Z" fill="#F55D00"/>
<path d="M16.7378 16.1155C17.0327 15.5183 17.5216 15.0388 18.1245 14.7555C18.7938 14.3122 19.5794 14.0771 20.3822 14.08L20.8 14.6933C20.1907 14.83 19.5955 15.0234 19.0222 15.2711C18.4445 15.5644 17.1645 16.16 17.1911 17.0489L16.7378 16.1155Z" fill="#F55D00"/>
<path d="M17.5734 17.5911C17.5734 17.5911 17.3156 16.9511 18.32 16.4356C19.167 15.9411 20.0601 15.5303 20.9867 15.2089V16C20.6108 16.3179 20.1841 16.5703 19.7245 16.7467C18.6578 17.2622 17.6622 18.0267 17.5911 17.9911C17.52 17.9556 17.5734 17.5911 17.5734 17.5911Z" fill="#F55D00"/>
<path d="M18.5956 17.68C19.003 17.5518 19.3962 17.382 19.7689 17.1733C20.3911 16.8267 20.96 16.4267 20.96 16.4267L20.6934 17.3156L19.8667 17.6444L18.7734 17.8933L18.5956 17.68Z" fill="#F55D00"/>
</g>
<defs>
<clipPath id="clip0_2707_270663">
<rect width="32" height="32" fill="white"/>
</clipPath>
</defs>
</svg>
