<svg width="32" height="32" viewBox="0 0 32 32" fill="none" xmlns="http://www.w3.org/2000/svg">
<g clip-path="url(#clip0_2707_270593)">
<path d="M16 31.9822C24.8267 31.9822 31.9822 24.8268 31.9822 16C31.9822 7.17328 24.8267 0.0177917 16 0.0177917C7.17325 0.0177917 0.0177612 7.17328 0.0177612 16C0.0177612 24.8268 7.17325 31.9822 16 31.9822Z" fill="white"/>
<path d="M25.6978 15.3778H25.1645C25.1263 15.2833 25.0722 15.1961 25.0045 15.12C24.9186 15.0784 24.8243 15.0571 24.7289 15.0578C24.3467 15.0578 23.9645 15.0578 23.5822 15.0578C23.5381 15.0525 23.4934 15.0569 23.4512 15.0709C23.409 15.0848 23.3704 15.1079 23.3382 15.1384C23.3059 15.169 23.2808 15.2063 23.2646 15.2477C23.2484 15.289 23.2415 15.3335 23.2445 15.3778C23.2468 15.4588 23.2806 15.5356 23.3387 15.5921C23.3968 15.6485 23.4746 15.6801 23.5556 15.68H24.7733C25.0001 15.6796 25.2185 15.7659 25.3838 15.9212C25.549 16.0766 25.6486 16.2892 25.6622 16.5156C25.6878 16.637 25.6876 16.7625 25.6618 16.8839C25.6359 17.0053 25.5849 17.1199 25.512 17.2204C25.4392 17.3208 25.3461 17.405 25.2388 17.4673C25.1315 17.5296 25.0123 17.5688 24.8889 17.5822H23.4933C23.2654 17.5708 23.0505 17.4722 22.8933 17.3067C22.7361 17.1412 22.6486 16.9216 22.6489 16.6934V16.6311H23.2089V16.7556C23.2285 16.8112 23.2645 16.8596 23.3121 16.8945C23.3596 16.9294 23.4166 16.9491 23.4756 16.9511H24.7822C24.8608 16.9488 24.9354 16.916 24.9902 16.8595C25.045 16.8031 25.0756 16.7275 25.0756 16.6489C25.0758 16.5567 25.0411 16.4678 24.9784 16.4002C24.9157 16.3326 24.8298 16.2912 24.7378 16.2845C24.3289 16.2845 23.92 16.2845 23.5111 16.2845C23.3882 16.2849 23.2665 16.2597 23.1537 16.2107C23.0409 16.1616 22.9396 16.0897 22.856 15.9995C22.7725 15.9093 22.7086 15.8027 22.6683 15.6865C22.6281 15.5703 22.6124 15.447 22.6222 15.3245C22.6222 15.0887 22.7159 14.8626 22.8826 14.6959C23.0493 14.5292 23.2754 14.4356 23.5111 14.4356H23.5556C23.9645 14.4356 24.3645 14.4356 24.7645 14.4356C25.0002 14.4356 25.2263 14.5292 25.393 14.6959C25.5597 14.8626 25.6533 15.0887 25.6533 15.3245L25.6978 15.3778Z" fill="#222052"/>
<path d="M9.52887 14.4267V14.9867H7.29776C7.03998 14.9867 6.9422 15.0845 6.9422 15.3333V15.7067H8.96887V16.2756H6.95109C6.9422 16.4473 6.9422 16.6194 6.95109 16.7911C6.95109 16.9245 7.09331 17.0045 7.25331 17.0045H9.51998V17.5645H9.44887C8.7022 17.5645 7.96442 17.5645 7.21776 17.5645C7.11152 17.568 7.00562 17.5506 6.90612 17.5132C6.80661 17.4758 6.71545 17.4192 6.63785 17.3465C6.56025 17.2739 6.49773 17.1867 6.45387 17.0898C6.41 16.993 6.38565 16.8885 6.3822 16.7822C6.3822 16.24 6.3822 15.6889 6.3822 15.1467C6.40026 14.9604 6.48309 14.7863 6.61627 14.6547C6.74945 14.5231 6.92455 14.4424 7.11109 14.4267C7.93776 14.4178 8.71998 14.4267 9.52887 14.4267Z" fill="#222052"/>
<path d="M15.4844 15.6978V16.2756H13.4577V16.7556C13.4577 16.9067 13.6088 16.9956 13.7777 16.9956H16.0444V17.5645H13.7422C13.5064 17.5645 13.2803 17.4708 13.1136 17.3041C12.9469 17.1374 12.8533 16.9113 12.8533 16.6756V15.2534C12.8639 15.0343 12.955 14.8269 13.1093 14.671C13.2635 14.5152 13.4699 14.4218 13.6888 14.4089H15.9999V14.9778H13.7777C13.511 14.9778 13.4133 15.0756 13.4133 15.3334V15.6889L15.4844 15.6978Z" fill="#222052"/>
<path d="M19.751 14.4178V14.9867H17.5821C17.2533 14.9867 17.1733 15.0667 17.1733 15.3956V15.6978H19.1999V16.2756H17.1733V17.5645H16.6044V15.2533C16.6171 15.0359 16.7092 14.8307 16.8632 14.6766C17.0172 14.5226 17.2225 14.4305 17.4399 14.4178H19.751Z" fill="#222052"/>
<path d="M2.77332 14.4267H5.91109V14.9778H4.63998V17.5644H4.07109V14.9956H2.77332V14.4267Z" fill="#222052"/>
<path d="M26.0889 14.4267H29.2266V14.9778H27.9378V17.5644H27.3689V14.9867H26.0889V14.4267Z" fill="#222052"/>
<path d="M9.98217 14.4267H10.5511V16.5244C10.544 16.588 10.5513 16.6524 10.5725 16.7128C10.5937 16.7731 10.6282 16.828 10.6734 16.8732C10.7187 16.9184 10.7735 16.9529 10.8339 16.9741C10.8942 16.9953 10.9586 17.0026 11.0222 16.9956H12.5777V17.5556H10.9066C10.6763 17.539 10.4597 17.4401 10.2964 17.2768C10.1332 17.1136 10.0342 16.897 10.0177 16.6667C9.97328 15.9289 9.98217 15.1822 9.98217 14.4267Z" fill="#222052"/>
<path d="M19.4489 17.5911L20.9511 15.3156L22.4444 17.5911H21.8844C21.8844 17.5911 21.8222 17.5467 21.7955 17.5111C21.5377 17.1111 21.2711 16.72 21.0044 16.3111L20.9511 16.2311L20.5422 16.8356C20.3911 17.0667 20.2489 17.2978 20.0889 17.52C20.0793 17.5387 20.0655 17.5549 20.0485 17.5673C20.0315 17.5797 20.0118 17.5878 19.9911 17.5911H19.4489Z" fill="#EC2539"/>
<path d="M20.951 14.4445C21.0001 14.4445 21.0486 14.4541 21.0939 14.4729C21.1392 14.4916 21.1804 14.5191 21.215 14.5538C21.2497 14.5885 21.2772 14.6296 21.296 14.6749C21.3147 14.7202 21.3244 14.7688 21.3244 14.8178C21.3244 14.9192 21.2841 15.0164 21.2124 15.0881C21.1408 15.1597 21.0435 15.2 20.9422 15.2C20.8408 15.2 20.7436 15.1597 20.6719 15.0881C20.6002 15.0164 20.5599 14.9192 20.5599 14.8178C20.5599 14.7672 20.5701 14.7172 20.59 14.6707C20.6098 14.6242 20.6389 14.5822 20.6755 14.5473C20.7121 14.5124 20.7553 14.4853 20.8027 14.4676C20.8501 14.4499 20.9005 14.442 20.951 14.4445Z" fill="#EC2539"/>
</g>
<defs>
<clipPath id="clip0_2707_270593">
<rect width="32" height="32" fill="white"/>
</clipPath>
</defs>
</svg>
