<svg width="32" height="32" viewBox="0 0 32 32" fill="none" xmlns="http://www.w3.org/2000/svg">
<g clip-path="url(#clip0_2707_270418)">
<path d="M16 31.9822C24.8267 31.9822 31.9822 24.8267 31.9822 16C31.9822 7.17326 24.8267 0.0177765 16 0.0177765C7.17325 0.0177765 0.0177612 7.17326 0.0177612 16C0.0177612 24.8267 7.17325 31.9822 16 31.9822Z" fill="white"/>
<path d="M8.76442 25.7778H8.39997L8.25775 25.4045H7.59108L7.45775 25.7778H7.11108L7.75108 24.1245H8.10664L8.76442 25.7778ZM8.15108 25.12L7.91997 24.5067L7.69775 25.12H8.15108Z" fill="#07A65C"/>
<path d="M8.95105 25.7778V24.1333H9.28883V25.5022H10.1244V25.7778H8.95105Z" fill="#07A65C"/>
<path d="M10.471 25.7778L10.071 24.1245H10.4177L10.6666 25.2622L10.9688 24.1245H11.3688L11.6533 25.28L11.911 24.1245H12.2488L11.8488 25.7778H11.4933L11.1555 24.5422L10.8266 25.7778H10.471Z" fill="#07A65C"/>
<path d="M13.7866 25.7778H13.4222L13.28 25.4045H12.6133L12.4444 25.7778H12.0889L12.7378 24.1245H13.0844L13.7866 25.7778ZM13.1733 25.12L12.9422 24.5067L12.72 25.12H13.1733Z" fill="#07A65C"/>
<path d="M14.2222 25.7778V25.0845L13.6178 24.1245H14.0089L14.4 24.7733L14.7822 24.1245H15.1111L14.4978 25.0845V25.7778H14.2222Z" fill="#07A65C"/>
<path d="M15.2178 25.2444H15.5378C15.5533 25.3354 15.5968 25.4193 15.6622 25.4844C15.7297 25.5396 15.8151 25.5681 15.9022 25.5644C15.9908 25.5697 16.0786 25.5446 16.1511 25.4933C16.1757 25.4745 16.1957 25.4503 16.2095 25.4225C16.2234 25.3948 16.2308 25.3643 16.2311 25.3333C16.2435 25.3019 16.2435 25.267 16.2311 25.2356C16.1969 25.2009 16.1539 25.1763 16.1067 25.1644C16.0207 25.1309 15.9313 25.107 15.84 25.0933C15.7041 25.0669 15.5763 25.009 15.4667 24.9244C15.4179 24.8849 15.3789 24.8347 15.3527 24.7776C15.3265 24.7206 15.3138 24.6583 15.3156 24.5956C15.3116 24.5098 15.3367 24.4253 15.3867 24.3556C15.4351 24.279 15.5067 24.2198 15.5911 24.1867C15.6958 24.1453 15.8074 24.1242 15.92 24.1244C16.0888 24.1158 16.2553 24.1661 16.3911 24.2667C16.4423 24.3124 16.4831 24.3687 16.5107 24.4315C16.5383 24.4944 16.5521 24.5625 16.5511 24.6311H16.2222C16.2123 24.5594 16.1778 24.4934 16.1244 24.4444C16.0613 24.4034 15.9862 24.3846 15.9111 24.3911C15.8334 24.3864 15.756 24.4049 15.6889 24.4444C15.6718 24.4563 15.6579 24.4723 15.6486 24.491C15.6393 24.5096 15.6348 24.5303 15.6356 24.5511C15.6345 24.5698 15.638 24.5884 15.6457 24.6055C15.6535 24.6225 15.6652 24.6374 15.68 24.6489C15.7764 24.7049 15.8816 24.7439 15.9911 24.7644C16.116 24.7911 16.2381 24.8298 16.3556 24.88C16.4269 24.922 16.4877 24.9798 16.5333 25.0489C16.5817 25.1293 16.6063 25.2217 16.6044 25.3156C16.6052 25.4105 16.5774 25.5034 16.5244 25.5822C16.4663 25.6647 16.3862 25.7294 16.2933 25.7689C16.1797 25.8115 16.0591 25.8326 15.9378 25.8311C15.7619 25.8415 15.5882 25.7878 15.4489 25.68C15.3835 25.6263 15.3294 25.5601 15.2897 25.4854C15.25 25.4106 15.2256 25.3287 15.2178 25.2444Z" fill="#07A65C"/>
<path d="M18.9067 25.7778H18.5423L18.3911 25.4045H17.7778L17.6356 25.7778H17.28L17.9289 24.1245H18.2845L18.9067 25.7778ZM18.2845 25.12L18.0534 24.5067L17.8311 25.12H18.2845Z" fill="#07A65C"/>
<path d="M19.0845 25.7778V24.1245H19.4134V24.7733H20.0711V24.1245H20.4445V25.7778H20.1067V25.0578H19.4489V25.7778H19.0845Z" fill="#07A65C"/>
<path d="M20.7555 25.7778V24.1245H21.9822V24.4H21.0933V24.7733H21.9199V25.0489H21.0933V25.5022H21.9822V25.7778H20.7555Z" fill="#07A65C"/>
<path d="M23.7955 25.7778H23.4311L23.2889 25.4045H22.6222L22.4889 25.7778H22.1333L22.7822 24.1245H23.1111L23.7955 25.7778ZM23.1822 25.12L22.9511 24.5067L22.7289 25.12H23.1822Z" fill="#07A65C"/>
<path d="M24 24.1244H24.6133C24.7197 24.1124 24.827 24.1124 24.9333 24.1244C25.0283 24.1516 25.1143 24.2038 25.1822 24.2756C25.2541 24.3553 25.3086 24.4492 25.3422 24.5511C25.3812 24.6777 25.3992 24.8098 25.3956 24.9422C25.3981 25.06 25.38 25.1773 25.3422 25.2889C25.3088 25.4002 25.2476 25.5011 25.1644 25.5822C25.1012 25.6805 25.0025 25.7505 24.8889 25.7778C24.7888 25.7936 24.6868 25.7936 24.5867 25.7778H24V24.1244ZM24.3378 24.4V25.5022H24.5867H24.7911C24.8419 25.4929 24.8884 25.4681 24.9244 25.4311C24.9686 25.3873 24.9994 25.3318 25.0133 25.2711C25.0306 25.1711 25.0306 25.0689 25.0133 24.9689C25.0296 24.8718 25.0296 24.7727 25.0133 24.6756C24.9956 24.6144 24.9619 24.5592 24.9156 24.5156C24.8773 24.4706 24.8232 24.4419 24.7644 24.4356H24.4889L24.3378 24.4Z" fill="#07A65C"/>
<path d="M19.44 18.5422H18.9867C19.3086 18.4606 19.5902 18.2655 19.7797 17.9927C19.9691 17.7199 20.0537 17.3879 20.0178 17.0578C20.0178 15.0844 20.0178 13.1111 20.0178 11.1378V10.7911H22.4445H23.3334C23.4134 10.9244 23.5111 11.0578 23.5823 11.1911L26.2489 16.3733C26.2529 16.4177 26.2529 16.4623 26.2489 16.5067C25.4311 16.1067 24.7378 15.52 23.9111 15.2089C23.4222 15.9822 22.9778 16.7467 22.4622 17.4667C22.2229 17.7803 21.9188 18.0388 21.5706 18.2244C21.2224 18.41 20.8383 18.5184 20.4445 18.5422H19.44Z" fill="#07A65C"/>
<path d="M20.0267 10.4089C20.0267 10.6489 20.0267 10.7733 20.0267 10.7733V11.12C20.0267 13.0933 20.0267 15.0667 20.0267 17.04C20.0626 17.3702 19.978 17.7022 19.7886 17.9749C19.5991 18.2477 19.3175 18.4428 18.9956 18.5245C18.6818 18.5422 18.3672 18.5422 18.0534 18.5245C18.0534 18.5245 17.9823 18.2667 17.9823 18.1333C17.9823 18 18.08 18.0089 18.1334 18C18.3467 18 18.5689 18 18.7823 17.9467C18.8745 17.9458 18.9657 17.9259 19.0498 17.888C19.134 17.8501 19.2094 17.7952 19.2712 17.7267C19.333 17.6582 19.38 17.5775 19.409 17.49C19.4381 17.4024 19.4487 17.3097 19.44 17.2178V11.5022C19.44 10.7733 19.44 10.0533 19.44 9.33334C19.44 8.99556 19.44 8.65778 19.44 8.32001C19.4003 8.1612 19.3106 8.01936 19.1842 7.91535C19.0578 7.81133 18.9013 7.75065 18.7378 7.74223H10.2934C10.1653 7.71846 10.0332 7.72988 9.91107 7.77527C9.78897 7.82067 9.68148 7.89834 9.60004 8.00001C9.51095 8.1254 9.45862 8.27316 9.44893 8.42667C9.44893 9.59112 9.44893 10.7467 9.44893 11.9022C9.44893 12 9.44893 12.1778 9.36893 12.1867C9.21343 12.2178 9.05331 12.2178 8.89782 12.1867C8.89782 12.1867 8.84448 12.08 8.84448 12.0178C8.84448 10.7556 8.84448 9.50223 8.84448 8.24001C8.8818 7.92581 9.03417 7.63658 9.27219 7.42811C9.51021 7.21964 9.817 7.10671 10.1334 7.11112H18.8889C19.1908 7.15345 19.4688 7.29858 19.676 7.52205C19.8833 7.74551 20.0072 8.03362 20.0267 8.33778C20.0267 9.02223 20.0356 9.77778 20.0267 10.4089Z" fill="#ECDEC0"/>
<path d="M13.9822 15.5556H13.4133V14.3467C13.4312 14.1367 13.4312 13.9255 13.4133 13.7156C13.3604 13.5581 13.2565 13.4228 13.118 13.331C12.9796 13.2393 12.8145 13.1963 12.6489 13.2089H7.00442C6.90982 13.2043 6.81536 13.2204 6.72767 13.2562C6.63997 13.2919 6.56117 13.3464 6.49679 13.4159C6.43241 13.4854 6.38402 13.5681 6.35501 13.6582C6.326 13.7484 6.31707 13.8438 6.32886 13.9378C6.32886 15.8311 6.32886 17.7156 6.32886 19.6089C6.32886 20.0267 6.65775 20.3022 7.15553 20.3022H10.5777C10.9244 20.3022 10.9244 20.3022 10.9244 20.6578C10.9244 20.8622 10.8444 20.9156 10.6489 20.9156H7.03108C6.85406 20.9144 6.67902 20.8782 6.51604 20.8091C6.35305 20.7401 6.20534 20.6394 6.08141 20.513C5.95748 20.3866 5.85978 20.2369 5.79394 20.0726C5.72809 19.9083 5.6954 19.7326 5.69775 19.5556C5.69775 17.6622 5.69775 15.7778 5.69775 13.8844C5.72039 13.5468 5.86414 13.2288 6.10257 12.9887C6.34101 12.7486 6.65809 12.6027 6.99553 12.5778C8.88886 12.5778 10.7911 12.5778 12.6844 12.5778C13.0306 12.6046 13.3557 12.7549 13.6004 13.0012C13.8451 13.2476 13.9932 13.5736 14.0177 13.92C14.0177 14.4178 14.0177 14.9244 14.0177 15.4311L13.9822 15.5556Z" fill="#ECDEC0"/>
<path d="M14.4444 16.2044C15.12 16.2044 15.7955 16.2044 16.4711 16.2044C16.7281 16.2044 16.9745 16.3065 17.1562 16.4882C17.3379 16.6699 17.44 16.9164 17.44 17.1733C17.44 18.4978 17.44 19.84 17.44 21.1378V21.2C17.4484 21.329 17.4307 21.4583 17.3879 21.5803C17.3451 21.7023 17.2781 21.8144 17.191 21.9098C17.1038 22.0053 16.9983 22.0822 16.8807 22.1358C16.7631 22.1895 16.6359 22.2189 16.5066 22.2222H16.4533C15.1289 22.2222 13.7866 22.2222 12.48 22.2222C12.2207 22.2222 11.972 22.1192 11.7886 21.9358C11.6052 21.7525 11.5022 21.5038 11.5022 21.2444C11.5022 19.9111 11.5022 18.5778 11.5022 17.2444C11.4757 17.1098 11.4807 16.9709 11.5169 16.8385C11.5531 16.7062 11.6194 16.584 11.7106 16.4816C11.8019 16.3791 11.9156 16.2992 12.0429 16.248C12.1702 16.1968 12.3077 16.1758 12.4444 16.1867C13.1111 16.2222 13.7778 16.2044 14.4444 16.2044ZM14.4444 21.6267H16.3911C16.8178 21.6267 16.9511 21.5022 16.9511 21.0756V17.2533C16.9615 17.1797 16.9546 17.1047 16.931 17.0342C16.9074 16.9637 16.8678 16.8996 16.8152 16.847C16.7626 16.7944 16.6985 16.7548 16.628 16.7312C16.5575 16.7076 16.4825 16.7007 16.4089 16.7111H12.4444C12.1333 16.7111 11.9733 16.8444 11.9733 17.1733V21.2533C11.9756 21.354 12.0166 21.4499 12.0878 21.5211C12.159 21.5923 12.2549 21.6333 12.3555 21.6356H14.4266L14.4444 21.6267Z" fill="#ECDEC0"/>
<path d="M18.9511 12.16L16.6755 10.8089V10.7556H18.9333L18.9511 12.16Z" fill="#1FA269"/>
</g>
<defs>
<clipPath id="clip0_2707_270418">
<rect width="32" height="32" fill="white"/>
</clipPath>
</defs>
</svg>
