<svg width="32" height="32" viewBox="0 0 32 32" fill="none" xmlns="http://www.w3.org/2000/svg">
<g clip-path="url(#clip0_2707_268653)">
<path d="M16 31.9822C24.8267 31.9822 31.9822 24.8267 31.9822 16C31.9822 7.17325 24.8267 0.0177612 16 0.0177612C7.17325 0.0177612 0.0177612 7.17325 0.0177612 16C0.0177612 24.8267 7.17325 31.9822 16 31.9822Z" fill="white"/>
<path d="M12.8178 12.9867C13.3838 12.9926 13.9383 13.1478 14.4253 13.4365C14.9122 13.7252 15.3143 14.1373 15.5911 14.6311C15.9262 15.2252 16.0352 15.9205 15.898 16.5886C15.7608 17.2568 15.3866 17.8528 14.8444 18.2667C14.1828 18.7876 13.3552 19.0521 12.514 19.0112C11.6728 18.9704 10.8748 18.6271 10.2667 18.0445C9.93886 17.7154 9.69495 17.3125 9.55547 16.8695C9.41599 16.4265 9.38502 15.9565 9.46519 15.499C9.54535 15.0416 9.73429 14.6101 10.0161 14.2409C10.2979 13.8717 10.6643 13.5757 11.0844 13.3778C11.6211 13.1064 12.2166 12.972 12.8178 12.9867ZM14.4089 16.0711C14.425 15.4753 14.2507 14.8899 13.9111 14.4C13.7936 14.209 13.6325 14.0484 13.4411 13.9315C13.2497 13.8146 13.0333 13.7446 12.8097 13.7273C12.5861 13.71 12.3615 13.7458 12.1544 13.8318C11.9472 13.9178 11.7633 14.0516 11.6178 14.2222C11.2028 14.7217 10.9757 15.3506 10.9757 16C10.9757 16.6494 11.2028 17.2783 11.6178 17.7778C11.7496 17.9363 11.9146 18.0639 12.1013 18.1515C12.288 18.239 12.4916 18.2844 12.6978 18.2844C12.9039 18.2844 13.1076 18.239 13.2942 18.1515C13.4809 18.0639 13.646 17.9363 13.7778 17.7778C14.19 17.3054 14.4146 16.6981 14.4089 16.0711Z" fill="#155BA3"/>
<path d="M22.7822 16C22.7837 15.5207 22.9048 15.0494 23.1346 14.6287C23.3643 14.2081 23.6954 13.8514 24.0978 13.5911C24.7411 13.1548 25.5124 12.9474 26.2878 13.0022C27.0632 13.057 27.7977 13.3709 28.3733 13.8933C28.667 14.1591 28.9017 14.4835 29.0623 14.8456C29.223 15.2077 29.306 15.5994 29.306 15.9955C29.306 16.3916 29.223 16.7834 29.0623 17.1454C28.9017 17.5075 28.667 17.8319 28.3733 18.0977C28.0189 18.429 27.5982 18.6813 27.1391 18.838C26.68 18.9947 26.1928 19.0523 25.7098 19.0069C25.2268 18.9616 24.7589 18.8143 24.337 18.5748C23.9151 18.3354 23.5488 18.0092 23.2622 17.6177C22.9313 17.1447 22.7629 16.577 22.7822 16ZM27.76 16.1777C27.7986 15.5447 27.6199 14.9175 27.2533 14.4C27.1371 14.2073 26.9766 14.0452 26.7851 13.9271C26.5936 13.809 26.3767 13.7383 26.1524 13.721C25.9281 13.7036 25.7029 13.74 25.4955 13.8272C25.2881 13.9143 25.1045 14.0498 24.96 14.2222C24.5573 14.73 24.3427 15.3615 24.3524 16.0095C24.3621 16.6575 24.5956 17.2822 25.0133 17.7777C25.1433 17.9209 25.3018 18.0353 25.4786 18.1136C25.6554 18.1919 25.8466 18.2323 26.04 18.2323C26.2333 18.2323 26.4246 18.1919 26.6014 18.1136C26.7782 18.0353 26.9367 17.9209 27.0666 17.7777C27.4915 17.3475 27.739 16.7732 27.76 16.1689V16.1777Z" fill="#155BA3"/>
<path d="M7.91997 18.7111H4.18664V18.0533H4.83553C5.18219 18.0533 5.30664 17.9289 5.30664 17.5822V13.9378C4.41775 13.7155 3.84886 14.1689 3.67997 15.2089H3.01331V13.3333H9.04886V15.36H8.46219C8.26664 14.2578 7.70664 13.7955 6.7733 13.9822C6.7733 14.0355 6.7733 14.0978 6.7733 14.1422V17.6978C6.7733 18.0355 6.88886 18.1511 7.23553 18.16H7.89331L7.91997 18.7111Z" fill="#155BA3"/>
<path d="M17.4667 18.7111V18.0533H18.1422C18.48 18.0533 18.5955 17.9289 18.5955 17.5911V13.9555C17.7778 13.68 17.1289 14.1955 16.9778 15.2178H16.3111V13.3333H22.3378V15.3511H21.7511C21.7574 15.1069 21.7011 14.8651 21.5875 14.6489C21.4739 14.4326 21.3068 14.249 21.1022 14.1155C20.7795 13.9488 20.41 13.8956 20.0533 13.9644V14.16C20.0533 15.3333 20.0533 16.5155 20.0533 17.7155C20.06 17.839 20.1133 17.9553 20.2024 18.0411C20.2914 18.1269 20.4097 18.1757 20.5333 18.1778H21.2178V18.6666L17.4667 18.7111Z" fill="#155BA3"/>
</g>
<defs>
<clipPath id="clip0_2707_268653">
<rect width="32" height="32" fill="white"/>
</clipPath>
</defs>
</svg>
