<svg width="32" height="32" viewBox="0 0 32 32" fill="none" xmlns="http://www.w3.org/2000/svg">
<g clip-path="url(#clip0_2707_268493)">
<path d="M16 31.9822C24.8267 31.9822 31.9822 24.8267 31.9822 16C31.9822 7.17325 24.8267 0.0177612 16 0.0177612C7.17325 0.0177612 0.0177612 7.17325 0.0177612 16C0.0177612 24.8267 7.17325 31.9822 16 31.9822Z" fill="white"/>
<path d="M3.96441 19.2089L4.57774 14.0889C4.76022 15.326 5.20907 16.5088 5.8933 17.5555C5.14169 17.9655 4.48455 18.5288 3.96441 19.2089ZM4.63108 13.6H4.5333L3.64441 19.44H3.90219C4.44157 18.653 5.17276 18.0167 6.02663 17.5911C5.22628 16.4006 4.73729 15.0283 4.60441 13.6" fill="#186FB3"/>
<path d="M3.9022 14.5867C3.91281 14.5925 3.92532 14.594 3.93699 14.5906C3.94866 14.5873 3.95853 14.5795 3.96442 14.5689C3.97032 14.5583 3.97175 14.5458 3.96842 14.5341C3.96509 14.5224 3.95725 14.5125 3.94665 14.5067C3.75206 14.4054 3.59718 14.2416 3.5069 14.0417C3.41662 13.8418 3.39618 13.6174 3.44887 13.4044C3.48101 13.1925 3.58867 12.9993 3.75202 12.8604C3.91537 12.7216 4.12339 12.6465 4.33776 12.6489C4.66171 12.6592 4.97029 12.7895 5.20354 13.0145C5.4368 13.2396 5.57809 13.5433 5.59998 13.8667C5.59998 14.4 5.59998 14.6489 4.9422 15.2089V15.3067C5.61776 14.7022 5.67998 14.4178 5.6622 13.8667C5.64096 13.5255 5.49528 13.2041 5.2528 12.9633C5.01032 12.7224 4.68789 12.5789 4.34665 12.56C4.10776 12.5577 3.8756 12.6391 3.69049 12.7901C3.50538 12.9411 3.379 13.1522 3.33331 13.3867C3.27473 13.6185 3.29645 13.8634 3.39492 14.0813C3.4934 14.2992 3.66281 14.4774 3.87553 14.5867" fill="#186FB3"/>
<path d="M8.07107 16.1689L7.99996 15.84L7.8844 16.16L8.07107 16.1689ZM7.92885 15.68V15.6356C7.92885 15.6356 7.92885 15.6356 7.92885 15.68C7.92885 15.7244 8.15107 16.2133 8.22218 16.3911C8.29329 16.5689 8.30218 16.5156 8.32885 16.5244H8.39107H8.23107L8.1244 16.2578H7.8044L7.73329 16.4444C7.72652 16.4707 7.72652 16.4982 7.73329 16.5244H7.51996H7.5644C7.62663 16.5244 7.6444 16.48 7.67107 16.4178L7.92885 15.68Z" fill="#231F20"/>
<path d="M8.72001 16.0978H8.85334C8.88476 16.1102 8.9197 16.1102 8.95112 16.0978C8.97547 16.0753 8.9945 16.0477 9.0068 16.0169C9.01911 15.9862 9.02438 15.9531 9.02223 15.92C9.02619 15.8902 9.02354 15.86 9.01448 15.8314C9.00542 15.8027 8.99016 15.7765 8.9698 15.7544C8.94943 15.7323 8.92446 15.715 8.89665 15.7037C8.86884 15.6924 8.83888 15.6873 8.8089 15.6889H8.72001V16.0978ZM8.61334 16V15.7422C8.61334 15.6978 8.61334 15.68 8.56001 15.68H8.82668C8.90729 15.6746 8.98771 15.6931 9.05779 15.7333C9.08191 15.7526 9.10155 15.7769 9.11537 15.8046C9.12918 15.8322 9.13683 15.8625 9.13779 15.8933C9.1358 15.9469 9.12203 15.9994 9.09744 16.047C9.07286 16.0946 9.03807 16.1363 8.99556 16.1689C9.07326 16.2739 9.15633 16.3747 9.24445 16.4711C9.31556 16.5422 9.35112 16.5511 9.38668 16.5511H9.44001H9.33334C9.28972 16.5632 9.24363 16.5632 9.20001 16.5511C9.13289 16.5068 9.07543 16.4494 9.03112 16.3822L8.8889 16.1778H8.72001C8.7141 16.2636 8.7141 16.3497 8.72001 16.4356V16.4978H8.78223H8.51556H8.56001C8.56001 16.4978 8.56001 16.4978 8.56001 16.4356C8.56592 16.3497 8.56592 16.2636 8.56001 16.1778L8.61334 16Z" fill="#231F20"/>
<path d="M9.88442 16.1689L9.77776 15.84L9.6622 16.16L9.88442 16.1689ZM9.77776 15.68V15.6356C9.77776 15.6356 9.77776 15.6356 9.77776 15.68L10.0711 16.3911C10.1155 16.4978 10.1511 16.5156 10.1778 16.5244H10.24H10.0444H9.99998L9.89331 16.2578H9.59998L9.53776 16.4444C9.53098 16.4707 9.53098 16.4982 9.53776 16.5244H9.33331C9.39554 16.5244 9.41331 16.48 9.43998 16.4178L9.77776 15.68Z" fill="#231F20"/>
<path d="M10.48 16.3911C10.48 16.4889 10.48 16.5156 10.5245 16.5244H10.5956H10.3467H10.4C10.4 16.5244 10.4 16.48 10.4 16.3733V15.6978C10.4 15.6533 10.4 15.6356 10.4 15.6356C10.4 15.6356 10.4 15.6356 10.4533 15.6356L10.8356 16.0444C10.96 16.1689 11.0845 16.3111 11.1289 16.3467V15.7511C11.1289 15.68 11.1289 15.6533 11.1289 15.6444H11.0578H11.2889H11.2445C11.2 15.6444 11.2 15.6444 11.2 15.7422V16.4356C11.2 16.5156 11.2 16.5244 11.2 16.5244C11.2 16.5244 11.2 16.5244 11.1022 16.4533L10.7822 16.1333L10.4622 15.7956L10.48 16.3911Z" fill="#231F20"/>
<path d="M11.9111 16.1689L11.7867 15.8489L11.6711 16.1689H11.92H11.9111ZM11.7778 15.68V15.6356C11.7778 15.6356 11.7778 15.6356 11.7778 15.68C11.7778 15.7244 12 16.2133 12.0711 16.3911C12.1422 16.5689 12.1511 16.5156 12.1778 16.5244H12.24H12.0444L11.9289 16.2578H11.6444L11.5733 16.4444C11.571 16.4711 11.571 16.4978 11.5733 16.5244H11.3422H11.3956C11.4489 16.5244 11.4756 16.48 11.4933 16.4178L11.7778 15.68Z" fill="#231F20"/>
<path d="M14.32 16.32C14.32 16.3911 14.32 16.4889 14.4177 16.5067C14.456 16.513 14.495 16.513 14.5333 16.5067H14.2222H14.1777C14.1777 16.5067 14.1777 16.5067 14.1777 16.4444L14.0888 15.5556L13.6533 16.4444C13.6533 16.5244 13.6533 16.5422 13.5911 16.5422C13.5288 16.5422 13.5911 16.5422 13.5377 16.4622L13.3333 16.0533C13.3333 16.0533 13.12 15.6 13.1022 15.5556L13.0311 16.3733V16.4622C13.0309 16.4749 13.0353 16.4873 13.0434 16.4971C13.0516 16.5069 13.063 16.5134 13.0755 16.5156H13.1555H12.8355H12.9066C12.9688 16.5156 12.9688 16.4356 12.9777 16.3644L13.1022 15.2178L13.6444 16.3289L14.1688 15.2178C14.1688 15.2178 14.1688 15.2178 14.1688 15.2711L14.32 16.32Z" fill="#231F20"/>
<path d="M14.7644 16V15.7422C14.7644 15.7422 14.7644 15.68 14.7111 15.68H15.1911C15.189 15.7007 15.189 15.7215 15.1911 15.7422C15.1954 15.7657 15.1954 15.7898 15.1911 15.8133C15.1945 15.7987 15.1945 15.7835 15.1911 15.7689C15.1911 15.7689 15.1911 15.7689 15.1022 15.7689H14.9244V16.1067H15.1111V16C15.109 16.0207 15.109 16.0415 15.1111 16.0622C15.1075 16.0888 15.1075 16.1157 15.1111 16.1422C15.1111 16.1422 15.1111 16.1422 15.0489 16.1422H14.8622V16.24C14.8577 16.3081 14.8577 16.3764 14.8622 16.4444C14.8622 16.5244 14.8622 16.5422 15.0044 16.5422C15.0455 16.5508 15.0878 16.5508 15.1289 16.5422C15.1289 16.5422 15.1733 16.5422 15.1822 16.4622C15.1822 16.4622 15.1911 16.3822 15.1822 16.4622C15.1852 16.5007 15.1852 16.5393 15.1822 16.5778C15.1822 16.5778 15.1822 16.5778 15.12 16.5778H14.6755H14.7289C14.7289 16.5778 14.7289 16.5778 14.7289 16.5155C14.7348 16.4297 14.7348 16.3436 14.7289 16.2578L14.7644 16Z" fill="#231F20"/>
<path d="M15.5822 16.3911C15.5822 16.4889 15.5822 16.5156 15.5822 16.5244H15.6533H15.4044H15.4666C15.4666 16.5244 15.4666 16.48 15.4666 16.3733V15.6978C15.4666 15.6533 15.4666 15.6356 15.4666 15.6356C15.4666 15.6356 15.4666 15.6356 15.52 15.6356L15.9022 16.0444L16.1955 16.3467V15.7511C16.1955 15.68 16.1955 15.6533 16.1511 15.6444H16.08H16.3111H16.3555C16.3555 15.6444 16.3555 15.6444 16.3555 15.7422V16.4356C16.3555 16.5156 16.3555 16.5244 16.3555 16.5244C16.3555 16.5244 16.3555 16.5244 16.2578 16.4533L15.9378 16.1333L15.6266 15.7956L15.5822 16.3911Z" fill="#231F20"/>
<path d="M17.0133 16.1689L16.8889 15.84L16.7733 16.16H17.0222L17.0133 16.1689ZM16.8889 15.68V15.6356C16.8889 15.6356 16.8889 15.6356 16.8889 15.68C16.8889 15.7244 17.1111 16.2133 17.1911 16.3911C17.2711 16.5689 17.2622 16.5156 17.2889 16.5244H17.3511H17.1644L17.0577 16.2578H16.7555L16.6844 16.4444C16.6821 16.4711 16.6821 16.4978 16.6844 16.5244C16.6844 16.5244 16.6844 16.5244 16.7289 16.5244H16.4977H16.5511C16.6044 16.5244 16.6311 16.48 16.6489 16.4178L16.8889 15.68Z" fill="#231F20"/>
<path d="M17.6711 16.0978H17.8133C17.8274 16.1036 17.8425 16.1067 17.8577 16.1067C17.873 16.1067 17.8881 16.1036 17.9022 16.0978C17.9283 16.0767 17.9485 16.0493 17.961 16.0182C17.9734 15.987 17.9777 15.9532 17.9733 15.92C17.9733 15.7689 17.8933 15.6889 17.7688 15.6889H17.6711V16.0978ZM17.5644 16C17.5731 15.9143 17.5731 15.8279 17.5644 15.7422C17.5644 15.6978 17.5644 15.68 17.52 15.68H17.7777C17.8555 15.6752 17.9328 15.6938 18 15.7333C18.0273 15.7501 18.0498 15.7737 18.0654 15.8017C18.0809 15.8297 18.089 15.8613 18.0888 15.8933C18.0871 15.9479 18.0726 16.0013 18.0463 16.0492C18.0201 16.0971 17.9828 16.1381 17.9377 16.1689C18.0181 16.2742 18.1041 16.3751 18.1955 16.4711C18.2577 16.5422 18.3022 16.5511 18.3288 16.5511H18.3822H18.3022C18.2616 16.5635 18.2183 16.5635 18.1777 16.5511C18.1106 16.5068 18.0532 16.4493 18.0088 16.3822L17.8755 16.2044H17.6977V16.4889C17.6977 16.4889 17.6977 16.5511 17.7511 16.5511H17.52H17.5644C17.5644 16.5511 17.5644 16.5511 17.5644 16.4889C17.5703 16.4031 17.5703 16.3169 17.5644 16.2311V16Z" fill="#231F20"/>
<path d="M18.8266 16.1689L18.7022 15.8489L18.5866 16.1689H18.8355H18.8266ZM18.6666 15.68V15.6356C18.6666 15.6356 18.6666 15.6356 18.6666 15.68C18.6666 15.7244 18.8888 16.2133 18.96 16.3911C19.0311 16.5689 19.04 16.5156 19.0666 16.5244H19.1288H18.9333L18.8177 16.2578H18.5333L18.4622 16.4444C18.4598 16.4711 18.4598 16.4978 18.4622 16.5244C18.4622 16.5244 18.4622 16.5244 18.5066 16.5244H18.2755H18.3288C18.3822 16.5244 18.4088 16.48 18.4266 16.4178L18.6666 15.68Z" fill="#231F20"/>
<path d="M19.9733 16.3111C19.9733 16.4533 19.9733 16.5067 20.0444 16.5155H20.1333H19.7689H19.8577C19.9022 16.5155 19.9111 16.4533 19.9111 16.2933V15.28C19.9111 15.2089 19.9111 15.1911 19.9111 15.1911C19.9111 15.1911 19.9555 15.2355 19.9733 15.2533L20.5333 15.8578L20.96 16.3111V15.4222C20.96 15.3067 20.96 15.2622 20.8889 15.2533H20.8H21.2H21.1555C21.0933 15.2533 21.0933 15.3067 21.0933 15.4133V16.4444C21.0933 16.56 21.0933 16.5689 21.0933 16.5689C21.0933 16.5689 21.0933 16.5689 20.9689 16.4622C20.8444 16.3555 20.5955 16.1778 20.4444 16L19.9822 15.4933L19.9733 16.3111Z" fill="#231F20"/>
<path d="M21.44 16C21.4487 15.9143 21.4487 15.8279 21.44 15.7422C21.44 15.7422 21.44 15.68 21.3955 15.68H21.3333H21.5733C21.5733 15.68 21.5733 15.68 21.5733 15.7422C21.5646 15.8279 21.5646 15.9143 21.5733 16V16.16C21.5733 16.3378 21.6178 16.4089 21.6711 16.4533C21.6944 16.4761 21.7223 16.4935 21.7531 16.5042C21.7838 16.515 21.8165 16.5188 21.8489 16.5155C21.8839 16.5161 21.9186 16.5092 21.9507 16.4955C21.9829 16.4817 22.0118 16.4613 22.0355 16.4355C22.0942 16.3497 22.1195 16.2454 22.1066 16.1422V15.7422C22.1066 15.7422 22.1066 15.68 22.0533 15.68H22.0089H22.2222C22.2222 15.68 22.2222 15.68 22.2222 15.7422V16.1244C22.2293 16.1885 22.2227 16.2534 22.2028 16.3147C22.1829 16.376 22.1501 16.4324 22.1066 16.48C22.0355 16.5419 21.9431 16.5737 21.8489 16.5689C21.758 16.5698 21.6697 16.5383 21.6 16.48C21.5591 16.4401 21.5281 16.3912 21.5096 16.3372C21.491 16.2831 21.4855 16.2255 21.4933 16.1689L21.44 16Z" fill="#231F20"/>
<path d="M22.4178 16.5333C22.4178 16.5333 22.4178 16.5333 22.4178 16.4889V16.3644V16.4089C22.4178 16.4978 22.5333 16.5244 22.6133 16.5244C22.6933 16.5244 22.8 16.4622 22.8 16.3733C22.8 16.2844 22.7556 16.2489 22.64 16.16H22.5867C22.4533 16.0622 22.4089 15.9822 22.4089 15.9022C22.4089 15.8222 22.5244 15.68 22.6844 15.68H22.8089V15.8044C22.8142 15.784 22.8142 15.7626 22.8089 15.7422C22.8089 15.7422 22.7644 15.68 22.6578 15.68C22.5511 15.68 22.4889 15.7244 22.4889 15.8133C22.4889 15.9022 22.4889 15.9289 22.6489 16.0089C22.8 16.1155 22.8533 16.1955 22.8533 16.2933C22.8541 16.3346 22.8438 16.3754 22.8235 16.4113C22.8031 16.4473 22.7735 16.4771 22.7378 16.4978C22.6791 16.5243 22.6155 16.538 22.5511 16.538C22.4867 16.538 22.4231 16.5243 22.3644 16.4978" fill="#231F20"/>
<path d="M23.5733 16.1689L23.4578 15.8489L23.3422 16.1689H23.5733ZM23.4311 15.68V15.6356C23.4311 15.6356 23.4311 15.6356 23.4311 15.68C23.4311 15.7244 23.6533 16.2133 23.7244 16.3911C23.7956 16.5689 23.8044 16.5156 23.8311 16.5244H24H23.7333H23.6889L23.5822 16.2578H23.2978L23.2267 16.4444C23.2199 16.4707 23.2199 16.4982 23.2267 16.5244H23.0222H23.0667C23.1289 16.5244 23.1467 16.48 23.1733 16.4178L23.4311 15.68Z" fill="#231F20"/>
<path d="M24.1689 16.3911C24.1689 16.4889 24.1689 16.5156 24.1689 16.5244H24.24H24H24.0533C24.0533 16.5244 24.0533 16.48 24.0533 16.3733V15.6978C24.0533 15.6533 24.0533 15.6356 24.0533 15.6356C24.0533 15.6356 24.0533 15.6356 24.1067 15.6356L24.4889 16.0444L24.7822 16.3467V15.7511C24.7822 15.68 24.7822 15.6533 24.7378 15.6444H24.6667H24.8978H24.8533C24.8533 15.6444 24.8533 15.6444 24.8533 15.7422V16.4356C24.8533 16.5156 24.8533 16.5244 24.8533 16.5244C24.8533 16.5244 24.8533 16.5244 24.7556 16.4533L24.4356 16.1333L24.1156 15.7956L24.1689 16.3911Z" fill="#231F20"/>
<path d="M25.5467 16.2044C25.5407 16.2903 25.5407 16.3764 25.5467 16.4622C25.5467 16.4622 25.5467 16.5155 25.5911 16.5244H25.6533H25.3778H25.4311C25.4311 16.5244 25.4311 16.5244 25.4311 16.4622V15.7067H25.2533C25.1822 15.7067 25.1467 15.7067 25.1289 15.7067C25.1111 15.7067 25.1289 15.7067 25.1289 15.7067C25.1289 15.7067 25.1289 15.5911 25.1289 15.5822H25.1822H25.8667C25.8667 15.5822 25.8667 15.6978 25.8667 15.7155C25.8667 15.7155 25.8667 15.7333 25.8667 15.7155C25.8667 15.7155 25.8667 15.6533 25.7155 15.6533H25.5644L25.5467 16.2044Z" fill="#231F20"/>
<path d="M26.3911 16.1689L26.2666 15.8489L26.1511 16.1689H26.4H26.3911ZM26.2578 15.68C26.2578 15.6356 26.2578 15.6356 26.2578 15.6356C26.2578 15.6356 26.2578 15.6356 26.2578 15.68C26.2578 15.7244 26.4711 16.2133 26.5511 16.3911C26.6311 16.5689 26.6222 16.5156 26.6489 16.5244H26.72H26.4978L26.3911 16.2578H26.1333L26.0622 16.4444C26.0598 16.4711 26.0598 16.4978 26.0622 16.5244H25.8222H25.8667C25.92 16.5244 25.9466 16.48 25.9733 16.4178L26.2578 15.68Z" fill="#231F20"/>
<path d="M27.0489 16.0977H27.1822C27.1963 16.1036 27.2114 16.1066 27.2267 16.1066C27.2419 16.1066 27.257 16.1036 27.2711 16.0977C27.2972 16.0767 27.3174 16.0493 27.3299 16.0181C27.3424 15.987 27.3466 15.9532 27.3422 15.92C27.3422 15.7688 27.2622 15.6888 27.1378 15.6888H27.04L27.0489 16.0977ZM26.9422 16C26.9509 15.9143 26.9509 15.8279 26.9422 15.7422C26.9422 15.6977 26.9422 15.68 26.8978 15.68H27.1644C27.2423 15.6741 27.32 15.6927 27.3867 15.7333C27.414 15.7501 27.4365 15.7736 27.4521 15.8017C27.4676 15.8297 27.4757 15.8612 27.4755 15.8933C27.4738 15.9479 27.4593 16.0013 27.433 16.0492C27.4067 16.0971 27.3695 16.1381 27.3244 16.1688C27.4048 16.2742 27.4908 16.3751 27.5822 16.4711C27.6444 16.5422 27.6889 16.5511 27.7155 16.5511H27.7689H27.6889C27.6483 16.5634 27.605 16.5634 27.5644 16.5511C27.4973 16.5068 27.4399 16.4493 27.3955 16.3822C27.3422 16.32 27.2889 16.24 27.2622 16.2044H27.0844V16.4888C27.0844 16.4888 27.0844 16.5422 27.1378 16.5511H26.9067H26.9511C26.9511 16.5511 26.9511 16.5511 26.9511 16.4888C26.957 16.403 26.957 16.3169 26.9511 16.2311L26.9422 16Z" fill="#231F20"/>
<path d="M28.2044 16.1689L28.08 15.8489L27.9644 16.1689H28.2133H28.2044ZM28.0711 15.68C28.0711 15.6356 28.0711 15.6356 28.0711 15.6356C28.0711 15.6356 28.0711 15.6356 28.0711 15.68C28.0711 15.7244 28.2933 16.2133 28.3733 16.3911C28.4533 16.5689 28.4444 16.5156 28.4711 16.5244H28.5422H28.32L28.2133 16.2578H27.9111L27.84 16.4444C27.8376 16.4711 27.8376 16.4978 27.84 16.5244C27.84 16.5244 27.84 16.5244 27.8844 16.5244H27.6533H27.7067C27.76 16.5244 27.7867 16.48 27.8044 16.4178L28.0711 15.68Z" fill="#231F20"/>
</g>
<defs>
<clipPath id="clip0_2707_268493">
<rect width="32" height="32" fill="white"/>
</clipPath>
</defs>
</svg>
