<svg width="32" height="32" viewBox="0 0 32 32" fill="none" xmlns="http://www.w3.org/2000/svg">
<g clip-path="url(#clip0_2810_58590)">
<mask id="mask0_2810_58590" style="mask-type:luminance" maskUnits="userSpaceOnUse" x="0" y="-1" width="32" height="33">
<path d="M32 -0.0799561H0V31.92H32V-0.0799561Z" fill="white"/>
</mask>
<g mask="url(#mask0_2810_58590)">
<path d="M16 31.92C24.8366 31.92 32 24.7566 32 15.92C32 7.08349 24.8366 -0.0799561 16 -0.0799561C7.16344 -0.0799561 0 7.08349 0 15.92C0 24.7566 7.16344 31.92 16 31.92Z" fill="white"/>
<mask id="mask1_2810_58590" style="mask-type:luminance" maskUnits="userSpaceOnUse" x="2" y="2" width="28" height="28">
<path d="M2.66699 15.92C2.66699 18.5571 3.44898 21.135 4.91406 23.3276C6.37915 25.5203 8.46153 27.2292 10.8979 28.2384C13.3342 29.2476 16.0151 29.5116 18.6015 28.9971C21.1879 28.4827 23.5637 27.2128 25.4284 25.3481C27.2931 23.4834 28.563 21.1076 29.0775 18.5212C29.5919 15.9348 29.3279 13.2539 28.3187 10.8176C27.3096 8.38121 25.6006 6.29883 23.4079 4.83374C21.2153 3.36866 18.6374 2.58667 16.0003 2.58667C12.4641 2.58667 9.07272 3.99143 6.57224 6.49191C4.07175 8.9924 2.66699 12.3838 2.66699 15.92Z" fill="white"/>
</mask>
<g mask="url(#mask1_2810_58590)">
<path d="M29.3337 15.92C29.3337 18.5571 28.5517 21.135 27.0866 23.3276C25.6215 25.5203 23.5391 27.2292 21.1028 28.2384C18.6664 29.2476 15.9855 29.5116 13.3991 28.9971C10.8127 28.4827 8.43694 27.2128 6.57224 25.3481C4.70754 23.4834 3.43766 21.1076 2.92319 18.5212C2.40872 15.9348 2.67277 13.2539 3.68194 10.8176C4.69111 8.38121 6.40007 6.29883 8.59273 4.83374C10.7854 3.36866 13.3632 2.58667 16.0003 2.58667C17.7513 2.58667 19.4851 2.93155 21.1028 3.60161C22.7205 4.27167 24.1903 5.2538 25.4284 6.49191C26.6665 7.73003 27.6487 9.19988 28.3187 10.8176C28.9888 12.4352 29.3337 14.169 29.3337 15.92Z" fill="white"/>
</g>
<path d="M3.75977 19.3955V19.2355C3.77102 18.9462 3.85007 18.6635 3.99057 18.4103C4.13107 18.1571 4.32908 17.9404 4.56865 17.7778C4.85123 17.5884 5.17365 17.4668 5.51088 17.4222C6.02734 17.3513 6.55335 17.4125 7.03977 17.6H7.12865H7.1731L7.04865 18.08C6.99197 18.0267 6.93263 17.9762 6.87088 17.9289C6.6399 17.7269 6.3529 17.5999 6.04803 17.565C5.74317 17.5301 5.43489 17.5888 5.16421 17.7333C4.85402 17.8869 4.61517 18.1544 4.49754 18.48C4.42413 18.6714 4.37631 18.8716 4.35532 19.0755C4.28496 19.5372 4.33707 20.0092 4.50643 20.4444C4.59251 20.6785 4.7405 20.8848 4.93462 21.0413C5.12873 21.1979 5.36169 21.2988 5.60865 21.3333C5.82935 21.3732 6.05584 21.3677 6.27436 21.3173C6.49288 21.2669 6.69886 21.1725 6.87977 21.04L6.99532 20.96L7.11088 20.8444C7.12802 20.9742 7.12802 21.1057 7.11088 21.2355C7.02473 21.2853 6.93568 21.3298 6.84421 21.3689C6.26906 21.5722 5.64158 21.5722 5.06643 21.3689C4.75565 21.2783 4.47549 21.1046 4.25619 20.8665C4.03688 20.6284 3.88675 20.3349 3.82199 20.0178C3.82199 19.92 3.82199 19.8133 3.75977 19.7067V19.3955Z" fill="#F56C07"/>
<path d="M15.1994 24.5778C15.1994 24.5778 15.1994 24.5778 15.155 24.5778C15.074 24.547 15.0004 24.4994 14.9391 24.4381C14.8778 24.3769 14.8302 24.3033 14.7994 24.2223C14.7088 24.0458 14.6715 23.8468 14.692 23.6495C14.7125 23.4522 14.79 23.2652 14.915 23.1111C14.9978 22.9997 15.1138 22.9173 15.2463 22.8758C15.3789 22.8342 15.5211 22.8357 15.6528 22.88C15.7335 22.9124 15.8085 22.9574 15.875 23.0134C15.9213 23.0392 15.9633 23.0722 15.9994 23.1111V21.9645H16.3017V24.5334H15.9994V24.2845C15.9194 24.3556 15.8661 24.4178 15.8039 24.4623C15.7431 24.5079 15.6776 24.5466 15.6083 24.5778H15.1994ZM15.0217 23.7511C15.0196 23.9211 15.0593 24.089 15.1372 24.24C15.1632 24.2876 15.1984 24.3295 15.2407 24.3634C15.283 24.3972 15.3316 24.4223 15.3837 24.4372C15.4358 24.4521 15.4904 24.4565 15.5442 24.4501C15.598 24.4437 15.65 24.4267 15.6972 24.4C15.8127 24.3293 15.8982 24.2186 15.9372 24.0889C16.0083 23.8603 16.0083 23.6154 15.9372 23.3867C15.9177 23.2883 15.8661 23.1991 15.7905 23.1332C15.7149 23.0672 15.6196 23.0282 15.5194 23.0223C15.4196 23.015 15.3203 23.043 15.2391 23.1015C15.1578 23.16 15.0998 23.2452 15.075 23.3423C15.0479 23.4772 15.0301 23.6138 15.0217 23.7511Z" fill="#F56C07"/>
<path d="M17.2178 24.5777H17.1733C17.0307 24.5379 16.9038 24.4551 16.81 24.3406C16.7162 24.2261 16.6599 24.0854 16.6489 23.9377C16.6086 23.7596 16.6241 23.5734 16.6933 23.4044C16.7701 23.2233 16.9089 23.0754 17.0848 22.9874C17.2608 22.8994 17.4624 22.8771 17.6533 22.9244C17.8441 22.9529 18.0173 23.0517 18.139 23.2013C18.2607 23.351 18.3221 23.5407 18.3111 23.7333C18.3267 23.8744 18.3044 24.0171 18.2466 24.1467C18.1888 24.2764 18.0976 24.3883 17.9822 24.4711C17.9378 24.4711 17.8756 24.5244 17.8222 24.56L17.7422 24.6133L17.2178 24.5777ZM18 23.7422C18 23.6622 18 23.5822 18 23.5111C17.9906 23.4439 17.9727 23.3782 17.9467 23.3155C17.9176 23.221 17.8585 23.1386 17.7782 23.0808C17.698 23.023 17.6011 22.9931 17.5022 22.9955C17.4013 22.9869 17.3004 23.0131 17.2163 23.0697C17.1322 23.1262 17.07 23.2098 17.04 23.3066C16.9956 23.4266 16.9686 23.5523 16.96 23.68C16.9489 23.8564 16.9793 24.033 17.0489 24.1955C17.0894 24.28 17.1541 24.3505 17.2349 24.398C17.3156 24.4455 17.4087 24.4678 17.5022 24.4622C17.592 24.4661 17.6808 24.4426 17.7569 24.395C17.8331 24.3474 17.893 24.2779 17.9289 24.1955C17.9873 24.0519 18.0116 23.8968 18 23.7422Z" fill="#F56C07"/>
<path d="M21.1819 24.5777L21.0041 24.5244C20.8971 24.4866 20.8003 24.4243 20.7216 24.3425C20.6429 24.2607 20.5844 24.1617 20.5507 24.0533C20.5035 23.9066 20.4878 23.7516 20.5046 23.5984C20.5215 23.4452 20.5705 23.2973 20.6485 23.1644C20.6935 23.0861 20.7549 23.0185 20.8286 22.9663C20.9023 22.9141 20.9864 22.8786 21.0752 22.8622C21.2153 22.8275 21.3617 22.8275 21.5019 22.8622C21.6419 22.8897 21.7687 22.9633 21.8621 23.0712C21.9555 23.1791 22.0102 23.3152 22.0174 23.4577V23.6799H20.8619C20.8274 23.7899 20.8277 23.9078 20.8627 24.0175C20.8977 24.1273 20.9657 24.2236 21.0574 24.2933C21.2885 24.4622 21.573 24.4266 21.9463 24.1688C21.9463 24.2311 21.9463 24.2844 21.9463 24.3377C21.8193 24.4393 21.67 24.5093 21.5107 24.5422L21.1819 24.5777ZM20.8441 23.5733H21.733C21.7597 23.4713 21.7597 23.3641 21.733 23.2622C21.7123 23.1956 21.6742 23.1358 21.6226 23.0889C21.571 23.042 21.5079 23.0098 21.4396 22.9955C21.3655 22.9803 21.2886 22.9864 21.2178 23.0131C21.1469 23.0399 21.0852 23.0862 21.0396 23.1466C20.9328 23.2658 20.8646 23.4145 20.8441 23.5733Z" fill="#F56C07"/>
<path d="M24.9329 24.5778H24.8885C24.8084 24.5475 24.7401 24.4923 24.6937 24.4203C24.6472 24.3483 24.6252 24.2633 24.6307 24.1778C24.6299 24.0896 24.6569 24.0035 24.708 23.9316C24.7591 23.8598 24.8316 23.8059 24.9152 23.7778C25.0495 23.7397 25.186 23.71 25.3241 23.6889C25.4269 23.6802 25.5253 23.6433 25.6085 23.5822C25.6096 23.5615 25.6096 23.5407 25.6085 23.52C25.6242 23.4364 25.6129 23.35 25.5761 23.2732C25.5394 23.1965 25.4791 23.1335 25.4041 23.0934C25.3107 23.0588 25.2091 23.0531 25.1125 23.0768C25.0158 23.1006 24.9285 23.1528 24.8618 23.2267L24.7996 23.2889V23.1111C24.8875 23.0312 24.9923 22.9722 25.1062 22.9383C25.2201 22.9045 25.3401 22.8967 25.4574 22.9156C25.529 22.922 25.5984 22.9431 25.6615 22.9775C25.7246 23.0119 25.78 23.0588 25.8242 23.1155C25.8683 23.1722 25.9004 23.2374 25.9183 23.3069C25.9363 23.3765 25.9397 23.449 25.9285 23.52C25.9285 23.76 25.9285 24.0089 25.9285 24.2578C25.9243 24.3199 25.9243 24.3823 25.9285 24.4445H26.0974C26.0974 24.4445 26.0974 24.4978 26.0974 24.5156C26.0194 24.557 25.9283 24.5663 25.8435 24.5414C25.7588 24.5165 25.6872 24.4593 25.6441 24.3822L25.3329 24.5867L24.9329 24.5778ZM25.6174 23.6889C25.4396 23.7422 25.2707 23.7689 25.1196 23.8311C24.9685 23.8934 24.8974 24.0534 24.9418 24.24C24.9698 24.3136 25.0254 24.3733 25.0968 24.4065C25.1682 24.4398 25.2497 24.4438 25.3241 24.4178C25.3933 24.4028 25.4572 24.3692 25.5089 24.3206C25.5605 24.2721 25.5981 24.2104 25.6174 24.1422V23.6889Z" fill="#F56C07"/>
<path d="M22.4531 24.5777L22.2842 24.4622L22.3553 24.1955C22.3945 24.2392 22.4361 24.2807 22.4797 24.3199C22.5329 24.3798 22.6036 24.4215 22.6818 24.439C22.7599 24.4566 22.8416 24.4491 22.9153 24.4177C22.9669 24.3995 23.0116 24.3658 23.0434 24.3213C23.0752 24.2768 23.0925 24.2235 23.0931 24.1688C23.0998 24.1175 23.0884 24.0654 23.0608 24.0216C23.0332 23.9778 22.9912 23.945 22.942 23.9288L22.7553 23.8577H22.6486C22.3908 23.7688 22.2753 23.6266 22.2931 23.3866C22.2969 23.2674 22.3442 23.1537 22.4261 23.0669C22.5079 22.9801 22.6187 22.9263 22.7375 22.9155C22.9127 22.886 23.0926 22.9208 23.2442 23.0133L23.1553 23.2799L23.1108 23.111C23.071 23.0597 23.0167 23.0213 22.955 23.0007C22.8933 22.9801 22.8269 22.9783 22.7642 22.9955C22.7142 23.0122 22.6701 23.0428 22.637 23.0837C22.604 23.1247 22.5833 23.1743 22.5775 23.2266C22.5663 23.2773 22.5724 23.3303 22.595 23.3771C22.6176 23.4238 22.6553 23.4616 22.702 23.4844L22.9597 23.5822C23.0296 23.6005 23.098 23.6242 23.1642 23.6533C23.2467 23.692 23.3127 23.759 23.3502 23.8421C23.3877 23.9253 23.3942 24.0191 23.3686 24.1066C23.3539 24.1881 23.3195 24.2647 23.2684 24.3298C23.2173 24.3948 23.151 24.4464 23.0753 24.4799C23.0419 24.4986 23.0119 24.5226 22.9864 24.551L22.4531 24.5777Z" fill="#F56C07"/>
<path d="M15.475 20.0711C14.7994 20.0711 14.1505 20.0711 13.5016 20.0711C13.4611 20.2375 13.4653 20.4117 13.5139 20.5759C13.5626 20.7401 13.6539 20.8885 13.7786 21.006C13.9032 21.1234 14.0568 21.2057 14.2237 21.2445C14.3905 21.2833 14.5646 21.2771 14.7283 21.2267C14.9327 21.1711 15.1195 21.064 15.2705 20.9155L15.3505 20.8622C15.3688 20.9651 15.3688 21.0704 15.3505 21.1733C15.0833 21.3832 14.7554 21.501 14.4157 21.509C14.076 21.517 13.7429 21.4148 13.4661 21.2178C13.2122 21.0302 13.0377 20.7543 12.9772 20.4444C12.9171 20.1106 12.9478 19.7668 13.0661 19.4489C13.1412 19.2207 13.2865 19.0222 13.4813 18.8817C13.6761 18.7411 13.9104 18.6659 14.1505 18.6667C14.3157 18.6446 14.4831 18.6446 14.6483 18.6667C14.8827 18.7191 15.0923 18.8498 15.2425 19.0372C15.3927 19.2246 15.4747 19.4576 15.475 19.6978C15.4839 19.84 15.475 19.9467 15.475 20.0711ZM14.9505 19.84C14.9782 19.607 14.9248 19.3716 14.7994 19.1733C14.7496 19.0946 14.6832 19.0278 14.6049 18.9774C14.5266 18.927 14.4382 18.8944 14.3459 18.8817C14.2537 18.869 14.1598 18.8765 14.0708 18.9039C13.9817 18.9312 13.8998 18.9777 13.8305 19.04C13.6827 19.1686 13.5773 19.3391 13.5283 19.5289C13.4888 19.637 13.4707 19.7517 13.475 19.8667L14.9505 19.84Z" fill="#F56C07"/>
<path d="M8.28377 20.0622C8.24937 20.3808 8.34199 20.7002 8.54155 20.9511C8.6908 21.1044 8.88511 21.206 9.09616 21.2412C9.30721 21.2764 9.52398 21.2432 9.71489 21.1466C9.83577 21.0779 9.95162 21.0007 10.0616 20.9155L10.1682 20.8355V21.1555C9.97836 21.3053 9.75618 21.4088 9.51933 21.4577C9.16077 21.5517 8.77997 21.5073 8.45266 21.3333C8.26154 21.2369 8.09829 21.0931 7.97847 20.9157C7.85866 20.7384 7.78627 20.5332 7.76822 20.3199C7.73503 20.0187 7.77466 19.7138 7.88378 19.4311C7.95904 19.22 8.09406 19.0353 8.2724 18.8996C8.45074 18.7638 8.6647 18.6829 8.88822 18.6666C9.14885 18.6293 9.4147 18.6695 9.65266 18.7822C9.81352 18.8599 9.95185 18.9775 10.0545 19.1237C10.1572 19.27 10.2208 19.44 10.2393 19.6177C10.2705 19.7642 10.2705 19.9157 10.2393 20.0622H8.28377ZM9.79489 19.8311C9.81034 19.5853 9.75149 19.3407 9.626 19.1288C9.52899 18.9905 9.38184 18.8954 9.21584 18.8639C9.04985 18.8324 8.8781 18.8668 8.73711 18.9599C8.59858 19.0618 8.48722 19.1961 8.41282 19.3511C8.33842 19.5061 8.30326 19.677 8.31044 19.8488C8.7989 19.8863 9.28971 19.8803 9.77711 19.8311H9.79489Z" fill="#F56C07"/>
<path d="M18.9598 16.4711C18.8081 15.996 18.85 15.4803 19.0764 15.0359C19.3027 14.5915 19.6952 14.2544 20.1687 14.0977L20.7643 5.64441H20.8443L20.2487 14.08L20.1865 14.1244C20.3246 14.5983 20.2741 15.1072 20.0454 15.5446C19.8168 15.982 19.4277 16.314 18.9598 16.4711Z" fill="#F56C07"/>
<path d="M22.7468 21.2622C22.7468 21.2622 22.7468 21.3155 22.7468 21.3333C22.7483 21.36 22.7483 21.3867 22.7468 21.4133C22.6224 21.4133 22.5068 21.4578 22.3824 21.4578C22.2579 21.4578 22.0713 21.3689 21.9824 21.1467C21.8785 21.2316 21.7686 21.3089 21.6535 21.3778C21.5208 21.4563 21.3729 21.5057 21.2196 21.5225C21.0663 21.5394 20.9112 21.5234 20.7646 21.4755C20.6234 21.4264 20.501 21.3345 20.4144 21.2127C20.3278 21.0908 20.2812 20.945 20.2812 20.7955C20.2812 20.646 20.3278 20.5003 20.4144 20.3784C20.501 20.2566 20.6234 20.1647 20.7646 20.1155C20.9868 20.0444 21.2268 20.0089 21.4579 19.9555C21.6199 19.94 21.7755 19.8851 21.9113 19.7955C21.9567 19.5909 21.9284 19.3768 21.8313 19.1911C21.7919 19.117 21.7347 19.0539 21.6649 19.0073C21.5951 18.9608 21.5148 18.9323 21.4313 18.9244C21.2791 18.8972 21.1224 18.9137 20.9793 18.9719C20.8361 19.0301 20.7124 19.1277 20.6224 19.2533C20.6224 19.2533 20.5779 19.2533 20.5335 19.3244V18.9867C20.691 18.8434 20.8804 18.7396 21.086 18.684C21.2915 18.6283 21.5074 18.6224 21.7157 18.6667C21.9291 18.6891 22.1248 18.7953 22.2598 18.962C22.3948 19.1287 22.4581 19.3422 22.4357 19.5555C22.4357 19.84 22.4357 20.1244 22.4357 20.4444V21.1111C22.4357 21.2889 22.5602 21.3333 22.6757 21.3244L22.7468 21.2622ZM21.9824 20.0444H21.7779C21.5913 20.0889 21.4046 20.1155 21.2268 20.1689C21.155 20.1824 21.0868 20.2105 21.0263 20.2515C20.9658 20.2924 20.9143 20.3454 20.8752 20.4071C20.836 20.4688 20.8099 20.5378 20.7985 20.61C20.7872 20.6822 20.7907 20.7559 20.8091 20.8267C20.8186 20.8921 20.8414 20.955 20.876 21.0114C20.9106 21.0678 20.9563 21.1166 21.0104 21.1549C21.0644 21.1931 21.1256 21.22 21.1903 21.2338C21.255 21.2477 21.3219 21.2483 21.3868 21.2355C21.5015 21.2137 21.6108 21.1695 21.7084 21.1055C21.806 21.0414 21.8901 20.9588 21.9557 20.8622L21.9824 20.0444Z" fill="#F56C07"/>
<path d="M16.0713 21.3334L16.1868 20.9156C16.2402 20.9156 16.258 20.9156 16.2935 20.9689C16.3525 21.0457 16.4212 21.1144 16.498 21.1734C16.6046 21.2445 16.7298 21.2824 16.858 21.2824C16.9861 21.2824 17.1114 21.2445 17.218 21.1734C17.2842 21.1329 17.3388 21.076 17.3768 21.0083C17.4147 20.9406 17.4346 20.8643 17.4346 20.7867C17.4346 20.7091 17.4147 20.6328 17.3768 20.5651C17.3388 20.4974 17.2842 20.4405 17.218 20.4C17.0968 20.3351 16.9686 20.2843 16.8357 20.2489C16.6701 20.2067 16.5114 20.1409 16.3646 20.0534C16.2639 19.9886 16.1837 19.8966 16.1333 19.788C16.083 19.6794 16.0645 19.5587 16.0802 19.44C16.0812 19.2392 16.156 19.0458 16.2904 18.8966C16.4248 18.7475 16.6095 18.653 16.8091 18.6311C16.9603 18.5963 17.1171 18.5924 17.2699 18.6199C17.4227 18.6474 17.5683 18.7057 17.698 18.7911L17.5646 19.1911C17.4846 19.1911 17.4846 19.1467 17.458 19.1111C17.406 19.0126 17.3229 18.9339 17.2217 18.8873C17.1204 18.8407 17.0067 18.8288 16.898 18.8534C16.8072 18.8646 16.7223 18.9042 16.6553 18.9664C16.5883 19.0286 16.5426 19.1104 16.5246 19.2C16.5246 19.4223 16.5246 19.5556 16.7202 19.68C16.8702 19.7469 17.0246 19.8034 17.1824 19.8489L17.4224 19.9378C17.5114 19.9639 17.5937 20.0088 17.6638 20.0694C17.734 20.1301 17.7903 20.205 17.8291 20.2892C17.8678 20.3735 17.8881 20.465 17.8884 20.5577C17.8888 20.6504 17.8693 20.7422 17.8313 20.8267C17.7857 20.9954 17.6914 21.1469 17.5602 21.2623C17.429 21.3778 17.2667 21.4519 17.0935 21.4756C16.7723 21.5406 16.4387 21.5001 16.1424 21.36L16.0713 21.3334Z" fill="#F56C07"/>
<path d="M18.7289 18.7911V18.1511L19.2267 17.9377C19.2267 18.2311 19.2267 18.5066 19.2267 18.8266H19.8222V19.0577H19.2C19.2 19.1911 19.2 19.3155 19.2 19.44C19.2 19.9022 19.2 20.3289 19.2 20.8177C19.2128 20.937 19.2427 21.0537 19.2889 21.1644C19.3142 21.2138 19.3523 21.2555 19.3992 21.2852C19.4461 21.3149 19.5001 21.3315 19.5556 21.3333H19.8578V21.4666C19.6248 21.5289 19.3796 21.5289 19.1467 21.4666C19.0398 21.4413 18.9429 21.3846 18.8685 21.3038C18.794 21.2231 18.7454 21.1219 18.7289 21.0133C18.6979 20.7802 18.6979 20.5441 18.7289 20.3111V19.0133H18.3467V18.7733L18.7289 18.7911Z" fill="#F56C07"/>
<path d="M18.9682 11.9022C19.1352 12.0751 19.2654 12.28 19.351 12.5045C19.4365 12.7291 19.4756 12.9687 19.466 13.2089L18.9771 13.68C18.833 13.4425 18.6389 13.2392 18.4082 13.0844C18.4447 12.6399 18.6293 12.2204 18.9326 11.8933V10.72C18.9326 10.0622 18.9326 9.39554 18.9326 8.72888V7.03999C18.9326 6.35554 18.9326 5.6711 18.9326 4.98665V3.77776C18.9326 3.77776 18.9326 3.68888 18.9326 3.65332C18.935 3.67697 18.935 3.70078 18.9326 3.72443V4.29332V4.74665C18.9326 5.13776 18.9326 5.53776 18.9326 5.93776C18.9326 6.5511 18.9326 7.17332 18.9326 7.79554V9.57332C18.9326 10.1955 18.9326 10.8089 18.9326 11.4311C18.9949 11.6089 18.9771 11.7511 18.9682 11.9022Z" fill="#F56C07"/>
<path d="M17.6801 13.9733C17.8487 14.0198 18.008 14.095 18.1512 14.1955C18.4793 14.4058 18.7291 14.7181 18.8623 15.0844C18.8842 15.1416 18.8842 15.2049 18.8623 15.2622C18.7782 15.5687 18.7511 15.8881 18.7823 16.2044V16.2488C18.5248 16.1561 18.2922 16.0052 18.1025 15.8079C17.9129 15.6105 17.7714 15.3721 17.689 15.111C17.5867 14.7417 17.5867 14.3515 17.689 13.9822L17.6801 13.9733Z" fill="#F56C07"/>
<path d="M18.0088 12.9422C18.3795 13.1209 18.6888 13.4055 18.8977 13.76L18.6311 14.5244C18.4185 14.286 18.158 14.0952 17.8666 13.9644C17.8249 13.6453 17.8522 13.321 17.9466 13.0133C17.9395 12.9454 17.9395 12.8768 17.9466 12.8089C17.9466 12.5422 17.9466 12.2844 17.9466 12.0178C17.9466 11.5733 17.9999 11.1289 18.0177 10.6933C18.0177 10.08 18.0799 9.46666 18.1155 8.85333C18.1511 8.23999 18.1777 7.61777 18.2044 6.99555C18.2311 6.37333 18.2666 5.78666 18.3022 5.21777C18.3022 5.04888 18.3022 4.87999 18.3022 4.7111V4.6311C18.3066 4.69325 18.3066 4.75563 18.3022 4.81777C18.2844 7.50221 18.1422 10.2133 18.0088 12.9422Z" fill="#F56C07"/>
<path d="M24.0619 21.4399H23.5908V18.7733H24.053V19.2622L24.133 19.1466C24.2243 18.9905 24.3525 18.8592 24.5064 18.7644C24.5795 18.7276 24.6601 18.7085 24.7419 18.7085C24.8237 18.7085 24.9044 18.7276 24.9775 18.7644V19.2533H24.8886C24.8231 19.2213 24.7518 19.2034 24.679 19.2005C24.6062 19.1977 24.5337 19.2101 24.4659 19.2368C24.3982 19.2636 24.3368 19.3042 24.2856 19.356C24.2344 19.4078 24.1945 19.4697 24.1686 19.5377C24.1049 19.6741 24.0715 19.8227 24.0708 19.9733C24.0708 20.391 24.0708 20.8177 24.0708 21.2355C24.0442 21.2444 24.053 21.3333 24.0619 21.4399Z" fill="#F56C07"/>
<path d="M11.0928 18.7378H11.555V19.2178L11.6261 19.1378C11.7166 19.0219 11.8146 18.9121 11.9194 18.8089C11.9849 18.7387 12.0687 18.6882 12.1614 18.6631C12.2541 18.638 12.3519 18.6392 12.4439 18.6667V19.1556H12.355C12.2892 19.1224 12.2171 19.1037 12.1435 19.1007C12.0699 19.0978 11.9965 19.1106 11.9283 19.1384C11.86 19.1662 11.7985 19.2083 11.748 19.2619C11.6974 19.3154 11.6589 19.3792 11.635 19.4489C11.5756 19.5927 11.5454 19.7468 11.5461 19.9023V21.4311H11.1017L11.0928 18.7378Z" fill="#F56C07"/>
<path d="M19.8846 13.0933C20.0101 13.4123 20.0499 13.7585 20.0001 14.0977C19.55 14.2799 19.1829 14.6217 18.969 15.0577C18.8979 14.9244 18.8268 14.8088 18.7646 14.6844C18.7556 14.6494 18.7556 14.6127 18.7646 14.5777C18.7794 14.3083 18.8653 14.0476 19.0135 13.8222C19.2295 13.5021 19.5315 13.2495 19.8846 13.0933Z" fill="#F56C07"/>
<path d="M13.1995 24.5334H12.915V22.9156H13.1906V23.1289L13.2973 23.0312C13.3936 22.9441 13.5144 22.8888 13.6432 22.8729C13.7721 22.857 13.9027 22.8812 14.0173 22.9423C14.0994 22.9895 14.1669 23.0585 14.2123 23.1416C14.2578 23.2247 14.2795 23.3187 14.275 23.4134C14.275 23.5289 14.275 23.6445 14.275 23.7512V24.5334H13.9817V24.1689C13.9817 23.9556 13.9817 23.7423 13.9817 23.52C13.986 23.4698 13.986 23.4192 13.9817 23.3689C13.9751 23.2879 13.9388 23.2122 13.8797 23.1564C13.8206 23.1006 13.743 23.0686 13.6617 23.0667C13.5737 23.0505 13.4829 23.0656 13.4049 23.1094C13.3269 23.1533 13.2668 23.2231 13.235 23.3067C13.2066 23.3989 13.1917 23.4947 13.1906 23.5912C13.1906 23.9023 13.1995 24.2134 13.1995 24.5334Z" fill="#F56C07"/>
<path d="M20.0974 24.5333H19.8218V23.8933C19.8218 23.7422 19.8218 23.591 19.8218 23.431C19.8157 23.346 19.782 23.2652 19.7257 23.2011C19.6695 23.137 19.5938 23.093 19.5102 23.0759C19.4267 23.0588 19.3398 23.0695 19.2629 23.1063C19.1859 23.1431 19.1231 23.2041 19.0841 23.2799C19.0377 23.3771 19.0134 23.4834 19.013 23.591C19.013 23.9022 19.013 24.2133 19.013 24.5333H18.7285V22.9155H19.0041V23.111L19.1018 23.031C19.1802 22.9517 19.279 22.8957 19.3872 22.869C19.4954 22.8423 19.609 22.8461 19.7152 22.8799C19.8146 22.8991 19.9049 22.9503 19.9724 23.0258C20.0398 23.1013 20.0806 23.1968 20.0885 23.2977C20.0885 23.4666 20.0885 23.6355 20.0885 23.8044L20.0974 24.5333Z" fill="#F56C07"/>
<path d="M19.7601 4.58667C19.8401 4.58667 19.8312 4.65778 19.8312 4.69334C19.8312 5.06667 19.8312 5.44 19.8312 5.80445C19.8312 6.41778 19.8312 7.02223 19.8312 7.63556V9.2C19.8312 9.75111 19.8312 10.3111 19.8312 10.8711V12.4178C19.8312 12.6044 19.8312 12.7822 19.8312 12.9689C19.8312 13.0133 19.8312 13.0667 19.7601 13.0667C19.689 13.0667 19.7601 12.8711 19.7601 12.7733C19.7601 12.3022 19.7601 11.8311 19.7601 11.36C19.7601 10.8889 19.7601 10.1956 19.7601 9.58222V8.08889C19.7601 7.48445 19.7601 6.88889 19.7601 6.31111V4.72889V4.58667Z" fill="#F56C07"/>
<path d="M17.6802 13.9733H17.5913C17.5913 13.7333 17.5913 13.4844 17.5913 13.2356L17.5113 11.1378C17.5113 10.72 17.5113 10.3111 17.4669 9.90222L17.3513 8C17.3513 7.6 17.3513 7.2 17.3069 6.8C17.2624 6.4 17.3069 6.11555 17.3069 5.77777C17.3069 5.77777 17.3069 5.71555 17.3069 5.68889C17.3069 5.66222 17.3869 5.68889 17.3869 5.75111C17.3869 5.81333 17.3869 6.01777 17.3869 6.15111C17.3869 6.78222 17.4313 7.41333 17.4491 8.04444C17.4669 8.67555 17.4935 9.09333 17.5113 9.61777C17.5113 10.3111 17.5735 11.0044 17.6002 11.7067C17.6269 12.4089 17.6002 12.9689 17.6713 13.6089C17.6713 13.7422 17.6713 13.8844 17.6713 14.0178L17.6802 13.9733Z" fill="#F56C07"/>
<path d="M12.2927 24.5333H11.9727V22.2222H12.2927V24.5333Z" fill="#F56C07"/>
<path d="M24.1332 24.5333H23.8398V22.9155H24.1332V24.5333Z" fill="#F56C07"/>
<path d="M24.1602 22.3111C24.1602 22.3582 24.1415 22.4034 24.1082 22.4368C24.0748 22.4701 24.0296 22.4889 23.9825 22.4889C23.9353 22.4889 23.8901 22.4701 23.8568 22.4368C23.8234 22.4034 23.8047 22.3582 23.8047 22.3111C23.8091 22.2624 23.8317 22.2171 23.8679 22.1842C23.9041 22.1512 23.9513 22.1331 24.0002 22.1333C24.0435 22.1395 24.0832 22.1607 24.1125 22.1932C24.1417 22.2257 24.1586 22.2674 24.1602 22.3111Z" fill="#F56C07"/>
</g>
</g>
<defs>
<clipPath id="clip0_2810_58590">
<rect width="32" height="32" fill="white"/>
</clipPath>
</defs>
</svg>
