<svg width="32" height="32" viewBox="0 0 32 32" fill="none" xmlns="http://www.w3.org/2000/svg">
<g clip-path="url(#clip0_2707_266938)">
<path d="M16 31.9822C24.8267 31.9822 31.9822 24.8267 31.9822 16C31.9822 7.17326 24.8267 0.0177765 16 0.0177765C7.17325 0.0177765 0.0177612 7.17326 0.0177612 16C0.0177612 24.8267 7.17325 31.9822 16 31.9822Z" fill="white"/>
<path d="M28.6844 17.7778C28.6844 17.8844 28.6844 17.9911 28.6844 18.0889C28.6485 18.8157 28.4892 19.5311 28.2133 20.2044C27.998 20.737 27.6775 21.2207 27.2711 21.6267C26.8352 22.0418 26.2834 22.3146 25.6889 22.4089C25.1019 22.5244 24.4981 22.5244 23.9111 22.4089C23.3822 22.3102 22.8873 22.0779 22.4735 21.734C22.0597 21.3902 21.7406 20.9463 21.5467 20.4444C21.0753 19.2778 20.8718 18.0202 20.9511 16.7644C21.0061 15.9466 21.1798 15.1412 21.4667 14.3733C21.6515 13.8355 21.9553 13.3463 22.3556 12.9422C22.8445 12.4822 23.4671 12.1895 24.1333 12.1067C24.7658 12.0055 25.4129 12.048 26.0267 12.2311C26.7762 12.4614 27.4111 12.9661 27.8044 13.6444C28.1716 14.2574 28.4133 14.9373 28.5156 15.6444C28.5778 15.9733 28.5956 16.32 28.64 16.6578L28.6844 17.7778ZM27.1733 17.2711C27.1676 16.7503 27.126 16.2306 27.0489 15.7156C26.9949 15.2675 26.8657 14.8317 26.6667 14.4267C26.4394 14.0036 26.0571 13.6851 25.6 13.5378C25.2482 13.4198 24.8729 13.3893 24.5067 13.4489C24.1551 13.4933 23.826 13.6454 23.5644 13.8844C23.2822 14.1475 23.0712 14.4778 22.9511 14.8444C22.718 15.504 22.5978 16.1982 22.5956 16.8978C22.5778 17.4347 22.5956 17.9721 22.6489 18.5067C22.6909 18.9766 22.8017 19.4378 22.9778 19.8756C23.1461 20.3184 23.4594 20.6912 23.8667 20.9333C24.2885 21.1857 24.7906 21.2683 25.2711 21.1644C25.5732 21.111 25.8579 20.9853 26.1009 20.798C26.3439 20.6107 26.538 20.3674 26.6667 20.0889C26.9381 19.5332 27.0953 18.9287 27.1289 18.3111C27.1378 17.9733 27.1556 17.6356 27.1733 17.2978V17.2711Z" fill="#2E4199"/>
<path d="M7.92888 9.49333V12.0622C7.95517 12.0686 7.9826 12.0686 8.00889 12.0622H10.7644C10.8356 12.0622 10.8533 12.1067 10.8267 12.1689C10.8217 12.1983 10.8217 12.2284 10.8267 12.2578V13.4489C10.831 13.4754 10.831 13.5024 10.8267 13.5289C10.8306 13.5554 10.8306 13.5824 10.8267 13.6089C10.8267 13.6089 10.8267 13.6533 10.7733 13.6711H8C7.90222 13.6711 7.89333 13.6711 7.89333 13.7689V22.3289C7.89333 22.4089 7.89333 22.4089 7.84 22.4089H6.35555C6.25777 22.4089 6.25777 22.4089 6.25777 22.3111V13.7689C6.25777 13.7156 6.25777 13.7067 6.19555 13.7067H3.31555V12.0978H6.22222C6.22136 12.083 6.22136 12.0681 6.22222 12.0533V9.54666C6.22222 9.54666 6.22222 9.54667 6.22222 9.49333H7.92888Z" fill="#2D4199"/>
<path d="M19.8044 9.49333V10.9867H18.1333V9.49333H19.8044Z" fill="#C43D31"/>
<path d="M3.31555 13.7067H6.22222C6.22222 13.7067 6.29333 13.7067 6.28444 13.7689V22.3467C6.28444 22.4444 6.28444 22.4444 6.38222 22.4444H7.81333C7.89333 22.4444 7.89333 22.4444 7.87555 22.3733C7.87123 22.3528 7.87123 22.3316 7.87555 22.3111V13.8133C7.87555 13.7156 7.87555 13.7067 7.98222 13.7067H10.7911H7.92888V22.4533H6.22222V13.7333H3.31555V13.7067Z" fill="#354391"/>
<path d="M16.9511 13.1378C16.4553 13.1799 15.9708 13.3093 15.52 13.52C15.0768 13.718 14.6856 14.0161 14.3771 14.3909C14.0686 14.7657 13.8513 15.207 13.7422 15.68C13.645 16.033 13.6001 16.3984 13.6089 16.7644V22.48H11.9556V12.0533H13.6267V13.4578C13.901 12.8832 14.3405 12.4035 14.8889 12.08C15.4014 11.7699 15.9741 11.573 16.5689 11.5022H16.8889H17.0667C17.0667 11.5022 17.0667 11.5644 17.0667 11.5911V13.0844L16.9511 13.1378Z" fill="#2E4199"/>
<path d="M19.8044 12.1778C19.8044 12.1778 19.8044 12.2222 19.8044 12.2489V22.48H18.1422C18.1422 22.48 18.1422 22.4356 18.1422 22.4089V12.1778L18.1867 12.0978H19.76L19.8044 12.1778Z" fill="#2D4199"/>
<path d="M10.7822 13.7333C10.7822 13.7333 10.7822 13.7333 10.8355 13.68C10.8413 13.6507 10.8413 13.6205 10.8355 13.5911C10.8399 13.5646 10.8399 13.5376 10.8355 13.5111V12.2933C10.8314 12.2668 10.8314 12.2398 10.8355 12.2133C10.8355 12.1422 10.8355 12.1067 10.7733 12.0978H7.99998C7.9737 12.1042 7.94626 12.1042 7.91998 12.0978H10.8533V13.7689L10.7822 13.7333Z" fill="#39458F"/>
<path d="M19.8044 12.1778L19.7511 12.0978H18.1777L18.1333 12.1778V12.0711H19.8044V12.1778Z" fill="#344087"/>
<path d="M16.9511 13.1378H17.0844V11.6089C17.0844 11.6089 17.0844 11.5556 17.0844 11.5289V13.1556L16.9511 13.1378Z" fill="#454F6E"/>
<path d="M17.1022 11.4765H16.9244H17.0667C17.0667 11.4765 17.0933 11.4565 17.1022 11.4765Z" fill="#454F6E"/>
</g>
<defs>
<clipPath id="clip0_2707_266938">
<rect width="32" height="32" fill="white"/>
</clipPath>
</defs>
</svg>
