<svg width="32" height="32" viewBox="0 0 32 32" fill="none" xmlns="http://www.w3.org/2000/svg">
<g clip-path="url(#clip0_2707_266763)">
<path d="M16 31.9822C24.8267 31.9822 31.9822 24.8267 31.9822 16C31.9822 7.17326 24.8267 0.0177777 16 0.0177777C7.17325 0.0177777 0.0177612 7.17326 0.0177612 16C0.0177612 24.8267 7.17325 31.9822 16 31.9822Z" fill="white"/>
<path d="M10.5244 22.2222C13.5728 18.964 17.4364 16.5796 21.7155 15.3156C17.717 17.1146 13.9964 19.4763 10.6666 22.3289L10.5244 22.2222Z" fill="#F2B127"/>
<path d="M21.1111 14.1244C18.8267 16.7911 14.16 16.7911 12.2222 14.0178C13.4979 14.9832 15.0494 15.5145 16.6491 15.5337C18.2489 15.5529 19.8126 15.059 21.1111 14.1244Z" fill="#173B67"/>
<path d="M18.4 4.31111C21.2711 4.49778 23.6533 8.87111 22.4977 11.3511C22.5992 9.90209 22.2628 8.45601 21.532 7.20062C20.8013 5.94523 19.7101 4.9385 18.4 4.31111Z" fill="#133764"/>
<path d="M10.7733 11.5022C9.72442 8.65778 11.9378 4.68444 15.0133 4.26667C11.9289 5.87556 10.8711 8.38222 10.7733 11.5022Z" fill="#123663"/>
<path d="M10.6666 22.3289L10.5066 22.48C10.4733 22.4423 10.4377 22.4066 10.4 22.3733L10.5333 22.2222L10.6666 22.3289Z" fill="#F2B127"/>
<path d="M10.4889 22.4711L10.16 22.7822C10.2419 22.6503 10.3161 22.5138 10.3822 22.3733C10.4217 22.4013 10.4575 22.4342 10.4889 22.4711Z" fill="#F2B127"/>
<path d="M9.03107 23.36H10.8088C10.8888 23.36 10.8888 23.36 10.8888 23.44V24C10.8888 23.9289 10.8444 23.8489 10.8177 23.7867C10.7907 23.714 10.7422 23.6513 10.6787 23.6069C10.6152 23.5624 10.5397 23.5383 10.4622 23.5378H10.2577V25.4133C10.2577 25.5733 10.3288 25.6356 10.4888 25.6356H9.45773H9.55551C9.57729 25.6356 9.59885 25.6312 9.61887 25.6226C9.63888 25.614 9.65693 25.6014 9.67191 25.5856C9.68689 25.5698 9.69848 25.5511 9.70598 25.5306C9.71348 25.5102 9.71672 25.4884 9.71551 25.4667C9.71964 25.4193 9.71964 25.3718 9.71551 25.3244V23.5467C9.71983 23.5262 9.71983 23.505 9.71551 23.4844C9.39551 23.4844 9.22662 23.4844 9.12885 23.8133C9.12084 23.8484 9.12084 23.8849 9.12885 23.92C9.12885 23.92 9.12884 23.9733 9.05773 23.9733V23.3511" fill="#173B67"/>
<path d="M16.3733 27.7333V27.68C16.2133 27.44 16.0444 27.2089 15.8755 26.9689L15.8311 26.9156V27.5556C15.8311 27.6356 15.8311 27.7156 15.9466 27.7422H15.68C15.7138 27.7357 15.7439 27.7163 15.7638 27.6882C15.7837 27.66 15.7919 27.6252 15.7866 27.5911V26.9244C15.7856 26.8914 15.7738 26.8595 15.7529 26.8338C15.732 26.8081 15.7033 26.79 15.6711 26.7822H15.9555L16.3022 27.28V27.3333C16.3022 27.1822 16.3022 27.0222 16.3022 26.8711C16.3022 26.72 16.3022 26.7911 16.1955 26.7556H16.4533C16.3555 26.7556 16.3466 26.8533 16.3466 26.9333C16.3466 27.2089 16.3466 27.4756 16.3466 27.7511L16.3733 27.7333Z" fill="#173B67"/>
<path d="M17.8756 27.7333C17.8188 27.7253 17.7666 27.6979 17.7278 27.6557C17.6889 27.6136 17.6658 27.5594 17.6622 27.5022C17.6622 27.3333 17.6622 27.1733 17.6622 27.0133V26.8978C17.6622 26.7911 17.6622 26.7911 17.5645 26.7556H17.9378C17.9277 26.7555 17.9176 26.7576 17.9084 26.7617C17.8991 26.7658 17.8908 26.7718 17.8841 26.7794C17.8773 26.787 17.8723 26.7959 17.8693 26.8056C17.8663 26.8153 17.8654 26.8255 17.8667 26.8356V27.4933C17.8641 27.532 17.8766 27.5702 17.9014 27.6C17.9262 27.6298 17.9615 27.6489 18 27.6533C18.0416 27.6669 18.0866 27.6654 18.1272 27.6492C18.1679 27.6329 18.2015 27.603 18.2222 27.5644C18.2356 27.5 18.2356 27.4334 18.2222 27.3689C18.2222 27.2089 18.2222 27.0489 18.2222 26.8889C18.2222 26.7289 18.2222 26.7733 18.1067 26.7378H18.3733C18.2667 26.7378 18.2667 26.8356 18.2667 26.9156C18.2667 26.9956 18.2667 27.2711 18.2667 27.4489C18.2672 27.5162 18.2431 27.5814 18.1989 27.6322C18.1547 27.6829 18.0934 27.7158 18.0267 27.7244H17.8845L17.8756 27.7333Z" fill="#173B67"/>
<path d="M22.3644 27.7333V27.3778C22.3609 27.4073 22.3609 27.4371 22.3644 27.4667C22.3773 27.5182 22.404 27.5653 22.4416 27.6029C22.4791 27.6404 22.5262 27.6671 22.5778 27.68C22.611 27.6905 22.6469 27.6892 22.6793 27.6762C22.7117 27.6632 22.7387 27.6394 22.7555 27.6089C22.778 27.583 22.7904 27.5499 22.7904 27.5156C22.7904 27.4813 22.778 27.4481 22.7555 27.4222L22.6311 27.3244L22.4711 27.2267C22.425 27.1928 22.3902 27.1459 22.3711 27.092C22.3521 27.0381 22.3498 26.9797 22.3644 26.9244C22.3694 26.8862 22.3833 26.8496 22.4049 26.8176C22.4265 26.7856 22.4553 26.759 22.4889 26.7401C22.5225 26.7211 22.5601 26.7102 22.5987 26.7083C22.6372 26.7063 22.6757 26.7134 22.7111 26.7289H22.7733C22.8355 26.7289 22.8444 26.7289 22.8889 26.6844V26.9956C22.8877 26.9748 22.8877 26.9541 22.8889 26.9333C22.8748 26.8857 22.8485 26.8426 22.8127 26.8083C22.7768 26.774 22.7326 26.7497 22.6844 26.7378C22.6546 26.7293 22.6229 26.7308 22.594 26.742C22.5651 26.7533 22.5407 26.7736 22.5244 26.8C22.5064 26.8245 22.4966 26.8541 22.4966 26.8844C22.4966 26.9148 22.5064 26.9444 22.5244 26.9689C22.5621 27.0035 22.6039 27.0333 22.6489 27.0578L22.8178 27.1644C22.8645 27.1979 22.9004 27.2444 22.921 27.2982C22.9415 27.3519 22.9458 27.4105 22.9333 27.4667C22.9224 27.5211 22.8967 27.5714 22.8591 27.6122C22.8214 27.6529 22.7733 27.6825 22.72 27.6978H22.5955L22.4711 27.6444C22.4178 27.6444 22.3911 27.6444 22.3644 27.6978V27.7333Z" fill="#173B67"/>
<path d="M18.4888 27.7333C18.4888 27.6267 18.4888 27.52 18.4888 27.4044V27.4844C18.5012 27.5372 18.5275 27.5857 18.5651 27.6248C18.6026 27.6639 18.65 27.6922 18.7022 27.7067C18.7355 27.7172 18.7714 27.7158 18.8038 27.7029C18.8362 27.6899 18.8631 27.6661 18.88 27.6356C18.9009 27.6089 18.9122 27.5761 18.9122 27.5422C18.9122 27.5084 18.9009 27.4755 18.88 27.4489L18.7466 27.3511L18.5689 27.2267C18.5236 27.1865 18.4922 27.133 18.4794 27.0739C18.4667 27.0147 18.4731 26.953 18.4977 26.8978C18.5104 26.8661 18.5293 26.8373 18.5532 26.813C18.5771 26.7887 18.6055 26.7694 18.637 26.7562C18.6684 26.743 18.7021 26.7361 18.7362 26.736C18.7703 26.7359 18.804 26.7425 18.8355 26.7556H18.8889C18.96 26.7556 18.9688 26.7556 19.0044 26.7022V27.0222C19.0083 27.0017 19.0083 26.9806 19.0044 26.96C18.9919 26.9131 18.9673 26.8703 18.9329 26.8359C18.8986 26.8016 18.8558 26.7769 18.8089 26.7644C18.7791 26.7543 18.7468 26.755 18.7175 26.7664C18.6882 26.7778 18.6639 26.7991 18.6489 26.8267C18.6276 26.8497 18.6158 26.8798 18.6158 26.9111C18.6158 26.9424 18.6276 26.9726 18.6489 26.9956L18.8 27.0933L18.9689 27.2089C19.011 27.2435 19.042 27.2898 19.0578 27.3421C19.0737 27.3943 19.0736 27.45 19.0577 27.5022C19.0496 27.5545 19.0257 27.6029 18.9891 27.6411C18.9525 27.6792 18.9051 27.7052 18.8533 27.7156H18.7466L18.6666 27.6889C18.6044 27.6889 18.5777 27.6889 18.5422 27.7333H18.4888Z" fill="#173B67"/>
<path d="M11.8755 24.5156H12.1955C12.2691 24.509 12.3385 24.4785 12.3931 24.4287C12.4477 24.3789 12.4844 24.3127 12.4978 24.24C12.5324 24.0999 12.5324 23.9534 12.4978 23.8133C12.4803 23.7355 12.4379 23.6655 12.3768 23.6141C12.3158 23.5627 12.2396 23.5328 12.16 23.5289H11.9378C11.8933 23.5289 11.8844 23.5289 11.8844 23.5911V24.5689M11.1111 25.6889H11.2355C11.2566 25.6878 11.2771 25.6825 11.2961 25.6734C11.3151 25.6643 11.3321 25.6515 11.3461 25.6358C11.3602 25.6201 11.371 25.6018 11.3779 25.5819C11.3849 25.5621 11.3878 25.541 11.3866 25.52C11.3913 25.4549 11.3913 25.3895 11.3866 25.3244V23.7867C11.3909 23.7216 11.3909 23.6562 11.3866 23.5911C11.3866 23.4933 11.3333 23.44 11.2266 23.4222H11.1289H12.2844C12.385 23.4136 12.4861 23.4136 12.5866 23.4222C12.7243 23.4593 12.8444 23.5439 12.9257 23.661C13.0071 23.7782 13.0444 23.9203 13.0311 24.0622C13.026 24.1826 12.9828 24.2983 12.9077 24.3925C12.8326 24.4868 12.7295 24.5548 12.6133 24.5867L13.1289 25.3956C13.1911 25.4844 13.2444 25.5733 13.36 25.5911C13.36 25.5911 13.4755 25.6089 13.36 25.5911H12.8C12.7878 25.5981 12.774 25.6018 12.76 25.6018C12.7459 25.6018 12.7321 25.5981 12.72 25.5911L12.0978 24.6133C12.0816 24.5896 12.0577 24.5723 12.0301 24.5642C12.0026 24.5561 11.9731 24.5577 11.9466 24.5689V25.3422C11.9438 25.3674 11.9467 25.3929 11.9551 25.4169C11.9635 25.4408 11.9771 25.4625 11.9951 25.4805C12.013 25.4984 12.0347 25.5121 12.0587 25.5205C12.0826 25.5288 12.1081 25.5317 12.1333 25.5289H12.1866H11.1466C11.1466 25.5289 11.0844 25.5289 11.1466 25.4844" fill="#173B67"/>
<path d="M17.4666 23.4044H17.3155C17.2778 23.4044 17.2416 23.4194 17.215 23.4461C17.1883 23.4728 17.1733 23.5089 17.1733 23.5467C17.1689 23.6058 17.1689 23.6653 17.1733 23.7244V24.9422C17.1645 25.0339 17.1645 25.1261 17.1733 25.2178C17.1842 25.3089 17.2283 25.3928 17.2972 25.4535C17.3661 25.5141 17.4549 25.5473 17.5466 25.5467C17.6153 25.5528 17.6846 25.5447 17.7501 25.5231C17.8156 25.5015 17.876 25.4668 17.9276 25.421C17.9792 25.3752 18.0209 25.3194 18.0501 25.2569C18.0794 25.1945 18.0956 25.1267 18.0978 25.0578C18.0978 24.8978 18.0978 24.7467 18.0978 24.5867C18.0978 24.4267 18.0978 24.0622 18.0978 23.8044C18.1022 23.7482 18.1022 23.6918 18.0978 23.6356C18.0978 23.4844 18.0266 23.4222 17.8755 23.3956C17.8551 23.4005 17.8338 23.4005 17.8133 23.3956H17.8755H18.5066C18.4736 23.3926 18.4404 23.3972 18.4093 23.4088C18.3783 23.4204 18.3502 23.4388 18.3272 23.4627C18.3042 23.4865 18.2868 23.5152 18.2763 23.5467C18.2658 23.5781 18.2625 23.6115 18.2666 23.6444C18.2666 23.9644 18.2666 24.2756 18.2666 24.5867V25.12C18.2481 25.2668 18.1812 25.4032 18.0766 25.5078C17.972 25.6124 17.8356 25.6792 17.6889 25.6978C17.5502 25.7155 17.4098 25.7155 17.2711 25.6978C17.126 25.6778 16.9921 25.6087 16.8918 25.5019C16.7915 25.3952 16.7308 25.2572 16.72 25.1111C16.7155 25.0312 16.7155 24.951 16.72 24.8711V23.7778C16.7246 23.7216 16.7246 23.6651 16.72 23.6089C16.72 23.4756 16.6666 23.4311 16.5244 23.4133H16.4533H16.5333H17.4755C17.4755 23.4133 17.5378 23.4133 17.5289 23.4133" fill="#173B67"/>
<path d="M14.7467 24.8889V24.9422C14.7772 25.0545 14.8158 25.1644 14.8622 25.2711C14.9087 25.364 14.975 25.4455 15.0564 25.51C15.1378 25.5745 15.2323 25.6204 15.3333 25.6444C15.3837 25.6575 15.4362 25.6599 15.4875 25.6514C15.5388 25.643 15.5877 25.624 15.6313 25.5955C15.6748 25.5671 15.7119 25.5298 15.7402 25.4862C15.7685 25.4426 15.7873 25.3936 15.7956 25.3422C15.8055 25.2904 15.8017 25.2369 15.7846 25.187C15.7674 25.1371 15.7375 25.0925 15.6978 25.0578C15.6181 24.9821 15.5318 24.9137 15.44 24.8533C15.2978 24.7644 15.1378 24.6844 14.9956 24.5778C14.877 24.4996 14.7853 24.387 14.7328 24.255C14.6804 24.1231 14.6697 23.9782 14.7022 23.84C14.7232 23.7471 14.7644 23.66 14.8228 23.5848C14.8813 23.5096 14.9555 23.4482 15.0404 23.4049C15.1252 23.3616 15.2185 23.3376 15.3137 23.3344C15.4089 23.3313 15.5036 23.3491 15.5911 23.3867L15.7778 23.4756C15.8667 23.4756 15.9111 23.4756 15.9378 23.3956C15.942 23.381 15.942 23.3656 15.9378 23.3511C15.9378 23.5733 15.9378 23.8044 15.9378 24.0267C15.9378 24.0267 15.8845 24.0267 15.8756 24.0267C15.8393 23.8293 15.7317 23.6521 15.5733 23.5289C15.5177 23.4849 15.4528 23.4541 15.3835 23.4387C15.3143 23.4233 15.2424 23.4237 15.1733 23.44C15.1216 23.4513 15.0737 23.4759 15.0345 23.5115C14.9953 23.5471 14.9662 23.5924 14.95 23.6428C14.9338 23.6932 14.9311 23.747 14.9422 23.7988C14.9533 23.8505 14.9779 23.8985 15.0133 23.9378C15.0747 24.0078 15.1467 24.0678 15.2267 24.1156C15.36 24.1956 15.5022 24.2667 15.6267 24.3556C15.7125 24.4025 15.7904 24.4624 15.8578 24.5333C15.9585 24.624 16.0287 24.7434 16.059 24.8755C16.0892 25.0075 16.0779 25.1457 16.0267 25.2711C15.982 25.3987 15.9009 25.5104 15.7935 25.5926C15.6861 25.6747 15.5571 25.7236 15.4222 25.7333C15.2859 25.7436 15.149 25.7223 15.0222 25.6711L14.9156 25.6178C14.8942 25.6057 14.8705 25.5981 14.8461 25.5956C14.8217 25.5931 14.797 25.5957 14.7736 25.6032C14.7502 25.6108 14.7286 25.623 14.7102 25.6393C14.6918 25.6556 14.677 25.6755 14.6667 25.6978C14.6667 25.6978 14.6667 25.6978 14.6133 25.7511V24.8889" fill="#173B67"/>
<path d="M21.3333 24.8889H21.9733C21.8755 24.6222 21.7688 24.3644 21.6711 24.0978L21.3333 24.8889ZM21.4222 25.6711H20.7822H20.7377V25.6267C20.7881 25.6151 20.8348 25.5912 20.8736 25.557C20.9124 25.5229 20.9421 25.4796 20.96 25.4311L21.1733 24.9422C21.3777 24.4178 21.5911 23.9022 21.7955 23.3867C21.797 23.36 21.797 23.3333 21.7955 23.3067V23.3867L22.5244 25.2356L22.6577 25.5111C22.6725 25.5423 22.6949 25.5693 22.7229 25.5895C22.7508 25.6097 22.7835 25.6225 22.8177 25.6267C22.8177 25.6267 22.8622 25.6267 22.8177 25.6889H22.0088C22.0088 25.6889 21.9466 25.6889 21.9644 25.6444H22.0888C22.1866 25.6444 22.2311 25.5733 22.1955 25.4844C22.16 25.3956 22.0977 25.2089 22.0444 25.0667H22H21.3333H21.2888C21.2424 25.1764 21.2038 25.2893 21.1733 25.4044C21.1733 25.5556 21.1733 25.6267 21.3511 25.6444H21.3955C21.3955 25.6444 21.4488 25.6444 21.3955 25.6978" fill="#173B67"/>
<path d="M20.6044 24.8889V25.1822C20.6044 25.3333 20.6044 25.4844 20.6044 25.6356C20.6044 25.7867 20.6044 25.6978 20.5333 25.6978H18.7288H18.6755H18.7288H18.8177C18.8539 25.6917 18.8869 25.6734 18.9112 25.6459C18.9355 25.6183 18.9495 25.5833 18.9511 25.5467C18.9554 25.4934 18.9554 25.4399 18.9511 25.3867V23.7422C18.9511 23.6978 18.9511 23.6444 18.9511 23.6C18.9523 23.5759 18.9486 23.5518 18.9402 23.5292C18.9318 23.5066 18.9189 23.486 18.9023 23.4685C18.8856 23.451 18.8656 23.4371 18.8434 23.4277C18.8213 23.4182 18.7974 23.4133 18.7733 23.4133H18.7288H18.6666H18.7288H19.7422H19.6177C19.52 23.4133 19.4755 23.4756 19.4577 23.5822C19.44 23.6889 19.4577 23.6711 19.4577 23.7244V25.2533C19.4534 25.3066 19.4534 25.3601 19.4577 25.4133C19.4577 25.4472 19.4705 25.4798 19.4936 25.5046C19.5167 25.5294 19.5484 25.5444 19.5822 25.5467H19.9555C20.0384 25.5449 20.1192 25.5208 20.1896 25.477C20.26 25.4332 20.3173 25.3713 20.3555 25.2978C20.4177 25.1733 20.4622 25.04 20.5155 24.9156C20.5688 24.7911 20.5155 24.8533 20.5866 24.8711" fill="#173B67"/>
<path d="M14.4622 23.4044H14.3378C14.2961 23.4089 14.2576 23.4286 14.2297 23.4598C14.2018 23.491 14.1864 23.5315 14.1867 23.5733C14.1824 23.6503 14.1824 23.7275 14.1867 23.8044V25.2267C14.1823 25.2888 14.1823 25.3512 14.1867 25.4133C14.1867 25.5378 14.24 25.5911 14.3556 25.6089H14.4445H13.44C13.44 25.6089 13.3778 25.6089 13.44 25.5644H13.5733C13.6104 25.5623 13.6453 25.5467 13.6716 25.5204C13.6978 25.4942 13.7134 25.4593 13.7156 25.4222C13.7203 25.3839 13.7203 25.345 13.7156 25.3067V23.5289C13.7156 23.3867 13.6445 23.3156 13.4933 23.3156H13.44H13.4933H14.48C14.48 23.3156 14.5333 23.3156 14.48 23.3156" fill="#173B67"/>
<path d="M20.3377 26.9956V27.1733C20.3715 27.1818 20.4068 27.1821 20.4408 27.1744C20.4748 27.1667 20.5065 27.1511 20.5333 27.1289C20.5599 27.0846 20.574 27.0339 20.574 26.9822C20.574 26.9305 20.5599 26.8798 20.5333 26.8356C20.5149 26.8014 20.4858 26.7743 20.4505 26.7582C20.4151 26.7422 20.3756 26.7381 20.3377 26.7467C20.3377 26.7467 20.2933 26.7467 20.2933 26.7911V26.96M20.5777 27.2089C20.6524 27.385 20.7647 27.5428 20.9066 27.6711H20.64L20.4444 27.3067C20.4212 27.2998 20.3965 27.2998 20.3733 27.3067C20.3694 27.3272 20.3694 27.3483 20.3733 27.3689C20.3688 27.434 20.3688 27.4993 20.3733 27.5644C20.3733 27.6978 20.3733 27.6978 20.4977 27.7511H20.1066C20.1172 27.75 20.1274 27.7468 20.1367 27.7417C20.1459 27.7367 20.1541 27.7298 20.1607 27.7215C20.1674 27.7133 20.1723 27.7038 20.1752 27.6936C20.1781 27.6834 20.179 27.6727 20.1777 27.6622V26.9422C20.1777 26.8356 20.1777 26.8356 20.08 26.8089C20.2577 26.8089 20.4355 26.8089 20.6133 26.8089C20.6731 26.8088 20.7306 26.832 20.7736 26.8734C20.8167 26.9148 20.8421 26.9714 20.8444 27.0311C20.8504 27.0869 20.838 27.1432 20.8091 27.1913C20.7803 27.2394 20.7365 27.2768 20.6844 27.2978" fill="#173B67"/>
<path d="M16.8889 26.7822V27.6C16.8889 27.6 16.8889 27.6533 16.9511 27.6533C16.9946 27.6618 17.0396 27.6537 17.0774 27.6307C17.1152 27.6077 17.1431 27.5714 17.1556 27.5289C17.2283 27.3309 17.2283 27.1135 17.1556 26.9156C17.1374 26.8668 17.1022 26.8264 17.0563 26.8018C17.0105 26.7773 16.9573 26.7703 16.9067 26.7822M16.5867 27.6711C16.6933 27.6267 16.7022 27.6267 16.7022 27.5111V26.8711C16.7022 26.7467 16.7022 26.7467 16.5956 26.7022C16.7733 26.7022 16.96 26.7022 17.1378 26.7022C17.2238 26.7244 17.2998 26.7752 17.3531 26.8463C17.4064 26.9174 17.4339 27.0045 17.4311 27.0933C17.4491 27.1783 17.4491 27.2661 17.4311 27.3511C17.4125 27.4381 17.3642 27.5159 17.2944 27.571C17.2246 27.6262 17.1378 27.6553 17.0489 27.6533H16.6133" fill="#173B67"/>
<path d="M10.8177 26.7378H11.1822C11.1822 26.7378 11.12 26.7378 11.12 26.7911C11.1141 26.8052 11.1111 26.8203 11.1111 26.8356C11.1111 26.8508 11.1141 26.8659 11.12 26.88L11.2444 27.1022C11.2977 27.0133 11.3511 26.9422 11.3955 26.8622C11.44 26.7822 11.3955 26.7733 11.3066 26.7378H11.6088C11.52 26.7378 11.4844 26.8356 11.44 26.8978L11.2888 27.0933C11.2808 27.1051 11.2765 27.1191 11.2765 27.1333C11.2765 27.1476 11.2808 27.1615 11.2888 27.1733C11.36 27.2978 11.4311 27.4222 11.5111 27.5467L11.6266 27.7067H11.2355C11.2355 27.7067 11.2355 27.6622 11.2355 27.6267C11.2355 27.5911 11.1288 27.44 11.0755 27.3333L10.8888 27.6178C10.8888 27.6178 10.8888 27.6889 10.8888 27.7067H10.9511H10.64C10.8177 27.6178 10.88 27.44 10.9955 27.3067C11.0002 27.2986 11.0027 27.2894 11.0027 27.28C11.0027 27.2706 11.0002 27.2614 10.9955 27.2533L10.7466 26.8267C10.7248 26.8029 10.7068 26.7759 10.6933 26.7467" fill="#173B67"/>
<path d="M21.4755 26.7378H22.1689V27.0044C22.1689 27.0044 22.1689 27.0044 22.1689 26.9511C22.1575 26.9047 22.1314 26.8633 22.0946 26.8328C22.0578 26.8024 22.0121 26.7847 21.9644 26.7822C21.8044 26.7822 21.8044 26.7822 21.8044 26.9244V27.1911C21.9644 27.1911 21.9733 27.0667 22.0089 26.9689C22.0089 27.1289 22.0089 27.28 22.0089 27.44C21.9951 27.3883 21.9772 27.3378 21.9555 27.2889C21.9424 27.2639 21.9211 27.2442 21.8953 27.2329C21.8695 27.2216 21.8406 27.2194 21.8133 27.2267V27.5556C21.8133 27.5556 21.8133 27.6267 21.8933 27.6356C21.9682 27.6471 22.0448 27.6309 22.1087 27.59C22.1725 27.5491 22.2192 27.4863 22.24 27.4133V27.7067H21.5111C21.6089 27.7067 21.6266 27.7067 21.6266 27.5822V26.8978C21.6266 26.8 21.6266 26.7822 21.5111 26.7556" fill="#173B67"/>
<path d="M10.6667 27.4133V27.7067H9.95556C9.96686 27.7067 9.97804 27.7044 9.98838 27.6998C9.99871 27.6953 10.008 27.6886 10.0155 27.6802C10.0231 27.6718 10.0288 27.6619 10.0322 27.6511C10.0357 27.6404 10.0368 27.629 10.0356 27.6178V26.8533C10.0356 26.7822 9.98223 26.7733 9.92889 26.7556H10.6667V27.0222C10.6667 27.0222 10.6667 27.0222 10.6667 26.9778C10.6585 26.9291 10.6336 26.8847 10.5963 26.8523C10.559 26.8198 10.5116 26.8014 10.4622 26.8C10.3022 26.8 10.3022 26.8 10.3022 26.9422V27.1822C10.4533 27.1822 10.4622 27.0578 10.4978 26.96V27.4489C10.4533 27.3511 10.4533 27.2267 10.3022 27.2267C10.3022 27.36 10.3022 27.4756 10.3022 27.6C10.3022 27.7244 10.3467 27.6444 10.3733 27.6444C10.4095 27.6538 10.4472 27.6559 10.4842 27.6507C10.5212 27.6455 10.5568 27.6331 10.589 27.6141C10.6212 27.5951 10.6494 27.5699 10.6718 27.5401C10.6943 27.5102 10.7107 27.4762 10.72 27.44" fill="#173B67"/>
<path d="M14.4622 26.9689V27.4489C14.4622 27.36 14.4178 27.2356 14.2667 27.2356C14.2667 27.3689 14.2667 27.4844 14.2667 27.6089C14.2667 27.7333 14.2667 27.6533 14.3289 27.6533C14.409 27.672 14.4933 27.6582 14.5633 27.6149C14.6333 27.5716 14.6832 27.5023 14.7022 27.4222C14.7022 27.4222 14.7022 27.4933 14.7022 27.5378C14.7022 27.5822 14.7022 27.6622 14.7022 27.6978C14.7022 27.7333 14.5956 27.6978 14.5422 27.6978H13.9556C14.0533 27.6978 14.0622 27.6978 14.0622 27.5644V26.8889C14.0622 26.7822 14.0622 26.7733 13.9556 26.7378H14.6489V27.0044V26.9422C14.637 26.9001 14.6129 26.8625 14.5797 26.8341C14.5465 26.8056 14.5056 26.7876 14.4622 26.7822C14.2845 26.7822 14.2845 26.7822 14.2845 26.9333C14.2889 27.0014 14.2889 27.0697 14.2845 27.1378C14.2845 27.1911 14.2845 27.1911 14.3556 27.1378C14.3778 27.132 14.3984 27.1209 14.4154 27.1054C14.4324 27.0899 14.4455 27.0705 14.4533 27.0489V26.9244" fill="#173B67"/>
<path d="M9.6711 27.7067H9.24443C9.27739 27.6911 9.30745 27.6701 9.33332 27.6444C9.34276 27.6095 9.34276 27.5727 9.33332 27.5378V26.8444C9.33332 26.7911 9.33332 26.7733 9.26221 26.7822C9.22379 26.7791 9.18556 26.79 9.15453 26.8129C9.1235 26.8358 9.10176 26.8691 9.09332 26.9067C9.09811 26.9301 9.09811 26.9543 9.09332 26.9778V26.7378H9.83999V26.9778C9.83999 26.8444 9.73332 26.7556 9.57332 26.7822C9.57332 26.7822 9.57332 26.8267 9.57332 26.8533V27.5556C9.57332 27.68 9.57332 27.68 9.69777 27.7244" fill="#173B67"/>
<path d="M12.0089 26.7822C11.9812 26.7688 11.9508 26.7619 11.92 26.7619C11.8892 26.7619 11.8588 26.7688 11.8311 26.7822C11.7934 26.8322 11.7606 26.8858 11.7333 26.9422V26.7022H12.4889V26.9422V26.8622C12.4746 26.8195 12.4446 26.7838 12.405 26.7624C12.3654 26.7409 12.3191 26.7353 12.2756 26.7467V27.5289C12.2756 27.6 12.3289 27.6178 12.3822 27.6267H11.9644C12.0711 27.6267 12.0711 27.6267 12.0711 27.4844V26.7111" fill="#173B67"/>
<path d="M19.7778 27.7067H19.3511C19.4667 27.6622 19.4667 27.6622 19.4667 27.5378V26.8444C19.4667 26.7911 19.4667 26.7733 19.4044 26.7822C19.3638 26.7784 19.323 26.7886 19.289 26.8113C19.255 26.8339 19.2298 26.8676 19.2178 26.9067C19.2178 26.9067 19.2178 26.96 19.2178 26.9778V26.7378H19.9733V26.9778V26.9156C19.9647 26.8698 19.9384 26.8293 19.9002 26.8027C19.8619 26.7761 19.8148 26.7655 19.7689 26.7733C19.7689 26.7733 19.7244 26.7733 19.7244 26.8178V27.5556C19.7244 27.6356 19.7244 27.6533 19.84 27.68" fill="#173B67"/>
<path d="M13.5111 26.7378C13.3955 26.7378 13.3955 26.7378 13.3955 26.9067V27.5556C13.3955 27.6533 13.3955 27.6622 13.5022 27.6711C13.6089 27.68 13.7689 27.6711 13.8222 27.44V27.3867C13.8222 27.4667 13.8222 27.5467 13.8222 27.6356C13.8222 27.7244 13.8222 27.68 13.7777 27.68H13.0666C13.1644 27.68 13.1733 27.68 13.1733 27.5556V26.8711C13.1733 26.7733 13.1733 26.7733 13.0577 26.7289L13.5111 26.7378Z" fill="#173B67"/>
<path d="M15.5555 26.7378C15.4578 26.7378 15.4489 26.7822 15.4489 26.8978V27.5556C15.4489 27.68 15.4489 27.68 15.5733 27.7244H15.1111C15.2089 27.7244 15.2178 27.7244 15.2178 27.5822V26.9244C15.2178 26.8 15.2178 26.8 15.0933 26.7644L15.5555 26.7378Z" fill="#173B67"/>
<path d="M12.5867 27.6978C12.6844 27.6978 12.6933 27.6978 12.6933 27.5556V26.8889C12.6933 26.7733 12.6933 26.7733 12.5867 26.7378H13.0133C12.8978 26.7822 12.8978 26.7822 12.8978 26.8978V27.5556C12.8978 27.6711 12.8978 27.68 13.0044 27.7067L12.5867 27.6978Z" fill="#173B67"/>
<path d="M20.9688 26.7378H21.3333C21.2622 26.7378 21.2444 26.7378 21.2444 26.8356V27.5556C21.2444 27.6711 21.2444 27.68 21.36 27.7067H20.9688C21.0222 27.7067 21.04 27.7067 21.0488 27.6178V26.8444C21.0488 26.7733 20.9955 26.7467 20.9333 26.7467" fill="#173B67"/>
</g>
<defs>
<clipPath id="clip0_2707_266763">
<rect width="32" height="32" fill="white"/>
</clipPath>
</defs>
</svg>
