<svg width="32" height="32" viewBox="0 0 32 32" fill="none" xmlns="http://www.w3.org/2000/svg">
<g clip-path="url(#clip0_2707_266643)">
<mask id="mask0_2707_266643" style="mask-type:luminance" maskUnits="userSpaceOnUse" x="0" y="0" width="32" height="32">
<path d="M31.986 0.0253754H0.015564V31.9958H31.986V0.0253754Z" fill="white"/>
</mask>
<g mask="url(#mask0_2707_266643)">
<path d="M16.0008 31.9958C24.8291 31.9958 31.986 24.839 31.986 16.0106C31.986 7.18219 24.8291 0.0253754 16.0008 0.0253754C7.17238 0.0253754 0.015564 7.18219 0.015564 16.0106C0.015564 24.839 7.17238 31.9958 16.0008 31.9958Z" fill="white"/>
<path d="M3.57013 17.7478H11.349C11.357 17.8059 11.3574 17.8642 11.3739 17.9175C11.4331 18.1089 11.5345 18.277 11.6699 18.4246C11.8232 18.5919 12.01 18.7169 12.1923 18.8495C12.4965 19.0707 12.8412 19.2027 13.1881 19.3315C13.2635 19.3594 13.348 19.3617 13.4256 19.3845C13.6118 19.4393 13.7954 19.5034 13.9822 19.5559C14.1544 19.6042 14.3291 19.6435 14.5033 19.6843C14.7012 19.7305 14.8991 19.777 15.0982 19.8177C15.2559 19.8499 15.4149 19.8757 15.574 19.9004C15.7811 19.9325 15.9886 19.9613 16.1962 19.9904C16.3585 20.0132 16.5209 20.0367 16.6837 20.0559C16.9584 20.0883 17.233 20.1204 17.5082 20.1472C17.7382 20.1694 17.9687 20.1866 18.1993 20.201C18.6668 20.2303 19.1346 20.2559 19.6022 20.2839C19.6308 20.2857 19.659 20.2955 19.6989 20.3041C19.6831 20.3451 19.6719 20.375 19.6602 20.4046C19.6101 20.531 19.558 20.6566 19.5108 20.784C19.4923 20.8336 19.4593 20.847 19.4126 20.8462C19.1053 20.8404 18.7981 20.8344 18.4908 20.8295C18.2625 20.8257 18.0342 20.8235 17.8058 20.8206C17.6019 20.818 17.3978 20.8177 17.1939 20.812C16.7558 20.8 16.3178 20.7844 15.8797 20.7716C15.4997 20.7604 15.1194 20.7565 14.7397 20.7395C14.3905 20.7238 14.0419 20.6954 13.6931 20.672C13.4868 20.6581 13.2804 20.6456 13.0744 20.6277C12.8687 20.6099 12.6635 20.5854 12.458 20.5651C12.174 20.5372 11.8896 20.5137 11.606 20.482C11.3496 20.4535 11.0941 20.4163 10.8382 20.3831C10.6305 20.3563 10.4221 20.3336 10.215 20.3022C9.94192 20.2609 9.66984 20.2128 9.3973 20.1677C9.22664 20.1396 9.0556 20.113 8.88524 20.0832C8.71799 20.0538 8.55082 20.0236 8.38449 19.9893C8.12896 19.9366 7.87379 19.882 7.61924 19.8246C7.40057 19.7754 7.18151 19.7266 6.9653 19.6678C6.68186 19.5907 6.39918 19.5095 6.11995 19.4187C5.99544 19.3782 5.86637 19.3657 5.74243 19.3303C5.41754 19.2372 5.11575 19.0854 4.81097 18.9437C4.51041 18.804 4.22011 18.6423 3.96899 18.422C3.84312 18.3116 3.7507 18.1712 3.66264 18.0296C3.63084 17.9786 3.60334 17.9238 3.58271 17.8675C3.57004 17.8331 3.57416 17.7924 3.57013 17.7478Z" fill="#E22029"/>
<path d="M28.7299 14.4087H23.7153C23.7131 14.3967 23.7079 14.3852 23.7093 14.3745C23.732 14.1926 23.6877 14.0239 23.6054 13.8642C23.584 13.8227 23.5474 13.7892 23.5177 13.752C23.5064 13.7379 23.491 13.7254 23.4844 13.7093C23.4113 13.53 23.2546 13.4297 23.1097 13.3224C22.8104 13.1006 22.4721 12.9509 22.1327 12.8007C21.8787 12.6883 21.615 12.6099 21.3519 12.5282C21.1555 12.4672 20.9543 12.4198 20.7533 12.3753C20.6444 12.3513 20.5307 12.3499 20.4204 12.3313C20.2531 12.303 20.087 12.2683 19.9202 12.237C19.8367 12.2213 19.7531 12.2055 19.6691 12.1926C19.5581 12.1755 19.4467 12.1615 19.3356 12.1455C19.1347 12.1167 18.9343 12.085 18.7331 12.0592C18.5583 12.0368 18.3827 12.0206 18.2073 12.0024C18.0684 11.9879 17.9294 11.973 17.7902 11.9609C17.5146 11.9372 17.239 11.9128 16.9631 11.8931C16.6205 11.8686 16.2777 11.8454 15.9347 11.8278C15.7128 11.8166 15.4902 11.8203 15.2682 11.8107C13.9501 11.7536 12.6316 11.7803 11.3133 11.7903C10.9697 11.7929 10.6264 11.8194 10.283 11.836C10.0795 11.8459 9.87599 11.8554 9.67271 11.8692C9.3361 11.892 8.99932 11.9151 8.66309 11.9437C8.31802 11.9731 7.97319 12.0065 7.62873 12.0431C7.3206 12.0758 7.01265 12.1107 6.70574 12.153C6.41439 12.1931 6.12494 12.2467 5.8338 12.2893C5.60912 12.322 5.38237 12.3413 5.15807 12.3765C4.94864 12.4095 4.74062 12.453 4.53299 12.4966C4.36752 12.5314 4.2037 12.5739 4.03881 12.6114C4.01703 12.6164 3.9932 12.6121 3.96857 12.6007C4.20293 12.5279 4.43723 12.455 4.67183 12.3827C4.69483 12.3756 4.71943 12.3673 4.74275 12.3687C4.89834 12.3784 5.03845 12.3114 5.18528 12.2796C5.35641 12.2424 5.52416 12.1904 5.69393 12.147C5.82566 12.1132 5.95763 12.0803 6.09051 12.0515C6.23817 12.0196 6.38695 11.9934 6.53499 11.9634C6.57646 11.955 6.6166 11.94 6.65805 11.9312C6.82651 11.8952 6.99465 11.8571 7.16419 11.8264C7.33982 11.7945 7.5171 11.7717 7.69327 11.7421C7.87567 11.7115 8.05737 11.6758 8.23984 11.6453C8.3473 11.6274 8.45555 11.6144 8.56366 11.6005C8.69296 11.5838 8.82241 11.5689 8.95172 11.5525C9.11704 11.5316 9.28208 11.5081 9.44764 11.4889C9.7402 11.455 10.0328 11.4214 10.3258 11.392C10.5344 11.3709 10.7437 11.357 10.9526 11.3398C11.1827 11.3207 11.4126 11.2971 11.643 11.2833C12.0166 11.2609 12.3904 11.2428 12.7642 11.2268C13.1045 11.2124 13.4454 11.2098 13.7853 11.1899C14.418 11.1528 15.0511 11.1571 15.684 11.164C16.1372 11.1691 16.5904 11.1916 17.0433 11.2121C17.3743 11.2271 17.7052 11.2483 18.0357 11.2725C18.2477 11.288 18.459 11.3147 18.6707 11.3349C18.834 11.3505 18.9978 11.3616 19.161 11.3783C19.3242 11.395 19.4871 11.4155 19.6499 11.4357C19.7824 11.4521 19.9146 11.471 20.047 11.4881C20.1885 11.5064 20.3304 11.5218 20.4716 11.5423C20.6759 11.572 20.8801 11.6026 21.0836 11.6371C21.3349 11.6796 21.5856 11.7262 21.8364 11.7717C21.9855 11.7988 22.1346 11.8259 22.2832 11.8556C22.4347 11.8859 22.5856 11.92 22.7369 11.9515C22.8794 11.9811 23.0223 12.0084 23.1646 12.0387C23.2533 12.0577 23.3413 12.0794 23.4292 12.1018C23.6262 12.152 23.8229 12.2034 24.0198 12.2541C24.1401 12.2852 24.2604 12.3165 24.381 12.3465C24.416 12.3553 24.4527 12.3682 24.4876 12.3653C24.5944 12.3564 24.6914 12.3945 24.7891 12.4244C25.0381 12.5008 25.2859 12.5814 25.5333 12.6627C25.7573 12.7363 25.984 12.8039 26.2029 12.8907C26.5768 13.0388 26.9478 13.1947 27.3154 13.3577C27.4892 13.4349 27.6516 13.5376 27.8205 13.6262C27.9242 13.6805 28.0359 13.7211 28.134 13.7836C28.254 13.8599 28.3688 13.9466 28.4757 14.0405C28.5494 14.1053 28.6091 14.1874 28.6687 14.2667C28.6947 14.3015 28.7047 14.3483 28.7299 14.4087Z" fill="#E22029"/>
<path d="M13.8975 13.0394H15.1522C15.2337 13.6166 15.3149 14.1924 15.3972 14.7757C15.421 14.7798 15.4463 14.7843 15.471 14.7886C15.6901 14.2025 15.9065 13.6237 16.1253 13.0385H17.3488C17.3237 13.1124 16.0064 16.744 15.9523 16.8728H14.6494C14.6377 16.7997 14.623 16.7265 14.615 16.6525C14.5913 16.4352 14.5695 16.2176 14.5483 15.9999C14.532 15.8336 14.5178 15.6671 14.5023 15.5006C14.4917 15.3864 14.4803 15.2721 14.4687 15.1525H14.3737C14.1592 15.7304 13.968 16.3115 13.726 16.8776C13.4073 16.8773 13.0961 16.8791 12.7754 16.8764C12.7797 16.7924 12.7779 16.7256 12.7874 16.6603C12.8177 16.4532 12.8526 16.2468 12.8848 16.0399C12.8982 15.9531 12.8987 15.8629 12.9237 15.7798C12.9742 15.6124 13.8286 13.2329 13.8975 13.0394Z" fill="#030303"/>
<path d="M7.91482 14.5968C8.01408 14.5857 8.09995 14.5722 8.18627 14.5675C8.3379 14.5592 8.44541 14.4859 8.50621 14.3505C8.56068 14.2294 8.60816 14.1047 8.65266 13.9794C8.67542 13.9153 8.68495 13.8464 8.6986 13.7876C8.56015 13.6264 8.38902 13.6511 8.21294 13.6483C8.17591 13.7375 8.13332 13.8243 8.10407 13.9154C8.07947 13.9921 8.07725 14.076 8.05271 14.1528C8.01683 14.265 7.96831 14.3732 7.92862 14.4842C7.91808 14.5137 7.92039 14.5475 7.91482 14.5968ZM7.46072 13.0247C7.87518 13.0319 8.2858 13.0377 8.69638 13.0465C8.91848 13.0512 9.14148 13.0504 9.36228 13.0714C9.57272 13.0915 9.78394 13.1269 9.95148 13.2789C10.0992 13.413 10.1352 13.5751 10.0912 13.7662C10.042 13.9802 9.96726 14.1825 9.86232 14.3757C9.76008 14.564 9.60748 14.6911 9.41189 14.7668C9.33943 14.7949 9.25921 14.8042 9.18171 14.8174C9.1008 14.8313 9.01898 14.8397 8.93752 14.85C8.90013 14.8547 8.87071 14.865 8.88672 14.9193C8.98559 14.9455 9.08808 14.9711 9.18958 15C9.23893 15.0141 9.28884 15.0297 9.33463 15.0525C9.48421 15.1267 9.53403 15.2635 9.48329 15.4385C9.46912 15.4873 9.05229 16.7246 8.99323 16.8636C8.97485 16.8667 8.94317 16.8767 8.91138 16.8769C8.52466 16.8783 8.1379 16.8787 7.75109 16.8782C7.71285 16.8782 7.67457 16.8708 7.62256 16.8654C7.65743 16.7673 7.68677 16.6801 7.7193 16.594C7.79733 16.3881 7.87711 16.1828 7.95558 15.9771C7.98042 15.9122 8.00907 15.8481 8.02636 15.7812C8.06476 15.6325 8.09927 15.4827 8.13127 15.3323C8.15102 15.2394 8.09912 15.1279 7.9737 15.1456C7.91168 15.1543 7.84656 15.1381 7.78277 15.137C7.74772 15.1364 7.71252 15.1436 7.68144 15.1469C7.46658 15.7279 7.25576 16.2983 7.0441 16.8706H5.54901C5.93147 15.8404 6.30869 14.8242 6.68722 13.8045H7.12714C7.20913 13.7275 7.22154 13.6239 7.25765 13.5332C7.31467 13.39 7.36105 13.2426 7.41371 13.0977C7.42171 13.0757 7.43938 13.0573 7.46072 13.0247Z" fill="#030303"/>
<path d="M11.8507 13.843C11.7692 13.9059 10.9189 15.4296 10.8984 15.5463H11.5185C11.6431 14.9872 11.766 14.436 11.8899 13.8802C11.8793 13.8701 11.8664 13.8579 11.8507 13.843ZM13.196 13.0353C13.1894 13.1246 12.7132 16.6293 12.6815 16.8297C12.6797 16.8413 12.6741 16.8524 12.6678 16.8707H11.1668C11.1746 16.6364 11.2991 16.4313 11.318 16.1975H10.7118C10.5952 16.4144 10.4754 16.6374 10.3506 16.8696H9.09338C9.12319 16.7776 9.495 15.6453 9.54428 15.5488C9.6076 15.4249 10.955 13.0674 10.9742 13.0353H13.196Z" fill="#030303"/>
<path d="M23.7797 15.7655V15.7636C23.7767 15.7636 23.7736 15.7638 23.7706 15.7636C23.6889 15.7604 23.6143 15.7801 23.549 15.831C23.4911 15.8762 23.4534 15.9311 23.4586 16.0087C23.4591 16.0167 23.452 16.0254 23.4488 16.0337C23.353 16.2815 23.2557 16.5287 23.1618 16.7772C22.9976 17.2115 22.8341 17.646 22.6737 18.0818C22.6426 18.1663 22.6234 18.2559 22.6054 18.3445C22.5908 18.4168 22.6247 18.476 22.6846 18.5024C22.811 18.5581 23.0169 18.5042 23.0967 18.3913C23.1262 18.3496 23.1519 18.3042 23.1727 18.2574C23.2133 18.1662 23.2473 18.0721 23.2874 17.9808C23.3651 17.804 23.4528 17.6309 23.4655 17.4329C23.4667 17.4154 23.475 17.3982 23.4811 17.3813C23.5243 17.2589 23.5674 17.1364 23.6117 17.0144C23.6653 16.8665 23.7132 16.7161 23.776 16.5722C23.8645 16.3691 23.9448 16.1642 23.9887 15.9465C24.0093 15.8444 23.9564 15.7747 23.8527 15.7658C23.8286 15.7637 23.804 15.7655 23.7797 15.7655ZM21.7498 18.9729C21.6852 18.7737 21.6248 18.5806 21.5599 18.3889C21.5076 18.2345 21.4488 18.0823 21.3959 17.928C21.3858 17.8983 21.3792 17.8601 21.3889 17.8322C21.4968 17.5233 21.6079 17.2156 21.7185 16.9078C21.7502 16.8196 21.7825 16.7316 21.8159 16.6439C21.8495 16.5559 21.9014 16.481 21.9598 16.4056C22.1483 16.1626 22.3834 15.9662 22.5959 15.7476C22.7188 15.6212 22.8462 15.4989 22.9756 15.3792C23.012 15.3454 23.0601 15.3131 23.1074 15.3042C23.2767 15.2722 23.4473 15.2351 23.6185 15.2283C23.9317 15.2159 24.2457 15.2182 24.5592 15.225C24.8139 15.2304 25.0484 15.3107 25.2497 15.4703C25.3925 15.5835 25.4751 15.7334 25.4703 15.919C25.4684 15.9907 25.4514 16.0641 25.4285 16.1325C25.3656 16.3213 25.2959 16.5078 25.2291 16.6953C25.1522 16.9113 25.0757 17.1274 24.9986 17.3434C24.9692 17.4259 24.94 17.5084 24.909 17.5904C24.8802 17.6666 24.8434 17.7396 24.8493 17.826C24.8511 17.8529 24.8315 17.8823 24.8184 17.9089C24.7618 18.0254 24.7077 18.1431 24.646 18.2568C24.5086 18.5104 24.285 18.6715 24.0375 18.8019C23.8712 18.8896 23.6949 18.9512 23.5107 18.9961C23.3589 19.033 23.2068 19.0542 23.0526 19.0569C22.7725 19.0618 22.4923 19.0588 22.2122 19.058C22.0561 19.0575 21.9067 19.0204 21.7498 18.9729Z" fill="#030303"/>
<path d="M27.4064 18.9642C27.3993 18.9833 27.3839 18.9994 27.3733 19.0156H26.1094C26.0526 18.446 25.9966 17.8842 25.9397 17.3143H25.8562C25.7868 17.5083 25.722 17.6966 25.6522 17.8831C25.5495 18.1574 25.4429 18.4301 25.3391 18.704C25.308 18.786 25.2799 18.869 25.2525 18.9522C25.2375 18.9979 25.2121 19.0238 25.1607 19.0237C24.8014 19.0226 24.4422 19.0228 24.0829 19.022C24.0746 19.022 24.0663 19.0164 24.0471 19.0094C24.0666 18.9444 24.0728 18.8804 24.1438 18.8393C24.3375 18.7276 24.5157 18.5947 24.6452 18.4089C24.7405 18.2722 24.817 18.1264 24.8567 17.9604C24.8832 17.8496 24.9368 17.7454 24.9762 17.6375C25.0822 17.3474 25.1867 17.0567 25.2927 16.7666C25.331 16.6618 25.3723 16.5581 25.4123 16.4539C25.417 16.4437 25.4218 16.4335 25.4265 16.4233C25.4348 16.3919 25.4432 16.3604 25.4515 16.329C25.4558 16.3291 25.4601 16.3292 25.4644 16.3292C25.4633 16.3231 25.4622 16.3168 25.461 16.3107C25.4709 16.2747 25.4808 16.2387 25.4907 16.2027C25.4948 16.2022 25.4988 16.2018 25.5028 16.2012C25.5015 16.1954 25.5001 16.1894 25.4988 16.1835C25.5032 16.1638 25.5077 16.1443 25.5122 16.1246C25.5198 16.0963 25.5275 16.068 25.5352 16.0397C25.5394 16.0007 25.5437 15.9617 25.548 15.9227V15.8438C25.5427 15.8117 25.5375 15.7797 25.5323 15.7477C25.5184 15.7118 25.5045 15.676 25.4906 15.6401C25.4654 15.6003 25.4401 15.5606 25.4149 15.5209C25.4083 15.5121 25.4017 15.5033 25.3953 15.4946C25.3819 15.4799 25.3687 15.4652 25.3554 15.4506C25.3544 15.4216 25.3532 15.3926 25.3521 15.3637C25.3607 15.338 25.3694 15.3122 25.378 15.2865C25.382 15.2872 25.3861 15.288 25.3901 15.2888C25.3905 15.2827 25.3908 15.2766 25.3911 15.2706C25.4145 15.2663 25.4379 15.2582 25.4613 15.2581C25.8274 15.2573 26.1935 15.2574 26.5596 15.2576C26.5713 15.2576 26.583 15.2605 26.5985 15.2626C26.6018 15.2809 26.605 15.2979 26.6082 15.315C26.5962 15.3695 26.8234 16.8467 26.8271 16.8868C26.8068 16.9361 26.8377 16.9561 26.8902 16.9817C26.909 16.9547 26.9332 16.9299 26.9458 16.9002C27.0036 16.7635 27.5171 15.388 27.5662 15.2616C27.9416 15.2604 28.3169 15.2591 28.6923 15.2584C28.7005 15.2583 28.7088 15.2639 28.7245 15.2694C28.7207 15.2886 28.7169 15.3077 28.7132 15.3266" fill="#030303"/>
<path d="M17.708 15.5522C17.681 15.6402 17.6619 15.7089 17.6387 15.7762C17.5983 15.8933 17.549 16.0076 17.5153 16.1264C17.4755 16.2664 17.498 16.377 17.6924 16.3966C17.9498 16.4227 18.1215 16.2549 18.1906 16.0555C18.2277 15.9479 18.2492 15.8335 18.2656 15.7204C18.2793 15.6255 18.2299 15.5502 18.1528 15.4964C18.098 15.4583 18.0401 15.4247 17.9834 15.3896C17.8808 15.3261 17.781 15.2571 17.6742 15.2016C17.598 15.162 17.5082 15.1486 17.4318 15.1092C17.2866 15.0343 17.1464 14.9496 17.0049 14.8678C16.9761 14.8512 16.9482 14.8315 16.9243 14.8086C16.8449 14.7323 16.8156 14.7169 16.8678 14.5809C16.9652 14.3275 17.0487 14.0686 17.1419 13.8133C17.1978 13.6604 17.2594 13.5095 17.3225 13.3595C17.3343 13.3313 17.3612 13.3019 17.3886 13.2893C17.5308 13.2237 17.6746 13.1617 17.8193 13.1016C17.9792 13.0352 18.1488 13.029 18.3187 13.0295C18.809 13.0309 19.2994 13.0311 19.7896 13.0363C19.9171 13.0376 20.0447 13.0522 20.1717 13.0657C20.3465 13.0842 20.5204 13.235 20.5613 13.4033C20.5687 13.4336 20.5658 13.4715 20.5542 13.5006C20.4994 13.6374 20.4364 13.771 20.3834 13.9085C20.3577 13.975 20.3475 14.0474 20.3296 14.1206C20.2731 14.1454 19.0519 14.1538 18.9263 14.1253C18.9335 14.0977 18.9391 14.0697 18.9479 14.0428C18.9788 13.9478 19.0151 13.8543 19.0414 13.7581C19.072 13.646 19.0309 13.5911 18.9181 13.5741C18.8096 13.5577 18.7023 13.5392 18.5927 13.571C18.433 13.6174 18.3263 13.7202 18.2682 13.8728C18.2481 13.9256 18.2402 13.9837 18.2307 14.04C18.2103 14.1601 18.2641 14.2491 18.3625 14.3079C18.4712 14.3729 18.5848 14.4301 18.6981 14.4867C18.8552 14.5651 19.0241 14.6245 19.1699 14.7196C19.3586 14.8429 19.5643 14.9503 19.703 15.1379C19.7323 15.1774 19.7586 15.2273 19.7638 15.2748C19.7821 15.4426 19.7649 15.6086 19.7037 15.7674C19.6462 15.9164 19.5911 16.0668 19.5251 16.212C19.409 16.4675 19.1977 16.6177 18.9447 16.7209C18.6911 16.8243 18.4303 16.8791 18.1554 16.8751C17.6926 16.8686 17.2296 16.8744 16.767 16.8636C16.5478 16.8584 16.3718 16.743 16.2207 16.5897C16.1906 16.559 16.1806 16.5267 16.1975 16.4825C16.2771 16.2738 16.3543 16.0642 16.4305 15.8542C16.4395 15.8294 16.4345 15.7999 16.4404 15.7734C16.4542 15.7122 16.4667 15.6499 16.4887 15.5915C16.4956 15.5729 16.5309 15.554 16.5533 15.5539C16.9305 15.5516 17.3077 15.5522 17.708 15.5522Z" fill="#030303"/>
<path d="M21.0485 17.1321C21.2643 17.7741 21.4707 18.3883 21.6815 19.0152H20.2914C20.1526 18.4534 20.0135 17.8901 19.8728 17.3212C19.812 17.3994 19.2893 18.7562 19.242 19.0163H17.8289C17.8289 18.9953 17.8263 18.9802 17.8292 18.9664C17.8697 18.7779 17.9151 18.591 17.9873 18.4114C18.0334 18.2966 18.0745 18.1798 18.1182 18.064C18.1841 17.889 18.251 17.7144 18.3166 17.5392C18.3896 17.3442 18.4616 17.1488 18.5392 16.9397C18.6007 16.9197 18.6725 16.8988 18.7422 16.8729C18.8697 16.8253 18.9981 16.7794 19.1218 16.7233C19.1776 16.6979 19.2227 16.6492 19.2733 16.612C19.307 16.5871 19.3424 16.5647 19.3757 16.5395C19.3994 16.5215 19.4239 16.5031 19.443 16.4805C19.5755 16.3232 19.6616 16.1407 19.7321 15.9492C19.8092 15.7396 19.8619 15.5264 19.8482 15.3008C19.8475 15.2894 19.8524 15.2776 19.8552 15.264H20.6018C20.5608 15.3825 20.5247 15.4903 20.486 15.5973C20.3937 15.8526 20.3008 16.1077 20.2066 16.3623C20.1805 16.4331 20.1467 16.501 20.1211 16.572C20.1055 16.615 20.0991 16.6614 20.0885 16.7063L20.1112 16.7222C20.1354 16.7105 20.1643 16.7037 20.1832 16.6862C20.3139 16.565 20.4466 16.4455 20.5706 16.3176C20.6625 16.2226 20.7376 16.1116 20.8282 16.0153C21.0532 15.776 21.282 15.5403 21.5118 15.3057C21.5364 15.2806 21.5778 15.2579 21.6115 15.2577C22.0408 15.2547 22.4701 15.256 22.8995 15.2566C22.9139 15.2566 22.9283 15.2603 22.9538 15.2638C22.9399 15.2868 22.933 15.3059 22.92 15.3187C22.6528 15.5803 22.3837 15.8399 22.1182 16.103C22.0525 16.1682 22.0043 16.2512 21.9372 16.3146C21.735 16.5059 21.5273 16.6914 21.322 16.8794C21.2305 16.9632 21.1397 17.0478 21.0485 17.1321Z" fill="#030303"/>
<path d="M5.03004 16.8717H3.54688C3.55833 16.8276 3.56387 16.7927 3.5763 16.7604C3.66606 16.5262 4.56268 14.0146 4.65447 13.7591C4.19087 13.7554 3.73814 13.7618 3.27161 13.7563C3.36411 13.5034 3.44975 13.2692 3.53554 13.0347H7.31995C7.35728 13.091 7.16217 13.556 7.09177 13.7499C7.05397 13.753 7.01848 13.7582 6.98296 13.7582C6.73625 13.7588 6.48955 13.7579 6.24284 13.7586C6.21069 13.7587 6.17846 13.7647 6.1466 13.7679C6.02828 14.0978 5.06011 16.7914 5.03004 16.8717Z" fill="#030303"/>
<path d="M24.2914 19.3937C24.3625 19.6553 24.43 19.9033 24.4968 20.1494C24.5402 20.1686 24.5533 20.1465 24.5645 20.1129C24.6115 19.9718 24.6597 19.8313 24.7087 19.6909C24.7433 19.5917 24.7798 19.4932 24.8136 19.3994H25.4154C25.3487 19.6543 25.2539 19.8894 25.176 20.1295C25.0976 20.3706 25.0067 20.6078 24.9171 20.8586C24.7038 20.863 24.4937 20.8625 24.28 20.8586C24.223 20.5786 24.1689 20.3128 24.1148 20.047C24.1073 20.0442 24.0998 20.0413 24.0924 20.0385C24.0776 20.055 24.0562 20.069 24.0492 20.0883C23.9986 20.2278 23.9523 20.3689 23.9021 20.5086C23.8613 20.6221 23.817 20.7344 23.7721 20.8528H23.1682C23.1753 20.8208 23.1785 20.7949 23.187 20.7709C23.2752 20.5224 23.3863 20.2793 23.446 20.0241C23.4911 19.832 23.5514 19.6467 23.6088 19.4594C23.621 19.4197 23.6419 19.3941 23.6847 19.3939C23.8852 19.3934 24.0856 19.3937 24.2914 19.3937Z" fill="#E22029"/>
<path d="M21.3014 19.6538C21.2183 19.5892 21.1187 19.5984 21.02 19.6103C21.0062 19.612 20.9885 19.6319 20.9833 19.6471C20.9471 19.7521 20.9136 19.8582 20.8791 19.9646C21.1475 20.0222 21.3278 19.9341 21.3014 19.6538ZM20.3606 19.3978C20.3998 19.396 20.4297 19.3935 20.4597 19.3935C20.7792 19.3933 21.0988 19.3902 21.4183 19.395C21.5848 19.3975 21.7526 19.4039 21.9118 19.4634C22.0218 19.5045 22.0563 19.5772 22.0199 19.6858C22.0113 19.7117 22.002 19.7374 21.9946 19.7637C21.9456 19.9383 21.8435 20.0181 21.6384 20.0526C21.5617 20.0654 21.485 20.0777 21.4083 20.0903C21.4083 20.0972 21.4084 20.1041 21.4084 20.1111C21.4894 20.1262 21.5709 20.1393 21.6513 20.1574C21.689 20.166 21.7271 20.1801 21.7606 20.1993C21.8196 20.2333 21.8425 20.2942 21.8154 20.3757C21.7658 20.5248 21.7079 20.6711 21.6523 20.8181C21.6473 20.8315 21.6345 20.842 21.6256 20.8535H20.9306C20.9424 20.812 20.9494 20.7809 20.96 20.7511C21.0116 20.6058 21.066 20.4614 21.1155 20.3154C21.1324 20.2657 21.1044 20.2147 21.0528 20.2C20.9719 20.1767 20.8888 20.1452 20.7843 20.2172C20.7259 20.4109 20.6608 20.627 20.5908 20.8595C20.354 20.8641 20.1107 20.8602 19.8563 20.8609C20.0282 20.3623 20.194 19.8811 20.3606 19.3978Z" fill="#E22029"/>
<path d="M23.5011 19.3994C23.4824 19.4908 23.467 19.5666 23.4489 19.6554C23.2662 19.6607 23.0796 19.6661 22.8878 19.6717C22.8534 19.7725 22.8206 19.8686 22.7834 19.9772C22.9581 20.0153 23.1228 19.9719 23.2963 20.0056C23.2759 20.0791 23.2567 20.1476 23.2349 20.2261C23.1998 20.2317 23.1655 20.2413 23.131 20.2419C23.0215 20.2439 22.9118 20.2426 22.8023 20.2427C22.696 20.2428 22.6858 20.2517 22.6552 20.3515C22.6374 20.4094 22.6135 20.4654 22.5949 20.5232C22.585 20.554 22.5804 20.5866 22.5703 20.633H23.171C23.1379 20.7157 23.1119 20.7811 23.083 20.8534H21.7457C21.7488 20.8266 21.7471 20.8027 21.7544 20.7821C21.8358 20.5541 21.9206 20.3274 21.9996 20.0986C22.0209 20.0369 22.0209 19.9682 22.0384 19.9049C22.0649 19.8088 22.0976 19.7145 22.1288 19.6197C22.1449 19.5708 22.1703 19.5238 22.1789 19.4739C22.1905 19.4065 22.2292 19.3915 22.2883 19.3933C22.3583 19.3953 22.4284 19.3933 22.4984 19.3933C22.7997 19.3933 23.1011 19.3933 23.4025 19.3938C23.432 19.3938 23.4616 19.397 23.5011 19.3994Z" fill="#E22029"/>
<path d="M25.4696 20.8529C25.54 20.6521 25.6083 20.46 25.6747 20.267C25.7403 20.076 25.804 19.8843 25.8742 19.6761C25.7125 19.6516 25.561 19.68 25.3964 19.6564C25.4269 19.5654 25.4539 19.4845 25.4824 19.3996H27.1923C27.1629 19.4897 27.1365 19.5705 27.1059 19.6638H26.6186C26.4831 20.0636 26.3514 20.4518 26.2154 20.8529H25.4696Z" fill="#E22029"/>
<path d="M28.7204 20.7488H28.5792V20.4061C28.57 20.4045 28.5608 20.4029 28.5516 20.4013C28.5137 20.518 28.4757 20.6346 28.4387 20.7484H28.2601C28.2272 20.6375 28.1958 20.5315 28.1614 20.4154C28.1225 20.471 28.1462 20.5255 28.1421 20.5754C28.1377 20.6291 28.1411 20.6835 28.1411 20.7469C28.0911 20.7499 28.0507 20.7523 28.0012 20.7552V20.164H28.2134C28.2546 20.2989 28.2973 20.4388 28.3401 20.5789C28.3867 20.5444 28.4492 20.3712 28.4811 20.1844C28.5515 20.1338 28.6343 20.168 28.7204 20.1578V20.7488Z" fill="#030303"/>
<path d="M27.7192 20.7487C27.6788 20.752 27.6445 20.7548 27.5968 20.7587V20.3015C27.544 20.2954 27.503 20.2906 27.452 20.2848C27.4486 20.2462 27.4454 20.2091 27.4415 20.1638H27.8796V20.2875C27.8306 20.2914 27.7892 20.2947 27.7388 20.2987C27.711 20.4444 27.7422 20.5906 27.7192 20.7487Z" fill="#030303"/>
</g>
</g>
<defs>
<clipPath id="clip0_2707_266643">
<rect width="32" height="32" fill="white"/>
</clipPath>
</defs>
</svg>
