<svg width="32" height="32" viewBox="0 0 32 32" fill="none" xmlns="http://www.w3.org/2000/svg">
<g clip-path="url(#clip0_2810_58390)">
<mask id="mask0_2810_58390" style="mask-type:luminance" maskUnits="userSpaceOnUse" x="0" y="0" width="32" height="32">
<path d="M31.9909 0.0178223H0.0175781V31.9912H31.9909V0.0178223Z" fill="white"/>
</mask>
<g mask="url(#mask0_2810_58390)">
<path d="M15.9998 31.9823C24.8265 31.9823 31.982 24.8268 31.982 16C31.982 7.17331 24.8265 0.0178223 15.9998 0.0178223C7.17306 0.0178223 0.0175781 7.17331 0.0175781 16C0.0175781 24.8268 7.17306 31.9823 15.9998 31.9823Z" fill="white"/>
<path d="M18.044 11.7334C18.0618 12.1067 17.9463 12.4801 17.8663 12.8623C17.7507 13.4578 17.9818 13.9823 18.5152 14.2667C18.6129 14.3201 18.7196 14.3467 18.8263 14.3734C19.4574 14.5067 19.9907 14.8001 20.3907 15.3067C20.7285 15.7334 20.9418 16.2134 20.9596 16.7734C20.9863 17.7512 20.5774 18.4889 19.7774 19.0134C19.2085 19.3867 18.5596 19.4934 17.9018 19.3334C16.8618 19.0845 16.2396 18.4089 15.9907 17.3778C15.9018 17.0134 15.9018 16.6489 15.9818 16.2934C16.0885 15.7956 15.7774 15.1112 15.1374 14.9245C14.8974 14.8534 14.6396 14.8178 14.3907 14.7645C13.4574 14.5778 12.7107 14.1067 12.1863 13.2978C11.724 12.5867 11.5729 11.8134 11.7418 10.9778C11.9818 9.79561 12.6929 9.01339 13.8129 8.59561C15.1374 8.09784 16.6485 8.62228 17.4307 9.73339C17.8129 10.2756 18.0707 11.0578 18.0529 11.7245" fill="url(#paint0_linear_2810_58390)"/>
<path d="M11.0307 17.2978C10.9952 16.1778 11.973 15.1645 13.1641 15.1822C14.3285 15.1911 15.2974 16.1245 15.2885 17.3156C15.2885 18.5156 14.3107 19.4311 13.1463 19.4311C11.973 19.4311 10.9863 18.4356 11.0307 17.2978Z" fill="#A31F5D"/>
<path d="M18.498 12.4801C18.4713 11.8401 19.0136 11.3423 19.618 11.3423C20.2758 11.3423 20.7558 11.8845 20.7558 12.4712C20.7558 13.129 20.1958 13.609 19.6269 13.609C19.0402 13.609 18.4713 13.129 18.498 12.4712" fill="#A31F5D"/>
<path fill-rule="evenodd" clip-rule="evenodd" d="M15.2 23.4756C15.2 23.4756 15.2534 23.3956 15.28 23.3512C15.5467 23.4045 15.7334 23.2267 15.6889 22.9689C15.6623 22.8178 15.6267 22.6756 15.5912 22.5245C15.5645 22.4089 15.5289 22.3023 15.4934 22.1601C15.4667 22.1778 15.4489 22.1956 15.4312 22.2045C15.1556 22.2312 15.0489 22.4267 14.9867 22.6578C14.9423 22.8001 14.9245 22.9512 14.8889 23.1112H14.6756C14.7467 22.7467 14.8178 22.3912 14.8889 22.0267C14.9778 22.0178 15.0667 21.9823 15.1112 22.1067C15.2712 21.9734 15.4667 22.0178 15.6712 22.0178C15.7334 22.2756 15.7867 22.5334 15.8578 22.8178C16.0267 22.5423 16.1778 22.2845 16.3289 22.0178H16.56C16.4356 22.2223 16.3289 22.4001 16.2223 22.5867C16.0978 22.8001 15.9734 23.0134 15.84 23.2267C15.7778 23.3156 15.7156 23.4134 15.6356 23.4845C15.5023 23.6089 15.3512 23.6001 15.2 23.4578V23.4756ZM25.84 22.7467C25.92 22.3467 25.9912 21.9823 26.0712 21.6089H26.2578C26.2578 21.6089 26.2756 21.6623 26.2667 21.6801C26.2045 21.9823 26.1423 22.2845 26.0889 22.5778C26.0534 22.7556 26.0178 22.9334 25.9912 23.1201H25.8045C25.6178 22.7556 25.4223 22.3912 25.2178 21.9912C25.1378 22.3823 25.0756 22.7378 25.0045 23.1112H24.7912C24.8889 22.6045 24.9867 22.1067 25.0845 21.6178C25.12 21.6089 25.1378 21.6001 25.1556 21.6001C25.1912 21.6001 25.2178 21.6001 25.2623 21.6001C25.4489 21.9645 25.6445 22.3378 25.8489 22.7467H25.84ZM18.1778 23.1201C18.2756 22.5956 18.3734 22.1067 18.4712 21.5912C18.6934 21.6001 18.8978 21.5912 19.0934 21.6267C19.5112 21.6801 19.6445 21.9734 19.6089 22.3201C19.5823 22.5778 19.4756 22.7912 19.2623 22.9512C19.1378 23.0401 19.0134 23.1201 18.8534 23.1201C18.64 23.1201 18.4267 23.1201 18.1778 23.1201ZM18.6489 21.7867C18.5778 22.1778 18.5067 22.5512 18.4267 22.9334C18.5423 22.9334 18.6312 22.9334 18.7112 22.9334C19.1734 22.9334 19.4134 22.5334 19.3956 22.1956C19.3867 21.9912 19.2889 21.8667 19.0845 21.8223C18.9423 21.7956 18.8 21.7956 18.6489 21.7867ZM20.1334 23.4489C20.1334 23.4489 20.1867 23.3689 20.2134 23.3156C20.3823 23.3601 20.5512 23.4045 20.7112 23.3245C20.8178 23.2801 20.88 23.1823 20.9067 23.0667C20.8 23.0845 20.6934 23.1112 20.5956 23.1112C20.3823 23.1112 20.2489 23.0045 20.2134 22.7912C20.1689 22.5245 20.2223 22.2845 20.4445 22.1067C20.64 21.9467 20.8267 21.9378 21.04 22.0623C21.1378 22.0356 21.2089 22.0267 21.3156 22.0001C21.2978 22.1067 21.28 22.1778 21.2712 22.2401C21.2178 22.5245 21.1645 22.8001 21.1112 23.0845C21.0223 23.5378 20.5156 23.7245 20.1245 23.4401L20.1334 23.4489ZM21.0312 22.4712C21.0312 22.2312 20.8889 22.1334 20.7112 22.1956C20.4978 22.2667 20.3556 22.5601 20.4356 22.7734C20.4712 22.8712 20.5334 22.9245 20.64 22.9245C20.7734 22.9245 20.88 22.8801 20.9334 22.7645C20.9867 22.6578 21.0134 22.5334 21.04 22.4712H21.0312ZM10.7912 23.0934C10.6667 23.1023 10.56 23.1201 10.4445 23.1201C10.2845 23.1201 10.1689 23.0134 10.1245 22.8712C10.0089 22.5245 10.2134 22.1245 10.5245 22.0178C10.6845 21.9645 10.7734 21.9823 10.96 22.0801C11.04 22.0534 11.1112 22.0267 11.2267 21.9912C11.1823 22.2134 11.1556 22.3823 11.12 22.5601C11.0934 22.7201 11.0578 22.8801 11.0312 23.0401C10.96 23.4667 10.5956 23.6801 10.1956 23.5378C10.1512 23.5201 10.1067 23.4934 10.0445 23.4667C10.0712 23.4134 10.0978 23.3601 10.1156 23.3156C10.5689 23.4134 10.72 23.3601 10.8 23.0845L10.7912 23.0934ZM10.3112 22.6578C10.3112 22.8089 10.3556 22.8889 10.4623 22.9245C10.5778 22.9601 10.7289 22.9245 10.7912 22.8178C10.8534 22.7112 10.8889 22.5956 10.9245 22.4712C10.9512 22.3734 10.9245 22.2756 10.8178 22.2223C10.72 22.1689 10.6312 22.1778 10.5423 22.2401C10.3823 22.3378 10.32 22.4889 10.3112 22.6667V22.6578ZM12.7645 22.2401H12.9423C13.12 22.0356 13.2978 21.8223 13.4756 21.6089H13.7067C13.5378 21.8934 13.2889 22.0978 13.1289 22.3556C13.2267 22.6045 13.3334 22.8534 13.44 23.1201C13.36 23.1201 13.2978 23.1201 13.2267 23.1289C13.1289 22.8978 13.04 22.6756 12.9423 22.4445H12.7378C12.6934 22.6578 12.64 22.8801 12.5956 23.1112C12.5334 23.1112 12.48 23.1112 12.3912 23.1201C12.48 22.5956 12.5689 22.0978 12.6845 21.5912C12.7289 21.5912 12.7556 21.5823 12.7912 21.5912C12.8178 21.5912 12.8356 21.6001 12.88 21.6089C12.8445 21.8134 12.8089 22.0089 12.7734 22.2312L12.7645 22.2401ZM23.3156 22.4089C23.2978 22.1512 23.1556 22.1156 22.8267 22.2934C22.8089 22.2667 22.7912 22.2489 22.7734 22.2223C22.7645 22.1956 22.7645 22.1601 22.7556 22.1245C22.8978 22.0356 23.04 21.9823 23.2 21.9912C23.44 22.0089 23.5734 22.1778 23.5289 22.4178C23.4845 22.6489 23.44 22.8801 23.3867 23.1289C23.3067 23.1201 23.2445 23.1112 23.1378 23.0934C23.0845 23.1112 22.9956 23.1467 22.8978 23.1556C22.7289 23.1734 22.5956 23.0845 22.5512 22.9601C22.4978 22.8267 22.5512 22.6578 22.6934 22.5601C22.8267 22.4623 22.9956 22.4356 23.1556 22.4089C23.2089 22.4089 23.2623 22.4089 23.3245 22.4089H23.3156ZM23.2889 22.6401C23.2889 22.6401 23.2712 22.6134 23.2623 22.5956C23.1378 22.6134 23.0045 22.6223 22.8889 22.6667C22.7823 22.7023 22.7378 22.8001 22.7645 22.8801C22.7912 22.9601 22.8889 22.9956 22.9956 22.9601C23.04 22.9423 23.0934 22.9156 23.1289 22.8801C23.1912 22.8089 23.2356 22.7201 23.2889 22.6401ZM28.6489 22.1245C28.7645 22.0356 28.8889 22.0001 29.0223 21.9912C29.2889 21.9734 29.4489 22.1245 29.4223 22.3912C29.3956 22.6312 29.3334 22.8623 29.2889 23.1289C29.2178 23.1289 29.1467 23.1112 29.0756 23.1112C29.0756 23.1112 29.0756 23.1023 29.0756 23.0934C28.9689 23.1201 28.8623 23.1556 28.7556 23.1645C28.5867 23.1645 28.48 23.0934 28.4356 22.9601C28.3912 22.8267 28.4534 22.6667 28.5689 22.5778C28.7112 22.4712 28.88 22.4445 29.0489 22.4267C29.0934 22.4267 29.1378 22.4267 29.1823 22.4267C29.2 22.2401 29.1556 22.1778 28.9956 22.1956C28.9423 22.1956 28.8889 22.2134 28.8445 22.2312C28.8 22.2489 28.7556 22.2756 28.6934 22.3023C28.6756 22.2401 28.6578 22.1867 28.64 22.1334L28.6489 22.1245ZM29.1734 22.5956C29.04 22.6134 28.9156 22.6223 28.8 22.6489C28.6845 22.6756 28.6223 22.8001 28.6578 22.8889C28.6934 22.9689 28.8267 22.9956 28.9334 22.9334C29.0489 22.8623 29.1378 22.7645 29.1734 22.5956ZM17.2267 22.4089C17.2178 22.1512 17.0934 22.1245 16.7378 22.2934C16.72 22.2667 16.7023 22.2489 16.6934 22.2223C16.6845 22.1956 16.6756 22.1601 16.6667 22.1245C16.8445 22.0356 17.0134 21.9556 17.2089 22.0178C17.3689 22.0712 17.4756 22.1867 17.4489 22.3556C17.4134 22.6134 17.3512 22.8623 17.2978 23.1467C17.2178 23.1378 17.1467 23.1201 17.0845 23.1112C16.96 23.1289 16.8445 23.1645 16.72 23.1645C16.5956 23.1645 16.4978 23.0934 16.4534 22.9689C16.4089 22.8445 16.4534 22.7378 16.5334 22.6401C16.6667 22.4889 16.8445 22.4623 17.0312 22.4356C17.0845 22.4267 17.1467 22.4356 17.2178 22.4267L17.2267 22.4089ZM17.1912 22.6401C17.1912 22.6401 17.1734 22.6045 17.1734 22.5867C17.04 22.6134 16.9067 22.6312 16.7823 22.6756C16.6845 22.7112 16.6489 22.8089 16.6845 22.8801C16.7289 22.9689 16.8089 22.9778 16.8889 22.9512C16.9689 22.9245 17.04 22.8712 17.0934 22.8178C17.1378 22.7734 17.1645 22.6934 17.2 22.6312L17.1912 22.6401ZM9.29783 23.1556C8.93338 23.1556 8.72894 22.8801 8.80894 22.5245C8.88005 22.2045 9.17338 22.0178 9.41338 21.9912C9.73338 21.9556 10.1067 22.2312 9.94671 22.7023C9.84894 22.9689 9.58227 23.1556 9.29783 23.1556ZM9.76894 22.5245C9.78671 22.3112 9.62671 22.1512 9.42227 22.1778C9.18227 22.2045 8.98671 22.4534 9.01338 22.6934C9.03116 22.8534 9.13783 22.9512 9.29783 22.9601C9.52894 22.9601 9.75116 22.7556 9.76894 22.5245ZM13.84 22.2756C13.84 22.2756 13.7956 22.1867 13.7689 22.1334C13.8934 22.0267 14.0356 21.9912 14.1867 21.9823C14.3823 21.9823 14.5956 22.0978 14.56 22.3734C14.5423 22.4889 14.5156 22.6045 14.4978 22.7201C14.4712 22.8445 14.4445 22.9778 14.4178 23.1201C14.3378 23.1112 14.2578 23.0934 14.2045 23.0845C14.08 23.1023 13.9734 23.1378 13.8578 23.1378C13.7334 23.1378 13.6267 23.0756 13.5823 22.9512C13.5378 22.8356 13.5645 22.7201 13.6445 22.6223C13.7334 22.5067 13.8667 22.4623 14 22.4356C14.1067 22.4178 14.2223 22.4089 14.3289 22.3912C14.3645 22.2401 14.3112 22.1601 14.1689 22.1778C14.0623 22.1867 13.9556 22.2312 13.8312 22.2667L13.84 22.2756ZM14.2934 22.5956C14.1778 22.6134 14.0623 22.6223 13.9556 22.6401C13.9112 22.6401 13.8578 22.6756 13.84 22.7023C13.8045 22.7556 13.7778 22.8267 13.7867 22.8712C13.7956 22.9067 13.8756 22.9423 13.9289 22.9512C13.9823 22.9512 14.0445 22.9334 14.0889 22.9067C14.1956 22.8445 14.2667 22.7378 14.2845 22.5867L14.2934 22.5956ZM4.40894 22.8356C4.4356 22.8978 4.45338 22.9423 4.47116 22.9956C4.30227 23.1378 4.1156 23.1823 3.92005 23.1467C3.68894 23.1023 3.53783 22.9601 3.53783 22.6845C3.53783 22.3201 3.76005 22.1156 3.9556 22.0356C4.13338 21.9645 4.32005 21.9645 4.47116 22.0978C4.63116 22.2401 4.5956 22.4267 4.56005 22.6223H3.76894C3.74227 22.9778 3.9556 23.0578 4.40894 22.8445V22.8356ZM3.81338 22.4178H4.36449C4.3556 22.2578 4.31116 22.1956 4.21338 22.1689C4.07116 22.1423 3.92005 22.2401 3.81338 22.4178ZM8.16005 22.4801C8.18671 22.8356 7.82227 23.1556 7.48449 23.1467C7.10227 23.1467 6.88005 22.8178 7.00449 22.4623C7.10227 22.1956 7.29783 22.0356 7.57338 21.9823C7.88449 21.9289 8.16005 22.1601 8.16005 22.4801ZM7.9556 22.4801C7.9556 22.2667 7.77783 22.1245 7.57338 22.1778C7.37783 22.2312 7.24449 22.3645 7.19116 22.5601C7.13783 22.7734 7.28894 22.9512 7.51116 22.9423C7.74227 22.9423 7.9556 22.7112 7.9556 22.4801ZM5.58227 23.1023H5.37783C5.21783 22.9601 5.24449 22.6845 5.00449 22.5512C4.96005 22.7556 4.9156 22.9245 4.88005 23.1023C4.81783 23.1023 4.76449 23.1023 4.6756 23.1112C4.77338 22.5956 4.87116 22.0978 4.96894 21.5912H5.18227C5.12894 21.8578 5.0756 22.1067 5.02227 22.3645C5.10227 22.4267 5.1556 22.3645 5.20005 22.3201C5.30671 22.2134 5.41338 22.1156 5.53783 21.9912C5.58227 21.9912 5.65338 21.9912 5.76894 22.0001C5.59116 22.1867 5.44894 22.3378 5.28894 22.4978C5.37783 22.6845 5.4756 22.8801 5.57338 23.0934L5.58227 23.1023ZM27.28 22.0089H27.4934C27.4223 22.3734 27.3512 22.7289 27.28 23.0934C27.1912 23.1201 27.1112 23.1645 27.0667 23.0578C26.9245 23.0845 26.7912 23.1378 26.6489 23.1378C26.4623 23.1378 26.3378 23.0045 26.3645 22.8178C26.4 22.5512 26.4623 22.2845 26.5156 22.0178H26.72C26.6845 22.2134 26.6489 22.4001 26.6134 22.5778C26.6045 22.6401 26.5867 22.7023 26.5867 22.7734C26.5867 22.9156 26.6578 22.9778 26.8 22.9423C27.0134 22.8801 27.1378 22.7289 27.1823 22.5156C27.2178 22.3556 27.2445 22.1956 27.28 22.0178V22.0089ZM6.13338 22.1067C6.24894 22.0623 6.33783 22.0089 6.4356 21.9823C6.68449 21.9289 6.87116 22.0889 6.8356 22.3378C6.80005 22.5867 6.74671 22.8356 6.69338 23.1023C6.63116 23.1023 6.57783 23.1112 6.50671 23.1201C6.48005 22.8089 6.6756 22.5245 6.60449 22.2223C6.33783 22.1601 6.14227 22.2667 6.04449 22.5334C6.00005 22.6489 5.99116 22.7734 5.96449 22.8978C5.94671 22.9689 5.93783 23.0312 5.92005 23.1023H5.7156C5.78671 22.7289 5.85783 22.3734 5.92894 22.0178H6.10671C6.10671 22.0178 6.12449 22.0801 6.12449 22.1067H6.13338ZM3.89338 21.5912C3.8756 21.6712 3.85783 21.7156 3.84005 21.7778H3.33338C3.24449 22.2223 3.1556 22.6578 3.06671 23.1023H2.85338C2.94227 22.6578 3.02227 22.2312 3.11116 21.7778H2.60449C2.60449 21.7067 2.62227 21.6534 2.63116 21.5912H3.89338ZM27.8134 22.3378C27.9556 22.4178 28.0712 22.4801 28.1867 22.5423C28.2934 22.6045 28.3467 22.6934 28.3378 22.8178C28.3289 22.9423 28.2667 23.0489 28.1512 23.0934C28.0623 23.1289 27.9645 23.1467 27.8667 23.1378C27.7334 23.1378 27.6 23.1023 27.5023 22.9601C27.5378 22.9156 27.5734 22.8801 27.6089 22.8356C27.92 23.0045 28.0089 22.9956 28.1423 22.8089C28.1245 22.7023 28.0178 22.6845 27.9467 22.6401C27.8934 22.6045 27.8223 22.5867 27.7778 22.5512C27.6445 22.4356 27.6356 22.2756 27.7512 22.1334C27.8845 21.9734 28.2134 21.8845 28.4534 22.1334C28.4178 22.1778 28.3912 22.2223 28.3734 22.2312C28.2312 22.2134 28.1156 22.1867 28.0089 22.1956C27.9556 22.1956 27.9112 22.2756 27.8312 22.3467L27.8134 22.3378ZM22.0889 22.2223C22.0889 22.2223 22.0178 22.1867 21.9734 22.1689C21.9734 22.1245 21.9912 22.0801 21.9912 22.0267C22.0356 22.0089 22.0889 22.0001 22.1334 21.9823C22.1512 21.8934 22.1689 21.8134 22.1867 21.7245H22.3823C22.3645 21.8223 22.3556 21.9023 22.3378 21.9912C22.4089 21.9912 22.48 22.0089 22.5689 22.0089V22.1778C22.48 22.1778 22.4 22.1867 22.3023 22.1956C22.2667 22.3734 22.2223 22.5601 22.1867 22.7556C22.1689 22.8712 22.2223 22.9067 22.4178 22.9423C22.4178 22.9867 22.4178 23.0401 22.4178 23.0845C22.16 23.1556 21.9912 23.0401 21.9912 22.7912C21.9912 22.6667 22.0267 22.5512 22.0445 22.4267C22.0534 22.3556 22.0712 22.2845 22.08 22.2134L22.0889 22.2223ZM23.9112 22.8978C23.9645 22.9245 24 22.9334 24.0445 22.9601C24.0356 23.0134 24.0178 23.0667 24.0089 23.1201C23.76 23.1201 23.68 23.0578 23.7156 22.8356C23.7689 22.5156 23.84 22.1956 23.8934 21.8756C23.9112 21.7867 23.9289 21.6978 23.9467 21.5912H24.16C24.0712 22.0356 23.9912 22.4623 23.9112 22.8978ZM8.61338 23.1112C8.3556 23.1112 8.28449 23.0489 8.31116 22.8267C8.3556 22.5601 8.40894 22.2845 8.46227 22.0178C8.48894 21.8756 8.5156 21.7423 8.55116 21.5823H8.7556C8.6756 22.0178 8.5956 22.4445 8.5156 22.8801C8.56005 22.9067 8.5956 22.9245 8.64894 22.9512C8.64894 22.9956 8.63116 23.0489 8.62227 23.1023L8.61338 23.1112ZM21.8223 22.0001C21.7512 22.3823 21.6889 22.7289 21.6178 23.0934H21.4045C21.4756 22.7289 21.5467 22.3734 21.6178 22.0089C21.68 22.0089 21.7334 22.0089 21.8312 22.0001H21.8223ZM11.5112 23.1023H11.2978C11.3689 22.7289 11.44 22.3734 11.52 22.0089H11.7245C11.6534 22.3734 11.5912 22.7289 11.5112 23.1023ZM19.6978 23.1023C19.7689 22.7378 19.8312 22.3823 19.9023 22.0178H20.1067C20.0356 22.3823 19.9734 22.7378 19.9023 23.1023H19.6889H19.6978ZM20.16 21.8312H19.9378C19.9556 21.7423 19.9823 21.6712 20 21.5912H20.1956C20.1956 21.6712 20.1778 21.7512 20.1689 21.8312H20.16ZM11.7956 21.6001C11.7867 21.6978 11.7778 21.7601 11.7689 21.8312H11.5378C11.5556 21.7512 11.5734 21.6801 11.5912 21.6001H11.7956ZM21.6534 21.8312C21.6623 21.7512 21.68 21.6801 21.6889 21.6001H21.9112C21.8934 21.6889 21.8756 21.7512 21.8578 21.8312H21.6534Z" fill="#A31F5D"/>
</g>
</g>
<defs>
<linearGradient id="paint0_linear_2810_58390" x1="19.105" y1="14.5051" x2="17.1839" y2="16.0736" gradientUnits="userSpaceOnUse">
<stop stop-color="#ED5E27"/>
<stop offset="1" stop-color="#ED6D24"/>
</linearGradient>
<clipPath id="clip0_2810_58390">
<rect width="32" height="32" fill="white"/>
</clipPath>
</defs>
</svg>
