<svg width="32" height="32" viewBox="0 0 32 32" fill="none" xmlns="http://www.w3.org/2000/svg">
<g clip-path="url(#clip0_2707_266453)">
<path d="M16 31.9823C24.8268 31.9823 31.9822 24.8268 31.9822 16C31.9822 7.17331 24.8268 0.0178223 16 0.0178223C7.17328 0.0178223 0.0177917 7.17331 0.0177917 16C0.0177917 24.8268 7.17328 31.9823 16 31.9823Z" fill="white"/>
<path d="M16 20.6934L15.36 20.4445L14.8 20.1689C14.7559 20.1583 14.7175 20.1312 14.6927 20.0932C14.6679 20.0552 14.6586 20.0091 14.6667 19.9645C14.6757 19.7927 14.6757 19.6206 14.6667 19.4489C14.6711 19.3927 14.6711 19.3362 14.6667 19.28V9.89336C14.6637 9.85756 14.6685 9.82155 14.6808 9.78779C14.6931 9.75404 14.7125 9.72334 14.7378 9.6978L15.92 8.54225C15.92 8.54225 15.9733 8.4178 16.0445 8.54225C16.0402 8.61033 16.0402 8.67861 16.0445 8.74669V20.6934" fill="#EA9942"/>
<path d="M16 20.6934V8.70225C15.9958 8.63416 15.9958 8.56588 16 8.4978L17.2445 9.70669C17.2694 9.73401 17.2879 9.76653 17.2986 9.8019C17.3094 9.83726 17.3121 9.87458 17.3067 9.91114C17.3067 10.2045 17.3067 10.4978 17.3067 10.8C17.3067 10.8711 17.3067 10.9334 17.3067 11.0045V19.2C17.3067 19.2711 17.3067 19.3422 17.3067 19.4045C17.3067 19.4667 17.3067 19.76 17.3067 19.9378C17.3097 19.9749 17.3011 20.012 17.2819 20.0438C17.2628 20.0757 17.2341 20.1008 17.2 20.1156L15.9911 20.6934" fill="#CB8742"/>
<path d="M17.9733 10.2756H18.0711L19.2355 11.4045C19.2688 11.4414 19.2933 11.4854 19.3072 11.5331C19.321 11.5808 19.3239 11.6311 19.3155 11.6801V18.8445C19.3271 18.8939 19.3198 18.9459 19.2952 18.9902C19.2705 19.0346 19.2303 19.0682 19.1822 19.0845C18.8178 19.2445 18.4533 19.4312 18.0978 19.6001C18.0564 19.6051 18.0147 19.6051 17.9733 19.6001V10.2756Z" fill="#969699"/>
<path d="M14.0444 19.6623C13.9477 19.6322 13.8527 19.5966 13.76 19.5556C13.4044 19.3956 13.0578 19.2179 12.7022 19.049V11.7156C12.698 11.6577 12.707 11.5996 12.7285 11.5457C12.7501 11.4918 12.7837 11.4435 12.8267 11.4045L13.9378 10.329C13.9705 10.306 14.0064 10.288 14.0444 10.2756V19.6623Z" fill="#969699"/>
<path d="M14.0444 19.6623V10.2756L14.4889 10.6756L14.6667 10.8001V19.2356C14.6711 19.2918 14.6711 19.3483 14.6667 19.4045L14.2222 19.609C14.1677 19.632 14.1112 19.6499 14.0533 19.6623" fill="#BDBCBD"/>
<path d="M17.9733 10.2756V19.6623L17.6445 19.5556L17.36 19.4312C17.36 19.369 17.36 19.2979 17.36 19.2267V10.9956C17.36 10.9245 17.36 10.8623 17.36 10.7912L17.5467 10.649L17.9733 10.2756Z" fill="#BDBCBD"/>
<path d="M20.9333 22.7644H21.2444L21.0844 22.3022L20.9333 22.7644ZM23.6 21.7956C23.6638 21.9413 23.6971 22.0986 23.6978 22.2578C23.6978 22.5778 23.7956 22.8978 23.84 23.2178C23.84 23.3422 23.8933 23.4133 24.0267 23.4133C24.16 23.4133 24.0267 23.4133 24.0267 23.4667H23.5289L23.4044 22.4889C23.2089 22.8267 23.0933 23.1733 22.9156 23.4933H22.8622C22.7111 23.1822 22.5689 22.88 22.4178 22.6044C22.4178 22.8622 22.3467 23.1289 22.3022 23.3956L22.4889 23.4578C22.1422 23.4578 21.7867 23.4578 21.4578 23.4578L21.3333 22.9511H21.0667C20.88 22.9511 20.8711 22.9511 20.8178 23.12C20.7644 23.2889 20.7644 23.28 20.7289 23.3778L20.88 23.4311C20.6965 23.4444 20.5124 23.4444 20.3289 23.4311V23.3778C20.48 23.3778 20.5422 23.2533 20.5867 23.12C20.7378 22.6933 20.8978 22.2756 21.0667 21.8578C21.0886 21.8032 21.1185 21.7523 21.1556 21.7067C21.2089 21.8222 21.2533 21.9022 21.28 21.9822C21.4311 22.3644 21.5733 22.7556 21.7333 23.1378C21.8222 23.3689 21.8489 23.3778 22.1333 23.3511L22.3733 21.7511H22.4267C22.5535 21.9321 22.6551 22.1295 22.7289 22.3378C22.8267 22.5333 22.9156 22.7378 23.0222 22.9778L23.5911 21.7511" fill="#201F1F"/>
<path d="M7.0489 22.64C7.26224 22.6844 7.29779 22.64 7.3689 22.5689C7.41485 22.4973 7.43927 22.414 7.43927 22.3289C7.43927 22.2438 7.41485 22.1605 7.3689 22.0889C7.33492 22.0382 7.28505 22.0002 7.22713 21.9809C7.16921 21.9616 7.10652 21.962 7.0489 21.9822C7.0489 22.1689 7.0489 22.3556 7.0489 22.5333C7.04453 22.5688 7.04453 22.6046 7.0489 22.64ZM8.38224 23.3778C8.38224 23.2978 8.38224 23.2178 8.38224 23.1378V22.1422C8.38224 22.0178 8.38224 21.8667 8.17779 21.8933C8.38771 21.7999 8.624 21.7842 8.84446 21.8489L8.75557 21.9111C8.75557 21.9111 8.68446 21.9822 8.68446 22.0178V23.3156C8.67967 23.339 8.67967 23.3632 8.68446 23.3867L8.8889 23.4311C8.84446 23.4311 8.82668 23.4756 8.8089 23.4756H8.23113H7.91112C7.84333 23.4826 7.7749 23.4706 7.71362 23.4407C7.65234 23.4109 7.60067 23.3644 7.56446 23.3067C7.47557 23.1733 7.37779 23.0489 7.29779 22.9067C7.28567 22.8838 7.26911 22.8635 7.2491 22.8471C7.22908 22.8307 7.20599 22.8184 7.18118 22.8109C7.15637 22.8035 7.13033 22.801 7.10457 22.8037C7.07881 22.8064 7.05385 22.8142 7.03112 22.8267V23.3689L7.21779 23.4222V23.4667C7.00446 23.4667 6.79113 23.4667 6.55112 23.4667C6.55112 23.4667 6.59557 23.4044 6.61335 23.4044C6.63113 23.4044 6.7289 23.3511 6.7289 23.2711C6.7289 23.1911 6.7289 23.0133 6.7289 22.8889V22.0889C6.73327 22.0356 6.73327 21.9821 6.7289 21.9289L6.54224 21.8667V21.8133C6.78784 21.7956 7.03441 21.7956 7.28001 21.8133C7.35975 21.8211 7.4357 21.8511 7.49916 21.9C7.56262 21.9489 7.61103 22.0147 7.63885 22.0898C7.66668 22.1649 7.67279 22.2464 7.65649 22.3248C7.64019 22.4032 7.60213 22.4755 7.54668 22.5333C7.50224 22.5956 7.45779 22.64 7.40446 22.7022C7.54668 22.8889 7.6889 23.0756 7.84001 23.2533C7.99112 23.4311 8.0889 23.4222 8.3289 23.36" fill="#201F1F"/>
<path d="M9.56444 22.4V22.9867V23.1111C9.56444 23.2534 9.56444 23.4134 9.78667 23.4134C9.58574 23.4345 9.38315 23.4345 9.18222 23.4134L9.35111 23.3423C9.35111 22.8267 9.35111 22.3023 9.35111 21.7689H9.40444C9.76889 22.1423 10.1244 22.5423 10.5067 22.9511V21.9378H10.4H10.3111C10.5037 21.8693 10.7141 21.8693 10.9067 21.9378L10.7378 22.0178C10.7378 22.5334 10.7378 23.0578 10.6933 23.5823H10.6489C10.5867 23.52 10.5156 23.4756 10.4622 23.4134L9.57333 22.4445V22.4V22.4623" fill="#201F1F"/>
<path d="M16 21.9911C16.0019 22.0058 16.0019 22.0208 16 22.0355V23.1111C16 23.2711 16.0444 23.3066 16.1956 23.3155C16.5422 23.3155 16.8089 23.2355 16.8711 22.8533C16.8798 22.7676 16.8798 22.6812 16.8711 22.5955C16.871 22.4886 16.8454 22.3832 16.7966 22.2881C16.7478 22.1929 16.6771 22.1108 16.5903 22.0483C16.5035 21.9858 16.4031 21.9448 16.2974 21.9287C16.1917 21.9126 16.0837 21.9218 15.9822 21.9555M15.52 23.4311C15.6978 23.3777 15.68 23.2444 15.68 23.12C15.68 22.72 15.68 22.32 15.68 21.9111L15.4756 21.84C15.4756 21.84 15.52 21.7777 15.5378 21.7866C15.8578 21.7866 16.1778 21.7866 16.4978 21.7866C16.6149 21.7999 16.7275 21.8394 16.8272 21.9023C16.9269 21.9652 17.0111 22.0498 17.0735 22.1498C17.1359 22.2498 17.1749 22.3627 17.1876 22.4799C17.2002 22.5971 17.1863 22.7156 17.1467 22.8266C17.1038 23.0237 16.9889 23.1977 16.8245 23.3144C16.6601 23.4312 16.4579 23.4823 16.2578 23.4577C16.0089 23.4577 15.76 23.4577 15.5022 23.4133" fill="#201F1F"/>
<path d="M25.52 21.9289L25.3333 21.8756C25.5494 21.8018 25.7839 21.8018 26 21.8756L25.84 21.9645V22.5156L26.2756 22.0089C26.2756 22.0089 26.2756 21.9112 26.2756 21.8401C26.4523 21.8132 26.6321 21.8132 26.8089 21.8401C26.4445 21.9467 26.2845 22.2845 26.0267 22.5156C26.234 22.7938 26.466 23.0526 26.72 23.2889C26.8029 23.3468 26.8924 23.3945 26.9867 23.4312C26.8852 23.4769 26.7728 23.4928 26.6627 23.4771C26.5525 23.4613 26.4491 23.4146 26.3645 23.3423L25.9111 22.8089L25.84 22.7289V23.3156C25.8606 23.3509 25.8916 23.3789 25.9289 23.3956C25.9289 23.3956 25.9911 23.3956 26.0178 23.4401C25.8048 23.4577 25.5908 23.4577 25.3778 23.4401V23.3956L25.5289 23.3334C25.5557 22.8508 25.5557 22.3671 25.5289 21.8845" fill="#201F1F"/>
<path d="M19.8311 22.9512C19.8712 22.6116 19.8712 22.2685 19.8311 21.929L19.6267 21.8756C19.8146 21.8157 20.0165 21.8157 20.2044 21.8756V21.9201C20.2044 21.9201 20.0711 22.0179 20.0711 22.1245V23.3423C20.0711 23.4045 20.0711 23.4667 20.0711 23.5734C20.0089 23.5112 19.9556 23.4845 19.92 23.449L19.0311 22.489L18.9422 22.4001V23.289C18.9422 23.4312 19.0578 23.4401 19.1556 23.4845C18.9553 23.5157 18.7514 23.5157 18.5511 23.4845C18.7822 23.4312 18.7378 23.2534 18.7467 23.1023C18.7467 22.7467 18.7467 22.3912 18.7467 22.0267C18.7467 21.9645 18.7467 21.9023 18.7467 21.7867C18.9508 21.9768 19.1438 22.1787 19.3244 22.3912C19.52 22.5779 19.6978 22.7823 19.8756 22.9779" fill="#201F1F"/>
<path d="M5.01334 22.1333L5.06667 21.8044H6.40889V22.1689C6.30223 21.92 6.08889 22.0089 5.90223 21.9911V23.3778L6.09778 23.4311V23.4756C5.86997 23.4931 5.64115 23.4931 5.41334 23.4756C5.60889 23.4311 5.59111 23.2889 5.58223 23.1644V22.0178C5.29778 21.9556 5.20889 22.0178 5.06667 22.1422H5.01334" fill="#201F1F"/>
<path d="M12.5245 21.9822C12.3289 22.0356 12.0978 21.8844 11.9911 22.1956C11.9491 22.0686 11.9491 21.9314 11.9911 21.8044H13.3333C13.3882 21.9383 13.3882 22.0884 13.3333 22.2222C13.2533 21.9378 13.0311 22.0356 12.8356 22.0178V22.8444C12.8356 22.9778 12.8356 23.1111 12.8356 23.2533C12.8356 23.3956 12.8356 23.4489 13.0045 23.4311C13.1733 23.4133 13.0045 23.4311 13.0489 23.4933H12.3911C12.5689 23.4222 12.5333 23.2622 12.5422 23.1289V21.9822" fill="#201F1F"/>
<path d="M14.16 21.8667L13.9911 21.9378V23.3778L14.2044 23.4311C13.9764 23.4839 13.7392 23.4839 13.5111 23.4311C13.5111 23.4311 13.5111 23.3867 13.5556 23.3867C13.6 23.3867 13.6711 23.3333 13.6711 23.2533V21.92L13.5022 21.8311C13.7164 21.7641 13.9459 21.7641 14.16 21.8311" fill="#201F1F"/>
<path d="M11.6622 23.3867L11.8489 23.4312H11.2C11.3956 23.3601 11.3422 23.1912 11.3422 23.0578V21.9467L11.1645 21.8667C11.384 21.7954 11.6205 21.7954 11.84 21.8667C11.6178 21.8667 11.6445 22.0445 11.6445 22.1778V23.1112C11.6445 23.2001 11.6445 23.2889 11.6445 23.3778" fill="#201F1F"/>
<path d="M18.1955 23.4667H17.5378C17.7244 23.3956 17.68 23.2445 17.68 23.1022V21.9378L17.52 21.8756C17.7327 21.7996 17.9651 21.7996 18.1778 21.8756C17.9378 21.8756 17.9822 22.0622 17.9822 22.2045V23.0934C17.9822 23.3689 17.9822 23.3689 18.1955 23.4934" fill="#201F1F"/>
<path d="M24.3467 23.4578C24.5333 23.4133 24.5067 23.2711 24.5067 23.1467V22.2222C24.5067 22.08 24.5067 21.9289 24.3111 21.9022C24.5284 21.8357 24.7606 21.8357 24.9778 21.9022L24.8 21.9911V23.3244C24.7968 23.3415 24.7978 23.359 24.803 23.3756C24.8081 23.3921 24.8172 23.4072 24.8294 23.4195C24.8417 23.4317 24.8568 23.4408 24.8733 23.4459C24.8899 23.4511 24.9074 23.4521 24.9245 23.4489C24.9612 23.452 24.9957 23.4677 25.0222 23.4933C24.7978 23.5201 24.5711 23.5201 24.3467 23.4933" fill="#201F1F"/>
</g>
<defs>
<clipPath id="clip0_2707_266453">
<rect width="32" height="32" fill="white"/>
</clipPath>
</defs>
</svg>
