<svg width="32" height="32" viewBox="0 0 32 32" fill="none" xmlns="http://www.w3.org/2000/svg">
<g clip-path="url(#clip0_2707_258773)">
<path d="M16.0164 31.998C24.8448 31.998 32.0016 24.8412 32.0016 16.0128C32.0016 7.18441 24.8448 0.0275879 16.0164 0.0275879C7.18807 0.0275879 0.03125 7.18441 0.03125 16.0128C0.03125 24.8412 7.18807 31.998 16.0164 31.998Z" fill="#F4F4F4"/>
<path d="M28.1691 20.0168H3.875V21.2017H28.1691V20.0168Z" fill="#878787"/>
<path fill-rule="evenodd" clip-rule="evenodd" d="M3.96162 18.8162L10.8462 7.22607C11.6591 8.60731 17.7059 18.8812 17.7059 18.8812L17.8867 18.7748L10.937 6.96672C10.9182 6.93478 10.8839 6.91513 10.8468 6.91504C10.8097 6.91498 10.7753 6.93449 10.7564 6.96637L3.78125 18.709L3.96162 18.8162Z" fill="#A6A6A6"/>
</g>
<defs>
<clipPath id="clip0_2707_258773">
<rect width="32" height="32" fill="white"/>
</clipPath>
</defs>
</svg>
