<svg width="32" height="32" viewBox="0 0 32 32" fill="none" xmlns="http://www.w3.org/2000/svg">
<g clip-path="url(#clip0_2707_265763)">
<path d="M16 31.9823C24.8268 31.9823 31.9822 24.8268 31.9822 16C31.9822 7.17331 24.8268 0.0178223 16 0.0178223C7.17328 0.0178223 0.0177917 7.17331 0.0177917 16C0.0177917 24.8268 7.17328 31.9823 16 31.9823Z" fill="white"/>
<path d="M9.39558 25.9645V23.2978H8.70225V25.5823C8.61871 25.6309 8.52334 25.6555 8.42669 25.6534C8.21336 25.6534 8.0978 25.5112 8.0978 25.2801V23.2889H7.41336V25.2001C7.41336 25.9112 7.7778 26.1778 8.40892 26.1778C8.75091 26.1956 9.09146 26.1219 9.39558 25.9645Z" fill="#233E99"/>
<path d="M11.7956 26.1245V24.1245C11.7956 23.52 11.4667 23.2356 10.7733 23.2356C10.4343 23.219 10.0969 23.2926 9.79556 23.4489V26.1156H10.4711V23.7867C10.5601 23.7458 10.6578 23.7275 10.7556 23.7333C11.0045 23.7333 11.1022 23.8756 11.1022 24.1245V26.1245" fill="#233E99"/>
<path d="M12.9156 22.72C12.9132 22.6202 12.8719 22.5252 12.8005 22.4555C12.7291 22.3857 12.6332 22.3467 12.5333 22.3467C12.4453 22.3604 12.3651 22.4051 12.3072 22.4727C12.2493 22.5404 12.2174 22.6265 12.2174 22.7156C12.2174 22.8046 12.2493 22.8908 12.3072 22.9584C12.3651 23.026 12.4453 23.0708 12.5333 23.0845C12.6317 23.0846 12.7263 23.0467 12.7975 22.9789C12.8687 22.911 12.911 22.8183 12.9156 22.72Z" fill="#233E99"/>
<path d="M14.7467 25.9733L14.6045 25.5111C14.5634 25.5472 14.5154 25.5745 14.4635 25.5913C14.4115 25.6081 14.3566 25.6141 14.3022 25.6089C14.0267 25.6089 13.8667 25.2622 13.8667 24.72C13.8667 24.1778 14.0089 23.8311 14.32 23.8311C14.3722 23.8285 14.4244 23.8366 14.4733 23.855C14.5222 23.8733 14.5668 23.9015 14.6045 23.9378L14.7467 23.5111C14.6684 23.4351 14.5747 23.3767 14.472 23.3399C14.3693 23.3031 14.2599 23.2888 14.1511 23.2978C13.6178 23.2978 13.1733 23.7956 13.1733 24.7644C13.1733 25.7333 13.5733 26.24 14.1511 26.24C14.2593 26.2514 14.3686 26.2389 14.4715 26.2036C14.5744 26.1683 14.6683 26.1109 14.7467 26.0356" fill="#233E99"/>
<path d="M16.9956 26.1245V24.1333C17.0113 24.0198 17.0019 23.9041 16.968 23.7946C16.9341 23.685 16.8765 23.5843 16.7993 23.4995C16.7221 23.4147 16.6272 23.3479 16.5214 23.3038C16.4155 23.2597 16.3012 23.2395 16.1867 23.2445C16.0099 23.2414 15.8353 23.2843 15.68 23.3689V22.3467H15.0045V26.1245H15.68V23.8133C15.7768 23.7566 15.8879 23.7289 16 23.7333C16.2133 23.7333 16.3378 23.8756 16.3378 24.1333V26.1245" fill="#233E99"/>
<path d="M19.28 25.9734V24.2756C19.28 23.5023 18.88 23.2356 18.3467 23.2356C18.0369 23.2281 17.7304 23.3016 17.4578 23.449L17.6 23.8934C17.7877 23.7997 17.9947 23.751 18.2045 23.7512C18.2583 23.7444 18.3129 23.7497 18.3643 23.7667C18.4158 23.7837 18.4629 23.8119 18.502 23.8494C18.5412 23.8869 18.5715 23.9326 18.5908 23.9833C18.61 24.034 18.6178 24.0883 18.6134 24.1423V24.2401C17.8489 24.3379 17.3156 24.5601 17.3156 25.289C17.3156 25.8579 17.6534 26.1779 18.3378 26.1779C18.6622 26.202 18.9866 26.1309 19.2711 25.9734M18.6667 25.6712C18.5865 25.6985 18.5025 25.7135 18.4178 25.7156C18.1511 25.7156 18.0089 25.5556 18.0089 25.2623C18.0089 24.969 18.2222 24.7023 18.6667 24.649" fill="#233E99"/>
<path d="M21.04 23.2444C20.6025 23.1833 20.1567 23.2545 19.76 23.4489V26.1155H20.4445V23.7867C20.5186 23.7536 20.5988 23.7365 20.68 23.7365C20.7612 23.7365 20.8414 23.7536 20.9156 23.7867" fill="#233E99"/>
<path d="M24.5867 26.1245V24.1245C24.6009 24.0112 24.5903 23.8962 24.5558 23.7873C24.5213 23.6785 24.4637 23.5784 24.3868 23.4939C24.31 23.4095 24.2157 23.3427 24.1106 23.2981C24.0055 23.2535 23.8919 23.2322 23.7778 23.2356C23.6381 23.2241 23.4975 23.2427 23.3656 23.2903C23.2337 23.3378 23.1136 23.4132 23.0134 23.5112C22.9142 23.4117 22.7942 23.3353 22.662 23.2877C22.5299 23.24 22.3888 23.2223 22.2489 23.2356C21.9123 23.2134 21.5762 23.2874 21.28 23.449V26.1156H21.9645V23.7868C22.0452 23.7497 22.1334 23.7314 22.2223 23.7334C22.4534 23.7334 22.5689 23.8934 22.5689 24.1245V26.1245H23.2623V23.8579C23.2999 23.8156 23.3467 23.7824 23.399 23.7608C23.4514 23.7393 23.508 23.7299 23.5645 23.7334C23.7689 23.7334 23.8845 23.8845 23.8845 24.1245V26.1245" fill="#233E99"/>
<path d="M12.8889 23.28V26.1245H12.2045V23.2889" fill="#233E99"/>
<path d="M23.5289 13.3334C23.5324 14.8232 23.0938 16.2806 22.2687 17.521C21.4436 18.7615 20.2689 19.7293 18.8935 20.3018C17.5181 20.8744 16.0037 21.026 14.5421 20.7375C13.0805 20.449 11.7373 19.7334 10.6826 18.6812C9.62788 17.6289 8.90905 16.2875 8.61711 14.8265C8.32516 13.3656 8.47321 11.8509 9.04253 10.4741C9.61185 9.09733 10.5768 7.92043 11.8153 7.09236C13.0538 6.26428 14.5102 5.82227 16 5.82227C17.9937 5.82226 19.906 6.61304 21.3175 8.02114C22.7289 9.42923 23.5242 11.3397 23.5289 13.3334ZM16 6.76449C14.6965 6.76449 13.4224 7.15125 12.3388 7.87579C11.2553 8.60033 10.411 9.63008 9.91303 10.8347C9.41503 12.0393 9.28563 13.3645 9.54123 14.6427C9.79682 15.9209 10.4259 17.0945 11.3488 18.0149C12.2718 18.9354 13.4471 19.5613 14.7259 19.8134C16.0048 20.0656 17.3297 19.9326 18.533 19.4313C19.7362 18.9301 20.7637 18.0831 21.4853 16.9976C22.2069 15.9121 22.5902 14.6368 22.5867 13.3334C22.582 11.5896 21.8859 9.91879 20.6512 8.68739C19.4165 7.45599 17.7438 6.76448 16 6.76449Z" fill="#233E99"/>
<path d="M16 14.1156C14.6933 13.689 13.7333 13.0223 13.7333 11.6445C13.7333 11.0401 14.1156 10.2934 14.1156 9.47564C14.1156 8.33786 12.6311 8.08008 11.3956 9.47564C10.8104 10.1694 10.3895 10.9863 10.1643 11.8655C9.93903 12.7447 9.91525 13.6634 10.0947 14.553C10.2742 15.4427 10.6523 16.2803 11.2007 17.0034C11.7492 17.7265 12.4539 18.3163 13.2622 18.729C17.4133 20.7201 20.1156 15.4579 16 14.1334" fill="#FCB034"/>
<path d="M19.6267 11.8044C20.1723 11.9716 20.6314 12.3446 20.9067 12.8444C21.3243 13.5295 21.5125 14.3299 21.4437 15.1293C21.375 15.9287 21.0529 16.6852 20.5245 17.2889C19.8646 18.0362 18.9404 18.4982 17.9467 18.5778C17.5545 18.5927 17.1632 18.5296 16.7955 18.3923C16.4278 18.255 16.0909 18.0461 15.8045 17.7778C15.6028 17.6 15.4605 17.3647 15.3966 17.1035C15.3327 16.8424 15.3504 16.5679 15.4472 16.3171C15.5441 16.0663 15.7154 15.8512 15.9382 15.7008C16.161 15.5503 16.4245 15.4717 16.6934 15.4756C17.0525 15.4455 17.3999 15.3327 17.7083 15.1461C18.0167 14.9596 18.2778 14.7042 18.4711 14.4C18.7623 13.8062 18.9027 13.1498 18.88 12.4889C18.88 11.9733 19.12 11.6444 19.6534 11.7778" fill="#F47B20"/>
</g>
<defs>
<clipPath id="clip0_2707_265763">
<rect width="32" height="32" fill="white"/>
</clipPath>
</defs>
</svg>
