<svg width="32" height="32" viewBox="0 0 32 32" fill="none" xmlns="http://www.w3.org/2000/svg">
<g clip-path="url(#clip0_2707_264623)">
<path d="M16 31.9822C24.8268 31.9822 31.9822 24.8267 31.9822 16C31.9822 7.17325 24.8268 0.0177612 16 0.0177612C7.17328 0.0177612 0.0177917 7.17325 0.0177917 16C0.0177917 24.8267 7.17328 31.9822 16 31.9822Z" fill="white"/>
<path d="M3.55557 15.9289V17.4578C3.54633 17.5226 3.54633 17.5885 3.55557 17.6533C3.58951 17.7768 3.66415 17.8853 3.76739 17.9611C3.87064 18.0369 3.99645 18.0757 4.12446 18.0711C4.91557 18.0711 5.71557 18.0711 6.50668 18.0711C6.58673 18.0736 6.66643 18.0596 6.74088 18.0301C6.81533 18.0006 6.88295 17.9562 6.93957 17.8996C6.9962 17.8429 7.04063 17.7753 7.07014 17.7009C7.09964 17.6264 7.11359 17.5467 7.11113 17.4667V14.3911C7.11493 14.3107 7.1019 14.2304 7.07287 14.1554C7.04384 14.0803 6.99945 14.0121 6.94255 13.9552C6.88564 13.8983 6.81748 13.8539 6.74242 13.8249C6.66736 13.7959 6.58707 13.7829 6.50668 13.7867H4.13335C4.06287 13.7732 3.99049 13.7732 3.92002 13.7867C3.80756 13.8228 3.7097 13.8942 3.64088 13.9902C3.57206 14.0863 3.53593 14.2019 3.53779 14.32V15.8933M6.70224 13.5822C6.85842 13.6209 6.99766 13.7096 7.09876 13.8348C7.19986 13.9599 7.25727 14.1147 7.26224 14.2755V17.4755C7.25999 17.6619 7.18556 17.8402 7.0546 17.9728C6.92364 18.1054 6.74635 18.1821 6.56002 18.1867H4.06224C3.89826 18.1847 3.73974 18.1274 3.61232 18.0242C3.48489 17.921 3.396 17.7778 3.36002 17.6178C3.36002 17.6178 3.36002 17.6178 3.36002 17.5733C3.36002 17.5733 3.36002 17.5111 3.36002 17.4755V14.2222C3.3723 14.0915 3.42143 13.967 3.50168 13.8632C3.58193 13.7593 3.69001 13.6804 3.81335 13.6355H3.95557L6.70224 13.5822Z" fill="#36302C"/>
<path d="M17.6978 17.8222C17.7778 17.7777 17.7778 17.7777 17.7778 17.6977C17.7778 17.6177 17.8222 17.4489 17.7245 17.3422C17.6785 17.4138 17.6541 17.4971 17.6541 17.5822C17.6541 17.6673 17.6785 17.7506 17.7245 17.8222M17.6711 18.3822C17.5556 18.2844 17.5467 18.2489 17.5556 18.0711H17.68V18.1422C17.7867 18.1422 17.7867 18.1422 17.7867 17.9644C17.7422 17.9644 17.6889 18.0089 17.6622 17.9644C17.6384 17.9535 17.6173 17.9375 17.6004 17.9176C17.5835 17.8976 17.5712 17.8741 17.5645 17.8489C17.5022 17.6491 17.5022 17.4352 17.5645 17.2355C17.5717 17.201 17.5878 17.1689 17.6112 17.1424C17.6346 17.1159 17.6644 17.0959 17.6978 17.0844H17.7689H17.9289V17.2622C17.9289 17.4577 17.9289 17.6444 17.9289 17.84C17.9289 18.0355 17.9289 17.9733 17.9289 18.0444C17.931 18.0963 17.9188 18.1477 17.8937 18.1931C17.8687 18.2386 17.8316 18.2763 17.7867 18.3022L17.6711 18.3822Z" fill="#234B8F"/>
<path d="M13.3333 16.4H12.5778C12.5778 16.3555 12.5778 16.3111 12.5778 16.2666V14.7822C12.564 14.6314 12.6001 14.4802 12.6803 14.3518C12.7606 14.2234 12.8807 14.1248 13.0222 14.0711C13.1743 14.0056 13.3436 13.9919 13.5042 14.0321C13.6648 14.0722 13.8078 14.164 13.9111 14.2933V14.3377L14 14.2489C14.1277 14.1257 14.2913 14.0464 14.4671 14.0224C14.6429 13.9985 14.8218 14.0311 14.9778 14.1155C15.063 14.1711 15.1339 14.2459 15.1848 14.3339C15.2358 14.4219 15.2653 14.5207 15.2711 14.6222C15.2757 14.7051 15.2757 14.7882 15.2711 14.8711V16.3911H14.4978V14.7289H14.3556C14.3071 14.7922 14.2848 14.8718 14.2933 14.9511V16.4H13.5378C13.5378 16.4 13.5378 16.3377 13.5378 16.2933V14.9155C13.5422 14.8534 13.5422 14.791 13.5378 14.7289H13.4133C13.4133 14.7289 13.4133 14.7289 13.4133 14.7733C13.409 14.8384 13.409 14.9037 13.4133 14.9689C13.4133 15.3955 13.4133 15.8578 13.4133 16.2489V16.4089" fill="#1A1E1B"/>
<path d="M25.28 16.4H24.5156V14.08H25.5289C25.6902 14.0786 25.8503 14.1088 26 14.1689C26.1158 14.213 26.218 14.2866 26.2966 14.3823C26.3752 14.4781 26.4274 14.5927 26.448 14.7149C26.4687 14.837 26.4571 14.9624 26.4144 15.0787C26.3716 15.195 26.2993 15.2981 26.2045 15.3778L26.1156 15.4489L26.5511 16.3911H25.7778L25.4311 15.68C25.4273 15.6624 25.4273 15.6442 25.4311 15.6267V15.0578H25.5822C25.6255 15.0533 25.6653 15.0323 25.6934 14.9992C25.7216 14.9661 25.7359 14.9234 25.7333 14.88C25.7312 14.8406 25.7146 14.8034 25.6867 14.7755C25.6588 14.7476 25.6216 14.731 25.5822 14.7289H25.3333L25.28 16.4Z" fill="#1A1E1B"/>
<path d="M17.5556 16.4H16.7911V15.0133C16.7951 14.9541 16.7951 14.8948 16.7911 14.8356C16.7911 14.7467 16.7467 14.72 16.6578 14.72C16.5689 14.72 16.4978 14.72 16.4889 14.8267C16.48 14.9333 16.4889 15.0845 16.4889 15.2267H16.72V15.8222H16.5067V16.3645H15.7422C15.7422 16.3645 15.7422 16.2845 15.7422 16.2489V14.9422C15.7292 14.8419 15.7292 14.7403 15.7422 14.64C15.7746 14.5135 15.8378 14.3969 15.9262 14.3007C16.0147 14.2046 16.1255 14.1318 16.2489 14.0889C16.5119 14.0045 16.7947 14.0045 17.0578 14.0889C17.1818 14.1186 17.2943 14.1842 17.3812 14.2775C17.4682 14.3707 17.5257 14.4876 17.5467 14.6133C17.5597 14.7047 17.5597 14.7975 17.5467 14.8889V16.4178" fill="#1A1E1B"/>
<path d="M19.6889 16.4H18.9333C18.929 16.3765 18.929 16.3524 18.9333 16.3289C18.9333 15.8578 18.9333 15.3778 18.9333 14.8978C18.9255 14.7082 18.983 14.5218 19.0963 14.3696C19.2096 14.2175 19.3717 14.1089 19.5556 14.0622C19.7735 14.0002 20.0043 14.0002 20.2222 14.0622C20.366 14.0985 20.4954 14.1773 20.5938 14.2883C20.6921 14.3993 20.7546 14.5373 20.7733 14.6844C20.7822 14.7731 20.7822 14.8624 20.7733 14.9511C20.7733 15.4044 20.7733 15.84 20.7733 16.32V16.4H20V16.2844C20 15.8578 20 15.3955 20 15.0044C20.0044 14.9571 20.0044 14.9095 20 14.8622C20 14.7644 19.9467 14.72 19.8578 14.72C19.7689 14.72 19.7156 14.72 19.6978 14.8444C19.6934 14.9066 19.6934 14.9689 19.6978 15.0311V16.4" fill="#1A1E1B"/>
<path d="M7.72444 14.08H8.48C8.48 14.1244 8.48 14.16 8.48 14.1955V15.5111C8.47552 15.5524 8.47552 15.5942 8.48 15.6355C8.48113 15.6542 8.48594 15.6725 8.49416 15.6893C8.50237 15.7061 8.51383 15.7212 8.52787 15.7336C8.54191 15.7459 8.55825 15.7554 8.57597 15.7615C8.59369 15.7676 8.61243 15.77 8.63111 15.7688C8.64981 15.7713 8.66882 15.7701 8.68703 15.7651C8.70524 15.7602 8.72228 15.7517 8.73717 15.7401C8.75206 15.7285 8.7645 15.7141 8.77376 15.6977C8.78302 15.6812 8.78892 15.6631 8.79111 15.6444C8.79553 15.5971 8.79553 15.5495 8.79111 15.5022V14.08H9.55556V15.5733C9.55627 15.7972 9.47245 16.0132 9.32083 16.178C9.16922 16.3428 8.96099 16.4443 8.73778 16.4622C8.60801 16.4799 8.47644 16.4799 8.34667 16.4622C8.16604 16.4401 8.0002 16.3512 7.88177 16.213C7.76334 16.0749 7.70088 15.8974 7.70667 15.7155C7.70667 15.1822 7.70667 14.6577 7.70667 14.1066" fill="#1A1E1B"/>
<path d="M23.6534 16.4H22.88V14.7555H22.3022V14.0889H24.2134V14.7466H23.6534V16.4Z" fill="#1A1E1B"/>
<path d="M9.99113 14.08H10.7467C10.7467 14.1244 10.7467 14.16 10.7467 14.1955V15.5111C10.7467 15.6533 10.8 15.7066 10.9511 15.7244H11.0578V16.4C10.8636 16.4221 10.6669 16.4039 10.48 16.3466C10.3396 16.3012 10.2166 16.2137 10.1276 16.0961C10.0386 15.9784 9.98782 15.8363 9.98224 15.6888C9.98224 15.1555 9.98224 14.6222 9.98224 14.08" fill="#1A1E1B"/>
<path d="M12.0889 14.08H11.3333V16.4H12.0889V14.08Z" fill="#1A1E1B"/>
<path d="M22 14.08H21.2534V16.3911H22V14.08Z" fill="#1A1E1B"/>
<path d="M22.1778 17.0577L22.202 17.0191C22.2154 17.0429 22.2227 17.0699 22.2227 17.0977C22.2227 17.1392 22.2066 17.179 22.1778 17.2089V17.1466C22.1734 17.1172 22.1734 17.0872 22.1778 17.0577Z" fill="#234B8F"/>
<path d="M8.23113 17.8666C8.21089 17.9169 8.17671 17.9603 8.13262 17.9918C8.08853 18.0233 8.03635 18.0416 7.98224 18.0444C7.8578 18.0444 7.82224 17.9378 7.78669 17.84C7.72193 17.6547 7.70064 17.457 7.72447 17.2622C7.73539 17.1473 7.7686 17.0355 7.82224 16.9333C7.83802 16.8999 7.86332 16.872 7.89496 16.853C7.92661 16.834 7.96316 16.8249 8.00002 16.8266C8.03814 16.8243 8.07601 16.8342 8.10802 16.855C8.14004 16.8758 8.16451 16.9064 8.1778 16.9422C8.1778 17.0133 8.22224 17.0933 8.24891 17.1733L8.12447 17.2355C8.12447 17.1911 8.12447 17.1466 8.08002 17.1111C8.07274 17.0961 8.06138 17.0834 8.04723 17.0745C8.03308 17.0656 8.01672 17.0609 8.00002 17.0609C7.98332 17.0609 7.96696 17.0656 7.95281 17.0745C7.93867 17.0834 7.9273 17.0961 7.92002 17.1111C7.89694 17.1594 7.87906 17.2101 7.86669 17.2622V17.5555C7.87757 17.5954 7.89246 17.6342 7.91113 17.6711C7.91113 17.7778 8.00891 17.7955 8.0978 17.7155C8.0978 17.7155 8.18669 17.6355 8.0978 17.7155C8.0978 17.7155 8.14224 17.6089 8.0978 17.5644H8.00002V17.3866H8.20447V17.7778C8.20109 17.8073 8.20109 17.8371 8.20447 17.8666" fill="#234B8F"/>
<path d="M15.7067 17.2L15.8045 17.1111L15.8756 17.2444L16 17.1378C16.037 17.1487 16.0696 17.1708 16.0935 17.201C16.1173 17.2313 16.1313 17.2682 16.1334 17.3066V18.0444H16.0267V17.4933C16.0267 17.4933 16.0267 17.4933 16.0267 17.44L16 17.3333L15.9378 17.4578C15.9378 17.4578 15.9378 17.4578 15.9378 17.5111V18.0089H15.8845C15.8845 17.84 15.8845 17.6711 15.8845 17.4933C15.8886 17.4668 15.8886 17.4398 15.8845 17.4133V17.3244C15.8222 17.3244 15.8311 17.3866 15.8045 17.4222C15.8003 17.4487 15.8003 17.4757 15.8045 17.5022V18.0089C15.7067 18.0089 15.7067 18.0089 15.7067 17.9555C15.7067 17.9022 15.7067 17.8933 15.7067 17.8666V17.2622C15.7023 17.2327 15.7023 17.2028 15.7067 17.1733H15.7867V17.2533V17.1911" fill="#234B8F"/>
<path d="M11.9378 18.0356H11.8045C11.8001 18.0061 11.8001 17.9761 11.8045 17.9467V17.44C11.8045 17.3956 11.8045 17.3511 11.7334 17.3422C11.7171 17.3882 11.7171 17.4384 11.7334 17.4844V18.0356H11.5556V17.1467H11.6533V17.2L11.7689 17.12C11.8057 17.13 11.8379 17.1521 11.8605 17.1828C11.8831 17.2134 11.8947 17.2508 11.8934 17.2889C11.8934 17.5289 11.8934 17.7689 11.8934 18.0178" fill="#314F92"/>
<path d="M13.1822 18C13.0667 18.08 13.0044 18.0533 12.9689 17.9378C12.9605 17.8937 12.9605 17.8485 12.9689 17.8044V17.1733H13.0844V17.8311C13.0844 17.8311 13.1556 17.7333 13.1556 17.6711V17.1378H13.3333V18.0266C13.2889 18.0266 13.2444 18.0266 13.2089 18.0266" fill="#314F92"/>
<path d="M23.8578 18.0355H23.7156V17.4311C23.7156 17.3866 23.7156 17.3511 23.6533 17.3422C23.6341 17.3583 23.6191 17.3788 23.6098 17.4021C23.6005 17.4254 23.5971 17.4506 23.6 17.4755V18.0355H23.4756V17.1466H23.5733V17.1911L23.6889 17.1111C23.7253 17.1256 23.757 17.1499 23.7805 17.1812C23.8041 17.2126 23.8185 17.2498 23.8222 17.2889C23.8222 17.52 23.8222 17.76 23.8222 18.0089" fill="#314F92"/>
<path d="M24.3822 17.6355L24.2845 17.6889C24.2636 17.7155 24.2522 17.7484 24.2522 17.7822C24.2522 17.8161 24.2636 17.8489 24.2845 17.8755C24.3556 17.8222 24.3645 17.7955 24.3645 17.6355M24.3645 17.4755V17.3511C24.2756 17.3511 24.2845 17.4044 24.2489 17.44H24.1422C24.1533 17.3846 24.1712 17.3309 24.1956 17.28C24.2038 17.2495 24.2227 17.2229 24.2487 17.205C24.2748 17.1871 24.3063 17.179 24.3378 17.1822C24.3698 17.1867 24.3999 17.1999 24.4249 17.2202C24.45 17.2406 24.469 17.2674 24.48 17.2978C24.4849 17.348 24.4849 17.3986 24.48 17.4489C24.48 17.5911 24.48 17.7333 24.48 17.8755C24.48 18.0178 24.48 18 24.48 18.0622C24.4619 18.0791 24.4381 18.0885 24.4133 18.0885C24.3886 18.0885 24.3648 18.0791 24.3467 18.0622L24.2489 18.1155C24.1422 18.1155 24.1245 18.0178 24.1156 17.9467C24.1007 17.9047 24.095 17.86 24.0988 17.8157C24.1027 17.7713 24.116 17.7283 24.1379 17.6895C24.1598 17.6508 24.1898 17.6172 24.2258 17.591C24.2618 17.5648 24.303 17.5466 24.3467 17.5378" fill="#234B8F"/>
<path d="M8.44444 17.3333V17.5111H8.53333C8.53333 17.4489 8.53333 17.3778 8.44444 17.3333ZM8.65778 17.68H8.42667C8.42667 17.8044 8.42667 17.8044 8.49778 17.8667V17.7422L8.62222 17.7867C8.60243 17.8503 8.57868 17.9126 8.55111 17.9733C8.49778 18.0711 8.40889 18.08 8.32889 17.9733C8.27351 17.8986 8.24247 17.8086 8.24 17.7155C8.20874 17.578 8.20874 17.4353 8.24 17.2978L8.28444 17.2C8.35555 17.1022 8.45333 17.0933 8.50667 17.2C8.5438 17.2909 8.56774 17.3867 8.57778 17.4844C8.58224 17.5406 8.58224 17.5971 8.57778 17.6533" fill="#234B8F"/>
<path d="M20.24 17.6355L20.1511 17.6889C20.1302 17.7155 20.1188 17.7483 20.1188 17.7822C20.1188 17.816 20.1302 17.8489 20.1511 17.8755C20.2311 17.8222 20.24 17.7955 20.2311 17.6355M20.2311 17.4666V17.3511C20.1422 17.3511 20.16 17.4044 20.1245 17.44H20.0178C20.0178 17.3866 20.0178 17.3333 20.0178 17.28C20.0292 17.2496 20.05 17.2237 20.0772 17.2061C20.1044 17.1885 20.1366 17.1801 20.1689 17.1822C20.2 17.1863 20.2292 17.1994 20.2529 17.2199C20.2766 17.2405 20.2938 17.2675 20.3022 17.2977C20.3114 17.3477 20.3114 17.3989 20.3022 17.4489V17.8666C20.3022 17.9289 20.3022 17.9911 20.3022 18.0622C20.2833 18.0773 20.2598 18.0856 20.2356 18.0856C20.2113 18.0856 20.1878 18.0773 20.1689 18.0622L20.0711 18.1244C20.0266 18.1085 19.9891 18.0776 19.9647 18.0371C19.9404 17.9966 19.9309 17.9489 19.9378 17.9022C19.9378 17.6977 19.9378 17.6533 20.1778 17.5289" fill="#234B8F"/>
<path d="M11.36 17.4578L11.2889 17.3333C11.1733 17.4578 11.2089 17.5911 11.2089 17.7155C11.2089 17.84 11.2089 17.8311 11.2978 17.8489L11.36 17.7511C11.3955 17.6565 11.3955 17.5523 11.36 17.4578ZM11.0667 17.5911C11.0667 17.5022 11.0667 17.4044 11.12 17.3066C11.1312 17.2754 11.1462 17.2455 11.1645 17.2178C11.2533 17.1111 11.3422 17.12 11.4133 17.2178C11.484 17.3513 11.5119 17.5034 11.4933 17.6533C11.4841 17.7321 11.4662 17.8096 11.44 17.8844C11.4279 17.9218 11.4065 17.9554 11.3778 17.9822C11.3674 17.9987 11.353 18.0123 11.3359 18.0218C11.3188 18.0312 11.2995 18.0362 11.28 18.0362C11.2605 18.0362 11.2413 18.0312 11.2242 18.0218C11.2071 18.0123 11.1926 17.9987 11.1822 17.9822C11.1127 17.8833 11.0755 17.7653 11.0756 17.6444V17.5733" fill="#234B8F"/>
<path d="M23.2534 17.3333C23.1556 17.3778 23.1645 17.44 23.1645 17.5111H23.2978L23.2534 17.3333ZM23.2534 17.8666L23.2978 17.7422L23.3956 17.7866C23.4004 17.8212 23.3981 17.8563 23.3889 17.8899C23.3798 17.9235 23.3639 17.9549 23.3423 17.9822C23.3313 18.0047 23.3143 18.0238 23.2931 18.0371C23.2718 18.0504 23.2473 18.0574 23.2223 18.0574C23.1972 18.0574 23.1727 18.0504 23.1514 18.0371C23.1302 18.0238 23.1132 18.0047 23.1023 17.9822C23.0723 17.9266 23.0514 17.8666 23.04 17.8044C23.0134 17.6545 23.0134 17.501 23.04 17.3511C23.0527 17.2989 23.077 17.2503 23.1111 17.2089C23.1734 17.1378 23.2356 17.1466 23.28 17.2089C23.3171 17.2596 23.3443 17.3169 23.36 17.3778C23.36 17.4755 23.36 17.5733 23.36 17.6889H23.1111C23.1111 17.76 23.1111 17.8489 23.2178 17.8755" fill="#234B8F"/>
<path d="M14.3556 17.4845C14.3381 17.522 14.329 17.563 14.329 17.6045C14.329 17.6459 14.3381 17.6869 14.3556 17.7245C14.3556 17.7245 14.3556 17.84 14.4445 17.84C14.4958 17.7688 14.5234 17.6833 14.5234 17.5956C14.5234 17.5078 14.4958 17.4223 14.4445 17.3511C14.3733 17.3511 14.3911 17.44 14.3556 17.4845ZM14.6489 17.5911C14.6515 17.7097 14.6303 17.8275 14.5867 17.9378C14.5699 17.975 14.542 18.0061 14.5067 18.0267C14.4975 18.0364 14.4865 18.0441 14.4743 18.0493C14.4621 18.0546 14.4489 18.0573 14.4356 18.0573C14.4222 18.0573 14.4091 18.0546 14.3968 18.0493C14.3846 18.0441 14.3736 18.0364 14.3645 18.0267C14.322 18.0002 14.2868 17.9636 14.262 17.9202C14.2371 17.8767 14.2235 17.8278 14.2222 17.7778C14.1866 17.6258 14.1866 17.4676 14.2222 17.3156C14.2316 17.2808 14.2466 17.2477 14.2667 17.2178C14.3556 17.0933 14.4622 17.0933 14.5333 17.2178C14.5831 17.3233 14.6075 17.439 14.6045 17.5556" fill="#234B8F"/>
<path d="M18.6667 17.4844C18.6492 17.522 18.6401 17.563 18.6401 17.6044C18.6401 17.6459 18.6492 17.6868 18.6667 17.7244C18.6667 17.7244 18.6667 17.84 18.7467 17.84C18.798 17.7688 18.8256 17.6833 18.8256 17.5955C18.8256 17.5078 18.798 17.4222 18.7467 17.3511C18.6756 17.3511 18.6933 17.44 18.6667 17.4844ZM18.9689 17.6089C18.9689 17.7066 18.9689 17.8044 18.9067 17.9022C18.8884 17.9459 18.8611 17.9853 18.8267 18.0177C18.8052 18.0384 18.7765 18.0499 18.7467 18.0499C18.7169 18.0499 18.6882 18.0384 18.6667 18.0177C18.6011 17.9612 18.5597 17.8817 18.5511 17.7955C18.5199 17.649 18.5199 17.4976 18.5511 17.3511C18.5659 17.3024 18.5901 17.2571 18.6222 17.2177C18.6844 17.12 18.7644 17.12 18.8356 17.2177C18.8985 17.3127 18.9325 17.4238 18.9333 17.5377C18.9379 17.5612 18.9379 17.5854 18.9333 17.6089" fill="#234B8F"/>
<path d="M10.08 17.7778C10.1245 17.7244 10.08 17.6711 10.08 17.6089C9.95557 17.6622 9.93779 17.7156 10 17.8311C10.0622 17.9467 10.0533 17.7867 10.08 17.76M10.08 18V17.9467C10.0267 17.9467 9.99113 18.0444 9.90224 17.9911C9.86756 17.948 9.84314 17.8977 9.83082 17.8437C9.8185 17.7898 9.8186 17.7339 9.83113 17.68C9.83113 17.5378 9.95557 17.4933 10.0533 17.44C10.1511 17.3867 10.0533 17.3422 9.98224 17.3067L9.93779 17.4133L9.83113 17.36C9.84484 17.3025 9.86266 17.2461 9.88446 17.1911C9.8943 17.1646 9.91286 17.1423 9.93709 17.1277C9.96133 17.1132 9.98979 17.1073 10.0178 17.1111C10.0489 17.1096 10.0797 17.1183 10.1054 17.136C10.1311 17.1536 10.1503 17.1792 10.16 17.2089C10.1643 17.2443 10.1643 17.2801 10.16 17.3156V17.6089C10.16 17.7333 10.16 17.8578 10.16 17.9911H10.0622" fill="#234B8F"/>
<path d="M11.9733 17.7778H12.0711L12.1156 17.8933C12.2133 17.8933 12.2222 17.8933 12.2133 17.7867L12.1156 17.7244C11.9556 17.6533 11.9378 17.4044 12.0267 17.2444C12.0433 17.2207 12.0663 17.2022 12.0931 17.1911C12.1199 17.1801 12.1493 17.177 12.1778 17.1822C12.2088 17.1898 12.2373 17.2053 12.2607 17.227C12.284 17.2488 12.3014 17.2762 12.3111 17.3067C12.3071 17.3421 12.3071 17.3779 12.3111 17.4133L12.2045 17.4667L12.1422 17.36C12.0622 17.4044 12.0533 17.44 12.1422 17.4844C12.2235 17.5373 12.2811 17.6198 12.3026 17.7144C12.3242 17.8089 12.3081 17.9082 12.2578 17.9911C12.2429 18.0113 12.2235 18.0277 12.2011 18.0391C12.1787 18.0504 12.154 18.0563 12.1289 18.0563C12.1038 18.0563 12.0791 18.0504 12.0567 18.0391C12.0343 18.0277 12.0149 18.0113 12 17.9911C11.9558 17.929 11.9339 17.8539 11.9378 17.7778" fill="#234B8F"/>
<path d="M19.4133 18.0178H19.2978V17.3422L19.2267 17.4133C19.2267 17.4133 19.2267 17.4578 19.2267 17.4755V17.9733C19.2267 17.9733 19.2267 17.9733 19.2267 18.0178H19.1111V17.1289C19.1911 17.1289 19.1911 17.1289 19.2444 17.1289L19.3333 17.0667C19.4578 17.0667 19.4756 17.2089 19.4756 17.3244C19.4708 17.3389 19.4708 17.3544 19.4756 17.3689V17.9022C19.4756 17.9022 19.4756 17.9022 19.4756 17.9467" fill="#314F92"/>
<path d="M25.6445 17.44C25.6445 17.44 25.6445 17.3422 25.5645 17.3511C25.5164 17.4285 25.491 17.5178 25.491 17.6089C25.491 17.7 25.5164 17.7892 25.5645 17.8666L25.6267 17.7511C25.6305 17.7246 25.6305 17.6976 25.6267 17.6711C25.6267 17.5911 25.6267 17.5111 25.6267 17.44M25.3689 17.44C25.3639 17.3897 25.3639 17.3391 25.3689 17.2889C25.3753 17.2539 25.3911 17.2214 25.4146 17.1948C25.4381 17.1682 25.4684 17.1485 25.5022 17.1378L25.5822 17.2089H25.6445V18.3378H25.5822V17.9289V18.0089C25.52 18.0622 25.4667 18.0533 25.4311 18.0089C25.4034 17.9301 25.3796 17.85 25.36 17.7689V17.4578" fill="#234B8F"/>
<path d="M15.1111 18.0178H15.0045V17.3422L14.9422 17.4222C14.9422 17.4222 14.9422 17.4667 14.9422 17.4845V17.9822C14.9431 17.997 14.9431 18.0119 14.9422 18.0267H14.8267V17.1378C14.9067 17.1378 14.9067 17.1378 14.96 17.1378L15.0578 17.0756C15.1734 17.0756 15.1911 17.2267 15.2 17.3333C15.2 17.3333 15.2089 17.44 15.2 17.3333C15.2 17.5289 15.2 17.7245 15.2 17.9111" fill="#314F92"/>
<path d="M21.2711 17.8489C21.3232 17.7763 21.3512 17.6893 21.3512 17.6C21.3512 17.5107 21.3232 17.4236 21.2711 17.3511C21.1822 17.3511 21.1911 17.4667 21.1822 17.5289C21.1696 17.5842 21.1694 17.6415 21.1817 17.6969C21.194 17.7522 21.2185 17.8042 21.2533 17.8489M21.4489 17.76C21.4515 17.8359 21.4297 17.9107 21.3867 17.9733C21.375 17.9936 21.3581 18.0105 21.3379 18.0222C21.3176 18.034 21.2945 18.0401 21.2711 18.0401C21.2477 18.0401 21.2247 18.034 21.2044 18.0222C21.1841 18.0105 21.1672 17.9936 21.1556 17.9733C21.0996 17.9163 21.0678 17.8399 21.0667 17.76C21.0316 17.6139 21.0316 17.4616 21.0667 17.3156C21.0874 17.2584 21.1208 17.2067 21.1644 17.1644C21.1724 17.1516 21.1835 17.141 21.1968 17.1336C21.21 17.1262 21.2249 17.1224 21.24 17.1224C21.2551 17.1224 21.27 17.1262 21.2832 17.1336C21.2965 17.141 21.3076 17.1516 21.3156 17.1644C21.3523 17.1979 21.3811 17.2393 21.3995 17.2855C21.418 17.3317 21.4258 17.3815 21.4222 17.4311V17.7778" fill="#234B8F"/>
<path d="M9.32446 17.3333C9.30085 17.3575 9.28425 17.3876 9.27642 17.4205C9.26859 17.4534 9.26983 17.4878 9.28002 17.52H9.40446C9.40446 17.4489 9.40446 17.3778 9.32446 17.3333ZM9.27113 17.7778L9.32446 17.8667C9.39557 17.8667 9.32446 17.7867 9.40446 17.7511H9.52891C9.50854 17.8229 9.47865 17.8917 9.44002 17.9556C9.43172 17.9746 9.41805 17.9908 9.40068 18.0022C9.38331 18.0135 9.363 18.0196 9.34224 18.0196C9.32148 18.0196 9.30117 18.0135 9.2838 18.0022C9.26643 17.9908 9.25276 17.9746 9.24446 17.9556C9.20579 17.9091 9.17841 17.8544 9.16446 17.7956C9.12007 17.6206 9.12007 17.4372 9.16446 17.2622C9.16446 17.1911 9.23557 17.1289 9.31557 17.12C9.39557 17.1111 9.43113 17.1911 9.4578 17.2533V17.3956V17.6356H9.24446V17.7511" fill="#234B8F"/>
<path d="M25.12 17.3422C25.12 17.4044 25.0667 17.4578 25.12 17.52H25.2445C25.2445 17.4489 25.2445 17.3689 25.1378 17.3422M25.1378 17.7778L25.1911 17.8667C25.2711 17.8667 25.1911 17.7867 25.2711 17.7511H25.3956C25.3752 17.8229 25.3453 17.8917 25.3067 17.9556C25.2984 17.9746 25.2847 17.9908 25.2673 18.0022C25.25 18.0135 25.2297 18.0196 25.2089 18.0196C25.1881 18.0196 25.1678 18.0135 25.1505 18.0022C25.1331 17.9908 25.1194 17.9746 25.1111 17.9556C25.0758 17.907 25.0488 17.853 25.0311 17.7956C24.9867 17.6206 24.9867 17.4372 25.0311 17.2622C25.0311 17.1911 25.0934 17.1289 25.1734 17.12C25.2534 17.1111 25.2889 17.1911 25.3156 17.2533C25.3198 17.3007 25.3198 17.3482 25.3156 17.3956V17.6356H25.0667V17.7511" fill="#234B8F"/>
<path d="M9.08445 18.0178H8.98668C9.00021 17.7928 9.00021 17.5672 8.98668 17.3422C8.91557 17.3422 8.92445 17.4489 8.91557 17.5022C8.91159 17.5257 8.91159 17.5498 8.91557 17.5733C8.90669 17.7006 8.90669 17.8283 8.91557 17.9555C8.91557 17.9555 8.91557 18 8.91557 18.0178H8.8089V17.1289C8.8089 17.1289 8.90668 17.1289 8.93334 17.1289L9.02223 17.0667C9.06907 17.0827 9.10888 17.1145 9.13483 17.1567C9.16077 17.1988 9.17125 17.2487 9.16445 17.2978V17.8844" fill="#234B8F"/>
<path d="M17.3245 17.3867H17.2711C17.2496 17.3989 17.2321 17.4172 17.221 17.4394C17.2099 17.4616 17.2057 17.4865 17.2089 17.5111V17.9644C17.2044 18.0058 17.2044 18.0475 17.2089 18.0889H17.0845C17.0888 18.0535 17.0888 18.0177 17.0845 17.9822V17.2978V17.2533L17.1645 17.2978L17.2534 17.2444C17.2934 17.2542 17.329 17.277 17.3547 17.3091C17.3804 17.3413 17.3948 17.3811 17.3956 17.4222C17.3956 17.6622 17.3956 17.8933 17.3956 18.1333C17.3511 18.1333 17.3067 18.1333 17.2711 18.1333C17.2356 18.1333 17.2711 18.1333 17.2711 18.1333V17.5822C17.2711 17.5822 17.2711 17.5822 17.2711 17.5289" fill="#314F92"/>
<path d="M11.0489 17.4311L10.9333 17.4844V17.36C10.9333 17.36 10.8711 17.36 10.8622 17.36C10.8134 17.5071 10.8134 17.6661 10.8622 17.8133C10.9245 17.8133 10.9245 17.8133 10.9689 17.6622L11.0756 17.7066C11.0715 17.7833 11.0534 17.8586 11.0222 17.9288C11.0118 17.9545 10.9948 17.9771 10.9729 17.9942C10.9511 18.0113 10.9252 18.0225 10.8978 18.0266C10.8692 18.0269 10.8412 18.0186 10.8174 18.0027C10.7936 17.9869 10.7752 17.9642 10.7645 17.9377C10.7271 17.8536 10.7059 17.7631 10.7022 17.6711C10.6887 17.5589 10.6887 17.4455 10.7022 17.3333C10.7161 17.2718 10.7434 17.2141 10.7822 17.1644C10.8267 17.1022 10.8889 17.1022 10.9511 17.1644C11.0133 17.2266 11.0311 17.3155 11.0578 17.4133" fill="#234B8F"/>
<path d="M18.2933 17.7778L18.3645 17.8756V17.7156L18.4711 17.76C18.4788 17.86 18.4469 17.9589 18.3822 18.0356C18.3715 18.0503 18.3575 18.0622 18.3412 18.0704C18.325 18.0787 18.3071 18.083 18.2889 18.083C18.2707 18.083 18.2528 18.0787 18.2366 18.0704C18.2203 18.0622 18.2063 18.0503 18.1956 18.0356C18.163 17.9898 18.139 17.9387 18.1245 17.8844C18.0711 17.7046 18.0711 17.5132 18.1245 17.3333C18.1361 17.2886 18.1608 17.2483 18.1956 17.2178C18.2667 17.1467 18.3467 17.1556 18.4 17.2178C18.429 17.2809 18.4528 17.3463 18.4711 17.4133L18.3556 17.4667L18.2933 17.3067L18.2133 17.4311C18.2133 17.5111 18.2133 17.6089 18.2133 17.6978C18.2133 17.6978 18.2133 17.7867 18.2133 17.6978" fill="#234B8F"/>
<path d="M13.5022 17.7778L13.5733 17.8755V17.7155H13.6711C13.6845 17.7954 13.6687 17.8774 13.6267 17.9467C13.6267 18 13.5645 18.0444 13.5022 18.0444C13.4734 18.0461 13.4448 18.0383 13.4207 18.0223C13.3967 18.0062 13.3785 17.9828 13.3689 17.9555C13.3058 17.8071 13.2843 17.6442 13.3067 17.4844C13.3017 17.4282 13.3017 17.3717 13.3067 17.3155C13.3067 17.2444 13.4222 17.1733 13.4667 17.1822C13.5111 17.1911 13.5911 17.2622 13.6178 17.3333V17.4578L13.5111 17.5111L13.4489 17.36L13.3778 17.4489C13.3717 17.4661 13.3717 17.485 13.3778 17.5022C13.3732 17.5792 13.3732 17.6564 13.3778 17.7333V17.7867" fill="#234B8F"/>
<path d="M20.5422 17.7244C20.5422 17.7244 20.5422 17.84 20.64 17.8489L20.6934 17.68L20.7911 17.7333C20.797 17.7809 20.7928 17.8291 20.7791 17.875C20.7653 17.9209 20.7422 17.9635 20.7111 18C20.64 18.0711 20.56 18.0711 20.5067 18C20.472 17.949 20.4478 17.8916 20.4356 17.8311C20.4001 17.6641 20.4001 17.4914 20.4356 17.3244C20.4493 17.2825 20.4704 17.2434 20.4978 17.2089C20.5778 17.12 20.6667 17.1378 20.72 17.2089C20.7461 17.2692 20.7669 17.3316 20.7822 17.3955L20.6667 17.4489L20.6222 17.3155C20.5334 17.3155 20.5511 17.3955 20.5245 17.4311C20.5069 17.4733 20.4978 17.5187 20.4978 17.5644C20.4978 17.6102 20.5069 17.6555 20.5245 17.6978" fill="#234B8F"/>
<path d="M16.56 17.2266L16.64 17.1378C16.6831 17.1482 16.721 17.1736 16.7471 17.2094C16.7731 17.2452 16.7856 17.2891 16.7822 17.3333C16.7822 17.5644 16.7822 17.7955 16.7822 18.0266C16.7822 18.0266 16.7111 18.0266 16.6756 18.0266V17.5289C16.6803 17.5144 16.6803 17.4989 16.6756 17.4844C16.6756 17.44 16.6756 17.3955 16.5956 17.3778C16.5929 17.4162 16.5929 17.4548 16.5956 17.4933C16.5956 17.6178 16.5956 17.7511 16.5956 17.8844V18.0889H16.4889C16.4889 18.0889 16.4889 18.0266 16.4889 18V17.3689C16.4838 17.3454 16.4838 17.3212 16.4889 17.2978C16.4889 17.2978 16.4889 17.2978 16.5422 17.2444V17.36V17.2978" fill="#234B8F"/>
<path d="M26.08 17.9822C26.0089 18.0711 25.9289 18.0711 25.8844 17.9822C25.8761 17.9292 25.8761 17.8752 25.8844 17.8222V17.1822H26V17.5466C26 17.6622 26 17.7777 26.0711 17.9022L26.1333 17.7422C26.1375 17.7157 26.1375 17.6887 26.1333 17.6622C26.1333 17.52 26.1333 17.3777 26.1333 17.2355C26.1333 17.0933 26.1333 17.2355 26.1333 17.2355H26.1867V18.0622H26.1333V17.9555V18.0444" fill="#234B8F"/>
<path d="M12.3734 17.1822C12.4534 17.1822 12.3734 17.0666 12.4267 16.9955L12.5334 16.8889V17.1733H12.6045V17.3422H12.5422V17.8044H12.5956V17.9911C12.4889 18.0444 12.4356 17.9911 12.4089 17.92C12.4046 17.8935 12.4046 17.8665 12.4089 17.84V17.4755C12.4089 17.4222 12.4089 17.3689 12.4089 17.3244C12.4089 17.28 12.4089 17.2177 12.4089 17.1555" fill="#234B8F"/>
<path d="M19.6889 17.36H19.6267V17.8133H19.6889V18C19.5734 18.0533 19.5022 18 19.5022 17.8933C19.5022 17.7866 19.5022 17.6888 19.5022 17.5911C19.5067 17.5349 19.5067 17.4784 19.5022 17.4222C19.5112 17.3993 19.5112 17.3739 19.5022 17.3511C19.4489 17.2977 19.5022 17.2266 19.5022 17.1644C19.5022 17.1022 19.5022 17.0488 19.5556 16.9777L19.6623 16.8355V17.1288H19.7334L19.6889 17.36Z" fill="#234B8F"/>
<path d="M24.1156 17.3422H24.0534C24.0534 17.5022 24.0534 17.6533 24.0534 17.8044V17.9822C23.9645 17.9822 23.9111 17.9822 23.8934 17.9111C23.8756 17.84 23.8934 17.7689 23.8934 17.6977C23.8934 17.6266 23.8934 17.52 23.8934 17.4311C23.9057 17.3905 23.9057 17.3472 23.8934 17.3066C23.8801 17.2805 23.8732 17.2515 23.8732 17.2222C23.8732 17.1928 23.8801 17.1639 23.8934 17.1377C23.9467 17.0844 23.8934 17.0222 23.9378 16.9511L24 16.8889C24 16.8889 24 16.8889 24 16.9511V17.1466H24.0623V17.2889" fill="#314F92"/>
<path d="M12.6578 17.1644C12.6578 17.1644 12.7378 17.1644 12.7733 17.1644L12.8444 17.1111L12.9244 17.1733V17.3777H12.8444C12.8267 17.5996 12.8267 17.8225 12.8444 18.0444H12.7289L12.6578 17.1644Z" fill="#314F92"/>
<path d="M19.9733 17.4044H19.8933C19.8898 17.4547 19.8898 17.5052 19.8933 17.5555V18.08H19.7689V17.1911C19.7689 17.1911 19.84 17.1911 19.8844 17.1911L19.9556 17.1378L20.0356 17.2V17.3066V17.4044" fill="#314F92"/>
<path d="M20.88 16.9867L20.9511 16.88V17.1378H21.0222V17.3156H20.96V17.7778H21.0222V17.9467C20.9245 18.0356 20.88 18.0178 20.8267 17.8756C20.8307 17.852 20.8307 17.828 20.8267 17.8045V17.3956C20.836 17.3777 20.8409 17.3579 20.8409 17.3378C20.8409 17.3177 20.836 17.2978 20.8267 17.28C20.8267 17.28 20.8267 17.1822 20.8267 17.1644C20.8267 17.1467 20.8267 17.0044 20.8267 16.9333" fill="#234B8F"/>
<path d="M21.6622 18.0177H21.5467V17.1288H21.7511C21.8134 17.1822 21.8134 17.1822 21.7511 17.3777H21.68V17.4755C21.6763 17.502 21.6763 17.529 21.68 17.5555V17.9733C21.6748 17.9937 21.6748 18.0151 21.68 18.0355" fill="#314F92"/>
<path d="M13.9289 17.84H14V18.0089C13.9111 18.08 13.84 18.0622 13.8222 17.9644C13.8179 17.9379 13.8179 17.9109 13.8222 17.8844V17.5022C13.8385 17.4562 13.8385 17.406 13.8222 17.36C13.8094 17.3321 13.8028 17.3018 13.8028 17.2711C13.8028 17.2404 13.8094 17.2101 13.8222 17.1822C13.8261 17.1527 13.8261 17.1228 13.8222 17.0933C13.8176 17.0614 13.8218 17.0288 13.8343 16.999C13.8469 16.9693 13.8673 16.9435 13.8933 16.9244C13.8973 16.948 13.8973 16.972 13.8933 16.9955C13.8978 17.0577 13.8978 17.1201 13.8933 17.1822H13.9644V17.3067L13.8933 17.3511C13.8933 17.4844 13.8933 17.6178 13.8933 17.76C13.8895 17.7806 13.8895 17.8017 13.8933 17.8222" fill="#234B8F"/>
<path d="M10.3911 16.8533H10.2845V18.0356H10.3911V16.8533Z" fill="#234B8F"/>
<path d="M24.6933 18.0178H24.5778V16.9333C24.5735 16.9128 24.5735 16.8916 24.5778 16.8711H24.6756V17.9022C24.6756 17.9022 24.6756 17.9733 24.6756 18.0089" fill="#314F92"/>
<path d="M22.88 17.1911L22.9689 17.1378L23.04 17.2V17.3955H22.9689C22.9656 17.437 22.9656 17.4786 22.9689 17.52C22.9689 17.6622 22.9689 17.8044 22.9689 17.9466V18.0711H22.8445C22.8486 18.0416 22.8486 18.0117 22.8445 17.9822V17.3511C22.8401 17.3157 22.8401 17.2798 22.8445 17.2444H22.9245" fill="#234B8F"/>
<path d="M14.1689 18.0356H14.0533V17.1467H14.1689V18.0356Z" fill="#314F92"/>
<path d="M9.72446 17.1822L9.81335 17.2355V17.4489H9.75112L9.69779 17.5733C9.69394 17.5909 9.69394 17.6091 9.69779 17.6266V18.1066H9.62668V17.2711H9.6889V17.3689V17.2622" fill="#234B8F"/>
<path d="M16.9867 17.1911V18.0355H16.88C16.8841 18.0061 16.8841 17.9761 16.88 17.9467V17.2978C16.88 17.2978 16.88 17.2355 16.88 17.2089L16.9867 17.1911Z" fill="#234B8F"/>
<path d="M16.3111 18.0266H16.2667V17.2089H16.32L16.3111 18.0266Z" fill="#234B8F"/>
<path d="M15.1733 18.2933V18.2133L15.2267 18.0711C15.1378 17.9911 15.2267 17.8933 15.1733 17.7955H15.2889C15.3156 17.8809 15.3215 17.9715 15.3061 18.0597C15.2906 18.1478 15.2542 18.231 15.2 18.3022" fill="#314F92"/>
<path d="M16.3111 18.0266V17.2H16.2578V18.0177H16.3023H16.2311V17.1288H16.3289V17.9111C16.3289 17.9111 16.3289 17.9111 16.3289 17.9644" fill="#374090"/>
<path d="M25.6445 18.3556V17.92V18.3289H25.7778V17.2H25.7156H25.7778V18.3911L25.6445 18.3556Z" fill="#374090"/>
<path d="M14.0533 17.0666V16.8889H14.1689V17.1111L14.0533 17.0666Z" fill="#314F92"/>
<path d="M24.6934 18.0177C24.6934 18.0177 24.6934 17.9466 24.6934 17.9111V16.8889H24.5956H24.7022C24.7058 16.9154 24.7058 16.9423 24.7022 16.9689V18.0177C24.7064 18.0353 24.7064 18.0535 24.7022 18.0711" fill="#374090"/>
<path d="M9.72445 17.1822V17.2889V17.1911H9.66223V18.0266C9.66223 18.0266 9.66223 18.0266 9.66223 17.9733V17.1733C9.70796 17.1554 9.75873 17.1554 9.80445 17.1733" fill="#374090"/>
<path d="M13.9289 17.84C13.9251 17.8194 13.9251 17.7983 13.9289 17.7777C13.9289 17.6355 13.9289 17.5022 13.9289 17.3689L14 17.3244V17.2H13.9289C13.9334 17.1378 13.9334 17.0754 13.9289 17.0133C13.9329 16.9898 13.9329 16.9657 13.9289 16.9422L13.9734 16.8889V17.1733H14.0445V17.3511H13.9734L13.9289 17.84Z" fill="#374090"/>
<path d="M16.56 17.2267V17.2889V17.1733C16.56 17.1733 16.5067 17.1733 16.5067 17.2267C16.5016 17.2501 16.5016 17.2743 16.5067 17.2978V17.9289C16.5067 17.9289 16.5067 17.9911 16.5067 18.0178V17.1733H16.5956V17.2356" fill="#374090"/>
<path d="M20.88 16.9866C20.88 17.0577 20.88 17.1377 20.88 17.2177C20.88 17.2977 20.88 17.3066 20.88 17.3333C20.8894 17.3511 20.8942 17.371 20.8942 17.3911C20.8942 17.4112 20.8894 17.431 20.88 17.4489V17.8577C20.884 17.8813 20.884 17.9053 20.88 17.9289C20.88 17.7777 20.88 17.6266 20.88 17.4844C20.8926 17.4409 20.8926 17.3946 20.88 17.3511C20.8568 17.3238 20.8441 17.2891 20.8441 17.2533C20.8441 17.2175 20.8568 17.1828 20.88 17.1555C20.8857 17.1322 20.8857 17.1078 20.88 17.0844V16.9866Z" fill="#374090"/>
<path d="M17.2089 17.1911L17.1289 17.1467V17.1911V17.8755C17.1332 17.911 17.1332 17.9468 17.1289 17.9822V17.1378C17.1478 17.1268 17.1693 17.1211 17.1911 17.1211C17.213 17.1211 17.2344 17.1268 17.2534 17.1378" fill="#374090"/>
<path d="M22.88 17.1911H22.8C22.7956 17.2265 22.7956 17.2623 22.8 17.2977V17.9288C22.8041 17.9583 22.8041 17.9882 22.8 18.0177V17.1288H22.9067" fill="#374090"/>
<path d="M16.9867 17.1911H16.8889C16.8889 17.1911 16.8889 17.2533 16.8889 17.28V17.9288C16.8931 17.9583 16.8931 17.9882 16.8889 18.0177V17.1288H16.9956" fill="#374090"/>
<path d="M16.8889 16.8889H16.9778V17.12H16.8711L16.8889 16.8889Z" fill="#234B8F"/>
<path d="M15.6622 17.1822H15.5822C15.5779 17.2117 15.5779 17.2416 15.5822 17.2711V17.8755C15.5822 17.8755 15.5822 17.9378 15.5822 17.9644C15.5822 17.84 15.5822 17.7067 15.5822 17.5822V17.1644C15.5822 17.1644 15.6533 17.1644 15.6889 17.1644" fill="#314F92"/>
<path d="M8.23113 17.8666C8.22776 17.8371 8.22776 17.8073 8.23113 17.7778V17.4222H8.00002V17.6C7.94669 17.5466 8.00002 17.4755 8.00002 17.4044H8.24891L8.23113 17.8666Z" fill="#374090"/>
<path d="M19.4138 18.0177C19.4138 18.0177 19.4138 18.0177 19.4138 17.9733V17.44C19.4085 17.4255 19.4085 17.4099 19.4138 17.3955V18.0177Z" fill="#374090"/>
<path d="M15.8311 18.0267H15.8844V17.5111C15.8844 17.5111 15.8844 17.5111 15.8844 17.4578V18.0355H15.8044" fill="#314F92"/>
<path d="M9.61778 18.0266H9.68001V17.5466C9.67615 17.5291 9.67615 17.5109 9.68001 17.4933V18.0444H9.60001" fill="#374090"/>
<path d="M15.6626 18.0267V17.52C15.6579 17.4935 15.6579 17.4665 15.6626 17.44V17.9822C15.6626 17.9822 15.6626 17.9822 15.6626 18.0267Z" fill="#314F92"/>
<path d="M14.8178 18.0178C14.8187 18.003 14.8187 17.9881 14.8178 17.9733V17.4756C14.8178 17.4756 14.8178 17.4756 14.8178 17.4133C14.8178 17.5822 14.8178 17.7422 14.8178 17.9111C14.8227 17.9465 14.8227 17.9824 14.8178 18.0178Z" fill="#374090"/>
<path d="M15.7956 17.4311C15.8002 17.4576 15.8002 17.4846 15.7956 17.5111C15.7956 17.6889 15.7956 17.8578 15.7956 18.0266C15.7956 18.0266 15.7956 18.0266 15.7956 17.9733V17.4311Z" fill="#314F92"/>
<path d="M25.0845 17.7777V17.6622H25.3334V17.4222C25.3468 17.5076 25.3468 17.5946 25.3334 17.68H25.0934V17.7777" fill="#314F92"/>
<path d="M16.6756 17.44C16.6809 17.4544 16.6809 17.47 16.6756 17.4844V17.9822V17.4044" fill="#374090"/>
<path d="M9.27112 17.7777V17.6622H9.52001V17.4222C9.53349 17.5076 9.53349 17.5946 9.52001 17.68H9.28001V17.7777" fill="#314F92"/>
<path d="M16.2489 16.8889V17.0666H16.3022V16.8889H16.2489ZM16.2489 16.8889H16.3467V17.1022H16.2489V16.8889Z" fill="#374090"/>
<path d="M24.1156 17.3422V17.2H24.0533V16.9777C24.0533 16.9777 24.0533 16.9777 24.0533 16.9155L24.1067 16.8622V17.1555H24.1689L24.1156 17.3422Z" fill="#374090"/>
<path d="M21.6627 18.0178C21.6568 17.9974 21.6568 17.9759 21.6627 17.9555V17.5378C21.6585 17.5112 21.6585 17.4843 21.6627 17.4578V18.0178Z" fill="#374090"/>
<path d="M8.83641 18.0178C8.83641 18.0178 8.83641 18.0178 8.83641 17.9555C8.82642 17.8283 8.82642 17.7006 8.83641 17.5733C8.83193 17.5498 8.83193 17.5257 8.83641 17.5022V18.0178Z" fill="#374090"/>
<path d="M13.5028 17.7778V17.7244C13.4976 17.6475 13.4976 17.5703 13.5028 17.4933C13.4959 17.4761 13.4959 17.4573 13.5028 17.44V17.7778Z" fill="#374090"/>
<path d="M21.4667 17.7778V17.4667C21.5019 17.5674 21.5019 17.6771 21.4667 17.7778Z" fill="#374090"/>
<path d="M20.5422 17.7244C20.5246 17.6822 20.5156 17.6369 20.5156 17.5911C20.5156 17.5453 20.5246 17.5 20.5422 17.4578V17.7244Z" fill="#374090"/>
<path d="M24.0978 18.0267V17.8489H24.1422C24.1422 17.9111 24.1422 17.9733 24.1422 18.0355" fill="#374090"/>
<path d="M8.0889 17.6C8.15112 17.6444 8.13334 17.6978 8.0889 17.7511V17.6Z" fill="#314F92"/>
<path d="M15.7067 17.2V17.2622V17.1822H15.7511" fill="#314F92"/>
<path d="M6.79112 16.8889C6.79112 16.7644 6.79112 16.6578 6.79112 16.5511C6.79112 15.9911 6.79112 15.44 6.79112 14.8889C6.78706 14.7204 6.72986 14.5574 6.6277 14.4233C6.52554 14.2893 6.38363 14.1909 6.22223 14.1422C5.95903 14.0814 5.68544 14.0814 5.42223 14.1422C5.25373 14.1657 5.09748 14.2435 4.97717 14.3638C4.85687 14.4841 4.77907 14.6404 4.75557 14.8089C4.74641 14.9213 4.74641 15.0343 4.75557 15.1467C4.75557 15.6978 4.75557 16.2578 4.75557 16.8089C4.75557 16.8089 4.75557 16.8533 4.75557 16.88H5.28001V15.92C5.28001 15.6267 5.28001 15.3244 5.28001 15.0311C5.27826 14.9282 5.31301 14.828 5.3781 14.7483C5.44318 14.6686 5.53439 14.6144 5.63557 14.5956C5.72126 14.5867 5.80765 14.5867 5.89334 14.5956C5.98898 14.5927 6.08222 14.6258 6.15463 14.6883C6.22705 14.7509 6.27337 14.8383 6.28446 14.9333C6.28877 14.9806 6.28877 15.0282 6.28446 15.0756C6.28446 15.6356 6.28446 16.1956 6.28446 16.7644V16.8889H6.79112ZM3.88446 15.0133V15.1111C3.88446 15.5733 3.88446 16 3.88446 16.4889C3.88446 16.6578 3.88446 16.8356 3.88446 17.0133C3.89741 17.1841 3.96486 17.3463 4.07687 17.4759C4.18888 17.6055 4.33954 17.6958 4.50668 17.7333C4.7764 17.8039 5.05762 17.819 5.33334 17.7778C5.50143 17.7584 5.65852 17.6845 5.78054 17.5673C5.90257 17.45 5.98278 17.2961 6.0089 17.1289C6.0177 16.9779 6.0177 16.8265 6.0089 16.6756C6.0089 16.16 6.0089 15.6356 6.0089 15.12V15.0311H5.47557V16.7111C5.47557 16.7911 5.47557 16.88 5.47557 16.9689C5.46894 17.0448 5.43748 17.1164 5.38606 17.1726C5.33465 17.2289 5.26614 17.2666 5.19112 17.28C5.09674 17.2928 5.00106 17.2928 4.90668 17.28C4.79547 17.2813 4.68751 17.2425 4.60261 17.1707C4.51771 17.0988 4.46156 16.9988 4.44446 16.8889C4.44006 16.8446 4.44006 16.7999 4.44446 16.7556V14.9778L3.88446 15.0133ZM3.53779 15.9022V14.3556C3.53592 14.2374 3.57206 14.1218 3.64088 14.0258C3.7097 13.9298 3.80755 13.8584 3.92001 13.8222C3.99049 13.8088 4.06287 13.8088 4.13334 13.8222H6.50668C6.58706 13.8184 6.66736 13.8314 6.74241 13.8605C6.81747 13.8895 6.88564 13.9339 6.94254 13.9908C6.99945 14.0477 7.04384 14.1159 7.07287 14.1909C7.1019 14.266 7.11493 14.3463 7.11112 14.4267V17.5022C7.11359 17.5823 7.09964 17.662 7.07013 17.7364C7.04063 17.8109 6.9962 17.8785 6.93957 17.9351C6.88294 17.9917 6.81532 18.0362 6.74087 18.0657C6.66642 18.0952 6.58672 18.1091 6.50668 18.1067C5.71557 18.1067 4.91557 18.1067 4.12446 18.1067C3.99162 18.1094 3.862 18.0656 3.75809 17.9828C3.65418 17.9 3.58253 17.7834 3.55557 17.6533C3.54633 17.5885 3.54633 17.5226 3.55557 17.4578V15.9289" fill="#F3BF17"/>
<path d="M22.2222 16.9866C22.251 17.0165 22.2671 17.0563 22.2671 17.0977C22.2671 17.1392 22.251 17.179 22.2222 17.2089C22.2222 17.2089 22.2222 17.1644 22.2222 17.1466C22.2179 17.1172 22.2179 17.0872 22.2222 17.0577L22.2667 16.9866" fill="#E4E2F0"/>
<path d="M24.3822 17.6356C24.3822 17.7956 24.3822 17.8222 24.3022 17.8756C24.2813 17.8489 24.27 17.8161 24.27 17.7822C24.27 17.7484 24.2813 17.7155 24.3022 17.6889L24.4 17.6356" fill="#E4E2F0"/>
<path d="M8.44446 17.3333C8.55113 17.3778 8.52446 17.4489 8.53335 17.5111H8.40891V17.3333" fill="#E4E2F0"/>
<path d="M20.24 17.6356C20.24 17.7956 20.24 17.8222 20.16 17.8756C20.1391 17.8489 20.1277 17.8161 20.1277 17.7822C20.1277 17.7484 20.1391 17.7155 20.16 17.6889L20.2489 17.6356" fill="#E4E2F0"/>
<path d="M11.36 17.7778V17.4844C11.3955 17.579 11.3955 17.6832 11.36 17.7778Z" fill="#374090"/>
<path d="M23.2533 17.3333L23.2978 17.5111H23.1645C23.1645 17.44 23.1645 17.3778 23.2533 17.3333Z" fill="#E4E2F0"/>
<path d="M14.3556 17.4844V17.7244C14.3381 17.6868 14.329 17.6459 14.329 17.6044C14.329 17.563 14.3381 17.522 14.3556 17.4844Z" fill="#374090"/>
<path d="M18.6667 17.4844V17.7244C18.6492 17.6868 18.6401 17.6459 18.6401 17.6044C18.6401 17.563 18.6492 17.522 18.6667 17.4844Z" fill="#374090"/>
<path d="M25.6445 17.7778V17.4667C25.6978 17.5378 25.6445 17.6178 25.6445 17.6978C25.6482 17.7243 25.6482 17.7513 25.6445 17.7778Z" fill="#374090"/>
<path d="M9.32445 17.3333C9.40445 17.3778 9.39556 17.4489 9.40445 17.52H9.28001C9.26982 17.4878 9.26858 17.4534 9.27641 17.4205C9.28424 17.3876 9.30084 17.3575 9.32445 17.3333Z" fill="#E4E2F0"/>
<path d="M25.12 17.3422C25.2267 17.3422 25.2 17.4489 25.2267 17.52H25.1022C25.1022 17.4578 25.1022 17.4044 25.1022 17.3422" fill="#E4E2F0"/>
<path d="M16.2489 16.8889H16.3022V17.0577H16.2489V16.8889Z" fill="#234B8F"/>
<path d="M3.88446 15.0133H4.44446V16.7911C4.4421 16.8236 4.4421 16.8563 4.44446 16.8889C4.46133 16.9972 4.51619 17.0961 4.59924 17.1677C4.68229 17.2394 4.78811 17.2792 4.89779 17.28C4.99218 17.2928 5.08786 17.2928 5.18224 17.28C5.25725 17.2666 5.32576 17.2289 5.37718 17.1726C5.4286 17.1164 5.46005 17.0448 5.46668 16.9689C5.46668 16.88 5.46668 16.7911 5.46668 16.7111V15.0133H6.00891V15.1111C6.00891 15.6266 6.00891 16.1511 6.00891 16.6666C6.01771 16.8176 6.01771 16.969 6.00891 17.12C5.98458 17.2888 5.90515 17.4448 5.78297 17.5637C5.66079 17.6827 5.50272 17.7579 5.33335 17.7778C5.07788 17.8265 4.81549 17.8265 4.56002 17.7778C4.39288 17.7402 4.24222 17.6499 4.13021 17.5203C4.0182 17.3907 3.95075 17.2286 3.93779 17.0578C3.93779 16.88 3.93779 16.7022 3.93779 16.5333C3.93779 16.0711 3.93779 15.6444 3.93779 15.1555V15.0489" fill="#1A1E1B"/>
<path d="M6.79112 16.8889H6.22223V16.7644C6.22223 16.1956 6.22223 15.6356 6.22223 15.0756C6.22655 15.0282 6.22655 14.9806 6.22223 14.9333C6.21114 14.8383 6.16482 14.7509 6.09241 14.6883C6.01999 14.6258 5.92676 14.5927 5.83112 14.5956C5.74542 14.5867 5.65904 14.5867 5.57334 14.5956C5.47217 14.6144 5.38095 14.6686 5.31587 14.7483C5.25078 14.828 5.21603 14.9282 5.21778 15.0311C5.21778 15.3333 5.21778 15.6356 5.21778 15.92V16.8889H4.68445C4.68445 16.8889 4.68445 16.8356 4.68445 16.8178C4.68445 16.2667 4.68445 15.7067 4.68445 15.1556C4.67529 15.0432 4.67529 14.9302 4.68445 14.8178C4.70795 14.6493 4.78575 14.493 4.90606 14.3727C5.02636 14.2524 5.18261 14.1746 5.35112 14.1511C5.61432 14.0903 5.88791 14.0903 6.15112 14.1511C6.31468 14.1941 6.46043 14.2877 6.56743 14.4187C6.67444 14.5497 6.73719 14.7112 6.74667 14.88C6.74667 15.4311 6.74667 15.9822 6.74667 16.5422C6.74667 16.6489 6.74667 16.7556 6.74667 16.88" fill="#1A1E1B"/>
<path d="M27.7333 15.8489H27.5556V16.3911H26.7556V14.9511C26.7424 14.8448 26.7424 14.7374 26.7556 14.6311C26.7896 14.4997 26.8577 14.3797 26.9529 14.2829C27.048 14.1862 27.167 14.1162 27.2978 14.08C27.5392 14.0134 27.7941 14.0134 28.0356 14.08C28.1688 14.1092 28.2905 14.1771 28.3854 14.2751C28.4802 14.3731 28.5441 14.497 28.5689 14.6311C28.5727 14.6992 28.5727 14.7675 28.5689 14.8356V16.4178H27.8044V15.0222C27.8093 14.9631 27.8093 14.9036 27.8044 14.8444C27.8044 14.7467 27.8044 14.72 27.6711 14.72C27.5378 14.72 27.5111 14.72 27.5022 14.8356C27.4927 14.9657 27.4927 15.0965 27.5022 15.2267H27.7244L27.7333 15.8489Z" fill="#1A1E1B"/>
<path d="M27.1822 17.3866L27.1289 17.3333C27.0832 17.3912 27.061 17.4642 27.0667 17.5378V18.0267H26.9511V17.1378C27.0311 17.1378 27.0311 17.1378 27.0756 17.1378L27.1911 17.0667L27.2889 17.1644L27.3867 17.0755C27.4237 17.0892 27.4559 17.1132 27.4796 17.1447C27.5033 17.1763 27.5173 17.214 27.52 17.2533C27.52 17.4844 27.52 17.7244 27.52 17.9644H27.3956C27.3956 17.9644 27.3956 17.9022 27.3956 17.8755V17.3866C27.3997 17.3453 27.3997 17.3036 27.3956 17.2622C27.3333 17.2622 27.3333 17.3333 27.3333 17.3778C27.3333 17.4222 27.3333 17.6711 27.3333 17.8222V17.9733H27.2178V17.4311C27.2178 17.4311 27.2178 17.4311 27.2178 17.3778" fill="#234B8F"/>
<path d="M28.1422 18.0355H28.0178V17.1467C28.0399 17.1357 28.0642 17.13 28.0889 17.13C28.1136 17.13 28.1379 17.1357 28.16 17.1467L28.24 17.0933C28.273 17.0998 28.3033 17.1159 28.327 17.1397C28.3508 17.1634 28.3669 17.1937 28.3733 17.2267C28.3782 17.2858 28.3782 17.3453 28.3733 17.4044V17.9822H28.2667C28.2667 17.8578 28.2667 17.7333 28.2667 17.6178V17.4222C28.2667 17.4222 28.2667 17.3689 28.2667 17.3333C28.2404 17.3484 28.219 17.3705 28.2048 17.3973C28.1906 17.424 28.1844 17.4543 28.1867 17.4844V18.0355" fill="#314F92"/>
<path d="M26.6667 17.3422C26.6039 17.4395 26.5815 17.5575 26.6044 17.6711C26.6044 17.7422 26.6044 17.8222 26.6933 17.8666C26.7279 17.8083 26.7505 17.7437 26.7597 17.6765C26.7688 17.6093 26.7644 17.541 26.7467 17.4755C26.7467 17.4311 26.7467 17.3511 26.6667 17.3422ZM26.5956 17.2089L26.7022 17.1378C26.7398 17.1518 26.7728 17.1758 26.7978 17.207C26.8229 17.2383 26.839 17.2758 26.8444 17.3155C26.889 17.4995 26.889 17.6915 26.8444 17.8755V17.9555C26.7911 18.0711 26.7289 18.0711 26.6489 17.9555V17.8933V18.3022H26.5778V17.2355C26.573 17.2211 26.573 17.2055 26.5778 17.1911H26.6222V17.2889L26.5956 17.2089Z" fill="#234B8F"/>
<path d="M27.8311 17.52C27.8311 17.4489 27.8311 17.3866 27.7778 17.3422C27.7244 17.2978 27.7156 17.4489 27.7156 17.52H27.8311ZM27.6 17.4044C27.5974 17.348 27.6123 17.2922 27.6425 17.2445C27.6727 17.1968 27.7168 17.1596 27.7689 17.1378C27.8844 17.1378 27.9111 17.28 27.9378 17.3689C27.9644 17.4578 27.9378 17.5644 27.9378 17.68H27.68C27.68 17.7511 27.68 17.8311 27.7689 17.8666L27.8133 17.7511H27.9111C27.9175 17.7836 27.9168 17.817 27.9092 17.8493C27.9015 17.8815 27.887 17.9116 27.8667 17.9378C27.8557 17.9603 27.8387 17.9793 27.8175 17.9926C27.7963 18.0059 27.7717 18.013 27.7467 18.013C27.7216 18.013 27.6971 18.0059 27.6759 17.9926C27.6546 17.9793 27.6376 17.9603 27.6267 17.9378C27.6036 17.8772 27.5858 17.8147 27.5733 17.7511V17.3689" fill="#234B8F"/>
<path d="M28.5956 17.84H28.6578V18.0178C28.5778 18.08 28.5511 18.08 28.5067 18.0178V17.5022C28.5067 17.4489 28.5067 17.4044 28.5067 17.3689C28.5067 17.3333 28.5067 17.2711 28.5067 17.2533C28.5067 17.2356 28.5067 17.0933 28.5067 17.0133V16.9511C28.5107 16.9746 28.5107 16.9987 28.5067 17.0222C28.5111 17.0844 28.5111 17.1467 28.5067 17.2089H28.5778V17.3333L28.5067 17.3778C28.5067 17.5111 28.5067 17.6444 28.5067 17.7867C28.5028 17.8072 28.5028 17.8283 28.5067 17.8489" fill="#234B8F"/>
<path d="M26.3911 18.0266H26.3378V17.2089H26.4L26.3911 18.0266Z" fill="#234B8F"/>
<path d="M26.6133 17.2089V17.2889V17.1911H26.5689C26.5641 17.2056 26.5641 17.2211 26.5689 17.2356V18.3289H26.64V17.92V17.9822C26.6357 18.0177 26.6357 18.0535 26.64 18.0889C26.6355 18.1748 26.6355 18.2608 26.64 18.3467H26.5244V17.1733H26.6311" fill="#374090"/>
<path d="M26.3911 18.0266V17.2H26.3289V18.0177H26.3822H26.3111V17.1288H26.4V17.9111C26.4 17.9111 26.4 17.9111 26.4 17.9644" fill="#374090"/>
<path d="M26.1867 18.0266V17.2H26.1334C26.1334 17.2 26.1334 17.4844 26.1334 17.6266C26.1375 17.6531 26.1375 17.6801 26.1334 17.7066V17.1555H26.2311V17.9555C26.2311 17.9555 26.2311 17.9555 26.2311 18" fill="#374090"/>
<path d="M28.5956 17.84C28.5917 17.8194 28.5917 17.7983 28.5956 17.7777C28.5956 17.6355 28.5956 17.5022 28.5956 17.3689L28.6667 17.3244V17.2H28.5956C28.6 17.1378 28.6 17.0754 28.5956 17.0133C28.5996 16.9898 28.5996 16.9657 28.5956 16.9422L28.64 16.8889V17.1733H28.7022V17.3511H28.64L28.5956 17.84Z" fill="#374090"/>
<path d="M28.5067 16.9778C28.5067 17.0578 28.5067 17.1378 28.5067 17.2178C28.5067 17.2978 28.5067 17.3067 28.5067 17.3333C28.5067 17.36 28.5067 17.4133 28.5067 17.4667V17.9822C28.5026 17.9468 28.5026 17.911 28.5067 17.8756V17.4489C28.5118 17.4195 28.5118 17.3894 28.5067 17.36C28.4939 17.3321 28.4873 17.3018 28.4873 17.2711C28.4873 17.2404 28.4939 17.2101 28.5067 17.1822C28.5139 17.1351 28.5139 17.0871 28.5067 17.04C28.5067 17.04 28.5067 17.04 28.5067 16.9778Z" fill="#374090"/>
<path d="M26.3822 17.0489V16.8889H26.3289V17.0577L26.3822 17.0489ZM26.3822 17.0489H26.3111V16.8889H26.4089L26.3822 17.0489Z" fill="#374090"/>
<path d="M27.6 17.4044V17.7777C27.5688 17.6522 27.5688 17.521 27.6 17.3955" fill="#374090"/>
<path d="M26.08 17.9822V17.8933V18H26.1334H26.0711V17.9466" fill="#374090"/>
<path d="M26.6667 17.3422C26.7467 17.3422 26.7378 17.4311 26.7467 17.4756C26.7644 17.541 26.7688 17.6093 26.7597 17.6765C26.7505 17.7437 26.728 17.8084 26.6933 17.8667C26.6045 17.8222 26.6133 17.7422 26.6045 17.6711C26.5815 17.5576 26.6039 17.4396 26.6667 17.3422Z" fill="#E4E2F0"/>
<path d="M27.8311 17.52H27.7156C27.7156 17.4489 27.7156 17.3778 27.7778 17.3422C27.84 17.3067 27.8311 17.4489 27.8311 17.52Z" fill="#E4E2F0"/>
<path d="M26.3823 17.0489H26.3289V16.8889H26.3823V17.0489Z" fill="#234B8F"/>
</g>
<defs>
<clipPath id="clip0_2707_264623">
<rect width="32" height="32" fill="white"/>
</clipPath>
</defs>
</svg>
