<svg width="32" height="32" viewBox="0 0 32 32" fill="none" xmlns="http://www.w3.org/2000/svg">
<g clip-path="url(#clip0_2737_124419)">
<mask id="mask0_2737_124419" style="mask-type:luminance" maskUnits="userSpaceOnUse" x="0" y="0" width="32" height="32">
<path d="M31.9909 0.0177917H0.0175781V31.9911H31.9909V0.0177917Z" fill="white"/>
</mask>
<g mask="url(#mask0_2737_124419)">
<path d="M15.9998 31.9822C24.8265 31.9822 31.982 24.8268 31.982 16C31.982 7.17328 24.8265 0.0177917 15.9998 0.0177917C7.17306 0.0177917 0.0175781 7.17328 0.0175781 16C0.0175781 24.8268 7.17306 31.9822 15.9998 31.9822Z" fill="white"/>
<path d="M18.2481 31.9822C18.2481 31.92 18.2659 31.8489 18.2659 31.7867C18.2659 26.9778 18.2659 22.1689 18.2659 17.3511V17.1378H31.297C31.2704 17.4756 31.2437 17.8133 31.1993 18.1422C30.8615 20.8178 29.9548 23.2889 28.3993 25.5022C26.2393 28.5867 23.3593 30.6845 19.697 31.6711C19.2704 31.7867 18.8348 31.8578 18.3993 31.9467C18.3815 31.9467 18.3726 31.9733 18.3637 31.9822H18.2393H18.2481Z" fill="#030351"/>
<path d="M0.666016 17.1022C0.746016 17.1022 0.826016 17.12 0.906016 17.12C5.0749 17.12 9.24379 17.12 13.4127 17.12H13.6793V17.3333C13.6793 22.1511 13.6793 26.96 13.6793 31.7778C13.6793 31.8489 13.6793 31.9111 13.6793 31.9822H13.5193C13.4571 31.9556 13.386 31.92 13.3238 31.9111C10.346 31.3511 7.77713 30 5.60824 27.9022C2.90602 25.28 1.32379 22.0711 0.799349 18.3467C0.763793 18.1245 0.719349 17.9022 0.683793 17.68V17.1111" fill="#030351"/>
<path d="M30.8881 12.3111H1.02148C1.26148 11.5733 1.45704 10.8445 1.7326 10.1422C3.24371 6.30223 5.8126 3.39556 9.51926 1.54668C11.857 0.382231 14.3459 -0.106658 16.9593 0.0888973C21.6082 0.444453 25.2793 2.58667 28.0882 6.25779C29.4482 8.03556 30.3459 10.0445 30.8704 12.2133C30.8704 12.24 30.8704 12.2667 30.8793 12.3022" fill="#030351"/>
</g>
</g>
<defs>
<clipPath id="clip0_2737_124419">
<rect width="32" height="32" fill="white"/>
</clipPath>
</defs>
</svg>
