<svg width="32" height="32" viewBox="0 0 32 32" fill="none" xmlns="http://www.w3.org/2000/svg">
<g clip-path="url(#clip0_2707_258763)">
<path d="M15.9998 31.9822C24.8265 31.9822 31.982 24.8267 31.982 16C31.982 7.17326 24.8265 0.0177765 15.9998 0.0177765C7.17306 0.0177765 0.0175781 7.17326 0.0175781 16C0.0175781 24.8267 7.17306 31.9822 15.9998 31.9822Z" fill="white"/>
<path fill-rule="evenodd" clip-rule="evenodd" d="M25.2706 24.4444C25.4105 24.4265 25.5519 24.4639 25.6648 24.5485C25.7776 24.6331 25.8531 24.7584 25.875 24.8978C25.8751 24.9858 25.8407 25.0704 25.7793 25.1335C25.7178 25.1966 25.6342 25.2332 25.5461 25.2355C25.1373 25.2355 25.235 24.9333 25.075 24.9333C24.6928 24.9333 24.3995 25.5111 24.115 26.1333L24.0706 26.2311L24.0084 26.3733L23.9461 26.5155C23.795 26.8178 23.7239 26.8711 23.6084 26.8711C23.3239 26.8711 23.2706 26.1155 23.155 25.7778C23.0436 26.0796 22.8478 26.3431 22.591 26.537C22.3341 26.7308 22.027 26.8468 21.7061 26.8711C21.5867 26.882 21.4663 26.8665 21.3535 26.8257C21.2407 26.7849 21.1382 26.7198 21.0534 26.635C20.9686 26.5502 20.9034 26.4477 20.8626 26.3349C20.8218 26.2221 20.8063 26.1017 20.8173 25.9822C20.7864 25.6784 20.8734 25.3743 21.0603 25.1327C21.2473 24.8912 21.5198 24.7307 21.8217 24.6844C21.9932 24.6976 22.1536 24.7741 22.2719 24.8989C22.3901 25.0237 22.4578 25.1881 22.4617 25.36C22.4617 26.0978 21.4573 26.1155 21.4573 26.2489C21.4573 26.3822 21.7061 26.4444 21.8573 26.4444C22.4973 26.4444 22.915 25.6267 23.0662 25.0489C23.0662 24.9511 23.1906 24.7467 23.3684 24.7467C23.5462 24.7467 23.475 25.9911 23.7595 25.9911C24.0439 25.9911 24.2128 24.4444 25.2706 24.4444ZM15.3239 22.7467C15.6528 22.7467 15.9284 23.0489 15.955 23.5555C16.0141 24.3923 15.7987 25.2255 15.3417 25.9289C15.3968 26.0656 15.4879 26.1848 15.6053 26.274C15.7226 26.3632 15.8619 26.419 16.0084 26.4355C16.0606 26.4382 16.1127 26.43 16.1616 26.4117C16.2106 26.3933 16.2552 26.3652 16.2928 26.3289C16.2746 26.223 16.2746 26.1148 16.2928 26.0089C16.2928 25.2355 16.8084 24.5955 17.2439 24.5955C17.6795 24.5955 17.8039 25.0489 17.8039 25.36C17.8039 25.6711 17.5017 25.9911 17.0484 26.2489C17.1446 26.3328 17.2674 26.38 17.395 26.3822C18.035 26.3822 18.3906 25.6267 18.6395 24.9333C18.6928 24.8 18.7817 24.6133 18.9328 24.6133C19.0839 24.6133 19.2973 26.3911 19.7506 26.3911C19.9373 26.3911 20.1061 26 20.1061 25.6978C20.1061 25.3955 20.035 25.4489 20.035 25.1289C20.035 24.8089 20.2217 24.4711 20.4884 24.4711C20.755 24.4711 20.7106 24.6222 20.7106 24.8089C20.7106 25.52 20.1773 26.8267 19.4039 26.8267C18.8261 26.8267 18.8795 25.8489 18.675 25.8489C18.4706 25.8489 18.1417 26.8267 17.0128 26.8267C16.9082 26.826 16.805 26.8017 16.7111 26.7555C16.6172 26.7093 16.535 26.6425 16.4706 26.56C16.2531 26.724 15.9874 26.8115 15.715 26.8089C15.2973 26.8089 15.1106 26.3911 14.9417 26.3911C14.7728 26.3911 14.5061 26.8089 13.8395 26.8089C13.1728 26.8089 13.1995 26.1067 13.0128 26.1067C12.8261 26.1067 12.5773 26.8089 12.2928 26.8089C12.0084 26.8089 11.9195 26.5155 11.7861 26.2222L11.7417 26.1333C11.6173 25.8489 11.4928 25.5822 11.2973 25.5822C11.1017 25.5822 10.8261 25.8667 10.5061 26.16L10.4173 26.24C10.0973 26.5333 9.78615 26.8089 9.65281 26.7911C9.51948 26.7733 9.48393 26.7111 9.5017 26.5955C9.55671 26.3365 9.62796 26.0812 9.71504 25.8311C9.81281 25.5022 9.9017 25.1289 9.95504 25.0133C9.97264 24.9571 10.0083 24.9084 10.0566 24.8746C10.1048 24.8408 10.1629 24.824 10.2217 24.8267C10.275 24.8267 10.2839 24.9067 10.3017 24.9955C10.355 25.2622 10.435 25.5467 10.5239 25.5467C10.6128 25.5467 11.2084 24.5778 11.5195 24.5778C11.8306 24.5778 11.9373 26.1244 12.4084 26.1244C12.5684 26.1244 12.6928 25.92 12.8084 25.68C12.8084 25.28 12.9417 24.6933 13.2795 24.6933C13.6173 24.6933 13.6173 25.2089 13.4484 25.6711C13.4353 25.7548 13.4408 25.8404 13.4645 25.9218C13.4882 26.0031 13.5295 26.0783 13.5855 26.1419C13.6415 26.2055 13.7108 26.256 13.7885 26.2899C13.8661 26.3237 13.9503 26.3401 14.035 26.3378C14.1756 26.3379 14.3136 26.3009 14.4353 26.2307C14.557 26.1605 14.6581 26.0595 14.7284 25.9378C14.598 25.6011 14.5143 25.2482 14.4795 24.8889C14.4261 23.7778 14.8528 22.7644 15.3239 22.7467ZM8.88837 23.1111C9.09281 23.0489 9.1817 23.1111 9.2617 23.3778C9.35611 23.8667 9.38006 24.3665 9.33281 24.8622C9.27948 25.7511 8.80837 26.8622 7.65281 26.8267C6.63948 26.8267 6.20393 26.1689 6.16837 25.2178C6.14451 24.6928 6.21991 24.1681 6.39059 23.6711C6.50615 23.3333 6.58615 23.2178 6.90615 23.1467C7.22615 23.0755 7.12837 23.3511 7.07504 23.6533C6.93133 24.2343 6.88033 24.8343 6.92393 25.4311C6.97726 26.2133 7.3417 26.5333 7.75059 26.5333C8.37281 26.5333 8.63948 26.0622 8.75504 25.3422C8.83287 25.0059 8.83287 24.6563 8.75504 24.32C8.68385 24.1642 8.63306 23.9999 8.60393 23.8311C8.55173 23.6973 8.55204 23.5488 8.60479 23.4153C8.65755 23.2817 8.75885 23.1731 8.88837 23.1111ZM17.0839 25.1467C16.9773 25.1467 16.7461 25.2444 16.7461 25.6C16.7383 25.6846 16.7476 25.77 16.7736 25.851C16.7996 25.9319 16.8416 26.0068 16.8973 26.0711C17.0243 26.0395 17.1353 25.9622 17.2091 25.854C17.2828 25.7458 17.3142 25.6143 17.2973 25.4844C17.2528 25.2711 17.155 25.12 17.0395 25.12L17.0839 25.1467ZM21.7506 25.1467C21.315 25.1467 21.3506 25.84 21.4128 26.0355C21.5388 26.0242 21.6598 25.9806 21.7641 25.909C21.8684 25.8374 21.9525 25.7402 22.0084 25.6267C22.0084 25.3689 21.9461 25.1022 21.7061 25.1022L21.7506 25.1467ZM15.4039 23.4489C15.1817 23.4489 15.0839 24.16 15.1106 24.88C15.1106 25.3511 15.2173 25.4133 15.2795 25.4133C15.5766 24.9615 15.7142 24.4234 15.6706 23.8844C15.6706 23.5822 15.5639 23.4311 15.4039 23.4489ZM13.4484 22.9244C13.4923 22.9208 13.5365 22.926 13.5784 22.9398C13.6202 22.9536 13.6589 22.9757 13.692 23.0047C13.7252 23.0337 13.7522 23.0691 13.7714 23.1088C13.7906 23.1484 13.8017 23.1915 13.8039 23.2355C13.814 23.2967 13.8111 23.3593 13.7956 23.4192C13.78 23.4792 13.7521 23.5353 13.7136 23.5838C13.6751 23.6324 13.6269 23.6723 13.572 23.7011C13.5171 23.7299 13.4569 23.747 13.395 23.7511C13.3046 23.7511 13.2178 23.7158 13.153 23.6527C13.0882 23.5896 13.0507 23.5037 13.0484 23.4133C13.0355 23.3549 13.0345 23.2944 13.0455 23.2356C13.0565 23.1767 13.0793 23.1207 13.1126 23.0709C13.1458 23.0211 13.1887 22.9785 13.2388 22.9457C13.2888 22.9129 13.345 22.8906 13.4039 22.88L13.4484 22.9244Z" fill="#1F36C7"/>
<path fill-rule="evenodd" clip-rule="evenodd" d="M17.6712 19.2178C17.609 19.1022 17.6712 18.8978 17.4757 18.8978C17.2801 18.8978 17.3423 19.0044 17.3246 19.0844C17.1066 19.0115 16.8788 18.9725 16.649 18.9689C16.5233 18.97 16.3981 18.9849 16.2757 19.0133C16.1113 18.8148 15.8963 18.6643 15.6534 18.5778C15.5854 18.8741 15.4195 19.1389 15.1823 19.3292C14.9452 19.5196 14.6508 19.6244 14.3468 19.6267C14.3412 19.6921 14.3227 19.7558 14.2924 19.8141C14.2621 19.8724 14.2205 19.9241 14.1701 19.9663C14.1197 20.0084 14.0614 20.0402 13.9987 20.0597C13.936 20.0792 13.87 20.0861 13.8046 20.08C13.6534 20.08 13.4046 20.0267 13.3868 19.9556C13.3602 19.7642 13.286 19.5826 13.1711 19.4273C13.0562 19.272 12.9042 19.148 12.729 19.0667C12.729 19.12 12.729 19.1822 12.729 19.2356C12.729 19.6711 12.4268 19.9378 11.8401 19.9378H11.5557C12.1957 20.64 12.649 20.3911 12.9334 20.5244C13.4762 20.9881 14.1663 21.2433 14.8801 21.2444C15.309 21.2291 15.7261 21.1003 16.089 20.8711C16.1285 20.9849 16.2053 21.082 16.307 21.1465C16.4087 21.2111 16.5292 21.2393 16.649 21.2267C17.1646 21.2267 17.4668 21.0578 17.4668 20.9244C17.4668 20.7911 17.4668 20.8444 17.369 20.8444C17.2712 20.8444 17.289 20.8444 16.9957 20.8444C16.7575 20.8489 16.5235 20.7818 16.3238 20.6519C16.1242 20.5219 15.9681 20.3351 15.8757 20.1156C15.8644 20.0887 15.8461 20.0653 15.8226 20.0481C15.7991 20.0309 15.7714 20.0204 15.7423 20.0178C15.5734 20.0178 15.2979 20.6222 14.2401 20.6222C13.7868 20.6222 13.5823 20.4533 13.5823 20.4178H13.9912C14.2804 20.4149 14.5661 20.3545 14.8316 20.24C15.0972 20.1255 15.3373 19.9593 15.5379 19.7511C15.6534 19.6089 15.7068 19.6 15.8046 19.6C15.8546 19.6056 15.902 19.6253 15.9414 19.6568C15.9807 19.6882 16.0103 19.7302 16.0268 19.7778C16.0888 19.9705 16.2061 20.1407 16.3642 20.2671C16.5223 20.3936 16.7141 20.4707 16.9157 20.4889C17.4223 20.4889 17.4401 19.6 17.5557 19.6H17.6179C17.658 19.6 17.6964 19.5841 17.7247 19.5557C17.7531 19.5274 17.769 19.489 17.769 19.4489C17.8401 19.3244 17.689 19.2889 17.6712 19.2178ZM16.8357 19.8756C16.8038 19.8768 16.772 19.8714 16.7424 19.8598C16.7127 19.8482 16.6857 19.8306 16.6632 19.808C16.6406 19.7855 16.623 19.7585 16.6114 19.7289C16.5998 19.6992 16.5944 19.6674 16.5957 19.6356C16.5956 19.5711 16.6206 19.5091 16.6654 19.4626C16.7102 19.4162 16.7712 19.389 16.8357 19.3867C16.8978 19.389 16.9565 19.4153 16.9997 19.46C17.0428 19.5048 17.0668 19.5645 17.0668 19.6267C17.0707 19.6588 17.0676 19.6913 17.0576 19.7221C17.0476 19.7529 17.031 19.7811 17.009 19.8048C16.987 19.8285 16.9601 19.8471 16.9302 19.8593C16.9002 19.8715 16.868 19.8771 16.8357 19.8756Z" fill="#1F36C7"/>
<path fill-rule="evenodd" clip-rule="evenodd" d="M15.1113 17.5378C15.2269 17.5378 15.2802 17.6355 15.298 17.7422C15.3241 17.7156 15.3576 17.6973 15.3942 17.6899C15.4307 17.6825 15.4687 17.6862 15.5031 17.7005C15.5376 17.7149 15.5669 17.7392 15.5874 17.7704C15.6079 17.8016 15.6185 17.8382 15.618 17.8755C15.6167 17.9061 15.6079 17.9358 15.5924 17.9622C15.5769 17.9885 15.5552 18.0107 15.5291 18.0267C15.6002 18.0267 15.6536 18.1067 15.6536 18.1778C15.6524 18.1988 15.6471 18.2194 15.638 18.2384C15.6289 18.2573 15.6162 18.2743 15.6005 18.2884C15.5848 18.3024 15.5665 18.3132 15.5466 18.3202C15.5267 18.3271 15.5057 18.3301 15.4847 18.3289C15.3958 18.3289 15.3336 18.2311 15.2447 18.2311C15.1558 18.2311 15.1291 18.2311 15.1113 18.2311C15.1459 18.3064 15.164 18.3882 15.1647 18.4711C15.1647 18.9067 14.578 19.2622 13.9558 19.2622C13.3336 19.2622 13.1113 18.9067 13.1113 18.7555C13.1113 18.6044 13.1113 18.7022 13.1824 18.7022C13.3156 18.7115 13.4493 18.7115 13.5824 18.7022C14.2402 18.7022 14.0002 17.8578 14.6224 17.8578C14.6878 17.8588 14.7521 17.8745 14.8106 17.9037C14.8691 17.9329 14.9202 17.975 14.9602 18.0267C14.9834 18.0052 15.0017 17.979 15.014 17.9499C15.0263 17.9208 15.0322 17.8894 15.0313 17.8578C15.0313 17.76 14.9602 17.6978 14.9602 17.6089C14.9771 17.5849 14.9999 17.5658 15.0264 17.5533C15.0529 17.5409 15.0821 17.5355 15.1113 17.5378Z" fill="#1F36C7"/>
<path fill-rule="evenodd" clip-rule="evenodd" d="M11.1822 17.1022C11.3696 17.1098 11.5535 17.1556 11.7226 17.2367C11.8917 17.3179 12.0425 17.4327 12.1657 17.5742C12.2888 17.7157 12.3818 17.8808 12.4389 18.0595C12.496 18.2382 12.516 18.4267 12.4977 18.6133C12.5016 18.7553 12.4746 18.8963 12.4185 19.0267C12.3624 19.1572 12.2785 19.2738 12.1728 19.3685C12.0671 19.4633 11.942 19.5338 11.8062 19.5754C11.6704 19.6169 11.5272 19.6283 11.3866 19.6089C10.9726 19.6166 10.5703 19.4712 10.257 19.2005C9.94366 18.9298 9.74133 18.5529 9.68882 18.1422C9.68395 17.9667 9.73116 17.7937 9.82449 17.645C9.91782 17.4963 10.0531 17.3786 10.2133 17.3067C10.1438 17.5028 10.1232 17.7128 10.1533 17.9187C10.1833 18.1245 10.263 18.32 10.3856 18.488C10.5082 18.6561 10.6699 18.7918 10.8567 18.8833C11.0435 18.9749 11.2498 19.0195 11.4577 19.0133C11.9377 19.0133 12.1777 18.7822 12.1777 18.3644C12.1777 18.1287 12.0841 17.9026 11.9174 17.7359C11.7507 17.5692 11.5246 17.4756 11.2888 17.4756C11.0133 17.4756 10.8177 17.6267 10.8177 17.84C10.82 17.919 10.838 17.9968 10.8706 18.0687C10.9032 18.1407 10.9499 18.2055 11.0078 18.2593C11.0657 18.313 11.1337 18.3547 11.2079 18.382C11.2821 18.4092 11.361 18.4214 11.4399 18.4178C11.6355 18.4178 11.7688 18.3289 11.7688 18.1956C11.7732 18.1721 11.7732 18.148 11.7688 18.1244C11.7688 18.1244 11.6977 18.1244 11.6266 18.1244C11.3777 18.1244 11.1733 17.9911 11.1733 17.84C11.172 17.8152 11.1759 17.7903 11.1849 17.7671C11.1938 17.7439 11.2075 17.7228 11.2251 17.7052C11.2427 17.6876 11.2638 17.6739 11.287 17.6649C11.3102 17.656 11.3351 17.6521 11.3599 17.6533C11.5244 17.6642 11.679 17.7356 11.794 17.8538C11.9089 17.972 11.9759 18.1286 11.9822 18.2933C11.9822 18.3622 11.9683 18.4303 11.9412 18.4936C11.9141 18.5569 11.8744 18.614 11.8245 18.6614C11.7745 18.7088 11.7155 18.7455 11.6509 18.7694C11.5863 18.7932 11.5176 18.8036 11.4488 18.8C11.3128 18.8036 11.1774 18.7797 11.0508 18.7299C10.9241 18.68 10.8088 18.6051 10.7118 18.5097C10.6147 18.4143 10.5379 18.3003 10.4858 18.1746C10.4338 18.0488 10.4076 17.9139 10.4088 17.7778C10.4269 17.5876 10.5171 17.4116 10.6609 17.286C10.8048 17.1603 10.9913 17.0946 11.1822 17.1022Z" fill="#1F36C7"/>
<path fill-rule="evenodd" clip-rule="evenodd" d="M20.0443 19.0844C19.7196 19.345 19.3138 19.4835 18.8976 19.4756C18.7206 19.4724 18.5458 19.4362 18.3821 19.3689C18.311 19.3689 18.2487 19.44 18.1776 19.5022C17.9701 19.7287 17.8503 20.0219 17.8398 20.3289C17.8432 20.3959 17.86 20.4615 17.8893 20.5219C17.9187 20.5822 17.9599 20.636 18.0105 20.68C18.0612 20.724 18.1202 20.7573 18.184 20.778C18.2479 20.7986 18.3152 20.8061 18.3821 20.8C19.5198 20.8 20.3643 20.0978 20.3643 19.5378C20.3821 19.2178 20.1776 19.0844 20.0443 19.0844ZM19.4576 20.1778L18.7998 20.3644C18.8565 20.2261 18.8867 20.0784 18.8887 19.9289C18.8974 19.8819 18.8974 19.8337 18.8887 19.7867H18.9687C19.2207 19.7962 19.4702 19.7346 19.6887 19.6089C19.6887 19.6089 19.7598 19.6089 19.7598 19.7244C19.7531 19.8197 19.7217 19.9116 19.6687 19.9911C19.6157 20.0705 19.543 20.1349 19.4576 20.1778Z" fill="#1F36C7"/>
<path fill-rule="evenodd" clip-rule="evenodd" d="M19.0662 19.2178C19.3034 19.2351 19.5383 19.1621 19.7239 19.0133C19.7493 18.9957 19.7693 18.9715 19.7818 18.9433C19.7944 18.9151 19.7989 18.884 19.795 18.8533V18.7111C19.795 18.5511 19.5195 18.4444 19.155 18.4444C18.7906 18.4444 18.4795 18.6489 18.4795 18.7289V19.0044C18.4795 19.1022 18.7373 19.2178 19.0662 19.2178Z" fill="#1F36C7"/>
<path fill-rule="evenodd" clip-rule="evenodd" d="M21.1195 16.3644C20.2306 16.3644 20.4617 17.12 19.4217 17.3511C19.2351 17.3511 19.1729 17.4578 19.1729 17.5378C19.1729 17.6178 19.2529 17.8933 19.3684 17.8933C19.8217 17.8933 20.5151 17.0044 20.6484 17.0044C20.7817 17.0044 20.7551 17.0044 20.7551 17.1378C20.7551 17.4756 19.7773 17.9111 19.7773 18.1422C19.7773 18.3733 20.1151 18.5867 20.4617 18.5867C20.9506 18.5867 21.3506 17.6089 21.4929 17.6089C21.6351 17.6089 21.5906 17.6622 21.5906 17.7244C21.5393 17.9543 21.431 18.1676 21.2757 18.3447C21.1204 18.5218 20.923 18.657 20.7017 18.7378C20.5862 18.7822 20.5684 18.8356 20.5684 18.8711C20.5746 18.9481 20.6057 19.021 20.6571 19.0787C20.7084 19.1365 20.7771 19.1759 20.8529 19.1911C21.1832 19.0042 21.4699 18.7489 21.6937 18.4424C21.9175 18.1358 22.0733 17.785 22.1506 17.4133C22.1625 17.2741 22.1441 17.134 22.0967 17.0026C22.0494 16.8711 21.9741 16.7515 21.8762 16.6519C21.7782 16.5522 21.6599 16.475 21.5293 16.4254C21.3987 16.3757 21.2589 16.355 21.1195 16.3644ZM21.5284 17.2C21.46 17.2103 21.3901 17.1944 21.3329 17.1556C21.2693 17.1287 21.2147 17.0844 21.1754 17.0277C21.1361 16.9711 21.1136 16.9045 21.1106 16.8356C21.1106 16.6667 21.1906 16.6133 21.2795 16.6133C21.5284 16.6133 21.8129 16.8356 21.8129 17.0133C21.8129 17.1911 21.7062 17.2 21.5284 17.2Z" fill="#1F36C7"/>
<path fill-rule="evenodd" clip-rule="evenodd" d="M13.1197 17.6089H12.9686C12.9027 17.6079 12.8383 17.5895 12.7819 17.5556C12.6841 17.4667 12.6486 17.0133 12.4797 16.7467C12.4101 16.6237 12.3074 16.5226 12.1833 16.4551C12.0591 16.3875 11.9185 16.3561 11.7775 16.3644C11.573 16.3644 11.333 16.48 11.333 16.6489C11.333 16.8178 11.3863 16.8178 11.7775 16.9156C11.9628 16.9355 12.1371 17.0131 12.2759 17.1375C12.4147 17.2619 12.5108 17.4268 12.5508 17.6089C12.559 17.841 12.633 18.066 12.7641 18.2578C12.9496 18.4542 13.2052 18.5693 13.4752 18.5778C13.6886 18.5778 13.8575 18.5156 13.8575 18.3111C13.8213 18.1326 13.7311 17.9695 13.5991 17.8439C13.4672 17.7183 13.2998 17.6362 13.1197 17.6089ZM13.4397 18.2578C13.253 18.2578 12.9863 18.08 12.9863 17.9556C12.9875 17.9369 12.9923 17.9186 13.0005 17.9018C13.0087 17.8849 13.0202 17.8699 13.0342 17.8575C13.0482 17.8451 13.0646 17.8356 13.0823 17.8296C13.1 17.8235 13.1188 17.821 13.1375 17.8222C13.2886 17.8222 13.5552 18.0089 13.5552 18.16C13.5552 18.3111 13.5197 18.2578 13.4397 18.2578Z" fill="#1F36C7"/>
<path fill-rule="evenodd" clip-rule="evenodd" d="M16.7823 16.9867C16.6667 16.9867 16.6667 17.1644 16.6667 17.2355C16.6667 17.3067 16.6667 17.3155 16.6134 17.3155H16.4801C16.4801 17.3155 16.4178 17.3155 16.4178 17.3955C16.4178 17.6444 16.729 17.8489 17.049 17.8489C17.306 17.8258 17.5579 17.7628 17.7956 17.6622C17.8401 17.6622 17.8578 17.7155 17.8578 17.7511C17.8578 17.7867 17.7956 17.9022 17.7956 17.9378C17.7956 17.9733 17.9912 17.9378 17.9912 18.0711C17.9912 18.2044 17.7423 18.3378 17.3512 18.3378C17.0534 18.3651 16.7568 18.2741 16.5256 18.0845C16.2943 17.8949 16.1471 17.6218 16.1156 17.3244C16.1156 16.4355 17.0845 16.7022 17.0845 16.3555C17.0802 16.306 17.058 16.2596 17.022 16.2253C16.986 16.1909 16.9387 16.1709 16.889 16.1689C16.932 16.115 16.988 16.0729 17.0517 16.0465C17.1155 16.02 17.1848 16.0102 17.2534 16.0178H17.5378C17.6623 16.0178 17.7778 15.9644 17.7778 15.8311C17.7778 15.6978 17.7067 15.6444 17.4223 15.6089C17.4223 15.4311 17.8401 15.5289 17.8401 15.36C17.8401 15.1911 17.6267 15.1555 17.3512 15.1555C16.8797 15.1555 16.4275 15.3428 16.0941 15.6762C15.7607 16.0096 15.5734 16.4618 15.5734 16.9333C15.565 17.1653 15.6037 17.3966 15.6872 17.6131C15.7708 17.8297 15.8974 18.0271 16.0595 18.1933C16.2215 18.3595 16.4156 18.4911 16.63 18.5801C16.8444 18.6691 17.0746 18.7137 17.3067 18.7111C17.5151 18.717 17.7226 18.6812 17.917 18.6058C18.1114 18.5304 18.2887 18.4169 18.4386 18.272C18.5885 18.1271 18.7079 17.9537 18.7898 17.7619C18.8718 17.5702 18.9145 17.364 18.9156 17.1555C18.6085 17.3236 18.2609 17.4035 17.9112 17.3867C17.4992 17.3925 17.0987 17.2506 16.7823 16.9867Z" fill="#1F36C7"/>
<path fill-rule="evenodd" clip-rule="evenodd" d="M17.644 17.1022C17.7195 17.1022 17.7918 17.0723 17.8452 17.0189C17.8985 16.9656 17.9285 16.8932 17.9285 16.8178C17.9285 16.5778 17.6885 16.3644 17.3418 16.3644C17.3673 16.3865 17.3876 16.4138 17.4015 16.4445C17.4153 16.4752 17.4222 16.5085 17.4218 16.5422C17.4218 16.6311 17.3685 16.7289 17.3685 16.8356C17.3671 16.8717 17.3734 16.9077 17.3869 16.9413C17.4004 16.9748 17.4208 17.0052 17.4468 17.0303C17.4728 17.0555 17.5038 17.0749 17.5378 17.0872C17.5717 17.0996 17.6079 17.1047 17.644 17.1022Z" fill="#1F36C7"/>
<path fill-rule="evenodd" clip-rule="evenodd" d="M19.3424 16C19.3831 16.0604 19.4048 16.1316 19.4046 16.2044C19.4046 16.3733 19.2891 16.5422 19.2891 16.7111C19.289 16.7605 19.299 16.8094 19.3184 16.8548C19.3378 16.9002 19.3663 16.9412 19.402 16.9753C19.4378 17.0094 19.4801 17.0359 19.5264 17.0531C19.5726 17.0703 19.6219 17.078 19.6713 17.0756C19.7284 17.0768 19.7852 17.0664 19.8381 17.0448C19.8911 17.0232 19.939 16.9911 19.979 16.9502C20.019 16.9094 20.0502 16.8608 20.0706 16.8075C20.0911 16.7541 20.1004 16.6971 20.098 16.64C20.0757 16.4578 19.9856 16.2907 19.8455 16.172C19.7055 16.0534 19.5258 15.9919 19.3424 16Z" fill="#1F36C7"/>
<path fill-rule="evenodd" clip-rule="evenodd" d="M18.1242 15.3156C18.2045 15.4028 18.2489 15.517 18.2486 15.6356C18.2486 15.9111 18.0442 16.1778 18.0442 16.4267C18.0392 16.5 18.0496 16.5735 18.0748 16.6426C18.1001 16.7116 18.1395 16.7746 18.1906 16.8274C18.2418 16.8802 18.3034 16.9216 18.3716 16.9491C18.4398 16.9765 18.513 16.9893 18.5864 16.9867C18.6616 16.9833 18.7353 16.9649 18.8032 16.9324C18.8711 16.8999 18.9317 16.8541 18.9815 16.7977C19.0313 16.7413 19.0692 16.6754 19.0929 16.604C19.1167 16.5327 19.1258 16.4572 19.1198 16.3822C19.1051 16.1159 18.9974 15.8633 18.8155 15.6683C18.6335 15.4733 18.3888 15.3485 18.1242 15.3156ZM18.5953 16.2756C18.5755 16.2756 18.5558 16.2716 18.5375 16.264C18.5191 16.2565 18.5025 16.2453 18.4885 16.2313C18.4744 16.2173 18.4633 16.2006 18.4557 16.1823C18.4481 16.1639 18.4442 16.1443 18.4442 16.1244C18.4442 16.08 18.4442 16.0089 18.4442 15.9378C18.4442 15.8667 18.4442 15.7867 18.4975 15.7867C18.5509 15.7867 18.7109 15.9733 18.7109 16.0889C18.7109 16.2044 18.6664 16.2756 18.5953 16.2756Z" fill="#1F36C7"/>
<path fill-rule="evenodd" clip-rule="evenodd" d="M14.7197 15.5556C14.595 15.5173 14.4844 15.4428 14.4021 15.3415C14.3197 15.2402 14.2694 15.1166 14.2575 14.9867C14.1508 15.1163 14.083 15.2735 14.062 15.44C14.062 15.84 14.6131 15.84 14.6131 16.1067C14.6131 16.3733 14.3286 16.4267 13.9553 16.4267C13.7761 16.4463 13.5948 16.4262 13.4243 16.3679C13.2538 16.3095 13.0982 16.2142 12.9686 16.0889C12.8975 16.0267 12.862 15.9556 12.782 15.9556C12.702 15.9556 12.6309 16.1244 12.6309 16.2933C12.6531 16.6315 12.8016 16.9489 13.0469 17.1827C13.2922 17.4165 13.6165 17.5496 13.9553 17.5556C14.1236 17.5728 14.2936 17.555 14.4547 17.5033C14.6157 17.4517 14.7644 17.3673 14.8913 17.2554C15.0182 17.1435 15.1206 17.0066 15.192 16.8533C15.2634 16.7 15.3024 16.5335 15.3064 16.3644C15.3242 16.0444 15.2531 15.76 14.7197 15.5556ZM14.4442 17.1644C14.3642 17.1644 14.3464 17.1644 14.3464 17.0489C14.3464 16.9333 14.3464 16.8978 14.3464 16.8178C14.3464 16.7378 14.4264 16.6311 14.6309 16.5333C14.8353 16.4356 14.8353 16.3822 14.8797 16.3822C14.895 16.3806 14.9103 16.3825 14.9247 16.3878C14.939 16.3932 14.9518 16.4019 14.9622 16.4131C14.9726 16.4243 14.9802 16.4379 14.9844 16.4526C14.9886 16.4673 14.9893 16.4828 14.9864 16.4978C14.9745 16.6508 14.9162 16.7966 14.8193 16.9157C14.7224 17.0348 14.5916 17.1216 14.4442 17.1644Z" fill="#1F36C7"/>
<path fill-rule="evenodd" clip-rule="evenodd" d="M13.4841 14.5778C13.3209 14.5408 13.1706 14.461 13.0485 14.3467C12.9502 14.4395 12.8713 14.551 12.8164 14.6746C12.7614 14.7982 12.7316 14.9315 12.7285 15.0667C12.7617 15.3667 12.9061 15.6435 13.1331 15.8426C13.3601 16.0416 13.6533 16.1485 13.9552 16.1422C14.0557 16.1515 14.1569 16.1515 14.2574 16.1422C14.1096 16.1331 13.9713 16.0666 13.8717 15.9571C13.7721 15.8476 13.7192 15.7035 13.7241 15.5556C13.7241 15.1733 14.1596 14.8178 14.1596 14.5156C14.1596 14.2133 13.7063 14.1067 13.7063 13.8044C13.7063 13.5022 14.1418 13.3689 14.1241 12.9689C14.1008 12.8152 14.0377 12.6704 13.941 12.5487C13.8443 12.427 13.7174 12.3329 13.573 12.2756C13.6216 12.3755 13.6488 12.4845 13.653 12.5956C13.653 13.0667 12.7641 13.2711 12.7641 13.6356C12.7641 14 13.653 14.2933 13.653 14.5244C13.6263 14.5333 13.5907 14.5778 13.4841 14.5778Z" fill="#1F36C7"/>
<path fill-rule="evenodd" clip-rule="evenodd" d="M22.6484 14.88C22.9506 14.88 23.1906 15.2711 23.1906 15.7689C23.1818 16.0297 23.1205 16.2861 23.0106 16.5228C22.9006 16.7595 22.7442 16.9716 22.5506 17.1467C22.5506 16.3378 21.5551 16.5867 21.5551 16C21.5526 15.9452 21.5615 15.8906 21.581 15.8394C21.6006 15.7881 21.6305 15.7415 21.6688 15.7023C21.7072 15.6632 21.7531 15.6323 21.8039 15.6116C21.8547 15.591 21.9092 15.581 21.964 15.5822C22.047 15.5787 22.1299 15.5918 22.2077 15.6208C22.2856 15.6498 22.3568 15.6941 22.4173 15.7511C22.3642 15.7007 22.3219 15.6401 22.2928 15.5728C22.2638 15.5056 22.2487 15.4332 22.2484 15.36C22.2381 15.3014 22.2406 15.2413 22.2559 15.1838C22.2712 15.1263 22.2989 15.0728 22.337 15.0271C22.375 14.9814 22.4226 14.9446 22.4764 14.9192C22.5302 14.8938 22.5889 14.8804 22.6484 14.88Z" fill="#1F36C7"/>
<path fill-rule="evenodd" clip-rule="evenodd" d="M10.7461 15.7067C10.6726 15.7169 10.6026 15.7443 10.5417 15.7867C10.5202 15.6872 10.4609 15.6 10.3763 15.5436C10.2916 15.4872 10.1884 15.466 10.0883 15.4844C9.98671 15.5039 9.8966 15.5621 9.83693 15.6466C9.77726 15.7311 9.75267 15.8355 9.76832 15.9378C9.7604 15.9789 9.7604 16.0211 9.76832 16.0622C9.74792 16.0569 9.72651 16.0569 9.7061 16.0622C9.60225 16.0797 9.50917 16.1366 9.44624 16.2211C9.38332 16.3056 9.35541 16.411 9.36832 16.5155C9.38168 16.6186 9.43461 16.7124 9.5159 16.7771C9.59719 16.8418 9.70047 16.8723 9.80388 16.8622C9.87539 16.8548 9.9448 16.8337 10.0083 16.8C10.0297 16.8959 10.0864 16.9802 10.1671 17.0362C10.2478 17.0921 10.3466 17.1157 10.4439 17.1022C10.5476 17.0889 10.6423 17.0363 10.7084 16.9552C10.7745 16.8742 10.8071 16.771 10.7994 16.6667C10.8119 16.6201 10.8119 16.571 10.7994 16.5244H10.8528C10.9549 16.509 11.0474 16.4556 11.1117 16.3748C11.176 16.294 11.2073 16.1918 11.1994 16.0889C11.1372 15.84 10.9505 15.6711 10.7461 15.7067ZM10.3105 16.5333C10.2511 16.5362 10.1927 16.5168 10.1467 16.4791C10.1007 16.4413 10.0704 16.3878 10.0617 16.3289C10.0566 16.2985 10.0577 16.2674 10.0648 16.2374C10.072 16.2074 10.0851 16.1792 10.1033 16.1544C10.1215 16.1295 10.1445 16.1086 10.1709 16.0927C10.1974 16.0769 10.2267 16.0665 10.2572 16.0622C10.3172 16.0546 10.3778 16.0708 10.426 16.1074C10.4742 16.1439 10.5062 16.1979 10.515 16.2578C10.52 16.2893 10.5187 16.3216 10.5111 16.3526C10.5035 16.3837 10.4898 16.4129 10.4707 16.4385C10.4517 16.4642 10.4277 16.4858 10.4002 16.5021C10.3727 16.5184 10.3422 16.529 10.3105 16.5333Z" fill="#1F36C7"/>
<path fill-rule="evenodd" clip-rule="evenodd" d="M21.6443 14.6933C21.6443 14.6133 21.8398 14.4089 21.8398 14.3467C21.8398 14.2844 21.8398 14.3467 21.8398 14.3467C21.5913 14.4669 21.3235 14.5421 21.0487 14.5689C20.8798 14.5689 20.7643 14.5689 20.7643 14.4089C20.7643 14.2489 20.862 14.1955 21.0309 14.1244C21.1998 14.0533 21.582 14.0444 21.582 13.9555C21.582 13.8667 21.2354 13.8933 21.2354 13.8222C21.2354 13.7511 21.3687 13.5378 21.3687 13.4578C21.3687 13.3778 21.3687 13.4578 21.3687 13.4578C21.3687 13.4578 21.1287 13.6622 21.0309 13.6622C20.9332 13.6622 20.8443 13.4044 20.7643 13.4044C20.6843 13.4044 20.7109 13.4044 20.7109 13.4755C20.7109 13.5467 20.7643 13.76 20.7643 14.0089C20.7643 14.2578 20.6398 14.4178 20.5243 14.4178C20.4087 14.4178 20.3287 14.2311 20.3287 14.08C20.3287 13.9289 20.4443 13.6089 20.4443 13.3689C20.4443 13.3244 20.4443 13.3067 20.3909 13.3067C20.3376 13.3067 20.1776 13.5555 20.0709 13.5555C19.9643 13.5555 19.8843 13.2533 19.7865 13.2533C19.6887 13.2533 19.7865 13.3067 19.7865 13.3689C19.7865 13.4311 19.7865 13.5733 19.7865 13.6267C19.7865 13.68 19.7065 13.7067 19.5998 13.7067C19.4931 13.7067 19.4043 13.7067 19.4043 13.76C19.4043 13.8133 19.5376 13.8578 19.6532 13.9467C19.7687 14.0355 20.222 14.2489 20.222 14.6044C20.222 14.96 19.7687 15.1378 19.4487 15.2089C19.2976 15.2089 19.1465 15.2089 19.1465 15.3067C19.1465 15.4044 19.5554 15.3867 19.5554 15.4755C19.5554 15.5644 19.3687 15.76 19.3687 15.8311C19.4309 15.8311 19.6354 15.6711 19.7154 15.6711C19.7954 15.6711 19.822 16.0178 19.902 16.0178C19.982 16.0178 19.9732 15.5022 20.0087 15.3689C20.0443 15.2355 20.2398 14.8978 20.3909 14.8978C20.542 14.8978 20.5954 15.2089 20.5954 15.3689C20.5954 15.6711 20.3732 15.9822 20.3732 16.1422C20.4443 16.1422 20.5954 15.9467 20.6754 15.9467C20.7554 15.9467 20.942 16.2755 21.0131 16.2755C21.0843 16.2755 21.0665 16.2755 21.0665 16.2133C21.0665 16.1511 21.0131 15.9467 21.0131 15.84C21.0131 15.7333 21.3954 15.7955 21.3954 15.7067C21.3954 15.6178 21.2265 15.6089 21.1287 15.5378C21.0074 15.4686 20.9025 15.3739 20.8212 15.2604C20.7399 15.1469 20.6841 15.0171 20.6576 14.88C20.6576 14.8 20.7109 14.7289 20.7732 14.7289C21.2443 14.7289 21.4487 15.4578 21.5376 15.4578C21.6265 15.4578 21.5376 15.1378 21.5998 15.0844C21.6375 15.0728 21.6777 15.0728 21.7154 15.0844H21.9732C22.0176 15.0844 22.0354 15.0844 22.0354 15.0844C22.0354 15.0844 21.6443 14.8 21.6443 14.6933Z" fill="#1F36C7"/>
<path fill-rule="evenodd" clip-rule="evenodd" d="M19.7779 14.4978C19.7779 14.3467 19.1201 13.84 18.9868 13.84C18.9794 13.8383 18.9717 13.8385 18.9645 13.8406C18.9572 13.8426 18.9506 13.8465 18.9453 13.8519C18.9399 13.8572 18.9361 13.8638 18.934 13.8711C18.9319 13.8783 18.9317 13.886 18.9334 13.8933C18.9334 13.8933 18.9334 14.0089 18.9334 14.0622C18.9334 14.1156 18.8801 14.1956 18.7645 14.1956C18.649 14.1956 18.4179 14.1422 18.4179 13.92C18.4179 13.5022 19.2179 13.6 19.3067 13.2178C18.9512 13.2178 18.7823 12.9867 18.5512 12.9867C18.5162 12.9853 18.4814 12.9914 18.4489 13.0044C18.4164 13.0175 18.387 13.0372 18.3627 13.0624C18.3384 13.0876 18.3196 13.1176 18.3077 13.1505C18.2958 13.1834 18.2909 13.2184 18.2934 13.2533C18.2934 13.3156 18.2934 13.44 18.2934 13.5378C18.2934 13.6356 18.2934 13.7067 18.1601 13.7067C18.0267 13.7067 18.0445 13.5911 18.0445 13.4489C18.0445 13.3067 18.0445 13.2 18.0445 13.12C18.0445 12.4978 17.3512 12.7467 17.289 12.2311C17.1542 12.4447 17.0776 12.6899 17.0668 12.9422C17.0668 13.5911 17.9556 13.5289 17.9556 13.9822C17.9568 14.0056 17.9534 14.0289 17.9456 14.051C17.9377 14.073 17.9256 14.0933 17.9099 14.1106C17.8942 14.1279 17.8753 14.142 17.8541 14.152C17.833 14.162 17.8101 14.1677 17.7867 14.1689C17.6356 14.1689 17.5379 13.8489 17.2979 13.8489C17.0579 13.8489 17.1023 13.9289 17.1023 14.1156C17.1023 14.3022 17.1023 14.3556 17.1023 14.4889C17.1033 14.5847 17.0822 14.6795 17.0406 14.7659C16.999 14.8522 16.9379 14.9278 16.8623 14.9867C17.6712 14.9244 17.7512 14.32 17.9556 14.32C18.0268 14.32 18.0534 14.3644 18.0534 14.4C18.0534 14.4356 17.8845 14.6756 17.8845 14.8356C17.8845 14.9956 18.1423 15.1733 18.3112 15.1733C18.4801 15.1733 18.5779 15.1111 18.5779 14.9778C18.5779 14.8444 18.3112 14.6222 18.3112 14.4533C18.3112 14.2844 18.3912 14.3556 18.5067 14.3556C18.7645 14.3556 18.8445 14.3556 18.8445 14.4356C18.8445 14.5156 18.7467 14.64 18.7467 14.6756C18.7467 14.7111 18.7467 14.7378 18.809 14.7378C19.0845 14.7822 19.7779 14.6311 19.7779 14.4978Z" fill="#1F36C7"/>
<path fill-rule="evenodd" clip-rule="evenodd" d="M11.289 12.2222C11.1854 12.4321 11.1336 12.6638 11.1379 12.8978C11.1379 13.92 12.3645 14.88 12.3645 15.5644C12.367 15.7076 12.3136 15.8462 12.2157 15.9507C12.1179 16.0552 11.9831 16.1175 11.8401 16.1244C11.7798 16.1268 11.7197 16.1171 11.6632 16.096C11.6067 16.0748 11.555 16.0426 11.5111 16.0012C11.4673 15.9598 11.4321 15.9101 11.4077 15.8549C11.3833 15.7998 11.3701 15.7403 11.369 15.68C11.369 15.5289 11.4756 15.3955 11.5201 15.3955C11.5645 15.3955 11.5201 15.3955 11.5201 15.4489C11.52 15.475 11.5253 15.5008 11.5358 15.5247C11.5463 15.5486 11.5616 15.57 11.5809 15.5876C11.6001 15.6052 11.6229 15.6185 11.6476 15.6268C11.6724 15.635 11.6986 15.638 11.7245 15.6355C11.7513 15.637 11.7781 15.6326 11.8031 15.6226C11.8281 15.6127 11.8506 15.5976 11.8692 15.5782C11.8877 15.5588 11.9019 15.5356 11.9107 15.5102C11.9195 15.4848 11.9227 15.4578 11.9201 15.4311C11.9201 14.9244 10.9156 14.0533 10.9156 12.8622C10.8396 13.036 10.8002 13.2236 10.8001 13.4133C10.8001 13.9822 11.2179 14.5867 11.2179 15.1467C11.2204 15.2522 11.182 15.3546 11.1108 15.4324C11.0395 15.5103 10.9409 15.5576 10.8356 15.5644C10.7921 15.5669 10.7486 15.5604 10.7077 15.5454C10.6668 15.5304 10.6294 15.5072 10.5978 15.4772C10.5662 15.4473 10.541 15.4112 10.5238 15.3711C10.5066 15.3311 10.4978 15.288 10.4979 15.2444C10.4979 15.1644 10.4979 15.0755 10.5601 15.0755C10.6223 15.0755 10.5601 15.2089 10.7112 15.2089C10.8623 15.2089 10.9156 15.1111 10.9156 14.9244C10.9156 14.4178 10.6312 14.0355 10.6312 13.5467C10.6217 13.4699 10.6217 13.3923 10.6312 13.3155C10.4989 13.518 10.4394 13.7593 10.4623 14V14.6222C10.4623 15.04 10.2579 15.2267 10.009 15.2267C9.96499 15.2255 9.92169 15.2156 9.88162 15.1974C9.84155 15.1793 9.80553 15.1533 9.7757 15.121C9.74586 15.0886 9.72281 15.0507 9.70791 15.0093C9.69302 14.9679 9.68657 14.9239 9.68896 14.88C9.68896 14.88 9.68896 14.7378 9.73341 14.7378C9.77785 14.7378 9.8223 14.88 9.95563 14.88C10.089 14.88 10.2401 14.6222 10.2401 14.1067C10.2121 13.7245 10.2964 13.3425 10.4828 13.0076C10.6692 12.6728 10.9494 12.3998 11.289 12.2222Z" fill="#1F36C7"/>
<path fill-rule="evenodd" clip-rule="evenodd" d="M9.61742 11.92C9.70631 11.92 9.74187 12.0089 9.74187 12.0711C9.74187 12.3644 9.36853 13.2 9.36853 13.44C9.36838 13.4551 9.3737 13.4697 9.38351 13.4811C9.39332 13.4926 9.40695 13.5001 9.42187 13.5022C9.57298 13.5022 9.8752 12.8444 9.97298 12.5244C10.0263 12.3644 10.1063 12.2756 10.1774 12.2756C10.2485 12.2756 10.293 12.3467 10.293 12.48C10.1959 13.039 10.0035 13.5773 9.72409 14.0711C9.4728 14.4707 9.28957 14.9093 9.18187 15.3689C9.17921 15.475 9.20301 15.5802 9.25112 15.6748C9.29922 15.7695 9.37012 15.8507 9.45742 15.9111C9.06631 15.9111 8.89742 15.84 8.74631 15.5556C8.08853 16.8356 9.9552 16.7111 9.3152 17.8578C9.19964 17.6533 8.2752 17.44 8.2752 16.24C8.2752 15.2178 9.16409 14.6133 9.16409 14.1778C9.16375 14.1342 9.1531 14.0914 9.13302 14.0528C9.11293 14.0141 9.08398 13.9808 9.04853 13.9556C8.84409 13.7867 8.84409 13.6533 8.6752 13.6533C8.50631 13.6533 8.42631 13.92 8.55964 14.16C8.6094 14.2175 8.64042 14.2888 8.64853 14.3644C8.64853 14.5333 8.37298 14.9867 8.18631 14.9867C7.99964 14.9867 7.85742 14.5156 7.85742 13.7689C7.85742 13.0222 8.04409 12.4444 8.22187 12.4444C8.39964 12.4444 8.29298 12.4444 8.29298 12.5244C8.29298 12.6044 8.29298 12.7644 8.29298 13.0311C8.29298 13.2978 8.36409 13.3333 8.40853 13.3333C8.61298 13.3333 8.57742 12.0711 8.9152 12.0711C9.00409 12.0711 9.01298 12.16 9.01298 12.24C9.01298 12.5244 8.87964 12.9511 8.87964 13.1289C8.87964 13.3067 8.87964 13.28 8.96853 13.28C9.05742 13.28 9.36853 11.92 9.61742 11.92Z" fill="#1F36C7"/>
<path fill-rule="evenodd" clip-rule="evenodd" d="M23.2888 13.5733C23.0044 13.5733 22.8533 14.0711 22.5688 14.0889C22.7377 13.3689 23.4577 12.9867 23.4577 12.3111C23.439 12.0462 23.3456 11.792 23.1883 11.578C23.0309 11.364 22.8161 11.1991 22.5688 11.1022C22.1333 10.4622 21.8133 9.95555 21.0844 9.95555C20.7822 9.95555 20.5866 10.0089 20.3822 10.0089C20.1863 10.0256 19.991 9.97206 19.8311 9.85777C19.8311 9.85777 19.8311 9.85777 19.8311 9.85777C19.8311 10.4267 20.1333 11.7067 21.4044 11.7067C21.7997 11.682 22.1877 11.5888 22.5511 11.4311C22.7561 11.4535 22.9449 11.5534 23.0787 11.7104C23.2125 11.8674 23.2813 12.0695 23.2711 12.2756C23.2694 12.4174 23.2338 12.5567 23.1673 12.6819C23.1009 12.8072 23.0054 12.9147 22.8888 12.9956C22.7911 12.9956 22.6844 12.8267 22.6844 12.6578C22.6844 12.4889 22.7911 12.1244 22.7911 11.9022C22.7911 11.8222 22.7911 11.7867 22.7199 11.7867C22.6488 11.7867 22.0977 12.1244 22.0977 12.5244C22.0977 12.9244 22.6222 13.1022 22.8177 13.2C22.6415 13.4559 22.5065 13.7378 22.4177 14.0356C22.3553 13.7299 22.2599 13.4318 22.1333 13.1467C21.8133 12.2578 21.6977 12.0711 21.0044 11.9911C21.1022 12.3556 22.2844 13.2356 22.2844 14.1244C22.2942 14.1803 22.2942 14.2375 22.2844 14.2933C22.0593 13.6706 21.6501 13.1312 21.1111 12.7467C20.7555 12.3378 20.9599 11.9556 20.3822 11.7333C20.4146 11.7839 20.4331 11.8422 20.4355 11.9022C20.4355 12.1067 20.3377 12.3378 20.3377 12.5067C20.3377 13.1467 21.0577 12.9511 21.4933 13.2978C21.9184 13.7039 22.2072 14.2318 22.3199 14.8089C22.4888 14.5422 22.5866 14.2044 22.8711 14.2044C23.1555 14.2044 23.1288 14.4444 23.1288 14.6311V14.7111C23.3805 14.48 23.536 14.1627 23.5644 13.8222C23.4933 13.6889 23.4222 13.5733 23.2888 13.5733ZM22.1422 11.2C22.0799 11.2 21.9822 11.2 21.8933 11.2C21.8044 11.2 21.5377 11.4844 21.4399 11.4844C21.3422 11.4844 21.3866 11.4844 21.3866 11.4222C21.3866 11.36 21.5911 11.1644 21.5911 11.0844C21.5911 11.0044 21.5111 11.0133 21.4755 11.0133C21.2711 11.0133 20.9866 11.3067 20.8177 11.3067C20.6488 11.3067 20.7555 11.3067 20.7555 11.2533C20.7555 11.2 20.9688 11.0667 20.9688 10.9867C20.9688 10.9067 20.8888 10.8978 20.8177 10.8978C20.7466 10.8978 20.5155 10.9511 20.3999 10.9511C20.2844 10.9511 20.2844 10.9511 20.2844 10.88C20.2844 10.8089 20.6666 10.88 20.6666 10.7022C20.6666 10.5244 20.5511 10.4978 20.5511 10.4267C20.5511 10.3556 20.5511 10.4267 20.6133 10.4267C20.6755 10.4267 20.9066 10.8089 21.0577 10.8089C21.2088 10.8089 21.1377 10.7556 21.1377 10.6756C21.1377 10.5956 21.1377 10.56 21.1377 10.4889C21.1377 10.4178 21.1377 10.4089 21.1911 10.4089C21.2444 10.4089 21.3777 10.9422 21.6622 10.9422C21.7777 10.9422 21.6622 10.6044 21.8133 10.6044C21.9644 10.6044 21.8933 10.7111 21.8933 10.7556C21.8933 11.1111 22.2488 11.1289 22.2488 11.2622C22.2222 11.1644 22.2222 11.2 22.1422 11.2Z" fill="#1F36C7"/>
<path fill-rule="evenodd" clip-rule="evenodd" d="M18.1239 10.4089C18.1561 10.4023 18.1895 10.403 18.2214 10.4109C18.2534 10.4189 18.2832 10.4338 18.3087 10.4546C18.3342 10.4755 18.3548 10.5017 18.3689 10.5315C18.383 10.5612 18.3903 10.5937 18.3903 10.6267C18.3903 10.6596 18.383 10.6921 18.3689 10.7219C18.3548 10.7516 18.3342 10.7779 18.3087 10.7987C18.2832 10.8196 18.2534 10.8345 18.2214 10.8424C18.1895 10.8503 18.1561 10.851 18.1239 10.8444C18.0916 10.851 18.0583 10.8503 18.0263 10.8424C17.9943 10.8345 17.9645 10.8196 17.939 10.7987C17.9135 10.7779 17.893 10.7516 17.8789 10.7219C17.8647 10.6921 17.8574 10.6596 17.8574 10.6267C17.8574 10.5937 17.8647 10.5612 17.8789 10.5315C17.893 10.5017 17.9135 10.4755 17.939 10.4546C17.9645 10.4338 17.9943 10.4189 18.0263 10.4109C18.0583 10.403 18.0916 10.4023 18.1239 10.4089Z" fill="#1F36C7"/>
<path fill-rule="evenodd" clip-rule="evenodd" d="M19.6706 12.5244C19.6114 12.5265 19.5551 12.5503 19.5125 12.5913C19.4698 12.6323 19.4438 12.6876 19.4395 12.7467C19.4418 12.8064 19.4671 12.8629 19.5102 12.9044C19.5533 12.9458 19.6108 12.9689 19.6706 12.9689C19.7024 12.9701 19.7342 12.9648 19.7639 12.9532C19.7936 12.9415 19.8205 12.9239 19.8431 12.9014C19.8656 12.8788 19.8832 12.8519 19.8948 12.8222C19.9065 12.7925 19.9118 12.7607 19.9106 12.7289C19.9096 12.6992 19.9024 12.6701 19.8895 12.6434C19.8766 12.6167 19.8583 12.5929 19.8357 12.5737C19.8131 12.5544 19.7868 12.5401 19.7583 12.5316C19.7299 12.5232 19.7 12.5207 19.6706 12.5244Z" fill="#1F36C7"/>
<path fill-rule="evenodd" clip-rule="evenodd" d="M18.8979 12.1067C18.8179 12.1101 18.7407 12.1371 18.6758 12.184C18.611 12.231 18.5613 12.2961 18.5331 12.371C18.5049 12.446 18.4992 12.5276 18.517 12.6057C18.5347 12.6838 18.575 12.755 18.6328 12.8104C18.6906 12.8658 18.7635 12.903 18.8423 12.9174C18.9211 12.9318 19.0023 12.9227 19.076 12.8913C19.1497 12.8599 19.2126 12.8076 19.2567 12.7408C19.3009 12.674 19.3245 12.5956 19.3246 12.5156C19.3235 12.4607 19.3115 12.4066 19.2894 12.3563C19.2674 12.3061 19.2356 12.2607 19.196 12.2227C19.1564 12.1847 19.1097 12.155 19.0585 12.135C19.0074 12.1151 18.9528 12.1055 18.8979 12.1067Z" fill="#1F36C7"/>
<path fill-rule="evenodd" clip-rule="evenodd" d="M18.16 11.92C18.1289 11.92 18.0981 11.9262 18.0694 11.9384C18.0408 11.9506 18.0149 11.9684 17.9933 11.9908C17.9718 12.0132 17.9549 12.0398 17.9439 12.0688C17.9328 12.0979 17.9277 12.1289 17.9289 12.16C17.9289 12.2213 17.9532 12.2801 17.9966 12.3234C18.0399 12.3668 18.0987 12.3911 18.16 12.3911C18.1911 12.3923 18.2221 12.3872 18.2512 12.3761C18.2802 12.3651 18.3068 12.3482 18.3292 12.3266C18.3516 12.3051 18.3694 12.2792 18.3816 12.2505C18.3938 12.2219 18.4 12.1911 18.4 12.16C18.4 12.0963 18.3747 12.0353 18.3297 11.9903C18.2847 11.9453 18.2236 11.92 18.16 11.92Z" fill="#1F36C7"/>
<path fill-rule="evenodd" clip-rule="evenodd" d="M19.6438 12.2933C19.68 12.2945 19.7161 12.2886 19.75 12.2758C19.7839 12.263 19.8149 12.2437 19.8413 12.2189C19.8677 12.1942 19.889 12.1645 19.9039 12.1315C19.9188 12.0985 19.9271 12.0629 19.9283 12.0267C19.9283 11.9512 19.8983 11.8789 19.845 11.8255C19.7916 11.7722 19.7193 11.7422 19.6438 11.7422C19.5684 11.7422 19.496 11.7722 19.4427 11.8255C19.3893 11.8789 19.3594 11.9512 19.3594 12.0267C19.3659 12.0982 19.3984 12.1649 19.4509 12.2141C19.5033 12.2633 19.572 12.2914 19.6438 12.2933Z" fill="#1F36C7"/>
<path fill-rule="evenodd" clip-rule="evenodd" d="M17.4571 11.44C17.3673 11.4398 17.2806 11.4735 17.2147 11.5345C17.1487 11.5956 17.1083 11.6793 17.1016 11.7689C17.1015 11.8148 17.1108 11.8602 17.1289 11.9024C17.1469 11.9446 17.1734 11.9826 17.2067 12.0142C17.24 12.0459 17.2793 12.0704 17.3224 12.0862C17.3654 12.1021 17.4113 12.1091 17.4571 12.1067C17.5484 12.1068 17.6363 12.0718 17.7025 12.0089C17.7686 11.946 17.8081 11.8601 17.8127 11.7689C17.804 11.68 17.763 11.5975 17.6974 11.5368C17.6319 11.4762 17.5464 11.4418 17.4571 11.44Z" fill="#1F36C7"/>
<path fill-rule="evenodd" clip-rule="evenodd" d="M18.7199 11.6889C18.7187 11.7196 18.7238 11.7502 18.7349 11.7788C18.7461 11.8074 18.7631 11.8334 18.7848 11.8551C18.8065 11.8768 18.8325 11.8938 18.8611 11.905C18.8897 11.9161 18.9203 11.9212 18.951 11.92C18.9821 11.9212 19.0131 11.9161 19.0422 11.905C19.0713 11.8939 19.0978 11.8771 19.1202 11.8555C19.1426 11.8339 19.1605 11.8081 19.1726 11.7794C19.1848 11.7508 19.191 11.72 19.191 11.6889C19.191 11.6252 19.1657 11.5642 19.1207 11.5192C19.0757 11.4742 19.0147 11.4489 18.951 11.4489C18.8889 11.4512 18.8301 11.4775 18.787 11.5222C18.7439 11.567 18.7199 11.6267 18.7199 11.6889Z" fill="#1F36C7"/>
<path fill-rule="evenodd" clip-rule="evenodd" d="M18.2483 11.7511C18.2991 11.7592 18.3511 11.7562 18.4006 11.7423C18.4501 11.7284 18.496 11.7039 18.5351 11.6705C18.5743 11.6371 18.6057 11.5957 18.6272 11.549C18.6488 11.5023 18.6599 11.4514 18.6599 11.4C18.6599 11.3486 18.6488 11.2978 18.6272 11.2511C18.6057 11.2043 18.5743 11.1629 18.5351 11.1295C18.496 11.0961 18.4501 11.0716 18.4006 11.0577C18.3511 11.0438 18.2991 11.0408 18.2483 11.0489C18.2005 11.0477 18.1528 11.056 18.1082 11.0732C18.0635 11.0904 18.0227 11.1163 17.988 11.1493C17.9533 11.1823 17.9255 11.2219 17.9061 11.2656C17.8867 11.3094 17.8762 11.3566 17.875 11.4044C17.8761 11.4519 17.8868 11.4987 17.9062 11.542C17.9257 11.5853 17.9537 11.6242 17.9885 11.6566C18.0233 11.6889 18.0642 11.7139 18.1089 11.7301C18.1535 11.7464 18.2009 11.7535 18.2483 11.7511Z" fill="#1F36C7"/>
<path fill-rule="evenodd" clip-rule="evenodd" d="M19.5555 11.5556C19.6208 11.5533 19.6829 11.5264 19.7291 11.4802C19.7753 11.434 19.8022 11.372 19.8044 11.3067C19.8058 11.274 19.8002 11.2415 19.788 11.2111C19.7759 11.1808 19.7574 11.1534 19.7339 11.1307C19.7104 11.108 19.6823 11.0906 19.6516 11.0796C19.6208 11.0685 19.5881 11.0641 19.5555 11.0667C19.4902 11.0689 19.4282 11.0958 19.382 11.142C19.3358 11.1882 19.3089 11.2502 19.3066 11.3156C19.3066 11.3478 19.3131 11.3798 19.3257 11.4095C19.3383 11.4392 19.3568 11.4661 19.38 11.4885C19.4033 11.5109 19.4308 11.5284 19.461 11.5399C19.4911 11.5514 19.5233 11.5567 19.5555 11.5556Z" fill="#1F36C7"/>
<path fill-rule="evenodd" clip-rule="evenodd" d="M17.5552 11.1822C17.5863 11.1834 17.6173 11.1783 17.6463 11.1672C17.6754 11.1562 17.702 11.1393 17.7244 11.1177C17.7468 11.0962 17.7646 11.0703 17.7768 11.0416C17.7889 11.013 17.7952 10.9822 17.7952 10.9511C17.7952 10.8875 17.7699 10.8264 17.7249 10.7814C17.6799 10.7364 17.6188 10.7111 17.5552 10.7111C17.5241 10.7111 17.4933 10.7173 17.4646 10.7295C17.436 10.7417 17.4101 10.7595 17.3885 10.7819C17.3669 10.8043 17.3501 10.8309 17.339 10.8599C17.328 10.889 17.3229 10.92 17.3241 10.9511C17.3213 10.9821 17.3255 11.0134 17.3361 11.0427C17.3468 11.0719 17.3637 11.0985 17.3857 11.1205C17.4078 11.1426 17.4343 11.1595 17.4636 11.1702C17.4929 11.1808 17.5241 11.1849 17.5552 11.1822Z" fill="#1F36C7"/>
<path fill-rule="evenodd" clip-rule="evenodd" d="M18.9331 11.1644C19.0069 11.1627 19.0785 11.139 19.1389 11.0966C19.1993 11.0541 19.2457 10.9946 19.2724 10.9258C19.299 10.8569 19.3046 10.7817 19.2884 10.7097C19.2723 10.6376 19.2352 10.572 19.1817 10.521C19.1283 10.4701 19.061 10.4361 18.9882 10.4234C18.9155 10.4107 18.8406 10.4199 18.7731 10.4498C18.7056 10.4796 18.6484 10.5288 18.6089 10.5912C18.5693 10.6535 18.5491 10.7262 18.5509 10.8C18.5555 10.8983 18.5977 10.991 18.6689 11.0588C18.7401 11.1267 18.8347 11.1645 18.9331 11.1644Z" fill="#1F36C7"/>
<path fill-rule="evenodd" clip-rule="evenodd" d="M19.2174 10.2933C19.2497 10.2999 19.283 10.2992 19.315 10.2913C19.347 10.2834 19.3768 10.2685 19.4023 10.2476C19.4278 10.2268 19.4483 10.2005 19.4625 10.1708C19.4766 10.141 19.4839 10.1085 19.4839 10.0756C19.4839 10.0426 19.4766 10.0101 19.4625 9.98034C19.4483 9.95059 19.4278 9.92434 19.4023 9.90349C19.3768 9.88265 19.347 9.86774 19.315 9.85983C19.283 9.85193 19.2497 9.85122 19.2174 9.85778C19.1883 9.85659 19.1591 9.86116 19.1317 9.87124C19.1043 9.88132 19.0791 9.89671 19.0577 9.91653C19.0362 9.93634 19.0188 9.96019 19.0066 9.98672C18.9944 10.0132 18.9875 10.0419 18.9863 10.0711C18.9907 10.1301 19.0167 10.1855 19.0593 10.2265C19.102 10.2675 19.1583 10.2913 19.2174 10.2933Z" fill="#1F36C7"/>
<path fill-rule="evenodd" clip-rule="evenodd" d="M12.4445 10.5956C12.5956 10.5956 12.8712 10.8444 12.9334 11.12H12.8534C12.649 11.12 12.5512 11.2978 12.4001 11.6178C12.6969 11.3772 13.0593 11.2317 13.4401 11.2C13.5087 11.1914 13.5784 11.1969 13.6449 11.2162C13.7113 11.2356 13.7731 11.2683 13.8264 11.3125C13.8797 11.3566 13.9234 11.4112 13.9548 11.4729C13.9862 11.5346 14.0046 11.602 14.009 11.6711C13.9932 11.8095 13.9477 11.943 13.8756 12.0622C13.8223 11.7867 13.609 11.6711 13.2178 11.6711C12.979 11.6704 12.7417 11.7094 12.5156 11.7867C13.2001 11.8933 13.3067 12.1244 13.3067 12.3467C13.3067 12.7111 12.9156 12.8978 12.6667 13.0133C12.6948 12.9056 12.7126 12.7955 12.7201 12.6844C12.7131 12.5354 12.6687 12.3905 12.5911 12.2631C12.5134 12.1358 12.4049 12.03 12.2756 11.9556C12.2756 12.1956 12.0267 12.3467 12.0267 12.5333C12.0264 12.5565 12.0342 12.579 12.0488 12.5969C12.0635 12.6148 12.084 12.6269 12.1067 12.6311C12.1067 12.7289 12.1067 13.0311 12.1067 13.12C12.1067 13.2089 12.1067 13.3067 12.2223 13.3156C12.3378 13.3244 12.2756 13.6889 12.3112 13.8044C12.3467 13.92 12.3734 13.8933 12.4267 13.8933C12.4651 14.0312 12.5386 14.1568 12.6401 14.2578C12.6681 14.2872 12.6866 14.3244 12.6934 14.3644C12.6934 14.4622 12.5245 14.5778 12.4267 14.5778C12.329 14.5778 12.3378 14.5778 12.2934 14.4444C12.249 14.3111 11.9556 14.1778 11.9378 14.08C11.9508 14.0456 11.9508 14.0077 11.9378 13.9733C11.9378 13.8044 11.6623 13.6178 11.6623 13.3511C11.6834 13.34 11.7011 13.3234 11.7136 13.3031C11.7262 13.2827 11.733 13.2594 11.7334 13.2356C11.7334 13.0844 11.5823 12.8 11.5823 12.5956C11.6534 12.5956 11.6801 12.5956 11.6801 12.4978C11.677 12.2565 11.7623 12.0225 11.9201 11.84H11.7512C11.5196 11.8275 11.2888 11.877 11.0826 11.9832C10.8764 12.0894 10.7022 12.2486 10.5778 12.4444C10.5691 12.3766 10.5691 12.3079 10.5778 12.24C10.5745 12.0921 10.6128 11.9462 10.6882 11.819C10.7636 11.6917 10.8732 11.5881 11.0045 11.52C11.1066 11.4813 11.2154 11.4631 11.3245 11.4667C11.5434 11.4723 11.761 11.5022 11.9734 11.5556C11.8846 11.4241 11.7674 11.3143 11.6305 11.2343C11.4936 11.1543 11.3404 11.1061 11.1823 11.0933C11.1309 11.0856 11.0783 11.0954 11.0331 11.1212C10.988 11.147 10.9528 11.1873 10.9334 11.2356C10.9242 11.1677 10.9242 11.0989 10.9334 11.0311C10.9334 10.7467 11.0401 10.5778 11.289 10.5778C11.5378 10.5778 11.9912 11.0133 12.1778 11.4133V11.3689C12.1778 10.7911 12.1778 10.48 12.4356 10.48L12.4445 10.5956Z" fill="#1F36C7"/>
<path fill-rule="evenodd" clip-rule="evenodd" d="M7.75977 11.5556C7.75977 12.0089 7.91088 12.2222 8.15977 12.2222C8.45994 12.1784 8.73766 12.038 8.95088 11.8222C8.75266 11.8695 8.55012 11.8963 8.34643 11.9022C8.22631 11.9035 8.10813 11.8719 8.00471 11.8108C7.90129 11.7497 7.81658 11.6614 7.75977 11.5556Z" fill="#1F36C7"/>
<path fill-rule="evenodd" clip-rule="evenodd" d="M9.50196 10.9333C9.38389 10.9584 9.27733 11.0216 9.19865 11.1131C9.11996 11.2047 9.0735 11.3195 9.06641 11.44C9.06739 11.4891 9.07852 11.5374 9.09911 11.582C9.11971 11.6266 9.14931 11.6664 9.18605 11.699C9.22279 11.7315 9.26588 11.7562 9.3126 11.7712C9.35932 11.7863 9.40867 11.7916 9.45752 11.7867C9.54517 11.7952 9.63309 11.7732 9.70641 11.7244C9.63242 11.6583 9.5729 11.5776 9.5316 11.4873C9.4903 11.3971 9.4681 11.2992 9.46641 11.2C9.46568 11.1099 9.47765 11.0201 9.50196 10.9333Z" fill="#1F36C7"/>
<path fill-rule="evenodd" clip-rule="evenodd" d="M10.0264 10.4444C9.85664 10.6337 9.75633 10.8751 9.74194 11.1289C9.73462 11.2023 9.74233 11.2763 9.76461 11.3466C9.78689 11.4169 9.82327 11.4819 9.87153 11.5376C9.91978 11.5934 9.9789 11.6387 10.0453 11.6708C10.1116 11.7029 10.1838 11.7212 10.2575 11.7244C10.321 11.7222 10.3833 11.7072 10.4408 11.6803C10.4984 11.6534 10.5498 11.6151 10.5922 11.5678C10.6345 11.5204 10.6669 11.465 10.6872 11.4049C10.7076 11.3447 10.7157 11.2811 10.7108 11.2178C10.6915 11.0336 10.6151 10.8602 10.4924 10.7215C10.3697 10.5829 10.2068 10.486 10.0264 10.4444Z" fill="#1F36C7"/>
<path fill-rule="evenodd" clip-rule="evenodd" d="M8 11.0133V11.1022C8 11.3867 8.15111 11.5378 8.37333 11.5378C8.47194 11.5292 8.5675 11.4993 8.65344 11.4502C8.73938 11.4011 8.81364 11.3339 8.87111 11.2533C8.80026 11.2619 8.72863 11.2619 8.65778 11.2533C8.53691 11.2694 8.41395 11.2559 8.29941 11.2141C8.18487 11.1723 8.08214 11.1034 8 11.0133Z" fill="#1F36C7"/>
<path fill-rule="evenodd" clip-rule="evenodd" d="M9.2175 9.46666C8.9642 9.45515 8.7133 9.5202 8.4975 9.65333C7.95528 9.99111 8.02639 10.5422 7.9375 10.6756C7.9375 10.6756 7.9375 10.6756 7.9375 10.7467C7.94306 10.7767 7.95816 10.8042 7.98058 10.8251C8.003 10.8459 8.03153 10.8589 8.06194 10.8622H8.15972C8.31083 10.8622 8.47972 10.9689 8.72861 10.9689C9.00282 10.9528 9.26398 10.8464 9.4714 10.6663C9.67881 10.4862 9.82082 10.2426 9.87528 9.97333C9.87528 9.85778 9.7775 9.87555 9.70639 9.76889C9.63528 9.66222 9.65306 9.57333 9.60861 9.52C9.56417 9.46666 9.48417 9.52 9.36861 9.52L9.2175 9.46666ZM8.88861 10.6667C8.77472 10.646 8.67064 10.5889 8.59207 10.5039C8.5135 10.4189 8.4647 10.3107 8.45306 10.1956C8.45306 10.0711 8.55972 9.92 8.62194 9.92C8.68417 9.92 8.62194 9.92 8.67528 9.99111C8.6909 10.1092 8.73789 10.221 8.81137 10.3148C8.88484 10.4086 8.98211 10.481 9.09306 10.5244C9.09306 10.5244 8.95083 10.6667 8.88861 10.6667ZM9.63528 10.1067C9.63774 10.1289 9.63577 10.1513 9.62949 10.1728C9.62321 10.1942 9.61274 10.2142 9.59869 10.2315C9.58463 10.2489 9.56727 10.2633 9.54762 10.2739C9.52796 10.2845 9.50639 10.2911 9.48417 10.2933C9.26194 10.2933 9.09306 9.97333 9.07528 9.78666C9.0575 9.6 9.14639 9.67111 9.24417 9.67111C9.27903 9.66122 9.31597 9.66122 9.35083 9.67111C9.35083 9.67111 9.35083 9.82222 9.46639 9.90222C9.58194 9.98222 9.59083 10.0533 9.59083 10.1067H9.63528Z" fill="#1F36C7"/>
<path fill-rule="evenodd" clip-rule="evenodd" d="M10.0625 9.84C10.0625 9.90601 10.0887 9.96932 10.1354 10.016C10.1821 10.0627 10.2454 10.0889 10.3114 10.0889C10.3774 10.0889 10.4407 10.0627 10.4874 10.016C10.5341 9.96932 10.5603 9.90601 10.5603 9.84C10.558 9.77555 10.5307 9.7145 10.4843 9.66973C10.4379 9.62496 10.3759 9.59996 10.3114 9.6C10.2791 9.59881 10.247 9.60413 10.2168 9.61566C10.1867 9.62718 10.1591 9.64467 10.1359 9.66708C10.1127 9.68948 10.0942 9.71635 10.0816 9.74606C10.069 9.77577 10.0625 9.80772 10.0625 9.84Z" fill="#1F36C7"/>
<path fill-rule="evenodd" clip-rule="evenodd" d="M9.9735 9.53778C10.0389 9.53793 10.1019 9.51323 10.1498 9.46867C10.1976 9.4241 10.2268 9.36302 10.2313 9.29778C10.2267 9.23333 10.1973 9.17319 10.1492 9.13006C10.101 9.08693 10.0381 9.0642 9.9735 9.06666C9.94198 9.06548 9.91053 9.07051 9.88095 9.08149C9.85138 9.09246 9.82426 9.10916 9.80114 9.13062C9.77803 9.15209 9.75937 9.1779 9.74624 9.20658C9.7331 9.23526 9.72576 9.26625 9.72461 9.29778C9.73082 9.36083 9.75928 9.4196 9.80489 9.46358C9.85049 9.50756 9.91027 9.53386 9.9735 9.53778Z" fill="#1F36C7"/>
<path fill-rule="evenodd" clip-rule="evenodd" d="M8.27522 9.42222C8.42237 9.4152 8.56437 9.36581 8.68411 9.28C8.51936 9.25221 8.37018 9.16586 8.26402 9.03684C8.15786 8.90781 8.10186 8.7448 8.10633 8.57777V8.48C8.0086 8.51454 7.92381 8.57823 7.86341 8.66247C7.80301 8.74672 7.7699 8.84746 7.76855 8.95111C7.77085 9.01532 7.78578 9.07846 7.81249 9.1369C7.8392 9.19534 7.87717 9.24794 7.92423 9.29169C7.97128 9.33545 8.0265 9.3695 8.08673 9.39189C8.14696 9.41429 8.21101 9.4246 8.27522 9.42222Z" fill="#1F36C7"/>
<path fill-rule="evenodd" clip-rule="evenodd" d="M9.36909 9.14667C9.40688 9.03509 9.42493 8.91778 9.42242 8.8C9.42242 8.50666 9.28909 8.07111 8.84464 8.07111C8.78988 8.06866 8.7352 8.07749 8.68399 8.09705C8.63279 8.11662 8.58615 8.1465 8.54697 8.18484C8.5078 8.22318 8.47692 8.26917 8.45626 8.31994C8.4356 8.37072 8.42559 8.4252 8.42687 8.48C8.44464 8.96 8.95131 9.14667 9.36909 9.14667Z" fill="#1F36C7"/>
<path fill-rule="evenodd" clip-rule="evenodd" d="M23.1908 8.99556C23.0738 9.19735 22.9029 9.3625 22.6972 9.47243C22.4914 9.58235 22.2591 9.63269 22.0264 9.61778C22.1037 9.89694 22.2407 10.156 22.4279 10.377C22.6151 10.598 22.8481 10.7757 23.1108 10.8978C23.2619 10.8978 23.3153 10.1778 23.3153 9.61778C23.3419 9.29778 23.3597 9.04889 23.1908 8.99556Z" fill="#1F36C7"/>
<path fill-rule="evenodd" clip-rule="evenodd" d="M23.209 8.47999C23.2139 8.43326 23.2095 8.38602 23.196 8.34099C23.1825 8.29597 23.1603 8.25406 23.1305 8.21769C23.1008 8.18133 23.0641 8.15122 23.0226 8.12911C22.9812 8.107 22.9357 8.09332 22.889 8.08888C22.9202 8.14602 22.9355 8.21047 22.9334 8.27555C22.9334 8.59555 22.4623 8.9511 21.9467 8.9511C21.7601 8.9511 21.689 9.08444 21.7067 9.14666C21.7245 9.20888 21.8579 9.38666 22.0801 9.38666C22.6667 9.36888 23.209 8.88888 23.209 8.47999Z" fill="#1F36C7"/>
<path fill-rule="evenodd" clip-rule="evenodd" d="M21.946 8.72889C22.1771 8.72889 22.6838 8.52444 22.6838 8.25778C22.6867 8.23491 22.6843 8.21168 22.6768 8.18987C22.6694 8.16806 22.657 8.14825 22.6407 8.13195C22.6244 8.11565 22.6046 8.1033 22.5828 8.09583C22.561 8.08837 22.5378 8.08599 22.5149 8.08889C22.3282 8.08889 22.0793 8.27555 21.8304 8.27555C21.7333 8.2918 21.6342 8.2918 21.5371 8.27555C21.6438 8.34667 21.626 8.51555 21.6793 8.63111C21.7093 8.67173 21.7506 8.70266 21.798 8.72004C21.8454 8.73742 21.8969 8.7405 21.946 8.72889Z" fill="#1F36C7"/>
<path fill-rule="evenodd" clip-rule="evenodd" d="M18.7824 8.88889C18.7926 8.98607 18.7818 9.08432 18.7509 9.17702C18.72 9.26971 18.6695 9.35471 18.603 9.42629C18.5365 9.49787 18.4554 9.55438 18.3652 9.59201C18.275 9.62963 18.1778 9.64751 18.0802 9.64444C18.0039 9.64421 17.9284 9.62911 17.8579 9.6C17.9287 9.53776 17.9758 9.45297 17.9913 9.36C17.9913 9.30666 17.9913 9.29777 17.9113 9.29777H17.7246C17.6382 9.29669 17.553 9.27709 17.4748 9.24029C17.3966 9.20349 17.3272 9.15034 17.2713 9.08444C17.1709 9.25062 17.1185 9.4414 17.1202 9.63555C17.1202 9.95555 17.2357 10.2756 17.369 10.2933C17.5024 10.3111 17.4402 10.0711 17.5557 10.0711C17.6974 10.1388 17.852 10.1752 18.009 10.1778C18.2448 10.1778 18.4709 10.0841 18.6376 9.91742C18.8043 9.75073 18.8979 9.52463 18.8979 9.28889C18.8886 9.1488 18.8492 9.01238 18.7824 8.88889Z" fill="#1F36C7"/>
<path fill-rule="evenodd" clip-rule="evenodd" d="M17.8225 8.52445C17.9114 8.52445 18.0802 8.52445 18.1247 8.64889C18.0902 8.66617 18.0602 8.69122 18.0371 8.72207C18.0139 8.75292 17.9983 8.78873 17.9914 8.82667C17.991 8.845 17.9958 8.86305 18.0053 8.87876C18.0147 8.89448 18.0284 8.90723 18.0447 8.91556C18.1701 8.97389 18.2708 9.07463 18.3291 9.2C18.4434 9.09989 18.5333 8.97494 18.5918 8.83473C18.6504 8.69453 18.6761 8.54278 18.6669 8.39111C18.6669 8.32889 18.6669 8.22222 18.5958 8.22222C18.5247 8.22222 18.498 8.29334 18.4269 8.29334C18.2642 8.1657 18.0647 8.094 17.858 8.08889C17.7792 8.08524 17.7004 8.09778 17.6266 8.12573C17.5528 8.15369 17.4855 8.19648 17.4289 8.25145C17.3722 8.30642 17.3275 8.37241 17.2973 8.44535C17.2672 8.5183 17.2523 8.59664 17.2536 8.67556C17.2436 8.74334 17.2436 8.81222 17.2536 8.88C17.2985 8.7681 17.3778 8.67335 17.48 8.60945C17.5823 8.54554 17.7022 8.51577 17.8225 8.52445Z" fill="#1F36C7"/>
<path fill-rule="evenodd" clip-rule="evenodd" d="M13.5731 8.88889C13.4054 8.91416 13.2467 8.98111 13.1116 9.08361C12.9765 9.1861 12.8693 9.32087 12.7998 9.47556C12.8086 9.41067 12.8086 9.34489 12.7998 9.28C12.7998 8.80889 12.542 8.39112 12.0887 8.39112C11.888 8.38424 11.6909 8.44552 11.5295 8.56496C11.3681 8.6844 11.2519 8.85497 11.1998 9.04889C11.2752 8.98471 11.368 8.94447 11.4665 8.93334C11.582 8.93334 11.6176 9.03112 11.6176 9.20001C11.6163 9.32112 11.5953 9.44123 11.5553 9.55556C11.4842 9.75112 11.3509 9.80445 11.2798 9.80445C10.9953 9.80445 11.1287 9.31556 10.9776 9.31556C10.8265 9.31556 10.8265 9.58223 10.8265 9.68889C10.8238 9.78179 10.8405 9.87423 10.8757 9.96027C10.9108 10.0463 10.9636 10.124 11.0305 10.1885C11.0975 10.2529 11.1772 10.3027 11.2645 10.3345C11.3518 10.3664 11.4448 10.3796 11.5376 10.3733C11.765 10.3737 11.9893 10.3199 12.1918 10.2164C12.3943 10.1128 12.5692 9.96244 12.702 9.77778C12.7642 10.1333 12.9509 10.7556 13.4753 10.7556C13.6098 10.7487 13.7364 10.6905 13.8291 10.5928C13.9217 10.4952 13.9733 10.3657 13.9731 10.2311C13.9552 10.2539 13.9322 10.2722 13.906 10.2845C13.8797 10.2969 13.851 10.3029 13.822 10.3022C13.7242 10.3022 13.6887 10.1511 13.6887 10.0178C13.6887 9.88445 13.7598 9.55556 13.8576 9.55556C13.9553 9.55556 13.9465 9.55556 13.9553 9.76C13.9642 9.96445 13.9553 10.0267 14.0442 10.0267C14.1331 10.0267 14.1598 9.77778 14.1598 9.62667C14.142 9.21778 13.9553 8.88889 13.5731 8.88889ZM11.8398 10.0356C11.7865 10.0356 11.7776 9.98223 11.7776 9.94667C11.7776 9.71556 12.0265 8.66667 12.2131 8.66667C12.2131 8.66667 12.2131 8.66667 12.2131 8.75556C12.2576 8.93334 12.0442 10.0267 11.8398 10.0267V10.0356ZM12.6131 9.58223C12.462 9.74223 12.382 9.83112 12.3109 9.83112C12.2398 9.83112 12.2487 9.76 12.2487 9.69778C12.2487 9.63556 12.3287 9.09334 12.5153 9.09334C12.702 9.09334 12.6309 9.22667 12.6309 9.34223C12.6342 9.4197 12.6282 9.49728 12.6131 9.57334V9.58223ZM12.9687 10C12.9153 10 12.862 9.90223 12.862 9.69778C12.862 9.49334 13.022 9.45778 13.0842 9.45778C13.1465 9.45778 13.1376 9.45778 13.1376 9.58223C13.1376 9.70667 13.0309 9.99112 12.9687 9.99112V10ZM13.2709 10.3556C13.2709 10.3556 13.1998 10.3022 13.1998 10.1689C13.1998 9.84889 13.4042 9.28 13.5198 9.28C13.6353 9.28 13.5731 9.36001 13.5731 9.44889C13.5909 9.77778 13.422 10.3467 13.2709 10.3467V10.3556Z" fill="#1F36C7"/>
<path fill-rule="evenodd" clip-rule="evenodd" d="M20.9865 8.18666C20.8709 8.18666 20.6842 8.32888 20.5509 8.32888C20.4176 8.32888 20.4176 8.07111 20.2131 8.07111C20.1584 8.07238 20.1054 8.09106 20.062 8.12444C19.7995 8.23467 19.5197 8.29786 19.2354 8.31111C19.2354 8.31111 19.2354 8.31111 19.2354 8.37333C19.2568 8.68434 19.3918 8.97663 19.6147 9.1946C19.8376 9.41257 20.1328 9.54103 20.4442 9.55555C20.9865 9.55555 21.422 9.36888 21.422 9.04888C21.422 8.72888 21.1554 8.18666 20.9865 8.18666ZM20.4976 9.07555C20.062 9.07555 19.7954 8.81777 19.7954 8.66666C19.8665 8.66666 20.0531 8.77333 20.302 8.80888C20.4765 8.82386 20.652 8.82386 20.8265 8.80888C20.9065 8.80888 20.942 8.80888 20.942 8.86222C20.942 8.91555 20.7554 9.10222 20.4976 9.10222V9.07555Z" fill="#1F36C7"/>
<path fill-rule="evenodd" clip-rule="evenodd" d="M23.3422 5.33334C23.04 5.33334 23.0044 5.24445 22.8 5.24445C22.7448 5.24296 22.6898 5.2532 22.6388 5.27448C22.5878 5.29576 22.5419 5.32761 22.5041 5.36792C22.4663 5.40823 22.4375 5.4561 22.4196 5.50836C22.4016 5.56062 22.3949 5.61609 22.4 5.67112C22.4 5.75112 22.4 5.88445 22.4 6.05334C22.4 6.22223 22.4 6.45334 22.1778 6.45334C22.122 6.44666 22.0708 6.41911 22.0345 6.37624C21.9983 6.33336 21.9796 6.27833 21.9822 6.22223C21.9822 5.99112 22.0978 5.82223 22.0978 5.67112C22.0978 5.38667 21.76 5.29778 21.3867 5.29778C21.0787 5.27532 20.7707 5.34001 20.4978 5.48445C20.4978 5.58223 21.12 5.48445 21.5733 6.10667C21.2889 6.10667 20.7378 6.24001 20.7378 6.32001C20.7378 6.40001 21.7422 6.52445 21.7422 6.94223C21.7464 6.98294 21.7414 7.02408 21.7277 7.06264C21.714 7.10121 21.6919 7.13624 21.6629 7.16518C21.634 7.19412 21.599 7.21625 21.5604 7.22996C21.5218 7.24368 21.4807 7.24862 21.44 7.24445C21.1022 7.24445 20.9333 6.89778 20.8533 6.89778C20.7733 6.89778 20.8 6.89778 20.8 6.89778C20.8252 7.01506 20.843 7.13382 20.8533 7.25334C20.8533 7.64445 20.4355 7.67112 20.4355 7.76001C20.4355 7.84889 20.4355 7.76001 20.4978 7.81334C20.7923 7.85473 21.0893 7.87553 21.3867 7.87556C22.4622 7.87556 23.3244 7.53778 23.3244 6.59556C23.2915 6.27774 23.2351 5.96281 23.1555 5.65334C23.1521 5.58761 23.1679 5.52231 23.2011 5.46547C23.2343 5.40862 23.2833 5.36269 23.3422 5.33334ZM21.84 7.37778H21.6267C22.3111 7.26223 22.7022 6.86223 22.7022 6.32001C22.777 6.34917 22.841 6.40064 22.8855 6.46743C22.93 6.53422 22.9529 6.61309 22.9511 6.69334C22.9333 7.04889 22.6489 7.41334 21.84 7.41334V7.37778ZM22.8 5.75112C22.7599 5.75112 22.7215 5.7352 22.6931 5.70686C22.6648 5.67852 22.6489 5.64008 22.6489 5.60001C22.6489 5.55993 22.6648 5.52149 22.6931 5.49315C22.7215 5.46482 22.7599 5.44889 22.8 5.44889C22.8401 5.44889 22.8785 5.46482 22.9068 5.49315C22.9352 5.52149 22.9511 5.55993 22.9511 5.60001C22.9511 5.64008 22.9352 5.67852 22.9068 5.70686C22.8785 5.7352 22.8401 5.75112 22.8 5.75112Z" fill="#1F36C7"/>
<path fill-rule="evenodd" clip-rule="evenodd" d="M19.155 5.16445C18.8529 5.20444 18.5553 5.27289 18.2661 5.36889C18.1683 5.36889 18.035 5.12889 17.955 5.12889C17.875 5.12889 17.8839 5.2 17.8839 5.29778V5.33334C17.8839 5.41334 17.8839 5.56445 17.8128 5.56445C17.7417 5.56445 17.0928 5.16445 17.0928 5.29778C17.0928 5.43111 17.4839 5.85778 17.4839 5.95556C17.4839 6.05334 17.1106 6.16 17.1106 6.24C17.1106 6.32 17.5106 6.39111 17.5106 6.56C17.5106 6.72889 17.0928 6.86222 17.0928 6.97778C17.0928 7.09334 17.5106 6.97778 17.5106 7.12889C17.5106 7.28 17.2083 7.67111 17.2083 7.78667C17.2083 7.78667 17.2083 7.90222 17.2083 7.78667C17.2083 7.78667 17.6794 7.39556 17.7683 7.39556C17.8572 7.39556 17.8839 7.63556 17.9017 7.76889C17.9194 7.90222 17.9017 7.84889 17.9017 7.84889C17.9017 7.84889 18.0883 7.58222 18.1772 7.58222C18.4646 7.75553 18.786 7.86469 19.1194 7.90222C19.3059 7.90953 19.4919 7.87864 19.666 7.81144C19.8401 7.74424 19.9986 7.64215 20.1318 7.51145C20.265 7.38075 20.3701 7.2242 20.4406 7.05141C20.511 6.87862 20.5454 6.69324 20.5417 6.50667C20.543 6.32625 20.5077 6.14743 20.4379 5.98104C20.3682 5.81465 20.2653 5.66416 20.1357 5.53867C20.0061 5.41319 19.8523 5.31532 19.6837 5.25099C19.5152 5.18667 19.3353 5.15722 19.155 5.16445ZM18.1239 7.11111C18.1239 7.11111 18.1239 7.11111 18.1239 7.05778V6.82667C18.1239 6.81252 18.1183 6.79896 18.1083 6.78896C18.0983 6.77895 18.0847 6.77334 18.0706 6.77334H17.7772H17.7239C17.7239 6.77334 17.9728 6.55111 17.9728 6.52445C17.9728 6.49778 17.7772 6.29334 17.7772 6.22222C17.7772 6.15111 17.7772 6.22222 17.7772 6.22222H18.0439C18.1239 6.22222 18.1239 5.88445 18.195 5.88445C18.2661 5.88445 18.3106 6.20445 18.3817 6.20445C18.4528 6.20445 18.595 6.12445 18.6661 6.12445C18.6661 6.12445 18.7372 6.12445 18.6661 6.12445C18.6661 6.12445 18.515 6.32889 18.515 6.37334C18.515 6.41778 18.8528 6.48889 18.8528 6.54222C18.8528 6.59556 18.4972 6.59556 18.4972 6.64C18.4972 6.68445 18.6306 6.84445 18.6306 6.91556C18.6306 6.91556 18.6306 6.98667 18.6306 6.91556C18.6306 6.91556 18.3994 6.82667 18.3461 6.82667C18.2928 6.82667 18.1772 7.11111 18.1239 7.11111ZM19.1728 7.62667C18.7461 7.62667 18.4617 7.43111 18.4617 7.30667C18.4616 7.29537 18.4639 7.28419 18.4685 7.27385C18.473 7.26352 18.4797 7.25427 18.4881 7.24671C18.4965 7.23915 18.5064 7.23346 18.5172 7.23C18.528 7.22655 18.5393 7.22541 18.5506 7.22667C18.6839 7.22667 18.9683 7.43111 19.0661 7.43111C19.0731 7.43111 19.08 7.42973 19.0865 7.42705C19.093 7.42437 19.0989 7.42044 19.1038 7.41549C19.1088 7.41054 19.1127 7.40466 19.1154 7.39819C19.1181 7.39172 19.1194 7.38478 19.1194 7.37778C19.1194 7.28 19.0217 7.09334 19.0217 7.00445C19.0217 6.91556 19.0217 7.00445 19.0661 7.00445C19.235 7.00445 19.475 7.06667 19.6083 7.06667C19.7417 7.06667 19.6617 7.06667 19.6617 7.01334C19.6617 6.96 19.2528 6.63111 19.2528 6.54222C19.2528 6.45334 19.7417 6.36445 19.7417 6.25778C19.7417 6.15111 19.0661 6.25778 19.0661 6.10667C19.0661 5.95556 19.2083 5.89334 19.2083 5.82222C19.2083 5.75111 19.2083 5.82222 19.1372 5.82222C19.0661 5.82222 18.7817 5.94667 18.6661 5.94667C18.5506 5.94667 18.5328 5.94667 18.5328 5.84C18.5328 5.73334 18.7639 5.55556 19.1372 5.55556C19.7417 5.55556 20.0972 5.95556 20.0972 6.63111C20.1088 6.75744 20.0931 6.88478 20.0514 7.00457C20.0096 7.12435 19.9427 7.23381 19.8551 7.3256C19.7676 7.41738 19.6614 7.48935 19.5437 7.53668C19.426 7.58401 19.2995 7.6056 19.1728 7.6V7.62667Z" fill="#1F36C7"/>
<path fill-rule="evenodd" clip-rule="evenodd" d="M12.782 6.88C13.022 6.88 13.7242 7.2 14.0442 7.2C14.1597 7.2 14.222 7.11111 14.222 7.11111C14.222 6.73778 13.2264 6.08 13.2086 5.81333C13.2032 5.80387 13.2003 5.79314 13.2003 5.78222C13.2003 5.7713 13.2032 5.76057 13.2086 5.75111C13.3775 5.56444 14.0975 5.44889 14.0975 5.29778C14.0975 5.14667 13.9464 5.20889 13.8842 5.20889C13.3064 5.20889 12.4886 5.41333 12.4886 5.60889C12.4886 5.80444 13.2264 6.32 13.2264 6.56889C13.2264 6.64 13.1731 6.65778 13.1109 6.65778C12.9064 6.65778 12.4531 6.4 12.222 6.4C11.9909 6.4 12.0886 6.47111 12.0886 6.56889C12.0886 6.85333 12.4442 7.41333 12.4442 7.58222C12.4442 7.58222 11.822 6.97778 11.6353 6.97778C11.4486 6.97778 11.5553 7.11111 11.5553 7.2V7.40444C11.5553 7.53778 11.5553 7.61778 11.4842 7.61778C11.4131 7.61778 11.2531 7.18222 11.102 7.18222C10.9509 7.18222 10.9331 8 10.782 8C10.6309 8 10.782 7.11111 10.5775 7.11111C10.3731 7.11111 10.1775 7.68889 10.0442 7.68889C9.91086 7.68889 9.97308 7.63556 9.97308 7.6C9.97308 7.43111 10.0797 7.14667 10.0797 6.97778C10.0797 6.80889 10.0797 6.84444 9.97308 6.84444C9.86641 6.84444 9.36863 7.14667 9.21752 7.14667H9.16419C9.16419 6.99555 9.83974 6.54222 9.83974 6.34667C9.83974 6.15111 8.88863 6.22222 8.88863 6.00889C8.88863 5.79556 9.54641 5.61778 9.54641 5.41333C9.54641 5.20889 8.77308 5.16444 8.47085 5.16444C8.16863 5.16444 7.91085 5.21778 7.91085 5.31556C7.91085 5.41333 8.73752 5.52 8.73752 5.65333C8.73752 5.78667 7.84863 6.14222 7.84863 6.33778C7.84863 6.53333 9.03974 6.33778 9.03974 6.54222C9.03974 6.74667 8.06197 7.63556 8.06197 7.93778C8.06197 8.00889 8.06197 8.03555 8.17752 8.03555C8.49752 8.03555 9.3153 7.43111 9.53752 7.43111C9.61752 7.43111 9.61752 7.53778 9.61752 7.61778C9.61752 7.69778 9.57308 8.02667 9.57308 8.18667C9.57308 8.34667 9.57308 8.42667 9.72419 8.42667C9.8753 8.42667 10.1597 8 10.3109 8C10.462 8 10.3909 9.11111 10.6842 9.11111C10.9775 9.11111 11.0309 7.90222 11.182 7.90222C11.3331 7.90222 11.4753 8.25778 11.6264 8.25778C11.7775 8.25778 11.7242 7.65333 11.9109 7.65333C12.0975 7.65333 12.7286 8.37333 13.022 8.37333C13.102 8.37333 13.1375 8.31111 13.1375 8.22222C13.1375 7.90222 12.6842 7.18222 12.6842 6.94222C12.702 6.89778 12.7109 6.88 12.782 6.88Z" fill="#1F36C7"/>
<path fill-rule="evenodd" clip-rule="evenodd" d="M8.64904 6.71112C8.64904 6.65778 8.54237 6.64 8.46237 6.64C8.32135 6.63456 8.18196 6.67173 8.06237 6.74667C8.01803 6.79583 7.98414 6.85348 7.96275 6.91612C7.94136 6.97877 7.93292 7.04511 7.93793 7.11112C7.93793 7.17334 7.93793 7.24445 8.02681 7.24445C8.29415 7.15166 8.51645 6.96112 8.64904 6.71112Z" fill="#1F36C7"/>
<path fill-rule="evenodd" clip-rule="evenodd" d="M9.77777 5.95556C9.9111 5.95556 10.1244 5.88445 10.2755 5.88445C10.4267 5.88445 10.4444 5.88445 10.4444 5.99111C10.4444 6.09778 10.1155 6.40889 10.1155 6.52445C10.1155 6.64 10.1155 6.57778 10.1778 6.57778C10.24 6.57778 10.5155 6.27556 10.7022 6.27556C10.8889 6.27556 10.8178 6.96 10.9867 6.96C11.1555 6.96 11.0844 6.29334 11.3511 6.29334C11.6178 6.29334 11.7244 6.76445 11.8755 6.76445C11.8937 6.76252 11.9107 6.7544 11.9237 6.74146C11.9366 6.72852 11.9447 6.71153 11.9467 6.69334C11.9467 6.56 11.76 6.31111 11.76 6.14222C11.76 5.97334 11.8222 5.99111 11.9289 5.99111C12.0355 5.99111 12.2667 6.07111 12.3644 6.07111C12.4622 6.07111 12.4355 6.07111 12.4355 6.07111C12.4355 5.91111 11.8933 5.76 11.8933 5.58222C11.8933 5.40445 12.1955 5.39556 12.1955 5.30667C12.0579 5.24976 11.9081 5.22836 11.76 5.24445C11.3511 5.24445 11.4222 5.56445 11.1022 5.56445C10.7822 5.56445 10.8711 5.22667 10.4622 5.22667C10.2133 5.22667 9.9911 5.28 9.9911 5.32445C9.9911 5.36889 10.2755 5.32445 10.2755 5.56445C10.2755 5.80445 9.65332 5.83111 9.65332 5.96445C9.65332 6.09778 9.6711 5.95556 9.77777 5.95556Z" fill="#1F36C7"/>
<path fill-rule="evenodd" clip-rule="evenodd" d="M13.5908 5.86667C13.5908 5.97334 13.973 6.20445 14.1419 6.20445C14.3108 6.20445 14.2753 6.07112 14.2753 5.92C14.2753 5.76889 14.1953 5.73334 14.0442 5.73334C13.893 5.73334 13.5908 5.78667 13.5908 5.86667Z" fill="#1F36C7"/>
</g>
<defs>
<clipPath id="clip0_2707_258763">
<rect width="32" height="32" fill="white"/>
</clipPath>
</defs>
</svg>
