<svg width="32" height="32" viewBox="0 0 32 32" fill="none" xmlns="http://www.w3.org/2000/svg">
<g clip-path="url(#clip0_2707_263633)">
<path d="M16 32C24.8366 32 32 24.8366 32 16C32 7.16344 24.8366 0 16 0C7.16344 0 0 7.16344 0 16C0 24.8366 7.16344 32 16 32Z" fill="white"/>
<path d="M16 29.3333C23.3638 29.3333 29.3333 23.3638 29.3333 16C29.3333 8.63619 23.3638 2.66666 16 2.66666C8.63619 2.66666 2.66666 8.63619 2.66666 16C2.66666 23.3638 8.63619 29.3333 16 29.3333Z" fill="white"/>
<path d="M27.1378 21.4755V10.4978C27.14 10.1396 27.0484 9.78704 26.8722 9.47517C26.696 9.16331 26.4413 8.90296 26.1333 8.71999L17.0667 3.31554C16.7489 3.12339 16.3847 3.02182 16.0133 3.02182C15.642 3.02182 15.2778 3.12339 14.96 3.31554L5.89334 8.73777C5.58765 8.92251 5.33518 9.18348 5.16066 9.49511C4.98615 9.80675 4.89556 10.1584 4.89778 10.5155V21.4755C4.89468 21.8329 4.98489 22.1848 5.15949 22.4966C5.3341 22.8084 5.58705 23.0692 5.89334 23.2533L14.96 28.6755C15.2778 28.8677 15.642 28.9693 16.0133 28.9693C16.3847 28.9693 16.7489 28.8677 17.0667 28.6755L26.1333 23.2533C26.4419 23.071 26.6971 22.8108 26.8734 22.4988C27.0497 22.1868 27.1409 21.8339 27.1378 21.4755V21.4755Z" stroke="#CA9F00" stroke-width="0.17" stroke-miterlimit="10"/>
<path d="M14.5422 3.98223L6.60444 18.2044L3.58221 9.30667L5.93777 5.38667L11.6622 3.63556L14.5422 3.98223Z" fill="#CA9F00"/>
<path d="M5.68889 12.2044L14.5422 27.4578L5.87556 23.1733L4.35556 16.4L4.62223 12.9689L5.68889 12.2044Z" fill="#E5C272"/>
<path d="M19.9378 8.73776L27.4222 21.5733L28.2844 10.9244V8.36443L25.2533 7.22665L19.9378 8.73776Z" fill="#CA9F00"/>
<path d="M10.7733 10.6667C12.0436 9.50871 13.6863 8.84344 15.4044 8.7911C18.2755 8.7111 27.1467 8.7911 27.4133 8.7911C27.68 8.7911 18.4355 2.66666 18.4355 2.66666H15.36L14.0089 4.83555L10.7733 10.6667Z" fill="#E5C272"/>
<path d="M21.3333 21.1378C20.6324 21.8293 19.7982 22.3711 18.8813 22.7302C17.9645 23.0893 16.9842 23.2582 16 23.2266H4.13333L8.8 27.0666L14.1333 29.9644L19.7422 29.6978L21.52 27.0311L21.3333 21.1378Z" fill="#CA9F00"/>
<path d="M24.1778 15.9467L16.72 29.4844L27.1733 22.6933L26.3822 19.7955L24.1778 15.9467Z" fill="#E5C272"/>
<path d="M11.04 13.5467C11.4059 13.2052 11.8822 13.0065 12.3822 12.9867C13.1645 12.9867 13.8133 13.8755 14.2845 14.8978C14.7556 15.92 16.7822 20.7378 16.7822 20.7378L18.9067 15.4755C18.9067 15.4755 18.9956 14.9155 19.44 14.9155V14.6667H17.7778V14.9155C17.8452 14.9165 17.9116 14.9314 17.973 14.9592C18.0343 14.987 18.0892 15.0273 18.1343 15.0773C18.1794 15.1274 18.2136 15.1863 18.2349 15.2502C18.2561 15.3141 18.2639 15.3818 18.2578 15.4489C17.9179 16.6185 17.4869 17.7598 16.9689 18.8622L15.0133 14.2755C15.0133 14.2755 14.0533 12.2044 12.7378 12.2044C12.353 12.2327 11.9856 12.3757 11.6829 12.615C11.3803 12.8543 11.1563 13.1788 11.04 13.5467Z" fill="#CA9F00"/>
<path d="M19.0044 13.9111C19.4806 13.9111 19.8667 13.5251 19.8667 13.0489C19.8667 12.5727 19.4806 12.1867 19.0044 12.1867C18.5282 12.1867 18.1422 12.5727 18.1422 13.0489C18.1422 13.5251 18.5282 13.9111 19.0044 13.9111Z" fill="#CA9F00"/>
<path d="M19.1492 12.7626V12.7942C19.0671 12.8169 18.9942 12.858 18.9304 12.9174C18.8515 12.9909 18.7837 13.0912 18.7269 13.2182C18.7772 13.2014 18.8207 13.193 18.8574 13.193C18.9185 13.193 18.9693 13.216 19.0098 13.2619C19.0509 13.3073 19.0714 13.3719 19.0714 13.4556C19.0714 13.5637 19.0412 13.6626 18.9806 13.7523C18.9061 13.8615 18.8072 13.916 18.684 13.916C18.5997 13.916 18.5316 13.8871 18.4797 13.8293C18.4279 13.7715 18.4019 13.6896 18.4019 13.5837C18.4019 13.4692 18.427 13.3587 18.4773 13.2522C18.5281 13.1457 18.5924 13.056 18.6702 12.9831C18.748 12.9096 18.8315 12.8539 18.9207 12.8161C18.9904 12.7864 19.0666 12.7686 19.1492 12.7626ZM18.7002 13.2798C18.6634 13.3759 18.6332 13.4743 18.6094 13.5748C18.5932 13.6429 18.5851 13.6994 18.5851 13.7442C18.5851 13.7853 18.5937 13.8158 18.611 13.8358C18.6289 13.8558 18.651 13.8658 18.6775 13.8658C18.6986 13.8658 18.7175 13.8582 18.7342 13.8431C18.7618 13.8182 18.7875 13.7685 18.8112 13.6939C18.8485 13.5761 18.8672 13.4781 18.8672 13.3997C18.8672 13.3597 18.8561 13.3262 18.8339 13.2992C18.8166 13.2781 18.7961 13.2676 18.7723 13.2676C18.7534 13.2676 18.7294 13.2717 18.7002 13.2798Z" fill="white"/>
<path d="M19.7669 12.5793L19.7059 12.8618H19.6812C19.6778 12.7795 19.6591 12.7204 19.6254 12.6845C19.592 12.6481 19.5451 12.6299 19.4845 12.6299C19.4221 12.6299 19.3598 12.652 19.2974 12.6962C19.2351 12.7399 19.1818 12.8077 19.1377 12.8994C19.0939 12.9908 19.0721 13.0869 19.0721 13.1878C19.0721 13.2744 19.0916 13.3406 19.1305 13.3865C19.1695 13.432 19.2152 13.4547 19.2676 13.4547C19.2896 13.4547 19.3165 13.4484 19.3481 13.4359L19.4156 13.2034C19.4269 13.1644 19.4325 13.1389 19.4325 13.1267C19.4325 13.1107 19.4256 13.0973 19.4117 13.0865C19.3983 13.0752 19.3749 13.0696 19.3416 13.0696L19.3481 13.0449H19.728L19.7221 13.0696C19.6996 13.0709 19.6819 13.0752 19.6689 13.0826C19.6563 13.0895 19.6464 13.0999 19.639 13.1137C19.6347 13.122 19.628 13.1432 19.6189 13.1774L19.539 13.4482C19.4481 13.4828 19.3524 13.5001 19.252 13.5001C19.1745 13.5001 19.1084 13.4861 19.0539 13.4579C18.9998 13.4298 18.9547 13.3852 18.9188 13.3242C18.8833 13.2631 18.8656 13.1936 18.8656 13.1157C18.8656 12.9494 18.9394 12.8124 19.087 12.7046C19.2026 12.6211 19.3338 12.5793 19.4806 12.5793C19.5061 12.5793 19.5297 12.5806 19.5513 12.5832C19.5674 12.5853 19.5955 12.5914 19.6358 12.6014C19.6617 12.6078 19.6795 12.6111 19.689 12.6111C19.7081 12.6111 19.726 12.6005 19.7429 12.5793H19.7669Z" fill="white"/>
</g>
<defs>
<clipPath id="clip0_2707_263633">
<rect width="32" height="32" fill="white"/>
</clipPath>
</defs>
</svg>
