<svg width="32" height="32" viewBox="0 0 32 32" fill="none" xmlns="http://www.w3.org/2000/svg">
<g clip-path="url(#clip0_2707_263353)">
<path d="M16 31.9822C24.8268 31.9822 31.9822 24.8267 31.9822 16C31.9822 7.17326 24.8268 0.0177765 16 0.0177765C7.17328 0.0177765 0.0177917 7.17326 0.0177917 16C0.0177917 24.8267 7.17328 31.9822 16 31.9822Z" fill="white"/>
<path d="M15.8845 5.64445C15.1378 5.92889 14.56 6.16889 14.1067 6.35556C13.6533 6.54222 13.0667 6.85333 12.3289 7.24445C12.0356 7.38667 11.76 7.53778 11.5022 7.68889C11.0701 7.92915 10.6517 8.19326 10.2489 8.48C8.05334 10.0444 7.31557 11.6711 7.58223 13.1467C7.89334 15.0133 9.85779 16.9244 13.4845 19.2622C16.6489 21.04 18.7733 22.0178 20.6845 21.1644H20.7378C21.5273 20.7928 22.169 20.1667 22.56 19.3867C22.7643 19.0217 22.9397 18.6413 23.0845 18.2489C23.506 17.0273 23.8504 15.7804 24.1156 14.5156C24.7911 10.2578 24.6756 7.52 23.4933 6.04445C23.0878 5.58161 22.5807 5.21883 22.0117 4.98445C21.4427 4.75007 20.8272 4.65043 20.2133 4.69334C18.7317 4.74755 17.273 5.07607 15.9111 5.66222M14.5778 14.0533C14.3681 13.5717 14.3054 13.0389 14.3974 12.5218C14.4894 12.0046 14.7321 11.5262 15.095 11.1465C15.4579 10.7667 15.9249 10.5026 16.4373 10.3873C16.9498 10.272 17.4849 10.3106 17.9755 10.4982C18.4661 10.6859 18.8904 11.0143 19.195 11.4421C19.4997 11.87 19.6712 12.3783 19.6881 12.9033C19.705 13.4283 19.5664 13.9466 19.2898 14.3931C19.0132 14.8397 18.6109 15.1946 18.1333 15.4133C17.7885 15.5749 17.4119 15.6569 17.0311 15.6533C16.5089 15.653 15.9979 15.5018 15.5595 15.218C15.1211 14.9341 14.774 14.5297 14.56 14.0533" fill="url(#paint0_radial_2707_263353)"/>
<path d="M12.6489 23.8133C12.5759 23.8045 12.5018 23.8155 12.4346 23.8452C12.3673 23.875 12.3093 23.9223 12.2667 23.9822L11.0311 26.2489L9.77778 24C9.73514 23.9401 9.67714 23.8927 9.60987 23.863C9.5426 23.8333 9.46857 23.8223 9.39556 23.8311C9.29329 23.8292 9.19227 23.8537 9.10222 23.9022C9.06855 23.9184 9.03997 23.9436 9.0196 23.9749C8.99922 24.0063 8.98783 24.0426 8.98667 24.08C8.97901 24.1061 8.97901 24.1339 8.98667 24.16L10.6667 27.0844C10.7069 27.1531 10.766 27.2088 10.8369 27.245C10.9077 27.2812 10.9874 27.2964 11.0667 27.2889C11.1482 27.2974 11.2305 27.2817 11.3032 27.2437C11.3759 27.2058 11.4359 27.1473 11.4756 27.0755L13.0756 24.1422C13.0832 24.1161 13.0832 24.0883 13.0756 24.0622C13.0756 23.8933 12.9333 23.8133 12.6578 23.8133" fill="#444444"/>
<path d="M14.16 23.8133C13.8933 23.8133 13.76 23.9022 13.76 24.0622V27.04C13.76 27.2 13.8933 27.2889 14.16 27.2889C14.4267 27.2889 14.5689 27.2 14.5689 27.04V24.0622C14.5689 23.9022 14.4356 23.8133 14.16 23.8133Z" fill="#444444"/>
<path d="M18.9067 23.8133C18.8324 23.8048 18.7572 23.8158 18.6885 23.8455C18.6199 23.8751 18.5603 23.9223 18.5156 23.9822L17.2889 26.2489L16.0534 24C16.01 23.9386 15.9505 23.8904 15.8815 23.8606C15.8125 23.8308 15.7367 23.8206 15.6622 23.8311C15.5629 23.8304 15.4651 23.8548 15.3778 23.9022C15.3441 23.9185 15.3155 23.9436 15.2952 23.975C15.2748 24.0063 15.2634 24.0426 15.2622 24.08C15.2546 24.1061 15.2546 24.1339 15.2622 24.16L16.8889 27.0844C16.9314 27.1531 16.9922 27.2085 17.0644 27.2446C17.1366 27.2807 17.2174 27.2961 17.2978 27.2889C17.3792 27.2963 17.4611 27.2801 17.5335 27.2422C17.606 27.2044 17.6661 27.1466 17.7067 27.0756L19.3067 24.1422C19.3108 24.1157 19.3108 24.0887 19.3067 24.0622C19.3067 23.8933 19.1734 23.8133 18.8978 23.8133" fill="#444444"/>
<path d="M20.5867 25.9733C20.7196 25.8815 20.8785 25.8348 21.04 25.84H22.3645V26.7289H21.04C20.8811 26.7354 20.7246 26.6884 20.5956 26.5955C20.5376 26.5642 20.489 26.5181 20.4547 26.4619C20.4203 26.4057 20.4015 26.3414 20.4 26.2755C20.4023 26.2109 20.4205 26.1479 20.4531 26.092C20.4856 26.0362 20.5315 25.9893 20.5867 25.9555M22.7556 24.0533C22.4527 23.8535 22.096 23.7512 21.7333 23.76H20.3467C20.0889 23.76 19.9467 23.8578 19.9467 24.0444C19.9467 24.2311 20.0889 24.3289 20.3467 24.3289H21.7333C21.8948 24.3237 22.0537 24.3704 22.1867 24.4622C22.242 24.4972 22.2874 24.5458 22.3185 24.6034C22.3497 24.661 22.3655 24.7256 22.3645 24.7911V25.2444H21.04C20.8053 25.2262 20.5696 25.2633 20.3519 25.3528C20.1342 25.4424 19.9406 25.5819 19.7867 25.76C19.6657 25.9045 19.5996 26.0871 19.6 26.2755C19.6041 26.4221 19.6445 26.5653 19.7174 26.6925C19.7902 26.8196 19.8935 26.9268 20.0178 27.0044C20.3167 27.2135 20.6755 27.3195 21.04 27.3067H22.7645C23.0311 27.3067 23.1733 27.2089 23.1733 27.0222V24.8089C23.1707 24.6608 23.131 24.5158 23.0581 24.387C22.9851 24.2581 22.8811 24.1495 22.7556 24.0711" fill="#444444"/>
</g>
<defs>
<radialGradient id="paint0_radial_2707_263353" cx="0" cy="0" r="1" gradientUnits="userSpaceOnUse" gradientTransform="translate(19.0697 6.96329) rotate(120.208) scale(13.7622)">
<stop stop-color="#E0272A"/>
<stop offset="0.17" stop-color="#E0272A"/>
<stop offset="1" stop-color="#941F20"/>
</radialGradient>
<clipPath id="clip0_2707_263353">
<rect width="32" height="32" fill="white"/>
</clipPath>
</defs>
</svg>
