<svg width="32" height="32" viewBox="0 0 32 32" fill="none" xmlns="http://www.w3.org/2000/svg">
<g clip-path="url(#clip0_2707_262688)">
<path d="M16 31.9823C24.8267 31.9823 31.9822 24.8268 31.9822 16C31.9822 7.17331 24.8267 0.0178223 16 0.0178223C7.17326 0.0178223 0.0177765 7.17331 0.0177765 16C0.0177765 24.8268 7.17326 31.9823 16 31.9823Z" fill="white"/>
<path d="M3.70666 17.28C3.84889 16.8978 3.99111 16.5245 4.10666 16.1422C4.22222 15.76 4.19555 15.8133 4.05333 15.5022H4.94222C4.89383 15.5972 4.8686 15.7023 4.8686 15.8089C4.8686 15.9155 4.89383 16.0206 4.94222 16.1156C5.04889 16.4533 5.13778 16.7911 5.23555 17.1289L5.34222 17.3956C5.44 16.72 5.78666 16.16 5.63555 15.5022H6.22222C5.82922 16.2972 5.53089 17.1355 5.33333 18H4.97778C4.79111 17.4133 4.61333 16.8267 4.40889 16.1778L3.79555 18.0089H3.36L3.30666 17.7778C3.18222 17.1911 3.06666 16.6045 2.93333 16C2.92542 15.9069 2.8975 15.8166 2.85147 15.7353C2.80545 15.654 2.74241 15.5836 2.66666 15.5289V15.4667H3.00444C3.25333 15.4667 3.31555 15.52 3.37778 15.76C3.46666 16.1511 3.52889 16.5422 3.60889 16.9422C3.63023 17.051 3.65994 17.158 3.69778 17.2622L3.70666 17.28Z" fill="#2F2E2E"/>
<path d="M27.2622 12.8623L26.3733 12.96C25.7551 13.0136 25.1324 12.9776 24.5244 12.8534C23.6356 12.7023 22.7467 12.5067 21.8578 12.3823C21.0676 12.2711 20.2657 12.2711 19.4756 12.3823H19.0844C19.0844 12.24 19.2178 12.1956 19.3067 12.1334C19.779 11.7966 20.3365 11.5995 20.9156 11.5645C21.6624 11.5208 22.4115 11.5897 23.1378 11.7689C23.92 11.9467 24.7111 12.1245 25.5022 12.2756C26.1593 12.4237 26.8393 12.4388 27.5022 12.32C27.8692 12.2555 28.2162 12.1064 28.5156 11.8845L28.6489 11.8223C28.5216 12.1359 28.3274 12.418 28.08 12.6489C27.768 12.9969 27.3855 13.2744 26.9579 13.4629C26.5302 13.6515 26.0673 13.7467 25.6 13.7423C24.9375 13.7393 24.2768 13.6738 23.6267 13.5467C22.715 13.3617 21.7911 13.2428 20.8622 13.1912C20.0519 13.158 19.2436 13.2942 18.4889 13.5912L17.6 13.9378C17.568 13.9529 17.5331 13.9607 17.4978 13.9607C17.4624 13.9607 17.4275 13.9529 17.3956 13.9378C17.5911 13.8045 17.7778 13.6623 17.9822 13.5467C18.391 13.2903 18.8339 13.0929 19.2978 12.96C19.9787 12.78 20.6831 12.7051 21.3867 12.7378C22.2639 12.8106 23.1363 12.9323 24 13.1023C24.4978 13.1734 25.0044 13.2178 25.5111 13.2445C26.0074 13.262 26.5024 13.1835 26.9689 13.0134C27.0779 12.962 27.1795 12.8962 27.2711 12.8178H27.3778L27.2622 12.8623Z" fill="#DE2831"/>
<path d="M19.5556 15.4489C19.74 15.4342 19.9253 15.4632 20.0963 15.5337C20.2674 15.6041 20.4194 15.7141 20.5398 15.8545C20.6603 15.9949 20.7459 16.1618 20.7895 16.3416C20.8332 16.5214 20.8337 16.7089 20.7911 16.8889C20.7684 17.1699 20.6517 17.435 20.4598 17.6415C20.2678 17.8479 20.0119 17.9837 19.7333 18.0267C19.4548 18.0801 19.1673 18.0618 18.8978 17.9734C18.7481 17.9285 18.6112 17.8487 18.4983 17.7405C18.3855 17.6323 18.3 17.4989 18.2489 17.3512C18.1157 16.9867 18.1157 16.5868 18.2489 16.2223C18.3015 16.0582 18.394 15.9098 18.5181 15.7903C18.6422 15.6709 18.794 15.5841 18.96 15.5378C19.1378 15.5112 19.3333 15.4934 19.5556 15.4489ZM20.3289 16.7645C20.2858 16.5518 20.2233 16.3436 20.1422 16.1423C20.0854 16.0126 19.9878 15.9051 19.8642 15.8361C19.7407 15.7671 19.5979 15.7404 19.4578 15.7601C19.3101 15.7597 19.1662 15.8071 19.0476 15.8952C18.9291 15.9833 18.8422 16.1074 18.8 16.2489C18.6667 16.5889 18.6667 16.9667 18.8 17.3067C18.8656 17.4662 18.9825 17.5991 19.1323 17.6845C19.2821 17.7698 19.4561 17.8027 19.6267 17.7778C19.7828 17.7591 19.9281 17.6884 20.0393 17.5772C20.1506 17.466 20.2212 17.3207 20.24 17.1645L20.3289 16.7645Z" fill="#2F2E2E"/>
<path d="M15.5822 15.5378H16.1867L16.1156 16.5512H17.2C17.2459 16.2139 17.2155 15.8707 17.1111 15.5467H17.7778C17.6934 15.9468 17.6664 16.3568 17.6978 16.7645C17.6612 17.1814 17.6912 17.6015 17.7867 18.009H17.1556C17.1556 17.6178 17.2 17.2445 17.2178 16.8445H16.1511C16.1069 17.2313 16.134 17.623 16.2311 18.0001H15.5822C15.6889 17.1828 15.6889 16.3551 15.5822 15.5378Z" fill="#2F2E2E"/>
<path d="M8.8 17.9911H8.10666C8.21025 17.6062 8.24338 17.2057 8.20444 16.8089H7.11111C7.07325 17.2027 7.10636 17.6001 7.20889 17.9823H6.56889C6.66666 17.1555 6.66666 16.3201 6.56889 15.4934H7.18222C7.18222 15.8223 7.12 16.1511 7.08444 16.5067C7.46666 16.5511 7.81333 16.5067 8.19555 16.5067C8.2351 16.1599 8.20179 15.8087 8.09777 15.4756H8.78222C8.67882 15.8818 8.64575 16.3027 8.68444 16.72C8.63064 17.1471 8.67006 17.5808 8.8 17.9911Z" fill="#2F2E2E"/>
<path d="M22.2222 16.809L23.2533 18.0267C23.0936 18.04 22.9331 18.04 22.7733 18.0267C22.6653 18.0027 22.5683 17.9432 22.4978 17.8578C22.2844 17.609 22.0889 17.3423 21.8844 17.0845C21.8171 17.0075 21.7356 16.9442 21.6444 16.8978C21.58 17.2727 21.6106 17.6578 21.7333 18.0178H21.0667C21.2223 17.1925 21.2223 16.3454 21.0667 15.5201C21.4844 15.5201 21.8933 15.5201 22.3022 15.5201C22.408 15.5158 22.5125 15.5443 22.6016 15.6015C22.6907 15.6588 22.7599 15.7421 22.8 15.8401C22.8441 15.9457 22.8559 16.0622 22.8337 16.1745C22.8116 16.2869 22.7565 16.3902 22.6756 16.4712C22.5308 16.5921 22.3795 16.7049 22.2222 16.809ZM21.6444 15.7778C21.6133 16.0585 21.6133 16.3417 21.6444 16.6223C22.0444 16.6845 22.3111 16.4445 22.2844 16.1156C22.2578 15.7867 22.1333 15.7334 21.68 15.7778H21.6444Z" fill="#2F2E2E"/>
<path d="M23.4578 17.9467V17.3156C23.5289 17.4134 23.5733 17.4578 23.6178 17.5112C23.7042 17.6144 23.8161 17.6934 23.9423 17.7401C24.0686 17.7869 24.2049 17.7999 24.3378 17.7778C24.4163 17.7711 24.491 17.7414 24.5527 17.6924C24.6144 17.6434 24.6602 17.5772 24.6844 17.5023C24.7091 17.428 24.7085 17.3476 24.6827 17.2737C24.657 17.1997 24.6076 17.1364 24.5422 17.0934C24.4444 17.0223 24.3289 16.9689 24.2311 16.8978C24.0361 16.7849 23.8543 16.6508 23.6889 16.4978C23.6299 16.442 23.5849 16.373 23.5576 16.2964C23.5303 16.2199 23.5215 16.1379 23.5319 16.0573C23.5423 15.9767 23.5716 15.8998 23.6174 15.8326C23.6632 15.7655 23.7243 15.7102 23.7956 15.6711C23.9526 15.5739 24.1282 15.5103 24.3111 15.4845C24.5746 15.4712 24.8387 15.4712 25.1022 15.4845V16.1156C25.0306 15.9803 24.9147 15.8738 24.7739 15.814C24.6331 15.7541 24.476 15.7444 24.3289 15.7867C24.2654 15.7901 24.2046 15.8134 24.1552 15.8532C24.1057 15.8931 24.0701 15.9476 24.0533 16.0089C24.0395 16.0705 24.0458 16.1348 24.0715 16.1925C24.0971 16.2501 24.1406 16.298 24.1956 16.3289C24.3384 16.4291 24.4868 16.5211 24.64 16.6045L24.9511 16.8089C25.0352 16.8663 25.1042 16.9431 25.1522 17.0329C25.2002 17.1227 25.2257 17.2227 25.2267 17.3245C25.2261 17.4166 25.205 17.5075 25.1651 17.5905C25.1251 17.6735 25.0672 17.7466 24.9956 17.8045C24.89 17.906 24.7641 17.9838 24.6262 18.0329C24.4883 18.0819 24.3415 18.101 24.1956 18.0889C24 18.0534 23.7156 17.9912 23.4578 17.9467Z" fill="#2F2E2E"/>
<path d="M14.4711 15.4934V15.9112C14.1734 15.7461 13.8257 15.6955 13.4933 15.769V16.5245C13.8272 16.56 14.1639 16.56 14.4978 16.5245C14.3733 16.7734 14.3733 16.7734 13.4933 16.889V17.7779C13.8992 17.8488 14.3171 17.7765 14.6756 17.5734C14.6756 17.7512 14.6133 17.8756 14.5867 18.0356C14.0178 18.1067 13.4667 18.0356 12.8889 18.0356C13.0048 17.6225 13.038 17.1905 12.9867 16.7645C13.0417 16.3492 13.0022 15.9269 12.8711 15.529L14.4711 15.4934Z" fill="#2F2E2E"/>
<path d="M25.5378 15.5289H27.0311C27.0311 15.6445 27.0311 15.7778 27.0844 15.9378C26.7801 15.7832 26.4323 15.7362 26.0978 15.8045V16.5867L27.1467 16.5334C27.0934 16.6167 27.0215 16.6866 26.9367 16.7375C26.8519 16.7884 26.7564 16.8189 26.6578 16.8267C26.4722 16.8541 26.2852 16.8719 26.0978 16.88V17.7689C26.4968 17.8259 26.9037 17.7575 27.2622 17.5734C27.2622 17.7423 27.2089 17.8756 27.1822 18.0178H25.5378C25.6279 17.1906 25.6279 16.3561 25.5378 15.5289Z" fill="#2F2E2E"/>
<path d="M12.64 15.4934C12.4178 15.929 12.0178 15.7245 11.7511 15.8134C11.6488 16.5347 11.6698 17.2681 11.8133 17.9823H11.1111C11.2076 17.2665 11.2285 16.5425 11.1733 15.8223C10.8714 15.7648 10.559 15.8085 10.2844 15.9467L10.4356 15.4934H12.64Z" fill="#2F2E2E"/>
<path d="M9.98222 15.5023C9.8844 16.3261 9.8844 17.1585 9.98222 17.9823H9.36C9.45337 17.1583 9.45337 16.3263 9.36 15.5023H9.98222Z" fill="#2F2E2E"/>
<path d="M22.7378 20.1867C22.6308 20.1954 22.5231 20.1816 22.4218 20.146C22.3205 20.1104 22.2279 20.0538 22.1499 19.98C22.0719 19.9063 22.0103 19.8169 21.9692 19.7177C21.928 19.6185 21.9082 19.5118 21.9111 19.4044C21.9111 19.1962 21.9932 18.9963 22.1397 18.8482C22.2861 18.7001 22.4851 18.6157 22.6933 18.6133C22.8051 18.6036 22.9176 18.6169 23.024 18.6525C23.1304 18.688 23.2283 18.7451 23.3116 18.8202C23.395 18.8952 23.462 18.9866 23.5086 19.0886C23.5551 19.1907 23.5802 19.3012 23.5822 19.4133C23.5813 19.5208 23.5583 19.6269 23.5147 19.725C23.471 19.8231 23.4075 19.9112 23.3283 19.9838C23.2491 20.0564 23.1558 20.1118 23.0542 20.1467C22.9526 20.1816 22.8449 20.1952 22.7378 20.1867ZM22.7378 19.9644H22.7822C22.9331 19.9644 23.0778 19.9045 23.1845 19.7978C23.2912 19.6911 23.3511 19.5464 23.3511 19.3956C23.3511 19.2447 23.2912 19.1 23.1845 18.9933C23.0778 18.8866 22.9331 18.8267 22.7822 18.8267H22.72C22.5715 18.8267 22.429 18.8857 22.324 18.9907C22.219 19.0957 22.16 19.2381 22.16 19.3867C22.16 19.5305 22.2171 19.6684 22.3188 19.7701C22.4205 19.8718 22.5584 19.9289 22.7022 19.9289L22.7378 19.9644Z" fill="#2F2E2E"/>
<path d="M19.2978 19.9378V19.6356L19.04 19.5556V19.3867H19.5556C19.5556 19.4845 19.5556 19.5911 19.5556 19.6889V19.9911C19.3725 20.1133 19.1535 20.1701 18.9341 20.1523C18.7147 20.1346 18.5078 20.0433 18.3467 19.8934C18.2293 19.76 18.1602 19.5911 18.1505 19.4137C18.1409 19.2364 18.1912 19.0609 18.2933 18.9156C18.4289 18.7289 18.6318 18.6023 18.8591 18.5625C19.0863 18.5227 19.3201 18.5728 19.5111 18.7023V18.8889C19.3359 18.8435 19.1577 18.8108 18.9778 18.7911C18.8308 18.7911 18.6897 18.8489 18.5849 18.952C18.4801 19.0551 18.4201 19.1953 18.4178 19.3423C18.4129 19.4846 18.4643 19.6231 18.5608 19.7279C18.6572 19.8327 18.7911 19.8953 18.9333 19.9023C19.0539 19.9221 19.1756 19.934 19.2978 19.9378Z" fill="#2F2E2E"/>
<path d="M24.2489 18.6667H24.4178C24.4178 18.6667 24.4622 18.7289 24.4622 18.7555C24.4622 19.0311 24.4622 19.3067 24.4622 19.5911C24.4547 19.6537 24.4625 19.7173 24.4849 19.7763C24.5073 19.8353 24.5436 19.888 24.5907 19.9299C24.6379 19.9718 24.6945 20.0017 24.7557 20.017C24.8169 20.0323 24.8809 20.0326 24.9422 20.0178C25.0017 20.0245 25.0619 20.0164 25.1175 19.9943C25.1731 19.9722 25.2224 19.9367 25.2611 19.891C25.2998 19.8453 25.3266 19.7908 25.3392 19.7323C25.3518 19.6738 25.3498 19.6131 25.3333 19.5555C25.3333 19.3067 25.3333 19.0578 25.3333 18.8089C25.3333 18.7555 25.3333 18.7111 25.3333 18.6311H25.5556C25.5556 18.9955 25.5556 19.3333 25.5556 19.6711C25.5556 20.0089 25.28 20.1867 24.9067 20.1867C24.5333 20.1867 24.2756 20.0178 24.2489 19.6711C24.2222 19.3244 24.2489 19.0044 24.2489 18.6667Z" fill="#2F2E2E"/>
<path d="M21.0133 19.4489L21.4844 20.1333C21.3422 20.2044 21.2444 20.1867 21.1644 20.0622C21.0844 19.9378 21.04 19.8489 20.96 19.7511C20.88 19.6533 20.7822 19.4933 20.5422 19.5289V19.8755C20.5422 20.0089 20.4533 20.0711 20.3289 20.1333V18.6667C20.4889 18.6667 20.64 18.6667 20.7911 18.6667C20.8746 18.6656 20.9565 18.6896 21.0262 18.7356C21.0959 18.7815 21.1503 18.8473 21.1822 18.9244C21.222 19.0046 21.2332 19.0959 21.2138 19.1833C21.1943 19.2706 21.1456 19.3487 21.0756 19.4044L21.0133 19.4489ZM20.56 18.8533V19.28C20.7022 19.28 20.8356 19.28 20.9244 19.1911C20.9424 19.1568 20.9517 19.1187 20.9517 19.08C20.9517 19.0413 20.9424 19.0032 20.9244 18.9689C20.8711 18.8178 20.7289 18.8178 20.56 18.8533Z" fill="#2F2E2E"/>
<path d="M26.32 18.6667C26.4947 18.6578 26.6697 18.6578 26.8444 18.6667C26.9623 18.6667 27.0754 18.7135 27.1587 18.7969C27.2421 18.8802 27.2889 18.9933 27.2889 19.1112C27.2889 19.229 27.2421 19.3421 27.1587 19.4254C27.0754 19.5088 26.9623 19.5556 26.8444 19.5556H26.5333C26.5468 19.6678 26.5468 19.7812 26.5333 19.8934C26.4954 19.9915 26.4445 20.0842 26.3822 20.1689H26.32V18.6667ZM26.5422 19.3156C26.7111 19.3156 26.8711 19.3867 26.9778 19.2356C26.9973 19.197 27.0075 19.1544 27.0075 19.1112C27.0075 19.0679 26.9973 19.0253 26.9778 18.9867C26.8622 18.8178 26.6933 18.8712 26.5244 18.8889L26.5422 19.3156Z" fill="#2F2E2E"/>
<path d="M27.2622 12.8623L27.36 12.809H27.2533L27.2622 12.8623Z" fill="#FDFDFD"/>
</g>
<defs>
<clipPath id="clip0_2707_262688">
<rect width="32" height="32" fill="white"/>
</clipPath>
</defs>
</svg>
