<svg width="32" height="32" viewBox="0 0 32 32" fill="none" xmlns="http://www.w3.org/2000/svg">
<g clip-path="url(#clip0_2707_262448)">
<path d="M16 31.9823C24.8267 31.9823 31.9822 24.8268 31.9822 16C31.9822 7.17331 24.8267 0.0178223 16 0.0178223C7.17326 0.0178223 0.0177765 7.17331 0.0177765 16C0.0177765 24.8268 7.17326 31.9823 16 31.9823Z" fill="white"/>
<path d="M27.5556 16.1512H26.8356C26.8356 15.6179 26.8356 15.1023 26.8356 14.5956C26.3626 14.5493 25.8863 14.5493 25.4133 14.5956V16.1423C25.1676 16.1555 24.9213 16.1555 24.6756 16.1423V12.5423H25.4044V13.9734H26.8356V13.2445C26.8356 13.0045 26.8356 12.7734 26.8356 12.5245H27.5556V16.1512Z" fill="#AC2335"/>
<path d="M27.5378 22.3112H27.2267V22.64H27.5378V22.3112Z" fill="#9C9C9F"/>
<path d="M9.57333 15.849C9.87982 15.6321 10.2148 15.4586 10.5689 15.3334C11.206 15.1354 11.8849 15.1139 12.5333 15.2712C12.7076 15.3169 12.875 15.3857 13.0311 15.4757C13.1123 15.511 13.1843 15.5645 13.2415 15.6321C13.2988 15.6996 13.3397 15.7795 13.3612 15.8654C13.3827 15.9513 13.3841 16.041 13.3654 16.1275C13.3467 16.2141 13.3084 16.2952 13.2533 16.3645L12.8267 16.0534L12.7022 15.6534L12.5867 15.9734L11.9911 15.8668L11.8133 15.529L11.76 15.8579H11.6C11.2533 15.8579 10.9067 15.8579 10.56 15.8579C10.5103 15.8669 10.4592 15.8653 10.4101 15.853C10.3611 15.8407 10.3152 15.8182 10.2756 15.7868C10.226 15.7409 10.1632 15.7119 10.0961 15.7039C10.029 15.696 9.96118 15.7094 9.90222 15.7423H9.82222C9.67001 15.7822 9.53783 15.8768 9.45092 16.008C9.36402 16.1391 9.32848 16.2977 9.35111 16.4534C9.35111 17.1112 9.35111 17.769 9.35111 18.4268V18.6668C8.98534 18.7159 8.61465 18.7159 8.24888 18.6668C7.38448 18.4931 6.58117 18.0945 5.92 17.5112C5.14443 16.8491 4.63844 15.9257 4.49777 14.9157C4.39678 14.2109 4.48234 13.4921 4.74593 12.8307C5.00953 12.1694 5.44193 11.5888 6 11.1468C6.71263 10.5281 7.58965 10.1297 8.52444 10.0001C8.79576 9.94054 9.07497 9.92553 9.35111 9.95566V12.7023C9.30393 12.6473 9.26224 12.5877 9.22666 12.5245C9.09815 12.2645 8.91645 12.0343 8.69333 11.849C8.55115 11.7177 8.3674 11.6404 8.1741 11.6307C7.98081 11.6209 7.79022 11.6793 7.63555 11.7957L7.91111 12.0357L8.18666 12.2845L8.62222 12.2312L8.34666 12.4445L8.65777 12.9157H9.07555L8.91555 13.049L8.78222 13.1379L9.19111 14.3379C9.52889 14.5601 9.58222 14.8357 9.37777 15.3245C9.37777 15.2623 9.32444 15.2268 9.30666 15.1823C9.07065 14.3896 8.61812 13.6785 8 13.129C7.77367 12.9231 7.51157 12.7605 7.22666 12.649C7.0407 12.563 6.83482 12.5292 6.63111 12.5512C6.49681 12.5699 6.36967 12.6231 6.26214 12.7057C6.15462 12.7883 6.07041 12.8974 6.01777 13.0223C6.04724 13.0503 6.08437 13.0689 6.12444 13.0757C6.69748 13.1318 7.23696 13.3719 7.66222 13.7601C8.00888 14.0357 8.32 14.3557 8.67555 14.649C8.88 14.649 8.99555 14.7734 9.08444 14.9512C9.21448 15.214 9.28432 15.5025 9.28889 15.7957L9.17333 15.6445C8.88294 15.1788 8.49341 14.7827 8.03249 14.4847C7.57157 14.1866 7.05059 13.9938 6.50666 13.9201C6.28922 13.8802 6.06633 13.8802 5.84888 13.9201C5.75791 13.9303 5.67012 13.9596 5.59128 14.0061C5.51244 14.0527 5.44434 14.1153 5.39145 14.1901C5.33856 14.2648 5.30208 14.3498 5.2844 14.4397C5.26672 14.5295 5.26825 14.622 5.28888 14.7112L5.95555 14.5423L6.22222 14.2668V14.6223L6.91555 14.7468L7.17333 14.4801V14.809L7.96444 15.1201C8.03407 15.1633 8.11208 15.1912 8.1933 15.2019C8.27453 15.2126 8.3571 15.2059 8.43555 15.1823C8.49777 15.1823 8.60444 15.1823 8.67555 15.2534C8.91774 15.4161 9.11617 15.6359 9.25333 15.8934C9.25333 15.8934 9.25333 15.8934 9.25333 15.9557C8.9293 15.7048 8.56583 15.5095 8.17777 15.3779C7.53647 15.1327 6.83555 15.0892 6.16888 15.2534C5.95606 15.3028 5.75612 15.3967 5.58222 15.529C5.50981 15.5745 5.44821 15.6352 5.40175 15.707C5.35528 15.7787 5.32506 15.8598 5.3132 15.9445C5.30135 16.0292 5.30815 16.1154 5.33312 16.1972C5.35809 16.2789 5.40064 16.3543 5.45777 16.4179C5.52574 16.354 5.60022 16.2974 5.68 16.249C5.74698 16.1983 5.81837 16.1536 5.89333 16.1157L6.02666 15.6712L6.12444 16.0268L6.72 15.929L6.94222 15.5201V15.9023L8.21333 15.9557C8.27309 15.9517 8.33102 15.9334 8.38222 15.9023C8.44192 15.8739 8.50721 15.8591 8.57333 15.8591C8.63945 15.8591 8.70474 15.8739 8.76444 15.9023C8.86943 15.9437 8.97056 15.9943 9.06666 16.0534L9.28 16.1779C9.28 16.1779 9.28 16.1334 9.28 16.1157C9.38181 15.7445 9.55698 15.3976 9.79515 15.0953C10.0333 14.793 10.3297 14.5415 10.6667 14.3557C11.1139 14.0788 11.6187 13.9085 12.1422 13.8579C12.4063 13.8287 12.6736 13.8591 12.9244 13.9468C13.078 14.0001 13.209 14.1037 13.2961 14.2409C13.3833 14.3781 13.4214 14.5407 13.4044 14.7023C13.4044 14.7023 13.4044 14.7023 13.4044 14.7468L12.7556 14.5868L12.5156 14.2223V14.5601L11.7778 14.6845L11.6 14.4623V14.5868C11.5961 14.6311 11.5961 14.6757 11.6 14.7201L10.4978 15.1557H10.4267C10.3431 15.1025 10.2425 15.0831 10.1452 15.1013C10.0479 15.1194 9.96103 15.1738 9.90222 15.2534C9.74804 15.3994 9.62943 15.5788 9.55555 15.7779L9.51111 15.8668L9.56444 15.8045" fill="#AC2335"/>
<path d="M16.0978 13.1112V15.5646C16.3441 15.6253 16.6027 15.6149 16.8434 15.5347C17.0841 15.4544 17.2971 15.3076 17.4578 15.1112C17.5969 14.9102 17.6751 14.6733 17.683 14.4289C17.6909 14.1845 17.6281 13.943 17.5022 13.7334C17.3575 13.5028 17.1443 13.3232 16.8926 13.2196C16.6408 13.116 16.3629 13.0936 16.0978 13.1557M15.36 12.569C15.888 12.5465 16.4169 12.5643 16.9422 12.6223C17.1658 12.6604 17.3837 12.7261 17.5911 12.8179C17.7916 12.9092 17.9672 13.0473 18.1033 13.2205C18.2395 13.3937 18.332 13.5971 18.3733 13.8134C18.4931 14.2287 18.4931 14.6693 18.3733 15.0846C18.2951 15.3408 18.1473 15.5703 17.9465 15.7477C17.7456 15.925 17.4995 16.0431 17.2356 16.089C16.9938 16.1477 16.7465 16.1805 16.4978 16.1868C16.1333 16.1868 15.7689 16.1868 15.4133 16.1868C15.3689 16.0179 15.3511 13.0934 15.4133 12.569" fill="#AC2335"/>
<path d="M21.8044 16.1423H20.8533L19.5556 14.5068H19.5111V16.1157H18.8089V12.5601H19.5556V14.0446C19.73 13.9022 19.8854 13.7379 20.0178 13.5557C20.1689 13.3868 20.3111 13.209 20.4622 13.0312C20.6133 12.8534 20.7467 12.7023 20.88 12.5334H21.7689L20.2578 14.2223C20.7733 14.8534 21.2889 15.4757 21.8044 16.1246" fill="#AC2335"/>
<path d="M21.9378 16.0535C22.0178 15.8401 21.9378 15.6268 22.0356 15.449C22.2489 15.5023 22.4444 15.5735 22.6489 15.6179C22.8584 15.6601 23.0762 15.6254 23.2622 15.5201C23.3246 15.4933 23.3784 15.45 23.418 15.3949C23.4576 15.3398 23.4814 15.2749 23.4869 15.2073C23.4924 15.1396 23.4794 15.0718 23.4492 15.011C23.419 14.9502 23.3728 14.8988 23.3156 14.8623C23.2231 14.7923 23.1214 14.7355 23.0133 14.6935L22.4711 14.4623C22.2736 14.3796 22.1094 14.2331 22.0047 14.0463C21.9 13.8594 21.8608 13.6429 21.8933 13.4312C21.9151 13.2174 22.0044 13.016 22.1482 12.8562C22.292 12.6964 22.4829 12.5865 22.6933 12.5423C23.1383 12.4432 23.6017 12.4647 24.0356 12.6046L23.9733 13.1912C23.7956 13.1468 23.6356 13.1023 23.4756 13.0757C23.3186 13.0317 23.1525 13.0317 22.9956 13.0757C22.9068 13.097 22.8275 13.1467 22.7697 13.2174C22.7119 13.288 22.6789 13.3756 22.6756 13.4668C22.6637 13.552 22.6809 13.6387 22.7245 13.7129C22.768 13.7871 22.8354 13.8445 22.9156 13.8757C23.04 13.9379 23.1644 13.9735 23.2889 14.0268C23.4133 14.0801 23.6533 14.1957 23.8311 14.2935C23.9698 14.3924 24.0813 14.5246 24.1553 14.6781C24.2294 14.8315 24.2635 15.0011 24.2547 15.1712C24.2458 15.3413 24.1942 15.5064 24.1046 15.6513C24.0151 15.7962 23.8904 15.9162 23.7422 16.0001C23.6057 16.0727 23.4588 16.1237 23.3067 16.1512C22.8489 16.2358 22.3769 16.199 21.9378 16.0446" fill="#AC2335"/>
<path d="M12.6933 13.0489L11.9022 13.2267L11.5556 13.0045L11.68 13.3245L11.1378 13.6534L10.7467 13.4845L10.96 13.8134C10.9195 13.8303 10.8808 13.8512 10.8444 13.8756C10.56 14.1423 10.2667 14.4001 9.95555 14.6756C9.85777 14.7645 9.76 14.8356 9.63555 14.7734C9.51111 14.7112 9.63555 14.4889 9.63555 14.3467C9.64265 14.2808 9.66388 14.2171 9.69777 14.1601C10.0718 13.5271 10.6257 13.0197 11.2889 12.7023C11.4426 12.6317 11.6036 12.5781 11.7689 12.5423C11.9533 12.504 12.1454 12.5343 12.3091 12.6276C12.4728 12.7209 12.5967 12.8707 12.6578 13.0489" fill="#AC2335"/>
<path d="M8.55111 21.5201C8.43555 21.8845 8.38222 22.2668 8.26666 22.6223H7.87555L7.47555 21.1112C7.58134 21.0918 7.68976 21.0918 7.79555 21.1112L8.06222 22.1956C8.14222 21.849 8.21333 21.4934 8.29333 21.129H8.72888L8.99555 22.3112C9.10222 21.8934 9.19111 21.5112 9.28 21.1201H9.59111L9.19111 22.6401H8.88889C8.74666 22.3023 8.72889 21.9112 8.58666 21.5468" fill="#9C9C9F"/>
<path d="M9.36 12.7646C9.50168 12.4296 9.7104 12.1271 9.97333 11.8757C10.0692 11.7838 10.1844 11.7145 10.3105 11.673C10.4367 11.6315 10.5705 11.6187 10.7022 11.6357C10.8523 11.6547 10.9956 11.7096 11.12 11.7957C10.4233 12.3111 9.92195 13.0475 9.69777 13.8846C9.61909 13.6999 9.56529 13.5057 9.53777 13.3068C9.47555 13.1291 9.41333 12.9513 9.36 12.7646Z" fill="#AC2335"/>
<path d="M20.0889 21.3335H19.9289C19.8583 21.3278 19.7876 21.3445 19.727 21.3812C19.6664 21.4179 19.6189 21.4727 19.5911 21.5379C19.5406 21.6434 19.5144 21.7588 19.5144 21.8757C19.5144 21.9926 19.5406 22.108 19.5911 22.2135C19.6242 22.2764 19.6741 22.3289 19.7354 22.365C19.7966 22.4011 19.8667 22.4195 19.9378 22.4179C20.0115 22.4214 20.0844 22.4019 20.1466 22.3621C20.2087 22.3223 20.2569 22.2641 20.2844 22.1957C20.3297 22.1236 20.36 22.0431 20.3738 21.9591C20.3875 21.8751 20.3844 21.7892 20.3645 21.7064C20.3446 21.6237 20.3084 21.5457 20.2581 21.4771C20.2077 21.4084 20.1441 21.3506 20.0711 21.3068M19.1822 21.8224C19.1883 21.7293 19.2032 21.6371 19.2267 21.5468C19.2626 21.4069 19.3424 21.2823 19.4544 21.1911C19.5664 21.0999 19.7046 21.047 19.8489 21.0401C19.9808 21.0186 20.116 21.0338 20.2399 21.084C20.3637 21.1341 20.4714 21.2174 20.5511 21.3246C20.6336 21.4439 20.6857 21.5817 20.7027 21.7258C20.7198 21.8699 20.7013 22.0159 20.6489 22.1513C20.6215 22.2406 20.5767 22.3236 20.5172 22.3956C20.4577 22.4677 20.3846 22.5272 20.3021 22.571C20.2195 22.6147 20.1291 22.6418 20.0361 22.6506C19.9431 22.6594 19.8493 22.6498 19.76 22.6224C19.5928 22.5983 19.4404 22.5133 19.3321 22.3837C19.2238 22.2541 19.1672 22.089 19.1733 21.9201V21.8224" fill="#9C9C9F"/>
<path d="M25.3156 21.7157C25.1022 21.7157 25.0222 21.7157 24.9689 21.9023C24.9405 21.962 24.9257 22.0273 24.9257 22.0934C24.9257 22.1596 24.9405 22.2249 24.9689 22.2845C24.9859 22.3234 25.015 22.3556 25.0518 22.3764C25.0887 22.3973 25.1313 22.4056 25.1733 22.4001C25.2196 22.4009 25.2646 22.3852 25.3004 22.3559C25.3362 22.3266 25.3605 22.2856 25.3689 22.2401C25.4013 22.1526 25.4101 22.058 25.3945 21.966C25.3789 21.874 25.3394 21.7877 25.28 21.7157M24.6133 20.969H24.9067V21.6001L25.0844 21.4757C25.1409 21.4532 25.2013 21.4426 25.262 21.4445C25.3228 21.4463 25.3824 21.4606 25.4374 21.4864C25.4924 21.5123 25.5415 21.5491 25.5817 21.5946C25.6219 21.6402 25.6523 21.6935 25.6711 21.7512C25.7516 21.9477 25.7516 22.168 25.6711 22.3645C25.6508 22.4219 25.6187 22.4743 25.5769 22.5185C25.5352 22.5626 25.4846 22.5976 25.4285 22.621C25.3724 22.6444 25.312 22.6559 25.2512 22.6546C25.1904 22.6533 25.1306 22.6393 25.0756 22.6134C25.028 22.6001 24.983 22.5791 24.9422 22.5512C24.9072 22.5955 24.8577 22.626 24.8024 22.6373C24.7472 22.6487 24.6896 22.6403 24.64 22.6134C24.59 22.0664 24.59 21.516 24.64 20.969" fill="#9C9C9F"/>
<path d="M26 20.969H26.2756C26.3017 21.116 26.3017 21.2664 26.2756 21.4134C26.2756 21.5645 26.2756 21.7068 26.2756 21.8934L26.6133 21.4757H26.9689L26.5511 21.9823L27.0044 22.6045C26.8925 22.6216 26.7786 22.6216 26.6667 22.6045L26.2756 22.0712V22.5868H25.9644L26 20.969Z" fill="#9C9C9F"/>
<path d="M13.6622 22.6224H13.3333L12.9511 22.0979V22.6135H12.6756C12.6089 22.0585 12.6089 21.4974 12.6756 20.9424H12.9422V21.8313H12.9867L13.3067 21.4224H13.6444C13.5467 21.5468 13.4844 21.6446 13.4044 21.7335C13.3244 21.8224 13.2356 21.9646 13.4044 22.1513L13.6356 22.4446C13.6561 22.4848 13.6739 22.5264 13.6889 22.569" fill="#9C9C9F"/>
<path d="M4.84444 21.7779C4.91652 21.8082 4.99753 21.8094 5.07046 21.7812C5.14339 21.753 5.20257 21.6977 5.23555 21.6268C5.30666 21.4845 5.18222 21.4045 5.08444 21.3334H4.84444V21.7779ZM4.56 21.0845C4.73766 21.0755 4.91567 21.0755 5.09333 21.0845C5.15582 21.0808 5.21841 21.0901 5.27713 21.1118C5.33586 21.1335 5.38946 21.1671 5.43455 21.2105C5.47965 21.254 5.51526 21.3063 5.53914 21.3641C5.56303 21.422 5.57467 21.4842 5.57333 21.5468C5.57333 21.8045 5.41333 21.9823 5.09333 22.0179H4.84444V22.5779H4.56V21.0845Z" fill="#9C9C9F"/>
<path d="M16.0533 21.4756H16.3111V21.6001C16.3645 21.5476 16.4289 21.5077 16.4996 21.4831C16.5703 21.4585 16.6456 21.4499 16.72 21.4578C16.7956 21.4546 16.8697 21.4789 16.9286 21.5264C16.9875 21.5738 17.0271 21.6411 17.04 21.7156C17.0892 22.0092 17.1071 22.3072 17.0933 22.6045H16.7822V21.8489C16.7111 21.6978 16.64 21.6356 16.5244 21.6623C16.4674 21.6785 16.4177 21.7138 16.3837 21.7624C16.3497 21.811 16.3335 21.8698 16.3378 21.9289C16.3378 22.0801 16.3378 22.2312 16.3378 22.3734C16.3414 22.4415 16.3414 22.5097 16.3378 22.5778H16.0356L16.0533 21.4756Z" fill="#9C9C9F"/>
<path d="M18.0622 22.0979C17.9781 22.0726 17.8882 22.0744 17.8052 22.1032C17.7223 22.1319 17.6505 22.186 17.6 22.2579L17.6711 22.4001H17.9111C18 22.3201 18.0978 22.249 18.0622 22.0979ZM18.3467 22.6223C18.2044 22.6223 18.0978 22.6223 18.0533 22.4979C18.0066 22.5516 17.9471 22.5928 17.8803 22.6176C17.8135 22.6425 17.7416 22.6502 17.6711 22.6401C17.5876 22.6268 17.5115 22.5841 17.4566 22.5197C17.4017 22.4554 17.3716 22.3736 17.3716 22.289C17.3716 22.2044 17.4017 22.1226 17.4566 22.0582C17.5115 21.9939 17.5876 21.9512 17.6711 21.9379L18.08 21.8845C17.9911 21.6534 17.84 21.6357 17.4844 21.7779V21.5379C17.6606 21.4616 17.8548 21.4369 18.0444 21.4668C18.1339 21.4797 18.2157 21.5246 18.2746 21.5933C18.3334 21.662 18.3654 21.7497 18.3644 21.8401C18.3644 22.0979 18.3644 22.3557 18.3644 22.6223" fill="#9C9C9F"/>
<path d="M11.9022 22.409C11.9323 22.3947 11.9592 22.3746 11.9814 22.3498C12.0036 22.325 12.0206 22.296 12.0314 22.2645C12.0421 22.233 12.0465 22.1997 12.0442 22.1665C12.0418 22.1333 12.0329 22.1009 12.0178 22.0712C11.9125 22.0834 11.8085 22.1042 11.7067 22.1334C11.6356 22.1334 11.6089 22.2134 11.6178 22.2934C11.62 22.3249 11.6341 22.3543 11.6572 22.3757C11.6803 22.3972 11.7107 22.4091 11.7422 22.409H11.9022ZM12.0622 22.5067L11.8578 22.6312C11.7581 22.658 11.6523 22.6507 11.5573 22.6105C11.4622 22.5702 11.3834 22.4993 11.3333 22.409V22.169C11.3763 22.0923 11.4399 22.0292 11.5169 21.9868C11.5938 21.9444 11.6811 21.9244 11.7689 21.929C11.8593 21.9198 11.9486 21.9019 12.0356 21.8756C12.0356 21.769 12.0356 21.7067 11.92 21.6979H11.6178L11.4489 21.7423V21.5556L11.5111 21.5023L11.6889 21.449C12.1511 21.3779 12.3289 21.529 12.3378 21.9912C12.3378 22.1867 12.3378 22.3734 12.3378 22.5956H12.1067L12.0444 22.4623" fill="#9C9C9F"/>
<path d="M15.36 22.4002C15.3877 22.3846 15.4119 22.3636 15.4311 22.3383C15.4503 22.313 15.4641 22.284 15.4716 22.2531C15.4791 22.2223 15.4802 22.1902 15.4748 22.1589C15.4693 22.1276 15.4575 22.0978 15.44 22.0713L15.2 22.1157C15.0311 22.169 15.0222 22.2046 15.1111 22.4002H15.36ZM15.4844 21.8757C15.4133 21.6535 15.2889 21.6357 14.88 21.7868V21.5646C14.9783 21.5024 15.09 21.4643 15.2059 21.4535C15.3217 21.4427 15.4385 21.4594 15.5467 21.5024C15.6155 21.5209 15.6756 21.5632 15.7162 21.6218C15.7569 21.6804 15.7755 21.7514 15.7689 21.8224C15.7689 22.0802 15.7689 22.3379 15.7689 22.6135H15.5644L15.5022 22.4624C15.46 22.5057 15.4095 22.54 15.3538 22.5635C15.2981 22.587 15.2382 22.5991 15.1778 22.5991C15.1173 22.5991 15.0575 22.587 15.0017 22.5635C14.946 22.54 14.8956 22.5057 14.8533 22.4624C14.7467 22.3735 14.7733 22.2313 14.7822 22.0979C14.8257 22.0243 14.8883 21.9639 14.9635 21.9232C15.0387 21.8825 15.1235 21.863 15.2089 21.8668C15.3055 21.8604 15.401 21.8425 15.4933 21.8135" fill="#9C9C9F"/>
<path d="M23.7244 21.3334H23.2711V21.1378C23.6695 21.0869 24.0727 21.0869 24.4711 21.1378V21.3334H24.0444V22.64H23.7333C23.7157 22.4211 23.7157 22.2012 23.7333 21.9823V21.3334" fill="#9C9C9F"/>
<path d="M5.62666 21.0846H6.8V21.3157H6.39111V22.6135H6.06222V21.3335H5.64444V21.0846" fill="#9C9C9F"/>
<path d="M13.7956 22.569V22.3646L14.0089 22.409H14.2222C14.2844 22.2313 14.2844 22.2224 14.1422 22.1513C14 22.0802 13.8844 22.089 13.8044 21.9379V21.689C13.9556 21.3868 14.2489 21.4668 14.5333 21.4757V21.6979H14.1156V21.849C14.2578 21.9468 14.4711 21.929 14.5778 22.1157V22.409C14.4945 22.5331 14.3658 22.6194 14.2194 22.6493C14.0731 22.6792 13.9208 22.6504 13.7956 22.569Z" fill="#9C9C9F"/>
<path d="M11.12 21.6979H10.8178L10.6844 21.8401C10.6844 22.0624 10.6844 22.2668 10.8711 22.409H11.1733V22.6757C11.0461 22.6846 10.9184 22.6846 10.7911 22.6757C10.6809 22.6644 10.5778 22.6161 10.4987 22.5386C10.4195 22.4611 10.3691 22.359 10.3556 22.249C10.315 22.0733 10.3437 21.8887 10.4356 21.7335C10.5143 21.6299 10.6235 21.5536 10.7479 21.5153C10.8723 21.477 11.0055 21.4787 11.1289 21.5201C11.2 21.5201 11.2 21.609 11.1289 21.7424" fill="#9C9C9F"/>
<path d="M21.8756 21.1023V22.6401H21.5733V21.129L21.8756 21.1023Z" fill="#9C9C9F"/>
<path d="M10.1067 22.5867H9.82222V21.4845H10.1067V22.5867Z" fill="#9C9C9F"/>
<path d="M20.9511 22.6134V22.3201H21.2622V22.6401H20.9511" fill="#9C9C9F"/>
<path d="M22.4978 22.3201V22.6134H22.2222C22.2184 22.5661 22.2184 22.5185 22.2222 22.4712C22.2179 22.4209 22.2179 22.3703 22.2222 22.3201H22.4978Z" fill="#9C9C9F"/>
<path d="M10.0978 21.0045H9.83111V21.2623H10.0978V21.0045Z" fill="#9C9C9F"/>
</g>
<defs>
<clipPath id="clip0_2707_262448">
<rect width="32" height="32" fill="white"/>
</clipPath>
</defs>
</svg>
