<svg width="32" height="32" viewBox="0 0 32 32" fill="none" xmlns="http://www.w3.org/2000/svg">
<g clip-path="url(#clip0_2737_124493)">
<mask id="mask0_2737_124493" style="mask-type:luminance" maskUnits="userSpaceOnUse" x="0" y="0" width="32" height="32">
<path d="M31.9909 0.0177612H0.0175781V31.9911H31.9909V0.0177612Z" fill="white"/>
</mask>
<g mask="url(#mask0_2737_124493)">
<path d="M15.9998 31.9822C24.8265 31.9822 31.982 24.8267 31.982 16C31.982 7.17325 24.8265 0.0177612 15.9998 0.0177612C7.17306 0.0177612 0.0175781 7.17325 0.0175781 16C0.0175781 24.8267 7.17306 31.9822 15.9998 31.9822Z" fill="white"/>
<path d="M18.2223 10.0088C18.2134 9.7244 18.2134 9.44884 18.1334 9.18217C18.0534 8.91551 17.9201 8.6844 17.7334 8.4444C17.8045 8.4444 17.849 8.4444 17.8934 8.4444C19.2356 8.4444 20.569 8.4444 21.9112 8.4444C22.0801 8.4444 22.2223 8.50662 22.3734 8.55995C22.489 8.6044 22.6045 8.66662 22.7201 8.72884C23.1823 8.95995 23.5112 9.33329 23.7512 9.77773C23.8223 9.90217 23.8934 10.0355 23.9378 10.1688C24.009 10.4 24.0801 10.6311 24.1334 10.8711C24.2223 11.2711 24.2223 11.6622 24.2223 12.0622C24.2223 13.9466 24.2223 15.8311 24.2223 17.7155C24.2223 17.84 24.1867 17.9733 24.1601 18.0977C24.089 18.3911 23.9912 18.6844 23.849 18.9511C23.5734 19.4755 23.1645 19.8844 22.6312 20.1511C22.2045 20.3644 21.7601 20.4888 21.2801 20.48C20.1778 20.48 19.0667 20.48 17.9645 20.48H17.7956V12H19.8578V18.8444C19.9112 18.8444 19.9556 18.8444 20.0001 18.8444C20.4267 18.8444 20.8623 18.8355 21.289 18.8444C21.6178 18.8533 21.8401 18.7111 21.9912 18.4355C22.089 18.2577 22.1423 18.0711 22.1512 17.8577C22.2223 16.7377 22.169 15.6177 22.1778 14.4977C22.1867 13.3777 22.1778 12.2666 22.1778 11.1466C22.1778 10.9866 22.1512 10.8355 22.1156 10.6755C22.0356 10.3288 21.7956 10.1511 21.4756 10.0533C21.2623 9.99106 21.049 9.99106 20.8267 9.99106C19.9645 9.99106 19.1023 9.99106 18.2312 9.99106" fill="#070707"/>
<path d="M5.01381 12.1777C5.4227 12.1777 5.83158 12.1777 6.24047 12.1777C6.40047 12.1777 6.56047 12.1777 6.73825 12.1777C6.73825 12.24 6.73825 12.2844 6.73825 12.3377C6.73825 14.0355 6.73825 15.7333 6.73825 17.4311C6.73825 17.6711 6.80047 17.8755 6.9427 18.0533C7.16492 18.3466 7.44936 18.5333 7.84047 18.5155C8.25825 18.4977 8.58714 18.32 8.80047 17.9644C8.90714 17.7955 8.9427 17.6 8.9427 17.4044C8.9427 15.7155 8.9427 14.0266 8.9427 12.3377V12.1866H10.8716C10.8716 12.2311 10.8716 12.2844 10.8716 12.3288C10.8716 14.0088 10.8716 15.68 10.8716 17.36C10.8716 17.4844 10.8716 17.6088 10.9071 17.7333C10.996 18.0177 11.1738 18.2311 11.4316 18.3822C11.7694 18.5777 12.0983 18.56 12.436 18.4C12.8538 18.1955 13.0583 17.8577 13.0583 17.4044C13.0583 16.8 13.0583 16.1955 13.0583 15.5911C13.1649 15.5555 14.6938 15.5466 14.9783 15.5733C14.9783 15.6088 14.9783 15.6355 14.9783 15.6711C14.9783 16.24 14.9783 16.8 14.9783 17.3688C14.9783 17.6177 14.9516 17.8666 14.8983 18.1066C14.8271 18.4088 14.7116 18.7022 14.5605 18.9777C14.2671 19.5022 13.8494 19.8844 13.3249 20.16C12.7649 20.4533 12.1605 20.5511 11.5294 20.48C11.0138 20.4177 10.5694 20.2044 10.1605 19.9022C10.0627 19.8311 9.96492 19.7511 9.87603 19.6711C9.7427 19.7777 9.60936 19.8844 9.47603 19.9822C9.22714 20.1688 8.9427 20.2755 8.64047 20.3733C8.16936 20.5333 7.68936 20.5066 7.20936 20.4444C6.99603 20.4177 6.7827 20.3377 6.58714 20.24C6.11603 20 5.70714 19.6888 5.39603 19.2622C5.25381 19.0666 5.14714 18.8533 5.04047 18.64C4.91603 18.3733 4.88047 18.08 4.7827 17.8044C4.77381 17.7777 4.79158 17.7333 4.80047 17.6977C4.92492 17.6444 4.93381 17.6355 4.90714 17.5111C4.89825 17.4488 4.89825 17.3955 4.90714 17.3333C4.90714 17.2533 4.93381 17.1733 4.93381 17.0933C4.93381 15.6444 4.93381 14.1955 4.93381 12.7555C4.93381 12.5866 4.90714 12.4088 4.98714 12.2488C4.98714 12.2311 4.98714 12.2133 4.98714 12.1866" fill="#070707"/>
<path d="M26.8181 20.3111H24.9248V13.9289H26.8537C26.8537 13.9289 26.8715 13.9822 26.8715 14.0089C26.8715 15.6356 26.8715 17.2622 26.8715 18.8889C26.8715 19.3333 26.8715 19.7778 26.8715 20.2222C26.8715 20.2489 26.8626 20.2667 26.8537 20.2933C26.8359 20.2933 26.827 20.3022 26.8092 20.3111" fill="#EC1A22"/>
<path d="M4.5335 21.2977C4.5335 21.2977 4.51572 21.2266 4.50684 21.1822C4.64017 21.0933 4.7735 20.9955 4.91572 20.9155C4.96906 20.88 5.04906 20.8799 5.12017 20.8711C5.64461 20.8711 6.17795 20.8533 6.70239 20.8711C8.43572 20.9333 10.1691 20.8888 11.9024 20.8977C13.4668 20.9066 15.0402 20.8711 16.6046 20.9066C18.1246 20.9422 19.6446 20.9155 21.1646 20.9244C21.5557 20.9244 21.9468 20.9244 22.3468 20.9244C22.7379 20.9244 23.1291 20.9244 23.5202 20.9244H24.7024C25.0935 20.9244 25.4846 20.9244 25.8757 20.9244C26.3646 20.9244 26.8446 20.9244 27.3335 20.9244C27.4668 20.9244 27.6002 20.9244 27.7157 20.9866C27.6891 21.0222 27.6535 21.0488 27.6268 21.0844C27.5024 21.1911 27.3868 21.3066 27.2624 21.4133C27.0579 21.4133 26.8446 21.3955 26.6402 21.3866C24.7468 21.3688 22.8535 21.3866 20.9602 21.36C18.0713 21.3155 15.1824 21.3777 12.3024 21.3244C10.4268 21.2888 8.54239 21.3511 6.66684 21.2977C6.12461 21.2799 5.58239 21.2977 5.04017 21.2977C4.95128 21.2977 4.87128 21.3155 4.78239 21.3155C4.70239 21.3155 4.62239 21.2977 4.54239 21.2977" fill="#F2F2F3"/>
<path d="M13.3784 21.5022C13.3784 21.5022 13.3784 21.52 13.3784 21.5378C13.3873 21.5378 13.4051 21.5378 13.414 21.5289C13.4051 21.5289 13.3873 21.52 13.3784 21.5111M4.53395 21.2978C4.61395 21.2978 4.69395 21.3156 4.77395 21.3156C4.86284 21.3156 4.94284 21.2978 5.03173 21.2978C5.57395 21.2978 6.11617 21.28 6.6584 21.2978C8.53395 21.3511 10.4184 21.2978 12.294 21.3245C15.1828 21.3778 18.0717 21.3156 20.9517 21.36C22.8451 21.3867 24.7384 21.36 26.6317 21.3867C26.8362 21.3867 27.0495 21.4045 27.254 21.4133C27.254 21.4578 27.254 21.4933 27.254 21.5378C27.1917 21.5467 27.1295 21.5645 27.0584 21.5645C26.8095 21.5645 26.5606 21.5822 26.3117 21.5645C26.0628 21.5467 25.8228 21.5733 25.574 21.5645C25.4051 21.5645 25.2451 21.5378 25.0762 21.5378C24.7295 21.5378 24.374 21.5378 24.0273 21.5378C23.6806 21.5378 23.334 21.5378 22.9962 21.5378C22.6495 21.5378 22.294 21.5378 21.9473 21.5378C21.6006 21.5378 21.254 21.5111 20.9073 21.5378C20.8895 21.5378 20.8806 21.5378 20.8628 21.5378C20.7828 21.5378 20.7028 21.5111 20.6228 21.5111C20.1695 21.52 19.7251 21.4933 19.2717 21.5289C18.8895 21.5556 18.4984 21.5378 18.1162 21.5289C17.8051 21.5289 17.4851 21.5645 17.174 21.5022C17.1473 21.5022 17.1206 21.5022 17.1028 21.5022C16.9606 21.5022 16.8184 21.5289 16.6762 21.5111C16.4717 21.4845 16.2762 21.4756 16.0717 21.5111C16.0095 21.52 15.9473 21.5111 15.894 21.5111C15.7606 21.5111 15.6362 21.4845 15.5028 21.4845C15.014 21.4845 14.534 21.4845 14.0451 21.4845C14.0006 21.4845 13.9651 21.4845 13.9206 21.4845C13.9028 21.4845 13.8851 21.5111 13.8495 21.5378C13.9384 21.5911 14.0095 21.6178 14.0895 21.5911C14.1428 21.5822 14.1962 21.5733 14.2495 21.5733C14.6051 21.5733 14.9606 21.5733 15.3162 21.5733C15.3695 21.5733 15.4228 21.5733 15.4762 21.5911C15.7073 21.6445 15.9384 21.68 16.1784 21.6622C16.2495 21.6622 16.3295 21.6445 16.4006 21.6356C16.4628 21.6356 16.534 21.6356 16.5962 21.6356C16.6228 21.6356 16.6584 21.6533 16.6851 21.6445C16.9606 21.6267 17.2451 21.6 17.5206 21.5911C18.1784 21.5911 18.8362 21.5911 19.494 21.5911C19.5384 21.5911 19.5828 21.5911 19.6273 21.5911C19.8051 21.6089 19.974 21.6356 20.1517 21.6445C20.3828 21.6445 20.614 21.6267 20.8451 21.6178C21.0851 21.6178 21.3251 21.6445 21.5562 21.6089C21.7873 21.5645 22.0095 21.6533 22.2317 21.6C22.2317 21.6 22.2495 21.6 22.2584 21.6C22.4273 21.6 22.5962 21.6 22.774 21.6C22.9162 21.6 23.0673 21.6 23.2095 21.6C23.3873 21.6089 23.5562 21.6445 23.734 21.6445C24.0806 21.6445 24.4184 21.6267 24.7651 21.6178C25.0317 21.6178 25.2895 21.6178 25.5562 21.6178C26.0806 21.6178 26.5962 21.6445 27.1206 21.5911C27.1828 21.5911 27.2451 21.5822 27.254 21.5022C27.2984 21.4756 27.3428 21.4578 27.3873 21.4311C27.3873 21.5556 27.3873 21.68 27.3873 21.7956C26.9873 21.7956 26.5784 21.7956 26.1784 21.7956C26.1517 21.7867 26.1251 21.7778 26.0984 21.76H25.9651C25.9651 21.76 25.9562 21.8222 25.9473 21.8578C25.8051 21.8933 25.6717 21.9289 25.5295 21.9645C25.4317 21.9911 25.3695 21.9645 25.3517 21.8667C25.3517 21.84 25.3517 21.8045 25.334 21.7778C25.3162 21.7422 25.2806 21.7333 25.254 21.7778C25.2006 21.7689 25.1384 21.7422 25.094 21.8045C24.854 21.7511 24.614 21.7778 24.374 21.7778C24.1873 21.7245 24.0006 21.7333 23.814 21.7689C23.7873 21.7689 23.7606 21.8133 23.734 21.84C23.7251 21.84 23.7162 21.84 23.7073 21.84C23.5028 21.7422 23.3073 21.7689 23.1295 21.9022C23.094 21.9289 23.0584 21.9467 23.0317 21.9645C22.9873 22 22.9428 22 22.8984 21.9556C22.7295 21.7867 22.5162 21.7778 22.294 21.7867C22.214 21.7867 22.1873 21.8222 22.1873 21.9022L22.1784 21.9111C22.1251 21.9111 22.0628 21.9111 22.0095 21.9111C21.9828 21.8133 21.9384 21.7956 21.8406 21.8311C21.7962 21.8489 21.7517 21.8667 21.6984 21.8756C21.6362 21.8845 21.5828 21.8933 21.5206 21.9111C21.4851 21.8845 21.4495 21.8489 21.414 21.8311C21.3428 21.7867 21.254 21.7689 21.1828 21.8133C21.094 21.8667 21.0051 21.9111 20.9073 21.9111C20.854 21.9111 20.8095 21.9111 20.7562 21.9111C20.694 21.9022 20.6317 21.8933 20.5784 21.8845C20.5784 21.8222 20.534 21.7867 20.4806 21.7956C20.3384 21.8311 20.1873 21.7956 20.0628 21.8845C20.0628 21.8845 20.0451 21.8845 20.0362 21.8667C19.9028 21.7689 19.8317 21.76 19.7073 21.8578C19.6451 21.9111 19.5828 21.9022 19.5117 21.8933C19.5117 21.8133 19.4406 21.7956 19.3873 21.7956C19.1917 21.7956 18.9873 21.76 18.8273 21.9111C18.7828 21.9467 18.7295 21.9556 18.6762 21.9111C18.4984 21.7778 18.2851 21.7867 18.0806 21.7867C18.0184 21.7867 17.974 21.8133 17.974 21.8845H17.9651C17.9206 21.8845 17.8673 21.8845 17.8228 21.8845C17.814 21.8045 17.7695 21.7778 17.6984 21.8133C17.5917 21.8756 17.494 21.8578 17.3962 21.8133C17.3606 21.8045 17.3251 21.7867 17.2984 21.7867C17.014 21.7867 16.7384 21.7867 16.454 21.7867C16.4095 21.7867 16.374 21.7867 16.3651 21.8489C16.3562 21.8489 16.3473 21.8489 16.3384 21.8489C16.2317 21.7956 16.1251 21.76 16.0095 21.8489C15.9651 21.8756 15.8851 21.8756 15.8317 21.8489C15.734 21.7956 15.654 21.8311 15.5651 21.8667C15.4406 21.92 15.2984 21.9289 15.174 21.8489C15.094 21.7956 15.0228 21.7956 14.9606 21.8756C14.9073 21.9378 14.8362 21.9289 14.7917 21.8756C14.694 21.7867 14.5962 21.7867 14.4895 21.8311C14.4362 21.8311 14.3828 21.8222 14.3295 21.8222C14.2584 21.8222 14.1784 21.84 14.1073 21.8222C13.9295 21.7867 13.7517 21.7867 13.574 21.8222C13.5206 21.8311 13.4584 21.8222 13.414 21.7867C13.2895 21.7156 13.174 21.7245 13.0584 21.7956C12.9695 21.7956 12.8895 21.7956 12.8006 21.7956C12.6762 21.7956 12.5428 21.8133 12.4184 21.8222C12.3384 21.8045 12.2584 21.7689 12.1695 21.8133C12.0273 21.8756 11.8762 21.8756 11.7251 21.8133C11.6451 21.7778 11.574 21.7778 11.494 21.8133C11.3162 21.9022 11.1384 21.9111 10.9606 21.8133C10.8717 21.7689 10.7917 21.76 10.7117 21.8311C10.6851 21.8489 10.6495 21.8667 10.614 21.8667C10.4984 21.8667 10.3828 21.8933 10.2762 21.8222C10.1962 21.7778 10.1517 21.8045 10.1162 21.9022C10.0451 21.8845 10.0184 21.92 10.0184 21.9911C10.0095 21.9911 10.0006 21.9911 9.99173 21.9911C9.82284 21.8045 9.60951 21.7778 9.3784 21.7778C9.27173 21.7778 9.25395 21.7956 9.22729 21.9022C9.16506 21.9022 9.10284 21.9022 9.04062 21.9022H8.88951C8.82729 21.84 8.76506 21.9022 8.71173 21.9022C8.66729 21.9022 8.63173 21.9022 8.58729 21.9022C8.5784 21.9022 8.56951 21.9022 8.56062 21.9022C8.52506 21.9022 8.47173 21.8933 8.44506 21.9022C8.36506 21.9378 8.32062 21.9022 8.2584 21.8578C8.16062 21.7778 8.04506 21.7511 7.92062 21.8045C7.79618 21.7511 7.68062 21.7511 7.55617 21.8045C7.49395 21.8045 7.43173 21.8045 7.3784 21.8045C7.36062 21.7956 7.33395 21.7778 7.31617 21.7778C7.16506 21.7778 7.01395 21.7778 6.86284 21.7778C6.84506 21.7778 6.8184 21.7956 6.80062 21.8045C6.61395 21.7422 6.42729 21.7778 6.24062 21.7778C6.1784 21.7778 6.16062 21.8222 6.16062 21.8845C6.15173 21.8845 6.14284 21.8933 6.13395 21.9022C6.10729 21.9022 6.08062 21.9022 6.06284 21.8933C5.91173 21.7867 5.73395 21.7689 5.55617 21.7867C5.50284 21.7867 5.4584 21.7867 5.40506 21.7867C5.35173 21.7778 5.2984 21.76 5.24506 21.76C5.09395 21.76 4.94284 21.76 4.79173 21.76C4.79173 21.6978 4.79173 21.6356 4.79173 21.5733C4.87173 21.5733 4.95173 21.5733 5.03173 21.5733C7.12951 21.5733 9.22729 21.5733 11.3251 21.5733C11.3695 21.5822 11.414 21.6 11.4495 21.6C11.9828 21.6 12.5073 21.6 13.0406 21.6C13.1473 21.6 13.1473 21.6 13.2095 21.4756H13.1206C12.374 21.4578 11.6273 21.4756 10.8717 21.4578C8.84506 21.4222 6.80951 21.4845 4.78284 21.4222C4.64951 21.4222 4.52506 21.4222 4.39173 21.4222C4.35618 21.4222 4.31173 21.3956 4.30284 21.3689C4.28506 21.3156 4.32951 21.2889 4.37395 21.28C4.4184 21.2711 4.46284 21.28 4.50729 21.2711" fill="#C9CACB"/>
<path d="M4.79102 23.1733C4.79102 23.04 4.79102 22.9155 4.79102 22.7822C4.9599 22.7822 5.13768 22.7555 5.30657 22.8444C5.32435 22.8444 5.34213 22.8444 5.36879 22.8444C5.37768 22.8444 5.38657 22.8444 5.37768 22.8622C5.37768 22.9244 5.41324 22.9422 5.46657 22.9333C5.5199 22.9333 5.52879 22.8977 5.5199 22.8533C5.5199 22.8533 5.56435 22.8266 5.58213 22.8177C5.81324 22.7822 6.03546 22.7555 6.25768 22.8355C6.30213 22.8533 6.34657 22.8444 6.39102 22.8444C6.40879 22.8533 6.41768 22.8711 6.43546 22.88C6.45324 22.8977 6.46213 22.9155 6.4799 22.9333C6.49768 22.9155 6.51546 22.8977 6.52435 22.8711C6.61324 22.8711 6.71102 22.8533 6.7999 22.8444C6.87102 22.9244 6.90657 22.8444 6.95102 22.8177C7.00435 22.8533 7.0399 22.8444 7.08435 22.8C7.11102 22.7733 7.15546 22.7377 7.19102 22.7288C7.31546 22.7111 7.4399 22.7022 7.55546 22.6933C7.58213 22.7111 7.5999 22.7288 7.62657 22.7555C7.62657 22.7555 7.64435 22.7555 7.65324 22.7644C7.66213 22.8977 7.75102 22.9866 7.87546 22.96C7.92879 22.9511 7.98213 22.9155 8.02657 22.8711C8.13324 22.7822 8.22213 22.7822 8.33768 22.8711C8.34657 22.88 8.36435 22.8888 8.37324 22.8977C8.50657 22.9866 8.55102 22.9955 8.68435 22.8977C8.74657 22.8533 8.81768 22.8266 8.89768 22.8355V22.8533C8.94213 22.9688 8.96879 22.9777 9.0399 22.9155C9.11102 22.8444 9.16435 22.8711 9.23546 22.9066C9.4399 23.0044 9.63546 22.9688 9.83102 22.88C9.87546 22.8622 9.87546 22.8177 9.85768 22.7733C9.87546 22.7555 9.89324 22.7288 9.9199 22.7111C9.94657 22.7111 9.97324 22.7111 9.9999 22.7111H10.0621C10.071 22.7555 10.0355 22.8266 10.1243 22.8266C10.1243 22.8888 10.1243 22.9422 10.1955 22.9511C10.2666 22.9511 10.3021 22.9244 10.3021 22.8622C10.3199 22.8622 10.3466 22.8622 10.3643 22.8622C10.3643 22.9422 10.4266 22.9688 10.4888 22.9511C10.6043 22.9244 10.711 22.9422 10.8266 22.9511C10.8888 22.9511 10.9421 22.9422 11.0043 22.9333C11.0666 22.9333 11.1199 22.9422 11.1821 22.9333C11.3421 22.9066 11.511 23.0933 11.6621 22.8977C11.6621 22.8977 11.6799 22.8977 11.6888 22.8977C11.7688 22.8888 11.8577 22.8711 11.9377 22.8622C12.1332 23.0044 12.2577 22.9777 12.391 22.7822C12.4088 22.7644 12.4177 22.7377 12.4266 22.7111C12.4888 22.7111 12.551 22.7111 12.6043 22.7111C12.6043 22.7644 12.5866 22.8355 12.6843 22.8266C12.7377 22.8977 12.791 22.8266 12.8443 22.8266C12.871 22.8177 12.9155 22.8088 12.9155 22.7911C12.9688 22.64 13.0843 22.6488 13.2088 22.6488C13.2977 22.6488 13.3599 22.6755 13.3777 22.7644C13.3955 22.8177 13.4221 22.8355 13.4755 22.8355C13.4755 22.8888 13.4843 22.9511 13.5643 22.9511C13.6532 22.9511 13.7421 22.9511 13.831 22.9511C13.8488 22.9511 13.8577 22.9155 13.8755 22.8977C13.9643 22.8888 14.0621 22.8711 14.151 22.8622C14.1866 22.96 14.2488 22.9955 14.3021 22.9333C14.391 22.8177 14.4977 22.8444 14.6132 22.8444C14.6843 22.8444 14.7643 22.8444 14.8177 22.7822C14.8355 22.7822 14.8532 22.7822 14.871 22.7822C14.8977 22.8088 14.9243 22.8355 14.9421 22.8711C14.9155 22.8888 14.8977 22.9244 14.9332 22.9422C14.9777 22.96 15.0221 22.9422 15.0755 22.9511C15.0755 22.9244 15.0666 22.8977 15.0577 22.8711C15.0577 22.8444 15.0666 22.8088 15.0755 22.7822C15.0932 22.7911 15.111 22.8 15.1288 22.8177C15.1821 22.9155 15.271 22.8711 15.351 22.8711C15.351 22.8711 15.3866 22.9155 15.4043 22.9333C15.431 22.9155 15.4488 22.8888 15.4755 22.8711C15.5199 22.8711 15.5555 22.8711 15.5555 22.8177C15.6177 22.8355 15.6621 22.8977 15.7421 22.8711C15.7421 22.9333 15.7866 22.9333 15.831 22.9333C15.8755 22.9333 15.8843 22.8977 15.8755 22.8622C15.9377 22.8444 16.0088 22.8266 16.071 22.8088C16.1955 22.7822 16.3199 22.7644 16.4443 22.8355C16.4443 22.8355 16.4621 22.8355 16.471 22.8355C16.471 22.8444 16.4888 22.8533 16.4977 22.8622C16.4977 22.9066 16.5243 22.9333 16.5688 22.9155C16.5866 22.9155 16.6043 22.88 16.6221 22.8533C16.6221 22.8444 16.6399 22.8355 16.6488 22.8266C16.7555 22.8266 16.8621 22.8266 16.9688 22.8266C17.0221 22.8266 17.0666 22.8266 17.1021 22.88C17.1288 22.9066 17.1732 22.9244 17.2088 22.9422C17.2266 22.9066 17.2443 22.8622 17.2621 22.8266C17.2888 22.8177 17.3155 22.8088 17.3421 22.7822C17.4399 22.7022 17.5199 22.7111 17.6088 22.8C17.6443 22.8444 17.6977 22.88 17.7421 22.9155C17.8043 22.96 17.8666 22.9511 17.9021 22.88C17.9466 22.8977 17.9821 22.9066 18.0266 22.9244C18.1066 22.9511 18.1243 22.9244 18.1155 22.8533C18.2132 22.8266 18.311 22.8 18.4088 22.7733C18.4621 22.7911 18.4888 22.88 18.5688 22.8355C18.5688 22.8355 18.551 22.9066 18.6043 22.9155C18.6577 22.9155 18.7199 22.9422 18.7288 22.8533C18.7821 22.8622 18.8443 22.8533 18.8888 22.88C19.0755 22.9777 19.2799 22.9422 19.4755 22.9511C19.5466 22.9511 19.5555 22.9155 19.5466 22.8533C19.5999 22.8533 19.6532 22.8533 19.7066 22.8533C19.7155 22.8533 19.7243 22.8533 19.7421 22.8533C19.7866 22.8533 19.831 22.8355 19.8666 22.8266C19.9732 22.8355 19.9821 22.7466 19.9999 22.6844C20.0977 22.6488 20.1332 22.7111 20.1688 22.7733C20.3199 22.9866 20.4443 22.9955 20.6399 22.8266C20.6399 22.8266 20.6577 22.8177 20.6577 22.8266C20.711 22.8444 20.7643 22.8533 20.8088 22.8622C20.8621 22.8533 20.9066 22.8444 20.9599 22.8355C20.9688 22.8355 20.9777 22.8355 20.9955 22.8355C21.0399 22.8444 21.0755 22.8533 21.1199 22.8711C21.1555 22.9777 21.1999 22.9955 21.2799 22.9333C21.3155 22.9066 21.351 22.8622 21.3866 22.8266C21.4577 22.7644 21.5288 22.7555 21.5999 22.8266C21.6266 22.8533 21.6532 22.88 21.6799 22.8977C21.7777 22.9777 21.9021 22.9955 21.9999 22.9155C22.071 22.8533 22.151 22.8444 22.2399 22.8444H22.2488V22.8622C22.2488 22.9422 22.2843 22.9688 22.3555 22.9688C22.4355 22.9688 22.5155 22.9688 22.5955 22.9688C22.6932 22.96 22.791 22.9244 22.871 22.8533C23.0043 22.7288 23.0132 22.7288 23.1643 22.8355C23.4043 23.0133 23.7421 22.9866 23.9555 22.7911C24.0355 22.8 24.1243 22.8177 24.2043 22.8177C24.3199 22.8177 24.4443 22.8177 24.5599 22.8177C24.5955 22.8266 24.6221 22.8355 24.6577 22.8444C24.7199 22.8622 24.7821 22.8888 24.8355 22.8177C24.8977 22.8177 24.8977 22.7733 24.8977 22.7288C25.0132 22.7288 25.1021 22.7644 25.1821 22.8444C25.3332 22.9866 25.5555 23.0133 25.7155 22.9066C25.7688 22.8888 25.8132 22.8622 25.8666 22.8444C25.911 22.8444 25.9643 22.8444 26.0088 22.8444C26.0088 22.8444 26.0088 22.8533 26.0088 22.8622C26.0266 22.8888 26.0443 22.9244 26.071 22.9333C26.1155 22.9511 26.1332 22.9155 26.1332 22.8711C26.1332 22.8622 26.151 22.8533 26.1599 22.8444C26.2577 22.8444 26.231 22.7377 26.3021 22.6933C26.3288 22.7288 26.3555 22.7555 26.3732 22.7911C26.3999 22.8444 26.4355 22.8533 26.4888 22.8444C26.5332 22.8533 26.5777 22.8622 26.631 22.88C26.6666 22.8622 26.6932 22.8444 26.7288 22.8177C26.9688 22.8177 27.2088 22.8177 27.4488 22.8177C27.4488 22.9422 27.4488 23.0577 27.4577 23.1822C27.431 23.2 27.4132 23.2355 27.3866 23.2444C27.3421 23.2533 27.2977 23.2444 27.2532 23.2444C19.8399 23.2444 12.4266 23.2444 5.01324 23.2444C4.96879 23.2444 4.93324 23.2444 4.88879 23.2444C4.86213 23.2444 4.83546 23.2 4.81768 23.1822" fill="#B8B9BC"/>
<path d="M17.0843 12.1422C17.0843 12.3111 17.0843 12.4711 17.0843 12.64C17.0843 13.52 17.0843 14.4 17.0843 15.2711C17.0843 15.4133 17.0843 15.4133 16.942 15.4133C16.382 15.4133 15.822 15.4133 15.2532 15.4133C15.2176 15.4133 15.182 15.4133 15.1465 15.4133V12.1155H17.0487C17.0487 12.1155 17.0665 12.1333 17.0754 12.1422" fill="#EC1A22"/>
<path d="M14.8623 9.77776C14.8623 9.19109 15.2623 8.67553 15.7867 8.50664C16.0179 8.42664 16.2579 8.42665 16.5067 8.48887C16.9067 8.59553 17.2001 8.83553 17.3779 9.20887C17.5379 9.53776 17.5645 9.87553 17.4401 10.2311C17.2623 10.7378 16.9067 11.04 16.409 11.12C15.8845 11.2089 15.4401 11.0044 15.1201 10.56C14.9245 10.2844 14.8712 10.1155 14.8712 9.77776" fill="#EC1A22"/>
<path d="M27.1909 11.6889C27.1909 12.4089 26.622 13.0311 25.8753 13.0311C25.1198 13.0311 24.542 12.3911 24.542 11.6889C24.542 10.9866 25.1198 10.3378 25.8575 10.3466C26.622 10.3555 27.1642 10.9333 27.1909 11.6889Z" fill="#EC1A22"/>
<path d="M4.79102 23.1733C4.79102 23.1733 4.83547 23.2266 4.86214 23.2355C4.89769 23.2444 4.94214 23.2355 4.98658 23.2355C12.3999 23.2355 19.8132 23.2355 27.2266 23.2355C27.271 23.2355 27.3155 23.2355 27.3599 23.2355C27.3866 23.2355 27.4044 23.2 27.431 23.1733C27.4755 23.1733 27.5199 23.1555 27.5555 23.1555C27.591 23.1555 27.6355 23.1822 27.671 23.1911C27.591 23.28 27.5199 23.3777 27.4488 23.4577C27.3599 23.4577 27.2799 23.4489 27.2088 23.4489C23.1732 23.4311 19.1377 23.4577 15.0932 23.4222C11.5732 23.3955 8.05325 23.4222 4.52436 23.4222C4.47102 23.4222 4.4088 23.4222 4.35547 23.4222C4.37325 23.3955 4.39102 23.3511 4.4088 23.3422C4.52436 23.2889 4.6488 23.2355 4.77325 23.1822" fill="#E4E4E4"/>
<path d="M4.37357 23.4133C4.4269 23.4133 4.48912 23.4133 4.54246 23.4133C8.06246 23.4133 11.5825 23.3955 15.1113 23.4133C19.1469 23.4489 23.1825 23.4133 27.2269 23.44C27.298 23.44 27.378 23.44 27.4669 23.4489C27.538 23.3689 27.6091 23.2711 27.6891 23.1822C27.7425 23.2089 27.7247 23.2444 27.698 23.28C27.6447 23.3511 27.6002 23.4311 27.538 23.5022C27.5113 23.5377 27.4491 23.5555 27.4047 23.5555C27.2625 23.5555 27.1113 23.5555 26.9602 23.5555C19.458 23.5555 11.9558 23.5555 4.44468 23.5555C4.40023 23.5555 4.36468 23.5555 4.32023 23.5555C4.29357 23.5555 4.2669 23.52 4.24023 23.5022C4.25801 23.4755 4.27579 23.44 4.30246 23.4133C4.32023 23.3955 4.3469 23.4133 4.37357 23.4044" fill="#AFAFAF"/>
<path d="M11.3429 21.6C9.24513 21.6 7.14735 21.6 5.04957 21.6C4.96957 21.6 4.88957 21.6 4.80957 21.6C4.80957 21.5466 4.80957 21.5022 4.80957 21.4489C6.83624 21.5111 8.87179 21.4489 10.8985 21.4844C11.6451 21.5022 12.3918 21.4844 13.1473 21.5022C13.1296 21.5911 13.0496 21.5644 12.9962 21.5644C12.4985 21.5644 12.0007 21.5644 11.5029 21.5644C11.4496 21.5644 11.3962 21.5822 11.3429 21.5911" fill="#AFAFAF"/>
<path d="M5.01401 12.1777C5.01401 12.1777 5.01401 12.2222 5.01401 12.24C4.93401 12.4 4.96068 12.5777 4.96068 12.7466C4.96068 14.1955 4.96068 15.6444 4.96068 17.0844C4.96068 17.1644 4.9429 17.2444 4.93402 17.3244C4.93402 17.3866 4.93402 17.4488 4.93402 17.5022C4.95179 17.6266 4.95179 17.6355 4.82735 17.6888C4.82735 17.6088 4.80957 17.5288 4.80957 17.4488C4.80957 15.7333 4.80957 14.0266 4.80957 12.3111V12.1777H5.01401Z" fill="#020101"/>
<path d="M26.7027 22.8089C26.7027 22.8089 26.6404 22.8444 26.6049 22.8711C26.6049 22.8444 26.6138 22.8089 26.6049 22.7911C26.5427 22.6844 26.4804 22.5777 26.4093 22.4711C26.5071 22.3555 26.5604 22.2577 26.5871 22.1333C26.5278 22.1333 26.4745 22.1481 26.4271 22.1777C26.4271 22.1777 26.3649 22.1777 26.356 22.1777C26.3293 22.2044 26.3027 22.2489 26.2671 22.3111C26.2493 22.1333 26.2315 21.9822 26.2227 21.84C26.6227 21.84 27.0315 21.84 27.4315 21.84C27.4315 22.0355 27.4315 22.2222 27.4315 22.4177C27.2627 22.4266 27.0938 22.4355 26.9249 22.4444C26.8715 22.4444 26.8182 22.4266 26.7649 22.4266C26.7027 22.4266 26.6404 22.4266 26.5604 22.4266C26.5604 22.5866 26.6671 22.6844 26.7115 22.8089" fill="#D3D3D3"/>
<path d="M4.7998 21.7777C4.95092 21.7777 5.10203 21.7777 5.25314 21.7777C5.30647 21.7777 5.3598 21.7955 5.41314 21.8044C5.40425 21.84 5.39536 21.8755 5.38647 21.9111C5.34203 21.9733 5.33314 22.0266 5.38647 22.0889C5.38647 22.1689 5.41314 22.2044 5.49314 22.2044C5.56425 22.2044 5.63536 22.2044 5.71536 22.2044C5.71536 22.2133 5.71536 22.2311 5.71536 22.24C5.64425 22.24 5.56425 22.24 5.49314 22.24C5.44869 22.24 5.40425 22.2755 5.46647 22.3289C5.3598 22.3911 5.39536 22.5066 5.38647 22.5955C5.35092 22.5777 5.29758 22.5689 5.28869 22.5422C5.21758 22.3911 5.08425 22.4 4.95092 22.4177C4.90647 22.4177 4.86203 22.4266 4.81758 22.4355C4.81758 22.2133 4.81758 21.9911 4.81758 21.7689" fill="#D3D3D3"/>
<path d="M26.7029 22.8088C26.6584 22.6844 26.5606 22.5777 26.5518 22.4266C26.6229 22.4266 26.694 22.4266 26.7562 22.4266C26.8095 22.4266 26.8629 22.4444 26.9162 22.4444C27.0851 22.4444 27.254 22.4266 27.4229 22.4177C27.4229 22.5511 27.4229 22.6844 27.4229 22.8177C27.1829 22.8177 26.9429 22.8177 26.7029 22.8177" fill="#C9CACB"/>
<path d="M4.7999 22.4444C4.7999 22.4444 4.88879 22.4355 4.93324 22.4266C5.06657 22.4089 5.19102 22.3911 5.27102 22.5511C5.2799 22.5778 5.33324 22.5866 5.36879 22.6044C5.36879 22.6844 5.36879 22.7644 5.36879 22.8444C5.35102 22.8444 5.32435 22.8444 5.30657 22.8444C5.14657 22.7644 4.96879 22.7911 4.79102 22.7822C4.79102 22.6666 4.79102 22.56 4.79102 22.4444" fill="#C9CACB"/>
<path d="M27.2539 21.5378C27.2539 21.5378 27.2539 21.4578 27.2539 21.4133C27.3784 21.3066 27.4939 21.2 27.6184 21.0844C27.6539 21.0578 27.6806 21.0222 27.7072 20.9867C27.725 20.9867 27.7428 20.9778 27.7606 20.9689C27.7784 21.0578 27.7339 21.1111 27.6806 21.1555C27.6184 21.2178 27.5561 21.2711 27.5028 21.3333C27.4672 21.3689 27.4495 21.4222 27.4228 21.4666C27.3784 21.4933 27.3339 21.5111 27.2895 21.5378C27.2806 21.5378 27.2717 21.5378 27.2539 21.5378Z" fill="#AFAFAF"/>
<path d="M26.8184 20.3111C26.8184 20.3111 26.845 20.3022 26.8628 20.2933C26.845 20.2933 26.8361 20.3022 26.8184 20.3111Z" fill="#EE8E8E"/>
<path d="M17.0843 12.1422C17.0843 12.1422 17.0665 12.1244 17.0576 12.1155C17.0665 12.1155 17.0754 12.1333 17.0843 12.1422Z" fill="#EE8E8E"/>
<path d="M27.2537 21.5377C27.2537 21.5377 27.2714 21.5377 27.2892 21.5377C27.2803 21.6177 27.2181 21.6177 27.1559 21.6266C26.6403 21.68 26.1159 21.6444 25.5914 21.6533C25.3248 21.6533 25.067 21.6533 24.8003 21.6533C24.4537 21.6533 24.1159 21.68 23.7692 21.68C23.5914 21.68 23.4225 21.6444 23.2448 21.6355C23.1025 21.6355 22.9514 21.6355 22.8092 21.6355C22.6403 21.6355 22.4714 21.6355 22.2937 21.6355C22.2848 21.6355 22.2759 21.6266 22.267 21.6355C22.0448 21.6888 21.8225 21.6088 21.5914 21.6444C21.3603 21.6888 21.1203 21.6444 20.8803 21.6533C20.6492 21.6533 20.4181 21.68 20.187 21.68C20.0092 21.68 19.8403 21.6444 19.6625 21.6266C19.6181 21.6266 19.5737 21.6266 19.5292 21.6266C18.8714 21.6266 18.2137 21.6266 17.5559 21.6266C17.2803 21.6266 16.9959 21.6622 16.7203 21.68C16.6937 21.68 16.6581 21.6711 16.6314 21.6711C16.5692 21.6711 16.4981 21.6711 16.4359 21.6711C16.3648 21.6711 16.2848 21.6888 16.2137 21.6977C15.9737 21.7155 15.7425 21.68 15.5114 21.6266C15.4581 21.6177 15.4048 21.6088 15.3514 21.6088C14.9959 21.6088 14.6403 21.6088 14.2848 21.6088C14.2314 21.6088 14.1781 21.6088 14.1248 21.6266C14.0359 21.6444 13.9648 21.6266 13.8848 21.5733C13.9114 21.5466 13.9292 21.5288 13.9559 21.52C13.9914 21.52 14.0359 21.52 14.0803 21.52C14.5692 21.52 15.0492 21.52 15.5381 21.52C15.6714 21.52 15.7959 21.5377 15.9292 21.5466C15.9914 21.5466 16.0537 21.5466 16.107 21.5466C16.3114 21.5111 16.507 21.52 16.7114 21.5466C16.8537 21.5644 16.9959 21.5466 17.1381 21.5377C17.1648 21.5377 17.1914 21.5288 17.2092 21.5377C17.5203 21.5911 17.8314 21.5555 18.1514 21.5644C18.5337 21.5644 18.9248 21.5911 19.307 21.5644C19.7603 21.5288 20.2048 21.5555 20.6581 21.5466C20.7381 21.5466 20.8181 21.5644 20.8981 21.5733C20.9159 21.5733 20.9248 21.5733 20.9425 21.5733C21.2892 21.5555 21.6359 21.5822 21.9825 21.5733C22.3292 21.5733 22.6848 21.5733 23.0314 21.5733C23.3781 21.5733 23.7248 21.5733 24.0625 21.5733C24.4092 21.5733 24.7648 21.5733 25.1114 21.5733C25.2803 21.5733 25.4403 21.5911 25.6092 21.6C25.8581 21.6088 26.0981 21.5822 26.347 21.6C26.5959 21.6177 26.8448 21.6 27.0937 21.6C27.1559 21.6 27.2181 21.5822 27.2892 21.5733" fill="#B8B9BC"/>
<path d="M12.7026 22.8355C12.6048 22.8355 12.6226 22.7733 12.6226 22.72C12.6137 22.5511 12.5959 22.3822 12.587 22.2133C12.4537 22.2133 12.4448 22.2133 12.4448 22.3111C12.4448 22.4444 12.4448 22.5867 12.4448 22.72C12.4359 22.7467 12.427 22.7644 12.4092 22.7911C12.2759 22.9867 12.1515 23.0133 11.9559 22.8711C11.8848 22.7378 11.8137 22.6044 11.7337 22.4355C11.7159 22.5778 11.707 22.6755 11.6804 22.7733C11.6804 22.8 11.6359 22.8178 11.6092 22.8355C11.6092 22.6044 11.6004 22.3822 11.5915 22.1511C11.5915 22.1155 11.6092 22.08 11.627 22.0267C11.6626 22.08 11.6892 22.1067 11.707 22.1333C11.7781 22.3111 11.8492 22.48 11.9204 22.6578C11.9381 22.7111 11.9648 22.7555 11.9915 22.8C12.0448 22.8711 12.1426 22.8978 12.2226 22.8622C12.3026 22.8267 12.3381 22.7733 12.347 22.6844C12.347 22.5955 12.347 22.5067 12.347 22.4089C12.347 22.2489 12.347 22.0889 12.347 21.9289H12.2226C12.2226 21.9289 12.187 21.9378 12.1604 21.9467C12.1604 21.9644 12.1781 21.9733 12.187 21.9911C12.187 22.1955 12.187 22.4089 12.187 22.6133C12.187 22.6489 12.1604 22.6844 12.1426 22.7378C12.107 22.7111 12.0892 22.7022 12.0804 22.6844C12.0181 22.5333 11.9559 22.3733 11.9026 22.2133C11.8759 22.1422 11.8492 22.0711 11.8137 22.0089C11.7781 21.9378 11.627 21.8755 11.5559 21.9022C11.4848 21.9289 11.4492 22 11.4404 22.08C11.4404 22.1067 11.4404 22.1422 11.4404 22.1689C11.4404 22.3911 11.4404 22.6133 11.4404 22.8355C11.4048 22.8355 11.3781 22.8355 11.3426 22.8355C11.2448 22.56 11.1381 22.2844 11.0492 22.0089C11.0226 21.9289 10.9781 21.9022 10.907 21.8933C10.7826 21.8844 10.7204 21.9378 10.6759 22.0622C10.6404 22.16 10.5959 22.2578 10.5604 22.3555C10.507 22.5244 10.4537 22.6933 10.4092 22.8622C10.4004 22.8622 10.3826 22.8622 10.3737 22.8622C10.3559 22.8622 10.3292 22.8622 10.3115 22.8622C10.3115 22.8533 10.3115 22.8355 10.3115 22.8267V21.9289C10.2404 21.9289 10.1959 21.9289 10.1426 21.9289C10.1781 21.8311 10.2315 21.7955 10.3026 21.8489C10.4092 21.92 10.5248 21.8844 10.6404 21.8933C10.6759 21.8933 10.7115 21.8755 10.7381 21.8578C10.8181 21.7867 10.907 21.7955 10.987 21.84C11.1648 21.9289 11.3426 21.9289 11.5204 21.84C11.6004 21.7955 11.6804 21.8044 11.7515 21.84C11.9026 21.9022 12.0448 21.9022 12.1959 21.84C12.2848 21.8044 12.3648 21.84 12.4448 21.8489C12.4448 21.8755 12.4448 21.9022 12.4448 21.92V22.0978H12.7026V22.8444V22.8355Z" fill="#DCDCDC"/>
<path d="M13.5022 22.8444C13.4489 22.8444 13.4222 22.8267 13.4044 22.7733C13.3866 22.6933 13.3244 22.6578 13.2355 22.6578C13.1111 22.6578 12.9867 22.6578 12.9422 22.8C12.9422 22.8178 12.8889 22.8267 12.8711 22.8356C12.8711 22.6222 12.8711 22.4089 12.8711 22.1956C12.96 22.1778 13.0755 22.2044 13.1111 22.08C13.1111 22.0267 13.1111 21.9644 13.1111 21.9111C13.1111 21.8756 13.0933 21.84 13.0844 21.8044C13.2 21.7333 13.3155 21.7244 13.44 21.7956C13.4844 21.8222 13.5466 21.84 13.6 21.8311C13.7778 21.7956 13.9555 21.7956 14.1333 21.8311C14.2044 21.8489 14.2844 21.8311 14.3555 21.8311C14.4089 21.8311 14.4622 21.8311 14.5155 21.84C14.48 21.8844 14.4355 21.9289 14.4 21.9733C14.3467 22.0356 14.2933 22.0267 14.2311 21.9822C14.1955 21.9556 14.1511 21.9467 14.1155 21.9289C14.0711 21.9289 14.0178 21.9289 13.9733 21.9289C13.9733 22.1244 13.9733 22.3111 13.9733 22.4978C13.9733 22.6311 13.92 22.6756 13.7866 22.6756C13.6978 22.6756 13.6089 22.6756 13.5111 22.6756V22.8267L13.5022 22.8444Z" fill="#D3D3D3"/>
<path d="M14.1069 21.9288C14.1069 21.9288 14.1869 21.9555 14.2224 21.9822C14.2847 22.0266 14.338 22.0355 14.3913 21.9733C14.4269 21.9288 14.4713 21.8844 14.5069 21.8399C14.6136 21.7866 14.7202 21.7866 14.8091 21.8844C14.8624 21.9377 14.9247 21.9466 14.978 21.8844C15.0402 21.8044 15.1113 21.8133 15.1913 21.8577C15.3158 21.9377 15.458 21.9288 15.5824 21.8755C15.6713 21.8399 15.7513 21.8044 15.8491 21.8577C15.8936 21.8844 15.9824 21.8844 16.0269 21.8577C16.1424 21.7777 16.2491 21.8133 16.3558 21.8577C16.3558 21.8577 16.3736 21.8577 16.3824 21.8577C16.4358 21.9555 16.4802 22.0622 16.5336 22.1599C16.5424 22.2311 16.5513 22.3022 16.5691 22.3733C16.5424 22.3733 16.5247 22.3733 16.498 22.3733C16.4624 22.2577 16.418 22.1511 16.3824 22.0355C16.3469 21.9111 16.2402 21.8488 16.1247 21.9022C16.0624 21.9288 16.0269 21.9999 15.9824 22.0622C15.9469 22.1244 15.9202 22.1866 15.8936 22.2577C15.8847 22.2577 15.8669 22.2577 15.858 22.2577V22.0711C15.8136 22.1155 15.7869 22.1422 15.7691 22.1688C15.7069 22.2488 15.6447 22.3288 15.5824 22.4177C15.5736 22.3999 15.5558 22.3822 15.5469 22.3644C15.6358 22.2222 15.7247 22.0711 15.8047 21.9288C15.6447 21.9022 15.6447 21.9022 15.5824 22.0088C15.5469 22.0711 15.5113 22.1422 15.4669 22.2044C15.4491 22.2399 15.4224 22.2666 15.3958 22.3022C15.3336 22.1955 15.2802 22.1066 15.2269 22.0177C15.1558 21.8933 15.1469 21.8933 14.9958 21.9377C15.0758 22.0622 15.1558 22.1955 15.2447 22.3199C15.3069 22.4088 15.3424 22.4977 15.3158 22.6044C15.2536 22.6044 15.2358 22.5777 15.218 22.5244C15.1824 22.3999 15.138 22.2844 15.0136 22.2133C15.0136 22.2044 14.9958 22.1955 14.9869 22.1777C14.9869 22.1866 15.0047 22.1955 15.0136 22.2133C15.0136 22.2577 15.0313 22.3111 15.0402 22.3555C15.0758 22.5066 15.1024 22.6666 15.138 22.8177C15.1202 22.8088 15.1024 22.7999 15.0847 22.7822C15.058 22.7288 15.0313 22.6755 15.0136 22.6222C14.9424 22.4177 14.8624 22.2133 14.8002 22.0088C14.7736 21.9377 14.738 21.9111 14.6758 21.9022C14.5691 21.8844 14.4802 21.9377 14.4358 22.0444C14.3913 22.1511 14.3558 22.2577 14.3202 22.3733C14.2669 22.5333 14.2224 22.7022 14.1691 22.8622C14.0802 22.8711 13.9824 22.8888 13.8936 22.8977C13.8936 22.8799 13.8936 22.8622 13.8936 22.8533C14.0536 22.7999 14.1158 22.6755 14.1158 22.5155C14.1158 22.3199 14.1158 22.1244 14.1158 21.9288" fill="#E1E1E1"/>
<path d="M7.66264 22.7644C7.66264 22.7644 7.64486 22.7644 7.63597 22.7555C7.62708 22.7289 7.61819 22.6933 7.60041 22.6666C7.60041 22.6489 7.60041 22.6311 7.60041 22.6044C7.59152 22.5955 7.58264 22.5778 7.57375 22.5689C7.53819 22.4444 7.49375 22.3111 7.46708 22.1866C7.4493 22.0978 7.3693 22.0178 7.43152 21.9111C7.5293 21.9111 7.57375 21.9555 7.60041 22.0444C7.61819 22.1244 7.64486 22.2133 7.67152 22.2933C7.71597 22.4178 7.76041 22.5333 7.80486 22.6578C7.82264 22.7022 7.85819 22.72 7.90264 22.6844C7.90264 22.6489 7.90264 22.6133 7.90264 22.5778C7.90264 22.4089 7.90264 22.2489 7.90264 22.08C7.90264 21.9644 7.95597 21.92 8.06264 21.9111C8.1693 21.9022 8.24041 21.9466 8.27597 22.0444C8.32041 22.1778 8.35597 22.3111 8.40041 22.4355C8.42708 22.5066 8.45375 22.5866 8.4893 22.6578C8.49819 22.6844 8.53375 22.6933 8.58708 22.7378V21.9822C8.58708 21.9822 8.60486 21.9644 8.61375 21.9555C8.65819 21.9555 8.69375 21.9555 8.73819 21.9555C8.73819 22.2044 8.74708 22.4622 8.75597 22.7111C8.75597 22.7289 8.75597 22.7378 8.73819 22.7555C8.65819 22.9422 8.50708 22.96 8.38264 22.8089C8.35597 22.7733 8.33819 22.7289 8.31152 22.6844C8.31152 22.6755 8.31152 22.6666 8.31152 22.6578C8.31152 22.64 8.29375 22.6133 8.28486 22.5955C8.2493 22.4622 8.20486 22.32 8.1693 22.1866C8.15152 22.1422 8.14264 22.0978 8.07152 22.1244V22.4533C8.07152 22.5422 8.07152 22.6311 8.07152 22.72C8.07152 22.8 8.03597 22.8711 7.95597 22.8978C7.88486 22.9244 7.80486 22.9244 7.75152 22.8622C7.73375 22.8444 7.70708 22.8178 7.6893 22.8" fill="#090909"/>
<path d="M22.3828 22.0889C22.3828 22.0889 22.365 22.1066 22.3561 22.1155C22.3561 22.3022 22.3561 22.4889 22.3561 22.6933C22.4005 22.6933 22.4361 22.6933 22.4628 22.6933C22.5161 22.6933 22.5694 22.6933 22.6228 22.6933C22.6405 22.6933 22.6583 22.6666 22.685 22.6488C22.7116 22.6311 22.765 22.6133 22.7739 22.5866C22.8183 22.4711 22.8183 22.3466 22.7739 22.2222C22.7472 22.1422 22.685 22.1066 22.605 22.1066C22.5339 22.1066 22.4539 22.1066 22.3828 22.1066M22.2405 22.8533L22.2316 22.8355C22.2316 22.7555 22.2139 22.6755 22.2139 22.5955C22.2139 22.5422 22.2139 22.4888 22.2139 22.4266C22.2139 22.2577 22.2139 22.0977 22.2228 21.9288H22.2316V21.92C22.3383 21.92 22.445 21.92 22.5516 21.9111C22.7916 21.9111 22.9339 22.0177 22.9605 22.3111C22.9694 22.4266 22.9428 22.5422 22.925 22.6577C22.8539 22.7911 22.7383 22.8622 22.5872 22.8622C22.4716 22.8622 22.3472 22.8622 22.2316 22.8533" fill="#040404"/>
<path d="M17.9913 21.9022H18.0002C18.1602 21.9022 18.3113 21.9111 18.4713 21.9111C18.5958 21.9111 18.7113 21.9911 18.7291 22.16C18.7291 22.24 18.6935 22.32 18.6758 22.4C18.6402 22.4267 18.5958 22.4533 18.5513 22.4889C18.5869 22.5511 18.6135 22.5956 18.6402 22.6489C18.6758 22.72 18.7024 22.7911 18.7291 22.8622C18.6758 22.8622 18.6224 22.8533 18.5691 22.8444C18.5069 22.7289 18.4535 22.6133 18.3913 22.5067H18.1513C18.1513 22.5956 18.1513 22.6756 18.1513 22.7556C18.1513 22.8089 18.1335 22.8356 18.098 22.8622C18.0713 22.8622 18.0358 22.8622 18.0091 22.8622C18.0091 22.7289 18.0091 22.5956 18.0091 22.4622C18.0091 22.4178 18.0358 22.3822 18.0446 22.3378C18.1069 22.3378 18.1602 22.32 18.2224 22.32C18.2935 22.32 18.3735 22.32 18.4535 22.32C18.5246 22.32 18.5602 22.2933 18.5602 22.2133C18.5602 22.0978 18.5513 22.08 18.4358 22.08C18.2846 22.08 18.1335 22.08 17.9824 22.08C17.9824 22.0178 17.9913 21.9644 18.0002 21.9022" fill="#040404"/>
<path d="M24.6405 22.8355C24.6405 22.8355 24.5783 22.8177 24.5428 22.8088C24.5428 22.7377 24.5428 22.6577 24.5428 22.5866C24.5428 22.5066 24.5072 22.4622 24.4272 22.4533C24.3028 22.4355 24.1783 22.4355 24.0539 22.4177C24.0539 22.1866 24.0005 21.9911 23.7783 21.8755C23.805 21.8488 23.8317 21.8133 23.8583 21.8044C24.045 21.7688 24.2317 21.76 24.4183 21.8133C24.4183 21.8488 24.4183 21.8755 24.4183 21.9111C24.4094 21.9644 24.4005 22.0266 24.3828 22.08C24.3828 22.1244 24.3828 22.1688 24.445 22.1777C24.5072 22.1777 24.5605 22.1955 24.6228 22.2044C24.6228 22.4177 24.6228 22.6311 24.6228 22.8355" fill="#D3D3D3"/>
<path d="M25.2977 22.2667C25.2977 22.3822 25.2977 22.48 25.2977 22.5778C25.2977 22.6489 25.3333 22.6933 25.4044 22.6933C25.4666 22.6933 25.5288 22.6933 25.5821 22.6933C25.6533 22.6933 25.7066 22.64 25.7155 22.5689C25.7155 22.5067 25.7244 22.4444 25.7155 22.3911C25.7066 22.3022 25.6533 22.2667 25.5555 22.2578C25.4666 22.2578 25.3866 22.2578 25.2888 22.2578M25.1377 21.84C25.1821 21.7778 25.2444 21.8044 25.2977 21.8133V22.1155C25.3955 22.1155 25.4844 22.1155 25.5644 22.1155C25.6533 22.1155 25.7333 22.1422 25.7866 22.2222C25.9288 22.4089 25.8844 22.6933 25.6888 22.8444C25.591 22.8444 25.5021 22.8622 25.4044 22.8622C25.2355 22.8622 25.1466 22.7644 25.1377 22.5955C25.1377 22.5155 25.1377 22.4355 25.1377 22.3555C25.1377 22.1867 25.1377 22.0178 25.1377 21.84Z" fill="#070707"/>
<path d="M8.57783 21.9644V22.72C8.5245 22.6844 8.48894 22.6666 8.48005 22.64C8.4445 22.5689 8.41783 22.4978 8.39116 22.4178C8.34672 22.2844 8.31116 22.1511 8.26672 22.0266C8.24005 21.9289 8.16005 21.8844 8.05339 21.8933C7.95561 21.9022 7.90227 21.9466 7.89339 22.0622C7.89339 22.2311 7.89339 22.3911 7.89339 22.56C7.89339 22.5955 7.89339 22.6311 7.89339 22.6666C7.84894 22.7022 7.81339 22.6844 7.79561 22.64C7.75116 22.5244 7.70672 22.4 7.66227 22.2755C7.63561 22.1955 7.61783 22.1155 7.59116 22.0266C7.57339 21.9378 7.52005 21.8933 7.42227 21.8933C7.41339 21.8933 7.39561 21.8933 7.38672 21.8933C7.38672 21.8755 7.38672 21.8578 7.38672 21.8311C7.44894 21.8311 7.51116 21.8311 7.5645 21.8311C7.69783 21.9378 7.74227 22.0889 7.76894 22.2578C7.74227 22.08 7.8045 21.9466 7.92894 21.8311C8.05339 21.7778 8.16894 21.8044 8.26672 21.8844C8.32894 21.9378 8.37339 21.9644 8.45339 21.9289C8.48894 21.9111 8.53339 21.9289 8.56894 21.9289C8.56894 21.9378 8.56894 21.9466 8.56894 21.9555" fill="#E4E4E4"/>
<path d="M16.5427 22.1777C16.4894 22.08 16.4449 21.9733 16.3916 21.8755C16.3916 21.8222 16.436 21.8133 16.4805 21.8133C16.7649 21.8133 17.0405 21.8133 17.3249 21.8133C17.3605 21.8133 17.396 21.8222 17.4227 21.84C17.5294 21.8755 17.6272 21.8933 17.7249 21.84C17.796 21.8044 17.8405 21.84 17.8494 21.9111C17.8494 21.92 17.8494 21.9288 17.8494 21.9377C17.7872 21.9377 17.7338 21.9466 17.6716 21.9555C17.6538 21.9555 17.6183 21.9377 17.6183 21.9555C17.5738 22.0088 17.5383 22.0711 17.5027 22.1244C17.476 22.1688 17.4583 22.2311 17.3605 22.24C17.3605 22.16 17.3605 22.0977 17.3605 22.0266C17.3605 21.9555 17.3249 21.9466 17.2627 21.9466C17.2272 21.9466 17.1827 21.9466 17.1472 21.9466C17.1383 21.9466 17.1294 21.9466 17.1205 21.9466C17.0583 21.9466 17.0227 21.9644 17.0227 22.0266C17.0227 22.0888 17.0227 22.1422 17.0227 22.1866H16.5427V22.1777Z" fill="#D3D3D3"/>
<path d="M19.7069 22.8711C19.6536 22.8711 19.6002 22.8711 19.5469 22.8711C19.5469 22.8178 19.5469 22.7555 19.5469 22.7022C19.5558 22.6311 19.5647 22.56 19.5736 22.4889C19.5647 22.48 19.5469 22.4622 19.538 22.4533C19.5202 22.3289 19.5202 22.3289 19.4225 22.3289C19.3336 22.3289 19.2358 22.3289 19.1469 22.3289C19.1025 22.3289 19.0491 22.3022 19.0047 22.2844C18.9513 22.2489 18.9425 22.1867 18.9958 22.1511C19.0402 22.1244 19.0936 22.0978 19.1469 22.0978C19.2802 22.0978 19.4047 22.0978 19.538 22.0978C19.538 22.0355 19.538 21.9911 19.538 21.9467V21.9289C19.6091 21.9289 19.6713 21.9467 19.7336 21.8933C19.858 21.7955 19.9291 21.8044 20.0625 21.9022C20.0625 21.9022 20.0802 21.9111 20.0891 21.92C20.1247 21.9644 20.1602 22.0178 20.1869 22.0711C20.2136 22.1244 20.2225 22.1778 20.1513 22.2044C20.1336 22.1689 20.098 22.1333 20.0891 22.0889C20.0447 21.9555 19.9825 21.9111 19.858 21.92C19.7513 21.9289 19.6891 22.0089 19.6891 22.1333C19.6891 22.3733 19.6891 22.6133 19.6891 22.8622C19.6891 22.8711 19.6891 22.88 19.6891 22.8889" fill="#E4E4E4"/>
<path d="M23.787 21.8667C24.0003 21.9822 24.0626 22.1867 24.0626 22.4089C24.0448 22.48 24.0181 22.5511 24.0003 22.6222C23.9826 22.6222 23.9648 22.6222 23.947 22.6222C23.947 22.4889 23.9737 22.3644 23.947 22.2311C23.9203 22.08 23.8314 21.9467 23.6803 21.92C23.5914 21.9022 23.5026 21.9022 23.4048 21.92C23.2181 21.9378 23.0937 22.0711 23.0848 22.2578C23.0848 22.3822 23.0848 22.5067 23.0848 22.6311C23.0492 22.6489 23.0137 22.6756 22.9692 22.6933C22.9692 22.6933 22.9426 22.6667 22.9248 22.6578C22.9337 22.5422 22.9692 22.4267 22.9603 22.3111C22.9248 22.0178 22.7914 21.9022 22.5514 21.9111C22.4448 21.9111 22.3381 21.9111 22.2314 21.92C22.2314 21.8489 22.2581 21.8044 22.3381 21.8044C22.5603 21.8044 22.7737 21.8044 22.9426 21.9733C22.987 22.0178 23.0314 22.0178 23.0759 21.9822C23.1114 21.9644 23.147 21.9378 23.1737 21.92C23.3514 21.7778 23.547 21.76 23.7514 21.8578C23.7514 21.8578 23.7692 21.8578 23.7781 21.8578" fill="#E9E9E9"/>
<path d="M26.427 22.1689C26.4744 22.1333 26.5277 22.1185 26.587 22.1244C26.5603 22.2489 26.507 22.3555 26.4092 22.4622C26.4714 22.5689 26.5425 22.6755 26.6047 22.7822C26.6136 22.8 26.6047 22.8355 26.6047 22.8622C26.5603 22.8533 26.5159 22.8444 26.4625 22.8266C26.4359 22.7822 26.4092 22.7466 26.3914 22.7022C26.3292 22.5422 26.3203 22.5422 26.1336 22.5689V22.8266C26.1336 22.8266 26.1159 22.8444 26.107 22.8533C26.0625 22.8533 26.0181 22.8533 25.9825 22.8533C25.9825 22.8533 25.9825 22.8444 25.9825 22.8355C25.9825 22.8089 25.9825 22.7733 25.9736 22.7466C25.9736 22.4622 25.9736 22.1778 25.9825 21.8933C25.9825 21.8666 25.9914 21.84 26.0003 21.7955H26.1336C26.1336 22 26.1336 22.1955 26.1336 22.4C26.3114 22.4089 26.3114 22.4089 26.3647 22.2755C26.3825 22.2311 26.4003 22.1955 26.427 22.16" fill="#070707"/>
<path d="M25.9911 21.9022C25.9911 22.1866 25.9911 22.4711 25.9822 22.7555C25.9111 22.7555 25.8578 22.7555 25.8489 22.8444C25.7955 22.8622 25.7511 22.8889 25.6978 22.9066C25.6978 22.8889 25.6978 22.8711 25.6978 22.8533C25.8844 22.7022 25.9289 22.4178 25.7955 22.2311C25.7422 22.16 25.6622 22.1333 25.5733 22.1244C25.4844 22.1244 25.4044 22.1244 25.3066 22.1244V21.8222C25.3066 21.8222 25.3689 21.7866 25.3866 21.8222C25.3955 21.8489 25.3955 21.8844 25.4044 21.9111C25.4311 22.0089 25.4844 22.0355 25.5822 22.0089C25.7155 21.9733 25.8578 21.9378 26 21.9022" fill="#E4E4E4"/>
<path d="M6.4449 22.8711C6.4449 22.8711 6.41823 22.8444 6.40046 22.8356C6.40046 22.6222 6.40046 22.4089 6.40046 22.1956C6.40046 22.16 6.40046 22.1333 6.40046 22.0889C6.30268 22.0889 6.22268 22.08 6.13379 22.0711V21.92C6.13379 21.92 6.15157 21.9111 6.16046 21.9022C6.37379 21.9022 6.57823 21.9022 6.79157 21.9022C6.79157 21.9556 6.79157 22.0089 6.79157 22.0711C6.71157 22.0711 6.63157 22.0711 6.55157 22.08V22.8C6.55157 22.8 6.5249 22.8356 6.51601 22.8622C6.51601 22.8622 6.45379 22.8622 6.42712 22.8622" fill="#030303"/>
<path d="M20.1687 22.1867C20.2398 22.1511 20.2309 22.1067 20.2042 22.0533C20.1776 22 20.1331 21.9556 20.1064 21.9022C20.2309 21.8133 20.3909 21.8489 20.5242 21.8133C20.5776 21.7956 20.6131 21.84 20.622 21.9022C20.622 21.9111 20.622 21.92 20.622 21.9378H20.462C20.462 21.9378 20.462 22 20.462 22.0267C20.462 22.2133 20.462 22.4 20.462 22.5867C20.462 22.64 20.462 22.6844 20.3998 22.7022C20.3109 22.6756 20.3109 22.5867 20.2931 22.5244C20.2487 22.4178 20.1864 22.32 20.1687 22.2044" fill="#D9D9D9"/>
<path d="M20.9867 22.8355C20.9867 22.8355 20.9689 22.8355 20.9512 22.8355C20.9512 22.5333 20.9512 22.2311 20.9512 21.9289C21.0578 21.9289 21.1467 21.8844 21.2267 21.8311C21.2978 21.7867 21.3867 21.8044 21.4578 21.8489C21.4934 21.8755 21.529 21.9022 21.5645 21.9289C21.609 22.0267 21.6445 22.1244 21.6978 22.24C21.6534 22.2489 21.6267 22.2578 21.6001 22.2667C21.5645 22.1778 21.5378 22.0889 21.5023 22.0089C21.4667 21.92 21.3956 21.9022 21.3067 21.9022C21.2178 21.9022 21.1645 21.9555 21.1467 22.0355C21.1378 22.08 21.129 22.1244 21.129 22.1689C21.129 22.3822 21.129 22.6044 21.1201 22.8178C21.0756 22.8178 21.0401 22.8355 20.9956 22.8444" fill="#E9E9E9"/>
<path d="M19.5557 21.9111V21.9289C19.3868 21.9289 19.2268 21.9289 19.0579 21.92C18.8623 21.92 18.7734 22.1778 18.889 22.3289C18.9068 22.3467 18.9245 22.3733 18.9512 22.4089C18.9068 22.4178 18.889 22.4267 18.8623 22.4267C18.8001 22.3911 18.7379 22.3822 18.6668 22.4089C18.6845 22.3289 18.729 22.24 18.7201 22.1689C18.7023 22.0089 18.5957 21.92 18.4623 21.92C18.3023 21.92 18.1512 21.92 17.9912 21.9111C17.9912 21.84 18.0357 21.8133 18.0979 21.8133C18.3023 21.8133 18.5157 21.7956 18.6934 21.9378C18.7468 21.9822 18.8001 21.9733 18.8445 21.9378C19.0134 21.7867 19.2179 21.8222 19.4045 21.8222C19.4668 21.8222 19.529 21.84 19.529 21.92" fill="#ECECEC"/>
<path d="M25.138 21.84C25.138 22.0089 25.138 22.1777 25.138 22.3555C25.0046 22.3555 25.0846 22.24 25.0313 22.1955C24.9157 22.1955 24.9069 22.1955 24.898 22.2755C24.8891 22.4266 24.8802 22.5777 24.8713 22.72C24.8713 22.7644 24.8713 22.8089 24.8091 22.8089V22.08H25.0491C25.0491 22.0177 25.0491 21.9644 25.0402 21.9022H24.418C24.418 21.9022 24.418 21.84 24.418 21.8044C24.658 21.8044 24.898 21.7866 25.138 21.8311" fill="#ECECEC"/>
<path d="M10.0007 22.72C10.0007 22.72 9.94734 22.72 9.92067 22.72C9.99178 22.5333 10.0273 22.3467 9.94734 22.1422C9.89401 22.0089 9.81401 21.9378 9.68956 21.9289C9.53845 21.9111 9.38734 21.9289 9.24512 21.9289C9.27178 21.8222 9.28956 21.8133 9.39623 21.8044C9.62734 21.8044 9.84067 21.8311 10.0096 22.0178C10.0096 22.0267 10.0185 22.0444 10.0273 22.0533C10.0273 22.0356 10.0362 22.0267 10.0451 22.0089C10.0451 21.9378 10.0718 21.9022 10.1429 21.92C10.1429 22.2222 10.1429 22.5244 10.1429 22.8178C10.054 22.8178 10.0896 22.7467 10.0807 22.7022C10.0807 22.6844 10.0629 22.6667 10.0629 22.6578C10.0451 22.6756 10.0362 22.6844 10.0185 22.7022" fill="#E9E9E9"/>
<path d="M21.6 22.2666C21.6 22.2666 21.6533 22.2488 21.6978 22.2399C21.6533 22.1333 21.6089 22.0266 21.5645 21.9288C21.6267 21.9199 21.68 21.9111 21.7422 21.8933C21.7867 21.8844 21.84 21.8666 21.8845 21.8488C21.9822 21.8044 22.0267 21.8311 22.0533 21.9288H21.8845V22.6666C21.8045 22.7022 21.7867 22.6577 21.7689 22.6044C21.7156 22.4888 21.6622 22.3733 21.6178 22.2488" fill="#DCDCDC"/>
<path d="M8.90723 22.8622V22.8444C8.90723 22.8 8.90723 22.7555 8.90723 22.7111C8.90723 22.4533 8.90723 22.1955 8.91611 21.9377C8.96945 21.9377 9.01389 21.9377 9.06723 21.9377C9.06723 22.2311 9.06723 22.5244 9.07612 22.8177C9.04056 22.8889 8.97834 22.8889 8.91611 22.8711" fill="#090909"/>
<path d="M9.06651 22.8089C9.06651 22.5156 9.06651 22.2222 9.05762 21.9289C9.11984 21.9289 9.18206 21.9289 9.24428 21.9289C9.24428 22.2222 9.24428 22.5156 9.2354 22.8089C9.18206 22.8089 9.12873 22.8089 9.06651 22.8089Z" fill="#F2F2F2"/>
<path d="M20.9511 21.9289C20.9511 22.2311 20.9511 22.5333 20.9511 22.8355C20.8978 22.8444 20.8533 22.8533 20.8 22.8622C20.8 22.7378 20.7911 22.6222 20.7822 22.4978C20.7822 22.3022 20.7822 22.1155 20.7911 21.92C20.8444 21.92 20.8889 21.92 20.9422 21.92" fill="#070707"/>
<path d="M6.14227 21.9289V22.08C6.23116 22.08 6.31116 22.0889 6.40894 22.0978C6.40894 22.1422 6.40894 22.1689 6.40894 22.2044H6.2045C6.16894 22.2755 6.12746 22.3259 6.08005 22.3555C6.08005 22.3555 6.08005 22.3289 6.08005 22.32C6.08005 22.3022 6.08005 22.2844 6.08005 22.2578C6.08894 22.0178 5.99116 21.92 5.76005 21.9111C5.63561 21.9111 5.51116 21.9111 5.38672 21.9111C5.39561 21.8755 5.4045 21.84 5.41339 21.8044C5.46672 21.8044 5.51116 21.8044 5.5645 21.8044C5.74227 21.7955 5.92005 21.8044 6.07116 21.9111C6.08894 21.92 6.11561 21.9111 6.14227 21.92" fill="#ECECEC"/>
<path d="M8.90737 21.9288C8.90737 22.1866 8.90737 22.4444 8.89848 22.7022C8.84515 22.7022 8.79181 22.6933 8.73848 22.6844C8.73848 22.4355 8.72959 22.1777 8.7207 21.9288C8.78293 21.9288 8.84515 21.8666 8.89848 21.9288" fill="#F2F2F2"/>
<path d="M11.3428 21.6C11.3961 21.5911 11.4494 21.5733 11.5028 21.5733C12.0006 21.5733 12.4983 21.5733 12.9961 21.5733C13.0494 21.5733 13.1206 21.6089 13.1472 21.5111H13.2361C13.1739 21.6356 13.1739 21.6356 13.0672 21.6356C12.5339 21.6356 12.0094 21.6356 11.4761 21.6356C11.4317 21.6356 11.3872 21.6178 11.3517 21.6089" fill="#B8B9BC"/>
<path d="M20.7997 21.9289C20.7997 22.1244 20.7997 22.3111 20.7909 22.5066C20.7375 22.5066 20.6842 22.5066 20.6309 22.5066C20.6309 22.3111 20.6309 22.1244 20.6309 21.9289C20.6309 21.92 20.6309 21.9111 20.6309 21.8933C20.6931 21.9022 20.7553 21.9111 20.8086 21.92" fill="#F2F2F2"/>
<path d="M22.2225 21.9289C22.2225 22.0978 22.2225 22.2578 22.2136 22.4267C22.2136 22.48 22.2136 22.5333 22.2136 22.5956C22.1603 22.5956 22.1069 22.5956 22.0625 22.5956C22.0625 22.3733 22.0625 22.1511 22.0625 21.9378C22.1158 21.9378 22.1781 21.9378 22.2314 21.9378" fill="#EFEFEF"/>
<path d="M7.38657 21.84C7.38657 21.84 7.38657 21.8755 7.38657 21.9022C7.2799 21.9911 7.14657 22.0088 7.01324 21.9911C6.97768 21.9911 6.93324 21.9911 6.89768 21.9911C6.89768 21.9288 6.86213 21.8933 6.79102 21.9111C6.79102 21.9111 6.79102 21.8666 6.7999 21.84C6.81768 21.8311 6.84435 21.8133 6.86213 21.8133C7.01324 21.8133 7.16435 21.8133 7.31546 21.8133C7.33324 21.8133 7.3599 21.8311 7.37768 21.84" fill="#CECECE"/>
<path d="M26.4271 22.1689C26.4271 22.1689 26.3827 22.2489 26.3649 22.2844C26.3116 22.4178 26.3116 22.4178 26.1338 22.4089C26.1338 22.2133 26.1338 22.0089 26.1338 21.8044C26.1605 21.8133 26.1871 21.8222 26.2138 21.84C26.2316 21.9911 26.2405 22.1333 26.2582 22.3111C26.3027 22.2489 26.3205 22.2044 26.3471 22.1778C26.356 22.1689 26.3916 22.1778 26.4182 22.1778" fill="#ECECEC"/>
<path d="M17.8495 21.9289C17.8495 21.9289 17.8495 21.9111 17.8495 21.9022C17.8939 21.9022 17.9473 21.9022 17.9917 21.9022C17.9917 21.9644 17.9828 22.0178 17.9739 22.08C17.9739 22.0889 17.9739 22.0978 17.9739 22.1067C17.9117 22.1067 17.8584 22.1067 17.8317 22.1867C17.8317 22.2222 17.7961 22.2578 17.7695 22.2844C17.7161 22.3378 17.725 22.3911 17.7695 22.4444C17.8139 22.4889 17.8406 22.5422 17.7695 22.5956C17.7161 22.5156 17.6628 22.4356 17.6006 22.3556C17.7161 22.2311 17.7784 22.08 17.8406 21.92" fill="#E9E9E9"/>
<path d="M7.93769 21.84C7.81324 21.9555 7.74213 22.0889 7.77769 22.2667C7.75102 22.0978 7.70658 21.9467 7.57324 21.84C7.69769 21.7867 7.81324 21.7867 7.93769 21.84Z" fill="#CECECE"/>
<path d="M13.0754 21.8133C13.0754 21.8133 13.0932 21.8844 13.1021 21.92C12.8799 21.92 12.6666 21.92 12.4443 21.92C12.4443 21.8933 12.4443 21.8666 12.4443 21.8488C12.5688 21.84 12.7021 21.8222 12.8266 21.8222C12.9066 21.8222 12.9954 21.8222 13.0843 21.8222" fill="#ECECEC"/>
<path d="M6.80895 21.84C6.80895 21.84 6.80895 21.8844 6.80006 21.9111C6.58672 21.9111 6.38228 21.9111 6.16895 21.9111C6.16895 21.8488 6.18672 21.8044 6.24895 21.8044C6.43561 21.8044 6.62228 21.7777 6.80895 21.8311" fill="#ECECEC"/>
<path d="M13.3779 21.5022C13.3779 21.5022 13.4046 21.5111 13.4135 21.52C13.4046 21.52 13.3868 21.52 13.3779 21.5288C13.3779 21.52 13.3779 21.5111 13.3779 21.4933" fill="#B8B9BC"/>
<path d="M10.0356 22.0178C10.0356 22.0178 10.0267 22.0444 10.0178 22.0622C10.0178 22.0533 10.0089 22.0355 10 22.0267C10.0089 22.0267 10.0178 22.0267 10.0267 22.0267" fill="#DCDCDC"/>
<path d="M8.57812 21.9644C8.57812 21.9644 8.57812 21.9466 8.57812 21.9377C8.58701 21.9377 8.5959 21.9377 8.60479 21.9377C8.5959 21.9377 8.58701 21.9555 8.57812 21.9644Z" fill="#353535"/>
<path d="M6.5332 22.8711C6.5332 22.8711 6.55987 22.8355 6.56876 22.8088C6.63987 22.7911 6.62209 22.7377 6.62209 22.6933C6.63098 22.5511 6.63987 22.4177 6.64876 22.2755C6.64876 22.2222 6.67543 22.1777 6.73765 22.1777C6.79987 22.1777 6.79987 22.1333 6.79987 22.08C6.79987 22.08 6.86209 22.08 6.89765 22.08C6.97765 22.0888 7.06654 22.1066 7.14654 22.1066C7.34209 22.1066 7.37765 22.1333 7.43098 22.32C7.43098 22.3377 7.43098 22.3644 7.43987 22.3822C7.50209 22.4355 7.45765 22.5511 7.56431 22.5688C7.56431 22.5688 7.58209 22.5866 7.59098 22.6044C7.59098 22.6222 7.59098 22.64 7.59098 22.6666C7.58209 22.6755 7.56431 22.6933 7.55543 22.7022C7.43098 22.7111 7.30654 22.72 7.19098 22.7377C7.15543 22.7377 7.11098 22.7733 7.08431 22.8088C7.03987 22.8533 7.00431 22.8622 6.95098 22.8266C6.95098 22.7822 6.95098 22.7377 6.94209 22.6844C6.88876 22.6844 6.84431 22.6844 6.80876 22.6844C6.80876 22.7466 6.80876 22.8 6.80876 22.8533C6.71987 22.8622 6.62209 22.8711 6.5332 22.88" fill="#CECECE"/>
<path d="M20.6225 21.9289C20.6225 22.1244 20.6225 22.3111 20.6225 22.5067C20.6225 22.5689 20.6225 22.64 20.6225 22.7022C20.6136 22.8089 20.5336 22.8711 20.4269 22.88C20.3114 22.88 20.2492 22.8089 20.2136 22.72C20.1336 22.5244 20.0536 22.3378 19.9825 22.1422C19.9558 22.08 19.9203 22.08 19.8669 22.0978V22.8444C19.8669 22.8444 19.778 22.8622 19.7425 22.8711C19.7336 22.8711 19.7247 22.8533 19.7158 22.8444C19.7158 22.6044 19.7158 22.3644 19.7158 22.1155C19.7158 21.9911 19.778 21.9111 19.8847 21.9022C20.0092 21.8844 20.0625 21.9289 20.1158 22.0711C20.1336 22.1155 20.1603 22.1511 20.178 22.1867C20.1958 22.3022 20.258 22.4 20.3025 22.5067C20.3292 22.5689 20.3203 22.6578 20.4092 22.6844C20.4714 22.6667 20.4714 22.6222 20.4714 22.5689C20.4714 22.3822 20.4714 22.1955 20.4714 22.0089C20.4714 21.9822 20.4714 21.9644 20.4714 21.92H20.6314L20.6225 21.9289Z" fill="#070707"/>
<path d="M9.66212 22.6755C9.75101 22.6755 9.80434 22.6133 9.81323 22.5333C9.83101 22.4533 9.8399 22.3644 9.83101 22.2844C9.81323 22.1333 9.75101 22.0889 9.59101 22.0889C9.52878 22.0889 9.45767 22.0889 9.39545 22.0889V22.2044C9.39545 22.3377 9.39545 22.4711 9.39545 22.5955V22.6844C9.49323 22.6844 9.57323 22.6844 9.66212 22.6755ZM9.23545 22.8089C9.23545 22.5155 9.23545 22.2222 9.24434 21.9289C9.39545 21.9289 9.54656 21.9111 9.68878 21.9289C9.81323 21.9377 9.89323 22.0177 9.94656 22.1422C10.0266 22.3466 9.9999 22.5333 9.9199 22.72C9.90212 22.7377 9.88434 22.7644 9.85767 22.7822C9.6799 22.8889 9.49323 22.8622 9.29767 22.8533C9.27101 22.8533 9.24434 22.8266 9.22656 22.8089" fill="#070707"/>
<path d="M15.911 22.2666C15.9376 22.2044 15.9643 22.1333 15.9999 22.0711C16.0354 22.0089 16.0799 21.9377 16.1421 21.9111C16.2488 21.8577 16.3554 21.92 16.3999 22.0444C16.4354 22.16 16.4799 22.2755 16.5154 22.3822C16.551 22.4711 16.5776 22.56 16.6132 22.6489C16.631 22.7111 16.6488 22.7733 16.6665 22.8266C16.6665 22.8355 16.6488 22.8444 16.6399 22.8533C16.5954 22.8533 16.5599 22.8533 16.5154 22.8533C16.5154 22.8444 16.4976 22.8355 16.4888 22.8266C16.4265 22.6489 16.3643 22.4622 16.3021 22.2844C16.2754 22.2133 16.2488 22.1422 16.2132 22.0444C16.0888 22.1777 16.071 22.32 16.0354 22.4622C15.991 22.5866 15.9376 22.72 15.8932 22.8444C15.8488 22.8444 15.8043 22.8444 15.751 22.8444C15.751 22.8444 15.751 22.7733 15.751 22.7377C15.751 22.7022 15.7599 22.6755 15.7688 22.64C15.8132 22.5066 15.8576 22.3822 15.9021 22.2489" fill="#090909"/>
<path d="M11.3428 22.8444C11.3428 22.8444 11.405 22.8444 11.4406 22.8444C11.4939 22.8711 11.5561 22.88 11.6095 22.8444C11.6361 22.8266 11.6717 22.8089 11.6806 22.7822C11.6984 22.6844 11.7161 22.5777 11.7339 22.4444C11.8228 22.6044 11.8939 22.7466 11.9561 22.88C11.8761 22.8889 11.7873 22.9066 11.7073 22.9155C11.6984 22.9155 11.6806 22.9155 11.6806 22.9155C11.5384 23.1111 11.3606 22.9333 11.2006 22.9511C11.1384 22.9511 11.085 22.9511 11.0228 22.9511C10.9606 22.9511 10.8984 22.9689 10.845 22.9689C10.7295 22.96 10.6228 22.9333 10.5073 22.9689C10.445 22.9866 10.3828 22.9689 10.3828 22.88C10.3917 22.88 10.4095 22.88 10.4184 22.88C10.4806 22.8711 10.5517 22.8977 10.5961 22.8177C10.6584 22.8177 10.685 22.7911 10.7028 22.7377C10.7384 22.6577 10.765 22.5689 10.8095 22.4889C10.8184 22.4622 10.8539 22.4266 10.8806 22.4266C10.9073 22.4266 10.9428 22.4622 10.9517 22.4889C10.9873 22.5689 11.0139 22.6577 11.0584 22.7289C11.0673 22.7555 11.1117 22.7644 11.1384 22.7822C11.2184 22.88 11.2184 22.88 11.3517 22.8444" fill="#C9CACB"/>
<path d="M14.1777 22.8622C14.2311 22.7022 14.2755 22.5333 14.3288 22.3733C14.3644 22.2666 14.4088 22.1511 14.4444 22.0444C14.4888 21.9377 14.5688 21.8844 14.6844 21.9022C14.7466 21.9111 14.7911 21.9377 14.8088 22.0088C14.8711 22.2133 14.9511 22.4177 15.0222 22.6222C15.04 22.6755 15.0666 22.7288 15.0933 22.7822C15.0933 22.8088 15.0844 22.8444 15.0755 22.8711C15.04 22.8711 15.0044 22.8711 14.9688 22.8711C14.9422 22.8444 14.9155 22.8177 14.8977 22.7822C14.8177 22.5511 14.7644 22.3022 14.64 22.0711C14.5155 22.3111 14.4266 22.5511 14.3644 22.8088C14.32 22.88 14.2488 22.8622 14.1777 22.8622Z" fill="#090909"/>
<path d="M5.38723 21.9111C5.51167 21.9111 5.63612 21.9111 5.76056 21.9111C6.00056 21.9111 6.09834 22.0178 6.08056 22.2578C6.08056 22.2756 6.08056 22.2933 6.08056 22.32C5.96501 22.56 5.74278 22.4978 5.52945 22.5067V22.8444C5.48501 22.8444 5.43167 22.8444 5.38723 22.8533C5.38723 22.8444 5.38723 22.8356 5.37834 22.8356C5.37834 22.7556 5.37834 22.6756 5.37834 22.5956C5.39612 22.4978 5.36056 22.3911 5.45834 22.3289C5.57389 22.3289 5.68056 22.3289 5.79612 22.3289C5.88501 22.3289 5.93834 22.2756 5.93834 22.2044C5.93834 22.1244 5.90278 22.08 5.80501 22.08C5.67167 22.08 5.52945 22.08 5.39612 22.08C5.34278 22.0178 5.35167 21.9644 5.39612 21.9022" fill="#040404"/>
<path d="M17.778 22.6044C17.8402 22.5511 17.8224 22.4978 17.778 22.4533C17.7246 22.4 17.7246 22.3555 17.778 22.2933C17.8046 22.2667 17.8313 22.2311 17.8402 22.1955C17.858 22.1155 17.9202 22.1155 17.9824 22.1155C18.0535 22.2044 18.1602 22.2133 18.258 22.1955C18.3291 22.1867 18.3824 22.1955 18.4713 22.2489C18.3468 22.2489 18.258 22.2489 18.1602 22.2489C18.0802 22.2489 18.0446 22.2844 18.0535 22.3644C18.0357 22.4089 18.018 22.4444 18.018 22.4889C18.018 22.6222 18.018 22.7555 18.018 22.8889C17.9913 22.8978 17.9557 22.9067 17.9291 22.9155C17.8846 22.9867 17.8313 22.9955 17.7691 22.9511C17.7246 22.9155 17.6713 22.88 17.6357 22.8355C17.5557 22.7467 17.4668 22.7378 17.3691 22.8178C17.3513 22.8355 17.3157 22.8444 17.2891 22.8622V22.4978C17.538 22.48 17.5557 22.4978 17.6446 22.6844C17.6624 22.72 17.6802 22.7555 17.698 22.7911C17.7513 22.8889 17.7691 22.8978 17.9024 22.8533C17.8668 22.7733 17.8402 22.7022 17.8046 22.6222" fill="#D3D3D3"/>
<path d="M6.08059 22.3555C6.12799 22.3259 6.16947 22.2755 6.20503 22.2044H6.40947C6.40947 22.4177 6.40947 22.6311 6.40947 22.8444C6.36503 22.8444 6.32059 22.8444 6.27614 22.8355C6.05392 22.7555 5.82281 22.7822 5.60059 22.8177C5.60059 22.7911 5.60059 22.7644 5.60059 22.7466C5.60059 22.6222 5.61836 22.6133 5.74281 22.6133C5.76059 22.6133 5.78725 22.6133 5.80503 22.6133C5.95614 22.5955 6.06281 22.5066 6.08947 22.3733" fill="#C9CACB"/>
<path d="M19.8673 22.8444V22.0977C19.9206 22.0711 19.9562 22.08 19.9828 22.1422C20.054 22.3377 20.134 22.5244 20.214 22.72C20.2495 22.8177 20.3117 22.8888 20.4273 22.88C20.534 22.88 20.614 22.8088 20.6228 22.7022C20.6228 22.64 20.6228 22.5688 20.6228 22.5066C20.6762 22.5066 20.7295 22.5066 20.7828 22.5066C20.7828 22.6311 20.7917 22.7466 20.8006 22.8711C20.7562 22.8622 20.7028 22.8444 20.6495 22.8355C20.6495 22.8355 20.6495 22.8355 20.6317 22.8355C20.4362 23.0044 20.3206 22.9955 20.1606 22.7822C20.1162 22.72 20.0806 22.6577 19.9917 22.6933C19.974 22.7555 19.9651 22.8444 19.8584 22.8355" fill="#D7D7D7"/>
<path d="M24.4272 21.9111H25.0494C25.0494 21.9733 25.0494 22.0177 25.0583 22.0889H24.8183V22.8177C24.7738 22.8888 24.7027 22.8622 24.6405 22.8444C24.6405 22.6311 24.6405 22.4177 24.6405 22.2133C24.6405 22.1777 24.6405 22.1422 24.6405 22.1066C24.5427 22.1066 24.4716 22.0977 24.3916 22.0889C24.4005 22.0355 24.4094 21.9733 24.4272 21.92" fill="#020101"/>
<path d="M15.3249 22.5955C15.3516 22.4888 15.3249 22.3999 15.2538 22.3111C15.1649 22.1866 15.0938 22.0622 15.0049 21.9288C15.156 21.8844 15.1649 21.8933 15.236 22.0088C15.2893 22.0977 15.3427 22.1866 15.4049 22.2933C15.4316 22.2488 15.4582 22.2222 15.476 22.1955C15.5116 22.1333 15.5471 22.0622 15.5916 21.9999C15.6627 21.8933 15.6627 21.8933 15.8138 21.9199C15.7249 22.0711 15.636 22.2133 15.556 22.3555C15.5027 22.3911 15.4849 22.4444 15.4849 22.5155C15.4849 22.6311 15.4849 22.7466 15.476 22.8622C15.476 22.8622 15.396 22.8622 15.3516 22.8622C15.3427 22.7733 15.3249 22.6844 15.316 22.5955" fill="#090909"/>
<path d="M12.4444 21.9111C12.6667 21.9111 12.88 21.9111 13.1022 21.9111C13.1022 21.9644 13.1022 22.0266 13.1022 22.08H12.8533C12.8533 22.1333 12.8533 22.1688 12.8533 22.1955C12.8533 22.4088 12.8533 22.6222 12.8533 22.8355C12.8 22.8355 12.7467 22.9066 12.6933 22.8355V22.0889H12.4355V21.9111H12.4444Z" fill="#030303"/>
<path d="M24.0006 22.6311C24.0184 22.5599 24.045 22.4888 24.0628 22.4177C24.1873 22.4266 24.3117 22.4355 24.4362 22.4533C24.5073 22.4622 24.5517 22.5155 24.5517 22.5866C24.5517 22.6577 24.5517 22.7377 24.5517 22.8088C24.4362 22.8088 24.3117 22.8088 24.1962 22.8088C24.1162 22.8088 24.0273 22.7911 23.9473 22.7822C23.965 22.7288 23.9917 22.6844 24.0095 22.6311" fill="#C9CACB"/>
<path d="M16.3024 22.2933C16.3647 22.4711 16.4269 22.6578 16.4891 22.8356C16.4802 22.8356 16.4624 22.8356 16.4624 22.8356C16.3469 22.7644 16.2136 22.7822 16.0891 22.8089C16.0269 22.8178 15.9558 22.8444 15.8936 22.8622C15.938 22.7378 15.9913 22.6044 16.0358 22.48C16.098 22.48 16.1336 22.4533 16.1424 22.4C16.1602 22.3022 16.2224 22.2933 16.3024 22.2933Z" fill="#CECECE"/>
<path d="M22.0449 22.5956C22.0982 22.5956 22.1515 22.5956 22.196 22.5956C22.196 22.6756 22.2138 22.7556 22.2138 22.8356C22.1249 22.8356 22.0537 22.8444 21.9737 22.9067C21.876 22.9867 21.7604 22.9778 21.6538 22.8889C21.6271 22.8622 21.6004 22.8356 21.5738 22.8178C21.5026 22.7556 21.4404 22.7556 21.3604 22.8178C21.3249 22.8533 21.2893 22.8889 21.2538 22.9244C21.1826 22.9778 21.1382 22.96 21.0938 22.8622C21.0938 22.8622 21.0938 22.8622 21.1026 22.8533H21.2538C21.2538 22.8 21.2626 22.7556 21.2715 22.72C21.2893 22.7289 21.2982 22.7378 21.3249 22.7556C21.3515 22.6311 21.2982 22.5067 21.396 22.3911C21.4226 22.4533 21.4404 22.4978 21.4582 22.5511C21.476 22.5956 21.5026 22.64 21.5649 22.6311C21.5915 22.6844 21.6182 22.7467 21.6538 22.8C21.7071 22.8711 21.7871 22.8889 21.8671 22.8711C21.9471 22.8533 21.9915 22.7911 22.0093 22.7111C22.0093 22.6756 22.0182 22.6311 22.0271 22.5956" fill="#D3D3D3"/>
<path d="M8.73776 22.6844C8.7911 22.6844 8.84443 22.6933 8.89777 22.7022C8.89777 22.7466 8.89777 22.7911 8.89777 22.8355C8.81777 22.8355 8.75554 22.8533 8.68443 22.8977C8.5511 22.9866 8.50665 22.9866 8.37332 22.8977C8.36443 22.8977 8.34665 22.8799 8.33777 22.8711C8.22221 22.7822 8.14221 22.7911 8.02665 22.8711C7.98221 22.9066 7.92888 22.9422 7.87554 22.9599C7.75999 22.9866 7.66221 22.8977 7.65332 22.7644C7.6711 22.7822 7.68888 22.8088 7.71554 22.8266C7.77777 22.8888 7.84888 22.8888 7.91999 22.8622C7.99999 22.8355 8.02665 22.7644 8.03554 22.6844C8.03554 22.5955 8.03554 22.5066 8.03554 22.4177C8.07999 22.4177 8.11554 22.4177 8.13332 22.4799C8.1511 22.5155 8.21332 22.5422 8.24888 22.5688C8.24888 22.5866 8.26665 22.6133 8.27554 22.6311C8.26665 22.6488 8.24888 22.6577 8.23999 22.6755C8.25777 22.6755 8.26665 22.6755 8.28443 22.6666C8.3111 22.7111 8.32888 22.7466 8.35554 22.7911C8.4711 22.9511 8.6311 22.9244 8.7111 22.7377C8.7111 22.7199 8.71999 22.7111 8.72888 22.6933" fill="#CECECE"/>
<path d="M24.8799 22.72C24.8888 22.5689 24.8977 22.4177 24.9066 22.2755C24.9066 22.1955 24.9243 22.1866 25.0399 22.1955C25.0932 22.24 25.0132 22.3644 25.1466 22.3555C25.1466 22.4355 25.1466 22.5155 25.1466 22.5955C25.1466 22.7644 25.2354 22.8533 25.4132 22.8622C25.511 22.8622 25.5999 22.8533 25.6977 22.8444C25.6977 22.8622 25.6977 22.88 25.6977 22.8977C25.5288 23.0044 25.3065 22.9777 25.1643 22.8355C25.0843 22.7555 24.9954 22.72 24.8799 22.72Z" fill="#C9CACB"/>
<path d="M18.6664 22.4C18.7375 22.3733 18.7998 22.3822 18.862 22.4177C18.862 22.4533 18.8442 22.4889 18.8353 22.5244C18.7998 22.7111 18.8709 22.8266 19.0664 22.8533C19.1109 22.8533 19.1553 22.8533 19.1998 22.8533C19.3153 22.8533 19.422 22.8533 19.5375 22.8533C19.5464 22.9155 19.5375 22.9511 19.4664 22.9511C19.2709 22.9511 19.0664 22.9777 18.8798 22.88C18.8353 22.8533 18.7731 22.8622 18.7198 22.8533C18.6931 22.7822 18.6664 22.7111 18.6309 22.64C18.6042 22.5866 18.5775 22.5333 18.542 22.48C18.5864 22.4533 18.622 22.4177 18.6664 22.3911" fill="#CECECE"/>
<path d="M24.0005 22.6311C23.9827 22.6844 23.956 22.7289 23.9383 22.7822C23.7338 22.9778 23.3872 23.0044 23.1472 22.8267C23.0049 22.72 22.9872 22.72 22.8538 22.8444C22.7738 22.9155 22.6849 22.9511 22.5783 22.96C22.4983 22.9689 22.4183 22.96 22.3383 22.96C22.2672 22.96 22.2227 22.9244 22.2316 22.8533C22.3472 22.8533 22.4716 22.8622 22.5872 22.8622C22.7383 22.8622 22.8538 22.7911 22.9249 22.6578C22.9427 22.6667 22.9605 22.6933 22.9694 22.6933C23.0049 22.6755 23.0494 22.6489 23.0849 22.6311C23.1472 22.6933 23.2094 22.7822 23.2894 22.8267C23.5383 22.9511 23.796 22.8711 23.9472 22.64C23.9649 22.64 23.9827 22.64 24.0005 22.64" fill="#D3D3D3"/>
<path d="M14.1777 22.8622C14.2488 22.8622 14.32 22.88 14.3644 22.8089C14.4355 22.8089 14.4533 22.7644 14.48 22.7111C14.5244 22.6044 14.5777 22.4978 14.6311 22.3644C14.6844 22.4356 14.7288 22.4711 14.7466 22.5156C14.7822 22.6044 14.8088 22.6933 14.8444 22.7822C14.7911 22.8444 14.7111 22.8444 14.64 22.8444C14.5244 22.8444 14.4177 22.8267 14.3288 22.9333C14.2755 22.9956 14.2133 22.96 14.1777 22.8622Z" fill="#C9CACB"/>
<path d="M16.6578 22.8356C16.64 22.7733 16.6223 22.7111 16.6045 22.6578C16.6223 22.64 16.64 22.6133 16.6578 22.5956C16.7645 22.5956 16.8712 22.5778 16.9778 22.64C16.9778 22.64 17.0134 22.6311 17.0312 22.6222C17.0578 22.6222 17.0845 22.6222 17.12 22.6222C17.12 22.6667 17.12 22.7111 17.12 22.7556C17.12 22.8711 17.1467 22.88 17.2712 22.8356C17.2712 22.8356 17.2356 22.9156 17.2178 22.9511C17.1823 22.9333 17.1289 22.9244 17.1112 22.8889C17.0756 22.8444 17.0312 22.8356 16.9778 22.8356C16.8712 22.8356 16.7645 22.8356 16.6578 22.8356Z" fill="#CECECE"/>
<path d="M14.8443 22.7822C14.8087 22.6933 14.782 22.6044 14.7465 22.5156C14.7287 22.4711 14.6843 22.4267 14.6309 22.3644C14.5687 22.4978 14.5243 22.6044 14.4798 22.7111C14.462 22.7644 14.4443 22.8178 14.3643 22.8089C14.4265 22.5511 14.5154 22.3111 14.6398 22.0711C14.7554 22.3022 14.8087 22.5422 14.8976 22.7822C14.8798 22.7822 14.862 22.7822 14.8443 22.7822Z" fill="#DCDCDC"/>
<path d="M15.7777 22.6577C15.7777 22.6577 15.7599 22.72 15.7599 22.7555C15.7599 22.7911 15.7599 22.8266 15.7599 22.8711C15.6799 22.8977 15.6355 22.8355 15.5732 22.8177C15.5821 22.6844 15.591 22.5511 15.5999 22.4266C15.6621 22.3466 15.7244 22.2666 15.7866 22.1777C15.8044 22.1511 15.831 22.1333 15.8755 22.08V22.2666C15.831 22.3733 15.7866 22.4888 15.7421 22.5955C15.7244 22.6311 15.7421 22.6488 15.7777 22.6577Z" fill="#CECECE"/>
<path d="M18.0978 22.8711C18.0978 22.8711 18.16 22.8177 18.1511 22.7644C18.1511 22.6844 18.1511 22.6044 18.1511 22.5155H18.3911C18.4444 22.6222 18.5066 22.7377 18.5689 22.8533C18.4889 22.8977 18.4711 22.8177 18.4089 22.7911C18.3111 22.8177 18.2133 22.8444 18.1155 22.8711C18.1155 22.8711 18.0978 22.8711 18.0889 22.8711" fill="#D3D3D3"/>
<path d="M15.3248 22.5955C15.3337 22.6844 15.3515 22.7733 15.3603 22.8622C15.2803 22.8622 15.1915 22.8977 15.1381 22.8089C15.1026 22.6577 15.0759 22.4977 15.0403 22.3466C15.0315 22.3022 15.0226 22.2489 15.0137 22.2044C15.1381 22.2755 15.1915 22.3911 15.2181 22.5155C15.2359 22.5777 15.2537 22.6044 15.3159 22.5955" fill="#CECECE"/>
<path d="M12.4355 22.72C12.4355 22.5867 12.4355 22.4444 12.4355 22.3111C12.4355 22.2222 12.4533 22.2222 12.5778 22.2133C12.5867 22.3822 12.6044 22.5511 12.6133 22.72C12.5511 22.72 12.4889 22.72 12.4355 22.72Z" fill="#C9CACB"/>
<path d="M9.23612 22.8089C9.23612 22.8089 9.28056 22.8533 9.30723 22.8533C9.49389 22.8533 9.68945 22.8889 9.86723 22.7822C9.885 22.8267 9.885 22.8622 9.84056 22.8889C9.645 22.9778 9.44945 23.0133 9.245 22.9156C9.17389 22.88 9.12056 22.8533 9.04945 22.9245C8.98723 22.9956 8.96056 22.9778 8.90723 22.8622C8.97834 22.88 9.03167 22.88 9.06723 22.8089C9.12056 22.8089 9.17389 22.8089 9.23612 22.8089Z" fill="#C9CACB"/>
<path d="M6.08041 22.3555C6.05374 22.4889 5.94707 22.5867 5.79596 22.5955C5.77819 22.5955 5.75152 22.5955 5.73374 22.5955C5.6093 22.5955 5.60041 22.6133 5.59152 22.7289C5.59152 22.7555 5.59152 22.7822 5.59152 22.8C5.56485 22.8089 5.54707 22.8178 5.5293 22.8355V22.4978C5.73374 22.4978 5.96485 22.5511 6.08041 22.3111C6.08041 22.32 6.08041 22.3378 6.08041 22.3467" fill="#DCDCDC"/>
<path d="M26.1514 22.8355V22.5777C26.3291 22.5422 26.3469 22.5511 26.4091 22.7111C26.4269 22.7555 26.4536 22.7911 26.4803 22.8355C26.4358 22.8355 26.3914 22.8355 26.3647 22.7822C26.3469 22.7466 26.3203 22.72 26.2936 22.6844C26.2225 22.7288 26.2491 22.8444 26.1514 22.8355Z" fill="#E1E1E1"/>
<path d="M13.8932 22.8533C13.8932 22.8533 13.8932 22.8888 13.8932 22.8977C13.8754 22.9155 13.8665 22.9511 13.8487 22.9511C13.7598 22.9511 13.6709 22.9511 13.5821 22.9511C13.5109 22.9511 13.5021 22.8888 13.4932 22.8355C13.6265 22.8355 13.7509 22.8444 13.8843 22.8533" fill="#C9CACB"/>
<path d="M15.5998 22.4178C15.5909 22.5511 15.5821 22.6844 15.5732 22.8089C15.5732 22.8622 15.5287 22.8711 15.4932 22.8622C15.4932 22.7466 15.5021 22.6311 15.5021 22.5155C15.5021 22.4533 15.5109 22.4 15.5732 22.3555C15.5821 22.3733 15.5998 22.3911 15.6087 22.4089" fill="#E4E4E4"/>
<path d="M6.80869 22.8444C6.80869 22.7911 6.80869 22.7466 6.80869 22.6755C6.85314 22.6755 6.88869 22.6755 6.94203 22.6755C6.94203 22.7289 6.94203 22.7733 6.95092 22.8178C6.90647 22.8444 6.86203 22.9244 6.7998 22.8444" fill="#090909"/>
<path d="M10.3027 22.8267C10.3027 22.8267 10.3027 22.8533 10.3027 22.8622C10.3027 22.9333 10.2671 22.96 10.196 22.9511C10.1249 22.9511 10.116 22.8889 10.1249 22.8267C10.1782 22.8267 10.2405 22.8267 10.2938 22.8267" fill="#C9CACB"/>
<path d="M14.9693 22.8622C14.9693 22.8622 15.0404 22.8622 15.076 22.8622C15.076 22.8888 15.0849 22.9155 15.0938 22.9422C15.0493 22.9422 14.996 22.9422 14.9516 22.9333C14.916 22.9155 14.9338 22.88 14.9604 22.8622" fill="#C9CACB"/>
<path d="M18.0978 22.8711C18.0978 22.8711 18.1156 22.8711 18.1245 22.8711C18.1334 22.9422 18.1156 22.9778 18.0356 22.9422C17.9911 22.9244 17.9556 22.9155 17.9111 22.8978C17.9378 22.8889 17.9734 22.88 18 22.8711C18.0267 22.8711 18.0622 22.8711 18.0889 22.8711" fill="#C9CACB"/>
<path d="M18.5692 22.8533C18.6226 22.8533 18.6759 22.8622 18.7292 22.8711C18.7292 22.96 18.6581 22.9422 18.6048 22.9333C18.5514 22.9333 18.5514 22.8978 18.5692 22.8533Z" fill="#D3D3D3"/>
<path d="M25.8496 22.8355C25.8585 22.7555 25.9118 22.7466 25.9829 22.7466C25.9829 22.7733 25.9829 22.8089 25.9918 22.8355C25.9474 22.8355 25.8941 22.8355 25.8496 22.8355Z" fill="#C9CACB"/>
<path d="M5.38672 22.8533C5.43116 22.8533 5.4845 22.8533 5.52894 22.8444C5.52894 22.8889 5.52894 22.9244 5.47561 22.9244C5.42227 22.9244 5.38672 22.9155 5.38672 22.8533Z" fill="#C9CACB"/>
<path d="M15.7598 22.8622C15.8042 22.8622 15.8487 22.8622 15.902 22.8622C15.902 22.8977 15.902 22.9333 15.8575 22.9333C15.8131 22.9333 15.7687 22.9333 15.7687 22.8711" fill="#CECECE"/>
<path d="M15.3604 22.8711C15.3604 22.8711 15.4404 22.8711 15.4848 22.8711C15.4581 22.8889 15.4404 22.9155 15.4137 22.9333C15.3959 22.9155 15.3781 22.8889 15.3604 22.8711Z" fill="#E4E4E4"/>
<path d="M20.9873 22.8355C20.9873 22.8355 21.0673 22.8177 21.1117 22.8088C21.1117 22.8266 21.1206 22.8355 21.1295 22.8533C21.1295 22.8533 21.1295 22.8533 21.1206 22.8622C21.0762 22.8533 21.0406 22.8444 20.9962 22.8266" fill="#D3D3D3"/>
<path d="M16.5156 22.8711C16.5156 22.8711 16.5956 22.8711 16.6401 22.8711C16.6223 22.8889 16.6134 22.9244 16.5867 22.9333C16.5423 22.9422 16.5245 22.9155 16.5156 22.88" fill="#CECECE"/>
<path d="M26 22.8533C26 22.8533 26.0889 22.8533 26.1244 22.8533C26.1244 22.8978 26.0978 22.9244 26.0622 22.9155C26.0356 22.9155 26.0178 22.8711 26 22.8444" fill="#E1E1E1"/>
<path d="M6.44434 22.8711C6.44434 22.8711 6.50656 22.8711 6.53322 22.8711C6.51545 22.8889 6.49767 22.9066 6.48878 22.9333C6.471 22.9155 6.46211 22.8978 6.44434 22.88" fill="#CECECE"/>
<path d="M7.57324 22.6933C7.57324 22.6933 7.59991 22.6667 7.6088 22.6578C7.61769 22.6844 7.62658 22.72 7.64435 22.7467C7.61769 22.7289 7.59991 22.7111 7.57324 22.6844" fill="#E1E1E1"/>
<path d="M10 22.72C10 22.72 10.0267 22.6933 10.0444 22.6755C10.0444 22.6933 10.0622 22.7111 10.0622 22.72C10.0444 22.72 10.0178 22.72 10 22.72Z" fill="#C9CACB"/>
<path d="M19.7071 22.8355C19.7071 22.8355 19.7249 22.8533 19.7338 22.8622C19.7249 22.8622 19.716 22.8622 19.6982 22.8622C19.6982 22.8533 19.6982 22.8444 19.6982 22.8355" fill="#353535"/>
<path d="M5.37849 22.0889C5.51182 22.0889 5.65404 22.0889 5.78738 22.0889C5.88515 22.0889 5.9296 22.1333 5.92071 22.2133C5.92071 22.2844 5.85849 22.3378 5.77849 22.3378C5.66293 22.3378 5.55626 22.3378 5.44071 22.3378C5.37849 22.2844 5.42293 22.2489 5.46737 22.2489C5.53849 22.24 5.61849 22.2489 5.6896 22.2489C5.6896 22.24 5.6896 22.2222 5.6896 22.2133C5.61849 22.2133 5.54737 22.2133 5.46737 22.2133C5.38737 22.2133 5.35182 22.1778 5.36071 22.0978" fill="#ECECEC"/>
<path d="M11.6093 22.8355C11.556 22.8711 11.4938 22.8711 11.4404 22.8355C11.4404 22.6133 11.4404 22.3911 11.4404 22.1688C11.4404 22.1422 11.4404 22.1066 11.4404 22.08C11.4493 22 11.4849 21.9288 11.556 21.9022C11.6271 21.8755 11.7782 21.9377 11.8138 22.0088C11.8493 22.08 11.876 22.1511 11.9027 22.2133C11.9649 22.3733 12.0182 22.5244 12.0804 22.6844C12.0804 22.7022 12.1071 22.7111 12.1427 22.7377C12.1604 22.6933 12.1871 22.6488 12.1871 22.6133C12.1871 22.4088 12.1871 22.1955 12.1871 21.9911C12.196 21.9733 12.2138 21.9555 12.2227 21.9377H12.3471C12.3471 22.0977 12.3471 22.2577 12.3471 22.4177C12.3471 22.5066 12.3471 22.5955 12.3471 22.6933C12.3471 22.7733 12.3027 22.8355 12.2227 22.8711C12.1427 22.9066 12.0449 22.8711 11.9915 22.8088C11.956 22.7644 11.9382 22.72 11.9204 22.6666C11.8493 22.4888 11.7782 22.32 11.7071 22.1422C11.6982 22.1155 11.6715 22.0888 11.6271 22.0355C11.6093 22.0977 11.5915 22.1333 11.5915 22.16C11.5915 22.3911 11.5915 22.6133 11.6093 22.8444" fill="#070707"/>
<path d="M10.587 22.8089C10.5425 22.88 10.4714 22.8533 10.4092 22.8711C10.4625 22.7022 10.507 22.5333 10.5603 22.3644C10.5958 22.2666 10.6403 22.1689 10.6758 22.0711C10.7203 21.9466 10.7825 21.8933 10.907 21.9022C10.9781 21.9022 11.0225 21.9378 11.0492 22.0178C11.1381 22.2933 11.2447 22.5689 11.3425 22.8444C11.2181 22.88 11.2092 22.88 11.1292 22.7822C11.0492 22.5422 10.9781 22.3022 10.8625 22.0711C10.7647 22.32 10.6581 22.56 10.587 22.8089Z" fill="#090909"/>
<path d="M10.3027 22.8267C10.2493 22.8267 10.1871 22.8267 10.1338 22.8267C10.1338 22.5244 10.1338 22.2222 10.1338 21.9289C10.1871 21.9289 10.2316 21.9289 10.3027 21.9289V22.8267Z" fill="#030303"/>
<path d="M12.2224 21.9378C12.2224 21.9378 12.1957 21.9733 12.1868 21.9911C12.1868 21.9733 12.169 21.9645 12.1602 21.9467C12.1779 21.9467 12.1957 21.9378 12.2224 21.9289" fill="#353535"/>
<path d="M13.894 22.8533C13.7607 22.8533 13.6363 22.8444 13.5029 22.8355V22.6844C13.6007 22.6844 13.6896 22.6844 13.7785 22.6844C13.9118 22.6844 13.9563 22.6311 13.9652 22.5066C13.9652 22.32 13.9652 22.1333 13.9652 21.9377C14.0185 21.9377 14.0629 21.9377 14.1074 21.9377C14.1074 22.1333 14.1074 22.3289 14.1074 22.5244C14.1074 22.6844 14.0452 22.8 13.8852 22.8622" fill="#090909"/>
<path d="M12.8711 22.2044C12.8711 22.2044 12.8711 22.1333 12.8711 22.0889H13.12C13.0844 22.2222 12.9778 22.1955 12.88 22.2044" fill="#F2F2F3"/>
<path d="M16.5421 22.1778H17.0221C17.0221 22.1778 17.0221 22.08 17.0221 22.0178C17.0221 21.9467 17.0576 21.9289 17.1199 21.9378V21.9644C17.1199 22.1067 17.1199 22.2489 17.1199 22.3911C17.1021 22.4178 17.0754 22.4356 17.0665 22.4622C17.0488 22.4889 17.0488 22.5156 17.031 22.5422C16.9243 22.5422 16.8176 22.5244 16.7021 22.5156C16.6932 22.5156 16.6754 22.5511 16.6576 22.5689C16.631 22.5067 16.5954 22.4444 16.5688 22.3822C16.5599 22.3111 16.551 22.24 16.5332 22.1689" fill="#CECECE"/>
<path d="M15.7784 22.6578C15.7784 22.6578 15.7251 22.64 15.7429 22.5956C15.7873 22.4889 15.8318 22.3733 15.8762 22.2667C15.8851 22.2667 15.9029 22.2667 15.9118 22.2667C15.8673 22.4 15.8229 22.5244 15.7784 22.6578Z" fill="#E4E4E4"/>
<path d="M16.5778 22.3822C16.6045 22.4444 16.6401 22.5066 16.6667 22.5689C16.6667 22.5778 16.6667 22.5866 16.6667 22.5955C16.649 22.6133 16.6312 22.64 16.6134 22.6578C16.5778 22.5689 16.5512 22.48 16.5156 22.3911C16.5423 22.3911 16.5601 22.3911 16.5867 22.3911" fill="#E4E4E4"/>
<path d="M15.0228 22.2044C15.0228 22.2044 15.005 22.1867 14.9961 22.1689C14.9961 22.1778 15.0139 22.1867 15.0228 22.2044Z" fill="#CECECE"/>
<path d="M7.57389 22.5689C7.46723 22.5511 7.51167 22.4356 7.44945 22.3822C7.44056 22.3733 7.44945 22.3467 7.44056 22.32C7.37834 22.1333 7.35167 22.1156 7.15612 22.1067C7.06723 22.1067 6.98723 22.0889 6.90723 22.08C6.90723 22.0533 6.90723 22.0178 6.90723 21.9911C6.94278 21.9911 6.98723 21.9911 7.02278 21.9911C7.15612 22 7.28945 21.9911 7.39612 21.9022C7.405 21.9022 7.42278 21.9022 7.43167 21.9022C7.36945 22 7.44945 22.0889 7.46723 22.1778C7.50278 22.3111 7.53834 22.4356 7.57389 22.5689Z" fill="#E1E1E1"/>
<path d="M8.27583 22.5689C8.27583 22.5689 8.17806 22.5155 8.16028 22.48C8.13361 22.4266 8.10694 22.4177 8.0625 22.4177V22.0889C8.13361 22.0622 8.15139 22.1066 8.16028 22.1511C8.19583 22.2844 8.24028 22.4266 8.27583 22.56" fill="#E1E1E1"/>
<path d="M8.30226 22.6577C8.30226 22.6577 8.27559 22.6577 8.25781 22.6666C8.2667 22.6489 8.28448 22.64 8.29337 22.6222C8.29337 22.6311 8.29337 22.64 8.29337 22.6489" fill="#E1E1E1"/>
<path d="M7.59991 22.5956C7.59991 22.5956 7.58213 22.5689 7.57324 22.56C7.58213 22.5689 7.59102 22.5867 7.59991 22.5956Z" fill="#E1E1E1"/>
<path d="M22.4709 22.6844C22.4709 22.6844 22.4087 22.6844 22.3643 22.6844C22.3643 22.4888 22.3643 22.2933 22.3643 22.1066C22.3643 22.1066 22.382 22.0888 22.3909 22.08C22.462 22.08 22.542 22.08 22.6131 22.08C22.702 22.08 22.7643 22.1244 22.782 22.1955C22.8265 22.32 22.8265 22.4444 22.782 22.56C22.7731 22.5866 22.7287 22.6044 22.6931 22.6222C22.702 22.5422 22.7109 22.4622 22.7198 22.3822C22.7376 22.1866 22.6665 22.1066 22.4531 22.2133C22.4443 22.3644 22.4354 22.5155 22.4798 22.6666" fill="#E9E9E9"/>
<path d="M22.4711 22.6845C22.4355 22.5333 22.4355 22.3822 22.4444 22.2311C22.6577 22.1245 22.7288 22.2045 22.7111 22.4C22.7111 22.48 22.6933 22.56 22.6844 22.64C22.6666 22.6578 22.6488 22.6845 22.6222 22.6845C22.5688 22.6845 22.5155 22.6845 22.4622 22.6845" fill="#CECECE"/>
<path d="M22.3821 22.0889C22.3821 22.0889 22.3644 22.1066 22.3555 22.1155C22.3555 22.1155 22.3732 22.0978 22.3821 22.0889Z" fill="#B8B9BC"/>
<path d="M18.036 22.3467C18.036 22.2667 18.0626 22.2311 18.1426 22.2311C18.2404 22.2311 18.3293 22.2311 18.4537 22.2311C18.3737 22.1778 18.3115 22.1689 18.2404 22.1778C18.1426 22.1956 18.0448 22.1867 17.9648 22.0978C17.9648 22.0889 17.9648 22.08 17.9648 22.0711C18.116 22.0711 18.2671 22.0711 18.4182 22.0711C18.5337 22.0711 18.5426 22.0978 18.5426 22.2044C18.5426 22.2844 18.5071 22.3111 18.436 22.3111C18.356 22.3111 18.2848 22.3111 18.2048 22.3111C18.1426 22.3111 18.0893 22.32 18.0271 22.3289" fill="#F2F2F2"/>
<path d="M24.3916 22.08C24.4716 22.08 24.5516 22.0888 24.6405 22.0977C24.6405 22.1333 24.6405 22.1688 24.6405 22.2044C24.5783 22.1955 24.5249 22.1777 24.4627 22.1777C24.4005 22.1777 24.4005 22.1244 24.4005 22.08" fill="#EFEFEF"/>
<path d="M25.369 22.4889C25.369 22.6044 25.3867 22.6311 25.5023 22.6311C25.609 22.6311 25.6356 22.6044 25.6356 22.4978C25.6356 22.3822 25.6179 22.3556 25.5023 22.3556C25.3867 22.3556 25.369 22.3733 25.369 22.4889ZM25.2979 22.2667C25.3956 22.2667 25.4845 22.2667 25.5645 22.2667C25.6534 22.2667 25.7067 22.3111 25.7245 22.4C25.7245 22.4622 25.7245 22.5244 25.7245 22.5778C25.7156 22.6489 25.6712 22.6933 25.5912 22.7022C25.529 22.7022 25.4667 22.7022 25.4134 22.7022C25.3423 22.7022 25.3067 22.6578 25.3067 22.5867C25.3067 22.4889 25.3067 22.3911 25.3067 22.2756" fill="#E9E9E9"/>
<path d="M17.1202 22.3822C17.1202 22.24 17.1202 22.0978 17.1202 21.9555C17.1291 21.9555 17.138 21.9378 17.1469 21.9289C17.1824 21.9289 17.2269 21.9289 17.2624 21.9289C17.2624 22.0533 17.2624 22.1867 17.2713 22.3111C17.4936 22.32 17.5113 22.3111 17.5913 22.1333C17.618 22.0711 17.6447 22.0089 17.6713 21.9378C17.7335 21.9378 17.7869 21.9289 17.8491 21.92C17.7958 22.08 17.7247 22.2311 17.6091 22.3555C17.6624 22.4355 17.7158 22.5155 17.778 22.5955C17.8136 22.6755 17.8402 22.7466 17.8758 22.8266C17.7424 22.8711 17.7247 22.8622 17.6713 22.7644C17.6535 22.7289 17.6358 22.6933 17.618 22.6578C17.5291 22.4622 17.5113 22.4533 17.2624 22.4711V22.8355C17.138 22.8889 17.1202 22.8711 17.1113 22.7555C17.1113 22.7111 17.1113 22.6667 17.1113 22.6222C17.1113 22.5422 17.1113 22.4622 17.1113 22.3822" fill="#090909"/>
<path d="M17.6804 21.9466C17.6537 22.0089 17.627 22.08 17.6004 22.1422C17.5204 22.32 17.5026 22.3289 17.2804 22.32C17.2804 22.1955 17.2804 22.0622 17.2715 21.9377C17.3337 21.9377 17.3693 21.9466 17.3693 22.0177C17.3693 22.0889 17.3693 22.1511 17.3693 22.2311C17.4582 22.2311 17.4759 22.16 17.5115 22.1155C17.547 22.0533 17.5826 22 17.627 21.9466C17.627 21.9466 17.6626 21.9466 17.6804 21.9466Z" fill="#E4E4E4"/>
<path d="M17.1556 21.9377C17.1556 21.9377 17.1378 21.9555 17.1289 21.9644C17.1289 21.9555 17.1289 21.9466 17.1289 21.9377C17.1378 21.9377 17.1467 21.9377 17.1556 21.9377Z" fill="#353535"/>
<path d="M19.5472 22.8622C19.4316 22.8622 19.325 22.8622 19.2094 22.8622C19.165 22.8622 19.1205 22.8622 19.0761 22.8622C18.8805 22.8355 18.8005 22.72 18.845 22.5333C18.845 22.4978 18.8627 22.4622 18.8716 22.4266C18.8983 22.4266 18.9161 22.4178 18.9605 22.4089C18.9339 22.3733 18.9161 22.3555 18.8983 22.3289C18.7827 22.1867 18.8716 21.92 19.0672 21.92C19.2361 21.92 19.3961 21.92 19.565 21.9289C19.565 21.9733 19.565 22.0178 19.565 22.08C19.4316 22.08 19.3072 22.08 19.1739 22.08C19.1205 22.08 19.0672 22.1066 19.0227 22.1333C18.9694 22.1689 18.9783 22.2311 19.0316 22.2666C19.0761 22.2933 19.1205 22.3111 19.1739 22.3111C19.2627 22.3111 19.3605 22.3111 19.4494 22.3111C19.5561 22.3111 19.5561 22.3111 19.565 22.4355C19.4316 22.4355 19.2983 22.4355 19.1561 22.4533C19.0672 22.4533 18.9961 22.5155 18.9872 22.5778C18.9872 22.64 19.0583 22.6844 19.1561 22.6844C19.2894 22.6844 19.4316 22.6844 19.565 22.6844C19.565 22.7378 19.565 22.8 19.565 22.8622" fill="#040404"/>
<path d="M19.5553 22.6933C19.422 22.6933 19.2798 22.6933 19.1464 22.6933C19.0487 22.6933 18.9775 22.64 18.9775 22.5866C18.9775 22.5244 19.0487 22.4711 19.1464 22.4622C19.2798 22.4622 19.4131 22.4533 19.5553 22.4444C19.5642 22.4533 19.582 22.4711 19.5909 22.48C19.5553 22.5422 19.5109 22.5866 19.422 22.5688C19.342 22.56 19.2531 22.5688 19.1731 22.5688C19.1731 22.5777 19.1731 22.5866 19.1731 22.5955C19.262 22.5955 19.3509 22.5955 19.4398 22.5955C19.502 22.5955 19.5464 22.6133 19.5553 22.6844" fill="#E1E1E1"/>
<path d="M19.5562 22.6844C19.5562 22.6133 19.5028 22.5955 19.4406 22.5955C19.3517 22.5955 19.2628 22.5955 19.165 22.5955C19.165 22.5866 19.165 22.5778 19.165 22.5689C19.245 22.5689 19.3339 22.5689 19.4139 22.5689C19.4939 22.5778 19.5473 22.5422 19.5828 22.48C19.5739 22.5511 19.565 22.6222 19.5562 22.6933" fill="#C9CACB"/>
<path d="M23.3873 22.6755C23.4673 22.6755 23.5473 22.6844 23.6273 22.6844C23.6984 22.6844 23.7606 22.64 23.7784 22.5777C23.8051 22.48 23.8051 22.3822 23.814 22.2844C23.814 22.2666 23.7873 22.2489 23.7695 22.2311C23.7695 22.1422 23.7251 22.1066 23.6451 22.0889C23.3517 22.0355 23.2362 22.1333 23.2451 22.4266C23.2451 22.4444 23.2451 22.4533 23.2451 22.4711C23.2451 22.5689 23.2984 22.64 23.3962 22.6755M23.9384 22.6311C23.7873 22.8622 23.5295 22.9422 23.2806 22.8177C23.2006 22.7822 23.1473 22.6933 23.0762 22.6222C23.0762 22.4977 23.0762 22.3733 23.0762 22.2489C23.0851 22.0622 23.2184 21.9288 23.3962 21.9111C23.4851 21.9111 23.5828 21.9111 23.6717 21.9111C23.8228 21.9377 23.9117 22.0711 23.9384 22.2222C23.9651 22.3555 23.9295 22.4889 23.9384 22.6133" fill="#090909"/>
<path d="M6.80924 22.08C6.80924 22.1244 6.80924 22.1689 6.74701 22.1778C6.68479 22.1778 6.65812 22.2222 6.65812 22.2755C6.64924 22.4178 6.64035 22.5511 6.63146 22.6933C6.63146 22.7378 6.64924 22.8 6.57812 22.8089V22.0889C6.65813 22.0889 6.73812 22.08 6.81812 22.0711" fill="#E9E9E9"/>
<path d="M6.89758 21.9911C6.89758 21.9911 6.89758 22.0533 6.89758 22.08C6.86203 22.08 6.83536 22.08 6.7998 22.08C6.7998 22.0266 6.7998 21.9644 6.7998 21.9111C6.87092 21.8933 6.89758 21.9288 6.90647 21.9911" fill="#E4E4E4"/>
<path d="M21.1205 22.8533C21.1205 22.8533 21.1116 22.8266 21.1027 22.8089C21.1027 22.5955 21.1027 22.3733 21.1116 22.16C21.1116 22.1155 21.1116 22.0711 21.1294 22.0266C21.1561 21.9466 21.2094 21.9022 21.2894 21.8933C21.3783 21.8933 21.4494 21.9111 21.485 22C21.5205 22.0889 21.5561 22.1689 21.5827 22.2578C21.6361 22.3733 21.6894 22.4889 21.7339 22.6133C21.7516 22.6578 21.7783 22.7111 21.8494 22.6755V21.9378H22.0183C22.0183 22.16 22.0183 22.3822 22.0183 22.5955C22.0183 22.6311 22.0183 22.6755 22.0005 22.7111C21.9827 22.7911 21.9383 22.8533 21.8583 22.8711C21.7783 22.8889 21.6983 22.8711 21.645 22.8C21.6094 22.7466 21.5827 22.6844 21.5561 22.6311C21.5116 22.5333 21.4583 22.4444 21.4227 22.3378C21.3872 22.24 21.3872 22.1244 21.2805 22.0533C21.2716 22.08 21.2539 22.0889 21.2539 22.0978C21.2539 22.3022 21.2539 22.5066 21.2539 22.72C21.2539 22.7555 21.245 22.8 21.2361 22.8533H21.085H21.1205Z" fill="#070707"/>
<path d="M9.39551 22.5955C9.39551 22.4622 9.39551 22.3289 9.39551 22.2044C9.47551 22.2044 9.55551 22.2044 9.63551 22.2044C9.73329 22.2044 9.75106 22.2222 9.75995 22.3289C9.75995 22.4444 9.75995 22.5511 9.67106 22.6311C9.58217 22.6222 9.49329 22.6133 9.4044 22.6044" fill="#D3D3D3"/>
<path d="M9.67106 22.6311C9.76884 22.5511 9.76884 22.4444 9.75995 22.3289C9.75995 22.2222 9.74217 22.2044 9.63551 22.2044C9.55551 22.2044 9.47551 22.2044 9.39551 22.2044V22.0889C9.46662 22.0889 9.52884 22.0889 9.59106 22.0889C9.74217 22.0889 9.8044 22.1422 9.83106 22.2844C9.83995 22.3644 9.83106 22.4533 9.81329 22.5333C9.79551 22.6044 9.75106 22.6755 9.66217 22.6755C9.66217 22.6578 9.66217 22.64 9.66217 22.6222" fill="#E9E9E9"/>
<path d="M9.67096 22.6311C9.67096 22.6311 9.67096 22.6667 9.67096 22.6844C9.59096 22.6844 9.50207 22.6844 9.4043 22.6933V22.6044C9.49319 22.6133 9.58207 22.6222 9.67096 22.6311Z" fill="#DCDCDC"/>
<path d="M16.3028 22.2933C16.2228 22.2933 16.1606 22.2933 16.1428 22.4C16.1339 22.4533 16.0984 22.4889 16.0361 22.48C16.0717 22.3378 16.0895 22.1955 16.2139 22.0622C16.2495 22.16 16.2761 22.2311 16.3028 22.3022" fill="#ECECEC"/>
<path d="M10.5869 22.8089C10.658 22.56 10.7647 22.32 10.8625 22.0711C10.978 22.3022 11.0491 22.5422 11.1291 22.7822C11.1025 22.7644 11.058 22.7556 11.0491 22.7289C11.0047 22.6489 10.978 22.5689 10.9425 22.4889C10.9336 22.4622 10.898 22.4267 10.8714 22.4267C10.8447 22.4267 10.8091 22.4622 10.8002 22.4889C10.7647 22.5689 10.7291 22.6489 10.6936 22.7378C10.6758 22.7911 10.6491 22.8267 10.5869 22.8178" fill="#D9D9D9"/>
<path d="M21.2891 22.72C21.2891 22.5155 21.2891 22.3111 21.2891 22.0977C21.2891 22.0888 21.298 22.0711 21.3157 22.0533C21.4224 22.1244 21.4224 22.24 21.458 22.3377C21.4935 22.4355 21.5468 22.5333 21.5913 22.6311C21.5291 22.6311 21.5024 22.5955 21.4846 22.5511C21.4668 22.5066 21.4491 22.4533 21.4224 22.3911C21.3246 22.5066 21.378 22.64 21.3513 22.7555C21.3335 22.7377 21.3157 22.7288 21.2979 22.72" fill="#E9E9E9"/>
<path d="M16.667 22.5955C16.667 22.5955 16.667 22.5777 16.667 22.5688C16.6848 22.5511 16.6937 22.5155 16.7114 22.5155C16.8181 22.5155 16.9248 22.5333 17.0403 22.5422C17.0403 22.5688 17.0403 22.6044 17.0403 22.6311C17.0225 22.6311 16.9959 22.6577 16.987 22.6488C16.8892 22.5866 16.7825 22.6044 16.667 22.6044" fill="#C9CACB"/>
<path d="M17.0312 22.6311C17.0312 22.6311 17.0312 22.5689 17.0312 22.5422C17.0401 22.5156 17.049 22.4889 17.0668 22.4622C17.0846 22.4356 17.1024 22.4178 17.1201 22.3911C17.1201 22.4711 17.1201 22.5511 17.1201 22.6311C17.0935 22.6311 17.0668 22.6311 17.0312 22.6311Z" fill="#D3D3D3"/>
<path d="M25.3688 22.4889C25.3688 22.3822 25.3954 22.3555 25.5021 22.3555C25.6177 22.3555 25.6443 22.3822 25.6354 22.4978C25.6354 22.6044 25.6088 22.6311 25.5021 22.6311C25.3865 22.6311 25.3599 22.6044 25.3688 22.4889Z" fill="#CECECE"/>
<path d="M23.3869 22.6755C23.2892 22.6489 23.2447 22.5778 23.2358 22.4711C23.2358 22.4533 23.2358 22.4444 23.2358 22.4266C23.2269 22.1333 23.3425 22.0266 23.6358 22.0889C23.7158 22.1066 23.7603 22.1422 23.7603 22.2311C23.7336 22.2311 23.7158 22.2311 23.6892 22.2311C23.6003 22.2222 23.5025 22.2044 23.4136 22.2044C23.3869 22.2044 23.3425 22.2311 23.3425 22.2489C23.3336 22.3289 23.3247 22.4089 23.3336 22.4889C23.3336 22.5244 23.3692 22.56 23.3869 22.6044C23.3869 22.6311 23.3869 22.6577 23.3869 22.6844" fill="#E9E9E9"/>
<path d="M23.3867 22.6755C23.3867 22.6755 23.3867 22.6222 23.3867 22.5955C23.4223 22.5955 23.4578 22.5955 23.4934 22.5955C23.6178 22.6133 23.7067 22.5689 23.7423 22.4622C23.7245 22.3733 23.7067 22.3022 23.6978 22.2311C23.7245 22.2311 23.7423 22.2311 23.7689 22.2311C23.7867 22.2489 23.8134 22.2666 23.8134 22.2844C23.8134 22.3822 23.8134 22.48 23.7778 22.5777C23.7601 22.64 23.6978 22.6844 23.6267 22.6844C23.5467 22.6844 23.4667 22.6844 23.3867 22.6755Z" fill="#D9D9D9"/>
<path d="M23.6887 22.2311C23.7064 22.3022 23.7153 22.3733 23.7331 22.4622C23.6976 22.5689 23.6176 22.6222 23.4842 22.5956C23.4487 22.5956 23.4131 22.5956 23.3776 22.5956C23.3598 22.56 23.3242 22.5244 23.3242 22.48C23.3242 22.4 23.3242 22.32 23.342 22.24C23.342 22.2222 23.3864 22.1956 23.4131 22.1956C23.5109 22.1956 23.5998 22.2133 23.6887 22.2222" fill="#CECECE"/>
</g>
</g>
<defs>
<clipPath id="clip0_2737_124493">
<rect width="32" height="32" fill="white"/>
</clipPath>
</defs>
</svg>
