<svg width="32" height="32" viewBox="0 0 32 32" fill="none" xmlns="http://www.w3.org/2000/svg">
<g clip-path="url(#clip0_2811_96653)">
<mask id="mask0_2811_96653" style="mask-type:luminance" maskUnits="userSpaceOnUse" x="0" y="0" width="32" height="32">
<path d="M31.9704 0H0V31.9704H31.9704V0Z" fill="white"/>
</mask>
<g mask="url(#mask0_2811_96653)">
<path d="M15.9852 31.9704C24.8136 31.9704 31.9704 24.8136 31.9704 15.9852C31.9704 7.15682 24.8136 0 15.9852 0C7.15682 0 0 7.15682 0 15.9852C0 24.8136 7.15682 31.9704 15.9852 31.9704Z" fill="white"/>
<path fill-rule="evenodd" clip-rule="evenodd" d="M9.2158 20.9893C9.10008 21.0471 8.99801 21.0691 8.86652 21.0441C8.52678 20.0481 8.95574 18.982 9.03117 17.968C8.8963 17.6303 8.55727 17.4697 8.21462 17.5735V18.4275C8.21462 18.8294 7.84767 19.8713 7.68459 20.2826C7.5671 20.2932 7.51989 20.2008 7.44896 20.1352C7.09542 19.8082 6.85363 19.3791 6.50675 19.0458C6.51433 18.9251 6.56294 18.8301 6.5677 18.7238C6.60675 17.8564 6.54944 16.0892 5.56445 15.7478C5.87622 11.9267 9.75986 9.75112 13.1616 9.09294C13.2998 9.06621 13.424 9.00807 13.5742 9.03365L13.515 8.97515L13.5739 8.91627C13.6237 9.0152 13.8037 8.98146 13.8948 8.97187C14.1876 8.94093 14.678 8.87421 14.9284 8.79849C15.6764 8.57221 17.4609 8.7764 18.2264 8.85737C18.0777 8.95189 18.3255 8.90908 18.3749 8.91491C18.6435 8.94659 18.9035 8.98575 19.1687 9.03406C21.203 9.40459 22.9907 10.1371 24.5868 11.4487C24.6845 11.529 24.8251 11.6059 24.9112 11.6838C26.1073 12.7676 27.0069 14.3337 27.0014 15.9834C26.771 16.3148 26.5345 16.6809 26.0633 16.627C25.8858 16.4507 26.1802 15.6962 26.1815 15.4241C26.183 15.1322 26.0238 14.8561 25.7856 14.6963C25.6007 14.5723 25.0512 14.4525 25.0077 14.2964C24.9657 14.1458 25.0629 13.9844 24.9132 13.861C24.6905 13.6774 24.4945 14.0698 24.4826 14.2557C24.4704 14.4437 24.6407 14.6206 24.6493 14.7183C24.6534 14.765 24.5969 15.0954 24.5832 15.1847C24.4652 15.9526 24.2021 16.7441 23.5871 17.2511C23.0056 17.7305 22.2326 17.862 22.1131 16.9257C22.3061 16.9154 22.5129 16.7962 22.684 16.7012C23.2826 16.3688 23.9146 15.7541 23.8185 15.0144C23.7989 14.8633 23.6751 14.6118 23.5268 14.57C23.1961 14.4767 22.7541 14.6564 22.4959 14.8641C21.8073 15.418 21.5786 16.078 21.4655 16.9257C21.0038 16.4085 20.922 15.6263 20.9977 14.9561C21.0568 14.4328 21.5502 14.0245 21.8087 13.5881C22.0857 13.1203 22.2557 12.6549 21.9865 12.135C21.7452 11.669 20.8565 10.7941 20.3884 10.5529C20.3024 10.5085 20.198 10.4916 20.111 10.4475L20.0525 10.4772C20.0516 10.5068 20.1103 10.5032 20.111 10.5064C20.1252 10.5746 20.1016 10.6676 20.1232 10.7578C20.2831 11.4265 20.6827 12.3644 20.2877 12.9799L19.8166 12.9208C19.792 12.8282 19.8411 12.8234 19.876 12.7743C20.0095 12.5868 20.1432 12.4667 20.1699 12.2143C20.2302 11.6436 19.7796 11.45 19.2708 11.5216C18.7202 11.599 18.4606 12.0485 18.6387 12.5676C18.5586 12.6192 18.61 12.7546 18.4903 12.6277C18.3143 12.4411 18.0687 11.9689 18.0477 11.7157C18.0325 11.5315 18.0916 11.4553 18.1086 11.3309C18.2595 11.3298 18.4229 11.1246 18.4513 10.9962C18.4906 10.8182 18.5314 10.3056 18.2851 10.3292L18.4328 10.0357C18.2522 10.209 18.0858 10.0844 17.9027 10.0895C17.7438 10.094 17.6152 10.2023 17.4609 10.212C17.5249 9.72187 16.8748 9.53129 16.4873 9.56208C16.2036 9.58463 15.6824 9.80603 15.7529 10.1534C15.6194 10.187 15.4923 10.0848 15.3745 10.0937C15.2814 10.1008 15.2083 10.1682 15.0783 10.1545C14.9517 10.1411 14.8795 10.0239 14.7519 10.0354L14.8695 10.3297L14.878 10.527C14.8863 10.5817 14.928 10.5621 14.9284 10.5653C14.9473 10.7003 14.9001 10.8636 14.9386 10.9967C14.9595 11.0687 15.0679 11.1635 15.1051 11.272C15.2557 11.7108 15.0346 12.2978 14.7234 12.6277C14.6037 12.7546 14.6551 12.6192 14.575 12.5676C14.6847 12.2479 14.603 11.775 14.2785 11.5957C14.2055 11.5553 14.1471 11.5796 14.1039 11.5664C14.057 11.5521 14.0558 11.5179 13.9272 11.5075C13.6126 11.4822 13.1293 11.6014 13.052 11.9607C13.0219 12.1005 13.0884 12.1349 13.1027 12.2143C13.1203 12.3112 13.0959 12.371 13.1485 12.4923C13.2061 12.625 13.3526 12.7853 13.4556 12.8915L13.1027 13.0976C12.7453 12.3228 12.7957 12.0915 12.9401 11.2565C12.9891 10.973 13.0982 10.863 13.0438 10.5653C13.04 10.5444 13.0814 10.4976 13.1021 10.4767L13.0735 10.448C12.9774 10.5278 12.7864 10.5637 12.6905 10.6241C12.2687 10.8903 11.4669 11.7024 11.2516 12.1593C11.0003 12.6928 11.1287 13.0421 11.405 13.5292C11.508 13.7108 11.638 13.9313 11.7482 14.0988C11.8326 14.2272 12.0331 14.3797 12.1268 14.5741C12.2546 14.8394 12.2578 15.6983 12.2169 16.0104C12.1552 16.4821 11.644 17.1733 11.4422 17.6503C11.0131 18.6643 10.9472 19.782 11.3652 20.8128C11.4225 20.9539 11.7477 21.6224 11.866 21.6371C12.05 21.6599 12.1874 21.3111 12.249 21.1661C12.3761 20.8667 12.482 20.4888 12.5138 20.1648C12.906 20.2082 13.5808 19.7966 13.692 19.3994L13.8067 19.608L14.2217 19.6936C14.2189 19.7352 14.2284 19.7732 14.2522 19.8077C14.7017 20.4574 15.2983 21.0376 15.8118 21.6371C14.7658 22.0129 13.7132 22.4962 12.6316 22.815C11.4162 22.5101 10.219 22.0677 9.15692 21.4015C9.72676 21.1845 10.3523 20.1168 10.5999 19.576C11.1102 18.4612 11.7899 16.231 11.2182 15.1C11.0358 14.7393 10.6329 14.4378 10.2785 14.7787C10.2254 14.8299 10.0644 15.07 10.0449 15.1348C10.0137 15.2386 10.0543 15.2067 10.1154 15.2292C10.759 15.4657 10.8232 15.7944 10.8648 16.4545C10.9096 17.1648 10.7528 17.965 10.5547 18.6474C10.3717 19.278 9.81663 20.6889 9.2158 20.9893ZM20.3466 22.6972C20.006 22.7936 19.6733 22.8451 19.3454 22.9327C19.3102 22.9422 19.2838 22.9473 19.2865 22.9917C19.2086 22.9961 19.1284 22.9851 19.0509 22.9917C18.8593 23.0079 18.1571 23.1068 18.0497 23.1683C17.9699 23.214 17.9995 23.2193 17.8731 23.2272L17.8366 23.1768C17.6706 23.1088 17.5127 23.2073 17.4019 23.2272C16.5366 23.3825 15.6471 23.2337 14.7814 23.2271C14.6838 23.2263 14.5102 23.2697 14.4573 23.1683C16.4737 22.6828 18.5139 22.2388 20.5232 21.7549C20.6728 21.7189 21.3085 21.5955 21.3477 21.5782C21.3991 21.6541 21.4876 21.8746 21.5383 21.9197C21.5733 21.951 21.622 21.9236 21.6422 21.9316C21.646 21.9331 21.6456 22.0017 21.699 21.9905L21.9367 21.4015C21.9443 21.3996 21.9741 21.359 22.0261 21.3454C22.1913 21.302 22.3609 21.2689 22.5255 21.2246L22.0545 20.9304L22.1722 20.4887V18.9575C22.1722 18.8156 21.9554 18.0062 21.8778 17.868C22.6807 18.2598 23.5694 17.8022 24.0827 17.1577C24.4958 16.6388 24.654 16.0405 24.8066 15.4081C24.8831 15.091 24.8216 14.5713 25.2649 14.9225C25.4764 15.0901 25.4912 15.2847 25.4666 15.5385C25.4302 15.9112 25.1797 16.4626 25.384 16.8057C25.7318 17.3898 26.5826 17.0041 26.9426 16.6312C26.6243 19.4482 24.0148 21.3914 21.5406 22.3306C21.1511 22.4784 20.7424 22.5851 20.3466 22.6972ZM15.164 17.868C15.1743 17.8543 15.1627 17.7911 15.1942 17.7527C15.5458 17.3238 16.0658 17.1914 16.1091 17.8965C16.1239 18.1348 16.0205 18.303 16.0616 18.5902C16.1895 19.4819 17.3645 19.2092 17.5789 18.516L17.6964 18.7514C17.6622 18.7685 17.6449 18.799 17.6347 18.8345C17.4011 19.647 16.9998 20.4283 16.9308 21.2838C16.6802 21.3735 16.3962 21.4364 16.1652 21.5193C16.0647 20.2516 15.5092 19.0776 15.164 17.868ZM20.2877 18.2802L20.7588 20.3415C20.5629 20.2585 20.3579 20.1708 20.1504 20.1183C19.4514 20.3723 18.7499 20.6223 18.0497 20.8715C18.7088 20.1143 19.3316 19.3944 19.7282 18.457C19.7963 18.296 19.916 18.0307 19.9343 17.868C20.0262 18.0576 20.1192 18.1566 20.2877 18.2802ZM14.7517 15.5712C14.9501 15.5279 15.1327 15.619 15.3091 15.6321C15.4691 15.6439 16.0145 15.567 16.0456 15.7223C15.8489 16.2236 16.2394 16.1448 16.4949 15.868L16.9593 16.1014C17.1095 15.9911 17.0341 15.7939 17.0484 15.6299C17.5061 15.6169 17.9399 15.5614 18.4031 15.5712C18.3981 15.6085 18.4282 15.627 18.462 15.6301C18.4516 15.8356 18.4762 16.046 18.4639 16.2515C18.4583 16.3456 18.4076 16.4125 18.4031 16.4545C18.1773 16.313 17.6712 16.5034 17.6958 16.7742C17.724 17.0847 17.798 17.2887 17.7288 17.6354C17.6741 17.9098 17.2036 18.9938 16.81 18.7249C16.5865 18.5722 16.7461 18.1535 16.7562 17.9584C16.7725 17.6387 16.795 17.3125 16.6046 17.0458C16.3041 16.6252 15.8473 16.6811 15.4607 16.9574C15.4105 16.9932 15.0049 17.3698 14.9873 17.3968C14.8609 16.803 14.6884 16.2494 14.7517 15.6301V15.5712ZM13.6917 18.8692C13.6474 18.9664 13.6324 19.0736 13.5653 19.1845C13.4185 19.4273 13.0878 19.7331 12.7789 19.6965C12.6549 19.6819 12.6739 19.619 12.6316 19.5759L13.1027 17.3379C13.2082 17.5162 13.2232 17.7434 13.2926 17.9431C13.4021 18.2583 13.5667 18.5603 13.6917 18.8692ZM23.3501 14.9232C23.3898 15.2771 23.3277 15.5104 23.1413 15.8041C22.9445 16.1144 22.5501 16.5354 22.1723 16.5722C22.1997 16.0977 22.439 15.5864 22.7353 15.2215C22.9019 15.0165 23.0658 14.8809 23.3501 14.9232ZM17.078 14.8055C16.9595 14.8263 16.5785 15.0455 16.4983 15.0327C16.0952 14.7965 15.6786 14.7817 15.2229 14.8053C15.626 14.3311 16.1389 13.8691 16.2242 13.2153C16.392 13.1595 16.3202 13.3517 16.4356 13.3865L16.8359 13.3951L16.9894 13.2154C16.9939 13.6565 17.3086 14.0383 17.5782 14.3643C17.6928 14.5029 17.9129 14.6177 17.9319 14.8055C17.6711 14.837 17.3252 14.7622 17.078 14.8055Z" fill="url(#paint0_linear_2811_96653)"/>
<path d="M19.3456 22.9916V22.9327C19.6736 22.8451 20.0062 22.7935 20.3468 22.6971C20.7427 22.585 21.1513 22.4784 21.5409 22.3305C24.0151 21.3914 26.6246 19.4482 26.9428 16.6312C27.2672 16.2952 27.6169 15.6933 27.5905 15.2176L27.3581 15.2205C27.3501 15.5263 27.1641 15.7499 27.0017 15.9833C27.0071 14.3337 26.1075 12.7675 24.9114 11.6838C24.8254 11.6058 24.6848 11.5289 24.5871 11.4486C22.9909 10.137 21.2032 9.40454 19.1689 9.03401V8.9751C22.4402 9.48399 26.8935 11.0938 28.0486 14.5537C29.2996 18.3009 25.6145 21.0822 22.542 22.2127C21.5321 22.5844 20.4193 22.8961 19.3456 22.9916Z" fill="#0D0905"/>
<path d="M20.7586 20.3415C20.9769 20.4339 21.2709 20.5457 21.4653 20.636C21.6413 20.7177 21.8368 20.9107 22.0543 20.9304L22.5253 21.2247C22.3607 21.269 22.1911 21.302 22.0259 21.3454C21.9739 21.3591 21.9441 21.3996 21.9365 21.4016C21.8433 21.4256 21.7005 21.4323 21.5831 21.4604C21.3753 21.5103 21.4038 21.5535 21.3475 21.5782C21.3083 21.5956 20.6726 21.7189 20.523 21.7549C18.5137 22.2388 16.4735 22.6828 14.4571 23.1684C11.9243 23.7782 9.38862 24.3896 6.86166 25.0252L6.56543 25.0527C6.58168 24.955 6.6791 24.9449 6.75494 24.9185C8.5967 24.2785 10.4367 23.632 12.2614 22.9438L12.3958 22.9328L12.6314 22.815C13.713 22.4962 14.7656 22.0129 15.8116 21.6371C15.8672 21.6172 15.9336 21.5979 15.9883 21.5782C16.0127 21.5695 16.0653 21.5837 16.1169 21.5652C16.1441 21.5554 16.1536 21.5234 16.165 21.5194C16.396 21.4364 16.68 21.3735 16.9306 21.2838C17.0772 21.2313 17.2049 21.1354 17.2839 21.1071C17.5056 21.0278 17.7973 20.9613 18.0495 20.8715C18.7497 20.6224 19.4512 20.3724 20.1502 20.1183C20.3577 20.1708 20.5627 20.2586 20.7586 20.3415Z" fill="#CF0E12"/>
<path d="M11.218 15.1C11.7898 16.231 11.11 18.4612 10.5998 19.576C10.3522 20.1168 9.72664 21.1845 9.15679 21.4016C8.95503 21.4784 8.66581 21.4567 8.45007 21.4605C8.37763 21.4218 8.30031 21.3896 8.2145 21.3427C8.04076 21.1297 7.97158 20.8509 7.97868 20.5772L7.71597 20.9932C7.68447 21.023 7.69726 21.0867 7.68447 21.1071C7.34484 21.6505 6.87334 22.09 6.18399 21.9893C5.54973 21.8965 5.60314 20.8989 5.62116 20.4278C5.63401 20.0944 5.66634 19.741 5.68212 19.3992C5.68247 19.3915 5.74008 19.3637 5.74437 19.2578C5.77699 18.4621 5.76847 17.0614 5.40042 16.3535C5.1062 15.7875 4.36668 16.1092 4.32568 16.605C4.31739 16.7056 4.3803 16.7604 4.38649 16.8079C4.29049 16.8575 4.32192 17.0404 4.32657 17.1332C4.34235 17.4481 4.43136 17.6758 4.62197 17.9267C4.20467 18.097 3.74243 17.8827 3.68246 17.4237C3.61976 16.9436 3.81851 16.5158 4.12457 16.161C4.1621 16.1175 4.22977 16.1137 4.25526 16.0855C4.28676 16.0506 4.26186 15.9924 4.2687 15.9834C4.29282 15.9519 4.92841 15.7019 5.00739 15.6915C5.21203 15.6646 5.37612 15.6826 5.56433 15.7479C6.54931 16.0893 6.60662 17.8565 6.56758 18.7238C6.56281 18.8301 6.5142 18.9251 6.50663 19.0459C6.48318 19.4167 6.47528 19.7943 6.44772 20.1648C6.44502 20.2009 6.39165 20.2751 6.38694 20.3678C6.36451 20.8044 6.3632 22.0818 7.06803 21.4035C7.23437 21.2435 7.29325 21.0404 7.39002 20.8716C7.52204 20.641 7.57775 20.5518 7.68447 20.2826C7.84755 19.8713 8.2145 18.8294 8.2145 18.4275V17.5735C8.55714 17.4698 8.89618 17.6304 9.03104 17.968C8.95562 18.982 8.52665 20.0481 8.8664 21.0442C8.99789 21.0692 9.09996 21.0472 9.21567 20.9893C9.81651 20.689 10.3716 19.278 10.5546 18.6475C10.7527 17.965 10.9095 17.1648 10.8647 16.4546C10.823 15.7944 10.7589 15.4657 10.1153 15.2292C10.0542 15.2068 10.0136 15.2386 10.0448 15.1348C10.0643 15.0701 10.2252 14.8299 10.2783 14.7787C10.6328 14.4378 11.0357 14.7393 11.218 15.1Z" fill="#CF0E12"/>
<path d="M13.5147 8.9751L13.5739 9.03359C13.4237 9.00802 13.2995 9.06615 13.1614 9.09289C9.75959 9.75106 5.87596 11.9266 5.56418 15.7478C5.37597 15.6825 5.21189 15.6645 5.00725 15.6914C4.92827 15.7018 4.29268 15.9518 4.26855 15.9833C4.41654 12.4911 7.97342 10.3643 10.9812 9.47458C11.791 9.23506 12.672 9.02776 13.5147 8.9751Z" fill="#0D0905"/>
<path d="M5.68238 19.3992C5.10016 18.7518 4.60353 17.9146 4.39898 17.0594C4.37737 16.9691 4.39699 16.8864 4.38675 16.8079C4.38056 16.7604 4.31766 16.7056 4.32595 16.605C4.36695 16.1092 5.10647 15.7875 5.40068 16.3534C5.76873 17.0614 5.77725 18.4621 5.74463 19.2578C5.74034 19.3637 5.68273 19.3915 5.68238 19.3992Z" fill="#0D0905"/>
<path d="M9.15692 21.4015C10.219 22.0676 11.4162 22.51 12.6316 22.8149L12.396 22.9327C12.344 22.8502 12.2135 22.8413 12.1249 22.8209C10.7381 22.502 9.6836 22.1189 8.4502 21.4604C8.66594 21.4566 8.95515 21.4783 9.15692 21.4015Z" fill="#0D0905"/>
<path d="M8.2146 21.3426C8.06215 21.2592 7.848 21.1922 7.68457 21.1071C7.69736 21.0866 7.68457 21.023 7.71607 20.9931L7.97879 20.5771C7.97168 20.8509 8.04086 21.1297 8.2146 21.3426Z" fill="#0D0905"/>
<path d="M14.9288 8.79846C14.6784 8.87418 14.1879 8.94091 13.8952 8.97184C13.8041 8.98143 13.624 9.01518 13.5742 8.91625L14.9288 8.79846Z" fill="#47588F"/>
<path d="M19.1689 8.97521V9.03412C18.9037 8.98581 18.6437 8.94664 18.3751 8.91497C18.3257 8.90914 18.0779 8.95194 18.2266 8.85742C18.5784 8.89463 18.8356 8.92338 19.1689 8.97521Z" fill="#47588F"/>
<path d="M19.051 22.9917V23.0506C18.8687 23.0778 18.6383 23.1504 18.4349 23.1704C18.3115 23.1826 18.1756 23.159 18.0498 23.1684C18.1572 23.1068 18.8594 23.008 19.051 22.9917Z" fill="#47588F"/>
<path d="M17.8725 23.2272C17.717 23.2369 17.5573 23.2206 17.4014 23.2272C17.5121 23.2073 17.6701 23.1088 17.8361 23.1768L17.8725 23.2272Z" fill="#47588F"/>
<path d="M19.2864 22.9917V23.0505C19.2104 23.0578 19.1233 23.0397 19.0508 23.0505V22.9917C19.1283 22.9851 19.2084 22.9961 19.2864 22.9917Z" fill="#0D0905"/>
<path d="M6.50651 25.0531H6.33008V25.1115H6.50651V25.0531Z" fill="#969EBC"/>
<path d="M19.3452 22.9916L19.2863 23.0505V22.9916C19.2837 22.9473 19.3101 22.9422 19.3452 22.9327V22.9916Z" fill="#47588F"/>
<path d="M23.3502 14.9232C23.0659 14.881 22.9019 15.0165 22.7354 15.2215C22.4391 15.5864 22.1998 16.0977 22.1724 16.5723C22.5502 16.5354 22.9446 16.1144 23.1414 15.8041C23.3277 15.5104 23.3898 15.2771 23.3502 14.9232ZM23.5268 14.57C23.6752 14.6118 23.799 14.8634 23.8186 15.0144C23.9147 15.7542 23.2827 16.3688 22.684 16.7013C22.5131 16.7962 22.3062 16.9154 22.1132 16.9258C22.2327 17.862 23.0057 17.7305 23.5872 17.2511C24.2022 16.7441 24.4652 15.9526 24.5833 15.1847C24.597 15.0954 24.6535 14.765 24.6494 14.7183C24.6407 14.6206 24.4705 14.4436 24.4826 14.2558C24.4946 14.0698 24.6906 13.6774 24.9133 13.8609C25.063 13.9843 24.9658 14.1457 25.0077 14.2964C25.0513 14.4525 25.6007 14.5724 25.7857 14.6963C26.0238 14.856 26.183 15.1323 26.1817 15.4242C26.1804 15.6962 25.8858 16.4507 26.0634 16.627C26.5346 16.681 26.771 16.3148 27.0015 15.9834C27.1639 15.75 27.3499 15.5264 27.3579 15.2205L27.5903 15.2177C27.6168 15.6934 27.267 16.2952 26.9426 16.6313C26.5827 17.0041 25.7318 17.3897 25.3841 16.8058C25.1798 16.4626 25.4304 15.9112 25.4666 15.5385C25.4914 15.2848 25.4765 15.09 25.265 14.9225C24.8217 14.5712 24.8832 15.091 24.8066 15.4081C24.6541 16.0406 24.4959 16.6387 24.0827 17.1576C23.5694 17.8022 22.6808 18.2598 21.8778 17.868C21.8078 17.7433 21.7104 17.6967 21.6433 17.5523C21.6116 17.4842 21.5876 17.5122 21.525 17.5146C21.4386 17.8194 21.163 18.0235 20.9355 18.2214L20.2877 18.2803C20.1193 18.1566 20.0263 18.0576 19.9344 17.868C19.9581 17.658 19.963 16.8617 19.889 16.706C19.8348 16.5919 19.7336 16.537 19.6106 16.5135C19.5461 16.5138 19.4081 16.592 19.3454 16.6313C18.8907 16.9156 18.5562 17.7694 18.3575 18.264C18.3058 18.3927 18.2372 18.7727 18.1322 18.8041L17.6964 18.7514L17.579 18.5159C17.3646 19.2092 16.1895 19.4818 16.0617 18.5902C16.0205 18.303 16.1239 18.1348 16.1093 17.8966C16.0658 17.1915 15.5459 17.3238 15.1943 17.7527C15.1628 17.7911 15.1745 17.8543 15.1641 17.868C14.9414 18.1624 14.9084 18.2393 14.7518 18.5747C14.6008 18.8982 14.5072 19.2059 14.3689 19.5193C14.3258 19.6169 14.3111 19.6342 14.2218 19.6937L13.8069 19.6081L13.692 19.3993C13.5809 19.7966 12.9061 20.2082 12.5139 20.1648C12.2417 20.1347 12.0943 19.9318 11.925 19.7526C11.9423 19.6031 11.8678 19.4992 11.8641 19.3717C11.8483 18.8359 11.8776 18.3026 12.056 17.7929C12.1855 17.4231 12.4216 16.8931 12.8672 17.2202C12.8478 17.2674 12.8776 17.4318 12.8551 17.532C12.7299 18.0888 12.2342 18.9567 12.5439 19.5187C12.5676 19.5618 12.6181 19.562 12.6317 19.5759C12.674 19.619 12.6549 19.6819 12.779 19.6966C13.0879 19.7332 13.4186 19.4272 13.5654 19.1846C13.6324 19.0736 13.6475 18.9664 13.6917 18.8692C13.7 18.851 13.7567 18.8203 13.7813 18.7552C13.9442 18.3231 13.8066 17.9659 13.8811 17.555C13.9059 17.4184 13.9599 17.398 14.0714 17.3401C14.0952 17.3278 14.0944 17.2832 14.104 17.2791C14.1401 17.2634 14.3655 17.2726 14.4192 17.288C14.6771 17.3616 14.5449 17.8889 14.5754 18.1036C14.7288 17.9697 14.8267 17.7387 14.9424 17.5553C14.9768 17.5009 14.9731 17.4189 14.9874 17.3969C15.0049 17.3697 15.4107 16.9932 15.4608 16.9574C15.8473 16.6811 16.3043 16.6252 16.6046 17.0458C16.7951 17.3125 16.7726 17.6387 16.7562 17.9584C16.7462 18.1536 16.5866 18.5722 16.8101 18.7248C17.2036 18.9938 17.6742 17.9098 17.7289 17.6354C17.7981 17.2887 17.724 17.0847 17.6959 16.7742C17.6714 16.5034 18.1774 16.313 18.4032 16.4546C18.3843 16.63 18.4519 16.8687 18.4622 17.0732C18.4656 17.1403 18.4228 17.2351 18.5207 17.22C18.6464 16.8598 19.1202 16.1455 19.4632 15.9834C19.8579 15.7969 20.241 15.846 20.4921 16.2208C20.8416 16.7424 20.424 17.2982 20.6279 17.734C20.8326 18.1713 21.3589 17.4872 21.4388 17.2227C21.4744 17.1046 21.4523 17.0251 21.4656 16.9257C21.5787 16.078 21.8075 15.4181 22.4959 14.8642C22.7542 14.6565 23.1962 14.4767 23.5268 14.57Z" fill="#CF0E12"/>
<path d="M16.8722 15.6888L16.6367 15.7772L16.9309 15.9244L16.8722 15.6888ZM16.401 15.1002C15.9075 14.9027 15.3679 14.8859 14.8383 14.9213C14.5967 14.9373 14.1799 15.0691 13.9589 15.0408C13.7308 15.0116 13.5633 14.7938 13.5739 14.5701C13.5085 14.5634 13.4358 14.7599 13.4242 14.8025C13.3396 15.1126 13.4684 15.262 13.75 15.3658C13.9871 15.4533 14.5132 15.5 14.7794 15.5143C15.2063 15.5372 15.6427 15.4994 16.0703 15.5054L16.401 15.1002ZM13.6625 14.3933C13.6243 14.3933 13.6243 14.4522 13.6625 14.4522C13.7007 14.4522 13.7007 14.3933 13.6625 14.3933ZM13.8391 14.1577C13.8009 14.1577 13.8009 14.2166 13.8391 14.2166C13.8774 14.2166 13.8774 14.1577 13.8391 14.1577ZM19.2277 13.8045H19.1102L19.1103 14.0988C19.2476 14.0632 19.2366 13.9164 19.2277 13.8045ZM13.9274 13.8045H13.8098C13.8016 13.9244 13.7931 14.0247 13.8982 14.0987L13.9273 14.0988L13.9274 13.8045ZM17.0782 14.8056C17.3254 14.7622 17.6714 14.837 17.9322 14.8056C17.9131 14.6177 17.6931 14.5029 17.5784 14.3642C17.3089 14.0383 16.9941 13.6565 16.9897 13.2154L16.8362 13.3951L16.4358 13.3865C16.3205 13.3516 16.3923 13.1595 16.2245 13.2153C16.1391 13.8691 15.6263 14.331 15.2231 14.8053C15.6788 14.7817 16.0954 14.7965 16.4986 15.0328C16.5787 15.0455 16.9597 14.8263 17.0782 14.8056ZM16.931 12.7444H16.8134L16.8135 12.9798L16.8719 12.9797L16.931 12.7444ZM16.4598 12.9798L16.4322 12.7425L16.3713 12.6856L16.2833 12.6855L16.3424 12.9799L16.4598 12.9798ZM16.9309 12.3322H16.8134V12.5675H16.9309V12.3322ZM16.4009 12.3322H16.1655C16.1396 12.513 16.2201 12.5935 16.4009 12.5675V12.3322ZM16.9898 12.1553L16.9897 11.9198C16.969 11.8968 16.7704 12.0694 16.8134 12.1552L16.9898 12.1553ZM17.0194 11.802C16.9811 11.802 16.9811 11.8609 17.0194 11.8609C17.0576 11.8609 17.0576 11.802 17.0194 11.802ZM17.1075 11.6255H17.0491V11.743H17.1075V11.6255ZM17.1077 11.5075L17.1371 11.566C17.1739 11.566 17.1611 11.5273 17.1666 11.5075C17.1904 11.4218 17.2172 11.3341 17.2277 11.2446L17.1959 10.5063C17.0533 10.4793 17.11 10.6213 17.1078 10.7124C17.1012 10.9771 17.1124 11.2433 17.1077 11.5075ZM15.9887 10.4475V11.8904C15.9887 11.9016 16.0631 12.0796 16.0754 12.0982C16.1258 12.1744 16.231 12.1586 16.3129 12.1557C16.5649 12.147 16.2866 11.9154 16.2557 11.859C16.0632 11.5086 16.2168 10.9087 16.1609 10.511L15.9887 10.4475ZM17.8438 10.3886C17.8056 10.3886 17.8056 10.4475 17.8438 10.4475C17.8821 10.4475 17.8821 10.3886 17.8438 10.3886ZM15.8708 11.0952C15.9307 10.647 15.8405 10.36 15.3409 10.3888L15.8708 11.0952ZM17.3433 10.683C17.3404 10.8003 17.3451 10.9191 17.3435 11.0364L17.755 10.4767L17.4021 10.683L17.4318 10.2712L17.3502 10.3659C17.3324 10.4711 17.3458 10.5777 17.3433 10.683ZM17.2844 10.0937C17.369 9.84266 16.7817 9.69059 16.6027 9.68198C16.4819 9.6762 15.9624 9.83893 15.93 9.94718C15.8955 10.0622 16.3405 10.2567 16.4316 10.2696C16.7154 10.3101 17.0118 10.1524 17.2844 10.0937ZM14.8698 10.3297L14.7521 10.0353C14.8798 10.0238 14.9519 10.1411 15.0786 10.1544C15.2086 10.1681 15.2817 10.1008 15.3748 10.0937C15.4925 10.0847 15.6196 10.187 15.7531 10.1534C15.6827 9.80601 16.2038 9.58459 16.4875 9.56203C16.875 9.53121 17.5252 9.72179 17.4612 10.212C17.6155 10.2022 17.744 10.094 17.903 10.0895C18.0861 10.0843 18.2525 10.209 18.4331 10.0357L18.2854 10.3292C18.5316 10.3056 18.4908 10.8182 18.4515 10.9962C18.4232 11.1246 18.2598 11.3298 18.1089 11.3309C18.1456 11.0635 18.1914 10.8197 18.2429 10.552C18.2544 10.4923 18.3446 10.377 18.227 10.3887C18.1335 10.648 17.931 10.8715 17.8032 11.1135C17.5788 11.5383 17.3771 12.1148 17.3412 12.5951C17.2825 13.3793 18.3181 14.2424 18.7573 14.8342C18.9001 14.869 19.0124 14.9384 19.1505 14.8785C19.3665 14.7849 19.3248 14.6937 19.3456 14.5111C19.3629 14.5174 19.387 14.5049 19.4045 14.5111L19.4634 14.57C19.4745 14.8276 19.3103 14.9818 19.0666 15.0316C18.3152 14.9321 16.8203 14.6888 16.315 15.3968C16.2041 15.5521 16.1404 15.7323 16.1655 15.9244C16.2065 15.9708 16.5366 15.683 16.6205 15.6434C17.3248 15.3113 18.4747 15.6794 19.2865 15.3647C19.7905 15.1694 19.6976 14.9588 19.4634 14.57C19.4359 14.5242 19.4062 14.5148 19.4045 14.5111C19.3936 14.4868 19.4113 14.4298 19.4043 14.3934H19.3459C19.3428 14.4319 19.35 14.4727 19.3456 14.5111C19.3216 14.5023 19.2677 14.5301 19.2375 14.503C19.2272 14.4938 19.0912 14.2895 19.083 14.2729C19.0215 14.1479 18.9152 13.8033 19.0486 13.7134C19.4779 13.5782 19.2906 13.9641 19.3543 14.1785C19.3718 14.2372 19.5895 14.4733 19.6513 14.5882C19.8981 15.0475 19.8198 15.3388 19.2865 15.4536L19.4634 15.9834C19.1204 16.1455 18.6466 16.8597 18.5209 17.22C18.423 17.235 18.4658 17.1403 18.4624 17.0732C18.4521 16.8687 18.3844 16.6299 18.4033 16.4546C18.4079 16.4125 18.4585 16.3456 18.4642 16.2515C18.4764 16.046 18.4519 15.8355 18.4622 15.63C18.5394 15.6369 18.6203 15.6256 18.6978 15.6298V15.5714C18.6 15.5694 18.5012 15.5732 18.4033 15.5712C17.9402 15.5614 17.5063 15.6168 17.0487 15.6299C17.0344 15.7938 17.1098 15.9911 16.9596 16.1014L16.4952 15.868C16.2396 16.1448 15.8492 16.2236 16.0459 15.7223C16.0147 15.567 15.4694 15.6439 15.3094 15.6321C15.1329 15.619 14.9505 15.5278 14.752 15.5712L14.2807 15.6006L14.752 15.63C14.6886 16.2494 14.8612 16.803 14.9876 17.3968C14.9733 17.4189 14.977 17.5008 14.9426 17.5553C14.8268 17.7387 14.729 17.9696 14.5756 18.1035C14.5452 17.8889 14.6773 17.3616 14.4194 17.2879C14.3657 17.2726 14.1403 17.2634 14.1042 17.279C13.9176 16.8657 13.6804 16.3607 13.7518 15.896C13.7731 15.7575 13.9001 15.6636 13.8689 15.5124C13.3091 15.4485 13.1189 15.0402 13.4061 14.5491C13.4692 14.4412 13.649 14.2895 13.6816 14.1768C13.72 14.0436 13.6394 13.7871 13.7482 13.7134L13.9537 13.6898C14.3421 14.0413 13.5844 14.5214 13.7773 14.8087C13.8318 14.8898 14.3167 14.8855 14.4192 14.8555C14.4772 14.8385 15.1308 14.0708 15.2236 13.952C15.4762 13.6287 15.8946 13.078 15.8753 12.6561C15.8665 12.4621 15.7674 12.0161 15.696 11.8297C15.572 11.5053 15.3724 11.458 15.1053 11.272C15.0681 11.1635 14.9598 11.0687 14.939 10.9967C14.9003 10.8635 14.9476 10.7002 14.9286 10.5652C14.9322 10.4794 14.9535 10.3779 14.8698 10.3297Z" fill="#0D0905"/>
<path d="M13.1022 13.0977C13.1324 13.1633 13.3061 13.4841 13.2787 13.5098C12.8483 13.6222 12.2577 12.9804 12.2165 12.5995C12.1366 11.8616 12.6384 11.1353 13.0433 10.5653C13.0977 10.8631 12.9886 10.9731 12.9395 11.2566C12.7951 12.0916 12.7447 12.3229 13.1022 13.0977Z" fill="#0D0905"/>
<path d="M20.1111 10.5063C20.5387 10.9739 21.0268 11.7679 21.0575 12.4205C21.0802 12.902 20.463 13.6256 19.9346 13.5098L20.2878 12.9798C20.6829 12.3644 20.2833 11.4264 20.1233 10.7578C20.1017 10.6676 20.1253 10.5746 20.1111 10.5063Z" fill="#0D0905"/>
<path d="M20.1698 12.2142L19.2689 12.0451C19.1654 12.0631 18.9656 12.2435 18.9058 12.3342C18.8099 12.4794 18.8444 12.6279 18.7268 12.7441C18.7041 12.7542 18.6522 12.6071 18.6386 12.5676C18.4606 12.0485 18.7202 11.599 19.2708 11.5215C19.7796 11.45 20.2302 11.6436 20.1698 12.2142Z" fill="#0D0905"/>
<path d="M13.9269 11.5075L13.9649 11.5583L14.1036 11.5665C14.1468 11.5796 14.2052 11.5553 14.2782 11.5957C14.6027 11.775 14.6844 12.248 14.5747 12.5676C14.5612 12.6072 14.5093 12.7542 14.4865 12.7442C14.369 12.6279 14.4035 12.4795 14.3076 12.3342C14.2476 12.2431 14.0486 12.0637 13.9445 12.0451C13.7498 12.0102 13.3566 12.3069 13.1024 12.2143C13.0881 12.1349 13.0216 12.1005 13.0517 11.9607C13.129 11.6014 13.6123 11.4822 13.9269 11.5075Z" fill="#0D0905"/>
<path d="M14.1035 11.5665L13.9647 11.5583L13.9268 11.5076C14.0553 11.518 14.0566 11.5521 14.1035 11.5665Z" fill="#47588F"/>
<path d="M20.1112 10.5064C20.1106 10.5032 20.0519 10.5069 20.0527 10.4773L20.1112 10.4475V10.5064Z" fill="#47588F"/>
<path d="M17.284 21.1071C17.205 21.1353 17.0773 21.2313 16.9307 21.2837C16.9997 20.4283 17.401 19.647 17.6346 18.8345C17.6448 18.799 17.6621 18.7684 17.6963 18.7514L18.1321 18.8041C18.237 18.7726 18.3057 18.3926 18.3573 18.264C18.5561 17.7694 18.8905 16.9157 19.3453 16.6312C19.3474 16.7688 19.2916 16.9014 19.2389 17.0254C18.9329 17.7441 18.4945 18.4677 18.1559 19.1815C17.8543 19.8174 17.6004 20.4784 17.284 21.1071Z" fill="#0D0905"/>
<path d="M16.1654 21.5194C16.1541 21.5234 16.1445 21.5554 16.1173 21.5652C16.0657 21.5837 16.0131 21.5695 15.9887 21.5783L14.752 18.5747C14.9085 18.2393 14.9415 18.1625 15.1642 17.868C15.5094 19.0776 16.0649 20.2517 16.1654 21.5194Z" fill="#0D0905"/>
<path d="M20.935 18.2213C21.0233 18.5432 21.2023 18.8829 21.2758 19.2056C21.3798 19.6617 21.3437 20.1786 21.465 20.6359C21.2706 20.5456 20.9766 20.4339 20.7583 20.3415L20.2871 18.2802L20.935 18.2213Z" fill="#0D0905"/>
<path d="M21.5832 21.4604L21.6421 21.9316C21.6219 21.9237 21.5732 21.951 21.5382 21.9198C21.4875 21.8746 21.399 21.6542 21.3477 21.5782C21.4039 21.5535 21.3754 21.5103 21.5832 21.4604Z" fill="#0D0905"/>
<path d="M7.68402 20.2825C7.5773 20.5517 7.52159 20.641 7.38956 20.8715L6.44727 20.1647C6.47483 19.7942 6.48273 19.4166 6.50617 19.0458C6.85305 19.379 7.09484 19.8082 7.44838 20.1352C7.51931 20.2008 7.56653 20.2932 7.68402 20.2825Z" fill="#0D0905"/>
<path d="M12.5138 20.1648C12.482 20.4888 12.3761 20.8667 12.2489 21.1662C12.1873 21.3111 12.05 21.6599 11.866 21.6371C11.8798 21.0781 11.848 20.5149 11.864 19.9555C11.8668 19.8597 11.9197 19.7971 11.9248 19.7526C12.0942 19.9318 12.2416 20.1346 12.5138 20.1648Z" fill="#0D0905"/>
<path d="M13.1025 17.338L12.6313 19.5759C12.6177 19.5621 12.5672 19.5619 12.5435 19.5187C12.2339 18.9568 12.7295 18.0889 12.8548 17.5321C12.8772 17.4318 12.8474 17.2674 12.8669 17.2202C12.8728 17.206 13.0799 17.1097 13.0438 16.9848L13.1022 16.9847L13.1025 17.338Z" fill="#0D0905"/>
<path d="M12.8482 15.5821C13.1334 15.518 13.3324 15.5885 13.3883 15.8857C13.2964 16.1042 13.1541 16.3549 12.8954 16.3942C12.5672 16.444 12.2914 16.3419 12.4049 15.9626C12.4332 15.8679 12.7413 15.6061 12.8482 15.5821Z" fill="#CF0E12"/>
<path d="M15.8706 11.0952L15.3408 10.3888C15.8404 10.36 15.9305 10.647 15.8706 11.0952Z" fill="#969EBC"/>
<path d="M17.4016 10.683L17.7545 10.4767L17.343 11.0364C17.3445 10.9191 17.3399 10.8004 17.3427 10.683H17.4016Z" fill="#969EBC"/>
<path d="M14.7517 15.5712V15.6301L14.2803 15.6006L14.7517 15.5712Z" fill="#47588F"/>
<path d="M16.931 12.7444L16.8719 12.9796L16.8136 12.9797L16.8135 12.7444H16.931Z" fill="#969EBC"/>
<path d="M17.4022 10.683H17.3433C17.3458 10.5777 17.3325 10.4712 17.3502 10.3659L17.4319 10.2712L17.4022 10.683Z" fill="#47588F"/>
<path d="M18.4029 15.5711C18.5007 15.5732 18.5995 15.5694 18.6972 15.5714V15.6298C18.6198 15.6256 18.5389 15.6369 18.4618 15.6301C18.428 15.627 18.3979 15.6085 18.4029 15.5711Z" fill="#47588F"/>
<path d="M19.4042 14.511C19.3866 14.5049 19.3626 14.5173 19.3453 14.511C19.3497 14.4726 19.3424 14.4319 19.3456 14.3934H19.404C19.4109 14.4297 19.3933 14.4868 19.4042 14.511Z" fill="#47588F"/>
<path d="M17.1073 11.6255H17.0488V11.743H17.1073V11.6255Z" fill="#47588F"/>
<path d="M19.4632 14.57L19.4043 14.5111C19.406 14.5149 19.4356 14.5242 19.4632 14.57Z" fill="#969EBC"/>
<path d="M13.8392 14.1577C13.8774 14.1577 13.8774 14.2166 13.8392 14.2166C13.801 14.2166 13.801 14.1577 13.8392 14.1577Z" fill="#47588F"/>
<path d="M17.0189 11.802C17.0571 11.802 17.0571 11.8609 17.0189 11.8609C16.9807 11.8609 16.9807 11.802 17.0189 11.802Z" fill="#969EBC"/>
<path d="M17.1074 11.5076H17.1663C17.1608 11.5273 17.1736 11.566 17.1369 11.566L17.1074 11.5076Z" fill="#47588F"/>
<path d="M17.8431 10.3885C17.8813 10.3885 17.8813 10.4475 17.8431 10.4475C17.8049 10.4475 17.8049 10.3885 17.8431 10.3885Z" fill="#969EBC"/>
<path d="M13.6625 14.3933C13.7007 14.3933 13.7007 14.4522 13.6625 14.4522C13.6242 14.4522 13.6242 14.3933 13.6625 14.3933Z" fill="#47588F"/>
</g>
</g>
<defs>
<linearGradient id="paint0_linear_2811_96653" x1="7.55328" y1="14.296" x2="26.4208" y2="16.5552" gradientUnits="userSpaceOnUse">
<stop stop-color="#47588F"/>
<stop offset="0.45" stop-color="#DADFF0"/>
<stop offset="1" stop-color="#192A5F"/>
</linearGradient>
<clipPath id="clip0_2811_96653">
<rect width="32" height="32" fill="white"/>
</clipPath>
</defs>
</svg>
