<svg width="32" height="32" viewBox="0 0 32 32" fill="none" xmlns="http://www.w3.org/2000/svg">
<g clip-path="url(#clip0_2707_261288)">
<path d="M16 32C24.8366 32 32 24.8366 32 16C32 7.16344 24.8366 0 16 0C7.16344 0 0 7.16344 0 16C0 24.8366 7.16344 32 16 32Z" fill="white"/>
<path d="M16 29.3333C23.3638 29.3333 29.3333 23.3638 29.3333 16C29.3333 8.63616 23.3638 2.66663 16 2.66663C8.6362 2.66663 2.66666 8.63616 2.66666 16C2.66666 23.3638 8.6362 29.3333 16 29.3333Z" fill="white"/>
<path d="M16.3911 7.74219C16.7299 7.91007 17.0181 8.16462 17.2267 8.47997C17.7453 9.24186 18.1524 10.074 18.4356 10.9511" stroke="#FFD1AC" stroke-width="0.07" stroke-miterlimit="10"/>
<path d="M17.6267 9.50217C17.5441 9.14041 17.3283 8.82304 17.0222 8.61328" stroke="#FFD1AC" stroke-width="0.07" stroke-miterlimit="10"/>
<path d="M18.0178 9.8845C17.8481 9.69273 17.6503 9.52788 17.4311 9.39561C17.2446 9.34665 17.0487 9.34665 16.8622 9.39561C16.6754 9.43016 16.4934 9.48686 16.32 9.5645H16.5778C16.9429 9.57418 17.2977 9.68831 17.6 9.89339" stroke="#FFD1AC" stroke-width="0.07" stroke-miterlimit="10"/>
<path d="M17.5289 10.0711C17.3274 10.0659 17.1263 10.0929 16.9333 10.1511C16.8466 10.1669 16.7647 10.2024 16.6939 10.2548C16.623 10.3072 16.565 10.3751 16.5244 10.4533C16.4927 10.5887 16.5117 10.731 16.5778 10.8533C16.6206 10.7548 16.6918 10.6713 16.7822 10.6133C16.8563 10.5599 16.9413 10.5235 17.0311 10.5066C17.1413 10.4706 17.2543 10.4438 17.3689 10.4266" stroke="#FFD1AC" stroke-width="0.07" stroke-miterlimit="10"/>
<path d="M17.3689 9.77775C17.1547 9.7108 16.9253 9.7108 16.7111 9.77775C16.6322 9.81977 16.5629 9.87786 16.5078 9.94829C16.4527 10.0187 16.4129 10.0999 16.3911 10.1866C16.4977 10.1168 16.6193 10.0732 16.746 10.0593C16.8726 10.0454 17.0008 10.0616 17.12 10.1066" stroke="#FFD1AC" stroke-width="0.07" stroke-miterlimit="10"/>
<path d="M16.8889 10.5778C16.8331 10.659 16.8022 10.7548 16.8 10.8533L16.72 11.3689L17.5022 10.5866" stroke="#FFD1AC" stroke-width="0.07" stroke-miterlimit="10"/>
<path d="M16.9956 11.0489C17.0461 11.0876 17.0884 11.136 17.12 11.1911L17.2089 11.5289C17.3415 11.2974 17.4931 11.0774 17.6622 10.8711C17.7245 10.7836 17.7994 10.7057 17.8844 10.64C17.977 10.5815 18.0868 10.5564 18.1956 10.5689" stroke="#FFD1AC" stroke-width="0.07" stroke-miterlimit="10"/>
<path d="M17.52 11.3511C17.4797 11.4874 17.4797 11.6325 17.52 11.7689C17.5892 11.7006 17.6436 11.6189 17.68 11.5289" stroke="#FFD1AC" stroke-width="0.07" stroke-miterlimit="10"/>
<path d="M17.0044 11.6444C16.99 11.7164 16.9956 11.7909 17.0207 11.8599C17.0458 11.9289 17.0894 11.9897 17.1467 12.0355C17.1643 11.9836 17.1643 11.9274 17.1467 11.8755C17.1467 11.8133 17.1467 11.7511 17.2178 11.7333" stroke="#FFD1AC" stroke-width="0.07" stroke-miterlimit="10"/>
<path d="M16.9778 12.4889C16.9864 12.4377 17.007 12.3893 17.0378 12.3476C17.0687 12.3058 17.1091 12.272 17.1556 12.2489C17.1359 12.3891 17.1626 12.5318 17.2316 12.6554C17.3006 12.7789 17.4081 12.8766 17.5378 12.9333" stroke="#FFD1AC" stroke-width="0.07" stroke-miterlimit="10"/>
<path d="M17.5467 12.6845C17.4678 12.5825 17.4138 12.4634 17.3891 12.3369C17.3644 12.2103 17.3697 12.0797 17.4044 11.9556C17.4709 12.1772 17.6045 12.3729 17.7867 12.5156" stroke="#FFD1AC" stroke-width="0.07" stroke-miterlimit="10"/>
<path d="M16.7378 10.9778C16.5748 11.043 16.4197 11.1265 16.2756 11.2267C16.1552 11.3088 16.0598 11.4226 16 11.5556" stroke="#FFD1AC" stroke-width="0.07" stroke-miterlimit="10"/>
<path d="M16.7111 11.1912C16.6158 11.2727 16.5388 11.3734 16.4852 11.4868C16.4315 11.6001 16.4025 11.7236 16.4 11.8489" stroke="#FFD1AC" stroke-width="0.07" stroke-miterlimit="10"/>
<path d="M16.8889 11.1466C16.8016 11.5499 16.754 11.9607 16.7467 12.3733" stroke="#FFD1AC" stroke-width="0.07" stroke-miterlimit="10"/>
<path d="M16.5156 10.6666L16.2667 10.8444C16.0862 10.9515 15.9409 11.1091 15.8489 11.2977" stroke="#FFD1AC" stroke-width="0.07" stroke-miterlimit="10"/>
<path d="M16.5156 10.5155C16.3318 10.5078 16.1505 10.5609 16 10.6666L15.6444 10.9066" stroke="#FFD1AC" stroke-width="0.07" stroke-miterlimit="10"/>
<path d="M16.4889 9.97339C16.3088 10.0268 16.1358 10.1014 15.9733 10.1956C15.9187 10.2134 15.8676 10.2404 15.8222 10.2756C15.7708 10.3194 15.7259 10.3703 15.6889 10.4267C15.6356 10.5245 15.5378 10.5778 15.4933 10.6845" stroke="#FFD1AC" stroke-width="0.07" stroke-miterlimit="10"/>
<path d="M16.5867 9.85774C16.3494 9.82568 16.108 9.85364 15.8844 9.93905C15.6607 10.0245 15.4621 10.1646 15.3067 10.3466" stroke="#FFD1AC" stroke-width="0.07" stroke-miterlimit="10"/>
<path d="M16.6844 9.40438C16.3384 9.33807 15.9807 9.372 15.6533 9.50216C15.3746 9.63503 15.1423 9.84875 14.9867 10.1155" stroke="#FFD1AC" stroke-width="0.07" stroke-miterlimit="10"/>
<path d="M19.9644 16.3199L20.4267 16.5333C20.5007 16.5623 20.5673 16.6078 20.6212 16.6663C20.6751 16.7248 20.7149 16.7948 20.7378 16.8711C20.7378 16.8711 20.9156 16.4444 20.5156 16.3377" stroke="#FFD1AC" stroke-width="0.07" stroke-miterlimit="10"/>
<path d="M20.7289 16.48H21.6178C21.6178 16.48 21.4489 16.24 21.2711 16.2578H20.6311" stroke="#FFD1AC" stroke-width="0.07" stroke-miterlimit="10"/>
<path d="M21.1467 16.2578C21.117 16.1876 21.0626 16.1307 20.9938 16.0979C20.925 16.0651 20.8465 16.0588 20.7733 16.08L20.3733 16.1689C20.3733 16.1689 20.1333 16.1689 20.08 15.68C20.0441 15.385 20.0234 15.0883 20.0178 14.7911" stroke="#FFD1AC" stroke-width="0.07" stroke-miterlimit="10"/>
<path d="M20.7733 16.08C20.5652 16.0134 20.3507 15.9688 20.1333 15.9467" stroke="#FFD1AC" stroke-width="0.07" stroke-miterlimit="10"/>
<path d="M19.6711 14.7556L19.8489 15.5112L19.76 15.6623L19.8489 15.7334L19.9111 16.1601" stroke="#FFD1AC" stroke-width="0.07" stroke-miterlimit="10"/>
<path d="M19.2533 14.4266V15.7066" stroke="#FFD1AC" stroke-width="0.07" stroke-miterlimit="10"/>
<path d="M18.9422 14.4355L19.0489 15.4578" stroke="#FFD1AC" stroke-width="0.07" stroke-miterlimit="10"/>
<path d="M18.9422 14.2222C18.9422 14.2222 18.9422 14.4622 19.0933 14.4533C19.1688 14.4537 19.2435 14.438 19.3124 14.4074C19.3814 14.3767 19.443 14.3318 19.4933 14.2756C19.4933 14.2756 19.4133 14.7289 19.7867 14.7734C20.16 14.8178 20.2044 14.7733 20.2489 14.6311C20.3059 14.4049 20.4496 14.2101 20.6489 14.0889C20.8879 13.9049 21.0622 13.6496 21.1467 13.36C21.8305 13.1183 22.3942 12.6214 22.72 11.9733C22.9155 11.6002 23.0102 11.1825 22.9946 10.7615C22.979 10.3406 22.8537 9.93098 22.6311 9.57335C22.5131 9.38227 22.4718 9.15362 22.5156 8.93335" stroke="#FFD1AC" stroke-width="0.07" stroke-miterlimit="10"/>
<path d="M19.4133 12.7467C19.9131 12.6558 20.4061 12.5311 20.8889 12.3733C21.04 12.2578 21.4578 12.1867 21.6089 11.2711" stroke="#FFD1AC" stroke-width="0.07" stroke-miterlimit="10"/>
<path d="M20.1689 10.56L20.2756 10.8534L20.4444 10.6667L20.5422 11.0934L20.6489 10.7556C20.6489 10.7556 20.8 11.3423 20.9956 11.3956V10.9778C20.9956 10.9778 21.1289 11.3778 21.3867 11.3956C21.3867 11.3956 21.28 11.1556 21.3867 11.0934C21.5011 11.2181 21.6328 11.3259 21.7778 11.4134V11.0934L21.9289 11.1911V10.8267L22.1956 11.0934V10.8978C22.2642 10.9354 22.3355 10.9681 22.4089 10.9956C22.3926 10.8298 22.3599 10.666 22.3111 10.5067L22.5511 10.6223V10.3911L22.7289 10.5067L22.6578 10.16L22.8533 10.4267V10.2223L23.0044 10.3734" stroke="#FFD1AC" stroke-width="0.07" stroke-miterlimit="10"/>
<path d="M22.96 7.4845C23.0673 7.52215 23.163 7.58698 23.2378 7.67267C23.3126 7.75835 23.3639 7.86196 23.3867 7.97339C23.096 7.89055 22.7985 7.83403 22.4978 7.8045" stroke="#FFD1AC" stroke-width="0.07" stroke-miterlimit="10"/>
<path d="M22.2756 7.6356C22.359 7.6356 22.4267 7.56794 22.4267 7.48449C22.4267 7.40103 22.359 7.33337 22.2756 7.33337C22.1921 7.33337 22.1244 7.40103 22.1244 7.48449C22.1244 7.56794 22.1921 7.6356 22.2756 7.6356Z" fill="#2B2B28"/>
<path d="M22.5689 7.52893C22.5689 7.52893 22.3644 7.13782 21.84 7.52893" stroke="#FFD1AC" stroke-width="0.07" stroke-miterlimit="10"/>
<path d="M21.8222 7.48441C21.8222 7.48441 21.6267 7.80441 21.7156 8.00885C21.8044 8.2133 22.0622 8.1333 22.16 8.10663C22.2578 8.07996 22.0444 8.68441 22.3111 8.91552C22.5778 9.14663 22.8089 9.06663 22.8711 8.68441C22.9333 8.30219 22.5422 7.95552 22.56 7.8933C22.5778 7.83108 22.6844 7.69774 22.9422 7.58219C23.0446 7.5243 23.1199 7.42817 23.1516 7.31487C23.1832 7.20157 23.1687 7.08033 23.1111 6.97774C23.1111 6.97774 23.3067 6.6933 23.1111 6.54219C23.1111 6.54219 23.0489 6.72885 22.9333 6.75552C22.8178 6.78219 22.9333 6.30219 22.7911 6.23996C22.7911 6.23996 22.88 6.58663 22.7022 6.6133C22.7022 6.6133 22.7022 6.1333 22.4711 6.07108C22.4711 6.07108 22.6044 6.52441 22.3822 6.51552C22.3822 6.51552 22.1156 5.93774 21.9822 6.02663L21.3333 7.28885C21.6984 7.2353 22.0666 7.20561 22.4356 7.19996C22.5165 7.22658 22.5848 7.28208 22.6275 7.35586C22.6701 7.42964 22.684 7.51654 22.6667 7.59996C22.6667 7.78663 22.3378 7.91107 22.3378 7.91107L21.8222 7.48441Z" fill="#FF0031"/>
<path d="M23.2622 7.93782C23.1734 7.83037 23.0515 7.75536 22.9156 7.72449" stroke="#FFD1AC" stroke-width="0.07" stroke-miterlimit="10"/>
<path d="M16.8889 9.32447C16.7657 9.19977 16.619 9.10076 16.4572 9.03319C16.2955 8.96561 16.122 8.93082 15.9467 8.93082C15.7714 8.93082 15.5978 8.96561 15.4361 9.03319C15.2744 9.10076 15.1276 9.19977 15.0044 9.32447C13.9378 10.2134 13.7956 9.25336 13.7956 9.25336C13.7956 9.25336 13.6356 9.00447 13.0933 9.39558C12.5511 9.78669 12.0356 9.61781 11.3778 9.86669C10.6716 10.3287 10.1156 10.9867 9.77778 11.76C9.9435 10.8005 10.4758 9.94308 11.2622 9.36892C11.692 9.01345 12.2162 8.79128 12.7705 8.72969C13.3247 8.66811 13.8849 8.76979 14.3822 9.02225L14.1156 8.13336C13.968 8.07052 13.8093 8.03814 13.6489 8.03814C13.4885 8.03814 13.3298 8.07052 13.1822 8.13336C12.6311 8.3378 12.0622 8.13336 11.7689 8.13336C11.4756 8.13336 9.02222 8.38225 8.27556 9.17336C8.80624 8.39649 9.58758 7.82539 10.4889 7.55558C11.3119 7.22622 12.2069 7.11893 13.0844 7.24447C13.5904 7.31953 14.1029 7.34039 14.6133 7.30669C14.6756 7.30669 13.7689 6.84447 13.7689 6.84447C13.7689 6.84447 14.0178 6.50669 12.5422 6.44447C11.0667 6.38225 10.6667 6.44447 10.1956 6.40003C9.40701 6.40787 8.62331 6.52453 7.86667 6.74669C7.86667 6.74669 8.28445 6.36447 10.9067 6.12447C12.2896 5.92232 13.7014 6.13904 14.96 6.74669L15.6444 7.29781L16.4178 7.72447L17.12 8.61336C16.9798 8.48784 16.8096 8.40062 16.6259 8.36013C16.4421 8.31964 16.2511 8.32726 16.0711 8.38225C16.3931 8.64976 16.6694 8.96801 16.8889 9.32447Z" fill="#008A46"/>
<path d="M11.92 7.85781H9.67111L10.3911 8.49781L12.1689 14.1778V14.8534L11.4756 15.6623L14.1422 15.8845L13.3333 14.9956L14.5511 11.1556C14.5511 11.1556 17.3511 14.7911 17.3333 14.9867C17.3156 15.1823 16.2311 16.1067 16.2311 16.1067L20.2311 16.3734L18.88 15.1111L18.9422 14.4623L21.9378 6.1867C21.9841 6.06417 22.0651 5.95776 22.1708 5.88043C22.2766 5.8031 22.4025 5.75818 22.5333 5.75114L22.9511 5.68892V5.08447L18.3822 5.51114V6.06225H19.5822C19.5822 6.06225 19.9467 6.06225 19.8222 6.39114C19.6978 6.72003 17.6533 13.4311 17.6533 13.4311L14.9156 9.87558L15.4489 7.7867C15.5331 7.58331 15.6745 7.40871 15.8559 7.28407C16.0374 7.15942 16.2511 7.09009 16.4711 7.08447H16.8889V6.47114L11.5556 6.86225C12.3176 6.91648 13.075 7.0234 13.8222 7.18225C14.0711 7.31558 14.1156 7.66225 13.9378 8.32892C13.76 8.99558 12.5511 13.0578 12.5511 13.0578L11.36 8.88892C11.36 8.88892 11.1733 8.45336 11.5556 8.32892C11.9378 8.20447 11.9467 8.2667 11.9467 8.2667L11.92 7.85781Z" fill="#2B2B28"/>
<path d="M11.4844 7.85781H9.23556L9.95556 8.49781L11.7333 14.1778V14.8534L11.0311 15.6623L13.6978 15.8845L12.8889 14.9956L14.1156 11.1556C14.1156 11.1556 16.8889 14.7556 16.8889 14.9511C16.8889 15.1467 15.7778 16.0711 15.7778 16.0711L19.7867 16.3378L18.4444 15.1111L18.5067 14.4623L21.5022 6.1867C21.5486 6.06417 21.6295 5.95776 21.7353 5.88043C21.841 5.8031 21.967 5.75818 22.0978 5.75114L22.5156 5.68892V5.08447L17.9467 5.51114V6.06225H19.1556C19.1556 6.06225 19.5111 6.06225 19.3956 6.39114C19.28 6.72003 17.2178 13.4311 17.2178 13.4311L14.48 9.87558L15.0133 7.7867C15.0991 7.58261 15.2421 7.4077 15.425 7.28309C15.608 7.15848 15.8231 7.0895 16.0444 7.08447H16.4089V6.47114L11.0756 6.86225C11.8347 6.91597 12.5892 7.0229 13.3333 7.18225C13.5911 7.31558 13.6267 7.66225 13.4578 8.32892C13.2889 8.99558 12.0622 13.0578 12.0622 13.0578L10.9244 8.88892C10.9244 8.88892 10.7378 8.45336 11.12 8.32892C11.5022 8.20447 11.5022 8.2667 11.5022 8.2667L11.4844 7.85781Z" fill="#F90017"/>
<path d="M11.4222 19.7778H10.9778L10.4533 18.2489L9.92 19.7778H9.47556L8.67556 17.4222H9.22667L9.71556 19.0045L10.24 17.4222H10.6667L11.1911 19.0045L11.68 17.4222H12.2133L11.4222 19.7778Z" fill="#F90017"/>
<path d="M12.5511 19.76V17.4222H13.0578V19.76H12.5511Z" fill="#F90017"/>
<path d="M14.4356 19.76H13.5467V17.4222H14.4356C14.5951 17.4112 14.7551 17.4332 14.9058 17.4868C15.0564 17.5403 15.1944 17.6244 15.3112 17.7336C15.4279 17.8429 15.5209 17.975 15.5844 18.1217C15.6478 18.2685 15.6804 18.4267 15.68 18.5866C15.6816 18.7473 15.65 18.9065 15.587 19.0543C15.5241 19.2021 15.4313 19.3353 15.3144 19.4455C15.1976 19.5557 15.0591 19.6405 14.9079 19.6947C14.7566 19.7488 14.5958 19.771 14.4356 19.76ZM15.1467 18.5955C15.1519 18.5012 15.1371 18.4068 15.1031 18.3186C15.0691 18.2304 15.0167 18.1505 14.9495 18.0841C14.8822 18.0176 14.8016 17.9663 14.713 17.9334C14.6244 17.9005 14.5298 17.8868 14.4356 17.8933H14.0444V19.2977H14.4356C14.5291 19.3041 14.6228 19.2906 14.7108 19.2583C14.7988 19.2259 14.8789 19.1754 14.946 19.1099C15.0131 19.0445 15.0657 18.9657 15.1002 18.8786C15.1348 18.7915 15.1506 18.698 15.1467 18.6044V18.5955Z" fill="#F90017"/>
<path d="M17.3156 19.8045C17.1546 19.8092 16.9943 19.7818 16.8441 19.7237C16.6939 19.6656 16.5568 19.5781 16.4408 19.4663C16.3249 19.3546 16.2325 19.2207 16.169 19.0727C16.1055 18.9247 16.0722 18.7655 16.0711 18.6045C16.071 18.4427 16.1035 18.2825 16.1664 18.1335C16.2294 17.9845 16.3216 17.8496 16.4377 17.7369C16.5537 17.6241 16.6912 17.5358 16.842 17.4772C16.9928 17.4186 17.1538 17.3908 17.3156 17.3956C17.4772 17.3884 17.6385 17.4141 17.7899 17.4713C17.9412 17.5284 18.0793 17.6158 18.1957 17.7281C18.3122 17.8404 18.4045 17.9752 18.4672 18.1244C18.5298 18.2735 18.5614 18.4339 18.56 18.5956C18.5601 18.7574 18.5277 18.9176 18.4647 19.0666C18.4017 19.2156 18.3095 19.3505 18.1935 19.4632C18.0774 19.576 17.9399 19.6643 17.7891 19.7229C17.6383 19.7815 17.4773 19.8093 17.3156 19.8045ZM18.0178 18.5956C18.0213 18.5007 18.0059 18.4061 17.9723 18.3173C17.9387 18.2286 17.8877 18.1474 17.8223 18.0786C17.7568 18.0099 17.6783 17.9549 17.5912 17.917C17.5042 17.8791 17.4105 17.8589 17.3156 17.8578C17.2211 17.8578 17.1275 17.8768 17.0405 17.9137C16.9535 17.9507 16.8749 18.0048 16.8093 18.0728C16.7438 18.1409 16.6926 18.2215 16.6589 18.3098C16.6253 18.3981 16.6097 18.4923 16.6133 18.5867C16.6097 18.6812 16.6253 18.7753 16.6589 18.8636C16.6926 18.9519 16.7438 19.0325 16.8093 19.1006C16.8749 19.1687 16.9535 19.2228 17.0405 19.2597C17.1275 19.2967 17.2211 19.3157 17.3156 19.3156C17.4096 19.3169 17.503 19.299 17.5899 19.263C17.6769 19.2271 17.7556 19.1738 17.8213 19.1064C17.887 19.0391 17.9383 18.959 17.9721 18.8712C18.0059 18.7834 18.0214 18.6896 18.0178 18.5956Z" fill="#F90017"/>
<path d="M19.9822 19.76H19.0933V17.4222H19.9822C20.1417 17.4112 20.3018 17.4332 20.4524 17.4868C20.6031 17.5403 20.7411 17.6244 20.8578 17.7336C20.9746 17.8429 21.0676 17.975 21.131 18.1217C21.1945 18.2685 21.227 18.4267 21.2267 18.5866C21.2283 18.7473 21.1966 18.9065 21.1337 19.0543C21.0708 19.2021 20.978 19.3353 20.8611 19.4455C20.7442 19.5557 20.6058 19.6405 20.4545 19.6947C20.3033 19.7488 20.1425 19.771 19.9822 19.76ZM20.6933 18.5955C20.6986 18.5012 20.6837 18.4068 20.6497 18.3186C20.6157 18.2304 20.5634 18.1505 20.4961 18.0841C20.4289 18.0176 20.3483 17.9663 20.2597 17.9334C20.1711 17.9005 20.0765 17.8868 19.9822 17.8933H19.5556V19.2977H19.9467C20.0402 19.3041 20.134 19.2906 20.2219 19.2583C20.3099 19.2259 20.39 19.1754 20.4571 19.1099C20.5242 19.0445 20.5768 18.9657 20.6113 18.8786C20.6459 18.7915 20.6617 18.698 20.6578 18.6044L20.6933 18.5955Z" fill="#F90017"/>
<path d="M22.9156 19.8044C22.755 19.8092 22.5951 19.7817 22.4454 19.7235C22.2957 19.6653 22.1592 19.5777 22.0439 19.4658C21.9287 19.3539 21.8371 19.22 21.7746 19.072C21.7121 18.9241 21.6799 18.7651 21.68 18.6044C21.68 18.2744 21.8111 17.9579 22.0445 17.7245C22.2779 17.4911 22.5944 17.36 22.9244 17.36C23.2545 17.36 23.571 17.4911 23.8044 17.7245C24.0378 17.9579 24.1689 18.2744 24.1689 18.6044C24.1678 18.7662 24.1343 18.9262 24.0702 19.0748C24.0062 19.2234 23.9129 19.3576 23.7961 19.4695C23.6792 19.5815 23.541 19.6688 23.3898 19.7263C23.2385 19.7838 23.0773 19.8104 22.9156 19.8044ZM23.6267 18.5955C23.6303 18.4999 23.6145 18.4046 23.5804 18.3152C23.5463 18.2258 23.4944 18.1443 23.4281 18.0754C23.3617 18.0065 23.2821 17.9517 23.194 17.9143C23.1059 17.8769 23.0112 17.8577 22.9156 17.8578C22.8214 17.8576 22.7283 17.8767 22.6418 17.9137C22.5552 17.9508 22.4772 18.005 22.4123 18.0732C22.3474 18.1414 22.2971 18.2221 22.2644 18.3104C22.2318 18.3987 22.2174 18.4927 22.2222 18.5867C22.2186 18.6811 22.2341 18.7753 22.2678 18.8636C22.3015 18.9519 22.3527 19.0325 22.4182 19.1005C22.4838 19.1686 22.5624 19.2227 22.6494 19.2597C22.7364 19.2966 22.8299 19.3156 22.9244 19.3155C23.0185 19.3168 23.1119 19.2989 23.1988 19.263C23.2858 19.227 23.3645 19.1737 23.4302 19.1064C23.4959 19.039 23.5472 18.959 23.581 18.8712C23.6147 18.7833 23.6303 18.6896 23.6267 18.5955Z" fill="#F90017"/>
<path d="M9.96444 23.3156L9.36889 21.7245V23.3156H8.88889V20.88H9.49333L10.1422 22.5956L10.7911 20.88H11.3867V23.3156H10.9067V21.7245L10.3111 23.3156H9.96444Z" fill="#F90017"/>
<path d="M13.1111 20.88L14.0444 23.3156H13.5289L13.3333 22.7289H12.4444L12.2311 23.3156H11.7244L12.6133 20.88H13.1111ZM12.56 22.3022H13.1467L12.8533 21.4933L12.56 22.3022Z" fill="#F90017"/>
<path d="M14.8444 21.9733L15.7333 20.88H16.3467L15.4578 21.9733L16.4178 23.3156H15.8044L15.1111 22.32L14.88 22.5956V23.3156H14.3733V20.88H14.88L14.8444 21.9733Z" fill="#F90017"/>
<path d="M17.7778 23.3156L17.1733 21.7245V23.3156H16.6933V20.88H17.2978L17.9467 22.5956L18.5956 20.88H19.1911V23.3156H18.6667V21.7245L18.0711 23.3156H17.7778Z" fill="#F90017"/>
<path d="M19.6089 22.3378V20.88H20.1156V22.2844C20.1156 22.7022 20.3022 22.8978 20.6222 22.8978C20.9422 22.8978 21.1289 22.7022 21.1289 22.2844V20.88H21.6356V22.3378C21.6356 22.6065 21.5288 22.8643 21.3388 23.0543C21.1487 23.2444 20.891 23.3511 20.6222 23.3511C20.3535 23.3511 20.0957 23.2444 19.9057 23.0543C19.7156 22.8643 19.6089 22.6065 19.6089 22.3378Z" fill="#F90017"/>
<path d="M22.5689 22.4089V23.2978H22.0622V20.88H23.1111C23.2224 20.86 23.3368 20.8652 23.4458 20.8952C23.5548 20.9252 23.6556 20.9794 23.7409 21.0536C23.8263 21.1278 23.8938 21.2202 23.9387 21.324C23.9835 21.4278 24.0045 21.5404 24 21.6533C24.0099 21.8195 23.9596 21.9837 23.8585 22.1159C23.7573 22.2481 23.6119 22.3395 23.4489 22.3733L24 23.3156H23.4311L22.8267 22.4267L22.5689 22.4089ZM22.5689 21.9911H23.04C23.2889 21.9911 23.4222 21.8578 23.4222 21.6533C23.4222 21.4489 23.2889 21.3333 23.04 21.3333H22.5689V21.9911Z" fill="#F90017"/>
<path d="M9.96445 26.8889C9.82004 26.9091 9.67293 26.8958 9.53449 26.85C9.39604 26.8043 9.26997 26.7273 9.16601 26.6251C9.06206 26.5229 8.983 26.3981 8.93495 26.2604C8.8869 26.1228 8.87114 25.9759 8.88889 25.8312V24.4623H9.41333V25.7778C9.41333 26.1689 9.60889 26.3734 9.92889 26.3734C10.2489 26.3734 10.4444 26.1778 10.4444 25.7956V24.4623H10.9778V25.7778C11.0009 25.9206 10.9914 26.0667 10.9502 26.2052C10.9089 26.3438 10.8368 26.4713 10.7394 26.5781C10.642 26.6849 10.5217 26.7684 10.3875 26.8222C10.2533 26.876 10.1087 26.8988 9.96445 26.8889Z" fill="black"/>
<path d="M13.2267 26.8534L12.0622 25.3334V26.8534H11.5556V24.4623H12.0444L13.1644 25.9378V24.4623H13.68V26.8534H13.2267Z" fill="black"/>
<path d="M15.3956 26.8978C15.2302 26.9066 15.0648 26.8808 14.9099 26.822C14.7551 26.7633 14.6142 26.6729 14.4962 26.5566C14.3783 26.4403 14.2859 26.3008 14.2249 26.1468C14.164 25.9928 14.1358 25.8278 14.1422 25.6623C14.141 25.4982 14.1727 25.3355 14.2355 25.1839C14.2983 25.0322 14.3908 24.8947 14.5077 24.7795C14.6246 24.6643 14.7634 24.5737 14.9159 24.5131C15.0684 24.4525 15.2315 24.4231 15.3956 24.4267C15.7379 24.4088 16.0734 24.527 16.3289 24.7556L16 25.1556C15.8316 24.9979 15.6085 24.9118 15.3778 24.9156C15.2832 24.919 15.1902 24.9411 15.1042 24.9805C15.0181 25.0199 14.9407 25.0758 14.8763 25.1452C14.8119 25.2145 14.7618 25.2959 14.7289 25.3846C14.696 25.4734 14.6809 25.5677 14.6844 25.6623C14.6796 25.7609 14.6949 25.8596 14.7294 25.9521C14.7638 26.0447 14.8168 26.1293 14.8849 26.2008C14.9531 26.2723 15.0351 26.3292 15.1259 26.368C15.2168 26.4069 15.3145 26.4268 15.4133 26.4267C15.5906 26.4271 15.764 26.3745 15.9111 26.2756V25.9378H15.3778V25.4845H16.4178V26.5245C16.1311 26.7645 15.7694 26.8966 15.3956 26.8978Z" fill="black"/>
<path d="M18.0711 26.8978C17.9061 26.9052 17.7412 26.8785 17.587 26.8192C17.4328 26.76 17.2924 26.6695 17.1748 26.5536C17.0571 26.4376 16.9647 26.2985 16.9032 26.1452C16.8418 25.9918 16.8127 25.8274 16.8178 25.6622C16.8166 25.4981 16.8483 25.3354 16.911 25.1838C16.9738 25.0322 17.0664 24.8947 17.1832 24.7795C17.3001 24.6643 17.4389 24.5737 17.5914 24.5131C17.7439 24.4525 17.907 24.4231 18.0711 24.4267C18.4162 24.4083 18.7546 24.5264 19.0133 24.7556L18.6756 25.1556C18.5072 24.9978 18.284 24.9118 18.0533 24.9156C17.8639 24.9248 17.6858 25.0084 17.5576 25.1482C17.4295 25.288 17.3616 25.4727 17.3689 25.6622C17.3628 25.7604 17.3769 25.8589 17.4104 25.9514C17.4438 26.044 17.4959 26.1287 17.5634 26.2003C17.6309 26.272 17.7123 26.329 17.8027 26.3679C17.8931 26.4069 17.9905 26.4269 18.0889 26.4267C18.2668 26.4312 18.4413 26.3782 18.5867 26.2756V25.9378H18.0533V25.4844H19.0933V26.5244C18.8075 26.7658 18.4453 26.8981 18.0711 26.8978Z" fill="black"/>
<path d="M21.3778 26.8533L21.1644 26.32H20.1511L19.9289 26.8533H19.3956L20.4444 24.4445H20.9333L21.9556 26.8533H21.3778ZM20.6578 25.0756L20.3378 25.8489H20.9778L20.6578 25.0756Z" fill="black"/>
<path d="M23.1111 26.8889C22.7354 26.8891 22.3723 26.7533 22.0889 26.5066L22.4 26.1333C22.5977 26.3132 22.8528 26.4172 23.12 26.4266C23.3333 26.4266 23.4667 26.3377 23.4667 26.1955C23.4667 26.0622 23.3778 26 22.9778 25.8933C22.5778 25.7866 22.2222 25.6266 22.2222 25.1555C22.2252 25.0518 22.2497 24.9498 22.2943 24.8561C22.3389 24.7624 22.4026 24.679 22.4812 24.6112C22.5598 24.5435 22.6517 24.4928 22.751 24.4626C22.8502 24.4323 22.9547 24.4231 23.0578 24.4355C23.3803 24.4291 23.6949 24.536 23.9467 24.7377L23.68 25.1377C23.4932 24.9863 23.2625 24.899 23.0222 24.8889C22.8267 24.8889 22.72 24.9866 22.72 25.1022C22.72 25.2622 22.8178 25.3155 23.2356 25.4222C23.6533 25.5289 23.9911 25.7155 23.9911 26.1333C24 26.6666 23.6356 26.8889 23.1111 26.8889Z" fill="black"/>
</g>
<defs>
<clipPath id="clip0_2707_261288">
<rect width="32" height="32" fill="white"/>
</clipPath>
</defs>
</svg>
