<svg width="32" height="32" viewBox="0 0 32 32" fill="none" xmlns="http://www.w3.org/2000/svg">
<g clip-path="url(#clip0_2707_259913)">
<path d="M16 31.9822C24.8267 31.9822 31.9822 24.8267 31.9822 16C31.9822 7.17325 24.8267 0.0177612 16 0.0177612C7.17326 0.0177612 0.0177765 7.17325 0.0177765 16C0.0177765 24.8267 7.17326 31.9822 16 31.9822Z" fill="white"/>
<path d="M22.1244 9.09332C22.1244 9.09332 24.2133 9.09332 25.1378 10.0444C25.5611 10.4406 25.8136 10.9859 25.8418 11.5649C25.87 12.144 25.6717 12.7113 25.2889 13.1467C24.6655 13.9195 23.9819 14.6418 23.2444 15.3067C23.2444 15.3511 23.0311 15.3067 22.9689 15.2533C22.9067 15.2 22.7022 14.9511 22.88 14.8178C23.0578 14.6844 24.6578 13.1555 24.5511 12.1511C24.4444 11.1467 24.2844 10.1155 21.8844 9.73332C21.8844 9.73332 21.8844 9.09332 22.1067 9.10221" fill="#C31D2D"/>
<path d="M6.47111 16.6933L7.68 16.3378C7.68 16.3378 8.67556 13.6711 13.1556 11.4578C13.1556 11.4578 13.4133 11.0311 12.8178 11.1733C12.2222 11.3155 7.48444 13.68 6.47111 16.6933Z" fill="#C31D2D"/>
<path d="M13.3867 10.9778C13.3867 10.9778 13.2711 11.4311 13.7422 11.2444C16.1374 10.2013 18.7209 9.65976 21.3333 9.65333C21.3333 9.65333 21.3333 9.65333 21.5022 9.42222C21.6711 9.19111 21.68 9.11111 21.44 9.11111C18.6299 9.01784 15.8444 9.66136 13.36 10.9778" fill="#C31D2D"/>
<path d="M6.05333 22.4266V24.8889H7.18222L8.07111 23.3689V24.8889H9.01333L10.6311 22.4533H9.56444L8.74667 23.7955V22.4266H8L7.11111 23.76V22.4266H6.05333Z" fill="#2E3892"/>
<path d="M21.2 22.4266H23.9289L23.6444 23.1111H22.7556L22.2222 24.8889H21.2622L21.8933 23.1111H21.2V22.4266Z" fill="#2E3892"/>
<path d="M20.0711 22.4266L19.2711 24.8889H20.24L21.0044 22.4533L20.0711 22.4266Z" fill="#2E3892"/>
<path d="M16.8178 22.4266L15.9289 24.8622H16.9778L17.4133 23.8666H17.7778L18.1333 24.8622H19.1911L18.5867 23.3689L19.8222 22.4266H18.5511L17.7778 23.1111H17.5467L17.7867 22.4266H16.8178Z" fill="#2E3892"/>
<path d="M16.1689 23.1111C16.1689 23.1111 16.1689 22.4355 15.5644 22.4355H14.2222C14.2222 22.4355 13.3333 22.5955 13.3333 23.3244C13.3333 23.6 13.5022 23.8578 14.5422 23.8578C14.6667 23.8578 14.9778 23.8133 14.9778 24.0089C14.9778 24.2044 14.9778 24.2844 14.8 24.2755C14.6222 24.2667 13.9822 24.2755 13.9556 24.0089H12.9244C12.9228 24.1849 12.9735 24.3574 13.07 24.5045C13.1666 24.6517 13.3046 24.7669 13.4667 24.8355H15.0311C15.0933 24.8355 16.0622 24.5067 16.0622 23.8844C16.0622 23.5289 15.3333 23.2622 14.8978 23.2533C14.4622 23.2444 14.2044 23.2533 14.2133 22.9778C14.2222 22.7022 14.4889 22.8178 14.6489 22.8178C14.743 22.8288 14.8334 22.8609 14.9135 22.9117C14.9935 22.9625 15.061 23.0306 15.1111 23.1111H16.1689Z" fill="#2E3892"/>
<path d="M11.3067 22.4266L9.41333 24.8889H10.5422L10.7733 24.4889H11.6622L11.7333 24.8889H12.6756V22.4266H11.3067ZM11.6444 24H11.0222L11.6444 23.2977V24Z" fill="#2E3892"/>
<path d="M24.6133 22.4266L22.7111 24.8889H23.84L24.08 24.4889H24.8889L24.9689 24.8889H25.9111V22.4266H24.6133ZM25.0578 24.0177H24.4356L25.0578 23.3155V24.0177Z" fill="#2E3892"/>
<path d="M18.8889 7.11108H19.92L18.3822 9.8222L16.1333 13.8489C16.0719 13.9607 16.0458 14.0885 16.0585 14.2155C16.0712 14.3424 16.1221 14.4625 16.2044 14.56C16.4978 15.0222 17.7333 17.3511 17.7333 17.3511C17.7333 17.3511 17.84 17.6 18.0444 17.2355C18.2489 16.8711 23.8222 7.11108 23.8222 7.11108H24.7822L19.1644 17.2L17.2533 20.3822C17.2024 20.4325 17.1412 20.471 17.0738 20.495C17.0064 20.519 16.9346 20.5279 16.8634 20.5211C16.7922 20.5143 16.7233 20.492 16.6617 20.4557C16.6001 20.4194 16.5471 20.3701 16.5067 20.3111C16.1778 19.8666 14.64 17.0755 14.64 17.0755C14.64 17.0755 14.4533 16.7911 14.3022 17.0755C14.1511 17.36 12.5244 20.2666 12.5244 20.2666C12.4632 20.3396 12.3854 20.3968 12.2975 20.4334C12.2096 20.47 12.1142 20.4851 12.0193 20.4772C11.9244 20.4694 11.8328 20.4389 11.7521 20.3884C11.6714 20.3378 11.604 20.2686 11.5556 20.1866C11.12 19.4133 8.60444 15.04 8.60444 15.04C8.51991 14.5435 8.57215 14.0334 8.75555 13.5644C8.99351 13.1375 9.26082 12.7276 9.55555 12.3378C9.69777 12.2133 10.0978 12.2489 10.3378 12.7111C10.5778 13.1733 12.8978 17.3155 12.8978 17.3155C12.8978 17.3155 13.0222 17.5555 13.2533 17.1466C13.4844 16.7378 13.8578 16.0355 13.8578 16.0355C13.9067 15.9634 13.9328 15.8782 13.9328 15.7911C13.9328 15.7039 13.9067 15.6188 13.8578 15.5466C13.7067 15.2889 13.0667 14.8089 13.3956 14.0533C13.6719 13.4669 14.0022 12.9074 14.3822 12.3822C14.4407 12.3459 14.5059 12.322 14.5739 12.3117C14.642 12.3015 14.7114 12.3053 14.7779 12.3227C14.8444 12.3402 14.9067 12.371 14.9609 12.4133C15.0152 12.4557 15.0602 12.5086 15.0933 12.5689C15.2622 12.7822 15.4133 13.4044 15.6178 12.9422C15.8222 12.48 18.8889 7.11108 18.8889 7.11108Z" fill="#2E3892"/>
<path d="M6.39111 17.1022L7.46666 16.7822C7.46666 16.7822 7.6 16.72 7.60889 17.1022C7.65946 17.5303 7.84823 17.9303 8.14659 18.2415C8.44494 18.5527 8.8366 18.7581 9.26222 18.8266C10.3608 19.0314 11.4814 19.0911 12.5956 19.0044C13.2711 18.9511 14.1778 18.9422 14.1778 18.9422V19.3155C12.9698 19.5182 11.7489 19.6341 10.5244 19.6622C8.95111 19.6622 6.47111 19.6089 6.39111 17.1022Z" fill="#C31D2D"/>
<path d="M22.3644 15.2178C22.3644 15.2178 20.4089 17.3333 14.6489 18.7733V19.2267C14.6489 19.2267 19.8133 18.0889 22.8 15.5378L22.3644 15.2178Z" fill="#C31D2D"/>
</g>
<defs>
<clipPath id="clip0_2707_259913">
<rect width="32" height="32" fill="white"/>
</clipPath>
</defs>
</svg>
