<svg width="32" height="32" viewBox="0 0 32 32" fill="none" xmlns="http://www.w3.org/2000/svg">
<g clip-path="url(#clip0_2707_259513)">
<path d="M16 31.9822C24.8267 31.9822 31.9822 24.8268 31.9822 16C31.9822 7.17328 24.8267 0.0177917 16 0.0177917C7.17326 0.0177917 0.0177765 7.17328 0.0177765 16C0.0177765 24.8268 7.17326 31.9822 16 31.9822Z" fill="white"/>
<path d="M18.8889 20.32L18.8444 20.2311C18.8 20.0623 18.6756 20.0534 18.5333 20.0623C18.1511 20.0977 17.767 20.0171 17.4311 19.8311C17.1749 19.6951 16.956 19.4984 16.7933 19.2582C16.6306 19.018 16.5291 18.7417 16.4978 18.4534V18.3734C16.5018 18.3379 16.5018 18.3021 16.4978 18.2667V13.9822C16.5018 13.9468 16.5018 13.911 16.4978 13.8756C16.5319 13.4915 16.6858 13.1278 16.9378 12.8359C17.1898 12.544 17.5272 12.3387 17.9022 12.2489C18.0508 12.2137 18.2029 12.1958 18.3556 12.1956H20.0533C20.0839 12.2012 20.1154 12.1951 20.1417 12.1787C20.168 12.1623 20.1872 12.1366 20.1956 12.1067C20.2849 11.8891 20.4166 11.6915 20.5829 11.5252C20.7492 11.3588 20.9469 11.2272 21.1644 11.1378C21.4449 11.0062 21.7453 10.9221 22.0533 10.8889H22.1156H22.8444H22.8978C23.1661 10.9453 23.4304 11.0195 23.6889 11.1111C23.9219 11.2037 24.1336 11.3429 24.3109 11.5202C24.4883 11.6975 24.6275 11.9092 24.72 12.1422C24.7332 12.1579 24.7495 12.1707 24.7678 12.1799C24.7862 12.1891 24.8062 12.1944 24.8267 12.1956H26.4C26.8829 12.1883 27.3494 12.3702 27.6999 12.7024C28.0504 13.0346 28.257 13.4908 28.2756 13.9734V18.2667C28.2597 18.4319 28.2299 18.5954 28.1867 18.7556C28.0727 19.137 27.8375 19.4709 27.5167 19.7067C27.1959 19.9425 26.807 20.0673 26.4089 20.0623C26.2133 20.0623 26 20.0178 25.9378 20.2934C25.8259 20.4465 25.6733 20.5652 25.4973 20.6359C25.3213 20.7066 25.129 20.7265 24.9422 20.6934C24.7952 20.672 24.6549 20.6178 24.5318 20.5347C24.4086 20.4516 24.3059 20.3417 24.2311 20.2134C24.2311 20.0889 24.1333 20.0534 24.0089 20.0534C22.9422 20.0534 21.8667 20.0534 20.8 20.0534C20.7494 20.0456 20.6978 20.0581 20.6562 20.088C20.6147 20.1179 20.5865 20.1629 20.5778 20.2134C20.4732 20.3786 20.322 20.5091 20.1431 20.5883C19.9643 20.6674 19.766 20.6916 19.5733 20.6578C19.3104 20.6369 19.0654 20.516 18.8889 20.32ZM27.0578 19.4845H27.1022C27.2942 19.3555 27.4508 19.1807 27.558 18.9757C27.6651 18.7708 27.7193 18.5423 27.7156 18.3111V14.0445C27.7156 13.6673 27.5657 13.3055 27.299 13.0388C27.0323 12.7721 26.6705 12.6222 26.2933 12.6222H18.3556C18.2296 12.619 18.1039 12.634 17.9822 12.6667C17.7633 12.7159 17.5601 12.8189 17.3909 12.9663C17.2218 13.1138 17.092 13.301 17.0133 13.5111V13.5645V13.6267L16.9689 13.8045C16.9689 13.8489 16.9689 13.8845 16.9689 13.92V18.2045C16.9645 18.2488 16.9645 18.2935 16.9689 18.3378C16.9836 18.5875 17.0669 18.8283 17.2096 19.0338C17.3523 19.2392 17.5489 19.4013 17.7778 19.5023H17.8844H17.9378H18H18.0711C18.1334 19.5294 18.1992 19.5474 18.2667 19.5556H26.5156C26.5717 19.5605 26.6283 19.5605 26.6844 19.5556H26.7467C26.8 19.5556 26.8444 19.5556 26.8711 19.5556H26.9244H26.9689H27.0311L27.0578 19.4845ZM20.8356 12.1867H24C23.8216 11.9642 23.5937 11.7864 23.3344 11.6676C23.0751 11.5488 22.7917 11.4922 22.5067 11.5022C22.1933 11.4705 21.877 11.5164 21.5856 11.6357C21.2942 11.7551 21.0366 11.9443 20.8356 12.1867ZM25.68 20.0711H24.5511C24.614 20.1615 24.6977 20.2353 24.7952 20.2863C24.8927 20.3374 25.0011 20.3642 25.1111 20.3645C25.2231 20.3681 25.3341 20.343 25.4336 20.2917C25.5332 20.2403 25.618 20.1644 25.68 20.0711ZM20.2578 20.0711H19.1556C19.2143 20.1641 19.2957 20.2406 19.3921 20.2934C19.4885 20.3463 19.5967 20.3738 19.7067 20.3734C19.8163 20.3722 19.9239 20.344 20.0201 20.2913C20.1162 20.2386 20.1978 20.1629 20.2578 20.0711Z" fill="#2F2E2C"/>
<path d="M24.24 20.2133C24.3263 20.3591 24.4475 20.4812 24.5927 20.5685C24.7379 20.6559 24.9025 20.7057 25.0718 20.7137C25.241 20.7216 25.4096 20.6873 25.5623 20.614C25.715 20.5406 25.8471 20.4304 25.9467 20.2933C26.2222 20.2933 26.5067 20.3378 26.7911 20.3822C27.0756 20.4267 27.2711 20.4889 27.52 20.5511C27.5499 20.5692 27.572 20.5977 27.5822 20.6311C27.5786 20.6483 27.5711 20.6644 27.5603 20.6783C27.5496 20.6922 27.5358 20.7034 27.52 20.7111C27.437 20.7486 27.3507 20.7784 27.2622 20.8C26.9156 20.8533 26.5778 20.9067 26.24 20.9422C25.9022 20.9778 25.4044 21.0222 24.9867 21.0489C24.72 21.0489 24.4444 21.0489 24.1778 21.0489C24.1778 21.0489 24.1244 21.0489 24.0978 21.0933H20.6756L20.5956 21.0489H19.8489L18.8 20.9689C18.4533 20.9689 18.0889 20.8889 17.7333 20.8356C17.5846 20.8077 17.4388 20.766 17.2978 20.7111C17.2766 20.7111 17.2562 20.7027 17.2412 20.6877C17.2262 20.6727 17.2178 20.6523 17.2178 20.6311C17.2178 20.6099 17.2262 20.5896 17.2412 20.5746C17.2562 20.5595 17.2766 20.5511 17.2978 20.5511C17.3802 20.5123 17.4667 20.4825 17.5556 20.4622L18.3911 20.3378C18.5651 20.3142 18.7401 20.2993 18.9156 20.2933C19.0163 20.4186 19.1449 20.5186 19.2912 20.5853C19.4374 20.652 19.5972 20.6836 19.7579 20.6775C19.9185 20.6715 20.0755 20.628 20.2163 20.5505C20.3571 20.473 20.4779 20.3636 20.5689 20.2311V20.1867H20.9867H22.16H22.8622L24.24 20.2133Z" fill="#DBDBDB"/>
<path d="M7.18222 15.3067L7.24444 15.2356L7.31556 15.1467L7.40444 15.0667L7.46667 15.0222H7.51111C7.67154 14.9714 7.83478 14.9298 8 14.8978C8.14695 14.8711 8.2975 14.8711 8.44444 14.8978C8.62199 14.9417 8.79706 14.9951 8.96889 15.0578L9.05778 15.12V15.1644L9.11111 15.2089C9.11111 15.28 9.16444 15.2622 9.18222 15.2089C9.2 15.1556 9.18222 15.0133 9.18222 14.9156H9.84889C9.84889 14.9156 9.91111 14.9689 9.91111 14.9956V18.0267C9.91111 18.0889 9.91111 18.1156 9.82222 18.1156H9.77778C9.52 18.1156 9.52 18.1156 9.49333 17.8578V17.8044V17.8489L9.42222 17.9111H9.34222C9.1838 18.0107 9.00413 18.0717 8.81778 18.0889C8.63007 18.114 8.43917 18.0989 8.25778 18.0444C8.15111 18.0444 8.04444 17.9733 7.92889 17.9378L7.60889 17.7778H7.54667H7.50222L7.41333 17.6978L7.36889 17.6444L7.32444 17.5822L7.11111 17.28C7.11638 17.2596 7.11638 17.2382 7.11111 17.2178C6.99394 16.9873 6.92342 16.736 6.90359 16.4782C6.88376 16.2204 6.91501 15.9612 6.99556 15.7156L7.07556 15.4489H7.11111L7.18222 15.3067ZM7.71556 16.32V16.4444C7.71556 16.6802 7.80921 16.9063 7.97591 17.073C8.1426 17.2397 8.3687 17.3333 8.60444 17.3333C8.68983 17.347 8.77684 17.347 8.86222 17.3333C9.04786 17.2731 9.20851 17.1534 9.31936 16.9927C9.4302 16.8321 9.4851 16.6394 9.47556 16.4444C9.50804 16.2938 9.50077 16.1372 9.45447 15.9902C9.40818 15.8431 9.32443 15.7107 9.21147 15.6058C9.09851 15.5009 8.96021 15.4272 8.81015 15.3919C8.66009 15.3566 8.50343 15.3609 8.35556 15.4044C8.16027 15.4609 7.99023 15.5825 7.87377 15.7491C7.75731 15.9157 7.70147 16.1172 7.71556 16.32Z" fill="#2495B8"/>
<path d="M3.70667 13.5645C4.24968 13.5468 4.79326 13.5675 5.33333 13.6267C5.57697 13.6712 5.79802 13.7978 5.95973 13.9854C6.12145 14.173 6.21408 14.4103 6.22222 14.6578C6.25339 14.8402 6.25339 15.0265 6.22222 15.2089C6.15733 15.4569 6.01416 15.6774 5.81398 15.8375C5.61381 15.9976 5.36731 16.0889 5.11111 16.0978H4.49778V17.9556H3.70667V13.5645ZM4.54222 15.28C4.73755 15.2932 4.93355 15.2932 5.12889 15.28C5.22799 15.2755 5.32168 15.2336 5.39099 15.1626C5.46031 15.0916 5.50007 14.997 5.50222 14.8978C5.50838 14.8443 5.50343 14.7901 5.48767 14.7386C5.47191 14.6871 5.44568 14.6394 5.41063 14.5985C5.37558 14.5576 5.33247 14.5244 5.28399 14.501C5.2355 14.4775 5.1827 14.4643 5.12889 14.4622C4.94222 14.4622 4.73778 14.4622 4.54222 14.4622C4.5333 14.4851 4.5333 14.5105 4.54222 14.5333V15.2889C4.54233 15.2859 4.54233 15.283 4.54222 15.28Z" fill="#2495B8"/>
<path d="M13.0756 15.1822L12.56 15.6622L12.3111 15.4667C12.1984 15.3926 12.0618 15.3641 11.9289 15.3867C11.8835 15.389 11.84 15.4058 11.8049 15.4346C11.7697 15.4634 11.7446 15.5026 11.7333 15.5467C11.7263 15.5888 11.7339 15.6321 11.7549 15.6693C11.776 15.7065 11.8091 15.7354 11.8489 15.7511C12.0444 15.8489 12.24 15.9378 12.4267 16.0444L12.7111 16.2222C12.8725 16.3271 12.9987 16.4782 13.0732 16.6557C13.1477 16.8332 13.1671 17.0291 13.1289 17.2178C13.1026 17.397 13.0248 17.5647 12.9048 17.7005C12.7848 17.8362 12.628 17.9341 12.4533 17.9822C12.1895 18.0787 11.9028 18.0939 11.6302 18.0258C11.3577 17.9576 11.1118 17.8093 10.9244 17.6L10.8356 17.4933L11.3156 16.96C11.4844 17.0578 11.6267 17.1644 11.7867 17.2533C11.9064 17.3018 12.0403 17.3018 12.16 17.2533C12.2075 17.243 12.2515 17.2203 12.2874 17.1875C12.3233 17.1548 12.3499 17.1131 12.3644 17.0667C12.3782 17.0192 12.3751 16.9685 12.3557 16.9231C12.3362 16.8777 12.3016 16.8405 12.2578 16.8178C12.1067 16.7111 11.9378 16.6311 11.7778 16.5333C11.5923 16.4314 11.4167 16.3123 11.2533 16.1778C11.1486 16.0845 11.0674 15.9678 11.0164 15.8371C10.9654 15.7064 10.946 15.5656 10.9599 15.426C10.9738 15.2864 11.0205 15.1521 11.0962 15.034C11.1719 14.916 11.2745 14.8175 11.3956 14.7467C11.6795 14.597 12.0091 14.5587 12.3198 14.6393C12.6306 14.7199 12.9 14.9135 13.0756 15.1822Z" fill="#2595B8"/>
<path d="M13.52 17.4934L14.0089 16.9511C14.1333 17.04 14.2578 17.1378 14.3822 17.2089C14.4483 17.2526 14.5226 17.2823 14.6006 17.296C14.6786 17.3098 14.7585 17.3074 14.8356 17.2889C14.8854 17.2784 14.9314 17.2547 14.9689 17.2203C15.0065 17.1859 15.0341 17.1421 15.0489 17.0934C15.06 17.0424 15.0548 16.9893 15.0341 16.9414C15.0133 16.8936 14.9781 16.8534 14.9333 16.8267L14.4711 16.5689C14.2782 16.4631 14.0966 16.338 13.9289 16.1956C13.8177 16.0925 13.7347 15.9626 13.6879 15.8184C13.641 15.6741 13.6319 15.5203 13.6613 15.3715C13.6907 15.2227 13.7577 15.0839 13.8558 14.9683C13.954 14.8528 14.0802 14.7642 14.2222 14.7111C14.4925 14.6098 14.7886 14.6001 15.0648 14.6837C15.3411 14.7672 15.5823 14.9393 15.7511 15.1734L15.2267 15.6534L15.0133 15.4845C14.9021 15.3988 14.7615 15.3605 14.6222 15.3778C14.5741 15.3778 14.5274 15.3934 14.4889 15.4223C14.4504 15.4511 14.4223 15.4916 14.4089 15.5378C14.4013 15.5812 14.4086 15.6258 14.4296 15.6646C14.4506 15.7033 14.484 15.7338 14.5244 15.7511L15.2622 16.1423C15.3885 16.2078 15.5001 16.2983 15.5902 16.4084C15.6804 16.5184 15.7472 16.6456 15.7867 16.7822C15.8491 17.0168 15.8229 17.2662 15.713 17.4827C15.6032 17.6992 15.4173 17.8675 15.1911 17.9556C14.9079 18.0676 14.5965 18.0876 14.3013 18.0126C14.0061 17.9376 13.7421 17.7715 13.5467 17.5378C13.5397 17.5219 13.5307 17.507 13.52 17.4934Z" fill="#2595B8"/>
<path d="M9.38667 17.6711L9.44 17.6267V17.68C9.44 17.9378 9.44 17.9378 9.72444 17.9378H10.1156C10.1778 17.9378 10.1956 17.9378 10.1956 17.8489V14.8178C10.1956 14.8178 10.1956 14.7378 10.1422 14.7378H9.47555C9.47555 14.8356 9.47555 14.9244 9.47555 15.0222C9.47555 15.12 9.43111 15.0933 9.40444 15.0222L9.45778 14.96V14.72H10.2578V17.9644H9.44889V17.7778L9.38667 17.6711Z" fill="#3191AF"/>
<path d="M16.4981 13.8756C16.4981 13.8756 16.4981 13.9467 16.4981 13.9822V18.2667C16.5027 18.3021 16.5027 18.3379 16.4981 18.3734C16.4981 18.3289 16.4981 18.2845 16.4981 18.24V14.0178C16.4939 13.9705 16.4939 13.9229 16.4981 13.8756Z" fill="#515151"/>
<path d="M7.11111 15.4578C7.11111 15.5467 7.05778 15.6356 7.04 15.7245C6.95015 15.9668 6.91013 16.2247 6.92235 16.4828C6.93457 16.741 6.99877 16.994 7.11111 17.2267C7.11543 17.2472 7.11543 17.2684 7.11111 17.2889C6.9794 17.0888 6.89714 16.8603 6.87111 16.6222C6.82413 16.2604 6.87318 15.8925 7.01333 15.5556C7.04103 15.5184 7.07397 15.4855 7.11111 15.4578Z" fill="#3191AF"/>
<path d="M7.72444 17.8578C7.84 17.8578 7.94666 17.92 8.05333 17.9644C8.2369 18.0234 8.43172 18.0387 8.62222 18.0089C8.80551 17.9903 8.98198 17.9294 9.13778 17.8311H9.21778C9.06925 17.9414 8.89832 18.0176 8.71706 18.0545C8.53581 18.0913 8.34867 18.0879 8.16889 18.0444C8.01541 17.9958 7.86665 17.9333 7.72444 17.8578Z" fill="#3191AF"/>
<path d="M9.15556 14.8356C8.97778 14.7704 8.8 14.7171 8.62222 14.6756C8.47526 14.6491 8.32474 14.6491 8.17778 14.6756C8.01094 14.7124 7.84743 14.763 7.68889 14.8267C7.70573 14.8071 7.72708 14.7918 7.75111 14.7822C7.9589 14.671 8.19096 14.6128 8.42667 14.6128C8.66237 14.6128 8.89443 14.671 9.10222 14.7822L9.15556 14.8356Z" fill="#3191AF"/>
<path d="M7.18222 15.3067L7.09333 15.4578L7.18222 15.3067Z" fill="#3191AF"/>
<path d="M7.11111 17.2889L7.19111 17.3956L7.11111 17.2889Z" fill="#3191AF"/>
<path d="M7.35111 17.5556L7.44 17.6445L7.35111 17.5556Z" fill="#3191AF"/>
<path d="M7.31555 15.1111L7.24444 15.2L7.31555 15.1111Z" fill="#3191AF"/>
<path d="M7.54666 14.9245L7.45778 15.0045L7.54666 14.9245Z" fill="#3191AF"/>
<path d="M7.62666 17.7778L7.72444 17.84L7.62666 17.7778Z" fill="#3191AF"/>
<path d="M9.30667 14.9422L9.21778 14.88L9.30667 14.9422Z" fill="#3191AF"/>
<path d="M9.32444 17.7244L9.39555 17.6711L9.32444 17.7244Z" fill="#3191AF"/>
<path d="M7.24444 15.2267L7.19111 15.2978L7.24444 15.2267Z" fill="#3191AF"/>
<path d="M7.53778 17.7245L7.6 17.7778L7.53778 17.7245Z" fill="#3191AF"/>
<path d="M7.60889 14.88L7.54667 14.9245L7.60889 14.88Z" fill="#3191AF"/>
<path d="M17.9911 19.5556H17.9289H17.8756H17.76C17.5411 19.4604 17.3511 19.3092 17.2091 19.1173C17.0671 18.9254 16.9781 18.6994 16.9511 18.4622V14.0178C16.9511 14.0178 16.9511 13.9645 16.9511 13.9378L16.9956 13.76V13.6978V13.6445C17.1043 13.3788 17.2905 13.1519 17.5298 12.9934C17.7692 12.8349 18.0507 12.752 18.3378 12.7556H26.4178C26.795 12.7556 27.1567 12.9054 27.4234 13.1721C27.6902 13.4389 27.84 13.8006 27.84 14.1778V18.3289C27.846 18.5617 27.7929 18.7923 27.6857 18.9991C27.5784 19.2058 27.4205 19.382 27.2267 19.5111H27.1822H27.1378H27.0756H27.0311H26.9778C26.8267 19.5111 26.6756 19.5111 26.5333 19.5111H18.3289L17.9911 19.5556ZM26.4089 14.9867L26.3289 14.9156C26.1012 14.721 25.809 14.6185 25.5097 14.6284C25.2103 14.6383 24.9255 14.7597 24.7111 14.9689C24.5705 15.1013 24.4585 15.2611 24.3821 15.4384C24.3057 15.6158 24.2664 15.8069 24.2667 16C24.2408 16.3927 24.3719 16.7795 24.6311 17.0756C24.8238 17.3058 25.0953 17.456 25.3927 17.4971C25.6901 17.5382 25.9921 17.4671 26.24 17.2978L26.4178 17.1645V17.4311H27.0933V13.6711H26.4178L26.4089 14.9867ZM18.4089 17.1645L18.5067 17.2445C18.7182 17.411 18.9796 17.5015 19.2489 17.5015C19.5181 17.5015 19.7795 17.411 19.9911 17.2445C20.297 16.9949 20.4965 16.6385 20.5493 16.2473C20.6021 15.8561 20.5043 15.4595 20.2756 15.1378C20.1802 14.9979 20.0564 14.8797 19.9121 14.791C19.7678 14.7024 19.6064 14.6452 19.4385 14.6234C19.2706 14.6016 19.1 14.6155 18.9378 14.6644C18.7757 14.7132 18.6257 14.7958 18.4978 14.9067L18.4178 14.96C18.4178 14.8622 18.4178 14.7822 18.4178 14.6845C18.2222 14.6845 18.0444 14.6845 17.8578 14.6845C17.6711 14.6845 17.7333 14.6845 17.7333 14.8089V18.3111C17.7293 18.3495 17.7293 18.3883 17.7333 18.4267H18.4178L18.4089 17.1645ZM22.4 14.6311C22.1164 14.6346 21.8401 14.7218 21.6058 14.8818C21.3715 15.0417 21.1897 15.2673 21.0832 15.5302C20.9767 15.7931 20.9502 16.0816 21.007 16.3595C21.0638 16.6375 21.2015 16.8924 21.4027 17.0924C21.6039 17.2923 21.8597 17.4284 22.1379 17.4836C22.4162 17.5387 22.7045 17.5104 22.9667 17.4023C23.229 17.2941 23.4535 17.111 23.612 16.8757C23.7705 16.6405 23.856 16.3637 23.8578 16.08C23.8554 15.7012 23.7039 15.3385 23.436 15.0706C23.1682 14.8028 22.8055 14.6512 22.4267 14.6489L22.4 14.6311Z" fill="#F69924"/>
<path d="M25.68 20.0711C25.618 20.1644 25.5332 20.2403 25.4336 20.2917C25.3341 20.343 25.2231 20.3681 25.1111 20.3645C25.0011 20.3642 24.8927 20.3374 24.7952 20.2863C24.6977 20.2353 24.614 20.1614 24.5511 20.0711H25.68Z" fill="#F5CD17"/>
<path d="M17.9911 19.5556H18.3289H26.4089C26.5569 19.5649 26.7053 19.5649 26.8533 19.5556H26.7289H26.6578H18.1867H18.0622H17.9911Z" fill="#E7A145"/>
<path d="M26.56 19.6356H26.6667C26.6105 19.6405 26.554 19.6405 26.4978 19.6356H18.2578C18.1904 19.6274 18.1245 19.6094 18.0622 19.5822H18.1867H18.3022H26.4356L26.56 19.6356Z" fill="#342613"/>
<path d="M16.8893 13.8756C16.894 13.9021 16.894 13.9291 16.8893 13.9556V18.4C16.8844 18.3557 16.8844 18.311 16.8893 18.2667V13.9911C16.8843 13.9527 16.8843 13.914 16.8893 13.8756Z" fill="#EAA146"/>
<path d="M16.9778 13.6534L16.9244 13.8311L16.9778 13.6534Z" fill="#EAA146"/>
<path d="M26.72 19.6089H26.8444C26.8178 19.6444 26.7733 19.6356 26.72 19.6089Z" fill="#342613"/>
<path d="M7.71555 16.32C7.7338 16.1622 7.79402 16.0121 7.88995 15.8854C7.98587 15.7588 8.114 15.6601 8.26098 15.5998C8.40796 15.5395 8.56844 15.5196 8.72569 15.5423C8.88295 15.5651 9.03124 15.6295 9.15513 15.729C9.27901 15.8285 9.37397 15.9594 9.43011 16.108C9.48625 16.2567 9.50153 16.4176 9.47434 16.5742C9.44716 16.7307 9.37851 16.8771 9.27555 16.9981C9.17258 17.1191 9.03906 17.2103 8.88889 17.2622C8.8035 17.2759 8.71649 17.2759 8.63111 17.2622C8.39536 17.2622 8.16927 17.1686 8.00257 17.0019C7.83587 16.8352 7.74222 16.6091 7.74222 16.3733C7.73432 16.3551 7.72541 16.3373 7.71555 16.32Z" fill="#FBFDFE"/>
<path d="M4.54222 14.3822C4.73778 14.3822 4.93333 14.3822 5.12889 14.3822C5.1827 14.3843 5.2355 14.3975 5.28399 14.421C5.33247 14.4444 5.37558 14.4776 5.41063 14.5185C5.44568 14.5594 5.47191 14.6071 5.48767 14.6586C5.50343 14.7101 5.50838 14.7643 5.50222 14.8178C5.50007 14.917 5.46031 15.0116 5.39099 15.0826C5.32168 15.1535 5.22799 15.1955 5.12889 15.2C4.93356 15.2133 4.73755 15.2133 4.54222 15.2V14.3822Z" fill="#F8FCFD"/>
<path d="M4.54292 14.3822V15.2711C4.53451 15.248 4.53451 15.2231 4.54292 15.2V14.4445C4.5353 14.4243 4.5353 14.4024 4.54292 14.3822Z" fill="#3191AF"/>
<path d="M26.4089 15.0222V13.6711H27.0933V17.4667H26.4089V17.2L26.24 17.3333C25.9921 17.5027 25.6901 17.5737 25.3927 17.5327C25.0953 17.4916 24.8238 17.3413 24.6311 17.1111C24.497 16.9611 24.3953 16.7849 24.3326 16.5937C24.2699 16.4025 24.2474 16.2003 24.2667 16C24.2664 15.8069 24.3057 15.6158 24.3821 15.4384C24.4585 15.2611 24.5705 15.1013 24.7111 14.9689C24.9255 14.7597 25.2103 14.6383 25.5097 14.6284C25.809 14.6185 26.1012 14.721 26.3289 14.9156L26.4089 15.0222ZM26.4089 16.1067V16.0444C26.4043 15.8621 26.3332 15.6877 26.2088 15.5542C26.0845 15.4208 25.9157 15.3374 25.7341 15.3199C25.5525 15.3024 25.3708 15.352 25.2233 15.4593C25.0758 15.5665 24.9726 15.7241 24.9333 15.9022C24.8777 16.0948 24.8939 16.301 24.9789 16.4825C25.0639 16.664 25.212 16.8084 25.3956 16.8889C25.5171 16.9475 25.6523 16.9717 25.7866 16.9588C25.9209 16.9459 26.049 16.8965 26.1572 16.8158C26.2653 16.7352 26.3493 16.6264 26.3999 16.5014C26.4506 16.3764 26.466 16.2398 26.4444 16.1067H26.4089Z" fill="#FEFDFA"/>
<path d="M18.3644 17.2V18.4711H17.68C17.68 18.4711 17.68 18.4 17.68 18.3556V14.8622C17.68 14.7645 17.68 14.7378 17.8044 14.7378C17.9289 14.7378 18.1778 14.7378 18.3644 14.7378C18.3644 14.8356 18.3644 14.9067 18.3644 15.0045L18.4444 14.96C18.5724 14.85 18.722 14.768 18.8836 14.7192C19.0451 14.6705 19.2151 14.6561 19.3826 14.6771C19.5501 14.698 19.7113 14.7538 19.8559 14.8408C20.0005 14.9278 20.1253 15.0441 20.2222 15.1822C20.4495 15.5061 20.5464 15.9036 20.4936 16.2956C20.4409 16.6877 20.2425 17.0455 19.9378 17.2978C19.7262 17.4643 19.4648 17.5549 19.1956 17.5549C18.9263 17.5549 18.6649 17.4643 18.4533 17.2978L18.3644 17.2ZM19.8222 16.1067V16C19.8174 15.8677 19.7758 15.7393 19.702 15.6294C19.6281 15.5195 19.5251 15.4323 19.4044 15.3778C19.2849 15.3179 19.1512 15.292 19.0179 15.3029C18.8847 15.3139 18.757 15.3613 18.6489 15.44C18.5226 15.5368 18.4269 15.6679 18.3733 15.8177C18.3197 15.9675 18.3104 16.1295 18.3467 16.2845C18.3656 16.4072 18.4155 16.523 18.4917 16.621C18.5679 16.719 18.6679 16.7959 18.7822 16.8445C18.8997 16.8978 19.0291 16.9195 19.1576 16.9072C19.286 16.8949 19.409 16.8492 19.5143 16.7745C19.6195 16.6998 19.7034 16.5989 19.7574 16.4817C19.8114 16.3645 19.8338 16.2352 19.8222 16.1067Z" fill="#FEFDFA"/>
<path d="M22.3644 14.6667C22.6489 14.6667 22.9269 14.7509 23.1635 14.9088C23.4001 15.0666 23.5847 15.291 23.694 15.5536C23.8032 15.8162 23.8322 16.1053 23.7774 16.3844C23.7225 16.6635 23.5863 16.92 23.3858 17.1218C23.1853 17.3235 22.9295 17.4614 22.6508 17.5179C22.372 17.5745 22.0828 17.5472 21.8195 17.4396C21.5562 17.332 21.3307 17.1488 21.1714 16.9132C21.0121 16.6775 20.9262 16.4 20.9244 16.1156C20.9233 15.9257 20.9597 15.7375 21.0315 15.5618C21.1033 15.386 21.2092 15.2263 21.3431 15.0916C21.4769 14.9569 21.636 14.8501 21.8113 14.7771C21.9866 14.7042 22.1746 14.6667 22.3644 14.6667ZM21.6356 16.0978C21.6311 16.1451 21.6311 16.1927 21.6356 16.24C21.6356 16.4357 21.7133 16.6233 21.8516 16.7617C21.99 16.9001 22.1777 16.9778 22.3733 16.9778C22.569 16.9778 22.7567 16.9001 22.895 16.7617C23.0334 16.6233 23.1111 16.4357 23.1111 16.24C23.1295 16.129 23.1231 16.0153 23.0924 15.907C23.0617 15.7987 23.0075 15.6985 22.9336 15.6136C22.8598 15.5287 22.768 15.4611 22.665 15.4157C22.562 15.3704 22.4503 15.3483 22.3378 15.3511C22.146 15.3603 21.9651 15.443 21.8326 15.582C21.7002 15.7211 21.6264 15.9058 21.6267 16.0978H21.6356Z" fill="#FEFDF9"/>
<path d="M26.56 19.6365H26.4356H18.3111H18.1867H26.4978C26.5075 19.6312 26.5181 19.6284 26.5289 19.6284C26.5397 19.6284 26.5503 19.6312 26.56 19.6365Z" fill="#885C1C"/>
<path d="M26.4444 16.1067C26.4569 16.2364 26.4347 16.367 26.3803 16.4854C26.3259 16.6037 26.241 16.7056 26.1345 16.7805C26.0279 16.8555 25.9034 16.9009 25.7736 16.9121C25.6439 16.9233 25.5134 16.9 25.3956 16.8445C25.2279 16.7594 25.0942 16.6196 25.0167 16.4483C24.9391 16.277 24.9222 16.0844 24.9689 15.9022C25.0035 15.7209 25.1049 15.5591 25.253 15.4488C25.4011 15.3385 25.5852 15.2878 25.7689 15.3067C25.9537 15.3241 26.1256 15.409 26.2518 15.545C26.3781 15.6811 26.4498 15.8589 26.4533 16.0445C26.4533 16.0445 26.4444 16.0889 26.4444 16.1067Z" fill="#F59A26"/>
<path d="M19.8222 16.1067C19.8338 16.2352 19.8114 16.3645 19.7574 16.4817C19.7034 16.5989 19.6195 16.6998 19.5143 16.7745C19.409 16.8492 19.286 16.8949 19.1576 16.9072C19.0291 16.9195 18.8997 16.8978 18.7822 16.8444C18.6691 16.7967 18.5698 16.7212 18.4937 16.6248C18.4175 16.5285 18.367 16.4145 18.3467 16.2933C18.3091 16.1317 18.3174 15.9628 18.3708 15.8057C18.4243 15.6486 18.5206 15.5096 18.6489 15.4044C18.7584 15.325 18.8876 15.2772 19.0224 15.2662C19.1572 15.2552 19.2925 15.2815 19.4133 15.3422C19.5317 15.3988 19.6324 15.4867 19.7044 15.5964C19.7765 15.706 19.8172 15.8333 19.8222 15.9644V16.1067Z" fill="#F59A26"/>
<path d="M21.6356 16.0978V16.0445C21.6376 15.854 21.7124 15.6715 21.8446 15.5343C21.9768 15.3972 22.1564 15.3157 22.3467 15.3067C22.4596 15.3022 22.5722 15.3232 22.676 15.368C22.7798 15.4129 22.8722 15.4804 22.9464 15.5657C23.0206 15.651 23.0748 15.7519 23.1048 15.8609C23.1348 15.9699 23.14 16.0843 23.12 16.1956C23.12 16.3912 23.0423 16.5789 22.9039 16.7173C22.7655 16.8556 22.5779 16.9333 22.3822 16.9333C22.1865 16.9333 21.9989 16.8556 21.8605 16.7173C21.7222 16.5789 21.6444 16.3912 21.6444 16.1956C21.6394 16.1632 21.6364 16.1305 21.6356 16.0978Z" fill="#F59926"/>
</g>
<defs>
<clipPath id="clip0_2707_259513">
<rect width="32" height="32" fill="white"/>
</clipPath>
</defs>
</svg>
