<svg width="32" height="32" viewBox="0 0 32 32" fill="none" xmlns="http://www.w3.org/2000/svg">
<g clip-path="url(#clip0_2707_259473)">
<path d="M16 31.9822C24.8267 31.9822 31.9822 24.8268 31.9822 16C31.9822 7.17328 24.8267 0.0177917 16 0.0177917C7.17326 0.0177917 0.0177765 7.17328 0.0177765 16C0.0177765 24.8268 7.17326 31.9822 16 31.9822Z" fill="#004B5B"/>
<path d="M17.2889 2.66669C17.4673 2.71757 17.6483 2.75911 17.8311 2.79113C20.4858 3.16275 22.9668 4.32588 24.9505 6.12878C26.9341 7.93167 28.3283 10.2906 28.9511 12.8978C29.2718 14.2023 29.3828 15.5495 29.28 16.8889C29.0881 19.7108 28.0038 22.3986 26.1838 24.5638C24.3638 26.7289 21.9025 28.2592 19.1556 28.9334C17.8373 29.2814 16.472 29.4164 15.1111 29.3334C13.3867 29.2264 11.7006 28.7785 10.1504 28.0156C8.60025 27.2527 7.21675 26.19 6.08 24.8889C4.39282 23.0415 3.27809 20.7441 2.87111 18.2756C2.87111 18.0178 2.79111 17.7511 2.74666 17.4845C2.72441 17.4347 2.69764 17.3871 2.66666 17.3422V14.6311C2.69563 14.5834 2.71947 14.5328 2.73778 14.48C2.83555 13.9378 2.88889 13.3956 3.02222 12.8622C3.65397 10.2607 5.05422 7.90966 7.04071 6.11501C9.02719 4.32035 11.5079 3.16524 14.16 2.80002C14.3435 2.76756 14.5246 2.72302 14.7022 2.66669H17.2889ZM16 3.24446C13.481 3.24278 11.0179 3.98699 8.92124 5.38324C6.82461 6.7795 5.18832 8.76528 4.21872 11.0902C3.24911 13.4151 2.9896 15.9751 3.4729 18.4473C3.9562 20.9195 5.16067 23.1933 6.93444 24.9819C8.70821 26.7705 10.9719 27.9939 13.44 28.4978C15.9081 29.0017 18.4701 28.7635 20.803 27.8133C23.1359 26.8631 25.1353 25.2434 26.549 23.1585C27.9627 21.0736 28.7274 18.6167 28.7467 16.0978C28.7549 14.4166 28.4315 12.7502 27.7951 11.194C27.1588 9.63782 26.2219 8.22236 25.038 7.02858C23.8541 5.8348 22.4465 4.88613 20.8957 4.23681C19.3449 3.5875 17.6813 3.25029 16 3.24446Z" fill="#FEFE0C"/>
<path d="M24.9422 11.4933V16.6311H23.3244V17.8489H24.9333V23.0222H7.05778V17.8667H8.48889V16.6489H7.04889V11.4933H24.9422ZM17.8311 16.0533L20.0889 12.0622H11.7689L14.0267 16.0533H17.8311ZM17.5111 18.4533H14.3733V22.4445H17.4667L17.5111 18.4533ZM24.4178 16.0445V12.0622H23.3244V16.0533L24.4178 16.0445ZM23.3689 18.4445V22.4445H24.4V18.4533L23.3689 18.4445ZM17.5022 17.8578V16.6578H14.3822V17.8578H17.5022ZM7.64445 16.08H8.53333V12.0622H7.64445V16.08ZM7.64445 18.4889V22.48H8.53333V18.4533L7.64445 18.4889Z" fill="#FEFE0C"/>
<path d="M15.9111 5.84891L23.1111 9.96446C23.272 10.0438 23.4475 10.0892 23.6267 10.0978C24.16 10.0978 24.6844 10.0978 25.2267 10.0978V11.0578H6.72889V10.1689C6.79672 10.1596 6.8655 10.1596 6.93333 10.1689C7.075 10.1512 7.21833 10.1512 7.36 10.1689C8.08806 10.2336 8.8155 10.0383 9.41333 9.6178C11.4933 8.40002 13.5911 7.22669 15.68 6.06224L15.9111 5.84891Z" fill="#FEFE0C"/>
</g>
<defs>
<clipPath id="clip0_2707_259473">
<rect width="32" height="32" fill="white"/>
</clipPath>
</defs>
</svg>
